<svg xmlns="http://www.w3.org/2000/svg" version="1.1" width="3300" height="2000"><g id="Notes"><style>
    text {
      font-family: monospace;
      text-anchor: middle;
    }
    text.emphasis {
      font-weight:bold;
    }
    text.lanchor {
      text-anchor: start;
    }
  </style><rect height="2200" id="artboard" fill="white" width="3300" x="0" y="0"/><line id="" style="fill:none;stroke:black;stroke-width:0.5;" x1="263" x2="3036" y1="292" y2="292"/><text class="lanchor emphasis" transform="matrix(1 0 0 1 263 322)">Weight/Scale Variations</text><text transform="matrix(1 0 0 1 559.711 322)">Ultralight</text><text transform="matrix(1 0 0 1 856.422 322)">Thin</text><text transform="matrix(1 0 0 1 1153.13 322)">Light</text><text transform="matrix(1 0 0 1 1449.84 322)">Regular</text><text transform="matrix(1 0 0 1 1746.56 322)">Medium</text><text transform="matrix(1 0 0 1 2043.27 322)">Semibold</text><text transform="matrix(1 0 0 1 2339.98 322)">Bold</text><text transform="matrix(1 0 0 1 2636.69 322)">Heavy</text><text transform="matrix(1 0 0 1 2933.4 322)">Black</text><text id="template-version" style="text-anchor: end;" transform="matrix(1 0 0 1 3036 1933)">Template v.1.0</text><text class="lanchor" transform="matrix(1 0 0 1 263 726)">Small</text><text class="lanchor" transform="matrix(1 0 0 1 263 1156)">Medium</text><text class="lanchor" transform="matrix(1 0 0 1 263 1586)">Large</text></g><g id="Guides"><g id="H-reference" style="fill:#27AAE1;stroke:none;" transform="matrix(1 0 0 1 339 696)"><path d="M 54.9316 0 L 57.666 0 L 30.5664 -70.459 L 28.0762 -70.459 L 0.976562 0 L 3.66211 0 L 12.9395 -24.4629 L 45.7031 -24.4629 Z M 29.1992 -67.0898 L 29.4434 -67.0898 L 44.8242 -26.709 L 13.8184 -26.709 Z"/></g><line id="Baseline-S" style="fill:none;stroke:#27AAE1;opacity:1;stroke-width:0.577;" x1="263" x2="3036" y1="696" y2="696"/><line id="Capline-S" style="fill:none;stroke:#27AAE1;opacity:1;stroke-width:0.577;" x1="263" x2="3036" y1="625.541" y2="625.541"/><g id="H-reference" style="fill:#27AAE1;stroke:none;" transform="matrix(1 0 0 1 339 1126)"><path d="M 54.9316 0 L 57.666 0 L 30.5664 -70.459 L 28.0762 -70.459 L 0.976562 0 L 3.66211 0 L 12.9395 -24.4629 L 45.7031 -24.4629 Z M 29.1992 -67.0898 L 29.4434 -67.0898 L 44.8242 -26.709 L 13.8184 -26.709 Z"/></g><line id="Baseline-M" style="fill:none;stroke:#27AAE1;opacity:1;stroke-width:0.577;" x1="263" x2="3036" y1="1126" y2="1126"/><line id="Capline-M" style="fill:none;stroke:#27AAE1;opacity:1;stroke-width:0.577;" x1="263" x2="3036" y1="1055.54" y2="1055.54"/><g id="H-reference" style="fill:#27AAE1;stroke:none;" transform="matrix(1 0 0 1 339 1556)"><path d="M 54.9316 0 L 57.666 0 L 30.5664 -70.459 L 28.0762 -70.459 L 0.976562 0 L 3.66211 0 L 12.9395 -24.4629 L 45.7031 -24.4629 Z M 29.1992 -67.0898 L 29.4434 -67.0898 L 44.8242 -26.709 L 13.8184 -26.709 Z"/></g><line id="Baseline-L" style="fill:none;stroke:#27AAE1;opacity:1;stroke-width:0.577;" x1="263" x2="3036" y1="1556" y2="1556"/><line id="Capline-L" style="fill:none;stroke:#27AAE1;opacity:1;stroke-width:0.577;" x1="263" x2="3036" y1="1485.54" y2="1485.54"/><rect height="119.336" id="left-margin" style="fill:darkred;stroke:none;opacity:0.4;" width="12.4512" x="1394.06" y="1030.79"/><rect height="119.336" id="right-margin" style="fill:darkgreen;stroke:none;opacity:0.4;" width="12.4512" x="1502.5112" y="1030.79"/><rect x="1406.5112" y="1045" width="96" height="96" fill="none" stroke="blue" stroke-dasharray="5"/><rect x="1394.06" y="1030.79" width="120.9024" height="119.336" fill="none" stroke="blue"/></g><g id="Symbols"><g id="Bold-L" transform="matrix(1 0 0 1 2266 1556)"><path d="M38.216 32.011 Q31.919 32.011 27.489 27.581 Q23.059 23.151 23.059 16.854 V-87.314 Q23.059 -93.611 27.489 -98.041 Q31.919 -102.471 38.216 -102.471 H116.584 Q122.881 -102.471 127.311 -98.041 Q131.741 -93.611 131.741 -87.314 V16.854 Q131.741 23.151 127.311 27.581 Q122.881 32.011 116.584 32.011 H38.216 Z M38.216 -42.809 H63.371 V-49.259 H91.429 V-42.809 H116.584 V-87.314 Q116.584 -87.314 116.584 -87.314 Q116.584 -87.314 116.584 -87.314 H38.216 Q38.216 -87.314 38.216 -87.314 Q38.216 -87.314 38.216 -87.314 V-42.809 Z M38.216 -27.651 V16.854 Q38.216 16.854 38.216 16.854 Q38.216 16.854 38.216 16.854 H116.584 Q116.584 16.854 116.584 16.854 Q116.584 16.854 116.584 16.854 V-27.651 H38.216 Z"/></g><g id="Semibold-L" transform="matrix(1 0 0 1 1970.27 1556)"><path d="M37.024 30.819 Q31.783 30.819 28.017 27.053 Q24.251 23.287 24.251 18.046 V-88.506 Q24.251 -93.747 28.017 -97.513 Q31.783 -101.279 37.024 -101.279 H117.776 Q123.017 -101.279 126.783 -97.513 Q130.549 -93.747 130.549 -88.506 V18.046 Q130.549 23.287 126.783 27.053 Q123.017 30.819 117.776 30.819 H37.024 Z M37.024 -41.617 H64.563 V-48.067 H90.237 V-41.617 H117.776 V-88.506 Q117.776 -88.506 117.776 -88.506 Q117.776 -88.506 117.776 -88.506 H37.024 Q37.024 -88.506 37.024 -88.506 Q37.024 -88.506 37.024 -88.506 V-41.617 Z M37.024 -28.843 V18.046 Q37.024 18.046 37.024 18.046 Q37.024 18.046 37.024 18.046 H117.776 Q117.776 18.046 117.776 18.046 Q117.776 18.046 117.776 18.046 V-28.843 H37.024 Z"/></g><g id="Medium-L" transform="matrix(1 0 0 1 1674.31 1556)"><path d="M36.13 29.925 Q31.68 29.925 28.412 26.658 Q25.145 23.39 25.145 18.94 V-89.4 Q25.145 -93.85 28.412 -97.118 Q31.68 -100.385 36.13 -100.385 H118.67 Q123.12 -100.385 126.388 -97.118 Q129.655 -93.85 129.655 -89.4 V18.94 Q129.655 23.39 126.388 26.658 Q123.12 29.925 118.67 29.925 H36.13 Z M36.13 -40.723 H65.457 V-47.173 H89.343 V-40.723 H118.67 V-89.4 Q118.67 -89.4 118.67 -89.4 Q118.67 -89.4 118.67 -89.4 H36.13 Q36.13 -89.4 36.13 -89.4 Q36.13 -89.4 36.13 -89.4 V-40.723 Z M36.13 -29.737 V18.94 Q36.13 18.94 36.13 18.94 Q36.13 18.94 36.13 18.94 H118.67 Q118.67 18.94 118.67 18.94 Q118.67 18.94 118.67 18.94 V-29.737 H36.13 Z"/></g><g id="Regular-L" transform="matrix(1 0 0 1 1378.56 1556)"><path d="M35.475 29.27 Q31.605 29.27 28.703 26.368 Q25.8 23.465 25.8 19.595 V-90.055 Q25.8 -93.925 28.703 -96.827 Q31.605 -99.73 35.475 -99.73 H119.325 Q123.195 -99.73 126.097 -96.827 Q129 -93.925 129 -90.055 V19.595 Q129 23.465 126.097 26.368 Q123.195 29.27 119.325 29.27 H35.475 Z M35.475 -40.067 H66.112 V-46.517 H88.688 V-40.067 H119.325 V-90.055 Q119.325 -90.055 119.325 -90.055 Q119.325 -90.055 119.325 -90.055 H35.475 Q35.475 -90.055 35.475 -90.055 Q35.475 -90.055 35.475 -90.055 V-40.067 Z M35.475 -30.392 V19.595 Q35.475 19.595 35.475 19.595 Q35.475 19.595 35.475 19.595 H119.325 Q119.325 19.595 119.325 19.595 Q119.325 19.595 119.325 19.595 V-30.392 H35.475 Z"/></g><g id="Light-L" transform="matrix(1 0 0 1 1082.77 1556)"><path d="M38.328 25.983 Q34.534 25.983 31.78 23.228 Q29.025 20.474 29.025 16.68 V-87.14 Q29.025 -90.934 31.78 -93.688 Q34.534 -96.443 38.328 -96.443 H116.472 Q120.266 -96.443 123.02 -93.688 Q125.775 -90.934 125.775 -87.14 V16.68 Q125.775 20.474 123.02 23.228 Q120.266 25.983 116.472 25.983 H38.328 Z M36.343 -38.889 H67.291 V-44.595 H87.509 V-38.889 H118.457 V-87.14 Q118.457 -87.884 117.837 -88.504 Q117.216 -89.125 116.472 -89.125 H38.328 Q37.584 -89.125 36.963 -88.504 Q36.343 -87.884 36.343 -87.14 V-38.889 Z M36.343 -31.571 V16.68 Q36.343 17.424 36.963 18.044 Q37.584 18.665 38.328 18.665 H116.472 Q117.216 18.665 117.837 18.044 Q118.457 17.424 118.457 16.68 V-31.571 H36.343 Z"/></g><g id="Thin-L" transform="matrix(1 0 0 1 787.282 1556)"><path d="M41.181 22.696 Q37.463 22.696 34.856 20.09 Q32.25 17.483 32.25 13.765 V-84.225 Q32.25 -87.943 34.856 -90.55 Q37.463 -93.156 41.181 -93.156 H113.619 Q117.337 -93.156 119.944 -90.55 Q122.55 -87.943 122.55 -84.225 V13.765 Q122.55 17.483 119.944 20.09 Q117.337 22.696 113.619 22.696 H41.181 Z M37.212 -37.711 H68.469 V-42.672 H86.331 V-37.711 H117.588 V-84.225 Q117.588 -85.714 116.348 -86.954 Q115.108 -88.194 113.619 -88.194 H41.181 Q39.692 -88.194 38.452 -86.954 Q37.212 -85.714 37.212 -84.225 V-37.711 Z M37.212 -32.749 V13.765 Q37.212 15.254 38.452 16.494 Q39.692 17.734 41.181 17.734 H113.619 Q115.108 17.734 116.348 16.494 Q117.588 15.254 117.588 13.765 V-32.749 H37.212 Z"/></g><g id="Ultralight-L" transform="matrix(1 0 0 1 491.205 1556)"><path d="M42.892 20.724 Q39.22 20.724 36.703 18.206 Q34.185 15.689 34.185 12.016 V-82.476 Q34.185 -86.149 36.703 -88.666 Q39.22 -91.184 42.892 -91.184 H111.907 Q115.58 -91.184 118.098 -88.666 Q120.615 -86.149 120.615 -82.476 V12.016 Q120.615 15.689 118.098 18.206 Q115.58 20.724 111.907 20.724 H42.892 Z M37.733 -37.004 H69.176 V-41.519 H85.624 V-37.004 H117.068 V-82.476 Q117.068 -84.411 115.455 -86.024 Q113.843 -87.636 111.907 -87.636 H42.892 Q40.958 -87.636 39.345 -86.024 Q37.733 -84.411 37.733 -82.476 V-37.004 Z M37.733 -33.456 V12.016 Q37.733 13.951 39.345 15.564 Q40.958 17.176 42.892 17.176 H111.907 Q113.843 17.176 115.455 15.564 Q117.068 13.951 117.068 12.016 V-33.456 H37.733 Z"/></g><g id="Bold-M" transform="matrix(1 0 0 1 2281.8 1126)"><path d="M32.875 17.645 Q26.25 17.645 21.688 13.083 Q17.125 8.52 17.125 1.895 V-72.355 Q17.125 -78.98 21.688 -83.542 Q26.25 -88.105 32.875 -88.105 H87.125 Q93.75 -88.105 98.312 -83.542 Q102.875 -78.98 102.875 -72.355 V1.895 Q102.875 8.52 98.312 13.083 Q93.75 17.645 87.125 17.645 H32.875 Z M32.875 -43.105 H47.125 V-48.105 H72.875 V-43.105 H87.125 V-72.355 Q87.125 -72.355 87.125 -72.355 Q87.125 -72.355 87.125 -72.355 H32.875 Q32.875 -72.355 32.875 -72.355 Q32.875 -72.355 32.875 -72.355 V-43.105 Z M32.875 -27.355 V1.895 Q32.875 1.895 32.875 1.895 Q32.875 1.895 32.875 1.895 H87.125 Q87.125 1.895 87.125 1.895 Q87.125 1.895 87.125 1.895 V-27.355 H32.875 Z"/></g><g id="Semibold-M" transform="matrix(1 0 0 1 1985.97 1126)"><path d="M31.625 16.395 Q26.087 16.395 22.231 12.539 Q18.375 8.683 18.375 3.145 V-73.605 Q18.375 -79.143 22.231 -82.999 Q26.087 -86.855 31.625 -86.855 H88.375 Q93.913 -86.855 97.769 -82.999 Q101.625 -79.143 101.625 -73.605 V3.145 Q101.625 8.683 97.769 12.539 Q93.913 16.395 88.375 16.395 H31.625 Z M31.625 -41.855 H48.375 V-46.855 H71.625 V-41.855 H88.375 V-73.605 Q88.375 -73.605 88.375 -73.605 Q88.375 -73.605 88.375 -73.605 H31.625 Q31.625 -73.605 31.625 -73.605 Q31.625 -73.605 31.625 -73.605 V-41.855 Z M31.625 -28.605 V3.145 Q31.625 3.145 31.625 3.145 Q31.625 3.145 31.625 3.145 H88.375 Q88.375 3.145 88.375 3.145 Q88.375 3.145 88.375 3.145 V-28.605 H31.625 Z"/></g><g id="Medium-M" transform="matrix(1 0 0 1 1689.91 1126)"><path d="M30.688 15.458 Q25.965 15.458 22.639 12.131 Q19.312 8.805 19.312 4.083 V-74.542 Q19.312 -79.265 22.639 -82.591 Q25.965 -85.917 30.688 -85.917 H89.312 Q94.035 -85.917 97.361 -82.591 Q100.688 -79.265 100.688 -74.542 V4.083 Q100.688 8.805 97.361 12.131 Q94.035 15.458 89.312 15.458 H30.688 Z M30.688 -40.917 H49.312 V-45.917 H70.688 V-40.917 H89.312 V-74.542 Q89.312 -74.542 89.312 -74.542 Q89.312 -74.542 89.312 -74.542 H30.688 Q30.688 -74.542 30.688 -74.542 Q30.688 -74.542 30.688 -74.542 V-40.917 Z M30.688 -29.542 V4.083 Q30.688 4.083 30.688 4.083 Q30.688 4.083 30.688 4.083 H89.312 Q89.312 4.083 89.312 4.083 Q89.312 4.083 89.312 4.083 V-29.542 H30.688 Z"/></g><g id="Regular-M" transform="matrix(1 0 0 1 1394.06 1126)"><path d="M30 14.77 Q25.875 14.77 22.938 11.833 Q20 8.895 20 4.77 V-75.23 Q20 -79.355 22.938 -82.292 Q25.875 -85.23 30 -85.23 H90 Q94.125 -85.23 97.062 -82.292 Q100 -79.355 100 -75.23 V4.77 Q100 8.895 97.062 11.833 Q94.125 14.77 90 14.77 H30 Z M30 -40.23 H50 V-45.23 H70 V-40.23 H90 V-75.23 Q90 -75.23 90 -75.23 Q90 -75.23 90 -75.23 H30 Q30 -75.23 30 -75.23 Q30 -75.23 30 -75.23 V-40.23 Z M30 -30.23 V4.77 Q30 4.77 30 4.77 Q30 4.77 30 4.77 H90 Q90 4.77 90 4.77 Q90 4.77 90 4.77 V-30.23 H30 Z"/></g><g id="Light-M" transform="matrix(1 0 0 1 1098.18 1126)"><path d="M31.539 12.222 Q27.75 12.222 25.125 9.597 Q22.5 6.972 22.5 3.183 V-73.643 Q22.5 -77.432 25.125 -80.057 Q27.75 -82.682 31.539 -82.682 H88.461 Q92.25 -82.682 94.875 -80.057 Q97.5 -77.432 97.5 -73.643 V3.183 Q97.5 6.972 94.875 9.597 Q92.25 12.222 88.461 12.222 H31.539 Z M30 -38.98 H51.25 V-43.403 H68.75 V-38.98 H90 V-73.643 Q90 -74.22 89.519 -74.701 Q89.038 -75.182 88.461 -75.182 H31.539 Q30.962 -75.182 30.481 -74.701 Q30 -74.22 30 -73.643 V-38.98 Z M30 -31.48 V3.183 Q30 3.76 30.481 4.241 Q30.962 4.722 31.539 4.722 H88.461 Q89.038 4.722 89.519 4.241 Q90 3.76 90 3.183 V-31.48 H30 Z"/></g><g id="Thin-M" transform="matrix(1 0 0 1 802.565 1126)"><path d="M33.077 9.674 Q29.625 9.674 27.312 7.361 Q25 5.049 25 1.597 V-72.057 Q25 -75.509 27.312 -77.821 Q29.625 -80.134 33.077 -80.134 H86.923 Q90.375 -80.134 92.688 -77.821 Q95 -75.509 95 -72.057 V1.597 Q95 5.049 92.688 7.361 Q90.375 9.674 86.923 9.674 H33.077 Z M30 -37.73 H52.5 V-41.576 H67.5 V-37.73 H90 V-72.057 Q90 -73.211 89.038 -74.172 Q88.077 -75.134 86.923 -75.134 H33.077 Q31.923 -75.134 30.962 -74.172 Q30 -73.211 30 -72.057 V-37.73 Z M30 -32.73 V1.597 Q30 2.751 30.962 3.712 Q31.923 4.674 33.077 4.674 H86.923 Q88.077 4.674 89.038 3.712 Q90 2.751 90 1.597 V-32.73 H30 Z"/></g><g id="Ultralight-M" transform="matrix(1 0 0 1 506.415 1126)"><path d="M34 8.145 Q30.75 8.145 28.625 6.02 Q26.5 3.895 26.5 0.645 V-71.105 Q26.5 -74.355 28.625 -76.48 Q30.75 -78.605 34 -78.605 H86 Q89.25 -78.605 91.375 -76.48 Q93.5 -74.355 93.5 -71.105 V0.645 Q93.5 3.895 91.375 6.02 Q89.25 8.145 86 8.145 H34 Z M30 -36.98 H53.25 V-40.48 H66.75 V-36.98 H90 V-71.105 Q90 -72.605 88.75 -73.855 Q87.5 -75.105 86 -75.105 H34 Q32.5 -75.105 31.25 -73.855 Q30 -72.605 30 -71.105 V-36.98 Z M30 -33.48 V0.645 Q30 2.145 31.25 3.395 Q32.5 4.645 34 4.645 H86 Q87.5 4.645 88.75 3.395 Q90 2.145 90 0.645 V-33.48 H30 Z"/></g><g id="Bold-S" transform="matrix(1 0 0 1 2294.23 696)"><path d="M28.277 0.176 Q23.374 0.176 20.021 -3.192 Q16.668 -6.56 16.668 -11.461 V-58.999 Q16.668 -63.9 20.037 -67.268 Q23.406 -70.636 28.309 -70.636 H66.403 Q71.306 -70.636 74.659 -67.268 Q78.012 -63.9 78.012 -58.999 V-11.461 Q78.012 -6.56 74.643 -3.192 Q71.274 0.176 66.371 0.176 H28.277 Z M28.305 -41.049 H37.971 V-44.599 H56.709 V-41.049 H66.375 V-58.999 Q66.375 -58.999 66.375 -58.999 Q66.375 -58.999 66.375 -58.999 H28.305 Q28.305 -58.999 28.305 -58.999 Q28.305 -58.999 28.305 -58.999 V-41.049 Z M28.305 -29.411 V-11.461 Q28.305 -11.461 28.305 -11.461 Q28.305 -11.461 28.305 -11.461 H66.375 Q66.375 -11.461 66.375 -11.461 Q66.375 -11.461 66.375 -11.461 V-29.411 H28.305 Z"/></g><g id="Semibold-S" transform="matrix(1 0 0 1 1998.1 696)"><path d="M27.291 -0.81 Q23.246 -0.81 20.45 -3.62 Q17.654 -6.431 17.654 -10.475 V-59.985 Q17.654 -64.029 20.466 -66.84 Q23.277 -69.65 27.323 -69.65 H67.389 Q71.434 -69.65 74.23 -66.84 Q77.026 -64.029 77.026 -59.985 V-10.475 Q77.026 -6.431 74.214 -3.62 Q71.403 -0.81 67.357 -0.81 H27.291 Z M27.319 -40.063 H38.957 V-43.613 H55.723 V-40.063 H67.361 V-59.985 Q67.361 -59.985 67.361 -59.985 Q67.361 -59.985 67.361 -59.985 H27.319 Q27.319 -59.985 27.319 -59.985 Q27.319 -59.985 27.319 -59.985 V-40.063 Z M27.319 -30.397 V-10.475 Q27.319 -10.475 27.319 -10.475 Q27.319 -10.475 27.319 -10.475 H67.361 Q67.361 -10.475 67.361 -10.475 Q67.361 -10.475 67.361 -10.475 V-30.397 H27.319 Z"/></g><g id="Medium-S" transform="matrix(1 0 0 1 1701.85 696)"><path d="M26.552 -1.55 Q23.149 -1.55 20.771 -3.942 Q18.394 -6.335 18.394 -9.735 V-60.725 Q18.394 -64.125 20.787 -66.518 Q23.181 -68.91 26.583 -68.91 H68.128 Q71.531 -68.91 73.909 -66.518 Q76.286 -64.125 76.286 -60.725 V-9.735 Q76.286 -6.335 73.893 -3.942 Q71.499 -1.55 68.097 -1.55 H26.552 Z M26.579 -39.323 H39.697 V-42.873 H54.983 V-39.323 H68.101 V-60.725 Q68.101 -60.725 68.101 -60.725 Q68.101 -60.725 68.101 -60.725 H26.579 Q26.579 -60.725 26.579 -60.725 Q26.579 -60.725 26.579 -60.725 V-39.323 Z M26.579 -31.137 V-9.735 Q26.579 -9.735 26.579 -9.735 Q26.579 -9.735 26.579 -9.735 H68.101 Q68.101 -9.735 68.101 -9.735 Q68.101 -9.735 68.101 -9.735 V-31.137 H26.579 Z"/></g><g id="Regular-S" transform="matrix(1 0 0 1 1405.73 696)"><path d="M26.009 -2.092 Q23.078 -2.092 21.007 -4.178 Q18.936 -6.264 18.936 -9.193 V-61.267 Q18.936 -64.196 21.023 -66.282 Q23.11 -68.368 26.041 -68.368 H68.671 Q71.602 -68.368 73.673 -66.282 Q75.744 -64.196 75.744 -61.267 V-9.193 Q75.744 -6.264 73.657 -4.178 Q71.57 -2.092 68.639 -2.092 H26.009 Z M26.037 -38.78 H40.239 V-42.331 H54.441 V-38.78 H68.643 V-61.267 Q68.643 -61.267 68.643 -61.267 Q68.643 -61.267 68.643 -61.267 H26.037 Q26.037 -61.267 26.037 -61.267 Q26.037 -61.267 26.037 -61.267 V-38.78 Z M26.037 -31.679 V-9.193 Q26.037 -9.193 26.037 -9.193 Q26.037 -9.193 26.037 -9.193 H68.643 Q68.643 -9.193 68.643 -9.193 Q68.643 -9.193 68.643 -9.193 V-31.679 H26.037 Z"/></g><g id="Light-S" transform="matrix(1 0 0 1 1109.75 696)"><path d="M27.223 -4.103 Q24.558 -4.103 22.733 -5.942 Q20.909 -7.781 20.909 -10.445 V-60.015 Q20.909 -62.679 22.749 -64.518 Q24.59 -66.357 27.255 -66.357 H67.457 Q70.122 -66.357 71.947 -64.518 Q73.771 -62.679 73.771 -60.015 V-10.445 Q73.771 -7.781 71.931 -5.942 Q70.09 -4.103 67.425 -4.103 H27.223 Z M26.037 -37.794 H41.225 V-40.889 H53.455 V-37.794 H68.643 V-60.015 Q68.643 -60.47 68.264 -60.85 Q67.884 -61.229 67.429 -61.229 H27.251 Q26.796 -61.229 26.416 -60.85 Q26.037 -60.47 26.037 -60.015 V-37.794 Z M26.037 -32.666 V-10.445 Q26.037 -9.99 26.416 -9.61 Q26.796 -9.231 27.251 -9.231 H67.429 Q67.884 -9.231 68.264 -9.61 Q68.643 -9.99 68.643 -10.445 V-32.666 H26.037 Z"/></g><g id="Thin-S" transform="matrix(1 0 0 1 814.015 696)"><path d="M28.437 -6.113 Q26.037 -6.113 24.459 -7.706 Q22.881 -9.298 22.881 -11.696 V-58.764 Q22.881 -61.162 24.475 -62.754 Q26.069 -64.347 28.469 -64.347 H66.243 Q68.643 -64.347 70.221 -62.754 Q71.799 -61.162 71.799 -58.764 V-11.696 Q71.799 -9.298 70.205 -7.706 Q68.611 -6.113 66.211 -6.113 H28.437 Z M26.037 -36.808 H42.212 V-39.448 H52.468 V-36.808 H68.643 V-58.764 Q68.643 -59.674 67.884 -60.433 Q67.126 -61.191 66.215 -61.191 H28.465 Q27.554 -61.191 26.796 -60.433 Q26.037 -59.674 26.037 -58.764 V-36.808 Z M26.037 -33.652 V-11.696 Q26.037 -10.786 26.796 -10.027 Q27.554 -9.269 28.465 -9.269 H66.215 Q67.126 -9.269 67.884 -10.027 Q68.643 -10.786 68.643 -11.696 V-33.652 H26.037 Z"/></g><g id="Ultralight-S" transform="matrix(1 0 0 1 517.792 696)"><path d="M29.165 -7.319 Q26.925 -7.319 25.495 -8.764 Q24.065 -10.209 24.065 -12.448 V-58.012 Q24.065 -60.251 25.511 -61.696 Q26.957 -63.141 29.197 -63.141 H65.515 Q67.755 -63.141 69.185 -61.696 Q70.615 -60.251 70.615 -58.012 V-12.448 Q70.615 -10.209 69.169 -8.764 Q67.723 -7.319 65.483 -7.319 H29.165 Z M26.037 -36.216 H42.803 V-38.583 H51.877 V-36.216 H68.643 V-58.012 Q68.643 -59.196 67.657 -60.182 Q66.671 -61.168 65.487 -61.168 H29.193 Q28.01 -61.168 27.023 -60.182 Q26.037 -59.196 26.037 -58.012 V-36.216 Z M26.037 -34.244 V-12.448 Q26.037 -11.264 27.023 -10.278 Q28.01 -9.292 29.193 -9.292 H65.487 Q66.671 -9.292 67.657 -10.278 Q68.643 -11.264 68.643 -12.448 V-34.244 H26.037 Z"/></g></g></svg>