<svg xmlns="http://www.w3.org/2000/svg" version="1.1" width="3300" height="2000"><g id="Notes"><style>
    text {
      font-family: monospace;
      text-anchor: middle;
    }
    text.emphasis {
      font-weight:bold;
    }
    text.lanchor {
      text-anchor: start;
    }
  </style><rect height="2200" id="artboard" fill="white" width="3300" x="0" y="0"/><line id="" style="fill:none;stroke:black;stroke-width:0.5;" x1="263" x2="3036" y1="292" y2="292"/><text class="lanchor emphasis" transform="matrix(1 0 0 1 263 322)">Weight/Scale Variations</text><text transform="matrix(1 0 0 1 559.711 322)">Ultralight</text><text transform="matrix(1 0 0 1 856.422 322)">Thin</text><text transform="matrix(1 0 0 1 1153.13 322)">Light</text><text transform="matrix(1 0 0 1 1449.84 322)">Regular</text><text transform="matrix(1 0 0 1 1746.56 322)">Medium</text><text transform="matrix(1 0 0 1 2043.27 322)">Semibold</text><text transform="matrix(1 0 0 1 2339.98 322)">Bold</text><text transform="matrix(1 0 0 1 2636.69 322)">Heavy</text><text transform="matrix(1 0 0 1 2933.4 322)">Black</text><text id="template-version" style="text-anchor: end;" transform="matrix(1 0 0 1 3036 1933)">Template v.1.0</text><text class="lanchor" transform="matrix(1 0 0 1 263 726)">Small</text><text class="lanchor" transform="matrix(1 0 0 1 263 1156)">Medium</text><text class="lanchor" transform="matrix(1 0 0 1 263 1586)">Large</text></g><g id="Guides"><g id="H-reference" style="fill:#27AAE1;stroke:none;" transform="matrix(1 0 0 1 339 696)"><path d="M 54.9316 0 L 57.666 0 L 30.5664 -70.459 L 28.0762 -70.459 L 0.976562 0 L 3.66211 0 L 12.9395 -24.4629 L 45.7031 -24.4629 Z M 29.1992 -67.0898 L 29.4434 -67.0898 L 44.8242 -26.709 L 13.8184 -26.709 Z"/></g><line id="Baseline-S" style="fill:none;stroke:#27AAE1;opacity:1;stroke-width:0.577;" x1="263" x2="3036" y1="696" y2="696"/><line id="Capline-S" style="fill:none;stroke:#27AAE1;opacity:1;stroke-width:0.577;" x1="263" x2="3036" y1="625.541" y2="625.541"/><g id="H-reference" style="fill:#27AAE1;stroke:none;" transform="matrix(1 0 0 1 339 1126)"><path d="M 54.9316 0 L 57.666 0 L 30.5664 -70.459 L 28.0762 -70.459 L 0.976562 0 L 3.66211 0 L 12.9395 -24.4629 L 45.7031 -24.4629 Z M 29.1992 -67.0898 L 29.4434 -67.0898 L 44.8242 -26.709 L 13.8184 -26.709 Z"/></g><line id="Baseline-M" style="fill:none;stroke:#27AAE1;opacity:1;stroke-width:0.577;" x1="263" x2="3036" y1="1126" y2="1126"/><line id="Capline-M" style="fill:none;stroke:#27AAE1;opacity:1;stroke-width:0.577;" x1="263" x2="3036" y1="1055.54" y2="1055.54"/><g id="H-reference" style="fill:#27AAE1;stroke:none;" transform="matrix(1 0 0 1 339 1556)"><path d="M 54.9316 0 L 57.666 0 L 30.5664 -70.459 L 28.0762 -70.459 L 0.976562 0 L 3.66211 0 L 12.9395 -24.4629 L 45.7031 -24.4629 Z M 29.1992 -67.0898 L 29.4434 -67.0898 L 44.8242 -26.709 L 13.8184 -26.709 Z"/></g><line id="Baseline-L" style="fill:none;stroke:#27AAE1;opacity:1;stroke-width:0.577;" x1="263" x2="3036" y1="1556" y2="1556"/><line id="Capline-L" style="fill:none;stroke:#27AAE1;opacity:1;stroke-width:0.577;" x1="263" x2="3036" y1="1485.54" y2="1485.54"/><rect height="119.336" id="left-margin" style="fill:darkred;stroke:none;opacity:0.4;" width="12.4512" x="1394.06" y="1030.79"/><rect height="119.336" id="right-margin" style="fill:darkgreen;stroke:none;opacity:0.4;" width="12.4512" x="1502.5112" y="1030.79"/><rect x="1406.5112" y="1045" width="96" height="96" fill="none" stroke="blue" stroke-dasharray="5"/><rect x="1394.06" y="1030.79" width="120.9024" height="119.336" fill="none" stroke="blue"/></g><g id="Symbols"><g id="Bold-L" transform="matrix(1 0 0 1 2266 1556)"><path d="M28.38 27.738 Q22.128 27.738 17.877 23.525 Q13.626 19.311 13.626 12.984 V-56.515 Q13.626 -62.833 17.877 -67.132 Q22.128 -71.431 28.38 -71.431 H60.791 V-56.515 H28.38 Q28.38 -56.515 28.38 -56.515 Q28.38 -56.515 28.38 -56.515 V12.984 Q28.38 12.984 28.38 12.984 Q28.38 12.984 28.38 12.984 H126.42 Q126.42 12.984 126.42 12.984 Q126.42 12.984 126.42 12.984 V-56.515 Q126.42 -56.515 126.42 -56.515 Q126.42 -56.515 126.42 -56.515 H94.089 V-71.431 H126.42 Q132.738 -71.431 137.037 -67.132 Q141.336 -62.833 141.336 -56.515 V12.984 Q141.336 19.311 137.037 23.525 Q132.738 27.738 126.42 27.738 H28.38 Z M77.4 -3.464  45.069 -35.794  55.631 -46.356  70.063 -31.682 V-111.34 H84.817 V-31.763 L99.249 -46.356 L109.731 -35.794 L77.4 -3.464 Z"/></g><g id="Semibold-L" transform="matrix(1 0 0 1 1970.27 1556)"><path d="M28.801 25.355 Q23.604 25.355 20.017 21.805 Q16.43 18.256 16.43 12.984 V-56.936 Q16.43 -62.17 20.017 -65.784 Q23.604 -69.398 28.801 -69.398 H61.983 V-56.936 H28.801 Q28.801 -56.936 28.801 -56.936 Q28.801 -56.936 28.801 -56.936 V12.984 Q28.801 12.984 28.801 12.984 Q28.801 12.984 28.801 12.984 H125.999 Q125.999 12.984 125.999 12.984 Q125.999 12.984 125.999 12.984 V-56.936 Q125.999 -56.936 125.999 -56.936 Q125.999 -56.936 125.999 -56.936 H92.898 V-69.398 H125.999 Q131.233 -69.398 134.847 -65.784 Q138.461 -62.17 138.461 -56.936 V12.984 Q138.461 18.256 134.847 21.805 Q131.233 25.355 125.999 25.355 H28.801 Z M77.4 -6.338  47.944 -35.794  56.823 -44.674  71.255 -30.07 V-111.34 H83.626 V-30.151 L98.058 -44.674 L106.856 -35.794 L77.4 -6.338 Z"/></g><g id="Medium-L" transform="matrix(1 0 0 1 1674.31 1556)"><path d="M29.116 23.567 Q24.711 23.567 21.622 20.516 Q18.533 17.464 18.533 12.984 V-57.251 Q18.533 -61.672 21.622 -64.772 Q24.711 -67.873 29.116 -67.873 H62.877 V-57.251 H29.116 Q29.116 -57.251 29.116 -57.251 Q29.116 -57.251 29.116 -57.251 V12.984 Q29.116 12.984 29.116 12.984 Q29.116 12.984 29.116 12.984 H125.684 Q125.684 12.984 125.684 12.984 Q125.684 12.984 125.684 12.984 V-57.251 Q125.684 -57.251 125.684 -57.251 Q125.684 -57.251 125.684 -57.251 H92.004 V-67.873 H125.684 Q130.105 -67.873 133.205 -64.772 Q136.305 -61.672 136.305 -57.251 V12.984 Q136.305 17.464 133.205 20.516 Q130.105 23.567 125.684 23.567 H29.116 Z M77.4 -8.494  50.1 -35.794  57.717 -43.412  72.149 -28.861 V-111.34 H82.732 V-28.941 L97.164 -43.412 L104.7 -35.794 L77.4 -8.494 Z"/></g><g id="Regular-L" transform="matrix(1 0 0 1 1378.56 1556)"><path d="M29.348 22.256 Q25.523 22.256 22.799 19.57 Q20.076 16.884 20.076 12.984 V-57.482 Q20.076 -61.307 22.799 -64.031 Q25.523 -66.754 29.348 -66.754 H63.532 V-57.482 H29.348 Q29.348 -57.482 29.348 -57.482 Q29.348 -57.482 29.348 -57.482 V12.984 Q29.348 12.984 29.348 12.984 Q29.348 12.984 29.348 12.984 H125.453 Q125.453 12.984 125.453 12.984 Q125.453 12.984 125.453 12.984 V-57.482 Q125.453 -57.482 125.453 -57.482 Q125.453 -57.482 125.453 -57.482 H91.348 V-66.754 H125.453 Q129.277 -66.754 132.001 -64.031 Q134.724 -61.307 134.724 -57.482 V12.984 Q134.724 16.884 132.001 19.57 Q129.277 22.256 125.453 22.256 H29.348 Z M77.4 -10.075  51.681 -35.794  58.373 -42.486  72.804 -27.974 V-111.34 H82.076 V-28.054 L96.508 -42.486 L103.119 -35.794 L77.4 -10.075 Z"/></g><g id="Light-L" transform="matrix(1 0 0 1 1082.77 1556)"><path d="M32.076 19.216 Q28.374 19.216 25.698 16.593 Q23.022 13.969 23.022 10.162 V-54.784 Q23.022 -58.487 25.698 -61.163 Q28.374 -63.839 32.076 -63.839 H61.114 V-56.769 H32.076 Q31.208 -56.769 30.65 -56.196 Q30.092 -55.622 30.092 -54.784 V10.162 Q30.092 11.03 30.65 11.588 Q31.208 12.146 32.076 12.146 H122.724 Q123.592 12.146 124.15 11.588 Q124.708 11.03 124.708 10.162 V-54.784 Q124.708 -55.622 124.15 -56.196 Q123.592 -56.769 122.724 -56.769 H93.736 V-63.839 H122.724 Q126.426 -63.839 129.102 -61.163 Q131.778 -58.487 131.778 -54.784 V10.162 Q131.778 13.969 129.102 16.593 Q126.426 19.216 122.724 19.216 H32.076 Z M77.4 -12.122  53.82 -35.701  59.024 -40.843  73.89 -25.834 V-106.998 H80.96 V-25.883 L95.95 -40.843 L100.98 -35.701 L77.4 -12.122 Z"/></g><g id="Thin-L" transform="matrix(1 0 0 1 787.282 1556)"><path d="M34.805 16.178 Q31.225 16.178 28.596 13.616 Q25.967 11.054 25.967 7.34 V-52.087 Q25.967 -55.667 28.596 -58.296 Q31.225 -60.925 34.805 -60.925 H58.695 V-56.056 H34.805 Q33.069 -56.056 31.952 -54.909 Q30.836 -53.761 30.836 -52.087 V7.34 Q30.836 9.077 31.952 10.193 Q33.069 11.309 34.805 11.309 H119.995 Q121.731 11.309 122.848 10.193 Q123.964 9.077 123.964 7.34 V-52.087 Q123.964 -53.761 122.848 -54.909 Q121.731 -56.056 119.995 -56.056 H96.124 V-60.925 H119.995 Q123.575 -60.925 126.204 -58.296 Q128.833 -55.667 128.833 -52.087 V7.34 Q128.833 11.054 126.204 13.616 Q123.575 16.178 119.995 16.178 H34.805 Z M77.4 -14.168  55.96 -35.608  59.675 -39.199  74.975 -23.694 V-102.657 H79.844 V-23.713 L95.392 -39.199 L98.84 -35.608 L77.4 -14.168 Z"/></g><g id="Ultralight-L" transform="matrix(1 0 0 1 491.205 1556)"><path d="M36.443 14.354 Q32.935 14.354 30.335 11.83 Q27.735 9.305 27.735 5.647 V-50.468 Q27.735 -53.975 30.335 -56.575 Q32.935 -59.176 36.443 -59.176 H57.244 V-55.628 H36.443 Q34.185 -55.628 32.734 -54.137 Q31.283 -52.645 31.283 -50.468 V5.647 Q31.283 7.904 32.734 9.356 Q34.185 10.807 36.443 10.807 H118.358 Q120.615 10.807 122.066 9.356 Q123.517 7.904 123.517 5.647 V-50.468 Q123.517 -52.645 122.066 -54.137 Q120.615 -55.628 118.358 -55.628 H97.556 V-59.176 H118.358 Q121.865 -59.176 124.465 -56.575 Q127.065 -53.975 127.065 -50.468 V5.647 Q127.065 9.305 124.465 11.83 Q121.865 14.354 118.358 14.354 H36.443 Z M77.4 -15.396  57.244 -35.552  60.066 -38.213  75.626 -22.411 V-100.052 H79.174 V-22.411 L95.057 -38.213 L97.556 -35.552 L77.4 -15.396 Z"/></g><g id="Bold-M" transform="matrix(1 0 0 1 2281.8 1126)"><path d="M24.5 14.708 Q18.133 14.708 13.754 10.329 Q9.375 5.95 9.375 -0.417 V-48.667 Q9.375 -55.035 13.754 -59.414 Q18.133 -63.792 24.5 -63.792 H43.125 V-48.667 H24.5 Q24.5 -48.667 24.5 -48.667 Q24.5 -48.667 24.5 -48.667 V-0.417 Q24.5 -0.417 24.5 -0.417 Q24.5 -0.417 24.5 -0.417 H95.5 Q95.5 -0.417 95.5 -0.417 Q95.5 -0.417 95.5 -0.417 V-48.667 Q95.5 -48.667 95.5 -48.667 Q95.5 -48.667 95.5 -48.667 H77 V-63.792 H95.5 Q101.867 -63.792 106.246 -59.414 Q110.625 -55.035 110.625 -48.667 V-0.417 Q110.625 5.95 106.246 10.329 Q101.867 14.708 95.5 14.708 H24.5 Z M60 -8.605  33.75 -34.855  44.312 -45.417  52.5 -37.167 V-93.23 H67.625 V-37.292 L75.688 -45.417 L86.25 -34.855 L60 -8.605 Z"/></g><g id="Semibold-M" transform="matrix(1 0 0 1 1985.97 1126)"><path d="M24.935 12.208 Q19.654 12.208 15.982 8.535 Q12.31 4.863 12.31 -0.417 V-49.102 Q12.31 -54.382 15.982 -58.055 Q19.654 -61.727 24.935 -61.727 H44.375 V-49.102 H24.935 Q24.935 -49.102 24.935 -49.102 Q24.935 -49.102 24.935 -49.102 V-0.417 Q24.935 -0.417 24.935 -0.417 Q24.935 -0.417 24.935 -0.417 H95.065 Q95.065 -0.417 95.065 -0.417 Q95.065 -0.417 95.065 -0.417 V-49.102 Q95.065 -49.102 95.065 -49.102 Q95.065 -49.102 95.065 -49.102 H75.75 V-61.727 H95.065 Q100.346 -61.727 104.018 -58.055 Q107.69 -54.382 107.69 -49.102 V-0.417 Q107.69 4.863 104.018 8.535 Q100.346 12.208 95.065 12.208 H24.935 Z M60 -11.594  36.739 -34.855  45.562 -43.678  53.75 -35.483 V-93.23 H66.375 V-35.608 L74.438 -43.678 L83.261 -34.855 L60 -11.594 Z"/></g><g id="Medium-M" transform="matrix(1 0 0 1 1689.91 1126)"><path d="M25.261 10.333 Q20.796 10.333 17.653 7.19 Q14.511 4.048 14.511 -0.417 V-49.428 Q14.511 -53.893 17.653 -57.036 Q20.796 -60.178 25.261 -60.178 H45.312 V-49.428 H25.261 Q25.261 -49.428 25.261 -49.428 Q25.261 -49.428 25.261 -49.428 V-0.417 Q25.261 -0.417 25.261 -0.417 Q25.261 -0.417 25.261 -0.417 H94.739 Q94.739 -0.417 94.739 -0.417 Q94.739 -0.417 94.739 -0.417 V-49.428 Q94.739 -49.428 94.739 -49.428 Q94.739 -49.428 94.739 -49.428 H74.812 V-60.178 H94.739 Q99.204 -60.178 102.347 -57.036 Q105.489 -53.893 105.489 -49.428 V-0.417 Q105.489 4.048 102.347 7.19 Q99.204 10.333 94.739 10.333 H25.261 Z M60 -13.836  38.981 -34.855  46.5 -42.374  54.688 -34.219 V-93.23 H65.438 V-34.344 L73.5 -42.374 L81.019 -34.855 L60 -13.836 Z"/></g><g id="Regular-M" transform="matrix(1 0 0 1 1394.06 1126)"><path d="M25.5 8.958 Q21.633 8.958 18.879 6.204 Q16.125 3.45 16.125 -0.417 V-49.667 Q16.125 -53.535 18.879 -56.289 Q21.633 -59.042 25.5 -59.042 H46 V-49.667 H25.5 Q25.5 -49.667 25.5 -49.667 Q25.5 -49.667 25.5 -49.667 V-0.417 Q25.5 -0.417 25.5 -0.417 Q25.5 -0.417 25.5 -0.417 H94.5 Q94.5 -0.417 94.5 -0.417 Q94.5 -0.417 94.5 -0.417 V-49.667 Q94.5 -49.667 94.5 -49.667 Q94.5 -49.667 94.5 -49.667 H74.125 V-59.042 H94.5 Q98.367 -59.042 101.121 -56.289 Q103.875 -53.535 103.875 -49.667 V-0.417 Q103.875 3.45 101.121 6.204 Q98.367 8.958 94.5 8.958 H25.5 Z M60 -15.48  40.625 -34.855  47.188 -41.417  55.375 -33.292 V-93.23 H64.75 V-33.417 L72.812 -41.417 L79.375 -34.855 L60 -15.48 Z"/></g><g id="Light-M" transform="matrix(1 0 0 1 1098.18 1126)"><path d="M26.942 6.602 Q23.41 6.602 20.91 4.112 Q18.409 1.623 18.409 -1.932 V-48.249 Q18.409 -51.781 20.91 -54.282 Q23.41 -56.783 26.942 -56.783 H45.135 V-49.788 H26.942 Q26.269 -49.788 25.837 -49.343 Q25.404 -48.898 25.404 -48.249 V-1.932 Q25.404 -1.259 25.837 -0.826 Q26.269 -0.393 26.942 -0.393 H93.058 Q93.731 -0.393 94.163 -0.826 Q94.596 -1.259 94.596 -1.932 V-48.249 Q94.596 -48.898 94.163 -49.343 Q93.731 -49.788 93.058 -49.788 H74.966 V-56.783 H93.058 Q96.59 -56.783 99.091 -54.282 Q101.591 -51.781 101.591 -48.249 V-1.932 Q101.591 1.623 99.091 4.112 Q96.59 6.602 93.058 6.602 H26.942 Z M60 -17.163  42.236 -34.927  47.163 -39.855  56.553 -30.48 V-89.864 H63.548 V-30.581 L72.861 -39.855 L77.764 -34.927 L60 -17.163 Z"/></g><g id="Thin-M" transform="matrix(1 0 0 1 802.565 1126)"><path d="M28.385 4.246 Q25.188 4.246 22.94 2.021 Q20.692 -0.204 20.692 -3.446 V-46.831 Q20.692 -50.028 22.94 -52.276 Q25.188 -54.523 28.385 -54.523 H44.269 V-49.908 H28.385 Q27.038 -49.908 26.173 -49.018 Q25.308 -48.129 25.308 -46.831 V-3.446 Q25.308 -2.1 26.173 -1.235 Q27.038 -0.369 28.385 -0.369 H91.615 Q92.962 -0.369 93.827 -1.235 Q94.692 -2.1 94.692 -3.446 V-46.831 Q94.692 -48.129 93.827 -49.018 Q92.962 -49.908 91.615 -49.908 H75.808 V-54.523 H91.615 Q94.812 -54.523 97.06 -52.276 Q99.308 -50.028 99.308 -46.831 V-3.446 Q99.308 -0.204 97.06 2.021 Q94.812 4.246 91.615 4.246 H28.385 Z M60 -18.845  43.846 -34.999  47.139 -38.292  57.731 -27.667 V-86.499 H62.346 V-27.744 L72.909 -38.292 L76.154 -34.999 L60 -18.845 Z"/></g><g id="Ultralight-M" transform="matrix(1 0 0 1 506.415 1126)"><path d="M29.25 2.833 Q26.254 2.833 24.158 0.766 Q22.062 -1.3 22.062 -4.355 V-45.98 Q22.062 -48.976 24.158 -51.072 Q26.254 -53.167 29.25 -53.167 H43.75 V-49.98 H29.25 Q27.5 -49.98 26.375 -48.824 Q25.25 -47.667 25.25 -45.98 V-4.355 Q25.25 -2.605 26.375 -1.48 Q27.5 -0.355 29.25 -0.355 H90.75 Q92.5 -0.355 93.625 -1.48 Q94.75 -2.605 94.75 -4.355 V-45.98 Q94.75 -47.667 93.625 -48.824 Q92.5 -49.98 90.75 -49.98 H76.312 V-53.167 H90.75 Q93.746 -53.167 95.842 -51.072 Q97.938 -48.976 97.938 -45.98 V-4.355 Q97.938 -1.3 95.842 0.766 Q93.746 2.833 90.75 2.833 H29.25 Z M60 -19.855  44.812 -35.042  47.125 -37.355  58.438 -25.98 V-84.48 H61.625 V-26.042 L72.938 -37.355 L75.188 -35.042 L60 -19.855 Z"/></g><g id="Bold-S" transform="matrix(1 0 0 1 2294.23 696)"><path d="M20.909 1.804 Q16.21 1.804 12.987 -1.419 Q9.764 -4.643 9.764 -9.341 V-45.832 Q9.764 -50.53 12.987 -53.754 Q16.21 -56.977 20.909 -56.977 H35.209 V-45.832 H20.909 Q20.909 -45.832 20.909 -45.832 Q20.909 -45.832 20.909 -45.832 V-9.341 Q20.909 -9.341 20.909 -9.341 Q20.909 -9.341 20.909 -9.341 H73.772 Q73.772 -9.341 73.772 -9.341 Q73.772 -9.341 73.772 -9.341 V-45.832 Q73.772 -45.832 73.772 -45.832 Q73.772 -45.832 73.772 -45.832 H59.57 V-56.977 H73.772 Q78.47 -56.977 81.693 -53.754 Q84.916 -50.53 84.916 -45.832 V-9.341 Q84.916 -4.643 81.693 -1.419 Q78.47 1.804 73.772 1.804 H20.909 Z M47.34 -15.801  28.207 -34.934  36.047 -42.775  41.817 -36.857 V-76.258 H52.962 V-36.956 L58.633 -42.775 L66.473 -34.934 L47.34 -15.801 Z"/></g><g id="Semibold-S" transform="matrix(1 0 0 1 1998.1 696)"><path d="M21.252 -0.169 Q17.411 -0.169 14.745 -2.834 Q12.079 -5.5 12.079 -9.341 V-46.175 Q12.079 -50.016 14.745 -52.682 Q17.411 -55.347 21.252 -55.347 H36.195 V-46.175 H21.252 Q21.252 -46.175 21.252 -46.175 Q21.252 -46.175 21.252 -46.175 V-9.341 Q21.252 -9.341 21.252 -9.341 Q21.252 -9.341 21.252 -9.341 H73.428 Q73.428 -9.341 73.428 -9.341 Q73.428 -9.341 73.428 -9.341 V-46.175 Q73.428 -46.175 73.428 -46.175 Q73.428 -46.175 73.428 -46.175 H58.583 V-55.347 H73.428 Q77.269 -55.347 79.935 -52.682 Q82.601 -50.016 82.601 -46.175 V-9.341 Q82.601 -5.5 79.935 -2.834 Q77.269 -0.169 73.428 -0.169 H21.252 Z M47.34 -18.159  30.565 -34.934  37.034 -41.403  42.803 -35.528 V-76.258 H51.975 V-35.627 L57.646 -41.403 L64.115 -34.934 L47.34 -18.159 Z"/></g><g id="Medium-S" transform="matrix(1 0 0 1 1701.85 696)"><path d="M21.509 -1.648 Q18.311 -1.648 16.064 -3.896 Q13.816 -6.144 13.816 -9.341 V-46.433 Q13.816 -49.63 16.064 -51.878 Q18.311 -54.125 21.509 -54.125 H36.935 V-46.433 H21.509 Q21.509 -46.433 21.509 -46.433 Q21.509 -46.433 21.509 -46.433 V-9.341 Q21.509 -9.341 21.509 -9.341 Q21.509 -9.341 21.509 -9.341 H73.171 Q73.171 -9.341 73.171 -9.341 Q73.171 -9.341 73.171 -9.341 V-46.433 Q73.171 -46.433 73.171 -46.433 Q73.171 -46.433 73.171 -46.433 H57.844 V-54.125 H73.171 Q76.369 -54.125 78.616 -51.878 Q80.864 -49.63 80.864 -46.433 V-9.341 Q80.864 -6.144 78.616 -3.896 Q76.369 -1.648 73.171 -1.648 H21.509 Z M47.34 -19.928  32.334 -34.934  37.773 -40.373  43.543 -34.531 V-76.258 H51.236 V-34.63 L56.907 -40.373 L62.346 -34.934 L47.34 -19.928 Z"/></g><g id="Regular-S" transform="matrix(1 0 0 1 1405.73 696)"><path d="M21.698 -2.733 Q18.972 -2.733 17.031 -4.674 Q15.09 -6.615 15.09 -9.341 V-46.621 Q15.09 -49.347 17.031 -51.288 Q18.972 -53.229 21.698 -53.229 H37.477 V-46.621 H21.698 Q21.698 -46.621 21.698 -46.621 Q21.698 -46.621 21.698 -46.621 V-9.341 Q21.698 -9.341 21.698 -9.341 Q21.698 -9.341 21.698 -9.341 H72.983 Q72.983 -9.341 72.983 -9.341 Q72.983 -9.341 72.983 -9.341 V-46.621 Q72.983 -46.621 72.983 -46.621 Q72.983 -46.621 72.983 -46.621 H57.301 V-53.229 H72.983 Q75.708 -53.229 77.649 -51.288 Q79.59 -49.347 79.59 -46.621 V-9.341 Q79.59 -6.615 77.649 -4.674 Q75.708 -2.733 72.983 -2.733 H21.698 Z M47.34 -21.225  33.631 -34.934  38.316 -39.619  44.085 -33.8 V-76.258 H50.693 V-33.899 L56.364 -39.619 L61.049 -34.934 L47.34 -21.225 Z"/></g><g id="Light-S" transform="matrix(1 0 0 1 1109.75 696)"><path d="M22.836 -4.592 Q20.374 -4.592 18.633 -6.324 Q16.892 -8.057 16.892 -10.536 V-45.502 Q16.892 -47.963 18.633 -49.705 Q20.374 -51.446 22.836 -51.446 H36.795 V-46.716 H22.836 Q22.304 -46.716 21.963 -46.365 Q21.622 -46.014 21.622 -45.502 V-10.536 Q21.622 -10.005 21.963 -9.663 Q22.304 -9.322 22.836 -9.322 H71.844 Q72.376 -9.322 72.717 -9.663 Q73.058 -10.005 73.058 -10.536 V-45.502 Q73.058 -46.014 72.717 -46.365 Q72.376 -46.716 71.844 -46.716 H57.965 V-51.446 H71.844 Q74.306 -51.446 76.047 -49.705 Q77.788 -47.963 77.788 -45.502 V-10.536 Q77.788 -8.057 76.047 -6.324 Q74.306 -4.592 71.844 -4.592 H22.836 Z M47.34 -22.553  34.902 -34.991  38.297 -38.386  45.015 -31.581 V-73.603 H49.745 V-31.66 L56.402 -38.386 L59.778 -34.991 L47.34 -22.553 Z"/></g><g id="Thin-S" transform="matrix(1 0 0 1 814.015 696)"><path d="M23.973 -6.45 Q21.776 -6.45 20.235 -7.974 Q18.693 -9.498 18.693 -11.731 V-44.383 Q18.693 -46.58 20.235 -48.122 Q21.776 -49.663 23.973 -49.663 H36.112 V-46.811 H23.973 Q22.911 -46.811 22.229 -46.109 Q21.546 -45.407 21.546 -44.383 V-11.731 Q21.546 -10.669 22.229 -9.986 Q22.911 -9.303 23.973 -9.303 H70.707 Q71.769 -9.303 72.451 -9.986 Q73.134 -10.669 73.134 -11.731 V-44.383 Q73.134 -45.407 72.451 -46.109 Q71.769 -46.811 70.707 -46.811 H58.629 V-49.663 H70.707 Q72.904 -49.663 74.445 -48.122 Q75.987 -46.58 75.987 -44.383 V-11.731 Q75.987 -9.498 74.445 -7.974 Q72.904 -6.45 70.707 -6.45 H23.973 Z M47.34 -23.881  36.173 -35.048  38.278 -37.153  45.944 -29.362 V-70.947 H48.797 V-29.423 L56.44 -37.153 L58.507 -35.048 L47.34 -23.881 Z"/></g><g id="Ultralight-S" transform="matrix(1 0 0 1 517.792 696)"><path d="M24.656 -7.566 Q22.618 -7.566 21.196 -8.964 Q19.774 -10.363 19.774 -12.448 V-43.712 Q19.774 -45.75 21.196 -47.172 Q22.618 -48.594 24.656 -48.594 H35.702 V-46.868 H24.656 Q23.276 -46.868 22.388 -45.955 Q21.5 -45.043 21.5 -43.712 V-12.448 Q21.5 -11.067 22.388 -10.179 Q23.276 -9.292 24.656 -9.292 H70.024 Q71.404 -9.292 72.292 -10.179 Q73.18 -11.067 73.18 -12.448 V-43.712 Q73.18 -45.043 72.292 -45.955 Q71.404 -46.868 70.024 -46.868 H59.027 V-48.594 H70.024 Q72.062 -48.594 73.484 -47.172 Q74.906 -45.75 74.906 -43.712 V-12.448 Q74.906 -10.363 73.484 -8.964 Q72.062 -7.566 70.024 -7.566 H24.656 Z M47.34 -24.677  36.935 -35.082  38.267 -36.413  46.502 -28.03 V-69.354 H48.228 V-28.08 L56.463 -36.413 L57.745 -35.082 L47.34 -24.677 Z"/></g></g></svg>