<svg xmlns="http://www.w3.org/2000/svg" height="40" viewBox="0 -960 960 960" width="40"><path d="M216-279.333v-57.052q0-17.89 9.551-32.406 9.552-14.515 26.29-24.388Q299-420.667 354-430.833 409-441 464.667-439q-.667 2.078-.667 4.73v4.707q0 43.726 16.167 83.144Q496.334-307 529-279.333H216ZM436.489-486Q396-486 366-516.053q-30-30.053-30-70.534 0-40.913 30.053-70.83 30.053-29.916 70.534-29.916 40.913 0 70.83 29.961 29.916 29.962 29.916 70.883 0 40.489-29.961 70.489-29.962 30-70.883 30ZM184.332-110.667q-30.907 0-52.286-21.379t-21.379-52.286v-133.001H152V-184q0 12 10 22t22 10h133.333v41.333H184.332Zm-73.665-532v-133.001q0-30.907 21.379-52.286t52.286-21.379h133.001V-808H184q-12 0-22 10t-10 22v133.333h-41.333Zm532 532V-152H776q12 0 22-10t10-22v-133.333h41.333v133.001q0 30.907-21.379 52.286t-52.286 21.379H642.667Zm165.333-532V-776q0-12-10-22t-22-10H642.667v-41.333h133.001q30.907 0 52.286 21.379t21.379 52.286v133.001H808ZM650.334-279.333v-40.715q-39-7.952-64.167-38.596T560-431.333h41.333q1 30.35 20.922 51.175 19.922 20.825 48.5 20.825t48.412-20.85Q739-401.033 740-431.333h41.333q-1 42-26.181 72.598-25.182 30.598-63.485 38.401v41.001h-41.333ZM670.653-387q-18.346 0-30.666-12.34t-12.32-30.993V-489q0-18.2 12.348-30.767 12.348-12.566 30.694-12.566 18.346 0 30.985 12.566Q714.333-507.2 714.333-489v58.667q0 18.653-12.667 30.993T670.653-387Z"/></svg>