<svg xmlns="http://www.w3.org/2000/svg" version="1.1" width="3300" height="2000"><g id="Notes"><style>
    text {
      font-family: monospace;
      text-anchor: middle;
    }
    text.emphasis {
      font-weight:bold;
    }
    text.lanchor {
      text-anchor: start;
    }
  </style><rect height="2200" id="artboard" fill="white" width="3300" x="0" y="0"/><line id="" style="fill:none;stroke:black;stroke-width:0.5;" x1="263" x2="3036" y1="292" y2="292"/><text class="lanchor emphasis" transform="matrix(1 0 0 1 263 322)">Weight/Scale Variations</text><text transform="matrix(1 0 0 1 559.711 322)">Ultralight</text><text transform="matrix(1 0 0 1 856.422 322)">Thin</text><text transform="matrix(1 0 0 1 1153.13 322)">Light</text><text transform="matrix(1 0 0 1 1449.84 322)">Regular</text><text transform="matrix(1 0 0 1 1746.56 322)">Medium</text><text transform="matrix(1 0 0 1 2043.27 322)">Semibold</text><text transform="matrix(1 0 0 1 2339.98 322)">Bold</text><text transform="matrix(1 0 0 1 2636.69 322)">Heavy</text><text transform="matrix(1 0 0 1 2933.4 322)">Black</text><text id="template-version" style="text-anchor: end;" transform="matrix(1 0 0 1 3036 1933)">Template v.1.0</text><text class="lanchor" transform="matrix(1 0 0 1 263 726)">Small</text><text class="lanchor" transform="matrix(1 0 0 1 263 1156)">Medium</text><text class="lanchor" transform="matrix(1 0 0 1 263 1586)">Large</text></g><g id="Guides"><g id="H-reference" style="fill:#27AAE1;stroke:none;" transform="matrix(1 0 0 1 339 696)"><path d="M 54.9316 0 L 57.666 0 L 30.5664 -70.459 L 28.0762 -70.459 L 0.976562 0 L 3.66211 0 L 12.9395 -24.4629 L 45.7031 -24.4629 Z M 29.1992 -67.0898 L 29.4434 -67.0898 L 44.8242 -26.709 L 13.8184 -26.709 Z"/></g><line id="Baseline-S" style="fill:none;stroke:#27AAE1;opacity:1;stroke-width:0.577;" x1="263" x2="3036" y1="696" y2="696"/><line id="Capline-S" style="fill:none;stroke:#27AAE1;opacity:1;stroke-width:0.577;" x1="263" x2="3036" y1="625.541" y2="625.541"/><g id="H-reference" style="fill:#27AAE1;stroke:none;" transform="matrix(1 0 0 1 339 1126)"><path d="M 54.9316 0 L 57.666 0 L 30.5664 -70.459 L 28.0762 -70.459 L 0.976562 0 L 3.66211 0 L 12.9395 -24.4629 L 45.7031 -24.4629 Z M 29.1992 -67.0898 L 29.4434 -67.0898 L 44.8242 -26.709 L 13.8184 -26.709 Z"/></g><line id="Baseline-M" style="fill:none;stroke:#27AAE1;opacity:1;stroke-width:0.577;" x1="263" x2="3036" y1="1126" y2="1126"/><line id="Capline-M" style="fill:none;stroke:#27AAE1;opacity:1;stroke-width:0.577;" x1="263" x2="3036" y1="1055.54" y2="1055.54"/><g id="H-reference" style="fill:#27AAE1;stroke:none;" transform="matrix(1 0 0 1 339 1556)"><path d="M 54.9316 0 L 57.666 0 L 30.5664 -70.459 L 28.0762 -70.459 L 0.976562 0 L 3.66211 0 L 12.9395 -24.4629 L 45.7031 -24.4629 Z M 29.1992 -67.0898 L 29.4434 -67.0898 L 44.8242 -26.709 L 13.8184 -26.709 Z"/></g><line id="Baseline-L" style="fill:none;stroke:#27AAE1;opacity:1;stroke-width:0.577;" x1="263" x2="3036" y1="1556" y2="1556"/><line id="Capline-L" style="fill:none;stroke:#27AAE1;opacity:1;stroke-width:0.577;" x1="263" x2="3036" y1="1485.54" y2="1485.54"/><rect height="119.336" id="left-margin" style="fill:darkred;stroke:none;opacity:0.4;" width="12.4512" x="1394.06" y="1030.79"/><rect height="119.336" id="right-margin" style="fill:darkgreen;stroke:none;opacity:0.4;" width="12.4512" x="1502.5112" y="1030.79"/><rect x="1406.5112" y="1045" width="96" height="96" fill="none" stroke="blue" stroke-dasharray="5"/><rect x="1394.06" y="1030.79" width="120.9024" height="119.336" fill="none" stroke="blue"/></g><g id="Symbols"><g id="Bold-L" transform="matrix(1 0 0 1 2266 1556)"><path d="M102.152 -29.909 Q101.181 -19.254 94.387 -11.44 Q87.593 -3.625 77.404 -3.625 Q75.747 -3.625 74.202 -3.867 Q72.657 -4.109 71.031 -4.431 Q69.983 -4.673 69.015 -4.472 Q68.047 -4.27 67.322 -3.544 Q65.709 -1.932 66.072 0.043 Q66.435 2.019 68.346 2.773 Q70.58 3.528 72.853 3.862 Q75.126 4.196 77.376 4.196 Q90.945 4.196 99.968 -5.842 Q108.991 -15.88 109.811 -29.667 L113.198 -26.281 Q114.407 -24.991 116.019 -24.95 Q117.632 -24.91 118.841 -26.119 Q120.051 -27.329 120.01 -28.901 Q119.97 -30.473 118.841 -31.682 L108.924 -41.277 Q107.473 -42.647 105.659 -42.647 Q103.845 -42.647 102.474 -41.277 L92.88 -31.682 Q91.671 -30.502 91.671 -28.875 Q91.671 -27.248 92.88 -26.119 Q94.009 -24.91 95.541 -24.87 Q97.073 -24.829 98.282 -26.039 L102.152 -29.909 Z M45.311 -26.845  41.925 -30.312 Q40.723 -31.521 39.107 -31.521 Q37.491 -31.521 36.281 -30.312 Q35.072 -29.102 35.072 -27.611 Q35.072 -26.119 36.281 -24.922 L46.037 -15.235 Q47.407 -13.784 49.303 -13.784 Q51.199 -13.784 52.648 -15.235 L62.323 -24.91 Q63.452 -26.009 63.452 -27.637 Q63.452 -29.264 62.323 -30.473 Q61.114 -31.602 59.582 -31.642 Q58.05 -31.682 56.841 -30.473 L52.971 -26.603 Q53.942 -37.257 60.735 -45.072 Q67.53 -52.887 77.718 -52.887 Q79.375 -52.887 80.921 -52.645 Q82.466 -52.403 84.092 -52.081 Q85.14 -51.839 86.108 -52.04 Q87.075 -52.242 87.881 -53.048 Q89.413 -54.58 89.05 -56.555 Q88.688 -58.531 86.873 -59.337 Q84.601 -60.062 82.291 -60.385 Q79.98 -60.707 77.747 -60.707 Q64.177 -60.707 55.154 -50.67 Q46.131 -40.632 45.311 -26.845 Z M24.429 26.045 Q18.299 26.045 13.987 21.733 Q9.675 17.421 9.675 11.291 V-67.802 Q9.675 -73.838 13.987 -78.278 Q18.299 -82.718 24.429 -82.718 H44.586 L53.601 -92.408 Q55.622 -94.576 58.314 -95.621 Q61.006 -96.666 64.016 -96.666 H91.004 Q93.769 -96.666 96.473 -95.621 Q99.178 -94.576 101.265 -92.393 L110.376 -82.718 H130.371 Q136.406 -82.718 140.846 -78.278 Q145.286 -73.838 145.286 -67.802 V11.291 Q145.286 17.421 140.846 21.733 Q136.406 26.045 130.371 26.045 H24.429 Z M24.429 11.291 H130.371 Q130.371 11.291 130.371 11.291 Q130.371 11.291 130.371 11.291 V-67.802 Q130.371 -67.802 130.371 -67.802 Q130.371 -67.802 130.371 -67.802 H104.121 L91.148 -81.751 H64.04 L50.391 -67.802 H24.429 Q24.429 -67.802 24.429 -67.802 Q24.429 -67.802 24.429 -67.802 V11.291 Q24.429 11.291 24.429 11.291 Q24.429 11.291 24.429 11.291 Z"/></g><g id="Semibold-L" transform="matrix(1 0 0 1 1970.27 1556)"><path d="M102.152 -29.909 Q101.181 -19.254 94.387 -11.44 Q87.593 -3.625 77.404 -3.625 Q75.747 -3.625 74.202 -3.867 Q72.657 -4.109 71.031 -4.431 Q69.983 -4.673 69.015 -4.472 Q68.047 -4.27 67.322 -3.544 Q65.709 -1.932 66.072 0.043 Q66.435 2.019 68.346 2.773 Q70.58 3.528 72.853 3.862 Q75.126 4.196 77.376 4.196 Q90.945 4.196 99.968 -5.842 Q108.991 -15.88 109.811 -29.667 L113.198 -26.281 Q114.407 -24.991 116.019 -24.95 Q117.632 -24.91 118.841 -26.119 Q120.051 -27.329 120.01 -28.901 Q119.97 -30.473 118.841 -31.682 L108.924 -41.277 Q107.473 -42.647 105.659 -42.647 Q103.845 -42.647 102.474 -41.277 L92.88 -31.682 Q91.671 -30.502 91.671 -28.875 Q91.671 -27.248 92.88 -26.119 Q94.009 -24.91 95.541 -24.87 Q97.073 -24.829 98.282 -26.039 L102.152 -29.909 Z M45.311 -26.845  41.925 -30.312 Q40.723 -31.521 39.107 -31.521 Q37.491 -31.521 36.281 -30.312 Q35.072 -29.102 35.072 -27.611 Q35.072 -26.119 36.281 -24.922 L46.037 -15.235 Q47.407 -13.784 49.303 -13.784 Q51.199 -13.784 52.648 -15.235 L62.323 -24.91 Q63.452 -26.009 63.452 -27.637 Q63.452 -29.264 62.323 -30.473 Q61.114 -31.602 59.582 -31.642 Q58.05 -31.682 56.841 -30.473 L52.971 -26.603 Q53.942 -37.257 60.735 -45.072 Q67.53 -52.887 77.718 -52.887 Q79.375 -52.887 80.921 -52.645 Q82.466 -52.403 84.092 -52.081 Q85.14 -51.839 86.108 -52.04 Q87.075 -52.242 87.881 -53.048 Q89.413 -54.58 89.05 -56.555 Q88.688 -58.531 86.873 -59.337 Q84.601 -60.062 82.291 -60.385 Q79.98 -60.707 77.747 -60.707 Q64.177 -60.707 55.154 -50.67 Q46.131 -40.632 45.311 -26.845 Z M23.798 24.292 Q18.723 24.292 15.075 20.645 Q11.428 16.997 11.428 11.922 V-68.433 Q11.428 -73.385 15.075 -77.14 Q18.723 -80.895 23.798 -80.895 H45.497 L54.442 -91.006 Q56.112 -92.964 58.454 -93.904 Q60.796 -94.843 63.455 -94.843 H91.494 Q93.988 -94.843 96.338 -93.904 Q98.688 -92.964 100.424 -90.991 L109.394 -80.895 H131.002 Q135.953 -80.895 139.708 -77.14 Q143.463 -73.385 143.463 -68.433 V11.922 Q143.463 16.997 139.708 20.645 Q135.953 24.292 131.002 24.292 H23.798 Z M23.798 11.922 H131.002 Q131.002 11.922 131.002 11.922 Q131.002 11.922 131.002 11.922 V-68.433 Q131.002 -68.433 131.002 -68.433 Q131.002 -68.433 131.002 -68.433 H103.981 L91.569 -82.382 H63.479 L50.671 -68.433 H23.798 Q23.798 -68.433 23.798 -68.433 Q23.798 -68.433 23.798 -68.433 V11.922 Q23.798 11.922 23.798 11.922 Q23.798 11.922 23.798 11.922 Z"/></g><g id="Medium-L" transform="matrix(1 0 0 1 1674.31 1556)"><path d="M102.152 -29.909 Q101.181 -19.254 94.387 -11.44 Q87.593 -3.625 77.404 -3.625 Q75.747 -3.625 74.202 -3.867 Q72.657 -4.109 71.031 -4.431 Q69.983 -4.673 69.015 -4.472 Q68.047 -4.27 67.322 -3.544 Q65.709 -1.932 66.072 0.043 Q66.435 2.019 68.346 2.773 Q70.58 3.528 72.853 3.862 Q75.126 4.196 77.376 4.196 Q90.945 4.196 99.968 -5.842 Q108.991 -15.88 109.811 -29.667 L113.198 -26.281 Q114.407 -24.991 116.019 -24.95 Q117.632 -24.91 118.841 -26.119 Q120.051 -27.329 120.01 -28.901 Q119.97 -30.473 118.841 -31.682 L108.924 -41.277 Q107.473 -42.647 105.659 -42.647 Q103.845 -42.647 102.474 -41.277 L92.88 -31.682 Q91.671 -30.502 91.671 -28.875 Q91.671 -27.248 92.88 -26.119 Q94.009 -24.91 95.541 -24.87 Q97.073 -24.829 98.282 -26.039 L102.152 -29.909 Z M45.311 -26.845  41.925 -30.312 Q40.723 -31.521 39.107 -31.521 Q37.491 -31.521 36.281 -30.312 Q35.072 -29.102 35.072 -27.611 Q35.072 -26.119 36.281 -24.922 L46.037 -15.235 Q47.407 -13.784 49.303 -13.784 Q51.199 -13.784 52.648 -15.235 L62.323 -24.91 Q63.452 -26.009 63.452 -27.637 Q63.452 -29.264 62.323 -30.473 Q61.114 -31.602 59.582 -31.642 Q58.05 -31.682 56.841 -30.473 L52.971 -26.603 Q53.942 -37.257 60.735 -45.072 Q67.53 -52.887 77.718 -52.887 Q79.375 -52.887 80.921 -52.645 Q82.466 -52.403 84.092 -52.081 Q85.14 -51.839 86.108 -52.04 Q87.075 -52.242 87.881 -53.048 Q89.413 -54.58 89.05 -56.555 Q88.688 -58.531 86.873 -59.337 Q84.601 -60.062 82.291 -60.385 Q79.98 -60.707 77.747 -60.707 Q64.177 -60.707 55.154 -50.67 Q46.131 -40.632 45.311 -26.845 Z M23.325 22.978 Q19.041 22.978 15.892 19.828 Q12.742 16.679 12.742 12.395 V-68.907 Q12.742 -73.045 15.892 -76.287 Q19.041 -79.528 23.325 -79.528 H46.181 L55.073 -89.954 Q56.481 -91.754 58.559 -92.615 Q60.638 -93.476 63.035 -93.476 H91.863 Q94.152 -93.476 96.236 -92.615 Q98.319 -91.754 99.793 -89.939 L108.658 -79.528 H131.475 Q135.614 -79.528 138.855 -76.287 Q142.096 -73.045 142.096 -68.907 V12.395 Q142.096 16.679 138.855 19.828 Q135.614 22.978 131.475 22.978 H23.325 Z M23.325 12.395 H131.475 Q131.475 12.395 131.475 12.395 Q131.475 12.395 131.475 12.395 V-68.907 Q131.475 -68.907 131.475 -68.907 Q131.475 -68.907 131.475 -68.907 H103.876 L91.884 -82.855 H63.059 L50.881 -68.907 H23.325 Q23.325 -68.907 23.325 -68.907 Q23.325 -68.907 23.325 -68.907 V12.395 Q23.325 12.395 23.325 12.395 Q23.325 12.395 23.325 12.395 Z"/></g><g id="Regular-L" transform="matrix(1 0 0 1 1378.56 1556)"><path d="M102.152 -29.909 Q101.181 -19.254 94.387 -11.44 Q87.593 -3.625 77.404 -3.625 Q75.747 -3.625 74.202 -3.867 Q72.657 -4.109 71.031 -4.431 Q69.983 -4.673 69.015 -4.472 Q68.047 -4.27 67.322 -3.544 Q65.709 -1.932 66.072 0.043 Q66.435 2.019 68.346 2.773 Q70.58 3.528 72.853 3.862 Q75.126 4.196 77.376 4.196 Q90.945 4.196 99.968 -5.842 Q108.991 -15.88 109.811 -29.667 L113.198 -26.281 Q114.407 -24.991 116.019 -24.95 Q117.632 -24.91 118.841 -26.119 Q120.051 -27.329 120.01 -28.901 Q119.97 -30.473 118.841 -31.682 L108.924 -41.277 Q107.473 -42.647 105.659 -42.647 Q103.845 -42.647 102.474 -41.277 L92.88 -31.682 Q91.671 -30.502 91.671 -28.875 Q91.671 -27.248 92.88 -26.119 Q94.009 -24.91 95.541 -24.87 Q97.073 -24.829 98.282 -26.039 L102.152 -29.909 Z M45.311 -26.845  41.925 -30.312 Q40.723 -31.521 39.107 -31.521 Q37.491 -31.521 36.281 -30.312 Q35.072 -29.102 35.072 -27.611 Q35.072 -26.119 36.281 -24.922 L46.037 -15.235 Q47.407 -13.784 49.303 -13.784 Q51.199 -13.784 52.648 -15.235 L62.323 -24.91 Q63.452 -26.009 63.452 -27.637 Q63.452 -29.264 62.323 -30.473 Q61.114 -31.602 59.582 -31.642 Q58.05 -31.682 56.841 -30.473 L52.971 -26.603 Q53.942 -37.257 60.735 -45.072 Q67.53 -52.887 77.718 -52.887 Q79.375 -52.887 80.921 -52.645 Q82.466 -52.403 84.092 -52.081 Q85.14 -51.839 86.108 -52.04 Q87.075 -52.242 87.881 -53.048 Q89.413 -54.58 89.05 -56.555 Q88.688 -58.531 86.873 -59.337 Q84.601 -60.062 82.291 -60.385 Q79.98 -60.707 77.747 -60.707 Q64.177 -60.707 55.154 -50.67 Q46.131 -40.632 45.311 -26.845 Z M22.978 22.014 Q19.274 22.014 16.49 19.23 Q13.706 16.446 13.706 12.742 V-69.254 Q13.706 -72.796 16.49 -75.661 Q19.274 -78.526 22.978 -78.526 H46.682 L55.536 -89.183 Q56.75 -90.867 58.636 -91.671 Q60.522 -92.474 62.726 -92.474 H92.132 Q94.273 -92.474 96.161 -91.671 Q98.05 -90.867 99.33 -89.168 L108.118 -78.526 H131.822 Q135.364 -78.526 138.229 -75.661 Q141.094 -72.796 141.094 -69.254 V12.742 Q141.094 16.446 138.229 19.23 Q135.364 22.014 131.822 22.014 H22.978 Z M22.978 12.742 H131.822 Q131.822 12.742 131.822 12.742 Q131.822 12.742 131.822 12.742 V-69.254 Q131.822 -69.254 131.822 -69.254 Q131.822 -69.254 131.822 -69.254 H103.799 L92.116 -83.202 H62.75 L51.036 -69.254 H22.978 Q22.978 -69.254 22.978 -69.254 Q22.978 -69.254 22.978 -69.254 V12.742 Q22.978 12.742 22.978 12.742 Q22.978 12.742 22.978 12.742 Z"/></g><g id="Light-L" transform="matrix(1 0 0 1 1082.77 1556)"><path d="M102.493 -31.211 Q101.646 -20.092 94.806 -11.703 Q87.965 -3.315 77.404 -3.315 Q75.747 -3.315 74.248 -3.588 Q72.75 -3.861 71.124 -4.121 Q70.138 -4.27 69.217 -4.084 Q68.296 -3.898 67.756 -3.172 Q66.609 -1.87 67.003 -0.391 Q67.396 1.088 68.811 1.657 Q70.859 2.442 73.054 2.745 Q75.25 3.048 77.376 3.048 Q90.728 3.048 99.425 -7.114 Q108.123 -17.275 108.757 -31 L113.26 -26.715 Q114.221 -25.673 115.601 -25.695 Q116.981 -25.716 117.849 -26.585 Q118.81 -27.546 118.77 -28.87 Q118.73 -30.194 117.88 -31.155 L108.645 -40.129 Q107.256 -41.469 105.473 -41.454 Q103.69 -41.438 102.319 -40.129 L93.407 -31.155 Q92.384 -30.223 92.384 -28.844 Q92.384 -27.465 93.407 -26.616 Q94.257 -25.654 95.525 -25.614 Q96.793 -25.574 97.755 -26.535 L102.493 -31.211 Z M46.304 -25.791  41.832 -30.157 Q40.878 -31.087 39.494 -31.056 Q38.111 -31.025 37.181 -30.095 Q36.219 -29.133 36.235 -27.906 Q36.25 -26.678 37.212 -25.728 L46.285 -16.693 Q47.656 -15.272 49.474 -15.272 Q51.292 -15.272 52.71 -16.693 L61.765 -25.747 Q62.615 -26.568 62.615 -27.947 Q62.615 -29.326 61.765 -30.287 Q60.804 -31.137 59.504 -31.177 Q58.205 -31.217 57.244 -30.256 L52.568 -25.58 Q53.414 -36.699 60.224 -45.088 Q67.033 -53.476 77.656 -53.476 Q79.251 -53.476 80.766 -53.234 Q82.28 -52.992 83.875 -52.67 Q84.799 -52.459 85.782 -52.676 Q86.765 -52.893 87.416 -53.73 Q88.39 -54.921 88.058 -56.4 Q87.726 -57.879 86.377 -58.531 Q84.198 -59.132 81.98 -59.486 Q79.763 -59.839 77.685 -59.839 Q64.333 -59.839 55.635 -49.677 Q46.937 -39.515 46.304 -25.791 Z M25.676 19.099 Q22.004 19.099 19.312 16.408 Q16.621 13.716 16.621 10.044 V-66.866 Q16.621 -70.439 19.312 -73.18 Q22.004 -75.921 25.676 -75.921 H47.829 L56.901 -86.485 Q58.053 -88.014 59.861 -88.786 Q61.67 -89.559 63.812 -89.559 H91.078 Q93.125 -89.559 94.936 -88.786 Q96.747 -88.014 97.996 -86.47 L106.971 -75.921 H129.124 Q132.697 -75.921 135.438 -73.18 Q138.179 -70.439 138.179 -66.866 V10.044 Q138.179 13.716 135.438 16.408 Q132.697 19.099 129.124 19.099 H25.676 Z M25.676 12.029 H129.124 Q129.992 12.029 130.55 11.47 Q131.109 10.912 131.109 10.044 V-66.866 Q131.109 -67.641 130.55 -68.246 Q129.992 -68.851 129.124 -68.851 H103.706 L91.929 -82.489 H62.967 L51.129 -68.851 H25.676 Q24.808 -68.851 24.25 -68.246 Q23.691 -67.641 23.691 -66.866 V10.044 Q23.691 10.912 24.25 11.47 Q24.808 12.029 25.676 12.029 Z"/></g><g id="Thin-L" transform="matrix(1 0 0 1 787.282 1556)"><path d="M102.834 -32.514 Q102.111 -20.929 95.224 -11.967 Q88.337 -3.005 77.404 -3.005 Q75.747 -3.005 74.295 -3.309 Q72.843 -3.613 71.217 -3.811 Q70.293 -3.867 69.418 -3.696 Q68.544 -3.526 68.19 -2.8 Q67.508 -1.808 67.933 -0.825 Q68.358 0.158 69.276 0.54 Q71.138 1.357 73.256 1.629 Q75.374 1.901 77.376 1.901 Q90.511 1.901 98.883 -8.385 Q107.255 -18.671 107.703 -32.334 L113.322 -27.149 Q114.035 -26.355 115.182 -26.439 Q116.329 -26.522 116.857 -27.05 Q117.57 -27.763 117.529 -28.839 Q117.489 -29.915 116.919 -30.628 L108.366 -38.982 Q107.039 -40.291 105.287 -40.26 Q103.535 -40.229 102.164 -38.982 L93.934 -30.628 Q93.097 -29.944 93.097 -28.813 Q93.097 -27.682 93.934 -27.112 Q94.505 -26.398 95.51 -26.358 Q96.514 -26.318 97.228 -27.031 L102.834 -32.514 Z M47.296 -24.736  41.739 -30.002 Q41.033 -30.653 39.882 -30.591 Q38.731 -30.529 38.08 -29.878 Q37.367 -29.165 37.398 -28.2 Q37.429 -27.236 38.142 -26.535 L46.533 -18.15 Q47.904 -16.761 49.644 -16.761 Q51.385 -16.761 52.772 -18.15 L61.207 -26.585 Q61.777 -27.126 61.777 -28.257 Q61.777 -29.388 61.207 -30.101 Q60.494 -30.672 59.427 -30.712 Q58.36 -30.752 57.647 -30.039 L52.164 -24.557 Q52.887 -36.141 59.712 -45.103 Q66.537 -54.065 77.594 -54.065 Q79.127 -54.065 80.61 -53.823 Q82.094 -53.582 83.658 -53.259 Q84.458 -53.079 85.456 -53.312 Q86.455 -53.544 86.951 -54.412 Q87.367 -55.262 87.066 -56.245 Q86.765 -57.228 85.881 -57.724 Q83.795 -58.202 81.67 -58.586 Q79.546 -58.971 77.623 -58.971 Q64.488 -58.971 56.116 -48.685 Q47.744 -38.399 47.296 -24.736 Z M28.374 16.184 Q24.732 16.184 22.134 13.586 Q19.536 10.988 19.536 7.346 V-64.478 Q19.536 -68.083 22.134 -70.699 Q24.732 -73.316 28.374 -73.316 H48.977 L58.265 -83.787 Q59.355 -85.162 61.086 -85.903 Q62.817 -86.644 64.897 -86.644 H90.024 Q91.978 -86.644 93.711 -85.903 Q95.445 -85.162 96.663 -83.773 L105.823 -73.316 H126.426 Q130.031 -73.316 132.647 -70.699 Q135.264 -68.083 135.264 -64.478 V7.346 Q135.264 10.988 132.647 13.586 Q130.031 16.184 126.426 16.184 H28.374 Z M28.374 11.315 H126.426 Q128.163 11.315 129.279 10.199 Q130.395 9.083 130.395 7.346 V-64.478 Q130.395 -66.029 129.279 -67.238 Q128.163 -68.447 126.426 -68.447 H103.613 L91.744 -81.775 H63.184 L51.222 -68.447 H28.374 Q26.637 -68.447 25.521 -67.238 Q24.405 -66.029 24.405 -64.478 V7.346 Q24.405 9.083 25.521 10.199 Q26.637 11.315 28.374 11.315 Z"/></g><g id="Ultralight-L" transform="matrix(1 0 0 1 491.205 1556)"><path d="M103.039 -33.295 Q102.39 -21.431 95.475 -12.125 Q88.56 -2.819 77.404 -2.819 Q75.747 -2.819 74.323 -3.141 Q72.898 -3.464 71.273 -3.625 Q70.386 -3.625 69.539 -3.464 Q68.692 -3.302 68.451 -2.577 Q68.047 -1.771 68.491 -1.085 Q68.934 -0.4 69.555 -0.129 Q71.305 0.706 73.377 0.959 Q75.449 1.213 77.376 1.213 Q90.381 1.213 98.557 -9.148 Q106.734 -19.508 107.07 -33.134 L113.359 -27.409 Q113.923 -26.764 114.931 -26.885 Q115.939 -27.006 116.261 -27.329 Q116.826 -27.893 116.785 -28.82 Q116.745 -29.747 116.342 -30.312 L108.199 -38.294 Q106.909 -39.584 105.175 -39.543 Q103.442 -39.503 102.071 -38.294 L94.251 -30.312 Q93.525 -29.777 93.525 -28.795 Q93.525 -27.812 94.251 -27.409 Q94.654 -26.845 95.5 -26.805 Q96.347 -26.764 96.911 -27.329 L103.039 -33.295 Z M47.891 -24.104  41.683 -29.909 Q41.126 -30.392 40.115 -30.312 Q39.103 -30.231 38.619 -29.747 Q38.055 -29.183 38.095 -28.377 Q38.136 -27.571 38.7 -27.018 L46.682 -19.024 Q48.053 -17.654 49.747 -17.654 Q51.441 -17.654 52.809 -19.024 L60.872 -27.087 Q61.275 -27.461 61.275 -28.443 Q61.275 -29.425 60.872 -29.989 Q60.308 -30.392 59.38 -30.433 Q58.453 -30.473 57.889 -29.909 L51.922 -23.942 Q52.571 -35.806 59.405 -45.112 Q66.24 -54.419 77.557 -54.419 Q79.053 -54.419 80.517 -54.177 Q81.982 -53.935 83.528 -53.612 Q84.253 -53.451 85.261 -53.693 Q86.269 -53.935 86.672 -54.822 Q86.752 -55.467 86.47 -56.152 Q86.188 -56.837 85.583 -57.241 Q83.553 -57.644 81.484 -58.047 Q79.416 -58.45 77.586 -58.45 Q64.581 -58.45 56.404 -48.09 Q48.227 -37.729 47.891 -24.104 Z M29.992 14.435 Q26.369 14.435 23.827 11.893 Q21.285 9.351 21.285 5.728 V-63.046 Q21.285 -66.669 23.827 -69.211 Q26.369 -71.753 29.992 -71.753 H49.665 L59.084 -82.168 Q60.137 -83.45 61.821 -84.172 Q63.506 -84.895 65.548 -84.895 H89.391 Q91.289 -84.895 92.976 -84.172 Q94.663 -83.45 95.863 -82.154 L105.135 -71.753 H124.808 Q128.431 -71.753 130.973 -69.211 Q133.515 -66.669 133.515 -63.046 V5.728 Q133.515 9.351 130.973 11.893 Q128.431 14.435 124.808 14.435 H29.992 Z M29.992 10.888 H124.808 Q127.065 10.888 128.516 9.436 Q129.968 7.985 129.968 5.728 V-63.046 Q129.968 -65.061 128.516 -66.633 Q127.065 -68.206 124.808 -68.206 H103.557 L91.632 -81.347 H63.314 L51.278 -68.206 H29.992 Q27.735 -68.206 26.284 -66.633 Q24.832 -65.061 24.832 -63.046 V5.728 Q24.832 7.985 26.284 9.436 Q27.735 10.888 29.992 10.888 Z"/></g><g id="Bold-M" transform="matrix(1 0 0 1 2281.8 1126)"><path d="M77.125 -28.73 Q76.375 -22.042 71.562 -17.511 Q66.75 -12.98 60 -12.98 Q58.969 -12.98 57.938 -13.105 Q56.906 -13.23 55.875 -13.48 Q54.938 -13.73 53.969 -13.48 Q53 -13.23 52.312 -12.542 Q50.938 -11.167 51.25 -9.324 Q51.562 -7.48 53.281 -6.917 Q55 -6.355 56.625 -6.105 Q58.25 -5.855 59.981 -5.855 Q69.75 -5.855 76.688 -12.574 Q83.625 -19.292 84.25 -29.105 L85.625 -27.792 Q86.688 -26.792 88.094 -26.824 Q89.5 -26.855 90.5 -27.855 Q91.562 -28.917 91.594 -30.324 Q91.625 -31.73 90.562 -32.792 L84.125 -39.105 Q82.75 -40.355 80.844 -40.386 Q78.938 -40.417 77.625 -39.105 L71.312 -32.792 Q70.25 -31.753 70.25 -30.366 Q70.25 -28.98 71.312 -27.917 Q72.375 -26.855 73.781 -26.824 Q75.188 -26.792 76.25 -27.855 L77.125 -28.73 Z M35.75 -31.48  34.312 -32.855 Q33.256 -33.855 31.847 -33.855 Q30.438 -33.855 29.438 -32.855 Q28.375 -31.792 28.344 -30.355 Q28.312 -28.917 29.375 -27.855 L35.812 -21.417 Q37.125 -20.105 39.062 -20.105 Q41 -20.105 42.312 -21.417 L48.688 -27.792 Q49.75 -28.832 49.75 -30.219 Q49.75 -31.605 48.688 -32.667 Q47.625 -33.73 46.219 -33.761 Q44.812 -33.792 43.75 -32.73 L42.875 -31.855 Q43.625 -38.542 48.438 -43.074 Q53.25 -47.605 60 -47.605 Q61.031 -47.605 62.062 -47.48 Q63.094 -47.355 64.125 -47.105 Q65.062 -46.855 66.031 -47.105 Q67 -47.355 67.688 -48.042 Q69.062 -49.417 68.75 -51.261 Q68.438 -53.105 66.719 -53.667 Q65 -54.23 63.375 -54.48 Q61.75 -54.73 60.019 -54.73 Q50.25 -54.73 43.312 -48.011 Q36.375 -41.292 35.75 -31.48 Z M22.125 12.77 Q15.758 12.77 11.379 8.391 Q7 4.012 7 -2.355 V-58.167 Q7 -64.535 11.379 -68.914 Q15.758 -73.292 22.125 -73.292 H34.125 L40.562 -79.23 Q42.618 -81.172 45.332 -82.201 Q48.045 -83.23 50.812 -83.23 H69.188 Q71.954 -83.23 74.668 -82.201 Q77.382 -81.172 79.438 -79.23 L85.875 -73.292 H97.875 Q104.242 -73.292 108.621 -68.914 Q113 -64.535 113 -58.167 V-2.355 Q113 4.012 108.621 8.391 Q104.242 12.77 97.875 12.77 H22.125 Z M22.125 -2.355 H97.875 Q97.875 -2.355 97.875 -2.355 Q97.875 -2.355 97.875 -2.355 V-58.167 Q97.875 -58.167 97.875 -58.167 Q97.875 -58.167 97.875 -58.167 H79.802 L69.438 -68.105 H50.956 L39.875 -58.167 H22.125 Q22.125 -58.167 22.125 -58.167 Q22.125 -58.167 22.125 -58.167 V-2.355 Q22.125 -2.355 22.125 -2.355 Q22.125 -2.355 22.125 -2.355 Z"/></g><g id="Semibold-M" transform="matrix(1 0 0 1 1985.97 1126)"><path d="M77.125 -28.73 Q76.375 -22.042 71.562 -17.511 Q66.75 -12.98 60 -12.98 Q58.969 -12.98 57.938 -13.105 Q56.906 -13.23 55.875 -13.48 Q54.938 -13.73 53.969 -13.48 Q53 -13.23 52.312 -12.542 Q50.938 -11.167 51.25 -9.324 Q51.562 -7.48 53.281 -6.917 Q55 -6.355 56.625 -6.105 Q58.25 -5.855 59.981 -5.855 Q69.75 -5.855 76.688 -12.574 Q83.625 -19.292 84.25 -29.105 L85.625 -27.792 Q86.688 -26.792 88.094 -26.824 Q89.5 -26.855 90.5 -27.855 Q91.562 -28.917 91.594 -30.324 Q91.625 -31.73 90.562 -32.792 L84.125 -39.105 Q82.75 -40.355 80.844 -40.386 Q78.938 -40.417 77.625 -39.105 L71.312 -32.792 Q70.25 -31.753 70.25 -30.366 Q70.25 -28.98 71.312 -27.917 Q72.375 -26.855 73.781 -26.824 Q75.188 -26.792 76.25 -27.855 L77.125 -28.73 Z M35.75 -31.48  34.312 -32.855 Q33.256 -33.855 31.847 -33.855 Q30.438 -33.855 29.438 -32.855 Q28.375 -31.792 28.344 -30.355 Q28.312 -28.917 29.375 -27.855 L35.812 -21.417 Q37.125 -20.105 39.062 -20.105 Q41 -20.105 42.312 -21.417 L48.688 -27.792 Q49.75 -28.832 49.75 -30.219 Q49.75 -31.605 48.688 -32.667 Q47.625 -33.73 46.219 -33.761 Q44.812 -33.792 43.75 -32.73 L42.875 -31.855 Q43.625 -38.542 48.438 -43.074 Q53.25 -47.605 60 -47.605 Q61.031 -47.605 62.062 -47.48 Q63.094 -47.355 64.125 -47.105 Q65.062 -46.855 66.031 -47.105 Q67 -47.355 67.688 -48.042 Q69.062 -49.417 68.75 -51.261 Q68.438 -53.105 66.719 -53.667 Q65 -54.23 63.375 -54.48 Q61.75 -54.73 60.019 -54.73 Q50.25 -54.73 43.312 -48.011 Q36.375 -41.292 35.75 -31.48 Z M21.473 10.922 Q16.193 10.922 12.52 7.25 Q8.848 3.577 8.848 -1.703 V-58.82 Q8.848 -64.1 12.52 -67.772 Q16.193 -71.445 21.473 -71.445 H35.103 L41.432 -77.763 Q43.161 -79.488 45.495 -80.435 Q47.828 -81.382 50.269 -81.382 H69.731 Q72.172 -81.382 74.505 -80.435 Q76.839 -79.488 78.568 -77.763 L84.897 -71.445 H98.527 Q103.807 -71.445 107.48 -67.772 Q111.152 -64.1 111.152 -58.82 V-1.703 Q111.152 3.577 107.48 7.25 Q103.807 10.922 98.527 10.922 H21.473 Z M21.473 -1.703 H98.527 Q98.527 -1.703 98.527 -1.703 Q98.527 -1.703 98.527 -1.703 V-58.82 Q98.527 -58.82 98.527 -58.82 Q98.527 -58.82 98.527 -58.82 H79.639 L69.872 -68.757 H50.358 L40.201 -58.82 H21.473 Q21.473 -58.82 21.473 -58.82 Q21.473 -58.82 21.473 -58.82 V-1.703 Q21.473 -1.703 21.473 -1.703 Q21.473 -1.703 21.473 -1.703 Z"/></g><g id="Medium-M" transform="matrix(1 0 0 1 1689.91 1126)"><path d="M77.125 -28.73 Q76.375 -22.042 71.562 -17.511 Q66.75 -12.98 60 -12.98 Q58.969 -12.98 57.938 -13.105 Q56.906 -13.23 55.875 -13.48 Q54.938 -13.73 53.969 -13.48 Q53 -13.23 52.312 -12.542 Q50.938 -11.167 51.25 -9.324 Q51.562 -7.48 53.281 -6.917 Q55 -6.355 56.625 -6.105 Q58.25 -5.855 59.981 -5.855 Q69.75 -5.855 76.688 -12.574 Q83.625 -19.292 84.25 -29.105 L85.625 -27.792 Q86.688 -26.792 88.094 -26.824 Q89.5 -26.855 90.5 -27.855 Q91.562 -28.917 91.594 -30.324 Q91.625 -31.73 90.562 -32.792 L84.125 -39.105 Q82.75 -40.355 80.844 -40.386 Q78.938 -40.417 77.625 -39.105 L71.312 -32.792 Q70.25 -31.753 70.25 -30.366 Q70.25 -28.98 71.312 -27.917 Q72.375 -26.855 73.781 -26.824 Q75.188 -26.792 76.25 -27.855 L77.125 -28.73 Z M35.75 -31.48  34.312 -32.855 Q33.256 -33.855 31.847 -33.855 Q30.438 -33.855 29.438 -32.855 Q28.375 -31.792 28.344 -30.355 Q28.312 -28.917 29.375 -27.855 L35.812 -21.417 Q37.125 -20.105 39.062 -20.105 Q41 -20.105 42.312 -21.417 L48.688 -27.792 Q49.75 -28.832 49.75 -30.219 Q49.75 -31.605 48.688 -32.667 Q47.625 -33.73 46.219 -33.761 Q44.812 -33.792 43.75 -32.73 L42.875 -31.855 Q43.625 -38.542 48.438 -43.074 Q53.25 -47.605 60 -47.605 Q61.031 -47.605 62.062 -47.48 Q63.094 -47.355 64.125 -47.105 Q65.062 -46.855 66.031 -47.105 Q67 -47.355 67.688 -48.042 Q69.062 -49.417 68.75 -51.261 Q68.438 -53.105 66.719 -53.667 Q65 -54.23 63.375 -54.48 Q61.75 -54.73 60.019 -54.73 Q50.25 -54.73 43.312 -48.011 Q36.375 -41.292 35.75 -31.48 Z M20.984 9.536 Q16.519 9.536 13.376 6.394 Q10.234 3.251 10.234 -1.214 V-59.309 Q10.234 -63.774 13.376 -66.916 Q16.519 -70.059 20.984 -70.059 H35.837 L42.084 -76.662 Q43.569 -78.224 45.617 -79.11 Q47.665 -79.996 49.861 -79.996 H70.139 Q72.335 -79.996 74.383 -79.11 Q76.431 -78.224 77.916 -76.662 L84.163 -70.059 H99.016 Q103.481 -70.059 106.624 -66.916 Q109.766 -63.774 109.766 -59.309 V-1.214 Q109.766 3.251 106.624 6.394 Q103.481 9.536 99.016 9.536 H20.984 Z M20.984 -1.214 H99.016 Q99.016 -1.214 99.016 -1.214 Q99.016 -1.214 99.016 -1.214 V-59.309 Q99.016 -59.309 99.016 -59.309 Q99.016 -59.309 99.016 -59.309 H79.516 L70.198 -69.246 H49.91 L40.446 -59.309 H20.984 Q20.984 -59.309 20.984 -59.309 Q20.984 -59.309 20.984 -59.309 V-1.214 Q20.984 -1.214 20.984 -1.214 Q20.984 -1.214 20.984 -1.214 Z"/></g><g id="Regular-M" transform="matrix(1 0 0 1 1394.06 1126)"><path d="M77.125 -28.73 Q76.375 -22.042 71.562 -17.511 Q66.75 -12.98 60 -12.98 Q58.969 -12.98 57.938 -13.105 Q56.906 -13.23 55.875 -13.48 Q54.938 -13.73 53.969 -13.48 Q53 -13.23 52.312 -12.542 Q50.938 -11.167 51.25 -9.324 Q51.562 -7.48 53.281 -6.917 Q55 -6.355 56.625 -6.105 Q58.25 -5.855 59.981 -5.855 Q69.75 -5.855 76.688 -12.574 Q83.625 -19.292 84.25 -29.105 L85.625 -27.792 Q86.688 -26.792 88.094 -26.824 Q89.5 -26.855 90.5 -27.855 Q91.562 -28.917 91.594 -30.324 Q91.625 -31.73 90.562 -32.792 L84.125 -39.105 Q82.75 -40.355 80.844 -40.386 Q78.938 -40.417 77.625 -39.105 L71.312 -32.792 Q70.25 -31.753 70.25 -30.366 Q70.25 -28.98 71.312 -27.917 Q72.375 -26.855 73.781 -26.824 Q75.188 -26.792 76.25 -27.855 L77.125 -28.73 Z M35.75 -31.48  34.312 -32.855 Q33.256 -33.855 31.847 -33.855 Q30.438 -33.855 29.438 -32.855 Q28.375 -31.792 28.344 -30.355 Q28.312 -28.917 29.375 -27.855 L35.812 -21.417 Q37.125 -20.105 39.062 -20.105 Q41 -20.105 42.312 -21.417 L48.688 -27.792 Q49.75 -28.832 49.75 -30.219 Q49.75 -31.605 48.688 -32.667 Q47.625 -33.73 46.219 -33.761 Q44.812 -33.792 43.75 -32.73 L42.875 -31.855 Q43.625 -38.542 48.438 -43.074 Q53.25 -47.605 60 -47.605 Q61.031 -47.605 62.062 -47.48 Q63.094 -47.355 64.125 -47.105 Q65.062 -46.855 66.031 -47.105 Q67 -47.355 67.688 -48.042 Q69.062 -49.417 68.75 -51.261 Q68.438 -53.105 66.719 -53.667 Q65 -54.23 63.375 -54.48 Q61.75 -54.73 60.019 -54.73 Q50.25 -54.73 43.312 -48.011 Q36.375 -41.292 35.75 -31.48 Z M20.625 8.52 Q16.758 8.52 14.004 5.766 Q11.25 3.012 11.25 -0.855 V-59.667 Q11.25 -63.535 14.004 -66.289 Q16.758 -69.042 20.625 -69.042 H36.375 L42.562 -75.855 Q43.868 -77.297 45.707 -78.139 Q47.545 -78.98 49.562 -78.98 H70.438 Q72.454 -78.98 74.293 -78.139 Q76.132 -77.297 77.438 -75.855 L83.625 -69.042 H99.375 Q103.242 -69.042 105.996 -66.289 Q108.75 -63.535 108.75 -59.667 V-0.855 Q108.75 3.012 105.996 5.766 Q103.242 8.52 99.375 8.52 H20.625 Z M20.625 -0.855 H99.375 Q99.375 -0.855 99.375 -0.855 Q99.375 -0.855 99.375 -0.855 V-59.667 Q99.375 -59.667 99.375 -59.667 Q99.375 -59.667 99.375 -59.667 H79.427 L70.438 -69.605 H49.581 L40.625 -59.667 H20.625 Q20.625 -59.667 20.625 -59.667 Q20.625 -59.667 20.625 -59.667 V-0.855 Q20.625 -0.855 20.625 -0.855 Q20.625 -0.855 20.625 -0.855 Z"/></g><g id="Light-M" transform="matrix(1 0 0 1 1098.18 1126)"><path d="M77.918 -30.461 Q77.264 -22.932 72.296 -17.547 Q67.327 -12.163 60 -12.163 Q58.921 -12.163 57.853 -12.312 Q56.786 -12.461 55.707 -12.711 Q54.865 -12.889 54.005 -12.651 Q53.144 -12.413 52.649 -11.773 Q51.683 -10.687 51.995 -9.324 Q52.308 -7.961 53.594 -7.542 Q55.168 -6.956 56.757 -6.73 Q58.346 -6.504 59.981 -6.504 Q69.774 -6.504 76.435 -13.607 Q83.096 -20.711 83.577 -30.716 L86.202 -28.273 Q87.072 -27.466 88.202 -27.521 Q89.332 -27.576 90.115 -28.36 Q90.986 -29.23 90.993 -30.324 Q91 -31.417 90.154 -32.288 L83.909 -38.408 Q82.63 -39.586 80.916 -39.605 Q79.202 -39.624 77.986 -38.408 L71.865 -32.288 Q70.995 -31.44 70.995 -30.342 Q70.995 -29.244 71.865 -28.398 Q72.712 -27.528 73.817 -27.497 Q74.923 -27.466 75.793 -28.336 L77.918 -30.461 Z M36.423 -29.845  33.76 -32.35 Q32.895 -33.134 31.762 -33.11 Q30.63 -33.086 29.846 -32.302 Q28.976 -31.432 28.957 -30.319 Q28.938 -29.206 29.808 -28.336 L36.053 -22.115 Q37.269 -20.874 39.002 -20.874 Q40.736 -20.874 41.976 -22.115 L48.159 -28.297 Q49.005 -29.121 49.005 -30.219 Q49.005 -31.316 48.159 -32.187 Q47.288 -33.033 46.183 -33.064 Q45.077 -33.095 44.207 -32.225 L42.082 -30.1 Q42.736 -37.629 47.704 -43.014 Q52.673 -48.398 60 -48.398 Q61.079 -48.398 62.135 -48.249 Q63.19 -48.1 64.245 -47.85 Q65.087 -47.624 65.971 -47.862 Q66.856 -48.1 67.375 -48.812 Q68.317 -49.874 68.029 -51.237 Q67.74 -52.6 66.478 -53.042 Q64.832 -53.509 63.255 -53.783 Q61.678 -54.057 60.019 -54.057 Q50.226 -54.057 43.565 -46.953 Q36.904 -39.85 36.423 -29.845 Z M22.043 6.26 Q18.489 6.26 15.999 3.771 Q13.51 1.281 13.51 -2.273 V-58.249 Q13.51 -61.804 15.999 -64.293 Q18.489 -66.783 22.043 -66.783 H37.313 L43.813 -73.908 Q44.973 -75.23 46.632 -75.975 Q48.291 -76.72 50.163 -76.72 H69.861 Q71.709 -76.72 73.368 -75.975 Q75.027 -75.23 76.212 -73.908 L82.687 -66.783 H97.957 Q101.511 -66.783 104.001 -64.293 Q106.49 -61.804 106.49 -58.249 V-2.273 Q106.49 1.281 104.001 3.771 Q101.511 6.26 97.957 6.26 H22.043 Z M22.043 -0.735 H97.957 Q98.63 -0.735 99.062 -1.167 Q99.495 -1.6 99.495 -2.273 V-58.249 Q99.495 -58.898 99.062 -59.343 Q98.63 -59.788 97.957 -59.788 H79.595 L70.534 -69.725 H49.509 L40.457 -59.788 H22.043 Q21.37 -59.788 20.938 -59.343 Q20.505 -58.898 20.505 -58.249 V-2.273 Q20.505 -1.6 20.938 -1.167 Q21.37 -0.735 22.043 -0.735 Z"/></g><g id="Thin-M" transform="matrix(1 0 0 1 802.565 1126)"><path d="M78.712 -32.191 Q78.154 -23.821 73.029 -17.583 Q67.904 -11.345 60 -11.345 Q58.873 -11.345 57.769 -11.518 Q56.666 -11.691 55.538 -11.941 Q54.793 -12.047 54.041 -11.821 Q53.288 -11.595 52.986 -11.004 Q52.428 -10.206 52.74 -9.324 Q53.053 -8.441 53.906 -8.167 Q55.337 -7.557 56.889 -7.355 Q58.442 -7.153 59.981 -7.153 Q69.798 -7.153 76.183 -14.641 Q82.567 -22.129 82.904 -32.326 L86.779 -28.754 Q87.457 -28.139 88.31 -28.218 Q89.163 -28.297 89.731 -28.865 Q90.409 -29.542 90.392 -30.324 Q90.375 -31.105 89.745 -31.783 L83.692 -37.711 Q82.51 -38.816 80.988 -38.824 Q79.466 -38.831 78.346 -37.711 L72.418 -31.783 Q71.74 -31.128 71.74 -30.318 Q71.74 -29.509 72.418 -28.879 Q73.048 -28.201 73.853 -28.17 Q74.659 -28.139 75.337 -28.816 L78.712 -32.191 Z M37.096 -28.211  33.207 -31.845 Q32.535 -32.413 31.678 -32.365 Q30.822 -32.316 30.255 -31.749 Q29.577 -31.071 29.57 -30.283 Q29.562 -29.494 30.24 -28.816 L36.293 -22.812 Q37.413 -21.643 38.942 -21.643 Q40.471 -21.643 41.639 -22.812 L47.63 -28.802 Q48.26 -29.409 48.26 -30.219 Q48.26 -31.028 47.63 -31.706 Q46.952 -32.336 46.147 -32.367 Q45.341 -32.398 44.663 -31.72 L41.288 -28.345 Q41.846 -36.716 46.971 -42.953 Q52.096 -49.191 60 -49.191 Q61.127 -49.191 62.207 -49.018 Q63.286 -48.845 64.365 -48.595 Q65.111 -48.393 65.911 -48.619 Q66.712 -48.845 67.062 -49.581 Q67.572 -50.331 67.308 -51.213 Q67.043 -52.095 66.238 -52.417 Q64.663 -52.788 63.135 -53.086 Q61.606 -53.384 60.019 -53.384 Q50.202 -53.384 43.817 -45.896 Q37.433 -38.408 37.096 -28.211 Z M23.462 4.001 Q20.219 4.001 17.994 1.776 Q15.769 -0.449 15.769 -3.691 V-56.831 Q15.769 -60.073 17.994 -62.298 Q20.219 -64.523 23.462 -64.523 H38.25 L45.062 -71.961 Q46.079 -73.163 47.557 -73.812 Q49.036 -74.461 50.764 -74.461 H69.284 Q70.964 -74.461 72.442 -73.812 Q73.921 -73.163 74.986 -71.961 L81.75 -64.523 H96.538 Q99.781 -64.523 102.006 -62.298 Q104.231 -60.073 104.231 -56.831 V-3.691 Q104.231 -0.449 102.006 1.776 Q99.781 4.001 96.538 4.001 H23.462 Z M23.462 -0.615 H96.538 Q97.885 -0.615 98.75 -1.48 Q99.615 -2.345 99.615 -3.691 V-56.831 Q99.615 -58.129 98.75 -59.018 Q97.885 -59.908 96.538 -59.908 H79.763 L70.63 -69.845 H49.437 L40.288 -59.908 H23.462 Q22.115 -59.908 21.25 -59.018 Q20.385 -58.129 20.385 -56.831 V-3.691 Q20.385 -2.345 21.25 -1.48 Q22.115 -0.615 23.462 -0.615 Z"/></g><g id="Ultralight-M" transform="matrix(1 0 0 1 506.415 1126)"><path d="M79.188 -33.23 Q78.688 -24.355 73.469 -17.605 Q68.25 -10.855 60 -10.855 Q58.844 -10.855 57.719 -11.042 Q56.594 -11.23 55.438 -11.48 Q54.75 -11.542 54.062 -11.324 Q53.375 -11.105 53.188 -10.542 Q52.875 -9.917 53.188 -9.324 Q53.5 -8.73 54.094 -8.542 Q55.438 -7.917 56.969 -7.73 Q58.5 -7.542 59.981 -7.542 Q69.812 -7.542 76.031 -15.261 Q82.25 -22.98 82.5 -33.292 L87.125 -29.042 Q87.688 -28.542 88.375 -28.636 Q89.062 -28.73 89.5 -29.167 Q90.062 -29.73 90.031 -30.324 Q90 -30.917 89.5 -31.48 L83.562 -37.292 Q82.438 -38.355 81.031 -38.355 Q79.625 -38.355 78.562 -37.292 L72.75 -31.48 Q72.188 -30.94 72.188 -30.304 Q72.188 -29.667 72.75 -29.167 Q73.25 -28.605 73.875 -28.574 Q74.5 -28.542 75.062 -29.105 L79.188 -33.23 Z M37.5 -27.23  32.875 -31.542 Q32.318 -31.98 31.628 -31.917 Q30.938 -31.855 30.5 -31.417 Q29.938 -30.855 29.938 -30.261 Q29.938 -29.667 30.5 -29.105 L36.438 -23.23 Q37.5 -22.105 38.906 -22.105 Q40.312 -22.105 41.438 -23.23 L47.312 -29.105 Q47.812 -29.582 47.812 -30.219 Q47.812 -30.855 47.312 -31.417 Q46.75 -31.917 46.125 -31.949 Q45.5 -31.98 44.938 -31.417 L40.812 -27.292 Q41.312 -36.167 46.531 -42.917 Q51.75 -49.667 60 -49.667 Q61.156 -49.667 62.25 -49.48 Q63.344 -49.292 64.438 -49.042 Q65.125 -48.855 65.875 -49.074 Q66.625 -49.292 66.875 -50.042 Q67.125 -50.605 66.875 -51.199 Q66.625 -51.792 66.094 -52.042 Q64.562 -52.355 63.062 -52.667 Q61.562 -52.98 60.019 -52.98 Q50.188 -52.98 43.969 -45.261 Q37.75 -37.542 37.5 -27.23 Z M24.312 2.645 Q21.258 2.645 19.191 0.579 Q17.125 -1.488 17.125 -4.542 V-55.98 Q17.125 -59.035 19.191 -61.101 Q21.258 -63.167 24.312 -63.167 H38.812 L45.812 -70.792 Q46.743 -71.922 48.113 -72.514 Q49.483 -73.105 51.125 -73.105 H68.938 Q70.517 -73.105 71.887 -72.514 Q73.257 -71.922 74.25 -70.792 L81.188 -63.167 H95.688 Q98.742 -63.167 100.809 -61.101 Q102.875 -59.035 102.875 -55.98 V-4.542 Q102.875 -1.488 100.809 0.579 Q98.742 2.645 95.688 2.645 H24.312 Z M24.312 -0.542 H95.688 Q97.438 -0.542 98.562 -1.667 Q99.688 -2.792 99.688 -4.542 V-55.98 Q99.688 -57.667 98.562 -58.824 Q97.438 -59.98 95.688 -59.98 H79.864 L70.688 -69.917 H49.394 L40.188 -59.98 H24.312 Q22.562 -59.98 21.438 -58.824 Q20.312 -57.667 20.312 -55.98 V-4.542 Q20.312 -2.792 21.438 -1.667 Q22.562 -0.542 24.312 -0.542 Z"/></g><g id="Bold-S" transform="matrix(1 0 0 1 2294.23 696)"><path d="M58.978 -31.186 Q58.978 -25.417 55.477 -22.187 Q51.975 -18.957 47.34 -18.957 Q46.526 -18.957 45.861 -19.006 Q45.195 -19.055 44.431 -19.253 Q43.74 -19.45 43.272 -19.302 Q42.803 -19.154 42.33 -18.716 Q41.373 -17.823 41.575 -16.665 Q41.778 -15.508 42.927 -15.16 Q43.987 -14.815 45.08 -14.617 Q46.174 -14.42 47.344 -14.42 Q53.948 -14.42 58.781 -19.129 Q63.613 -23.839 63.416 -31.581 L64.698 -30.447 Q65.438 -29.855 66.251 -29.88 Q67.065 -29.904 67.755 -30.595 Q68.416 -31.25 68.431 -32.106 Q68.446 -32.962 67.696 -33.637 L63.12 -37.696 Q62.232 -38.386 61.172 -38.46 Q60.112 -38.534 59.229 -37.697 L54.957 -33.637 Q54.244 -32.98 54.244 -32.132 Q54.244 -31.285 54.983 -30.545 Q55.625 -29.904 56.487 -29.929 Q57.35 -29.954 58.09 -30.496 L58.978 -31.186 Z M31.166 -29.707  29.735 -30.89 Q29 -31.482 28.184 -31.532 Q27.368 -31.581 26.678 -30.89 Q26.017 -30.235 26.002 -29.355 Q25.988 -28.474 26.727 -27.833 L31.313 -23.543 Q32.152 -22.705 33.237 -22.705 Q34.322 -22.705 35.16 -23.543 L39.603 -27.651 Q40.338 -28.308 40.338 -29.156 Q40.338 -30.003 39.598 -30.743 Q38.957 -31.384 38.094 -31.359 Q37.231 -31.334 36.491 -30.792 L35.604 -30.101 Q35.604 -35.279 39.105 -38.756 Q42.606 -42.232 47.386 -42.232 Q48.118 -42.232 48.851 -42.183 Q49.584 -42.134 50.397 -41.936 Q50.894 -41.739 51.385 -41.887 Q51.877 -42.035 52.35 -42.473 Q53.307 -43.367 53.159 -44.575 Q53.011 -45.783 51.901 -46.128 Q50.792 -46.473 49.687 -46.621 Q48.583 -46.769 47.401 -46.769 Q40.732 -46.769 35.85 -41.813 Q30.968 -36.857 31.166 -29.707 Z M18.246 0.275 Q13.616 0.275 10.359 -2.983 Q7.101 -6.24 7.101 -10.87 V-50.172 Q7.101 -54.801 10.359 -58.059 Q13.616 -61.316 18.246 -61.316 H27.122 L32.201 -67.283 Q33.823 -69.013 35.932 -69.874 Q38.042 -70.735 40.19 -70.735 H54.508 Q56.673 -70.735 58.765 -69.874 Q60.857 -69.013 62.479 -67.283 L67.558 -61.316 H76.434 Q81.133 -61.316 84.356 -58.059 Q87.579 -54.801 87.579 -50.172 V-10.87 Q87.579 -6.24 84.356 -2.983 Q81.133 0.275 76.434 0.275 H18.246 Z M18.246 -10.87 H76.434 Q76.434 -10.87 76.434 -10.87 Q76.434 -10.87 76.434 -10.87 V-50.172 Q76.434 -50.172 76.434 -50.172 Q76.434 -50.172 76.434 -50.172 H62.766 L54.678 -59.59 H40.303 L31.659 -50.172 H18.246 Q18.246 -50.172 18.246 -50.172 Q18.246 -50.172 18.246 -50.172 V-10.87 Q18.246 -10.87 18.246 -10.87 Q18.246 -10.87 18.246 -10.87 Z"/></g><g id="Semibold-S" transform="matrix(1 0 0 1 1998.1 696)"><path d="M58.978 -31.186 Q58.978 -25.417 55.477 -22.187 Q51.975 -18.957 47.34 -18.957 Q46.526 -18.957 45.861 -19.006 Q45.195 -19.055 44.431 -19.253 Q43.74 -19.45 43.272 -19.302 Q42.803 -19.154 42.33 -18.716 Q41.373 -17.823 41.575 -16.665 Q41.778 -15.508 42.927 -15.16 Q43.987 -14.815 45.08 -14.617 Q46.174 -14.42 47.344 -14.42 Q53.948 -14.42 58.781 -19.129 Q63.613 -23.839 63.416 -31.581 L64.698 -30.447 Q65.438 -29.855 66.251 -29.88 Q67.065 -29.904 67.755 -30.595 Q68.416 -31.25 68.431 -32.106 Q68.446 -32.962 67.696 -33.637 L63.12 -37.696 Q62.232 -38.386 61.172 -38.46 Q60.112 -38.534 59.229 -37.697 L54.957 -33.637 Q54.244 -32.98 54.244 -32.132 Q54.244 -31.285 54.983 -30.545 Q55.625 -29.904 56.487 -29.929 Q57.35 -29.954 58.09 -30.496 L58.978 -31.186 Z M31.166 -29.707  29.735 -30.89 Q29 -31.482 28.184 -31.532 Q27.368 -31.581 26.678 -30.89 Q26.017 -30.235 26.002 -29.355 Q25.988 -28.474 26.727 -27.833 L31.313 -23.543 Q32.152 -22.705 33.237 -22.705 Q34.322 -22.705 35.16 -23.543 L39.603 -27.651 Q40.338 -28.308 40.338 -29.156 Q40.338 -30.003 39.598 -30.743 Q38.957 -31.384 38.094 -31.359 Q37.231 -31.334 36.491 -30.792 L35.604 -30.101 Q35.604 -35.279 39.105 -38.756 Q42.606 -42.232 47.386 -42.232 Q48.118 -42.232 48.851 -42.183 Q49.584 -42.134 50.397 -41.936 Q50.894 -41.739 51.385 -41.887 Q51.877 -42.035 52.35 -42.473 Q53.307 -43.367 53.159 -44.575 Q53.011 -45.783 51.901 -46.128 Q50.792 -46.473 49.687 -46.621 Q48.583 -46.769 47.401 -46.769 Q40.732 -46.769 35.85 -41.813 Q30.968 -36.857 31.166 -29.707 Z M17.731 -1.183 Q13.959 -1.183 11.259 -3.883 Q8.559 -6.583 8.559 -10.355 V-50.686 Q8.559 -54.458 11.259 -57.158 Q13.959 -59.858 17.731 -59.858 H27.894 L32.887 -66.125 Q34.251 -67.684 36.061 -68.48 Q37.87 -69.277 39.761 -69.277 H54.937 Q56.845 -69.277 58.637 -68.48 Q60.429 -67.684 61.793 -66.125 L66.786 -59.858 H76.949 Q80.79 -59.858 83.455 -57.158 Q86.121 -54.458 86.121 -50.686 V-10.355 Q86.121 -6.583 83.455 -3.883 Q80.79 -1.183 76.949 -1.183 H17.731 Z M17.731 -10.355 H76.949 Q76.949 -10.355 76.949 -10.355 Q76.949 -10.355 76.949 -10.355 V-50.686 Q76.949 -50.686 76.949 -50.686 Q76.949 -50.686 76.949 -50.686 H62.638 L55.021 -60.105 H39.831 L31.916 -50.686 H17.731 Q17.731 -50.686 17.731 -50.686 Q17.731 -50.686 17.731 -50.686 V-10.355 Q17.731 -10.355 17.731 -10.355 Q17.731 -10.355 17.731 -10.355 Z"/></g><g id="Medium-S" transform="matrix(1 0 0 1 1701.85 696)"><path d="M58.978 -31.186 Q58.978 -25.417 55.477 -22.187 Q51.975 -18.957 47.34 -18.957 Q46.526 -18.957 45.861 -19.006 Q45.195 -19.055 44.431 -19.253 Q43.74 -19.45 43.272 -19.302 Q42.803 -19.154 42.33 -18.716 Q41.373 -17.823 41.575 -16.665 Q41.778 -15.508 42.927 -15.16 Q43.987 -14.815 45.08 -14.617 Q46.174 -14.42 47.344 -14.42 Q53.948 -14.42 58.781 -19.129 Q63.613 -23.839 63.416 -31.581 L64.698 -30.447 Q65.438 -29.855 66.251 -29.88 Q67.065 -29.904 67.755 -30.595 Q68.416 -31.25 68.431 -32.106 Q68.446 -32.962 67.696 -33.637 L63.12 -37.696 Q62.232 -38.386 61.172 -38.46 Q60.112 -38.534 59.229 -37.697 L54.957 -33.637 Q54.244 -32.98 54.244 -32.132 Q54.244 -31.285 54.983 -30.545 Q55.625 -29.904 56.487 -29.929 Q57.35 -29.954 58.09 -30.496 L58.978 -31.186 Z M31.166 -29.707  29.735 -30.89 Q29 -31.482 28.184 -31.532 Q27.368 -31.581 26.678 -30.89 Q26.017 -30.235 26.002 -29.355 Q25.988 -28.474 26.727 -27.833 L31.313 -23.543 Q32.152 -22.705 33.237 -22.705 Q34.322 -22.705 35.16 -23.543 L39.603 -27.651 Q40.338 -28.308 40.338 -29.156 Q40.338 -30.003 39.598 -30.743 Q38.957 -31.384 38.094 -31.359 Q37.231 -31.334 36.491 -30.792 L35.604 -30.101 Q35.604 -35.279 39.105 -38.756 Q42.606 -42.232 47.386 -42.232 Q48.118 -42.232 48.851 -42.183 Q49.584 -42.134 50.397 -41.936 Q50.894 -41.739 51.385 -41.887 Q51.877 -42.035 52.35 -42.473 Q53.307 -43.367 53.159 -44.575 Q53.011 -45.783 51.901 -46.128 Q50.792 -46.473 49.687 -46.621 Q48.583 -46.769 47.401 -46.769 Q40.732 -46.769 35.85 -41.813 Q30.968 -36.857 31.166 -29.707 Z M17.345 -2.276 Q14.217 -2.276 11.935 -4.559 Q9.652 -6.841 9.652 -9.969 V-51.072 Q9.652 -54.201 11.935 -56.483 Q14.217 -58.765 17.345 -58.765 H28.473 L33.402 -65.257 Q34.573 -66.687 36.157 -67.435 Q37.741 -68.184 39.439 -68.184 H55.259 Q56.974 -68.184 58.54 -67.435 Q60.107 -66.687 61.278 -65.257 L66.207 -58.765 H77.335 Q80.532 -58.765 82.78 -56.483 Q85.028 -54.201 85.028 -51.072 V-9.969 Q85.028 -6.841 82.78 -4.559 Q80.532 -2.276 77.335 -2.276 H17.345 Z M17.345 -9.969 H77.335 Q77.335 -9.969 77.335 -9.969 Q77.335 -9.969 77.335 -9.969 V-51.072 Q77.335 -51.072 77.335 -51.072 Q77.335 -51.072 77.335 -51.072 H62.541 L55.278 -60.491 H39.478 L32.109 -51.072 H17.345 Q17.345 -51.072 17.345 -51.072 Q17.345 -51.072 17.345 -51.072 V-9.969 Q17.345 -9.969 17.345 -9.969 Q17.345 -9.969 17.345 -9.969 Z"/></g><g id="Regular-S" transform="matrix(1 0 0 1 1405.73 696)"><path d="M58.978 -31.186 Q58.978 -25.417 55.477 -22.187 Q51.975 -18.957 47.34 -18.957 Q46.526 -18.957 45.861 -19.006 Q45.195 -19.055 44.431 -19.253 Q43.74 -19.45 43.272 -19.302 Q42.803 -19.154 42.33 -18.716 Q41.373 -17.823 41.575 -16.665 Q41.778 -15.508 42.927 -15.16 Q43.987 -14.815 45.08 -14.617 Q46.174 -14.42 47.344 -14.42 Q53.948 -14.42 58.781 -19.129 Q63.613 -23.839 63.416 -31.581 L64.698 -30.447 Q65.438 -29.855 66.251 -29.88 Q67.065 -29.904 67.755 -30.595 Q68.416 -31.25 68.431 -32.106 Q68.446 -32.962 67.696 -33.637 L63.12 -37.696 Q62.232 -38.386 61.172 -38.46 Q60.112 -38.534 59.229 -37.697 L54.957 -33.637 Q54.244 -32.98 54.244 -32.132 Q54.244 -31.285 54.983 -30.545 Q55.625 -29.904 56.487 -29.929 Q57.35 -29.954 58.09 -30.496 L58.978 -31.186 Z M31.166 -29.707  29.735 -30.89 Q29 -31.482 28.184 -31.532 Q27.368 -31.581 26.678 -30.89 Q26.017 -30.235 26.002 -29.355 Q25.988 -28.474 26.727 -27.833 L31.313 -23.543 Q32.152 -22.705 33.237 -22.705 Q34.322 -22.705 35.16 -23.543 L39.603 -27.651 Q40.338 -28.308 40.338 -29.156 Q40.338 -30.003 39.598 -30.743 Q38.957 -31.384 38.094 -31.359 Q37.231 -31.334 36.491 -30.792 L35.604 -30.101 Q35.604 -35.279 39.105 -38.756 Q42.606 -42.232 47.386 -42.232 Q48.118 -42.232 48.851 -42.183 Q49.584 -42.134 50.397 -41.936 Q50.894 -41.739 51.385 -41.887 Q51.877 -42.035 52.35 -42.473 Q53.307 -43.367 53.159 -44.575 Q53.011 -45.783 51.901 -46.128 Q50.792 -46.473 49.687 -46.621 Q48.583 -46.769 47.401 -46.769 Q40.732 -46.769 35.85 -41.813 Q30.968 -36.857 31.166 -29.707 Z M17.062 -3.078 Q14.405 -3.078 12.43 -5.054 Q10.454 -7.029 10.454 -9.686 V-51.355 Q10.454 -54.012 12.43 -55.988 Q14.405 -57.963 17.062 -57.963 H28.897 L33.779 -64.62 Q34.809 -65.955 36.228 -66.669 Q37.647 -67.382 39.203 -67.382 H55.495 Q57.068 -67.382 58.47 -66.669 Q59.871 -65.955 60.901 -64.62 L65.783 -57.963 H77.618 Q80.344 -57.963 82.285 -55.988 Q84.226 -54.012 84.226 -51.355 V-9.686 Q84.226 -7.029 82.285 -5.054 Q80.344 -3.078 77.618 -3.078 H17.062 Z M17.062 -9.686 H77.618 Q77.618 -9.686 77.618 -9.686 Q77.618 -9.686 77.618 -9.686 V-51.355 Q77.618 -51.355 77.618 -51.355 Q77.618 -51.355 77.618 -51.355 H62.47 L55.467 -60.774 H39.218 L32.25 -51.355 H17.062 Q17.062 -51.355 17.062 -51.355 Q17.062 -51.355 17.062 -51.355 V-9.686 Q17.062 -9.686 17.062 -9.686 Q17.062 -9.686 17.062 -9.686 Z"/></g><g id="Light-S" transform="matrix(1 0 0 1 1109.75 696)"><path d="M59.604 -32.552 Q59.68 -26.119 56.055 -22.215 Q52.431 -18.312 47.34 -18.312 Q46.488 -18.312 45.794 -18.38 Q45.1 -18.449 44.298 -18.646 Q43.683 -18.786 43.3 -18.648 Q42.917 -18.509 42.596 -18.109 Q41.961 -17.443 42.163 -16.665 Q42.366 -15.887 43.173 -15.653 Q44.119 -15.289 45.185 -15.11 Q46.25 -14.932 47.344 -14.932 Q53.967 -14.932 58.581 -19.945 Q63.196 -24.958 62.885 -32.852 L65.153 -30.826 Q65.741 -30.386 66.337 -30.43 Q66.932 -30.473 67.452 -30.993 Q67.961 -31.497 67.957 -32.106 Q67.953 -32.715 67.374 -33.239 L62.949 -37.146 Q62.137 -37.779 61.229 -37.844 Q60.321 -37.908 59.514 -37.147 L55.393 -33.239 Q54.832 -32.733 54.832 -32.113 Q54.832 -31.494 55.42 -30.925 Q55.89 -30.435 56.516 -30.46 Q57.142 -30.485 57.73 -30.875 L59.604 -32.552 Z M31.697 -28.417  29.299 -30.492 Q28.716 -30.913 28.118 -30.944 Q27.52 -30.974 27 -30.454 Q26.491 -29.95 26.486 -29.326 Q26.481 -28.702 27.069 -28.212 L31.503 -24.093 Q32.266 -23.312 33.189 -23.312 Q34.113 -23.312 34.894 -24.093 L39.186 -28.049 Q39.75 -28.536 39.75 -29.156 Q39.75 -29.775 39.181 -30.363 Q38.691 -30.834 38.066 -30.809 Q37.44 -30.784 36.852 -30.394 L34.978 -28.717 Q34.902 -34.559 38.526 -38.708 Q42.151 -42.858 47.386 -42.858 Q48.156 -42.858 48.908 -42.79 Q49.66 -42.722 50.492 -42.525 Q50.913 -42.346 51.338 -42.485 Q51.763 -42.623 52.103 -43.08 Q52.719 -43.727 52.59 -44.556 Q52.461 -45.385 51.712 -45.635 Q50.659 -45.904 49.592 -46.071 Q48.526 -46.238 47.401 -46.238 Q40.713 -46.238 36.049 -40.979 Q31.386 -35.719 31.697 -28.417 Z M18.181 -4.861 Q15.771 -4.861 14.004 -6.628 Q12.237 -8.395 12.237 -10.805 V-50.236 Q12.237 -52.646 14.004 -54.413 Q15.771 -56.18 18.181 -56.18 H29.637 L34.765 -63.084 Q35.681 -64.324 36.958 -64.961 Q38.235 -65.599 39.678 -65.599 H55.039 Q56.48 -65.599 57.739 -64.961 Q58.999 -64.324 59.934 -63.084 L65.043 -56.18 H76.499 Q78.978 -56.18 80.71 -54.413 Q82.443 -52.646 82.443 -50.236 V-10.805 Q82.443 -8.395 80.71 -6.628 Q78.978 -4.861 76.499 -4.861 H18.181 Z M18.181 -9.591 H76.499 Q77.03 -9.591 77.371 -9.933 Q77.713 -10.274 77.713 -10.805 V-50.236 Q77.713 -50.748 77.371 -51.099 Q77.03 -51.45 76.499 -51.45 H62.603 L55.543 -60.869 H39.161 L32.118 -51.45 H18.181 Q17.65 -51.45 17.309 -51.099 Q16.967 -50.748 16.967 -50.236 V-10.805 Q16.967 -10.274 17.309 -9.933 Q17.65 -9.591 18.181 -9.591 Z"/></g><g id="Thin-S" transform="matrix(1 0 0 1 814.015 696)"><path d="M60.229 -33.917 Q60.381 -26.82 56.634 -22.244 Q52.886 -17.667 47.34 -17.667 Q46.451 -17.667 45.728 -17.754 Q45.005 -17.842 44.165 -18.039 Q43.626 -18.122 43.329 -17.993 Q43.031 -17.864 42.861 -17.502 Q42.549 -17.064 42.751 -16.665 Q42.953 -16.266 43.42 -16.146 Q44.252 -15.763 45.289 -15.604 Q46.325 -15.444 47.344 -15.444 Q53.986 -15.444 58.382 -20.761 Q62.779 -26.077 62.354 -34.122 L65.608 -31.205 Q66.045 -30.917 66.422 -30.98 Q66.8 -31.042 67.148 -31.391 Q67.506 -31.743 67.483 -32.106 Q67.46 -32.468 67.051 -32.841 L62.779 -36.596 Q62.043 -37.172 61.286 -37.227 Q60.529 -37.282 59.798 -36.597 L55.829 -32.841 Q55.42 -32.486 55.42 -32.094 Q55.42 -31.702 55.856 -31.304 Q56.156 -30.966 56.544 -30.991 Q56.933 -31.016 57.369 -31.255 L60.229 -33.917 Z M32.228 -27.128  28.863 -30.094 Q28.431 -30.344 28.052 -30.356 Q27.672 -30.367 27.323 -30.018 Q26.966 -29.666 26.97 -29.298 Q26.974 -28.929 27.41 -28.592 L31.693 -24.643 Q32.379 -23.919 33.142 -23.919 Q33.904 -23.919 34.629 -24.643 L38.768 -28.447 Q39.162 -28.764 39.162 -29.156 Q39.162 -29.548 38.763 -29.984 Q38.426 -30.284 38.037 -30.259 Q37.648 -30.234 37.212 -29.995 L34.352 -27.332 Q34.2 -33.838 37.948 -38.661 Q41.696 -43.484 47.386 -43.484 Q48.194 -43.484 48.965 -43.397 Q49.735 -43.31 50.587 -43.112 Q50.932 -42.953 51.291 -43.082 Q51.649 -43.211 51.856 -43.687 Q52.131 -44.087 52.021 -44.537 Q51.911 -44.986 51.522 -45.142 Q50.526 -45.335 49.498 -45.521 Q48.469 -45.707 47.401 -45.707 Q40.694 -45.707 36.248 -40.144 Q31.803 -34.581 32.228 -27.128 Z M19.3 -6.644 Q17.137 -6.644 15.578 -8.202 Q14.02 -9.761 14.02 -11.924 V-49.117 Q14.02 -51.281 15.578 -52.839 Q17.137 -54.397 19.3 -54.397 H30.377 L35.752 -61.548 Q36.554 -62.693 37.688 -63.255 Q38.823 -63.816 40.152 -63.816 H54.584 Q55.892 -63.816 57.009 -63.255 Q58.126 -62.693 58.966 -61.548 L64.303 -54.397 H75.38 Q77.612 -54.397 79.136 -52.839 Q80.66 -51.281 80.66 -49.117 V-11.924 Q80.66 -9.761 79.136 -8.202 Q77.612 -6.644 75.38 -6.644 H19.3 Z M19.3 -9.496 H75.38 Q76.442 -9.496 77.125 -10.179 Q77.808 -10.862 77.808 -11.924 V-49.117 Q77.808 -50.141 77.125 -50.843 Q76.442 -51.545 75.38 -51.545 H62.736 L55.619 -60.964 H39.104 L31.985 -51.545 H19.3 Q18.238 -51.545 17.555 -50.843 Q16.872 -50.141 16.872 -49.117 V-11.924 Q16.872 -10.862 17.555 -10.179 Q18.238 -9.496 19.3 -9.496 Z"/></g><g id="Ultralight-S" transform="matrix(1 0 0 1 517.792 696)"><path d="M60.605 -34.737 Q60.802 -27.241 56.981 -22.261 Q53.159 -17.28 47.34 -17.28 Q46.428 -17.28 45.688 -17.379 Q44.948 -17.477 44.085 -17.675 Q43.592 -17.724 43.346 -17.601 Q43.099 -17.477 43.021 -17.138 Q42.902 -16.836 43.104 -16.665 Q43.306 -16.494 43.568 -16.442 Q44.332 -16.047 45.351 -15.899 Q46.371 -15.752 47.344 -15.752 Q53.997 -15.752 58.263 -21.25 Q62.528 -26.748 62.035 -34.885 L65.882 -31.433 Q66.227 -31.236 66.473 -31.31 Q66.72 -31.384 66.966 -31.63 Q67.233 -31.891 67.198 -32.106 Q67.164 -32.321 66.858 -32.602 L62.676 -36.266 Q61.986 -36.808 61.32 -36.857 Q60.654 -36.907 59.969 -36.267 L56.091 -32.602 Q55.772 -32.339 55.772 -32.083 Q55.772 -31.827 56.118 -31.532 Q56.315 -31.285 56.561 -31.31 Q56.808 -31.334 57.153 -31.482 L60.605 -34.737 Z M32.546 -26.354  28.601 -29.855 Q28.261 -30.003 28.012 -30.003 Q27.763 -30.003 27.516 -29.756 Q27.25 -29.495 27.26 -29.281 Q27.27 -29.066 27.615 -28.819 L31.807 -24.973 Q32.448 -24.283 33.113 -24.283 Q33.779 -24.283 34.469 -24.973 L38.518 -28.686 Q38.809 -28.9 38.809 -29.156 Q38.809 -29.411 38.513 -29.756 Q38.267 -29.954 38.02 -29.929 Q37.773 -29.904 37.428 -29.756 L33.976 -26.502 Q33.779 -33.405 37.601 -38.633 Q41.422 -43.86 47.386 -43.86 Q48.217 -43.86 48.999 -43.761 Q49.781 -43.662 50.644 -43.465 Q50.944 -43.317 51.262 -43.441 Q51.581 -43.564 51.708 -44.051 Q51.778 -44.303 51.68 -44.525 Q51.581 -44.747 51.408 -44.846 Q50.447 -44.994 49.441 -45.191 Q48.435 -45.388 47.401 -45.388 Q40.683 -45.388 36.368 -39.643 Q32.053 -33.899 32.546 -26.354 Z M19.972 -7.714 Q17.956 -7.714 16.523 -9.147 Q15.09 -10.58 15.09 -12.596 V-48.446 Q15.09 -50.461 16.523 -51.895 Q17.956 -53.328 19.972 -53.328 H30.82 L36.343 -60.626 Q37.077 -61.715 38.126 -62.23 Q39.176 -62.746 40.436 -62.746 H54.311 Q55.539 -62.746 56.571 -62.23 Q57.603 -61.715 58.386 -60.626 L63.86 -53.328 H74.708 Q76.793 -53.328 78.192 -51.895 Q79.59 -50.461 79.59 -48.446 V-12.596 Q79.59 -10.58 78.192 -9.147 Q76.793 -7.714 74.708 -7.714 H19.972 Z M19.972 -9.44 H74.708 Q76.089 -9.44 76.977 -10.327 Q77.864 -11.215 77.864 -12.596 V-48.446 Q77.864 -49.777 76.977 -50.689 Q76.089 -51.602 74.708 -51.602 H62.816 L55.664 -61.02 H39.07 L31.905 -51.602 H19.972 Q18.591 -51.602 17.703 -50.689 Q16.816 -49.777 16.816 -48.446 V-12.596 Q16.816 -11.215 17.703 -10.327 Q18.591 -9.44 19.972 -9.44 Z"/></g></g></svg>