<svg xmlns="http://www.w3.org/2000/svg" version="1.1" width="3300" height="2000"><g id="Notes"><style>
    text {
      font-family: monospace;
      text-anchor: middle;
    }
    text.emphasis {
      font-weight:bold;
    }
    text.lanchor {
      text-anchor: start;
    }
  </style><rect height="2200" id="artboard" fill="white" width="3300" x="0" y="0"/><line id="" style="fill:none;stroke:black;stroke-width:0.5;" x1="263" x2="3036" y1="292" y2="292"/><text class="lanchor emphasis" transform="matrix(1 0 0 1 263 322)">Weight/Scale Variations</text><text transform="matrix(1 0 0 1 559.711 322)">Ultralight</text><text transform="matrix(1 0 0 1 856.422 322)">Thin</text><text transform="matrix(1 0 0 1 1153.13 322)">Light</text><text transform="matrix(1 0 0 1 1449.84 322)">Regular</text><text transform="matrix(1 0 0 1 1746.56 322)">Medium</text><text transform="matrix(1 0 0 1 2043.27 322)">Semibold</text><text transform="matrix(1 0 0 1 2339.98 322)">Bold</text><text transform="matrix(1 0 0 1 2636.69 322)">Heavy</text><text transform="matrix(1 0 0 1 2933.4 322)">Black</text><text id="template-version" style="text-anchor: end;" transform="matrix(1 0 0 1 3036 1933)">Template v.1.0</text><text class="lanchor" transform="matrix(1 0 0 1 263 726)">Small</text><text class="lanchor" transform="matrix(1 0 0 1 263 1156)">Medium</text><text class="lanchor" transform="matrix(1 0 0 1 263 1586)">Large</text></g><g id="Guides"><g id="H-reference" style="fill:#27AAE1;stroke:none;" transform="matrix(1 0 0 1 339 696)"><path d="M 54.9316 0 L 57.666 0 L 30.5664 -70.459 L 28.0762 -70.459 L 0.976562 0 L 3.66211 0 L 12.9395 -24.4629 L 45.7031 -24.4629 Z M 29.1992 -67.0898 L 29.4434 -67.0898 L 44.8242 -26.709 L 13.8184 -26.709 Z"/></g><line id="Baseline-S" style="fill:none;stroke:#27AAE1;opacity:1;stroke-width:0.577;" x1="263" x2="3036" y1="696" y2="696"/><line id="Capline-S" style="fill:none;stroke:#27AAE1;opacity:1;stroke-width:0.577;" x1="263" x2="3036" y1="625.541" y2="625.541"/><g id="H-reference" style="fill:#27AAE1;stroke:none;" transform="matrix(1 0 0 1 339 1126)"><path d="M 54.9316 0 L 57.666 0 L 30.5664 -70.459 L 28.0762 -70.459 L 0.976562 0 L 3.66211 0 L 12.9395 -24.4629 L 45.7031 -24.4629 Z M 29.1992 -67.0898 L 29.4434 -67.0898 L 44.8242 -26.709 L 13.8184 -26.709 Z"/></g><line id="Baseline-M" style="fill:none;stroke:#27AAE1;opacity:1;stroke-width:0.577;" x1="263" x2="3036" y1="1126" y2="1126"/><line id="Capline-M" style="fill:none;stroke:#27AAE1;opacity:1;stroke-width:0.577;" x1="263" x2="3036" y1="1055.54" y2="1055.54"/><g id="H-reference" style="fill:#27AAE1;stroke:none;" transform="matrix(1 0 0 1 339 1556)"><path d="M 54.9316 0 L 57.666 0 L 30.5664 -70.459 L 28.0762 -70.459 L 0.976562 0 L 3.66211 0 L 12.9395 -24.4629 L 45.7031 -24.4629 Z M 29.1992 -67.0898 L 29.4434 -67.0898 L 44.8242 -26.709 L 13.8184 -26.709 Z"/></g><line id="Baseline-L" style="fill:none;stroke:#27AAE1;opacity:1;stroke-width:0.577;" x1="263" x2="3036" y1="1556" y2="1556"/><line id="Capline-L" style="fill:none;stroke:#27AAE1;opacity:1;stroke-width:0.577;" x1="263" x2="3036" y1="1485.54" y2="1485.54"/><rect height="119.336" id="left-margin" style="fill:darkred;stroke:none;opacity:0.4;" width="12.4512" x="1394.06" y="1030.79"/><rect height="119.336" id="right-margin" style="fill:darkgreen;stroke:none;opacity:0.4;" width="12.4512" x="1502.5112" y="1030.79"/><rect x="1406.5112" y="1045" width="96" height="96" fill="none" stroke="blue" stroke-dasharray="5"/><rect x="1394.06" y="1030.79" width="120.9024" height="119.336" fill="none" stroke="blue"/></g><g id="Symbols"><g id="Bold-L" transform="matrix(1 0 0 1 2266 1556)"><path d="M45.408 26.529 Q36.637 26.529 30.376 20.327 Q24.115 14.126 24.115 5.083 H2.741 V-44.099 H79.174 V-84.089 H103.2 V-99.73 H123.679 V-84.089 H138.675 L152.059 -43.615 V5.083 H134.644 Q134.644 14.018 128.436 20.274 Q122.228 26.529 113.359 26.529 Q104.49 26.529 98.282 20.327 Q92.074 14.126 92.074 5.083 H66.758 Q66.758 14.113 60.469 20.321 Q54.18 26.529 45.408 26.529 Z M45.473 14.919 Q49.423 14.919 52.285 12.137 Q55.148 9.356 55.148 5.244 Q54.986 1.132 52.171 -1.65 Q49.355 -4.431 45.392 -4.431 Q41.429 -4.431 38.613 -1.65 Q35.797 1.132 35.797 5.163 Q35.797 9.263 38.579 12.091 Q41.361 14.919 45.473 14.919 Z M113.359 14.919 Q117.471 14.919 120.252 12.091 Q123.034 9.263 123.034 5.083 Q123.034 1.132 120.252 -1.65 Q117.471 -4.431 113.359 -4.431 Q109.315 -4.431 106.58 -1.65 Q103.845 1.132 103.684 5.244 Q103.684 9.356 106.465 12.137 Q109.247 14.919 113.359 14.919 Z M94.493 -44.099 H135.934 L127.71 -68.77 H94.493 V-44.099 Z M2.741 -50.549 V-59.417 H10.159 V-75.22 H2.741 V-84.089 H72.724 V-75.22 H65.306 V-59.417 H72.724 V-50.549 H2.741 Z M19.027 -59.417 H33.379 V-75.22 H19.027 V-59.417 Z M42.248 -59.417 H56.438 V-75.22 H42.248 V-59.417 Z"/></g><g id="Semibold-L" transform="matrix(1 0 0 1 1970.27 1556)"><path d="M45.296 24.916 Q36.833 24.916 30.84 18.957 Q24.848 12.998 24.848 4.381 H4.354 V-43.047 H78.403 V-82.476 H103.901 V-96.926 H122.487 V-82.476 H137.273 L150.446 -42.844 V4.381 H132.19 Q132.19 12.938 126.227 18.927 Q120.265 24.916 111.746 24.916 Q103.228 24.916 97.265 18.957 Q91.303 12.998 91.303 4.381 H65.776 Q65.776 12.991 59.768 18.954 Q53.759 24.916 45.296 24.916 Z M45.332 14.148 Q49.353 14.148 52.18 11.366 Q55.007 8.585 55.007 4.473 Q54.916 0.361 52.115 -2.421 Q49.314 -5.202 45.287 -5.202 Q41.259 -5.202 38.458 -2.421 Q35.657 0.361 35.657 4.427 Q35.657 8.532 38.439 11.34 Q41.22 14.148 45.332 14.148 Z M111.746 14.148 Q115.858 14.148 118.64 11.34 Q121.421 8.532 121.421 4.381 Q121.421 0.361 118.64 -2.421 Q115.858 -5.202 111.746 -5.202 Q107.673 -5.202 104.918 -2.421 Q102.163 0.361 102.071 4.473 Q102.071 8.585 104.853 11.366 Q107.635 14.148 111.746 14.148 Z M91.268 -43.047 H136.915 L128.061 -69.611 H91.268 V-43.047 Z M4.354 -49.497 V-57.314 H11.351 V-74.659 H4.354 V-82.476 H71.953 V-74.659 H64.956 V-57.314 H71.953 V-49.497 H4.354 Z M19.168 -57.314 H34.29 V-74.659 H19.168 V-57.314 Z M42.107 -57.314 H57.139 V-74.659 H42.107 V-57.314 Z"/></g><g id="Medium-L" transform="matrix(1 0 0 1 1674.31 1556)"><path d="M45.212 23.707 Q36.98 23.707 31.188 17.93 Q25.397 12.153 25.397 3.856 H5.563 V-42.258 H77.824 V-81.267 H104.427 V-94.822 H121.593 V-81.267 H136.221 L149.237 -42.265 V3.856 H130.35 Q130.35 12.127 124.571 17.917 Q118.792 23.707 110.537 23.707 Q102.282 23.707 96.503 17.93 Q90.724 12.153 90.724 3.856 H65.04 Q65.04 12.149 59.242 17.928 Q53.444 23.707 45.212 23.707 Z M45.227 13.569 Q49.3 13.569 52.101 10.788 Q54.902 8.006 54.902 3.894 Q54.864 -0.218 52.074 -2.999 Q49.284 -5.781 45.208 -5.781 Q41.132 -5.781 38.342 -2.999 Q35.552 -0.218 35.552 3.875 Q35.552 7.984 38.334 10.777 Q41.115 13.569 45.227 13.569 Z M110.537 13.569 Q114.649 13.569 117.43 10.777 Q120.212 7.984 120.212 3.856 Q120.212 -0.218 117.43 -2.999 Q114.649 -5.781 110.537 -5.781 Q106.441 -5.781 103.671 -2.999 Q100.9 -0.218 100.862 3.894 Q100.862 8.006 103.643 10.788 Q106.425 13.569 110.537 13.569 Z M88.849 -42.258 H137.651 L128.323 -70.242 H88.849 V-42.258 Z M5.563 -48.708 V-55.737 H12.245 V-74.238 H5.563 V-81.267 H71.374 V-74.238 H64.693 V-55.737 H71.374 V-48.708 H5.563 Z M19.273 -55.737 H34.974 V-74.238 H19.273 V-55.737 Z M42.002 -55.737 H57.664 V-74.238 H42.002 V-55.737 Z"/></g><g id="Regular-L" transform="matrix(1 0 0 1 1378.56 1556)"><path d="M45.15 22.82 Q37.087 22.82 31.444 17.176 Q25.8 11.533 25.8 3.47 H6.45 V-41.68 H77.4 V-80.38 H104.812 V-93.28 H120.938 V-80.38 H135.45 L148.35 -41.841 V3.47 H129 Q129 11.533 123.356 17.176 Q117.713 22.82 109.65 22.82 Q101.588 22.82 95.944 17.176 Q90.3 11.533 90.3 3.47 H64.5 Q64.5 11.533 58.856 17.176 Q53.212 22.82 45.15 22.82 Z M45.15 13.145 Q49.262 13.145 52.043 10.363 Q54.825 7.582 54.825 3.47 Q54.825 -0.642 52.043 -3.423 Q49.262 -6.205 45.15 -6.205 Q41.038 -6.205 38.257 -3.423 Q35.475 -0.642 35.475 3.47 Q35.475 7.582 38.257 10.363 Q41.038 13.145 45.15 13.145 Z M109.65 13.145 Q113.762 13.145 116.543 10.363 Q119.325 7.582 119.325 3.47 Q119.325 -0.642 116.543 -3.423 Q113.762 -6.205 109.65 -6.205 Q105.538 -6.205 102.757 -3.423 Q99.975 -0.642 99.975 3.47 Q99.975 7.582 102.757 10.363 Q105.538 13.145 109.65 13.145 Z M87.075 -41.68 H138.191 L128.516 -70.705 H87.075 V-41.68 Z M6.45 -48.13 V-54.58 H12.9 V-73.93 H6.45 V-80.38 H70.95 V-73.93 H64.5 V-54.58 H70.95 V-48.13 H6.45 Z M19.35 -54.58 H35.475 V-73.93 H19.35 V-54.58 Z M41.925 -54.58 H58.05 V-73.93 H41.925 V-54.58 Z"/></g><g id="Light-L" transform="matrix(1 0 0 1 1082.77 1556)"><path d="M45.135 20.339 Q37.584 20.339 32.312 15.057 Q27.04 9.775 27.04 2.23 H9.675 V-41.68 H80.625 V-77.155 H105.991 V-87.822 H119.759 V-77.155 H133.093 L145.125 -41.283 V2.23 H127.76 Q127.76 9.775 122.473 15.057 Q117.187 20.339 109.635 20.339 Q102.084 20.339 96.812 15.057 Q91.54 9.775 91.54 2.23 H63.26 Q63.26 9.796 57.973 15.067 Q52.687 20.339 45.135 20.339 Z M45.15 13.021 Q49.758 13.021 52.85 9.929 Q55.941 6.838 55.941 2.26 Q55.941 -2.316 52.85 -5.439 Q49.758 -8.562 45.15 -8.562 Q40.542 -8.562 37.45 -5.439 Q34.359 -2.316 34.359 2.26 Q34.359 6.838 37.45 9.929 Q40.542 13.021 45.15 13.021 Z M109.65 13.021 Q114.258 13.021 117.35 9.929 Q120.441 6.838 120.441 2.26 Q120.441 -2.316 117.35 -5.439 Q114.258 -8.562 109.65 -8.562 Q105.042 -8.562 101.95 -5.439 Q98.859 -2.316 98.859 2.26 Q98.859 6.838 101.95 9.929 Q105.042 13.021 109.65 13.021 Z M87.943 -41.68 H137.261 L127.958 -69.837 H87.943 V-41.68 Z M9.675 -48.13 V-53.464 H16.125 V-71.821 H9.675 V-77.155 H72.19 V-71.821 H65.74 V-53.464 H72.19 V-48.13 H9.675 Z M21.459 -53.464 H38.266 V-71.821 H21.459 V-53.464 Z M43.6 -53.464 H60.407 V-71.821 H43.6 V-53.464 Z"/></g><g id="Thin-L" transform="matrix(1 0 0 1 787.282 1556)"><path d="M45.121 17.858 Q38.08 17.858 33.18 12.938 Q28.281 8.018 28.281 0.989 H12.9 V-41.68 H83.85 V-73.93 H107.169 V-82.365 H118.581 V-73.93 H130.737 L141.9 -40.725 V0.989 H126.519 Q126.519 8.018 121.591 12.938 Q116.662 17.858 109.621 17.858 Q102.58 17.858 97.68 12.938 Q92.781 8.018 92.781 0.989 H62.019 Q62.019 8.059 57.091 12.959 Q52.162 17.858 45.121 17.858 Z M45.15 12.897 Q50.254 12.897 53.656 9.495 Q57.058 6.093 57.058 1.051 Q57.058 -3.991 53.656 -7.455 Q50.254 -10.918 45.15 -10.918 Q40.046 -10.918 36.644 -7.455 Q33.242 -3.991 33.242 1.051 Q33.242 6.093 36.644 9.495 Q40.046 12.897 45.15 12.897 Z M109.65 12.897 Q114.754 12.897 118.156 9.495 Q121.558 6.093 121.558 1.051 Q121.558 -3.991 118.156 -7.455 Q114.754 -10.918 109.65 -10.918 Q104.546 -10.918 101.144 -7.455 Q97.742 -3.991 97.742 1.051 Q97.742 6.093 101.144 9.495 Q104.546 12.897 109.65 12.897 Z M88.812 -41.68 H136.331 L127.4 -68.968 H88.812 V-41.68 Z M12.9 -48.13 V-52.347 H19.35 V-69.713 H12.9 V-73.93 H73.431 V-69.713 H66.981 V-52.347 H73.431 V-48.13 H12.9 Z M23.567 -52.347 H41.057 V-69.713 H23.567 V-52.347 Z M45.274 -52.347 H62.763 V-69.713 H45.274 V-52.347 Z"/></g><g id="Ultralight-L" transform="matrix(1 0 0 1 491.205 1556)"><path d="M45.112 16.37 Q38.377 16.37 33.701 11.667 Q29.025 6.964 29.025 0.245 H14.835 V-41.68 H85.785 V-71.995 H107.876 V-79.09 H117.874 V-71.995 H129.322 L139.965 -40.39 V0.245 H125.775 Q125.775 6.964 121.061 11.667 Q116.347 16.37 109.612 16.37 Q102.877 16.37 98.201 11.667 Q93.525 6.964 93.525 0.245 H61.275 Q61.275 7.018 56.561 11.694 Q51.847 16.37 45.112 16.37 Z M45.15 12.823 Q50.552 12.823 54.14 9.235 Q57.727 5.647 57.727 0.326 Q57.727 -4.996 54.14 -8.664 Q50.552 -12.332 45.15 -12.332 Q39.748 -12.332 36.16 -8.664 Q32.572 -4.996 32.572 0.326 Q32.572 5.647 36.16 9.235 Q39.748 12.823 45.15 12.823 Z M109.65 12.823 Q115.052 12.823 118.64 9.235 Q122.228 5.647 122.228 0.326 Q122.228 -4.996 118.64 -8.664 Q115.052 -12.332 109.65 -12.332 Q104.248 -12.332 100.66 -8.664 Q97.073 -4.996 97.073 0.326 Q97.073 5.647 100.66 9.235 Q104.248 12.823 109.65 12.823 Z M89.332 -41.68 H135.773 L127.065 -68.447 H89.332 V-41.68 Z M14.835 -48.13 V-51.677 H21.285 V-68.447 H14.835 V-71.995 H74.175 V-68.447 H67.725 V-51.677 H74.175 V-48.13 H14.835 Z M24.832 -51.677 H42.731 V-68.447 H24.832 V-51.677 Z M46.279 -51.677 H64.177 V-68.447 H46.279 V-51.677 Z"/></g><g id="Bold-M" transform="matrix(1 0 0 1 2281.8 1126)"><path d="M35.263 13.645 Q28.151 13.645 23.172 8.65 Q18.194 3.655 18.194 -3.48 H1.125 V-42.73 H61.875 V-73.98 H78.375 V-86.855 H97.875 V-73.98 H108.125 L118.875 -42.105 V-3.48 H105.875 Q105.875 3.655 100.908 8.65 Q95.941 13.645 88.846 13.645 Q81.75 13.645 76.812 8.65 Q71.875 3.655 71.875 -3.48 H52.25 Q52.25 3.645 47.312 8.645 Q42.375 13.645 35.263 13.645 Z M35.25 1.645 Q37.375 1.645 38.812 0.208 Q40.25 -1.23 40.25 -3.355 Q40.125 -5.48 38.724 -6.917 Q37.322 -8.355 35.25 -8.355 Q33.178 -8.355 31.776 -6.98 Q30.375 -5.605 30.25 -3.48 Q30.25 -1.302 31.688 0.172 Q33.125 1.645 35.25 1.645 Z M88.875 1.645 Q91 1.645 92.438 0.172 Q93.875 -1.302 93.875 -3.48 Q93.75 -5.605 92.348 -6.98 Q90.947 -8.355 88.875 -8.355 Q86.803 -8.355 85.402 -6.917 Q84 -5.48 83.875 -3.355 Q83.875 -1.23 85.312 0.208 Q86.75 1.645 88.875 1.645 Z M77.625 -42.73 H102.125 L96.875 -58.23 H77.625 V-42.73 Z M1.125 -47.73 V-57.73 H7.125 V-63.98 H1.125 V-73.98 H56.875 V-63.98 H50.875 V-57.73 H56.875 V-47.73 H1.125 Z M17.125 -57.73 H24 V-63.98 H17.125 V-57.73 Z M34 -57.73 H40.875 V-63.98 H34 V-57.73 Z"/></g><g id="Semibold-M" transform="matrix(1 0 0 1 1985.97 1126)"><path d="M35.149 11.96 Q28.411 11.96 23.695 7.235 Q18.979 2.51 18.979 -4.241 H2.81 V-41.643 H61.06 V-72.35 H79.082 V-83.975 H96.625 V-72.35 H106.712 L117.19 -41.344 V-4.241 H103.321 Q103.321 2.51 98.611 7.235 Q93.902 11.96 87.174 11.96 Q80.446 11.96 75.753 7.235 Q71.06 2.51 71.06 -4.241 H51.272 Q51.272 2.504 46.579 7.232 Q41.886 11.96 35.149 11.96 Z M35.141 0.83 Q37.266 0.83 38.704 -0.608 Q40.141 -2.045 40.141 -4.17 Q40.071 -6.295 38.654 -7.733 Q37.236 -9.17 35.141 -9.17 Q33.046 -9.17 31.629 -7.768 Q30.212 -6.366 30.141 -4.241 Q30.141 -2.086 31.579 -0.628 Q33.016 0.83 35.141 0.83 Z M87.19 0.83 Q89.315 0.83 90.753 -0.628 Q92.19 -2.086 92.19 -4.241 Q92.12 -6.366 90.703 -7.768 Q89.285 -9.17 87.19 -9.17 Q85.095 -9.17 83.678 -7.733 Q82.261 -6.295 82.19 -4.17 Q82.19 -2.045 83.628 -0.608 Q85.065 0.83 87.19 0.83 Z M74.31 -41.643 H103.157 L97.255 -59.099 H74.31 V-41.643 Z M2.81 -46.643 V-55.556 H8.375 V-63.436 H2.81 V-72.35 H56.06 V-63.436 H50.495 V-55.556 H56.06 V-46.643 H2.81 Z M17.288 -55.556 H24.978 V-63.436 H17.288 V-55.556 Z M33.891 -55.556 H41.581 V-63.436 H33.891 V-55.556 Z"/></g><g id="Medium-M" transform="matrix(1 0 0 1 1689.91 1126)"><path d="M35.063 10.697 Q28.607 10.697 24.087 6.173 Q19.568 1.65 19.568 -4.811 H4.073 V-40.828 H60.448 V-71.127 H79.611 V-81.814 H95.688 V-71.127 H105.652 L115.927 -40.773 V-4.811 H101.405 Q101.405 1.65 96.888 6.173 Q92.372 10.697 85.92 10.697 Q79.467 10.697 74.958 6.173 Q70.448 1.65 70.448 -4.811 H50.538 Q50.538 1.648 46.029 6.172 Q41.519 10.697 35.063 10.697 Z M35.06 0.218 Q37.185 0.218 38.622 -1.219 Q40.06 -2.657 40.06 -4.782 Q40.03 -6.907 38.601 -8.344 Q37.172 -9.782 35.06 -9.782 Q32.947 -9.782 31.519 -8.359 Q30.09 -6.936 30.06 -4.811 Q30.06 -2.674 31.497 -1.228 Q32.935 0.218 35.06 0.218 Z M85.927 0.218 Q88.052 0.218 89.489 -1.228 Q90.927 -2.674 90.927 -4.811 Q90.897 -6.936 89.468 -8.359 Q88.039 -9.782 85.927 -9.782 Q83.814 -9.782 82.385 -8.344 Q80.957 -6.907 80.927 -4.782 Q80.927 -2.657 82.364 -1.219 Q83.802 0.218 85.927 0.218 Z M71.823 -40.828 H103.932 L97.541 -59.752 H71.823 V-40.828 Z M4.073 -45.828 V-53.926 H9.312 V-63.029 H4.073 V-71.127 H55.448 V-63.029 H50.209 V-53.926 H55.448 V-45.828 H4.073 Z M17.41 -53.926 H25.712 V-63.029 H17.41 V-53.926 Z M33.81 -53.926 H42.111 V-63.029 H33.81 V-53.926 Z"/></g><g id="Regular-M" transform="matrix(1 0 0 1 1394.06 1126)"><path d="M35 9.77 Q28.75 9.77 24.375 5.395 Q20 1.02 20 -5.23 H5 V-40.23 H60 V-70.23 H80 V-80.23 H95 V-70.23 H104.875 L115 -40.355 V-5.23 H100 Q100 1.02 95.625 5.395 Q91.25 9.77 85 9.77 Q78.75 9.77 74.375 5.395 Q70 1.02 70 -5.23 H50 Q50 1.02 45.625 5.395 Q41.25 9.77 35 9.77 Z M35 -0.23 Q37.125 -0.23 38.562 -1.667 Q40 -3.105 40 -5.23 Q40 -7.355 38.562 -8.792 Q37.125 -10.23 35 -10.23 Q32.875 -10.23 31.438 -8.792 Q30 -7.355 30 -5.23 Q30 -3.105 31.438 -1.667 Q32.875 -0.23 35 -0.23 Z M85 -0.23 Q87.125 -0.23 88.562 -1.667 Q90 -3.105 90 -5.23 Q90 -7.355 88.562 -8.792 Q87.125 -10.23 85 -10.23 Q82.875 -10.23 81.438 -8.792 Q80 -7.355 80 -5.23 Q80 -3.105 81.438 -1.667 Q82.875 -0.23 85 -0.23 Z M70 -40.23 H104.5 L97.75 -60.23 H70 V-40.23 Z M5 -45.23 V-52.73 H10 V-62.73 H5 V-70.23 H55 V-62.73 H50 V-52.73 H55 V-45.23 H5 Z M17.5 -52.73 H26.25 V-62.73 H17.5 V-52.73 Z M33.75 -52.73 H42.5 V-62.73 H33.75 V-52.73 Z"/></g><g id="Light-M" transform="matrix(1 0 0 1 1098.18 1126)"><path d="M34.989 7.847 Q29.135 7.847 25.048 3.752 Q20.962 -0.342 20.962 -6.192 H7.5 V-40.23 H62.5 V-67.73 H81.25 V-75.999 H93.75 V-67.73 H103.096 L112.5 -39.922 V-6.192 H99.038 Q99.038 -0.342 94.941 3.752 Q90.843 7.847 84.989 7.847 Q79.135 7.847 75.048 3.752 Q70.962 -0.342 70.962 -6.192 H49.038 Q49.038 -0.326 44.941 3.76 Q40.843 7.847 34.989 7.847 Z M35 0.347 Q37.75 0.347 39.644 -1.547 Q41.539 -3.442 41.539 -6.168 Q41.539 -8.894 39.644 -10.812 Q37.75 -12.73 35 -12.73 Q32.25 -12.73 30.356 -10.812 Q28.461 -8.894 28.461 -6.168 Q28.461 -3.442 30.356 -1.547 Q32.25 0.347 35 0.347 Z M85 0.347 Q87.75 0.347 89.644 -1.547 Q91.539 -3.442 91.539 -6.168 Q91.539 -8.894 89.644 -10.812 Q87.75 -12.73 85 -12.73 Q82.25 -12.73 80.356 -10.812 Q78.461 -8.894 78.461 -6.168 Q78.461 -3.442 80.356 -1.547 Q82.25 0.347 85 0.347 Z M70 -40.23 H104.5 L97.798 -60.23 H70 V-40.23 Z M7.5 -45.23 V-51.191 H12.5 V-61.768 H7.5 V-67.73 H55.962 V-61.768 H50.962 V-51.191 H55.962 V-45.23 H7.5 Z M18.462 -51.191 H28.75 V-61.768 H18.462 V-51.191 Z M34.712 -51.191 H45 V-61.768 H34.712 V-51.191 Z"/></g><g id="Thin-M" transform="matrix(1 0 0 1 802.565 1126)"><path d="M34.977 5.924 Q29.519 5.924 25.721 2.11 Q21.923 -1.704 21.923 -7.153 H10 V-40.23 H65 V-65.23 H82.5 V-71.768 H92.5 V-65.23 H101.317 L110 -39.49 V-7.153 H98.077 Q98.077 -1.704 94.256 2.11 Q90.436 5.924 84.977 5.924 Q79.519 5.924 75.721 2.11 Q71.923 -1.704 71.923 -7.153 H48.077 Q48.077 -1.672 44.256 2.126 Q40.435 5.924 34.977 5.924 Z M35 0.924 Q38.375 0.924 40.726 -1.427 Q43.077 -3.778 43.077 -7.105 Q43.077 -10.432 40.726 -12.831 Q38.375 -15.23 35 -15.23 Q31.625 -15.23 29.274 -12.831 Q26.923 -10.432 26.923 -7.105 Q26.923 -3.778 29.274 -1.427 Q31.625 0.924 35 0.924 Z M85 0.924 Q88.375 0.924 90.726 -1.427 Q93.077 -3.778 93.077 -7.105 Q93.077 -10.432 90.726 -12.831 Q88.375 -15.23 85 -15.23 Q81.625 -15.23 79.274 -12.831 Q76.923 -10.432 76.923 -7.105 Q76.923 -3.778 79.274 -1.427 Q81.625 0.924 85 0.924 Z M70 -40.23 H104.5 L97.846 -60.23 H70 V-40.23 Z M10 -45.23 V-49.653 H15 V-60.807 H10 V-65.23 H56.923 V-60.807 H51.923 V-49.653 H56.923 V-45.23 H10 Z M19.423 -49.653 H31.25 V-60.807 H19.423 V-49.653 Z M35.673 -49.653 H47.5 V-60.807 H35.673 V-49.653 Z"/></g><g id="Ultralight-M" transform="matrix(1 0 0 1 506.415 1126)"><path d="M34.971 4.77 Q29.75 4.77 26.125 1.124 Q22.5 -2.522 22.5 -7.73 H11.5 V-40.23 H66.5 V-63.73 H83.25 V-69.23 H91.75 V-63.73 H100.25 L108.5 -39.23 V-7.73 H97.5 Q97.5 -2.522 93.846 1.124 Q90.191 4.77 84.971 4.77 Q79.75 4.77 76.125 1.124 Q72.5 -2.522 72.5 -7.73 H47.5 Q47.5 -2.48 43.846 1.145 Q40.191 4.77 34.971 4.77 Z M35 1.27 Q38.75 1.27 41.375 -1.355 Q44 -3.98 44 -7.667 Q44 -11.355 41.375 -14.042 Q38.75 -16.73 35 -16.73 Q31.25 -16.73 28.625 -14.042 Q26 -11.355 26 -7.667 Q26 -3.98 28.625 -1.355 Q31.25 1.27 35 1.27 Z M85 1.27 Q88.75 1.27 91.375 -1.355 Q94 -3.98 94 -7.667 Q94 -11.355 91.375 -14.042 Q88.75 -16.73 85 -16.73 Q81.25 -16.73 78.625 -14.042 Q76 -11.355 76 -7.667 Q76 -3.98 78.625 -1.355 Q81.25 1.27 85 1.27 Z M70 -40.23 H104.5 L97.875 -60.23 H70 V-40.23 Z M11.5 -45.23 V-48.73 H16.5 V-60.23 H11.5 V-63.73 H57.5 V-60.23 H52.5 V-48.73 H57.5 V-45.23 H11.5 Z M20 -48.73 H32.75 V-60.23 H20 V-48.73 Z M36.25 -48.73 H49 V-60.23 H36.25 V-48.73 Z"/></g><g id="Bold-S" transform="matrix(1 0 0 1 2294.23 696)"><path d="M26.244 0.965 Q21.323 0.965 17.642 -2.186 Q13.961 -5.338 12.974 -10.179 H1.677 V-39.569 H48.819 V-61.859 H60.26 V-73.595 H75.645 V-61.859 H83.042 L93.003 -41.246 V-10.179 H84.916 Q83.93 -5.338 80.258 -2.186 Q76.585 0.965 71.677 0.965 Q66.769 0.965 63.12 -2.186 Q59.471 -5.338 58.485 -10.179 H39.45 Q38.464 -5.347 34.815 -2.191 Q31.166 0.965 26.244 0.965 Z M26.234 -7.714 Q28.246 -7.714 29.607 -9.075 Q30.968 -10.436 30.968 -12.448 Q30.87 -14.46 29.537 -15.821 Q28.204 -17.182 26.234 -17.182 Q24.264 -17.182 22.932 -15.87 Q21.599 -14.558 21.5 -12.546 Q21.5 -10.492 22.861 -9.103 Q24.222 -7.714 26.234 -7.714 Z M71.7 -7.714 Q73.712 -7.714 75.073 -9.103 Q76.434 -10.492 76.434 -12.546 Q76.336 -14.558 75.003 -15.87 Q73.67 -17.182 71.7 -17.182 Q69.73 -17.182 68.398 -15.821 Q67.065 -14.46 66.966 -12.448 Q66.966 -10.436 68.327 -9.075 Q69.688 -7.714 71.7 -7.714 Z M60.457 -39.569 H80.971 L75.35 -50.221 H60.457 V-39.569 Z M1.677 -44.303 V-51.01 H7.2 V-55.152 H1.677 V-61.859 H44.085 V-55.152 H38.562 V-51.01 H44.085 V-44.303 H1.677 Z M13.906 -51.01 H19.528 V-55.152 H13.906 V-51.01 Z M26.234 -51.01 H31.856 V-55.152 H26.234 V-51.01 Z"/></g><g id="Semibold-S" transform="matrix(1 0 0 1 1998.1 696)"><path d="M26.154 -0.364 Q21.529 -0.364 18.054 -3.303 Q14.58 -6.242 13.594 -10.78 H3.006 V-38.712 H48.176 V-60.572 H60.817 V-71.323 H74.659 V-60.572 H81.927 L91.674 -40.646 V-10.78 H82.901 Q81.915 -6.242 78.445 -3.303 Q74.976 -0.364 70.358 -0.364 Q65.74 -0.364 62.284 -3.303 Q58.828 -6.242 57.841 -10.78 H38.678 Q37.692 -6.247 34.236 -3.305 Q30.78 -0.364 26.154 -0.364 Z M26.148 -8.357 Q28.16 -8.357 29.522 -9.718 Q30.882 -11.079 30.882 -13.091 Q30.827 -15.103 29.482 -16.464 Q28.137 -17.825 26.148 -17.825 Q24.16 -17.825 22.815 -16.492 Q21.47 -15.159 21.414 -13.147 Q21.414 -11.111 22.775 -9.734 Q24.136 -8.357 26.148 -8.357 Z M70.371 -8.357 Q72.383 -8.357 73.744 -9.734 Q75.105 -11.111 75.105 -13.147 Q75.049 -15.159 73.704 -16.492 Q72.359 -17.825 70.371 -17.825 Q68.383 -17.825 67.038 -16.464 Q65.693 -15.103 65.637 -13.091 Q65.637 -11.079 66.998 -9.718 Q68.359 -8.357 70.371 -8.357 Z M57.842 -38.712 H81.786 L75.65 -50.907 H57.842 V-38.712 Z M3.006 -43.446 V-49.295 H8.186 V-54.723 H3.006 V-60.572 H43.442 V-54.723 H38.262 V-49.295 H43.442 V-43.446 H3.006 Z M14.035 -49.295 H20.3 V-54.723 H14.035 V-49.295 Z M26.148 -49.295 H32.413 V-54.723 H26.148 V-49.295 Z"/></g><g id="Medium-S" transform="matrix(1 0 0 1 1701.85 696)"><path d="M26.087 -1.361 Q21.683 -1.361 18.364 -4.141 Q15.045 -6.92 14.059 -11.23 H4.003 V-38.069 H47.694 V-59.608 H61.235 V-69.618 H73.919 V-59.608 H81.091 L90.677 -40.196 V-11.23 H81.389 Q80.403 -6.92 77.086 -4.141 Q73.769 -1.361 69.369 -1.361 Q64.968 -1.361 61.657 -4.141 Q58.345 -6.92 57.359 -11.23 H38.099 Q37.113 -6.922 33.802 -4.142 Q30.49 -1.361 26.087 -1.361 Z M26.084 -8.839 Q28.096 -8.839 29.457 -10.2 Q30.818 -11.561 30.818 -13.573 Q30.795 -15.585 29.44 -16.946 Q28.086 -18.307 26.084 -18.307 Q24.082 -18.307 22.728 -16.958 Q21.374 -15.609 21.35 -13.597 Q21.35 -11.575 22.711 -10.207 Q24.072 -8.839 26.084 -8.839 Z M69.374 -8.839 Q71.386 -8.839 72.747 -10.207 Q74.108 -11.575 74.108 -13.597 Q74.085 -15.609 72.73 -16.958 Q71.376 -18.307 69.374 -18.307 Q67.372 -18.307 66.018 -16.946 Q64.664 -15.585 64.64 -13.573 Q64.64 -11.561 66.001 -10.2 Q67.362 -8.839 69.374 -8.839 Z M55.88 -38.069 H82.397 L75.875 -51.422 H55.88 V-38.069 Z M4.003 -42.803 V-48.008 H8.926 V-54.402 H4.003 V-59.608 H42.96 V-54.402 H38.037 V-48.008 H42.96 V-42.803 H4.003 Z M14.131 -48.008 H20.879 V-54.402 H14.131 V-48.008 Z M26.084 -48.008 H32.831 V-54.402 H26.084 V-48.008 Z"/></g><g id="Regular-S" transform="matrix(1 0 0 1 1405.73 696)"><path d="M26.037 -2.092 Q21.796 -2.092 18.591 -4.755 Q15.386 -7.418 14.399 -11.56 H4.734 V-37.597 H47.34 V-58.9 H61.542 V-68.368 H73.377 V-58.9 H80.478 L89.946 -39.865 V-11.56 H80.281 Q79.294 -7.418 76.089 -4.755 Q72.884 -2.092 68.643 -2.092 Q64.402 -2.092 61.197 -4.755 Q57.992 -7.418 57.005 -11.56 H37.675 Q36.689 -7.418 33.483 -4.755 Q30.278 -2.092 26.037 -2.092 Z M26.037 -9.193 Q28.049 -9.193 29.41 -10.554 Q30.771 -11.915 30.771 -13.927 Q30.771 -15.939 29.41 -17.3 Q28.049 -18.661 26.037 -18.661 Q24.025 -18.661 22.664 -17.3 Q21.303 -15.939 21.303 -13.927 Q21.303 -11.915 22.664 -10.554 Q24.025 -9.193 26.037 -9.193 Z M68.643 -9.193 Q70.655 -9.193 72.016 -10.554 Q73.377 -11.915 73.377 -13.927 Q73.377 -15.939 72.016 -17.3 Q70.655 -18.661 68.643 -18.661 Q66.631 -18.661 65.27 -17.3 Q63.909 -15.939 63.909 -13.927 Q63.909 -11.915 65.27 -10.554 Q66.631 -9.193 68.643 -9.193 Z M54.441 -37.597 H82.845 L76.04 -51.799 H54.441 V-37.597 Z M4.734 -42.331 V-47.065 H9.468 V-54.166 H4.734 V-58.9 H42.606 V-54.166 H37.872 V-47.065 H42.606 V-42.331 H4.734 Z M14.202 -47.065 H21.303 V-54.166 H14.202 V-47.065 Z M26.037 -47.065 H33.138 V-54.166 H26.037 V-47.065 Z"/></g><g id="Light-S" transform="matrix(1 0 0 1 1109.75 696)"><path d="M26.028 -3.609 Q22.1 -3.609 19.122 -6.051 Q16.144 -8.493 15.158 -12.319 H6.707 V-37.597 H49.313 V-56.927 H62.528 V-65.03 H72.391 V-56.927 H79.074 L87.973 -39.524 V-12.319 H79.522 Q78.536 -8.493 75.549 -6.051 Q72.563 -3.609 68.634 -3.609 Q64.706 -3.609 61.728 -6.051 Q58.75 -8.493 57.764 -12.319 H36.916 Q35.93 -8.48 32.943 -6.045 Q29.957 -3.609 26.028 -3.609 Z M26.037 -8.738 Q28.542 -8.738 30.263 -10.459 Q31.985 -12.181 31.985 -14.667 Q31.985 -17.153 30.263 -18.893 Q28.542 -20.634 26.037 -20.634 Q23.532 -20.634 21.811 -18.893 Q20.089 -17.153 20.089 -14.667 Q20.089 -12.181 21.811 -10.459 Q23.532 -8.738 26.037 -8.738 Z M68.643 -8.738 Q71.148 -8.738 72.869 -10.459 Q74.591 -12.181 74.591 -14.667 Q74.591 -17.153 72.869 -18.893 Q71.148 -20.634 68.643 -20.634 Q66.138 -20.634 64.417 -18.893 Q62.695 -17.153 62.695 -14.667 Q62.695 -12.181 64.417 -10.459 Q66.138 -8.738 68.643 -8.738 Z M54.441 -37.597 H82.845 L76.078 -51.799 H54.441 V-37.597 Z M6.707 -42.331 V-45.851 H11.441 V-53.407 H6.707 V-56.927 H43.365 V-53.407 H38.631 V-45.851 H43.365 V-42.331 H6.707 Z M14.961 -45.851 H23.276 V-53.407 H14.961 V-45.851 Z M26.796 -45.851 H35.111 V-53.407 H26.796 V-45.851 Z"/></g><g id="Thin-S" transform="matrix(1 0 0 1 814.015 696)"><path d="M26.019 -5.127 Q22.403 -5.127 19.653 -7.347 Q16.903 -9.567 15.917 -13.077 H8.679 V-37.597 H51.285 V-54.955 H63.515 V-61.692 H71.404 V-54.955 H77.671 L86.001 -39.183 V-13.077 H78.763 Q77.777 -9.567 75.009 -7.347 Q72.241 -5.127 68.625 -5.127 Q65.009 -5.127 62.259 -7.347 Q59.509 -9.567 58.523 -13.077 H36.157 Q35.171 -9.542 32.403 -7.334 Q29.635 -5.127 26.019 -5.127 Z M26.037 -8.283 Q29.035 -8.283 31.117 -10.364 Q33.199 -12.446 33.199 -15.406 Q33.199 -18.367 31.117 -20.486 Q29.035 -22.606 26.037 -22.606 Q23.039 -22.606 20.957 -20.486 Q18.875 -18.367 18.875 -15.406 Q18.875 -12.446 20.957 -10.364 Q23.039 -8.283 26.037 -8.283 Z M68.643 -8.283 Q71.641 -8.283 73.723 -10.364 Q75.805 -12.446 75.805 -15.406 Q75.805 -18.367 73.723 -20.486 Q71.641 -22.606 68.643 -22.606 Q65.645 -22.606 63.563 -20.486 Q61.481 -18.367 61.481 -15.406 Q61.481 -12.446 63.563 -10.364 Q65.645 -8.283 68.643 -8.283 Z M54.441 -37.597 H82.845 L76.116 -51.799 H54.441 V-37.597 Z M8.679 -42.331 V-44.637 H13.413 V-52.649 H8.679 V-54.955 H44.123 V-52.649 H39.389 V-44.637 H44.123 V-42.331 H8.679 Z M15.719 -44.637 H25.248 V-52.649 H15.719 V-44.637 Z M27.554 -44.637 H37.083 V-52.649 H27.554 V-44.637 Z"/></g><g id="Ultralight-S" transform="matrix(1 0 0 1 517.792 696)"><path d="M26.014 -6.037 Q22.585 -6.037 19.972 -8.125 Q17.358 -10.212 16.372 -13.532 H9.863 V-37.597 H52.468 V-53.771 H64.106 V-59.689 H70.813 V-53.771 H76.829 L84.818 -38.978 V-13.532 H78.308 Q77.322 -10.212 74.685 -8.125 Q72.048 -6.037 68.62 -6.037 Q65.191 -6.037 62.578 -8.125 Q59.964 -10.212 58.978 -13.532 H35.702 Q34.716 -10.179 32.079 -8.108 Q29.442 -6.037 26.014 -6.037 Z M26.037 -8.009 Q29.331 -8.009 31.629 -10.307 Q33.927 -12.605 33.927 -15.85 Q33.927 -19.095 31.629 -21.442 Q29.331 -23.789 26.037 -23.789 Q22.743 -23.789 20.445 -21.442 Q18.147 -19.095 18.147 -15.85 Q18.147 -12.605 20.445 -10.307 Q22.743 -8.009 26.037 -8.009 Z M68.643 -8.009 Q71.937 -8.009 74.235 -10.307 Q76.533 -12.605 76.533 -15.85 Q76.533 -19.095 74.235 -21.442 Q71.937 -23.789 68.643 -23.789 Q65.349 -23.789 63.051 -21.442 Q60.753 -19.095 60.753 -15.85 Q60.753 -12.605 63.051 -10.307 Q65.349 -8.009 68.643 -8.009 Z M54.441 -37.597 H82.845 L76.139 -51.799 H54.441 V-37.597 Z M9.863 -42.331 V-43.909 H14.597 V-52.193 H9.863 V-53.771 H44.579 V-52.193 H39.845 V-43.909 H44.579 V-42.331 H9.863 Z M16.175 -43.909 H26.431 V-52.193 H16.175 V-43.909 Z M28.01 -43.909 H38.267 V-52.193 H28.01 V-43.909 Z"/></g></g></svg>