<svg xmlns="http://www.w3.org/2000/svg" version="1.1" width="3300" height="2000"><g id="Notes"><style>
    text {
      font-family: monospace;
      text-anchor: middle;
    }
    text.emphasis {
      font-weight:bold;
    }
    text.lanchor {
      text-anchor: start;
    }
  </style><rect height="2200" id="artboard" fill="white" width="3300" x="0" y="0"/><line id="" style="fill:none;stroke:black;stroke-width:0.5;" x1="263" x2="3036" y1="292" y2="292"/><text class="lanchor emphasis" transform="matrix(1 0 0 1 263 322)">Weight/Scale Variations</text><text transform="matrix(1 0 0 1 559.711 322)">Ultralight</text><text transform="matrix(1 0 0 1 856.422 322)">Thin</text><text transform="matrix(1 0 0 1 1153.13 322)">Light</text><text transform="matrix(1 0 0 1 1449.84 322)">Regular</text><text transform="matrix(1 0 0 1 1746.56 322)">Medium</text><text transform="matrix(1 0 0 1 2043.27 322)">Semibold</text><text transform="matrix(1 0 0 1 2339.98 322)">Bold</text><text transform="matrix(1 0 0 1 2636.69 322)">Heavy</text><text transform="matrix(1 0 0 1 2933.4 322)">Black</text><text id="template-version" style="text-anchor: end;" transform="matrix(1 0 0 1 3036 1933)">Template v.1.0</text><text class="lanchor" transform="matrix(1 0 0 1 263 726)">Small</text><text class="lanchor" transform="matrix(1 0 0 1 263 1156)">Medium</text><text class="lanchor" transform="matrix(1 0 0 1 263 1586)">Large</text></g><g id="Guides"><g id="H-reference" style="fill:#27AAE1;stroke:none;" transform="matrix(1 0 0 1 339 696)"><path d="M 54.9316 0 L 57.666 0 L 30.5664 -70.459 L 28.0762 -70.459 L 0.976562 0 L 3.66211 0 L 12.9395 -24.4629 L 45.7031 -24.4629 Z M 29.1992 -67.0898 L 29.4434 -67.0898 L 44.8242 -26.709 L 13.8184 -26.709 Z"/></g><line id="Baseline-S" style="fill:none;stroke:#27AAE1;opacity:1;stroke-width:0.577;" x1="263" x2="3036" y1="696" y2="696"/><line id="Capline-S" style="fill:none;stroke:#27AAE1;opacity:1;stroke-width:0.577;" x1="263" x2="3036" y1="625.541" y2="625.541"/><g id="H-reference" style="fill:#27AAE1;stroke:none;" transform="matrix(1 0 0 1 339 1126)"><path d="M 54.9316 0 L 57.666 0 L 30.5664 -70.459 L 28.0762 -70.459 L 0.976562 0 L 3.66211 0 L 12.9395 -24.4629 L 45.7031 -24.4629 Z M 29.1992 -67.0898 L 29.4434 -67.0898 L 44.8242 -26.709 L 13.8184 -26.709 Z"/></g><line id="Baseline-M" style="fill:none;stroke:#27AAE1;opacity:1;stroke-width:0.577;" x1="263" x2="3036" y1="1126" y2="1126"/><line id="Capline-M" style="fill:none;stroke:#27AAE1;opacity:1;stroke-width:0.577;" x1="263" x2="3036" y1="1055.54" y2="1055.54"/><g id="H-reference" style="fill:#27AAE1;stroke:none;" transform="matrix(1 0 0 1 339 1556)"><path d="M 54.9316 0 L 57.666 0 L 30.5664 -70.459 L 28.0762 -70.459 L 0.976562 0 L 3.66211 0 L 12.9395 -24.4629 L 45.7031 -24.4629 Z M 29.1992 -67.0898 L 29.4434 -67.0898 L 44.8242 -26.709 L 13.8184 -26.709 Z"/></g><line id="Baseline-L" style="fill:none;stroke:#27AAE1;opacity:1;stroke-width:0.577;" x1="263" x2="3036" y1="1556" y2="1556"/><line id="Capline-L" style="fill:none;stroke:#27AAE1;opacity:1;stroke-width:0.577;" x1="263" x2="3036" y1="1485.54" y2="1485.54"/><rect height="119.336" id="left-margin" style="fill:darkred;stroke:none;opacity:0.4;" width="12.4512" x="1394.06" y="1030.79"/><rect height="119.336" id="right-margin" style="fill:darkgreen;stroke:none;opacity:0.4;" width="12.4512" x="1502.5112" y="1030.79"/><rect x="1406.5112" y="1045" width="96" height="96" fill="none" stroke="blue" stroke-dasharray="5"/><rect x="1394.06" y="1030.79" width="120.9024" height="119.336" fill="none" stroke="blue"/></g><g id="Symbols"><g id="Bold-L" transform="matrix(1 0 0 1 2266 1556)"><path d="M65.468 -72.317 H89.494 V-80.541 H65.468 V-72.317 Z M42.731 28.141 V9.275 Q26.445 8.308 15.399 -3.403 Q4.354 -15.114 4.354 -31.36 Q4.354 -48.412 16.259 -60.365 Q28.165 -72.317 45.15 -72.317 H49.181 V-96.989 H105.78 V-72.317 H109.65 Q126.702 -72.317 138.655 -60.365 Q150.608 -48.412 150.608 -31.36 Q150.608 -15.114 139.481 -3.403 Q128.355 8.308 112.23 9.275 V28.141 H97.556 V9.436 H57.405 V28.141 H42.731 Z"/></g><g id="Semibold-L" transform="matrix(1 0 0 1 1970.27 1556)"><path d="M64.837 -73.509 H90.125 V-81.382 H64.837 V-73.509 Z M43.362 26.949 V7.172 Q27.076 6.485 15.96 -5.147 Q4.844 -16.779 4.844 -33.042 Q4.844 -49.937 16.584 -61.723 Q28.323 -73.509 45.15 -73.509 H49.812 V-96.498 H105.149 V-73.509 H109.65 Q126.544 -73.509 138.331 -61.723 Q150.117 -49.937 150.117 -33.042 Q150.117 -16.779 138.92 -5.147 Q127.724 6.485 111.599 7.172 V26.949 H98.187 V7.263 H56.774 V26.949 H43.362 Z"/></g><g id="Medium-L" transform="matrix(1 0 0 1 1674.31 1556)"><path d="M64.363 -74.403 H90.598 V-82.013 H64.363 V-74.403 Z M43.835 26.055 V5.594 Q27.549 5.118 16.381 -6.455 Q5.213 -18.028 5.213 -34.305 Q5.213 -51.081 16.827 -62.742 Q28.441 -74.403 45.15 -74.403 H50.285 V-96.13 H104.676 V-74.403 H109.65 Q126.426 -74.403 138.087 -62.742 Q149.749 -51.081 149.749 -34.305 Q149.749 -18.028 138.5 -6.455 Q127.251 5.118 111.126 5.594 V26.055 H98.66 V5.633 H56.301 V26.055 H43.835 Z"/></g><g id="Regular-L" transform="matrix(1 0 0 1 1378.56 1556)"><path d="M64.016 -75.059 H90.945 V-82.476 H64.016 V-75.059 Z M44.183 25.4 V4.438 Q27.896 4.115 16.689 -7.414 Q5.482 -18.944 5.482 -35.23 Q5.482 -51.919 17.005 -63.489 Q28.528 -75.059 45.15 -75.059 H50.633 V-95.86 H104.329 V-75.059 H109.65 Q126.339 -75.059 137.909 -63.489 Q149.479 -51.919 149.479 -35.23 Q149.479 -18.944 138.191 -7.414 Q126.904 4.115 110.779 4.438 V25.4 H99.008 V4.438 H55.954 V25.4 H44.183 Z"/></g><g id="Light-L" transform="matrix(1 0 0 1 1082.77 1556)"><path d="M62.838 -71.834 H92.123 V-79.437 H62.838 V-71.834 Z M44.183 18.95 V1.212 Q29.261 0.89 18.984 -9.695 Q8.708 -20.279 8.708 -35.215 Q8.708 -50.555 19.29 -61.194 Q29.872 -71.834 45.15 -71.834 H52.245 V-90.03 H102.716 V-71.834 H109.65 Q124.996 -71.834 135.624 -61.209 Q146.254 -50.584 146.254 -35.245 Q146.254 -20.308 135.907 -9.709 Q125.56 0.89 110.779 1.212 V18.95 H101.364 V1.212 H53.597 V18.95 H44.183 Z"/></g><g id="Thin-L" transform="matrix(1 0 0 1 787.282 1556)"><path d="M61.66 -68.609 H93.302 V-76.398 H61.66 V-68.609 Z M44.183 12.5 V-2.012 Q30.625 -2.335 21.279 -11.975 Q11.933 -21.614 11.933 -35.201 Q11.933 -49.191 21.574 -58.9 Q31.215 -68.609 45.15 -68.609 H53.858 V-84.2 H101.104 V-68.609 H109.65 Q123.652 -68.609 133.34 -58.929 Q143.029 -49.249 143.029 -35.259 Q143.029 -21.673 133.623 -12.004 Q124.216 -2.335 110.779 -2.012 V12.5 H103.721 V-2.012 H51.24 V12.5 H44.183 Z"/></g><g id="Ultralight-L" transform="matrix(1 0 0 1 491.205 1556)"><path d="M60.953 -66.674 H94.009 V-74.575 H60.953 V-66.674 Z M44.183 8.63 V-3.947 Q31.444 -4.27 22.656 -13.343 Q13.867 -22.415 13.867 -35.192 Q13.867 -48.372 22.945 -57.523 Q32.022 -66.674 45.15 -66.674 H54.825 V-80.702 H100.136 V-66.674 H109.65 Q122.846 -66.674 131.97 -57.561 Q141.094 -48.448 141.094 -35.268 Q141.094 -22.491 132.252 -13.381 Q123.41 -4.27 110.779 -3.947 V8.63 H105.135 V-3.947 H49.826 V8.63 H44.183 Z"/></g><g id="Bold-M" transform="matrix(1 0 0 1 2281.8 1126)"><path d="M53.5 -64.355 H66.5 V-68.98 H53.5 V-64.355 Z M31.5 17.52 V1.77 Q18.875 0.395 10.375 -8.98 Q1.875 -18.355 1.875 -31.23 Q1.875 -45.022 11.542 -54.688 Q21.208 -64.355 35 -64.355 H36.5 V-85.98 H83.5 V-64.355 H85 Q98.792 -64.355 108.458 -54.688 Q118.125 -45.022 118.125 -31.23 Q118.125 -18.355 109.625 -8.98 Q101.125 0.395 88.5 1.77 V17.52 H71.5 V1.895 H48.5 V17.52 H31.5 Z"/></g><g id="Semibold-M" transform="matrix(1 0 0 1 1985.97 1126)"><path d="M52.685 -65.442 H67.315 V-69.795 H52.685 V-65.442 Z M32.315 15.944 V-0.567 Q19.69 -1.616 11.109 -10.882 Q2.527 -20.148 2.527 -32.969 Q2.527 -46.525 11.986 -55.983 Q21.444 -65.442 35 -65.442 H37.315 V-85.165 H82.685 V-65.442 H85 Q98.556 -65.442 108.014 -55.983 Q117.473 -46.525 117.473 -32.969 Q117.473 -20.148 108.891 -10.882 Q100.31 -1.616 87.685 -0.567 V15.944 H72.315 V-0.496 H47.685 V15.944 H32.315 Z"/></g><g id="Medium-M" transform="matrix(1 0 0 1 1689.91 1126)"><path d="M52.073 -66.257 H67.927 V-70.407 H52.073 V-66.257 Z M32.927 14.762 V-2.32 Q20.302 -3.124 11.659 -12.309 Q3.016 -21.494 3.016 -34.273 Q3.016 -47.653 12.318 -56.955 Q21.62 -66.257 35 -66.257 H37.927 V-84.553 H82.073 V-66.257 H85 Q98.379 -66.257 107.682 -56.955 Q116.984 -47.653 116.984 -34.273 Q116.984 -21.494 108.341 -12.309 Q99.698 -3.124 87.073 -2.32 V14.762 H72.927 V-2.29 H47.073 V14.762 H32.927 Z"/></g><g id="Regular-M" transform="matrix(1 0 0 1 1394.06 1126)"><path d="M51.625 -66.855 H68.375 V-70.855 H51.625 V-66.855 Z M33.375 13.895 V-3.605 Q20.75 -4.23 12.062 -13.355 Q3.375 -22.48 3.375 -35.23 Q3.375 -48.48 12.562 -57.667 Q21.75 -66.855 35 -66.855 H38.375 V-84.105 H81.625 V-66.855 H85 Q98.25 -66.855 107.438 -57.667 Q116.625 -48.48 116.625 -35.23 Q116.625 -22.48 107.938 -13.355 Q99.25 -4.23 86.625 -3.605 V13.895 H73.375 V-3.605 H46.625 V13.895 H33.375 Z"/></g><g id="Light-M" transform="matrix(1 0 0 1 1098.18 1126)"><path d="M50.375 -64.355 H69.625 V-68.836 H50.375 V-64.355 Z M33.375 8.895 V-6.105 Q21.808 -6.73 13.841 -15.123 Q5.875 -23.515 5.875 -35.219 Q5.875 -47.422 14.334 -55.888 Q22.792 -64.355 35 -64.355 H39.625 V-79.585 H80.375 V-64.355 H85 Q97.208 -64.355 105.666 -55.9 Q114.125 -47.445 114.125 -35.241 Q114.125 -23.538 106.166 -15.134 Q98.208 -6.73 86.625 -6.105 V8.895 H75.875 V-6.105 H44.125 V8.895 H33.375 Z"/></g><g id="Thin-M" transform="matrix(1 0 0 1 802.565 1126)"><path d="M49.125 -61.855 H70.875 V-66.817 H49.125 V-61.855 Z M33.375 3.895 V-8.605 Q22.865 -9.23 15.62 -16.89 Q8.375 -24.55 8.375 -35.207 Q8.375 -46.365 16.104 -54.11 Q23.833 -61.855 35 -61.855 H40.875 V-75.067 H79.125 V-61.855 H85 Q96.167 -61.855 103.896 -54.132 Q111.625 -46.41 111.625 -35.253 Q111.625 -24.595 104.396 -16.913 Q97.167 -9.23 86.625 -8.605 V3.895 H78.375 V-8.605 H41.625 V3.895 H33.375 Z"/></g><g id="Ultralight-M" transform="matrix(1 0 0 1 506.415 1126)"><path d="M48.375 -60.355 H71.625 V-65.605 H48.375 V-60.355 Z M33.375 0.895 V-10.105 Q23.5 -10.73 16.688 -17.951 Q9.875 -25.171 9.875 -35.201 Q9.875 -45.73 17.167 -53.042 Q24.458 -60.355 35 -60.355 H41.625 V-72.355 H78.375 V-60.355 H85 Q95.542 -60.355 102.833 -53.072 Q110.125 -45.789 110.125 -35.259 Q110.125 -25.23 103.333 -17.98 Q96.542 -10.73 86.625 -10.105 V0.895 H79.875 V-10.105 H40.125 V0.895 H33.375 Z"/></g><g id="Bold-S" transform="matrix(1 0 0 1 2294.23 696)"><path d="M43.001 -55.843 H51.68 V-60.281 H43.001 V-55.843 Z M25.643 6.39 V-3.67 Q15.681 -4.755 8.975 -12.152 Q2.268 -19.549 2.268 -29.707 Q2.268 -40.589 9.895 -48.216 Q17.522 -55.843 28.404 -55.843 H30.377 V-72.905 H64.303 V-55.843 H66.276 Q77.158 -55.843 84.785 -48.216 Q92.412 -40.589 92.412 -29.707 Q92.412 -19.549 85.705 -12.152 Q78.999 -4.755 69.038 -3.67 V6.39 H56.413 V-3.571 H38.267 V6.39 H25.643 Z"/></g><g id="Semibold-S" transform="matrix(1 0 0 1 1998.1 696)"><path d="M42.357 -56.7 H52.323 V-60.924 H42.357 V-56.7 Z M26.286 5.146 V-5.514 Q16.325 -6.341 9.554 -13.652 Q2.783 -20.964 2.783 -31.079 Q2.783 -41.775 10.246 -49.238 Q17.708 -56.7 28.404 -56.7 H31.02 V-72.262 H63.66 V-56.7 H66.276 Q76.972 -56.7 84.434 -49.238 Q91.897 -41.775 91.897 -31.079 Q91.897 -20.964 85.126 -13.652 Q78.355 -6.341 68.394 -5.514 V5.146 H57.057 V-5.458 H37.623 V5.146 H26.286 Z"/></g><g id="Medium-S" transform="matrix(1 0 0 1 1701.85 696)"><path d="M41.875 -57.343 H52.805 V-61.406 H41.875 V-57.343 Z M26.768 4.214 V-6.897 Q16.807 -7.531 9.988 -14.778 Q3.169 -22.025 3.169 -32.108 Q3.169 -42.665 10.508 -50.004 Q17.848 -57.343 28.404 -57.343 H31.502 V-71.779 H63.178 V-57.343 H66.276 Q76.832 -57.343 84.172 -50.004 Q91.511 -42.665 91.511 -32.108 Q91.511 -22.025 84.692 -14.778 Q77.873 -7.531 67.912 -6.897 V4.214 H57.539 V-6.873 H37.141 V4.214 H26.768 Z"/></g><g id="Regular-S" transform="matrix(1 0 0 1 1405.73 696)"><path d="M41.521 -57.815 H53.159 V-61.76 H41.521 V-57.815 Z M27.122 3.53 V-7.911 Q17.161 -8.404 10.306 -15.604 Q3.452 -22.803 3.452 -32.863 Q3.452 -43.317 10.701 -50.566 Q17.95 -57.815 28.404 -57.815 H31.856 V-71.425 H62.824 V-57.815 H66.276 Q76.73 -57.815 83.979 -50.566 Q91.228 -43.317 91.228 -32.863 Q91.228 -22.803 84.374 -15.604 Q77.519 -8.404 67.558 -7.911 V3.53 H57.893 V-7.911 H36.787 V3.53 H27.122 Z"/></g><g id="Light-S" transform="matrix(1 0 0 1 1109.75 696)"><path d="M40.535 -55.843 H54.145 V-60.167 H40.535 V-55.843 Z M27.122 -0.416 V-9.883 Q17.995 -10.377 11.71 -16.998 Q5.425 -23.62 5.425 -32.854 Q5.425 -42.483 12.098 -49.163 Q18.772 -55.843 28.404 -55.843 H32.842 V-67.859 H61.838 V-55.843 H66.276 Q75.908 -55.843 82.582 -49.172 Q89.256 -42.501 89.256 -32.872 Q89.256 -23.638 82.976 -17.007 Q76.697 -10.377 67.558 -9.883 V-0.416 H59.865 V-9.883 H34.815 V-0.416 H27.122 Z"/></g><g id="Thin-S" transform="matrix(1 0 0 1 814.015 696)"><path d="M39.549 -53.87 H55.131 V-58.574 H39.549 V-53.87 Z M27.122 -4.36 V-11.856 Q18.83 -12.349 13.113 -18.393 Q7.397 -24.437 7.397 -32.845 Q7.397 -41.648 13.495 -47.759 Q19.594 -53.87 28.404 -53.87 H33.828 V-64.294 H60.852 V-53.87 H66.276 Q75.086 -53.87 81.185 -47.777 Q87.283 -41.684 87.283 -32.881 Q87.283 -24.472 81.579 -18.411 Q75.875 -12.349 67.558 -11.856 V-4.36 H61.838 V-11.856 H32.842 V-4.36 H27.122 Z"/></g><g id="Ultralight-S" transform="matrix(1 0 0 1 517.792 696)"><path d="M38.957 -52.687 H55.723 V-57.618 H38.957 V-52.687 Z M27.122 -6.727 V-13.039 Q19.331 -13.532 13.955 -19.23 Q8.58 -24.927 8.58 -32.84 Q8.58 -41.147 14.333 -46.917 Q20.087 -52.687 28.404 -52.687 H34.42 V-62.155 H60.26 V-52.687 H66.276 Q74.593 -52.687 80.347 -46.94 Q86.1 -41.194 86.1 -32.886 Q86.1 -24.973 80.741 -19.253 Q75.382 -13.532 67.558 -13.039 V-6.727 H63.021 V-13.039 H31.659 V-6.727 H27.122 Z"/></g></g></svg>