<svg xmlns="http://www.w3.org/2000/svg" version="1.1" width="3300" height="2000"><g id="Notes"><style>
    text {
      font-family: monospace;
      text-anchor: middle;
    }
    text.emphasis {
      font-weight:bold;
    }
    text.lanchor {
      text-anchor: start;
    }
  </style><rect height="2200" id="artboard" fill="white" width="3300" x="0" y="0"/><line id="" style="fill:none;stroke:black;stroke-width:0.5;" x1="263" x2="3036" y1="292" y2="292"/><text class="lanchor emphasis" transform="matrix(1 0 0 1 263 322)">Weight/Scale Variations</text><text transform="matrix(1 0 0 1 559.711 322)">Ultralight</text><text transform="matrix(1 0 0 1 856.422 322)">Thin</text><text transform="matrix(1 0 0 1 1153.13 322)">Light</text><text transform="matrix(1 0 0 1 1449.84 322)">Regular</text><text transform="matrix(1 0 0 1 1746.56 322)">Medium</text><text transform="matrix(1 0 0 1 2043.27 322)">Semibold</text><text transform="matrix(1 0 0 1 2339.98 322)">Bold</text><text transform="matrix(1 0 0 1 2636.69 322)">Heavy</text><text transform="matrix(1 0 0 1 2933.4 322)">Black</text><text id="template-version" style="text-anchor: end;" transform="matrix(1 0 0 1 3036 1933)">Template v.1.0</text><text class="lanchor" transform="matrix(1 0 0 1 263 726)">Small</text><text class="lanchor" transform="matrix(1 0 0 1 263 1156)">Medium</text><text class="lanchor" transform="matrix(1 0 0 1 263 1586)">Large</text></g><g id="Guides"><g id="H-reference" style="fill:#27AAE1;stroke:none;" transform="matrix(1 0 0 1 339 696)"><path d="M 54.9316 0 L 57.666 0 L 30.5664 -70.459 L 28.0762 -70.459 L 0.976562 0 L 3.66211 0 L 12.9395 -24.4629 L 45.7031 -24.4629 Z M 29.1992 -67.0898 L 29.4434 -67.0898 L 44.8242 -26.709 L 13.8184 -26.709 Z"/></g><line id="Baseline-S" style="fill:none;stroke:#27AAE1;opacity:1;stroke-width:0.577;" x1="263" x2="3036" y1="696" y2="696"/><line id="Capline-S" style="fill:none;stroke:#27AAE1;opacity:1;stroke-width:0.577;" x1="263" x2="3036" y1="625.541" y2="625.541"/><g id="H-reference" style="fill:#27AAE1;stroke:none;" transform="matrix(1 0 0 1 339 1126)"><path d="M 54.9316 0 L 57.666 0 L 30.5664 -70.459 L 28.0762 -70.459 L 0.976562 0 L 3.66211 0 L 12.9395 -24.4629 L 45.7031 -24.4629 Z M 29.1992 -67.0898 L 29.4434 -67.0898 L 44.8242 -26.709 L 13.8184 -26.709 Z"/></g><line id="Baseline-M" style="fill:none;stroke:#27AAE1;opacity:1;stroke-width:0.577;" x1="263" x2="3036" y1="1126" y2="1126"/><line id="Capline-M" style="fill:none;stroke:#27AAE1;opacity:1;stroke-width:0.577;" x1="263" x2="3036" y1="1055.54" y2="1055.54"/><g id="H-reference" style="fill:#27AAE1;stroke:none;" transform="matrix(1 0 0 1 339 1556)"><path d="M 54.9316 0 L 57.666 0 L 30.5664 -70.459 L 28.0762 -70.459 L 0.976562 0 L 3.66211 0 L 12.9395 -24.4629 L 45.7031 -24.4629 Z M 29.1992 -67.0898 L 29.4434 -67.0898 L 44.8242 -26.709 L 13.8184 -26.709 Z"/></g><line id="Baseline-L" style="fill:none;stroke:#27AAE1;opacity:1;stroke-width:0.577;" x1="263" x2="3036" y1="1556" y2="1556"/><line id="Capline-L" style="fill:none;stroke:#27AAE1;opacity:1;stroke-width:0.577;" x1="263" x2="3036" y1="1485.54" y2="1485.54"/><rect height="119.336" id="left-margin" style="fill:darkred;stroke:none;opacity:0.4;" width="12.4512" x="1394.06" y="1030.79"/><rect height="119.336" id="right-margin" style="fill:darkgreen;stroke:none;opacity:0.4;" width="12.4512" x="1502.5112" y="1030.79"/><rect x="1406.5112" y="1045" width="96" height="96" fill="none" stroke="blue" stroke-dasharray="5"/><rect x="1394.06" y="1030.79" width="120.9024" height="119.336" fill="none" stroke="blue"/></g><g id="Symbols"><g id="Bold-L" transform="matrix(1 0 0 1 2266 1556)"><path d="M53.212 27.013 Q50.514 27.013 48.961 25.239 Q47.407 23.465 47.407 21.208 Q47.407 20.079 47.73 19.111 Q48.053 18.144 49.181 17.176 L71.918 -5.721 Q73.207 -6.85 74.578 -7.414 Q75.949 -7.979 77.481 -7.979 Q78.851 -7.979 80.303 -7.414 Q81.754 -6.85 82.883 -5.721 L105.78 17.176 Q106.73 18.129 107.061 19.144 Q107.392 20.159 107.392 21.273 Q107.392 23.465 105.861 25.239 Q104.329 27.013 101.749 27.013 H53.212 Z M24.026 -97.472 H130.774 Q137.183 -97.472 141.638 -93.018 Q146.093 -88.563 146.093 -82.154 V-1.206 Q146.093 4.276 142.444 8.066 Q138.796 11.855 133.676 11.855 H117.713 Q115.383 11.855 113.404 10.968 Q111.424 10.081 109.762 8.42 L93.498 -7.844 Q90.3 -11.042 86.027 -12.897 Q81.754 -14.751 77.239 -14.751 Q72.724 -14.751 68.432 -12.925 Q64.139 -11.099 60.94 -7.891 L44.666 8.469 Q43.054 10.081 41.045 10.968 Q39.037 11.855 36.926 11.855 H21.124 Q16.004 11.855 12.436 8.066 Q8.869 4.276 8.869 -1.206 V-82.154 Q8.869 -88.563 13.243 -93.018 Q17.617 -97.472 24.026 -97.472 Z"/></g><g id="Semibold-L" transform="matrix(1 0 0 1 1970.27 1556)"><path d="M53.072 25.26 Q50.795 25.26 49.487 23.767 Q48.179 22.273 48.179 20.366 Q48.179 19.378 48.466 18.585 Q48.754 17.793 49.672 16.966 L72.829 -6.282 Q73.909 -7.271 75.069 -7.73 Q76.229 -8.189 77.481 -8.189 Q78.641 -8.189 79.812 -7.73 Q80.983 -7.271 81.971 -6.282 L105.219 16.966 Q106.028 17.778 106.325 18.653 Q106.621 19.528 106.621 20.432 Q106.621 22.273 105.335 23.732 Q104.048 25.19 101.819 25.26 H53.072 Z M23.395 -95.65 H131.405 Q136.763 -95.65 140.516 -91.896 Q144.27 -88.143 144.27 -82.785 V-0.575 Q144.27 4.346 140.972 7.715 Q137.674 11.084 133.045 11.084 H116.731 Q114.542 11.084 112.632 10.232 Q110.723 9.38 109.201 7.859 L90.905 -10.438 Q88.197 -13.146 84.625 -14.684 Q81.053 -16.223 77.239 -16.223 Q73.425 -16.223 69.834 -14.713 Q66.243 -13.202 63.534 -10.485 L45.227 7.908 Q43.755 9.38 41.816 10.232 Q39.878 11.084 37.838 11.084 H21.755 Q17.126 11.084 13.873 7.715 Q10.621 4.346 10.621 -0.575 V-82.785 Q10.621 -88.143 14.329 -91.896 Q18.037 -95.65 23.395 -95.65 Z"/></g><g id="Medium-L" transform="matrix(1 0 0 1 1674.31 1556)"><path d="M52.967 23.945 Q51.005 23.945 49.881 22.662 Q48.757 21.379 48.757 19.735 Q48.757 18.852 49.018 18.191 Q49.279 17.53 50.04 16.808 L73.512 -6.703 Q74.434 -7.586 75.437 -7.966 Q76.439 -8.347 77.481 -8.347 Q78.483 -8.347 79.444 -7.966 Q80.404 -7.586 81.288 -6.703 L104.798 16.808 Q105.503 17.515 105.773 18.285 Q106.043 19.055 106.043 19.801 Q106.043 21.379 104.941 22.601 Q103.838 23.823 101.871 23.945 H52.967 Z M22.922 -94.283 H131.878 Q136.447 -94.283 139.675 -91.055 Q142.903 -87.827 142.903 -83.258 V-0.102 Q142.903 4.399 139.868 7.452 Q136.833 10.505 132.572 10.505 H115.995 Q113.911 10.505 112.054 9.68 Q110.197 8.854 108.781 7.438 L88.959 -12.384 Q86.619 -14.723 83.573 -16.025 Q80.527 -17.328 77.239 -17.328 Q73.951 -17.328 70.885 -16.054 Q67.82 -14.779 65.48 -12.43 L45.648 7.487 Q44.281 8.854 42.395 9.68 Q40.509 10.505 38.521 10.505 H22.228 Q17.967 10.505 14.952 7.452 Q11.936 4.399 11.936 -0.102 V-83.258 Q11.936 -87.827 15.144 -91.055 Q18.353 -94.283 22.922 -94.283 Z"/></g><g id="Regular-L" transform="matrix(1 0 0 1 1378.56 1556)"><path d="M52.89 22.981 Q51.159 22.981 50.17 21.853 Q49.181 20.724 49.181 19.273 Q49.181 18.466 49.423 17.902 Q49.665 17.338 50.31 16.693 L74.014 -7.011 Q74.82 -7.817 75.707 -8.14 Q76.594 -8.462 77.481 -8.462 Q78.368 -8.462 79.174 -8.14 Q79.98 -7.817 80.786 -7.011 L104.49 16.693 Q105.117 17.322 105.368 18.015 Q105.619 18.708 105.619 19.338 Q105.619 20.724 104.651 21.772 Q103.684 22.82 101.91 22.981 H52.89 Z M22.575 -93.28 H132.225 Q136.216 -93.28 139.058 -90.438 Q141.9 -87.596 141.9 -83.605 V0.245 Q141.9 4.438 139.058 7.259 Q136.216 10.081 132.225 10.081 H115.455 Q113.448 10.081 111.63 9.275 Q109.811 8.469 108.472 7.13 L87.532 -13.81 Q85.463 -15.88 82.802 -17.009 Q80.141 -18.137 77.239 -18.137 Q74.336 -18.137 71.657 -17.037 Q68.977 -15.936 66.906 -13.857 L45.956 7.179 Q44.666 8.469 42.819 9.275 Q40.972 10.081 39.023 10.081 H22.575 Q18.584 10.081 15.742 7.259 Q12.9 4.438 12.9 0.245 V-83.605 Q12.9 -87.596 15.742 -90.438 Q18.584 -93.28 22.575 -93.28 Z"/></g><g id="Light-L" transform="matrix(1 0 0 1 1082.77 1556)"><path d="M55.681 19.694 Q54.029 19.694 53.063 18.61 Q52.096 17.525 52.096 16.109 Q52.096 15.454 52.342 14.863 Q52.587 14.272 53.163 13.715 L74.138 -7.259 Q74.882 -8.004 75.738 -8.326 Q76.594 -8.649 77.512 -8.649 Q78.368 -8.649 79.143 -8.326 Q79.918 -8.004 80.662 -7.259 L101.637 13.715 Q102.195 14.258 102.449 14.948 Q102.704 15.638 102.704 16.181 Q102.704 17.499 101.759 18.547 Q100.814 19.595 99.119 19.694 H55.681 Z M25.428 -90.055 H129.372 Q133.161 -90.055 135.918 -87.298 Q138.675 -84.541 138.675 -80.752 V-2.608 Q138.675 1.383 135.918 4.088 Q133.161 6.794 129.372 6.794 H115.083 Q113.111 6.794 111.368 6.019 Q109.625 5.244 108.348 3.966 L87.16 -17.222 Q85.228 -19.174 82.657 -20.269 Q80.086 -21.363 77.304 -21.363 Q74.46 -21.363 71.868 -20.297 Q69.276 -19.23 67.34 -17.268 L46.204 4.016 Q44.914 5.244 43.174 6.019 Q41.434 6.794 39.519 6.794 H25.428 Q21.639 6.794 18.882 4.088 Q16.125 1.383 16.125 -2.608 V-80.752 Q16.125 -84.541 18.882 -87.298 Q21.639 -90.055 25.428 -90.055 Z"/></g><g id="Thin-L" transform="matrix(1 0 0 1 787.282 1556)"><path d="M58.472 16.407 Q56.898 16.407 55.955 15.367 Q55.011 14.328 55.011 12.947 Q55.011 12.442 55.26 11.824 Q55.509 11.206 56.016 10.739 L74.262 -7.507 Q74.944 -8.19 75.769 -8.512 Q76.594 -8.835 77.543 -8.835 Q78.368 -8.835 79.112 -8.512 Q79.856 -8.19 80.538 -7.507 L98.784 10.739 Q99.274 11.194 99.531 11.881 Q99.789 12.568 99.789 13.024 Q99.789 14.274 98.867 15.322 Q97.945 16.37 96.328 16.407 H58.472 Z M28.281 -86.83 H126.519 Q130.107 -86.83 132.779 -84.159 Q135.45 -81.487 135.45 -77.899 V-5.461 Q135.45 -1.671 132.779 0.918 Q130.107 3.507 126.519 3.507 H114.711 Q112.773 3.507 111.106 2.763 Q109.439 2.019 108.224 0.804 L86.788 -20.632 Q84.992 -22.468 82.512 -23.528 Q80.031 -24.587 77.37 -24.587 Q74.584 -24.587 72.08 -23.556 Q69.575 -22.524 67.775 -20.679 L46.452 0.853 Q45.162 2.019 43.529 2.763 Q41.895 3.507 40.015 3.507 H28.281 Q24.693 3.507 22.021 0.918 Q19.35 -1.671 19.35 -5.461 V-77.899 Q19.35 -81.487 22.021 -84.159 Q24.693 -86.83 28.281 -86.83 Z"/></g><g id="Ultralight-L" transform="matrix(1 0 0 1 491.205 1556)"><path d="M60.146 14.435 Q58.62 14.435 57.69 13.422 Q56.76 12.409 56.76 11.049 Q56.76 10.634 57.011 10.001 Q57.262 9.367 57.727 8.953 L74.336 -7.656 Q74.981 -8.301 75.788 -8.624 Q76.594 -8.946 77.561 -8.946 Q78.368 -8.946 79.093 -8.624 Q79.819 -8.301 80.464 -7.656 L97.073 8.953 Q97.52 9.356 97.78 10.041 Q98.04 10.726 98.04 11.129 Q98.04 12.339 97.132 13.387 Q96.223 14.435 94.654 14.435 H60.146 Z M29.992 -84.895 H124.808 Q128.274 -84.895 130.895 -82.275 Q133.515 -79.654 133.515 -76.187 V-7.172 Q133.515 -3.504 130.895 -0.985 Q128.274 1.535 124.808 1.535 H114.487 Q112.57 1.535 110.949 0.809 Q109.328 0.084 108.15 -1.094 L86.565 -22.679 Q84.852 -24.445 82.425 -25.484 Q79.998 -26.522 77.409 -26.522 Q74.659 -26.522 72.206 -25.512 Q69.754 -24.501 68.035 -22.726 L46.601 -1.045 Q45.311 0.084 43.742 0.809 Q42.172 1.535 40.312 1.535 H29.992 Q26.526 1.535 23.905 -0.985 Q21.285 -3.504 21.285 -7.172 V-76.187 Q21.285 -79.654 23.905 -82.275 Q26.526 -84.895 29.992 -84.895 Z"/></g><g id="Bold-M" transform="matrix(1 0 0 1 2281.8 1126)"><path d="M39.25 14.02 Q36.625 14.02 35 12.145 Q33.375 10.27 33.375 8.02 Q33.375 6.895 33.75 5.895 Q34.125 4.895 35.125 3.895 L54.375 -15.355 Q55.625 -16.605 57.062 -17.167 Q58.5 -17.73 60 -17.73 Q61.5 -17.73 63 -17.167 Q64.5 -16.605 65.625 -15.355 L84.875 3.895 Q85.875 4.895 86.25 5.895 Q86.625 6.895 86.625 8.02 Q86.625 10.27 85 12.145 Q83.375 14.02 80.75 14.02 H39.25 Z M21.5 -84.48 H98.5 Q105.125 -84.48 109.688 -79.917 Q114.25 -75.355 114.25 -68.73 V-11.73 Q114.25 -6.23 110.562 -2.292 Q106.875 1.645 101.5 1.645 Q99.25 1.645 97.188 0.77 Q95.125 -0.105 93.5 -1.73 L76.75 -18.48 Q73.375 -21.855 69.062 -23.667 Q64.75 -25.48 60 -25.48 Q55.25 -25.48 50.938 -23.667 Q46.625 -21.855 43.25 -18.48 L26.5 -1.73 Q24.875 -0.105 22.812 0.77 Q20.75 1.645 18.5 1.645 Q13.125 1.645 9.438 -2.292 Q5.75 -6.23 5.75 -11.73 V-68.73 Q5.75 -75.355 10.312 -79.917 Q14.875 -84.48 21.5 -84.48 Z"/></g><g id="Semibold-M" transform="matrix(1 0 0 1 1985.97 1126)"><path d="M39.141 12.172 Q36.897 12.172 35.544 10.596 Q34.19 9.02 34.19 7.151 Q34.19 6.243 34.511 5.379 Q34.831 4.515 35.669 3.678 L55.299 -15.953 Q56.331 -16.985 57.524 -17.466 Q58.717 -17.947 60 -17.947 Q61.283 -17.947 62.511 -17.466 Q63.739 -16.985 64.701 -15.953 L84.332 3.678 Q85.168 4.515 85.489 5.379 Q85.81 6.243 85.81 7.151 Q85.81 9.02 84.457 10.596 Q83.103 12.172 80.859 12.172 H39.141 Z M20.848 -82.632 H99.152 Q104.69 -82.632 108.546 -78.776 Q112.402 -74.92 112.402 -69.382 V-11.078 Q112.402 -6.176 109.041 -2.673 Q105.679 0.83 100.848 0.83 H100.468 Q98.326 0.83 96.372 0.009 Q94.418 -0.811 92.902 -2.328 L74.087 -21.143 Q71.256 -23.974 67.622 -25.488 Q63.989 -27.002 60 -27.002 Q56.011 -27.002 52.378 -25.488 Q48.744 -23.974 45.913 -21.143 L27.098 -2.328 Q25.581 -0.811 23.628 0.009 Q21.674 0.83 19.532 0.83 H19.152 Q14.321 0.83 10.959 -2.673 Q7.598 -6.176 7.598 -11.078 V-69.382 Q7.598 -74.92 11.454 -78.776 Q15.31 -82.632 20.848 -82.632 Z"/></g><g id="Medium-M" transform="matrix(1 0 0 1 1689.91 1126)"><path d="M39.06 10.786 Q37.1 10.786 35.951 9.434 Q34.802 8.083 34.802 6.498 Q34.802 5.754 35.081 4.992 Q35.361 4.229 36.076 3.515 L55.992 -16.401 Q56.861 -17.271 57.871 -17.691 Q58.88 -18.11 60 -18.11 Q61.12 -18.11 62.144 -17.691 Q63.169 -17.271 64.008 -16.401 L83.924 3.515 Q84.639 4.229 84.918 4.992 Q85.198 5.754 85.198 6.498 Q85.198 8.083 84.049 9.434 Q82.9 10.786 80.94 10.786 H39.06 Z M20.359 -81.246 H99.641 Q104.364 -81.246 107.69 -77.92 Q111.016 -74.594 111.016 -69.871 V-10.589 Q111.016 -6.135 107.9 -2.958 Q104.783 0.218 100.359 0.218 H99.693 Q97.633 0.218 95.761 -0.561 Q93.889 -1.341 92.454 -2.776 L72.09 -23.14 Q69.666 -25.564 66.542 -26.854 Q63.419 -28.143 60 -28.143 Q56.581 -28.143 53.458 -26.854 Q50.334 -25.564 47.91 -23.14 L27.546 -2.776 Q26.111 -1.341 24.239 -0.561 Q22.367 0.218 20.307 0.218 H19.641 Q15.217 0.218 12.101 -2.958 Q8.984 -6.135 8.984 -10.589 V-69.871 Q8.984 -74.594 12.31 -77.92 Q15.636 -81.246 20.359 -81.246 Z"/></g><g id="Regular-M" transform="matrix(1 0 0 1 1394.06 1126)"><path d="M39 9.77 Q37.25 9.77 36.25 8.583 Q35.25 7.395 35.25 6.02 Q35.25 5.395 35.5 4.708 Q35.75 4.02 36.375 3.395 L56.5 -16.73 Q57.25 -17.48 58.125 -17.855 Q59 -18.23 60 -18.23 Q61 -18.23 61.875 -17.855 Q62.75 -17.48 63.5 -16.73 L83.625 3.395 Q84.25 4.02 84.5 4.708 Q84.75 5.395 84.75 6.02 Q84.75 7.395 83.75 8.583 Q82.75 9.77 81 9.77 H39 Z M20 -80.23 H100 Q104.125 -80.23 107.062 -77.292 Q110 -74.355 110 -70.23 V-10.23 Q110 -6.105 107.062 -3.167 Q104.125 -0.23 100 -0.23 H99.125 Q97.125 -0.23 95.312 -0.98 Q93.5 -1.73 92.125 -3.105 L70.625 -24.605 Q68.5 -26.73 65.75 -27.855 Q63 -28.98 60 -28.98 Q57 -28.98 54.25 -27.855 Q51.5 -26.73 49.375 -24.605 L27.875 -3.105 Q26.5 -1.73 24.688 -0.98 Q22.875 -0.23 20.875 -0.23 H20 Q15.875 -0.23 12.938 -3.167 Q10 -6.105 10 -10.23 V-70.23 Q10 -74.355 12.938 -77.292 Q15.875 -80.23 20 -80.23 Z"/></g><g id="Light-M" transform="matrix(1 0 0 1 1098.18 1126)"><path d="M41.693 7.27 Q40.1 7.27 39.189 6.189 Q38.279 5.108 38.279 3.856 Q38.279 3.3 38.508 2.688 Q38.736 2.076 39.308 1.52 L56.837 -16.009 Q57.538 -16.711 58.341 -17.038 Q59.144 -17.364 60.024 -17.364 Q60.904 -17.364 61.683 -17.038 Q62.462 -16.711 63.163 -16.009 L80.692 1.52 Q81.264 2.077 81.492 2.69 Q81.721 3.304 81.721 3.861 Q81.721 5.087 80.811 6.179 Q79.9 7.27 78.308 7.27 H41.693 Z M21.539 -77.73 H98.461 Q102.19 -77.73 104.845 -75.075 Q107.5 -72.42 107.5 -68.691 V-11.769 Q107.5 -8.04 104.845 -5.385 Q102.19 -2.73 98.461 -2.73 H96.24 Q94.411 -2.73 92.754 -3.432 Q91.096 -4.134 89.865 -5.365 L69.615 -25.615 Q67.693 -27.553 65.205 -28.579 Q62.717 -29.605 60.003 -29.605 Q57.288 -29.605 54.799 -28.579 Q52.309 -27.553 50.385 -25.615 L30.135 -5.365 Q28.904 -4.134 27.247 -3.432 Q25.589 -2.73 23.76 -2.73 H21.539 Q17.81 -2.73 15.155 -5.385 Q12.5 -8.04 12.5 -11.769 V-68.691 Q12.5 -72.42 15.155 -75.075 Q17.81 -77.73 21.539 -77.73 Z"/></g><g id="Thin-M" transform="matrix(1 0 0 1 802.565 1126)"><path d="M44.385 4.77 Q42.949 4.77 42.128 3.796 Q41.308 2.821 41.308 1.693 Q41.308 1.206 41.515 0.669 Q41.722 0.133 42.24 -0.355 L57.173 -15.288 Q57.827 -15.941 58.558 -16.22 Q59.288 -16.499 60.048 -16.499 Q60.808 -16.499 61.49 -16.22 Q62.173 -15.941 62.827 -15.288 L77.76 -0.355 Q78.278 0.135 78.485 0.674 Q78.692 1.212 78.692 1.702 Q78.692 2.78 77.872 3.775 Q77.051 4.77 75.615 4.77 H44.385 Z M23.077 -75.23 H96.923 Q100.255 -75.23 102.627 -72.857 Q105 -70.485 105 -67.153 V-13.307 Q105 -9.975 102.627 -7.603 Q100.255 -5.23 96.923 -5.23 H93.356 Q91.698 -5.23 90.195 -5.884 Q88.692 -6.538 87.606 -7.624 L68.606 -26.624 Q66.886 -28.376 64.66 -29.303 Q62.434 -30.23 60.005 -30.23 Q57.577 -30.23 55.347 -29.303 Q53.117 -28.376 51.394 -26.624 L32.394 -7.624 Q31.308 -6.538 29.805 -5.884 Q28.302 -5.23 26.644 -5.23 H23.077 Q19.745 -5.23 17.373 -7.603 Q15 -9.975 15 -13.307 V-67.153 Q15 -70.485 17.373 -72.857 Q19.745 -75.23 23.077 -75.23 Z"/></g><g id="Ultralight-M" transform="matrix(1 0 0 1 506.415 1126)"><path d="M46 3.27 Q44.658 3.27 43.892 2.36 Q43.125 1.449 43.125 0.395 Q43.125 -0.051 43.319 -0.542 Q43.514 -1.034 44 -1.48 L57.375 -14.855 Q58 -15.48 58.688 -15.73 Q59.375 -15.98 60.062 -15.98 Q60.75 -15.98 61.375 -15.73 Q62 -15.48 62.625 -14.855 L76 -1.48 Q76.486 -1.031 76.68 -0.537 Q76.875 -0.042 76.875 0.407 Q76.875 1.395 76.108 2.333 Q75.342 3.27 74 3.27 H46 Z M24 -73.73 H96 Q99.094 -73.73 101.297 -71.527 Q103.5 -69.324 103.5 -66.23 V-14.23 Q103.5 -11.136 101.297 -8.933 Q99.094 -6.73 96 -6.73 H91.625 Q90.07 -6.73 88.66 -7.355 Q87.25 -7.98 86.25 -8.98 L68 -27.23 Q66.401 -28.869 64.333 -29.737 Q62.264 -30.605 60.007 -30.605 Q57.75 -30.605 55.676 -29.737 Q53.602 -28.869 52 -27.23 L33.75 -8.98 Q32.75 -7.98 31.34 -7.355 Q29.93 -6.73 28.375 -6.73 H24 Q20.906 -6.73 18.703 -8.933 Q16.5 -11.136 16.5 -14.23 V-66.23 Q16.5 -69.324 18.703 -71.527 Q20.906 -73.73 24 -73.73 Z"/></g><g id="Bold-S" transform="matrix(1 0 0 1 2294.23 696)"><path d="M30.278 1.261 Q28.404 1.261 27.171 -0.07 Q25.938 -1.402 25.938 -3.177 Q25.938 -4.064 26.185 -4.755 Q26.431 -5.445 27.244 -6.258 L43.198 -22.211 Q44.125 -23.099 45.19 -23.543 Q46.255 -23.987 47.36 -23.987 Q48.464 -23.987 49.579 -23.543 Q50.693 -23.099 51.482 -22.211 L67.436 -6.258 Q68.249 -5.445 68.495 -4.755 Q68.742 -4.064 68.742 -3.177 Q68.742 -1.402 67.509 -0.07 Q66.276 1.261 64.402 1.261 H30.278 Z M17.753 -71.721 H76.928 Q81.829 -71.721 85.197 -68.352 Q88.565 -64.983 88.565 -60.08 V-19.817 Q88.565 -15.801 85.888 -12.941 Q83.21 -10.081 79.294 -10.081 H76.434 Q74.834 -10.081 73.366 -10.672 Q71.898 -11.264 70.615 -12.546 L59.668 -23.494 Q57.183 -25.965 54.01 -27.294 Q50.837 -28.622 47.34 -28.622 Q43.843 -28.622 40.67 -27.294 Q37.497 -25.965 35.012 -23.494 L24.065 -12.546 Q22.782 -11.264 21.314 -10.672 Q19.846 -10.081 18.246 -10.081 H15.386 Q11.47 -10.081 8.792 -12.957 Q6.115 -15.833 6.115 -19.848 V-60.111 Q6.115 -65.015 9.483 -68.368 Q12.851 -71.721 17.753 -71.721 Z"/></g><g id="Semibold-S" transform="matrix(1 0 0 1 1998.1 696)"><path d="M30.192 -0.197 Q28.618 -0.197 27.6 -1.292 Q26.582 -2.388 26.582 -3.863 Q26.582 -4.579 26.785 -5.162 Q26.989 -5.745 27.673 -6.43 L43.927 -22.683 Q44.682 -23.399 45.554 -23.779 Q46.427 -24.158 47.36 -24.158 Q48.293 -24.158 49.193 -23.779 Q50.093 -23.399 50.753 -22.683 L67.007 -6.43 Q67.691 -5.745 67.895 -5.162 Q68.098 -4.579 68.098 -3.863 Q68.098 -2.388 67.08 -1.292 Q66.062 -0.197 64.488 -0.197 H30.192 Z M17.238 -70.263 H77.442 Q81.486 -70.263 84.297 -67.452 Q87.107 -64.64 87.107 -60.594 V-19.302 Q87.107 -15.758 84.687 -13.241 Q82.267 -10.724 78.78 -10.724 H75.62 Q74.106 -10.724 72.723 -11.273 Q71.34 -11.822 70.144 -13.018 L57.567 -25.595 Q55.511 -27.637 52.874 -28.73 Q50.237 -29.823 47.34 -29.823 Q44.443 -29.823 41.806 -28.73 Q39.169 -27.637 37.113 -25.595 L24.536 -13.018 Q23.34 -11.822 21.957 -11.273 Q20.574 -10.724 19.06 -10.724 H15.9 Q12.413 -10.724 9.993 -13.257 Q7.573 -15.79 7.573 -19.334 V-60.626 Q7.573 -64.672 10.383 -67.468 Q13.194 -70.263 17.238 -70.263 Z"/></g><g id="Medium-S" transform="matrix(1 0 0 1 1701.85 696)"><path d="M30.128 -1.29 Q28.779 -1.29 27.922 -2.209 Q27.064 -3.128 27.064 -4.378 Q27.064 -4.965 27.235 -5.468 Q27.407 -5.971 27.995 -6.558 L44.473 -23.037 Q45.1 -23.624 45.828 -23.956 Q46.555 -24.287 47.36 -24.287 Q48.164 -24.287 48.903 -23.956 Q49.643 -23.624 50.207 -23.037 L66.685 -6.558 Q67.273 -5.971 67.445 -5.468 Q67.616 -4.965 67.616 -4.378 Q67.616 -3.128 66.758 -2.209 Q65.901 -1.29 64.552 -1.29 H30.128 Z M16.852 -69.17 H77.828 Q81.229 -69.17 83.621 -66.776 Q86.014 -64.382 86.014 -60.98 V-18.916 Q86.014 -15.726 83.786 -13.466 Q81.559 -11.206 78.394 -11.206 H75.009 Q73.559 -11.206 72.24 -11.723 Q70.922 -12.24 69.79 -13.372 L55.991 -27.171 Q54.256 -28.891 52.021 -29.807 Q49.787 -30.723 47.34 -30.723 Q44.893 -30.723 42.659 -29.807 Q40.424 -28.891 38.689 -27.171 L24.89 -13.372 Q23.758 -12.24 22.44 -11.723 Q21.121 -11.206 19.671 -11.206 H16.286 Q13.121 -11.206 10.894 -13.482 Q8.666 -15.758 8.666 -18.948 V-61.012 Q8.666 -64.414 11.059 -66.792 Q13.451 -69.17 16.852 -69.17 Z"/></g><g id="Regular-S" transform="matrix(1 0 0 1 1405.73 696)"><path d="M30.081 -2.092 Q28.897 -2.092 28.157 -2.881 Q27.418 -3.67 27.418 -4.755 Q27.418 -5.248 27.566 -5.692 Q27.714 -6.136 28.231 -6.653 L44.874 -23.296 Q45.407 -23.789 46.028 -24.085 Q46.65 -24.381 47.36 -24.381 Q48.07 -24.381 48.691 -24.085 Q49.312 -23.789 49.806 -23.296 L66.449 -6.653 Q66.966 -6.136 67.114 -5.692 Q67.262 -5.248 67.262 -4.755 Q67.262 -3.67 66.523 -2.881 Q65.783 -2.092 64.599 -2.092 H30.081 Z M16.569 -68.368 H78.111 Q81.04 -68.368 83.126 -66.281 Q85.212 -64.194 85.212 -61.263 V-18.633 Q85.212 -15.702 83.126 -13.631 Q81.04 -11.56 78.111 -11.56 H74.561 Q73.158 -11.56 71.887 -12.053 Q70.615 -12.546 69.531 -13.631 L54.836 -28.326 Q53.336 -29.811 51.396 -30.597 Q49.456 -31.384 47.34 -31.384 Q45.224 -31.384 43.284 -30.597 Q41.344 -29.811 39.845 -28.326 L25.149 -13.631 Q24.065 -12.546 22.793 -12.053 Q21.522 -11.56 20.12 -11.56 H16.569 Q13.64 -11.56 11.554 -13.647 Q9.468 -15.734 9.468 -18.665 V-61.295 Q9.468 -64.226 11.554 -66.297 Q13.64 -68.368 16.569 -68.368 Z"/></g><g id="Light-S" transform="matrix(1 0 0 1 1109.75 696)"><path d="M32.205 -4.065 Q31.145 -4.065 30.477 -4.77 Q29.808 -5.474 29.808 -6.462 Q29.808 -6.901 29.939 -7.285 Q30.07 -7.669 30.545 -8.132 L45.14 -22.727 Q45.635 -23.183 46.199 -23.44 Q46.763 -23.698 47.379 -23.698 Q47.994 -23.698 48.539 -23.44 Q49.085 -23.183 49.54 -22.727 L64.135 -8.132 Q64.61 -7.668 64.741 -7.283 Q64.872 -6.898 64.872 -6.458 Q64.872 -5.491 64.203 -4.778 Q63.535 -4.065 62.475 -4.065 H32.205 Z M17.783 -66.395 H76.897 Q79.513 -66.395 81.376 -64.531 Q83.239 -62.667 83.239 -60.049 V-19.847 Q83.239 -17.229 81.376 -15.381 Q79.513 -13.533 76.897 -13.533 H72.284 Q71.017 -13.533 69.868 -13.988 Q68.719 -14.443 67.748 -15.414 L54.039 -29.123 Q52.699 -30.46 50.966 -31.169 Q49.233 -31.877 47.342 -31.877 Q45.451 -31.877 43.716 -31.169 Q41.982 -30.46 40.641 -29.123 L26.932 -15.414 Q25.961 -14.443 24.812 -13.988 Q23.663 -13.533 22.396 -13.533 H17.783 Q15.167 -13.533 13.304 -15.397 Q11.441 -17.261 11.441 -19.879 V-60.081 Q11.441 -62.699 13.304 -64.547 Q15.167 -66.395 17.783 -66.395 Z"/></g><g id="Thin-S" transform="matrix(1 0 0 1 814.015 696)"><path d="M34.329 -6.037 Q33.393 -6.037 32.795 -6.658 Q32.197 -7.279 32.197 -8.169 Q32.197 -8.554 32.311 -8.878 Q32.426 -9.203 32.858 -9.611 L45.405 -22.158 Q45.862 -22.576 46.37 -22.796 Q46.877 -23.016 47.398 -23.016 Q47.918 -23.016 48.388 -22.796 Q48.857 -22.576 49.275 -22.158 L61.822 -9.611 Q62.254 -9.201 62.369 -8.875 Q62.483 -8.548 62.483 -8.162 Q62.483 -7.312 61.885 -6.674 Q61.287 -6.037 60.351 -6.037 H34.329 Z M18.997 -64.423 H75.683 Q77.987 -64.423 79.627 -62.782 Q81.267 -61.14 81.267 -58.835 V-21.061 Q81.267 -18.756 79.627 -17.13 Q77.987 -15.505 75.683 -15.505 H70.009 Q68.876 -15.505 67.849 -15.922 Q66.822 -16.339 65.965 -17.197 L53.242 -29.919 Q52.063 -31.11 50.536 -31.74 Q49.01 -32.37 47.344 -32.37 Q45.679 -32.37 44.149 -31.74 Q42.62 -31.11 41.438 -29.919 L28.715 -17.197 Q27.858 -16.339 26.831 -15.922 Q25.804 -15.505 24.671 -15.505 H18.997 Q16.693 -15.505 15.053 -17.146 Q13.413 -18.788 13.413 -21.093 V-58.867 Q13.413 -61.172 15.053 -62.798 Q16.693 -64.423 18.997 -64.423 Z"/></g><g id="Ultralight-S" transform="matrix(1 0 0 1 517.792 696)"><path d="M35.604 -7.22 Q34.742 -7.22 34.187 -7.791 Q33.631 -8.361 33.631 -9.193 Q33.631 -9.545 33.735 -9.834 Q33.839 -10.123 34.247 -10.499 L45.565 -21.817 Q45.999 -22.211 46.472 -22.409 Q46.946 -22.606 47.409 -22.606 Q47.873 -22.606 48.297 -22.409 Q48.721 -22.211 49.115 -21.817 L60.433 -10.499 Q60.841 -10.121 60.945 -9.829 Q61.049 -9.538 61.049 -9.184 Q61.049 -8.404 60.493 -7.812 Q59.938 -7.22 59.076 -7.22 H35.604 Z M19.725 -63.239 H74.955 Q77.071 -63.239 78.577 -61.732 Q80.084 -60.224 80.084 -58.107 V-21.789 Q80.084 -19.672 78.577 -18.18 Q77.071 -16.688 74.955 -16.688 H68.643 Q67.591 -16.688 66.638 -17.083 Q65.684 -17.477 64.895 -18.266 L52.764 -30.397 Q51.681 -31.499 50.278 -32.082 Q48.875 -32.666 47.345 -32.666 Q45.815 -32.666 44.409 -32.082 Q43.002 -31.499 41.916 -30.397 L29.785 -18.266 Q28.996 -17.477 28.042 -17.083 Q27.089 -16.688 26.037 -16.688 H19.725 Q17.609 -16.688 16.103 -18.196 Q14.597 -19.704 14.597 -21.821 V-58.139 Q14.597 -60.256 16.103 -61.748 Q17.609 -63.239 19.725 -63.239 Z"/></g></g></svg>