<svg xmlns="http://www.w3.org/2000/svg" version="1.1" width="3300" height="2000"><g id="Notes"><style>
    text {
      font-family: monospace;
      text-anchor: middle;
    }
    text.emphasis {
      font-weight:bold;
    }
    text.lanchor {
      text-anchor: start;
    }
  </style><rect height="2200" id="artboard" fill="white" width="3300" x="0" y="0"/><line id="" style="fill:none;stroke:black;stroke-width:0.5;" x1="263" x2="3036" y1="292" y2="292"/><text class="lanchor emphasis" transform="matrix(1 0 0 1 263 322)">Weight/Scale Variations</text><text transform="matrix(1 0 0 1 559.711 322)">Ultralight</text><text transform="matrix(1 0 0 1 856.422 322)">Thin</text><text transform="matrix(1 0 0 1 1153.13 322)">Light</text><text transform="matrix(1 0 0 1 1449.84 322)">Regular</text><text transform="matrix(1 0 0 1 1746.56 322)">Medium</text><text transform="matrix(1 0 0 1 2043.27 322)">Semibold</text><text transform="matrix(1 0 0 1 2339.98 322)">Bold</text><text transform="matrix(1 0 0 1 2636.69 322)">Heavy</text><text transform="matrix(1 0 0 1 2933.4 322)">Black</text><text id="template-version" style="text-anchor: end;" transform="matrix(1 0 0 1 3036 1933)">Template v.1.0</text><text class="lanchor" transform="matrix(1 0 0 1 263 726)">Small</text><text class="lanchor" transform="matrix(1 0 0 1 263 1156)">Medium</text><text class="lanchor" transform="matrix(1 0 0 1 263 1586)">Large</text></g><g id="Guides"><g id="H-reference" style="fill:#27AAE1;stroke:none;" transform="matrix(1 0 0 1 339 696)"><path d="M 54.9316 0 L 57.666 0 L 30.5664 -70.459 L 28.0762 -70.459 L 0.976562 0 L 3.66211 0 L 12.9395 -24.4629 L 45.7031 -24.4629 Z M 29.1992 -67.0898 L 29.4434 -67.0898 L 44.8242 -26.709 L 13.8184 -26.709 Z"/></g><line id="Baseline-S" style="fill:none;stroke:#27AAE1;opacity:1;stroke-width:0.577;" x1="263" x2="3036" y1="696" y2="696"/><line id="Capline-S" style="fill:none;stroke:#27AAE1;opacity:1;stroke-width:0.577;" x1="263" x2="3036" y1="625.541" y2="625.541"/><g id="H-reference" style="fill:#27AAE1;stroke:none;" transform="matrix(1 0 0 1 339 1126)"><path d="M 54.9316 0 L 57.666 0 L 30.5664 -70.459 L 28.0762 -70.459 L 0.976562 0 L 3.66211 0 L 12.9395 -24.4629 L 45.7031 -24.4629 Z M 29.1992 -67.0898 L 29.4434 -67.0898 L 44.8242 -26.709 L 13.8184 -26.709 Z"/></g><line id="Baseline-M" style="fill:none;stroke:#27AAE1;opacity:1;stroke-width:0.577;" x1="263" x2="3036" y1="1126" y2="1126"/><line id="Capline-M" style="fill:none;stroke:#27AAE1;opacity:1;stroke-width:0.577;" x1="263" x2="3036" y1="1055.54" y2="1055.54"/><g id="H-reference" style="fill:#27AAE1;stroke:none;" transform="matrix(1 0 0 1 339 1556)"><path d="M 54.9316 0 L 57.666 0 L 30.5664 -70.459 L 28.0762 -70.459 L 0.976562 0 L 3.66211 0 L 12.9395 -24.4629 L 45.7031 -24.4629 Z M 29.1992 -67.0898 L 29.4434 -67.0898 L 44.8242 -26.709 L 13.8184 -26.709 Z"/></g><line id="Baseline-L" style="fill:none;stroke:#27AAE1;opacity:1;stroke-width:0.577;" x1="263" x2="3036" y1="1556" y2="1556"/><line id="Capline-L" style="fill:none;stroke:#27AAE1;opacity:1;stroke-width:0.577;" x1="263" x2="3036" y1="1485.54" y2="1485.54"/><rect height="119.336" id="left-margin" style="fill:darkred;stroke:none;opacity:0.4;" width="12.4512" x="1394.06" y="1030.79"/><rect height="119.336" id="right-margin" style="fill:darkgreen;stroke:none;opacity:0.4;" width="12.4512" x="1502.5112" y="1030.79"/><rect x="1406.5112" y="1045" width="96" height="96" fill="none" stroke="blue" stroke-dasharray="5"/><rect x="1394.06" y="1030.79" width="120.9024" height="119.336" fill="none" stroke="blue"/></g><g id="Symbols"><g id="Bold-L" transform="matrix(1 0 0 1 2266 1556)"><path d="M38.297 2.099 H87.775 Q90.021 2.099 91.088 0.079 Q92.154 -1.942 90.766 -3.883 L76.284 -22.962 Q74.987 -24.346 73.27 -24.346 Q71.552 -24.346 70.305 -22.975 L59.259 -7.979 Q58.211 -6.527 56.357 -6.527 Q54.503 -6.527 53.454 -7.968 L48.939 -14.278 Q47.866 -15.638 46.043 -15.719 Q44.22 -15.799 43.134 -14.429 L35.314 -3.867 Q33.863 -1.942 34.875 0.079 Q35.888 2.099 38.297 2.099 Z M30.879 26.045 Q24.628 26.045 20.377 21.793 Q16.125 17.542 16.125 11.291 V-54.822 Q16.125 -61.14 20.377 -65.439 Q24.628 -69.737 30.879 -69.737 H96.992 Q103.31 -69.737 107.609 -65.439 Q111.907 -61.14 111.907 -54.822 V11.291 Q111.907 17.542 107.609 21.793 Q103.31 26.045 96.992 26.045 H30.879 Z M23.452 -81.751 Q20.398 -81.751 18.262 -83.978 Q16.125 -86.205 16.125 -89.218 Q16.125 -92.232 18.32 -94.449 Q20.514 -96.666 23.48 -96.666 Q26.445 -96.666 28.662 -94.405 Q30.879 -92.143 30.879 -89.14 Q30.879 -86.112 28.646 -83.932 Q26.413 -81.751 23.452 -81.751 Z M50.443 -81.751 Q47.416 -81.751 45.275 -83.995 Q43.134 -86.24 43.134 -89.218 Q43.134 -92.197 45.321 -94.431 Q47.508 -96.666 50.562 -96.666 Q53.616 -96.666 55.833 -94.405 Q58.05 -92.143 58.05 -89.14 Q58.05 -86.112 55.794 -83.932 Q53.539 -81.751 50.443 -81.751 Z M77.372 -81.751 Q74.256 -81.751 72.159 -83.995 Q70.063 -86.24 70.063 -89.218 Q70.063 -92.197 72.188 -94.431 Q74.312 -96.666 77.428 -96.666 Q80.544 -96.666 82.681 -94.405 Q84.817 -92.143 84.817 -89.14 Q84.817 -86.112 82.653 -83.932 Q80.488 -81.751 77.372 -81.751 Z M104.48 -81.751 Q101.426 -81.751 99.209 -83.978 Q96.992 -86.205 96.992 -89.218 Q96.992 -92.232 99.247 -94.449 Q101.503 -96.666 104.559 -96.666 Q107.546 -96.666 109.727 -94.405 Q111.907 -92.143 111.907 -89.14 Q111.907 -86.112 109.674 -83.932 Q107.441 -81.751 104.48 -81.751 Z M131.31 -81.751 Q128.282 -81.751 126.102 -83.978 Q123.921 -86.205 123.921 -89.218 Q123.921 -92.232 126.148 -94.449 Q128.375 -96.666 131.388 -96.666 Q134.402 -96.666 136.619 -94.405 Q138.836 -92.143 138.836 -89.14 Q138.836 -86.112 136.575 -83.932 Q134.313 -81.751 131.31 -81.751 Z M131.31 -54.822 Q128.282 -54.822 126.102 -57.077 Q123.921 -59.333 123.921 -62.389 Q123.921 -65.376 126.148 -67.557 Q128.375 -69.737 131.388 -69.737 Q134.402 -69.737 136.619 -67.504 Q138.836 -65.271 138.836 -62.31 Q138.836 -59.256 136.575 -57.039 Q134.313 -54.822 131.31 -54.822 Z M131.27 -27.893 Q128.318 -27.893 126.119 -30.018 Q123.921 -32.142 123.921 -35.258 Q123.921 -38.374 126.148 -40.511 Q128.375 -42.647 131.388 -42.647 Q134.402 -42.647 136.619 -40.483 Q138.836 -38.318 138.836 -35.202 Q138.836 -32.086 136.563 -29.989 Q134.29 -27.893 131.27 -27.893 Z M131.27 -0.964 Q128.318 -0.964 126.119 -3.151 Q123.921 -5.338 123.921 -8.392 Q123.921 -11.446 126.148 -13.663 Q128.375 -15.88 131.388 -15.88 Q134.402 -15.88 136.619 -13.624 Q138.836 -11.369 138.836 -8.273 Q138.836 -5.246 136.563 -3.105 Q134.29 -0.964 131.27 -0.964 Z M131.31 26.045 Q128.282 26.045 126.102 23.85 Q123.921 21.656 123.921 18.69 Q123.921 15.725 126.148 13.508 Q128.375 11.291 131.388 11.291 Q134.402 11.291 136.619 13.524 Q138.836 15.757 138.836 18.718 Q138.836 21.772 136.575 23.908 Q134.313 26.045 131.31 26.045 Z"/></g><g id="Semibold-L" transform="matrix(1 0 0 1 1970.27 1556)"><path d="M38.157 3.782 H88.476 Q90.345 3.782 91.215 2.096 Q92.084 0.411 90.976 -1.22 L75.794 -21.209 Q74.729 -22.383 73.28 -22.383 Q71.832 -22.383 70.796 -21.222 L59.259 -5.525 Q58.352 -4.284 56.813 -4.284 Q55.274 -4.284 54.366 -5.514 L49.22 -12.736 Q48.287 -13.885 46.779 -13.931 Q45.271 -13.977 44.326 -12.816 L35.664 -1.203 Q34.493 0.411 35.331 2.096 Q36.169 3.782 38.157 3.782 Z M30.248 24.292 Q25.052 24.292 21.465 20.705 Q17.878 17.118 17.878 11.922 V-55.733 Q17.878 -60.967 21.465 -64.581 Q25.052 -68.195 30.248 -68.195 H97.903 Q103.137 -68.195 106.751 -64.581 Q110.365 -60.967 110.365 -55.733 V11.922 Q110.365 17.118 106.751 20.705 Q103.137 24.292 97.903 24.292 H30.248 Z M24.04 -82.382 Q21.45 -82.382 19.664 -84.231 Q17.878 -86.081 17.878 -88.631 Q17.878 -91.18 19.709 -93.012 Q21.54 -94.843 24.063 -94.843 Q26.585 -94.843 28.417 -92.972 Q30.248 -91.1 30.248 -88.579 Q30.248 -86.004 28.393 -84.193 Q26.537 -82.382 24.04 -82.382 Z M50.723 -82.382 Q48.148 -82.382 46.377 -84.249 Q44.607 -86.116 44.607 -88.631 Q44.607 -91.145 46.416 -92.994 Q48.225 -94.843 50.815 -94.843 Q53.405 -94.843 55.237 -92.972 Q57.068 -91.1 57.068 -88.579 Q57.068 -86.004 55.203 -84.193 Q53.337 -82.382 50.723 -82.382 Z M77.372 -82.382 Q74.746 -82.382 73.001 -84.249 Q71.255 -86.116 71.255 -88.631 Q71.255 -91.145 73.029 -92.994 Q74.803 -94.843 77.428 -94.843 Q80.054 -94.843 81.84 -92.972 Q83.626 -91.1 83.626 -88.579 Q83.626 -86.004 81.811 -84.193 Q79.997 -82.382 77.372 -82.382 Z M104.157 -82.382 Q101.567 -82.382 99.735 -84.231 Q97.903 -86.081 97.903 -88.631 Q97.903 -91.18 99.769 -93.012 Q101.634 -94.843 104.208 -94.843 Q106.743 -94.843 108.554 -92.972 Q110.365 -91.1 110.365 -88.579 Q110.365 -86.004 108.51 -84.193 Q106.654 -82.382 104.157 -82.382 Z M130.749 -82.382 Q128.174 -82.382 126.363 -84.231 Q124.552 -86.081 124.552 -88.631 Q124.552 -91.18 126.401 -93.012 Q128.251 -94.843 130.801 -94.843 Q133.35 -94.843 135.182 -92.972 Q137.013 -91.1 137.013 -88.579 Q137.013 -86.004 135.142 -84.193 Q133.27 -82.382 130.749 -82.382 Z M130.749 -55.733 Q128.174 -55.733 126.363 -57.599 Q124.552 -59.464 124.552 -62.038 Q124.552 -64.573 126.401 -66.384 Q128.251 -68.195 130.801 -68.195 Q133.35 -68.195 135.182 -66.34 Q137.013 -64.484 137.013 -61.987 Q137.013 -59.397 135.142 -57.565 Q133.27 -55.733 130.749 -55.733 Z M130.709 -29.085 Q128.209 -29.085 126.38 -30.859 Q124.552 -32.633 124.552 -35.258 Q124.552 -37.884 126.401 -39.67 Q128.251 -41.456 130.801 -41.456 Q133.35 -41.456 135.182 -39.641 Q137.013 -37.827 137.013 -35.202 Q137.013 -32.576 135.13 -30.831 Q133.247 -29.085 130.709 -29.085 Z M130.709 -2.437 Q128.209 -2.437 126.38 -4.246 Q124.552 -6.055 124.552 -8.645 Q124.552 -11.235 126.401 -13.067 Q128.251 -14.898 130.801 -14.898 Q133.35 -14.898 135.182 -13.033 Q137.013 -11.167 137.013 -8.553 Q137.013 -5.978 135.13 -4.207 Q133.247 -2.437 130.709 -2.437 Z M130.749 24.292 Q128.174 24.292 126.363 22.461 Q124.552 20.63 124.552 18.107 Q124.552 15.585 126.401 13.753 Q128.251 11.922 130.801 11.922 Q133.35 11.922 135.182 13.777 Q137.013 15.633 137.013 18.13 Q137.013 20.72 135.142 22.506 Q133.27 24.292 130.749 24.292 Z"/></g><g id="Medium-L" transform="matrix(1 0 0 1 1674.31 1556)"><path d="M38.051 5.044 H89.002 Q90.589 5.044 91.31 3.61 Q92.032 2.176 91.134 0.779 L75.426 -19.894 Q74.534 -20.91 73.288 -20.91 Q72.042 -20.91 71.164 -19.908 L59.259 -3.685 Q58.457 -2.601 57.154 -2.601 Q55.852 -2.601 55.049 -3.674 L49.43 -11.579 Q48.603 -12.571 47.331 -12.59 Q46.06 -12.61 45.22 -11.607 L35.927 0.795 Q34.967 2.176 35.673 3.61 Q36.379 5.044 38.051 5.044 Z M29.775 22.978 Q25.37 22.978 22.281 19.889 Q19.192 16.8 19.192 12.395 V-56.417 Q19.192 -60.838 22.281 -63.938 Q25.37 -67.038 29.775 -67.038 H98.587 Q103.008 -67.038 106.108 -63.938 Q109.208 -60.838 109.208 -56.417 V12.395 Q109.208 16.8 106.108 19.889 Q103.008 22.978 98.587 22.978 H29.775 Z M24.481 -82.855 Q22.238 -82.855 20.715 -84.421 Q19.192 -85.987 19.192 -88.189 Q19.192 -90.392 20.751 -91.934 Q22.309 -93.476 24.5 -93.476 Q26.69 -93.476 28.233 -91.897 Q29.775 -90.318 29.775 -88.158 Q29.775 -85.922 28.203 -84.389 Q26.63 -82.855 24.481 -82.855 Z M50.934 -82.855 Q48.698 -82.855 47.204 -84.439 Q45.711 -86.023 45.711 -88.189 Q45.711 -90.356 47.237 -91.916 Q48.763 -93.476 51.005 -93.476 Q53.247 -93.476 54.79 -91.897 Q56.332 -90.318 56.332 -88.158 Q56.332 -85.922 54.759 -84.389 Q53.186 -82.855 50.934 -82.855 Z M77.372 -82.855 Q75.114 -82.855 73.632 -84.439 Q72.149 -86.023 72.149 -88.189 Q72.149 -90.356 73.66 -91.916 Q75.171 -93.476 77.428 -93.476 Q79.686 -93.476 81.209 -91.897 Q82.732 -90.318 82.732 -88.158 Q82.732 -85.922 81.18 -84.389 Q79.629 -82.855 77.372 -82.855 Z M103.914 -82.855 Q101.672 -82.855 100.129 -84.421 Q98.587 -85.987 98.587 -88.189 Q98.587 -90.392 100.16 -91.934 Q101.733 -93.476 103.945 -93.476 Q106.141 -93.476 107.675 -91.897 Q109.208 -90.318 109.208 -88.158 Q109.208 -85.922 107.636 -84.389 Q106.064 -82.855 103.914 -82.855 Z M130.328 -82.855 Q128.092 -82.855 126.559 -84.421 Q125.025 -85.987 125.025 -88.189 Q125.025 -90.392 126.591 -91.934 Q128.157 -93.476 130.359 -93.476 Q132.562 -93.476 134.104 -91.897 Q135.646 -90.318 135.646 -88.158 Q135.646 -85.922 134.067 -84.389 Q132.488 -82.855 130.328 -82.855 Z M130.328 -56.417 Q128.092 -56.417 126.559 -57.99 Q125.025 -59.563 125.025 -61.775 Q125.025 -63.971 126.591 -65.505 Q128.157 -67.038 130.359 -67.038 Q132.562 -67.038 134.104 -65.466 Q135.646 -63.894 135.646 -61.744 Q135.646 -59.502 134.067 -57.959 Q132.488 -56.417 130.328 -56.417 Z M130.288 -29.979 Q128.127 -29.979 126.576 -31.49 Q125.025 -33.001 125.025 -35.258 Q125.025 -37.516 126.591 -39.039 Q128.157 -40.562 130.359 -40.562 Q132.562 -40.562 134.104 -39.01 Q135.646 -37.459 135.646 -35.202 Q135.646 -32.944 134.056 -31.462 Q132.465 -29.979 130.288 -29.979 Z M130.288 -3.541 Q128.127 -3.541 126.576 -5.067 Q125.025 -6.593 125.025 -8.835 Q125.025 -11.077 126.591 -12.62 Q128.157 -14.162 130.359 -14.162 Q132.562 -14.162 134.104 -12.589 Q135.646 -11.016 135.646 -8.764 Q135.646 -6.528 134.056 -5.034 Q132.465 -3.541 130.288 -3.541 Z M130.328 22.978 Q128.092 22.978 126.559 21.419 Q125.025 19.861 125.025 17.67 Q125.025 15.48 126.591 13.937 Q128.157 12.395 130.359 12.395 Q132.562 12.395 134.104 13.967 Q135.646 15.54 135.646 17.689 Q135.646 19.932 134.067 21.455 Q132.488 22.978 130.328 22.978 Z"/></g><g id="Regular-L" transform="matrix(1 0 0 1 1378.56 1556)"><path d="M37.974 5.969 H89.388 Q90.767 5.969 91.38 4.72 Q91.993 3.47 91.25 2.244 L75.156 -18.93 Q74.392 -19.831 73.294 -19.831 Q72.197 -19.831 71.434 -18.944 L59.259 -2.335 Q58.534 -1.367 57.405 -1.367 Q56.276 -1.367 55.551 -2.324 L49.584 -10.731 Q48.834 -11.607 47.736 -11.607 Q46.638 -11.607 45.876 -10.72 L36.12 2.261 Q35.314 3.47 35.923 4.72 Q36.533 5.969 37.974 5.969 Z M29.428 22.014 Q25.603 22.014 22.88 19.29 Q20.156 16.567 20.156 12.742 V-56.918 Q20.156 -60.743 22.88 -63.466 Q25.603 -66.19 29.428 -66.19 H99.088 Q102.913 -66.19 105.636 -63.466 Q108.36 -60.743 108.36 -56.918 V12.742 Q108.36 16.567 105.636 19.29 Q102.913 22.014 99.088 22.014 H29.428 Z M24.804 -83.202 Q22.817 -83.202 21.487 -84.56 Q20.156 -85.919 20.156 -87.866 Q20.156 -89.813 21.515 -91.143 Q22.873 -92.474 24.82 -92.474 Q26.768 -92.474 28.098 -91.109 Q29.428 -89.744 29.428 -87.85 Q29.428 -85.862 28.063 -84.532 Q26.699 -83.202 24.804 -83.202 Z M51.088 -83.202 Q49.101 -83.202 47.811 -84.578 Q46.521 -85.954 46.521 -87.866 Q46.521 -89.778 47.839 -91.126 Q49.157 -92.474 51.144 -92.474 Q53.132 -92.474 54.462 -91.109 Q55.793 -89.744 55.793 -87.85 Q55.793 -85.862 54.434 -84.532 Q53.075 -83.202 51.088 -83.202 Z M77.372 -83.202 Q75.384 -83.202 74.094 -84.578 Q72.804 -85.954 72.804 -87.866 Q72.804 -89.778 74.123 -91.126 Q75.441 -92.474 77.428 -92.474 Q79.416 -92.474 80.746 -91.109 Q82.076 -89.744 82.076 -87.85 Q82.076 -85.862 80.718 -84.532 Q79.359 -83.202 77.372 -83.202 Z M103.736 -83.202 Q101.749 -83.202 100.418 -84.56 Q99.088 -85.919 99.088 -87.866 Q99.088 -89.813 100.447 -91.143 Q101.805 -92.474 103.752 -92.474 Q105.699 -92.474 107.03 -91.109 Q108.36 -89.744 108.36 -87.85 Q108.36 -85.862 106.995 -84.532 Q105.631 -83.202 103.736 -83.202 Z M130.02 -83.202 Q128.032 -83.202 126.702 -84.56 Q125.372 -85.919 125.372 -87.866 Q125.372 -89.813 126.73 -91.143 Q128.089 -92.474 130.036 -92.474 Q131.983 -92.474 133.313 -91.109 Q134.644 -89.744 134.644 -87.85 Q134.644 -85.862 133.279 -84.532 Q131.914 -83.202 130.02 -83.202 Z M130.02 -56.918 Q128.032 -56.918 126.702 -58.277 Q125.372 -59.635 125.372 -61.582 Q125.372 -63.529 126.73 -64.86 Q128.089 -66.19 130.036 -66.19 Q131.983 -66.19 133.313 -64.825 Q134.644 -63.461 134.644 -61.566 Q134.644 -59.579 133.279 -58.248 Q131.914 -56.918 130.02 -56.918 Z M129.98 -30.634 Q128.068 -30.634 126.72 -31.953 Q125.372 -33.271 125.372 -35.258 Q125.372 -37.246 126.73 -38.576 Q128.089 -39.906 130.036 -39.906 Q131.983 -39.906 133.313 -38.548 Q134.644 -37.189 134.644 -35.202 Q134.644 -33.214 133.267 -31.924 Q131.891 -30.634 129.98 -30.634 Z M129.98 -4.351 Q128.068 -4.351 126.72 -5.669 Q125.372 -6.987 125.372 -8.974 Q125.372 -10.962 126.73 -12.292 Q128.089 -13.622 130.036 -13.622 Q131.983 -13.622 133.313 -12.264 Q134.644 -10.905 134.644 -8.918 Q134.644 -6.931 133.267 -5.641 Q131.891 -4.351 129.98 -4.351 Z M130.02 22.014 Q128.032 22.014 126.702 20.655 Q125.372 19.297 125.372 17.35 Q125.372 15.403 126.73 14.072 Q128.089 12.742 130.036 12.742 Q131.983 12.742 133.313 14.107 Q134.644 15.471 134.644 17.366 Q134.644 19.353 133.279 20.683 Q131.914 22.014 130.02 22.014 Z"/></g><g id="Light-L" transform="matrix(1 0 0 1 1082.77 1556)"><path d="M40.703 5.318 H87.704 Q89.059 5.318 89.673 4.068 Q90.287 2.819 89.537 1.648 L74.953 -17.489 Q74.268 -18.404 73.146 -18.404 Q72.025 -18.404 71.327 -17.503 L60.265 -2.504 Q59.619 -1.554 58.459 -1.569 Q57.3 -1.585 56.642 -2.49 L51.284 -9.914 Q50.602 -10.739 49.48 -10.739 Q48.358 -10.739 47.666 -9.904 L38.953 1.69 Q38.043 2.819 38.676 4.068 Q39.309 5.318 40.703 5.318 Z M32.126 19.099 Q28.439 19.099 25.755 16.415 Q23.071 13.731 23.071 10.044 V-55.337 Q23.071 -59.024 25.755 -61.707 Q28.439 -64.391 32.126 -64.391 H97.507 Q101.194 -64.391 103.877 -61.707 Q106.561 -59.024 106.561 -55.337 V10.044 Q106.561 13.731 103.877 16.415 Q101.194 19.099 97.507 19.099 H32.126 Z M26.989 -81.744 Q25.267 -81.744 24.169 -82.871 Q23.071 -83.998 23.071 -85.681 Q23.071 -87.363 24.198 -88.461 Q25.326 -89.559 27.008 -89.559 Q28.69 -89.559 29.788 -88.425 Q30.886 -87.292 30.886 -85.662 Q30.886 -83.94 29.753 -82.842 Q28.619 -81.744 26.989 -81.744 Z M52.204 -81.744 Q50.434 -81.744 49.408 -82.889 Q48.381 -84.034 48.381 -85.681 Q48.381 -87.328 49.436 -88.443 Q50.491 -89.559 52.23 -89.559 Q53.969 -89.559 55.082 -88.425 Q56.196 -87.292 56.196 -85.662 Q56.196 -83.94 55.053 -82.842 Q53.911 -81.744 52.204 -81.744 Z M77.371 -81.744 Q75.663 -81.744 74.606 -82.889 Q73.549 -84.034 73.549 -85.681 Q73.549 -87.328 74.635 -88.443 Q75.722 -89.559 77.429 -89.559 Q79.137 -89.559 80.25 -88.425 Q81.363 -87.292 81.363 -85.662 Q81.363 -83.94 80.22 -82.842 Q79.078 -81.744 77.371 -81.744 Z M102.666 -81.744 Q100.88 -81.744 99.814 -82.871 Q98.747 -83.998 98.747 -85.681 Q98.747 -87.363 99.842 -88.461 Q100.937 -89.559 102.651 -89.559 Q104.366 -89.559 105.464 -88.425 Q106.561 -87.292 106.561 -85.662 Q106.561 -83.94 105.428 -82.842 Q104.296 -81.744 102.666 -81.744 Z M127.832 -81.744 Q126.11 -81.744 125.012 -82.871 Q123.914 -83.998 123.914 -85.681 Q123.914 -87.363 125.041 -88.461 Q126.168 -89.559 127.851 -89.559 Q129.533 -89.559 130.631 -88.425 Q131.729 -87.292 131.729 -85.662 Q131.729 -83.94 130.595 -82.842 Q129.462 -81.744 127.832 -81.744 Z M127.832 -56.577 Q126.11 -56.577 125.012 -57.672 Q123.914 -58.767 123.914 -60.481 Q123.914 -62.196 125.041 -63.294 Q126.168 -64.391 127.851 -64.391 Q129.533 -64.391 130.631 -63.258 Q131.729 -62.126 131.729 -60.496 Q131.729 -58.71 130.595 -57.644 Q129.462 -56.577 127.832 -56.577 Z M127.792 -31.379 Q126.145 -31.379 125.03 -32.465 Q123.914 -33.552 123.914 -35.259 Q123.914 -36.967 125.041 -38.08 Q126.168 -39.193 127.851 -39.193 Q129.533 -39.193 130.631 -38.05 Q131.729 -36.908 131.729 -35.201 Q131.729 -33.493 130.584 -32.436 Q129.439 -31.379 127.792 -31.379 Z M127.792 -6.211 Q126.145 -6.211 125.03 -7.266 Q123.914 -8.321 123.914 -10.06 Q123.914 -11.799 125.041 -12.912 Q126.168 -14.026 127.851 -14.026 Q129.533 -14.026 130.631 -12.883 Q131.729 -11.741 131.729 -10.034 Q131.729 -8.264 130.584 -7.238 Q129.439 -6.211 127.792 -6.211 Z M127.832 19.099 Q126.11 19.099 125.012 17.972 Q123.914 16.844 123.914 15.162 Q123.914 13.48 125.041 12.382 Q126.168 11.284 127.851 11.284 Q129.533 11.284 130.631 12.417 Q131.729 13.551 131.729 15.181 Q131.729 16.903 130.595 18.001 Q129.462 19.099 127.832 19.099 Z"/></g><g id="Thin-L" transform="matrix(1 0 0 1 787.282 1556)"><path d="M43.432 4.667 H86.02 Q87.351 4.667 87.966 3.417 Q88.582 2.168 87.825 1.053 L74.75 -16.047 Q74.144 -16.978 72.999 -16.978 Q71.853 -16.978 71.221 -16.062 L61.27 -2.674 Q60.704 -1.74 59.514 -1.771 Q58.323 -1.802 57.732 -2.655 L52.984 -9.098 Q52.369 -9.87 51.224 -9.87 Q50.078 -9.87 49.457 -9.088 L41.785 1.12 Q40.771 2.168 41.428 3.417 Q42.084 4.667 43.432 4.667 Z M34.824 16.184 Q31.274 16.184 28.63 13.54 Q25.986 10.896 25.986 7.346 V-53.755 Q25.986 -57.305 28.63 -59.949 Q31.274 -62.593 34.824 -62.593 H95.925 Q99.475 -62.593 102.119 -59.949 Q104.763 -57.305 104.763 -53.755 V7.346 Q104.763 10.896 102.119 13.54 Q99.475 16.184 95.925 16.184 H34.824 Z M29.174 -80.287 Q27.716 -80.287 26.851 -81.183 Q25.986 -82.078 25.986 -83.496 Q25.986 -84.914 26.882 -85.779 Q27.777 -86.644 29.195 -86.644 Q30.613 -86.644 31.478 -85.742 Q32.343 -84.841 32.343 -83.475 Q32.343 -82.017 31.441 -81.152 Q30.54 -80.287 29.174 -80.287 Z M53.321 -80.287 Q51.767 -80.287 51.005 -81.2 Q50.242 -82.114 50.242 -83.496 Q50.242 -84.878 51.033 -85.761 Q51.824 -86.644 53.315 -86.644 Q54.806 -86.644 55.703 -85.742 Q56.599 -84.841 56.599 -83.475 Q56.599 -82.017 55.673 -81.152 Q54.747 -80.287 53.321 -80.287 Z M77.37 -80.287 Q75.943 -80.287 75.118 -81.2 Q74.293 -82.114 74.293 -83.496 Q74.293 -84.878 75.148 -85.761 Q76.003 -86.644 77.43 -86.644 Q78.857 -86.644 79.754 -85.742 Q80.65 -84.841 80.65 -83.475 Q80.65 -82.017 79.723 -81.152 Q78.797 -80.287 77.37 -80.287 Z M101.596 -80.287 Q100.012 -80.287 99.209 -81.183 Q98.406 -82.078 98.406 -83.496 Q98.406 -84.914 99.237 -85.779 Q100.069 -86.644 101.551 -86.644 Q103.033 -86.644 103.898 -85.742 Q104.763 -84.841 104.763 -83.475 Q104.763 -82.017 103.862 -81.152 Q102.961 -80.287 101.596 -80.287 Z M125.645 -80.287 Q124.187 -80.287 123.322 -81.183 Q122.457 -82.078 122.457 -83.496 Q122.457 -84.914 123.353 -85.779 Q124.248 -86.644 125.666 -86.644 Q127.084 -86.644 127.949 -85.742 Q128.814 -84.841 128.814 -83.475 Q128.814 -82.017 127.912 -81.152 Q127.011 -80.287 125.645 -80.287 Z M125.645 -56.236 Q124.187 -56.236 123.322 -57.067 Q122.457 -57.899 122.457 -59.381 Q122.457 -60.863 123.353 -61.728 Q124.248 -62.593 125.666 -62.593 Q127.084 -62.593 127.949 -61.692 Q128.814 -60.791 128.814 -59.426 Q128.814 -57.842 127.912 -57.039 Q127.011 -56.236 125.645 -56.236 Z M125.605 -32.123 Q124.223 -32.123 123.34 -32.978 Q122.457 -33.833 122.457 -35.26 Q122.457 -36.687 123.353 -37.584 Q124.248 -38.48 125.666 -38.48 Q127.084 -38.48 127.949 -37.553 Q128.814 -36.627 128.814 -35.2 Q128.814 -33.773 127.901 -32.948 Q126.987 -32.123 125.605 -32.123 Z M125.605 -8.072 Q124.223 -8.072 123.34 -8.863 Q122.457 -9.654 122.457 -11.145 Q122.457 -12.636 123.353 -13.533 Q124.248 -14.429 125.666 -14.429 Q127.084 -14.429 127.949 -13.503 Q128.814 -12.577 128.814 -11.151 Q128.814 -9.597 127.901 -8.835 Q126.987 -8.072 125.605 -8.072 Z M125.645 16.184 Q124.187 16.184 123.322 15.288 Q122.457 14.393 122.457 12.975 Q122.457 11.557 123.353 10.692 Q124.248 9.827 125.666 9.827 Q127.084 9.827 127.949 10.729 Q128.814 11.63 128.814 12.996 Q128.814 14.454 127.912 15.319 Q127.011 16.184 125.645 16.184 Z"/></g><g id="Ultralight-L" transform="matrix(1 0 0 1 491.205 1556)"><path d="M45.069 4.276 H85.009 Q86.326 4.276 86.942 3.027 Q87.559 1.777 86.798 0.695 L74.628 -15.182 Q74.07 -16.122 72.91 -16.122 Q71.75 -16.122 71.157 -15.198 L61.874 -2.775 Q61.356 -1.851 60.146 -1.892 Q58.937 -1.932 58.387 -2.755 L54.004 -8.607 Q53.43 -9.349 52.27 -9.349 Q51.11 -9.349 50.531 -8.599 L43.484 0.778 Q42.409 1.777 43.079 3.027 Q43.749 4.276 45.069 4.276 Z M36.443 14.435 Q32.976 14.435 30.355 11.815 Q27.735 9.194 27.735 5.728 V-52.806 Q27.735 -56.273 30.355 -58.893 Q32.976 -61.514 36.443 -61.514 H94.976 Q98.443 -61.514 101.063 -58.893 Q103.684 -56.273 103.684 -52.806 V5.728 Q103.684 9.194 101.063 11.815 Q98.443 14.435 94.976 14.435 H36.443 Z M30.485 -79.412 Q29.186 -79.412 28.461 -80.169 Q27.735 -80.926 27.735 -82.185 Q27.735 -83.444 28.492 -84.169 Q29.248 -84.895 30.507 -84.895 Q31.766 -84.895 32.492 -84.132 Q33.218 -83.369 33.218 -82.163 Q33.218 -80.864 32.455 -80.138 Q31.692 -79.412 30.485 -79.412 Z M53.991 -79.412 Q52.568 -79.412 51.963 -80.187 Q51.358 -80.961 51.358 -82.185 Q51.358 -83.408 51.991 -84.152 Q52.624 -84.895 53.966 -84.895 Q55.309 -84.895 56.075 -84.132 Q56.841 -83.369 56.841 -82.163 Q56.841 -80.864 56.044 -80.138 Q55.248 -79.412 53.991 -79.412 Z M77.369 -79.412 Q76.11 -79.412 75.425 -80.187 Q74.739 -80.961 74.739 -82.185 Q74.739 -83.408 75.456 -84.152 Q76.172 -84.895 77.431 -84.895 Q78.69 -84.895 79.456 -84.132 Q80.222 -83.369 80.222 -82.163 Q80.222 -80.864 79.425 -80.138 Q78.628 -79.412 77.369 -79.412 Z M100.955 -79.412 Q99.491 -79.412 98.846 -80.169 Q98.201 -80.926 98.201 -82.185 Q98.201 -83.444 98.874 -84.169 Q99.548 -84.895 100.89 -84.895 Q102.233 -84.895 102.958 -84.132 Q103.684 -83.369 103.684 -82.163 Q103.684 -80.864 102.922 -80.138 Q102.16 -79.412 100.955 -79.412 Z M124.333 -79.412 Q123.034 -79.412 122.308 -80.169 Q121.583 -80.926 121.583 -82.185 Q121.583 -83.444 122.339 -84.169 Q123.096 -84.895 124.355 -84.895 Q125.614 -84.895 126.339 -84.132 Q127.065 -83.369 127.065 -82.163 Q127.065 -80.864 126.302 -80.138 Q125.539 -79.412 124.333 -79.412 Z M124.333 -56.031 Q123.034 -56.031 122.308 -56.704 Q121.583 -57.378 121.583 -58.72 Q121.583 -60.062 122.339 -60.788 Q123.096 -61.514 124.355 -61.514 Q125.614 -61.514 126.339 -60.752 Q127.065 -59.99 127.065 -58.785 Q127.065 -57.321 126.302 -56.676 Q125.539 -56.031 124.333 -56.031 Z M124.293 -32.569 Q123.069 -32.569 122.326 -33.286 Q121.583 -34.002 121.583 -35.261 Q121.583 -36.52 122.339 -37.286 Q123.096 -38.052 124.355 -38.052 Q125.614 -38.052 126.339 -37.255 Q127.065 -36.458 127.065 -35.199 Q127.065 -33.94 126.291 -33.255 Q125.516 -32.569 124.293 -32.569 Z M124.293 -9.188 Q123.069 -9.188 122.326 -9.821 Q121.583 -10.454 121.583 -11.796 Q121.583 -13.139 122.339 -13.905 Q123.096 -14.671 124.355 -14.671 Q125.614 -14.671 126.339 -13.874 Q127.065 -13.078 127.065 -11.821 Q127.065 -10.397 126.291 -9.793 Q125.516 -9.188 124.293 -9.188 Z M124.333 14.435 Q123.034 14.435 122.308 13.678 Q121.583 12.922 121.583 11.663 Q121.583 10.404 122.339 9.678 Q123.096 8.953 124.355 8.953 Q125.614 8.953 126.339 9.715 Q127.065 10.478 127.065 11.685 Q127.065 12.984 126.302 13.709 Q125.539 14.435 124.333 14.435 Z"/></g><g id="Bold-M" transform="matrix(1 0 0 1 2281.8 1126)"><path d="M30.312 -9.605 H67.438 Q69.836 -9.605 70.856 -11.699 Q71.875 -13.792 70.438 -15.73 L60.375 -28.98 Q59.168 -30.542 57.365 -30.542 Q55.562 -30.542 54.375 -28.98 L46.625 -18.792 Q45.438 -17.23 43.625 -17.199 Q41.812 -17.167 40.625 -18.792 L38.25 -21.98 Q37.043 -23.542 35.24 -23.605 Q33.438 -23.667 32.25 -22.105 L27.312 -15.73 Q25.875 -13.792 26.895 -11.699 Q27.914 -9.605 30.312 -9.605 Z M27.125 12.77 Q20.758 12.77 16.379 8.391 Q12 4.012 12 -2.355 V-47.98 Q12 -54.347 16.379 -58.726 Q20.758 -63.105 27.125 -63.105 H72.75 Q79.117 -63.105 83.496 -58.726 Q87.875 -54.347 87.875 -47.98 V-2.355 Q87.875 4.012 83.496 8.391 Q79.117 12.77 72.75 12.77 H27.125 Z M19.562 -68.105 Q16.5 -68.105 14.25 -70.355 Q12 -72.605 12 -75.667 Q12 -78.73 14.25 -80.98 Q16.5 -83.23 19.562 -83.23 Q22.625 -83.23 24.875 -80.98 Q27.125 -78.73 27.125 -75.667 Q27.125 -72.605 24.875 -70.355 Q22.625 -68.105 19.562 -68.105 Z M39.875 -68.105 Q36.812 -68.105 34.562 -70.355 Q32.312 -72.605 32.312 -75.667 Q32.312 -78.73 34.562 -80.98 Q36.812 -83.23 39.875 -83.23 Q42.938 -83.23 45.188 -80.98 Q47.438 -78.73 47.438 -75.667 Q47.438 -72.605 45.188 -70.355 Q42.938 -68.105 39.875 -68.105 Z M60 -68.105 Q56.938 -68.105 54.688 -70.355 Q52.438 -72.605 52.438 -75.667 Q52.438 -78.73 54.688 -80.98 Q56.938 -83.23 60 -83.23 Q63.062 -83.23 65.312 -80.98 Q67.562 -78.73 67.562 -75.667 Q67.562 -72.605 65.312 -70.355 Q63.062 -68.105 60 -68.105 Z M80.312 -68.105 Q77.25 -68.105 75 -70.355 Q72.75 -72.605 72.75 -75.667 Q72.75 -78.73 75 -80.98 Q77.25 -83.23 80.312 -83.23 Q83.375 -83.23 85.625 -80.98 Q87.875 -78.73 87.875 -75.667 Q87.875 -72.605 85.625 -70.355 Q83.375 -68.105 80.312 -68.105 Z M100.438 -68.105 Q97.375 -68.105 95.125 -70.355 Q92.875 -72.605 92.875 -75.667 Q92.875 -78.73 95.125 -80.98 Q97.375 -83.23 100.438 -83.23 Q103.5 -83.23 105.75 -80.98 Q108 -78.73 108 -75.667 Q108 -72.605 105.75 -70.355 Q103.5 -68.105 100.438 -68.105 Z M100.438 -47.98 Q97.375 -47.98 95.125 -50.23 Q92.875 -52.48 92.875 -55.542 Q92.875 -58.605 95.125 -60.855 Q97.375 -63.105 100.438 -63.105 Q103.5 -63.105 105.75 -60.855 Q108 -58.605 108 -55.542 Q108 -52.48 105.75 -50.23 Q103.5 -47.98 100.438 -47.98 Z M100.438 -27.667 Q97.375 -27.667 95.125 -29.917 Q92.875 -32.167 92.875 -35.23 Q92.875 -38.292 95.125 -40.542 Q97.375 -42.792 100.438 -42.792 Q103.5 -42.792 105.75 -40.542 Q108 -38.292 108 -35.23 Q108 -32.167 105.75 -29.917 Q103.5 -27.667 100.438 -27.667 Z M100.438 -7.542 Q97.375 -7.542 95.125 -9.792 Q92.875 -12.042 92.875 -15.105 Q92.875 -18.167 95.125 -20.417 Q97.375 -22.667 100.438 -22.667 Q103.5 -22.667 105.75 -20.417 Q108 -18.167 108 -15.105 Q108 -12.042 105.75 -9.792 Q103.5 -7.542 100.438 -7.542 Z M100.438 12.77 Q97.375 12.77 95.125 10.52 Q92.875 8.27 92.875 5.208 Q92.875 2.145 95.125 -0.105 Q97.375 -2.355 100.438 -2.355 Q103.5 -2.355 105.75 -0.105 Q108 2.145 108 5.208 Q108 8.27 105.75 10.52 Q103.5 12.77 100.438 12.77 Z"/></g><g id="Semibold-M" transform="matrix(1 0 0 1 1985.97 1126)"><path d="M30.204 -7.866 H68.144 Q70.162 -7.866 71.019 -9.606 Q71.875 -11.347 70.655 -12.958 L59.886 -27.187 Q58.897 -28.477 57.365 -28.477 Q55.834 -28.477 54.864 -27.187 L46.625 -16.238 Q45.655 -14.947 44.114 -14.916 Q42.573 -14.885 41.603 -16.238 L38.522 -20.404 Q37.532 -21.695 36.001 -21.73 Q34.47 -21.765 33.5 -20.475 L27.693 -12.958 Q26.473 -11.347 27.329 -9.606 Q28.186 -7.866 30.204 -7.866 Z M26.473 10.922 Q21.193 10.922 17.52 7.25 Q13.848 3.577 13.848 -1.703 V-48.904 Q13.848 -54.184 17.52 -57.857 Q21.193 -61.529 26.473 -61.529 H73.674 Q78.954 -61.529 82.627 -57.857 Q86.299 -54.184 86.299 -48.904 V-1.703 Q86.299 3.577 82.627 7.25 Q78.954 10.922 73.674 10.922 H26.473 Z M20.16 -68.757 Q17.587 -68.757 15.717 -70.627 Q13.848 -72.496 13.848 -75.07 Q13.848 -77.643 15.717 -79.513 Q17.587 -81.382 20.16 -81.382 Q22.734 -81.382 24.603 -79.513 Q26.473 -77.643 26.473 -75.07 Q26.473 -72.496 24.603 -70.627 Q22.734 -68.757 20.16 -68.757 Z M40.147 -68.757 Q37.573 -68.757 35.704 -70.627 Q33.834 -72.496 33.834 -75.07 Q33.834 -77.643 35.704 -79.513 Q37.573 -81.382 40.147 -81.382 Q42.72 -81.382 44.59 -79.513 Q46.459 -77.643 46.459 -75.07 Q46.459 -72.496 44.59 -70.627 Q42.72 -68.757 40.147 -68.757 Z M60 -68.757 Q57.427 -68.757 55.557 -70.627 Q53.687 -72.496 53.687 -75.07 Q53.687 -77.643 55.557 -79.513 Q57.427 -81.382 60 -81.382 Q62.573 -81.382 64.443 -79.513 Q66.313 -77.643 66.313 -75.07 Q66.313 -72.496 64.443 -70.627 Q62.573 -68.757 60 -68.757 Z M79.986 -68.757 Q77.413 -68.757 75.543 -70.627 Q73.674 -72.496 73.674 -75.07 Q73.674 -77.643 75.543 -79.513 Q77.413 -81.382 79.986 -81.382 Q82.56 -81.382 84.429 -79.513 Q86.299 -77.643 86.299 -75.07 Q86.299 -72.496 84.429 -70.627 Q82.56 -68.757 79.986 -68.757 Z M99.84 -68.757 Q97.266 -68.757 95.397 -70.627 Q93.527 -72.496 93.527 -75.07 Q93.527 -77.643 95.397 -79.513 Q97.266 -81.382 99.84 -81.382 Q102.413 -81.382 104.283 -79.513 Q106.152 -77.643 106.152 -75.07 Q106.152 -72.496 104.283 -70.627 Q102.413 -68.757 99.84 -68.757 Z M99.84 -48.904 Q97.266 -48.904 95.397 -50.773 Q93.527 -52.643 93.527 -55.216 Q93.527 -57.79 95.397 -59.659 Q97.266 -61.529 99.84 -61.529 Q102.413 -61.529 104.283 -59.659 Q106.152 -57.79 106.152 -55.216 Q106.152 -52.643 104.283 -50.773 Q102.413 -48.904 99.84 -48.904 Z M99.84 -28.917 Q97.266 -28.917 95.397 -30.787 Q93.527 -32.657 93.527 -35.23 Q93.527 -37.803 95.397 -39.673 Q97.266 -41.543 99.84 -41.543 Q102.413 -41.543 104.283 -39.673 Q106.152 -37.803 106.152 -35.23 Q106.152 -32.657 104.283 -30.787 Q102.413 -28.917 99.84 -28.917 Z M99.84 -9.064 Q97.266 -9.064 95.397 -10.934 Q93.527 -12.803 93.527 -15.377 Q93.527 -17.95 95.397 -19.82 Q97.266 -21.689 99.84 -21.689 Q102.413 -21.689 104.283 -19.82 Q106.152 -17.95 106.152 -15.377 Q106.152 -12.803 104.283 -10.934 Q102.413 -9.064 99.84 -9.064 Z M99.84 10.922 Q97.266 10.922 95.397 9.053 Q93.527 7.183 93.527 4.61 Q93.527 2.036 95.397 0.167 Q97.266 -1.703 99.84 -1.703 Q102.413 -1.703 104.283 0.167 Q106.152 2.036 106.152 4.61 Q106.152 7.183 104.283 9.053 Q102.413 10.922 99.84 10.922 Z"/></g><g id="Medium-M" transform="matrix(1 0 0 1 1689.91 1126)"><path d="M30.122 -6.561 H68.674 Q70.407 -6.561 71.141 -8.037 Q71.875 -9.513 70.818 -10.879 L59.519 -25.841 Q58.693 -26.928 57.365 -26.928 Q56.038 -26.928 55.231 -25.841 L46.625 -14.322 Q45.818 -13.235 44.481 -13.204 Q43.144 -13.173 42.337 -14.322 L38.725 -19.222 Q37.899 -20.309 36.572 -20.324 Q35.245 -20.339 34.438 -19.252 L27.978 -10.879 Q26.921 -9.513 27.655 -8.037 Q28.39 -6.561 30.122 -6.561 Z M25.984 9.536 Q21.519 9.536 18.376 6.394 Q15.234 3.251 15.234 -1.214 V-49.597 Q15.234 -54.062 18.376 -57.204 Q21.519 -60.347 25.984 -60.347 H74.367 Q78.832 -60.347 81.974 -57.204 Q85.117 -54.062 85.117 -49.597 V-1.214 Q85.117 3.251 81.974 6.394 Q78.832 9.536 74.367 9.536 H25.984 Z M20.609 -69.246 Q18.402 -69.246 16.818 -70.83 Q15.234 -72.415 15.234 -74.621 Q15.234 -76.828 16.818 -78.412 Q18.402 -79.996 20.609 -79.996 Q22.815 -79.996 24.399 -78.412 Q25.984 -76.828 25.984 -74.621 Q25.984 -72.415 24.399 -70.83 Q22.815 -69.246 20.609 -69.246 Z M40.35 -69.246 Q38.144 -69.246 36.56 -70.83 Q34.975 -72.415 34.975 -74.621 Q34.975 -76.828 36.56 -78.412 Q38.144 -79.996 40.35 -79.996 Q42.557 -79.996 44.141 -78.412 Q45.725 -76.828 45.725 -74.621 Q45.725 -72.415 44.141 -70.83 Q42.557 -69.246 40.35 -69.246 Z M60 -69.246 Q57.794 -69.246 56.209 -70.83 Q54.625 -72.415 54.625 -74.621 Q54.625 -76.828 56.209 -78.412 Q57.794 -79.996 60 -79.996 Q62.206 -79.996 63.791 -78.412 Q65.375 -76.828 65.375 -74.621 Q65.375 -72.415 63.791 -70.83 Q62.206 -69.246 60 -69.246 Z M79.742 -69.246 Q77.535 -69.246 75.951 -70.83 Q74.367 -72.415 74.367 -74.621 Q74.367 -76.828 75.951 -78.412 Q77.535 -79.996 79.742 -79.996 Q81.948 -79.996 83.533 -78.412 Q85.117 -76.828 85.117 -74.621 Q85.117 -72.415 83.533 -70.83 Q81.948 -69.246 79.742 -69.246 Z M99.391 -69.246 Q97.185 -69.246 95.6 -70.83 Q94.016 -72.415 94.016 -74.621 Q94.016 -76.828 95.6 -78.412 Q97.185 -79.996 99.391 -79.996 Q101.598 -79.996 103.182 -78.412 Q104.766 -76.828 104.766 -74.621 Q104.766 -72.415 103.182 -70.83 Q101.598 -69.246 99.391 -69.246 Z M99.391 -49.597 Q97.185 -49.597 95.6 -51.181 Q94.016 -52.765 94.016 -54.972 Q94.016 -57.178 95.6 -58.763 Q97.185 -60.347 99.391 -60.347 Q101.598 -60.347 103.182 -58.763 Q104.766 -57.178 104.766 -54.972 Q104.766 -52.765 103.182 -51.181 Q101.598 -49.597 99.391 -49.597 Z M99.391 -29.855 Q97.185 -29.855 95.6 -31.439 Q94.016 -33.023 94.016 -35.23 Q94.016 -37.436 95.6 -39.021 Q97.185 -40.605 99.391 -40.605 Q101.598 -40.605 103.182 -39.021 Q104.766 -37.436 104.766 -35.23 Q104.766 -33.023 103.182 -31.439 Q101.598 -29.855 99.391 -29.855 Z M99.391 -10.205 Q97.185 -10.205 95.6 -11.79 Q94.016 -13.374 94.016 -15.58 Q94.016 -17.787 95.6 -19.371 Q97.185 -20.955 99.391 -20.955 Q101.598 -20.955 103.182 -19.371 Q104.766 -17.787 104.766 -15.58 Q104.766 -13.374 103.182 -11.79 Q101.598 -10.205 99.391 -10.205 Z M99.391 9.536 Q97.185 9.536 95.6 7.952 Q94.016 6.368 94.016 4.161 Q94.016 1.955 95.6 0.371 Q97.185 -1.214 99.391 -1.214 Q101.598 -1.214 103.182 0.371 Q104.766 1.955 104.766 4.161 Q104.766 6.368 103.182 7.952 Q101.598 9.536 99.391 9.536 Z"/></g><g id="Regular-M" transform="matrix(1 0 0 1 1394.06 1126)"><path d="M30.062 -5.605 H69.062 Q70.586 -5.605 71.231 -6.886 Q71.875 -8.167 70.938 -9.355 L59.25 -24.855 Q58.543 -25.792 57.365 -25.792 Q56.188 -25.792 55.5 -24.855 L46.625 -12.917 Q45.938 -11.98 44.75 -11.949 Q43.562 -11.917 42.875 -12.917 L38.875 -18.355 Q38.168 -19.292 36.99 -19.292 Q35.812 -19.292 35.125 -18.355 L28.188 -9.355 Q27.25 -8.167 27.895 -6.886 Q28.539 -5.605 30.062 -5.605 Z M25.625 8.52 Q21.758 8.52 19.004 5.766 Q16.25 3.012 16.25 -0.855 V-50.105 Q16.25 -53.972 19.004 -56.726 Q21.758 -59.48 25.625 -59.48 H74.875 Q78.742 -59.48 81.496 -56.726 Q84.25 -53.972 84.25 -50.105 V-0.855 Q84.25 3.012 81.496 5.766 Q78.742 8.52 74.875 8.52 H25.625 Z M20.938 -69.605 Q19 -69.605 17.625 -70.98 Q16.25 -72.355 16.25 -74.292 Q16.25 -76.23 17.625 -77.605 Q19 -78.98 20.938 -78.98 Q22.875 -78.98 24.25 -77.605 Q25.625 -76.23 25.625 -74.292 Q25.625 -72.355 24.25 -70.98 Q22.875 -69.605 20.938 -69.605 Z M40.5 -69.605 Q38.562 -69.605 37.188 -70.98 Q35.812 -72.355 35.812 -74.292 Q35.812 -76.23 37.188 -77.605 Q38.562 -78.98 40.5 -78.98 Q42.438 -78.98 43.812 -77.605 Q45.188 -76.23 45.188 -74.292 Q45.188 -72.355 43.812 -70.98 Q42.438 -69.605 40.5 -69.605 Z M60 -69.605 Q58.062 -69.605 56.688 -70.98 Q55.312 -72.355 55.312 -74.292 Q55.312 -76.23 56.688 -77.605 Q58.062 -78.98 60 -78.98 Q61.938 -78.98 63.312 -77.605 Q64.688 -76.23 64.688 -74.292 Q64.688 -72.355 63.312 -70.98 Q61.938 -69.605 60 -69.605 Z M79.562 -69.605 Q77.625 -69.605 76.25 -70.98 Q74.875 -72.355 74.875 -74.292 Q74.875 -76.23 76.25 -77.605 Q77.625 -78.98 79.562 -78.98 Q81.5 -78.98 82.875 -77.605 Q84.25 -76.23 84.25 -74.292 Q84.25 -72.355 82.875 -70.98 Q81.5 -69.605 79.562 -69.605 Z M99.062 -69.605 Q97.125 -69.605 95.75 -70.98 Q94.375 -72.355 94.375 -74.292 Q94.375 -76.23 95.75 -77.605 Q97.125 -78.98 99.062 -78.98 Q101 -78.98 102.375 -77.605 Q103.75 -76.23 103.75 -74.292 Q103.75 -72.355 102.375 -70.98 Q101 -69.605 99.062 -69.605 Z M99.062 -50.105 Q97.125 -50.105 95.75 -51.48 Q94.375 -52.855 94.375 -54.792 Q94.375 -56.73 95.75 -58.105 Q97.125 -59.48 99.062 -59.48 Q101 -59.48 102.375 -58.105 Q103.75 -56.73 103.75 -54.792 Q103.75 -52.855 102.375 -51.48 Q101 -50.105 99.062 -50.105 Z M99.062 -30.542 Q97.125 -30.542 95.75 -31.917 Q94.375 -33.292 94.375 -35.23 Q94.375 -37.167 95.75 -38.542 Q97.125 -39.917 99.062 -39.917 Q101 -39.917 102.375 -38.542 Q103.75 -37.167 103.75 -35.23 Q103.75 -33.292 102.375 -31.917 Q101 -30.542 99.062 -30.542 Z M99.062 -11.042 Q97.125 -11.042 95.75 -12.417 Q94.375 -13.792 94.375 -15.73 Q94.375 -17.667 95.75 -19.042 Q97.125 -20.417 99.062 -20.417 Q101 -20.417 102.375 -19.042 Q103.75 -17.667 103.75 -15.73 Q103.75 -13.792 102.375 -12.417 Q101 -11.042 99.062 -11.042 Z M99.062 8.52 Q97.125 8.52 95.75 7.145 Q94.375 5.77 94.375 3.833 Q94.375 1.895 95.75 0.52 Q97.125 -0.855 99.062 -0.855 Q101 -0.855 102.375 0.52 Q103.75 1.895 103.75 3.833 Q103.75 5.77 102.375 7.145 Q101 8.52 99.062 8.52 Z"/></g><g id="Light-M" transform="matrix(1 0 0 1 1098.18 1126)"><path d="M32.13 -5.533 H67.805 Q69.153 -5.533 69.733 -6.694 Q70.312 -7.855 69.514 -8.951 L58.804 -23.112 Q58.159 -23.965 57.106 -23.965 Q56.054 -23.965 55.418 -23.113 L47.26 -12.183 Q46.635 -11.307 45.567 -11.288 Q44.5 -11.268 43.865 -12.18 L40.145 -17.145 Q39.49 -17.994 38.438 -17.994 Q37.386 -17.994 36.754 -17.146 L30.431 -8.931 Q29.558 -7.855 30.165 -6.694 Q30.773 -5.533 32.13 -5.533 Z M27.043 6.26 Q23.523 6.26 21.017 3.754 Q18.51 1.247 18.51 -2.273 V-49.36 Q18.51 -52.88 21.017 -55.387 Q23.523 -57.893 27.043 -57.893 H74.13 Q77.65 -57.893 80.157 -55.387 Q82.663 -52.88 82.663 -49.36 V-2.273 Q82.663 1.247 80.157 3.754 Q77.65 6.26 74.13 6.26 H27.043 Z M22.296 -69.148 Q20.707 -69.148 19.608 -70.247 Q18.51 -71.345 18.51 -72.934 Q18.51 -74.523 19.608 -75.622 Q20.707 -76.72 22.296 -76.72 Q23.885 -76.72 24.983 -75.622 Q26.082 -74.523 26.082 -72.934 Q26.082 -71.345 24.983 -70.247 Q23.885 -69.148 22.296 -69.148 Z M41.173 -69.148 Q39.596 -69.148 38.498 -70.247 Q37.399 -71.345 37.399 -72.934 Q37.399 -74.523 38.498 -75.622 Q39.596 -76.72 41.173 -76.72 Q42.75 -76.72 43.861 -75.622 Q44.971 -74.523 44.971 -72.934 Q44.971 -71.345 43.861 -70.247 Q42.75 -69.148 41.173 -69.148 Z M60 -69.148 Q58.423 -69.148 57.325 -70.247 Q56.226 -71.345 56.226 -72.934 Q56.226 -74.523 57.325 -75.622 Q58.423 -76.72 60 -76.72 Q61.577 -76.72 62.688 -75.622 Q63.798 -74.523 63.798 -72.934 Q63.798 -71.345 62.688 -70.247 Q61.577 -69.148 60 -69.148 Z M78.877 -69.148 Q77.288 -69.148 76.19 -70.247 Q75.091 -71.345 75.091 -72.934 Q75.091 -74.523 76.19 -75.622 Q77.288 -76.72 78.877 -76.72 Q80.466 -76.72 81.565 -75.622 Q82.663 -74.523 82.663 -72.934 Q82.663 -71.345 81.565 -70.247 Q80.466 -69.148 78.877 -69.148 Z M97.704 -69.148 Q96.115 -69.148 95.017 -70.247 Q93.918 -71.345 93.918 -72.934 Q93.918 -74.523 95.017 -75.622 Q96.115 -76.72 97.704 -76.72 Q99.293 -76.72 100.392 -75.622 Q101.49 -74.523 101.49 -72.934 Q101.49 -71.345 100.392 -70.247 Q99.293 -69.148 97.704 -69.148 Z M97.704 -50.321 Q96.115 -50.321 95.017 -51.42 Q93.918 -52.518 93.918 -54.107 Q93.918 -55.696 95.017 -56.795 Q96.115 -57.893 97.704 -57.893 Q99.293 -57.893 100.392 -56.795 Q101.49 -55.696 101.49 -54.107 Q101.49 -52.518 100.392 -51.42 Q99.293 -50.321 97.704 -50.321 Z M97.704 -31.456 Q96.115 -31.456 95.017 -32.555 Q93.918 -33.653 93.918 -35.23 Q93.918 -36.807 95.017 -37.917 Q96.115 -39.028 97.704 -39.028 Q99.293 -39.028 100.392 -37.917 Q101.49 -36.807 101.49 -35.23 Q101.49 -33.653 100.392 -32.555 Q99.293 -31.456 97.704 -31.456 Z M97.704 -12.629 Q96.115 -12.629 95.017 -13.728 Q93.918 -14.826 93.918 -16.403 Q93.918 -17.98 95.017 -19.091 Q96.115 -20.201 97.704 -20.201 Q99.293 -20.201 100.392 -19.091 Q101.49 -17.98 101.49 -16.403 Q101.49 -14.826 100.392 -13.728 Q99.293 -12.629 97.704 -12.629 Z M97.704 6.26 Q96.115 6.26 95.017 5.162 Q93.918 4.063 93.918 2.474 Q93.918 0.885 95.017 -0.213 Q96.115 -1.312 97.704 -1.312 Q99.293 -1.312 100.392 -0.213 Q101.49 0.885 101.49 2.474 Q101.49 4.063 100.392 5.162 Q99.293 6.26 97.704 6.26 Z"/></g><g id="Thin-M" transform="matrix(1 0 0 1 802.565 1126)"><path d="M34.197 -5.461 H66.547 Q67.721 -5.461 68.236 -6.502 Q68.75 -7.542 68.091 -8.548 L58.358 -21.37 Q57.774 -22.139 56.848 -22.139 Q55.921 -22.139 55.335 -21.371 L47.896 -11.449 Q47.332 -10.634 46.385 -10.627 Q45.438 -10.619 44.855 -11.443 L41.414 -15.935 Q40.812 -16.696 39.886 -16.696 Q38.96 -16.696 38.382 -15.936 L32.675 -8.508 Q31.865 -7.542 32.436 -6.502 Q33.006 -5.461 34.197 -5.461 Z M28.462 4.001 Q25.288 4.001 23.029 1.741 Q20.769 -0.518 20.769 -3.691 V-48.615 Q20.769 -51.788 23.029 -54.047 Q25.288 -56.307 28.462 -56.307 H73.385 Q76.558 -56.307 78.817 -54.047 Q81.077 -51.788 81.077 -48.615 V-3.691 Q81.077 -0.518 78.817 1.741 Q76.558 4.001 73.385 4.001 H28.462 Z M23.654 -68.691 Q22.413 -68.691 21.591 -69.514 Q20.769 -70.336 20.769 -71.576 Q20.769 -72.816 21.591 -73.639 Q22.413 -74.461 23.654 -74.461 Q24.894 -74.461 25.716 -73.639 Q26.538 -72.816 26.538 -71.576 Q26.538 -70.336 25.716 -69.514 Q24.894 -68.691 23.654 -68.691 Z M41.846 -68.691 Q40.63 -68.691 39.808 -69.514 Q38.986 -70.336 38.986 -71.576 Q38.986 -72.816 39.808 -73.639 Q40.63 -74.461 41.846 -74.461 Q43.062 -74.461 43.909 -73.639 Q44.755 -72.816 44.755 -71.576 Q44.755 -70.336 43.909 -69.514 Q43.062 -68.691 41.846 -68.691 Z M60 -68.691 Q58.784 -68.691 57.962 -69.514 Q57.139 -70.336 57.139 -71.576 Q57.139 -72.816 57.962 -73.639 Q58.784 -74.461 60 -74.461 Q61.216 -74.461 62.062 -73.639 Q62.909 -72.816 62.909 -71.576 Q62.909 -70.336 62.062 -69.514 Q61.216 -68.691 60 -68.691 Z M78.192 -68.691 Q76.952 -68.691 76.13 -69.514 Q75.308 -70.336 75.308 -71.576 Q75.308 -72.816 76.13 -73.639 Q76.952 -74.461 78.192 -74.461 Q79.433 -74.461 80.255 -73.639 Q81.077 -72.816 81.077 -71.576 Q81.077 -70.336 80.255 -69.514 Q79.433 -68.691 78.192 -68.691 Z M96.346 -68.691 Q95.106 -68.691 94.284 -69.514 Q93.462 -70.336 93.462 -71.576 Q93.462 -72.816 94.284 -73.639 Q95.106 -74.461 96.346 -74.461 Q97.587 -74.461 98.409 -73.639 Q99.231 -72.816 99.231 -71.576 Q99.231 -70.336 98.409 -69.514 Q97.587 -68.691 96.346 -68.691 Z M96.346 -50.538 Q95.106 -50.538 94.284 -51.36 Q93.462 -52.182 93.462 -53.422 Q93.462 -54.663 94.284 -55.485 Q95.106 -56.307 96.346 -56.307 Q97.587 -56.307 98.409 -55.485 Q99.231 -54.663 99.231 -53.422 Q99.231 -52.182 98.409 -51.36 Q97.587 -50.538 96.346 -50.538 Z M96.346 -32.369 Q95.106 -32.369 94.284 -33.191 Q93.462 -34.014 93.462 -35.23 Q93.462 -36.446 94.284 -37.292 Q95.106 -38.139 96.346 -38.139 Q97.587 -38.139 98.409 -37.292 Q99.231 -36.446 99.231 -35.23 Q99.231 -34.014 98.409 -33.191 Q97.587 -32.369 96.346 -32.369 Z M96.346 -14.215 Q95.106 -14.215 94.284 -15.038 Q93.462 -15.86 93.462 -17.076 Q93.462 -18.292 94.284 -19.139 Q95.106 -19.985 96.346 -19.985 Q97.587 -19.985 98.409 -19.139 Q99.231 -18.292 99.231 -17.076 Q99.231 -15.86 98.409 -15.038 Q97.587 -14.215 96.346 -14.215 Z M96.346 4.001 Q95.106 4.001 94.284 3.179 Q93.462 2.357 93.462 1.116 Q93.462 -0.124 94.284 -0.946 Q95.106 -1.768 96.346 -1.768 Q97.587 -1.768 98.409 -0.946 Q99.231 -0.124 99.231 1.116 Q99.231 2.357 98.409 3.179 Q97.587 4.001 96.346 4.001 Z"/></g><g id="Ultralight-M" transform="matrix(1 0 0 1 506.415 1126)"><path d="M35.438 -5.417 H65.793 Q66.862 -5.417 67.337 -6.386 Q67.812 -7.355 67.236 -8.305 L58.091 -20.324 Q57.543 -21.042 56.692 -21.042 Q55.841 -21.042 55.286 -20.326 L48.277 -11.009 Q47.75 -10.23 46.875 -10.23 Q46 -10.23 45.449 -11.001 L42.176 -15.209 Q41.606 -15.917 40.755 -15.917 Q39.904 -15.917 39.359 -15.211 L34.021 -8.254 Q33.25 -7.355 33.798 -6.386 Q34.346 -5.417 35.438 -5.417 Z M29.312 2.645 Q26.348 2.645 24.236 0.534 Q22.125 -1.578 22.125 -4.542 V-48.167 Q22.125 -51.132 24.236 -53.244 Q26.348 -55.355 29.312 -55.355 H72.938 Q75.902 -55.355 78.014 -53.244 Q80.125 -51.132 80.125 -48.167 V-4.542 Q80.125 -1.578 78.014 0.534 Q75.902 2.645 72.938 2.645 H29.312 Z M24.469 -68.417 Q23.438 -68.417 22.781 -69.074 Q22.125 -69.73 22.125 -70.761 Q22.125 -71.792 22.781 -72.449 Q23.438 -73.105 24.469 -73.105 Q25.5 -73.105 26.156 -72.449 Q26.812 -71.792 26.812 -70.761 Q26.812 -69.73 26.156 -69.074 Q25.5 -68.417 24.469 -68.417 Z M42.25 -68.417 Q41.25 -68.417 40.594 -69.074 Q39.938 -69.73 39.938 -70.761 Q39.938 -71.792 40.594 -72.449 Q41.25 -73.105 42.25 -73.105 Q43.25 -73.105 43.938 -72.449 Q44.625 -71.792 44.625 -70.761 Q44.625 -69.73 43.938 -69.074 Q43.25 -68.417 42.25 -68.417 Z M60 -68.417 Q59 -68.417 58.344 -69.074 Q57.688 -69.73 57.688 -70.761 Q57.688 -71.792 58.344 -72.449 Q59 -73.105 60 -73.105 Q61 -73.105 61.688 -72.449 Q62.375 -71.792 62.375 -70.761 Q62.375 -69.73 61.688 -69.074 Q61 -68.417 60 -68.417 Z M77.781 -68.417 Q76.75 -68.417 76.094 -69.074 Q75.438 -69.73 75.438 -70.761 Q75.438 -71.792 76.094 -72.449 Q76.75 -73.105 77.781 -73.105 Q78.812 -73.105 79.469 -72.449 Q80.125 -71.792 80.125 -70.761 Q80.125 -69.73 79.469 -69.074 Q78.812 -68.417 77.781 -68.417 Z M95.531 -68.417 Q94.5 -68.417 93.844 -69.074 Q93.188 -69.73 93.188 -70.761 Q93.188 -71.792 93.844 -72.449 Q94.5 -73.105 95.531 -73.105 Q96.562 -73.105 97.219 -72.449 Q97.875 -71.792 97.875 -70.761 Q97.875 -69.73 97.219 -69.074 Q96.562 -68.417 95.531 -68.417 Z M95.531 -50.667 Q94.5 -50.667 93.844 -51.324 Q93.188 -51.98 93.188 -53.011 Q93.188 -54.042 93.844 -54.699 Q94.5 -55.355 95.531 -55.355 Q96.562 -55.355 97.219 -54.699 Q97.875 -54.042 97.875 -53.011 Q97.875 -51.98 97.219 -51.324 Q96.562 -50.667 95.531 -50.667 Z M95.531 -32.917 Q94.5 -32.917 93.844 -33.574 Q93.188 -34.23 93.188 -35.23 Q93.188 -36.23 93.844 -36.917 Q94.5 -37.605 95.531 -37.605 Q96.562 -37.605 97.219 -36.917 Q97.875 -36.23 97.875 -35.23 Q97.875 -34.23 97.219 -33.574 Q96.562 -32.917 95.531 -32.917 Z M95.531 -15.167 Q94.5 -15.167 93.844 -15.824 Q93.188 -16.48 93.188 -17.48 Q93.188 -18.48 93.844 -19.167 Q94.5 -19.855 95.531 -19.855 Q96.562 -19.855 97.219 -19.167 Q97.875 -18.48 97.875 -17.48 Q97.875 -16.48 97.219 -15.824 Q96.562 -15.167 95.531 -15.167 Z M95.531 2.645 Q94.5 2.645 93.844 1.989 Q93.188 1.333 93.188 0.301 Q93.188 -0.73 93.844 -1.386 Q94.5 -2.042 95.531 -2.042 Q96.562 -2.042 97.219 -1.386 Q97.875 -0.73 97.875 0.301 Q97.875 1.333 97.219 1.989 Q96.562 2.645 95.531 2.645 Z"/></g><g id="Bold-S" transform="matrix(1 0 0 1 2294.23 696)"><path d="M25.199 -15.012 H53.701 Q55.433 -15.012 56.17 -16.565 Q56.907 -18.119 55.871 -19.549 L48.524 -29.312 Q47.65 -30.545 46.358 -30.545 Q45.066 -30.545 44.207 -29.312 L39.032 -22.754 Q38.174 -21.521 36.874 -21.496 Q35.575 -21.472 34.716 -22.754 L32.25 -25.959 Q31.372 -27.192 30.073 -27.241 Q28.774 -27.291 27.911 -26.058 L23.029 -19.549 Q21.993 -18.119 22.73 -16.565 Q23.467 -15.012 25.199 -15.012 Z M22.98 0.275 Q18.281 0.275 15.058 -2.948 Q11.835 -6.171 11.835 -10.87 V-44.698 Q11.835 -49.396 15.058 -52.619 Q18.281 -55.843 22.98 -55.843 H56.808 Q61.506 -55.843 64.729 -52.619 Q67.953 -49.396 67.953 -44.698 V-10.87 Q67.953 -6.171 64.729 -2.948 Q61.506 0.275 56.808 0.275 H22.98 Z M17.428 -59.59 Q15.188 -59.59 13.512 -61.246 Q11.835 -62.902 11.835 -65.142 Q11.835 -67.382 13.491 -69.058 Q15.147 -70.735 17.387 -70.735 Q19.626 -70.735 21.303 -69.079 Q22.98 -67.423 22.98 -65.183 Q22.98 -62.944 21.324 -61.267 Q19.668 -59.59 17.428 -59.59 Z M32.468 -59.59 Q30.229 -59.59 28.552 -61.246 Q26.875 -62.902 26.875 -65.142 Q26.875 -67.382 28.531 -69.058 Q30.187 -70.735 32.427 -70.735 Q34.667 -70.735 36.343 -69.079 Q38.02 -67.423 38.02 -65.183 Q38.02 -62.944 36.364 -61.267 Q34.708 -59.59 32.468 -59.59 Z M47.361 -59.59 Q45.121 -59.59 43.444 -61.246 Q41.768 -62.902 41.768 -65.142 Q41.768 -67.382 43.424 -69.058 Q45.079 -70.735 47.319 -70.735 Q49.559 -70.735 51.236 -69.079 Q52.912 -67.423 52.912 -65.183 Q52.912 -62.944 51.256 -61.267 Q49.601 -59.59 47.361 -59.59 Z M62.401 -59.59 Q60.161 -59.59 58.485 -61.246 Q56.808 -62.902 56.808 -65.142 Q56.808 -67.382 58.464 -69.058 Q60.12 -70.735 62.36 -70.735 Q64.599 -70.735 66.276 -69.079 Q67.953 -67.423 67.953 -65.183 Q67.953 -62.944 66.297 -61.267 Q64.641 -59.59 62.401 -59.59 Z M77.293 -59.59 Q75.054 -59.59 73.377 -61.246 Q71.7 -62.902 71.7 -65.142 Q71.7 -67.382 73.356 -69.058 Q75.012 -70.735 77.252 -70.735 Q79.492 -70.735 81.168 -69.079 Q82.845 -67.423 82.845 -65.183 Q82.845 -62.944 81.189 -61.267 Q79.533 -59.59 77.293 -59.59 Z M77.293 -44.698 Q75.054 -44.698 73.377 -46.354 Q71.7 -48.01 71.7 -50.25 Q71.7 -52.489 73.356 -54.166 Q75.012 -55.843 77.252 -55.843 Q79.492 -55.843 81.168 -54.187 Q82.845 -52.531 82.845 -50.291 Q82.845 -48.051 81.189 -46.375 Q79.533 -44.698 77.293 -44.698 Z M77.293 -29.658 Q75.054 -29.658 73.377 -31.314 Q71.7 -32.969 71.7 -35.209 Q71.7 -37.449 73.356 -39.126 Q75.012 -40.802 77.252 -40.802 Q79.492 -40.802 81.168 -39.146 Q82.845 -37.491 82.845 -35.251 Q82.845 -33.011 81.189 -31.334 Q79.533 -29.658 77.293 -29.658 Z M77.293 -14.765 Q75.054 -14.765 73.377 -16.421 Q71.7 -18.077 71.7 -20.317 Q71.7 -22.557 73.356 -24.233 Q75.012 -25.91 77.252 -25.91 Q79.492 -25.91 81.168 -24.254 Q82.845 -22.598 82.845 -20.358 Q82.845 -18.119 81.189 -16.442 Q79.533 -14.765 77.293 -14.765 Z M77.293 0.275 Q75.054 0.275 73.377 -1.381 Q71.7 -3.037 71.7 -5.277 Q71.7 -7.516 73.356 -9.193 Q75.012 -10.87 77.252 -10.87 Q79.492 -10.87 81.168 -9.214 Q82.845 -7.558 82.845 -5.318 Q82.845 -3.078 81.189 -1.402 Q79.533 0.275 77.293 0.275 Z"/></g><g id="Semibold-S" transform="matrix(1 0 0 1 1998.1 696)"><path d="M25.113 -13.64 H54.259 Q55.691 -13.64 56.299 -14.914 Q56.907 -16.189 56.043 -17.362 L48.138 -27.898 Q47.435 -28.916 46.358 -28.916 Q45.28 -28.916 44.593 -27.898 L39.032 -20.739 Q38.345 -19.72 37.26 -19.696 Q36.175 -19.671 35.488 -20.739 L32.465 -24.716 Q31.758 -25.734 30.673 -25.762 Q29.588 -25.79 28.897 -24.772 L23.329 -17.362 Q22.465 -16.189 23.073 -14.914 Q23.681 -13.64 25.113 -13.64 Z M22.465 -1.183 Q18.624 -1.183 15.959 -3.849 Q13.293 -6.514 13.293 -10.355 V-45.427 Q13.293 -49.268 15.959 -51.933 Q18.624 -54.599 22.465 -54.599 H57.537 Q61.378 -54.599 64.043 -51.933 Q66.709 -49.268 66.709 -45.427 V-10.355 Q66.709 -6.514 64.043 -3.849 Q61.378 -1.183 57.537 -1.183 H22.465 Z M17.9 -60.105 Q16.046 -60.105 14.669 -61.461 Q13.293 -62.816 13.293 -64.67 Q13.293 -66.524 14.649 -67.901 Q16.004 -69.277 17.858 -69.277 Q19.712 -69.277 21.089 -67.921 Q22.465 -66.566 22.465 -64.712 Q22.465 -62.858 21.109 -61.481 Q19.754 -60.105 17.9 -60.105 Z M32.683 -60.105 Q30.829 -60.105 29.452 -61.461 Q28.076 -62.816 28.076 -64.67 Q28.076 -66.524 29.432 -67.901 Q30.787 -69.277 32.641 -69.277 Q34.495 -69.277 35.872 -67.921 Q37.248 -66.566 37.248 -64.712 Q37.248 -62.858 35.892 -61.481 Q34.537 -60.105 32.683 -60.105 Z M47.361 -60.105 Q45.507 -60.105 44.13 -61.461 Q42.754 -62.816 42.754 -64.67 Q42.754 -66.524 44.11 -67.901 Q45.465 -69.277 47.319 -69.277 Q49.173 -69.277 50.55 -67.921 Q51.926 -66.566 51.926 -64.712 Q51.926 -62.858 50.57 -61.481 Q49.215 -60.105 47.361 -60.105 Z M62.144 -60.105 Q60.29 -60.105 58.913 -61.461 Q57.537 -62.816 57.537 -64.67 Q57.537 -66.524 58.893 -67.901 Q60.248 -69.277 62.102 -69.277 Q63.956 -69.277 65.333 -67.921 Q66.709 -66.566 66.709 -64.712 Q66.709 -62.858 65.353 -61.481 Q63.998 -60.105 62.144 -60.105 Z M76.822 -60.105 Q74.968 -60.105 73.591 -61.461 Q72.215 -62.816 72.215 -64.67 Q72.215 -66.524 73.571 -67.901 Q74.926 -69.277 76.78 -69.277 Q78.634 -69.277 80.011 -67.921 Q81.387 -66.566 81.387 -64.712 Q81.387 -62.858 80.031 -61.481 Q78.676 -60.105 76.822 -60.105 Z M76.822 -45.427 Q74.968 -45.427 73.591 -46.783 Q72.215 -48.138 72.215 -49.992 Q72.215 -51.846 73.571 -53.223 Q74.926 -54.599 76.78 -54.599 Q78.634 -54.599 80.011 -53.243 Q81.387 -51.888 81.387 -50.034 Q81.387 -48.18 80.031 -46.803 Q78.676 -45.427 76.822 -45.427 Z M76.822 -30.644 Q74.968 -30.644 73.591 -32 Q72.215 -33.355 72.215 -35.209 Q72.215 -37.063 73.571 -38.44 Q74.926 -39.816 76.78 -39.816 Q78.634 -39.816 80.011 -38.46 Q81.387 -37.105 81.387 -35.251 Q81.387 -33.397 80.031 -32.02 Q78.676 -30.644 76.822 -30.644 Z M76.822 -15.966 Q74.968 -15.966 73.591 -17.322 Q72.215 -18.677 72.215 -20.531 Q72.215 -22.385 73.571 -23.762 Q74.926 -25.138 76.78 -25.138 Q78.634 -25.138 80.011 -23.782 Q81.387 -22.427 81.387 -20.573 Q81.387 -18.719 80.031 -17.342 Q78.676 -15.966 76.822 -15.966 Z M76.822 -1.183 Q74.968 -1.183 73.591 -2.539 Q72.215 -3.894 72.215 -5.748 Q72.215 -7.602 73.571 -8.979 Q74.926 -10.355 76.78 -10.355 Q78.634 -10.355 80.011 -8.999 Q81.387 -7.644 81.387 -5.79 Q81.387 -3.936 80.031 -2.559 Q78.676 -1.183 76.822 -1.183 Z"/></g><g id="Medium-S" transform="matrix(1 0 0 1 1701.85 696)"><path d="M25.049 -12.611 H54.677 Q55.884 -12.611 56.395 -13.676 Q56.907 -14.742 56.171 -15.722 L47.848 -26.836 Q47.275 -27.694 46.358 -27.694 Q45.441 -27.694 44.883 -26.836 L39.032 -19.227 Q38.474 -18.369 37.549 -18.345 Q36.625 -18.32 36.067 -19.227 L32.626 -23.783 Q32.048 -24.641 31.124 -24.652 Q30.2 -24.664 29.637 -23.807 L23.554 -15.722 Q22.819 -14.742 23.33 -13.676 Q23.842 -12.611 25.049 -12.611 Z M22.079 -2.276 Q18.882 -2.276 16.634 -4.524 Q14.386 -6.772 14.386 -9.969 V-45.974 Q14.386 -49.171 16.634 -51.419 Q18.882 -53.666 22.079 -53.666 H58.084 Q61.281 -53.666 63.529 -51.419 Q65.776 -49.171 65.776 -45.974 V-9.969 Q65.776 -6.772 63.529 -4.524 Q61.281 -2.276 58.084 -2.276 H22.079 Z M18.254 -60.491 Q16.689 -60.491 15.538 -61.621 Q14.386 -62.752 14.386 -64.316 Q14.386 -65.881 15.517 -67.032 Q16.648 -68.184 18.212 -68.184 Q19.776 -68.184 20.928 -67.053 Q22.079 -65.922 22.079 -64.358 Q22.079 -62.794 20.949 -61.642 Q19.818 -60.491 18.254 -60.491 Z M32.844 -60.491 Q31.279 -60.491 30.128 -61.621 Q28.976 -62.752 28.976 -64.316 Q28.976 -65.881 30.107 -67.032 Q31.238 -68.184 32.802 -68.184 Q34.367 -68.184 35.518 -67.053 Q36.669 -65.922 36.669 -64.358 Q36.669 -62.794 35.539 -61.642 Q34.408 -60.491 32.844 -60.491 Z M47.361 -60.491 Q45.796 -60.491 44.645 -61.621 Q43.494 -62.752 43.494 -64.316 Q43.494 -65.881 44.624 -67.032 Q45.755 -68.184 47.319 -68.184 Q48.884 -68.184 50.035 -67.053 Q51.186 -65.922 51.186 -64.358 Q51.186 -62.794 50.056 -61.642 Q48.925 -60.491 47.361 -60.491 Z M61.951 -60.491 Q60.386 -60.491 59.235 -61.621 Q58.084 -62.752 58.084 -64.316 Q58.084 -65.881 59.214 -67.032 Q60.345 -68.184 61.909 -68.184 Q63.474 -68.184 64.625 -67.053 Q65.776 -65.922 65.776 -64.358 Q65.776 -62.794 64.646 -61.642 Q63.515 -60.491 61.951 -60.491 Z M76.468 -60.491 Q74.904 -60.491 73.752 -61.621 Q72.601 -62.752 72.601 -64.316 Q72.601 -65.881 73.731 -67.032 Q74.862 -68.184 76.426 -68.184 Q77.991 -68.184 79.142 -67.053 Q80.294 -65.922 80.294 -64.358 Q80.294 -62.794 79.163 -61.642 Q78.032 -60.491 76.468 -60.491 Z M76.468 -45.974 Q74.904 -45.974 73.752 -47.104 Q72.601 -48.235 72.601 -49.799 Q72.601 -51.364 73.731 -52.515 Q74.862 -53.666 76.426 -53.666 Q77.991 -53.666 79.142 -52.536 Q80.294 -51.405 80.294 -49.841 Q80.294 -48.276 79.163 -47.125 Q78.032 -45.974 76.468 -45.974 Z M76.468 -31.384 Q74.904 -31.384 73.752 -32.514 Q72.601 -33.645 72.601 -35.209 Q72.601 -36.774 73.731 -37.925 Q74.862 -39.076 76.426 -39.076 Q77.991 -39.076 79.142 -37.946 Q80.294 -36.815 80.294 -35.251 Q80.294 -33.686 79.163 -32.535 Q78.032 -31.384 76.468 -31.384 Z M76.468 -16.866 Q74.904 -16.866 73.752 -17.997 Q72.601 -19.128 72.601 -20.692 Q72.601 -22.257 73.731 -23.408 Q74.862 -24.559 76.426 -24.559 Q77.991 -24.559 79.142 -23.429 Q80.294 -22.298 80.294 -20.734 Q80.294 -19.169 79.163 -18.018 Q78.032 -16.866 76.468 -16.866 Z M76.468 -2.276 Q74.904 -2.276 73.752 -3.407 Q72.601 -4.538 72.601 -6.102 Q72.601 -7.666 73.731 -8.818 Q74.862 -9.969 76.426 -9.969 Q77.991 -9.969 79.142 -8.839 Q80.294 -7.708 80.294 -6.144 Q80.294 -4.579 79.163 -3.428 Q78.032 -2.276 76.468 -2.276 Z"/></g><g id="Regular-S" transform="matrix(1 0 0 1 1405.73 696)"><path d="M25.001 -11.856 H54.983 Q56.025 -11.856 56.466 -12.768 Q56.907 -13.68 56.266 -14.519 L47.636 -26.058 Q47.157 -26.798 46.358 -26.798 Q45.559 -26.798 45.095 -26.058 L39.032 -18.119 Q38.568 -17.379 37.762 -17.354 Q36.955 -17.33 36.491 -18.119 L32.744 -23.099 Q32.26 -23.839 31.454 -23.839 Q30.648 -23.839 30.179 -23.099 L23.719 -14.519 Q23.078 -13.68 23.519 -12.768 Q23.96 -11.856 25.001 -11.856 Z M21.796 -3.078 Q19.07 -3.078 17.129 -5.019 Q15.188 -6.96 15.188 -9.686 V-46.375 Q15.188 -49.1 17.129 -51.041 Q19.07 -52.982 21.796 -52.982 H58.485 Q61.21 -52.982 63.151 -51.041 Q65.093 -49.1 65.093 -46.375 V-9.686 Q65.093 -6.96 63.151 -5.019 Q61.21 -3.078 58.485 -3.078 H21.796 Z M18.513 -60.774 Q17.161 -60.774 16.175 -61.739 Q15.188 -62.705 15.188 -64.057 Q15.188 -65.409 16.154 -66.395 Q17.119 -67.382 18.471 -67.382 Q19.824 -67.382 20.81 -66.416 Q21.796 -65.451 21.796 -64.099 Q21.796 -62.746 20.831 -61.76 Q19.865 -60.774 18.513 -60.774 Z M32.962 -60.774 Q31.609 -60.774 30.623 -61.739 Q29.637 -62.705 29.637 -64.057 Q29.637 -65.409 30.602 -66.395 Q31.568 -67.382 32.92 -67.382 Q34.272 -67.382 35.258 -66.416 Q36.245 -65.451 36.245 -64.099 Q36.245 -62.746 35.279 -61.76 Q34.314 -60.774 32.962 -60.774 Z M47.361 -60.774 Q46.009 -60.774 45.022 -61.739 Q44.036 -62.705 44.036 -64.057 Q44.036 -65.409 45.002 -66.395 Q45.967 -67.382 47.319 -67.382 Q48.671 -67.382 49.658 -66.416 Q50.644 -65.451 50.644 -64.099 Q50.644 -62.746 49.678 -61.76 Q48.713 -60.774 47.361 -60.774 Z M61.809 -60.774 Q60.457 -60.774 59.471 -61.739 Q58.485 -62.705 58.485 -64.057 Q58.485 -65.409 59.45 -66.395 Q60.416 -67.382 61.768 -67.382 Q63.12 -67.382 64.106 -66.416 Q65.093 -65.451 65.093 -64.099 Q65.093 -62.746 64.127 -61.76 Q63.162 -60.774 61.809 -60.774 Z M76.209 -60.774 Q74.856 -60.774 73.87 -61.739 Q72.884 -62.705 72.884 -64.057 Q72.884 -65.409 73.849 -66.395 Q74.815 -67.382 76.167 -67.382 Q77.519 -67.382 78.505 -66.416 Q79.492 -65.451 79.492 -64.099 Q79.492 -62.746 78.526 -61.76 Q77.561 -60.774 76.209 -60.774 Z M76.209 -46.375 Q74.856 -46.375 73.87 -47.34 Q72.884 -48.306 72.884 -49.658 Q72.884 -51.01 73.849 -51.996 Q74.815 -52.982 76.167 -52.982 Q77.519 -52.982 78.505 -52.017 Q79.492 -51.052 79.492 -49.699 Q79.492 -48.347 78.526 -47.361 Q77.561 -46.375 76.209 -46.375 Z M76.209 -31.926 Q74.856 -31.926 73.87 -32.892 Q72.884 -33.857 72.884 -35.209 Q72.884 -36.561 73.849 -37.548 Q74.815 -38.534 76.167 -38.534 Q77.519 -38.534 78.505 -37.568 Q79.492 -36.603 79.492 -35.251 Q79.492 -33.899 78.526 -32.912 Q77.561 -31.926 76.209 -31.926 Z M76.209 -17.527 Q74.856 -17.527 73.87 -18.492 Q72.884 -19.458 72.884 -20.81 Q72.884 -22.162 73.849 -23.148 Q74.815 -24.135 76.167 -24.135 Q77.519 -24.135 78.505 -23.169 Q79.492 -22.204 79.492 -20.852 Q79.492 -19.499 78.526 -18.513 Q77.561 -17.527 76.209 -17.527 Z M76.209 -3.078 Q74.856 -3.078 73.87 -4.044 Q72.884 -5.009 72.884 -6.361 Q72.884 -7.714 73.849 -8.7 Q74.815 -9.686 76.167 -9.686 Q77.519 -9.686 78.505 -8.721 Q79.492 -7.755 79.492 -6.403 Q79.492 -5.051 78.526 -4.064 Q77.561 -3.078 76.209 -3.078 Z"/></g><g id="Light-S" transform="matrix(1 0 0 1 1109.75 696)"><path d="M26.633 -11.799 H53.991 Q54.895 -11.799 55.284 -12.616 Q55.674 -13.434 55.142 -14.2 L47.284 -24.683 Q46.853 -25.356 46.154 -25.356 Q45.454 -25.356 45.03 -24.683 L39.534 -17.539 Q39.118 -16.848 38.407 -16.833 Q37.695 -16.817 37.272 -17.537 L33.745 -22.144 Q33.303 -22.815 32.596 -22.815 Q31.889 -22.815 31.464 -22.145 L25.49 -14.185 Q24.899 -13.434 25.311 -12.616 Q25.722 -11.799 26.633 -11.799 Z M22.915 -4.861 Q20.463 -4.861 18.717 -6.607 Q16.971 -8.353 16.971 -10.805 V-45.787 Q16.971 -48.239 18.717 -49.985 Q20.463 -51.731 22.915 -51.731 H57.897 Q60.349 -51.731 62.095 -49.985 Q63.841 -48.239 63.841 -45.787 V-10.805 Q63.841 -8.353 62.095 -6.607 Q60.349 -4.861 57.897 -4.861 H22.915 Z M19.585 -60.413 Q18.507 -60.413 17.739 -61.161 Q16.971 -61.908 16.971 -62.985 Q16.971 -64.063 17.719 -64.831 Q18.466 -65.599 19.543 -65.599 Q20.62 -65.599 21.388 -64.851 Q22.157 -64.104 22.157 -63.027 Q22.157 -61.95 21.409 -61.182 Q20.662 -60.413 19.585 -60.413 Z M33.493 -60.413 Q32.425 -60.413 31.657 -61.161 Q30.889 -61.908 30.889 -62.985 Q30.889 -64.063 31.636 -64.831 Q32.383 -65.599 33.451 -65.599 Q34.519 -65.599 35.296 -64.851 Q36.074 -64.104 36.074 -63.027 Q36.074 -61.95 35.317 -61.182 Q34.56 -60.413 33.493 -60.413 Z M47.361 -60.413 Q46.293 -60.413 45.525 -61.161 Q44.757 -61.908 44.757 -62.985 Q44.757 -64.063 45.504 -64.831 Q46.252 -65.599 47.319 -65.599 Q48.387 -65.599 49.165 -64.851 Q49.942 -64.104 49.942 -63.027 Q49.942 -61.95 49.185 -61.182 Q48.428 -60.413 47.361 -60.413 Z M61.269 -60.413 Q60.192 -60.413 59.423 -61.161 Q58.655 -61.908 58.655 -62.985 Q58.655 -64.063 59.403 -64.831 Q60.15 -65.599 61.227 -65.599 Q62.304 -65.599 63.072 -64.851 Q63.841 -64.104 63.841 -63.027 Q63.841 -61.95 63.093 -61.182 Q62.346 -60.413 61.269 -60.413 Z M75.137 -60.413 Q74.06 -60.413 73.292 -61.161 Q72.523 -61.908 72.523 -62.985 Q72.523 -64.063 73.271 -64.831 Q74.018 -65.599 75.095 -65.599 Q76.173 -65.599 76.941 -64.851 Q77.709 -64.104 77.709 -63.027 Q77.709 -61.95 76.961 -61.182 Q76.214 -60.413 75.137 -60.413 Z M75.137 -46.545 Q74.06 -46.545 73.292 -47.293 Q72.523 -48.04 72.523 -49.117 Q72.523 -50.194 73.271 -50.962 Q74.018 -51.731 75.095 -51.731 Q76.173 -51.731 76.941 -50.983 Q77.709 -50.236 77.709 -49.159 Q77.709 -48.082 76.961 -47.313 Q76.214 -46.545 75.137 -46.545 Z M75.137 -32.647 Q74.06 -32.647 73.292 -33.394 Q72.523 -34.142 72.523 -35.209 Q72.523 -36.277 73.271 -37.055 Q74.018 -37.832 75.095 -37.832 Q76.173 -37.832 76.941 -37.075 Q77.709 -36.318 77.709 -35.251 Q77.709 -34.183 76.961 -33.415 Q76.214 -32.647 75.137 -32.647 Z M75.137 -18.779 Q74.06 -18.779 73.292 -19.526 Q72.523 -20.273 72.523 -21.341 Q72.523 -22.409 73.271 -23.186 Q74.018 -23.964 75.095 -23.964 Q76.173 -23.964 76.941 -23.207 Q77.709 -22.45 77.709 -21.383 Q77.709 -20.315 76.961 -19.547 Q76.214 -18.779 75.137 -18.779 Z M75.137 -4.861 Q74.06 -4.861 73.292 -5.609 Q72.523 -6.356 72.523 -7.433 Q72.523 -8.51 73.271 -9.278 Q74.018 -10.047 75.095 -10.047 Q76.173 -10.047 76.941 -9.299 Q77.709 -8.552 77.709 -7.475 Q77.709 -6.397 76.961 -5.629 Q76.214 -4.861 75.137 -4.861 Z"/></g><g id="Thin-S" transform="matrix(1 0 0 1 814.015 696)"><path d="M28.264 -11.742 H52.999 Q53.765 -11.742 54.103 -12.465 Q54.441 -13.187 54.019 -13.882 L46.932 -23.308 Q46.55 -23.915 45.949 -23.915 Q45.349 -23.915 44.965 -23.309 L40.035 -16.96 Q39.668 -16.317 39.051 -16.311 Q38.435 -16.305 38.053 -16.955 L34.747 -21.19 Q34.346 -21.79 33.739 -21.79 Q33.131 -21.79 32.749 -21.191 L27.26 -13.851 Q26.72 -13.187 27.102 -12.465 Q27.484 -11.742 28.264 -11.742 Z M24.034 -6.644 Q21.856 -6.644 20.305 -8.195 Q18.754 -9.746 18.754 -11.924 V-45.199 Q18.754 -47.377 20.305 -48.928 Q21.856 -50.479 24.034 -50.479 H57.309 Q59.487 -50.479 61.038 -48.928 Q62.589 -47.377 62.589 -45.199 V-11.924 Q62.589 -9.746 61.038 -8.195 Q59.487 -6.644 57.309 -6.644 H24.034 Z M20.656 -60.053 Q19.854 -60.053 19.304 -60.582 Q18.754 -61.112 18.754 -61.914 Q18.754 -62.716 19.283 -63.266 Q19.812 -63.816 20.615 -63.816 Q21.417 -63.816 21.967 -63.287 Q22.517 -62.758 22.517 -61.955 Q22.517 -61.153 21.988 -60.603 Q21.458 -60.053 20.656 -60.053 Z M34.024 -60.053 Q33.24 -60.053 32.69 -60.582 Q32.14 -61.112 32.14 -61.914 Q32.14 -62.716 32.67 -63.266 Q33.199 -63.816 33.982 -63.816 Q34.765 -63.816 35.334 -63.287 Q35.903 -62.758 35.903 -61.955 Q35.903 -61.153 35.355 -60.603 Q34.807 -60.053 34.024 -60.053 Z M47.361 -60.053 Q46.578 -60.053 46.027 -60.582 Q45.477 -61.112 45.477 -61.914 Q45.477 -62.716 46.007 -63.266 Q46.536 -63.816 47.319 -63.816 Q48.102 -63.816 48.671 -63.287 Q49.24 -62.758 49.24 -61.955 Q49.24 -61.153 48.692 -60.603 Q48.144 -60.053 47.361 -60.053 Z M60.728 -60.053 Q59.926 -60.053 59.376 -60.582 Q58.826 -61.112 58.826 -61.914 Q58.826 -62.716 59.355 -63.266 Q59.885 -63.816 60.687 -63.816 Q61.489 -63.816 62.039 -63.287 Q62.589 -62.758 62.589 -61.955 Q62.589 -61.153 62.06 -60.603 Q61.53 -60.053 60.728 -60.053 Z M74.065 -60.053 Q73.263 -60.053 72.713 -60.582 Q72.163 -61.112 72.163 -61.914 Q72.163 -62.716 72.692 -63.266 Q73.222 -63.816 74.024 -63.816 Q74.826 -63.816 75.376 -63.287 Q75.926 -62.758 75.926 -61.955 Q75.926 -61.153 75.397 -60.603 Q74.868 -60.053 74.065 -60.053 Z M74.065 -46.716 Q73.263 -46.716 72.713 -47.245 Q72.163 -47.775 72.163 -48.577 Q72.163 -49.379 72.692 -49.929 Q73.222 -50.479 74.024 -50.479 Q74.826 -50.479 75.376 -49.95 Q75.926 -49.42 75.926 -48.618 Q75.926 -47.816 75.397 -47.266 Q74.868 -46.716 74.065 -46.716 Z M74.065 -33.367 Q73.263 -33.367 72.713 -33.897 Q72.163 -34.426 72.163 -35.209 Q72.163 -35.992 72.692 -36.561 Q73.222 -37.13 74.024 -37.13 Q74.826 -37.13 75.376 -36.582 Q75.926 -36.034 75.926 -35.251 Q75.926 -34.468 75.397 -33.917 Q74.868 -33.367 74.065 -33.367 Z M74.065 -20.03 Q73.263 -20.03 72.713 -20.56 Q72.163 -21.089 72.163 -21.872 Q72.163 -22.655 72.692 -23.224 Q73.222 -23.793 74.024 -23.793 Q74.826 -23.793 75.376 -23.245 Q75.926 -22.697 75.926 -21.914 Q75.926 -21.13 75.397 -20.58 Q74.868 -20.03 74.065 -20.03 Z M74.065 -6.644 Q73.263 -6.644 72.713 -7.173 Q72.163 -7.702 72.163 -8.505 Q72.163 -9.307 72.692 -9.857 Q73.222 -10.407 74.024 -10.407 Q74.826 -10.407 75.376 -9.878 Q75.926 -9.348 75.926 -8.546 Q75.926 -7.744 75.397 -7.194 Q74.868 -6.644 74.065 -6.644 Z"/></g><g id="Ultralight-S" transform="matrix(1 0 0 1 517.792 696)"><path d="M29.242 -11.708 H52.404 Q53.087 -11.708 53.394 -12.374 Q53.701 -13.039 53.345 -13.691 L46.722 -22.483 Q46.368 -23.05 45.827 -23.05 Q45.286 -23.05 44.926 -22.485 L40.336 -16.613 Q39.998 -15.998 39.438 -15.998 Q38.879 -15.998 38.522 -16.607 L35.348 -20.617 Q34.972 -21.176 34.424 -21.176 Q33.876 -21.176 33.52 -20.618 L28.322 -13.65 Q27.812 -13.039 28.177 -12.374 Q28.542 -11.708 29.242 -11.708 Z M24.706 -7.714 Q22.692 -7.714 21.258 -9.148 Q19.824 -10.582 19.824 -12.596 V-44.846 Q19.824 -46.86 21.258 -48.294 Q22.692 -49.728 24.706 -49.728 H56.956 Q58.97 -49.728 60.404 -48.294 Q61.838 -46.86 61.838 -44.846 V-12.596 Q61.838 -10.582 60.404 -9.148 Q58.97 -7.714 56.956 -7.714 H24.706 Z M21.299 -59.837 Q20.662 -59.837 20.243 -60.235 Q19.824 -60.634 19.824 -61.271 Q19.824 -61.908 20.222 -62.327 Q20.62 -62.746 21.258 -62.746 Q21.895 -62.746 22.314 -62.348 Q22.733 -61.95 22.733 -61.312 Q22.733 -60.675 22.335 -60.256 Q21.936 -59.837 21.299 -59.837 Z M34.342 -59.837 Q33.73 -59.837 33.311 -60.235 Q32.891 -60.634 32.891 -61.271 Q32.891 -61.908 33.29 -62.327 Q33.688 -62.746 34.301 -62.746 Q34.913 -62.746 35.357 -62.348 Q35.801 -61.95 35.801 -61.312 Q35.801 -60.675 35.378 -60.256 Q34.955 -59.837 34.342 -59.837 Z M47.361 -59.837 Q46.748 -59.837 46.329 -60.235 Q45.91 -60.634 45.91 -61.271 Q45.91 -61.908 46.308 -62.327 Q46.707 -62.746 47.319 -62.746 Q47.932 -62.746 48.376 -62.348 Q48.819 -61.95 48.819 -61.312 Q48.819 -60.675 48.396 -60.256 Q47.973 -59.837 47.361 -59.837 Z M60.404 -59.837 Q59.767 -59.837 59.348 -60.235 Q58.928 -60.634 58.928 -61.271 Q58.928 -61.908 59.327 -62.327 Q59.725 -62.746 60.362 -62.746 Q61 -62.746 61.419 -62.348 Q61.838 -61.95 61.838 -61.312 Q61.838 -60.675 61.44 -60.256 Q61.041 -59.837 60.404 -59.837 Z M73.422 -59.837 Q72.785 -59.837 72.366 -60.235 Q71.947 -60.634 71.947 -61.271 Q71.947 -61.908 72.345 -62.327 Q72.744 -62.746 73.381 -62.746 Q74.018 -62.746 74.437 -62.348 Q74.856 -61.95 74.856 -61.312 Q74.856 -60.675 74.458 -60.256 Q74.06 -59.837 73.422 -59.837 Z M73.422 -46.818 Q72.785 -46.818 72.366 -47.217 Q71.947 -47.615 71.947 -48.252 Q71.947 -48.89 72.345 -49.309 Q72.744 -49.728 73.381 -49.728 Q74.018 -49.728 74.437 -49.33 Q74.856 -48.931 74.856 -48.294 Q74.856 -47.657 74.458 -47.238 Q74.06 -46.818 73.422 -46.818 Z M73.422 -33.8 Q72.785 -33.8 72.366 -34.198 Q71.947 -34.597 71.947 -35.209 Q71.947 -35.822 72.345 -36.266 Q72.744 -36.709 73.381 -36.709 Q74.018 -36.709 74.437 -36.286 Q74.856 -35.863 74.856 -35.251 Q74.856 -34.638 74.458 -34.219 Q74.06 -33.8 73.422 -33.8 Z M73.422 -20.781 Q72.785 -20.781 72.366 -21.18 Q71.947 -21.578 71.947 -22.191 Q71.947 -22.803 72.345 -23.247 Q72.744 -23.691 73.381 -23.691 Q74.018 -23.691 74.437 -23.268 Q74.856 -22.845 74.856 -22.232 Q74.856 -21.62 74.458 -21.201 Q74.06 -20.781 73.422 -20.781 Z M73.422 -7.714 Q72.785 -7.714 72.366 -8.112 Q71.947 -8.51 71.947 -9.148 Q71.947 -9.785 72.345 -10.204 Q72.744 -10.623 73.381 -10.623 Q74.018 -10.623 74.437 -10.225 Q74.856 -9.826 74.856 -9.189 Q74.856 -8.552 74.458 -8.133 Q74.06 -7.714 73.422 -7.714 Z"/></g></g></svg>