<svg xmlns="http://www.w3.org/2000/svg" version="1.1" width="3300" height="2000"><g id="Notes"><style>
    text {
      font-family: monospace;
      text-anchor: middle;
    }
    text.emphasis {
      font-weight:bold;
    }
    text.lanchor {
      text-anchor: start;
    }
  </style><rect height="2200" id="artboard" fill="white" width="3300" x="0" y="0"/><line id="" style="fill:none;stroke:black;stroke-width:0.5;" x1="263" x2="3036" y1="292" y2="292"/><text class="lanchor emphasis" transform="matrix(1 0 0 1 263 322)">Weight/Scale Variations</text><text transform="matrix(1 0 0 1 559.711 322)">Ultralight</text><text transform="matrix(1 0 0 1 856.422 322)">Thin</text><text transform="matrix(1 0 0 1 1153.13 322)">Light</text><text transform="matrix(1 0 0 1 1449.84 322)">Regular</text><text transform="matrix(1 0 0 1 1746.56 322)">Medium</text><text transform="matrix(1 0 0 1 2043.27 322)">Semibold</text><text transform="matrix(1 0 0 1 2339.98 322)">Bold</text><text transform="matrix(1 0 0 1 2636.69 322)">Heavy</text><text transform="matrix(1 0 0 1 2933.4 322)">Black</text><text id="template-version" style="text-anchor: end;" transform="matrix(1 0 0 1 3036 1933)">Template v.1.0</text><text class="lanchor" transform="matrix(1 0 0 1 263 726)">Small</text><text class="lanchor" transform="matrix(1 0 0 1 263 1156)">Medium</text><text class="lanchor" transform="matrix(1 0 0 1 263 1586)">Large</text></g><g id="Guides"><g id="H-reference" style="fill:#27AAE1;stroke:none;" transform="matrix(1 0 0 1 339 696)"><path d="M 54.9316 0 L 57.666 0 L 30.5664 -70.459 L 28.0762 -70.459 L 0.976562 0 L 3.66211 0 L 12.9395 -24.4629 L 45.7031 -24.4629 Z M 29.1992 -67.0898 L 29.4434 -67.0898 L 44.8242 -26.709 L 13.8184 -26.709 Z"/></g><line id="Baseline-S" style="fill:none;stroke:#27AAE1;opacity:1;stroke-width:0.577;" x1="263" x2="3036" y1="696" y2="696"/><line id="Capline-S" style="fill:none;stroke:#27AAE1;opacity:1;stroke-width:0.577;" x1="263" x2="3036" y1="625.541" y2="625.541"/><g id="H-reference" style="fill:#27AAE1;stroke:none;" transform="matrix(1 0 0 1 339 1126)"><path d="M 54.9316 0 L 57.666 0 L 30.5664 -70.459 L 28.0762 -70.459 L 0.976562 0 L 3.66211 0 L 12.9395 -24.4629 L 45.7031 -24.4629 Z M 29.1992 -67.0898 L 29.4434 -67.0898 L 44.8242 -26.709 L 13.8184 -26.709 Z"/></g><line id="Baseline-M" style="fill:none;stroke:#27AAE1;opacity:1;stroke-width:0.577;" x1="263" x2="3036" y1="1126" y2="1126"/><line id="Capline-M" style="fill:none;stroke:#27AAE1;opacity:1;stroke-width:0.577;" x1="263" x2="3036" y1="1055.54" y2="1055.54"/><g id="H-reference" style="fill:#27AAE1;stroke:none;" transform="matrix(1 0 0 1 339 1556)"><path d="M 54.9316 0 L 57.666 0 L 30.5664 -70.459 L 28.0762 -70.459 L 0.976562 0 L 3.66211 0 L 12.9395 -24.4629 L 45.7031 -24.4629 Z M 29.1992 -67.0898 L 29.4434 -67.0898 L 44.8242 -26.709 L 13.8184 -26.709 Z"/></g><line id="Baseline-L" style="fill:none;stroke:#27AAE1;opacity:1;stroke-width:0.577;" x1="263" x2="3036" y1="1556" y2="1556"/><line id="Capline-L" style="fill:none;stroke:#27AAE1;opacity:1;stroke-width:0.577;" x1="263" x2="3036" y1="1485.54" y2="1485.54"/><rect height="119.336" id="left-margin" style="fill:darkred;stroke:none;opacity:0.4;" width="12.4512" x="1394.06" y="1030.79"/><rect height="119.336" id="right-margin" style="fill:darkgreen;stroke:none;opacity:0.4;" width="12.4512" x="1502.5112" y="1030.79"/><rect x="1406.5112" y="1045" width="96" height="96" fill="none" stroke="blue" stroke-dasharray="5"/><rect x="1394.06" y="1030.79" width="120.9024" height="119.336" fill="none" stroke="blue"/></g><g id="Symbols"><g id="Bold-L" transform="matrix(1 0 0 1 2266 1556)"><path d="M126.737 30.071  14.029 -82.315 Q12.255 -84.089 12.255 -86.427 Q12.255 -88.765 14.029 -90.539 Q15.846 -92.474 18.081 -92.474 Q20.317 -92.474 22.258 -90.534 L134.805 22.336 Q136.417 23.949 136.579 26.206 Q136.74 28.464 134.805 30.238 Q133.031 32.011 130.774 31.931 Q128.516 31.85 126.737 30.071 Z M112.069 -26.845 V-17.17 L102.394 -26.684 V-49.904 Q102.394 -52.263 104.071 -53.905 Q105.748 -55.547 108.038 -55.547 H126.581 Q131.257 -55.547 133.838 -52.967 Q136.417 -50.387 136.417 -45.711 V-35.875 Q136.417 -32.972 134.724 -31.199 Q133.031 -29.425 130.613 -29.264 L133.838 -21.524 Q134.805 -19.105 133.321 -17.009 Q131.838 -14.912 129.516 -14.912 Q128.106 -14.912 126.779 -15.719 Q125.453 -16.525 124.776 -18.209 L121.91 -26.845 H112.069 Z M112.069 -35.714 H126.743 Q126.743 -35.714 126.743 -35.714 Q126.743 -35.714 126.743 -35.714 V-45.872 Q126.743 -45.872 126.743 -45.872 Q126.743 -45.872 126.743 -45.872 H112.069 V-35.714 Z M95.138 -34.101  73.691 -55.547 H85.301 Q90.203 -55.547 92.67 -52.967 Q95.138 -50.387 95.138 -45.711 V-34.101 Z M28.058 -31.521 V-19.75 Q28.058 -17.718 26.659 -16.315 Q25.26 -14.912 23.235 -14.912 Q21.21 -14.912 19.796 -16.315 Q18.383 -17.718 18.383 -19.75 V-50.71 Q18.383 -52.742 19.781 -54.145 Q21.18 -55.547 23.205 -55.547 Q25.23 -55.547 26.644 -54.145 Q28.058 -52.742 28.058 -50.71 V-41.196 H41.925 V-50.71 Q41.925 -52.742 43.324 -54.145 Q44.722 -55.547 46.748 -55.547 Q48.773 -55.547 50.186 -54.145 Q51.6 -52.742 51.6 -50.71 V-19.75 Q51.6 -17.718 50.201 -16.315 Q48.803 -14.912 46.777 -14.912 Q44.752 -14.912 43.339 -16.315 Q41.925 -17.718 41.925 -19.75 V-31.521 H28.058 Z M59.985 -42.809  69.66 -33.134 V-24.587 H77.884 Q77.884 -24.587 77.884 -24.587 Q77.884 -24.587 77.884 -24.587 L87.72 -15.074 Q86.833 -14.912 86.215 -14.912 Q85.597 -14.912 84.979 -14.912 H65.79 Q63.43 -14.912 61.708 -16.635 Q59.985 -18.358 59.985 -20.717 V-42.809 Z"/></g><g id="Semibold-L" transform="matrix(1 0 0 1 1970.27 1556)"><path d="M127.511 29.793  14.309 -83.156 Q12.676 -84.79 12.676 -86.988 Q12.676 -89.186 14.309 -90.819 Q15.967 -92.544 18.107 -92.544 Q20.247 -92.544 21.975 -90.816 L135.085 22.477 Q136.628 24.019 136.719 26.136 Q136.81 28.253 135.085 29.887 Q133.452 31.521 131.3 31.475 Q129.147 31.429 127.511 29.793 Z M111.298 -27.756 V-16.749 L102.464 -25.492 V-50.394 Q102.464 -52.359 103.903 -53.743 Q105.341 -55.127 107.266 -55.127 H127.002 Q131.257 -55.127 133.627 -52.757 Q135.997 -50.387 135.997 -46.132 V-36.296 Q135.997 -33.463 134.269 -31.619 Q132.541 -29.776 129.982 -29.544 L133.417 -21.243 Q134.314 -19.105 132.985 -17.219 Q131.656 -15.333 129.502 -15.333 Q128.214 -15.333 127.009 -16.069 Q125.803 -16.805 125.28 -18.248 L121.908 -27.756 H111.298 Z M111.298 -36.134 H127.163 Q127.163 -36.134 127.163 -36.134 Q127.163 -36.134 127.163 -36.134 V-46.293 Q127.163 -46.293 127.163 -46.293 Q127.163 -46.293 127.163 -46.293 H111.298 V-36.134 Z M94.577 -33.47  72.92 -55.127 H85.582 Q89.965 -55.127 92.271 -52.757 Q94.577 -50.387 94.577 -46.132 V-33.47 Z M27.637 -31.942 V-19.75 Q27.637 -17.9 26.356 -16.617 Q25.074 -15.333 23.229 -15.333 Q21.383 -15.333 20.093 -16.617 Q18.803 -17.9 18.803 -19.75 V-50.71 Q18.803 -52.56 20.084 -53.843 Q21.366 -55.127 23.211 -55.127 Q25.057 -55.127 26.347 -53.843 Q27.637 -52.56 27.637 -50.71 V-40.776 H42.346 V-50.71 Q42.346 -52.56 43.627 -53.843 Q44.908 -55.127 46.754 -55.127 Q48.6 -55.127 49.89 -53.843 Q51.179 -52.56 51.179 -50.71 V-19.75 Q51.179 -17.9 49.898 -16.617 Q48.617 -15.333 46.771 -15.333 Q44.925 -15.333 43.635 -16.617 Q42.346 -17.9 42.346 -19.75 V-31.942 H27.637 Z M60.406 -42.879  69.239 -34.045 V-24.167 H78.935 Q78.935 -24.167 78.935 -24.167 Q78.935 -24.167 78.935 -24.167 L87.79 -15.494 Q87.079 -15.333 86.519 -15.333 Q85.959 -15.333 85.399 -15.333 H65.299 Q63.335 -15.333 61.87 -16.798 Q60.406 -18.262 60.406 -20.227 V-42.879 Z"/></g><g id="Medium-L" transform="matrix(1 0 0 1 1674.31 1556)"><path d="M128.091 29.584  14.519 -83.787 Q12.991 -85.316 12.991 -87.408 Q12.991 -89.501 14.519 -91.029 Q16.058 -92.596 18.126 -92.596 Q20.195 -92.596 21.763 -91.028 L135.296 22.582 Q136.786 24.071 136.824 26.084 Q136.863 28.096 135.296 29.624 Q133.767 31.152 131.694 31.133 Q129.62 31.114 128.091 29.584 Z M110.719 -28.44 V-16.434 L102.516 -24.598 V-50.763 Q102.516 -52.431 103.776 -53.621 Q105.036 -54.811 106.688 -54.811 H127.317 Q131.257 -54.811 133.469 -52.599 Q135.681 -50.387 135.681 -46.447 V-36.611 Q135.681 -33.831 133.927 -31.935 Q132.172 -30.038 129.508 -29.754 L133.101 -21.033 Q133.946 -19.105 132.733 -17.377 Q131.519 -15.649 129.491 -15.649 Q128.295 -15.649 127.181 -16.332 Q126.066 -17.016 125.659 -18.277 L121.906 -28.44 H110.719 Z M110.719 -36.45 H127.479 Q127.479 -36.45 127.479 -36.45 Q127.479 -36.45 127.479 -36.45 V-46.609 Q127.479 -46.609 127.479 -46.609 Q127.479 -46.609 127.479 -46.609 H110.719 V-36.45 Z M94.156 -32.997  72.342 -54.811 H85.792 Q89.786 -54.811 91.971 -52.599 Q94.156 -50.387 94.156 -46.447 V-32.997 Z M27.321 -32.257 V-19.75 Q27.321 -18.037 26.128 -16.843 Q24.935 -15.649 23.224 -15.649 Q21.512 -15.649 20.316 -16.843 Q19.119 -18.037 19.119 -19.75 V-50.71 Q19.119 -52.423 20.312 -53.617 Q21.505 -54.811 23.216 -54.811 Q24.928 -54.811 26.124 -53.617 Q27.321 -52.423 27.321 -50.71 V-40.46 H42.661 V-50.71 Q42.661 -52.423 43.854 -53.617 Q45.048 -54.811 46.759 -54.811 Q48.47 -54.811 49.667 -53.617 Q50.864 -52.423 50.864 -50.71 V-19.75 Q50.864 -18.037 49.671 -16.843 Q48.477 -15.649 46.766 -15.649 Q45.055 -15.649 43.858 -16.843 Q42.661 -18.037 42.661 -19.75 V-32.257 H27.321 Z M60.721 -42.931  68.924 -34.729 V-23.851 H79.724 Q79.724 -23.851 79.724 -23.851 Q79.724 -23.851 79.724 -23.851 L87.843 -15.81 Q87.263 -15.649 86.747 -15.649 Q86.231 -15.649 85.715 -15.649 H64.931 Q63.263 -15.649 61.992 -16.919 Q60.721 -18.19 60.721 -19.859 V-42.931 Z"/></g><g id="Regular-L" transform="matrix(1 0 0 1 1378.56 1556)"><path d="M128.516 29.431  14.674 -84.25 Q13.223 -85.701 13.223 -87.717 Q13.223 -89.732 14.674 -91.184 Q16.125 -92.635 18.141 -92.635 Q20.156 -92.635 21.608 -91.184 L135.45 22.659 Q136.901 24.11 136.901 26.045 Q136.901 27.98 135.45 29.431 Q133.999 30.883 131.983 30.883 Q129.968 30.883 128.516 29.431 Z M110.295 -28.941 V-16.202 L102.555 -23.942 V-51.032 Q102.555 -52.484 103.684 -53.532 Q104.812 -54.58 106.264 -54.58 H127.549 Q131.257 -54.58 133.354 -52.484 Q135.45 -50.387 135.45 -46.679 V-36.842 Q135.45 -34.101 133.676 -32.166 Q131.903 -30.231 129.161 -29.909 L132.87 -20.879 Q133.676 -19.105 132.548 -17.492 Q131.419 -15.88 129.484 -15.88 Q128.355 -15.88 127.307 -16.525 Q126.259 -17.17 125.936 -18.299 L121.905 -28.941 H110.295 Z M110.295 -36.681 H127.71 Q127.71 -36.681 127.71 -36.681 Q127.71 -36.681 127.71 -36.681 V-46.84 Q127.71 -46.84 127.71 -46.84 Q127.71 -46.84 127.71 -46.84 H110.295 V-36.681 Z M93.847 -32.65  71.918 -54.58 H85.946 Q89.655 -54.58 91.751 -52.484 Q93.847 -50.387 93.847 -46.679 V-32.65 Z M27.09 -32.489 V-19.75 Q27.09 -18.137 25.961 -17.009 Q24.832 -15.88 23.22 -15.88 Q21.608 -15.88 20.479 -17.009 Q19.35 -18.137 19.35 -19.75 V-50.71 Q19.35 -52.322 20.479 -53.451 Q21.608 -54.58 23.22 -54.58 Q24.832 -54.58 25.961 -53.451 Q27.09 -52.322 27.09 -50.71 V-40.229 H42.892 V-50.71 Q42.892 -52.322 44.021 -53.451 Q45.15 -54.58 46.763 -54.58 Q48.375 -54.58 49.504 -53.451 Q50.633 -52.322 50.633 -50.71 V-19.75 Q50.633 -18.137 49.504 -17.009 Q48.375 -15.88 46.763 -15.88 Q45.15 -15.88 44.021 -17.009 Q42.892 -18.137 42.892 -19.75 V-32.489 H27.09 Z M60.953 -42.97  68.692 -35.23 V-23.62 H80.303 Q80.303 -23.62 80.303 -23.62 Q80.303 -23.62 80.303 -23.62 L87.881 -16.041 Q87.398 -15.88 86.914 -15.88 Q86.43 -15.88 85.946 -15.88 H64.661 Q63.21 -15.88 62.081 -17.009 Q60.953 -18.137 60.953 -19.589 V-42.97 Z"/></g><g id="Light-L" transform="matrix(1 0 0 1 1082.77 1556)"><path d="M127.834 25.524  17.961 -84.25 Q16.882 -85.329 16.851 -86.849 Q16.82 -88.368 17.961 -89.509 Q19.102 -90.65 20.59 -90.65 Q22.079 -90.65 23.22 -89.509 L133.093 20.364 Q134.172 21.443 134.203 22.913 Q134.234 24.383 133.093 25.524 Q131.952 26.665 130.464 26.634 Q128.975 26.603 127.834 25.524 Z M109.985 -29.872 V-17.691 L103.733 -24.005 V-50.164 Q103.733 -51.553 104.831 -52.571 Q105.929 -53.588 107.318 -53.588 H126.06 Q129.831 -53.588 132.144 -51.274 Q134.458 -48.961 134.458 -45.19 V-38.269 Q134.458 -35.28 132.56 -33.19 Q130.662 -31.1 127.797 -30.653 L131.878 -21.003 Q132.56 -19.539 131.617 -18.206 Q130.674 -16.872 129.112 -16.872 Q128.169 -16.872 127.307 -17.393 Q126.445 -17.914 126.122 -18.857 L121.781 -29.872 H109.985 Z M109.985 -36.185 H126.222 Q126.966 -36.185 127.586 -36.805 Q128.206 -37.426 128.206 -38.17 V-45.352 Q128.206 -46.096 127.586 -46.716 Q126.966 -47.336 126.222 -47.336 H109.985 V-36.185 Z M92.793 -34.945  74.15 -53.588 H84.396 Q88.042 -53.588 90.418 -51.274 Q92.793 -48.961 92.793 -45.19 V-34.945 Z M26.594 -33.357 V-19.998 Q26.594 -18.696 25.682 -17.784 Q24.77 -16.872 23.468 -16.872 Q22.166 -16.872 21.254 -17.784 Q20.342 -18.696 20.342 -19.998 V-50.462 Q20.342 -51.764 21.254 -52.676 Q22.166 -53.588 23.468 -53.588 Q24.77 -53.588 25.682 -52.676 Q26.594 -51.764 26.594 -50.462 V-39.609 H43.637 V-50.462 Q43.637 -51.764 44.548 -52.676 Q45.46 -53.588 46.763 -53.588 Q48.065 -53.588 48.977 -52.676 Q49.888 -51.764 49.888 -50.462 V-19.998 Q49.888 -18.696 48.977 -17.784 Q48.065 -16.872 46.763 -16.872 Q45.46 -16.872 44.548 -17.784 Q43.637 -18.696 43.637 -19.998 V-33.357 H26.594 Z M62.007 -44.024  68.32 -37.773 V-23.124 H80.923 Q81.295 -23.124 81.636 -23.31 Q81.977 -23.496 82.287 -23.744 L88.067 -18.026 Q87.273 -17.431 86.325 -17.151 Q85.376 -16.872 84.396 -16.872 H65.592 Q64.202 -16.872 63.105 -17.97 Q62.007 -19.068 62.007 -20.457 V-44.024 Z"/></g><g id="Thin-L" transform="matrix(1 0 0 1 787.282 1556)"><path d="M127.152 21.617  21.248 -84.25 Q20.541 -84.957 20.479 -85.98 Q20.417 -87.004 21.248 -87.835 Q22.079 -88.666 23.04 -88.666 Q24.001 -88.666 24.832 -87.835 L130.737 18.069 Q131.444 18.776 131.506 19.781 Q131.568 20.786 130.737 21.617 Q129.906 22.448 128.944 22.386 Q127.983 22.324 127.152 21.617 Z M109.675 -30.802 V-19.179 L104.912 -24.067 V-49.296 Q104.912 -50.623 105.978 -51.609 Q107.045 -52.595 108.372 -52.595 H124.572 Q128.405 -52.595 130.935 -50.065 Q133.465 -47.535 133.465 -43.702 V-39.695 Q133.465 -36.458 131.444 -34.213 Q129.422 -31.968 126.432 -31.397 L130.885 -21.127 Q131.444 -19.973 130.687 -18.919 Q129.93 -17.865 128.74 -17.865 Q127.983 -17.865 127.307 -18.262 Q126.631 -18.658 126.308 -19.415 L121.657 -30.802 H109.675 Z M109.675 -35.689 H124.733 Q126.222 -35.689 127.462 -36.929 Q128.702 -38.17 128.702 -39.658 V-43.863 Q128.702 -45.352 127.462 -46.592 Q126.222 -47.832 124.733 -47.832 H109.675 V-35.689 Z M91.739 -37.239  76.383 -52.595 H82.845 Q86.43 -52.595 89.084 -50.065 Q91.739 -47.535 91.739 -43.702 V-37.239 Z M26.098 -34.225 V-20.246 Q26.098 -19.254 25.403 -18.559 Q24.708 -17.865 23.716 -17.865 Q22.724 -17.865 22.029 -18.559 Q21.335 -19.254 21.335 -20.246 V-50.214 Q21.335 -51.206 22.029 -51.901 Q22.724 -52.595 23.716 -52.595 Q24.708 -52.595 25.403 -51.901 Q26.098 -51.206 26.098 -50.214 V-38.988 H44.381 V-50.214 Q44.381 -51.206 45.076 -51.901 Q45.77 -52.595 46.763 -52.595 Q47.755 -52.595 48.449 -51.901 Q49.144 -51.206 49.144 -50.214 V-20.246 Q49.144 -19.254 48.449 -18.559 Q47.755 -17.865 46.763 -17.865 Q45.77 -17.865 45.076 -18.559 Q44.381 -19.254 44.381 -20.246 V-34.225 H26.098 Z M63.061 -45.079  67.948 -40.316 V-22.628 H81.543 Q82.287 -22.628 82.969 -23 Q83.652 -23.372 84.272 -23.868 L88.253 -20.01 Q87.149 -18.981 85.735 -18.423 Q84.321 -17.865 82.845 -17.865 H66.522 Q65.195 -17.865 64.128 -18.931 Q63.061 -19.998 63.061 -21.325 V-45.079 Z"/></g><g id="Ultralight-L" transform="matrix(1 0 0 1 491.205 1556)"><path d="M126.743 19.273  23.22 -84.25 Q22.736 -84.734 22.656 -85.459 Q22.575 -86.185 23.22 -86.83 Q23.865 -87.475 24.51 -87.475 Q25.155 -87.475 25.8 -86.83 L129.322 16.693 Q129.806 17.176 129.887 17.902 Q129.968 18.628 129.322 19.273 Q128.678 19.918 128.032 19.837 Q127.388 19.756 126.743 19.273 Z M109.489 -31.36 V-20.072 L105.619 -24.104 V-48.775 Q105.619 -50.065 106.667 -51.032 Q107.715 -52 109.005 -52 H123.679 Q127.549 -52 130.209 -49.339 Q132.87 -46.679 132.87 -42.809 V-40.551 Q132.87 -37.165 130.774 -34.827 Q128.678 -32.489 125.614 -31.844 L130.29 -21.201 Q130.774 -20.234 130.129 -19.347 Q129.484 -18.46 128.516 -18.46 Q127.871 -18.46 127.307 -18.782 Q126.743 -19.105 126.42 -19.75 L121.583 -31.36 H109.489 Z M109.489 -35.391 H123.84 Q125.775 -35.391 127.388 -37.004 Q129 -38.616 129 -40.551 V-42.97 Q129 -44.905 127.388 -46.517 Q125.775 -48.13 123.84 -48.13 H109.489 V-35.391 Z M91.106 -38.616  77.722 -52 H81.915 Q85.463 -52 88.284 -49.339 Q91.106 -46.679 91.106 -42.809 V-38.616 Z M25.8 -34.746 V-20.395 Q25.8 -19.589 25.236 -19.024 Q24.671 -18.46 23.865 -18.46 Q23.059 -18.46 22.494 -19.024 Q21.93 -19.589 21.93 -20.395 V-50.065 Q21.93 -50.871 22.494 -51.436 Q23.059 -52 23.865 -52 Q24.671 -52 25.236 -51.436 Q25.8 -50.871 25.8 -50.065 V-38.616 H44.828 V-50.065 Q44.828 -50.871 45.392 -51.436 Q45.956 -52 46.763 -52 Q47.569 -52 48.133 -51.436 Q48.697 -50.871 48.697 -50.065 V-20.395 Q48.697 -19.589 48.133 -19.024 Q47.569 -18.46 46.763 -18.46 Q45.956 -18.46 45.392 -19.024 Q44.828 -19.589 44.828 -20.395 V-34.746 H25.8 Z M63.694 -45.711  67.725 -41.841 V-22.33 H81.915 Q82.883 -22.33 83.769 -22.814 Q84.656 -23.297 85.463 -23.942 L88.365 -21.201 Q87.075 -19.911 85.382 -19.186 Q83.689 -18.46 81.915 -18.46 H67.08 Q65.79 -18.46 64.742 -19.508 Q63.694 -20.556 63.694 -21.846 V-45.711 Z"/></g><g id="Bold-M" transform="matrix(1 0 0 1 2281.8 1126)"><path d="M93.5 14.895  9.75 -68.73 Q8 -70.48 8 -72.917 Q8 -75.355 9.75 -77.105 Q11.5 -78.855 13.938 -78.855 Q16.375 -78.855 18.125 -77.105 L101.875 6.645 Q103.625 8.395 103.625 10.77 Q103.625 13.145 101.875 14.895 Q100.125 16.645 97.688 16.645 Q95.25 16.645 93.5 14.895 Z M89.25 -27.98 V-22.98 L79.75 -32.355 V-45.355 Q79.75 -47.901 81.415 -49.565 Q83.079 -51.23 85.625 -51.23 H96.5 Q100.625 -51.23 103.312 -48.542 Q106 -45.855 106 -41.73 V-36.73 Q106 -34.23 104.875 -32.667 Q103.75 -31.105 102 -29.98 L104 -25.605 Q105 -23.355 103.625 -21.292 Q102.25 -19.23 99.75 -19.23 Q98.432 -19.23 97.278 -19.917 Q96.125 -20.605 95.5 -21.98 L93.017 -27.98 H89.25 Z M89.25 -36.73 H96.5 Q96.5 -36.73 96.5 -36.73 Q96.5 -36.73 96.5 -36.73 V-41.73 Q96.5 -41.73 96.5 -41.73 Q96.5 -41.73 96.5 -41.73 H89.25 V-36.73 Z M73.875 -38.48  61.125 -51.23 H64.375 Q68.5 -51.23 71.188 -48.542 Q73.875 -45.855 73.875 -41.73 V-38.48 Z M23.5 -31.73 V-23.98 Q23.5 -21.922 22.154 -20.576 Q20.808 -19.23 18.75 -19.23 Q16.692 -19.23 15.346 -20.576 Q14 -21.922 14 -23.98 V-46.48 Q14 -48.538 15.346 -49.884 Q16.692 -51.23 18.75 -51.23 Q20.808 -51.23 22.154 -49.884 Q23.5 -48.538 23.5 -46.48 V-41.23 H31.5 V-46.48 Q31.5 -48.538 32.846 -49.884 Q34.192 -51.23 36.25 -51.23 Q38.308 -51.23 39.654 -49.884 Q41 -48.538 41 -46.48 V-23.98 Q41 -21.922 39.654 -20.576 Q38.308 -19.23 36.25 -19.23 Q34.192 -19.23 32.846 -20.576 Q31.5 -21.922 31.5 -23.98 V-31.73 H23.5 Z M46.5 -40.48  56 -30.98 V-28.73 H58.125 Q58.125 -28.73 58.125 -28.73 Q58.125 -28.73 58.125 -28.73 L67.25 -19.73 Q66.438 -19.48 65.625 -19.355 Q64.812 -19.23 64 -19.23 H52.375 Q49.829 -19.23 48.165 -20.895 Q46.5 -22.559 46.5 -25.105 V-40.48 Z"/></g><g id="Semibold-M" transform="matrix(1 0 0 1 1985.97 1126)"><path d="M94.315 14.569  10.076 -69.599 Q8.489 -71.186 8.462 -73.461 Q8.435 -75.735 10.076 -77.377 Q11.663 -78.964 13.965 -78.964 Q16.266 -78.964 17.853 -77.377 L102.147 6.808 Q103.788 8.449 103.761 10.661 Q103.734 12.873 102.147 14.515 Q100.505 16.156 98.231 16.183 Q95.957 16.21 94.315 14.569 Z M88.489 -28.958 V-22.545 L79.859 -31.105 V-45.844 Q79.859 -47.99 81.261 -49.392 Q82.664 -50.795 84.81 -50.795 H96.935 Q100.571 -50.795 103.068 -48.298 Q105.565 -45.801 105.565 -42.165 V-37.165 Q105.565 -34.773 104.359 -33.102 Q103.152 -31.431 101.348 -30.306 L103.565 -25.333 Q104.457 -23.301 103.245 -21.483 Q102.033 -19.665 99.75 -19.665 Q98.57 -19.665 97.538 -20.271 Q96.505 -20.877 95.989 -22.089 L93.01 -28.958 H88.489 Z M88.489 -37.165 H96.935 Q96.935 -37.165 96.935 -37.165 Q96.935 -37.165 96.935 -37.165 V-42.165 Q96.935 -42.165 96.935 -42.165 Q96.935 -42.165 96.935 -42.165 H88.489 V-37.165 Z M73.277 -37.828  60.31 -50.795 H64.647 Q68.283 -50.795 70.78 -48.298 Q73.277 -45.801 73.277 -42.165 V-37.828 Z M23.065 -32.165 V-23.98 Q23.065 -22.11 21.843 -20.887 Q20.62 -19.665 18.75 -19.665 Q16.88 -19.665 15.657 -20.887 Q14.435 -22.11 14.435 -23.98 V-46.48 Q14.435 -48.35 15.657 -49.573 Q16.88 -50.795 18.75 -50.795 Q20.62 -50.795 21.843 -49.573 Q23.065 -48.35 23.065 -46.48 V-40.795 H31.935 V-46.48 Q31.935 -48.35 33.157 -49.573 Q34.38 -50.795 36.25 -50.795 Q38.12 -50.795 39.343 -49.573 Q40.565 -48.35 40.565 -46.48 V-23.98 Q40.565 -22.11 39.343 -20.887 Q38.12 -19.665 36.25 -19.665 Q34.38 -19.665 33.157 -20.887 Q31.935 -22.11 31.935 -23.98 V-32.165 H23.065 Z M46.935 -40.589  55.565 -31.958 V-28.295 H59.212 Q59.212 -28.295 59.212 -28.295 Q59.212 -28.295 59.212 -28.295 L67.359 -20.165 Q66.628 -19.915 65.897 -19.79 Q65.166 -19.665 64.435 -19.665 H51.886 Q49.74 -19.665 48.338 -21.068 Q46.935 -22.47 46.935 -24.616 V-40.589 Z"/></g><g id="Medium-M" transform="matrix(1 0 0 1 1689.91 1126)"><path d="M94.927 14.324  10.321 -70.252 Q8.856 -71.716 8.808 -73.869 Q8.761 -76.021 10.321 -77.58 Q11.785 -79.045 13.985 -79.045 Q16.185 -79.045 17.649 -77.58 L102.35 6.93 Q103.91 8.49 103.863 10.58 Q103.815 12.67 102.35 14.229 Q100.791 15.789 98.639 15.837 Q96.486 15.884 94.927 14.324 Z M87.918 -29.692 V-22.219 L79.94 -30.167 V-46.211 Q79.94 -48.056 81.147 -49.263 Q82.353 -50.469 84.198 -50.469 H97.261 Q100.53 -50.469 102.885 -48.114 Q105.239 -45.76 105.239 -42.491 V-37.491 Q105.239 -35.181 103.972 -33.428 Q102.704 -31.676 100.859 -30.551 L103.239 -25.129 Q104.049 -23.26 102.959 -21.625 Q101.87 -19.991 99.75 -19.991 Q98.674 -19.991 97.732 -20.536 Q96.791 -21.08 96.356 -22.17 L93.004 -29.692 H87.918 Z M87.918 -37.491 H97.261 Q97.261 -37.491 97.261 -37.491 Q97.261 -37.491 97.261 -37.491 V-42.491 Q97.261 -42.491 97.261 -42.491 Q97.261 -42.491 97.261 -42.491 H87.918 V-37.491 Z M72.829 -37.339  59.698 -50.469 H64.85 Q68.12 -50.469 70.474 -48.114 Q72.829 -45.76 72.829 -42.491 V-37.339 Z M22.739 -32.491 V-23.98 Q22.739 -22.251 21.609 -21.121 Q20.479 -19.991 18.75 -19.991 Q17.021 -19.991 15.891 -21.121 Q14.761 -22.251 14.761 -23.98 V-46.48 Q14.761 -48.209 15.891 -49.339 Q17.021 -50.469 18.75 -50.469 Q20.479 -50.469 21.609 -49.339 Q22.739 -48.209 22.739 -46.48 V-40.469 H32.261 V-46.48 Q32.261 -48.209 33.391 -49.339 Q34.521 -50.469 36.25 -50.469 Q37.979 -50.469 39.109 -49.339 Q40.239 -48.209 40.239 -46.48 V-23.98 Q40.239 -22.251 39.109 -21.121 Q37.979 -19.991 36.25 -19.991 Q34.521 -19.991 33.391 -21.121 Q32.261 -22.251 32.261 -23.98 V-32.491 H22.739 Z M47.261 -40.67  55.239 -32.692 V-27.969 H60.027 Q60.027 -27.969 60.027 -27.969 Q60.027 -27.969 60.027 -27.969 L67.44 -20.491 Q66.77 -20.241 66.1 -20.116 Q65.431 -19.991 64.761 -19.991 H51.519 Q49.674 -19.991 48.467 -21.197 Q47.261 -22.404 47.261 -24.249 V-40.67 Z"/></g><g id="Regular-M" transform="matrix(1 0 0 1 1394.06 1126)"><path d="M95.375 14.145  10.5 -70.73 Q9.125 -72.105 9.062 -74.167 Q9 -76.23 10.5 -77.73 Q11.875 -79.105 14 -79.105 Q16.125 -79.105 17.5 -77.73 L102.5 7.02 Q104 8.52 103.938 10.52 Q103.875 12.52 102.5 14.02 Q101 15.52 98.938 15.583 Q96.875 15.645 95.375 14.145 Z M87.5 -30.23 V-21.98 L80 -29.48 V-46.48 Q80 -48.105 81.062 -49.167 Q82.125 -50.23 83.75 -50.23 H97.5 Q100.5 -50.23 102.75 -47.98 Q105 -45.73 105 -42.73 V-37.73 Q105 -35.48 103.688 -33.667 Q102.375 -31.855 100.5 -30.73 L103 -24.98 Q103.75 -23.23 102.75 -21.73 Q101.75 -20.23 99.75 -20.23 Q98.75 -20.23 97.875 -20.73 Q97 -21.23 96.625 -22.23 L93 -30.23 H87.5 Z M87.5 -37.73 H97.5 Q97.5 -37.73 97.5 -37.73 Q97.5 -37.73 97.5 -37.73 V-42.73 Q97.5 -42.73 97.5 -42.73 Q97.5 -42.73 97.5 -42.73 H87.5 V-37.73 Z M72.5 -36.98  59.25 -50.23 H65 Q68 -50.23 70.25 -47.98 Q72.5 -45.73 72.5 -42.73 V-36.98 Z M22.5 -32.73 V-23.98 Q22.5 -22.355 21.438 -21.292 Q20.375 -20.23 18.75 -20.23 Q17.125 -20.23 16.062 -21.292 Q15 -22.355 15 -23.98 V-46.48 Q15 -48.105 16.062 -49.167 Q17.125 -50.23 18.75 -50.23 Q20.375 -50.23 21.438 -49.167 Q22.5 -48.105 22.5 -46.48 V-40.23 H32.5 V-46.48 Q32.5 -48.105 33.562 -49.167 Q34.625 -50.23 36.25 -50.23 Q37.875 -50.23 38.938 -49.167 Q40 -48.105 40 -46.48 V-23.98 Q40 -22.355 38.938 -21.292 Q37.875 -20.23 36.25 -20.23 Q34.625 -20.23 33.562 -21.292 Q32.5 -22.355 32.5 -23.98 V-32.73 H22.5 Z M47.5 -40.73  55 -33.23 V-27.73 H60.625 Q60.625 -27.73 60.625 -27.73 Q60.625 -27.73 60.625 -27.73 L67.5 -20.73 Q66.875 -20.48 66.25 -20.355 Q65.625 -20.23 65 -20.23 H51.25 Q49.625 -20.23 48.562 -21.292 Q47.5 -22.355 47.5 -23.98 V-40.73 Z"/></g><g id="Light-M" transform="matrix(1 0 0 1 1098.18 1126)"><path d="M96 11.308  13.289 -71.403 Q12.25 -72.442 12.188 -73.975 Q12.125 -75.509 13.289 -76.672 Q14.375 -77.759 15.923 -77.759 Q17.471 -77.759 18.558 -76.672 L101.346 5.962 Q102.461 7.078 102.447 8.573 Q102.433 10.068 101.346 11.231 Q100.183 12.395 98.673 12.433 Q97.163 12.472 96 11.308 Z M86.731 -30.999 V-22.749 L80.769 -28.711 V-46.095 Q80.769 -47.528 81.76 -48.494 Q82.75 -49.461 84.183 -49.461 H96.731 Q99.731 -49.461 101.981 -47.211 Q104.231 -44.961 104.231 -41.961 V-38.499 Q104.231 -36.105 102.798 -34.244 Q101.365 -32.384 99.346 -31.403 L102.231 -24.836 Q102.837 -23.422 102.029 -22.211 Q101.221 -20.999 99.606 -20.999 Q98.798 -20.999 98.091 -21.403 Q97.385 -21.807 97.058 -22.615 L93.288 -30.999 H86.731 Z M86.731 -36.961 H96.731 Q97.308 -36.961 97.788 -37.441 Q98.269 -37.922 98.269 -38.499 V-41.961 Q98.269 -42.538 97.788 -43.018 Q97.308 -43.499 96.731 -43.499 H86.731 V-36.961 Z M71.731 -37.749  60.019 -49.461 H64.231 Q67.183 -49.461 69.457 -47.211 Q71.731 -44.961 71.731 -41.961 V-37.749 Z M21.731 -33.499 V-23.98 Q21.731 -22.692 20.885 -21.845 Q20.038 -20.999 18.75 -20.999 Q17.462 -20.999 16.615 -21.845 Q15.769 -22.692 15.769 -23.98 V-46.48 Q15.769 -47.768 16.615 -48.615 Q17.462 -49.461 18.75 -49.461 Q20.038 -49.461 20.885 -48.615 Q21.731 -47.768 21.731 -46.48 V-39.461 H33.269 V-46.48 Q33.269 -47.768 34.115 -48.615 Q34.962 -49.461 36.25 -49.461 Q37.538 -49.461 38.385 -48.615 Q39.231 -47.768 39.231 -46.48 V-23.98 Q39.231 -22.692 38.385 -21.845 Q37.538 -20.999 36.25 -20.999 Q34.962 -20.999 34.115 -21.845 Q33.269 -22.692 33.269 -23.98 V-33.499 H21.731 Z M48.269 -41.692  54.231 -35.73 V-26.961 H61.538 Q61.827 -26.961 62.092 -27.081 Q62.356 -27.201 62.596 -27.441 L67.788 -22.172 Q67.019 -21.634 66.106 -21.317 Q65.192 -20.999 64.231 -20.999 H51.683 Q50.25 -20.999 49.26 -21.99 Q48.269 -22.98 48.269 -24.413 V-41.692 Z"/></g><g id="Thin-M" transform="matrix(1 0 0 1 802.565 1126)"><path d="M96.625 8.472  16.077 -72.076 Q15.375 -72.778 15.312 -73.783 Q15.25 -74.788 16.077 -75.615 Q16.875 -76.413 17.846 -76.413 Q18.817 -76.413 19.615 -75.615 L100.192 4.905 Q100.923 5.635 100.957 6.626 Q100.99 7.616 100.192 8.443 Q99.365 9.27 98.409 9.285 Q97.452 9.299 96.625 8.472 Z M85.962 -31.768 V-23.518 L81.538 -27.941 V-45.711 Q81.538 -46.951 82.457 -47.821 Q83.375 -48.691 84.615 -48.691 H95.962 Q98.962 -48.691 101.212 -46.441 Q103.462 -44.191 103.462 -41.191 V-39.268 Q103.462 -36.73 101.909 -34.821 Q100.356 -32.913 98.192 -32.076 L101.462 -24.691 Q101.923 -23.615 101.308 -22.691 Q100.692 -21.768 99.462 -21.768 Q98.846 -21.768 98.308 -22.076 Q97.769 -22.384 97.49 -22.999 L93.577 -31.768 H85.962 Z M85.962 -36.191 H95.962 Q97.115 -36.191 98.077 -37.153 Q99.038 -38.115 99.038 -39.268 V-41.191 Q99.038 -42.345 98.077 -43.307 Q97.115 -44.268 95.962 -44.268 H85.962 V-36.191 Z M70.962 -38.518  60.788 -48.691 H63.462 Q66.365 -48.691 68.663 -46.441 Q70.962 -44.191 70.962 -41.191 V-38.518 Z M20.962 -34.268 V-23.98 Q20.962 -23.028 20.332 -22.398 Q19.702 -21.768 18.75 -21.768 Q17.798 -21.768 17.168 -22.398 Q16.538 -23.028 16.538 -23.98 V-46.48 Q16.538 -47.432 17.168 -48.062 Q17.798 -48.691 18.75 -48.691 Q19.702 -48.691 20.332 -48.062 Q20.962 -47.432 20.962 -46.48 V-38.691 H34.038 V-46.48 Q34.038 -47.432 34.668 -48.062 Q35.298 -48.691 36.25 -48.691 Q37.202 -48.691 37.832 -48.062 Q38.462 -47.432 38.462 -46.48 V-23.98 Q38.462 -23.028 37.832 -22.398 Q37.202 -21.768 36.25 -21.768 Q35.298 -21.768 34.668 -22.398 Q34.038 -23.028 34.038 -23.98 V-34.268 H20.962 Z M49.038 -42.653  53.462 -38.23 V-26.191 H62.452 Q63.029 -26.191 63.558 -26.432 Q64.087 -26.672 64.567 -27.153 L68.077 -23.615 Q67.163 -22.788 65.962 -22.278 Q64.76 -21.768 63.462 -21.768 H52.115 Q50.875 -21.768 49.957 -22.687 Q49.038 -23.605 49.038 -24.845 V-42.653 Z"/></g><g id="Ultralight-M" transform="matrix(1 0 0 1 506.415 1126)"><path d="M97 6.77  17.75 -72.48 Q17.25 -72.98 17.188 -73.667 Q17.125 -74.355 17.75 -74.98 Q18.375 -75.605 19 -75.605 Q19.625 -75.605 20.25 -74.98 L99.5 4.27 Q100 4.77 100.062 5.458 Q100.125 6.145 99.5 6.77 Q98.875 7.395 98.25 7.395 Q97.625 7.395 97 6.77 Z M85.5 -32.23 V-23.98 L82 -27.48 V-45.48 Q82 -46.605 82.875 -47.417 Q83.75 -48.23 84.875 -48.23 H95.5 Q98.5 -48.23 100.75 -45.98 Q103 -43.73 103 -40.73 V-39.73 Q103 -37.105 101.375 -35.167 Q99.75 -33.23 97.5 -32.48 L101 -24.605 Q101.375 -23.73 100.875 -22.98 Q100.375 -22.23 99.375 -22.23 Q98.875 -22.23 98.438 -22.48 Q98 -22.73 97.75 -23.23 L93.75 -32.23 H85.5 Z M85.5 -35.73 H95.5 Q97 -35.73 98.25 -36.98 Q99.5 -38.23 99.5 -39.73 V-40.73 Q99.5 -42.23 98.25 -43.48 Q97 -44.73 95.5 -44.73 H85.5 V-35.73 Z M70.5 -38.98  61.25 -48.23 H63 Q65.875 -48.23 68.188 -45.98 Q70.5 -43.73 70.5 -40.73 V-38.98 Z M20.5 -34.73 V-23.98 Q20.5 -23.23 20 -22.73 Q19.5 -22.23 18.75 -22.23 Q18 -22.23 17.5 -22.73 Q17 -23.23 17 -23.98 V-46.48 Q17 -47.23 17.5 -47.73 Q18 -48.23 18.75 -48.23 Q19.5 -48.23 20 -47.73 Q20.5 -47.23 20.5 -46.48 V-38.23 H34.5 V-46.48 Q34.5 -47.23 35 -47.73 Q35.5 -48.23 36.25 -48.23 Q37 -48.23 37.5 -47.73 Q38 -47.23 38 -46.48 V-23.98 Q38 -23.23 37.5 -22.73 Q37 -22.23 36.25 -22.23 Q35.5 -22.23 35 -22.73 Q34.5 -23.23 34.5 -23.98 V-34.73 H20.5 Z M49.5 -43.23  53 -39.73 V-25.73 H63 Q63.75 -25.73 64.438 -26.042 Q65.125 -26.355 65.75 -26.98 L68.25 -24.48 Q67.25 -23.48 65.875 -22.855 Q64.5 -22.23 63 -22.23 H52.375 Q51.25 -22.23 50.375 -23.105 Q49.5 -23.98 49.5 -25.105 V-43.23 Z"/></g><g id="Bold-S" transform="matrix(1 0 0 1 2294.23 696)"><path d="M70.911 -2.881  14.991 -58.801 Q13.972 -59.763 13.988 -61.057 Q14.005 -62.352 14.974 -63.269 Q15.977 -64.226 17.21 -64.176 Q18.443 -64.127 19.429 -63.141 L75.251 -7.122 Q76.139 -6.234 76.188 -4.952 Q76.237 -3.67 75.281 -2.782 Q74.363 -1.895 73.081 -1.944 Q71.799 -1.993 70.911 -2.881 Z M62.923 -30.299 V-28.523 L56.611 -34.737 V-41.147 Q56.611 -42.959 57.875 -44.223 Q59.139 -45.487 60.95 -45.487 H65.487 Q68.347 -45.487 70.073 -43.761 Q71.799 -42.035 71.799 -39.224 V-36.019 Q71.799 -34.441 71.158 -33.455 Q70.517 -32.468 69.333 -31.778 L70.532 -29.234 Q71.207 -27.734 70.221 -26.354 Q69.235 -24.973 67.657 -24.973 Q66.715 -24.973 66.003 -25.466 Q65.29 -25.959 64.797 -26.847 L63.429 -30.299 H62.923 Z M62.923 -36.019 H65.487 Q65.487 -36.019 65.487 -36.019 Q65.487 -36.019 65.487 -36.019 V-39.175 Q65.487 -39.175 65.487 -39.175 Q65.487 -39.175 65.487 -39.175 H62.923 V-36.019 Z M53.159 -38.386  46.058 -45.487 H46.847 Q49.707 -45.487 51.433 -43.761 Q53.159 -42.035 53.159 -39.175 V-38.386 Z M24.459 -32.863 V-28.162 Q24.459 -26.801 23.565 -25.887 Q22.671 -24.973 21.303 -24.973 Q19.935 -24.973 19.041 -25.866 Q18.147 -26.758 18.147 -28.124 V-42.294 Q18.147 -43.659 19.041 -44.573 Q19.935 -45.487 21.303 -45.487 Q22.671 -45.487 23.565 -44.593 Q24.459 -43.699 24.459 -42.331 V-39.175 H27.615 V-42.3 Q27.615 -43.659 28.509 -44.573 Q29.403 -45.487 30.771 -45.487 Q32.139 -45.487 33.033 -44.594 Q33.927 -43.702 33.927 -42.336 V-28.166 Q33.927 -26.801 33.033 -25.887 Q32.139 -24.973 30.771 -24.973 Q29.403 -24.973 28.509 -25.867 Q27.615 -26.761 27.615 -28.129 V-32.863 H24.459 Z M37.083 -39.767  43.395 -33.455 V-31.285 Q43.395 -31.285 44.381 -31.285 Q45.367 -31.285 45.367 -31.285 L50.397 -26.452 Q49.658 -25.663 48.671 -25.318 Q47.685 -24.973 46.551 -24.973 H41.422 Q39.611 -24.973 38.347 -26.237 Q37.083 -27.501 37.083 -29.344 V-39.767 Z"/></g><g id="Semibold-S" transform="matrix(1 0 0 1 1998.1 696)"><path d="M71.555 -3.138  15.248 -59.487 Q14.358 -60.32 14.353 -61.486 Q14.348 -62.652 15.231 -63.484 Q16.106 -64.312 17.231 -64.262 Q18.357 -64.213 19.215 -63.355 L75.465 -6.993 Q76.267 -6.191 76.295 -5.038 Q76.323 -3.884 75.495 -3.082 Q74.663 -2.281 73.51 -2.308 Q72.356 -2.336 71.555 -3.138 Z M62.322 -31.071 V-28.18 L56.697 -33.751 V-41.533 Q56.697 -43.029 57.754 -44.086 Q58.812 -45.144 60.307 -45.144 H65.83 Q68.304 -45.144 69.88 -43.568 Q71.456 -41.992 71.456 -39.567 V-36.362 Q71.456 -34.87 70.751 -33.798 Q70.045 -32.726 68.819 -32.035 L70.189 -29.019 Q70.778 -27.692 69.921 -26.504 Q69.063 -25.316 67.657 -25.316 Q66.824 -25.316 66.207 -25.745 Q65.59 -26.174 65.183 -26.933 L63.423 -31.071 H62.322 Z M62.322 -36.362 H65.83 Q65.83 -36.362 65.83 -36.362 Q65.83 -36.362 65.83 -36.362 V-39.518 Q65.83 -39.518 65.83 -39.518 Q65.83 -39.518 65.83 -39.518 H62.322 V-36.362 Z M52.687 -37.871  45.415 -45.144 H47.061 Q49.535 -45.144 51.111 -43.568 Q52.687 -41.992 52.687 -39.518 V-37.871 Z M24.116 -33.206 V-28.162 Q24.116 -26.949 23.319 -26.133 Q22.522 -25.316 21.303 -25.316 Q20.084 -25.316 19.287 -26.112 Q18.49 -26.907 18.49 -28.124 V-42.294 Q18.49 -43.511 19.287 -44.327 Q20.084 -45.144 21.303 -45.144 Q22.522 -45.144 23.319 -44.347 Q24.116 -43.55 24.116 -42.331 V-38.832 H27.958 V-42.3 Q27.958 -43.511 28.755 -44.327 Q29.552 -45.144 30.771 -45.144 Q31.99 -45.144 32.787 -44.348 Q33.584 -43.553 33.584 -42.336 V-28.166 Q33.584 -26.949 32.787 -26.133 Q31.99 -25.316 30.771 -25.316 Q29.552 -25.316 28.755 -26.113 Q27.958 -26.91 27.958 -28.129 V-33.206 H24.116 Z M37.426 -39.853  43.052 -34.227 V-30.942 H44.253 Q44.253 -30.942 45.239 -30.942 Q46.225 -30.942 46.225 -30.942 L50.483 -26.795 Q49.808 -26.006 48.886 -25.661 Q47.964 -25.316 46.894 -25.316 H41.037 Q39.541 -25.316 38.484 -26.374 Q37.426 -27.431 37.426 -28.958 V-39.853 Z"/></g><g id="Medium-S" transform="matrix(1 0 0 1 1701.85 696)"><path d="M72.037 -3.331  15.441 -60.002 Q14.647 -60.738 14.626 -61.808 Q14.605 -62.877 15.424 -63.645 Q16.202 -64.376 17.248 -64.327 Q18.293 -64.277 19.054 -63.516 L75.626 -6.897 Q76.364 -6.159 76.375 -5.102 Q76.387 -4.045 75.656 -3.308 Q74.889 -2.57 73.832 -2.582 Q72.774 -2.594 72.037 -3.331 Z M61.872 -31.65 V-27.923 L56.761 -33.011 V-41.823 Q56.761 -43.081 57.663 -43.984 Q58.566 -44.887 59.825 -44.887 H66.087 Q68.272 -44.887 69.735 -43.423 Q71.199 -41.96 71.199 -39.825 V-36.619 Q71.199 -35.191 70.445 -34.055 Q69.691 -32.919 68.433 -32.228 L69.932 -28.858 Q70.457 -27.659 69.696 -26.616 Q68.935 -25.573 67.657 -25.573 Q66.906 -25.573 66.361 -25.954 Q65.815 -26.334 65.472 -26.997 L63.419 -31.65 H61.872 Z M61.872 -36.619 H66.087 Q66.087 -36.619 66.087 -36.619 Q66.087 -36.619 66.087 -36.619 V-39.775 Q66.087 -39.775 66.087 -39.775 Q66.087 -39.775 66.087 -39.775 H61.872 V-36.619 Z M52.333 -37.486  44.932 -44.887 H47.222 Q49.407 -44.887 50.87 -43.423 Q52.333 -41.96 52.333 -39.775 V-37.486 Z M23.859 -33.463 V-28.162 Q23.859 -27.061 23.135 -26.317 Q22.41 -25.573 21.303 -25.573 Q20.196 -25.573 19.471 -26.296 Q18.747 -27.019 18.747 -28.124 V-42.294 Q18.747 -43.399 19.471 -44.143 Q20.196 -44.887 21.303 -44.887 Q22.41 -44.887 23.135 -44.163 Q23.859 -43.438 23.859 -42.331 V-38.575 H28.215 V-42.3 Q28.215 -43.399 28.939 -44.143 Q29.664 -44.887 30.771 -44.887 Q31.878 -44.887 32.603 -44.164 Q33.327 -43.441 33.327 -42.336 V-28.166 Q33.327 -27.061 32.603 -26.317 Q31.878 -25.573 30.771 -25.573 Q29.664 -25.573 28.939 -26.297 Q28.215 -27.022 28.215 -28.129 V-33.463 H23.859 Z M37.683 -39.917  42.795 -34.806 V-30.685 H44.896 Q44.896 -30.685 45.882 -30.685 Q46.868 -30.685 46.868 -30.685 L50.547 -27.053 Q49.92 -26.264 49.047 -25.919 Q48.173 -25.573 47.151 -25.573 H40.747 Q39.489 -25.573 38.586 -26.476 Q37.683 -27.379 37.683 -28.669 V-39.917 Z"/></g><g id="Regular-S" transform="matrix(1 0 0 1 1405.73 696)"><path d="M72.391 -3.473  15.583 -60.379 Q14.86 -61.045 14.827 -62.044 Q14.794 -63.042 15.566 -63.763 Q16.273 -64.423 17.259 -64.374 Q18.246 -64.324 18.936 -63.634 L75.744 -6.826 Q76.434 -6.136 76.434 -5.149 Q76.434 -4.163 75.774 -3.473 Q75.054 -2.782 74.067 -2.782 Q73.081 -2.782 72.391 -3.473 Z M61.542 -32.074 V-27.734 L56.808 -32.468 V-42.035 Q56.808 -43.12 57.597 -43.909 Q58.386 -44.698 59.471 -44.698 H66.276 Q68.249 -44.698 69.629 -43.317 Q71.01 -41.936 71.01 -40.013 V-36.808 Q71.01 -35.427 70.221 -34.244 Q69.432 -33.06 68.15 -32.37 L69.743 -28.74 Q70.221 -27.636 69.531 -26.699 Q68.84 -25.762 67.657 -25.762 Q66.966 -25.762 66.473 -26.107 Q65.98 -26.452 65.684 -27.044 L63.416 -32.074 H61.542 Z M61.542 -36.808 H66.276 Q66.276 -36.808 66.276 -36.808 Q66.276 -36.808 66.276 -36.808 V-39.964 Q66.276 -39.964 66.276 -39.964 Q66.276 -39.964 66.276 -39.964 H61.542 V-36.808 Z M52.074 -37.202  44.579 -44.698 H47.34 Q49.312 -44.698 50.693 -43.317 Q52.074 -41.936 52.074 -39.964 V-37.202 Z M23.67 -33.652 V-28.162 Q23.67 -27.143 22.999 -26.452 Q22.329 -25.762 21.303 -25.762 Q20.277 -25.762 19.607 -26.431 Q18.936 -27.1 18.936 -28.124 V-42.294 Q18.936 -43.317 19.607 -44.008 Q20.277 -44.698 21.303 -44.698 Q22.329 -44.698 22.999 -44.027 Q23.67 -43.357 23.67 -42.331 V-38.386 H28.404 V-42.3 Q28.404 -43.317 29.075 -44.008 Q29.745 -44.698 30.771 -44.698 Q31.797 -44.698 32.467 -44.029 Q33.138 -43.36 33.138 -42.336 V-28.166 Q33.138 -27.143 32.467 -26.452 Q31.797 -25.762 30.771 -25.762 Q29.745 -25.762 29.075 -26.433 Q28.404 -27.103 28.404 -28.129 V-33.652 H23.67 Z M37.872 -39.964  42.606 -35.23 V-30.496 H45.367 Q45.367 -30.496 46.354 -30.496 Q47.34 -30.496 47.34 -30.496 L50.595 -27.241 Q50.003 -26.452 49.165 -26.107 Q48.326 -25.762 47.34 -25.762 H40.535 Q39.45 -25.762 38.661 -26.551 Q37.872 -27.34 37.872 -28.456 V-39.964 Z"/></g><g id="Light-S" transform="matrix(1 0 0 1 1109.75 696)"><path d="M72.884 -5.711  17.783 -60.91 Q17.325 -61.311 17.292 -61.892 Q17.26 -62.473 17.766 -62.928 Q18.246 -63.361 18.777 -63.311 Q19.308 -63.262 19.771 -62.799 L74.834 -7.661 Q75.22 -7.274 75.258 -6.686 Q75.296 -6.098 74.864 -5.673 Q74.409 -5.248 73.859 -5.267 Q73.309 -5.286 72.884 -5.711 Z M60.935 -32.681 V-28.341 L57.415 -31.862 V-41.732 Q57.415 -42.665 58.147 -43.378 Q58.879 -44.091 59.812 -44.091 H65.669 Q67.642 -44.091 69.022 -42.71 Q70.403 -41.33 70.403 -39.406 V-37.415 Q70.403 -35.92 69.519 -34.699 Q68.635 -33.478 67.239 -32.901 L69.136 -28.627 Q69.5 -27.788 68.962 -27.078 Q68.423 -26.369 67.543 -26.369 Q67.004 -26.369 66.644 -26.638 Q66.284 -26.908 66.026 -27.348 L63.644 -32.681 H60.935 Z M60.935 -36.201 H65.669 Q66.124 -36.201 66.504 -36.58 Q66.883 -36.96 66.883 -37.415 V-39.357 Q66.883 -39.812 66.504 -40.192 Q66.124 -40.571 65.669 -40.571 H60.935 V-36.201 Z M51.467 -37.809  45.185 -44.091 H46.733 Q48.668 -44.091 50.067 -42.71 Q51.467 -41.33 51.467 -39.357 V-37.809 Z M23.063 -34.259 V-28.162 Q23.063 -27.408 22.563 -26.889 Q22.063 -26.369 21.303 -26.369 Q20.543 -26.369 20.043 -26.867 Q19.543 -27.366 19.543 -28.124 V-42.294 Q19.543 -43.052 20.043 -43.571 Q20.543 -44.091 21.303 -44.091 Q22.063 -44.091 22.563 -43.591 Q23.063 -43.091 23.063 -42.331 V-37.779 H29.011 V-42.3 Q29.011 -43.052 29.511 -43.571 Q30.011 -44.091 30.771 -44.091 Q31.531 -44.091 32.031 -43.593 Q32.531 -43.094 32.531 -42.336 V-28.166 Q32.531 -27.408 32.031 -26.889 Q31.531 -26.369 30.771 -26.369 Q30.011 -26.369 29.511 -26.869 Q29.011 -27.369 29.011 -28.129 V-34.259 H23.063 Z M38.479 -40.723  41.999 -37.203 V-29.889 H46.088 Q46.316 -29.889 47.511 -29.984 Q48.706 -30.079 48.895 -30.268 L50.822 -28.379 Q50.117 -27.363 49.051 -26.866 Q47.985 -26.369 46.733 -26.369 H40.876 Q39.943 -26.369 39.211 -27.101 Q38.479 -27.833 38.479 -28.798 V-40.723 Z"/></g><g id="Thin-S" transform="matrix(1 0 0 1 814.015 696)"><path d="M73.377 -7.949  19.983 -61.441 Q19.791 -61.576 19.758 -61.74 Q19.725 -61.904 19.966 -62.094 Q20.218 -62.299 20.294 -62.25 Q20.37 -62.2 20.605 -61.965 L73.923 -8.495 Q74.007 -8.412 74.083 -8.222 Q74.158 -8.032 73.953 -7.873 Q73.764 -7.714 73.65 -7.751 Q73.536 -7.789 73.377 -7.949 Z M60.328 -33.288 V-28.948 L58.022 -31.255 V-41.428 Q58.022 -42.21 58.697 -42.847 Q59.372 -43.484 60.154 -43.484 H65.062 Q67.035 -43.484 68.415 -42.103 Q69.796 -40.723 69.796 -38.799 V-38.022 Q69.796 -36.413 68.817 -35.154 Q67.839 -33.895 66.329 -33.432 L68.529 -28.513 Q68.78 -27.939 68.393 -27.458 Q68.006 -26.976 67.429 -26.976 Q67.042 -26.976 66.815 -27.169 Q66.587 -27.363 66.367 -27.651 L63.871 -33.288 H60.328 Z M60.328 -35.594 H65.062 Q65.973 -35.594 66.731 -36.353 Q67.49 -37.111 67.49 -38.022 V-38.75 Q67.49 -39.661 66.731 -40.419 Q65.973 -41.178 65.062 -41.178 H60.328 V-35.594 Z M50.86 -38.416  45.792 -43.484 H46.126 Q48.023 -43.484 49.442 -42.103 Q50.86 -40.723 50.86 -38.75 V-38.416 Z M22.456 -34.866 V-28.162 Q22.456 -27.674 22.127 -27.325 Q21.798 -26.976 21.303 -26.976 Q20.808 -26.976 20.479 -27.304 Q20.15 -27.631 20.15 -28.124 V-42.294 Q20.15 -42.786 20.479 -43.135 Q20.808 -43.484 21.303 -43.484 Q21.798 -43.484 22.127 -43.155 Q22.456 -42.826 22.456 -42.331 V-37.172 H29.618 V-42.3 Q29.618 -42.786 29.947 -43.135 Q30.276 -43.484 30.771 -43.484 Q31.266 -43.484 31.595 -43.156 Q31.924 -42.829 31.924 -42.336 V-28.166 Q31.924 -27.674 31.595 -27.325 Q31.266 -26.976 30.771 -26.976 Q30.276 -26.976 29.947 -27.305 Q29.618 -27.634 29.618 -28.129 V-34.866 H22.456 Z M39.086 -41.481  41.392 -39.175 V-29.282 H46.809 Q47.264 -29.282 48.668 -29.472 Q50.071 -29.662 50.45 -30.041 L51.05 -29.517 Q50.231 -28.273 48.937 -27.625 Q47.643 -26.976 46.126 -26.976 H41.218 Q40.436 -26.976 39.761 -27.651 Q39.086 -28.326 39.086 -29.139 V-41.481 Z"/></g><g id="Ultralight-S" transform="matrix(1 0 0 1 517.792 696)"><path d="M73.673 -9.292  21.303 -61.76 Q21.27 -61.735 21.237 -61.649 Q21.204 -61.563 21.286 -61.593 Q21.402 -61.661 21.204 -61.612 Q21.007 -61.563 21.106 -61.464 L73.377 -8.996 Q73.278 -9.094 73.377 -9.144 Q73.476 -9.193 73.407 -9.193 Q73.377 -9.193 73.525 -9.242 Q73.673 -9.292 73.673 -9.292 Z M59.964 -33.652 V-29.312 L58.386 -30.89 V-41.246 Q58.386 -41.936 59.027 -42.528 Q59.668 -43.12 60.358 -43.12 H64.698 Q66.671 -43.12 68.051 -41.739 Q69.432 -40.358 69.432 -38.435 V-38.386 Q69.432 -36.709 68.396 -35.427 Q67.361 -34.145 65.783 -33.751 L68.165 -28.445 Q68.347 -28.03 68.051 -27.685 Q67.755 -27.34 67.361 -27.34 Q67.065 -27.34 66.917 -27.488 Q66.769 -27.636 66.572 -27.833 L64.008 -33.652 H59.964 Z M59.964 -35.23 H64.698 Q65.882 -35.23 66.868 -36.216 Q67.854 -37.202 67.854 -38.386 Q67.854 -39.569 66.868 -40.556 Q65.882 -41.542 64.698 -41.542 H59.964 V-35.23 Z M50.496 -38.78  46.157 -43.12 H45.762 Q47.636 -43.12 49.066 -41.739 Q50.496 -40.358 50.496 -38.386 V-38.78 Z M22.092 -35.23 V-28.162 Q22.092 -27.833 21.865 -27.587 Q21.638 -27.34 21.303 -27.34 Q20.968 -27.34 20.741 -27.565 Q20.514 -27.791 20.514 -28.124 V-42.294 Q20.514 -42.627 20.741 -42.873 Q20.968 -43.12 21.303 -43.12 Q21.638 -43.12 21.865 -42.893 Q22.092 -42.666 22.092 -42.331 V-36.808 H29.982 V-42.3 Q29.982 -42.627 30.209 -42.873 Q30.436 -43.12 30.771 -43.12 Q31.106 -43.12 31.333 -42.895 Q31.56 -42.669 31.56 -42.336 V-28.166 Q31.56 -27.833 31.333 -27.587 Q31.106 -27.34 30.771 -27.34 Q30.436 -27.34 30.209 -27.567 Q29.982 -27.794 29.982 -28.129 V-35.23 H22.092 Z M39.45 -41.936  41.028 -40.358 V-28.918 H47.241 Q47.833 -28.918 49.362 -29.165 Q50.891 -29.411 51.384 -29.904 L51.186 -30.2 Q50.299 -28.819 48.869 -28.08 Q47.439 -27.34 45.762 -27.34 H41.422 Q40.732 -27.34 40.091 -27.981 Q39.45 -28.622 39.45 -29.344 V-41.936 Z"/></g></g></svg>