<svg xmlns="http://www.w3.org/2000/svg" version="1.1" width="3300" height="2000"><g id="Notes"><style>
    text {
      font-family: monospace;
      text-anchor: middle;
    }
    text.emphasis {
      font-weight:bold;
    }
    text.lanchor {
      text-anchor: start;
    }
  </style><rect height="2200" id="artboard" fill="white" width="3300" x="0" y="0"/><line id="" style="fill:none;stroke:black;stroke-width:0.5;" x1="263" x2="3036" y1="292" y2="292"/><text class="lanchor emphasis" transform="matrix(1 0 0 1 263 322)">Weight/Scale Variations</text><text transform="matrix(1 0 0 1 559.711 322)">Ultralight</text><text transform="matrix(1 0 0 1 856.422 322)">Thin</text><text transform="matrix(1 0 0 1 1153.13 322)">Light</text><text transform="matrix(1 0 0 1 1449.84 322)">Regular</text><text transform="matrix(1 0 0 1 1746.56 322)">Medium</text><text transform="matrix(1 0 0 1 2043.27 322)">Semibold</text><text transform="matrix(1 0 0 1 2339.98 322)">Bold</text><text transform="matrix(1 0 0 1 2636.69 322)">Heavy</text><text transform="matrix(1 0 0 1 2933.4 322)">Black</text><text id="template-version" style="text-anchor: end;" transform="matrix(1 0 0 1 3036 1933)">Template v.1.0</text><text class="lanchor" transform="matrix(1 0 0 1 263 726)">Small</text><text class="lanchor" transform="matrix(1 0 0 1 263 1156)">Medium</text><text class="lanchor" transform="matrix(1 0 0 1 263 1586)">Large</text></g><g id="Guides"><g id="H-reference" style="fill:#27AAE1;stroke:none;" transform="matrix(1 0 0 1 339 696)"><path d="M 54.9316 0 L 57.666 0 L 30.5664 -70.459 L 28.0762 -70.459 L 0.976562 0 L 3.66211 0 L 12.9395 -24.4629 L 45.7031 -24.4629 Z M 29.1992 -67.0898 L 29.4434 -67.0898 L 44.8242 -26.709 L 13.8184 -26.709 Z"/></g><line id="Baseline-S" style="fill:none;stroke:#27AAE1;opacity:1;stroke-width:0.577;" x1="263" x2="3036" y1="696" y2="696"/><line id="Capline-S" style="fill:none;stroke:#27AAE1;opacity:1;stroke-width:0.577;" x1="263" x2="3036" y1="625.541" y2="625.541"/><g id="H-reference" style="fill:#27AAE1;stroke:none;" transform="matrix(1 0 0 1 339 1126)"><path d="M 54.9316 0 L 57.666 0 L 30.5664 -70.459 L 28.0762 -70.459 L 0.976562 0 L 3.66211 0 L 12.9395 -24.4629 L 45.7031 -24.4629 Z M 29.1992 -67.0898 L 29.4434 -67.0898 L 44.8242 -26.709 L 13.8184 -26.709 Z"/></g><line id="Baseline-M" style="fill:none;stroke:#27AAE1;opacity:1;stroke-width:0.577;" x1="263" x2="3036" y1="1126" y2="1126"/><line id="Capline-M" style="fill:none;stroke:#27AAE1;opacity:1;stroke-width:0.577;" x1="263" x2="3036" y1="1055.54" y2="1055.54"/><g id="H-reference" style="fill:#27AAE1;stroke:none;" transform="matrix(1 0 0 1 339 1556)"><path d="M 54.9316 0 L 57.666 0 L 30.5664 -70.459 L 28.0762 -70.459 L 0.976562 0 L 3.66211 0 L 12.9395 -24.4629 L 45.7031 -24.4629 Z M 29.1992 -67.0898 L 29.4434 -67.0898 L 44.8242 -26.709 L 13.8184 -26.709 Z"/></g><line id="Baseline-L" style="fill:none;stroke:#27AAE1;opacity:1;stroke-width:0.577;" x1="263" x2="3036" y1="1556" y2="1556"/><line id="Capline-L" style="fill:none;stroke:#27AAE1;opacity:1;stroke-width:0.577;" x1="263" x2="3036" y1="1485.54" y2="1485.54"/><rect height="119.336" id="left-margin" style="fill:darkred;stroke:none;opacity:0.4;" width="12.4512" x="1394.06" y="1030.79"/><rect height="119.336" id="right-margin" style="fill:darkgreen;stroke:none;opacity:0.4;" width="12.4512" x="1502.5112" y="1030.79"/><rect x="1406.5112" y="1045" width="96" height="96" fill="none" stroke="blue" stroke-dasharray="5"/><rect x="1394.06" y="1030.79" width="120.9024" height="119.336" fill="none" stroke="blue"/></g><g id="Symbols"><g id="Bold-L" transform="matrix(1 0 0 1 2266 1556)"><path d="M46.924 -46.517 V-19.911 Q46.924 -18.164 48.071 -17.022 Q49.219 -15.88 50.974 -15.88 Q52.568 -15.88 53.777 -17.022 Q54.986 -18.164 54.986 -19.911 V-50.549 Q54.986 -52.296 53.763 -53.438 Q52.541 -54.58 50.955 -54.58 H34.508 Q32.761 -54.58 31.618 -53.433 Q30.476 -52.285 30.476 -50.53 Q30.476 -48.775 31.618 -47.646 Q32.761 -46.517 34.508 -46.517 H46.924 Z M65.468 -15.88 H82.237 Q84.499 -15.88 86.029 -17.41 Q87.559 -18.94 87.559 -21.201 V-49.097 Q87.559 -51.428 86.029 -53.004 Q84.499 -54.58 82.237 -54.58 H65.468 Q63.206 -54.58 61.676 -53.004 Q60.146 -51.428 60.146 -49.097 V-21.201 Q60.146 -18.94 61.676 -17.41 Q63.206 -15.88 65.468 -15.88 Z M68.209 -23.942 V-46.517 H79.496 V-23.942 H68.209 Z M100.459 -30.392  112.875 -17.17 Q113.198 -16.847 115.529 -15.88 Q118.035 -15.88 119.002 -18.137 Q119.97 -20.395 118.519 -22.372 L106.586 -35.169 L118.519 -48.291 Q119.97 -50.016 118.998 -52.298 Q118.025 -54.58 115.616 -54.58 Q114.683 -54.58 114.094 -54.257 Q113.505 -53.935 112.909 -53.29 L100.539 -40.067 V-50.549 Q100.539 -52.296 99.299 -53.438 Q98.06 -54.58 96.368 -54.58 Q94.676 -54.58 93.536 -53.438 Q92.396 -52.296 92.396 -50.549 V-19.911 Q92.396 -18.164 93.544 -17.022 Q94.691 -15.88 96.366 -15.88 Q98.04 -15.88 99.249 -17.022 Q100.459 -18.164 100.459 -19.911 V-30.392 Z M30.476 26.851 Q24.179 26.851 19.749 22.421 Q15.319 17.991 15.319 11.694 V-82.154 Q15.319 -88.517 19.749 -92.995 Q24.179 -97.472 30.476 -97.472 H124.324 Q130.687 -97.472 135.165 -92.995 Q139.643 -88.517 139.643 -82.154 V11.694 Q139.643 17.991 135.165 22.421 Q130.687 26.851 124.324 26.851 H30.476 Z M30.476 11.694 H124.324 Q124.324 11.694 124.324 11.694 Q124.324 11.694 124.324 11.694 V-82.154 Q124.324 -82.154 124.324 -82.154 Q124.324 -82.154 124.324 -82.154 H30.476 Q30.476 -82.154 30.476 -82.154 Q30.476 -82.154 30.476 -82.154 V11.694 Q30.476 11.694 30.476 11.694 Q30.476 11.694 30.476 11.694 Z"/></g><g id="Semibold-L" transform="matrix(1 0 0 1 1970.27 1556)"><path d="M46.573 -46.517 V-19.911 Q46.573 -18.164 47.721 -17.022 Q48.868 -15.88 50.623 -15.88 Q52.287 -15.88 53.461 -17.022 Q54.636 -18.164 54.636 -19.911 V-50.549 Q54.636 -52.296 53.448 -53.438 Q52.26 -54.58 50.604 -54.58 H33.877 Q32.13 -54.58 30.988 -53.433 Q29.845 -52.285 29.845 -50.53 Q29.845 -48.775 30.988 -47.646 Q32.13 -46.517 33.877 -46.517 H46.573 Z M65.468 -15.88 H82.237 Q84.499 -15.88 86.029 -17.41 Q87.559 -18.94 87.559 -21.201 V-49.097 Q87.559 -51.428 86.029 -53.004 Q84.499 -54.58 82.237 -54.58 H65.468 Q63.206 -54.58 61.676 -53.004 Q60.146 -51.428 60.146 -49.097 V-21.201 Q60.146 -18.94 61.676 -17.41 Q63.206 -15.88 65.468 -15.88 Z M68.209 -23.942 V-46.517 H79.496 V-23.942 H68.209 Z M100.949 -30.392  113.366 -17.17 Q113.688 -16.847 116.058 -15.88 Q118.596 -15.88 119.598 -18.208 Q120.601 -20.535 119.009 -22.424 L107.077 -35.195 L119.009 -48.221 Q120.601 -49.967 119.596 -52.274 Q118.591 -54.58 116.107 -54.58 Q115.244 -54.58 114.623 -54.257 Q114.002 -53.935 113.385 -53.29 L100.995 -40.067 V-50.549 Q100.995 -52.296 99.795 -53.438 Q98.596 -54.58 96.877 -54.58 Q95.157 -54.58 94.022 -53.438 Q92.887 -52.296 92.887 -50.549 V-19.911 Q92.887 -18.164 94.035 -17.022 Q95.182 -15.88 96.891 -15.88 Q98.601 -15.88 99.775 -17.022 Q100.949 -18.164 100.949 -19.911 V-30.392 Z M29.845 25.099 Q24.604 25.099 20.838 21.332 Q17.071 17.566 17.071 12.325 V-82.785 Q17.071 -88.064 20.838 -91.857 Q24.604 -95.65 29.845 -95.65 H124.955 Q130.234 -95.65 134.027 -91.857 Q137.82 -88.064 137.82 -82.785 V12.325 Q137.82 17.566 134.027 21.332 Q130.234 25.099 124.955 25.099 H29.845 Z M29.845 12.325 H124.955 Q124.955 12.325 124.955 12.325 Q124.955 12.325 124.955 12.325 V-82.785 Q124.955 -82.785 124.955 -82.785 Q124.955 -82.785 124.955 -82.785 H29.845 Q29.845 -82.785 29.845 -82.785 Q29.845 -82.785 29.845 -82.785 V12.325 Q29.845 12.325 29.845 12.325 Q29.845 12.325 29.845 12.325 Z"/></g><g id="Medium-L" transform="matrix(1 0 0 1 1674.31 1556)"><path d="M46.31 -46.517 V-19.911 Q46.31 -18.164 47.458 -17.022 Q48.605 -15.88 50.36 -15.88 Q52.077 -15.88 53.225 -17.022 Q54.373 -18.164 54.373 -19.911 V-50.549 Q54.373 -52.296 53.211 -53.438 Q52.05 -54.58 50.342 -54.58 H33.403 Q31.656 -54.58 30.514 -53.433 Q29.372 -52.285 29.372 -50.53 Q29.372 -48.775 30.514 -47.646 Q31.656 -46.517 33.403 -46.517 H46.31 Z M65.468 -15.88 H82.237 Q84.499 -15.88 86.029 -17.41 Q87.559 -18.94 87.559 -21.201 V-49.097 Q87.559 -51.428 86.029 -53.004 Q84.499 -54.58 82.237 -54.58 H65.468 Q63.206 -54.58 61.676 -53.004 Q60.146 -51.428 60.146 -49.097 V-21.201 Q60.146 -18.94 61.676 -17.41 Q63.206 -15.88 65.468 -15.88 Z M68.209 -23.942 V-46.517 H79.496 V-23.942 H68.209 Z M101.318 -30.392  113.734 -17.17 Q114.056 -16.847 116.454 -15.88 Q119.017 -15.88 120.045 -18.26 Q121.074 -20.64 119.378 -22.463 L107.445 -35.215 L119.378 -48.169 Q121.074 -49.931 120.044 -52.255 Q119.014 -54.58 116.475 -54.58 Q115.664 -54.58 115.02 -54.257 Q114.375 -53.935 113.742 -53.29 L101.337 -40.067 V-50.549 Q101.337 -52.296 100.167 -53.438 Q98.998 -54.58 97.258 -54.58 Q95.518 -54.58 94.387 -53.438 Q93.255 -52.296 93.255 -50.549 V-19.911 Q93.255 -18.164 94.403 -17.022 Q95.55 -15.88 97.286 -15.88 Q99.022 -15.88 100.169 -17.022 Q101.318 -18.164 101.318 -19.911 V-30.392 Z M29.372 23.784 Q24.922 23.784 21.654 20.516 Q18.386 17.248 18.386 12.798 V-83.258 Q18.386 -87.724 21.654 -91.003 Q24.922 -94.283 29.372 -94.283 H125.428 Q129.894 -94.283 133.173 -91.003 Q136.453 -87.724 136.453 -83.258 V12.798 Q136.453 17.248 133.173 20.516 Q129.894 23.784 125.428 23.784 H29.372 Z M29.372 12.798 H125.428 Q125.428 12.798 125.428 12.798 Q125.428 12.798 125.428 12.798 V-83.258 Q125.428 -83.258 125.428 -83.258 Q125.428 -83.258 125.428 -83.258 H29.372 Q29.372 -83.258 29.372 -83.258 Q29.372 -83.258 29.372 -83.258 V12.798 Q29.372 12.798 29.372 12.798 Q29.372 12.798 29.372 12.798 Z"/></g><g id="Regular-L" transform="matrix(1 0 0 1 1378.56 1556)"><path d="M46.117 -46.517 V-19.911 Q46.117 -18.164 47.265 -17.022 Q48.413 -15.88 50.167 -15.88 Q51.922 -15.88 53.051 -17.022 Q54.18 -18.164 54.18 -19.911 V-50.549 Q54.18 -52.296 53.038 -53.438 Q51.896 -54.58 50.149 -54.58 H33.056 Q31.309 -54.58 30.167 -53.433 Q29.025 -52.285 29.025 -50.53 Q29.025 -48.775 30.167 -47.646 Q31.309 -46.517 33.056 -46.517 H46.117 Z M65.468 -15.88 H82.237 Q84.499 -15.88 86.029 -17.41 Q87.559 -18.94 87.559 -21.201 V-49.097 Q87.559 -51.428 86.029 -53.004 Q84.499 -54.58 82.237 -54.58 H65.468 Q63.206 -54.58 61.676 -53.004 Q60.146 -51.428 60.146 -49.097 V-21.201 Q60.146 -18.94 61.676 -17.41 Q63.206 -15.88 65.468 -15.88 Z M68.209 -23.942 V-46.517 H79.496 V-23.942 H68.209 Z M101.588 -30.392  114.004 -17.17 Q114.326 -16.847 116.745 -15.88 Q119.325 -15.88 120.373 -18.299 Q121.421 -20.717 119.648 -22.491 L107.715 -35.23 L119.648 -48.13 Q121.421 -49.904 120.373 -52.242 Q119.325 -54.58 116.745 -54.58 Q115.973 -54.58 115.311 -54.257 Q114.649 -53.935 114.004 -53.29 L101.588 -40.067 V-50.549 Q101.588 -52.296 100.44 -53.438 Q99.292 -54.58 97.538 -54.58 Q95.782 -54.58 94.654 -53.438 Q93.525 -52.296 93.525 -50.549 V-19.911 Q93.525 -18.164 94.672 -17.022 Q95.82 -15.88 97.575 -15.88 Q99.33 -15.88 100.459 -17.022 Q101.588 -18.164 101.588 -19.911 V-30.392 Z M29.025 22.82 Q25.155 22.82 22.253 19.918 Q19.35 17.015 19.35 13.145 V-83.605 Q19.35 -87.475 22.253 -90.377 Q25.155 -93.28 29.025 -93.28 H125.775 Q129.645 -93.28 132.548 -90.377 Q135.45 -87.475 135.45 -83.605 V13.145 Q135.45 17.015 132.548 19.918 Q129.645 22.82 125.775 22.82 H29.025 Z M29.025 13.145 H125.775 Q125.775 13.145 125.775 13.145 Q125.775 13.145 125.775 13.145 V-83.605 Q125.775 -83.605 125.775 -83.605 Q125.775 -83.605 125.775 -83.605 H29.025 Q29.025 -83.605 29.025 -83.605 Q29.025 -83.605 29.025 -83.605 V13.145 Q29.025 13.145 29.025 13.145 Q29.025 13.145 29.025 13.145 Z"/></g><g id="Light-L" transform="matrix(1 0 0 1 1082.77 1556)"><path d="M46.614 -47.076 V-20.159 Q46.614 -18.739 47.543 -17.806 Q48.473 -16.872 49.888 -16.872 Q51.302 -16.872 52.214 -17.806 Q53.126 -18.739 53.126 -20.159 V-50.363 Q53.126 -51.756 52.192 -52.672 Q51.259 -53.588 49.839 -53.588 H34.421 Q33.001 -53.588 32.067 -52.658 Q31.134 -51.728 31.134 -50.314 Q31.134 -48.899 32.067 -47.987 Q33.001 -47.076 34.421 -47.076 H46.614 Z M65.592 -16.872 H81.679 Q83.762 -16.872 85.165 -18.274 Q86.566 -19.676 86.566 -21.759 V-48.601 Q86.566 -50.727 85.165 -52.157 Q83.762 -53.588 81.679 -53.588 H65.592 Q63.454 -53.588 62.079 -52.157 Q60.704 -50.727 60.704 -48.601 V-21.759 Q60.704 -19.676 62.079 -18.274 Q63.454 -16.872 65.592 -16.872 Z M67.216 -23.384 V-47.076 H80.054 V-23.384 H67.216 Z M100.719 -31.757  114.5 -17.852 Q114.822 -17.53 116.683 -16.872 Q118.829 -16.872 119.66 -18.888 Q120.491 -20.904 118.965 -22.367 L106.102 -35.354 L119.027 -48.316 Q120.553 -49.718 119.691 -51.653 Q118.829 -53.588 116.745 -53.588 Q116.159 -53.588 115.652 -53.327 Q115.145 -53.067 114.624 -52.608 L100.719 -38.827 V-50.363 Q100.719 -51.756 99.781 -52.672 Q98.842 -53.588 97.413 -53.588 Q96.012 -53.588 95.11 -52.672 Q94.207 -51.756 94.207 -50.363 V-20.159 Q94.207 -18.739 95.137 -17.806 Q96.067 -16.872 97.481 -16.872 Q98.896 -16.872 99.807 -17.806 Q100.719 -18.739 100.719 -20.159 V-31.757 Z M31.878 19.595 Q28.084 19.595 25.33 16.84 Q22.575 14.086 22.575 10.292 V-80.752 Q22.575 -84.546 25.33 -87.3 Q28.084 -90.055 31.878 -90.055 H122.922 Q126.716 -90.055 129.47 -87.3 Q132.225 -84.546 132.225 -80.752 V10.292 Q132.225 14.086 129.47 16.84 Q126.716 19.595 122.922 19.595 H31.878 Z M31.878 12.277 H122.922 Q123.666 12.277 124.287 11.657 Q124.907 11.036 124.907 10.292 V-80.752 Q124.907 -81.496 124.287 -82.117 Q123.666 -82.737 122.922 -82.737 H31.878 Q31.134 -82.737 30.513 -82.117 Q29.893 -81.496 29.893 -80.752 V10.292 Q29.893 11.036 30.513 11.657 Q31.134 12.277 31.878 12.277 Z"/></g><g id="Thin-L" transform="matrix(1 0 0 1 787.282 1556)"><path d="M47.11 -47.634 V-20.407 Q47.11 -19.314 47.822 -18.589 Q48.534 -17.865 49.608 -17.865 Q50.682 -17.865 51.377 -18.589 Q52.071 -19.314 52.071 -20.407 V-50.177 Q52.071 -51.216 51.347 -51.906 Q50.622 -52.595 49.529 -52.595 H35.785 Q34.691 -52.595 33.967 -51.883 Q33.242 -51.171 33.242 -50.097 Q33.242 -49.023 33.967 -48.328 Q34.691 -47.634 35.785 -47.634 H47.11 Z M65.716 -17.865 H81.121 Q83.026 -17.865 84.3 -19.139 Q85.574 -20.413 85.574 -22.318 V-48.105 Q85.574 -50.026 84.3 -51.311 Q83.026 -52.595 81.121 -52.595 H65.716 Q63.702 -52.595 62.482 -51.311 Q61.263 -50.026 61.263 -48.105 V-22.318 Q61.263 -20.413 62.482 -19.139 Q63.702 -17.865 65.716 -17.865 Z M66.224 -22.826 V-47.634 H80.613 V-22.826 H66.224 Z M99.851 -33.121  114.996 -18.534 Q115.319 -18.212 116.621 -17.865 Q118.333 -17.865 118.947 -19.477 Q119.561 -21.09 118.283 -22.243 L104.49 -35.478 L118.407 -48.502 Q119.685 -49.532 119.009 -51.063 Q118.333 -52.595 116.745 -52.595 Q116.345 -52.595 115.993 -52.397 Q115.641 -52.198 115.244 -51.926 L99.851 -37.587 V-50.177 Q99.851 -51.216 99.121 -51.906 Q98.391 -52.595 97.289 -52.595 Q96.241 -52.595 95.565 -51.906 Q94.889 -51.216 94.889 -50.177 V-20.407 Q94.889 -19.314 95.601 -18.589 Q96.313 -17.865 97.387 -17.865 Q98.462 -17.865 99.156 -18.589 Q99.851 -19.314 99.851 -20.407 V-33.121 Z M34.731 16.37 Q31.013 16.37 28.406 13.764 Q25.8 11.157 25.8 7.439 V-77.899 Q25.8 -81.617 28.406 -84.224 Q31.013 -86.83 34.731 -86.83 H120.069 Q123.787 -86.83 126.394 -84.224 Q129 -81.617 129 -77.899 V7.439 Q129 11.157 126.394 13.764 Q123.787 16.37 120.069 16.37 H34.731 Z M34.731 11.408 H120.069 Q121.558 11.408 122.798 10.168 Q124.038 8.928 124.038 7.439 V-77.899 Q124.038 -79.388 122.798 -80.628 Q121.558 -81.868 120.069 -81.868 H34.731 Q33.242 -81.868 32.002 -80.628 Q30.762 -79.388 30.762 -77.899 V7.439 Q30.762 8.928 32.002 10.168 Q33.242 11.408 34.731 11.408 Z"/></g><g id="Ultralight-L" transform="matrix(1 0 0 1 491.205 1556)"><path d="M47.407 -47.969 V-20.556 Q47.407 -19.659 47.989 -19.059 Q48.57 -18.46 49.44 -18.46 Q50.31 -18.46 50.874 -19.059 Q51.439 -19.659 51.439 -20.556 V-50.065 Q51.439 -50.893 50.839 -51.446 Q50.24 -52 49.343 -52 H36.604 Q35.706 -52 35.107 -51.419 Q34.508 -50.838 34.508 -49.967 Q34.508 -49.097 35.107 -48.533 Q35.706 -47.969 36.604 -47.969 H47.407 Z M65.79 -18.46 H80.786 Q82.584 -18.46 83.781 -19.657 Q84.979 -20.855 84.979 -22.652 V-47.807 Q84.979 -49.605 83.781 -50.803 Q82.584 -52 80.786 -52 H65.79 Q63.851 -52 62.724 -50.803 Q61.598 -49.605 61.598 -47.807 V-22.652 Q61.598 -20.855 62.724 -19.657 Q63.851 -18.46 65.79 -18.46 Z M65.629 -22.491 V-47.969 H80.948 V-22.491 H65.629 Z M99.33 -33.94  115.294 -18.944 Q115.616 -18.621 116.584 -18.46 Q118.035 -18.46 118.519 -19.831 Q119.002 -21.201 117.874 -22.169 L103.523 -35.552 L118.035 -48.614 Q119.164 -49.42 118.599 -50.71 Q118.035 -52 116.745 -52 Q116.457 -52 116.198 -51.839 Q115.939 -51.677 115.616 -51.516 L99.33 -36.842 V-50.065 Q99.33 -50.893 98.725 -51.446 Q98.121 -52 97.215 -52 Q96.379 -52 95.839 -51.446 Q95.299 -50.893 95.299 -50.065 V-20.556 Q95.299 -19.659 95.88 -19.059 Q96.461 -18.46 97.331 -18.46 Q98.201 -18.46 98.766 -19.059 Q99.33 -19.659 99.33 -20.556 V-33.94 Z M36.443 14.435 Q32.77 14.435 30.253 11.917 Q27.735 9.4 27.735 5.728 V-76.187 Q27.735 -79.86 30.253 -82.378 Q32.77 -84.895 36.443 -84.895 H118.358 Q122.03 -84.895 124.548 -82.378 Q127.065 -79.86 127.065 -76.187 V5.728 Q127.065 9.4 124.548 11.917 Q122.03 14.435 118.358 14.435 H36.443 Z M36.443 10.888 H118.358 Q120.293 10.888 121.905 9.275 Q123.517 7.663 123.517 5.728 V-76.187 Q123.517 -78.122 121.905 -79.735 Q120.293 -81.347 118.358 -81.347 H36.443 Q34.508 -81.347 32.895 -79.735 Q31.283 -78.122 31.283 -76.187 V5.728 Q31.283 7.663 32.895 9.275 Q34.508 10.888 36.443 10.888 Z"/></g><g id="Bold-M" transform="matrix(1 0 0 1 2281.8 1126)"><path d="M30.75 -42.73 V-23.98 Q30.75 -22.355 31.812 -21.292 Q32.875 -20.23 34.5 -20.23 Q36.125 -20.23 37.188 -21.292 Q38.25 -22.355 38.25 -23.98 V-46.48 Q38.25 -48.105 37.188 -49.167 Q36.125 -50.23 34.5 -50.23 H30.25 Q28.625 -50.23 27.562 -49.167 Q26.5 -48.105 26.5 -46.48 Q26.5 -44.855 27.562 -43.792 Q28.625 -42.73 30.25 -42.73 H30.75 Z M47.5 -20.23 H60 Q62.125 -20.23 63.562 -21.667 Q65 -23.105 65 -25.23 V-45.23 Q65 -47.355 63.562 -48.792 Q62.125 -50.23 60 -50.23 H47.5 Q45.375 -50.23 43.938 -48.792 Q42.5 -47.355 42.5 -45.23 V-25.23 Q42.5 -23.105 43.938 -21.667 Q45.375 -20.23 47.5 -20.23 Z M50 -27.73 V-42.73 H57.5 V-27.73 H50 Z M75.875 -31.48  83.621 -21.605 Q83.875 -21.23 86.365 -20.23 Q88.5 -20.23 89.562 -22.167 Q90.625 -24.105 89.25 -25.888 L82.125 -35.183 L89.25 -44.605 Q90.625 -46.317 89.625 -48.273 Q88.625 -50.23 86.375 -50.23 Q85.5 -50.23 84.797 -49.855 Q84.094 -49.48 83.625 -48.855 L75.937 -38.98 V-46.48 Q75.937 -48.105 74.866 -49.167 Q73.794 -50.23 72.156 -50.23 Q70.518 -50.23 69.446 -49.167 Q68.375 -48.105 68.375 -46.48 V-23.98 Q68.375 -22.355 69.438 -21.292 Q70.5 -20.23 72.125 -20.23 Q73.75 -20.23 74.812 -21.292 Q75.875 -22.355 75.875 -23.98 V-31.48 Z M26.5 14.02 Q19.875 14.02 15.312 9.458 Q10.75 4.895 10.75 -1.73 V-68.73 Q10.75 -75.355 15.312 -79.917 Q19.875 -84.48 26.5 -84.48 H93.5 Q100.125 -84.48 104.688 -79.917 Q109.25 -75.355 109.25 -68.73 V-1.73 Q109.25 4.895 104.688 9.458 Q100.125 14.02 93.5 14.02 H26.5 Z M26.5 -1.73 H93.5 Q93.5 -1.73 93.5 -1.73 Q93.5 -1.73 93.5 -1.73 V-68.73 Q93.5 -68.73 93.5 -68.73 Q93.5 -68.73 93.5 -68.73 H26.5 Q26.5 -68.73 26.5 -68.73 Q26.5 -68.73 26.5 -68.73 V-1.73 Q26.5 -1.73 26.5 -1.73 Q26.5 -1.73 26.5 -1.73 Z"/></g><g id="Semibold-M" transform="matrix(1 0 0 1 1985.97 1126)"><path d="M30.424 -42.73 V-23.98 Q30.424 -22.355 31.486 -21.292 Q32.549 -20.23 34.174 -20.23 Q35.799 -20.23 36.861 -21.292 Q37.924 -22.355 37.924 -23.98 V-46.48 Q37.924 -48.105 36.861 -49.167 Q35.799 -50.23 34.174 -50.23 H29.598 Q27.973 -50.23 26.91 -49.167 Q25.848 -48.105 25.848 -46.48 Q25.848 -44.855 26.91 -43.792 Q27.973 -42.73 29.598 -42.73 H30.424 Z M47.5 -20.23 H60 Q62.125 -20.23 63.562 -21.667 Q65 -23.105 65 -25.23 V-45.23 Q65 -47.355 63.562 -48.792 Q62.125 -50.23 60 -50.23 H47.5 Q45.375 -50.23 43.938 -48.792 Q42.5 -47.355 42.5 -45.23 V-25.23 Q42.5 -23.105 43.938 -21.667 Q45.375 -20.23 47.5 -20.23 Z M50 -27.73 V-42.73 H57.5 V-27.73 H50 Z M76.418 -31.48  84.112 -21.605 Q84.364 -21.23 86.913 -20.23 Q89.098 -20.23 90.133 -22.222 Q91.168 -24.214 89.793 -25.982 L82.668 -35.203 L89.793 -44.551 Q91.168 -46.279 90.168 -48.255 Q89.168 -50.23 86.918 -50.23 Q86.043 -50.23 85.32 -49.855 Q84.596 -49.48 84.114 -48.855 L76.454 -38.98 V-46.48 Q76.454 -48.105 75.386 -49.167 Q74.319 -50.23 72.686 -50.23 Q71.053 -50.23 69.986 -49.167 Q68.918 -48.105 68.918 -46.48 V-23.98 Q68.918 -22.355 69.981 -21.292 Q71.043 -20.23 72.668 -20.23 Q74.293 -20.23 75.356 -21.292 Q76.418 -22.355 76.418 -23.98 V-31.48 Z M25.848 12.172 Q20.31 12.172 16.454 8.316 Q12.598 4.46 12.598 -1.078 V-69.382 Q12.598 -74.92 16.454 -78.776 Q20.31 -82.632 25.848 -82.632 H94.152 Q99.69 -82.632 103.546 -78.776 Q107.402 -74.92 107.402 -69.382 V-1.078 Q107.402 4.46 103.546 8.316 Q99.69 12.172 94.152 12.172 H25.848 Z M25.848 -1.078 H94.152 Q94.152 -1.078 94.152 -1.078 Q94.152 -1.078 94.152 -1.078 V-69.382 Q94.152 -69.382 94.152 -69.382 Q94.152 -69.382 94.152 -69.382 H25.848 Q25.848 -69.382 25.848 -69.382 Q25.848 -69.382 25.848 -69.382 V-1.078 Q25.848 -1.078 25.848 -1.078 Q25.848 -1.078 25.848 -1.078 Z"/></g><g id="Medium-M" transform="matrix(1 0 0 1 1689.91 1126)"><path d="M30.179 -42.73 V-23.98 Q30.179 -22.355 31.242 -21.292 Q32.304 -20.23 33.929 -20.23 Q35.554 -20.23 36.617 -21.292 Q37.679 -22.355 37.679 -23.98 V-46.48 Q37.679 -48.105 36.617 -49.167 Q35.554 -50.23 33.929 -50.23 H29.109 Q27.484 -50.23 26.421 -49.167 Q25.359 -48.105 25.359 -46.48 Q25.359 -44.855 26.421 -43.792 Q27.484 -42.73 29.109 -42.73 H30.179 Z M47.5 -20.23 H60 Q62.125 -20.23 63.562 -21.667 Q65 -23.105 65 -25.23 V-45.23 Q65 -47.355 63.562 -48.792 Q62.125 -50.23 60 -50.23 H47.5 Q45.375 -50.23 43.938 -48.792 Q42.5 -47.355 42.5 -45.23 V-25.23 Q42.5 -23.105 43.938 -21.667 Q45.375 -20.23 47.5 -20.23 Z M50 -27.73 V-42.73 H57.5 V-27.73 H50 Z M76.826 -31.48  84.48 -21.605 Q84.731 -21.23 87.324 -20.23 Q89.546 -20.23 90.561 -22.263 Q91.576 -24.295 90.201 -26.053 L83.076 -35.219 L90.201 -44.51 Q91.576 -46.251 90.576 -48.24 Q89.576 -50.23 87.326 -50.23 Q86.451 -50.23 85.712 -49.855 Q84.974 -49.48 84.481 -48.855 L76.841 -38.98 V-46.48 Q76.841 -48.105 75.776 -49.167 Q74.712 -50.23 73.084 -50.23 Q71.455 -50.23 70.391 -49.167 Q69.326 -48.105 69.326 -46.48 V-23.98 Q69.326 -22.355 70.389 -21.292 Q71.451 -20.23 73.076 -20.23 Q74.701 -20.23 75.764 -21.292 Q76.826 -22.355 76.826 -23.98 V-31.48 Z M25.359 10.786 Q20.636 10.786 17.31 7.46 Q13.984 4.134 13.984 -0.589 V-69.871 Q13.984 -74.594 17.31 -77.92 Q20.636 -81.246 25.359 -81.246 H94.641 Q99.364 -81.246 102.69 -77.92 Q106.016 -74.594 106.016 -69.871 V-0.589 Q106.016 4.134 102.69 7.46 Q99.364 10.786 94.641 10.786 H25.359 Z M25.359 -0.589 H94.641 Q94.641 -0.589 94.641 -0.589 Q94.641 -0.589 94.641 -0.589 V-69.871 Q94.641 -69.871 94.641 -69.871 Q94.641 -69.871 94.641 -69.871 H25.359 Q25.359 -69.871 25.359 -69.871 Q25.359 -69.871 25.359 -69.871 V-0.589 Q25.359 -0.589 25.359 -0.589 Q25.359 -0.589 25.359 -0.589 Z"/></g><g id="Regular-M" transform="matrix(1 0 0 1 1394.06 1126)"><path d="M30 -42.73 V-23.98 Q30 -22.355 31.062 -21.292 Q32.125 -20.23 33.75 -20.23 Q35.375 -20.23 36.438 -21.292 Q37.5 -22.355 37.5 -23.98 V-46.48 Q37.5 -48.105 36.438 -49.167 Q35.375 -50.23 33.75 -50.23 H28.75 Q27.125 -50.23 26.062 -49.167 Q25 -48.105 25 -46.48 Q25 -44.855 26.062 -43.792 Q27.125 -42.73 28.75 -42.73 H30 Z M47.5 -20.23 H60 Q62.125 -20.23 63.562 -21.667 Q65 -23.105 65 -25.23 V-45.23 Q65 -47.355 63.562 -48.792 Q62.125 -50.23 60 -50.23 H47.5 Q45.375 -50.23 43.938 -48.792 Q42.5 -47.355 42.5 -45.23 V-25.23 Q42.5 -23.105 43.938 -21.667 Q45.375 -20.23 47.5 -20.23 Z M50 -27.73 V-42.73 H57.5 V-27.73 H50 Z M77.125 -31.48  84.75 -21.605 Q85 -21.23 87.625 -20.23 Q89.875 -20.23 90.875 -22.292 Q91.875 -24.355 90.5 -26.105 L83.375 -35.23 L90.5 -44.48 Q91.875 -46.23 90.875 -48.23 Q89.875 -50.23 87.625 -50.23 Q86.75 -50.23 86 -49.855 Q85.25 -49.48 84.75 -48.855 L77.125 -38.98 V-46.48 Q77.125 -48.105 76.062 -49.167 Q75 -50.23 73.375 -50.23 Q71.75 -50.23 70.688 -49.167 Q69.625 -48.105 69.625 -46.48 V-23.98 Q69.625 -22.355 70.688 -21.292 Q71.75 -20.23 73.375 -20.23 Q75 -20.23 76.062 -21.292 Q77.125 -22.355 77.125 -23.98 V-31.48 Z M25 9.77 Q20.875 9.77 17.938 6.833 Q15 3.895 15 -0.23 V-70.23 Q15 -74.355 17.938 -77.292 Q20.875 -80.23 25 -80.23 H95 Q99.125 -80.23 102.062 -77.292 Q105 -74.355 105 -70.23 V-0.23 Q105 3.895 102.062 6.833 Q99.125 9.77 95 9.77 H25 Z M25 -0.23 H95 Q95 -0.23 95 -0.23 Q95 -0.23 95 -0.23 V-70.23 Q95 -70.23 95 -70.23 Q95 -70.23 95 -70.23 H25 Q25 -70.23 25 -70.23 Q25 -70.23 25 -70.23 V-0.23 Q25 -0.23 25 -0.23 Q25 -0.23 25 -0.23 Z"/></g><g id="Light-M" transform="matrix(1 0 0 1 1098.18 1126)"><path d="M31.923 -43.499 V-23.98 Q31.923 -22.692 32.769 -21.845 Q33.615 -20.999 34.904 -20.999 Q36.192 -20.999 37.038 -21.845 Q37.885 -22.692 37.885 -23.98 V-46.48 Q37.885 -47.768 37.038 -48.615 Q36.192 -49.461 34.904 -49.461 H28.942 Q27.654 -49.461 26.808 -48.615 Q25.962 -47.768 25.962 -46.48 Q25.962 -45.192 26.808 -44.345 Q27.654 -43.499 28.942 -43.499 H31.923 Z M48.462 -20.999 H60.577 Q62.462 -20.999 63.731 -22.268 Q65 -23.538 65 -25.422 V-45.038 Q65 -46.922 63.731 -48.191 Q62.462 -49.461 60.577 -49.461 H48.462 Q46.577 -49.461 45.308 -48.191 Q44.039 -46.922 44.039 -45.038 V-25.422 Q44.039 -23.538 45.308 -22.268 Q46.577 -20.999 48.462 -20.999 Z M50 -26.961 V-43.499 H59.039 V-26.961 H50 Z M76.885 -32.538  86.096 -22.038 Q86.346 -21.711 88.346 -20.999 Q90.212 -20.999 90.995 -22.701 Q91.779 -24.403 90.596 -25.816 L82.173 -35.326 L90.644 -44.817 Q91.827 -46.182 91.019 -47.821 Q90.212 -49.461 88.394 -49.461 Q87.76 -49.461 87.178 -49.182 Q86.596 -48.903 86.192 -48.422 L76.885 -38.018 V-46.48 Q76.885 -47.768 76.038 -48.615 Q75.192 -49.461 73.904 -49.461 Q72.615 -49.461 71.769 -48.615 Q70.923 -47.768 70.923 -46.48 V-23.98 Q70.923 -22.692 71.769 -21.845 Q72.615 -20.999 73.904 -20.999 Q75.192 -20.999 76.038 -21.845 Q76.885 -22.692 76.885 -23.98 V-32.538 Z M26.539 7.27 Q22.75 7.27 20.125 4.645 Q17.5 2.02 17.5 -1.769 V-68.691 Q17.5 -72.48 20.125 -75.105 Q22.75 -77.73 26.539 -77.73 H93.461 Q97.25 -77.73 99.875 -75.105 Q102.5 -72.48 102.5 -68.691 V-1.769 Q102.5 2.02 99.875 4.645 Q97.25 7.27 93.461 7.27 H26.539 Z M26.539 -0.23 H93.461 Q94.038 -0.23 94.519 -0.711 Q95 -1.192 95 -1.769 V-68.691 Q95 -69.268 94.519 -69.749 Q94.038 -70.23 93.461 -70.23 H26.539 Q25.962 -70.23 25.481 -69.749 Q25 -69.268 25 -68.691 V-1.769 Q25 -1.192 25.481 -0.711 Q25.962 -0.23 26.539 -0.23 Z"/></g><g id="Thin-M" transform="matrix(1 0 0 1 802.565 1126)"><path d="M33.846 -44.268 V-23.98 Q33.846 -23.028 34.476 -22.398 Q35.106 -21.768 36.058 -21.768 Q37.01 -21.768 37.639 -22.398 Q38.269 -23.028 38.269 -23.98 V-46.48 Q38.269 -47.432 37.639 -48.062 Q37.01 -48.691 36.058 -48.691 H29.135 Q28.183 -48.691 27.553 -48.062 Q26.923 -47.432 26.923 -46.48 Q26.923 -45.528 27.553 -44.898 Q28.183 -44.268 29.135 -44.268 H33.846 Z M49.423 -21.768 H61.154 Q62.798 -21.768 63.899 -22.869 Q65 -23.97 65 -25.615 V-44.845 Q65 -46.49 63.899 -47.591 Q62.798 -48.691 61.154 -48.691 H49.423 Q47.779 -48.691 46.678 -47.591 Q45.577 -46.49 45.577 -44.845 V-25.615 Q45.577 -23.97 46.678 -22.869 Q47.779 -21.768 49.423 -21.768 Z M50 -26.191 V-44.268 H60.577 V-26.191 H50 Z M76.644 -33.595  87.442 -22.47 Q87.692 -22.191 89.067 -21.768 Q90.548 -21.768 91.115 -23.11 Q91.683 -24.451 90.692 -25.528 L80.971 -35.422 L90.788 -45.153 Q91.779 -46.134 91.163 -47.413 Q90.548 -48.691 89.163 -48.691 Q88.769 -48.691 88.356 -48.509 Q87.942 -48.326 87.635 -47.99 L76.644 -37.057 V-46.48 Q76.644 -47.432 76.014 -48.062 Q75.385 -48.691 74.433 -48.691 Q73.481 -48.691 72.851 -48.062 Q72.221 -47.432 72.221 -46.48 V-23.98 Q72.221 -23.028 72.851 -22.398 Q73.481 -21.768 74.433 -21.768 Q75.385 -21.768 76.014 -22.398 Q76.644 -23.028 76.644 -23.98 V-33.595 Z M28.077 4.77 Q24.625 4.77 22.312 2.458 Q20 0.145 20 -3.307 V-67.153 Q20 -70.605 22.312 -72.917 Q24.625 -75.23 28.077 -75.23 H91.923 Q95.375 -75.23 97.688 -72.917 Q100 -70.605 100 -67.153 V-3.307 Q100 0.145 97.688 2.458 Q95.375 4.77 91.923 4.77 H28.077 Z M28.077 -0.23 H91.923 Q93.077 -0.23 94.038 -1.191 Q95 -2.153 95 -3.307 V-67.153 Q95 -68.307 94.038 -69.268 Q93.077 -70.23 91.923 -70.23 H28.077 Q26.923 -70.23 25.962 -69.268 Q25 -68.307 25 -67.153 V-3.307 Q25 -2.153 25.962 -1.191 Q26.923 -0.23 28.077 -0.23 Z"/></g><g id="Ultralight-M" transform="matrix(1 0 0 1 506.415 1126)"><path d="M35 -44.73 V-23.98 Q35 -23.23 35.5 -22.73 Q36 -22.23 36.75 -22.23 Q37.5 -22.23 38 -22.73 Q38.5 -23.23 38.5 -23.98 V-46.48 Q38.5 -47.23 38 -47.73 Q37.5 -48.23 36.75 -48.23 H29.25 Q28.5 -48.23 28 -47.73 Q27.5 -47.23 27.5 -46.48 Q27.5 -45.73 28 -45.23 Q28.5 -44.73 29.25 -44.73 H35 Z M50 -22.23 H61.5 Q63 -22.23 64 -23.23 Q65 -24.23 65 -25.73 V-44.73 Q65 -46.23 64 -47.23 Q63 -48.23 61.5 -48.23 H50 Q48.5 -48.23 47.5 -47.23 Q46.5 -46.23 46.5 -44.73 V-25.73 Q46.5 -24.23 47.5 -23.23 Q48.5 -22.23 50 -22.23 Z M50 -25.73 V-44.73 H61.5 V-25.73 H50 Z M76.5 -34.23  88.25 -22.73 Q88.5 -22.48 89.5 -22.23 Q90.75 -22.23 91.188 -23.355 Q91.625 -24.48 90.75 -25.355 L80.25 -35.48 L90.875 -45.355 Q91.75 -46.105 91.25 -47.167 Q90.75 -48.23 89.625 -48.23 Q89.375 -48.23 89.062 -48.105 Q88.75 -47.98 88.5 -47.73 L76.5 -36.48 V-46.48 Q76.5 -47.23 76 -47.73 Q75.5 -48.23 74.75 -48.23 Q74 -48.23 73.5 -47.73 Q73 -47.23 73 -46.48 V-23.98 Q73 -23.23 73.5 -22.73 Q74 -22.23 74.75 -22.23 Q75.5 -22.23 76 -22.73 Q76.5 -23.23 76.5 -23.98 V-34.23 Z M29 3.27 Q25.75 3.27 23.625 1.145 Q21.5 -0.98 21.5 -4.23 V-66.23 Q21.5 -69.48 23.625 -71.605 Q25.75 -73.73 29 -73.73 H91 Q94.25 -73.73 96.375 -71.605 Q98.5 -69.48 98.5 -66.23 V-4.23 Q98.5 -0.98 96.375 1.145 Q94.25 3.27 91 3.27 H29 Z M29 -0.23 H91 Q92.5 -0.23 93.75 -1.48 Q95 -2.73 95 -4.23 V-66.23 Q95 -67.73 93.75 -68.98 Q92.5 -70.23 91 -70.23 H29 Q27.5 -70.23 26.25 -68.98 Q25 -67.73 25 -66.23 V-4.23 Q25 -2.73 26.25 -1.48 Q27.5 -0.23 29 -0.23 Z"/></g><g id="Bold-S" transform="matrix(1 0 0 1 2294.23 696)"><path d="M28.996 -39.964 V-28.165 Q28.996 -27.143 29.666 -26.452 Q30.337 -25.762 31.363 -25.762 Q32.388 -25.762 33.059 -26.431 Q33.73 -27.1 33.73 -28.124 V-42.294 Q33.73 -43.317 33.059 -44.008 Q32.388 -44.698 31.363 -44.698 H27.221 Q26.195 -44.698 25.524 -44.027 Q24.854 -43.357 24.854 -42.331 Q24.854 -41.305 25.524 -40.635 Q26.195 -39.964 27.221 -39.964 H28.996 Z M40.239 -25.762 H49.707 Q50.713 -25.762 51.393 -26.443 Q52.074 -27.123 52.074 -28.129 V-42.331 Q52.074 -43.337 51.393 -44.017 Q50.713 -44.698 49.707 -44.698 H40.239 Q39.233 -44.698 38.553 -44.017 Q37.872 -43.337 37.872 -42.331 V-28.129 Q37.872 -27.123 38.553 -26.443 Q39.233 -25.762 40.239 -25.762 Z M42.606 -30.496 V-39.964 H47.34 V-30.496 H42.606 Z M60.556 -32.863  65.484 -26.65 Q65.586 -26.551 67.126 -25.762 Q68.446 -25.762 69.087 -26.896 Q69.728 -28.03 68.939 -29.141 L64.501 -35.193 L69.038 -41.345 Q69.827 -42.4 69.2 -43.549 Q68.573 -44.698 67.164 -44.698 Q66.623 -44.698 66.197 -44.456 Q65.771 -44.214 65.487 -43.81 L60.605 -37.597 V-42.331 Q60.605 -43.357 59.927 -44.027 Q59.249 -44.698 58.213 -44.698 Q57.177 -44.698 56.499 -44.029 Q55.822 -43.36 55.822 -42.336 V-28.166 Q55.822 -27.143 56.492 -26.452 Q57.163 -25.762 58.189 -25.762 Q59.214 -25.762 59.885 -26.433 Q60.556 -27.103 60.556 -28.129 V-32.863 Z M22.486 1.261 Q17.585 1.261 14.217 -2.107 Q10.849 -5.475 10.849 -10.376 V-60.083 Q10.849 -64.985 14.217 -68.353 Q17.585 -71.721 22.486 -71.721 H72.194 Q77.095 -71.721 80.463 -68.353 Q83.831 -64.985 83.831 -60.083 V-10.376 Q83.831 -5.475 80.463 -2.107 Q77.095 1.261 72.194 1.261 H22.486 Z M22.486 -10.376 H72.194 Q72.194 -10.376 72.194 -10.376 Q72.194 -10.376 72.194 -10.376 V-60.083 Q72.194 -60.083 72.194 -60.083 Q72.194 -60.083 72.194 -60.083 H22.486 Q22.486 -60.083 22.486 -60.083 Q22.486 -60.083 22.486 -60.083 V-10.376 Q22.486 -10.376 22.486 -10.376 Q22.486 -10.376 22.486 -10.376 Z"/></g><g id="Semibold-S" transform="matrix(1 0 0 1 1998.1 696)"><path d="M28.738 -39.964 V-28.165 Q28.738 -27.143 29.409 -26.452 Q30.08 -25.762 31.105 -25.762 Q32.131 -25.762 32.802 -26.431 Q33.472 -27.1 33.472 -28.124 V-42.294 Q33.472 -43.317 32.802 -44.008 Q32.131 -44.698 31.105 -44.698 H26.706 Q25.68 -44.698 25.01 -44.027 Q24.339 -43.357 24.339 -42.331 Q24.339 -41.305 25.01 -40.635 Q25.68 -39.964 26.706 -39.964 H28.738 Z M40.239 -25.762 H49.707 Q50.713 -25.762 51.393 -26.443 Q52.074 -27.123 52.074 -28.129 V-42.331 Q52.074 -43.337 51.393 -44.017 Q50.713 -44.698 49.707 -44.698 H40.239 Q39.233 -44.698 38.553 -44.017 Q37.872 -43.337 37.872 -42.331 V-28.129 Q37.872 -27.123 38.553 -26.443 Q39.233 -25.762 40.239 -25.762 Z M42.606 -30.496 V-39.964 H47.34 V-30.496 H42.606 Z M60.985 -32.863  65.871 -26.65 Q65.972 -26.551 67.558 -25.762 Q68.917 -25.762 69.537 -26.939 Q70.157 -28.116 69.368 -29.216 L64.93 -35.209 L69.466 -41.302 Q70.255 -42.37 69.629 -43.534 Q69.002 -44.698 67.592 -44.698 Q67.052 -44.698 66.61 -44.456 Q66.168 -44.214 65.873 -43.81 L61.012 -37.597 V-42.331 Q61.012 -43.357 60.338 -44.027 Q59.663 -44.698 58.631 -44.698 Q57.6 -44.698 56.925 -44.029 Q56.251 -43.36 56.251 -42.336 V-28.166 Q56.251 -27.143 56.921 -26.452 Q57.592 -25.762 58.618 -25.762 Q59.643 -25.762 60.314 -26.433 Q60.985 -27.103 60.985 -28.129 V-32.863 Z M21.972 -0.197 Q17.928 -0.197 15.117 -3.007 Q12.307 -5.818 12.307 -9.862 V-60.598 Q12.307 -64.642 15.117 -67.453 Q17.928 -70.263 21.972 -70.263 H72.708 Q76.752 -70.263 79.563 -67.453 Q82.373 -64.642 82.373 -60.598 V-9.862 Q82.373 -5.818 79.563 -3.007 Q76.752 -0.197 72.708 -0.197 H21.972 Z M21.972 -9.862 H72.708 Q72.708 -9.862 72.708 -9.862 Q72.708 -9.862 72.708 -9.862 V-60.598 Q72.708 -60.598 72.708 -60.598 Q72.708 -60.598 72.708 -60.598 H21.972 Q21.972 -60.598 21.972 -60.598 Q21.972 -60.598 21.972 -60.598 V-9.862 Q21.972 -9.862 21.972 -9.862 Q21.972 -9.862 21.972 -9.862 Z"/></g><g id="Medium-S" transform="matrix(1 0 0 1 1701.85 696)"><path d="M28.546 -39.964 V-28.165 Q28.546 -27.143 29.216 -26.452 Q29.887 -25.762 30.913 -25.762 Q31.938 -25.762 32.609 -26.431 Q33.28 -27.1 33.28 -28.124 V-42.294 Q33.28 -43.317 32.609 -44.008 Q31.938 -44.698 30.913 -44.698 H26.32 Q25.294 -44.698 24.624 -44.027 Q23.953 -43.357 23.953 -42.331 Q23.953 -41.305 24.624 -40.635 Q25.294 -39.964 26.32 -39.964 H28.546 Z M40.239 -25.762 H49.707 Q50.713 -25.762 51.393 -26.443 Q52.074 -27.123 52.074 -28.129 V-42.331 Q52.074 -43.337 51.393 -44.017 Q50.713 -44.698 49.707 -44.698 H40.239 Q39.233 -44.698 38.553 -44.017 Q37.872 -43.337 37.872 -42.331 V-28.129 Q37.872 -27.123 38.553 -26.443 Q39.233 -25.762 40.239 -25.762 Z M42.606 -30.496 V-39.964 H47.34 V-30.496 H42.606 Z M61.306 -32.863  66.162 -26.65 Q66.261 -26.551 67.882 -25.762 Q69.271 -25.762 69.875 -26.971 Q70.478 -28.18 69.689 -29.271 L65.251 -35.221 L69.788 -41.27 Q70.577 -42.347 69.95 -43.523 Q69.324 -44.698 67.914 -44.698 Q67.374 -44.698 66.919 -44.456 Q66.465 -44.214 66.162 -43.81 L61.318 -37.597 V-42.331 Q61.318 -43.357 60.645 -44.027 Q59.973 -44.698 58.945 -44.698 Q57.917 -44.698 57.244 -44.029 Q56.572 -43.36 56.572 -42.336 V-28.166 Q56.572 -27.143 57.243 -26.452 Q57.913 -25.762 58.939 -25.762 Q59.965 -25.762 60.636 -26.433 Q61.306 -27.103 61.306 -28.129 V-32.863 Z M21.586 -1.29 Q18.185 -1.29 15.793 -3.683 Q13.4 -6.075 13.4 -9.476 V-60.984 Q13.4 -64.385 15.793 -66.777 Q18.185 -69.17 21.586 -69.17 H73.094 Q76.495 -69.17 78.887 -66.777 Q81.28 -64.385 81.28 -60.984 V-9.476 Q81.28 -6.075 78.887 -3.683 Q76.495 -1.29 73.094 -1.29 H21.586 Z M21.586 -9.476 H73.094 Q73.094 -9.476 73.094 -9.476 Q73.094 -9.476 73.094 -9.476 V-60.984 Q73.094 -60.984 73.094 -60.984 Q73.094 -60.984 73.094 -60.984 H21.586 Q21.586 -60.984 21.586 -60.984 Q21.586 -60.984 21.586 -60.984 V-9.476 Q21.586 -9.476 21.586 -9.476 Q21.586 -9.476 21.586 -9.476 Z"/></g><g id="Regular-S" transform="matrix(1 0 0 1 1405.73 696)"><path d="M28.404 -39.964 V-28.165 Q28.404 -27.143 29.075 -26.452 Q29.745 -25.762 30.771 -25.762 Q31.797 -25.762 32.467 -26.431 Q33.138 -27.1 33.138 -28.124 V-42.294 Q33.138 -43.317 32.467 -44.008 Q31.797 -44.698 30.771 -44.698 H26.037 Q25.011 -44.698 24.341 -44.027 Q23.67 -43.357 23.67 -42.331 Q23.67 -41.305 24.341 -40.635 Q25.011 -39.964 26.037 -39.964 H28.404 Z M40.239 -25.762 H49.707 Q50.713 -25.762 51.393 -26.443 Q52.074 -27.123 52.074 -28.129 V-42.331 Q52.074 -43.337 51.393 -44.017 Q50.713 -44.698 49.707 -44.698 H40.239 Q39.233 -44.698 38.553 -44.017 Q37.872 -43.337 37.872 -42.331 V-28.129 Q37.872 -27.123 38.553 -26.443 Q39.233 -25.762 40.239 -25.762 Z M42.606 -30.496 V-39.964 H47.34 V-30.496 H42.606 Z M61.542 -32.863  66.375 -26.65 Q66.473 -26.551 68.119 -25.762 Q69.531 -25.762 70.122 -26.995 Q70.714 -28.228 69.925 -29.312 L65.487 -35.23 L70.024 -41.246 Q70.813 -42.331 70.186 -43.514 Q69.56 -44.698 68.15 -44.698 Q67.61 -44.698 67.146 -44.456 Q66.683 -44.214 66.375 -43.81 L61.542 -37.597 V-42.331 Q61.542 -43.357 60.871 -44.027 Q60.201 -44.698 59.175 -44.698 Q58.149 -44.698 57.479 -44.029 Q56.808 -43.36 56.808 -42.336 V-28.166 Q56.808 -27.143 57.479 -26.452 Q58.149 -25.762 59.175 -25.762 Q60.201 -25.762 60.871 -26.433 Q61.542 -27.103 61.542 -28.129 V-32.863 Z M21.303 -2.092 Q18.374 -2.092 16.288 -4.178 Q14.202 -6.264 14.202 -9.193 V-61.267 Q14.202 -64.196 16.288 -66.282 Q18.374 -68.368 21.303 -68.368 H73.377 Q76.306 -68.368 78.392 -66.282 Q80.478 -64.196 80.478 -61.267 V-9.193 Q80.478 -6.264 78.392 -4.178 Q76.306 -2.092 73.377 -2.092 H21.303 Z M21.303 -9.193 H73.377 Q73.377 -9.193 73.377 -9.193 Q73.377 -9.193 73.377 -9.193 V-61.267 Q73.377 -61.267 73.377 -61.267 Q73.377 -61.267 73.377 -61.267 H21.303 Q21.303 -61.267 21.303 -61.267 Q21.303 -61.267 21.303 -61.267 V-9.193 Q21.303 -9.193 21.303 -9.193 Q21.303 -9.193 21.303 -9.193 Z"/></g><g id="Light-S" transform="matrix(1 0 0 1 1109.75 696)"><path d="M29.921 -40.571 V-28.165 Q29.921 -27.408 30.421 -26.889 Q30.921 -26.369 31.681 -26.369 Q32.442 -26.369 32.942 -26.867 Q33.441 -27.366 33.441 -28.124 V-42.294 Q33.441 -43.052 32.942 -43.571 Q32.442 -44.091 31.681 -44.091 H26.189 Q25.429 -44.091 24.929 -43.591 Q24.429 -43.091 24.429 -42.331 Q24.429 -41.571 24.929 -41.071 Q25.429 -40.571 26.189 -40.571 H29.921 Z M40.998 -26.369 H50.162 Q50.979 -26.369 51.526 -26.917 Q52.074 -27.464 52.074 -28.281 V-42.179 Q52.074 -42.996 51.526 -43.543 Q50.979 -44.091 50.162 -44.091 H40.998 Q40.181 -44.091 39.634 -43.543 Q39.086 -42.996 39.086 -42.179 V-28.281 Q39.086 -27.464 39.634 -26.917 Q40.181 -26.369 40.998 -26.369 Z M42.606 -29.889 V-40.571 H48.554 V-29.889 H42.606 Z M61.352 -33.698  67.437 -26.991 Q67.535 -26.93 68.689 -26.369 Q69.796 -26.369 70.217 -27.317 Q70.638 -28.266 70.001 -29.085 L64.539 -35.306 L70.138 -41.512 Q70.775 -42.293 70.3 -43.192 Q69.825 -44.091 68.757 -44.091 Q68.406 -44.091 68.076 -43.925 Q67.746 -43.759 67.513 -43.469 L61.352 -36.838 V-42.331 Q61.352 -43.091 60.852 -43.591 Q60.352 -44.091 59.592 -44.091 Q58.832 -44.091 58.332 -43.593 Q57.832 -43.094 57.832 -42.336 V-28.166 Q57.832 -27.408 58.332 -26.889 Q58.832 -26.369 59.592 -26.369 Q60.352 -26.369 60.852 -26.869 Q61.352 -27.369 61.352 -28.129 V-33.698 Z M22.517 -4.065 Q19.853 -4.065 18.014 -5.904 Q16.175 -7.743 16.175 -10.407 V-60.053 Q16.175 -62.717 18.014 -64.556 Q19.853 -66.395 22.517 -66.395 H72.163 Q74.827 -66.395 76.666 -64.556 Q78.505 -62.717 78.505 -60.053 V-10.407 Q78.505 -7.743 76.666 -5.904 Q74.827 -4.065 72.163 -4.065 H22.517 Z M22.517 -9.193 H72.163 Q72.618 -9.193 72.998 -9.572 Q73.377 -9.952 73.377 -10.407 V-60.053 Q73.377 -60.508 72.998 -60.888 Q72.618 -61.267 72.163 -61.267 H22.517 Q22.062 -61.267 21.682 -60.888 Q21.303 -60.508 21.303 -60.053 V-10.407 Q21.303 -9.952 21.682 -9.572 Q22.062 -9.193 22.517 -9.193 Z"/></g><g id="Thin-S" transform="matrix(1 0 0 1 814.015 696)"><path d="M31.439 -41.178 V-28.165 Q31.439 -27.674 31.768 -27.325 Q32.097 -26.976 32.592 -26.976 Q33.086 -26.976 33.416 -27.304 Q33.745 -27.631 33.745 -28.124 V-42.294 Q33.745 -42.786 33.416 -43.135 Q33.086 -43.484 32.592 -43.484 H26.34 Q25.846 -43.484 25.517 -43.155 Q25.187 -42.826 25.187 -42.331 Q25.187 -41.836 25.517 -41.507 Q25.846 -41.178 26.34 -41.178 H31.439 Z M41.756 -26.976 H50.617 Q51.244 -26.976 51.659 -27.391 Q52.074 -27.806 52.074 -28.432 V-42.028 Q52.074 -42.654 51.659 -43.069 Q51.244 -43.484 50.617 -43.484 H41.756 Q41.13 -43.484 40.715 -43.069 Q40.3 -42.654 40.3 -42.028 V-28.432 Q40.3 -27.806 40.715 -27.391 Q41.13 -26.976 41.756 -26.976 Z M42.606 -29.282 V-41.178 H49.768 V-29.282 H42.606 Z M61.163 -34.532  68.499 -27.332 Q68.597 -27.31 69.258 -26.976 Q70.062 -26.976 70.312 -27.64 Q70.562 -28.303 70.077 -28.857 L63.59 -35.382 L70.251 -41.777 Q70.737 -42.255 70.414 -42.87 Q70.091 -43.484 69.364 -43.484 Q69.203 -43.484 69.005 -43.394 Q68.808 -43.303 68.651 -43.128 L61.163 -36.08 V-42.331 Q61.163 -42.826 60.833 -43.155 Q60.504 -43.484 60.009 -43.484 Q59.515 -43.484 59.186 -43.156 Q58.856 -42.829 58.856 -42.336 V-28.166 Q58.856 -27.674 59.186 -27.325 Q59.515 -26.976 60.009 -26.976 Q60.504 -26.976 60.833 -27.305 Q61.163 -27.634 61.163 -28.129 V-34.532 Z M23.731 -6.037 Q21.333 -6.037 19.74 -7.63 Q18.147 -9.223 18.147 -11.621 V-58.839 Q18.147 -61.237 19.74 -62.83 Q21.333 -64.423 23.731 -64.423 H70.949 Q73.347 -64.423 74.94 -62.83 Q76.533 -61.237 76.533 -58.839 V-11.621 Q76.533 -9.223 74.94 -7.63 Q73.347 -6.037 70.949 -6.037 H23.731 Z M23.731 -9.193 H70.949 Q71.86 -9.193 72.618 -9.952 Q73.377 -10.71 73.377 -11.621 V-58.839 Q73.377 -59.75 72.618 -60.508 Q71.86 -61.267 70.949 -61.267 H23.731 Q22.82 -61.267 22.062 -60.508 Q21.303 -59.75 21.303 -58.839 V-11.621 Q21.303 -10.71 22.062 -9.952 Q22.82 -9.193 23.731 -9.193 Z"/></g><g id="Ultralight-S" transform="matrix(1 0 0 1 517.792 696)"><path d="M32.349 -41.542 V-28.165 Q32.349 -27.833 32.576 -27.587 Q32.803 -27.34 33.138 -27.34 Q33.473 -27.34 33.7 -27.565 Q33.927 -27.791 33.927 -28.124 V-42.294 Q33.927 -42.627 33.7 -42.873 Q33.473 -43.12 33.138 -43.12 H26.431 Q26.096 -43.12 25.869 -42.893 Q25.643 -42.666 25.643 -42.331 Q25.643 -41.996 25.869 -41.769 Q26.096 -41.542 26.431 -41.542 H32.349 Z M42.212 -27.34 H50.891 Q51.403 -27.34 51.739 -27.675 Q52.074 -28.011 52.074 -28.523 V-41.936 Q52.074 -42.449 51.739 -42.785 Q51.403 -43.12 50.891 -43.12 H42.212 Q41.699 -43.12 41.363 -42.785 Q41.028 -42.449 41.028 -41.936 V-28.523 Q41.028 -28.011 41.363 -27.675 Q41.699 -27.34 42.212 -27.34 Z M42.606 -28.918 V-41.542 H50.496 V-28.918 H42.606 Z M61.049 -35.033  69.136 -27.537 Q69.235 -27.537 69.599 -27.34 Q70.221 -27.34 70.369 -27.833 Q70.517 -28.326 70.122 -28.721 L63.021 -35.427 L70.32 -41.936 Q70.714 -42.232 70.482 -42.676 Q70.25 -43.12 69.728 -43.12 Q69.681 -43.12 69.563 -43.075 Q69.445 -43.03 69.333 -42.923 L61.049 -35.624 V-42.331 Q61.049 -42.666 60.822 -42.893 Q60.595 -43.12 60.26 -43.12 Q59.925 -43.12 59.698 -42.895 Q59.471 -42.669 59.471 -42.336 V-28.166 Q59.471 -27.833 59.698 -27.587 Q59.925 -27.34 60.26 -27.34 Q60.595 -27.34 60.822 -27.567 Q61.049 -27.794 61.049 -28.129 V-35.033 Z M24.459 -7.22 Q22.22 -7.22 20.775 -8.665 Q19.331 -10.11 19.331 -12.349 V-58.111 Q19.331 -60.35 20.775 -61.795 Q22.22 -63.239 24.459 -63.239 H70.221 Q72.46 -63.239 73.905 -61.795 Q75.35 -60.35 75.35 -58.111 V-12.349 Q75.35 -10.11 73.905 -8.665 Q72.46 -7.22 70.221 -7.22 H24.459 Z M24.459 -9.193 H70.221 Q71.404 -9.193 72.391 -10.179 Q73.377 -11.165 73.377 -12.349 V-58.111 Q73.377 -59.294 72.391 -60.281 Q71.404 -61.267 70.221 -61.267 H24.459 Q23.276 -61.267 22.289 -60.281 Q21.303 -59.294 21.303 -58.111 V-12.349 Q21.303 -11.165 22.289 -10.179 Q23.276 -9.193 24.459 -9.193 Z"/></g></g></svg>