<svg xmlns="http://www.w3.org/2000/svg" height="24" viewBox="0 -960 960 960" width="24"><path d="M480.059-670.674q19.211 0 32.206 13.013 12.996 13.012 12.996 32.248v468.283q0 19.236-12.996 32.248-12.995 13.013-32.206 13.013-19.211 0-32.385-13.174T434.5-157.37v-468.043q0-19.236 13.174-32.248 13.174-13.013 32.385-13.013ZM318.863-549.956q19.211 0 32.207 13.012 12.995 13.013 12.995 32.249v226.608q0 19.236-12.995 32.249-12.996 13.012-32.207 13.012T286.478-246q-13.174-13.174-13.174-32.326v-226.369q0-19.236 13.174-32.249 13.174-13.012 32.385-13.012Zm322.391 0q19.211 0 32.207 13.012 12.996 13.013 12.996 32.249v226.608q0 19.236-12.996 32.249-12.996 13.012-32.207 13.012T608.87-246q-13.174-13.174-13.174-32.326v-226.369q0-19.236 13.174-32.249 13.173-13.012 32.384-13.012ZM480-757.37q-44.283 0-82.857 22.052-38.573 22.052-61.034 60.275-33.196 55.673-90.011 87.51-56.815 31.837-121.968 31.837h-7q-19.236 0-32.248-13.174-13.013-13.173-13.013-32.384t13.174-32.207q13.174-12.996 32.327-12.996h6.835q41.012 0 76.653-20.402 35.642-20.402 57.164-55.685 34.948-58.675 94.051-92.131t127.972-33.456q68.868 0 127.937 33.456t93.996 92.131q21.463 35.117 57.071 55.602t76.581 20.485h7.24q19.236 0 32.248 12.996 13.013 12.996 13.013 32.207t-13.013 32.384q-13.012 13.174-32.248 13.174h-6.208q-65.184 0-121.999-31.837t-90.011-87.51q-22.48-38.223-61.086-60.275Q524.959-757.37 480-757.37ZM157.37-345.891q-19.153 0-32.327-13.174t-13.174-32.326q0-19.152 13.174-32.326t32.327-13.174q19.152 0 32.326 13.174t13.174 32.326q0 19.152-13.174 32.326t-32.326 13.174Zm645.021 0q-19.152 0-32.326-13.174t-13.174-32.326q0-19.152 13.174-32.326t32.326-13.174q19.153 0 32.327 13.174 13.173 13.174 13.173 32.326t-13.173 32.326q-13.174 13.174-32.327 13.174Z"/></svg>