<svg xmlns="http://www.w3.org/2000/svg" version="1.1" width="3300" height="2000"><g id="Notes"><style>
    text {
      font-family: monospace;
      text-anchor: middle;
    }
    text.emphasis {
      font-weight:bold;
    }
    text.lanchor {
      text-anchor: start;
    }
  </style><rect height="2200" id="artboard" fill="white" width="3300" x="0" y="0"/><line id="" style="fill:none;stroke:black;stroke-width:0.5;" x1="263" x2="3036" y1="292" y2="292"/><text class="lanchor emphasis" transform="matrix(1 0 0 1 263 322)">Weight/Scale Variations</text><text transform="matrix(1 0 0 1 559.711 322)">Ultralight</text><text transform="matrix(1 0 0 1 856.422 322)">Thin</text><text transform="matrix(1 0 0 1 1153.13 322)">Light</text><text transform="matrix(1 0 0 1 1449.84 322)">Regular</text><text transform="matrix(1 0 0 1 1746.56 322)">Medium</text><text transform="matrix(1 0 0 1 2043.27 322)">Semibold</text><text transform="matrix(1 0 0 1 2339.98 322)">Bold</text><text transform="matrix(1 0 0 1 2636.69 322)">Heavy</text><text transform="matrix(1 0 0 1 2933.4 322)">Black</text><text id="template-version" style="text-anchor: end;" transform="matrix(1 0 0 1 3036 1933)">Template v.1.0</text><text class="lanchor" transform="matrix(1 0 0 1 263 726)">Small</text><text class="lanchor" transform="matrix(1 0 0 1 263 1156)">Medium</text><text class="lanchor" transform="matrix(1 0 0 1 263 1586)">Large</text></g><g id="Guides"><g id="H-reference" style="fill:#27AAE1;stroke:none;" transform="matrix(1 0 0 1 339 696)"><path d="M 54.9316 0 L 57.666 0 L 30.5664 -70.459 L 28.0762 -70.459 L 0.976562 0 L 3.66211 0 L 12.9395 -24.4629 L 45.7031 -24.4629 Z M 29.1992 -67.0898 L 29.4434 -67.0898 L 44.8242 -26.709 L 13.8184 -26.709 Z"/></g><line id="Baseline-S" style="fill:none;stroke:#27AAE1;opacity:1;stroke-width:0.577;" x1="263" x2="3036" y1="696" y2="696"/><line id="Capline-S" style="fill:none;stroke:#27AAE1;opacity:1;stroke-width:0.577;" x1="263" x2="3036" y1="625.541" y2="625.541"/><g id="H-reference" style="fill:#27AAE1;stroke:none;" transform="matrix(1 0 0 1 339 1126)"><path d="M 54.9316 0 L 57.666 0 L 30.5664 -70.459 L 28.0762 -70.459 L 0.976562 0 L 3.66211 0 L 12.9395 -24.4629 L 45.7031 -24.4629 Z M 29.1992 -67.0898 L 29.4434 -67.0898 L 44.8242 -26.709 L 13.8184 -26.709 Z"/></g><line id="Baseline-M" style="fill:none;stroke:#27AAE1;opacity:1;stroke-width:0.577;" x1="263" x2="3036" y1="1126" y2="1126"/><line id="Capline-M" style="fill:none;stroke:#27AAE1;opacity:1;stroke-width:0.577;" x1="263" x2="3036" y1="1055.54" y2="1055.54"/><g id="H-reference" style="fill:#27AAE1;stroke:none;" transform="matrix(1 0 0 1 339 1556)"><path d="M 54.9316 0 L 57.666 0 L 30.5664 -70.459 L 28.0762 -70.459 L 0.976562 0 L 3.66211 0 L 12.9395 -24.4629 L 45.7031 -24.4629 Z M 29.1992 -67.0898 L 29.4434 -67.0898 L 44.8242 -26.709 L 13.8184 -26.709 Z"/></g><line id="Baseline-L" style="fill:none;stroke:#27AAE1;opacity:1;stroke-width:0.577;" x1="263" x2="3036" y1="1556" y2="1556"/><line id="Capline-L" style="fill:none;stroke:#27AAE1;opacity:1;stroke-width:0.577;" x1="263" x2="3036" y1="1485.54" y2="1485.54"/><rect height="119.336" id="left-margin" style="fill:darkred;stroke:none;opacity:0.4;" width="12.4512" x="1394.06" y="1030.79"/><rect height="119.336" id="right-margin" style="fill:darkgreen;stroke:none;opacity:0.4;" width="12.4512" x="1502.5112" y="1030.79"/><rect x="1406.5112" y="1045" width="96" height="96" fill="none" stroke="blue" stroke-dasharray="5"/><rect x="1394.06" y="1030.79" width="120.9024" height="119.336" fill="none" stroke="blue"/></g><g id="Symbols"><g id="Bold-L" transform="matrix(1 0 0 1 2266 1556)"><path d="M50.874 -47.727  68.854 -29.747 Q71.031 -27.431 71.111 -24.316 Q71.192 -21.201 68.904 -18.965 Q66.68 -16.728 63.604 -16.707 Q60.527 -16.686 58.277 -18.883 L27.816 -49.42 Q26.702 -50.495 26.049 -51.932 Q25.397 -53.369 25.397 -54.781 Q25.397 -56.192 26.049 -57.595 Q26.702 -58.998 27.816 -60.143 L58.685 -91.335 Q60.947 -93.522 63.971 -93.522 Q66.994 -93.522 69.257 -91.299 Q71.434 -89.076 71.514 -86.099 Q71.595 -83.121 69.433 -80.96 L51.036 -62.481 H111.021 Q117.349 -62.481 121.642 -58.15 Q125.936 -53.819 125.936 -47.727 V12.178 Q125.936 15.282 123.671 17.438 Q121.405 19.595 118.396 19.595 Q115.294 19.595 113.157 17.438 Q111.021 15.282 111.021 12.178 V-47.727 Q111.021 -47.727 111.021 -47.727 Q111.021 -47.727 111.021 -47.727 H50.874 Z"/></g><g id="Semibold-L" transform="matrix(1 0 0 1 1970.27 1556)"><path d="M48 -48.919  68.083 -28.906 Q69.909 -26.966 69.955 -24.364 Q70 -21.762 68.139 -19.876 Q66.259 -17.99 63.661 -17.969 Q61.063 -17.948 59.188 -19.794 L28.727 -50.331 Q27.747 -51.254 27.238 -52.409 Q26.729 -53.564 26.729 -54.773 Q26.729 -55.982 27.238 -57.108 Q27.747 -58.234 28.727 -59.232 L59.526 -90.354 Q61.41 -92.19 63.957 -92.19 Q66.503 -92.19 68.416 -90.338 Q70.242 -88.485 70.288 -85.978 Q70.333 -83.472 68.522 -81.661 L48.161 -61.289 H111.652 Q116.896 -61.289 120.505 -57.659 Q124.113 -54.029 124.113 -48.919 V11.617 Q124.113 14.23 122.24 16.036 Q120.366 17.842 117.841 17.842 Q115.224 17.842 113.438 16.036 Q111.652 14.23 111.652 11.617 V-48.919 Q111.652 -48.919 111.652 -48.919 Q111.652 -48.919 111.652 -48.919 H48 Z"/></g><g id="Medium-L" transform="matrix(1 0 0 1 1674.31 1556)"><path d="M45.844 -49.813  67.504 -28.275 Q69.068 -26.617 69.087 -24.4 Q69.106 -22.183 67.565 -20.56 Q65.944 -18.937 63.704 -18.916 Q61.464 -18.895 59.872 -20.478 L29.411 -51.015 Q28.531 -51.824 28.129 -52.767 Q27.728 -53.71 27.728 -54.767 Q27.728 -55.824 28.129 -56.743 Q28.531 -57.661 29.411 -58.548 L60.157 -89.617 Q61.757 -91.191 63.946 -91.191 Q66.135 -91.191 67.785 -89.616 Q69.348 -88.042 69.367 -85.888 Q69.387 -83.735 67.838 -82.186 L46.005 -60.395 H112.125 Q116.556 -60.395 119.651 -57.291 Q122.746 -54.187 122.746 -49.813 V11.196 Q122.746 13.441 121.166 14.985 Q119.586 16.528 117.425 16.528 Q115.171 16.528 113.648 14.985 Q112.125 13.441 112.125 11.196 V-49.813 Q112.125 -49.813 112.125 -49.813 Q112.125 -49.813 112.125 -49.813 H45.844 Z"/></g><g id="Regular-L" transform="matrix(1 0 0 1 1378.56 1556)"><path d="M44.263 -50.468  67.08 -27.812 Q68.451 -26.361 68.451 -24.426 Q68.451 -22.491 67.144 -21.061 Q65.712 -19.631 63.736 -19.61 Q61.759 -19.589 60.373 -20.979 L29.912 -51.516 Q29.106 -52.242 28.783 -53.029 Q28.461 -53.817 28.461 -54.763 Q28.461 -55.709 28.783 -56.475 Q29.106 -57.241 29.912 -58.047 L60.62 -89.078 Q62.011 -90.458 63.938 -90.458 Q65.865 -90.458 67.322 -89.087 Q68.692 -87.717 68.692 -85.822 Q68.692 -83.927 67.337 -82.572 L44.424 -59.74 H112.472 Q116.307 -59.74 119.025 -57.021 Q121.744 -54.303 121.744 -50.468 V10.888 Q121.744 12.863 120.379 14.213 Q119.014 15.564 117.12 15.564 Q115.133 15.564 113.802 14.213 Q112.472 12.863 112.472 10.888 V-50.468 Q112.472 -50.468 112.472 -50.468 Q112.472 -50.468 112.472 -50.468 H44.263 Z"/></g><g id="Light-L" transform="matrix(1 0 0 1 1082.77 1556)"><path d="M43.023 -51.523  66.491 -28.154 Q67.458 -27.074 67.489 -25.574 Q67.52 -24.073 66.524 -22.984 Q65.402 -21.926 63.875 -21.92 Q62.348 -21.915 61.335 -22.933 L32.765 -51.609 Q31.99 -52.273 31.683 -53.029 Q31.376 -53.786 31.376 -54.763 Q31.376 -55.678 31.683 -56.444 Q31.99 -57.21 32.765 -57.985 L61.55 -86.969 Q62.57 -88.039 64.062 -88.039 Q65.555 -88.039 66.64 -86.979 Q67.669 -85.918 67.654 -84.442 Q67.638 -82.966 66.655 -81.983 L43.184 -58.593 H109.774 Q113.485 -58.593 116.157 -55.92 Q118.829 -53.248 118.829 -49.538 V9.058 Q118.829 10.599 117.79 11.624 Q116.751 12.649 115.321 12.649 Q113.768 12.649 112.763 11.624 Q111.759 10.599 111.759 9.058 V-49.538 Q111.759 -50.313 111.2 -50.918 Q110.642 -51.523 109.774 -51.523 H43.023 Z"/></g><g id="Thin-L" transform="matrix(1 0 0 1 787.282 1556)"><path d="M41.782 -52.577  65.902 -28.495 Q66.466 -27.788 66.528 -26.721 Q66.59 -25.654 65.904 -24.906 Q65.092 -24.22 64.015 -24.23 Q62.937 -24.24 62.296 -24.886 L35.618 -51.702 Q34.873 -52.304 34.582 -53.029 Q34.29 -53.755 34.29 -54.763 Q34.29 -55.647 34.582 -56.413 Q34.873 -57.179 35.618 -57.923 L62.481 -84.86 Q63.128 -85.621 64.186 -85.621 Q65.245 -85.621 65.958 -84.87 Q66.646 -84.12 66.615 -83.062 Q66.584 -82.005 65.973 -81.394 L41.944 -57.445 H107.076 Q110.663 -57.445 113.288 -54.82 Q115.914 -52.194 115.914 -48.608 V7.228 Q115.914 8.335 115.201 9.035 Q114.487 9.734 113.523 9.734 Q112.404 9.734 111.724 9.035 Q111.045 8.335 111.045 7.228 V-48.608 Q111.045 -50.158 109.929 -51.367 Q108.813 -52.577 107.076 -52.577 H41.782 Z"/></g><g id="Ultralight-L" transform="matrix(1 0 0 1 491.205 1556)"><path d="M41.038 -53.209  65.548 -28.699 Q65.871 -28.216 65.951 -27.409 Q66.032 -26.603 65.532 -26.06 Q64.906 -25.597 64.098 -25.616 Q63.291 -25.636 62.873 -26.058 L37.329 -51.758 Q36.604 -52.322 36.322 -53.029 Q36.039 -53.736 36.039 -54.763 Q36.039 -55.628 36.322 -56.394 Q36.604 -57.16 37.329 -57.886 L63.039 -83.595 Q63.463 -84.169 64.261 -84.169 Q65.059 -84.169 65.548 -83.605 Q66.032 -83.041 65.992 -82.234 Q65.951 -81.428 65.563 -81.04 L41.199 -56.757 H105.457 Q108.97 -56.757 111.567 -54.159 Q114.165 -51.562 114.165 -48.049 V6.131 Q114.165 6.977 113.647 7.481 Q113.129 7.985 112.444 7.985 Q111.585 7.985 111.101 7.481 Q110.618 6.977 110.618 6.131 V-48.049 Q110.618 -50.065 109.166 -51.637 Q107.715 -53.209 105.457 -53.209 H41.038 Z"/></g><g id="Bold-M" transform="matrix(1 0 0 1 2281.8 1126)"><path d="M45.938 -42.167  55.688 -32.417 Q58 -30.105 58.031 -27.042 Q58.062 -23.98 55.75 -21.667 Q53.438 -19.355 50.438 -19.324 Q47.438 -19.292 45.125 -21.605 L22.438 -44.292 Q21.375 -45.355 20.719 -46.824 Q20.062 -48.292 20.062 -49.73 Q20.062 -51.167 20.719 -52.636 Q21.375 -54.105 22.438 -55.167 L45.125 -77.855 Q47.438 -80.167 50.469 -80.167 Q53.5 -80.167 55.812 -77.855 Q58.125 -75.542 58.188 -72.542 Q58.25 -69.542 55.938 -67.23 L45.938 -57.292 H82.875 Q89.25 -57.292 93.625 -52.917 Q98 -48.542 98 -42.167 V0.208 Q98 3.27 95.75 5.52 Q93.5 7.77 90.438 7.77 Q87.375 7.77 85.125 5.52 Q82.875 3.27 82.875 0.208 V-42.167 Q82.875 -42.167 82.875 -42.167 Q82.875 -42.167 82.875 -42.167 H45.938 Z"/></g><g id="Semibold-M" transform="matrix(1 0 0 1 1985.97 1126)"><path d="M43.003 -43.417  54.872 -31.548 Q56.804 -29.616 56.809 -27.07 Q56.813 -24.523 54.935 -22.591 Q53.003 -20.659 50.492 -20.628 Q47.981 -20.597 46.049 -22.529 L23.361 -45.216 Q22.462 -46.116 21.942 -47.313 Q21.421 -48.51 21.421 -49.73 Q21.421 -50.95 21.942 -52.147 Q22.462 -53.344 23.361 -54.244 L45.995 -76.877 Q47.927 -78.809 50.469 -78.809 Q53.011 -78.809 54.943 -76.877 Q56.875 -74.945 56.91 -72.434 Q56.946 -69.923 55.014 -67.991 L43.003 -56.043 H83.527 Q88.815 -56.043 92.484 -52.374 Q96.152 -48.705 96.152 -43.417 V-0.39 Q96.152 2.183 94.283 4.053 Q92.413 5.922 89.84 5.922 Q87.266 5.922 85.397 4.053 Q83.527 2.183 83.527 -0.39 V-43.417 Q83.527 -43.417 83.527 -43.417 Q83.527 -43.417 83.527 -43.417 H43.003 Z"/></g><g id="Medium-M" transform="matrix(1 0 0 1 1689.91 1126)"><path d="M40.802 -44.355  54.261 -30.896 Q55.908 -29.249 55.891 -27.09 Q55.875 -24.931 54.323 -23.284 Q52.677 -21.638 50.533 -21.606 Q48.389 -21.575 46.742 -23.222 L24.054 -45.909 Q23.277 -46.686 22.859 -47.68 Q22.44 -48.673 22.44 -49.73 Q22.44 -50.787 22.859 -51.78 Q23.277 -52.773 24.054 -53.551 L46.647 -76.143 Q48.294 -77.79 50.469 -77.79 Q52.644 -77.79 54.291 -76.143 Q55.938 -74.496 55.953 -72.352 Q55.967 -70.208 54.321 -68.561 L40.802 -55.105 H84.016 Q88.489 -55.105 91.628 -51.966 Q94.766 -48.828 94.766 -44.355 V-0.839 Q94.766 1.368 93.182 2.952 Q91.598 4.536 89.391 4.536 Q87.185 4.536 85.6 2.952 Q84.016 1.368 84.016 -0.839 V-44.355 Q84.016 -44.355 84.016 -44.355 Q84.016 -44.355 84.016 -44.355 H40.802 Z"/></g><g id="Regular-M" transform="matrix(1 0 0 1 1394.06 1126)"><path d="M39.188 -45.042  53.812 -30.417 Q55.25 -28.98 55.219 -27.105 Q55.188 -25.23 53.875 -23.792 Q52.438 -22.355 50.562 -22.324 Q48.688 -22.292 47.25 -23.73 L24.562 -46.417 Q23.875 -47.105 23.531 -47.949 Q23.188 -48.792 23.188 -49.73 Q23.188 -50.667 23.531 -51.511 Q23.875 -52.355 24.562 -53.042 L47.125 -75.605 Q48.562 -77.042 50.469 -77.042 Q52.375 -77.042 53.812 -75.605 Q55.25 -74.167 55.25 -72.292 Q55.25 -70.417 53.812 -68.98 L39.188 -54.417 H84.375 Q88.25 -54.417 91 -51.667 Q93.75 -48.917 93.75 -45.042 V-1.167 Q93.75 0.77 92.375 2.145 Q91 3.52 89.062 3.52 Q87.125 3.52 85.75 2.145 Q84.375 0.77 84.375 -1.167 V-45.042 Q84.375 -45.042 84.375 -45.042 Q84.375 -45.042 84.375 -45.042 H39.188 Z"/></g><g id="Light-M" transform="matrix(1 0 0 1 1098.18 1126)"><path d="M36.928 -46.341  52.875 -30.393 Q53.952 -29.292 53.945 -27.898 Q53.937 -26.504 52.913 -25.427 Q51.812 -24.326 50.406 -24.331 Q49 -24.336 47.947 -25.389 L26.534 -46.826 Q25.87 -47.466 25.563 -48.213 Q25.255 -48.961 25.255 -49.826 Q25.255 -50.691 25.563 -51.439 Q25.87 -52.187 26.534 -52.85 L47.894 -74.211 Q48.995 -75.312 50.397 -75.312 Q51.798 -75.312 52.899 -74.211 Q53.976 -73.11 53.964 -71.703 Q53.952 -70.297 52.899 -69.244 L36.928 -53.336 H82.957 Q86.495 -53.336 88.993 -50.838 Q91.49 -48.34 91.49 -44.802 V-2.249 Q91.49 -0.793 90.464 0.234 Q89.437 1.26 88.005 1.26 Q86.548 1.26 85.522 0.234 Q84.495 -0.793 84.495 -2.249 V-44.802 Q84.495 -45.451 84.062 -45.896 Q83.63 -46.341 82.957 -46.341 H36.928 Z"/></g><g id="Thin-M" transform="matrix(1 0 0 1 802.565 1126)"><path d="M34.668 -47.639  51.938 -30.369 Q52.654 -29.605 52.671 -28.691 Q52.688 -27.778 51.952 -27.062 Q51.188 -26.297 50.25 -26.338 Q49.312 -26.379 48.644 -27.047 L28.505 -47.235 Q27.865 -47.826 27.594 -48.478 Q27.322 -49.129 27.322 -49.922 Q27.322 -50.716 27.594 -51.367 Q27.865 -52.018 28.505 -52.658 L48.663 -72.816 Q49.428 -73.581 50.325 -73.581 Q51.221 -73.581 51.986 -72.816 Q52.702 -72.052 52.678 -71.115 Q52.654 -70.177 51.986 -69.509 L34.668 -52.254 H81.538 Q84.74 -52.254 86.986 -50.009 Q89.231 -47.764 89.231 -44.562 V-3.331 Q89.231 -2.355 88.553 -1.677 Q87.875 -0.999 86.947 -0.999 Q85.971 -0.999 85.293 -1.677 Q84.615 -2.355 84.615 -3.331 V-44.562 Q84.615 -45.86 83.75 -46.749 Q82.885 -47.639 81.538 -47.639 H34.668 Z"/></g><g id="Ultralight-M" transform="matrix(1 0 0 1 506.415 1126)"><path d="M33.312 -48.417  51.375 -30.355 Q51.875 -29.792 51.906 -29.167 Q51.938 -28.542 51.375 -28.042 Q50.812 -27.48 50.156 -27.542 Q49.5 -27.605 49.062 -28.042 L29.688 -47.48 Q29.062 -48.042 28.812 -48.636 Q28.562 -49.23 28.562 -49.98 Q28.562 -50.73 28.812 -51.324 Q29.062 -51.917 29.688 -52.542 L49.125 -71.98 Q49.688 -72.542 50.281 -72.542 Q50.875 -72.542 51.438 -71.98 Q51.938 -71.417 51.906 -70.761 Q51.875 -70.105 51.438 -69.667 L33.312 -51.605 H80.688 Q83.688 -51.605 85.781 -49.511 Q87.875 -47.417 87.875 -44.417 V-3.98 Q87.875 -3.292 87.406 -2.824 Q86.938 -2.355 86.312 -2.355 Q85.625 -2.355 85.156 -2.824 Q84.688 -3.292 84.688 -3.98 V-44.417 Q84.688 -46.105 83.562 -47.261 Q82.438 -48.417 80.688 -48.417 H33.312 Z"/></g><g id="Bold-S" transform="matrix(1 0 0 1 2294.23 696)"><path d="M35.554 -41.098  41.996 -34.567 Q43.691 -32.863 43.765 -30.595 Q43.839 -28.326 42.061 -26.6 Q40.288 -24.874 38.119 -24.899 Q35.949 -24.924 34.247 -26.628 L18.234 -42.682 Q17.457 -43.461 16.939 -44.55 Q16.421 -45.638 16.421 -46.693 Q16.421 -47.747 16.939 -48.836 Q17.457 -49.925 18.196 -50.665 L34.338 -66.807 Q36.047 -68.516 38.258 -68.516 Q40.469 -68.516 42.162 -66.79 Q43.888 -65.064 43.987 -62.894 Q44.085 -60.725 42.373 -59.012 L35.554 -52.243 H62.232 Q66.937 -52.243 70.157 -49.023 Q73.377 -45.803 73.377 -41.098 V-10.031 Q73.377 -7.783 71.721 -6.121 Q70.065 -4.459 67.825 -4.459 Q65.586 -4.459 63.909 -6.121 Q62.232 -7.783 62.232 -10.031 V-41.098 Q62.232 -41.098 62.232 -41.098 Q62.232 -41.098 62.232 -41.098 H35.554 Z"/></g><g id="Semibold-S" transform="matrix(1 0 0 1 1998.1 696)"><path d="M33.239 -42.084  41.353 -33.881 Q42.748 -32.477 42.8 -30.616 Q42.853 -28.755 41.418 -27.329 Q39.945 -25.903 38.161 -25.928 Q36.378 -25.953 34.976 -27.357 L18.963 -43.411 Q18.314 -44.061 17.904 -44.935 Q17.493 -45.81 17.493 -46.693 Q17.493 -47.576 17.904 -48.45 Q18.314 -49.325 18.925 -49.936 L35.024 -66.035 Q36.433 -67.444 38.258 -67.444 Q40.083 -67.444 41.476 -66.018 Q42.902 -64.592 42.979 -62.809 Q43.056 -61.025 41.644 -59.612 L33.239 -51.257 H62.747 Q66.594 -51.257 69.256 -48.594 Q71.919 -45.931 71.919 -42.084 V-10.503 Q71.919 -8.64 70.563 -7.278 Q69.208 -5.917 67.354 -5.917 Q65.5 -5.917 64.123 -7.278 Q62.747 -8.64 62.747 -10.503 V-42.084 Q62.747 -42.084 62.747 -42.084 Q62.747 -42.084 62.747 -42.084 H33.239 Z"/></g><g id="Medium-S" transform="matrix(1 0 0 1 1701.85 696)"><path d="M31.502 -42.824  40.87 -33.367 Q42.04 -32.188 42.076 -30.632 Q42.113 -29.077 40.936 -27.876 Q39.688 -26.675 38.194 -26.7 Q36.699 -26.725 35.522 -27.904 L19.509 -43.958 Q18.957 -44.511 18.627 -45.225 Q18.297 -45.939 18.297 -46.693 Q18.297 -47.447 18.627 -48.161 Q18.957 -48.875 19.472 -49.389 L35.539 -65.456 Q36.723 -66.64 38.258 -66.64 Q39.794 -66.64 40.962 -65.439 Q42.162 -64.239 42.223 -62.744 Q42.284 -61.25 41.097 -60.062 L31.502 -50.517 H63.133 Q66.336 -50.517 68.581 -48.272 Q70.826 -46.028 70.826 -42.824 V-10.857 Q70.826 -9.283 69.695 -8.147 Q68.564 -7.01 67 -7.01 Q65.436 -7.01 64.284 -8.147 Q63.133 -9.283 63.133 -10.857 V-42.824 Q63.133 -42.824 63.133 -42.824 Q63.133 -42.824 63.133 -42.824 H31.502 Z"/></g><g id="Regular-S" transform="matrix(1 0 0 1 1405.73 696)"><path d="M30.229 -43.367  40.516 -32.989 Q41.521 -31.975 41.546 -30.644 Q41.57 -29.312 40.582 -28.277 Q39.499 -27.241 38.217 -27.266 Q36.935 -27.291 35.923 -28.305 L19.91 -44.359 Q19.429 -44.841 19.158 -45.437 Q18.887 -46.033 18.887 -46.693 Q18.887 -47.353 19.158 -47.948 Q19.429 -48.544 19.873 -48.988 L35.916 -65.031 Q36.935 -66.05 38.258 -66.05 Q39.581 -66.05 40.584 -65.015 Q41.62 -63.979 41.669 -62.697 Q41.718 -61.415 40.696 -60.393 L30.229 -49.974 H63.416 Q66.148 -49.974 68.086 -48.036 Q70.024 -46.098 70.024 -43.367 V-11.116 Q70.024 -9.755 69.058 -8.784 Q68.093 -7.812 66.741 -7.812 Q65.388 -7.812 64.402 -8.784 Q63.416 -9.755 63.416 -11.116 V-43.367 Q63.416 -43.367 63.416 -43.367 Q63.416 -43.367 63.416 -43.367 H30.229 Z"/></g><g id="Light-S" transform="matrix(1 0 0 1 1109.75 696)"><path d="M28.446 -44.391  39.777 -32.97 Q40.497 -32.222 40.54 -31.27 Q40.584 -30.318 39.823 -29.567 Q39.006 -28.797 38.094 -28.85 Q37.182 -28.903 36.473 -29.614 L21.466 -44.681 Q21.003 -45.126 20.761 -45.646 Q20.518 -46.166 20.518 -46.769 Q20.518 -47.372 20.761 -47.892 Q21.003 -48.412 21.428 -48.836 L36.523 -63.931 Q37.277 -64.685 38.201 -64.685 Q39.126 -64.685 39.863 -63.915 Q40.614 -63.145 40.654 -62.232 Q40.694 -61.32 39.975 -60.601 L28.446 -49.121 H62.297 Q64.763 -49.121 66.502 -47.382 Q68.241 -45.643 68.241 -43.177 V-11.97 Q68.241 -10.988 67.55 -10.292 Q66.86 -9.595 65.906 -9.595 Q64.933 -9.595 64.222 -10.292 Q63.511 -10.988 63.511 -11.97 V-43.177 Q63.511 -43.689 63.169 -44.04 Q62.828 -44.391 62.297 -44.391 H28.446 Z"/></g><g id="Thin-S" transform="matrix(1 0 0 1 814.015 696)"><path d="M26.663 -45.415  39.037 -32.951 Q39.473 -32.468 39.535 -31.896 Q39.598 -31.323 39.065 -30.856 Q38.513 -30.352 37.971 -30.433 Q37.428 -30.515 37.023 -30.922 L23.021 -45.004 Q22.578 -45.41 22.363 -45.854 Q22.149 -46.299 22.149 -46.845 Q22.149 -47.391 22.363 -47.835 Q22.578 -48.279 22.983 -48.685 L37.13 -62.831 Q37.618 -63.319 38.145 -63.319 Q38.671 -63.319 39.143 -62.815 Q39.609 -62.31 39.64 -61.768 Q39.67 -61.225 39.255 -60.81 L26.663 -48.267 H61.178 Q63.379 -48.267 64.918 -46.728 Q66.458 -45.188 66.458 -42.987 V-12.823 Q66.458 -12.221 66.043 -11.799 Q65.627 -11.378 65.072 -11.378 Q64.478 -11.378 64.042 -11.799 Q63.606 -12.221 63.606 -12.823 V-42.987 Q63.606 -44.011 62.923 -44.713 Q62.24 -45.415 61.178 -45.415 H26.663 Z"/></g><g id="Ultralight-S" transform="matrix(1 0 0 1 517.792 696)"><path d="M25.593 -46.029  38.593 -32.94 Q38.858 -32.616 38.932 -32.271 Q39.006 -31.926 38.61 -31.63 Q38.217 -31.285 37.897 -31.384 Q37.576 -31.482 37.353 -31.708 L23.954 -45.197 Q23.522 -45.581 23.325 -45.98 Q23.128 -46.378 23.128 -46.89 Q23.128 -47.402 23.325 -47.801 Q23.522 -48.199 23.917 -48.594 L37.494 -62.171 Q37.823 -62.5 38.11 -62.5 Q38.398 -62.5 38.71 -62.155 Q39.006 -61.809 39.031 -61.489 Q39.056 -61.168 38.822 -60.935 L25.593 -47.755 H60.506 Q62.548 -47.755 63.968 -46.335 Q65.388 -44.915 65.388 -42.873 V-13.335 Q65.388 -12.96 65.138 -12.704 Q64.887 -12.448 64.571 -12.448 Q64.205 -12.448 63.934 -12.704 Q63.662 -12.96 63.662 -13.335 V-42.873 Q63.662 -44.205 62.775 -45.117 Q61.887 -46.029 60.506 -46.029 H25.593 Z"/></g></g></svg>