<svg xmlns="http://www.w3.org/2000/svg" height="48" viewBox="0 -960 960 960" width="48"><path d="M374-870v-35h212v35H374Zm106 763q-67.328 0-125.543-25.464t-101.872-68.621q-43.657-43.157-68.621-101.872T159-428.5q0-66.828 24.964-125.043t68.621-101.872q43.657-43.657 101.872-68.621T480-749q60.409 0 114.705 21Q649-707 693-668l43-45 26 26-45 44q40 43 62 97t22 118q0 66.328-24.964 125.043t-68.621 101.872q-43.657 43.157-101.872 68.621T480-107Zm-.141-35Q599-142 682.5-225.359q83.5-83.358 83.5-202.5Q766-547 682.641-630.5q-83.358-83.5-202.5-83.5Q361-714 277.5-630.641q-83.5 83.358-83.5 202.5Q194-309 277.359-225.5q83.358 83.5 202.5 83.5ZM480-428Zm-58 112 167-113-167-112v225Z"/></svg>