<svg xmlns="http://www.w3.org/2000/svg" height="24" viewBox="0 -960 960 960" width="24"><path d="M370.116-847.578v-55.96h219.768v55.96H370.116Zm110.108 739.5q-68.814 0-129.423-26.212-60.608-26.211-105.843-71.534-45.236-45.323-71.461-105.884-26.226-60.561-26.226-129.235 0-68.481 26.226-129.061 26.225-60.58 71.461-105.845 45.235-45.265 105.772-71.477 60.537-26.211 129.27-26.211 61.384 0 115.019 20.635 53.635 20.634 100.019 57.634l48.23-48.23 39.422 39.422-48.23 48.23q36.692 45.577 57.481 99.615 20.788 54.039 20.788 115.423 0 68.689-26.214 129.185-26.214 60.497-71.429 105.772-45.214 45.275-105.727 71.524-60.513 26.249-129.135 26.249Zm-70.108-196.039 205.036-136.691-205.036-136.691v273.382Z"/></svg>