<svg xmlns="http://www.w3.org/2000/svg" height="48" viewBox="0 -960 960 960" width="48"><path d="M119.137-182.771q-22.595 0-39.327-16.732-16.732-16.731-16.732-39.345v-482.304q0-22.614 16.732-39.345 16.732-16.732 39.327-16.732h721.726q23.047 0 39.553 16.732 16.506 16.731 16.506 39.345v482.304q0 22.614-16.506 39.345-16.506 16.732-39.553 16.732H119.137Zm118.786-249.46h90.309v47.115q0 8.626 5.854 14.448 5.855 5.821 14.435 5.821 8.196 0 13.684-5.814 5.488-5.815 5.488-14.542v-158.951q0-21.405-14.797-36.202-14.797-14.797-36.203-14.797h-67.231q-21.405 0-36.202 14.797-14.797 14.797-14.797 36.202v158.951q0 8.727 5.854 14.542 5.855 5.814 14.435 5.814 8.196 0 13.684-5.821 5.487-5.822 5.487-14.448v-47.115Zm0-39.461v-77.846q0-2.308 1.924-4.231 1.923-1.924 4.231-1.924h78q2.307 0 4.231 1.924 1.923 1.923 1.923 4.231v77.846h-90.309Zm271.231 64.193L463.5-580.923q-1.808-5.961-6.777-10.096-4.968-4.134-11.722-4.134-9.731 0-16.27 7.769-6.538 7.769-2.846 16.846l52.039 187.922q2.192 8.231 8.889 13 6.697 4.769 15.528 4.769h13.822q8.068 0 14.549-4.769 6.48-4.769 8.673-12.384l56.999-189.654q3.231-8.964-2.811-16.232-6.042-7.267-15.324-7.267-6.987 0-12.097 3.428-5.11 3.429-6.267 9.687l-50.731 174.539Zm212.923-148.194v170.577q0 8.626 5.854 14.448 5.855 5.821 14.435 5.821 8.196 0 13.684-5.821 5.487-5.822 5.487-14.448v-190.442q0-7.956-5.571-13.776-5.571-5.819-13.62-5.819h-63.615q-8.626 0-14.448 5.769-5.821 5.769-5.821 14.217 0 8.282 5.821 13.878 5.822 5.596 14.448 5.596h43.346Z"/></svg>