<svg xmlns="http://www.w3.org/2000/svg" height="40" viewBox="0 -960 960 960" width="40"><path d="m480.667-120.667-108.666-98.666q-86.668-79-142.834-135.667Q173-411.667 139.833-456.667q-33.166-45-46.333-84.333-13.167-39.333-13.167-82.667 0-92 61.667-154.166Q203.667-840 293.667-840q55.333 0 103.666 25 48.334 25 83.334 72.334Q516.333-790 564-815t103-25q90 0 151.667 62.167 61.666 62.166 61.666 154.166 0 43.334-13.166 82.667-13.167 39.333-46.334 84.333-33.166 45-89.333 101.667T588.666-219.333l-107.999 98.666ZM265-413.333h431.334q20-21 35.666-39.167 15.667-18.167 28.001-34.167H201.333q12.333 16 27.667 34.167 15.333 18.167 36 39.167Zm215.667 204q44.667-40.667 81.5-74.167 36.834-33.5 66.834-63.167H332.333q30 29.667 66.833 63.167Q436-250 480.667-209.333Z"/></svg>