<svg xmlns="http://www.w3.org/2000/svg" version="1.1" width="3300" height="2000"><g id="Notes"><style>
    text {
      font-family: monospace;
      text-anchor: middle;
    }
    text.emphasis {
      font-weight:bold;
    }
    text.lanchor {
      text-anchor: start;
    }
  </style><rect height="2200" id="artboard" fill="white" width="3300" x="0" y="0"/><line id="" style="fill:none;stroke:black;stroke-width:0.5;" x1="263" x2="3036" y1="292" y2="292"/><text class="lanchor emphasis" transform="matrix(1 0 0 1 263 322)">Weight/Scale Variations</text><text transform="matrix(1 0 0 1 559.711 322)">Ultralight</text><text transform="matrix(1 0 0 1 856.422 322)">Thin</text><text transform="matrix(1 0 0 1 1153.13 322)">Light</text><text transform="matrix(1 0 0 1 1449.84 322)">Regular</text><text transform="matrix(1 0 0 1 1746.56 322)">Medium</text><text transform="matrix(1 0 0 1 2043.27 322)">Semibold</text><text transform="matrix(1 0 0 1 2339.98 322)">Bold</text><text transform="matrix(1 0 0 1 2636.69 322)">Heavy</text><text transform="matrix(1 0 0 1 2933.4 322)">Black</text><text id="template-version" style="text-anchor: end;" transform="matrix(1 0 0 1 3036 1933)">Template v.1.0</text><text class="lanchor" transform="matrix(1 0 0 1 263 726)">Small</text><text class="lanchor" transform="matrix(1 0 0 1 263 1156)">Medium</text><text class="lanchor" transform="matrix(1 0 0 1 263 1586)">Large</text></g><g id="Guides"><g id="H-reference" style="fill:#27AAE1;stroke:none;" transform="matrix(1 0 0 1 339 696)"><path d="M 54.9316 0 L 57.666 0 L 30.5664 -70.459 L 28.0762 -70.459 L 0.976562 0 L 3.66211 0 L 12.9395 -24.4629 L 45.7031 -24.4629 Z M 29.1992 -67.0898 L 29.4434 -67.0898 L 44.8242 -26.709 L 13.8184 -26.709 Z"/></g><line id="Baseline-S" style="fill:none;stroke:#27AAE1;opacity:1;stroke-width:0.577;" x1="263" x2="3036" y1="696" y2="696"/><line id="Capline-S" style="fill:none;stroke:#27AAE1;opacity:1;stroke-width:0.577;" x1="263" x2="3036" y1="625.541" y2="625.541"/><g id="H-reference" style="fill:#27AAE1;stroke:none;" transform="matrix(1 0 0 1 339 1126)"><path d="M 54.9316 0 L 57.666 0 L 30.5664 -70.459 L 28.0762 -70.459 L 0.976562 0 L 3.66211 0 L 12.9395 -24.4629 L 45.7031 -24.4629 Z M 29.1992 -67.0898 L 29.4434 -67.0898 L 44.8242 -26.709 L 13.8184 -26.709 Z"/></g><line id="Baseline-M" style="fill:none;stroke:#27AAE1;opacity:1;stroke-width:0.577;" x1="263" x2="3036" y1="1126" y2="1126"/><line id="Capline-M" style="fill:none;stroke:#27AAE1;opacity:1;stroke-width:0.577;" x1="263" x2="3036" y1="1055.54" y2="1055.54"/><g id="H-reference" style="fill:#27AAE1;stroke:none;" transform="matrix(1 0 0 1 339 1556)"><path d="M 54.9316 0 L 57.666 0 L 30.5664 -70.459 L 28.0762 -70.459 L 0.976562 0 L 3.66211 0 L 12.9395 -24.4629 L 45.7031 -24.4629 Z M 29.1992 -67.0898 L 29.4434 -67.0898 L 44.8242 -26.709 L 13.8184 -26.709 Z"/></g><line id="Baseline-L" style="fill:none;stroke:#27AAE1;opacity:1;stroke-width:0.577;" x1="263" x2="3036" y1="1556" y2="1556"/><line id="Capline-L" style="fill:none;stroke:#27AAE1;opacity:1;stroke-width:0.577;" x1="263" x2="3036" y1="1485.54" y2="1485.54"/><rect height="119.336" id="left-margin" style="fill:darkred;stroke:none;opacity:0.4;" width="12.4512" x="1394.06" y="1030.79"/><rect height="119.336" id="right-margin" style="fill:darkgreen;stroke:none;opacity:0.4;" width="12.4512" x="1502.5112" y="1030.79"/><rect x="1406.5112" y="1045" width="96" height="96" fill="none" stroke="blue" stroke-dasharray="5"/><rect x="1394.06" y="1030.79" width="120.9024" height="119.336" fill="none" stroke="blue"/></g><g id="Symbols"><g id="Bold-L" transform="matrix(1 0 0 1 2266 1556)"><path d="M34.991 32.656 Q29.061 32.656 24.689 28.284 Q20.317 23.912 20.317 17.983 V-88.442 Q20.317 -94.439 24.689 -98.858 Q29.061 -103.277 34.991 -103.277 H90.139 L130.613 -62.965 V-39.094 Q125.936 -38.777 122.228 -36.681 Q118.519 -34.585 115.455 -31.521 L78.045 5.889 V32.656 H34.991 Z M87.72 32.656 V9.759 L124.163 -26.2 Q125.614 -27.993 127.828 -28.87 Q130.042 -29.747 132.175 -29.747 Q134.648 -29.747 136.823 -28.78 Q138.998 -27.812 140.771 -26.2 L146.738 -20.072 Q148.521 -18.436 149.322 -16.265 Q150.124 -14.094 150.124 -12.004 Q150.124 -9.591 149.161 -7.344 Q148.198 -5.096 146.576 -3.302 L110.618 32.656 H87.72 Z M133.354 -6.527  138.191 -12.01  132.225 -17.976  127.226 -12.655  133.354 -6.527 Z M80.786 -53.612 H115.778 L80.786 -88.442 L115.778 -53.612 L80.786 -88.442 V-53.612 Z"/></g><g id="Semibold-L" transform="matrix(1 0 0 1 1970.27 1556)"><path d="M34.36 32.306 Q28.995 32.306 24.971 28.283 Q20.948 24.259 20.948 18.894 V-89.354 Q20.948 -94.757 24.971 -98.807 Q28.995 -102.857 34.36 -102.857 H89.157 L130.262 -61.773 V-38.465 Q126.077 -38.217 122.648 -36.261 Q119.22 -34.305 116.437 -31.521 L78.746 6.169 V32.306 H34.36 Z M88.421 32.306 V10.109 L124.653 -25.779 Q126.093 -27.502 128.202 -28.309 Q130.312 -29.117 132.376 -29.117 Q134.716 -29.117 136.822 -28.254 Q138.927 -27.392 140.631 -25.779 L146.597 -19.652 Q148.306 -18.026 149.075 -15.957 Q149.843 -13.889 149.843 -11.866 Q149.843 -9.591 148.918 -7.434 Q147.992 -5.276 146.436 -3.583 L110.618 32.306 H88.421 Z M133.424 -6.317  138.402 -11.87  132.435 -17.836  127.296 -12.445  133.424 -6.317 Z M80.576 -53.262 H116.759 L80.576 -89.354 L116.759 -53.262 L80.576 -89.354 V-53.262 Z"/></g><g id="Medium-L" transform="matrix(1 0 0 1 1674.31 1556)"><path d="M33.887 32.043 Q28.945 32.043 25.183 28.281 Q21.422 24.52 21.422 19.577 V-90.037 Q21.422 -94.996 25.183 -98.768 Q28.945 -102.541 33.887 -102.541 H88.421 L129.999 -60.879 V-37.994 Q126.182 -37.796 122.964 -35.945 Q119.746 -34.094 117.173 -31.521 L79.272 6.379 V32.043 H33.887 Z M88.947 32.043 V10.372 L125.021 -25.464 Q126.452 -27.134 128.484 -27.889 Q130.515 -28.643 132.527 -28.643 Q134.767 -28.643 136.821 -27.86 Q138.875 -27.076 140.526 -25.464 L146.492 -19.336 Q148.145 -17.718 148.889 -15.727 Q149.633 -13.735 149.633 -11.763 Q149.633 -9.591 148.735 -7.501 Q147.837 -5.411 146.331 -3.793 L110.618 32.043 H88.947 Z M133.476 -6.159  138.559 -11.765  132.593 -17.731  127.349 -12.287  133.476 -6.159 Z M80.418 -52.999 H117.495 L80.418 -90.037 L117.495 -52.999 L80.418 -90.037 V-52.999 Z"/></g><g id="Regular-L" transform="matrix(1 0 0 1 1378.56 1556)"><path d="M33.54 31.85 Q28.908 31.85 25.338 28.28 Q21.769 24.711 21.769 20.079 V-90.539 Q21.769 -95.171 25.338 -98.74 Q28.908 -102.31 33.54 -102.31 H87.881 L129.806 -60.224 V-37.649 Q126.259 -37.487 123.195 -35.714 Q120.131 -33.94 117.713 -31.521 L79.657 6.534 V31.85 H33.54 Z M89.332 31.85 V10.565 L125.291 -25.232 Q126.716 -26.864 128.689 -27.58 Q130.663 -28.296 132.637 -28.296 Q134.805 -28.296 136.821 -27.571 Q138.836 -26.845 140.449 -25.232 L146.415 -19.105 Q148.028 -17.492 148.753 -15.557 Q149.479 -13.622 149.479 -11.687 Q149.479 -9.591 148.601 -7.55 Q147.724 -5.51 146.254 -3.947 L110.618 31.85 H89.332 Z M133.515 -6.044  138.675 -11.687  132.709 -17.654  127.388 -12.171  133.515 -6.044 Z M80.303 -52.806 H118.035 L80.303 -90.539 L118.035 -52.806 L80.303 -90.539 V-52.806 Z"/></g><g id="Light-L" transform="matrix(1 0 0 1 1082.77 1556)"><path d="M36.393 28.625 Q31.823 28.625 28.409 25.21 Q24.994 21.796 24.994 17.226 V-87.686 Q24.994 -92.256 28.409 -95.67 Q31.823 -99.085 36.393 -99.085 H89.494 L126.581 -61.836 V-38.889 Q123.034 -38.852 120.001 -37.078 Q116.968 -35.304 114.549 -32.948 L76.432 5.231 V28.625 H36.393 Z M88.216 28.625 V10.131 L123.555 -25.046 Q124.731 -26.368 126.333 -26.96 Q127.934 -27.552 129.536 -27.552 Q131.27 -27.552 132.944 -26.981 Q134.619 -26.411 135.921 -25.108 L141.887 -18.919 Q143.19 -17.555 143.791 -15.992 Q144.393 -14.429 144.393 -12.866 Q144.393 -11.142 143.639 -9.504 Q142.886 -7.867 141.788 -6.552 L106.71 28.625 H88.216 Z M130.414 -7.284  135.574 -12.866  129.608 -18.894  124.286 -13.412  130.414 -7.284 Z M83.528 -56.031 H117.167 L83.528 -89.67 L117.167 -56.031 L83.528 -89.67 V-56.031 Z"/></g><g id="Thin-L" transform="matrix(1 0 0 1 787.282 1556)"><path d="M39.246 25.4 Q34.738 25.4 31.478 22.14 Q28.219 18.881 28.219 14.373 V-84.833 Q28.219 -89.341 31.478 -92.6 Q34.738 -95.86 39.246 -95.86 H91.106 L123.356 -63.449 V-40.13 Q119.809 -40.216 116.807 -38.443 Q113.805 -36.669 111.387 -34.374 L73.207 3.929 V25.4 H39.246 Z M87.1 25.4 V9.697 L121.818 -24.86 Q122.746 -25.872 123.976 -26.34 Q125.206 -26.808 126.435 -26.808 Q127.735 -26.808 129.068 -26.392 Q130.402 -25.977 131.394 -24.984 L137.36 -18.733 Q138.352 -17.617 138.83 -16.426 Q139.308 -15.235 139.308 -14.044 Q139.308 -12.692 138.678 -11.458 Q138.049 -10.223 137.323 -9.157 L102.803 25.4 H87.1 Z M127.313 -8.525  132.473 -14.044  126.507 -20.135  121.186 -14.652  127.313 -8.525 Z M86.752 -59.256 H116.298 L86.752 -88.802 L116.298 -59.256 L86.752 -88.802 V-59.256 Z"/></g><g id="Ultralight-L" transform="matrix(1 0 0 1 491.205 1556)"><path d="M40.958 23.465 Q36.487 23.465 33.32 20.299 Q30.154 17.132 30.154 12.661 V-83.121 Q30.154 -87.592 33.32 -90.758 Q36.487 -93.925 40.958 -93.925 H92.074 L121.421 -64.416 V-40.874 Q117.874 -41.035 114.891 -39.261 Q111.907 -37.487 109.489 -35.23 L71.273 3.148 V23.465 H40.958 Z M86.43 23.465 V9.436 L120.776 -24.749 Q121.556 -25.574 122.562 -25.968 Q123.568 -26.361 124.575 -26.361 Q125.614 -26.361 126.743 -26.039 Q127.871 -25.716 128.678 -24.91 L134.644 -18.621 Q135.45 -17.654 135.853 -16.686 Q136.256 -15.719 136.256 -14.751 Q136.256 -13.622 135.701 -12.63 Q135.147 -11.637 134.644 -10.72 L100.459 23.465 H86.43 Z M125.453 -9.269  130.613 -14.751  124.646 -20.879  119.325 -15.396  125.453 -9.269 Z M88.688 -61.191 H115.778 L88.688 -88.281 L115.778 -61.191 L88.688 -88.281 V-61.191 Z"/></g><g id="Bold-M" transform="matrix(1 0 0 1 2281.8 1126)"><path d="M27.875 20.52 Q20.784 20.52 15.83 15.565 Q10.875 10.611 10.875 3.52 V-73.98 Q10.875 -81.071 15.83 -86.025 Q20.784 -90.98 27.875 -90.98 H67.75 L102.25 -56.48 V-40.73 Q97.25 -40.605 93 -38.167 Q88.75 -35.73 85.25 -32.23 L56.375 -3.355 V20.52 H27.875 Z M66.375 20.52 V0.77 L95 -27.605 Q96.479 -29.245 98.447 -29.987 Q100.414 -30.73 102.32 -30.73 Q104.5 -30.73 106.438 -29.917 Q108.375 -29.105 109.875 -27.605 L114.5 -22.855 Q116.125 -21.355 116.875 -19.417 Q117.625 -17.48 117.625 -15.48 Q117.625 -13.355 116.882 -11.398 Q116.14 -9.441 114.5 -7.855 L86.125 20.52 H66.375 Z M104 -12.23  107 -15.48  102.375 -20.105  99.25 -16.98  104 -12.23 Z M58.875 -47.73 H85.25 L58.875 -73.98 L85.25 -47.73 L58.875 -73.98 V-47.73 Z"/></g><g id="Semibold-M" transform="matrix(1 0 0 1 1985.97 1126)"><path d="M27.495 19.759 Q21.11 19.759 16.618 15.266 Q12.125 10.774 12.125 4.39 V-74.849 Q12.125 -81.234 16.618 -85.726 Q21.11 -90.219 27.495 -90.219 H67.098 L101.815 -55.393 V-40.132 Q97.304 -40.061 93.462 -37.814 Q89.62 -35.567 86.446 -32.393 L57.245 -3.246 V19.759 H27.495 Z M67.245 19.759 V0.933 L95.652 -27.279 Q97.077 -28.81 98.909 -29.498 Q100.74 -30.186 102.537 -30.186 Q104.554 -30.186 106.383 -29.456 Q108.212 -28.725 109.658 -27.279 L114.283 -22.529 Q115.799 -21.083 116.495 -19.282 Q117.19 -17.48 117.19 -15.589 Q117.19 -13.627 116.502 -11.778 Q115.814 -9.93 114.283 -8.453 L86.071 19.759 H67.245 Z M104 -12.121  107.217 -15.589  102.592 -20.214  99.25 -16.871  104 -12.121 Z M59.147 -47.621 H86.446 L59.147 -74.849 L86.446 -47.621 L59.147 -74.849 V-47.621 Z"/></g><g id="Medium-M" transform="matrix(1 0 0 1 1689.91 1126)"><path d="M27.209 19.189 Q21.355 19.189 17.209 15.042 Q13.062 10.896 13.062 5.042 V-75.502 Q13.062 -81.356 17.209 -85.502 Q21.355 -89.648 27.209 -89.648 H66.609 L101.489 -54.578 V-39.684 Q97.345 -39.654 93.808 -37.549 Q90.272 -35.445 87.342 -32.515 L57.897 -3.165 V19.189 H27.209 Z M67.897 19.189 V1.055 L96.141 -27.034 Q97.525 -28.484 99.255 -29.131 Q100.985 -29.779 102.7 -29.779 Q104.595 -29.779 106.342 -29.109 Q108.09 -28.439 109.495 -27.034 L114.12 -22.284 Q115.554 -20.879 116.209 -19.18 Q116.864 -17.48 116.864 -15.67 Q116.864 -13.83 116.217 -12.064 Q115.569 -10.297 114.12 -8.901 L86.03 19.189 H67.897 Z M104 -12.04  107.38 -15.67  102.755 -20.295  99.25 -16.79  104 -12.04 Z M59.35 -47.54 H87.342 L59.35 -75.502 L87.342 -47.54 L59.35 -75.502 V-47.54 Z"/></g><g id="Regular-M" transform="matrix(1 0 0 1 1394.06 1126)"><path d="M27 18.77 Q21.534 18.77 17.642 14.878 Q13.75 10.986 13.75 5.52 V-75.98 Q13.75 -81.446 17.642 -85.338 Q21.534 -89.23 27 -89.23 H66.25 L101.25 -53.98 V-39.355 Q97.375 -39.355 94.062 -37.355 Q90.75 -35.355 88 -32.605 L58.375 -3.105 V18.77 H27 Z M68.375 18.77 V1.145 L96.5 -26.855 Q97.854 -28.245 99.509 -28.862 Q101.164 -29.48 102.82 -29.48 Q104.625 -29.48 106.312 -28.855 Q108 -28.23 109.375 -26.855 L114 -22.105 Q115.375 -20.73 116 -19.105 Q116.625 -17.48 116.625 -15.73 Q116.625 -13.98 116.007 -12.273 Q115.39 -10.566 114 -9.23 L86 18.77 H68.375 Z M104 -11.98  107.5 -15.73  102.875 -20.355  99.25 -16.73  104 -11.98 Z M59.5 -47.48 H88 L59.5 -75.98 L88 -47.48 L59.5 -75.98 V-47.48 Z"/></g><g id="Light-M" transform="matrix(1 0 0 1 1098.18 1126)"><path d="M28.539 16.27 Q23.41 16.27 19.83 12.69 Q16.25 9.111 16.25 3.981 V-74.441 Q16.25 -79.57 19.83 -83.15 Q23.41 -86.73 28.539 -86.73 H67.5 L98.75 -55.23 V-39.595 Q95.067 -39.74 91.923 -37.836 Q88.779 -35.932 86.173 -33.326 L56.548 -3.826 V16.27 H28.539 Z M67.51 16.27 V0.808 L95.154 -26.711 Q96.316 -27.86 97.682 -28.381 Q99.049 -28.903 100.415 -28.903 Q101.884 -28.903 103.308 -28.398 Q104.731 -27.893 105.865 -26.759 L110.49 -21.961 Q111.673 -20.778 112.178 -19.442 Q112.682 -18.105 112.682 -16.643 Q112.682 -15.182 112.161 -13.787 Q111.639 -12.393 110.49 -11.249 L82.971 16.27 H67.51 Z M101.596 -12.942  105.096 -16.643  100.471 -21.317  96.846 -17.692  101.596 -12.942 Z M62 -49.98 H88 L62 -75.98 L88 -49.98 L62 -75.98 V-49.98 Z"/></g><g id="Thin-M" transform="matrix(1 0 0 1 802.565 1126)"><path d="M30.077 13.77 Q25.284 13.77 22.017 10.503 Q18.75 7.236 18.75 2.443 V-72.903 Q18.75 -77.696 22.017 -80.963 Q25.284 -84.23 30.077 -84.23 H68.75 L96.25 -56.48 V-39.836 Q92.76 -40.124 89.784 -38.316 Q86.808 -36.509 84.346 -34.047 L54.721 -4.547 V13.77 H30.077 Z M66.644 13.77 V0.472 L93.808 -26.566 Q94.777 -27.475 95.856 -27.901 Q96.934 -28.326 98.012 -28.326 Q99.144 -28.326 100.303 -27.941 Q101.462 -27.557 102.356 -26.663 L106.981 -21.816 Q107.971 -20.826 108.356 -19.778 Q108.74 -18.73 108.74 -17.557 Q108.74 -16.384 108.315 -15.302 Q107.89 -14.22 106.981 -13.268 L79.942 13.77 H66.644 Z M99.192 -13.903  102.692 -17.557  98.067 -22.278  94.442 -18.653  99.192 -13.903 Z M64.5 -52.48 H88 L64.5 -75.98 L88 -52.48 L64.5 -75.98 V-52.48 Z"/></g><g id="Ultralight-M" transform="matrix(1 0 0 1 506.415 1126)"><path d="M31 12.27 Q26.409 12.27 23.33 9.19 Q20.25 6.111 20.25 1.52 V-71.98 Q20.25 -76.571 23.33 -79.65 Q26.409 -82.73 31 -82.73 H69.5 L94.75 -57.23 V-39.98 Q91.375 -40.355 88.5 -38.605 Q85.625 -36.855 83.25 -34.48 L53.625 -4.98 V12.27 H31 Z M66.125 12.27 V0.27 L93 -26.48 Q93.854 -27.245 94.759 -27.612 Q95.664 -27.98 96.57 -27.98 Q97.5 -27.98 98.5 -27.667 Q99.5 -27.355 100.25 -26.605 L104.875 -21.73 Q105.75 -20.855 106.062 -19.98 Q106.375 -19.105 106.375 -18.105 Q106.375 -17.105 106.007 -16.21 Q105.64 -15.316 104.875 -14.48 L78.125 12.27 H66.125 Z M97.75 -14.48  101.25 -18.105  96.625 -22.855  93 -19.23  97.75 -14.48 Z M66 -53.98 H88 L66 -75.98 L88 -53.98 L66 -75.98 V-53.98 Z"/></g><g id="Bold-S" transform="matrix(1 0 0 1 2294.23 696)"><path d="M24.36 7.179 Q19.091 7.179 15.414 3.501 Q11.736 -0.176 11.736 -5.445 V-65.015 Q11.736 -70.284 15.414 -73.961 Q19.091 -77.639 24.36 -77.639 H55.033 L77.519 -55.152 V-36.907 Q73.772 -36.216 70.714 -33.701 Q67.657 -31.186 64.895 -28.425 L46.847 -10.376 V7.179 H24.36 Z M53.948 7.179 V-7.418 L75.448 -28.721 Q76.443 -29.858 77.786 -30.374 Q79.128 -30.89 80.41 -30.89 Q81.89 -30.89 83.197 -30.348 Q84.505 -29.806 85.508 -28.819 L89.847 -24.283 Q90.99 -23.271 91.504 -21.952 Q92.017 -20.633 92.017 -19.277 Q92.017 -17.821 91.501 -16.508 Q90.984 -15.195 89.847 -14.124 L68.544 7.179 H53.948 Z M81.662 -15.998  84.818 -19.253  80.379 -23.691  77.223 -20.436  81.662 -15.998 Z M47.241 -47.459 H64.895 L47.241 -65.015 L64.895 -47.459 L47.241 -65.015 V-47.459 Z"/></g><g id="Semibold-S" transform="matrix(1 0 0 1 1998.1 696)"><path d="M24.06 6.578 Q19.349 6.578 16.036 3.265 Q12.723 -0.048 12.723 -4.759 V-65.701 Q12.723 -70.412 16.036 -73.725 Q19.349 -77.038 24.06 -77.038 H54.518 L77.176 -54.295 V-36.435 Q73.814 -35.787 71.079 -33.423 Q68.343 -31.058 65.839 -28.553 L47.533 -10.291 V6.578 H24.06 Z M54.634 6.578 V-7.289 L75.963 -28.463 Q76.915 -29.515 78.15 -29.988 Q79.386 -30.462 80.582 -30.462 Q81.933 -30.462 83.155 -29.984 Q84.377 -29.506 85.336 -28.562 L89.676 -24.025 Q90.733 -23.057 91.204 -21.845 Q91.674 -20.633 91.674 -19.362 Q91.674 -18.035 91.201 -16.808 Q90.727 -15.581 89.676 -14.596 L68.501 6.578 H54.634 Z M81.662 -15.912  84.989 -19.339  80.551 -23.777  77.223 -20.35  81.662 -15.912 Z M47.456 -47.374 H65.839 L47.456 -65.701 L65.839 -47.374 L47.456 -65.701 V-47.374 Z"/></g><g id="Medium-S" transform="matrix(1 0 0 1 1701.85 696)"><path d="M23.835 6.128 Q19.542 6.128 16.502 3.089 Q13.462 0.049 13.462 -4.245 V-66.215 Q13.462 -70.509 16.502 -73.549 Q19.542 -76.588 23.835 -76.588 H54.132 L76.919 -53.651 V-36.081 Q73.847 -35.466 71.352 -33.214 Q68.857 -30.961 66.546 -28.65 L48.048 -10.226 V6.128 H23.835 Z M55.149 6.128 V-7.193 L76.349 -28.271 Q77.269 -29.258 78.424 -29.699 Q79.579 -30.14 80.711 -30.14 Q81.965 -30.14 83.122 -29.71 Q84.28 -29.28 85.208 -28.369 L89.547 -23.832 Q90.54 -22.896 90.978 -21.765 Q91.417 -20.633 91.417 -19.427 Q91.417 -18.196 90.976 -17.033 Q90.534 -15.87 89.547 -14.95 L68.469 6.128 H55.149 Z M81.662 -15.848  85.118 -19.403  80.679 -23.841  77.223 -20.286  81.662 -15.848 Z M47.617 -47.309 H66.546 L47.617 -66.215 L66.546 -47.309 L47.617 -66.215 V-47.309 Z"/></g><g id="Regular-S" transform="matrix(1 0 0 1 1405.73 696)"><path d="M23.67 5.798 Q19.683 5.798 16.844 2.959 Q14.005 0.12 14.005 -3.867 V-66.593 Q14.005 -70.58 16.844 -73.419 Q19.683 -76.258 23.67 -76.258 H53.849 L76.73 -53.18 V-35.822 Q73.87 -35.23 71.552 -33.06 Q69.235 -30.89 67.065 -28.721 L48.425 -10.179 V5.798 H23.67 Z M55.526 5.798 V-7.122 L76.632 -28.129 Q77.528 -29.069 78.624 -29.487 Q79.72 -29.904 80.805 -29.904 Q81.988 -29.904 83.099 -29.51 Q84.209 -29.115 85.113 -28.228 L89.453 -23.691 Q90.398 -22.778 90.813 -21.706 Q91.228 -20.633 91.228 -19.474 Q91.228 -18.314 90.81 -17.198 Q90.393 -16.082 89.453 -15.209 L68.446 5.798 H55.526 Z M81.662 -15.801  85.212 -19.45  80.774 -23.888  77.223 -20.239  81.662 -15.801 Z M47.735 -47.262 H67.065 L47.735 -66.593 L67.065 -47.262 L47.735 -66.593 V-47.262 Z"/></g><g id="Light-S" transform="matrix(1 0 0 1 1109.75 696)"><path d="M24.884 3.825 Q21.163 3.825 18.57 1.233 Q15.977 -1.36 15.977 -5.081 V-65.379 Q15.977 -69.1 18.57 -71.693 Q21.163 -74.285 24.884 -74.285 H54.836 L74.758 -54.166 V-36.011 Q72.049 -35.533 69.864 -33.44 Q67.679 -31.346 65.623 -29.29 L46.983 -10.748 V3.825 H24.884 Z M54.843 3.825 V-7.387 L75.569 -28.015 Q76.314 -28.765 77.183 -29.107 Q78.051 -29.449 78.908 -29.449 Q79.826 -29.449 80.728 -29.149 Q81.63 -28.85 82.344 -28.152 L86.684 -23.577 Q87.478 -22.816 87.797 -21.971 Q88.117 -21.127 88.117 -20.195 Q88.117 -19.262 87.776 -18.393 Q87.434 -17.524 86.684 -16.802 L66.056 3.825 H54.843 Z M79.765 -16.56  83.315 -20.171  78.877 -24.647  75.327 -20.998  79.765 -16.56 Z M49.707 -49.235 H67.065 L49.707 -66.593 L67.065 -49.235 L49.707 -66.593 V-49.235 Z"/></g><g id="Thin-S" transform="matrix(1 0 0 1 814.015 696)"><path d="M26.098 1.853 Q22.642 1.853 20.296 -0.493 Q17.95 -2.839 17.95 -6.295 V-64.165 Q17.95 -67.621 20.296 -69.967 Q22.642 -72.313 26.098 -72.313 H55.822 L72.785 -55.152 V-36.201 Q70.229 -35.837 68.176 -33.819 Q66.124 -31.801 64.182 -29.859 L45.542 -11.317 V1.853 H26.098 Z M54.16 1.853 V-7.653 L74.507 -27.901 Q75.101 -28.462 75.741 -28.728 Q76.382 -28.994 77.012 -28.994 Q77.664 -28.994 78.357 -28.789 Q79.051 -28.584 79.575 -28.076 L83.915 -23.463 Q84.557 -22.854 84.782 -22.237 Q85.007 -21.62 85.007 -20.915 Q85.007 -20.211 84.741 -19.588 Q84.475 -18.965 83.915 -18.395 L63.666 1.853 H54.16 Z M77.868 -17.318  81.419 -20.891  76.981 -25.405  73.43 -21.756  77.868 -17.318 Z M51.68 -51.207 H67.065 L51.68 -66.593 L67.065 -51.207 L51.68 -66.593 V-51.207 Z"/></g><g id="Ultralight-S" transform="matrix(1 0 0 1 517.792 696)"><path d="M26.826 0.67 Q23.529 0.67 21.331 -1.529 Q19.133 -3.727 19.133 -7.023 V-63.437 Q19.133 -66.733 21.331 -68.931 Q23.529 -71.129 26.826 -71.129 H56.413 L71.602 -55.744 V-36.315 Q69.136 -36.019 67.164 -34.046 Q65.191 -32.074 63.317 -30.2 L44.677 -11.659 V0.67 H26.826 Z M53.751 0.67 V-7.812 L73.87 -27.833 Q74.372 -28.28 74.876 -28.5 Q75.381 -28.721 75.874 -28.721 Q76.367 -28.721 76.935 -28.573 Q77.503 -28.425 77.914 -28.03 L82.253 -23.395 Q82.804 -22.876 82.973 -22.396 Q83.141 -21.916 83.141 -21.348 Q83.141 -20.78 82.92 -20.305 Q82.7 -19.83 82.253 -19.351 L62.232 0.67 H53.751 Z M76.73 -17.773  80.281 -21.324  75.843 -25.861  72.292 -22.211  76.73 -17.773 Z M52.863 -52.391 H67.065 L52.863 -66.593 L67.065 -52.391 L52.863 -66.593 V-52.391 Z"/></g></g></svg>