<svg xmlns="http://www.w3.org/2000/svg" height="40" viewBox="0 -960 960 960" width="40"><path d="M218.461-160q-24.577 0-41.519-16.942Q160-193.884 160-218.461v-523.078q0-24.577 16.942-41.519Q193.884-800 218.461-800h523.078q24.577 0 41.519 16.942Q800-766.116 800-741.539v523.078q0 24.577-16.942 41.519Q766.116-160 741.539-160H218.461Zm0-33.846h523.078q9.231 0 16.923-7.692 7.692-7.692 7.692-16.923v-523.078q0-4.615-1.923-8.846t-5.769-8.077L201.538-201.538q3.846 3.846 8.077 5.769t8.846 1.923Zm473.155-139.231H508.128v-32.307h183.488v32.307ZM252.667-596.154h78.871v78.872h32.308v-78.872h78.872v-32.308h-78.872v-78.871h-32.308v78.871h-78.871v32.308Z"/></svg>