<svg xmlns="http://www.w3.org/2000/svg" version="1.1" width="3300" height="2000"><g id="Notes"><style>
    text {
      font-family: monospace;
      text-anchor: middle;
    }
    text.emphasis {
      font-weight:bold;
    }
    text.lanchor {
      text-anchor: start;
    }
  </style><rect height="2200" id="artboard" fill="white" width="3300" x="0" y="0"/><line id="" style="fill:none;stroke:black;stroke-width:0.5;" x1="263" x2="3036" y1="292" y2="292"/><text class="lanchor emphasis" transform="matrix(1 0 0 1 263 322)">Weight/Scale Variations</text><text transform="matrix(1 0 0 1 559.711 322)">Ultralight</text><text transform="matrix(1 0 0 1 856.422 322)">Thin</text><text transform="matrix(1 0 0 1 1153.13 322)">Light</text><text transform="matrix(1 0 0 1 1449.84 322)">Regular</text><text transform="matrix(1 0 0 1 1746.56 322)">Medium</text><text transform="matrix(1 0 0 1 2043.27 322)">Semibold</text><text transform="matrix(1 0 0 1 2339.98 322)">Bold</text><text transform="matrix(1 0 0 1 2636.69 322)">Heavy</text><text transform="matrix(1 0 0 1 2933.4 322)">Black</text><text id="template-version" style="text-anchor: end;" transform="matrix(1 0 0 1 3036 1933)">Template v.1.0</text><text class="lanchor" transform="matrix(1 0 0 1 263 726)">Small</text><text class="lanchor" transform="matrix(1 0 0 1 263 1156)">Medium</text><text class="lanchor" transform="matrix(1 0 0 1 263 1586)">Large</text></g><g id="Guides"><g id="H-reference" style="fill:#27AAE1;stroke:none;" transform="matrix(1 0 0 1 339 696)"><path d="M 54.9316 0 L 57.666 0 L 30.5664 -70.459 L 28.0762 -70.459 L 0.976562 0 L 3.66211 0 L 12.9395 -24.4629 L 45.7031 -24.4629 Z M 29.1992 -67.0898 L 29.4434 -67.0898 L 44.8242 -26.709 L 13.8184 -26.709 Z"/></g><line id="Baseline-S" style="fill:none;stroke:#27AAE1;opacity:1;stroke-width:0.577;" x1="263" x2="3036" y1="696" y2="696"/><line id="Capline-S" style="fill:none;stroke:#27AAE1;opacity:1;stroke-width:0.577;" x1="263" x2="3036" y1="625.541" y2="625.541"/><g id="H-reference" style="fill:#27AAE1;stroke:none;" transform="matrix(1 0 0 1 339 1126)"><path d="M 54.9316 0 L 57.666 0 L 30.5664 -70.459 L 28.0762 -70.459 L 0.976562 0 L 3.66211 0 L 12.9395 -24.4629 L 45.7031 -24.4629 Z M 29.1992 -67.0898 L 29.4434 -67.0898 L 44.8242 -26.709 L 13.8184 -26.709 Z"/></g><line id="Baseline-M" style="fill:none;stroke:#27AAE1;opacity:1;stroke-width:0.577;" x1="263" x2="3036" y1="1126" y2="1126"/><line id="Capline-M" style="fill:none;stroke:#27AAE1;opacity:1;stroke-width:0.577;" x1="263" x2="3036" y1="1055.54" y2="1055.54"/><g id="H-reference" style="fill:#27AAE1;stroke:none;" transform="matrix(1 0 0 1 339 1556)"><path d="M 54.9316 0 L 57.666 0 L 30.5664 -70.459 L 28.0762 -70.459 L 0.976562 0 L 3.66211 0 L 12.9395 -24.4629 L 45.7031 -24.4629 Z M 29.1992 -67.0898 L 29.4434 -67.0898 L 44.8242 -26.709 L 13.8184 -26.709 Z"/></g><line id="Baseline-L" style="fill:none;stroke:#27AAE1;opacity:1;stroke-width:0.577;" x1="263" x2="3036" y1="1556" y2="1556"/><line id="Capline-L" style="fill:none;stroke:#27AAE1;opacity:1;stroke-width:0.577;" x1="263" x2="3036" y1="1485.54" y2="1485.54"/><rect height="119.336" id="left-margin" style="fill:darkred;stroke:none;opacity:0.4;" width="12.4512" x="1394.06" y="1030.79"/><rect height="119.336" id="right-margin" style="fill:darkgreen;stroke:none;opacity:0.4;" width="12.4512" x="1502.5112" y="1030.79"/><rect x="1406.5112" y="1045" width="96" height="96" fill="none" stroke="blue" stroke-dasharray="5"/><rect x="1394.06" y="1030.79" width="120.9024" height="119.336" fill="none" stroke="blue"/></g><g id="Symbols"><g id="Bold-L" transform="matrix(1 0 0 1 2266 1556)"><path d="M117.229 15.564 V21.853 Q117.229 24.634 115.244 26.509 Q113.258 28.383 109.721 28.383 Q106.667 28.383 104.571 26.267 Q102.474 24.15 102.474 21.046 V-5.721 Q102.474 -7.428 103.677 -8.671 Q104.88 -9.914 106.586 -9.914 H133.354 Q136.458 -9.914 138.615 -7.67 Q140.771 -5.427 140.771 -1.662 Q140.771 1.132 138.766 2.986 Q136.76 4.841 134.16 4.841 H127.71 L140.691 17.821 Q142.868 20.159 142.787 23.087 Q142.706 26.015 140.523 28.167 Q138.318 30.399 135.237 30.479 Q132.155 30.56 129.968 28.303 L117.229 15.564 Z M77.4 32.495 Q63.327 32.495 50.994 27.242 Q38.661 21.988 29.408 12.85 Q20.156 3.712 14.916 -8.597 Q9.675 -20.907 9.675 -34.907 Q9.675 -49.177 14.916 -61.502 Q20.156 -73.827 29.405 -83.029 Q38.653 -92.232 50.981 -97.674 Q63.309 -103.116 77.377 -103.116 Q91.444 -103.116 103.772 -97.674 Q116.1 -92.232 125.38 -83.027 Q134.661 -73.823 139.974 -61.5 Q145.286 -49.177 145.286 -34.907 Q145.286 -33.617 145.125 -32.852 Q144.964 -32.086 144.803 -30.796 Q144.678 -27.378 141.919 -24.894 Q139.159 -22.411 135.972 -22.411 Q132.968 -22.411 131.145 -24.426 Q129.322 -26.442 129.564 -29.506 Q129.726 -30.796 129.968 -32.207 Q130.209 -33.617 130.209 -34.907 Q130.209 -38.63 129.729 -42.191 Q129.248 -45.752 128.287 -49.259 H103.523 Q103.684 -45.55 103.926 -41.976 Q104.168 -38.401 104.168 -34.907 Q104.168 -32.984 103.926 -31.279 Q103.684 -29.575 103.684 -27.651 Q103.764 -25.71 102.271 -24.06 Q100.777 -22.411 98.742 -22.411 Q96.831 -22.411 95.702 -23.549 Q94.573 -24.687 94.573 -26.764 Q94.654 -28.623 94.775 -30.836 Q94.896 -33.049 94.896 -34.907 Q94.896 -38.415 94.811 -42.083 Q94.727 -45.752 94.236 -49.259 H60.867 Q60.227 -45.711 59.985 -42.083 Q59.743 -38.455 59.743 -34.988 Q59.743 -31.521 59.97 -28.027 Q60.198 -24.534 60.733 -21.04 H91.913 Q93.956 -21.04 95.273 -19.762 Q96.589 -18.484 96.589 -16.577 Q96.589 -14.59 95.238 -13.34 Q93.888 -12.091 91.913 -12.091 H62.484 Q64.5 -3.786 67.627 4.347 Q70.753 12.48 77.239 18.144 Q78.582 18.144 79.967 17.781 Q81.351 17.418 82.802 17.257 Q85.543 17.096 87.841 18.95 Q90.139 20.804 90.139 23.315 Q90.139 26.632 87.68 29.241 Q85.221 31.85 82.157 32.011 Q80.706 32.334 79.726 32.414 Q78.747 32.495 77.4 32.495 Z M26.432 -21.04 H51.278 Q50.874 -24.534 50.673 -28.027 Q50.471 -31.521 50.471 -34.907 Q50.471 -38.415 50.552 -42.083 Q50.633 -45.752 51.116 -49.259 H26.421 Q25.385 -45.703 24.907 -42.148 Q24.429 -38.592 24.429 -34.875 Q24.429 -31.36 24.91 -27.92 Q25.39 -24.48 26.432 -21.04 Z M64.339 16.289 Q59.904 10.001 57.244 2.744 Q54.583 -4.512 53.028 -12.091 H29.267 Q34.427 -1.367 43.587 6.09 Q52.747 13.548 64.339 16.289 Z M29.267 -58.208 H52.824 Q54.422 -65.867 57.163 -73.164 Q59.904 -80.461 64.5 -86.911 Q53.132 -83.121 44.021 -75.986 Q34.911 -68.851 29.267 -58.208 Z M62.484 -58.208 H92.558 Q90.461 -66.593 86.793 -74.575 Q83.124 -82.557 77.239 -88.926 Q71.464 -82.456 67.861 -74.444 Q64.258 -66.432 62.484 -58.208 Z M102.207 -58.208 H125.453 Q119.889 -68.609 110.618 -75.986 Q101.346 -83.363 90.139 -86.749 Q94.734 -80.461 97.435 -73.043 Q100.136 -65.626 102.207 -58.208 Z"/></g><g id="Semibold-L" transform="matrix(1 0 0 1 1970.27 1556)"><path d="M115.616 12.058 V20.941 Q115.616 23.372 113.904 25.001 Q112.191 26.63 109.327 26.63 Q106.737 26.63 104.991 24.865 Q103.245 23.099 103.245 20.485 V-5.231 Q103.245 -6.896 104.399 -8.09 Q105.552 -9.283 107.217 -9.283 H132.933 Q135.546 -9.283 137.353 -7.424 Q139.159 -5.565 139.159 -2.573 Q139.159 -0.13 137.438 1.479 Q135.717 3.088 133.389 3.088 H124.345 L139.359 18.102 Q141.185 20.054 141.139 22.509 Q141.094 24.964 139.291 26.765 Q137.387 28.646 134.806 28.692 Q132.225 28.737 130.388 26.83 L115.616 12.058 Z M77.4 30.742 Q63.697 30.742 51.678 25.6 Q39.659 20.457 30.679 11.559 Q21.699 2.66 16.563 -9.318 Q11.428 -21.296 11.428 -34.907 Q11.428 -48.756 16.563 -60.801 Q21.699 -72.845 30.677 -81.802 Q39.655 -90.76 51.671 -96.027 Q63.687 -101.293 77.387 -101.293 Q91.087 -101.293 103.103 -96.027 Q115.118 -90.76 124.115 -81.801 Q133.111 -72.843 138.287 -60.8 Q143.463 -48.756 143.463 -34.907 Q143.463 -33.197 143.302 -31.8 Q143.141 -30.403 142.91 -28.692 Q142.699 -25.814 140.438 -23.797 Q138.177 -21.78 135.481 -21.78 Q132.96 -21.78 131.422 -23.515 Q129.883 -25.25 130.195 -27.823 Q130.427 -29.534 130.669 -31.365 Q130.91 -33.197 130.91 -34.907 Q130.91 -38.606 130.432 -42.214 Q129.954 -45.822 128.998 -49.399 H103.803 Q104.034 -45.69 104.311 -42.081 Q104.588 -38.471 104.588 -34.907 Q104.588 -32.839 104.381 -30.894 Q104.174 -28.949 104.104 -26.88 Q104.115 -24.906 102.621 -23.343 Q101.127 -21.78 99.092 -21.78 Q97.181 -21.78 96.017 -23.001 Q94.854 -24.223 94.924 -26.204 Q95.074 -28.236 95.195 -30.556 Q95.316 -32.875 95.316 -34.907 Q95.316 -38.485 95.163 -42.153 Q95.011 -45.822 94.523 -49.399 H60.583 Q59.946 -45.781 59.705 -42.153 Q59.463 -38.525 59.463 -34.988 Q59.463 -31.451 59.696 -27.934 Q59.93 -24.417 60.478 -20.9 H90.51 Q92.524 -20.9 93.856 -19.587 Q95.187 -18.274 95.187 -16.367 Q95.187 -14.38 93.836 -13.095 Q92.486 -11.81 90.51 -11.81 H62.204 Q64.29 -3.366 67.494 4.824 Q70.699 13.014 77.309 18.705 Q79.143 18.705 81.018 18.377 Q82.893 18.049 84.765 17.818 Q87.015 17.586 88.928 19.16 Q90.84 20.734 90.84 22.855 Q90.84 25.651 88.871 27.769 Q86.903 29.887 84.33 30.118 Q82.458 30.441 80.836 30.592 Q79.213 30.742 77.4 30.742 Z M25.791 -20.9 H50.997 Q50.594 -24.417 50.392 -27.934 Q50.191 -31.451 50.191 -34.907 Q50.191 -38.485 50.306 -42.153 Q50.422 -45.822 50.836 -49.399 H25.78 Q24.749 -45.791 24.274 -42.183 Q23.798 -38.574 23.798 -34.875 Q23.798 -31.29 24.277 -27.827 Q24.754 -24.363 25.791 -20.9 Z M64.198 16.85 Q59.834 10.421 57.068 3.13 Q54.303 -4.161 52.758 -11.81 H28.706 Q33.936 -1.017 43.215 6.511 Q52.494 14.039 64.198 16.85 Z M28.706 -58.489 H52.544 Q54.212 -66.218 57.023 -73.55 Q59.834 -80.881 64.36 -87.471 Q52.922 -83.612 43.636 -76.407 Q34.35 -69.201 28.706 -58.489 Z M62.204 -58.489 H92.838 Q90.742 -67.014 87.038 -75.066 Q83.335 -83.118 77.309 -89.487 Q71.381 -82.99 67.714 -74.957 Q64.048 -66.923 62.204 -58.489 Z M102.487 -58.489 H126.083 Q120.45 -69.029 111.108 -76.442 Q101.766 -83.854 90.419 -87.31 Q94.945 -80.881 97.716 -73.464 Q100.487 -66.046 102.487 -58.489 Z"/></g><g id="Medium-L" transform="matrix(1 0 0 1 1674.31 1556)"><path d="M114.407 9.429 V20.258 Q114.407 22.426 112.898 23.871 Q111.39 25.316 109.032 25.316 Q106.79 25.316 105.307 23.813 Q103.824 22.31 103.824 20.065 V-4.862 Q103.824 -6.497 104.94 -7.654 Q106.055 -8.81 107.69 -8.81 H132.618 Q134.863 -8.81 136.406 -7.239 Q137.949 -5.669 137.949 -3.257 Q137.949 -1.077 136.442 0.348 Q134.935 1.773 132.81 1.773 H121.821 L138.36 18.312 Q139.923 19.975 139.904 22.075 Q139.884 24.175 138.367 25.713 Q136.688 27.331 134.483 27.351 Q132.278 27.37 130.704 25.726 L114.407 9.429 Z M77.4 29.428 Q63.974 29.428 52.191 24.368 Q40.408 19.308 31.632 10.59 Q22.855 1.872 17.799 -9.858 Q12.742 -21.588 12.742 -34.907 Q12.742 -48.441 17.799 -60.275 Q22.855 -72.109 31.631 -80.882 Q40.407 -89.655 52.188 -94.791 Q63.97 -99.926 77.394 -99.926 Q90.819 -99.926 102.601 -94.791 Q114.382 -89.655 123.165 -80.882 Q131.949 -72.108 137.023 -60.274 Q142.096 -48.441 142.096 -34.907 Q142.096 -32.881 141.935 -31.011 Q141.774 -29.141 141.49 -27.115 Q141.215 -24.641 139.328 -22.974 Q137.441 -21.306 135.113 -21.306 Q132.955 -21.306 131.629 -22.831 Q130.304 -24.356 130.669 -26.561 Q130.953 -28.587 131.194 -30.734 Q131.436 -32.881 131.436 -34.907 Q131.436 -38.589 130.96 -42.231 Q130.484 -45.874 129.531 -49.504 H104.013 Q104.297 -45.795 104.6 -42.16 Q104.904 -38.524 104.904 -34.907 Q104.904 -32.73 104.723 -30.605 Q104.543 -28.479 104.42 -26.302 Q104.378 -24.304 102.884 -22.805 Q101.39 -21.306 99.355 -21.306 Q97.444 -21.306 96.254 -22.591 Q95.064 -23.875 95.187 -25.783 Q95.39 -27.945 95.511 -30.345 Q95.632 -32.745 95.632 -34.907 Q95.632 -38.537 95.428 -42.206 Q95.223 -45.874 94.738 -49.504 H60.371 Q59.736 -45.834 59.494 -42.206 Q59.252 -38.578 59.252 -34.988 Q59.252 -31.399 59.491 -27.864 Q59.729 -24.329 60.287 -20.795 H89.459 Q91.45 -20.795 92.793 -19.455 Q94.135 -18.116 94.135 -16.209 Q94.135 -14.222 92.785 -12.911 Q91.434 -11.6 89.459 -11.6 H61.994 Q64.132 -3.05 67.395 5.183 Q70.658 13.415 77.361 19.125 Q79.564 19.125 81.807 18.824 Q84.05 18.522 86.237 18.238 Q88.12 17.954 89.743 19.318 Q91.366 20.682 91.366 22.509 Q91.366 24.915 89.765 26.665 Q88.165 28.415 85.96 28.699 Q83.773 29.021 81.668 29.225 Q79.562 29.428 77.4 29.428 Z M25.311 -20.795 H50.787 Q50.384 -24.329 50.182 -27.864 Q49.981 -31.399 49.981 -34.907 Q49.981 -38.537 50.122 -42.206 Q50.264 -45.874 50.626 -49.504 H25.3 Q24.272 -45.857 23.799 -42.209 Q23.325 -38.561 23.325 -34.875 Q23.325 -31.237 23.801 -27.756 Q24.278 -24.275 25.311 -20.795 Z M64.093 17.271 Q59.782 10.737 56.937 3.419 Q54.092 -3.898 52.555 -11.6 H28.285 Q33.568 -0.754 42.936 6.826 Q52.304 14.407 64.093 17.271 Z M28.285 -58.699 H52.333 Q54.054 -66.481 56.918 -73.839 Q59.782 -81.197 64.255 -87.892 Q52.764 -83.98 43.346 -76.722 Q33.929 -69.464 28.285 -58.699 Z M61.994 -58.699 H93.048 Q90.952 -67.329 87.222 -75.434 Q83.493 -83.538 77.361 -89.908 Q71.318 -83.392 67.604 -75.341 Q63.89 -67.291 61.994 -58.699 Z M102.697 -58.699 H126.557 Q120.871 -69.345 111.476 -76.783 Q102.082 -84.222 90.629 -87.731 Q95.103 -81.197 97.926 -73.779 Q100.75 -66.362 102.697 -58.699 Z"/></g><g id="Regular-L" transform="matrix(1 0 0 1 1378.56 1556)"><path d="M113.52 7.501 V19.756 Q113.52 21.732 112.161 23.042 Q110.803 24.352 108.816 24.352 Q106.828 24.352 105.538 23.042 Q104.248 21.732 104.248 19.756 V-4.592 Q104.248 -6.205 105.337 -7.334 Q106.425 -8.462 108.038 -8.462 H132.386 Q134.362 -8.462 135.712 -7.104 Q137.062 -5.745 137.062 -3.758 Q137.062 -1.771 135.712 -0.481 Q134.362 0.809 132.386 0.809 H119.97 L137.627 18.466 Q138.998 19.918 138.998 21.757 Q138.998 23.597 137.69 24.942 Q136.176 26.368 134.246 26.368 Q132.316 26.368 130.935 24.916 L113.52 7.501 Z M77.4 28.464 Q64.177 28.464 52.568 23.465 Q40.958 18.466 32.331 9.88 Q23.704 1.293 18.705 -10.254 Q13.706 -21.802 13.706 -34.907 Q13.706 -48.209 18.705 -59.889 Q23.704 -71.569 32.331 -80.207 Q40.958 -88.846 52.568 -93.885 Q64.177 -98.924 77.4 -98.924 Q90.623 -98.924 102.233 -93.885 Q113.843 -88.846 122.469 -80.207 Q131.096 -71.569 136.095 -59.889 Q141.094 -48.209 141.094 -34.907 Q141.094 -32.65 140.933 -30.433 Q140.771 -28.216 140.449 -25.958 Q140.126 -23.781 138.514 -22.37 Q136.901 -20.959 134.843 -20.959 Q132.951 -20.959 131.782 -22.33 Q130.613 -23.701 131.016 -25.636 Q131.338 -27.893 131.58 -30.272 Q131.822 -32.65 131.822 -34.907 Q131.822 -38.576 131.347 -42.244 Q130.872 -45.913 129.922 -49.581 H104.168 Q104.49 -45.872 104.812 -42.217 Q105.135 -38.563 105.135 -34.907 Q105.135 -32.65 104.974 -30.392 Q104.812 -28.135 104.651 -25.877 Q104.571 -23.862 103.077 -22.411 Q101.583 -20.959 99.548 -20.959 Q97.637 -20.959 96.428 -22.29 Q95.218 -23.62 95.379 -25.474 Q95.621 -27.732 95.742 -30.191 Q95.863 -32.65 95.863 -34.907 Q95.863 -38.576 95.621 -42.244 Q95.379 -45.913 94.896 -49.581 H60.215 Q59.582 -45.872 59.34 -42.244 Q59.098 -38.616 59.098 -34.988 Q59.098 -31.36 59.34 -27.812 Q59.582 -24.265 60.146 -20.717 H88.688 Q90.663 -20.717 92.013 -19.359 Q93.364 -18 93.364 -16.094 Q93.364 -14.106 92.013 -12.776 Q90.663 -11.446 88.688 -11.446 H61.839 Q64.016 -2.819 67.322 5.445 Q70.627 13.709 77.4 19.434 Q79.872 19.434 82.385 19.152 Q84.898 18.869 87.317 18.547 Q88.929 18.224 90.34 19.434 Q91.751 20.643 91.751 22.256 Q91.751 24.375 90.421 25.855 Q89.091 27.335 87.156 27.658 Q84.737 27.98 82.278 28.222 Q79.819 28.464 77.4 28.464 Z M24.958 -20.717 H50.633 Q50.229 -24.265 50.028 -27.812 Q49.826 -31.36 49.826 -34.907 Q49.826 -38.576 49.988 -42.244 Q50.149 -45.913 50.471 -49.581 H24.947 Q23.922 -45.905 23.45 -42.228 Q22.978 -38.552 22.978 -34.875 Q22.978 -31.199 23.453 -27.705 Q23.928 -24.211 24.958 -20.717 Z M64.016 17.579 Q59.743 10.968 56.841 3.631 Q53.938 -3.706 52.406 -11.446 H27.977 Q33.298 -0.561 42.731 7.058 Q52.164 14.677 64.016 17.579 Z M27.977 -58.853 H52.179 Q53.938 -66.674 56.841 -74.051 Q59.743 -81.428 64.177 -88.201 Q52.648 -84.25 43.134 -76.953 Q33.621 -69.657 27.977 -58.853 Z M61.839 -58.853 H93.203 Q91.106 -67.561 87.357 -75.704 Q83.608 -83.847 77.4 -90.216 Q71.273 -83.686 67.523 -75.623 Q63.774 -67.561 61.839 -58.853 Z M102.852 -58.853 H126.904 Q121.179 -69.576 111.746 -77.034 Q102.313 -84.492 90.784 -88.039 Q95.218 -81.428 98.08 -74.011 Q100.943 -66.593 102.852 -58.853 Z"/></g><g id="Light-L" transform="matrix(1 0 0 1 1082.77 1556)"><path d="M111.132 3.532 V18.454 Q111.132 19.995 110.099 20.964 Q109.066 21.933 107.513 21.933 Q105.96 21.933 105.011 20.964 Q104.062 19.995 104.062 18.454 V-4.965 Q104.062 -6.515 105.088 -7.597 Q106.115 -8.68 107.665 -8.68 H131.084 Q132.625 -8.68 133.65 -7.647 Q134.675 -6.614 134.675 -5.06 Q134.675 -3.507 133.65 -2.558 Q132.625 -1.61 131.084 -1.61 H116.001 L135.58 17.97 Q136.548 19.018 136.563 20.454 Q136.579 21.891 135.643 22.864 Q134.47 23.98 132.959 23.964 Q131.448 23.949 130.439 22.838 L111.132 3.532 Z M77.4 25.549 Q64.798 25.549 53.715 20.782 Q42.632 16.016 34.393 7.817 Q26.154 -0.381 21.388 -11.433 Q16.621 -22.484 16.621 -34.97 Q16.621 -47.713 21.388 -58.804 Q26.154 -69.895 34.393 -78.145 Q42.632 -86.396 53.715 -91.202 Q64.798 -96.009 77.4 -96.009 Q90.002 -96.009 101.085 -91.202 Q112.168 -86.396 120.407 -78.145 Q128.646 -69.895 133.412 -58.804 Q138.179 -47.713 138.179 -34.97 Q138.179 -32.836 138.017 -30.712 Q137.856 -28.588 137.534 -26.454 Q137.335 -24.805 136.048 -23.688 Q134.761 -22.572 133.323 -22.572 Q131.865 -22.572 130.96 -23.54 Q130.054 -24.507 130.395 -26.07 Q130.687 -28.265 130.898 -30.551 Q131.109 -32.836 131.109 -34.97 Q131.109 -38.824 130.572 -42.679 Q130.035 -46.533 128.992 -50.326 H102.183 Q102.691 -46.462 103.014 -42.636 Q103.336 -38.811 103.336 -34.97 Q103.336 -32.836 103.175 -30.687 Q103.014 -28.538 102.915 -26.343 Q102.834 -24.854 101.697 -23.713 Q100.56 -22.572 99.052 -22.572 Q97.513 -22.572 96.614 -23.53 Q95.714 -24.488 95.876 -25.94 Q96.024 -28.135 96.145 -30.486 Q96.266 -32.836 96.266 -34.97 Q96.266 -38.824 95.978 -42.679 Q95.689 -46.533 95.144 -50.326 H59.935 Q59.272 -46.493 58.952 -42.679 Q58.633 -38.864 58.633 -35.05 Q58.633 -31.236 58.952 -27.502 Q59.272 -23.769 59.867 -20.035 H88.315 Q89.857 -20.035 90.881 -19.002 Q91.906 -17.969 91.906 -16.528 Q91.906 -14.975 90.881 -13.97 Q89.857 -12.965 88.315 -12.965 H61.219 Q63.52 -4.152 67.074 4.236 Q70.627 12.624 77.4 18.752 Q79.779 18.752 82.137 18.485 Q84.495 18.218 86.79 17.896 Q88.03 17.635 89.084 18.565 Q90.139 19.496 90.139 20.736 Q90.139 22.297 89.134 23.42 Q88.129 24.544 86.628 24.804 Q84.334 25.127 82.03 25.338 Q79.726 25.549 77.4 25.549 Z M25.92 -20.035 H52.617 Q52.09 -23.8 51.827 -27.518 Q51.563 -31.236 51.563 -34.97 Q51.563 -38.824 51.786 -42.663 Q52.009 -46.502 52.518 -50.326 H25.909 Q24.76 -46.525 24.226 -42.662 Q23.691 -38.8 23.691 -34.937 Q23.691 -31.137 24.228 -27.426 Q24.765 -23.715 25.92 -20.035 Z M67.303 17.61 Q62.441 10.782 59.089 3.027 Q55.737 -4.729 53.988 -12.965 H28.163 Q33.732 -1.057 44.049 7.042 Q54.366 15.142 67.303 17.61 Z M28.163 -57.396 H53.823 Q55.706 -65.743 58.98 -73.555 Q62.255 -81.366 67.465 -88.17 Q54.664 -85.056 44.328 -77.17 Q33.993 -69.285 28.163 -57.396 Z M61.219 -57.396 H93.792 Q91.602 -66.258 87.636 -74.51 Q83.67 -82.762 77.4 -89.41 Q71.148 -82.724 67.213 -74.491 Q63.278 -66.258 61.219 -57.396 Z M101.177 -57.396 H126.749 Q120.807 -69.204 110.521 -77.251 Q100.235 -85.298 87.497 -88.07 Q92.458 -81.242 95.677 -73.406 Q98.896 -65.57 101.177 -57.396 Z"/></g><g id="Thin-L" transform="matrix(1 0 0 1 787.282 1556)"><path d="M108.745 -0.437 V17.151 Q108.745 18.259 108.037 18.886 Q107.33 19.514 106.211 19.514 Q105.092 19.514 104.484 18.886 Q103.876 18.259 103.876 17.151 V-5.337 Q103.876 -6.825 104.84 -7.861 Q105.805 -8.897 107.293 -8.897 H129.781 Q130.889 -8.897 131.588 -8.189 Q132.287 -7.482 132.287 -6.363 Q132.287 -5.244 131.588 -4.636 Q130.889 -4.028 129.781 -4.028 H112.032 L133.534 17.474 Q134.098 18.119 134.129 19.152 Q134.16 20.185 133.597 20.786 Q132.765 21.592 131.672 21.561 Q130.58 21.53 129.943 20.761 L108.745 -0.437 Z M77.4 22.634 Q65.418 22.634 54.862 18.1 Q44.307 13.567 36.455 5.755 Q28.603 -2.056 24.07 -12.611 Q19.536 -23.166 19.536 -35.032 Q19.536 -47.217 24.07 -57.719 Q28.603 -68.22 36.455 -76.083 Q44.307 -83.946 54.862 -88.52 Q65.418 -93.094 77.4 -93.094 Q89.382 -93.094 99.938 -88.52 Q110.493 -83.946 118.345 -76.083 Q126.197 -68.22 130.73 -57.719 Q135.264 -47.217 135.264 -35.032 Q135.264 -33.022 135.103 -30.991 Q134.941 -28.96 134.619 -26.95 Q134.545 -25.828 133.583 -25.006 Q132.622 -24.184 131.804 -24.184 Q130.78 -24.184 130.138 -24.749 Q129.496 -25.313 129.775 -26.504 Q130.036 -28.637 130.216 -30.83 Q130.395 -33.022 130.395 -35.032 Q130.395 -39.072 129.796 -43.113 Q129.198 -47.153 128.062 -51.07 H100.198 Q100.893 -47.051 101.215 -43.055 Q101.538 -39.059 101.538 -35.032 Q101.538 -33.022 101.377 -30.982 Q101.215 -28.941 101.178 -26.808 Q101.098 -25.847 100.317 -25.015 Q99.537 -24.184 98.556 -24.184 Q97.389 -24.184 96.8 -24.771 Q96.21 -25.357 96.372 -26.405 Q96.428 -28.538 96.548 -30.78 Q96.669 -33.022 96.669 -35.032 Q96.669 -39.072 96.334 -43.113 Q96 -47.153 95.392 -51.07 H59.657 Q58.962 -47.113 58.565 -43.113 Q58.168 -39.112 58.168 -35.112 Q58.168 -31.112 58.565 -27.192 Q58.962 -23.273 59.588 -19.353 H87.943 Q89.05 -19.353 89.75 -18.646 Q90.449 -17.938 90.449 -16.962 Q90.449 -15.843 89.75 -15.164 Q89.05 -14.485 87.943 -14.485 H60.599 Q63.024 -5.486 66.826 3.027 Q70.627 11.539 77.4 18.069 Q79.687 18.069 81.889 17.818 Q84.092 17.567 86.263 17.244 Q87.131 17.046 87.829 17.697 Q88.526 18.348 88.526 19.217 Q88.526 20.22 87.847 20.986 Q87.168 21.753 86.101 21.952 Q83.931 22.274 81.782 22.454 Q79.633 22.634 77.4 22.634 Z M26.881 -19.353 H54.602 Q53.951 -23.335 53.625 -27.223 Q53.299 -31.112 53.299 -35.032 Q53.299 -39.072 53.585 -43.082 Q53.87 -47.091 54.564 -51.07 H26.87 Q25.597 -47.145 25.001 -43.097 Q24.405 -39.048 24.405 -34.999 Q24.405 -31.075 25.004 -27.147 Q25.602 -23.219 26.881 -19.353 Z M70.59 17.641 Q65.139 10.596 61.337 2.422 Q57.535 -5.752 55.569 -14.485 H28.349 Q34.166 -1.554 45.367 7.027 Q56.568 15.607 70.59 17.641 Z M28.349 -55.938 H55.466 Q57.473 -64.813 61.12 -73.059 Q64.767 -81.304 70.752 -88.139 Q56.679 -85.862 45.522 -77.388 Q34.365 -68.913 28.349 -55.938 Z M60.599 -55.938 H94.381 Q92.099 -64.956 87.915 -73.316 Q83.732 -81.676 77.4 -88.604 Q71.024 -81.763 66.903 -73.359 Q62.782 -64.956 60.599 -55.938 Z M99.502 -55.938 H126.594 Q120.435 -68.832 109.297 -77.468 Q98.158 -86.104 84.21 -88.101 Q89.698 -81.056 93.274 -72.801 Q96.849 -64.547 99.502 -55.938 Z"/></g><g id="Ultralight-L" transform="matrix(1 0 0 1 491.205 1556)"><path d="M107.312 -2.819 V16.37 Q107.312 17.217 106.8 17.64 Q106.288 18.063 105.429 18.063 Q104.571 18.063 104.168 17.64 Q103.764 17.217 103.764 16.37 V-5.56 Q103.764 -7.011 104.692 -8.019 Q105.619 -9.027 107.07 -9.027 H129 Q129.847 -9.027 130.35 -8.515 Q130.854 -8.003 130.854 -7.144 Q130.854 -6.286 130.35 -5.882 Q129.847 -5.479 129 -5.479 H109.65 L132.306 17.176 Q132.628 17.579 132.668 18.371 Q132.709 19.162 132.369 19.54 Q131.741 20.159 130.9 20.119 Q130.059 20.079 129.645 19.514 L107.312 -2.819 Z M77.4 20.885 Q65.79 20.885 55.551 16.491 Q45.311 12.097 37.692 4.518 Q30.073 -3.061 25.679 -13.318 Q21.285 -23.576 21.285 -35.069 Q21.285 -46.919 25.679 -57.067 Q30.073 -67.215 37.692 -74.846 Q45.311 -82.476 55.551 -86.911 Q65.79 -91.345 77.4 -91.345 Q89.01 -91.345 99.249 -86.911 Q109.489 -82.476 117.108 -74.846 Q124.727 -67.215 129.121 -57.067 Q133.515 -46.919 133.515 -35.069 Q133.515 -33.134 133.354 -31.158 Q133.192 -29.183 132.87 -27.248 Q132.87 -26.442 132.104 -25.797 Q131.338 -25.152 130.892 -25.152 Q130.129 -25.152 129.645 -25.474 Q129.161 -25.797 129.403 -26.764 Q129.645 -28.861 129.806 -30.997 Q129.968 -33.134 129.968 -35.069 Q129.968 -39.221 129.331 -43.373 Q128.695 -47.525 127.503 -51.516 H99.008 Q99.814 -47.404 100.136 -43.306 Q100.459 -39.208 100.459 -35.069 Q100.459 -33.134 100.297 -31.158 Q100.136 -29.183 100.136 -27.087 Q100.056 -26.442 99.489 -25.797 Q98.923 -25.152 98.258 -25.152 Q97.314 -25.152 96.911 -25.515 Q96.508 -25.877 96.669 -26.684 Q96.669 -28.78 96.79 -30.957 Q96.911 -33.134 96.911 -35.069 Q96.911 -39.221 96.548 -43.373 Q96.186 -47.525 95.541 -51.516 H59.489 Q58.776 -47.485 58.332 -43.373 Q57.889 -39.261 57.889 -35.149 Q57.889 -31.037 58.332 -27.006 Q58.776 -22.975 59.421 -18.944 H87.72 Q88.567 -18.944 89.07 -18.432 Q89.574 -17.92 89.574 -17.222 Q89.574 -16.364 89.07 -15.88 Q88.567 -15.396 87.72 -15.396 H60.227 Q62.726 -6.286 66.677 2.301 Q70.627 10.888 77.4 17.66 Q79.631 17.66 81.74 17.418 Q83.85 17.176 85.946 16.854 Q86.591 16.693 87.075 17.176 Q87.559 17.66 87.559 18.305 Q87.559 18.973 87.075 19.526 Q86.591 20.079 85.785 20.24 Q83.689 20.563 81.633 20.724 Q79.577 20.885 77.4 20.885 Z M27.458 -18.944 H55.793 Q55.067 -23.056 54.704 -27.047 Q54.341 -31.037 54.341 -35.069 Q54.341 -39.221 54.664 -43.333 Q54.986 -47.445 55.793 -51.516 H27.447 Q26.099 -47.517 25.466 -43.357 Q24.832 -39.197 24.832 -35.036 Q24.832 -31.037 25.469 -26.979 Q26.105 -22.921 27.458 -18.944 Z M72.562 17.66 Q66.758 10.484 62.686 2.059 Q58.614 -6.366 56.518 -15.396 H28.461 Q34.427 -1.851 46.158 7.018 Q57.889 15.886 72.562 17.66 Z M28.461 -55.064 H56.452 Q58.534 -64.255 62.404 -72.761 Q66.274 -81.267 72.724 -88.12 Q57.889 -86.346 46.238 -77.518 Q34.588 -68.689 28.461 -55.064 Z M60.227 -55.064 H94.734 Q92.396 -64.174 88.083 -72.6 Q83.769 -81.025 77.4 -88.12 Q70.95 -81.186 66.717 -72.68 Q62.484 -64.174 60.227 -55.064 Z M98.498 -55.064 H126.501 Q120.212 -68.609 108.562 -77.598 Q96.911 -86.588 82.237 -88.12 Q88.043 -80.944 91.832 -72.438 Q95.621 -63.932 98.498 -55.064 Z"/></g><g id="Bold-M" transform="matrix(1 0 0 1 2281.8 1126)"><path d="M92.312 8.27 V9.02 Q92.312 11.708 90.25 13.708 Q88.188 15.708 84.75 15.708 Q81.688 15.708 79.438 13.458 Q77.188 11.208 77.188 8.145 V-11.355 Q77.188 -13.917 79.062 -15.792 Q80.938 -17.667 83.5 -17.667 H103 Q106.062 -17.667 108.312 -15.355 Q110.562 -13.042 110.562 -9.355 Q110.562 -6.667 108.5 -4.605 Q106.438 -2.542 103.75 -2.542 H103 L109.938 4.395 Q112.188 6.645 112.094 9.645 Q112 12.645 109.812 14.958 Q107.625 17.27 104.531 17.333 Q101.438 17.395 99.125 15.083 L92.312 8.27 Z M60 17.77 Q49 17.77 39.375 13.614 Q29.75 9.458 22.531 2.239 Q15.312 -4.98 11.156 -14.605 Q7 -24.23 7 -35.23 Q7 -46.23 11.156 -55.855 Q15.312 -65.48 22.531 -72.699 Q29.75 -79.917 39.375 -84.074 Q49 -88.23 60 -88.23 Q71 -88.23 80.625 -84.074 Q90.25 -79.917 97.469 -72.699 Q104.688 -65.48 108.844 -55.855 Q113 -46.23 113 -35.23 Q113 -35.105 113 -35.136 Q113 -35.167 113 -35.042 Q112.875 -31.605 110.344 -29.324 Q107.812 -27.042 104.312 -27.042 Q101.312 -27.042 99.375 -29.23 Q97.438 -31.417 97.562 -34.542 Q97.562 -34.667 97.594 -34.886 Q97.625 -35.105 97.625 -35.23 Q97.625 -37.73 97.281 -40.105 Q96.938 -42.48 96.312 -44.855 H80.5 Q80.75 -42.355 80.875 -40.042 Q81 -37.73 81 -35.23 Q81 -34.355 80.938 -33.574 Q80.875 -32.792 80.875 -31.917 Q80.812 -29.917 79.344 -28.48 Q77.875 -27.042 75.875 -27.042 Q74 -27.042 72.719 -28.324 Q71.438 -29.605 71.562 -31.605 Q71.562 -32.48 71.594 -33.417 Q71.625 -34.355 71.625 -35.23 Q71.625 -37.73 71.562 -40.105 Q71.5 -42.48 71.062 -44.855 H48.812 Q48.375 -42.48 48.188 -40.105 Q48 -37.73 48 -35.23 Q48 -32.73 48.188 -30.355 Q48.375 -27.98 48.812 -25.605 H65.875 Q67.812 -25.605 69.125 -24.292 Q70.438 -22.98 70.438 -21.042 Q70.438 -19.105 69.062 -17.792 Q67.688 -16.48 65.875 -16.48 H50.938 Q52.438 -11.23 54.625 -6.417 Q56.812 -1.605 59.75 2.895 Q59.938 2.895 60.062 2.833 Q60.188 2.77 60.375 2.77 Q63.375 2.645 65.625 4.583 Q67.875 6.52 67.875 9.395 Q67.875 12.645 65.594 15.208 Q63.312 17.77 60.125 17.77 Q59.938 17.77 60.062 17.77 Q60.188 17.77 60 17.77 Z M23.438 -25.605 H39.375 Q39 -27.98 38.812 -30.355 Q38.625 -32.73 38.625 -35.23 Q38.625 -37.73 38.812 -40.105 Q39 -42.48 39.375 -44.855 H23.438 Q22.812 -42.48 22.469 -40.105 Q22.125 -37.73 22.125 -35.23 Q22.125 -32.73 22.469 -30.355 Q22.812 -27.98 23.438 -25.605 Z M48.125 0.77 Q45.562 -3.167 44 -7.605 Q42.438 -12.042 41.312 -16.48 H27.188 Q30.562 -10.355 35.969 -5.886 Q41.375 -1.417 48.125 0.77 Z M27.188 -53.855 H41.312 Q42.438 -58.417 44 -62.792 Q45.562 -67.167 48.125 -71.23 Q41.25 -69.042 35.906 -64.574 Q30.562 -60.105 27.188 -53.855 Z M50.938 -53.855 H68.938 Q67.438 -59.23 65.062 -63.98 Q62.688 -68.73 59.75 -73.355 Q56.812 -68.855 54.562 -63.98 Q52.312 -59.105 50.938 -53.855 Z M78.562 -53.855 H92.688 Q89.312 -60.105 83.844 -64.574 Q78.375 -69.042 71.5 -71.23 Q74.062 -67.167 75.75 -62.792 Q77.438 -58.417 78.562 -53.855 Z"/></g><g id="Semibold-M" transform="matrix(1 0 0 1 1985.97 1126)"><path d="M90.628 4.629 V8.042 Q90.628 10.403 88.864 12.132 Q87.101 13.86 84.315 13.86 Q81.742 13.86 79.872 11.99 Q78.003 10.121 78.003 7.547 V-10.866 Q78.003 -13.374 79.823 -15.195 Q81.644 -17.015 84.152 -17.015 H102.565 Q105.139 -17.015 107.008 -15.11 Q108.878 -13.205 108.878 -10.279 Q108.878 -7.917 107.114 -6.154 Q105.351 -4.39 102.989 -4.39 H99.522 L108.579 4.667 Q110.448 6.536 110.382 9.047 Q110.315 11.558 108.508 13.49 Q106.647 15.422 104.069 15.458 Q101.492 15.493 99.56 13.561 L90.628 4.629 Z M60 15.922 Q49.38 15.922 40.081 11.902 Q30.782 7.882 23.835 0.935 Q16.889 -6.012 12.868 -15.311 Q8.848 -24.61 8.848 -35.23 Q8.848 -45.85 12.868 -55.148 Q16.889 -64.447 23.835 -71.394 Q30.782 -78.341 40.081 -82.362 Q49.38 -86.382 60 -86.382 Q70.62 -86.382 79.918 -82.362 Q89.218 -78.341 96.165 -71.394 Q103.112 -64.447 107.132 -55.148 Q111.152 -45.85 111.152 -35.23 Q111.152 -34.616 111.125 -34.049 Q111.098 -33.483 111.044 -32.869 Q110.864 -30.029 108.795 -28.21 Q106.726 -26.39 103.823 -26.39 Q101.312 -26.39 99.674 -28.306 Q98.035 -30.222 98.215 -32.803 Q98.323 -33.418 98.355 -34.017 Q98.386 -34.616 98.386 -35.23 Q98.386 -37.73 98.042 -40.159 Q97.698 -42.589 97.073 -45.018 H80.826 Q81.13 -42.518 81.283 -40.124 Q81.435 -37.73 81.435 -35.23 Q81.435 -34.192 81.399 -33.166 Q81.364 -32.14 81.31 -31.102 Q81.193 -29.102 79.724 -27.746 Q78.255 -26.39 76.255 -26.39 Q74.38 -26.39 73.072 -27.753 Q71.764 -29.116 71.943 -31.061 Q71.997 -32.1 72.028 -33.146 Q72.06 -34.192 72.06 -35.23 Q72.06 -37.73 71.943 -40.159 Q71.826 -42.589 71.389 -45.018 H48.541 Q48.103 -42.589 47.916 -40.159 Q47.728 -37.73 47.728 -35.23 Q47.728 -32.73 47.916 -30.301 Q48.103 -27.871 48.541 -25.442 H64.408 Q66.345 -25.442 67.685 -24.102 Q69.025 -22.763 69.025 -20.825 Q69.025 -18.888 67.65 -17.548 Q66.275 -16.208 64.408 -16.208 H50.666 Q52.166 -10.85 54.462 -5.956 Q56.758 -1.061 59.859 3.493 Q60.535 3.493 61.149 3.458 Q61.764 3.422 62.44 3.368 Q64.951 3.189 66.793 4.8 Q68.636 6.411 68.636 8.852 Q68.636 11.558 66.844 13.632 Q65.052 15.705 62.407 15.814 Q61.731 15.868 61.204 15.895 Q60.677 15.922 60 15.922 Z M22.785 -25.442 H39.103 Q38.728 -27.871 38.541 -30.301 Q38.353 -32.73 38.353 -35.23 Q38.353 -37.73 38.541 -40.159 Q38.728 -42.589 39.103 -45.018 H22.785 Q22.16 -42.589 21.817 -40.159 Q21.473 -37.73 21.473 -35.23 Q21.473 -32.73 21.817 -30.301 Q22.16 -27.871 22.785 -25.442 Z M47.962 1.368 Q45.508 -2.733 43.837 -7.197 Q42.166 -11.662 41.041 -16.208 H26.59 Q30.073 -9.92 35.588 -5.397 Q41.103 -0.874 47.962 1.368 Z M26.59 -54.181 H41.041 Q42.166 -58.798 43.837 -63.227 Q45.508 -67.657 47.962 -71.828 Q41.033 -69.586 35.553 -65.063 Q30.073 -60.54 26.59 -54.181 Z M50.666 -54.181 H69.264 Q67.764 -59.61 65.361 -64.469 Q62.959 -69.328 59.859 -73.953 Q56.758 -69.398 54.427 -64.469 Q52.095 -59.54 50.666 -54.181 Z M78.889 -54.181 H93.34 Q89.856 -60.54 84.306 -65.063 Q78.755 -69.586 71.826 -71.828 Q74.28 -67.657 76.022 -63.227 Q77.764 -58.798 78.889 -54.181 Z"/></g><g id="Medium-M" transform="matrix(1 0 0 1 1689.91 1126)"><path d="M89.364 1.898 V7.308 Q89.364 9.425 87.825 10.949 Q86.285 12.474 83.989 12.474 Q81.783 12.474 80.198 10.89 Q78.614 9.305 78.614 7.099 V-10.499 Q78.614 -12.966 80.394 -14.746 Q82.174 -16.526 84.641 -16.526 H102.239 Q104.446 -16.526 106.03 -14.927 Q107.614 -13.328 107.614 -10.972 Q107.614 -8.855 106.075 -7.316 Q104.535 -5.776 102.418 -5.776 H96.913 L107.56 4.871 Q109.144 6.455 109.098 8.599 Q109.052 10.743 107.53 12.39 Q105.913 14.036 103.723 14.051 Q101.533 14.066 99.886 12.42 L89.364 1.898 Z M60 14.536 Q49.666 14.536 40.611 10.618 Q31.557 6.699 24.814 -0.044 Q18.071 -6.787 14.152 -15.841 Q10.234 -24.896 10.234 -35.23 Q10.234 -45.564 14.152 -54.619 Q18.071 -63.673 24.814 -70.416 Q31.557 -77.159 40.611 -81.078 Q49.666 -84.996 60 -84.996 Q70.334 -84.996 79.389 -81.078 Q88.443 -77.159 95.186 -70.416 Q101.929 -63.673 105.848 -54.619 Q109.766 -45.564 109.766 -35.23 Q109.766 -34.249 109.719 -33.234 Q109.671 -32.219 109.576 -31.238 Q109.356 -28.847 107.633 -27.374 Q105.91 -25.901 103.457 -25.901 Q101.312 -25.901 99.898 -27.613 Q98.484 -29.325 98.704 -31.499 Q98.894 -32.48 98.925 -33.364 Q98.957 -34.249 98.957 -35.23 Q98.957 -37.73 98.613 -40.2 Q98.269 -42.67 97.644 -45.14 H81.071 Q81.416 -42.64 81.588 -40.185 Q81.761 -37.73 81.761 -35.23 Q81.761 -34.07 81.746 -32.86 Q81.731 -31.651 81.636 -30.491 Q81.478 -28.491 80.01 -27.196 Q78.541 -25.901 76.541 -25.901 Q74.666 -25.901 73.337 -27.325 Q72.008 -28.749 72.228 -30.654 Q72.323 -31.814 72.355 -32.942 Q72.386 -34.07 72.386 -35.23 Q72.386 -37.73 72.228 -40.2 Q72.071 -42.67 71.633 -45.14 H48.337 Q47.9 -42.67 47.712 -40.2 Q47.525 -37.73 47.525 -35.23 Q47.525 -32.73 47.712 -30.26 Q47.9 -27.79 48.337 -25.32 H63.307 Q65.245 -25.32 66.605 -23.96 Q67.965 -22.6 67.965 -20.662 Q67.965 -18.725 66.59 -17.364 Q65.215 -16.004 63.307 -16.004 H50.462 Q51.962 -10.564 54.34 -5.609 Q56.717 -0.654 59.94 3.941 Q60.984 3.941 61.965 3.926 Q62.946 3.911 63.989 3.816 Q66.133 3.596 67.67 4.963 Q69.207 6.33 69.207 8.444 Q69.207 10.743 67.781 12.449 Q66.356 14.156 64.12 14.346 Q63.076 14.441 62.06 14.489 Q61.044 14.536 60 14.536 Z M22.296 -25.32 H38.9 Q38.525 -27.79 38.337 -30.26 Q38.15 -32.73 38.15 -35.23 Q38.15 -37.73 38.337 -40.2 Q38.525 -42.67 38.9 -45.14 H22.296 Q21.671 -42.67 21.328 -40.2 Q20.984 -37.73 20.984 -35.23 Q20.984 -32.73 21.328 -30.26 Q21.671 -27.79 22.296 -25.32 Z M47.84 1.816 Q45.467 -2.407 43.715 -6.892 Q41.962 -11.377 40.837 -16.004 H26.141 Q29.706 -9.594 35.303 -5.03 Q40.9 -0.466 47.84 1.816 Z M26.141 -54.426 H40.837 Q41.962 -59.083 43.715 -63.553 Q45.467 -68.023 47.84 -72.276 Q40.87 -69.994 35.288 -65.43 Q29.706 -60.866 26.141 -54.426 Z M50.462 -54.426 H69.508 Q68.008 -59.896 65.586 -64.836 Q63.163 -69.776 59.94 -74.401 Q56.717 -69.806 54.325 -64.836 Q51.932 -59.866 50.462 -54.426 Z M79.133 -54.426 H93.829 Q90.264 -60.866 84.652 -65.43 Q79.041 -69.994 72.071 -72.276 Q74.443 -68.023 76.225 -63.553 Q78.008 -59.083 79.133 -54.426 Z"/></g><g id="Regular-M" transform="matrix(1 0 0 1 1394.06 1126)"><path d="M88.438 -0.105 V6.77 Q88.438 8.708 87.062 10.083 Q85.688 11.458 83.75 11.458 Q81.812 11.458 80.438 10.083 Q79.062 8.708 79.062 6.77 V-10.23 Q79.062 -12.667 80.812 -14.417 Q82.562 -16.167 85 -16.167 H102 Q103.938 -16.167 105.312 -14.792 Q106.688 -13.417 106.688 -11.48 Q106.688 -9.542 105.312 -8.167 Q103.938 -6.792 102 -6.792 H95 L106.812 5.02 Q108.188 6.395 108.156 8.27 Q108.125 10.145 106.812 11.583 Q105.375 13.02 103.469 13.02 Q101.562 13.02 100.125 11.583 L88.438 -0.105 Z M60 13.52 Q49.875 13.52 41 9.676 Q32.125 5.833 25.531 -0.761 Q18.938 -7.355 15.094 -16.23 Q11.25 -25.105 11.25 -35.23 Q11.25 -45.355 15.094 -54.23 Q18.938 -63.105 25.531 -69.699 Q32.125 -76.292 41 -80.136 Q49.875 -83.98 60 -83.98 Q70.125 -83.98 79 -80.136 Q87.875 -76.292 94.469 -69.699 Q101.062 -63.105 104.906 -54.23 Q108.75 -45.355 108.75 -35.23 Q108.75 -33.98 108.688 -32.636 Q108.625 -31.292 108.5 -30.042 Q108.25 -27.98 106.781 -26.761 Q105.312 -25.542 103.188 -25.542 Q101.312 -25.542 100.062 -27.105 Q98.812 -28.667 99.062 -30.542 Q99.312 -31.792 99.344 -32.886 Q99.375 -33.98 99.375 -35.23 Q99.375 -37.73 99.031 -40.23 Q98.688 -42.73 98.062 -45.23 H81.25 Q81.625 -42.73 81.812 -40.23 Q82 -37.73 82 -35.23 Q82 -33.98 82 -32.636 Q82 -31.292 81.875 -30.042 Q81.688 -28.042 80.219 -26.792 Q78.75 -25.542 76.75 -25.542 Q74.875 -25.542 73.531 -27.011 Q72.188 -28.48 72.438 -30.355 Q72.562 -31.605 72.594 -32.792 Q72.625 -33.98 72.625 -35.23 Q72.625 -37.73 72.438 -40.23 Q72.25 -42.73 71.812 -45.23 H48.188 Q47.75 -42.73 47.562 -40.23 Q47.375 -37.73 47.375 -35.23 Q47.375 -32.73 47.562 -30.23 Q47.75 -27.73 48.188 -25.23 H62.5 Q64.438 -25.23 65.812 -23.855 Q67.188 -22.48 67.188 -20.542 Q67.188 -18.605 65.812 -17.23 Q64.438 -15.855 62.5 -15.855 H50.312 Q51.812 -10.355 54.25 -5.355 Q56.688 -0.355 60 4.27 Q61.312 4.27 62.562 4.27 Q63.812 4.27 65.125 4.145 Q67 3.895 68.312 5.083 Q69.625 6.27 69.625 8.145 Q69.625 10.145 68.469 11.583 Q67.312 13.02 65.375 13.27 Q64.062 13.395 62.688 13.458 Q61.312 13.52 60 13.52 Z M21.938 -25.23 H38.75 Q38.375 -27.73 38.188 -30.23 Q38 -32.73 38 -35.23 Q38 -37.73 38.188 -40.23 Q38.375 -42.73 38.75 -45.23 H21.938 Q21.312 -42.73 20.969 -40.23 Q20.625 -37.73 20.625 -35.23 Q20.625 -32.73 20.969 -30.23 Q21.312 -27.73 21.938 -25.23 Z M47.75 2.145 Q45.438 -2.167 43.625 -6.667 Q41.812 -11.167 40.688 -15.855 H25.812 Q29.438 -9.355 35.094 -4.761 Q40.75 -0.167 47.75 2.145 Z M25.812 -54.605 H40.688 Q41.812 -59.292 43.625 -63.792 Q45.438 -68.292 47.75 -72.605 Q40.75 -70.292 35.094 -65.699 Q29.438 -61.105 25.812 -54.605 Z M50.312 -54.605 H69.688 Q68.188 -60.105 65.75 -65.105 Q63.312 -70.105 60 -74.73 Q56.688 -70.105 54.25 -65.105 Q51.812 -60.105 50.312 -54.605 Z M79.312 -54.605 H94.188 Q90.562 -61.105 84.906 -65.699 Q79.25 -70.292 72.25 -72.605 Q74.562 -68.292 76.375 -63.792 Q78.188 -59.292 79.312 -54.605 Z"/></g><g id="Light-M" transform="matrix(1 0 0 1 1098.18 1126)"><path d="M86.25 -3.999 V5.76 Q86.25 7.217 85.223 8.231 Q84.197 9.246 82.74 9.246 Q81.284 9.246 80.269 8.231 Q79.255 7.217 79.255 5.76 V-11.192 Q79.255 -13.196 80.644 -14.598 Q82.034 -15.999 84.038 -15.999 H100.99 Q102.447 -15.999 103.473 -14.973 Q104.5 -13.946 104.5 -12.49 Q104.5 -11.033 103.473 -10.019 Q102.447 -9.004 100.99 -9.004 H91.106 L104.986 4.876 Q106 5.89 105.981 7.284 Q105.961 8.679 104.986 9.731 Q103.909 10.832 102.471 10.82 Q101.034 10.808 99.981 9.731 L86.25 -3.999 Z M60 11.26 Q50.356 11.26 41.889 7.597 Q33.423 3.933 27.13 -2.36 Q20.837 -8.653 17.173 -17.119 Q13.51 -25.586 13.51 -35.23 Q13.51 -44.874 17.173 -53.34 Q20.837 -61.807 27.13 -68.1 Q33.423 -74.393 41.889 -78.057 Q50.356 -81.72 60 -81.72 Q69.644 -81.72 78.111 -78.057 Q86.577 -74.393 92.87 -68.1 Q99.163 -61.807 102.827 -53.34 Q106.49 -44.874 106.49 -35.23 Q106.49 -33.932 106.428 -32.564 Q106.365 -31.196 106.192 -29.898 Q105.99 -28.341 104.87 -27.398 Q103.75 -26.456 102.202 -26.456 Q100.808 -26.456 99.882 -27.562 Q98.957 -28.667 99.159 -30.11 Q99.385 -31.408 99.44 -32.67 Q99.495 -33.932 99.495 -35.23 Q99.495 -37.97 99.103 -40.687 Q98.712 -43.403 97.966 -46.095 H79.519 Q79.99 -43.379 80.202 -40.675 Q80.413 -37.97 80.413 -35.23 Q80.413 -33.932 80.389 -32.552 Q80.365 -31.172 80.24 -29.874 Q80.101 -28.379 79.005 -27.417 Q77.909 -26.456 76.413 -26.456 Q75.019 -26.456 74.012 -27.516 Q73.005 -28.576 73.207 -29.994 Q73.308 -31.292 73.363 -32.612 Q73.418 -33.932 73.418 -35.23 Q73.418 -37.97 73.195 -40.687 Q72.971 -43.403 72.486 -46.095 H47.538 Q47.029 -43.403 46.805 -40.687 Q46.582 -37.97 46.582 -35.23 Q46.582 -32.49 46.805 -29.773 Q47.029 -27.057 47.538 -24.364 H64.231 Q65.688 -24.364 66.714 -23.338 Q67.74 -22.312 67.74 -20.879 Q67.74 -19.422 66.714 -18.396 Q65.688 -17.369 64.231 -17.369 H49.159 Q50.803 -11.389 53.481 -5.908 Q56.159 -0.427 60 4.462 Q61.385 4.462 62.731 4.426 Q64.077 4.39 65.438 4.217 Q66.784 4.015 67.772 4.914 Q68.76 5.813 68.76 7.159 Q68.76 8.631 67.88 9.695 Q67 10.76 65.543 10.962 Q64.183 11.135 62.784 11.198 Q61.385 11.26 60 11.26 Z M22.058 -24.364 H40.481 Q40.01 -27.081 39.798 -29.785 Q39.587 -32.49 39.587 -35.23 Q39.587 -37.97 39.798 -40.675 Q40.01 -43.379 40.481 -46.095 H22.058 Q21.288 -43.403 20.897 -40.687 Q20.505 -37.97 20.505 -35.23 Q20.505 -32.49 20.897 -29.773 Q21.288 -27.057 22.058 -24.364 Z M50.923 3.083 Q47.865 -1.639 45.584 -6.776 Q43.303 -11.913 41.962 -17.369 H24.899 Q28.812 -9.547 35.635 -4.22 Q42.457 1.107 50.923 3.083 Z M24.899 -53.09 H41.962 Q43.231 -58.571 45.476 -63.72 Q47.721 -68.869 50.923 -73.543 Q42.409 -71.639 35.611 -66.3 Q28.812 -60.961 24.899 -53.09 Z M49.159 -53.09 H70.865 Q69.245 -59.095 66.495 -64.516 Q63.745 -69.937 60 -74.922 Q56.207 -70.033 53.481 -64.564 Q50.755 -59.095 49.159 -53.09 Z M78.062 -53.09 H95.125 Q91.188 -60.961 84.389 -66.324 Q77.591 -71.687 69.077 -73.543 Q72.135 -68.821 74.344 -63.66 Q76.553 -58.499 78.062 -53.09 Z"/></g><g id="Thin-M" transform="matrix(1 0 0 1 802.565 1126)"><path d="M84.062 -7.893 V4.751 Q84.062 5.727 83.385 6.381 Q82.707 7.035 81.731 7.035 Q80.755 7.035 80.101 6.381 Q79.447 5.727 79.447 4.751 V-12.153 Q79.447 -13.725 80.476 -14.778 Q81.505 -15.831 83.077 -15.831 H99.981 Q100.957 -15.831 101.635 -15.153 Q102.312 -14.475 102.312 -13.499 Q102.312 -12.523 101.635 -11.869 Q100.957 -11.215 99.981 -11.215 H87.212 L103.159 4.732 Q103.812 5.385 103.805 6.299 Q103.798 7.212 103.159 7.881 Q102.442 8.645 101.474 8.621 Q100.505 8.597 99.837 7.881 L84.062 -7.893 Z M60 9.001 Q50.837 9.001 42.779 5.518 Q34.721 2.035 28.728 -3.958 Q22.735 -9.951 19.252 -18.009 Q15.769 -26.066 15.769 -35.23 Q15.769 -44.393 19.252 -52.451 Q22.735 -60.509 28.728 -66.502 Q34.721 -72.494 42.779 -75.978 Q50.837 -79.461 60 -79.461 Q69.163 -79.461 77.221 -75.978 Q85.279 -72.494 91.272 -66.502 Q97.264 -60.509 100.748 -52.451 Q104.231 -44.393 104.231 -35.23 Q104.231 -33.884 104.168 -32.492 Q104.106 -31.1 103.885 -29.754 Q103.731 -28.701 102.959 -28.035 Q102.188 -27.369 101.216 -27.369 Q100.303 -27.369 99.702 -28.018 Q99.101 -28.667 99.255 -29.677 Q99.457 -31.023 99.536 -32.453 Q99.615 -33.884 99.615 -35.23 Q99.615 -38.211 99.175 -41.143 Q98.736 -44.076 97.87 -46.961 H77.788 Q78.356 -44.028 78.591 -41.119 Q78.827 -38.211 78.827 -35.23 Q78.827 -33.884 78.779 -32.468 Q78.731 -31.052 78.606 -29.706 Q78.514 -28.716 77.791 -28.042 Q77.067 -27.369 76.077 -27.369 Q75.163 -27.369 74.493 -28.021 Q73.822 -28.672 73.976 -29.634 Q74.053 -30.98 74.132 -32.432 Q74.212 -33.884 74.212 -35.23 Q74.212 -38.211 73.952 -41.143 Q73.692 -44.076 73.159 -46.961 H46.889 Q46.308 -44.076 46.048 -41.143 Q45.788 -38.211 45.788 -35.23 Q45.788 -32.249 46.048 -29.316 Q46.308 -26.384 46.889 -23.499 H65.962 Q66.938 -23.499 67.615 -22.821 Q68.293 -22.143 68.293 -21.216 Q68.293 -20.24 67.615 -19.562 Q66.938 -18.884 65.962 -18.884 H48.005 Q49.793 -12.422 52.712 -6.461 Q55.63 -0.499 60 4.655 Q61.457 4.655 62.899 4.583 Q64.341 4.51 65.75 4.289 Q66.567 4.135 67.231 4.746 Q67.894 5.357 67.894 6.174 Q67.894 7.116 67.291 7.809 Q66.688 8.501 65.712 8.655 Q64.303 8.876 62.88 8.938 Q61.457 9.001 60 9.001 Z M22.178 -23.499 H42.212 Q41.644 -26.432 41.409 -29.341 Q41.173 -32.249 41.173 -35.23 Q41.173 -38.211 41.409 -41.119 Q41.644 -44.028 42.212 -46.961 H22.178 Q21.264 -44.076 20.825 -41.143 Q20.385 -38.211 20.385 -35.23 Q20.385 -32.249 20.825 -29.316 Q21.264 -26.384 22.178 -23.499 Z M54.096 4.02 Q50.293 -1.11 47.543 -6.884 Q44.793 -12.658 43.236 -18.884 H23.986 Q28.188 -9.74 36.175 -3.679 Q44.163 2.381 54.096 4.02 Z M23.986 -51.576 H43.236 Q44.649 -57.85 47.327 -63.648 Q50.005 -69.446 54.096 -74.48 Q44.067 -72.985 36.127 -66.901 Q28.188 -60.816 23.986 -51.576 Z M48.005 -51.576 H72.043 Q70.303 -58.086 67.24 -63.927 Q64.178 -69.768 60 -75.115 Q55.726 -69.961 52.712 -64.023 Q49.697 -58.086 48.005 -51.576 Z M76.812 -51.576 H96.062 Q91.812 -60.816 83.873 -66.949 Q75.933 -73.081 65.904 -74.48 Q69.707 -69.35 72.312 -63.528 Q74.918 -57.706 76.812 -51.576 Z"/></g><g id="Ultralight-M" transform="matrix(1 0 0 1 506.415 1126)"><path d="M82.75 -10.23 V4.145 Q82.75 4.833 82.281 5.27 Q81.812 5.708 81.125 5.708 Q80.438 5.708 80 5.27 Q79.562 4.833 79.562 4.145 V-12.73 Q79.562 -14.042 80.375 -14.886 Q81.188 -15.73 82.5 -15.73 H99.375 Q100.062 -15.73 100.531 -15.261 Q101 -14.792 101 -14.105 Q101 -13.417 100.531 -12.98 Q100.062 -12.542 99.375 -12.542 H84.875 L102.062 4.645 Q102.5 5.083 102.5 5.708 Q102.5 6.333 102.062 6.77 Q101.562 7.333 100.875 7.301 Q100.188 7.27 99.75 6.77 L82.75 -10.23 Z M60 7.645 Q51.125 7.645 43.312 4.27 Q35.5 0.895 29.688 -4.917 Q23.875 -10.73 20.5 -18.542 Q17.125 -26.355 17.125 -35.23 Q17.125 -44.105 20.5 -51.917 Q23.875 -59.73 29.688 -65.542 Q35.5 -71.355 43.312 -74.73 Q51.125 -78.105 60 -78.105 Q68.875 -78.105 76.688 -74.73 Q84.5 -71.355 90.312 -65.542 Q96.125 -59.73 99.5 -51.917 Q102.875 -44.105 102.875 -35.23 Q102.875 -33.855 102.812 -32.449 Q102.75 -31.042 102.5 -29.667 Q102.375 -28.917 101.812 -28.417 Q101.25 -27.917 100.625 -27.917 Q100 -27.917 99.594 -28.292 Q99.188 -28.667 99.312 -29.417 Q99.5 -30.792 99.594 -32.324 Q99.688 -33.855 99.688 -35.23 Q99.688 -38.355 99.219 -41.417 Q98.75 -44.48 97.812 -47.48 H76.75 Q77.375 -44.417 77.625 -41.386 Q77.875 -38.355 77.875 -35.23 Q77.875 -33.855 77.812 -32.417 Q77.75 -30.98 77.625 -29.605 Q77.562 -28.917 77.062 -28.417 Q76.562 -27.917 75.875 -27.917 Q75.25 -27.917 74.781 -28.324 Q74.312 -28.73 74.438 -29.417 Q74.5 -30.792 74.594 -32.324 Q74.688 -33.855 74.688 -35.23 Q74.688 -38.355 74.406 -41.417 Q74.125 -44.48 73.562 -47.48 H46.5 Q45.875 -44.48 45.594 -41.417 Q45.312 -38.355 45.312 -35.23 Q45.312 -32.105 45.594 -29.042 Q45.875 -25.98 46.5 -22.98 H67 Q67.688 -22.98 68.156 -22.511 Q68.625 -22.042 68.625 -21.417 Q68.625 -20.73 68.156 -20.261 Q67.688 -19.792 67 -19.792 H47.312 Q49.188 -13.042 52.25 -6.792 Q55.312 -0.542 60 4.77 Q61.5 4.77 63 4.676 Q64.5 4.583 65.938 4.333 Q66.438 4.208 66.906 4.645 Q67.375 5.083 67.375 5.583 Q67.375 6.208 66.938 6.676 Q66.5 7.145 65.812 7.27 Q64.375 7.52 62.938 7.583 Q61.5 7.645 60 7.645 Z M22.25 -22.98 H43.25 Q42.625 -26.042 42.375 -29.074 Q42.125 -32.105 42.125 -35.23 Q42.125 -38.355 42.375 -41.386 Q42.625 -44.417 43.25 -47.48 H22.25 Q21.25 -44.48 20.781 -41.417 Q20.312 -38.355 20.312 -35.23 Q20.312 -32.105 20.781 -29.042 Q21.25 -25.98 22.25 -22.98 Z M56 4.583 Q51.75 -0.792 48.719 -6.949 Q45.688 -13.105 44 -19.792 H23.438 Q27.812 -9.855 36.5 -3.355 Q45.188 3.145 56 4.583 Z M23.438 -50.667 H44 Q45.5 -57.417 48.438 -63.605 Q51.375 -69.792 56 -75.042 Q45.062 -73.792 36.438 -67.261 Q27.812 -60.73 23.438 -50.667 Z M47.312 -50.667 H72.75 Q70.938 -57.48 67.688 -63.574 Q64.438 -69.667 60 -75.23 Q55.438 -69.917 52.25 -63.699 Q49.062 -57.48 47.312 -50.667 Z M76.062 -50.667 H96.625 Q92.188 -60.73 83.562 -67.324 Q74.938 -73.917 64 -75.042 Q68.25 -69.667 71.094 -63.449 Q73.938 -57.23 76.062 -50.667 Z"/></g><g id="Bold-S" transform="matrix(1 0 0 1 2294.23 696)"><path d="M70.468 -3.867 V-3.71 Q70.468 -1.74 68.96 -0.264 Q67.452 1.212 64.916 1.212 Q62.676 1.212 61 -0.45 Q59.323 -2.112 59.323 -4.36 V-19.154 Q59.323 -20.683 60.457 -21.817 Q61.591 -22.951 63.12 -22.951 H77.914 Q80.162 -22.951 81.824 -21.246 Q83.486 -19.541 83.486 -16.808 Q83.486 -14.864 81.972 -13.335 Q80.458 -11.807 78.505 -11.807 H78.407 L82.993 -7.22 Q84.768 -5.445 84.694 -3.325 Q84.62 -1.204 82.941 0.522 Q81.267 2.248 79.007 2.297 Q76.747 2.346 75.054 0.62 L70.468 -3.867 Z M47.294 5.009 Q39.056 5.009 31.757 1.878 Q24.459 -1.254 18.911 -6.801 Q13.364 -12.349 10.232 -19.643 Q7.101 -26.937 7.101 -35.275 Q7.101 -43.613 10.232 -50.862 Q13.364 -58.111 18.911 -63.659 Q24.459 -69.206 31.753 -72.338 Q39.047 -75.469 47.385 -75.469 Q55.723 -75.469 62.972 -72.338 Q70.221 -69.206 75.769 -63.659 Q81.316 -58.111 84.448 -50.862 Q87.579 -43.613 87.579 -35.23 Q87.579 -35.212 87.579 -35.334 Q87.579 -35.456 87.579 -35.438 Q87.48 -32.863 85.631 -31.211 Q83.782 -29.559 81.119 -29.559 Q78.918 -29.559 77.504 -31.186 Q76.089 -32.814 76.188 -35.11 Q76.188 -35.103 76.212 -35.191 Q76.237 -35.279 76.237 -35.272 Q76.237 -37.033 75.966 -38.696 Q75.695 -40.358 75.3 -42.035 H60.358 Q60.457 -40.358 60.457 -38.731 Q60.457 -37.104 60.457 -35.413 Q60.457 -34.864 60.408 -34.409 Q60.358 -33.955 60.358 -33.405 Q60.408 -32.025 59.353 -30.792 Q58.298 -29.559 56.867 -29.559 Q55.526 -29.559 54.614 -30.373 Q53.701 -31.186 53.701 -32.666 Q53.701 -33.356 53.726 -34.096 Q53.751 -34.835 53.751 -35.526 Q53.751 -37.235 53.8 -38.846 Q53.849 -40.457 53.583 -42.035 H40.979 Q40.781 -40.358 40.707 -38.682 Q40.634 -37.005 40.634 -35.23 Q40.634 -33.455 40.707 -31.778 Q40.781 -30.101 40.979 -28.425 H53.188 Q54.49 -28.425 55.427 -27.509 Q56.364 -26.593 56.364 -25.24 Q56.364 -23.888 55.393 -22.951 Q54.421 -22.014 53.159 -22.014 H41.768 Q42.549 -17.663 43.638 -13.675 Q44.726 -9.686 47.143 -5.741 Q47.192 -5.741 47.093 -5.889 Q46.995 -6.037 47.033 -6.037 Q49.214 -6.136 51.137 -4.656 Q53.06 -3.177 53.06 -1.204 Q53.06 1.261 51.408 3.135 Q49.756 5.009 47.274 5.009 Q47.146 5.009 47.268 5.009 Q47.389 5.009 47.294 5.009 Z M19.183 -28.425 H34.223 Q34.026 -30.003 33.976 -31.679 Q33.927 -33.356 33.927 -35.033 Q33.927 -36.907 33.976 -38.583 Q34.026 -40.26 34.223 -42.035 H19.183 Q18.788 -40.358 18.517 -38.682 Q18.246 -37.005 18.246 -35.23 Q18.246 -33.455 18.517 -31.778 Q18.788 -30.101 19.183 -28.425 Z M39.351 -7.122 Q37.33 -10.524 36.504 -14.35 Q35.678 -18.175 35.061 -22.014 H21.451 Q24.114 -16.59 28.774 -12.719 Q33.434 -8.848 39.351 -7.122 Z M21.451 -48.347 H35.061 Q35.653 -52.243 36.541 -56.04 Q37.428 -59.837 39.253 -63.338 Q33.335 -61.612 28.725 -57.741 Q24.114 -53.87 21.451 -48.347 Z M41.768 -48.347 H52.814 Q52.025 -52.687 50.693 -56.681 Q49.362 -60.675 47.143 -64.423 Q44.924 -60.774 43.74 -56.681 Q42.557 -52.588 41.768 -48.347 Z M59.52 -48.347 H73.13 Q70.468 -53.87 65.758 -57.741 Q61.049 -61.612 55.131 -63.338 Q56.956 -59.837 57.942 -56.04 Q58.928 -52.243 59.52 -48.347 Z"/></g><g id="Semibold-S" transform="matrix(1 0 0 1 1998.1 696)"><path d="M69.138 -6.74 V-4.482 Q69.138 -2.769 67.866 -1.508 Q66.594 -0.246 64.573 -0.246 Q62.719 -0.246 61.343 -1.608 Q59.966 -2.969 59.966 -4.832 V-18.768 Q59.966 -20.254 61.057 -21.345 Q62.149 -22.437 63.635 -22.437 H77.571 Q79.433 -22.437 80.795 -21.053 Q82.157 -19.669 82.157 -17.537 Q82.157 -15.85 80.879 -14.557 Q79.601 -13.264 77.905 -13.264 H75.663 L81.921 -7.006 Q83.396 -5.531 83.344 -3.796 Q83.291 -2.062 81.912 -0.636 Q80.495 0.79 78.642 0.818 Q76.79 0.845 75.397 -0.58 L69.138 -6.74 Z M47.294 3.551 Q39.356 3.551 32.315 0.527 Q25.274 -2.497 19.94 -7.83 Q14.607 -13.164 11.583 -20.201 Q8.559 -27.237 8.559 -35.275 Q8.559 -43.313 11.583 -50.305 Q14.607 -57.296 19.94 -62.63 Q25.274 -67.963 32.311 -70.987 Q39.347 -74.011 47.385 -74.011 Q55.423 -74.011 62.415 -70.987 Q69.406 -67.963 74.74 -62.63 Q80.073 -57.296 83.097 -50.305 Q86.121 -43.313 86.121 -35.23 Q86.121 -34.826 86.1 -34.476 Q86.078 -34.126 86.035 -33.723 Q85.894 -31.62 84.409 -30.332 Q82.924 -29.045 80.733 -29.045 Q78.918 -29.045 77.739 -30.457 Q76.561 -31.87 76.702 -33.738 Q76.788 -34.117 76.813 -34.505 Q76.837 -34.893 76.837 -35.272 Q76.837 -37.033 76.566 -38.739 Q76.295 -40.444 75.901 -42.164 H60.616 Q60.757 -40.487 60.779 -38.795 Q60.8 -37.104 60.8 -35.413 Q60.8 -34.735 60.772 -34.088 Q60.744 -33.44 60.702 -32.762 Q60.708 -31.382 59.653 -30.213 Q58.598 -29.045 57.167 -29.045 Q55.826 -29.045 54.892 -29.922 Q53.959 -30.8 54.001 -32.237 Q54.044 -33.056 54.069 -33.881 Q54.094 -34.707 54.094 -35.526 Q54.094 -37.235 54.1 -38.889 Q54.107 -40.543 53.84 -42.164 H40.764 Q40.567 -40.444 40.493 -38.725 Q40.419 -37.005 40.419 -35.23 Q40.419 -33.455 40.493 -31.735 Q40.567 -30.016 40.764 -28.296 H52.031 Q53.333 -28.296 54.291 -27.359 Q55.249 -26.421 55.249 -25.069 Q55.249 -23.717 54.278 -22.758 Q53.306 -21.8 52.001 -21.8 H41.553 Q42.334 -17.363 43.509 -13.31 Q44.684 -9.257 47.229 -5.27 Q47.664 -5.27 47.951 -5.396 Q48.238 -5.522 48.663 -5.565 Q50.457 -5.707 52.059 -4.485 Q53.661 -3.263 53.661 -1.633 Q53.661 0.404 52.394 1.892 Q51.128 3.38 49.075 3.465 Q48.561 3.508 48.168 3.53 Q47.775 3.551 47.294 3.551 Z M18.668 -28.296 H34.008 Q33.811 -29.917 33.762 -31.637 Q33.713 -33.356 33.713 -35.033 Q33.713 -36.907 33.762 -38.626 Q33.811 -40.346 34.008 -42.164 H18.668 Q18.274 -40.444 18.002 -38.725 Q17.731 -37.005 17.731 -35.23 Q17.731 -33.455 18.002 -31.735 Q18.274 -30.016 18.668 -28.296 Z M39.223 -6.65 Q37.287 -10.181 36.375 -14.028 Q35.463 -17.875 34.847 -21.8 H20.979 Q23.728 -16.247 28.474 -12.333 Q33.219 -8.419 39.223 -6.65 Z M20.979 -48.604 H34.847 Q35.439 -52.543 36.412 -56.383 Q37.385 -60.223 39.124 -63.81 Q33.164 -62.041 28.446 -58.127 Q23.728 -54.213 20.979 -48.604 Z M41.553 -48.604 H53.071 Q52.282 -52.987 50.929 -57.067 Q49.576 -61.147 47.229 -64.895 Q44.881 -61.203 43.633 -57.067 Q42.385 -52.931 41.553 -48.604 Z M59.778 -48.604 H73.645 Q70.896 -54.213 66.123 -58.127 Q61.349 -62.041 55.389 -63.81 Q57.127 -60.223 58.157 -56.383 Q59.186 -52.543 59.778 -48.604 Z"/></g><g id="Medium-S" transform="matrix(1 0 0 1 1701.85 696)"><path d="M68.141 -8.895 V-5.061 Q68.141 -3.541 67.046 -2.44 Q65.951 -1.339 64.316 -1.339 Q62.751 -1.339 61.6 -2.476 Q60.449 -3.613 60.449 -5.186 V-18.479 Q60.449 -19.932 61.508 -20.992 Q62.567 -22.051 64.02 -22.051 H77.313 Q78.887 -22.051 80.023 -20.908 Q81.16 -19.766 81.16 -18.084 Q81.16 -16.59 80.059 -15.474 Q78.957 -14.358 77.455 -14.358 H73.604 L81.117 -6.845 Q82.367 -5.595 82.33 -4.15 Q82.294 -2.705 81.141 -1.504 Q79.916 -0.304 78.369 -0.292 Q76.822 -0.28 75.654 -1.481 L68.141 -8.895 Z M47.294 2.458 Q39.581 2.458 32.733 -0.486 Q25.885 -3.43 20.712 -8.602 Q15.54 -13.775 12.596 -20.619 Q9.652 -27.463 9.652 -35.275 Q9.652 -43.088 12.596 -49.887 Q15.54 -56.685 20.712 -61.858 Q25.885 -67.03 32.729 -69.974 Q39.573 -72.918 47.385 -72.918 Q55.198 -72.918 61.997 -69.974 Q68.795 -67.03 73.968 -61.858 Q79.14 -56.685 82.084 -49.887 Q85.028 -43.088 85.028 -35.23 Q85.028 -34.537 84.99 -33.833 Q84.953 -33.129 84.878 -32.436 Q84.704 -30.687 83.492 -29.673 Q82.281 -28.659 80.444 -28.659 Q78.918 -28.659 77.916 -29.911 Q76.915 -31.163 77.088 -32.709 Q77.238 -33.377 77.263 -33.991 Q77.288 -34.604 77.288 -35.272 Q77.288 -37.033 77.016 -38.771 Q76.745 -40.509 76.351 -42.26 H60.809 Q60.982 -40.584 61.02 -38.844 Q61.057 -37.104 61.057 -35.413 Q61.057 -34.639 61.046 -33.846 Q61.034 -33.054 60.959 -32.28 Q60.933 -30.899 59.878 -29.779 Q58.823 -28.659 57.392 -28.659 Q56.051 -28.659 55.101 -29.585 Q54.152 -30.511 54.227 -31.915 Q54.302 -32.831 54.326 -33.721 Q54.351 -34.61 54.351 -35.526 Q54.351 -37.235 54.325 -38.921 Q54.299 -40.607 54.033 -42.26 H40.604 Q40.406 -40.509 40.332 -38.757 Q40.258 -37.005 40.258 -35.23 Q40.258 -33.455 40.332 -31.703 Q40.406 -29.951 40.604 -28.2 H51.162 Q52.464 -28.2 53.439 -27.246 Q54.413 -26.292 54.413 -24.94 Q54.413 -23.588 53.442 -22.613 Q52.47 -21.639 51.133 -21.639 H41.393 Q42.174 -17.138 43.412 -13.037 Q44.651 -8.936 47.293 -4.916 Q48.018 -4.916 48.594 -5.026 Q49.171 -5.137 49.885 -5.212 Q51.39 -5.385 52.75 -4.356 Q54.111 -3.327 54.111 -1.955 Q54.111 -0.24 53.134 0.959 Q52.158 2.157 50.426 2.308 Q49.622 2.383 48.843 2.42 Q48.065 2.458 47.294 2.458 Z M18.282 -28.2 H33.848 Q33.65 -29.853 33.601 -31.604 Q33.552 -33.356 33.552 -35.033 Q33.552 -36.907 33.601 -38.658 Q33.65 -40.41 33.848 -42.26 H18.282 Q17.888 -40.509 17.616 -38.757 Q17.345 -37.005 17.345 -35.23 Q17.345 -33.455 17.616 -31.703 Q17.888 -29.951 18.282 -28.2 Z M39.126 -6.296 Q37.255 -9.924 36.278 -13.787 Q35.302 -17.65 34.686 -21.639 H20.625 Q23.438 -15.99 28.249 -12.043 Q33.059 -8.097 39.126 -6.296 Z M20.625 -48.797 H34.686 Q35.278 -52.768 36.315 -56.64 Q37.353 -60.512 39.028 -64.164 Q33.035 -62.363 28.237 -58.417 Q23.438 -54.47 20.625 -48.797 Z M41.393 -48.797 H53.264 Q52.475 -53.212 51.106 -57.356 Q49.737 -61.501 47.293 -65.248 Q44.849 -61.524 43.553 -57.356 Q42.257 -53.188 41.393 -48.797 Z M59.97 -48.797 H74.031 Q71.218 -54.47 66.396 -58.417 Q61.574 -62.363 55.582 -64.164 Q57.256 -60.512 58.317 -56.64 Q59.379 -52.768 59.97 -48.797 Z"/></g><g id="Regular-S" transform="matrix(1 0 0 1 1405.73 696)"><path d="M67.41 -10.475 V-5.485 Q67.41 -4.107 66.445 -3.124 Q65.479 -2.141 64.127 -2.141 Q62.775 -2.141 61.789 -3.113 Q60.802 -4.084 60.802 -5.445 V-18.266 Q60.802 -19.697 61.838 -20.732 Q62.873 -21.768 64.303 -21.768 H77.125 Q78.486 -21.768 79.457 -20.802 Q80.429 -19.837 80.429 -18.485 Q80.429 -17.132 79.457 -16.146 Q78.486 -15.16 77.125 -15.16 H72.095 L80.527 -6.727 Q81.612 -5.642 81.588 -4.41 Q81.563 -3.177 80.574 -2.141 Q79.492 -1.106 78.168 -1.106 Q76.845 -1.106 75.843 -2.141 L67.41 -10.475 Z M47.294 1.656 Q39.746 1.656 33.039 -1.229 Q26.333 -4.114 21.278 -9.168 Q16.224 -14.223 13.339 -20.925 Q10.454 -27.628 10.454 -35.275 Q10.454 -42.923 13.339 -49.58 Q16.224 -56.237 21.278 -61.292 Q26.333 -66.346 33.035 -69.231 Q39.738 -72.116 47.385 -72.116 Q55.033 -72.116 61.69 -69.231 Q68.347 -66.346 73.402 -61.292 Q78.456 -56.237 81.341 -49.58 Q84.226 -42.923 84.226 -35.23 Q84.226 -34.325 84.176 -33.361 Q84.127 -32.398 84.029 -31.493 Q83.831 -30.003 82.82 -29.189 Q81.809 -28.376 80.231 -28.376 Q78.918 -28.376 78.046 -29.51 Q77.174 -30.644 77.371 -31.954 Q77.569 -32.835 77.593 -33.613 Q77.618 -34.392 77.618 -35.272 Q77.618 -37.033 77.347 -38.795 Q77.075 -40.556 76.681 -42.331 H60.95 Q61.148 -40.654 61.197 -38.879 Q61.246 -37.104 61.246 -35.413 Q61.246 -34.568 61.246 -33.67 Q61.246 -32.771 61.148 -31.926 Q61.098 -30.545 60.043 -29.46 Q58.988 -28.376 57.557 -28.376 Q56.216 -28.376 55.255 -29.337 Q54.293 -30.299 54.392 -31.679 Q54.49 -32.666 54.515 -33.603 Q54.54 -34.54 54.54 -35.526 Q54.54 -37.235 54.49 -38.945 Q54.441 -40.654 54.175 -42.331 H40.486 Q40.288 -40.556 40.214 -38.78 Q40.14 -37.005 40.14 -35.23 Q40.14 -33.455 40.214 -31.679 Q40.288 -29.904 40.486 -28.129 H50.525 Q51.827 -28.129 52.814 -27.164 Q53.8 -26.198 53.8 -24.846 Q53.8 -23.494 52.828 -22.507 Q51.857 -21.521 50.496 -21.521 H41.275 Q42.056 -16.973 43.342 -12.837 Q44.628 -8.7 47.34 -4.656 Q48.277 -4.656 49.066 -4.755 Q49.855 -4.853 50.781 -4.952 Q52.074 -5.149 53.258 -4.262 Q54.441 -3.374 54.441 -2.191 Q54.441 -0.711 53.677 0.275 Q52.912 1.261 51.416 1.459 Q50.4 1.557 49.339 1.606 Q48.277 1.656 47.294 1.656 Z M17.999 -28.129 H33.73 Q33.532 -29.806 33.483 -31.581 Q33.434 -33.356 33.434 -35.033 Q33.434 -36.907 33.483 -38.682 Q33.532 -40.457 33.73 -42.331 H17.999 Q17.605 -40.556 17.333 -38.78 Q17.062 -37.005 17.062 -35.23 Q17.062 -33.455 17.333 -31.679 Q17.605 -29.904 17.999 -28.129 Z M39.056 -6.037 Q37.231 -9.735 36.208 -13.61 Q35.184 -17.485 34.568 -21.521 H20.366 Q23.226 -15.801 28.083 -11.831 Q32.941 -7.862 39.056 -6.037 Z M20.366 -48.939 H34.568 Q35.16 -52.933 36.245 -56.829 Q37.33 -60.725 38.957 -64.423 Q32.941 -62.598 28.083 -58.629 Q23.226 -54.659 20.366 -48.939 Z M41.275 -48.939 H53.405 Q52.616 -53.377 51.236 -57.569 Q49.855 -61.76 47.34 -65.508 Q44.825 -61.76 43.494 -57.569 Q42.162 -53.377 41.275 -48.939 Z M60.112 -48.939 H74.314 Q71.454 -54.659 66.597 -58.629 Q61.739 -62.598 55.723 -64.423 Q57.35 -60.725 58.435 -56.829 Q59.52 -52.933 60.112 -48.939 Z"/></g><g id="Light-S" transform="matrix(1 0 0 1 1109.75 696)"><path d="M65.684 -13.548 V-6.282 Q65.684 -5.283 64.994 -4.585 Q64.303 -3.886 63.33 -3.886 Q62.358 -3.886 61.656 -4.573 Q60.954 -5.26 60.954 -6.242 V-19.025 Q60.954 -20.114 61.705 -20.874 Q62.456 -21.635 63.545 -21.635 H76.328 Q77.31 -21.635 78.006 -20.944 Q78.703 -20.254 78.703 -19.281 Q78.703 -18.308 78.006 -17.607 Q77.31 -16.905 76.328 -16.905 H69.022 L79.086 -6.841 Q79.886 -6.041 79.871 -5.187 Q79.856 -4.334 79.133 -3.602 Q78.335 -2.832 77.381 -2.841 Q76.428 -2.851 75.729 -3.602 L65.684 -13.548 Z M47.294 -0.127 Q40.125 -0.127 33.741 -2.87 Q27.357 -5.612 22.54 -10.43 Q17.722 -15.247 14.98 -21.627 Q12.237 -28.007 12.237 -35.275 Q12.237 -42.543 14.98 -48.878 Q17.722 -55.213 22.54 -60.03 Q27.357 -64.848 33.737 -67.59 Q40.117 -70.333 47.385 -70.333 Q54.653 -70.333 60.988 -67.59 Q67.323 -64.848 72.14 -60.03 Q76.958 -55.213 79.7 -48.878 Q82.443 -42.543 82.443 -35.23 Q82.443 -34.287 82.393 -33.304 Q82.344 -32.322 82.208 -31.379 Q82.048 -30.287 81.312 -29.692 Q80.577 -29.096 79.454 -29.096 Q78.52 -29.096 77.904 -29.87 Q77.288 -30.644 77.447 -31.613 Q77.625 -32.531 77.669 -33.443 Q77.713 -34.354 77.713 -35.272 Q77.713 -37.223 77.404 -39.155 Q77.094 -41.087 76.605 -43.014 H59.585 Q59.858 -41.167 59.926 -39.23 Q59.994 -37.294 59.994 -35.413 Q59.994 -34.53 59.975 -33.603 Q59.956 -32.677 59.858 -31.793 Q59.846 -30.811 59.085 -29.954 Q58.324 -29.096 57.292 -29.096 Q56.33 -29.096 55.634 -29.736 Q54.938 -30.375 54.999 -31.395 Q55.078 -32.419 55.122 -33.46 Q55.166 -34.502 55.166 -35.526 Q55.166 -37.425 55.088 -39.305 Q55.01 -41.185 54.706 -43.014 H39.973 Q39.719 -41.087 39.617 -39.141 Q39.514 -37.195 39.514 -35.23 Q39.514 -33.265 39.617 -31.319 Q39.719 -29.373 39.973 -27.446 H51.891 Q52.814 -27.446 53.525 -26.756 Q54.236 -26.065 54.236 -25.111 Q54.236 -24.139 53.54 -23.427 Q52.843 -22.716 51.862 -22.716 H40.364 Q41.259 -17.789 42.735 -13.273 Q44.211 -8.757 47.34 -4.504 Q48.334 -4.504 49.199 -4.632 Q50.064 -4.759 51.027 -4.895 Q51.903 -5.054 52.831 -4.394 Q53.758 -3.735 53.758 -2.968 Q53.758 -1.906 53.212 -1.214 Q52.666 -0.522 51.549 -0.362 Q50.495 -0.226 49.414 -0.177 Q48.334 -0.127 47.294 -0.127 Z M18.094 -27.446 H35.095 Q34.822 -29.293 34.754 -31.23 Q34.686 -33.166 34.686 -35.033 Q34.686 -37.096 34.754 -39.033 Q34.822 -40.969 35.095 -43.014 H18.094 Q17.586 -41.087 17.276 -39.141 Q16.967 -37.195 16.967 -35.23 Q16.967 -33.265 17.276 -31.319 Q17.586 -29.373 18.094 -27.446 Z M41.559 -5.297 Q39.147 -9.318 37.754 -13.695 Q36.36 -18.073 35.573 -22.716 H19.645 Q22.733 -15.953 28.51 -11.404 Q34.287 -6.856 41.559 -5.297 Z M19.645 -47.744 H35.573 Q36.279 -52.364 37.705 -56.772 Q39.132 -61.18 41.461 -65.163 Q34.25 -63.661 28.491 -59.103 Q22.733 -54.545 19.645 -47.744 Z M40.364 -47.744 H54.335 Q53.451 -52.58 51.824 -57.104 Q50.196 -61.627 47.34 -65.66 Q44.446 -61.703 42.887 -57.142 Q41.328 -52.58 40.364 -47.744 Z M59.126 -47.744 H75.054 Q71.947 -54.545 66.189 -59.122 Q60.43 -63.699 53.219 -65.163 Q55.435 -61.142 56.833 -56.725 Q58.23 -52.307 59.126 -47.744 Z"/></g><g id="Thin-S" transform="matrix(1 0 0 1 814.015 696)"><path d="M63.958 -16.62 V-7.078 Q63.958 -6.459 63.543 -6.045 Q63.127 -5.631 62.534 -5.631 Q61.94 -5.631 61.523 -6.034 Q61.106 -6.436 61.106 -7.038 V-19.784 Q61.106 -20.531 61.572 -21.017 Q62.039 -21.502 62.786 -21.502 H75.532 Q76.134 -21.502 76.555 -21.087 Q76.977 -20.671 76.977 -20.078 Q76.977 -19.484 76.555 -19.067 Q76.134 -18.65 75.532 -18.65 H65.95 L77.644 -6.955 Q78.16 -6.439 78.155 -5.965 Q78.149 -5.491 77.692 -5.062 Q77.178 -4.558 76.594 -4.577 Q76.011 -4.595 75.615 -5.062 L63.958 -16.62 Z M47.294 -1.91 Q40.504 -1.91 34.443 -4.51 Q28.381 -7.11 23.801 -11.691 Q19.22 -16.271 16.62 -22.329 Q14.02 -28.386 14.02 -35.275 Q14.02 -42.164 16.62 -48.176 Q19.22 -54.189 23.801 -58.769 Q28.381 -63.35 34.439 -65.95 Q40.496 -68.55 47.385 -68.55 Q54.274 -68.55 60.286 -65.95 Q66.299 -63.35 70.879 -58.769 Q75.46 -54.189 78.06 -48.176 Q80.66 -42.164 80.66 -35.23 Q80.66 -34.249 80.611 -33.248 Q80.561 -32.246 80.387 -31.265 Q80.266 -30.572 79.805 -30.194 Q79.344 -29.817 78.676 -29.817 Q78.122 -29.817 77.762 -30.231 Q77.402 -30.644 77.523 -31.271 Q77.682 -32.228 77.745 -33.272 Q77.808 -34.316 77.808 -35.272 Q77.808 -37.413 77.46 -39.515 Q77.113 -41.618 76.529 -43.697 H58.219 Q58.568 -41.679 58.655 -39.581 Q58.743 -37.483 58.743 -35.413 Q58.743 -34.492 58.705 -33.537 Q58.667 -32.582 58.568 -31.661 Q58.595 -31.076 58.128 -30.447 Q57.661 -29.817 57.026 -29.817 Q56.444 -29.817 56.013 -30.134 Q55.583 -30.45 55.606 -31.111 Q55.666 -32.173 55.729 -33.318 Q55.791 -34.464 55.791 -35.526 Q55.791 -37.615 55.685 -39.666 Q55.579 -41.716 55.237 -43.697 H39.461 Q39.15 -41.618 39.02 -39.501 Q38.889 -37.385 38.889 -35.23 Q38.889 -33.075 39.02 -30.959 Q39.15 -28.842 39.461 -26.763 H53.256 Q53.8 -26.763 54.236 -26.348 Q54.672 -25.933 54.672 -25.377 Q54.672 -24.783 54.251 -24.347 Q53.83 -23.911 53.227 -23.911 H39.454 Q40.462 -18.604 42.128 -13.709 Q43.793 -8.814 47.34 -4.353 Q48.391 -4.353 49.331 -4.508 Q50.272 -4.664 51.274 -4.838 Q51.733 -4.96 52.404 -4.527 Q53.075 -4.095 53.075 -3.746 Q53.075 -3.101 52.747 -2.703 Q52.419 -2.304 51.682 -2.183 Q50.59 -2.009 49.49 -1.959 Q48.391 -1.91 47.294 -1.91 Z M18.189 -26.763 H36.461 Q36.112 -28.781 36.025 -30.879 Q35.937 -32.977 35.937 -35.033 Q35.937 -37.286 36.025 -39.384 Q36.112 -41.481 36.461 -43.697 H18.189 Q17.567 -41.618 17.22 -39.501 Q16.872 -37.385 16.872 -35.23 Q16.872 -33.075 17.22 -30.959 Q17.567 -28.842 18.189 -26.763 Z M44.063 -4.558 Q41.062 -8.901 39.299 -13.781 Q37.536 -18.661 36.578 -23.911 H18.925 Q22.24 -16.104 28.937 -10.978 Q35.634 -5.851 44.063 -4.558 Z M18.925 -46.549 H36.578 Q37.398 -51.795 39.165 -56.715 Q40.933 -61.635 43.964 -65.902 Q35.558 -64.723 28.899 -59.577 Q22.24 -54.431 18.925 -46.549 Z M39.454 -46.549 H55.264 Q54.285 -51.784 52.412 -56.639 Q50.538 -61.495 47.34 -65.811 Q44.066 -61.646 42.28 -56.715 Q40.493 -51.784 39.454 -46.549 Z M58.139 -46.549 H75.793 Q72.44 -54.431 65.781 -59.615 Q59.122 -64.799 50.716 -65.902 Q53.519 -61.559 55.23 -56.62 Q56.941 -51.681 58.139 -46.549 Z"/></g><g id="Ultralight-S" transform="matrix(1 0 0 1 517.792 696)"><path d="M62.923 -18.464 V-7.556 Q62.923 -7.165 62.672 -6.921 Q62.422 -6.678 62.056 -6.678 Q61.69 -6.678 61.443 -6.91 Q61.197 -7.142 61.197 -7.516 V-20.239 Q61.197 -20.781 61.493 -21.102 Q61.789 -21.422 62.331 -21.422 H75.054 Q75.428 -21.422 75.685 -21.172 Q75.941 -20.922 75.941 -20.556 Q75.941 -20.19 75.685 -19.943 Q75.428 -19.697 75.054 -19.697 H64.106 L76.78 -7.023 Q77.125 -6.678 77.125 -6.431 Q77.125 -6.185 76.827 -5.938 Q76.484 -5.593 76.122 -5.618 Q75.76 -5.642 75.547 -5.938 L62.923 -18.464 Z M47.294 -2.98 Q40.732 -2.98 34.864 -5.495 Q28.996 -8.009 24.558 -12.448 Q20.12 -16.886 17.605 -22.75 Q15.09 -28.614 15.09 -35.275 Q15.09 -41.936 17.605 -47.755 Q20.12 -53.574 24.558 -58.012 Q28.996 -62.45 34.86 -64.965 Q40.724 -67.48 47.385 -67.48 Q54.047 -67.48 59.865 -64.965 Q65.684 -62.45 70.122 -58.012 Q74.561 -53.574 77.075 -47.755 Q79.59 -41.936 79.59 -35.23 Q79.59 -34.226 79.541 -33.213 Q79.492 -32.201 79.294 -31.197 Q79.196 -30.743 78.9 -30.496 Q78.604 -30.249 78.21 -30.249 Q77.883 -30.249 77.676 -30.447 Q77.47 -30.644 77.569 -31.067 Q77.716 -32.046 77.79 -33.169 Q77.864 -34.293 77.864 -35.272 Q77.864 -37.527 77.495 -39.732 Q77.125 -41.936 76.484 -44.106 H57.4 Q57.794 -41.986 57.893 -39.791 Q57.992 -37.597 57.992 -35.413 Q57.992 -34.469 57.942 -33.497 Q57.893 -32.525 57.794 -31.581 Q57.844 -31.236 57.553 -30.743 Q57.262 -30.249 56.867 -30.249 Q56.512 -30.249 56.241 -30.373 Q55.97 -30.496 55.97 -30.94 Q56.019 -32.025 56.093 -33.233 Q56.167 -34.441 56.167 -35.526 Q56.167 -37.728 56.044 -39.882 Q55.92 -42.035 55.556 -44.106 H39.154 Q38.809 -41.936 38.661 -39.717 Q38.513 -37.498 38.513 -35.23 Q38.513 -32.962 38.661 -30.743 Q38.809 -28.523 39.154 -26.354 H54.076 Q54.392 -26.354 54.663 -26.103 Q54.934 -25.853 54.934 -25.536 Q54.934 -25.17 54.678 -24.899 Q54.421 -24.628 54.047 -24.628 H38.908 Q39.985 -19.093 41.764 -13.971 Q43.543 -8.848 47.34 -4.262 Q48.425 -4.262 49.411 -4.434 Q50.397 -4.607 51.422 -4.804 Q51.63 -4.903 52.148 -4.607 Q52.666 -4.311 52.666 -4.212 Q52.666 -3.818 52.468 -3.596 Q52.271 -3.374 51.762 -3.275 Q50.647 -3.078 49.536 -3.029 Q48.425 -2.98 47.294 -2.98 Z M18.246 -26.354 H37.28 Q36.886 -28.474 36.787 -30.669 Q36.689 -32.863 36.689 -35.033 Q36.689 -37.4 36.787 -39.594 Q36.886 -41.789 37.28 -44.106 H18.246 Q17.555 -41.936 17.185 -39.717 Q16.816 -37.498 16.816 -35.23 Q16.816 -32.962 17.185 -30.743 Q17.555 -28.523 18.246 -26.354 Z M45.565 -4.114 Q42.212 -8.651 40.227 -13.832 Q38.242 -19.013 37.182 -24.628 H18.492 Q21.944 -16.195 29.193 -10.722 Q36.442 -5.248 45.565 -4.114 Z M18.492 -45.832 H37.182 Q38.069 -51.454 40.042 -56.681 Q42.014 -61.908 45.466 -66.346 Q36.343 -65.36 29.144 -59.862 Q21.944 -54.363 18.492 -45.832 Z M38.908 -45.832 H55.822 Q54.786 -51.306 52.764 -56.36 Q50.743 -61.415 47.34 -65.902 Q43.839 -61.612 41.916 -56.459 Q39.992 -51.306 38.908 -45.832 Z M57.548 -45.832 H76.237 Q72.736 -54.363 65.536 -59.911 Q58.337 -65.459 49.214 -66.346 Q52.37 -61.809 54.268 -56.558 Q56.167 -51.306 57.548 -45.832 Z"/></g></g></svg>