<svg xmlns="http://www.w3.org/2000/svg" version="1.1" width="3300" height="2000"><g id="Notes"><style>
    text {
      font-family: monospace;
      text-anchor: middle;
    }
    text.emphasis {
      font-weight:bold;
    }
    text.lanchor {
      text-anchor: start;
    }
  </style><rect height="2200" id="artboard" fill="white" width="3300" x="0" y="0"/><line id="" style="fill:none;stroke:black;stroke-width:0.5;" x1="263" x2="3036" y1="292" y2="292"/><text class="lanchor emphasis" transform="matrix(1 0 0 1 263 322)">Weight/Scale Variations</text><text transform="matrix(1 0 0 1 559.711 322)">Ultralight</text><text transform="matrix(1 0 0 1 856.422 322)">Thin</text><text transform="matrix(1 0 0 1 1153.13 322)">Light</text><text transform="matrix(1 0 0 1 1449.84 322)">Regular</text><text transform="matrix(1 0 0 1 1746.56 322)">Medium</text><text transform="matrix(1 0 0 1 2043.27 322)">Semibold</text><text transform="matrix(1 0 0 1 2339.98 322)">Bold</text><text transform="matrix(1 0 0 1 2636.69 322)">Heavy</text><text transform="matrix(1 0 0 1 2933.4 322)">Black</text><text id="template-version" style="text-anchor: end;" transform="matrix(1 0 0 1 3036 1933)">Template v.1.0</text><text class="lanchor" transform="matrix(1 0 0 1 263 726)">Small</text><text class="lanchor" transform="matrix(1 0 0 1 263 1156)">Medium</text><text class="lanchor" transform="matrix(1 0 0 1 263 1586)">Large</text></g><g id="Guides"><g id="H-reference" style="fill:#27AAE1;stroke:none;" transform="matrix(1 0 0 1 339 696)"><path d="M 54.9316 0 L 57.666 0 L 30.5664 -70.459 L 28.0762 -70.459 L 0.976562 0 L 3.66211 0 L 12.9395 -24.4629 L 45.7031 -24.4629 Z M 29.1992 -67.0898 L 29.4434 -67.0898 L 44.8242 -26.709 L 13.8184 -26.709 Z"/></g><line id="Baseline-S" style="fill:none;stroke:#27AAE1;opacity:1;stroke-width:0.577;" x1="263" x2="3036" y1="696" y2="696"/><line id="Capline-S" style="fill:none;stroke:#27AAE1;opacity:1;stroke-width:0.577;" x1="263" x2="3036" y1="625.541" y2="625.541"/><g id="H-reference" style="fill:#27AAE1;stroke:none;" transform="matrix(1 0 0 1 339 1126)"><path d="M 54.9316 0 L 57.666 0 L 30.5664 -70.459 L 28.0762 -70.459 L 0.976562 0 L 3.66211 0 L 12.9395 -24.4629 L 45.7031 -24.4629 Z M 29.1992 -67.0898 L 29.4434 -67.0898 L 44.8242 -26.709 L 13.8184 -26.709 Z"/></g><line id="Baseline-M" style="fill:none;stroke:#27AAE1;opacity:1;stroke-width:0.577;" x1="263" x2="3036" y1="1126" y2="1126"/><line id="Capline-M" style="fill:none;stroke:#27AAE1;opacity:1;stroke-width:0.577;" x1="263" x2="3036" y1="1055.54" y2="1055.54"/><g id="H-reference" style="fill:#27AAE1;stroke:none;" transform="matrix(1 0 0 1 339 1556)"><path d="M 54.9316 0 L 57.666 0 L 30.5664 -70.459 L 28.0762 -70.459 L 0.976562 0 L 3.66211 0 L 12.9395 -24.4629 L 45.7031 -24.4629 Z M 29.1992 -67.0898 L 29.4434 -67.0898 L 44.8242 -26.709 L 13.8184 -26.709 Z"/></g><line id="Baseline-L" style="fill:none;stroke:#27AAE1;opacity:1;stroke-width:0.577;" x1="263" x2="3036" y1="1556" y2="1556"/><line id="Capline-L" style="fill:none;stroke:#27AAE1;opacity:1;stroke-width:0.577;" x1="263" x2="3036" y1="1485.54" y2="1485.54"/><rect height="119.336" id="left-margin" style="fill:darkred;stroke:none;opacity:0.4;" width="12.4512" x="1394.06" y="1030.79"/><rect height="119.336" id="right-margin" style="fill:darkgreen;stroke:none;opacity:0.4;" width="12.4512" x="1502.5112" y="1030.79"/><rect x="1406.5112" y="1045" width="96" height="96" fill="none" stroke="blue" stroke-dasharray="5"/><rect x="1394.06" y="1030.79" width="120.9024" height="119.336" fill="none" stroke="blue"/></g><g id="Symbols"><g id="Bold-L" transform="matrix(1 0 0 1 2266 1556)"><path d="M84.576 1.938 Q88.569 1.938 91.853 -0.243 Q95.138 -2.425 95.138 -6.293 V-22.493 Q95.138 -26.281 91.853 -28.619 Q88.569 -30.957 84.576 -30.957 H69.338 V-42.325 H89.494 Q91.816 -42.325 93.477 -43.925 Q95.138 -45.526 95.138 -47.916 Q95.138 -50.226 93.545 -51.879 Q91.953 -53.532 89.494 -53.532 H67.403 Q64.298 -53.532 62.182 -51.375 Q60.066 -49.218 60.066 -46.195 V-27.087 Q60.066 -23.983 62.182 -21.866 Q64.298 -19.75 67.403 -19.75 H84.576 V-9.269 H65.629 Q63.307 -9.269 61.686 -7.6 Q60.066 -5.931 60.066 -3.677 Q60.066 -1.206 61.618 0.366 Q63.17 1.938 65.689 1.938 H84.576 Z M61.053 -96.263 Q58.252 -96.263 56.417 -98.186 Q54.583 -100.109 54.583 -102.903 Q54.583 -105.616 56.498 -107.43 Q58.413 -109.244 61.214 -109.244 H93.828 Q96.548 -109.244 98.383 -107.401 Q100.217 -105.559 100.217 -102.846 Q100.217 -100.052 98.383 -98.158 Q96.548 -96.263 93.828 -96.263 H61.053 Z M77.362 35.72 Q64.586 35.72 53.43 30.891 Q42.273 26.062 33.916 17.749 Q25.558 9.436 20.801 -1.707 Q16.044 -12.851 16.044 -25.613 Q16.044 -38.374 20.801 -49.541 Q25.558 -60.707 33.922 -69.101 Q42.286 -77.494 53.45 -82.323 Q64.614 -87.152 77.4 -87.152 Q88.688 -87.152 98.282 -83.605 Q107.876 -80.057 115.374 -73.527 L120.373 -78.526 Q122.389 -80.541 125.049 -80.541 Q127.71 -80.541 129.806 -78.445 Q131.822 -76.268 131.822 -73.648 Q131.822 -71.027 129.806 -68.931 L124.969 -64.094 Q130.854 -57.563 134.886 -48.211 Q138.917 -38.858 138.917 -25.636 Q138.917 -12.839 134.095 -1.666 Q129.273 9.508 120.893 17.798 Q112.513 26.088 101.326 30.904 Q90.139 35.72 77.362 35.72 Z"/></g><g id="Semibold-L" transform="matrix(1 0 0 1 1970.27 1556)"><path d="M84.926 -0.305 Q88.725 -0.305 91.826 -2.432 Q94.927 -4.559 94.927 -8.288 V-23.965 Q94.927 -27.613 91.826 -29.846 Q88.725 -32.079 84.926 -32.079 H69.478 V-43.727 H89.704 Q91.875 -43.727 93.401 -45.222 Q94.927 -46.718 94.927 -48.933 Q94.927 -51.067 93.44 -52.58 Q91.953 -54.093 89.704 -54.093 H66.351 Q63.738 -54.093 61.972 -52.287 Q60.206 -50.48 60.206 -47.948 V-27.858 Q60.206 -25.245 61.972 -23.479 Q63.738 -21.713 66.351 -21.713 H84.926 V-10.671 H65.348 Q63.177 -10.671 61.692 -9.137 Q60.206 -7.603 60.206 -5.5 Q60.206 -3.239 61.653 -1.772 Q63.1 -0.305 65.382 -0.305 H84.926 Z M61.886 -96.263 Q59.443 -96.263 57.819 -97.941 Q56.195 -99.618 56.195 -102.061 Q56.195 -104.424 57.865 -106.028 Q59.534 -107.631 61.977 -107.631 H92.995 Q95.357 -107.631 96.981 -105.999 Q98.605 -104.367 98.605 -102.005 Q98.605 -99.562 96.981 -97.912 Q95.357 -96.263 92.995 -96.263 H61.886 Z M77.379 32.495 Q65.039 32.495 54.194 27.803 Q43.349 23.11 35.225 15.011 Q27.1 6.913 22.449 -3.926 Q17.797 -14.764 17.797 -27.095 Q17.797 -39.426 22.449 -50.277 Q27.1 -61.128 35.228 -69.272 Q43.356 -77.417 54.205 -82.109 Q65.055 -86.802 77.4 -86.802 Q88.547 -86.802 97.966 -83.254 Q107.386 -79.707 114.814 -73.246 L119.742 -78.175 Q121.477 -79.91 123.823 -79.91 Q126.168 -79.91 127.983 -78.13 Q129.719 -76.268 129.719 -73.963 Q129.719 -71.658 127.983 -69.843 L123.146 -65.005 Q128.962 -58.615 133.028 -49.402 Q137.094 -40.19 137.094 -27.108 Q137.094 -14.757 132.406 -3.902 Q127.717 6.953 119.58 15.039 Q111.443 23.125 100.581 27.81 Q89.718 32.495 77.379 32.495 Z"/></g><g id="Medium-L" transform="matrix(1 0 0 1 1674.31 1556)"><path d="M85.189 -1.988 Q88.843 -1.988 91.806 -4.074 Q94.769 -6.16 94.769 -9.784 V-25.068 Q94.769 -28.612 91.806 -30.766 Q88.843 -32.92 85.189 -32.92 H69.583 V-44.779 H89.862 Q91.92 -44.779 93.345 -46.195 Q94.769 -47.612 94.769 -49.695 Q94.769 -51.698 93.361 -53.106 Q91.953 -54.513 89.862 -54.513 H65.562 Q63.317 -54.513 61.814 -52.97 Q60.311 -51.427 60.311 -49.262 V-28.437 Q60.311 -26.191 61.814 -24.688 Q63.317 -23.185 65.562 -23.185 H85.189 V-11.722 H65.138 Q63.08 -11.722 61.695 -10.29 Q60.311 -8.857 60.311 -6.867 Q60.311 -4.764 61.679 -3.376 Q63.047 -1.988 65.152 -1.988 H85.189 Z M62.51 -96.263 Q60.337 -96.263 58.871 -97.757 Q57.405 -99.25 57.405 -101.43 Q57.405 -103.53 58.89 -104.976 Q60.376 -106.422 62.549 -106.422 H92.37 Q94.463 -106.422 95.929 -104.948 Q97.395 -103.473 97.395 -101.374 Q97.395 -99.194 95.929 -97.728 Q94.463 -96.263 92.37 -96.263 H62.51 Z M77.391 30.076 Q65.379 30.076 54.767 25.486 Q44.155 20.896 36.206 12.958 Q28.257 5.019 23.684 -5.59 Q19.112 -16.198 19.112 -28.207 Q19.112 -40.215 23.684 -50.829 Q28.257 -61.444 36.208 -69.401 Q44.158 -77.359 54.772 -81.949 Q65.386 -86.539 77.4 -86.539 Q88.442 -86.539 97.73 -82.992 Q107.017 -79.444 114.393 -73.036 L119.269 -77.912 Q120.794 -79.437 122.902 -79.437 Q125.011 -79.437 126.616 -77.893 Q128.141 -76.268 128.141 -74.2 Q128.141 -72.132 126.616 -70.526 L121.779 -65.689 Q127.542 -59.403 131.634 -50.296 Q135.727 -41.189 135.727 -28.212 Q135.727 -16.196 131.139 -5.58 Q126.55 5.037 118.596 12.969 Q110.641 20.902 100.022 25.489 Q89.403 30.076 77.391 30.076 Z"/></g><g id="Regular-L" transform="matrix(1 0 0 1 1378.56 1556)"><path d="M85.382 -3.222 Q88.929 -3.222 91.792 -5.278 Q94.654 -7.334 94.654 -10.881 V-25.877 Q94.654 -29.344 91.792 -31.441 Q88.929 -33.537 85.382 -33.537 H69.66 V-45.55 H89.978 Q91.953 -45.55 93.303 -46.909 Q94.654 -48.267 94.654 -50.254 Q94.654 -52.161 93.303 -53.492 Q91.953 -54.822 89.978 -54.822 H64.984 Q63.008 -54.822 61.698 -53.471 Q60.388 -52.121 60.388 -50.226 V-28.861 Q60.388 -26.885 61.698 -25.575 Q63.008 -24.265 64.984 -24.265 H85.382 V-12.494 H64.984 Q63.008 -12.494 61.698 -11.135 Q60.388 -9.777 60.388 -7.87 Q60.388 -5.882 61.698 -4.552 Q63.008 -3.222 64.984 -3.222 H85.382 Z M62.968 -96.263 Q60.993 -96.263 59.642 -97.622 Q58.292 -98.98 58.292 -100.968 Q58.292 -102.874 59.642 -104.205 Q60.993 -105.535 62.968 -105.535 H91.913 Q93.807 -105.535 95.158 -104.176 Q96.508 -102.818 96.508 -100.911 Q96.508 -98.924 95.158 -97.593 Q93.807 -96.263 91.913 -96.263 H62.968 Z M77.4 28.303 Q65.629 28.303 55.188 23.788 Q44.747 19.273 36.926 11.452 Q29.106 3.631 24.591 -6.81 Q20.076 -17.251 20.076 -29.022 Q20.076 -40.793 24.591 -51.234 Q29.106 -61.675 36.926 -69.496 Q44.747 -77.316 55.188 -81.831 Q65.629 -86.346 77.4 -86.346 Q88.365 -86.346 97.556 -82.799 Q106.748 -79.251 114.084 -72.882 L118.922 -77.719 Q120.293 -79.09 122.228 -79.09 Q124.163 -79.09 125.614 -77.719 Q126.984 -76.268 126.984 -74.373 Q126.984 -72.479 125.614 -71.027 L120.776 -66.19 Q126.501 -59.982 130.613 -50.952 Q134.724 -41.922 134.724 -29.022 Q134.724 -17.251 130.209 -6.81 Q125.694 3.631 117.874 11.452 Q110.053 19.273 99.612 23.788 Q89.171 28.303 77.4 28.303 Z"/></g><g id="Light-L" transform="matrix(1 0 0 1 1082.77 1556)"><path d="M85.94 -4.679 Q88.715 -4.679 90.863 -6.287 Q93.01 -7.894 93.01 -10.633 V-26.529 Q93.01 -29.127 90.846 -30.774 Q88.681 -32.42 85.94 -32.42 H69.071 V-46.108 H89.419 Q90.957 -46.108 91.984 -47.143 Q93.01 -48.179 93.01 -49.729 Q93.01 -51.169 91.984 -52.174 Q90.957 -53.178 89.419 -53.178 H66.482 Q64.497 -53.178 63.249 -51.866 Q62.001 -50.555 62.001 -48.707 V-29.822 Q62.001 -27.924 63.257 -26.637 Q64.513 -25.35 66.472 -25.35 H85.94 V-11.749 H65.48 Q63.942 -11.749 62.971 -10.714 Q62.001 -9.679 62.001 -8.24 Q62.001 -6.689 62.971 -5.684 Q63.942 -4.679 65.48 -4.679 H85.94 Z M63.03 -97.1 Q61.492 -97.1 60.466 -98.136 Q59.439 -99.171 59.439 -100.722 Q59.439 -102.161 60.466 -103.166 Q61.492 -104.171 63.03 -104.171 H91.882 Q93.308 -104.171 94.334 -103.135 Q95.361 -102.1 95.361 -100.661 Q95.361 -99.11 94.334 -98.105 Q93.308 -97.1 91.882 -97.1 H63.03 Z M77.4 25.449 Q66.216 25.449 56.303 21.152 Q46.39 16.854 38.973 9.467 Q31.555 2.081 27.289 -7.863 Q23.022 -17.807 23.022 -28.929 Q23.022 -40.082 27.289 -50.01 Q31.555 -59.938 38.973 -67.356 Q46.39 -74.773 56.303 -79.04 Q66.216 -83.307 77.4 -83.307 Q87.838 -83.307 96.827 -79.791 Q105.817 -76.274 112.937 -70.029 L117.837 -74.866 Q118.835 -75.865 120.336 -75.88 Q121.837 -75.896 122.978 -74.866 Q124.007 -73.725 124.007 -72.28 Q124.007 -70.835 122.978 -69.725 L118.078 -64.826 Q123.958 -58.555 127.868 -49.68 Q131.778 -40.805 131.778 -28.929 Q131.778 -17.807 127.511 -7.863 Q123.245 2.081 115.827 9.467 Q108.41 16.854 98.481 21.152 Q88.553 25.449 77.4 25.449 Z"/></g><g id="Thin-L" transform="matrix(1 0 0 1 787.282 1556)"><path d="M86.498 -6.137 Q88.501 -6.137 89.934 -7.296 Q91.367 -8.455 91.367 -10.385 V-27.18 Q91.367 -28.91 89.9 -30.107 Q88.433 -31.304 86.498 -31.304 H68.482 V-46.666 H88.861 Q89.962 -46.666 90.664 -47.378 Q91.367 -48.09 91.367 -49.205 Q91.367 -50.177 90.664 -50.856 Q89.962 -51.535 88.861 -51.535 H67.98 Q65.985 -51.535 64.799 -50.262 Q63.613 -48.989 63.613 -47.187 V-30.783 Q63.613 -28.963 64.815 -27.699 Q66.016 -26.436 67.961 -26.436 H86.498 V-11.005 H65.976 Q64.875 -11.005 64.244 -10.293 Q63.613 -9.582 63.613 -8.61 Q63.613 -7.495 64.244 -6.816 Q64.875 -6.137 65.976 -6.137 H86.498 Z M63.092 -97.938 Q61.991 -97.938 61.289 -98.649 Q60.587 -99.361 60.587 -100.476 Q60.587 -101.448 61.289 -102.127 Q61.991 -102.806 63.092 -102.806 H91.85 Q92.809 -102.806 93.511 -102.094 Q94.213 -101.383 94.213 -100.411 Q94.213 -99.296 93.511 -98.617 Q92.809 -97.938 91.85 -97.938 H63.092 Z M77.4 22.597 Q66.803 22.597 57.419 18.516 Q48.034 14.435 41.019 7.483 Q34.005 0.53 29.986 -8.916 Q25.967 -18.363 25.967 -28.836 Q25.967 -39.371 29.986 -48.786 Q34.005 -58.202 41.019 -65.216 Q48.034 -72.231 57.419 -76.25 Q66.803 -80.268 77.4 -80.268 Q87.311 -80.268 96.099 -76.783 Q104.887 -73.297 111.79 -67.176 L116.751 -72.014 Q117.378 -72.64 118.444 -72.671 Q119.511 -72.702 120.342 -72.014 Q121.031 -71.183 121.031 -70.187 Q121.031 -69.192 120.342 -68.423 L115.381 -63.461 Q121.415 -57.129 125.124 -48.409 Q128.833 -39.689 128.833 -28.836 Q128.833 -18.363 124.814 -8.916 Q120.795 0.53 113.781 7.483 Q106.766 14.435 97.35 18.516 Q87.935 22.597 77.4 22.597 Z"/></g><g id="Ultralight-L" transform="matrix(1 0 0 1 491.205 1556)"><path d="M86.833 -7.011 Q88.373 -7.011 89.377 -7.901 Q90.381 -8.791 90.381 -10.236 V-27.571 Q90.381 -28.78 89.332 -29.707 Q88.284 -30.634 86.833 -30.634 H68.128 V-47.001 H88.526 Q89.365 -47.001 89.873 -47.519 Q90.381 -48.037 90.381 -48.89 Q90.381 -49.581 89.873 -50.065 Q89.365 -50.549 88.526 -50.549 H68.879 Q66.878 -50.549 65.73 -49.299 Q64.581 -48.049 64.581 -46.276 V-31.36 Q64.581 -29.586 65.75 -28.337 Q66.919 -27.087 68.854 -27.087 H86.833 V-10.559 H66.274 Q65.435 -10.559 65.008 -10.041 Q64.581 -9.523 64.581 -8.832 Q64.581 -7.979 65.008 -7.495 Q65.435 -7.011 66.274 -7.011 H86.833 Z M63.129 -98.44 Q62.291 -98.44 61.783 -98.958 Q61.275 -99.475 61.275 -100.328 Q61.275 -101.02 61.783 -101.504 Q62.291 -101.987 63.129 -101.987 H91.832 Q92.509 -101.987 93.017 -101.47 Q93.525 -100.952 93.525 -100.26 Q93.525 -99.407 93.017 -98.924 Q92.509 -98.44 91.832 -98.44 H63.129 Z M77.4 20.885 Q67.155 20.885 58.088 16.934 Q49.02 12.984 42.248 6.292 Q35.475 -0.4 31.605 -9.548 Q27.735 -18.697 27.735 -28.78 Q27.735 -38.944 31.605 -48.052 Q35.475 -57.16 42.248 -63.932 Q49.02 -70.705 58.088 -74.575 Q67.155 -78.445 77.4 -78.445 Q86.994 -78.445 95.662 -74.978 Q104.329 -71.511 111.101 -65.464 L116.1 -70.302 Q116.503 -70.705 117.309 -70.745 Q118.116 -70.786 118.761 -70.302 Q119.244 -69.657 119.244 -68.931 Q119.244 -68.206 118.761 -67.641 L113.762 -62.642 Q119.889 -56.273 123.477 -47.646 Q127.065 -39.019 127.065 -28.78 Q127.065 -18.697 123.195 -9.548 Q119.325 -0.4 112.553 6.292 Q105.78 12.984 96.672 16.934 Q87.564 20.885 77.4 20.885 Z"/></g><g id="Bold-M" transform="matrix(1 0 0 1 2281.8 1126)"><path d="M64.438 -3.73 Q68.812 -3.73 72 -6.667 Q75.188 -9.605 75.188 -13.855 V-21.917 Q75.188 -26.167 72 -29.105 Q68.812 -32.042 64.438 -32.042 H54.312 V-38.855 H69.5 Q71.812 -38.855 73.5 -40.542 Q75.188 -42.23 75.188 -44.542 Q75.188 -46.855 73.5 -48.542 Q71.812 -50.23 69.5 -50.23 H52.5 Q49.438 -50.23 47.188 -47.98 Q44.938 -45.73 44.938 -42.667 V-28.23 Q44.938 -25.167 47.188 -22.917 Q49.438 -20.667 52.5 -20.667 H64.438 V-15.105 H50.625 Q48.312 -15.105 46.625 -13.417 Q44.938 -11.73 44.938 -9.417 Q44.938 -7.105 46.625 -5.417 Q48.312 -3.73 50.625 -3.73 H64.438 Z M48.062 -79.855 Q45.375 -79.855 43.438 -81.855 Q41.5 -83.855 41.5 -86.542 Q41.5 -89.23 43.5 -91.167 Q45.5 -93.105 48.188 -93.105 H71.938 Q74.625 -93.105 76.562 -91.167 Q78.5 -89.23 78.5 -86.542 Q78.5 -83.855 76.562 -81.855 Q74.625 -79.855 71.938 -79.855 H48.062 Z M60 21.145 Q50 21.145 41.25 17.364 Q32.5 13.583 25.969 7.114 Q19.438 0.645 15.656 -8.105 Q11.875 -16.855 11.875 -26.855 Q11.875 -36.917 15.656 -45.636 Q19.438 -54.355 25.969 -60.886 Q32.5 -67.417 41.25 -71.199 Q50 -74.98 60 -74.98 Q68.188 -74.98 75.5 -72.449 Q82.812 -69.917 89 -65.167 L92.625 -68.792 Q94.688 -70.855 97.312 -70.886 Q99.938 -70.917 102.062 -68.792 Q104.188 -66.667 104.188 -64.074 Q104.188 -61.48 102.062 -59.355 L98.438 -55.73 Q103.125 -49.667 105.625 -42.355 Q108.125 -35.042 108.125 -26.855 Q108.125 -16.855 104.344 -8.105 Q100.562 0.645 94.031 7.114 Q87.5 13.583 78.781 17.364 Q70.062 21.145 60 21.145 Z"/></g><g id="Semibold-M" transform="matrix(1 0 0 1 1985.97 1126)"><path d="M64.818 -6.067 Q68.975 -6.067 71.973 -8.923 Q74.97 -11.779 74.97 -15.866 V-23.439 Q74.97 -27.526 71.973 -30.382 Q68.975 -33.238 64.818 -33.238 H54.475 V-40.322 H69.717 Q71.867 -40.322 73.418 -41.874 Q74.97 -43.426 74.97 -45.575 Q74.97 -47.724 73.418 -49.276 Q71.867 -50.828 69.717 -50.828 H51.413 Q48.84 -50.828 46.97 -48.958 Q45.1 -47.089 45.1 -44.515 V-29.045 Q45.1 -26.472 46.97 -24.602 Q48.84 -22.733 51.413 -22.733 H64.818 V-16.572 H50.353 Q48.204 -16.572 46.652 -15.021 Q45.1 -13.469 45.1 -11.319 Q45.1 -9.17 46.652 -7.618 Q48.204 -6.067 50.353 -6.067 H64.818 Z M48.932 -79.855 Q46.571 -79.855 44.878 -81.583 Q43.185 -83.311 43.185 -85.673 Q43.185 -88.034 44.913 -89.727 Q46.641 -91.42 49.003 -91.42 H71.068 Q73.429 -91.42 75.122 -89.727 Q76.815 -88.034 76.815 -85.673 Q76.815 -83.311 75.122 -81.583 Q73.429 -79.855 71.068 -79.855 H48.932 Z M60 17.83 Q50.435 17.83 42.011 14.185 Q33.587 10.539 27.3 4.288 Q21.014 -1.963 17.368 -10.387 Q13.723 -18.811 13.723 -28.377 Q13.723 -38.004 17.368 -46.397 Q21.014 -54.79 27.3 -61.076 Q33.587 -67.363 42.011 -71.008 Q50.435 -74.654 60 -74.654 Q68.079 -74.654 75.174 -72.123 Q82.269 -69.591 88.402 -64.896 L91.973 -68.466 Q93.709 -70.203 96.035 -70.234 Q98.362 -70.265 100.16 -68.466 Q101.959 -66.667 101.959 -64.373 Q101.959 -62.078 100.16 -60.279 L96.59 -56.708 Q101.223 -50.7 103.75 -43.578 Q106.277 -36.455 106.277 -28.377 Q106.277 -18.811 102.632 -10.387 Q98.987 -1.963 92.7 4.288 Q86.413 10.539 78.02 14.185 Q69.628 17.83 60 17.83 Z"/></g><g id="Medium-M" transform="matrix(1 0 0 1 1689.91 1126)"><path d="M65.103 -7.82 Q69.098 -7.82 71.953 -10.614 Q74.807 -13.409 74.807 -17.374 V-24.58 Q74.807 -28.545 71.953 -31.34 Q69.098 -34.135 65.103 -34.135 H54.598 V-41.423 H69.88 Q71.908 -41.423 73.357 -42.873 Q74.807 -44.322 74.807 -46.349 Q74.807 -48.377 73.357 -49.826 Q71.908 -51.276 69.88 -51.276 H50.598 Q48.391 -51.276 46.807 -49.692 Q45.223 -48.108 45.223 -45.901 V-29.657 Q45.223 -27.45 46.807 -25.866 Q48.391 -24.282 50.598 -24.282 H65.103 V-17.673 H50.15 Q48.122 -17.673 46.672 -16.223 Q45.223 -14.773 45.223 -12.746 Q45.223 -10.719 46.672 -9.269 Q48.122 -7.82 50.15 -7.82 H65.103 Z M49.584 -79.855 Q47.467 -79.855 45.958 -81.379 Q44.448 -82.904 44.448 -85.021 Q44.448 -87.138 45.973 -88.647 Q47.497 -90.157 49.614 -90.157 H70.416 Q72.533 -90.157 74.042 -88.647 Q75.552 -87.138 75.552 -85.021 Q75.552 -82.904 74.042 -81.379 Q72.533 -79.855 70.416 -79.855 H49.584 Z M60 15.343 Q50.761 15.343 42.581 11.8 Q34.402 8.257 28.299 2.168 Q22.196 -3.92 18.652 -12.099 Q15.109 -20.279 15.109 -29.518 Q15.109 -38.82 18.652 -46.968 Q22.196 -55.116 28.299 -61.219 Q34.402 -67.322 42.581 -70.866 Q50.761 -74.409 60 -74.409 Q67.997 -74.409 74.929 -71.878 Q81.861 -69.347 87.954 -64.692 L91.484 -68.222 Q92.975 -69.714 95.078 -69.745 Q97.179 -69.776 98.734 -68.222 Q100.288 -66.667 100.288 -64.597 Q100.288 -62.526 98.734 -60.972 L95.204 -57.442 Q99.796 -51.474 102.344 -44.495 Q104.891 -37.515 104.891 -29.518 Q104.891 -20.279 101.348 -12.099 Q97.804 -3.92 91.701 2.168 Q85.598 8.257 77.45 11.8 Q69.302 15.343 60 15.343 Z"/></g><g id="Regular-M" transform="matrix(1 0 0 1 1394.06 1126)"><path d="M65.312 -9.105 Q69.188 -9.105 71.938 -11.855 Q74.688 -14.605 74.688 -18.48 V-25.417 Q74.688 -29.292 71.938 -32.042 Q69.188 -34.792 65.312 -34.792 H54.688 V-42.23 H70 Q71.938 -42.23 73.312 -43.605 Q74.688 -44.98 74.688 -46.917 Q74.688 -48.855 73.312 -50.23 Q71.938 -51.605 70 -51.605 H50 Q48.062 -51.605 46.688 -50.23 Q45.312 -48.855 45.312 -46.917 V-30.105 Q45.312 -28.167 46.688 -26.792 Q48.062 -25.417 50 -25.417 H65.312 V-18.48 H50 Q48.062 -18.48 46.688 -17.105 Q45.312 -15.73 45.312 -13.792 Q45.312 -11.855 46.688 -10.48 Q48.062 -9.105 50 -9.105 H65.312 Z M50.062 -79.855 Q48.125 -79.855 46.75 -81.23 Q45.375 -82.605 45.375 -84.542 Q45.375 -86.48 46.75 -87.855 Q48.125 -89.23 50.062 -89.23 H69.938 Q71.875 -89.23 73.25 -87.855 Q74.625 -86.48 74.625 -84.542 Q74.625 -82.605 73.25 -81.23 Q71.875 -79.855 69.938 -79.855 H50.062 Z M60 13.52 Q51 13.52 43 10.051 Q35 6.583 29.031 0.614 Q23.062 -5.355 19.594 -13.355 Q16.125 -21.355 16.125 -30.355 Q16.125 -39.417 19.594 -47.386 Q23.062 -55.355 29.031 -61.324 Q35 -67.292 43 -70.761 Q51 -74.23 60 -74.23 Q67.938 -74.23 74.75 -71.699 Q81.562 -69.167 87.625 -64.542 L91.125 -68.042 Q92.438 -69.355 94.375 -69.386 Q96.312 -69.417 97.688 -68.042 Q99.062 -66.667 99.062 -64.761 Q99.062 -62.855 97.688 -61.48 L94.188 -57.98 Q98.75 -52.042 101.312 -45.167 Q103.875 -38.292 103.875 -30.355 Q103.875 -21.355 100.406 -13.355 Q96.938 -5.355 90.969 0.614 Q85 6.583 77.031 10.051 Q69.062 13.52 60 13.52 Z"/></g><g id="Light-M" transform="matrix(1 0 0 1 1098.18 1126)"><path d="M66.034 -10.619 Q68.925 -10.619 70.977 -12.685 Q73.029 -14.751 73.029 -17.663 V-26.643 Q73.029 -29.509 70.964 -31.574 Q68.899 -33.639 66.034 -33.639 H53.99 V-43.047 H69.519 Q70.974 -43.047 72.001 -44.075 Q73.029 -45.104 73.029 -46.559 Q73.029 -47.989 72.001 -49.016 Q70.974 -50.042 69.519 -50.042 H51.258 Q49.457 -50.042 48.226 -48.794 Q46.995 -47.545 46.995 -45.788 V-30.898 Q46.995 -29.117 48.232 -27.88 Q49.469 -26.643 51.25 -26.643 H66.034 V-17.614 H50.481 Q49.026 -17.614 48.011 -16.586 Q46.995 -15.558 46.995 -14.127 Q46.995 -12.672 48.011 -11.646 Q49.026 -10.619 50.481 -10.619 H66.034 Z M49.774 -81.177 Q48.32 -81.177 47.292 -82.205 Q46.264 -83.233 46.264 -84.688 Q46.264 -86.119 47.292 -87.146 Q48.32 -88.172 49.774 -88.172 H70.25 Q71.68 -88.172 72.708 -87.144 Q73.736 -86.116 73.736 -84.685 Q73.736 -83.23 72.708 -82.204 Q71.68 -81.177 70.25 -81.177 H49.774 Z M60 11.26 Q51.455 11.26 43.865 7.984 Q36.274 4.707 30.618 -0.949 Q24.962 -6.605 21.685 -14.196 Q18.409 -21.786 18.409 -30.331 Q18.409 -38.914 21.685 -46.485 Q24.962 -54.057 30.618 -59.713 Q36.274 -65.369 43.865 -68.646 Q51.455 -71.922 60 -71.922 Q67.673 -71.922 74.377 -69.343 Q81.082 -66.763 86.88 -62.138 L90.476 -65.735 Q91.452 -66.711 92.885 -66.754 Q94.317 -66.797 95.404 -65.735 Q96.466 -64.648 96.466 -63.259 Q96.466 -61.869 95.404 -60.807 L91.808 -57.211 Q96.394 -51.514 98.993 -44.759 Q101.591 -38.004 101.591 -30.331 Q101.591 -21.786 98.315 -14.196 Q95.038 -6.605 89.382 -0.949 Q83.726 4.707 76.154 7.984 Q68.583 11.26 60 11.26 Z"/></g><g id="Thin-M" transform="matrix(1 0 0 1 802.565 1126)"><path d="M66.755 -12.134 Q68.663 -12.134 70.017 -13.515 Q71.37 -14.897 71.37 -16.845 V-27.869 Q71.37 -29.725 69.99 -31.105 Q68.611 -32.485 66.755 -32.485 H53.293 V-43.865 H69.038 Q70.01 -43.865 70.69 -44.546 Q71.37 -45.227 71.37 -46.2 Q71.37 -47.124 70.69 -47.802 Q70.01 -48.48 69.038 -48.48 H52.515 Q50.851 -48.48 49.764 -47.357 Q48.678 -46.235 48.678 -44.658 V-31.691 Q48.678 -30.066 49.776 -28.968 Q50.875 -27.869 52.5 -27.869 H66.755 V-16.749 H50.962 Q49.99 -16.749 49.334 -16.068 Q48.678 -15.387 48.678 -14.462 Q48.678 -13.49 49.334 -12.812 Q49.99 -12.134 50.962 -12.134 H66.755 Z M49.486 -82.499 Q48.514 -82.499 47.834 -83.18 Q47.154 -83.862 47.154 -84.834 Q47.154 -85.759 47.834 -86.437 Q48.514 -87.115 49.486 -87.115 H70.562 Q71.486 -87.115 72.166 -86.433 Q72.846 -85.752 72.846 -84.828 Q72.846 -83.855 72.166 -83.177 Q71.486 -82.499 70.562 -82.499 H49.486 Z M60 9.001 Q51.91 9.001 44.729 5.917 Q37.548 2.833 32.204 -2.511 Q26.86 -7.855 23.776 -15.036 Q20.692 -22.217 20.692 -30.307 Q20.692 -38.411 23.776 -45.585 Q26.86 -52.759 32.204 -58.103 Q37.548 -63.446 44.729 -66.53 Q51.91 -69.615 60 -69.615 Q67.409 -69.615 74.005 -66.987 Q80.601 -64.36 86.135 -59.735 L89.827 -63.427 Q90.466 -64.067 91.394 -64.122 Q92.322 -64.177 93.12 -63.427 Q93.87 -62.629 93.87 -61.756 Q93.87 -60.884 93.12 -60.134 L89.428 -56.441 Q94.038 -50.985 96.673 -44.35 Q99.308 -37.716 99.308 -30.307 Q99.308 -22.217 96.224 -15.036 Q93.139 -7.855 87.796 -2.511 Q82.452 2.833 75.278 5.917 Q68.104 9.001 60 9.001 Z"/></g><g id="Ultralight-M" transform="matrix(1 0 0 1 506.415 1126)"><path d="M67.188 -13.042 Q68.506 -13.042 69.441 -14.014 Q70.375 -14.985 70.375 -16.355 V-28.605 Q70.375 -29.855 69.406 -30.824 Q68.438 -31.792 67.188 -31.792 H52.875 V-44.355 H68.75 Q69.431 -44.355 69.903 -44.828 Q70.375 -45.301 70.375 -45.984 Q70.375 -46.605 69.903 -47.074 Q69.431 -47.542 68.75 -47.542 H53.27 Q51.688 -47.542 50.688 -46.496 Q49.688 -45.449 49.688 -43.98 V-32.167 Q49.688 -30.636 50.703 -29.621 Q51.719 -28.605 53.25 -28.605 H67.188 V-16.23 H51.25 Q50.569 -16.23 50.128 -15.757 Q49.688 -15.284 49.688 -14.663 Q49.688 -13.98 50.128 -13.511 Q50.569 -13.042 51.25 -13.042 H67.188 Z M49.312 -83.292 Q48.631 -83.292 48.159 -83.766 Q47.688 -84.239 47.688 -84.922 Q47.688 -85.542 48.159 -86.011 Q48.631 -86.48 49.312 -86.48 H70.75 Q71.369 -86.48 71.841 -86.007 Q72.312 -85.534 72.312 -84.913 Q72.312 -84.23 71.841 -83.761 Q71.369 -83.292 70.75 -83.292 H49.312 Z M60 7.645 Q52.184 7.645 45.248 4.676 Q38.312 1.708 33.156 -3.449 Q28 -8.605 25.031 -15.54 Q22.062 -22.476 22.062 -30.292 Q22.062 -38.109 25.031 -45.044 Q28 -51.98 33.156 -57.136 Q38.312 -62.292 45.248 -65.261 Q52.184 -68.23 60 -68.23 Q67.25 -68.23 73.781 -65.574 Q80.312 -62.917 85.688 -58.292 L89.438 -62.042 Q89.875 -62.48 90.5 -62.542 Q91.125 -62.605 91.75 -62.042 Q92.312 -61.417 92.312 -60.855 Q92.312 -60.292 91.75 -59.73 L88 -55.98 Q92.625 -50.667 95.281 -44.105 Q97.938 -37.542 97.938 -30.292 Q97.938 -22.476 94.969 -15.54 Q92 -8.605 86.844 -3.449 Q81.688 1.708 74.752 4.676 Q67.817 7.645 60 7.645 Z"/></g><g id="Bold-S" transform="matrix(1 0 0 1 2294.23 696)"><path d="M50.471 -10.968 Q53.603 -10.968 55.871 -13.054 Q58.139 -15.14 58.139 -18.168 V-24.332 Q58.139 -27.36 55.856 -29.446 Q53.573 -31.532 50.447 -31.532 H43.247 V-36.709 H54.021 Q55.674 -36.709 56.907 -37.921 Q58.139 -39.133 58.139 -40.782 Q58.139 -42.43 56.923 -43.662 Q55.707 -44.895 54.052 -44.895 H42.239 Q39.992 -44.895 38.316 -43.233 Q36.639 -41.572 36.639 -39.323 V-28.918 Q36.639 -26.669 38.301 -25.008 Q39.963 -23.346 42.212 -23.346 H50.447 V-19.154 H40.758 Q39.105 -19.154 37.872 -17.942 Q36.639 -16.73 36.639 -15.082 Q36.639 -13.434 37.859 -12.201 Q39.079 -10.968 40.738 -10.968 H50.471 Z M37.527 -68.072 Q35.574 -68.072 34.159 -69.531 Q32.744 -70.989 32.744 -72.933 Q32.744 -74.877 34.208 -76.307 Q35.673 -77.737 37.625 -77.737 H57.153 Q59.106 -77.737 60.521 -76.328 Q61.937 -74.919 61.937 -72.975 Q61.937 -71.031 60.521 -69.551 Q59.106 -68.072 57.153 -68.072 H37.527 Z M47.34 7.672 Q39.845 7.672 33.392 4.885 Q26.941 2.098 22.125 -2.668 Q17.31 -7.434 14.523 -13.886 Q11.736 -20.338 11.736 -27.833 Q11.736 -35.378 14.523 -41.805 Q17.31 -48.233 22.125 -53.048 Q26.941 -57.863 33.392 -60.65 Q39.845 -63.437 47.297 -63.437 Q53.39 -63.437 58.822 -61.489 Q64.254 -59.541 68.742 -56.089 L71.531 -58.878 Q73.13 -60.478 74.906 -60.453 Q76.681 -60.429 78.358 -58.752 Q80.034 -57.075 80.034 -55.325 Q80.034 -53.574 78.358 -51.898 L75.695 -49.136 Q79.097 -44.846 81.02 -39.391 Q82.944 -33.936 82.944 -27.819 Q82.944 -20.338 80.157 -13.886 Q77.37 -7.434 72.555 -2.668 Q67.739 2.098 61.312 4.885 Q54.885 7.672 47.34 7.672 Z"/></g><g id="Semibold-S" transform="matrix(1 0 0 1 1998.1 696)"><path d="M50.771 -12.812 Q53.731 -12.812 55.85 -14.834 Q57.968 -16.855 57.968 -19.754 V-25.532 Q57.968 -28.432 55.835 -30.453 Q53.702 -32.475 50.747 -32.475 H43.376 V-37.867 H54.192 Q55.717 -37.867 56.842 -38.972 Q57.968 -40.077 57.968 -41.596 Q57.968 -43.116 56.859 -44.241 Q55.749 -45.367 54.223 -45.367 H41.381 Q39.521 -45.367 38.144 -44.005 Q36.768 -42.644 36.768 -40.781 V-29.561 Q36.768 -27.698 38.13 -26.337 Q39.491 -24.975 41.354 -24.975 H50.747 V-20.312 H40.544 Q39.019 -20.312 37.893 -19.207 Q36.768 -18.102 36.768 -16.583 Q36.768 -15.063 37.88 -13.938 Q38.993 -12.812 40.524 -12.812 H50.771 Z M38.213 -68.072 Q36.517 -68.072 35.295 -69.316 Q34.073 -70.561 34.073 -72.247 Q34.073 -73.934 35.323 -75.171 Q36.573 -76.408 38.269 -76.408 H56.467 Q58.163 -76.408 59.385 -75.192 Q60.607 -73.976 60.607 -72.289 Q60.607 -70.602 59.385 -69.337 Q58.163 -68.072 56.467 -68.072 H38.213 Z M47.34 5.056 Q40.188 5.056 33.993 2.377 Q27.798 -0.303 23.176 -4.897 Q18.554 -9.492 15.874 -15.686 Q13.194 -21.881 13.194 -29.034 Q13.194 -36.235 15.874 -42.406 Q18.554 -48.576 23.176 -53.198 Q27.798 -57.82 33.993 -60.5 Q40.188 -63.179 47.297 -63.179 Q53.304 -63.179 58.565 -61.232 Q63.825 -59.284 68.27 -55.875 L71.016 -58.621 Q72.359 -59.963 73.898 -59.939 Q75.437 -59.914 76.857 -58.495 Q78.276 -57.075 78.276 -55.561 Q78.276 -54.046 76.857 -52.627 L74.237 -49.908 Q77.597 -45.661 79.541 -40.356 Q81.486 -35.051 81.486 -29.019 Q81.486 -21.881 78.806 -15.686 Q76.126 -9.492 71.504 -4.897 Q66.882 -0.303 60.712 2.377 Q54.542 5.056 47.34 5.056 Z"/></g><g id="Medium-S" transform="matrix(1 0 0 1 1701.85 696)"><path d="M50.997 -14.195 Q53.828 -14.195 55.834 -16.168 Q57.839 -18.142 57.839 -20.944 V-26.433 Q57.839 -29.236 55.819 -31.209 Q53.798 -33.182 50.972 -33.182 H43.472 V-38.735 H54.321 Q55.749 -38.735 56.794 -39.76 Q57.839 -40.784 57.839 -42.207 Q57.839 -43.63 56.81 -44.676 Q55.782 -45.721 54.352 -45.721 H40.738 Q39.167 -45.721 38.016 -44.584 Q36.864 -43.448 36.864 -41.874 V-30.044 Q36.864 -28.47 38.001 -27.334 Q39.137 -26.197 40.711 -26.197 H50.972 V-21.18 H40.383 Q38.955 -21.18 37.909 -20.156 Q36.864 -19.131 36.864 -17.708 Q36.864 -16.285 37.896 -15.24 Q38.929 -14.195 40.363 -14.195 H50.997 Z M38.727 -68.072 Q37.225 -68.072 36.147 -69.156 Q35.07 -70.239 35.07 -71.733 Q35.07 -73.226 36.159 -74.319 Q37.248 -75.411 38.751 -75.411 H55.953 Q57.455 -75.411 58.533 -74.34 Q59.61 -73.268 59.61 -71.774 Q59.61 -70.28 58.533 -69.176 Q57.455 -68.072 55.953 -68.072 H38.727 Z M47.34 3.094 Q40.445 3.094 34.443 0.495 Q28.441 -2.104 23.964 -6.57 Q19.486 -11.036 16.887 -17.037 Q14.288 -23.039 14.288 -29.934 Q14.288 -36.879 16.887 -42.856 Q19.486 -48.833 23.964 -53.311 Q28.441 -57.788 34.443 -60.387 Q40.445 -62.987 47.297 -62.987 Q53.24 -62.987 58.372 -61.039 Q63.504 -59.091 67.916 -55.714 L70.63 -58.428 Q71.78 -59.578 73.142 -59.553 Q74.505 -59.528 75.731 -58.302 Q76.958 -57.075 76.958 -55.738 Q76.958 -54.4 75.731 -53.173 L73.143 -50.487 Q76.471 -46.272 78.432 -41.08 Q80.392 -35.887 80.392 -29.92 Q80.392 -23.039 77.793 -17.037 Q75.194 -11.036 70.716 -6.57 Q66.239 -2.104 60.262 0.495 Q54.284 3.094 47.34 3.094 Z"/></g><g id="Regular-S" transform="matrix(1 0 0 1 1405.73 696)"><path d="M51.162 -15.209 Q53.899 -15.209 55.822 -17.147 Q57.745 -19.085 57.745 -21.817 V-27.093 Q57.745 -29.825 55.807 -31.763 Q53.869 -33.701 51.137 -33.701 H43.543 V-39.372 H54.415 Q55.772 -39.372 56.759 -40.338 Q57.745 -41.303 57.745 -42.655 Q57.745 -44.008 56.775 -44.994 Q55.805 -45.98 54.446 -45.98 H40.266 Q38.908 -45.98 37.921 -45.009 Q36.935 -44.037 36.935 -42.676 V-30.397 Q36.935 -29.036 37.907 -28.065 Q38.878 -27.093 40.239 -27.093 H51.137 V-21.817 H40.265 Q38.908 -21.817 37.921 -20.852 Q36.935 -19.886 36.935 -18.534 Q36.935 -17.182 37.908 -16.195 Q38.882 -15.209 40.245 -15.209 H51.162 Z M39.105 -68.072 Q37.744 -68.072 36.772 -69.038 Q35.801 -70.003 35.801 -71.355 Q35.801 -72.707 36.772 -73.694 Q37.744 -74.68 39.105 -74.68 H55.575 Q56.936 -74.68 57.908 -73.715 Q58.879 -72.749 58.879 -71.397 Q58.879 -70.045 57.908 -69.058 Q56.936 -68.072 55.575 -68.072 H39.105 Z M47.34 1.656 Q40.634 1.656 34.773 -0.885 Q28.913 -3.425 24.542 -7.796 Q20.17 -12.168 17.63 -18.028 Q15.09 -23.888 15.09 -30.595 Q15.09 -37.35 17.63 -43.186 Q20.17 -49.022 24.542 -53.393 Q28.913 -57.764 34.773 -60.305 Q40.634 -62.845 47.297 -62.845 Q53.192 -62.845 58.23 -60.897 Q63.268 -58.949 67.657 -55.596 L70.347 -58.287 Q71.355 -59.294 72.588 -59.27 Q73.821 -59.245 74.906 -58.16 Q75.991 -57.075 75.991 -55.867 Q75.991 -54.659 74.906 -53.574 L72.341 -50.911 Q75.645 -46.72 77.618 -41.61 Q79.59 -36.501 79.59 -30.58 Q79.59 -23.888 77.05 -18.028 Q74.51 -12.168 70.138 -7.796 Q65.767 -3.425 59.931 -0.885 Q54.096 1.656 47.34 1.656 Z"/></g><g id="Light-S" transform="matrix(1 0 0 1 1109.75 696)"><path d="M51.731 -16.404 Q53.692 -16.404 55.064 -17.802 Q56.436 -19.2 56.436 -21.172 V-28.061 Q56.436 -29.996 55.039 -31.393 Q53.641 -32.791 51.706 -32.791 H42.993 V-40.017 H54.036 Q55.012 -40.017 55.724 -40.709 Q56.436 -41.401 56.436 -42.372 Q56.436 -43.325 55.74 -44.036 Q55.045 -44.747 54.067 -44.747 H41.259 Q40.008 -44.747 39.135 -43.875 Q38.263 -43.003 38.263 -41.785 V-31.023 Q38.263 -29.786 39.125 -28.923 Q39.988 -28.061 41.225 -28.061 H51.706 V-21.134 H40.644 Q39.668 -21.134 38.965 -20.442 Q38.263 -19.751 38.263 -18.798 Q38.263 -17.827 38.952 -17.115 Q39.642 -16.404 40.625 -16.404 H51.731 Z M38.877 -69.115 Q37.897 -69.115 37.2 -69.807 Q36.503 -70.499 36.503 -71.47 Q36.503 -72.423 37.2 -73.134 Q37.897 -73.845 38.877 -73.845 H55.822 Q56.783 -73.845 57.48 -73.154 Q58.177 -72.462 58.177 -71.509 Q58.177 -70.538 57.48 -69.827 Q56.783 -69.115 55.822 -69.115 H38.877 Z M47.34 -0.127 Q40.993 -0.127 35.455 -2.516 Q29.918 -4.904 25.793 -9.029 Q21.669 -13.154 19.28 -18.691 Q16.892 -24.228 16.892 -30.576 Q16.892 -36.953 19.28 -42.475 Q21.669 -47.997 25.793 -52.122 Q29.918 -56.247 35.455 -58.636 Q40.993 -61.024 47.297 -61.024 Q52.984 -61.024 57.936 -59.038 Q62.889 -57.053 67.069 -53.699 L69.835 -56.466 Q70.578 -57.208 71.412 -57.193 Q72.246 -57.178 73.104 -56.339 Q73.942 -55.482 73.942 -54.682 Q73.942 -53.881 73.104 -53.043 L70.464 -50.304 Q73.786 -46.303 75.787 -41.288 Q77.788 -36.273 77.788 -30.561 Q77.788 -24.228 75.4 -18.691 Q73.011 -13.154 68.887 -9.029 Q64.762 -4.904 59.24 -2.516 Q53.718 -0.127 47.34 -0.127 Z"/></g><g id="Thin-S" transform="matrix(1 0 0 1 814.015 696)"><path d="M52.3 -17.599 Q53.485 -17.599 54.306 -18.457 Q55.128 -19.316 55.128 -20.527 V-29.028 Q55.128 -30.167 54.271 -31.024 Q53.414 -31.881 52.275 -31.881 H42.443 V-40.662 H53.656 Q54.251 -40.662 54.689 -41.08 Q55.128 -41.498 55.128 -42.089 Q55.128 -42.642 54.706 -43.078 Q54.284 -43.514 53.688 -43.514 H42.251 Q41.108 -43.514 40.349 -42.742 Q39.59 -41.97 39.59 -40.893 V-31.649 Q39.59 -30.535 40.344 -29.781 Q41.097 -29.028 42.212 -29.028 H52.275 V-20.451 H41.024 Q40.429 -20.451 40.009 -20.033 Q39.59 -19.615 39.59 -19.062 Q39.59 -18.471 39.996 -18.035 Q40.403 -17.599 41.004 -17.599 H52.3 Z M38.65 -70.158 Q38.051 -70.158 37.628 -70.577 Q37.204 -70.995 37.204 -71.586 Q37.204 -72.139 37.628 -72.575 Q38.051 -73.011 38.65 -73.011 H56.068 Q56.629 -73.011 57.052 -72.593 Q57.476 -72.175 57.476 -71.622 Q57.476 -71.031 57.052 -70.595 Q56.629 -70.158 56.068 -70.158 H38.65 Z M47.34 -1.91 Q41.352 -1.91 36.138 -4.147 Q30.923 -6.384 27.045 -10.262 Q23.167 -14.14 20.93 -19.354 Q18.693 -24.569 18.693 -30.557 Q18.693 -36.556 20.93 -41.765 Q23.167 -46.973 27.045 -50.852 Q30.923 -54.73 36.138 -56.967 Q41.352 -59.203 47.297 -59.203 Q52.775 -59.203 57.642 -57.18 Q62.509 -55.156 66.481 -51.803 L69.323 -54.645 Q69.8 -55.122 70.236 -55.116 Q70.672 -55.111 71.302 -54.519 Q71.894 -53.889 71.894 -53.497 Q71.894 -53.104 71.302 -52.512 L68.586 -49.697 Q71.928 -45.885 73.957 -40.965 Q75.987 -36.046 75.987 -30.542 Q75.987 -24.569 73.75 -19.354 Q71.513 -14.14 67.635 -10.262 Q63.757 -6.384 58.548 -4.147 Q53.34 -1.91 47.34 -1.91 Z"/></g><g id="Ultralight-S" transform="matrix(1 0 0 1 517.792 696)"><path d="M52.641 -18.316 Q53.361 -18.316 53.852 -18.85 Q54.342 -19.385 54.342 -20.14 V-29.608 Q54.342 -30.269 53.81 -30.802 Q53.277 -31.334 52.616 -31.334 H42.113 V-41.049 H53.429 Q53.795 -41.049 54.069 -41.303 Q54.342 -41.557 54.342 -41.919 Q54.342 -42.232 54.085 -42.504 Q53.828 -42.775 53.46 -42.775 H42.846 Q41.768 -42.775 41.077 -42.062 Q40.387 -41.35 40.387 -40.358 V-32.025 Q40.387 -30.984 41.075 -30.296 Q41.763 -29.608 42.803 -29.608 H52.616 V-20.042 H41.251 Q40.885 -20.042 40.636 -19.788 Q40.387 -19.534 40.387 -19.221 Q40.387 -18.858 40.623 -18.587 Q40.859 -18.316 41.231 -18.316 H52.641 Z M38.513 -70.784 Q38.143 -70.784 37.884 -71.038 Q37.625 -71.292 37.625 -71.655 Q37.625 -71.968 37.884 -72.239 Q38.143 -72.51 38.513 -72.51 H56.216 Q56.537 -72.51 56.796 -72.256 Q57.055 -72.002 57.055 -71.689 Q57.055 -71.327 56.796 -71.056 Q56.537 -70.784 56.216 -70.784 H38.513 Z M47.34 -2.98 Q41.567 -2.98 36.547 -5.125 Q31.527 -7.271 27.796 -11.001 Q24.066 -14.732 21.92 -19.752 Q19.774 -24.773 19.774 -30.545 Q19.774 -36.318 21.92 -41.338 Q24.066 -46.359 27.796 -50.089 Q31.527 -53.819 36.547 -55.965 Q41.567 -58.111 47.297 -58.111 Q52.65 -58.111 57.466 -56.065 Q62.282 -54.018 66.128 -50.665 L69.016 -53.553 Q69.333 -53.87 69.531 -53.87 Q69.728 -53.87 70.221 -53.426 Q70.665 -52.933 70.665 -52.785 Q70.665 -52.637 70.221 -52.193 L67.46 -49.333 Q70.813 -45.635 72.859 -40.772 Q74.906 -35.909 74.906 -30.531 Q74.906 -24.773 72.76 -19.752 Q70.614 -14.732 66.884 -11.001 Q63.153 -7.271 58.133 -5.125 Q53.113 -2.98 47.34 -2.98 Z"/></g></g></svg>