<svg xmlns="http://www.w3.org/2000/svg" version="1.1" width="3300" height="2000"><g id="Notes"><style>
    text {
      font-family: monospace;
      text-anchor: middle;
    }
    text.emphasis {
      font-weight:bold;
    }
    text.lanchor {
      text-anchor: start;
    }
  </style><rect height="2200" id="artboard" fill="white" width="3300" x="0" y="0"/><line id="" style="fill:none;stroke:black;stroke-width:0.5;" x1="263" x2="3036" y1="292" y2="292"/><text class="lanchor emphasis" transform="matrix(1 0 0 1 263 322)">Weight/Scale Variations</text><text transform="matrix(1 0 0 1 559.711 322)">Ultralight</text><text transform="matrix(1 0 0 1 856.422 322)">Thin</text><text transform="matrix(1 0 0 1 1153.13 322)">Light</text><text transform="matrix(1 0 0 1 1449.84 322)">Regular</text><text transform="matrix(1 0 0 1 1746.56 322)">Medium</text><text transform="matrix(1 0 0 1 2043.27 322)">Semibold</text><text transform="matrix(1 0 0 1 2339.98 322)">Bold</text><text transform="matrix(1 0 0 1 2636.69 322)">Heavy</text><text transform="matrix(1 0 0 1 2933.4 322)">Black</text><text id="template-version" style="text-anchor: end;" transform="matrix(1 0 0 1 3036 1933)">Template v.1.0</text><text class="lanchor" transform="matrix(1 0 0 1 263 726)">Small</text><text class="lanchor" transform="matrix(1 0 0 1 263 1156)">Medium</text><text class="lanchor" transform="matrix(1 0 0 1 263 1586)">Large</text></g><g id="Guides"><g id="H-reference" style="fill:#27AAE1;stroke:none;" transform="matrix(1 0 0 1 339 696)"><path d="M 54.9316 0 L 57.666 0 L 30.5664 -70.459 L 28.0762 -70.459 L 0.976562 0 L 3.66211 0 L 12.9395 -24.4629 L 45.7031 -24.4629 Z M 29.1992 -67.0898 L 29.4434 -67.0898 L 44.8242 -26.709 L 13.8184 -26.709 Z"/></g><line id="Baseline-S" style="fill:none;stroke:#27AAE1;opacity:1;stroke-width:0.577;" x1="263" x2="3036" y1="696" y2="696"/><line id="Capline-S" style="fill:none;stroke:#27AAE1;opacity:1;stroke-width:0.577;" x1="263" x2="3036" y1="625.541" y2="625.541"/><g id="H-reference" style="fill:#27AAE1;stroke:none;" transform="matrix(1 0 0 1 339 1126)"><path d="M 54.9316 0 L 57.666 0 L 30.5664 -70.459 L 28.0762 -70.459 L 0.976562 0 L 3.66211 0 L 12.9395 -24.4629 L 45.7031 -24.4629 Z M 29.1992 -67.0898 L 29.4434 -67.0898 L 44.8242 -26.709 L 13.8184 -26.709 Z"/></g><line id="Baseline-M" style="fill:none;stroke:#27AAE1;opacity:1;stroke-width:0.577;" x1="263" x2="3036" y1="1126" y2="1126"/><line id="Capline-M" style="fill:none;stroke:#27AAE1;opacity:1;stroke-width:0.577;" x1="263" x2="3036" y1="1055.54" y2="1055.54"/><g id="H-reference" style="fill:#27AAE1;stroke:none;" transform="matrix(1 0 0 1 339 1556)"><path d="M 54.9316 0 L 57.666 0 L 30.5664 -70.459 L 28.0762 -70.459 L 0.976562 0 L 3.66211 0 L 12.9395 -24.4629 L 45.7031 -24.4629 Z M 29.1992 -67.0898 L 29.4434 -67.0898 L 44.8242 -26.709 L 13.8184 -26.709 Z"/></g><line id="Baseline-L" style="fill:none;stroke:#27AAE1;opacity:1;stroke-width:0.577;" x1="263" x2="3036" y1="1556" y2="1556"/><line id="Capline-L" style="fill:none;stroke:#27AAE1;opacity:1;stroke-width:0.577;" x1="263" x2="3036" y1="1485.54" y2="1485.54"/><rect height="119.336" id="left-margin" style="fill:darkred;stroke:none;opacity:0.4;" width="12.4512" x="1394.06" y="1030.79"/><rect height="119.336" id="right-margin" style="fill:darkgreen;stroke:none;opacity:0.4;" width="12.4512" x="1502.5112" y="1030.79"/><rect x="1406.5112" y="1045" width="96" height="96" fill="none" stroke="blue" stroke-dasharray="5"/><rect x="1394.06" y="1030.79" width="120.9024" height="119.336" fill="none" stroke="blue"/></g><g id="Symbols"><g id="Bold-L" transform="matrix(1 0 0 1 2266 1556)"><path d="M84.576 1.938 Q88.563 1.938 91.851 -0.246 Q95.138 -2.43 95.138 -6.293 V-22.493 Q95.138 -26.271 91.851 -28.614 Q88.563 -30.957 84.576 -30.957 H69.338 V-42.325 H89.494 Q91.88 -42.325 93.509 -43.893 Q95.138 -45.461 95.138 -47.876 Q95.138 -50.291 93.577 -51.911 Q92.017 -53.532 89.494 -53.532 H67.403 Q64.298 -53.532 62.182 -51.369 Q60.066 -49.206 60.066 -46.195 V-27.087 Q60.066 -23.983 62.182 -21.866 Q64.298 -19.75 67.403 -19.75 H84.576 V-9.269 H65.629 Q63.242 -9.269 61.654 -7.614 Q60.066 -5.96 60.066 -3.637 Q60.066 -1.177 61.585 0.381 Q63.105 1.938 65.689 1.938 H84.576 Z M77.41 20.804 Q96.992 20.804 110.497 7.37 Q124.001 -6.063 124.001 -25.645 Q124.001 -45.227 110.487 -58.732 Q96.972 -72.237 77.39 -72.237 Q57.808 -72.237 44.303 -58.722 Q30.799 -45.208 30.799 -25.626 Q30.799 -6.044 44.313 7.38 Q57.828 20.804 77.41 20.804 Z M61.053 -96.263 Q58.191 -96.263 56.387 -98.186 Q54.583 -100.109 54.583 -102.862 Q54.583 -105.616 56.498 -107.43 Q58.413 -109.244 61.214 -109.244 H93.828 Q96.597 -109.244 98.407 -107.426 Q100.217 -105.607 100.217 -102.846 Q100.217 -100.052 98.407 -98.158 Q96.597 -96.263 93.828 -96.263 H61.053 Z M77.358 35.72 Q64.578 35.72 53.416 30.891 Q42.255 26.063 33.925 17.743 Q25.595 9.423 20.819 -1.72 Q16.044 -12.863 16.044 -25.634 Q16.044 -38.337 20.837 -49.513 Q25.63 -60.688 33.965 -69.077 Q42.3 -77.465 53.449 -82.309 Q64.599 -87.152 77.4 -87.152 Q88.688 -87.152 98.362 -83.524 Q108.038 -79.896 115.536 -73.366 L120.534 -78.364 Q122.55 -80.38 125.13 -80.38 Q127.71 -80.38 129.806 -78.284 Q131.822 -76.107 131.822 -73.567 Q131.822 -71.027 129.806 -68.931 L124.969 -64.094 Q130.854 -57.563 134.886 -48.211 Q138.917 -38.858 138.917 -25.636 Q138.917 -12.831 134.095 -1.672 Q129.273 9.488 120.899 17.78 Q112.525 26.073 101.332 30.897 Q90.139 35.72 77.358 35.72 Z"/></g><g id="Semibold-L" transform="matrix(1 0 0 1 1970.27 1556)"><path d="M84.926 -0.305 Q88.72 -0.305 91.824 -2.435 Q94.927 -4.564 94.927 -8.288 V-23.965 Q94.927 -27.603 91.824 -29.841 Q88.72 -32.079 84.926 -32.079 H69.478 V-43.727 H89.704 Q91.912 -43.727 93.42 -45.204 Q94.927 -46.681 94.927 -48.893 Q94.927 -51.104 93.458 -52.598 Q91.989 -54.093 89.704 -54.093 H66.351 Q63.738 -54.093 61.972 -52.28 Q60.206 -50.468 60.206 -47.948 V-27.858 Q60.206 -25.245 61.972 -23.479 Q63.738 -21.713 66.351 -21.713 H84.926 V-10.671 H65.348 Q63.141 -10.671 61.673 -9.137 Q60.206 -7.604 60.206 -5.46 Q60.206 -3.238 61.634 -1.772 Q63.063 -0.305 65.382 -0.305 H84.926 Z M77.422 20.033 Q97.202 20.033 110.917 6.342 Q124.632 -7.349 124.632 -27.13 Q124.632 -46.91 110.895 -60.625 Q97.159 -74.34 77.378 -74.34 Q57.598 -74.34 43.883 -60.603 Q30.168 -46.866 30.168 -27.086 Q30.168 -7.306 43.905 6.364 Q57.641 20.033 77.422 20.033 Z M61.886 -96.263 Q59.409 -96.263 57.802 -97.941 Q56.195 -99.618 56.195 -102.021 Q56.195 -104.424 57.865 -106.028 Q59.534 -107.631 61.977 -107.631 H92.995 Q95.379 -107.631 96.992 -106.01 Q98.605 -104.389 98.605 -102.005 Q98.605 -99.562 96.992 -97.912 Q95.379 -96.263 92.995 -96.263 H61.886 Z M77.375 32.495 Q65.031 32.495 54.181 27.796 Q43.331 23.096 35.234 14.997 Q27.137 6.899 22.467 -3.938 Q17.797 -14.776 17.797 -27.117 Q17.797 -39.389 22.478 -50.252 Q27.16 -61.115 35.262 -69.258 Q43.364 -77.4 54.202 -82.101 Q65.04 -86.802 77.4 -86.802 Q88.547 -86.802 98.047 -83.174 Q107.547 -79.546 114.975 -73.085 L119.903 -78.014 Q121.639 -79.749 123.903 -79.749 Q126.168 -79.749 127.983 -77.968 Q129.719 -76.107 129.719 -73.883 Q129.719 -71.658 127.983 -69.843 L123.146 -65.005 Q128.962 -58.615 133.028 -49.402 Q137.094 -40.19 137.094 -27.108 Q137.094 -14.749 132.405 -3.908 Q127.717 6.933 119.586 15.014 Q111.455 23.095 100.587 27.795 Q89.718 32.495 77.375 32.495 Z"/></g><g id="Medium-L" transform="matrix(1 0 0 1 1674.31 1556)"><path d="M85.189 -1.988 Q88.838 -1.988 91.804 -4.076 Q94.769 -6.165 94.769 -9.784 V-25.068 Q94.769 -28.602 91.804 -30.761 Q88.838 -32.92 85.189 -32.92 H69.583 V-44.779 H89.862 Q91.935 -44.779 93.352 -46.188 Q94.769 -47.596 94.769 -49.655 Q94.769 -51.714 93.369 -53.114 Q91.968 -54.513 89.862 -54.513 H65.562 Q63.317 -54.513 61.814 -52.964 Q60.311 -51.415 60.311 -49.262 V-28.437 Q60.311 -26.191 61.814 -24.688 Q63.317 -23.185 65.562 -23.185 H85.189 V-11.722 H65.138 Q63.064 -11.722 61.688 -10.28 Q60.311 -8.837 60.311 -6.827 Q60.311 -4.784 61.671 -3.386 Q63.031 -1.988 65.152 -1.988 H85.189 Z M77.431 19.455 Q97.36 19.455 111.233 5.57 Q125.105 -8.314 125.105 -28.243 Q125.105 -48.172 111.202 -62.045 Q97.298 -75.918 77.369 -75.918 Q57.44 -75.918 43.567 -62.014 Q29.695 -48.11 29.695 -28.181 Q29.695 -8.252 43.598 5.601 Q57.502 19.455 77.431 19.455 Z M62.51 -96.263 Q60.323 -96.263 58.864 -97.757 Q57.405 -99.25 57.405 -101.39 Q57.405 -103.53 58.89 -104.976 Q60.376 -106.422 62.549 -106.422 H92.37 Q94.465 -106.422 95.93 -104.949 Q97.395 -103.476 97.395 -101.374 Q97.395 -99.194 95.93 -97.728 Q94.465 -96.263 92.37 -96.263 H62.51 Z M77.387 30.076 Q65.371 30.076 54.755 25.473 Q44.138 20.87 36.216 12.938 Q28.294 5.006 23.703 -5.602 Q19.112 -16.211 19.112 -28.228 Q19.112 -40.178 23.709 -50.807 Q28.307 -61.436 36.234 -69.394 Q44.162 -77.352 54.766 -81.945 Q65.37 -86.539 77.4 -86.539 Q88.442 -86.539 97.81 -82.911 Q107.179 -79.283 114.554 -72.875 L119.43 -77.751 Q120.955 -79.276 122.983 -79.276 Q125.011 -79.276 126.616 -77.732 Q128.141 -76.107 128.141 -74.119 Q128.141 -72.132 126.616 -70.526 L121.779 -65.689 Q127.542 -59.403 131.634 -50.296 Q135.727 -41.189 135.727 -28.212 Q135.727 -16.187 131.138 -5.585 Q126.549 5.016 118.601 12.939 Q110.652 20.861 100.028 25.469 Q89.403 30.076 77.387 30.076 Z"/></g><g id="Regular-L" transform="matrix(1 0 0 1 1378.56 1556)"><path d="M85.382 -3.222 Q88.924 -3.222 91.789 -5.28 Q94.654 -7.339 94.654 -10.881 V-25.877 Q94.654 -29.334 91.789 -31.436 Q88.924 -33.537 85.382 -33.537 H69.66 V-45.55 H89.978 Q91.953 -45.55 93.303 -46.909 Q94.654 -48.267 94.654 -50.214 Q94.654 -52.161 93.303 -53.492 Q91.953 -54.822 89.978 -54.822 H64.984 Q63.008 -54.822 61.698 -53.465 Q60.388 -52.109 60.388 -50.226 V-28.861 Q60.388 -26.885 61.698 -25.575 Q63.008 -24.265 64.984 -24.265 H85.382 V-12.494 H64.984 Q63.008 -12.494 61.698 -11.117 Q60.388 -9.741 60.388 -7.83 Q60.388 -5.918 61.698 -4.57 Q63.008 -3.222 64.984 -3.222 H85.382 Z M77.437 19.031 Q97.476 19.031 111.464 5.005 Q125.453 -9.021 125.453 -29.059 Q125.453 -49.097 111.427 -63.086 Q97.401 -77.074 77.363 -77.074 Q57.324 -77.074 43.336 -63.049 Q29.348 -49.023 29.348 -28.984 Q29.348 -8.946 43.373 5.042 Q57.399 19.031 77.437 19.031 Z M62.968 -96.263 Q60.993 -96.263 59.642 -97.622 Q58.292 -98.98 58.292 -100.927 Q58.292 -102.874 59.642 -104.205 Q60.993 -105.535 62.968 -105.535 H91.913 Q93.795 -105.535 95.152 -104.17 Q96.508 -102.806 96.508 -100.911 Q96.508 -98.924 95.152 -97.593 Q93.795 -96.263 91.913 -96.263 H62.968 Z M77.396 28.303 Q65.62 28.303 55.175 23.77 Q44.73 19.238 36.936 11.428 Q29.142 3.618 24.609 -6.822 Q20.076 -17.263 20.076 -29.044 Q20.076 -40.756 24.612 -51.213 Q29.148 -61.67 36.948 -69.493 Q44.747 -77.316 55.18 -81.831 Q65.613 -86.346 77.4 -86.346 Q88.365 -86.346 97.637 -82.718 Q106.909 -79.09 114.246 -72.721 L119.083 -77.558 Q120.454 -78.929 122.308 -78.929 Q124.163 -78.929 125.614 -77.558 Q126.984 -76.107 126.984 -74.293 Q126.984 -72.479 125.614 -71.027 L120.776 -66.19 Q126.501 -59.982 130.613 -50.952 Q134.724 -41.922 134.724 -29.022 Q134.724 -17.242 130.209 -6.815 Q125.694 3.611 117.879 11.417 Q110.064 19.223 99.618 23.763 Q89.171 28.303 77.396 28.303 Z"/></g><g id="Light-L" transform="matrix(1 0 0 1 1082.77 1556)"><path d="M85.94 -4.679 Q88.712 -4.679 90.861 -6.288 Q93.01 -7.897 93.01 -10.633 V-26.529 Q93.01 -29.119 90.844 -30.77 Q88.678 -32.42 85.94 -32.42 H69.071 V-46.108 H89.419 Q90.956 -46.108 91.983 -47.144 Q93.01 -48.181 93.01 -49.675 Q93.01 -51.169 91.983 -52.174 Q90.956 -53.178 89.419 -53.178 H66.482 Q64.499 -53.178 63.25 -51.857 Q62.001 -50.536 62.001 -48.707 V-29.822 Q62.001 -27.924 63.257 -26.637 Q64.514 -25.35 66.472 -25.35 H85.94 V-11.749 H65.48 Q63.943 -11.749 62.972 -10.689 Q62.001 -9.628 62.001 -8.183 Q62.001 -6.738 62.972 -5.709 Q63.943 -4.679 65.48 -4.679 H85.94 Z M77.436 18.379 Q97.166 18.379 110.937 4.572 Q124.708 -9.236 124.708 -28.965 Q124.708 -48.694 110.901 -62.466 Q97.093 -76.237 77.364 -76.237 Q57.634 -76.237 43.863 -62.429 Q30.092 -48.622 30.092 -28.893 Q30.092 -9.163 43.899 4.608 Q57.707 18.379 77.436 18.379 Z M63.03 -97.1 Q61.494 -97.1 60.466 -98.137 Q59.439 -99.173 59.439 -100.667 Q59.439 -102.161 60.466 -103.166 Q61.494 -104.171 63.03 -104.171 H91.882 Q93.29 -104.171 94.325 -103.126 Q95.361 -102.081 95.361 -100.66 Q95.361 -99.11 94.325 -98.105 Q93.29 -97.1 91.882 -97.1 H63.03 Z M77.38 25.449 Q66.208 25.449 56.291 21.134 Q46.374 16.819 38.983 9.443 Q31.592 2.067 27.307 -7.879 Q23.022 -17.825 23.022 -28.982 Q23.022 -40.045 27.31 -49.989 Q31.598 -59.934 38.994 -67.354 Q46.39 -74.773 56.298 -79.04 Q66.206 -83.307 77.4 -83.307 Q87.838 -83.307 96.877 -79.741 Q105.916 -76.175 113.085 -69.867 L117.932 -74.767 Q118.934 -75.766 120.385 -75.781 Q121.837 -75.797 122.978 -74.767 Q124.007 -73.626 124.007 -72.231 Q124.007 -70.835 122.978 -69.725 L118.078 -64.826 Q123.958 -58.555 127.868 -49.68 Q131.778 -40.805 131.778 -28.929 Q131.778 -17.805 127.511 -7.872 Q123.244 2.061 115.832 9.432 Q108.42 16.803 98.487 21.126 Q88.553 25.449 77.38 25.449 Z"/></g><g id="Thin-L" transform="matrix(1 0 0 1 787.282 1556)"><path d="M86.498 -6.137 Q88.5 -6.137 89.933 -7.296 Q91.367 -8.456 91.367 -10.385 V-27.18 Q91.367 -28.904 89.899 -30.104 Q88.432 -31.304 86.498 -31.304 H68.482 V-46.666 H88.861 Q89.959 -46.666 90.663 -47.38 Q91.367 -48.094 91.367 -49.135 Q91.367 -50.177 90.663 -50.856 Q89.959 -51.535 88.861 -51.535 H67.98 Q65.988 -51.535 64.801 -50.25 Q63.613 -48.964 63.613 -47.187 V-30.783 Q63.613 -28.963 64.816 -27.699 Q66.019 -26.436 67.961 -26.436 H86.498 V-11.005 H65.976 Q64.878 -11.005 64.246 -10.26 Q63.613 -9.515 63.613 -8.536 Q63.613 -7.557 64.246 -6.847 Q64.878 -6.137 65.976 -6.137 H86.498 Z M77.435 17.728 Q96.855 17.728 110.41 4.139 Q123.964 -9.45 123.964 -28.871 Q123.964 -48.291 110.375 -61.846 Q96.785 -75.4 77.365 -75.4 Q57.945 -75.4 44.39 -61.811 Q30.836 -48.221 30.836 -28.801 Q30.836 -9.38 44.425 4.174 Q58.015 17.728 77.435 17.728 Z M63.092 -97.938 Q61.994 -97.938 61.29 -98.652 Q60.587 -99.366 60.587 -100.407 Q60.587 -101.448 61.29 -102.127 Q61.994 -102.806 63.092 -102.806 H91.85 Q92.784 -102.806 93.499 -102.082 Q94.213 -101.357 94.213 -100.408 Q94.213 -99.296 93.499 -98.617 Q92.784 -97.938 91.85 -97.938 H63.092 Z M77.365 22.597 Q66.795 22.597 57.406 18.499 Q48.017 14.401 41.029 7.459 Q34.042 0.517 30.005 -8.935 Q25.967 -18.387 25.967 -28.92 Q25.967 -39.334 30.008 -48.765 Q34.048 -58.197 41.041 -65.214 Q48.034 -72.231 57.417 -76.25 Q66.8 -80.268 77.4 -80.268 Q87.311 -80.268 96.117 -76.764 Q104.924 -73.26 111.924 -67.015 L116.781 -71.976 Q117.415 -72.603 118.463 -72.634 Q119.511 -72.665 120.342 -71.976 Q121.031 -71.145 121.031 -70.169 Q121.031 -69.192 120.342 -68.423 L115.381 -63.461 Q121.415 -57.129 125.124 -48.409 Q128.833 -39.689 128.833 -28.836 Q128.833 -18.367 124.813 -8.928 Q120.794 0.51 113.785 7.448 Q106.777 14.385 97.356 18.491 Q87.935 22.597 77.365 22.597 Z"/></g><g id="Ultralight-L" transform="matrix(1 0 0 1 491.205 1556)"><path d="M86.833 -7.011 Q88.373 -7.011 89.377 -7.901 Q90.381 -8.791 90.381 -10.236 V-27.571 Q90.381 -28.775 89.332 -29.705 Q88.284 -30.634 86.833 -30.634 H68.128 V-47.001 H88.526 Q89.361 -47.001 89.871 -47.522 Q90.381 -48.042 90.381 -48.812 Q90.381 -49.581 89.871 -50.065 Q89.361 -50.549 88.526 -50.549 H68.879 Q66.882 -50.549 65.732 -49.285 Q64.581 -48.021 64.581 -46.276 V-31.36 Q64.581 -29.586 65.752 -28.337 Q66.923 -27.087 68.854 -27.087 H86.833 V-10.559 H66.274 Q65.439 -10.559 65.01 -10.003 Q64.581 -9.447 64.581 -8.748 Q64.581 -8.049 65.01 -7.53 Q65.439 -7.011 66.274 -7.011 H86.833 Z M77.434 17.338 Q96.669 17.338 110.093 3.879 Q123.517 -9.579 123.517 -28.814 Q123.517 -48.049 110.059 -61.473 Q96.601 -74.897 77.366 -74.897 Q58.131 -74.897 44.707 -61.439 Q31.283 -47.981 31.283 -28.746 Q31.283 -9.511 44.741 3.913 Q58.199 17.338 77.434 17.338 Z M63.129 -98.44 Q62.295 -98.44 61.785 -98.961 Q61.275 -99.481 61.275 -100.251 Q61.275 -101.02 61.785 -101.504 Q62.295 -101.987 63.129 -101.987 H91.832 Q92.481 -101.987 93.003 -101.455 Q93.525 -100.922 93.525 -100.258 Q93.525 -99.407 93.003 -98.924 Q92.481 -98.44 91.832 -98.44 H63.129 Z M77.355 20.885 Q67.147 20.885 58.075 16.917 Q49.003 12.95 42.257 6.268 Q35.512 -0.414 31.623 -9.569 Q27.735 -18.725 27.735 -28.882 Q27.735 -38.907 31.626 -48.031 Q35.518 -57.155 42.269 -63.93 Q49.02 -70.705 58.088 -74.575 Q67.155 -78.445 77.4 -78.445 Q86.994 -78.445 95.662 -74.978 Q104.329 -71.511 111.227 -65.303 L116.09 -70.302 Q116.503 -70.705 117.309 -70.745 Q118.116 -70.786 118.761 -70.302 Q119.244 -69.657 119.244 -68.931 Q119.244 -68.206 118.761 -67.641 L113.762 -62.642 Q119.889 -56.273 123.477 -47.646 Q127.065 -39.019 127.065 -28.78 Q127.065 -18.704 123.195 -9.562 Q119.324 -0.42 112.557 6.257 Q105.791 12.934 96.677 16.909 Q87.564 20.885 77.355 20.885 Z"/></g><g id="Bold-M" transform="matrix(1 0 0 1 2281.8 1126)"><path d="M64.438 -3.73 Q68.805 -3.73 71.996 -6.671 Q75.188 -9.613 75.188 -13.855 V-21.917 Q75.188 -26.16 71.996 -29.101 Q68.805 -32.042 64.438 -32.042 H54.312 V-38.855 H69.5 Q71.862 -38.855 73.525 -40.517 Q75.188 -42.18 75.188 -44.542 Q75.188 -46.905 73.525 -48.567 Q71.862 -50.23 69.5 -50.23 H52.5 Q49.438 -50.23 47.188 -47.98 Q44.938 -45.73 44.938 -42.667 V-28.23 Q44.938 -25.167 47.188 -22.917 Q49.438 -20.667 52.5 -20.667 H64.438 V-15.105 H50.625 Q48.263 -15.105 46.6 -13.442 Q44.938 -11.78 44.938 -9.417 Q44.938 -7.055 46.6 -5.392 Q48.263 -3.73 50.625 -3.73 H64.438 Z M60.014 6.02 Q73.812 6.02 83.406 -3.525 Q93 -13.07 93 -26.869 Q93 -40.667 83.392 -50.261 Q73.785 -59.855 59.986 -59.855 Q46.188 -59.855 36.594 -50.247 Q27 -40.64 27 -26.841 Q27 -13.042 36.608 -3.511 Q46.215 6.02 60.014 6.02 Z M48.062 -79.855 Q45.328 -79.855 43.414 -81.855 Q41.5 -83.855 41.5 -86.542 Q41.5 -89.23 43.5 -91.167 Q45.5 -93.105 48.188 -93.105 H71.938 Q74.672 -93.105 76.586 -91.191 Q78.5 -89.277 78.5 -86.542 Q78.5 -83.855 76.586 -81.855 Q74.672 -79.855 71.938 -79.855 H48.062 Z M60.028 21.145 Q49.993 21.145 41.246 17.378 Q32.498 13.61 25.97 7.118 Q19.441 0.627 15.658 -8.114 Q11.875 -16.855 11.875 -26.872 Q11.875 -36.889 15.669 -45.614 Q19.464 -54.34 25.988 -60.867 Q32.511 -67.395 41.243 -71.187 Q49.976 -74.98 60 -74.98 Q68.188 -74.98 75.5 -72.449 Q82.812 -69.917 89 -65.167 L92.625 -68.792 Q94.688 -70.855 97.312 -70.886 Q99.938 -70.917 102.062 -68.792 Q104.188 -66.667 104.188 -64.074 Q104.188 -61.48 102.062 -59.355 L98.438 -55.73 Q103.125 -49.667 105.625 -42.355 Q108.125 -35.042 108.125 -26.855 Q108.125 -16.836 104.343 -8.103 Q100.562 0.629 94.036 7.115 Q87.51 13.601 78.786 17.373 Q70.062 21.145 60.028 21.145 Z"/></g><g id="Semibold-M" transform="matrix(1 0 0 1 1985.97 1126)"><path d="M64.818 -6.067 Q68.968 -6.067 71.969 -8.927 Q74.97 -11.787 74.97 -15.866 V-23.439 Q74.97 -27.518 71.969 -30.378 Q68.968 -33.238 64.818 -33.238 H54.475 V-40.322 H69.717 Q71.895 -40.322 73.433 -41.86 Q74.97 -43.397 74.97 -45.575 Q74.97 -47.753 73.433 -49.29 Q71.895 -50.828 69.717 -50.828 H51.413 Q48.84 -50.828 46.97 -48.958 Q45.1 -47.089 45.1 -44.515 V-29.045 Q45.1 -26.472 46.97 -24.602 Q48.84 -22.733 51.413 -22.733 H64.818 V-16.572 H50.353 Q48.175 -16.572 46.638 -15.035 Q45.1 -13.497 45.1 -11.319 Q45.1 -9.142 46.638 -7.604 Q48.175 -6.067 50.353 -6.067 H64.818 Z M60.014 5.205 Q74.03 5.205 83.841 -4.585 Q93.652 -14.374 93.652 -28.39 Q93.652 -42.406 83.827 -52.218 Q74.002 -62.029 59.986 -62.029 Q45.97 -62.029 36.159 -52.204 Q26.348 -42.379 26.348 -28.363 Q26.348 -14.347 36.173 -4.571 Q45.998 5.205 60.014 5.205 Z M48.932 -79.855 Q46.544 -79.855 44.864 -81.583 Q43.185 -83.311 43.185 -85.673 Q43.185 -88.034 44.913 -89.727 Q46.641 -91.42 49.003 -91.42 H71.068 Q73.456 -91.42 75.136 -89.741 Q76.815 -88.061 76.815 -85.673 Q76.815 -83.311 75.136 -81.583 Q73.456 -79.855 71.068 -79.855 H48.932 Z M60.028 17.83 Q50.428 17.83 42.007 14.192 Q33.586 10.555 27.302 4.287 Q21.017 -1.982 17.37 -10.397 Q13.723 -18.811 13.723 -28.393 Q13.723 -37.976 17.376 -46.378 Q21.03 -54.779 27.312 -61.065 Q33.593 -67.35 42.002 -71.002 Q50.41 -74.654 60 -74.654 Q68.079 -74.654 75.174 -72.123 Q82.269 -69.591 88.402 -64.896 L91.973 -68.466 Q93.709 -70.203 96.035 -70.234 Q98.362 -70.265 100.16 -68.466 Q101.959 -66.667 101.959 -64.373 Q101.959 -62.078 100.16 -60.279 L96.59 -56.708 Q101.223 -50.7 103.75 -43.578 Q106.277 -36.455 106.277 -28.377 Q106.277 -18.793 102.632 -10.386 Q98.986 -1.979 92.704 4.283 Q86.422 10.545 78.025 14.188 Q69.628 17.83 60.028 17.83 Z"/></g><g id="Medium-M" transform="matrix(1 0 0 1 1689.91 1126)"><path d="M65.103 -7.82 Q69.09 -7.82 71.948 -10.618 Q74.807 -13.417 74.807 -17.374 V-24.58 Q74.807 -28.537 71.948 -31.336 Q69.09 -34.135 65.103 -34.135 H54.598 V-41.423 H69.88 Q71.92 -41.423 73.363 -42.867 Q74.807 -44.31 74.807 -46.349 Q74.807 -48.389 73.363 -49.832 Q71.92 -51.276 69.88 -51.276 H50.598 Q48.391 -51.276 46.807 -49.692 Q45.223 -48.108 45.223 -45.901 V-29.657 Q45.223 -27.45 46.807 -25.866 Q48.391 -24.282 50.598 -24.282 H65.103 V-17.673 H50.15 Q48.11 -17.673 46.667 -16.229 Q45.223 -14.785 45.223 -12.746 Q45.223 -10.707 46.667 -9.263 Q48.11 -7.82 50.15 -7.82 H65.103 Z M60.014 4.593 Q74.193 4.593 84.167 -5.38 Q94.141 -15.353 94.141 -29.532 Q94.141 -43.711 84.153 -53.685 Q74.165 -63.659 59.986 -63.659 Q45.807 -63.659 35.833 -53.671 Q25.859 -43.683 25.859 -29.504 Q25.859 -15.325 35.847 -5.366 Q45.835 4.593 60.014 4.593 Z M49.584 -79.855 Q47.456 -79.855 45.952 -81.379 Q44.448 -82.904 44.448 -85.021 Q44.448 -87.138 45.973 -88.647 Q47.497 -90.157 49.614 -90.157 H70.416 Q72.544 -90.157 74.048 -88.653 Q75.552 -87.149 75.552 -85.021 Q75.552 -82.904 74.048 -81.379 Q72.544 -79.855 70.416 -79.855 H49.584 Z M60.028 15.343 Q50.754 15.343 42.578 11.803 Q34.402 8.263 28.3 2.162 Q22.199 -3.938 18.654 -12.109 Q15.109 -20.279 15.109 -29.535 Q15.109 -38.791 18.657 -46.95 Q22.205 -55.109 28.305 -61.213 Q34.405 -67.317 42.571 -70.863 Q50.736 -74.409 60 -74.409 Q67.997 -74.409 74.929 -71.878 Q81.861 -69.347 87.954 -64.692 L91.484 -68.222 Q92.975 -69.714 95.078 -69.745 Q97.179 -69.776 98.734 -68.222 Q100.288 -66.667 100.288 -64.597 Q100.288 -62.526 98.734 -60.972 L95.204 -57.442 Q99.796 -51.474 102.344 -44.495 Q104.891 -37.515 104.891 -29.518 Q104.891 -20.26 101.347 -12.098 Q97.804 -3.936 91.705 2.159 Q85.606 8.254 77.454 11.799 Q69.302 15.343 60.028 15.343 Z"/></g><g id="Regular-M" transform="matrix(1 0 0 1 1394.06 1126)"><path d="M65.312 -9.105 Q69.18 -9.105 71.934 -11.859 Q74.688 -14.613 74.688 -18.48 V-25.417 Q74.688 -29.285 71.934 -32.039 Q69.18 -34.792 65.312 -34.792 H54.688 V-42.23 H70 Q71.938 -42.23 73.312 -43.605 Q74.688 -44.98 74.688 -46.917 Q74.688 -48.855 73.312 -50.23 Q71.938 -51.605 70 -51.605 H50 Q48.062 -51.605 46.688 -50.23 Q45.312 -48.855 45.312 -46.917 V-30.105 Q45.312 -28.167 46.688 -26.792 Q48.062 -25.417 50 -25.417 H65.312 V-18.48 H50 Q48.062 -18.48 46.688 -17.105 Q45.312 -15.73 45.312 -13.792 Q45.312 -11.855 46.688 -10.48 Q48.062 -9.105 50 -9.105 H65.312 Z M60.014 4.145 Q74.312 4.145 84.406 -5.963 Q94.5 -16.07 94.5 -30.369 Q94.5 -44.667 84.392 -54.761 Q74.285 -64.855 59.986 -64.855 Q45.688 -64.855 35.594 -54.747 Q25.5 -44.64 25.5 -30.341 Q25.5 -16.042 35.608 -5.949 Q45.715 4.145 60.014 4.145 Z M50.062 -79.855 Q48.125 -79.855 46.75 -81.23 Q45.375 -82.605 45.375 -84.542 Q45.375 -86.48 46.75 -87.855 Q48.125 -89.23 50.062 -89.23 H69.938 Q71.875 -89.23 73.25 -87.855 Q74.625 -86.48 74.625 -84.542 Q74.625 -82.605 73.25 -81.23 Q71.875 -79.855 69.938 -79.855 H50.062 Z M60.028 13.52 Q50.993 13.52 42.997 10.051 Q35 6.583 29.033 0.605 Q23.066 -5.373 19.596 -13.364 Q16.125 -21.355 16.125 -30.372 Q16.125 -39.389 19.596 -47.37 Q23.066 -55.351 29.033 -61.322 Q35 -67.292 42.988 -70.761 Q50.976 -74.23 60 -74.23 Q67.938 -74.23 74.75 -71.699 Q81.562 -69.167 87.625 -64.542 L91.125 -68.042 Q92.438 -69.355 94.375 -69.386 Q96.312 -69.417 97.688 -68.042 Q99.062 -66.667 99.062 -64.761 Q99.062 -62.855 97.688 -61.48 L94.188 -57.98 Q98.75 -52.042 101.312 -45.167 Q103.875 -38.292 103.875 -30.355 Q103.875 -21.336 100.406 -13.353 Q96.937 -5.371 90.972 0.601 Q85.008 6.573 77.035 10.047 Q69.062 13.52 60.028 13.52 Z"/></g><g id="Light-M" transform="matrix(1 0 0 1 1098.18 1126)"><path d="M66.034 -10.619 Q68.919 -10.619 70.974 -12.688 Q73.029 -14.757 73.029 -17.663 V-26.643 Q73.029 -29.502 70.961 -31.57 Q68.893 -33.639 66.034 -33.639 H53.99 V-43.047 H69.519 Q70.974 -43.047 72.001 -44.075 Q73.029 -45.104 73.029 -46.546 Q73.029 -47.989 72.001 -49.016 Q70.974 -50.042 69.519 -50.042 H51.258 Q49.457 -50.042 48.226 -48.792 Q46.995 -47.541 46.995 -45.788 V-30.898 Q46.995 -29.117 48.232 -27.88 Q49.469 -26.643 51.25 -26.643 H66.034 V-17.614 H50.481 Q49.026 -17.614 48.011 -16.581 Q46.995 -15.548 46.995 -14.115 Q46.995 -12.683 48.011 -11.651 Q49.026 -10.619 50.481 -10.619 H66.034 Z M60.02 4.265 Q74.361 4.265 84.478 -5.872 Q94.596 -16.01 94.596 -30.351 Q94.596 -44.691 84.459 -54.809 Q74.321 -64.927 59.98 -64.927 Q45.639 -64.927 35.522 -54.79 Q25.404 -44.652 25.404 -30.311 Q25.404 -15.97 35.541 -5.853 Q45.679 4.265 60.02 4.265 Z M49.774 -81.177 Q48.32 -81.177 47.292 -82.205 Q46.264 -83.233 46.264 -84.676 Q46.264 -86.119 47.292 -87.146 Q48.32 -88.172 49.774 -88.172 H70.25 Q71.677 -88.172 72.706 -87.142 Q73.736 -86.112 73.736 -84.685 Q73.736 -83.23 72.706 -82.204 Q71.677 -81.177 70.25 -81.177 H49.774 Z M60.016 11.26 Q51.449 11.26 43.861 7.984 Q36.274 4.707 30.62 -0.958 Q24.965 -6.623 21.687 -14.207 Q18.409 -21.791 18.409 -30.348 Q18.409 -38.885 21.687 -46.469 Q24.965 -54.053 30.62 -59.711 Q36.274 -65.369 43.855 -68.646 Q51.435 -71.922 60 -71.922 Q67.673 -71.922 74.377 -69.343 Q81.082 -66.763 86.869 -62.138 L90.473 -65.735 Q91.452 -66.711 92.885 -66.754 Q94.317 -66.797 95.404 -65.735 Q96.466 -64.648 96.466 -63.259 Q96.466 -61.869 95.404 -60.807 L91.808 -57.211 Q96.394 -51.514 98.993 -44.759 Q101.591 -38.004 101.591 -30.331 Q101.591 -21.772 98.314 -14.196 Q95.038 -6.621 89.386 -0.961 Q83.734 4.698 76.159 7.979 Q68.583 11.26 60.016 11.26 Z"/></g><g id="Thin-M" transform="matrix(1 0 0 1 802.565 1126)"><path d="M66.755 -12.134 Q68.659 -12.134 70.014 -13.518 Q71.37 -14.902 71.37 -16.845 V-27.869 Q71.37 -29.72 69.988 -31.103 Q68.606 -32.485 66.755 -32.485 H53.293 V-43.865 H69.038 Q70.01 -43.865 70.69 -44.546 Q71.37 -45.227 71.37 -46.176 Q71.37 -47.124 70.69 -47.802 Q70.01 -48.48 69.038 -48.48 H52.515 Q50.851 -48.48 49.764 -47.354 Q48.678 -46.228 48.678 -44.658 V-31.691 Q48.678 -30.066 49.776 -28.968 Q50.875 -27.869 52.5 -27.869 H66.755 V-16.749 H50.962 Q49.99 -16.749 49.334 -16.057 Q48.678 -15.366 48.678 -14.438 Q48.678 -13.511 49.334 -12.822 Q49.99 -12.134 50.962 -12.134 H66.755 Z M60.026 4.385 Q74.409 4.385 84.55 -5.782 Q94.692 -15.949 94.692 -30.332 Q94.692 -44.716 84.525 -54.857 Q74.358 -64.999 59.974 -64.999 Q45.591 -64.999 35.45 -54.832 Q25.308 -44.664 25.308 -30.281 Q25.308 -15.898 35.475 -5.756 Q45.642 4.385 60.026 4.385 Z M49.486 -82.499 Q48.514 -82.499 47.834 -83.18 Q47.154 -83.862 47.154 -84.81 Q47.154 -85.759 47.834 -86.437 Q48.514 -87.115 49.486 -87.115 H70.562 Q71.478 -87.115 72.162 -86.43 Q72.846 -85.745 72.846 -84.828 Q72.846 -83.855 72.162 -83.177 Q71.478 -82.499 70.562 -82.499 H49.486 Z M60.004 9.001 Q51.904 9.001 44.726 5.917 Q37.548 2.833 32.206 -2.52 Q26.864 -7.873 23.778 -15.05 Q20.692 -22.227 20.692 -30.324 Q20.692 -38.382 23.778 -45.569 Q26.864 -52.755 32.206 -58.101 Q37.548 -63.446 44.722 -66.53 Q51.895 -69.615 60 -69.615 Q67.409 -69.615 74.005 -66.987 Q80.601 -64.36 86.114 -59.735 L89.821 -63.427 Q90.466 -64.067 91.394 -64.122 Q92.322 -64.177 93.12 -63.427 Q93.87 -62.629 93.87 -61.756 Q93.87 -60.884 93.12 -60.134 L89.428 -56.441 Q94.038 -50.985 96.673 -44.35 Q99.308 -37.716 99.308 -30.307 Q99.308 -22.208 96.223 -15.039 Q93.139 -7.871 87.799 -2.524 Q82.46 2.823 75.282 5.912 Q68.104 9.001 60.004 9.001 Z"/></g><g id="Ultralight-M" transform="matrix(1 0 0 1 506.415 1126)"><path d="M67.188 -13.042 Q68.502 -13.042 69.439 -14.015 Q70.375 -14.989 70.375 -16.355 V-28.605 Q70.375 -29.851 69.404 -30.822 Q68.434 -31.792 67.188 -31.792 H52.875 V-44.355 H68.75 Q69.431 -44.355 69.903 -44.828 Q70.375 -45.301 70.375 -45.953 Q70.375 -46.605 69.903 -47.074 Q69.431 -47.542 68.75 -47.542 H53.27 Q51.688 -47.542 50.688 -46.491 Q49.688 -45.439 49.688 -43.98 V-32.167 Q49.688 -30.636 50.703 -29.621 Q51.719 -28.605 53.25 -28.605 H67.188 V-16.23 H51.25 Q50.569 -16.23 50.128 -15.743 Q49.688 -15.256 49.688 -14.632 Q49.688 -14.007 50.128 -13.525 Q50.569 -13.042 51.25 -13.042 H67.188 Z M60.029 4.458 Q74.438 4.458 84.594 -5.728 Q94.75 -15.913 94.75 -30.321 Q94.75 -44.73 84.565 -54.886 Q74.379 -65.042 59.971 -65.042 Q45.562 -65.042 35.406 -54.857 Q25.25 -44.672 25.25 -30.263 Q25.25 -15.855 35.435 -5.699 Q45.621 4.458 60.029 4.458 Z M49.312 -83.292 Q48.631 -83.292 48.159 -83.766 Q47.688 -84.239 47.688 -84.891 Q47.688 -85.542 48.159 -86.011 Q48.631 -86.48 49.312 -86.48 H70.75 Q71.359 -86.48 71.836 -86.002 Q72.312 -85.524 72.312 -84.913 Q72.312 -84.23 71.836 -83.761 Q71.359 -83.292 70.75 -83.292 H49.312 Z M59.997 7.645 Q52.177 7.645 45.245 4.676 Q38.312 1.708 33.158 -3.458 Q28.004 -8.623 25.033 -15.556 Q22.062 -22.488 22.062 -30.309 Q22.062 -38.08 25.033 -45.028 Q28.004 -51.976 33.158 -57.134 Q38.312 -62.292 45.242 -65.261 Q52.171 -68.23 60 -68.23 Q67.25 -68.23 73.781 -65.574 Q80.312 -62.917 85.66 -58.292 L89.43 -62.042 Q89.875 -62.48 90.5 -62.542 Q91.125 -62.605 91.75 -62.042 Q92.312 -61.417 92.312 -60.855 Q92.312 -60.292 91.75 -59.73 L88 -55.98 Q92.625 -50.667 95.281 -44.105 Q97.938 -37.542 97.938 -30.292 Q97.938 -22.469 94.968 -15.545 Q91.999 -8.621 86.847 -3.461 Q81.696 1.698 74.756 4.672 Q67.817 7.645 59.997 7.645 Z"/></g><g id="Bold-S" transform="matrix(1 0 0 1 2294.23 696)"><path d="M50.471 -10.968 Q53.597 -10.968 55.868 -13.057 Q58.139 -15.146 58.139 -18.168 V-24.332 Q58.139 -27.354 55.853 -29.443 Q53.567 -31.532 50.447 -31.532 H43.247 V-36.709 H54.021 Q55.713 -36.709 56.926 -37.902 Q58.139 -39.094 58.139 -40.782 Q58.139 -42.469 56.943 -43.682 Q55.746 -44.895 54.052 -44.895 H42.239 Q39.992 -44.895 38.316 -43.233 Q36.639 -41.572 36.639 -39.323 V-28.918 Q36.639 -26.669 38.301 -25.008 Q39.963 -23.346 42.212 -23.346 H50.447 V-19.154 H40.758 Q39.065 -19.154 37.852 -17.962 Q36.639 -16.769 36.639 -15.082 Q36.639 -13.394 37.839 -12.181 Q39.039 -10.968 40.738 -10.968 H50.471 Z M47.351 -3.473 Q57.646 -3.473 64.723 -10.511 Q71.799 -17.549 71.799 -27.844 Q71.799 -38.139 64.712 -45.216 Q57.624 -52.292 47.329 -52.292 Q37.034 -52.292 29.957 -45.205 Q22.881 -38.118 22.881 -27.822 Q22.881 -17.527 29.968 -10.5 Q37.056 -3.473 47.351 -3.473 Z M37.527 -68.072 Q35.537 -68.072 34.14 -69.531 Q32.744 -70.989 32.744 -72.933 Q32.744 -74.877 34.208 -76.307 Q35.673 -77.737 37.625 -77.737 H57.153 Q59.143 -77.737 60.54 -76.347 Q61.937 -74.956 61.937 -72.975 Q61.937 -71.031 60.54 -69.551 Q59.143 -68.072 57.153 -68.072 H37.527 Z M47.362 7.672 Q39.839 7.672 33.389 4.896 Q26.939 2.12 22.126 -2.664 Q17.313 -7.448 14.525 -13.893 Q11.736 -20.338 11.736 -27.846 Q11.736 -35.355 14.534 -41.788 Q17.331 -48.221 22.14 -53.033 Q26.949 -57.845 33.387 -60.641 Q39.825 -63.437 47.297 -63.437 Q53.39 -63.437 58.822 -61.489 Q64.254 -59.541 68.742 -56.089 L71.531 -58.878 Q73.13 -60.478 74.906 -60.453 Q76.681 -60.429 78.358 -58.752 Q80.034 -57.075 80.034 -55.325 Q80.034 -53.574 78.358 -51.898 L75.695 -49.136 Q79.097 -44.846 81.02 -39.391 Q82.944 -33.936 82.944 -27.819 Q82.944 -20.323 80.156 -13.884 Q77.369 -7.446 72.558 -2.667 Q67.747 2.112 61.316 4.892 Q54.885 7.672 47.362 7.672 Z"/></g><g id="Semibold-S" transform="matrix(1 0 0 1 1998.1 696)"><path d="M50.771 -12.812 Q53.725 -12.812 55.847 -14.837 Q57.968 -16.861 57.968 -19.754 V-25.532 Q57.968 -28.425 55.832 -30.45 Q53.696 -32.475 50.747 -32.475 H43.376 V-37.867 H54.192 Q55.739 -37.867 56.853 -38.961 Q57.968 -40.054 57.968 -41.596 Q57.968 -43.138 56.87 -44.252 Q55.772 -45.367 54.223 -45.367 H41.381 Q39.521 -45.367 38.144 -44.005 Q36.768 -42.644 36.768 -40.781 V-29.561 Q36.768 -27.698 38.13 -26.337 Q39.491 -24.975 41.354 -24.975 H50.747 V-20.312 H40.544 Q38.997 -20.312 37.882 -19.218 Q36.768 -18.124 36.768 -16.583 Q36.768 -15.041 37.869 -13.926 Q38.971 -12.812 40.524 -12.812 H50.771 Z M47.351 -4.116 Q57.818 -4.116 65.066 -11.347 Q72.314 -18.578 72.314 -29.045 Q72.314 -39.512 65.055 -46.759 Q57.796 -54.007 47.329 -54.007 Q36.862 -54.007 29.614 -46.748 Q22.366 -39.49 22.366 -29.023 Q22.366 -18.556 29.625 -11.336 Q36.884 -4.116 47.351 -4.116 Z M38.213 -68.072 Q36.496 -68.072 35.285 -69.316 Q34.073 -70.561 34.073 -72.247 Q34.073 -73.934 35.323 -75.171 Q36.573 -76.408 38.269 -76.408 H56.467 Q58.184 -76.408 59.395 -75.202 Q60.607 -73.996 60.607 -72.289 Q60.607 -70.602 59.395 -69.337 Q58.184 -68.072 56.467 -68.072 H38.213 Z M47.362 5.056 Q40.182 5.056 33.99 2.383 Q27.797 -0.291 23.177 -4.898 Q18.556 -9.506 15.875 -15.694 Q13.194 -21.881 13.194 -29.047 Q13.194 -36.213 15.88 -42.39 Q18.567 -48.568 23.185 -53.189 Q27.803 -57.81 33.986 -60.495 Q40.168 -63.179 47.297 -63.179 Q53.304 -63.179 58.565 -61.232 Q63.825 -59.284 68.27 -55.875 L71.016 -58.621 Q72.359 -59.963 73.898 -59.939 Q75.437 -59.914 76.857 -58.495 Q78.276 -57.075 78.276 -55.561 Q78.276 -54.046 76.857 -52.627 L74.237 -49.908 Q77.597 -45.661 79.541 -40.356 Q81.486 -35.051 81.486 -29.019 Q81.486 -21.866 78.806 -15.685 Q76.126 -9.504 71.508 -4.901 Q66.889 -0.298 60.715 2.379 Q54.542 5.056 47.362 5.056 Z"/></g><g id="Medium-S" transform="matrix(1 0 0 1 1701.85 696)"><path d="M50.997 -14.195 Q53.822 -14.195 55.83 -16.171 Q57.839 -18.148 57.839 -20.944 V-26.433 Q57.839 -29.23 55.816 -31.206 Q53.792 -33.182 50.972 -33.182 H43.472 V-38.735 H54.321 Q55.758 -38.735 56.799 -39.755 Q57.839 -40.775 57.839 -42.207 Q57.839 -43.64 56.815 -44.68 Q55.791 -45.721 54.352 -45.721 H40.738 Q39.167 -45.721 38.016 -44.584 Q36.864 -43.448 36.864 -41.874 V-30.044 Q36.864 -28.47 38.001 -27.334 Q39.137 -26.197 40.711 -26.197 H50.972 V-21.18 H40.383 Q38.945 -21.18 37.905 -20.16 Q36.864 -19.141 36.864 -17.708 Q36.864 -16.276 37.892 -15.235 Q38.919 -14.195 40.363 -14.195 H50.997 Z M47.351 -4.598 Q57.946 -4.598 65.323 -11.974 Q72.699 -19.35 72.699 -29.945 Q72.699 -40.541 65.312 -47.917 Q57.925 -55.294 47.329 -55.294 Q36.734 -55.294 29.357 -47.906 Q21.981 -40.519 21.981 -29.923 Q21.981 -19.328 29.368 -11.963 Q36.755 -4.598 47.351 -4.598 Z M38.727 -68.072 Q37.216 -68.072 36.143 -69.156 Q35.07 -70.239 35.07 -71.733 Q35.07 -73.226 36.159 -74.319 Q37.248 -75.411 38.751 -75.411 H55.953 Q57.464 -75.411 58.537 -74.344 Q59.61 -73.277 59.61 -71.774 Q59.61 -70.28 58.537 -69.176 Q57.464 -68.072 55.953 -68.072 H38.727 Z M47.362 3.094 Q40.44 3.094 34.44 0.498 Q28.441 -2.099 23.965 -6.574 Q19.489 -11.05 16.888 -17.045 Q14.288 -23.039 14.288 -29.948 Q14.288 -36.856 16.891 -42.842 Q19.493 -48.828 23.968 -53.306 Q28.443 -57.784 34.435 -60.385 Q40.426 -62.987 47.297 -62.987 Q53.24 -62.987 58.372 -61.039 Q63.504 -59.091 67.916 -55.714 L70.63 -58.428 Q71.78 -59.578 73.142 -59.553 Q74.505 -59.528 75.731 -58.302 Q76.958 -57.075 76.958 -55.738 Q76.958 -54.4 75.731 -53.173 L73.143 -50.487 Q76.471 -46.272 78.432 -41.08 Q80.392 -35.887 80.392 -29.92 Q80.392 -23.024 77.793 -17.036 Q75.193 -11.048 70.719 -6.577 Q66.245 -2.106 60.265 0.494 Q54.284 3.094 47.362 3.094 Z"/></g><g id="Regular-S" transform="matrix(1 0 0 1 1405.73 696)"><path d="M51.162 -15.209 Q53.892 -15.209 55.819 -17.15 Q57.745 -19.091 57.745 -21.817 V-27.093 Q57.745 -29.819 55.804 -31.76 Q53.863 -33.701 51.137 -33.701 H43.543 V-39.372 H54.415 Q55.772 -39.372 56.759 -40.338 Q57.745 -41.303 57.745 -42.655 Q57.745 -44.008 56.775 -44.994 Q55.805 -45.98 54.446 -45.98 H40.266 Q38.908 -45.98 37.921 -45.009 Q36.935 -44.037 36.935 -42.676 V-30.397 Q36.935 -29.036 37.907 -28.065 Q38.878 -27.093 40.239 -27.093 H51.137 V-21.817 H40.265 Q38.908 -21.817 37.921 -20.852 Q36.935 -19.886 36.935 -18.534 Q36.935 -17.182 37.908 -16.195 Q38.882 -15.209 40.245 -15.209 H51.162 Z M47.351 -4.952 Q58.041 -4.952 65.512 -12.434 Q72.983 -19.916 72.983 -30.606 Q72.983 -41.295 65.501 -48.766 Q58.019 -56.237 47.329 -56.237 Q36.639 -56.237 29.168 -48.755 Q21.698 -41.274 21.698 -30.584 Q21.698 -19.894 29.179 -12.423 Q36.661 -4.952 47.351 -4.952 Z M39.105 -68.072 Q37.744 -68.072 36.772 -69.038 Q35.801 -70.003 35.801 -71.355 Q35.801 -72.707 36.772 -73.694 Q37.744 -74.68 39.105 -74.68 H55.575 Q56.936 -74.68 57.908 -73.715 Q58.879 -72.749 58.879 -71.397 Q58.879 -70.045 57.908 -69.058 Q56.936 -68.072 55.575 -68.072 H39.105 Z M47.362 1.656 Q40.628 1.656 34.771 -0.885 Q28.913 -3.425 24.543 -7.803 Q20.173 -12.182 17.631 -18.035 Q15.09 -23.888 15.09 -30.608 Q15.09 -37.328 17.631 -43.173 Q20.173 -49.019 24.543 -53.391 Q28.913 -57.764 34.764 -60.305 Q40.614 -62.845 47.297 -62.845 Q53.192 -62.845 58.23 -60.897 Q63.268 -58.949 67.657 -55.596 L70.347 -58.287 Q71.355 -59.294 72.588 -59.27 Q73.821 -59.245 74.906 -58.16 Q75.991 -57.075 75.991 -55.867 Q75.991 -54.659 74.906 -53.574 L72.341 -50.911 Q75.645 -46.72 77.618 -41.61 Q79.59 -36.501 79.59 -30.58 Q79.59 -23.873 77.05 -18.027 Q74.509 -12.18 70.141 -7.806 Q65.773 -3.432 59.935 -0.888 Q54.096 1.656 47.362 1.656 Z"/></g><g id="Light-S" transform="matrix(1 0 0 1 1109.75 696)"><path d="M51.731 -16.404 Q53.687 -16.404 55.062 -17.805 Q56.436 -19.205 56.436 -21.172 V-28.061 Q56.436 -29.991 55.036 -31.391 Q53.636 -32.791 51.706 -32.791 H42.993 V-40.017 H54.036 Q55.012 -40.017 55.724 -40.709 Q56.436 -41.401 56.436 -42.363 Q56.436 -43.325 55.74 -44.036 Q55.045 -44.747 54.067 -44.747 H41.259 Q40.008 -44.747 39.135 -43.874 Q38.263 -43.001 38.263 -41.785 V-31.023 Q38.263 -29.786 39.125 -28.923 Q39.988 -28.061 41.225 -28.061 H51.706 V-21.134 H40.644 Q39.668 -21.134 38.965 -20.438 Q38.263 -19.742 38.263 -18.789 Q38.263 -17.835 38.952 -17.119 Q39.642 -16.404 40.625 -16.404 H51.731 Z M47.356 -4.857 Q58.079 -4.857 65.569 -12.363 Q73.058 -19.868 73.058 -30.591 Q73.058 -41.314 65.553 -48.804 Q58.048 -56.294 47.324 -56.294 Q36.601 -56.294 29.111 -48.789 Q21.622 -41.283 21.622 -30.56 Q21.622 -19.837 29.127 -12.347 Q36.632 -4.857 47.356 -4.857 Z M38.877 -69.115 Q37.897 -69.115 37.2 -69.807 Q36.503 -70.499 36.503 -71.461 Q36.503 -72.423 37.2 -73.134 Q37.897 -73.845 38.877 -73.845 H55.822 Q56.78 -73.845 57.479 -73.152 Q58.177 -72.459 58.177 -71.509 Q58.177 -70.538 57.479 -69.827 Q56.78 -69.115 55.822 -69.115 H38.877 Z M47.353 -0.127 Q40.988 -0.127 35.453 -2.516 Q29.918 -4.904 25.795 -9.036 Q21.671 -13.168 19.282 -18.7 Q16.892 -24.232 16.892 -30.589 Q16.892 -36.931 19.282 -42.463 Q21.671 -47.994 25.795 -52.121 Q29.918 -56.247 35.448 -58.636 Q40.977 -61.024 47.297 -61.024 Q52.984 -61.024 57.936 -59.038 Q62.889 -57.053 67.06 -53.699 L69.833 -56.466 Q70.578 -57.208 71.412 -57.193 Q72.246 -57.178 73.104 -56.339 Q73.942 -55.482 73.942 -54.682 Q73.942 -53.881 73.104 -53.043 L70.464 -50.304 Q73.786 -46.303 75.787 -41.288 Q77.788 -36.273 77.788 -30.561 Q77.788 -24.217 75.4 -18.692 Q73.011 -13.166 68.889 -9.039 Q64.768 -4.912 59.243 -2.519 Q53.718 -0.127 47.353 -0.127 Z"/></g><g id="Thin-S" transform="matrix(1 0 0 1 814.015 696)"><path d="M52.3 -17.599 Q53.481 -17.599 54.304 -18.459 Q55.128 -19.319 55.128 -20.527 V-29.028 Q55.128 -30.163 54.269 -31.022 Q53.41 -31.881 52.275 -31.881 H42.443 V-40.662 H53.656 Q54.251 -40.662 54.689 -41.08 Q55.128 -41.498 55.128 -42.07 Q55.128 -42.642 54.706 -43.078 Q54.284 -43.514 53.688 -43.514 H42.251 Q41.108 -43.514 40.349 -42.739 Q39.59 -41.964 39.59 -40.893 V-31.649 Q39.59 -30.535 40.344 -29.781 Q41.097 -29.028 42.212 -29.028 H52.275 V-20.451 H41.024 Q40.429 -20.451 40.009 -20.025 Q39.59 -19.599 39.59 -19.043 Q39.59 -18.488 39.996 -18.043 Q40.403 -17.599 41.004 -17.599 H52.3 Z M47.36 -4.762 Q58.117 -4.762 65.625 -12.291 Q73.134 -19.82 73.134 -30.577 Q73.134 -41.333 65.605 -48.842 Q58.076 -56.351 47.32 -56.351 Q36.563 -56.351 29.055 -48.822 Q21.546 -41.293 21.546 -30.537 Q21.546 -19.78 29.075 -12.271 Q36.604 -4.762 47.36 -4.762 Z M38.65 -70.158 Q38.051 -70.158 37.628 -70.577 Q37.204 -70.995 37.204 -71.567 Q37.204 -72.139 37.628 -72.575 Q38.051 -73.011 38.65 -73.011 H56.068 Q56.623 -73.011 57.049 -72.59 Q57.476 -72.169 57.476 -71.622 Q57.476 -71.031 57.049 -70.595 Q56.623 -70.158 56.068 -70.158 H38.65 Z M47.343 -1.91 Q41.347 -1.91 36.135 -4.147 Q30.923 -6.384 27.047 -10.269 Q23.17 -14.155 20.931 -19.365 Q18.693 -24.576 18.693 -30.57 Q18.693 -36.534 20.931 -41.752 Q23.17 -46.97 27.047 -50.85 Q30.923 -54.73 36.132 -56.967 Q41.34 -59.203 47.297 -59.203 Q52.775 -59.203 57.642 -57.18 Q62.509 -55.156 66.464 -51.803 L69.319 -54.645 Q69.8 -55.122 70.236 -55.116 Q70.672 -55.111 71.302 -54.519 Q71.894 -53.889 71.894 -53.497 Q71.894 -53.104 71.302 -52.512 L68.586 -49.697 Q71.928 -45.885 73.957 -40.965 Q75.987 -36.046 75.987 -30.542 Q75.987 -24.561 73.75 -19.357 Q71.513 -14.152 67.638 -10.272 Q63.763 -6.391 58.551 -4.15 Q53.34 -1.91 47.343 -1.91 Z"/></g><g id="Ultralight-S" transform="matrix(1 0 0 1 517.792 696)"><path d="M52.641 -18.316 Q53.358 -18.316 53.85 -18.852 Q54.342 -19.388 54.342 -20.14 V-29.608 Q54.342 -30.266 53.808 -30.8 Q53.274 -31.334 52.616 -31.334 H42.113 V-41.049 H53.429 Q53.795 -41.049 54.069 -41.303 Q54.342 -41.557 54.342 -41.895 Q54.342 -42.232 54.085 -42.504 Q53.828 -42.775 53.46 -42.775 H42.846 Q41.768 -42.775 41.077 -42.058 Q40.387 -41.342 40.387 -40.358 V-32.025 Q40.387 -30.984 41.075 -30.296 Q41.763 -29.608 42.803 -29.608 H52.616 V-20.042 H41.251 Q40.885 -20.042 40.636 -19.777 Q40.387 -19.512 40.387 -19.196 Q40.387 -18.88 40.623 -18.598 Q40.859 -18.316 41.231 -18.316 H52.641 Z M47.363 -4.706 Q58.139 -4.706 65.66 -12.249 Q73.18 -19.792 73.18 -30.568 Q73.18 -41.345 65.637 -48.865 Q58.094 -56.385 47.317 -56.385 Q36.541 -56.385 29.02 -48.842 Q21.5 -41.299 21.5 -30.522 Q21.5 -19.746 29.043 -12.226 Q36.586 -4.706 47.363 -4.706 Z M38.513 -70.784 Q38.143 -70.784 37.884 -71.038 Q37.625 -71.292 37.625 -71.63 Q37.625 -71.968 37.884 -72.239 Q38.143 -72.51 38.513 -72.51 H56.216 Q56.529 -72.51 56.792 -72.253 Q57.055 -71.995 57.055 -71.689 Q57.055 -71.327 56.792 -71.056 Q56.529 -70.784 56.216 -70.784 H38.513 Z M47.337 -2.98 Q41.562 -2.98 36.544 -5.125 Q31.527 -7.271 27.798 -11.009 Q24.069 -14.746 21.922 -19.764 Q19.774 -24.782 19.774 -30.559 Q19.774 -36.295 21.922 -41.326 Q24.069 -46.356 27.798 -50.088 Q31.527 -53.819 36.542 -55.965 Q41.558 -58.111 47.297 -58.111 Q52.65 -58.111 57.466 -56.065 Q62.282 -54.018 66.106 -50.665 L69.01 -53.553 Q69.333 -53.87 69.531 -53.87 Q69.728 -53.87 70.221 -53.426 Q70.665 -52.933 70.665 -52.785 Q70.665 -52.637 70.221 -52.193 L67.46 -49.333 Q70.813 -45.635 72.859 -40.772 Q74.906 -35.909 74.906 -30.531 Q74.906 -24.767 72.76 -19.756 Q70.614 -14.744 66.887 -11.011 Q63.16 -7.279 58.136 -5.129 Q53.113 -2.98 47.337 -2.98 Z"/></g></g></svg>