<svg xmlns="http://www.w3.org/2000/svg" version="1.1" width="3300" height="2000"><g id="Notes"><style>
    text {
      font-family: monospace;
      text-anchor: middle;
    }
    text.emphasis {
      font-weight:bold;
    }
    text.lanchor {
      text-anchor: start;
    }
  </style><rect height="2200" id="artboard" fill="white" width="3300" x="0" y="0"/><line id="" style="fill:none;stroke:black;stroke-width:0.5;" x1="263" x2="3036" y1="292" y2="292"/><text class="lanchor emphasis" transform="matrix(1 0 0 1 263 322)">Weight/Scale Variations</text><text transform="matrix(1 0 0 1 559.711 322)">Ultralight</text><text transform="matrix(1 0 0 1 856.422 322)">Thin</text><text transform="matrix(1 0 0 1 1153.13 322)">Light</text><text transform="matrix(1 0 0 1 1449.84 322)">Regular</text><text transform="matrix(1 0 0 1 1746.56 322)">Medium</text><text transform="matrix(1 0 0 1 2043.27 322)">Semibold</text><text transform="matrix(1 0 0 1 2339.98 322)">Bold</text><text transform="matrix(1 0 0 1 2636.69 322)">Heavy</text><text transform="matrix(1 0 0 1 2933.4 322)">Black</text><text id="template-version" style="text-anchor: end;" transform="matrix(1 0 0 1 3036 1933)">Template v.1.0</text><text class="lanchor" transform="matrix(1 0 0 1 263 726)">Small</text><text class="lanchor" transform="matrix(1 0 0 1 263 1156)">Medium</text><text class="lanchor" transform="matrix(1 0 0 1 263 1586)">Large</text></g><g id="Guides"><g id="H-reference" style="fill:#27AAE1;stroke:none;" transform="matrix(1 0 0 1 339 696)"><path d="M 54.9316 0 L 57.666 0 L 30.5664 -70.459 L 28.0762 -70.459 L 0.976562 0 L 3.66211 0 L 12.9395 -24.4629 L 45.7031 -24.4629 Z M 29.1992 -67.0898 L 29.4434 -67.0898 L 44.8242 -26.709 L 13.8184 -26.709 Z"/></g><line id="Baseline-S" style="fill:none;stroke:#27AAE1;opacity:1;stroke-width:0.577;" x1="263" x2="3036" y1="696" y2="696"/><line id="Capline-S" style="fill:none;stroke:#27AAE1;opacity:1;stroke-width:0.577;" x1="263" x2="3036" y1="625.541" y2="625.541"/><g id="H-reference" style="fill:#27AAE1;stroke:none;" transform="matrix(1 0 0 1 339 1126)"><path d="M 54.9316 0 L 57.666 0 L 30.5664 -70.459 L 28.0762 -70.459 L 0.976562 0 L 3.66211 0 L 12.9395 -24.4629 L 45.7031 -24.4629 Z M 29.1992 -67.0898 L 29.4434 -67.0898 L 44.8242 -26.709 L 13.8184 -26.709 Z"/></g><line id="Baseline-M" style="fill:none;stroke:#27AAE1;opacity:1;stroke-width:0.577;" x1="263" x2="3036" y1="1126" y2="1126"/><line id="Capline-M" style="fill:none;stroke:#27AAE1;opacity:1;stroke-width:0.577;" x1="263" x2="3036" y1="1055.54" y2="1055.54"/><g id="H-reference" style="fill:#27AAE1;stroke:none;" transform="matrix(1 0 0 1 339 1556)"><path d="M 54.9316 0 L 57.666 0 L 30.5664 -70.459 L 28.0762 -70.459 L 0.976562 0 L 3.66211 0 L 12.9395 -24.4629 L 45.7031 -24.4629 Z M 29.1992 -67.0898 L 29.4434 -67.0898 L 44.8242 -26.709 L 13.8184 -26.709 Z"/></g><line id="Baseline-L" style="fill:none;stroke:#27AAE1;opacity:1;stroke-width:0.577;" x1="263" x2="3036" y1="1556" y2="1556"/><line id="Capline-L" style="fill:none;stroke:#27AAE1;opacity:1;stroke-width:0.577;" x1="263" x2="3036" y1="1485.54" y2="1485.54"/><rect height="119.336" id="left-margin" style="fill:darkred;stroke:none;opacity:0.4;" width="12.4512" x="1394.06" y="1030.79"/><rect height="119.336" id="right-margin" style="fill:darkgreen;stroke:none;opacity:0.4;" width="12.4512" x="1502.5112" y="1030.79"/><rect x="1406.5112" y="1045" width="96" height="96" fill="none" stroke="blue" stroke-dasharray="5"/><rect x="1394.06" y="1030.79" width="120.9024" height="119.336" fill="none" stroke="blue"/></g><g id="Symbols"><g id="Bold-L" transform="matrix(1 0 0 1 2266 1556)"><path d="M64.234 25.884 Q59.935 25.884 56.049 24.029 Q52.164 22.175 49.504 18.789 L8.707 -29.425 Q6.772 -31.441 7.418 -34.343 Q8.062 -37.246 9.917 -39.664 Q14.271 -44.582 20.721 -44.703 Q27.171 -44.824 32.988 -40.917 L44.344 -33.537 V-98.552 Q44.344 -100.947 46.217 -102.757 Q48.091 -104.567 50.652 -104.567 Q53.212 -104.567 55.027 -102.757 Q56.841 -100.946 56.841 -98.539 V-24.265 Q56.841 -19.721 52.85 -17.68 Q48.859 -15.638 45.311 -18.137 L20.156 -35.069 L59.904 11.21 Q60.679 12.263 62.062 12.906 Q63.444 13.548 64.722 13.548 H113.278 Q118.745 13.548 122.542 9.758 Q126.339 5.968 126.339 0.406 V-45.137 Q126.339 -47.624 128.213 -49.49 Q130.086 -51.355 132.647 -51.355 Q135.208 -51.355 137.022 -49.49 Q138.836 -47.624 138.836 -45.137 V0.406 Q138.836 11.186 131.378 18.535 Q123.921 25.884 113.278 25.884 H64.234 Z M77.921 -82.96 Q80.482 -82.96 82.327 -81.094 Q84.172 -79.229 84.172 -76.672 V-31.78 Q84.172 -29.223 82.293 -27.47 Q80.413 -25.716 77.905 -25.716 Q75.304 -25.716 73.57 -27.47 Q71.837 -29.223 71.837 -31.78 V-76.672 Q71.837 -79.229 73.599 -81.094 Q75.36 -82.96 77.921 -82.96 Z M105.445 -68.447 Q107.925 -68.447 109.715 -66.631 Q111.504 -64.815 111.504 -62.413 V-31.87 Q111.504 -29.223 109.657 -27.47 Q107.81 -25.716 105.35 -25.716 Q102.797 -25.716 100.983 -27.47 Q99.169 -29.223 99.169 -31.87 V-62.413 Q99.169 -64.815 101.033 -66.631 Q102.898 -68.447 105.445 -68.447 Z"/></g><g id="Semibold-L" transform="matrix(1 0 0 1 1970.27 1556)"><path d="M64.201 24.131 Q60.075 24.131 56.33 22.347 Q52.585 20.563 49.994 17.246 L10.46 -30.126 Q8.806 -31.931 9.451 -34.448 Q10.096 -36.965 11.74 -39.104 Q15.533 -43.321 21.141 -43.512 Q26.75 -43.703 31.726 -40.286 L45.045 -31.504 V-96.73 Q45.045 -98.893 46.694 -100.504 Q48.344 -102.114 50.638 -102.114 Q52.932 -102.114 54.536 -100.503 Q56.14 -98.892 56.14 -96.717 V-22.442 Q56.14 -18.654 52.815 -16.936 Q49.49 -15.217 46.503 -17.366 L21.418 -34.298 L59.133 10.509 Q60.057 11.726 61.534 12.427 Q63.01 13.127 64.52 13.127 H112.156 Q117.913 13.127 121.916 9.132 Q125.919 5.136 125.919 -0.715 V-45.557 Q125.919 -47.784 127.568 -49.429 Q129.218 -51.075 131.512 -51.075 Q133.806 -51.075 135.41 -49.429 Q137.013 -47.784 137.013 -45.557 V-0.715 Q137.013 9.759 129.766 16.945 Q122.519 24.131 112.156 24.131 H64.201 Z M77.584 -80.436 Q79.878 -80.436 81.5 -78.795 Q83.121 -77.153 83.121 -74.849 V-32.929 Q83.121 -30.626 81.465 -29.047 Q79.81 -27.469 77.568 -27.469 Q75.234 -27.469 73.675 -29.047 Q72.117 -30.626 72.117 -32.929 V-74.849 Q72.117 -77.153 73.704 -78.795 Q75.29 -80.436 77.584 -80.436 Z M104.674 -67.676 Q106.922 -67.676 108.512 -66.06 Q110.102 -64.444 110.102 -62.273 V-32.962 Q110.102 -30.626 108.465 -29.047 Q106.828 -27.469 104.613 -27.469 Q102.306 -27.469 100.702 -29.047 Q99.099 -30.626 99.099 -32.962 V-62.273 Q99.099 -64.444 100.743 -66.06 Q102.388 -67.676 104.674 -67.676 Z"/></g><g id="Medium-L" transform="matrix(1 0 0 1 1674.31 1556)"><path d="M64.176 22.816 Q60.18 22.816 56.54 21.085 Q52.9 19.353 50.363 16.09 L11.775 -30.652 Q10.33 -32.299 10.975 -34.527 Q11.62 -36.755 13.107 -38.683 Q16.479 -42.374 21.457 -42.618 Q26.435 -42.861 30.78 -39.812 L45.571 -29.979 V-95.362 Q45.571 -97.353 47.052 -98.813 Q48.534 -100.273 50.628 -100.273 Q52.722 -100.273 54.168 -98.812 Q55.614 -97.351 55.614 -95.349 V-21.075 Q55.614 -17.854 52.788 -16.378 Q49.963 -14.902 47.397 -16.788 L22.365 -33.719 L58.555 9.983 Q59.591 11.323 61.137 12.067 Q62.684 12.812 64.369 12.812 H111.315 Q117.289 12.812 121.446 8.662 Q125.603 4.511 125.603 -1.557 V-45.873 Q125.603 -47.903 127.085 -49.384 Q128.567 -50.864 130.661 -50.864 Q132.754 -50.864 134.2 -49.384 Q135.646 -47.903 135.646 -45.873 V-1.557 Q135.646 8.689 128.557 15.753 Q121.467 22.816 111.315 22.816 H64.176 Z M77.331 -78.543 Q79.425 -78.543 80.879 -77.07 Q82.332 -75.596 82.332 -73.482 V-33.791 Q82.332 -31.677 80.844 -30.23 Q79.357 -28.784 77.315 -28.784 Q75.181 -28.784 73.754 -30.23 Q72.328 -31.677 72.328 -33.791 V-73.482 Q72.328 -75.596 73.783 -77.07 Q75.238 -78.543 77.331 -78.543 Z M104.096 -67.098 Q106.17 -67.098 107.61 -65.631 Q109.051 -64.165 109.051 -62.168 V-33.781 Q109.051 -31.677 107.571 -30.23 Q106.091 -28.784 104.061 -28.784 Q101.938 -28.784 100.492 -30.23 Q99.046 -31.677 99.046 -33.781 V-62.168 Q99.046 -64.165 100.526 -65.631 Q102.005 -67.098 104.096 -67.098 Z"/></g><g id="Regular-L" transform="matrix(1 0 0 1 1378.56 1556)"><path d="M64.158 21.853 Q60.257 21.853 56.694 20.159 Q53.132 18.466 50.633 15.241 L12.739 -31.037 Q11.449 -32.569 12.094 -34.585 Q12.739 -36.601 14.109 -38.374 Q17.173 -41.68 21.688 -41.962 Q26.203 -42.244 30.086 -39.465 L45.956 -28.861 V-94.36 Q45.956 -96.223 47.315 -97.573 Q48.673 -98.924 50.62 -98.924 Q52.568 -98.924 53.898 -97.573 Q55.228 -96.221 55.228 -94.347 V-20.072 Q55.228 -17.268 52.769 -15.969 Q50.31 -14.671 48.053 -16.364 L23.059 -33.295 L58.131 9.598 Q59.249 11.027 60.847 11.804 Q62.445 12.581 64.258 12.581 H110.698 Q116.831 12.581 121.101 8.317 Q125.372 4.054 125.372 -2.174 V-46.104 Q125.372 -47.991 126.73 -49.351 Q128.089 -50.71 130.036 -50.71 Q131.983 -50.71 133.313 -49.351 Q134.644 -47.991 134.644 -46.104 V-2.174 Q134.644 7.904 127.67 14.878 Q120.696 21.853 110.698 21.853 H64.158 Z M77.146 -77.155 Q79.093 -77.155 80.423 -75.805 Q81.754 -74.454 81.754 -72.479 V-34.424 Q81.754 -32.448 80.389 -31.098 Q79.024 -29.747 77.13 -29.747 Q75.142 -29.747 73.812 -31.098 Q72.482 -32.448 72.482 -34.424 V-72.479 Q72.482 -74.454 73.84 -75.805 Q75.199 -77.155 77.146 -77.155 Z M103.672 -66.674 Q105.619 -66.674 106.949 -65.317 Q108.279 -63.961 108.279 -62.091 V-34.382 Q108.279 -32.448 106.915 -31.098 Q105.55 -29.747 103.656 -29.747 Q101.668 -29.747 100.338 -31.098 Q99.008 -32.448 99.008 -34.382 V-62.091 Q99.008 -63.961 100.366 -65.317 Q101.725 -66.674 103.672 -66.674 Z"/></g><g id="Light-L" transform="matrix(1 0 0 1 1082.77 1556)"><path d="M65.764 18.999 Q62.151 18.999 58.773 17.399 Q55.396 15.799 53.051 12.791 L17.111 -30.851 Q15.914 -32.197 16.42 -34.011 Q16.925 -35.825 18.155 -37.289 Q20.615 -39.85 24.061 -39.946 Q27.506 -40.043 30.551 -37.946 L48.871 -26.38 V-92.635 Q48.871 -94.016 49.908 -95.043 Q50.944 -96.071 52.438 -96.071 Q53.932 -96.071 54.937 -95.042 Q55.941 -94.014 55.941 -92.617 V-21.53 Q55.941 -18.811 53.56 -17.501 Q51.178 -16.19 49.014 -17.759 L23.245 -34.629 L58.865 8.516 Q60.148 10.221 61.975 11.075 Q63.801 11.929 65.871 11.929 H108.899 Q115.466 11.929 120.062 7.343 Q124.659 2.756 124.659 -3.941 V-48.333 Q124.659 -49.747 125.695 -50.787 Q126.731 -51.826 128.225 -51.826 Q129.719 -51.826 130.724 -50.787 Q131.729 -49.747 131.729 -48.333 V-3.941 Q131.729 5.617 125.065 12.308 Q118.401 18.999 108.899 18.999 H65.764 Z M77.754 -76.318 Q79.248 -76.318 80.253 -75.29 Q81.258 -74.263 81.258 -72.727 V-36.191 Q81.258 -34.655 80.213 -33.628 Q79.168 -32.601 77.747 -32.601 Q76.197 -32.601 75.192 -33.628 Q74.188 -34.655 74.188 -36.191 V-72.727 Q74.188 -74.263 75.224 -75.29 Q76.26 -76.318 77.754 -76.318 Z M103.07 -66.364 Q104.564 -66.364 105.569 -65.328 Q106.574 -64.293 106.574 -62.897 V-36.138 Q106.574 -34.655 105.529 -33.628 Q104.485 -32.601 103.063 -32.601 Q101.513 -32.601 100.508 -33.628 Q99.504 -34.655 99.504 -36.138 V-62.897 Q99.504 -64.293 100.54 -65.328 Q101.576 -66.364 103.07 -66.364 Z"/></g><g id="Thin-L" transform="matrix(1 0 0 1 787.282 1556)"><path d="M67.369 16.147 Q64.045 16.147 60.852 14.64 Q57.659 13.133 55.47 10.342 L21.483 -30.665 Q20.379 -31.825 20.745 -33.438 Q21.111 -35.05 22.201 -36.204 Q24.057 -38.021 26.433 -37.931 Q28.808 -37.841 31.016 -36.426 L51.786 -23.899 V-90.911 Q51.786 -91.81 52.5 -92.514 Q53.214 -93.218 54.255 -93.218 Q55.296 -93.218 55.976 -92.513 Q56.655 -91.808 56.655 -90.888 V-22.987 Q56.655 -20.354 54.351 -19.032 Q52.047 -17.71 49.975 -19.155 L23.431 -35.962 L59.599 7.434 Q61.047 9.415 63.102 10.347 Q65.157 11.278 67.483 11.278 H107.101 Q114.102 11.278 119.024 6.369 Q123.945 1.46 123.945 -5.709 V-50.562 Q123.945 -51.503 124.659 -52.223 Q125.373 -52.943 126.415 -52.943 Q127.456 -52.943 128.135 -52.223 Q128.814 -51.503 128.814 -50.562 V-5.709 Q128.814 3.33 122.46 9.738 Q116.106 16.147 107.101 16.147 H67.369 Z M78.362 -75.48 Q79.403 -75.48 80.082 -74.777 Q80.761 -74.073 80.761 -72.975 V-37.959 Q80.761 -36.861 80.037 -36.157 Q79.312 -35.453 78.364 -35.453 Q77.251 -35.453 76.572 -36.157 Q75.893 -36.861 75.893 -37.959 V-72.975 Q75.893 -74.073 76.607 -74.777 Q77.321 -75.48 78.362 -75.48 Z M102.469 -66.054 Q103.51 -66.054 104.189 -65.339 Q104.868 -64.624 104.868 -63.703 V-37.894 Q104.868 -36.861 104.144 -36.157 Q103.419 -35.453 102.471 -35.453 Q101.358 -35.453 100.679 -36.157 Q100 -36.861 100 -37.894 V-63.703 Q100 -64.624 100.714 -65.339 Q101.428 -66.054 102.469 -66.054 Z"/></g><g id="Ultralight-L" transform="matrix(1 0 0 1 491.205 1556)"><path d="M68.333 14.435 Q65.181 14.435 62.099 12.984 Q59.017 11.533 56.921 8.872 L24.107 -30.554 Q23.059 -31.602 23.341 -33.093 Q23.623 -34.585 24.628 -35.552 Q26.123 -36.923 27.856 -36.722 Q29.589 -36.52 31.295 -35.515 L53.535 -22.411 V-89.876 Q53.535 -90.486 54.056 -90.996 Q54.576 -91.506 55.346 -91.506 Q56.115 -91.506 56.599 -90.995 Q57.083 -90.484 57.083 -89.85 V-23.862 Q57.083 -21.28 54.825 -19.951 Q52.568 -18.621 50.552 -19.992 L23.543 -36.762 L60.04 6.786 Q61.587 8.931 63.779 9.909 Q65.97 10.888 68.451 10.888 H106.022 Q113.283 10.888 118.4 5.784 Q123.517 0.681 123.517 -6.769 V-51.899 Q123.517 -52.557 124.038 -53.085 Q124.559 -53.612 125.328 -53.612 Q126.097 -53.612 126.581 -53.085 Q127.065 -52.557 127.065 -51.899 V-6.769 Q127.065 1.957 120.897 8.196 Q114.729 14.435 106.022 14.435 H68.333 Z M78.727 -74.978 Q79.496 -74.978 79.98 -74.468 Q80.464 -73.958 80.464 -73.124 V-39.019 Q80.464 -38.185 79.931 -37.675 Q79.399 -37.165 78.734 -37.165 Q77.884 -37.165 77.4 -37.675 Q76.916 -38.185 76.916 -39.019 V-73.124 Q76.916 -73.958 77.437 -74.468 Q77.957 -74.978 78.727 -74.978 Z M102.108 -65.867 Q102.877 -65.867 103.361 -65.345 Q103.845 -64.823 103.845 -64.187 V-38.948 Q103.845 -38.185 103.312 -37.675 Q102.78 -37.165 102.115 -37.165 Q101.265 -37.165 100.781 -37.675 Q100.297 -38.185 100.297 -38.948 V-64.187 Q100.297 -64.823 100.818 -65.345 Q101.339 -65.867 102.108 -65.867 Z"/></g><g id="Bold-M" transform="matrix(1 0 0 1 2281.8 1126)"><path d="M49.748 12.77 Q46.087 12.77 42.856 11.145 Q39.625 9.52 37.125 6.708 L5.312 -30.605 Q3.625 -32.667 3.781 -35.386 Q3.938 -38.105 5.75 -40.23 Q9.375 -44.167 14.812 -44.574 Q20.25 -44.98 24.875 -41.855 L34.625 -35.417 V-83.542 Q34.625 -86.105 36.5 -87.98 Q38.375 -89.855 40.938 -89.855 Q43.5 -89.855 45.375 -87.98 Q47.25 -86.105 47.25 -83.542 V-26.167 Q47.25 -21.632 43.25 -19.493 Q39.25 -17.355 35.438 -19.917 L24.625 -26.917 L47.562 -1.23 Q48.081 -0.588 48.771 -0.222 Q49.462 0.145 50.312 0.145 H86.688 Q90.271 0.145 92.823 -2.407 Q95.375 -4.959 95.375 -8.542 V-43.292 Q95.375 -45.855 97.25 -47.73 Q99.125 -49.605 101.688 -49.605 Q104.25 -49.605 106.125 -47.73 Q108 -45.855 108 -43.292 V-8.542 Q108 0.395 101.812 6.583 Q95.625 12.77 86.688 12.77 H49.748 Z M61.188 -71.167 Q63.75 -71.167 65.625 -69.292 Q67.5 -67.417 67.5 -64.881 V-33.517 Q67.5 -30.98 65.625 -29.105 Q63.75 -27.23 61.188 -27.23 Q58.625 -27.23 56.75 -29.105 Q54.875 -30.98 54.875 -33.517 V-64.881 Q54.875 -67.417 56.75 -69.292 Q58.625 -71.167 61.188 -71.167 Z M81.438 -60.855 Q84 -60.855 85.875 -58.98 Q87.75 -57.105 87.75 -54.552 V-33.533 Q87.75 -30.98 85.875 -29.105 Q84 -27.23 81.438 -27.23 Q78.875 -27.23 77 -29.105 Q75.125 -30.98 75.125 -33.533 V-54.552 Q75.125 -57.105 77 -58.98 Q78.875 -60.855 81.438 -60.855 Z"/></g><g id="Semibold-M" transform="matrix(1 0 0 1 1985.97 1126)"><path d="M49.748 10.922 Q46.251 10.922 43.128 9.379 Q40.005 7.835 37.669 5.132 L7.16 -31.366 Q5.69 -33.157 5.873 -35.495 Q6.057 -37.833 7.652 -39.632 Q10.734 -42.918 15.247 -43.351 Q19.761 -43.784 23.571 -41.203 L35.331 -33.352 V-81.695 Q35.331 -83.986 36.989 -85.643 Q38.647 -87.301 40.938 -87.301 Q43.228 -87.301 44.886 -85.643 Q46.544 -83.986 46.544 -81.695 V-24.32 Q46.544 -20.533 43.196 -18.754 Q39.848 -16.975 36.687 -19.102 L25.929 -26.102 L46.747 -1.936 Q47.381 -1.168 48.226 -0.729 Q49.071 -0.29 50.095 -0.29 H85.546 Q89.421 -0.29 92.181 -3.049 Q94.94 -5.809 94.94 -9.684 V-43.727 Q94.94 -46.018 96.598 -47.676 Q98.255 -49.333 100.546 -49.333 Q102.837 -49.333 104.495 -47.676 Q106.152 -46.018 106.152 -43.727 V-9.684 Q106.152 -1.072 100.155 4.925 Q94.158 10.922 85.546 10.922 H49.748 Z M60.807 -68.559 Q63.098 -68.559 64.755 -66.901 Q66.413 -65.244 66.413 -62.967 V-34.669 Q66.413 -32.393 64.755 -30.735 Q63.098 -29.078 60.807 -29.078 Q58.516 -29.078 56.859 -30.735 Q55.201 -32.393 55.201 -34.669 V-62.967 Q55.201 -65.244 56.859 -66.901 Q58.516 -68.559 60.807 -68.559 Z M80.677 -60.04 Q82.968 -60.04 84.625 -58.382 Q86.283 -56.725 86.283 -54.443 V-34.674 Q86.283 -32.393 84.625 -30.735 Q82.968 -29.078 80.677 -29.078 Q78.386 -29.078 76.728 -30.735 Q75.071 -32.393 75.071 -34.674 V-54.443 Q75.071 -56.725 76.728 -58.382 Q78.386 -60.04 80.677 -60.04 Z"/></g><g id="Medium-M" transform="matrix(1 0 0 1 1689.91 1126)"><path d="M49.748 9.536 Q46.373 9.536 43.332 8.054 Q40.291 6.572 38.076 3.949 L8.546 -31.936 Q7.239 -33.523 7.443 -35.576 Q7.647 -37.629 9.079 -39.184 Q11.753 -41.98 15.573 -42.434 Q19.394 -42.888 22.592 -40.714 L35.861 -31.803 V-80.309 Q35.861 -82.396 37.356 -83.89 Q38.85 -85.385 40.938 -85.385 Q43.025 -85.385 44.519 -83.89 Q46.014 -82.396 46.014 -80.309 V-22.934 Q46.014 -19.709 43.155 -18.199 Q40.296 -16.689 37.625 -18.491 L26.908 -25.491 L46.136 -2.466 Q46.856 -1.603 47.817 -1.109 Q48.778 -0.616 49.932 -0.616 H84.69 Q88.784 -0.616 91.699 -3.531 Q94.614 -6.446 94.614 -10.54 V-44.053 Q94.614 -46.14 96.109 -47.635 Q97.603 -49.129 99.69 -49.129 Q101.777 -49.129 103.272 -47.635 Q104.766 -46.14 104.766 -44.053 V-10.54 Q104.766 -2.173 98.912 3.682 Q93.057 9.536 84.69 9.536 H49.748 Z M60.522 -66.602 Q62.609 -66.602 64.103 -65.108 Q65.598 -63.613 65.598 -61.532 V-35.534 Q65.598 -33.453 64.103 -31.958 Q62.609 -30.464 60.522 -30.464 Q58.435 -30.464 56.94 -31.958 Q55.446 -33.453 55.446 -35.534 V-61.532 Q55.446 -63.613 56.94 -65.108 Q58.435 -66.602 60.522 -66.602 Z M80.106 -59.428 Q82.193 -59.428 83.688 -57.934 Q85.182 -56.439 85.182 -54.362 V-35.53 Q85.182 -33.453 83.688 -31.958 Q82.193 -30.464 80.106 -30.464 Q78.019 -30.464 76.525 -31.958 Q75.03 -33.453 75.03 -35.53 V-54.362 Q75.03 -56.439 76.525 -57.934 Q78.019 -59.428 80.106 -59.428 Z"/></g><g id="Regular-M" transform="matrix(1 0 0 1 1394.06 1126)"><path d="M49.748 8.52 Q46.462 8.52 43.481 7.083 Q40.5 5.645 38.375 3.083 L9.562 -32.355 Q8.375 -33.792 8.594 -35.636 Q8.812 -37.48 10.125 -38.855 Q12.5 -41.292 15.812 -41.761 Q19.125 -42.23 21.875 -40.355 L36.25 -30.667 V-79.292 Q36.25 -81.23 37.625 -82.605 Q39 -83.98 40.938 -83.98 Q42.875 -83.98 44.25 -82.605 Q45.625 -81.23 45.625 -79.292 V-21.917 Q45.625 -19.105 43.125 -17.792 Q40.625 -16.48 38.312 -18.042 L27.625 -25.042 L45.688 -2.855 Q46.472 -1.922 47.517 -1.388 Q48.562 -0.855 49.812 -0.855 H84.062 Q88.316 -0.855 91.346 -3.884 Q94.375 -6.914 94.375 -11.167 V-44.292 Q94.375 -46.23 95.75 -47.605 Q97.125 -48.98 99.062 -48.98 Q101 -48.98 102.375 -47.605 Q103.75 -46.23 103.75 -44.292 V-11.167 Q103.75 -2.98 98 2.77 Q92.25 8.52 84.062 8.52 H49.748 Z M60.312 -65.167 Q62.25 -65.167 63.625 -63.792 Q65 -62.417 65 -60.48 V-36.167 Q65 -34.23 63.625 -32.855 Q62.25 -31.48 60.312 -31.48 Q58.375 -31.48 57 -32.855 Q55.625 -34.23 55.625 -36.167 V-60.48 Q55.625 -62.417 57 -63.792 Q58.375 -65.167 60.312 -65.167 Z M79.688 -58.98 Q81.625 -58.98 83 -57.605 Q84.375 -56.23 84.375 -54.302 V-36.158 Q84.375 -34.23 83 -32.855 Q81.625 -31.48 79.688 -31.48 Q77.75 -31.48 76.375 -32.855 Q75 -34.23 75 -36.158 V-54.302 Q75 -56.23 76.375 -57.605 Q77.75 -58.98 79.688 -58.98 Z"/></g><g id="Light-M" transform="matrix(1 0 0 1 1098.18 1126)"><path d="M50.993 6.26 Q47.979 6.26 45.237 4.943 Q42.495 3.626 40.539 1.231 L13.145 -32.163 Q12.125 -33.408 12.308 -34.999 Q12.491 -36.59 13.659 -37.725 Q15.505 -39.586 18.084 -39.862 Q20.664 -40.138 22.813 -38.744 L38.51 -28.744 V-78.292 Q38.51 -79.713 39.538 -80.741 Q40.566 -81.768 42.009 -81.768 Q43.452 -81.768 44.478 -80.74 Q45.505 -79.713 45.505 -78.288 V-23.672 Q45.505 -21.147 43.257 -19.932 Q41.01 -18.716 38.913 -20.086 L24.692 -29.057 L46.064 -3.164 Q47.025 -2.018 48.293 -1.376 Q49.562 -0.735 51.063 -0.735 H83.005 Q87.787 -0.735 91.141 -4.086 Q94.495 -7.438 94.495 -12.249 V-45.732 Q94.495 -47.16 95.523 -48.19 Q96.551 -49.22 97.994 -49.22 Q99.437 -49.22 100.464 -48.19 Q101.49 -47.16 101.49 -45.732 V-12.249 Q101.49 -4.513 96.101 0.874 Q90.711 6.26 83.005 6.26 H50.993 Z M60.687 -65.191 Q62.13 -65.191 63.156 -64.164 Q64.183 -63.136 64.183 -61.682 V-37.249 Q64.183 -35.795 63.153 -34.767 Q62.123 -33.74 60.696 -33.74 Q59.24 -33.74 58.214 -34.767 Q57.188 -35.795 57.188 -37.249 V-61.682 Q57.188 -63.136 58.216 -64.164 Q59.244 -65.191 60.687 -65.191 Z M79.365 -58.74 Q80.808 -58.74 81.834 -57.71 Q82.861 -56.681 82.861 -55.264 V-37.231 Q82.861 -35.795 81.831 -34.767 Q80.801 -33.74 79.373 -33.74 Q77.918 -33.74 76.892 -34.767 Q75.865 -35.795 75.865 -37.231 V-55.264 Q75.865 -56.681 76.894 -57.71 Q77.922 -58.74 79.365 -58.74 Z"/></g><g id="Thin-M" transform="matrix(1 0 0 1 802.565 1126)"><path d="M52.238 4.001 Q49.495 4.001 46.993 2.804 Q44.49 1.607 42.702 -0.619 L16.726 -31.97 Q15.875 -33.023 16.022 -34.362 Q16.168 -35.701 17.192 -36.595 Q18.51 -37.879 20.356 -37.963 Q22.202 -38.047 23.75 -37.134 L40.769 -26.821 V-77.292 Q40.769 -78.196 41.45 -78.877 Q42.132 -79.557 43.08 -79.557 Q44.029 -79.557 44.707 -78.876 Q45.385 -78.195 45.385 -77.284 V-25.427 Q45.385 -23.189 43.389 -22.07 Q41.394 -20.951 39.514 -22.129 L21.76 -33.071 L46.441 -3.474 Q47.577 -2.114 49.069 -1.364 Q50.561 -0.615 52.312 -0.615 H81.947 Q87.259 -0.615 90.937 -4.289 Q94.615 -7.963 94.615 -13.331 V-47.171 Q94.615 -48.089 95.297 -48.775 Q95.978 -49.461 96.927 -49.461 Q97.875 -49.461 98.553 -48.775 Q99.231 -48.089 99.231 -47.171 V-13.331 Q99.231 -6.045 94.202 -1.022 Q89.173 4.001 81.947 4.001 H52.238 Z M61.061 -65.216 Q62.01 -65.216 62.688 -64.535 Q63.365 -63.855 63.365 -62.884 V-38.331 Q63.365 -37.36 62.681 -36.679 Q61.996 -35.999 61.078 -35.999 Q60.106 -35.999 59.428 -36.679 Q58.75 -37.36 58.75 -38.331 V-62.884 Q58.75 -63.855 59.431 -64.535 Q60.112 -65.216 61.061 -65.216 Z M79.042 -58.499 Q79.99 -58.499 80.668 -57.815 Q81.346 -57.131 81.346 -56.225 V-38.304 Q81.346 -37.36 80.661 -36.679 Q79.977 -35.999 79.059 -35.999 Q78.087 -35.999 77.409 -36.679 Q76.731 -37.36 76.731 -38.304 V-56.225 Q76.731 -57.131 77.412 -57.815 Q78.093 -58.499 79.042 -58.499 Z"/></g><g id="Ultralight-M" transform="matrix(1 0 0 1 506.415 1126)"><path d="M52.984 2.645 Q50.405 2.645 48.046 1.52 Q45.688 0.395 44 -1.73 L18.875 -31.855 Q18.125 -32.792 18.25 -33.98 Q18.375 -35.167 19.312 -35.917 Q20.312 -36.855 21.719 -36.824 Q23.125 -36.792 24.312 -36.167 L42.125 -25.667 V-76.692 Q42.125 -77.286 42.598 -77.758 Q43.071 -78.23 43.723 -78.23 Q44.375 -78.23 44.844 -77.758 Q45.312 -77.285 45.312 -76.682 V-26.48 Q45.312 -24.415 43.469 -23.354 Q41.625 -22.292 39.875 -23.355 L20 -35.48 L46.667 -3.66 Q47.909 -2.172 49.535 -1.357 Q51.16 -0.542 53.062 -0.542 H81.312 Q86.941 -0.542 90.814 -4.41 Q94.688 -8.278 94.688 -13.98 V-48.035 Q94.688 -48.647 95.161 -49.126 Q95.634 -49.605 96.286 -49.605 Q96.938 -49.605 97.406 -49.126 Q97.875 -48.647 97.875 -48.035 V-13.98 Q97.875 -6.965 93.062 -2.16 Q88.25 2.645 81.312 2.645 H52.984 Z M61.286 -65.23 Q61.938 -65.23 62.406 -64.758 Q62.875 -64.286 62.875 -63.605 V-38.98 Q62.875 -38.299 62.397 -37.827 Q61.919 -37.355 61.308 -37.355 Q60.625 -37.355 60.156 -37.827 Q59.688 -38.299 59.688 -38.98 V-63.605 Q59.688 -64.286 60.161 -64.758 Q60.634 -65.23 61.286 -65.23 Z M78.848 -58.355 Q79.5 -58.355 79.969 -57.878 Q80.438 -57.402 80.438 -56.802 V-38.947 Q80.438 -38.299 79.96 -37.827 Q79.482 -37.355 78.871 -37.355 Q78.188 -37.355 77.719 -37.827 Q77.25 -38.299 77.25 -38.947 V-56.802 Q77.25 -57.402 77.723 -57.878 Q78.196 -58.355 78.848 -58.355 Z"/></g><g id="Bold-S" transform="matrix(1 0 0 1 2294.23 696)"><path d="M40.632 5.009 Q38.237 5.009 36.23 3.973 Q34.223 2.938 32.546 1.113 L4.093 -31.778 Q2.762 -33.307 3.082 -35.501 Q3.403 -37.696 4.833 -39.372 Q7.496 -42.282 11.638 -42.652 Q15.78 -43.021 19.429 -40.753 L28.108 -36.364 V-72.165 Q28.108 -74.019 29.468 -75.385 Q30.828 -76.751 32.673 -76.751 Q34.519 -76.751 35.9 -75.385 Q37.28 -74.019 37.28 -72.165 V-30.447 Q37.28 -27.12 34.469 -25.553 Q31.659 -23.987 28.848 -25.713 L14.103 -34.293 L40.19 -4.656 Q40.356 -4.426 40.578 -4.295 Q40.801 -4.163 41.077 -4.163 H67.57 Q70.139 -4.163 71.906 -5.945 Q73.673 -7.727 73.673 -10.229 V-44.353 Q73.673 -46.207 75.033 -47.573 Q76.393 -48.939 78.238 -48.939 Q80.084 -48.939 81.464 -47.573 Q82.845 -46.207 82.845 -44.353 V-10.229 Q82.845 -3.769 78.456 0.62 Q74.067 5.009 67.607 5.009 H40.632 Z M47.862 -63.585 Q49.707 -63.585 51.088 -62.219 Q52.468 -60.853 52.468 -59.019 V-35.062 Q52.468 -33.228 51.109 -31.862 Q49.749 -30.496 47.903 -30.496 Q46.058 -30.496 44.677 -31.862 Q43.296 -33.228 43.296 -35.062 V-59.019 Q43.296 -60.853 44.656 -62.219 Q46.016 -63.585 47.862 -63.585 Z M63.05 -54.659 Q64.895 -54.659 66.276 -53.295 Q67.657 -51.93 67.657 -50.086 V-35.102 Q67.657 -33.257 66.297 -31.877 Q64.937 -30.496 63.091 -30.496 Q61.246 -30.496 59.865 -31.86 Q58.485 -33.225 58.485 -35.069 V-50.053 Q58.485 -51.898 59.845 -53.278 Q61.205 -54.659 63.05 -54.659 Z"/></g><g id="Semibold-S" transform="matrix(1 0 0 1 1998.1 696)"><path d="M40.632 3.551 Q38.366 3.551 36.444 2.58 Q34.523 1.609 32.975 -0.13 L5.551 -32.378 Q4.391 -33.693 4.733 -35.587 Q5.075 -37.481 6.333 -38.901 Q8.567 -41.296 11.981 -41.687 Q15.394 -42.078 18.4 -40.238 L28.666 -34.735 V-70.707 Q28.666 -72.347 29.854 -73.541 Q31.043 -74.736 32.673 -74.736 Q34.304 -74.736 35.514 -73.541 Q36.723 -72.347 36.723 -70.707 V-28.989 Q36.723 -26.253 34.427 -24.97 Q32.13 -23.687 29.834 -25.07 L15.132 -33.65 L39.547 -5.214 Q39.804 -4.883 40.148 -4.695 Q40.492 -4.506 40.906 -4.506 H66.669 Q69.468 -4.506 71.399 -6.452 Q73.33 -8.397 73.33 -11.129 V-44.696 Q73.33 -46.336 74.518 -47.53 Q75.707 -48.724 77.338 -48.724 Q78.969 -48.724 80.178 -47.53 Q81.387 -46.336 81.387 -44.696 V-11.129 Q81.387 -4.926 77.148 -0.688 Q72.91 3.551 66.707 3.551 H40.632 Z M47.562 -61.527 Q49.192 -61.527 50.402 -60.332 Q51.611 -59.138 51.611 -57.509 V-35.971 Q51.611 -34.343 50.422 -33.148 Q49.234 -31.954 47.603 -31.954 Q45.972 -31.954 44.763 -33.148 Q43.554 -34.343 43.554 -35.971 V-57.509 Q43.554 -59.138 44.742 -60.332 Q45.931 -61.527 47.562 -61.527 Z M62.45 -54.016 Q64.081 -54.016 65.29 -52.823 Q66.499 -51.63 66.499 -50 V-36.002 Q66.499 -34.372 65.311 -33.163 Q64.122 -31.954 62.491 -31.954 Q60.86 -31.954 59.651 -33.147 Q58.442 -34.34 58.442 -35.969 V-49.968 Q58.442 -51.598 59.63 -52.807 Q60.819 -54.016 62.45 -54.016 Z"/></g><g id="Medium-S" transform="matrix(1 0 0 1 1701.85 696)"><path d="M40.632 2.458 Q38.462 2.458 36.605 1.535 Q34.748 0.612 33.297 -1.063 L6.644 -32.829 Q5.613 -33.982 5.971 -35.651 Q6.329 -37.32 7.459 -38.547 Q9.372 -40.556 12.238 -40.963 Q15.105 -41.37 17.628 -39.853 L29.084 -33.513 V-69.614 Q29.084 -71.093 30.143 -72.158 Q31.203 -73.224 32.673 -73.224 Q34.144 -73.224 35.224 -72.158 Q36.305 -71.093 36.305 -69.614 V-27.895 Q36.305 -25.603 34.394 -24.532 Q32.484 -23.461 30.574 -24.587 L15.904 -33.167 L39.064 -5.632 Q39.39 -5.227 39.826 -4.995 Q40.261 -4.763 40.777 -4.763 H65.994 Q68.966 -4.763 71.019 -6.832 Q73.073 -8.9 73.073 -11.804 V-44.953 Q73.073 -46.432 74.132 -47.498 Q75.192 -48.564 76.662 -48.564 Q78.133 -48.564 79.213 -47.498 Q80.294 -46.432 80.294 -44.953 V-11.804 Q80.294 -5.795 76.167 -1.669 Q72.041 2.458 66.032 2.458 H40.632 Z M47.336 -59.983 Q48.807 -59.983 49.887 -58.917 Q50.968 -57.851 50.968 -56.377 V-36.653 Q50.968 -35.179 49.908 -34.113 Q48.848 -33.047 47.378 -33.047 Q45.908 -33.047 44.827 -34.113 Q43.747 -35.179 43.747 -36.653 V-56.377 Q43.747 -57.851 44.806 -58.917 Q45.866 -59.983 47.336 -59.983 Z M61.999 -53.534 Q63.47 -53.534 64.55 -52.469 Q65.631 -51.405 65.631 -49.936 V-36.678 Q65.631 -35.208 64.571 -34.128 Q63.511 -33.047 62.041 -33.047 Q60.571 -33.047 59.49 -34.112 Q58.41 -35.176 58.41 -36.645 V-49.903 Q58.41 -51.372 59.469 -52.453 Q60.529 -53.534 61.999 -53.534 Z"/></g><g id="Regular-S" transform="matrix(1 0 0 1 1405.73 696)"><path d="M40.632 1.656 Q38.533 1.656 36.723 0.768 Q34.913 -0.119 33.532 -1.747 L7.446 -33.159 Q6.509 -34.194 6.879 -35.698 Q7.249 -37.202 8.284 -38.287 Q9.961 -40.013 12.427 -40.432 Q14.892 -40.852 17.062 -39.569 L29.39 -32.616 V-68.812 Q29.39 -70.173 30.356 -71.144 Q31.321 -72.116 32.673 -72.116 Q34.026 -72.116 35.012 -71.144 Q35.998 -70.173 35.998 -68.812 V-27.093 Q35.998 -25.126 34.371 -24.211 Q32.744 -23.296 31.116 -24.233 L16.47 -32.814 L38.71 -5.938 Q39.087 -5.478 39.589 -5.215 Q40.091 -4.952 40.683 -4.952 H65.499 Q68.597 -4.952 70.74 -7.11 Q72.884 -9.269 72.884 -12.3 V-45.142 Q72.884 -46.503 73.849 -47.474 Q74.815 -48.446 76.167 -48.446 Q77.519 -48.446 78.505 -47.474 Q79.492 -46.503 79.492 -45.142 V-12.3 Q79.492 -6.431 75.448 -2.388 Q71.404 1.656 65.536 1.656 H40.632 Z M47.171 -58.851 Q48.524 -58.851 49.51 -57.879 Q50.496 -56.908 50.496 -55.547 V-37.153 Q50.496 -35.792 49.531 -34.821 Q48.565 -33.849 47.213 -33.849 Q45.861 -33.849 44.874 -34.821 Q43.888 -35.792 43.888 -37.153 V-55.547 Q43.888 -56.908 44.854 -57.879 Q45.819 -58.851 47.171 -58.851 Z M61.669 -53.18 Q63.021 -53.18 64.008 -52.21 Q64.994 -51.24 64.994 -49.889 V-37.173 Q64.994 -35.822 64.028 -34.835 Q63.063 -33.849 61.711 -33.849 Q60.358 -33.849 59.372 -34.819 Q58.386 -35.789 58.386 -37.14 V-49.856 Q58.386 -51.207 59.351 -52.193 Q60.317 -53.18 61.669 -53.18 Z"/></g><g id="Light-S" transform="matrix(1 0 0 1 1109.75 696)"><path d="M41.614 -0.127 Q39.729 -0.127 38.108 -0.92 Q36.488 -1.713 35.24 -3.207 L10.272 -33.007 Q9.468 -33.891 9.81 -35.196 Q10.151 -36.501 11.073 -37.396 Q12.332 -38.667 14.219 -38.934 Q16.106 -39.201 17.802 -38.299 L31.173 -31.099 V-68.023 Q31.173 -68.976 31.865 -69.673 Q32.557 -70.371 33.519 -70.371 Q34.481 -70.371 35.192 -69.673 Q35.903 -68.976 35.903 -68.02 V-28.478 Q35.903 -26.738 34.475 -25.899 Q33.047 -25.06 31.59 -25.846 L14.156 -35.981 L39.008 -6.183 Q39.523 -5.554 40.201 -5.206 Q40.879 -4.857 41.669 -4.857 H64.664 Q68.179 -4.857 70.579 -7.27 Q72.979 -9.683 72.979 -13.153 V-46.277 Q72.979 -47.237 73.671 -47.936 Q74.362 -48.635 75.324 -48.635 Q76.286 -48.635 76.998 -47.936 Q77.709 -47.237 77.709 -46.277 V-13.153 Q77.709 -7.641 73.95 -3.884 Q70.191 -0.127 64.702 -0.127 H41.614 Z M47.467 -58.87 Q48.429 -58.87 49.14 -58.172 Q49.851 -57.475 49.851 -56.495 V-38.007 Q49.851 -37.027 49.158 -36.33 Q48.465 -35.632 47.515 -35.632 Q46.544 -35.632 45.832 -36.33 Q45.121 -37.027 45.121 -38.007 V-56.495 Q45.121 -57.475 45.813 -58.172 Q46.505 -58.87 47.467 -58.87 Z M61.414 -52.99 Q62.376 -52.99 63.088 -52.293 Q63.799 -51.596 63.799 -50.648 V-38.019 Q63.799 -37.057 63.106 -36.344 Q62.412 -35.632 61.463 -35.632 Q60.491 -35.632 59.78 -36.328 Q59.069 -37.024 59.069 -37.987 V-50.615 Q59.069 -51.563 59.761 -52.276 Q60.452 -52.99 61.414 -52.99 Z"/></g><g id="Thin-S" transform="matrix(1 0 0 1 814.015 696)"><path d="M42.596 -1.91 Q40.926 -1.91 39.494 -2.608 Q38.062 -3.306 36.946 -4.668 L13.098 -32.855 Q12.427 -33.587 12.74 -34.693 Q13.053 -35.799 13.861 -36.505 Q14.703 -37.32 16.011 -37.436 Q17.32 -37.552 18.541 -37.028 L32.956 -29.582 V-67.234 Q32.956 -67.779 33.374 -68.203 Q33.792 -68.626 34.364 -68.626 Q34.936 -68.626 35.372 -68.202 Q35.808 -67.779 35.808 -67.227 V-29.863 Q35.808 -28.349 34.579 -27.586 Q33.35 -26.824 32.064 -27.458 L11.843 -39.148 L39.305 -6.427 Q39.959 -5.63 40.813 -5.196 Q41.668 -4.762 42.655 -4.762 H63.83 Q67.762 -4.762 70.418 -7.43 Q73.074 -10.097 73.074 -14.007 V-47.413 Q73.074 -47.97 73.492 -48.398 Q73.91 -48.825 74.482 -48.825 Q75.054 -48.825 75.49 -48.398 Q75.926 -47.97 75.926 -47.413 V-14.007 Q75.926 -8.85 72.452 -5.38 Q68.977 -1.91 63.867 -1.91 H42.596 Z M47.762 -58.889 Q48.334 -58.889 48.77 -58.465 Q49.206 -58.042 49.206 -57.443 V-38.86 Q49.206 -38.262 48.785 -37.838 Q48.364 -37.415 47.817 -37.415 Q47.226 -37.415 46.79 -37.838 Q46.354 -38.262 46.354 -38.86 V-57.443 Q46.354 -58.042 46.772 -58.465 Q47.19 -58.889 47.762 -58.889 Z M61.16 -52.8 Q61.732 -52.8 62.168 -52.376 Q62.604 -51.951 62.604 -51.406 V-38.866 Q62.604 -38.291 62.183 -37.853 Q61.762 -37.415 61.215 -37.415 Q60.624 -37.415 60.188 -37.837 Q59.752 -38.258 59.752 -38.833 V-51.373 Q59.752 -51.918 60.17 -52.359 Q60.588 -52.8 61.16 -52.8 Z"/></g><g id="Ultralight-S" transform="matrix(1 0 0 1 517.792 696)"><path d="M43.186 -2.98 Q41.643 -2.98 40.325 -3.621 Q39.006 -4.262 37.971 -5.544 L14.794 -32.764 Q14.202 -33.405 14.498 -34.392 Q14.794 -35.378 15.533 -35.97 Q16.125 -36.512 17.087 -36.537 Q18.048 -36.561 18.985 -36.266 L34.026 -28.671 V-66.76 Q34.026 -67.061 34.28 -67.32 Q34.533 -67.579 34.871 -67.579 Q35.209 -67.579 35.48 -67.32 Q35.752 -67.06 35.752 -66.752 V-30.693 Q35.752 -29.316 34.642 -28.599 Q33.532 -27.882 32.349 -28.425 L10.454 -41.049 L39.483 -6.573 Q40.221 -5.675 41.181 -5.191 Q42.14 -4.706 43.247 -4.706 H63.329 Q67.512 -4.706 70.321 -7.525 Q73.13 -10.345 73.13 -14.519 V-48.094 Q73.13 -48.41 73.384 -48.675 Q73.638 -48.939 73.976 -48.939 Q74.314 -48.939 74.585 -48.675 Q74.856 -48.41 74.856 -48.094 V-14.519 Q74.856 -9.576 71.552 -6.278 Q68.249 -2.98 63.367 -2.98 H43.186 Z M47.939 -58.9 Q48.277 -58.9 48.548 -58.641 Q48.819 -58.382 48.819 -58.012 V-39.372 Q48.819 -39.002 48.562 -38.744 Q48.304 -38.485 47.998 -38.485 Q47.636 -38.485 47.365 -38.744 Q47.093 -39.002 47.093 -39.372 V-58.012 Q47.093 -58.382 47.347 -58.641 Q47.601 -58.9 47.939 -58.9 Z M61.007 -52.687 Q61.345 -52.687 61.616 -52.426 Q61.887 -52.165 61.887 -51.861 V-39.374 Q61.887 -39.032 61.63 -38.758 Q61.372 -38.485 61.066 -38.485 Q60.704 -38.485 60.432 -38.742 Q60.161 -38.999 60.161 -39.341 V-51.829 Q60.161 -52.132 60.415 -52.409 Q60.669 -52.687 61.007 -52.687 Z"/></g></g></svg>