<svg xmlns="http://www.w3.org/2000/svg" version="1.1" width="3300" height="2000"><g id="Notes"><style>
    text {
      font-family: monospace;
      text-anchor: middle;
    }
    text.emphasis {
      font-weight:bold;
    }
    text.lanchor {
      text-anchor: start;
    }
  </style><rect height="2200" id="artboard" fill="white" width="3300" x="0" y="0"/><line id="" style="fill:none;stroke:black;stroke-width:0.5;" x1="263" x2="3036" y1="292" y2="292"/><text class="lanchor emphasis" transform="matrix(1 0 0 1 263 322)">Weight/Scale Variations</text><text transform="matrix(1 0 0 1 559.711 322)">Ultralight</text><text transform="matrix(1 0 0 1 856.422 322)">Thin</text><text transform="matrix(1 0 0 1 1153.13 322)">Light</text><text transform="matrix(1 0 0 1 1449.84 322)">Regular</text><text transform="matrix(1 0 0 1 1746.56 322)">Medium</text><text transform="matrix(1 0 0 1 2043.27 322)">Semibold</text><text transform="matrix(1 0 0 1 2339.98 322)">Bold</text><text transform="matrix(1 0 0 1 2636.69 322)">Heavy</text><text transform="matrix(1 0 0 1 2933.4 322)">Black</text><text id="template-version" style="text-anchor: end;" transform="matrix(1 0 0 1 3036 1933)">Template v.1.0</text><text class="lanchor" transform="matrix(1 0 0 1 263 726)">Small</text><text class="lanchor" transform="matrix(1 0 0 1 263 1156)">Medium</text><text class="lanchor" transform="matrix(1 0 0 1 263 1586)">Large</text></g><g id="Guides"><g id="H-reference" style="fill:#27AAE1;stroke:none;" transform="matrix(1 0 0 1 339 696)"><path d="M 54.9316 0 L 57.666 0 L 30.5664 -70.459 L 28.0762 -70.459 L 0.976562 0 L 3.66211 0 L 12.9395 -24.4629 L 45.7031 -24.4629 Z M 29.1992 -67.0898 L 29.4434 -67.0898 L 44.8242 -26.709 L 13.8184 -26.709 Z"/></g><line id="Baseline-S" style="fill:none;stroke:#27AAE1;opacity:1;stroke-width:0.577;" x1="263" x2="3036" y1="696" y2="696"/><line id="Capline-S" style="fill:none;stroke:#27AAE1;opacity:1;stroke-width:0.577;" x1="263" x2="3036" y1="625.541" y2="625.541"/><g id="H-reference" style="fill:#27AAE1;stroke:none;" transform="matrix(1 0 0 1 339 1126)"><path d="M 54.9316 0 L 57.666 0 L 30.5664 -70.459 L 28.0762 -70.459 L 0.976562 0 L 3.66211 0 L 12.9395 -24.4629 L 45.7031 -24.4629 Z M 29.1992 -67.0898 L 29.4434 -67.0898 L 44.8242 -26.709 L 13.8184 -26.709 Z"/></g><line id="Baseline-M" style="fill:none;stroke:#27AAE1;opacity:1;stroke-width:0.577;" x1="263" x2="3036" y1="1126" y2="1126"/><line id="Capline-M" style="fill:none;stroke:#27AAE1;opacity:1;stroke-width:0.577;" x1="263" x2="3036" y1="1055.54" y2="1055.54"/><g id="H-reference" style="fill:#27AAE1;stroke:none;" transform="matrix(1 0 0 1 339 1556)"><path d="M 54.9316 0 L 57.666 0 L 30.5664 -70.459 L 28.0762 -70.459 L 0.976562 0 L 3.66211 0 L 12.9395 -24.4629 L 45.7031 -24.4629 Z M 29.1992 -67.0898 L 29.4434 -67.0898 L 44.8242 -26.709 L 13.8184 -26.709 Z"/></g><line id="Baseline-L" style="fill:none;stroke:#27AAE1;opacity:1;stroke-width:0.577;" x1="263" x2="3036" y1="1556" y2="1556"/><line id="Capline-L" style="fill:none;stroke:#27AAE1;opacity:1;stroke-width:0.577;" x1="263" x2="3036" y1="1485.54" y2="1485.54"/><rect height="119.336" id="left-margin" style="fill:darkred;stroke:none;opacity:0.4;" width="12.4512" x="1394.06" y="1030.79"/><rect height="119.336" id="right-margin" style="fill:darkgreen;stroke:none;opacity:0.4;" width="12.4512" x="1502.5112" y="1030.79"/><rect x="1406.5112" y="1045" width="96" height="96" fill="none" stroke="blue" stroke-dasharray="5"/><rect x="1394.06" y="1030.79" width="120.9024" height="119.336" fill="none" stroke="blue"/></g><g id="Symbols"><g id="Bold-L" transform="matrix(1 0 0 1 2266 1556)"><path d="M137.708 38.945  4.918 -94.167  12.739 -101.987  145.851 31.124  137.708 38.945 Z M145.206 -2.98  119.809 -28.377 V-8.221 L73.611 -54.419 V-58.289 Q73.611 -61.111 71.514 -63.086 Q69.418 -65.061 66.516 -65.384 Q65.548 -65.384 64.742 -65.222 Q63.936 -65.061 63.129 -64.739 L37.652 -90.297 H119.809 V-42.164 L145.206 -67.561 V-2.98 Z M9.836 19.676 V-89.974 H24.752 L119.325 4.599 V19.676 H70.708 V-7.253 Q75.788 -8.543 80.182 -11.687 Q84.576 -14.832 87.317 -19.427 L80.464 -26.442 Q78.206 -21.685 73.933 -19.024 Q69.66 -16.364 64.5 -16.364 Q57.486 -16.364 52.527 -21.403 Q47.569 -26.442 47.569 -33.456 H37.652 Q37.652 -24.023 43.376 -16.727 Q49.101 -9.43 58.373 -7.253 V19.676 H9.836 Z M55.228 -43.696 V-33.456 Q55.228 -29.586 57.929 -26.885 Q60.63 -24.184 64.5 -24.184 Q66.677 -24.184 68.572 -24.87 Q70.466 -25.555 72.159 -26.845 L55.228 -43.696 Z"/></g><g id="Semibold-L" transform="matrix(1 0 0 1 1970.27 1556)"><path d="M136.936 37.893  5.97 -93.255  13.229 -100.515  144.378 30.634  136.936 37.893 Z M143.383 -2.98  117.986 -28.377 V-8.992 L73.681 -53.297 V-57.518 Q73.681 -60.76 71.339 -63.016 Q68.997 -65.272 65.745 -65.454 Q64.707 -65.454 63.83 -65.293 Q62.954 -65.131 62.078 -64.809 L38.423 -88.474 H117.986 V-42.164 L143.383 -67.561 V-2.98 Z M11.589 17.923 V-88.292 H25.453 L117.643 3.898 V17.923 H69.937 V-7.113 Q75.227 -8.263 79.796 -11.337 Q84.365 -14.411 87.387 -19.007 L80.604 -25.881 Q78.136 -21.334 73.863 -18.779 Q69.59 -16.223 64.5 -16.223 Q57.065 -16.223 51.826 -21.508 Q46.587 -26.792 46.587 -34.227 H36.881 Q36.881 -24.233 43.096 -16.656 Q49.311 -9.079 59.144 -7.113 V17.923 H11.589 Z M55.228 -43.906 V-34.227 Q55.228 -30.357 57.929 -27.656 Q60.63 -24.955 64.5 -24.955 Q66.537 -24.955 68.326 -25.641 Q70.116 -26.326 71.669 -27.546 L55.228 -43.906 Z"/></g><g id="Medium-L" transform="matrix(1 0 0 1 1674.31 1556)"><path d="M136.358 37.105  6.758 -92.572  13.598 -99.411  143.274 30.266  136.358 37.105 Z M142.016 -2.98  116.619 -28.377 V-9.57 L73.733 -52.456 V-56.939 Q73.733 -60.497 71.208 -62.963 Q68.682 -65.429 65.166 -65.506 Q64.076 -65.506 63.147 -65.345 Q62.218 -65.184 61.289 -64.861 L39.002 -87.107 H116.619 V-42.164 L142.016 -67.561 V-2.98 Z M12.904 16.608 V-87.03 H25.979 L116.38 3.372 V16.608 H69.358 V-7.008 Q74.806 -8.052 79.507 -11.074 Q84.207 -14.096 87.44 -18.691 L80.709 -25.46 Q78.084 -21.072 73.81 -18.595 Q69.537 -16.118 64.5 -16.118 Q56.75 -16.118 51.3 -21.587 Q45.851 -27.055 45.851 -34.806 H36.302 Q36.302 -24.391 42.886 -16.604 Q49.469 -8.817 59.722 -7.008 V16.608 H12.904 Z M55.228 -44.064 V-34.806 Q55.228 -30.936 57.929 -28.235 Q60.63 -25.534 64.5 -25.534 Q66.431 -25.534 68.142 -26.219 Q69.853 -26.905 71.301 -28.072 L55.228 -44.064 Z"/></g><g id="Regular-L" transform="matrix(1 0 0 1 1378.56 1556)"><path d="M135.934 36.526  7.337 -92.071  13.867 -98.601  142.464 29.996  135.934 36.526 Z M141.013 -2.98  115.616 -28.377 V-9.994 L73.772 -51.839 V-56.515 Q73.772 -60.304 71.111 -62.925 Q68.451 -65.545 64.742 -65.545 Q63.613 -65.545 62.646 -65.384 Q61.678 -65.222 60.711 -64.9 L39.426 -86.104 H115.616 V-42.164 L141.013 -67.561 V-2.98 Z M13.867 15.644 V-86.104 H26.364 L115.455 2.986 V15.644 H68.934 V-6.931 Q74.498 -7.898 79.295 -10.881 Q84.092 -13.864 87.478 -18.46 L80.786 -25.152 Q78.045 -20.879 73.772 -18.46 Q69.499 -16.041 64.5 -16.041 Q56.518 -16.041 50.915 -21.645 Q45.311 -27.248 45.311 -35.23 H35.878 Q35.878 -24.507 42.731 -16.565 Q49.584 -8.624 60.146 -6.931 V15.644 H13.867 Z M55.228 -44.179 V-35.23 Q55.228 -31.36 57.929 -28.659 Q60.63 -25.958 64.5 -25.958 Q66.354 -25.958 68.007 -26.643 Q69.66 -27.329 71.031 -28.457 L55.228 -44.179 Z"/></g><g id="Light-L" transform="matrix(1 0 0 1 1082.77 1556)"><path d="M131.406 29.394  12.082 -89.931  17.093 -94.942  136.417 24.383  131.406 29.394 Z M136.765 -7.632  114.314 -30.083 V-12.32 L75.539 -51.126 V-55.957 Q75.539 -59.808 72.863 -62.459 Q70.187 -65.111 66.416 -65.111 Q65.257 -65.111 64.243 -64.934 Q63.229 -64.757 62.168 -64.497 L43.426 -83.158 H114.314 V-40.489 L136.765 -62.94 V-7.632 Z M18.457 12.698 V-83.034 H29 L114.091 2.056 V12.698 H69.741 V-7.52 Q75.335 -8.27 80.194 -11.145 Q85.053 -14.019 88.439 -18.584 L83.143 -23.911 Q80.216 -19.607 75.788 -17.282 Q71.359 -14.956 66.237 -14.956 Q58.038 -14.956 52.14 -20.528 Q46.242 -26.101 46.024 -34.238 H38.39 Q38.762 -23.856 45.631 -16.364 Q52.499 -8.872 62.844 -7.551 V12.698 H18.457 Z M56.934 -45.079 V-35.23 Q56.934 -31.329 59.635 -28.628 Q62.336 -25.927 66.237 -25.927 Q68.246 -25.927 70.054 -26.674 Q71.862 -27.422 73.326 -28.799 L56.934 -45.079 Z"/></g><g id="Thin-L" transform="matrix(1 0 0 1 787.282 1556)"><path d="M126.879 22.262  16.826 -87.791  20.317 -91.283  130.371 18.77  126.879 22.262 Z M132.517 -12.283  113.011 -31.788 V-14.646 L77.307 -50.412 V-55.399 Q77.307 -59.312 74.615 -61.994 Q71.924 -64.677 68.091 -64.677 Q66.9 -64.677 65.84 -64.484 Q64.779 -64.292 63.626 -64.094 L47.426 -80.213 H113.011 V-38.815 L132.517 -58.32 V-12.283 Z M23.046 9.753 V-79.964 H31.636 L112.726 1.126 V9.753 H70.547 V-8.109 Q76.172 -8.642 81.093 -11.408 Q86.014 -14.174 89.401 -18.708 L85.5 -22.671 Q82.386 -18.336 77.803 -16.103 Q73.22 -13.871 67.973 -13.871 Q59.557 -13.871 53.364 -19.412 Q47.172 -24.953 46.738 -33.245 H40.902 Q41.646 -23.204 48.53 -16.162 Q55.414 -9.12 65.542 -8.171 V9.753 H23.046 Z M58.639 -45.978 V-35.23 Q58.639 -31.298 61.34 -28.597 Q64.041 -25.896 67.973 -25.896 Q70.137 -25.896 72.1 -26.706 Q74.063 -27.515 75.62 -29.14 L58.639 -45.978 Z"/></g><g id="Ultralight-L" transform="matrix(1 0 0 1 491.205 1556)"><path d="M124.163 17.983  19.672 -86.507  22.253 -89.087  126.743 15.403  124.163 17.983 Z M129.968 -15.074  112.23 -32.811 V-16.041 L78.368 -49.984 V-55.064 Q78.368 -59.014 75.667 -61.715 Q72.966 -64.416 69.096 -64.416 Q67.886 -64.416 66.798 -64.215 Q65.709 -64.013 64.5 -63.852 L49.826 -78.445 H112.23 V-37.81 L129.968 -55.547 V-15.074 Z M25.8 7.985 V-78.122 H33.218 L111.907 0.568 V7.985 H71.031 V-8.462 Q76.674 -8.866 81.633 -11.567 Q86.591 -14.267 89.978 -18.782 L86.914 -21.927 Q83.689 -17.573 79.013 -15.396 Q74.336 -13.219 69.015 -13.219 Q60.469 -13.219 54.099 -18.742 Q47.73 -24.265 47.166 -32.65 H42.409 Q43.376 -22.814 50.27 -16.041 Q57.163 -9.269 67.161 -8.543 V7.985 H25.8 Z M59.663 -46.517 V-35.23 Q59.663 -31.279 62.363 -28.578 Q65.064 -25.877 69.015 -25.877 Q71.273 -25.877 73.328 -26.724 Q75.384 -27.571 76.997 -29.344 L59.663 -46.517 Z"/></g><g id="Bold-M" transform="matrix(1 0 0 1 2281.8 1126)"><path d="M103.375 22.02  2.375 -79.23  10.375 -87.23  111.625 14.02  103.375 22.02 Z M112.875 -8.98  93.5 -28.355 V-17.355 L59.125 -51.667 V-52.605 Q59.125 -55.417 57.062 -57.324 Q55 -59.23 52.188 -59.48 Q52 -59.48 51.781 -59.417 Q51.562 -59.355 51.375 -59.417 L32.375 -78.355 H93.5 V-42.23 L112.875 -61.605 V-8.98 Z M7.25 7.895 V-78.105 H19.5 L93 -4.605 V7.895 H55.188 V-11.48 Q59.25 -12.542 62.719 -14.917 Q66.188 -17.292 68.625 -20.855 L63.625 -25.917 Q61.5 -22.292 57.875 -20.042 Q54.25 -17.792 50 -17.792 Q43.625 -17.792 39.094 -22.386 Q34.562 -26.98 34.562 -33.355 H27.5 Q27.5 -25.355 32.344 -19.324 Q37.188 -13.292 44.812 -11.417 V7.895 H7.25 Z M40.625 -40.855 V-33.355 Q40.625 -29.48 43.375 -26.73 Q46.125 -23.98 50 -23.98 Q51.562 -23.98 53 -24.386 Q54.438 -24.792 55.812 -25.667 L40.625 -40.855 Z"/></g><g id="Semibold-M" transform="matrix(1 0 0 1 1985.97 1126)"><path d="M102.56 20.933  3.462 -78.306  10.864 -85.708  110.103 13.531  102.56 20.933 Z M111.027 -8.98  91.652 -28.355 V-18.17 L59.234 -50.526 V-51.79 Q59.234 -54.983 56.9 -57.215 Q54.565 -59.447 51.372 -59.589 Q51.076 -59.589 50.83 -59.526 Q50.584 -59.464 50.288 -59.472 L33.19 -76.507 H91.652 V-42.23 L111.027 -61.605 V-8.98 Z M9.098 6.047 V-76.366 H20.206 L91.261 -5.311 V6.047 H54.372 V-11.317 Q58.652 -12.216 62.338 -14.537 Q66.025 -16.858 68.679 -20.42 L63.788 -25.32 Q61.5 -21.858 57.848 -19.771 Q54.196 -17.684 50 -17.684 Q43.19 -17.684 38.387 -22.522 Q33.584 -27.36 33.584 -34.17 H26.685 Q26.685 -25.627 32.018 -19.269 Q37.35 -12.912 45.628 -11.254 V6.047 H9.098 Z M40.625 -41.072 V-34.17 Q40.625 -30.295 43.375 -27.545 Q46.125 -24.795 50 -24.795 Q51.454 -24.795 52.755 -25.201 Q54.057 -25.608 55.323 -26.374 L40.625 -41.072 Z"/></g><g id="Medium-M" transform="matrix(1 0 0 1 1689.91 1126)"><path d="M101.948 20.118  4.277 -77.613  11.231 -84.567  108.962 13.164  101.948 20.118 Z M109.641 -8.98  90.266 -28.355 V-18.782 L59.315 -49.67 V-51.178 Q59.315 -54.657 56.777 -57.133 Q54.239 -59.61 50.761 -59.67 Q50.383 -59.67 50.117 -59.608 Q49.85 -59.545 49.473 -59.513 L33.802 -75.121 H90.266 V-42.23 L109.641 -61.605 V-8.98 Z M10.484 4.661 V-75.061 H20.736 L89.957 -5.841 V4.661 H53.761 V-11.195 Q58.204 -11.972 62.053 -14.252 Q65.902 -16.532 68.72 -20.094 L63.91 -24.871 Q61.5 -21.532 57.828 -19.567 Q54.155 -17.602 50 -17.602 Q42.864 -17.602 37.857 -22.624 Q32.85 -27.646 32.85 -34.782 H26.073 Q26.073 -25.83 31.773 -19.229 Q37.473 -12.627 46.239 -11.132 V4.661 H10.484 Z M40.625 -41.235 V-34.782 Q40.625 -30.907 43.375 -28.157 Q46.125 -25.407 50 -25.407 Q51.372 -25.407 52.572 -25.813 Q53.772 -26.219 54.956 -26.904 L40.625 -41.235 Z"/></g><g id="Regular-M" transform="matrix(1 0 0 1 1394.06 1126)"><path d="M101.5 19.52  4.875 -77.105  11.5 -83.73  108.125 12.895  101.5 19.52 Z M108.625 -8.98  89.25 -28.355 V-19.23 L59.375 -49.042 V-50.73 Q59.375 -54.417 56.688 -57.074 Q54 -59.73 50.312 -59.73 Q49.875 -59.73 49.594 -59.667 Q49.312 -59.605 48.875 -59.542 L34.25 -74.105 H89.25 V-42.23 L108.625 -61.605 V-8.98 Z M11.5 3.645 V-74.105 H21.125 L89 -6.23 V3.645 H53.312 V-11.105 Q57.875 -11.792 61.844 -14.042 Q65.812 -16.292 68.75 -19.855 L64 -24.542 Q61.5 -21.292 57.812 -19.417 Q54.125 -17.542 50 -17.542 Q42.625 -17.542 37.469 -22.699 Q32.312 -27.855 32.312 -35.23 H25.625 Q25.625 -25.98 31.594 -19.199 Q37.562 -12.417 46.688 -11.042 V3.645 H11.5 Z M40.625 -41.355 V-35.23 Q40.625 -31.355 43.375 -28.605 Q46.125 -25.855 50 -25.855 Q51.312 -25.855 52.438 -26.261 Q53.562 -26.667 54.688 -27.292 L40.625 -41.355 Z"/></g><g id="Light-M" transform="matrix(1 0 0 1 1098.18 1126)"><path d="M98.856 13.943  8.986 -75.927  13.952 -80.893  103.822 8.977  98.856 13.943 Z M105.332 -13.067  88.24 -30.158 V-20.071 L60.072 -48.201 V-50.634 Q60.072 -54.081 57.565 -56.569 Q55.058 -59.057 51.611 -59.057 Q51.005 -59.057 50.519 -58.982 Q50.034 -58.908 49.476 -58.797 L36.39 -71.821 H88.24 V-40.403 L105.332 -57.494 V-13.067 Z M15.058 1.361 V-71.725 H23.12 L87.942 -6.903 V1.361 H53.938 V-12.235 Q58.428 -12.802 62.373 -14.968 Q66.317 -17.134 69.207 -20.672 L65.442 -24.398 Q62.942 -21.124 59.207 -19.297 Q55.471 -17.47 51.346 -17.47 Q44.139 -17.47 38.995 -22.386 Q33.851 -27.302 33.635 -34.461 H28.245 Q28.534 -25.764 34.346 -19.523 Q40.159 -13.283 48.779 -12.196 V1.361 H15.058 Z M42.62 -42.293 V-35.23 Q42.62 -31.619 45.178 -29.062 Q47.736 -26.504 51.346 -26.504 Q52.827 -26.504 54.12 -26.982 Q55.414 -27.461 56.563 -28.374 L42.62 -42.293 Z"/></g><g id="Thin-M" transform="matrix(1 0 0 1 802.565 1126)"><path d="M96.212 8.366  13.096 -74.749  16.404 -78.057  99.519 5.059  96.212 8.366 Z M102.038 -17.153  87.231 -31.961 V-20.913 L60.769 -47.36 V-50.538 Q60.769 -53.744 58.442 -56.064 Q56.115 -58.384 52.909 -58.384 Q52.135 -58.384 51.445 -58.297 Q50.755 -58.211 50.077 -58.052 L38.529 -69.538 H87.231 V-38.576 L102.038 -53.384 V-17.153 Z M18.615 -0.922 V-69.345 H25.115 L86.885 -7.576 V-0.922 H54.562 V-13.365 Q58.981 -13.812 62.901 -15.893 Q66.822 -17.975 69.663 -21.49 L66.885 -24.254 Q64.385 -20.956 60.601 -19.177 Q56.817 -17.398 52.692 -17.398 Q45.654 -17.398 40.522 -22.074 Q35.389 -26.749 34.957 -33.691 H30.865 Q31.442 -25.547 37.099 -19.848 Q42.755 -14.148 50.87 -13.35 V-0.922 H18.615 Z M44.615 -43.23 V-35.23 Q44.615 -31.884 46.981 -29.518 Q49.346 -27.153 52.692 -27.153 Q54.341 -27.153 55.803 -27.703 Q57.264 -28.254 58.438 -29.456 L44.615 -43.23 Z"/></g><g id="Ultralight-M" transform="matrix(1 0 0 1 506.415 1126)"><path d="M94.625 5.02  15.562 -74.042  17.875 -76.355  96.938 2.708  94.625 5.02 Z M100.062 -19.605  86.625 -33.042 V-21.417 L61.188 -46.855 V-50.48 Q61.188 -53.542 58.969 -55.761 Q56.75 -57.98 53.688 -57.98 Q52.812 -57.98 52 -57.886 Q51.188 -57.792 50.438 -57.605 L39.812 -68.167 H86.625 V-37.48 L100.062 -50.917 V-19.605 Z M20.75 -2.292 V-67.917 H26.312 L86.25 -7.98 V-2.292 H54.938 V-14.042 Q59.312 -14.417 63.219 -16.449 Q67.125 -18.48 69.938 -21.98 L67.75 -24.167 Q65.25 -20.855 61.438 -19.105 Q57.625 -17.355 53.5 -17.355 Q46.562 -17.355 41.438 -21.886 Q36.312 -26.417 35.75 -33.23 H32.438 Q33.188 -25.417 38.75 -20.042 Q44.312 -14.667 52.125 -14.042 V-2.292 H20.75 Z M45.812 -43.792 V-35.23 Q45.812 -32.042 48.062 -29.792 Q50.312 -27.542 53.5 -27.542 Q55.25 -27.542 56.812 -28.136 Q58.375 -28.73 59.562 -30.105 L45.812 -43.792 Z"/></g><g id="Bold-S" transform="matrix(1 0 0 1 2294.23 696)"><path d="M79.689 6.883  4.833 -68.072  10.652 -73.891  85.705 1.064  79.689 6.883 Z M87.48 -17.379  73.772 -31.088 V-20.14 L46.551 -47.213 V-47.361 Q46.551 -48.791 45.417 -49.851 Q44.283 -50.911 42.655 -51.109 Q42.705 -51.109 42.631 -51.109 Q42.557 -51.109 42.606 -51.158 L27.615 -66.1 H73.772 V-39.668 L87.48 -53.377 V-17.379 Z M12.032 -4.36 V-65.705 H18.837 L73.377 -11.264 V-4.36 H46.304 V-17.28 Q49.411 -18.316 52 -20.387 Q54.589 -22.458 56.216 -25.367 L52.863 -28.671 Q51.482 -25.515 48.721 -23.444 Q45.959 -21.373 42.606 -21.373 Q38.957 -21.373 36.171 -23.962 Q33.385 -26.551 32.793 -30.2 H28.108 Q28.601 -25.367 31.535 -21.891 Q34.469 -18.414 38.908 -17.231 V-4.36 H12.032 Z M35.998 -36.808 V-31.088 Q35.998 -28.425 37.971 -26.6 Q39.943 -24.776 42.606 -24.776 Q43.74 -24.776 44.825 -24.998 Q45.91 -25.22 46.896 -25.91 L35.998 -36.808 Z"/></g><g id="Semibold-S" transform="matrix(1 0 0 1 1998.1 696)"><path d="M79.046 6.025  5.69 -67.343  11.037 -72.69  84.505 0.678  79.046 6.025 Z M86.023 -17.379  72.314 -31.088 V-20.784 L46.637 -46.312 V-46.718 Q46.637 -48.448 45.288 -49.765 Q43.94 -51.083 42.012 -51.194 Q41.976 -51.194 41.88 -51.194 Q41.785 -51.194 41.748 -51.201 L28.258 -64.642 H72.314 V-39.668 L86.023 -53.377 V-17.379 Z M13.49 -5.818 V-64.333 H19.395 L72.005 -11.822 V-5.818 H45.661 V-17.152 Q48.94 -18.058 51.7 -20.087 Q54.46 -22.115 56.259 -25.024 L52.992 -28.2 Q51.482 -25.172 48.699 -23.23 Q45.916 -21.287 42.606 -21.287 Q38.614 -21.287 35.613 -24.069 Q32.613 -26.851 32.021 -30.843 H27.465 Q27.958 -25.582 31.278 -21.848 Q34.598 -18.114 39.551 -17.102 V-5.818 H13.49 Z M35.998 -36.98 V-31.731 Q35.998 -29.068 37.971 -27.243 Q39.943 -25.419 42.606 -25.419 Q43.654 -25.419 44.632 -25.641 Q45.61 -25.863 46.51 -26.467 L35.998 -36.98 Z"/></g><g id="Medium-S" transform="matrix(1 0 0 1 1701.85 696)"><path d="M78.563 5.382  6.333 -66.796  11.327 -71.79  83.604 0.389  78.563 5.382 Z M84.929 -17.379  71.22 -31.088 V-21.266 L46.701 -45.637 V-46.235 Q46.701 -48.191 45.192 -49.701 Q43.682 -51.211 41.53 -51.259 Q41.429 -51.259 41.317 -51.259 Q41.206 -51.259 41.105 -51.233 L28.741 -63.548 H71.22 V-39.668 L84.929 -53.377 V-17.379 Z M14.584 -6.912 V-63.304 H19.813 L70.976 -12.24 V-6.912 H45.179 V-17.055 Q48.586 -17.866 51.475 -19.862 Q54.364 -21.858 56.291 -24.767 L53.088 -27.846 Q51.482 -24.915 48.683 -23.069 Q45.884 -21.223 42.606 -21.223 Q38.357 -21.223 35.195 -24.15 Q32.034 -27.076 31.442 -31.326 H26.983 Q27.476 -25.743 31.085 -21.816 Q34.695 -17.889 40.033 -17.006 V-6.912 H14.584 Z M35.998 -37.108 V-32.213 Q35.998 -29.55 37.971 -27.726 Q39.943 -25.901 42.606 -25.901 Q43.59 -25.901 44.487 -26.123 Q45.385 -26.345 46.221 -26.885 L35.998 -37.108 Z"/></g><g id="Regular-S" transform="matrix(1 0 0 1 1405.73 696)"><path d="M78.21 4.91  6.805 -66.395  11.539 -71.129  82.944 0.176  78.21 4.91 Z M84.127 -17.379  70.418 -31.088 V-21.62 L46.748 -45.142 V-45.881 Q46.748 -48.002 45.121 -49.654 Q43.494 -51.306 41.176 -51.306 Q41.028 -51.306 40.905 -51.306 Q40.781 -51.306 40.634 -51.257 L29.094 -62.746 H70.418 V-39.668 L84.127 -53.377 V-17.379 Z M15.386 -7.714 V-62.549 H20.12 L70.221 -12.546 V-7.714 H44.825 V-16.984 Q48.326 -17.724 51.31 -19.697 Q54.293 -21.669 56.315 -24.578 L53.159 -27.587 Q51.482 -24.726 48.671 -22.951 Q45.861 -21.176 42.606 -21.176 Q38.168 -21.176 34.889 -24.209 Q31.609 -27.241 31.018 -31.679 H26.629 Q27.122 -25.861 30.944 -21.792 Q34.765 -17.724 40.387 -16.935 V-7.714 H15.386 Z M35.998 -37.202 V-32.567 Q35.998 -29.904 37.971 -28.08 Q39.943 -26.255 42.606 -26.255 Q43.543 -26.255 44.381 -26.477 Q45.22 -26.699 46.009 -27.192 L35.998 -37.202 Z"/></g><g id="Light-S" transform="matrix(1 0 0 1 1109.75 696)"><path d="M76.123 0.51  10.049 -65.466  13.474 -68.891  79.548 -2.915  76.123 0.51 Z M81.529 -20.603  69.622 -32.51 V-22.284 L47.298 -44.478 V-45.806 Q47.298 -47.736 45.813 -49.256 Q44.328 -50.775 42.2 -50.775 Q41.919 -50.775 41.635 -50.765 Q41.351 -50.756 41.108 -50.669 L30.783 -60.944 H69.622 V-38.227 L81.529 -50.134 V-20.603 Z M18.193 -9.516 V-60.671 H21.694 L69.386 -13.077 V-9.516 H45.318 V-17.876 Q48.762 -18.521 51.727 -20.427 Q54.691 -22.333 56.675 -25.223 L54.297 -27.473 Q52.62 -24.594 49.772 -22.856 Q46.923 -21.119 43.668 -21.119 Q39.363 -21.119 36.093 -23.962 Q32.823 -26.805 32.061 -31.073 H28.696 Q29.417 -25.69 33.115 -22.048 Q36.814 -18.407 42.037 -17.845 V-9.516 H18.193 Z M37.572 -37.942 V-32.567 Q37.572 -30.113 39.393 -28.44 Q41.214 -26.767 43.668 -26.767 Q44.738 -26.767 45.709 -27.046 Q46.68 -27.325 47.488 -28.046 L37.572 -37.942 Z"/></g><g id="Thin-S" transform="matrix(1 0 0 1 814.015 696)"><path d="M74.037 -3.89  13.292 -64.537  15.408 -66.654  76.154 -6.007  74.037 -3.89 Z M78.93 -23.827  68.825 -33.933 V-22.947 L47.848 -43.814 V-45.73 Q47.848 -47.471 46.505 -48.857 Q45.163 -50.244 43.224 -50.244 Q42.811 -50.244 42.365 -50.225 Q41.919 -50.206 41.582 -50.081 L32.47 -59.143 H68.825 V-36.785 L78.93 -46.891 V-23.827 Z M21 -11.317 V-58.794 H23.268 L68.552 -13.608 V-11.317 H45.811 V-18.767 Q49.199 -19.317 52.144 -21.157 Q55.09 -22.997 57.036 -25.868 L55.435 -27.359 Q53.758 -24.461 50.872 -22.762 Q47.985 -21.062 44.73 -21.062 Q40.558 -21.062 37.297 -23.716 Q34.037 -26.369 33.104 -30.466 H30.763 Q31.712 -25.519 35.287 -22.304 Q38.862 -19.09 43.687 -18.756 V-11.317 H21 Z M39.147 -38.682 V-32.567 Q39.147 -30.322 40.816 -28.8 Q42.485 -27.279 44.73 -27.279 Q45.933 -27.279 47.037 -27.615 Q48.14 -27.951 48.967 -28.899 L39.147 -38.682 Z"/></g><g id="Ultralight-S" transform="matrix(1 0 0 1 517.792 696)"><path d="M72.785 -6.53  15.238 -63.979  16.569 -65.311  74.117 -7.862  72.785 -6.53 Z M77.371 -25.762  68.347 -34.786 V-23.346 L48.178 -43.416 V-45.684 Q48.178 -47.312 46.921 -48.618 Q45.663 -49.925 43.839 -49.925 Q43.346 -49.925 42.803 -49.9 Q42.261 -49.876 41.866 -49.728 L33.483 -58.062 H68.347 V-35.92 L77.371 -44.945 V-25.762 Z M22.684 -12.398 V-57.667 H24.212 L68.051 -13.927 V-12.398 H46.107 V-19.302 Q49.46 -19.795 52.395 -21.595 Q55.329 -23.395 57.252 -26.255 L56.118 -27.291 Q54.441 -24.381 51.532 -22.705 Q48.622 -21.028 45.367 -21.028 Q41.275 -21.028 38.02 -23.568 Q34.765 -26.107 33.73 -30.101 H32.004 Q33.089 -25.417 36.59 -22.458 Q40.091 -19.499 44.677 -19.302 V-12.398 H22.684 Z M40.091 -39.126 V-32.567 Q40.091 -30.447 41.669 -29.017 Q43.247 -27.587 45.367 -27.587 Q46.65 -27.587 47.833 -27.956 Q49.017 -28.326 49.855 -29.411 L40.091 -39.126 Z"/></g></g></svg>