<svg xmlns="http://www.w3.org/2000/svg" height="40" viewBox="0 -960 960 960" width="40"><path d="M354.167-334.167h159.5q12.583 0 18.875-7.742 6.291-7.743 6.291-18.301 0-9.623-7.333-17.373-7.333-7.75-17.702-7.75H354.167q-10.817 0-18.409 7.763-7.591 7.762-7.591 17.52 0 11.55 7.591 18.717 7.592 7.166 18.409 7.166Zm-166.5 81.334q-22.975 0-39.071-16.021Q132.5-284.875 132.5-308v-344.833q0-22.975 16.096-39.071Q164.692-708 187.667-708H772.5q22.975 0 39.071 16.096 16.096 16.096 16.096 39.071V-470q0 5.333-3.671 8.167-3.67 2.833-7.125 2.833-5.121 0-8.746-3t-3.625-8.667v-182.166q0-12-10-22t-22-10H187.667q-12 0-22 10t-10 22V-308q0 12 10 22t22 10h326.166q4.359 0 7.763 3.441t3.404 7.854q0 5.372-3.404 8.622t-7.763 3.25H187.667Zm460.198 119.166q-13.365 0-25.198-12.255-11.834-12.254-11.834-24.911v-103.404q0-13.596 11.75-24.763 11.75-11.167 25.517-11.167h3.733v-40.543q0-28.123 19.584-48.29 19.583-20.167 47.666-20.167 28.084 0 48.084 20.167 20 20.167 20 48.29v40.543h3.2q12.77 0 24.368 11.098 11.598 11.098 11.598 24.736v103.404q0 12.615-11.598 24.939-11.598 12.323-24.358 12.323H647.865Zm31.802-176.5H760v-40.415q0-17.118-12.167-29.018-12.166-11.9-28.75-11.9-16.583 0-28 11.623-11.416 11.623-11.416 29.544v40.166Zm-440.788-266q10.454 0 17.954-7.283 7.5-7.284 7.5-18.084 0-10.799-7.653-18.299-7.654-7.5-17.892-7.5-10.621 0-18.121 7.65-7.5 7.65-7.5 17.883 0 11.3 7.628 18.467 7.629 7.166 18.084 7.166Zm0 121.334q10.454 0 17.954-7.629t7.5-18.083q0-10.455-7.653-17.955-7.654-7.5-17.892-7.5-10.621 0-18.121 7.654-7.5 7.653-7.5 17.891 0 10.622 7.628 18.122 7.629 7.5 18.084 7.5Zm120.666-121.334q10.455 0 17.955-7.283 7.5-7.284 7.5-18.084 0-10.799-7.654-18.299-7.653-7.5-17.891-7.5-10.622 0-18.122 7.65t-7.5 17.883q0 11.3 7.629 18.467 7.629 7.166 18.083 7.166Zm0 121.334q10.455 0 17.955-7.629 7.5-7.629 7.5-18.083 0-10.455-7.654-17.955-7.653-7.5-17.891-7.5-10.622 0-18.122 7.654-7.5 7.653-7.5 17.891 0 10.622 7.629 18.122t18.083 7.5Zm120.667-121.334q10.455 0 17.955-7.283 7.5-7.284 7.5-18.084 0-10.799-7.654-18.299t-17.892-7.5q-10.621 0-18.121 7.65-7.5 7.65-7.5 17.883 0 11.3 7.629 18.467 7.628 7.166 18.083 7.166Zm0 121.334q10.455 0 17.955-7.629 7.5-7.629 7.5-18.083 0-10.455-7.654-17.955-7.654-7.5-17.892-7.5-10.621 0-18.121 7.654-7.5 7.653-7.5 17.891 0 10.622 7.629 18.122 7.628 7.5 18.083 7.5Zm120.667-121.334q10.454 0 17.954-7.283 7.5-7.284 7.5-18.084 0-10.799-7.653-18.299-7.654-7.5-17.892-7.5-10.621 0-18.121 7.65-7.5 7.65-7.5 17.883 0 11.3 7.628 18.467 7.629 7.166 18.084 7.166Zm0 121.334q10.454 0 17.954-7.629t7.5-18.083q0-10.455-7.653-17.955-7.654-7.5-17.892-7.5-10.621 0-18.121 7.654-7.5 7.653-7.5 17.891 0 10.622 7.628 18.122 7.629 7.5 18.084 7.5Zm120.666-121.334q10.455 0 17.955-7.283 7.5-7.284 7.5-18.084 0-10.799-7.654-18.299-7.653-7.5-17.891-7.5-10.622 0-18.122 7.65t-7.5 17.883q0 11.3 7.629 18.467 7.629 7.166 18.083 7.166Zm-.09 67.167q-10.622 0-18.122 7.65-7.5 7.651-7.5 17.884 0 11.299 7.629 18.466 7.629 7.167 18.083 7.167 10.455 0 17.955-7.284 7.5-7.284 7.5-18.083 0-10.8-7.654-18.3-7.653-7.5-17.891-7.5ZM480.5-480.833Z"/></svg>