<svg xmlns="http://www.w3.org/2000/svg" version="1.1" width="3300" height="2000"><g id="Notes"><style>
    text {
      font-family: monospace;
      text-anchor: middle;
    }
    text.emphasis {
      font-weight:bold;
    }
    text.lanchor {
      text-anchor: start;
    }
  </style><rect height="2200" id="artboard" fill="white" width="3300" x="0" y="0"/><line id="" style="fill:none;stroke:black;stroke-width:0.5;" x1="263" x2="3036" y1="292" y2="292"/><text class="lanchor emphasis" transform="matrix(1 0 0 1 263 322)">Weight/Scale Variations</text><text transform="matrix(1 0 0 1 559.711 322)">Ultralight</text><text transform="matrix(1 0 0 1 856.422 322)">Thin</text><text transform="matrix(1 0 0 1 1153.13 322)">Light</text><text transform="matrix(1 0 0 1 1449.84 322)">Regular</text><text transform="matrix(1 0 0 1 1746.56 322)">Medium</text><text transform="matrix(1 0 0 1 2043.27 322)">Semibold</text><text transform="matrix(1 0 0 1 2339.98 322)">Bold</text><text transform="matrix(1 0 0 1 2636.69 322)">Heavy</text><text transform="matrix(1 0 0 1 2933.4 322)">Black</text><text id="template-version" style="text-anchor: end;" transform="matrix(1 0 0 1 3036 1933)">Template v.1.0</text><text class="lanchor" transform="matrix(1 0 0 1 263 726)">Small</text><text class="lanchor" transform="matrix(1 0 0 1 263 1156)">Medium</text><text class="lanchor" transform="matrix(1 0 0 1 263 1586)">Large</text></g><g id="Guides"><g id="H-reference" style="fill:#27AAE1;stroke:none;" transform="matrix(1 0 0 1 339 696)"><path d="M 54.9316 0 L 57.666 0 L 30.5664 -70.459 L 28.0762 -70.459 L 0.976562 0 L 3.66211 0 L 12.9395 -24.4629 L 45.7031 -24.4629 Z M 29.1992 -67.0898 L 29.4434 -67.0898 L 44.8242 -26.709 L 13.8184 -26.709 Z"/></g><line id="Baseline-S" style="fill:none;stroke:#27AAE1;opacity:1;stroke-width:0.577;" x1="263" x2="3036" y1="696" y2="696"/><line id="Capline-S" style="fill:none;stroke:#27AAE1;opacity:1;stroke-width:0.577;" x1="263" x2="3036" y1="625.541" y2="625.541"/><g id="H-reference" style="fill:#27AAE1;stroke:none;" transform="matrix(1 0 0 1 339 1126)"><path d="M 54.9316 0 L 57.666 0 L 30.5664 -70.459 L 28.0762 -70.459 L 0.976562 0 L 3.66211 0 L 12.9395 -24.4629 L 45.7031 -24.4629 Z M 29.1992 -67.0898 L 29.4434 -67.0898 L 44.8242 -26.709 L 13.8184 -26.709 Z"/></g><line id="Baseline-M" style="fill:none;stroke:#27AAE1;opacity:1;stroke-width:0.577;" x1="263" x2="3036" y1="1126" y2="1126"/><line id="Capline-M" style="fill:none;stroke:#27AAE1;opacity:1;stroke-width:0.577;" x1="263" x2="3036" y1="1055.54" y2="1055.54"/><g id="H-reference" style="fill:#27AAE1;stroke:none;" transform="matrix(1 0 0 1 339 1556)"><path d="M 54.9316 0 L 57.666 0 L 30.5664 -70.459 L 28.0762 -70.459 L 0.976562 0 L 3.66211 0 L 12.9395 -24.4629 L 45.7031 -24.4629 Z M 29.1992 -67.0898 L 29.4434 -67.0898 L 44.8242 -26.709 L 13.8184 -26.709 Z"/></g><line id="Baseline-L" style="fill:none;stroke:#27AAE1;opacity:1;stroke-width:0.577;" x1="263" x2="3036" y1="1556" y2="1556"/><line id="Capline-L" style="fill:none;stroke:#27AAE1;opacity:1;stroke-width:0.577;" x1="263" x2="3036" y1="1485.54" y2="1485.54"/><rect height="119.336" id="left-margin" style="fill:darkred;stroke:none;opacity:0.4;" width="12.4512" x="1394.06" y="1030.79"/><rect height="119.336" id="right-margin" style="fill:darkgreen;stroke:none;opacity:0.4;" width="12.4512" x="1502.5112" y="1030.79"/><rect x="1406.5112" y="1045" width="96" height="96" fill="none" stroke="blue" stroke-dasharray="5"/><rect x="1394.06" y="1030.79" width="120.9024" height="119.336" fill="none" stroke="blue"/></g><g id="Symbols"><g id="Bold-L" transform="matrix(1 0 0 1 2266 1556)"><path d="M32.089 -15.396 H40.151 V-29.747 H64.339 V-55.064 H32.089 V-15.396 Z M71.595 -15.396 H79.657 V-55.064 H71.595 V-15.396 Z M88.365 -15.396 H95.621 V-44.099 L114.326 -15.396 H122.711 V-55.064 H115.455 V-27.49 L95.944 -55.064 H88.365 V-15.396 Z M40.151 -37.81 V-47.001 H56.276 V-37.81 H40.151 Z M9.353 19.918 V-90.539 H145.609 V19.918 H9.353 Z M24.026 5.244 H130.774 V-75.704 H24.026 V5.244 Z"/></g><g id="Semibold-L" transform="matrix(1 0 0 1 1970.27 1556)"><path d="M32.019 -15.396 H40.081 V-29.747 H64.269 V-55.064 H32.019 V-15.396 Z M71.595 -15.396 H79.657 V-55.064 H71.595 V-15.396 Z M88.435 -15.396 H95.691 V-44.099 L114.396 -15.396 H122.781 V-55.064 H115.525 V-27.49 L95.944 -55.064 H88.435 V-15.396 Z M40.081 -37.81 V-47.001 H56.206 V-37.81 H40.081 Z M9.983 19.216 V-89.768 H144.908 V19.216 H9.983 Z M23.395 5.805 H131.405 V-76.265 H23.395 V5.805 Z"/></g><g id="Medium-L" transform="matrix(1 0 0 1 1674.31 1556)"><path d="M31.966 -15.396 H40.029 V-29.747 H64.216 V-55.064 H31.966 V-15.396 Z M71.595 -15.396 H79.657 V-55.064 H71.595 V-15.396 Z M88.488 -15.396 H95.744 V-44.099 L114.449 -15.396 H122.834 V-55.064 H115.578 V-27.49 L95.944 -55.064 H88.488 V-15.396 Z M40.029 -37.81 V-47.001 H56.154 V-37.81 H40.029 Z M10.457 18.691 V-89.189 H144.382 V18.691 H10.457 Z M22.922 6.225 H131.878 V-76.685 H22.922 V6.225 Z"/></g><g id="Regular-L" transform="matrix(1 0 0 1 1378.56 1556)"><path d="M31.928 -15.396 H39.99 V-29.747 H64.177 V-55.064 H31.928 V-15.396 Z M71.595 -15.396 H79.657 V-55.064 H71.595 V-15.396 Z M88.526 -15.396 H95.782 V-44.099 L114.487 -15.396 H122.873 V-55.064 H115.616 V-27.49 L95.944 -55.064 H88.526 V-15.396 Z M39.99 -37.81 V-47.001 H56.115 V-37.81 H39.99 Z M10.804 18.305 V-88.765 H143.996 V18.305 H10.804 Z M22.575 6.534 H132.225 V-76.994 H22.575 V6.534 Z"/></g><g id="Light-L" transform="matrix(1 0 0 1 1082.77 1556)"><path d="M33.478 -16.513 H39.99 V-30.74 H63.743 V-53.947 H33.478 V-16.513 Z M72.215 -16.513 H78.727 V-53.947 H72.215 V-16.513 Z M89.581 -16.513 H95.658 V-44.967 L114.177 -16.513 H121.384 V-53.947 H115.244 V-26.374 L96.068 -53.947 H89.581 V-16.513 Z M39.99 -37.252 V-47.435 H57.231 V-37.252 H39.99 Z M14.029 15.08 V-85.54 H140.771 V15.08 H14.029 Z M23.443 5.665 H131.357 V-76.125 H23.443 V5.665 Z"/></g><g id="Thin-L" transform="matrix(1 0 0 1 787.282 1556)"><path d="M35.028 -17.629 H39.99 V-31.732 H63.309 V-52.831 H35.028 V-17.629 Z M72.835 -17.629 H77.797 V-52.831 H72.835 V-17.629 Z M90.635 -17.629 H95.534 V-45.835 L113.867 -17.629 H119.896 V-52.831 H114.872 V-25.257 L96.192 -52.831 H90.635 V-17.629 Z M39.99 -36.694 V-47.87 H58.348 V-36.694 H39.99 Z M17.254 11.855 V-82.315 H137.546 V11.855 H17.254 Z M24.312 4.797 H130.488 V-75.257 H24.312 V4.797 Z"/></g><g id="Ultralight-L" transform="matrix(1 0 0 1 491.205 1556)"><path d="M35.959 -18.299 H39.99 V-32.327 H63.049 V-52.161 H35.959 V-18.299 Z M73.207 -18.299 H77.239 V-52.161 H73.207 V-18.299 Z M91.267 -18.299 H95.46 V-46.356 L113.681 -18.299 H119.002 V-52.161 H114.649 V-24.587 L96.266 -52.161 H91.267 V-18.299 Z M39.99 -36.359 V-48.13 H59.017 V-36.359 H39.99 Z M19.189 9.92 V-80.38 H135.611 V9.92 H19.189 Z M24.832 4.276 H129.968 V-74.736 H24.832 V4.276 Z"/></g><g id="Bold-M" transform="matrix(1 0 0 1 2281.8 1126)"><path d="M26.5 -20.23 H34 V-30.23 H51.5 V-50.23 H26.5 V-20.23 Z M55.875 -20.23 H63.375 V-50.23 H55.875 V-20.23 Z M68.5 -20.23 H74.75 V-37.73 L86.625 -20.23 H93.5 V-50.23 H87.25 V-32.73 L75.25 -50.23 H68.5 V-20.23 Z M34 -37.73 V-42.73 H44 V-37.73 H34 Z M4.5 10.145 V-80.605 H115.5 V10.145 H4.5 Z M21.5 -6.855 H98.5 V-63.605 H21.5 V-6.855 Z"/></g><g id="Semibold-M" transform="matrix(1 0 0 1 1985.97 1126)"><path d="M26.337 -20.23 H33.837 V-30.23 H51.337 V-50.23 H26.337 V-20.23 Z M55.929 -20.23 H63.429 V-50.23 H55.929 V-20.23 Z M68.663 -20.23 H74.913 V-37.73 L86.897 -20.23 H93.663 V-50.23 H87.413 V-32.73 L75.359 -50.23 H68.663 V-20.23 Z M33.837 -37.73 V-42.73 H43.837 V-37.73 H33.837 Z M5.478 9.113 V-79.572 H114.522 V9.113 H5.478 Z M20.848 -6.257 H99.152 V-64.203 H20.848 V-6.257 Z"/></g><g id="Medium-M" transform="matrix(1 0 0 1 1689.91 1126)"><path d="M26.215 -20.23 H33.715 V-30.23 H51.215 V-50.23 H26.215 V-20.23 Z M55.97 -20.23 H63.47 V-50.23 H55.97 V-20.23 Z M68.785 -20.23 H75.035 V-37.73 L87.1 -20.23 H93.785 V-50.23 H87.535 V-32.73 L75.44 -50.23 H68.785 V-20.23 Z M33.715 -37.73 V-42.73 H43.715 V-37.73 H33.715 Z M6.212 8.338 V-78.798 H113.788 V8.338 H6.212 Z M20.359 -5.809 H99.641 V-64.651 H20.359 V-5.809 Z"/></g><g id="Regular-M" transform="matrix(1 0 0 1 1394.06 1126)"><path d="M26.125 -20.23 H33.625 V-30.23 H51.125 V-50.23 H26.125 V-20.23 Z M56 -20.23 H63.5 V-50.23 H56 V-20.23 Z M68.875 -20.23 H75.125 V-37.73 L87.25 -20.23 H93.875 V-50.23 H87.625 V-32.73 L75.5 -50.23 H68.875 V-20.23 Z M33.625 -37.73 V-42.73 H43.625 V-37.73 H33.625 Z M6.75 7.77 V-78.23 H113.25 V7.77 H6.75 Z M20 -5.48 H100 V-64.98 H20 V-5.48 Z"/></g><g id="Light-M" transform="matrix(1 0 0 1 1098.18 1126)"><path d="M27.087 -20.999 H33.048 V-31.192 H50.548 V-49.461 H27.087 V-20.999 Z M56.288 -20.999 H62.25 V-49.461 H56.288 V-20.999 Z M69.452 -20.999 H74.644 V-39.557 L87.154 -20.999 H92.913 V-49.461 H87.721 V-30.903 L75.212 -49.461 H69.452 V-20.999 Z M33.048 -37.153 V-43.499 H44.587 V-37.153 H33.048 Z M9.25 5.27 V-75.73 H110.75 V5.27 H9.25 Z M20 -5.48 H100 V-64.98 H20 V-5.48 Z"/></g><g id="Thin-M" transform="matrix(1 0 0 1 802.565 1126)"><path d="M28.048 -21.768 H32.471 V-32.153 H49.971 V-48.691 H28.048 V-21.768 Z M56.577 -21.768 H61 V-48.691 H56.577 V-21.768 Z M70.029 -21.768 H74.163 V-41.384 L87.058 -21.768 H91.952 V-48.691 H87.817 V-29.076 L74.923 -48.691 H70.029 V-21.768 Z M32.471 -36.576 V-44.268 H45.548 V-36.576 H32.471 Z M11.75 2.77 V-73.23 H108.25 V2.77 H11.75 Z M20 -5.48 H100 V-64.98 H20 V-5.48 Z"/></g><g id="Ultralight-M" transform="matrix(1 0 0 1 506.415 1126)"><path d="M28.625 -22.23 H32.125 V-32.73 H49.625 V-48.23 H28.625 V-22.23 Z M56.75 -22.23 H60.25 V-48.23 H56.75 V-22.23 Z M70.375 -22.23 H73.875 V-42.48 L87 -22.23 H91.375 V-48.23 H87.875 V-27.98 L74.75 -48.23 H70.375 V-22.23 Z M32.125 -36.23 V-44.73 H46.125 V-36.23 H32.125 Z M13.25 1.27 V-71.73 H106.75 V1.27 H13.25 Z M20 -5.48 H100 V-64.98 H20 V-5.48 Z"/></g><g id="Bold-S" transform="matrix(1 0 0 1 2294.23 696)"><path d="M24.854 -25.762 H29.588 V-30.496 H39.056 V-44.698 H24.854 V-25.762 Z M44.677 -25.762 H49.411 V-44.698 H44.677 V-25.762 Z M55.625 -25.762 H60.358 V-35.23 L64.402 -25.762 H69.827 V-44.698 H65.093 V-35.23 L60.753 -44.698 H55.625 V-25.762 Z M29.588 -35.23 V-39.964 H34.322 V-35.23 H29.588 Z M5.128 -2.585 V-67.875 H89.552 V-2.585 H5.128 Z M17.753 -15.209 H76.928 V-55.251 H17.753 V-15.209 Z"/></g><g id="Semibold-S" transform="matrix(1 0 0 1 1998.1 696)"><path d="M24.725 -25.762 H29.459 V-30.496 H38.927 V-44.698 H24.725 V-25.762 Z M44.72 -25.762 H49.454 V-44.698 H44.72 V-25.762 Z M55.753 -25.762 H60.487 V-35.23 L64.617 -25.762 H69.955 V-44.698 H65.221 V-35.23 L60.839 -44.698 H55.753 V-25.762 Z M29.459 -35.23 V-39.964 H34.193 V-35.23 H29.459 Z M5.9 -3.4 V-67.06 H88.78 V-3.4 H5.9 Z M17.238 -14.738 H77.442 V-55.722 H17.238 V-14.738 Z"/></g><g id="Medium-S" transform="matrix(1 0 0 1 1701.85 696)"><path d="M24.628 -25.762 H29.362 V-30.496 H38.83 V-44.698 H24.628 V-25.762 Z M44.752 -25.762 H49.486 V-44.698 H44.752 V-25.762 Z M55.85 -25.762 H60.584 V-35.23 L64.777 -25.762 H70.052 V-44.698 H65.318 V-35.23 L60.903 -44.698 H55.85 V-25.762 Z M29.362 -35.23 V-39.964 H34.096 V-35.23 H29.362 Z M6.479 -4.011 V-66.449 H88.201 V-4.011 H6.479 Z M16.852 -14.384 H77.828 V-56.076 H16.852 V-14.384 Z"/></g><g id="Regular-S" transform="matrix(1 0 0 1 1405.73 696)"><path d="M24.558 -25.762 H29.292 V-30.496 H38.76 V-44.698 H24.558 V-25.762 Z M44.776 -25.762 H49.51 V-44.698 H44.776 V-25.762 Z M55.92 -25.762 H60.654 V-35.23 L64.895 -25.762 H70.122 V-44.698 H65.388 V-35.23 L60.95 -44.698 H55.92 V-25.762 Z M29.292 -35.23 V-39.964 H34.026 V-35.23 H29.292 Z M6.904 -4.459 V-66.001 H87.776 V-4.459 H6.904 Z M16.569 -14.124 H78.111 V-56.336 H16.569 V-14.124 Z"/></g><g id="Light-S" transform="matrix(1 0 0 1 1109.75 696)"><path d="M25.316 -26.369 H28.836 V-31.255 H38.304 V-44.091 H25.316 V-26.369 Z M45.003 -26.369 H48.523 V-44.091 H45.003 V-26.369 Z M56.376 -26.369 H60.275 V-36.672 L64.819 -26.369 H69.364 V-44.091 H65.464 V-33.788 L60.723 -44.091 H56.376 V-26.369 Z M28.836 -34.775 V-40.571 H34.784 V-34.775 H28.836 Z M8.876 -6.432 V-64.028 H85.804 V-6.432 H8.876 Z M16.569 -14.124 H78.111 V-56.336 H16.569 V-14.124 Z"/></g><g id="Thin-S" transform="matrix(1 0 0 1 814.015 696)"><path d="M26.075 -26.976 H28.381 V-32.013 H37.849 V-43.484 H26.075 V-26.976 Z M45.231 -26.976 H47.537 V-43.484 H45.231 V-26.976 Z M56.831 -26.976 H59.896 V-38.113 L64.744 -26.976 H68.605 V-43.484 H65.54 V-32.347 L60.495 -43.484 H56.831 V-26.976 Z M28.381 -34.32 V-41.178 H35.543 V-34.32 H28.381 Z M10.849 -8.404 V-62.056 H83.831 V-8.404 H10.849 Z M16.569 -14.124 H78.111 V-56.336 H16.569 V-14.124 Z"/></g><g id="Ultralight-S" transform="matrix(1 0 0 1 517.792 696)"><path d="M26.53 -27.34 H28.108 V-32.468 H37.576 V-43.12 H26.53 V-27.34 Z M45.367 -27.34 H46.946 V-43.12 H45.367 V-27.34 Z M57.104 -27.34 H59.668 V-38.978 L64.698 -27.34 H68.15 V-43.12 H65.586 V-31.482 L60.358 -43.12 H57.104 V-27.34 Z M28.108 -34.046 V-41.542 H35.998 V-34.046 H28.108 Z M12.032 -9.587 V-60.872 H82.648 V-9.587 H12.032 Z M16.569 -14.124 H78.111 V-56.336 H16.569 V-14.124 Z"/></g></g></svg>