<svg xmlns="http://www.w3.org/2000/svg" version="1.1" width="3300" height="2000"><g id="Notes"><style>
    text {
      font-family: monospace;
      text-anchor: middle;
    }
    text.emphasis {
      font-weight:bold;
    }
    text.lanchor {
      text-anchor: start;
    }
  </style><rect height="2200" id="artboard" fill="white" width="3300" x="0" y="0"/><line id="" style="fill:none;stroke:black;stroke-width:0.5;" x1="263" x2="3036" y1="292" y2="292"/><text class="lanchor emphasis" transform="matrix(1 0 0 1 263 322)">Weight/Scale Variations</text><text transform="matrix(1 0 0 1 559.711 322)">Ultralight</text><text transform="matrix(1 0 0 1 856.422 322)">Thin</text><text transform="matrix(1 0 0 1 1153.13 322)">Light</text><text transform="matrix(1 0 0 1 1449.84 322)">Regular</text><text transform="matrix(1 0 0 1 1746.56 322)">Medium</text><text transform="matrix(1 0 0 1 2043.27 322)">Semibold</text><text transform="matrix(1 0 0 1 2339.98 322)">Bold</text><text transform="matrix(1 0 0 1 2636.69 322)">Heavy</text><text transform="matrix(1 0 0 1 2933.4 322)">Black</text><text id="template-version" style="text-anchor: end;" transform="matrix(1 0 0 1 3036 1933)">Template v.1.0</text><text class="lanchor" transform="matrix(1 0 0 1 263 726)">Small</text><text class="lanchor" transform="matrix(1 0 0 1 263 1156)">Medium</text><text class="lanchor" transform="matrix(1 0 0 1 263 1586)">Large</text></g><g id="Guides"><g id="H-reference" style="fill:#27AAE1;stroke:none;" transform="matrix(1 0 0 1 339 696)"><path d="M 54.9316 0 L 57.666 0 L 30.5664 -70.459 L 28.0762 -70.459 L 0.976562 0 L 3.66211 0 L 12.9395 -24.4629 L 45.7031 -24.4629 Z M 29.1992 -67.0898 L 29.4434 -67.0898 L 44.8242 -26.709 L 13.8184 -26.709 Z"/></g><line id="Baseline-S" style="fill:none;stroke:#27AAE1;opacity:1;stroke-width:0.577;" x1="263" x2="3036" y1="696" y2="696"/><line id="Capline-S" style="fill:none;stroke:#27AAE1;opacity:1;stroke-width:0.577;" x1="263" x2="3036" y1="625.541" y2="625.541"/><g id="H-reference" style="fill:#27AAE1;stroke:none;" transform="matrix(1 0 0 1 339 1126)"><path d="M 54.9316 0 L 57.666 0 L 30.5664 -70.459 L 28.0762 -70.459 L 0.976562 0 L 3.66211 0 L 12.9395 -24.4629 L 45.7031 -24.4629 Z M 29.1992 -67.0898 L 29.4434 -67.0898 L 44.8242 -26.709 L 13.8184 -26.709 Z"/></g><line id="Baseline-M" style="fill:none;stroke:#27AAE1;opacity:1;stroke-width:0.577;" x1="263" x2="3036" y1="1126" y2="1126"/><line id="Capline-M" style="fill:none;stroke:#27AAE1;opacity:1;stroke-width:0.577;" x1="263" x2="3036" y1="1055.54" y2="1055.54"/><g id="H-reference" style="fill:#27AAE1;stroke:none;" transform="matrix(1 0 0 1 339 1556)"><path d="M 54.9316 0 L 57.666 0 L 30.5664 -70.459 L 28.0762 -70.459 L 0.976562 0 L 3.66211 0 L 12.9395 -24.4629 L 45.7031 -24.4629 Z M 29.1992 -67.0898 L 29.4434 -67.0898 L 44.8242 -26.709 L 13.8184 -26.709 Z"/></g><line id="Baseline-L" style="fill:none;stroke:#27AAE1;opacity:1;stroke-width:0.577;" x1="263" x2="3036" y1="1556" y2="1556"/><line id="Capline-L" style="fill:none;stroke:#27AAE1;opacity:1;stroke-width:0.577;" x1="263" x2="3036" y1="1485.54" y2="1485.54"/><rect height="119.336" id="left-margin" style="fill:darkred;stroke:none;opacity:0.4;" width="12.4512" x="1394.06" y="1030.79"/><rect height="119.336" id="right-margin" style="fill:darkgreen;stroke:none;opacity:0.4;" width="12.4512" x="1502.5112" y="1030.79"/><rect x="1406.5112" y="1045" width="96" height="96" fill="none" stroke="blue" stroke-dasharray="5"/><rect x="1394.06" y="1030.79" width="120.9024" height="119.336" fill="none" stroke="blue"/></g><g id="Symbols"><g id="Bold-L" transform="matrix(1 0 0 1 2266 1556)"><path d="M77.364 32.656 Q53.411 26.559 37.953 5.145 Q22.494 -16.27 22.494 -41.96 V-82.611 L77.4 -103.116 L132.467 -82.602 V-42.002 Q132.467 -27.732 128.194 -14.751 Q123.921 -1.771 115.294 8.791 L90.004 -15.557 Q87.128 -14.106 83.941 -13.139 Q80.754 -12.171 77.447 -12.171 Q67.534 -12.171 60.696 -18.925 Q53.858 -25.678 53.858 -35.633 Q53.858 -45.469 60.691 -52.363 Q67.526 -59.256 77.4 -59.256 Q87.274 -59.256 94.109 -52.363 Q100.943 -45.469 100.943 -35.552 Q100.943 -32.408 100.136 -29.223 Q99.33 -26.039 97.556 -23.701 L110.295 -11.446 Q114.165 -17.976 115.858 -25.686 Q117.551 -33.396 117.551 -41.972 V-72.656 L77.4 -87.233 L37.249 -72.578 V-42.03 Q37.249 -21.718 48.536 -5.536 Q59.824 10.646 77.432 17.579 Q81.189 16.531 86.914 13.145 Q92.638 9.759 95.702 6.534 L106.344 17.071 Q100.62 22.256 92.588 26.632 Q84.557 31.009 77.364 32.656 Z M77.444 -23.217 Q82.56 -23.217 86.228 -26.833 Q89.897 -30.449 89.897 -35.621 Q89.897 -40.793 86.184 -44.502 Q82.471 -48.211 77.356 -48.211 Q72.24 -48.211 68.572 -44.497 Q64.903 -40.784 64.903 -35.588 Q64.903 -30.392 68.616 -26.805 Q72.329 -23.217 77.444 -23.217 Z"/></g><g id="Semibold-L" transform="matrix(1 0 0 1 1970.27 1556)"><path d="M77.364 30.833 Q54.166 24.934 39.206 4.017 Q24.247 -16.9 24.247 -41.983 V-81.387 L77.4 -101.293 L130.644 -81.38 V-42.002 Q130.644 -28.573 126.792 -15.943 Q122.939 -3.313 114.312 7.249 L90.285 -15.838 Q87.338 -14.247 84.081 -13.209 Q80.824 -12.171 77.447 -12.171 Q67.534 -12.171 60.696 -18.925 Q53.858 -25.678 53.858 -35.633 Q53.858 -45.469 60.691 -52.363 Q67.526 -59.256 77.4 -59.256 Q87.274 -59.256 94.109 -52.363 Q100.943 -45.469 100.943 -35.552 Q100.943 -32.338 100.049 -29.083 Q99.155 -25.828 97.276 -23.35 L110.716 -10.464 Q114.586 -17.135 116.384 -25.244 Q118.182 -33.352 118.182 -41.985 V-73.146 L77.4 -87.934 L36.618 -73.102 V-42.018 Q36.618 -21.438 48.046 -4.94 Q59.473 11.557 77.432 18.14 Q81.54 17.022 87.685 13.355 Q93.83 9.689 97.244 6.253 L106.064 15.108 Q100.41 20.293 92.518 24.704 Q84.627 29.116 77.364 30.833 Z M77.435 -22.446 Q82.911 -22.446 86.789 -26.263 Q90.668 -30.08 90.668 -35.612 Q90.668 -41.144 86.754 -45.063 Q82.841 -48.982 77.365 -48.982 Q71.889 -48.982 68.011 -45.067 Q64.132 -41.153 64.132 -35.597 Q64.132 -30.042 68.046 -26.244 Q71.959 -22.446 77.435 -22.446 Z"/></g><g id="Medium-L" transform="matrix(1 0 0 1 1674.31 1556)"><path d="M77.364 29.466 Q54.732 23.714 40.147 3.17 Q25.562 -17.373 25.562 -42 V-80.468 L77.4 -99.926 L129.277 -80.464 V-42.002 Q129.277 -29.204 125.74 -16.837 Q122.203 -4.47 113.576 6.092 L90.495 -16.048 Q87.496 -14.352 84.186 -13.261 Q80.876 -12.171 77.447 -12.171 Q67.534 -12.171 60.696 -18.925 Q53.858 -25.678 53.858 -35.633 Q53.858 -45.469 60.691 -52.363 Q67.526 -59.256 77.4 -59.256 Q87.274 -59.256 94.109 -52.363 Q100.943 -45.469 100.943 -35.552 Q100.943 -32.285 99.983 -28.978 Q99.023 -25.671 97.066 -23.087 L111.031 -9.728 Q114.901 -16.504 116.778 -24.912 Q118.655 -33.319 118.655 -41.995 V-73.514 L77.4 -88.46 L36.145 -73.496 V-42.009 Q36.145 -21.228 47.677 -4.493 Q59.21 12.241 77.432 18.561 Q81.803 17.39 88.263 13.513 Q94.724 9.636 98.401 6.043 L105.854 13.636 Q100.252 18.82 92.466 23.258 Q84.679 27.696 77.364 29.466 Z M77.428 -21.867 Q83.173 -21.867 87.21 -25.835 Q91.247 -29.803 91.247 -35.605 Q91.247 -41.407 87.182 -45.483 Q83.118 -49.56 77.372 -49.56 Q71.627 -49.56 67.59 -45.495 Q63.553 -41.43 63.553 -35.604 Q63.553 -29.779 67.618 -25.823 Q71.682 -21.867 77.428 -21.867 Z"/></g><g id="Regular-L" transform="matrix(1 0 0 1 1378.56 1556)"><path d="M77.364 28.464 Q55.148 22.82 40.837 2.55 Q26.526 -17.72 26.526 -42.012 V-79.795 L77.4 -98.924 L128.274 -79.792 V-42.002 Q128.274 -29.667 124.969 -17.492 Q121.663 -5.318 113.036 5.244 L90.649 -16.202 Q87.612 -14.429 84.263 -13.3 Q80.915 -12.171 77.447 -12.171 Q67.534 -12.171 60.696 -18.925 Q53.858 -25.678 53.858 -35.633 Q53.858 -45.469 60.691 -52.363 Q67.526 -59.256 77.4 -59.256 Q87.274 -59.256 94.109 -52.363 Q100.943 -45.469 100.943 -35.552 Q100.943 -32.247 99.935 -28.901 Q98.927 -25.555 96.911 -22.894 L111.263 -9.188 Q115.133 -16.041 117.068 -24.668 Q119.002 -33.295 119.002 -42.002 V-73.784 L77.4 -88.846 L35.797 -73.784 V-42.002 Q35.797 -21.073 47.407 -4.166 Q59.017 12.742 77.432 18.869 Q81.996 17.66 88.688 13.629 Q95.379 9.598 99.249 5.889 L105.699 12.556 Q100.136 17.741 92.427 22.198 Q84.718 26.655 77.364 28.464 Z M77.423 -21.443 Q83.366 -21.443 87.518 -25.521 Q91.671 -29.6 91.671 -35.6 Q91.671 -41.599 87.496 -45.792 Q83.321 -49.984 77.377 -49.984 Q71.434 -49.984 67.282 -45.809 Q63.129 -41.633 63.129 -35.61 Q63.129 -29.586 67.304 -25.515 Q71.479 -21.443 77.423 -21.443 Z"/></g><g id="Light-L" transform="matrix(1 0 0 1 1082.77 1556)"><path d="M77.364 25.425 Q56.577 19.696 43.024 0.647 Q29.472 -18.402 29.472 -41.768 V-77.771 L77.4 -95.761 L125.328 -77.767 V-41.754 Q125.328 -30.411 122.271 -19.198 Q119.213 -7.985 111.423 2.267 L89.828 -18.621 Q87.028 -16.786 83.895 -15.688 Q80.761 -14.59 77.447 -14.59 Q68.583 -14.59 62.492 -20.637 Q56.4 -26.684 56.4 -35.54 Q56.4 -44.278 62.484 -50.433 Q68.567 -56.589 77.387 -56.589 Q86.207 -56.589 92.303 -50.433 Q98.4 -44.278 98.4 -35.49 Q98.4 -32.28 97.392 -29.274 Q96.384 -26.268 94.616 -23.732 L110.022 -8.785 Q114.016 -15.731 116.137 -24.203 Q118.258 -32.675 118.258 -41.754 V-73.288 L77.4 -88.07 L36.542 -73.288 V-41.754 Q36.542 -21.217 48.001 -4.553 Q59.46 12.11 77.432 18.063 Q81.903 16.885 87.819 13.371 Q93.736 9.858 97.544 6.385 L102.257 11.595 Q97.066 16.159 90.551 19.888 Q84.036 23.616 77.364 25.425 Z M77.423 -21.66 Q83.211 -21.66 87.27 -25.647 Q91.329 -29.635 91.329 -35.538 Q91.329 -41.32 87.248 -45.42 Q83.165 -49.519 77.377 -49.519 Q71.589 -49.519 67.53 -45.436 Q63.471 -41.354 63.471 -35.548 Q63.471 -29.621 67.552 -25.641 Q71.635 -21.66 77.423 -21.66 Z"/></g><g id="Thin-L" transform="matrix(1 0 0 1 787.282 1556)"><path d="M77.364 22.386 Q58.006 16.572 45.212 -1.256 Q32.417 -19.085 32.417 -41.524 V-75.748 L77.4 -92.598 L122.383 -75.742 V-41.506 Q122.383 -31.155 119.573 -20.904 Q116.764 -10.652 109.809 -0.71 L89.007 -21.04 Q86.445 -19.142 83.526 -18.075 Q80.608 -17.009 77.447 -17.009 Q69.632 -17.009 64.288 -22.349 Q58.943 -27.689 58.943 -35.447 Q58.943 -43.086 64.275 -48.504 Q69.608 -53.923 77.374 -53.923 Q85.14 -53.923 90.498 -48.504 Q95.857 -43.086 95.857 -35.428 Q95.857 -32.314 94.849 -29.648 Q93.841 -26.981 92.322 -24.569 L108.782 -8.382 Q112.9 -15.421 115.207 -23.738 Q117.514 -32.055 117.514 -41.506 V-72.792 L77.4 -87.295 L37.286 -72.792 V-41.506 Q37.286 -21.36 48.594 -4.941 Q59.902 11.478 77.432 17.257 Q81.81 16.11 86.951 13.114 Q92.092 10.119 95.838 6.881 L98.815 10.634 Q93.996 14.578 88.675 17.577 Q83.354 20.577 77.364 22.386 Z M77.423 -21.877 Q83.056 -21.877 87.022 -25.773 Q90.988 -29.67 90.988 -35.476 Q90.988 -41.041 86.999 -45.048 Q83.011 -49.054 77.377 -49.054 Q71.744 -49.054 67.778 -45.064 Q63.812 -41.075 63.812 -35.486 Q63.812 -29.656 67.801 -25.767 Q71.789 -21.877 77.423 -21.877 Z"/></g><g id="Ultralight-L" transform="matrix(1 0 0 1 491.205 1556)"><path d="M77.364 20.563 Q58.864 14.698 46.524 -2.398 Q34.185 -19.494 34.185 -41.377 V-74.534 L77.4 -90.7 L120.615 -74.527 V-41.357 Q120.615 -31.602 117.954 -21.927 Q115.294 -12.252 108.841 -2.496 L88.515 -22.491 Q86.095 -20.556 83.305 -19.508 Q80.516 -18.46 77.447 -18.46 Q70.261 -18.46 65.365 -23.376 Q60.469 -28.292 60.469 -35.391 Q60.469 -42.371 65.351 -47.347 Q70.232 -52.322 77.366 -52.322 Q84.499 -52.322 89.415 -47.347 Q94.331 -42.371 94.331 -35.391 Q94.331 -32.334 93.323 -29.872 Q92.316 -27.409 90.945 -25.071 L108.038 -8.14 Q112.23 -15.235 114.649 -23.459 Q117.068 -31.682 117.068 -41.357 V-72.494 L77.4 -86.83 L37.733 -72.494 V-41.357 Q37.733 -21.446 48.95 -5.173 Q60.168 11.099 77.432 16.773 Q81.754 15.644 86.43 12.96 Q91.106 10.275 94.815 7.179 L96.75 10.057 Q92.154 13.629 87.549 16.191 Q82.944 18.754 77.364 20.563 Z M77.423 -22.007 Q82.963 -22.007 86.873 -25.849 Q90.784 -29.691 90.784 -35.438 Q90.784 -40.874 86.851 -44.824 Q82.917 -48.775 77.377 -48.775 Q71.837 -48.775 67.927 -44.841 Q64.016 -40.907 64.016 -35.448 Q64.016 -29.677 67.949 -25.842 Q71.883 -22.007 77.423 -22.007 Z"/></g><g id="Bold-M" transform="matrix(1 0 0 1 2281.8 1126)"><path d="M59.972 17.895 Q41.279 13.294 29.077 -3.169 Q16.875 -19.631 16.875 -39.73 V-72.288 L60 -88.355 L103.125 -72.288 V-39.73 Q103.125 -27.667 98.719 -17.23 Q94.312 -6.792 87.75 0.645 L69.024 -18.105 Q66.938 -16.98 64.695 -16.48 Q62.453 -15.98 60.024 -15.98 Q52 -15.98 46.375 -21.605 Q40.75 -27.23 40.75 -35.23 Q40.75 -43.23 46.375 -48.855 Q52 -54.48 60 -54.48 Q68 -54.48 73.625 -48.855 Q79.25 -43.23 79.25 -35.261 Q79.25 -32.855 78.75 -30.48 Q78.25 -28.105 77.125 -26.105 L83.25 -19.855 Q85.75 -24.605 86.875 -29.355 Q88 -34.105 88 -39.706 V-61.807 L60 -72.23 L32 -61.746 V-39.73 Q32 -25.443 40.031 -13.993 Q48.062 -2.542 60 2.333 Q62.25 1.583 64.188 0.601 Q66.125 -0.38 68.25 -1.855 L79 8.895 Q74.688 12.083 69.812 14.426 Q64.938 16.77 59.972 17.895 Z M60.009 -27.23 Q63.312 -27.23 65.656 -29.583 Q68 -31.935 68 -35.239 Q68 -38.542 65.647 -40.886 Q63.295 -43.23 59.991 -43.23 Q56.688 -43.23 54.344 -40.877 Q52 -38.525 52 -35.221 Q52 -31.917 54.353 -29.574 Q56.705 -27.23 60.009 -27.23 Z"/></g><g id="Semibold-M" transform="matrix(1 0 0 1 1985.97 1126)"><path d="M59.972 15.993 Q42.081 11.544 30.402 -4.375 Q18.723 -20.294 18.723 -39.73 V-71.013 L60 -86.453 L101.277 -71.013 V-39.73 Q101.277 -28.483 97.306 -18.426 Q93.334 -8.368 86.772 -0.931 L69.35 -18.377 Q67.209 -17.143 64.858 -16.561 Q62.507 -15.98 60.024 -15.98 Q52 -15.98 46.375 -21.605 Q40.75 -27.23 40.75 -35.23 Q40.75 -43.23 46.375 -48.855 Q52 -54.48 60 -54.48 Q68 -54.48 73.625 -48.855 Q79.25 -43.23 79.25 -35.261 Q79.25 -32.746 78.668 -30.317 Q78.087 -27.888 76.853 -25.779 L83.685 -18.877 Q86.185 -23.735 87.418 -28.866 Q88.652 -33.996 88.652 -39.716 V-62.296 L60 -72.991 L31.348 -62.261 V-39.73 Q31.348 -25.172 39.515 -13.395 Q47.682 -1.619 60 2.93 Q62.63 2.072 65.003 0.846 Q67.375 -0.38 69.826 -2.127 L78.728 6.83 Q74.525 10.072 69.758 12.416 Q64.992 14.759 59.972 15.993 Z M60.002 -26.415 Q63.639 -26.415 66.227 -29.005 Q68.815 -31.595 68.815 -35.232 Q68.815 -38.869 66.225 -41.457 Q63.635 -44.045 59.998 -44.045 Q56.361 -44.045 53.773 -41.455 Q51.185 -38.865 51.185 -35.228 Q51.185 -31.591 53.775 -29.003 Q56.365 -26.415 60.002 -26.415 Z"/></g><g id="Medium-M" transform="matrix(1 0 0 1 1689.91 1126)"><path d="M59.972 14.566 Q42.684 10.232 31.396 -5.28 Q20.109 -20.792 20.109 -39.73 V-70.056 L60 -85.026 L99.891 -70.056 V-39.73 Q99.891 -29.094 96.246 -19.322 Q92.6 -9.551 86.038 -2.113 L69.595 -18.58 Q67.413 -17.265 64.98 -16.623 Q62.548 -15.98 60.024 -15.98 Q52 -15.98 46.375 -21.605 Q40.75 -27.23 40.75 -35.23 Q40.75 -43.23 46.375 -48.855 Q52 -54.48 60 -54.48 Q68 -54.48 73.625 -48.855 Q79.25 -43.23 79.25 -35.261 Q79.25 -32.665 78.607 -30.195 Q77.965 -27.725 76.65 -25.534 L84.011 -18.143 Q86.511 -23.083 87.826 -28.499 Q89.141 -33.915 89.141 -39.724 V-62.663 L60 -73.561 L30.859 -62.648 V-39.73 Q30.859 -24.968 39.128 -12.947 Q47.397 -0.926 60 3.379 Q62.916 2.439 65.614 1.029 Q68.312 -0.38 71.008 -2.33 L78.525 5.281 Q74.402 8.564 69.717 10.907 Q65.033 13.251 59.972 14.566 Z M59.996 -25.803 Q63.883 -25.803 66.655 -28.571 Q69.427 -31.339 69.427 -35.226 Q69.427 -39.113 66.659 -41.885 Q63.891 -44.657 60.004 -44.657 Q56.117 -44.657 53.345 -41.889 Q50.573 -39.121 50.573 -35.234 Q50.573 -31.347 53.341 -28.575 Q56.109 -25.803 59.996 -25.803 Z"/></g><g id="Regular-M" transform="matrix(1 0 0 1 1394.06 1126)"><path d="M59.972 13.52 Q43.125 9.27 32.125 -5.943 Q21.125 -21.156 21.125 -39.73 V-69.355 L60 -83.98 L98.875 -69.355 V-39.73 Q98.875 -29.542 95.469 -19.98 Q92.062 -10.417 85.5 -2.98 L69.774 -18.73 Q67.562 -17.355 65.07 -16.667 Q62.578 -15.98 60.024 -15.98 Q52 -15.98 46.375 -21.605 Q40.75 -27.23 40.75 -35.23 Q40.75 -43.23 46.375 -48.855 Q52 -54.48 60 -54.48 Q68 -54.48 73.625 -48.855 Q79.25 -43.23 79.25 -35.261 Q79.25 -32.605 78.562 -30.105 Q77.875 -27.605 76.5 -25.355 L84.25 -17.605 Q86.75 -22.605 88.125 -28.23 Q89.5 -33.855 89.5 -39.73 V-62.932 L60 -73.98 L30.5 -62.932 V-39.73 Q30.5 -24.818 38.844 -12.618 Q47.188 -0.417 60 3.708 Q63.125 2.708 66.062 1.164 Q69 -0.38 71.875 -2.48 L78.375 4.145 Q74.312 7.458 69.688 9.801 Q65.062 12.145 59.972 13.52 Z M59.992 -25.355 Q64.062 -25.355 66.969 -28.253 Q69.875 -31.152 69.875 -35.222 Q69.875 -39.292 66.977 -42.199 Q64.078 -45.105 60.008 -45.105 Q55.938 -45.105 53.031 -42.206 Q50.125 -39.308 50.125 -35.238 Q50.125 -31.167 53.023 -28.261 Q55.922 -25.355 59.992 -25.355 Z"/></g><g id="Light-M" transform="matrix(1 0 0 1 1098.18 1126)"><path d="M59.972 11.164 Q44.185 6.848 33.797 -7.539 Q23.409 -21.926 23.409 -39.733 V-67.786 L60 -81.528 L96.591 -67.785 V-39.73 Q96.591 -30.552 93.642 -21.807 Q90.692 -13.062 84.73 -5.672 L69.234 -21.182 Q67.206 -19.759 64.849 -19.047 Q62.491 -18.336 60.024 -18.336 Q52.972 -18.336 48.039 -23.269 Q43.106 -28.202 43.106 -35.23 Q43.106 -42.258 48.039 -47.191 Q52.972 -52.124 60 -52.124 Q67.028 -52.124 71.961 -47.191 Q76.894 -42.258 76.894 -35.261 Q76.894 -32.775 76.207 -30.491 Q75.519 -28.206 74.24 -26.148 L83.769 -16.619 Q86.462 -21.788 88.029 -27.581 Q89.596 -33.374 89.596 -39.73 V-63.028 L60 -74.052 L30.404 -63.028 V-39.73 Q30.404 -24.785 38.775 -12.558 Q47.146 -0.33 60 3.804 Q63.149 2.828 66.087 1.277 Q69.024 -0.274 71.899 -2.384 L76.572 2.679 Q72.702 5.655 68.69 7.722 Q64.678 9.789 59.972 11.164 Z M59.992 -25.331 Q64.087 -25.331 66.993 -28.229 Q69.899 -31.128 69.899 -35.222 Q69.899 -39.316 67.001 -42.223 Q64.102 -45.129 60.008 -45.129 Q55.913 -45.129 53.007 -42.23 Q50.101 -39.332 50.101 -35.238 Q50.101 -31.143 52.999 -28.237 Q55.898 -25.331 59.992 -25.331 Z"/></g><g id="Thin-M" transform="matrix(1 0 0 1 802.565 1126)"><path d="M59.972 8.809 Q45.245 4.427 35.468 -9.134 Q25.692 -22.695 25.692 -39.736 V-66.218 L60 -79.076 L94.308 -66.216 V-39.73 Q94.308 -31.562 91.815 -23.634 Q89.322 -15.706 83.96 -8.365 L68.694 -23.634 Q66.85 -22.163 64.627 -21.427 Q62.405 -20.691 60.024 -20.691 Q53.944 -20.691 49.703 -24.932 Q45.462 -29.173 45.462 -35.23 Q45.462 -41.286 49.703 -45.527 Q53.944 -49.768 60 -49.768 Q66.056 -49.768 70.297 -45.527 Q74.538 -41.286 74.538 -35.261 Q74.538 -32.945 73.851 -30.876 Q73.163 -28.807 71.981 -26.941 L83.288 -15.634 Q86.173 -20.97 87.933 -26.932 Q89.692 -32.893 89.692 -39.73 V-63.124 L60 -74.124 L30.308 -63.124 V-39.73 Q30.308 -24.752 38.706 -12.498 Q47.104 -0.243 60 3.9 Q63.173 2.948 66.111 1.39 Q69.048 -0.168 71.923 -2.288 L74.769 1.212 Q71.091 3.852 67.692 5.643 Q64.293 7.434 59.972 8.809 Z M59.992 -25.307 Q64.111 -25.307 67.017 -28.205 Q69.923 -31.104 69.923 -35.222 Q69.923 -39.341 67.025 -42.247 Q64.126 -45.153 60.008 -45.153 Q55.889 -45.153 52.983 -42.255 Q50.077 -39.356 50.077 -35.238 Q50.077 -31.119 52.975 -28.213 Q55.874 -25.307 59.992 -25.307 Z"/></g><g id="Ultralight-M" transform="matrix(1 0 0 1 506.415 1126)"><path d="M59.972 7.395 Q45.881 2.974 36.472 -10.091 Q27.062 -23.156 27.062 -39.738 V-65.276 L60 -77.605 L92.938 -65.274 V-39.73 Q92.938 -32.167 90.719 -24.73 Q88.5 -17.292 83.498 -9.98 L68.369 -25.105 Q66.636 -23.605 64.495 -22.855 Q62.353 -22.105 60.024 -22.105 Q54.527 -22.105 50.701 -25.931 Q46.875 -29.757 46.875 -35.23 Q46.875 -40.703 50.701 -44.529 Q54.527 -48.355 60 -48.355 Q65.473 -48.355 69.299 -44.529 Q73.125 -40.703 73.125 -35.261 Q73.125 -33.047 72.438 -31.107 Q71.75 -29.167 70.625 -27.417 L83 -15.042 Q86 -20.48 87.875 -26.542 Q89.75 -32.605 89.75 -39.73 V-63.182 L60 -74.167 L30.25 -63.182 V-39.73 Q30.25 -24.732 38.665 -12.462 Q47.079 -0.191 60 3.958 Q63.188 3.02 66.125 1.458 Q69.062 -0.105 71.938 -2.23 L73.688 0.333 Q70.125 2.77 67.094 4.395 Q64.062 6.02 59.972 7.395 Z M59.992 -25.292 Q64.125 -25.292 67.031 -28.191 Q69.938 -31.089 69.938 -35.222 Q69.938 -39.355 67.039 -42.261 Q64.141 -45.167 60.008 -45.167 Q55.875 -45.167 52.969 -42.269 Q50.062 -39.37 50.062 -35.238 Q50.062 -31.105 52.961 -28.199 Q55.859 -25.292 59.992 -25.292 Z"/></g><g id="Bold-S" transform="matrix(1 0 0 1 2294.23 696)"><path d="M47.318 5.108 Q32.865 1.181 24.668 -11.561 Q16.47 -24.303 16.47 -38.682 V-62.891 L47.34 -75.568 L78.21 -62.891 V-38.682 Q78.21 -30.447 75.423 -22.557 Q72.637 -14.667 67.953 -8.897 L53.783 -23.099 Q52.222 -22.211 50.699 -21.916 Q49.176 -21.62 47.359 -21.62 Q41.62 -21.62 37.675 -25.565 Q33.73 -29.51 33.73 -35.23 Q33.73 -40.95 37.675 -44.895 Q41.62 -48.84 47.34 -48.84 Q53.06 -48.84 57.005 -44.895 Q60.95 -40.95 60.95 -35.255 Q60.95 -33.553 60.605 -31.915 Q60.26 -30.277 59.471 -28.918 L63.81 -24.48 Q65.487 -28.03 66.276 -31.384 Q67.065 -34.737 67.065 -38.663 V-55.311 L47.34 -63.535 L27.615 -55.264 V-38.682 Q27.615 -28.988 32.817 -20.003 Q38.02 -11.018 47.34 -6.284 Q49.312 -6.974 50.841 -8.093 Q52.37 -9.213 53.849 -10.672 L61.838 -2.585 Q58.534 0.127 54.885 2.174 Q51.236 4.22 47.318 5.108 Z M47.368 -29.707 Q49.658 -29.707 51.26 -31.338 Q52.863 -32.968 52.863 -35.258 Q52.863 -37.548 51.232 -39.15 Q49.602 -40.753 47.312 -40.753 Q45.022 -40.753 43.42 -39.122 Q41.817 -37.492 41.817 -35.202 Q41.817 -32.912 43.448 -31.31 Q45.078 -29.707 47.368 -29.707 Z"/></g><g id="Semibold-S" transform="matrix(1 0 0 1 1998.1 696)"><path d="M47.318 3.607 Q33.498 -0.199 25.713 -12.513 Q17.928 -24.826 17.928 -38.682 V-61.885 L47.34 -74.067 L76.752 -61.885 V-38.682 Q76.752 -31.09 74.309 -23.5 Q71.865 -15.91 67.181 -10.141 L54.04 -23.314 Q52.436 -22.34 50.828 -21.98 Q49.219 -21.62 47.359 -21.62 Q41.62 -21.62 37.675 -25.565 Q33.73 -29.51 33.73 -35.23 Q33.73 -40.95 37.675 -44.895 Q41.62 -48.84 47.34 -48.84 Q53.06 -48.84 57.005 -44.895 Q60.95 -40.95 60.95 -35.255 Q60.95 -33.468 60.541 -31.787 Q60.131 -30.106 59.256 -28.661 L64.153 -23.708 Q65.83 -27.344 66.705 -30.998 Q67.58 -34.651 67.58 -38.671 V-55.697 L47.34 -64.136 L27.1 -55.67 V-38.682 Q27.1 -28.773 32.41 -19.531 Q37.72 -10.289 47.34 -5.812 Q49.613 -6.588 51.484 -7.901 Q53.356 -9.213 55.093 -10.887 L61.623 -4.215 Q58.405 -1.459 54.842 0.587 Q51.279 2.634 47.318 3.607 Z M47.362 -29.064 Q49.915 -29.064 51.711 -30.882 Q53.506 -32.699 53.506 -35.252 Q53.506 -37.805 51.688 -39.601 Q49.871 -41.396 47.318 -41.396 Q44.765 -41.396 42.969 -39.578 Q41.174 -37.761 41.174 -35.208 Q41.174 -32.655 42.992 -30.859 Q44.809 -29.064 47.362 -29.064 Z"/></g><g id="Medium-S" transform="matrix(1 0 0 1 1701.85 696)"><path d="M47.318 2.481 Q33.973 -1.234 26.497 -13.227 Q19.022 -25.219 19.022 -38.682 V-61.13 L47.34 -72.941 L75.658 -61.13 V-38.682 Q75.658 -31.572 73.472 -24.208 Q71.287 -16.843 66.602 -11.073 L54.233 -23.474 Q52.597 -22.437 50.924 -22.028 Q49.252 -21.62 47.359 -21.62 Q41.62 -21.62 37.675 -25.565 Q33.73 -29.51 33.73 -35.23 Q33.73 -40.95 37.675 -44.895 Q41.62 -48.84 47.34 -48.84 Q53.06 -48.84 57.005 -44.895 Q60.95 -40.95 60.95 -35.255 Q60.95 -33.403 60.493 -31.69 Q60.035 -29.977 59.096 -28.468 L64.411 -23.129 Q66.087 -26.83 67.026 -30.708 Q67.965 -34.587 67.965 -38.677 V-55.987 L47.34 -64.586 L26.715 -55.975 V-38.682 Q26.715 -28.613 32.105 -19.177 Q37.495 -9.742 47.34 -5.458 Q49.838 -6.299 51.967 -7.756 Q54.096 -9.213 56.025 -11.048 L61.463 -5.437 Q58.309 -2.649 54.81 -0.603 Q51.311 1.444 47.318 2.481 Z M47.358 -28.581 Q50.108 -28.581 52.048 -30.54 Q53.989 -32.498 53.989 -35.248 Q53.989 -37.998 52.03 -39.938 Q50.072 -41.879 47.322 -41.879 Q44.572 -41.879 42.632 -39.92 Q40.691 -37.962 40.691 -35.212 Q40.691 -32.462 42.65 -30.522 Q44.608 -28.581 47.358 -28.581 Z"/></g><g id="Regular-S" transform="matrix(1 0 0 1 1405.73 696)"><path d="M47.318 1.656 Q34.322 -1.993 27.073 -13.75 Q19.824 -25.507 19.824 -38.682 V-60.577 L47.34 -72.116 L74.856 -60.577 V-38.682 Q74.856 -31.926 72.859 -24.726 Q70.862 -17.527 66.177 -11.757 L54.375 -23.592 Q52.715 -22.507 50.995 -22.064 Q49.275 -21.62 47.359 -21.62 Q41.62 -21.62 37.675 -25.565 Q33.73 -29.51 33.73 -35.23 Q33.73 -40.95 37.675 -44.895 Q41.62 -48.84 47.34 -48.84 Q53.06 -48.84 57.005 -44.895 Q60.95 -40.95 60.95 -35.255 Q60.95 -33.356 60.457 -31.62 Q59.964 -29.883 58.978 -28.326 L64.599 -22.705 Q66.276 -26.452 67.262 -30.496 Q68.249 -34.54 68.249 -38.682 V-56.199 L47.34 -64.916 L26.431 -56.199 V-38.682 Q26.431 -28.495 31.881 -18.918 Q37.33 -9.341 47.34 -5.199 Q50.003 -6.086 52.321 -7.65 Q54.638 -9.213 56.709 -11.165 L61.345 -6.333 Q58.238 -3.522 54.786 -1.476 Q51.334 0.571 47.318 1.656 Z M47.355 -28.228 Q50.249 -28.228 52.296 -30.289 Q54.342 -32.35 54.342 -35.245 Q54.342 -38.139 52.281 -40.186 Q50.22 -42.232 47.325 -42.232 Q44.431 -42.232 42.384 -40.171 Q40.338 -38.11 40.338 -35.215 Q40.338 -32.321 42.399 -30.274 Q44.46 -28.228 47.355 -28.228 Z"/></g><g id="Light-S" transform="matrix(1 0 0 1 1109.75 696)"><path d="M47.318 -0.203 Q35.158 -3.904 28.392 -15.009 Q21.626 -26.114 21.626 -38.684 V-59.339 L47.34 -70.181 L73.054 -59.338 V-38.682 Q73.054 -32.723 71.418 -26.168 Q69.781 -19.613 65.57 -13.882 L53.949 -25.527 Q52.434 -24.404 50.82 -23.941 Q49.207 -23.479 47.359 -23.479 Q42.387 -23.479 38.988 -26.878 Q35.589 -30.277 35.589 -35.23 Q35.589 -40.183 38.988 -43.582 Q42.387 -46.981 47.34 -46.981 Q52.293 -46.981 55.692 -43.582 Q59.091 -40.183 59.091 -35.255 Q59.091 -33.49 58.598 -31.924 Q58.105 -30.357 57.195 -28.952 L64.22 -21.927 Q66.048 -25.807 67.186 -29.984 Q68.324 -34.16 68.324 -38.682 V-56.275 L47.34 -64.973 L26.356 -56.275 V-38.682 Q26.356 -28.468 31.826 -18.87 Q37.297 -9.272 47.34 -5.123 Q50.022 -5.991 52.339 -7.56 Q54.657 -9.129 56.728 -11.09 L59.922 -7.49 Q56.967 -4.945 53.999 -3.116 Q51.031 -1.288 47.318 -0.203 Z M47.355 -28.209 Q50.268 -28.209 52.315 -30.27 Q54.361 -32.331 54.361 -35.245 Q54.361 -38.158 52.3 -40.205 Q50.239 -42.251 47.325 -42.251 Q44.412 -42.251 42.365 -40.19 Q40.319 -38.129 40.319 -35.215 Q40.319 -32.302 42.38 -30.255 Q44.441 -28.209 47.355 -28.209 Z"/></g><g id="Thin-S" transform="matrix(1 0 0 1 814.015 696)"><path d="M47.318 -2.062 Q35.994 -5.815 29.711 -16.268 Q23.427 -26.721 23.427 -38.687 V-58.101 L47.34 -68.247 L71.253 -58.1 V-38.682 Q71.253 -33.519 69.976 -27.609 Q68.7 -21.699 64.962 -16.006 L53.522 -27.461 Q52.153 -26.301 50.646 -25.819 Q49.139 -25.337 47.359 -25.337 Q43.153 -25.337 40.3 -28.19 Q37.447 -31.043 37.447 -35.23 Q37.447 -39.417 40.3 -42.27 Q43.153 -45.123 47.34 -45.123 Q51.527 -45.123 54.38 -42.27 Q57.233 -39.417 57.233 -35.255 Q57.233 -33.625 56.74 -32.228 Q56.247 -30.831 55.412 -29.578 L63.841 -21.149 Q65.821 -25.163 67.111 -29.472 Q68.4 -33.781 68.4 -38.682 V-56.351 L47.34 -65.03 L26.28 -56.351 V-38.682 Q26.28 -28.442 31.772 -18.823 Q37.264 -9.203 47.34 -5.047 Q50.041 -5.897 52.359 -7.471 Q54.676 -9.046 56.747 -11.014 L58.5 -8.647 Q55.697 -6.367 53.212 -4.757 Q50.727 -3.146 47.318 -2.062 Z M47.355 -28.19 Q50.287 -28.19 52.334 -30.251 Q54.38 -32.312 54.38 -35.245 Q54.38 -38.177 52.319 -40.224 Q50.258 -42.27 47.325 -42.27 Q44.393 -42.27 42.346 -40.209 Q40.3 -38.148 40.3 -35.215 Q40.3 -32.283 42.361 -30.236 Q44.422 -28.19 47.355 -28.19 Z"/></g><g id="Ultralight-S" transform="matrix(1 0 0 1 517.792 696)"><path d="M47.318 -3.177 Q36.496 -6.961 30.502 -17.023 Q24.508 -27.085 24.508 -38.688 V-57.359 L47.34 -67.086 L70.172 -57.357 V-38.682 Q70.172 -33.997 69.111 -28.474 Q68.051 -22.951 64.598 -17.28 L53.267 -28.622 Q51.984 -27.439 50.541 -26.945 Q49.098 -26.452 47.359 -26.452 Q43.613 -26.452 41.088 -28.978 Q38.562 -31.503 38.562 -35.23 Q38.562 -38.957 41.088 -41.482 Q43.613 -44.008 47.34 -44.008 Q51.067 -44.008 53.592 -41.482 Q56.118 -38.957 56.118 -35.255 Q56.118 -33.705 55.625 -32.41 Q55.131 -31.116 54.342 -29.954 L63.613 -20.683 Q65.684 -24.776 67.065 -29.165 Q68.446 -33.553 68.446 -38.682 V-56.396 L47.34 -65.064 L26.234 -56.396 V-38.682 Q26.234 -28.427 31.739 -18.794 Q37.244 -9.162 47.34 -5.001 Q50.052 -5.84 52.37 -7.418 Q54.688 -8.996 56.759 -10.968 L57.646 -9.341 Q54.934 -7.22 52.74 -5.741 Q50.545 -4.262 47.318 -3.177 Z M47.355 -28.178 Q50.299 -28.178 52.345 -30.24 Q54.392 -32.301 54.392 -35.245 Q54.392 -38.189 52.33 -40.235 Q50.269 -42.282 47.325 -42.282 Q44.381 -42.282 42.335 -40.22 Q40.288 -38.159 40.288 -35.215 Q40.288 -32.271 42.35 -30.225 Q44.411 -28.178 47.355 -28.178 Z"/></g></g></svg>