<svg xmlns="http://www.w3.org/2000/svg" version="1.1" width="3300" height="2000"><g id="Notes"><style>
    text {
      font-family: monospace;
      text-anchor: middle;
    }
    text.emphasis {
      font-weight:bold;
    }
    text.lanchor {
      text-anchor: start;
    }
  </style><rect height="2200" id="artboard" fill="white" width="3300" x="0" y="0"/><line id="" style="fill:none;stroke:black;stroke-width:0.5;" x1="263" x2="3036" y1="292" y2="292"/><text class="lanchor emphasis" transform="matrix(1 0 0 1 263 322)">Weight/Scale Variations</text><text transform="matrix(1 0 0 1 559.711 322)">Ultralight</text><text transform="matrix(1 0 0 1 856.422 322)">Thin</text><text transform="matrix(1 0 0 1 1153.13 322)">Light</text><text transform="matrix(1 0 0 1 1449.84 322)">Regular</text><text transform="matrix(1 0 0 1 1746.56 322)">Medium</text><text transform="matrix(1 0 0 1 2043.27 322)">Semibold</text><text transform="matrix(1 0 0 1 2339.98 322)">Bold</text><text transform="matrix(1 0 0 1 2636.69 322)">Heavy</text><text transform="matrix(1 0 0 1 2933.4 322)">Black</text><text id="template-version" style="text-anchor: end;" transform="matrix(1 0 0 1 3036 1933)">Template v.1.0</text><text class="lanchor" transform="matrix(1 0 0 1 263 726)">Small</text><text class="lanchor" transform="matrix(1 0 0 1 263 1156)">Medium</text><text class="lanchor" transform="matrix(1 0 0 1 263 1586)">Large</text></g><g id="Guides"><g id="H-reference" style="fill:#27AAE1;stroke:none;" transform="matrix(1 0 0 1 339 696)"><path d="M 54.9316 0 L 57.666 0 L 30.5664 -70.459 L 28.0762 -70.459 L 0.976562 0 L 3.66211 0 L 12.9395 -24.4629 L 45.7031 -24.4629 Z M 29.1992 -67.0898 L 29.4434 -67.0898 L 44.8242 -26.709 L 13.8184 -26.709 Z"/></g><line id="Baseline-S" style="fill:none;stroke:#27AAE1;opacity:1;stroke-width:0.577;" x1="263" x2="3036" y1="696" y2="696"/><line id="Capline-S" style="fill:none;stroke:#27AAE1;opacity:1;stroke-width:0.577;" x1="263" x2="3036" y1="625.541" y2="625.541"/><g id="H-reference" style="fill:#27AAE1;stroke:none;" transform="matrix(1 0 0 1 339 1126)"><path d="M 54.9316 0 L 57.666 0 L 30.5664 -70.459 L 28.0762 -70.459 L 0.976562 0 L 3.66211 0 L 12.9395 -24.4629 L 45.7031 -24.4629 Z M 29.1992 -67.0898 L 29.4434 -67.0898 L 44.8242 -26.709 L 13.8184 -26.709 Z"/></g><line id="Baseline-M" style="fill:none;stroke:#27AAE1;opacity:1;stroke-width:0.577;" x1="263" x2="3036" y1="1126" y2="1126"/><line id="Capline-M" style="fill:none;stroke:#27AAE1;opacity:1;stroke-width:0.577;" x1="263" x2="3036" y1="1055.54" y2="1055.54"/><g id="H-reference" style="fill:#27AAE1;stroke:none;" transform="matrix(1 0 0 1 339 1556)"><path d="M 54.9316 0 L 57.666 0 L 30.5664 -70.459 L 28.0762 -70.459 L 0.976562 0 L 3.66211 0 L 12.9395 -24.4629 L 45.7031 -24.4629 Z M 29.1992 -67.0898 L 29.4434 -67.0898 L 44.8242 -26.709 L 13.8184 -26.709 Z"/></g><line id="Baseline-L" style="fill:none;stroke:#27AAE1;opacity:1;stroke-width:0.577;" x1="263" x2="3036" y1="1556" y2="1556"/><line id="Capline-L" style="fill:none;stroke:#27AAE1;opacity:1;stroke-width:0.577;" x1="263" x2="3036" y1="1485.54" y2="1485.54"/><rect height="119.336" id="left-margin" style="fill:darkred;stroke:none;opacity:0.4;" width="12.4512" x="1394.06" y="1030.79"/><rect height="119.336" id="right-margin" style="fill:darkgreen;stroke:none;opacity:0.4;" width="12.4512" x="1502.5112" y="1030.79"/><rect x="1406.5112" y="1045" width="96" height="96" fill="none" stroke="blue" stroke-dasharray="5"/><rect x="1394.06" y="1030.79" width="120.9024" height="119.336" fill="none" stroke="blue"/></g><g id="Symbols"><g id="Bold-L" transform="matrix(1 0 0 1 2266 1556)"><path d="M36.926 5.244 H74.175 V-22.33 H36.926 V5.244 Z M36.926 -28.78 H74.175 V-75.704 H36.926 V-28.78 Z M80.625 5.244 H117.713 V-41.68 H80.625 V5.244 Z M80.625 -48.13 H117.713 V-75.704 H80.625 V-48.13 Z M30.476 26.851 Q24.179 26.851 19.749 22.421 Q15.319 17.991 15.319 11.694 V-82.154 Q15.319 -88.517 19.749 -92.995 Q24.179 -97.472 30.476 -97.472 H124.163 Q130.526 -97.472 135.003 -92.995 Q139.481 -88.517 139.481 -82.154 V-73.93 H150.93 V-62.481 H139.481 V-41.035 H150.93 V-29.425 H139.481 V-7.979 H150.93 V3.47 H139.481 V11.694 Q139.481 17.991 135.003 22.421 Q130.526 26.851 124.163 26.851 H30.476 Z M30.476 11.694 H124.163 Q124.163 11.694 124.163 11.694 Q124.163 11.694 124.163 11.694 V-82.154 Q124.163 -82.154 124.163 -82.154 Q124.163 -82.154 124.163 -82.154 H30.476 Q30.476 -82.154 30.476 -82.154 Q30.476 -82.154 30.476 -82.154 V11.694 Q30.476 11.694 30.476 11.694 Q30.476 11.694 30.476 11.694 Z"/></g><g id="Semibold-L" transform="matrix(1 0 0 1 1970.27 1556)"><path d="M36.295 5.875 H74.175 V-22.33 H36.295 V5.875 Z M36.295 -28.78 H74.175 V-76.335 H36.295 V-28.78 Z M80.625 5.875 H118.414 V-41.68 H80.625 V5.875 Z M80.625 -48.13 H118.414 V-76.335 H80.625 V-48.13 Z M29.845 25.099 Q24.604 25.099 20.838 21.332 Q17.071 17.566 17.071 12.325 V-82.785 Q17.071 -88.064 20.838 -91.857 Q24.604 -95.65 29.845 -95.65 H124.864 Q130.143 -95.65 133.936 -91.857 Q137.729 -88.064 137.729 -82.785 V-73.93 H148.406 V-63.252 H137.729 V-40.614 H148.406 V-29.846 H137.729 V-7.208 H148.406 V3.47 H137.729 V12.325 Q137.729 17.566 133.936 21.332 Q130.143 25.099 124.864 25.099 H29.845 Z M29.845 12.325 H124.864 Q124.864 12.325 124.864 12.325 Q124.864 12.325 124.864 12.325 V-82.785 Q124.864 -82.785 124.864 -82.785 Q124.864 -82.785 124.864 -82.785 H29.845 Q29.845 -82.785 29.845 -82.785 Q29.845 -82.785 29.845 -82.785 V12.325 Q29.845 12.325 29.845 12.325 Q29.845 12.325 29.845 12.325 Z"/></g><g id="Medium-L" transform="matrix(1 0 0 1 1674.31 1556)"><path d="M35.822 6.348 H74.175 V-22.33 H35.822 V6.348 Z M35.822 -28.78 H74.175 V-76.808 H35.822 V-28.78 Z M80.625 6.348 H118.939 V-41.68 H80.625 V6.348 Z M80.625 -48.13 H118.939 V-76.808 H80.625 V-48.13 Z M29.372 23.784 Q24.922 23.784 21.654 20.516 Q18.386 17.248 18.386 12.798 V-83.258 Q18.386 -87.724 21.654 -91.003 Q24.922 -94.283 29.372 -94.283 H125.389 Q129.856 -94.283 133.135 -91.003 Q136.414 -87.724 136.414 -83.258 V-73.93 H146.513 V-63.831 H136.414 V-40.299 H146.513 V-30.161 H136.414 V-6.629 H146.513 V3.47 H136.414 V12.798 Q136.414 17.248 133.135 20.516 Q129.856 23.784 125.389 23.784 H29.372 Z M29.372 12.798 H125.389 Q125.389 12.798 125.389 12.798 Q125.389 12.798 125.389 12.798 V-83.258 Q125.389 -83.258 125.389 -83.258 Q125.389 -83.258 125.389 -83.258 H29.372 Q29.372 -83.258 29.372 -83.258 Q29.372 -83.258 29.372 -83.258 V12.798 Q29.372 12.798 29.372 12.798 Q29.372 12.798 29.372 12.798 Z"/></g><g id="Regular-L" transform="matrix(1 0 0 1 1378.56 1556)"><path d="M35.475 6.695 H74.175 V-22.33 H35.475 V6.695 Z M35.475 -28.78 H74.175 V-77.155 H35.475 V-28.78 Z M80.625 6.695 H119.325 V-41.68 H80.625 V6.695 Z M80.625 -48.13 H119.325 V-77.155 H80.625 V-48.13 Z M29.025 22.82 Q25.155 22.82 22.253 19.918 Q19.35 17.015 19.35 13.145 V-83.605 Q19.35 -87.475 22.253 -90.377 Q25.155 -93.28 29.025 -93.28 H125.775 Q129.645 -93.28 132.548 -90.377 Q135.45 -87.475 135.45 -83.605 V-73.93 H145.125 V-64.255 H135.45 V-40.067 H145.125 V-30.392 H135.45 V-6.205 H145.125 V3.47 H135.45 V13.145 Q135.45 17.015 132.548 19.918 Q129.645 22.82 125.775 22.82 H29.025 Z M29.025 13.145 H125.775 Q125.775 13.145 125.775 13.145 Q125.775 13.145 125.775 13.145 V-83.605 Q125.775 -83.605 125.775 -83.605 Q125.775 -83.605 125.775 -83.605 H29.025 Q29.025 -83.605 29.025 -83.605 Q29.025 -83.605 29.025 -83.605 V13.145 Q29.025 13.145 29.025 13.145 Q29.025 13.145 29.025 13.145 Z"/></g><g id="Light-L" transform="matrix(1 0 0 1 1082.77 1556)"><path d="M37.336 4.834 H73.679 V-21.834 H37.336 V4.834 Z M37.336 -29.276 H73.679 V-75.294 H37.336 V-29.276 Z M81.121 4.834 H117.464 V-41.184 H81.121 V4.834 Z M81.121 -48.626 H117.464 V-75.294 H81.121 V-48.626 Z M31.878 19.595 Q28.084 19.595 25.33 16.84 Q22.575 14.086 22.575 10.292 V-80.752 Q22.575 -84.546 25.33 -87.3 Q28.084 -90.055 31.878 -90.055 H122.922 Q126.716 -90.055 129.47 -87.3 Q132.225 -84.546 132.225 -80.752 V-69.712 H141.28 V-62.394 H132.225 V-38.889 H141.28 V-31.571 H132.225 V-8.066 H141.28 V-0.748 H132.225 V10.292 Q132.225 14.086 129.47 16.84 Q126.716 19.595 122.922 19.595 H31.878 Z M31.878 12.277 H122.922 Q123.666 12.277 124.287 11.657 Q124.907 11.036 124.907 10.292 V-80.752 Q124.907 -81.496 124.287 -82.117 Q123.666 -82.737 122.922 -82.737 H31.878 Q31.134 -82.737 30.513 -82.117 Q29.893 -81.496 29.893 -80.752 V10.292 Q29.893 11.036 30.513 11.657 Q31.134 12.277 31.878 12.277 Z"/></g><g id="Thin-L" transform="matrix(1 0 0 1 787.282 1556)"><path d="M39.196 2.974 H73.183 V-21.338 H39.196 V2.974 Z M39.196 -29.772 H73.183 V-73.434 H39.196 V-29.772 Z M81.617 2.974 H115.604 V-40.688 H81.617 V2.974 Z M81.617 -49.122 H115.604 V-73.434 H81.617 V-49.122 Z M34.731 16.37 Q31.013 16.37 28.406 13.764 Q25.8 11.157 25.8 7.439 V-77.899 Q25.8 -81.617 28.406 -84.224 Q31.013 -86.83 34.731 -86.83 H120.069 Q123.787 -86.83 126.394 -84.224 Q129 -81.617 129 -77.899 V-65.495 H137.435 V-60.534 H129 V-37.711 H137.435 V-32.749 H129 V-9.926 H137.435 V-4.965 H129 V7.439 Q129 11.157 126.394 13.764 Q123.787 16.37 120.069 16.37 H34.731 Z M34.731 11.408 H120.069 Q121.558 11.408 122.798 10.168 Q124.038 8.928 124.038 7.439 V-77.899 Q124.038 -79.388 122.798 -80.628 Q121.558 -81.868 120.069 -81.868 H34.731 Q33.242 -81.868 32.002 -80.628 Q30.762 -79.388 30.762 -77.899 V7.439 Q30.762 8.928 32.002 10.168 Q33.242 11.408 34.731 11.408 Z"/></g><g id="Ultralight-L" transform="matrix(1 0 0 1 491.205 1556)"><path d="M40.312 1.858 H72.885 V-21.04 H40.312 V1.858 Z M40.312 -30.07 H72.885 V-72.317 H40.312 V-30.07 Z M81.915 1.858 H114.487 V-40.39 H81.915 V1.858 Z M81.915 -49.42 H114.487 V-72.317 H81.915 V-49.42 Z M36.443 14.435 Q32.77 14.435 30.253 11.917 Q27.735 9.4 27.735 5.728 V-76.187 Q27.735 -79.86 30.253 -82.378 Q32.77 -84.895 36.443 -84.895 H118.358 Q122.03 -84.895 124.548 -82.378 Q127.065 -79.86 127.065 -76.187 V-62.965 H135.127 V-59.417 H127.065 V-37.004 H135.127 V-33.456 H127.065 V-11.042 H135.127 V-7.495 H127.065 V5.728 Q127.065 9.4 124.548 11.917 Q122.03 14.435 118.358 14.435 H36.443 Z M36.443 10.888 H118.358 Q120.293 10.888 121.905 9.275 Q123.517 7.663 123.517 5.728 V-76.187 Q123.517 -78.122 121.905 -79.735 Q120.293 -81.347 118.358 -81.347 H36.443 Q34.508 -81.347 32.895 -79.735 Q31.283 -78.122 31.283 -76.187 V5.728 Q31.283 7.663 32.895 9.275 Q34.508 10.888 36.443 10.888 Z"/></g><g id="Bold-M" transform="matrix(1 0 0 1 2281.8 1126)"><path d="M31.5 -6.73 H57.5 V-25.23 H31.5 V-6.73 Z M31.5 -30.23 H57.5 V-63.73 H31.5 V-30.23 Z M62.5 -6.73 H88.375 V-40.23 H62.5 V-6.73 Z M62.5 -45.23 H88.375 V-63.73 H62.5 V-45.23 Z M26.5 14.02 Q19.875 14.02 15.312 9.458 Q10.75 4.895 10.75 -1.73 V-68.73 Q10.75 -75.355 15.312 -79.917 Q19.875 -84.48 26.5 -84.48 H93.375 Q100 -84.48 104.562 -79.917 Q109.125 -75.355 109.125 -68.73 V-60.23 H121 V-48.355 H109.125 V-41.23 H121 V-29.23 H109.125 V-22.105 H121 V-10.23 H109.125 V-1.73 Q109.125 4.895 104.562 9.458 Q100 14.02 93.375 14.02 H26.5 Z M26.5 -1.73 H93.375 Q93.375 -1.73 93.375 -1.73 Q93.375 -1.73 93.375 -1.73 V-68.73 Q93.375 -68.73 93.375 -68.73 Q93.375 -68.73 93.375 -68.73 H26.5 Q26.5 -68.73 26.5 -68.73 Q26.5 -68.73 26.5 -68.73 V-1.73 Q26.5 -1.73 26.5 -1.73 Q26.5 -1.73 26.5 -1.73 Z"/></g><g id="Semibold-M" transform="matrix(1 0 0 1 1985.97 1126)"><path d="M30.848 -6.078 H57.5 V-25.23 H30.848 V-6.078 Z M30.848 -30.23 H57.5 V-64.382 H30.848 V-30.23 Z M62.5 -6.078 H89.082 V-40.23 H62.5 V-6.078 Z M62.5 -45.23 H89.082 V-64.382 H62.5 V-45.23 Z M25.848 12.172 Q20.31 12.172 16.454 8.316 Q12.598 4.46 12.598 -1.078 V-69.382 Q12.598 -74.92 16.454 -78.776 Q20.31 -82.632 25.848 -82.632 H94.082 Q99.62 -82.632 103.476 -78.776 Q107.332 -74.92 107.332 -69.382 V-60.23 H118.391 V-49.17 H107.332 V-40.795 H118.391 V-29.665 H107.332 V-21.29 H118.391 V-10.23 H107.332 V-1.078 Q107.332 4.46 103.476 8.316 Q99.62 12.172 94.082 12.172 H25.848 Z M25.848 -1.078 H94.082 Q94.082 -1.078 94.082 -1.078 Q94.082 -1.078 94.082 -1.078 V-69.382 Q94.082 -69.382 94.082 -69.382 Q94.082 -69.382 94.082 -69.382 H25.848 Q25.848 -69.382 25.848 -69.382 Q25.848 -69.382 25.848 -69.382 V-1.078 Q25.848 -1.078 25.848 -1.078 Q25.848 -1.078 25.848 -1.078 Z"/></g><g id="Medium-M" transform="matrix(1 0 0 1 1689.91 1126)"><path d="M30.359 -5.589 H57.5 V-25.23 H30.359 V-5.589 Z M30.359 -30.23 H57.5 V-64.871 H30.359 V-30.23 Z M62.5 -5.589 H89.611 V-40.23 H62.5 V-5.589 Z M62.5 -45.23 H89.611 V-64.871 H62.5 V-45.23 Z M25.359 10.786 Q20.636 10.786 17.31 7.46 Q13.984 4.134 13.984 -0.589 V-69.871 Q13.984 -74.594 17.31 -77.92 Q20.636 -81.246 25.359 -81.246 H94.611 Q99.334 -81.246 102.66 -77.92 Q105.986 -74.594 105.986 -69.871 V-60.23 H116.435 V-49.782 H105.986 V-40.469 H116.435 V-29.991 H105.986 V-20.678 H116.435 V-10.23 H105.986 V-0.589 Q105.986 4.134 102.66 7.46 Q99.334 10.786 94.611 10.786 H25.359 Z M25.359 -0.589 H94.611 Q94.611 -0.589 94.611 -0.589 Q94.611 -0.589 94.611 -0.589 V-69.871 Q94.611 -69.871 94.611 -69.871 Q94.611 -69.871 94.611 -69.871 H25.359 Q25.359 -69.871 25.359 -69.871 Q25.359 -69.871 25.359 -69.871 V-0.589 Q25.359 -0.589 25.359 -0.589 Q25.359 -0.589 25.359 -0.589 Z"/></g><g id="Regular-M" transform="matrix(1 0 0 1 1394.06 1126)"><path d="M30 -5.23 H57.5 V-25.23 H30 V-5.23 Z M30 -30.23 H57.5 V-65.23 H30 V-30.23 Z M62.5 -5.23 H90 V-40.23 H62.5 V-5.23 Z M62.5 -45.23 H90 V-65.23 H62.5 V-45.23 Z M25 9.77 Q20.875 9.77 17.938 6.833 Q15 3.895 15 -0.23 V-70.23 Q15 -74.355 17.938 -77.292 Q20.875 -80.23 25 -80.23 H95 Q99.125 -80.23 102.062 -77.292 Q105 -74.355 105 -70.23 V-60.23 H115 V-50.23 H105 V-40.23 H115 V-30.23 H105 V-20.23 H115 V-10.23 H105 V-0.23 Q105 3.895 102.062 6.833 Q99.125 9.77 95 9.77 H25 Z M25 -0.23 H95 Q95 -0.23 95 -0.23 Q95 -0.23 95 -0.23 V-70.23 Q95 -70.23 95 -70.23 Q95 -70.23 95 -70.23 H25 Q25 -70.23 25 -70.23 Q25 -70.23 25 -70.23 V-0.23 Q25 -0.23 25 -0.23 Q25 -0.23 25 -0.23 Z"/></g><g id="Light-M" transform="matrix(1 0 0 1 1098.18 1126)"><path d="M30.769 -5.999 H57.115 V-24.845 H30.769 V-5.999 Z M30.769 -30.615 H57.115 V-64.461 H30.769 V-30.615 Z M62.885 -5.999 H89.231 V-39.845 H62.885 V-5.999 Z M62.885 -45.615 H89.231 V-64.461 H62.885 V-45.615 Z M26.539 7.27 Q22.75 7.27 20.125 4.645 Q17.5 2.02 17.5 -1.769 V-68.691 Q17.5 -72.48 20.125 -75.105 Q22.75 -77.73 26.539 -77.73 H93.461 Q97.25 -77.73 99.875 -75.105 Q102.5 -72.48 102.5 -68.691 V-58.307 H111.346 V-50.807 H102.5 V-38.98 H111.346 V-31.48 H102.5 V-19.653 H111.346 V-12.153 H102.5 V-1.769 Q102.5 2.02 99.875 4.645 Q97.25 7.27 93.461 7.27 H26.539 Z M26.539 -0.23 H93.461 Q94.038 -0.23 94.519 -0.711 Q95 -1.192 95 -1.769 V-68.691 Q95 -69.268 94.519 -69.749 Q94.038 -70.23 93.461 -70.23 H26.539 Q25.962 -70.23 25.481 -69.749 Q25 -69.268 25 -68.691 V-1.769 Q25 -1.192 25.481 -0.711 Q25.962 -0.23 26.539 -0.23 Z"/></g><g id="Thin-M" transform="matrix(1 0 0 1 802.565 1126)"><path d="M31.538 -6.768 H56.731 V-24.461 H31.538 V-6.768 Z M31.538 -30.999 H56.731 V-63.691 H31.538 V-30.999 Z M63.269 -6.768 H88.462 V-39.461 H63.269 V-6.768 Z M63.269 -45.999 H88.462 V-63.691 H63.269 V-45.999 Z M28.077 4.77 Q24.625 4.77 22.312 2.458 Q20 0.145 20 -3.307 V-67.153 Q20 -70.605 22.312 -72.917 Q24.625 -75.23 28.077 -75.23 H91.923 Q95.375 -75.23 97.688 -72.917 Q100 -70.605 100 -67.153 V-56.384 H107.692 V-51.384 H100 V-37.73 H107.692 V-32.73 H100 V-19.076 H107.692 V-14.076 H100 V-3.307 Q100 0.145 97.688 2.458 Q95.375 4.77 91.923 4.77 H28.077 Z M28.077 -0.23 H91.923 Q93.077 -0.23 94.038 -1.191 Q95 -2.153 95 -3.307 V-67.153 Q95 -68.307 94.038 -69.268 Q93.077 -70.23 91.923 -70.23 H28.077 Q26.923 -70.23 25.962 -69.268 Q25 -68.307 25 -67.153 V-3.307 Q25 -2.153 25.962 -1.191 Q26.923 -0.23 28.077 -0.23 Z"/></g><g id="Ultralight-M" transform="matrix(1 0 0 1 506.415 1126)"><path d="M32 -7.23 H56.5 V-24.23 H32 V-7.23 Z M32 -31.23 H56.5 V-63.23 H32 V-31.23 Z M63.5 -7.23 H88 V-39.23 H63.5 V-7.23 Z M63.5 -46.23 H88 V-63.23 H63.5 V-46.23 Z M29 3.27 Q25.75 3.27 23.625 1.145 Q21.5 -0.98 21.5 -4.23 V-66.23 Q21.5 -69.48 23.625 -71.605 Q25.75 -73.73 29 -73.73 H91 Q94.25 -73.73 96.375 -71.605 Q98.5 -69.48 98.5 -66.23 V-55.23 H105.5 V-51.73 H98.5 V-36.98 H105.5 V-33.48 H98.5 V-18.73 H105.5 V-15.23 H98.5 V-4.23 Q98.5 -0.98 96.375 1.145 Q94.25 3.27 91 3.27 H29 Z M29 -0.23 H91 Q92.5 -0.23 93.75 -1.48 Q95 -2.73 95 -4.23 V-66.23 Q95 -67.73 93.75 -68.98 Q92.5 -70.23 91 -70.23 H29 Q27.5 -70.23 26.25 -68.98 Q25 -67.73 25 -66.23 V-4.23 Q25 -2.73 26.25 -1.48 Q27.5 -0.23 29 -0.23 Z"/></g><g id="Bold-S" transform="matrix(1 0 0 1 2294.23 696)"><path d="M27.221 -15.11 H44.973 V-25.762 H27.221 V-15.11 Z M27.221 -30.496 H44.973 V-55.349 H27.221 V-30.496 Z M49.707 -15.11 H67.361 V-39.964 H49.707 V-15.11 Z M49.707 -44.698 H67.361 V-55.349 H49.707 V-44.698 Z M22.486 1.261 Q17.654 1.261 14.251 -2.141 Q10.849 -5.544 10.849 -10.376 V-60.083 Q10.849 -64.985 14.251 -68.353 Q17.654 -71.721 22.486 -71.721 H72.095 Q76.928 -71.721 80.33 -68.353 Q83.733 -64.985 83.733 -60.083 V-54.166 H94.68 V-45.586 H83.733 V-39.569 H94.68 V-30.89 H83.733 V-24.874 H94.68 V-16.294 H83.733 V-10.425 Q83.733 -5.544 80.33 -2.141 Q76.928 1.261 72.095 1.261 H22.486 Z M22.486 -10.376 H72.095 Q72.095 -10.376 72.095 -10.376 Q72.095 -10.376 72.095 -10.376 V-60.083 Q72.095 -60.083 72.095 -60.083 Q72.095 -60.083 72.095 -60.083 H22.486 Q22.486 -60.083 22.486 -60.083 Q22.486 -60.083 22.486 -60.083 V-10.376 Q22.486 -10.376 22.486 -10.376 Q22.486 -10.376 22.486 -10.376 Z"/></g><g id="Semibold-S" transform="matrix(1 0 0 1 1998.1 696)"><path d="M26.706 -14.596 H44.973 V-25.762 H26.706 V-14.596 Z M26.706 -30.496 H44.973 V-55.864 H26.706 V-30.496 Z M49.707 -14.596 H67.918 V-39.964 H49.707 V-14.596 Z M49.707 -44.698 H67.918 V-55.864 H49.707 V-44.698 Z M21.972 -0.197 Q17.997 -0.197 15.152 -3.042 Q12.307 -5.887 12.307 -9.862 V-60.598 Q12.307 -64.642 15.152 -67.453 Q17.997 -70.263 21.972 -70.263 H72.652 Q76.627 -70.263 79.473 -67.453 Q82.318 -64.642 82.318 -60.598 V-54.166 H92.622 V-46.229 H82.318 V-39.226 H92.622 V-31.234 H82.318 V-24.231 H92.622 V-16.294 H82.318 V-9.911 Q82.318 -5.887 79.473 -3.042 Q76.627 -0.197 72.652 -0.197 H21.972 Z M21.972 -9.862 H72.652 Q72.652 -9.862 72.652 -9.862 Q72.652 -9.862 72.652 -9.862 V-60.598 Q72.652 -60.598 72.652 -60.598 Q72.652 -60.598 72.652 -60.598 H21.972 Q21.972 -60.598 21.972 -60.598 Q21.972 -60.598 21.972 -60.598 V-9.862 Q21.972 -9.862 21.972 -9.862 Q21.972 -9.862 21.972 -9.862 Z"/></g><g id="Medium-S" transform="matrix(1 0 0 1 1701.85 696)"><path d="M26.32 -14.21 H44.973 V-25.762 H26.32 V-14.21 Z M26.32 -30.496 H44.973 V-56.25 H26.32 V-30.496 Z M49.707 -14.21 H68.336 V-39.964 H49.707 V-14.21 Z M49.707 -44.698 H68.336 V-56.25 H49.707 V-44.698 Z M21.586 -1.29 Q18.254 -1.29 15.827 -3.717 Q13.4 -6.144 13.4 -9.476 V-60.984 Q13.4 -64.385 15.827 -66.777 Q18.254 -69.17 21.586 -69.17 H73.07 Q76.402 -69.17 78.829 -66.777 Q81.256 -64.385 81.256 -60.984 V-54.166 H91.078 V-46.711 H81.256 V-38.969 H91.078 V-31.491 H81.256 V-23.749 H91.078 V-16.294 H81.256 V-9.525 Q81.256 -6.144 78.829 -3.717 Q76.402 -1.29 73.07 -1.29 H21.586 Z M21.586 -9.476 H73.07 Q73.07 -9.476 73.07 -9.476 Q73.07 -9.476 73.07 -9.476 V-60.984 Q73.07 -60.984 73.07 -60.984 Q73.07 -60.984 73.07 -60.984 H21.586 Q21.586 -60.984 21.586 -60.984 Q21.586 -60.984 21.586 -60.984 V-9.476 Q21.586 -9.476 21.586 -9.476 Q21.586 -9.476 21.586 -9.476 Z"/></g><g id="Regular-S" transform="matrix(1 0 0 1 1405.73 696)"><path d="M26.037 -13.927 H44.973 V-25.762 H26.037 V-13.927 Z M26.037 -30.496 H44.973 V-56.533 H26.037 V-30.496 Z M49.707 -13.927 H68.643 V-39.964 H49.707 V-13.927 Z M49.707 -44.698 H68.643 V-56.533 H49.707 V-44.698 Z M21.303 -2.092 Q18.443 -2.092 16.322 -4.212 Q14.202 -6.333 14.202 -9.193 V-61.267 Q14.202 -64.196 16.322 -66.282 Q18.443 -68.368 21.303 -68.368 H73.377 Q76.237 -68.368 78.358 -66.282 Q80.478 -64.196 80.478 -61.267 V-54.166 H89.946 V-47.065 H80.478 V-38.78 H89.946 V-31.679 H80.478 V-23.395 H89.946 V-16.294 H80.478 V-9.242 Q80.478 -6.333 78.358 -4.212 Q76.237 -2.092 73.377 -2.092 H21.303 Z M21.303 -9.193 H73.377 Q73.377 -9.193 73.377 -9.193 Q73.377 -9.193 73.377 -9.193 V-61.267 Q73.377 -61.267 73.377 -61.267 Q73.377 -61.267 73.377 -61.267 H21.303 Q21.303 -61.267 21.303 -61.267 Q21.303 -61.267 21.303 -61.267 V-9.193 Q21.303 -9.193 21.303 -9.193 Q21.303 -9.193 21.303 -9.193 Z"/></g><g id="Light-S" transform="matrix(1 0 0 1 1109.75 696)"><path d="M26.644 -14.534 H44.67 V-25.459 H26.644 V-14.534 Z M26.644 -30.799 H44.67 V-55.926 H26.644 V-30.799 Z M50.01 -14.534 H68.036 V-39.661 H50.01 V-14.534 Z M50.01 -45.001 H68.036 V-55.926 H50.01 V-45.001 Z M22.517 -4.065 Q19.922 -4.065 18.048 -5.938 Q16.175 -7.812 16.175 -10.407 V-60.053 Q16.175 -62.717 18.048 -64.556 Q19.922 -66.395 22.517 -66.395 H72.163 Q74.758 -66.395 76.632 -64.556 Q78.505 -62.717 78.505 -60.053 V-52.649 H87.063 V-47.52 H78.505 V-37.794 H87.063 V-32.666 H78.505 V-22.94 H87.063 V-17.811 H78.505 V-10.456 Q78.505 -7.812 76.632 -5.938 Q74.758 -4.065 72.163 -4.065 H22.517 Z M22.517 -9.193 H72.163 Q72.618 -9.193 72.998 -9.572 Q73.377 -9.952 73.377 -10.407 V-60.053 Q73.377 -60.508 72.998 -60.888 Q72.618 -61.267 72.163 -61.267 H22.517 Q22.062 -61.267 21.682 -60.888 Q21.303 -60.508 21.303 -60.053 V-10.407 Q21.303 -9.952 21.682 -9.572 Q22.062 -9.193 22.517 -9.193 Z"/></g><g id="Thin-S" transform="matrix(1 0 0 1 814.015 696)"><path d="M27.251 -15.141 H44.366 V-25.155 H27.251 V-15.141 Z M27.251 -31.103 H44.366 V-55.319 H27.251 V-31.103 Z M50.314 -15.141 H67.429 V-39.357 H50.314 V-15.141 Z M50.314 -45.305 H67.429 V-55.319 H50.314 V-45.305 Z M23.731 -6.037 Q21.402 -6.037 19.774 -7.664 Q18.147 -9.292 18.147 -11.621 V-58.839 Q18.147 -61.237 19.774 -62.83 Q21.402 -64.423 23.731 -64.423 H70.949 Q73.278 -64.423 74.906 -62.83 Q76.533 -61.237 76.533 -58.839 V-51.131 H84.18 V-47.975 H76.533 V-36.808 H84.18 V-33.652 H76.533 V-22.485 H84.18 V-19.329 H76.533 V-11.67 Q76.533 -9.292 74.906 -7.664 Q73.278 -6.037 70.949 -6.037 H23.731 Z M23.731 -9.193 H70.949 Q71.86 -9.193 72.618 -9.952 Q73.377 -10.71 73.377 -11.621 V-58.839 Q73.377 -59.75 72.618 -60.508 Q71.86 -61.267 70.949 -61.267 H23.731 Q22.82 -61.267 22.062 -60.508 Q21.303 -59.75 21.303 -58.839 V-11.621 Q21.303 -10.71 22.062 -9.952 Q22.82 -9.193 23.731 -9.193 Z"/></g><g id="Ultralight-S" transform="matrix(1 0 0 1 517.792 696)"><path d="M27.615 -15.505 H44.184 V-24.973 H27.615 V-15.505 Z M27.615 -31.285 H44.184 V-54.955 H27.615 V-31.285 Z M50.496 -15.505 H67.065 V-39.175 H50.496 V-15.505 Z M50.496 -45.487 H67.065 V-54.955 H50.496 V-45.487 Z M24.459 -7.22 Q22.289 -7.22 20.81 -8.7 Q19.331 -10.179 19.331 -12.349 V-58.111 Q19.331 -60.35 20.81 -61.795 Q22.289 -63.239 24.459 -63.239 H70.221 Q72.391 -63.239 73.87 -61.795 Q75.35 -60.35 75.35 -58.111 V-50.221 H82.451 V-48.248 H75.35 V-36.216 H82.451 V-34.244 H75.35 V-22.211 H82.451 V-20.239 H75.35 V-12.398 Q75.35 -10.179 73.87 -8.7 Q72.391 -7.22 70.221 -7.22 H24.459 Z M24.459 -9.193 H70.221 Q71.404 -9.193 72.391 -10.179 Q73.377 -11.165 73.377 -12.349 V-58.111 Q73.377 -59.294 72.391 -60.281 Q71.404 -61.267 70.221 -61.267 H24.459 Q23.276 -61.267 22.289 -60.281 Q21.303 -59.294 21.303 -58.111 V-12.349 Q21.303 -11.165 22.289 -10.179 Q23.276 -9.193 24.459 -9.193 Z"/></g></g></svg>