<svg xmlns="http://www.w3.org/2000/svg" version="1.1" width="3300" height="2000"><g id="Notes"><style>
    text {
      font-family: monospace;
      text-anchor: middle;
    }
    text.emphasis {
      font-weight:bold;
    }
    text.lanchor {
      text-anchor: start;
    }
  </style><rect height="2200" id="artboard" fill="white" width="3300" x="0" y="0"/><line id="" style="fill:none;stroke:black;stroke-width:0.5;" x1="263" x2="3036" y1="292" y2="292"/><text class="lanchor emphasis" transform="matrix(1 0 0 1 263 322)">Weight/Scale Variations</text><text transform="matrix(1 0 0 1 559.711 322)">Ultralight</text><text transform="matrix(1 0 0 1 856.422 322)">Thin</text><text transform="matrix(1 0 0 1 1153.13 322)">Light</text><text transform="matrix(1 0 0 1 1449.84 322)">Regular</text><text transform="matrix(1 0 0 1 1746.56 322)">Medium</text><text transform="matrix(1 0 0 1 2043.27 322)">Semibold</text><text transform="matrix(1 0 0 1 2339.98 322)">Bold</text><text transform="matrix(1 0 0 1 2636.69 322)">Heavy</text><text transform="matrix(1 0 0 1 2933.4 322)">Black</text><text id="template-version" style="text-anchor: end;" transform="matrix(1 0 0 1 3036 1933)">Template v.1.0</text><text class="lanchor" transform="matrix(1 0 0 1 263 726)">Small</text><text class="lanchor" transform="matrix(1 0 0 1 263 1156)">Medium</text><text class="lanchor" transform="matrix(1 0 0 1 263 1586)">Large</text></g><g id="Guides"><g id="H-reference" style="fill:#27AAE1;stroke:none;" transform="matrix(1 0 0 1 339 696)"><path d="M 54.9316 0 L 57.666 0 L 30.5664 -70.459 L 28.0762 -70.459 L 0.976562 0 L 3.66211 0 L 12.9395 -24.4629 L 45.7031 -24.4629 Z M 29.1992 -67.0898 L 29.4434 -67.0898 L 44.8242 -26.709 L 13.8184 -26.709 Z"/></g><line id="Baseline-S" style="fill:none;stroke:#27AAE1;opacity:1;stroke-width:0.577;" x1="263" x2="3036" y1="696" y2="696"/><line id="Capline-S" style="fill:none;stroke:#27AAE1;opacity:1;stroke-width:0.577;" x1="263" x2="3036" y1="625.541" y2="625.541"/><g id="H-reference" style="fill:#27AAE1;stroke:none;" transform="matrix(1 0 0 1 339 1126)"><path d="M 54.9316 0 L 57.666 0 L 30.5664 -70.459 L 28.0762 -70.459 L 0.976562 0 L 3.66211 0 L 12.9395 -24.4629 L 45.7031 -24.4629 Z M 29.1992 -67.0898 L 29.4434 -67.0898 L 44.8242 -26.709 L 13.8184 -26.709 Z"/></g><line id="Baseline-M" style="fill:none;stroke:#27AAE1;opacity:1;stroke-width:0.577;" x1="263" x2="3036" y1="1126" y2="1126"/><line id="Capline-M" style="fill:none;stroke:#27AAE1;opacity:1;stroke-width:0.577;" x1="263" x2="3036" y1="1055.54" y2="1055.54"/><g id="H-reference" style="fill:#27AAE1;stroke:none;" transform="matrix(1 0 0 1 339 1556)"><path d="M 54.9316 0 L 57.666 0 L 30.5664 -70.459 L 28.0762 -70.459 L 0.976562 0 L 3.66211 0 L 12.9395 -24.4629 L 45.7031 -24.4629 Z M 29.1992 -67.0898 L 29.4434 -67.0898 L 44.8242 -26.709 L 13.8184 -26.709 Z"/></g><line id="Baseline-L" style="fill:none;stroke:#27AAE1;opacity:1;stroke-width:0.577;" x1="263" x2="3036" y1="1556" y2="1556"/><line id="Capline-L" style="fill:none;stroke:#27AAE1;opacity:1;stroke-width:0.577;" x1="263" x2="3036" y1="1485.54" y2="1485.54"/><rect height="119.336" id="left-margin" style="fill:darkred;stroke:none;opacity:0.4;" width="12.4512" x="1394.06" y="1030.79"/><rect height="119.336" id="right-margin" style="fill:darkgreen;stroke:none;opacity:0.4;" width="12.4512" x="1502.5112" y="1030.79"/><rect x="1406.5112" y="1045" width="96" height="96" fill="none" stroke="blue" stroke-dasharray="5"/><rect x="1394.06" y="1030.79" width="120.9024" height="119.336" fill="none" stroke="blue"/></g><g id="Symbols"><g id="Bold-L" transform="matrix(1 0 0 1 2266 1556)"><path d="M81.351 22.578 V7.663 H138.03 V22.578 H81.351 Z M102.313 0.809 V-64.416 Q102.313 -66.011 101.296 -66.947 Q100.279 -67.883 98.846 -67.883 H73.207 V-46.84 Q73.207 -43.736 71.051 -41.62 Q68.894 -39.503 65.79 -39.503 H23.865 Q19.837 -39.503 17.699 -42.768 Q15.561 -46.034 17.173 -49.823 L33.137 -86.749 Q34.966 -90.811 38.608 -93.174 Q42.249 -95.537 46.843 -95.537 H58.453 Q62.6 -95.537 66.049 -93.459 Q69.499 -91.38 71.434 -88.039 V-82.799 H96.75 Q105.135 -82.799 111.101 -76.832 Q117.068 -70.866 117.068 -62.32 V0.809 H102.313 Z"/></g><g id="Semibold-L" transform="matrix(1 0 0 1 1970.27 1556)"><path d="M82.542 22.578 V10.116 H136.838 V22.578 H82.542 Z M103.505 3.263 V-62.944 Q103.505 -65.38 101.892 -66.947 Q100.279 -68.514 97.935 -68.514 H72.156 V-46.7 Q72.156 -44.086 70.35 -42.321 Q68.544 -40.555 65.93 -40.555 H23.655 Q20.255 -40.555 18.433 -43.294 Q16.612 -46.034 18.014 -49.192 L34.469 -87.1 Q36.017 -90.53 39.067 -92.508 Q42.116 -94.486 45.932 -94.486 H59.785 Q63.792 -94.486 66.926 -92.127 Q70.06 -89.768 71.153 -86.217 V-80.976 H96.75 Q104.674 -80.976 110.275 -75.375 Q115.876 -69.774 115.876 -61.759 V3.263 H103.505 Z"/></g><g id="Medium-L" transform="matrix(1 0 0 1 1674.31 1556)"><path d="M83.436 22.578 V11.957 H135.944 V22.578 H83.436 Z M104.399 5.103 V-61.84 Q104.399 -64.906 102.339 -66.947 Q100.279 -68.987 97.251 -68.987 H71.367 V-46.595 Q71.367 -44.349 69.824 -42.846 Q68.281 -41.343 66.035 -41.343 H23.497 Q20.568 -41.343 18.984 -43.689 Q17.401 -46.034 18.645 -48.719 L35.468 -87.363 Q36.806 -90.32 39.411 -92.009 Q42.016 -93.697 45.248 -93.697 H60.784 Q64.686 -93.697 67.583 -91.128 Q70.48 -88.558 70.943 -84.85 V-79.609 H96.75 Q104.327 -79.609 109.655 -74.282 Q114.982 -68.954 114.982 -61.338 V5.103 H104.399 Z"/></g><g id="Regular-L" transform="matrix(1 0 0 1 1378.56 1556)"><path d="M84.092 22.578 V13.306 H135.289 V22.578 H84.092 Z M105.054 6.453 V-61.03 Q105.054 -64.559 102.667 -66.947 Q100.279 -69.334 96.75 -69.334 H70.789 V-46.517 Q70.789 -44.542 69.438 -43.232 Q68.088 -41.922 66.112 -41.922 H23.381 Q20.798 -41.922 19.389 -43.978 Q17.979 -46.034 19.108 -48.372 L36.201 -87.556 Q37.385 -90.166 39.663 -91.642 Q41.942 -93.119 44.747 -93.119 H61.517 Q65.342 -93.119 68.065 -90.395 Q70.789 -87.672 70.789 -83.847 V-78.606 H96.75 Q104.073 -78.606 109.2 -73.48 Q114.326 -68.353 114.326 -61.03 V6.453 H105.054 Z"/></g><g id="Light-L" transform="matrix(1 0 0 1 1082.77 1556)"><path d="M84.03 21.028 V13.958 H132.157 V21.028 H84.03 Z M104.558 4.779 V-60.782 Q104.558 -64.781 101.847 -67.492 Q99.136 -70.203 95.137 -70.203 H69.889 V-48.812 Q69.889 -46.853 68.578 -45.597 Q67.266 -44.341 65.306 -44.341 H29.336 Q26.77 -44.341 25.429 -46.319 Q24.089 -48.298 25.186 -50.636 L39.953 -84.578 Q41.034 -87.107 43.295 -88.547 Q45.557 -89.987 48.282 -89.987 H60.835 Q64.558 -89.987 67.193 -87.372 Q69.827 -84.758 69.889 -81.056 V-77.273 H95.137 Q102.014 -77.273 106.821 -72.466 Q111.628 -67.658 111.628 -60.782 V4.779 H104.558 Z"/></g><g id="Thin-L" transform="matrix(1 0 0 1 787.282 1556)"><path d="M83.968 19.477 V14.609 H129.025 V19.477 H83.968 Z M104.062 3.104 V-60.534 Q104.062 -65.003 101.028 -68.037 Q97.994 -71.071 93.525 -71.071 H68.99 V-51.107 Q68.99 -49.163 67.717 -47.961 Q66.444 -46.759 64.5 -46.759 H35.289 Q32.74 -46.759 31.469 -48.66 Q30.197 -50.561 31.264 -52.899 L43.705 -81.602 Q44.683 -84.049 46.927 -85.452 Q49.17 -86.855 51.817 -86.855 H60.153 Q63.775 -86.855 66.321 -84.35 Q68.866 -81.846 68.99 -78.265 V-75.939 H93.525 Q99.954 -75.939 104.442 -71.451 Q108.931 -66.963 108.931 -60.534 V3.104 H104.062 Z"/></g><g id="Ultralight-L" transform="matrix(1 0 0 1 491.205 1556)"><path d="M83.931 18.547 V14.999 H127.146 V18.547 H83.931 Z M103.764 2.099 V-60.385 Q103.764 -65.136 100.536 -68.364 Q97.308 -71.592 92.558 -71.592 H68.451 V-52.484 Q68.451 -50.549 67.201 -49.38 Q65.951 -48.211 64.016 -48.211 H38.861 Q36.323 -48.211 35.093 -50.065 Q33.863 -51.919 34.911 -54.257 L45.956 -79.816 Q46.873 -82.214 49.106 -83.595 Q51.339 -84.976 53.938 -84.976 H59.743 Q63.305 -84.976 65.797 -82.537 Q68.289 -80.098 68.451 -76.591 V-75.139 H92.558 Q98.719 -75.139 103.015 -70.843 Q107.312 -66.546 107.312 -60.385 V2.099 H103.764 Z"/></g><g id="Bold-M" transform="matrix(1 0 0 1 2281.8 1126)"><path d="M62.438 9.458 V-5.667 H107.562 V9.458 H62.438 Z M77.438 -11.292 V-58.73 Q77.438 -58.863 77.348 -58.953 Q77.258 -59.042 77.125 -59.042 H57.188 V-45.605 Q57.188 -42.542 54.938 -40.292 Q52.688 -38.042 49.625 -38.042 H20.5 Q16.435 -38.042 14.217 -41.417 Q12 -44.792 13.688 -48.605 L24.5 -73.417 Q26.25 -77.605 29.984 -80.011 Q33.717 -82.417 38.312 -82.417 H42.062 Q46.305 -82.417 49.809 -80.289 Q53.312 -78.16 55.312 -74.792 V-74.167 H75 Q82.318 -74.167 87.44 -69.045 Q92.562 -63.923 92.562 -56.605 V-11.292 H77.438 Z"/></g><g id="Semibold-M" transform="matrix(1 0 0 1 1985.97 1126)"><path d="M63.687 9.458 V-3.168 H106.313 V9.458 H63.687 Z M78.687 -8.793 V-57.208 Q78.687 -58.265 77.973 -58.98 Q77.258 -59.695 76.201 -59.695 H56.101 V-45.442 Q56.101 -42.869 54.231 -40.999 Q52.361 -39.129 49.788 -39.129 H20.283 Q16.867 -39.129 15.004 -41.961 Q13.141 -44.792 14.557 -47.953 L25.859 -73.798 Q27.337 -77.279 30.448 -79.305 Q33.559 -81.331 37.389 -81.331 H43.475 Q47.555 -81.331 50.733 -78.93 Q53.91 -76.529 55.041 -72.945 V-72.32 H75 Q81.797 -72.32 86.555 -67.562 Q91.313 -62.804 91.313 -56.007 V-8.793 H78.687 Z"/></g><g id="Medium-M" transform="matrix(1 0 0 1 1689.91 1126)"><path d="M64.625 9.458 V-1.292 H105.375 V9.458 H64.625 Z M79.625 -6.917 V-56.067 Q79.625 -57.817 78.441 -59 Q77.258 -60.184 75.508 -60.184 H55.285 V-45.32 Q55.285 -43.113 53.701 -41.529 Q52.117 -39.945 49.91 -39.945 H20.12 Q17.192 -39.945 15.594 -42.369 Q13.997 -44.792 15.209 -47.464 L26.878 -74.083 Q28.152 -77.034 30.797 -78.775 Q33.441 -80.515 36.696 -80.515 H44.535 Q48.492 -80.515 51.425 -77.911 Q54.359 -75.306 54.837 -71.559 V-70.934 H75 Q81.406 -70.934 85.891 -66.449 Q90.375 -61.965 90.375 -55.559 V-6.917 H79.625 Z"/></g><g id="Regular-M" transform="matrix(1 0 0 1 1394.06 1126)"><path d="M65.312 9.458 V0.083 H104.688 V9.458 H65.312 Z M80.312 -5.542 V-55.23 Q80.312 -57.488 78.785 -59.015 Q77.258 -60.542 75 -60.542 H54.688 V-45.23 Q54.688 -43.292 53.312 -41.917 Q51.938 -40.542 50 -40.542 H20 Q17.429 -40.542 16.027 -42.667 Q14.625 -44.792 15.688 -47.105 L27.625 -74.292 Q28.75 -76.855 31.052 -78.386 Q33.354 -79.917 36.188 -79.917 H45.312 Q49.18 -79.917 51.934 -77.164 Q54.688 -74.41 54.688 -70.542 V-69.917 H75 Q81.12 -69.917 85.404 -65.634 Q89.688 -61.35 89.688 -55.23 V-5.542 H80.312 Z"/></g><g id="Light-M" transform="matrix(1 0 0 1 1098.18 1126)"><path d="M65.264 8.256 V1.261 H102.26 V8.256 H65.264 Z M80.264 -6.167 V-55.038 Q80.264 -57.756 78.366 -59.654 Q76.468 -61.552 73.75 -61.552 H53.99 V-46.672 Q53.99 -44.891 52.742 -43.654 Q51.493 -42.418 49.712 -42.418 H24.087 Q21.722 -42.418 20.469 -44.338 Q19.217 -46.259 20.207 -48.379 L30.678 -72.369 Q31.723 -74.724 33.819 -76.107 Q35.916 -77.489 38.495 -77.489 H45.457 Q48.957 -77.489 51.45 -75.013 Q53.942 -72.536 53.99 -69.052 V-68.547 H73.75 Q79.379 -68.547 83.319 -64.607 Q87.26 -60.667 87.26 -55.038 V-6.167 H80.264 Z"/></g><g id="Thin-M" transform="matrix(1 0 0 1 802.565 1126)"><path d="M65.216 7.054 V2.438 H99.832 V7.054 H65.216 Z M80.216 -6.792 V-54.845 Q80.216 -58.024 77.947 -60.293 Q75.678 -62.562 72.5 -62.562 H53.293 V-48.115 Q53.293 -46.49 52.171 -45.391 Q51.048 -44.292 49.423 -44.292 H28.173 Q26.014 -44.292 24.911 -46.009 Q23.808 -47.725 24.726 -49.653 L33.731 -70.446 Q34.696 -72.594 36.587 -73.828 Q38.477 -75.062 40.803 -75.062 H45.601 Q48.734 -75.062 50.966 -72.862 Q53.197 -70.663 53.293 -67.562 V-67.177 H72.5 Q77.638 -67.177 81.235 -63.58 Q84.832 -59.984 84.832 -54.845 V-6.792 H80.216 Z"/></g><g id="Ultralight-M" transform="matrix(1 0 0 1 506.415 1126)"><path d="M65.188 6.333 V3.145 H98.375 V6.333 H65.188 Z M80.188 -7.167 V-54.73 Q80.188 -58.185 77.696 -60.676 Q75.205 -63.167 71.75 -63.167 H52.875 V-48.98 Q52.875 -47.449 51.828 -46.433 Q50.781 -45.417 49.25 -45.417 H30.625 Q28.59 -45.417 27.576 -47.011 Q26.562 -48.605 27.438 -50.417 L35.562 -69.292 Q36.48 -71.316 38.247 -72.46 Q40.013 -73.605 42.188 -73.605 H45.688 Q48.601 -73.605 50.675 -71.572 Q52.75 -69.539 52.875 -66.667 V-66.355 H71.75 Q76.594 -66.355 79.984 -62.964 Q83.375 -59.574 83.375 -54.73 V-7.167 H80.188 Z"/></g><g id="Bold-S" transform="matrix(1 0 0 1 2294.23 696)"><path d="M50.052 -2.339 V-13.483 H82.5 V-2.339 H50.052 Z M61.887 -18.71 V-52.193 Q61.887 -51.628 62.27 -51.245 Q62.653 -50.862 63.219 -50.862 H44.332 V-42.627 Q44.332 -40.881 43.01 -39.56 Q41.689 -38.238 39.943 -38.238 H16.963 Q14.742 -38.238 13.437 -40.112 Q12.131 -41.986 12.969 -44.205 L18.936 -62.894 Q20.12 -66.198 22.974 -68.146 Q25.828 -70.094 29.341 -70.094 H33.187 Q36.209 -70.094 38.742 -68.646 Q41.275 -67.198 42.853 -64.867 V-62.007 H61.542 Q66.329 -62.007 69.681 -58.656 Q73.032 -55.304 73.032 -50.517 V-18.71 H61.887 Z"/></g><g id="Semibold-S" transform="matrix(1 0 0 1 1998.1 696)"><path d="M51.038 -2.339 V-11.511 H81.514 V-2.339 H51.038 Z M62.873 -16.738 V-50.993 Q62.873 -51.156 62.763 -51.266 Q62.653 -51.377 62.49 -51.377 H43.474 V-42.498 Q43.474 -41.139 42.453 -40.117 Q41.431 -39.096 40.072 -39.096 H16.792 Q15.083 -39.096 14.057 -40.541 Q13.031 -41.986 13.655 -43.69 L20.008 -63.194 Q20.977 -65.941 23.34 -67.589 Q25.703 -69.236 28.612 -69.236 H34.302 Q37.195 -69.236 39.471 -67.574 Q41.746 -65.912 42.638 -63.409 V-60.549 H61.542 Q65.918 -60.549 68.982 -57.485 Q72.046 -54.422 72.046 -50.045 V-16.738 H62.873 Z"/></g><g id="Medium-S" transform="matrix(1 0 0 1 1701.85 696)"><path d="M51.778 -2.339 V-10.031 H80.774 V-2.339 H51.778 Z M63.613 -15.258 V-50.092 Q63.613 -50.802 63.133 -51.282 Q62.653 -51.763 61.943 -51.763 H42.831 V-42.402 Q42.831 -41.331 42.035 -40.535 Q41.239 -39.739 40.168 -39.739 H16.663 Q15.339 -39.739 14.523 -40.862 Q13.707 -41.986 14.17 -43.304 L20.812 -63.42 Q21.62 -65.748 23.615 -67.171 Q25.61 -68.593 28.065 -68.593 H35.138 Q37.935 -68.593 40.017 -66.77 Q42.1 -64.947 42.477 -62.315 V-59.455 H61.542 Q65.61 -59.455 68.458 -56.608 Q71.306 -53.76 71.306 -49.691 V-15.258 H63.613 Z"/></g><g id="Regular-S" transform="matrix(1 0 0 1 1405.73 696)"><path d="M52.321 -2.339 V-8.946 H80.231 V-2.339 H52.321 Z M64.156 -14.174 V-49.432 Q64.156 -50.543 63.404 -51.294 Q62.653 -52.046 61.542 -52.046 H42.359 V-42.331 Q42.359 -41.473 41.728 -40.842 Q41.097 -40.211 40.239 -40.211 H16.569 Q15.527 -40.211 14.864 -41.098 Q14.202 -41.986 14.547 -43.021 L21.402 -63.585 Q22.092 -65.606 23.817 -66.864 Q25.542 -68.121 27.664 -68.121 H35.752 Q38.477 -68.121 40.418 -66.18 Q42.359 -64.239 42.359 -61.514 V-58.653 H61.542 Q65.384 -58.653 68.074 -55.964 Q70.763 -53.274 70.763 -49.432 V-14.174 H64.156 Z"/></g><g id="Light-S" transform="matrix(1 0 0 1 1109.75 696)"><path d="M52.283 -3.287 V-8.017 H78.316 V-3.287 H52.283 Z M64.118 -14.667 V-49.28 Q64.118 -50.754 63.074 -51.798 Q62.03 -52.842 60.556 -52.842 H41.809 V-43.469 Q41.809 -42.734 41.278 -42.212 Q40.746 -41.69 40.011 -41.69 H19.794 Q18.914 -41.69 18.369 -42.416 Q17.825 -43.143 18.113 -44.027 L23.811 -62.067 Q24.438 -63.926 26 -65.066 Q27.562 -66.206 29.485 -66.206 H35.865 Q38.302 -66.206 40.037 -64.483 Q41.771 -62.761 41.809 -60.338 V-57.572 H60.556 Q64.011 -57.572 66.429 -55.154 Q68.848 -52.735 68.848 -49.28 V-14.667 H64.118 Z"/></g><g id="Thin-S" transform="matrix(1 0 0 1 814.015 696)"><path d="M52.245 -4.235 V-7.088 H76.4 V-4.235 H52.245 Z M64.08 -15.16 V-49.129 Q64.08 -50.966 62.743 -52.302 Q61.407 -53.639 59.57 -53.639 H41.259 V-44.607 Q41.259 -43.995 40.827 -43.582 Q40.395 -43.169 39.784 -43.169 H23.017 Q22.3 -43.169 21.874 -43.735 Q21.447 -44.3 21.678 -45.032 L26.219 -60.55 Q26.784 -62.245 28.183 -63.268 Q29.583 -64.29 31.306 -64.29 H35.979 Q38.126 -64.29 39.655 -62.787 Q41.184 -61.283 41.259 -59.162 V-56.491 H59.57 Q62.637 -56.491 64.785 -54.344 Q66.932 -52.196 66.932 -49.129 V-15.16 H64.08 Z"/></g><g id="Ultralight-S" transform="matrix(1 0 0 1 517.792 696)"><path d="M52.222 -4.804 V-6.53 H75.251 V-4.804 H52.222 Z M64.057 -15.456 V-49.037 Q64.057 -51.093 62.545 -52.605 Q61.033 -54.117 58.978 -54.117 H40.929 V-45.29 Q40.929 -44.752 40.557 -44.405 Q40.185 -44.057 39.647 -44.057 H24.952 Q24.332 -44.057 23.977 -44.525 Q23.621 -44.994 23.818 -45.635 L27.664 -59.64 Q28.191 -61.236 29.493 -62.189 Q30.796 -63.141 32.398 -63.141 H36.047 Q38.021 -63.141 39.426 -61.768 Q40.831 -60.396 40.929 -58.456 V-55.843 H58.978 Q61.813 -55.843 63.798 -53.858 Q65.783 -51.873 65.783 -49.037 V-15.456 H64.057 Z"/></g></g></svg>