<svg xmlns="http://www.w3.org/2000/svg" height="20" viewBox="0 -960 960 960" width="20"><path d="M334.087-87.87q-121.913 0-207.468-85.528-85.554-85.529-85.554-207.732h80.37q0 88.565 62.023 150.728 62.024 62.163 150.629 62.163v80.37Zm0-123.586q-70.598 0-120.016-49.489-49.419-49.488-49.419-120.185h80.37q0 36.891 25.927 63.097 25.927 26.207 63.138 26.207v80.37Zm55.891-131.957q-37.782 0-60.391-22.609t-22.609-60.391v-313.522q0-37.782 22.609-60.391t60.391-22.609h180.044q37.782 0 60.391 22.609t22.609 60.391v313.522q0 37.782-22.609 60.391t-60.391 22.609H389.978Zm-2.63-80.37h185.304v-318.782H387.348v318.782Zm238.804 212.327v-80.37q36.891 0 62.978-26.047 26.087-26.046 26.087-63.257h80.37q0 70.697-49.418 120.185-49.419 49.489-120.017 49.489Zm0 123.587v-80.37q88.605 0 150.629-62.163 62.023-62.163 62.023-150.728h80.37q0 122.203-85.554 207.732-85.555 85.529-207.468 85.529ZM387.348-423.783h185.304-185.304Z"/></svg>