<svg xmlns="http://www.w3.org/2000/svg" height="40" viewBox="0 -960 960 960" width="40"><path d="M345.739-79.97q-126.746 0-215.819-88.016-89.072-88.016-89.072-214.789h70.427q0 96.683 68.381 164.61 68.381 67.926 166.083 67.926v70.268Zm0-139.617q-68.605 0-116.861-47.349-48.255-47.35-48.255-115.839h70.268q0 39.14 27.604 66.03t67.244 26.89v70.268Zm47.949-151.717q-29.684 0-51.132-21.448-21.447-21.448-21.447-51.132v-322.689q0-29.684 21.447-51.132 21.448-21.447 51.132-21.447h173.291q29.684 0 51.131 21.447 21.448 21.448 21.448 51.132v322.689q0 29.684-21.448 51.132-21.447 21.448-51.131 21.448H393.688Zm-2.152-70.428H569.29v-327.153H391.536v327.153ZM615-219.587v-70.268q38.87 0 66.609-27.095 27.739-27.095 27.739-65.825h70.268q0 68.531-48.013 115.859Q683.59-219.587 615-219.587Zm0 139.616v-70.268q97.091 0 165.528-68.045 68.436-68.046 68.436-164.491h70.427q0 126.4-88.906 214.602T615-79.971ZM391.536-441.732H569.29 391.536Z"/></svg>