<svg xmlns="http://www.w3.org/2000/svg" version="1.1" width="3300" height="2000"><g id="Notes"><style>
    text {
      font-family: monospace;
      text-anchor: middle;
    }
    text.emphasis {
      font-weight:bold;
    }
    text.lanchor {
      text-anchor: start;
    }
  </style><rect height="2200" id="artboard" fill="white" width="3300" x="0" y="0"/><line id="" style="fill:none;stroke:black;stroke-width:0.5;" x1="263" x2="3036" y1="292" y2="292"/><text class="lanchor emphasis" transform="matrix(1 0 0 1 263 322)">Weight/Scale Variations</text><text transform="matrix(1 0 0 1 559.711 322)">Ultralight</text><text transform="matrix(1 0 0 1 856.422 322)">Thin</text><text transform="matrix(1 0 0 1 1153.13 322)">Light</text><text transform="matrix(1 0 0 1 1449.84 322)">Regular</text><text transform="matrix(1 0 0 1 1746.56 322)">Medium</text><text transform="matrix(1 0 0 1 2043.27 322)">Semibold</text><text transform="matrix(1 0 0 1 2339.98 322)">Bold</text><text transform="matrix(1 0 0 1 2636.69 322)">Heavy</text><text transform="matrix(1 0 0 1 2933.4 322)">Black</text><text id="template-version" style="text-anchor: end;" transform="matrix(1 0 0 1 3036 1933)">Template v.1.0</text><text class="lanchor" transform="matrix(1 0 0 1 263 726)">Small</text><text class="lanchor" transform="matrix(1 0 0 1 263 1156)">Medium</text><text class="lanchor" transform="matrix(1 0 0 1 263 1586)">Large</text></g><g id="Guides"><g id="H-reference" style="fill:#27AAE1;stroke:none;" transform="matrix(1 0 0 1 339 696)"><path d="M 54.9316 0 L 57.666 0 L 30.5664 -70.459 L 28.0762 -70.459 L 0.976562 0 L 3.66211 0 L 12.9395 -24.4629 L 45.7031 -24.4629 Z M 29.1992 -67.0898 L 29.4434 -67.0898 L 44.8242 -26.709 L 13.8184 -26.709 Z"/></g><line id="Baseline-S" style="fill:none;stroke:#27AAE1;opacity:1;stroke-width:0.577;" x1="263" x2="3036" y1="696" y2="696"/><line id="Capline-S" style="fill:none;stroke:#27AAE1;opacity:1;stroke-width:0.577;" x1="263" x2="3036" y1="625.541" y2="625.541"/><g id="H-reference" style="fill:#27AAE1;stroke:none;" transform="matrix(1 0 0 1 339 1126)"><path d="M 54.9316 0 L 57.666 0 L 30.5664 -70.459 L 28.0762 -70.459 L 0.976562 0 L 3.66211 0 L 12.9395 -24.4629 L 45.7031 -24.4629 Z M 29.1992 -67.0898 L 29.4434 -67.0898 L 44.8242 -26.709 L 13.8184 -26.709 Z"/></g><line id="Baseline-M" style="fill:none;stroke:#27AAE1;opacity:1;stroke-width:0.577;" x1="263" x2="3036" y1="1126" y2="1126"/><line id="Capline-M" style="fill:none;stroke:#27AAE1;opacity:1;stroke-width:0.577;" x1="263" x2="3036" y1="1055.54" y2="1055.54"/><g id="H-reference" style="fill:#27AAE1;stroke:none;" transform="matrix(1 0 0 1 339 1556)"><path d="M 54.9316 0 L 57.666 0 L 30.5664 -70.459 L 28.0762 -70.459 L 0.976562 0 L 3.66211 0 L 12.9395 -24.4629 L 45.7031 -24.4629 Z M 29.1992 -67.0898 L 29.4434 -67.0898 L 44.8242 -26.709 L 13.8184 -26.709 Z"/></g><line id="Baseline-L" style="fill:none;stroke:#27AAE1;opacity:1;stroke-width:0.577;" x1="263" x2="3036" y1="1556" y2="1556"/><line id="Capline-L" style="fill:none;stroke:#27AAE1;opacity:1;stroke-width:0.577;" x1="263" x2="3036" y1="1485.54" y2="1485.54"/><rect height="119.336" id="left-margin" style="fill:darkred;stroke:none;opacity:0.4;" width="12.4512" x="1394.06" y="1030.79"/><rect height="119.336" id="right-margin" style="fill:darkgreen;stroke:none;opacity:0.4;" width="12.4512" x="1502.5112" y="1030.79"/><rect x="1406.5112" y="1045" width="96" height="96" fill="none" stroke="blue" stroke-dasharray="5"/><rect x="1394.06" y="1030.79" width="120.9024" height="119.336" fill="none" stroke="blue"/></g><g id="Symbols"><g id="Bold-L" transform="matrix(1 0 0 1 2266 1556)"><path d="M48.415 32.495 Q34.991 32.495 25.477 22.986 Q15.964 13.476 15.964 0.083 Q15.964 -13.472 25.474 -22.98 Q34.985 -32.489 48.536 -32.489 V-19.669 Q40.447 -19.669 34.615 -13.826 Q28.783 -7.983 28.783 0.041 Q28.783 7.904 34.707 13.79 Q40.63 19.676 48.494 19.676 Q56.518 19.676 62.162 14.045 Q67.806 8.415 67.806 -1.932 H80.625 Q80.625 13.871 71.312 23.183 Q62 32.495 48.415 32.495 Z M106.586 26.045 V-6.527 H57.324 L50.794 -17.089 L69.338 -57.644 H54.503 L50.149 -45.872 L38.7 -49.581 L46.048 -68.689 H83.801 Q91.348 -68.689 95.097 -63.225 Q98.846 -57.76 95.863 -51.436 L81.996 -22.491 H119.406 V26.045 H106.586 Z M102.366 -73.043 Q96.75 -73.043 92.84 -76.901 Q88.929 -80.758 88.929 -86.374 Q88.929 -91.99 92.787 -95.9 Q96.644 -99.811 102.26 -99.811 Q107.876 -99.811 111.787 -95.953 Q115.697 -92.096 115.697 -86.48 Q115.697 -80.864 111.839 -76.953 Q107.982 -73.043 102.366 -73.043 Z"/></g><g id="Semibold-L" transform="matrix(1 0 0 1 1970.27 1556)"><path d="M49.499 30.742 Q36.393 30.742 27.09 21.443 Q17.787 12.144 17.787 -0.931 Q17.787 -14.098 27.087 -23.399 Q36.387 -32.699 49.588 -32.699 V-21.422 Q41.195 -21.422 35.129 -15.35 Q29.064 -9.278 29.064 -0.957 Q29.064 7.273 35.181 13.369 Q41.298 19.465 49.529 19.465 Q57.85 19.465 63.739 13.636 Q69.628 7.807 69.628 -2.913 H80.905 Q80.905 12.539 71.801 21.64 Q62.696 30.742 49.499 30.742 Z M108.409 24.292 V-7.509 H56.553 L51.074 -16.318 L69.968 -57.784 H54.993 L50.639 -45.943 L40.102 -49.441 L47.1 -68.058 H84.432 Q91.418 -68.058 95.097 -62.769 Q98.776 -57.479 96.003 -51.576 L81.855 -21.86 H119.686 V24.292 H108.409 Z M101.928 -72.763 Q96.68 -72.763 92.98 -76.427 Q89.28 -80.092 89.28 -85.34 Q89.28 -90.588 92.945 -94.288 Q96.609 -97.988 101.857 -97.988 Q107.105 -97.988 110.805 -94.323 Q114.505 -90.659 114.505 -85.411 Q114.505 -80.163 110.841 -76.463 Q107.176 -72.763 101.928 -72.763 Z"/></g><g id="Medium-L" transform="matrix(1 0 0 1 1674.31 1556)"><path d="M50.312 29.428 Q37.445 29.428 28.299 20.286 Q19.154 11.145 19.154 -1.692 Q19.154 -14.568 28.296 -23.712 Q37.439 -32.857 50.377 -32.857 V-22.737 Q41.756 -22.737 35.515 -16.493 Q29.274 -10.25 29.274 -1.705 Q29.274 6.8 35.537 13.054 Q41.799 19.307 50.305 19.307 Q58.849 19.307 64.922 13.33 Q70.995 7.352 70.995 -3.65 H81.116 Q81.116 11.54 72.167 20.484 Q63.218 29.428 50.312 29.428 Z M109.776 22.978 V-8.245 H55.975 L51.284 -15.74 L70.442 -57.889 H55.361 L51.008 -45.995 L41.154 -49.336 L47.889 -67.585 H84.905 Q91.471 -67.585 95.097 -62.427 Q98.724 -57.269 96.109 -51.681 L81.75 -21.387 H119.896 V22.978 H109.776 Z M101.599 -72.552 Q96.627 -72.552 93.085 -76.072 Q89.543 -79.592 89.543 -84.564 Q89.543 -89.536 93.063 -93.078 Q96.582 -96.621 101.555 -96.621 Q106.527 -96.621 110.069 -93.101 Q113.611 -89.581 113.611 -84.609 Q113.611 -79.637 110.091 -76.095 Q106.571 -72.552 101.599 -72.552 Z"/></g><g id="Regular-L" transform="matrix(1 0 0 1 1378.56 1556)"><path d="M50.909 28.464 Q38.216 28.464 29.186 19.438 Q20.156 10.412 20.156 -2.25 Q20.156 -14.912 29.183 -23.942 Q38.21 -32.972 50.955 -32.972 V-23.701 Q42.167 -23.701 35.797 -17.331 Q29.428 -10.962 29.428 -2.254 Q29.428 6.453 35.797 12.823 Q42.167 19.192 50.874 19.192 Q59.582 19.192 65.79 13.105 Q71.998 7.018 71.998 -4.189 H81.27 Q81.27 10.807 72.436 19.635 Q63.602 28.464 50.909 28.464 Z M110.779 22.014 V-8.785 H55.551 L51.439 -15.316 L70.789 -57.966 H55.631 L51.278 -46.034 L41.925 -49.259 L48.467 -67.238 H85.252 Q91.509 -67.238 95.097 -62.176 Q98.685 -57.115 96.186 -51.758 L81.673 -21.04 H120.051 V22.014 H110.779 Z M101.359 -72.398 Q96.589 -72.398 93.162 -75.812 Q89.736 -79.226 89.736 -83.995 Q89.736 -88.765 93.149 -92.192 Q96.563 -95.618 101.333 -95.618 Q106.103 -95.618 109.529 -92.204 Q112.956 -88.791 112.956 -84.021 Q112.956 -79.251 109.542 -75.825 Q106.128 -72.398 101.359 -72.398 Z"/></g><g id="Light-L" transform="matrix(1 0 0 1 1082.77 1556)"><path d="M51.662 25.549 Q39.829 25.549 31.45 17.098 Q23.071 8.648 23.071 -3.21 Q23.071 -15.068 31.509 -23.493 Q39.947 -31.918 51.792 -31.918 V-24.786 Q42.88 -24.786 36.511 -18.417 Q30.141 -12.047 30.141 -3.216 Q30.141 5.616 36.511 11.985 Q42.88 18.355 51.743 18.355 Q60.605 18.355 66.875 12.183 Q73.146 6.012 73.146 -4.624 H80.216 Q80.216 8.946 71.855 17.247 Q63.495 25.549 51.662 25.549 Z M108.98 19.099 V-9.467 H56.636 L52.648 -15.874 L71.843 -58.152 H56.065 L51.557 -45.786 L44.468 -48.39 L50.669 -65.719 H83.413 Q89.09 -65.719 92.337 -61.308 Q95.584 -56.898 93.115 -51.603 L77.859 -19.179 H116.05 V19.099 H108.98 Z M97.981 -71.003 Q93.581 -71.003 90.433 -74.134 Q87.286 -77.266 87.286 -81.667 Q87.286 -86.067 90.418 -89.214 Q93.549 -92.362 97.95 -92.362 Q102.35 -92.362 105.467 -89.23 Q108.583 -86.098 108.583 -81.698 Q108.583 -77.298 105.482 -74.15 Q102.381 -71.003 97.981 -71.003 Z"/></g><g id="Thin-L" transform="matrix(1 0 0 1 787.282 1556)"><path d="M52.415 22.634 Q41.441 22.634 33.714 14.759 Q25.986 6.884 25.986 -4.169 Q25.986 -15.223 33.835 -23.043 Q41.683 -30.864 52.63 -30.864 V-25.871 Q43.593 -25.871 37.224 -19.502 Q30.855 -13.132 30.855 -4.177 Q30.855 4.779 37.224 11.148 Q43.593 17.517 52.611 17.517 Q61.628 17.517 67.961 11.262 Q74.293 5.007 74.293 -5.058 H79.161 Q79.161 7.086 71.275 14.86 Q63.388 22.634 52.415 22.634 Z M107.182 16.184 V-10.149 H57.721 L53.858 -16.432 L72.897 -58.338 H56.5 L51.836 -45.538 L47.011 -47.522 L52.87 -64.199 H81.574 Q86.672 -64.199 89.577 -60.44 Q92.483 -56.681 90.046 -51.448 L74.045 -17.319 H112.05 V16.184 H107.182 Z M94.604 -69.607 Q90.573 -69.607 87.705 -72.457 Q84.836 -75.307 84.836 -79.338 Q84.836 -83.369 87.686 -86.238 Q90.536 -89.106 94.567 -89.106 Q98.598 -89.106 101.405 -86.256 Q104.211 -83.406 104.211 -79.375 Q104.211 -75.344 101.423 -72.476 Q98.635 -69.607 94.604 -69.607 Z"/></g><g id="Ultralight-L" transform="matrix(1 0 0 1 491.205 1556)"><path d="M52.866 20.885 Q42.409 20.885 35.072 13.355 Q27.735 5.825 27.735 -4.745 Q27.735 -15.316 35.23 -22.773 Q42.725 -30.231 53.132 -30.231 V-26.522 Q44.021 -26.522 37.652 -20.153 Q31.283 -13.784 31.283 -4.754 Q31.283 4.276 37.652 10.646 Q44.021 17.015 53.132 17.015 Q62.242 17.015 68.612 10.709 Q74.981 4.404 74.981 -5.318 H78.529 Q78.529 5.969 70.926 13.427 Q63.324 20.885 52.866 20.885 Z M106.103 14.435 V-10.559 H58.373 L54.583 -16.767 L73.53 -58.45 H56.76 L52.003 -45.389 L48.536 -47.001 L54.192 -63.287 H80.47 Q85.221 -63.287 87.922 -59.919 Q90.623 -56.55 88.204 -51.355 L71.756 -16.202 H109.65 V14.435 H106.103 Z M92.577 -68.77 Q88.768 -68.77 86.067 -71.451 Q83.366 -74.132 83.366 -77.941 Q83.366 -81.751 86.047 -84.452 Q88.728 -87.152 92.538 -87.152 Q96.347 -87.152 98.967 -84.472 Q101.588 -81.791 101.588 -77.981 Q101.588 -74.172 98.987 -71.471 Q96.387 -68.77 92.577 -68.77 Z"/></g><g id="Bold-M" transform="matrix(1 0 0 1 2281.8 1126)"><path d="M38.125 17.77 Q27.188 17.77 19.531 10.114 Q11.875 2.458 11.875 -8.48 Q11.875 -19.542 19.531 -27.136 Q27.188 -34.73 38.188 -34.73 V-21.605 Q32.625 -21.605 28.812 -17.792 Q25 -13.98 25 -8.48 Q25 -3.105 28.875 0.77 Q32.75 4.645 38.125 4.645 Q43.625 4.645 47.438 0.739 Q51.25 -3.167 51.25 -8.667 H64.375 Q64.375 2.395 56.781 10.083 Q49.188 17.77 38.125 17.77 Z M80.625 12.77 V-13.355 H49 L42.188 -24.042 L53.75 -49.605 H42.75 L39.562 -41.73 L28.375 -44.98 L34.812 -60.855 H67.625 Q74.375 -60.855 77.469 -56.074 Q80.562 -51.292 77.75 -45.23 L70.25 -28.98 H93.75 V12.77 H80.625 Z M80.125 -62.48 Q75.188 -62.48 71.844 -65.824 Q68.5 -69.167 68.5 -74.105 Q68.5 -79.042 71.844 -82.386 Q75.188 -85.73 80.125 -85.73 Q85.062 -85.73 88.406 -82.386 Q91.75 -79.042 91.75 -74.105 Q91.75 -69.167 88.406 -65.824 Q85.062 -62.48 80.125 -62.48 Z"/></g><g id="Semibold-M" transform="matrix(1 0 0 1 1985.97 1126)"><path d="M39.212 15.922 Q28.601 15.922 21.189 8.511 Q13.777 1.099 13.777 -9.512 Q13.777 -20.195 21.189 -27.571 Q28.601 -34.947 39.274 -34.947 V-23.453 Q33.386 -23.453 29.329 -19.396 Q25.272 -15.339 25.272 -9.512 Q25.272 -3.757 29.364 0.335 Q33.456 4.428 39.212 4.428 Q45.038 4.428 49.095 0.304 Q53.152 -3.82 53.152 -9.7 H64.647 Q64.647 1.036 57.27 8.479 Q49.894 15.922 39.212 15.922 Z M82.527 10.922 V-14.387 H48.185 L42.459 -23.282 L54.402 -49.768 H43.239 L40.106 -41.839 L29.842 -44.871 L35.899 -60.203 H68.277 Q74.429 -60.203 77.442 -55.585 Q80.454 -50.966 77.913 -45.393 L70.087 -28.328 H94.022 V10.922 H82.527 Z M79.69 -62.208 Q75.133 -62.208 72.007 -65.335 Q68.88 -68.461 68.88 -73.018 Q68.88 -77.575 72.007 -80.702 Q75.133 -83.828 79.69 -83.828 Q84.247 -83.828 87.374 -80.702 Q90.5 -77.575 90.5 -73.018 Q90.5 -68.461 87.374 -65.335 Q84.247 -62.208 79.69 -62.208 Z"/></g><g id="Medium-M" transform="matrix(1 0 0 1 1689.91 1126)"><path d="M40.027 14.536 Q29.66 14.536 22.432 7.308 Q15.204 0.08 15.204 -10.287 Q15.204 -20.684 22.432 -27.897 Q29.66 -35.11 40.09 -35.11 V-24.839 Q33.956 -24.839 29.716 -20.598 Q25.476 -16.358 25.476 -10.287 Q25.476 -4.246 29.731 0.009 Q33.986 4.265 40.027 4.265 Q46.098 4.265 50.338 -0.022 Q54.579 -4.309 54.579 -10.474 H64.85 Q64.85 0.017 57.637 7.277 Q50.424 14.536 40.027 14.536 Z M83.954 9.536 V-15.162 H47.573 L42.663 -22.711 L54.891 -49.89 H43.606 L40.514 -41.92 L30.943 -44.79 L36.715 -59.714 H68.766 Q74.47 -59.714 77.421 -55.218 Q80.372 -50.722 78.035 -45.515 L69.965 -27.839 H94.225 V9.536 H83.954 Z M79.364 -62.004 Q75.092 -62.004 72.129 -64.968 Q69.166 -67.931 69.166 -72.203 Q69.166 -76.475 72.129 -79.438 Q75.092 -82.401 79.364 -82.401 Q83.636 -82.401 86.599 -79.438 Q89.562 -76.475 89.562 -72.203 Q89.562 -67.931 86.599 -64.968 Q83.636 -62.004 79.364 -62.004 Z"/></g><g id="Regular-M" transform="matrix(1 0 0 1 1394.06 1126)"><path d="M40.625 13.52 Q30.438 13.52 23.344 6.426 Q16.25 -0.667 16.25 -10.855 Q16.25 -21.042 23.344 -28.136 Q30.438 -35.23 40.688 -35.23 V-25.855 Q34.375 -25.855 30 -21.48 Q25.625 -17.105 25.625 -10.855 Q25.625 -4.605 30 -0.23 Q34.375 4.145 40.625 4.145 Q46.875 4.145 51.25 -0.261 Q55.625 -4.667 55.625 -11.042 H65 Q65 -0.73 57.906 6.395 Q50.812 13.52 40.625 13.52 Z M85 8.52 V-15.73 H47.125 L42.812 -22.292 L55.25 -49.98 H43.875 L40.812 -41.98 L31.75 -44.73 L37.312 -59.355 H69.125 Q74.5 -59.355 77.406 -54.949 Q80.312 -50.542 78.125 -45.605 L69.875 -27.48 H94.375 V8.52 H85 Z M79.125 -61.855 Q75.062 -61.855 72.219 -64.699 Q69.375 -67.542 69.375 -71.605 Q69.375 -75.667 72.219 -78.511 Q75.062 -81.355 79.125 -81.355 Q83.188 -81.355 86.031 -78.511 Q88.875 -75.667 88.875 -71.605 Q88.875 -67.542 86.031 -64.699 Q83.188 -61.855 79.125 -61.855 Z"/></g><g id="Light-M" transform="matrix(1 0 0 1 1098.18 1126)"><path d="M40.986 11.26 Q31.591 11.26 25.051 4.661 Q18.51 -1.939 18.51 -11.359 Q18.51 -20.778 25.099 -27.355 Q31.688 -33.932 41.096 -33.932 V-26.889 Q34.591 -26.889 30.048 -22.345 Q25.505 -17.802 25.505 -11.36 Q25.505 -4.917 30.048 -0.374 Q34.591 4.169 41.082 4.169 Q47.572 4.169 52.115 -0.398 Q56.659 -4.966 56.659 -11.523 H63.654 Q63.654 -1.98 57.017 4.64 Q50.38 11.26 40.986 11.26 Z M83.846 6.26 V-16.067 H46.909 L43.029 -22.052 L56.019 -50.845 H44.019 L40.74 -42.172 L34.01 -44.345 L39.164 -58.225 H66.785 Q71.567 -58.225 74.161 -54.468 Q76.754 -50.711 74.687 -46.11 L65.043 -25.124 H90.841 V6.26 H83.846 Z M76.216 -61.254 Q72.538 -61.254 69.983 -63.809 Q67.428 -66.364 67.428 -70.042 Q67.428 -73.72 69.983 -76.275 Q72.538 -78.831 76.216 -78.831 Q79.894 -78.831 82.425 -76.275 Q84.957 -73.72 84.957 -70.042 Q84.957 -66.364 82.425 -63.809 Q79.894 -61.254 76.216 -61.254 Z"/></g><g id="Thin-M" transform="matrix(1 0 0 1 802.565 1126)"><path d="M41.346 9.001 Q32.745 9.001 26.757 2.895 Q20.769 -3.21 20.769 -11.862 Q20.769 -20.514 26.853 -26.574 Q32.938 -32.634 41.505 -32.634 V-27.922 Q34.808 -27.922 30.096 -23.211 Q25.385 -18.499 25.385 -11.865 Q25.385 -5.23 30.096 -0.518 Q34.808 4.193 41.538 4.193 Q48.269 4.193 52.981 -0.536 Q57.692 -5.264 57.692 -12.004 H62.308 Q62.308 -3.23 56.127 2.885 Q49.947 9.001 41.346 9.001 Z M82.692 4.001 V-16.403 H46.692 L43.245 -21.812 L56.788 -51.711 H44.163 L40.668 -42.365 L36.269 -43.961 L41.014 -57.095 H64.446 Q68.635 -57.095 70.916 -53.987 Q73.197 -50.879 71.25 -46.615 L60.212 -22.768 H87.308 V4.001 H82.692 Z M73.308 -60.653 Q70.014 -60.653 67.748 -62.92 Q65.481 -65.187 65.481 -68.48 Q65.481 -71.773 67.748 -74.04 Q70.014 -76.307 73.308 -76.307 Q76.601 -76.307 78.82 -74.04 Q81.038 -71.773 81.038 -68.48 Q81.038 -65.187 78.82 -62.92 Q76.601 -60.653 73.308 -60.653 Z"/></g><g id="Ultralight-M" transform="matrix(1 0 0 1 506.415 1126)"><path d="M41.562 7.645 Q33.438 7.645 27.781 1.836 Q22.125 -3.973 22.125 -12.164 Q22.125 -20.355 27.906 -26.105 Q33.688 -31.855 41.75 -31.855 V-28.542 Q34.938 -28.542 30.125 -23.73 Q25.312 -18.917 25.312 -12.167 Q25.312 -5.417 30.125 -0.605 Q34.938 4.208 41.812 4.208 Q48.688 4.208 53.5 -0.618 Q58.312 -5.443 58.312 -12.292 H61.5 Q61.5 -3.98 55.594 1.833 Q49.688 7.645 41.562 7.645 Z M82 2.645 V-16.605 H46.562 L43.375 -21.667 L57.25 -52.23 H44.25 L40.625 -42.48 L37.625 -43.73 L42.125 -56.417 H63.043 Q66.875 -56.417 68.969 -53.699 Q71.062 -50.98 69.188 -46.917 L57.312 -21.355 H85.188 V2.645 H82 Z M71.562 -60.292 Q68.5 -60.292 66.406 -62.386 Q64.312 -64.48 64.312 -67.542 Q64.312 -70.605 66.406 -72.699 Q68.5 -74.792 71.562 -74.792 Q74.625 -74.792 76.656 -72.699 Q78.688 -70.605 78.688 -67.542 Q78.688 -64.48 76.656 -62.386 Q74.625 -60.292 71.562 -60.292 Z"/></g><g id="Bold-S" transform="matrix(1 0 0 1 2294.23 696)"><path d="M31.636 5.009 Q23.325 5.009 17.531 -0.808 Q11.736 -6.624 11.736 -14.936 Q11.736 -23.346 17.546 -29.091 Q23.356 -34.835 31.708 -34.835 V-25.269 Q27.319 -25.269 24.311 -22.261 Q21.303 -19.253 21.303 -14.913 Q21.303 -10.672 24.36 -7.615 Q27.418 -4.558 31.659 -4.558 Q35.998 -4.558 39.006 -7.64 Q42.014 -10.722 42.014 -15.061 H51.581 Q51.581 -6.629 45.814 -0.81 Q40.046 5.009 31.636 5.009 Z M62.824 0.275 V-19.549 H43.888 L38.809 -27.192 L45.565 -46.572 H35.604 L32.891 -40.556 L25.149 -43.712 L29.933 -54.659 H55.131 Q59.865 -54.659 62.109 -51.232 Q64.353 -47.805 62.232 -43.514 L56.413 -29.115 H72.391 V0.275 H62.824 Z M65.167 -55.152 Q61.098 -55.152 58.361 -57.914 Q55.625 -60.675 55.625 -64.743 Q55.625 -68.812 58.386 -71.549 Q61.147 -74.285 65.216 -74.285 Q69.284 -74.285 72.021 -71.524 Q74.758 -68.763 74.758 -64.694 Q74.758 -60.626 71.996 -57.889 Q69.235 -55.152 65.167 -55.152 Z"/></g><g id="Semibold-S" transform="matrix(1 0 0 1 1998.1 696)"><path d="M32.494 3.551 Q24.44 3.551 18.838 -2.072 Q13.237 -7.696 13.237 -15.75 Q13.237 -23.86 18.854 -29.434 Q24.471 -35.007 32.565 -35.007 V-26.727 Q27.919 -26.727 24.718 -23.526 Q21.517 -20.325 21.517 -15.728 Q21.517 -11.187 24.746 -7.958 Q27.975 -4.729 32.516 -4.729 Q37.113 -4.729 40.314 -7.983 Q43.515 -11.236 43.515 -15.876 H51.795 Q51.795 -7.701 46.2 -2.075 Q40.604 3.551 32.494 3.551 Z M64.325 -1.183 V-20.363 H43.245 L39.023 -26.592 L46.079 -46.7 H35.99 L33.32 -40.642 L26.307 -43.626 L30.79 -54.145 H55.646 Q59.908 -54.145 62.088 -50.846 Q64.267 -47.547 62.361 -43.643 L56.285 -28.601 H72.605 V-1.183 H64.325 Z M64.824 -54.938 Q61.055 -54.938 58.49 -57.528 Q55.925 -60.117 55.925 -63.886 Q55.925 -67.654 58.514 -70.219 Q61.104 -72.785 64.873 -72.785 Q68.641 -72.785 71.206 -70.195 Q73.772 -67.605 73.772 -63.837 Q73.772 -60.069 71.182 -57.503 Q68.592 -54.938 64.824 -54.938 Z"/></g><g id="Medium-S" transform="matrix(1 0 0 1 1701.85 696)"><path d="M33.137 2.458 Q25.276 2.458 19.819 -3.021 Q14.363 -8.5 14.363 -16.361 Q14.363 -24.246 19.835 -29.691 Q25.307 -35.136 33.209 -35.136 V-27.82 Q28.37 -27.82 25.024 -24.474 Q21.678 -21.129 21.678 -16.339 Q21.678 -11.573 25.036 -8.215 Q28.393 -4.858 33.159 -4.858 Q37.949 -4.858 41.295 -8.24 Q44.641 -11.622 44.641 -16.487 H51.956 Q51.956 -8.505 46.489 -3.024 Q41.022 2.458 33.137 2.458 Z M65.451 -2.276 V-20.974 H42.763 L39.184 -26.142 L46.465 -46.797 H36.279 L33.642 -40.706 L27.175 -43.562 L31.433 -53.759 H56.032 Q59.94 -53.759 62.072 -50.557 Q64.203 -47.354 62.458 -43.74 L56.188 -28.215 H72.766 V-2.276 H65.451 Z M64.566 -54.777 Q61.023 -54.777 58.587 -57.238 Q56.15 -59.699 56.15 -63.243 Q56.15 -66.786 58.611 -69.222 Q61.072 -71.659 64.615 -71.659 Q68.158 -71.659 70.595 -69.198 Q73.032 -66.737 73.032 -63.194 Q73.032 -59.65 70.571 -57.214 Q68.11 -54.777 64.566 -54.777 Z"/></g><g id="Regular-S" transform="matrix(1 0 0 1 1405.73 696)"><path d="M33.609 1.656 Q25.889 1.656 20.539 -3.717 Q15.188 -9.09 15.188 -16.809 Q15.188 -24.529 20.554 -29.88 Q25.921 -35.23 33.68 -35.23 V-28.622 Q28.7 -28.622 25.248 -25.17 Q21.796 -21.718 21.796 -16.787 Q21.796 -11.856 25.248 -8.404 Q28.7 -4.952 33.631 -4.952 Q38.562 -4.952 42.014 -8.429 Q45.466 -11.905 45.466 -16.935 H52.074 Q52.074 -9.094 46.701 -3.719 Q41.329 1.656 33.609 1.656 Z M66.276 -3.078 V-21.422 H42.409 L39.302 -25.811 L46.748 -46.868 H36.491 L33.878 -40.753 L27.812 -43.514 L31.905 -53.476 H56.315 Q59.964 -53.476 62.06 -50.344 Q64.156 -47.213 62.528 -43.81 L56.118 -27.932 H72.884 V-3.078 H66.276 Z M64.378 -54.659 Q61 -54.659 58.657 -57.026 Q56.315 -59.393 56.315 -62.771 Q56.315 -66.149 58.682 -68.491 Q61.048 -70.834 64.427 -70.834 Q67.805 -70.834 70.147 -68.467 Q72.489 -66.1 72.489 -62.722 Q72.489 -59.344 70.123 -57.001 Q67.756 -54.659 64.378 -54.659 Z"/></g><g id="Light-S" transform="matrix(1 0 0 1 1109.75 696)"><path d="M33.893 -0.127 Q26.799 -0.127 21.885 -5.11 Q16.971 -10.093 16.971 -17.207 Q16.971 -24.32 21.939 -29.263 Q26.907 -34.206 34.003 -34.206 V-29.438 Q28.871 -29.438 25.286 -25.853 Q21.701 -22.268 21.701 -17.185 Q21.701 -12.102 25.286 -8.518 Q28.871 -4.933 33.992 -4.933 Q39.112 -4.933 42.697 -8.537 Q46.282 -12.141 46.282 -17.314 H51.012 Q51.012 -10.081 45.999 -5.104 Q40.987 -0.127 33.893 -0.127 Z M65.366 -4.861 V-21.688 H42.238 L39.473 -25.622 L47.355 -47.551 H36.605 L33.821 -40.905 L29.595 -43.211 L33.366 -52.584 H54.469 Q57.65 -52.584 59.499 -49.965 Q61.348 -47.346 59.816 -44.209 L52.305 -26.073 H70.096 V-4.861 H65.366 Z M62.083 -54.185 Q59.008 -54.185 56.893 -56.324 Q54.778 -58.463 54.778 -61.538 Q54.778 -64.613 56.918 -66.727 Q59.057 -68.842 62.131 -68.842 Q65.206 -68.842 67.302 -66.703 Q69.398 -64.564 69.398 -61.489 Q69.398 -58.414 67.277 -56.3 Q65.157 -54.185 62.083 -54.185 Z"/></g><g id="Thin-S" transform="matrix(1 0 0 1 814.015 696)"><path d="M34.178 -1.91 Q27.71 -1.91 23.232 -6.503 Q18.754 -11.096 18.754 -17.604 Q18.754 -24.112 23.324 -28.647 Q27.893 -33.182 34.325 -33.182 V-30.253 Q29.041 -30.253 25.324 -26.536 Q21.606 -22.818 21.606 -17.584 Q21.606 -12.349 25.324 -8.632 Q29.041 -4.914 34.352 -4.914 Q39.662 -4.914 43.38 -8.645 Q47.097 -12.376 47.097 -17.694 H49.95 Q49.95 -11.067 45.298 -6.488 Q40.646 -1.91 34.178 -1.91 Z M64.455 -6.644 V-21.954 H42.067 L39.644 -25.432 L47.962 -48.233 H36.719 L33.764 -41.056 L31.378 -42.908 L34.826 -51.693 H52.623 Q55.336 -51.693 56.939 -49.586 Q58.542 -47.478 57.104 -44.607 L48.493 -24.214 H67.308 V-6.644 H64.455 Z M59.788 -53.711 Q57.017 -53.711 55.13 -55.622 Q53.242 -57.534 53.242 -60.305 Q53.242 -63.076 55.154 -64.964 Q57.066 -66.851 59.837 -66.851 Q62.608 -66.851 64.457 -64.939 Q66.306 -63.028 66.306 -60.256 Q66.306 -57.485 64.433 -55.598 Q62.559 -53.711 59.788 -53.711 Z"/></g><g id="Ultralight-S" transform="matrix(1 0 0 1 517.792 696)"><path d="M34.349 -2.98 Q28.256 -2.98 24.04 -7.339 Q19.824 -11.698 19.824 -17.842 Q19.824 -23.987 24.154 -28.277 Q28.485 -32.567 34.519 -32.567 V-30.743 Q29.144 -30.743 25.347 -26.945 Q21.55 -23.148 21.55 -17.823 Q21.55 -12.497 25.347 -8.7 Q29.144 -4.903 34.568 -4.903 Q39.992 -4.903 43.79 -8.71 Q47.587 -12.517 47.587 -17.921 H49.312 Q49.312 -11.659 44.877 -7.319 Q40.441 -2.98 34.349 -2.98 Z M63.909 -7.714 V-22.113 H41.965 L39.746 -25.318 L48.326 -48.643 H36.787 L33.73 -41.147 L32.448 -42.725 L35.702 -51.158 H51.516 Q53.948 -51.158 55.403 -49.358 Q56.857 -47.558 55.477 -44.846 L46.206 -23.099 H65.635 V-7.714 H63.909 Z M58.411 -53.426 Q55.822 -53.426 54.071 -55.201 Q52.321 -56.976 52.321 -59.566 Q52.321 -62.155 54.096 -63.905 Q55.871 -65.656 58.46 -65.656 Q61.049 -65.656 62.75 -63.881 Q64.451 -62.106 64.451 -59.517 Q64.451 -56.927 62.726 -55.177 Q61 -53.426 58.411 -53.426 Z"/></g></g></svg>