<svg xmlns="http://www.w3.org/2000/svg" version="1.1" width="3300" height="2000"><g id="Notes"><style>
    text {
      font-family: monospace;
      text-anchor: middle;
    }
    text.emphasis {
      font-weight:bold;
    }
    text.lanchor {
      text-anchor: start;
    }
  </style><rect height="2200" id="artboard" fill="white" width="3300" x="0" y="0"/><line id="" style="fill:none;stroke:black;stroke-width:0.5;" x1="263" x2="3036" y1="292" y2="292"/><text class="lanchor emphasis" transform="matrix(1 0 0 1 263 322)">Weight/Scale Variations</text><text transform="matrix(1 0 0 1 559.711 322)">Ultralight</text><text transform="matrix(1 0 0 1 856.422 322)">Thin</text><text transform="matrix(1 0 0 1 1153.13 322)">Light</text><text transform="matrix(1 0 0 1 1449.84 322)">Regular</text><text transform="matrix(1 0 0 1 1746.56 322)">Medium</text><text transform="matrix(1 0 0 1 2043.27 322)">Semibold</text><text transform="matrix(1 0 0 1 2339.98 322)">Bold</text><text transform="matrix(1 0 0 1 2636.69 322)">Heavy</text><text transform="matrix(1 0 0 1 2933.4 322)">Black</text><text id="template-version" style="text-anchor: end;" transform="matrix(1 0 0 1 3036 1933)">Template v.1.0</text><text class="lanchor" transform="matrix(1 0 0 1 263 726)">Small</text><text class="lanchor" transform="matrix(1 0 0 1 263 1156)">Medium</text><text class="lanchor" transform="matrix(1 0 0 1 263 1586)">Large</text></g><g id="Guides"><g id="H-reference" style="fill:#27AAE1;stroke:none;" transform="matrix(1 0 0 1 339 696)"><path d="M 54.9316 0 L 57.666 0 L 30.5664 -70.459 L 28.0762 -70.459 L 0.976562 0 L 3.66211 0 L 12.9395 -24.4629 L 45.7031 -24.4629 Z M 29.1992 -67.0898 L 29.4434 -67.0898 L 44.8242 -26.709 L 13.8184 -26.709 Z"/></g><line id="Baseline-S" style="fill:none;stroke:#27AAE1;opacity:1;stroke-width:0.577;" x1="263" x2="3036" y1="696" y2="696"/><line id="Capline-S" style="fill:none;stroke:#27AAE1;opacity:1;stroke-width:0.577;" x1="263" x2="3036" y1="625.541" y2="625.541"/><g id="H-reference" style="fill:#27AAE1;stroke:none;" transform="matrix(1 0 0 1 339 1126)"><path d="M 54.9316 0 L 57.666 0 L 30.5664 -70.459 L 28.0762 -70.459 L 0.976562 0 L 3.66211 0 L 12.9395 -24.4629 L 45.7031 -24.4629 Z M 29.1992 -67.0898 L 29.4434 -67.0898 L 44.8242 -26.709 L 13.8184 -26.709 Z"/></g><line id="Baseline-M" style="fill:none;stroke:#27AAE1;opacity:1;stroke-width:0.577;" x1="263" x2="3036" y1="1126" y2="1126"/><line id="Capline-M" style="fill:none;stroke:#27AAE1;opacity:1;stroke-width:0.577;" x1="263" x2="3036" y1="1055.54" y2="1055.54"/><g id="H-reference" style="fill:#27AAE1;stroke:none;" transform="matrix(1 0 0 1 339 1556)"><path d="M 54.9316 0 L 57.666 0 L 30.5664 -70.459 L 28.0762 -70.459 L 0.976562 0 L 3.66211 0 L 12.9395 -24.4629 L 45.7031 -24.4629 Z M 29.1992 -67.0898 L 29.4434 -67.0898 L 44.8242 -26.709 L 13.8184 -26.709 Z"/></g><line id="Baseline-L" style="fill:none;stroke:#27AAE1;opacity:1;stroke-width:0.577;" x1="263" x2="3036" y1="1556" y2="1556"/><line id="Capline-L" style="fill:none;stroke:#27AAE1;opacity:1;stroke-width:0.577;" x1="263" x2="3036" y1="1485.54" y2="1485.54"/><rect height="119.336" id="left-margin" style="fill:darkred;stroke:none;opacity:0.4;" width="12.4512" x="1394.06" y="1030.79"/><rect height="119.336" id="right-margin" style="fill:darkgreen;stroke:none;opacity:0.4;" width="12.4512" x="1502.5112" y="1030.79"/><rect x="1406.5112" y="1045" width="96" height="96" fill="none" stroke="blue" stroke-dasharray="5"/><rect x="1394.06" y="1030.79" width="120.9024" height="119.336" fill="none" stroke="blue"/></g><g id="Symbols"><g id="Bold-L" transform="matrix(1 0 0 1 2266 1556)"><path d="M32.572 -1.851 Q28.071 -1.851 24.92 -5.008 Q21.769 -8.165 21.769 -12.674 Q21.769 -17.183 24.92 -20.321 Q28.071 -23.459 32.572 -23.459 H122.228 Q126.796 -23.459 129.994 -20.302 Q133.192 -17.145 133.192 -12.636 Q133.192 -8.127 129.994 -4.989 Q126.796 -1.851 122.228 -1.851 H32.572 Z M32.572 -47.001 Q28.071 -47.001 24.92 -50.158 Q21.769 -53.315 21.769 -57.824 Q21.769 -62.333 24.92 -65.471 Q28.071 -68.609 32.572 -68.609 H122.228 Q126.796 -68.609 129.994 -65.452 Q133.192 -62.295 133.192 -57.786 Q133.192 -53.277 129.994 -50.139 Q126.796 -47.001 122.228 -47.001 H32.572 Z"/></g><g id="Semibold-L" transform="matrix(1 0 0 1 1970.27 1556)"><path d="M33.133 -3.043 Q29.128 -3.043 26.325 -5.852 Q23.521 -8.661 23.521 -12.674 Q23.521 -16.687 26.325 -19.477 Q29.128 -22.267 33.133 -22.267 H121.667 Q125.71 -22.267 128.54 -19.458 Q131.37 -16.649 131.37 -12.636 Q131.37 -8.623 128.54 -5.833 Q125.71 -3.043 121.667 -3.043 H33.133 Z M33.133 -48.193 Q29.128 -48.193 26.325 -51.002 Q23.521 -53.811 23.521 -57.824 Q23.521 -61.837 26.325 -64.627 Q29.128 -67.417 33.133 -67.417 H121.667 Q125.71 -67.417 128.54 -64.608 Q131.37 -61.799 131.37 -57.786 Q131.37 -53.773 128.54 -50.983 Q125.71 -48.193 121.667 -48.193 H33.133 Z"/></g><g id="Medium-L" transform="matrix(1 0 0 1 1674.31 1556)"><path d="M33.554 -3.937 Q29.922 -3.937 27.379 -6.485 Q24.836 -9.033 24.836 -12.674 Q24.836 -16.314 27.379 -18.844 Q29.922 -21.373 33.554 -21.373 H121.246 Q124.895 -21.373 127.449 -18.825 Q130.003 -16.277 130.003 -12.636 Q130.003 -8.996 127.449 -6.466 Q124.895 -3.937 121.246 -3.937 H33.554 Z M33.554 -49.087 Q29.922 -49.087 27.379 -51.635 Q24.836 -54.183 24.836 -57.824 Q24.836 -61.464 27.379 -63.994 Q29.922 -66.523 33.554 -66.523 H121.246 Q124.895 -66.523 127.449 -63.975 Q130.003 -61.427 130.003 -57.786 Q130.003 -54.146 127.449 -51.616 Q124.895 -49.087 121.246 -49.087 H33.554 Z"/></g><g id="Regular-L" transform="matrix(1 0 0 1 1378.56 1556)"><path d="M33.863 -4.592 Q30.503 -4.592 28.152 -6.95 Q25.8 -9.307 25.8 -12.674 Q25.8 -16.041 28.152 -18.379 Q30.503 -20.717 33.863 -20.717 H120.938 Q124.297 -20.717 126.648 -18.36 Q129 -16.003 129 -12.636 Q129 -9.269 126.648 -6.931 Q124.297 -4.592 120.938 -4.592 H33.863 Z M33.863 -49.742 Q30.503 -49.742 28.152 -52.1 Q25.8 -54.457 25.8 -57.824 Q25.8 -61.191 28.152 -63.529 Q30.503 -65.867 33.863 -65.867 H120.938 Q124.297 -65.867 126.648 -63.51 Q129 -61.153 129 -57.786 Q129 -54.419 126.648 -52.081 Q124.297 -49.742 120.938 -49.742 H33.863 Z"/></g><g id="Light-L" transform="matrix(1 0 0 1 1082.77 1556)"><path d="M35.909 -7.384 Q33.041 -7.384 31.033 -9.396 Q29.025 -11.408 29.025 -14.283 Q29.025 -17.158 31.033 -19.155 Q33.041 -21.152 35.909 -21.152 H118.891 Q121.759 -21.152 123.767 -19.139 Q125.775 -17.127 125.775 -14.252 Q125.775 -11.378 123.767 -9.38 Q121.759 -7.384 118.891 -7.384 H35.909 Z M35.909 -49.308 Q33.041 -49.308 31.033 -51.321 Q29.025 -53.333 29.025 -56.208 Q29.025 -59.082 31.033 -61.08 Q33.041 -63.076 35.909 -63.076 H118.891 Q121.759 -63.076 123.767 -61.064 Q125.775 -59.052 125.775 -56.177 Q125.775 -53.302 123.767 -51.305 Q121.759 -49.308 118.891 -49.308 H35.909 Z"/></g><g id="Thin-L" transform="matrix(1 0 0 1 787.282 1556)"><path d="M37.956 -10.174 Q35.578 -10.174 33.914 -11.842 Q32.25 -13.509 32.25 -15.892 Q32.25 -18.274 33.914 -19.93 Q35.578 -21.586 37.956 -21.586 H116.844 Q119.222 -21.586 120.886 -19.918 Q122.55 -18.251 122.55 -15.868 Q122.55 -13.486 120.886 -11.83 Q119.222 -10.174 116.844 -10.174 H37.956 Z M37.956 -48.874 Q35.578 -48.874 33.914 -50.542 Q32.25 -52.209 32.25 -54.592 Q32.25 -56.974 33.914 -58.63 Q35.578 -60.286 37.956 -60.286 H116.844 Q119.222 -60.286 120.886 -58.618 Q122.55 -56.951 122.55 -54.568 Q122.55 -52.186 120.886 -50.53 Q119.222 -48.874 116.844 -48.874 H37.956 Z"/></g><g id="Ultralight-L" transform="matrix(1 0 0 1 491.205 1556)"><path d="M39.184 -11.849 Q37.101 -11.849 35.643 -13.31 Q34.185 -14.77 34.185 -16.857 Q34.185 -18.944 35.643 -20.395 Q37.101 -21.846 39.184 -21.846 H115.616 Q117.699 -21.846 119.157 -20.385 Q120.615 -18.925 120.615 -16.838 Q120.615 -14.751 119.157 -13.3 Q117.699 -11.849 115.616 -11.849 H39.184 Z M39.184 -48.614 Q37.101 -48.614 35.643 -50.075 Q34.185 -51.535 34.185 -53.622 Q34.185 -55.709 35.643 -57.16 Q37.101 -58.611 39.184 -58.611 H115.616 Q117.699 -58.611 119.157 -57.15 Q120.615 -55.69 120.615 -53.603 Q120.615 -51.516 119.157 -50.065 Q117.699 -48.614 115.616 -48.614 H39.184 Z"/></g><g id="Bold-M" transform="matrix(1 0 0 1 2281.8 1126)"><path d="M26.125 -7.355 Q21.802 -7.355 18.776 -10.381 Q15.75 -13.407 15.75 -17.73 Q15.75 -22.053 18.776 -25.079 Q21.802 -28.105 26.125 -28.105 H93.875 Q98.198 -28.105 101.224 -25.079 Q104.25 -22.053 104.25 -17.73 Q104.25 -13.407 101.224 -10.381 Q98.198 -7.355 93.875 -7.355 H26.125 Z M26.125 -42.355 Q21.802 -42.355 18.776 -45.381 Q15.75 -48.407 15.75 -52.73 Q15.75 -57.053 18.776 -60.079 Q21.802 -63.105 26.125 -63.105 H93.875 Q98.198 -63.105 101.224 -60.079 Q104.25 -57.053 104.25 -52.73 Q104.25 -48.407 101.224 -45.381 Q98.198 -42.355 93.875 -42.355 H26.125 Z"/></g><g id="Semibold-M" transform="matrix(1 0 0 1 1985.97 1126)"><path d="M26.723 -8.605 Q22.921 -8.605 20.259 -11.266 Q17.598 -13.928 17.598 -17.73 Q17.598 -21.532 20.259 -24.194 Q22.921 -26.855 26.723 -26.855 H93.277 Q97.079 -26.855 99.741 -24.194 Q102.402 -21.532 102.402 -17.73 Q102.402 -13.928 99.741 -11.266 Q97.079 -8.605 93.277 -8.605 H26.723 Z M26.723 -43.605 Q22.921 -43.605 20.259 -46.266 Q17.598 -48.928 17.598 -52.73 Q17.598 -56.532 20.259 -59.194 Q22.921 -61.855 26.723 -61.855 H93.277 Q97.079 -61.855 99.741 -59.194 Q102.402 -56.532 102.402 -52.73 Q102.402 -48.928 99.741 -46.266 Q97.079 -43.605 93.277 -43.605 H26.723 Z"/></g><g id="Medium-M" transform="matrix(1 0 0 1 1689.91 1126)"><path d="M27.171 -9.542 Q23.76 -9.542 21.372 -11.93 Q18.984 -14.318 18.984 -17.73 Q18.984 -21.141 21.372 -23.529 Q23.76 -25.917 27.171 -25.917 H92.829 Q96.24 -25.917 98.628 -23.529 Q101.016 -21.141 101.016 -17.73 Q101.016 -14.318 98.628 -11.93 Q96.24 -9.542 92.829 -9.542 H27.171 Z M27.171 -44.542 Q23.76 -44.542 21.372 -46.93 Q18.984 -49.318 18.984 -52.73 Q18.984 -56.141 21.372 -58.529 Q23.76 -60.917 27.171 -60.917 H92.829 Q96.24 -60.917 98.628 -58.529 Q101.016 -56.141 101.016 -52.73 Q101.016 -49.318 98.628 -46.93 Q96.24 -44.542 92.829 -44.542 H27.171 Z"/></g><g id="Regular-M" transform="matrix(1 0 0 1 1394.06 1126)"><path d="M27.5 -10.23 Q24.375 -10.23 22.188 -12.417 Q20 -14.605 20 -17.73 Q20 -20.855 22.188 -23.042 Q24.375 -25.23 27.5 -25.23 H92.5 Q95.625 -25.23 97.812 -23.042 Q100 -20.855 100 -17.73 Q100 -14.605 97.812 -12.417 Q95.625 -10.23 92.5 -10.23 H27.5 Z M27.5 -45.23 Q24.375 -45.23 22.188 -47.417 Q20 -49.605 20 -52.73 Q20 -55.855 22.188 -58.042 Q24.375 -60.23 27.5 -60.23 H92.5 Q95.625 -60.23 97.812 -58.042 Q100 -55.855 100 -52.73 Q100 -49.605 97.812 -47.417 Q95.625 -45.23 92.5 -45.23 H27.5 Z"/></g><g id="Light-M" transform="matrix(1 0 0 1 1098.18 1126)"><path d="M28.75 -12.73 Q26.146 -12.73 24.323 -14.551 Q22.5 -16.373 22.5 -18.974 Q22.5 -21.576 24.323 -23.403 Q26.146 -25.23 28.75 -25.23 H91.25 Q93.854 -25.23 95.677 -23.409 Q97.5 -21.587 97.5 -18.986 Q97.5 -16.384 95.677 -14.557 Q93.854 -12.73 91.25 -12.73 H28.75 Z M28.75 -45.23 Q26.146 -45.23 24.323 -47.051 Q22.5 -48.872 22.5 -51.474 Q22.5 -54.076 24.323 -55.903 Q26.146 -57.73 28.75 -57.73 H91.25 Q93.854 -57.73 95.677 -55.909 Q97.5 -54.087 97.5 -51.485 Q97.5 -48.884 95.677 -47.057 Q93.854 -45.23 91.25 -45.23 H28.75 Z"/></g><g id="Thin-M" transform="matrix(1 0 0 1 802.565 1126)"><path d="M30 -15.23 Q27.917 -15.23 26.458 -16.685 Q25 -18.14 25 -20.219 Q25 -22.297 26.458 -23.764 Q27.917 -25.23 30 -25.23 H90 Q92.083 -25.23 93.542 -23.775 Q95 -22.32 95 -20.241 Q95 -18.163 93.542 -16.696 Q92.083 -15.23 90 -15.23 H30 Z M30 -45.23 Q27.917 -45.23 26.458 -46.685 Q25 -48.14 25 -50.219 Q25 -52.297 26.458 -53.764 Q27.917 -55.23 30 -55.23 H90 Q92.083 -55.23 93.542 -53.775 Q95 -52.32 95 -50.241 Q95 -48.163 93.542 -46.696 Q92.083 -45.23 90 -45.23 H30 Z"/></g><g id="Ultralight-M" transform="matrix(1 0 0 1 506.415 1126)"><path d="M30.75 -16.73 Q28.979 -16.73 27.74 -17.965 Q26.5 -19.201 26.5 -20.965 Q26.5 -22.73 27.74 -23.98 Q28.979 -25.23 30.75 -25.23 H89.25 Q91.021 -25.23 92.26 -23.995 Q93.5 -22.759 93.5 -20.995 Q93.5 -19.23 92.26 -17.98 Q91.021 -16.73 89.25 -16.73 H30.75 Z M30.75 -45.23 Q28.979 -45.23 27.74 -46.465 Q26.5 -47.701 26.5 -49.465 Q26.5 -51.23 27.74 -52.48 Q28.979 -53.73 30.75 -53.73 H89.25 Q91.021 -53.73 92.26 -52.495 Q93.5 -51.259 93.5 -49.495 Q93.5 -47.73 92.26 -46.48 Q91.021 -45.23 89.25 -45.23 H30.75 Z"/></g><g id="Bold-S" transform="matrix(1 0 0 1 2294.23 696)"><path d="M23.769 -14.026 Q20.358 -14.026 17.97 -16.413 Q15.583 -18.801 15.583 -22.211 Q15.583 -25.622 17.97 -28.01 Q20.358 -30.397 23.769 -30.397 H70.911 Q74.322 -30.397 76.71 -28.01 Q79.097 -25.622 79.097 -22.211 Q79.097 -18.801 76.71 -16.413 Q74.322 -14.026 70.911 -14.026 H23.769 Z M23.769 -40.063 Q20.358 -40.063 17.97 -42.45 Q15.583 -44.838 15.583 -48.248 Q15.583 -51.659 17.97 -54.047 Q20.358 -56.434 23.769 -56.434 H70.911 Q74.322 -56.434 76.71 -54.047 Q79.097 -51.659 79.097 -48.248 Q79.097 -44.838 76.71 -42.45 Q74.322 -40.063 70.911 -40.063 H23.769 Z"/></g><g id="Semibold-S" transform="matrix(1 0 0 1 1998.1 696)"><path d="M24.24 -15.012 Q21.24 -15.012 19.14 -17.112 Q17.041 -19.212 17.041 -22.211 Q17.041 -25.211 19.14 -27.311 Q21.24 -29.411 24.24 -29.411 H70.44 Q73.44 -29.411 75.54 -27.311 Q77.639 -25.211 77.639 -22.211 Q77.639 -19.212 75.54 -17.112 Q73.44 -15.012 70.44 -15.012 H24.24 Z M24.24 -41.049 Q21.24 -41.049 19.14 -43.149 Q17.041 -45.249 17.041 -48.248 Q17.041 -51.248 19.14 -53.348 Q21.24 -55.448 24.24 -55.448 H70.44 Q73.44 -55.448 75.54 -53.348 Q77.639 -51.248 77.639 -48.248 Q77.639 -45.249 75.54 -43.149 Q73.44 -41.049 70.44 -41.049 H24.24 Z"/></g><g id="Medium-S" transform="matrix(1 0 0 1 1701.85 696)"><path d="M24.594 -15.752 Q21.902 -15.752 20.018 -17.636 Q18.134 -19.52 18.134 -22.211 Q18.134 -24.903 20.018 -26.787 Q21.902 -28.671 24.594 -28.671 H70.086 Q72.778 -28.671 74.662 -26.787 Q76.546 -24.903 76.546 -22.211 Q76.546 -19.52 74.662 -17.636 Q72.778 -15.752 70.086 -15.752 H24.594 Z M24.594 -41.789 Q21.902 -41.789 20.018 -43.673 Q18.134 -45.557 18.134 -48.248 Q18.134 -50.94 20.018 -52.824 Q21.902 -54.708 24.594 -54.708 H70.086 Q72.778 -54.708 74.662 -52.824 Q76.546 -50.94 76.546 -48.248 Q76.546 -45.557 74.662 -43.673 Q72.778 -41.789 70.086 -41.789 H24.594 Z"/></g><g id="Regular-S" transform="matrix(1 0 0 1 1405.73 696)"><path d="M24.854 -16.294 Q22.388 -16.294 20.662 -18.02 Q18.936 -19.746 18.936 -22.211 Q18.936 -24.677 20.662 -26.403 Q22.388 -28.129 24.854 -28.129 H69.827 Q72.292 -28.129 74.018 -26.403 Q75.744 -24.677 75.744 -22.211 Q75.744 -19.746 74.018 -18.02 Q72.292 -16.294 69.827 -16.294 H24.854 Z M24.854 -42.331 Q22.388 -42.331 20.662 -44.057 Q18.936 -45.783 18.936 -48.248 Q18.936 -50.714 20.662 -52.44 Q22.388 -54.166 24.854 -54.166 H69.827 Q72.292 -54.166 74.018 -52.44 Q75.744 -50.714 75.744 -48.248 Q75.744 -45.783 74.018 -44.057 Q72.292 -42.331 69.827 -42.331 H24.854 Z"/></g><g id="Light-S" transform="matrix(1 0 0 1 1109.75 696)"><path d="M25.84 -18.267 Q23.785 -18.267 22.347 -19.704 Q20.909 -21.141 20.909 -23.193 Q20.909 -25.246 22.347 -26.688 Q23.785 -28.129 25.84 -28.129 H68.84 Q70.895 -28.129 72.333 -26.692 Q73.771 -25.255 73.771 -23.202 Q73.771 -21.15 72.333 -19.708 Q70.895 -18.267 68.84 -18.267 H25.84 Z M25.84 -42.331 Q23.785 -42.331 22.347 -43.768 Q20.909 -45.205 20.909 -47.258 Q20.909 -49.31 22.347 -50.752 Q23.785 -52.193 25.84 -52.193 H68.84 Q70.895 -52.193 72.333 -50.756 Q73.771 -49.319 73.771 -47.267 Q73.771 -45.214 72.333 -43.772 Q70.895 -42.331 68.84 -42.331 H25.84 Z"/></g><g id="Thin-S" transform="matrix(1 0 0 1 814.015 696)"><path d="M26.826 -20.239 Q25.182 -20.239 24.032 -21.387 Q22.881 -22.535 22.881 -24.175 Q22.881 -25.815 24.032 -26.972 Q25.182 -28.129 26.826 -28.129 H67.854 Q69.498 -28.129 70.648 -26.981 Q71.799 -25.833 71.799 -24.193 Q71.799 -22.553 70.648 -21.396 Q69.498 -20.239 67.854 -20.239 H26.826 Z M26.826 -42.331 Q25.182 -42.331 24.032 -43.479 Q22.881 -44.627 22.881 -46.267 Q22.881 -47.907 24.032 -49.064 Q25.182 -50.221 26.826 -50.221 H67.854 Q69.498 -50.221 70.648 -49.073 Q71.799 -47.925 71.799 -46.285 Q71.799 -44.645 70.648 -43.488 Q69.498 -42.331 67.854 -42.331 H26.826 Z"/></g><g id="Ultralight-S" transform="matrix(1 0 0 1 517.792 696)"><path d="M27.418 -21.422 Q26.021 -21.422 25.043 -22.397 Q24.065 -23.372 24.065 -24.764 Q24.065 -26.156 25.043 -27.143 Q26.021 -28.129 27.418 -28.129 H67.262 Q68.659 -28.129 69.637 -27.154 Q70.615 -26.18 70.615 -24.787 Q70.615 -23.395 69.637 -22.409 Q68.659 -21.422 67.262 -21.422 H27.418 Z M27.418 -42.331 Q26.021 -42.331 25.043 -43.306 Q24.065 -44.28 24.065 -45.673 Q24.065 -47.065 25.043 -48.051 Q26.021 -49.037 27.418 -49.037 H67.262 Q68.659 -49.037 69.637 -48.063 Q70.615 -47.088 70.615 -45.696 Q70.615 -44.303 69.637 -43.317 Q68.659 -42.331 67.262 -42.331 H27.418 Z"/></g></g></svg>