<svg xmlns="http://www.w3.org/2000/svg" version="1.1" width="3300" height="2000"><g id="Notes"><style>
    text {
      font-family: monospace;
      text-anchor: middle;
    }
    text.emphasis {
      font-weight:bold;
    }
    text.lanchor {
      text-anchor: start;
    }
  </style><rect height="2200" id="artboard" fill="white" width="3300" x="0" y="0"/><line id="" style="fill:none;stroke:black;stroke-width:0.5;" x1="263" x2="3036" y1="292" y2="292"/><text class="lanchor emphasis" transform="matrix(1 0 0 1 263 322)">Weight/Scale Variations</text><text transform="matrix(1 0 0 1 559.711 322)">Ultralight</text><text transform="matrix(1 0 0 1 856.422 322)">Thin</text><text transform="matrix(1 0 0 1 1153.13 322)">Light</text><text transform="matrix(1 0 0 1 1449.84 322)">Regular</text><text transform="matrix(1 0 0 1 1746.56 322)">Medium</text><text transform="matrix(1 0 0 1 2043.27 322)">Semibold</text><text transform="matrix(1 0 0 1 2339.98 322)">Bold</text><text transform="matrix(1 0 0 1 2636.69 322)">Heavy</text><text transform="matrix(1 0 0 1 2933.4 322)">Black</text><text id="template-version" style="text-anchor: end;" transform="matrix(1 0 0 1 3036 1933)">Template v.1.0</text><text class="lanchor" transform="matrix(1 0 0 1 263 726)">Small</text><text class="lanchor" transform="matrix(1 0 0 1 263 1156)">Medium</text><text class="lanchor" transform="matrix(1 0 0 1 263 1586)">Large</text></g><g id="Guides"><g id="H-reference" style="fill:#27AAE1;stroke:none;" transform="matrix(1 0 0 1 339 696)"><path d="M 54.9316 0 L 57.666 0 L 30.5664 -70.459 L 28.0762 -70.459 L 0.976562 0 L 3.66211 0 L 12.9395 -24.4629 L 45.7031 -24.4629 Z M 29.1992 -67.0898 L 29.4434 -67.0898 L 44.8242 -26.709 L 13.8184 -26.709 Z"/></g><line id="Baseline-S" style="fill:none;stroke:#27AAE1;opacity:1;stroke-width:0.577;" x1="263" x2="3036" y1="696" y2="696"/><line id="Capline-S" style="fill:none;stroke:#27AAE1;opacity:1;stroke-width:0.577;" x1="263" x2="3036" y1="625.541" y2="625.541"/><g id="H-reference" style="fill:#27AAE1;stroke:none;" transform="matrix(1 0 0 1 339 1126)"><path d="M 54.9316 0 L 57.666 0 L 30.5664 -70.459 L 28.0762 -70.459 L 0.976562 0 L 3.66211 0 L 12.9395 -24.4629 L 45.7031 -24.4629 Z M 29.1992 -67.0898 L 29.4434 -67.0898 L 44.8242 -26.709 L 13.8184 -26.709 Z"/></g><line id="Baseline-M" style="fill:none;stroke:#27AAE1;opacity:1;stroke-width:0.577;" x1="263" x2="3036" y1="1126" y2="1126"/><line id="Capline-M" style="fill:none;stroke:#27AAE1;opacity:1;stroke-width:0.577;" x1="263" x2="3036" y1="1055.54" y2="1055.54"/><g id="H-reference" style="fill:#27AAE1;stroke:none;" transform="matrix(1 0 0 1 339 1556)"><path d="M 54.9316 0 L 57.666 0 L 30.5664 -70.459 L 28.0762 -70.459 L 0.976562 0 L 3.66211 0 L 12.9395 -24.4629 L 45.7031 -24.4629 Z M 29.1992 -67.0898 L 29.4434 -67.0898 L 44.8242 -26.709 L 13.8184 -26.709 Z"/></g><line id="Baseline-L" style="fill:none;stroke:#27AAE1;opacity:1;stroke-width:0.577;" x1="263" x2="3036" y1="1556" y2="1556"/><line id="Capline-L" style="fill:none;stroke:#27AAE1;opacity:1;stroke-width:0.577;" x1="263" x2="3036" y1="1485.54" y2="1485.54"/><rect height="119.336" id="left-margin" style="fill:darkred;stroke:none;opacity:0.4;" width="12.4512" x="1394.06" y="1030.79"/><rect height="119.336" id="right-margin" style="fill:darkgreen;stroke:none;opacity:0.4;" width="12.4512" x="1502.5112" y="1030.79"/><rect x="1406.5112" y="1045" width="96" height="96" fill="none" stroke="blue" stroke-dasharray="5"/><rect x="1394.06" y="1030.79" width="120.9024" height="119.336" fill="none" stroke="blue"/></g><g id="Symbols"><g id="Bold-L" transform="matrix(1 0 0 1 2266 1556)"><path d="M77.4 29.996 Q66.193 29.996 58.453 22.175 Q50.713 14.354 50.713 3.228 Q50.713 -7.898 58.453 -15.759 Q66.193 -23.62 77.4 -23.62 Q88.607 -23.62 96.387 -15.759 Q104.168 -7.898 104.168 3.228 Q104.168 14.354 96.387 22.175 Q88.607 29.996 77.4 29.996 Z M77.41 15.08 Q82.395 15.08 85.904 11.617 Q89.413 8.154 89.413 3.192 Q89.413 -1.771 85.918 -5.237 Q82.422 -8.704 77.414 -8.704 Q72.405 -8.704 68.936 -5.251 Q65.468 -1.798 65.468 3.188 Q65.468 8.174 68.946 11.627 Q72.425 15.08 77.41 15.08 Z M15.964 -60.707  6.772 -69.737 Q20.237 -83.202 37.916 -90.982 Q55.595 -98.762 77.4 -98.762 Q99.205 -98.762 116.884 -91.063 Q134.563 -83.363 148.108 -69.899 L138.836 -60.707 Q126.904 -72.64 111.504 -79.13 Q96.105 -85.621 77.4 -85.621 Q58.695 -85.621 43.296 -79.05 Q27.896 -72.479 15.964 -60.707 Z M113.198 -33.779 Q106.909 -39.584 97.879 -43.897 Q88.849 -48.211 77.4 -48.211 Q65.951 -48.211 56.921 -43.817 Q47.891 -39.422 41.764 -33.779 L32.411 -43.131 Q40.393 -50.71 52.088 -55.87 Q63.784 -61.03 77.405 -61.03 Q91.026 -61.03 102.636 -55.87 Q114.246 -50.71 122.469 -43.131 L113.198 -33.779 Z"/></g><g id="Semibold-L" transform="matrix(1 0 0 1 1970.27 1556)"><path d="M77.4 26.771 Q66.684 26.771 59.294 19.336 Q51.905 11.901 51.905 1.23 Q51.905 -9.44 59.294 -16.916 Q66.684 -24.391 77.4 -24.391 Q88.116 -24.391 95.546 -16.916 Q102.976 -9.44 102.976 1.23 Q102.976 11.901 95.546 19.336 Q88.116 26.771 77.4 26.771 Z M77.41 14.309 Q82.922 14.309 86.764 10.507 Q90.605 6.705 90.605 1.205 Q90.605 -4.294 86.777 -8.112 Q82.949 -11.929 77.414 -11.929 Q71.878 -11.929 68.077 -8.125 Q64.276 -4.321 64.276 1.202 Q64.276 6.725 68.087 10.517 Q71.898 14.309 77.41 14.309 Z M17.576 -60.988  9.437 -68.826 Q22.62 -81.73 39.703 -89.019 Q56.787 -96.309 77.4 -96.309 Q98.013 -96.309 115.097 -89.065 Q132.18 -81.821 145.444 -68.917 L137.224 -60.988 Q125.432 -72.43 110.418 -78.64 Q95.404 -84.85 77.4 -84.85 Q59.396 -84.85 44.382 -78.594 Q29.368 -72.338 17.576 -60.988 Z M112.496 -35.391 Q105.927 -41.196 97.038 -45.089 Q88.148 -48.982 77.4 -48.982 Q66.652 -48.982 57.797 -45.043 Q48.943 -41.105 42.395 -35.391 L34.164 -43.482 Q42.216 -50.85 53.42 -55.555 Q64.625 -60.259 77.405 -60.259 Q90.184 -60.259 101.304 -55.555 Q112.423 -50.85 120.647 -43.482 L112.496 -35.391 Z"/></g><g id="Medium-L" transform="matrix(1 0 0 1 1674.31 1556)"><path d="M77.4 24.352 Q67.052 24.352 59.925 17.206 Q52.799 10.06 52.799 -0.269 Q52.799 -10.597 59.925 -17.783 Q67.052 -24.97 77.4 -24.97 Q87.748 -24.97 94.915 -17.783 Q102.082 -10.597 102.082 -0.269 Q102.082 10.06 94.915 17.206 Q87.748 24.352 77.4 24.352 Z M77.41 13.73 Q83.318 13.73 87.408 9.674 Q91.499 5.618 91.499 -0.285 Q91.499 -6.187 87.422 -10.268 Q83.345 -14.348 77.414 -14.348 Q71.482 -14.348 67.432 -10.281 Q63.382 -6.215 63.382 -0.288 Q63.382 5.638 67.442 9.684 Q71.502 13.73 77.41 13.73 Z M18.786 -61.198  11.435 -68.143 Q24.408 -80.625 41.044 -87.547 Q57.68 -94.468 77.4 -94.468 Q97.12 -94.468 113.756 -87.566 Q130.392 -80.664 143.446 -68.181 L136.014 -61.198 Q124.327 -72.272 109.603 -78.271 Q94.878 -84.271 77.4 -84.271 Q59.922 -84.271 45.197 -78.252 Q30.473 -72.233 18.786 -61.198 Z M111.971 -36.601 Q105.191 -42.406 96.407 -45.983 Q87.622 -49.56 77.4 -49.56 Q67.178 -49.56 58.455 -45.964 Q49.732 -42.367 42.868 -36.601 L35.479 -43.745 Q43.583 -50.955 54.419 -55.318 Q65.256 -59.68 77.405 -59.68 Q89.553 -59.68 100.305 -55.318 Q111.056 -50.955 119.28 -43.745 L111.971 -36.601 Z"/></g><g id="Regular-L" transform="matrix(1 0 0 1 1378.56 1556)"><path d="M77.4 22.578 Q67.322 22.578 60.388 15.644 Q53.454 8.711 53.454 -1.367 Q53.454 -11.446 60.388 -18.42 Q67.322 -25.394 77.4 -25.394 Q87.478 -25.394 94.452 -18.42 Q101.426 -11.446 101.426 -1.367 Q101.426 8.711 94.452 15.644 Q87.478 22.578 77.4 22.578 Z M77.41 13.306 Q83.608 13.306 87.881 9.063 Q92.154 4.821 92.154 -1.377 Q92.154 -7.576 87.895 -11.849 Q83.635 -16.122 77.414 -16.122 Q71.192 -16.122 66.959 -11.862 Q62.726 -7.603 62.726 -1.381 Q62.726 4.841 66.969 9.073 Q71.212 13.306 77.41 13.306 Z M19.672 -61.352  12.9 -67.641 Q25.719 -79.816 42.028 -86.467 Q58.336 -93.119 77.4 -93.119 Q96.464 -93.119 112.772 -86.467 Q129.081 -79.816 141.981 -67.641 L135.127 -61.352 Q123.517 -72.156 109.005 -78.002 Q94.493 -83.847 77.4 -83.847 Q60.308 -83.847 45.795 -78.002 Q31.283 -72.156 19.672 -61.352 Z M111.585 -37.487 Q104.651 -43.292 95.944 -46.638 Q87.236 -49.984 77.4 -49.984 Q67.564 -49.984 58.937 -46.638 Q50.31 -43.292 43.215 -37.487 L36.443 -43.937 Q44.586 -51.032 55.152 -55.144 Q65.719 -59.256 77.405 -59.256 Q89.091 -59.256 99.572 -55.144 Q110.053 -51.032 118.277 -43.937 L111.585 -37.487 Z"/></g><g id="Light-L" transform="matrix(1 0 0 1 1082.77 1556)"><path d="M77.4 14.329 Q68.748 14.329 62.714 8.295 Q56.68 2.26 56.68 -6.391 Q56.68 -15.043 62.714 -21.133 Q68.748 -27.223 77.4 -27.223 Q86.052 -27.223 92.142 -21.133 Q98.232 -15.043 98.232 -6.391 Q98.232 2.26 92.142 8.295 Q86.052 14.329 77.4 14.329 Z M77.423 7.259 Q83.205 7.259 87.184 3.313 Q91.162 -0.633 91.162 -6.415 Q91.162 -12.196 87.193 -16.175 Q83.223 -20.153 77.409 -20.153 Q71.595 -20.153 67.672 -16.184 Q63.75 -12.215 63.75 -6.401 Q63.75 -0.586 67.696 3.336 Q71.642 7.259 77.423 7.259 Z M25.813 -60.081  20.746 -64.912 Q31.86 -75.598 46.121 -81.614 Q60.383 -87.63 77.4 -87.63 Q94.417 -87.63 108.679 -81.614 Q122.94 -75.598 134.228 -64.912 L128.987 -60.081 Q118.711 -69.861 105.615 -75.21 Q92.519 -80.56 77.4 -80.56 Q62.281 -80.56 49.185 -75.21 Q36.089 -69.861 25.813 -60.081 Z M108.05 -38.759 Q101.705 -44.378 94.011 -47.367 Q86.317 -50.357 77.4 -50.357 Q68.483 -50.357 60.869 -47.367 Q53.256 -44.378 46.75 -38.759 L41.683 -43.689 Q49.082 -50.195 58.164 -53.811 Q67.246 -57.427 77.409 -57.427 Q87.571 -57.427 96.597 -53.817 Q105.623 -50.208 113.191 -43.689 L108.05 -38.759 Z"/></g><g id="Thin-L" transform="matrix(1 0 0 1 787.282 1556)"><path d="M77.4 6.081 Q70.175 6.081 65.04 0.946 Q59.904 -4.189 59.904 -11.415 Q59.904 -18.64 65.04 -23.846 Q70.175 -29.053 77.4 -29.053 Q84.625 -29.053 89.832 -23.846 Q95.038 -18.64 95.038 -11.415 Q95.038 -4.189 89.832 0.946 Q84.625 6.081 77.4 6.081 Z M77.437 1.213 Q82.802 1.213 86.486 -2.437 Q90.17 -6.086 90.17 -11.451 Q90.17 -16.816 86.491 -20.5 Q82.811 -24.184 77.405 -24.184 Q71.998 -24.184 68.385 -20.505 Q64.773 -16.826 64.773 -11.419 Q64.773 -6.013 68.422 -2.4 Q72.072 1.213 77.437 1.213 Z M31.952 -58.81  28.591 -62.184 Q37.999 -71.381 50.214 -76.761 Q62.429 -82.141 77.4 -82.141 Q92.371 -82.141 104.586 -76.761 Q116.801 -71.381 126.476 -62.184 L122.848 -58.81 Q113.905 -67.567 102.225 -72.42 Q90.546 -77.273 77.4 -77.273 Q64.254 -77.273 52.575 -72.42 Q40.895 -67.567 31.952 -58.81 Z M104.515 -40.03 Q98.759 -45.463 92.079 -48.096 Q85.398 -50.729 77.4 -50.729 Q69.402 -50.729 62.802 -48.096 Q56.202 -45.463 50.285 -40.03 L46.924 -43.441 Q53.578 -49.358 61.176 -52.478 Q68.773 -55.597 77.412 -55.597 Q86.052 -55.597 93.623 -52.49 Q101.194 -49.384 108.106 -43.441 L104.515 -40.03 Z"/></g><g id="Ultralight-L" transform="matrix(1 0 0 1 491.205 1556)"><path d="M77.4 1.132 Q71.031 1.132 66.435 -3.464 Q61.839 -8.059 61.839 -14.429 Q61.839 -20.798 66.435 -25.474 Q71.031 -30.151 77.4 -30.151 Q83.769 -30.151 88.446 -25.474 Q93.122 -20.798 93.122 -14.429 Q93.122 -8.059 88.446 -3.464 Q83.769 1.132 77.4 1.132 Z M77.445 -2.416 Q82.56 -2.416 86.067 -5.887 Q89.574 -9.359 89.574 -14.474 Q89.574 -19.589 86.069 -23.096 Q82.564 -26.603 77.402 -26.603 Q72.24 -26.603 68.813 -23.098 Q65.387 -19.593 65.387 -14.431 Q65.387 -9.269 68.858 -5.842 Q72.33 -2.416 77.445 -2.416 Z M35.636 -58.047  33.298 -60.546 Q41.683 -68.851 52.67 -73.849 Q63.657 -78.848 77.4 -78.848 Q91.143 -78.848 102.13 -73.849 Q113.117 -68.851 121.824 -60.546 L119.164 -58.047 Q111.021 -66.19 100.191 -70.745 Q89.362 -75.301 77.4 -75.301 Q65.438 -75.301 54.609 -70.745 Q43.779 -66.19 35.636 -58.047 Z M102.394 -40.793 Q96.992 -46.114 90.919 -48.533 Q84.847 -50.952 77.4 -50.952 Q69.953 -50.952 63.961 -48.533 Q57.969 -46.114 52.406 -40.793 L50.068 -43.292 Q56.276 -48.856 62.983 -51.677 Q69.69 -54.499 77.415 -54.499 Q85.14 -54.499 91.838 -51.694 Q98.536 -48.889 105.054 -43.292 L102.394 -40.793 Z"/></g><g id="Bold-M" transform="matrix(1 0 0 1 2281.8 1126)"><path d="M60 17.083 Q50.562 17.083 44 10.52 Q37.438 3.958 37.438 -5.48 Q37.438 -14.917 44 -21.48 Q50.562 -28.042 60 -28.042 Q69.438 -28.042 76 -21.48 Q82.562 -14.917 82.562 -5.48 Q82.562 3.958 76 10.52 Q69.438 17.083 60 17.083 Z M59.997 1.958 Q63 1.958 65.219 -0.258 Q67.438 -2.474 67.438 -5.477 Q67.438 -8.48 65.222 -10.699 Q63.005 -12.917 60.003 -12.917 Q57 -12.917 54.781 -10.701 Q52.562 -8.485 52.562 -5.483 Q52.562 -2.48 54.779 -0.261 Q56.995 1.958 59.997 1.958 Z M11.375 -51.917  1.938 -61.23 Q12.812 -72.542 27.438 -79.105 Q42.062 -85.667 60 -85.667 Q77.938 -85.667 92.562 -79.167 Q107.188 -72.667 118.062 -61.355 L108.625 -52.042 Q99.188 -61.417 86.957 -66.917 Q74.727 -72.417 60 -72.417 Q45.273 -72.417 33.043 -66.855 Q20.812 -61.292 11.375 -51.917 Z M88.125 -31.667 Q83.562 -36.417 76.457 -40.042 Q69.352 -43.667 60 -43.667 Q50.648 -43.667 43.543 -39.98 Q36.438 -36.292 32 -31.667 L22.438 -41.105 Q28.875 -47.73 38.632 -52.261 Q48.389 -56.792 60.007 -56.792 Q71.625 -56.792 81.375 -52.261 Q91.125 -47.73 97.562 -41.105 L88.125 -31.667 Z"/></g><g id="Semibold-M" transform="matrix(1 0 0 1 1985.97 1126)"><path d="M60 13.768 Q51.106 13.768 44.897 7.558 Q38.687 1.349 38.687 -7.545 Q38.687 -16.439 44.897 -22.648 Q51.106 -28.858 60 -28.858 Q68.894 -28.858 75.103 -22.648 Q81.313 -16.439 81.313 -7.545 Q81.313 1.349 75.103 7.558 Q68.894 13.768 60 13.768 Z M59.997 1.142 Q63.544 1.142 66.115 -1.427 Q68.687 -3.996 68.687 -7.542 Q68.687 -11.088 66.118 -13.66 Q63.549 -16.232 60.003 -16.232 Q56.456 -16.232 53.885 -13.663 Q51.313 -11.094 51.313 -7.548 Q51.313 -4.002 53.882 -1.43 Q56.451 1.142 59.997 1.142 Z M13.06 -52.244  4.709 -60.306 Q15.258 -70.966 29.258 -77.067 Q43.258 -83.168 60 -83.168 Q76.742 -83.168 90.742 -77.102 Q104.742 -71.037 115.291 -60.377 L106.94 -52.314 Q97.72 -61.254 85.871 -66.428 Q74.021 -71.602 60 -71.602 Q45.979 -71.602 34.13 -66.393 Q22.28 -61.184 13.06 -52.244 Z M87.418 -33.352 Q82.53 -38.102 75.588 -41.292 Q68.646 -44.483 60 -44.483 Q51.354 -44.483 44.439 -41.257 Q37.524 -38.031 32.652 -33.352 L24.231 -41.485 Q30.777 -47.893 40.018 -51.935 Q49.259 -55.977 60.007 -55.977 Q70.755 -55.977 79.962 -51.935 Q89.169 -47.893 95.715 -41.485 L87.418 -33.352 Z"/></g><g id="Medium-M" transform="matrix(1 0 0 1 1689.91 1126)"><path d="M60 11.281 Q51.514 11.281 45.569 5.337 Q39.625 -0.608 39.625 -9.094 Q39.625 -17.58 45.569 -23.525 Q51.514 -29.469 60 -29.469 Q68.486 -29.469 74.431 -23.525 Q80.375 -17.58 80.375 -9.094 Q80.375 -0.608 74.431 5.337 Q68.486 11.281 60 11.281 Z M59.997 0.531 Q63.951 0.531 66.788 -2.303 Q69.625 -5.137 69.625 -9.091 Q69.625 -13.045 66.791 -15.882 Q63.957 -18.719 60.003 -18.719 Q56.049 -18.719 53.212 -15.885 Q50.375 -13.051 50.375 -9.097 Q50.375 -5.143 53.209 -2.306 Q56.043 0.531 59.997 0.531 Z M14.323 -52.488  6.788 -59.613 Q17.092 -69.784 30.624 -75.538 Q44.155 -81.292 60 -81.292 Q75.845 -81.292 89.376 -75.553 Q102.908 -69.814 113.212 -59.643 L105.677 -52.518 Q96.62 -61.132 85.055 -66.061 Q73.491 -70.991 60 -70.991 Q46.509 -70.991 34.945 -66.047 Q23.38 -61.102 14.323 -52.488 Z M86.889 -34.616 Q81.755 -39.366 74.936 -42.23 Q68.116 -45.094 60 -45.094 Q51.884 -45.094 45.112 -42.215 Q38.34 -39.336 33.141 -34.616 L25.576 -41.771 Q32.204 -48.015 41.057 -51.691 Q49.911 -55.366 60.007 -55.366 Q70.103 -55.366 78.902 -51.691 Q87.701 -48.015 94.329 -41.771 L86.889 -34.616 Z"/></g><g id="Regular-M" transform="matrix(1 0 0 1 1394.06 1126)"><path d="M60 9.458 Q51.812 9.458 46.062 3.708 Q40.312 -2.042 40.312 -10.23 Q40.312 -18.417 46.062 -24.167 Q51.812 -29.917 60 -29.917 Q68.188 -29.917 73.938 -24.167 Q79.688 -18.417 79.688 -10.23 Q79.688 -2.042 73.938 3.708 Q68.188 9.458 60 9.458 Z M59.997 0.083 Q64.25 0.083 67.281 -2.946 Q70.312 -5.974 70.312 -10.227 Q70.312 -14.48 67.284 -17.511 Q64.255 -20.542 60.003 -20.542 Q55.75 -20.542 52.719 -17.514 Q49.688 -14.485 49.688 -10.233 Q49.688 -5.98 52.716 -2.949 Q55.745 0.083 59.997 0.083 Z M15.25 -52.667  8.312 -59.105 Q18.438 -68.917 31.625 -74.417 Q44.812 -79.917 60 -79.917 Q75.188 -79.917 88.375 -74.417 Q101.562 -68.917 111.688 -59.105 L104.75 -52.667 Q95.812 -61.042 84.457 -65.792 Q73.102 -70.542 60 -70.542 Q46.898 -70.542 35.543 -65.792 Q24.188 -61.042 15.25 -52.667 Z M86.5 -35.542 Q81.188 -40.292 74.457 -42.917 Q67.727 -45.542 60 -45.542 Q52.273 -45.542 45.605 -42.917 Q38.938 -40.292 33.5 -35.542 L26.562 -41.98 Q33.25 -48.105 41.82 -51.511 Q50.389 -54.917 60.007 -54.917 Q69.625 -54.917 78.125 -51.511 Q86.625 -48.105 93.312 -41.98 L86.5 -35.542 Z"/></g><g id="Light-M" transform="matrix(1 0 0 1 1098.18 1126)"><path d="M60 3.063 Q52.966 3.063 48.058 -1.846 Q43.149 -6.754 43.149 -13.788 Q43.149 -20.821 48.058 -25.742 Q52.966 -30.663 60 -30.663 Q67.034 -30.663 71.954 -25.742 Q76.875 -20.821 76.875 -13.788 Q76.875 -6.754 71.954 -1.846 Q67.034 3.063 60 3.063 Z M60.011 -3.932 Q64.082 -3.932 66.981 -6.831 Q69.88 -9.729 69.88 -13.799 Q69.88 -17.87 66.976 -20.769 Q64.073 -23.668 59.995 -23.668 Q55.918 -23.668 53.031 -20.764 Q50.144 -17.861 50.144 -13.783 Q50.144 -9.706 53.043 -6.819 Q55.941 -3.932 60.011 -3.932 Z M20.01 -52.499  14.876 -57.326 Q23.678 -65.888 35.111 -70.775 Q46.543 -75.662 60 -75.662 Q73.457 -75.662 84.889 -70.775 Q96.322 -65.888 105.148 -57.326 L99.99 -52.499 Q92.038 -60.081 81.829 -64.374 Q71.621 -68.667 60 -68.667 Q48.38 -68.667 38.171 -64.374 Q27.962 -60.081 20.01 -52.499 Z M83.759 -36.961 Q78.856 -41.47 72.911 -43.819 Q66.967 -46.167 60 -46.167 Q53.033 -46.167 47.151 -43.819 Q41.269 -41.47 36.241 -36.961 L31.106 -41.788 Q37.12 -47.264 44.415 -50.213 Q51.709 -53.163 60.006 -53.163 Q68.303 -53.163 75.555 -50.218 Q82.806 -47.274 88.841 -41.788 L83.759 -36.961 Z"/></g><g id="Thin-M" transform="matrix(1 0 0 1 802.565 1126)"><path d="M60 -3.331 Q54.12 -3.331 50.053 -7.398 Q45.986 -11.465 45.986 -17.345 Q45.986 -23.225 50.053 -27.316 Q54.12 -31.408 60 -31.408 Q65.88 -31.408 69.971 -27.316 Q74.062 -23.225 74.062 -17.345 Q74.062 -11.465 69.971 -7.398 Q65.88 -3.331 60 -3.331 Z M60.026 -7.946 Q63.913 -7.946 66.68 -10.715 Q69.447 -13.483 69.447 -17.371 Q69.447 -21.259 66.669 -24.026 Q63.89 -26.792 59.988 -26.792 Q56.087 -26.792 53.344 -24.014 Q50.601 -21.235 50.601 -17.334 Q50.601 -13.432 53.37 -10.689 Q56.138 -7.946 60.026 -7.946 Z M24.769 -52.331  21.437 -55.547 Q28.918 -62.86 38.596 -67.134 Q48.274 -71.408 60 -71.408 Q71.726 -71.408 81.404 -67.134 Q91.082 -62.86 98.611 -55.547 L95.231 -52.331 Q88.264 -59.119 79.202 -62.956 Q70.139 -66.792 60 -66.792 Q49.861 -66.792 40.798 -62.956 Q31.735 -59.119 24.769 -52.331 Z M81.019 -38.379 Q76.524 -42.648 71.365 -44.72 Q66.206 -46.792 60 -46.792 Q53.794 -46.792 48.697 -44.72 Q43.601 -42.648 38.981 -38.379 L35.649 -41.595 Q40.99 -46.422 47.009 -48.915 Q53.028 -51.408 60.004 -51.408 Q66.981 -51.408 72.984 -48.925 Q78.988 -46.442 84.37 -41.595 L81.019 -38.379 Z"/></g><g id="Ultralight-M" transform="matrix(1 0 0 1 506.415 1126)"><path d="M60 -7.167 Q54.812 -7.167 51.25 -10.73 Q47.688 -14.292 47.688 -19.48 Q47.688 -24.667 51.25 -28.261 Q54.812 -31.855 60 -31.855 Q65.188 -31.855 68.781 -28.261 Q72.375 -24.667 72.375 -19.48 Q72.375 -14.292 68.781 -10.73 Q65.188 -7.167 60 -7.167 Z M60.034 -10.355 Q63.812 -10.355 66.5 -13.045 Q69.188 -15.736 69.188 -19.514 Q69.188 -23.292 66.484 -25.98 Q63.78 -28.667 59.984 -28.667 Q56.188 -28.667 53.531 -25.964 Q50.875 -23.26 50.875 -19.464 Q50.875 -15.667 53.566 -13.011 Q56.256 -10.355 60.034 -10.355 Z M27.625 -52.23  25.375 -54.48 Q32.062 -61.042 40.688 -64.949 Q49.312 -68.855 60 -68.855 Q70.688 -68.855 79.312 -64.949 Q87.938 -61.042 94.688 -54.48 L92.375 -52.23 Q86 -58.542 77.625 -62.105 Q69.25 -65.667 60 -65.667 Q50.75 -65.667 42.375 -62.105 Q34 -58.542 27.625 -52.23 Z M79.375 -39.23 Q75.125 -43.355 70.438 -45.261 Q65.75 -47.167 60 -47.167 Q54.25 -47.167 49.625 -45.261 Q45 -43.355 40.625 -39.23 L38.375 -41.48 Q43.312 -45.917 48.566 -48.136 Q53.82 -50.355 60.004 -50.355 Q66.188 -50.355 71.442 -48.149 Q76.697 -45.943 81.688 -41.48 L79.375 -39.23 Z"/></g><g id="Bold-S" transform="matrix(1 0 0 1 2294.23 696)"><path d="M47.34 3.678 Q40.486 3.678 35.801 -1.007 Q31.116 -5.692 31.116 -12.546 Q31.116 -19.401 35.801 -24.085 Q40.486 -28.77 47.34 -28.77 Q54.194 -28.77 58.879 -24.085 Q63.564 -19.401 63.564 -12.546 Q63.564 -5.692 58.879 -1.007 Q54.194 3.678 47.34 3.678 Z M47.359 -7.467 Q49.411 -7.467 50.915 -8.99 Q52.419 -10.513 52.419 -12.565 Q52.419 -14.617 50.896 -16.121 Q49.374 -17.625 47.321 -17.625 Q45.269 -17.625 43.765 -16.103 Q42.261 -14.58 42.261 -12.528 Q42.261 -10.475 43.784 -8.971 Q45.306 -7.467 47.359 -7.467 Z M12.427 -47.903  5.868 -54.758 Q13.66 -63.19 24.07 -67.924 Q34.48 -72.658 47.345 -72.658 Q60.211 -72.658 70.615 -67.973 Q81.02 -63.289 88.812 -54.856 L82.155 -47.903 Q75.497 -54.906 66.686 -58.949 Q57.875 -62.993 47.34 -62.993 Q36.805 -62.993 27.945 -58.949 Q19.084 -54.906 12.427 -47.903 Z M67.065 -32.025 Q63.86 -35.477 58.944 -38.287 Q54.029 -41.098 47.291 -41.098 Q40.553 -41.098 35.637 -38.238 Q30.722 -35.378 27.714 -32.025 L20.958 -39.076 Q25.445 -43.909 32.157 -47.287 Q38.87 -50.665 47.296 -50.665 Q55.723 -50.665 62.528 -47.287 Q69.333 -43.909 73.821 -39.076 L67.065 -32.025 Z"/></g><g id="Semibold-S" transform="matrix(1 0 0 1 1998.1 696)"><path d="M47.34 1.062 Q40.914 1.062 36.508 -3.344 Q32.102 -7.75 32.102 -14.176 Q32.102 -20.601 36.508 -25.007 Q40.914 -29.413 47.34 -29.413 Q53.766 -29.413 58.172 -25.007 Q62.578 -20.601 62.578 -14.176 Q62.578 -7.75 58.172 -3.344 Q53.766 1.062 47.34 1.062 Z M47.359 -8.11 Q49.84 -8.11 51.623 -9.912 Q53.405 -11.713 53.405 -14.194 Q53.405 -16.675 51.604 -18.458 Q49.802 -20.241 47.321 -20.241 Q44.84 -20.241 43.057 -18.439 Q41.275 -16.638 41.275 -14.157 Q41.275 -11.676 43.076 -9.893 Q44.878 -8.11 47.359 -8.11 Z M13.756 -48.161  8.055 -54.029 Q15.589 -61.947 25.506 -66.316 Q35.423 -70.686 47.345 -70.686 Q59.267 -70.686 69.179 -66.344 Q79.091 -62.002 86.625 -54.085 L80.825 -48.118 Q74.34 -54.777 65.829 -58.563 Q57.317 -62.35 47.34 -62.35 Q37.363 -62.35 28.802 -58.585 Q20.242 -54.82 13.756 -48.161 Z M66.508 -33.354 Q63.045 -36.806 58.258 -39.274 Q53.471 -41.741 47.291 -41.741 Q41.11 -41.741 36.345 -39.246 Q31.579 -36.75 28.228 -33.354 L22.373 -39.376 Q26.946 -44.038 33.251 -47.03 Q39.556 -50.022 47.296 -50.022 Q55.037 -50.022 61.413 -47.03 Q67.79 -44.038 72.363 -39.376 L66.508 -33.354 Z"/></g><g id="Medium-S" transform="matrix(1 0 0 1 1701.85 696)"><path d="M47.34 -0.9 Q41.236 -0.9 37.039 -5.097 Q32.842 -9.294 32.842 -15.398 Q32.842 -21.502 37.039 -25.699 Q41.236 -29.896 47.34 -29.896 Q53.444 -29.896 57.641 -25.699 Q61.838 -21.502 61.838 -15.398 Q61.838 -9.294 57.641 -5.097 Q53.444 -0.9 47.34 -0.9 Z M47.359 -8.593 Q50.162 -8.593 52.153 -10.603 Q54.145 -12.614 54.145 -15.417 Q54.145 -18.219 52.135 -20.211 Q50.124 -22.203 47.321 -22.203 Q44.518 -22.203 42.527 -20.192 Q40.535 -18.182 40.535 -15.379 Q40.535 -12.576 42.545 -10.585 Q44.556 -8.593 47.359 -8.593 Z M14.753 -48.354  9.695 -53.482 Q17.036 -61.014 26.583 -65.11 Q36.131 -69.206 47.345 -69.206 Q58.56 -69.206 68.102 -65.122 Q77.644 -61.038 84.985 -53.506 L79.828 -48.278 Q73.471 -54.681 65.185 -58.274 Q56.899 -61.867 47.34 -61.867 Q37.781 -61.867 29.445 -58.312 Q21.11 -54.756 14.753 -48.354 Z M66.09 -34.351 Q62.434 -37.803 57.743 -40.013 Q53.053 -42.224 47.291 -42.224 Q41.529 -42.224 36.875 -40.001 Q32.222 -37.779 28.614 -34.351 L23.434 -39.602 Q28.072 -44.134 34.071 -46.837 Q40.07 -49.539 47.296 -49.539 Q54.522 -49.539 60.577 -46.837 Q66.632 -44.134 71.269 -39.602 L66.09 -34.351 Z"/></g><g id="Regular-S" transform="matrix(1 0 0 1 1405.73 696)"><path d="M47.34 -2.339 Q41.472 -2.339 37.428 -6.382 Q33.385 -10.426 33.385 -16.294 Q33.385 -22.162 37.428 -26.206 Q41.472 -30.249 47.34 -30.249 Q53.208 -30.249 57.252 -26.206 Q61.295 -22.162 61.295 -16.294 Q61.295 -10.426 57.252 -6.382 Q53.208 -2.339 47.34 -2.339 Z M47.359 -8.946 Q50.397 -8.946 52.542 -11.11 Q54.688 -13.274 54.688 -16.313 Q54.688 -19.351 52.524 -21.496 Q50.36 -23.642 47.321 -23.642 Q44.283 -23.642 42.138 -21.478 Q39.992 -19.314 39.992 -16.275 Q39.992 -13.237 42.156 -11.092 Q44.32 -8.946 47.359 -8.946 Z M15.484 -48.495  10.898 -53.081 Q18.098 -60.33 27.374 -64.226 Q36.65 -68.121 47.345 -68.121 Q58.041 -68.121 67.312 -64.226 Q76.582 -60.33 83.782 -53.081 L79.097 -48.396 Q72.835 -54.61 64.714 -58.062 Q56.593 -61.514 47.34 -61.514 Q38.087 -61.514 29.917 -58.111 Q21.747 -54.708 15.484 -48.495 Z M65.783 -35.082 Q61.986 -38.534 57.366 -40.556 Q52.746 -42.578 47.291 -42.578 Q41.835 -42.578 37.265 -40.556 Q32.694 -38.534 28.897 -35.082 L24.212 -39.767 Q28.897 -44.205 34.672 -46.695 Q40.448 -49.185 47.296 -49.185 Q54.145 -49.185 59.964 -46.695 Q65.783 -44.205 70.468 -39.767 L65.783 -35.082 Z"/></g><g id="Light-S" transform="matrix(1 0 0 1 1109.75 696)"><path d="M47.34 -7.384 Q42.382 -7.384 39.003 -10.764 Q35.623 -14.143 35.623 -19.101 Q35.623 -24.059 39.003 -27.448 Q42.382 -30.837 47.34 -30.837 Q52.298 -30.837 55.687 -27.448 Q59.076 -24.059 59.076 -19.101 Q59.076 -14.143 55.687 -10.764 Q52.298 -7.384 47.34 -7.384 Z M47.37 -12.114 Q50.265 -12.114 52.305 -14.175 Q54.346 -16.237 54.346 -19.131 Q54.346 -22.026 52.281 -24.067 Q50.216 -26.107 47.316 -26.107 Q44.415 -26.107 42.384 -24.042 Q40.353 -21.977 40.353 -19.077 Q40.353 -16.177 42.414 -14.145 Q44.475 -12.114 47.37 -12.114 Z M19.24 -48.362  16.076 -51.677 Q22.233 -57.94 30.124 -61.352 Q38.015 -64.764 47.345 -64.764 Q56.675 -64.764 64.561 -61.352 Q72.447 -57.94 78.623 -51.677 L75.342 -48.264 Q69.857 -53.851 62.64 -56.943 Q55.424 -60.034 47.34 -60.034 Q39.256 -60.034 31.991 -56.992 Q24.725 -53.95 19.24 -48.362 Z M63.621 -36.201 Q60.146 -39.463 56.146 -41.267 Q52.146 -43.071 47.291 -43.071 Q42.435 -43.071 38.485 -41.267 Q34.534 -39.463 31.059 -36.201 L27.797 -39.615 Q31.951 -43.541 36.72 -45.671 Q41.489 -47.801 47.295 -47.801 Q53.102 -47.801 57.936 -45.675 Q62.77 -43.549 66.94 -39.615 L63.621 -36.201 Z"/></g><g id="Thin-S" transform="matrix(1 0 0 1 814.015 696)"><path d="M47.34 -12.429 Q43.293 -12.429 40.577 -15.145 Q37.861 -17.861 37.861 -21.908 Q37.861 -25.955 40.577 -28.69 Q43.293 -31.425 47.34 -31.425 Q51.387 -31.425 54.122 -28.69 Q56.857 -25.955 56.857 -21.908 Q56.857 -17.861 54.122 -15.145 Q51.387 -12.429 47.34 -12.429 Z M47.381 -15.281 Q50.132 -15.281 52.068 -17.24 Q54.005 -19.199 54.005 -21.949 Q54.005 -24.7 52.038 -26.636 Q50.072 -28.573 47.31 -28.573 Q44.548 -28.573 42.631 -26.606 Q40.713 -24.639 40.713 -21.878 Q40.713 -19.116 42.672 -17.199 Q44.631 -15.281 47.381 -15.281 Z M22.995 -48.23  21.254 -50.274 Q26.367 -55.551 32.874 -58.479 Q39.381 -61.407 47.345 -61.407 Q55.31 -61.407 61.811 -58.479 Q68.313 -55.551 73.464 -50.274 L71.587 -48.131 Q66.879 -53.092 60.567 -55.824 Q54.255 -58.555 47.34 -58.555 Q40.425 -58.555 34.064 -55.873 Q27.702 -53.191 22.995 -48.23 Z M61.459 -37.32 Q58.306 -40.393 54.926 -41.978 Q51.546 -43.564 47.291 -43.564 Q43.035 -43.564 39.704 -41.978 Q36.374 -40.393 33.221 -37.32 L31.382 -39.463 Q35.004 -42.877 38.767 -44.647 Q42.53 -46.416 47.294 -46.416 Q52.059 -46.416 55.908 -44.655 Q59.758 -42.893 63.412 -39.463 L61.459 -37.32 Z"/></g><g id="Ultralight-S" transform="matrix(1 0 0 1 517.792 696)"><path d="M47.34 -15.456 Q43.839 -15.456 41.521 -17.773 Q39.203 -20.091 39.203 -23.592 Q39.203 -27.093 41.521 -29.436 Q43.839 -31.778 47.34 -31.778 Q50.841 -31.778 53.184 -29.436 Q55.526 -27.093 55.526 -23.592 Q55.526 -20.091 53.184 -17.773 Q50.841 -15.456 47.34 -15.456 Z M47.388 -17.182 Q50.052 -17.182 51.926 -19.079 Q53.8 -20.976 53.8 -23.64 Q53.8 -26.304 51.892 -28.178 Q49.985 -30.052 47.306 -30.052 Q44.628 -30.052 42.779 -28.145 Q40.929 -26.237 40.929 -23.559 Q40.929 -20.88 42.827 -19.031 Q44.724 -17.182 47.388 -17.182 Z M25.248 -48.15  24.36 -49.432 Q28.848 -54.117 34.524 -56.755 Q40.2 -59.393 47.345 -59.393 Q54.49 -59.393 60.161 -56.755 Q65.832 -54.117 70.369 -49.432 L69.333 -48.051 Q65.093 -52.637 59.323 -55.152 Q53.553 -57.667 47.34 -57.667 Q41.127 -57.667 35.308 -55.202 Q29.489 -52.736 25.248 -48.15 Z M60.161 -37.991 Q57.203 -40.95 54.194 -42.405 Q51.186 -43.86 47.291 -43.86 Q43.395 -43.86 40.436 -42.405 Q37.477 -40.95 34.519 -37.991 L33.532 -39.372 Q36.836 -42.479 39.995 -44.032 Q43.154 -45.586 47.294 -45.586 Q51.433 -45.586 54.691 -44.043 Q57.95 -42.499 61.295 -39.372 L60.161 -37.991 Z"/></g></g></svg>