<svg xmlns="http://www.w3.org/2000/svg" version="1.1" width="3300" height="2000"><g id="Notes"><style>
    text {
      font-family: monospace;
      text-anchor: middle;
    }
    text.emphasis {
      font-weight:bold;
    }
    text.lanchor {
      text-anchor: start;
    }
  </style><rect height="2200" id="artboard" fill="white" width="3300" x="0" y="0"/><line id="" style="fill:none;stroke:black;stroke-width:0.5;" x1="263" x2="3036" y1="292" y2="292"/><text class="lanchor emphasis" transform="matrix(1 0 0 1 263 322)">Weight/Scale Variations</text><text transform="matrix(1 0 0 1 559.711 322)">Ultralight</text><text transform="matrix(1 0 0 1 856.422 322)">Thin</text><text transform="matrix(1 0 0 1 1153.13 322)">Light</text><text transform="matrix(1 0 0 1 1449.84 322)">Regular</text><text transform="matrix(1 0 0 1 1746.56 322)">Medium</text><text transform="matrix(1 0 0 1 2043.27 322)">Semibold</text><text transform="matrix(1 0 0 1 2339.98 322)">Bold</text><text transform="matrix(1 0 0 1 2636.69 322)">Heavy</text><text transform="matrix(1 0 0 1 2933.4 322)">Black</text><text id="template-version" style="text-anchor: end;" transform="matrix(1 0 0 1 3036 1933)">Template v.1.0</text><text class="lanchor" transform="matrix(1 0 0 1 263 726)">Small</text><text class="lanchor" transform="matrix(1 0 0 1 263 1156)">Medium</text><text class="lanchor" transform="matrix(1 0 0 1 263 1586)">Large</text></g><g id="Guides"><g id="H-reference" style="fill:#27AAE1;stroke:none;" transform="matrix(1 0 0 1 339 696)"><path d="M 54.9316 0 L 57.666 0 L 30.5664 -70.459 L 28.0762 -70.459 L 0.976562 0 L 3.66211 0 L 12.9395 -24.4629 L 45.7031 -24.4629 Z M 29.1992 -67.0898 L 29.4434 -67.0898 L 44.8242 -26.709 L 13.8184 -26.709 Z"/></g><line id="Baseline-S" style="fill:none;stroke:#27AAE1;opacity:1;stroke-width:0.577;" x1="263" x2="3036" y1="696" y2="696"/><line id="Capline-S" style="fill:none;stroke:#27AAE1;opacity:1;stroke-width:0.577;" x1="263" x2="3036" y1="625.541" y2="625.541"/><g id="H-reference" style="fill:#27AAE1;stroke:none;" transform="matrix(1 0 0 1 339 1126)"><path d="M 54.9316 0 L 57.666 0 L 30.5664 -70.459 L 28.0762 -70.459 L 0.976562 0 L 3.66211 0 L 12.9395 -24.4629 L 45.7031 -24.4629 Z M 29.1992 -67.0898 L 29.4434 -67.0898 L 44.8242 -26.709 L 13.8184 -26.709 Z"/></g><line id="Baseline-M" style="fill:none;stroke:#27AAE1;opacity:1;stroke-width:0.577;" x1="263" x2="3036" y1="1126" y2="1126"/><line id="Capline-M" style="fill:none;stroke:#27AAE1;opacity:1;stroke-width:0.577;" x1="263" x2="3036" y1="1055.54" y2="1055.54"/><g id="H-reference" style="fill:#27AAE1;stroke:none;" transform="matrix(1 0 0 1 339 1556)"><path d="M 54.9316 0 L 57.666 0 L 30.5664 -70.459 L 28.0762 -70.459 L 0.976562 0 L 3.66211 0 L 12.9395 -24.4629 L 45.7031 -24.4629 Z M 29.1992 -67.0898 L 29.4434 -67.0898 L 44.8242 -26.709 L 13.8184 -26.709 Z"/></g><line id="Baseline-L" style="fill:none;stroke:#27AAE1;opacity:1;stroke-width:0.577;" x1="263" x2="3036" y1="1556" y2="1556"/><line id="Capline-L" style="fill:none;stroke:#27AAE1;opacity:1;stroke-width:0.577;" x1="263" x2="3036" y1="1485.54" y2="1485.54"/><rect height="119.336" id="left-margin" style="fill:darkred;stroke:none;opacity:0.4;" width="12.4512" x="1394.06" y="1030.79"/><rect height="119.336" id="right-margin" style="fill:darkgreen;stroke:none;opacity:0.4;" width="12.4512" x="1502.5112" y="1030.79"/><rect x="1406.5112" y="1045" width="96" height="96" fill="none" stroke="blue" stroke-dasharray="5"/><rect x="1394.06" y="1030.79" width="120.9024" height="119.336" fill="none" stroke="blue"/></g><g id="Symbols"><g id="Bold-L" transform="matrix(1 0 0 1 2266 1556)"><path d="M44.505 31.689 Q38.944 31.689 34.65 27.991 Q30.355 24.294 29.831 18.628 L17.576 -94.086 Q17.254 -97.231 19.304 -99.77 Q21.354 -102.31 24.671 -102.31 H130.129 Q133.446 -102.31 135.496 -99.77 Q137.546 -97.231 137.385 -94.086 L124.969 18.628 Q124.445 24.294 120.15 27.991 Q115.856 31.689 110.295 31.689 H44.505 Z M35.877 -61.514 H61.436 Q64.732 -64.094 68.72 -65.706 Q72.709 -67.319 77.4 -67.319 Q82.091 -67.319 86.08 -65.744 Q90.068 -64.17 93.686 -61.514 H118.914 L121.905 -87.636 H33.218 L35.877 -61.514 Z M77.346 -29.747 Q82.179 -29.747 85.836 -33.34 Q89.494 -36.934 89.494 -41.626 Q89.494 -46.459 85.857 -50.116 Q82.22 -53.774 77.421 -53.774 Q72.621 -53.774 69.044 -50.137 Q65.468 -46.5 65.468 -41.701 Q65.468 -36.901 69.06 -33.324 Q72.654 -29.747 77.346 -29.747 Z"/></g><g id="Semibold-L" transform="matrix(1 0 0 1 1970.27 1556)"><path d="M43.944 31.058 Q38.844 31.058 34.95 27.711 Q31.056 24.364 30.532 19.188 L18.207 -94.156 Q17.885 -97.02 19.76 -99.35 Q21.635 -101.679 24.671 -101.679 H130.129 Q133.165 -101.679 135.04 -99.35 Q136.915 -97.02 136.754 -94.156 L124.268 19.188 Q123.744 24.364 119.85 27.711 Q115.956 31.058 110.856 31.058 H43.944 Z M35.27 -61.093 H61.086 Q64.452 -63.813 68.545 -65.496 Q72.638 -67.178 77.4 -67.178 Q82.162 -67.178 86.255 -65.518 Q90.348 -63.857 93.967 -61.093 H119.511 L122.606 -88.267 H32.446 L35.27 -61.093 Z M77.369 -29.117 Q82.53 -29.117 86.327 -32.873 Q90.125 -36.63 90.125 -41.649 Q90.125 -46.81 86.339 -50.607 Q82.553 -54.405 77.447 -54.405 Q72.34 -54.405 68.588 -50.619 Q64.837 -46.833 64.837 -41.727 Q64.837 -36.62 68.593 -32.868 Q72.35 -29.117 77.369 -29.117 Z"/></g><g id="Medium-L" transform="matrix(1 0 0 1 1674.31 1556)"><path d="M43.523 30.585 Q38.769 30.585 35.176 27.501 Q31.582 24.417 31.058 19.609 L18.68 -94.209 Q18.358 -96.862 20.101 -99.034 Q21.845 -101.206 24.671 -101.206 H130.129 Q132.955 -101.206 134.699 -99.034 Q136.442 -96.862 136.281 -94.209 L123.742 19.609 Q123.218 24.417 119.624 27.501 Q116.031 30.585 111.277 30.585 H43.523 Z M34.815 -60.778 H60.823 Q64.242 -63.603 68.414 -65.338 Q72.586 -67.073 77.4 -67.073 Q82.214 -67.073 86.386 -65.347 Q90.558 -63.621 94.177 -60.778 H119.959 L123.132 -88.74 H31.868 L34.815 -60.778 Z M77.387 -28.643 Q82.793 -28.643 86.695 -32.523 Q90.598 -36.403 90.598 -41.667 Q90.598 -47.073 86.7 -50.975 Q82.802 -54.878 77.466 -54.878 Q72.13 -54.878 68.247 -50.98 Q64.363 -47.082 64.363 -41.746 Q64.363 -36.41 68.243 -32.527 Q72.123 -28.643 77.387 -28.643 Z"/></g><g id="Regular-L" transform="matrix(1 0 0 1 1378.56 1556)"><path d="M43.215 30.238 Q38.714 30.238 35.341 27.346 Q31.968 24.455 31.444 19.918 L19.027 -94.247 Q18.705 -96.747 20.352 -98.803 Q21.999 -100.859 24.671 -100.859 H130.129 Q132.801 -100.859 134.448 -98.803 Q136.095 -96.747 135.934 -94.247 L123.356 19.918 Q122.832 24.455 119.459 27.346 Q116.086 30.238 111.585 30.238 H43.215 Z M34.481 -60.546 H60.63 Q64.087 -63.449 68.317 -65.222 Q72.547 -66.996 77.4 -66.996 Q82.253 -66.996 86.483 -65.222 Q90.713 -63.449 94.331 -60.546 H120.288 L123.517 -89.087 H31.444 L34.481 -60.546 Z M77.4 -28.296 Q82.985 -28.296 86.965 -32.266 Q90.945 -36.236 90.945 -41.68 Q90.945 -47.265 86.965 -51.245 Q82.985 -55.225 77.481 -55.225 Q71.976 -55.225 67.996 -51.245 Q64.016 -47.265 64.016 -41.761 Q64.016 -36.256 67.986 -32.276 Q71.956 -28.296 77.4 -28.296 Z"/></g><g id="Light-L" transform="matrix(1 0 0 1 1082.77 1556)"><path d="M45.82 27.012 Q41.366 27.012 38.163 24.219 Q34.96 21.425 34.421 17.002 L22.625 -91.208 Q22.302 -93.615 23.934 -95.624 Q25.566 -97.634 28.082 -97.634 H126.718 Q129.234 -97.634 130.866 -95.624 Q132.498 -93.615 132.336 -91.208 L120.379 17.002 Q119.84 21.425 116.637 24.219 Q113.434 27.012 108.98 27.012 H45.82 Z M35.474 -59.368 H61.126 Q64.459 -62.27 68.563 -64.044 Q72.666 -65.818 77.4 -65.818 Q82.134 -65.818 86.237 -64.044 Q90.341 -62.27 93.835 -59.368 H119.295 L122.525 -88.219 H32.374 L35.474 -59.368 Z M77.412 -27.118 Q83.419 -27.118 87.771 -31.441 Q92.123 -35.764 92.123 -41.692 Q92.123 -47.699 87.759 -52.051 Q83.395 -56.403 77.469 -56.403 Q71.48 -56.403 67.159 -52.039 Q62.838 -47.675 62.838 -41.749 Q62.838 -35.76 67.161 -31.439 Q71.484 -27.118 77.412 -27.118 Z"/></g><g id="Thin-L" transform="matrix(1 0 0 1 787.282 1556)"><path d="M48.425 23.788 Q44.017 23.788 40.985 21.091 Q37.953 18.395 37.398 14.088 L26.222 -88.17 Q25.899 -90.483 27.515 -92.446 Q29.131 -94.409 31.493 -94.409 H123.307 Q125.669 -94.409 127.285 -92.446 Q128.901 -90.483 128.74 -88.17 L117.402 14.088 Q116.847 18.395 113.815 21.091 Q110.783 23.788 106.375 23.788 H48.425 Z M36.466 -58.19 H61.622 Q64.831 -61.092 68.808 -62.866 Q72.785 -64.64 77.4 -64.64 Q82.015 -64.64 85.992 -62.866 Q89.969 -61.092 93.339 -58.19 H118.303 L121.533 -87.351 H33.304 L36.466 -58.19 Z M77.424 -25.94 Q83.854 -25.94 88.578 -30.616 Q93.302 -35.292 93.302 -41.704 Q93.302 -48.134 88.554 -52.858 Q83.805 -57.582 77.456 -57.582 Q70.984 -57.582 66.322 -52.834 Q61.66 -48.085 61.66 -41.736 Q61.66 -35.264 66.336 -30.602 Q71.012 -25.94 77.424 -25.94 Z"/></g><g id="Ultralight-L" transform="matrix(1 0 0 1 491.205 1556)"><path d="M49.988 21.853 Q45.608 21.853 42.678 19.215 Q39.748 16.577 39.184 12.339 L28.38 -86.346 Q28.058 -88.604 29.664 -90.539 Q31.271 -92.474 33.54 -92.474 H121.26 Q123.529 -92.474 125.136 -90.539 Q126.743 -88.604 126.581 -86.346 L115.616 12.339 Q115.052 16.577 112.122 19.215 Q109.192 21.853 104.812 21.853 H49.988 Z M37.061 -57.482 H61.92 Q65.055 -60.385 68.956 -62.159 Q72.857 -63.932 77.4 -63.932 Q81.943 -63.932 85.844 -62.159 Q89.745 -60.385 93.041 -57.482 H117.708 L120.938 -86.83 H33.863 L37.061 -57.482 Z M77.431 -25.232 Q84.114 -25.232 89.061 -30.12 Q94.009 -35.009 94.009 -41.711 Q94.009 -48.394 89.03 -53.341 Q84.051 -58.289 77.449 -58.289 Q70.686 -58.289 65.819 -53.31 Q60.953 -48.331 60.953 -41.729 Q60.953 -34.966 65.84 -30.099 Q70.729 -25.232 77.431 -25.232 Z"/></g><g id="Bold-M" transform="matrix(1 0 0 1 2281.8 1126)"><path d="M38.125 18.27 Q31.667 18.27 26.771 13.958 Q21.875 9.645 21.25 3.145 L12.125 -79.23 Q11.75 -82.98 14.277 -85.855 Q16.804 -88.73 20.625 -88.73 H99.375 Q103.196 -88.73 105.723 -85.855 Q108.25 -82.98 107.875 -79.23 L98.75 3.145 Q98.125 9.645 93.229 13.958 Q88.333 18.27 81.875 18.27 H38.125 Z M31.625 -58.105 H46.75 Q49.625 -60.23 52.932 -61.355 Q56.238 -62.48 60 -62.48 Q63.762 -62.48 67.068 -61.355 Q70.375 -60.23 73.25 -58.105 H88.371 L90 -71.73 H30.125 L31.625 -58.105 Z M60 -33.73 Q62.58 -33.73 64.54 -35.69 Q66.5 -37.65 66.5 -40.23 Q66.5 -42.81 64.54 -44.77 Q62.58 -46.73 60 -46.73 Q57.42 -46.73 55.46 -44.77 Q53.5 -42.81 53.5 -40.23 Q53.5 -37.65 55.46 -35.69 Q57.42 -33.73 60 -33.73 Z"/></g><g id="Semibold-M" transform="matrix(1 0 0 1 1985.97 1126)"><path d="M37.419 17.455 Q31.558 17.455 27.151 13.577 Q22.744 9.699 22.119 3.797 L12.94 -79.339 Q12.62 -82.708 14.902 -85.311 Q17.184 -87.915 20.625 -87.915 H99.375 Q102.816 -87.915 105.098 -85.311 Q107.38 -82.708 107.06 -79.339 L97.88 3.797 Q97.255 9.699 92.849 13.577 Q88.442 17.455 82.582 17.455 H37.419 Z M30.864 -57.561 H46.478 Q49.353 -59.795 52.741 -61.002 Q56.13 -62.208 60 -62.208 Q63.87 -62.208 67.259 -61.002 Q70.647 -59.795 73.522 -57.561 H89.132 L90.87 -72.545 H29.201 L30.864 -57.561 Z M60 -32.915 Q62.96 -32.915 65.138 -35.092 Q67.315 -37.27 67.315 -40.23 Q67.315 -43.19 65.138 -45.368 Q62.96 -47.545 60 -47.545 Q57.04 -47.545 54.862 -45.368 Q52.685 -43.19 52.685 -40.23 Q52.685 -37.27 54.862 -35.092 Q57.04 -32.915 60 -32.915 Z"/></g><g id="Medium-M" transform="matrix(1 0 0 1 1689.91 1126)"><path d="M36.889 16.843 Q31.477 16.843 27.437 13.292 Q23.397 9.74 22.772 4.286 L13.552 -79.42 Q13.272 -82.504 15.37 -84.904 Q17.469 -87.303 20.625 -87.303 H99.375 Q102.531 -87.303 104.629 -84.904 Q106.728 -82.504 106.448 -79.42 L97.228 4.286 Q96.603 9.74 92.563 13.292 Q88.523 16.843 83.111 16.843 H36.889 Z M30.294 -57.154 H46.275 Q49.15 -59.469 52.599 -60.737 Q56.048 -62.004 60 -62.004 Q63.952 -62.004 67.401 -60.737 Q70.85 -59.469 73.725 -57.154 H89.703 L91.522 -73.157 H28.508 L30.294 -57.154 Z M60 -32.303 Q63.245 -32.303 65.586 -34.644 Q67.927 -36.984 67.927 -40.23 Q67.927 -43.475 65.586 -45.816 Q63.245 -48.157 60 -48.157 Q56.755 -48.157 54.414 -45.816 Q52.073 -43.475 52.073 -40.23 Q52.073 -36.984 54.414 -34.644 Q56.755 -32.303 60 -32.303 Z"/></g><g id="Regular-M" transform="matrix(1 0 0 1 1394.06 1126)"><path d="M36.5 16.395 Q31.417 16.395 27.646 13.083 Q23.875 9.77 23.25 4.645 L14 -79.48 Q13.75 -82.355 15.714 -84.605 Q17.679 -86.855 20.625 -86.855 H99.375 Q102.321 -86.855 104.286 -84.605 Q106.25 -82.355 106 -79.48 L96.75 4.645 Q96.125 9.77 92.354 13.083 Q88.583 16.395 83.5 16.395 H36.5 Z M29.875 -56.855 H46.125 Q49 -59.23 52.494 -60.542 Q55.988 -61.855 60 -61.855 Q64.012 -61.855 67.506 -60.542 Q71 -59.23 73.875 -56.855 H90.121 L92 -73.605 H28 L29.875 -56.855 Z M60 -31.855 Q63.455 -31.855 65.915 -34.315 Q68.375 -36.775 68.375 -40.23 Q68.375 -43.685 65.915 -46.145 Q63.455 -48.605 60 -48.605 Q56.545 -48.605 54.085 -46.145 Q51.625 -43.685 51.625 -40.23 Q51.625 -36.775 54.085 -34.315 Q56.545 -31.855 60 -31.855 Z"/></g><g id="Light-M" transform="matrix(1 0 0 1 1098.18 1126)"><path d="M37.894 13.895 Q33.184 13.895 29.689 10.826 Q26.195 7.757 25.606 3.01 L16.741 -77.509 Q16.491 -80.167 18.323 -82.261 Q20.155 -84.355 22.885 -84.355 H97.115 Q99.845 -84.355 101.677 -82.261 Q103.509 -80.167 103.259 -77.509 L94.394 3.01 Q93.805 7.757 90.311 10.826 Q86.816 13.895 82.106 13.895 H37.894 Z M30.019 -55.605 H46.654 Q49.385 -57.98 52.757 -59.292 Q56.129 -60.605 60 -60.605 Q63.871 -60.605 67.243 -59.292 Q70.615 -57.98 73.346 -55.605 H89.977 L92 -73.605 H28 L30.019 -55.605 Z M60.009 -30.605 Q63.984 -30.605 66.804 -33.435 Q69.625 -36.265 69.625 -40.239 Q69.625 -44.214 66.795 -47.034 Q63.965 -49.855 59.991 -49.855 Q56.016 -49.855 53.196 -47.025 Q50.375 -44.195 50.375 -40.221 Q50.375 -36.246 53.205 -33.426 Q56.035 -30.605 60.009 -30.605 Z"/></g><g id="Thin-M" transform="matrix(1 0 0 1 802.565 1126)"><path d="M39.288 11.395 Q34.951 11.395 31.733 8.57 Q28.514 5.745 27.962 1.376 L19.481 -75.538 Q19.231 -77.98 20.931 -79.917 Q22.631 -81.855 25.144 -81.855 H94.856 Q97.37 -81.855 99.069 -79.917 Q100.769 -77.98 100.519 -75.538 L92.038 1.376 Q91.486 5.745 88.267 8.57 Q85.049 11.395 80.712 11.395 H39.288 Z M30.163 -54.355 H47.183 Q49.769 -56.73 53.019 -58.042 Q56.269 -59.355 60 -59.355 Q63.731 -59.355 66.981 -58.042 Q70.231 -56.73 72.817 -54.355 H89.833 L92 -73.605 H28 L30.163 -54.355 Z M60.019 -29.355 Q64.512 -29.355 67.694 -32.555 Q70.875 -35.755 70.875 -40.249 Q70.875 -44.742 67.675 -47.924 Q64.475 -51.105 59.981 -51.105 Q55.488 -51.105 52.306 -47.905 Q49.125 -44.705 49.125 -40.211 Q49.125 -35.718 52.325 -32.536 Q55.525 -29.355 60.019 -29.355 Z"/></g><g id="Ultralight-M" transform="matrix(1 0 0 1 506.415 1126)"><path d="M40.125 9.895 Q36.011 9.895 32.959 7.216 Q29.906 4.538 29.375 0.395 L21.125 -74.355 Q20.875 -76.667 22.495 -78.511 Q24.116 -80.355 26.5 -80.355 H93.5 Q95.884 -80.355 97.504 -78.511 Q99.125 -76.667 98.875 -74.355 L90.625 0.395 Q90.094 4.538 87.041 7.216 Q83.989 9.895 79.875 9.895 H40.125 Z M30.25 -53.605 H47.5 Q50 -55.98 53.176 -57.292 Q56.353 -58.605 60 -58.605 Q63.647 -58.605 66.823 -57.292 Q70 -55.98 72.5 -53.605 H89.746 L92 -73.605 H28 L30.25 -53.605 Z M60.024 -28.605 Q64.83 -28.605 68.227 -32.027 Q71.625 -35.449 71.625 -40.254 Q71.625 -45.06 68.203 -48.457 Q64.781 -51.855 59.976 -51.855 Q55.17 -51.855 51.773 -48.433 Q48.375 -45.011 48.375 -40.206 Q48.375 -35.4 51.797 -32.003 Q55.219 -28.605 60.024 -28.605 Z"/></g><g id="Bold-S" transform="matrix(1 0 0 1 2294.23 696)"><path d="M32.448 5.404 Q27.71 5.404 24.112 2.198 Q20.514 -1.007 19.922 -5.741 L11.934 -68.762 Q11.638 -71.56 13.483 -73.712 Q15.329 -75.863 18.232 -75.863 H76.448 Q79.351 -75.863 81.197 -73.712 Q83.042 -71.56 82.746 -68.762 L74.758 -5.741 Q74.166 -1.007 70.574 2.198 Q66.982 5.404 62.252 5.404 H32.448 Z M26.333 -56.434 H36.787 Q38.957 -58.407 41.635 -59.541 Q44.312 -60.675 47.36 -60.675 Q50.407 -60.675 53.065 -59.541 Q55.723 -58.407 57.893 -56.434 H68.321 L69.432 -63.239 H25.445 L26.333 -56.434 Z M47.361 -40.358 Q49.08 -40.358 50.38 -41.679 Q51.68 -43 51.68 -44.719 Q51.68 -46.438 50.359 -47.738 Q49.038 -49.037 47.319 -49.037 Q45.6 -49.037 44.3 -47.717 Q43.001 -46.396 43.001 -44.677 Q43.001 -42.958 44.321 -41.658 Q45.642 -40.358 47.361 -40.358 Z"/></g><g id="Semibold-S" transform="matrix(1 0 0 1 1998.1 696)"><path d="M31.89 4.76 Q27.624 4.76 24.412 1.898 Q21.2 -0.964 20.608 -5.227 L12.577 -68.848 Q12.324 -71.345 13.977 -73.283 Q15.629 -75.22 18.232 -75.22 H76.448 Q79.051 -75.22 80.703 -73.283 Q82.356 -71.345 82.103 -68.848 L74.072 -5.227 Q73.48 -0.964 70.274 1.898 Q67.068 4.76 62.81 4.76 H31.89 Z M25.733 -56.006 H36.573 Q38.742 -58.064 41.485 -59.262 Q44.227 -60.461 47.36 -60.461 Q50.492 -60.461 53.215 -59.262 Q55.938 -58.064 58.107 -56.006 H68.921 L70.118 -63.883 H24.716 L25.733 -56.006 Z M47.361 -39.715 Q49.38 -39.715 50.851 -41.208 Q52.323 -42.7 52.323 -44.719 Q52.323 -46.738 50.83 -48.209 Q49.338 -49.681 47.319 -49.681 Q45.3 -49.681 43.829 -48.188 Q42.357 -46.696 42.357 -44.677 Q42.357 -42.658 43.85 -41.187 Q45.342 -39.715 47.361 -39.715 Z"/></g><g id="Medium-S" transform="matrix(1 0 0 1 1701.85 696)"><path d="M31.472 4.278 Q27.56 4.278 24.637 1.673 Q21.715 -0.932 21.123 -4.841 L13.059 -68.913 Q12.838 -71.185 14.346 -72.961 Q15.854 -74.738 18.232 -74.738 H76.448 Q78.826 -74.738 80.334 -72.961 Q81.842 -71.185 81.621 -68.913 L73.557 -4.841 Q72.965 -0.932 70.049 1.673 Q67.132 4.278 63.228 4.278 H31.472 Z M25.282 -55.684 H36.412 Q38.582 -57.807 41.372 -59.053 Q44.162 -60.3 47.36 -60.3 Q50.557 -60.3 53.328 -59.053 Q56.098 -57.807 58.268 -55.684 H69.371 L70.633 -64.365 H24.17 L25.282 -55.684 Z M47.361 -39.233 Q49.605 -39.233 51.205 -40.854 Q52.805 -42.475 52.805 -44.719 Q52.805 -46.963 51.184 -48.563 Q49.563 -50.163 47.319 -50.163 Q45.075 -50.163 43.475 -48.542 Q41.875 -46.921 41.875 -44.677 Q41.875 -42.433 43.496 -40.833 Q45.117 -39.233 47.361 -39.233 Z"/></g><g id="Regular-S" transform="matrix(1 0 0 1 1405.73 696)"><path d="M31.166 3.924 Q27.513 3.924 24.802 1.508 Q22.092 -0.908 21.5 -4.558 L13.413 -68.96 Q13.216 -71.067 14.618 -72.725 Q16.02 -74.384 18.232 -74.384 H76.448 Q78.66 -74.384 80.062 -72.725 Q81.464 -71.067 81.267 -68.96 L73.18 -4.558 Q72.588 -0.908 69.884 1.508 Q67.179 3.924 63.534 3.924 H31.166 Z M24.952 -55.448 H36.294 Q38.464 -57.618 41.289 -58.9 Q44.115 -60.182 47.36 -60.182 Q50.604 -60.182 53.41 -58.9 Q56.216 -57.618 58.386 -55.448 H69.701 L71.01 -64.719 H23.769 L24.952 -55.448 Z M47.361 -38.879 Q49.77 -38.879 51.464 -40.595 Q53.159 -42.31 53.159 -44.719 Q53.159 -47.128 51.443 -48.822 Q49.728 -50.517 47.319 -50.517 Q44.91 -50.517 43.216 -48.801 Q41.521 -47.086 41.521 -44.677 Q41.521 -42.268 43.237 -40.574 Q44.952 -38.879 47.361 -38.879 Z"/></g><g id="Light-S" transform="matrix(1 0 0 1 1109.75 696)"><path d="M32.266 1.952 Q28.907 1.952 26.415 -0.272 Q23.922 -2.496 23.359 -5.847 L15.575 -67.404 Q15.378 -69.341 16.676 -70.876 Q17.973 -72.412 20.015 -72.412 H74.665 Q76.707 -72.412 78.004 -70.876 Q79.302 -69.341 79.105 -67.404 L71.321 -5.847 Q70.758 -2.496 68.271 -0.272 Q65.785 1.952 62.434 1.952 H32.266 Z M25.066 -54.462 H36.711 Q38.767 -56.632 41.497 -57.914 Q44.226 -59.196 47.36 -59.196 Q50.493 -59.196 53.203 -57.914 Q55.913 -56.632 57.969 -54.462 H69.588 L71.01 -64.719 H23.769 L25.066 -54.462 Z M47.368 -37.893 Q50.187 -37.893 52.166 -39.9 Q54.145 -41.908 54.145 -44.726 Q54.145 -47.545 52.138 -49.524 Q50.13 -51.503 47.312 -51.503 Q44.493 -51.503 42.514 -49.496 Q40.535 -47.488 40.535 -44.67 Q40.535 -41.851 42.542 -39.872 Q44.55 -37.893 47.368 -37.893 Z"/></g><g id="Thin-S" transform="matrix(1 0 0 1 814.015 696)"><path d="M33.366 -0.021 Q30.301 -0.021 28.027 -2.052 Q25.752 -4.084 25.218 -7.137 L17.737 -65.849 Q17.54 -67.615 18.733 -69.027 Q19.927 -70.439 21.798 -70.439 H72.882 Q74.753 -70.439 75.947 -69.027 Q77.14 -67.615 76.943 -65.849 L69.462 -7.137 Q68.928 -4.084 66.659 -2.052 Q64.391 -0.021 61.334 -0.021 H33.366 Z M25.18 -53.476 H37.128 Q39.071 -55.645 41.704 -56.927 Q44.337 -58.21 47.36 -58.21 Q50.383 -58.21 52.996 -56.927 Q55.609 -55.645 57.552 -53.476 H69.474 L71.01 -64.719 H23.769 L25.18 -53.476 Z M47.376 -36.907 Q50.604 -36.907 52.868 -39.206 Q55.131 -41.505 55.131 -44.734 Q55.131 -47.962 52.832 -50.226 Q50.533 -52.489 47.304 -52.489 Q44.076 -52.489 41.812 -50.19 Q39.549 -47.891 39.549 -44.662 Q39.549 -41.434 41.848 -39.17 Q44.147 -36.907 47.376 -36.907 Z"/></g><g id="Ultralight-S" transform="matrix(1 0 0 1 517.792 696)"><path d="M34.026 -1.204 Q31.137 -1.204 28.994 -3.121 Q26.851 -5.037 26.333 -7.911 L19.035 -64.916 Q18.837 -66.579 19.968 -67.917 Q21.099 -69.256 22.868 -69.256 H71.812 Q73.581 -69.256 74.712 -67.917 Q75.843 -66.579 75.645 -64.916 L68.347 -7.911 Q67.829 -5.037 65.692 -3.121 Q63.555 -1.204 60.674 -1.204 H34.026 Z M25.248 -52.884 H37.379 Q39.253 -55.054 41.828 -56.336 Q44.403 -57.618 47.36 -57.618 Q50.316 -57.618 52.872 -56.336 Q55.427 -55.054 57.301 -52.884 H69.406 L71.01 -64.719 H23.769 L25.248 -52.884 Z M47.38 -36.315 Q50.855 -36.315 53.289 -38.789 Q55.723 -41.264 55.723 -44.738 Q55.723 -48.213 53.249 -50.647 Q50.774 -53.081 47.3 -53.081 Q43.825 -53.081 41.391 -50.607 Q38.957 -48.132 38.957 -44.658 Q38.957 -41.183 41.431 -38.749 Q43.906 -36.315 47.38 -36.315 Z"/></g></g></svg>