<svg xmlns="http://www.w3.org/2000/svg" height="48" viewBox="0 -960 960 960" width="48"><path d="M147.647-462q-53.564 0-91.105-37.895Q19-537.789 19-591.353t37.792-91.105Q94.583-720 148-720t90.708 37.895Q276-644.211 276-590.647t-37.603 91.105Q200.794-462 147.647-462ZM105-180q-19.6 0-32.3-13.425Q60-206.851 60-226.171t13.375-31.825Q86.75-270.5 106-270.5h749.5q18.9 0 32.2 13.463 13.3 13.463 13.3 32.458 0 19.57-13.975 32.075Q873.05-180 854.5-180H105Zm374-283q-53.417 0-90.708-37.299Q351-537.598 351-590.882 351-645 388.603-683q37.603-38 90.75-38 53.564 0 91.105 38.118Q608-644.765 608-590.647q0 53.284-37.792 90.466Q532.417-463 479-463Zm333.647 0q-53.564 0-91.105-37.299Q684-537.598 684-590.882 684-645 721.792-683q37.791-38 91.208-38t90.708 38.118Q941-644.765 941-590.647q0 53.284-37.603 90.466Q865.794-463 812.647-463Z"/></svg>