<svg xmlns="http://www.w3.org/2000/svg" version="1.1" width="3300" height="2000"><g id="Notes"><style>
    text {
      font-family: monospace;
      text-anchor: middle;
    }
    text.emphasis {
      font-weight:bold;
    }
    text.lanchor {
      text-anchor: start;
    }
  </style><rect height="2200" id="artboard" fill="white" width="3300" x="0" y="0"/><line id="" style="fill:none;stroke:black;stroke-width:0.5;" x1="263" x2="3036" y1="292" y2="292"/><text class="lanchor emphasis" transform="matrix(1 0 0 1 263 322)">Weight/Scale Variations</text><text transform="matrix(1 0 0 1 559.711 322)">Ultralight</text><text transform="matrix(1 0 0 1 856.422 322)">Thin</text><text transform="matrix(1 0 0 1 1153.13 322)">Light</text><text transform="matrix(1 0 0 1 1449.84 322)">Regular</text><text transform="matrix(1 0 0 1 1746.56 322)">Medium</text><text transform="matrix(1 0 0 1 2043.27 322)">Semibold</text><text transform="matrix(1 0 0 1 2339.98 322)">Bold</text><text transform="matrix(1 0 0 1 2636.69 322)">Heavy</text><text transform="matrix(1 0 0 1 2933.4 322)">Black</text><text id="template-version" style="text-anchor: end;" transform="matrix(1 0 0 1 3036 1933)">Template v.1.0</text><text class="lanchor" transform="matrix(1 0 0 1 263 726)">Small</text><text class="lanchor" transform="matrix(1 0 0 1 263 1156)">Medium</text><text class="lanchor" transform="matrix(1 0 0 1 263 1586)">Large</text></g><g id="Guides"><g id="H-reference" style="fill:#27AAE1;stroke:none;" transform="matrix(1 0 0 1 339 696)"><path d="M 54.9316 0 L 57.666 0 L 30.5664 -70.459 L 28.0762 -70.459 L 0.976562 0 L 3.66211 0 L 12.9395 -24.4629 L 45.7031 -24.4629 Z M 29.1992 -67.0898 L 29.4434 -67.0898 L 44.8242 -26.709 L 13.8184 -26.709 Z"/></g><line id="Baseline-S" style="fill:none;stroke:#27AAE1;opacity:1;stroke-width:0.577;" x1="263" x2="3036" y1="696" y2="696"/><line id="Capline-S" style="fill:none;stroke:#27AAE1;opacity:1;stroke-width:0.577;" x1="263" x2="3036" y1="625.541" y2="625.541"/><g id="H-reference" style="fill:#27AAE1;stroke:none;" transform="matrix(1 0 0 1 339 1126)"><path d="M 54.9316 0 L 57.666 0 L 30.5664 -70.459 L 28.0762 -70.459 L 0.976562 0 L 3.66211 0 L 12.9395 -24.4629 L 45.7031 -24.4629 Z M 29.1992 -67.0898 L 29.4434 -67.0898 L 44.8242 -26.709 L 13.8184 -26.709 Z"/></g><line id="Baseline-M" style="fill:none;stroke:#27AAE1;opacity:1;stroke-width:0.577;" x1="263" x2="3036" y1="1126" y2="1126"/><line id="Capline-M" style="fill:none;stroke:#27AAE1;opacity:1;stroke-width:0.577;" x1="263" x2="3036" y1="1055.54" y2="1055.54"/><g id="H-reference" style="fill:#27AAE1;stroke:none;" transform="matrix(1 0 0 1 339 1556)"><path d="M 54.9316 0 L 57.666 0 L 30.5664 -70.459 L 28.0762 -70.459 L 0.976562 0 L 3.66211 0 L 12.9395 -24.4629 L 45.7031 -24.4629 Z M 29.1992 -67.0898 L 29.4434 -67.0898 L 44.8242 -26.709 L 13.8184 -26.709 Z"/></g><line id="Baseline-L" style="fill:none;stroke:#27AAE1;opacity:1;stroke-width:0.577;" x1="263" x2="3036" y1="1556" y2="1556"/><line id="Capline-L" style="fill:none;stroke:#27AAE1;opacity:1;stroke-width:0.577;" x1="263" x2="3036" y1="1485.54" y2="1485.54"/><rect height="119.336" id="left-margin" style="fill:darkred;stroke:none;opacity:0.4;" width="12.4512" x="1394.06" y="1030.79"/><rect height="119.336" id="right-margin" style="fill:darkgreen;stroke:none;opacity:0.4;" width="12.4512" x="1502.5112" y="1030.79"/><rect x="1406.5112" y="1045" width="96" height="96" fill="none" stroke="blue" stroke-dasharray="5"/><rect x="1394.06" y="1030.79" width="120.9024" height="119.336" fill="none" stroke="blue"/></g><g id="Symbols"><g id="Bold-L" transform="matrix(1 0 0 1 2266 1556)"><path d="M34.669 -24.749 Q26.606 -35.069 21.849 -47.001 Q17.093 -58.934 17.093 -71.995 Q17.093 -75.865 17.415 -79.816 Q17.738 -83.766 18.544 -87.636 L9.998 -79.251 L2.419 -86.991 L25.8 -110.211 L49.02 -86.991 L41.602 -79.251 L30.154 -90.539 Q29.348 -86.024 28.622 -81.347 Q27.896 -76.671 27.896 -71.995 Q27.896 -61.191 31.847 -51.113 Q35.797 -41.035 42.409 -32.489 L34.669 -24.749 Z M92.558 28.464  39.023 2.341  41.764 -11.204  67.241 -11.849  46.601 -68.77  58.856 -73.446  77.239 -22.33  87.236 -26.039  76.11 -56.999  88.204 -61.352  99.33 -30.392  109.328 -33.94  100.459 -58.934  112.391 -63.449  121.583 -38.294  131.741 -42.002  126.904 -54.741  138.998 -59.417  161.572 3.148  92.558 28.464 Z"/></g><g id="Semibold-L" transform="matrix(1 0 0 1 1970.27 1556)"><path d="M35.44 -25.45 Q27.588 -35.559 23.181 -47.352 Q18.775 -59.144 18.775 -71.925 Q18.775 -76.356 19.238 -80.832 Q19.7 -85.309 20.717 -89.739 L10.698 -79.882 L4.452 -86.22 L26.501 -108.178 L48.459 -86.22 L42.304 -79.882 L30.364 -91.66 Q29.348 -86.865 28.517 -81.908 Q27.686 -76.952 27.686 -71.925 Q27.686 -60.981 31.426 -50.763 Q35.167 -40.544 41.848 -31.858 L35.44 -25.45 Z M94.661 26.641  42.738 1.851  45.549 -10.573  69.835 -11.708  49.265 -68.209  60.188 -72.395  78.22 -22.4  88.288 -26.109  77.722 -55.456  88.484 -59.319  99.05 -29.972  109.047 -33.589  100.739 -56.901  111.41 -60.925  119.97 -37.453  130.129 -41.161  125.922 -52.288  136.754 -56.473  158.278 3.288  94.661 26.641 Z"/></g><g id="Medium-L" transform="matrix(1 0 0 1 1674.31 1556)"><path d="M36.018 -25.976 Q28.324 -35.928 24.18 -47.615 Q20.037 -59.302 20.037 -71.872 Q20.037 -76.724 20.605 -81.595 Q21.173 -86.465 22.347 -91.317 L11.224 -80.355 L5.977 -85.642 L27.027 -106.653 L48.038 -85.642 L42.829 -80.355 L30.522 -92.502 Q29.348 -87.496 28.438 -82.329 Q27.528 -77.162 27.528 -71.872 Q27.528 -60.823 31.111 -50.5 Q34.693 -40.176 41.427 -31.385 L36.018 -25.976 Z M96.238 25.274  45.525 1.482  48.389 -10.1  71.781 -11.603  51.263 -67.788  61.187 -71.606  78.956 -22.453  89.077 -26.161  78.932 -54.3  88.694 -57.795  98.839 -29.656  108.837 -33.327  100.949 -55.376  110.674 -59.032  118.761 -36.822  128.919 -40.53  125.186 -50.447  135.071 -54.265  155.806 3.393  96.238 25.274 Z"/></g><g id="Regular-L" transform="matrix(1 0 0 1 1378.56 1556)"><path d="M36.443 -26.361 Q28.864 -36.197 24.913 -47.807 Q20.963 -59.417 20.963 -71.834 Q20.963 -76.994 21.608 -82.154 Q22.253 -87.314 23.543 -92.474 L11.61 -80.702 L7.095 -85.217 L27.413 -105.535 L47.73 -85.217 L43.215 -80.702 L30.637 -93.119 Q29.348 -87.959 28.38 -82.637 Q27.413 -77.316 27.413 -71.834 Q27.413 -60.707 30.879 -50.307 Q34.346 -39.906 41.119 -31.037 L36.443 -26.361 Z M97.395 24.271  47.569 1.213  50.471 -9.752  73.207 -11.526  52.729 -67.48  61.92 -71.027  79.496 -22.491  89.655 -26.2  79.819 -53.451  88.849 -56.676  98.685 -29.425  108.683 -33.134  101.104 -54.257  110.134 -57.644  117.874 -36.359  128.032 -40.067  124.646 -49.097  133.838 -52.645  153.994 3.47  97.395 24.271 Z"/></g><g id="Light-L" transform="matrix(1 0 0 1 1082.77 1556)"><path d="M38.365 -25.555 Q31.097 -35.143 27.239 -46.412 Q23.381 -57.681 23.381 -69.787 Q23.381 -75.443 24.119 -81.037 Q24.857 -86.632 26.271 -92.164 L13.781 -79.772 L10.072 -83.543 L29.583 -103.054 L49.094 -83.543 L45.386 -79.772 L32.126 -92.933 Q30.588 -87.339 29.651 -81.552 Q28.715 -75.766 28.715 -69.787 Q28.715 -58.785 32.182 -48.508 Q35.649 -38.232 42.235 -29.363 L38.365 -25.555 Z M97.829 20.798  49.429 -1.579  51.96 -10.249  75.688 -12.395  55.644 -67.17  62.602 -69.911  79.93 -22.057  91.454 -26.2  81.617 -53.513  88.477 -55.994  98.375 -28.681  109.799 -32.948  102.22 -54.071  109.079 -56.589  116.819 -35.428  128.343 -39.571  124.956 -48.601  131.915 -51.281  150.893 1.361  97.829 20.798 Z"/></g><g id="Thin-L" transform="matrix(1 0 0 1 787.282 1556)"><path d="M40.288 -24.749 Q33.329 -34.089 29.565 -45.017 Q25.8 -55.944 25.8 -67.741 Q25.8 -73.893 26.631 -79.921 Q27.462 -85.949 29 -91.854 L15.951 -78.842 L13.049 -81.868 L31.754 -100.573 L50.459 -81.868 L47.556 -78.842 L33.614 -92.747 Q31.828 -86.718 30.923 -80.467 Q30.017 -74.215 30.017 -67.741 Q30.017 -56.862 33.484 -46.71 Q36.951 -36.557 43.351 -27.688 L40.288 -24.749 Z M98.263 17.325  51.29 -4.369  53.448 -10.745  78.169 -13.263  58.559 -66.86  63.284 -68.795  80.365 -21.623  93.252 -26.2  83.416 -53.575  88.105 -55.312  98.065 -27.937  110.915 -32.762  103.336 -53.885  108.025 -55.535  115.765 -34.498  128.653 -39.075  125.266 -48.105  129.992 -49.916  147.792 -0.747  98.263 17.325 Z"/></g><g id="Ultralight-L" transform="matrix(1 0 0 1 491.205 1556)"><path d="M41.441 -24.265 Q34.669 -33.456 30.96 -44.179 Q27.251 -54.902 27.251 -66.512 Q27.251 -72.962 28.138 -79.251 Q29.025 -85.54 30.637 -91.667 L17.254 -78.284 L14.835 -80.864 L33.056 -99.085 L51.278 -80.864 L48.859 -78.284 L34.508 -92.635 Q32.572 -86.346 31.686 -79.816 Q30.799 -73.285 30.799 -66.512 Q30.799 -55.709 34.266 -45.631 Q37.733 -35.552 44.021 -26.684 L41.441 -24.265 Z M98.524 15.241  52.406 -6.044  54.341 -11.042  79.657 -13.784  60.308 -66.674  63.694 -68.125  80.625 -21.362  94.331 -26.2  84.495 -53.612  87.881 -54.902  97.879 -27.49  111.585 -32.65  104.006 -53.774  107.392 -54.902  115.133 -33.94  128.839 -38.777  125.453 -47.807  128.839 -49.097  145.931 -2.012  98.524 15.241 Z"/></g><g id="Bold-M" transform="matrix(1 0 0 1 2281.8 1126)"><path d="M28.75 -23.605 Q21.875 -32.105 17.688 -41.98 Q13.5 -51.855 13.5 -62.855 Q13.5 -64.98 13.5 -67.042 Q13.5 -69.105 13.75 -71.23 L8.5 -65.98 L0.125 -74.48 L20.75 -95.105 L41.375 -74.48 L33 -65.98 L26.125 -72.855 Q25.75 -70.355 25.625 -67.855 Q25.5 -65.355 25.5 -62.855 Q25.5 -54.355 28.75 -46.605 Q32 -38.855 37.25 -32.105 L28.75 -23.605 Z M71.375 15.395  29.125 -5.605  33.75 -18.73 H51.125 L35.125 -62.73 L47.625 -67.355 L62.25 -27.105 L66.875 -28.73 L58.625 -51.355 L71.125 -55.98 L79.375 -33.355 L84 -34.98 L77.5 -52.855 L90 -57.605 L96.5 -39.48 L101.25 -41.23 L98.125 -49.73 L110.5 -54.355 L128.5 -5.48 L71.375 15.395 Z"/></g><g id="Semibold-M" transform="matrix(1 0 0 1 1985.97 1126)"><path d="M29.565 -24.311 Q22.907 -32.594 19.073 -42.36 Q15.239 -52.127 15.239 -62.801 Q15.239 -65.469 15.402 -68.102 Q15.565 -70.735 16.032 -73.404 L9.261 -66.632 L2.244 -73.719 L21.511 -92.986 L40.777 -73.719 L33.761 -66.632 L26.342 -73.996 Q25.75 -71.224 25.516 -68.426 Q25.283 -65.627 25.283 -62.801 Q25.283 -54.192 28.342 -46.252 Q31.402 -38.311 36.706 -31.453 L29.565 -24.311 Z M73.549 13.493  32.983 -6.148  37.663 -18.078  53.788 -18.567  37.897 -62.132  49.038 -66.268  63.282 -27.159  67.962 -28.839  60.31 -49.779  71.451 -53.915  79.103 -32.92  83.728 -34.6  77.826 -50.79  88.968 -54.996  94.87 -38.61  99.62 -40.36  97.093 -47.176  108.163 -51.312  125.131 -5.317  73.549 13.493 Z"/></g><g id="Medium-M" transform="matrix(1 0 0 1 1689.91 1126)"><path d="M30.177 -24.841 Q23.682 -32.961 20.113 -42.646 Q16.544 -52.33 16.544 -62.76 Q16.544 -65.836 16.829 -68.897 Q17.114 -71.958 17.744 -75.034 L9.832 -67.121 L3.834 -73.148 L22.081 -91.396 L40.329 -73.148 L34.331 -67.121 L26.505 -74.852 Q25.75 -71.877 25.435 -68.854 Q25.12 -65.83 25.12 -62.76 Q25.12 -54.07 28.037 -45.987 Q30.954 -37.904 36.299 -30.964 L30.177 -24.841 Z M75.179 12.066  35.878 -6.556  40.598 -17.589  55.785 -18.445  39.975 -61.684  50.098 -65.453  64.057 -27.2  68.777 -28.92  61.573 -48.597  71.696 -52.366  78.9 -32.594  83.525 -34.314  78.071 -49.241  88.193 -53.04  93.647 -37.958  98.397 -39.708  96.318 -45.26  106.41 -49.029  122.603 -5.195  75.179 12.066 Z"/></g><g id="Regular-M" transform="matrix(1 0 0 1 1394.06 1126)"><path d="M30.625 -25.23 Q24.25 -33.23 20.875 -42.855 Q17.5 -52.48 17.5 -62.73 Q17.5 -66.105 17.875 -69.48 Q18.25 -72.855 19 -76.23 L10.25 -67.48 L5 -72.73 L22.5 -90.23 L40 -72.73 L34.75 -67.48 L26.625 -75.48 Q25.75 -72.355 25.375 -69.167 Q25 -65.98 25 -62.73 Q25 -53.98 27.812 -45.792 Q30.625 -37.605 36 -30.605 L30.625 -25.23 Z M76.375 11.02  38 -6.855  42.75 -17.23  57.25 -18.355  41.5 -61.355  50.875 -64.855  64.625 -27.23  69.375 -28.98  62.5 -47.73  71.875 -51.23  78.75 -32.355  83.375 -34.105  78.25 -48.105  87.625 -51.605  92.75 -37.48  97.5 -39.23  95.75 -43.855  105.125 -47.355  120.75 -5.105  76.375 11.02 Z"/></g><g id="Light-M" transform="matrix(1 0 0 1 1098.18 1126)"><path d="M31.491 -25.422 Q25.452 -33.182 22.245 -42.374 Q19.039 -51.566 19.039 -61.384 Q19.039 -65.288 19.51 -69.167 Q19.981 -73.047 20.923 -76.903 L11.596 -67.576 L7.452 -71.768 L23.846 -88.162 L40.24 -71.768 L36.096 -67.576 L27.01 -76.586 Q25.942 -72.884 25.471 -69.071 Q25 -65.259 25 -61.384 Q25 -52.778 27.788 -44.711 Q30.577 -36.643 35.76 -29.691 L31.491 -25.422 Z M76.471 8.279  39.154 -9.067  42.942 -17.134  59.029 -18.643  43.568 -60.826  50.635 -63.461  64.144 -26.364  70.817 -28.788  63.702 -48.211  70.769 -50.845  77.885 -31.345  84.481 -33.816  79.163 -48.442  86.183 -51.076  91.548 -36.374  98.221 -38.797  96.231 -44.047  103.25 -46.682  117.961 -6.788  76.471 8.279 Z"/></g><g id="Thin-M" transform="matrix(1 0 0 1 802.565 1126)"><path d="M32.356 -25.615 Q26.654 -33.134 23.615 -41.893 Q20.577 -50.653 20.577 -60.038 Q20.577 -64.47 21.144 -68.855 Q21.712 -73.24 22.846 -77.576 L12.942 -67.672 L9.904 -70.807 L25.192 -86.095 L40.481 -70.807 L37.442 -67.672 L27.394 -77.691 Q26.135 -73.413 25.567 -68.975 Q25 -64.538 25 -60.038 Q25 -51.576 27.764 -43.629 Q30.529 -35.682 35.519 -28.778 L32.356 -25.615 Z M76.567 5.539  40.308 -11.278  43.135 -17.038  60.808 -18.932  45.635 -60.297  50.394 -62.066  63.663 -25.499  72.26 -28.595  64.904 -48.691  69.663 -50.461  77.019 -30.336  85.587 -33.528  80.077 -48.778  84.74 -50.547  90.346 -35.268  98.942 -38.365  96.712 -44.24  101.375 -46.009  115.173 -8.47  76.567 5.539 Z"/></g><g id="Ultralight-M" transform="matrix(1 0 0 1 506.415 1126)"><path d="M32.875 -25.73 Q27.375 -33.105 24.438 -41.605 Q21.5 -50.105 21.5 -59.23 Q21.5 -63.98 22.125 -68.667 Q22.75 -73.355 24 -77.98 L13.75 -67.73 L11.375 -70.23 L26 -84.855 L40.625 -70.23 L38.25 -67.73 L27.625 -78.355 Q26.25 -73.73 25.625 -68.917 Q25 -64.105 25 -59.23 Q25 -50.855 27.75 -42.98 Q30.5 -35.105 35.375 -28.23 L32.875 -25.73 Z M76.625 3.895  41 -12.605  43.25 -16.98  61.875 -19.105  46.875 -59.98  50.25 -61.23  63.375 -24.98  73.125 -28.48  65.625 -48.98  69 -50.23  76.5 -29.73  86.25 -33.355  80.625 -48.98  83.875 -50.23  89.625 -34.605  99.375 -38.105  97 -44.355  100.25 -45.605  113.5 -9.48  76.625 3.895 Z"/></g><g id="Bold-S" transform="matrix(1 0 0 1 2294.23 696)"><path d="M23.571 -26.847 Q17.851 -33.159 14.449 -40.654 Q11.046 -48.15 11.046 -56.632 Q11.046 -58.801 11.194 -60.922 Q11.342 -63.042 11.934 -65.113 L6.707 -59.886 L0.888 -65.804 L16.766 -81.682 L32.546 -65.902 L26.727 -59.985 L20.415 -66.395 Q19.824 -64.028 19.577 -61.563 Q19.331 -59.097 19.331 -56.632 Q19.331 -49.826 22.092 -43.761 Q24.854 -37.696 29.39 -32.666 L23.571 -26.847 Z M55.329 2.248  22.98 -13.927  26.431 -23.592  40.436 -23.888  28.108 -58.111  37.28 -61.464  47.636 -32.666  51.975 -34.244  46.058 -50.517  55.23 -53.87  61.148 -37.597  65.586 -39.175  61.345 -51.109  70.418 -54.462  74.758 -42.43  79.196 -44.106  76.533 -51.602  85.508 -54.856  100.4 -14.026  55.329 2.248 Z"/></g><g id="Semibold-S" transform="matrix(1 0 0 1 1998.1 696)"><path d="M24.215 -27.404 Q18.666 -33.545 15.542 -40.954 Q12.418 -48.364 12.418 -56.589 Q12.418 -59.187 12.695 -61.758 Q12.971 -64.329 13.735 -66.828 L7.307 -60.401 L2.56 -65.203 L17.367 -80.01 L32.075 -65.302 L27.328 -60.499 L20.587 -67.296 Q19.824 -64.715 19.491 -62.013 Q19.159 -59.312 19.159 -56.589 Q19.159 -49.698 21.77 -43.482 Q24.382 -37.267 28.961 -32.151 L24.215 -27.404 Z M57.044 0.747  26.024 -14.356  29.519 -23.078  42.537 -23.76  30.295 -57.639  38.395 -60.607  48.451 -32.709  52.833 -34.33  47.387 -49.273  55.487 -52.241  60.933 -37.254  65.371 -38.875  61.602 -49.479  69.604 -52.404  73.471 -41.744  77.91 -43.42  75.718 -49.587  83.664 -52.455  97.742 -13.897  57.044 0.747 Z"/></g><g id="Medium-S" transform="matrix(1 0 0 1 1701.85 696)"><path d="M24.697 -27.822 Q19.277 -33.834 16.362 -41.18 Q13.447 -48.525 13.447 -56.557 Q13.447 -59.477 13.82 -62.385 Q14.193 -65.293 15.085 -68.115 L7.757 -60.787 L3.814 -64.753 L17.817 -78.756 L31.721 -64.852 L27.778 -60.885 L20.715 -67.971 Q19.824 -65.229 19.427 -62.351 Q19.03 -59.472 19.03 -56.557 Q19.03 -49.601 21.529 -43.273 Q24.028 -36.945 28.64 -31.765 L24.697 -27.822 Z M58.33 -0.379  28.307 -14.677  31.834 -22.692  44.113 -23.663  31.935 -57.286  39.231 -59.963  49.062 -32.741  53.476 -34.394  48.384 -48.341  55.68 -51.019  60.772 -36.997  65.21 -38.65  61.795 -48.257  68.993 -50.86  72.507 -41.229  76.945 -42.906  75.107 -48.075  82.281 -50.654  95.748 -13.8  58.33 -0.379 Z"/></g><g id="Regular-S" transform="matrix(1 0 0 1 1405.73 696)"><path d="M25.051 -28.129 Q19.725 -34.046 16.963 -41.345 Q14.202 -48.643 14.202 -56.533 Q14.202 -59.689 14.646 -62.845 Q15.09 -66.001 16.076 -69.058 L8.087 -61.07 L4.734 -64.423 L18.147 -77.836 L31.461 -64.522 L28.108 -61.168 L20.81 -68.467 Q19.824 -65.606 19.38 -62.598 Q18.936 -59.59 18.936 -56.533 Q18.936 -49.531 21.352 -43.12 Q23.769 -36.709 28.404 -31.482 L25.051 -28.129 Z M59.274 -1.204  29.982 -14.913  33.532 -22.409  45.269 -23.592  33.138 -57.026  39.845 -59.492  49.51 -32.764  53.948 -34.441  49.115 -47.657  55.822 -50.122  60.654 -36.808  65.093 -38.485  61.937 -47.361  68.544 -49.728  71.799 -40.852  76.237 -42.528  74.659 -46.966  81.267 -49.333  94.285 -13.73  59.274 -1.204 Z"/></g><g id="Light-S" transform="matrix(1 0 0 1 1109.75 696)"><path d="M25.734 -28.281 Q20.673 -34.009 18.045 -40.965 Q15.416 -47.922 15.416 -55.471 Q15.416 -59.044 15.936 -62.598 Q16.455 -66.153 17.593 -69.589 L9.149 -61.146 L6.669 -63.664 L19.209 -76.205 L31.651 -63.763 L29.17 -61.244 L21.113 -69.339 Q19.975 -66.024 19.456 -62.523 Q18.936 -59.021 18.936 -55.471 Q18.936 -48.582 21.333 -42.266 Q23.731 -35.951 28.214 -30.761 L25.734 -28.281 Z M59.349 -3.367  30.892 -16.658  33.684 -22.333  46.673 -23.82  34.769 -56.609  39.655 -58.392  49.13 -32.081  55.086 -34.289  50.064 -48.036  54.949 -49.819  59.971 -36.011  65.965 -38.257  62.657 -47.626  67.406 -49.311  70.851 -39.979  76.806 -42.187  75.038 -47.118  79.788 -48.802  92.085 -15.058  59.349 -3.367 Z"/></g><g id="Thin-S" transform="matrix(1 0 0 1 814.015 696)"><path d="M26.416 -28.432 Q21.622 -33.971 19.126 -40.586 Q16.63 -47.202 16.63 -54.409 Q16.63 -58.399 17.225 -62.352 Q17.821 -66.304 19.11 -70.12 L10.211 -61.221 L8.603 -62.906 L20.271 -74.574 L31.841 -63.004 L30.232 -61.32 L21.417 -70.211 Q20.127 -66.441 19.531 -62.447 Q18.936 -58.452 18.936 -54.409 Q18.936 -47.634 21.314 -41.413 Q23.693 -35.192 28.025 -30.041 L26.416 -28.432 Z M59.425 -5.529  31.803 -18.403  33.836 -22.257  48.076 -24.047  36.4 -56.192  39.465 -57.292  48.751 -31.399  56.224 -34.138  51.012 -48.415  54.077 -49.515  59.289 -35.215  66.837 -38.029  63.378 -47.892  66.268 -48.893  69.902 -39.107  77.375 -41.845  75.418 -47.27  78.308 -48.271  89.885 -16.385  59.425 -5.529 Z"/></g><g id="Ultralight-S" transform="matrix(1 0 0 1 517.792 696)"><path d="M26.826 -28.523 Q22.191 -33.948 19.774 -40.358 Q17.358 -46.769 17.358 -53.771 Q17.358 -58.012 17.999 -62.204 Q18.64 -66.395 20.021 -70.439 L10.849 -61.267 L9.764 -62.45 L20.909 -73.595 L31.955 -62.549 L30.87 -61.366 L21.599 -70.735 Q20.218 -66.691 19.577 -62.401 Q18.936 -58.111 18.936 -53.771 Q18.936 -47.065 21.303 -40.901 Q23.67 -34.737 27.911 -29.608 L26.826 -28.523 Z M59.471 -6.826  32.349 -19.45  33.927 -22.211  48.918 -24.184  37.379 -55.941  39.351 -56.632  48.524 -30.989  56.907 -34.046  51.581 -48.643  53.553 -49.333  58.879 -34.737  67.361 -37.893  63.81 -48.051  65.586 -48.643  69.333 -38.583  77.716 -41.641  75.645 -47.361  77.421 -47.953  88.565 -17.182  59.471 -6.826 Z"/></g></g></svg>