<svg xmlns="http://www.w3.org/2000/svg" version="1.1" width="3300" height="2000"><g id="Notes"><style>
    text {
      font-family: monospace;
      text-anchor: middle;
    }
    text.emphasis {
      font-weight:bold;
    }
    text.lanchor {
      text-anchor: start;
    }
  </style><rect height="2200" id="artboard" fill="white" width="3300" x="0" y="0"/><line id="" style="fill:none;stroke:black;stroke-width:0.5;" x1="263" x2="3036" y1="292" y2="292"/><text class="lanchor emphasis" transform="matrix(1 0 0 1 263 322)">Weight/Scale Variations</text><text transform="matrix(1 0 0 1 559.711 322)">Ultralight</text><text transform="matrix(1 0 0 1 856.422 322)">Thin</text><text transform="matrix(1 0 0 1 1153.13 322)">Light</text><text transform="matrix(1 0 0 1 1449.84 322)">Regular</text><text transform="matrix(1 0 0 1 1746.56 322)">Medium</text><text transform="matrix(1 0 0 1 2043.27 322)">Semibold</text><text transform="matrix(1 0 0 1 2339.98 322)">Bold</text><text transform="matrix(1 0 0 1 2636.69 322)">Heavy</text><text transform="matrix(1 0 0 1 2933.4 322)">Black</text><text id="template-version" style="text-anchor: end;" transform="matrix(1 0 0 1 3036 1933)">Template v.1.0</text><text class="lanchor" transform="matrix(1 0 0 1 263 726)">Small</text><text class="lanchor" transform="matrix(1 0 0 1 263 1156)">Medium</text><text class="lanchor" transform="matrix(1 0 0 1 263 1586)">Large</text></g><g id="Guides"><g id="H-reference" style="fill:#27AAE1;stroke:none;" transform="matrix(1 0 0 1 339 696)"><path d="M 54.9316 0 L 57.666 0 L 30.5664 -70.459 L 28.0762 -70.459 L 0.976562 0 L 3.66211 0 L 12.9395 -24.4629 L 45.7031 -24.4629 Z M 29.1992 -67.0898 L 29.4434 -67.0898 L 44.8242 -26.709 L 13.8184 -26.709 Z"/></g><line id="Baseline-S" style="fill:none;stroke:#27AAE1;opacity:1;stroke-width:0.577;" x1="263" x2="3036" y1="696" y2="696"/><line id="Capline-S" style="fill:none;stroke:#27AAE1;opacity:1;stroke-width:0.577;" x1="263" x2="3036" y1="625.541" y2="625.541"/><g id="H-reference" style="fill:#27AAE1;stroke:none;" transform="matrix(1 0 0 1 339 1126)"><path d="M 54.9316 0 L 57.666 0 L 30.5664 -70.459 L 28.0762 -70.459 L 0.976562 0 L 3.66211 0 L 12.9395 -24.4629 L 45.7031 -24.4629 Z M 29.1992 -67.0898 L 29.4434 -67.0898 L 44.8242 -26.709 L 13.8184 -26.709 Z"/></g><line id="Baseline-M" style="fill:none;stroke:#27AAE1;opacity:1;stroke-width:0.577;" x1="263" x2="3036" y1="1126" y2="1126"/><line id="Capline-M" style="fill:none;stroke:#27AAE1;opacity:1;stroke-width:0.577;" x1="263" x2="3036" y1="1055.54" y2="1055.54"/><g id="H-reference" style="fill:#27AAE1;stroke:none;" transform="matrix(1 0 0 1 339 1556)"><path d="M 54.9316 0 L 57.666 0 L 30.5664 -70.459 L 28.0762 -70.459 L 0.976562 0 L 3.66211 0 L 12.9395 -24.4629 L 45.7031 -24.4629 Z M 29.1992 -67.0898 L 29.4434 -67.0898 L 44.8242 -26.709 L 13.8184 -26.709 Z"/></g><line id="Baseline-L" style="fill:none;stroke:#27AAE1;opacity:1;stroke-width:0.577;" x1="263" x2="3036" y1="1556" y2="1556"/><line id="Capline-L" style="fill:none;stroke:#27AAE1;opacity:1;stroke-width:0.577;" x1="263" x2="3036" y1="1485.54" y2="1485.54"/><rect height="119.336" id="left-margin" style="fill:darkred;stroke:none;opacity:0.4;" width="12.4512" x="1394.06" y="1030.79"/><rect height="119.336" id="right-margin" style="fill:darkgreen;stroke:none;opacity:0.4;" width="12.4512" x="1502.5112" y="1030.79"/><rect x="1406.5112" y="1045" width="96" height="96" fill="none" stroke="blue" stroke-dasharray="5"/><rect x="1394.06" y="1030.79" width="120.9024" height="119.336" fill="none" stroke="blue"/></g><g id="Symbols"><g id="Bold-L" transform="matrix(1 0 0 1 2266 1556)"><path d="M135.45 36.365  98.604 -0.319  79.657 19.676 H24.671 L1.451 -4.028 L46.843 -52.081 L5.805 -93.28 L13.545 -101.101 L143.19 28.544 L135.45 36.365 Z M30.96 4.921 H73.853 L88.284 -10.639 L57.163 -41.922 L22.414 -4.028 L30.96 4.921 Z M113.843 -16.364  103.523 -26.684  124.566 -49.742  93.847 -82.073  72.321 -57.886  62.081 -68.286  93.847 -102.068  144.803 -48.856  113.843 -16.364 Z"/></g><g id="Semibold-L" transform="matrix(1 0 0 1 1970.27 1556)"><path d="M133.417 34.192  98.044 -1.09  80.148 17.923 H26.634 L5.237 -4.028 L48.666 -50.468 L7.978 -91.247 L15.227 -98.577 L140.666 26.862 L133.417 34.192 Z M32.012 5.552 H75.325 L89.406 -9.728 L57.233 -41.992 L22.694 -4.098 L32.012 5.552 Z M112.23 -16.153  103.593 -24.791  126.529 -49.883  94.759 -83.265  71.339 -57.044  62.782 -65.692  94.619 -99.895  143.26 -48.996  112.23 -16.153 Z"/></g><g id="Medium-L" transform="matrix(1 0 0 1 1674.31 1556)"><path d="M131.892 32.562  97.623 -1.669  80.516 16.608 H28.107 L8.077 -4.028 L50.033 -49.259 L9.608 -89.722 L16.49 -96.684 L138.773 25.6 L131.892 32.562 Z M32.8 6.025 H76.429 L90.247 -9.044 L57.286 -42.045 L22.904 -4.151 L32.8 6.025 Z M111.021 -15.996  103.645 -23.371  128.001 -49.988  95.442 -84.159  70.603 -56.413  63.308 -63.747  95.197 -98.265  142.103 -49.101  111.021 -15.996 Z"/></g><g id="Regular-L" transform="matrix(1 0 0 1 1378.56 1556)"><path d="M130.774 31.366  97.314 -2.093  80.786 15.644 H29.186 L10.159 -4.028 L51.036 -48.372 L10.804 -88.604 L17.415 -95.296 L137.385 24.674 L130.774 31.366 Z M33.379 6.373 H77.239 L90.864 -8.543 L57.324 -42.083 L23.059 -4.189 L33.379 6.373 Z M110.134 -15.88  103.684 -22.33  129.081 -50.065  95.944 -84.814  70.063 -55.951  63.694 -62.32  95.621 -97.069  141.255 -49.178  110.134 -15.88 Z"/></g><g id="Light-L" transform="matrix(1 0 0 1 1082.77 1556)"><path d="M130.185 27.583  96.229 -6.373  78.305 12.698 H28.938 L12.019 -4.679 L53.424 -49.116 L14.618 -87.984 L19.648 -93.063 L135.152 22.442 L130.185 27.583 Z M32.138 5.628 H75.564 L91.299 -11.241 L58.224 -44.378 L21.818 -4.903 L32.138 5.628 Z M108.211 -19.136  103.281 -24.005  127.127 -49.631  94.331 -83.667  70.187 -57.16  65.244 -62.041  94.009 -93.069  136.417 -48.961  108.211 -19.136 Z"/></g><g id="Thin-L" transform="matrix(1 0 0 1 787.282 1556)"><path d="M129.595 23.8  95.144 -10.652  75.825 9.753 H28.69 L13.88 -5.331 L55.811 -49.86 L18.432 -87.363 L21.88 -90.83 L132.92 20.209 L129.595 23.8 Z M30.898 4.884 H73.89 L91.733 -13.939 L59.123 -46.672 L20.578 -5.616 L30.898 4.884 Z M106.289 -22.392  102.877 -25.679  125.173 -49.197  92.719 -82.52  70.311 -58.369  66.795 -61.762  92.396 -89.069  131.58 -48.744  106.289 -22.392 Z"/></g><g id="Ultralight-L" transform="matrix(1 0 0 1 491.205 1556)"><path d="M129.242 21.53  94.493 -13.219  74.336 7.985 H28.541 L14.996 -5.721 L57.244 -50.307 L20.721 -86.991 L23.22 -89.491 L131.58 18.869 L129.242 21.53 Z M30.154 4.438 H72.885 L91.993 -15.557 L59.663 -48.049 L19.834 -6.044 L30.154 4.438 Z M105.135 -24.346  102.636 -26.684  124.001 -48.936  91.751 -81.831  70.386 -59.095  67.725 -61.594  91.429 -86.669  128.678 -48.614  105.135 -24.346 Z"/></g><g id="Bold-M" transform="matrix(1 0 0 1 2281.8 1126)"><path d="M103.062 21.645  76.25 -5.167  63.375 7.895 H19.5 L-1.75 -13.355 L33 -48.417 L3.062 -78.355 L11 -86.292 L111 13.708 L103.062 21.645 Z M25.75 -7.23 H57 L65.562 -15.855 L43.625 -37.792 L19.5 -13.355 L25.75 -7.23 Z M92 -21.042  81.312 -31.73  94.5 -45.105  72.625 -66.98  59.438 -53.605  48.75 -64.292  72.625 -88.23  115.875 -44.98  92 -21.042 Z"/></g><g id="Semibold-M" transform="matrix(1 0 0 1 1985.97 1126)"><path d="M100.997 19.363  75.652 -5.983  63.864 6.047 H21.565 L2.163 -13.355 L34.902 -46.733 L5.345 -76.29 L12.739 -83.684 L108.391 11.969 L100.997 19.363 Z M26.837 -6.578 H58.522 L66.704 -14.931 L43.734 -37.901 L19.826 -13.464 L26.837 -6.578 Z M90.315 -20.825  81.367 -29.774  96.511 -45.268  73.549 -68.23  58.405 -52.735  49.511 -61.63  73.44 -86.002  114.299 -45.143  90.315 -20.825 Z"/></g><g id="Medium-M" transform="matrix(1 0 0 1 1689.91 1126)"><path d="M99.448 17.651  75.204 -6.594  64.231 4.661 H23.114 L5.098 -13.355 L36.329 -45.469 L7.057 -74.741 L14.043 -81.727 L106.435 10.664 L99.448 17.651 Z M27.652 -6.089 H59.663 L67.56 -14.238 L43.815 -37.983 L20.071 -13.545 L27.652 -6.089 Z M89.052 -20.662  81.408 -28.306  98.019 -45.39  74.242 -69.167  57.63 -52.083  50.081 -59.632  74.052 -84.331  113.117 -45.265  89.052 -20.662 Z"/></g><g id="Regular-M" transform="matrix(1 0 0 1 1394.06 1126)"><path d="M98.312 16.395  74.875 -7.042  64.5 3.645 H24.25 L7.25 -13.355 L37.375 -44.542 L8.312 -73.605 L15 -80.292 L105 9.708 L98.312 16.395 Z M28.25 -5.73 H60.5 L68.188 -13.73 L43.875 -38.042 L20.25 -13.605 L28.25 -5.73 Z M88.125 -20.542  81.438 -27.23  99.125 -45.48  74.75 -69.855  57.062 -51.605  50.5 -58.167  74.5 -83.105  112.25 -45.355  88.125 -20.542 Z"/></g><g id="Light-M" transform="matrix(1 0 0 1 1098.18 1126)"><path d="M98.577 13.27  74.13 -11.177  62 1.361 H23.673 L9.029 -13.283 L39.947 -45.36 L11.462 -73.845 L16.442 -78.85 L103.558 8.265 L98.577 13.27 Z M26.663 -5.634 H59.01 L69.149 -16.158 L44.764 -40.543 L18.663 -13.533 L26.663 -5.634 Z M85.721 -23.019  80.74 -27.999  97.755 -45.48  73.308 -69.927  56.341 -52.398  51.413 -57.326  73.058 -79.811  107.538 -45.331  85.721 -23.019 Z"/></g><g id="Thin-M" transform="matrix(1 0 0 1 802.565 1126)"><path d="M98.841 10.145  73.385 -15.312  59.5 -0.922 H23.096 L10.808 -13.211 L42.519 -46.177 L14.611 -74.086 L17.885 -77.408 L102.115 6.823 L98.841 10.145 Z M25.077 -5.538 H57.519 L70.111 -18.586 L45.654 -43.042 L17.077 -13.461 L25.077 -5.538 Z M83.317 -25.494  80.043 -28.768  96.385 -45.48  71.865 -69.999  55.62 -53.191  52.327 -56.485  71.615 -76.518  102.827 -45.307  83.317 -25.494 Z"/></g><g id="Ultralight-M" transform="matrix(1 0 0 1 506.415 1126)"><path d="M99 8.27  72.938 -17.792  58 -2.292 H22.75 L11.875 -13.167 L44.062 -46.667 L16.5 -74.23 L18.75 -76.542 L101.25 5.958 L99 8.27 Z M24.125 -5.48 H56.625 L70.688 -20.042 L46.188 -44.542 L16.125 -13.417 L24.125 -5.48 Z M81.875 -26.98  79.625 -29.23  95.562 -45.48  71 -70.042  55.188 -53.667  52.875 -55.98  70.75 -74.542  100 -45.292  81.875 -26.98 Z"/></g><g id="Bold-S" transform="matrix(1 0 0 1 2294.23 696)"><path d="M79.048 6.193  57.597 -15.258  46.748 -4.36 H19.824 L0.395 -23.789 L25.051 -47.805 L5.868 -66.987 L11.539 -72.658 L84.719 0.522 L79.048 6.193 Z M24.36 -15.505 H42.113 L49.855 -23.099 L32.941 -40.013 L16.175 -23.592 L24.36 -15.505 Z M68.939 -26.502  61.098 -34.244  73.772 -46.67  57.005 -63.437  44.332 -51.01  36.491 -58.949  57.203 -79.019  89.65 -46.572  68.939 -26.502 Z"/></g><g id="Semibold-S" transform="matrix(1 0 0 1 1998.1 696)"><path d="M77.419 4.392  57.125 -15.902  47.134 -5.818 H21.453 L3.482 -23.789 L26.551 -46.476 L7.669 -65.358 L12.911 -70.6 L82.661 -0.851 L77.419 4.392 Z M25.218 -14.99 H43.313 L50.755 -22.37 L33.027 -40.099 L16.432 -23.678 L25.218 -14.99 Z M67.61 -26.33  61.141 -32.7  75.358 -46.799  57.734 -64.423  43.517 -50.324  37.092 -56.848  57.846 -77.262  88.407 -46.7  67.61 -26.33 Z"/></g><g id="Medium-S" transform="matrix(1 0 0 1 1701.85 696)"><path d="M76.196 3.041  56.772 -16.384  47.424 -6.912 H22.675 L5.797 -23.789 L27.677 -45.478 L9.02 -64.136 L13.94 -69.056 L81.117 -1.88 L76.196 3.041 Z M25.861 -14.605 H44.214 L51.431 -21.823 L33.091 -40.163 L16.625 -23.742 L25.861 -14.605 Z M66.613 -26.202  61.173 -31.542  76.548 -46.896  58.281 -65.163  42.906 -49.809  37.542 -55.272  58.328 -75.943  87.474 -46.797  66.613 -26.202 Z"/></g><g id="Regular-S" transform="matrix(1 0 0 1 1405.73 696)"><path d="M75.3 2.05  56.512 -16.738  47.636 -7.714 H23.571 L7.496 -23.789 L28.503 -44.747 L10.01 -63.239 L14.695 -67.924 L79.985 -2.634 L75.3 2.05 Z M26.333 -14.321 H44.874 L51.926 -21.422 L33.138 -40.211 L16.766 -23.789 L26.333 -14.321 Z M65.882 -26.107  61.197 -30.693  77.421 -46.966  58.682 -65.705  42.458 -49.432  37.872 -54.117  58.682 -74.976  86.79 -46.868  65.882 -26.107 Z"/></g><g id="Light-S" transform="matrix(1 0 0 1 1109.75 696)"><path d="M75.509 -0.416  55.924 -20  45.663 -9.516 H23.116 L8.899 -23.733 L30.532 -45.392 L12.495 -63.429 L15.833 -66.786 L78.847 -3.772 L75.509 -0.416 Z M25.081 -14.246 H43.698 L52.685 -23.338 L33.84 -42.183 L15.514 -23.733 L25.081 -14.246 Z M63.985 -28.061  60.647 -31.3  76.339 -46.966  57.544 -65.762  41.889 -50.058  38.593 -53.453  57.544 -72.377  83.072 -46.849  63.985 -28.061 Z"/></g><g id="Thin-S" transform="matrix(1 0 0 1 814.015 696)"><path d="M75.717 -2.881  55.336 -23.262  43.691 -11.317 H22.661 L10.302 -23.676 L32.561 -46.037 L14.98 -63.619 L16.971 -65.648 L77.709 -4.91 L75.717 -2.881 Z M23.829 -14.17 H42.523 L53.443 -25.254 L34.542 -44.156 L14.263 -23.676 L23.829 -14.17 Z M62.088 -30.014  60.097 -31.907  75.258 -46.966  56.406 -65.819  41.32 -50.684  39.313 -52.789  56.406 -69.779  79.355 -46.83  62.088 -30.014 Z"/></g><g id="Ultralight-S" transform="matrix(1 0 0 1 517.792 696)"><path d="M75.843 -4.36  54.983 -25.22  42.507 -12.398 H22.388 L11.145 -23.642 L33.779 -46.424 L16.47 -63.733 L17.654 -64.965 L77.026 -5.593 L75.843 -4.36 Z M23.078 -14.124 H41.817 L53.899 -26.403 L34.963 -45.339 L13.512 -23.642 L23.078 -14.124 Z M60.95 -31.186  59.767 -32.271  74.61 -46.966  55.723 -65.853  40.979 -51.059  39.746 -52.391  55.723 -68.22  77.125 -46.818  60.95 -31.186 Z"/></g></g></svg>