<svg xmlns="http://www.w3.org/2000/svg" version="1.1" width="3300" height="2000"><g id="Notes"><style>
    text {
      font-family: monospace;
      text-anchor: middle;
    }
    text.emphasis {
      font-weight:bold;
    }
    text.lanchor {
      text-anchor: start;
    }
  </style><rect height="2200" id="artboard" fill="white" width="3300" x="0" y="0"/><line id="" style="fill:none;stroke:black;stroke-width:0.5;" x1="263" x2="3036" y1="292" y2="292"/><text class="lanchor emphasis" transform="matrix(1 0 0 1 263 322)">Weight/Scale Variations</text><text transform="matrix(1 0 0 1 559.711 322)">Ultralight</text><text transform="matrix(1 0 0 1 856.422 322)">Thin</text><text transform="matrix(1 0 0 1 1153.13 322)">Light</text><text transform="matrix(1 0 0 1 1449.84 322)">Regular</text><text transform="matrix(1 0 0 1 1746.56 322)">Medium</text><text transform="matrix(1 0 0 1 2043.27 322)">Semibold</text><text transform="matrix(1 0 0 1 2339.98 322)">Bold</text><text transform="matrix(1 0 0 1 2636.69 322)">Heavy</text><text transform="matrix(1 0 0 1 2933.4 322)">Black</text><text id="template-version" style="text-anchor: end;" transform="matrix(1 0 0 1 3036 1933)">Template v.1.0</text><text class="lanchor" transform="matrix(1 0 0 1 263 726)">Small</text><text class="lanchor" transform="matrix(1 0 0 1 263 1156)">Medium</text><text class="lanchor" transform="matrix(1 0 0 1 263 1586)">Large</text></g><g id="Guides"><g id="H-reference" style="fill:#27AAE1;stroke:none;" transform="matrix(1 0 0 1 339 696)"><path d="M 54.9316 0 L 57.666 0 L 30.5664 -70.459 L 28.0762 -70.459 L 0.976562 0 L 3.66211 0 L 12.9395 -24.4629 L 45.7031 -24.4629 Z M 29.1992 -67.0898 L 29.4434 -67.0898 L 44.8242 -26.709 L 13.8184 -26.709 Z"/></g><line id="Baseline-S" style="fill:none;stroke:#27AAE1;opacity:1;stroke-width:0.577;" x1="263" x2="3036" y1="696" y2="696"/><line id="Capline-S" style="fill:none;stroke:#27AAE1;opacity:1;stroke-width:0.577;" x1="263" x2="3036" y1="625.541" y2="625.541"/><g id="H-reference" style="fill:#27AAE1;stroke:none;" transform="matrix(1 0 0 1 339 1126)"><path d="M 54.9316 0 L 57.666 0 L 30.5664 -70.459 L 28.0762 -70.459 L 0.976562 0 L 3.66211 0 L 12.9395 -24.4629 L 45.7031 -24.4629 Z M 29.1992 -67.0898 L 29.4434 -67.0898 L 44.8242 -26.709 L 13.8184 -26.709 Z"/></g><line id="Baseline-M" style="fill:none;stroke:#27AAE1;opacity:1;stroke-width:0.577;" x1="263" x2="3036" y1="1126" y2="1126"/><line id="Capline-M" style="fill:none;stroke:#27AAE1;opacity:1;stroke-width:0.577;" x1="263" x2="3036" y1="1055.54" y2="1055.54"/><g id="H-reference" style="fill:#27AAE1;stroke:none;" transform="matrix(1 0 0 1 339 1556)"><path d="M 54.9316 0 L 57.666 0 L 30.5664 -70.459 L 28.0762 -70.459 L 0.976562 0 L 3.66211 0 L 12.9395 -24.4629 L 45.7031 -24.4629 Z M 29.1992 -67.0898 L 29.4434 -67.0898 L 44.8242 -26.709 L 13.8184 -26.709 Z"/></g><line id="Baseline-L" style="fill:none;stroke:#27AAE1;opacity:1;stroke-width:0.577;" x1="263" x2="3036" y1="1556" y2="1556"/><line id="Capline-L" style="fill:none;stroke:#27AAE1;opacity:1;stroke-width:0.577;" x1="263" x2="3036" y1="1485.54" y2="1485.54"/><rect height="119.336" id="left-margin" style="fill:darkred;stroke:none;opacity:0.4;" width="12.4512" x="1394.06" y="1030.79"/><rect height="119.336" id="right-margin" style="fill:darkgreen;stroke:none;opacity:0.4;" width="12.4512" x="1502.5112" y="1030.79"/><rect x="1406.5112" y="1045" width="96" height="96" fill="none" stroke="blue" stroke-dasharray="5"/><rect x="1394.06" y="1030.79" width="120.9024" height="119.336" fill="none" stroke="blue"/></g><g id="Symbols"><g id="Bold-L" transform="matrix(1 0 0 1 2266 1556)"><path d="M109.65 6.695  83.689 -19.105  93.041 -28.296  119.325 -2.496 V-13.622 Q119.325 -16.485 121.174 -18.279 Q123.022 -20.072 125.931 -20.072 Q128.839 -20.072 130.693 -18.279 Q132.548 -16.485 132.548 -13.622 V12.339 Q132.548 15.685 130.433 17.72 Q128.319 19.756 125.13 19.756 H98.685 Q95.867 19.756 94.051 17.851 Q92.235 15.947 92.235 13.278 Q92.235 10.726 94.085 8.711 Q95.936 6.695 98.685 6.695 H109.65 Z M119.293 -67.802  35.588 16.137 Q33.725 18.144 30.975 18.063 Q28.225 17.983 26.284 15.886 Q24.51 14.1 24.591 11.376 Q24.671 8.653 26.517 6.62 L109.972 -77.254 H98.685 Q95.867 -77.254 94.065 -79.077 Q92.262 -80.901 92.262 -83.794 Q92.262 -86.688 94.099 -88.533 Q95.936 -90.377 98.846 -90.377 H125.13 Q128.319 -90.377 130.433 -88.263 Q132.548 -86.149 132.548 -82.96 V-56.837 Q132.548 -54.02 130.665 -52.123 Q128.782 -50.226 125.874 -50.226 Q122.966 -50.226 121.129 -52.077 Q119.293 -53.927 119.293 -56.837 V-67.802 Z M62.472 -41.357  30.82 -73.295 Q28.864 -75.059 28.864 -77.881 Q28.864 -80.702 30.734 -82.557 Q32.444 -84.411 35.389 -84.411 Q38.334 -84.411 39.829 -82.799 L71.918 -50.71 L62.472 -41.357 Z"/></g><g id="Semibold-L" transform="matrix(1 0 0 1 1970.27 1556)"><path d="M111.192 7.326  84.039 -19.666  92.551 -28.086  120.026 -1.024 V-13.763 Q120.026 -16.344 121.735 -18.033 Q123.443 -19.722 126.071 -19.722 Q128.698 -19.722 130.413 -18.033 Q132.127 -16.344 132.127 -13.763 V12.619 Q132.127 15.615 130.188 17.51 Q128.249 19.406 125.41 19.406 H98.685 Q96.077 19.406 94.402 17.641 Q92.726 15.876 92.726 13.348 Q92.726 10.937 94.436 9.131 Q96.146 7.326 98.685 7.326 H111.192 Z M119.994 -69.275  35.107 15.702 Q33.375 17.583 30.905 17.502 Q28.435 17.422 26.634 15.466 Q24.931 13.75 24.976 11.341 Q25.022 8.933 26.798 6.971 L111.515 -77.93 H98.685 Q96.077 -77.93 94.415 -79.626 Q92.753 -81.321 92.753 -83.935 Q92.753 -86.548 94.449 -88.252 Q96.146 -89.957 98.776 -89.957 H125.41 Q128.249 -89.957 130.188 -88.018 Q132.127 -86.079 132.127 -83.24 V-56.767 Q132.127 -54.16 130.384 -52.438 Q128.642 -50.717 126.014 -50.717 Q123.386 -50.717 121.69 -52.427 Q119.994 -54.137 119.994 -56.767 V-69.275 Z M62.683 -41.848  29.277 -75.398 Q27.462 -77.092 27.462 -79.633 Q27.462 -82.175 29.192 -83.889 Q30.849 -85.673 33.47 -85.673 Q36.091 -85.673 37.585 -84.061 L71.287 -50.43 L62.683 -41.848 Z"/></g><g id="Medium-L" transform="matrix(1 0 0 1 1674.31 1556)"><path d="M112.349 7.799  84.302 -20.087  92.182 -27.928  120.552 0.08 V-13.868 Q120.552 -16.239 122.155 -17.849 Q123.759 -19.459 126.176 -19.459 Q128.593 -19.459 130.202 -17.849 Q131.811 -16.239 131.811 -13.868 V12.829 Q131.811 15.562 130.004 17.352 Q128.196 19.143 125.621 19.143 H98.685 Q96.235 19.143 94.665 17.483 Q93.094 15.824 93.094 13.401 Q93.094 11.094 94.699 9.447 Q96.304 7.799 98.685 7.799 H112.349 Z M120.519 -70.379  34.746 15.376 Q33.112 17.162 30.852 17.082 Q28.593 17.001 26.897 15.15 Q25.246 13.487 25.265 11.315 Q25.285 9.143 27.008 7.233 L112.672 -78.437 H98.685 Q96.235 -78.437 94.678 -80.037 Q93.121 -81.637 93.121 -84.04 Q93.121 -86.443 94.712 -88.042 Q96.304 -89.641 98.724 -89.641 H125.621 Q128.196 -89.641 130.004 -87.834 Q131.811 -86.026 131.811 -83.451 V-56.715 Q131.811 -54.265 130.174 -52.675 Q128.537 -51.085 126.119 -51.085 Q123.702 -51.085 122.111 -52.69 Q120.519 -54.295 120.519 -56.715 V-70.379 Z M62.84 -42.216  28.12 -76.975 Q26.41 -78.617 26.41 -80.948 Q26.41 -83.279 28.035 -84.888 Q29.652 -86.62 32.03 -86.62 Q34.408 -86.62 35.903 -85.007 L70.813 -50.219 L62.84 -42.216 Z"/></g><g id="Regular-L" transform="matrix(1 0 0 1 1378.56 1556)"><path d="M113.198 8.146  84.495 -20.395  91.913 -27.812  120.938 0.89 V-13.945 Q120.938 -16.162 122.464 -17.714 Q123.99 -19.266 126.253 -19.266 Q128.516 -19.266 130.048 -17.714 Q131.58 -16.162 131.58 -13.945 V12.984 Q131.58 15.523 129.869 17.237 Q128.157 18.95 125.775 18.95 H98.685 Q96.351 18.95 94.857 17.368 Q93.364 15.785 93.364 13.439 Q93.364 11.21 94.892 9.678 Q96.419 8.146 98.685 8.146 H113.198 Z M120.905 -71.189  34.481 15.136 Q32.919 16.854 30.814 16.773 Q28.708 16.693 27.09 14.919 Q25.477 13.294 25.477 11.296 Q25.477 9.298 27.162 7.426 L113.52 -78.809 H98.685 Q96.351 -78.809 94.871 -80.339 Q93.391 -81.868 93.391 -84.117 Q93.391 -86.366 94.905 -87.888 Q96.419 -89.41 98.685 -89.41 H125.775 Q128.157 -89.41 129.869 -87.699 Q131.58 -85.987 131.58 -83.605 V-56.676 Q131.58 -54.342 130.02 -52.849 Q128.46 -51.355 126.197 -51.355 Q123.933 -51.355 122.419 -52.883 Q120.905 -54.411 120.905 -56.676 V-71.189 Z M62.956 -42.486  27.272 -78.132 Q25.639 -79.735 25.639 -81.912 Q25.639 -84.089 27.187 -85.621 Q28.775 -87.314 30.975 -87.314 Q33.174 -87.314 34.669 -85.701 L70.466 -50.065 L62.956 -42.486 Z"/></g><g id="Light-L" transform="matrix(1 0 0 1 1082.77 1556)"><path d="M114.19 7.278  86.418 -20.395  92.161 -26.138  120.069 1.572 V-14.937 Q120.069 -16.654 121.258 -17.867 Q122.446 -19.08 124.21 -19.08 Q125.973 -19.08 127.164 -17.867 Q128.355 -16.654 128.355 -14.937 V9.945 Q128.355 12.405 126.697 14.065 Q125.039 15.725 122.736 15.725 H97.569 Q95.735 15.725 94.581 14.48 Q93.426 13.236 93.426 11.389 Q93.426 9.659 94.615 8.469 Q95.804 7.278 97.569 7.278 H114.19 Z M120.037 -71.995  35.538 12.465 Q34.345 13.815 32.705 13.765 Q31.065 13.715 29.757 12.314 Q28.517 10.999 28.517 9.497 Q28.517 7.995 29.829 6.434 L114.264 -77.933 H97.569 Q95.735 -77.933 94.594 -79.128 Q93.453 -80.324 93.453 -82.073 Q93.453 -83.823 94.628 -85.004 Q95.804 -86.185 97.569 -86.185 H122.736 Q125.039 -86.185 126.697 -84.527 Q128.355 -82.869 128.355 -80.566 V-55.684 Q128.355 -53.851 127.132 -52.696 Q125.91 -51.541 124.147 -51.541 Q122.383 -51.541 121.21 -52.73 Q120.037 -53.919 120.037 -55.684 V-71.995 Z M62.398 -44.719  29.877 -77.264 Q28.616 -78.495 28.647 -80.175 Q28.678 -81.856 29.841 -83.016 Q31.045 -84.337 32.78 -84.337 Q34.514 -84.337 35.661 -83.096 L68.233 -50.561 L62.398 -44.719 Z"/></g><g id="Thin-L" transform="matrix(1 0 0 1 787.282 1556)"><path d="M115.182 6.41  88.34 -20.395  92.409 -24.463  119.201 2.254 V-15.93 Q119.201 -17.145 120.051 -18.02 Q120.902 -18.894 122.166 -18.894 Q123.431 -18.894 124.28 -18.02 Q125.13 -17.145 125.13 -15.93 V6.906 Q125.13 9.287 123.526 10.894 Q121.921 12.5 119.697 12.5 H96.452 Q95.12 12.5 94.304 11.593 Q93.488 10.687 93.488 9.34 Q93.488 8.109 94.338 7.259 Q95.188 6.41 96.452 6.41 H115.182 Z M119.168 -72.801  36.595 9.793 Q35.772 10.776 34.597 10.757 Q33.422 10.739 32.424 9.709 Q31.555 8.704 31.555 7.699 Q31.555 6.693 32.496 5.442 L115.008 -77.056 H96.452 Q95.12 -77.056 94.317 -77.918 Q93.515 -78.78 93.515 -80.03 Q93.515 -81.28 94.352 -82.12 Q95.188 -82.96 96.452 -82.96 H119.697 Q121.921 -82.96 123.526 -81.356 Q125.13 -79.751 125.13 -77.527 V-54.692 Q125.13 -53.359 124.246 -52.543 Q123.361 -51.727 122.097 -51.727 Q120.832 -51.727 120 -52.577 Q119.168 -53.428 119.168 -54.692 V-72.801 Z M61.84 -46.952  32.482 -76.396 Q31.593 -77.254 31.655 -78.439 Q31.717 -79.623 32.496 -80.411 Q33.315 -81.36 34.584 -81.36 Q35.854 -81.36 36.653 -80.492 L66.001 -51.057 L61.84 -46.952 Z"/></g><g id="Ultralight-L" transform="matrix(1 0 0 1 491.205 1556)"><path d="M115.778 5.889  89.494 -20.395  92.558 -23.459  118.68 2.664 V-16.525 Q118.68 -17.44 119.328 -18.111 Q119.976 -18.782 120.94 -18.782 Q121.905 -18.782 122.55 -18.111 Q123.195 -17.44 123.195 -16.525 V5.083 Q123.195 7.417 121.623 8.991 Q120.051 10.565 117.874 10.565 H95.782 Q94.751 10.565 94.138 9.861 Q93.525 9.157 93.525 8.109 Q93.525 7.179 94.172 6.534 Q94.819 5.889 95.782 5.889 H115.778 Z M118.648 -73.285  37.229 8.19 Q36.628 8.953 35.732 8.953 Q34.836 8.953 34.024 8.146 Q33.379 7.328 33.379 6.62 Q33.379 5.911 34.096 4.846 L115.455 -76.53 H95.782 Q94.751 -76.53 94.151 -77.192 Q93.552 -77.854 93.552 -78.804 Q93.552 -79.755 94.185 -80.39 Q94.819 -81.025 95.782 -81.025 H117.874 Q120.051 -81.025 121.623 -79.453 Q123.195 -77.881 123.195 -75.704 V-54.096 Q123.195 -53.064 122.513 -52.451 Q121.831 -51.839 120.867 -51.839 Q119.902 -51.839 119.275 -52.486 Q118.648 -53.133 118.648 -54.096 V-73.285 Z M61.505 -48.291  34.045 -75.875 Q33.379 -76.51 33.459 -77.397 Q33.54 -78.284 34.088 -78.848 Q34.677 -79.574 35.667 -79.574 Q36.657 -79.574 37.249 -78.929 L64.661 -51.355 L61.505 -48.291 Z"/></g><g id="Bold-M" transform="matrix(1 0 0 1 2281.8 1126)"><path d="M81 -3.855  66.75 -18.105  77 -28.105  91.25 -14.23 V-18.355 Q91.25 -21.48 93.375 -23.48 Q95.5 -25.48 98.625 -25.48 Q101.75 -25.48 103.75 -23.48 Q105.75 -21.48 105.75 -18.355 V2.02 Q105.75 5.645 103.312 8.083 Q100.875 10.52 97.25 10.52 H76.625 Q73.625 10.52 71.562 8.395 Q69.5 6.27 69.5 3.395 Q69.5 0.395 71.625 -1.73 Q73.75 -3.855 76.75 -3.855 H81 Z M91.25 -56.355  28.776 5.965 Q26.719 8.02 23.793 8.02 Q20.867 8.02 18.75 5.895 Q16.625 3.77 16.688 0.833 Q16.75 -2.105 18.875 -4.23 L81 -66.577 H76.625 Q73.625 -66.577 71.573 -68.672 Q69.521 -70.767 69.521 -73.881 Q69.521 -76.995 71.635 -78.987 Q73.75 -80.98 76.875 -80.98 H97.25 Q100.875 -80.98 103.312 -78.542 Q105.75 -76.105 105.75 -72.48 V-51.98 Q105.75 -48.98 103.75 -46.917 Q101.75 -44.855 98.625 -44.855 Q95.5 -44.855 93.375 -46.98 Q91.25 -49.105 91.25 -52.23 V-56.355 Z M43.678 -41.605  19.989 -65.382 Q17.875 -67.355 17.875 -70.23 Q17.875 -73.105 19.975 -75.355 Q22.075 -77.48 24.975 -77.48 Q27.875 -77.48 30 -75.48 L53.875 -51.73 L43.678 -41.605 Z"/></g><g id="Semibold-M" transform="matrix(1 0 0 1 1985.97 1126)"><path d="M82.467 -3.42  67.076 -18.811  76.402 -27.942  91.739 -12.817 V-18.627 Q91.739 -21.48 93.674 -23.317 Q95.609 -25.154 98.462 -25.154 Q101.315 -25.154 103.152 -23.317 Q104.989 -21.48 104.989 -18.627 V2.074 Q104.989 5.319 102.769 7.539 Q100.549 9.759 97.304 9.759 H76.516 Q73.734 9.759 71.861 7.824 Q69.989 5.89 69.989 3.178 Q69.989 0.395 71.924 -1.513 Q73.859 -3.42 76.641 -3.42 H82.467 Z M91.739 -57.768  28.403 5.464 Q26.502 7.368 23.875 7.368 Q21.248 7.368 19.294 5.406 Q17.331 3.444 17.367 0.805 Q17.402 -1.833 19.364 -3.795 L82.467 -67.047 H76.516 Q73.734 -67.047 71.872 -68.961 Q70.01 -70.876 70.01 -73.718 Q70.01 -76.56 71.934 -78.39 Q73.859 -80.219 76.712 -80.219 H97.304 Q100.549 -80.219 102.769 -77.999 Q104.989 -75.779 104.989 -72.534 V-51.817 Q104.989 -49.034 103.152 -47.162 Q101.315 -45.29 98.462 -45.29 Q95.609 -45.29 93.674 -47.224 Q91.739 -49.159 91.739 -52.013 V-57.768 Z M44.059 -42.094  19.989 -66.198 Q18.038 -68.061 18.038 -70.665 Q18.038 -73.268 19.975 -75.301 Q21.925 -77.263 24.547 -77.263 Q27.169 -77.263 29.131 -75.371 L53.277 -51.295 L44.059 -42.094 Z"/></g><g id="Medium-M" transform="matrix(1 0 0 1 1689.91 1126)"><path d="M83.568 -3.094  67.321 -19.341  75.954 -27.82  92.106 -11.757 V-18.83 Q92.106 -21.48 93.898 -23.195 Q95.69 -24.909 98.34 -24.909 Q100.989 -24.909 102.704 -23.195 Q104.418 -21.48 104.418 -18.83 V2.115 Q104.418 5.074 102.361 7.131 Q100.304 9.189 97.345 9.189 H76.435 Q73.815 9.189 72.086 7.396 Q70.356 5.604 70.356 3.015 Q70.356 0.395 72.148 -1.35 Q73.94 -3.094 76.56 -3.094 H83.568 Z M92.106 -58.828  28.123 5.089 Q26.339 6.879 23.936 6.879 Q21.533 6.879 19.701 5.039 Q17.861 3.199 17.876 0.785 Q17.891 -1.629 19.731 -3.469 L83.568 -67.399 H76.435 Q73.815 -67.399 72.096 -69.178 Q70.377 -70.958 70.377 -73.596 Q70.377 -76.234 72.159 -77.941 Q73.94 -79.648 76.59 -79.648 H97.345 Q100.304 -79.648 102.361 -77.591 Q104.418 -75.534 104.418 -72.575 V-51.695 Q104.418 -49.075 102.704 -47.345 Q100.989 -45.616 98.34 -45.616 Q95.69 -45.616 93.898 -47.408 Q92.106 -49.2 92.106 -51.85 V-58.828 Z M44.344 -42.461  19.989 -66.809 Q18.16 -68.591 18.16 -70.991 Q18.16 -73.39 19.975 -75.26 Q21.814 -77.1 24.226 -77.1 Q26.639 -77.1 28.478 -75.29 L52.829 -50.969 L44.344 -42.461 Z"/></g><g id="Regular-M" transform="matrix(1 0 0 1 1394.06 1126)"><path d="M84.375 -2.855  67.5 -19.73  75.625 -27.73  92.375 -10.98 V-18.98 Q92.375 -21.48 94.062 -23.105 Q95.75 -24.73 98.25 -24.73 Q100.75 -24.73 102.375 -23.105 Q104 -21.48 104 -18.98 V2.145 Q104 4.895 102.062 6.833 Q100.125 8.77 97.375 8.77 H76.375 Q73.875 8.77 72.25 7.083 Q70.625 5.395 70.625 2.895 Q70.625 0.395 72.312 -1.23 Q74 -2.855 76.5 -2.855 H84.375 Z M92.375 -59.605  27.918 4.814 Q26.219 6.52 23.981 6.52 Q21.742 6.52 20 4.77 Q18.25 3.02 18.25 0.77 Q18.25 -1.48 20 -3.23 L84.375 -67.657 H76.375 Q73.875 -67.657 72.26 -69.337 Q70.646 -71.017 70.646 -73.506 Q70.646 -75.995 72.323 -77.612 Q74 -79.23 76.5 -79.23 H97.375 Q100.125 -79.23 102.062 -77.292 Q104 -75.355 104 -72.605 V-51.605 Q104 -49.105 102.375 -47.48 Q100.75 -45.855 98.25 -45.855 Q95.75 -45.855 94.062 -47.542 Q92.375 -49.23 92.375 -51.73 V-59.605 Z M44.553 -42.73  19.989 -67.257 Q18.25 -68.98 18.25 -71.23 Q18.25 -73.48 19.975 -75.23 Q21.731 -76.98 23.991 -76.98 Q26.25 -76.98 28 -75.23 L52.5 -50.73 L44.553 -42.73 Z"/></g><g id="Light-M" transform="matrix(1 0 0 1 1098.18 1126)"><path d="M86.202 -2.855  68.462 -20.595  74.808 -26.816  92.375 -9.249 V-19.509 Q92.375 -21.478 93.704 -22.743 Q95.032 -24.009 97.002 -24.009 Q98.971 -24.009 100.235 -22.743 Q101.5 -21.478 101.5 -19.509 V0.126 Q101.5 2.671 99.701 4.471 Q97.901 6.27 95.356 6.27 H75.702 Q73.733 6.27 72.468 4.941 Q71.202 3.613 71.202 1.643 Q71.202 -0.326 72.53 -1.591 Q73.858 -2.855 75.827 -2.855 H86.202 Z M92.375 -61.336  27.832 3.167 Q26.46 4.549 24.774 4.573 Q23.089 4.597 21.635 3.135 Q20.173 1.674 20.173 0.001 Q20.173 -1.672 21.635 -3.134 L86.106 -67.636 H75.702 Q73.733 -67.636 72.478 -68.968 Q71.223 -70.299 71.223 -72.258 Q71.223 -74.216 72.54 -75.473 Q73.858 -76.73 75.827 -76.73 H95.356 Q97.901 -76.73 99.701 -74.93 Q101.5 -73.131 101.5 -70.586 V-51.076 Q101.5 -49.107 100.234 -47.842 Q98.968 -46.576 96.998 -46.576 Q95.029 -46.576 93.702 -47.904 Q92.375 -49.232 92.375 -51.201 V-61.336 Z M45.082 -43.98  21.576 -67.45 Q20.173 -68.836 20.197 -70.533 Q20.221 -72.23 21.6 -73.643 Q22.998 -75.057 24.72 -75.057 Q26.442 -75.057 27.856 -73.643 L51.25 -50.201 L45.082 -43.98 Z"/></g><g id="Thin-M" transform="matrix(1 0 0 1 802.565 1126)"><path d="M88.029 -2.855  69.423 -21.461  73.99 -25.903  92.375 -7.518 V-20.038 Q92.375 -21.475 93.345 -22.381 Q94.314 -23.288 95.753 -23.288 Q97.192 -23.288 98.096 -22.381 Q99 -21.475 99 -20.038 V-1.893 Q99 0.448 97.339 2.109 Q95.678 3.77 93.337 3.77 H75.029 Q73.591 3.77 72.685 2.8 Q71.779 1.831 71.779 0.392 Q71.779 -1.047 72.748 -1.951 Q73.716 -2.855 75.154 -2.855 H88.029 Z M92.375 -63.066  27.747 1.52 Q26.7 2.578 25.567 2.626 Q24.435 2.674 23.269 1.501 Q22.096 0.328 22.096 -0.768 Q22.096 -1.865 23.269 -3.038 L87.837 -67.614 H75.029 Q73.591 -67.614 72.696 -68.598 Q71.8 -69.582 71.8 -71.01 Q71.8 -72.437 72.758 -73.334 Q73.716 -74.23 75.154 -74.23 H93.337 Q95.678 -74.23 97.339 -72.569 Q99 -70.908 99 -68.567 V-50.547 Q99 -49.11 98.093 -48.203 Q97.186 -47.297 95.747 -47.297 Q94.308 -47.297 93.341 -48.266 Q92.375 -49.235 92.375 -50.672 V-63.066 Z M45.611 -45.23  23.163 -67.642 Q22.096 -68.691 22.144 -69.836 Q22.192 -70.98 23.225 -72.057 Q24.265 -73.134 25.45 -73.134 Q26.635 -73.134 27.712 -72.057 L50 -49.672 L45.611 -45.23 Z"/></g><g id="Ultralight-M" transform="matrix(1 0 0 1 506.415 1126)"><path d="M89.125 -2.855  70 -21.98  73.5 -25.355  92.375 -6.48 V-20.355 Q92.375 -21.474 93.129 -22.164 Q93.884 -22.855 95.004 -22.855 Q96.125 -22.855 96.812 -22.164 Q97.5 -21.474 97.5 -20.355 V-3.105 Q97.5 -0.886 95.922 0.692 Q94.344 2.27 92.125 2.27 H74.625 Q73.506 2.27 72.816 1.516 Q72.125 0.761 72.125 -0.359 Q72.125 -1.48 72.878 -2.167 Q73.631 -2.855 74.75 -2.855 H89.125 Z M92.375 -64.105  27.695 0.531 Q26.844 1.395 26.043 1.458 Q25.242 1.52 24.25 0.52 Q23.25 -0.48 23.25 -1.23 Q23.25 -1.98 24.25 -2.98 L88.875 -67.602 H74.625 Q73.506 -67.602 72.826 -68.376 Q72.146 -69.151 72.146 -70.261 Q72.146 -71.37 72.889 -72.05 Q73.631 -72.73 74.75 -72.73 H92.125 Q94.344 -72.73 95.922 -71.152 Q97.5 -69.574 97.5 -67.355 V-50.23 Q97.5 -49.111 96.808 -48.421 Q96.116 -47.73 94.996 -47.73 Q93.875 -47.73 93.125 -48.483 Q92.375 -49.236 92.375 -50.355 V-64.105 Z M45.928 -45.98  24.114 -67.757 Q23.25 -68.605 23.312 -69.417 Q23.375 -70.23 24.2 -71.105 Q25.025 -71.98 25.887 -71.98 Q26.75 -71.98 27.625 -71.105 L49.25 -49.355 L45.928 -45.98 Z"/></g><g id="Bold-S" transform="matrix(1 0 0 1 2294.23 696)"><path d="M62.035 -12.842  52.074 -22.803  59.57 -30.101  69.629 -20.338 V-20.732 Q69.629 -23.03 71.186 -24.495 Q72.744 -25.959 75.033 -25.959 Q77.322 -25.959 78.801 -24.495 Q80.281 -23.03 80.281 -20.732 V-8.601 Q80.281 -5.909 78.471 -4.099 Q76.661 -2.289 73.969 -2.289 H61.641 Q59.441 -2.289 57.927 -3.846 Q56.413 -5.404 56.413 -7.496 Q56.413 -9.686 57.977 -11.264 Q59.54 -12.842 61.739 -12.842 H62.035 Z M69.629 -50.024  25.082 -5.587 Q23.457 -3.966 21.441 -4.015 Q19.425 -4.064 17.753 -5.741 Q16.076 -7.418 16.125 -9.489 Q16.175 -11.56 17.851 -13.237 L62.035 -57.582 H61.641 Q59.441 -57.582 57.933 -59.118 Q56.425 -60.653 56.425 -62.937 Q56.425 -65.22 57.982 -66.695 Q59.54 -68.171 61.838 -68.171 H73.969 Q76.661 -68.171 78.471 -66.361 Q80.281 -64.551 80.281 -61.859 V-49.629 Q80.281 -47.43 78.822 -45.916 Q77.364 -44.402 75.074 -44.402 Q72.785 -44.402 71.207 -45.965 Q69.629 -47.529 69.629 -49.826 V-50.024 Z M35.547 -39.668  18.632 -56.609 Q16.963 -58.174 17.013 -60.209 Q17.062 -62.245 18.719 -64.028 Q20.351 -65.705 22.422 -65.705 Q24.492 -65.705 26.136 -64.127 L43.099 -47.208 L35.547 -39.668 Z"/></g><g id="Semibold-S" transform="matrix(1 0 0 1 1998.1 696)"><path d="M63.193 -12.499  52.331 -23.361  59.098 -29.973  70.015 -19.223 V-20.947 Q70.015 -23.03 71.422 -24.366 Q72.829 -25.702 74.904 -25.702 Q76.979 -25.702 78.33 -24.366 Q79.68 -23.03 79.68 -20.947 V-8.558 Q79.68 -6.166 78.042 -4.528 Q76.404 -2.89 74.012 -2.89 H61.555 Q59.527 -2.89 58.163 -4.297 Q56.799 -5.704 56.799 -7.667 Q56.799 -9.686 58.213 -11.093 Q59.626 -12.499 61.653 -12.499 H63.193 Z M70.015 -51.139  24.787 -5.982 Q23.285 -4.48 21.505 -4.53 Q19.725 -4.579 18.181 -6.127 Q16.633 -7.675 16.661 -9.51 Q16.689 -11.346 18.237 -12.894 L63.193 -57.953 H61.555 Q59.527 -57.953 58.169 -59.346 Q56.81 -60.739 56.81 -62.808 Q56.81 -64.877 58.218 -66.224 Q59.626 -67.57 61.709 -67.57 H74.012 Q76.404 -67.57 78.042 -65.932 Q79.68 -64.294 79.68 -61.902 V-49.501 Q79.68 -47.473 78.35 -46.109 Q77.021 -44.745 74.946 -44.745 Q72.871 -44.745 71.443 -46.158 Q70.015 -47.571 70.015 -49.655 V-51.139 Z M35.847 -40.054  18.632 -57.252 Q17.092 -58.732 17.141 -60.552 Q17.191 -62.373 18.719 -63.986 Q20.233 -65.534 22.084 -65.534 Q23.935 -65.534 25.45 -64.041 L42.628 -46.865 L35.847 -40.054 Z"/></g><g id="Medium-S" transform="matrix(1 0 0 1 1701.85 696)"><path d="M64.061 -12.242  52.524 -23.779  58.744 -29.876  70.305 -18.387 V-21.107 Q70.305 -23.03 71.599 -24.27 Q72.894 -25.509 74.808 -25.509 Q76.722 -25.509 77.976 -24.27 Q79.23 -23.03 79.23 -21.107 V-8.526 Q79.23 -6.359 77.721 -4.849 Q76.211 -3.34 74.044 -3.34 H61.491 Q59.591 -3.34 58.34 -4.634 Q57.089 -5.929 57.089 -7.796 Q57.089 -9.686 58.389 -10.964 Q59.69 -12.242 61.589 -12.242 H64.061 Z M70.305 -51.975  24.566 -6.278 Q23.156 -4.866 21.553 -4.916 Q19.95 -4.965 18.503 -6.417 Q17.051 -7.868 17.063 -9.526 Q17.075 -11.185 18.527 -12.636 L64.061 -58.231 H61.491 Q59.591 -58.231 58.346 -59.517 Q57.1 -60.803 57.1 -62.712 Q57.1 -64.62 58.395 -65.87 Q59.69 -67.12 61.613 -67.12 H74.044 Q76.211 -67.12 77.721 -65.611 Q79.23 -64.101 79.23 -61.934 V-49.404 Q79.23 -47.505 77.997 -46.254 Q76.763 -45.002 74.849 -45.002 Q72.935 -45.002 71.62 -46.303 Q70.305 -47.604 70.305 -49.526 V-51.975 Z M36.072 -40.344  18.632 -57.735 Q17.189 -59.15 17.238 -60.81 Q17.287 -62.47 18.719 -63.953 Q20.145 -65.405 21.831 -65.405 Q23.516 -65.405 24.935 -63.977 L42.274 -46.607 L36.072 -40.344 Z"/></g><g id="Regular-S" transform="matrix(1 0 0 1 1405.73 696)"><path d="M64.698 -12.053  52.666 -24.085  58.485 -29.806  70.517 -17.773 V-21.225 Q70.517 -23.03 71.729 -24.199 Q72.941 -25.367 74.737 -25.367 Q76.533 -25.367 77.716 -24.199 Q78.9 -23.03 78.9 -21.225 V-8.503 Q78.9 -6.501 77.485 -5.085 Q76.069 -3.67 74.067 -3.67 H61.443 Q59.639 -3.67 58.47 -4.882 Q57.301 -6.094 57.301 -7.89 Q57.301 -9.686 58.519 -10.87 Q59.737 -12.053 61.542 -12.053 H64.698 Z M70.517 -52.588  24.404 -6.496 Q23.062 -5.149 21.589 -5.199 Q20.116 -5.248 18.739 -6.629 Q17.358 -8.009 17.358 -9.538 Q17.358 -11.067 18.739 -12.448 L64.698 -58.434 H61.443 Q59.639 -58.434 58.475 -59.643 Q57.312 -60.851 57.312 -62.641 Q57.312 -64.431 58.525 -65.61 Q59.737 -66.79 61.542 -66.79 H74.067 Q76.069 -66.79 77.485 -65.375 Q78.9 -63.959 78.9 -61.957 V-49.333 Q78.9 -47.529 77.737 -46.36 Q76.575 -45.191 74.779 -45.191 Q72.983 -45.191 71.75 -46.409 Q70.517 -47.627 70.517 -49.432 V-52.588 Z M36.237 -40.556  18.632 -58.089 Q17.259 -59.456 17.309 -60.998 Q17.358 -62.54 18.719 -63.93 Q20.08 -65.311 21.645 -65.311 Q23.21 -65.311 24.558 -63.93 L42.014 -46.419 L36.237 -40.556 Z"/></g><g id="Light-S" transform="matrix(1 0 0 1 1109.75 696)"><path d="M66.14 -12.053  53.424 -24.768  57.84 -29.085  70.517 -16.408 V-21.643 Q70.517 -23.028 71.446 -23.913 Q72.375 -24.798 73.752 -24.798 Q75.129 -24.798 76.028 -23.913 Q76.927 -23.028 76.927 -21.643 V-10.096 Q76.927 -8.255 75.621 -6.949 Q74.315 -5.643 72.474 -5.643 H60.912 Q59.527 -5.643 58.642 -6.572 Q57.756 -7.5 57.756 -8.878 Q57.756 -10.255 58.691 -11.154 Q59.625 -12.053 61.011 -12.053 H66.14 Z M70.517 -53.954  24.337 -7.795 Q23.252 -6.705 22.215 -6.735 Q21.178 -6.765 20.029 -7.919 Q18.875 -9.072 18.875 -10.145 Q18.875 -11.219 20.029 -12.372 L66.064 -58.418 H60.912 Q59.527 -58.418 58.647 -59.351 Q57.767 -60.284 57.767 -61.656 Q57.767 -63.027 58.696 -63.922 Q59.625 -64.817 61.011 -64.817 H72.474 Q74.315 -64.817 75.621 -63.511 Q76.927 -62.205 76.927 -60.364 V-48.916 Q76.927 -47.53 76.048 -46.645 Q75.168 -45.76 73.791 -45.76 Q72.413 -45.76 71.465 -46.695 Q70.517 -47.629 70.517 -49.015 V-53.954 Z M36.655 -41.542  19.884 -58.24 Q18.777 -59.343 18.845 -60.448 Q18.913 -61.554 20.001 -62.678 Q21.08 -63.793 22.221 -63.793 Q23.362 -63.793 24.444 -62.678 L41.028 -46.001 L36.655 -41.542 Z"/></g><g id="Thin-S" transform="matrix(1 0 0 1 814.015 696)"><path d="M67.581 -12.053  54.183 -25.451  57.195 -28.364  70.517 -15.042 V-22.06 Q70.517 -23.026 71.163 -23.628 Q71.808 -24.23 72.767 -24.23 Q73.726 -24.23 74.34 -23.628 Q74.955 -23.026 74.955 -22.06 V-11.689 Q74.955 -10.009 73.758 -8.812 Q72.561 -7.615 70.881 -7.615 H60.381 Q59.415 -7.615 58.813 -8.261 Q58.212 -8.906 58.212 -9.865 Q58.212 -10.824 58.862 -11.439 Q59.513 -12.053 60.48 -12.053 H67.581 Z M70.517 -55.319  24.269 -9.095 Q23.441 -8.26 22.841 -8.271 Q22.24 -8.283 21.318 -9.208 Q20.393 -10.134 20.393 -10.752 Q20.393 -11.37 21.318 -12.296 L67.429 -58.401 H60.381 Q59.415 -58.401 58.819 -59.059 Q58.223 -59.718 58.223 -60.671 Q58.223 -61.624 58.868 -62.235 Q59.513 -62.845 60.48 -62.845 H70.881 Q72.561 -62.845 73.758 -61.648 Q74.955 -60.451 74.955 -58.771 V-48.499 Q74.955 -47.532 74.359 -46.931 Q73.762 -46.329 72.803 -46.329 Q71.845 -46.329 71.181 -46.98 Q70.517 -47.631 70.517 -48.598 V-55.319 Z M37.072 -42.528  21.135 -58.392 Q20.294 -59.229 20.381 -59.898 Q20.468 -60.568 21.283 -61.426 Q22.079 -62.276 22.796 -62.276 Q23.513 -62.276 24.33 -61.426 L40.042 -45.584 L37.072 -42.528 Z"/></g><g id="Ultralight-S" transform="matrix(1 0 0 1 517.792 696)"><path d="M68.446 -12.053  54.638 -25.861  56.808 -27.932  70.517 -14.223 V-22.31 Q70.517 -23.025 70.993 -23.457 Q71.469 -23.888 72.176 -23.888 Q72.884 -23.888 73.328 -23.457 Q73.772 -23.025 73.772 -22.31 V-12.645 Q73.772 -11.062 72.64 -9.93 Q71.508 -8.798 69.925 -8.798 H60.063 Q59.348 -8.798 58.916 -9.274 Q58.485 -9.75 58.485 -10.458 Q58.485 -11.165 58.965 -11.609 Q59.446 -12.053 60.161 -12.053 H68.446 Z M70.517 -56.138  24.229 -9.875 Q23.555 -9.193 23.216 -9.193 Q22.877 -9.193 22.092 -9.982 Q21.303 -10.771 21.303 -11.116 Q21.303 -11.461 22.092 -12.25 L68.249 -58.39 H60.063 Q59.348 -58.39 58.922 -58.884 Q58.496 -59.378 58.496 -60.08 Q58.496 -60.782 58.971 -61.222 Q59.446 -61.661 60.161 -61.661 H69.925 Q71.508 -61.661 72.64 -60.53 Q73.772 -59.398 73.772 -57.815 V-48.248 Q73.772 -47.533 73.345 -47.102 Q72.918 -46.67 72.211 -46.67 Q71.503 -46.67 71.01 -47.151 Q70.517 -47.632 70.517 -48.347 V-56.138 Z M37.322 -43.12  21.886 -58.483 Q21.204 -59.16 21.303 -59.568 Q21.402 -59.976 22.053 -60.675 Q22.679 -61.366 23.142 -61.366 Q23.604 -61.366 24.262 -60.675 L39.45 -45.334 L37.322 -43.12 Z"/></g></g></svg>