<svg xmlns="http://www.w3.org/2000/svg" version="1.1" width="3300" height="2000"><g id="Notes"><style>
    text {
      font-family: monospace;
      text-anchor: middle;
    }
    text.emphasis {
      font-weight:bold;
    }
    text.lanchor {
      text-anchor: start;
    }
  </style><rect height="2200" id="artboard" fill="white" width="3300" x="0" y="0"/><line id="" style="fill:none;stroke:black;stroke-width:0.5;" x1="263" x2="3036" y1="292" y2="292"/><text class="lanchor emphasis" transform="matrix(1 0 0 1 263 322)">Weight/Scale Variations</text><text transform="matrix(1 0 0 1 559.711 322)">Ultralight</text><text transform="matrix(1 0 0 1 856.422 322)">Thin</text><text transform="matrix(1 0 0 1 1153.13 322)">Light</text><text transform="matrix(1 0 0 1 1449.84 322)">Regular</text><text transform="matrix(1 0 0 1 1746.56 322)">Medium</text><text transform="matrix(1 0 0 1 2043.27 322)">Semibold</text><text transform="matrix(1 0 0 1 2339.98 322)">Bold</text><text transform="matrix(1 0 0 1 2636.69 322)">Heavy</text><text transform="matrix(1 0 0 1 2933.4 322)">Black</text><text id="template-version" style="text-anchor: end;" transform="matrix(1 0 0 1 3036 1933)">Template v.1.0</text><text class="lanchor" transform="matrix(1 0 0 1 263 726)">Small</text><text class="lanchor" transform="matrix(1 0 0 1 263 1156)">Medium</text><text class="lanchor" transform="matrix(1 0 0 1 263 1586)">Large</text></g><g id="Guides"><g id="H-reference" style="fill:#27AAE1;stroke:none;" transform="matrix(1 0 0 1 339 696)"><path d="M 54.9316 0 L 57.666 0 L 30.5664 -70.459 L 28.0762 -70.459 L 0.976562 0 L 3.66211 0 L 12.9395 -24.4629 L 45.7031 -24.4629 Z M 29.1992 -67.0898 L 29.4434 -67.0898 L 44.8242 -26.709 L 13.8184 -26.709 Z"/></g><line id="Baseline-S" style="fill:none;stroke:#27AAE1;opacity:1;stroke-width:0.577;" x1="263" x2="3036" y1="696" y2="696"/><line id="Capline-S" style="fill:none;stroke:#27AAE1;opacity:1;stroke-width:0.577;" x1="263" x2="3036" y1="625.541" y2="625.541"/><g id="H-reference" style="fill:#27AAE1;stroke:none;" transform="matrix(1 0 0 1 339 1126)"><path d="M 54.9316 0 L 57.666 0 L 30.5664 -70.459 L 28.0762 -70.459 L 0.976562 0 L 3.66211 0 L 12.9395 -24.4629 L 45.7031 -24.4629 Z M 29.1992 -67.0898 L 29.4434 -67.0898 L 44.8242 -26.709 L 13.8184 -26.709 Z"/></g><line id="Baseline-M" style="fill:none;stroke:#27AAE1;opacity:1;stroke-width:0.577;" x1="263" x2="3036" y1="1126" y2="1126"/><line id="Capline-M" style="fill:none;stroke:#27AAE1;opacity:1;stroke-width:0.577;" x1="263" x2="3036" y1="1055.54" y2="1055.54"/><g id="H-reference" style="fill:#27AAE1;stroke:none;" transform="matrix(1 0 0 1 339 1556)"><path d="M 54.9316 0 L 57.666 0 L 30.5664 -70.459 L 28.0762 -70.459 L 0.976562 0 L 3.66211 0 L 12.9395 -24.4629 L 45.7031 -24.4629 Z M 29.1992 -67.0898 L 29.4434 -67.0898 L 44.8242 -26.709 L 13.8184 -26.709 Z"/></g><line id="Baseline-L" style="fill:none;stroke:#27AAE1;opacity:1;stroke-width:0.577;" x1="263" x2="3036" y1="1556" y2="1556"/><line id="Capline-L" style="fill:none;stroke:#27AAE1;opacity:1;stroke-width:0.577;" x1="263" x2="3036" y1="1485.54" y2="1485.54"/><rect height="119.336" id="left-margin" style="fill:darkred;stroke:none;opacity:0.4;" width="12.4512" x="1394.06" y="1030.79"/><rect height="119.336" id="right-margin" style="fill:darkgreen;stroke:none;opacity:0.4;" width="12.4512" x="1502.5112" y="1030.79"/><rect x="1406.5112" y="1045" width="96" height="96" fill="none" stroke="blue" stroke-dasharray="5"/><rect x="1394.06" y="1030.79" width="120.9024" height="119.336" fill="none" stroke="blue"/></g><g id="Symbols"><g id="Bold-L" transform="matrix(1 0 0 1 2266 1556)"><path d="M17.899 -2.657 H137.062 Q140.287 -2.657 142.464 -0.481 Q144.641 1.696 144.641 4.921 Q144.641 8.146 142.384 10.404 Q140.126 12.661 136.901 12.661 H17.738 Q14.513 12.661 12.336 10.404 Q10.159 8.146 10.159 4.921 Q10.159 1.696 12.416 -0.481 Q14.674 -2.657 17.899 -2.657 Z M23.381 -40.067  19.834 -33.779 Q18.866 -32.005 17.093 -31.521 Q15.319 -31.037 13.706 -32.005 Q11.933 -32.811 11.368 -34.666 Q10.804 -36.52 11.933 -38.294 L15.48 -44.582 H8.224 Q6.289 -44.582 4.999 -46.034 Q3.709 -47.485 3.709 -49.259 Q3.709 -51.032 5.079 -52.403 Q6.45 -53.774 8.385 -53.774 H15.48 L11.933 -60.062 Q10.804 -61.836 11.287 -63.691 Q11.771 -65.545 13.545 -66.351 Q15.158 -67.319 17.012 -66.835 Q18.866 -66.351 19.834 -64.577 L23.381 -58.289 L26.929 -64.739 Q27.735 -66.512 29.428 -66.916 Q31.121 -67.319 32.895 -66.351 Q34.669 -65.545 35.233 -63.691 Q35.797 -61.836 34.669 -60.062 L31.121 -53.774 H38.377 Q40.151 -53.774 41.522 -52.403 Q42.892 -51.032 42.892 -49.259 Q42.892 -47.485 41.522 -46.034 Q40.151 -44.582 38.377 -44.582 H31.121 L34.83 -38.132 Q35.797 -36.52 35.314 -34.666 Q34.83 -32.811 33.218 -32.005 Q31.444 -31.037 29.589 -31.682 Q27.735 -32.327 26.929 -33.94 L23.381 -40.067 Z M77.4 -40.067  74.014 -33.94 Q73.207 -32.166 71.273 -31.602 Q69.338 -31.037 67.564 -32.166 Q65.79 -33.134 65.387 -34.988 Q64.984 -36.842 65.951 -38.616 L69.66 -44.905 H62.242 Q60.469 -44.905 59.098 -46.356 Q57.727 -47.807 57.727 -49.581 Q57.727 -51.355 59.179 -52.726 Q60.63 -54.096 62.404 -54.096 H69.66 L65.951 -60.385 Q64.984 -62.159 65.387 -64.013 Q65.79 -65.867 67.564 -66.674 Q69.338 -67.641 71.192 -67.157 Q73.046 -66.674 73.853 -64.9 L77.4 -58.611 L80.948 -65.061 Q81.754 -66.835 83.528 -67.238 Q85.301 -67.641 87.075 -66.674 Q88.849 -65.706 89.413 -63.932 Q89.978 -62.159 88.849 -60.385 L85.301 -54.096 H92.558 Q94.331 -54.096 95.702 -52.726 Q97.073 -51.355 97.073 -49.581 Q97.073 -47.807 95.702 -46.356 Q94.331 -44.905 92.558 -44.905 H85.301 L89.171 -38.616 Q90.139 -36.842 89.574 -34.988 Q89.01 -33.134 87.398 -32.166 Q85.624 -31.037 83.608 -31.682 Q81.593 -32.327 80.786 -34.101 L77.4 -40.067 Z M131.419 -40.067  128.032 -33.779 Q127.065 -32.005 125.211 -31.521 Q123.356 -31.037 121.583 -32.166 Q119.97 -33.134 119.486 -34.988 Q119.002 -36.842 119.97 -38.455 L123.84 -44.905 H116.422 Q114.649 -44.905 113.278 -46.356 Q111.907 -47.807 111.907 -49.581 Q111.907 -51.355 113.359 -52.726 Q114.81 -54.096 116.584 -54.096 H123.84 L120.131 -60.546 Q119.164 -62.159 119.567 -64.013 Q119.97 -65.867 121.583 -66.674 Q123.356 -67.641 125.211 -67.157 Q127.065 -66.674 128.032 -64.9 L131.419 -58.611 L134.966 -65.061 Q135.934 -66.835 137.708 -67.238 Q139.481 -67.641 141.094 -66.674 Q142.868 -65.706 143.432 -63.932 Q143.996 -62.159 143.029 -60.385 L139.32 -54.096 H146.576 Q148.511 -54.096 149.801 -52.726 Q151.091 -51.355 151.091 -49.581 Q151.091 -47.807 149.801 -46.356 Q148.511 -44.905 146.576 -44.905 H139.32 L143.19 -38.616 Q144.157 -36.842 143.674 -34.988 Q143.19 -33.134 141.416 -32.166 Q139.643 -31.037 137.708 -31.682 Q135.773 -32.327 134.805 -34.101 L131.419 -40.067 Z"/></g><g id="Semibold-L" transform="matrix(1 0 0 1 1970.27 1556)"><path d="M17.899 -1.466 H137.062 Q139.797 -1.466 141.623 0.361 Q143.449 2.187 143.449 4.921 Q143.449 7.656 141.543 9.563 Q139.636 11.469 136.901 11.469 H17.738 Q15.003 11.469 13.177 9.563 Q11.351 7.656 11.351 4.921 Q11.351 2.187 13.257 0.361 Q15.164 -1.466 17.899 -1.466 Z M24.152 -40.839  20.254 -33.919 Q19.357 -32.356 17.758 -31.907 Q16.16 -31.458 14.688 -32.356 Q13.124 -33.162 12.595 -34.841 Q12.066 -36.52 13.054 -38.083 L17.022 -45.003 H8.995 Q7.27 -45.003 6.085 -46.314 Q4.901 -47.625 4.901 -49.259 Q4.901 -50.892 6.166 -52.123 Q7.432 -53.353 9.156 -53.353 H17.022 L13.054 -60.273 Q12.066 -61.836 12.514 -63.515 Q12.963 -65.194 14.527 -66.001 Q15.999 -66.898 17.678 -66.414 Q19.357 -65.931 20.254 -64.367 L24.152 -57.518 L28.05 -64.528 Q28.857 -66.092 30.41 -66.495 Q31.962 -66.898 33.526 -66.001 Q35.089 -65.194 35.619 -63.515 Q36.148 -61.836 35.159 -60.273 L31.191 -53.353 H39.219 Q40.852 -53.353 42.083 -52.123 Q43.313 -50.892 43.313 -49.259 Q43.313 -47.625 42.083 -46.314 Q40.852 -45.003 39.219 -45.003 H31.191 L35.251 -37.992 Q36.148 -36.52 35.699 -34.841 Q35.251 -33.162 33.778 -32.356 Q32.215 -31.458 30.536 -32.033 Q28.857 -32.608 28.05 -34.08 L24.152 -40.839 Z M77.4 -40.839  73.663 -34.08 Q72.857 -32.517 71.097 -32.023 Q69.338 -31.528 67.774 -32.517 Q66.211 -33.414 65.808 -35.128 Q65.404 -36.842 66.302 -38.406 L70.361 -45.326 H62.242 Q60.609 -45.326 59.379 -46.637 Q58.148 -47.948 58.148 -49.581 Q58.148 -51.215 59.459 -52.445 Q60.77 -53.676 62.404 -53.676 H70.361 L66.302 -60.595 Q65.404 -62.159 65.808 -63.838 Q66.211 -65.517 67.774 -66.323 Q69.338 -67.221 71.017 -66.737 Q72.696 -66.253 73.502 -64.69 L77.4 -57.84 L81.298 -64.851 Q82.104 -66.414 83.703 -66.817 Q85.301 -67.221 86.865 -66.323 Q88.428 -65.426 88.957 -63.792 Q89.487 -62.159 88.498 -60.595 L84.53 -53.676 H92.558 Q94.191 -53.676 95.421 -52.445 Q96.652 -51.215 96.652 -49.581 Q96.652 -47.948 95.421 -46.637 Q94.191 -45.326 92.558 -45.326 H84.53 L88.751 -38.406 Q89.648 -36.842 89.119 -35.128 Q88.589 -33.414 87.117 -32.517 Q85.554 -31.528 83.748 -32.103 Q81.943 -32.678 81.137 -34.242 L77.4 -40.839 Z M130.648 -40.839  126.911 -33.989 Q126.013 -32.426 124.299 -31.977 Q122.585 -31.528 121.022 -32.517 Q119.549 -33.414 119.101 -35.128 Q118.652 -36.842 119.549 -38.315 L123.7 -45.326 H115.581 Q113.948 -45.326 112.717 -46.637 Q111.487 -47.948 111.487 -49.581 Q111.487 -51.215 112.798 -52.445 Q114.109 -53.676 115.743 -53.676 H123.7 L119.641 -60.687 Q118.743 -62.159 119.146 -63.838 Q119.549 -65.517 121.022 -66.323 Q122.585 -67.221 124.264 -66.737 Q125.943 -66.253 126.841 -64.69 L130.648 -57.84 L134.546 -64.851 Q135.443 -66.414 137.042 -66.817 Q138.64 -67.221 140.112 -66.323 Q141.676 -65.426 142.205 -63.792 Q142.734 -62.159 141.837 -60.595 L137.778 -53.676 H145.805 Q147.53 -53.676 148.715 -52.445 Q149.899 -51.215 149.899 -49.581 Q149.899 -47.948 148.715 -46.637 Q147.53 -45.326 145.805 -45.326 H137.778 L141.998 -38.406 Q142.896 -36.842 142.412 -35.128 Q141.928 -33.414 140.365 -32.517 Q138.801 -31.528 137.042 -32.103 Q135.282 -32.678 134.384 -34.242 L130.648 -40.839 Z"/></g><g id="Medium-L" transform="matrix(1 0 0 1 1674.31 1556)"><path d="M17.899 -0.572 H137.062 Q139.429 -0.572 140.992 0.992 Q142.555 2.555 142.555 4.921 Q142.555 7.287 140.912 8.932 Q139.267 10.575 136.901 10.575 H17.738 Q15.371 10.575 13.808 8.932 Q12.245 7.287 12.245 4.921 Q12.245 2.555 13.888 0.992 Q15.533 -0.572 17.899 -0.572 Z M24.731 -41.417  20.57 -34.024 Q19.725 -32.618 18.258 -32.196 Q16.791 -31.774 15.424 -32.618 Q14.018 -33.425 13.515 -34.972 Q13.012 -36.52 13.896 -37.926 L18.179 -45.319 H9.573 Q8.006 -45.319 6.9 -46.524 Q5.795 -47.73 5.795 -49.259 Q5.795 -50.787 6.981 -51.912 Q8.168 -53.038 9.735 -53.038 H18.179 L13.896 -60.431 Q13.012 -61.836 13.435 -63.384 Q13.857 -64.932 15.263 -65.738 Q16.63 -66.583 18.177 -66.099 Q19.725 -65.615 20.57 -64.209 L24.731 -56.939 L28.892 -64.371 Q29.698 -65.776 31.146 -66.18 Q32.593 -66.583 33.999 -65.738 Q35.405 -64.932 35.908 -63.384 Q36.411 -61.836 35.528 -60.431 L31.244 -53.038 H39.85 Q41.378 -53.038 42.503 -51.912 Q43.629 -50.787 43.629 -49.259 Q43.629 -47.73 42.503 -46.524 Q41.378 -45.319 39.85 -45.319 H31.244 L35.566 -37.887 Q36.411 -36.52 35.989 -34.972 Q35.566 -33.425 34.199 -32.618 Q32.793 -31.774 31.246 -32.296 Q29.698 -32.818 28.892 -34.185 L24.731 -41.417 Z M77.4 -41.417  73.4 -34.185 Q72.594 -32.78 70.966 -32.338 Q69.338 -31.896 67.932 -32.78 Q66.526 -33.624 66.123 -35.234 Q65.72 -36.842 66.565 -38.248 L70.887 -45.641 H62.242 Q60.714 -45.641 59.589 -46.847 Q58.464 -48.053 58.464 -49.581 Q58.464 -51.11 59.669 -52.235 Q60.875 -53.36 62.404 -53.36 H70.887 L66.565 -60.753 Q65.72 -62.159 66.123 -63.706 Q66.526 -65.254 67.932 -66.06 Q69.338 -66.905 70.885 -66.421 Q72.433 -65.938 73.239 -64.532 L77.4 -57.262 L81.561 -64.693 Q82.367 -66.099 83.834 -66.502 Q85.301 -66.905 86.707 -66.06 Q88.113 -65.216 88.616 -63.687 Q89.119 -62.159 88.235 -60.753 L83.952 -53.36 H92.558 Q94.086 -53.36 95.211 -52.235 Q96.336 -51.11 96.336 -49.581 Q96.336 -48.053 95.211 -46.847 Q94.086 -45.641 92.558 -45.641 H83.952 L88.435 -38.248 Q89.28 -36.842 88.777 -35.234 Q88.274 -33.624 86.907 -32.78 Q85.501 -31.896 83.854 -32.419 Q82.206 -32.941 81.4 -34.347 L77.4 -41.417 Z M130.069 -41.417  126.069 -34.147 Q125.225 -32.741 123.616 -32.319 Q122.007 -31.896 120.601 -32.78 Q119.234 -33.624 118.811 -35.234 Q118.389 -36.842 119.234 -38.21 L123.595 -45.641 H114.95 Q113.422 -45.641 112.297 -46.847 Q111.171 -48.053 111.171 -49.581 Q111.171 -51.11 112.377 -52.235 Q113.583 -53.36 115.112 -53.36 H123.595 L119.272 -60.792 Q118.428 -62.159 118.831 -63.706 Q119.234 -65.254 120.601 -66.06 Q122.007 -66.905 123.554 -66.421 Q125.102 -65.938 125.947 -64.532 L130.069 -57.262 L134.23 -64.693 Q135.075 -66.099 136.542 -66.502 Q138.009 -66.905 139.376 -66.06 Q140.782 -65.216 141.285 -63.687 Q141.788 -62.159 140.943 -60.753 L136.621 -53.36 H145.227 Q146.794 -53.36 147.9 -52.235 Q149.005 -51.11 149.005 -49.581 Q149.005 -48.053 147.9 -46.847 Q146.794 -45.641 145.227 -45.641 H136.621 L141.104 -38.248 Q141.949 -36.842 141.465 -35.234 Q140.982 -33.624 139.576 -32.78 Q138.17 -31.896 136.542 -32.419 Q134.914 -32.941 134.069 -34.347 L130.069 -41.417 Z"/></g><g id="Regular-L" transform="matrix(1 0 0 1 1378.56 1556)"><path d="M17.899 0.084 H137.062 Q139.159 0.084 140.529 1.454 Q141.9 2.825 141.9 4.921 Q141.9 7.018 140.449 8.469 Q138.998 9.92 136.901 9.92 H17.738 Q15.641 9.92 14.271 8.469 Q12.9 7.018 12.9 4.921 Q12.9 2.825 14.351 1.454 Q15.803 0.084 17.899 0.084 Z M25.155 -41.841  20.801 -34.101 Q19.995 -32.811 18.624 -32.408 Q17.254 -32.005 15.964 -32.811 Q14.674 -33.617 14.19 -35.069 Q13.706 -36.52 14.513 -37.81 L19.027 -45.55 H9.998 Q8.546 -45.55 7.498 -46.679 Q6.45 -47.807 6.45 -49.259 Q6.45 -50.71 7.579 -51.758 Q8.707 -52.806 10.159 -52.806 H19.027 L14.513 -60.546 Q13.706 -61.836 14.109 -63.287 Q14.513 -64.739 15.803 -65.545 Q17.093 -66.351 18.544 -65.867 Q19.995 -65.384 20.801 -64.094 L25.155 -56.515 L29.509 -64.255 Q30.315 -65.545 31.686 -65.948 Q33.056 -66.351 34.346 -65.545 Q35.636 -64.739 36.12 -63.287 Q36.604 -61.836 35.797 -60.546 L31.283 -52.806 H40.312 Q41.764 -52.806 42.812 -51.758 Q43.86 -50.71 43.86 -49.259 Q43.86 -47.807 42.812 -46.679 Q41.764 -45.55 40.312 -45.55 H31.283 L35.797 -37.81 Q36.604 -36.52 36.201 -35.069 Q35.797 -33.617 34.508 -32.811 Q33.218 -32.005 31.766 -32.489 Q30.315 -32.972 29.509 -34.262 L25.155 -41.841 Z M77.4 -41.841  73.207 -34.262 Q72.401 -32.972 70.869 -32.569 Q69.338 -32.166 68.047 -32.972 Q66.758 -33.779 66.354 -35.311 Q65.951 -36.842 66.758 -38.132 L71.273 -45.872 H62.242 Q60.791 -45.872 59.743 -47.001 Q58.695 -48.13 58.695 -49.581 Q58.695 -51.032 59.824 -52.081 Q60.953 -53.129 62.404 -53.129 H71.273 L66.758 -60.869 Q65.951 -62.159 66.354 -63.61 Q66.758 -65.061 68.047 -65.867 Q69.338 -66.674 70.789 -66.19 Q72.24 -65.706 73.046 -64.416 L77.4 -56.837 L81.754 -64.577 Q82.56 -65.867 83.931 -66.271 Q85.301 -66.674 86.591 -65.867 Q87.881 -65.061 88.365 -63.61 Q88.849 -62.159 88.043 -60.869 L83.528 -53.129 H92.558 Q94.009 -53.129 95.057 -52.081 Q96.105 -51.032 96.105 -49.581 Q96.105 -48.13 95.057 -47.001 Q94.009 -45.872 92.558 -45.872 H83.528 L88.204 -38.132 Q89.01 -36.842 88.526 -35.311 Q88.043 -33.779 86.752 -32.972 Q85.463 -32.166 83.931 -32.65 Q82.399 -33.134 81.593 -34.424 L77.4 -41.841 Z M129.645 -41.841  125.453 -34.262 Q124.646 -32.972 123.114 -32.569 Q121.583 -32.166 120.293 -32.972 Q119.002 -33.779 118.599 -35.311 Q118.196 -36.842 119.002 -38.132 L123.517 -45.872 H114.487 Q113.036 -45.872 111.988 -47.001 Q110.94 -48.13 110.94 -49.581 Q110.94 -51.032 112.069 -52.081 Q113.198 -53.129 114.649 -53.129 H123.517 L119.002 -60.869 Q118.196 -62.159 118.599 -63.61 Q119.002 -65.061 120.293 -65.867 Q121.583 -66.674 123.034 -66.19 Q124.485 -65.706 125.291 -64.416 L129.645 -56.837 L133.999 -64.577 Q134.805 -65.867 136.176 -66.271 Q137.546 -66.674 138.836 -65.867 Q140.126 -65.061 140.61 -63.61 Q141.094 -62.159 140.287 -60.869 L135.773 -53.129 H144.803 Q146.254 -53.129 147.302 -52.081 Q148.35 -51.032 148.35 -49.581 Q148.35 -48.13 147.302 -47.001 Q146.254 -45.872 144.803 -45.872 H135.773 L140.449 -38.132 Q141.255 -36.842 140.771 -35.311 Q140.287 -33.779 138.998 -32.972 Q137.708 -32.166 136.176 -32.65 Q134.644 -33.134 133.838 -34.424 L129.645 -41.841 Z"/></g><g id="Light-L" transform="matrix(1 0 0 1 1082.77 1556)"><path d="M18.271 0.89 H136.628 Q138.225 0.89 139.256 1.922 Q140.287 2.953 140.287 4.551 Q140.287 6.149 139.207 7.228 Q138.126 8.307 136.529 8.307 H18.172 Q16.575 8.307 15.544 7.226 Q14.513 6.145 14.513 4.547 Q14.513 2.949 15.593 1.92 Q16.674 0.89 18.271 0.89 Z M25.341 -43.02  20.429 -34.411 Q19.821 -33.296 18.693 -32.992 Q17.564 -32.687 16.515 -33.297 Q15.405 -33.969 15.052 -35.151 Q14.699 -36.334 15.319 -37.376 L20.33 -46.046 H10.37 Q9.162 -46.046 8.302 -46.955 Q7.442 -47.864 7.442 -49.07 Q7.442 -50.214 8.352 -51.076 Q9.262 -51.938 10.469 -51.938 H20.33 L15.319 -60.484 Q14.699 -61.588 15.002 -62.74 Q15.306 -63.891 16.354 -64.563 Q17.465 -65.173 18.643 -64.819 Q19.821 -64.464 20.429 -63.412 L25.341 -54.964 L30.191 -63.511 Q30.861 -64.564 31.958 -64.868 Q33.056 -65.173 34.167 -64.563 Q35.277 -63.891 35.63 -62.74 Q35.984 -61.588 35.301 -60.484 L30.352 -51.938 H40.312 Q41.52 -51.938 42.38 -51.079 Q43.24 -50.22 43.24 -49.076 Q43.24 -47.87 42.38 -46.958 Q41.52 -46.046 40.312 -46.046 H30.352 L35.301 -37.376 Q35.984 -36.334 35.68 -35.151 Q35.377 -33.969 34.266 -33.297 Q33.218 -32.687 32.039 -33.042 Q30.861 -33.396 30.191 -34.511 L25.341 -43.02 Z M77.4 -43.02  72.649 -34.511 Q71.979 -33.396 70.752 -33.091 Q69.524 -32.786 68.475 -33.458 Q67.364 -34.068 67.061 -35.3 Q66.758 -36.532 67.44 -37.636 L72.389 -46.245 H62.429 Q61.221 -46.245 60.361 -47.153 Q59.501 -48.062 59.501 -49.268 Q59.501 -50.474 60.411 -51.336 Q61.32 -52.198 62.528 -52.198 H72.389 L67.44 -60.745 Q66.758 -61.787 67.061 -62.969 Q67.364 -64.152 68.475 -64.823 Q69.524 -65.433 70.702 -65.079 Q71.88 -64.725 72.55 -63.61 L77.4 -55.225 L82.25 -63.709 Q82.92 -64.824 84.018 -65.129 Q85.115 -65.433 86.226 -64.823 Q87.336 -64.152 87.689 -62.969 Q88.043 -61.787 87.422 -60.745 L82.411 -52.198 H92.371 Q93.579 -52.198 94.439 -51.339 Q95.299 -50.48 95.299 -49.274 Q95.299 -48.068 94.439 -47.156 Q93.579 -46.245 92.371 -46.245 H82.411 L87.522 -37.636 Q88.142 -36.532 87.789 -35.3 Q87.436 -34.068 86.325 -33.458 Q85.276 -32.786 84.048 -33.172 Q82.821 -33.557 82.151 -34.61 L77.4 -43.02 Z M129.459 -43.02  124.708 -34.511 Q124.1 -33.396 122.842 -33.091 Q121.583 -32.786 120.534 -33.458 Q119.423 -34.068 119.12 -35.3 Q118.816 -36.532 119.499 -37.636 L124.448 -46.245 H114.487 Q113.28 -46.245 112.42 -47.153 Q111.56 -48.062 111.56 -49.268 Q111.56 -50.474 112.47 -51.336 Q113.379 -52.198 114.587 -52.198 H124.448 L119.499 -60.745 Q118.816 -61.787 119.12 -62.969 Q119.423 -64.152 120.534 -64.823 Q121.583 -65.433 122.761 -65.079 Q123.939 -64.725 124.609 -63.61 L129.459 -55.225 L134.371 -63.709 Q134.979 -64.824 136.107 -65.129 Q137.236 -65.433 138.285 -64.823 Q139.395 -64.152 139.748 -62.969 Q140.101 -61.787 139.481 -60.745 L134.47 -52.198 H144.43 Q145.638 -52.198 146.498 -51.339 Q147.358 -50.48 147.358 -49.274 Q147.358 -48.068 146.498 -47.156 Q145.638 -46.245 144.43 -46.245 H134.47 L139.58 -37.636 Q140.263 -36.532 139.879 -35.3 Q139.494 -34.068 138.446 -33.458 Q137.335 -32.786 136.107 -33.172 Q134.879 -33.557 134.21 -34.61 L129.459 -43.02 Z"/></g><g id="Thin-L" transform="matrix(1 0 0 1 787.282 1556)"><path d="M18.643 1.696 H136.194 Q137.292 1.696 137.984 2.389 Q138.675 3.082 138.675 4.181 Q138.675 5.281 137.965 5.988 Q137.255 6.695 136.157 6.695 H18.606 Q17.508 6.695 16.816 5.984 Q16.125 5.272 16.125 4.173 Q16.125 3.073 16.835 2.385 Q17.545 1.696 18.643 1.696 Z M25.527 -44.198  20.057 -34.721 Q19.648 -33.782 18.761 -33.576 Q17.874 -33.369 17.067 -33.783 Q16.136 -34.32 15.913 -35.234 Q15.691 -36.148 16.125 -36.942 L21.632 -46.542 H10.742 Q9.778 -46.542 9.106 -47.231 Q8.435 -47.92 8.435 -48.881 Q8.435 -49.718 9.125 -50.394 Q9.816 -51.07 10.779 -51.07 H21.632 L16.125 -60.422 Q15.691 -61.34 15.895 -62.192 Q16.098 -63.044 16.906 -63.581 Q17.837 -63.995 18.742 -63.77 Q19.648 -63.545 20.057 -62.729 L25.527 -53.414 L30.873 -62.767 Q31.407 -63.582 32.231 -63.788 Q33.056 -63.995 33.987 -63.581 Q34.919 -63.044 35.141 -62.192 Q35.363 -61.34 34.805 -60.422 L29.422 -51.07 H40.312 Q41.276 -51.07 41.948 -50.399 Q42.62 -49.729 42.62 -48.892 Q42.62 -47.932 41.948 -47.237 Q41.276 -46.542 40.312 -46.542 H29.422 L34.805 -36.942 Q35.363 -36.148 35.16 -35.234 Q34.956 -34.32 34.025 -33.783 Q33.218 -33.369 32.312 -33.594 Q31.407 -33.819 30.873 -34.759 L25.527 -44.198 Z M77.4 -44.198  72.091 -34.759 Q71.558 -33.819 70.634 -33.613 Q69.71 -33.407 68.902 -33.944 Q67.971 -34.358 67.768 -35.29 Q67.564 -36.222 68.122 -37.14 L73.505 -46.617 H62.615 Q61.651 -46.617 60.979 -47.306 Q60.308 -47.994 60.308 -48.955 Q60.308 -49.916 60.998 -50.592 Q61.688 -51.268 62.652 -51.268 H73.505 L68.122 -60.621 Q67.564 -61.415 67.768 -62.328 Q67.971 -63.242 68.902 -63.779 Q69.71 -64.193 70.615 -63.968 Q71.521 -63.744 72.054 -62.804 L77.4 -53.612 L82.746 -62.841 Q83.279 -63.781 84.104 -63.987 Q84.929 -64.193 85.86 -63.779 Q86.792 -63.242 87.014 -62.328 Q87.236 -61.415 86.802 -60.621 L81.295 -51.268 H92.185 Q93.149 -51.268 93.821 -50.598 Q94.493 -49.928 94.493 -48.967 Q94.493 -48.006 93.821 -47.311 Q93.149 -46.617 92.185 -46.617 H81.295 L86.839 -37.14 Q87.273 -36.222 87.051 -35.29 Q86.829 -34.358 85.898 -33.944 Q85.09 -33.407 84.166 -33.693 Q83.242 -33.98 82.709 -34.796 L77.4 -44.198 Z M129.273 -44.198  123.964 -34.759 Q123.555 -33.819 122.569 -33.613 Q121.583 -33.407 120.775 -33.944 Q119.844 -34.358 119.64 -35.29 Q119.437 -36.222 119.995 -37.14 L125.378 -46.617 H114.487 Q113.524 -46.617 112.852 -47.306 Q112.18 -47.994 112.18 -48.955 Q112.18 -49.916 112.871 -50.592 Q113.561 -51.268 114.525 -51.268 H125.378 L119.995 -60.621 Q119.437 -61.415 119.64 -62.328 Q119.844 -63.242 120.775 -63.779 Q121.583 -64.193 122.488 -63.968 Q123.393 -63.744 123.927 -62.804 L129.273 -53.612 L134.743 -62.841 Q135.152 -63.781 136.039 -63.987 Q136.926 -64.193 137.733 -63.779 Q138.664 -63.242 138.887 -62.328 Q139.109 -61.415 138.675 -60.621 L133.168 -51.268 H144.058 Q145.022 -51.268 145.694 -50.598 Q146.365 -49.928 146.365 -48.967 Q146.365 -48.006 145.694 -47.311 Q145.022 -46.617 144.058 -46.617 H133.168 L138.712 -37.14 Q139.27 -36.222 138.986 -35.29 Q138.702 -34.358 137.894 -33.944 Q136.963 -33.407 136.039 -33.693 Q135.115 -33.98 134.582 -34.796 L129.273 -44.198 Z"/></g><g id="Ultralight-L" transform="matrix(1 0 0 1 491.205 1556)"><path d="M18.866 2.18 H135.934 Q136.732 2.18 137.22 2.669 Q137.708 3.159 137.708 3.959 Q137.708 4.76 137.22 5.244 Q136.732 5.728 135.934 5.728 H18.866 Q18.068 5.728 17.58 5.238 Q17.093 4.749 17.093 3.948 Q17.093 3.148 17.58 2.664 Q18.068 2.18 18.866 2.18 Z M25.639 -44.905  19.834 -34.907 Q19.544 -34.073 18.802 -33.926 Q18.06 -33.779 17.398 -34.074 Q16.574 -34.531 16.43 -35.284 Q16.286 -36.036 16.609 -36.681 L22.414 -46.84 H10.965 Q10.148 -46.84 9.589 -47.397 Q9.03 -47.954 9.03 -48.767 Q9.03 -49.42 9.589 -49.984 Q10.148 -50.549 10.965 -50.549 H22.414 L16.609 -60.385 Q16.286 -61.191 16.43 -61.863 Q16.574 -62.535 17.236 -62.992 Q18.06 -63.287 18.802 -63.14 Q19.544 -62.993 19.834 -62.32 L25.639 -52.484 L31.283 -62.32 Q31.734 -62.993 32.395 -63.14 Q33.056 -63.287 33.88 -62.992 Q34.703 -62.535 34.847 -61.863 Q34.991 -61.191 34.508 -60.385 L28.864 -50.549 H40.312 Q41.13 -50.549 41.688 -49.992 Q42.248 -49.435 42.248 -48.783 Q42.248 -47.969 41.688 -47.404 Q41.13 -46.84 40.312 -46.84 H28.864 L34.508 -36.681 Q34.991 -36.036 34.847 -35.284 Q34.703 -34.531 33.88 -34.074 Q33.218 -33.779 32.476 -33.926 Q31.734 -34.073 31.283 -34.907 L25.639 -44.905 Z M77.4 -44.905  71.756 -34.907 Q71.305 -34.073 70.563 -33.926 Q69.821 -33.779 69.159 -34.236 Q68.335 -34.531 68.191 -35.284 Q68.047 -36.036 68.531 -36.842 L74.175 -46.84 H62.726 Q61.909 -46.84 61.35 -47.397 Q60.791 -47.954 60.791 -48.767 Q60.791 -49.581 61.35 -50.146 Q61.909 -50.71 62.726 -50.71 H74.175 L68.531 -60.546 Q68.047 -61.191 68.191 -61.944 Q68.335 -62.696 69.159 -63.153 Q69.821 -63.449 70.563 -63.302 Q71.305 -63.155 71.756 -62.32 L77.4 -52.645 L83.044 -62.32 Q83.495 -63.155 84.156 -63.302 Q84.817 -63.449 85.641 -63.153 Q86.465 -62.696 86.609 -61.944 Q86.752 -61.191 86.43 -60.546 L80.625 -50.71 H92.074 Q92.891 -50.71 93.45 -50.153 Q94.009 -49.596 94.009 -48.783 Q94.009 -47.969 93.45 -47.404 Q92.891 -46.84 92.074 -46.84 H80.625 L86.43 -36.842 Q86.752 -36.036 86.609 -35.284 Q86.465 -34.531 85.641 -34.236 Q84.979 -33.779 84.237 -34.006 Q83.495 -34.234 83.044 -34.907 L77.4 -44.905 Z M129.161 -44.905  123.517 -34.907 Q123.227 -34.073 122.405 -33.926 Q121.583 -33.779 120.92 -34.236 Q120.097 -34.531 119.953 -35.284 Q119.809 -36.036 120.293 -36.842 L125.936 -46.84 H114.487 Q113.67 -46.84 113.112 -47.397 Q112.553 -47.954 112.553 -48.767 Q112.553 -49.581 113.112 -50.146 Q113.67 -50.71 114.487 -50.71 H125.936 L120.293 -60.546 Q119.809 -61.191 119.953 -61.944 Q120.097 -62.696 120.92 -63.153 Q121.583 -63.449 122.324 -63.302 Q123.066 -63.155 123.517 -62.32 L129.161 -52.645 L134.966 -62.32 Q135.256 -63.155 135.998 -63.302 Q136.74 -63.449 137.402 -63.153 Q138.226 -62.696 138.37 -61.944 Q138.514 -61.191 138.191 -60.546 L132.386 -50.71 H143.835 Q144.652 -50.71 145.211 -50.153 Q145.77 -49.596 145.77 -48.783 Q145.77 -47.969 145.211 -47.404 Q144.652 -46.84 143.835 -46.84 H132.386 L138.191 -36.842 Q138.675 -36.036 138.45 -35.284 Q138.226 -34.531 137.564 -34.236 Q136.74 -33.779 135.998 -34.006 Q135.256 -34.234 134.805 -34.907 L129.161 -44.905 Z"/></g><g id="Bold-M" transform="matrix(1 0 0 1 2281.8 1126)"><path d="M15 -13.105 H105 Q108.25 -13.105 110.562 -10.792 Q112.875 -8.48 112.875 -5.23 Q112.875 -1.98 110.562 0.333 Q108.25 2.645 105 2.645 H15 Q11.75 2.645 9.438 0.333 Q7.125 -1.98 7.125 -5.23 Q7.125 -8.48 9.438 -10.792 Q11.75 -13.105 15 -13.105 Z M18.125 -36.105  16.625 -33.355 Q15.625 -31.605 13.75 -31.042 Q11.875 -30.48 10.125 -31.48 Q8.375 -32.48 7.875 -34.355 Q7.375 -36.23 8.375 -37.98 L9.875 -40.73 H6.875 Q4.875 -40.73 3.5 -42.105 Q2.125 -43.48 2.125 -45.48 Q2.125 -47.48 3.5 -48.855 Q4.875 -50.23 6.875 -50.23 H9.875 L8.375 -52.73 Q7.375 -54.48 7.875 -56.355 Q8.375 -58.23 10.125 -59.23 Q11.875 -60.23 13.75 -59.73 Q15.625 -59.23 16.625 -57.48 L18.125 -54.855 L19.625 -57.48 Q20.625 -59.23 22.438 -59.73 Q24.25 -60.23 26 -59.23 Q27.75 -58.23 28.25 -56.355 Q28.75 -54.48 27.75 -52.73 L26.25 -50.23 H29.25 Q31.25 -50.23 32.625 -48.855 Q34 -47.48 34 -45.48 Q34 -43.48 32.625 -42.105 Q31.25 -40.73 29.25 -40.73 H26.25 L27.875 -37.855 Q28.875 -36.105 28.375 -34.292 Q27.875 -32.48 26.125 -31.48 Q24.375 -30.48 22.5 -31.042 Q20.625 -31.605 19.625 -33.355 L18.125 -36.105 Z M60 -36.105  58.5 -33.355 Q57.5 -31.605 55.625 -31.042 Q53.75 -30.48 52 -31.48 Q50.25 -32.48 49.75 -34.355 Q49.25 -36.23 50.25 -37.98 L51.75 -40.73 H48.75 Q46.75 -40.73 45.375 -42.105 Q44 -43.48 44 -45.48 Q44 -47.48 45.375 -48.855 Q46.75 -50.23 48.75 -50.23 H51.75 L50.25 -52.73 Q49.25 -54.48 49.75 -56.355 Q50.25 -58.23 52 -59.23 Q53.75 -60.23 55.625 -59.73 Q57.5 -59.23 58.5 -57.48 L60 -54.855 L61.5 -57.48 Q62.5 -59.23 64.375 -59.73 Q66.25 -60.23 68 -59.23 Q69.75 -58.23 70.25 -56.355 Q70.75 -54.48 69.75 -52.73 L68.25 -50.23 H71.25 Q73.25 -50.23 74.625 -48.855 Q76 -47.48 76 -45.48 Q76 -43.48 74.625 -42.105 Q73.25 -40.73 71.25 -40.73 H68.25 L69.875 -37.98 Q70.875 -36.23 70.375 -34.355 Q69.875 -32.48 68.125 -31.48 Q66.375 -30.48 64.438 -31.042 Q62.5 -31.605 61.5 -33.355 L60 -36.105 Z M101.875 -36.105  100.25 -33.23 Q99.25 -31.48 97.438 -30.98 Q95.625 -30.48 93.875 -31.48 Q92.125 -32.48 91.625 -34.292 Q91.125 -36.105 92.125 -37.855 L93.75 -40.73 H90.75 Q88.75 -40.73 87.375 -42.105 Q86 -43.48 86 -45.48 Q86 -47.48 87.375 -48.855 Q88.75 -50.23 90.75 -50.23 H93.75 L92.25 -52.855 Q91.25 -54.605 91.688 -56.417 Q92.125 -58.23 93.875 -59.23 Q95.625 -60.23 97.5 -59.73 Q99.375 -59.23 100.375 -57.48 L101.875 -54.855 L103.375 -57.48 Q104.375 -59.23 106.25 -59.73 Q108.125 -60.23 109.875 -59.23 Q111.625 -58.23 112.125 -56.355 Q112.625 -54.48 111.625 -52.73 L110.125 -50.23 H113.125 Q115.125 -50.23 116.5 -48.855 Q117.875 -47.48 117.875 -45.48 Q117.875 -43.48 116.5 -42.105 Q115.125 -40.73 113.125 -40.73 H110.125 L111.75 -37.98 Q112.75 -36.23 112.25 -34.355 Q111.75 -32.48 110 -31.48 Q108.25 -30.48 106.312 -31.042 Q104.375 -31.605 103.375 -33.355 L101.875 -36.105 Z"/></g><g id="Semibold-M" transform="matrix(1 0 0 1 1985.97 1126)"><path d="M15 -11.855 H105 Q107.761 -11.855 109.693 -9.923 Q111.625 -7.991 111.625 -5.23 Q111.625 -2.469 109.693 -0.537 Q107.761 1.395 105 1.395 H15 Q12.239 1.395 10.307 -0.537 Q8.375 -2.469 8.375 -5.23 Q8.375 -7.991 10.307 -9.923 Q12.239 -11.855 15 -11.855 Z M18.94 -36.92  17.06 -33.518 Q16.169 -31.931 14.457 -31.45 Q12.745 -30.969 11.158 -31.86 Q9.571 -32.752 9.125 -34.464 Q8.679 -36.176 9.571 -37.763 L11.451 -41.165 H7.69 Q5.853 -41.165 4.614 -42.404 Q3.375 -43.643 3.375 -45.48 Q3.375 -47.317 4.614 -48.556 Q5.853 -49.795 7.69 -49.795 H11.451 L9.571 -52.947 Q8.679 -54.534 9.125 -56.246 Q9.571 -57.958 11.158 -58.85 Q12.745 -59.741 14.457 -59.295 Q16.169 -58.85 17.06 -57.263 L18.94 -54.04 L20.821 -57.263 Q21.712 -58.85 23.389 -59.295 Q25.065 -59.741 26.652 -58.85 Q28.239 -57.958 28.685 -56.246 Q29.13 -54.534 28.239 -52.947 L26.359 -49.795 H30.119 Q31.956 -49.795 33.196 -48.556 Q34.435 -47.317 34.435 -45.48 Q34.435 -43.643 33.196 -42.404 Q31.956 -41.165 30.119 -41.165 H26.359 L28.31 -37.692 Q29.201 -36.105 28.755 -34.428 Q28.31 -32.752 26.723 -31.86 Q25.136 -30.969 23.424 -31.45 Q21.712 -31.931 20.821 -33.518 L18.94 -36.92 Z M60 -36.92  58.12 -33.518 Q57.228 -31.931 55.516 -31.45 Q53.804 -30.969 52.217 -31.86 Q50.63 -32.752 50.185 -34.464 Q49.739 -36.176 50.63 -37.763 L52.511 -41.165 H48.75 Q46.913 -41.165 45.674 -42.404 Q44.435 -43.643 44.435 -45.48 Q44.435 -47.317 45.674 -48.556 Q46.913 -49.795 48.75 -49.795 H52.511 L50.63 -52.947 Q49.739 -54.534 50.185 -56.246 Q50.63 -57.958 52.217 -58.85 Q53.804 -59.741 55.516 -59.295 Q57.228 -58.85 58.12 -57.263 L60 -54.04 L61.88 -57.263 Q62.772 -58.85 64.484 -59.295 Q66.196 -59.741 67.783 -58.85 Q69.37 -57.958 69.815 -56.246 Q70.261 -54.534 69.37 -52.947 L67.489 -49.795 H71.25 Q73.087 -49.795 74.326 -48.556 Q75.565 -47.317 75.565 -45.48 Q75.565 -43.643 74.326 -42.404 Q73.087 -41.165 71.25 -41.165 H67.489 L69.44 -37.763 Q70.332 -36.176 69.886 -34.464 Q69.44 -32.752 67.853 -31.86 Q66.266 -30.969 64.519 -31.45 Q62.772 -31.931 61.88 -33.518 L60 -36.92 Z M101.06 -36.92  99.109 -33.447 Q98.218 -31.86 96.541 -31.415 Q94.864 -30.969 93.277 -31.86 Q91.69 -32.752 91.245 -34.428 Q90.799 -36.105 91.69 -37.692 L93.641 -41.165 H89.88 Q88.043 -41.165 86.804 -42.404 Q85.565 -43.643 85.565 -45.48 Q85.565 -47.317 86.804 -48.556 Q88.043 -49.795 89.88 -49.795 H93.641 L91.761 -53.018 Q90.87 -54.605 91.28 -56.282 Q91.69 -57.958 93.277 -58.85 Q94.864 -59.741 96.576 -59.295 Q98.288 -58.85 99.179 -57.263 L101.06 -54.04 L102.94 -57.263 Q103.832 -58.85 105.543 -59.295 Q107.255 -59.741 108.843 -58.85 Q110.429 -57.958 110.875 -56.246 Q111.321 -54.534 110.429 -52.947 L108.549 -49.795 H112.31 Q114.147 -49.795 115.386 -48.556 Q116.625 -47.317 116.625 -45.48 Q116.625 -43.643 115.386 -42.404 Q114.147 -41.165 112.31 -41.165 H108.549 L110.5 -37.763 Q111.391 -36.176 110.946 -34.464 Q110.5 -32.752 108.913 -31.86 Q107.326 -30.969 105.579 -31.45 Q103.832 -31.931 102.94 -33.518 L101.06 -36.92 Z"/></g><g id="Medium-M" transform="matrix(1 0 0 1 1689.91 1126)"><path d="M15 -10.917 H105 Q107.394 -10.917 109.041 -9.271 Q110.688 -7.624 110.688 -5.23 Q110.688 -2.836 109.041 -1.189 Q107.394 0.458 105 0.458 H15 Q12.606 0.458 10.959 -1.189 Q9.312 -2.836 9.312 -5.23 Q9.312 -7.624 10.959 -9.271 Q12.606 -10.917 15 -10.917 Z M19.552 -37.532  17.386 -33.64 Q16.576 -32.176 14.986 -31.756 Q13.397 -31.336 11.932 -32.146 Q10.467 -32.955 10.062 -34.545 Q9.658 -36.135 10.467 -37.6 L12.633 -41.491 H8.302 Q6.587 -41.491 5.45 -42.628 Q4.312 -43.765 4.312 -45.48 Q4.312 -47.195 5.45 -48.332 Q6.587 -49.469 8.302 -49.469 H12.633 L10.467 -53.11 Q9.658 -54.575 10.062 -56.165 Q10.467 -57.754 11.932 -58.564 Q13.397 -59.374 14.986 -58.969 Q16.576 -58.564 17.386 -57.1 L19.552 -53.428 L21.717 -57.1 Q22.527 -58.564 24.102 -58.969 Q25.677 -59.374 27.141 -58.564 Q28.606 -57.754 29.011 -56.165 Q29.416 -54.575 28.606 -53.11 L26.44 -49.469 H30.772 Q32.486 -49.469 33.624 -48.332 Q34.761 -47.195 34.761 -45.48 Q34.761 -43.765 33.624 -42.628 Q32.486 -41.491 30.772 -41.491 H26.44 L28.636 -37.57 Q29.446 -36.105 29.041 -34.53 Q28.636 -32.955 27.171 -32.146 Q25.706 -31.336 24.117 -31.756 Q22.527 -32.176 21.717 -33.64 L19.552 -37.532 Z M60 -37.532  57.834 -33.64 Q57.025 -32.176 55.435 -31.756 Q53.845 -31.336 52.38 -32.146 Q50.916 -32.955 50.511 -34.545 Q50.106 -36.135 50.916 -37.6 L53.081 -41.491 H48.75 Q47.035 -41.491 45.898 -42.628 Q44.761 -43.765 44.761 -45.48 Q44.761 -47.195 45.898 -48.332 Q47.035 -49.469 48.75 -49.469 H53.081 L50.916 -53.11 Q50.106 -54.575 50.511 -56.165 Q50.916 -57.754 52.38 -58.564 Q53.845 -59.374 55.435 -58.969 Q57.025 -58.564 57.834 -57.1 L60 -53.428 L62.166 -57.1 Q62.975 -58.564 64.565 -58.969 Q66.155 -59.374 67.62 -58.564 Q69.084 -57.754 69.489 -56.165 Q69.894 -54.575 69.084 -53.11 L66.918 -49.469 H71.25 Q72.965 -49.469 74.102 -48.332 Q75.239 -47.195 75.239 -45.48 Q75.239 -43.765 74.102 -42.628 Q72.965 -41.491 71.25 -41.491 H66.918 L69.114 -37.6 Q69.924 -36.135 69.519 -34.545 Q69.114 -32.955 67.65 -32.146 Q66.185 -31.336 64.58 -31.756 Q62.975 -32.176 62.166 -33.64 L60 -37.532 Z M100.448 -37.532  98.253 -33.61 Q97.443 -32.146 95.868 -31.741 Q94.293 -31.336 92.829 -32.146 Q91.364 -32.955 90.959 -34.53 Q90.554 -36.105 91.364 -37.57 L93.56 -41.491 H89.228 Q87.514 -41.491 86.376 -42.628 Q85.239 -43.765 85.239 -45.48 Q85.239 -47.195 86.376 -48.332 Q87.514 -49.469 89.228 -49.469 H93.56 L91.394 -53.14 Q90.584 -54.605 90.974 -56.18 Q91.364 -57.754 92.829 -58.564 Q94.293 -59.374 95.883 -58.969 Q97.473 -58.564 98.283 -57.1 L100.448 -53.428 L102.614 -57.1 Q103.424 -58.564 105.014 -58.969 Q106.603 -59.374 108.068 -58.564 Q109.533 -57.754 109.938 -56.165 Q110.342 -54.575 109.533 -53.11 L107.367 -49.469 H111.698 Q113.413 -49.469 114.55 -48.332 Q115.688 -47.195 115.688 -45.48 Q115.688 -43.765 114.55 -42.628 Q113.413 -41.491 111.698 -41.491 H107.367 L109.562 -37.6 Q110.372 -36.135 109.967 -34.545 Q109.562 -32.955 108.098 -32.146 Q106.633 -31.336 105.028 -31.756 Q103.424 -32.176 102.614 -33.64 L100.448 -37.532 Z"/></g><g id="Regular-M" transform="matrix(1 0 0 1 1394.06 1126)"><path d="M15 -10.23 H105 Q107.125 -10.23 108.562 -8.792 Q110 -7.355 110 -5.23 Q110 -3.105 108.562 -1.667 Q107.125 -0.23 105 -0.23 H15 Q12.875 -0.23 11.438 -1.667 Q10 -3.105 10 -5.23 Q10 -7.355 11.438 -8.792 Q12.875 -10.23 15 -10.23 Z M20 -37.98  17.625 -33.73 Q16.875 -32.355 15.375 -31.98 Q13.875 -31.605 12.5 -32.355 Q11.125 -33.105 10.75 -34.605 Q10.375 -36.105 11.125 -37.48 L13.5 -41.73 H8.75 Q7.125 -41.73 6.062 -42.792 Q5 -43.855 5 -45.48 Q5 -47.105 6.062 -48.167 Q7.125 -49.23 8.75 -49.23 H13.5 L11.125 -53.23 Q10.375 -54.605 10.75 -56.105 Q11.125 -57.605 12.5 -58.355 Q13.875 -59.105 15.375 -58.73 Q16.875 -58.355 17.625 -56.98 L20 -52.98 L22.375 -56.98 Q23.125 -58.355 24.625 -58.73 Q26.125 -59.105 27.5 -58.355 Q28.875 -57.605 29.25 -56.105 Q29.625 -54.605 28.875 -53.23 L26.5 -49.23 H31.25 Q32.875 -49.23 33.938 -48.167 Q35 -47.105 35 -45.48 Q35 -43.855 33.938 -42.792 Q32.875 -41.73 31.25 -41.73 H26.5 L28.875 -37.48 Q29.625 -36.105 29.25 -34.605 Q28.875 -33.105 27.5 -32.355 Q26.125 -31.605 24.625 -31.98 Q23.125 -32.355 22.375 -33.73 L20 -37.98 Z M60 -37.98  57.625 -33.73 Q56.875 -32.355 55.375 -31.98 Q53.875 -31.605 52.5 -32.355 Q51.125 -33.105 50.75 -34.605 Q50.375 -36.105 51.125 -37.48 L53.5 -41.73 H48.75 Q47.125 -41.73 46.062 -42.792 Q45 -43.855 45 -45.48 Q45 -47.105 46.062 -48.167 Q47.125 -49.23 48.75 -49.23 H53.5 L51.125 -53.23 Q50.375 -54.605 50.75 -56.105 Q51.125 -57.605 52.5 -58.355 Q53.875 -59.105 55.375 -58.73 Q56.875 -58.355 57.625 -56.98 L60 -52.98 L62.375 -56.98 Q63.125 -58.355 64.625 -58.73 Q66.125 -59.105 67.5 -58.355 Q68.875 -57.605 69.25 -56.105 Q69.625 -54.605 68.875 -53.23 L66.5 -49.23 H71.25 Q72.875 -49.23 73.938 -48.167 Q75 -47.105 75 -45.48 Q75 -43.855 73.938 -42.792 Q72.875 -41.73 71.25 -41.73 H66.5 L68.875 -37.48 Q69.625 -36.105 69.25 -34.605 Q68.875 -33.105 67.5 -32.355 Q66.125 -31.605 64.625 -31.98 Q63.125 -32.355 62.375 -33.73 L60 -37.98 Z M100 -37.98  97.625 -33.73 Q96.875 -32.355 95.375 -31.98 Q93.875 -31.605 92.5 -32.355 Q91.125 -33.105 90.75 -34.605 Q90.375 -36.105 91.125 -37.48 L93.5 -41.73 H88.75 Q87.125 -41.73 86.062 -42.792 Q85 -43.855 85 -45.48 Q85 -47.105 86.062 -48.167 Q87.125 -49.23 88.75 -49.23 H93.5 L91.125 -53.23 Q90.375 -54.605 90.75 -56.105 Q91.125 -57.605 92.5 -58.355 Q93.875 -59.105 95.375 -58.73 Q96.875 -58.355 97.625 -56.98 L100 -52.98 L102.375 -56.98 Q103.125 -58.355 104.625 -58.73 Q106.125 -59.105 107.5 -58.355 Q108.875 -57.605 109.25 -56.105 Q109.625 -54.605 108.875 -53.23 L106.5 -49.23 H111.25 Q112.875 -49.23 113.938 -48.167 Q115 -47.105 115 -45.48 Q115 -43.855 113.938 -42.792 Q112.875 -41.73 111.25 -41.73 H106.5 L108.875 -37.48 Q109.625 -36.105 109.25 -34.605 Q108.875 -33.105 107.5 -32.355 Q106.125 -31.605 104.625 -31.98 Q103.125 -32.355 102.375 -33.73 L100 -37.98 Z"/></g><g id="Light-M" transform="matrix(1 0 0 1 1098.18 1126)"><path d="M15 -8.98 H105 Q106.594 -8.98 107.672 -7.901 Q108.75 -6.823 108.75 -5.228 Q108.75 -3.634 107.672 -2.557 Q106.594 -1.48 105 -1.48 H15 Q13.406 -1.48 12.328 -2.559 Q11.25 -3.637 11.25 -5.232 Q11.25 -6.826 12.328 -7.903 Q13.406 -8.98 15 -8.98 Z M20 -39.519  16.952 -34.115 Q16.356 -33.02 15.164 -32.721 Q13.971 -32.422 12.88 -33.02 Q11.788 -33.618 11.49 -34.813 Q11.192 -36.009 11.798 -37.095 L14.846 -42.499 H8.75 Q7.458 -42.499 6.614 -43.343 Q5.769 -44.187 5.769 -45.478 Q5.769 -46.768 6.614 -47.615 Q7.458 -48.461 8.75 -48.461 H14.846 L11.798 -53.615 Q11.192 -54.701 11.49 -55.897 Q11.788 -57.092 12.88 -57.69 Q13.971 -58.288 15.164 -57.989 Q16.356 -57.69 16.952 -56.595 L20 -51.441 L23.048 -56.595 Q23.644 -57.69 24.837 -57.989 Q26.029 -58.288 27.12 -57.69 Q28.212 -57.092 28.51 -55.897 Q28.808 -54.701 28.202 -53.615 L25.154 -48.461 H31.25 Q32.542 -48.461 33.386 -47.617 Q34.231 -46.773 34.231 -45.482 Q34.231 -44.192 33.386 -43.345 Q32.542 -42.499 31.25 -42.499 H25.154 L28.202 -37.095 Q28.808 -36.009 28.51 -34.813 Q28.212 -33.618 27.12 -33.02 Q26.029 -32.422 24.837 -32.721 Q23.644 -33.02 23.048 -34.115 L20 -39.519 Z M60 -39.519  56.952 -34.115 Q56.356 -33.02 55.163 -32.721 Q53.971 -32.422 52.88 -33.02 Q51.788 -33.618 51.49 -34.813 Q51.192 -36.009 51.798 -37.095 L54.846 -42.499 H48.75 Q47.458 -42.499 46.614 -43.343 Q45.769 -44.187 45.769 -45.478 Q45.769 -46.768 46.614 -47.615 Q47.458 -48.461 48.75 -48.461 H54.846 L51.798 -53.615 Q51.192 -54.701 51.49 -55.897 Q51.788 -57.092 52.88 -57.69 Q53.971 -58.288 55.163 -57.989 Q56.356 -57.69 56.952 -56.595 L60 -51.441 L63.048 -56.595 Q63.644 -57.69 64.837 -57.989 Q66.029 -58.288 67.121 -57.69 Q68.212 -57.092 68.51 -55.897 Q68.808 -54.701 68.202 -53.615 L65.154 -48.461 H71.25 Q72.542 -48.461 73.386 -47.617 Q74.231 -46.773 74.231 -45.482 Q74.231 -44.192 73.386 -43.345 Q72.542 -42.499 71.25 -42.499 H65.154 L68.202 -37.095 Q68.808 -36.009 68.51 -34.813 Q68.212 -33.618 67.121 -33.02 Q66.029 -32.422 64.837 -32.721 Q63.644 -33.02 63.048 -34.115 L60 -39.519 Z M100 -39.519  96.952 -34.115 Q96.356 -33.02 95.163 -32.721 Q93.971 -32.422 92.879 -33.02 Q91.788 -33.618 91.49 -34.813 Q91.192 -36.009 91.798 -37.095 L94.846 -42.499 H88.75 Q87.458 -42.499 86.614 -43.343 Q85.769 -44.187 85.769 -45.478 Q85.769 -46.768 86.614 -47.615 Q87.458 -48.461 88.75 -48.461 H94.846 L91.798 -53.615 Q91.192 -54.701 91.49 -55.897 Q91.788 -57.092 92.879 -57.69 Q93.971 -58.288 95.163 -57.989 Q96.356 -57.69 96.952 -56.595 L100 -51.441 L103.048 -56.595 Q103.644 -57.69 104.837 -57.989 Q106.029 -58.288 107.121 -57.69 Q108.212 -57.092 108.51 -55.897 Q108.808 -54.701 108.202 -53.615 L105.154 -48.461 H111.25 Q112.542 -48.461 113.386 -47.617 Q114.231 -46.773 114.231 -45.482 Q114.231 -44.192 113.386 -43.345 Q112.542 -42.499 111.25 -42.499 H105.154 L108.202 -37.095 Q108.808 -36.009 108.51 -34.813 Q108.212 -33.618 107.121 -33.02 Q106.029 -32.422 104.837 -32.721 Q103.644 -33.02 103.048 -34.115 L100 -39.519 Z"/></g><g id="Thin-M" transform="matrix(1 0 0 1 802.565 1126)"><path d="M15 -7.73 H105 Q106.062 -7.73 106.781 -7.01 Q107.5 -6.291 107.5 -5.227 Q107.5 -4.163 106.781 -3.446 Q106.062 -2.73 105 -2.73 H15 Q13.938 -2.73 13.219 -3.45 Q12.5 -4.169 12.5 -5.233 Q12.5 -6.297 13.219 -7.014 Q13.938 -7.73 15 -7.73 Z M20 -41.057  16.279 -34.499 Q15.836 -33.684 14.952 -33.462 Q14.067 -33.24 13.259 -33.685 Q12.45 -34.131 12.23 -35.022 Q12.01 -35.913 12.471 -36.711 L16.192 -43.268 H8.75 Q7.792 -43.268 7.165 -43.894 Q6.538 -44.519 6.538 -45.475 Q6.538 -46.432 7.165 -47.062 Q7.792 -47.691 8.75 -47.691 H16.192 L12.471 -53.999 Q12.01 -54.797 12.23 -55.688 Q12.45 -56.579 13.259 -57.025 Q14.067 -57.47 14.952 -57.248 Q15.836 -57.026 16.279 -56.211 L20 -49.903 L23.721 -56.211 Q24.163 -57.026 25.048 -57.248 Q25.933 -57.47 26.741 -57.025 Q27.549 -56.579 27.77 -55.688 Q27.99 -54.797 27.529 -53.999 L23.808 -47.691 H31.25 Q32.208 -47.691 32.835 -47.066 Q33.462 -46.441 33.462 -45.484 Q33.462 -44.528 32.835 -43.898 Q32.208 -43.268 31.25 -43.268 H23.808 L27.529 -36.711 Q27.99 -35.913 27.77 -35.022 Q27.549 -34.131 26.741 -33.685 Q25.933 -33.24 25.048 -33.462 Q24.163 -33.684 23.721 -34.499 L20 -41.057 Z M60 -41.057  56.279 -34.499 Q55.837 -33.684 54.952 -33.462 Q54.067 -33.24 53.259 -33.685 Q52.45 -34.131 52.23 -35.022 Q52.01 -35.913 52.471 -36.711 L56.192 -43.268 H48.75 Q47.792 -43.268 47.165 -43.894 Q46.538 -44.519 46.538 -45.475 Q46.538 -46.432 47.165 -47.062 Q47.792 -47.691 48.75 -47.691 H56.192 L52.471 -53.999 Q52.01 -54.797 52.23 -55.688 Q52.45 -56.579 53.259 -57.025 Q54.067 -57.47 54.952 -57.248 Q55.837 -57.026 56.279 -56.211 L60 -49.903 L63.721 -56.211 Q64.163 -57.026 65.048 -57.248 Q65.933 -57.47 66.741 -57.025 Q67.549 -56.579 67.77 -55.688 Q67.99 -54.797 67.529 -53.999 L63.808 -47.691 H71.25 Q72.208 -47.691 72.835 -47.066 Q73.462 -46.441 73.462 -45.484 Q73.462 -44.528 72.835 -43.898 Q72.208 -43.268 71.25 -43.268 H63.808 L67.529 -36.711 Q67.99 -35.913 67.77 -35.022 Q67.549 -34.131 66.741 -33.685 Q65.933 -33.24 65.048 -33.462 Q64.163 -33.684 63.721 -34.499 L60 -41.057 Z M100 -41.057  96.279 -34.499 Q95.837 -33.684 94.952 -33.462 Q94.067 -33.24 93.259 -33.685 Q92.451 -34.131 92.23 -35.022 Q92.01 -35.913 92.471 -36.711 L96.192 -43.268 H88.75 Q87.792 -43.268 87.165 -43.894 Q86.538 -44.519 86.538 -45.475 Q86.538 -46.432 87.165 -47.062 Q87.792 -47.691 88.75 -47.691 H96.192 L92.471 -53.999 Q92.01 -54.797 92.23 -55.688 Q92.451 -56.579 93.259 -57.025 Q94.067 -57.47 94.952 -57.248 Q95.837 -57.026 96.279 -56.211 L100 -49.903 L103.721 -56.211 Q104.163 -57.026 105.048 -57.248 Q105.933 -57.47 106.741 -57.025 Q107.549 -56.579 107.77 -55.688 Q107.99 -54.797 107.529 -53.999 L103.808 -47.691 H111.25 Q112.208 -47.691 112.835 -47.066 Q113.462 -46.441 113.462 -45.484 Q113.462 -44.528 112.835 -43.898 Q112.208 -43.268 111.25 -43.268 H103.808 L107.529 -36.711 Q107.99 -35.913 107.77 -35.022 Q107.549 -34.131 106.741 -33.685 Q105.933 -33.24 105.048 -33.462 Q104.163 -33.684 103.721 -34.499 L100 -41.057 Z"/></g><g id="Ultralight-M" transform="matrix(1 0 0 1 506.415 1126)"><path d="M15 -6.98 H105 Q105.744 -6.98 106.247 -6.476 Q106.75 -5.971 106.75 -5.226 Q106.75 -4.48 106.247 -3.98 Q105.744 -3.48 105 -3.48 H15 Q14.256 -3.48 13.753 -3.984 Q13.25 -4.489 13.25 -5.234 Q13.25 -5.98 13.753 -6.48 Q14.256 -6.98 15 -6.98 Z M20 -41.98  15.875 -34.73 Q15.525 -34.083 14.825 -33.906 Q14.125 -33.73 13.487 -34.084 Q12.848 -34.438 12.674 -35.147 Q12.5 -35.855 12.875 -36.48 L17 -43.73 H8.75 Q7.992 -43.73 7.496 -44.224 Q7 -44.718 7 -45.474 Q7 -46.23 7.496 -46.73 Q7.992 -47.23 8.75 -47.23 H17 L12.875 -54.23 Q12.5 -54.855 12.674 -55.563 Q12.848 -56.272 13.487 -56.626 Q14.125 -56.98 14.825 -56.803 Q15.525 -56.627 15.875 -55.98 L20 -48.98 L24.125 -55.98 Q24.475 -56.627 25.175 -56.803 Q25.875 -56.98 26.513 -56.626 Q27.152 -56.272 27.326 -55.563 Q27.5 -54.855 27.125 -54.23 L23 -47.23 H31.25 Q32.008 -47.23 32.504 -46.736 Q33 -46.242 33 -45.486 Q33 -44.73 32.504 -44.23 Q32.008 -43.73 31.25 -43.73 H23 L27.125 -36.48 Q27.5 -35.855 27.326 -35.147 Q27.152 -34.438 26.513 -34.084 Q25.875 -33.73 25.175 -33.906 Q24.475 -34.083 24.125 -34.73 L20 -41.98 Z M60 -41.98  55.875 -34.73 Q55.525 -34.083 54.825 -33.906 Q54.125 -33.73 53.487 -34.084 Q52.848 -34.438 52.674 -35.147 Q52.5 -35.855 52.875 -36.48 L57 -43.73 H48.75 Q47.992 -43.73 47.496 -44.224 Q47 -44.718 47 -45.474 Q47 -46.23 47.496 -46.73 Q47.992 -47.23 48.75 -47.23 H57 L52.875 -54.23 Q52.5 -54.855 52.674 -55.563 Q52.848 -56.272 53.487 -56.626 Q54.125 -56.98 54.825 -56.803 Q55.525 -56.627 55.875 -55.98 L60 -48.98 L64.125 -55.98 Q64.475 -56.627 65.175 -56.803 Q65.875 -56.98 66.513 -56.626 Q67.152 -56.272 67.326 -55.563 Q67.5 -54.855 67.125 -54.23 L63 -47.23 H71.25 Q72.008 -47.23 72.504 -46.736 Q73 -46.242 73 -45.486 Q73 -44.73 72.504 -44.23 Q72.008 -43.73 71.25 -43.73 H63 L67.125 -36.48 Q67.5 -35.855 67.326 -35.147 Q67.152 -34.438 66.513 -34.084 Q65.875 -33.73 65.175 -33.906 Q64.475 -34.083 64.125 -34.73 L60 -41.98 Z M100 -41.98  95.875 -34.73 Q95.525 -34.083 94.825 -33.906 Q94.125 -33.73 93.487 -34.084 Q92.848 -34.438 92.674 -35.147 Q92.5 -35.855 92.875 -36.48 L97 -43.73 H88.75 Q87.992 -43.73 87.496 -44.224 Q87 -44.718 87 -45.474 Q87 -46.23 87.496 -46.73 Q87.992 -47.23 88.75 -47.23 H97 L92.875 -54.23 Q92.5 -54.855 92.674 -55.563 Q92.848 -56.272 93.487 -56.626 Q94.125 -56.98 94.825 -56.803 Q95.525 -56.627 95.875 -55.98 L100 -48.98 L104.125 -55.98 Q104.475 -56.627 105.175 -56.803 Q105.875 -56.98 106.513 -56.626 Q107.152 -56.272 107.326 -55.563 Q107.5 -54.855 107.125 -54.23 L103 -47.23 H111.25 Q112.008 -47.23 112.504 -46.736 Q113 -46.242 113 -45.486 Q113 -44.73 112.504 -44.23 Q112.008 -43.73 111.25 -43.73 H103 L107.125 -36.48 Q107.5 -35.855 107.326 -35.147 Q107.152 -34.438 106.513 -34.084 Q105.875 -33.73 105.175 -33.906 Q104.475 -34.083 104.125 -34.73 L100 -41.98 Z"/></g><g id="Bold-S" transform="matrix(1 0 0 1 2294.23 696)"><path d="M13.019 -20.929 H81.662 Q84.029 -20.929 85.754 -19.203 Q87.48 -17.477 87.48 -15.11 Q87.48 -12.743 85.754 -11.018 Q84.029 -9.292 81.662 -9.292 H13.019 Q10.652 -9.292 8.926 -11.018 Q7.2 -12.743 7.2 -15.11 Q7.2 -17.477 8.926 -19.203 Q10.652 -20.929 13.019 -20.929 Z M15.09 -38.287  14.695 -37.597 Q13.709 -36.019 12.032 -35.477 Q10.356 -34.934 8.778 -35.92 Q7.2 -36.907 6.707 -38.583 Q6.213 -40.26 7.2 -41.838 L7.594 -42.528 H6.805 Q5.03 -42.528 3.748 -43.81 Q2.466 -45.092 2.466 -46.868 Q2.466 -48.643 3.748 -49.925 Q5.03 -51.207 6.805 -51.207 H7.594 L7.2 -51.898 Q6.213 -53.476 6.707 -55.152 Q7.2 -56.829 8.778 -57.815 Q10.356 -58.801 12.032 -58.308 Q13.709 -57.815 14.695 -56.237 L15.09 -55.448 L15.484 -56.237 Q16.47 -57.815 18.098 -58.308 Q19.725 -58.801 21.303 -57.815 Q22.881 -56.829 23.374 -55.152 Q23.867 -53.476 22.881 -51.898 L22.486 -51.207 H23.276 Q25.051 -51.207 26.333 -49.925 Q27.615 -48.643 27.615 -46.868 Q27.615 -45.092 26.333 -43.81 Q25.051 -42.528 23.276 -42.528 H22.486 L22.98 -41.739 Q23.966 -40.161 23.473 -38.534 Q22.98 -36.907 21.402 -35.92 Q19.824 -34.934 18.147 -35.477 Q16.47 -36.019 15.484 -37.597 L15.09 -38.287 Z M47.34 -38.287  46.946 -37.597 Q45.959 -36.019 44.283 -35.477 Q42.606 -34.934 41.028 -35.92 Q39.45 -36.907 38.957 -38.583 Q38.464 -40.26 39.45 -41.838 L39.845 -42.528 H39.056 Q37.28 -42.528 35.998 -43.81 Q34.716 -45.092 34.716 -46.868 Q34.716 -48.643 35.998 -49.925 Q37.28 -51.207 39.056 -51.207 H39.845 L39.45 -51.898 Q38.464 -53.476 38.957 -55.152 Q39.45 -56.829 41.028 -57.815 Q42.606 -58.801 44.283 -58.308 Q45.959 -57.815 46.946 -56.237 L47.34 -55.448 L47.735 -56.237 Q48.721 -57.815 50.397 -58.308 Q52.074 -58.801 53.652 -57.815 Q55.23 -56.829 55.723 -55.152 Q56.216 -53.476 55.23 -51.898 L54.836 -51.207 H55.625 Q57.4 -51.207 58.682 -49.925 Q59.964 -48.643 59.964 -46.868 Q59.964 -45.092 58.682 -43.81 Q57.4 -42.528 55.625 -42.528 H54.836 L55.329 -41.838 Q56.315 -40.26 55.822 -38.583 Q55.329 -36.907 53.751 -35.92 Q52.173 -34.934 50.447 -35.477 Q48.721 -36.019 47.735 -37.597 L47.34 -38.287 Z M79.59 -38.287  79.097 -37.498 Q78.111 -35.92 76.484 -35.427 Q74.856 -34.934 73.278 -35.92 Q71.7 -36.907 71.207 -38.534 Q70.714 -40.161 71.7 -41.739 L72.194 -42.528 H71.404 Q69.629 -42.528 68.347 -43.81 Q67.065 -45.092 67.065 -46.868 Q67.065 -48.643 68.347 -49.925 Q69.629 -51.207 71.404 -51.207 H72.194 L71.799 -51.996 Q70.813 -53.574 71.257 -55.202 Q71.7 -56.829 73.278 -57.815 Q74.856 -58.801 76.533 -58.308 Q78.21 -57.815 79.196 -56.237 L79.59 -55.448 L79.985 -56.237 Q80.971 -57.815 82.648 -58.308 Q84.324 -58.801 85.902 -57.815 Q87.48 -56.829 87.974 -55.152 Q88.467 -53.476 87.48 -51.898 L87.086 -51.207 H87.875 Q89.65 -51.207 90.932 -49.925 Q92.214 -48.643 92.214 -46.868 Q92.214 -45.092 90.932 -43.81 Q89.65 -42.528 87.875 -42.528 H87.086 L87.579 -41.838 Q88.565 -40.26 88.072 -38.583 Q87.579 -36.907 86.001 -35.92 Q84.423 -34.934 82.697 -35.477 Q80.971 -36.019 79.985 -37.597 L79.59 -38.287 Z"/></g><g id="Semibold-S" transform="matrix(1 0 0 1 1998.1 696)"><path d="M13.019 -19.943 H81.662 Q83.643 -19.943 85.068 -18.517 Q86.494 -17.092 86.494 -15.11 Q86.494 -13.129 85.068 -11.704 Q83.643 -10.278 81.662 -10.278 H13.019 Q11.037 -10.278 9.612 -11.704 Q8.186 -13.129 8.186 -15.11 Q8.186 -17.092 9.612 -18.517 Q11.037 -19.943 13.019 -19.943 Z M15.733 -38.931  15.038 -37.726 Q14.138 -36.276 12.59 -35.798 Q11.042 -35.32 9.592 -36.22 Q8.143 -37.121 7.693 -38.669 Q7.242 -40.217 8.143 -41.666 L8.838 -42.871 H7.448 Q5.802 -42.871 4.627 -44.046 Q3.452 -45.221 3.452 -46.868 Q3.452 -48.514 4.627 -49.689 Q5.802 -50.864 7.448 -50.864 H8.838 L8.143 -52.069 Q7.242 -53.519 7.693 -55.066 Q8.143 -56.614 9.592 -57.515 Q11.042 -58.415 12.59 -57.965 Q14.138 -57.515 15.038 -56.066 L15.733 -54.805 L16.427 -56.066 Q17.328 -57.515 18.848 -57.965 Q20.368 -58.415 21.818 -57.515 Q23.267 -56.614 23.717 -55.066 Q24.167 -53.519 23.267 -52.069 L22.572 -50.864 H23.962 Q25.608 -50.864 26.783 -49.689 Q27.958 -48.514 27.958 -46.868 Q27.958 -45.221 26.783 -44.046 Q25.608 -42.871 23.962 -42.871 H22.572 L23.323 -41.611 Q24.223 -40.161 23.773 -38.641 Q23.323 -37.121 21.873 -36.22 Q20.424 -35.32 18.876 -35.798 Q17.328 -36.276 16.427 -37.726 L15.733 -38.931 Z M47.34 -38.931  46.645 -37.726 Q45.745 -36.276 44.197 -35.798 Q42.649 -35.32 41.2 -36.22 Q39.75 -37.121 39.3 -38.669 Q38.85 -40.217 39.75 -41.666 L40.445 -42.871 H39.056 Q37.409 -42.871 36.234 -44.046 Q35.059 -45.221 35.059 -46.868 Q35.059 -48.514 36.234 -49.689 Q37.409 -50.864 39.056 -50.864 H40.445 L39.75 -52.069 Q38.85 -53.519 39.3 -55.066 Q39.75 -56.614 41.2 -57.515 Q42.649 -58.415 44.197 -57.965 Q45.745 -57.515 46.645 -56.066 L47.34 -54.805 L48.035 -56.066 Q48.935 -57.515 50.483 -57.965 Q52.031 -58.415 53.48 -57.515 Q54.93 -56.614 55.38 -55.066 Q55.83 -53.519 54.93 -52.069 L54.235 -50.864 H55.625 Q57.271 -50.864 58.446 -49.689 Q59.621 -48.514 59.621 -46.868 Q59.621 -45.221 58.446 -44.046 Q57.271 -42.871 55.625 -42.871 H54.235 L54.986 -41.666 Q55.886 -40.217 55.436 -38.669 Q54.986 -37.121 53.536 -36.22 Q52.087 -35.32 50.511 -35.798 Q48.935 -36.276 48.035 -37.726 L47.34 -38.931 Z M78.947 -38.931  78.197 -37.67 Q77.296 -36.22 75.776 -35.77 Q74.256 -35.32 72.807 -36.22 Q71.357 -37.121 70.907 -38.641 Q70.457 -40.161 71.357 -41.611 L72.108 -42.871 H70.718 Q69.072 -42.871 67.897 -44.046 Q66.722 -45.221 66.722 -46.868 Q66.722 -48.514 67.897 -49.689 Q69.072 -50.864 70.718 -50.864 H72.108 L71.413 -52.125 Q70.513 -53.574 70.935 -55.094 Q71.357 -56.614 72.807 -57.515 Q74.256 -58.415 75.804 -57.965 Q77.352 -57.515 78.253 -56.066 L78.947 -54.805 L79.642 -56.066 Q80.542 -57.515 82.09 -57.965 Q83.638 -58.415 85.088 -57.515 Q86.537 -56.614 86.987 -55.066 Q87.438 -53.519 86.537 -52.069 L85.842 -50.864 H87.232 Q88.878 -50.864 90.053 -49.689 Q91.228 -48.514 91.228 -46.868 Q91.228 -45.221 90.053 -44.046 Q88.878 -42.871 87.232 -42.871 H85.842 L86.593 -41.666 Q87.493 -40.217 87.043 -38.669 Q86.593 -37.121 85.143 -36.22 Q83.694 -35.32 82.118 -35.798 Q80.542 -36.276 79.642 -37.726 L78.947 -38.931 Z"/></g><g id="Medium-S" transform="matrix(1 0 0 1 1701.85 696)"><path d="M13.019 -19.203 H81.662 Q83.353 -19.203 84.554 -18.003 Q85.754 -16.802 85.754 -15.11 Q85.754 -13.419 84.554 -12.218 Q83.353 -11.018 81.662 -11.018 H13.019 Q11.327 -11.018 10.126 -12.218 Q8.926 -13.419 8.926 -15.11 Q8.926 -16.802 10.126 -18.003 Q11.327 -19.203 13.019 -19.203 Z M16.215 -39.413  15.295 -37.822 Q14.459 -36.469 13.008 -36.039 Q11.556 -35.61 10.203 -36.446 Q8.851 -37.282 8.432 -38.733 Q8.014 -40.185 8.851 -41.538 L9.77 -43.129 H7.931 Q6.381 -43.129 5.286 -44.223 Q4.192 -45.318 4.192 -46.868 Q4.192 -48.418 5.286 -49.512 Q6.381 -50.607 7.931 -50.607 H9.77 L8.851 -52.198 Q8.014 -53.551 8.432 -55.002 Q8.851 -56.454 10.203 -57.29 Q11.556 -58.126 13.008 -57.708 Q14.459 -57.29 15.295 -55.937 L16.215 -54.323 L17.135 -55.937 Q17.971 -57.29 19.411 -57.708 Q20.851 -58.126 22.203 -57.29 Q23.556 -56.454 23.974 -55.002 Q24.393 -53.551 23.556 -52.198 L22.637 -50.607 H24.476 Q26.026 -50.607 27.121 -49.512 Q28.215 -48.418 28.215 -46.868 Q28.215 -45.318 27.121 -44.223 Q26.026 -43.129 24.476 -43.129 H22.637 L23.58 -41.514 Q24.416 -40.161 23.998 -38.722 Q23.58 -37.282 22.227 -36.446 Q20.874 -35.61 19.423 -36.039 Q17.971 -36.469 17.135 -37.822 L16.215 -39.413 Z M47.34 -39.413  46.42 -37.822 Q45.584 -36.469 44.133 -36.039 Q42.681 -35.61 41.328 -36.446 Q39.975 -37.282 39.557 -38.733 Q39.139 -40.185 39.975 -41.538 L40.895 -43.129 H39.056 Q37.505 -43.129 36.411 -44.223 Q35.316 -45.318 35.316 -46.868 Q35.316 -48.418 36.411 -49.512 Q37.505 -50.607 39.056 -50.607 H40.895 L39.975 -52.198 Q39.139 -53.551 39.557 -55.002 Q39.975 -56.454 41.328 -57.29 Q42.681 -58.126 44.133 -57.708 Q45.584 -57.29 46.42 -55.937 L47.34 -54.323 L48.26 -55.937 Q49.096 -57.29 50.547 -57.708 Q51.999 -58.126 53.352 -57.29 Q54.705 -56.454 55.123 -55.002 Q55.541 -53.551 54.705 -52.198 L53.785 -50.607 H55.625 Q57.175 -50.607 58.269 -49.512 Q59.364 -48.418 59.364 -46.868 Q59.364 -45.318 58.269 -44.223 Q57.175 -43.129 55.625 -43.129 H53.785 L54.728 -41.538 Q55.564 -40.185 55.146 -38.733 Q54.728 -37.282 53.375 -36.446 Q52.023 -35.61 50.559 -36.039 Q49.096 -36.469 48.26 -37.822 L47.34 -39.413 Z M78.465 -39.413  77.521 -37.798 Q76.685 -36.446 75.246 -36.028 Q73.806 -35.61 72.453 -36.446 Q71.1 -37.282 70.682 -38.722 Q70.264 -40.161 71.1 -41.514 L72.043 -43.129 H70.204 Q68.654 -43.129 67.559 -44.223 Q66.465 -45.318 66.465 -46.868 Q66.465 -48.418 67.559 -49.512 Q68.654 -50.607 70.204 -50.607 H72.043 L71.124 -52.221 Q70.287 -53.574 70.694 -55.014 Q71.1 -56.454 72.453 -57.29 Q73.806 -58.126 75.257 -57.708 Q76.709 -57.29 77.545 -55.937 L78.465 -54.323 L79.385 -55.937 Q80.221 -57.29 81.672 -57.708 Q83.124 -58.126 84.477 -57.29 Q85.829 -56.454 86.248 -55.002 Q86.666 -53.551 85.829 -52.198 L84.91 -50.607 H86.749 Q88.299 -50.607 89.394 -49.512 Q90.488 -48.418 90.488 -46.868 Q90.488 -45.318 89.394 -44.223 Q88.299 -43.129 86.749 -43.129 H84.91 L85.853 -41.538 Q86.689 -40.185 86.271 -38.733 Q85.853 -37.282 84.5 -36.446 Q83.147 -35.61 81.684 -36.039 Q80.221 -36.469 79.385 -37.822 L78.465 -39.413 Z"/></g><g id="Regular-S" transform="matrix(1 0 0 1 1405.73 696)"><path d="M13.019 -18.661 H81.662 Q83.141 -18.661 84.176 -17.625 Q85.212 -16.59 85.212 -15.11 Q85.212 -13.631 84.176 -12.596 Q83.141 -11.56 81.662 -11.56 H13.019 Q11.539 -11.56 10.504 -12.596 Q9.468 -13.631 9.468 -15.11 Q9.468 -16.59 10.504 -17.625 Q11.539 -18.661 13.019 -18.661 Z M16.569 -39.767  15.484 -37.893 Q14.695 -36.611 13.314 -36.216 Q11.934 -35.822 10.652 -36.611 Q9.369 -37.4 8.975 -38.78 Q8.58 -40.161 9.369 -41.443 L10.454 -43.317 H8.284 Q6.805 -43.317 5.77 -44.353 Q4.734 -45.388 4.734 -46.868 Q4.734 -48.347 5.77 -49.383 Q6.805 -50.418 8.284 -50.418 H10.454 L9.369 -52.292 Q8.58 -53.574 8.975 -54.955 Q9.369 -56.336 10.652 -57.125 Q11.934 -57.914 13.314 -57.519 Q14.695 -57.125 15.484 -55.843 L16.569 -53.969 L17.654 -55.843 Q18.443 -57.125 19.824 -57.519 Q21.204 -57.914 22.486 -57.125 Q23.769 -56.336 24.163 -54.955 Q24.558 -53.574 23.769 -52.292 L22.684 -50.418 H24.854 Q26.333 -50.418 27.368 -49.383 Q28.404 -48.347 28.404 -46.868 Q28.404 -45.388 27.368 -44.353 Q26.333 -43.317 24.854 -43.317 H22.684 L23.769 -41.443 Q24.558 -40.161 24.163 -38.78 Q23.769 -37.4 22.486 -36.611 Q21.204 -35.822 19.824 -36.216 Q18.443 -36.611 17.654 -37.893 L16.569 -39.767 Z M47.34 -39.767  46.255 -37.893 Q45.466 -36.611 44.085 -36.216 Q42.705 -35.822 41.422 -36.611 Q40.14 -37.4 39.746 -38.78 Q39.351 -40.161 40.14 -41.443 L41.225 -43.317 H39.056 Q37.576 -43.317 36.541 -44.353 Q35.505 -45.388 35.505 -46.868 Q35.505 -48.347 36.541 -49.383 Q37.576 -50.418 39.056 -50.418 H41.225 L40.14 -52.292 Q39.351 -53.574 39.746 -54.955 Q40.14 -56.336 41.422 -57.125 Q42.705 -57.914 44.085 -57.519 Q45.466 -57.125 46.255 -55.843 L47.34 -53.969 L48.425 -55.843 Q49.214 -57.125 50.595 -57.519 Q51.975 -57.914 53.258 -57.125 Q54.54 -56.336 54.934 -54.955 Q55.329 -53.574 54.54 -52.292 L53.455 -50.418 H55.625 Q57.104 -50.418 58.139 -49.383 Q59.175 -48.347 59.175 -46.868 Q59.175 -45.388 58.139 -44.353 Q57.104 -43.317 55.625 -43.317 H53.455 L54.54 -41.443 Q55.329 -40.161 54.934 -38.78 Q54.54 -37.4 53.258 -36.611 Q51.975 -35.822 50.595 -36.216 Q49.214 -36.611 48.425 -37.893 L47.34 -39.767 Z M78.111 -39.767  77.026 -37.893 Q76.237 -36.611 74.856 -36.216 Q73.476 -35.822 72.194 -36.611 Q70.911 -37.4 70.517 -38.78 Q70.122 -40.161 70.911 -41.443 L71.996 -43.317 H69.827 Q68.347 -43.317 67.312 -44.353 Q66.276 -45.388 66.276 -46.868 Q66.276 -48.347 67.312 -49.383 Q68.347 -50.418 69.827 -50.418 H71.996 L70.911 -52.292 Q70.122 -53.574 70.517 -54.955 Q70.911 -56.336 72.194 -57.125 Q73.476 -57.914 74.856 -57.519 Q76.237 -57.125 77.026 -55.843 L78.111 -53.969 L79.196 -55.843 Q79.985 -57.125 81.366 -57.519 Q82.746 -57.914 84.029 -57.125 Q85.311 -56.336 85.705 -54.955 Q86.1 -53.574 85.311 -52.292 L84.226 -50.418 H86.395 Q87.875 -50.418 88.91 -49.383 Q89.946 -48.347 89.946 -46.868 Q89.946 -45.388 88.91 -44.353 Q87.875 -43.317 86.395 -43.317 H84.226 L85.311 -41.443 Q86.1 -40.161 85.705 -38.78 Q85.311 -37.4 84.029 -36.611 Q82.746 -35.822 81.366 -36.216 Q79.985 -36.611 79.196 -37.893 L78.111 -39.767 Z"/></g><g id="Light-S" transform="matrix(1 0 0 1 1109.75 696)"><path d="M13.019 -17.675 H81.662 Q82.722 -17.675 83.474 -16.922 Q84.226 -16.17 84.226 -15.109 Q84.226 -14.048 83.474 -13.297 Q82.722 -12.546 81.662 -12.546 H13.019 Q11.958 -12.546 11.206 -13.299 Q10.454 -14.051 10.454 -15.112 Q10.454 -16.173 11.206 -16.924 Q11.958 -17.675 13.019 -17.675 Z M16.569 -40.981  14.953 -38.196 Q14.285 -37.135 13.148 -36.801 Q12.009 -36.467 10.951 -37.136 Q9.892 -37.804 9.559 -38.945 Q9.225 -40.085 9.9 -41.14 L11.516 -43.924 H8.284 Q7.068 -43.924 6.205 -44.787 Q5.341 -45.65 5.341 -46.866 Q5.341 -48.082 6.205 -48.946 Q7.068 -49.811 8.284 -49.811 H11.516 L9.9 -52.596 Q9.225 -53.65 9.559 -54.791 Q9.892 -55.931 10.951 -56.6 Q12.009 -57.269 13.148 -56.935 Q14.285 -56.6 14.953 -55.539 L16.569 -52.755 L18.185 -55.539 Q18.853 -56.6 19.99 -56.935 Q21.129 -57.269 22.187 -56.6 Q23.246 -55.931 23.579 -54.791 Q23.913 -53.65 23.238 -52.596 L21.622 -49.811 H24.854 Q26.07 -49.811 26.933 -48.948 Q27.797 -48.085 27.797 -46.87 Q27.797 -45.654 26.933 -44.789 Q26.07 -43.924 24.854 -43.924 H21.622 L23.238 -41.14 Q23.913 -40.085 23.579 -38.945 Q23.246 -37.804 22.187 -37.136 Q21.129 -36.467 19.99 -36.801 Q18.853 -37.135 18.185 -38.196 L16.569 -40.981 Z M47.34 -40.981  45.724 -38.196 Q45.056 -37.135 43.919 -36.801 Q42.78 -36.467 41.722 -37.136 Q40.663 -37.804 40.33 -38.945 Q39.996 -40.085 40.671 -41.14 L42.287 -43.924 H39.056 Q37.839 -43.924 36.976 -44.787 Q36.112 -45.65 36.112 -46.866 Q36.112 -48.082 36.976 -48.946 Q37.839 -49.811 39.056 -49.811 H42.287 L40.671 -52.596 Q39.996 -53.65 40.33 -54.791 Q40.663 -55.931 41.722 -56.6 Q42.78 -57.269 43.919 -56.935 Q45.056 -56.6 45.724 -55.539 L47.34 -52.755 L48.956 -55.539 Q49.624 -56.6 50.761 -56.935 Q51.9 -57.269 52.958 -56.6 Q54.017 -55.931 54.35 -54.791 Q54.684 -53.65 54.009 -52.596 L52.393 -49.811 H55.625 Q56.841 -49.811 57.704 -48.948 Q58.568 -48.085 58.568 -46.87 Q58.568 -45.654 57.704 -44.789 Q56.841 -43.924 55.625 -43.924 H52.393 L54.009 -41.14 Q54.684 -40.085 54.35 -38.945 Q54.017 -37.804 52.958 -37.136 Q51.9 -36.467 50.761 -36.801 Q49.624 -37.135 48.956 -38.196 L47.34 -40.981 Z M78.111 -40.981  76.495 -38.196 Q75.827 -37.135 74.69 -36.801 Q73.551 -36.467 72.493 -37.136 Q71.434 -37.804 71.101 -38.945 Q70.767 -40.085 71.442 -41.14 L73.058 -43.924 H69.827 Q68.61 -43.924 67.747 -44.787 Q66.883 -45.65 66.883 -46.866 Q66.883 -48.082 67.747 -48.946 Q68.61 -49.811 69.827 -49.811 H73.058 L71.442 -52.596 Q70.767 -53.65 71.101 -54.791 Q71.434 -55.931 72.493 -56.6 Q73.551 -57.269 74.69 -56.935 Q75.827 -56.6 76.495 -55.539 L78.111 -52.755 L79.727 -55.539 Q80.395 -56.6 81.532 -56.935 Q82.671 -57.269 83.729 -56.6 Q84.788 -55.931 85.121 -54.791 Q85.455 -53.65 84.78 -52.596 L83.164 -49.811 H86.395 Q87.612 -49.811 88.475 -48.948 Q89.339 -48.085 89.339 -46.87 Q89.339 -45.654 88.475 -44.789 Q87.612 -43.924 86.395 -43.924 H83.164 L84.78 -41.14 Q85.455 -40.085 85.121 -38.945 Q84.788 -37.804 83.729 -37.136 Q82.671 -36.467 81.532 -36.801 Q80.395 -37.135 79.727 -38.196 L78.111 -40.981 Z"/></g><g id="Thin-S" transform="matrix(1 0 0 1 814.015 696)"><path d="M13.019 -16.688 H81.662 Q82.303 -16.688 82.771 -16.219 Q83.24 -15.75 83.24 -15.108 Q83.24 -14.466 82.771 -13.999 Q82.303 -13.532 81.662 -13.532 H13.019 Q12.377 -13.532 11.909 -14.002 Q11.441 -14.471 11.441 -15.113 Q11.441 -15.755 11.909 -16.222 Q12.377 -16.688 13.019 -16.688 Z M16.569 -42.194  14.422 -38.5 Q13.876 -37.659 12.981 -37.385 Q12.085 -37.111 11.25 -37.66 Q10.415 -38.209 10.143 -39.109 Q9.87 -40.01 10.431 -40.836 L12.578 -44.531 H8.284 Q7.331 -44.531 6.639 -45.222 Q5.948 -45.912 5.948 -46.864 Q5.948 -47.816 6.639 -48.51 Q7.331 -49.204 8.284 -49.204 H12.578 L10.431 -52.899 Q9.87 -53.726 10.143 -54.626 Q10.415 -55.527 11.25 -56.075 Q12.085 -56.624 12.981 -56.35 Q13.876 -56.076 14.422 -55.236 L16.569 -51.541 L18.716 -55.236 Q19.262 -56.076 20.157 -56.35 Q21.053 -56.624 21.888 -56.075 Q22.723 -55.527 22.995 -54.626 Q23.268 -53.726 22.707 -52.899 L20.56 -49.204 H24.854 Q25.807 -49.204 26.499 -48.514 Q27.19 -47.823 27.19 -46.871 Q27.19 -45.919 26.499 -45.225 Q25.807 -44.531 24.854 -44.531 H20.56 L22.707 -40.836 Q23.268 -40.01 22.995 -39.109 Q22.723 -38.209 21.888 -37.66 Q21.053 -37.111 20.157 -37.385 Q19.262 -37.659 18.716 -38.5 L16.569 -42.194 Z M47.34 -42.194  45.193 -38.5 Q44.647 -37.659 43.752 -37.385 Q42.856 -37.111 42.021 -37.66 Q41.186 -38.209 40.914 -39.109 Q40.641 -40.01 41.202 -40.836 L43.349 -44.531 H39.056 Q38.102 -44.531 37.41 -45.222 Q36.719 -45.912 36.719 -46.864 Q36.719 -47.816 37.41 -48.51 Q38.102 -49.204 39.056 -49.204 H43.349 L41.202 -52.899 Q40.641 -53.726 40.914 -54.626 Q41.186 -55.527 42.021 -56.075 Q42.856 -56.624 43.752 -56.35 Q44.647 -56.076 45.193 -55.236 L47.34 -51.541 L49.487 -55.236 Q50.033 -56.076 50.928 -56.35 Q51.824 -56.624 52.659 -56.075 Q53.494 -55.527 53.766 -54.626 Q54.039 -53.726 53.478 -52.899 L51.331 -49.204 H55.625 Q56.578 -49.204 57.27 -48.514 Q57.961 -47.823 57.961 -46.871 Q57.961 -45.919 57.27 -45.225 Q56.578 -44.531 55.625 -44.531 H51.331 L53.478 -40.836 Q54.039 -40.01 53.766 -39.109 Q53.494 -38.209 52.659 -37.66 Q51.824 -37.111 50.928 -37.385 Q50.033 -37.659 49.487 -38.5 L47.34 -42.194 Z M78.111 -42.194  75.964 -38.5 Q75.418 -37.659 74.523 -37.385 Q73.627 -37.111 72.792 -37.66 Q71.957 -38.209 71.685 -39.109 Q71.412 -40.01 71.973 -40.836 L74.12 -44.531 H69.827 Q68.873 -44.531 68.181 -45.222 Q67.49 -45.912 67.49 -46.864 Q67.49 -47.816 68.181 -48.51 Q68.873 -49.204 69.827 -49.204 H74.12 L71.973 -52.899 Q71.412 -53.726 71.685 -54.626 Q71.957 -55.527 72.792 -56.075 Q73.627 -56.624 74.523 -56.35 Q75.418 -56.076 75.964 -55.236 L78.111 -51.541 L80.258 -55.236 Q80.804 -56.076 81.699 -56.35 Q82.595 -56.624 83.43 -56.075 Q84.265 -55.527 84.537 -54.626 Q84.81 -53.726 84.249 -52.899 L82.102 -49.204 H86.395 Q87.349 -49.204 88.041 -48.514 Q88.732 -47.823 88.732 -46.871 Q88.732 -45.919 88.041 -45.225 Q87.349 -44.531 86.395 -44.531 H82.102 L84.249 -40.836 Q84.81 -40.01 84.537 -39.109 Q84.265 -38.209 83.43 -37.66 Q82.595 -37.111 81.699 -37.385 Q80.804 -37.659 80.258 -38.5 L78.111 -42.194 Z"/></g><g id="Ultralight-S" transform="matrix(1 0 0 1 517.792 696)"><path d="M13.019 -16.097 H81.662 Q82.051 -16.097 82.349 -15.797 Q82.648 -15.498 82.648 -15.107 Q82.648 -14.716 82.349 -14.42 Q82.051 -14.124 81.662 -14.124 H13.019 Q12.629 -14.124 12.331 -14.424 Q12.032 -14.723 12.032 -15.114 Q12.032 -15.505 12.331 -15.801 Q12.629 -16.097 13.019 -16.097 Z M16.569 -42.923  14.103 -38.682 Q13.63 -37.974 12.88 -37.736 Q12.131 -37.498 11.43 -37.975 Q10.729 -38.452 10.493 -39.208 Q10.257 -39.964 10.75 -40.654 L13.216 -44.895 H8.284 Q7.489 -44.895 6.9 -45.482 Q6.312 -46.07 6.312 -46.863 Q6.312 -47.657 6.9 -48.248 Q7.489 -48.84 8.284 -48.84 H13.216 L10.75 -53.081 Q10.257 -53.771 10.493 -54.528 Q10.729 -55.284 11.43 -55.76 Q12.131 -56.237 12.88 -55.999 Q13.63 -55.761 14.103 -55.054 L16.569 -50.813 L19.035 -55.054 Q19.508 -55.761 20.258 -55.999 Q21.007 -56.237 21.708 -55.76 Q22.409 -55.284 22.645 -54.528 Q22.881 -53.771 22.388 -53.081 L19.922 -48.84 H24.854 Q25.649 -48.84 26.238 -48.253 Q26.826 -47.666 26.826 -46.872 Q26.826 -46.079 26.238 -45.487 Q25.649 -44.895 24.854 -44.895 H19.922 L22.388 -40.654 Q22.881 -39.964 22.645 -39.208 Q22.409 -38.452 21.708 -37.975 Q21.007 -37.498 20.258 -37.736 Q19.508 -37.974 19.035 -38.682 L16.569 -42.923 Z M47.34 -42.923  44.874 -38.682 Q44.401 -37.974 43.651 -37.736 Q42.902 -37.498 42.201 -37.975 Q41.5 -38.452 41.264 -39.208 Q41.028 -39.964 41.521 -40.654 L43.987 -44.895 H39.056 Q38.26 -44.895 37.671 -45.482 Q37.083 -46.07 37.083 -46.863 Q37.083 -47.657 37.671 -48.248 Q38.26 -48.84 39.056 -48.84 H43.987 L41.521 -53.081 Q41.028 -53.771 41.264 -54.528 Q41.5 -55.284 42.201 -55.76 Q42.902 -56.237 43.651 -55.999 Q44.401 -55.761 44.874 -55.054 L47.34 -50.813 L49.806 -55.054 Q50.279 -55.761 51.029 -55.999 Q51.778 -56.237 52.479 -55.76 Q53.18 -55.284 53.416 -54.528 Q53.652 -53.771 53.159 -53.081 L50.693 -48.84 H55.625 Q56.42 -48.84 57.009 -48.253 Q57.597 -47.666 57.597 -46.872 Q57.597 -46.079 57.009 -45.487 Q56.42 -44.895 55.625 -44.895 H50.693 L53.159 -40.654 Q53.652 -39.964 53.416 -39.208 Q53.18 -38.452 52.479 -37.975 Q51.778 -37.498 51.029 -37.736 Q50.279 -37.974 49.806 -38.682 L47.34 -42.923 Z M78.111 -42.923  75.645 -38.682 Q75.172 -37.974 74.422 -37.736 Q73.673 -37.498 72.972 -37.975 Q72.271 -38.452 72.035 -39.208 Q71.799 -39.964 72.292 -40.654 L74.758 -44.895 H69.827 Q69.031 -44.895 68.442 -45.482 Q67.854 -46.07 67.854 -46.863 Q67.854 -47.657 68.442 -48.248 Q69.031 -48.84 69.827 -48.84 H74.758 L72.292 -53.081 Q71.799 -53.771 72.035 -54.528 Q72.271 -55.284 72.972 -55.76 Q73.673 -56.237 74.422 -55.999 Q75.172 -55.761 75.645 -55.054 L78.111 -50.813 L80.577 -55.054 Q81.05 -55.761 81.8 -55.999 Q82.549 -56.237 83.25 -55.76 Q83.951 -55.284 84.187 -54.528 Q84.423 -53.771 83.93 -53.081 L81.464 -48.84 H86.395 Q87.191 -48.84 87.78 -48.253 Q88.368 -47.666 88.368 -46.872 Q88.368 -46.079 87.78 -45.487 Q87.191 -44.895 86.395 -44.895 H81.464 L83.93 -40.654 Q84.423 -39.964 84.187 -39.208 Q83.951 -38.452 83.25 -37.975 Q82.549 -37.498 81.8 -37.736 Q81.05 -37.974 80.577 -38.682 L78.111 -42.923 Z"/></g></g></svg>