<svg xmlns="http://www.w3.org/2000/svg" version="1.1" width="3300" height="2000"><g id="Notes"><style>
    text {
      font-family: monospace;
      text-anchor: middle;
    }
    text.emphasis {
      font-weight:bold;
    }
    text.lanchor {
      text-anchor: start;
    }
  </style><rect height="2200" id="artboard" fill="white" width="3300" x="0" y="0"/><line id="" style="fill:none;stroke:black;stroke-width:0.5;" x1="263" x2="3036" y1="292" y2="292"/><text class="lanchor emphasis" transform="matrix(1 0 0 1 263 322)">Weight/Scale Variations</text><text transform="matrix(1 0 0 1 559.711 322)">Ultralight</text><text transform="matrix(1 0 0 1 856.422 322)">Thin</text><text transform="matrix(1 0 0 1 1153.13 322)">Light</text><text transform="matrix(1 0 0 1 1449.84 322)">Regular</text><text transform="matrix(1 0 0 1 1746.56 322)">Medium</text><text transform="matrix(1 0 0 1 2043.27 322)">Semibold</text><text transform="matrix(1 0 0 1 2339.98 322)">Bold</text><text transform="matrix(1 0 0 1 2636.69 322)">Heavy</text><text transform="matrix(1 0 0 1 2933.4 322)">Black</text><text id="template-version" style="text-anchor: end;" transform="matrix(1 0 0 1 3036 1933)">Template v.1.0</text><text class="lanchor" transform="matrix(1 0 0 1 263 726)">Small</text><text class="lanchor" transform="matrix(1 0 0 1 263 1156)">Medium</text><text class="lanchor" transform="matrix(1 0 0 1 263 1586)">Large</text></g><g id="Guides"><g id="H-reference" style="fill:#27AAE1;stroke:none;" transform="matrix(1 0 0 1 339 696)"><path d="M 54.9316 0 L 57.666 0 L 30.5664 -70.459 L 28.0762 -70.459 L 0.976562 0 L 3.66211 0 L 12.9395 -24.4629 L 45.7031 -24.4629 Z M 29.1992 -67.0898 L 29.4434 -67.0898 L 44.8242 -26.709 L 13.8184 -26.709 Z"/></g><line id="Baseline-S" style="fill:none;stroke:#27AAE1;opacity:1;stroke-width:0.577;" x1="263" x2="3036" y1="696" y2="696"/><line id="Capline-S" style="fill:none;stroke:#27AAE1;opacity:1;stroke-width:0.577;" x1="263" x2="3036" y1="625.541" y2="625.541"/><g id="H-reference" style="fill:#27AAE1;stroke:none;" transform="matrix(1 0 0 1 339 1126)"><path d="M 54.9316 0 L 57.666 0 L 30.5664 -70.459 L 28.0762 -70.459 L 0.976562 0 L 3.66211 0 L 12.9395 -24.4629 L 45.7031 -24.4629 Z M 29.1992 -67.0898 L 29.4434 -67.0898 L 44.8242 -26.709 L 13.8184 -26.709 Z"/></g><line id="Baseline-M" style="fill:none;stroke:#27AAE1;opacity:1;stroke-width:0.577;" x1="263" x2="3036" y1="1126" y2="1126"/><line id="Capline-M" style="fill:none;stroke:#27AAE1;opacity:1;stroke-width:0.577;" x1="263" x2="3036" y1="1055.54" y2="1055.54"/><g id="H-reference" style="fill:#27AAE1;stroke:none;" transform="matrix(1 0 0 1 339 1556)"><path d="M 54.9316 0 L 57.666 0 L 30.5664 -70.459 L 28.0762 -70.459 L 0.976562 0 L 3.66211 0 L 12.9395 -24.4629 L 45.7031 -24.4629 Z M 29.1992 -67.0898 L 29.4434 -67.0898 L 44.8242 -26.709 L 13.8184 -26.709 Z"/></g><line id="Baseline-L" style="fill:none;stroke:#27AAE1;opacity:1;stroke-width:0.577;" x1="263" x2="3036" y1="1556" y2="1556"/><line id="Capline-L" style="fill:none;stroke:#27AAE1;opacity:1;stroke-width:0.577;" x1="263" x2="3036" y1="1485.54" y2="1485.54"/><rect height="119.336" id="left-margin" style="fill:darkred;stroke:none;opacity:0.4;" width="12.4512" x="1394.06" y="1030.79"/><rect height="119.336" id="right-margin" style="fill:darkgreen;stroke:none;opacity:0.4;" width="12.4512" x="1502.5112" y="1030.79"/><rect x="1406.5112" y="1045" width="96" height="96" fill="none" stroke="blue" stroke-dasharray="5"/><rect x="1394.06" y="1030.79" width="120.9024" height="119.336" fill="none" stroke="blue"/></g><g id="Symbols"><g id="Bold-L" transform="matrix(1 0 0 1 2266 1556)"><path d="M122.873 5.889 V16.854 Q122.873 18.402 123.851 19.361 Q124.831 20.321 126.19 20.321 Q127.549 20.321 128.637 19.361 Q129.726 18.402 129.726 16.854 V-2.259 Q129.726 -3.706 128.653 -4.794 Q127.581 -5.882 125.941 -5.882 H106.828 Q105.474 -5.882 104.498 -4.886 Q103.523 -3.89 103.523 -2.508 Q103.523 -1.126 104.514 -0.077 Q105.506 0.971 106.828 0.971 H117.954 L102.617 16.308 Q101.588 17.411 101.588 18.785 Q101.588 20.159 102.693 21.208 Q103.799 22.256 105.152 22.256 Q106.506 22.256 107.535 21.226 L122.873 5.889 Z M30.799 26.529 Q24.713 26.529 20.378 22.147 Q16.044 17.766 16.044 11.613 V-81.509 Q16.044 -87.595 20.378 -91.929 Q24.713 -96.263 30.799 -96.263 H124.001 Q130.154 -96.263 134.535 -91.929 Q138.917 -87.595 138.917 -81.509 V-38.939 Q138.917 -35.835 136.651 -33.678 Q134.386 -31.521 131.376 -31.521 Q128.274 -31.521 126.138 -33.678 Q124.001 -35.835 124.001 -38.939 V-81.509 Q124.001 -81.509 124.001 -81.509 Q124.001 -81.509 124.001 -81.509 H30.799 Q30.799 -81.509 30.799 -81.509 Q30.799 -81.509 30.799 -81.509 V11.613 Q30.799 11.613 30.799 11.613 Q30.799 11.613 30.799 11.613 H70.224 Q73.216 11.613 75.469 13.784 Q77.722 15.955 77.722 19.059 Q77.722 22.256 75.469 24.392 Q73.216 26.529 70.224 26.529 H30.799 Z M47.004 -9.241 Q47.004 -7.253 48.355 -5.923 Q49.705 -4.592 51.681 -4.592 H74.578 Q76.392 -4.592 77.823 -5.951 Q79.254 -7.31 79.254 -9.257 Q79.254 -11.204 77.823 -12.534 Q76.392 -13.864 74.578 -13.864 H51.681 Q49.705 -13.864 48.355 -12.5 Q47.004 -11.135 47.004 -9.241 Z M47.004 -34.96 Q47.004 -32.972 48.355 -31.642 Q49.705 -30.312 51.657 -30.312 H103.868 Q105.659 -30.312 107.09 -31.67 Q108.521 -33.029 108.521 -34.976 Q108.521 -36.923 107.09 -38.253 Q105.659 -39.584 103.87 -39.584 H51.681 Q49.705 -39.584 48.355 -38.219 Q47.004 -36.854 47.004 -34.96 Z M47.004 -60.679 Q47.004 -58.692 48.355 -57.362 Q49.705 -56.031 51.681 -56.031 H103.2 Q105.083 -56.031 106.439 -57.39 Q107.796 -58.748 107.796 -60.695 Q107.796 -62.642 106.439 -63.973 Q105.083 -65.303 103.2 -65.303 H51.681 Q49.705 -65.303 48.355 -63.938 Q47.004 -62.574 47.004 -60.679 Z M116.428 36.929 Q104.168 36.929 95.46 28.227 Q86.752 19.525 86.752 7.345 Q86.752 -4.905 95.453 -13.738 Q104.153 -22.572 116.498 -22.572 Q128.678 -22.572 137.466 -13.744 Q146.254 -4.915 146.254 7.335 Q146.254 19.514 137.471 28.222 Q128.688 36.929 116.428 36.929 Z"/></g><g id="Semibold-L" transform="matrix(1 0 0 1 1970.27 1556)"><path d="M123.994 3.435 V15.732 Q123.994 16.986 124.833 17.812 Q125.672 18.638 126.821 18.638 Q127.969 18.638 128.883 17.812 Q129.796 16.986 129.796 15.732 V-3.451 Q129.796 -4.687 128.892 -5.6 Q127.988 -6.513 126.642 -6.513 H107.459 Q106.315 -6.513 105.48 -5.657 Q104.644 -4.801 104.644 -3.629 Q104.644 -2.458 105.489 -1.585 Q106.333 -0.712 107.459 -0.712 H119.847 L103.598 15.537 Q102.709 16.468 102.709 17.612 Q102.709 18.757 103.65 19.665 Q104.59 20.573 105.723 20.573 Q106.856 20.573 107.745 19.684 L123.994 3.435 Z M30.168 24.566 Q25.065 24.566 21.431 20.905 Q17.797 17.244 17.797 12.104 V-82.28 Q17.797 -87.383 21.431 -91.017 Q25.065 -94.651 30.168 -94.651 H124.632 Q129.773 -94.651 133.433 -91.017 Q137.094 -87.383 137.094 -82.28 V-38.869 Q137.094 -36.255 135.22 -34.449 Q133.346 -32.643 130.822 -32.643 Q128.204 -32.643 126.418 -34.449 Q124.632 -36.255 124.632 -38.869 V-82.28 Q124.632 -82.28 124.632 -82.28 Q124.632 -82.28 124.632 -82.28 H30.168 Q30.168 -82.28 30.168 -82.28 Q30.168 -82.28 30.168 -82.28 V12.104 Q30.168 12.104 30.168 12.104 Q30.168 12.104 30.168 12.104 H72.187 Q74.696 12.104 76.56 13.924 Q78.424 15.745 78.424 18.323 Q78.424 20.994 76.56 22.78 Q74.696 24.566 72.187 24.566 H30.168 Z M46.373 -8.75 Q46.373 -6.762 47.724 -5.432 Q49.074 -4.102 51.05 -4.102 H74.859 Q76.743 -4.102 78.139 -5.46 Q79.535 -6.819 79.535 -8.766 Q79.535 -10.713 78.139 -12.043 Q76.743 -13.374 74.859 -13.374 H51.05 Q49.074 -13.374 47.724 -12.009 Q46.373 -10.644 46.373 -8.75 Z M46.373 -35.1 Q46.373 -33.113 47.724 -31.782 Q49.074 -30.452 51.036 -30.452 H103.297 Q105.168 -30.452 106.564 -31.811 Q107.96 -33.169 107.96 -35.116 Q107.96 -37.063 106.564 -38.394 Q105.168 -39.724 103.299 -39.724 H51.05 Q49.074 -39.724 47.724 -38.359 Q46.373 -36.995 46.373 -35.1 Z M46.373 -61.45 Q46.373 -59.463 47.724 -58.133 Q49.074 -56.802 51.05 -56.802 H103.831 Q105.714 -56.802 107.07 -58.161 Q108.427 -59.52 108.427 -61.467 Q108.427 -63.414 107.07 -64.744 Q105.714 -66.074 103.831 -66.074 H51.05 Q49.074 -66.074 47.724 -64.71 Q46.373 -63.345 46.373 -61.45 Z M117.059 35.808 Q104.798 35.808 96.091 27.071 Q87.383 18.333 87.383 6.224 Q87.383 -6.096 96.084 -14.895 Q104.784 -23.694 117.129 -23.694 Q129.308 -23.694 138.097 -14.9 Q146.885 -6.107 146.885 6.213 Q146.885 18.323 138.102 27.065 Q129.319 35.808 117.059 35.808 Z"/></g><g id="Medium-L" transform="matrix(1 0 0 1 1674.31 1556)"><path d="M124.836 1.595 V14.891 Q124.836 15.923 125.569 16.65 Q126.303 17.376 127.294 17.376 Q128.285 17.376 129.067 16.65 Q129.848 15.923 129.848 14.891 V-4.345 Q129.848 -5.423 129.07 -6.205 Q128.293 -6.987 127.168 -6.987 H107.932 Q106.946 -6.987 106.216 -6.236 Q105.486 -5.485 105.486 -4.471 Q105.486 -3.457 106.22 -2.715 Q106.954 -1.974 107.932 -1.974 H121.267 L104.335 14.958 Q103.551 15.76 103.551 16.733 Q103.551 17.706 104.367 18.508 Q105.184 19.311 106.151 19.311 Q107.119 19.311 107.903 18.527 L124.836 1.595 Z M29.695 23.093 Q25.329 23.093 22.22 19.973 Q19.112 16.853 19.112 12.472 V-82.858 Q19.112 -87.224 22.22 -90.333 Q25.329 -93.441 29.695 -93.441 H125.105 Q129.487 -93.441 132.607 -90.333 Q135.727 -87.224 135.727 -82.858 V-38.816 Q135.727 -36.571 134.147 -35.028 Q132.567 -33.484 130.406 -33.484 Q128.152 -33.484 126.628 -35.028 Q125.105 -36.571 125.105 -38.816 V-82.858 Q125.105 -82.858 125.105 -82.858 Q125.105 -82.858 125.105 -82.858 H29.695 Q29.695 -82.858 29.695 -82.858 Q29.695 -82.858 29.695 -82.858 V12.472 Q29.695 12.472 29.695 12.472 Q29.695 12.472 29.695 12.472 H73.66 Q75.807 12.472 77.378 14.029 Q78.949 15.587 78.949 17.771 Q78.949 20.047 77.378 21.57 Q75.807 23.093 73.66 23.093 H29.695 Z M45.9 -8.382 Q45.9 -6.394 47.251 -5.064 Q48.601 -3.734 50.576 -3.734 H75.069 Q77.006 -3.734 78.375 -5.092 Q79.745 -6.451 79.745 -8.398 Q79.745 -10.345 78.375 -11.675 Q77.006 -13.006 75.069 -13.006 H50.576 Q48.601 -13.006 47.251 -11.641 Q45.9 -10.276 45.9 -8.382 Z M45.9 -35.205 Q45.9 -33.218 47.251 -31.888 Q48.601 -30.557 50.571 -30.557 H102.869 Q104.8 -30.557 106.17 -31.916 Q107.54 -33.275 107.54 -35.221 Q107.54 -37.169 106.17 -38.499 Q104.8 -39.829 102.87 -39.829 H50.576 Q48.601 -39.829 47.251 -38.465 Q45.9 -37.1 45.9 -35.205 Z M45.9 -62.029 Q45.9 -60.042 47.251 -58.711 Q48.601 -57.381 50.576 -57.381 H104.304 Q106.187 -57.381 107.543 -58.739 Q108.9 -60.098 108.9 -62.045 Q108.9 -63.992 107.543 -65.322 Q106.187 -66.653 104.304 -66.653 H50.576 Q48.601 -66.653 47.251 -65.288 Q45.9 -63.923 45.9 -62.029 Z M117.532 34.966 Q105.272 34.966 96.564 26.203 Q87.857 17.439 87.857 5.382 Q87.857 -6.99 96.557 -15.763 Q105.258 -24.535 117.602 -24.535 Q129.782 -24.535 138.57 -15.768 Q147.358 -7.001 147.358 5.372 Q147.358 17.429 138.575 26.198 Q129.793 34.966 117.532 34.966 Z"/></g><g id="Regular-L" transform="matrix(1 0 0 1 1378.56 1556)"><path d="M125.453 0.245 V14.274 Q125.453 15.145 126.109 15.798 Q126.766 16.451 127.641 16.451 Q128.516 16.451 129.202 15.798 Q129.887 15.145 129.887 14.274 V-5.001 Q129.887 -5.963 129.202 -6.648 Q128.516 -7.334 127.554 -7.334 H108.279 Q107.409 -7.334 106.756 -6.66 Q106.103 -5.986 106.103 -5.088 Q106.103 -4.189 106.756 -3.544 Q107.409 -2.899 108.279 -2.899 H122.308 L104.875 14.534 Q104.168 15.241 104.168 16.088 Q104.168 16.934 104.893 17.66 Q105.619 18.386 106.465 18.386 Q107.312 18.386 108.019 17.679 L125.453 0.245 Z M29.348 22.014 Q25.523 22.014 22.799 19.29 Q20.076 16.567 20.076 12.742 V-83.282 Q20.076 -87.107 22.799 -89.831 Q25.523 -92.554 29.348 -92.554 H125.453 Q129.277 -92.554 132.001 -89.831 Q134.724 -87.107 134.724 -83.282 V-38.777 Q134.724 -36.802 133.36 -35.452 Q131.995 -34.101 130.101 -34.101 Q128.113 -34.101 126.783 -35.452 Q125.453 -36.802 125.453 -38.777 V-83.282 Q125.453 -83.282 125.453 -83.282 Q125.453 -83.282 125.453 -83.282 H29.348 Q29.348 -83.282 29.348 -83.282 Q29.348 -83.282 29.348 -83.282 V12.742 Q29.348 12.742 29.348 12.742 Q29.348 12.742 29.348 12.742 H74.739 Q76.622 12.742 77.978 14.107 Q79.335 15.471 79.335 17.366 Q79.335 19.353 77.978 20.683 Q76.622 22.014 74.739 22.014 H29.348 Z M45.553 -8.112 Q45.553 -6.124 46.904 -4.794 Q48.254 -3.464 50.229 -3.464 H75.223 Q77.198 -3.464 78.549 -4.822 Q79.899 -6.181 79.899 -8.128 Q79.899 -10.075 78.549 -11.405 Q77.198 -12.736 75.223 -12.736 H50.229 Q48.254 -12.736 46.904 -11.371 Q45.553 -10.006 45.553 -8.112 Z M45.553 -35.282 Q45.553 -33.295 46.904 -31.965 Q48.254 -30.634 50.229 -30.634 H102.555 Q104.53 -30.634 105.881 -31.993 Q107.231 -33.352 107.231 -35.299 Q107.231 -37.246 105.881 -38.576 Q104.53 -39.906 102.555 -39.906 H50.229 Q48.254 -39.906 46.904 -38.542 Q45.553 -37.177 45.553 -35.282 Z M45.553 -62.453 Q45.553 -60.466 46.904 -59.135 Q48.254 -57.805 50.229 -57.805 H104.651 Q106.534 -57.805 107.89 -59.164 Q109.247 -60.522 109.247 -62.469 Q109.247 -64.416 107.89 -65.747 Q106.534 -67.077 104.651 -67.077 H50.229 Q48.254 -67.077 46.904 -65.712 Q45.553 -64.348 45.553 -62.453 Z M117.879 34.349 Q105.619 34.349 96.911 25.567 Q88.204 16.784 88.204 4.765 Q88.204 -7.646 96.904 -16.399 Q105.605 -25.152 117.949 -25.152 Q130.129 -25.152 138.917 -16.404 Q147.705 -7.657 147.705 4.755 Q147.705 16.773 138.922 25.561 Q130.14 34.349 117.879 34.349 Z"/></g><g id="Light-L" transform="matrix(1 0 0 1 1082.77 1556)"><path d="M124.987 0.307 V13.219 Q124.987 14.065 125.645 14.7 Q126.303 15.334 127.127 15.334 Q127.951 15.334 128.609 14.7 Q129.267 14.065 129.267 13.219 V-4.782 Q129.267 -5.696 128.588 -6.376 Q127.908 -7.055 126.994 -7.055 H108.993 Q108.184 -7.055 107.531 -6.41 Q106.878 -5.766 106.878 -4.906 Q106.878 -4.022 107.531 -3.399 Q108.184 -2.775 108.993 -2.775 H121.967 L105.588 13.542 Q105.005 14.243 104.974 15.093 Q104.943 15.942 105.606 16.606 Q106.231 17.207 107.142 17.207 Q108.053 17.207 108.649 16.646 L124.987 0.307 Z M32.076 19.099 Q28.39 19.099 25.706 16.415 Q23.022 13.731 23.022 10.044 V-80.554 Q23.022 -84.24 25.706 -86.924 Q28.39 -89.608 32.076 -89.608 H122.724 Q126.41 -89.608 129.094 -86.924 Q131.778 -84.24 131.778 -80.554 V-39.057 Q131.778 -37.52 130.734 -36.493 Q129.689 -35.466 128.267 -35.466 Q126.718 -35.466 125.713 -36.493 Q124.708 -37.52 124.708 -39.057 V-80.554 Q124.708 -81.298 124.088 -81.918 Q123.468 -82.538 122.724 -82.538 H32.076 Q31.332 -82.538 30.712 -81.918 Q30.092 -81.298 30.092 -80.554 V10.044 Q30.092 10.788 30.712 11.408 Q31.332 12.029 32.076 12.029 H74.243 Q75.651 12.029 76.687 13.073 Q77.722 14.118 77.722 15.539 Q77.722 17.089 76.687 18.094 Q75.651 19.099 74.243 19.099 H32.076 Z M47.011 -9.194 Q47.011 -7.644 48.038 -6.639 Q49.065 -5.635 50.602 -5.635 H75.192 Q76.729 -5.635 77.756 -6.671 Q78.783 -7.707 78.783 -9.201 Q78.783 -10.695 77.756 -11.7 Q76.729 -12.705 75.192 -12.705 H50.602 Q49.065 -12.705 48.038 -11.66 Q47.011 -10.615 47.011 -9.194 Z M47.011 -35.279 Q47.011 -33.729 48.038 -32.724 Q49.065 -31.72 50.602 -31.72 H102.183 Q103.719 -31.72 104.747 -32.756 Q105.774 -33.792 105.774 -35.286 Q105.774 -36.78 104.747 -37.785 Q103.719 -38.79 102.183 -38.79 H50.602 Q49.065 -38.79 48.038 -37.745 Q47.011 -36.701 47.011 -35.279 Z M47.011 -61.364 Q47.011 -59.814 48.038 -58.81 Q49.065 -57.805 50.602 -57.805 H104.31 Q105.718 -57.805 106.754 -58.841 Q107.789 -59.878 107.789 -61.372 Q107.789 -62.866 106.754 -63.87 Q105.718 -64.875 104.31 -64.875 H50.602 Q49.065 -64.875 48.038 -63.83 Q47.011 -62.786 47.011 -61.364 Z M117.442 32.024 Q106.175 32.024 98.213 23.971 Q90.25 15.919 90.25 4.876 Q90.25 -6.56 98.208 -14.538 Q106.165 -22.516 117.516 -22.516 Q128.702 -22.516 136.715 -14.541 Q144.728 -6.567 144.728 4.869 Q144.728 15.913 136.718 23.968 Q128.709 32.024 117.442 32.024 Z"/></g><g id="Thin-L" transform="matrix(1 0 0 1 787.282 1556)"><path d="M124.522 0.369 V12.165 Q124.522 12.986 125.181 13.602 Q125.841 14.218 126.613 14.218 Q127.386 14.218 128.016 13.602 Q128.647 12.986 128.647 12.165 V-4.563 Q128.647 -5.43 127.974 -6.103 Q127.301 -6.776 126.434 -6.776 H109.706 Q108.959 -6.776 108.306 -6.16 Q107.653 -5.545 107.653 -4.725 Q107.653 -3.854 108.306 -3.253 Q108.959 -2.651 109.706 -2.651 H121.626 L106.301 12.55 Q105.842 13.245 105.78 14.098 Q105.718 14.95 106.32 15.551 Q106.842 16.029 107.819 16.029 Q108.795 16.029 109.278 15.613 L124.522 0.369 Z M34.805 16.184 Q31.256 16.184 28.612 13.54 Q25.967 10.896 25.967 7.346 V-77.825 Q25.967 -81.374 28.612 -84.018 Q31.256 -86.663 34.805 -86.663 H119.995 Q123.544 -86.663 126.188 -84.018 Q128.833 -81.374 128.833 -77.825 V-39.336 Q128.833 -38.238 128.108 -37.534 Q127.383 -36.83 126.435 -36.83 Q125.322 -36.83 124.643 -37.534 Q123.964 -38.238 123.964 -39.336 V-77.825 Q123.964 -79.313 122.724 -80.554 Q121.483 -81.794 119.995 -81.794 H34.805 Q33.317 -81.794 32.076 -80.554 Q30.836 -79.313 30.836 -77.825 V7.346 Q30.836 8.835 32.076 10.075 Q33.317 11.315 34.805 11.315 H73.747 Q74.681 11.315 75.395 12.04 Q76.11 12.765 76.11 13.713 Q76.11 14.826 75.395 15.505 Q74.681 16.184 73.747 16.184 H34.805 Z M48.468 -10.276 Q48.468 -9.163 49.172 -8.484 Q49.876 -7.805 50.974 -7.805 H75.161 Q76.259 -7.805 76.963 -8.519 Q77.667 -9.233 77.667 -10.274 Q77.667 -11.315 76.963 -11.995 Q76.259 -12.674 75.161 -12.674 H50.974 Q49.876 -12.674 49.172 -11.949 Q48.468 -11.224 48.468 -10.276 Z M48.468 -35.276 Q48.468 -34.163 49.172 -33.484 Q49.876 -32.805 50.974 -32.805 H101.811 Q102.908 -32.805 103.612 -33.519 Q104.316 -34.233 104.316 -35.274 Q104.316 -36.315 103.612 -36.994 Q102.908 -37.674 101.811 -37.674 H50.974 Q49.876 -37.674 49.172 -36.949 Q48.468 -36.224 48.468 -35.276 Z M48.468 -60.276 Q48.468 -59.163 49.172 -58.484 Q49.876 -57.805 50.974 -57.805 H103.969 Q104.903 -57.805 105.617 -58.519 Q106.332 -59.233 106.332 -60.274 Q106.332 -61.315 105.617 -61.994 Q104.903 -62.674 103.969 -62.674 H50.974 Q49.876 -62.674 49.172 -61.949 Q48.468 -61.224 48.468 -60.276 Z M117.004 29.698 Q106.73 29.698 99.514 22.376 Q92.297 15.055 92.297 4.986 Q92.297 -5.475 99.511 -12.678 Q106.725 -19.88 117.082 -19.88 Q127.276 -19.88 134.514 -12.679 Q141.751 -5.478 141.751 4.984 Q141.751 15.052 134.515 22.375 Q127.278 29.698 117.004 29.698 Z"/></g><g id="Ultralight-L" transform="matrix(1 0 0 1 491.205 1556)"><path d="M124.243 0.406 V11.533 Q124.243 12.339 124.903 12.943 Q125.563 13.548 126.305 13.548 Q127.047 13.548 127.66 12.943 Q128.274 12.339 128.274 11.533 V-4.431 Q128.274 -5.27 127.605 -5.939 Q126.936 -6.608 126.097 -6.608 H110.134 Q109.424 -6.608 108.771 -6.01 Q108.118 -5.413 108.118 -4.616 Q108.118 -3.754 108.771 -3.165 Q109.424 -2.577 110.134 -2.577 H121.421 L106.729 11.954 Q106.344 12.647 106.264 13.501 Q106.183 14.354 106.748 14.919 Q107.209 15.322 108.224 15.322 Q109.24 15.322 109.656 14.993 L124.243 0.406 Z M36.443 14.435 Q32.976 14.435 30.355 11.815 Q27.735 9.194 27.735 5.728 V-76.187 Q27.735 -79.654 30.355 -82.275 Q32.976 -84.895 36.443 -84.895 H118.358 Q121.824 -84.895 124.445 -82.275 Q127.065 -79.654 127.065 -76.187 V-39.503 Q127.065 -38.669 126.532 -38.159 Q126 -37.649 125.335 -37.649 Q124.485 -37.649 124.001 -38.159 Q123.517 -38.669 123.517 -39.503 V-76.187 Q123.517 -78.122 121.905 -79.735 Q120.293 -81.347 118.358 -81.347 H36.443 Q34.508 -81.347 32.895 -79.735 Q31.283 -78.122 31.283 -76.187 V5.728 Q31.283 7.663 32.895 9.275 Q34.508 10.888 36.443 10.888 H73.449 Q74.098 10.888 74.621 11.42 Q75.142 11.953 75.142 12.617 Q75.142 13.468 74.621 13.951 Q74.098 14.435 73.449 14.435 H36.443 Z M49.343 -10.925 Q49.343 -10.075 49.852 -9.591 Q50.362 -9.107 51.197 -9.107 H75.142 Q75.977 -9.107 76.487 -9.628 Q76.997 -10.149 76.997 -10.918 Q76.997 -11.687 76.487 -12.171 Q75.977 -12.655 75.142 -12.655 H51.197 Q50.362 -12.655 49.852 -12.122 Q49.343 -11.59 49.343 -10.925 Z M49.343 -35.274 Q49.343 -34.424 49.852 -33.94 Q50.362 -33.456 51.197 -33.456 H101.588 Q102.422 -33.456 102.932 -33.977 Q103.442 -34.497 103.442 -35.267 Q103.442 -36.036 102.932 -36.52 Q102.422 -37.004 101.588 -37.004 H51.197 Q50.362 -37.004 49.852 -36.471 Q49.343 -35.939 49.343 -35.274 Z M49.343 -59.623 Q49.343 -58.772 49.852 -58.289 Q50.362 -57.805 51.197 -57.805 H103.764 Q104.413 -57.805 104.935 -58.326 Q105.457 -58.846 105.457 -59.616 Q105.457 -60.385 104.935 -60.869 Q104.413 -61.352 103.764 -61.352 H51.197 Q50.362 -61.352 49.852 -60.82 Q49.343 -60.287 49.343 -59.623 Z M116.742 28.303 Q107.064 28.303 100.294 21.419 Q93.525 14.536 93.525 5.052 Q93.525 -4.824 100.293 -11.561 Q107.06 -18.299 116.823 -18.299 Q126.42 -18.299 133.192 -11.561 Q139.965 -4.824 139.965 5.052 Q139.965 14.536 133.192 21.419 Q126.42 28.303 116.742 28.303 Z"/></g><g id="Bold-M" transform="matrix(1 0 0 1 2281.8 1126)"><path d="M92.188 -2.605 V4.02 Q92.188 5.52 93.156 6.489 Q94.125 7.458 95.625 7.458 Q97.125 7.458 98.094 6.489 Q99.062 5.52 99.062 4.02 V-10.738 Q99.062 -12.355 98.031 -13.386 Q97 -14.417 95.383 -14.417 H80.625 Q79.125 -14.417 78.156 -13.449 Q77.188 -12.48 77.188 -11.042 Q77.188 -9.605 78.219 -8.574 Q79.25 -7.542 80.625 -7.542 H87.375 L76.75 3.083 Q75.688 4.145 75.688 5.489 Q75.688 6.833 76.777 7.895 Q77.866 8.958 79.246 8.958 Q80.625 8.958 81.688 7.895 L92.188 -2.605 Z M27 13.145 Q20.761 13.145 16.318 8.702 Q11.875 4.259 11.875 -1.98 V-67.855 Q11.875 -74.094 16.318 -78.537 Q20.761 -82.98 27 -82.98 H93 Q99.239 -82.98 103.682 -78.537 Q108.125 -74.094 108.125 -67.855 V-44.542 Q108.125 -41.48 105.875 -39.23 Q103.625 -36.98 100.562 -36.98 Q97.5 -36.98 95.25 -39.23 Q93 -41.48 93 -44.542 V-67.855 Q93 -67.855 93 -67.855 Q93 -67.855 93 -67.855 H27 Q27 -67.855 27 -67.855 Q27 -67.855 27 -67.855 V-1.98 Q27 -1.98 27 -1.98 Q27 -1.98 27 -1.98 H46.938 Q50 -1.98 52.25 0.27 Q54.5 2.52 54.5 5.583 Q54.5 8.645 52.25 10.895 Q50 13.145 46.938 13.145 H27 Z M37.125 -16.792 Q37.125 -14.855 38.5 -13.48 Q39.875 -12.105 41.812 -12.105 H51 Q52.938 -12.105 54.312 -13.48 Q55.688 -14.855 55.688 -16.792 Q55.688 -18.73 54.312 -20.105 Q52.938 -21.48 51 -21.48 H41.812 Q39.875 -21.48 38.5 -20.105 Q37.125 -18.73 37.125 -16.792 Z M37.125 -34.917 Q37.125 -32.98 38.5 -31.605 Q39.875 -30.23 41.794 -30.23 H67.768 Q69.688 -30.23 71.062 -31.605 Q72.438 -32.98 72.438 -34.917 Q72.438 -36.855 71.062 -38.23 Q69.688 -39.605 67.77 -39.605 H41.812 Q39.875 -39.605 38.5 -38.23 Q37.125 -36.855 37.125 -34.917 Z M37.125 -53.042 Q37.125 -51.105 38.5 -49.73 Q39.875 -48.355 41.812 -48.355 H78.188 Q80.125 -48.355 81.5 -49.73 Q82.875 -51.105 82.875 -53.042 Q82.875 -54.98 81.5 -56.355 Q80.125 -57.73 78.188 -57.73 H41.812 Q39.875 -57.73 38.5 -56.355 Q37.125 -54.98 37.125 -53.042 Z M88.133 20.645 Q78.125 20.645 71.062 13.591 Q64 6.537 64 -3.472 Q64 -13.48 71.054 -20.542 Q78.108 -27.605 88.117 -27.605 Q98.125 -27.605 105.188 -20.551 Q112.25 -13.497 112.25 -3.488 Q112.25 6.52 105.196 13.583 Q98.142 20.645 88.133 20.645 Z"/></g><g id="Semibold-M" transform="matrix(1 0 0 1 1985.97 1126)"><path d="M93.383 -5.159 V2.824 Q93.383 4.053 94.216 4.886 Q95.049 5.719 96.277 5.719 Q97.505 5.719 98.338 4.886 Q99.171 4.053 99.171 2.824 V-11.988 Q99.171 -13.333 98.303 -14.201 Q97.435 -15.07 96.089 -15.07 H81.277 Q80.049 -15.07 79.216 -14.237 Q78.383 -13.404 78.383 -12.211 Q78.383 -11.018 79.251 -10.15 Q80.12 -9.281 81.277 -9.281 H89.331 L77.782 2.267 Q76.883 3.167 76.883 4.293 Q76.883 5.42 77.798 6.319 Q78.712 7.219 79.859 7.219 Q81.005 7.219 81.905 6.319 L93.383 -5.159 Z M26.348 11.134 Q21.14 11.134 17.431 7.426 Q13.723 3.717 13.723 -1.491 V-68.67 Q13.723 -73.878 17.431 -77.587 Q21.14 -81.295 26.348 -81.295 H93.652 Q98.86 -81.295 102.569 -77.587 Q106.277 -73.878 106.277 -68.67 V-44.488 Q106.277 -41.915 104.408 -40.045 Q102.538 -38.176 99.965 -38.176 Q97.391 -38.176 95.522 -40.045 Q93.652 -41.915 93.652 -44.488 V-68.67 Q93.652 -68.67 93.652 -68.67 Q93.652 -68.67 93.652 -68.67 H26.348 Q26.348 -68.67 26.348 -68.67 Q26.348 -68.67 26.348 -68.67 V-1.491 Q26.348 -1.491 26.348 -1.491 Q26.348 -1.491 26.348 -1.491 H48.948 Q51.522 -1.491 53.391 0.379 Q55.261 2.248 55.261 4.822 Q55.261 7.395 53.391 9.265 Q51.522 11.134 48.948 11.134 H26.348 Z M36.473 -16.303 Q36.473 -14.366 37.848 -12.991 Q39.223 -11.616 41.16 -11.616 H51.326 Q53.264 -11.616 54.639 -12.991 Q56.014 -14.366 56.014 -16.303 Q56.014 -18.241 54.639 -19.616 Q53.264 -20.991 51.326 -20.991 H41.16 Q39.223 -20.991 37.848 -19.616 Q36.473 -18.241 36.473 -16.303 Z M36.473 -35.08 Q36.473 -33.143 37.848 -31.768 Q39.223 -30.393 41.15 -30.393 H67.217 Q69.144 -30.393 70.519 -31.768 Q71.894 -33.143 71.894 -35.08 Q71.894 -37.018 70.519 -38.393 Q69.144 -39.768 67.218 -39.768 H41.16 Q39.223 -39.768 37.848 -38.393 Q36.473 -37.018 36.473 -35.08 Z M36.473 -53.858 Q36.473 -51.92 37.848 -50.545 Q39.223 -49.17 41.16 -49.17 H78.84 Q80.777 -49.17 82.152 -50.545 Q83.527 -51.92 83.527 -53.858 Q83.527 -55.795 82.152 -57.17 Q80.777 -58.545 78.84 -58.545 H41.16 Q39.223 -58.545 37.848 -57.17 Q36.473 -55.795 36.473 -53.858 Z M88.785 19.449 Q78.777 19.449 71.715 12.395 Q64.652 5.341 64.652 -4.667 Q64.652 -14.676 71.706 -21.738 Q78.76 -28.801 88.769 -28.801 Q98.777 -28.801 105.84 -21.746 Q112.902 -14.692 112.902 -4.684 Q112.902 5.324 105.848 12.387 Q98.794 19.449 88.785 19.449 Z"/></g><g id="Medium-M" transform="matrix(1 0 0 1 1689.91 1126)"><path d="M94.28 -7.075 V1.928 Q94.28 2.952 95.011 3.683 Q95.742 4.414 96.766 4.414 Q97.791 4.414 98.522 3.683 Q99.253 2.952 99.253 1.928 V-12.925 Q99.253 -14.067 98.507 -14.813 Q97.761 -15.559 96.619 -15.559 H81.766 Q80.742 -15.559 80.011 -14.828 Q79.28 -14.097 79.28 -13.087 Q79.28 -12.078 80.026 -11.332 Q80.772 -10.586 81.766 -10.586 H90.799 L78.557 1.656 Q77.78 2.433 77.78 3.396 Q77.78 4.36 78.564 5.137 Q79.347 5.914 80.319 5.914 Q81.291 5.914 82.068 5.137 L94.28 -7.075 Z M25.859 9.626 Q21.424 9.626 18.267 6.468 Q15.109 3.31 15.109 -1.124 V-69.282 Q15.109 -73.716 18.267 -76.874 Q21.424 -80.032 25.859 -80.032 H94.141 Q98.576 -80.032 101.734 -76.874 Q104.891 -73.716 104.891 -69.282 V-44.447 Q104.891 -42.241 103.307 -40.657 Q101.723 -39.072 99.516 -39.072 Q97.31 -39.072 95.725 -40.657 Q94.141 -42.241 94.141 -44.447 V-69.282 Q94.141 -69.282 94.141 -69.282 Q94.141 -69.282 94.141 -69.282 H25.859 Q25.859 -69.282 25.859 -69.282 Q25.859 -69.282 25.859 -69.282 V-1.124 Q25.859 -1.124 25.859 -1.124 Q25.859 -1.124 25.859 -1.124 H50.456 Q52.663 -1.124 54.247 0.46 Q55.831 2.045 55.831 4.251 Q55.831 6.458 54.247 8.042 Q52.663 9.626 50.456 9.626 H25.859 Z M35.984 -15.936 Q35.984 -13.999 37.359 -12.624 Q38.734 -11.249 40.671 -11.249 H51.571 Q53.508 -11.249 54.883 -12.624 Q56.258 -13.999 56.258 -15.936 Q56.258 -17.874 54.883 -19.249 Q53.508 -20.624 51.571 -20.624 H40.671 Q38.734 -20.624 37.359 -19.249 Q35.984 -17.874 35.984 -15.936 Z M35.984 -35.203 Q35.984 -33.265 37.359 -31.89 Q38.734 -30.515 40.667 -30.515 H66.803 Q68.736 -30.515 70.111 -31.89 Q71.486 -33.265 71.486 -35.203 Q71.486 -37.14 70.111 -38.515 Q68.736 -39.89 66.804 -39.89 H40.671 Q38.734 -39.89 37.359 -38.515 Q35.984 -37.14 35.984 -35.203 Z M35.984 -54.469 Q35.984 -52.532 37.359 -51.157 Q38.734 -49.782 40.671 -49.782 H79.329 Q81.266 -49.782 82.641 -51.157 Q84.016 -52.532 84.016 -54.469 Q84.016 -56.407 82.641 -57.782 Q81.266 -59.157 79.329 -59.157 H40.671 Q38.734 -59.157 37.359 -57.782 Q35.984 -56.407 35.984 -54.469 Z M89.275 18.553 Q79.266 18.553 72.204 11.499 Q65.141 4.444 65.141 -5.564 Q65.141 -15.572 72.195 -22.635 Q79.249 -29.697 89.258 -29.697 Q99.266 -29.697 106.329 -22.643 Q113.391 -15.589 113.391 -5.581 Q113.391 4.428 106.337 11.49 Q99.283 18.553 89.275 18.553 Z"/></g><g id="Regular-M" transform="matrix(1 0 0 1 1394.06 1126)"><path d="M94.938 -8.48 V1.27 Q94.938 2.145 95.594 2.801 Q96.25 3.458 97.125 3.458 Q98 3.458 98.656 2.801 Q99.312 2.145 99.312 1.27 V-13.613 Q99.312 -14.605 98.656 -15.261 Q98 -15.917 97.008 -15.917 H82.125 Q81.25 -15.917 80.594 -15.261 Q79.938 -14.605 79.938 -13.73 Q79.938 -12.855 80.594 -12.199 Q81.25 -11.542 82.125 -11.542 H91.875 L79.125 1.208 Q78.438 1.895 78.438 2.739 Q78.438 3.583 79.125 4.27 Q79.812 4.958 80.656 4.958 Q81.5 4.958 82.188 4.27 L94.938 -8.48 Z M25.5 8.52 Q21.633 8.52 18.879 5.766 Q16.125 3.012 16.125 -0.855 V-69.73 Q16.125 -73.597 18.879 -76.351 Q21.633 -79.105 25.5 -79.105 H94.5 Q98.367 -79.105 101.121 -76.351 Q103.875 -73.597 103.875 -69.73 V-44.417 Q103.875 -42.48 102.5 -41.105 Q101.125 -39.73 99.188 -39.73 Q97.25 -39.73 95.875 -41.105 Q94.5 -42.48 94.5 -44.417 V-69.73 Q94.5 -69.73 94.5 -69.73 Q94.5 -69.73 94.5 -69.73 H25.5 Q25.5 -69.73 25.5 -69.73 Q25.5 -69.73 25.5 -69.73 V-0.855 Q25.5 -0.855 25.5 -0.855 Q25.5 -0.855 25.5 -0.855 H51.562 Q53.5 -0.855 54.875 0.52 Q56.25 1.895 56.25 3.833 Q56.25 5.77 54.875 7.145 Q53.5 8.52 51.562 8.52 H25.5 Z M35.625 -15.667 Q35.625 -13.73 37 -12.355 Q38.375 -10.98 40.312 -10.98 H51.75 Q53.688 -10.98 55.062 -12.355 Q56.438 -13.73 56.438 -15.667 Q56.438 -17.605 55.062 -18.98 Q53.688 -20.355 51.75 -20.355 H40.312 Q38.375 -20.355 37 -18.98 Q35.625 -17.605 35.625 -15.667 Z M35.625 -35.292 Q35.625 -33.355 37 -31.98 Q38.375 -30.605 40.312 -30.605 H66.5 Q68.438 -30.605 69.812 -31.98 Q71.188 -33.355 71.188 -35.292 Q71.188 -37.23 69.812 -38.605 Q68.438 -39.98 66.5 -39.98 H40.312 Q38.375 -39.98 37 -38.605 Q35.625 -37.23 35.625 -35.292 Z M35.625 -54.917 Q35.625 -52.98 37 -51.605 Q38.375 -50.23 40.312 -50.23 H79.688 Q81.625 -50.23 83 -51.605 Q84.375 -52.98 84.375 -54.917 Q84.375 -56.855 83 -58.23 Q81.625 -59.605 79.688 -59.605 H40.312 Q38.375 -59.605 37 -58.23 Q35.625 -56.855 35.625 -54.917 Z M89.633 17.895 Q79.625 17.895 72.562 10.841 Q65.5 3.787 65.5 -6.222 Q65.5 -16.23 72.554 -23.292 Q79.608 -30.355 89.617 -30.355 Q99.625 -30.355 106.688 -23.301 Q113.75 -16.247 113.75 -6.238 Q113.75 3.77 106.696 10.833 Q99.642 17.895 89.633 17.895 Z"/></g><g id="Light-M" transform="matrix(1 0 0 1 1098.18 1126)"><path d="M95.202 -8.48 V0.837 Q95.202 1.616 95.787 2.2 Q96.372 2.784 97.153 2.784 Q97.933 2.784 98.526 2.2 Q99.12 1.616 99.12 0.837 V-13.058 Q99.12 -13.956 98.512 -14.564 Q97.904 -15.172 97.006 -15.172 H83.111 Q82.332 -15.172 81.748 -14.582 Q81.163 -13.992 81.163 -13.204 Q81.163 -12.417 81.748 -11.836 Q82.332 -11.254 83.111 -11.254 H92.428 L80.255 0.919 Q79.663 1.537 79.639 2.295 Q79.615 3.054 80.255 3.693 Q80.864 4.284 81.638 4.284 Q82.411 4.284 83.029 3.693 L95.202 -8.48 Z M26.942 6.26 Q23.422 6.26 20.916 3.754 Q18.409 1.247 18.409 -2.273 V-68.288 Q18.409 -71.808 20.916 -74.314 Q23.422 -76.821 26.942 -76.821 H93.058 Q96.578 -76.821 99.084 -74.314 Q101.591 -71.808 101.591 -68.288 V-42.759 Q101.591 -41.304 100.561 -40.277 Q99.531 -39.249 98.104 -39.249 Q96.649 -39.249 95.623 -40.277 Q94.596 -41.304 94.596 -42.759 V-68.288 Q94.596 -68.864 94.115 -69.345 Q93.635 -69.826 93.058 -69.826 H26.942 Q26.366 -69.826 25.885 -69.345 Q25.404 -68.864 25.404 -68.288 V-2.273 Q25.404 -1.696 25.885 -1.216 Q26.366 -0.735 26.942 -0.735 H53.101 Q54.528 -0.735 55.557 0.295 Q56.587 1.325 56.587 2.752 Q56.587 4.207 55.557 5.234 Q54.528 6.26 53.101 6.26 H26.942 Z M36.755 -16.171 Q36.755 -14.716 37.782 -13.689 Q38.81 -12.663 40.264 -12.663 H53.697 Q55.151 -12.663 56.179 -13.691 Q57.207 -14.719 57.207 -16.162 Q57.207 -17.605 56.179 -18.631 Q55.151 -19.658 53.697 -19.658 H40.264 Q38.81 -19.658 37.782 -18.628 Q36.755 -17.598 36.755 -16.171 Z M36.755 -35.291 Q36.755 -33.836 37.782 -32.809 Q38.81 -31.783 40.264 -31.783 H69.914 Q71.368 -31.783 72.396 -32.811 Q73.423 -33.839 73.423 -35.282 Q73.423 -36.725 72.396 -37.752 Q71.368 -38.778 69.914 -38.778 H40.264 Q38.81 -38.778 37.782 -37.748 Q36.755 -36.718 36.755 -35.291 Z M36.755 -54.411 Q36.755 -52.956 37.782 -51.929 Q38.81 -50.903 40.264 -50.903 H79.76 Q81.186 -50.903 82.216 -51.931 Q83.245 -52.959 83.245 -54.402 Q83.245 -55.845 82.216 -56.872 Q81.186 -57.898 79.76 -57.898 H40.264 Q38.81 -57.898 37.782 -56.868 Q36.755 -55.838 36.755 -54.411 Z M89.704 16.044 Q80.635 16.044 74.269 9.685 Q67.904 3.327 67.904 -5.742 Q67.904 -14.812 74.263 -21.177 Q80.621 -27.542 89.69 -27.542 Q98.76 -27.542 105.125 -21.184 Q111.49 -14.825 111.49 -5.756 Q111.49 3.313 105.132 9.679 Q98.773 16.044 89.704 16.044 Z"/></g><g id="Thin-M" transform="matrix(1 0 0 1 802.565 1126)"><path d="M95.466 -8.48 V0.405 Q95.466 1.087 95.98 1.599 Q96.495 2.111 97.18 2.111 Q97.865 2.111 98.397 1.599 Q98.928 1.087 98.928 0.405 V-12.504 Q98.928 -13.307 98.368 -13.867 Q97.808 -14.427 97.005 -14.427 H84.096 Q83.413 -14.427 82.901 -13.903 Q82.389 -13.378 82.389 -12.679 Q82.389 -11.98 82.901 -11.473 Q83.413 -10.966 84.096 -10.966 H92.981 L81.385 0.631 Q80.889 1.178 80.841 1.852 Q80.793 2.525 81.385 3.116 Q81.915 3.611 82.619 3.611 Q83.323 3.611 83.87 3.116 L95.466 -8.48 Z M28.385 4.001 Q25.212 4.001 22.952 1.741 Q20.692 -0.518 20.692 -3.691 V-66.845 Q20.692 -70.018 22.952 -72.278 Q25.212 -74.538 28.385 -74.538 H91.615 Q94.788 -74.538 97.048 -72.278 Q99.308 -70.018 99.308 -66.845 V-41.1 Q99.308 -40.129 98.623 -39.449 Q97.938 -38.768 97.021 -38.768 Q96.048 -38.768 95.37 -39.449 Q94.692 -40.129 94.692 -41.1 V-66.845 Q94.692 -67.999 93.731 -68.961 Q92.769 -69.922 91.615 -69.922 H28.385 Q27.231 -69.922 26.269 -68.961 Q25.308 -67.999 25.308 -66.845 V-3.691 Q25.308 -2.538 26.269 -1.576 Q27.231 -0.615 28.385 -0.615 H54.639 Q55.555 -0.615 56.239 0.07 Q56.923 0.755 56.923 1.672 Q56.923 2.645 56.239 3.323 Q55.555 4.001 54.639 4.001 H28.385 Z M37.885 -16.674 Q37.885 -15.701 38.565 -15.023 Q39.245 -14.345 40.216 -14.345 H55.644 Q56.615 -14.345 57.296 -15.027 Q57.976 -15.708 57.976 -16.656 Q57.976 -17.605 57.296 -18.283 Q56.615 -18.961 55.644 -18.961 H40.216 Q39.245 -18.961 38.565 -18.276 Q37.885 -17.591 37.885 -16.674 Z M37.885 -35.289 Q37.885 -34.316 38.565 -33.639 Q39.245 -32.961 40.216 -32.961 H73.327 Q74.298 -32.961 74.978 -33.642 Q75.659 -34.323 75.659 -35.272 Q75.659 -36.22 74.978 -36.898 Q74.298 -37.576 73.327 -37.576 H40.216 Q39.245 -37.576 38.565 -36.891 Q37.885 -36.206 37.885 -35.289 Z M37.885 -53.904 Q37.885 -52.932 38.565 -52.254 Q39.245 -51.576 40.216 -51.576 H79.832 Q80.748 -51.576 81.431 -52.257 Q82.115 -52.939 82.115 -53.887 Q82.115 -54.836 81.431 -55.514 Q80.748 -56.192 79.832 -56.192 H40.216 Q39.245 -56.192 38.565 -55.507 Q37.885 -54.822 37.885 -53.904 Z M89.774 14.193 Q81.644 14.193 75.976 8.53 Q70.308 2.867 70.308 -5.263 Q70.308 -13.393 75.971 -19.062 Q81.634 -24.73 89.764 -24.73 Q97.894 -24.73 103.562 -19.067 Q109.231 -13.404 109.231 -5.274 Q109.231 2.857 103.568 8.525 Q97.905 14.193 89.774 14.193 Z"/></g><g id="Ultralight-M" transform="matrix(1 0 0 1 506.415 1126)"><path d="M95.625 -8.48 V0.145 Q95.625 0.77 96.096 1.239 Q96.568 1.708 97.196 1.708 Q97.825 1.708 98.319 1.239 Q98.812 0.77 98.812 0.145 V-12.171 Q98.812 -12.917 98.281 -13.449 Q97.75 -13.98 97.004 -13.98 H84.688 Q84.062 -13.98 83.594 -13.495 Q83.125 -13.01 83.125 -12.364 Q83.125 -11.717 83.594 -11.255 Q84.062 -10.792 84.688 -10.792 H93.312 L82.062 0.458 Q81.625 0.963 81.562 1.585 Q81.5 2.208 82.062 2.77 Q82.546 3.208 83.207 3.208 Q83.869 3.208 84.375 2.77 L95.625 -8.48 Z M29.25 2.645 Q26.285 2.645 24.174 0.534 Q22.062 -1.578 22.062 -4.542 V-65.98 Q22.062 -68.945 24.174 -71.056 Q26.285 -73.167 29.25 -73.167 H90.75 Q93.715 -73.167 95.826 -71.056 Q97.938 -68.945 97.938 -65.98 V-40.105 Q97.938 -39.424 97.46 -38.952 Q96.982 -38.48 96.371 -38.48 Q95.688 -38.48 95.219 -38.952 Q94.75 -39.424 94.75 -40.105 V-65.98 Q94.75 -67.48 93.5 -68.73 Q92.25 -69.98 90.75 -69.98 H29.25 Q27.75 -69.98 26.5 -68.73 Q25.25 -67.48 25.25 -65.98 V-4.542 Q25.25 -3.042 26.5 -1.792 Q27.75 -0.542 29.25 -0.542 H55.562 Q56.172 -0.542 56.648 -0.065 Q57.125 0.413 57.125 1.024 Q57.125 1.708 56.648 2.176 Q56.172 2.645 55.562 2.645 H29.25 Z M38.562 -16.976 Q38.562 -16.292 39.034 -15.824 Q39.506 -15.355 40.188 -15.355 H56.812 Q57.494 -15.355 57.966 -15.828 Q58.438 -16.301 58.438 -16.953 Q58.438 -17.605 57.966 -18.074 Q57.494 -18.542 56.812 -18.542 H40.188 Q39.506 -18.542 39.034 -18.065 Q38.562 -17.587 38.562 -16.976 Z M38.562 -35.288 Q38.562 -34.605 39.034 -34.136 Q39.506 -33.667 40.188 -33.667 H75.375 Q76.056 -33.667 76.528 -34.141 Q77 -34.614 77 -35.266 Q77 -35.917 76.528 -36.386 Q76.056 -36.855 75.375 -36.855 H40.188 Q39.506 -36.855 39.034 -36.377 Q38.562 -35.899 38.562 -35.288 Z M38.562 -53.601 Q38.562 -52.917 39.034 -52.449 Q39.506 -51.98 40.188 -51.98 H79.875 Q80.484 -51.98 80.961 -52.453 Q81.438 -52.926 81.438 -53.578 Q81.438 -54.23 80.961 -54.699 Q80.484 -55.167 79.875 -55.167 H40.188 Q39.506 -55.167 39.034 -54.69 Q38.562 -54.212 38.562 -53.601 Z M89.817 13.083 Q82.25 13.083 77 7.837 Q71.75 2.591 71.75 -4.976 Q71.75 -12.542 76.996 -17.792 Q82.242 -23.042 89.808 -23.042 Q97.375 -23.042 102.625 -17.797 Q107.875 -12.551 107.875 -4.984 Q107.875 2.583 102.629 7.833 Q97.383 13.083 89.817 13.083 Z"/></g><g id="Bold-S" transform="matrix(1 0 0 1 2294.23 696)"><path d="M71.158 -7.319 V-5.445 Q71.158 -4.104 72.041 -3.221 Q72.923 -2.339 74.265 -2.339 Q75.606 -2.339 76.489 -3.221 Q77.371 -4.104 77.371 -5.445 V-15.314 Q77.371 -16.59 76.656 -17.305 Q75.941 -18.02 74.665 -18.02 H64.797 Q63.455 -18.02 62.573 -17.137 Q61.69 -16.255 61.69 -14.963 Q61.69 -13.671 62.622 -12.739 Q63.554 -11.807 64.797 -11.807 H66.769 L61.246 -6.284 Q60.309 -5.311 60.309 -4.071 Q60.309 -2.832 61.267 -1.895 Q62.225 -0.958 63.493 -0.958 Q64.761 -0.958 65.734 -1.895 L71.158 -7.319 Z M22.881 0.571 Q18.284 0.571 15.01 -2.703 Q11.736 -5.977 11.736 -10.574 V-59.393 Q11.736 -63.99 15.01 -67.264 Q18.284 -70.538 22.881 -70.538 H71.799 Q76.396 -70.538 79.67 -67.264 Q82.944 -63.99 82.944 -59.393 V-40.605 Q82.944 -38.356 81.288 -36.695 Q79.632 -35.033 77.392 -35.033 Q75.152 -35.033 73.476 -36.695 Q71.799 -38.356 71.799 -40.605 V-59.393 Q71.799 -59.393 71.799 -59.393 Q71.799 -59.393 71.799 -59.393 H22.881 Q22.881 -59.393 22.881 -59.393 Q22.881 -59.393 22.881 -59.393 V-10.574 Q22.881 -10.574 22.881 -10.574 Q22.881 -10.574 22.881 -10.574 H39.006 Q41.255 -10.574 42.917 -8.918 Q44.579 -7.262 44.579 -5.022 Q44.579 -2.782 42.917 -1.106 Q41.255 0.571 39.006 0.571 H22.881 Z M30.081 -21.098 Q30.081 -19.746 31.052 -18.76 Q32.024 -17.773 33.385 -17.773 H42.31 Q43.671 -17.773 44.643 -18.739 Q45.614 -19.704 45.614 -21.057 Q45.614 -22.409 44.643 -23.395 Q43.671 -24.381 42.31 -24.381 H33.385 Q32.024 -24.381 31.052 -23.416 Q30.081 -22.45 30.081 -21.098 Z M30.081 -35.004 Q30.081 -33.652 31.052 -32.666 Q32.024 -31.679 33.37 -31.679 H55.442 Q56.788 -31.679 57.76 -32.645 Q58.731 -33.61 58.731 -34.963 Q58.731 -36.315 57.76 -37.301 Q56.788 -38.287 55.443 -38.287 H33.385 Q32.024 -38.287 31.052 -37.322 Q30.081 -36.356 30.081 -35.004 Z M30.081 -48.91 Q30.081 -47.558 31.052 -46.572 Q32.024 -45.586 33.385 -45.586 H61.295 Q62.656 -45.586 63.628 -46.551 Q64.599 -47.517 64.599 -48.869 Q64.599 -50.221 63.628 -51.207 Q62.656 -52.193 61.295 -52.193 H33.385 Q32.024 -52.193 31.052 -51.228 Q30.081 -50.263 30.081 -48.91 Z M69.515 8.066 Q61.937 8.066 56.611 2.725 Q51.285 -2.616 51.285 -10.195 Q51.285 -17.773 56.626 -23.099 Q61.968 -28.425 69.546 -28.425 Q77.125 -28.425 82.451 -23.083 Q87.776 -17.742 87.776 -10.164 Q87.776 -2.585 82.435 2.741 Q77.093 8.066 69.515 8.066 Z"/></g><g id="Semibold-S" transform="matrix(1 0 0 1 1998.1 696)"><path d="M72.101 -9.334 V-6.389 Q72.101 -5.262 72.877 -4.486 Q73.652 -3.711 74.779 -3.711 Q75.906 -3.711 76.682 -4.486 Q77.457 -5.262 77.457 -6.389 V-16.3 Q77.457 -17.362 76.871 -17.948 Q76.284 -18.534 75.223 -18.534 H65.311 Q64.184 -18.534 63.409 -17.759 Q62.633 -16.983 62.633 -15.884 Q62.633 -14.785 63.437 -13.982 Q64.24 -13.179 65.311 -13.179 H68.313 L62.061 -6.927 Q61.253 -6.083 61.253 -5.015 Q61.253 -3.947 62.073 -3.138 Q62.893 -2.33 63.977 -2.33 Q65.061 -2.33 65.905 -3.138 L72.101 -9.334 Z M22.366 -1.016 Q18.583 -1.016 15.889 -3.71 Q13.194 -6.404 13.194 -10.188 V-60.036 Q13.194 -63.82 15.889 -66.514 Q18.583 -69.209 22.366 -69.209 H72.314 Q76.097 -69.209 78.791 -66.514 Q81.486 -63.82 81.486 -60.036 V-40.562 Q81.486 -38.699 80.13 -37.338 Q78.774 -35.976 76.92 -35.976 Q75.066 -35.976 73.69 -37.338 Q72.314 -38.699 72.314 -40.562 V-60.036 Q72.314 -60.036 72.314 -60.036 Q72.314 -60.036 72.314 -60.036 H22.366 Q22.366 -60.036 22.366 -60.036 Q22.366 -60.036 22.366 -60.036 V-10.188 Q22.366 -10.188 22.366 -10.188 Q22.366 -10.188 22.366 -10.188 H40.593 Q42.455 -10.188 43.817 -8.832 Q45.179 -7.476 45.179 -5.622 Q45.179 -3.769 43.817 -2.392 Q42.455 -1.016 40.593 -1.016 H22.366 Z M29.566 -20.712 Q29.566 -19.36 30.538 -18.374 Q31.509 -17.387 32.87 -17.387 H42.567 Q43.928 -17.387 44.9 -18.353 Q45.871 -19.318 45.871 -20.671 Q45.871 -22.023 44.9 -23.009 Q43.928 -23.995 42.567 -23.995 H32.87 Q31.509 -23.995 30.538 -23.03 Q29.566 -22.064 29.566 -20.712 Z M29.566 -35.133 Q29.566 -33.781 30.538 -32.794 Q31.509 -31.808 32.862 -31.808 H55.007 Q56.359 -31.808 57.331 -32.774 Q58.302 -33.739 58.302 -35.091 Q58.302 -36.443 57.331 -37.43 Q56.359 -38.416 55.007 -38.416 H32.87 Q31.509 -38.416 30.538 -37.451 Q29.566 -36.485 29.566 -35.133 Z M29.566 -49.554 Q29.566 -48.201 30.538 -47.215 Q31.509 -46.229 32.87 -46.229 H61.81 Q63.171 -46.229 64.142 -47.194 Q65.114 -48.16 65.114 -49.512 Q65.114 -50.864 64.142 -51.85 Q63.171 -52.837 61.81 -52.837 H32.87 Q31.509 -52.837 30.538 -51.871 Q29.566 -50.906 29.566 -49.554 Z M70.029 7.123 Q62.451 7.123 57.125 1.782 Q51.8 -3.56 51.8 -11.138 Q51.8 -18.717 57.141 -24.042 Q62.482 -29.368 70.061 -29.368 Q77.639 -29.368 82.965 -24.027 Q88.291 -18.685 88.291 -11.107 Q88.291 -3.528 82.949 1.797 Q77.608 7.123 70.029 7.123 Z"/></g><g id="Medium-S" transform="matrix(1 0 0 1 1701.85 696)"><path d="M72.809 -10.846 V-7.096 Q72.809 -6.13 73.504 -5.435 Q74.199 -4.74 75.165 -4.74 Q76.131 -4.74 76.826 -5.435 Q77.521 -6.13 77.521 -7.096 V-17.04 Q77.521 -17.941 77.031 -18.431 Q76.542 -18.92 75.641 -18.92 H65.697 Q64.731 -18.92 64.036 -18.225 Q63.341 -17.53 63.341 -16.576 Q63.341 -15.622 64.048 -14.915 Q64.755 -14.208 65.697 -14.208 H69.471 L62.672 -7.409 Q61.96 -6.661 61.96 -5.722 Q61.96 -4.783 62.677 -4.071 Q63.394 -3.359 64.34 -3.359 Q65.286 -3.359 66.034 -4.071 L72.809 -10.846 Z M21.981 -2.206 Q18.807 -2.206 16.547 -4.465 Q14.288 -6.725 14.288 -9.898 V-60.519 Q14.288 -63.692 16.547 -65.952 Q18.807 -68.211 21.981 -68.211 H72.699 Q75.873 -68.211 78.133 -65.952 Q80.392 -63.692 80.392 -60.519 V-40.53 Q80.392 -38.957 79.262 -37.82 Q78.131 -36.684 76.567 -36.684 Q75.002 -36.684 73.851 -37.82 Q72.699 -38.957 72.699 -40.53 V-60.519 Q72.699 -60.519 72.699 -60.519 Q72.699 -60.519 72.699 -60.519 H21.981 Q21.981 -60.519 21.981 -60.519 Q21.981 -60.519 21.981 -60.519 V-9.898 Q21.981 -9.898 21.981 -9.898 Q21.981 -9.898 21.981 -9.898 H41.783 Q43.356 -9.898 44.492 -8.768 Q45.629 -7.637 45.629 -6.073 Q45.629 -4.508 44.492 -3.357 Q43.356 -2.206 41.783 -2.206 H21.981 Z M29.18 -20.423 Q29.18 -19.07 30.152 -18.084 Q31.123 -17.098 32.484 -17.098 H42.76 Q44.121 -17.098 45.093 -18.064 Q46.064 -19.029 46.064 -20.381 Q46.064 -21.733 45.093 -22.72 Q44.121 -23.706 42.76 -23.706 H32.484 Q31.123 -23.706 30.152 -22.74 Q29.18 -21.775 29.18 -20.423 Z M29.18 -35.229 Q29.18 -33.877 30.152 -32.891 Q31.123 -31.905 32.481 -31.905 H54.68 Q56.038 -31.905 57.009 -32.87 Q57.981 -33.836 57.981 -35.188 Q57.981 -36.54 57.009 -37.526 Q56.038 -38.513 54.681 -38.513 H32.484 Q31.123 -38.513 30.152 -37.547 Q29.18 -36.582 29.18 -35.229 Z M29.18 -50.036 Q29.18 -48.684 30.152 -47.697 Q31.123 -46.711 32.484 -46.711 H62.196 Q63.557 -46.711 64.528 -47.677 Q65.5 -48.642 65.5 -49.994 Q65.5 -51.347 64.528 -52.333 Q63.557 -53.319 62.196 -53.319 H32.484 Q31.123 -53.319 30.152 -52.354 Q29.18 -51.388 29.18 -50.036 Z M70.415 6.415 Q62.837 6.415 57.511 1.074 Q52.185 -4.267 52.185 -11.846 Q52.185 -19.424 57.527 -24.75 Q62.868 -30.076 70.447 -30.076 Q78.025 -30.076 83.351 -24.734 Q88.677 -19.393 88.677 -11.814 Q88.677 -4.236 83.335 1.09 Q77.994 6.415 70.415 6.415 Z"/></g><g id="Regular-S" transform="matrix(1 0 0 1 1405.73 696)"><path d="M73.328 -11.954 V-7.615 Q73.328 -6.767 73.964 -6.131 Q74.6 -5.495 75.448 -5.495 Q76.296 -5.495 76.932 -6.131 Q77.569 -6.767 77.569 -7.615 V-17.582 Q77.569 -18.365 77.149 -18.784 Q76.73 -19.203 75.947 -19.203 H65.98 Q65.132 -19.203 64.496 -18.567 Q63.86 -17.931 63.86 -17.083 Q63.86 -16.235 64.496 -15.599 Q65.132 -14.963 65.98 -14.963 H70.32 L63.12 -7.763 Q62.479 -7.086 62.479 -6.241 Q62.479 -5.396 63.12 -4.755 Q63.761 -4.114 64.606 -4.114 Q65.451 -4.114 66.128 -4.755 L73.328 -11.954 Z M21.698 -3.078 Q18.972 -3.078 17.031 -5.019 Q15.09 -6.96 15.09 -9.686 V-60.872 Q15.09 -63.598 17.031 -65.539 Q18.972 -67.48 21.698 -67.48 H72.983 Q75.708 -67.48 77.649 -65.539 Q79.59 -63.598 79.59 -60.872 V-40.506 Q79.59 -39.145 78.625 -38.174 Q77.659 -37.202 76.307 -37.202 Q74.955 -37.202 73.969 -38.174 Q72.983 -39.145 72.983 -40.506 V-60.872 Q72.983 -60.872 72.983 -60.872 Q72.983 -60.872 72.983 -60.872 H21.698 Q21.698 -60.872 21.698 -60.872 Q21.698 -60.872 21.698 -60.872 V-9.686 Q21.698 -9.686 21.698 -9.686 Q21.698 -9.686 21.698 -9.686 H42.655 Q44.016 -9.686 44.988 -8.721 Q45.959 -7.755 45.959 -6.403 Q45.959 -5.051 44.988 -4.064 Q44.016 -3.078 42.655 -3.078 H21.698 Z M28.897 -20.21 Q28.897 -18.858 29.869 -17.872 Q30.84 -16.886 32.201 -16.886 H42.902 Q44.263 -16.886 45.234 -17.851 Q46.206 -18.817 46.206 -20.169 Q46.206 -21.521 45.234 -22.507 Q44.263 -23.494 42.902 -23.494 H32.201 Q30.84 -23.494 29.869 -22.528 Q28.897 -21.563 28.897 -20.21 Z M28.897 -35.3 Q28.897 -33.948 29.869 -32.962 Q30.84 -31.975 32.201 -31.975 H54.441 Q55.802 -31.975 56.773 -32.941 Q57.745 -33.906 57.745 -35.259 Q57.745 -36.611 56.773 -37.597 Q55.802 -38.583 54.441 -38.583 H32.201 Q30.84 -38.583 29.869 -37.618 Q28.897 -36.652 28.897 -35.3 Z M28.897 -50.39 Q28.897 -49.037 29.869 -48.051 Q30.84 -47.065 32.201 -47.065 H62.479 Q63.84 -47.065 64.811 -48.03 Q65.783 -48.996 65.783 -50.348 Q65.783 -51.7 64.811 -52.687 Q63.84 -53.673 62.479 -53.673 H32.201 Q30.84 -53.673 29.869 -52.707 Q28.897 -51.742 28.897 -50.39 Z M70.698 5.897 Q63.12 5.897 57.794 0.555 Q52.468 -4.786 52.468 -12.365 Q52.468 -19.943 57.81 -25.269 Q63.151 -30.595 70.73 -30.595 Q78.308 -30.595 83.634 -25.253 Q88.96 -19.912 88.96 -12.333 Q88.96 -4.755 83.618 0.571 Q78.277 5.897 70.698 5.897 Z"/></g><g id="Light-S" transform="matrix(1 0 0 1 1109.75 696)"><path d="M73.536 -11.954 V-7.956 Q73.536 -7.184 74.116 -6.605 Q74.696 -6.026 75.47 -6.026 Q76.243 -6.026 76.83 -6.605 Q77.417 -7.184 77.417 -7.956 V-17.145 Q77.417 -17.853 77.036 -18.234 Q76.654 -18.615 75.946 -18.615 H66.758 Q65.986 -18.615 65.406 -18.031 Q64.827 -17.447 64.827 -16.668 Q64.827 -15.89 65.406 -15.312 Q65.986 -14.735 66.758 -14.735 H70.756 L64.011 -7.991 Q63.446 -7.369 63.427 -6.591 Q63.408 -5.813 64.011 -5.21 Q64.59 -4.645 65.38 -4.645 Q66.17 -4.645 66.792 -5.21 L73.536 -11.954 Z M22.836 -4.861 Q20.384 -4.861 18.638 -6.607 Q16.892 -8.353 16.892 -10.805 V-59.734 Q16.892 -62.186 18.638 -63.932 Q20.384 -65.678 22.836 -65.678 H71.844 Q74.296 -65.678 76.042 -63.932 Q77.788 -62.186 77.788 -59.734 V-39.198 Q77.788 -38.218 77.095 -37.521 Q76.402 -36.823 75.452 -36.823 Q74.481 -36.823 73.77 -37.521 Q73.058 -38.218 73.058 -39.198 V-59.734 Q73.058 -60.19 72.679 -60.569 Q72.3 -60.948 71.844 -60.948 H22.836 Q22.38 -60.948 22.001 -60.569 Q21.622 -60.19 21.622 -59.734 V-10.805 Q21.622 -10.35 22.001 -9.971 Q22.38 -9.591 22.836 -9.591 H43.869 Q44.827 -9.591 45.526 -8.898 Q46.225 -8.205 46.225 -7.255 Q46.225 -6.284 45.526 -5.572 Q44.827 -4.861 43.869 -4.861 H22.836 Z M29.789 -20.607 Q29.789 -19.636 30.486 -18.925 Q31.183 -18.214 32.163 -18.214 H44.438 Q45.418 -18.214 46.115 -18.905 Q46.813 -19.597 46.813 -20.559 Q46.813 -21.521 46.115 -22.232 Q45.418 -22.944 44.438 -22.944 H32.163 Q31.183 -22.944 30.486 -22.25 Q29.789 -21.557 29.789 -20.607 Z M29.789 -35.299 Q29.789 -34.327 30.486 -33.616 Q31.183 -32.905 32.163 -32.905 H57.134 Q58.114 -32.905 58.812 -33.597 Q59.509 -34.288 59.509 -35.25 Q59.509 -36.212 58.812 -36.924 Q58.114 -37.635 57.134 -37.635 H32.163 Q31.183 -37.635 30.486 -36.942 Q29.789 -36.248 29.789 -35.299 Z M29.789 -49.99 Q29.789 -49.019 30.486 -48.307 Q31.183 -47.596 32.163 -47.596 H62.536 Q63.494 -47.596 64.193 -48.288 Q64.891 -48.98 64.891 -49.942 Q64.891 -50.904 64.193 -51.615 Q63.494 -52.326 62.536 -52.326 H32.163 Q31.183 -52.326 30.486 -51.633 Q29.789 -50.94 29.789 -49.99 Z M70.754 4.436 Q63.917 4.436 59.141 -0.356 Q54.365 -5.149 54.365 -11.987 Q54.365 -18.824 59.158 -23.6 Q63.951 -28.375 70.788 -28.375 Q77.625 -28.375 82.401 -23.583 Q87.177 -18.79 87.177 -11.953 Q87.177 -5.115 82.384 -0.34 Q77.592 4.436 70.754 4.436 Z"/></g><g id="Thin-S" transform="matrix(1 0 0 1 814.015 696)"><path d="M73.745 -11.954 V-8.298 Q73.745 -7.601 74.269 -7.079 Q74.793 -6.557 75.492 -6.557 Q76.19 -6.557 76.728 -7.079 Q77.265 -7.601 77.265 -8.298 V-16.707 Q77.265 -17.341 76.922 -17.684 Q76.579 -18.028 75.945 -18.028 H67.535 Q66.839 -18.028 66.317 -17.495 Q65.794 -16.963 65.794 -16.254 Q65.794 -15.544 66.317 -15.026 Q66.839 -14.507 67.535 -14.507 H71.192 L64.903 -8.218 Q64.413 -7.652 64.376 -6.941 Q64.338 -6.23 64.903 -5.665 Q65.42 -5.176 66.154 -5.176 Q66.889 -5.176 67.456 -5.665 L73.745 -11.954 Z M23.973 -6.644 Q21.795 -6.644 20.244 -8.195 Q18.693 -9.746 18.693 -11.924 V-58.597 Q18.693 -60.775 20.244 -62.326 Q21.795 -63.877 23.973 -63.877 H70.707 Q72.885 -63.877 74.436 -62.326 Q75.987 -60.775 75.987 -58.597 V-37.889 Q75.987 -37.29 75.566 -36.867 Q75.145 -36.444 74.598 -36.444 Q74.007 -36.444 73.571 -36.867 Q73.134 -37.29 73.134 -37.889 V-58.597 Q73.134 -59.507 72.376 -60.266 Q71.617 -61.024 70.707 -61.024 H23.973 Q23.063 -61.024 22.304 -60.266 Q21.546 -59.507 21.546 -58.597 V-11.924 Q21.546 -11.014 22.304 -10.255 Q23.063 -9.496 23.973 -9.496 H45.083 Q45.638 -9.496 46.064 -9.076 Q46.49 -8.655 46.49 -8.107 Q46.49 -7.516 46.064 -7.08 Q45.638 -6.644 45.083 -6.644 H23.973 Z M30.68 -21.004 Q30.68 -20.413 31.103 -19.977 Q31.527 -19.541 32.125 -19.541 H45.974 Q46.573 -19.541 46.996 -19.959 Q47.42 -20.377 47.42 -20.949 Q47.42 -21.521 46.996 -21.957 Q46.573 -22.394 45.974 -22.394 H32.125 Q31.527 -22.394 31.103 -21.973 Q30.68 -21.552 30.68 -21.004 Z M30.68 -35.297 Q30.68 -34.706 31.103 -34.27 Q31.527 -33.834 32.125 -33.834 H59.827 Q60.426 -33.834 60.849 -34.252 Q61.273 -34.67 61.273 -35.242 Q61.273 -35.814 60.849 -36.25 Q60.426 -36.687 59.827 -36.687 H32.125 Q31.527 -36.687 31.103 -36.266 Q30.68 -35.845 30.68 -35.297 Z M30.68 -49.59 Q30.68 -49 31.103 -48.563 Q31.527 -48.127 32.125 -48.127 H62.593 Q63.148 -48.127 63.574 -48.545 Q64 -48.963 64 -49.535 Q64 -50.107 63.574 -50.543 Q63.148 -50.98 62.593 -50.98 H32.125 Q31.527 -50.98 31.103 -50.559 Q30.68 -50.138 30.68 -49.59 Z M70.81 2.976 Q64.713 2.976 60.487 -1.268 Q56.262 -5.512 56.262 -11.609 Q56.262 -17.705 60.506 -21.931 Q64.75 -26.156 70.846 -26.156 Q76.943 -26.156 81.168 -21.913 Q85.394 -17.669 85.394 -11.572 Q85.394 -5.476 81.15 -1.25 Q76.906 2.976 70.81 2.976 Z"/></g><g id="Ultralight-S" transform="matrix(1 0 0 1 517.792 696)"><path d="M73.87 -11.954 V-8.503 Q73.87 -7.852 74.36 -7.364 Q74.851 -6.875 75.504 -6.875 Q76.158 -6.875 76.666 -7.364 Q77.174 -7.852 77.174 -8.503 V-16.445 Q77.174 -17.034 76.854 -17.354 Q76.533 -17.675 75.944 -17.675 H68.002 Q67.351 -17.675 66.863 -17.174 Q66.375 -16.673 66.375 -16.005 Q66.375 -15.337 66.863 -14.854 Q67.351 -14.371 68.002 -14.371 H71.454 L65.438 -8.355 Q64.994 -7.821 64.945 -7.151 Q64.895 -6.481 65.438 -5.938 Q65.917 -5.495 66.619 -5.495 Q67.321 -5.495 67.854 -5.938 L73.87 -11.954 Z M24.656 -7.714 Q22.642 -7.714 21.208 -9.148 Q19.774 -10.582 19.774 -12.596 V-57.914 Q19.774 -59.928 21.208 -61.362 Q22.642 -62.796 24.656 -62.796 H70.024 Q72.038 -62.796 73.472 -61.362 Q74.906 -59.928 74.906 -57.914 V-37.104 Q74.906 -36.734 74.648 -36.475 Q74.39 -36.216 74.085 -36.216 Q73.722 -36.216 73.451 -36.475 Q73.18 -36.734 73.18 -37.104 V-57.914 Q73.18 -59.097 72.194 -60.083 Q71.207 -61.07 70.024 -61.07 H24.656 Q23.473 -61.07 22.486 -60.083 Q21.5 -59.097 21.5 -57.914 V-12.596 Q21.5 -11.412 22.486 -10.426 Q23.473 -9.44 24.656 -9.44 H45.811 Q46.124 -9.44 46.387 -9.182 Q46.65 -8.924 46.65 -8.619 Q46.65 -8.256 46.387 -7.985 Q46.124 -7.714 45.811 -7.714 H24.656 Z M31.215 -21.243 Q31.215 -20.88 31.474 -20.609 Q31.733 -20.338 32.102 -20.338 H46.896 Q47.266 -20.338 47.525 -20.592 Q47.784 -20.845 47.784 -21.183 Q47.784 -21.521 47.525 -21.792 Q47.266 -22.064 46.896 -22.064 H32.102 Q31.733 -22.064 31.474 -21.806 Q31.215 -21.548 31.215 -21.243 Z M31.215 -35.297 Q31.215 -34.934 31.474 -34.663 Q31.733 -34.392 32.102 -34.392 H61.443 Q61.813 -34.392 62.072 -34.646 Q62.331 -34.9 62.331 -35.237 Q62.331 -35.575 62.072 -35.846 Q61.813 -36.118 61.443 -36.118 H32.102 Q31.733 -36.118 31.474 -35.86 Q31.215 -35.602 31.215 -35.297 Z M31.215 -49.351 Q31.215 -48.988 31.474 -48.717 Q31.733 -48.446 32.102 -48.446 H62.627 Q62.94 -48.446 63.203 -48.7 Q63.465 -48.954 63.465 -49.291 Q63.465 -49.629 63.203 -49.9 Q62.94 -50.172 62.627 -50.172 H32.102 Q31.733 -50.172 31.474 -49.914 Q31.215 -49.656 31.215 -49.351 Z M70.843 2.1 Q65.191 2.1 61.295 -1.815 Q57.4 -5.73 57.4 -11.382 Q57.4 -17.034 61.314 -20.929 Q65.229 -24.825 70.881 -24.825 Q76.533 -24.825 80.429 -20.91 Q84.324 -16.996 84.324 -11.344 Q84.324 -5.692 80.41 -1.796 Q76.495 2.1 70.843 2.1 Z"/></g></g></svg>