<svg xmlns="http://www.w3.org/2000/svg" height="48" viewBox="0 -960 960 960" width="48"><path d="M566.192-768.885H390.885v112.116L281.138-766.515q-2.6-2.601-3.408-5.488-.807-2.887-.807-7.005 0-8.019 4.66-14.044 4.661-6.025 14.301-6.025h321.231q5.849 0 10.252 4.498 4.402 4.497 4.402 10.485 0 7.055-3.855 10.565-3.856 3.51-10.799 4.644h-20.73v280.424q0 6.807-4.537 10.731-4.537 3.923-10.583 3.923-6.431 0-10.752-3.923-4.321-3.924-4.321-10.731v-280.424ZM465.346-157.384v-199.039H346.923q-16.868 0-24.972-10.645-8.105-10.644-8.105-22.623 0-5.547 1.846-11.029t7.5-11.241l37.5-36.159v-97.957L126.769-780.769q-4.769-3.885-4.962-10.193-.192-6.307 5.129-10.359 3.333-4.602 9.775-4.602 6.443 0 10.57 4.889l627.065 625.65q3.385 4.269 3.827 10.769.443 6.5-4.211 11.378-4.654 4.545-10.7 4.103-6.045-.442-10.624-4.496L549.346-356.423h-53.807v199.039q0 6.808-4.428 11.173-4.427 4.365-11.327 4.365-6.899 0-10.669-4.365-3.769-4.365-3.769-11.173ZM338.808-386.615h182.269L390-516.154l.885 79.269-52.077 50.27Zm139.73-182.5ZM390-516.154Z"/></svg>