<svg xmlns="http://www.w3.org/2000/svg" version="1.1" width="3300" height="2000"><g id="Notes"><style>
    text {
      font-family: monospace;
      text-anchor: middle;
    }
    text.emphasis {
      font-weight:bold;
    }
    text.lanchor {
      text-anchor: start;
    }
  </style><rect height="2200" id="artboard" fill="white" width="3300" x="0" y="0"/><line id="" style="fill:none;stroke:black;stroke-width:0.5;" x1="263" x2="3036" y1="292" y2="292"/><text class="lanchor emphasis" transform="matrix(1 0 0 1 263 322)">Weight/Scale Variations</text><text transform="matrix(1 0 0 1 559.711 322)">Ultralight</text><text transform="matrix(1 0 0 1 856.422 322)">Thin</text><text transform="matrix(1 0 0 1 1153.13 322)">Light</text><text transform="matrix(1 0 0 1 1449.84 322)">Regular</text><text transform="matrix(1 0 0 1 1746.56 322)">Medium</text><text transform="matrix(1 0 0 1 2043.27 322)">Semibold</text><text transform="matrix(1 0 0 1 2339.98 322)">Bold</text><text transform="matrix(1 0 0 1 2636.69 322)">Heavy</text><text transform="matrix(1 0 0 1 2933.4 322)">Black</text><text id="template-version" style="text-anchor: end;" transform="matrix(1 0 0 1 3036 1933)">Template v.1.0</text><text class="lanchor" transform="matrix(1 0 0 1 263 726)">Small</text><text class="lanchor" transform="matrix(1 0 0 1 263 1156)">Medium</text><text class="lanchor" transform="matrix(1 0 0 1 263 1586)">Large</text></g><g id="Guides"><g id="H-reference" style="fill:#27AAE1;stroke:none;" transform="matrix(1 0 0 1 339 696)"><path d="M 54.9316 0 L 57.666 0 L 30.5664 -70.459 L 28.0762 -70.459 L 0.976562 0 L 3.66211 0 L 12.9395 -24.4629 L 45.7031 -24.4629 Z M 29.1992 -67.0898 L 29.4434 -67.0898 L 44.8242 -26.709 L 13.8184 -26.709 Z"/></g><line id="Baseline-S" style="fill:none;stroke:#27AAE1;opacity:1;stroke-width:0.577;" x1="263" x2="3036" y1="696" y2="696"/><line id="Capline-S" style="fill:none;stroke:#27AAE1;opacity:1;stroke-width:0.577;" x1="263" x2="3036" y1="625.541" y2="625.541"/><g id="H-reference" style="fill:#27AAE1;stroke:none;" transform="matrix(1 0 0 1 339 1126)"><path d="M 54.9316 0 L 57.666 0 L 30.5664 -70.459 L 28.0762 -70.459 L 0.976562 0 L 3.66211 0 L 12.9395 -24.4629 L 45.7031 -24.4629 Z M 29.1992 -67.0898 L 29.4434 -67.0898 L 44.8242 -26.709 L 13.8184 -26.709 Z"/></g><line id="Baseline-M" style="fill:none;stroke:#27AAE1;opacity:1;stroke-width:0.577;" x1="263" x2="3036" y1="1126" y2="1126"/><line id="Capline-M" style="fill:none;stroke:#27AAE1;opacity:1;stroke-width:0.577;" x1="263" x2="3036" y1="1055.54" y2="1055.54"/><g id="H-reference" style="fill:#27AAE1;stroke:none;" transform="matrix(1 0 0 1 339 1556)"><path d="M 54.9316 0 L 57.666 0 L 30.5664 -70.459 L 28.0762 -70.459 L 0.976562 0 L 3.66211 0 L 12.9395 -24.4629 L 45.7031 -24.4629 Z M 29.1992 -67.0898 L 29.4434 -67.0898 L 44.8242 -26.709 L 13.8184 -26.709 Z"/></g><line id="Baseline-L" style="fill:none;stroke:#27AAE1;opacity:1;stroke-width:0.577;" x1="263" x2="3036" y1="1556" y2="1556"/><line id="Capline-L" style="fill:none;stroke:#27AAE1;opacity:1;stroke-width:0.577;" x1="263" x2="3036" y1="1485.54" y2="1485.54"/><rect height="119.336" id="left-margin" style="fill:darkred;stroke:none;opacity:0.4;" width="12.4512" x="1394.06" y="1030.79"/><rect height="119.336" id="right-margin" style="fill:darkgreen;stroke:none;opacity:0.4;" width="12.4512" x="1502.5112" y="1030.79"/><rect x="1406.5112" y="1045" width="96" height="96" fill="none" stroke="blue" stroke-dasharray="5"/><rect x="1394.06" y="1030.79" width="120.9024" height="119.336" fill="none" stroke="blue"/></g><g id="Symbols"><g id="Bold-L" transform="matrix(1 0 0 1 2266 1556)"><path d="M63.705 1.051 Q66.108 1.051 67.723 -0.571 Q69.338 -2.194 69.338 -4.592 V-46.679 Q69.338 -49.146 67.711 -50.815 Q66.084 -52.484 63.68 -52.484 Q61.275 -52.484 59.582 -50.815 Q57.889 -49.146 57.889 -46.679 V-4.592 Q57.889 -2.194 59.561 -0.571 Q61.233 1.051 63.705 1.051 Z M91.279 1.051 Q93.682 1.051 95.297 -0.571 Q96.911 -2.194 96.911 -4.592 V-46.679 Q96.911 -49.146 95.285 -50.815 Q93.658 -52.484 91.253 -52.484 Q88.849 -52.484 87.156 -50.815 Q85.463 -49.146 85.463 -46.679 V-4.592 Q85.463 -2.194 87.135 -0.571 Q88.807 1.051 91.279 1.051 Z M60.972 -96.505 Q58.03 -96.505 56.186 -98.468 Q54.341 -100.432 54.341 -103.306 Q54.341 -106.18 56.186 -108.034 Q58.03 -109.889 60.972 -109.889 H93.828 Q96.77 -109.889 98.614 -108.036 Q100.459 -106.184 100.459 -103.249 Q100.459 -100.375 98.614 -98.44 Q96.77 -96.505 93.828 -96.505 H60.972 Z M77.362 36.526 Q64.425 36.526 53.146 31.634 Q41.868 26.742 33.431 18.331 Q24.994 9.92 20.156 -1.344 Q15.319 -12.609 15.319 -25.532 Q15.319 -38.455 20.171 -49.735 Q25.023 -61.015 33.46 -69.482 Q41.897 -77.949 53.175 -82.873 Q64.453 -87.797 77.4 -87.797 Q88.526 -87.797 98.362 -84.25 Q108.199 -80.702 115.778 -74.091 L120.776 -79.09 Q122.873 -81.186 125.614 -81.186 Q128.355 -81.186 130.451 -79.009 Q132.548 -76.832 132.548 -74.091 Q132.548 -71.35 130.451 -69.254 L125.614 -64.416 Q131.58 -57.644 135.611 -48.13 Q139.643 -38.616 139.643 -25.555 Q139.643 -12.598 134.74 -1.303 Q129.838 9.992 121.378 18.38 Q112.918 26.768 101.609 31.647 Q90.3 36.526 77.362 36.526 Z"/></g><g id="Semibold-L" transform="matrix(1 0 0 1 1970.27 1556)"><path d="M64.063 -0.772 Q66.321 -0.772 67.829 -2.293 Q69.338 -3.815 69.338 -6.065 V-48.081 Q69.338 -50.369 67.81 -51.917 Q66.282 -53.465 64.024 -53.465 Q61.766 -53.465 60.213 -51.917 Q58.66 -50.369 58.66 -48.081 V-6.065 Q58.66 -3.815 60.213 -2.293 Q61.767 -0.772 64.063 -0.772 Z M90.866 -0.772 Q93.123 -0.772 94.632 -2.293 Q96.14 -3.815 96.14 -6.065 V-48.081 Q96.14 -50.369 94.612 -51.917 Q93.085 -53.465 90.827 -53.465 Q88.568 -53.465 87.015 -51.917 Q85.463 -50.369 85.463 -48.081 V-6.065 Q85.463 -3.815 87.016 -2.293 Q88.569 -0.772 90.866 -0.772 Z M61.805 -96.505 Q59.248 -96.505 57.601 -98.223 Q55.954 -99.941 55.954 -102.464 Q55.954 -104.988 57.601 -106.632 Q59.248 -108.276 61.805 -108.276 H92.995 Q95.552 -108.276 97.199 -106.621 Q98.846 -104.966 98.846 -102.408 Q98.846 -99.884 97.199 -98.195 Q95.552 -96.505 92.995 -96.505 H61.805 Z M77.379 33.301 Q64.878 33.301 53.911 28.538 Q42.944 23.775 34.74 15.586 Q26.536 7.396 21.804 -3.563 Q17.071 -14.522 17.071 -27.014 Q17.071 -39.507 21.812 -50.474 Q26.553 -61.442 34.757 -69.663 Q42.961 -77.884 53.927 -82.666 Q64.894 -87.447 77.4 -87.447 Q88.386 -87.447 98.047 -83.899 Q107.708 -80.352 115.217 -73.811 L120.145 -78.739 Q121.961 -80.555 124.387 -80.555 Q126.813 -80.555 128.628 -78.694 Q130.444 -76.832 130.444 -74.407 Q130.444 -71.981 128.628 -70.165 L123.791 -65.328 Q129.687 -58.695 133.753 -49.322 Q137.82 -39.948 137.82 -27.027 Q137.82 -14.515 133.051 -3.539 Q128.282 7.437 120.065 15.613 Q111.848 23.79 100.863 28.546 Q89.879 33.301 77.379 33.301 Z"/></g><g id="Medium-L" transform="matrix(1 0 0 1 1674.31 1556)"><path d="M64.331 -2.139 Q66.48 -2.139 67.909 -3.585 Q69.338 -5.031 69.338 -7.169 V-49.132 Q69.338 -51.287 67.884 -52.744 Q66.431 -54.201 64.282 -54.201 Q62.134 -54.201 60.686 -52.744 Q59.238 -51.287 59.238 -49.132 V-7.169 Q59.238 -5.031 60.703 -3.585 Q62.167 -2.139 64.331 -2.139 Z M90.556 -2.139 Q92.704 -2.139 94.133 -3.585 Q95.562 -5.031 95.562 -7.169 V-49.132 Q95.562 -51.287 94.108 -52.744 Q92.655 -54.201 90.506 -54.201 Q88.358 -54.201 86.91 -52.744 Q85.463 -51.287 85.463 -49.132 V-7.169 Q85.463 -5.031 86.927 -3.585 Q88.391 -2.139 90.556 -2.139 Z M62.43 -96.505 Q60.162 -96.505 58.662 -98.039 Q57.163 -99.573 57.163 -101.834 Q57.163 -104.094 58.662 -105.581 Q60.162 -107.067 62.43 -107.067 H92.37 Q94.638 -107.067 96.138 -105.56 Q97.637 -104.052 97.637 -101.777 Q97.637 -99.516 96.138 -98.011 Q94.638 -96.505 92.37 -96.505 H62.43 Z M77.391 30.883 Q65.218 30.883 54.485 26.216 Q43.752 21.55 35.722 13.526 Q27.693 5.503 23.039 -5.227 Q18.386 -15.957 18.386 -28.126 Q18.386 -40.295 23.043 -51.029 Q27.7 -61.763 35.729 -69.799 Q43.759 -77.835 54.492 -82.51 Q65.225 -87.184 77.4 -87.184 Q88.281 -87.184 97.81 -83.637 Q107.34 -80.089 114.796 -73.601 L119.672 -78.477 Q121.278 -80.082 123.467 -80.082 Q125.656 -80.082 127.261 -78.457 Q128.867 -76.832 128.867 -74.643 Q128.867 -72.454 127.261 -70.849 L122.424 -66.011 Q128.267 -59.484 132.36 -50.216 Q136.453 -40.947 136.453 -28.131 Q136.453 -15.954 131.784 -5.217 Q127.115 5.52 119.08 13.538 Q111.045 21.556 100.304 26.219 Q89.564 30.883 77.391 30.883 Z"/></g><g id="Regular-L" transform="matrix(1 0 0 1 1378.56 1556)"><path d="M64.528 -3.141 Q66.596 -3.141 67.967 -4.532 Q69.338 -5.923 69.338 -7.979 V-49.904 Q69.338 -51.96 67.939 -53.35 Q66.54 -54.741 64.472 -54.741 Q62.404 -54.741 61.033 -53.35 Q59.663 -51.96 59.663 -49.904 V-7.979 Q59.663 -5.923 61.061 -4.532 Q62.46 -3.141 64.528 -3.141 Z M90.328 -3.141 Q92.396 -3.141 93.767 -4.532 Q95.138 -5.923 95.138 -7.979 V-49.904 Q95.138 -51.96 93.739 -53.35 Q92.34 -54.741 90.272 -54.741 Q88.204 -54.741 86.833 -53.35 Q85.463 -51.96 85.463 -49.904 V-7.979 Q85.463 -5.923 86.861 -4.532 Q88.26 -3.141 90.328 -3.141 Z M62.888 -96.505 Q60.832 -96.505 59.441 -97.904 Q58.05 -99.303 58.05 -101.371 Q58.05 -103.439 59.441 -104.809 Q60.832 -106.18 62.888 -106.18 H91.913 Q93.968 -106.18 95.359 -104.781 Q96.75 -103.382 96.75 -101.314 Q96.75 -99.246 95.359 -97.876 Q93.968 -96.505 91.913 -96.505 H62.888 Z M77.4 29.109 Q65.468 29.109 54.906 24.513 Q44.344 19.918 36.443 12.016 Q28.541 4.115 23.946 -6.447 Q19.35 -17.009 19.35 -28.941 Q19.35 -40.874 23.946 -51.436 Q28.541 -61.997 36.443 -69.899 Q44.344 -77.8 54.906 -82.396 Q65.468 -86.991 77.4 -86.991 Q88.204 -86.991 97.637 -83.444 Q107.07 -79.896 114.487 -73.446 L119.325 -78.284 Q120.776 -79.735 122.792 -79.735 Q124.808 -79.735 126.259 -78.284 Q127.71 -76.832 127.71 -74.817 Q127.71 -72.801 126.259 -71.35 L121.421 -66.512 Q127.226 -60.062 131.338 -50.871 Q135.45 -41.68 135.45 -28.941 Q135.45 -17.009 130.854 -6.447 Q126.259 4.115 118.358 12.016 Q110.456 19.918 99.894 24.513 Q89.332 29.109 77.4 29.109 Z"/></g><g id="Light-L" transform="matrix(1 0 0 1 1082.77 1556)"><path d="M65.524 -4.692 Q67.092 -4.692 68.122 -5.744 Q69.151 -6.796 69.151 -8.351 V-49.408 Q69.151 -50.963 68.09 -52.015 Q67.029 -53.067 65.461 -53.067 Q63.892 -53.067 62.863 -52.015 Q61.833 -50.963 61.833 -49.408 V-8.351 Q61.833 -6.796 62.894 -5.744 Q63.955 -4.692 65.524 -4.692 Z M89.339 -4.692 Q90.908 -4.692 91.937 -5.744 Q92.967 -6.796 92.967 -8.351 V-49.408 Q92.967 -50.963 91.906 -52.015 Q90.845 -53.067 89.276 -53.067 Q87.708 -53.067 86.678 -52.015 Q85.649 -50.963 85.649 -49.408 V-8.351 Q85.649 -6.796 86.71 -5.744 Q87.771 -4.692 89.339 -4.692 Z M62.95 -97.249 Q61.394 -97.249 60.342 -98.31 Q59.29 -99.371 59.29 -100.94 Q59.29 -102.508 60.342 -103.538 Q61.394 -104.567 62.95 -104.567 H91.85 Q93.406 -104.567 94.458 -103.506 Q95.51 -102.445 95.51 -100.877 Q95.51 -99.308 94.458 -98.279 Q93.406 -97.249 91.85 -97.249 H62.95 Z M77.4 25.946 Q66.117 25.946 56.13 21.598 Q46.142 17.25 38.675 9.814 Q31.208 2.378 26.892 -7.64 Q22.575 -17.658 22.575 -28.91 Q22.575 -40.162 26.892 -50.15 Q31.208 -60.137 38.675 -67.604 Q46.142 -75.071 56.13 -79.388 Q66.117 -83.704 77.4 -83.704 Q87.708 -83.704 96.862 -80.187 Q106.016 -76.671 113.185 -70.345 L118.085 -75.183 Q119.164 -76.262 120.683 -76.293 Q122.203 -76.324 123.344 -75.183 Q124.485 -74.041 124.485 -72.553 Q124.485 -71.065 123.344 -69.923 L118.444 -65.024 Q124.373 -58.574 128.299 -49.6 Q132.225 -40.626 132.225 -28.879 Q132.225 -17.658 127.908 -7.64 Q123.592 2.378 116.125 9.814 Q108.658 17.25 98.67 21.598 Q88.683 25.946 77.4 25.946 Z"/></g><g id="Thin-L" transform="matrix(1 0 0 1 787.282 1556)"><path d="M66.519 -6.242 Q67.589 -6.242 68.277 -6.955 Q68.965 -7.669 68.965 -8.723 V-48.911 Q68.965 -49.966 68.242 -50.679 Q67.519 -51.392 66.45 -51.392 Q65.381 -51.392 64.692 -50.679 Q64.004 -49.966 64.004 -48.911 V-8.723 Q64.004 -7.669 64.727 -6.955 Q65.45 -6.242 66.519 -6.242 Z M88.35 -6.242 Q89.419 -6.242 90.108 -6.955 Q90.796 -7.669 90.796 -8.723 V-48.911 Q90.796 -49.966 90.073 -50.679 Q89.35 -51.392 88.281 -51.392 Q87.211 -51.392 86.523 -50.679 Q85.835 -49.966 85.835 -48.911 V-8.723 Q85.835 -7.669 86.558 -6.955 Q87.281 -6.242 88.35 -6.242 Z M63.012 -97.993 Q61.957 -97.993 61.244 -98.717 Q60.531 -99.44 60.531 -100.509 Q60.531 -101.578 61.244 -102.267 Q61.957 -102.955 63.012 -102.955 H91.788 Q92.843 -102.955 93.556 -102.232 Q94.269 -101.509 94.269 -100.439 Q94.269 -99.37 93.556 -98.682 Q92.843 -97.993 91.788 -97.993 H63.012 Z M77.4 22.783 Q66.766 22.783 57.353 18.683 Q47.941 14.584 40.908 7.613 Q33.875 0.642 29.837 -8.833 Q25.8 -18.307 25.8 -28.879 Q25.8 -39.451 29.837 -48.864 Q33.875 -58.276 40.908 -65.309 Q47.941 -72.342 57.353 -76.38 Q66.766 -80.417 77.4 -80.417 Q87.211 -80.417 96.086 -76.932 Q104.961 -73.446 111.883 -67.244 L116.844 -72.082 Q117.551 -72.789 118.575 -72.851 Q119.598 -72.913 120.429 -72.082 Q121.26 -71.251 121.26 -70.289 Q121.26 -69.328 120.429 -68.497 L115.467 -63.536 Q121.521 -57.086 125.26 -48.328 Q129 -39.571 129 -28.817 Q129 -18.307 124.963 -8.833 Q120.925 0.642 113.892 7.613 Q106.859 14.584 97.447 18.683 Q88.034 22.783 77.4 22.783 Z"/></g><g id="Ultralight-L" transform="matrix(1 0 0 1 491.205 1556)"><path d="M67.117 -7.172 Q67.886 -7.172 68.37 -7.682 Q68.854 -8.192 68.854 -8.946 V-48.614 Q68.854 -49.368 68.333 -49.878 Q67.813 -50.387 67.043 -50.387 Q66.274 -50.387 65.79 -49.878 Q65.306 -49.368 65.306 -48.614 V-8.946 Q65.306 -8.192 65.827 -7.682 Q66.347 -7.172 67.117 -7.172 Z M87.757 -7.172 Q88.526 -7.172 89.01 -7.682 Q89.494 -8.192 89.494 -8.946 V-48.614 Q89.494 -49.368 88.973 -49.878 Q88.453 -50.387 87.683 -50.387 Q86.914 -50.387 86.43 -49.878 Q85.946 -49.368 85.946 -48.614 V-8.946 Q85.946 -8.192 86.467 -7.682 Q86.987 -7.172 87.757 -7.172 Z M63.049 -98.44 Q62.295 -98.44 61.785 -98.961 Q61.275 -99.481 61.275 -100.251 Q61.275 -101.02 61.785 -101.504 Q62.295 -101.987 63.049 -101.987 H91.751 Q92.505 -101.987 93.015 -101.467 Q93.525 -100.946 93.525 -100.177 Q93.525 -99.407 93.015 -98.924 Q92.505 -98.44 91.751 -98.44 H63.049 Z M77.4 20.885 Q67.155 20.885 58.088 16.934 Q49.02 12.984 42.248 6.292 Q35.475 -0.4 31.605 -9.548 Q27.735 -18.697 27.735 -28.861 Q27.735 -39.025 31.605 -48.092 Q35.475 -57.16 42.248 -63.932 Q49.02 -70.705 58.088 -74.575 Q67.155 -78.445 77.4 -78.445 Q86.914 -78.445 95.621 -74.978 Q104.329 -71.511 111.101 -65.384 L116.1 -70.221 Q116.584 -70.705 117.309 -70.786 Q118.035 -70.866 118.68 -70.221 Q119.325 -69.576 119.325 -68.931 Q119.325 -68.286 118.68 -67.641 L113.681 -62.642 Q119.809 -56.192 123.437 -47.566 Q127.065 -38.939 127.065 -28.78 Q127.065 -18.697 123.195 -9.548 Q119.325 -0.4 112.553 6.292 Q105.78 12.984 96.712 16.934 Q87.645 20.885 77.4 20.885 Z"/></g><g id="Bold-M" transform="matrix(1 0 0 1 2281.8 1126)"><path d="M49.125 -5.855 Q51.622 -5.855 53.311 -7.544 Q55 -9.233 55 -11.73 V-41.855 Q55 -44.405 53.31 -46.13 Q51.621 -47.855 49.123 -47.855 Q46.625 -47.855 44.875 -46.13 Q43.125 -44.405 43.125 -41.855 V-11.73 Q43.125 -9.233 44.85 -7.544 Q46.575 -5.855 49.125 -5.855 Z M71 -5.855 Q73.497 -5.855 75.186 -7.544 Q76.875 -9.233 76.875 -11.73 V-41.855 Q76.875 -44.405 75.185 -46.13 Q73.496 -47.855 70.998 -47.855 Q68.5 -47.855 66.75 -46.13 Q65 -44.405 65 -41.855 V-11.73 Q65 -9.233 66.725 -7.544 Q68.45 -5.855 71 -5.855 Z M48 -80.23 Q45.078 -80.23 43.102 -82.292 Q41.125 -84.355 41.125 -87.23 Q41.125 -90.105 43.102 -92.105 Q45.078 -94.105 48 -94.105 H72 Q74.922 -94.105 76.898 -92.128 Q78.875 -90.152 78.875 -87.23 Q78.875 -84.355 76.898 -82.292 Q74.922 -80.23 72 -80.23 H48 Z M60 22.395 Q49.75 22.395 40.812 18.534 Q31.873 14.672 25.187 8.034 Q18.5 1.395 14.625 -7.542 Q10.75 -16.48 10.75 -26.73 Q10.75 -36.98 14.636 -45.912 Q18.523 -54.844 25.204 -61.525 Q31.886 -68.207 40.818 -72.094 Q49.75 -75.98 60 -75.98 Q68 -75.98 75.625 -73.48 Q83.25 -70.98 89.625 -66.105 L93.25 -69.73 Q95.375 -71.855 98.188 -71.855 Q101 -71.855 103.125 -69.73 Q105.25 -67.605 105.25 -64.792 Q105.25 -61.98 103.125 -59.855 L99.5 -56.23 Q104.375 -49.855 106.812 -42.292 Q109.25 -34.73 109.25 -26.73 Q109.25 -16.48 105.375 -7.542 Q101.5 1.395 94.813 8.034 Q88.127 14.672 79.188 18.534 Q70.25 22.395 60 22.395 Z"/></g><g id="Semibold-M" transform="matrix(1 0 0 1 1985.97 1126)"><path d="M49.505 -7.757 Q51.841 -7.757 53.42 -9.337 Q55 -10.916 55 -13.252 V-43.322 Q55 -45.687 53.42 -47.287 Q51.84 -48.887 49.504 -48.887 Q47.169 -48.887 45.554 -47.287 Q43.94 -45.687 43.94 -43.322 V-13.252 Q43.94 -10.916 45.54 -9.337 Q47.14 -7.757 49.505 -7.757 Z M70.565 -7.757 Q72.9 -7.757 74.48 -9.337 Q76.06 -10.916 76.06 -13.252 V-43.322 Q76.06 -45.687 74.48 -47.287 Q72.9 -48.887 70.564 -48.887 Q68.228 -48.887 66.614 -47.287 Q65 -45.687 65 -43.322 V-13.252 Q65 -10.916 66.6 -9.337 Q68.2 -7.757 70.565 -7.757 Z M48.87 -80.23 Q46.294 -80.23 44.552 -82.021 Q42.81 -83.811 42.81 -86.36 Q42.81 -88.909 44.552 -90.665 Q46.294 -92.42 48.87 -92.42 H71.13 Q73.706 -92.42 75.448 -90.678 Q77.19 -88.936 77.19 -86.36 Q77.19 -83.811 75.448 -82.021 Q73.706 -80.23 71.13 -80.23 H48.87 Z M60 19.08 Q50.185 19.08 41.573 15.349 Q32.961 11.617 26.518 5.202 Q20.076 -1.213 16.337 -9.825 Q12.598 -18.436 12.598 -28.252 Q12.598 -38.067 16.343 -46.675 Q20.089 -55.283 26.529 -61.723 Q32.968 -68.163 41.577 -71.908 Q50.185 -75.654 60 -75.654 Q67.891 -75.654 75.299 -73.154 Q82.707 -70.654 89.027 -65.833 L92.598 -69.404 Q94.397 -71.203 96.91 -71.203 Q99.424 -71.203 101.223 -69.404 Q103.022 -67.605 103.022 -65.091 Q103.022 -62.578 101.223 -60.779 L97.652 -57.208 Q102.473 -50.887 104.938 -43.515 Q107.402 -36.143 107.402 -28.252 Q107.402 -18.436 103.663 -9.825 Q99.924 -1.213 93.481 5.202 Q87.039 11.617 78.427 15.349 Q69.815 19.08 60 19.08 Z"/></g><g id="Medium-M" transform="matrix(1 0 0 1 1689.91 1126)"><path d="M49.791 -9.184 Q52.005 -9.184 53.502 -10.681 Q55 -12.179 55 -14.393 V-44.423 Q55 -46.649 53.502 -48.156 Q52.004 -49.662 49.79 -49.662 Q47.576 -49.662 46.064 -48.156 Q44.552 -46.649 44.552 -44.423 V-14.393 Q44.552 -12.179 46.058 -10.681 Q47.564 -9.184 49.791 -9.184 Z M70.239 -9.184 Q72.453 -9.184 73.951 -10.681 Q75.448 -12.179 75.448 -14.393 V-44.423 Q75.448 -46.649 73.951 -48.156 Q72.453 -49.662 70.239 -49.662 Q68.025 -49.662 66.512 -48.156 Q65 -46.649 65 -44.423 V-14.393 Q65 -12.179 66.506 -10.681 Q68.013 -9.184 70.239 -9.184 Z M49.522 -80.23 Q47.206 -80.23 45.64 -81.817 Q44.073 -83.404 44.073 -85.708 Q44.073 -88.013 45.64 -89.585 Q47.206 -91.157 49.522 -91.157 H70.478 Q72.794 -91.157 74.36 -89.59 Q75.927 -88.024 75.927 -85.708 Q75.927 -83.404 74.36 -81.817 Q72.794 -80.23 70.478 -80.23 H49.522 Z M60 16.593 Q50.511 16.593 42.144 12.96 Q33.777 9.326 27.517 3.078 Q21.258 -3.17 17.621 -11.537 Q13.984 -19.904 13.984 -29.393 Q13.984 -38.882 17.624 -47.248 Q21.264 -55.613 27.522 -61.871 Q33.78 -68.129 42.145 -71.769 Q50.511 -75.409 60 -75.409 Q67.81 -75.409 75.054 -72.909 Q82.299 -70.409 88.579 -65.629 L92.109 -69.159 Q93.663 -70.714 95.953 -70.714 Q98.242 -70.714 99.796 -69.159 Q101.351 -67.605 101.351 -65.316 Q101.351 -63.026 99.796 -61.472 L96.266 -57.942 Q101.046 -51.662 103.531 -44.432 Q106.016 -37.203 106.016 -29.393 Q106.016 -19.904 102.379 -11.537 Q98.742 -3.17 92.483 3.078 Q86.223 9.326 77.856 12.96 Q69.489 16.593 60 16.593 Z"/></g><g id="Regular-M" transform="matrix(1 0 0 1 1394.06 1126)"><path d="M50 -10.23 Q52.125 -10.23 53.562 -11.667 Q55 -13.105 55 -15.23 V-45.23 Q55 -47.355 53.562 -48.792 Q52.125 -50.23 50 -50.23 Q47.875 -50.23 46.438 -48.792 Q45 -47.355 45 -45.23 V-15.23 Q45 -13.105 46.438 -11.667 Q47.875 -10.23 50 -10.23 Z M70 -10.23 Q72.125 -10.23 73.562 -11.667 Q75 -13.105 75 -15.23 V-45.23 Q75 -47.355 73.562 -48.792 Q72.125 -50.23 70 -50.23 Q67.875 -50.23 66.438 -48.792 Q65 -47.355 65 -45.23 V-15.23 Q65 -13.105 66.438 -11.667 Q67.875 -10.23 70 -10.23 Z M50 -80.23 Q47.875 -80.23 46.438 -81.667 Q45 -83.105 45 -85.23 Q45 -87.355 46.438 -88.792 Q47.875 -90.23 50 -90.23 H70 Q72.125 -90.23 73.562 -88.792 Q75 -87.355 75 -85.23 Q75 -83.105 73.562 -81.667 Q72.125 -80.23 70 -80.23 H50 Z M60 14.77 Q50.75 14.77 42.562 11.208 Q34.375 7.645 28.25 1.52 Q22.125 -4.605 18.562 -12.792 Q15 -20.98 15 -30.23 Q15 -39.48 18.562 -47.667 Q22.125 -55.855 28.25 -61.98 Q34.375 -68.105 42.562 -71.667 Q50.75 -75.23 60 -75.23 Q67.75 -75.23 74.875 -72.73 Q82 -70.23 88.25 -65.48 L91.75 -68.98 Q93.125 -70.355 95.25 -70.355 Q97.375 -70.355 98.75 -68.98 Q100.125 -67.605 100.125 -65.48 Q100.125 -63.355 98.75 -61.98 L95.25 -58.48 Q100 -52.23 102.5 -45.105 Q105 -37.98 105 -30.23 Q105 -20.98 101.438 -12.792 Q97.875 -4.605 91.75 1.52 Q85.625 7.645 77.438 11.208 Q69.25 14.77 60 14.77 Z"/></g><g id="Light-M" transform="matrix(1 0 0 1 1098.18 1126)"><path d="M50.771 -11.48 Q52.365 -11.48 53.442 -12.558 Q54.519 -13.636 54.519 -15.23 V-45.23 Q54.519 -46.824 53.441 -47.902 Q52.362 -48.98 50.768 -48.98 Q49.173 -48.98 48.096 -47.902 Q47.019 -46.824 47.019 -45.23 V-15.23 Q47.019 -13.636 48.098 -12.558 Q49.176 -11.48 50.771 -11.48 Z M69.232 -11.48 Q70.827 -11.48 71.904 -12.558 Q72.981 -13.636 72.981 -15.23 V-45.23 Q72.981 -46.824 71.902 -47.902 Q70.823 -48.98 69.229 -48.98 Q67.635 -48.98 66.558 -47.902 Q65.481 -46.824 65.481 -45.23 V-15.23 Q65.481 -13.636 66.559 -12.558 Q67.638 -11.48 69.232 -11.48 Z M49.712 -81.48 Q48.118 -81.48 47.04 -82.559 Q45.962 -83.637 45.962 -85.232 Q45.962 -86.826 47.04 -87.903 Q48.118 -88.98 49.712 -88.98 H70.288 Q71.882 -88.98 72.96 -87.901 Q74.038 -86.823 74.038 -85.228 Q74.038 -83.634 72.96 -82.557 Q71.882 -81.48 70.288 -81.48 H49.712 Z M60 12.27 Q51.253 12.27 43.511 8.924 Q35.769 5.578 29.981 -0.211 Q24.192 -5.999 20.846 -13.741 Q17.5 -21.483 17.5 -30.23 Q17.5 -38.977 20.846 -46.719 Q24.192 -54.461 29.981 -60.249 Q35.769 -66.037 43.511 -69.384 Q51.253 -72.73 60 -72.73 Q67.51 -72.73 74.466 -70.182 Q81.423 -67.634 87.385 -62.884 L90.981 -66.48 Q92.019 -67.518 93.591 -67.542 Q95.163 -67.566 96.25 -66.48 Q97.336 -65.393 97.336 -63.845 Q97.336 -62.297 96.25 -61.211 L92.654 -57.614 Q97.404 -51.653 99.952 -44.696 Q102.5 -37.74 102.5 -30.23 Q102.5 -21.483 99.154 -13.741 Q95.808 -5.999 90.019 -0.211 Q84.231 5.578 76.489 8.924 Q68.747 12.27 60 12.27 Z"/></g><g id="Thin-M" transform="matrix(1 0 0 1 802.565 1126)"><path d="M51.542 -12.73 Q52.606 -12.73 53.322 -13.449 Q54.038 -14.167 54.038 -15.23 V-45.23 Q54.038 -46.292 53.319 -47.011 Q52.599 -47.73 51.535 -47.73 Q50.471 -47.73 49.755 -47.011 Q49.038 -46.292 49.038 -45.23 V-15.23 Q49.038 -14.167 49.758 -13.449 Q50.478 -12.73 51.542 -12.73 Z M68.465 -12.73 Q69.529 -12.73 70.245 -13.449 Q70.962 -14.167 70.962 -15.23 V-45.23 Q70.962 -46.292 70.242 -47.011 Q69.522 -47.73 68.458 -47.73 Q67.394 -47.73 66.678 -47.011 Q65.962 -46.292 65.962 -45.23 V-15.23 Q65.962 -14.167 66.681 -13.449 Q67.401 -12.73 68.465 -12.73 Z M49.423 -82.73 Q48.361 -82.73 47.642 -83.45 Q46.923 -84.169 46.923 -85.233 Q46.923 -86.297 47.642 -87.014 Q48.361 -87.73 49.423 -87.73 H70.577 Q71.639 -87.73 72.358 -87.01 Q73.077 -86.291 73.077 -85.227 Q73.077 -84.163 72.358 -83.446 Q71.639 -82.73 70.577 -82.73 H49.423 Z M60 9.77 Q51.757 9.77 44.46 6.64 Q37.163 3.51 31.712 -1.941 Q26.26 -7.393 23.13 -14.69 Q20 -21.986 20 -30.23 Q20 -38.473 23.13 -45.77 Q26.26 -53.066 31.712 -58.518 Q37.163 -63.97 44.46 -67.1 Q51.757 -70.23 60 -70.23 Q67.269 -70.23 74.058 -67.634 Q80.846 -65.038 86.519 -60.288 L90.212 -63.98 Q90.913 -64.682 91.933 -64.73 Q92.952 -64.778 93.75 -63.98 Q94.548 -63.182 94.548 -62.211 Q94.548 -61.24 93.75 -60.441 L90.058 -56.749 Q94.808 -51.076 97.404 -44.288 Q100 -37.499 100 -30.23 Q100 -21.986 96.87 -14.69 Q93.74 -7.393 88.288 -1.941 Q82.837 3.51 75.54 6.64 Q68.243 9.77 60 9.77 Z"/></g><g id="Ultralight-M" transform="matrix(1 0 0 1 506.415 1126)"><path d="M52.004 -13.48 Q52.75 -13.48 53.25 -13.983 Q53.75 -14.486 53.75 -15.23 V-45.23 Q53.75 -45.974 53.246 -46.477 Q52.741 -46.98 51.996 -46.98 Q51.25 -46.98 50.75 -46.477 Q50.25 -45.974 50.25 -45.23 V-15.23 Q50.25 -14.486 50.754 -13.983 Q51.259 -13.48 52.004 -13.48 Z M68.004 -13.48 Q68.75 -13.48 69.25 -13.983 Q69.75 -14.486 69.75 -15.23 V-45.23 Q69.75 -45.974 69.246 -46.477 Q68.741 -46.98 67.996 -46.98 Q67.25 -46.98 66.75 -46.477 Q66.25 -45.974 66.25 -45.23 V-15.23 Q66.25 -14.486 66.754 -13.983 Q67.259 -13.48 68.004 -13.48 Z M49.25 -83.48 Q48.506 -83.48 48.003 -83.984 Q47.5 -84.489 47.5 -85.234 Q47.5 -85.98 48.003 -86.48 Q48.506 -86.98 49.25 -86.98 H70.75 Q71.494 -86.98 71.997 -86.476 Q72.5 -85.971 72.5 -85.226 Q72.5 -84.48 71.997 -83.98 Q71.494 -83.48 70.75 -83.48 H49.25 Z M60 8.27 Q52.059 8.27 45.029 5.27 Q38 2.27 32.75 -2.98 Q27.5 -8.23 24.5 -15.259 Q21.5 -22.288 21.5 -30.23 Q21.5 -38.171 24.5 -45.201 Q27.5 -52.23 32.75 -57.48 Q38 -62.73 45.029 -65.73 Q52.059 -68.73 60 -68.73 Q67.125 -68.73 73.812 -66.105 Q80.5 -63.48 86 -58.73 L89.75 -62.48 Q90.25 -62.98 90.938 -63.042 Q91.625 -63.105 92.25 -62.48 Q92.875 -61.855 92.875 -61.23 Q92.875 -60.605 92.25 -59.98 L88.5 -56.23 Q93.25 -50.73 95.875 -44.042 Q98.5 -37.355 98.5 -30.23 Q98.5 -22.288 95.5 -15.259 Q92.5 -8.23 87.25 -2.98 Q82 2.27 74.971 5.27 Q67.942 8.27 60 8.27 Z"/></g><g id="Bold-S" transform="matrix(1 0 0 1 2294.23 696)"><path d="M39.528 -12.842 Q41.321 -12.842 42.555 -14.06 Q43.79 -15.278 43.79 -17.079 V-38.457 Q43.79 -40.299 42.576 -41.562 Q41.362 -42.824 39.568 -42.824 Q37.773 -42.824 36.491 -41.578 Q35.209 -40.331 35.209 -38.489 V-17.111 Q35.209 -15.31 36.451 -14.076 Q37.692 -12.842 39.528 -12.842 Z M55.209 -12.842 Q57.003 -12.842 58.237 -14.06 Q59.471 -15.278 59.471 -17.079 V-38.457 Q59.471 -40.299 58.257 -41.562 Q57.043 -42.824 55.249 -42.824 Q53.455 -42.824 52.173 -41.578 Q50.891 -40.331 50.891 -38.489 V-17.111 Q50.891 -15.31 52.132 -14.076 Q53.374 -12.842 55.209 -12.842 Z M37.477 -68.368 Q35.34 -68.368 33.894 -69.876 Q32.448 -71.384 32.448 -73.476 Q32.448 -75.568 33.894 -77.047 Q35.34 -78.526 37.477 -78.526 H57.203 Q59.34 -78.526 60.786 -77.086 Q62.232 -75.646 62.232 -73.517 Q62.232 -71.425 60.786 -69.897 Q59.34 -68.368 57.203 -68.368 H37.477 Z M47.34 8.658 Q39.647 8.658 33.047 5.808 Q26.446 2.958 21.508 -1.942 Q16.57 -6.842 13.71 -13.442 Q10.849 -20.042 10.849 -27.734 Q10.849 -35.427 13.719 -42.023 Q16.588 -48.618 21.522 -53.552 Q26.456 -58.486 33.052 -61.356 Q39.647 -64.226 47.297 -64.226 Q53.242 -64.226 58.921 -62.303 Q64.599 -60.379 69.235 -56.829 L72.024 -59.618 Q73.673 -61.267 75.596 -61.218 Q77.519 -61.168 79.196 -59.492 Q80.873 -57.815 80.873 -55.892 Q80.873 -53.969 79.196 -52.292 L76.533 -49.531 Q80.084 -44.994 81.957 -39.342 Q83.831 -33.69 83.831 -27.72 Q83.831 -20.042 80.97 -13.442 Q78.11 -6.842 73.172 -1.942 Q68.234 2.958 61.633 5.808 Q55.033 8.658 47.34 8.658 Z"/></g><g id="Semibold-S" transform="matrix(1 0 0 1 1998.1 696)"><path d="M39.828 -14.343 Q41.494 -14.343 42.642 -15.475 Q43.79 -16.606 43.79 -18.28 V-39.614 Q43.79 -41.311 42.662 -42.475 Q41.535 -43.639 39.869 -43.639 Q38.202 -43.639 37.027 -42.491 Q35.852 -41.343 35.852 -39.646 V-18.311 Q35.852 -16.638 36.995 -15.491 Q38.138 -14.343 39.828 -14.343 Z M54.866 -14.343 Q56.532 -14.343 57.68 -15.475 Q58.828 -16.606 58.828 -18.28 V-39.614 Q58.828 -41.311 57.7 -42.475 Q56.573 -43.639 54.907 -43.639 Q53.24 -43.639 52.065 -42.491 Q50.891 -41.343 50.891 -39.646 V-18.311 Q50.891 -16.638 52.034 -15.491 Q53.177 -14.343 54.866 -14.343 Z M38.164 -68.368 Q36.299 -68.368 35.038 -69.662 Q33.777 -70.955 33.777 -72.79 Q33.777 -74.624 35.038 -75.911 Q36.299 -77.197 38.164 -77.197 H56.516 Q58.381 -77.197 59.642 -75.942 Q60.903 -74.687 60.903 -72.831 Q60.903 -70.997 59.642 -69.682 Q58.381 -68.368 56.516 -68.368 H38.164 Z M47.34 6.043 Q39.99 6.043 33.647 3.295 Q27.304 0.548 22.559 -4.176 Q17.814 -8.9 15.06 -15.243 Q12.307 -21.585 12.307 -28.935 Q12.307 -36.285 15.065 -42.625 Q17.824 -48.965 22.567 -53.708 Q27.31 -58.451 33.65 -61.21 Q39.99 -63.968 47.297 -63.968 Q53.156 -63.968 58.663 -62.045 Q64.171 -60.122 68.763 -56.614 L71.51 -59.361 Q72.901 -60.752 74.588 -60.703 Q76.276 -60.654 77.695 -59.234 Q79.115 -57.815 79.115 -56.128 Q79.115 -54.44 77.695 -53.021 L75.075 -50.302 Q78.583 -45.809 80.478 -40.307 Q82.373 -34.805 82.373 -28.921 Q82.373 -21.585 79.62 -15.243 Q76.866 -8.9 72.121 -4.176 Q67.376 0.548 61.033 3.295 Q54.69 6.043 47.34 6.043 Z"/></g><g id="Medium-S" transform="matrix(1 0 0 1 1701.85 696)"><path d="M40.053 -15.469 Q41.623 -15.469 42.706 -16.536 Q43.79 -17.603 43.79 -19.18 V-40.483 Q43.79 -42.07 42.727 -43.16 Q41.665 -44.25 40.094 -44.25 Q38.524 -44.25 37.429 -43.176 Q36.335 -42.102 36.335 -40.515 V-19.212 Q36.335 -17.635 37.404 -16.552 Q38.473 -15.469 40.053 -15.469 Z M54.609 -15.469 Q56.179 -15.469 57.262 -16.536 Q58.345 -17.603 58.345 -19.18 V-40.483 Q58.345 -42.07 57.283 -43.16 Q56.22 -44.25 54.65 -44.25 Q53.08 -44.25 51.985 -43.176 Q50.891 -42.102 50.891 -40.515 V-19.212 Q50.891 -17.635 51.959 -16.552 Q53.029 -15.469 54.609 -15.469 Z M38.678 -68.368 Q37.019 -68.368 35.896 -69.501 Q34.774 -70.633 34.774 -72.275 Q34.774 -73.917 35.896 -75.058 Q37.019 -76.2 38.678 -76.2 H56.002 Q57.661 -76.2 58.784 -75.084 Q59.906 -73.967 59.906 -72.317 Q59.906 -70.675 58.784 -69.522 Q57.661 -68.368 56.002 -68.368 H38.678 Z M47.34 4.081 Q40.248 4.081 34.098 1.41 Q27.948 -1.261 23.347 -5.852 Q18.747 -10.444 16.073 -16.594 Q13.4 -22.743 13.4 -29.836 Q13.4 -36.928 16.075 -43.077 Q18.751 -49.225 23.351 -53.825 Q27.95 -58.425 34.099 -61.1 Q40.248 -63.776 47.297 -63.776 Q53.092 -63.776 58.47 -61.852 Q63.849 -59.929 68.409 -56.454 L71.124 -59.168 Q72.322 -60.367 73.833 -60.317 Q75.343 -60.268 76.569 -59.042 Q77.796 -57.815 77.796 -56.305 Q77.796 -54.794 76.569 -53.568 L73.982 -50.881 Q77.457 -46.42 79.368 -41.03 Q81.28 -35.641 81.28 -29.821 Q81.28 -22.743 78.607 -16.594 Q75.933 -10.444 71.333 -5.852 Q66.732 -1.261 60.582 1.41 Q54.432 4.081 47.34 4.081 Z"/></g><g id="Regular-S" transform="matrix(1 0 0 1 1405.73 696)"><path d="M40.218 -16.294 Q41.718 -16.294 42.754 -17.314 Q43.79 -18.333 43.79 -19.841 V-41.12 Q43.79 -42.627 42.775 -43.662 Q41.76 -44.698 40.26 -44.698 Q38.76 -44.698 37.724 -43.678 Q36.689 -42.659 36.689 -41.151 V-19.872 Q36.689 -18.365 37.703 -17.33 Q38.718 -16.294 40.218 -16.294 Z M54.42 -16.294 Q55.92 -16.294 56.956 -17.314 Q57.992 -18.333 57.992 -19.841 V-41.12 Q57.992 -42.627 56.977 -43.662 Q55.962 -44.698 54.462 -44.698 Q52.962 -44.698 51.926 -43.678 Q50.891 -42.659 50.891 -41.151 V-19.872 Q50.891 -18.365 51.905 -17.33 Q52.92 -16.294 54.42 -16.294 Z M39.056 -68.368 Q37.547 -68.368 36.526 -69.383 Q35.505 -70.398 35.505 -71.898 Q35.505 -73.398 36.526 -74.433 Q37.547 -75.469 39.056 -75.469 H55.625 Q57.133 -75.469 58.154 -74.454 Q59.175 -73.439 59.175 -71.939 Q59.175 -70.439 58.154 -69.404 Q57.133 -68.368 55.625 -68.368 H39.056 Z M47.34 2.642 Q40.436 2.642 34.428 0.028 Q28.42 -2.587 23.925 -7.081 Q19.431 -11.576 16.816 -17.584 Q14.202 -23.592 14.202 -30.496 Q14.202 -37.4 16.816 -43.408 Q19.431 -49.416 23.925 -53.911 Q28.42 -58.405 34.428 -61.02 Q40.436 -63.634 47.297 -63.634 Q53.044 -63.634 58.329 -61.711 Q63.613 -59.788 68.15 -56.336 L70.841 -59.026 Q71.898 -60.083 73.278 -60.034 Q74.659 -59.985 75.744 -58.9 Q76.829 -57.815 76.829 -56.434 Q76.829 -55.054 75.744 -53.969 L73.18 -51.306 Q76.632 -46.868 78.555 -41.561 Q80.478 -36.254 80.478 -30.482 Q80.478 -23.592 77.864 -17.584 Q75.249 -11.576 70.755 -7.081 Q66.26 -2.587 60.252 0.028 Q54.244 2.642 47.34 2.642 Z"/></g><g id="Light-S" transform="matrix(1 0 0 1 1109.75 696)"><path d="M40.827 -17.28 Q41.908 -17.28 42.659 -18.016 Q43.41 -18.752 43.41 -19.841 V-41.12 Q43.41 -42.208 42.678 -42.96 Q41.947 -43.712 40.865 -43.712 Q39.784 -43.712 39.033 -42.976 Q38.282 -42.24 38.282 -41.151 V-19.872 Q38.282 -18.784 39.013 -18.032 Q39.745 -17.28 40.827 -17.28 Z M53.815 -17.28 Q54.896 -17.28 55.647 -18.016 Q56.398 -18.752 56.398 -19.841 V-41.12 Q56.398 -42.208 55.667 -42.96 Q54.935 -43.712 53.853 -43.712 Q52.772 -43.712 52.021 -42.976 Q51.27 -42.24 51.27 -41.151 V-19.872 Q51.27 -18.784 52.002 -18.032 Q52.733 -17.28 53.815 -17.28 Z M38.828 -69.354 Q37.738 -69.354 37.001 -70.086 Q36.264 -70.818 36.264 -71.899 Q36.264 -72.981 37.001 -73.732 Q37.738 -74.483 38.828 -74.483 H55.852 Q56.942 -74.483 57.679 -73.751 Q58.416 -73.019 58.416 -71.938 Q58.416 -70.856 57.679 -70.105 Q56.942 -69.354 55.852 -69.354 H38.828 Z M47.34 0.669 Q40.833 0.669 35.177 -1.774 Q29.52 -4.218 25.291 -8.447 Q21.062 -12.676 18.618 -18.333 Q16.175 -23.989 16.175 -30.496 Q16.175 -37.003 18.618 -42.659 Q21.062 -48.316 25.291 -52.545 Q29.52 -56.774 35.177 -59.218 Q40.833 -61.661 47.297 -61.661 Q52.855 -61.661 58.006 -59.7 Q63.158 -57.739 67.467 -54.287 L70.234 -57.054 Q71.025 -57.845 71.97 -57.815 Q72.914 -57.785 73.771 -56.927 Q74.629 -56.07 74.629 -55.145 Q74.629 -54.219 73.771 -53.362 L71.131 -50.623 Q74.583 -46.412 76.544 -41.239 Q78.505 -36.064 78.505 -30.482 Q78.505 -23.989 76.062 -18.333 Q73.618 -12.676 69.389 -8.447 Q65.16 -4.218 59.503 -1.774 Q53.847 0.669 47.34 0.669 Z"/></g><g id="Thin-S" transform="matrix(1 0 0 1 814.015 696)"><path d="M41.435 -18.266 Q42.098 -18.266 42.564 -18.719 Q43.031 -19.172 43.031 -19.841 V-41.12 Q43.031 -41.789 42.582 -42.257 Q42.134 -42.725 41.471 -42.725 Q40.808 -42.725 40.341 -42.273 Q39.875 -41.82 39.875 -41.151 V-19.872 Q39.875 -19.203 40.323 -18.735 Q40.772 -18.266 41.435 -18.266 Z M53.209 -18.266 Q53.872 -18.266 54.339 -18.719 Q54.805 -19.172 54.805 -19.841 V-41.12 Q54.805 -41.789 54.357 -42.257 Q53.908 -42.725 53.245 -42.725 Q52.582 -42.725 52.116 -42.273 Q51.649 -41.82 51.649 -41.151 V-19.872 Q51.649 -19.203 52.098 -18.735 Q52.546 -18.266 53.209 -18.266 Z M38.6 -70.34 Q37.93 -70.34 37.476 -70.789 Q37.022 -71.237 37.022 -71.9 Q37.022 -72.563 37.476 -73.03 Q37.93 -73.496 38.6 -73.496 H56.08 Q56.75 -73.496 57.204 -73.048 Q57.658 -72.6 57.658 -71.937 Q57.658 -71.274 57.204 -70.807 Q56.75 -70.34 56.08 -70.34 H38.6 Z M47.34 -1.303 Q41.23 -1.303 35.925 -3.576 Q30.62 -5.849 26.656 -9.812 Q22.693 -13.776 20.42 -19.081 Q18.147 -24.386 18.147 -30.496 Q18.147 -36.606 20.42 -41.911 Q22.693 -47.216 26.656 -51.18 Q30.62 -55.143 35.925 -57.416 Q41.23 -59.689 47.297 -59.689 Q52.665 -59.689 57.684 -57.69 Q62.703 -55.691 66.784 -52.239 L69.627 -55.081 Q70.153 -55.608 70.661 -55.596 Q71.169 -55.585 71.799 -54.955 Q72.429 -54.325 72.429 -53.855 Q72.429 -53.385 71.799 -52.755 L69.083 -49.94 Q72.535 -45.957 74.534 -40.916 Q76.533 -35.875 76.533 -30.482 Q76.533 -24.386 74.26 -19.081 Q71.987 -13.776 68.024 -9.812 Q64.06 -5.849 58.755 -3.576 Q53.45 -1.303 47.34 -1.303 Z"/></g><g id="Ultralight-S" transform="matrix(1 0 0 1 517.792 696)"><path d="M41.8 -18.858 Q42.212 -18.858 42.507 -19.141 Q42.803 -19.423 42.803 -19.841 V-41.12 Q42.803 -41.537 42.525 -41.835 Q42.246 -42.134 41.834 -42.134 Q41.422 -42.134 41.127 -41.851 Q40.831 -41.569 40.831 -41.151 V-19.872 Q40.831 -19.455 41.109 -19.157 Q41.388 -18.858 41.8 -18.858 Z M52.846 -18.858 Q53.258 -18.858 53.553 -19.141 Q53.849 -19.423 53.849 -19.841 V-41.12 Q53.849 -41.537 53.571 -41.835 Q53.292 -42.134 52.88 -42.134 Q52.468 -42.134 52.173 -41.851 Q51.877 -41.569 51.877 -41.151 V-19.872 Q51.877 -19.455 52.155 -19.157 Q52.434 -18.858 52.846 -18.858 Z M38.464 -70.932 Q38.045 -70.932 37.761 -71.211 Q37.477 -71.489 37.477 -71.901 Q37.477 -72.313 37.761 -72.609 Q38.045 -72.905 38.464 -72.905 H56.216 Q56.635 -72.905 56.919 -72.626 Q57.203 -72.348 57.203 -71.936 Q57.203 -71.524 56.919 -71.228 Q56.635 -70.932 56.216 -70.932 H38.464 Z M47.34 -2.486 Q41.469 -2.486 36.374 -4.657 Q31.28 -6.827 27.476 -10.632 Q23.671 -14.436 21.501 -19.53 Q19.331 -24.625 19.331 -30.496 Q19.331 -36.367 21.501 -41.462 Q23.671 -46.556 27.476 -50.36 Q31.28 -54.165 36.374 -56.335 Q41.469 -58.505 47.297 -58.505 Q52.551 -58.505 57.49 -56.484 Q62.43 -54.462 66.375 -51.01 L69.263 -53.898 Q69.629 -54.265 69.876 -54.265 Q70.122 -54.265 70.615 -53.771 Q71.109 -53.278 71.109 -53.081 Q71.109 -52.884 70.615 -52.391 L67.854 -49.531 Q71.306 -45.684 73.328 -40.723 Q75.35 -35.761 75.35 -30.482 Q75.35 -24.625 73.179 -19.53 Q71.009 -14.436 67.204 -10.632 Q63.4 -6.827 58.306 -4.657 Q53.211 -2.486 47.34 -2.486 Z"/></g></g></svg>