<svg xmlns="http://www.w3.org/2000/svg" version="1.1" width="3300" height="2000"><g id="Notes"><style>
    text {
      font-family: monospace;
      text-anchor: middle;
    }
    text.emphasis {
      font-weight:bold;
    }
    text.lanchor {
      text-anchor: start;
    }
  </style><rect height="2200" id="artboard" fill="white" width="3300" x="0" y="0"/><line id="" style="fill:none;stroke:black;stroke-width:0.5;" x1="263" x2="3036" y1="292" y2="292"/><text class="lanchor emphasis" transform="matrix(1 0 0 1 263 322)">Weight/Scale Variations</text><text transform="matrix(1 0 0 1 559.711 322)">Ultralight</text><text transform="matrix(1 0 0 1 856.422 322)">Thin</text><text transform="matrix(1 0 0 1 1153.13 322)">Light</text><text transform="matrix(1 0 0 1 1449.84 322)">Regular</text><text transform="matrix(1 0 0 1 1746.56 322)">Medium</text><text transform="matrix(1 0 0 1 2043.27 322)">Semibold</text><text transform="matrix(1 0 0 1 2339.98 322)">Bold</text><text transform="matrix(1 0 0 1 2636.69 322)">Heavy</text><text transform="matrix(1 0 0 1 2933.4 322)">Black</text><text id="template-version" style="text-anchor: end;" transform="matrix(1 0 0 1 3036 1933)">Template v.1.0</text><text class="lanchor" transform="matrix(1 0 0 1 263 726)">Small</text><text class="lanchor" transform="matrix(1 0 0 1 263 1156)">Medium</text><text class="lanchor" transform="matrix(1 0 0 1 263 1586)">Large</text></g><g id="Guides"><g id="H-reference" style="fill:#27AAE1;stroke:none;" transform="matrix(1 0 0 1 339 696)"><path d="M 54.9316 0 L 57.666 0 L 30.5664 -70.459 L 28.0762 -70.459 L 0.976562 0 L 3.66211 0 L 12.9395 -24.4629 L 45.7031 -24.4629 Z M 29.1992 -67.0898 L 29.4434 -67.0898 L 44.8242 -26.709 L 13.8184 -26.709 Z"/></g><line id="Baseline-S" style="fill:none;stroke:#27AAE1;opacity:1;stroke-width:0.577;" x1="263" x2="3036" y1="696" y2="696"/><line id="Capline-S" style="fill:none;stroke:#27AAE1;opacity:1;stroke-width:0.577;" x1="263" x2="3036" y1="625.541" y2="625.541"/><g id="H-reference" style="fill:#27AAE1;stroke:none;" transform="matrix(1 0 0 1 339 1126)"><path d="M 54.9316 0 L 57.666 0 L 30.5664 -70.459 L 28.0762 -70.459 L 0.976562 0 L 3.66211 0 L 12.9395 -24.4629 L 45.7031 -24.4629 Z M 29.1992 -67.0898 L 29.4434 -67.0898 L 44.8242 -26.709 L 13.8184 -26.709 Z"/></g><line id="Baseline-M" style="fill:none;stroke:#27AAE1;opacity:1;stroke-width:0.577;" x1="263" x2="3036" y1="1126" y2="1126"/><line id="Capline-M" style="fill:none;stroke:#27AAE1;opacity:1;stroke-width:0.577;" x1="263" x2="3036" y1="1055.54" y2="1055.54"/><g id="H-reference" style="fill:#27AAE1;stroke:none;" transform="matrix(1 0 0 1 339 1556)"><path d="M 54.9316 0 L 57.666 0 L 30.5664 -70.459 L 28.0762 -70.459 L 0.976562 0 L 3.66211 0 L 12.9395 -24.4629 L 45.7031 -24.4629 Z M 29.1992 -67.0898 L 29.4434 -67.0898 L 44.8242 -26.709 L 13.8184 -26.709 Z"/></g><line id="Baseline-L" style="fill:none;stroke:#27AAE1;opacity:1;stroke-width:0.577;" x1="263" x2="3036" y1="1556" y2="1556"/><line id="Capline-L" style="fill:none;stroke:#27AAE1;opacity:1;stroke-width:0.577;" x1="263" x2="3036" y1="1485.54" y2="1485.54"/><rect height="119.336" id="left-margin" style="fill:darkred;stroke:none;opacity:0.4;" width="12.4512" x="1394.06" y="1030.79"/><rect height="119.336" id="right-margin" style="fill:darkgreen;stroke:none;opacity:0.4;" width="12.4512" x="1502.5112" y="1030.79"/><rect x="1406.5112" y="1045" width="96" height="96" fill="none" stroke="blue" stroke-dasharray="5"/><rect x="1394.06" y="1030.79" width="120.9024" height="119.336" fill="none" stroke="blue"/></g><g id="Symbols"><g id="Bold-L" transform="matrix(1 0 0 1 2266 1556)"><path d="M8.869 20.401 V-20.234 Q14.513 -21.362 18.624 -25.474 Q22.736 -29.586 22.736 -35.23 Q22.736 -41.196 18.624 -45.227 Q14.513 -49.259 8.869 -50.387 V-91.022 H146.093 V20.401 H8.869 Z M24.026 5.244 H130.774 V-75.704 H24.026 V-60.224 Q30.476 -56.031 34.185 -49.477 Q37.894 -42.922 37.894 -35.287 Q37.894 -27.651 34.185 -21.121 Q30.476 -14.59 24.026 -10.236 V5.244 Z M56.76 -10.236  116.1 -26.522 Q118.761 -27.329 120.01 -29.022 Q121.26 -30.715 120.534 -33.617 Q119.809 -36.359 117.713 -37.407 Q115.616 -38.455 113.036 -37.81 L96.428 -33.456 L69.66 -59.579 L61.275 -57.644 L77.884 -28.457 L59.985 -23.459 L51.6 -30.392 L46.924 -28.78 L56.76 -10.236 Z"/></g><g id="Semibold-L" transform="matrix(1 0 0 1 1970.27 1556)"><path d="M10.621 18.649 V-19.252 Q16.405 -20.451 20.447 -24.843 Q24.489 -29.236 24.489 -35.23 Q24.489 -41.407 20.447 -45.788 Q16.405 -50.17 10.621 -51.299 V-89.2 H144.27 V18.649 H10.621 Z M23.395 5.875 H131.405 V-76.335 H23.395 V-59.943 Q29.775 -55.751 33.519 -49.312 Q37.263 -42.873 37.263 -35.262 Q37.263 -27.651 33.519 -21.226 Q29.775 -14.8 23.395 -10.517 V5.875 Z M56.48 -10.236  115.82 -26.522 Q118.515 -27.329 119.782 -29.057 Q121.05 -30.785 120.289 -33.617 Q119.528 -36.359 117.432 -37.407 Q115.336 -38.455 112.756 -37.81 L96.147 -33.456 L69.38 -59.579 L60.995 -57.644 L77.603 -28.457 L59.705 -23.459 L51.32 -30.392 L46.643 -28.78 L56.48 -10.236 Z"/></g><g id="Medium-L" transform="matrix(1 0 0 1 1674.31 1556)"><path d="M11.936 17.334 V-18.516 Q17.825 -19.768 21.814 -24.37 Q25.804 -28.973 25.804 -35.23 Q25.804 -41.564 21.814 -46.209 Q17.825 -50.854 11.936 -51.982 V-87.833 H142.903 V17.334 H11.936 Z M22.922 6.348 H131.878 V-76.808 H22.922 V-59.733 Q29.249 -55.541 33.019 -49.188 Q36.79 -42.836 36.79 -35.244 Q36.79 -27.651 33.019 -21.305 Q29.249 -14.958 22.922 -10.727 V6.348 Z M56.269 -10.236  115.609 -26.522 Q118.331 -27.329 119.612 -29.083 Q120.892 -30.838 120.105 -33.617 Q119.318 -36.359 117.222 -37.407 Q115.126 -38.455 112.546 -37.81 L95.937 -33.456 L69.169 -59.579 L60.784 -57.644 L77.393 -28.457 L59.494 -23.459 L51.109 -30.392 L46.433 -28.78 L56.269 -10.236 Z"/></g><g id="Regular-L" transform="matrix(1 0 0 1 1378.56 1556)"><path d="M12.9 16.37 V-17.976 Q18.866 -19.266 22.817 -24.023 Q26.768 -28.78 26.768 -35.23 Q26.768 -41.68 22.817 -46.517 Q18.866 -51.355 12.9 -52.484 V-86.83 H141.9 V16.37 H12.9 Z M22.575 6.695 H132.225 V-77.155 H22.575 V-59.579 Q28.864 -55.386 32.653 -49.097 Q36.443 -42.809 36.443 -35.23 Q36.443 -27.651 32.653 -21.362 Q28.864 -15.074 22.575 -10.881 V6.695 Z M56.115 -10.236  115.455 -26.522 Q118.196 -27.329 119.486 -29.102 Q120.776 -30.876 119.97 -33.617 Q119.164 -36.359 117.068 -37.407 Q114.971 -38.455 112.391 -37.81 L95.782 -33.456 L69.015 -59.579 L60.63 -57.644 L77.239 -28.457 L59.34 -23.459 L50.955 -30.392 L46.279 -28.78 L56.115 -10.236 Z"/></g><g id="Light-L" transform="matrix(1 0 0 1 1082.77 1556)"><path d="M16.125 13.145 V-16.55 Q22.091 -18.584 25.918 -23.62 Q29.745 -28.656 29.745 -35.23 Q29.745 -41.804 25.918 -46.921 Q22.091 -52.037 16.125 -53.91 V-83.605 H138.675 V13.145 H16.125 Z M23.443 5.827 H131.357 V-76.287 H23.443 V-59.021 Q29.67 -55.014 33.366 -48.818 Q37.063 -42.623 37.063 -35.23 Q37.063 -27.837 33.366 -21.642 Q29.67 -15.446 23.443 -11.439 V5.827 Z M56.611 -11.353  114.835 -27.205 Q117.328 -27.949 118.649 -29.599 Q119.97 -31.248 119.226 -33.742 Q118.544 -36.235 116.54 -37.128 Q114.537 -38.021 112.205 -37.438 L95.596 -33.022 L69.077 -58.648 L61.622 -56.962 L77.921 -28.333 L59.588 -23.397 L51.265 -30.144 L47.333 -28.78 L56.611 -11.353 Z"/></g><g id="Thin-L" transform="matrix(1 0 0 1 787.282 1556)"><path d="M19.35 9.92 V-15.123 Q25.316 -17.902 29.019 -23.217 Q32.721 -28.532 32.721 -35.23 Q32.721 -41.928 29.019 -47.324 Q25.316 -52.719 19.35 -55.337 V-80.38 H135.45 V9.92 H19.35 Z M24.312 4.958 H130.488 V-75.418 H24.312 V-58.462 Q30.476 -54.642 34.08 -48.539 Q37.683 -42.437 37.683 -35.23 Q37.683 -28.023 34.08 -21.921 Q30.476 -15.818 24.312 -11.998 V4.958 Z M57.107 -12.469  114.215 -27.887 Q116.46 -28.569 117.812 -30.095 Q119.164 -31.62 118.482 -33.866 Q117.923 -36.111 116.013 -36.849 Q114.103 -37.587 112.019 -37.066 L95.41 -32.588 L69.139 -57.718 L62.615 -56.279 L78.603 -28.209 L59.836 -23.335 L51.575 -29.896 L48.387 -28.78 L57.107 -12.469 Z"/></g><g id="Ultralight-L" transform="matrix(1 0 0 1 491.205 1556)"><path d="M21.285 7.985 V-14.267 Q27.251 -17.492 30.879 -22.975 Q34.508 -28.457 34.508 -35.23 Q34.508 -42.002 30.879 -47.566 Q27.251 -53.129 21.285 -56.192 V-78.445 H133.515 V7.985 H21.285 Z M24.832 4.438 H129.968 V-74.897 H24.832 V-58.127 Q30.96 -54.419 34.508 -48.372 Q38.055 -42.325 38.055 -35.23 Q38.055 -28.135 34.508 -22.088 Q30.96 -16.041 24.832 -12.332 V4.438 Z M57.405 -13.139  113.843 -28.296 Q115.939 -28.941 117.309 -30.392 Q118.68 -31.844 118.035 -33.94 Q117.551 -36.036 115.697 -36.681 Q113.843 -37.326 111.907 -36.842 L95.299 -32.327 L69.176 -57.16 L63.21 -55.87 L79.013 -28.135 L59.985 -23.297 L51.761 -29.747 L49.02 -28.78 L57.405 -13.139 Z"/></g><g id="Bold-M" transform="matrix(1 0 0 1 2281.8 1126)"><path d="M5.75 9.02 V-27.48 Q9.75 -27.48 12.75 -29.667 Q15.75 -31.855 15.75 -35.23 Q15.75 -38.855 12.75 -40.917 Q9.75 -42.98 5.75 -42.98 V-79.48 H114.25 V9.02 H5.75 Z M21.5 -6.73 H98.5 V-63.73 H21.5 V-53.105 Q26.25 -50.23 28.875 -45.524 Q31.5 -40.818 31.5 -35.274 Q31.5 -29.73 28.875 -24.98 Q26.25 -20.23 21.5 -17.355 V-6.73 Z M44.875 -16.98  89.375 -28.73 Q91.25 -29.23 92.188 -30.98 Q93.125 -32.73 92.625 -34.73 Q92.125 -36.605 90.438 -37.542 Q88.75 -38.48 86.875 -37.98 L74.625 -34.73 L54.625 -53.48 L47.625 -51.73 L59.625 -30.73 L47.625 -27.73 L41.375 -32.48 L36.625 -31.23 L44.875 -16.98 Z"/></g><g id="Semibold-M" transform="matrix(1 0 0 1 1985.97 1126)"><path d="M7.598 7.172 V-26.502 Q11.652 -26.502 14.625 -29.015 Q17.598 -31.529 17.598 -35.23 Q17.598 -39.072 14.625 -41.515 Q11.652 -43.958 7.598 -43.958 V-77.632 H112.402 V7.172 H7.598 Z M20.848 -6.078 H99.152 V-64.382 H20.848 V-52.833 Q25.544 -50.013 28.196 -45.369 Q30.848 -40.725 30.848 -35.255 Q30.848 -29.784 28.196 -25.116 Q25.544 -20.447 20.848 -17.627 V-6.078 Z M44.603 -16.98  89.103 -28.73 Q90.978 -29.23 91.916 -31.007 Q92.853 -32.784 92.353 -34.73 Q91.853 -36.605 90.166 -37.542 Q88.478 -38.48 86.603 -37.98 L74.353 -34.73 L54.353 -53.48 L47.353 -51.73 L59.353 -30.73 L47.353 -27.73 L41.103 -32.48 L36.353 -31.23 L44.603 -16.98 Z"/></g><g id="Medium-M" transform="matrix(1 0 0 1 1689.91 1126)"><path d="M8.984 5.786 V-25.768 Q13.079 -25.768 16.031 -28.526 Q18.984 -31.284 18.984 -35.23 Q18.984 -39.235 16.031 -41.964 Q13.079 -44.692 8.984 -44.692 V-76.246 H111.016 V5.786 H8.984 Z M20.359 -5.589 H99.641 V-64.871 H20.359 V-52.629 Q25.014 -49.85 27.686 -45.253 Q30.359 -40.656 30.359 -35.24 Q30.359 -29.825 27.686 -25.218 Q25.014 -20.61 20.359 -17.83 V-5.589 Z M44.4 -16.98  88.9 -28.73 Q90.775 -29.23 91.712 -31.027 Q92.65 -32.825 92.15 -34.73 Q91.65 -36.605 89.962 -37.542 Q88.275 -38.48 86.4 -37.98 L74.15 -34.73 L54.15 -53.48 L47.15 -51.73 L59.15 -30.73 L47.15 -27.73 L40.9 -32.48 L36.15 -31.23 L44.4 -16.98 Z"/></g><g id="Regular-M" transform="matrix(1 0 0 1 1394.06 1126)"><path d="M10 4.77 V-25.23 Q14.125 -25.23 17.062 -28.167 Q20 -31.105 20 -35.23 Q20 -39.355 17.062 -42.292 Q14.125 -45.23 10 -45.23 V-75.23 H110 V4.77 H10 Z M20 -5.23 H100 V-65.23 H20 V-52.48 Q24.625 -49.73 27.312 -45.167 Q30 -40.605 30 -35.23 Q30 -29.855 27.312 -25.292 Q24.625 -20.73 20 -17.98 V-5.23 Z M44.25 -16.98  88.75 -28.73 Q90.625 -29.23 91.562 -31.042 Q92.5 -32.855 92 -34.73 Q91.5 -36.605 89.812 -37.542 Q88.125 -38.48 86.25 -37.98 L74 -34.73 L54 -53.48 L47 -51.73 L59 -30.73 L47 -27.73 L40.75 -32.48 L36 -31.23 L44.25 -16.98 Z"/></g><g id="Light-M" transform="matrix(1 0 0 1 1098.18 1126)"><path d="M12.5 2.27 V-23.211 Q16.769 -24.028 19.635 -27.398 Q22.5 -30.768 22.5 -35.23 Q22.5 -39.692 19.635 -43.062 Q16.769 -46.432 12.5 -47.249 V-72.73 H107.5 V2.27 H12.5 Z M20 -5.23 H100 V-65.23 H20 V-52.48 Q24.625 -49.73 27.312 -45.167 Q30 -40.605 30 -35.23 Q30 -29.855 27.312 -25.292 Q24.625 -20.73 20 -17.98 V-5.23 Z M44.442 -17.557  88.462 -29.211 Q90.24 -29.663 91.202 -31.283 Q92.163 -32.903 91.712 -34.634 Q91.26 -36.365 89.668 -37.158 Q88.077 -37.951 86.346 -37.499 L73.904 -34.153 L53.904 -52.903 L47.769 -51.441 L59.769 -30.441 L46.904 -27.249 L40.654 -31.999 L36.769 -30.941 L44.442 -17.557 Z"/></g><g id="Thin-M" transform="matrix(1 0 0 1 802.565 1126)"><path d="M15 -0.23 V-21.192 Q19.413 -22.826 22.207 -26.629 Q25 -30.432 25 -35.23 Q25 -40.028 22.207 -43.831 Q19.413 -47.634 15 -49.268 V-70.23 H105 V-0.23 H15 Z M20 -5.23 H100 V-65.23 H20 V-52.48 Q24.625 -49.73 27.312 -45.167 Q30 -40.605 30 -35.23 Q30 -29.855 27.312 -25.292 Q24.625 -20.73 20 -17.98 V-5.23 Z M44.635 -18.134  88.173 -29.691 Q89.856 -30.095 90.841 -31.523 Q91.827 -32.951 91.423 -34.538 Q91.019 -36.124 89.524 -36.773 Q88.029 -37.422 86.442 -37.018 L73.808 -33.576 L53.808 -52.326 L48.538 -51.153 L60.538 -30.153 L46.808 -26.768 L40.558 -31.518 L37.538 -30.653 L44.635 -18.134 Z"/></g><g id="Ultralight-M" transform="matrix(1 0 0 1 506.415 1126)"><path d="M16.5 -1.73 V-19.98 Q21 -22.105 23.75 -26.167 Q26.5 -30.23 26.5 -35.23 Q26.5 -40.23 23.75 -44.292 Q21 -48.355 16.5 -50.48 V-68.73 H103.5 V-1.73 H16.5 Z M20 -5.23 H100 V-65.23 H20 V-52.48 Q24.625 -49.73 27.312 -45.167 Q30 -40.605 30 -35.23 Q30 -29.855 27.312 -25.292 Q24.625 -20.73 20 -17.98 V-5.23 Z M44.75 -18.48  88 -29.98 Q89.625 -30.355 90.625 -31.667 Q91.625 -32.98 91.25 -34.48 Q90.875 -35.98 89.438 -36.542 Q88 -37.105 86.5 -36.73 L73.75 -33.23 L53.75 -51.98 L49 -50.98 L61 -29.98 L46.75 -26.48 L40.5 -31.23 L38 -30.48 L44.75 -18.48 Z"/></g><g id="Bold-S" transform="matrix(1 0 0 1 2294.23 696)"><path d="M6.115 -3.473 V-29.904 Q8.945 -29.904 11.081 -31.405 Q13.216 -32.905 13.216 -35.251 Q13.216 -37.794 11.081 -39.187 Q8.945 -40.581 6.115 -40.581 V-66.987 H88.565 V-3.473 H6.115 Z M17.753 -15.11 H76.928 V-55.349 H17.753 V-48.051 Q21.007 -46.079 22.93 -42.711 Q24.854 -39.343 24.854 -35.265 Q24.854 -31.186 22.93 -27.784 Q21.007 -24.381 17.753 -22.409 V-15.11 Z M36.195 -21.718  68.84 -30.496 Q70.32 -30.989 71.059 -32.173 Q71.799 -33.356 71.404 -34.835 Q71.01 -36.216 69.742 -37.005 Q68.474 -37.794 67.065 -37.4 L58.09 -34.934 L43.198 -48.742 L38.069 -47.262 L46.946 -31.975 L38.126 -29.608 L33.532 -33.257 L30.081 -32.37 L36.195 -21.718 Z"/></g><g id="Semibold-S" transform="matrix(1 0 0 1 1998.1 696)"><path d="M7.573 -4.931 V-29.132 Q10.446 -29.132 12.56 -30.89 Q14.674 -32.648 14.674 -35.251 Q14.674 -37.966 12.56 -39.659 Q10.446 -41.352 7.573 -41.352 V-65.529 H87.107 V-4.931 H7.573 Z M17.238 -14.596 H77.442 V-55.864 H17.238 V-47.837 Q20.45 -45.907 22.394 -42.589 Q24.339 -39.27 24.339 -35.25 Q24.339 -31.229 22.394 -27.891 Q20.45 -24.553 17.238 -22.623 V-14.596 Z M35.981 -21.718  68.626 -30.496 Q70.105 -30.989 70.845 -32.194 Q71.585 -33.399 71.19 -34.835 Q70.796 -36.216 69.528 -37.005 Q68.26 -37.794 66.851 -37.4 L57.876 -34.934 L42.983 -48.742 L37.855 -47.262 L46.731 -31.975 L37.912 -29.608 L33.318 -33.257 L29.866 -32.37 L35.981 -21.718 Z"/></g><g id="Medium-S" transform="matrix(1 0 0 1 1701.85 696)"><path d="M8.666 -6.024 V-28.553 Q11.572 -28.553 13.669 -30.504 Q15.767 -32.455 15.767 -35.251 Q15.767 -38.094 13.669 -40.013 Q11.572 -41.931 8.666 -41.931 V-64.436 H86.014 V-6.024 H8.666 Z M16.852 -14.21 H77.828 V-56.25 H16.852 V-47.676 Q20.032 -45.779 21.992 -42.497 Q23.953 -39.215 23.953 -35.238 Q23.953 -31.261 21.992 -27.971 Q20.032 -24.681 16.852 -22.784 V-14.21 Z M35.82 -21.718  68.465 -30.496 Q69.944 -30.989 70.684 -32.21 Q71.424 -33.431 71.029 -34.835 Q70.635 -36.216 69.367 -37.005 Q68.099 -37.794 66.69 -37.4 L57.715 -34.934 L42.823 -48.742 L37.694 -47.262 L46.57 -31.975 L37.751 -29.608 L33.157 -33.257 L29.705 -32.37 L35.82 -21.718 Z"/></g><g id="Regular-S" transform="matrix(1 0 0 1 1405.73 696)"><path d="M9.468 -6.826 V-28.129 Q12.397 -28.129 14.483 -30.221 Q16.569 -32.313 16.569 -35.251 Q16.569 -38.189 14.483 -40.272 Q12.397 -42.356 9.468 -42.356 V-63.634 H85.212 V-6.826 H9.468 Z M16.569 -13.927 H78.111 V-56.533 H16.569 V-47.558 Q19.725 -45.684 21.698 -42.43 Q23.67 -39.175 23.67 -35.23 Q23.67 -31.285 21.698 -28.03 Q19.725 -24.776 16.569 -22.902 V-13.927 Z M35.702 -21.718  68.347 -30.496 Q69.827 -30.989 70.566 -32.222 Q71.306 -33.455 70.911 -34.835 Q70.517 -36.216 69.249 -37.005 Q67.981 -37.794 66.572 -37.4 L57.597 -34.934 L42.705 -48.742 L37.576 -47.262 L46.452 -31.975 L37.633 -29.608 L33.039 -33.257 L29.588 -32.37 L35.702 -21.718 Z"/></g><g id="Light-S" transform="matrix(1 0 0 1 1109.75 696)"><path d="M11.441 -8.799 V-26.536 Q14.484 -27.181 16.513 -29.614 Q18.542 -32.048 18.542 -35.251 Q18.542 -38.454 16.513 -40.879 Q14.484 -43.304 11.441 -43.949 V-61.661 H83.239 V-8.799 H11.441 Z M16.569 -13.927 H78.111 V-56.533 H16.569 V-47.558 Q19.725 -45.684 21.698 -42.43 Q23.67 -39.175 23.67 -35.23 Q23.67 -31.285 21.698 -28.03 Q19.725 -24.776 16.569 -22.902 V-13.927 Z M35.854 -22.174  68.119 -30.875 Q69.523 -31.331 70.282 -32.412 Q71.04 -33.493 70.684 -34.76 Q70.327 -36.027 69.135 -36.702 Q67.943 -37.377 66.648 -37.02 L57.521 -34.479 L42.629 -48.286 L38.183 -47.035 L47.059 -31.748 L37.557 -29.229 L32.964 -32.878 L30.194 -32.142 L35.854 -22.174 Z"/></g><g id="Thin-S" transform="matrix(1 0 0 1 814.015 696)"><path d="M13.413 -10.771 V-24.943 Q16.57 -26.232 18.542 -29.007 Q20.514 -31.782 20.514 -35.251 Q20.514 -38.72 18.542 -41.486 Q16.57 -44.252 13.413 -45.542 V-59.689 H81.267 V-10.771 H13.413 Z M16.569 -13.927 H78.111 V-56.533 H16.569 V-47.558 Q19.725 -45.684 21.698 -42.43 Q23.67 -39.175 23.67 -35.23 Q23.67 -31.285 21.698 -28.03 Q19.725 -24.776 16.569 -22.902 V-13.927 Z M36.006 -22.629  67.892 -31.255 Q69.22 -31.672 69.997 -32.601 Q70.775 -33.531 70.456 -34.684 Q70.138 -35.837 69.021 -36.398 Q67.905 -36.96 66.724 -36.641 L57.445 -34.024 L42.553 -47.831 L38.79 -46.807 L47.666 -31.52 L37.481 -28.85 L32.888 -32.499 L30.801 -31.915 L36.006 -22.629 Z"/></g><g id="Ultralight-S" transform="matrix(1 0 0 1 517.792 696)"><path d="M14.597 -11.954 V-23.987 Q17.822 -25.663 19.76 -28.643 Q21.698 -31.623 21.698 -35.251 Q21.698 -38.879 19.76 -41.85 Q17.822 -44.821 14.597 -46.498 V-58.505 H80.084 V-11.954 H14.597 Z M16.569 -13.927 H78.111 V-56.533 H16.569 V-47.558 Q19.725 -45.684 21.698 -42.43 Q23.67 -39.175 23.67 -35.23 Q23.67 -31.285 21.698 -28.03 Q19.725 -24.776 16.569 -22.902 V-13.927 Z M36.097 -22.902  67.755 -31.482 Q69.038 -31.877 69.827 -32.715 Q70.615 -33.553 70.32 -34.638 Q70.024 -35.723 68.953 -36.216 Q67.882 -36.709 66.769 -36.413 L57.4 -33.751 L42.507 -47.558 L39.154 -46.67 L48.03 -31.384 L37.436 -28.622 L32.842 -32.271 L31.166 -31.778 L36.097 -22.902 Z"/></g></g></svg>