<svg xmlns="http://www.w3.org/2000/svg" version="1.1" width="3300" height="2000"><g id="Notes"><style>
    text {
      font-family: monospace;
      text-anchor: middle;
    }
    text.emphasis {
      font-weight:bold;
    }
    text.lanchor {
      text-anchor: start;
    }
  </style><rect height="2200" id="artboard" fill="white" width="3300" x="0" y="0"/><line id="" style="fill:none;stroke:black;stroke-width:0.5;" x1="263" x2="3036" y1="292" y2="292"/><text class="lanchor emphasis" transform="matrix(1 0 0 1 263 322)">Weight/Scale Variations</text><text transform="matrix(1 0 0 1 559.711 322)">Ultralight</text><text transform="matrix(1 0 0 1 856.422 322)">Thin</text><text transform="matrix(1 0 0 1 1153.13 322)">Light</text><text transform="matrix(1 0 0 1 1449.84 322)">Regular</text><text transform="matrix(1 0 0 1 1746.56 322)">Medium</text><text transform="matrix(1 0 0 1 2043.27 322)">Semibold</text><text transform="matrix(1 0 0 1 2339.98 322)">Bold</text><text transform="matrix(1 0 0 1 2636.69 322)">Heavy</text><text transform="matrix(1 0 0 1 2933.4 322)">Black</text><text id="template-version" style="text-anchor: end;" transform="matrix(1 0 0 1 3036 1933)">Template v.1.0</text><text class="lanchor" transform="matrix(1 0 0 1 263 726)">Small</text><text class="lanchor" transform="matrix(1 0 0 1 263 1156)">Medium</text><text class="lanchor" transform="matrix(1 0 0 1 263 1586)">Large</text></g><g id="Guides"><g id="H-reference" style="fill:#27AAE1;stroke:none;" transform="matrix(1 0 0 1 339 696)"><path d="M 54.9316 0 L 57.666 0 L 30.5664 -70.459 L 28.0762 -70.459 L 0.976562 0 L 3.66211 0 L 12.9395 -24.4629 L 45.7031 -24.4629 Z M 29.1992 -67.0898 L 29.4434 -67.0898 L 44.8242 -26.709 L 13.8184 -26.709 Z"/></g><line id="Baseline-S" style="fill:none;stroke:#27AAE1;opacity:1;stroke-width:0.577;" x1="263" x2="3036" y1="696" y2="696"/><line id="Capline-S" style="fill:none;stroke:#27AAE1;opacity:1;stroke-width:0.577;" x1="263" x2="3036" y1="625.541" y2="625.541"/><g id="H-reference" style="fill:#27AAE1;stroke:none;" transform="matrix(1 0 0 1 339 1126)"><path d="M 54.9316 0 L 57.666 0 L 30.5664 -70.459 L 28.0762 -70.459 L 0.976562 0 L 3.66211 0 L 12.9395 -24.4629 L 45.7031 -24.4629 Z M 29.1992 -67.0898 L 29.4434 -67.0898 L 44.8242 -26.709 L 13.8184 -26.709 Z"/></g><line id="Baseline-M" style="fill:none;stroke:#27AAE1;opacity:1;stroke-width:0.577;" x1="263" x2="3036" y1="1126" y2="1126"/><line id="Capline-M" style="fill:none;stroke:#27AAE1;opacity:1;stroke-width:0.577;" x1="263" x2="3036" y1="1055.54" y2="1055.54"/><g id="H-reference" style="fill:#27AAE1;stroke:none;" transform="matrix(1 0 0 1 339 1556)"><path d="M 54.9316 0 L 57.666 0 L 30.5664 -70.459 L 28.0762 -70.459 L 0.976562 0 L 3.66211 0 L 12.9395 -24.4629 L 45.7031 -24.4629 Z M 29.1992 -67.0898 L 29.4434 -67.0898 L 44.8242 -26.709 L 13.8184 -26.709 Z"/></g><line id="Baseline-L" style="fill:none;stroke:#27AAE1;opacity:1;stroke-width:0.577;" x1="263" x2="3036" y1="1556" y2="1556"/><line id="Capline-L" style="fill:none;stroke:#27AAE1;opacity:1;stroke-width:0.577;" x1="263" x2="3036" y1="1485.54" y2="1485.54"/><rect height="119.336" id="left-margin" style="fill:darkred;stroke:none;opacity:0.4;" width="12.4512" x="1394.06" y="1030.79"/><rect height="119.336" id="right-margin" style="fill:darkgreen;stroke:none;opacity:0.4;" width="12.4512" x="1502.5112" y="1030.79"/><rect x="1406.5112" y="1045" width="96" height="96" fill="none" stroke="blue" stroke-dasharray="5"/><rect x="1394.06" y="1030.79" width="120.9024" height="119.336" fill="none" stroke="blue"/></g><g id="Symbols"><g id="Bold-L" transform="matrix(1 0 0 1 2266 1556)"><path d="M77.4 32.656 Q63.268 32.656 50.638 27.479 Q38.007 22.303 28.937 13.233 Q19.867 4.163 14.691 -8.468 Q9.514 -21.098 9.514 -35.23 Q9.514 -49.564 14.7 -61.989 Q19.886 -74.414 28.999 -83.587 Q38.111 -92.761 50.699 -98.019 Q63.287 -103.277 77.4 -103.277 Q91.733 -103.277 104.164 -98.022 Q116.594 -92.766 125.765 -83.595 Q134.936 -74.424 140.192 -61.989 Q145.447 -49.554 145.447 -35.217 Q145.447 -21.04 140.189 -8.491 Q134.931 4.059 125.757 13.171 Q116.584 22.284 104.159 27.47 Q91.734 32.656 77.4 32.656 Z M47.407 -40.39  56.438 -49.581  65.468 -40.39  72.401 -47.162  63.21 -56.192  72.401 -65.222  65.468 -72.156  56.438 -62.965  47.407 -72.156  40.635 -65.222  49.826 -56.192  40.635 -47.162  47.407 -40.39 Z M77.265 17.983 Q99.975 17.983 115.294 2.772 Q130.613 -12.439 130.613 -35.285 Q130.613 -46.517 126.592 -56.187 Q122.571 -65.855 115.388 -73.285 L39.345 2.758 Q46.594 9.93 56.251 13.956 Q65.908 17.983 77.265 17.983 Z M90.623 0.729  75.304 -14.59  81.915 -21.524  90.623 -12.816  106.748 -28.78  113.52 -22.007  90.623 0.729 Z"/></g><g id="Semibold-L" transform="matrix(1 0 0 1 1970.27 1556)"><path d="M77.4 32.306 Q63.268 32.306 50.777 27.135 Q38.286 21.964 29.246 12.924 Q20.206 3.884 15.035 -8.607 Q9.864 -21.098 9.864 -35.23 Q9.864 -49.494 15.045 -61.85 Q20.225 -74.205 29.296 -83.316 Q38.367 -92.426 50.827 -97.641 Q63.287 -102.857 77.4 -102.857 Q91.663 -102.857 104.021 -97.643 Q116.379 -92.429 125.489 -83.319 Q134.599 -74.209 139.813 -61.847 Q145.027 -49.484 145.027 -35.217 Q145.027 -21.04 139.811 -8.619 Q134.596 3.803 125.486 12.874 Q116.375 21.945 104.02 27.125 Q91.664 32.306 77.4 32.306 Z M47.407 -40.46  56.438 -49.651  65.468 -40.46  72.331 -47.162  63.14 -56.192  72.331 -65.222  65.468 -72.086  56.438 -62.895  47.407 -72.086  40.705 -65.222  49.896 -56.192  40.705 -47.162  47.407 -40.46 Z M77.3 18.894 Q100.396 18.894 115.96 3.391 Q131.524 -12.112 131.524 -35.285 Q131.524 -46.728 127.428 -56.575 Q123.333 -66.422 116.048 -73.916 L38.784 3.348 Q46.075 10.622 55.931 14.758 Q65.787 18.894 77.3 18.894 Z M90.623 0.659  75.374 -14.59  81.915 -21.454  90.623 -12.746  106.748 -28.71  113.45 -22.007  90.623 0.659 Z"/></g><g id="Medium-L" transform="matrix(1 0 0 1 1674.31 1556)"><path d="M77.4 32.043 Q63.268 32.043 50.882 26.876 Q38.495 21.71 29.478 12.692 Q20.46 3.675 15.294 -8.712 Q10.127 -21.098 10.127 -35.23 Q10.127 -49.442 15.303 -61.745 Q20.479 -74.049 29.519 -83.112 Q38.559 -92.174 50.923 -97.358 Q63.287 -102.541 77.4 -102.541 Q91.61 -102.541 103.914 -97.358 Q116.218 -92.176 125.282 -83.112 Q134.346 -74.048 139.528 -61.74 Q144.711 -49.432 144.711 -35.217 Q144.711 -21.04 139.528 -8.715 Q134.344 3.611 125.282 12.651 Q116.219 21.691 103.915 26.867 Q91.612 32.043 77.4 32.043 Z M47.407 -40.513  56.438 -49.704  65.468 -40.513  72.279 -47.162  63.087 -56.192  72.279 -65.222  65.468 -72.034  56.438 -62.842  47.407 -72.034  40.758 -65.222  49.949 -56.192  40.758 -47.162  47.407 -40.513 Z M77.326 19.577 Q100.711 19.577 116.459 3.855 Q132.207 -11.867 132.207 -35.285 Q132.207 -46.886 128.056 -56.866 Q123.904 -66.846 116.543 -74.389 L38.363 3.79 Q45.686 11.141 55.691 15.359 Q65.696 19.577 77.326 19.577 Z M90.623 0.606  75.426 -14.59  81.915 -21.401  90.623 -12.694  106.748 -28.657  113.397 -22.007  90.623 0.606 Z"/></g><g id="Regular-L" transform="matrix(1 0 0 1 1378.56 1556)"><path d="M77.4 31.85 Q63.268 31.85 50.958 26.687 Q38.648 21.524 29.647 12.523 Q20.646 3.522 15.483 -8.788 Q10.32 -21.098 10.32 -35.23 Q10.32 -49.403 15.493 -61.669 Q20.665 -73.934 29.683 -82.962 Q38.7 -91.99 50.993 -97.15 Q63.287 -102.31 77.4 -102.31 Q91.572 -102.31 103.836 -97.15 Q116.1 -91.99 125.13 -82.96 Q134.16 -73.93 139.32 -61.662 Q144.48 -49.393 144.48 -35.217 Q144.48 -21.04 139.32 -8.785 Q134.16 3.47 125.132 12.487 Q116.104 21.505 103.839 26.677 Q91.573 31.85 77.4 31.85 Z M47.407 -40.551  56.438 -49.742  65.468 -40.551  72.24 -47.162  63.049 -56.192  72.24 -65.222  65.468 -71.995  56.438 -62.804  47.407 -71.995  40.796 -65.222  49.988 -56.192  40.796 -47.162  47.407 -40.551 Z M77.345 20.079 Q100.943 20.079 116.826 4.196 Q132.709 -11.687 132.709 -35.285 Q132.709 -47.001 128.516 -57.079 Q124.324 -67.157 116.906 -74.736 L38.055 4.115 Q45.4 11.522 55.514 15.8 Q65.629 20.079 77.345 20.079 Z M90.623 0.568  75.465 -14.59  81.915 -21.362  90.623 -12.655  106.748 -28.619  113.359 -22.007  90.623 0.568 Z"/></g><g id="Light-L" transform="matrix(1 0 0 1 1082.77 1556)"><path d="M77.411 28.625 Q64.074 28.625 52.35 23.685 Q40.626 18.746 32.027 10.151 Q23.428 1.556 18.487 -10.164 Q13.545 -21.883 13.545 -35.219 Q13.545 -48.659 18.494 -60.339 Q23.443 -72.019 32.054 -80.644 Q40.666 -89.27 52.369 -94.178 Q64.072 -99.085 77.389 -99.085 Q90.827 -99.085 102.506 -94.18 Q114.185 -89.274 122.812 -80.65 Q131.44 -72.026 136.348 -60.348 Q141.255 -48.67 141.255 -35.227 Q141.255 -21.846 136.35 -10.177 Q131.444 1.492 122.823 10.108 Q114.2 18.723 102.525 23.674 Q90.851 28.625 77.411 28.625 Z M47.407 -41.668  56.438 -50.859  65.468 -41.668  71.124 -47.162  61.932 -56.192  71.124 -65.222  65.468 -70.879  56.438 -61.687  47.407 -70.879  41.913 -65.222  51.104 -56.192  41.913 -47.162  47.407 -41.668 Z M77.345 19.21 Q100.384 19.21 116.112 3.482 Q131.84 -12.246 131.84 -35.285 Q131.84 -46.753 127.679 -56.645 Q123.517 -66.537 116.224 -74.054 L38.737 3.433 Q46.02 10.716 55.948 14.963 Q65.877 19.21 77.345 19.21 Z M90.623 -0.549  76.519 -14.59  81.915 -20.246  90.56 -11.601  106.685 -27.564  112.242 -22.007  90.623 -0.549 Z"/></g><g id="Thin-L" transform="matrix(1 0 0 1 787.282 1556)"><path d="M77.422 25.4 Q64.881 25.4 53.742 20.684 Q42.603 15.969 34.406 7.779 Q26.21 -0.41 21.49 -11.539 Q16.77 -22.667 16.77 -35.208 Q16.77 -47.915 21.495 -59.009 Q26.22 -70.104 34.426 -78.327 Q42.631 -86.551 53.744 -91.205 Q64.856 -95.86 77.378 -95.86 Q90.083 -95.86 101.176 -91.21 Q112.269 -86.559 120.495 -78.341 Q128.721 -70.123 133.375 -59.035 Q138.03 -47.948 138.03 -35.238 Q138.03 -22.652 133.38 -11.569 Q128.729 -0.485 120.513 7.728 Q112.297 15.941 101.212 20.671 Q90.128 25.4 77.422 25.4 Z M47.407 -42.784  56.438 -51.975  65.468 -42.784  70.007 -47.162  60.816 -56.192  70.007 -65.222  65.468 -69.762  56.438 -60.571  47.407 -69.762  43.029 -65.222  52.22 -56.192  43.029 -47.162  47.407 -42.784 Z M77.345 18.342 Q99.826 18.342 115.399 2.769 Q130.972 -12.804 130.972 -35.285 Q130.972 -46.505 126.842 -56.211 Q122.711 -65.917 115.542 -73.372 L39.419 2.751 Q46.64 9.91 56.383 14.126 Q66.125 18.342 77.345 18.342 Z M90.623 -1.665  77.574 -14.59  81.915 -19.13  90.498 -10.546  106.623 -26.51  111.126 -22.007  90.623 -1.665 Z"/></g><g id="Ultralight-L" transform="matrix(1 0 0 1 491.205 1556)"><path d="M77.428 23.465 Q65.364 23.465 54.577 18.884 Q43.79 14.302 35.834 6.357 Q27.879 -1.589 23.292 -12.364 Q18.705 -23.138 18.705 -35.202 Q18.705 -47.468 23.296 -58.211 Q27.887 -68.954 35.849 -76.937 Q43.811 -84.919 54.569 -89.422 Q65.327 -93.925 77.372 -93.925 Q89.637 -93.925 100.378 -89.428 Q111.12 -84.93 119.104 -76.955 Q127.089 -68.98 131.592 -58.247 Q136.095 -47.514 136.095 -35.245 Q136.095 -23.136 131.598 -12.404 Q127.1 -1.671 119.127 6.301 Q111.155 14.272 100.424 18.869 Q89.694 23.465 77.428 23.465 Z M47.407 -43.454  56.438 -52.645  65.468 -43.454  69.338 -47.162  60.146 -56.192  69.338 -65.222  65.468 -69.092  56.438 -59.901  47.407 -69.092  43.699 -65.222  52.89 -56.192  43.699 -47.162  47.407 -43.454 Z M77.345 17.821 Q99.491 17.821 114.971 2.341 Q130.451 -13.139 130.451 -35.285 Q130.451 -46.356 126.339 -55.951 Q122.228 -65.545 115.133 -72.962 L39.829 2.341 Q47.012 9.426 56.643 13.624 Q66.274 17.821 77.345 17.821 Z M90.623 -2.335  78.206 -14.59  81.915 -18.46  90.461 -9.914  106.586 -25.877  110.456 -22.007  90.623 -2.335 Z"/></g><g id="Bold-M" transform="matrix(1 0 0 1 2281.8 1126)"><path d="M60 20.52 Q48.42 20.52 38.192 16.195 Q27.963 11.869 20.432 4.338 Q12.901 -3.193 8.575 -13.422 Q4.25 -23.65 4.25 -35.23 Q4.25 -46.842 8.583 -57.036 Q12.916 -67.23 20.48 -74.779 Q28.044 -82.327 38.239 -86.654 Q48.434 -90.98 60 -90.98 Q71.611 -90.98 81.809 -86.656 Q92.008 -82.332 99.555 -74.785 Q107.102 -67.238 111.426 -57.036 Q115.75 -46.834 115.75 -35.22 Q115.75 -23.605 111.424 -13.439 Q107.097 -3.273 99.549 4.29 Q92 11.854 81.806 16.187 Q71.612 20.52 60 20.52 Z M36.75 -37.23  43.75 -44.355  50.75 -37.23  58 -44.48  50.875 -51.48  58 -58.48  50.75 -65.73  43.75 -58.605  36.75 -65.73  29.5 -58.48  36.625 -51.48  29.5 -44.48  36.75 -37.23 Z M59.895 3.52 Q76.125 3.52 87.438 -7.709 Q98.75 -18.938 98.75 -35.273 Q98.75 -43.355 95.758 -50.35 Q92.766 -57.346 87.448 -62.73 L32.5 -7.782 Q37.87 -2.472 44.856 0.524 Q51.842 3.52 59.895 3.52 Z M70.25 -5.355  56.375 -19.23  63.5 -26.48  70.25 -19.73  82.75 -32.105  89.875 -24.98  70.25 -5.355 Z"/></g><g id="Semibold-M" transform="matrix(1 0 0 1 1985.97 1126)"><path d="M60 19.759 Q48.583 19.759 38.517 15.466 Q28.451 11.172 21.025 3.745 Q13.598 -3.681 9.305 -13.747 Q5.011 -23.813 5.011 -35.23 Q5.011 -46.679 9.312 -56.738 Q13.613 -66.797 21.063 -74.242 Q28.514 -81.687 38.556 -85.953 Q48.597 -90.219 60 -90.219 Q71.448 -90.219 81.509 -85.954 Q91.57 -81.69 99.015 -74.245 Q106.46 -66.8 110.725 -56.735 Q114.989 -46.671 114.989 -35.22 Q114.989 -23.768 110.723 -13.756 Q106.457 -3.744 99.012 3.707 Q91.567 11.157 81.508 15.458 Q71.449 19.759 60 19.759 Z M36.75 -37.447  43.75 -44.572  50.75 -37.447  57.783 -44.48  50.658 -51.48  57.783 -58.48  50.75 -65.513  43.75 -58.388  36.75 -65.513  29.717 -58.48  36.842 -51.48  29.717 -44.48  36.75 -37.447 Z M59.922 4.39 Q76.505 4.39 88.062 -7.12 Q99.62 -18.63 99.62 -35.273 Q99.62 -43.518 96.57 -50.678 Q93.52 -57.839 88.068 -63.328 L31.956 -7.216 Q37.413 -1.772 44.553 1.309 Q51.693 4.39 59.922 4.39 Z M70.25 -5.572  56.592 -19.23  63.5 -26.263  70.25 -19.513  82.75 -31.888  89.658 -24.98  70.25 -5.572 Z"/></g><g id="Medium-M" transform="matrix(1 0 0 1 1689.91 1126)"><path d="M60 19.189 Q48.705 19.189 38.761 14.919 Q28.817 10.649 21.469 3.301 Q14.121 -4.047 9.851 -13.991 Q5.582 -23.935 5.582 -35.23 Q5.582 -46.557 9.859 -56.514 Q14.136 -66.472 21.501 -73.839 Q28.866 -81.207 38.793 -85.428 Q48.72 -89.648 60 -89.648 Q71.326 -89.648 81.283 -85.428 Q91.241 -81.208 98.61 -73.84 Q105.978 -66.471 110.198 -56.51 Q114.418 -46.549 114.418 -35.22 Q114.418 -23.89 110.198 -13.993 Q105.977 -4.096 98.609 3.269 Q91.242 10.634 81.284 14.911 Q71.327 19.189 60 19.189 Z M36.75 -37.61  43.75 -44.735  50.75 -37.61  57.62 -44.48  50.495 -51.48  57.62 -58.48  50.75 -65.35  43.75 -58.225  36.75 -65.35  29.88 -58.48  37.005 -51.48  29.88 -44.48  36.75 -37.61 Z M59.943 5.042 Q76.791 5.042 88.531 -6.679 Q100.272 -18.399 100.272 -35.273 Q100.272 -43.64 97.178 -50.924 Q94.085 -58.209 88.534 -63.776 L31.549 -6.791 Q37.07 -1.248 44.326 1.897 Q51.582 5.042 59.943 5.042 Z M70.25 -5.735  56.755 -19.23  63.5 -26.1  70.25 -19.35  82.75 -31.725  89.495 -24.98  70.25 -5.735 Z"/></g><g id="Regular-M" transform="matrix(1 0 0 1 1394.06 1126)"><path d="M60 18.77 Q48.795 18.77 38.94 14.518 Q29.085 10.265 21.795 2.975 Q14.505 -4.315 10.252 -14.17 Q6 -24.025 6 -35.23 Q6 -46.467 10.26 -56.35 Q14.52 -66.233 21.822 -73.544 Q29.125 -80.855 38.967 -85.042 Q48.809 -89.23 60 -89.23 Q71.236 -89.23 81.118 -85.042 Q91 -80.855 98.312 -73.542 Q105.625 -66.23 109.812 -56.345 Q114 -46.459 114 -35.22 Q114 -23.98 109.812 -14.167 Q105.625 -4.355 98.314 2.948 Q91.003 10.25 81.12 14.51 Q71.237 18.77 60 18.77 Z M36.75 -37.73  43.75 -44.855  50.75 -37.73  57.5 -44.48  50.375 -51.48  57.5 -58.48  50.75 -65.23  43.75 -58.105  36.75 -65.23  30 -58.48  37.125 -51.48  30 -44.48  36.75 -37.73 Z M59.957 5.52 Q77 5.52 88.875 -6.355 Q100.75 -18.23 100.75 -35.273 Q100.75 -43.73 97.625 -51.105 Q94.5 -58.48 88.875 -64.105 L31.25 -6.48 Q36.819 -0.863 44.159 2.329 Q51.5 5.52 59.957 5.52 Z M70.25 -5.855  56.875 -19.23  63.5 -25.98  70.25 -19.23  82.75 -31.605  89.375 -24.98  70.25 -5.855 Z"/></g><g id="Light-M" transform="matrix(1 0 0 1 1098.18 1126)"><path d="M60.008 16.27 Q49.324 16.27 39.923 12.215 Q30.522 8.16 23.568 1.209 Q16.613 -5.743 12.557 -15.14 Q8.5 -24.537 8.5 -35.222 Q8.5 -45.938 12.562 -55.367 Q16.625 -64.796 23.589 -71.772 Q30.553 -78.747 39.937 -82.738 Q49.322 -86.73 59.992 -86.73 Q70.707 -86.73 80.135 -82.74 Q89.563 -78.75 96.54 -71.776 Q103.517 -64.802 107.508 -55.375 Q111.5 -45.947 111.5 -35.228 Q111.5 -24.509 107.51 -15.15 Q103.52 -5.792 96.548 1.175 Q89.576 8.142 80.15 12.206 Q70.725 16.27 60.008 16.27 Z M36.75 -38.836  43.75 -45.961  50.75 -38.836  56.394 -44.48  49.269 -51.48  56.394 -58.48  50.75 -64.124  43.75 -56.999  36.75 -64.124  31.106 -58.48  38.231 -51.48  31.106 -44.48  36.75 -38.836 Z M59.957 5.52 Q77 5.52 88.875 -6.355 Q100.75 -18.23 100.75 -35.273 Q100.75 -43.73 97.625 -51.105 Q94.5 -58.48 88.875 -64.105 L31.25 -6.48 Q36.819 -0.863 44.159 2.329 Q51.5 5.52 59.957 5.52 Z M70.25 -6.961  57.933 -19.23  63.5 -24.874  70.202 -18.172  82.702 -30.547  88.269 -24.98  70.25 -6.961 Z"/></g><g id="Thin-M" transform="matrix(1 0 0 1 802.565 1126)"><path d="M60.017 13.77 Q49.853 13.77 40.906 9.913 Q31.958 6.055 25.34 -0.558 Q18.721 -7.17 14.861 -16.11 Q11 -25.049 11 -35.213 Q11 -45.409 14.865 -54.385 Q18.73 -63.36 25.355 -69.999 Q31.98 -76.638 40.907 -80.434 Q49.834 -84.23 59.983 -84.23 Q70.178 -84.23 79.152 -80.438 Q88.127 -76.645 94.768 -70.01 Q101.409 -63.375 105.204 -54.405 Q109 -45.435 109 -35.236 Q109 -25.038 105.208 -16.133 Q101.415 -7.228 94.782 -0.597 Q88.148 6.034 79.18 9.902 Q70.213 13.77 60.017 13.77 Z M36.75 -39.941  43.75 -47.066  50.75 -39.941  55.288 -44.48  48.163 -51.48  55.288 -58.48  50.75 -63.018  43.75 -55.893  36.75 -63.018  32.212 -58.48  39.337 -51.48  32.212 -44.48  36.75 -39.941 Z M59.957 5.52 Q77 5.52 88.875 -6.355 Q100.75 -18.23 100.75 -35.273 Q100.75 -43.73 97.625 -51.105 Q94.5 -58.48 88.875 -64.105 L31.25 -6.48 Q36.819 -0.863 44.159 2.329 Q51.5 5.52 59.957 5.52 Z M70.25 -8.066  58.99 -19.23  63.5 -23.768  70.154 -17.115  82.654 -29.49  87.163 -24.98  70.25 -8.066 Z"/></g><g id="Ultralight-M" transform="matrix(1 0 0 1 506.415 1126)"><path d="M60.022 12.27 Q50.17 12.27 41.495 8.531 Q32.82 4.792 26.404 -1.617 Q19.986 -8.027 16.243 -16.692 Q12.5 -25.356 12.5 -35.208 Q12.5 -45.092 16.246 -53.795 Q19.993 -62.498 26.415 -68.936 Q32.837 -75.373 41.489 -79.052 Q50.141 -82.73 59.978 -82.73 Q69.861 -82.73 78.563 -79.056 Q87.265 -75.382 93.704 -68.95 Q100.144 -62.518 103.822 -53.823 Q107.5 -45.128 107.5 -35.241 Q107.5 -25.355 103.826 -16.723 Q100.152 -8.09 93.722 -1.661 Q87.291 4.769 78.598 8.519 Q69.906 12.27 60.022 12.27 Z M36.75 -40.605  43.75 -47.73  50.75 -40.605  54.625 -44.48  47.5 -51.48  54.625 -58.48  50.75 -62.355  43.75 -55.23  36.75 -62.355  32.875 -58.48  40 -51.48  32.875 -44.48  36.75 -40.605 Z M59.957 5.52 Q77 5.52 88.875 -6.355 Q100.75 -18.23 100.75 -35.273 Q100.75 -43.73 97.625 -51.105 Q94.5 -58.48 88.875 -64.105 L31.25 -6.48 Q36.819 -0.863 44.159 2.329 Q51.5 5.52 59.957 5.52 Z M70.25 -8.73  59.625 -19.23  63.5 -23.105  70.125 -16.48  82.625 -28.855  86.5 -24.98  70.25 -8.73 Z"/></g><g id="Bold-S" transform="matrix(1 0 0 1 2294.23 696)"><path d="M47.34 7.179 Q38.598 7.179 30.824 3.914 Q23.049 0.649 17.255 -5.145 Q11.461 -10.939 8.196 -18.714 Q4.931 -26.488 4.931 -35.23 Q4.931 -44.096 8.202 -51.794 Q11.473 -59.492 17.293 -65.3 Q23.113 -71.108 30.861 -74.373 Q38.609 -77.639 47.34 -77.639 Q56.205 -77.639 63.907 -74.375 Q71.608 -71.111 77.415 -65.305 Q83.221 -59.498 86.485 -51.794 Q89.749 -44.09 89.749 -35.222 Q89.749 -26.452 86.483 -18.727 Q83.218 -11.003 77.41 -5.183 Q71.602 0.637 63.904 3.908 Q56.206 7.179 47.34 7.179 Z M29.588 -38.189  34.519 -43.219  39.549 -38.189  44.381 -43.021  39.351 -48.051  44.381 -52.982  39.549 -57.914  34.519 -52.884  29.588 -57.914  24.656 -52.982  29.686 -48.051  24.656 -43.021  29.588 -38.189 Z M47.257 -5.445 Q59.865 -5.445 68.495 -14.058 Q77.125 -22.671 77.125 -35.264 Q77.125 -41.049 74.961 -46.519 Q72.798 -51.989 68.503 -56.434 L26.136 -14.067 Q30.57 -9.68 36.032 -7.563 Q41.495 -5.445 47.257 -5.445 Z M55.131 -13.434  45.269 -23.296  50.102 -28.129  55.131 -23.099  64.303 -32.271  69.136 -27.439  55.131 -13.434 Z"/></g><g id="Semibold-S" transform="matrix(1 0 0 1 1998.1 696)"><path d="M47.34 6.578 Q38.726 6.578 31.08 3.339 Q23.434 0.099 17.723 -5.613 Q12.011 -11.324 8.771 -18.97 Q5.532 -26.616 5.532 -35.23 Q5.532 -43.967 8.777 -51.559 Q12.023 -59.15 17.753 -64.876 Q23.484 -70.603 31.111 -73.821 Q38.738 -77.038 47.34 -77.038 Q56.076 -77.038 63.669 -73.822 Q71.262 -70.605 76.989 -64.879 Q82.715 -59.152 85.932 -51.557 Q89.148 -43.961 89.148 -35.222 Q89.148 -26.581 85.931 -18.977 Q82.713 -11.374 76.986 -5.643 Q71.26 0.087 63.669 3.333 Q56.077 6.578 47.34 6.578 Z M29.588 -38.36  34.519 -43.39  39.549 -38.36  44.21 -43.021  39.18 -48.051  44.21 -52.982  39.549 -57.742  34.519 -52.712  29.588 -57.742  24.828 -52.982  29.858 -48.051  24.828 -43.021  29.588 -38.36 Z M47.279 -4.759 Q60.165 -4.759 68.988 -13.594 Q77.811 -22.429 77.811 -35.264 Q77.811 -41.177 75.602 -46.778 Q73.393 -52.378 68.993 -56.906 L25.707 -13.62 Q30.209 -9.128 35.793 -6.944 Q41.378 -4.759 47.279 -4.759 Z M55.131 -13.605  45.44 -23.296  50.102 -27.957  55.131 -22.928  64.303 -32.1  68.965 -27.439  55.131 -13.605 Z"/></g><g id="Medium-S" transform="matrix(1 0 0 1 1701.85 696)"><path d="M47.34 6.128 Q38.823 6.128 31.273 2.907 Q23.723 -0.314 18.073 -5.963 Q12.424 -11.613 9.203 -19.163 Q5.982 -26.713 5.982 -35.23 Q5.982 -43.871 9.209 -51.382 Q12.436 -58.893 18.099 -64.559 Q23.762 -70.224 31.298 -73.406 Q38.834 -76.588 47.34 -76.588 Q55.98 -76.588 63.491 -73.406 Q71.003 -70.225 76.669 -64.559 Q82.335 -58.893 85.516 -51.379 Q88.698 -43.865 88.698 -35.222 Q88.698 -26.678 85.516 -19.165 Q82.334 -11.652 76.669 -5.989 Q71.003 -0.326 63.492 2.901 Q55.981 6.128 47.34 6.128 Z M29.588 -38.489  34.519 -43.519  39.549 -38.489  44.081 -43.021  39.051 -48.051  44.081 -52.982  39.549 -57.614  34.519 -52.584  29.588 -57.614  24.956 -52.982  29.986 -48.051  24.956 -43.021  29.588 -38.489 Z M47.295 -4.245 Q60.391 -4.245 69.358 -13.246 Q78.325 -22.246 78.325 -35.264 Q78.325 -41.274 76.082 -46.972 Q73.839 -52.67 69.36 -57.26 L25.385 -13.285 Q29.939 -8.714 35.614 -6.479 Q41.29 -4.245 47.295 -4.245 Z M55.131 -13.734  45.569 -23.296  50.102 -27.829  55.131 -22.799  64.303 -31.971  68.836 -27.439  55.131 -13.734 Z"/></g><g id="Regular-S" transform="matrix(1 0 0 1 1405.73 696)"><path d="M47.34 5.798 Q38.894 5.798 31.414 2.591 Q23.934 -0.617 18.33 -6.22 Q12.727 -11.824 9.519 -19.304 Q6.312 -26.784 6.312 -35.23 Q6.312 -43.8 9.525 -51.253 Q12.738 -58.705 18.352 -64.326 Q23.966 -69.946 31.436 -73.102 Q38.905 -76.258 47.34 -76.258 Q55.909 -76.258 63.361 -73.102 Q70.813 -69.946 76.434 -64.324 Q82.056 -58.703 85.212 -51.248 Q88.368 -43.794 88.368 -35.222 Q88.368 -26.748 85.212 -19.302 Q82.056 -11.856 76.436 -6.242 Q70.815 -0.628 63.363 2.585 Q55.91 5.798 47.34 5.798 Z M29.588 -38.583  34.519 -43.613  39.549 -38.583  43.987 -43.021  38.957 -48.051  43.987 -52.982  39.549 -57.519  34.519 -52.489  29.588 -57.519  25.051 -52.982  30.081 -48.051  25.051 -43.021  29.588 -38.583 Z M47.306 -3.867 Q60.556 -3.867 69.629 -12.99 Q78.703 -22.113 78.703 -35.264 Q78.703 -41.345 76.434 -47.114 Q74.166 -52.884 69.629 -57.519 L25.149 -13.039 Q29.74 -8.41 35.483 -6.139 Q41.225 -3.867 47.306 -3.867 Z M55.131 -13.828  45.663 -23.296  50.102 -27.734  55.131 -22.705  64.303 -31.877  68.742 -27.439  55.131 -13.828 Z"/></g><g id="Light-S" transform="matrix(1 0 0 1 1109.75 696)"><path d="M47.347 3.825 Q39.311 3.825 32.19 0.774 Q25.068 -2.278 19.729 -7.614 Q14.39 -12.951 11.337 -20.069 Q8.285 -27.188 8.285 -35.223 Q8.285 -43.383 11.342 -50.477 Q14.399 -57.572 19.746 -62.927 Q25.092 -68.282 32.201 -71.284 Q39.309 -74.285 47.333 -74.285 Q55.492 -74.285 62.586 -71.285 Q69.679 -68.285 75.036 -62.931 Q80.392 -57.576 83.394 -50.483 Q86.395 -43.39 86.395 -35.228 Q86.395 -27.166 83.395 -20.078 Q80.395 -12.989 75.042 -7.641 Q69.689 -2.292 62.597 0.767 Q55.506 3.825 47.347 3.825 Z M29.588 -39.456  34.519 -44.486  39.549 -39.456  43.114 -43.021  38.084 -48.051  43.114 -52.982  39.549 -56.647  34.519 -51.617  29.588 -56.647  25.923 -52.982  30.953 -48.051  25.923 -43.021  29.588 -39.456 Z M47.306 -3.867 Q60.556 -3.867 69.629 -12.99 Q78.703 -22.113 78.703 -35.264 Q78.703 -41.345 76.434 -47.114 Q74.166 -52.884 69.629 -57.519 L25.149 -13.039 Q29.74 -8.41 35.483 -6.139 Q41.225 -3.867 47.306 -3.867 Z M55.131 -14.701  46.498 -23.296  50.102 -26.862  55.093 -21.87  64.266 -31.042  67.869 -27.439  55.131 -14.701 Z"/></g><g id="Thin-S" transform="matrix(1 0 0 1 814.015 696)"><path d="M47.353 1.853 Q39.728 1.853 32.965 -1.043 Q26.201 -3.938 21.127 -9.008 Q16.053 -14.077 13.155 -20.834 Q10.257 -27.592 10.257 -35.217 Q10.257 -42.966 13.158 -49.702 Q16.06 -56.438 21.139 -61.529 Q26.219 -66.619 32.966 -69.466 Q39.713 -72.313 47.327 -72.313 Q55.075 -72.313 61.81 -69.469 Q68.546 -66.624 73.637 -61.537 Q78.729 -56.45 81.576 -49.718 Q84.423 -42.986 84.423 -35.235 Q84.423 -27.583 81.579 -20.853 Q78.734 -14.123 73.649 -9.039 Q68.563 -3.955 61.832 -1.051 Q55.102 1.853 47.353 1.853 Z M29.588 -40.328  34.519 -45.358  39.549 -40.328  42.242 -43.021  37.212 -48.051  42.242 -52.982  39.549 -55.774  34.519 -50.745  29.588 -55.774  26.796 -52.982  31.825 -48.051  26.796 -43.021  29.588 -40.328 Z M47.306 -3.867 Q60.556 -3.867 69.629 -12.99 Q78.703 -22.113 78.703 -35.264 Q78.703 -41.345 76.434 -47.114 Q74.166 -52.884 69.629 -57.519 L25.149 -13.039 Q29.74 -8.41 35.483 -6.139 Q41.225 -3.867 47.306 -3.867 Z M55.131 -15.573  47.332 -23.296  50.102 -25.99  55.056 -21.036  64.228 -30.208  66.997 -27.439  55.131 -15.573 Z"/></g><g id="Ultralight-S" transform="matrix(1 0 0 1 517.792 696)"><path d="M47.357 0.67 Q39.979 0.67 33.43 -2.133 Q26.882 -4.935 21.967 -9.844 Q17.051 -14.753 14.246 -21.294 Q11.441 -27.834 11.441 -35.213 Q11.441 -42.715 14.248 -49.237 Q17.056 -55.758 21.975 -60.69 Q26.895 -65.621 33.425 -68.375 Q39.956 -71.129 47.323 -71.129 Q54.824 -71.129 61.345 -68.379 Q67.866 -65.628 72.798 -60.701 Q77.731 -55.774 80.485 -49.259 Q83.24 -42.743 83.24 -35.239 Q83.24 -27.833 80.489 -21.318 Q77.738 -14.803 72.812 -9.878 Q67.887 -4.953 61.373 -2.142 Q54.86 0.67 47.357 0.67 Z M29.588 -40.852  34.519 -45.881  39.549 -40.852  41.718 -43.021  36.689 -48.051  41.718 -52.982  39.549 -55.251  34.519 -50.221  29.588 -55.251  27.319 -52.982  32.349 -48.051  27.319 -43.021  29.588 -40.852 Z M47.306 -3.867 Q60.556 -3.867 69.629 -12.99 Q78.703 -22.113 78.703 -35.264 Q78.703 -41.345 76.434 -47.114 Q74.166 -52.884 69.629 -57.519 L25.149 -13.039 Q29.74 -8.41 35.483 -6.139 Q41.225 -3.867 47.306 -3.867 Z M55.131 -16.097  47.833 -23.296  50.102 -25.466  55.033 -20.535  64.205 -29.707  66.473 -27.439  55.131 -16.097 Z"/></g></g></svg>