<svg xmlns="http://www.w3.org/2000/svg" height="20" viewBox="0 -960 960 960" width="20"><path d="M166-276v-413 413Zm53-173h67v-67h-67v67Zm114 0h67v-67h-67v67Zm114 0h67v-67h-67v67Zm114 0h67v-67h-67v67ZM219-569h67v-67h-67v67Zm114 0h67v-67h-67v67Zm114 0h67v-67h-67v67Zm114 0h67v-67h-67v67Zm114 0h67v-67h-67v67Zm0 110.5q16.5-4.717 33.38-4.565 16.881.152 33.62 1.935V-516h-67v57.5ZM337-329h202.261q5.152-18.802 14.163-35.151Q562.435-380.5 574.913-396H337v67ZM165.723-198q-32.443 0-55.083-22.79T88-276v-413q0-32.42 22.79-55.21T166-767h629q32.42 0 55.21 22.79T873-689v300.978q-16.152-20.391-35.772-35.706-19.619-15.315-42.228-23.598V-689H166v413h366.304v78H165.723ZM622.334-85.87q-9.912 0-16.471-6.917-6.559-6.917-6.559-17.039v-143.391q0-10.361 6.44-16.92 6.439-6.559 16.8-6.559h24.26v-49q0-29.917 21.061-50.176 21.06-20.258 51.065-20.258t50.853 20.258q20.848 20.259 20.848 50.176v49h24.26q10.361 0 16.8 6.559 6.44 6.559 6.44 16.92v143.391q0 10.122-6.559 17.04-6.559 6.917-16.47 6.917H622.334Zm61.384-190.826h70v-49q0-15.3-9.79-25.15-9.789-9.85-25-9.85-15.21 0-25.21 9.85t-10 25.15v49Z"/></svg>