<svg xmlns="http://www.w3.org/2000/svg" height="24" viewBox="0 -960 960 960" width="24"><path d="M156.261-277.13V-680v402.87Zm34.826-157.696h87.478v-88.044h-87.478v88.044Zm122.304 0h88.044v-88.044h-88.044v88.044Zm122.87 0h87.478v-88.044h-87.478v88.044Zm122.304 0h88.044v-88.044h-88.044v88.044ZM191.087-557.13h87.478v-88.044h-87.478v88.044Zm122.304 0h88.044v-88.044h-88.044v88.044Zm122.87 0h87.478v-88.044h-87.478v88.044Zm122.304 0h88.044v-88.044h-88.044v88.044Zm122.87 0h87.478v-88.044h-87.478v88.044Zm0 120.782q19.435-11.565 41.521-18.913 22.087-7.348 45.957-9.913v-57.696h-87.478v86.522ZM314.826-311.957h273.435q5.915-24.968 19.001-47.071Q620.348-381.13 637.348-400H314.826v88.043ZM156.261-154.173q-51.299 0-87.128-36.225-35.83-36.225-35.83-86.732V-680q0-51.299 35.83-87.128 35.829-35.829 87.128-35.829h647.478q51.299 0 87.128 35.829T926.696-680v264.044q-24.927-21.296-56.399-34.888-31.471-13.591-66.558-16.026V-680H156.261v402.87h424.261v122.957H156.261ZM696.207-40.086q-15.685 0-25.685-11.85-10-11.849-10-26.77v-144.021q0-16.751 9.5-26.751t26.235-10h4.265v-40q0-36.763 26.37-61.947 26.371-25.184 63.113-25.184 37.343 0 63.626 25.184 26.282 25.184 26.282 61.947v40h5q16 0 25.5 10t9.5 26.735v143.867q0 15.224-10 27.007-10 11.782-25.259 11.782H696.207Zm54.011-219.392h80v-40q0-16.435-11.5-28.217-11.5-11.783-28.5-11.783-16.435 0-28.218 11.783-11.782 11.782-11.782 28.217v40Z"/></svg>