<svg xmlns="http://www.w3.org/2000/svg" height="40" viewBox="0 -960 960 960" width="40"><path d="M145.333-266.666v-430.001 430.001ZM204-450h63.333v-63.333H204V-450Zm122.667 0H390v-63.333h-63.333V-450Zm122 0H512v-63.333h-63.333V-450Zm122.667 0h63.333v-63.333h-63.333V-450ZM204-573.334h63.333v-63.333H204v63.333Zm122.667 0H390v-63.333h-63.333v63.333Zm122 0H512v-63.333h-63.333v63.333Zm122.667 0h63.333v-63.333h-63.333v63.333Zm122 0h63.333v-63.333h-63.333v63.333Zm0 128.407q14.833-5.608 30.05-8.938 15.217-3.33 33.283-4.482v-54.986h-63.333v68.406Zm-386.001 118.26h281.879q5.434-17.69 13.541-33.261Q610.861-375.5 622.342-390H307.333v63.333Zm-162 144.813q-35.064 0-59.938-25.207-24.874-25.208-24.874-59.605v-430.001q0-35.22 24.874-60.204 24.874-24.985 59.938-24.985h670.001q35.22 0 60.204 24.985 24.985 24.984 24.985 60.204v295.871q-17.848-18.479-39.138-30.733-21.29-12.253-46.051-17.934v-247.204H145.333v430.001h437.334v84.812H145.333ZM679.516-70.84q-14.995 0-26.922-12.668-11.927-12.669-11.927-27.883V-239.15q0-15.516 11.634-27.705 11.634-12.188 27.171-12.188h2.362v-40.818q0-35.734 24.275-60.11 24.275-24.377 59.326-24.377 34.609 0 58.939 24.377 24.33 24.376 24.33 60.11v40.818h2.155q15.004 0 26.841 12.12 11.837 12.12 11.837 27.677v127.868q0 15.22-11.931 27.879-11.932 12.66-26.424 12.66H679.516Zm45.419-208.203h81.334v-40.766q0-18.601-11.522-30.918-11.522-12.316-29.833-12.316-18.312 0-29.145 12.246-10.834 12.245-10.834 31.087v40.667Z"/></svg>