<svg xmlns="http://www.w3.org/2000/svg" version="1.1" width="3300" height="2000"><g id="Notes"><style>
    text {
      font-family: monospace;
      text-anchor: middle;
    }
    text.emphasis {
      font-weight:bold;
    }
    text.lanchor {
      text-anchor: start;
    }
  </style><rect height="2200" id="artboard" fill="white" width="3300" x="0" y="0"/><line id="" style="fill:none;stroke:black;stroke-width:0.5;" x1="263" x2="3036" y1="292" y2="292"/><text class="lanchor emphasis" transform="matrix(1 0 0 1 263 322)">Weight/Scale Variations</text><text transform="matrix(1 0 0 1 559.711 322)">Ultralight</text><text transform="matrix(1 0 0 1 856.422 322)">Thin</text><text transform="matrix(1 0 0 1 1153.13 322)">Light</text><text transform="matrix(1 0 0 1 1449.84 322)">Regular</text><text transform="matrix(1 0 0 1 1746.56 322)">Medium</text><text transform="matrix(1 0 0 1 2043.27 322)">Semibold</text><text transform="matrix(1 0 0 1 2339.98 322)">Bold</text><text transform="matrix(1 0 0 1 2636.69 322)">Heavy</text><text transform="matrix(1 0 0 1 2933.4 322)">Black</text><text id="template-version" style="text-anchor: end;" transform="matrix(1 0 0 1 3036 1933)">Template v.1.0</text><text class="lanchor" transform="matrix(1 0 0 1 263 726)">Small</text><text class="lanchor" transform="matrix(1 0 0 1 263 1156)">Medium</text><text class="lanchor" transform="matrix(1 0 0 1 263 1586)">Large</text></g><g id="Guides"><g id="H-reference" style="fill:#27AAE1;stroke:none;" transform="matrix(1 0 0 1 339 696)"><path d="M 54.9316 0 L 57.666 0 L 30.5664 -70.459 L 28.0762 -70.459 L 0.976562 0 L 3.66211 0 L 12.9395 -24.4629 L 45.7031 -24.4629 Z M 29.1992 -67.0898 L 29.4434 -67.0898 L 44.8242 -26.709 L 13.8184 -26.709 Z"/></g><line id="Baseline-S" style="fill:none;stroke:#27AAE1;opacity:1;stroke-width:0.577;" x1="263" x2="3036" y1="696" y2="696"/><line id="Capline-S" style="fill:none;stroke:#27AAE1;opacity:1;stroke-width:0.577;" x1="263" x2="3036" y1="625.541" y2="625.541"/><g id="H-reference" style="fill:#27AAE1;stroke:none;" transform="matrix(1 0 0 1 339 1126)"><path d="M 54.9316 0 L 57.666 0 L 30.5664 -70.459 L 28.0762 -70.459 L 0.976562 0 L 3.66211 0 L 12.9395 -24.4629 L 45.7031 -24.4629 Z M 29.1992 -67.0898 L 29.4434 -67.0898 L 44.8242 -26.709 L 13.8184 -26.709 Z"/></g><line id="Baseline-M" style="fill:none;stroke:#27AAE1;opacity:1;stroke-width:0.577;" x1="263" x2="3036" y1="1126" y2="1126"/><line id="Capline-M" style="fill:none;stroke:#27AAE1;opacity:1;stroke-width:0.577;" x1="263" x2="3036" y1="1055.54" y2="1055.54"/><g id="H-reference" style="fill:#27AAE1;stroke:none;" transform="matrix(1 0 0 1 339 1556)"><path d="M 54.9316 0 L 57.666 0 L 30.5664 -70.459 L 28.0762 -70.459 L 0.976562 0 L 3.66211 0 L 12.9395 -24.4629 L 45.7031 -24.4629 Z M 29.1992 -67.0898 L 29.4434 -67.0898 L 44.8242 -26.709 L 13.8184 -26.709 Z"/></g><line id="Baseline-L" style="fill:none;stroke:#27AAE1;opacity:1;stroke-width:0.577;" x1="263" x2="3036" y1="1556" y2="1556"/><line id="Capline-L" style="fill:none;stroke:#27AAE1;opacity:1;stroke-width:0.577;" x1="263" x2="3036" y1="1485.54" y2="1485.54"/><rect height="119.336" id="left-margin" style="fill:darkred;stroke:none;opacity:0.4;" width="12.4512" x="1394.06" y="1030.79"/><rect height="119.336" id="right-margin" style="fill:darkgreen;stroke:none;opacity:0.4;" width="12.4512" x="1502.5112" y="1030.79"/><rect x="1406.5112" y="1045" width="96" height="96" fill="none" stroke="blue" stroke-dasharray="5"/><rect x="1394.06" y="1030.79" width="120.9024" height="119.336" fill="none" stroke="blue"/></g><g id="Symbols"><g id="Bold-L" transform="matrix(1 0 0 1 2266 1556)"><path d="M55.793 -6.205 Q53.092 -6.205 51.298 -8.119 Q49.504 -10.033 49.504 -12.714 Q49.504 -15.396 51.298 -17.251 Q53.092 -19.105 55.793 -19.105 H66.596 Q69.253 -19.105 71.149 -17.191 Q73.046 -15.277 73.046 -12.596 Q73.046 -9.914 71.149 -8.059 Q69.253 -6.205 66.596 -6.205 H55.793 Z M51.116 33.301 Q36.12 33.301 25.719 22.748 Q15.319 12.195 15.319 -2.98 V-56.999 Q9.675 -58.127 5.805 -62.159 Q1.935 -66.19 1.935 -71.834 V-88.43 Q1.935 -94.892 6.672 -99.407 Q11.408 -103.922 18.06 -103.922 H84.334 Q90.901 -103.922 95.68 -99.407 Q100.459 -94.892 100.459 -88.43 V-71.834 Q100.459 -66.19 96.508 -62.159 Q92.558 -58.127 87.075 -56.999 V-46.84 Q87.075 -40.356 82.658 -35.939 Q78.24 -31.521 71.756 -31.521 H55.793 Q53.092 -31.521 51.298 -33.435 Q49.504 -35.349 49.504 -38.031 Q49.504 -40.712 51.298 -42.567 Q53.092 -44.421 55.793 -44.421 H73.046 V-56.515 H29.348 V-3.035 Q29.348 6.265 35.65 12.769 Q41.952 19.273 51.116 19.273 Q54.835 19.273 57.974 18.063 Q61.114 16.854 63.532 14.758 Q66.112 13.468 69.015 14.113 Q71.918 14.758 73.369 17.338 Q74.981 19.918 74.175 22.791 Q73.369 25.665 70.95 27.174 Q66.758 30.238 61.691 31.769 Q56.625 33.301 51.116 33.301 Z M15.964 -70.544 H86.43 Q86.43 -70.544 86.43 -70.544 Q86.43 -70.544 86.43 -70.544 V-89.894 Q86.43 -89.894 86.43 -89.894 Q86.43 -89.894 86.43 -89.894 H15.964 Q15.964 -89.894 15.964 -89.894 Q15.964 -89.894 15.964 -89.894 V-70.544 Q15.964 -70.544 15.964 -70.544 Q15.964 -70.544 15.964 -70.544 Z M109.266 10.404 Q115.616 10.404 119.97 6.073 Q124.324 1.742 124.324 -4.531 Q124.324 -10.804 119.993 -15.196 Q115.662 -19.589 109.389 -19.589 Q103.039 -19.589 98.766 -15.258 Q94.493 -10.927 94.493 -4.654 Q94.493 1.619 98.704 6.011 Q102.916 10.404 109.266 10.404 Z M109.328 25.561 Q96.763 25.561 87.969 16.761 Q79.174 7.96 79.174 -4.612 Q79.174 -17.183 87.991 -25.965 Q96.808 -34.746 109.403 -34.746 Q121.999 -34.746 130.821 -25.951 Q139.643 -17.157 139.643 -4.592 Q139.643 -0.505 138.514 3.257 Q137.385 7.018 135.289 10.565 L147.705 22.981 Q150.124 25.4 150.124 28.303 Q150.124 31.205 147.705 33.624 Q145.286 36.043 142.303 36.043 Q139.32 36.043 136.901 33.624 L124.485 21.369 Q120.938 23.465 117.257 24.513 Q113.577 25.561 109.328 25.561 Z"/></g><g id="Semibold-L" transform="matrix(1 0 0 1 1970.27 1556)"><path d="M56.073 -6.205 Q53.652 -6.205 52.034 -7.895 Q50.415 -9.585 50.415 -12 Q50.415 -14.415 52.034 -16.059 Q53.652 -17.703 56.073 -17.703 H67.788 Q70.183 -17.703 71.86 -16.013 Q73.537 -14.323 73.537 -11.908 Q73.537 -9.493 71.86 -7.849 Q70.183 -6.205 67.788 -6.205 H56.073 Z M51.327 31.549 Q37.031 31.549 27.051 21.483 Q17.071 11.416 17.071 -2.98 V-58.751 Q11.568 -59.389 7.733 -63.315 Q3.898 -67.242 3.898 -72.745 V-87.734 Q3.898 -93.701 8.223 -97.9 Q12.548 -102.1 18.621 -102.1 H84.123 Q90.149 -102.1 94.497 -97.9 Q98.846 -93.701 98.846 -87.734 V-72.745 Q98.846 -67.242 94.966 -63.315 Q91.085 -59.389 85.673 -58.751 V-44.597 Q85.673 -39.196 81.94 -35.464 Q78.208 -31.732 72.808 -31.732 H56.073 Q53.652 -31.732 52.034 -33.422 Q50.415 -35.111 50.415 -37.526 Q50.415 -39.941 52.034 -41.585 Q53.652 -43.229 56.073 -43.229 H73.537 V-58.478 H29.207 V-3.011 Q29.207 6.335 35.632 12.874 Q42.057 19.413 51.327 19.413 Q55.391 19.413 58.848 18.028 Q62.306 16.643 65.005 14.267 Q67.024 12.977 69.471 13.517 Q71.918 14.056 73.228 16.216 Q74.701 18.445 74 21.051 Q73.299 23.657 71.16 25.141 Q66.968 28.275 61.937 29.912 Q56.905 31.549 51.327 31.549 Z M16.034 -70.614 H86.71 Q86.71 -70.614 86.71 -70.614 Q86.71 -70.614 86.71 -70.614 V-89.964 Q86.71 -89.964 86.71 -89.964 Q86.71 -89.964 86.71 -89.964 H16.034 Q16.034 -89.964 16.034 -89.964 Q16.034 -89.964 16.034 -89.964 V-70.614 Q16.034 -70.614 16.034 -70.614 Q16.034 -70.614 16.034 -70.614 Z M108.722 11.596 Q115.546 11.596 120.25 6.914 Q124.955 2.232 124.955 -4.548 Q124.955 -11.328 120.273 -16.054 Q115.591 -20.781 108.811 -20.781 Q101.987 -20.781 97.329 -16.099 Q92.67 -11.417 92.67 -4.637 Q92.67 2.143 97.284 6.869 Q101.898 11.596 108.722 11.596 Z M108.767 24.369 Q96.699 24.369 88.252 15.917 Q79.805 7.464 79.805 -4.612 Q79.805 -16.687 88.267 -25.121 Q96.729 -33.554 108.818 -33.554 Q120.907 -33.554 129.363 -25.107 Q137.82 -16.66 137.82 -4.592 Q137.82 -0.435 136.621 3.397 Q135.422 7.228 133.186 10.775 L146.233 23.822 Q148.231 25.821 148.231 28.303 Q148.231 30.784 146.233 32.783 Q144.235 34.781 141.707 34.781 Q139.18 34.781 137.182 32.783 L124.134 19.826 Q120.587 22.063 116.801 23.216 Q113.016 24.369 108.767 24.369 Z"/></g><g id="Medium-L" transform="matrix(1 0 0 1 1674.31 1556)"><path d="M56.283 -6.205 Q54.073 -6.205 52.586 -7.727 Q51.099 -9.249 51.099 -11.464 Q51.099 -13.679 52.586 -15.165 Q54.073 -16.651 56.283 -16.651 H68.682 Q70.881 -16.651 72.393 -15.129 Q73.905 -13.607 73.905 -11.392 Q73.905 -9.178 72.393 -7.691 Q70.881 -6.205 68.682 -6.205 H56.283 Z M51.484 30.234 Q37.715 30.234 28.05 20.533 Q18.386 10.832 18.386 -2.98 V-60.066 Q12.988 -60.336 9.179 -64.183 Q5.37 -68.03 5.37 -73.429 V-87.212 Q5.37 -92.807 9.386 -96.77 Q13.402 -100.733 19.042 -100.733 H83.966 Q89.585 -100.733 93.611 -96.77 Q97.637 -92.807 97.637 -87.212 V-73.429 Q97.637 -68.03 93.809 -64.183 Q89.981 -60.336 84.621 -60.066 V-42.914 Q84.621 -38.327 81.403 -35.108 Q78.184 -31.889 73.597 -31.889 H56.283 Q54.073 -31.889 52.586 -33.411 Q51.099 -34.933 51.099 -37.148 Q51.099 -39.363 52.586 -40.849 Q54.073 -42.335 56.283 -42.335 H73.905 V-59.95 H29.102 V-2.993 Q29.102 6.388 35.619 12.953 Q42.136 19.518 51.484 19.518 Q55.809 19.518 59.504 18.002 Q63.2 16.486 66.109 13.899 Q67.707 12.609 69.813 13.07 Q71.918 13.531 73.123 15.374 Q74.491 17.341 73.868 19.746 Q73.246 22.151 71.318 23.616 Q67.126 26.802 62.121 28.518 Q57.116 30.234 51.484 30.234 Z M16.086 -70.666 H86.921 Q86.921 -70.666 86.921 -70.666 Q86.921 -70.666 86.921 -70.666 V-90.016 Q86.921 -90.016 86.921 -90.016 Q86.921 -90.016 86.921 -90.016 H16.086 Q16.086 -90.016 16.086 -90.016 Q16.086 -90.016 16.086 -90.016 V-70.666 Q16.086 -70.666 16.086 -70.666 Q16.086 -70.666 16.086 -70.666 Z M108.314 12.49 Q115.494 12.49 120.461 7.545 Q125.428 2.6 125.428 -4.561 Q125.428 -11.722 120.483 -16.698 Q115.539 -21.675 108.378 -21.675 Q101.198 -21.675 96.25 -16.73 Q91.303 -11.785 91.303 -4.624 Q91.303 2.537 96.219 7.513 Q101.135 12.49 108.314 12.49 Z M108.346 23.475 Q96.651 23.475 88.464 15.283 Q80.278 7.092 80.278 -4.612 Q80.278 -16.314 88.474 -24.488 Q96.67 -32.66 108.379 -32.66 Q120.087 -32.66 128.27 -24.474 Q136.453 -16.287 136.453 -4.592 Q136.453 -0.382 135.201 3.502 Q133.95 7.386 131.608 10.933 L145.129 24.453 Q146.811 26.136 146.811 28.303 Q146.811 30.469 145.129 32.152 Q143.446 33.834 141.26 33.834 Q139.075 33.834 137.392 32.152 L123.872 18.67 Q120.324 21.011 116.46 22.243 Q112.595 23.475 108.346 23.475 Z"/></g><g id="Regular-L" transform="matrix(1 0 0 1 1378.56 1556)"><path d="M56.438 -6.205 Q54.382 -6.205 52.991 -7.604 Q51.6 -9.003 51.6 -11.071 Q51.6 -13.139 52.991 -14.509 Q54.382 -15.88 56.438 -15.88 H69.338 Q71.393 -15.88 72.784 -14.481 Q74.175 -13.082 74.175 -11.014 Q74.175 -8.946 72.784 -7.576 Q71.393 -6.205 69.338 -6.205 H56.438 Z M51.6 29.27 Q38.216 29.27 28.783 19.837 Q19.35 10.404 19.35 -2.98 V-61.03 Q14.029 -61.03 10.239 -64.819 Q6.45 -68.609 6.45 -73.93 V-86.83 Q6.45 -92.151 10.239 -95.941 Q14.029 -99.73 19.35 -99.73 H83.85 Q89.171 -99.73 92.961 -95.941 Q96.75 -92.151 96.75 -86.83 V-73.93 Q96.75 -68.609 92.961 -64.819 Q89.171 -61.03 83.85 -61.03 V-41.68 Q83.85 -37.689 81.008 -34.847 Q78.166 -32.005 74.175 -32.005 H56.438 Q54.382 -32.005 52.991 -33.404 Q51.6 -34.803 51.6 -36.871 Q51.6 -38.939 52.991 -40.309 Q54.382 -41.68 56.438 -41.68 H74.175 V-61.03 H29.025 V-2.98 Q29.025 6.426 35.609 13.011 Q42.194 19.595 51.6 19.595 Q56.115 19.595 59.985 17.983 Q63.855 16.37 66.919 13.629 Q68.209 12.339 70.063 12.742 Q71.918 13.145 73.046 14.758 Q74.336 16.531 73.772 18.789 Q73.207 21.046 71.434 22.498 Q67.241 25.723 62.256 27.496 Q57.27 29.27 51.6 29.27 Z M16.125 -70.705 H87.075 Q87.075 -70.705 87.075 -70.705 Q87.075 -70.705 87.075 -70.705 V-90.055 Q87.075 -90.055 87.075 -90.055 Q87.075 -90.055 87.075 -90.055 H16.125 Q16.125 -90.055 16.125 -90.055 Q16.125 -90.055 16.125 -90.055 V-70.705 Q16.125 -70.705 16.125 -70.705 Q16.125 -70.705 16.125 -70.705 Z M108.015 13.145 Q115.455 13.145 120.615 8.008 Q125.775 2.87 125.775 -4.57 Q125.775 -12.01 120.638 -17.17 Q115.5 -22.33 108.06 -22.33 Q100.62 -22.33 95.46 -17.193 Q90.3 -12.055 90.3 -4.615 Q90.3 2.825 95.437 7.985 Q100.575 13.145 108.015 13.145 Z M108.038 22.82 Q96.616 22.82 88.62 14.819 Q80.625 6.818 80.625 -4.612 Q80.625 -16.041 88.626 -24.023 Q96.627 -32.005 108.057 -32.005 Q119.486 -32.005 127.468 -24.01 Q135.45 -16.014 135.45 -4.592 Q135.45 -0.343 134.16 3.579 Q132.87 7.501 130.451 11.049 L144.319 24.916 Q145.77 26.368 145.77 28.303 Q145.77 30.238 144.319 31.689 Q142.868 33.14 140.933 33.14 Q138.998 33.14 137.546 31.689 L123.679 17.821 Q120.131 20.24 116.209 21.53 Q112.287 22.82 108.038 22.82 Z"/></g><g id="Light-L" transform="matrix(1 0 0 1 1082.77 1556)"><path d="M56.81 -8.624 Q55.255 -8.624 54.203 -9.685 Q53.151 -10.746 53.151 -12.315 Q53.151 -13.883 54.203 -14.912 Q55.255 -15.942 56.81 -15.942 H71.818 Q73.374 -15.942 74.426 -14.881 Q75.478 -13.82 75.478 -12.251 Q75.478 -10.683 74.426 -9.653 Q73.374 -8.624 71.818 -8.624 H56.81 Z M52.716 26.045 Q40.208 26.045 31.392 17.325 Q22.575 8.605 22.575 -3.848 V-62.146 Q17.688 -62.146 14.24 -65.564 Q10.792 -68.981 10.792 -73.868 V-84.721 Q10.792 -89.582 14.253 -93.043 Q17.714 -96.505 22.575 -96.505 H82.796 Q87.682 -96.505 91.162 -93.043 Q94.641 -89.582 94.641 -84.721 V-73.868 Q94.641 -68.981 91.162 -65.564 Q87.682 -62.146 82.796 -62.146 V-43.231 Q82.796 -39.441 80.039 -36.684 Q77.282 -33.928 73.493 -33.928 H56.81 Q55.255 -33.928 54.203 -34.989 Q53.151 -36.05 53.151 -37.618 Q53.151 -39.187 54.203 -40.216 Q55.255 -41.246 56.81 -41.246 H75.478 V-62.146 H29.893 V-3.848 Q29.893 5.63 36.555 12.178 Q43.216 18.727 52.733 18.727 Q56.983 18.727 60.704 17.295 Q64.424 15.864 67.415 13.381 Q68.395 12.401 69.846 12.649 Q71.297 12.897 72.134 14.137 Q73.096 15.539 72.658 17.232 Q72.221 18.924 70.876 20.017 Q66.993 22.869 62.442 24.457 Q57.892 26.045 52.716 26.045 Z M20.218 -69.465 H85.152 Q86.021 -69.465 86.672 -70.054 Q87.323 -70.643 87.323 -71.511 V-87.078 Q87.323 -87.946 86.672 -88.567 Q86.021 -89.187 85.152 -89.187 H20.218 Q19.35 -89.187 18.73 -88.567 Q18.11 -87.946 18.11 -87.078 V-71.511 Q18.11 -70.643 18.73 -70.054 Q19.35 -69.465 20.218 -69.465 Z M106.526 13.269 Q114.215 13.269 119.53 7.977 Q124.845 2.684 124.845 -5.004 Q124.845 -12.692 119.552 -18.007 Q114.26 -23.322 106.572 -23.322 Q98.883 -23.322 93.568 -18.03 Q88.253 -12.738 88.253 -5.049 Q88.253 2.639 93.546 7.954 Q98.838 13.269 106.526 13.269 Z M106.549 20.587 Q95.877 20.587 88.406 13.11 Q80.935 5.633 80.935 -5.049 Q80.935 -15.731 88.412 -23.186 Q95.89 -30.641 106.572 -30.641 Q117.253 -30.641 124.708 -23.17 Q132.163 -15.699 132.163 -5.027 Q132.163 -0.821 130.811 3.061 Q129.459 6.943 126.978 10.304 L142.024 25.35 Q143.103 26.43 143.103 27.868 Q143.103 29.307 142.024 30.386 Q140.945 31.465 139.465 31.465 Q137.984 31.465 136.926 30.386 L121.88 15.402 Q118.519 17.883 114.636 19.235 Q110.755 20.587 106.549 20.587 Z"/></g><g id="Thin-L" transform="matrix(1 0 0 1 787.282 1556)"><path d="M57.182 -11.042 Q56.127 -11.042 55.414 -11.766 Q54.701 -12.489 54.701 -13.558 Q54.701 -14.627 55.414 -15.316 Q56.127 -16.004 57.182 -16.004 H74.299 Q75.353 -16.004 76.067 -15.281 Q76.78 -14.558 76.78 -13.489 Q76.78 -12.419 76.067 -11.731 Q75.353 -11.042 74.299 -11.042 H57.182 Z M53.833 22.82 Q42.199 22.82 34 14.813 Q25.8 6.807 25.8 -4.717 V-63.263 Q21.347 -63.263 18.24 -66.308 Q15.133 -69.353 15.133 -73.806 V-82.613 Q15.133 -87.013 18.266 -90.147 Q21.4 -93.28 25.8 -93.28 H81.741 Q86.193 -93.28 89.363 -90.147 Q92.533 -87.013 92.533 -82.613 V-73.806 Q92.533 -69.353 89.363 -66.308 Q86.193 -63.263 81.741 -63.263 V-44.781 Q81.741 -41.193 79.07 -38.522 Q76.398 -35.85 72.811 -35.85 H57.182 Q56.127 -35.85 55.414 -36.573 Q54.701 -37.297 54.701 -38.366 Q54.701 -39.435 55.414 -40.123 Q56.127 -40.812 57.182 -40.812 H76.78 V-63.263 H30.762 V-4.717 Q30.762 4.834 37.5 11.346 Q44.239 17.858 53.865 17.858 Q57.852 17.858 61.422 16.608 Q64.992 15.358 67.911 13.133 Q68.581 12.463 69.629 12.556 Q70.677 12.649 71.222 13.517 Q71.855 14.547 71.545 15.675 Q71.234 16.802 70.317 17.536 Q66.745 20.017 62.629 21.418 Q58.513 22.82 53.833 22.82 Z M24.312 -68.224 H83.23 Q84.966 -68.224 86.269 -69.403 Q87.571 -70.581 87.571 -72.317 V-84.101 Q87.571 -85.838 86.269 -87.078 Q84.966 -88.318 83.23 -88.318 H24.312 Q22.575 -88.318 21.335 -87.078 Q20.094 -85.838 20.094 -84.101 V-72.317 Q20.094 -70.581 21.335 -69.403 Q22.575 -68.224 24.312 -68.224 Z M105.038 13.393 Q112.974 13.393 118.444 7.946 Q123.914 2.498 123.914 -5.438 Q123.914 -13.374 118.467 -18.845 Q113.02 -24.315 105.083 -24.315 Q97.147 -24.315 91.677 -18.867 Q86.207 -13.42 86.207 -5.483 Q86.207 2.453 91.654 7.923 Q97.102 13.393 105.038 13.393 Z M105.061 18.355 Q95.138 18.355 88.191 11.401 Q81.245 4.447 81.245 -5.487 Q81.245 -15.421 88.199 -22.349 Q95.153 -29.276 105.087 -29.276 Q115.021 -29.276 121.948 -22.33 Q128.876 -15.384 128.876 -5.461 Q128.876 -1.299 127.462 2.543 Q126.048 6.385 123.505 9.56 L139.729 25.785 Q140.436 26.492 140.436 27.434 Q140.436 28.377 139.729 29.084 Q139.022 29.791 137.997 29.791 Q136.972 29.791 136.306 29.084 L120.082 12.984 Q116.906 15.527 113.064 16.941 Q109.223 18.355 105.061 18.355 Z"/></g><g id="Ultralight-L" transform="matrix(1 0 0 1 491.205 1556)"><path d="M57.405 -12.494 Q56.651 -12.494 56.141 -13.014 Q55.631 -13.535 55.631 -14.304 Q55.631 -15.074 56.141 -15.557 Q56.651 -16.041 57.405 -16.041 H75.788 Q76.541 -16.041 77.051 -15.521 Q77.561 -15 77.561 -14.231 Q77.561 -13.461 77.051 -12.977 Q76.541 -12.494 75.788 -12.494 H57.405 Z M54.503 20.885 Q43.394 20.885 35.564 13.306 Q27.735 5.728 27.735 -5.237 V-63.932 Q23.543 -63.932 20.64 -66.754 Q17.738 -69.576 17.738 -73.769 V-81.347 Q17.738 -85.471 20.674 -88.408 Q23.611 -91.345 27.735 -91.345 H81.109 Q85.299 -91.345 88.283 -88.408 Q91.267 -85.471 91.267 -81.347 V-73.769 Q91.267 -69.576 88.283 -66.754 Q85.299 -63.932 81.109 -63.932 V-45.711 Q81.109 -42.244 78.488 -39.624 Q75.868 -37.004 72.401 -37.004 H57.405 Q56.651 -37.004 56.141 -37.524 Q55.631 -38.045 55.631 -38.814 Q55.631 -39.584 56.141 -40.067 Q56.651 -40.551 57.405 -40.551 H77.561 V-63.932 H31.283 V-5.237 Q31.283 4.357 38.067 10.847 Q44.852 17.338 54.545 17.338 Q58.373 17.338 61.853 16.196 Q65.334 15.055 68.209 12.984 Q68.692 12.5 69.499 12.5 Q70.305 12.5 70.675 13.145 Q71.111 13.951 70.877 14.74 Q70.642 15.529 69.983 16.048 Q66.596 18.305 62.741 19.595 Q58.887 20.885 54.503 20.885 Z M26.768 -67.48 H82.076 Q84.334 -67.48 86.027 -69.012 Q87.72 -70.544 87.72 -72.801 V-82.315 Q87.72 -84.572 86.027 -86.185 Q84.334 -87.797 82.076 -87.797 H26.768 Q24.51 -87.797 22.898 -86.185 Q21.285 -84.572 21.285 -82.315 V-72.801 Q21.285 -70.544 22.898 -69.012 Q24.51 -67.48 26.768 -67.48 Z M104.145 13.468 Q112.23 13.468 117.793 7.927 Q123.356 2.387 123.356 -5.699 Q123.356 -13.784 117.816 -19.347 Q112.275 -24.91 104.19 -24.91 Q96.105 -24.91 90.542 -19.37 Q84.979 -13.829 84.979 -5.744 Q84.979 2.341 90.519 7.904 Q96.06 13.468 104.145 13.468 Z M104.168 17.015 Q94.694 17.015 88.063 10.375 Q81.431 3.736 81.431 -5.75 Q81.431 -15.235 88.071 -21.846 Q94.711 -28.457 104.196 -28.457 Q113.681 -28.457 120.293 -21.826 Q126.904 -15.195 126.904 -5.721 Q126.904 -1.585 125.453 2.232 Q124.001 6.05 121.421 9.114 L138.352 26.045 Q138.836 26.529 138.836 27.174 Q138.836 27.819 138.352 28.303 Q137.869 28.786 137.116 28.786 Q136.364 28.786 135.934 28.303 L119.002 11.533 Q115.939 14.113 112.121 15.564 Q108.303 17.015 104.168 17.015 Z"/></g><g id="Bold-M" transform="matrix(1 0 0 1 2281.8 1126)"><path d="M44.375 -10.23 Q41.625 -10.23 39.688 -12.167 Q37.75 -14.105 37.75 -16.855 Q37.75 -19.605 39.688 -21.542 Q41.625 -23.48 44.375 -23.48 H47.125 Q49.875 -23.48 51.812 -21.542 Q53.75 -19.605 53.75 -16.855 Q53.75 -14.105 51.812 -12.167 Q49.875 -10.23 47.125 -10.23 H44.375 Z M39.5 19.02 Q27.375 19.02 19.062 10.464 Q10.75 1.909 10.75 -10.23 V-50.98 Q6.375 -52.23 3.312 -55.48 Q0.25 -58.73 0.25 -63.105 V-76.855 Q0.25 -82.23 4.179 -85.855 Q8.108 -89.48 13.625 -89.48 H65.5 Q70.966 -89.48 74.858 -85.855 Q78.75 -82.23 78.75 -76.855 V-63.105 Q78.75 -58.73 75.688 -55.48 Q72.625 -52.23 68.25 -50.98 V-45.48 Q68.25 -38.855 63.688 -34.292 Q59.125 -29.73 52.5 -29.73 H44.375 Q41.625 -29.73 39.688 -31.667 Q37.75 -33.605 37.75 -36.355 Q37.75 -39.105 39.688 -41.042 Q41.625 -42.98 44.375 -42.98 H53.75 V-50.48 H25.25 V-10.23 Q25.25 -4.23 29.406 0.145 Q33.562 4.52 39.5 4.52 Q40.868 4.52 42.121 4.27 Q43.375 4.02 44.625 3.52 Q47.5 2.395 50.5 3.27 Q53.5 4.145 54.875 6.895 Q56.25 9.395 55.562 12.083 Q54.875 14.77 52.375 16.02 Q49.5 17.52 46.25 18.27 Q43 19.02 39.5 19.02 Z M14.75 -64.98 H64.25 Q64.25 -64.98 64.25 -64.98 Q64.25 -64.98 64.25 -64.98 V-74.98 Q64.25 -74.98 64.25 -74.98 Q64.25 -74.98 64.25 -74.98 H14.75 Q14.75 -74.98 14.75 -74.98 Q14.75 -74.98 14.75 -74.98 V-64.98 Q14.75 -64.98 14.75 -64.98 Q14.75 -64.98 14.75 -64.98 Z M83.845 -3.105 Q87.875 -3.105 90.688 -5.888 Q93.5 -8.67 93.5 -12.7 Q93.5 -16.73 90.717 -19.542 Q87.935 -22.355 83.905 -22.355 Q79.875 -22.355 77.062 -19.572 Q74.25 -16.79 74.25 -12.76 Q74.25 -8.73 77.033 -5.917 Q79.815 -3.105 83.845 -3.105 Z M83.875 12.645 Q73.302 12.645 65.901 5.244 Q58.5 -2.157 58.5 -12.73 Q58.5 -23.303 65.901 -30.704 Q73.302 -38.105 83.875 -38.105 Q94.448 -38.105 101.849 -30.704 Q109.25 -23.303 109.25 -12.73 Q109.25 -9.73 108.562 -6.855 Q107.875 -3.98 106.5 -1.23 L115 7.27 Q117.375 9.645 117.375 12.77 Q117.375 15.895 115 18.27 Q112.625 20.645 109.438 20.645 Q106.25 20.645 103.875 18.27 L95.375 9.895 Q92.625 11.27 89.75 11.958 Q86.875 12.645 83.875 12.645 Z"/></g><g id="Semibold-M" transform="matrix(1 0 0 1 1985.97 1126)"><path d="M44.647 -10.23 Q42.169 -10.23 40.448 -11.95 Q38.728 -13.67 38.728 -16.148 Q38.728 -18.627 40.448 -20.347 Q42.169 -22.067 44.647 -22.067 H48.375 Q50.853 -22.067 52.573 -20.347 Q54.294 -18.627 54.294 -16.148 Q54.294 -13.67 52.573 -11.95 Q50.853 -10.23 48.375 -10.23 H44.647 Z M39.717 17.172 Q28.353 17.172 20.476 9.157 Q12.598 1.142 12.598 -10.23 V-52.828 Q8.331 -53.534 5.323 -56.648 Q2.315 -59.762 2.315 -64.029 V-76.148 Q2.315 -80.98 5.813 -84.306 Q9.311 -87.632 14.223 -87.632 H65.283 Q70.165 -87.632 73.642 -84.306 Q77.12 -80.98 77.12 -76.148 V-64.029 Q77.12 -59.762 74.112 -56.648 Q71.103 -53.534 66.837 -52.828 V-43.197 Q66.837 -37.659 62.981 -33.803 Q59.125 -29.947 53.587 -29.947 H44.647 Q42.169 -29.947 40.448 -31.667 Q38.728 -33.388 38.728 -35.866 Q38.728 -38.344 40.448 -40.064 Q42.169 -41.784 44.647 -41.784 H54.294 V-52.545 H25.141 V-10.23 Q25.141 -4.121 29.393 0.254 Q33.644 4.629 39.717 4.629 Q41.469 4.629 43.074 4.216 Q44.679 3.803 46.147 3.031 Q48.478 1.96 50.989 2.672 Q53.5 3.384 54.712 5.699 Q55.978 7.873 55.372 10.289 Q54.766 12.705 52.592 13.901 Q49.717 15.509 46.495 16.341 Q43.272 17.172 39.717 17.172 Z M14.859 -65.089 H64.576 Q64.576 -65.089 64.576 -65.089 Q64.576 -65.089 64.576 -65.089 V-75.089 Q64.576 -75.089 64.576 -75.089 Q64.576 -75.089 64.576 -75.089 H14.859 Q14.859 -75.089 14.859 -75.089 Q14.859 -75.089 14.859 -75.089 V-65.089 Q14.859 -65.089 14.859 -65.089 Q14.859 -65.089 14.859 -65.089 Z M83.26 -1.855 Q87.821 -1.855 90.986 -5.004 Q94.152 -8.153 94.152 -12.713 Q94.152 -17.273 91.003 -20.439 Q87.855 -23.605 83.294 -23.605 Q78.734 -23.605 75.568 -20.456 Q72.402 -17.307 72.402 -12.747 Q72.402 -8.186 75.551 -5.021 Q78.7 -1.855 83.26 -1.855 Z M83.277 11.395 Q73.225 11.395 66.189 4.359 Q59.152 -2.678 59.152 -12.73 Q59.152 -22.782 66.189 -29.819 Q73.225 -36.855 83.277 -36.855 Q93.329 -36.855 100.366 -29.819 Q107.402 -22.782 107.402 -12.73 Q107.402 -9.621 106.633 -6.692 Q105.864 -3.763 104.326 -1.013 L113.478 8.14 Q115.419 10.08 115.419 12.77 Q115.419 15.46 113.478 17.401 Q111.538 19.341 108.812 19.341 Q106.087 19.341 104.147 17.401 L94.995 8.319 Q92.245 9.857 89.315 10.626 Q86.386 11.395 83.277 11.395 Z"/></g><g id="Medium-M" transform="matrix(1 0 0 1 1689.91 1126)"><path d="M44.85 -10.23 Q42.576 -10.23 41.019 -11.787 Q39.462 -13.344 39.462 -15.619 Q39.462 -17.893 41.019 -19.45 Q42.576 -21.007 44.85 -21.007 H49.312 Q51.587 -21.007 53.144 -19.45 Q54.701 -17.893 54.701 -15.619 Q54.701 -13.344 53.144 -11.787 Q51.587 -10.23 49.312 -10.23 H44.85 Z M39.88 15.786 Q29.087 15.786 21.535 8.177 Q13.984 0.567 13.984 -10.23 V-54.214 Q9.799 -54.513 6.832 -57.525 Q3.864 -60.537 3.864 -64.722 V-75.619 Q3.864 -80.042 7.039 -83.144 Q10.213 -86.246 14.671 -86.246 H65.12 Q69.565 -86.246 72.731 -83.144 Q75.897 -80.042 75.897 -75.619 V-64.722 Q75.897 -60.537 72.929 -57.525 Q69.962 -54.513 65.777 -54.214 V-41.485 Q65.777 -36.763 62.451 -33.436 Q59.125 -30.11 54.402 -30.11 H44.85 Q42.576 -30.11 41.019 -31.667 Q39.462 -33.225 39.462 -35.499 Q39.462 -37.773 41.019 -39.33 Q42.576 -40.888 44.85 -40.888 H54.701 V-54.094 H25.06 V-10.23 Q25.06 -4.04 29.383 0.335 Q33.705 4.71 39.88 4.71 Q41.919 4.71 43.788 4.175 Q45.658 3.64 47.288 2.664 Q49.212 1.634 51.356 2.224 Q53.5 2.814 54.59 4.803 Q55.775 6.732 55.23 8.944 Q54.685 11.156 52.755 12.311 Q49.88 14.001 46.678 14.894 Q43.475 15.786 39.88 15.786 Z M14.94 -65.17 H64.821 Q64.821 -65.17 64.821 -65.17 Q64.821 -65.17 64.821 -65.17 V-75.17 Q64.821 -75.17 64.821 -75.17 Q64.821 -75.17 64.821 -75.17 H14.94 Q14.94 -75.17 14.94 -75.17 Q14.94 -75.17 14.94 -75.17 V-65.17 Q14.94 -65.17 14.94 -65.17 Q14.94 -65.17 14.94 -65.17 Z M82.822 -0.917 Q87.78 -0.917 91.211 -4.341 Q94.641 -7.765 94.641 -12.723 Q94.641 -17.681 91.218 -21.112 Q87.794 -24.542 82.836 -24.542 Q77.878 -24.542 74.447 -21.119 Q71.016 -17.695 71.016 -12.737 Q71.016 -7.779 74.44 -4.348 Q77.863 -0.917 82.822 -0.917 Z M82.829 10.458 Q73.167 10.458 66.404 3.695 Q59.641 -3.068 59.641 -12.73 Q59.641 -22.391 66.404 -29.154 Q73.167 -35.917 82.829 -35.917 Q92.49 -35.917 99.253 -29.154 Q106.016 -22.391 106.016 -12.73 Q106.016 -9.54 105.186 -6.57 Q104.356 -3.6 102.696 -0.85 L112.337 8.792 Q113.951 10.406 113.951 12.77 Q113.951 15.134 112.337 16.748 Q110.723 18.362 108.344 18.362 Q105.965 18.362 104.35 16.748 L94.709 7.137 Q91.959 8.797 88.989 9.627 Q86.019 10.458 82.829 10.458 Z"/></g><g id="Regular-M" transform="matrix(1 0 0 1 1394.06 1126)"><path d="M45 -10.23 Q42.875 -10.23 41.438 -11.667 Q40 -13.105 40 -15.23 Q40 -17.355 41.438 -18.792 Q42.875 -20.23 45 -20.23 H50 Q52.125 -20.23 53.562 -18.792 Q55 -17.355 55 -15.23 Q55 -13.105 53.562 -11.667 Q52.125 -10.23 50 -10.23 H45 Z M40 14.77 Q29.625 14.77 22.312 7.458 Q15 0.145 15 -10.23 V-55.23 Q10.875 -55.23 7.938 -58.167 Q5 -61.105 5 -65.23 V-75.23 Q5 -79.355 7.938 -82.292 Q10.875 -85.23 15 -85.23 H65 Q69.125 -85.23 72.062 -82.292 Q75 -79.355 75 -75.23 V-65.23 Q75 -61.105 72.062 -58.167 Q69.125 -55.23 65 -55.23 V-40.23 Q65 -36.105 62.062 -33.167 Q59.125 -30.23 55 -30.23 H45 Q42.875 -30.23 41.438 -31.667 Q40 -33.105 40 -35.23 Q40 -37.355 41.438 -38.792 Q42.875 -40.23 45 -40.23 H55 V-55.23 H25 V-10.23 Q25 -3.98 29.375 0.395 Q33.75 4.77 40 4.77 Q42.25 4.77 44.312 4.145 Q46.375 3.52 48.125 2.395 Q49.75 1.395 51.625 1.895 Q53.5 2.395 54.5 4.145 Q55.625 5.895 55.125 7.958 Q54.625 10.02 52.875 11.145 Q50 12.895 46.812 13.833 Q43.625 14.77 40 14.77 Z M15 -65.23 H65 Q65 -65.23 65 -65.23 Q65 -65.23 65 -65.23 V-75.23 Q65 -75.23 65 -75.23 Q65 -75.23 65 -75.23 H15 Q15 -75.23 15 -75.23 Q15 -75.23 15 -75.23 V-65.23 Q15 -65.23 15 -65.23 Q15 -65.23 15 -65.23 Z M82.5 -0.23 Q87.75 -0.23 91.375 -3.855 Q95 -7.48 95 -12.73 Q95 -17.98 91.375 -21.605 Q87.75 -25.23 82.5 -25.23 Q77.25 -25.23 73.625 -21.605 Q70 -17.98 70 -12.73 Q70 -7.48 73.625 -3.855 Q77.25 -0.23 82.5 -0.23 Z M82.5 9.77 Q73.125 9.77 66.562 3.208 Q60 -3.355 60 -12.73 Q60 -22.105 66.562 -28.667 Q73.125 -35.23 82.5 -35.23 Q91.875 -35.23 98.438 -28.667 Q105 -22.105 105 -12.73 Q105 -9.48 104.125 -6.48 Q103.25 -3.48 101.5 -0.73 L111.5 9.27 Q112.875 10.645 112.875 12.77 Q112.875 14.895 111.5 16.27 Q110.125 17.645 108 17.645 Q105.875 17.645 104.5 16.27 L94.5 6.27 Q91.75 8.02 88.75 8.895 Q85.75 9.77 82.5 9.77 Z"/></g><g id="Light-M" transform="matrix(1 0 0 1 1098.18 1126)"><path d="M44.952 -12.778 Q43.358 -12.778 42.28 -13.857 Q41.202 -14.935 41.202 -16.53 Q41.202 -18.124 42.28 -19.201 Q43.358 -20.278 44.952 -20.278 H52.933 Q54.527 -20.278 55.605 -19.199 Q56.683 -18.121 56.683 -16.526 Q56.683 -14.932 55.605 -13.855 Q54.527 -12.778 52.933 -12.778 H44.952 Z M40.865 12.27 Q31.169 12.27 24.334 5.51 Q17.5 -1.249 17.5 -10.903 V-56.095 Q13.712 -56.095 11.039 -58.744 Q8.366 -61.393 8.366 -65.182 V-73.595 Q8.366 -77.363 11.049 -80.046 Q13.732 -82.73 17.5 -82.73 H64.183 Q67.971 -82.73 70.668 -80.046 Q73.365 -77.363 73.365 -73.595 V-65.182 Q73.365 -61.393 70.668 -58.744 Q67.971 -56.095 64.183 -56.095 V-41.432 Q64.183 -37.704 61.528 -35.049 Q58.873 -32.394 55.144 -32.394 H44.952 Q43.358 -32.394 42.28 -33.472 Q41.202 -34.551 41.202 -36.145 Q41.202 -37.74 42.28 -38.816 Q43.358 -39.893 44.952 -39.893 H56.683 V-56.095 H25 V-10.903 Q25 -4.317 29.631 0.227 Q34.262 4.77 40.878 4.77 Q43.26 4.77 45.442 4.121 Q47.625 3.472 49.519 2.251 Q50.76 1.491 52.178 1.847 Q53.596 2.203 54.347 3.52 Q55.192 4.837 54.815 6.39 Q54.437 7.942 53.115 8.789 Q50.385 10.443 47.35 11.356 Q44.316 12.27 40.865 12.27 Z M17.5 -63.595 H64.183 Q64.856 -63.595 65.361 -64.052 Q65.865 -64.509 65.865 -65.182 V-73.595 Q65.865 -74.268 65.361 -74.749 Q64.856 -75.23 64.183 -75.23 H17.5 Q16.827 -75.23 16.346 -74.749 Q15.866 -74.268 15.866 -73.595 V-65.182 Q15.866 -64.509 16.346 -64.052 Q16.827 -63.595 17.5 -63.595 Z M81.683 0.539 Q87.221 0.539 91.087 -3.326 Q94.952 -7.191 94.952 -12.73 Q94.952 -18.268 91.087 -22.134 Q87.221 -25.999 81.683 -25.999 Q76.144 -25.999 72.279 -22.134 Q68.413 -18.268 68.413 -12.73 Q68.413 -7.191 72.279 -3.326 Q76.144 0.539 81.683 0.539 Z M81.683 8.039 Q73.029 8.039 66.971 1.982 Q60.913 -4.076 60.913 -12.73 Q60.913 -21.384 66.971 -27.441 Q73.029 -33.499 81.683 -33.499 Q90.336 -33.499 96.394 -27.441 Q102.452 -21.384 102.452 -12.73 Q102.452 -9.514 101.505 -6.545 Q100.558 -3.576 98.711 -0.922 L109.817 10.184 Q110.856 11.222 110.856 12.77 Q110.856 14.318 109.817 15.357 Q108.779 16.395 107.199 16.395 Q105.619 16.395 104.596 15.357 L93.49 4.299 Q90.837 6.145 87.868 7.092 Q84.899 8.039 81.683 8.039 Z"/></g><g id="Thin-M" transform="matrix(1 0 0 1 802.565 1126)"><path d="M44.904 -15.326 Q43.841 -15.326 43.123 -16.046 Q42.404 -16.766 42.404 -17.829 Q42.404 -18.893 43.123 -19.61 Q43.841 -20.326 44.904 -20.326 H55.865 Q56.928 -20.326 57.647 -19.606 Q58.365 -18.887 58.365 -17.823 Q58.365 -16.759 57.647 -16.042 Q56.928 -15.326 55.865 -15.326 H44.904 Z M41.731 9.77 Q32.712 9.77 26.356 3.563 Q20 -2.643 20 -11.576 V-56.961 Q16.548 -56.961 14.139 -59.321 Q11.731 -61.682 11.731 -65.134 V-71.961 Q11.731 -75.372 14.16 -77.801 Q16.589 -80.23 20 -80.23 H63.365 Q66.816 -80.23 69.273 -77.801 Q71.731 -75.372 71.731 -71.961 V-65.134 Q71.731 -61.682 69.273 -59.321 Q66.816 -56.961 63.365 -56.961 V-42.634 Q63.365 -39.302 60.993 -36.929 Q58.62 -34.557 55.288 -34.557 H44.904 Q43.841 -34.557 43.123 -35.277 Q42.404 -35.996 42.404 -37.06 Q42.404 -38.124 43.123 -38.841 Q43.841 -39.557 44.904 -39.557 H58.365 V-56.961 H25 V-11.576 Q25 -4.653 29.887 0.059 Q34.774 4.77 41.756 4.77 Q44.269 4.77 46.572 4.097 Q48.875 3.424 50.913 2.107 Q51.769 1.587 52.731 1.799 Q53.692 2.01 54.195 2.895 Q54.76 3.78 54.504 4.822 Q54.249 5.865 53.356 6.434 Q50.769 7.991 47.888 8.881 Q45.007 9.77 41.731 9.77 Z M20 -61.961 H63.365 Q64.712 -61.961 65.721 -62.874 Q66.731 -63.788 66.731 -65.134 V-71.961 Q66.731 -73.307 65.721 -74.268 Q64.712 -75.23 63.365 -75.23 H20 Q18.654 -75.23 17.692 -74.268 Q16.731 -73.307 16.731 -71.961 V-65.134 Q16.731 -63.788 17.692 -62.874 Q18.654 -61.961 20 -61.961 Z M80.865 1.309 Q86.692 1.309 90.798 -2.797 Q94.904 -6.903 94.904 -12.73 Q94.904 -18.557 90.798 -22.663 Q86.692 -26.768 80.865 -26.768 Q75.038 -26.768 70.933 -22.663 Q66.827 -18.557 66.827 -12.73 Q66.827 -6.903 70.933 -2.797 Q75.038 1.309 80.865 1.309 Z M80.865 6.309 Q72.933 6.309 67.38 0.756 Q61.827 -4.797 61.827 -12.73 Q61.827 -20.663 67.38 -26.216 Q72.933 -31.768 80.865 -31.768 Q88.798 -31.768 94.351 -26.216 Q99.904 -20.663 99.904 -12.73 Q99.904 -9.548 98.885 -6.61 Q97.865 -3.672 95.923 -1.115 L108.135 11.097 Q108.837 11.799 108.837 12.77 Q108.837 13.741 108.135 14.443 Q107.433 15.145 106.397 15.145 Q105.362 15.145 104.692 14.443 L92.481 2.328 Q89.923 4.27 86.986 5.289 Q84.048 6.309 80.865 6.309 Z"/></g><g id="Ultralight-M" transform="matrix(1 0 0 1 506.415 1126)"><path d="M44.875 -16.855 Q44.131 -16.855 43.628 -17.359 Q43.125 -17.864 43.125 -18.609 Q43.125 -19.355 43.628 -19.855 Q44.131 -20.355 44.875 -20.355 H57.625 Q58.369 -20.355 58.872 -19.851 Q59.375 -19.346 59.375 -18.601 Q59.375 -17.855 58.872 -17.355 Q58.369 -16.855 57.625 -16.855 H44.875 Z M42.25 8.27 Q33.639 8.27 27.569 2.395 Q21.5 -3.48 21.5 -11.98 V-57.48 Q18.25 -57.48 16 -59.667 Q13.75 -61.855 13.75 -65.105 V-70.98 Q13.75 -74.177 16.026 -76.453 Q18.303 -78.73 21.5 -78.73 H62.875 Q66.123 -78.73 68.437 -76.453 Q70.75 -74.177 70.75 -70.98 V-65.105 Q70.75 -61.855 68.437 -59.667 Q66.123 -57.48 62.875 -57.48 V-43.355 Q62.875 -40.261 60.672 -38.058 Q58.469 -35.855 55.375 -35.855 H44.875 Q44.131 -35.855 43.628 -36.359 Q43.125 -36.864 43.125 -37.609 Q43.125 -38.355 43.628 -38.855 Q44.131 -39.355 44.875 -39.355 H59.375 V-57.48 H25 V-11.98 Q25 -4.855 30.041 -0.042 Q35.081 4.77 42.283 4.77 Q44.875 4.77 47.25 4.083 Q49.625 3.395 51.75 2.02 Q52.375 1.645 53.062 1.77 Q53.75 1.895 54.103 2.52 Q54.5 3.145 54.318 3.882 Q54.136 4.618 53.5 5.02 Q51 6.52 48.211 7.395 Q45.422 8.27 42.25 8.27 Z M21.5 -60.98 H62.875 Q64.625 -60.98 65.938 -62.167 Q67.25 -63.355 67.25 -65.105 V-70.98 Q67.25 -72.73 65.938 -73.98 Q64.625 -75.23 62.875 -75.23 H21.5 Q19.75 -75.23 18.5 -73.98 Q17.25 -72.73 17.25 -70.98 V-65.105 Q17.25 -63.355 18.5 -62.167 Q19.75 -60.98 21.5 -60.98 Z M80.375 1.77 Q86.375 1.77 90.625 -2.48 Q94.875 -6.73 94.875 -12.73 Q94.875 -18.73 90.625 -22.98 Q86.375 -27.23 80.375 -27.23 Q74.375 -27.23 70.125 -22.98 Q65.875 -18.73 65.875 -12.73 Q65.875 -6.73 70.125 -2.48 Q74.375 1.77 80.375 1.77 Z M80.375 5.27 Q72.875 5.27 67.625 0.02 Q62.375 -5.23 62.375 -12.73 Q62.375 -20.23 67.625 -25.48 Q72.875 -30.73 80.375 -30.73 Q87.875 -30.73 93.125 -25.48 Q98.375 -20.23 98.375 -12.73 Q98.375 -9.568 97.312 -6.649 Q96.25 -3.73 94.25 -1.23 L107.125 11.645 Q107.625 12.145 107.625 12.77 Q107.625 13.395 107.125 13.895 Q106.625 14.395 105.917 14.395 Q105.208 14.395 104.75 13.895 L91.875 1.145 Q89.375 3.145 86.456 4.208 Q83.537 5.27 80.375 5.27 Z"/></g><g id="Bold-S" transform="matrix(1 0 0 1 2294.23 696)"><path d="M36.195 -16.294 Q34.193 -16.294 32.778 -17.703 Q31.363 -19.113 31.363 -21.106 Q31.363 -23.099 32.778 -24.529 Q34.193 -25.959 36.195 -25.959 H39.154 Q41.156 -25.959 42.571 -24.55 Q43.987 -23.141 43.987 -21.147 Q43.987 -19.154 42.571 -17.724 Q41.156 -16.294 39.154 -16.294 H36.195 Z M32.744 5.995 Q23.504 5.995 17.177 -0.524 Q10.849 -7.044 10.849 -16.294 V-46.079 Q7.693 -47.065 5.523 -49.397 Q3.353 -51.73 3.353 -54.856 V-67.283 Q3.353 -71.199 6.221 -73.827 Q9.089 -76.455 13.117 -76.455 H52.468 Q56.455 -76.455 59.295 -73.827 Q62.134 -71.199 62.134 -67.283 V-54.856 Q62.134 -51.73 59.949 -49.397 Q57.765 -47.065 54.638 -46.079 V-41.739 Q54.638 -36.838 51.27 -33.47 Q47.902 -30.101 43.001 -30.101 H36.195 Q34.193 -30.101 32.778 -31.511 Q31.363 -32.92 31.363 -34.913 Q31.363 -36.907 32.778 -38.337 Q34.193 -39.767 36.195 -39.767 H43.987 V-45.684 H21.5 V-16.294 Q21.5 -11.56 24.78 -8.108 Q28.059 -4.656 32.744 -4.656 Q34.316 -4.656 35.551 -5.1 Q36.787 -5.544 37.773 -6.234 Q39.845 -7.22 42.064 -6.875 Q44.283 -6.53 45.565 -4.755 Q46.847 -3.078 46.551 -1.106 Q46.255 0.867 44.579 2.149 Q42.606 4.22 39.056 5.108 Q35.505 5.995 32.744 5.995 Z M14.005 -56.336 H51.482 Q51.482 -56.336 51.482 -56.336 Q51.482 -56.336 51.482 -56.336 V-65.804 Q51.482 -65.804 51.482 -65.804 Q51.482 -65.804 51.482 -65.804 H14.005 Q14.005 -65.804 14.005 -65.804 Q14.005 -65.804 14.005 -65.804 V-56.336 Q14.005 -56.336 14.005 -56.336 Q14.005 -56.336 14.005 -56.336 Z M67.315 -9.094 Q70.32 -9.094 72.44 -11.169 Q74.561 -13.244 74.561 -16.248 Q74.561 -19.253 72.486 -21.373 Q70.411 -23.494 67.407 -23.494 Q64.402 -23.494 62.282 -21.419 Q60.161 -19.344 60.161 -16.34 Q60.161 -13.335 62.236 -11.215 Q64.31 -9.094 67.315 -9.094 Z M67.338 2.543 Q59.499 2.543 54.011 -2.951 Q48.524 -8.445 48.524 -16.294 Q48.524 -24.143 54.018 -29.637 Q59.512 -35.131 67.361 -35.131 Q75.21 -35.131 80.704 -29.644 Q86.198 -24.156 86.198 -16.317 Q86.198 -14.124 85.705 -11.905 Q85.212 -9.686 84.226 -7.714 L90.242 -1.697 Q92.116 0.176 92.116 2.346 Q92.116 4.516 90.242 6.39 Q88.368 8.264 86.1 8.264 Q83.831 8.264 81.957 6.39 L75.941 0.571 Q73.969 1.557 71.75 2.05 Q69.531 2.543 67.338 2.543 Z"/></g><g id="Semibold-S" transform="matrix(1 0 0 1 1998.1 696)"><path d="M36.41 -16.294 Q34.622 -16.294 33.378 -17.532 Q32.135 -18.77 32.135 -20.548 Q32.135 -22.327 33.378 -23.586 Q34.622 -24.844 36.41 -24.844 H40.14 Q41.928 -24.844 43.172 -23.607 Q44.416 -22.369 44.416 -20.59 Q44.416 -18.811 43.172 -17.553 Q41.928 -16.294 40.14 -16.294 H36.41 Z M32.915 4.537 Q24.276 4.537 18.291 -1.556 Q12.307 -7.649 12.307 -16.294 V-47.537 Q9.236 -48.094 7.109 -50.319 Q4.983 -52.545 4.983 -55.585 V-66.726 Q4.983 -70.212 7.511 -72.605 Q10.039 -74.997 13.589 -74.997 H52.297 Q55.824 -74.997 58.336 -72.605 Q60.847 -70.212 60.847 -66.726 V-55.585 Q60.847 -52.545 58.706 -50.319 Q56.564 -48.094 53.523 -47.537 V-39.938 Q53.523 -35.894 50.713 -33.084 Q47.902 -30.273 43.858 -30.273 H36.41 Q34.622 -30.273 33.378 -31.511 Q32.135 -32.749 32.135 -34.527 Q32.135 -36.306 33.378 -37.565 Q34.622 -38.823 36.41 -38.823 H44.416 V-47.314 H21.414 V-16.294 Q21.414 -11.474 24.769 -8.022 Q28.123 -4.57 32.915 -4.57 Q34.79 -4.57 36.303 -5.143 Q37.816 -5.715 38.974 -6.62 Q40.616 -7.564 42.449 -7.347 Q44.283 -7.13 45.436 -5.698 Q46.632 -4.279 46.401 -2.521 Q46.169 -0.763 44.75 0.477 Q42.778 2.634 39.248 3.585 Q35.719 4.537 32.915 4.537 Z M14.091 -56.422 H51.74 Q51.74 -56.422 51.74 -56.422 Q51.74 -56.422 51.74 -56.422 V-65.89 Q51.74 -65.89 51.74 -65.89 Q51.74 -65.89 51.74 -65.89 H14.091 Q14.091 -65.89 14.091 -65.89 Q14.091 -65.89 14.091 -65.89 V-56.422 Q14.091 -56.422 14.091 -56.422 Q14.091 -56.422 14.091 -56.422 Z M66.854 -8.108 Q70.277 -8.108 72.676 -10.472 Q75.075 -12.835 75.075 -16.258 Q75.075 -19.682 72.711 -22.081 Q70.348 -24.48 66.925 -24.48 Q63.502 -24.48 61.103 -22.116 Q58.703 -19.753 58.703 -16.33 Q58.703 -12.906 61.067 -10.507 Q63.431 -8.108 66.854 -8.108 Z M66.866 1.557 Q59.438 1.557 54.238 -3.649 Q49.038 -8.856 49.038 -16.294 Q49.038 -23.732 54.245 -28.939 Q59.451 -34.145 66.889 -34.145 Q74.327 -34.145 79.534 -28.945 Q84.74 -23.745 84.74 -16.317 Q84.74 -14.038 84.183 -11.777 Q83.626 -9.515 82.511 -7.542 L89.041 -1.011 Q90.572 0.519 90.572 2.346 Q90.572 4.173 89.041 5.704 Q87.51 7.235 85.606 7.235 Q83.703 7.235 82.172 5.704 L75.641 -0.673 Q73.669 0.442 71.407 1 Q69.145 1.557 66.866 1.557 Z"/></g><g id="Medium-S" transform="matrix(1 0 0 1 1701.85 696)"><path d="M36.571 -16.294 Q34.944 -16.294 33.829 -17.403 Q32.714 -18.512 32.714 -20.13 Q32.714 -21.748 33.829 -22.878 Q34.944 -24.008 36.571 -24.008 H40.88 Q42.507 -24.008 43.622 -22.899 Q44.737 -21.79 44.737 -20.172 Q44.737 -18.554 43.622 -17.424 Q42.507 -16.294 40.88 -16.294 H36.571 Z M33.044 3.444 Q24.855 3.444 19.128 -2.329 Q13.4 -8.103 13.4 -16.294 V-48.63 Q10.394 -48.866 8.299 -51.011 Q6.205 -53.156 6.205 -56.132 V-66.308 Q6.205 -69.473 8.478 -71.688 Q10.751 -73.904 13.943 -73.904 H52.168 Q55.35 -73.904 57.617 -71.688 Q59.883 -69.473 59.883 -66.308 V-56.132 Q59.883 -53.156 57.773 -51.011 Q55.664 -48.866 52.687 -48.63 V-38.588 Q52.687 -35.187 50.295 -32.794 Q47.902 -30.402 44.501 -30.402 H36.571 Q34.944 -30.402 33.829 -31.511 Q32.714 -32.62 32.714 -34.238 Q32.714 -35.856 33.829 -36.986 Q34.944 -38.116 36.571 -38.116 H44.737 V-48.536 H21.35 V-16.294 Q21.35 -11.41 24.761 -7.958 Q28.171 -4.506 33.044 -4.506 Q35.146 -4.506 36.867 -5.175 Q38.588 -5.844 39.874 -6.91 Q41.195 -7.821 42.739 -7.701 Q44.283 -7.581 45.34 -6.406 Q46.472 -5.179 46.288 -3.582 Q46.105 -1.985 44.879 -0.778 Q42.906 1.444 39.393 2.444 Q35.88 3.444 33.044 3.444 Z M14.155 -56.486 H51.932 Q51.932 -56.486 51.932 -56.486 Q51.932 -56.486 51.932 -56.486 V-65.954 Q51.932 -65.954 51.932 -65.954 Q51.932 -65.954 51.932 -65.954 H14.155 Q14.155 -65.954 14.155 -65.954 Q14.155 -65.954 14.155 -65.954 V-56.486 Q14.155 -56.486 14.155 -56.486 Q14.155 -56.486 14.155 -56.486 Z M66.508 -7.368 Q70.245 -7.368 72.853 -9.949 Q75.461 -12.529 75.461 -16.266 Q75.461 -20.003 72.881 -22.611 Q70.3 -25.22 66.563 -25.22 Q62.826 -25.22 60.218 -22.639 Q57.61 -20.059 57.61 -16.322 Q57.61 -12.585 60.19 -9.977 Q62.771 -7.368 66.508 -7.368 Z M66.512 0.817 Q59.392 0.817 54.408 -4.173 Q49.424 -9.164 49.424 -16.294 Q49.424 -23.424 54.415 -28.415 Q59.406 -33.405 66.535 -33.405 Q73.665 -33.405 78.656 -28.421 Q83.647 -23.437 83.647 -16.317 Q83.647 -13.974 83.041 -11.68 Q82.436 -9.386 81.224 -7.414 L88.141 -0.497 Q89.414 0.777 89.414 2.346 Q89.414 3.916 88.141 5.189 Q86.867 6.463 85.237 6.463 Q83.606 6.463 82.333 5.189 L75.416 -1.605 Q73.443 -0.394 71.149 0.212 Q68.855 0.817 66.512 0.817 Z"/></g><g id="Regular-S" transform="matrix(1 0 0 1 1405.73 696)"><path d="M36.689 -16.294 Q35.18 -16.294 34.159 -17.309 Q33.138 -18.324 33.138 -19.824 Q33.138 -21.324 34.159 -22.359 Q35.18 -23.395 36.689 -23.395 H41.422 Q42.931 -23.395 43.952 -22.38 Q44.973 -21.365 44.973 -19.865 Q44.973 -18.365 43.952 -17.33 Q42.931 -16.294 41.422 -16.294 H36.689 Z M33.138 2.642 Q25.28 2.642 19.741 -2.897 Q14.202 -8.436 14.202 -16.294 V-49.432 Q11.243 -49.432 9.172 -51.518 Q7.101 -53.604 7.101 -56.533 V-66.001 Q7.101 -68.93 9.187 -71.016 Q11.273 -73.102 14.202 -73.102 H52.074 Q55.003 -73.102 57.089 -71.016 Q59.175 -68.93 59.175 -66.001 V-56.533 Q59.175 -53.604 57.089 -51.518 Q55.003 -49.432 52.074 -49.432 V-37.597 Q52.074 -34.668 49.988 -32.582 Q47.902 -30.496 44.973 -30.496 H36.689 Q35.18 -30.496 34.159 -31.511 Q33.138 -32.526 33.138 -34.026 Q33.138 -35.526 34.159 -36.561 Q35.18 -37.597 36.689 -37.597 H44.973 V-49.432 H21.303 V-16.294 Q21.303 -11.363 24.755 -7.911 Q28.207 -4.459 33.138 -4.459 Q35.406 -4.459 37.28 -5.199 Q39.154 -5.938 40.535 -7.122 Q41.62 -8.009 42.951 -7.96 Q44.283 -7.911 45.269 -6.925 Q46.354 -5.84 46.206 -4.36 Q46.058 -2.881 44.973 -1.697 Q43.001 0.571 39.499 1.606 Q35.998 2.642 33.138 2.642 Z M14.202 -56.533 H52.074 Q52.074 -56.533 52.074 -56.533 Q52.074 -56.533 52.074 -56.533 V-66.001 Q52.074 -66.001 52.074 -66.001 Q52.074 -66.001 52.074 -66.001 H14.202 Q14.202 -66.001 14.202 -66.001 Q14.202 -66.001 14.202 -66.001 V-56.533 Q14.202 -56.533 14.202 -56.533 Q14.202 -56.533 14.202 -56.533 Z M66.254 -6.826 Q70.221 -6.826 72.983 -9.565 Q75.744 -12.305 75.744 -16.272 Q75.744 -20.239 73.005 -23 Q70.265 -25.762 66.298 -25.762 Q62.331 -25.762 59.57 -23.023 Q56.808 -20.283 56.808 -16.316 Q56.808 -12.349 59.547 -9.587 Q62.287 -6.826 66.254 -6.826 Z M66.253 0.275 Q59.359 0.275 54.533 -4.558 Q49.707 -9.39 49.707 -16.294 Q49.707 -23.198 54.54 -28.03 Q59.372 -32.863 66.276 -32.863 Q73.18 -32.863 78.012 -28.037 Q82.845 -23.211 82.845 -16.317 Q82.845 -13.927 82.204 -11.609 Q81.563 -9.292 80.281 -7.319 L87.48 -0.119 Q88.565 0.965 88.565 2.346 Q88.565 3.727 87.48 4.812 Q86.395 5.897 84.965 5.897 Q83.535 5.897 82.451 4.812 L75.251 -2.289 Q73.278 -1.007 70.961 -0.366 Q68.643 0.275 66.253 0.275 Z"/></g><g id="Light-S" transform="matrix(1 0 0 1 1109.75 696)"><path d="M36.651 -18.305 Q35.561 -18.305 34.824 -19.036 Q34.086 -19.768 34.086 -20.849 Q34.086 -21.931 34.824 -22.682 Q35.561 -23.433 36.651 -23.433 H43.737 Q44.826 -23.433 45.564 -22.701 Q46.301 -21.97 46.301 -20.888 Q46.301 -19.807 45.564 -19.056 Q44.826 -18.305 43.737 -18.305 H36.651 Z M33.821 0.669 Q26.498 0.669 21.336 -4.433 Q16.175 -9.536 16.175 -16.825 V-50.115 Q13.481 -50.115 11.619 -51.973 Q9.756 -53.831 9.756 -56.495 V-64.711 Q9.756 -67.359 11.642 -69.244 Q13.527 -71.129 16.175 -71.129 H51.429 Q54.092 -71.129 55.989 -69.244 Q57.885 -67.359 57.885 -64.711 V-56.495 Q57.885 -53.831 55.989 -51.973 Q54.092 -50.115 51.429 -50.115 V-38.545 Q51.429 -35.929 49.566 -34.066 Q47.703 -32.203 45.087 -32.203 H36.651 Q35.561 -32.203 34.824 -32.935 Q34.086 -33.666 34.086 -34.748 Q34.086 -35.829 34.824 -36.58 Q35.561 -37.331 36.651 -37.331 H46.301 V-50.115 H21.303 V-16.825 Q21.303 -11.628 24.957 -8.044 Q28.611 -4.459 33.831 -4.459 Q36.203 -4.459 38.172 -5.218 Q40.14 -5.976 41.635 -7.236 Q42.416 -7.934 43.387 -7.998 Q44.358 -8.063 45.148 -7.418 Q46.012 -6.674 45.961 -5.597 Q45.91 -4.52 45.163 -3.556 Q43.304 -1.364 39.924 -0.347 Q36.543 0.669 33.821 0.669 Z M16.175 -55.243 H51.429 Q51.96 -55.243 52.359 -55.604 Q52.757 -55.964 52.757 -56.495 V-64.711 Q52.757 -65.242 52.359 -65.622 Q51.96 -66.001 51.429 -66.001 H16.175 Q15.644 -66.001 15.264 -65.622 Q14.885 -65.242 14.885 -64.711 V-56.495 Q14.885 -55.964 15.264 -55.604 Q15.644 -55.243 16.175 -55.243 Z M65.609 -6.219 Q69.804 -6.219 72.755 -9.148 Q75.706 -12.077 75.706 -16.272 Q75.706 -20.467 72.777 -23.418 Q69.848 -26.369 65.653 -26.369 Q61.458 -26.369 58.507 -23.44 Q55.556 -20.511 55.556 -16.316 Q55.556 -12.121 58.485 -9.17 Q61.414 -6.219 65.609 -6.219 Z M65.608 -1.091 Q59.283 -1.091 54.855 -5.525 Q50.428 -9.959 50.428 -16.294 Q50.428 -22.629 54.862 -27.063 Q59.296 -31.497 65.631 -31.497 Q71.966 -31.497 76.4 -27.07 Q80.834 -22.642 80.834 -16.317 Q80.834 -13.954 80.136 -11.661 Q79.438 -9.367 78.081 -7.471 L86.153 0.601 Q86.972 1.421 86.972 2.346 Q86.972 3.272 86.153 4.091 Q85.333 4.91 84.333 4.91 Q83.333 4.91 82.526 4.091 L74.454 -3.845 Q72.558 -2.487 70.264 -1.789 Q67.971 -1.091 65.608 -1.091 Z"/></g><g id="Thin-S" transform="matrix(1 0 0 1 814.015 696)"><path d="M36.613 -20.315 Q35.942 -20.315 35.488 -20.763 Q35.035 -21.212 35.035 -21.875 Q35.035 -22.538 35.488 -23.004 Q35.942 -23.471 36.613 -23.471 H46.05 Q46.721 -23.471 47.175 -23.022 Q47.628 -22.574 47.628 -21.911 Q47.628 -21.248 47.175 -20.781 Q46.721 -20.315 46.05 -20.315 H36.613 Z M34.504 -1.303 Q27.716 -1.303 22.931 -5.969 Q18.147 -10.636 18.147 -17.356 V-50.798 Q15.719 -50.798 14.065 -52.428 Q12.412 -54.059 12.412 -56.457 V-63.422 Q12.412 -65.787 14.096 -67.472 Q15.781 -69.157 18.147 -69.157 H50.784 Q53.181 -69.157 54.889 -67.472 Q56.596 -65.787 56.596 -63.422 V-56.457 Q56.596 -54.059 54.889 -52.428 Q53.181 -50.798 50.784 -50.798 V-39.494 Q50.784 -37.19 49.144 -35.55 Q47.504 -33.91 45.201 -33.91 H36.613 Q35.942 -33.91 35.488 -34.358 Q35.035 -34.807 35.035 -35.47 Q35.035 -36.133 35.488 -36.599 Q35.942 -37.066 36.613 -37.066 H47.628 V-50.798 H21.303 V-17.356 Q21.303 -11.894 25.159 -8.176 Q29.015 -4.459 34.523 -4.459 Q37 -4.459 39.063 -5.237 Q41.127 -6.014 42.735 -7.35 Q43.213 -7.858 43.824 -8.036 Q44.434 -8.214 45.028 -7.911 Q45.671 -7.509 45.716 -6.834 Q45.761 -6.159 45.352 -5.415 Q43.607 -3.298 40.348 -2.301 Q37.089 -1.303 34.504 -1.303 Z M18.147 -53.954 H50.784 Q51.846 -53.954 52.643 -54.674 Q53.44 -55.395 53.44 -56.457 V-63.422 Q53.44 -64.484 52.643 -65.242 Q51.846 -66.001 50.784 -66.001 H18.147 Q17.085 -66.001 16.326 -65.242 Q15.568 -64.484 15.568 -63.422 V-56.457 Q15.568 -55.395 16.326 -54.674 Q17.085 -53.954 18.147 -53.954 Z M64.964 -5.612 Q69.387 -5.612 72.527 -8.731 Q75.668 -11.849 75.668 -16.272 Q75.668 -20.694 72.55 -23.835 Q69.431 -26.976 65.008 -26.976 Q60.586 -26.976 57.445 -23.857 Q54.305 -20.739 54.305 -16.316 Q54.305 -11.894 57.423 -8.753 Q60.542 -5.612 64.964 -5.612 Z M64.963 -2.456 Q59.207 -2.456 55.178 -6.492 Q51.148 -10.528 51.148 -16.294 Q51.148 -22.06 55.184 -26.096 Q59.221 -30.132 64.986 -30.132 Q70.752 -30.132 74.788 -26.103 Q78.824 -22.073 78.824 -16.317 Q78.824 -13.98 78.069 -11.712 Q77.314 -9.443 75.881 -7.623 L84.825 1.322 Q85.379 1.876 85.379 2.346 Q85.379 2.816 84.825 3.37 Q84.271 3.924 83.701 3.924 Q83.131 3.924 82.602 3.37 L73.658 -5.4 Q71.837 -3.966 69.568 -3.211 Q67.3 -2.456 64.963 -2.456 Z"/></g><g id="Ultralight-S" transform="matrix(1 0 0 1 517.792 696)"><path d="M36.59 -21.521 Q36.171 -21.521 35.887 -21.8 Q35.604 -22.078 35.604 -22.49 Q35.604 -22.902 35.887 -23.198 Q36.171 -23.494 36.59 -23.494 H47.439 Q47.858 -23.494 48.141 -23.215 Q48.425 -22.936 48.425 -22.525 Q48.425 -22.113 48.141 -21.817 Q47.858 -21.521 47.439 -21.521 H36.59 Z M34.913 -2.486 Q28.446 -2.486 23.888 -6.891 Q19.331 -11.296 19.331 -17.675 V-51.207 Q17.062 -51.207 15.533 -52.701 Q14.005 -54.196 14.005 -56.434 V-62.648 Q14.005 -64.845 15.569 -66.409 Q17.134 -67.973 19.331 -67.973 H50.397 Q52.635 -67.973 54.228 -66.409 Q55.822 -64.845 55.822 -62.648 V-56.434 Q55.822 -54.196 54.228 -52.701 Q52.635 -51.207 50.397 -51.207 V-40.063 Q50.397 -37.947 48.891 -36.441 Q47.384 -34.934 45.269 -34.934 H36.59 Q36.171 -34.934 35.887 -35.213 Q35.604 -35.491 35.604 -35.903 Q35.604 -36.315 35.887 -36.611 Q36.171 -36.907 36.59 -36.907 H48.425 V-51.207 H21.303 V-17.675 Q21.303 -12.053 25.28 -8.256 Q29.257 -4.459 34.939 -4.459 Q37.477 -4.459 39.598 -5.248 Q41.718 -6.037 43.395 -7.418 Q43.691 -7.812 44.085 -8.059 Q44.48 -8.305 44.956 -8.207 Q45.466 -8.009 45.569 -7.576 Q45.672 -7.143 45.466 -6.53 Q43.79 -4.459 40.603 -3.473 Q37.416 -2.486 34.913 -2.486 Z M19.331 -53.18 H50.397 Q51.778 -53.18 52.814 -54.117 Q53.849 -55.054 53.849 -56.434 V-62.648 Q53.849 -64.028 52.814 -65.015 Q51.778 -66.001 50.397 -66.001 H19.331 Q17.95 -66.001 16.963 -65.015 Q15.977 -64.028 15.977 -62.648 V-56.434 Q15.977 -55.054 16.963 -54.117 Q17.95 -53.18 19.331 -53.18 Z M64.577 -5.248 Q69.136 -5.248 72.391 -8.48 Q75.645 -11.713 75.645 -16.272 Q75.645 -20.831 72.413 -24.085 Q69.181 -27.34 64.622 -27.34 Q60.063 -27.34 56.808 -24.108 Q53.553 -20.875 53.553 -16.316 Q53.553 -11.757 56.786 -8.503 Q60.018 -5.248 64.577 -5.248 Z M64.576 -3.275 Q59.162 -3.275 55.371 -7.073 Q51.581 -10.87 51.581 -16.294 Q51.581 -21.718 55.378 -25.515 Q59.175 -29.312 64.599 -29.312 Q70.024 -29.312 73.821 -25.522 Q77.618 -21.732 77.618 -16.317 Q77.618 -13.996 76.829 -11.743 Q76.04 -9.489 74.561 -7.714 L84.029 1.754 Q84.423 2.149 84.423 2.346 Q84.423 2.543 84.029 2.938 Q83.634 3.332 83.322 3.332 Q83.009 3.332 82.648 2.938 L73.18 -6.333 Q71.404 -4.853 69.151 -4.064 Q66.897 -3.275 64.576 -3.275 Z"/></g></g></svg>