<svg xmlns="http://www.w3.org/2000/svg" version="1.1" width="3300" height="2000"><g id="Notes"><style>
    text {
      font-family: monospace;
      text-anchor: middle;
    }
    text.emphasis {
      font-weight:bold;
    }
    text.lanchor {
      text-anchor: start;
    }
  </style><rect height="2200" id="artboard" fill="white" width="3300" x="0" y="0"/><line id="" style="fill:none;stroke:black;stroke-width:0.5;" x1="263" x2="3036" y1="292" y2="292"/><text class="lanchor emphasis" transform="matrix(1 0 0 1 263 322)">Weight/Scale Variations</text><text transform="matrix(1 0 0 1 559.711 322)">Ultralight</text><text transform="matrix(1 0 0 1 856.422 322)">Thin</text><text transform="matrix(1 0 0 1 1153.13 322)">Light</text><text transform="matrix(1 0 0 1 1449.84 322)">Regular</text><text transform="matrix(1 0 0 1 1746.56 322)">Medium</text><text transform="matrix(1 0 0 1 2043.27 322)">Semibold</text><text transform="matrix(1 0 0 1 2339.98 322)">Bold</text><text transform="matrix(1 0 0 1 2636.69 322)">Heavy</text><text transform="matrix(1 0 0 1 2933.4 322)">Black</text><text id="template-version" style="text-anchor: end;" transform="matrix(1 0 0 1 3036 1933)">Template v.1.0</text><text class="lanchor" transform="matrix(1 0 0 1 263 726)">Small</text><text class="lanchor" transform="matrix(1 0 0 1 263 1156)">Medium</text><text class="lanchor" transform="matrix(1 0 0 1 263 1586)">Large</text></g><g id="Guides"><g id="H-reference" style="fill:#27AAE1;stroke:none;" transform="matrix(1 0 0 1 339 696)"><path d="M 54.9316 0 L 57.666 0 L 30.5664 -70.459 L 28.0762 -70.459 L 0.976562 0 L 3.66211 0 L 12.9395 -24.4629 L 45.7031 -24.4629 Z M 29.1992 -67.0898 L 29.4434 -67.0898 L 44.8242 -26.709 L 13.8184 -26.709 Z"/></g><line id="Baseline-S" style="fill:none;stroke:#27AAE1;opacity:1;stroke-width:0.577;" x1="263" x2="3036" y1="696" y2="696"/><line id="Capline-S" style="fill:none;stroke:#27AAE1;opacity:1;stroke-width:0.577;" x1="263" x2="3036" y1="625.541" y2="625.541"/><g id="H-reference" style="fill:#27AAE1;stroke:none;" transform="matrix(1 0 0 1 339 1126)"><path d="M 54.9316 0 L 57.666 0 L 30.5664 -70.459 L 28.0762 -70.459 L 0.976562 0 L 3.66211 0 L 12.9395 -24.4629 L 45.7031 -24.4629 Z M 29.1992 -67.0898 L 29.4434 -67.0898 L 44.8242 -26.709 L 13.8184 -26.709 Z"/></g><line id="Baseline-M" style="fill:none;stroke:#27AAE1;opacity:1;stroke-width:0.577;" x1="263" x2="3036" y1="1126" y2="1126"/><line id="Capline-M" style="fill:none;stroke:#27AAE1;opacity:1;stroke-width:0.577;" x1="263" x2="3036" y1="1055.54" y2="1055.54"/><g id="H-reference" style="fill:#27AAE1;stroke:none;" transform="matrix(1 0 0 1 339 1556)"><path d="M 54.9316 0 L 57.666 0 L 30.5664 -70.459 L 28.0762 -70.459 L 0.976562 0 L 3.66211 0 L 12.9395 -24.4629 L 45.7031 -24.4629 Z M 29.1992 -67.0898 L 29.4434 -67.0898 L 44.8242 -26.709 L 13.8184 -26.709 Z"/></g><line id="Baseline-L" style="fill:none;stroke:#27AAE1;opacity:1;stroke-width:0.577;" x1="263" x2="3036" y1="1556" y2="1556"/><line id="Capline-L" style="fill:none;stroke:#27AAE1;opacity:1;stroke-width:0.577;" x1="263" x2="3036" y1="1485.54" y2="1485.54"/><rect height="119.336" id="left-margin" style="fill:darkred;stroke:none;opacity:0.4;" width="12.4512" x="1394.06" y="1030.79"/><rect height="119.336" id="right-margin" style="fill:darkgreen;stroke:none;opacity:0.4;" width="12.4512" x="1502.5112" y="1030.79"/><rect x="1406.5112" y="1045" width="96" height="96" fill="none" stroke="blue" stroke-dasharray="5"/><rect x="1394.06" y="1030.79" width="120.9024" height="119.336" fill="none" stroke="blue"/></g><g id="Symbols"><g id="Bold-L" transform="matrix(1 0 0 1 2266 1556)"><path d="M6.853 24.513 Q3.749 24.513 1.592 22.397 Q-0.564 20.28 -0.564 17.176 V-91.184 Q-0.564 -94.268 1.592 -96.515 Q3.749 -98.762 6.853 -98.762 H89.736 Q92.747 -98.762 94.91 -96.515 Q97.073 -94.268 97.073 -91.184 V17.176 Q97.073 20.28 94.91 22.397 Q92.747 24.513 89.736 24.513 H54.261 V-1.448 H42.409 V24.513 H6.853 Z M14.351 9.598 H27.654 V-16.364 H69.176 V9.598 H82.318 V-83.847 H14.351 V9.598 Z M27.654 -28.054 H41.28 V-41.68 H27.654 V-28.054 Z M27.654 -55.789 H41.28 V-70.544 H27.654 V-55.789 Z M55.389 -28.054 H69.015 V-41.68 H55.389 V-28.054 Z M55.389 -55.789 H69.015 V-70.544 H55.389 V-55.789 Z M103.926 -35.258 Q103.926 -38.374 106.082 -40.511 Q108.239 -42.647 111.343 -42.647 H126.984 L123.437 -46.356 Q121.502 -48.775 121.583 -51.557 Q121.663 -54.338 123.679 -56.354 Q126.097 -58.772 128.96 -58.772 Q131.822 -58.772 134.241 -56.354 L150.043 -40.632 Q152.22 -38.33 152.22 -35.208 Q152.22 -32.086 150.043 -29.909 L134.079 -13.945 Q131.822 -11.694 128.839 -11.731 Q125.856 -11.768 123.679 -14.026 Q121.636 -16.142 121.569 -19.034 Q121.502 -21.927 123.437 -24.184 L126.984 -27.893 H111.343 Q108.239 -27.893 106.082 -30.018 Q103.926 -32.142 103.926 -35.258 Z"/></g><g id="Semibold-L" transform="matrix(1 0 0 1 1970.27 1556)"><path d="M8.816 23.672 Q6.203 23.672 4.396 21.906 Q2.59 20.14 2.59 17.527 V-89.992 Q2.59 -92.594 4.396 -94.451 Q6.203 -96.309 8.816 -96.309 H90.717 Q93.238 -96.309 95.05 -94.451 Q96.862 -92.594 96.862 -89.992 V17.527 Q96.862 20.14 95.05 21.906 Q93.238 23.672 90.717 23.672 H56.784 V-2.92 H42.829 V23.672 H8.816 Z M15.052 11.21 H30.459 V-15.382 H69.246 V11.21 H84.491 V-83.847 H15.052 V11.21 Z M30.459 -29.176 H42.191 V-40.909 H30.459 V-29.176 Z M30.459 -56.07 H42.191 V-68.441 H30.459 V-56.07 Z M57.352 -29.176 H69.085 V-40.909 H57.352 V-29.176 Z M57.352 -56.07 H69.085 V-68.441 H57.352 V-56.07 Z M103.715 -35.258 Q103.715 -37.884 105.522 -39.67 Q107.328 -41.456 109.941 -41.456 H128.457 L124.068 -46.006 Q122.413 -48.004 122.424 -50.365 Q122.434 -52.726 124.169 -54.461 Q126.168 -56.459 128.574 -56.459 Q130.981 -56.459 132.979 -54.461 L147.8 -39.72 Q149.626 -37.795 149.626 -35.221 Q149.626 -32.646 147.8 -30.82 L132.888 -15.908 Q130.981 -14.008 128.488 -14.045 Q125.996 -14.082 124.169 -15.954 Q122.419 -17.746 122.416 -20.187 Q122.413 -22.628 124.068 -24.535 L128.457 -29.085 H109.941 Q107.328 -29.085 105.522 -30.859 Q103.715 -32.633 103.715 -35.258 Z"/></g><g id="Medium-L" transform="matrix(1 0 0 1 1674.31 1556)"><path d="M10.288 23.041 Q8.043 23.041 6.5 21.538 Q4.957 20.035 4.957 17.79 V-89.098 Q4.957 -91.338 6.5 -92.903 Q8.043 -94.468 10.288 -94.468 H91.453 Q93.606 -94.468 95.155 -92.903 Q96.704 -91.338 96.704 -89.098 V17.79 Q96.704 20.035 95.155 21.538 Q93.606 23.041 91.453 23.041 H58.677 V-4.025 H43.145 V23.041 H10.288 Z M15.578 12.419 H32.562 V-14.646 H69.299 V12.419 H86.122 V-83.847 H15.578 V12.419 Z M32.562 -30.017 H42.875 V-40.33 H32.562 V-30.017 Z M32.562 -56.28 H42.875 V-66.863 H32.562 V-56.28 Z M58.825 -30.017 H69.138 V-40.33 H58.825 V-30.017 Z M58.825 -56.28 H69.138 V-66.863 H58.825 V-56.28 Z M103.557 -35.258 Q103.557 -37.516 105.101 -39.039 Q106.644 -40.562 108.889 -40.562 H129.561 L124.541 -45.743 Q123.097 -47.425 123.055 -49.471 Q123.013 -51.516 124.538 -53.041 Q126.22 -54.724 128.285 -54.724 Q130.35 -54.724 132.032 -53.041 L146.117 -39.037 Q147.68 -37.393 147.68 -35.23 Q147.68 -33.067 146.117 -31.504 L131.994 -17.38 Q130.35 -15.743 128.225 -15.78 Q126.101 -15.817 124.538 -17.4 Q123.006 -18.949 123.051 -21.051 Q123.097 -23.154 124.541 -24.798 L129.561 -29.979 H108.889 Q106.644 -29.979 105.101 -31.49 Q103.557 -33.001 103.557 -35.258 Z"/></g><g id="Regular-L" transform="matrix(1 0 0 1 1378.56 1556)"><path d="M11.368 22.578 Q9.393 22.578 8.042 21.268 Q6.692 19.958 6.692 17.983 V-88.442 Q6.692 -90.418 8.042 -91.768 Q9.393 -93.119 11.368 -93.119 H91.993 Q93.876 -93.119 95.232 -91.768 Q96.589 -90.418 96.589 -88.442 V17.983 Q96.589 19.958 95.232 21.268 Q93.876 22.578 91.993 22.578 H60.066 V-4.834 H43.376 V22.578 H11.368 Z M15.964 13.306 H34.104 V-14.106 H69.338 V13.306 H87.317 V-83.847 H15.964 V13.306 Z M34.104 -30.634 H43.376 V-39.906 H34.104 V-30.634 Z M34.104 -56.434 H43.376 V-65.706 H34.104 V-56.434 Z M59.904 -30.634 H69.176 V-39.906 H59.904 V-30.634 Z M59.904 -56.434 H69.176 V-65.706 H59.904 V-56.434 Z M103.442 -35.258 Q103.442 -37.246 104.792 -38.576 Q106.143 -39.906 108.118 -39.906 H130.371 L124.888 -45.55 Q123.598 -47.001 123.517 -48.815 Q123.437 -50.629 124.808 -52 Q126.259 -53.451 128.073 -53.451 Q129.887 -53.451 131.338 -52 L144.883 -38.536 Q146.254 -37.099 146.254 -35.237 Q146.254 -33.376 144.883 -32.005 L131.338 -18.46 Q129.887 -17.016 128.032 -17.052 Q126.178 -17.089 124.808 -18.46 Q123.437 -19.831 123.517 -21.685 Q123.598 -23.539 124.888 -24.991 L130.371 -30.634 H108.118 Q106.143 -30.634 104.792 -31.953 Q103.442 -33.271 103.442 -35.258 Z"/></g><g id="Light-L" transform="matrix(1 0 0 1 1082.77 1556)"><path d="M14.407 19.415 Q12.449 19.415 11.137 18.158 Q9.824 16.902 9.824 14.943 V-85.403 Q9.824 -87.362 11.137 -88.674 Q12.449 -89.987 14.407 -89.987 H89.202 Q91.032 -89.987 92.353 -88.674 Q93.674 -87.362 93.674 -85.403 V14.943 Q93.674 16.902 92.353 18.158 Q91.032 19.415 89.202 19.415 H61.709 V-7.315 H41.888 V19.415 H14.407 Z M16.894 12.345 H34.818 V-14.385 H68.779 V12.345 H86.604 V-82.916 H16.894 V12.345 Z M34.818 -31.131 H43.376 V-39.689 H34.818 V-31.131 Z M34.818 -56.434 H43.376 V-64.993 H34.818 V-56.434 Z M60.121 -31.131 H68.68 V-39.689 H60.121 V-31.131 Z M60.121 -56.434 H68.68 V-64.993 H60.121 V-56.434 Z M104.093 -35.262 Q104.093 -36.811 105.12 -37.816 Q106.147 -38.821 107.684 -38.821 H131.549 L124.206 -46.294 Q123.195 -47.342 123.13 -48.8 Q123.065 -50.257 124.047 -51.24 Q125.111 -52.304 126.548 -52.304 Q127.985 -52.304 129.043 -51.256 L141.906 -38.474 Q143.215 -37.062 143.215 -35.235 Q143.215 -33.407 141.906 -32.098 L129.043 -19.235 Q127.949 -18.155 126.505 -18.181 Q125.062 -18.206 124.063 -19.204 Q123.003 -20.203 123.099 -21.67 Q123.195 -23.136 124.206 -24.246 L131.549 -31.751 H107.684 Q106.147 -31.751 105.12 -32.731 Q104.093 -33.712 104.093 -35.262 Z"/></g><g id="Thin-L" transform="matrix(1 0 0 1 787.282 1556)"><path d="M17.446 16.252 Q15.505 16.252 14.23 15.049 Q12.956 13.846 12.956 11.905 V-82.365 Q12.956 -84.306 14.23 -85.58 Q15.505 -86.855 17.446 -86.855 H86.411 Q88.189 -86.855 89.474 -85.58 Q90.759 -84.306 90.759 -82.365 V11.905 Q90.759 13.846 89.474 15.049 Q88.189 16.252 86.411 16.252 H63.353 V-9.796 H40.399 V16.252 H17.446 Z M17.824 11.384 H35.531 V-14.664 H68.221 V11.384 H85.89 V-81.986 H17.824 V11.384 Z M35.531 -31.627 H43.376 V-39.472 H35.531 V-31.627 Z M35.531 -56.434 H43.376 V-64.28 H35.531 V-56.434 Z M60.338 -31.627 H68.184 V-39.472 H60.338 V-31.627 Z M60.338 -56.434 H68.184 V-64.28 H60.338 V-56.434 Z M104.744 -35.265 Q104.744 -36.377 105.448 -37.056 Q106.152 -37.736 107.25 -37.736 H132.727 L123.524 -47.038 Q122.792 -47.683 122.742 -48.784 Q122.693 -49.885 123.287 -50.479 Q123.964 -51.157 125.024 -51.157 Q126.083 -51.157 126.749 -50.512 L138.929 -38.412 Q140.176 -37.026 140.176 -35.232 Q140.176 -33.438 138.929 -32.191 L126.749 -20.01 Q126.011 -19.295 124.978 -19.308 Q123.945 -19.322 123.319 -19.948 Q122.569 -20.575 122.68 -21.654 Q122.792 -22.733 123.524 -23.502 L132.727 -32.867 H107.25 Q106.152 -32.867 105.448 -33.51 Q104.744 -34.152 104.744 -35.265 Z"/></g><g id="Ultralight-L" transform="matrix(1 0 0 1 491.205 1556)"><path d="M19.269 14.354 Q17.338 14.354 16.087 13.183 Q14.835 12.012 14.835 10.081 V-80.541 Q14.835 -82.472 16.087 -83.724 Q17.338 -84.976 19.269 -84.976 H84.737 Q86.482 -84.976 87.746 -83.724 Q89.01 -82.472 89.01 -80.541 V10.081 Q89.01 12.012 87.746 13.183 Q86.482 14.354 84.737 14.354 H64.339 V-11.284 H39.506 V14.354 H19.269 Z M18.383 10.807 H35.959 V-14.832 H67.886 V10.807 H85.463 V-81.428 H18.383 V10.807 Z M35.959 -31.924 H43.376 V-39.342 H35.959 V-31.924 Z M35.959 -56.434 H43.376 V-63.852 H35.959 V-56.434 Z M60.469 -31.924 H67.886 V-39.342 H60.469 V-31.924 Z M60.469 -56.434 H67.886 V-63.852 H60.469 V-56.434 Z M105.135 -35.267 Q105.135 -36.117 105.645 -36.601 Q106.155 -37.084 106.989 -37.084 H133.434 L123.114 -47.485 Q122.55 -47.888 122.51 -48.775 Q122.469 -49.662 122.83 -50.023 Q123.276 -50.468 124.109 -50.468 Q124.942 -50.468 125.372 -50.065 L137.143 -38.374 Q138.352 -37.004 138.352 -35.23 Q138.352 -33.456 137.143 -32.247 L125.372 -20.476 Q124.848 -19.978 124.062 -19.985 Q123.276 -19.992 122.873 -20.395 Q122.308 -20.798 122.429 -21.645 Q122.55 -22.491 123.114 -23.056 L133.434 -33.537 H106.989 Q106.155 -33.537 105.645 -33.977 Q105.135 -34.417 105.135 -35.267 Z"/></g><g id="Bold-M" transform="matrix(1 0 0 1 2281.8 1126)"><path d="M5.438 11.458 Q2.375 11.458 0.125 9.208 Q-2.125 6.958 -2.125 3.895 V-78.105 Q-2.125 -81.167 0.125 -83.417 Q2.375 -85.667 5.438 -85.667 H67.688 Q70.75 -85.667 73 -83.417 Q75.25 -81.167 75.25 -78.105 V3.895 Q75.25 6.958 73 9.208 Q70.75 11.458 67.688 11.458 H39.375 V-7.042 H33.75 V11.458 H5.438 Z M13 -3.667 H18.625 V-22.167 H54.5 V-3.667 H60.125 V-70.542 H13 V-3.667 Z M18.625 -27.792 H32.5 V-41.667 H18.625 V-27.792 Z M18.625 -49.792 H32.5 V-64.917 H18.625 V-49.792 Z M40.625 -27.792 H54.5 V-41.667 H40.625 V-27.792 Z M40.625 -49.792 H54.5 V-64.917 H40.625 V-49.792 Z M80.875 -35.23 Q80.875 -38.292 83.125 -40.542 Q85.375 -42.792 88.438 -42.792 H93.188 L92.688 -43.355 Q90.75 -45.73 90.906 -48.574 Q91.062 -51.417 93.125 -53.48 Q95.5 -55.855 98.469 -55.855 Q101.438 -55.855 103.812 -53.48 L116.688 -40.667 Q119 -38.355 119 -35.23 Q119 -32.105 116.688 -29.792 L103.688 -16.792 Q101.375 -14.48 98.406 -14.511 Q95.438 -14.542 93.125 -16.855 Q91.062 -18.917 90.906 -21.886 Q90.75 -24.855 92.688 -27.167 L93.188 -27.667 H88.438 Q85.375 -27.667 83.125 -29.917 Q80.875 -32.167 80.875 -35.23 Z"/></g><g id="Semibold-M" transform="matrix(1 0 0 1 1985.97 1126)"><path d="M7.448 10.588 Q4.875 10.588 3.005 8.718 Q1.136 6.849 1.136 4.275 V-76.855 Q1.136 -79.428 3.005 -81.298 Q4.875 -83.168 7.448 -83.168 H68.72 Q71.293 -83.168 73.163 -81.298 Q75.033 -79.428 75.033 -76.855 V4.275 Q75.033 6.849 73.163 8.718 Q71.293 10.588 68.72 10.588 H41.983 V-8.564 H34.185 V10.588 H7.448 Z M13.761 -2.037 H21.56 V-21.189 H54.609 V-2.037 H62.407 V-70.542 H13.761 V-2.037 Z M21.56 -28.988 H33.478 V-40.907 H21.56 V-28.988 Z M21.56 -50.119 H33.478 V-62.744 H21.56 V-50.119 Z M42.69 -28.988 H54.609 V-40.907 H42.69 V-28.988 Z M42.69 -50.119 H54.609 V-62.744 H42.69 V-50.119 Z M80.658 -35.23 Q80.658 -37.803 82.527 -39.673 Q84.397 -41.543 86.97 -41.543 H94.709 L93.34 -42.975 Q91.674 -44.915 91.749 -47.324 Q91.823 -49.733 93.614 -51.524 Q95.554 -53.464 98.061 -53.464 Q100.568 -53.464 102.508 -51.524 L114.351 -39.744 Q116.283 -37.811 116.283 -35.23 Q116.283 -32.648 114.351 -30.716 L102.438 -18.803 Q100.56 -16.925 98.053 -16.93 Q95.546 -16.934 93.614 -18.866 Q91.878 -20.602 91.776 -23.109 Q91.674 -25.616 93.34 -27.548 L94.709 -28.917 H86.97 Q84.397 -28.917 82.527 -30.787 Q80.658 -32.657 80.658 -35.23 Z"/></g><g id="Medium-M" transform="matrix(1 0 0 1 1689.91 1126)"><path d="M8.957 9.936 Q6.75 9.936 5.166 8.352 Q3.582 6.767 3.582 4.561 V-75.917 Q3.582 -78.124 5.166 -79.708 Q6.75 -81.292 8.957 -81.292 H69.495 Q71.701 -81.292 73.285 -79.708 Q74.87 -78.124 74.87 -75.917 V4.561 Q74.87 6.767 73.285 8.352 Q71.701 9.936 69.495 9.936 H43.94 V-9.705 H34.511 V9.936 H8.957 Z M14.332 -0.814 H23.761 V-20.455 H54.69 V-0.814 H64.12 V-70.542 H14.332 V-0.814 Z M23.761 -29.885 H34.212 V-40.336 H23.761 V-29.885 Z M23.761 -50.363 H34.212 V-61.113 H23.761 V-50.363 Z M44.239 -29.885 H54.69 V-40.336 H44.239 V-29.885 Z M44.239 -50.363 H54.69 V-61.113 H44.239 V-50.363 Z M80.495 -35.23 Q80.495 -37.436 82.079 -39.021 Q83.663 -40.605 85.87 -40.605 H95.85 L93.829 -42.689 Q92.367 -44.303 92.38 -46.386 Q92.394 -48.469 93.981 -50.056 Q95.595 -51.67 97.755 -51.67 Q99.916 -51.67 101.53 -50.056 L112.598 -39.051 Q114.245 -37.404 114.245 -35.23 Q114.245 -33.056 112.598 -31.409 L101.5 -20.311 Q99.948 -18.76 97.788 -18.743 Q95.628 -18.727 93.981 -20.374 Q92.489 -21.866 92.428 -24.026 Q92.367 -26.186 93.829 -27.833 L95.85 -29.855 H85.87 Q83.663 -29.855 82.079 -31.439 Q80.495 -33.023 80.495 -35.23 Z"/></g><g id="Regular-M" transform="matrix(1 0 0 1 1394.06 1126)"><path d="M10.062 9.458 Q8.125 9.458 6.75 8.083 Q5.375 6.708 5.375 4.77 V-75.23 Q5.375 -77.167 6.75 -78.542 Q8.125 -79.917 10.062 -79.917 H70.062 Q72 -79.917 73.375 -78.542 Q74.75 -77.167 74.75 -75.23 V4.77 Q74.75 6.708 73.375 8.083 Q72 9.458 70.062 9.458 H45.375 V-10.542 H34.75 V9.458 H10.062 Z M14.75 0.083 H25.375 V-19.917 H54.75 V0.083 H65.375 V-70.542 H14.75 V0.083 Z M25.375 -30.542 H34.75 V-39.917 H25.375 V-30.542 Z M25.375 -50.542 H34.75 V-59.917 H25.375 V-50.542 Z M45.375 -30.542 H54.75 V-39.917 H45.375 V-30.542 Z M45.375 -50.542 H54.75 V-59.917 H45.375 V-50.542 Z M80.375 -35.23 Q80.375 -37.167 81.75 -38.542 Q83.125 -39.917 85.062 -39.917 H96.688 L94.188 -42.48 Q92.875 -43.855 92.844 -45.699 Q92.812 -47.542 94.25 -48.98 Q95.625 -50.355 97.531 -50.355 Q99.438 -50.355 100.812 -48.98 L111.312 -38.542 Q112.75 -37.105 112.75 -35.23 Q112.75 -33.355 111.312 -31.917 L100.812 -21.417 Q99.5 -20.105 97.594 -20.074 Q95.688 -20.042 94.25 -21.48 Q92.938 -22.792 92.906 -24.699 Q92.875 -26.605 94.188 -28.042 L96.688 -30.542 H85.062 Q83.125 -30.542 81.75 -31.917 Q80.375 -33.292 80.375 -35.23 Z"/></g><g id="Light-M" transform="matrix(1 0 0 1 1098.18 1126)"><path d="M12.082 7.005 Q10.301 7.005 9.052 5.769 Q7.803 4.532 7.803 2.751 V-73.211 Q7.803 -74.992 9.052 -76.241 Q10.301 -77.489 12.082 -77.489 H68.236 Q69.989 -77.489 71.24 -76.241 Q72.49 -74.992 72.49 -73.211 V2.751 Q72.49 4.532 71.24 5.769 Q69.989 7.005 68.236 7.005 H47.034 V-12.802 H33.26 V7.005 H12.082 Z M14.798 0.01 H26.265 V-19.797 H54.029 V0.01 H65.495 V-70.494 H14.798 V0.01 Z M26.265 -31.264 H34.413 V-39.413 H26.265 V-31.264 Z M26.265 -50.879 H34.413 V-59.028 H26.265 V-50.879 Z M45.88 -31.264 H54.029 V-39.413 H45.88 V-31.264 Z M45.88 -50.879 H54.029 V-59.028 H45.88 V-50.879 Z M80.88 -35.232 Q80.88 -36.687 81.907 -37.713 Q82.935 -38.739 84.389 -38.739 H98.899 L94.38 -43.297 Q93.38 -44.312 93.337 -45.711 Q93.293 -47.11 94.38 -48.171 Q95.409 -49.177 96.83 -49.177 Q98.251 -49.177 99.274 -48.163 L109.245 -38.254 Q110.538 -36.941 110.538 -35.232 Q110.538 -33.523 109.245 -32.23 L99.274 -22.259 Q98.286 -21.277 96.867 -21.261 Q95.447 -21.244 94.394 -22.297 Q93.37 -23.273 93.375 -24.711 Q93.38 -26.148 94.38 -27.225 L98.899 -31.744 H84.389 Q82.935 -31.744 81.907 -32.761 Q80.88 -33.777 80.88 -35.232 Z"/></g><g id="Thin-M" transform="matrix(1 0 0 1 802.565 1126)"><path d="M14.101 4.554 Q12.476 4.554 11.353 3.455 Q10.231 2.357 10.231 0.732 V-71.192 Q10.231 -72.817 11.353 -73.939 Q12.476 -75.062 14.101 -75.062 H66.409 Q67.978 -75.062 69.105 -73.939 Q70.231 -72.817 70.231 -71.192 V0.732 Q70.231 2.357 69.105 3.455 Q67.978 4.554 66.409 4.554 H48.692 V-15.062 H31.769 V4.554 H14.101 Z M14.846 -0.062 H27.154 V-19.677 H53.308 V-0.062 H65.615 V-70.446 H14.846 V-0.062 Z M27.154 -31.985 H34.077 V-38.908 H27.154 V-31.985 Z M27.154 -51.216 H34.077 V-58.139 H27.154 V-51.216 Z M46.385 -31.985 H53.308 V-38.908 H46.385 V-31.985 Z M46.385 -51.216 H53.308 V-58.139 H46.385 V-51.216 Z M81.385 -35.233 Q81.385 -36.206 82.065 -36.884 Q82.745 -37.562 83.716 -37.562 H101.111 L94.572 -44.115 Q93.885 -44.768 93.829 -45.723 Q93.774 -46.677 94.509 -47.362 Q95.192 -47.999 96.129 -47.999 Q97.066 -47.999 97.736 -47.345 L107.178 -37.966 Q108.327 -36.777 108.327 -35.234 Q108.327 -33.691 107.178 -32.542 L97.736 -23.1 Q97.072 -22.449 96.139 -22.447 Q95.207 -22.446 94.538 -23.115 Q93.803 -23.754 93.844 -24.723 Q93.885 -25.691 94.572 -26.408 L101.111 -32.946 H83.716 Q82.745 -32.946 82.065 -33.603 Q81.385 -34.261 81.385 -35.233 Z"/></g><g id="Ultralight-M" transform="matrix(1 0 0 1 506.415 1126)"><path d="M15.312 3.083 Q13.781 3.083 12.734 2.067 Q11.688 1.051 11.688 -0.48 V-69.98 Q11.688 -71.511 12.734 -72.558 Q13.781 -73.605 15.312 -73.605 H65.312 Q66.772 -73.605 67.823 -72.558 Q68.875 -71.511 68.875 -69.98 V-0.48 Q68.875 1.051 67.823 2.067 Q66.772 3.083 65.312 3.083 H49.688 V-16.417 H30.875 V3.083 H15.312 Z M14.875 -0.105 H27.688 V-19.605 H52.875 V-0.105 H65.688 V-70.417 H14.875 V-0.105 Z M27.688 -32.417 H33.875 V-38.605 H27.688 V-32.417 Z M27.688 -51.417 H33.875 V-57.605 H27.688 V-51.417 Z M46.688 -32.417 H52.875 V-38.605 H46.688 V-32.417 Z M46.688 -51.417 H52.875 V-57.605 H46.688 V-51.417 Z M81.688 -35.234 Q81.688 -35.917 82.159 -36.386 Q82.631 -36.855 83.312 -36.855 H102.438 L94.688 -44.605 Q94.188 -45.042 94.125 -45.73 Q94.062 -46.417 94.587 -46.877 Q95.062 -47.292 95.708 -47.292 Q96.354 -47.292 96.812 -46.855 L105.938 -37.792 Q107 -36.679 107 -35.236 Q107 -33.792 105.938 -32.73 L96.812 -23.605 Q96.344 -23.152 95.703 -23.16 Q95.062 -23.167 94.625 -23.605 Q94.062 -24.042 94.125 -24.73 Q94.188 -25.417 94.688 -25.917 L102.438 -33.667 H83.312 Q82.631 -33.667 82.159 -34.109 Q81.688 -34.551 81.688 -35.234 Z"/></g><g id="Bold-S" transform="matrix(1 0 0 1 2294.23 696)"><path d="M4.712 -0.761 Q2.466 -0.761 0.789 -2.422 Q-0.888 -4.084 -0.888 -6.333 V-67.086 Q-0.888 -69.335 0.774 -70.996 Q2.435 -72.658 4.683 -72.658 H49.037 Q51.285 -72.658 52.962 -70.996 Q54.638 -69.335 54.638 -67.086 V-6.333 Q54.638 -4.084 52.976 -2.422 Q51.315 -0.761 49.066 -0.761 H28.7 V-16.146 H25.051 V-0.761 H4.712 Z M10.257 -11.905 H13.906 V-27.291 H39.845 V-11.905 H43.494 V-61.514 H10.257 V-11.905 Z M13.906 -30.94 H24.065 V-41.098 H13.906 V-30.94 Z M13.906 -46.72 H24.065 V-57.864 H13.906 V-46.72 Z M29.686 -30.94 H39.845 V-41.098 H29.686 V-30.94 Z M29.686 -46.72 H39.845 V-57.864 H29.686 V-46.72 Z M62.232 -35.209 Q62.232 -37.449 63.894 -39.126 Q65.556 -40.802 67.805 -40.802 H74.215 L72.243 -42.824 Q70.714 -44.698 70.887 -46.744 Q71.059 -48.791 72.588 -50.32 Q74.462 -52.193 76.558 -52.193 Q78.653 -52.193 80.527 -50.32 L91.573 -39.224 Q93.299 -37.534 93.299 -35.248 Q93.299 -32.962 91.573 -31.236 L80.33 -19.992 Q78.505 -18.168 76.41 -18.291 Q74.314 -18.414 72.588 -20.14 Q70.961 -21.768 70.887 -23.913 Q70.813 -26.058 72.341 -27.784 L74.215 -29.658 H67.805 Q65.556 -29.658 63.894 -31.314 Q62.232 -32.969 62.232 -35.209 Z"/></g><g id="Semibold-S" transform="matrix(1 0 0 1 1998.1 696)"><path d="M6.298 -1.447 Q4.438 -1.447 3.062 -2.808 Q1.685 -4.17 1.685 -6.033 V-66.1 Q1.685 -67.962 3.046 -69.324 Q4.407 -70.686 6.269 -70.686 H49.852 Q51.714 -70.686 53.09 -69.324 Q54.467 -67.962 54.467 -66.1 V-6.033 Q54.467 -4.17 53.105 -2.808 Q51.743 -1.447 49.881 -1.447 H30.758 V-17.347 H25.394 V-1.447 H6.298 Z M10.857 -10.619 H16.222 V-26.519 H39.93 V-10.619 H45.295 V-61.514 H10.857 V-10.619 Z M16.222 -31.883 H24.836 V-40.498 H16.222 V-31.883 Z M16.222 -46.977 H24.836 V-56.149 H16.222 V-46.977 Z M31.316 -31.883 H39.93 V-40.498 H31.316 V-31.883 Z M31.316 -46.977 H39.93 V-56.149 H31.316 V-46.977 Z M62.061 -35.209 Q62.061 -37.063 63.423 -38.44 Q64.784 -39.816 66.647 -39.816 H75.416 L72.757 -42.524 Q71.443 -44.055 71.551 -45.758 Q71.66 -47.462 72.974 -48.776 Q74.505 -50.307 76.236 -50.307 Q77.967 -50.307 79.498 -48.776 L89.73 -38.495 Q91.155 -37.105 91.155 -35.248 Q91.155 -33.39 89.73 -31.965 L79.344 -21.579 Q77.862 -20.097 76.131 -20.199 Q74.4 -20.301 72.974 -21.727 Q71.604 -23.097 71.573 -24.878 Q71.542 -26.658 72.856 -28.084 L75.416 -30.644 H66.647 Q64.784 -30.644 63.423 -32 Q62.061 -33.355 62.061 -35.209 Z"/></g><g id="Medium-S" transform="matrix(1 0 0 1 1701.85 696)"><path d="M7.488 -1.961 Q5.918 -1.961 4.766 -3.098 Q3.615 -4.234 3.615 -5.808 V-65.36 Q3.615 -66.933 4.751 -68.07 Q5.887 -69.206 7.459 -69.206 H50.463 Q52.035 -69.206 53.187 -68.07 Q54.338 -66.933 54.338 -65.36 V-5.808 Q54.338 -4.234 53.202 -3.098 Q52.065 -1.961 50.492 -1.961 H32.302 V-18.247 H25.651 V-1.961 H7.488 Z M11.308 -9.654 H17.958 V-25.94 H39.995 V-9.654 H46.645 V-61.514 H11.308 V-9.654 Z M17.958 -32.591 H25.415 V-40.048 H17.958 V-32.591 Z M17.958 -47.17 H25.415 V-54.863 H17.958 V-47.17 Z M32.538 -32.591 H39.995 V-40.048 H32.538 V-32.591 Z M32.538 -47.17 H39.995 V-54.863 H32.538 V-47.17 Z M61.932 -35.209 Q61.932 -36.774 63.069 -37.925 Q64.205 -39.076 65.779 -39.076 H76.316 L73.143 -42.299 Q71.99 -43.572 72.05 -45.019 Q72.11 -46.465 73.263 -47.618 Q74.537 -48.892 75.995 -48.892 Q77.453 -48.892 78.726 -47.618 L88.347 -37.949 Q89.547 -36.784 89.547 -35.248 Q89.547 -33.712 88.347 -32.511 L78.604 -22.769 Q77.38 -21.545 75.922 -21.63 Q74.464 -21.716 73.263 -22.917 Q72.086 -24.094 72.087 -25.601 Q72.088 -27.108 73.242 -28.309 L76.316 -31.384 H65.779 Q64.205 -31.384 63.069 -32.514 Q61.932 -33.645 61.932 -35.209 Z"/></g><g id="Regular-S" transform="matrix(1 0 0 1 1405.73 696)"><path d="M8.361 -2.339 Q7.002 -2.339 6.016 -3.31 Q5.03 -4.281 5.03 -5.642 V-64.817 Q5.03 -66.179 6.001 -67.15 Q6.972 -68.121 8.332 -68.121 H50.911 Q52.271 -68.121 53.258 -67.15 Q54.244 -66.179 54.244 -64.817 V-5.642 Q54.244 -4.281 53.272 -3.31 Q52.301 -2.339 50.94 -2.339 H33.434 V-18.908 H25.84 V-2.339 H8.361 Z M11.638 -8.946 H19.232 V-25.515 H40.042 V-8.946 H47.636 V-61.514 H11.638 V-8.946 Z M19.232 -33.11 H25.84 V-39.717 H19.232 V-33.11 Z M19.232 -47.312 H25.84 V-53.919 H19.232 V-47.312 Z M33.434 -33.11 H40.042 V-39.717 H33.434 V-33.11 Z M33.434 -47.312 H40.042 V-53.919 H33.434 V-47.312 Z M61.838 -35.209 Q61.838 -36.561 62.809 -37.548 Q63.781 -38.534 65.142 -38.534 H76.977 L73.426 -42.134 Q72.391 -43.219 72.415 -44.476 Q72.44 -45.734 73.476 -46.769 Q74.561 -47.854 75.818 -47.854 Q77.075 -47.854 78.16 -46.769 L87.332 -37.548 Q88.368 -36.548 88.368 -35.248 Q88.368 -33.948 87.332 -32.912 L78.062 -23.642 Q77.026 -22.606 75.769 -22.68 Q74.511 -22.754 73.476 -23.789 Q72.44 -24.825 72.465 -26.132 Q72.489 -27.439 73.525 -28.474 L76.977 -31.926 H65.142 Q63.781 -31.926 62.809 -32.892 Q61.838 -33.857 61.838 -35.209 Z"/></g><g id="Light-S" transform="matrix(1 0 0 1 1109.75 696)"><path d="M9.954 -4.273 Q8.719 -4.273 7.832 -5.136 Q6.946 -5.998 6.946 -7.236 V-63.224 Q6.946 -64.462 7.817 -65.334 Q8.688 -66.206 9.925 -66.206 H49.47 Q50.685 -66.206 51.573 -65.334 Q52.461 -64.462 52.461 -63.224 V-7.236 Q52.461 -5.998 51.587 -5.136 Q50.714 -4.273 49.498 -4.273 H34.743 V-20.691 H24.664 V-4.273 H9.954 Z M11.676 -9.003 H19.934 V-25.421 H39.473 V-9.003 H47.731 V-61.476 H11.676 V-9.003 Z M19.934 -33.679 H25.574 V-39.319 H19.934 V-33.679 Z M19.934 -47.577 H25.574 V-53.218 H19.934 V-47.577 Z M33.832 -33.679 H39.473 V-39.319 H33.832 V-33.679 Z M33.832 -47.577 H39.473 V-53.218 H33.832 V-47.577 Z M62.236 -35.211 Q62.236 -36.182 62.934 -36.893 Q63.631 -37.604 64.611 -37.604 H78.722 L73.578 -42.779 Q72.789 -43.579 72.804 -44.486 Q72.819 -45.392 73.578 -46.131 Q74.39 -46.925 75.265 -46.925 Q76.14 -46.925 76.946 -46.124 L85.701 -37.32 Q86.623 -36.419 86.623 -35.25 Q86.623 -34.081 85.701 -33.159 L76.848 -24.305 Q76.068 -23.531 75.195 -23.617 Q74.322 -23.702 73.589 -24.434 Q72.782 -25.204 72.835 -26.141 Q72.888 -27.078 73.677 -27.829 L78.722 -32.874 H64.611 Q63.631 -32.874 62.934 -33.557 Q62.236 -34.239 62.236 -35.211 Z"/></g><g id="Thin-S" transform="matrix(1 0 0 1 814.015 696)"><path d="M11.547 -6.208 Q10.435 -6.208 9.648 -6.961 Q8.861 -7.714 8.861 -8.829 V-61.631 Q8.861 -62.746 9.633 -63.518 Q10.404 -64.29 11.518 -64.29 H48.028 Q49.098 -64.29 49.888 -63.518 Q50.678 -62.746 50.678 -61.631 V-8.829 Q50.678 -7.714 49.903 -6.961 Q49.128 -6.208 48.057 -6.208 H36.051 V-22.473 H23.488 V-6.208 H11.547 Z M11.714 -9.06 H20.635 V-25.326 H38.904 V-9.06 H47.826 V-61.438 H11.714 V-9.06 Z M20.635 -34.247 H25.309 V-38.921 H20.635 V-34.247 Z M20.635 -47.843 H25.309 V-52.516 H20.635 V-47.843 Z M34.23 -34.247 H38.904 V-38.921 H34.23 V-34.247 Z M34.23 -47.843 H38.904 V-52.516 H34.23 V-47.843 Z M62.634 -35.212 Q62.634 -35.803 63.058 -36.239 Q63.481 -36.675 64.08 -36.675 H80.467 L73.73 -43.423 Q73.187 -43.939 73.193 -44.495 Q73.199 -45.051 73.68 -45.493 Q74.219 -45.995 74.712 -45.995 Q75.204 -45.995 75.733 -45.479 L84.07 -37.093 Q84.878 -36.289 84.878 -35.251 Q84.878 -34.213 84.07 -33.405 L75.634 -24.969 Q75.111 -24.455 74.621 -24.553 Q74.132 -24.651 73.703 -25.079 Q73.123 -25.584 73.204 -26.151 Q73.286 -26.718 73.828 -27.184 L80.467 -33.823 H64.08 Q63.481 -33.823 63.058 -34.222 Q62.634 -34.621 62.634 -35.212 Z"/></g><g id="Ultralight-S" transform="matrix(1 0 0 1 517.792 696)"><path d="M12.503 -7.368 Q11.465 -7.368 10.738 -8.056 Q10.01 -8.744 10.01 -9.785 V-60.675 Q10.01 -61.716 10.722 -62.428 Q11.434 -63.141 12.474 -63.141 H47.163 Q48.146 -63.141 48.877 -62.428 Q49.608 -61.716 49.608 -60.675 V-9.785 Q49.608 -8.744 48.892 -8.056 Q48.176 -7.368 47.192 -7.368 H36.836 V-23.543 H22.782 V-7.368 H12.503 Z M11.736 -9.094 H21.056 V-25.269 H38.562 V-9.094 H47.882 V-61.415 H11.736 V-9.094 Z M21.056 -34.589 H25.149 V-38.682 H21.056 V-34.589 Z M21.056 -48.002 H25.149 V-52.095 H21.056 V-48.002 Z M34.469 -34.589 H38.562 V-38.682 H34.469 V-34.589 Z M34.469 -48.002 H38.562 V-52.095 H34.469 V-48.002 Z M62.873 -35.213 Q62.873 -35.575 63.132 -35.846 Q63.391 -36.118 63.761 -36.118 H81.514 L73.821 -43.81 Q73.426 -44.156 73.426 -44.501 Q73.426 -44.846 73.742 -45.11 Q74.117 -45.438 74.38 -45.438 Q74.643 -45.438 75.004 -45.092 L83.092 -36.956 Q83.831 -36.212 83.831 -35.252 Q83.831 -34.293 83.092 -33.553 L74.906 -25.367 Q74.536 -25.01 74.277 -25.115 Q74.018 -25.22 73.772 -25.466 Q73.328 -25.811 73.426 -26.156 Q73.525 -26.502 73.919 -26.798 L81.514 -34.392 H63.761 Q63.391 -34.392 63.132 -34.621 Q62.873 -34.85 62.873 -35.213 Z"/></g></g></svg>