<svg xmlns="http://www.w3.org/2000/svg" version="1.1" width="3300" height="2000"><g id="Notes"><style>
    text {
      font-family: monospace;
      text-anchor: middle;
    }
    text.emphasis {
      font-weight:bold;
    }
    text.lanchor {
      text-anchor: start;
    }
  </style><rect height="2200" id="artboard" fill="white" width="3300" x="0" y="0"/><line id="" style="fill:none;stroke:black;stroke-width:0.5;" x1="263" x2="3036" y1="292" y2="292"/><text class="lanchor emphasis" transform="matrix(1 0 0 1 263 322)">Weight/Scale Variations</text><text transform="matrix(1 0 0 1 559.711 322)">Ultralight</text><text transform="matrix(1 0 0 1 856.422 322)">Thin</text><text transform="matrix(1 0 0 1 1153.13 322)">Light</text><text transform="matrix(1 0 0 1 1449.84 322)">Regular</text><text transform="matrix(1 0 0 1 1746.56 322)">Medium</text><text transform="matrix(1 0 0 1 2043.27 322)">Semibold</text><text transform="matrix(1 0 0 1 2339.98 322)">Bold</text><text transform="matrix(1 0 0 1 2636.69 322)">Heavy</text><text transform="matrix(1 0 0 1 2933.4 322)">Black</text><text id="template-version" style="text-anchor: end;" transform="matrix(1 0 0 1 3036 1933)">Template v.1.0</text><text class="lanchor" transform="matrix(1 0 0 1 263 726)">Small</text><text class="lanchor" transform="matrix(1 0 0 1 263 1156)">Medium</text><text class="lanchor" transform="matrix(1 0 0 1 263 1586)">Large</text></g><g id="Guides"><g id="H-reference" style="fill:#27AAE1;stroke:none;" transform="matrix(1 0 0 1 339 696)"><path d="M 54.9316 0 L 57.666 0 L 30.5664 -70.459 L 28.0762 -70.459 L 0.976562 0 L 3.66211 0 L 12.9395 -24.4629 L 45.7031 -24.4629 Z M 29.1992 -67.0898 L 29.4434 -67.0898 L 44.8242 -26.709 L 13.8184 -26.709 Z"/></g><line id="Baseline-S" style="fill:none;stroke:#27AAE1;opacity:1;stroke-width:0.577;" x1="263" x2="3036" y1="696" y2="696"/><line id="Capline-S" style="fill:none;stroke:#27AAE1;opacity:1;stroke-width:0.577;" x1="263" x2="3036" y1="625.541" y2="625.541"/><g id="H-reference" style="fill:#27AAE1;stroke:none;" transform="matrix(1 0 0 1 339 1126)"><path d="M 54.9316 0 L 57.666 0 L 30.5664 -70.459 L 28.0762 -70.459 L 0.976562 0 L 3.66211 0 L 12.9395 -24.4629 L 45.7031 -24.4629 Z M 29.1992 -67.0898 L 29.4434 -67.0898 L 44.8242 -26.709 L 13.8184 -26.709 Z"/></g><line id="Baseline-M" style="fill:none;stroke:#27AAE1;opacity:1;stroke-width:0.577;" x1="263" x2="3036" y1="1126" y2="1126"/><line id="Capline-M" style="fill:none;stroke:#27AAE1;opacity:1;stroke-width:0.577;" x1="263" x2="3036" y1="1055.54" y2="1055.54"/><g id="H-reference" style="fill:#27AAE1;stroke:none;" transform="matrix(1 0 0 1 339 1556)"><path d="M 54.9316 0 L 57.666 0 L 30.5664 -70.459 L 28.0762 -70.459 L 0.976562 0 L 3.66211 0 L 12.9395 -24.4629 L 45.7031 -24.4629 Z M 29.1992 -67.0898 L 29.4434 -67.0898 L 44.8242 -26.709 L 13.8184 -26.709 Z"/></g><line id="Baseline-L" style="fill:none;stroke:#27AAE1;opacity:1;stroke-width:0.577;" x1="263" x2="3036" y1="1556" y2="1556"/><line id="Capline-L" style="fill:none;stroke:#27AAE1;opacity:1;stroke-width:0.577;" x1="263" x2="3036" y1="1485.54" y2="1485.54"/><rect height="119.336" id="left-margin" style="fill:darkred;stroke:none;opacity:0.4;" width="12.4512" x="1394.06" y="1030.79"/><rect height="119.336" id="right-margin" style="fill:darkgreen;stroke:none;opacity:0.4;" width="12.4512" x="1502.5112" y="1030.79"/><rect x="1406.5112" y="1045" width="96" height="96" fill="none" stroke="blue" stroke-dasharray="5"/><rect x="1394.06" y="1030.79" width="120.9024" height="119.336" fill="none" stroke="blue"/></g><g id="Symbols"><g id="Bold-L" transform="matrix(1 0 0 1 2266 1556)"><path d="M73.707 -35.472 Q65.145 -35.472 59.219 -41.407 Q53.293 -47.341 53.293 -55.918 Q53.293 -64.201 59.228 -70.194 Q65.163 -76.187 73.739 -76.187 Q82.023 -76.187 88.016 -70.206 Q94.009 -64.224 94.009 -55.885 Q94.009 -47.324 88.027 -41.398 Q82.045 -35.472 73.707 -35.472 Z M104.17 4.357 V-4.019 Q96.508 -5.399 91.469 -11.66 Q86.43 -17.921 86.43 -26.442 H95.218 Q95.218 -20.528 99.155 -16.35 Q103.091 -12.171 108.595 -12.171 Q114.099 -12.171 118.027 -16.363 Q121.955 -20.555 121.955 -26.442 H130.854 Q130.854 -17.958 125.694 -11.678 Q120.534 -5.399 112.956 -4.019 V4.357 H104.17 Z M108.611 -18.46 Q104.721 -18.46 102.187 -21.032 Q99.653 -23.604 99.653 -27.328 V-38.012 Q99.653 -41.773 102.178 -44.387 Q104.702 -47.001 108.512 -47.001 Q112.322 -47.001 114.937 -44.406 Q117.551 -41.81 117.551 -38.051 V-27.376 Q117.551 -23.617 114.959 -21.038 Q112.366 -18.46 108.611 -18.46 Z M9.675 32.495 V-8.301 H24.429 V17.741 H50.471 V32.495 H9.675 Z M9.675 -62.159 V-103.116 H50.471 V-88.201 H24.429 V-62.159 H9.675 Z M104.329 32.495 V17.741 H130.371 V-8.301 H145.286 V32.495 H104.329 Z M130.371 -62.159 V-88.201 H104.329 V-103.116 H145.286 V-62.159 H130.371 Z M33.943 4.357 V-8.841 Q33.943 -13.845 37.37 -17.523 Q40.796 -21.201 45.473 -23.539 Q53.616 -27.571 62.686 -28.861 Q71.756 -30.151 80.867 -29.102 Q80.383 -26.967 79.98 -24.782 Q79.577 -22.597 79.577 -20.476 Q79.577 -12.733 83.205 -6.104 Q86.833 0.526 93.444 4.357 H33.943 Z"/></g><g id="Semibold-L" transform="matrix(1 0 0 1 1970.27 1556)"><path d="M72.515 -35.472 Q64.163 -35.472 58.413 -41.231 Q52.662 -46.991 52.662 -55.357 Q52.662 -63.489 58.422 -69.312 Q64.181 -75.136 72.547 -75.136 Q80.679 -75.136 86.503 -69.323 Q92.326 -63.511 92.326 -55.325 Q92.326 -46.973 86.514 -41.223 Q80.701 -35.472 72.515 -35.472 Z M105.082 3.866 V-5.141 Q97.77 -6.45 92.941 -12.258 Q88.112 -18.065 88.112 -26.021 H95.849 Q95.849 -20.371 99.704 -16.376 Q103.559 -12.382 108.948 -12.382 Q114.338 -12.382 118.181 -16.388 Q122.025 -20.395 122.025 -26.021 H129.873 Q129.873 -18.098 124.958 -12.274 Q120.044 -6.45 112.815 -5.141 V3.866 H105.082 Z M108.961 -18.74 Q105.307 -18.74 102.865 -21.19 Q100.424 -23.64 100.424 -27.188 V-38.783 Q100.424 -42.368 102.856 -44.86 Q105.289 -47.352 108.898 -47.352 Q112.507 -47.352 114.994 -44.878 Q117.481 -42.405 117.481 -38.822 V-27.236 Q117.481 -23.653 115.01 -21.197 Q112.54 -18.74 108.961 -18.74 Z M11.428 30.742 V-8.301 H23.798 V18.372 H50.471 V30.742 H11.428 Z M11.428 -62.159 V-101.293 H50.471 V-88.832 H23.798 V-62.159 H11.428 Z M104.329 30.742 V18.372 H131.002 V-8.301 H143.463 V30.742 H104.329 Z M131.002 -62.159 V-88.832 H104.329 V-101.293 H143.463 V-62.159 H131.002 Z M33.312 3.866 V-8.817 Q33.312 -13.678 36.669 -17.23 Q40.025 -20.781 44.561 -23.049 Q53.055 -27.22 62.476 -28.545 Q71.897 -29.87 81.358 -28.542 Q80.874 -26.546 80.541 -24.522 Q80.208 -22.498 80.208 -20.546 Q80.208 -13.009 83.731 -6.487 Q87.254 0.035 93.655 3.866 H33.312 Z"/></g><g id="Medium-L" transform="matrix(1 0 0 1 1674.31 1556)"><path d="M71.621 -35.472 Q63.427 -35.472 57.808 -41.1 Q52.189 -46.728 52.189 -54.936 Q52.189 -62.954 57.817 -68.651 Q63.445 -74.347 71.653 -74.347 Q79.671 -74.347 85.368 -68.662 Q91.064 -62.976 91.064 -54.904 Q91.064 -46.71 85.379 -41.091 Q79.693 -35.472 71.621 -35.472 Z M105.765 3.498 V-5.982 Q98.717 -7.239 94.046 -12.706 Q89.375 -18.172 89.375 -25.706 H96.322 Q96.322 -20.254 100.116 -16.396 Q103.91 -12.539 109.214 -12.539 Q114.517 -12.539 118.298 -16.407 Q122.078 -20.275 122.078 -25.706 H129.137 Q129.137 -18.203 124.406 -12.721 Q119.676 -7.239 112.71 -5.982 V3.498 H105.765 Z M109.224 -18.951 Q105.746 -18.951 103.374 -21.309 Q101.002 -23.667 101.002 -27.083 V-39.362 Q101.002 -42.814 103.365 -45.214 Q105.728 -47.615 109.187 -47.615 Q112.646 -47.615 115.037 -45.233 Q117.429 -42.851 117.429 -39.401 V-27.13 Q117.429 -23.681 115.049 -21.316 Q112.67 -18.951 109.224 -18.951 Z M12.742 29.428 V-8.301 H23.325 V18.845 H50.471 V29.428 H12.742 Z M12.742 -62.159 V-99.926 H50.471 V-89.305 H23.325 V-62.159 H12.742 Z M104.329 29.428 V18.845 H131.475 V-8.301 H142.096 V29.428 H104.329 Z M131.475 -62.159 V-89.305 H104.329 V-99.926 H142.096 V-62.159 H131.475 Z M32.839 3.498 V-8.799 Q32.839 -13.553 36.143 -17.009 Q39.447 -20.465 43.878 -22.681 Q52.634 -26.957 62.318 -28.309 Q72.002 -29.66 81.726 -28.121 Q81.242 -26.231 80.962 -24.327 Q80.681 -22.424 80.681 -20.598 Q80.681 -13.216 84.125 -6.774 Q87.569 -0.333 93.813 3.498 H32.839 Z"/></g><g id="Regular-L" transform="matrix(1 0 0 1 1378.56 1556)"><path d="M70.965 -35.472 Q62.888 -35.472 57.365 -41.003 Q51.842 -46.535 51.842 -54.628 Q51.842 -62.562 57.373 -68.165 Q62.905 -73.769 70.998 -73.769 Q78.932 -73.769 84.535 -68.177 Q90.139 -62.584 90.139 -54.595 Q90.139 -46.517 84.547 -40.995 Q78.954 -35.472 70.965 -35.472 Z M106.267 3.228 V-6.599 Q99.411 -7.817 94.855 -13.034 Q90.3 -18.251 90.3 -25.474 H96.669 Q96.669 -20.167 100.418 -16.411 Q104.168 -12.655 109.408 -12.655 Q114.649 -12.655 118.382 -16.421 Q122.116 -20.186 122.116 -25.474 H128.597 Q128.597 -18.28 124.001 -13.049 Q119.406 -7.817 112.633 -6.599 V3.228 H106.267 Z M109.417 -19.105 Q106.069 -19.105 103.747 -21.396 Q101.426 -23.687 101.426 -27.006 V-39.786 Q101.426 -43.141 103.738 -45.474 Q106.05 -47.807 109.399 -47.807 Q112.748 -47.807 115.069 -45.493 Q117.39 -43.178 117.39 -39.825 V-27.053 Q117.39 -23.701 115.078 -21.403 Q112.766 -19.105 109.417 -19.105 Z M13.706 28.464 V-8.301 H22.978 V19.192 H50.471 V28.464 H13.706 Z M13.706 -62.159 V-98.924 H50.471 V-89.652 H22.978 V-62.159 H13.706 Z M104.329 28.464 V19.192 H131.822 V-8.301 H141.094 V28.464 H104.329 Z M131.822 -62.159 V-89.652 H104.329 V-98.924 H141.094 V-62.159 H131.822 Z M32.492 3.228 V-8.785 Q32.492 -13.461 35.757 -16.847 Q39.023 -20.234 43.376 -22.411 Q52.326 -26.764 62.202 -28.135 Q72.079 -29.506 81.996 -27.812 Q81.512 -25.999 81.27 -24.184 Q81.028 -22.369 81.028 -20.637 Q81.028 -13.367 84.414 -6.985 Q87.801 -0.603 93.928 3.228 H32.492 Z"/></g><g id="Light-L" transform="matrix(1 0 0 1 1082.77 1556)"><path d="M70.586 -35.782 Q63.198 -35.782 58.109 -40.879 Q53.02 -45.977 53.02 -53.365 Q53.02 -60.608 58.118 -65.808 Q63.215 -71.009 70.603 -71.009 Q77.847 -71.009 83.047 -65.823 Q88.247 -60.638 88.247 -53.348 Q88.247 -45.959 83.062 -40.871 Q77.877 -35.782 70.586 -35.782 Z M106.236 0.437 V-8.597 Q99.907 -9.74 95.693 -14.507 Q91.478 -19.274 91.447 -25.909 H97.073 Q97.135 -20.943 100.644 -17.481 Q104.153 -14.019 109.013 -14.019 Q113.873 -14.019 117.353 -17.493 Q120.833 -20.967 120.895 -25.909 H126.674 Q126.612 -19.309 122.357 -14.529 Q118.101 -9.749 111.889 -8.615 V0.437 H106.236 Z M109.012 -19.756 Q105.963 -19.756 103.85 -21.841 Q101.736 -23.925 101.736 -26.944 V-38.78 Q101.736 -41.836 103.842 -43.969 Q105.948 -46.102 108.998 -46.102 Q112.047 -46.102 114.16 -43.994 Q116.274 -41.886 116.274 -38.833 V-27.004 Q116.274 -23.951 114.168 -21.854 Q112.062 -19.756 109.012 -19.756 Z M16.621 25.549 V-8.611 H23.691 V18.479 H50.781 V25.549 H16.621 Z M16.621 -61.849 V-96.009 H50.781 V-88.939 H23.691 V-61.849 H16.621 Z M104.019 25.549 V18.479 H131.109 V-8.611 H138.179 V25.549 H104.019 Z M131.109 -61.849 V-88.939 H104.019 V-96.009 H138.179 V-61.849 H131.109 Z M33.67 0.437 V-10.025 Q33.67 -13.933 36.271 -16.862 Q38.872 -19.79 42.446 -21.666 Q51.116 -26.206 60.9 -27.592 Q70.683 -28.978 80.569 -27.657 Q80.209 -26.4 80.06 -25.145 Q79.912 -23.889 79.912 -22.746 Q79.912 -15.786 82.91 -9.621 Q85.909 -3.456 91.571 0.437 H33.67 Z"/></g><g id="Thin-L" transform="matrix(1 0 0 1 787.282 1556)"><path d="M70.207 -36.092 Q63.508 -36.092 58.853 -40.755 Q54.199 -45.419 54.199 -52.102 Q54.199 -58.655 58.862 -63.452 Q63.525 -68.249 70.209 -68.249 Q76.761 -68.249 81.558 -63.471 Q86.356 -58.693 86.356 -52.1 Q86.356 -45.401 81.577 -40.747 Q76.799 -36.092 70.207 -36.092 Z M106.205 -2.354 V-10.595 Q100.403 -11.663 96.53 -15.98 Q92.657 -20.298 92.595 -26.343 H97.476 Q97.6 -21.718 100.869 -18.551 Q104.138 -15.384 108.618 -15.384 Q113.098 -15.384 116.324 -18.566 Q119.55 -21.748 119.674 -26.343 H124.752 Q124.628 -20.338 120.712 -16.009 Q116.797 -11.68 111.145 -10.63 V-2.354 H106.205 Z M108.608 -20.407 Q105.857 -20.407 103.951 -22.285 Q102.046 -24.162 102.046 -26.881 V-37.775 Q102.046 -40.531 103.946 -42.464 Q105.845 -44.396 108.596 -44.396 Q111.347 -44.396 113.252 -42.495 Q115.157 -40.594 115.157 -37.841 V-26.955 Q115.157 -24.202 113.258 -22.305 Q111.358 -20.407 108.608 -20.407 Z M19.536 22.634 V-8.921 H24.405 V17.765 H51.091 V22.634 H19.536 Z M19.536 -61.539 V-93.094 H51.091 V-88.225 H24.405 V-61.539 H19.536 Z M103.709 22.634 V17.765 H130.395 V-8.921 H135.264 V22.634 H103.709 Z M130.395 -61.539 V-88.225 H103.709 V-93.094 H135.264 V-61.539 H130.395 Z M34.849 -2.354 V-11.266 Q34.849 -14.405 36.785 -16.876 Q38.722 -19.347 41.516 -20.922 Q49.907 -25.648 59.597 -27.05 Q69.288 -28.451 79.143 -27.502 Q78.907 -26.801 78.851 -26.105 Q78.795 -25.409 78.795 -24.854 Q78.795 -18.205 81.406 -12.257 Q84.018 -6.309 89.215 -2.354 H34.849 Z"/></g><g id="Ultralight-L" transform="matrix(1 0 0 1 491.205 1556)"><path d="M69.979 -36.278 Q63.694 -36.278 59.3 -40.681 Q54.906 -45.084 54.906 -51.345 Q54.906 -57.482 59.308 -62.038 Q63.711 -66.593 69.972 -66.593 Q76.11 -66.593 80.665 -62.059 Q85.221 -57.525 85.221 -51.351 Q85.221 -45.066 80.687 -40.672 Q76.153 -36.278 69.979 -36.278 Z M106.186 -4.028 V-11.793 Q100.701 -12.816 97.032 -16.864 Q93.364 -20.912 93.283 -26.603 H97.718 Q97.879 -22.183 101.004 -19.193 Q104.13 -16.202 108.381 -16.202 Q112.633 -16.202 115.707 -19.209 Q118.78 -22.216 118.941 -26.603 H123.598 Q123.437 -20.956 119.726 -16.897 Q116.015 -12.838 110.698 -11.84 V-4.028 H106.186 Z M108.365 -20.798 Q105.793 -20.798 104.013 -22.551 Q102.233 -24.305 102.233 -26.844 V-37.172 Q102.233 -39.748 104.008 -41.561 Q105.784 -43.373 108.355 -43.373 Q110.927 -43.373 112.707 -41.596 Q114.487 -39.819 114.487 -37.246 V-26.926 Q114.487 -24.352 112.712 -22.575 Q110.936 -20.798 108.365 -20.798 Z M21.285 20.885 V-9.107 H24.832 V17.338 H51.278 V20.885 H21.285 Z M21.285 -61.352 V-91.345 H51.278 V-87.797 H24.832 V-61.352 H21.285 Z M103.523 20.885 V17.338 H129.968 V-9.107 H133.515 V20.885 H103.523 Z M129.968 -61.352 V-87.797 H103.523 V-91.345 H133.515 V-61.352 H129.968 Z M35.556 -4.028 V-12.01 Q35.556 -14.688 37.094 -16.884 Q38.632 -19.08 40.958 -20.476 Q49.181 -25.313 58.816 -26.724 Q68.451 -28.135 78.287 -27.409 Q78.126 -27.041 78.126 -26.681 Q78.126 -26.321 78.126 -26.119 Q78.126 -19.656 80.504 -13.838 Q82.883 -8.021 87.801 -4.028 H35.556 Z"/></g><g id="Bold-M" transform="matrix(1 0 0 1 2281.8 1126)"><path d="M57.75 -35.542 Q51.188 -35.542 46.5 -40.23 Q41.812 -44.917 41.812 -51.51 Q41.812 -58.126 46.5 -62.772 Q51.188 -67.417 57.78 -67.417 Q64.396 -67.417 69.042 -62.769 Q73.688 -58.121 73.688 -51.48 Q73.688 -44.917 69.039 -40.23 Q64.391 -35.542 57.75 -35.542 Z M77.562 -4.292 V-10.355 Q71.438 -11.667 67.438 -16.653 Q63.438 -21.639 63.438 -28.542 H70.875 Q70.875 -23.855 73.901 -20.542 Q76.926 -17.23 81.245 -17.23 Q85.562 -17.23 88.594 -20.553 Q91.625 -23.876 91.625 -28.542 H99.062 Q99.062 -21.667 95.062 -16.667 Q91.062 -11.667 84.938 -10.355 V-4.292 H77.562 Z M81.257 -22.042 Q78.267 -22.042 76.196 -24.091 Q74.125 -26.139 74.125 -29.105 V-36.663 Q74.125 -39.657 76.189 -41.725 Q78.253 -43.792 81.243 -43.792 Q84.233 -43.792 86.304 -41.726 Q88.375 -39.659 88.375 -36.667 V-29.115 Q88.375 -26.122 86.311 -24.082 Q84.247 -22.042 81.257 -22.042 Z M7 17.77 V-15.48 H22.125 V2.645 H40.25 V17.77 H7 Z M7 -54.98 V-88.23 H40.25 V-73.105 H22.125 V-54.98 H7 Z M79.75 17.77 V2.645 H97.875 V-15.48 H113 V17.77 H79.75 Z M97.875 -54.98 V-73.105 H79.75 V-88.23 H113 V-54.98 H97.875 Z M26.812 -4.292 V-14.753 Q26.812 -18.23 28.938 -20.949 Q31.062 -23.667 34.25 -25.292 Q39.625 -28.167 45.5 -29.636 Q51.375 -31.105 57.438 -31.167 Q57.062 -29.574 56.812 -28.008 Q56.562 -26.441 56.562 -24.792 Q56.562 -18.541 59.438 -13.135 Q62.312 -7.73 67.562 -4.292 H26.812 Z"/></g><g id="Semibold-M" transform="matrix(1 0 0 1 1985.97 1126)"><path d="M56.554 -35.542 Q50.155 -35.542 45.658 -40.04 Q41.16 -44.537 41.16 -50.966 Q41.16 -57.356 45.658 -61.843 Q50.155 -66.331 56.584 -66.331 Q62.974 -66.331 67.461 -61.841 Q71.948 -57.351 71.948 -50.936 Q71.948 -44.537 67.459 -40.04 Q62.969 -35.542 56.554 -35.542 Z M78.486 -4.836 V-11.551 Q72.742 -12.7 68.959 -17.252 Q65.177 -21.805 65.177 -28.108 H71.527 Q71.527 -23.692 74.474 -20.57 Q77.42 -17.447 81.627 -17.447 Q85.834 -17.447 88.784 -20.579 Q91.734 -23.71 91.734 -28.108 H98.084 Q98.084 -21.83 94.302 -17.265 Q90.519 -12.7 84.775 -11.551 V-4.836 H78.486 Z M81.638 -22.314 Q78.831 -22.314 76.885 -24.236 Q74.94 -26.158 74.94 -28.942 V-37.478 Q74.94 -40.29 76.878 -42.231 Q78.816 -44.173 81.623 -44.173 Q84.43 -44.173 86.376 -42.232 Q88.321 -40.292 88.321 -37.482 V-28.952 Q88.321 -26.142 86.382 -24.228 Q84.444 -22.314 81.638 -22.314 Z M8.848 15.922 V-15.48 H21.473 V3.297 H40.25 V15.922 H8.848 Z M8.848 -54.98 V-86.382 H40.25 V-73.757 H21.473 V-54.98 H8.848 Z M79.75 15.922 V3.297 H98.527 V-15.48 H111.152 V15.922 H79.75 Z M98.527 -54.98 V-73.757 H79.75 V-86.382 H111.152 V-54.98 H98.527 Z M26.16 -4.836 V-14.743 Q26.16 -18.067 28.231 -20.65 Q30.302 -23.233 33.326 -24.803 Q39.027 -27.841 45.255 -29.31 Q51.484 -30.779 57.927 -30.57 Q57.606 -29.14 57.41 -27.751 Q57.215 -26.363 57.215 -24.901 Q57.215 -18.809 59.981 -13.541 Q62.747 -8.273 67.78 -4.836 H26.16 Z"/></g><g id="Medium-M" transform="matrix(1 0 0 1 1689.91 1126)"><path d="M55.658 -35.542 Q49.38 -35.542 45.026 -39.897 Q40.671 -44.252 40.671 -50.559 Q40.671 -56.778 45.026 -61.147 Q49.38 -65.515 55.687 -65.515 Q61.907 -65.515 66.276 -61.144 Q70.644 -56.773 70.644 -50.529 Q70.644 -44.252 66.273 -39.897 Q61.902 -35.542 55.658 -35.542 Z M79.179 -5.244 V-12.447 Q73.72 -13.474 70.1 -17.702 Q66.481 -21.929 66.481 -27.782 H72.016 Q72.016 -23.57 74.904 -20.59 Q77.791 -17.61 81.914 -17.61 Q86.038 -17.61 88.927 -20.598 Q91.815 -23.586 91.815 -27.782 H97.35 Q97.35 -21.953 93.731 -17.714 Q90.111 -13.474 84.652 -12.447 V-5.244 H79.179 Z M81.923 -22.518 Q79.253 -22.518 77.402 -24.345 Q75.552 -26.173 75.552 -28.82 V-38.089 Q75.552 -40.764 77.395 -42.611 Q79.239 -44.458 81.909 -44.458 Q84.579 -44.458 86.429 -42.612 Q88.28 -40.767 88.28 -38.093 V-28.83 Q88.28 -26.157 86.436 -24.337 Q84.593 -22.518 81.923 -22.518 Z M10.234 14.536 V-15.48 H20.984 V3.786 H40.25 V14.536 H10.234 Z M10.234 -54.98 V-84.996 H40.25 V-74.246 H20.984 V-54.98 H10.234 Z M79.75 14.536 V3.786 H99.016 V-15.48 H109.766 V14.536 H79.75 Z M99.016 -54.98 V-74.246 H79.75 V-84.996 H109.766 V-54.98 H99.016 Z M25.671 -5.244 V-14.735 Q25.671 -17.945 27.701 -20.426 Q29.731 -22.907 32.633 -24.436 Q38.579 -27.597 45.072 -29.066 Q51.565 -30.534 58.294 -30.121 Q58.014 -28.814 57.859 -27.559 Q57.704 -26.304 57.704 -24.983 Q57.704 -19.01 60.389 -13.845 Q63.073 -8.681 67.943 -5.244 H25.671 Z"/></g><g id="Regular-M" transform="matrix(1 0 0 1 1394.06 1126)"><path d="M55 -35.542 Q48.812 -35.542 44.562 -39.792 Q40.312 -44.042 40.312 -50.26 Q40.312 -56.355 44.562 -60.636 Q48.812 -64.917 55.03 -64.917 Q61.125 -64.917 65.406 -60.634 Q69.688 -56.35 69.688 -50.23 Q69.688 -44.042 65.404 -39.792 Q61.12 -35.542 55 -35.542 Z M79.688 -5.542 V-13.105 Q74.438 -14.042 70.938 -18.031 Q67.438 -22.02 67.438 -27.542 H72.375 Q72.375 -23.48 75.219 -20.605 Q78.062 -17.73 82.125 -17.73 Q86.188 -17.73 89.031 -20.612 Q91.875 -23.495 91.875 -27.542 H96.812 Q96.812 -22.042 93.312 -18.042 Q89.812 -14.042 84.562 -13.105 V-5.542 H79.688 Z M82.132 -22.667 Q79.562 -22.667 77.781 -24.426 Q76 -26.184 76 -28.73 V-38.538 Q76 -41.112 77.774 -42.89 Q79.548 -44.667 82.118 -44.667 Q84.688 -44.667 86.469 -42.891 Q88.25 -41.114 88.25 -38.542 V-28.74 Q88.25 -26.167 86.476 -24.417 Q84.702 -22.667 82.132 -22.667 Z M11.25 13.52 V-15.48 H20.625 V4.145 H40.25 V13.52 H11.25 Z M11.25 -54.98 V-83.98 H40.25 V-74.605 H20.625 V-54.98 H11.25 Z M79.75 13.52 V4.145 H99.375 V-15.48 H108.75 V13.52 H79.75 Z M99.375 -54.98 V-74.605 H79.75 V-83.98 H108.75 V-54.98 H99.375 Z M25.312 -5.542 V-14.73 Q25.312 -17.855 27.312 -20.261 Q29.312 -22.667 32.125 -24.167 Q38.25 -27.417 44.938 -28.886 Q51.625 -30.355 58.562 -29.792 Q58.312 -28.574 58.188 -27.417 Q58.062 -26.26 58.062 -25.042 Q58.062 -19.157 60.688 -14.068 Q63.312 -8.98 68.062 -5.542 H25.312 Z"/></g><g id="Light-M" transform="matrix(1 0 0 1 1098.18 1126)"><path d="M54.706 -35.783 Q49.053 -35.783 45.139 -39.696 Q41.226 -43.61 41.226 -49.281 Q41.226 -54.84 45.139 -58.809 Q49.053 -62.778 54.724 -62.778 Q60.284 -62.778 64.252 -58.81 Q68.221 -54.841 68.221 -49.263 Q68.221 -43.61 64.253 -39.696 Q60.284 -35.783 54.706 -35.783 Z M80.337 -7.706 V-14.654 Q75.495 -15.533 72.26 -19.173 Q69.024 -22.813 69 -27.879 H73.361 Q73.409 -24.081 76.067 -21.434 Q78.724 -18.788 82.492 -18.788 Q86.26 -18.788 88.906 -21.444 Q91.553 -24.1 91.602 -27.879 H95.995 Q95.947 -22.84 92.711 -19.19 Q89.475 -15.54 84.659 -14.668 V-7.706 H80.337 Z M82.491 -23.172 Q80.153 -23.172 78.534 -24.77 Q76.913 -26.368 76.913 -28.682 V-37.758 Q76.913 -40.101 78.528 -41.723 Q80.142 -43.345 82.48 -43.345 Q84.818 -43.345 86.438 -41.729 Q88.058 -40.113 88.058 -37.772 V-28.702 Q88.058 -26.362 86.443 -24.767 Q84.829 -23.172 82.491 -23.172 Z M13.51 11.26 V-15.432 H20.505 V4.265 H40.202 V11.26 H13.51 Z M13.51 -55.028 V-81.72 H40.202 V-74.725 H20.505 V-55.028 H13.51 Z M79.798 11.26 V4.265 H99.495 V-15.432 H106.49 V11.26 H79.798 Z M99.495 -55.028 V-74.725 H79.798 V-81.72 H106.49 V-55.028 H99.495 Z M26.226 -7.706 V-15.692 Q26.226 -18.413 27.951 -20.537 Q29.677 -22.66 32.125 -23.975 Q38.274 -27.321 45.058 -28.706 Q51.841 -30.09 58.851 -29.528 Q58.697 -28.693 58.62 -27.922 Q58.543 -27.152 58.543 -26.341 Q58.543 -20.792 60.868 -15.92 Q63.192 -11.047 67.582 -7.706 H26.226 Z"/></g><g id="Thin-M" transform="matrix(1 0 0 1 802.565 1126)"><path d="M54.412 -36.023 Q49.293 -36.023 45.716 -39.6 Q42.139 -43.177 42.139 -48.302 Q42.139 -53.326 45.716 -56.982 Q49.293 -60.639 54.418 -60.639 Q59.442 -60.639 63.099 -56.986 Q66.755 -53.333 66.755 -48.295 Q66.755 -43.177 63.102 -39.6 Q59.449 -36.023 54.412 -36.023 Z M80.986 -9.869 V-16.202 Q76.553 -17.023 73.582 -20.315 Q70.611 -23.606 70.562 -28.216 H74.346 Q74.442 -24.682 76.914 -22.264 Q79.386 -19.845 82.859 -19.845 Q86.332 -19.845 88.782 -22.275 Q91.232 -24.705 91.328 -28.216 H95.178 Q95.082 -23.638 92.109 -20.337 Q89.136 -17.036 84.755 -16.23 V-9.869 H80.986 Z M82.85 -23.677 Q80.744 -23.677 79.286 -25.114 Q77.827 -26.552 77.827 -28.633 V-36.979 Q77.827 -39.089 79.281 -40.556 Q80.736 -42.023 82.842 -42.023 Q84.948 -42.023 86.407 -40.568 Q87.865 -39.112 87.865 -37.003 V-28.664 Q87.865 -26.556 86.411 -25.116 Q84.957 -23.677 82.85 -23.677 Z M15.769 9.001 V-15.384 H20.385 V4.385 H40.154 V9.001 H15.769 Z M15.769 -55.076 V-79.461 H40.154 V-74.845 H20.385 V-55.076 H15.769 Z M79.846 9.001 V4.385 H99.615 V-15.384 H104.231 V9.001 H79.846 Z M99.615 -55.076 V-74.845 H79.846 V-79.461 H104.231 V-55.076 H99.615 Z M27.139 -9.869 V-16.653 Q27.139 -18.971 28.59 -20.812 Q30.041 -22.653 32.125 -23.783 Q38.298 -27.225 45.178 -28.526 Q52.058 -29.826 59.139 -29.264 Q59.082 -28.811 59.053 -28.427 Q59.024 -28.043 59.024 -27.639 Q59.024 -22.426 61.048 -17.77 Q63.072 -13.115 67.101 -9.869 H27.139 Z"/></g><g id="Ultralight-M" transform="matrix(1 0 0 1 506.415 1126)"><path d="M54.235 -36.167 Q49.438 -36.167 46.062 -39.542 Q42.688 -42.917 42.688 -47.714 Q42.688 -52.417 46.062 -55.886 Q49.438 -59.355 54.234 -59.355 Q58.938 -59.355 62.406 -55.891 Q65.875 -52.428 65.875 -47.715 Q65.875 -42.917 62.411 -39.542 Q58.948 -36.167 54.235 -36.167 Z M81.375 -11.167 V-17.132 Q77.188 -17.917 74.375 -21 Q71.562 -24.082 71.5 -28.417 H74.938 Q75.062 -25.042 77.423 -22.761 Q79.783 -20.48 83.079 -20.48 Q86.375 -20.48 88.707 -22.774 Q91.039 -25.068 91.164 -28.417 H94.688 Q94.562 -24.116 91.748 -21.025 Q88.934 -17.935 84.812 -17.167 V-11.167 H81.375 Z M83.066 -23.98 Q81.099 -23.98 79.737 -25.321 Q78.375 -26.662 78.375 -28.605 V-36.512 Q78.375 -38.482 79.733 -39.856 Q81.092 -41.23 83.059 -41.23 Q85.026 -41.23 86.388 -39.87 Q87.75 -38.511 87.75 -36.542 V-28.641 Q87.75 -26.672 86.392 -25.326 Q85.033 -23.98 83.066 -23.98 Z M17.125 7.645 V-15.355 H20.312 V4.458 H40.125 V7.645 H17.125 Z M17.125 -55.105 V-78.105 H40.125 V-74.917 H20.312 V-55.105 H17.125 Z M79.875 7.645 V4.458 H99.688 V-15.355 H102.875 V7.645 H79.875 Z M99.688 -55.105 V-74.917 H79.875 V-78.105 H102.875 V-55.105 H99.688 Z M27.688 -11.167 V-17.23 Q27.688 -19.306 28.974 -20.977 Q30.26 -22.648 32.125 -23.667 Q38.312 -27.167 45.25 -28.417 Q52.188 -29.667 59.312 -29.105 Q59.312 -28.882 59.312 -28.73 Q59.312 -28.578 59.312 -28.417 Q59.312 -23.407 61.156 -18.881 Q63 -14.355 66.812 -11.167 H27.688 Z"/></g><g id="Bold-S" transform="matrix(1 0 0 1 2294.23 696)"><path d="M49.51 -35.477 Q44.332 -35.477 40.634 -39.175 Q36.935 -42.873 36.935 -48.075 Q36.935 -53.295 40.634 -56.96 Q44.332 -60.626 49.533 -60.626 Q54.753 -60.626 58.419 -56.958 Q62.084 -53.291 62.084 -48.051 Q62.084 -42.873 58.417 -39.175 Q54.749 -35.477 49.51 -35.477 Z M60.802 -10.82 V-15.012 Q56.167 -15.949 53.11 -19.737 Q50.052 -23.525 50.052 -28.77 H55.526 Q55.526 -25.17 57.852 -22.606 Q60.177 -20.042 63.498 -20.042 Q66.818 -20.042 69.161 -22.606 Q71.503 -25.17 71.503 -28.77 H76.977 Q76.977 -23.543 73.919 -19.746 Q70.862 -15.949 66.227 -14.992 V-10.82 H60.802 Z M63.531 -22.853 Q61.26 -22.853 59.675 -24.411 Q58.09 -25.97 58.09 -28.228 V-33.402 Q58.09 -35.682 59.658 -37.256 Q61.227 -38.83 63.498 -38.83 Q65.769 -38.83 67.354 -37.257 Q68.939 -35.683 68.939 -33.405 V-28.236 Q68.939 -25.957 67.371 -24.405 Q65.802 -22.853 63.531 -22.853 Z M7.101 5.009 V-21.225 H18.246 V-6.136 H33.335 V5.009 H7.101 Z M7.101 -49.235 V-75.469 H33.335 V-64.324 H18.246 V-49.235 H7.101 Z M61.345 5.009 V-6.136 H76.434 V-21.225 H87.579 V5.009 H61.345 Z M76.434 -49.235 V-64.324 H61.345 V-75.469 H87.579 V-49.235 H76.434 Z M25.1 -10.82 V-18.383 Q25.1 -21.097 26.75 -23.215 Q28.4 -25.334 30.87 -26.6 Q34.623 -28.716 38.713 -29.803 Q42.803 -30.89 46.995 -31.334 Q46.699 -30.077 46.354 -28.874 Q46.009 -27.67 46.009 -26.403 Q46.009 -21.766 48.03 -17.551 Q50.052 -13.335 53.997 -10.82 H25.1 Z"/></g><g id="Semibold-S" transform="matrix(1 0 0 1 1998.1 696)"><path d="M48.566 -35.477 Q43.517 -35.477 39.969 -39.025 Q36.421 -42.573 36.421 -47.646 Q36.421 -52.687 39.969 -56.228 Q43.517 -59.768 48.59 -59.768 Q53.631 -59.768 57.172 -56.226 Q60.712 -52.683 60.712 -47.622 Q60.712 -42.573 57.17 -39.025 Q53.627 -35.477 48.566 -35.477 Z M61.531 -11.249 V-15.955 Q57.196 -16.763 54.31 -20.21 Q51.424 -23.656 51.424 -28.427 H56.04 Q56.04 -25.042 58.304 -22.627 Q60.567 -20.213 63.8 -20.213 Q67.033 -20.213 69.311 -22.626 Q71.589 -25.039 71.589 -28.427 H76.205 Q76.205 -23.672 73.319 -20.217 Q70.433 -16.763 66.098 -15.935 V-11.249 H61.531 Z M63.831 -23.067 Q61.704 -23.067 60.219 -24.526 Q58.733 -25.986 58.733 -28.099 V-34.045 Q58.733 -36.181 60.202 -37.655 Q61.671 -39.13 63.798 -39.13 Q65.925 -39.13 67.411 -37.656 Q68.896 -36.182 68.896 -34.048 V-28.107 Q68.896 -25.973 67.427 -24.52 Q65.959 -23.067 63.831 -23.067 Z M8.559 3.551 V-21.225 H17.731 V-5.621 H33.335 V3.551 H8.559 Z M8.559 -49.235 V-74.011 H33.335 V-64.839 H17.731 V-49.235 H8.559 Z M61.345 3.551 V-5.621 H76.949 V-21.225 H86.121 V3.551 H61.345 Z M76.949 -49.235 V-64.839 H61.345 V-74.011 H86.121 V-49.235 H76.949 Z M24.586 -11.249 V-18.375 Q24.586 -20.968 26.193 -22.979 Q27.8 -24.991 30.141 -26.214 Q34.151 -28.458 38.52 -29.546 Q42.889 -30.633 47.381 -30.863 Q47.128 -29.734 46.825 -28.671 Q46.523 -27.608 46.523 -26.489 Q46.523 -21.978 48.459 -17.871 Q50.395 -13.764 54.169 -11.249 H24.586 Z"/></g><g id="Medium-S" transform="matrix(1 0 0 1 1701.85 696)"><path d="M47.859 -35.477 Q42.906 -35.477 39.47 -38.912 Q36.035 -42.348 36.035 -47.324 Q36.035 -52.232 39.47 -55.678 Q42.906 -59.125 47.882 -59.125 Q52.79 -59.125 56.236 -55.676 Q59.683 -52.228 59.683 -47.301 Q59.683 -42.348 56.234 -38.912 Q52.786 -35.477 47.859 -35.477 Z M62.078 -11.571 V-16.663 Q57.968 -17.375 55.211 -20.564 Q52.454 -23.754 52.454 -28.17 H56.426 Q56.426 -24.945 58.643 -22.643 Q60.859 -20.342 64.027 -20.342 Q67.194 -20.342 69.423 -22.641 Q71.653 -24.941 71.653 -28.17 H75.626 Q75.626 -23.768 72.869 -20.571 Q70.112 -17.375 66.002 -16.643 V-11.571 H62.078 Z M64.056 -23.228 Q62.037 -23.228 60.627 -24.612 Q59.216 -25.997 59.216 -28.002 V-34.527 Q59.216 -36.555 60.61 -37.955 Q62.004 -39.355 64.023 -39.355 Q66.042 -39.355 67.453 -37.956 Q68.864 -36.557 68.864 -34.53 V-28.011 Q68.864 -25.984 67.47 -24.606 Q66.076 -23.228 64.056 -23.228 Z M9.652 2.458 V-21.225 H17.345 V-5.235 H33.335 V2.458 H9.652 Z M9.652 -49.235 V-72.918 H33.335 V-65.225 H17.345 V-49.235 H9.652 Z M61.345 2.458 V-5.235 H77.335 V-21.225 H85.028 V2.458 H61.345 Z M77.335 -49.235 V-65.225 H61.345 V-72.918 H85.028 V-49.235 H77.335 Z M24.2 -11.571 V-18.369 Q24.2 -20.871 25.775 -22.803 Q27.35 -24.734 29.594 -25.925 Q33.797 -28.265 38.375 -29.353 Q42.953 -30.44 47.67 -30.509 Q47.449 -29.477 47.179 -28.519 Q46.909 -27.561 46.909 -26.553 Q46.909 -22.136 48.781 -18.111 Q50.653 -14.086 54.297 -11.571 H24.2 Z"/></g><g id="Regular-S" transform="matrix(1 0 0 1 1405.73 696)"><path d="M47.34 -35.477 Q42.458 -35.477 39.105 -38.83 Q35.752 -42.183 35.752 -47.088 Q35.752 -51.898 39.105 -55.276 Q42.458 -58.653 47.363 -58.653 Q52.173 -58.653 55.551 -55.273 Q58.928 -51.893 58.928 -47.065 Q58.928 -42.183 55.548 -38.83 Q52.168 -35.477 47.34 -35.477 Z M62.479 -11.807 V-17.182 Q58.534 -17.823 55.871 -20.824 Q53.208 -23.825 53.208 -27.981 H56.709 Q56.709 -24.874 58.892 -22.655 Q61.074 -20.436 64.193 -20.436 Q67.312 -20.436 69.506 -22.653 Q71.7 -24.869 71.7 -27.981 H75.202 Q75.202 -23.839 72.539 -20.831 Q69.876 -17.823 65.931 -17.162 V-11.807 H62.479 Z M64.222 -23.346 Q62.282 -23.346 60.926 -24.676 Q59.57 -26.006 59.57 -27.932 V-34.881 Q59.57 -36.83 60.909 -38.175 Q62.248 -39.52 64.188 -39.52 Q66.128 -39.52 67.484 -38.176 Q68.84 -36.831 68.84 -34.884 V-27.94 Q68.84 -25.993 67.501 -24.669 Q66.161 -23.346 64.222 -23.346 Z M10.454 1.656 V-21.225 H17.062 V-4.952 H33.335 V1.656 H10.454 Z M10.454 -49.235 V-72.116 H33.335 V-65.508 H17.062 V-49.235 H10.454 Z M61.345 1.656 V-4.952 H77.618 V-21.225 H84.226 V1.656 H61.345 Z M77.618 -49.235 V-65.508 H61.345 V-72.116 H84.226 V-49.235 H77.618 Z M23.917 -11.807 V-18.365 Q23.917 -20.801 25.468 -22.673 Q27.02 -24.545 29.193 -25.713 Q33.538 -28.124 38.269 -29.211 Q43.001 -30.299 47.882 -30.249 Q47.685 -29.288 47.439 -28.408 Q47.192 -27.527 47.192 -26.6 Q47.192 -22.253 49.017 -18.287 Q50.841 -14.321 54.392 -11.807 H23.917 Z"/></g><g id="Light-S" transform="matrix(1 0 0 1 1109.75 696)"><path d="M47.108 -35.666 Q42.648 -35.666 39.56 -38.754 Q36.472 -41.842 36.472 -46.316 Q36.472 -50.703 39.56 -53.834 Q42.648 -56.965 47.122 -56.965 Q51.509 -56.965 54.64 -53.834 Q57.771 -50.703 57.771 -46.302 Q57.771 -41.842 54.64 -38.754 Q51.509 -35.666 47.108 -35.666 Z M62.991 -13.514 V-18.404 Q59.369 -18.999 56.914 -21.725 Q54.46 -24.451 54.441 -28.247 H57.487 Q57.525 -25.349 59.56 -23.31 Q61.596 -21.271 64.482 -21.271 Q67.368 -21.271 69.408 -23.309 Q71.447 -25.346 71.485 -28.247 H74.557 Q74.519 -24.468 72.064 -21.736 Q69.609 -19.004 66.007 -18.395 V-13.514 H62.991 Z M64.505 -23.744 Q62.748 -23.744 61.519 -24.947 Q60.29 -26.151 60.29 -27.894 V-34.266 Q60.29 -36.031 61.504 -37.254 Q62.717 -38.477 64.474 -38.477 Q66.231 -38.477 67.46 -37.259 Q68.688 -36.041 68.688 -34.277 V-27.91 Q68.688 -26.146 67.475 -24.945 Q66.262 -23.744 64.505 -23.744 Z M12.237 -0.127 V-21.187 H16.967 V-4.857 H33.297 V-0.127 H12.237 Z M12.237 -49.273 V-70.333 H33.297 V-65.603 H16.967 V-49.273 H12.237 Z M61.383 -0.127 V-4.857 H77.713 V-21.187 H82.443 V-0.127 H61.383 Z M77.713 -49.273 V-65.603 H61.383 V-70.333 H82.443 V-49.273 H77.713 Z M24.637 -13.514 V-19.124 Q24.637 -21.241 25.972 -22.89 Q27.307 -24.539 29.193 -25.561 Q33.557 -28.048 38.364 -29.069 Q43.171 -30.09 48.11 -30.041 Q47.989 -29.382 47.78 -28.806 Q47.571 -28.23 47.571 -27.625 Q47.571 -23.542 49.159 -19.748 Q50.746 -15.953 54.012 -13.514 H24.637 Z"/></g><g id="Thin-S" transform="matrix(1 0 0 1 814.015 696)"><path d="M46.876 -35.856 Q42.837 -35.856 40.015 -38.678 Q37.193 -41.5 37.193 -45.544 Q37.193 -49.508 40.015 -52.393 Q42.837 -55.277 46.881 -55.277 Q50.845 -55.277 53.73 -52.395 Q56.615 -49.513 56.615 -45.539 Q56.615 -41.5 53.732 -38.678 Q50.85 -35.856 46.876 -35.856 Z M63.503 -15.22 V-19.626 Q60.203 -20.174 57.957 -22.626 Q55.712 -25.077 55.674 -28.512 H58.265 Q58.34 -25.823 60.229 -23.964 Q62.118 -22.105 64.772 -22.105 Q67.425 -22.105 69.309 -23.965 Q71.193 -25.824 71.269 -28.512 H73.912 Q73.836 -25.097 71.589 -22.641 Q69.342 -20.185 66.082 -19.628 V-15.22 H63.503 Z M64.788 -24.142 Q63.214 -24.142 62.113 -25.219 Q61.011 -26.296 61.011 -27.856 V-33.651 Q61.011 -35.233 62.098 -36.334 Q63.185 -37.434 64.759 -37.434 Q66.334 -37.434 67.435 -36.342 Q68.537 -35.251 68.537 -33.671 V-27.88 Q68.537 -26.299 67.45 -25.221 Q66.363 -24.142 64.788 -24.142 Z M14.02 -1.91 V-21.149 H16.872 V-4.762 H33.259 V-1.91 H14.02 Z M14.02 -49.311 V-68.55 H33.259 V-65.698 H16.872 V-49.311 H14.02 Z M61.421 -1.91 V-4.762 H77.808 V-21.149 H80.66 V-1.91 H61.421 Z M77.808 -49.311 V-65.698 H61.421 V-68.55 H80.66 V-49.311 H77.808 Z M25.358 -15.22 V-19.882 Q25.358 -21.681 26.476 -23.107 Q27.594 -24.533 29.193 -25.409 Q33.576 -27.972 38.459 -28.927 Q43.342 -29.881 48.338 -29.832 Q48.292 -29.475 48.121 -29.204 Q47.951 -28.934 47.951 -28.649 Q47.951 -24.832 49.301 -21.208 Q50.652 -17.584 53.633 -15.22 H25.358 Z"/></g><g id="Ultralight-S" transform="matrix(1 0 0 1 517.792 696)"><path d="M46.737 -35.97 Q42.951 -35.97 40.288 -38.633 Q37.625 -41.295 37.625 -45.08 Q37.625 -48.791 40.288 -51.528 Q42.951 -54.265 46.736 -54.265 Q50.447 -54.265 53.184 -51.532 Q55.92 -48.799 55.92 -45.081 Q55.92 -41.295 53.188 -38.633 Q50.455 -35.97 46.737 -35.97 Z M63.81 -16.245 V-20.359 Q60.704 -20.88 58.583 -23.166 Q56.463 -25.453 56.413 -28.671 H58.731 Q58.83 -26.107 60.631 -24.357 Q62.431 -22.606 64.945 -22.606 Q67.46 -22.606 69.25 -24.358 Q71.041 -26.11 71.139 -28.671 H73.525 Q73.426 -25.475 71.304 -23.184 Q69.182 -20.894 66.128 -20.367 V-16.245 H63.81 Z M64.958 -24.381 Q63.494 -24.381 62.469 -25.382 Q61.443 -26.383 61.443 -27.833 V-33.282 Q61.443 -34.754 62.455 -35.781 Q63.466 -36.808 64.931 -36.808 Q66.395 -36.808 67.421 -35.793 Q68.446 -34.777 68.446 -33.307 V-27.862 Q68.446 -26.391 67.434 -25.386 Q66.423 -24.381 64.958 -24.381 Z M15.09 -2.98 V-21.127 H16.816 V-4.706 H33.237 V-2.98 H15.09 Z M15.09 -49.333 V-67.48 H33.237 V-65.754 H16.816 V-49.333 H15.09 Z M61.443 -2.98 V-4.706 H77.864 V-21.127 H79.59 V-2.98 H61.443 Z M77.864 -49.333 V-65.754 H61.443 V-67.48 H79.59 V-49.333 H77.864 Z M25.79 -16.245 V-20.338 Q25.79 -21.946 26.779 -23.238 Q27.767 -24.53 29.193 -25.318 Q33.587 -27.927 38.516 -28.841 Q43.444 -29.756 48.474 -29.707 Q48.474 -29.531 48.326 -29.443 Q48.178 -29.356 48.178 -29.263 Q48.178 -25.606 49.386 -22.084 Q50.595 -18.562 53.405 -16.245 H25.79 Z"/></g></g></svg>