<svg xmlns="http://www.w3.org/2000/svg" height="40" viewBox="0 -960 960 960" width="40"><path d="M441-50.667V-138q-79-12.334-130.333-72.9-51.333-60.567-51.333-142.433H336q0 59.767 42.4 101.217 42.401 41.45 101.943 41.45 59.267 0 101.295-41.443 42.029-41.443 42.029-101.224h76.666q0 81.682-51.667 142.341Q597-150.334 518.666-138v87.333H441Zm39.389-226q-34.339 0-59.364-25.081T396-361v-111.333q0-34.3 24.841-57.983Q445.682-554 480.174-554q34.493 0 58.992 23.684 24.5 23.683 24.5 57.983V-361q0 34.171-24.421 59.252-24.421 25.081-58.856 25.081ZM10.667-387.333V-468q0-23.721 14.028-46.001 14.027-22.281 36.972-36.666 45.667-27.666 98.333-41.666 52.667-14 110-14 17.029 0 35.389 2.03 18.36 2.031 36.278 5.303-59.333 33-97.833 89.5t-45.5 122.167H10.667Zm750.999 0q-7-65.667-45.5-123T619-599q17.333-3.333 35.64-5.333 18.306-2 36.027-2 56.666 0 109.333 14 52.666 14 98.333 41.666 22.909 14.167 37.288 36.514Q950-491.805 950-468v80.667H761.666Zm-490.783-258q-55.883 0-95.216-38.936-39.333-38.937-39.333-94.75 0-55.536 38.992-93.758Q214.317-911 270.02-911q54.98 0 94.313 38.147 39.334 38.147 39.334 94.108 0 55.683-38.66 94.547-38.659 38.865-94.124 38.865Zm419.43 0q-55.98 0-94.646-38.936Q557-723.206 557-779.019q0-55.536 38.632-93.758Q634.263-911 689.451-911q54.882 0 94.549 38.147 39.666 38.147 39.666 94.108 0 55.683-38.686 94.547-38.686 38.865-94.667 38.865Z"/></svg>