<svg xmlns="http://www.w3.org/2000/svg" version="1.1" width="3300" height="2000"><g id="Notes"><style>
    text {
      font-family: monospace;
      text-anchor: middle;
    }
    text.emphasis {
      font-weight:bold;
    }
    text.lanchor {
      text-anchor: start;
    }
  </style><rect height="2200" id="artboard" fill="white" width="3300" x="0" y="0"/><line id="" style="fill:none;stroke:black;stroke-width:0.5;" x1="263" x2="3036" y1="292" y2="292"/><text class="lanchor emphasis" transform="matrix(1 0 0 1 263 322)">Weight/Scale Variations</text><text transform="matrix(1 0 0 1 559.711 322)">Ultralight</text><text transform="matrix(1 0 0 1 856.422 322)">Thin</text><text transform="matrix(1 0 0 1 1153.13 322)">Light</text><text transform="matrix(1 0 0 1 1449.84 322)">Regular</text><text transform="matrix(1 0 0 1 1746.56 322)">Medium</text><text transform="matrix(1 0 0 1 2043.27 322)">Semibold</text><text transform="matrix(1 0 0 1 2339.98 322)">Bold</text><text transform="matrix(1 0 0 1 2636.69 322)">Heavy</text><text transform="matrix(1 0 0 1 2933.4 322)">Black</text><text id="template-version" style="text-anchor: end;" transform="matrix(1 0 0 1 3036 1933)">Template v.1.0</text><text class="lanchor" transform="matrix(1 0 0 1 263 726)">Small</text><text class="lanchor" transform="matrix(1 0 0 1 263 1156)">Medium</text><text class="lanchor" transform="matrix(1 0 0 1 263 1586)">Large</text></g><g id="Guides"><g id="H-reference" style="fill:#27AAE1;stroke:none;" transform="matrix(1 0 0 1 339 696)"><path d="M 54.9316 0 L 57.666 0 L 30.5664 -70.459 L 28.0762 -70.459 L 0.976562 0 L 3.66211 0 L 12.9395 -24.4629 L 45.7031 -24.4629 Z M 29.1992 -67.0898 L 29.4434 -67.0898 L 44.8242 -26.709 L 13.8184 -26.709 Z"/></g><line id="Baseline-S" style="fill:none;stroke:#27AAE1;opacity:1;stroke-width:0.577;" x1="263" x2="3036" y1="696" y2="696"/><line id="Capline-S" style="fill:none;stroke:#27AAE1;opacity:1;stroke-width:0.577;" x1="263" x2="3036" y1="625.541" y2="625.541"/><g id="H-reference" style="fill:#27AAE1;stroke:none;" transform="matrix(1 0 0 1 339 1126)"><path d="M 54.9316 0 L 57.666 0 L 30.5664 -70.459 L 28.0762 -70.459 L 0.976562 0 L 3.66211 0 L 12.9395 -24.4629 L 45.7031 -24.4629 Z M 29.1992 -67.0898 L 29.4434 -67.0898 L 44.8242 -26.709 L 13.8184 -26.709 Z"/></g><line id="Baseline-M" style="fill:none;stroke:#27AAE1;opacity:1;stroke-width:0.577;" x1="263" x2="3036" y1="1126" y2="1126"/><line id="Capline-M" style="fill:none;stroke:#27AAE1;opacity:1;stroke-width:0.577;" x1="263" x2="3036" y1="1055.54" y2="1055.54"/><g id="H-reference" style="fill:#27AAE1;stroke:none;" transform="matrix(1 0 0 1 339 1556)"><path d="M 54.9316 0 L 57.666 0 L 30.5664 -70.459 L 28.0762 -70.459 L 0.976562 0 L 3.66211 0 L 12.9395 -24.4629 L 45.7031 -24.4629 Z M 29.1992 -67.0898 L 29.4434 -67.0898 L 44.8242 -26.709 L 13.8184 -26.709 Z"/></g><line id="Baseline-L" style="fill:none;stroke:#27AAE1;opacity:1;stroke-width:0.577;" x1="263" x2="3036" y1="1556" y2="1556"/><line id="Capline-L" style="fill:none;stroke:#27AAE1;opacity:1;stroke-width:0.577;" x1="263" x2="3036" y1="1485.54" y2="1485.54"/><rect height="119.336" id="left-margin" style="fill:darkred;stroke:none;opacity:0.4;" width="12.4512" x="1394.06" y="1030.79"/><rect height="119.336" id="right-margin" style="fill:darkgreen;stroke:none;opacity:0.4;" width="12.4512" x="1502.5112" y="1030.79"/><rect x="1406.5112" y="1045" width="96" height="96" fill="none" stroke="blue" stroke-dasharray="5"/><rect x="1394.06" y="1030.79" width="120.9024" height="119.336" fill="none" stroke="blue"/></g><g id="Symbols"><g id="Bold-L" transform="matrix(1 0 0 1 2266 1556)"><path d="M54.18 -69.254 V-42.647 Q54.18 -40.901 55.327 -39.758 Q56.475 -38.616 58.23 -38.616 Q59.985 -38.616 61.114 -39.758 Q62.242 -40.901 62.242 -42.647 V-73.285 Q62.242 -75.032 61.1 -76.174 Q59.958 -77.316 58.211 -77.316 H48.053 Q46.306 -77.316 45.163 -76.169 Q44.021 -75.021 44.021 -73.266 Q44.021 -71.511 45.163 -70.382 Q46.306 -69.254 48.053 -69.254 H54.18 Z M97.718 -46.679 H82.399 Q80.652 -46.679 79.51 -45.531 Q78.368 -44.384 78.368 -42.629 Q78.368 -40.874 79.51 -39.745 Q80.652 -38.616 82.399 -38.616 H99.33 Q101.588 -38.616 103.684 -40.712 Q105.78 -42.809 105.78 -45.066 V-54.096 Q105.78 -56.354 103.684 -58.45 Q101.588 -60.546 99.33 -60.546 H86.43 V-69.254 H101.749 Q103.496 -69.254 104.638 -70.401 Q105.78 -71.549 105.78 -73.304 Q105.78 -75.059 104.638 -76.187 Q103.496 -77.316 101.749 -77.316 H82.399 Q80.652 -77.316 79.51 -76.174 Q78.368 -75.032 78.368 -73.285 V-59.256 Q78.368 -57.509 79.51 -56.367 Q80.652 -55.225 82.399 -55.225 H97.718 V-46.679 Z M30.476 26.851 Q24.179 26.851 19.749 22.421 Q15.319 17.991 15.319 11.694 V-82.154 Q15.319 -88.517 19.749 -92.995 Q24.179 -97.472 30.476 -97.472 H124.324 Q130.687 -97.472 135.165 -92.995 Q139.643 -88.517 139.643 -82.154 V11.694 Q139.643 17.991 135.165 22.421 Q130.687 26.851 124.324 26.851 H30.476 Z M30.476 11.694 H124.324 Q124.324 11.694 124.324 11.694 Q124.324 11.694 124.324 11.694 V-82.154 Q124.324 -82.154 124.324 -82.154 Q124.324 -82.154 124.324 -82.154 H30.476 Q30.476 -82.154 30.476 -82.154 Q30.476 -82.154 30.476 -82.154 V11.694 Q30.476 11.694 30.476 11.694 Q30.476 11.694 30.476 11.694 Z M45.634 -22.33 H54.18 V-6.527 Q54.18 -4.781 55.327 -3.638 Q56.475 -2.496 58.23 -2.496 Q59.985 -2.496 61.114 -3.638 Q62.242 -4.781 62.242 -6.527 V-22.33 H71.918 V2.825 Q71.918 4.572 73.065 5.714 Q74.213 6.856 75.967 6.856 Q77.722 6.856 78.851 5.714 Q79.98 4.572 79.98 2.825 V-23.898 Q79.98 -26.2 77.884 -28.296 Q75.788 -30.392 73.53 -30.392 H44.021 Q41.764 -30.392 39.668 -28.296 Q37.571 -26.2 37.571 -23.901 V2.794 Q37.571 4.572 38.719 5.714 Q39.866 6.856 41.621 6.856 Q43.376 6.856 44.505 5.714 Q45.634 4.572 45.634 2.786 V-22.33 Z M97.718 -2.657 H110.618 Q112.875 -2.657 114.971 -4.673 Q117.068 -6.689 117.068 -9.107 V-23.912 Q117.068 -26.192 114.971 -28.292 Q112.875 -30.392 110.618 -30.392 H93.686 Q91.939 -30.392 90.797 -29.25 Q89.655 -28.108 89.655 -26.329 V2.825 Q89.655 4.572 90.802 5.714 Q91.95 6.856 93.705 6.856 Q95.46 6.856 96.589 5.714 Q97.718 4.572 97.718 2.825 V-2.657 Z M97.718 -10.72 V-22.33 H109.005 V-10.72 H97.718 Z"/></g><g id="Semibold-L" transform="matrix(1 0 0 1 1970.27 1556)"><path d="M54.18 -69.885 V-43.278 Q54.18 -41.531 55.327 -40.389 Q56.475 -39.247 58.23 -39.247 Q59.985 -39.247 61.114 -40.389 Q62.242 -41.531 62.242 -43.278 V-73.916 Q62.242 -75.663 61.1 -76.805 Q59.958 -77.947 58.211 -77.947 H48.053 Q46.306 -77.947 45.163 -76.8 Q44.021 -75.652 44.021 -73.897 Q44.021 -72.142 45.163 -71.013 Q46.306 -69.885 48.053 -69.885 H54.18 Z M97.718 -47.31 H82.399 Q80.652 -47.31 79.51 -46.162 Q78.368 -45.015 78.368 -43.26 Q78.368 -41.505 79.51 -40.376 Q80.652 -39.247 82.399 -39.247 H99.33 Q101.588 -39.247 103.684 -41.343 Q105.78 -43.44 105.78 -45.697 V-54.727 Q105.78 -56.985 103.684 -59.081 Q101.588 -61.177 99.33 -61.177 H86.43 V-69.885 H101.749 Q103.496 -69.885 104.638 -71.032 Q105.78 -72.18 105.78 -73.935 Q105.78 -75.69 104.638 -76.818 Q103.496 -77.947 101.749 -77.947 H82.399 Q80.652 -77.947 79.51 -76.805 Q78.368 -75.663 78.368 -73.916 V-59.887 Q78.368 -58.14 79.51 -56.998 Q80.652 -55.856 82.399 -55.856 H97.718 V-47.31 Z M29.845 25.099 Q24.604 25.099 20.838 21.332 Q17.071 17.566 17.071 12.325 V-82.785 Q17.071 -88.064 20.838 -91.857 Q24.604 -95.65 29.845 -95.65 H124.955 Q130.234 -95.65 134.027 -91.857 Q137.82 -88.064 137.82 -82.785 V12.325 Q137.82 17.566 134.027 21.332 Q130.234 25.099 124.955 25.099 H29.845 Z M29.845 12.325 H124.955 Q124.955 12.325 124.955 12.325 Q124.955 12.325 124.955 12.325 V-82.785 Q124.955 -82.785 124.955 -82.785 Q124.955 -82.785 124.955 -82.785 H29.845 Q29.845 -82.785 29.845 -82.785 Q29.845 -82.785 29.845 -82.785 V12.325 Q29.845 12.325 29.845 12.325 Q29.845 12.325 29.845 12.325 Z M45.634 -22.33 H54.18 V-6.247 Q54.18 -4.5 55.327 -3.358 Q56.475 -2.216 58.23 -2.216 Q59.985 -2.216 61.114 -3.358 Q62.242 -4.5 62.242 -6.247 V-22.33 H71.918 V3.456 Q71.918 5.203 73.065 6.345 Q74.213 7.487 75.967 7.487 Q77.722 7.487 78.851 6.345 Q79.98 5.203 79.98 3.456 V-23.918 Q79.98 -26.2 77.884 -28.296 Q75.788 -30.392 73.53 -30.392 H44.021 Q41.764 -30.392 39.668 -28.296 Q37.571 -26.2 37.571 -23.919 V3.438 Q37.571 5.203 38.719 6.345 Q39.866 7.487 41.621 7.487 Q43.376 7.487 44.505 6.345 Q45.634 5.203 45.634 3.434 V-22.33 Z M97.718 -2.307 H110.618 Q112.875 -2.307 114.971 -4.358 Q117.068 -6.408 117.068 -8.757 V-23.925 Q117.068 -26.195 114.971 -28.294 Q112.875 -30.392 110.618 -30.392 H93.686 Q91.939 -30.392 90.797 -29.25 Q89.655 -28.108 89.655 -26.343 V3.456 Q89.655 5.203 90.802 6.345 Q91.95 7.487 93.705 7.487 Q95.46 7.487 96.589 6.345 Q97.718 5.203 97.718 3.456 V-2.307 Z M97.718 -10.369 V-22.33 H109.005 V-10.369 H97.718 Z"/></g><g id="Medium-L" transform="matrix(1 0 0 1 1674.31 1556)"><path d="M54.18 -70.358 V-43.752 Q54.18 -42.005 55.327 -40.863 Q56.475 -39.72 58.23 -39.72 Q59.985 -39.72 61.114 -40.863 Q62.242 -42.005 62.242 -43.752 V-74.389 Q62.242 -76.136 61.1 -77.278 Q59.958 -78.42 58.211 -78.42 H48.053 Q46.306 -78.42 45.163 -77.273 Q44.021 -76.125 44.021 -74.371 Q44.021 -72.615 45.163 -71.487 Q46.306 -70.358 48.053 -70.358 H54.18 Z M97.718 -47.783 H82.399 Q80.652 -47.783 79.51 -46.636 Q78.368 -45.488 78.368 -43.733 Q78.368 -41.978 79.51 -40.849 Q80.652 -39.72 82.399 -39.72 H99.33 Q101.588 -39.72 103.684 -41.817 Q105.78 -43.913 105.78 -46.17 V-55.2 Q105.78 -57.458 103.684 -59.554 Q101.588 -61.65 99.33 -61.65 H86.43 V-70.358 H101.749 Q103.496 -70.358 104.638 -71.505 Q105.78 -72.653 105.78 -74.408 Q105.78 -76.163 104.638 -77.292 Q103.496 -78.42 101.749 -78.42 H82.399 Q80.652 -78.42 79.51 -77.278 Q78.368 -76.136 78.368 -74.389 V-60.36 Q78.368 -58.614 79.51 -57.471 Q80.652 -56.329 82.399 -56.329 H97.718 V-47.783 Z M29.372 23.784 Q24.922 23.784 21.654 20.516 Q18.386 17.248 18.386 12.798 V-83.258 Q18.386 -87.724 21.654 -91.003 Q24.922 -94.283 29.372 -94.283 H125.428 Q129.894 -94.283 133.173 -91.003 Q136.453 -87.724 136.453 -83.258 V12.798 Q136.453 17.248 133.173 20.516 Q129.894 23.784 125.428 23.784 H29.372 Z M29.372 12.798 H125.428 Q125.428 12.798 125.428 12.798 Q125.428 12.798 125.428 12.798 V-83.258 Q125.428 -83.258 125.428 -83.258 Q125.428 -83.258 125.428 -83.258 H29.372 Q29.372 -83.258 29.372 -83.258 Q29.372 -83.258 29.372 -83.258 V12.798 Q29.372 12.798 29.372 12.798 Q29.372 12.798 29.372 12.798 Z M45.634 -22.33 H54.18 V-6.037 Q54.18 -4.29 55.327 -3.148 Q56.475 -2.006 58.23 -2.006 Q59.985 -2.006 61.114 -3.148 Q62.242 -4.29 62.242 -6.037 V-22.33 H71.918 V3.929 Q71.918 5.676 73.065 6.818 Q74.213 7.96 75.967 7.96 Q77.722 7.96 78.851 6.818 Q79.98 5.676 79.98 3.929 V-23.932 Q79.98 -26.2 77.884 -28.296 Q75.788 -30.392 73.53 -30.392 H44.021 Q41.764 -30.392 39.668 -28.296 Q37.571 -26.2 37.571 -23.933 V3.922 Q37.571 5.676 38.719 6.818 Q39.866 7.96 41.621 7.96 Q43.376 7.96 44.505 6.818 Q45.634 5.676 45.634 3.92 V-22.33 Z M97.718 -2.044 H110.618 Q112.875 -2.044 114.971 -4.121 Q117.068 -6.198 117.068 -8.494 V-23.935 Q117.068 -26.198 114.971 -28.295 Q112.875 -30.392 110.618 -30.392 H93.686 Q91.939 -30.392 90.797 -29.25 Q89.655 -28.108 89.655 -26.354 V3.929 Q89.655 5.676 90.802 6.818 Q91.95 7.96 93.705 7.96 Q95.46 7.96 96.589 6.818 Q97.718 5.676 97.718 3.929 V-2.044 Z M97.718 -10.107 V-22.33 H109.005 V-10.107 H97.718 Z"/></g><g id="Regular-L" transform="matrix(1 0 0 1 1378.56 1556)"><path d="M54.18 -70.705 V-44.099 Q54.18 -42.352 55.327 -41.21 Q56.475 -40.067 58.23 -40.067 Q59.985 -40.067 61.114 -41.21 Q62.242 -42.352 62.242 -44.099 V-74.736 Q62.242 -76.483 61.1 -77.625 Q59.958 -78.767 58.211 -78.767 H48.053 Q46.306 -78.767 45.163 -77.62 Q44.021 -76.472 44.021 -74.718 Q44.021 -72.962 45.163 -71.834 Q46.306 -70.705 48.053 -70.705 H54.18 Z M97.718 -48.13 H82.399 Q80.652 -48.13 79.51 -46.983 Q78.368 -45.835 78.368 -44.08 Q78.368 -42.325 79.51 -41.196 Q80.652 -40.067 82.399 -40.067 H99.33 Q101.588 -40.067 103.684 -42.164 Q105.78 -44.26 105.78 -46.517 V-55.547 Q105.78 -57.805 103.684 -59.901 Q101.588 -61.997 99.33 -61.997 H86.43 V-70.705 H101.749 Q103.496 -70.705 104.638 -71.852 Q105.78 -73 105.78 -74.755 Q105.78 -76.51 104.638 -77.639 Q103.496 -78.767 101.749 -78.767 H82.399 Q80.652 -78.767 79.51 -77.625 Q78.368 -76.483 78.368 -74.736 V-60.707 Q78.368 -58.961 79.51 -57.818 Q80.652 -56.676 82.399 -56.676 H97.718 V-48.13 Z M29.025 22.82 Q25.155 22.82 22.253 19.918 Q19.35 17.015 19.35 13.145 V-83.605 Q19.35 -87.475 22.253 -90.377 Q25.155 -93.28 29.025 -93.28 H125.775 Q129.645 -93.28 132.548 -90.377 Q135.45 -87.475 135.45 -83.605 V13.145 Q135.45 17.015 132.548 19.918 Q129.645 22.82 125.775 22.82 H29.025 Z M29.025 13.145 H125.775 Q125.775 13.145 125.775 13.145 Q125.775 13.145 125.775 13.145 V-83.605 Q125.775 -83.605 125.775 -83.605 Q125.775 -83.605 125.775 -83.605 H29.025 Q29.025 -83.605 29.025 -83.605 Q29.025 -83.605 29.025 -83.605 V13.145 Q29.025 13.145 29.025 13.145 Q29.025 13.145 29.025 13.145 Z M45.634 -22.33 H54.18 V-5.882 Q54.18 -4.136 55.327 -2.993 Q56.475 -1.851 58.23 -1.851 Q59.985 -1.851 61.114 -2.993 Q62.242 -4.136 62.242 -5.882 V-22.33 H71.918 V4.276 Q71.918 6.023 73.065 7.165 Q74.213 8.308 75.967 8.308 Q77.722 8.308 78.851 7.165 Q79.98 6.023 79.98 4.276 V-23.942 Q79.98 -26.2 77.884 -28.296 Q75.788 -30.392 73.53 -30.392 H44.021 Q41.764 -30.392 39.668 -28.296 Q37.571 -26.2 37.571 -23.942 V4.276 Q37.571 6.023 38.719 7.165 Q39.866 8.308 41.621 8.308 Q43.376 8.308 44.505 7.165 Q45.634 6.023 45.634 4.276 V-22.33 Z M97.718 -1.851 H110.618 Q112.875 -1.851 114.971 -3.947 Q117.068 -6.044 117.068 -8.301 V-23.942 Q117.068 -26.2 114.971 -28.296 Q112.875 -30.392 110.618 -30.392 H93.686 Q91.939 -30.392 90.797 -29.25 Q89.655 -28.108 89.655 -26.361 V4.276 Q89.655 6.023 90.802 7.165 Q91.95 8.308 93.705 8.308 Q95.46 8.308 96.589 7.165 Q97.718 6.023 97.718 4.276 V-1.851 Z M97.718 -9.914 V-22.33 H109.005 V-9.914 H97.718 Z"/></g><g id="Light-L" transform="matrix(1 0 0 1 1082.77 1556)"><path d="M55.358 -70.829 V-43.913 Q55.358 -42.488 56.285 -41.557 Q57.212 -40.626 58.63 -40.626 Q60.047 -40.626 60.959 -41.557 Q61.87 -42.488 61.87 -43.913 V-74.116 Q61.87 -75.513 60.939 -76.427 Q60.008 -77.341 58.583 -77.341 H48.549 Q47.151 -77.341 46.237 -76.414 Q45.324 -75.487 45.324 -74.07 Q45.324 -72.652 46.237 -71.741 Q47.151 -70.829 48.549 -70.829 H55.358 Z M98.462 -47.138 H82.337 Q80.939 -47.138 80.025 -46.211 Q79.112 -45.284 79.112 -43.867 Q79.112 -42.449 80.025 -41.537 Q80.939 -40.626 82.337 -40.626 H99.268 Q101.333 -40.626 103.153 -42.446 Q104.974 -44.266 104.974 -46.331 V-55.672 Q104.974 -57.737 103.153 -59.557 Q101.333 -61.377 99.268 -61.377 H85.624 V-70.829 H101.687 Q103.111 -70.829 104.042 -71.765 Q104.974 -72.701 104.974 -74.132 Q104.974 -75.536 104.042 -76.439 Q103.111 -77.341 101.687 -77.341 H82.337 Q80.939 -77.341 80.025 -76.427 Q79.112 -75.513 79.112 -74.116 V-59.715 Q79.112 -58.318 80.025 -57.404 Q80.939 -56.49 82.337 -56.49 H98.462 V-47.138 Z M31.878 19.595 Q28.084 19.595 25.33 16.84 Q22.575 14.086 22.575 10.292 V-80.752 Q22.575 -84.546 25.33 -87.3 Q28.084 -90.055 31.878 -90.055 H122.922 Q126.716 -90.055 129.47 -87.3 Q132.225 -84.546 132.225 -80.752 V10.292 Q132.225 14.086 129.47 16.84 Q126.716 19.595 122.922 19.595 H31.878 Z M31.878 12.277 H122.922 Q123.666 12.277 124.287 11.657 Q124.907 11.036 124.907 10.292 V-80.752 Q124.907 -81.496 124.287 -82.117 Q123.666 -82.737 122.922 -82.737 H31.878 Q31.134 -82.737 30.513 -82.117 Q29.893 -81.496 29.893 -80.752 V10.292 Q29.893 11.036 30.513 11.657 Q31.134 12.277 31.878 12.277 Z M45.386 -23.322 H55.358 V-6.379 Q55.358 -4.981 56.285 -4.067 Q57.212 -3.154 58.63 -3.154 Q60.047 -3.154 60.959 -4.067 Q61.87 -4.981 61.87 -6.379 V-23.322 H72.662 V3.594 Q72.662 5.018 73.589 5.95 Q74.515 6.881 75.933 6.881 Q77.35 6.881 78.262 5.95 Q79.174 5.018 79.174 3.594 V-24.377 Q79.174 -26.386 77.45 -28.11 Q75.725 -29.834 73.716 -29.834 H44.331 Q42.322 -29.834 40.598 -28.11 Q38.874 -26.386 38.874 -24.377 V3.594 Q38.874 5.018 39.801 5.95 Q40.727 6.881 42.145 6.881 Q43.562 6.881 44.474 5.95 Q45.386 5.018 45.386 3.594 V-23.322 Z M96.477 -3.154 H110.369 Q112.379 -3.154 114.103 -4.878 Q115.827 -6.602 115.827 -8.611 V-24.377 Q115.827 -26.386 114.103 -28.11 Q112.379 -29.834 110.369 -29.834 H93.161 Q91.811 -29.834 90.888 -28.921 Q89.965 -28.007 89.965 -26.609 V3.594 Q89.965 5.018 90.892 5.95 Q91.819 6.881 93.236 6.881 Q94.654 6.881 95.565 5.95 Q96.477 5.018 96.477 3.594 V-3.154 Z M96.477 -9.666 V-23.322 H109.315 V-9.666 H96.477 Z"/></g><g id="Thin-L" transform="matrix(1 0 0 1 787.282 1556)"><path d="M56.537 -70.953 V-43.727 Q56.537 -42.625 57.243 -41.904 Q57.949 -41.184 59.029 -41.184 Q60.109 -41.184 60.804 -41.904 Q61.498 -42.625 61.498 -43.727 V-73.496 Q61.498 -74.544 60.778 -75.229 Q60.057 -75.915 58.955 -75.915 H49.045 Q47.997 -75.915 47.311 -75.209 Q46.626 -74.502 46.626 -73.422 Q46.626 -72.342 47.311 -71.648 Q47.997 -70.953 49.045 -70.953 H56.537 Z M99.206 -46.145 H82.275 Q81.227 -46.145 80.541 -45.439 Q79.856 -44.733 79.856 -43.653 Q79.856 -42.573 80.541 -41.878 Q81.227 -41.184 82.275 -41.184 H99.206 Q101.079 -41.184 102.623 -42.728 Q104.168 -44.272 104.168 -46.145 V-55.796 Q104.168 -57.669 102.623 -59.213 Q101.079 -60.757 99.206 -60.757 H84.817 V-70.953 H101.625 Q102.727 -70.953 103.447 -71.677 Q104.168 -72.401 104.168 -73.509 Q104.168 -74.563 103.447 -75.239 Q102.727 -75.915 101.625 -75.915 H82.275 Q81.227 -75.915 80.541 -75.229 Q79.856 -74.544 79.856 -73.496 V-58.723 Q79.856 -57.675 80.541 -56.989 Q81.227 -56.304 82.275 -56.304 H99.206 V-46.145 Z M34.731 16.37 Q31.013 16.37 28.406 13.764 Q25.8 11.157 25.8 7.439 V-77.899 Q25.8 -81.617 28.406 -84.224 Q31.013 -86.83 34.731 -86.83 H120.069 Q123.787 -86.83 126.394 -84.224 Q129 -81.617 129 -77.899 V7.439 Q129 11.157 126.394 13.764 Q123.787 16.37 120.069 16.37 H34.731 Z M34.731 11.408 H120.069 Q121.558 11.408 122.798 10.168 Q124.038 8.928 124.038 7.439 V-77.899 Q124.038 -79.388 122.798 -80.628 Q121.558 -81.868 120.069 -81.868 H34.731 Q33.242 -81.868 32.002 -80.628 Q30.762 -79.388 30.762 -77.899 V7.439 Q30.762 8.928 32.002 10.168 Q33.242 11.408 34.731 11.408 Z M45.138 -24.315 H56.537 V-6.875 Q56.537 -5.827 57.243 -5.141 Q57.949 -4.456 59.029 -4.456 Q60.109 -4.456 60.804 -5.141 Q61.498 -5.827 61.498 -6.875 V-24.315 H73.406 V2.912 Q73.406 4.014 74.112 4.734 Q74.818 5.455 75.898 5.455 Q76.978 5.455 77.673 4.734 Q78.368 4.014 78.368 2.912 V-24.811 Q78.368 -26.572 77.015 -27.924 Q75.663 -29.276 73.902 -29.276 H44.641 Q42.88 -29.276 41.528 -27.924 Q40.176 -26.572 40.176 -24.811 V2.912 Q40.176 4.014 40.882 4.734 Q41.588 5.455 42.668 5.455 Q43.748 5.455 44.443 4.734 Q45.138 4.014 45.138 2.912 V-24.315 Z M95.237 -4.456 H110.121 Q111.883 -4.456 113.235 -5.808 Q114.587 -7.16 114.587 -8.921 V-24.811 Q114.587 -26.572 113.235 -27.924 Q111.883 -29.276 110.121 -29.276 H92.635 Q91.683 -29.276 90.979 -28.591 Q90.275 -27.906 90.275 -26.857 V2.912 Q90.275 4.014 90.981 4.734 Q91.688 5.455 92.767 5.455 Q93.847 5.455 94.542 4.734 Q95.237 4.014 95.237 2.912 V-4.456 Z M95.237 -9.418 V-24.315 H109.625 V-9.418 H95.237 Z"/></g><g id="Ultralight-L" transform="matrix(1 0 0 1 491.205 1556)"><path d="M57.244 -71.027 V-43.615 Q57.244 -42.707 57.817 -42.113 Q58.391 -41.519 59.269 -41.519 Q60.146 -41.519 60.711 -42.113 Q61.275 -42.707 61.275 -43.615 V-73.124 Q61.275 -73.962 60.681 -74.51 Q60.087 -75.059 59.179 -75.059 H49.343 Q48.504 -75.059 47.956 -74.485 Q47.407 -73.911 47.407 -73.034 Q47.407 -72.156 47.956 -71.592 Q48.504 -71.027 49.343 -71.027 H57.244 Z M99.653 -45.55 H82.237 Q81.399 -45.55 80.851 -44.976 Q80.303 -44.403 80.303 -43.525 Q80.303 -42.647 80.851 -42.083 Q81.399 -41.519 82.237 -41.519 H99.169 Q100.926 -41.519 102.305 -42.897 Q103.684 -44.276 103.684 -46.034 V-55.87 Q103.684 -57.628 102.305 -59.006 Q100.926 -60.385 99.169 -60.385 H84.334 V-71.027 H101.588 Q102.496 -71.027 103.09 -71.625 Q103.684 -72.222 103.684 -73.135 Q103.684 -73.978 103.09 -74.519 Q102.496 -75.059 101.588 -75.059 H82.237 Q81.399 -75.059 80.851 -74.51 Q80.303 -73.962 80.303 -73.124 V-58.127 Q80.303 -57.289 80.851 -56.741 Q81.399 -56.192 82.237 -56.192 H99.653 V-45.55 Z M36.443 14.435 Q32.77 14.435 30.253 11.917 Q27.735 9.4 27.735 5.728 V-76.187 Q27.735 -79.86 30.253 -82.378 Q32.77 -84.895 36.443 -84.895 H118.358 Q122.03 -84.895 124.548 -82.378 Q127.065 -79.86 127.065 -76.187 V5.728 Q127.065 9.4 124.548 11.917 Q122.03 14.435 118.358 14.435 H36.443 Z M36.443 10.888 H118.358 Q120.293 10.888 121.905 9.275 Q123.517 7.663 123.517 5.728 V-76.187 Q123.517 -78.122 121.905 -79.735 Q120.293 -81.347 118.358 -81.347 H36.443 Q34.508 -81.347 32.895 -79.735 Q31.283 -78.122 31.283 -76.187 V5.728 Q31.283 7.663 32.895 9.275 Q34.508 10.888 36.443 10.888 Z M44.989 -24.91 H57.244 V-7.172 Q57.244 -6.334 57.817 -5.786 Q58.391 -5.237 59.269 -5.237 Q60.146 -5.237 60.711 -5.786 Q61.275 -6.334 61.275 -7.172 V-24.91 H73.853 V2.503 Q73.853 3.411 74.426 4.005 Q75 4.599 75.877 4.599 Q76.755 4.599 77.319 4.005 Q77.884 3.411 77.884 2.503 V-25.071 Q77.884 -26.684 76.755 -27.812 Q75.626 -28.941 74.014 -28.941 H44.828 Q43.215 -28.941 42.086 -27.812 Q40.958 -26.684 40.958 -25.071 V2.503 Q40.958 3.411 41.531 4.005 Q42.105 4.599 42.982 4.599 Q43.86 4.599 44.424 4.005 Q44.989 3.411 44.989 2.503 V-24.91 Z M94.493 -5.237 H109.972 Q111.585 -5.237 112.714 -6.366 Q113.843 -7.495 113.843 -9.107 V-25.071 Q113.843 -26.684 112.714 -27.812 Q111.585 -28.941 109.972 -28.941 H92.32 Q91.606 -28.941 91.034 -28.393 Q90.461 -27.845 90.461 -27.006 V2.503 Q90.461 3.411 91.035 4.005 Q91.609 4.599 92.486 4.599 Q93.364 4.599 93.928 4.005 Q94.493 3.411 94.493 2.503 V-5.237 Z M94.493 -9.269 V-24.91 H109.811 V-9.269 H94.493 Z"/></g><g id="Bold-M" transform="matrix(1 0 0 1 2281.8 1126)"><path d="M42.5 -58.73 V-39.98 Q42.5 -38.355 43.562 -37.292 Q44.625 -36.23 46.25 -36.23 Q47.875 -36.23 48.938 -37.292 Q50 -38.355 50 -39.98 V-62.48 Q50 -64.105 48.938 -65.167 Q47.875 -66.23 46.25 -66.23 H38.75 Q37.125 -66.23 36.062 -65.167 Q35 -64.105 35 -62.48 Q35 -60.855 36.062 -59.792 Q37.125 -58.73 38.75 -58.73 H42.5 Z M75 -43.73 H63.75 Q62.125 -43.73 61.062 -42.667 Q60 -41.605 60 -39.98 Q60 -38.355 61.062 -37.292 Q62.125 -36.23 63.75 -36.23 H77.5 Q79.625 -36.23 81.062 -37.667 Q82.5 -39.105 82.5 -41.23 V-48.73 Q82.5 -50.855 81.062 -52.292 Q79.625 -53.73 77.5 -53.73 H67.5 V-58.73 H78.75 Q80.375 -58.73 81.438 -59.792 Q82.5 -60.855 82.5 -62.48 Q82.5 -64.105 81.438 -65.167 Q80.375 -66.23 78.75 -66.23 H63.75 Q62.125 -66.23 61.062 -65.167 Q60 -64.105 60 -62.48 V-52.48 Q60 -50.855 61.062 -49.792 Q62.125 -48.73 63.75 -48.73 H75 V-43.73 Z M26.5 14.02 Q19.875 14.02 15.312 9.458 Q10.75 4.895 10.75 -1.73 V-68.73 Q10.75 -75.355 15.312 -79.917 Q19.875 -84.48 26.5 -84.48 H93.5 Q100.125 -84.48 104.688 -79.917 Q109.25 -75.355 109.25 -68.73 V-1.73 Q109.25 4.895 104.688 9.458 Q100.125 14.02 93.5 14.02 H26.5 Z M26.5 -1.73 H93.5 Q93.5 -1.73 93.5 -1.73 Q93.5 -1.73 93.5 -1.73 V-68.73 Q93.5 -68.73 93.5 -68.73 Q93.5 -68.73 93.5 -68.73 H26.5 Q26.5 -68.73 26.5 -68.73 Q26.5 -68.73 26.5 -68.73 V-1.73 Q26.5 -1.73 26.5 -1.73 Q26.5 -1.73 26.5 -1.73 Z M37.5 -25.23 H42.5 V-14.605 Q42.5 -12.98 43.562 -11.917 Q44.625 -10.855 46.25 -10.855 Q47.875 -10.855 48.938 -11.917 Q50 -12.98 50 -14.605 V-25.23 H55 V-7.98 Q55 -6.355 56.062 -5.292 Q57.125 -4.23 58.75 -4.23 Q60.375 -4.23 61.438 -5.292 Q62.5 -6.355 62.5 -7.98 V-27.73 Q62.5 -29.855 61.062 -31.292 Q59.625 -32.73 57.5 -32.73 H35 Q32.875 -32.73 31.438 -31.292 Q30 -29.855 30 -27.73 V-7.98 Q30 -6.355 31.062 -5.292 Q32.125 -4.23 33.75 -4.23 Q35.375 -4.23 36.438 -5.292 Q37.5 -6.355 37.5 -7.98 V-25.23 Z M75 -10.98 H85 Q87.125 -10.98 88.562 -12.417 Q90 -13.855 90 -15.98 V-27.73 Q90 -29.855 88.562 -31.292 Q87.125 -32.73 85 -32.73 H71.25 Q69.625 -32.73 68.562 -31.667 Q67.5 -30.605 67.5 -28.98 V-7.98 Q67.5 -6.355 68.562 -5.292 Q69.625 -4.23 71.25 -4.23 Q72.875 -4.23 73.938 -5.292 Q75 -6.355 75 -7.98 V-10.98 Z M75 -18.48 V-25.23 H82.5 V-18.48 H75 Z"/></g><g id="Semibold-M" transform="matrix(1 0 0 1 1985.97 1126)"><path d="M42.5 -59.382 V-40.632 Q42.5 -39.007 43.562 -37.945 Q44.625 -36.882 46.25 -36.882 Q47.875 -36.882 48.938 -37.945 Q50 -39.007 50 -40.632 V-63.132 Q50 -64.757 48.938 -65.82 Q47.875 -66.882 46.25 -66.882 H38.75 Q37.125 -66.882 36.062 -65.82 Q35 -64.757 35 -63.132 Q35 -61.507 36.062 -60.445 Q37.125 -59.382 38.75 -59.382 H42.5 Z M75 -44.382 H63.75 Q62.125 -44.382 61.062 -43.32 Q60 -42.257 60 -40.632 Q60 -39.007 61.062 -37.945 Q62.125 -36.882 63.75 -36.882 H77.5 Q79.625 -36.882 81.062 -38.32 Q82.5 -39.757 82.5 -41.882 V-49.382 Q82.5 -51.507 81.062 -52.945 Q79.625 -54.382 77.5 -54.382 H67.5 V-59.382 H78.75 Q80.375 -59.382 81.438 -60.445 Q82.5 -61.507 82.5 -63.132 Q82.5 -64.757 81.438 -65.82 Q80.375 -66.882 78.75 -66.882 H63.75 Q62.125 -66.882 61.062 -65.82 Q60 -64.757 60 -63.132 V-53.132 Q60 -51.507 61.062 -50.445 Q62.125 -49.382 63.75 -49.382 H75 V-44.382 Z M25.848 12.172 Q20.31 12.172 16.454 8.316 Q12.598 4.46 12.598 -1.078 V-69.382 Q12.598 -74.92 16.454 -78.776 Q20.31 -82.632 25.848 -82.632 H94.152 Q99.69 -82.632 103.546 -78.776 Q107.402 -74.92 107.402 -69.382 V-1.078 Q107.402 4.46 103.546 8.316 Q99.69 12.172 94.152 12.172 H25.848 Z M25.848 -1.078 H94.152 Q94.152 -1.078 94.152 -1.078 Q94.152 -1.078 94.152 -1.078 V-69.382 Q94.152 -69.382 94.152 -69.382 Q94.152 -69.382 94.152 -69.382 H25.848 Q25.848 -69.382 25.848 -69.382 Q25.848 -69.382 25.848 -69.382 V-1.078 Q25.848 -1.078 25.848 -1.078 Q25.848 -1.078 25.848 -1.078 Z M37.5 -25.23 H42.5 V-14.333 Q42.5 -12.708 43.562 -11.646 Q44.625 -10.583 46.25 -10.583 Q47.875 -10.583 48.938 -11.646 Q50 -12.708 50 -14.333 V-25.23 H55 V-7.328 Q55 -5.703 56.062 -4.64 Q57.125 -3.578 58.75 -3.578 Q60.375 -3.578 61.438 -4.64 Q62.5 -5.703 62.5 -7.328 V-27.73 Q62.5 -29.855 61.062 -31.292 Q59.625 -32.73 57.5 -32.73 H35 Q32.875 -32.73 31.438 -31.292 Q30 -29.855 30 -27.73 V-7.328 Q30 -5.703 31.062 -4.64 Q32.125 -3.578 33.75 -3.578 Q35.375 -3.578 36.438 -4.64 Q37.5 -5.703 37.5 -7.328 V-25.23 Z M75 -10.654 H85 Q87.125 -10.654 88.562 -12.091 Q90 -13.529 90 -15.654 V-27.73 Q90 -29.855 88.562 -31.292 Q87.125 -32.73 85 -32.73 H71.25 Q69.625 -32.73 68.562 -31.667 Q67.5 -30.605 67.5 -28.98 V-7.328 Q67.5 -5.703 68.562 -4.64 Q69.625 -3.578 71.25 -3.578 Q72.875 -3.578 73.938 -4.64 Q75 -5.703 75 -7.328 V-10.654 Z M75 -18.154 V-25.23 H82.5 V-18.154 H75 Z"/></g><g id="Medium-M" transform="matrix(1 0 0 1 1689.91 1126)"><path d="M42.5 -59.871 V-41.121 Q42.5 -39.496 43.562 -38.434 Q44.625 -37.371 46.25 -37.371 Q47.875 -37.371 48.938 -38.434 Q50 -39.496 50 -41.121 V-63.621 Q50 -65.246 48.938 -66.309 Q47.875 -67.371 46.25 -67.371 H38.75 Q37.125 -67.371 36.062 -66.309 Q35 -65.246 35 -63.621 Q35 -61.996 36.062 -60.934 Q37.125 -59.871 38.75 -59.871 H42.5 Z M75 -44.871 H63.75 Q62.125 -44.871 61.062 -43.809 Q60 -42.746 60 -41.121 Q60 -39.496 61.062 -38.434 Q62.125 -37.371 63.75 -37.371 H77.5 Q79.625 -37.371 81.062 -38.809 Q82.5 -40.246 82.5 -42.371 V-49.871 Q82.5 -51.996 81.062 -53.434 Q79.625 -54.871 77.5 -54.871 H67.5 V-59.871 H78.75 Q80.375 -59.871 81.438 -60.934 Q82.5 -61.996 82.5 -63.621 Q82.5 -65.246 81.438 -66.309 Q80.375 -67.371 78.75 -67.371 H63.75 Q62.125 -67.371 61.062 -66.309 Q60 -65.246 60 -63.621 V-53.621 Q60 -51.996 61.062 -50.934 Q62.125 -49.871 63.75 -49.871 H75 V-44.871 Z M25.359 10.786 Q20.636 10.786 17.31 7.46 Q13.984 4.134 13.984 -0.589 V-69.871 Q13.984 -74.594 17.31 -77.92 Q20.636 -81.246 25.359 -81.246 H94.641 Q99.364 -81.246 102.69 -77.92 Q106.016 -74.594 106.016 -69.871 V-0.589 Q106.016 4.134 102.69 7.46 Q99.364 10.786 94.641 10.786 H25.359 Z M25.359 -0.589 H94.641 Q94.641 -0.589 94.641 -0.589 Q94.641 -0.589 94.641 -0.589 V-69.871 Q94.641 -69.871 94.641 -69.871 Q94.641 -69.871 94.641 -69.871 H25.359 Q25.359 -69.871 25.359 -69.871 Q25.359 -69.871 25.359 -69.871 V-0.589 Q25.359 -0.589 25.359 -0.589 Q25.359 -0.589 25.359 -0.589 Z M37.5 -25.23 H42.5 V-14.129 Q42.5 -12.504 43.562 -11.442 Q44.625 -10.379 46.25 -10.379 Q47.875 -10.379 48.938 -11.442 Q50 -12.504 50 -14.129 V-25.23 H55 V-6.839 Q55 -5.214 56.062 -4.151 Q57.125 -3.089 58.75 -3.089 Q60.375 -3.089 61.438 -4.151 Q62.5 -5.214 62.5 -6.839 V-27.73 Q62.5 -29.855 61.062 -31.292 Q59.625 -32.73 57.5 -32.73 H35 Q32.875 -32.73 31.438 -31.292 Q30 -29.855 30 -27.73 V-6.839 Q30 -5.214 31.062 -4.151 Q32.125 -3.089 33.75 -3.089 Q35.375 -3.089 36.438 -4.151 Q37.5 -5.214 37.5 -6.839 V-25.23 Z M75 -10.409 H85 Q87.125 -10.409 88.562 -11.847 Q90 -13.284 90 -15.409 V-27.73 Q90 -29.855 88.562 -31.292 Q87.125 -32.73 85 -32.73 H71.25 Q69.625 -32.73 68.562 -31.667 Q67.5 -30.605 67.5 -28.98 V-6.839 Q67.5 -5.214 68.562 -4.151 Q69.625 -3.089 71.25 -3.089 Q72.875 -3.089 73.938 -4.151 Q75 -5.214 75 -6.839 V-10.409 Z M75 -17.909 V-25.23 H82.5 V-17.909 H75 Z"/></g><g id="Regular-M" transform="matrix(1 0 0 1 1394.06 1126)"><path d="M42.5 -60.23 V-41.48 Q42.5 -39.855 43.562 -38.792 Q44.625 -37.73 46.25 -37.73 Q47.875 -37.73 48.938 -38.792 Q50 -39.855 50 -41.48 V-63.98 Q50 -65.605 48.938 -66.667 Q47.875 -67.73 46.25 -67.73 H38.75 Q37.125 -67.73 36.062 -66.667 Q35 -65.605 35 -63.98 Q35 -62.355 36.062 -61.292 Q37.125 -60.23 38.75 -60.23 H42.5 Z M75 -45.23 H63.75 Q62.125 -45.23 61.062 -44.167 Q60 -43.105 60 -41.48 Q60 -39.855 61.062 -38.792 Q62.125 -37.73 63.75 -37.73 H77.5 Q79.625 -37.73 81.062 -39.167 Q82.5 -40.605 82.5 -42.73 V-50.23 Q82.5 -52.355 81.062 -53.792 Q79.625 -55.23 77.5 -55.23 H67.5 V-60.23 H78.75 Q80.375 -60.23 81.438 -61.292 Q82.5 -62.355 82.5 -63.98 Q82.5 -65.605 81.438 -66.667 Q80.375 -67.73 78.75 -67.73 H63.75 Q62.125 -67.73 61.062 -66.667 Q60 -65.605 60 -63.98 V-53.98 Q60 -52.355 61.062 -51.292 Q62.125 -50.23 63.75 -50.23 H75 V-45.23 Z M25 9.77 Q20.875 9.77 17.938 6.833 Q15 3.895 15 -0.23 V-70.23 Q15 -74.355 17.938 -77.292 Q20.875 -80.23 25 -80.23 H95 Q99.125 -80.23 102.062 -77.292 Q105 -74.355 105 -70.23 V-0.23 Q105 3.895 102.062 6.833 Q99.125 9.77 95 9.77 H25 Z M25 -0.23 H95 Q95 -0.23 95 -0.23 Q95 -0.23 95 -0.23 V-70.23 Q95 -70.23 95 -70.23 Q95 -70.23 95 -70.23 H25 Q25 -70.23 25 -70.23 Q25 -70.23 25 -70.23 V-0.23 Q25 -0.23 25 -0.23 Q25 -0.23 25 -0.23 Z M37.5 -25.23 H42.5 V-13.98 Q42.5 -12.355 43.562 -11.292 Q44.625 -10.23 46.25 -10.23 Q47.875 -10.23 48.938 -11.292 Q50 -12.355 50 -13.98 V-25.23 H55 V-6.48 Q55 -4.855 56.062 -3.792 Q57.125 -2.73 58.75 -2.73 Q60.375 -2.73 61.438 -3.792 Q62.5 -4.855 62.5 -6.48 V-27.73 Q62.5 -29.855 61.062 -31.292 Q59.625 -32.73 57.5 -32.73 H35 Q32.875 -32.73 31.438 -31.292 Q30 -29.855 30 -27.73 V-6.48 Q30 -4.855 31.062 -3.792 Q32.125 -2.73 33.75 -2.73 Q35.375 -2.73 36.438 -3.792 Q37.5 -4.855 37.5 -6.48 V-25.23 Z M75 -10.23 H85 Q87.125 -10.23 88.562 -11.667 Q90 -13.105 90 -15.23 V-27.73 Q90 -29.855 88.562 -31.292 Q87.125 -32.73 85 -32.73 H71.25 Q69.625 -32.73 68.562 -31.667 Q67.5 -30.605 67.5 -28.98 V-6.48 Q67.5 -4.855 68.562 -3.792 Q69.625 -2.73 71.25 -2.73 Q72.875 -2.73 73.938 -3.792 Q75 -4.855 75 -6.48 V-10.23 Z M75 -17.73 V-25.23 H82.5 V-17.73 H75 Z"/></g><g id="Light-M" transform="matrix(1 0 0 1 1098.18 1126)"><path d="M43.269 -60.999 V-41.48 Q43.269 -40.188 44.113 -39.344 Q44.957 -38.499 46.248 -38.499 Q47.538 -38.499 48.385 -39.344 Q49.231 -40.188 49.231 -41.48 V-63.98 Q49.231 -65.272 48.386 -66.116 Q47.542 -66.961 46.25 -66.961 H38.75 Q37.458 -66.961 36.614 -66.117 Q35.769 -65.273 35.769 -63.982 Q35.769 -62.692 36.614 -61.845 Q37.458 -60.999 38.75 -60.999 H43.269 Z M75.769 -44.461 H63.75 Q62.458 -44.461 61.614 -43.617 Q60.769 -42.773 60.769 -41.482 Q60.769 -40.192 61.614 -39.345 Q62.458 -38.499 63.75 -38.499 H77.308 Q79.188 -38.499 80.459 -39.771 Q81.731 -41.042 81.731 -42.922 V-50.518 Q81.731 -52.398 80.459 -53.67 Q79.188 -54.941 77.308 -54.941 H66.731 V-60.999 H78.75 Q80.042 -60.999 80.886 -61.843 Q81.731 -62.687 81.731 -63.978 Q81.731 -65.268 80.886 -66.115 Q80.042 -66.961 78.75 -66.961 H63.75 Q62.458 -66.961 61.614 -66.116 Q60.769 -65.272 60.769 -63.98 V-53.499 Q60.769 -52.207 61.614 -51.363 Q62.458 -50.518 63.75 -50.518 H75.769 V-44.461 Z M26.539 7.27 Q22.75 7.27 20.125 4.645 Q17.5 2.02 17.5 -1.769 V-68.691 Q17.5 -72.48 20.125 -75.105 Q22.75 -77.73 26.539 -77.73 H93.461 Q97.25 -77.73 99.875 -75.105 Q102.5 -72.48 102.5 -68.691 V-1.769 Q102.5 2.02 99.875 4.645 Q97.25 7.27 93.461 7.27 H26.539 Z M26.539 -0.23 H93.461 Q94.038 -0.23 94.519 -0.711 Q95 -1.192 95 -1.769 V-68.691 Q95 -69.268 94.519 -69.749 Q94.038 -70.23 93.461 -70.23 H26.539 Q25.962 -70.23 25.481 -69.749 Q25 -69.268 25 -68.691 V-1.769 Q25 -1.192 25.481 -0.711 Q25.962 -0.23 26.539 -0.23 Z M36.731 -25.999 H43.269 V-13.98 Q43.269 -12.688 44.113 -11.844 Q44.957 -10.999 46.248 -10.999 Q47.538 -10.999 48.385 -11.844 Q49.231 -12.688 49.231 -13.98 V-25.999 H55.769 V-6.48 Q55.769 -5.188 56.613 -4.344 Q57.457 -3.499 58.748 -3.499 Q60.038 -3.499 60.885 -4.344 Q61.731 -5.188 61.731 -6.48 V-27.73 Q61.731 -29.566 60.534 -30.764 Q59.337 -31.961 57.5 -31.961 H35 Q33.163 -31.961 31.966 -30.764 Q30.769 -29.566 30.769 -27.73 V-6.48 Q30.769 -5.188 31.613 -4.344 Q32.457 -3.499 33.748 -3.499 Q35.038 -3.499 35.885 -4.344 Q36.731 -5.188 36.731 -6.48 V-25.999 Z M74.231 -10.999 H85 Q86.837 -10.999 88.034 -12.196 Q89.231 -13.393 89.231 -15.23 V-27.73 Q89.231 -29.566 88.034 -30.764 Q86.837 -31.961 85 -31.961 H71.25 Q69.958 -31.961 69.114 -31.116 Q68.269 -30.272 68.269 -28.98 V-6.48 Q68.269 -5.188 69.113 -4.344 Q69.957 -3.499 71.248 -3.499 Q72.538 -3.499 73.385 -4.344 Q74.231 -5.188 74.231 -6.48 V-10.999 Z M74.231 -16.961 V-25.999 H83.269 V-16.961 H74.231 Z"/></g><g id="Thin-M" transform="matrix(1 0 0 1 802.565 1126)"><path d="M44.038 -61.768 V-41.48 Q44.038 -40.522 44.664 -39.895 Q45.289 -39.268 46.245 -39.268 Q47.202 -39.268 47.832 -39.895 Q48.462 -40.522 48.462 -41.48 V-63.98 Q48.462 -64.938 47.835 -65.565 Q47.208 -66.191 46.25 -66.191 H38.75 Q37.792 -66.191 37.165 -65.566 Q36.538 -64.941 36.538 -63.984 Q36.538 -63.028 37.165 -62.398 Q37.792 -61.768 38.75 -61.768 H44.038 Z M76.538 -43.691 H63.75 Q62.792 -43.691 62.165 -43.066 Q61.538 -42.441 61.538 -41.484 Q61.538 -40.528 62.165 -39.898 Q62.792 -39.268 63.75 -39.268 H77.115 Q78.75 -39.268 79.856 -40.374 Q80.962 -41.48 80.962 -43.115 V-50.807 Q80.962 -52.441 79.856 -53.547 Q78.75 -54.653 77.115 -54.653 H65.962 V-61.768 H78.75 Q79.708 -61.768 80.335 -62.394 Q80.962 -63.019 80.962 -63.975 Q80.962 -64.932 80.335 -65.562 Q79.708 -66.191 78.75 -66.191 H63.75 Q62.792 -66.191 62.165 -65.565 Q61.538 -64.938 61.538 -63.98 V-53.018 Q61.538 -52.06 62.165 -51.433 Q62.792 -50.807 63.75 -50.807 H76.538 V-43.691 Z M28.077 4.77 Q24.625 4.77 22.312 2.458 Q20 0.145 20 -3.307 V-67.153 Q20 -70.605 22.312 -72.917 Q24.625 -75.23 28.077 -75.23 H91.923 Q95.375 -75.23 97.688 -72.917 Q100 -70.605 100 -67.153 V-3.307 Q100 0.145 97.688 2.458 Q95.375 4.77 91.923 4.77 H28.077 Z M28.077 -0.23 H91.923 Q93.077 -0.23 94.038 -1.191 Q95 -2.153 95 -3.307 V-67.153 Q95 -68.307 94.038 -69.268 Q93.077 -70.23 91.923 -70.23 H28.077 Q26.923 -70.23 25.962 -69.268 Q25 -68.307 25 -67.153 V-3.307 Q25 -2.153 25.962 -1.191 Q26.923 -0.23 28.077 -0.23 Z M35.962 -26.768 H44.038 V-13.98 Q44.038 -13.022 44.664 -12.395 Q45.289 -11.768 46.245 -11.768 Q47.202 -11.768 47.832 -12.395 Q48.462 -13.022 48.462 -13.98 V-26.768 H56.538 V-6.48 Q56.538 -5.522 57.164 -4.895 Q57.789 -4.268 58.745 -4.268 Q59.702 -4.268 60.332 -4.895 Q60.962 -5.522 60.962 -6.48 V-27.73 Q60.962 -29.278 60.005 -30.235 Q59.048 -31.191 57.5 -31.191 H35 Q33.452 -31.191 32.495 -30.235 Q31.538 -29.278 31.538 -27.73 V-6.48 Q31.538 -5.522 32.164 -4.895 Q32.789 -4.268 33.745 -4.268 Q34.702 -4.268 35.332 -4.895 Q35.962 -5.522 35.962 -6.48 V-26.768 Z M73.462 -11.768 H85 Q86.548 -11.768 87.505 -12.725 Q88.462 -13.682 88.462 -15.23 V-27.73 Q88.462 -29.278 87.505 -30.235 Q86.548 -31.191 85 -31.191 H71.25 Q70.292 -31.191 69.665 -30.565 Q69.038 -29.938 69.038 -28.98 V-6.48 Q69.038 -5.522 69.664 -4.895 Q70.289 -4.268 71.246 -4.268 Q72.202 -4.268 72.832 -4.895 Q73.462 -5.522 73.462 -6.48 V-11.768 Z M73.462 -16.191 V-26.768 H84.038 V-16.191 H73.462 Z"/></g><g id="Ultralight-M" transform="matrix(1 0 0 1 506.415 1126)"><path d="M44.5 -62.23 V-41.48 Q44.5 -40.722 44.994 -40.226 Q45.488 -39.73 46.244 -39.73 Q47 -39.73 47.5 -40.226 Q48 -40.722 48 -41.48 V-63.98 Q48 -64.738 47.504 -65.234 Q47.008 -65.73 46.25 -65.73 H38.75 Q37.992 -65.73 37.496 -65.236 Q37 -64.742 37 -63.986 Q37 -63.23 37.496 -62.73 Q37.992 -62.23 38.75 -62.23 H44.5 Z M77 -43.23 H63.75 Q62.992 -43.23 62.496 -42.736 Q62 -42.242 62 -41.486 Q62 -40.73 62.496 -40.23 Q62.992 -39.73 63.75 -39.73 H77 Q78.487 -39.73 79.494 -40.736 Q80.5 -41.742 80.5 -43.23 V-50.98 Q80.5 -52.467 79.494 -53.474 Q78.487 -54.48 77 -54.48 H65.5 V-62.23 H78.75 Q79.508 -62.23 80.004 -62.724 Q80.5 -63.218 80.5 -63.974 Q80.5 -64.73 80.004 -65.23 Q79.508 -65.73 78.75 -65.73 H63.75 Q62.992 -65.73 62.496 -65.234 Q62 -64.738 62 -63.98 V-52.73 Q62 -51.972 62.496 -51.476 Q62.992 -50.98 63.75 -50.98 H77 V-43.23 Z M29 3.27 Q25.75 3.27 23.625 1.145 Q21.5 -0.98 21.5 -4.23 V-66.23 Q21.5 -69.48 23.625 -71.605 Q25.75 -73.73 29 -73.73 H91 Q94.25 -73.73 96.375 -71.605 Q98.5 -69.48 98.5 -66.23 V-4.23 Q98.5 -0.98 96.375 1.145 Q94.25 3.27 91 3.27 H29 Z M29 -0.23 H91 Q92.5 -0.23 93.75 -1.48 Q95 -2.73 95 -4.23 V-66.23 Q95 -67.73 93.75 -68.98 Q92.5 -70.23 91 -70.23 H29 Q27.5 -70.23 26.25 -68.98 Q25 -67.73 25 -66.23 V-4.23 Q25 -2.73 26.25 -1.48 Q27.5 -0.23 29 -0.23 Z M35.5 -27.23 H44.5 V-13.98 Q44.5 -13.222 44.994 -12.726 Q45.488 -12.23 46.244 -12.23 Q47 -12.23 47.5 -12.726 Q48 -13.222 48 -13.98 V-27.23 H57 V-6.48 Q57 -5.722 57.494 -5.226 Q57.988 -4.73 58.744 -4.73 Q59.5 -4.73 60 -5.226 Q60.5 -5.722 60.5 -6.48 V-27.73 Q60.5 -29.105 59.688 -29.917 Q58.875 -30.73 57.5 -30.73 H35 Q33.625 -30.73 32.812 -29.917 Q32 -29.105 32 -27.73 V-6.48 Q32 -5.722 32.494 -5.226 Q32.988 -4.73 33.744 -4.73 Q34.5 -4.73 35 -5.226 Q35.5 -5.722 35.5 -6.48 V-27.23 Z M73 -12.23 H85 Q86.375 -12.23 87.188 -13.042 Q88 -13.855 88 -15.23 V-27.73 Q88 -29.105 87.188 -29.917 Q86.375 -30.73 85 -30.73 H71.25 Q70.492 -30.73 69.996 -30.234 Q69.5 -29.738 69.5 -28.98 V-6.48 Q69.5 -5.722 69.994 -5.226 Q70.488 -4.73 71.244 -4.73 Q72 -4.73 72.5 -5.226 Q73 -5.722 73 -6.48 V-12.23 Z M73 -15.73 V-27.23 H84.5 V-15.73 H73 Z"/></g><g id="Bold-S" transform="matrix(1 0 0 1 2294.23 696)"><path d="M37.872 -50.622 V-38.817 Q37.872 -37.794 38.543 -37.104 Q39.213 -36.413 40.239 -36.413 Q41.265 -36.413 41.935 -37.083 Q42.606 -37.752 42.606 -38.775 V-52.945 Q42.606 -53.969 41.939 -54.659 Q41.271 -55.349 40.251 -55.349 H35.54 Q34.519 -55.349 33.828 -54.679 Q33.138 -54.008 33.138 -52.982 Q33.138 -51.959 33.809 -51.291 Q34.479 -50.622 35.505 -50.622 H37.872 Z M56.808 -41.147 H49.742 Q48.721 -41.147 48.03 -40.477 Q47.34 -39.806 47.34 -38.78 Q47.34 -37.755 48.011 -37.084 Q48.681 -36.413 49.707 -36.413 H59.175 Q60.181 -36.413 60.861 -37.094 Q61.542 -37.775 61.542 -38.78 V-45.487 Q61.542 -46.493 60.861 -47.173 Q60.181 -47.854 59.175 -47.854 H52.074 V-50.615 H59.175 Q60.201 -50.615 60.871 -51.286 Q61.542 -51.957 61.542 -52.982 Q61.542 -54.008 60.873 -54.679 Q60.205 -55.349 59.182 -55.349 H49.743 Q48.721 -55.349 48.03 -54.679 Q47.34 -54.008 47.34 -52.982 V-46.276 Q47.34 -45.25 48.011 -44.58 Q48.681 -43.909 49.707 -43.909 H56.808 V-41.147 Z M22.486 1.261 Q17.585 1.261 14.217 -2.107 Q10.849 -5.475 10.849 -10.376 V-60.083 Q10.849 -64.985 14.217 -68.353 Q17.585 -71.721 22.486 -71.721 H72.194 Q77.095 -71.721 80.463 -68.353 Q83.831 -64.985 83.831 -60.083 V-10.376 Q83.831 -5.475 80.463 -2.107 Q77.095 1.261 72.194 1.261 H22.486 Z M22.486 -10.376 H72.194 Q72.194 -10.376 72.194 -10.376 Q72.194 -10.376 72.194 -10.376 V-60.083 Q72.194 -60.083 72.194 -60.083 Q72.194 -60.083 72.194 -60.083 H22.486 Q22.486 -60.083 22.486 -60.083 Q22.486 -60.083 22.486 -60.083 V-10.376 Q22.486 -10.376 22.486 -10.376 Q22.486 -10.376 22.486 -10.376 Z M33.138 -28.129 H36.294 V-21.521 Q36.294 -20.495 36.965 -19.825 Q37.635 -19.154 38.661 -19.154 Q39.687 -19.154 40.357 -19.825 Q41.028 -20.495 41.028 -21.521 V-28.129 H44.184 V-17.477 Q44.184 -16.452 44.855 -15.781 Q45.525 -15.11 46.551 -15.11 Q47.577 -15.11 48.247 -15.781 Q48.918 -16.452 48.918 -17.477 V-30.496 Q48.918 -31.502 48.237 -32.182 Q47.557 -32.863 46.551 -32.863 H30.771 Q29.765 -32.863 29.085 -32.182 Q28.404 -31.502 28.404 -30.496 V-17.477 Q28.404 -16.452 29.075 -15.781 Q29.745 -15.11 30.771 -15.11 Q31.797 -15.11 32.467 -15.781 Q33.138 -16.452 33.138 -17.477 V-28.129 Z M56.808 -19.253 H63.909 Q64.915 -19.253 65.595 -19.933 Q66.276 -20.614 66.276 -21.62 V-30.496 Q66.276 -31.502 65.595 -32.182 Q64.915 -32.863 63.909 -32.863 H54.441 Q53.415 -32.863 52.745 -32.194 Q52.074 -31.525 52.074 -30.501 V-17.515 Q52.074 -16.491 52.745 -15.801 Q53.415 -15.11 54.441 -15.11 Q55.467 -15.11 56.137 -15.781 Q56.808 -16.452 56.808 -17.477 V-19.253 Z M56.808 -23.987 V-28.129 H61.542 V-23.987 H56.808 Z"/></g><g id="Semibold-S" transform="matrix(1 0 0 1 1998.1 696)"><path d="M37.872 -51.136 V-39.332 Q37.872 -38.309 38.543 -37.618 Q39.213 -36.928 40.239 -36.928 Q41.265 -36.928 41.935 -37.597 Q42.606 -38.266 42.606 -39.29 V-53.46 Q42.606 -54.483 41.939 -55.174 Q41.271 -55.864 40.251 -55.864 H35.54 Q34.519 -55.864 33.828 -55.193 Q33.138 -54.523 33.138 -53.497 Q33.138 -52.474 33.809 -51.805 Q34.479 -51.136 35.505 -51.136 H37.872 Z M56.808 -41.662 H49.742 Q48.721 -41.662 48.03 -40.991 Q47.34 -40.321 47.34 -39.295 Q47.34 -38.269 48.011 -37.599 Q48.681 -36.928 49.707 -36.928 H59.175 Q60.181 -36.928 60.861 -37.609 Q61.542 -38.289 61.542 -39.295 V-46.002 Q61.542 -47.008 60.861 -47.688 Q60.181 -48.369 59.175 -48.369 H52.074 V-51.13 H59.175 Q60.201 -51.13 60.871 -51.801 Q61.542 -52.471 61.542 -53.497 Q61.542 -54.523 60.873 -55.193 Q60.205 -55.864 59.182 -55.864 H49.743 Q48.721 -55.864 48.03 -55.193 Q47.34 -54.523 47.34 -53.497 V-46.791 Q47.34 -45.765 48.011 -45.094 Q48.681 -44.424 49.707 -44.424 H56.808 V-41.662 Z M21.972 -0.197 Q17.928 -0.197 15.117 -3.007 Q12.307 -5.818 12.307 -9.862 V-60.598 Q12.307 -64.642 15.117 -67.453 Q17.928 -70.263 21.972 -70.263 H72.708 Q76.752 -70.263 79.563 -67.453 Q82.373 -64.642 82.373 -60.598 V-9.862 Q82.373 -5.818 79.563 -3.007 Q76.752 -0.197 72.708 -0.197 H21.972 Z M21.972 -9.862 H72.708 Q72.708 -9.862 72.708 -9.862 Q72.708 -9.862 72.708 -9.862 V-60.598 Q72.708 -60.598 72.708 -60.598 Q72.708 -60.598 72.708 -60.598 H21.972 Q21.972 -60.598 21.972 -60.598 Q21.972 -60.598 21.972 -60.598 V-9.862 Q21.972 -9.862 21.972 -9.862 Q21.972 -9.862 21.972 -9.862 Z M33.138 -28.129 H36.294 V-21.307 Q36.294 -20.281 36.965 -19.61 Q37.635 -18.94 38.661 -18.94 Q39.687 -18.94 40.357 -19.61 Q41.028 -20.281 41.028 -21.307 V-28.129 H44.184 V-16.963 Q44.184 -15.937 44.855 -15.267 Q45.525 -14.596 46.551 -14.596 Q47.577 -14.596 48.247 -15.267 Q48.918 -15.937 48.918 -16.963 V-30.496 Q48.918 -31.502 48.237 -32.182 Q47.557 -32.863 46.551 -32.863 H30.771 Q29.765 -32.863 29.085 -32.182 Q28.404 -31.502 28.404 -30.496 V-16.963 Q28.404 -15.937 29.075 -15.267 Q29.745 -14.596 30.771 -14.596 Q31.797 -14.596 32.467 -15.267 Q33.138 -15.937 33.138 -16.963 V-28.129 Z M56.808 -18.995 H63.909 Q64.915 -18.995 65.595 -19.676 Q66.276 -20.356 66.276 -21.362 V-30.496 Q66.276 -31.502 65.595 -32.182 Q64.915 -32.863 63.909 -32.863 H54.441 Q53.415 -32.863 52.745 -32.194 Q52.074 -31.525 52.074 -30.501 V-17 Q52.074 -15.977 52.745 -15.286 Q53.415 -14.596 54.441 -14.596 Q55.467 -14.596 56.137 -15.267 Q56.808 -15.937 56.808 -16.963 V-18.995 Z M56.808 -23.729 V-28.129 H61.542 V-23.729 H56.808 Z"/></g><g id="Medium-S" transform="matrix(1 0 0 1 1701.85 696)"><path d="M37.872 -51.522 V-39.718 Q37.872 -38.695 38.543 -38.004 Q39.213 -37.314 40.239 -37.314 Q41.265 -37.314 41.935 -37.983 Q42.606 -38.652 42.606 -39.676 V-53.846 Q42.606 -54.869 41.939 -55.56 Q41.271 -56.25 40.251 -56.25 H35.54 Q34.519 -56.25 33.828 -55.579 Q33.138 -54.909 33.138 -53.883 Q33.138 -52.86 33.809 -52.191 Q34.479 -51.522 35.505 -51.522 H37.872 Z M56.808 -42.048 H49.742 Q48.721 -42.048 48.03 -41.377 Q47.34 -40.707 47.34 -39.681 Q47.34 -38.655 48.011 -37.985 Q48.681 -37.314 49.707 -37.314 H59.175 Q60.181 -37.314 60.861 -37.994 Q61.542 -38.675 61.542 -39.681 V-46.387 Q61.542 -47.393 60.861 -48.074 Q60.181 -48.754 59.175 -48.754 H52.074 V-51.516 H59.175 Q60.201 -51.516 60.871 -52.187 Q61.542 -52.857 61.542 -53.883 Q61.542 -54.909 60.873 -55.579 Q60.205 -56.25 59.182 -56.25 H49.743 Q48.721 -56.25 48.03 -55.579 Q47.34 -54.909 47.34 -53.883 V-47.176 Q47.34 -46.151 48.011 -45.48 Q48.681 -44.809 49.707 -44.809 H56.808 V-42.048 Z M21.586 -1.29 Q18.185 -1.29 15.793 -3.683 Q13.4 -6.075 13.4 -9.476 V-60.984 Q13.4 -64.385 15.793 -66.777 Q18.185 -69.17 21.586 -69.17 H73.094 Q76.495 -69.17 78.887 -66.777 Q81.28 -64.385 81.28 -60.984 V-9.476 Q81.28 -6.075 78.887 -3.683 Q76.495 -1.29 73.094 -1.29 H21.586 Z M21.586 -9.476 H73.094 Q73.094 -9.476 73.094 -9.476 Q73.094 -9.476 73.094 -9.476 V-60.984 Q73.094 -60.984 73.094 -60.984 Q73.094 -60.984 73.094 -60.984 H21.586 Q21.586 -60.984 21.586 -60.984 Q21.586 -60.984 21.586 -60.984 V-9.476 Q21.586 -9.476 21.586 -9.476 Q21.586 -9.476 21.586 -9.476 Z M33.138 -28.129 H36.294 V-21.146 Q36.294 -20.12 36.965 -19.45 Q37.635 -18.779 38.661 -18.779 Q39.687 -18.779 40.357 -19.45 Q41.028 -20.12 41.028 -21.146 V-28.129 H44.184 V-16.577 Q44.184 -15.551 44.855 -14.881 Q45.525 -14.21 46.551 -14.21 Q47.577 -14.21 48.247 -14.881 Q48.918 -15.551 48.918 -16.577 V-30.496 Q48.918 -31.502 48.237 -32.182 Q47.557 -32.863 46.551 -32.863 H30.771 Q29.765 -32.863 29.085 -32.182 Q28.404 -31.502 28.404 -30.496 V-16.577 Q28.404 -15.551 29.075 -14.881 Q29.745 -14.21 30.771 -14.21 Q31.797 -14.21 32.467 -14.881 Q33.138 -15.551 33.138 -16.577 V-28.129 Z M56.808 -18.803 H63.909 Q64.915 -18.803 65.595 -19.483 Q66.276 -20.164 66.276 -21.17 V-30.496 Q66.276 -31.502 65.595 -32.182 Q64.915 -32.863 63.909 -32.863 H54.441 Q53.415 -32.863 52.745 -32.194 Q52.074 -31.525 52.074 -30.501 V-16.614 Q52.074 -15.591 52.745 -14.9 Q53.415 -14.21 54.441 -14.21 Q55.467 -14.21 56.137 -14.881 Q56.808 -15.551 56.808 -16.577 V-18.803 Z M56.808 -23.537 V-28.129 H61.542 V-23.537 H56.808 Z"/></g><g id="Regular-S" transform="matrix(1 0 0 1 1405.73 696)"><path d="M37.872 -51.805 V-40.001 Q37.872 -38.978 38.543 -38.287 Q39.213 -37.597 40.239 -37.597 Q41.265 -37.597 41.935 -38.266 Q42.606 -38.935 42.606 -39.959 V-54.129 Q42.606 -55.152 41.939 -55.843 Q41.271 -56.533 40.251 -56.533 H35.54 Q34.519 -56.533 33.828 -55.862 Q33.138 -55.192 33.138 -54.166 Q33.138 -53.143 33.809 -52.474 Q34.479 -51.805 35.505 -51.805 H37.872 Z M56.808 -42.331 H49.742 Q48.721 -42.331 48.03 -41.66 Q47.34 -40.99 47.34 -39.964 Q47.34 -38.938 48.011 -38.268 Q48.681 -37.597 49.707 -37.597 H59.175 Q60.181 -37.597 60.861 -38.278 Q61.542 -38.958 61.542 -39.964 V-46.67 Q61.542 -47.676 60.861 -48.357 Q60.181 -49.037 59.175 -49.037 H52.074 V-51.799 H59.175 Q60.201 -51.799 60.871 -52.47 Q61.542 -53.14 61.542 -54.166 Q61.542 -55.192 60.873 -55.862 Q60.205 -56.533 59.182 -56.533 H49.743 Q48.721 -56.533 48.03 -55.862 Q47.34 -55.192 47.34 -54.166 V-47.459 Q47.34 -46.434 48.011 -45.763 Q48.681 -45.092 49.707 -45.092 H56.808 V-42.331 Z M21.303 -2.092 Q18.374 -2.092 16.288 -4.178 Q14.202 -6.264 14.202 -9.193 V-61.267 Q14.202 -64.196 16.288 -66.282 Q18.374 -68.368 21.303 -68.368 H73.377 Q76.306 -68.368 78.392 -66.282 Q80.478 -64.196 80.478 -61.267 V-9.193 Q80.478 -6.264 78.392 -4.178 Q76.306 -2.092 73.377 -2.092 H21.303 Z M21.303 -9.193 H73.377 Q73.377 -9.193 73.377 -9.193 Q73.377 -9.193 73.377 -9.193 V-61.267 Q73.377 -61.267 73.377 -61.267 Q73.377 -61.267 73.377 -61.267 H21.303 Q21.303 -61.267 21.303 -61.267 Q21.303 -61.267 21.303 -61.267 V-9.193 Q21.303 -9.193 21.303 -9.193 Q21.303 -9.193 21.303 -9.193 Z M33.138 -28.129 H36.294 V-21.028 Q36.294 -20.002 36.965 -19.332 Q37.635 -18.661 38.661 -18.661 Q39.687 -18.661 40.357 -19.332 Q41.028 -20.002 41.028 -21.028 V-28.129 H44.184 V-16.294 Q44.184 -15.268 44.855 -14.598 Q45.525 -13.927 46.551 -13.927 Q47.577 -13.927 48.247 -14.598 Q48.918 -15.268 48.918 -16.294 V-30.496 Q48.918 -31.502 48.237 -32.182 Q47.557 -32.863 46.551 -32.863 H30.771 Q29.765 -32.863 29.085 -32.182 Q28.404 -31.502 28.404 -30.496 V-16.294 Q28.404 -15.268 29.075 -14.598 Q29.745 -13.927 30.771 -13.927 Q31.797 -13.927 32.467 -14.598 Q33.138 -15.268 33.138 -16.294 V-28.129 Z M56.808 -18.661 H63.909 Q64.915 -18.661 65.595 -19.342 Q66.276 -20.022 66.276 -21.028 V-30.496 Q66.276 -31.502 65.595 -32.182 Q64.915 -32.863 63.909 -32.863 H54.441 Q53.415 -32.863 52.745 -32.194 Q52.074 -31.525 52.074 -30.501 V-16.331 Q52.074 -15.308 52.745 -14.617 Q53.415 -13.927 54.441 -13.927 Q55.467 -13.927 56.137 -14.598 Q56.808 -15.268 56.808 -16.294 V-18.661 Z M56.808 -23.395 V-28.129 H61.542 V-23.395 H56.808 Z"/></g><g id="Light-S" transform="matrix(1 0 0 1 1109.75 696)"><path d="M38.479 -52.412 V-40.001 Q38.479 -39.241 38.977 -38.722 Q39.475 -38.204 40.237 -38.204 Q40.999 -38.204 41.499 -38.701 Q41.999 -39.198 41.999 -39.959 V-54.129 Q41.999 -54.889 41.504 -55.408 Q41.008 -55.926 40.251 -55.926 H35.54 Q34.782 -55.926 34.263 -55.428 Q33.745 -54.93 33.745 -54.168 Q33.745 -53.408 34.244 -52.91 Q34.742 -52.412 35.505 -52.412 H38.479 Z M57.415 -41.724 H49.742 Q48.984 -41.724 48.465 -41.226 Q47.947 -40.728 47.947 -39.966 Q47.947 -39.204 48.446 -38.704 Q48.944 -38.204 49.707 -38.204 H59.023 Q59.836 -38.204 60.385 -38.754 Q60.935 -39.303 60.935 -40.116 V-46.898 Q60.935 -47.711 60.385 -48.26 Q59.836 -48.81 59.023 -48.81 H51.467 V-52.406 H59.175 Q59.938 -52.406 60.436 -52.904 Q60.935 -53.402 60.935 -54.164 Q60.935 -54.926 60.438 -55.426 Q59.942 -55.926 59.182 -55.926 H49.743 Q48.984 -55.926 48.465 -55.427 Q47.947 -54.929 47.947 -54.166 V-47.08 Q47.947 -46.317 48.446 -45.819 Q48.944 -45.32 49.707 -45.32 H57.415 V-41.724 Z M22.517 -4.065 Q19.853 -4.065 18.014 -5.904 Q16.175 -7.743 16.175 -10.407 V-60.053 Q16.175 -62.717 18.014 -64.556 Q19.853 -66.395 22.517 -66.395 H72.163 Q74.827 -66.395 76.666 -64.556 Q78.505 -62.717 78.505 -60.053 V-10.407 Q78.505 -7.743 76.666 -5.904 Q74.827 -4.065 72.163 -4.065 H22.517 Z M22.517 -9.193 H72.163 Q72.618 -9.193 72.998 -9.572 Q73.377 -9.952 73.377 -10.407 V-60.053 Q73.377 -60.508 72.998 -60.888 Q72.618 -61.267 72.163 -61.267 H22.517 Q22.062 -61.267 21.682 -60.888 Q21.303 -60.508 21.303 -60.053 V-10.407 Q21.303 -9.952 21.682 -9.572 Q22.062 -9.193 22.517 -9.193 Z M32.531 -28.736 H36.901 V-21.028 Q36.901 -20.265 37.399 -19.767 Q37.897 -19.268 38.659 -19.268 Q39.421 -19.268 39.921 -19.767 Q40.421 -20.265 40.421 -21.028 V-28.736 H44.791 V-16.294 Q44.791 -15.531 45.289 -15.033 Q45.787 -14.534 46.549 -14.534 Q47.311 -14.534 47.811 -15.033 Q48.311 -15.531 48.311 -16.294 V-30.496 Q48.311 -31.274 47.82 -31.765 Q47.329 -32.256 46.551 -32.256 H30.771 Q29.993 -32.256 29.502 -31.765 Q29.011 -31.274 29.011 -30.496 V-16.294 Q29.011 -15.531 29.509 -15.033 Q30.007 -14.534 30.769 -14.534 Q31.531 -14.534 32.031 -15.033 Q32.531 -15.531 32.531 -16.294 V-28.736 Z M56.201 -19.268 H63.909 Q64.687 -19.268 65.178 -19.759 Q65.669 -20.25 65.669 -21.028 V-30.496 Q65.669 -31.274 65.178 -31.765 Q64.687 -32.256 63.909 -32.256 H54.441 Q53.678 -32.256 53.18 -31.759 Q52.681 -31.262 52.681 -30.501 V-16.331 Q52.681 -15.571 53.179 -15.052 Q53.677 -14.534 54.439 -14.534 Q55.201 -14.534 55.701 -15.033 Q56.201 -15.531 56.201 -16.294 V-19.268 Z M56.201 -22.788 V-28.736 H62.149 V-22.788 H56.201 Z"/></g><g id="Thin-S" transform="matrix(1 0 0 1 814.015 696)"><path d="M39.086 -53.019 V-40.001 Q39.086 -39.504 39.412 -39.157 Q39.737 -38.811 40.235 -38.811 Q40.734 -38.811 41.063 -39.136 Q41.392 -39.461 41.392 -39.959 V-54.129 Q41.392 -54.626 41.069 -54.973 Q40.745 -55.319 40.251 -55.319 H35.54 Q35.045 -55.319 34.698 -54.993 Q34.352 -54.668 34.352 -54.17 Q34.352 -53.674 34.679 -53.347 Q35.005 -53.019 35.505 -53.019 H39.086 Z M58.022 -41.117 H49.742 Q49.247 -41.117 48.9 -40.791 Q48.554 -40.466 48.554 -39.968 Q48.554 -39.469 48.881 -39.14 Q49.207 -38.811 49.707 -38.811 H58.872 Q59.491 -38.811 59.909 -39.23 Q60.328 -39.648 60.328 -40.267 V-47.126 Q60.328 -47.745 59.909 -48.163 Q59.491 -48.582 58.872 -48.582 H50.86 V-53.013 H59.175 Q59.675 -53.013 60.001 -53.339 Q60.328 -53.664 60.328 -54.162 Q60.328 -54.661 60.003 -54.99 Q59.679 -55.319 59.182 -55.319 H49.743 Q49.247 -55.319 48.9 -54.992 Q48.554 -54.666 48.554 -54.166 V-46.701 Q48.554 -46.201 48.881 -45.874 Q49.207 -45.548 49.707 -45.548 H58.022 V-41.117 Z M23.731 -6.037 Q21.333 -6.037 19.74 -7.63 Q18.147 -9.223 18.147 -11.621 V-58.839 Q18.147 -61.237 19.74 -62.83 Q21.333 -64.423 23.731 -64.423 H70.949 Q73.347 -64.423 74.94 -62.83 Q76.533 -61.237 76.533 -58.839 V-11.621 Q76.533 -9.223 74.94 -7.63 Q73.347 -6.037 70.949 -6.037 H23.731 Z M23.731 -9.193 H70.949 Q71.86 -9.193 72.618 -9.952 Q73.377 -10.71 73.377 -11.621 V-58.839 Q73.377 -59.75 72.618 -60.508 Q71.86 -61.267 70.949 -61.267 H23.731 Q22.82 -61.267 22.062 -60.508 Q21.303 -59.75 21.303 -58.839 V-11.621 Q21.303 -10.71 22.062 -9.952 Q22.82 -9.193 23.731 -9.193 Z M31.924 -29.343 H37.508 V-21.028 Q37.508 -20.528 37.834 -20.202 Q38.159 -19.875 38.657 -19.875 Q39.156 -19.875 39.485 -20.202 Q39.814 -20.528 39.814 -21.028 V-29.343 H45.398 V-16.294 Q45.398 -15.794 45.724 -15.468 Q46.049 -15.141 46.547 -15.141 Q47.046 -15.141 47.375 -15.468 Q47.704 -15.794 47.704 -16.294 V-30.496 Q47.704 -31.047 47.403 -31.348 Q47.102 -31.649 46.551 -31.649 H30.771 Q30.22 -31.649 29.919 -31.348 Q29.618 -31.047 29.618 -30.496 V-16.294 Q29.618 -15.794 29.944 -15.468 Q30.269 -15.141 30.767 -15.141 Q31.266 -15.141 31.595 -15.468 Q31.924 -15.794 31.924 -16.294 V-29.343 Z M55.594 -19.875 H63.909 Q64.46 -19.875 64.761 -20.176 Q65.062 -20.477 65.062 -21.028 V-30.496 Q65.062 -31.047 64.761 -31.348 Q64.46 -31.649 63.909 -31.649 H54.441 Q53.941 -31.649 53.615 -31.324 Q53.288 -30.999 53.288 -30.501 V-16.331 Q53.288 -15.834 53.614 -15.487 Q53.939 -15.141 54.437 -15.141 Q54.936 -15.141 55.265 -15.468 Q55.594 -15.794 55.594 -16.294 V-19.875 Z M55.594 -22.181 V-29.343 H62.756 V-22.181 H55.594 Z"/></g><g id="Ultralight-S" transform="matrix(1 0 0 1 517.792 696)"><path d="M39.45 -53.383 V-40.001 Q39.45 -39.662 39.672 -39.418 Q39.895 -39.175 40.234 -39.175 Q40.574 -39.175 40.801 -39.397 Q41.028 -39.619 41.028 -39.959 V-54.129 Q41.028 -54.468 40.808 -54.712 Q40.587 -54.955 40.251 -54.955 H35.54 Q35.203 -54.955 34.959 -54.733 Q34.716 -54.51 34.716 -54.171 Q34.716 -53.833 34.94 -53.608 Q35.163 -53.383 35.505 -53.383 H39.45 Z M58.386 -40.753 H49.742 Q49.405 -40.753 49.161 -40.531 Q48.918 -40.308 48.918 -39.969 Q48.918 -39.629 49.142 -39.402 Q49.365 -39.175 49.707 -39.175 H58.781 Q59.283 -39.175 59.624 -39.515 Q59.964 -39.856 59.964 -40.358 V-47.262 Q59.964 -47.765 59.624 -48.105 Q59.283 -48.446 58.781 -48.446 H50.496 V-53.377 H59.175 Q59.517 -53.377 59.74 -53.599 Q59.964 -53.822 59.964 -54.161 Q59.964 -54.501 59.742 -54.728 Q59.521 -54.955 59.182 -54.955 H49.743 Q49.405 -54.955 49.161 -54.731 Q48.918 -54.508 48.918 -54.166 V-46.473 Q48.918 -46.131 49.142 -45.908 Q49.365 -45.684 49.707 -45.684 H58.386 V-40.753 Z M24.459 -7.22 Q22.22 -7.22 20.775 -8.665 Q19.331 -10.11 19.331 -12.349 V-58.111 Q19.331 -60.35 20.775 -61.795 Q22.22 -63.239 24.459 -63.239 H70.221 Q72.46 -63.239 73.905 -61.795 Q75.35 -60.35 75.35 -58.111 V-12.349 Q75.35 -10.11 73.905 -8.665 Q72.46 -7.22 70.221 -7.22 H24.459 Z M24.459 -9.193 H70.221 Q71.404 -9.193 72.391 -10.179 Q73.377 -11.165 73.377 -12.349 V-58.111 Q73.377 -59.294 72.391 -60.281 Q71.404 -61.267 70.221 -61.267 H24.459 Q23.276 -61.267 22.289 -60.281 Q21.303 -59.294 21.303 -58.111 V-12.349 Q21.303 -11.165 22.289 -10.179 Q23.276 -9.193 24.459 -9.193 Z M31.56 -29.707 H37.872 V-21.028 Q37.872 -20.686 38.094 -20.463 Q38.317 -20.239 38.656 -20.239 Q38.996 -20.239 39.223 -20.463 Q39.45 -20.686 39.45 -21.028 V-29.707 H45.762 V-16.294 Q45.762 -15.952 45.984 -15.729 Q46.207 -15.505 46.546 -15.505 Q46.886 -15.505 47.113 -15.729 Q47.34 -15.952 47.34 -16.294 V-30.496 Q47.34 -30.91 47.153 -31.098 Q46.965 -31.285 46.551 -31.285 H30.771 Q30.357 -31.285 30.169 -31.098 Q29.982 -30.91 29.982 -30.496 V-16.294 Q29.982 -15.952 30.204 -15.729 Q30.427 -15.505 30.766 -15.505 Q31.106 -15.505 31.333 -15.729 Q31.56 -15.952 31.56 -16.294 V-29.707 Z M55.23 -20.239 H63.909 Q64.323 -20.239 64.511 -20.426 Q64.698 -20.614 64.698 -21.028 V-30.496 Q64.698 -30.91 64.511 -31.098 Q64.323 -31.285 63.909 -31.285 H54.441 Q54.099 -31.285 53.876 -31.063 Q53.652 -30.841 53.652 -30.501 V-16.331 Q53.652 -15.992 53.874 -15.748 Q54.097 -15.505 54.436 -15.505 Q54.776 -15.505 55.003 -15.729 Q55.23 -15.952 55.23 -16.294 V-20.239 Z M55.23 -21.817 V-29.707 H63.12 V-21.817 H55.23 Z"/></g></g></svg>