<svg xmlns="http://www.w3.org/2000/svg" height="48" viewBox="0 -960 960 960" width="48"><path d="M139-260v-442.5V-260Zm65.5-192.5H262V-510h-57.5v57.5Zm124 0H386V-510h-57.5v57.5Zm123 0H509V-510h-57.5v57.5Zm124 0H633V-510h-57.5v57.5Zm-371-125H262V-635h-57.5v57.5Zm124 0H386V-635h-57.5v57.5Zm123 0H509V-635h-57.5v57.5Zm124 0H633V-635h-57.5v57.5Zm123 0H756V-635h-57.5v57.5Zm0 143.5q13.5-4.5 26.75-8.25T756-448v-62h-57.5v76Zm-398 106.5h302.49q5.206-15.857 13.527-29.929Q624.839-371.5 636-385H300.5v57.5Zm-253 159V-795H914v410.5q-19.272-21.371-42.136-34.935Q849-433 821.5-438.5v-264H139V-260h456v91.5H47.5ZM644.5-60v-215.837h42v-39.993q0-37.67 24.95-63.17t61.588-25.5q35.462 0 60.962 25.559 25.5 25.56 25.5 63.215v39.976H901V-60H644.5ZM732-275.5h83v-40.649q0-19.401-12-32.376-12-12.975-30.75-12.975t-29.5 12.869Q732-335.762 732-316v40.5Z"/></svg>