<svg xmlns="http://www.w3.org/2000/svg" height="40" viewBox="0 -960 960 960" width="40"><path d="M479-7.667q-198.667 0-335.5-75.122T6.667-268.575q0-36.092 13.5-68.092t40.167-59.667q26.667-28 63.834-48 37.167-19.999 83.167-29.333 19.904-6.333 37.19 3.307 17.286 9.64 22.809 28.693 4.667 20.334-5.5 38.333-10.166 18-30.833 26-27.667 6.333-50.143 16.795-22.475 10.461-37.858 24.205-14.667 14.334-22.834 31.021Q112-288.625 112-268.667q0 62.334 110 109.334t256.905 47q148.905 0 259.333-47 110.429-47 110.429-109.238 0-19.78-8.333-36.605Q832-322 817-336.334q-16.049-13.744-38.192-24.039-22.142-10.294-50.809-16.628-20.667-8.333-30.667-26.666t-4.666-37.699q4.666-19.301 21.833-28.467 17.166-9.167 38.166-3.834Q791.332-466 826.832-448.5q35.501 17.5 62.834 42.166 32 28 47.834 62.667 15.833 34.667 15.833 75 0 111.37-136.576 186.185Q680.182-7.667 479-7.667Zm-81.333-204q-23 0-37.667-15.166-14.666-15.167-14.666-37.833v-338.335H184.333q-22 0-37.166-15.166Q132-633.334 132-655.334q0-21.333 15.167-36.833 15.166-15.5 37.166-15.5h591.334q22 0 37.5 15.5t15.5 36.833q0 22-15.5 37.167-15.5 15.166-37.5 15.166H615.333v338.335q0 22.666-15.058 37.833-15.059 15.166-38 15.166-21.275 0-36.775-15.166Q510-242 510-264.666v-133.668h-60v133.668q0 22.666-15.5 37.833-15.5 15.166-36.833 15.166ZM480-761q-38.683 0-65.841-27.724Q387-816.449 387-855.224 387-895 414.159-922q27.158-27 65.841-27 38.683 0 66.341 27.086Q574-894.829 574-855.248q0 38.581-27.659 66.414Q518.683-761 480-761Z"/></svg>