<svg xmlns="http://www.w3.org/2000/svg" height="20" viewBox="0 -960 960 960" width="20"><path d="M479.615-136q-12.538 0-21.846-4.231-9.308-4.23-19.538-12.923L151.615-439q-9.461-9.461-12.538-18.735T136-480q0-12.154 3.077-21.846 3.077-9.693 12.305-18.888l286.849-286.112q9.461-9.462 19.014-13.308Q466.797-824 480-824q12.154 0 21.462 3.846 9.307 3.846 18.769 13.308L807.616-521q10.23 8.692 13.307 18.769Q824-492.154 824-479.615q0 12.538-3.461 21.846-3.462 9.308-12.923 18.769L520.03-152.888q-9.261 9.196-18.568 13.042Q492.154-136 479.615-136Zm-15.363-328v96.615q0 6.8 4.632 11.4 4.631 4.6 11.377 4.6 6.745 0 11.281-4.6 4.536-4.6 4.536-11.4V-464h96.304q6.733 0 11.483-4.547 4.75-4.547 4.75-11.269 0-6.723-4.6-11.327-4.6-4.605-11.4-4.605H496v-96.783q0-6.836-4.608-11.46-4.607-4.624-11.419-4.624t-11.392 4.624Q464-599.367 464-592.531v96.783h-96.615q-6.8 0-11.4 4.632-4.6 4.631-4.6 11.143 0 6.812 4.624 11.392 4.624 4.581 11.46 4.581h96.783Z"/></svg>