<svg xmlns="http://www.w3.org/2000/svg" height="40" viewBox="0 -960 960 960" width="40"><path d="M479.831-104.745q-11.597 0-22.554-4.327-10.956-4.327-19.969-12.827L122.745-436.693q-8.77-9.243-13.18-20.082-4.41-10.838-4.41-22.737 0-11.411 4.41-22.494t13.18-19.917l314.487-315.109q9.32-9.339 20.099-13.589 10.78-4.25 22.839-4.25 11.535 0 22.535 4.25t19.859 13.529l315.243 315.169q9.269 8.475 13.358 19.782 4.09 11.308 4.09 22.86 0 11.553-4.102 22.449-4.103 10.896-13.422 20.233l-315.168 314.67q-8.846 8.68-19.883 12.932-11.037 4.252-22.849 4.252Zm-23.535-351.166v100.655q0 10.23 7.14 16.954 7.141 6.725 16.936 6.725t16.801-6.725q7.006-6.724 7.006-16.954v-100.655h100.565q10.23 0 17.217-6.763 6.987-6.763 6.987-17.051 0-10.288-6.987-17.178-6.987-6.891-17.217-6.891H504.179v-100.565q0-9.626-7.065-16.653-7.066-7.026-16.749-7.026-10.288 0-17.179 7.026-6.89 7.027-6.89 16.653v100.565h-100.13q-10.23 0-17.217 7.026-6.987 7.025-6.987 17.313 0 10.288 6.987 16.916t17.217 6.628h100.13Z"/></svg>