<svg xmlns="http://www.w3.org/2000/svg" height="24" viewBox="0 -960 960 960" width="24"><path d="M480-81.87q-16.913 0-32.196-6.206-15.282-6.207-28.195-18.141l-312.37-312.631q-12.174-13.174-18.772-28.456-6.598-15.283-6.598-32.196 0-16.913 6.598-32.446 6.598-15.532 18.772-27.706l312.37-312.87q13.173-13.174 28.326-19.141 15.152-5.968 32.065-5.968 16.913 0 32.576 5.968 15.663 5.967 27.837 19.141l312.348 312.87q12.913 12.434 19.141 27.837 6.229 15.402 6.229 32.315 0 16.913-6.098 32.196-6.098 15.282-19.272 28.456L540.413-106.217q-12.174 12.174-27.795 18.26-15.622 6.088-32.618 6.088Zm-40.587-357.043v75.717q0 17.025 12.031 29.056 12.032 12.031 29.056 12.031t29.056-12.031q12.031-12.031 12.031-29.056v-75.717h74.978q17.025 0 29.056-12.031 12.031-12.032 12.031-29.056t-12.031-29.056q-12.031-12.031-29.056-12.031h-74.978v-74.978q0-17.025-12.031-29.056-12.032-12.031-29.056-12.031t-29.056 12.031q-12.031 12.031-12.031 29.056v74.978h-75.717q-17.025 0-29.056 12.031-12.031 12.032-12.031 29.056t12.031 29.056q12.031 12.031 29.056 12.031h75.717Z"/></svg>