<svg xmlns="http://www.w3.org/2000/svg" height="20" viewBox="0 -960 960 960" width="20"><path d="M396.692-260.615h167.616V-429H428.692v-78.385h135.616v-48H396.692V-381h124.616v72.385H396.692v48ZM363.385-832v-58h233.23v58h-233.23ZM480-86q-67.948 0-126.32-25.038-58.372-25.039-101.988-68.654-43.615-43.616-68.654-101.988Q158-340.052 158-408t25.038-126.32q25.039-58.372 68.654-101.988 43.616-43.615 101.988-68.654Q412.052-730 479.56-730q55.843 0 108.026 19.269 52.183 19.269 94.568 54.269l50.692-49.692 41.308 41.308-49.692 50.692q38 44.385 57.769 97.5Q802-463.538 802-407.856q0 67.804-25.038 126.176-25.039 58.372-68.654 101.988-43.616 43.615-101.988 68.654Q547.948-86 480-86Z"/></svg>