<svg xmlns="http://www.w3.org/2000/svg" version="1.1" width="3300" height="2000"><g id="Notes"><style>
    text {
      font-family: monospace;
      text-anchor: middle;
    }
    text.emphasis {
      font-weight:bold;
    }
    text.lanchor {
      text-anchor: start;
    }
  </style><rect height="2200" id="artboard" fill="white" width="3300" x="0" y="0"/><line id="" style="fill:none;stroke:black;stroke-width:0.5;" x1="263" x2="3036" y1="292" y2="292"/><text class="lanchor emphasis" transform="matrix(1 0 0 1 263 322)">Weight/Scale Variations</text><text transform="matrix(1 0 0 1 559.711 322)">Ultralight</text><text transform="matrix(1 0 0 1 856.422 322)">Thin</text><text transform="matrix(1 0 0 1 1153.13 322)">Light</text><text transform="matrix(1 0 0 1 1449.84 322)">Regular</text><text transform="matrix(1 0 0 1 1746.56 322)">Medium</text><text transform="matrix(1 0 0 1 2043.27 322)">Semibold</text><text transform="matrix(1 0 0 1 2339.98 322)">Bold</text><text transform="matrix(1 0 0 1 2636.69 322)">Heavy</text><text transform="matrix(1 0 0 1 2933.4 322)">Black</text><text id="template-version" style="text-anchor: end;" transform="matrix(1 0 0 1 3036 1933)">Template v.1.0</text><text class="lanchor" transform="matrix(1 0 0 1 263 726)">Small</text><text class="lanchor" transform="matrix(1 0 0 1 263 1156)">Medium</text><text class="lanchor" transform="matrix(1 0 0 1 263 1586)">Large</text></g><g id="Guides"><g id="H-reference" style="fill:#27AAE1;stroke:none;" transform="matrix(1 0 0 1 339 696)"><path d="M 54.9316 0 L 57.666 0 L 30.5664 -70.459 L 28.0762 -70.459 L 0.976562 0 L 3.66211 0 L 12.9395 -24.4629 L 45.7031 -24.4629 Z M 29.1992 -67.0898 L 29.4434 -67.0898 L 44.8242 -26.709 L 13.8184 -26.709 Z"/></g><line id="Baseline-S" style="fill:none;stroke:#27AAE1;opacity:1;stroke-width:0.577;" x1="263" x2="3036" y1="696" y2="696"/><line id="Capline-S" style="fill:none;stroke:#27AAE1;opacity:1;stroke-width:0.577;" x1="263" x2="3036" y1="625.541" y2="625.541"/><g id="H-reference" style="fill:#27AAE1;stroke:none;" transform="matrix(1 0 0 1 339 1126)"><path d="M 54.9316 0 L 57.666 0 L 30.5664 -70.459 L 28.0762 -70.459 L 0.976562 0 L 3.66211 0 L 12.9395 -24.4629 L 45.7031 -24.4629 Z M 29.1992 -67.0898 L 29.4434 -67.0898 L 44.8242 -26.709 L 13.8184 -26.709 Z"/></g><line id="Baseline-M" style="fill:none;stroke:#27AAE1;opacity:1;stroke-width:0.577;" x1="263" x2="3036" y1="1126" y2="1126"/><line id="Capline-M" style="fill:none;stroke:#27AAE1;opacity:1;stroke-width:0.577;" x1="263" x2="3036" y1="1055.54" y2="1055.54"/><g id="H-reference" style="fill:#27AAE1;stroke:none;" transform="matrix(1 0 0 1 339 1556)"><path d="M 54.9316 0 L 57.666 0 L 30.5664 -70.459 L 28.0762 -70.459 L 0.976562 0 L 3.66211 0 L 12.9395 -24.4629 L 45.7031 -24.4629 Z M 29.1992 -67.0898 L 29.4434 -67.0898 L 44.8242 -26.709 L 13.8184 -26.709 Z"/></g><line id="Baseline-L" style="fill:none;stroke:#27AAE1;opacity:1;stroke-width:0.577;" x1="263" x2="3036" y1="1556" y2="1556"/><line id="Capline-L" style="fill:none;stroke:#27AAE1;opacity:1;stroke-width:0.577;" x1="263" x2="3036" y1="1485.54" y2="1485.54"/><rect height="119.336" id="left-margin" style="fill:darkred;stroke:none;opacity:0.4;" width="12.4512" x="1394.06" y="1030.79"/><rect height="119.336" id="right-margin" style="fill:darkgreen;stroke:none;opacity:0.4;" width="12.4512" x="1502.5112" y="1030.79"/><rect x="1406.5112" y="1045" width="96" height="96" fill="none" stroke="blue" stroke-dasharray="5"/><rect x="1394.06" y="1030.79" width="120.9024" height="119.336" fill="none" stroke="blue"/></g><g id="Symbols"><g id="Bold-L" transform="matrix(1 0 0 1 2266 1556)"><path d="M15.964 18.789 V-95.86 Q15.964 -99.029 18.037 -101.153 Q20.111 -103.277 23.278 -103.277 Q26.445 -103.277 28.541 -101.153 Q30.637 -99.029 30.637 -95.86 V-90.377 H124.163 V-95.86 Q124.163 -99.029 126.349 -101.153 Q128.535 -103.277 131.543 -103.277 Q134.777 -103.277 136.887 -101.153 Q138.998 -99.029 138.998 -95.86 V18.789 Q138.998 22.135 136.859 24.17 Q134.72 26.206 131.567 26.206 Q128.414 26.206 126.288 24.17 Q124.163 22.135 124.163 18.789 V-44.744 H30.637 V18.789 Q30.637 22.135 28.481 24.17 Q26.324 26.206 23.302 26.206 Q20.054 26.206 18.009 24.17 Q15.964 22.135 15.964 18.789 Z M30.637 -59.417 H124.163 V-75.542 H30.637 V-59.417 Z M70.144 18.789 V8.469 H58.534 Q55.252 8.469 53.104 6.282 Q50.955 4.096 50.955 1.074 Q50.955 -1.948 53.104 -4.076 Q55.252 -6.205 58.534 -6.205 H96.589 Q99.552 -6.205 101.698 -4.048 Q103.845 -1.891 103.845 1.13 Q103.845 4.152 101.698 6.311 Q99.552 8.469 96.589 8.469 H84.817 V18.789 Q84.817 22.135 82.616 24.17 Q80.415 26.206 77.372 26.206 Q74.397 26.206 72.27 24.17 Q70.144 22.135 70.144 18.789 Z"/></g><g id="Semibold-L" transform="matrix(1 0 0 1 1970.27 1556)"><path d="M16.314 19.069 V-96.14 Q16.314 -98.967 18.248 -100.912 Q20.181 -102.857 23.033 -102.857 Q25.884 -102.857 27.805 -100.912 Q29.726 -98.967 29.726 -96.14 V-89.957 H125.074 V-96.14 Q125.074 -98.967 127.071 -100.912 Q129.068 -102.857 131.83 -102.857 Q134.719 -102.857 136.648 -100.912 Q138.577 -98.967 138.577 -96.14 V19.069 Q138.577 22.065 136.62 23.96 Q134.662 25.856 131.819 25.856 Q128.975 25.856 127.025 23.96 Q125.074 22.065 125.074 19.069 V-46.917 H29.726 V19.069 Q29.726 22.065 27.759 23.96 Q25.791 25.856 23.022 25.856 Q20.124 25.856 18.219 23.96 Q16.314 22.065 16.314 19.069 Z M29.726 -60.329 H125.074 V-76.454 H29.726 V-60.329 Z M70.775 19.069 V6.506 H58.113 Q55.154 6.506 53.195 4.509 Q51.235 2.511 51.235 -0.258 Q51.235 -3.028 53.195 -4.967 Q55.154 -6.906 58.113 -6.906 H96.939 Q99.65 -6.906 101.607 -4.939 Q103.565 -2.971 103.565 -0.202 Q103.565 2.568 101.607 4.537 Q99.65 6.506 96.939 6.506 H84.187 V19.069 Q84.187 22.065 82.175 23.96 Q80.163 25.856 77.372 25.856 Q74.649 25.856 72.712 23.96 Q70.775 22.065 70.775 19.069 Z"/></g><g id="Medium-L" transform="matrix(1 0 0 1 1674.31 1556)"><path d="M16.577 19.279 V-96.351 Q16.577 -98.921 18.405 -100.731 Q20.234 -102.541 22.849 -102.541 Q25.463 -102.541 27.253 -100.731 Q29.043 -98.921 29.043 -96.351 V-89.641 H125.757 V-96.351 Q125.757 -98.921 127.613 -100.731 Q129.468 -102.541 132.045 -102.541 Q134.676 -102.541 136.468 -100.731 Q138.261 -98.921 138.261 -96.351 V19.279 Q138.261 22.012 136.44 23.802 Q134.619 25.593 132.007 25.593 Q129.396 25.593 127.577 23.802 Q125.757 22.012 125.757 19.279 V-48.547 H29.043 V19.279 Q29.043 22.012 27.217 23.802 Q25.392 25.593 22.811 25.593 Q20.177 25.593 18.377 23.802 Q16.577 22.012 16.577 19.279 Z M29.043 -61.012 H125.757 V-77.137 H29.043 V-61.012 Z M71.248 19.279 V5.033 H57.798 Q55.081 5.033 53.263 3.178 Q51.446 1.323 51.446 -1.257 Q51.446 -3.837 53.263 -5.635 Q55.081 -7.432 57.798 -7.432 H97.202 Q99.723 -7.432 101.539 -5.606 Q103.354 -3.781 103.354 -1.201 Q103.354 1.38 101.539 3.207 Q99.723 5.033 97.202 5.033 H83.713 V19.279 Q83.713 22.012 81.843 23.802 Q79.974 25.593 77.372 25.593 Q74.838 25.593 73.043 23.802 Q71.248 22.012 71.248 19.279 Z"/></g><g id="Regular-L" transform="matrix(1 0 0 1 1378.56 1556)"><path d="M16.77 19.434 V-96.505 Q16.77 -98.887 18.521 -100.599 Q20.272 -102.31 22.714 -102.31 Q25.155 -102.31 26.848 -100.599 Q28.541 -98.887 28.541 -96.505 V-89.41 H126.259 V-96.505 Q126.259 -98.887 128.01 -100.599 Q129.761 -102.31 132.202 -102.31 Q134.644 -102.31 136.337 -100.599 Q138.03 -98.887 138.03 -96.505 V19.434 Q138.03 21.973 136.309 23.687 Q134.587 25.4 132.146 25.4 Q129.704 25.4 127.982 23.687 Q126.259 21.973 126.259 19.434 V-49.742 H28.541 V19.434 Q28.541 21.973 26.82 23.687 Q25.098 25.4 22.657 25.4 Q20.216 25.4 18.493 23.687 Q16.77 21.973 16.77 19.434 Z M28.541 -61.514 H126.259 V-77.639 H28.541 V-61.514 Z M71.595 19.434 V3.954 H57.566 Q55.027 3.954 53.313 2.203 Q51.6 0.452 51.6 -1.99 Q51.6 -4.431 53.313 -6.124 Q55.027 -7.817 57.566 -7.817 H97.395 Q99.777 -7.817 101.489 -6.096 Q103.2 -4.375 103.2 -1.933 Q103.2 0.508 101.489 2.231 Q99.777 3.954 97.395 3.954 H83.366 V19.434 Q83.366 21.973 81.601 23.687 Q79.835 25.4 77.372 25.4 Q74.977 25.4 73.286 23.687 Q71.595 21.973 71.595 19.434 Z"/></g><g id="Light-L" transform="matrix(1 0 0 1 1082.77 1556)"><path d="M19.995 17.387 V-94.458 Q19.995 -96.34 21.409 -97.712 Q22.822 -99.085 24.764 -99.085 Q26.706 -99.085 28.058 -97.712 Q29.41 -96.34 29.41 -94.458 V-86.185 H125.39 V-94.458 Q125.39 -96.34 126.804 -97.712 Q128.217 -99.085 130.159 -99.085 Q132.101 -99.085 133.453 -97.712 Q134.805 -96.34 134.805 -94.458 V17.387 Q134.805 19.426 133.421 20.8 Q132.038 22.175 130.096 22.175 Q128.154 22.175 126.772 20.8 Q125.39 19.426 125.39 17.387 V-49.618 H29.41 V17.387 Q29.41 19.426 28.026 20.8 Q26.643 22.175 24.701 22.175 Q22.759 22.175 21.377 20.8 Q19.995 19.426 19.995 17.387 Z M29.41 -59.033 H125.39 V-76.77 H29.41 V-59.033 Z M72.773 17.387 V1.721 H58.124 Q56.086 1.721 54.711 0.308 Q53.337 -1.106 53.337 -3.048 Q53.337 -4.989 54.711 -6.341 Q56.086 -7.693 58.124 -7.693 H96.775 Q98.656 -7.693 100.029 -6.31 Q101.401 -4.926 101.401 -2.984 Q101.401 -1.042 100.029 0.339 Q98.656 1.721 96.775 1.721 H82.188 V17.387 Q82.188 19.426 80.76 20.8 Q79.332 22.175 77.368 22.175 Q75.473 22.175 74.123 20.8 Q72.773 19.426 72.773 17.387 Z"/></g><g id="Thin-L" transform="matrix(1 0 0 1 787.282 1556)"><path d="M23.22 15.341 V-92.412 Q23.22 -93.793 24.295 -94.826 Q25.371 -95.86 26.813 -95.86 Q28.256 -95.86 29.267 -94.826 Q30.278 -93.793 30.278 -92.412 V-82.96 H124.522 V-92.412 Q124.522 -93.793 125.598 -94.826 Q126.673 -95.86 128.116 -95.86 Q129.558 -95.86 130.569 -94.826 Q131.58 -93.793 131.58 -92.412 V15.341 Q131.58 16.879 130.534 17.914 Q129.489 18.95 128.046 18.95 Q126.604 18.95 125.563 17.914 Q124.522 16.879 124.522 15.341 V-49.494 H30.278 V15.341 Q30.278 16.879 29.232 17.914 Q28.186 18.95 26.744 18.95 Q25.301 18.95 24.261 17.914 Q23.22 16.879 23.22 15.341 Z M30.278 -56.552 H124.522 V-75.902 H30.278 V-56.552 Z M73.952 15.341 V-0.512 H58.683 Q57.145 -0.512 56.109 -1.587 Q55.073 -2.662 55.073 -4.105 Q55.073 -5.548 56.109 -6.558 Q57.145 -7.569 58.683 -7.569 H96.155 Q97.535 -7.569 98.569 -6.524 Q99.603 -5.478 99.603 -4.035 Q99.603 -2.593 98.569 -1.552 Q97.535 -0.512 96.155 -0.512 H81.01 V15.341 Q81.01 16.879 79.92 17.914 Q78.829 18.95 77.365 18.95 Q75.97 18.95 74.961 17.914 Q73.952 16.879 73.952 15.341 Z"/></g><g id="Ultralight-L" transform="matrix(1 0 0 1 491.205 1556)"><path d="M25.155 14.113 V-91.184 Q25.155 -92.264 26.028 -93.095 Q26.901 -93.925 28.043 -93.925 Q29.186 -93.925 29.992 -93.095 Q30.799 -92.264 30.799 -91.184 V-81.025 H124.001 V-91.184 Q124.001 -92.264 124.874 -93.095 Q125.747 -93.925 126.89 -93.925 Q128.032 -93.925 128.839 -93.095 Q129.645 -92.264 129.645 -91.184 V14.113 Q129.645 15.35 128.802 16.182 Q127.959 17.015 126.816 17.015 Q125.673 17.015 124.837 16.182 Q124.001 15.35 124.001 14.113 V-49.42 H30.799 V14.113 Q30.799 15.35 29.956 16.182 Q29.113 17.015 27.97 17.015 Q26.827 17.015 25.991 16.182 Q25.155 15.35 25.155 14.113 Z M30.799 -55.064 H124.001 V-75.381 H30.799 V-55.064 Z M74.659 14.113 V-1.851 H59.017 Q57.78 -1.851 56.947 -2.724 Q56.115 -3.597 56.115 -4.74 Q56.115 -5.882 56.947 -6.689 Q57.78 -7.495 59.017 -7.495 H95.782 Q96.863 -7.495 97.693 -6.652 Q98.524 -5.809 98.524 -4.666 Q98.524 -3.523 97.693 -2.687 Q96.863 -1.851 95.782 -1.851 H80.303 V14.113 Q80.303 15.35 79.415 16.182 Q78.528 17.015 77.363 17.015 Q76.267 17.015 75.463 16.182 Q74.659 15.35 74.659 14.113 Z"/></g><g id="Bold-M" transform="matrix(1 0 0 1 2281.8 1126)"><path d="M9.25 7.02 V-82.48 Q9.25 -86.105 11.688 -88.542 Q14.125 -90.98 17.688 -90.98 Q21.25 -90.98 23.75 -88.542 Q26.25 -86.105 26.25 -82.48 V-80.98 H93.75 V-82.48 Q93.75 -86.105 96.275 -88.542 Q98.8 -90.98 102.25 -90.98 Q105.875 -90.98 108.312 -88.542 Q110.75 -86.105 110.75 -82.48 V7.02 Q110.75 10.645 108.312 13.083 Q105.875 15.52 102.312 15.52 Q98.75 15.52 96.25 13.083 Q93.75 10.645 93.75 7.02 V-36.98 H26.25 V7.02 Q26.25 10.645 23.725 13.083 Q21.2 15.52 17.75 15.52 Q14.125 15.52 11.688 13.083 Q9.25 10.645 9.25 7.02 Z M26.25 -53.98 H93.75 V-63.98 H26.25 V-53.98 Z M51.5 7.02 V3.395 H44.875 Q41.425 3.395 38.9 0.87 Q36.375 -1.655 36.375 -5.105 Q36.375 -8.555 38.9 -11.08 Q41.425 -13.605 44.875 -13.605 H75.125 Q78.575 -13.605 81.1 -11.08 Q83.625 -8.555 83.625 -5.105 Q83.625 -1.655 81.1 0.87 Q78.575 3.395 75.125 3.395 H68.5 V7.02 Q68.5 10.645 65.975 13.083 Q63.45 15.52 60 15.52 Q56.55 15.52 54.025 13.083 Q51.5 10.645 51.5 7.02 Z"/></g><g id="Semibold-M" transform="matrix(1 0 0 1 1985.97 1126)"><path d="M10.011 7.074 V-82.534 Q10.011 -85.779 12.231 -87.999 Q14.451 -90.219 17.66 -90.219 Q20.87 -90.219 23.125 -87.999 Q25.381 -85.779 25.381 -82.534 V-80.219 H94.62 V-82.534 Q94.62 -85.779 96.889 -87.999 Q99.159 -90.219 102.304 -90.219 Q105.549 -90.219 107.769 -87.999 Q109.989 -85.779 109.989 -82.534 V7.074 Q109.989 10.319 107.769 12.539 Q105.549 14.759 102.34 14.759 Q99.13 14.759 96.875 12.539 Q94.62 10.319 94.62 7.074 V-39.48 H25.381 V7.074 Q25.381 10.319 23.111 12.539 Q20.841 14.759 17.696 14.759 Q14.451 14.759 12.231 12.539 Q10.011 10.319 10.011 7.074 Z M25.381 -54.849 H94.62 V-64.849 H25.381 V-54.849 Z M52.315 7.074 V1.058 H44.549 Q41.403 1.058 39.134 -1.211 Q36.864 -3.481 36.864 -6.627 Q36.864 -9.772 39.134 -12.042 Q41.403 -14.311 44.549 -14.311 H75.451 Q78.597 -14.311 80.866 -12.042 Q83.136 -9.772 83.136 -6.627 Q83.136 -3.481 80.866 -1.211 Q78.597 1.058 75.451 1.058 H67.685 V7.074 Q67.685 10.319 65.415 12.539 Q63.146 14.759 60 14.759 Q56.854 14.759 54.585 12.539 Q52.315 10.319 52.315 7.074 Z"/></g><g id="Medium-M" transform="matrix(1 0 0 1 1689.91 1126)"><path d="M10.582 7.115 V-82.575 Q10.582 -85.534 12.639 -87.591 Q14.696 -89.648 17.64 -89.648 Q20.584 -89.648 22.656 -87.591 Q24.728 -85.534 24.728 -82.575 V-79.648 H95.272 V-82.575 Q95.272 -85.534 97.35 -87.591 Q99.428 -89.648 102.345 -89.648 Q105.304 -89.648 107.361 -87.591 Q109.418 -85.534 109.418 -82.575 V7.115 Q109.418 10.074 107.361 12.131 Q105.304 14.189 102.36 14.189 Q99.416 14.189 97.344 12.131 Q95.272 10.074 95.272 7.115 V-41.355 H24.728 V7.115 Q24.728 10.074 22.65 12.131 Q20.572 14.189 17.655 14.189 Q14.696 14.189 12.639 12.131 Q10.582 10.074 10.582 7.115 Z M24.728 -55.502 H95.272 V-65.502 H24.728 V-55.502 Z M52.927 7.115 V-0.695 H44.304 Q41.387 -0.695 39.309 -2.773 Q37.231 -4.851 37.231 -7.768 Q37.231 -10.685 39.309 -12.763 Q41.387 -14.841 44.304 -14.841 H75.696 Q78.613 -14.841 80.691 -12.763 Q82.769 -10.685 82.769 -7.768 Q82.769 -4.851 80.691 -2.773 Q78.613 -0.695 75.696 -0.695 H67.073 V7.115 Q67.073 10.074 64.995 12.131 Q62.917 14.189 60 14.189 Q57.083 14.189 55.005 12.131 Q52.927 10.074 52.927 7.115 Z"/></g><g id="Regular-M" transform="matrix(1 0 0 1 1394.06 1126)"><path d="M11 7.145 V-82.605 Q11 -85.355 12.938 -87.292 Q14.875 -89.23 17.625 -89.23 Q20.375 -89.23 22.312 -87.292 Q24.25 -85.355 24.25 -82.605 V-79.23 H95.75 V-82.605 Q95.75 -85.355 97.688 -87.292 Q99.625 -89.23 102.375 -89.23 Q105.125 -89.23 107.062 -87.292 Q109 -85.355 109 -82.605 V7.145 Q109 9.895 107.062 11.833 Q105.125 13.77 102.375 13.77 Q99.625 13.77 97.688 11.833 Q95.75 9.895 95.75 7.145 V-42.73 H24.25 V7.145 Q24.25 9.895 22.312 11.833 Q20.375 13.77 17.625 13.77 Q14.875 13.77 12.938 11.833 Q11 9.895 11 7.145 Z M24.25 -55.98 H95.75 V-65.98 H24.25 V-55.98 Z M53.375 7.145 V-1.98 H44.125 Q41.375 -1.98 39.438 -3.917 Q37.5 -5.855 37.5 -8.605 Q37.5 -11.355 39.438 -13.292 Q41.375 -15.23 44.125 -15.23 H75.875 Q78.625 -15.23 80.562 -13.292 Q82.5 -11.355 82.5 -8.605 Q82.5 -5.855 80.562 -3.917 Q78.625 -1.98 75.875 -1.98 H66.625 V7.145 Q66.625 9.895 64.688 11.833 Q62.75 13.77 60 13.77 Q57.25 13.77 55.312 11.833 Q53.375 9.895 53.375 7.145 Z"/></g><g id="Light-M" transform="matrix(1 0 0 1 1098.18 1126)"><path d="M13.5 5.895 V-81.355 Q13.5 -83.574 15.079 -85.152 Q16.657 -86.73 18.877 -86.73 Q21.096 -86.73 22.673 -85.152 Q24.25 -83.574 24.25 -81.355 V-76.73 H95.75 V-81.355 Q95.75 -83.574 97.329 -85.152 Q98.907 -86.73 101.127 -86.73 Q103.346 -86.73 104.923 -85.152 Q106.5 -83.574 106.5 -81.355 V5.895 Q106.5 8.114 104.921 9.692 Q103.343 11.27 101.123 11.27 Q98.904 11.27 97.327 9.692 Q95.75 8.114 95.75 5.895 V-43.307 H24.25 V5.895 Q24.25 8.114 22.671 9.692 Q21.093 11.27 18.873 11.27 Q16.654 11.27 15.077 9.692 Q13.5 8.114 13.5 5.895 Z M24.25 -54.057 H95.75 V-65.98 H24.25 V-54.057 Z M54.625 5.895 V-4.047 H44.558 Q42.339 -4.047 40.761 -5.626 Q39.183 -7.205 39.183 -9.424 Q39.183 -11.643 40.761 -13.22 Q42.339 -14.797 44.558 -14.797 H75.394 Q77.613 -14.797 79.191 -13.219 Q80.769 -11.64 80.769 -9.421 Q80.769 -7.201 79.191 -5.624 Q77.613 -4.047 75.394 -4.047 H65.375 V5.895 Q65.375 8.114 63.796 9.692 Q62.218 11.27 59.998 11.27 Q57.779 11.27 56.202 9.692 Q54.625 8.114 54.625 5.895 Z"/></g><g id="Thin-M" transform="matrix(1 0 0 1 802.565 1126)"><path d="M16 4.645 V-80.105 Q16 -81.792 17.22 -83.011 Q18.439 -84.23 20.128 -84.23 Q21.817 -84.23 23.034 -83.011 Q24.25 -81.792 24.25 -80.105 V-74.23 H95.75 V-80.105 Q95.75 -81.792 96.97 -83.011 Q98.189 -84.23 99.878 -84.23 Q101.567 -84.23 102.784 -83.011 Q104 -81.792 104 -80.105 V4.645 Q104 6.333 102.78 7.551 Q101.561 8.77 99.872 8.77 Q98.183 8.77 96.966 7.551 Q95.75 6.333 95.75 4.645 V-43.884 H24.25 V4.645 Q24.25 6.333 23.03 7.551 Q21.811 8.77 20.122 8.77 Q18.433 8.77 17.216 7.551 Q16 6.333 16 4.645 Z M24.25 -52.134 H95.75 V-65.98 H24.25 V-52.134 Z M55.875 4.645 V-6.115 H44.99 Q43.303 -6.115 42.084 -7.334 Q40.865 -8.554 40.865 -10.243 Q40.865 -11.932 42.084 -13.148 Q43.303 -14.365 44.99 -14.365 H74.913 Q76.601 -14.365 77.82 -13.145 Q79.038 -11.925 79.038 -10.236 Q79.038 -8.547 77.82 -7.331 Q76.601 -6.115 74.913 -6.115 H64.125 V4.645 Q64.125 6.333 62.905 7.551 Q61.686 8.77 59.997 8.77 Q58.308 8.77 57.091 7.551 Q55.875 6.333 55.875 4.645 Z"/></g><g id="Ultralight-M" transform="matrix(1 0 0 1 506.415 1126)"><path d="M17.5 3.895 V-79.355 Q17.5 -80.724 18.504 -81.727 Q19.509 -82.73 20.879 -82.73 Q22.25 -82.73 23.25 -81.727 Q24.25 -80.724 24.25 -79.355 V-72.73 H95.75 V-79.355 Q95.75 -80.724 96.754 -81.727 Q97.759 -82.73 99.129 -82.73 Q100.5 -82.73 101.5 -81.727 Q102.5 -80.724 102.5 -79.355 V3.895 Q102.5 5.264 101.496 6.267 Q100.491 7.27 99.121 7.27 Q97.75 7.27 96.75 6.267 Q95.75 5.264 95.75 3.895 V-44.23 H24.25 V3.895 Q24.25 5.264 23.246 6.267 Q22.241 7.27 20.871 7.27 Q19.5 7.27 18.5 6.267 Q17.5 5.264 17.5 3.895 Z M24.25 -50.98 H95.75 V-65.98 H24.25 V-50.98 Z M56.625 3.895 V-7.355 H45.25 Q43.881 -7.355 42.878 -8.359 Q41.875 -9.364 41.875 -10.734 Q41.875 -12.105 42.878 -13.105 Q43.881 -14.105 45.25 -14.105 H74.625 Q75.994 -14.105 76.997 -13.101 Q78 -12.096 78 -10.726 Q78 -9.355 76.997 -8.355 Q75.994 -7.355 74.625 -7.355 H63.375 V3.895 Q63.375 5.264 62.371 6.267 Q61.366 7.27 59.996 7.27 Q58.625 7.27 57.625 6.267 Q56.625 5.264 56.625 3.895 Z"/></g><g id="Bold-S" transform="matrix(1 0 0 1 2294.23 696)"><path d="M9.665 -3.867 V-71.327 Q9.665 -74.019 11.469 -75.829 Q13.273 -77.639 15.907 -77.639 Q18.541 -77.639 20.415 -75.829 Q22.289 -74.019 22.289 -71.327 V-68.171 H72.391 V-71.327 Q72.391 -74.019 74.264 -75.829 Q76.136 -77.639 78.682 -77.639 Q81.366 -77.639 83.19 -75.829 Q85.015 -74.019 85.015 -71.327 V-3.867 Q85.015 -1.175 83.211 0.635 Q81.407 2.445 78.773 2.445 Q76.139 2.445 74.265 0.635 Q72.391 -1.175 72.391 -3.867 V-35.822 H22.289 V-3.867 Q22.289 -1.175 20.416 0.635 Q18.544 2.445 15.998 2.445 Q13.314 2.445 11.49 0.635 Q9.665 -1.175 9.665 -3.867 Z M22.289 -48.446 H72.391 V-55.547 H22.289 V-48.446 Z M41.028 -3.867 V-7.122 H36.614 Q34.065 -7.122 32.171 -8.995 Q30.278 -10.868 30.278 -13.413 Q30.278 -15.959 32.155 -17.852 Q34.033 -19.746 36.586 -19.746 H58.062 Q60.615 -19.746 62.509 -17.873 Q64.402 -16 64.402 -13.455 Q64.402 -10.909 62.523 -9.015 Q60.645 -7.122 58.09 -7.122 H53.652 V-3.867 Q53.652 -1.175 51.779 0.635 Q49.906 2.445 47.361 2.445 Q44.815 2.445 42.922 0.635 Q41.028 -1.175 41.028 -3.867 Z"/></g><g id="Semibold-S" transform="matrix(1 0 0 1 1998.1 696)"><path d="M10.266 -3.824 V-71.37 Q10.266 -73.762 11.898 -75.4 Q13.53 -77.038 15.886 -77.038 Q18.241 -77.038 19.922 -75.4 Q21.603 -73.762 21.603 -71.37 V-67.57 H73.077 V-71.37 Q73.077 -73.762 74.748 -75.4 Q76.419 -77.038 78.725 -77.038 Q81.108 -77.038 82.761 -75.4 Q84.414 -73.762 84.414 -71.37 V-3.824 Q84.414 -1.432 82.782 0.206 Q81.15 1.844 78.794 1.844 Q76.439 1.844 74.758 0.206 Q73.077 -1.432 73.077 -3.824 V-37.794 H21.603 V-3.824 Q21.603 -1.432 19.932 0.206 Q18.261 1.844 15.955 1.844 Q13.572 1.844 11.919 0.206 Q10.266 -1.432 10.266 -3.824 Z M21.603 -49.132 H73.077 V-56.233 H21.603 V-49.132 Z M41.671 -3.824 V-8.966 H36.357 Q34.048 -8.966 32.356 -10.637 Q30.664 -12.308 30.664 -14.614 Q30.664 -16.919 32.34 -18.611 Q34.016 -20.303 36.329 -20.303 H58.32 Q60.632 -20.303 62.324 -18.632 Q64.016 -16.961 64.016 -14.655 Q64.016 -12.35 62.339 -10.658 Q60.662 -8.966 58.347 -8.966 H53.009 V-3.824 Q53.009 -1.432 51.338 0.206 Q49.666 1.844 47.361 1.844 Q45.055 1.844 43.363 0.206 Q41.671 -1.432 41.671 -3.824 Z"/></g><g id="Medium-S" transform="matrix(1 0 0 1 1701.85 696)"><path d="M10.716 -3.792 V-71.402 Q10.716 -73.569 12.219 -75.079 Q13.723 -76.588 15.87 -76.588 Q18.016 -76.588 19.552 -75.079 Q21.089 -73.569 21.089 -71.402 V-67.12 H73.591 V-71.402 Q73.591 -73.569 75.112 -75.079 Q76.632 -76.588 78.757 -76.588 Q80.915 -76.588 82.44 -75.079 Q83.964 -73.569 83.964 -71.402 V-3.792 Q83.964 -1.625 82.461 -0.115 Q80.957 1.394 78.81 1.394 Q76.664 1.394 75.128 -0.115 Q73.591 -1.625 73.591 -3.792 V-39.274 H21.089 V-3.792 Q21.089 -1.625 19.568 -0.115 Q18.048 1.394 15.923 1.394 Q13.765 1.394 12.24 -0.115 Q10.716 -1.625 10.716 -3.792 Z M21.089 -49.646 H73.591 V-56.747 H21.089 V-49.646 Z M42.154 -3.792 V-10.349 H36.164 Q34.035 -10.349 32.494 -11.869 Q30.953 -13.389 30.953 -15.514 Q30.953 -17.64 32.478 -19.18 Q34.003 -20.721 36.136 -20.721 H58.512 Q60.645 -20.721 62.186 -19.201 Q63.727 -17.681 63.727 -15.556 Q63.727 -13.43 62.201 -11.89 Q60.674 -10.349 58.54 -10.349 H52.526 V-3.792 Q52.526 -1.625 51.006 -0.115 Q49.486 1.394 47.361 1.394 Q45.235 1.394 43.695 -0.115 Q42.154 -1.625 42.154 -3.792 Z"/></g><g id="Regular-S" transform="matrix(1 0 0 1 1405.73 696)"><path d="M11.046 -3.769 V-71.425 Q11.046 -73.427 12.455 -74.843 Q13.865 -76.258 15.858 -76.258 Q17.851 -76.258 19.281 -74.843 Q20.711 -73.427 20.711 -71.425 V-66.79 H73.969 V-71.425 Q73.969 -73.427 75.378 -74.843 Q76.787 -76.258 78.781 -76.258 Q80.774 -76.258 82.204 -74.843 Q83.634 -73.427 83.634 -71.425 V-3.769 Q83.634 -1.767 82.225 -0.351 Q80.815 1.064 78.822 1.064 Q76.829 1.064 75.399 -0.351 Q73.969 -1.767 73.969 -3.769 V-40.358 H20.711 V-3.769 Q20.711 -1.767 19.302 -0.351 Q17.893 1.064 15.899 1.064 Q13.906 1.064 12.476 -0.351 Q11.046 -1.767 11.046 -3.769 Z M20.711 -50.024 H73.969 V-57.125 H20.711 V-50.024 Z M42.507 -3.769 V-11.363 H36.022 Q34.026 -11.363 32.596 -12.772 Q31.166 -14.181 31.166 -16.175 Q31.166 -18.168 32.58 -19.598 Q33.994 -21.028 35.994 -21.028 H58.654 Q60.654 -21.028 62.084 -19.619 Q63.515 -18.209 63.515 -16.216 Q63.515 -14.223 62.099 -12.793 Q60.684 -11.363 58.682 -11.363 H52.173 V-3.769 Q52.173 -1.767 50.763 -0.351 Q49.354 1.064 47.361 1.064 Q45.367 1.064 43.937 -0.351 Q42.507 -1.767 42.507 -3.769 Z"/></g><g id="Light-S" transform="matrix(1 0 0 1 1109.75 696)"><path d="M13.019 -4.755 V-70.439 Q13.019 -72.022 14.145 -73.154 Q15.271 -74.285 16.846 -74.285 Q18.42 -74.285 19.566 -73.154 Q20.711 -72.022 20.711 -70.439 V-64.817 H73.969 V-70.439 Q73.969 -72.022 75.095 -73.154 Q76.221 -74.285 77.796 -74.285 Q79.37 -74.285 80.516 -73.154 Q81.661 -72.022 81.661 -70.439 V-4.755 Q81.661 -3.172 80.535 -2.04 Q79.409 -0.909 77.834 -0.909 Q76.26 -0.909 75.114 -2.04 Q73.969 -3.172 73.969 -4.755 V-40.814 H20.711 V-4.755 Q20.711 -3.172 19.585 -2.04 Q18.459 -0.909 16.884 -0.909 Q15.31 -0.909 14.164 -2.04 Q13.019 -3.172 13.019 -4.755 Z M20.711 -48.506 H73.969 V-57.125 H20.711 V-48.506 Z M43.494 -4.755 V-12.994 H36.364 Q34.786 -12.994 33.64 -14.12 Q32.493 -15.246 32.493 -16.821 Q32.493 -18.396 33.624 -19.541 Q34.754 -20.687 36.336 -20.687 H58.275 Q59.856 -20.687 61.002 -19.56 Q62.149 -18.434 62.149 -16.86 Q62.149 -15.285 61.017 -14.14 Q59.885 -12.994 58.303 -12.994 H51.186 V-4.755 Q51.186 -3.172 50.06 -2.04 Q48.934 -0.909 47.359 -0.909 Q45.785 -0.909 44.639 -2.04 Q43.494 -3.172 43.494 -4.755 Z"/></g><g id="Thin-S" transform="matrix(1 0 0 1 814.015 696)"><path d="M14.991 -5.741 V-69.453 Q14.991 -70.617 15.834 -71.465 Q16.677 -72.313 17.833 -72.313 Q18.989 -72.313 19.85 -71.465 Q20.711 -70.617 20.711 -69.453 V-62.845 H73.969 V-69.453 Q73.969 -70.617 74.812 -71.465 Q75.655 -72.313 76.811 -72.313 Q77.967 -72.313 78.828 -71.465 Q79.689 -70.617 79.689 -69.453 V-5.741 Q79.689 -4.577 78.846 -3.729 Q78.003 -2.881 76.847 -2.881 Q75.691 -2.881 74.83 -3.729 Q73.969 -4.577 73.969 -5.741 V-41.269 H20.711 V-5.741 Q20.711 -4.577 19.868 -3.729 Q19.025 -2.881 17.869 -2.881 Q16.713 -2.881 15.852 -3.729 Q14.991 -4.577 14.991 -5.741 Z M20.711 -46.989 H73.969 V-57.125 H20.711 V-46.989 Z M44.48 -5.741 V-14.625 H36.705 Q35.547 -14.625 34.684 -15.468 Q33.821 -16.311 33.821 -17.467 Q33.821 -18.623 34.668 -19.484 Q35.515 -20.345 36.677 -20.345 H57.895 Q59.057 -20.345 59.92 -19.502 Q60.783 -18.659 60.783 -17.503 Q60.783 -16.347 59.935 -15.486 Q59.087 -14.625 57.923 -14.625 H50.2 V-5.741 Q50.2 -4.577 49.357 -3.729 Q48.514 -2.881 47.358 -2.881 Q46.202 -2.881 45.341 -3.729 Q44.48 -4.577 44.48 -5.741 Z"/></g><g id="Ultralight-S" transform="matrix(1 0 0 1 517.792 696)"><path d="M16.175 -6.333 V-68.861 Q16.175 -69.773 16.848 -70.451 Q17.521 -71.129 18.426 -71.129 Q19.331 -71.129 20.021 -70.451 Q20.711 -69.773 20.711 -68.861 V-61.661 H73.969 V-68.861 Q73.969 -69.773 74.642 -70.451 Q75.315 -71.129 76.22 -71.129 Q77.125 -71.129 77.815 -70.451 Q78.505 -69.773 78.505 -68.861 V-6.333 Q78.505 -5.421 77.832 -4.743 Q77.159 -4.064 76.254 -4.064 Q75.35 -4.064 74.659 -4.743 Q73.969 -5.421 73.969 -6.333 V-41.542 H20.711 V-6.333 Q20.711 -5.421 20.038 -4.743 Q19.365 -4.064 18.46 -4.064 Q17.555 -4.064 16.865 -4.743 Q16.175 -5.421 16.175 -6.333 Z M20.711 -46.079 H73.969 V-57.125 H20.711 V-46.079 Z M45.072 -6.333 V-15.604 H36.91 Q36.003 -15.604 35.31 -16.277 Q34.617 -16.95 34.617 -17.855 Q34.617 -18.76 35.294 -19.45 Q35.971 -20.14 36.882 -20.14 H57.668 Q58.578 -20.14 59.271 -19.467 Q59.964 -18.794 59.964 -17.889 Q59.964 -16.984 59.286 -16.294 Q58.608 -15.604 57.696 -15.604 H49.608 V-6.333 Q49.608 -5.421 48.935 -4.743 Q48.262 -4.064 47.357 -4.064 Q46.452 -4.064 45.762 -4.743 Q45.072 -5.421 45.072 -6.333 Z"/></g></g></svg>