<svg xmlns="http://www.w3.org/2000/svg" height="20" viewBox="0 -960 960 960" width="20"><path d="M624-38v-214h76l90 91v123H624Zm262-151-95-95v-15.535q0-14.498-10.35-25.481Q770.3-336 755-336q-3.808 0-7.017-.033-3.21-.034-6.983 1.033l-33-31q9.623-6.923 21.743-10.462Q741.862-380 755.489-380 790-380 814-357.025T838-300v48h48v63ZM38-146v-665h103l415 415H333v77h230q-4.5 10.276-7.25 21.638Q553-286 552-274v128H38ZM785-19 9-794l75-74L858-93l-73 74ZM211-518v77h76v-77h-76Zm115 0v77h77v-77h-77ZM211-639v77h76v-77h-76Zm346 77h77v-77h-77v77Zm116 0h76v-77h-76v77ZM264-812h658v440q-32-39-77-58.5T749-449v-69h-76v87q-4.15.696-8.736 2.539-4.586 1.843-9.264 3.461l-21-22v-71h-72v5l-54-54h10v-72h-71v10L264-812Z"/></svg>