<svg xmlns="http://www.w3.org/2000/svg" height="24" viewBox="0 -960 960 960" width="24"><path d="M645.615-68.001v-206.384h41.999l164.769 164.769v41.615H645.615Zm246.384-116-83-83v-47.304q0-17.198-11.5-28.831-11.5-11.634-29.006-11.634-9.268 0-18.021 4-8.754 4-13.858 11.385l-29.923-29.539q11.182-12.568 26.937-19.899 15.756-7.331 35.371-7.331 34.761 0 59.073 23.461 24.311 23.462 24.311 57.923v40h39.616v90.769Zm-823.998-6v-575.998h128l370.614 370.615H316.616v82.768h249.768q-2 8.661-3.193 17.1-1.192 8.439-2.192 16.439v89.076H68.001ZM825.692-14.387 13.54-826.154l61.153-61.152L886.46-75.539l-60.768 61.153ZM190.616-519.384v82.768h82.768v-82.768h-82.768Zm124 0v82.768h82.768v-82.768h-82.768Zm-124-124v82.768h82.768v-82.768h-82.768Zm372 82.768h82.768v-82.768h-82.768v82.768Zm124 0h82.768v-82.768h-82.768v82.768ZM310.001-765.999h581.998v334.46q-25.923-19.538-57.385-29.577-31.461-10.038-65.23-9.192v-49.076h-82.768v68.916q-9.458 2.548-18.266 6.42-8.808 3.873-16.966 9.432l-6-6v-78.768h-82.768v6l-47.232-47.232h6v-82.768h-82.768v6L310.001-765.999Z"/></svg>