<svg xmlns="http://www.w3.org/2000/svg" version="1.1" width="3300" height="2000"><g id="Notes"><style>
    text {
      font-family: monospace;
      text-anchor: middle;
    }
    text.emphasis {
      font-weight:bold;
    }
    text.lanchor {
      text-anchor: start;
    }
  </style><rect height="2200" id="artboard" fill="white" width="3300" x="0" y="0"/><line id="" style="fill:none;stroke:black;stroke-width:0.5;" x1="263" x2="3036" y1="292" y2="292"/><text class="lanchor emphasis" transform="matrix(1 0 0 1 263 322)">Weight/Scale Variations</text><text transform="matrix(1 0 0 1 559.711 322)">Ultralight</text><text transform="matrix(1 0 0 1 856.422 322)">Thin</text><text transform="matrix(1 0 0 1 1153.13 322)">Light</text><text transform="matrix(1 0 0 1 1449.84 322)">Regular</text><text transform="matrix(1 0 0 1 1746.56 322)">Medium</text><text transform="matrix(1 0 0 1 2043.27 322)">Semibold</text><text transform="matrix(1 0 0 1 2339.98 322)">Bold</text><text transform="matrix(1 0 0 1 2636.69 322)">Heavy</text><text transform="matrix(1 0 0 1 2933.4 322)">Black</text><text id="template-version" style="text-anchor: end;" transform="matrix(1 0 0 1 3036 1933)">Template v.1.0</text><text class="lanchor" transform="matrix(1 0 0 1 263 726)">Small</text><text class="lanchor" transform="matrix(1 0 0 1 263 1156)">Medium</text><text class="lanchor" transform="matrix(1 0 0 1 263 1586)">Large</text></g><g id="Guides"><g id="H-reference" style="fill:#27AAE1;stroke:none;" transform="matrix(1 0 0 1 339 696)"><path d="M 54.9316 0 L 57.666 0 L 30.5664 -70.459 L 28.0762 -70.459 L 0.976562 0 L 3.66211 0 L 12.9395 -24.4629 L 45.7031 -24.4629 Z M 29.1992 -67.0898 L 29.4434 -67.0898 L 44.8242 -26.709 L 13.8184 -26.709 Z"/></g><line id="Baseline-S" style="fill:none;stroke:#27AAE1;opacity:1;stroke-width:0.577;" x1="263" x2="3036" y1="696" y2="696"/><line id="Capline-S" style="fill:none;stroke:#27AAE1;opacity:1;stroke-width:0.577;" x1="263" x2="3036" y1="625.541" y2="625.541"/><g id="H-reference" style="fill:#27AAE1;stroke:none;" transform="matrix(1 0 0 1 339 1126)"><path d="M 54.9316 0 L 57.666 0 L 30.5664 -70.459 L 28.0762 -70.459 L 0.976562 0 L 3.66211 0 L 12.9395 -24.4629 L 45.7031 -24.4629 Z M 29.1992 -67.0898 L 29.4434 -67.0898 L 44.8242 -26.709 L 13.8184 -26.709 Z"/></g><line id="Baseline-M" style="fill:none;stroke:#27AAE1;opacity:1;stroke-width:0.577;" x1="263" x2="3036" y1="1126" y2="1126"/><line id="Capline-M" style="fill:none;stroke:#27AAE1;opacity:1;stroke-width:0.577;" x1="263" x2="3036" y1="1055.54" y2="1055.54"/><g id="H-reference" style="fill:#27AAE1;stroke:none;" transform="matrix(1 0 0 1 339 1556)"><path d="M 54.9316 0 L 57.666 0 L 30.5664 -70.459 L 28.0762 -70.459 L 0.976562 0 L 3.66211 0 L 12.9395 -24.4629 L 45.7031 -24.4629 Z M 29.1992 -67.0898 L 29.4434 -67.0898 L 44.8242 -26.709 L 13.8184 -26.709 Z"/></g><line id="Baseline-L" style="fill:none;stroke:#27AAE1;opacity:1;stroke-width:0.577;" x1="263" x2="3036" y1="1556" y2="1556"/><line id="Capline-L" style="fill:none;stroke:#27AAE1;opacity:1;stroke-width:0.577;" x1="263" x2="3036" y1="1485.54" y2="1485.54"/><rect height="119.336" id="left-margin" style="fill:darkred;stroke:none;opacity:0.4;" width="12.4512" x="1394.06" y="1030.79"/><rect height="119.336" id="right-margin" style="fill:darkgreen;stroke:none;opacity:0.4;" width="12.4512" x="1502.5112" y="1030.79"/><rect x="1406.5112" y="1045" width="96" height="96" fill="none" stroke="blue" stroke-dasharray="5"/><rect x="1394.06" y="1030.79" width="120.9024" height="119.336" fill="none" stroke="blue"/></g><g id="Symbols"><g id="Bold-L" transform="matrix(1 0 0 1 2266 1556)"><path d="M29.186 38.623 V-109.082 H125.614 V38.623 H29.186 Z M43.941 18.869 V23.868 H110.859 V18.869 H43.941 Z M43.941 -89.329 H110.859 V-94.328 H43.941 V-89.329 Z M77.4 -6.689 Q68.556 -6.689 60.078 -4.109 Q51.6 -1.529 43.941 2.583 V9.598 H110.859 V2.583 Q103.2 -1.529 94.861 -4.109 Q86.523 -6.689 77.4 -6.689 Z M77.44 -15.961 Q86.332 -15.961 94.686 -13.784 Q103.039 -11.607 110.859 -7.576 V-80.057 H43.941 V-7.576 Q51.922 -11.607 60.235 -13.784 Q68.548 -15.961 77.44 -15.961 Z M77.561 -25.313 Q85.221 -25.313 90.582 -30.675 Q95.944 -36.036 95.944 -43.696 Q95.944 -51.355 90.582 -56.717 Q85.221 -62.078 77.561 -62.078 Q69.902 -62.078 64.54 -56.717 Q59.179 -51.355 59.179 -43.696 Q59.179 -36.036 64.54 -30.675 Q69.902 -25.313 77.561 -25.313 Z M77.561 -34.585 Q73.772 -34.585 71.111 -37.246 Q68.451 -39.906 68.451 -43.696 Q68.451 -47.485 71.111 -50.146 Q73.772 -52.806 77.561 -52.806 Q81.351 -52.806 84.011 -50.146 Q86.672 -47.485 86.672 -43.696 Q86.672 -39.906 84.011 -37.246 Q81.351 -34.585 77.561 -34.585 Z"/></g><g id="Semibold-L" transform="matrix(1 0 0 1 1970.27 1556)"><path d="M30.799 37.01 V-107.47 H124.001 V37.01 H30.799 Z M43.17 19.64 V24.639 H111.63 V19.64 H43.17 Z M43.17 -90.1 H111.63 V-95.099 H43.17 V-90.1 Z M77.4 -6.689 Q68.276 -6.689 59.552 -3.968 Q50.829 -1.248 43.17 3.074 V10.369 H111.63 V3.074 Q103.971 -1.248 95.339 -3.968 Q86.706 -6.689 77.4 -6.689 Z M77.44 -15.961 Q86.655 -15.961 95.232 -13.643 Q103.81 -11.326 111.63 -7.155 V-80.829 H43.17 V-7.155 Q51.151 -11.326 59.688 -13.643 Q68.226 -15.961 77.44 -15.961 Z M77.561 -25.734 Q85.221 -25.734 90.582 -31.095 Q95.944 -36.457 95.944 -44.116 Q95.944 -51.776 90.582 -57.137 Q85.221 -62.499 77.561 -62.499 Q69.902 -62.499 64.54 -57.137 Q59.179 -51.776 59.179 -44.116 Q59.179 -36.457 64.54 -31.095 Q69.902 -25.734 77.561 -25.734 Z M77.561 -35.006 Q73.772 -35.006 71.111 -37.666 Q68.451 -40.327 68.451 -44.116 Q68.451 -47.906 71.111 -50.566 Q73.772 -53.227 77.561 -53.227 Q81.351 -53.227 84.011 -50.566 Q86.672 -47.906 86.672 -44.116 Q86.672 -40.327 84.011 -37.666 Q81.351 -35.006 77.561 -35.006 Z"/></g><g id="Medium-L" transform="matrix(1 0 0 1 1674.31 1556)"><path d="M32.008 35.801 V-106.261 H122.792 V35.801 H32.008 Z M42.591 20.219 V25.218 H112.209 V20.219 H42.591 Z M42.591 -90.679 H112.209 V-95.678 H42.591 V-90.679 Z M77.4 -6.689 Q68.065 -6.689 59.158 -3.863 Q50.25 -1.038 42.591 3.442 V10.947 H112.209 V3.442 Q104.55 -1.038 95.697 -3.863 Q86.844 -6.689 77.4 -6.689 Z M77.44 -15.961 Q86.897 -15.961 95.643 -13.538 Q104.388 -11.116 112.209 -6.84 V-81.407 H42.591 V-6.84 Q50.573 -11.116 59.278 -13.538 Q67.983 -15.961 77.44 -15.961 Z M77.561 -26.049 Q85.221 -26.049 90.582 -31.411 Q95.944 -36.772 95.944 -44.432 Q95.944 -52.091 90.582 -57.453 Q85.221 -62.814 77.561 -62.814 Q69.902 -62.814 64.54 -57.453 Q59.179 -52.091 59.179 -44.432 Q59.179 -36.772 64.54 -31.411 Q69.902 -26.049 77.561 -26.049 Z M77.561 -35.321 Q73.772 -35.321 71.111 -37.982 Q68.451 -40.642 68.451 -44.432 Q68.451 -48.221 71.111 -50.882 Q73.772 -53.542 77.561 -53.542 Q81.351 -53.542 84.011 -50.882 Q86.672 -48.221 86.672 -44.432 Q86.672 -40.642 84.011 -37.982 Q81.351 -35.321 77.561 -35.321 Z"/></g><g id="Regular-L" transform="matrix(1 0 0 1 1378.56 1556)"><path d="M32.895 34.914 V-105.374 H121.905 V34.914 H32.895 Z M42.167 20.643 V25.642 H112.633 V20.643 H42.167 Z M42.167 -91.103 H112.633 V-96.102 H42.167 V-91.103 Z M77.4 -6.689 Q67.911 -6.689 58.869 -3.786 Q49.826 -0.884 42.167 3.712 V11.371 H112.633 V3.712 Q104.974 -0.884 95.959 -3.786 Q86.945 -6.689 77.4 -6.689 Z M77.44 -15.961 Q87.075 -15.961 95.944 -13.461 Q104.812 -10.962 112.633 -6.608 V-81.831 H42.167 V-6.608 Q50.149 -10.962 58.977 -13.461 Q67.806 -15.961 77.44 -15.961 Z M77.561 -26.281 Q85.221 -26.281 90.582 -31.642 Q95.944 -37.004 95.944 -44.663 Q95.944 -52.322 90.582 -57.684 Q85.221 -63.046 77.561 -63.046 Q69.902 -63.046 64.54 -57.684 Q59.179 -52.322 59.179 -44.663 Q59.179 -37.004 64.54 -31.642 Q69.902 -26.281 77.561 -26.281 Z M77.561 -35.552 Q73.772 -35.552 71.111 -38.213 Q68.451 -40.874 68.451 -44.663 Q68.451 -48.452 71.111 -51.113 Q73.772 -53.774 77.561 -53.774 Q81.351 -53.774 84.011 -51.113 Q86.672 -48.452 86.672 -44.663 Q86.672 -40.874 84.011 -38.213 Q81.351 -35.552 77.561 -35.552 Z"/></g><g id="Light-L" transform="matrix(1 0 0 1 1082.77 1556)"><path d="M35.872 31.999 V-102.459 H118.928 V31.999 H35.872 Z M42.942 17.945 V24.929 H111.858 V17.945 H42.942 Z M42.942 -88.405 H111.858 V-95.389 H42.942 V-88.405 Z M77.415 -10.596 Q68.142 -10.596 59.294 -7.787 Q50.446 -4.977 42.942 -0.413 V10.875 H111.858 V-0.413 Q104.365 -4.977 95.555 -7.787 Q86.744 -10.596 77.415 -10.596 Z M77.43 -17.678 Q86.852 -17.678 95.53 -15.192 Q104.207 -12.706 111.858 -8.376 V-81.335 H42.942 V-8.376 Q50.747 -12.706 59.377 -15.192 Q68.007 -17.678 77.43 -17.678 Z M77.499 -28.544 Q84.662 -28.544 89.621 -33.503 Q94.579 -38.461 94.579 -45.594 Q94.579 -52.726 89.621 -57.715 Q84.662 -62.704 77.53 -62.704 Q70.398 -62.704 65.44 -57.723 Q60.481 -52.741 60.481 -45.624 Q60.481 -38.461 65.445 -33.503 Q70.408 -28.544 77.499 -28.544 Z M77.53 -35.615 Q73.307 -35.615 70.429 -38.492 Q67.551 -41.37 67.551 -45.594 Q67.551 -49.817 70.429 -52.726 Q73.307 -55.634 77.53 -55.634 Q81.754 -55.634 84.631 -52.726 Q87.509 -49.817 87.509 -45.594 Q87.509 -41.37 84.631 -38.492 Q81.754 -35.615 77.53 -35.615 Z"/></g><g id="Thin-L" transform="matrix(1 0 0 1 787.282 1556)"><path d="M38.849 29.084 V-99.544 H115.951 V29.084 H38.849 Z M43.717 15.248 V24.215 H111.083 V15.248 H43.717 Z M43.717 -85.708 H111.083 V-94.675 H43.717 V-85.708 Z M77.43 -14.503 Q68.372 -14.503 59.719 -11.787 Q51.067 -9.07 43.717 -4.537 V10.379 H111.083 V-4.537 Q103.757 -9.07 95.15 -11.787 Q86.543 -14.503 77.43 -14.503 Z M77.419 -19.396 Q86.629 -19.396 95.116 -16.922 Q103.602 -14.449 111.083 -10.143 V-80.839 H43.717 V-10.143 Q51.346 -14.449 59.777 -16.922 Q68.209 -19.396 77.419 -19.396 Z M77.437 -30.808 Q84.104 -30.808 88.66 -35.363 Q93.215 -39.919 93.215 -46.524 Q93.215 -53.129 88.66 -57.746 Q84.104 -62.363 77.499 -62.363 Q70.894 -62.363 66.339 -57.762 Q61.784 -53.16 61.784 -46.586 Q61.784 -39.919 66.349 -35.363 Q70.915 -30.808 77.437 -30.808 Z M77.499 -35.677 Q72.842 -35.677 69.747 -38.771 Q66.652 -41.866 66.652 -46.524 Q66.652 -51.181 69.747 -54.338 Q72.842 -57.495 77.499 -57.495 Q82.157 -57.495 85.252 -54.338 Q88.346 -51.181 88.346 -46.524 Q88.346 -41.866 85.252 -38.771 Q82.157 -35.677 77.499 -35.677 Z"/></g><g id="Ultralight-L" transform="matrix(1 0 0 1 491.205 1556)"><path d="M40.635 27.335 V-97.795 H114.165 V27.335 H40.635 Z M44.183 13.629 V23.788 H110.618 V13.629 H44.183 Z M44.183 -84.089 H110.618 V-94.247 H44.183 V-84.089 Z M77.438 -16.847 Q68.51 -16.847 59.975 -14.187 Q51.439 -11.526 44.183 -7.011 V10.081 H110.618 V-7.011 Q103.392 -11.526 94.907 -14.187 Q86.422 -16.847 77.438 -16.847 Z M77.412 -20.427 Q86.495 -20.427 94.867 -17.961 Q103.24 -15.495 110.618 -11.204 V-80.541 H44.183 V-11.204 Q51.705 -15.495 60.017 -17.961 Q68.33 -20.427 77.412 -20.427 Z M77.4 -32.166 Q83.769 -32.166 88.083 -36.48 Q92.396 -40.793 92.396 -47.082 Q92.396 -53.371 88.083 -57.765 Q83.769 -62.159 77.481 -62.159 Q71.192 -62.159 66.878 -57.785 Q62.565 -53.411 62.565 -47.162 Q62.565 -40.793 66.892 -36.48 Q71.219 -32.166 77.4 -32.166 Z M77.481 -35.714 Q72.562 -35.714 69.338 -38.939 Q66.112 -42.164 66.112 -47.082 Q66.112 -52 69.338 -55.306 Q72.562 -58.611 77.481 -58.611 Q82.399 -58.611 85.624 -55.306 Q88.849 -52 88.849 -47.082 Q88.849 -42.164 85.624 -38.939 Q82.399 -35.714 77.481 -35.714 Z"/></g><g id="Bold-M" transform="matrix(1 0 0 1 2281.8 1126)"><path d="M22.125 22.395 V-92.855 H97.875 V22.395 H22.125 Z M37.25 2.02 V7.27 H82.75 V2.02 H37.25 Z M37.25 -72.48 H82.75 V-77.73 H37.25 V-72.48 Z M60 -15.98 Q53.837 -15.98 48.231 -14.355 Q42.625 -12.73 37.25 -9.73 V-7.355 H82.75 V-9.73 Q77.375 -12.73 71.769 -14.355 Q66.163 -15.98 60 -15.98 Z M60 -25.355 Q65.938 -25.355 71.562 -24.105 Q77.188 -22.855 82.75 -20.355 V-63.105 H37.25 V-20.355 Q42.812 -22.855 48.438 -24.105 Q54.062 -25.355 60 -25.355 Z M60.015 -29.605 Q66.062 -29.605 70.281 -33.838 Q74.5 -38.072 74.5 -44.12 Q74.5 -50.167 70.266 -54.386 Q66.033 -58.605 59.985 -58.605 Q53.938 -58.605 49.719 -54.371 Q45.5 -50.138 45.5 -44.09 Q45.5 -38.042 49.733 -33.824 Q53.967 -29.605 60.015 -29.605 Z M60 -38.98 Q57.875 -38.98 56.375 -40.48 Q54.875 -41.98 54.875 -44.105 Q54.875 -46.23 56.375 -47.73 Q57.875 -49.23 60 -49.23 Q62.125 -49.23 63.625 -47.73 Q65.125 -46.23 65.125 -44.105 Q65.125 -41.98 63.625 -40.48 Q62.125 -38.98 60 -38.98 Z"/></g><g id="Semibold-M" transform="matrix(1 0 0 1 1985.97 1126)"><path d="M23.81 20.71 V-91.17 H96.19 V20.71 H23.81 Z M36.435 2.835 V8.085 H83.565 V2.835 H36.435 Z M36.435 -73.295 H83.565 V-78.545 H36.435 V-73.295 Z M60 -15.98 Q53.619 -15.98 47.715 -14.219 Q41.81 -12.458 36.435 -9.241 V-6.54 H83.565 V-9.241 Q78.19 -12.458 72.285 -14.219 Q66.381 -15.98 60 -15.98 Z M60 -25.355 Q66.264 -25.355 72.133 -23.969 Q78.003 -22.583 83.565 -19.92 V-63.92 H36.435 V-19.92 Q41.997 -22.583 47.867 -23.969 Q53.736 -25.355 60 -25.355 Z M60.015 -30.04 Q66.062 -30.04 70.281 -34.273 Q74.5 -38.507 74.5 -44.554 Q74.5 -50.602 70.266 -54.821 Q66.033 -59.04 59.985 -59.04 Q53.938 -59.04 49.719 -54.806 Q45.5 -50.573 45.5 -44.525 Q45.5 -38.477 49.733 -34.258 Q53.967 -30.04 60.015 -30.04 Z M60 -39.415 Q57.875 -39.415 56.375 -40.915 Q54.875 -42.415 54.875 -44.54 Q54.875 -46.665 56.375 -48.165 Q57.875 -49.665 60 -49.665 Q62.125 -49.665 63.625 -48.165 Q65.125 -46.665 65.125 -44.54 Q65.125 -42.415 63.625 -40.915 Q62.125 -39.415 60 -39.415 Z"/></g><g id="Medium-M" transform="matrix(1 0 0 1 1689.91 1126)"><path d="M25.073 19.447 V-89.907 H94.927 V19.447 H25.073 Z M35.823 3.447 V8.697 H84.177 V3.447 H35.823 Z M35.823 -73.907 H84.177 V-79.157 H35.823 V-73.907 Z M60 -15.98 Q53.456 -15.98 47.327 -14.117 Q41.198 -12.254 35.823 -8.874 V-5.928 H84.177 V-8.874 Q78.802 -12.254 72.673 -14.117 Q66.544 -15.98 60 -15.98 Z M60 -25.355 Q66.508 -25.355 72.561 -23.867 Q78.614 -22.379 84.177 -19.594 V-64.532 H35.823 V-19.594 Q41.386 -22.379 47.439 -23.867 Q53.492 -25.355 60 -25.355 Z M60.015 -30.366 Q66.062 -30.366 70.281 -34.599 Q74.5 -38.833 74.5 -44.881 Q74.5 -50.928 70.266 -55.147 Q66.033 -59.366 59.985 -59.366 Q53.938 -59.366 49.719 -55.132 Q45.5 -50.899 45.5 -44.851 Q45.5 -38.803 49.733 -34.585 Q53.967 -30.366 60.015 -30.366 Z M60 -39.741 Q57.875 -39.741 56.375 -41.241 Q54.875 -42.741 54.875 -44.866 Q54.875 -46.991 56.375 -48.491 Q57.875 -49.991 60 -49.991 Q62.125 -49.991 63.625 -48.491 Q65.125 -46.991 65.125 -44.866 Q65.125 -42.741 63.625 -41.241 Q62.125 -39.741 60 -39.741 Z"/></g><g id="Regular-M" transform="matrix(1 0 0 1 1394.06 1126)"><path d="M26 18.52 V-88.98 H94 V18.52 H26 Z M35.375 3.895 V9.145 H84.625 V3.895 H35.375 Z M35.375 -74.355 H84.625 V-79.605 H35.375 V-74.355 Z M60 -15.98 Q53.337 -15.98 47.043 -14.042 Q40.75 -12.105 35.375 -8.605 V-5.48 H84.625 V-8.605 Q79.25 -12.105 72.957 -14.042 Q66.663 -15.98 60 -15.98 Z M60 -25.355 Q66.688 -25.355 72.875 -23.792 Q79.062 -22.23 84.625 -19.355 V-64.98 H35.375 V-19.355 Q40.938 -22.23 47.125 -23.792 Q53.312 -25.355 60 -25.355 Z M60.015 -30.605 Q66.062 -30.605 70.281 -34.838 Q74.5 -39.072 74.5 -45.12 Q74.5 -51.167 70.266 -55.386 Q66.033 -59.605 59.985 -59.605 Q53.938 -59.605 49.719 -55.371 Q45.5 -51.138 45.5 -45.09 Q45.5 -39.042 49.733 -34.824 Q53.967 -30.605 60.015 -30.605 Z M60 -39.98 Q57.875 -39.98 56.375 -41.48 Q54.875 -42.98 54.875 -45.105 Q54.875 -47.23 56.375 -48.73 Q57.875 -50.23 60 -50.23 Q62.125 -50.23 63.625 -48.73 Q65.125 -47.23 65.125 -45.105 Q65.125 -42.98 63.625 -41.48 Q62.125 -39.98 60 -39.98 Z"/></g><g id="Light-M" transform="matrix(1 0 0 1 1098.18 1126)"><path d="M28.308 16.26 V-86.72 H91.692 V16.26 H28.308 Z M35.303 2.813 V9.265 H84.697 V2.813 H35.303 Z M35.303 -73.273 H84.697 V-79.725 H35.303 V-73.273 Z M60.005 -18.336 Q53.323 -18.336 47.012 -16.398 Q40.702 -14.461 35.303 -10.937 V-4.182 H84.697 V-10.937 Q79.307 -14.461 72.997 -16.398 Q66.686 -18.336 60.005 -18.336 Z M60 -25.34 Q66.707 -25.34 72.913 -23.7 Q79.118 -22.06 84.697 -19.042 V-66.278 H35.303 V-19.042 Q40.882 -22.06 47.087 -23.7 Q53.293 -25.34 60 -25.34 Z M60.015 -31.783 Q65.582 -31.783 69.464 -35.68 Q73.346 -39.577 73.346 -45.144 Q73.346 -50.711 69.449 -54.593 Q65.552 -58.475 59.985 -58.475 Q54.418 -58.475 50.536 -54.578 Q46.654 -50.681 46.654 -45.114 Q46.654 -39.547 50.551 -35.665 Q54.448 -31.783 60.015 -31.783 Z M60 -38.778 Q57.37 -38.778 55.51 -40.639 Q53.649 -42.499 53.649 -45.129 Q53.649 -47.759 55.51 -49.619 Q57.37 -51.48 60 -51.48 Q62.63 -51.48 64.49 -49.619 Q66.351 -47.759 66.351 -45.129 Q66.351 -42.499 64.49 -40.639 Q62.63 -38.778 60 -38.778 Z"/></g><g id="Thin-M" transform="matrix(1 0 0 1 802.565 1126)"><path d="M30.615 14.001 V-84.461 H89.385 V14.001 H30.615 Z M35.231 1.732 V9.385 H84.769 V1.732 H35.231 Z M35.231 -72.191 H84.769 V-79.845 H35.231 V-72.191 Z M60.009 -20.691 Q53.309 -20.691 46.981 -18.754 Q40.654 -16.816 35.231 -13.268 V-2.884 H84.769 V-13.268 Q79.365 -16.816 73.037 -18.754 Q66.709 -20.691 60.009 -20.691 Z M60 -25.326 Q66.727 -25.326 72.95 -23.608 Q79.174 -21.89 84.769 -18.73 V-67.576 H35.231 V-18.73 Q40.826 -21.89 47.05 -23.608 Q53.273 -25.326 60 -25.326 Z M60.015 -32.961 Q65.101 -32.961 68.647 -36.521 Q72.192 -40.081 72.192 -45.168 Q72.192 -50.254 68.632 -53.8 Q65.072 -57.345 59.985 -57.345 Q54.899 -57.345 51.353 -53.785 Q47.808 -50.225 47.808 -45.138 Q47.808 -40.052 51.368 -36.506 Q54.928 -32.961 60.015 -32.961 Z M60 -37.576 Q56.865 -37.576 54.644 -39.797 Q52.423 -42.018 52.423 -45.153 Q52.423 -48.288 54.644 -50.509 Q56.865 -52.73 60 -52.73 Q63.135 -52.73 65.356 -50.509 Q67.577 -48.288 67.577 -45.153 Q67.577 -42.018 65.356 -39.797 Q63.135 -37.576 60 -37.576 Z"/></g><g id="Ultralight-M" transform="matrix(1 0 0 1 506.415 1126)"><path d="M32 12.645 V-83.105 H88 V12.645 H32 Z M35.188 1.083 V9.458 H84.812 V1.083 H35.188 Z M35.188 -71.542 H84.812 V-79.917 H35.188 V-71.542 Z M60.012 -22.105 Q53.301 -22.105 46.963 -20.167 Q40.625 -18.23 35.188 -14.667 V-2.105 H84.812 V-14.667 Q79.399 -18.23 73.061 -20.167 Q66.723 -22.105 60.012 -22.105 Z M60 -25.317 Q66.738 -25.317 72.973 -23.553 Q79.208 -21.789 84.812 -18.542 V-68.355 H35.188 V-18.542 Q40.792 -21.789 47.027 -23.553 Q53.262 -25.317 60 -25.317 Z M60.015 -33.667 Q64.812 -33.667 68.156 -37.026 Q71.5 -40.384 71.5 -45.182 Q71.5 -49.98 68.141 -53.324 Q64.783 -56.667 59.985 -56.667 Q55.188 -56.667 51.844 -53.309 Q48.5 -49.951 48.5 -45.153 Q48.5 -40.355 51.858 -37.011 Q55.217 -33.667 60.015 -33.667 Z M60 -36.855 Q56.562 -36.855 54.125 -39.292 Q51.688 -41.73 51.688 -45.167 Q51.688 -48.605 54.125 -51.042 Q56.562 -53.48 60 -53.48 Q63.438 -53.48 65.875 -51.042 Q68.312 -48.605 68.312 -45.167 Q68.312 -41.73 65.875 -39.292 Q63.438 -36.855 60 -36.855 Z"/></g><g id="Bold-S" transform="matrix(1 0 0 1 2294.23 696)"><path d="M16.668 9.447 V-79.907 H78.012 V9.447 H16.668 Z M27.812 -6.629 V-1.697 H66.868 V-6.629 H27.812 Z M27.812 -63.831 H66.868 V-68.762 H27.812 V-63.831 Z M47.389 -19.253 Q42.082 -19.253 37.314 -17.625 Q32.546 -15.998 27.911 -13.138 V-13.237 H66.769 V-13.138 Q62.231 -16.077 57.464 -17.665 Q52.696 -19.253 47.389 -19.253 Z M47.34 -25.861 Q52.321 -25.861 57.203 -24.677 Q62.084 -23.494 66.868 -20.929 V-57.223 H27.812 V-20.929 Q32.596 -23.494 37.477 -24.677 Q42.359 -25.861 47.34 -25.861 Z M47.352 -30.003 Q52.123 -30.003 55.452 -33.343 Q58.781 -36.683 58.781 -41.455 Q58.781 -46.227 55.44 -49.555 Q52.1 -52.884 47.328 -52.884 Q42.557 -52.884 39.228 -49.544 Q35.9 -46.204 35.9 -41.432 Q35.9 -36.66 39.24 -33.331 Q42.58 -30.003 47.352 -30.003 Z M47.34 -36.611 Q45.328 -36.611 43.918 -38.021 Q42.507 -39.431 42.507 -41.443 Q42.507 -43.455 43.918 -44.866 Q45.328 -46.276 47.34 -46.276 Q49.352 -46.276 50.762 -44.866 Q52.173 -43.455 52.173 -41.443 Q52.173 -39.431 50.762 -38.021 Q49.352 -36.611 47.34 -36.611 Z"/></g><g id="Semibold-S" transform="matrix(1 0 0 1 1998.1 696)"><path d="M17.997 8.118 V-78.578 H76.683 V8.118 H17.997 Z M27.169 -5.986 V-1.054 H67.511 V-5.986 H27.169 Z M27.169 -64.474 H67.511 V-69.406 H27.169 V-64.474 Z M47.389 -19.253 Q41.911 -19.253 36.907 -17.518 Q31.903 -15.784 27.268 -12.752 V-12.593 H67.412 V-12.752 Q62.874 -15.863 57.871 -17.558 Q52.868 -19.253 47.389 -19.253 Z M47.34 -25.861 Q52.578 -25.861 57.653 -24.57 Q62.728 -23.279 67.511 -20.586 V-57.867 H27.169 V-20.586 Q31.952 -23.279 37.027 -24.57 Q42.102 -25.861 47.34 -25.861 Z M47.352 -30.346 Q52.123 -30.346 55.452 -33.686 Q58.781 -37.026 58.781 -41.798 Q58.781 -46.57 55.44 -49.898 Q52.1 -53.227 47.328 -53.227 Q42.557 -53.227 39.228 -49.887 Q35.9 -46.547 35.9 -41.775 Q35.9 -37.003 39.24 -33.674 Q42.58 -30.346 47.352 -30.346 Z M47.34 -36.954 Q45.328 -36.954 43.918 -38.364 Q42.507 -39.774 42.507 -41.786 Q42.507 -43.798 43.918 -45.209 Q45.328 -46.619 47.34 -46.619 Q49.352 -46.619 50.762 -45.209 Q52.173 -43.798 52.173 -41.786 Q52.173 -39.774 50.762 -38.364 Q49.352 -36.954 47.34 -36.954 Z"/></g><g id="Medium-S" transform="matrix(1 0 0 1 1701.85 696)"><path d="M18.994 7.121 V-77.581 H75.686 V7.121 H18.994 Z M26.687 -5.503 V-0.572 H67.993 V-5.503 H26.687 Z M26.687 -64.957 H67.993 V-69.888 H26.687 V-64.957 Z M47.389 -19.253 Q41.782 -19.253 36.602 -17.438 Q31.421 -15.623 26.785 -12.463 V-12.111 H67.895 V-12.463 Q63.357 -15.702 58.176 -17.477 Q52.996 -19.253 47.389 -19.253 Z M47.34 -25.861 Q52.771 -25.861 57.99 -24.49 Q63.21 -23.118 67.993 -20.329 V-58.349 H26.687 V-20.329 Q31.47 -23.118 36.69 -24.49 Q41.909 -25.861 47.34 -25.861 Z M47.352 -30.603 Q52.123 -30.603 55.452 -33.943 Q58.781 -37.284 58.781 -42.055 Q58.781 -46.827 55.44 -50.156 Q52.1 -53.484 47.328 -53.484 Q42.557 -53.484 39.228 -50.144 Q35.9 -46.804 35.9 -42.032 Q35.9 -37.26 39.24 -33.932 Q42.58 -30.603 47.352 -30.603 Z M47.34 -37.211 Q45.328 -37.211 43.918 -38.621 Q42.507 -40.032 42.507 -42.044 Q42.507 -44.056 43.918 -45.466 Q45.328 -46.876 47.34 -46.876 Q49.352 -46.876 50.762 -45.466 Q52.173 -44.056 52.173 -42.044 Q52.173 -40.032 50.762 -38.621 Q49.352 -37.211 47.34 -37.211 Z"/></g><g id="Regular-S" transform="matrix(1 0 0 1 1405.73 696)"><path d="M19.725 6.39 V-76.85 H74.955 V6.39 H19.725 Z M26.333 -5.149 V-0.218 H68.347 V-5.149 H26.333 Z M26.333 -65.311 H68.347 V-70.242 H26.333 V-65.311 Z M47.389 -19.253 Q41.688 -19.253 36.377 -17.379 Q31.067 -15.505 26.431 -12.25 V-11.757 H68.249 V-12.25 Q63.71 -15.584 58.4 -17.418 Q53.091 -19.253 47.389 -19.253 Z M47.34 -25.861 Q52.912 -25.861 58.238 -24.431 Q63.564 -23 68.347 -20.14 V-58.703 H26.333 V-20.14 Q31.116 -23 36.442 -24.431 Q41.768 -25.861 47.34 -25.861 Z M47.352 -30.792 Q52.123 -30.792 55.452 -34.132 Q58.781 -37.472 58.781 -42.244 Q58.781 -47.016 55.44 -50.344 Q52.1 -53.673 47.328 -53.673 Q42.557 -53.673 39.228 -50.333 Q35.9 -46.993 35.9 -42.221 Q35.9 -37.449 39.24 -34.12 Q42.58 -30.792 47.352 -30.792 Z M47.34 -37.4 Q45.328 -37.4 43.918 -38.81 Q42.507 -40.22 42.507 -42.232 Q42.507 -44.244 43.918 -45.655 Q45.328 -47.065 47.34 -47.065 Q49.352 -47.065 50.762 -45.655 Q52.173 -44.244 52.173 -42.232 Q52.173 -40.22 50.762 -38.81 Q49.352 -37.4 47.34 -37.4 Z"/></g><g id="Light-S" transform="matrix(1 0 0 1 1109.75 696)"><path d="M21.546 4.607 V-75.067 H73.134 V4.607 H21.546 Z M26.276 -6.003 V-0.123 H68.404 V-6.003 H26.276 Z M26.276 -64.457 H68.404 V-70.337 H26.276 V-64.457 Z M47.393 -21.112 Q41.677 -21.112 36.353 -19.238 Q31.029 -17.364 26.375 -14.09 V-10.733 H68.305 V-14.09 Q63.756 -17.443 58.432 -19.277 Q53.109 -21.112 47.393 -21.112 Z M47.34 -25.849 Q52.928 -25.849 58.268 -24.358 Q63.608 -22.867 68.404 -19.894 V-59.727 H26.276 V-19.894 Q31.072 -22.867 36.412 -24.358 Q41.752 -25.849 47.34 -25.849 Z M47.352 -31.721 Q51.744 -31.721 54.807 -34.796 Q57.87 -37.871 57.87 -42.263 Q57.87 -46.655 54.795 -49.718 Q51.721 -52.781 47.328 -52.781 Q42.936 -52.781 39.873 -49.707 Q36.81 -46.632 36.81 -42.24 Q36.81 -37.847 39.885 -34.784 Q42.959 -31.721 47.352 -31.721 Z M47.34 -36.451 Q44.93 -36.451 43.235 -38.146 Q41.54 -39.841 41.54 -42.251 Q41.54 -44.662 43.235 -46.356 Q44.93 -48.051 47.34 -48.051 Q49.75 -48.051 51.445 -46.356 Q53.14 -44.662 53.14 -42.251 Q53.14 -39.841 51.445 -38.146 Q49.75 -36.451 47.34 -36.451 Z"/></g><g id="Thin-S" transform="matrix(1 0 0 1 814.015 696)"><path d="M23.367 2.824 V-73.284 H71.313 V2.824 H23.367 Z M26.219 -6.856 V-0.028 H68.461 V-6.856 H26.219 Z M26.219 -63.604 H68.461 V-70.432 H26.219 V-63.604 Z M47.397 -22.97 Q41.666 -22.97 36.329 -21.096 Q30.991 -19.222 26.318 -15.93 V-9.709 H68.362 V-15.93 Q63.801 -19.301 58.464 -21.136 Q53.127 -22.97 47.397 -22.97 Z M47.34 -25.838 Q52.943 -25.838 58.298 -24.285 Q63.652 -22.733 68.461 -19.647 V-60.751 H26.219 V-19.647 Q31.028 -22.733 36.382 -24.285 Q41.737 -25.838 47.34 -25.838 Z M47.352 -32.651 Q51.365 -32.651 54.162 -35.46 Q56.96 -38.269 56.96 -42.282 Q56.96 -46.295 54.151 -49.093 Q51.341 -51.89 47.328 -51.89 Q43.315 -51.89 40.518 -49.081 Q37.72 -46.272 37.72 -42.259 Q37.72 -38.246 40.529 -35.448 Q43.339 -32.651 47.352 -32.651 Z M47.34 -35.503 Q44.531 -35.503 42.552 -37.482 Q40.573 -39.462 40.573 -42.27 Q40.573 -45.079 42.552 -47.058 Q44.531 -49.037 47.34 -49.037 Q50.149 -49.037 52.128 -47.058 Q54.107 -45.079 54.107 -42.27 Q54.107 -39.462 52.128 -37.482 Q50.149 -35.503 47.34 -35.503 Z"/></g><g id="Ultralight-S" transform="matrix(1 0 0 1 517.792 696)"><path d="M24.459 1.754 V-72.214 H70.221 V1.754 H24.459 Z M26.185 -7.368 V0.028 H68.495 V-7.368 H26.185 Z M26.185 -63.092 H68.495 V-70.488 H26.185 V-63.092 Z M47.399 -24.085 Q41.66 -24.085 36.314 -22.211 Q30.968 -20.338 26.284 -17.034 V-9.094 H68.396 V-17.034 Q63.828 -20.417 58.483 -22.251 Q53.137 -24.085 47.399 -24.085 Z M47.34 -25.831 Q52.952 -25.831 58.315 -24.241 Q63.678 -22.652 68.495 -19.499 V-61.366 H26.185 V-19.499 Q31.001 -22.652 36.365 -24.241 Q41.728 -25.831 47.34 -25.831 Z M47.352 -33.208 Q51.137 -33.208 53.775 -35.858 Q56.413 -38.508 56.413 -42.293 Q56.413 -46.079 53.764 -48.717 Q51.114 -51.355 47.328 -51.355 Q43.543 -51.355 40.905 -48.705 Q38.267 -46.056 38.267 -42.27 Q38.267 -38.485 40.916 -35.846 Q43.566 -33.208 47.352 -33.208 Z M47.34 -34.934 Q44.292 -34.934 42.142 -37.084 Q39.992 -39.234 39.992 -42.282 Q39.992 -45.329 42.142 -47.479 Q44.292 -49.629 47.34 -49.629 Q50.388 -49.629 52.538 -47.479 Q54.688 -45.329 54.688 -42.282 Q54.688 -39.234 52.538 -37.084 Q50.388 -34.934 47.34 -34.934 Z"/></g></g></svg>