<svg xmlns="http://www.w3.org/2000/svg" version="1.1" width="3300" height="2000"><g id="Notes"><style>
    text {
      font-family: monospace;
      text-anchor: middle;
    }
    text.emphasis {
      font-weight:bold;
    }
    text.lanchor {
      text-anchor: start;
    }
  </style><rect height="2200" id="artboard" fill="white" width="3300" x="0" y="0"/><line id="" style="fill:none;stroke:black;stroke-width:0.5;" x1="263" x2="3036" y1="292" y2="292"/><text class="lanchor emphasis" transform="matrix(1 0 0 1 263 322)">Weight/Scale Variations</text><text transform="matrix(1 0 0 1 559.711 322)">Ultralight</text><text transform="matrix(1 0 0 1 856.422 322)">Thin</text><text transform="matrix(1 0 0 1 1153.13 322)">Light</text><text transform="matrix(1 0 0 1 1449.84 322)">Regular</text><text transform="matrix(1 0 0 1 1746.56 322)">Medium</text><text transform="matrix(1 0 0 1 2043.27 322)">Semibold</text><text transform="matrix(1 0 0 1 2339.98 322)">Bold</text><text transform="matrix(1 0 0 1 2636.69 322)">Heavy</text><text transform="matrix(1 0 0 1 2933.4 322)">Black</text><text id="template-version" style="text-anchor: end;" transform="matrix(1 0 0 1 3036 1933)">Template v.1.0</text><text class="lanchor" transform="matrix(1 0 0 1 263 726)">Small</text><text class="lanchor" transform="matrix(1 0 0 1 263 1156)">Medium</text><text class="lanchor" transform="matrix(1 0 0 1 263 1586)">Large</text></g><g id="Guides"><g id="H-reference" style="fill:#27AAE1;stroke:none;" transform="matrix(1 0 0 1 339 696)"><path d="M 54.9316 0 L 57.666 0 L 30.5664 -70.459 L 28.0762 -70.459 L 0.976562 0 L 3.66211 0 L 12.9395 -24.4629 L 45.7031 -24.4629 Z M 29.1992 -67.0898 L 29.4434 -67.0898 L 44.8242 -26.709 L 13.8184 -26.709 Z"/></g><line id="Baseline-S" style="fill:none;stroke:#27AAE1;opacity:1;stroke-width:0.577;" x1="263" x2="3036" y1="696" y2="696"/><line id="Capline-S" style="fill:none;stroke:#27AAE1;opacity:1;stroke-width:0.577;" x1="263" x2="3036" y1="625.541" y2="625.541"/><g id="H-reference" style="fill:#27AAE1;stroke:none;" transform="matrix(1 0 0 1 339 1126)"><path d="M 54.9316 0 L 57.666 0 L 30.5664 -70.459 L 28.0762 -70.459 L 0.976562 0 L 3.66211 0 L 12.9395 -24.4629 L 45.7031 -24.4629 Z M 29.1992 -67.0898 L 29.4434 -67.0898 L 44.8242 -26.709 L 13.8184 -26.709 Z"/></g><line id="Baseline-M" style="fill:none;stroke:#27AAE1;opacity:1;stroke-width:0.577;" x1="263" x2="3036" y1="1126" y2="1126"/><line id="Capline-M" style="fill:none;stroke:#27AAE1;opacity:1;stroke-width:0.577;" x1="263" x2="3036" y1="1055.54" y2="1055.54"/><g id="H-reference" style="fill:#27AAE1;stroke:none;" transform="matrix(1 0 0 1 339 1556)"><path d="M 54.9316 0 L 57.666 0 L 30.5664 -70.459 L 28.0762 -70.459 L 0.976562 0 L 3.66211 0 L 12.9395 -24.4629 L 45.7031 -24.4629 Z M 29.1992 -67.0898 L 29.4434 -67.0898 L 44.8242 -26.709 L 13.8184 -26.709 Z"/></g><line id="Baseline-L" style="fill:none;stroke:#27AAE1;opacity:1;stroke-width:0.577;" x1="263" x2="3036" y1="1556" y2="1556"/><line id="Capline-L" style="fill:none;stroke:#27AAE1;opacity:1;stroke-width:0.577;" x1="263" x2="3036" y1="1485.54" y2="1485.54"/><rect height="119.336" id="left-margin" style="fill:darkred;stroke:none;opacity:0.4;" width="12.4512" x="1394.06" y="1030.79"/><rect height="119.336" id="right-margin" style="fill:darkgreen;stroke:none;opacity:0.4;" width="12.4512" x="1502.5112" y="1030.79"/><rect x="1406.5112" y="1045" width="96" height="96" fill="none" stroke="blue" stroke-dasharray="5"/><rect x="1394.06" y="1030.79" width="120.9024" height="119.336" fill="none" stroke="blue"/></g><g id="Symbols"><g id="Bold-L" transform="matrix(1 0 0 1 2266 1556)"><path d="M129.161 23.223 H108.199 Q105.582 23.223 103.787 21.53 Q101.991 19.837 101.991 17.207 Q101.991 14.578 103.787 12.733 Q105.582 10.888 108.199 10.888 H129.161 L123.195 4.599 Q121.421 2.825 121.381 0.395 Q121.341 -2.036 123.186 -3.994 Q125.127 -5.882 127.507 -5.882 Q129.887 -5.882 131.822 -4.028 L147.544 11.774 Q149.721 14.047 149.721 17.103 Q149.721 20.159 147.544 22.336 L131.741 38.139 Q129.887 40.087 127.468 40.04 Q125.049 39.993 123.195 38.139 Q121.26 36.446 121.26 34.008 Q121.26 31.571 123.034 29.593 L129.161 23.223 Z M71.031 -28.861 V-8.866 Q71.031 -6.157 72.891 -4.286 Q74.752 -2.416 77.447 -2.416 Q80.061 -2.416 81.955 -4.286 Q83.85 -6.157 83.85 -8.866 V-28.861 H103.845 Q106.473 -28.861 108.344 -30.721 Q110.214 -32.582 110.214 -35.277 Q110.214 -37.891 108.344 -39.785 Q106.473 -41.68 103.845 -41.68 H83.85 V-61.675 Q83.85 -64.303 81.989 -66.174 Q80.129 -68.044 77.515 -68.044 Q74.82 -68.044 72.925 -66.174 Q71.031 -64.303 71.031 -61.675 V-41.68 H51.036 Q48.327 -41.68 46.456 -39.819 Q44.586 -37.959 44.586 -35.345 Q44.586 -32.65 46.456 -30.755 Q48.327 -28.861 51.036 -28.861 H71.031 Z M30.799 26.126 Q24.663 26.126 20.354 21.816 Q16.044 17.507 16.044 11.371 V-81.831 Q16.044 -88.033 20.354 -92.39 Q24.663 -96.747 30.799 -96.747 H124.001 Q130.203 -96.747 134.56 -92.39 Q138.917 -88.033 138.917 -81.831 V-24.668 Q138.917 -21.201 136.256 -19.186 Q133.596 -17.17 130.371 -17.734 Q122.55 -18.46 115.334 -15.638 Q108.118 -12.816 102.716 -7.253 Q98.04 -2.416 95.258 4.075 Q92.477 10.565 92.719 17.66 Q92.799 21.169 90.596 23.647 Q88.392 26.126 85.14 26.126 H30.799 Z"/></g><g id="Semibold-L" transform="matrix(1 0 0 1 1970.27 1556)"><path d="M129.652 20.419 H107.007 Q104.652 20.419 103.076 18.901 Q101.5 17.383 101.5 15.021 Q101.5 12.658 103.076 11.037 Q104.652 9.415 107.007 9.415 H129.652 L122.494 2.005 Q120.931 0.371 120.89 -1.791 Q120.85 -3.953 122.489 -5.691 Q124.217 -7.355 126.351 -7.355 Q128.485 -7.355 130.21 -5.711 L146.352 10.512 Q148.178 12.428 148.178 14.962 Q148.178 17.495 146.352 19.322 L130.129 35.545 Q128.485 37.277 126.311 37.233 Q124.138 37.189 122.494 35.545 Q120.769 33.992 120.804 31.825 Q120.839 29.659 122.403 27.91 L129.652 20.419 Z M71.802 -29.632 V-8.515 Q71.802 -6.108 73.432 -4.472 Q75.062 -2.836 77.461 -2.836 Q79.78 -2.836 81.429 -4.472 Q83.079 -6.108 83.079 -8.515 V-29.632 H104.196 Q106.522 -29.632 108.158 -31.262 Q109.794 -32.892 109.794 -35.291 Q109.794 -37.61 108.158 -39.259 Q106.522 -40.909 104.196 -40.909 H83.079 V-62.026 Q83.079 -64.352 81.449 -65.988 Q79.819 -67.624 77.5 -67.624 Q75.1 -67.624 73.451 -65.988 Q71.802 -64.352 71.802 -62.026 V-40.909 H50.685 Q48.278 -40.909 46.642 -39.279 Q45.006 -37.649 45.006 -35.33 Q45.006 -32.93 46.642 -31.281 Q48.278 -29.632 50.685 -29.632 H71.802 Z M30.168 24.373 Q25.087 24.373 21.442 20.728 Q17.797 17.083 17.797 12.002 V-82.462 Q17.797 -87.58 21.442 -91.252 Q25.087 -94.924 30.168 -94.924 H124.632 Q129.75 -94.924 133.422 -91.252 Q137.094 -87.58 137.094 -82.462 V-24.528 Q137.094 -21.622 134.924 -19.957 Q132.754 -18.292 130.02 -18.786 Q122.199 -19.722 114.913 -17.005 Q107.627 -14.288 102.226 -8.655 Q97.339 -3.537 94.663 3.233 Q91.986 10.004 92.649 17.239 Q92.799 20.169 91.01 22.271 Q89.221 24.373 86.472 24.373 H30.168 Z"/></g><g id="Medium-L" transform="matrix(1 0 0 1 1674.31 1556)"><path d="M130.02 18.315 H106.113 Q103.954 18.315 102.543 16.929 Q101.132 15.543 101.132 13.38 Q101.132 11.218 102.543 9.764 Q103.954 8.311 106.113 8.311 H130.02 L121.968 0.059 Q120.562 -1.469 120.522 -3.431 Q120.482 -5.392 121.966 -6.964 Q123.534 -8.459 125.484 -8.459 Q127.433 -8.459 129 -6.973 L145.458 9.566 Q147.021 11.214 147.021 13.355 Q147.021 15.497 145.458 17.061 L128.919 33.599 Q127.433 35.169 125.444 35.127 Q123.454 35.085 121.968 33.599 Q120.401 32.152 120.462 30.188 Q120.524 28.225 121.93 26.648 L130.02 18.315 Z M72.38 -30.21 V-8.252 Q72.38 -6.071 73.837 -4.611 Q75.295 -3.152 77.473 -3.152 Q79.57 -3.152 81.035 -4.611 Q82.5 -6.071 82.5 -8.252 V-30.21 H104.458 Q106.559 -30.21 108.019 -31.667 Q109.478 -33.125 109.478 -35.303 Q109.478 -37.4 108.019 -38.865 Q106.559 -40.33 104.458 -40.33 H82.5 V-62.288 Q82.5 -64.389 81.043 -65.849 Q79.586 -67.308 77.489 -67.308 Q75.311 -67.308 73.845 -65.849 Q72.38 -64.389 72.38 -62.288 V-40.33 H50.422 Q48.241 -40.33 46.781 -38.873 Q45.322 -37.416 45.322 -35.319 Q45.322 -33.141 46.781 -31.675 Q48.241 -30.21 50.422 -30.21 H72.38 Z M29.695 23.058 Q25.405 23.058 22.258 19.912 Q19.112 16.765 19.112 12.475 V-82.935 Q19.112 -87.24 22.258 -90.399 Q25.405 -93.557 29.695 -93.557 H125.105 Q129.41 -93.557 132.569 -90.399 Q135.727 -87.24 135.727 -82.935 V-24.423 Q135.727 -21.937 133.925 -20.535 Q132.123 -19.133 129.757 -19.575 Q121.937 -20.668 114.598 -18.031 Q107.259 -15.393 101.857 -9.707 Q96.813 -4.379 94.216 2.602 Q91.618 9.583 92.596 16.924 Q92.799 19.419 91.322 21.239 Q89.844 23.058 87.471 23.058 H29.695 Z"/></g><g id="Regular-L" transform="matrix(1 0 0 1 1378.56 1556)"><path d="M130.29 16.773 H105.457 Q103.442 16.773 102.152 15.483 Q100.862 14.193 100.862 12.178 Q100.862 10.162 102.152 8.832 Q103.442 7.501 105.457 7.501 H130.29 L121.583 -1.367 Q120.293 -2.819 120.252 -4.633 Q120.212 -6.447 121.583 -7.898 Q123.034 -9.269 124.848 -9.269 Q126.662 -9.269 128.113 -7.898 L144.803 8.872 Q146.173 10.323 146.173 12.178 Q146.173 14.032 144.803 15.403 L128.032 32.173 Q126.662 33.624 124.808 33.583 Q122.953 33.543 121.583 32.173 Q120.131 30.802 120.212 28.988 Q120.293 27.174 121.583 25.723 L130.29 16.773 Z M72.804 -30.634 V-8.059 Q72.804 -6.044 74.135 -4.713 Q75.465 -3.383 77.481 -3.383 Q79.416 -3.383 80.746 -4.713 Q82.076 -6.044 82.076 -8.059 V-30.634 H104.651 Q106.586 -30.634 107.917 -31.965 Q109.247 -33.295 109.247 -35.311 Q109.247 -37.246 107.917 -38.576 Q106.586 -39.906 104.651 -39.906 H82.076 V-62.481 Q82.076 -64.416 80.746 -65.747 Q79.416 -67.077 77.481 -67.077 Q75.465 -67.077 74.135 -65.747 Q72.804 -64.416 72.804 -62.481 V-39.906 H50.229 Q48.214 -39.906 46.883 -38.576 Q45.553 -37.246 45.553 -35.311 Q45.553 -33.295 46.883 -31.965 Q48.214 -30.634 50.229 -30.634 H72.804 Z M29.348 22.094 Q25.639 22.094 22.857 19.313 Q20.076 16.531 20.076 12.823 V-83.282 Q20.076 -86.991 22.857 -89.773 Q25.639 -92.554 29.348 -92.554 H125.453 Q129.161 -92.554 131.943 -89.773 Q134.724 -86.991 134.724 -83.282 V-24.346 Q134.724 -22.169 133.192 -20.959 Q131.661 -19.75 129.564 -20.153 Q121.744 -21.362 114.367 -18.782 Q106.989 -16.202 101.588 -10.478 Q96.428 -4.996 93.888 2.14 Q91.348 9.275 92.558 16.693 Q92.799 18.869 91.55 20.482 Q90.3 22.094 88.204 22.094 H29.348 Z"/></g><g id="Light-L" transform="matrix(1 0 0 1 1082.77 1556)"><path d="M132.275 15.036 H104.837 Q103.26 15.036 102.309 14.084 Q101.358 13.132 101.358 11.554 Q101.358 9.976 102.309 8.971 Q103.26 7.966 104.837 7.966 H132.275 L121.769 -2.794 Q120.789 -3.842 120.779 -5.241 Q120.77 -6.639 121.769 -7.785 Q122.796 -8.742 124.233 -8.742 Q125.67 -8.742 126.749 -7.774 L142.694 8.314 Q144.002 9.745 144.002 11.563 Q144.002 13.381 142.694 14.689 L126.606 30.777 Q125.607 31.887 124.172 31.816 Q122.736 31.744 121.727 30.735 Q120.627 29.747 120.677 28.352 Q120.727 26.957 121.738 25.909 L132.275 15.036 Z M73.89 -31.72 V-8.432 Q73.89 -6.855 74.898 -5.848 Q75.906 -4.841 77.484 -4.841 Q78.95 -4.841 79.955 -5.848 Q80.96 -6.855 80.96 -8.432 V-31.72 H104.31 Q105.775 -31.72 106.782 -32.728 Q107.789 -33.736 107.789 -35.314 Q107.789 -36.78 106.782 -37.785 Q105.775 -38.79 104.31 -38.79 H80.96 V-62.14 Q80.96 -63.605 79.952 -64.612 Q78.944 -65.619 77.477 -65.619 Q75.899 -65.619 74.894 -64.612 Q73.89 -63.605 73.89 -62.14 V-38.79 H50.602 Q49.025 -38.79 48.018 -37.782 Q47.011 -36.774 47.011 -35.307 Q47.011 -33.729 48.018 -32.724 Q49.025 -31.72 50.602 -31.72 H73.89 Z M32.076 19.148 Q28.413 19.148 25.717 16.453 Q23.022 13.757 23.022 10.094 V-80.554 Q23.022 -84.217 25.717 -86.913 Q28.413 -89.608 32.076 -89.608 H122.724 Q126.387 -89.608 129.083 -86.913 Q131.778 -84.217 131.778 -80.554 V-25.648 Q131.778 -23.657 130.401 -22.479 Q129.025 -21.301 127.145 -21.611 Q119.579 -22.355 112.633 -19.728 Q105.687 -17.102 100.564 -11.719 Q95.559 -6.453 92.973 0.279 Q90.387 7.011 91.1 14.243 Q91.187 16.241 90.041 17.695 Q88.896 19.148 86.994 19.148 H32.076 Z"/></g><g id="Thin-L" transform="matrix(1 0 0 1 787.282 1556)"><path d="M134.259 13.3 H104.217 Q103.079 13.3 102.467 12.686 Q101.854 12.071 101.854 10.931 Q101.854 9.79 102.467 9.111 Q103.079 8.432 104.217 8.432 H134.259 L121.955 -4.22 Q121.285 -4.865 121.306 -5.848 Q121.328 -6.831 121.955 -7.672 Q122.558 -8.214 123.618 -8.214 Q124.677 -8.214 125.384 -7.65 L140.585 7.756 Q141.832 9.167 141.832 10.948 Q141.832 12.729 140.585 13.976 L125.18 29.382 Q124.553 30.151 123.536 30.048 Q122.519 29.946 121.871 29.298 Q121.124 28.693 121.142 27.716 Q121.161 26.74 121.893 26.095 L134.259 13.3 Z M74.975 -32.805 V-8.804 Q74.975 -7.666 75.661 -6.982 Q76.346 -6.298 77.487 -6.298 Q78.485 -6.298 79.164 -6.982 Q79.844 -7.666 79.844 -8.804 V-32.805 H103.969 Q104.964 -32.805 105.648 -33.491 Q106.332 -34.176 106.332 -35.317 Q106.332 -36.315 105.648 -36.994 Q104.964 -37.674 103.969 -37.674 H79.844 V-61.799 Q79.844 -62.794 79.158 -63.478 Q78.472 -64.162 77.474 -64.162 Q76.333 -64.162 75.654 -63.478 Q74.975 -62.794 74.975 -61.799 V-37.674 H50.974 Q49.836 -37.674 49.152 -36.988 Q48.468 -36.302 48.468 -35.304 Q48.468 -34.163 49.152 -33.484 Q49.836 -32.805 50.974 -32.805 H74.975 Z M34.805 16.203 Q31.186 16.203 28.577 13.593 Q25.967 10.984 25.967 7.365 V-77.825 Q25.967 -81.444 28.577 -84.053 Q31.186 -86.663 34.805 -86.663 H119.995 Q123.614 -86.663 126.223 -84.053 Q128.833 -81.444 128.833 -77.825 V-26.95 Q128.833 -25.146 127.611 -23.998 Q126.389 -22.851 124.727 -23.068 Q117.415 -23.347 110.9 -20.674 Q104.385 -18.001 99.541 -12.959 Q94.691 -7.911 92.058 -1.581 Q89.426 4.748 89.643 11.793 Q89.574 13.614 88.533 14.908 Q87.492 16.203 85.785 16.203 H34.805 Z"/></g><g id="Ultralight-L" transform="matrix(1 0 0 1 491.205 1556)"><path d="M135.45 12.258 H103.845 Q102.97 12.258 102.561 11.846 Q102.152 11.435 102.152 10.556 Q102.152 9.678 102.561 9.194 Q102.97 8.711 103.845 8.711 H135.45 L122.066 -5.076 Q121.583 -5.479 121.623 -6.213 Q121.663 -6.947 122.066 -7.604 Q122.416 -7.898 123.249 -7.898 Q124.082 -7.898 124.566 -7.576 L139.32 7.421 Q140.529 8.821 140.529 10.58 Q140.529 12.339 139.32 13.548 L124.324 28.544 Q123.921 29.109 123.155 28.988 Q122.389 28.867 121.958 28.436 Q121.421 28.061 121.421 27.335 Q121.421 26.609 121.986 26.206 L135.45 12.258 Z M75.626 -33.456 V-9.027 Q75.626 -8.152 76.119 -7.662 Q76.611 -7.172 77.489 -7.172 Q78.206 -7.172 78.69 -7.662 Q79.174 -8.152 79.174 -9.027 V-33.456 H103.764 Q104.478 -33.456 104.968 -33.949 Q105.457 -34.441 105.457 -35.319 Q105.457 -36.036 104.968 -36.52 Q104.478 -37.004 103.764 -37.004 H79.174 V-61.594 Q79.174 -62.308 78.681 -62.798 Q78.189 -63.287 77.472 -63.287 Q76.594 -63.287 76.11 -62.798 Q75.626 -62.308 75.626 -61.594 V-37.004 H51.197 Q50.322 -37.004 49.832 -36.511 Q49.343 -36.019 49.343 -35.302 Q49.343 -34.424 49.832 -33.94 Q50.322 -33.456 51.197 -33.456 H75.626 Z M36.443 14.435 Q32.851 14.435 30.293 11.877 Q27.735 9.319 27.735 5.728 V-76.187 Q27.735 -79.779 30.293 -82.337 Q32.851 -84.895 36.443 -84.895 H118.358 Q121.949 -84.895 124.507 -82.337 Q127.065 -79.779 127.065 -76.187 V-27.732 Q127.065 -26.039 125.936 -24.91 Q124.808 -23.781 123.276 -23.942 Q116.117 -23.942 109.86 -21.242 Q103.603 -18.541 98.927 -13.703 Q94.17 -8.785 91.509 -2.698 Q88.849 3.389 88.768 10.323 Q88.607 12.037 87.628 13.236 Q86.649 14.435 85.059 14.435 H36.443 Z"/></g><g id="Bold-M" transform="matrix(1 0 0 1 2281.8 1126)"><path d="M95.5 11.208 H82.75 Q80.188 11.208 78.312 9.333 Q76.438 7.458 76.438 4.895 Q76.438 2.333 78.312 0.458 Q80.188 -1.417 82.75 -1.417 H95.5 L93.25 -3.73 Q91.438 -5.605 91.438 -8.105 Q91.438 -10.605 93.375 -12.542 Q95.25 -14.417 97.781 -14.417 Q100.312 -14.417 102.188 -12.542 L114.125 -0.542 Q116.438 1.77 116.438 4.895 Q116.438 8.02 114.125 10.333 L102.125 22.333 Q100.312 24.145 97.781 24.176 Q95.25 24.208 93.312 22.27 Q91.5 20.458 91.438 17.926 Q91.375 15.395 93.188 13.52 L95.5 11.208 Z M53.5 -28.73 V-16.417 Q53.5 -13.73 55.438 -11.792 Q57.375 -9.855 60.062 -9.855 Q62.75 -9.855 64.688 -11.792 Q66.625 -13.73 66.625 -16.417 V-28.73 H78.812 Q81.5 -28.73 83.438 -30.667 Q85.375 -32.605 85.375 -35.292 Q85.375 -37.98 83.438 -39.917 Q81.5 -41.855 78.812 -41.855 H66.625 V-54.042 Q66.625 -56.73 64.688 -58.667 Q62.75 -60.605 60.062 -60.605 Q57.375 -60.605 55.438 -58.667 Q53.5 -56.73 53.5 -54.042 V-41.855 H41.188 Q38.5 -41.855 36.562 -39.917 Q34.625 -37.98 34.625 -35.292 Q34.625 -32.605 36.562 -30.667 Q38.5 -28.73 41.188 -28.73 H53.5 Z M27 12.895 Q20.625 12.895 16.25 8.52 Q11.875 4.145 11.875 -2.23 V-68.23 Q11.875 -74.605 16.25 -78.98 Q20.625 -83.355 27 -83.355 H93 Q99.375 -83.355 103.75 -78.98 Q108.125 -74.605 108.125 -68.23 V-33.542 Q108.125 -30.105 105.438 -28.042 Q102.75 -25.98 99.312 -26.48 Q92.562 -26.917 86.375 -24.48 Q80.188 -22.042 75.562 -17.417 Q71.5 -13.355 69 -7.73 Q66.5 -2.105 66.312 4.333 Q66.438 7.77 64.25 10.333 Q62.062 12.895 58.812 12.895 H27 Z"/></g><g id="Semibold-M" transform="matrix(1 0 0 1 1985.97 1126)"><path d="M95.989 8.273 H81.554 Q79.264 8.273 77.606 6.615 Q75.948 4.958 75.948 2.667 Q75.948 0.376 77.606 -1.281 Q79.264 -2.939 81.554 -2.939 H95.989 L92.543 -6.447 Q90.948 -8.105 90.948 -10.333 Q90.948 -12.561 92.668 -14.281 Q94.326 -15.939 96.586 -15.939 Q98.845 -15.939 100.503 -14.281 L112.875 -1.847 Q114.807 0.085 114.807 2.667 Q114.807 5.249 112.875 7.181 L100.44 19.615 Q98.845 21.21 96.586 21.242 Q94.326 21.273 92.606 19.553 Q91.011 17.958 90.976 15.698 Q90.94 13.439 92.535 11.781 L95.989 8.273 Z M54.315 -29.545 V-16.037 Q54.315 -13.676 56.008 -11.983 Q57.701 -10.29 60.062 -10.29 Q62.424 -10.29 64.117 -11.983 Q65.81 -13.676 65.81 -16.037 V-29.545 H79.193 Q81.554 -29.545 83.247 -31.238 Q84.94 -32.931 84.94 -35.292 Q84.94 -37.654 83.247 -39.347 Q81.554 -41.04 79.193 -41.04 H65.81 V-54.423 Q65.81 -56.784 64.117 -58.477 Q62.424 -60.17 60.062 -60.17 Q57.701 -60.17 56.008 -58.477 Q54.315 -56.784 54.315 -54.423 V-41.04 H40.807 Q38.446 -41.04 36.753 -39.347 Q35.06 -37.654 35.06 -35.292 Q35.06 -32.931 36.753 -31.238 Q38.446 -29.545 40.807 -29.545 H54.315 Z M26.348 11.047 Q21.06 11.047 17.391 7.379 Q13.723 3.71 13.723 -1.578 V-68.882 Q13.723 -74.17 17.391 -77.839 Q21.06 -81.507 26.348 -81.507 H93.652 Q98.94 -81.507 102.609 -77.839 Q106.277 -74.17 106.277 -68.882 V-33.434 Q106.277 -30.594 104.052 -28.858 Q101.826 -27.121 98.986 -27.567 Q92.236 -28.167 85.995 -25.866 Q79.753 -23.564 75.073 -18.885 Q70.739 -14.551 68.375 -8.599 Q66.011 -2.648 66.258 3.898 Q66.438 6.738 64.658 8.892 Q62.878 11.047 60.171 11.047 H26.348 Z"/></g><g id="Medium-M" transform="matrix(1 0 0 1 1689.91 1126)"><path d="M96.356 6.072 H80.658 Q78.571 6.072 77.076 4.577 Q75.582 3.083 75.582 0.996 Q75.582 -1.091 77.076 -2.586 Q78.571 -4.08 80.658 -4.08 H96.356 L92.014 -8.485 Q90.582 -9.98 90.582 -12.004 Q90.582 -14.029 92.139 -15.586 Q93.633 -17.08 95.689 -17.08 Q97.745 -17.08 99.239 -15.586 L111.938 -2.825 Q113.584 -1.178 113.584 0.996 Q113.584 3.17 111.938 4.816 L99.177 17.577 Q97.745 19.009 95.689 19.04 Q93.633 19.072 92.076 17.515 Q90.644 16.083 90.629 14.027 Q90.614 11.971 92.046 10.477 L96.356 6.072 Z M54.927 -30.157 V-15.752 Q54.927 -13.635 56.436 -12.125 Q57.946 -10.616 60.062 -10.616 Q62.179 -10.616 63.689 -12.125 Q65.198 -13.635 65.198 -15.752 V-30.157 H79.478 Q81.595 -30.157 83.105 -31.666 Q84.614 -33.176 84.614 -35.292 Q84.614 -37.409 83.105 -38.919 Q81.595 -40.428 79.478 -40.428 H65.198 V-54.708 Q65.198 -56.825 63.689 -58.335 Q62.179 -59.844 60.062 -59.844 Q57.946 -59.844 56.436 -58.335 Q54.927 -56.825 54.927 -54.708 V-40.428 H40.522 Q38.405 -40.428 36.895 -38.919 Q35.386 -37.409 35.386 -35.292 Q35.386 -33.176 36.895 -31.666 Q38.405 -30.157 40.522 -30.157 H54.927 Z M25.859 9.661 Q21.386 9.661 18.247 6.523 Q15.109 3.384 15.109 -1.089 V-69.371 Q15.109 -73.844 18.247 -76.983 Q21.386 -80.121 25.859 -80.121 H94.141 Q98.614 -80.121 101.753 -76.983 Q104.891 -73.844 104.891 -69.371 V-33.352 Q104.891 -30.961 103.012 -29.469 Q101.133 -27.977 98.742 -28.382 Q91.992 -29.105 85.709 -26.905 Q79.427 -24.705 74.707 -19.985 Q70.168 -15.447 67.906 -9.252 Q65.644 -3.056 66.217 3.572 Q66.438 5.963 64.963 7.812 Q63.489 9.661 61.19 9.661 H25.859 Z"/></g><g id="Regular-M" transform="matrix(1 0 0 1 1394.06 1126)"><path d="M96.625 4.458 H80 Q78.062 4.458 76.688 3.083 Q75.312 1.708 75.312 -0.23 Q75.312 -2.167 76.688 -3.542 Q78.062 -4.917 80 -4.917 H96.625 L91.625 -9.98 Q90.312 -11.355 90.312 -13.23 Q90.312 -15.105 91.75 -16.542 Q93.125 -17.917 95.031 -17.917 Q96.938 -17.917 98.312 -16.542 L111.25 -3.542 Q112.688 -2.105 112.688 -0.23 Q112.688 1.645 111.25 3.083 L98.25 16.083 Q96.938 17.395 95.031 17.426 Q93.125 17.458 91.688 16.02 Q90.375 14.708 90.375 12.801 Q90.375 10.895 91.688 9.52 L96.625 4.458 Z M55.375 -30.605 V-15.542 Q55.375 -13.605 56.75 -12.23 Q58.125 -10.855 60.062 -10.855 Q62 -10.855 63.375 -12.23 Q64.75 -13.605 64.75 -15.542 V-30.605 H79.688 Q81.625 -30.605 83 -31.98 Q84.375 -33.355 84.375 -35.292 Q84.375 -37.23 83 -38.605 Q81.625 -39.98 79.688 -39.98 H64.75 V-54.917 Q64.75 -56.855 63.375 -58.23 Q62 -59.605 60.062 -59.605 Q58.125 -59.605 56.75 -58.23 Q55.375 -56.855 55.375 -54.917 V-39.98 H40.312 Q38.375 -39.98 37 -38.605 Q35.625 -37.23 35.625 -35.292 Q35.625 -33.355 37 -31.98 Q38.375 -30.605 40.312 -30.605 H55.375 Z M25.5 8.645 Q21.625 8.645 18.875 5.895 Q16.125 3.145 16.125 -0.73 V-69.73 Q16.125 -73.605 18.875 -76.355 Q21.625 -79.105 25.5 -79.105 H94.5 Q98.375 -79.105 101.125 -76.355 Q103.875 -73.605 103.875 -69.73 V-33.292 Q103.875 -31.23 102.25 -29.917 Q100.625 -28.605 98.562 -28.98 Q91.812 -29.792 85.5 -27.667 Q79.188 -25.542 74.438 -20.792 Q69.75 -16.105 67.562 -9.73 Q65.375 -3.355 66.188 3.333 Q66.438 5.395 65.188 7.02 Q63.938 8.645 61.938 8.645 H25.5 Z"/></g><g id="Light-M" transform="matrix(1 0 0 1 1098.18 1126)"><path d="M99.462 3.256 H80 Q78.546 3.256 77.53 2.239 Q76.514 1.223 76.514 -0.232 Q76.514 -1.687 77.53 -2.713 Q78.546 -3.739 80 -3.739 H99.462 L92.49 -10.845 Q91.514 -11.86 91.538 -13.254 Q91.563 -14.648 92.615 -15.733 Q93.614 -16.739 95.035 -16.739 Q96.457 -16.739 97.495 -15.725 L109.856 -3.254 Q111.149 -1.937 111.149 -0.23 Q111.149 1.477 109.856 2.77 L97.385 15.241 Q96.409 16.241 94.995 16.224 Q93.582 16.207 92.52 15.146 Q91.529 14.179 91.529 12.789 Q91.529 11.4 92.529 10.386 L99.462 3.256 Z M56.553 -31.783 V-15.494 Q56.553 -14.04 57.581 -13.012 Q58.609 -11.985 60.064 -11.985 Q61.495 -11.985 62.522 -13.012 Q63.548 -14.04 63.548 -15.494 V-31.783 H79.76 Q81.19 -31.783 82.218 -32.811 Q83.245 -33.839 83.245 -35.294 Q83.245 -36.725 82.218 -37.752 Q81.19 -38.778 79.76 -38.778 H63.548 V-54.99 Q63.548 -56.42 62.52 -57.447 Q61.492 -58.475 60.061 -58.475 Q58.606 -58.475 57.579 -57.447 Q56.553 -56.42 56.553 -54.99 V-38.778 H40.264 Q38.81 -38.778 37.782 -37.75 Q36.755 -36.722 36.755 -35.291 Q36.755 -33.836 37.782 -32.809 Q38.81 -31.783 40.264 -31.783 H56.553 Z M26.942 6.361 Q23.38 6.361 20.894 3.876 Q18.409 1.39 18.409 -2.172 V-68.288 Q18.409 -71.85 20.894 -74.336 Q23.38 -76.821 26.942 -76.821 H93.058 Q96.62 -76.821 99.106 -74.336 Q101.591 -71.85 101.591 -68.288 V-32.379 Q101.591 -30.605 100.207 -29.437 Q98.822 -28.268 97.072 -28.523 Q90.755 -28.975 84.995 -26.838 Q79.236 -24.701 74.894 -20.36 Q70.567 -16.033 68.392 -10.259 Q66.216 -4.485 66.692 1.818 Q66.822 3.592 65.716 4.977 Q64.611 6.361 62.875 6.361 H26.942 Z"/></g><g id="Thin-M" transform="matrix(1 0 0 1 802.565 1126)"><path d="M102.298 2.054 H80 Q79.029 2.054 78.373 1.397 Q77.716 0.739 77.716 -0.233 Q77.716 -1.206 78.373 -1.884 Q79.029 -2.562 80 -2.562 H102.298 L93.356 -11.711 Q92.716 -12.365 92.764 -13.278 Q92.812 -14.191 93.481 -14.925 Q94.103 -15.562 95.039 -15.562 Q95.976 -15.562 96.678 -14.908 L108.462 -2.966 Q109.611 -1.768 109.611 -0.23 Q109.611 1.309 108.462 2.458 L96.519 14.4 Q95.88 15.087 94.959 15.022 Q94.038 14.958 93.353 14.273 Q92.683 13.65 92.683 12.777 Q92.683 11.905 93.37 11.251 L102.298 2.054 Z M57.731 -32.961 V-15.446 Q57.731 -14.475 58.412 -13.795 Q59.093 -13.115 60.066 -13.115 Q60.99 -13.115 61.668 -13.795 Q62.346 -14.475 62.346 -15.446 V-32.961 H79.832 Q80.755 -32.961 81.435 -33.642 Q82.115 -34.323 82.115 -35.296 Q82.115 -36.22 81.435 -36.898 Q80.755 -37.576 79.832 -37.576 H62.346 V-55.062 Q62.346 -55.985 61.665 -56.665 Q60.984 -57.345 60.059 -57.345 Q59.087 -57.345 58.409 -56.665 Q57.731 -55.985 57.731 -55.062 V-37.576 H40.216 Q39.245 -37.576 38.565 -36.895 Q37.885 -36.214 37.885 -35.289 Q37.885 -34.316 38.565 -33.639 Q39.245 -32.961 40.216 -32.961 H57.731 Z M28.385 4.078 Q25.135 4.078 22.913 1.857 Q20.692 -0.365 20.692 -3.615 V-66.845 Q20.692 -70.095 22.913 -72.317 Q25.135 -74.538 28.385 -74.538 H91.615 Q94.865 -74.538 97.087 -72.317 Q99.308 -70.095 99.308 -66.845 V-31.466 Q99.308 -29.98 98.163 -28.956 Q97.019 -27.932 95.582 -28.066 Q89.697 -28.158 84.49 -26.009 Q79.284 -23.86 75.351 -19.927 Q71.385 -15.961 69.221 -10.788 Q67.058 -5.615 67.197 0.304 Q67.207 1.789 66.245 2.934 Q65.284 4.078 63.812 4.078 H28.385 Z"/></g><g id="Ultralight-M" transform="matrix(1 0 0 1 506.415 1126)"><path d="M104 1.333 H80 Q79.319 1.333 78.878 0.891 Q78.438 0.449 78.438 -0.234 Q78.438 -0.917 78.878 -1.386 Q79.319 -1.855 80 -1.855 H104 L93.875 -12.23 Q93.438 -12.667 93.5 -13.292 Q93.562 -13.917 94 -14.439 Q94.396 -14.855 95.042 -14.855 Q95.688 -14.855 96.188 -14.417 L107.625 -2.792 Q108.688 -1.667 108.688 -0.23 Q108.688 1.208 107.625 2.27 L96 13.895 Q95.562 14.395 94.938 14.301 Q94.312 14.208 93.853 13.748 Q93.375 13.333 93.375 12.77 Q93.375 12.208 93.875 11.77 L104 1.333 Z M58.438 -33.667 V-15.417 Q58.438 -14.736 58.911 -14.264 Q59.384 -13.792 60.067 -13.792 Q60.688 -13.792 61.156 -14.264 Q61.625 -14.736 61.625 -15.417 V-33.667 H79.875 Q80.494 -33.667 80.966 -34.141 Q81.438 -34.614 81.438 -35.297 Q81.438 -35.917 80.966 -36.386 Q80.494 -36.855 79.875 -36.855 H61.625 V-55.105 Q61.625 -55.724 61.152 -56.196 Q60.679 -56.667 60.058 -56.667 Q59.375 -56.667 58.906 -56.196 Q58.438 -55.724 58.438 -55.105 V-36.855 H40.188 Q39.506 -36.855 39.034 -36.382 Q38.562 -35.909 38.562 -35.288 Q38.562 -34.605 39.034 -34.136 Q39.506 -33.667 40.188 -33.667 H58.438 Z M29.25 2.708 Q26.188 2.708 24.125 0.645 Q22.062 -1.417 22.062 -4.48 V-65.98 Q22.062 -69.042 24.125 -71.105 Q26.188 -73.167 29.25 -73.167 H90.75 Q93.812 -73.167 95.875 -71.105 Q97.938 -69.042 97.938 -65.98 V-30.917 Q97.938 -29.605 96.938 -28.667 Q95.938 -27.73 94.688 -27.792 Q89.062 -27.667 84.188 -25.511 Q79.312 -23.355 75.625 -19.667 Q71.875 -15.917 69.719 -11.105 Q67.562 -6.292 67.5 -0.605 Q67.438 0.708 66.562 1.708 Q65.688 2.708 64.375 2.708 H29.25 Z"/></g><g id="Bold-S" transform="matrix(1 0 0 1 2294.23 696)"><path d="M76.237 1.804 H67.302 Q65.431 1.804 64.054 0.444 Q62.676 -0.916 62.676 -2.762 Q62.676 -4.607 64.054 -5.988 Q65.431 -7.368 67.302 -7.368 H76.237 L74.955 -8.798 Q73.525 -10.278 73.525 -12.004 Q73.525 -13.73 74.955 -15.16 Q76.434 -16.639 78.185 -16.639 Q79.936 -16.639 81.415 -15.16 L89.552 -6.777 Q91.277 -5.087 91.277 -2.8 Q91.277 -0.514 89.552 1.212 L81.366 9.595 Q79.936 11.025 78.136 11 Q76.336 10.976 74.906 9.546 Q73.476 8.116 73.426 6.414 Q73.377 4.713 74.807 3.234 L76.237 1.804 Z M42.606 -30.496 V-20.781 Q42.606 -18.829 44.015 -17.413 Q45.425 -15.998 47.369 -15.998 Q49.312 -15.998 50.743 -17.413 Q52.173 -18.829 52.173 -20.781 V-30.496 H61.789 Q63.741 -30.496 65.157 -31.905 Q66.572 -33.315 66.572 -35.259 Q66.572 -37.202 65.157 -38.633 Q63.741 -40.063 61.789 -40.063 H52.173 V-49.679 Q52.173 -51.631 50.763 -53.047 Q49.354 -54.462 47.41 -54.462 Q45.466 -54.462 44.036 -53.047 Q42.606 -51.631 42.606 -49.679 V-40.063 H32.891 Q30.939 -40.063 29.523 -38.653 Q28.108 -37.244 28.108 -35.3 Q28.108 -33.356 29.523 -31.926 Q30.939 -30.496 32.891 -30.496 H42.606 Z M22.881 0.374 Q18.177 0.374 14.956 -2.846 Q11.736 -6.067 11.736 -10.771 V-59.689 Q11.736 -64.393 14.956 -67.614 Q18.177 -70.834 22.881 -70.834 H71.799 Q76.503 -70.834 79.724 -67.614 Q82.944 -64.393 82.944 -59.689 V-33.011 Q82.944 -30.559 81.119 -29.097 Q79.294 -27.636 76.878 -27.833 Q72.243 -27.587 67.903 -25.466 Q63.564 -23.346 60.506 -20.288 Q57.794 -17.576 55.723 -13.779 Q53.652 -9.982 52.912 -5.495 Q52.912 -3.078 51.236 -1.352 Q49.559 0.374 47.291 0.374 H22.881 Z"/></g><g id="Semibold-S" transform="matrix(1 0 0 1 1998.1 696)"><path d="M76.623 -0.512 H66.359 Q64.702 -0.512 63.496 -1.7 Q62.29 -2.889 62.29 -4.52 Q62.29 -6.151 63.496 -7.36 Q64.702 -8.569 66.359 -8.569 H76.623 L74.398 -10.942 Q73.139 -12.25 73.139 -13.762 Q73.139 -15.273 74.398 -16.532 Q75.705 -17.84 77.242 -17.84 Q78.778 -17.84 80.086 -16.532 L88.565 -7.806 Q89.991 -6.416 89.991 -4.558 Q89.991 -2.701 88.565 -1.275 L80.036 7.451 Q78.778 8.71 77.192 8.685 Q75.607 8.66 74.348 7.402 Q73.09 6.143 73.062 4.656 Q73.034 3.17 74.293 1.862 L76.623 -0.512 Z M43.249 -31.139 V-20.481 Q43.249 -18.786 44.465 -17.564 Q45.682 -16.341 47.369 -16.341 Q49.055 -16.341 50.292 -17.564 Q51.529 -18.786 51.529 -20.481 V-31.139 H62.089 Q63.784 -31.139 65.006 -32.355 Q66.229 -33.572 66.229 -35.259 Q66.229 -36.945 65.006 -38.182 Q63.784 -39.419 62.089 -39.419 H51.529 V-49.979 Q51.529 -51.674 50.313 -52.896 Q49.097 -54.119 47.41 -54.119 Q45.723 -54.119 44.486 -52.896 Q43.249 -51.674 43.249 -49.979 V-39.419 H32.591 Q30.896 -39.419 29.674 -38.203 Q28.451 -36.987 28.451 -35.3 Q28.451 -33.613 29.674 -32.376 Q30.896 -31.139 32.591 -31.139 H43.249 Z M22.366 -1.084 Q18.52 -1.084 15.857 -3.747 Q13.194 -6.41 13.194 -10.256 V-60.204 Q13.194 -64.05 15.857 -66.713 Q18.52 -69.376 22.366 -69.376 H72.314 Q76.16 -69.376 78.823 -66.713 Q81.486 -64.05 81.486 -60.204 V-32.925 Q81.486 -30.944 80.026 -29.74 Q78.566 -28.536 76.621 -28.691 Q71.985 -28.573 67.603 -26.559 Q63.221 -24.546 60.121 -21.446 Q57.194 -18.519 55.23 -14.465 Q53.266 -10.411 52.869 -5.838 Q52.912 -3.893 51.557 -2.489 Q50.202 -1.084 48.363 -1.084 H22.366 Z"/></g><g id="Medium-S" transform="matrix(1 0 0 1 1701.85 696)"><path d="M76.913 -2.249 H65.652 Q64.155 -2.249 63.078 -3.308 Q62.001 -4.368 62.001 -5.838 Q62.001 -7.308 63.078 -8.389 Q64.155 -9.47 65.652 -9.47 H76.913 L73.98 -12.55 Q72.85 -13.73 72.85 -15.08 Q72.85 -16.431 73.98 -17.561 Q75.159 -18.74 76.534 -18.74 Q77.91 -18.74 79.089 -17.561 L87.826 -8.578 Q89.026 -7.413 89.026 -5.877 Q89.026 -4.341 87.826 -3.14 L79.039 5.843 Q77.91 6.973 76.485 6.948 Q75.06 6.924 73.93 5.794 Q72.8 4.664 72.789 3.338 Q72.777 2.012 73.907 0.832 L76.913 -2.249 Z M43.732 -31.622 V-20.256 Q43.732 -18.754 44.803 -17.676 Q45.875 -16.598 47.369 -16.598 Q48.862 -16.598 49.955 -17.676 Q51.047 -18.754 51.047 -20.256 V-31.622 H62.314 Q63.816 -31.622 64.894 -32.693 Q65.972 -33.765 65.972 -35.259 Q65.972 -36.752 64.894 -37.845 Q63.816 -38.937 62.314 -38.937 H51.047 V-50.204 Q51.047 -51.706 49.975 -52.784 Q48.904 -53.862 47.41 -53.862 Q45.916 -53.862 44.824 -52.784 Q43.732 -51.706 43.732 -50.204 V-38.937 H32.366 Q30.864 -38.937 29.786 -37.865 Q28.708 -36.794 28.708 -35.3 Q28.708 -33.806 29.786 -32.714 Q30.864 -31.622 32.366 -31.622 H43.732 Z M21.981 -2.178 Q18.777 -2.178 16.532 -4.422 Q14.288 -6.667 14.288 -9.871 V-60.589 Q14.288 -63.793 16.532 -66.038 Q18.777 -68.282 21.981 -68.282 H72.699 Q75.903 -68.282 78.148 -66.038 Q80.392 -63.793 80.392 -60.589 V-32.861 Q80.392 -31.234 79.206 -30.223 Q78.019 -29.212 76.428 -29.334 Q71.793 -29.312 67.378 -27.38 Q62.963 -25.447 59.831 -22.314 Q56.744 -19.227 54.86 -14.98 Q52.977 -10.732 52.837 -6.095 Q52.912 -4.504 51.798 -3.341 Q50.685 -2.178 49.167 -2.178 H21.981 Z"/></g><g id="Regular-S" transform="matrix(1 0 0 1 1405.73 696)"><path d="M77.125 -3.522 H65.133 Q63.755 -3.522 62.772 -4.488 Q61.789 -5.453 61.789 -6.805 Q61.789 -8.157 62.772 -9.144 Q63.755 -10.13 65.133 -10.13 H77.125 L73.673 -13.73 Q72.637 -14.815 72.637 -16.047 Q72.637 -17.28 73.673 -18.316 Q74.758 -19.401 76.015 -19.401 Q77.273 -19.401 78.358 -18.316 L87.283 -9.144 Q88.319 -8.144 88.319 -6.844 Q88.319 -5.544 87.283 -4.508 L78.308 4.664 Q77.273 5.699 75.966 5.675 Q74.659 5.65 73.624 4.615 Q72.588 3.579 72.588 2.371 Q72.588 1.163 73.624 0.078 L77.125 -3.522 Z M44.085 -31.975 V-20.091 Q44.085 -18.73 45.051 -17.759 Q46.016 -16.787 47.369 -16.787 Q48.721 -16.787 49.707 -17.759 Q50.693 -18.73 50.693 -20.091 V-31.975 H62.479 Q63.84 -31.975 64.811 -32.941 Q65.783 -33.906 65.783 -35.259 Q65.783 -36.611 64.811 -37.597 Q63.84 -38.583 62.479 -38.583 H50.693 V-50.369 Q50.693 -51.73 49.728 -52.701 Q48.762 -53.673 47.41 -53.673 Q46.058 -53.673 45.072 -52.701 Q44.085 -51.73 44.085 -50.369 V-38.583 H32.201 Q30.84 -38.583 29.869 -37.618 Q28.897 -36.652 28.897 -35.3 Q28.897 -33.948 29.869 -32.962 Q30.84 -31.975 32.201 -31.975 H44.085 Z M21.698 -2.98 Q18.966 -2.98 17.028 -4.918 Q15.09 -6.856 15.09 -9.587 V-60.872 Q15.09 -63.604 17.028 -65.542 Q18.966 -67.48 21.698 -67.48 H72.983 Q75.714 -67.48 77.652 -65.542 Q79.59 -63.604 79.59 -60.872 V-32.814 Q79.59 -31.446 78.604 -30.577 Q77.618 -29.707 76.286 -29.806 Q71.651 -29.855 67.213 -27.981 Q62.775 -26.107 59.619 -22.951 Q56.413 -19.746 54.589 -15.357 Q52.764 -10.968 52.814 -6.284 Q52.912 -4.952 51.975 -3.966 Q51.038 -2.98 49.756 -2.98 H21.698 Z"/></g><g id="Light-S" transform="matrix(1 0 0 1 1109.75 696)"><path d="M79.363 -4.47 H65.133 Q64.136 -4.47 63.436 -5.153 Q62.737 -5.835 62.737 -6.807 Q62.737 -7.778 63.436 -8.489 Q64.136 -9.2 65.133 -9.2 H79.363 L74.356 -14.413 Q73.586 -15.213 73.605 -16.066 Q73.624 -16.92 74.356 -17.678 Q75.143 -18.471 76.018 -18.471 Q76.893 -18.471 77.713 -17.671 L86.183 -8.916 Q87.105 -8.011 87.105 -6.844 Q87.105 -5.677 86.183 -4.755 L77.625 4 Q76.855 4.789 75.938 4.726 Q75.02 4.664 74.281 3.925 Q73.498 3.162 73.498 2.361 Q73.498 1.561 74.287 0.761 L79.363 -4.47 Z M45.015 -32.905 V-20.053 Q45.015 -19.073 45.707 -18.376 Q46.398 -17.679 47.37 -17.679 Q48.322 -17.679 49.034 -18.376 Q49.745 -19.073 49.745 -20.053 V-32.905 H62.536 Q63.497 -32.905 64.194 -33.597 Q64.891 -34.288 64.891 -35.26 Q64.891 -36.212 64.194 -36.924 Q63.497 -37.635 62.536 -37.635 H49.745 V-50.426 Q49.745 -51.387 49.053 -52.084 Q48.361 -52.781 47.409 -52.781 Q46.437 -52.781 45.726 -52.084 Q45.015 -51.387 45.015 -50.426 V-37.635 H32.163 Q31.183 -37.635 30.486 -36.943 Q29.789 -36.251 29.789 -35.299 Q29.789 -34.327 30.486 -33.616 Q31.183 -32.905 32.163 -32.905 H45.015 Z M22.836 -4.782 Q20.35 -4.782 18.621 -6.511 Q16.892 -8.24 16.892 -10.726 V-59.734 Q16.892 -62.22 18.621 -63.949 Q20.35 -65.678 22.836 -65.678 H71.844 Q74.33 -65.678 76.059 -63.949 Q77.788 -62.22 77.788 -59.734 V-32.093 Q77.788 -30.953 76.992 -30.197 Q76.195 -29.441 75.11 -29.445 Q70.816 -29.21 66.815 -27.327 Q62.813 -25.443 59.979 -22.61 Q57.058 -19.689 55.243 -15.774 Q53.428 -11.86 53.212 -7.479 Q53.216 -6.375 52.393 -5.578 Q51.57 -4.782 50.496 -4.782 H22.836 Z"/></g><g id="Thin-S" transform="matrix(1 0 0 1 814.015 696)"><path d="M81.601 -5.419 H65.133 Q64.517 -5.419 64.101 -5.818 Q63.685 -6.217 63.685 -6.808 Q63.685 -7.399 64.101 -7.835 Q64.517 -8.271 65.133 -8.271 H81.601 L75.038 -15.095 Q74.534 -15.611 74.572 -16.085 Q74.61 -16.559 75.038 -17.039 Q75.529 -17.542 76.022 -17.542 Q76.514 -17.542 77.068 -17.026 L85.083 -8.689 Q85.891 -7.878 85.891 -6.844 Q85.891 -5.809 85.083 -5.001 L76.943 3.336 Q76.438 3.879 75.909 3.778 Q75.38 3.678 74.938 3.236 Q74.409 2.744 74.409 2.352 Q74.409 1.959 74.951 1.443 L81.601 -5.419 Z M45.944 -33.834 V-20.015 Q45.944 -19.417 46.362 -18.993 Q46.78 -18.57 47.371 -18.57 Q47.924 -18.57 48.36 -18.993 Q48.797 -19.417 48.797 -20.015 V-33.834 H62.593 Q63.153 -33.834 63.577 -34.252 Q64 -34.67 64 -35.261 Q64 -35.814 63.577 -36.25 Q63.153 -36.687 62.593 -36.687 H48.797 V-50.483 Q48.797 -51.043 48.379 -51.467 Q47.96 -51.89 47.407 -51.89 Q46.816 -51.89 46.38 -51.467 Q45.944 -51.043 45.944 -50.483 V-36.687 H32.125 Q31.527 -36.687 31.103 -36.269 Q30.68 -35.85 30.68 -35.297 Q30.68 -34.706 31.103 -34.27 Q31.527 -33.834 32.125 -33.834 H45.944 Z M23.973 -6.583 Q21.735 -6.583 20.214 -8.104 Q18.693 -9.625 18.693 -11.863 V-58.597 Q18.693 -60.835 20.214 -62.356 Q21.735 -63.877 23.973 -63.877 H70.707 Q72.945 -63.877 74.466 -62.356 Q75.987 -60.835 75.987 -58.597 V-31.372 Q75.987 -30.46 75.38 -29.818 Q74.773 -29.176 73.935 -29.085 Q69.982 -28.565 66.416 -26.672 Q62.851 -24.78 60.34 -22.268 Q57.703 -19.632 55.898 -16.192 Q54.092 -12.751 53.61 -8.673 Q53.519 -7.797 52.81 -7.19 Q52.101 -6.583 51.236 -6.583 H23.973 Z"/></g><g id="Ultralight-S" transform="matrix(1 0 0 1 517.792 696)"><path d="M82.944 -5.988 H65.133 Q64.746 -5.988 64.5 -6.217 Q64.254 -6.446 64.254 -6.809 Q64.254 -7.171 64.5 -7.442 Q64.746 -7.714 65.133 -7.714 H82.944 L75.448 -15.505 Q75.103 -15.85 75.152 -16.097 Q75.202 -16.343 75.448 -16.656 Q75.76 -16.984 76.023 -16.984 Q76.286 -16.984 76.681 -16.639 L84.423 -8.552 Q85.163 -7.799 85.163 -6.844 Q85.163 -5.889 84.423 -5.149 L76.533 2.938 Q76.188 3.332 75.892 3.209 Q75.596 3.086 75.332 2.822 Q74.955 2.494 74.955 2.346 Q74.955 2.198 75.35 1.853 L82.944 -5.988 Z M46.502 -34.392 V-19.992 Q46.502 -19.623 46.756 -19.364 Q47.01 -19.105 47.372 -19.105 Q47.685 -19.105 47.956 -19.364 Q48.228 -19.623 48.228 -19.992 V-34.392 H62.627 Q62.947 -34.392 63.206 -34.646 Q63.465 -34.9 63.465 -35.262 Q63.465 -35.575 63.206 -35.846 Q62.947 -36.118 62.627 -36.118 H48.228 V-50.517 Q48.228 -50.837 47.974 -51.096 Q47.72 -51.355 47.407 -51.355 Q47.044 -51.355 46.773 -51.096 Q46.502 -50.837 46.502 -50.517 V-36.118 H32.102 Q31.733 -36.118 31.474 -35.864 Q31.215 -35.61 31.215 -35.297 Q31.215 -34.934 31.474 -34.663 Q31.733 -34.392 32.102 -34.392 H46.502 Z M24.656 -7.664 Q22.565 -7.664 21.17 -9.06 Q19.774 -10.455 19.774 -12.546 V-57.914 Q19.774 -60.005 21.17 -61.4 Q22.565 -62.796 24.656 -62.796 H70.024 Q72.115 -62.796 73.51 -61.4 Q74.906 -60.005 74.906 -57.914 V-30.94 Q74.906 -30.164 74.413 -29.59 Q73.919 -29.017 73.229 -28.869 Q69.481 -28.178 66.177 -26.28 Q62.873 -24.381 60.556 -22.064 Q58.09 -19.598 56.29 -16.442 Q54.49 -13.286 53.849 -9.39 Q53.701 -8.651 53.06 -8.157 Q52.419 -7.664 51.68 -7.664 H24.656 Z"/></g></g></svg>