<svg xmlns="http://www.w3.org/2000/svg" version="1.1" width="3300" height="2000"><g id="Notes"><style>
    text {
      font-family: monospace;
      text-anchor: middle;
    }
    text.emphasis {
      font-weight:bold;
    }
    text.lanchor {
      text-anchor: start;
    }
  </style><rect height="2200" id="artboard" fill="white" width="3300" x="0" y="0"/><line id="" style="fill:none;stroke:black;stroke-width:0.5;" x1="263" x2="3036" y1="292" y2="292"/><text class="lanchor emphasis" transform="matrix(1 0 0 1 263 322)">Weight/Scale Variations</text><text transform="matrix(1 0 0 1 559.711 322)">Ultralight</text><text transform="matrix(1 0 0 1 856.422 322)">Thin</text><text transform="matrix(1 0 0 1 1153.13 322)">Light</text><text transform="matrix(1 0 0 1 1449.84 322)">Regular</text><text transform="matrix(1 0 0 1 1746.56 322)">Medium</text><text transform="matrix(1 0 0 1 2043.27 322)">Semibold</text><text transform="matrix(1 0 0 1 2339.98 322)">Bold</text><text transform="matrix(1 0 0 1 2636.69 322)">Heavy</text><text transform="matrix(1 0 0 1 2933.4 322)">Black</text><text id="template-version" style="text-anchor: end;" transform="matrix(1 0 0 1 3036 1933)">Template v.1.0</text><text class="lanchor" transform="matrix(1 0 0 1 263 726)">Small</text><text class="lanchor" transform="matrix(1 0 0 1 263 1156)">Medium</text><text class="lanchor" transform="matrix(1 0 0 1 263 1586)">Large</text></g><g id="Guides"><g id="H-reference" style="fill:#27AAE1;stroke:none;" transform="matrix(1 0 0 1 339 696)"><path d="M 54.9316 0 L 57.666 0 L 30.5664 -70.459 L 28.0762 -70.459 L 0.976562 0 L 3.66211 0 L 12.9395 -24.4629 L 45.7031 -24.4629 Z M 29.1992 -67.0898 L 29.4434 -67.0898 L 44.8242 -26.709 L 13.8184 -26.709 Z"/></g><line id="Baseline-S" style="fill:none;stroke:#27AAE1;opacity:1;stroke-width:0.577;" x1="263" x2="3036" y1="696" y2="696"/><line id="Capline-S" style="fill:none;stroke:#27AAE1;opacity:1;stroke-width:0.577;" x1="263" x2="3036" y1="625.541" y2="625.541"/><g id="H-reference" style="fill:#27AAE1;stroke:none;" transform="matrix(1 0 0 1 339 1126)"><path d="M 54.9316 0 L 57.666 0 L 30.5664 -70.459 L 28.0762 -70.459 L 0.976562 0 L 3.66211 0 L 12.9395 -24.4629 L 45.7031 -24.4629 Z M 29.1992 -67.0898 L 29.4434 -67.0898 L 44.8242 -26.709 L 13.8184 -26.709 Z"/></g><line id="Baseline-M" style="fill:none;stroke:#27AAE1;opacity:1;stroke-width:0.577;" x1="263" x2="3036" y1="1126" y2="1126"/><line id="Capline-M" style="fill:none;stroke:#27AAE1;opacity:1;stroke-width:0.577;" x1="263" x2="3036" y1="1055.54" y2="1055.54"/><g id="H-reference" style="fill:#27AAE1;stroke:none;" transform="matrix(1 0 0 1 339 1556)"><path d="M 54.9316 0 L 57.666 0 L 30.5664 -70.459 L 28.0762 -70.459 L 0.976562 0 L 3.66211 0 L 12.9395 -24.4629 L 45.7031 -24.4629 Z M 29.1992 -67.0898 L 29.4434 -67.0898 L 44.8242 -26.709 L 13.8184 -26.709 Z"/></g><line id="Baseline-L" style="fill:none;stroke:#27AAE1;opacity:1;stroke-width:0.577;" x1="263" x2="3036" y1="1556" y2="1556"/><line id="Capline-L" style="fill:none;stroke:#27AAE1;opacity:1;stroke-width:0.577;" x1="263" x2="3036" y1="1485.54" y2="1485.54"/><rect height="119.336" id="left-margin" style="fill:darkred;stroke:none;opacity:0.4;" width="12.4512" x="1394.06" y="1030.79"/><rect height="119.336" id="right-margin" style="fill:darkgreen;stroke:none;opacity:0.4;" width="12.4512" x="1502.5112" y="1030.79"/><rect x="1406.5112" y="1045" width="96" height="96" fill="none" stroke="blue" stroke-dasharray="5"/><rect x="1394.06" y="1030.79" width="120.9024" height="119.336" fill="none" stroke="blue"/></g><g id="Symbols"><g id="Bold-L" transform="matrix(1 0 0 1 2266 1556)"><path d="M7.659 28.061 V13.145 H20.559 V-98.601 H134.321 V13.145 H147.221 V28.061 H7.659 Z M40.716 -35.069 Q54.18 -31.279 61.96 -19.75 Q69.741 -8.221 72.401 5.244 H82.641 Q84.898 -8.382 92.678 -20.113 Q100.459 -31.844 114.004 -35.391 Q100.62 -39.181 92.719 -50.629 Q84.817 -62.078 82.641 -75.623 H72.24 Q69.983 -61.917 62.081 -50.307 Q54.18 -38.697 40.716 -35.069 Z"/></g><g id="Semibold-L" transform="matrix(1 0 0 1 1970.27 1556)"><path d="M10.043 25.677 V13.215 H22.943 V-96.218 H131.938 V13.215 H144.838 V25.677 H10.043 Z M39.594 -35.139 Q53.9 -30.999 62.03 -18.243 Q70.161 -5.487 72.261 8.749 H82.711 Q84.548 -5.578 92.643 -18.465 Q100.739 -31.353 115.125 -35.321 Q100.83 -39.461 92.649 -52.172 Q84.467 -64.882 82.711 -79.198 H72.1 Q70.263 -64.791 62.081 -51.989 Q53.9 -39.188 39.594 -35.139 Z"/></g><g id="Medium-L" transform="matrix(1 0 0 1 1674.31 1556)"><path d="M11.831 23.889 V13.268 H24.731 V-94.43 H130.15 V13.268 H143.05 V23.889 H11.831 Z M38.753 -35.191 Q53.689 -30.789 62.083 -17.112 Q70.477 -3.436 72.156 11.378 H82.763 Q84.285 -3.474 92.617 -17.23 Q100.949 -30.985 115.967 -35.269 Q100.988 -39.671 92.596 -53.329 Q84.204 -66.986 82.763 -81.88 H71.995 Q70.473 -66.947 62.081 -53.251 Q53.689 -39.556 38.753 -35.191 Z"/></g><g id="Regular-L" transform="matrix(1 0 0 1 1378.56 1556)"><path d="M13.142 22.578 V13.306 H26.042 V-93.119 H128.839 V13.306 H141.739 V22.578 H13.142 Z M38.136 -35.23 Q53.535 -30.634 62.122 -16.283 Q70.708 -1.932 72.079 13.306 H82.802 Q84.092 -1.932 92.598 -16.323 Q101.104 -30.715 116.584 -35.23 Q101.104 -39.826 92.558 -54.177 Q84.011 -68.528 82.802 -83.847 H71.918 Q70.627 -68.528 62.081 -54.177 Q53.535 -39.826 38.136 -35.23 Z"/></g><g id="Light-L" transform="matrix(1 0 0 1 1082.77 1556)"><path d="M16.305 19.415 V12.345 H29.205 V-89.987 H125.707 V12.345 H138.607 V19.415 H16.305 Z M38.694 -35.23 Q53.814 -30.789 62.153 -16.64 Q70.491 -2.49 71.862 12.345 H83.05 Q84.309 -2.49 92.598 -16.68 Q100.887 -30.87 116.119 -35.23 Q100.856 -39.671 92.48 -53.82 Q84.104 -67.97 82.988 -82.916 H71.762 Q70.472 -67.97 62.143 -53.82 Q53.814 -39.671 38.694 -35.23 Z"/></g><g id="Thin-L" transform="matrix(1 0 0 1 787.282 1556)"><path d="M19.468 16.252 V11.384 H32.368 V-86.855 H122.575 V11.384 H135.475 V16.252 H19.468 Z M39.252 -35.23 Q54.093 -30.944 62.184 -16.996 Q70.274 -3.048 71.645 11.384 H83.298 Q84.526 -3.048 92.598 -17.037 Q100.67 -31.025 115.653 -35.23 Q100.608 -39.516 92.402 -53.464 Q84.197 -67.412 83.174 -81.986 H71.607 Q70.317 -67.412 62.205 -53.464 Q54.093 -39.516 39.252 -35.23 Z"/></g><g id="Ultralight-L" transform="matrix(1 0 0 1 491.205 1556)"><path d="M21.366 14.354 V10.807 H34.266 V-84.976 H120.696 V10.807 H133.596 V14.354 H21.366 Z M39.587 -35.23 Q54.261 -31.037 62.202 -17.21 Q70.144 -3.383 71.514 10.807 H83.447 Q84.656 -3.383 92.598 -17.251 Q100.539 -31.118 115.374 -35.23 Q100.459 -39.422 92.356 -53.25 Q84.253 -67.077 83.286 -81.428 H71.514 Q70.224 -67.077 62.242 -53.25 Q54.261 -39.422 39.587 -35.23 Z"/></g><g id="Bold-M" transform="matrix(1 0 0 1 2281.8 1126)"><path d="M4.688 15.083 V-0.042 H14.688 V-85.542 H105.312 V-0.042 H115.312 V15.083 H4.688 Z M42.312 -35.105 Q49.062 -30.542 53.25 -23.605 Q57.438 -16.667 59.438 -8.167 H60.562 Q62.438 -16.792 66.625 -23.855 Q70.812 -30.917 77.688 -35.355 Q70.938 -39.792 66.75 -46.73 Q62.562 -53.667 60.562 -62.042 H59.438 Q57.562 -53.542 53.375 -46.542 Q49.188 -39.542 42.312 -35.105 Z"/></g><g id="Semibold-M" transform="matrix(1 0 0 1 1985.97 1126)"><path d="M7.133 12.637 V0.012 H17.133 V-83.097 H102.867 V0.012 H112.867 V12.637 H7.133 Z M41.171 -35.159 Q48.845 -30.216 53.331 -22.002 Q57.818 -13.787 59.329 -4.581 H60.671 Q62.111 -13.858 66.598 -22.143 Q71.084 -30.428 78.829 -35.301 Q71.155 -40.173 66.668 -48.387 Q62.182 -56.602 60.671 -65.738 H59.329 Q57.889 -56.531 53.402 -48.281 Q48.916 -40.032 41.171 -35.159 Z"/></g><g id="Medium-M" transform="matrix(1 0 0 1 1689.91 1126)"><path d="M8.967 10.803 V0.053 H18.967 V-81.263 H101.033 V0.053 H111.033 V10.803 H8.967 Z M40.315 -35.2 Q48.682 -29.972 53.393 -20.799 Q58.103 -11.627 59.247 -1.89 H60.753 Q61.867 -11.657 66.578 -20.859 Q71.288 -30.061 79.685 -35.26 Q71.318 -40.458 66.607 -49.631 Q61.897 -58.803 60.753 -68.51 H59.247 Q58.133 -58.773 53.422 -49.586 Q48.712 -40.398 40.315 -35.2 Z"/></g><g id="Regular-M" transform="matrix(1 0 0 1 1394.06 1126)"><path d="M10.312 9.458 V0.083 H20.312 V-79.917 H99.688 V0.083 H109.688 V9.458 H10.312 Z M39.688 -35.23 Q48.562 -29.792 53.438 -19.917 Q58.312 -10.042 59.188 0.083 H60.812 Q61.688 -10.042 66.562 -19.917 Q71.438 -29.792 80.312 -35.23 Q71.438 -40.667 66.562 -50.542 Q61.688 -60.417 60.812 -70.542 H59.188 Q58.312 -60.417 53.438 -50.542 Q48.562 -40.667 39.688 -35.23 Z"/></g><g id="Light-M" transform="matrix(1 0 0 1 1098.18 1126)"><path d="M12.765 7.005 V0.01 H22.765 V-77.489 H97.26 V0.01 H107.26 V7.005 H12.765 Z M37.187 -35.23 Q46.711 -30.442 51.923 -20.386 Q57.135 -10.331 58.058 0.01 H61.966 Q62.865 -10.331 68.077 -20.386 Q73.289 -30.442 82.837 -35.23 Q73.264 -40.018 68.041 -50.074 Q62.817 -60.129 61.918 -70.494 H58.058 Q57.135 -60.129 51.923 -50.074 Q46.711 -40.018 37.187 -35.23 Z"/></g><g id="Thin-M" transform="matrix(1 0 0 1 802.565 1126)"><path d="M15.216 4.554 V-0.062 H25.216 V-75.062 H94.832 V-0.062 H104.832 V4.554 H15.216 Z M34.688 -35.23 Q44.861 -31.091 50.409 -20.855 Q55.957 -10.619 56.928 -0.062 H63.12 Q64.043 -10.619 69.591 -20.855 Q75.139 -31.091 85.361 -35.23 Q75.091 -39.369 69.519 -49.605 Q63.947 -59.841 63.024 -70.446 H56.928 Q55.957 -59.841 50.409 -49.605 Q44.861 -39.369 34.688 -35.23 Z"/></g><g id="Ultralight-M" transform="matrix(1 0 0 1 506.415 1126)"><path d="M16.688 3.083 V-0.105 H26.688 V-73.605 H93.375 V-0.105 H103.375 V3.083 H16.688 Z M33.188 -35.23 Q43.75 -31.48 49.5 -21.136 Q55.25 -10.792 56.25 -0.105 H63.812 Q64.75 -10.792 70.5 -21.136 Q76.25 -31.48 86.875 -35.23 Q76.188 -38.98 70.406 -49.324 Q64.625 -59.667 63.688 -70.417 H56.25 Q55.25 -59.667 49.5 -49.324 Q43.75 -38.98 33.188 -35.23 Z"/></g><g id="Bold-S" transform="matrix(1 0 0 1 2294.23 696)"><path d="M5.276 2.1 V-9.045 H14.744 V-72.56 H79.936 V-9.045 H89.404 V2.1 H5.276 Z M35.653 -35.131 Q39.302 -32.616 42.014 -29.756 Q44.726 -26.896 47.093 -22.064 H47.587 Q49.855 -26.995 52.567 -29.954 Q55.279 -32.912 59.027 -35.329 Q55.378 -37.646 52.666 -40.506 Q49.954 -43.367 47.587 -48.101 H47.093 Q44.726 -43.268 42.064 -40.358 Q39.401 -37.449 35.653 -35.131 Z"/></g><g id="Semibold-S" transform="matrix(1 0 0 1 1998.1 696)"><path d="M7.206 0.17 V-9.002 H16.674 V-70.63 H78.006 V-9.002 H87.474 V0.17 H7.206 Z M34.752 -35.174 Q39.131 -32.359 42.079 -28.491 Q45.027 -24.624 47.008 -19.234 H47.672 Q49.598 -24.679 52.546 -28.603 Q55.494 -32.526 59.928 -35.286 Q55.549 -37.946 52.601 -41.814 Q49.653 -45.682 47.672 -51.016 H47.008 Q44.984 -45.626 42.085 -41.731 Q39.186 -37.835 34.752 -35.174 Z"/></g><g id="Medium-S" transform="matrix(1 0 0 1 1701.85 696)"><path d="M8.653 -1.277 V-8.97 H18.121 V-69.183 H76.559 V-8.97 H86.027 V-1.277 H8.653 Z M34.077 -35.206 Q39.002 -32.166 42.127 -27.543 Q45.252 -22.919 46.943 -17.111 H47.737 Q49.405 -22.943 52.53 -27.59 Q55.654 -32.237 60.603 -35.254 Q55.678 -38.172 52.553 -42.795 Q49.428 -47.419 47.737 -53.203 H46.943 Q45.177 -47.395 42.101 -42.76 Q39.026 -38.124 34.077 -35.206 Z"/></g><g id="Regular-S" transform="matrix(1 0 0 1 1405.73 696)"><path d="M9.715 -2.339 V-8.946 H19.183 V-68.121 H75.497 V-8.946 H84.965 V-2.339 H9.715 Z M33.582 -35.23 Q38.908 -32.025 42.162 -26.847 Q45.417 -21.669 46.896 -15.554 H47.784 Q49.263 -21.669 52.518 -26.847 Q55.772 -32.025 61.098 -35.23 Q55.772 -38.337 52.518 -43.514 Q49.263 -48.692 47.784 -54.807 H46.896 Q45.318 -48.692 42.113 -43.514 Q38.908 -38.337 33.582 -35.23 Z"/></g><g id="Light-S" transform="matrix(1 0 0 1 1109.75 696)"><path d="M11.649 -4.273 V-9.003 H21.117 V-66.206 H73.582 V-9.003 H83.05 V-4.273 H11.649 Z M31.609 -35.23 Q37.447 -32.537 40.967 -27.217 Q44.487 -21.897 46.005 -15.611 H48.694 Q50.193 -21.897 53.713 -27.217 Q57.233 -32.537 63.09 -35.23 Q57.214 -37.825 53.684 -43.145 Q50.155 -48.465 48.656 -54.769 H46.005 Q44.389 -48.465 40.918 -43.145 Q37.447 -37.825 31.609 -35.23 Z"/></g><g id="Thin-S" transform="matrix(1 0 0 1 814.015 696)"><path d="M13.584 -6.208 V-9.06 H23.052 V-64.29 H71.666 V-9.06 H81.134 V-6.208 H13.584 Z M29.637 -35.23 Q35.987 -33.049 39.772 -27.587 Q43.558 -22.124 45.113 -15.668 H49.605 Q51.122 -22.124 54.908 -27.587 Q58.693 -33.049 65.081 -35.23 Q58.655 -37.312 54.851 -42.775 Q51.046 -48.237 49.529 -54.731 H45.113 Q43.46 -48.237 39.723 -42.775 Q35.987 -37.312 29.637 -35.23 Z"/></g><g id="Ultralight-S" transform="matrix(1 0 0 1 517.792 696)"><path d="M14.744 -7.368 V-9.094 H24.212 V-63.141 H70.517 V-9.094 H79.985 V-7.368 H14.744 Z M28.453 -35.23 Q35.111 -33.356 39.056 -27.808 Q43.001 -22.261 44.579 -15.702 H50.151 Q51.68 -22.261 55.625 -27.808 Q59.57 -33.356 66.276 -35.23 Q59.52 -37.005 55.551 -42.553 Q51.581 -48.101 50.052 -54.708 H44.579 Q42.902 -48.101 39.006 -42.553 Q35.111 -37.005 28.453 -35.23 Z"/></g></g></svg>