<svg xmlns="http://www.w3.org/2000/svg" version="1.1" width="3300" height="2000"><g id="Notes"><style>
    text {
      font-family: monospace;
      text-anchor: middle;
    }
    text.emphasis {
      font-weight:bold;
    }
    text.lanchor {
      text-anchor: start;
    }
  </style><rect height="2200" id="artboard" fill="white" width="3300" x="0" y="0"/><line id="" style="fill:none;stroke:black;stroke-width:0.5;" x1="263" x2="3036" y1="292" y2="292"/><text class="lanchor emphasis" transform="matrix(1 0 0 1 263 322)">Weight/Scale Variations</text><text transform="matrix(1 0 0 1 559.711 322)">Ultralight</text><text transform="matrix(1 0 0 1 856.422 322)">Thin</text><text transform="matrix(1 0 0 1 1153.13 322)">Light</text><text transform="matrix(1 0 0 1 1449.84 322)">Regular</text><text transform="matrix(1 0 0 1 1746.56 322)">Medium</text><text transform="matrix(1 0 0 1 2043.27 322)">Semibold</text><text transform="matrix(1 0 0 1 2339.98 322)">Bold</text><text transform="matrix(1 0 0 1 2636.69 322)">Heavy</text><text transform="matrix(1 0 0 1 2933.4 322)">Black</text><text id="template-version" style="text-anchor: end;" transform="matrix(1 0 0 1 3036 1933)">Template v.1.0</text><text class="lanchor" transform="matrix(1 0 0 1 263 726)">Small</text><text class="lanchor" transform="matrix(1 0 0 1 263 1156)">Medium</text><text class="lanchor" transform="matrix(1 0 0 1 263 1586)">Large</text></g><g id="Guides"><g id="H-reference" style="fill:#27AAE1;stroke:none;" transform="matrix(1 0 0 1 339 696)"><path d="M 54.9316 0 L 57.666 0 L 30.5664 -70.459 L 28.0762 -70.459 L 0.976562 0 L 3.66211 0 L 12.9395 -24.4629 L 45.7031 -24.4629 Z M 29.1992 -67.0898 L 29.4434 -67.0898 L 44.8242 -26.709 L 13.8184 -26.709 Z"/></g><line id="Baseline-S" style="fill:none;stroke:#27AAE1;opacity:1;stroke-width:0.577;" x1="263" x2="3036" y1="696" y2="696"/><line id="Capline-S" style="fill:none;stroke:#27AAE1;opacity:1;stroke-width:0.577;" x1="263" x2="3036" y1="625.541" y2="625.541"/><g id="H-reference" style="fill:#27AAE1;stroke:none;" transform="matrix(1 0 0 1 339 1126)"><path d="M 54.9316 0 L 57.666 0 L 30.5664 -70.459 L 28.0762 -70.459 L 0.976562 0 L 3.66211 0 L 12.9395 -24.4629 L 45.7031 -24.4629 Z M 29.1992 -67.0898 L 29.4434 -67.0898 L 44.8242 -26.709 L 13.8184 -26.709 Z"/></g><line id="Baseline-M" style="fill:none;stroke:#27AAE1;opacity:1;stroke-width:0.577;" x1="263" x2="3036" y1="1126" y2="1126"/><line id="Capline-M" style="fill:none;stroke:#27AAE1;opacity:1;stroke-width:0.577;" x1="263" x2="3036" y1="1055.54" y2="1055.54"/><g id="H-reference" style="fill:#27AAE1;stroke:none;" transform="matrix(1 0 0 1 339 1556)"><path d="M 54.9316 0 L 57.666 0 L 30.5664 -70.459 L 28.0762 -70.459 L 0.976562 0 L 3.66211 0 L 12.9395 -24.4629 L 45.7031 -24.4629 Z M 29.1992 -67.0898 L 29.4434 -67.0898 L 44.8242 -26.709 L 13.8184 -26.709 Z"/></g><line id="Baseline-L" style="fill:none;stroke:#27AAE1;opacity:1;stroke-width:0.577;" x1="263" x2="3036" y1="1556" y2="1556"/><line id="Capline-L" style="fill:none;stroke:#27AAE1;opacity:1;stroke-width:0.577;" x1="263" x2="3036" y1="1485.54" y2="1485.54"/><rect height="119.336" id="left-margin" style="fill:darkred;stroke:none;opacity:0.4;" width="12.4512" x="1394.06" y="1030.79"/><rect height="119.336" id="right-margin" style="fill:darkgreen;stroke:none;opacity:0.4;" width="12.4512" x="1502.5112" y="1030.79"/><rect x="1406.5112" y="1045" width="96" height="96" fill="none" stroke="blue" stroke-dasharray="5"/><rect x="1394.06" y="1030.79" width="120.9024" height="119.336" fill="none" stroke="blue"/></g><g id="Symbols"><g id="Bold-L" transform="matrix(1 0 0 1 2266 1556)"><path d="M68.209 -20.556 Q64.702 -20.556 62.666 -22.705 Q60.63 -24.854 60.63 -27.974 V-54.257 Q60.63 -60.183 64.967 -64.557 Q69.303 -68.931 75.465 -68.931 H118.196 Q129.484 -68.931 137.708 -60.788 Q145.931 -52.645 145.931 -41.357 V-27.974 Q145.931 -24.854 143.694 -22.705 Q141.457 -20.556 138.514 -20.556 H68.209 Z M138.675 3.954 H16.286 Q13.166 3.954 11.017 1.767 Q8.869 -0.419 8.869 -3.522 Q8.869 -6.85 11.017 -8.866 Q13.166 -10.881 16.286 -10.881 H138.675 Q141.618 -10.881 143.855 -8.837 Q146.093 -6.793 146.093 -3.546 Q146.093 -0.298 143.855 1.828 Q141.618 3.954 138.675 3.954 Z M31.396 -20.395 Q21.863 -20.395 15.366 -26.97 Q8.869 -33.546 8.869 -43.008 Q8.869 -52.537 15.444 -59.203 Q22.019 -65.867 31.482 -65.867 Q41.011 -65.867 47.596 -59.209 Q54.18 -52.551 54.18 -42.97 Q54.18 -33.389 47.555 -26.892 Q40.93 -20.395 31.396 -20.395 Z M31.524 -33.134 Q35.491 -33.134 38.386 -36.018 Q41.28 -38.902 41.28 -42.97 Q41.28 -46.856 38.396 -49.831 Q35.511 -52.806 31.444 -52.806 Q27.558 -52.806 24.583 -49.831 Q21.608 -46.856 21.608 -42.889 Q21.608 -38.923 24.583 -36.028 Q27.558 -33.134 31.524 -33.134 Z M73.691 -33.295 H133.031 V-41.357 Q133.031 -47.211 128.621 -51.702 Q124.211 -56.192 118.196 -56.192 H73.691 V-33.295 Z"/></g><g id="Semibold-L" transform="matrix(1 0 0 1 1970.27 1556)"><path d="M66.737 -21.257 Q63.65 -21.257 61.754 -23.217 Q59.859 -25.176 59.859 -28.044 V-55.589 Q59.859 -61.095 63.791 -65.048 Q67.723 -69.001 73.362 -69.001 H118.126 Q129.203 -69.001 137.147 -61.104 Q145.09 -53.206 145.09 -42.129 V-28.044 Q145.09 -25.176 143.081 -23.217 Q141.073 -21.257 138.373 -21.257 H66.737 Z M138.535 1.991 H16.427 Q13.559 1.991 11.599 -0.006 Q9.64 -2.004 9.64 -4.819 Q9.64 -7.761 11.599 -9.637 Q13.559 -11.512 16.427 -11.512 H138.535 Q141.234 -11.512 143.243 -9.609 Q145.251 -7.705 145.251 -4.808 Q145.251 -1.911 143.243 0.04 Q141.234 1.991 138.535 1.991 Z M31.417 -21.587 Q22.243 -21.587 15.941 -27.932 Q9.64 -34.278 9.64 -43.412 Q9.64 -52.584 15.986 -58.981 Q22.331 -65.377 31.465 -65.377 Q40.637 -65.377 46.988 -58.984 Q53.339 -52.592 53.339 -43.391 Q53.339 -34.189 46.965 -27.888 Q40.591 -21.587 31.417 -21.587 Z M31.489 -33.905 Q35.351 -33.905 38.14 -36.689 Q40.929 -39.472 40.929 -43.391 Q40.929 -47.207 38.146 -50.041 Q35.362 -52.876 31.444 -52.876 Q27.628 -52.876 24.793 -50.041 Q21.958 -47.207 21.958 -43.345 Q21.958 -39.483 24.793 -36.694 Q27.628 -33.905 31.489 -33.905 Z M72.359 -33.646 H132.681 V-42.129 Q132.681 -47.982 128.376 -52.333 Q124.071 -56.683 118.126 -56.683 H72.359 V-33.646 Z"/></g><g id="Medium-L" transform="matrix(1 0 0 1 1674.31 1556)"><path d="M65.632 -21.783 Q62.861 -21.783 61.071 -23.6 Q59.28 -25.418 59.28 -28.096 V-56.589 Q59.28 -61.778 62.909 -65.416 Q66.538 -69.054 71.784 -69.054 H118.074 Q128.993 -69.054 136.726 -61.34 Q144.459 -53.627 144.459 -42.707 V-28.096 Q144.459 -25.418 142.622 -23.6 Q140.785 -21.783 138.268 -21.783 H65.632 Z M138.43 0.518 H16.532 Q13.853 0.518 12.036 -1.337 Q10.218 -3.192 10.218 -5.792 Q10.218 -8.445 12.036 -10.215 Q13.853 -11.985 16.532 -11.985 H138.43 Q140.946 -11.985 142.783 -10.187 Q144.62 -8.388 144.62 -5.754 Q144.62 -3.12 142.783 -1.301 Q140.946 0.518 138.43 0.518 Z M31.432 -22.481 Q22.527 -22.481 16.373 -28.654 Q10.218 -34.827 10.218 -43.715 Q10.218 -52.619 16.392 -58.814 Q22.565 -65.009 31.453 -65.009 Q40.357 -65.009 46.532 -58.816 Q52.708 -52.623 52.708 -43.706 Q52.708 -34.79 46.523 -28.635 Q40.337 -22.481 31.432 -22.481 Z M31.463 -34.483 Q35.246 -34.483 37.956 -37.191 Q40.667 -39.899 40.667 -43.706 Q40.667 -47.47 37.959 -50.199 Q35.251 -52.929 31.444 -52.929 Q27.68 -52.929 24.951 -50.199 Q22.221 -47.47 22.221 -43.687 Q22.221 -39.904 24.951 -37.194 Q27.68 -34.483 31.463 -34.483 Z M71.36 -33.908 H132.418 V-42.707 Q132.418 -48.56 128.192 -52.806 Q123.965 -57.051 118.074 -57.051 H71.36 V-33.908 Z"/></g><g id="Regular-L" transform="matrix(1 0 0 1 1378.56 1556)"><path d="M64.823 -22.169 Q62.283 -22.169 60.57 -23.882 Q58.856 -25.595 58.856 -28.135 V-57.321 Q58.856 -62.28 62.263 -65.686 Q65.669 -69.092 70.627 -69.092 H118.035 Q128.839 -69.092 136.417 -61.514 Q143.996 -53.935 143.996 -43.131 V-28.135 Q143.996 -25.595 142.285 -23.882 Q140.574 -22.169 138.191 -22.169 H64.823 Z M138.352 -0.561 H16.609 Q14.069 -0.561 12.356 -2.312 Q10.643 -4.063 10.643 -6.505 Q10.643 -8.946 12.356 -10.639 Q14.069 -12.332 16.609 -12.332 H138.352 Q140.735 -12.332 142.446 -10.611 Q144.157 -8.89 144.157 -6.448 Q144.157 -4.007 142.446 -2.284 Q140.735 -0.561 138.352 -0.561 Z M31.444 -23.136 Q22.736 -23.136 16.689 -29.183 Q10.643 -35.23 10.643 -43.937 Q10.643 -52.645 16.689 -58.692 Q22.736 -64.739 31.444 -64.739 Q40.151 -64.739 46.198 -58.692 Q52.245 -52.645 52.245 -43.937 Q52.245 -35.23 46.198 -29.183 Q40.151 -23.136 31.444 -23.136 Z M31.444 -34.907 Q35.169 -34.907 37.821 -37.56 Q40.474 -40.213 40.474 -43.937 Q40.474 -47.662 37.821 -50.315 Q35.169 -52.967 31.444 -52.967 Q27.719 -52.967 25.066 -50.315 Q22.414 -47.662 22.414 -43.937 Q22.414 -40.213 25.066 -37.56 Q27.719 -34.907 31.444 -34.907 Z M70.627 -34.101 H132.225 V-43.131 Q132.225 -48.985 128.057 -53.153 Q123.888 -57.321 118.035 -57.321 H70.627 V-34.101 Z"/></g><g id="Light-L" transform="matrix(1 0 0 1 1082.77 1556)"><path d="M66.373 -25.394 Q63.913 -25.394 62.253 -27.054 Q60.593 -28.714 60.593 -31.174 V-56.329 Q60.593 -60.357 63.348 -63.112 Q66.103 -65.867 70.131 -65.867 H115.926 Q125.579 -65.867 132.338 -59.127 Q139.096 -52.386 139.096 -42.759 V-31.174 Q139.096 -28.714 137.408 -27.054 Q135.72 -25.394 133.477 -25.394 H66.373 Z M134.569 -4.531 H20.392 Q18.353 -4.531 16.979 -5.944 Q15.604 -7.357 15.604 -9.299 Q15.604 -11.241 16.979 -12.593 Q18.353 -13.945 20.392 -13.945 H134.569 Q136.451 -13.945 137.823 -12.562 Q139.196 -11.178 139.196 -9.236 Q139.196 -7.294 137.823 -5.912 Q136.451 -4.531 134.569 -4.531 Z M33.553 -26.361 Q25.961 -26.361 20.783 -31.54 Q15.604 -36.718 15.604 -44.31 Q15.604 -51.901 20.783 -57.079 Q25.961 -62.258 33.553 -62.258 Q41.144 -62.258 46.322 -57.079 Q51.501 -51.901 51.501 -44.31 Q51.501 -36.718 46.322 -31.54 Q41.144 -26.361 33.553 -26.361 Z M33.55 -35.776 Q37.063 -35.776 39.575 -38.285 Q42.086 -40.794 42.086 -44.307 Q42.086 -47.821 39.577 -50.332 Q37.068 -52.843 33.555 -52.843 Q30.042 -52.843 27.53 -50.334 Q25.019 -47.825 25.019 -44.312 Q25.019 -40.799 27.528 -38.287 Q30.037 -35.776 33.55 -35.776 Z M70.007 -34.97 H129.682 V-42.759 Q129.682 -48.364 125.641 -52.409 Q121.6 -56.453 115.926 -56.453 H70.007 V-34.97 Z"/></g><g id="Thin-L" transform="matrix(1 0 0 1 787.282 1556)"><path d="M67.923 -28.619 Q65.542 -28.619 63.936 -30.225 Q62.329 -31.831 62.329 -34.213 V-55.337 Q62.329 -58.435 64.433 -60.539 Q66.537 -62.642 69.635 -62.642 H113.818 Q122.319 -62.642 128.258 -56.74 Q134.197 -50.837 134.197 -42.387 V-34.213 Q134.197 -31.831 132.533 -30.225 Q130.868 -28.619 128.764 -28.619 H67.923 Z M130.786 -8.5 H24.175 Q22.637 -8.5 21.601 -9.575 Q20.566 -10.651 20.566 -12.093 Q20.566 -13.536 21.601 -14.547 Q22.637 -15.557 24.175 -15.557 H130.786 Q132.167 -15.557 133.201 -14.512 Q134.234 -13.466 134.234 -12.023 Q134.234 -10.581 133.201 -9.54 Q132.167 -8.5 130.786 -8.5 Z M35.661 -29.586 Q29.186 -29.586 24.876 -33.897 Q20.566 -38.207 20.566 -44.682 Q20.566 -51.157 24.876 -55.467 Q29.186 -59.777 35.661 -59.777 Q42.136 -59.777 46.446 -55.467 Q50.757 -51.157 50.757 -44.682 Q50.757 -38.207 46.446 -33.897 Q42.136 -29.586 35.661 -29.586 Z M35.657 -36.644 Q38.958 -36.644 41.328 -39.01 Q43.699 -41.376 43.699 -44.677 Q43.699 -47.979 41.333 -50.349 Q38.967 -52.719 35.665 -52.719 Q32.364 -52.719 29.994 -50.353 Q27.623 -47.987 27.623 -44.686 Q27.623 -41.385 29.989 -39.014 Q32.355 -36.644 35.657 -36.644 Z M69.387 -35.838 H127.139 V-42.387 Q127.139 -47.744 123.226 -51.664 Q119.313 -55.585 113.818 -55.585 H69.387 V-35.838 Z"/></g><g id="Ultralight-L" transform="matrix(1 0 0 1 491.205 1556)"><path d="M68.854 -30.554 Q66.52 -30.554 64.946 -32.128 Q63.371 -33.702 63.371 -36.036 V-54.741 Q63.371 -57.281 65.085 -58.994 Q66.798 -60.707 69.338 -60.707 H112.553 Q120.363 -60.707 125.81 -55.308 Q131.257 -49.908 131.257 -42.164 V-36.036 Q131.257 -33.702 129.607 -32.128 Q127.956 -30.554 125.936 -30.554 H68.854 Z M128.516 -10.881 H26.445 Q25.207 -10.881 24.375 -11.754 Q23.543 -12.627 23.543 -13.77 Q23.543 -14.912 24.375 -15.719 Q25.207 -16.525 26.445 -16.525 H128.516 Q129.597 -16.525 130.427 -15.682 Q131.257 -14.839 131.257 -13.696 Q131.257 -12.553 130.427 -11.717 Q129.597 -10.881 128.516 -10.881 Z M36.926 -31.521 Q31.121 -31.521 27.332 -35.311 Q23.543 -39.1 23.543 -44.905 Q23.543 -50.71 27.332 -54.499 Q31.121 -58.289 36.926 -58.289 Q42.731 -58.289 46.521 -54.499 Q50.31 -50.71 50.31 -44.905 Q50.31 -39.1 46.521 -35.311 Q42.731 -31.521 36.926 -31.521 Z M36.921 -37.165 Q40.095 -37.165 42.381 -39.445 Q44.666 -41.725 44.666 -44.899 Q44.666 -48.074 42.386 -50.359 Q40.106 -52.645 36.932 -52.645 Q33.758 -52.645 31.472 -50.365 Q29.186 -48.085 29.186 -44.911 Q29.186 -41.736 31.466 -39.451 Q33.746 -37.165 36.921 -37.165 Z M69.015 -36.359 H125.614 V-42.164 Q125.614 -47.372 121.777 -51.218 Q117.94 -55.064 112.553 -55.064 H69.015 V-36.359 Z"/></g><g id="Bold-M" transform="matrix(1 0 0 1 2281.8 1126)"><path d="M56.875 -23.23 Q53.25 -23.23 50.812 -25.755 Q48.375 -28.28 48.375 -31.73 V-46.105 Q48.375 -53.23 53.312 -58.167 Q58.25 -63.105 65.375 -63.105 H91.375 Q101.625 -63.105 108.875 -55.855 Q116.125 -48.605 116.125 -38.355 V-31.73 Q116.125 -28.28 113.6 -25.755 Q111.075 -23.23 107.625 -23.23 H56.875 Z M107.625 -1.105 H12.375 Q8.925 -1.105 6.4 -3.63 Q3.875 -6.155 3.875 -9.605 Q3.875 -13.23 6.4 -15.667 Q8.925 -18.105 12.375 -18.105 H107.625 Q111.075 -18.105 113.6 -15.667 Q116.125 -13.23 116.125 -9.667 Q116.125 -6.105 113.6 -3.605 Q111.075 -1.105 107.625 -1.105 Z M23.493 -23.855 Q15.073 -23.855 9.474 -29.485 Q3.875 -35.115 3.875 -43.48 Q3.875 -51.897 9.505 -57.563 Q15.135 -63.23 23.5 -63.23 Q31.917 -63.23 37.583 -57.561 Q43.25 -51.892 43.25 -43.473 Q43.25 -35.053 37.581 -29.454 Q31.912 -23.855 23.493 -23.855 Z M23.562 -38.855 Q25.45 -38.855 26.788 -40.185 Q28.125 -41.514 28.125 -43.48 Q28.125 -45.305 26.795 -46.705 Q25.466 -48.105 23.5 -48.105 Q21.675 -48.105 20.275 -46.705 Q18.875 -45.305 18.875 -43.417 Q18.875 -41.53 20.275 -40.192 Q21.675 -38.855 23.562 -38.855 Z M63.5 -38.355 H101.125 Q101.125 -42.296 98.22 -45.2 Q95.316 -48.105 91.375 -48.105 H63.5 V-38.355 Z"/></g><g id="Semibold-M" transform="matrix(1 0 0 1 1985.97 1126)"><path d="M55.136 -23.991 Q51.891 -23.991 49.671 -26.26 Q47.451 -28.53 47.451 -31.676 V-47.572 Q47.451 -54.045 51.9 -58.494 Q56.348 -62.942 62.821 -62.942 H91.212 Q101.082 -62.942 108.033 -55.991 Q114.984 -49.04 114.984 -39.17 V-31.676 Q114.984 -28.53 112.714 -26.26 Q110.445 -23.991 107.299 -23.991 H55.136 Z M107.299 -3.442 H12.701 Q9.555 -3.442 7.286 -5.711 Q5.016 -7.981 5.016 -11.127 Q5.016 -14.371 7.286 -16.591 Q9.555 -18.811 12.701 -18.811 H107.299 Q110.445 -18.811 112.714 -16.591 Q114.984 -14.371 114.984 -11.162 Q114.984 -7.953 112.714 -5.697 Q110.445 -3.442 107.299 -3.442 Z M23.605 -24.996 Q15.639 -24.996 10.328 -30.325 Q5.016 -35.654 5.016 -43.589 Q5.016 -51.552 10.345 -56.902 Q15.674 -62.252 23.609 -62.252 Q31.573 -62.252 36.922 -56.901 Q42.272 -51.55 42.272 -43.584 Q42.272 -35.619 36.921 -30.308 Q31.57 -24.996 23.605 -24.996 Z M23.644 -39.235 Q25.45 -39.235 26.706 -40.487 Q27.962 -41.738 27.962 -43.589 Q27.962 -45.359 26.71 -46.651 Q25.459 -47.942 23.609 -47.942 Q21.838 -47.942 20.547 -46.651 Q19.255 -45.359 19.255 -43.553 Q19.255 -41.747 20.547 -40.491 Q21.838 -39.235 23.644 -39.235 Z M61.761 -38.409 H100.745 V-39.17 Q100.745 -43.056 97.921 -45.88 Q95.098 -48.703 91.212 -48.703 H61.761 V-38.409 Z"/></g><g id="Medium-M" transform="matrix(1 0 0 1 1689.91 1126)"><path d="M53.831 -24.561 Q50.872 -24.561 48.815 -26.639 Q46.758 -28.717 46.758 -31.635 V-48.673 Q46.758 -54.657 50.84 -58.738 Q54.921 -62.82 60.905 -62.82 H91.09 Q100.674 -62.82 107.401 -56.093 Q114.128 -49.366 114.128 -39.782 V-31.635 Q114.128 -28.717 112.05 -26.639 Q109.972 -24.561 107.054 -24.561 H53.831 Z M107.054 -5.195 H12.946 Q10.028 -5.195 7.95 -7.273 Q5.872 -9.351 5.872 -12.268 Q5.872 -15.227 7.95 -17.284 Q10.028 -19.341 12.946 -19.341 H107.054 Q109.972 -19.341 112.05 -17.284 Q114.128 -15.227 114.128 -12.283 Q114.128 -9.339 112.05 -7.267 Q109.972 -5.195 107.054 -5.195 Z M23.689 -25.852 Q16.064 -25.852 10.968 -30.955 Q5.872 -36.059 5.872 -43.67 Q5.872 -51.294 10.975 -56.406 Q16.079 -61.518 23.69 -61.518 Q31.314 -61.518 36.426 -56.406 Q41.538 -51.293 41.538 -43.668 Q41.538 -36.044 36.426 -30.948 Q31.313 -25.852 23.689 -25.852 Z M23.705 -39.521 Q25.45 -39.521 26.645 -40.714 Q27.84 -41.907 27.84 -43.67 Q27.84 -45.4 26.647 -46.61 Q25.454 -47.82 23.69 -47.82 Q21.96 -47.82 20.75 -46.61 Q19.541 -45.4 19.541 -43.655 Q19.541 -41.91 20.75 -40.716 Q21.96 -39.521 23.705 -39.521 Z M60.456 -38.45 H100.459 V-39.782 Q100.459 -43.627 97.697 -46.389 Q94.935 -49.151 91.09 -49.151 H60.456 V-38.45 Z"/></g><g id="Regular-M" transform="matrix(1 0 0 1 1394.06 1126)"><path d="M52.875 -24.98 Q50.125 -24.98 48.188 -26.917 Q46.25 -28.855 46.25 -31.605 V-49.48 Q46.25 -55.105 50.062 -58.917 Q53.875 -62.73 59.5 -62.73 H91 Q100.375 -62.73 106.938 -56.167 Q113.5 -49.605 113.5 -40.23 V-31.605 Q113.5 -28.855 111.562 -26.917 Q109.625 -24.98 106.875 -24.98 H52.875 Z M106.875 -6.48 H13.125 Q10.375 -6.48 8.438 -8.417 Q6.5 -10.355 6.5 -13.105 Q6.5 -15.855 8.438 -17.792 Q10.375 -19.73 13.125 -19.73 H106.875 Q109.625 -19.73 111.562 -17.792 Q113.5 -15.855 113.5 -13.105 Q113.5 -10.355 111.562 -8.417 Q109.625 -6.48 106.875 -6.48 Z M23.75 -26.48 Q16.375 -26.48 11.438 -31.417 Q6.5 -36.355 6.5 -43.73 Q6.5 -51.105 11.438 -56.042 Q16.375 -60.98 23.75 -60.98 Q31.125 -60.98 36.062 -56.042 Q41 -51.105 41 -43.73 Q41 -36.355 36.062 -31.417 Q31.125 -26.48 23.75 -26.48 Z M23.75 -39.73 Q25.45 -39.73 26.6 -40.88 Q27.75 -42.03 27.75 -43.73 Q27.75 -45.43 26.6 -46.58 Q25.45 -47.73 23.75 -47.73 Q22.05 -47.73 20.9 -46.58 Q19.75 -45.43 19.75 -43.73 Q19.75 -42.03 20.9 -40.88 Q22.05 -39.73 23.75 -39.73 Z M59.5 -38.48 H100.25 V-40.23 Q100.25 -44.046 97.533 -46.763 Q94.816 -49.48 91 -49.48 H59.5 V-38.48 Z"/></g><g id="Light-M" transform="matrix(1 0 0 1 1098.18 1126)"><path d="M53.74 -27.48 Q51.195 -27.48 49.395 -29.279 Q47.596 -31.079 47.596 -33.624 V-49.384 Q47.596 -54.047 50.688 -57.138 Q53.779 -60.23 58.442 -60.23 H89.654 Q97.997 -60.23 103.826 -54.402 Q109.654 -48.574 109.654 -40.23 V-33.624 Q109.654 -31.079 107.854 -29.279 Q106.055 -27.48 103.509 -27.48 H53.74 Z M104.279 -9.557 H15.721 Q13.503 -9.557 11.925 -11.136 Q10.347 -12.714 10.347 -14.934 Q10.347 -17.153 11.925 -18.73 Q13.503 -20.307 15.721 -20.307 H104.279 Q106.497 -20.307 108.076 -18.728 Q109.654 -17.15 109.654 -14.93 Q109.654 -12.711 108.076 -11.134 Q106.497 -9.557 104.279 -9.557 Z M25.385 -28.98 Q18.875 -28.98 14.611 -33.244 Q10.347 -37.509 10.347 -44.018 Q10.347 -50.528 14.611 -54.792 Q18.875 -59.057 25.385 -59.057 Q31.894 -59.057 36.159 -54.792 Q40.423 -50.528 40.423 -44.018 Q40.423 -37.509 36.159 -33.244 Q31.894 -28.98 25.385 -28.98 Z M25.385 -39.73 Q27.207 -39.73 28.44 -40.963 Q29.673 -42.196 29.673 -44.018 Q29.673 -45.841 28.44 -47.074 Q27.207 -48.307 25.385 -48.307 Q23.562 -48.307 22.329 -47.074 Q21.096 -45.841 21.096 -44.018 Q21.096 -42.196 22.329 -40.963 Q23.562 -39.73 25.385 -39.73 Z M58.346 -38.48 H98.904 V-40.23 Q98.904 -44.046 96.186 -46.763 Q93.469 -49.48 89.654 -49.48 H58.346 V-38.48 Z"/></g><g id="Thin-M" transform="matrix(1 0 0 1 802.565 1126)"><path d="M54.606 -29.98 Q52.264 -29.98 50.603 -31.641 Q48.942 -33.302 48.942 -35.643 V-49.288 Q48.942 -52.99 51.312 -55.36 Q53.683 -57.73 57.385 -57.73 H88.308 Q95.62 -57.73 100.714 -52.636 Q105.808 -47.542 105.808 -40.23 V-35.643 Q105.808 -33.302 104.147 -31.641 Q102.486 -29.98 100.144 -29.98 H54.606 Z M101.683 -12.634 H18.317 Q16.63 -12.634 15.411 -13.853 Q14.192 -15.073 14.192 -16.762 Q14.192 -18.451 15.411 -19.667 Q16.63 -20.884 18.317 -20.884 H101.683 Q103.37 -20.884 104.589 -19.664 Q105.808 -18.444 105.808 -16.755 Q105.808 -15.066 104.589 -13.85 Q103.37 -12.634 101.683 -12.634 Z M27.019 -31.48 Q21.375 -31.48 17.784 -35.071 Q14.192 -38.663 14.192 -44.307 Q14.192 -49.951 17.784 -53.542 Q21.375 -57.134 27.019 -57.134 Q32.663 -57.134 36.255 -53.542 Q39.846 -49.951 39.846 -44.307 Q39.846 -38.663 36.255 -35.071 Q32.663 -31.48 27.019 -31.48 Z M27.019 -39.73 Q28.964 -39.73 30.28 -41.046 Q31.596 -42.362 31.596 -44.307 Q31.596 -46.252 30.28 -47.568 Q28.964 -48.884 27.019 -48.884 Q25.074 -48.884 23.758 -47.568 Q22.442 -46.252 22.442 -44.307 Q22.442 -42.362 23.758 -41.046 Q25.074 -39.73 27.019 -39.73 Z M57.192 -38.48 H97.558 V-40.23 Q97.558 -44.046 94.841 -46.763 Q92.123 -49.48 88.308 -49.48 H57.192 V-38.48 Z"/></g><g id="Ultralight-M" transform="matrix(1 0 0 1 506.415 1126)"><path d="M55.125 -31.48 Q52.906 -31.48 51.328 -33.058 Q49.75 -34.636 49.75 -36.855 V-49.23 Q49.75 -52.355 51.688 -54.292 Q53.625 -56.23 56.75 -56.23 H87.5 Q94.194 -56.23 98.847 -51.577 Q103.5 -46.924 103.5 -40.23 V-36.855 Q103.5 -34.636 101.922 -33.058 Q100.344 -31.48 98.125 -31.48 H55.125 Z M100.125 -14.48 H19.875 Q18.506 -14.48 17.503 -15.484 Q16.5 -16.489 16.5 -17.859 Q16.5 -19.23 17.503 -20.23 Q18.506 -21.23 19.875 -21.23 H100.125 Q101.494 -21.23 102.497 -20.226 Q103.5 -19.221 103.5 -17.851 Q103.5 -16.48 102.497 -15.48 Q101.494 -14.48 100.125 -14.48 Z M28 -32.98 Q22.875 -32.98 19.688 -36.167 Q16.5 -39.355 16.5 -44.48 Q16.5 -49.605 19.688 -52.792 Q22.875 -55.98 28 -55.98 Q33.125 -55.98 36.312 -52.792 Q39.5 -49.605 39.5 -44.48 Q39.5 -39.355 36.312 -36.167 Q33.125 -32.98 28 -32.98 Z M28 -39.73 Q30.019 -39.73 31.384 -41.096 Q32.75 -42.461 32.75 -44.48 Q32.75 -46.499 31.384 -47.864 Q30.019 -49.23 28 -49.23 Q25.981 -49.23 24.616 -47.864 Q23.25 -46.499 23.25 -44.48 Q23.25 -42.461 24.616 -41.096 Q25.981 -39.73 28 -39.73 Z M56.5 -38.48 H96.75 V-40.23 Q96.75 -44.046 94.033 -46.763 Q91.316 -49.48 87.5 -49.48 H56.5 V-38.48 Z"/></g><g id="Bold-S" transform="matrix(1 0 0 1 2294.23 696)"><path d="M46.847 -24.184 Q44.154 -24.184 42.345 -26.063 Q40.535 -27.942 40.535 -30.496 V-43.81 Q40.535 -49.107 44.199 -52.77 Q47.863 -56.434 53.159 -56.434 H72.095 Q79.59 -56.434 84.818 -51.207 Q90.045 -45.98 90.045 -38.485 V-30.496 Q90.045 -27.942 88.166 -26.063 Q86.287 -24.184 83.733 -24.184 H46.847 Z M83.733 -6.727 H10.947 Q8.393 -6.727 6.514 -8.6 Q4.635 -10.473 4.635 -13.019 Q4.635 -15.702 6.514 -17.527 Q8.393 -19.351 10.947 -19.351 H83.733 Q86.287 -19.351 88.166 -17.548 Q90.045 -15.744 90.045 -13.109 Q90.045 -10.475 88.166 -8.601 Q86.287 -6.727 83.733 -6.727 Z M20.114 -24.677 Q13.47 -24.677 9.053 -29.119 Q4.635 -33.562 4.635 -40.161 Q4.635 -46.802 9.078 -51.273 Q13.52 -55.744 20.12 -55.744 Q26.76 -55.744 31.231 -51.271 Q35.702 -46.799 35.702 -40.155 Q35.702 -33.512 31.23 -29.095 Q26.757 -24.677 20.114 -24.677 Z M20.169 -35.723 Q21.993 -35.723 23.276 -36.999 Q24.558 -38.275 24.558 -40.161 Q24.558 -41.936 23.282 -43.268 Q22.006 -44.599 20.12 -44.599 Q18.344 -44.599 17.013 -43.268 Q15.681 -41.936 15.681 -40.112 Q15.681 -38.287 17.013 -37.005 Q18.344 -35.723 20.169 -35.723 Z M51.68 -35.329 H78.999 V-38.485 Q78.999 -41.268 76.939 -43.328 Q74.879 -45.388 72.095 -45.388 H51.68 V-35.329 Z"/></g><g id="Semibold-S" transform="matrix(1 0 0 1 1998.1 696)"><path d="M45.475 -24.784 Q43.082 -24.784 41.444 -26.462 Q39.806 -28.139 39.806 -30.453 V-44.968 Q39.806 -49.75 43.084 -53.028 Q46.362 -56.306 51.144 -56.306 H71.966 Q79.162 -56.306 84.153 -51.314 Q89.144 -46.323 89.144 -39.128 V-30.453 Q89.144 -28.139 87.467 -26.462 Q85.79 -24.784 83.475 -24.784 H45.475 Z M83.475 -8.571 H11.205 Q8.89 -8.571 7.213 -10.242 Q5.536 -11.914 5.536 -14.219 Q5.536 -16.603 7.213 -18.256 Q8.89 -19.909 11.205 -19.909 H83.475 Q85.79 -19.909 87.467 -18.276 Q89.144 -16.644 89.144 -14.289 Q89.144 -11.933 87.467 -10.252 Q85.79 -8.571 83.475 -8.571 Z M20.202 -25.578 Q13.917 -25.578 9.726 -29.782 Q5.536 -33.987 5.536 -40.247 Q5.536 -46.53 9.74 -50.751 Q13.945 -54.972 20.205 -54.972 Q26.489 -54.972 30.71 -50.75 Q34.93 -46.528 34.93 -40.244 Q34.93 -33.959 30.709 -29.768 Q26.487 -25.578 20.202 -25.578 Z M20.233 -36.023 Q21.993 -36.023 23.211 -37.238 Q24.429 -38.452 24.429 -40.247 Q24.429 -41.979 23.215 -43.225 Q22 -44.471 20.205 -44.471 Q18.473 -44.471 17.227 -43.225 Q15.981 -41.979 15.981 -40.219 Q15.981 -38.459 17.227 -37.241 Q18.473 -36.023 20.233 -36.023 Z M50.307 -35.372 H78.699 V-39.128 Q78.699 -41.869 76.703 -43.864 Q74.707 -45.86 71.966 -45.86 H50.307 V-35.372 Z"/></g><g id="Medium-S" transform="matrix(1 0 0 1 1701.85 696)"><path d="M44.446 -25.235 Q42.278 -25.235 40.769 -26.761 Q39.259 -28.287 39.259 -30.421 V-45.836 Q39.259 -50.232 42.248 -53.221 Q45.236 -56.209 49.632 -56.209 H71.87 Q78.84 -56.209 83.654 -51.395 Q88.469 -46.58 88.469 -39.61 V-30.421 Q88.469 -28.287 86.943 -26.761 Q85.417 -25.235 83.282 -25.235 H44.446 Z M83.282 -9.954 H11.398 Q9.263 -9.954 7.737 -11.474 Q6.211 -12.994 6.211 -15.12 Q6.211 -17.278 7.737 -18.803 Q9.263 -20.327 11.398 -20.327 H83.282 Q85.417 -20.327 86.943 -18.823 Q88.469 -17.32 88.469 -15.173 Q88.469 -13.026 86.943 -11.49 Q85.417 -9.954 83.282 -9.954 Z M20.268 -26.253 Q14.252 -26.253 10.232 -30.279 Q6.211 -34.306 6.211 -40.311 Q6.211 -46.327 10.238 -50.36 Q14.264 -54.393 20.27 -54.393 Q26.285 -54.393 30.318 -50.36 Q34.351 -46.326 34.351 -40.31 Q34.351 -34.294 30.318 -30.274 Q26.284 -26.253 20.268 -26.253 Z M20.281 -36.248 Q21.993 -36.248 23.163 -37.417 Q24.332 -38.585 24.332 -40.311 Q24.332 -42.012 23.164 -43.193 Q21.996 -44.374 20.27 -44.374 Q18.569 -44.374 17.388 -43.193 Q16.207 -42.012 16.207 -40.3 Q16.207 -38.587 17.388 -37.418 Q18.569 -36.248 20.281 -36.248 Z M49.278 -35.404 H78.473 V-39.61 Q78.473 -42.319 76.526 -44.266 Q74.578 -46.214 71.87 -46.214 H49.278 V-35.404 Z"/></g><g id="Regular-S" transform="matrix(1 0 0 1 1405.73 696)"><path d="M43.691 -25.565 Q41.689 -25.565 40.274 -26.98 Q38.858 -28.395 38.858 -30.397 V-46.473 Q38.858 -50.586 41.635 -53.362 Q44.411 -56.138 48.524 -56.138 H71.799 Q78.604 -56.138 83.289 -51.454 Q87.974 -46.769 87.974 -39.964 V-30.397 Q87.974 -28.395 86.558 -26.98 Q85.143 -25.565 83.141 -25.565 H43.691 Z M83.141 -10.968 H11.539 Q9.537 -10.968 8.122 -12.378 Q6.707 -13.787 6.707 -15.78 Q6.707 -17.773 8.122 -19.203 Q9.537 -20.633 11.539 -20.633 H83.141 Q85.143 -20.633 86.558 -19.224 Q87.974 -17.815 87.974 -15.822 Q87.974 -13.828 86.558 -12.398 Q85.143 -10.968 83.141 -10.968 Z M20.317 -26.748 Q14.498 -26.748 10.602 -30.644 Q6.707 -34.54 6.707 -40.358 Q6.707 -46.177 10.602 -50.073 Q14.498 -53.969 20.317 -53.969 Q26.136 -53.969 30.031 -50.073 Q33.927 -46.177 33.927 -40.358 Q33.927 -34.54 30.031 -30.644 Q26.136 -26.748 20.317 -26.748 Z M20.317 -36.413 Q21.993 -36.413 23.128 -37.548 Q24.262 -38.682 24.262 -40.358 Q24.262 -42.035 23.128 -43.169 Q21.993 -44.303 20.317 -44.303 Q18.64 -44.303 17.506 -43.169 Q16.372 -42.035 16.372 -40.358 Q16.372 -38.682 17.506 -37.548 Q18.64 -36.413 20.317 -36.413 Z M48.524 -35.427 H78.308 V-39.964 Q78.308 -42.649 76.396 -44.561 Q74.484 -46.473 71.799 -46.473 H48.524 V-35.427 Z"/></g><g id="Light-S" transform="matrix(1 0 0 1 1109.75 696)"><path d="M44.374 -27.537 Q42.533 -27.537 41.227 -28.844 Q39.92 -30.15 39.92 -31.991 V-46.397 Q39.92 -49.751 42.128 -51.959 Q44.335 -54.166 47.689 -54.166 H70.737 Q76.728 -54.166 80.833 -50.061 Q84.939 -45.955 84.939 -39.964 V-31.991 Q84.939 -30.15 83.632 -28.844 Q82.326 -27.537 80.485 -27.537 H44.374 Z M81.092 -13.396 H13.588 Q12.005 -13.396 10.873 -14.522 Q9.741 -15.648 9.741 -17.223 Q9.741 -18.798 10.873 -19.943 Q12.005 -21.089 13.588 -21.089 H81.092 Q82.675 -21.089 83.807 -19.963 Q84.939 -18.836 84.939 -17.262 Q84.939 -15.687 83.807 -14.542 Q82.675 -13.396 81.092 -13.396 Z M21.607 -28.721 Q16.47 -28.721 13.106 -32.085 Q9.741 -35.45 9.741 -40.586 Q9.741 -45.722 13.106 -49.087 Q16.47 -52.451 21.607 -52.451 Q26.743 -52.451 30.107 -49.087 Q33.472 -45.722 33.472 -40.586 Q33.472 -35.45 30.107 -32.085 Q26.743 -28.721 21.607 -28.721 Z M21.607 -36.413 Q23.38 -36.413 24.58 -37.613 Q25.779 -38.813 25.779 -40.586 Q25.779 -42.36 24.58 -43.559 Q23.38 -44.759 21.607 -44.759 Q19.833 -44.759 18.634 -43.559 Q17.434 -42.36 17.434 -40.586 Q17.434 -38.813 18.634 -37.613 Q19.833 -36.413 21.607 -36.413 Z M47.613 -35.427 H77.246 V-39.964 Q77.246 -42.649 75.334 -44.561 Q73.422 -46.473 70.737 -46.473 H47.613 V-35.427 Z"/></g><g id="Thin-S" transform="matrix(1 0 0 1 814.015 696)"><path d="M45.056 -29.51 Q43.377 -29.51 42.18 -30.707 Q40.982 -31.904 40.982 -33.584 V-46.322 Q40.982 -48.917 42.621 -50.555 Q44.259 -52.193 46.854 -52.193 H69.675 Q74.853 -52.193 78.378 -48.668 Q81.904 -45.142 81.904 -39.964 V-33.584 Q81.904 -31.904 80.707 -30.707 Q79.51 -29.51 77.83 -29.51 H45.056 Z M79.044 -15.824 H15.636 Q14.472 -15.824 13.624 -16.667 Q12.776 -17.51 12.776 -18.666 Q12.776 -19.822 13.624 -20.683 Q14.472 -21.544 15.636 -21.544 H79.044 Q80.208 -21.544 81.056 -20.701 Q81.904 -19.858 81.904 -18.702 Q81.904 -17.546 81.056 -16.685 Q80.208 -15.824 79.044 -15.824 Z M22.896 -30.693 Q18.443 -30.693 15.609 -33.527 Q12.776 -36.36 12.776 -40.814 Q12.776 -45.267 15.609 -48.101 Q18.443 -50.934 22.896 -50.934 Q27.35 -50.934 30.183 -48.101 Q33.017 -45.267 33.017 -40.814 Q33.017 -36.36 30.183 -33.527 Q27.35 -30.693 22.896 -30.693 Z M22.896 -36.413 Q24.766 -36.413 26.031 -37.679 Q27.296 -38.944 27.296 -40.814 Q27.296 -42.684 26.031 -43.949 Q24.766 -45.214 22.896 -45.214 Q21.026 -45.214 19.761 -43.949 Q18.496 -42.684 18.496 -40.814 Q18.496 -38.944 19.761 -37.679 Q21.026 -36.413 22.896 -36.413 Z M46.703 -35.427 H76.184 V-39.964 Q76.184 -42.649 74.272 -44.561 Q72.36 -46.473 69.675 -46.473 H46.703 V-35.427 Z"/></g><g id="Ultralight-S" transform="matrix(1 0 0 1 517.792 696)"><path d="M45.466 -30.693 Q43.883 -30.693 42.751 -31.825 Q41.62 -32.957 41.62 -34.54 V-46.276 Q41.62 -48.416 42.917 -49.713 Q44.214 -51.01 46.354 -51.01 H69.038 Q73.727 -51.01 76.905 -47.832 Q80.084 -44.654 80.084 -39.964 V-34.54 Q80.084 -32.957 78.952 -31.825 Q77.82 -30.693 76.237 -30.693 H45.466 Z M77.815 -17.28 H16.865 Q15.953 -17.28 15.275 -17.953 Q14.597 -18.626 14.597 -19.531 Q14.597 -20.436 15.275 -21.127 Q15.953 -21.817 16.865 -21.817 H77.815 Q78.727 -21.817 79.405 -21.144 Q80.084 -20.471 80.084 -19.566 Q80.084 -18.661 79.405 -17.971 Q78.727 -17.28 77.815 -17.28 Z M23.67 -31.877 Q19.626 -31.877 17.111 -34.392 Q14.597 -36.907 14.597 -40.95 Q14.597 -44.994 17.111 -47.509 Q19.626 -50.024 23.67 -50.024 Q27.714 -50.024 30.229 -47.509 Q32.744 -44.994 32.744 -40.95 Q32.744 -36.907 30.229 -34.392 Q27.714 -31.877 23.67 -31.877 Z M23.67 -36.413 Q25.598 -36.413 26.902 -37.718 Q28.207 -39.022 28.207 -40.95 Q28.207 -42.878 26.902 -44.183 Q25.598 -45.487 23.67 -45.487 Q21.742 -45.487 20.438 -44.183 Q19.133 -42.878 19.133 -40.95 Q19.133 -39.022 20.438 -37.718 Q21.742 -36.413 23.67 -36.413 Z M46.157 -35.427 H75.547 V-39.964 Q75.547 -42.649 73.635 -44.561 Q71.723 -46.473 69.038 -46.473 H46.157 V-35.427 Z"/></g></g></svg>