<svg xmlns="http://www.w3.org/2000/svg" height="24" viewBox="0 -960 960 960" width="24"><path d="M576.5-136q-19.4 0-32.95-13.55Q530-163.1 530-182.5v-160q0-19.4 13.55-32.95Q557.1-389 576.5-389h96q19.4 0 32.95 13.55Q719-361.9 719-342.5v160q0 19.4-13.55 32.95Q691.9-136 672.5-136h-96Zm26.5-73h43v-107h-43v107Zm190-24q-15.467 0-25.983-10.517Q756.5-254.033 756.5-269.5t10.517-25.983Q777.533-306 793-306h107.5q19.4 0 32.7 13.3 13.3 13.3 13.3 32.7v51q0 19.4-13.3 32.7-13.3 13.3-32.7 13.3h-71v34H910q15.467 0 25.983 10.517Q946.5-107.967 946.5-92.5t-10.517 25.983Q925.467-56 910-56H802.5q-19.4 0-32.7-13.3-13.3-13.3-13.3-32.7v-51q0-19.4 13.3-32.7 13.3-13.3 32.7-13.3h71v-34H793Zm-621.47 97q-67.03 0-114.28-48.75T10-301v-180.5q0-51.5 21.75-97.25T94.5-655.5l174.5-137q11.5-9 17.25-21.618Q292-826.735 292-841v-42q0-24.85 18-42.175 18-17.325 42.746-17.325 24.745 0 42 17.325Q412-907.85 412-883v42q0 14.265 6.75 26.882Q425.5-801.5 436-792.5l174.5 137q37.5 29.5 60.75 70.91t23.25 89.09q0 28-19.25 48.5t-47.75 20.5h-58q-31.825 0-54.412 22.587Q492.5-381.325 492.5-349.5V-184q0 16.5-14.5 26.5t-28.5 2Q414.5-176 394-212t-20.5-89v-388.5l-21-17-20.5 17V-301q-.5 67.5-46.97 116.25T171.53-136Z"/></svg>