<svg xmlns="http://www.w3.org/2000/svg" height="24" viewBox="0 -960 960 960" width="24"><path d="M565.5-151.869q-17.813 0-29.863-12.05t-12.05-29.863v-160q0-17.814 12.05-29.864t29.863-12.05h99.044q17.813 0 29.863 12.05t12.05 29.864v160q0 17.813-12.05 29.863t-29.863 12.05H565.5Zm21.913-63.827h55.217v-116.173h-55.217v116.173Zm190.957-36.173q-13.829 0-22.871-9.042-9.042-9.042-9.042-22.871 0-13.829 9.042-22.872 9.042-9.042 22.871-9.042h109.282q17.813 0 29.863 12.05t12.05 29.864v66.173q0 17.813-12.05 29.863t-29.863 12.05h-77.369v30h87.369q13.829 0 22.871 9.042 9.042 9.043 9.042 22.872 0 13.828-9.042 22.87-9.042 9.043-22.871 9.043H788.37q-17.813 0-29.863-12.05t-12.05-29.863v-66.174q0-17.813 12.05-29.863t29.863-12.05h77.369v-30H778.37Zm-601.711 100q-61.398 0-103.811-43.913-42.413-43.914-42.413-106.305v-179.674q0-48.435 20.597-90.869 20.598-42.435 58.794-72.153l174.196-136.956q13.282-10.522 20.804-26.094 7.522-15.571 7.522-32.558v-42.239q0-19.236 13.174-32.249 13.174-13.012 32.385-13.012 19.21 0 32.206 13.012 12.996 13.013 12.996 32.249v42.239q0 16.987 7.641 32.558 7.641 15.572 21.685 26.094L606.63-644.783q36.718 29.479 57.174 69.734 20.457 40.256 20.457 87.136 0 21.391-14.294 36.804-14.293 15.413-36.684 15.413h-69.218q-33.197 0-56.837 23.641-23.641 23.64-23.641 56.838v153.869q0 13.196-11.076 19.772-11.076 6.576-22.272-.663-27.109-20.239-42.522-50.272-15.413-30.032-14.652-69.576v-394.717l-35.217-28.174-35.218 28.174v394.717q.761 62.391-41.905 106.305-42.667 43.913-104.066 43.913Z"/></svg>