<svg xmlns="http://www.w3.org/2000/svg" height="40" viewBox="0 -960 960 960" width="40"><path d="M780.333-957.333v556.666h-63l-40.666-41.665V-853H266.666L163-957.333h617.333ZM574.666-543.667 488-631.999q4.333-21.667 22.833-36.667 18.5-15.001 42.834-15.001 30.524 0 52.262 21.738 21.737 21.737 21.737 52.262 0 24.334-15.333 43-15.334 18.667-37.667 23ZM337.667-455v-229.333L439-583.667q-5.274 59.162-29.204 93.914Q385.867-455 348.333-455h-10.666ZM156.666-187.333h566.002l-53.334-53.334H156.666v53.334Zm685.001 119-14.333-14.334H52v-263.332h512.001L284.333-625.001v224.334H180.667v-328.667L22-888.001l56.333-56.333L898-124l-56.333 55.666Zm-402.333-119Zm32.332-460.333Zm-74.333 133.999Z"/></svg>