<svg xmlns="http://www.w3.org/2000/svg" height="40" viewBox="0 -960 960 960" width="40"><path d="M685.244-257.769q-7.154 0-11.603-4.615-4.449-4.616-4.449-11.962v-277.257l-75.987 76.372q-4.679 4.295-11.487 4.68-6.808.384-11.487-4.68-5.064-5.064-5.064-11.487t5.064-11.487l95.129-95.475q8.179-8.218 19.884-8.218t20.256 8.218l95.104 95.475q4.332 4.295 4.524 11.102.193 6.808-4.679 11.872t-11.487 5.064q-6.616 0-11.295-5.064l-75.889-76.372v277.257q0 7.346-4.69 11.962-4.69 4.615-11.844 4.615ZM253.231-378.346l-37.983 110.244q-1.897 4.461-5.887 7.397-3.989 2.936-9.096 2.936-8.38 0-12.932-6.731-4.551-6.731-.833-14.346l135.217-374.641q1.782-4.911 6.341-7.911 4.558-3 9.468-3h11.289q4.031 0 8.667 2.988 4.635 2.988 6.961 7.878l137.704 373.721q2.828 7.991-2.435 15.016-5.263 7.026-13.244 7.026-5.346 0-9.909-2.769-4.563-2.77-6.056-8.911l-37.964-108.897H253.231Zm11.602-28.526h157.296L344.5-627.103h-1.859l-77.808 220.231Z"/></svg>