<svg xmlns="http://www.w3.org/2000/svg" version="1.1" width="3300" height="2000"><g id="Notes"><style>
    text {
      font-family: monospace;
      text-anchor: middle;
    }
    text.emphasis {
      font-weight:bold;
    }
    text.lanchor {
      text-anchor: start;
    }
  </style><rect height="2200" id="artboard" fill="white" width="3300" x="0" y="0"/><line id="" style="fill:none;stroke:black;stroke-width:0.5;" x1="263" x2="3036" y1="292" y2="292"/><text class="lanchor emphasis" transform="matrix(1 0 0 1 263 322)">Weight/Scale Variations</text><text transform="matrix(1 0 0 1 559.711 322)">Ultralight</text><text transform="matrix(1 0 0 1 856.422 322)">Thin</text><text transform="matrix(1 0 0 1 1153.13 322)">Light</text><text transform="matrix(1 0 0 1 1449.84 322)">Regular</text><text transform="matrix(1 0 0 1 1746.56 322)">Medium</text><text transform="matrix(1 0 0 1 2043.27 322)">Semibold</text><text transform="matrix(1 0 0 1 2339.98 322)">Bold</text><text transform="matrix(1 0 0 1 2636.69 322)">Heavy</text><text transform="matrix(1 0 0 1 2933.4 322)">Black</text><text id="template-version" style="text-anchor: end;" transform="matrix(1 0 0 1 3036 1933)">Template v.1.0</text><text class="lanchor" transform="matrix(1 0 0 1 263 726)">Small</text><text class="lanchor" transform="matrix(1 0 0 1 263 1156)">Medium</text><text class="lanchor" transform="matrix(1 0 0 1 263 1586)">Large</text></g><g id="Guides"><g id="H-reference" style="fill:#27AAE1;stroke:none;" transform="matrix(1 0 0 1 339 696)"><path d="M 54.9316 0 L 57.666 0 L 30.5664 -70.459 L 28.0762 -70.459 L 0.976562 0 L 3.66211 0 L 12.9395 -24.4629 L 45.7031 -24.4629 Z M 29.1992 -67.0898 L 29.4434 -67.0898 L 44.8242 -26.709 L 13.8184 -26.709 Z"/></g><line id="Baseline-S" style="fill:none;stroke:#27AAE1;opacity:1;stroke-width:0.577;" x1="263" x2="3036" y1="696" y2="696"/><line id="Capline-S" style="fill:none;stroke:#27AAE1;opacity:1;stroke-width:0.577;" x1="263" x2="3036" y1="625.541" y2="625.541"/><g id="H-reference" style="fill:#27AAE1;stroke:none;" transform="matrix(1 0 0 1 339 1126)"><path d="M 54.9316 0 L 57.666 0 L 30.5664 -70.459 L 28.0762 -70.459 L 0.976562 0 L 3.66211 0 L 12.9395 -24.4629 L 45.7031 -24.4629 Z M 29.1992 -67.0898 L 29.4434 -67.0898 L 44.8242 -26.709 L 13.8184 -26.709 Z"/></g><line id="Baseline-M" style="fill:none;stroke:#27AAE1;opacity:1;stroke-width:0.577;" x1="263" x2="3036" y1="1126" y2="1126"/><line id="Capline-M" style="fill:none;stroke:#27AAE1;opacity:1;stroke-width:0.577;" x1="263" x2="3036" y1="1055.54" y2="1055.54"/><g id="H-reference" style="fill:#27AAE1;stroke:none;" transform="matrix(1 0 0 1 339 1556)"><path d="M 54.9316 0 L 57.666 0 L 30.5664 -70.459 L 28.0762 -70.459 L 0.976562 0 L 3.66211 0 L 12.9395 -24.4629 L 45.7031 -24.4629 Z M 29.1992 -67.0898 L 29.4434 -67.0898 L 44.8242 -26.709 L 13.8184 -26.709 Z"/></g><line id="Baseline-L" style="fill:none;stroke:#27AAE1;opacity:1;stroke-width:0.577;" x1="263" x2="3036" y1="1556" y2="1556"/><line id="Capline-L" style="fill:none;stroke:#27AAE1;opacity:1;stroke-width:0.577;" x1="263" x2="3036" y1="1485.54" y2="1485.54"/><rect height="119.336" id="left-margin" style="fill:darkred;stroke:none;opacity:0.4;" width="12.4512" x="1394.06" y="1030.79"/><rect height="119.336" id="right-margin" style="fill:darkgreen;stroke:none;opacity:0.4;" width="12.4512" x="1502.5112" y="1030.79"/><rect x="1406.5112" y="1045" width="96" height="96" fill="none" stroke="blue" stroke-dasharray="5"/><rect x="1394.06" y="1030.79" width="120.9024" height="119.336" fill="none" stroke="blue"/></g><g id="Symbols"><g id="Bold-L" transform="matrix(1 0 0 1 2266 1556)"><path d="M77.406 -16.847 Q72.24 -16.847 68.612 -20.486 Q64.984 -24.124 64.984 -29.425 Q64.984 -33.134 66.274 -36.117 Q67.564 -39.1 71.918 -45.55 L74.336 -49.097 Q75.523 -50.871 77.429 -50.871 Q79.335 -50.871 80.464 -49.097 L82.883 -45.55 Q87.236 -39.1 88.607 -36.117 Q89.978 -33.134 89.978 -29.425 Q89.978 -24.124 86.274 -20.486 Q82.571 -16.847 77.406 -16.847 Z M15.641 0.406 H43.538 Q39.506 -2.819 36.364 -7.106 Q33.222 -11.393 31.327 -16.525 H15.641 V0.406 Z M77.366 0.406 Q92.235 0.406 102.716 -9.96 Q113.198 -20.327 113.198 -35.196 Q113.198 -50.065 102.75 -60.546 Q92.303 -71.027 77.434 -71.027 Q62.565 -71.027 52.164 -60.58 Q41.764 -50.133 41.764 -35.264 Q41.764 -20.395 52.13 -9.994 Q62.497 0.406 77.366 0.406 Z M123.489 -54.096 H139.159 V-71.027 H111.424 Q115.316 -67.631 118.456 -63.398 Q121.596 -59.166 123.489 -54.096 Z M15.641 14.435 V16.37 Q15.641 19.232 13.587 21.268 Q11.533 23.304 8.679 23.304 Q5.644 23.304 3.628 21.258 Q1.613 19.212 1.613 16.37 V-32.327 Q1.613 -35.238 3.656 -37.33 Q5.7 -39.422 8.655 -39.422 Q11.61 -39.422 13.626 -37.33 Q15.641 -35.238 15.641 -32.327 V-30.554 H27.896 Q27.735 -31.682 27.735 -32.803 Q27.735 -33.924 27.735 -35.23 Q27.735 -56.07 42.181 -70.563 Q56.628 -85.056 77.4 -85.056 H139.159 V-86.83 Q139.159 -89.741 141.203 -91.833 Q143.247 -93.925 146.201 -93.925 Q149.156 -93.925 151.172 -91.833 Q153.188 -89.741 153.188 -86.83 V-38.132 Q153.188 -35.29 151.133 -33.245 Q149.079 -31.199 146.226 -31.199 Q143.19 -31.199 141.174 -33.245 Q139.159 -35.29 139.159 -38.132 V-40.067 H126.904 Q127.065 -38.777 127.146 -37.657 Q127.226 -36.536 127.226 -35.23 Q127.226 -14.458 112.733 -0.011 Q98.24 14.435 77.4 14.435 H15.641 Z"/></g><g id="Semibold-L" transform="matrix(1 0 0 1 1970.27 1556)"><path d="M77.397 -17.549 Q72.45 -17.549 68.962 -21.047 Q65.474 -24.545 65.474 -29.565 Q65.474 -33.274 66.694 -36.082 Q67.914 -38.89 72.058 -45.059 L74.827 -49.097 Q75.848 -50.591 77.416 -50.591 Q78.984 -50.591 79.973 -49.097 L82.742 -45.059 Q86.886 -38.89 88.151 -36.082 Q89.417 -33.274 89.417 -29.565 Q89.417 -24.545 85.88 -21.047 Q82.344 -17.549 77.397 -17.549 Z M15.852 0.336 H46.131 Q41.82 -3.099 38.431 -7.661 Q35.043 -12.222 32.99 -17.647 H15.852 V0.336 Z M77.366 0.336 Q92.165 0.336 102.611 -10.03 Q113.057 -20.397 113.057 -35.196 Q113.057 -49.995 102.645 -60.441 Q92.233 -70.887 77.434 -70.887 Q62.635 -70.887 52.235 -60.475 Q41.834 -50.063 41.834 -35.264 Q41.834 -20.465 52.2 -10.065 Q62.567 0.336 77.366 0.336 Z M121.819 -52.904 H138.948 V-70.887 H108.76 Q112.993 -67.355 116.38 -62.824 Q119.768 -58.294 121.819 -52.904 Z M15.852 12.472 V14.267 Q15.852 16.779 14.082 18.534 Q12.313 20.289 9.801 20.289 Q7.186 20.289 5.451 18.528 Q3.716 16.767 3.716 14.267 V-31.486 Q3.716 -34.025 5.479 -35.813 Q7.243 -37.6 9.812 -37.6 Q12.381 -37.6 14.116 -35.813 Q15.852 -34.025 15.852 -31.486 V-29.783 H29.999 Q29.768 -31.122 29.733 -32.421 Q29.698 -33.721 29.698 -35.23 Q29.698 -55.212 43.577 -69.117 Q57.456 -83.023 77.4 -83.023 H138.948 V-84.727 Q138.948 -87.266 140.712 -89.053 Q142.476 -90.84 145.045 -90.84 Q147.614 -90.84 149.349 -89.053 Q151.084 -87.266 151.084 -84.727 V-38.974 Q151.084 -36.473 149.315 -34.712 Q147.546 -32.951 145.034 -32.951 Q142.419 -32.951 140.684 -34.712 Q138.948 -36.473 138.948 -38.974 V-40.769 H124.801 Q125.032 -39.338 125.113 -38.039 Q125.193 -36.739 125.193 -35.23 Q125.193 -15.286 111.287 -1.407 Q97.382 12.472 77.4 12.472 H15.852 Z"/></g><g id="Medium-L" transform="matrix(1 0 0 1 1674.31 1556)"><path d="M77.39 -18.074 Q72.608 -18.074 69.225 -21.467 Q65.843 -24.86 65.843 -29.67 Q65.843 -33.379 67.01 -36.056 Q68.177 -38.732 72.163 -44.691 L75.195 -49.097 Q76.092 -50.381 77.407 -50.381 Q78.722 -50.381 79.605 -49.097 L82.637 -44.691 Q86.623 -38.732 87.809 -36.056 Q88.996 -33.379 88.996 -29.67 Q88.996 -24.86 85.584 -21.467 Q82.173 -18.074 77.39 -18.074 Z M16.009 0.284 H48.077 Q43.555 -3.309 39.982 -8.077 Q36.408 -12.844 34.238 -18.488 H16.009 V0.284 Z M77.366 0.284 Q92.112 0.284 102.532 -10.083 Q112.952 -20.449 112.952 -35.196 Q112.952 -49.942 102.566 -60.362 Q92.181 -70.782 77.434 -70.782 Q62.688 -70.782 52.287 -60.396 Q41.886 -50.011 41.886 -35.264 Q41.886 -20.518 52.253 -10.117 Q62.619 0.284 77.366 0.284 Z M120.566 -52.01 H138.791 V-70.782 H106.762 Q111.25 -67.148 114.823 -62.394 Q118.396 -57.64 120.566 -52.01 Z M16.009 11 V12.689 Q16.009 14.938 14.454 16.483 Q12.898 18.028 10.642 18.028 Q8.343 18.028 6.818 16.481 Q5.293 14.933 5.293 12.689 V-30.855 Q5.293 -33.116 6.846 -34.674 Q8.4 -36.233 10.68 -36.233 Q12.96 -36.233 14.484 -34.674 Q16.009 -33.116 16.009 -30.855 V-29.204 H31.577 Q31.293 -30.701 31.232 -32.134 Q31.17 -33.568 31.17 -35.23 Q31.17 -54.568 44.624 -68.033 Q58.078 -81.498 77.4 -81.498 H138.791 V-83.149 Q138.791 -85.41 140.344 -86.968 Q141.897 -88.527 144.177 -88.527 Q146.457 -88.527 147.982 -86.968 Q149.507 -85.41 149.507 -83.149 V-39.605 Q149.507 -37.361 147.951 -35.813 Q146.396 -34.266 144.14 -34.266 Q141.84 -34.266 140.316 -35.813 Q138.791 -37.361 138.791 -39.605 V-41.294 H123.223 Q123.507 -39.759 123.588 -38.326 Q123.668 -36.892 123.668 -35.23 Q123.668 -15.908 110.203 -2.454 Q96.738 11 77.4 11 H16.009 Z"/></g><g id="Regular-L" transform="matrix(1 0 0 1 1378.56 1556)"><path d="M77.386 -18.46 Q72.724 -18.46 69.418 -21.776 Q66.112 -25.091 66.112 -29.747 Q66.112 -33.456 67.241 -36.036 Q68.37 -38.616 72.24 -44.421 L75.465 -49.097 Q76.271 -50.226 77.4 -50.226 Q78.529 -50.226 79.335 -49.097 L82.56 -44.421 Q86.43 -38.616 87.559 -36.036 Q88.688 -33.456 88.688 -29.747 Q88.688 -25.091 85.368 -21.776 Q82.048 -18.46 77.386 -18.46 Z M16.125 0.245 H49.504 Q44.828 -3.464 41.119 -8.382 Q37.41 -13.3 35.153 -19.105 H16.125 V0.245 Z M77.366 0.245 Q92.074 0.245 102.474 -10.121 Q112.875 -20.488 112.875 -35.196 Q112.875 -49.904 102.509 -60.304 Q92.142 -70.705 77.434 -70.705 Q62.726 -70.705 52.326 -60.339 Q41.925 -49.972 41.925 -35.264 Q41.925 -20.556 52.291 -10.156 Q62.658 0.245 77.366 0.245 Z M119.648 -51.355 H138.675 V-70.705 H105.296 Q109.972 -66.996 113.681 -62.078 Q117.39 -57.16 119.648 -51.355 Z M16.125 9.92 V11.533 Q16.125 13.588 14.726 14.979 Q13.327 16.37 11.259 16.37 Q9.191 16.37 7.821 14.979 Q6.45 13.588 6.45 11.533 V-30.392 Q6.45 -32.448 7.849 -33.839 Q9.248 -35.23 11.316 -35.23 Q13.384 -35.23 14.754 -33.839 Q16.125 -32.448 16.125 -30.392 V-28.78 H32.734 Q32.411 -30.392 32.331 -31.924 Q32.25 -33.456 32.25 -35.23 Q32.25 -54.096 45.392 -67.238 Q58.534 -80.38 77.4 -80.38 H138.675 V-81.992 Q138.675 -84.048 140.074 -85.439 Q141.473 -86.83 143.541 -86.83 Q145.609 -86.83 146.979 -85.439 Q148.35 -84.048 148.35 -81.992 V-40.067 Q148.35 -38.012 146.951 -36.621 Q145.552 -35.23 143.484 -35.23 Q141.416 -35.23 140.046 -36.621 Q138.675 -38.012 138.675 -40.067 V-41.68 H122.066 Q122.389 -40.067 122.469 -38.536 Q122.55 -37.004 122.55 -35.23 Q122.55 -16.364 109.408 -3.222 Q96.266 9.92 77.4 9.92 H16.125 Z"/></g><g id="Light-L" transform="matrix(1 0 0 1 1082.77 1556)"><path d="M77.381 -20.321 Q73.158 -20.321 70.224 -23.268 Q67.291 -26.215 67.291 -30.43 Q67.291 -33.58 68.358 -35.974 Q69.424 -38.368 72.736 -43.305 L75.527 -47.361 Q76.271 -48.428 77.354 -48.428 Q78.436 -48.428 79.273 -47.361 L82.002 -43.305 Q85.475 -38.184 86.492 -35.858 Q87.509 -33.532 87.509 -30.43 Q87.509 -26.215 84.556 -23.268 Q81.604 -20.321 77.381 -20.321 Z M18.606 -0.623 H53.845 Q48.735 -4.146 44.716 -9.033 Q40.697 -13.92 38.316 -19.849 H18.606 V-0.623 Z M77.357 -0.623 Q91.702 -0.623 101.854 -10.733 Q112.007 -20.843 112.007 -35.187 Q112.007 -49.532 101.897 -59.684 Q91.787 -69.837 77.443 -69.837 Q63.098 -69.837 52.946 -59.727 Q42.793 -49.617 42.793 -35.273 Q42.793 -20.928 52.903 -10.776 Q63.013 -0.623 77.357 -0.623 Z M116.484 -50.611 H136.194 V-69.837 H100.955 Q106.065 -66.314 110.084 -61.427 Q114.103 -56.54 116.484 -50.611 Z M18.606 6.695 V8.741 Q18.606 10.297 17.545 11.349 Q16.484 12.401 14.915 12.401 Q13.347 12.401 12.317 11.349 Q11.288 10.297 11.288 8.741 V-29.214 Q11.288 -30.769 12.349 -31.821 Q13.41 -32.873 14.979 -32.873 Q16.547 -32.873 17.576 -31.821 Q18.606 -30.769 18.606 -29.214 V-27.167 H36.393 Q35.885 -29.152 35.68 -31.118 Q35.475 -33.084 35.475 -35.23 Q35.475 -52.749 47.678 -64.952 Q59.881 -77.155 77.4 -77.155 H136.194 V-79.201 Q136.194 -80.757 137.255 -81.809 Q138.316 -82.861 139.885 -82.861 Q141.453 -82.861 142.483 -81.809 Q143.512 -80.757 143.512 -79.201 V-41.246 Q143.512 -39.691 142.451 -38.639 Q141.39 -37.587 139.821 -37.587 Q138.253 -37.587 137.224 -38.639 Q136.194 -39.691 136.194 -41.246 V-43.293 H118.407 Q118.915 -41.308 119.12 -39.342 Q119.325 -37.376 119.325 -35.23 Q119.325 -17.711 107.122 -5.508 Q94.919 6.695 77.4 6.695 H18.606 Z"/></g><g id="Thin-L" transform="matrix(1 0 0 1 787.282 1556)"><path d="M77.376 -22.181 Q73.592 -22.181 71.031 -24.76 Q68.469 -27.338 68.469 -31.112 Q68.469 -33.704 69.474 -35.912 Q70.479 -38.12 73.232 -42.189 L75.589 -45.624 Q76.271 -46.629 77.307 -46.629 Q78.343 -46.629 79.211 -45.624 L81.444 -42.189 Q84.521 -37.752 85.426 -35.68 Q86.331 -33.607 86.331 -31.112 Q86.331 -27.338 83.745 -24.76 Q81.16 -22.181 77.376 -22.181 Z M21.087 -1.492 H58.186 Q52.642 -4.828 48.313 -9.684 Q43.984 -14.54 41.478 -20.593 H21.087 V-1.492 Z M77.349 -1.492 Q91.33 -1.492 101.234 -11.345 Q111.138 -21.199 111.138 -35.179 Q111.138 -49.16 101.285 -59.064 Q91.431 -68.968 77.451 -68.968 Q63.47 -68.968 53.566 -59.115 Q43.662 -49.261 43.662 -35.281 Q43.662 -21.3 53.515 -11.396 Q63.369 -1.492 77.349 -1.492 Z M113.322 -49.867 H133.713 V-68.968 H96.614 Q102.158 -65.632 106.487 -60.776 Q110.816 -55.92 113.322 -49.867 Z M21.087 3.47 V5.951 Q21.087 7.005 20.363 7.718 Q19.64 8.432 18.571 8.432 Q17.502 8.432 16.813 7.718 Q16.125 7.005 16.125 5.951 V-28.036 Q16.125 -29.09 16.848 -29.803 Q17.571 -30.517 18.64 -30.517 Q19.71 -30.517 20.398 -29.803 Q21.087 -29.09 21.087 -28.036 V-25.555 H40.052 Q39.357 -27.912 39.029 -30.312 Q38.7 -32.712 38.7 -35.23 Q38.7 -51.401 49.964 -62.666 Q61.229 -73.93 77.4 -73.93 H133.713 V-76.411 Q133.713 -77.465 134.437 -78.178 Q135.16 -78.892 136.229 -78.892 Q137.298 -78.892 137.987 -78.178 Q138.675 -77.465 138.675 -76.411 V-42.424 Q138.675 -41.37 137.952 -40.657 Q137.229 -39.943 136.16 -39.943 Q135.09 -39.943 134.402 -40.657 Q133.713 -41.37 133.713 -42.424 V-44.905 H114.748 Q115.443 -42.548 115.771 -40.148 Q116.1 -37.748 116.1 -35.23 Q116.1 -19.059 104.836 -7.794 Q93.571 3.47 77.4 3.47 H21.087 Z"/></g><g id="Ultralight-L" transform="matrix(1 0 0 1 491.205 1556)"><path d="M77.373 -23.297 Q73.853 -23.297 71.514 -25.655 Q69.176 -28.012 69.176 -31.521 Q69.176 -33.779 70.144 -35.875 Q71.111 -37.971 73.53 -41.519 L75.626 -44.582 Q76.271 -45.55 77.279 -45.55 Q78.287 -45.55 79.174 -44.582 L81.109 -41.519 Q83.948 -37.493 84.786 -35.573 Q85.624 -33.653 85.624 -31.521 Q85.624 -28.012 83.259 -25.655 Q80.893 -23.297 77.373 -23.297 Z M22.575 -2.012 H60.791 Q54.986 -5.237 50.471 -10.075 Q45.956 -14.912 43.376 -21.04 H22.575 V-2.012 Z M77.344 -2.012 Q91.106 -2.012 100.862 -11.712 Q110.618 -21.412 110.618 -35.174 Q110.618 -48.936 100.918 -58.692 Q91.218 -68.447 77.456 -68.447 Q63.694 -68.447 53.938 -58.748 Q44.183 -49.048 44.183 -35.286 Q44.183 -21.524 53.882 -11.768 Q63.582 -2.012 77.344 -2.012 Z M111.424 -49.42 H132.225 V-68.447 H94.009 Q99.814 -65.222 104.329 -60.385 Q108.844 -55.547 111.424 -49.42 Z M22.575 1.535 V4.276 Q22.575 5.03 22.054 5.54 Q21.534 6.05 20.764 6.05 Q19.995 6.05 19.511 5.54 Q19.027 5.03 19.027 4.276 V-27.329 Q19.027 -28.083 19.548 -28.593 Q20.069 -29.102 20.838 -29.102 Q21.608 -29.102 22.091 -28.593 Q22.575 -28.083 22.575 -27.329 V-24.587 H42.248 Q41.441 -27.167 41.038 -29.828 Q40.635 -32.489 40.635 -35.23 Q40.635 -50.592 51.336 -61.294 Q62.038 -71.995 77.4 -71.995 H132.225 V-74.736 Q132.225 -75.49 132.746 -76 Q133.266 -76.51 134.036 -76.51 Q134.805 -76.51 135.289 -76 Q135.773 -75.49 135.773 -74.736 V-43.131 Q135.773 -42.377 135.252 -41.867 Q134.731 -41.357 133.962 -41.357 Q133.192 -41.357 132.709 -41.867 Q132.225 -42.377 132.225 -43.131 V-45.872 H112.553 Q113.359 -43.292 113.762 -40.632 Q114.165 -37.971 114.165 -35.23 Q114.165 -19.868 103.464 -9.166 Q92.762 1.535 77.4 1.535 H22.575 Z"/></g><g id="Bold-M" transform="matrix(1 0 0 1 2281.8 1126)"><path d="M60 -18.605 Q55.375 -18.605 52.062 -21.917 Q48.75 -25.23 48.75 -29.855 Q48.75 -32.73 50.188 -35.98 Q51.625 -39.23 55.375 -45.105 L56.75 -47.105 Q57.875 -48.855 60 -48.855 Q62.125 -48.855 63.25 -47.105 L64.625 -45.105 Q68.375 -39.23 69.812 -35.98 Q71.25 -32.73 71.25 -29.855 Q71.25 -25.23 67.938 -21.917 Q64.625 -18.605 60 -18.605 Z M14.5 -9.98 H29.25 Q27.875 -11.73 26.625 -13.542 Q25.375 -15.355 24.375 -17.48 H14.5 V-9.98 Z M60 -9.98 Q70.625 -9.98 77.938 -17.292 Q85.25 -24.605 85.25 -35.23 Q85.25 -45.855 77.938 -53.167 Q70.625 -60.48 60 -60.48 Q49.375 -60.48 42.062 -53.167 Q34.75 -45.855 34.75 -35.23 Q34.75 -24.605 42.062 -17.292 Q49.375 -9.98 60 -9.98 Z M95.625 -52.98 H105.5 V-60.48 H90.75 Q92.125 -58.73 93.375 -56.917 Q94.625 -55.105 95.625 -52.98 Z M14.5 4.52 V4.77 Q14.5 7.77 12.375 9.895 Q10.25 12.02 7.25 12.02 Q4.25 12.02 2.125 9.895 Q0 7.77 0 4.77 V-32.23 Q0 -35.23 2.125 -37.355 Q4.25 -39.48 7.25 -39.48 Q10.25 -39.48 12.375 -37.355 Q14.5 -35.23 14.5 -32.23 V-31.98 H20.375 Q20.25 -32.855 20.25 -33.605 Q20.25 -34.355 20.25 -35.23 Q20.25 -51.855 31.812 -63.417 Q43.375 -74.98 60 -74.98 H105.5 V-75.23 Q105.5 -78.23 107.625 -80.355 Q109.75 -82.48 112.75 -82.48 Q115.75 -82.48 117.875 -80.355 Q120 -78.23 120 -75.23 V-38.23 Q120 -35.23 117.875 -33.105 Q115.75 -30.98 112.75 -30.98 Q109.75 -30.98 107.625 -33.105 Q105.5 -35.23 105.5 -38.23 V-38.48 H99.625 Q99.75 -37.605 99.75 -36.855 Q99.75 -36.105 99.75 -35.23 Q99.75 -18.605 88.188 -7.042 Q76.625 4.52 60 4.52 H14.5 Z"/></g><g id="Semibold-M" transform="matrix(1 0 0 1 1985.97 1126)"><path d="M60 -19.311 Q55.592 -19.311 52.443 -22.461 Q49.294 -25.61 49.294 -30.018 Q49.294 -32.893 50.622 -35.953 Q51.951 -39.013 55.538 -44.616 L57.239 -47.105 Q58.201 -48.583 60 -48.583 Q61.799 -48.583 62.761 -47.105 L64.462 -44.616 Q68.049 -39.013 69.378 -35.953 Q70.707 -32.893 70.707 -30.018 Q70.707 -25.61 67.557 -22.461 Q64.408 -19.311 60 -19.311 Z M14.717 -10.089 H31.967 Q30.266 -12.002 28.772 -14.113 Q27.277 -16.224 26.114 -18.676 H14.717 V-10.089 Z M60 -10.089 Q70.516 -10.089 77.829 -17.401 Q85.141 -24.714 85.141 -35.23 Q85.141 -45.746 77.829 -53.059 Q70.516 -60.371 60 -60.371 Q49.484 -60.371 42.171 -53.059 Q34.859 -45.746 34.859 -35.23 Q34.859 -24.714 42.171 -17.401 Q49.484 -10.089 60 -10.089 Z M93.886 -51.784 H105.283 V-60.371 H88.033 Q89.734 -58.458 91.228 -56.347 Q92.723 -54.235 93.886 -51.784 Z M14.717 2.455 V2.596 Q14.717 5.216 12.891 7.042 Q11.065 8.868 8.446 8.868 Q5.826 8.868 4 7.042 Q2.174 5.216 2.174 2.596 V-31.36 Q2.174 -33.98 4 -35.806 Q5.826 -37.632 8.446 -37.632 Q11.065 -37.632 12.891 -35.806 Q14.717 -33.98 14.717 -31.36 V-31.219 H22.549 Q22.369 -32.257 22.342 -33.197 Q22.315 -34.138 22.315 -35.23 Q22.315 -50.985 33.28 -61.95 Q44.245 -72.915 60 -72.915 H105.283 V-73.056 Q105.283 -75.676 107.109 -77.502 Q108.935 -79.328 111.554 -79.328 Q114.174 -79.328 116 -77.502 Q117.826 -75.676 117.826 -73.056 V-39.099 Q117.826 -36.48 116 -34.654 Q114.174 -32.828 111.554 -32.828 Q108.935 -32.828 107.109 -34.654 Q105.283 -36.48 105.283 -39.099 V-39.241 H97.451 Q97.631 -38.203 97.658 -37.263 Q97.685 -36.322 97.685 -35.23 Q97.685 -19.474 86.72 -8.51 Q75.755 2.455 60 2.455 H14.717 Z"/></g><g id="Medium-M" transform="matrix(1 0 0 1 1689.91 1126)"><path d="M60 -19.841 Q55.755 -19.841 52.728 -22.869 Q49.701 -25.896 49.701 -30.14 Q49.701 -33.015 50.948 -35.932 Q52.196 -38.85 55.66 -44.249 L57.606 -47.105 Q58.446 -48.379 60 -48.379 Q61.554 -48.379 62.394 -47.105 L64.34 -44.249 Q67.804 -38.85 69.052 -35.932 Q70.299 -33.015 70.299 -30.14 Q70.299 -25.896 67.272 -22.869 Q64.245 -19.841 60 -19.841 Z M14.88 -10.17 H34.005 Q32.06 -12.205 30.382 -14.541 Q28.704 -16.877 27.419 -19.572 H14.88 V-10.17 Z M60 -10.17 Q70.435 -10.17 77.747 -17.483 Q85.06 -24.795 85.06 -35.23 Q85.06 -45.665 77.747 -52.977 Q70.435 -60.29 60 -60.29 Q49.565 -60.29 42.253 -52.977 Q34.94 -45.665 34.94 -35.23 Q34.94 -24.795 42.253 -17.483 Q49.565 -10.17 60 -10.17 Z M92.582 -50.888 H105.12 V-60.29 H85.995 Q87.94 -58.254 89.618 -55.919 Q91.296 -53.583 92.582 -50.888 Z M14.88 0.906 V0.966 Q14.88 3.3 13.278 4.902 Q11.677 6.504 9.342 6.504 Q7.008 6.504 5.406 4.902 Q3.804 3.3 3.804 0.966 V-30.708 Q3.804 -33.042 5.406 -34.644 Q7.008 -36.246 9.342 -36.246 Q11.677 -36.246 13.278 -34.644 Q14.88 -33.042 14.88 -30.708 V-30.648 H24.179 Q23.959 -31.809 23.912 -32.892 Q23.864 -33.975 23.864 -35.23 Q23.864 -50.333 34.38 -60.85 Q44.897 -71.366 60 -71.366 H105.12 V-71.426 Q105.12 -73.76 106.722 -75.362 Q108.323 -76.964 110.658 -76.964 Q112.992 -76.964 114.594 -75.362 Q116.196 -73.76 116.196 -71.426 V-39.752 Q116.196 -37.417 114.594 -35.816 Q112.992 -34.214 110.658 -34.214 Q108.323 -34.214 106.722 -35.816 Q105.12 -37.417 105.12 -39.752 V-39.811 H95.821 Q96.041 -38.651 96.088 -37.568 Q96.136 -36.485 96.136 -35.23 Q96.136 -20.127 85.62 -9.61 Q75.103 0.906 60 0.906 H14.88 Z"/></g><g id="Regular-M" transform="matrix(1 0 0 1 1394.06 1126)"><path d="M60 -20.23 Q55.875 -20.23 52.938 -23.167 Q50 -26.105 50 -30.23 Q50 -33.105 51.188 -35.917 Q52.375 -38.73 55.75 -43.98 L57.875 -47.105 Q58.625 -48.23 60 -48.23 Q61.375 -48.23 62.125 -47.105 L64.25 -43.98 Q67.625 -38.73 68.812 -35.917 Q70 -33.105 70 -30.23 Q70 -26.105 67.062 -23.167 Q64.125 -20.23 60 -20.23 Z M15 -10.23 H35.5 Q33.375 -12.355 31.562 -14.855 Q29.75 -17.355 28.375 -20.23 H15 V-10.23 Z M60 -10.23 Q70.375 -10.23 77.688 -17.542 Q85 -24.855 85 -35.23 Q85 -45.605 77.688 -52.917 Q70.375 -60.23 60 -60.23 Q49.625 -60.23 42.312 -52.917 Q35 -45.605 35 -35.23 Q35 -24.855 42.312 -17.542 Q49.625 -10.23 60 -10.23 Z M91.625 -50.23 H105 V-60.23 H84.5 Q86.625 -58.105 88.438 -55.605 Q90.25 -53.105 91.625 -50.23 Z M15 -0.23 Q15 1.895 13.562 3.333 Q12.125 4.77 10 4.77 Q7.875 4.77 6.438 3.333 Q5 1.895 5 -0.23 V-30.23 Q5 -32.355 6.438 -33.792 Q7.875 -35.23 10 -35.23 Q12.125 -35.23 13.562 -33.792 Q15 -32.355 15 -30.23 H25.375 Q25.125 -31.48 25.062 -32.667 Q25 -33.855 25 -35.23 Q25 -49.855 35.188 -60.042 Q45.375 -70.23 60 -70.23 H105 Q105 -72.355 106.438 -73.792 Q107.875 -75.23 110 -75.23 Q112.125 -75.23 113.562 -73.792 Q115 -72.355 115 -70.23 V-40.23 Q115 -38.105 113.562 -36.667 Q112.125 -35.23 110 -35.23 Q107.875 -35.23 106.438 -36.667 Q105 -38.105 105 -40.23 H94.625 Q94.875 -38.98 94.938 -37.792 Q95 -36.605 95 -35.23 Q95 -20.605 84.812 -10.417 Q74.625 -0.23 60 -0.23 H15 Z"/></g><g id="Light-M" transform="matrix(1 0 0 1 1098.18 1126)"><path d="M60 -22.201 Q56.356 -22.201 53.803 -24.754 Q51.25 -27.307 51.25 -30.951 Q51.25 -33.393 52.293 -35.845 Q53.337 -38.297 56.183 -42.682 L58.067 -45.47 Q58.769 -46.499 59.976 -46.499 Q61.183 -46.499 61.885 -45.47 L63.769 -42.682 Q66.693 -38.203 67.721 -35.803 Q68.75 -33.404 68.75 -30.951 Q68.75 -27.307 66.197 -24.754 Q63.644 -22.201 60 -22.201 Z M16.25 -10.23 H39.635 Q36.789 -12.403 34.447 -15.24 Q32.106 -18.076 30.539 -21.48 H16.25 V-10.23 Z M60 -10.23 Q70.375 -10.23 77.688 -17.542 Q85 -24.855 85 -35.23 Q85 -45.605 77.688 -52.917 Q70.375 -60.23 60 -60.23 Q49.625 -60.23 42.312 -52.917 Q35 -45.605 35 -35.23 Q35 -24.855 42.312 -17.542 Q49.625 -10.23 60 -10.23 Z M89.461 -48.98 H103.75 V-60.23 H80.365 Q83.211 -58.057 85.553 -55.22 Q87.894 -52.384 89.461 -48.98 Z M16.25 -2.73 V-2.057 Q16.25 -0.463 15.171 0.615 Q14.093 1.693 12.498 1.693 Q10.904 1.693 9.827 0.615 Q8.75 -0.463 8.75 -2.057 V-29.653 Q8.75 -31.247 9.829 -32.325 Q10.908 -33.403 12.502 -33.403 Q14.096 -33.403 15.173 -32.325 Q16.25 -31.247 16.25 -29.653 V-28.98 H28.212 Q27.817 -30.518 27.659 -32.042 Q27.5 -33.566 27.5 -35.23 Q27.5 -48.81 36.96 -58.27 Q46.42 -67.73 60 -67.73 H103.75 V-68.403 Q103.75 -69.997 104.829 -71.075 Q105.907 -72.153 107.501 -72.153 Q109.096 -72.153 110.173 -71.075 Q111.25 -69.997 111.25 -68.403 V-40.807 Q111.25 -39.213 110.171 -38.135 Q109.093 -37.057 107.498 -37.057 Q105.904 -37.057 104.827 -38.135 Q103.75 -39.213 103.75 -40.807 V-41.48 H91.788 Q92.183 -39.942 92.341 -38.417 Q92.5 -36.893 92.5 -35.23 Q92.5 -21.65 83.04 -12.19 Q73.58 -2.73 60 -2.73 H16.25 Z"/></g><g id="Thin-M" transform="matrix(1 0 0 1 802.565 1126)"><path d="M60 -24.172 Q56.837 -24.172 54.668 -26.34 Q52.5 -28.509 52.5 -31.672 Q52.5 -33.682 53.399 -35.773 Q54.298 -37.865 56.615 -41.384 L58.26 -43.836 Q58.913 -44.768 59.952 -44.768 Q60.99 -44.768 61.644 -43.836 L63.288 -41.384 Q65.76 -37.676 66.63 -35.689 Q67.5 -33.703 67.5 -31.672 Q67.5 -28.509 65.332 -26.34 Q63.163 -24.172 60 -24.172 Z M17.5 -10.23 H43.769 Q40.202 -12.451 37.332 -15.624 Q34.462 -18.797 32.702 -22.73 H17.5 V-10.23 Z M60 -10.23 Q70.375 -10.23 77.688 -17.542 Q85 -24.855 85 -35.23 Q85 -45.605 77.688 -52.917 Q70.375 -60.23 60 -60.23 Q49.625 -60.23 42.312 -52.917 Q35 -45.605 35 -35.23 Q35 -24.855 42.312 -17.542 Q49.625 -10.23 60 -10.23 Z M87.298 -47.73 H102.5 V-60.23 H76.231 Q79.798 -58.009 82.668 -54.836 Q85.538 -51.663 87.298 -47.73 Z M17.5 -5.23 V-3.884 Q17.5 -2.821 16.78 -2.102 Q16.061 -1.384 14.997 -1.384 Q13.933 -1.384 13.216 -2.102 Q12.5 -2.821 12.5 -3.884 V-29.076 Q12.5 -30.139 13.22 -30.857 Q13.939 -31.576 15.003 -31.576 Q16.067 -31.576 16.784 -30.857 Q17.5 -30.139 17.5 -29.076 V-27.73 H31.048 Q30.51 -29.557 30.255 -31.417 Q30 -33.278 30 -35.23 Q30 -47.766 38.732 -56.498 Q47.464 -65.23 60 -65.23 H102.5 V-66.576 Q102.5 -67.639 103.22 -68.357 Q103.939 -69.076 105.003 -69.076 Q106.067 -69.076 106.784 -68.357 Q107.5 -67.639 107.5 -66.576 V-41.384 Q107.5 -40.321 106.78 -39.603 Q106.061 -38.884 104.997 -38.884 Q103.933 -38.884 103.216 -39.603 Q102.5 -40.321 102.5 -41.384 V-42.73 H88.952 Q89.49 -40.903 89.745 -39.042 Q90 -37.182 90 -35.23 Q90 -22.694 81.268 -13.962 Q72.536 -5.23 60 -5.23 H17.5 Z"/></g><g id="Ultralight-M" transform="matrix(1 0 0 1 506.415 1126)"><path d="M60 -25.355 Q57.125 -25.355 55.188 -27.292 Q53.25 -29.23 53.25 -32.105 Q53.25 -33.855 54.062 -35.73 Q54.875 -37.605 56.875 -40.605 L58.375 -42.855 Q59 -43.73 59.938 -43.73 Q60.875 -43.73 61.5 -42.855 L63 -40.605 Q65.201 -37.359 65.975 -35.621 Q66.75 -33.882 66.75 -32.105 Q66.75 -29.23 64.812 -27.292 Q62.875 -25.355 60 -25.355 Z M18.25 -10.23 H46.25 Q42.25 -12.48 39.062 -15.855 Q35.875 -19.23 34 -23.48 H18.25 V-10.23 Z M60 -10.23 Q70.375 -10.23 77.688 -17.542 Q85 -24.855 85 -35.23 Q85 -45.605 77.688 -52.917 Q70.375 -60.23 60 -60.23 Q49.625 -60.23 42.312 -52.917 Q35 -45.605 35 -35.23 Q35 -24.855 42.312 -17.542 Q49.625 -10.23 60 -10.23 Z M86 -46.98 H101.75 V-60.23 H73.75 Q77.75 -57.98 80.938 -54.605 Q84.125 -51.23 86 -46.98 Z M18.25 -6.73 V-4.98 Q18.25 -4.236 17.746 -3.733 Q17.241 -3.23 16.496 -3.23 Q15.75 -3.23 15.25 -3.733 Q14.75 -4.236 14.75 -4.98 V-28.73 Q14.75 -29.474 15.254 -29.977 Q15.759 -30.48 16.504 -30.48 Q17.25 -30.48 17.75 -29.977 Q18.25 -29.474 18.25 -28.73 V-26.98 H32.75 Q32.125 -28.98 31.812 -31.042 Q31.5 -33.105 31.5 -35.23 Q31.5 -47.139 39.795 -55.434 Q48.091 -63.73 60 -63.73 H101.75 V-65.48 Q101.75 -66.224 102.254 -66.727 Q102.759 -67.23 103.504 -67.23 Q104.25 -67.23 104.75 -66.727 Q105.25 -66.224 105.25 -65.48 V-41.73 Q105.25 -40.986 104.746 -40.483 Q104.241 -39.98 103.496 -39.98 Q102.75 -39.98 102.25 -40.483 Q101.75 -40.986 101.75 -41.73 V-43.48 H87.25 Q87.875 -41.48 88.188 -39.417 Q88.5 -37.355 88.5 -35.23 Q88.5 -23.321 80.204 -15.025 Q71.909 -6.73 60 -6.73 H18.25 Z"/></g><g id="Bold-S" transform="matrix(1 0 0 1 2294.23 696)"><path d="M47.34 -22.113 Q43.79 -22.113 41.176 -24.726 Q38.562 -27.34 38.562 -30.89 Q38.562 -33.257 39.647 -35.772 Q40.732 -38.287 43.691 -42.923 L44.973 -44.895 Q45.797 -46.177 47.358 -46.177 Q48.918 -46.177 49.707 -44.895 L50.989 -42.923 Q53.948 -38.386 55.033 -35.871 Q56.118 -33.356 56.118 -30.89 Q56.118 -27.34 53.504 -24.726 Q50.891 -22.113 47.34 -22.113 Z M11.441 -16.097 H24.558 Q23.078 -17.773 21.895 -19.598 Q20.711 -21.422 19.922 -23.592 H11.441 V-16.097 Z M47.362 -16.097 Q55.427 -16.097 60.95 -21.642 Q66.473 -27.187 66.473 -35.252 Q66.473 -43.317 60.928 -48.84 Q55.383 -54.363 47.318 -54.363 Q39.253 -54.363 33.73 -48.818 Q28.207 -43.273 28.207 -35.208 Q28.207 -27.143 33.752 -21.62 Q39.297 -16.097 47.362 -16.097 Z M74.758 -46.868 H83.24 V-54.363 H70.122 Q71.602 -52.687 72.785 -50.862 Q73.969 -49.037 74.758 -46.868 Z M11.441 -5.445 V-4.064 Q11.441 -1.865 9.883 -0.302 Q8.326 1.261 6.136 1.261 Q3.945 1.261 2.367 -0.302 Q0.789 -1.865 0.789 -4.064 V-35.624 Q0.789 -37.824 2.346 -39.387 Q3.903 -40.95 6.094 -40.95 Q8.284 -40.95 9.863 -39.387 Q11.441 -37.824 11.441 -35.624 V-34.244 H17.457 Q17.489 -34.56 17.522 -34.796 Q17.555 -35.033 17.555 -35.23 Q17.555 -47.688 26.219 -56.351 Q34.882 -65.015 47.34 -65.015 H83.24 V-66.395 Q83.24 -68.595 84.797 -70.158 Q86.354 -71.721 88.544 -71.721 Q90.735 -71.721 92.313 -70.158 Q93.891 -68.595 93.891 -66.395 V-34.835 Q93.891 -32.636 92.334 -31.073 Q90.777 -29.51 88.586 -29.51 Q86.395 -29.51 84.818 -31.073 Q83.24 -32.636 83.24 -34.835 V-36.216 H77.223 Q77.191 -35.9 77.158 -35.664 Q77.125 -35.427 77.125 -35.23 Q77.125 -22.772 68.461 -14.109 Q59.798 -5.445 47.34 -5.445 H11.441 Z"/></g><g id="Semibold-S" transform="matrix(1 0 0 1 1998.1 696)"><path d="M47.34 -22.67 Q43.961 -22.67 41.476 -25.155 Q38.991 -27.64 38.991 -31.019 Q38.991 -33.386 39.99 -35.751 Q40.989 -38.116 43.819 -42.537 L45.359 -44.895 Q46.055 -45.963 47.358 -45.963 Q48.661 -45.963 49.321 -44.895 L50.861 -42.537 Q53.691 -38.214 54.69 -35.85 Q55.689 -33.485 55.689 -31.019 Q55.689 -27.64 53.204 -25.155 Q50.719 -22.67 47.34 -22.67 Z M11.612 -16.183 H26.702 Q24.965 -17.988 23.588 -20.048 Q22.212 -22.109 21.294 -24.536 H11.612 V-16.183 Z M47.362 -16.183 Q55.341 -16.183 60.864 -21.728 Q66.387 -27.273 66.387 -35.252 Q66.387 -43.231 60.842 -48.754 Q55.297 -54.277 47.318 -54.277 Q39.339 -54.277 33.816 -48.732 Q28.293 -43.187 28.293 -35.208 Q28.293 -27.229 33.838 -21.706 Q39.383 -16.183 47.362 -16.183 Z M73.386 -45.924 H83.068 V-54.277 H67.978 Q69.715 -52.472 71.092 -50.412 Q72.468 -48.351 73.386 -45.924 Z M11.612 -7.075 V-5.78 Q11.612 -3.88 10.291 -2.553 Q8.969 -1.226 7.079 -1.226 Q5.188 -1.226 3.846 -2.553 Q2.504 -3.88 2.504 -5.78 V-34.938 Q2.504 -36.838 3.825 -38.165 Q5.147 -39.492 7.037 -39.492 Q8.928 -39.492 10.27 -38.165 Q11.612 -36.838 11.612 -34.938 V-33.643 H19.172 Q19.162 -34.088 19.173 -34.475 Q19.185 -34.861 19.185 -35.23 Q19.185 -47.002 27.376 -55.194 Q35.568 -63.385 47.34 -63.385 H83.068 V-64.68 Q83.068 -66.58 84.389 -67.907 Q85.711 -69.234 87.601 -69.234 Q89.492 -69.234 90.834 -67.907 Q92.176 -66.58 92.176 -64.68 V-35.522 Q92.176 -33.622 90.855 -32.295 Q89.533 -30.968 87.643 -30.968 Q85.752 -30.968 84.41 -32.295 Q83.068 -33.622 83.068 -35.522 V-36.817 H75.508 Q75.518 -36.372 75.507 -35.985 Q75.495 -35.599 75.495 -35.23 Q75.495 -23.458 67.304 -15.266 Q59.112 -7.075 47.34 -7.075 H11.612 Z"/></g><g id="Medium-S" transform="matrix(1 0 0 1 1701.85 696)"><path d="M47.34 -23.088 Q44.09 -23.088 41.701 -25.477 Q39.313 -27.865 39.313 -31.116 Q39.313 -33.483 40.248 -35.735 Q41.182 -37.987 43.916 -42.247 L45.648 -44.895 Q46.247 -45.802 47.358 -45.802 Q48.468 -45.802 49.032 -44.895 L50.764 -42.247 Q53.498 -38.086 54.432 -35.834 Q55.367 -33.581 55.367 -31.116 Q55.367 -27.865 52.979 -25.477 Q50.59 -23.088 47.34 -23.088 Z M11.741 -16.247 H28.31 Q26.38 -18.149 24.859 -20.386 Q23.338 -22.623 22.324 -25.243 H11.741 V-16.247 Z M47.362 -16.247 Q55.277 -16.247 60.8 -21.792 Q66.323 -27.337 66.323 -35.252 Q66.323 -43.167 60.778 -48.69 Q55.233 -54.213 47.318 -54.213 Q39.403 -54.213 33.88 -48.668 Q28.357 -43.123 28.357 -35.208 Q28.357 -27.293 33.902 -21.77 Q39.447 -16.247 47.362 -16.247 Z M72.356 -45.217 H82.939 V-54.213 H66.37 Q68.3 -52.311 69.821 -50.074 Q71.342 -47.837 72.356 -45.217 Z M11.741 -8.297 V-7.066 Q11.741 -5.392 10.596 -4.242 Q9.452 -3.091 7.786 -3.091 Q6.121 -3.091 4.956 -4.242 Q3.791 -5.392 3.791 -7.066 V-34.424 Q3.791 -36.098 4.935 -37.248 Q6.08 -38.399 7.745 -38.399 Q9.41 -38.399 10.575 -37.248 Q11.741 -36.098 11.741 -34.424 V-33.193 H20.458 Q20.416 -33.735 20.411 -34.234 Q20.407 -34.733 20.407 -35.23 Q20.407 -46.487 28.245 -54.325 Q36.083 -62.163 47.34 -62.163 H82.939 V-63.394 Q82.939 -65.068 84.084 -66.218 Q85.228 -67.369 86.894 -67.369 Q88.559 -67.369 89.724 -66.218 Q90.889 -65.068 90.889 -63.394 V-36.036 Q90.889 -34.362 89.745 -33.212 Q88.6 -32.061 86.935 -32.061 Q85.27 -32.061 84.105 -33.212 Q82.939 -34.362 82.939 -36.036 V-37.267 H74.222 Q74.264 -36.725 74.269 -36.226 Q74.273 -35.727 74.273 -35.23 Q74.273 -23.973 66.435 -16.135 Q58.597 -8.297 47.34 -8.297 H11.741 Z"/></g><g id="Regular-S" transform="matrix(1 0 0 1 1405.73 696)"><path d="M47.34 -23.395 Q44.184 -23.395 41.866 -25.713 Q39.549 -28.03 39.549 -31.186 Q39.549 -33.553 40.436 -35.723 Q41.324 -37.893 43.987 -42.035 L45.861 -44.895 Q46.389 -45.684 47.358 -45.684 Q48.326 -45.684 48.819 -44.895 L50.693 -42.035 Q53.356 -37.991 54.244 -35.822 Q55.131 -33.652 55.131 -31.186 Q55.131 -28.03 52.814 -25.713 Q50.496 -23.395 47.34 -23.395 Z M11.835 -16.294 H29.489 Q27.418 -18.266 25.79 -20.633 Q24.163 -23 23.078 -25.762 H11.835 V-16.294 Z M47.362 -16.294 Q55.23 -16.294 60.753 -21.839 Q66.276 -27.385 66.276 -35.252 Q66.276 -43.12 60.731 -48.643 Q55.185 -54.166 47.318 -54.166 Q39.45 -54.166 33.927 -48.621 Q28.404 -43.075 28.404 -35.208 Q28.404 -27.34 33.949 -21.817 Q39.495 -16.294 47.362 -16.294 Z M71.602 -44.698 H82.845 V-54.166 H65.191 Q67.262 -52.193 68.89 -49.826 Q70.517 -47.459 71.602 -44.698 Z M11.835 -9.193 V-8.009 Q11.835 -6.501 10.82 -5.48 Q9.805 -4.459 8.305 -4.459 Q6.805 -4.459 5.77 -5.48 Q4.734 -6.501 4.734 -8.009 V-34.046 Q4.734 -35.555 5.749 -36.576 Q6.764 -37.597 8.264 -37.597 Q9.764 -37.597 10.799 -36.576 Q11.835 -35.555 11.835 -34.046 V-32.863 H21.402 Q21.336 -33.475 21.319 -34.057 Q21.303 -34.638 21.303 -35.23 Q21.303 -46.11 28.882 -53.688 Q36.46 -61.267 47.34 -61.267 H82.845 V-62.45 Q82.845 -63.959 83.86 -64.98 Q84.875 -66.001 86.375 -66.001 Q87.875 -66.001 88.91 -64.98 Q89.946 -63.959 89.946 -62.45 V-36.413 Q89.946 -34.905 88.931 -33.884 Q87.916 -32.863 86.416 -32.863 Q84.916 -32.863 83.881 -33.884 Q82.845 -34.905 82.845 -36.413 V-37.597 H73.278 Q73.344 -36.985 73.361 -36.403 Q73.377 -35.822 73.377 -35.23 Q73.377 -24.35 65.798 -16.772 Q58.22 -9.193 47.34 -9.193 H11.835 Z"/></g><g id="Light-S" transform="matrix(1 0 0 1 1109.75 696)"><path d="M47.34 -24.95 Q44.563 -24.95 42.549 -26.965 Q40.535 -28.979 40.535 -31.755 Q40.535 -33.781 41.309 -35.666 Q42.083 -37.551 44.328 -41.011 L46.012 -43.605 Q46.503 -44.319 47.339 -44.319 Q48.174 -44.319 48.63 -43.605 L50.314 -41.011 Q52.62 -37.576 53.383 -35.732 Q54.145 -33.888 54.145 -31.755 Q54.145 -28.979 52.131 -26.965 Q50.117 -24.95 47.34 -24.95 Z M12.821 -16.294 H32.751 Q30.111 -18.304 28.067 -20.937 Q26.022 -23.57 24.785 -26.748 H12.821 V-16.294 Z M47.362 -16.294 Q55.23 -16.294 60.753 -21.839 Q66.276 -27.385 66.276 -35.252 Q66.276 -43.12 60.731 -48.643 Q55.185 -54.166 47.318 -54.166 Q39.45 -54.166 33.927 -48.621 Q28.404 -43.075 28.404 -35.208 Q28.404 -27.34 33.949 -21.817 Q39.495 -16.294 47.362 -16.294 Z M69.895 -43.712 H81.859 V-54.166 H61.929 Q64.569 -52.156 66.613 -49.523 Q68.658 -46.89 69.895 -43.712 Z M12.821 -11.166 V-9.451 Q12.821 -8.361 12.09 -7.624 Q11.358 -6.887 10.277 -6.887 Q9.195 -6.887 8.444 -7.624 Q7.693 -8.361 7.693 -9.451 V-33.591 Q7.693 -34.681 8.425 -35.418 Q9.156 -36.155 10.238 -36.155 Q11.319 -36.155 12.07 -35.418 Q12.821 -34.681 12.821 -33.591 V-31.877 H23.64 Q23.46 -32.716 23.368 -33.564 Q23.276 -34.411 23.276 -35.23 Q23.276 -45.286 30.28 -52.29 Q37.284 -59.294 47.34 -59.294 H81.859 V-61.009 Q81.859 -62.099 82.59 -62.836 Q83.322 -63.573 84.403 -63.573 Q85.485 -63.573 86.236 -62.836 Q86.987 -62.099 86.987 -61.009 V-36.869 Q86.987 -35.779 86.255 -35.042 Q85.524 -34.305 84.442 -34.305 Q83.361 -34.305 82.61 -35.042 Q81.859 -35.779 81.859 -36.869 V-38.583 H71.04 Q71.22 -37.744 71.312 -36.896 Q71.404 -36.049 71.404 -35.23 Q71.404 -25.174 64.4 -18.17 Q57.396 -11.166 47.34 -11.166 H12.821 Z"/></g><g id="Thin-S" transform="matrix(1 0 0 1 814.015 696)"><path d="M47.34 -26.505 Q44.943 -26.505 43.232 -28.216 Q41.521 -29.927 41.521 -32.324 Q41.521 -34.009 42.181 -35.609 Q42.841 -37.21 44.67 -39.987 L46.164 -42.316 Q46.617 -42.953 47.32 -42.953 Q48.023 -42.953 48.44 -42.316 L49.935 -39.987 Q51.885 -37.16 52.522 -35.642 Q53.159 -34.124 53.159 -32.324 Q53.159 -29.927 51.448 -28.216 Q49.737 -26.505 47.34 -26.505 Z M13.808 -16.294 H36.013 Q32.804 -18.342 30.342 -21.24 Q27.88 -24.138 26.492 -27.734 H13.808 V-16.294 Z M47.362 -16.294 Q55.23 -16.294 60.753 -21.839 Q66.276 -27.385 66.276 -35.252 Q66.276 -43.12 60.731 -48.643 Q55.185 -54.166 47.318 -54.166 Q39.45 -54.166 33.927 -48.621 Q28.404 -43.075 28.404 -35.208 Q28.404 -27.34 33.949 -21.817 Q39.495 -16.294 47.362 -16.294 Z M68.188 -42.725 H80.873 V-54.166 H58.667 Q61.876 -52.118 64.338 -49.22 Q66.8 -46.322 68.188 -42.725 Z M13.808 -13.138 V-10.892 Q13.808 -10.222 13.359 -9.768 Q12.911 -9.314 12.248 -9.314 Q11.585 -9.314 11.118 -9.768 Q10.652 -10.222 10.652 -10.892 V-33.136 Q10.652 -33.807 11.1 -34.26 Q11.548 -34.714 12.211 -34.714 Q12.874 -34.714 13.341 -34.26 Q13.808 -33.807 13.808 -33.136 V-30.89 H25.878 Q25.584 -31.958 25.416 -33.071 Q25.248 -34.183 25.248 -35.23 Q25.248 -44.461 31.678 -50.892 Q38.109 -57.322 47.34 -57.322 H80.873 V-59.568 Q80.873 -60.238 81.321 -60.692 Q81.769 -61.146 82.432 -61.146 Q83.095 -61.146 83.562 -60.692 Q84.029 -60.238 84.029 -59.568 V-37.324 Q84.029 -36.653 83.58 -36.2 Q83.132 -35.746 82.469 -35.746 Q81.806 -35.746 81.339 -36.2 Q80.873 -36.653 80.873 -37.324 V-39.569 H68.802 Q69.096 -38.502 69.264 -37.389 Q69.432 -36.277 69.432 -35.23 Q69.432 -25.999 63.002 -19.568 Q56.571 -13.138 47.34 -13.138 H13.808 Z"/></g><g id="Ultralight-S" transform="matrix(1 0 0 1 517.792 696)"><path d="M47.34 -27.439 Q45.17 -27.439 43.642 -28.967 Q42.113 -30.496 42.113 -32.666 Q42.113 -34.145 42.705 -35.575 Q43.296 -37.005 44.874 -39.372 L46.255 -41.542 Q46.685 -42.134 47.308 -42.134 Q47.932 -42.134 48.326 -41.542 L49.707 -39.372 Q51.444 -36.91 52.005 -35.588 Q52.567 -34.265 52.567 -32.666 Q52.567 -30.496 51.038 -28.967 Q49.51 -27.439 47.34 -27.439 Z M14.399 -16.294 H37.971 Q34.42 -18.365 31.708 -21.422 Q28.996 -24.48 27.516 -28.326 H14.399 V-16.294 Z M47.362 -16.294 Q55.23 -16.294 60.753 -21.839 Q66.276 -27.385 66.276 -35.252 Q66.276 -43.12 60.731 -48.643 Q55.185 -54.166 47.318 -54.166 Q39.45 -54.166 33.927 -48.621 Q28.404 -43.075 28.404 -35.208 Q28.404 -27.34 33.949 -21.817 Q39.495 -16.294 47.362 -16.294 Z M67.164 -42.134 H80.281 V-54.166 H56.709 Q60.26 -52.095 62.972 -49.037 Q65.684 -45.98 67.164 -42.134 Z M14.399 -14.321 V-11.757 Q14.399 -11.338 14.121 -11.055 Q13.842 -10.771 13.43 -10.771 Q13.019 -10.771 12.723 -11.055 Q12.427 -11.338 12.427 -11.757 V-32.863 Q12.427 -33.282 12.705 -33.566 Q12.984 -33.849 13.396 -33.849 Q13.808 -33.849 14.103 -33.566 Q14.399 -33.282 14.399 -32.863 V-30.299 H27.221 Q26.859 -31.503 26.645 -32.775 Q26.431 -34.046 26.431 -35.23 Q26.431 -43.967 32.517 -50.053 Q38.603 -56.138 47.34 -56.138 H80.281 V-58.703 Q80.281 -59.122 80.559 -59.405 Q80.838 -59.689 81.25 -59.689 Q81.662 -59.689 81.957 -59.405 Q82.253 -59.122 82.253 -58.703 V-37.597 Q82.253 -37.178 81.975 -36.894 Q81.696 -36.611 81.284 -36.611 Q80.873 -36.611 80.577 -36.894 Q80.281 -37.178 80.281 -37.597 V-40.161 H67.46 Q67.821 -38.957 68.035 -37.685 Q68.249 -36.413 68.249 -35.23 Q68.249 -26.493 62.163 -20.407 Q56.077 -14.321 47.34 -14.321 H14.399 Z"/></g></g></svg>