<svg xmlns="http://www.w3.org/2000/svg" version="1.1" width="3300" height="2000"><g id="Notes"><style>
    text {
      font-family: monospace;
      text-anchor: middle;
    }
    text.emphasis {
      font-weight:bold;
    }
    text.lanchor {
      text-anchor: start;
    }
  </style><rect height="2200" id="artboard" fill="white" width="3300" x="0" y="0"/><line id="" style="fill:none;stroke:black;stroke-width:0.5;" x1="263" x2="3036" y1="292" y2="292"/><text class="lanchor emphasis" transform="matrix(1 0 0 1 263 322)">Weight/Scale Variations</text><text transform="matrix(1 0 0 1 559.711 322)">Ultralight</text><text transform="matrix(1 0 0 1 856.422 322)">Thin</text><text transform="matrix(1 0 0 1 1153.13 322)">Light</text><text transform="matrix(1 0 0 1 1449.84 322)">Regular</text><text transform="matrix(1 0 0 1 1746.56 322)">Medium</text><text transform="matrix(1 0 0 1 2043.27 322)">Semibold</text><text transform="matrix(1 0 0 1 2339.98 322)">Bold</text><text transform="matrix(1 0 0 1 2636.69 322)">Heavy</text><text transform="matrix(1 0 0 1 2933.4 322)">Black</text><text id="template-version" style="text-anchor: end;" transform="matrix(1 0 0 1 3036 1933)">Template v.1.0</text><text class="lanchor" transform="matrix(1 0 0 1 263 726)">Small</text><text class="lanchor" transform="matrix(1 0 0 1 263 1156)">Medium</text><text class="lanchor" transform="matrix(1 0 0 1 263 1586)">Large</text></g><g id="Guides"><g id="H-reference" style="fill:#27AAE1;stroke:none;" transform="matrix(1 0 0 1 339 696)"><path d="M 54.9316 0 L 57.666 0 L 30.5664 -70.459 L 28.0762 -70.459 L 0.976562 0 L 3.66211 0 L 12.9395 -24.4629 L 45.7031 -24.4629 Z M 29.1992 -67.0898 L 29.4434 -67.0898 L 44.8242 -26.709 L 13.8184 -26.709 Z"/></g><line id="Baseline-S" style="fill:none;stroke:#27AAE1;opacity:1;stroke-width:0.577;" x1="263" x2="3036" y1="696" y2="696"/><line id="Capline-S" style="fill:none;stroke:#27AAE1;opacity:1;stroke-width:0.577;" x1="263" x2="3036" y1="625.541" y2="625.541"/><g id="H-reference" style="fill:#27AAE1;stroke:none;" transform="matrix(1 0 0 1 339 1126)"><path d="M 54.9316 0 L 57.666 0 L 30.5664 -70.459 L 28.0762 -70.459 L 0.976562 0 L 3.66211 0 L 12.9395 -24.4629 L 45.7031 -24.4629 Z M 29.1992 -67.0898 L 29.4434 -67.0898 L 44.8242 -26.709 L 13.8184 -26.709 Z"/></g><line id="Baseline-M" style="fill:none;stroke:#27AAE1;opacity:1;stroke-width:0.577;" x1="263" x2="3036" y1="1126" y2="1126"/><line id="Capline-M" style="fill:none;stroke:#27AAE1;opacity:1;stroke-width:0.577;" x1="263" x2="3036" y1="1055.54" y2="1055.54"/><g id="H-reference" style="fill:#27AAE1;stroke:none;" transform="matrix(1 0 0 1 339 1556)"><path d="M 54.9316 0 L 57.666 0 L 30.5664 -70.459 L 28.0762 -70.459 L 0.976562 0 L 3.66211 0 L 12.9395 -24.4629 L 45.7031 -24.4629 Z M 29.1992 -67.0898 L 29.4434 -67.0898 L 44.8242 -26.709 L 13.8184 -26.709 Z"/></g><line id="Baseline-L" style="fill:none;stroke:#27AAE1;opacity:1;stroke-width:0.577;" x1="263" x2="3036" y1="1556" y2="1556"/><line id="Capline-L" style="fill:none;stroke:#27AAE1;opacity:1;stroke-width:0.577;" x1="263" x2="3036" y1="1485.54" y2="1485.54"/><rect height="119.336" id="left-margin" style="fill:darkred;stroke:none;opacity:0.4;" width="12.4512" x="1394.06" y="1030.79"/><rect height="119.336" id="right-margin" style="fill:darkgreen;stroke:none;opacity:0.4;" width="12.4512" x="1502.5112" y="1030.79"/><rect x="1406.5112" y="1045" width="96" height="96" fill="none" stroke="blue" stroke-dasharray="5"/><rect x="1394.06" y="1030.79" width="120.9024" height="119.336" fill="none" stroke="blue"/></g><g id="Symbols"><g id="Bold-L" transform="matrix(1 0 0 1 2266 1556)"><path d="M76.11 -7.817  103.845 -47.807 H82.721 L94.331 -88.12 H56.115 V-29.102 H76.11 V-7.817 Z M60.953 40.88 V-13.945 H40.958 V-103.439 H114.487 L102.877 -63.126 H133.031 L60.953 40.88 Z"/></g><g id="Semibold-L" transform="matrix(1 0 0 1 1970.27 1556)"><path d="M75.269 -5.153  103.985 -46.546 H83.212 L95.453 -88.961 H55.554 V-30.364 H75.269 V-5.153 Z M62.495 35.833 V-17.59 H42.78 V-101.826 H112.384 L100.213 -59.411 H128.474 L62.495 35.833 Z"/></g><g id="Medium-L" transform="matrix(1 0 0 1 1674.31 1556)"><path d="M74.638 -3.155  104.09 -45.599 H83.58 L96.294 -89.592 H55.133 V-31.311 H74.638 V-3.155 Z M63.652 32.046 V-20.325 H44.147 V-100.617 H110.807 L98.215 -56.624 H125.056 L63.652 32.046 Z"/></g><g id="Regular-L" transform="matrix(1 0 0 1 1378.56 1556)"><path d="M74.175 -1.69  104.168 -44.905 H83.85 L96.911 -90.055 H54.825 V-32.005 H74.175 V-1.69 Z M64.5 29.27 V-22.33 H45.15 V-99.73 H109.65 L96.75 -54.58 H122.55 L64.5 29.27 Z"/></g><g id="Light-L" transform="matrix(1 0 0 1 1082.77 1556)"><path d="M75.043 -4.481  105.098 -47.944 H83.788 L95.733 -89.187 H56.934 V-32.873 H75.043 V-4.481 Z M67.725 19.098 V-25.555 H49.616 V-96.505 H105.37 L93.525 -55.262 H119.015 L67.725 19.098 Z"/></g><g id="Thin-L" transform="matrix(1 0 0 1 787.282 1556)"><path d="M75.912 -7.272  106.028 -50.983 H83.726 L94.555 -88.318 H59.042 V-33.742 H75.912 V-7.272 Z M70.95 8.928 V-28.78 H54.081 V-93.28 H101.091 L90.3 -55.944 H115.48 L70.95 8.928 Z"/></g><g id="Ultralight-L" transform="matrix(1 0 0 1 491.205 1556)"><path d="M76.433 -8.946  106.586 -52.806 H83.689 L93.847 -87.797 H60.308 V-34.262 H76.433 V-8.946 Z M72.885 2.825 V-30.715 H56.76 V-91.345 H98.524 L88.365 -56.354 H113.359 L72.885 2.825 Z"/></g><g id="Bold-M" transform="matrix(1 0 0 1 2281.8 1126)"><path d="M62 -23.605  75.625 -43.23 H60.5 L69.125 -73.23 H46.375 V-32.23 H62 V-23.605 Z M46.25 26.77 V-16.48 H30.625 V-88.98 H90 L81.375 -58.98 H105.75 L46.25 26.77 Z"/></g><g id="Semibold-M" transform="matrix(1 0 0 1 1985.97 1126)"><path d="M61.13 -20.833  75.788 -41.926 H61.044 L70.266 -74.099 H45.777 V-33.534 H61.13 V-20.833 Z M47.88 21.553 V-20.284 H32.527 V-87.35 H87.826 L78.603 -55.176 H101.076 L47.88 21.553 Z"/></g><g id="Medium-M" transform="matrix(1 0 0 1 1689.91 1126)"><path d="M60.478 -18.754  75.91 -40.947 H61.451 L71.122 -74.752 H45.329 V-34.513 H60.478 V-18.754 Z M49.103 17.64 V-23.137 H33.954 V-86.127 H86.196 L76.525 -52.322 H97.571 L49.103 17.64 Z"/></g><g id="Regular-M" transform="matrix(1 0 0 1 1394.06 1126)"><path d="M60 -17.23  76 -40.23 H61.75 L71.75 -75.23 H45 V-35.23 H60 V-17.23 Z M50 14.77 V-25.23 H35 V-85.23 H85 L75 -50.23 H95 L50 14.77 Z"/></g><g id="Light-M" transform="matrix(1 0 0 1 1098.18 1126)"><path d="M60 -17.23  78.019 -43.259 H62.567 L71.75 -75.23 H45.962 V-35.23 H60 V-17.23 Z M52.5 6.885 V-27.73 H38.462 V-82.73 H81.683 L72.5 -50.759 H92.259 L52.5 6.885 Z"/></g><g id="Thin-M" transform="matrix(1 0 0 1 802.565 1126)"><path d="M60 -17.23  80.038 -46.288 H63.385 L71.75 -75.23 H46.923 V-35.23 H60 V-17.23 Z M55 -0.999 V-30.23 H41.923 V-80.23 H78.365 L70 -51.288 H89.519 L55 -0.999 Z"/></g><g id="Ultralight-M" transform="matrix(1 0 0 1 506.415 1126)"><path d="M60 -17.23  81.25 -48.105 H63.875 L71.75 -75.23 H47.5 V-35.23 H60 V-17.23 Z M56.5 -5.73 V-31.73 H44 V-78.73 H76.375 L68.5 -51.605 H87.875 L56.5 -5.73 Z"/></g><g id="Bold-S" transform="matrix(1 0 0 1 2294.23 696)"><path d="M48.918 -25.861  59.865 -42.331 H48.918 L54.934 -64.423 H36.59 V-32.863 H48.918 V-25.861 Z M37.28 12.11 V-21.225 H24.952 V-76.061 H70.221 L64.205 -53.969 H81.859 L37.28 12.11 Z"/></g><g id="Semibold-S" transform="matrix(1 0 0 1 1998.1 696)"><path d="M48.232 -23.674  59.994 -41.302 H49.347 L55.835 -65.109 H36.118 V-33.892 H48.232 V-23.674 Z M38.567 7.994 V-24.227 H26.453 V-74.774 H68.506 L62.018 -50.967 H78.171 L38.567 7.994 Z"/></g><g id="Medium-S" transform="matrix(1 0 0 1 1701.85 696)"><path d="M47.717 -22.034  60.091 -40.53 H49.668 L56.51 -65.624 H35.764 V-34.664 H47.717 V-22.034 Z M39.531 4.906 V-26.478 H27.579 V-73.81 H67.219 L60.378 -48.716 H75.405 L39.531 4.906 Z"/></g><g id="Regular-S" transform="matrix(1 0 0 1 1405.73 696)"><path d="M47.34 -20.831  60.161 -39.964 H49.904 L57.005 -66.001 H35.505 V-35.23 H47.34 V-20.831 Z M40.239 2.642 V-28.129 H28.404 V-73.102 H66.276 L59.175 -47.065 H73.377 L40.239 2.642 Z"/></g><g id="Light-S" transform="matrix(1 0 0 1 1109.75 696)"><path d="M47.34 -20.831  61.755 -42.354 H50.549 L57.005 -66.001 H36.264 V-35.23 H47.34 V-20.831 Z M42.212 -3.579 V-30.102 H31.135 V-71.129 H63.658 L57.202 -47.482 H71.215 L42.212 -3.579 Z"/></g><g id="Thin-S" transform="matrix(1 0 0 1 814.015 696)"><path d="M47.34 -20.831  63.348 -44.743 H51.194 L57.005 -66.001 H37.022 V-35.23 H47.34 V-20.831 Z M44.184 -9.8 V-32.074 H33.866 V-69.157 H61.041 L55.23 -47.899 H69.053 L44.184 -9.8 Z"/></g><g id="Ultralight-S" transform="matrix(1 0 0 1 517.792 696)"><path d="M47.34 -20.831  64.303 -46.177 H51.581 L57.005 -66.001 H37.477 V-35.23 H47.34 V-20.831 Z M45.367 -13.532 V-33.257 H35.505 V-67.973 H59.471 L54.047 -48.15 H67.755 L45.367 -13.532 Z"/></g></g></svg>