<svg xmlns="http://www.w3.org/2000/svg" height="48" viewBox="0 -960 960 960" width="48"><path d="m436.717-152.543-26.847-25.283q-106.24-96.522-170.848-162.5-64.609-65.978-100.055-114.391-35.445-48.413-46.945-87t-11.5-81.544q0-91.391 61.424-154.674t151.293-63.283q56.5 0 104.761 26.153 48.261 26.152 83.239 76.195 35.978-50.043 83.12-76.195Q611.5-841.218 668.5-841.218q89.37 0 151.044 63.283 61.674 63.283 61.674 154.674 0 42.957-11.75 81.544-11.75 38.587-47.316 87-35.565 48.413-100.054 114.391-64.489 65.978-170.729 162.5l-25.608 25.044q-9.696 9.195-20.891 13.304-11.196 4.109-23.631 4.109t-23.88-4.109q-11.446-4.109-20.642-13.065ZM263.913-408.761h435.152q22.261-23.5 39.511-43.88 17.25-20.381 30.25-38.62H193.413q13 18.239 30 38.62 17 20.38 40.5 43.88ZM481.239-197.5q47.609-43.848 85.576-79.674 37.967-35.826 69.533-67.63H326.631q31.065 31.804 69.032 67.63 37.967 35.826 85.576 79.674Z"/></svg>