<svg xmlns="http://www.w3.org/2000/svg" version="1.1" width="3300" height="2000"><g id="Notes"><style>
    text {
      font-family: monospace;
      text-anchor: middle;
    }
    text.emphasis {
      font-weight:bold;
    }
    text.lanchor {
      text-anchor: start;
    }
  </style><rect height="2200" id="artboard" fill="white" width="3300" x="0" y="0"/><line id="" style="fill:none;stroke:black;stroke-width:0.5;" x1="263" x2="3036" y1="292" y2="292"/><text class="lanchor emphasis" transform="matrix(1 0 0 1 263 322)">Weight/Scale Variations</text><text transform="matrix(1 0 0 1 559.711 322)">Ultralight</text><text transform="matrix(1 0 0 1 856.422 322)">Thin</text><text transform="matrix(1 0 0 1 1153.13 322)">Light</text><text transform="matrix(1 0 0 1 1449.84 322)">Regular</text><text transform="matrix(1 0 0 1 1746.56 322)">Medium</text><text transform="matrix(1 0 0 1 2043.27 322)">Semibold</text><text transform="matrix(1 0 0 1 2339.98 322)">Bold</text><text transform="matrix(1 0 0 1 2636.69 322)">Heavy</text><text transform="matrix(1 0 0 1 2933.4 322)">Black</text><text id="template-version" style="text-anchor: end;" transform="matrix(1 0 0 1 3036 1933)">Template v.1.0</text><text class="lanchor" transform="matrix(1 0 0 1 263 726)">Small</text><text class="lanchor" transform="matrix(1 0 0 1 263 1156)">Medium</text><text class="lanchor" transform="matrix(1 0 0 1 263 1586)">Large</text></g><g id="Guides"><g id="H-reference" style="fill:#27AAE1;stroke:none;" transform="matrix(1 0 0 1 339 696)"><path d="M 54.9316 0 L 57.666 0 L 30.5664 -70.459 L 28.0762 -70.459 L 0.976562 0 L 3.66211 0 L 12.9395 -24.4629 L 45.7031 -24.4629 Z M 29.1992 -67.0898 L 29.4434 -67.0898 L 44.8242 -26.709 L 13.8184 -26.709 Z"/></g><line id="Baseline-S" style="fill:none;stroke:#27AAE1;opacity:1;stroke-width:0.577;" x1="263" x2="3036" y1="696" y2="696"/><line id="Capline-S" style="fill:none;stroke:#27AAE1;opacity:1;stroke-width:0.577;" x1="263" x2="3036" y1="625.541" y2="625.541"/><g id="H-reference" style="fill:#27AAE1;stroke:none;" transform="matrix(1 0 0 1 339 1126)"><path d="M 54.9316 0 L 57.666 0 L 30.5664 -70.459 L 28.0762 -70.459 L 0.976562 0 L 3.66211 0 L 12.9395 -24.4629 L 45.7031 -24.4629 Z M 29.1992 -67.0898 L 29.4434 -67.0898 L 44.8242 -26.709 L 13.8184 -26.709 Z"/></g><line id="Baseline-M" style="fill:none;stroke:#27AAE1;opacity:1;stroke-width:0.577;" x1="263" x2="3036" y1="1126" y2="1126"/><line id="Capline-M" style="fill:none;stroke:#27AAE1;opacity:1;stroke-width:0.577;" x1="263" x2="3036" y1="1055.54" y2="1055.54"/><g id="H-reference" style="fill:#27AAE1;stroke:none;" transform="matrix(1 0 0 1 339 1556)"><path d="M 54.9316 0 L 57.666 0 L 30.5664 -70.459 L 28.0762 -70.459 L 0.976562 0 L 3.66211 0 L 12.9395 -24.4629 L 45.7031 -24.4629 Z M 29.1992 -67.0898 L 29.4434 -67.0898 L 44.8242 -26.709 L 13.8184 -26.709 Z"/></g><line id="Baseline-L" style="fill:none;stroke:#27AAE1;opacity:1;stroke-width:0.577;" x1="263" x2="3036" y1="1556" y2="1556"/><line id="Capline-L" style="fill:none;stroke:#27AAE1;opacity:1;stroke-width:0.577;" x1="263" x2="3036" y1="1485.54" y2="1485.54"/><rect height="119.336" id="left-margin" style="fill:darkred;stroke:none;opacity:0.4;" width="12.4512" x="1394.06" y="1030.79"/><rect height="119.336" id="right-margin" style="fill:darkgreen;stroke:none;opacity:0.4;" width="12.4512" x="1502.5112" y="1030.79"/><rect x="1406.5112" y="1045" width="96" height="96" fill="none" stroke="blue" stroke-dasharray="5"/><rect x="1394.06" y="1030.79" width="120.9024" height="119.336" fill="none" stroke="blue"/></g><g id="Symbols"><g id="Bold-L" transform="matrix(1 0 0 1 2266 1556)"><path d="M27.977 27.496 V-23.297 Q27.977 -29.667 32.253 -33.94 Q36.529 -38.213 43.134 -38.213 H51.116 V-49.097 H43.134 Q36.529 -49.097 32.253 -53.371 Q27.977 -57.644 27.977 -64.013 V-82.879 Q27.977 -89.249 32.253 -93.602 Q36.529 -97.956 43.134 -97.956 H111.666 Q118.271 -97.956 122.547 -93.602 Q126.823 -89.249 126.823 -82.879 V-64.013 Q126.823 -57.644 122.547 -53.371 Q118.271 -49.097 111.666 -49.097 H103.684 V-38.213 H111.666 Q118.271 -38.213 122.547 -33.94 Q126.823 -29.667 126.823 -23.297 V27.496 H111.907 V9.92 H42.892 V27.496 H27.977 Z M60.388 -38.213 H94.412 V-49.097 H60.388 V-38.213 Z"/></g><g id="Semibold-L" transform="matrix(1 0 0 1 1970.27 1556)"><path d="M30.15 25.113 V-24.91 Q30.15 -30.298 33.741 -33.87 Q37.333 -37.442 42.854 -37.442 H51.537 V-49.869 H42.854 Q37.333 -49.869 33.741 -53.441 Q30.15 -57.013 30.15 -62.401 V-82.879 Q30.15 -88.267 33.741 -91.885 Q37.333 -95.503 42.854 -95.503 H111.946 Q117.467 -95.503 121.059 -91.885 Q124.65 -88.267 124.65 -82.879 V-62.401 Q124.65 -57.013 121.059 -53.441 Q117.467 -49.869 111.946 -49.869 H103.263 V-37.442 H111.946 Q117.467 -37.442 121.059 -33.87 Q124.65 -30.298 124.65 -24.91 V25.113 H112.188 V6.695 H42.612 V25.113 H30.15 Z M60.809 -37.442 H93.991 V-49.869 H60.809 V-37.442 Z"/></g><g id="Medium-L" transform="matrix(1 0 0 1 1674.31 1556)"><path d="M31.78 23.325 V-26.119 Q31.78 -30.771 34.858 -33.817 Q37.936 -36.863 42.644 -36.863 H51.852 V-50.447 H42.644 Q37.936 -50.447 34.858 -53.493 Q31.78 -56.54 31.78 -61.191 V-82.879 Q31.78 -87.531 34.858 -90.597 Q37.936 -93.662 42.644 -93.662 H112.156 Q116.864 -93.662 119.942 -90.597 Q123.02 -87.531 123.02 -82.879 V-61.191 Q123.02 -56.54 119.942 -53.493 Q116.864 -50.447 112.156 -50.447 H102.948 V-36.863 H112.156 Q116.864 -36.863 119.942 -33.817 Q123.02 -30.771 123.02 -26.119 V23.325 H112.398 V4.276 H42.402 V23.325 H31.78 Z M61.124 -36.863 H93.676 V-50.447 H61.124 V-36.863 Z"/></g><g id="Regular-L" transform="matrix(1 0 0 1 1378.56 1556)"><path d="M32.976 22.014 V-27.006 Q32.976 -31.118 35.677 -33.779 Q38.377 -36.439 42.489 -36.439 H52.084 V-50.871 H42.489 Q38.377 -50.871 35.677 -53.532 Q32.976 -56.192 32.976 -60.304 V-82.879 Q32.976 -86.991 35.677 -89.652 Q38.377 -92.312 42.489 -92.312 H112.311 Q116.422 -92.312 119.123 -89.652 Q121.824 -86.991 121.824 -82.879 V-60.304 Q121.824 -56.192 119.123 -53.532 Q116.422 -50.871 112.311 -50.871 H102.716 V-36.439 H112.311 Q116.422 -36.439 119.123 -33.779 Q121.824 -31.118 121.824 -27.006 V22.014 H112.553 V2.503 H42.248 V22.014 H32.976 Z M61.356 -36.439 H93.444 V-50.871 H61.356 V-36.439 Z"/></g><g id="Light-L" transform="matrix(1 0 0 1 1082.77 1556)"><path d="M37.162 18.478 V-26.2 Q37.162 -30.188 39.801 -32.771 Q42.44 -35.354 46.366 -35.354 H54.751 V-49.631 H46.366 Q42.44 -49.631 39.801 -52.245 Q37.162 -54.859 37.162 -58.785 V-78.445 Q37.162 -82.37 39.801 -84.985 Q42.44 -87.599 46.366 -87.599 H108.434 Q112.36 -87.599 114.999 -84.985 Q117.638 -82.37 117.638 -78.445 V-58.785 Q117.638 -54.859 114.999 -52.245 Q112.36 -49.631 108.434 -49.631 H100.049 V-35.354 H108.434 Q112.36 -35.354 114.999 -32.771 Q117.638 -30.188 117.638 -26.2 V18.478 H110.568 V-1.033 H44.232 V18.478 H37.162 Z M61.821 -35.354 H92.979 V-49.631 H61.821 V-35.354 Z"/></g><g id="Thin-L" transform="matrix(1 0 0 1 787.282 1556)"><path d="M41.348 14.944 V-25.394 Q41.348 -29.258 43.925 -31.763 Q46.502 -34.269 50.242 -34.269 H57.417 V-48.39 H50.242 Q46.502 -48.39 43.925 -50.958 Q41.348 -53.526 41.348 -57.265 V-74.011 Q41.348 -77.75 43.925 -80.318 Q46.502 -82.886 50.242 -82.886 H104.558 Q108.298 -82.886 110.875 -80.318 Q113.452 -77.75 113.452 -74.011 V-57.265 Q113.452 -53.526 110.875 -50.958 Q108.298 -48.39 104.558 -48.39 H97.383 V-34.269 H104.558 Q108.298 -34.269 110.875 -31.763 Q113.452 -29.258 113.452 -25.394 V14.944 H108.583 V-4.568 H46.217 V14.944 H41.348 Z M62.286 -34.269 H92.514 V-48.39 H62.286 V-34.269 Z"/></g><g id="Ultralight-L" transform="matrix(1 0 0 1 491.205 1556)"><path d="M43.86 12.823 V-24.91 Q43.86 -28.699 46.4 -31.158 Q48.939 -33.617 52.568 -33.617 H59.017 V-47.646 H52.568 Q48.939 -47.646 46.4 -50.186 Q43.86 -52.726 43.86 -56.354 V-71.35 Q43.86 -74.978 46.4 -77.518 Q48.939 -80.057 52.568 -80.057 H102.233 Q105.861 -80.057 108.4 -77.518 Q110.94 -74.978 110.94 -71.35 V-56.354 Q110.94 -52.726 108.4 -50.186 Q105.861 -47.646 102.233 -47.646 H95.782 V-33.617 H102.233 Q105.861 -33.617 108.4 -31.158 Q110.94 -28.699 110.94 -24.91 V12.823 H107.392 V-6.689 H47.407 V12.823 H43.86 Z M62.565 -33.617 H92.235 V-47.646 H62.565 V-33.617 Z"/></g><g id="Bold-M" transform="matrix(1 0 0 1 2281.8 1126)"><path d="M21 14.27 V-21.605 Q21 -28.167 25.469 -32.574 Q29.938 -36.98 36.5 -36.98 H39.75 V-43.105 H36.5 Q29.938 -43.105 25.469 -47.511 Q21 -51.917 21 -58.48 V-69.105 Q21 -75.667 25.469 -80.074 Q29.938 -84.48 36.5 -84.48 H83.5 Q90.062 -84.48 94.531 -80.074 Q99 -75.667 99 -69.105 V-58.48 Q99 -51.917 94.531 -47.511 Q90.062 -43.105 83.5 -43.105 H80.25 V-36.98 H83.5 Q90.062 -36.98 94.531 -32.574 Q99 -28.167 99 -21.605 V14.27 H83.875 V1.395 H36.125 V14.27 H21 Z M49.125 -36.98 H70.875 V-43.105 H49.125 V-36.98 Z"/></g><g id="Semibold-M" transform="matrix(1 0 0 1 1985.97 1126)"><path d="M23.228 11.77 V-23.29 Q23.228 -28.765 26.99 -32.465 Q30.753 -36.165 36.228 -36.165 H40.185 V-43.92 H36.228 Q30.753 -43.92 26.99 -47.62 Q23.228 -51.32 23.228 -56.795 V-69.105 Q23.228 -74.581 26.99 -78.28 Q30.753 -81.98 36.228 -81.98 H83.772 Q89.247 -81.98 93.01 -78.28 Q96.772 -74.581 96.772 -69.105 V-56.795 Q96.772 -51.32 93.01 -47.62 Q89.247 -43.92 83.772 -43.92 H79.815 V-36.165 H83.772 Q89.247 -36.165 93.01 -32.465 Q96.772 -28.765 96.772 -23.29 V11.77 H84.147 V-1.92 H35.853 V11.77 H23.228 Z M49.56 -36.165 H70.44 V-43.92 H49.56 V-36.165 Z"/></g><g id="Medium-M" transform="matrix(1 0 0 1 1689.91 1126)"><path d="M24.899 9.895 V-24.553 Q24.899 -29.214 28.132 -32.383 Q31.364 -35.553 36.025 -35.553 H40.511 V-44.532 H36.025 Q31.364 -44.532 28.132 -47.701 Q24.899 -50.871 24.899 -55.532 V-69.105 Q24.899 -73.765 28.132 -76.935 Q31.364 -80.105 36.025 -80.105 H83.975 Q88.636 -80.105 91.868 -76.935 Q95.101 -73.765 95.101 -69.105 V-55.532 Q95.101 -50.871 91.868 -47.701 Q88.636 -44.532 83.975 -44.532 H79.489 V-35.553 H83.975 Q88.636 -35.553 91.868 -32.383 Q95.101 -29.214 95.101 -24.553 V9.895 H84.35 V-4.407 H35.65 V9.895 H24.899 Z M49.886 -35.553 H70.114 V-44.532 H49.886 V-35.553 Z"/></g><g id="Regular-M" transform="matrix(1 0 0 1 1394.06 1126)"><path d="M26.125 8.52 V-25.48 Q26.125 -29.542 28.969 -32.324 Q31.812 -35.105 35.875 -35.105 H40.75 V-44.98 H35.875 Q31.812 -44.98 28.969 -47.761 Q26.125 -50.542 26.125 -54.605 V-69.105 Q26.125 -73.167 28.969 -75.949 Q31.812 -78.73 35.875 -78.73 H84.125 Q88.188 -78.73 91.031 -75.949 Q93.875 -73.167 93.875 -69.105 V-54.605 Q93.875 -50.542 91.031 -47.761 Q88.188 -44.98 84.125 -44.98 H79.25 V-35.105 H84.125 Q88.188 -35.105 91.031 -32.324 Q93.875 -29.542 93.875 -25.48 V8.52 H84.5 V-6.23 H35.5 V8.52 H26.125 Z M50.125 -35.105 H69.875 V-44.98 H50.125 V-35.105 Z"/></g><g id="Light-M" transform="matrix(1 0 0 1 1098.18 1126)"><path d="M29.37 5.779 V-25.817 Q29.37 -29.542 31.926 -32.047 Q34.481 -34.552 38.207 -34.552 H42.818 V-44.643 H38.207 Q34.481 -44.643 31.926 -47.148 Q29.37 -49.653 29.37 -53.379 V-66.34 Q29.37 -70.066 31.926 -72.571 Q34.481 -75.076 38.207 -75.076 H81.793 Q85.519 -75.076 88.074 -72.571 Q90.63 -70.066 90.63 -66.34 V-53.379 Q90.63 -49.653 88.074 -47.148 Q85.519 -44.643 81.793 -44.643 H77.183 V-34.552 H81.793 Q85.519 -34.552 88.074 -32.047 Q90.63 -29.542 90.63 -25.817 V5.779 H83.635 V-9.019 H36.365 V5.779 H29.37 Z M49.812 -34.552 H70.188 V-44.643 H49.812 V-34.552 Z"/></g><g id="Thin-M" transform="matrix(1 0 0 1 802.565 1126)"><path d="M32.615 3.039 V-26.153 Q32.615 -29.542 34.882 -31.771 Q37.149 -33.999 40.538 -33.999 H44.885 V-44.307 H40.538 Q37.149 -44.307 34.882 -46.535 Q32.615 -48.764 32.615 -52.153 V-63.576 Q32.615 -66.966 34.882 -69.194 Q37.149 -71.422 40.538 -71.422 H79.462 Q82.851 -71.422 85.118 -69.194 Q87.385 -66.966 87.385 -63.576 V-52.153 Q87.385 -48.764 85.118 -46.535 Q82.851 -44.307 79.462 -44.307 H75.115 V-33.999 H79.462 Q82.851 -33.999 85.118 -31.771 Q87.385 -29.542 87.385 -26.153 V3.039 H82.769 V-11.807 H37.231 V3.039 H32.615 Z M49.5 -33.999 H70.5 V-44.307 H49.5 V-33.999 Z"/></g><g id="Ultralight-M" transform="matrix(1 0 0 1 506.415 1126)"><path d="M34.562 1.395 V-26.355 Q34.562 -29.542 36.656 -31.605 Q38.75 -33.667 41.938 -33.667 H46.125 V-44.105 H41.938 Q38.75 -44.105 36.656 -46.167 Q34.562 -48.23 34.562 -51.417 V-61.917 Q34.562 -65.105 36.656 -67.167 Q38.75 -69.23 41.938 -69.23 H78.062 Q81.25 -69.23 83.344 -67.167 Q85.438 -65.105 85.438 -61.917 V-51.417 Q85.438 -48.23 83.344 -46.167 Q81.25 -44.105 78.062 -44.105 H73.875 V-33.667 H78.062 Q81.25 -33.667 83.344 -31.605 Q85.438 -29.542 85.438 -26.355 V1.395 H82.25 V-13.48 H37.75 V1.395 H34.562 Z M49.312 -33.667 H70.688 V-44.105 H49.312 V-33.667 Z"/></g><g id="Bold-S" transform="matrix(1 0 0 1 2294.23 696)"><path d="M18.147 1.459 V-25.269 Q18.147 -30.121 21.441 -33.366 Q24.735 -36.611 29.588 -36.611 H31.757 V-43.021 H29.571 Q24.706 -43.021 21.426 -46.266 Q18.147 -49.511 18.147 -54.363 V-60.379 Q18.147 -65.232 21.441 -68.476 Q24.735 -71.721 29.588 -71.721 H65.093 Q69.945 -71.721 73.239 -68.476 Q76.533 -65.232 76.533 -60.379 V-54.363 Q76.533 -49.511 73.239 -46.266 Q69.945 -43.021 65.093 -43.021 H62.923 V-36.611 H65.109 Q69.974 -36.611 73.254 -33.366 Q76.533 -30.121 76.533 -25.269 V1.459 H65.388 V-6.333 H29.292 V1.459 H18.147 Z M38.365 -36.611 H56.315 V-43.021 H38.365 V-36.611 Z"/></g><g id="Semibold-S" transform="matrix(1 0 0 1 1998.1 696)"><path d="M19.905 -0.514 V-26.598 Q19.905 -30.593 22.642 -33.28 Q25.378 -35.968 29.373 -35.968 H32.1 V-43.665 H29.357 Q25.349 -43.665 22.627 -46.352 Q19.905 -49.039 19.905 -53.034 V-60.379 Q19.905 -64.374 22.642 -67.062 Q25.378 -69.749 29.373 -69.749 H65.307 Q69.302 -69.749 72.038 -67.062 Q74.775 -64.374 74.775 -60.379 V-53.034 Q74.775 -49.039 72.038 -46.352 Q69.302 -43.665 65.307 -43.665 H62.58 V-35.968 H65.323 Q69.331 -35.968 72.053 -33.28 Q74.775 -30.593 74.775 -26.598 V-0.514 H65.603 V-8.948 H29.077 V-0.514 H19.905 Z M38.708 -35.968 H55.972 V-43.665 H38.708 V-35.968 Z"/></g><g id="Medium-S" transform="matrix(1 0 0 1 1701.85 696)"><path d="M21.224 -1.993 V-27.595 Q21.224 -30.947 23.542 -33.216 Q25.861 -35.485 29.212 -35.485 H32.358 V-44.147 H29.196 Q25.831 -44.147 23.527 -46.416 Q21.224 -48.685 21.224 -52.037 V-60.379 Q21.224 -63.731 23.542 -66 Q25.861 -68.269 29.212 -68.269 H65.468 Q68.819 -68.269 71.138 -66 Q73.456 -63.731 73.456 -60.379 V-52.037 Q73.456 -48.685 71.138 -46.416 Q68.819 -44.147 65.468 -44.147 H62.322 V-35.485 H65.484 Q68.849 -35.485 71.153 -33.216 Q73.456 -30.947 73.456 -27.595 V-1.993 H65.764 V-10.91 H28.916 V-1.993 H21.224 Z M38.965 -35.485 H55.715 V-44.147 H38.965 V-35.485 Z"/></g><g id="Regular-S" transform="matrix(1 0 0 1 1405.73 696)"><path d="M22.191 -3.078 V-28.326 Q22.191 -31.206 24.203 -33.169 Q26.215 -35.131 29.094 -35.131 H32.546 V-44.501 H29.078 Q26.185 -44.501 24.188 -46.463 Q22.191 -48.426 22.191 -51.306 V-60.379 Q22.191 -63.259 24.203 -65.222 Q26.215 -67.184 29.094 -67.184 H65.586 Q68.465 -67.184 70.477 -65.222 Q72.489 -63.259 72.489 -60.379 V-51.306 Q72.489 -48.426 70.477 -46.463 Q68.465 -44.501 65.586 -44.501 H62.134 V-35.131 H65.602 Q68.495 -35.131 70.492 -33.169 Q72.489 -31.206 72.489 -28.326 V-3.078 H65.882 V-12.349 H28.799 V-3.078 H22.191 Z M39.154 -35.131 H55.526 V-44.501 H39.154 V-35.131 Z"/></g><g id="Light-S" transform="matrix(1 0 0 1 1109.75 696)"><path d="M24.751 -5.241 V-28.592 Q24.751 -31.206 26.536 -32.951 Q28.32 -34.695 30.934 -34.695 H34.178 V-44.235 H30.918 Q28.29 -44.235 26.521 -45.98 Q24.751 -47.724 24.751 -50.339 V-58.198 Q24.751 -60.812 26.536 -62.557 Q28.32 -64.301 30.934 -64.301 H63.746 Q66.36 -64.301 68.144 -62.557 Q69.929 -60.812 69.929 -58.198 V-50.339 Q69.929 -47.724 68.144 -45.98 Q66.36 -44.235 63.746 -44.235 H60.502 V-34.695 H63.762 Q66.39 -34.695 68.159 -32.951 Q69.929 -31.206 69.929 -28.592 V-5.241 H65.199 V-14.549 H29.481 V-5.241 H24.751 Z M38.908 -34.695 H55.772 V-44.235 H38.908 V-34.695 Z"/></g><g id="Thin-S" transform="matrix(1 0 0 1 814.015 696)"><path d="M27.312 -7.403 V-28.857 Q27.312 -31.206 28.868 -32.733 Q30.425 -34.259 32.774 -34.259 H35.808 V-43.97 H32.758 Q30.395 -43.97 28.853 -45.496 Q27.312 -47.022 27.312 -49.371 V-56.017 Q27.312 -58.366 28.868 -59.892 Q30.425 -61.419 32.774 -61.419 H61.906 Q64.255 -61.419 65.812 -59.892 Q67.368 -58.366 67.368 -56.017 V-49.371 Q67.368 -47.022 65.812 -45.496 Q64.255 -43.97 61.906 -43.97 H58.872 V-34.259 H61.922 Q64.285 -34.259 65.827 -32.733 Q67.368 -31.206 67.368 -28.857 V-7.403 H64.516 V-16.749 H30.164 V-7.403 H27.312 Z M38.661 -34.259 H56.019 V-43.97 H38.661 V-34.259 Z"/></g><g id="Ultralight-S" transform="matrix(1 0 0 1 517.792 696)"><path d="M28.848 -8.7 V-29.017 Q28.848 -31.206 30.268 -32.602 Q31.688 -33.997 33.878 -33.997 H36.787 V-43.81 H33.862 Q31.659 -43.81 30.253 -45.206 Q28.848 -46.601 28.848 -48.791 V-54.708 Q28.848 -56.898 30.268 -58.293 Q31.688 -59.689 33.878 -59.689 H60.802 Q62.992 -59.689 64.412 -58.293 Q65.832 -56.898 65.832 -54.708 V-48.791 Q65.832 -46.601 64.412 -45.206 Q62.992 -43.81 60.802 -43.81 H57.893 V-33.997 H60.818 Q63.021 -33.997 64.427 -32.602 Q65.832 -31.206 65.832 -29.017 V-8.7 H64.106 V-18.069 H30.574 V-8.7 H28.848 Z M38.513 -33.997 H56.167 V-43.81 H38.513 V-33.997 Z"/></g></g></svg>