<svg xmlns="http://www.w3.org/2000/svg" version="1.1" width="3300" height="2000"><g id="Notes"><style>
    text {
      font-family: monospace;
      text-anchor: middle;
    }
    text.emphasis {
      font-weight:bold;
    }
    text.lanchor {
      text-anchor: start;
    }
  </style><rect height="2200" id="artboard" fill="white" width="3300" x="0" y="0"/><line id="" style="fill:none;stroke:black;stroke-width:0.5;" x1="263" x2="3036" y1="292" y2="292"/><text class="lanchor emphasis" transform="matrix(1 0 0 1 263 322)">Weight/Scale Variations</text><text transform="matrix(1 0 0 1 559.711 322)">Ultralight</text><text transform="matrix(1 0 0 1 856.422 322)">Thin</text><text transform="matrix(1 0 0 1 1153.13 322)">Light</text><text transform="matrix(1 0 0 1 1449.84 322)">Regular</text><text transform="matrix(1 0 0 1 1746.56 322)">Medium</text><text transform="matrix(1 0 0 1 2043.27 322)">Semibold</text><text transform="matrix(1 0 0 1 2339.98 322)">Bold</text><text transform="matrix(1 0 0 1 2636.69 322)">Heavy</text><text transform="matrix(1 0 0 1 2933.4 322)">Black</text><text id="template-version" style="text-anchor: end;" transform="matrix(1 0 0 1 3036 1933)">Template v.1.0</text><text class="lanchor" transform="matrix(1 0 0 1 263 726)">Small</text><text class="lanchor" transform="matrix(1 0 0 1 263 1156)">Medium</text><text class="lanchor" transform="matrix(1 0 0 1 263 1586)">Large</text></g><g id="Guides"><g id="H-reference" style="fill:#27AAE1;stroke:none;" transform="matrix(1 0 0 1 339 696)"><path d="M 54.9316 0 L 57.666 0 L 30.5664 -70.459 L 28.0762 -70.459 L 0.976562 0 L 3.66211 0 L 12.9395 -24.4629 L 45.7031 -24.4629 Z M 29.1992 -67.0898 L 29.4434 -67.0898 L 44.8242 -26.709 L 13.8184 -26.709 Z"/></g><line id="Baseline-S" style="fill:none;stroke:#27AAE1;opacity:1;stroke-width:0.577;" x1="263" x2="3036" y1="696" y2="696"/><line id="Capline-S" style="fill:none;stroke:#27AAE1;opacity:1;stroke-width:0.577;" x1="263" x2="3036" y1="625.541" y2="625.541"/><g id="H-reference" style="fill:#27AAE1;stroke:none;" transform="matrix(1 0 0 1 339 1126)"><path d="M 54.9316 0 L 57.666 0 L 30.5664 -70.459 L 28.0762 -70.459 L 0.976562 0 L 3.66211 0 L 12.9395 -24.4629 L 45.7031 -24.4629 Z M 29.1992 -67.0898 L 29.4434 -67.0898 L 44.8242 -26.709 L 13.8184 -26.709 Z"/></g><line id="Baseline-M" style="fill:none;stroke:#27AAE1;opacity:1;stroke-width:0.577;" x1="263" x2="3036" y1="1126" y2="1126"/><line id="Capline-M" style="fill:none;stroke:#27AAE1;opacity:1;stroke-width:0.577;" x1="263" x2="3036" y1="1055.54" y2="1055.54"/><g id="H-reference" style="fill:#27AAE1;stroke:none;" transform="matrix(1 0 0 1 339 1556)"><path d="M 54.9316 0 L 57.666 0 L 30.5664 -70.459 L 28.0762 -70.459 L 0.976562 0 L 3.66211 0 L 12.9395 -24.4629 L 45.7031 -24.4629 Z M 29.1992 -67.0898 L 29.4434 -67.0898 L 44.8242 -26.709 L 13.8184 -26.709 Z"/></g><line id="Baseline-L" style="fill:none;stroke:#27AAE1;opacity:1;stroke-width:0.577;" x1="263" x2="3036" y1="1556" y2="1556"/><line id="Capline-L" style="fill:none;stroke:#27AAE1;opacity:1;stroke-width:0.577;" x1="263" x2="3036" y1="1485.54" y2="1485.54"/><rect height="119.336" id="left-margin" style="fill:darkred;stroke:none;opacity:0.4;" width="12.4512" x="1394.06" y="1030.79"/><rect height="119.336" id="right-margin" style="fill:darkgreen;stroke:none;opacity:0.4;" width="12.4512" x="1502.5112" y="1030.79"/><rect x="1406.5112" y="1045" width="96" height="96" fill="none" stroke="blue" stroke-dasharray="5"/><rect x="1394.06" y="1030.79" width="120.9024" height="119.336" fill="none" stroke="blue"/></g><g id="Symbols"><g id="Bold-L" transform="matrix(1 0 0 1 2266 1556)"><path d="M110.055 -10.236 Q113.305 -10.236 115.67 -12.451 Q118.035 -14.665 118.035 -17.897 Q118.035 -21.148 115.67 -23.512 Q113.305 -25.877 110.134 -25.877 Q106.823 -25.877 104.608 -23.512 Q102.394 -21.148 102.394 -17.976 Q102.394 -14.665 104.608 -12.451 Q106.823 -10.236 110.055 -10.236 Z M9.675 -48.452  33.056 -79.735 Q34.669 -81.992 37.508 -83.041 Q40.347 -84.089 43.376 -84.089 H111.585 Q114.453 -84.089 117.292 -83.041 Q120.131 -81.992 121.905 -79.735 L145.447 -48.452 H9.675 Z M24.349 12.984 Q18.205 12.984 13.94 8.672 Q9.675 4.361 9.675 -1.851 V-38.777 H145.447 V-1.851 Q145.447 4.361 141.163 8.672 Q136.879 12.984 130.613 12.984 H24.349 Z"/></g><g id="Semibold-L" transform="matrix(1 0 0 1 1970.27 1556)"><path d="M109.879 -9.675 Q113.328 -9.675 115.857 -12.049 Q118.386 -14.422 118.386 -17.932 Q118.386 -21.381 115.857 -23.91 Q113.328 -26.438 109.923 -26.438 Q106.369 -26.438 103.996 -23.91 Q101.623 -21.381 101.623 -17.976 Q101.623 -14.422 103.996 -12.049 Q106.369 -9.675 109.879 -9.675 Z M10.657 -49.013  33.827 -78.964 Q35.37 -81.011 37.921 -81.989 Q40.472 -82.967 43.236 -82.967 H111.655 Q114.257 -82.967 116.809 -81.989 Q119.36 -81.011 121.064 -78.964 L144.396 -49.013 H10.657 Z M24.068 12.072 Q18.422 12.072 14.539 8.163 Q10.657 4.254 10.657 -1.431 V-39.338 H144.396 V-1.431 Q144.396 4.254 140.467 8.163 Q136.538 12.072 130.893 12.072 H24.068 Z"/></g><g id="Medium-L" transform="matrix(1 0 0 1 1674.31 1556)"><path d="M109.747 -9.255 Q113.346 -9.255 115.997 -11.747 Q118.648 -14.24 118.648 -17.957 Q118.648 -21.556 115.997 -24.208 Q113.346 -26.859 109.766 -26.859 Q106.029 -26.859 103.537 -24.208 Q101.044 -21.556 101.044 -17.976 Q101.044 -14.24 103.537 -11.747 Q106.029 -9.255 109.747 -9.255 Z M11.393 -49.434  34.406 -78.385 Q35.896 -80.275 38.231 -81.2 Q40.566 -82.126 43.131 -82.126 H111.708 Q114.111 -82.126 116.446 -81.2 Q118.782 -80.275 120.433 -78.385 L143.607 -49.434 H11.393 Z M23.858 11.389 Q18.586 11.389 14.989 7.781 Q11.393 4.174 11.393 -1.115 V-39.759 H143.607 V-1.115 Q143.607 4.174 139.945 7.781 Q136.283 11.389 131.103 11.389 H23.858 Z"/></g><g id="Regular-L" transform="matrix(1 0 0 1 1378.56 1556)"><path d="M109.65 -8.946 Q113.359 -8.946 116.1 -11.526 Q118.841 -14.106 118.841 -17.976 Q118.841 -21.685 116.1 -24.426 Q113.359 -27.167 109.65 -27.167 Q105.78 -27.167 103.2 -24.426 Q100.62 -21.685 100.62 -17.976 Q100.62 -14.106 103.2 -11.526 Q105.78 -8.946 109.65 -8.946 Z M11.933 -49.742  34.83 -77.961 Q36.281 -79.735 38.458 -80.622 Q40.635 -81.509 43.054 -81.509 H111.746 Q114.004 -81.509 116.181 -80.622 Q118.358 -79.735 119.97 -77.961 L143.029 -49.742 H11.933 Z M23.704 10.888 Q18.705 10.888 15.319 7.501 Q11.933 4.115 11.933 -0.884 V-40.067 H143.029 V-0.884 Q143.029 4.115 139.562 7.501 Q136.095 10.888 131.257 10.888 H23.704 Z"/></g><g id="Light-L" transform="matrix(1 0 0 1 1082.77 1556)"><path d="M110.022 -12.233 Q113.235 -12.233 115.635 -14.472 Q118.035 -16.711 118.035 -20.085 Q118.035 -23.298 115.635 -25.698 Q113.235 -28.098 110.022 -28.098 Q106.648 -28.098 104.41 -25.698 Q102.171 -23.298 102.171 -20.085 Q102.171 -16.711 104.41 -14.472 Q106.648 -12.233 110.022 -12.233 Z M15.158 -48.936  36.257 -74.302 Q37.646 -76.014 39.792 -76.9 Q41.938 -77.787 44.232 -77.787 H110.568 Q112.701 -77.787 114.847 -76.9 Q116.993 -76.014 118.543 -74.302 L139.804 -48.936 H15.158 Z M26.557 5.802 Q21.744 5.802 18.451 2.508 Q15.158 -0.785 15.158 -5.598 V-41.618 H139.804 V-5.598 Q139.804 -0.785 136.43 2.508 Q133.056 5.802 128.404 5.802 H26.557 Z"/></g><g id="Thin-L" transform="matrix(1 0 0 1 787.282 1556)"><path d="M110.394 -15.52 Q113.111 -15.52 115.17 -17.418 Q117.229 -19.316 117.229 -22.194 Q117.229 -24.91 115.17 -26.969 Q113.111 -29.028 110.394 -29.028 Q107.517 -29.028 105.619 -26.969 Q103.721 -24.91 103.721 -22.194 Q103.721 -19.316 105.619 -17.418 Q107.517 -15.52 110.394 -15.52 Z M18.383 -48.13  37.683 -70.643 Q39.01 -72.293 41.125 -73.18 Q43.24 -74.066 45.41 -74.066 H109.39 Q111.399 -74.066 113.514 -73.18 Q115.629 -72.293 117.117 -70.643 L136.579 -48.13 H18.383 Z M29.409 0.716 Q24.783 0.716 21.583 -2.484 Q18.383 -5.684 18.383 -10.311 V-43.168 H136.579 V-10.311 Q136.579 -5.684 133.298 -2.484 Q130.017 0.716 125.552 0.716 H29.409 Z"/></g><g id="Ultralight-L" transform="matrix(1 0 0 1 491.205 1556)"><path d="M110.618 -17.492 Q113.036 -17.492 114.891 -19.186 Q116.745 -20.879 116.745 -23.459 Q116.745 -25.877 114.891 -27.732 Q113.036 -29.586 110.618 -29.586 Q108.038 -29.586 106.344 -27.732 Q104.651 -25.877 104.651 -23.459 Q104.651 -20.879 106.344 -19.186 Q108.038 -17.492 110.618 -17.492 Z M20.317 -47.646  38.539 -68.447 Q39.829 -70.06 41.925 -70.947 Q44.021 -71.834 46.117 -71.834 H108.683 Q110.618 -71.834 112.714 -70.947 Q114.81 -70.06 116.261 -68.447 L134.644 -47.646 H20.317 Z M31.121 -2.335 Q26.606 -2.335 23.462 -5.479 Q20.317 -8.624 20.317 -13.139 V-44.099 H134.644 V-13.139 Q134.644 -8.624 131.419 -5.479 Q128.194 -2.335 123.84 -2.335 H31.121 Z"/></g><g id="Bold-M" transform="matrix(1 0 0 1 2281.8 1126)"><path d="M85.5 -12.48 Q88.833 -12.48 91.229 -14.884 Q93.625 -17.288 93.625 -20.605 Q93.625 -23.938 91.229 -26.334 Q88.833 -28.73 85.5 -28.73 Q82.183 -28.73 79.779 -26.334 Q77.375 -23.938 77.375 -20.605 Q77.375 -17.288 79.779 -14.884 Q82.183 -12.48 85.5 -12.48 Z M5.625 -48.73  23.25 -69.855 Q25.5 -72.48 28.688 -73.667 Q31.875 -74.855 35.25 -74.855 H84.75 Q88.125 -74.855 91.312 -73.667 Q94.5 -72.48 96.75 -69.855 L114.375 -48.73 H5.625 Z M22.625 3.895 Q15.475 3.895 10.55 -1.03 Q5.625 -5.955 5.625 -13.105 V-38.73 H114.375 V-13.105 Q114.375 -5.955 109.463 -1.03 Q104.55 3.895 97.375 3.895 H22.625 Z"/></g><g id="Semibold-M" transform="matrix(1 0 0 1 1985.97 1126)"><path d="M85.283 -12.208 Q88.797 -12.208 91.32 -14.708 Q93.842 -17.209 93.842 -20.768 Q93.842 -24.282 91.32 -26.805 Q88.797 -29.328 85.283 -29.328 Q81.723 -29.328 79.223 -26.805 Q76.723 -24.282 76.723 -20.768 Q76.723 -17.209 79.223 -14.708 Q81.723 -12.208 85.283 -12.208 Z M6.821 -49.328  24.174 -68.985 Q26.261 -71.339 29.122 -72.445 Q31.984 -73.551 35.033 -73.551 H84.913 Q87.962 -73.551 90.823 -72.445 Q93.685 -71.339 95.772 -68.985 L113.179 -49.328 H6.821 Z M22.19 2.808 Q15.703 2.808 11.262 -1.633 Q6.821 -6.074 6.821 -12.561 V-39.328 H113.179 V-12.561 Q113.179 -6.074 108.718 -1.633 Q104.257 2.808 97.81 2.808 H22.19 Z"/></g><g id="Medium-M" transform="matrix(1 0 0 1 1689.91 1126)"><path d="M85.12 -12.004 Q88.77 -12.004 91.388 -14.577 Q94.005 -17.149 94.005 -20.89 Q94.005 -24.541 91.388 -27.158 Q88.77 -29.776 85.12 -29.776 Q81.378 -29.776 78.806 -27.158 Q76.234 -24.541 76.234 -20.89 Q76.234 -17.149 78.806 -14.577 Q81.378 -12.004 85.12 -12.004 Z M7.717 -49.776  24.867 -68.333 Q26.831 -70.483 29.448 -71.528 Q32.065 -72.572 34.87 -72.572 H85.035 Q87.84 -72.572 90.457 -71.528 Q93.073 -70.483 95.038 -68.333 L112.283 -49.776 H7.717 Z M21.864 1.993 Q15.874 1.993 11.796 -2.086 Q7.717 -6.164 7.717 -12.154 V-39.776 H112.283 V-12.154 Q112.283 -6.164 108.159 -2.086 Q104.036 1.993 98.136 1.993 H21.864 Z"/></g><g id="Regular-M" transform="matrix(1 0 0 1 1394.06 1126)"><path d="M85 -11.855 Q88.75 -11.855 91.438 -14.48 Q94.125 -17.105 94.125 -20.98 Q94.125 -24.73 91.438 -27.417 Q88.75 -30.105 85 -30.105 Q81.125 -30.105 78.5 -27.417 Q75.875 -24.73 75.875 -20.98 Q75.875 -17.105 78.5 -14.48 Q81.125 -11.855 85 -11.855 Z M8.375 -50.105  25.375 -67.855 Q27.25 -69.855 29.688 -70.855 Q32.125 -71.855 34.75 -71.855 H85.125 Q87.75 -71.855 90.188 -70.855 Q92.625 -69.855 94.5 -67.855 L111.625 -50.105 H8.375 Z M21.625 1.395 Q16 1.395 12.188 -2.417 Q8.375 -6.23 8.375 -11.855 V-40.105 H111.625 V-11.855 Q111.625 -6.23 107.75 -2.417 Q103.875 1.395 98.375 1.395 H21.625 Z"/></g><g id="Light-M" transform="matrix(1 0 0 1 1098.18 1126)"><path d="M85.288 -14.74 Q88.51 -14.74 90.837 -17.028 Q93.163 -19.317 93.163 -22.615 Q93.163 -25.836 90.837 -28.163 Q88.51 -30.49 85.288 -30.49 Q81.99 -30.49 79.702 -28.163 Q77.414 -25.836 77.414 -22.615 Q77.414 -19.317 79.702 -17.028 Q81.99 -14.74 85.288 -14.74 Z M10.875 -48.47  26.673 -65.211 Q28.404 -67.114 30.697 -68.042 Q32.99 -68.97 35.375 -68.97 H84.5 Q86.885 -68.97 89.178 -68.042 Q91.471 -67.114 93.202 -65.211 L109.125 -48.47 H10.875 Z M23.164 -2.548 Q17.923 -2.548 14.399 -6.072 Q10.875 -9.596 10.875 -14.836 V-40.97 H109.125 V-14.836 Q109.125 -9.596 105.538 -6.072 Q101.952 -2.548 96.836 -2.548 H23.164 Z"/></g><g id="Thin-M" transform="matrix(1 0 0 1 802.565 1126)"><path d="M85.577 -17.624 Q88.269 -17.624 90.236 -19.576 Q92.202 -21.528 92.202 -24.249 Q92.202 -26.941 90.236 -28.908 Q88.269 -30.874 85.577 -30.874 Q82.856 -30.874 80.904 -28.908 Q78.952 -26.941 78.952 -24.249 Q78.952 -21.528 80.904 -19.576 Q82.856 -17.624 85.577 -17.624 Z M13.375 -46.836  27.971 -62.567 Q29.558 -64.374 31.707 -65.23 Q33.856 -66.086 36 -66.086 H83.875 Q86.019 -66.086 88.168 -65.23 Q90.317 -64.374 91.904 -62.567 L106.625 -46.836 H13.375 Z M24.702 -6.49 Q19.846 -6.49 16.61 -9.725 Q13.375 -12.961 13.375 -17.816 V-41.836 H106.625 V-17.816 Q106.625 -12.961 103.327 -9.725 Q100.029 -6.49 95.298 -6.49 H24.702 Z"/></g><g id="Ultralight-M" transform="matrix(1 0 0 1 506.415 1126)"><path d="M85.75 -19.355 Q88.125 -19.355 89.875 -21.105 Q91.625 -22.855 91.625 -25.23 Q91.625 -27.605 89.875 -29.355 Q88.125 -31.105 85.75 -31.105 Q83.375 -31.105 81.625 -29.355 Q79.875 -27.605 79.875 -25.23 Q79.875 -22.855 81.625 -21.105 Q83.375 -19.355 85.75 -19.355 Z M14.875 -45.855  28.75 -60.98 Q30.25 -62.73 32.312 -63.542 Q34.375 -64.355 36.375 -64.355 H83.5 Q85.5 -64.355 87.562 -63.542 Q89.625 -62.73 91.125 -60.98 L105.125 -45.855 H14.875 Z M25.625 -8.855 Q21 -8.855 17.938 -11.917 Q14.875 -14.98 14.875 -19.605 V-42.355 H105.125 V-19.605 Q105.125 -14.98 102 -11.917 Q98.875 -8.855 94.375 -8.855 H25.625 Z"/></g><g id="Bold-S" transform="matrix(1 0 0 1 2294.23 696)"><path d="M69.038 -21.225 Q71.174 -21.225 72.719 -22.826 Q74.265 -24.427 74.265 -26.452 Q74.265 -28.589 72.719 -30.134 Q71.174 -31.679 69.038 -31.679 Q67.012 -31.679 65.411 -30.134 Q63.81 -28.589 63.81 -26.452 Q63.81 -24.427 65.411 -22.826 Q67.012 -21.225 69.038 -21.225 Z M6.016 -43.12  19.528 -58.9 Q21.303 -60.872 23.621 -61.711 Q25.938 -62.549 28.305 -62.549 H66.375 Q68.742 -62.549 71.059 -61.711 Q73.377 -60.872 75.054 -58.999 L88.664 -43.12 H6.016 Z M18.64 -8.305 Q13.393 -8.305 9.705 -11.994 Q6.016 -15.683 6.016 -20.929 V-35.624 H88.664 V-20.929 Q88.664 -15.683 84.985 -11.994 Q81.306 -8.305 76.04 -8.305 H18.64 Z"/></g><g id="Semibold-S" transform="matrix(1 0 0 1 1998.1 696)"><path d="M68.866 -21.011 Q71.146 -21.011 72.791 -22.688 Q74.436 -24.364 74.436 -26.581 Q74.436 -28.861 72.791 -30.506 Q71.146 -32.151 68.866 -32.151 Q66.649 -32.151 64.973 -30.506 Q63.296 -28.861 63.296 -26.581 Q63.296 -24.364 64.973 -22.688 Q66.649 -21.011 68.866 -21.011 Z M6.959 -43.592  20.257 -58.214 Q21.903 -59.972 23.964 -60.746 Q26.024 -61.52 28.134 -61.52 H66.503 Q68.613 -61.52 70.673 -60.746 Q72.734 -59.972 74.282 -58.313 L87.721 -43.592 H6.959 Z M18.297 -9.163 Q13.573 -9.163 10.266 -12.47 Q6.959 -15.777 6.959 -20.501 V-36.096 H87.721 V-20.501 Q87.721 -15.777 84.398 -12.47 Q81.075 -9.163 76.383 -9.163 H18.297 Z"/></g><g id="Medium-S" transform="matrix(1 0 0 1 1701.85 696)"><path d="M68.737 -20.85 Q71.124 -20.85 72.845 -22.584 Q74.565 -24.317 74.565 -26.678 Q74.565 -29.064 72.845 -30.785 Q71.124 -32.505 68.737 -32.505 Q66.377 -32.505 64.643 -30.785 Q62.91 -29.064 62.91 -26.678 Q62.91 -24.317 64.643 -22.584 Q66.377 -20.85 68.737 -20.85 Z M7.667 -43.945  20.803 -57.699 Q22.354 -59.297 24.221 -60.022 Q26.088 -60.748 28.005 -60.748 H66.6 Q68.516 -60.748 70.384 -60.022 Q72.251 -59.297 73.703 -57.798 L87.013 -43.945 H7.667 Z M18.04 -9.806 Q13.708 -9.806 10.688 -12.827 Q7.667 -15.848 7.667 -20.179 V-36.45 H87.013 V-20.179 Q87.013 -15.848 83.957 -12.827 Q80.901 -9.806 76.64 -9.806 H18.04 Z"/></g><g id="Regular-S" transform="matrix(1 0 0 1 1405.73 696)"><path d="M68.643 -20.732 Q71.109 -20.732 72.884 -22.507 Q74.659 -24.283 74.659 -26.748 Q74.659 -29.214 72.884 -30.989 Q71.109 -32.764 68.643 -32.764 Q66.177 -32.764 64.402 -30.989 Q62.627 -29.214 62.627 -26.748 Q62.627 -24.283 64.402 -22.507 Q66.177 -20.732 68.643 -20.732 Z M8.186 -44.205  21.204 -57.322 Q22.684 -58.801 24.41 -59.492 Q26.136 -60.182 27.911 -60.182 H66.671 Q68.446 -60.182 70.172 -59.492 Q71.898 -58.801 73.278 -57.421 L86.494 -44.205 H8.186 Z M17.851 -10.278 Q13.808 -10.278 10.997 -13.089 Q8.186 -15.899 8.186 -19.943 V-36.709 H86.494 V-19.943 Q86.494 -15.899 83.634 -13.089 Q80.774 -10.278 76.829 -10.278 H17.851 Z"/></g><g id="Light-S" transform="matrix(1 0 0 1 1109.75 696)"><path d="M68.871 -23.008 Q70.919 -23.008 72.41 -24.518 Q73.9 -26.028 73.9 -28.038 Q73.9 -30.086 72.41 -31.577 Q70.919 -33.068 68.871 -33.068 Q66.86 -33.068 65.351 -31.577 Q63.841 -30.086 63.841 -28.038 Q63.841 -26.028 65.351 -24.518 Q66.86 -23.008 68.871 -23.008 Z M10.158 -42.915  22.229 -55.236 Q23.594 -56.639 25.206 -57.272 Q26.819 -57.906 28.404 -57.906 H66.177 Q67.763 -57.906 69.375 -57.272 Q70.987 -56.639 72.254 -55.334 L84.522 -42.915 H10.158 Z M19.065 -13.389 Q15.325 -13.389 12.742 -15.972 Q10.158 -18.555 10.158 -22.295 V-37.392 H84.522 V-22.295 Q84.522 -18.555 81.889 -15.972 Q79.256 -13.389 75.615 -13.389 H19.065 Z"/></g><g id="Thin-S" transform="matrix(1 0 0 1 814.015 696)"><path d="M69.098 -25.284 Q70.729 -25.284 71.936 -26.528 Q73.142 -27.772 73.142 -29.328 Q73.142 -30.959 71.936 -32.165 Q70.729 -33.371 69.098 -33.371 Q67.543 -33.371 66.299 -32.165 Q65.055 -30.959 65.055 -29.328 Q65.055 -27.772 66.299 -26.528 Q67.543 -25.284 69.098 -25.284 Z M12.131 -41.625  23.253 -53.149 Q24.504 -54.477 26.003 -55.054 Q27.501 -55.63 28.897 -55.63 H65.684 Q67.08 -55.63 68.578 -55.054 Q70.077 -54.477 71.23 -53.248 L82.549 -41.625 H12.131 Z M20.279 -16.499 Q16.842 -16.499 14.486 -18.854 Q12.131 -21.21 12.131 -24.647 V-38.075 H82.549 V-24.647 Q82.549 -21.21 80.144 -18.854 Q77.739 -16.499 74.401 -16.499 H20.279 Z"/></g><g id="Ultralight-S" transform="matrix(1 0 0 1 517.792 696)"><path d="M69.235 -26.65 Q70.615 -26.65 71.651 -27.734 Q72.687 -28.819 72.687 -30.101 Q72.687 -31.482 71.651 -32.518 Q70.615 -33.553 69.235 -33.553 Q67.953 -33.553 66.868 -32.518 Q65.783 -31.482 65.783 -30.101 Q65.783 -28.819 66.868 -27.734 Q67.953 -26.65 69.235 -26.65 Z M13.314 -40.852  23.867 -51.898 Q25.051 -53.18 26.481 -53.722 Q27.911 -54.265 29.193 -54.265 H65.388 Q66.671 -54.265 68.101 -53.722 Q69.531 -53.18 70.615 -51.996 L81.366 -40.852 H13.314 Z M21.007 -18.365 Q17.753 -18.365 15.533 -20.584 Q13.314 -22.803 13.314 -26.058 V-38.485 H81.366 V-26.058 Q81.366 -22.803 79.097 -20.584 Q76.829 -18.365 73.673 -18.365 H21.007 Z"/></g></g></svg>