<svg xmlns="http://www.w3.org/2000/svg" version="1.1" width="3300" height="2000"><g id="Notes"><style>
    text {
      font-family: monospace;
      text-anchor: middle;
    }
    text.emphasis {
      font-weight:bold;
    }
    text.lanchor {
      text-anchor: start;
    }
  </style><rect height="2200" id="artboard" fill="white" width="3300" x="0" y="0"/><line id="" style="fill:none;stroke:black;stroke-width:0.5;" x1="263" x2="3036" y1="292" y2="292"/><text class="lanchor emphasis" transform="matrix(1 0 0 1 263 322)">Weight/Scale Variations</text><text transform="matrix(1 0 0 1 559.711 322)">Ultralight</text><text transform="matrix(1 0 0 1 856.422 322)">Thin</text><text transform="matrix(1 0 0 1 1153.13 322)">Light</text><text transform="matrix(1 0 0 1 1449.84 322)">Regular</text><text transform="matrix(1 0 0 1 1746.56 322)">Medium</text><text transform="matrix(1 0 0 1 2043.27 322)">Semibold</text><text transform="matrix(1 0 0 1 2339.98 322)">Bold</text><text transform="matrix(1 0 0 1 2636.69 322)">Heavy</text><text transform="matrix(1 0 0 1 2933.4 322)">Black</text><text id="template-version" style="text-anchor: end;" transform="matrix(1 0 0 1 3036 1933)">Template v.1.0</text><text class="lanchor" transform="matrix(1 0 0 1 263 726)">Small</text><text class="lanchor" transform="matrix(1 0 0 1 263 1156)">Medium</text><text class="lanchor" transform="matrix(1 0 0 1 263 1586)">Large</text></g><g id="Guides"><g id="H-reference" style="fill:#27AAE1;stroke:none;" transform="matrix(1 0 0 1 339 696)"><path d="M 54.9316 0 L 57.666 0 L 30.5664 -70.459 L 28.0762 -70.459 L 0.976562 0 L 3.66211 0 L 12.9395 -24.4629 L 45.7031 -24.4629 Z M 29.1992 -67.0898 L 29.4434 -67.0898 L 44.8242 -26.709 L 13.8184 -26.709 Z"/></g><line id="Baseline-S" style="fill:none;stroke:#27AAE1;opacity:1;stroke-width:0.577;" x1="263" x2="3036" y1="696" y2="696"/><line id="Capline-S" style="fill:none;stroke:#27AAE1;opacity:1;stroke-width:0.577;" x1="263" x2="3036" y1="625.541" y2="625.541"/><g id="H-reference" style="fill:#27AAE1;stroke:none;" transform="matrix(1 0 0 1 339 1126)"><path d="M 54.9316 0 L 57.666 0 L 30.5664 -70.459 L 28.0762 -70.459 L 0.976562 0 L 3.66211 0 L 12.9395 -24.4629 L 45.7031 -24.4629 Z M 29.1992 -67.0898 L 29.4434 -67.0898 L 44.8242 -26.709 L 13.8184 -26.709 Z"/></g><line id="Baseline-M" style="fill:none;stroke:#27AAE1;opacity:1;stroke-width:0.577;" x1="263" x2="3036" y1="1126" y2="1126"/><line id="Capline-M" style="fill:none;stroke:#27AAE1;opacity:1;stroke-width:0.577;" x1="263" x2="3036" y1="1055.54" y2="1055.54"/><g id="H-reference" style="fill:#27AAE1;stroke:none;" transform="matrix(1 0 0 1 339 1556)"><path d="M 54.9316 0 L 57.666 0 L 30.5664 -70.459 L 28.0762 -70.459 L 0.976562 0 L 3.66211 0 L 12.9395 -24.4629 L 45.7031 -24.4629 Z M 29.1992 -67.0898 L 29.4434 -67.0898 L 44.8242 -26.709 L 13.8184 -26.709 Z"/></g><line id="Baseline-L" style="fill:none;stroke:#27AAE1;opacity:1;stroke-width:0.577;" x1="263" x2="3036" y1="1556" y2="1556"/><line id="Capline-L" style="fill:none;stroke:#27AAE1;opacity:1;stroke-width:0.577;" x1="263" x2="3036" y1="1485.54" y2="1485.54"/><rect height="119.336" id="left-margin" style="fill:darkred;stroke:none;opacity:0.4;" width="12.4512" x="1394.06" y="1030.79"/><rect height="119.336" id="right-margin" style="fill:darkgreen;stroke:none;opacity:0.4;" width="12.4512" x="1502.5112" y="1030.79"/><rect x="1406.5112" y="1045" width="96" height="96" fill="none" stroke="blue" stroke-dasharray="5"/><rect x="1394.06" y="1030.79" width="120.9024" height="119.336" fill="none" stroke="blue"/></g><g id="Symbols"><g id="Bold-L" transform="matrix(1 0 0 1 2266 1556)"><path d="M68.773 -35.23  54.009 -20.304 Q52.084 -18.379 52.084 -16.041 Q52.084 -13.703 54.053 -11.849 Q55.942 -9.914 58.326 -9.914 Q60.711 -9.914 62.635 -11.839 L77.4 -26.603 L92.406 -11.839 Q94.251 -9.914 96.669 -9.914 Q99.088 -9.914 100.943 -11.849 Q102.716 -13.703 102.716 -16.1 Q102.716 -18.498 101.033 -20.465 L86.027 -35.23 L101.033 -50.236 Q102.716 -52.124 102.716 -54.521 Q102.716 -56.918 101.023 -58.853 Q99.045 -60.546 96.648 -60.546 Q94.251 -60.546 92.406 -58.863 L77.4 -43.857 L62.474 -58.863 Q60.506 -60.546 58.19 -60.546 Q55.873 -60.546 54.019 -58.772 Q52.084 -56.918 52.084 -54.521 Q52.084 -52.124 54.009 -50.236 L68.773 -35.23 Z M24.429 19.676 Q18.304 19.676 13.989 15.361 Q9.675 11.047 9.675 4.921 V-75.381 Q9.675 -81.573 13.989 -85.935 Q18.304 -90.297 24.429 -90.297 H130.371 Q136.563 -90.297 140.924 -85.935 Q145.286 -81.573 145.286 -75.381 V4.921 Q145.286 11.047 140.924 15.361 Q136.563 19.676 130.371 19.676 H24.429 Z"/></g><g id="Semibold-L" transform="matrix(1 0 0 1 1970.27 1556)"><path d="M69.685 -35.23  54.289 -19.743 Q52.574 -18.029 52.574 -15.901 Q52.574 -13.773 54.319 -12.129 Q55.982 -10.404 58.136 -10.404 Q60.29 -10.404 62.004 -12.119 L77.4 -27.515 L92.967 -12.119 Q94.601 -10.404 96.775 -10.404 Q98.948 -10.404 100.627 -12.129 Q102.226 -13.773 102.226 -15.935 Q102.226 -18.096 100.683 -19.834 L85.115 -35.23 L100.683 -50.797 Q102.226 -52.456 102.226 -54.617 Q102.226 -56.778 100.673 -58.503 Q98.924 -60.056 96.762 -60.056 Q94.601 -60.056 92.967 -58.513 L77.4 -42.945 L61.913 -58.513 Q60.175 -60.056 58.059 -60.056 Q55.943 -60.056 54.299 -58.457 Q52.574 -56.778 52.574 -54.617 Q52.574 -52.456 54.289 -50.797 L69.685 -35.23 Z M23.798 17.923 Q18.728 17.923 15.078 14.273 Q11.428 10.623 11.428 5.552 V-76.012 Q11.428 -81.12 15.078 -84.797 Q18.728 -88.474 23.798 -88.474 H131.002 Q136.11 -88.474 139.786 -84.797 Q143.463 -81.12 143.463 -76.012 V5.552 Q143.463 10.623 139.786 14.273 Q136.11 17.923 131.002 17.923 H23.798 Z"/></g><g id="Medium-L" transform="matrix(1 0 0 1 1674.31 1556)"><path d="M70.368 -35.23  54.499 -19.323 Q52.943 -17.766 52.943 -15.796 Q52.943 -13.826 54.518 -12.339 Q56.012 -10.773 57.993 -10.773 Q59.975 -10.773 61.531 -12.329 L77.4 -28.198 L93.388 -12.329 Q94.864 -10.773 96.853 -10.773 Q98.843 -10.773 100.39 -12.339 Q101.857 -13.826 101.857 -15.81 Q101.857 -17.794 100.42 -19.361 L84.432 -35.23 L100.42 -51.218 Q101.857 -52.704 101.857 -54.689 Q101.857 -56.673 100.41 -58.24 Q98.832 -59.687 96.848 -59.687 Q94.864 -59.687 93.388 -58.25 L77.4 -42.262 L61.493 -58.25 Q59.926 -59.687 57.961 -59.687 Q55.996 -59.687 54.509 -58.22 Q52.943 -56.673 52.943 -54.689 Q52.943 -52.704 54.499 -51.218 L70.368 -35.23 Z M23.325 16.608 Q19.046 16.608 15.894 13.456 Q12.742 10.304 12.742 6.025 V-76.485 Q12.742 -80.78 15.894 -83.944 Q19.046 -87.107 23.325 -87.107 H131.475 Q135.77 -87.107 138.933 -83.944 Q142.096 -80.78 142.096 -76.485 V6.025 Q142.096 10.304 138.933 13.456 Q135.77 16.608 131.475 16.608 H23.325 Z"/></g><g id="Regular-L" transform="matrix(1 0 0 1 1378.56 1556)"><path d="M70.869 -35.23  54.654 -19.014 Q53.212 -17.573 53.212 -15.719 Q53.212 -13.864 54.664 -12.494 Q56.034 -11.042 57.889 -11.042 Q59.743 -11.042 61.184 -12.484 L77.4 -28.699 L93.696 -12.484 Q95.057 -11.042 96.911 -11.042 Q98.766 -11.042 100.217 -12.494 Q101.588 -13.864 101.588 -15.719 Q101.588 -17.573 100.227 -19.014 L83.931 -35.23 L100.227 -51.526 Q101.588 -52.887 101.588 -54.741 Q101.588 -56.596 100.217 -58.047 Q98.766 -59.417 96.911 -59.417 Q95.057 -59.417 93.696 -58.057 L77.4 -41.761 L61.184 -58.057 Q59.743 -59.417 57.889 -59.417 Q56.034 -59.417 54.664 -58.047 Q53.212 -56.596 53.212 -54.741 Q53.212 -52.887 54.654 -51.526 L70.869 -35.23 Z M22.978 15.644 Q19.279 15.644 16.493 12.858 Q13.706 10.071 13.706 6.373 V-76.832 Q13.706 -80.531 16.493 -83.318 Q19.279 -86.104 22.978 -86.104 H131.822 Q135.521 -86.104 138.307 -83.318 Q141.094 -80.531 141.094 -76.832 V6.373 Q141.094 10.071 138.307 12.858 Q135.521 15.644 131.822 15.644 H22.978 Z"/></g><g id="Light-L" transform="matrix(1 0 0 1 1082.77 1556)"><path d="M72.389 -35.23  56.173 -19.014 Q55.104 -17.883 55.073 -16.463 Q55.042 -15.043 56.183 -14.013 Q57.213 -12.872 58.633 -12.872 Q60.053 -12.872 61.184 -14.003 L77.4 -30.219 L93.789 -14.003 Q94.747 -12.934 96.167 -12.903 Q97.587 -12.872 98.728 -14.013 Q99.758 -15.043 99.758 -16.463 Q99.758 -17.883 98.739 -19.014 L82.411 -35.23 L98.739 -51.619 Q99.696 -52.577 99.727 -53.997 Q99.758 -55.417 98.728 -56.558 Q97.587 -57.588 96.167 -57.588 Q94.747 -57.588 93.789 -56.569 L77.4 -40.241 L61.184 -56.569 Q60.053 -57.526 58.633 -57.557 Q57.213 -57.588 56.183 -56.558 Q55.042 -55.417 55.042 -53.997 Q55.042 -52.577 56.173 -51.619 L72.389 -35.23 Z M25.676 12.698 Q22.009 12.698 19.315 10.005 Q16.621 7.311 16.621 3.644 V-74.104 Q16.621 -77.771 19.315 -80.465 Q22.009 -83.158 25.676 -83.158 H129.124 Q132.791 -83.158 135.485 -80.465 Q138.179 -77.771 138.179 -74.104 V3.644 Q138.179 7.311 135.485 10.005 Q132.791 12.698 129.124 12.698 H25.676 Z"/></g><g id="Thin-L" transform="matrix(1 0 0 1 787.282 1556)"><path d="M73.908 -35.23  57.693 -19.014 Q56.996 -18.193 56.934 -17.207 Q56.872 -16.221 57.703 -15.533 Q58.391 -14.702 59.377 -14.702 Q60.363 -14.702 61.184 -15.523 L77.4 -31.738 L93.882 -15.523 Q94.437 -14.826 95.423 -14.764 Q96.409 -14.702 97.24 -15.533 Q97.928 -16.221 97.928 -17.207 Q97.928 -18.193 97.25 -19.014 L80.892 -35.23 L97.25 -51.712 Q97.804 -52.267 97.866 -53.253 Q97.928 -54.239 97.24 -55.07 Q96.409 -55.758 95.423 -55.758 Q94.437 -55.758 93.882 -55.08 L77.4 -38.722 L61.184 -55.08 Q60.363 -55.634 59.377 -55.696 Q58.391 -55.758 57.703 -55.07 Q56.872 -54.239 56.872 -53.253 Q56.872 -52.267 57.693 -51.712 L73.908 -35.23 Z M28.374 9.753 Q24.737 9.753 22.137 7.152 Q19.536 4.552 19.536 0.915 V-71.375 Q19.536 -75.012 22.137 -77.612 Q24.737 -80.213 28.374 -80.213 H126.426 Q130.063 -80.213 132.663 -77.612 Q135.264 -75.012 135.264 -71.375 V0.915 Q135.264 4.552 132.663 7.152 Q130.063 9.753 126.426 9.753 H28.374 Z"/></g><g id="Ultralight-L" transform="matrix(1 0 0 1 491.205 1556)"><path d="M74.82 -35.23  58.604 -19.014 Q58.131 -18.379 58.05 -17.654 Q57.969 -16.928 58.614 -16.444 Q59.098 -15.799 59.824 -15.799 Q60.549 -15.799 61.184 -16.434 L77.4 -32.65 L93.938 -16.434 Q94.251 -15.961 94.976 -15.88 Q95.702 -15.799 96.347 -16.444 Q96.831 -16.928 96.831 -17.654 Q96.831 -18.379 96.357 -19.014 L79.98 -35.23 L96.357 -51.768 Q96.669 -52.081 96.75 -52.806 Q96.831 -53.532 96.347 -54.177 Q95.702 -54.661 94.976 -54.661 Q94.251 -54.661 93.938 -54.187 L77.4 -37.81 L61.184 -54.187 Q60.549 -54.499 59.824 -54.58 Q59.098 -54.661 58.614 -54.177 Q57.969 -53.532 57.969 -52.806 Q57.969 -52.081 58.604 -51.768 L74.82 -35.23 Z M29.992 7.985 Q26.374 7.985 23.83 5.44 Q21.285 2.896 21.285 -0.722 V-69.737 Q21.285 -73.356 23.83 -75.9 Q26.374 -78.445 29.992 -78.445 H124.808 Q128.426 -78.445 130.97 -75.9 Q133.515 -73.356 133.515 -69.737 V-0.722 Q133.515 2.896 130.97 5.44 Q128.426 7.985 124.808 7.985 H29.992 Z"/></g><g id="Bold-M" transform="matrix(1 0 0 1 2281.8 1126)"><path d="M51.25 -35.23  43.18 -27.16 Q41.312 -25.292 41.375 -22.855 Q41.438 -20.417 43.312 -18.542 Q45.188 -16.667 47.688 -16.667 Q50.188 -16.667 52.055 -18.535 L60 -26.48 L68.07 -18.41 Q69.938 -16.542 72.438 -16.605 Q74.938 -16.667 76.812 -18.542 Q78.688 -20.417 78.688 -22.917 Q78.688 -25.417 76.82 -27.285 L68.75 -35.23 L76.82 -43.3 Q78.688 -45.167 78.688 -47.667 Q78.688 -50.167 76.812 -52.042 Q74.938 -53.917 72.438 -53.917 Q69.938 -53.917 68.07 -52.05 L60 -43.98 L51.93 -52.05 Q50.062 -53.917 47.625 -53.917 Q45.188 -53.917 43.312 -52.042 Q41.438 -50.167 41.438 -47.667 Q41.438 -45.167 43.305 -43.3 L51.25 -35.23 Z M22.125 7.895 Q15.758 7.895 11.379 3.516 Q7 -0.863 7 -7.23 V-63.23 Q7 -69.597 11.379 -73.976 Q15.758 -78.355 22.125 -78.355 H97.875 Q104.242 -78.355 108.621 -73.976 Q113 -69.597 113 -63.23 V-7.23 Q113 -0.863 108.621 3.516 Q104.242 7.895 97.875 7.895 H22.125 Z"/></g><g id="Semibold-M" transform="matrix(1 0 0 1 1985.97 1126)"><path d="M52.174 -35.23  43.506 -26.562 Q41.856 -24.912 41.891 -22.692 Q41.927 -20.472 43.584 -18.814 Q45.242 -17.157 47.497 -17.157 Q49.753 -17.157 51.403 -18.806 L60 -27.404 L68.668 -18.736 Q70.318 -17.086 72.573 -17.121 Q74.829 -17.157 76.486 -18.814 Q78.144 -20.472 78.144 -22.727 Q78.144 -24.983 76.494 -26.632 L67.826 -35.23 L76.494 -43.898 Q78.144 -45.548 78.144 -47.803 Q78.144 -50.059 76.486 -51.716 Q74.829 -53.374 72.573 -53.374 Q70.318 -53.374 68.668 -51.724 L60 -43.056 L51.332 -51.724 Q49.682 -53.374 47.462 -53.374 Q45.242 -53.374 43.584 -51.716 Q41.927 -50.059 41.927 -47.803 Q41.927 -45.548 43.576 -43.898 L52.174 -35.23 Z M21.473 6.047 Q16.193 6.047 12.52 2.375 Q8.848 -1.298 8.848 -6.578 V-63.882 Q8.848 -69.162 12.52 -72.835 Q16.193 -76.507 21.473 -76.507 H98.527 Q103.807 -76.507 107.48 -72.835 Q111.152 -69.162 111.152 -63.882 V-6.578 Q111.152 -1.298 107.48 2.375 Q103.807 6.047 98.527 6.047 H21.473 Z"/></g><g id="Medium-M" transform="matrix(1 0 0 1 1689.91 1126)"><path d="M52.867 -35.23  43.75 -26.113 Q42.264 -24.627 42.279 -22.57 Q42.294 -20.513 43.788 -19.018 Q45.283 -17.523 47.355 -17.523 Q49.427 -17.523 50.913 -19.01 L60 -28.097 L69.117 -18.98 Q70.603 -17.494 72.675 -17.508 Q74.747 -17.523 76.242 -19.018 Q77.736 -20.513 77.736 -22.585 Q77.736 -24.657 76.25 -26.143 L67.133 -35.23 L76.25 -44.347 Q77.736 -45.833 77.736 -47.905 Q77.736 -49.977 76.242 -51.472 Q74.747 -52.966 72.675 -52.966 Q70.603 -52.966 69.117 -51.48 L60 -42.363 L50.883 -51.48 Q49.397 -52.966 47.34 -52.966 Q45.283 -52.966 43.788 -51.472 Q42.294 -49.977 42.294 -47.905 Q42.294 -45.833 43.78 -44.347 L52.867 -35.23 Z M20.984 4.661 Q16.519 4.661 13.376 1.519 Q10.234 -1.624 10.234 -6.089 V-64.371 Q10.234 -68.836 13.376 -71.979 Q16.519 -75.121 20.984 -75.121 H99.016 Q103.481 -75.121 106.624 -71.979 Q109.766 -68.836 109.766 -64.371 V-6.089 Q109.766 -1.624 106.624 1.519 Q103.481 4.661 99.016 4.661 H20.984 Z"/></g><g id="Regular-M" transform="matrix(1 0 0 1 1394.06 1126)"><path d="M53.375 -35.23  43.93 -25.785 Q42.562 -24.417 42.562 -22.48 Q42.562 -20.542 43.938 -19.167 Q45.312 -17.792 47.25 -17.792 Q49.188 -17.792 50.555 -19.16 L60 -28.605 L69.445 -19.16 Q70.812 -17.792 72.75 -17.792 Q74.688 -17.792 76.062 -19.167 Q77.438 -20.542 77.438 -22.48 Q77.438 -24.417 76.07 -25.785 L66.625 -35.23 L76.07 -44.675 Q77.438 -46.042 77.438 -47.98 Q77.438 -49.917 76.062 -51.292 Q74.688 -52.667 72.75 -52.667 Q70.812 -52.667 69.445 -51.3 L60 -41.855 L50.555 -51.3 Q49.188 -52.667 47.25 -52.667 Q45.312 -52.667 43.938 -51.292 Q42.562 -49.917 42.562 -47.98 Q42.562 -46.042 43.93 -44.675 L53.375 -35.23 Z M20.625 3.645 Q16.758 3.645 14.004 0.891 Q11.25 -1.863 11.25 -5.73 V-64.73 Q11.25 -68.597 14.004 -71.351 Q16.758 -74.105 20.625 -74.105 H99.375 Q103.242 -74.105 105.996 -71.351 Q108.75 -68.597 108.75 -64.73 V-5.73 Q108.75 -1.863 105.996 0.891 Q103.242 3.645 99.375 3.645 H20.625 Z"/></g><g id="Light-M" transform="matrix(1 0 0 1 1098.18 1126)"><path d="M55.034 -35.23  44.723 -24.919 Q43.692 -23.889 43.668 -22.456 Q43.644 -21.023 44.731 -19.961 Q45.793 -18.874 47.202 -18.874 Q48.611 -18.874 49.689 -19.953 L60 -30.264 L70.335 -19.953 Q71.341 -18.922 72.774 -18.898 Q74.207 -18.874 75.293 -19.961 Q76.356 -21.023 76.356 -22.432 Q76.356 -23.84 75.301 -24.919 L64.966 -35.23 L75.301 -45.565 Q76.308 -46.571 76.332 -48.004 Q76.356 -49.437 75.293 -50.523 Q74.207 -51.586 72.798 -51.586 Q71.389 -51.586 70.335 -50.531 L60 -40.196 L49.689 -50.531 Q48.659 -51.538 47.226 -51.562 Q45.793 -51.586 44.731 -50.523 Q43.644 -49.437 43.644 -48.028 Q43.644 -46.619 44.723 -45.565 L55.034 -35.23 Z M22.043 1.361 Q18.489 1.361 15.999 -1.128 Q13.51 -3.618 13.51 -7.172 V-63.288 Q13.51 -66.842 15.999 -69.332 Q18.489 -71.821 22.043 -71.821 H97.957 Q101.511 -71.821 104.001 -69.332 Q106.49 -66.842 106.49 -63.288 V-7.172 Q106.49 -3.618 104.001 -1.128 Q101.511 1.361 97.957 1.361 H22.043 Z"/></g><g id="Thin-M" transform="matrix(1 0 0 1 802.565 1126)"><path d="M56.692 -35.23  45.516 -24.054 Q44.822 -23.36 44.774 -22.432 Q44.726 -21.504 45.524 -20.754 Q46.274 -19.956 47.154 -19.956 Q48.034 -19.956 48.824 -20.746 L60 -31.922 L71.224 -20.746 Q71.87 -20.052 72.798 -20.004 Q73.726 -19.956 74.524 -20.754 Q75.274 -21.504 75.274 -22.384 Q75.274 -23.264 74.532 -24.054 L63.308 -35.23 L74.532 -46.454 Q75.178 -47.1 75.226 -48.028 Q75.274 -48.956 74.524 -49.754 Q73.726 -50.504 72.846 -50.504 Q71.966 -50.504 71.224 -49.762 L60 -38.538 L48.824 -49.762 Q48.13 -50.408 47.202 -50.456 Q46.274 -50.504 45.524 -49.754 Q44.726 -48.956 44.726 -48.076 Q44.726 -47.196 45.516 -46.454 L56.692 -35.23 Z M23.462 -0.922 Q20.219 -0.922 17.994 -3.147 Q15.769 -5.372 15.769 -8.615 V-61.845 Q15.769 -65.088 17.994 -67.313 Q20.219 -69.538 23.462 -69.538 H96.538 Q99.781 -69.538 102.006 -67.313 Q104.231 -65.088 104.231 -61.845 V-8.615 Q104.231 -5.372 102.006 -3.147 Q99.781 -0.922 96.538 -0.922 H23.462 Z"/></g><g id="Ultralight-M" transform="matrix(1 0 0 1 506.415 1126)"><path d="M57.688 -35.23  45.992 -23.535 Q45.5 -23.042 45.438 -22.417 Q45.375 -21.792 46 -21.23 Q46.562 -20.605 47.125 -20.605 Q47.688 -20.605 48.305 -21.222 L60 -32.917 L71.758 -21.222 Q72.188 -20.73 72.812 -20.667 Q73.438 -20.605 74.062 -21.23 Q74.625 -21.792 74.625 -22.355 Q74.625 -22.917 74.07 -23.535 L62.312 -35.23 L74.07 -46.988 Q74.5 -47.417 74.562 -48.042 Q74.625 -48.667 74.062 -49.292 Q73.438 -49.855 72.875 -49.855 Q72.312 -49.855 71.758 -49.3 L60 -37.542 L48.305 -49.3 Q47.812 -49.73 47.188 -49.792 Q46.562 -49.855 46 -49.292 Q45.375 -48.667 45.375 -48.105 Q45.375 -47.542 45.992 -46.988 L57.688 -35.23 Z M24.312 -2.292 Q21.258 -2.292 19.191 -4.359 Q17.125 -6.425 17.125 -9.48 V-60.98 Q17.125 -64.035 19.191 -66.101 Q21.258 -68.167 24.312 -68.167 H95.688 Q98.742 -68.167 100.809 -66.101 Q102.875 -64.035 102.875 -60.98 V-9.48 Q102.875 -6.425 100.809 -4.359 Q98.742 -2.292 95.688 -2.292 H24.312 Z"/></g><g id="Bold-S" transform="matrix(1 0 0 1 2294.23 696)"><path d="M40.929 -35.23  35.351 -29.651 Q33.878 -28.178 33.976 -26.551 Q34.075 -24.924 35.554 -23.444 Q37.034 -21.965 38.76 -21.965 Q40.486 -21.965 41.959 -23.438 L47.34 -28.819 L52.919 -23.241 Q54.392 -21.768 56.118 -21.866 Q57.844 -21.965 59.323 -23.444 Q60.802 -24.924 60.802 -26.65 Q60.802 -28.376 59.329 -29.849 L53.751 -35.23 L59.329 -40.809 Q60.802 -42.282 60.802 -44.008 Q60.802 -45.734 59.323 -47.213 Q57.844 -48.692 56.118 -48.692 Q54.392 -48.692 52.919 -47.219 L47.34 -41.641 L41.761 -47.219 Q40.288 -48.692 38.661 -48.692 Q37.034 -48.692 35.554 -47.213 Q34.075 -45.734 34.075 -44.008 Q34.075 -42.282 35.548 -40.809 L40.929 -35.23 Z M18.246 -4.36 Q13.518 -4.36 10.309 -7.569 Q7.101 -10.777 7.101 -15.505 V-54.955 Q7.101 -59.683 10.309 -62.891 Q13.518 -66.1 18.246 -66.1 H76.434 Q81.162 -66.1 84.371 -62.891 Q87.579 -59.683 87.579 -54.955 V-15.505 Q87.579 -10.777 84.371 -7.569 Q81.162 -4.36 76.434 -4.36 H18.246 Z"/></g><g id="Semibold-S" transform="matrix(1 0 0 1 1998.1 696)"><path d="M41.658 -35.23  35.608 -29.18 Q34.307 -27.878 34.384 -26.422 Q34.461 -24.967 35.769 -23.659 Q37.077 -22.351 38.61 -22.351 Q40.143 -22.351 41.444 -23.653 L47.34 -29.548 L53.39 -23.498 Q54.692 -22.197 56.225 -22.274 Q57.758 -22.351 59.066 -23.659 Q60.373 -24.967 60.373 -26.5 Q60.373 -28.033 59.072 -29.334 L53.022 -35.23 L59.072 -41.28 Q60.373 -42.582 60.373 -44.115 Q60.373 -45.648 59.066 -46.956 Q57.758 -48.263 56.225 -48.263 Q54.692 -48.263 53.39 -46.962 L47.34 -40.912 L41.29 -46.962 Q39.988 -48.263 38.532 -48.263 Q37.077 -48.263 35.769 -46.956 Q34.461 -45.648 34.461 -44.115 Q34.461 -42.582 35.763 -41.28 L41.658 -35.23 Z M17.731 -5.818 Q13.861 -5.818 11.21 -8.469 Q8.559 -11.12 8.559 -14.99 V-55.47 Q8.559 -59.34 11.21 -61.991 Q13.861 -64.642 17.731 -64.642 H76.949 Q80.819 -64.642 83.47 -61.991 Q86.121 -59.34 86.121 -55.47 V-14.99 Q86.121 -11.12 83.47 -8.469 Q80.819 -5.818 76.949 -5.818 H17.731 Z"/></g><g id="Medium-S" transform="matrix(1 0 0 1 1701.85 696)"><path d="M42.205 -35.23  35.801 -28.826 Q34.628 -27.653 34.689 -26.326 Q34.75 -24.999 35.929 -23.819 Q37.109 -22.64 38.497 -22.64 Q39.885 -22.64 41.058 -23.813 L47.34 -30.095 L53.744 -23.691 Q54.917 -22.518 56.305 -22.579 Q57.693 -22.64 58.873 -23.819 Q60.052 -24.999 60.052 -26.387 Q60.052 -27.775 58.879 -28.948 L52.475 -35.23 L58.879 -41.634 Q60.052 -42.807 60.052 -44.195 Q60.052 -45.583 58.873 -46.763 Q57.693 -47.942 56.305 -47.942 Q54.917 -47.942 53.744 -46.769 L47.34 -40.365 L40.936 -46.769 Q39.763 -47.942 38.436 -47.942 Q37.109 -47.942 35.929 -46.763 Q34.75 -45.583 34.75 -44.195 Q34.75 -42.807 35.923 -41.634 L42.205 -35.23 Z M17.345 -6.912 Q14.118 -6.912 11.885 -9.145 Q9.652 -11.377 9.652 -14.605 V-55.855 Q9.652 -59.083 11.885 -61.315 Q14.118 -63.548 17.345 -63.548 H77.335 Q80.562 -63.548 82.795 -61.315 Q85.028 -59.083 85.028 -55.855 V-14.605 Q85.028 -11.377 82.795 -9.145 Q80.562 -6.912 77.335 -6.912 H17.345 Z"/></g><g id="Regular-S" transform="matrix(1 0 0 1 1405.73 696)"><path d="M42.606 -35.23  35.943 -28.567 Q34.864 -27.488 34.913 -26.255 Q34.963 -25.022 36.047 -23.937 Q37.132 -22.853 38.414 -22.853 Q39.697 -22.853 40.775 -23.931 L47.34 -30.496 L54.003 -23.833 Q55.082 -22.754 56.364 -22.803 Q57.646 -22.853 58.731 -23.937 Q59.816 -25.022 59.816 -26.304 Q59.816 -27.587 58.737 -28.665 L52.074 -35.23 L58.737 -41.893 Q59.816 -42.972 59.816 -44.254 Q59.816 -45.536 58.731 -46.621 Q57.646 -47.706 56.364 -47.706 Q55.082 -47.706 54.003 -46.627 L47.34 -39.964 L40.677 -46.627 Q39.598 -47.706 38.365 -47.706 Q37.132 -47.706 36.047 -46.621 Q34.963 -45.536 34.963 -44.254 Q34.963 -42.972 36.041 -41.893 L42.606 -35.23 Z M17.062 -7.714 Q14.307 -7.714 12.38 -9.64 Q10.454 -11.566 10.454 -14.321 V-56.138 Q10.454 -58.894 12.38 -60.82 Q14.307 -62.746 17.062 -62.746 H77.618 Q80.373 -62.746 82.3 -60.82 Q84.226 -58.894 84.226 -56.138 V-14.321 Q84.226 -11.566 82.3 -9.64 Q80.373 -7.714 77.618 -7.714 H17.062 Z"/></g><g id="Light-S" transform="matrix(1 0 0 1 1109.75 696)"><path d="M43.915 -35.23  36.568 -27.884 Q35.755 -27.071 35.786 -26.236 Q35.816 -25.402 36.673 -24.563 Q37.512 -23.706 38.376 -23.706 Q39.241 -23.706 40.092 -24.557 L47.34 -31.805 L54.705 -24.458 Q55.499 -23.645 56.383 -23.676 Q57.267 -23.706 58.124 -24.563 Q58.963 -25.402 58.963 -26.266 Q58.963 -27.131 58.13 -27.982 L50.765 -35.23 L58.13 -42.595 Q58.925 -43.389 58.944 -44.273 Q58.963 -45.157 58.124 -46.014 Q57.267 -46.853 56.402 -46.853 Q55.537 -46.853 54.705 -46.02 L47.34 -38.655 L39.994 -46.02 Q39.181 -46.815 38.346 -46.834 Q37.512 -46.853 36.673 -46.014 Q35.816 -45.157 35.816 -44.292 Q35.816 -43.427 36.667 -42.595 L43.915 -35.23 Z M18.181 -9.516 Q15.672 -9.516 13.955 -11.233 Q12.237 -12.951 12.237 -15.46 V-55 Q12.237 -57.509 13.955 -59.227 Q15.672 -60.944 18.181 -60.944 H76.499 Q79.008 -60.944 80.725 -59.227 Q82.443 -57.509 82.443 -55 V-15.46 Q82.443 -12.951 80.725 -11.233 Q79.008 -9.516 76.499 -9.516 H18.181 Z"/></g><g id="Thin-S" transform="matrix(1 0 0 1 814.015 696)"><path d="M45.223 -35.23  37.194 -27.201 Q36.647 -26.653 36.658 -26.217 Q36.67 -25.781 37.299 -25.189 Q37.891 -24.56 38.339 -24.56 Q38.786 -24.56 39.41 -25.183 L47.34 -33.113 L55.407 -25.084 Q55.917 -24.537 56.402 -24.548 Q56.888 -24.56 57.517 -25.189 Q58.109 -25.781 58.109 -26.229 Q58.109 -26.676 57.524 -27.3 L49.457 -35.23 L57.524 -43.297 Q58.033 -43.807 58.071 -44.292 Q58.109 -44.778 57.517 -45.407 Q56.888 -45.999 56.44 -45.999 Q55.992 -45.999 55.407 -45.414 L47.34 -37.347 L39.311 -45.414 Q38.763 -45.923 38.327 -45.961 Q37.891 -45.999 37.299 -45.407 Q36.67 -44.778 36.67 -44.33 Q36.67 -43.882 37.293 -43.297 L45.223 -35.23 Z M19.3 -11.317 Q17.038 -11.317 15.529 -12.826 Q14.02 -14.335 14.02 -16.597 V-53.863 Q14.02 -56.125 15.529 -57.634 Q17.038 -59.143 19.3 -59.143 H75.38 Q77.642 -59.143 79.151 -57.634 Q80.66 -56.125 80.66 -53.863 V-16.597 Q80.66 -14.335 79.151 -12.826 Q77.642 -11.317 75.38 -11.317 H19.3 Z"/></g><g id="Ultralight-S" transform="matrix(1 0 0 1 517.792 696)"><path d="M46.009 -35.23  37.57 -26.791 Q37.182 -26.403 37.182 -26.206 Q37.182 -26.009 37.675 -25.565 Q38.119 -25.072 38.316 -25.072 Q38.513 -25.072 39 -25.559 L47.34 -33.899 L55.828 -25.46 Q56.167 -25.072 56.413 -25.072 Q56.66 -25.072 57.153 -25.565 Q57.597 -26.009 57.597 -26.206 Q57.597 -26.403 57.159 -26.89 L48.671 -35.23 L57.159 -43.718 Q57.498 -44.057 57.548 -44.303 Q57.597 -44.55 57.153 -45.043 Q56.66 -45.487 56.463 -45.487 Q56.266 -45.487 55.828 -45.049 L47.34 -36.561 L38.901 -45.049 Q38.513 -45.388 38.316 -45.438 Q38.119 -45.487 37.675 -45.043 Q37.182 -44.55 37.182 -44.353 Q37.182 -44.156 37.669 -43.718 L46.009 -35.23 Z M19.972 -12.398 Q17.857 -12.398 16.473 -13.782 Q15.09 -15.166 15.09 -17.28 V-53.18 Q15.09 -55.294 16.473 -56.678 Q17.857 -58.062 19.972 -58.062 H74.708 Q76.823 -58.062 78.207 -56.678 Q79.59 -55.294 79.59 -53.18 V-17.28 Q79.59 -15.166 78.207 -13.782 Q76.823 -12.398 74.708 -12.398 H19.972 Z"/></g></g></svg>