<svg xmlns="http://www.w3.org/2000/svg" version="1.1" width="3300" height="2000"><g id="Notes"><style>
    text {
      font-family: monospace;
      text-anchor: middle;
    }
    text.emphasis {
      font-weight:bold;
    }
    text.lanchor {
      text-anchor: start;
    }
  </style><rect height="2200" id="artboard" fill="white" width="3300" x="0" y="0"/><line id="" style="fill:none;stroke:black;stroke-width:0.5;" x1="263" x2="3036" y1="292" y2="292"/><text class="lanchor emphasis" transform="matrix(1 0 0 1 263 322)">Weight/Scale Variations</text><text transform="matrix(1 0 0 1 559.711 322)">Ultralight</text><text transform="matrix(1 0 0 1 856.422 322)">Thin</text><text transform="matrix(1 0 0 1 1153.13 322)">Light</text><text transform="matrix(1 0 0 1 1449.84 322)">Regular</text><text transform="matrix(1 0 0 1 1746.56 322)">Medium</text><text transform="matrix(1 0 0 1 2043.27 322)">Semibold</text><text transform="matrix(1 0 0 1 2339.98 322)">Bold</text><text transform="matrix(1 0 0 1 2636.69 322)">Heavy</text><text transform="matrix(1 0 0 1 2933.4 322)">Black</text><text id="template-version" style="text-anchor: end;" transform="matrix(1 0 0 1 3036 1933)">Template v.1.0</text><text class="lanchor" transform="matrix(1 0 0 1 263 726)">Small</text><text class="lanchor" transform="matrix(1 0 0 1 263 1156)">Medium</text><text class="lanchor" transform="matrix(1 0 0 1 263 1586)">Large</text></g><g id="Guides"><g id="H-reference" style="fill:#27AAE1;stroke:none;" transform="matrix(1 0 0 1 339 696)"><path d="M 54.9316 0 L 57.666 0 L 30.5664 -70.459 L 28.0762 -70.459 L 0.976562 0 L 3.66211 0 L 12.9395 -24.4629 L 45.7031 -24.4629 Z M 29.1992 -67.0898 L 29.4434 -67.0898 L 44.8242 -26.709 L 13.8184 -26.709 Z"/></g><line id="Baseline-S" style="fill:none;stroke:#27AAE1;opacity:1;stroke-width:0.577;" x1="263" x2="3036" y1="696" y2="696"/><line id="Capline-S" style="fill:none;stroke:#27AAE1;opacity:1;stroke-width:0.577;" x1="263" x2="3036" y1="625.541" y2="625.541"/><g id="H-reference" style="fill:#27AAE1;stroke:none;" transform="matrix(1 0 0 1 339 1126)"><path d="M 54.9316 0 L 57.666 0 L 30.5664 -70.459 L 28.0762 -70.459 L 0.976562 0 L 3.66211 0 L 12.9395 -24.4629 L 45.7031 -24.4629 Z M 29.1992 -67.0898 L 29.4434 -67.0898 L 44.8242 -26.709 L 13.8184 -26.709 Z"/></g><line id="Baseline-M" style="fill:none;stroke:#27AAE1;opacity:1;stroke-width:0.577;" x1="263" x2="3036" y1="1126" y2="1126"/><line id="Capline-M" style="fill:none;stroke:#27AAE1;opacity:1;stroke-width:0.577;" x1="263" x2="3036" y1="1055.54" y2="1055.54"/><g id="H-reference" style="fill:#27AAE1;stroke:none;" transform="matrix(1 0 0 1 339 1556)"><path d="M 54.9316 0 L 57.666 0 L 30.5664 -70.459 L 28.0762 -70.459 L 0.976562 0 L 3.66211 0 L 12.9395 -24.4629 L 45.7031 -24.4629 Z M 29.1992 -67.0898 L 29.4434 -67.0898 L 44.8242 -26.709 L 13.8184 -26.709 Z"/></g><line id="Baseline-L" style="fill:none;stroke:#27AAE1;opacity:1;stroke-width:0.577;" x1="263" x2="3036" y1="1556" y2="1556"/><line id="Capline-L" style="fill:none;stroke:#27AAE1;opacity:1;stroke-width:0.577;" x1="263" x2="3036" y1="1485.54" y2="1485.54"/><rect height="119.336" id="left-margin" style="fill:darkred;stroke:none;opacity:0.4;" width="12.4512" x="1394.06" y="1030.79"/><rect height="119.336" id="right-margin" style="fill:darkgreen;stroke:none;opacity:0.4;" width="12.4512" x="1502.5112" y="1030.79"/><rect x="1406.5112" y="1045" width="96" height="96" fill="none" stroke="blue" stroke-dasharray="5"/><rect x="1394.06" y="1030.79" width="120.9024" height="119.336" fill="none" stroke="blue"/></g><g id="Symbols"><g id="Bold-L" transform="matrix(1 0 0 1 2266 1556)"><path d="M65.79 -2.657  104.329 -41.196  96.589 -48.775  66.112 -18.299  49.826 -34.585  42.086 -26.684  65.79 -2.657 Z M40.796 20.401 Q25.155 20.401 13.948 9.436 Q2.741 -1.529 2.741 -17.331 Q2.741 -30.876 10.965 -41.599 Q19.189 -52.322 32.411 -54.58 Q36.281 -70.705 48.859 -80.783 Q61.436 -90.861 77.722 -90.861 Q96.428 -90.861 109.65 -77.558 Q122.873 -64.255 124.163 -45.389 V-41.519 Q136.256 -40.39 144.157 -31.763 Q152.059 -23.136 152.059 -10.559 Q152.059 2.341 143.029 11.371 Q133.999 20.401 121.099 20.401 H40.796 Z"/></g><g id="Semibold-L" transform="matrix(1 0 0 1 1970.27 1556)"><path d="M66.07 -2.728  103.978 -40.635  96.799 -47.723  66.323 -17.247  50.107 -33.463  42.857 -26.123  66.07 -2.728 Z M40.656 18.649 Q25.646 18.649 15 8.139 Q4.354 -2.37 4.354 -17.472 Q4.354 -30.596 12.507 -40.793 Q20.661 -50.991 33.533 -53.108 Q37.122 -69.023 49.42 -79.03 Q61.717 -89.038 77.722 -89.038 Q96.147 -89.038 109.019 -75.805 Q121.891 -62.573 122.62 -43.917 V-40.047 Q134.504 -39.549 142.475 -31.272 Q150.446 -22.996 150.446 -10.699 Q150.446 1.43 141.837 10.039 Q133.228 18.649 121.099 18.649 H40.656 Z"/></g><g id="Medium-L" transform="matrix(1 0 0 1 1674.31 1556)"><path d="M66.281 -2.78  103.715 -40.215  96.957 -46.935  66.481 -16.458  50.317 -32.622  43.436 -25.702  66.281 -2.78 Z M40.551 17.334 Q26.014 17.334 15.788 7.166 Q5.563 -3.001 5.563 -17.577 Q5.563 -30.386 13.664 -40.188 Q21.765 -49.991 34.374 -52.004 Q37.753 -67.76 49.84 -77.716 Q61.927 -87.671 77.722 -87.671 Q95.937 -87.671 108.546 -74.491 Q121.155 -61.31 121.463 -42.812 V-38.942 Q133.189 -38.918 141.213 -30.904 Q149.237 -22.891 149.237 -10.804 Q149.237 0.746 140.943 9.04 Q132.649 17.334 121.099 17.334 H40.551 Z"/></g><g id="Regular-L" transform="matrix(1 0 0 1 1378.56 1556)"><path d="M66.435 -2.819  103.523 -39.906  97.073 -46.356  66.596 -15.88  50.471 -32.005  43.86 -25.394  66.435 -2.819 Z M40.474 16.37 Q26.284 16.37 16.367 6.453 Q6.45 -3.464 6.45 -17.654 Q6.45 -30.231 14.513 -39.745 Q22.575 -49.259 34.991 -51.194 Q38.216 -66.835 50.149 -76.752 Q62.081 -86.669 77.722 -86.669 Q95.782 -86.669 108.199 -73.527 Q120.615 -60.385 120.615 -42.002 V-38.132 Q132.225 -38.455 140.287 -30.634 Q148.35 -22.814 148.35 -10.881 Q148.35 0.245 140.287 8.308 Q132.225 16.37 121.099 16.37 H40.474 Z"/></g><g id="Light-L" transform="matrix(1 0 0 1 1082.77 1556)"><path d="M66.497 -5.114  101.228 -39.782  96.328 -44.682  66.658 -15.012  51.091 -30.517  46.093 -25.518  66.497 -5.114 Z M40.846 13.145 Q27.834 13.145 18.755 4.034 Q9.675 -5.076 9.675 -18.088 Q9.675 -29.921 17.614 -38.908 Q25.552 -47.894 37.41 -49.023 Q39.891 -64.044 51.234 -73.775 Q62.577 -83.506 77.66 -83.506 Q94.542 -83.506 106.214 -71.294 Q117.886 -59.082 117.886 -41.94 V-35.838 H119.871 Q130.426 -36.222 137.776 -29.177 Q145.125 -22.132 145.125 -11.377 Q145.125 -1.306 137.9 5.92 Q130.674 13.145 120.603 13.145 H40.846 Z"/></g><g id="Thin-L" transform="matrix(1 0 0 1 787.282 1556)"><path d="M66.559 -7.408  98.933 -39.658  95.584 -43.007  66.72 -14.143  51.712 -29.028  48.325 -25.642  66.559 -7.408 Z M41.218 9.92 Q29.385 9.92 21.142 1.616 Q12.9 -6.689 12.9 -18.522 Q12.9 -29.611 20.714 -38.07 Q28.529 -46.53 39.829 -46.852 Q41.565 -61.253 52.319 -70.798 Q63.074 -80.343 77.598 -80.343 Q93.302 -80.343 104.23 -69.062 Q115.157 -57.78 115.157 -41.878 V-33.543 H119.127 Q128.628 -33.99 135.264 -27.719 Q141.9 -21.449 141.9 -11.874 Q141.9 -2.856 135.512 3.532 Q129.124 9.92 120.106 9.92 H41.218 Z"/></g><g id="Ultralight-L" transform="matrix(1 0 0 1 491.205 1556)"><path d="M66.596 -8.785  97.556 -39.584  95.138 -42.002  66.758 -13.622  52.084 -28.135  49.665 -25.716  66.596 -8.785 Z M41.441 7.985 Q30.315 7.985 22.575 0.164 Q14.835 -7.656 14.835 -18.782 Q14.835 -29.425 22.575 -37.568 Q30.315 -45.711 41.28 -45.55 Q42.57 -59.579 52.971 -69.012 Q63.371 -78.445 77.561 -78.445 Q92.558 -78.445 103.039 -67.722 Q113.52 -56.999 113.52 -41.841 V-32.166 H118.68 Q127.549 -32.65 133.757 -26.845 Q139.965 -21.04 139.965 -12.171 Q139.965 -3.786 134.079 2.099 Q128.194 7.985 119.809 7.985 H41.441 Z"/></g><g id="Bold-M" transform="matrix(1 0 0 1 2281.8 1126)"><path d="M51.125 -10.105  80.75 -39.73  72.25 -48.23  51.125 -27.105  40.5 -37.73  32.125 -29.23  51.125 -10.105 Z M32.875 9.02 Q19.75 9.02 10.438 0.02 Q1.125 -8.98 1.125 -21.98 Q1.125 -32.98 7.188 -41.792 Q13.25 -50.605 23.625 -52.98 Q27.5 -64.98 37.5 -72.23 Q47.5 -79.48 60 -79.48 Q75.25 -79.48 86.25 -69.167 Q97.25 -58.855 98.625 -43.73 Q107.625 -41.355 113.25 -34.042 Q118.875 -26.73 118.875 -17.355 Q118.875 -6.355 111.188 1.333 Q103.5 9.02 92.5 9.02 H32.875 Z"/></g><g id="Semibold-M" transform="matrix(1 0 0 1 1985.97 1126)"><path d="M51.397 -10.159  80.424 -39.186  72.467 -47.143  51.342 -26.018  40.772 -36.589  32.94 -28.686  51.397 -10.159 Z M32.712 7.172 Q20.348 7.172 11.579 -1.339 Q2.81 -9.849 2.81 -22.143 Q2.81 -32.6 8.791 -40.896 Q14.772 -49.192 24.766 -51.458 Q28.315 -63.241 38.044 -70.437 Q47.772 -77.632 60 -77.632 Q74.978 -77.632 85.625 -67.374 Q96.272 -57.116 97.049 -42.208 Q105.886 -40.431 111.538 -33.499 Q117.19 -26.567 117.19 -17.518 Q117.19 -7.224 109.992 -0.026 Q102.793 7.172 92.5 7.172 H32.712 Z"/></g><g id="Medium-M" transform="matrix(1 0 0 1 1689.91 1126)"><path d="M51.6 -10.2  80.179 -38.779  72.63 -46.328  51.505 -25.203  40.975 -35.733  33.552 -28.279  51.6 -10.2 Z M32.59 5.786 Q20.796 5.786 12.435 -2.358 Q4.073 -10.502 4.073 -22.265 Q4.073 -32.314 9.993 -40.223 Q15.913 -48.132 25.622 -50.317 Q28.927 -61.936 38.451 -69.091 Q47.975 -76.246 60 -76.246 Q74.775 -76.246 85.156 -66.029 Q95.538 -55.811 95.867 -41.067 Q104.582 -39.738 110.254 -33.091 Q115.927 -26.445 115.927 -17.64 Q115.927 -7.877 109.095 -1.045 Q102.264 5.786 92.5 5.786 H32.59 Z"/></g><g id="Regular-M" transform="matrix(1 0 0 1 1394.06 1126)"><path d="M51.75 -10.23  80 -38.48  72.75 -45.73  51.625 -24.605  41.125 -35.105  34 -27.98  51.75 -10.23 Z M32.5 4.77 Q21.125 4.77 13.062 -3.105 Q5 -10.98 5 -22.355 Q5 -32.105 10.875 -39.73 Q16.75 -47.355 26.25 -49.48 Q29.375 -60.98 38.75 -68.105 Q48.125 -75.23 60 -75.23 Q74.625 -75.23 84.812 -65.042 Q95 -54.855 95 -40.23 Q103.625 -39.23 109.312 -32.792 Q115 -26.355 115 -17.73 Q115 -8.355 108.438 -1.792 Q101.875 4.77 92.5 4.77 H32.5 Z"/></g><g id="Light-M" transform="matrix(1 0 0 1 1098.18 1126)"><path d="M51.75 -11.961  78.269 -38.48  72.846 -43.903  51.673 -22.73  41.077 -33.326  35.731 -27.98  51.75 -11.961 Z M32.5 2.27 Q22.135 2.27 14.817 -4.932 Q7.5 -12.134 7.5 -22.499 Q7.5 -31.672 13.375 -38.816 Q19.25 -45.961 28.366 -47.268 Q30.769 -58.48 39.639 -65.605 Q48.51 -72.73 60 -72.73 Q73.567 -72.73 83.034 -63.263 Q92.5 -53.797 92.5 -40.23 V-37.73 H94.038 Q101.942 -37.114 107.221 -31.374 Q112.5 -25.634 112.5 -17.73 Q112.5 -9.365 106.683 -3.547 Q100.865 2.27 92.5 2.27 H32.5 Z"/></g><g id="Thin-M" transform="matrix(1 0 0 1 802.565 1126)"><path d="M51.75 -13.691  76.538 -38.48  72.942 -42.076  51.721 -20.855  41.029 -31.547  37.462 -27.98  51.75 -13.691 Z M32.5 -0.23 Q23.144 -0.23 16.572 -6.759 Q10 -13.288 10 -22.643 Q10 -31.24 15.875 -37.903 Q21.75 -44.566 30.481 -45.057 Q32.163 -55.98 40.529 -63.105 Q48.894 -70.23 60 -70.23 Q72.51 -70.23 81.255 -61.485 Q90 -52.74 90 -40.23 V-35.23 H93.077 Q100.26 -34.999 105.13 -29.956 Q110 -24.913 110 -17.73 Q110 -10.374 104.928 -5.302 Q99.856 -0.23 92.5 -0.23 H32.5 Z"/></g><g id="Ultralight-M" transform="matrix(1 0 0 1 506.415 1126)"><path d="M51.75 -14.73  75.5 -38.48  73 -40.98  51.75 -19.73  41 -30.48  38.5 -27.98  51.75 -14.73 Z M32.5 -1.73 Q23.75 -1.73 17.625 -7.855 Q11.5 -13.98 11.5 -22.73 Q11.5 -30.98 17.375 -37.355 Q23.25 -43.73 31.75 -43.73 Q33 -54.48 41.062 -61.605 Q49.125 -68.73 60 -68.73 Q71.875 -68.73 80.188 -60.417 Q88.5 -52.105 88.5 -40.23 V-33.73 H92.5 Q99.25 -33.73 103.875 -29.105 Q108.5 -24.48 108.5 -17.73 Q108.5 -10.98 103.875 -6.355 Q99.25 -1.73 92.5 -1.73 H32.5 Z"/></g><g id="Bold-S" transform="matrix(1 0 0 1 2294.23 696)"><path d="M41.817 -18.76  63.021 -39.964  57.005 -45.98  41.916 -30.89  35.111 -37.696  29.094 -31.581  41.817 -18.76 Z M23.966 -3.473 Q14.695 -3.473 8.186 -9.883 Q1.677 -16.294 1.677 -25.466 Q1.677 -33.948 6.953 -40.358 Q12.229 -46.769 20.317 -47.459 Q23.177 -56.237 30.524 -61.612 Q37.872 -66.987 47.34 -66.987 Q57.992 -66.987 66.128 -60.034 Q74.265 -53.081 76.237 -42.725 Q83.437 -41.641 88.22 -36.118 Q93.003 -30.595 93.003 -23.099 Q93.003 -14.913 87.283 -9.193 Q81.563 -3.473 73.377 -3.473 H23.966 Z"/></g><g id="Semibold-S" transform="matrix(1 0 0 1 1998.1 696)"><path d="M42.031 -18.803  62.764 -39.535  57.177 -45.123  42.087 -30.033  35.325 -36.795  29.738 -31.152  42.031 -18.803 Z M23.837 -4.931 Q15.167 -4.931 9.086 -10.955 Q3.006 -16.98 3.006 -25.595 Q3.006 -33.648 8.218 -39.651 Q13.43 -45.654 21.217 -46.259 Q23.82 -54.865 30.953 -60.197 Q38.086 -65.529 47.34 -65.529 Q57.777 -65.529 65.635 -58.619 Q73.493 -51.709 74.994 -41.525 Q82.065 -40.912 86.869 -35.689 Q91.674 -30.466 91.674 -23.228 Q91.674 -15.599 86.34 -10.265 Q81.005 -4.931 73.377 -4.931 H23.837 Z"/></g><g id="Medium-S" transform="matrix(1 0 0 1 1701.85 696)"><path d="M42.192 -18.835  62.571 -39.214  57.305 -44.479  42.216 -29.39  35.486 -36.12  30.22 -30.83  42.192 -18.835 Z M23.741 -6.024 Q15.521 -6.024 9.762 -11.759 Q4.003 -17.495 4.003 -25.691 Q4.003 -33.423 9.167 -39.12 Q14.331 -44.818 21.893 -45.358 Q24.302 -53.836 31.275 -59.136 Q38.247 -64.436 47.34 -64.436 Q57.616 -64.436 65.265 -57.558 Q72.914 -50.68 74.061 -40.624 Q81.035 -40.365 85.856 -35.367 Q90.677 -30.369 90.677 -23.324 Q90.677 -16.114 85.632 -11.069 Q80.587 -6.024 73.377 -6.024 H23.741 Z"/></g><g id="Regular-S" transform="matrix(1 0 0 1 1405.73 696)"><path d="M42.31 -18.858  62.43 -38.978  57.4 -44.008  42.31 -28.918  35.604 -35.624  30.574 -30.595  42.31 -18.858 Z M23.67 -6.826 Q15.78 -6.826 10.257 -12.349 Q4.734 -17.872 4.734 -25.762 Q4.734 -33.257 9.863 -38.731 Q14.991 -44.205 22.388 -44.698 Q24.656 -53.081 31.511 -58.358 Q38.365 -63.634 47.34 -63.634 Q57.498 -63.634 64.994 -56.78 Q72.489 -49.925 73.377 -39.964 Q80.281 -39.964 85.113 -35.131 Q89.946 -30.299 89.946 -23.395 Q89.946 -16.491 85.113 -11.659 Q80.281 -6.826 73.377 -6.826 H23.67 Z"/></g><g id="Light-S" transform="matrix(1 0 0 1 1109.75 696)"><path d="M42.31 -20.224  61.064 -38.978  57.476 -42.566  42.348 -27.439  35.566 -34.221  31.939 -30.595  42.31 -20.224 Z M23.67 -8.799 Q16.577 -8.799 11.642 -13.791 Q6.707 -18.782 6.707 -25.876 Q6.707 -32.916 11.835 -38.01 Q16.964 -43.105 24.057 -42.953 Q25.756 -51.109 32.213 -56.385 Q38.669 -61.661 47.34 -61.661 Q56.664 -61.661 63.59 -55.376 Q70.517 -49.091 71.404 -39.964 V-37.991 H72.618 Q78.953 -38.295 83.463 -34.012 Q87.973 -29.73 87.973 -23.395 Q87.973 -17.288 83.729 -13.043 Q79.484 -8.799 73.377 -8.799 H23.67 Z"/></g><g id="Thin-S" transform="matrix(1 0 0 1 814.015 696)"><path d="M42.31 -21.589  59.699 -38.978  57.551 -41.125  42.386 -25.959  35.528 -32.818  33.305 -30.595  42.31 -21.589 Z M23.67 -10.771 Q17.373 -10.771 13.026 -15.232 Q8.679 -19.693 8.679 -25.99 Q8.679 -32.575 13.808 -37.29 Q18.936 -42.005 25.726 -41.208 Q26.856 -49.136 32.914 -54.413 Q38.972 -59.689 47.34 -59.689 Q55.829 -59.689 62.187 -53.973 Q68.544 -48.256 69.432 -39.964 V-36.019 H71.86 Q77.625 -36.626 81.813 -32.893 Q86.001 -29.161 86.001 -23.395 Q86.001 -18.084 82.344 -14.428 Q78.688 -10.771 73.377 -10.771 H23.67 Z"/></g><g id="Ultralight-S" transform="matrix(1 0 0 1 517.792 696)"><path d="M42.31 -22.409  58.879 -38.978  57.597 -40.26  42.409 -25.072  35.505 -31.975  34.124 -30.595  42.31 -22.409 Z M23.67 -11.954 Q17.851 -11.954 13.857 -16.097 Q9.863 -20.239 9.863 -26.058 Q9.863 -32.37 14.991 -36.857 Q20.12 -41.345 26.727 -40.161 Q27.516 -47.953 33.335 -53.229 Q39.154 -58.505 47.34 -58.505 Q55.329 -58.505 61.345 -53.13 Q67.361 -47.755 68.249 -39.964 V-34.835 H71.404 Q76.829 -35.624 80.823 -32.222 Q84.818 -28.819 84.818 -23.395 Q84.818 -18.562 81.514 -15.258 Q78.21 -11.954 73.377 -11.954 H23.67 Z"/></g></g></svg>