<svg xmlns="http://www.w3.org/2000/svg" height="24" viewBox="0 -960 960 960" width="24"><path d="M216-95q-50.938 0-85.969-35.031Q95-165.062 95-216v-528q0-50.938 35.031-85.969Q165.062-865 216-865h528q50.938 0 85.969 35.031Q865-794.938 865-744v528q0 50.938-35.031 85.969Q794.938-95 744-95H216Zm0-121h528v-528L216-216Zm75-381v38.032q0 15.435 10.174 25.701Q311.347-523 326.907-523t25.826-10.2Q363-543.4 363-559v-38h38.032q15.435 0 25.701-10.174Q437-617.347 437-632.907t-10.2-25.826Q416.6-669 401-669h-38v-38.032q0-15.435-10.174-25.701Q342.653-743 327.093-743t-25.826 10.2Q291-722.6 291-707v38h-38.032q-15.435 0-25.701 10.174Q217-648.653 217-633.093t10.2 25.826Q237.4-597 253-597h38Zm383.5 269h-148q-15.6 0-25.8-10.174-10.2-10.173-10.2-25.733t10.2-25.826Q510.9-400 526.5-400h148q15.6 0 25.8 10.174 10.2 10.173 10.2 25.733t-10.2 25.826Q690.1-328 674.5-328Z"/></svg>