<svg xmlns="http://www.w3.org/2000/svg" version="1.1" width="3300" height="2000"><g id="Notes"><style>
    text {
      font-family: monospace;
      text-anchor: middle;
    }
    text.emphasis {
      font-weight:bold;
    }
    text.lanchor {
      text-anchor: start;
    }
  </style><rect height="2200" id="artboard" fill="white" width="3300" x="0" y="0"/><line id="" style="fill:none;stroke:black;stroke-width:0.5;" x1="263" x2="3036" y1="292" y2="292"/><text class="lanchor emphasis" transform="matrix(1 0 0 1 263 322)">Weight/Scale Variations</text><text transform="matrix(1 0 0 1 559.711 322)">Ultralight</text><text transform="matrix(1 0 0 1 856.422 322)">Thin</text><text transform="matrix(1 0 0 1 1153.13 322)">Light</text><text transform="matrix(1 0 0 1 1449.84 322)">Regular</text><text transform="matrix(1 0 0 1 1746.56 322)">Medium</text><text transform="matrix(1 0 0 1 2043.27 322)">Semibold</text><text transform="matrix(1 0 0 1 2339.98 322)">Bold</text><text transform="matrix(1 0 0 1 2636.69 322)">Heavy</text><text transform="matrix(1 0 0 1 2933.4 322)">Black</text><text id="template-version" style="text-anchor: end;" transform="matrix(1 0 0 1 3036 1933)">Template v.1.0</text><text class="lanchor" transform="matrix(1 0 0 1 263 726)">Small</text><text class="lanchor" transform="matrix(1 0 0 1 263 1156)">Medium</text><text class="lanchor" transform="matrix(1 0 0 1 263 1586)">Large</text></g><g id="Guides"><g id="H-reference" style="fill:#27AAE1;stroke:none;" transform="matrix(1 0 0 1 339 696)"><path d="M 54.9316 0 L 57.666 0 L 30.5664 -70.459 L 28.0762 -70.459 L 0.976562 0 L 3.66211 0 L 12.9395 -24.4629 L 45.7031 -24.4629 Z M 29.1992 -67.0898 L 29.4434 -67.0898 L 44.8242 -26.709 L 13.8184 -26.709 Z"/></g><line id="Baseline-S" style="fill:none;stroke:#27AAE1;opacity:1;stroke-width:0.577;" x1="263" x2="3036" y1="696" y2="696"/><line id="Capline-S" style="fill:none;stroke:#27AAE1;opacity:1;stroke-width:0.577;" x1="263" x2="3036" y1="625.541" y2="625.541"/><g id="H-reference" style="fill:#27AAE1;stroke:none;" transform="matrix(1 0 0 1 339 1126)"><path d="M 54.9316 0 L 57.666 0 L 30.5664 -70.459 L 28.0762 -70.459 L 0.976562 0 L 3.66211 0 L 12.9395 -24.4629 L 45.7031 -24.4629 Z M 29.1992 -67.0898 L 29.4434 -67.0898 L 44.8242 -26.709 L 13.8184 -26.709 Z"/></g><line id="Baseline-M" style="fill:none;stroke:#27AAE1;opacity:1;stroke-width:0.577;" x1="263" x2="3036" y1="1126" y2="1126"/><line id="Capline-M" style="fill:none;stroke:#27AAE1;opacity:1;stroke-width:0.577;" x1="263" x2="3036" y1="1055.54" y2="1055.54"/><g id="H-reference" style="fill:#27AAE1;stroke:none;" transform="matrix(1 0 0 1 339 1556)"><path d="M 54.9316 0 L 57.666 0 L 30.5664 -70.459 L 28.0762 -70.459 L 0.976562 0 L 3.66211 0 L 12.9395 -24.4629 L 45.7031 -24.4629 Z M 29.1992 -67.0898 L 29.4434 -67.0898 L 44.8242 -26.709 L 13.8184 -26.709 Z"/></g><line id="Baseline-L" style="fill:none;stroke:#27AAE1;opacity:1;stroke-width:0.577;" x1="263" x2="3036" y1="1556" y2="1556"/><line id="Capline-L" style="fill:none;stroke:#27AAE1;opacity:1;stroke-width:0.577;" x1="263" x2="3036" y1="1485.54" y2="1485.54"/><rect height="119.336" id="left-margin" style="fill:darkred;stroke:none;opacity:0.4;" width="12.4512" x="1394.06" y="1030.79"/><rect height="119.336" id="right-margin" style="fill:darkgreen;stroke:none;opacity:0.4;" width="12.4512" x="1502.5112" y="1030.79"/><rect x="1406.5112" y="1045" width="96" height="96" fill="none" stroke="blue" stroke-dasharray="5"/><rect x="1394.06" y="1030.79" width="120.9024" height="119.336" fill="none" stroke="blue"/></g><g id="Symbols"><g id="Bold-L" transform="matrix(1 0 0 1 2266 1556)"><path d="M77.438 4.599 Q60.791 4.599 49.181 -7.021 Q37.571 -18.64 37.571 -35.24 Q37.571 -51.839 49.191 -63.529 Q60.81 -75.22 77.41 -75.22 Q94.009 -75.22 105.699 -63.567 Q117.39 -51.915 117.39 -35.268 Q117.39 -18.621 105.737 -7.011 Q94.085 4.599 77.438 4.599 Z M72.885 -7.656 V-24.426 L61.114 -12.655 Q63.716 -10.573 66.688 -9.195 Q69.66 -7.817 72.885 -7.656 Z M81.915 -7.656 Q85.312 -7.927 88.134 -9.32 Q90.956 -10.714 93.686 -12.655 L81.915 -24.426 V-7.656 Z M100.136 -18.944 Q102.071 -21.524 103.442 -24.426 Q104.812 -27.329 105.135 -30.715 H88.365 L100.136 -18.944 Z M88.365 -39.745 H104.974 Q104.864 -43.142 103.471 -46.045 Q102.078 -48.947 99.975 -51.516 L88.365 -39.745 Z M81.915 -46.195  93.686 -57.805 Q90.922 -59.725 88.031 -61.184 Q85.14 -62.642 81.915 -62.804 V-46.195 Z M77.445 -31.682 Q78.851 -31.682 79.98 -32.776 Q81.109 -33.869 81.109 -35.275 Q81.109 -36.681 79.983 -37.81 Q78.857 -38.939 77.403 -38.939 Q75.949 -38.939 74.901 -37.813 Q73.853 -36.687 73.853 -35.233 Q73.853 -33.779 74.946 -32.731 Q76.039 -31.682 77.445 -31.682 Z M72.885 -46.195 V-62.804 Q69.488 -62.855 66.585 -61.382 Q63.683 -59.908 61.114 -57.805 L72.885 -46.195 Z M49.826 -39.745 H66.596 L54.825 -51.516 Q52.884 -48.786 51.41 -45.964 Q49.936 -43.142 49.826 -39.745 Z M54.664 -18.944  66.596 -30.715 H49.826 Q50.078 -27.318 51.429 -24.415 Q52.78 -21.513 54.664 -18.944 Z M30.476 26.368 Q24.482 26.368 20.142 22.028 Q15.803 17.688 15.803 11.694 V-82.154 Q15.803 -88.215 20.142 -92.602 Q24.482 -96.989 30.476 -96.989 H124.324 Q130.385 -96.989 134.772 -92.602 Q139.159 -88.215 139.159 -82.154 V11.694 Q139.159 17.688 134.772 22.028 Q130.385 26.368 124.324 26.368 H30.476 Z M30.476 11.694 H124.324 Q124.324 11.694 124.324 11.694 Q124.324 11.694 124.324 11.694 V-82.154 Q124.324 -82.154 124.324 -82.154 Q124.324 -82.154 124.324 -82.154 H30.476 Q30.476 -82.154 30.476 -82.154 Q30.476 -82.154 30.476 -82.154 V11.694 Q30.476 11.694 30.476 11.694 Q30.476 11.694 30.476 11.694 Z"/></g><g id="Semibold-L" transform="matrix(1 0 0 1 1970.27 1556)"><path d="M77.421 4.108 Q61.002 4.108 49.532 -7.367 Q38.062 -18.842 38.062 -35.235 Q38.062 -51.628 49.537 -63.144 Q61.012 -74.659 77.405 -74.659 Q93.798 -74.659 105.314 -63.165 Q116.829 -51.671 116.829 -35.251 Q116.829 -18.832 105.335 -7.362 Q93.841 4.108 77.421 4.108 Z M73.446 -7.095 V-25.758 L60.343 -12.655 Q63.216 -10.287 66.508 -8.807 Q69.8 -7.327 73.446 -7.095 Z M81.354 -7.095 Q85.097 -7.459 88.305 -8.982 Q91.512 -10.506 94.457 -12.655 L81.354 -25.758 V-7.095 Z M100.066 -18.173 Q102.282 -21.033 103.827 -24.286 Q105.373 -27.539 105.696 -31.276 H86.963 L100.066 -18.173 Z M86.963 -39.184 H105.535 Q105.332 -42.927 103.844 -46.18 Q102.355 -49.433 99.975 -52.287 L86.963 -39.184 Z M81.354 -44.793  94.457 -57.805 Q91.493 -60.012 88.246 -61.573 Q85 -63.133 81.354 -63.365 V-44.793 Z M77.438 -31.122 Q79.132 -31.122 80.366 -32.348 Q81.599 -33.574 81.599 -35.268 Q81.599 -36.962 80.355 -38.196 Q79.11 -39.429 77.389 -39.429 Q75.668 -39.429 74.48 -38.185 Q73.292 -36.94 73.292 -35.219 Q73.292 -33.498 74.518 -32.31 Q75.744 -31.122 77.438 -31.122 Z M73.446 -44.793 V-63.365 Q69.703 -63.324 66.45 -61.754 Q63.197 -60.185 60.343 -57.805 L73.446 -44.793 Z M49.265 -39.184 H67.928 L54.825 -52.287 Q52.606 -49.342 51.037 -46.135 Q49.468 -42.927 49.265 -39.184 Z M54.734 -18.173  67.928 -31.276 H49.265 Q49.618 -27.533 51.083 -24.28 Q52.548 -21.027 54.734 -18.173 Z M29.845 25.737 Q24.443 25.737 20.438 21.732 Q16.433 17.727 16.433 12.325 V-82.785 Q16.433 -88.224 20.438 -92.256 Q24.443 -96.288 29.845 -96.288 H124.955 Q130.394 -96.288 134.426 -92.256 Q138.458 -88.224 138.458 -82.785 V12.325 Q138.458 17.727 134.426 21.732 Q130.394 25.737 124.955 25.737 H29.845 Z M29.845 12.325 H124.955 Q124.955 12.325 124.955 12.325 Q124.955 12.325 124.955 12.325 V-82.785 Q124.955 -82.785 124.955 -82.785 Q124.955 -82.785 124.955 -82.785 H29.845 Q29.845 -82.785 29.845 -82.785 Q29.845 -82.785 29.845 -82.785 V12.325 Q29.845 12.325 29.845 12.325 Q29.845 12.325 29.845 12.325 Z"/></g><g id="Medium-L" transform="matrix(1 0 0 1 1674.31 1556)"><path d="M77.409 3.74 Q61.159 3.74 49.795 -7.627 Q38.43 -18.994 38.43 -35.232 Q38.43 -51.471 49.797 -62.855 Q61.164 -74.238 77.402 -74.238 Q93.641 -74.238 105.025 -62.864 Q116.408 -51.489 116.408 -35.239 Q116.408 -18.989 105.034 -7.625 Q93.659 3.74 77.409 3.74 Z M73.867 -6.675 V-26.757 L59.764 -12.655 Q62.84 -10.071 66.373 -8.515 Q69.905 -6.959 73.867 -6.675 Z M80.933 -6.675 Q84.936 -7.108 88.432 -8.729 Q91.929 -10.35 95.036 -12.655 L80.933 -26.757 V-6.675 Z M100.014 -17.594 Q102.439 -20.665 104.117 -24.181 Q105.794 -27.697 106.117 -31.697 H85.911 L100.014 -17.594 Z M85.911 -38.763 H105.955 Q105.684 -42.766 104.124 -46.282 Q102.564 -49.798 99.975 -52.866 L85.911 -38.763 Z M80.933 -43.741  95.036 -57.805 Q91.921 -60.227 88.408 -61.864 Q84.895 -63.501 80.933 -63.785 V-43.741 Z M77.432 -30.701 Q79.342 -30.701 80.655 -32.027 Q81.968 -33.353 81.968 -35.262 Q81.968 -37.172 80.634 -38.485 Q79.3 -39.798 77.379 -39.798 Q75.458 -39.798 74.165 -38.464 Q72.871 -37.13 72.871 -35.209 Q72.871 -33.288 74.197 -31.995 Q75.523 -30.701 77.432 -30.701 Z M73.867 -43.741 V-63.785 Q69.864 -63.675 66.348 -62.034 Q62.832 -60.394 59.764 -57.805 L73.867 -43.741 Z M48.845 -38.763 H68.927 L54.825 -52.866 Q52.398 -49.759 50.757 -46.262 Q49.116 -42.766 48.845 -38.763 Z M54.786 -17.594  68.927 -31.697 H48.845 Q49.273 -27.694 50.823 -24.178 Q52.373 -20.662 54.786 -17.594 Z M29.372 25.263 Q24.414 25.263 20.66 21.51 Q16.907 17.756 16.907 12.798 V-83.258 Q16.907 -88.232 20.66 -91.997 Q24.414 -95.762 29.372 -95.762 H125.428 Q130.402 -95.762 134.167 -91.997 Q137.932 -88.232 137.932 -83.258 V12.798 Q137.932 17.756 134.167 21.51 Q130.402 25.263 125.428 25.263 H29.372 Z M29.372 12.798 H125.428 Q125.428 12.798 125.428 12.798 Q125.428 12.798 125.428 12.798 V-83.258 Q125.428 -83.258 125.428 -83.258 Q125.428 -83.258 125.428 -83.258 H29.372 Q29.372 -83.258 29.372 -83.258 Q29.372 -83.258 29.372 -83.258 V12.798 Q29.372 12.798 29.372 12.798 Q29.372 12.798 29.372 12.798 Z"/></g><g id="Regular-L" transform="matrix(1 0 0 1 1378.56 1556)"><path d="M77.4 3.47 Q61.275 3.47 49.988 -7.817 Q38.7 -19.105 38.7 -35.23 Q38.7 -51.355 49.988 -62.642 Q61.275 -73.93 77.4 -73.93 Q93.525 -73.93 104.812 -62.642 Q116.1 -51.355 116.1 -35.23 Q116.1 -19.105 104.812 -7.817 Q93.525 3.47 77.4 3.47 Z M74.175 -6.366 V-27.49 L59.34 -12.655 Q62.565 -9.914 66.274 -8.301 Q69.983 -6.689 74.175 -6.366 Z M80.625 -6.366 Q84.817 -6.85 88.526 -8.543 Q92.235 -10.236 95.46 -12.655 L80.625 -27.49 V-6.366 Z M99.975 -17.17 Q102.555 -20.395 104.329 -24.104 Q106.103 -27.812 106.425 -32.005 H85.14 L99.975 -17.17 Z M85.14 -38.455 H106.264 Q105.941 -42.647 104.329 -46.356 Q102.716 -50.065 99.975 -53.29 L85.14 -38.455 Z M80.625 -42.97  95.46 -57.805 Q92.235 -60.385 88.526 -62.078 Q84.817 -63.771 80.625 -64.094 V-42.97 Z M77.428 -30.392 Q79.496 -30.392 80.867 -31.791 Q82.237 -33.19 82.237 -35.258 Q82.237 -37.326 80.839 -38.697 Q79.44 -40.067 77.372 -40.067 Q75.304 -40.067 73.933 -38.669 Q72.562 -37.27 72.562 -35.202 Q72.562 -33.134 73.961 -31.763 Q75.36 -30.392 77.428 -30.392 Z M74.175 -42.97 V-64.094 Q69.983 -63.932 66.274 -62.239 Q62.565 -60.546 59.34 -57.805 L74.175 -42.97 Z M48.536 -38.455 H69.66 L54.825 -53.29 Q52.245 -50.065 50.552 -46.356 Q48.859 -42.647 48.536 -38.455 Z M54.825 -17.17  69.66 -32.005 H48.536 Q49.02 -27.812 50.633 -24.104 Q52.245 -20.395 54.825 -17.17 Z M29.025 24.916 Q24.393 24.916 20.823 21.347 Q17.254 17.777 17.254 13.145 V-83.605 Q17.254 -88.237 20.823 -91.806 Q24.393 -95.376 29.025 -95.376 H125.775 Q130.407 -95.376 133.976 -91.806 Q137.546 -88.237 137.546 -83.605 V13.145 Q137.546 17.777 133.976 21.347 Q130.407 24.916 125.775 24.916 H29.025 Z M29.025 13.145 H125.775 Q125.775 13.145 125.775 13.145 Q125.775 13.145 125.775 13.145 V-83.605 Q125.775 -83.605 125.775 -83.605 Q125.775 -83.605 125.775 -83.605 H29.025 Q29.025 -83.605 29.025 -83.605 Q29.025 -83.605 29.025 -83.605 V13.145 Q29.025 13.145 29.025 13.145 Q29.025 13.145 29.025 13.145 Z"/></g><g id="Light-L" transform="matrix(1 0 0 1 1082.77 1556)"><path d="M77.4 1.113 Q62.205 1.113 51.631 -9.461 Q41.057 -20.035 41.057 -35.23 Q41.057 -50.425 51.631 -61.03 Q62.205 -71.635 77.4 -71.635 Q92.595 -71.635 103.2 -61.03 Q113.805 -50.425 113.805 -35.23 Q113.805 -20.035 103.2 -9.461 Q92.595 1.113 77.4 1.113 Z M74.733 -6.242 V-28.854 L58.844 -13.027 Q62.255 -10.038 66.243 -8.301 Q70.231 -6.565 74.733 -6.242 Z M80.067 -6.242 Q84.507 -6.726 88.495 -8.481 Q92.483 -10.236 95.956 -12.965 L80.067 -28.793 V-6.242 Z M99.665 -16.674 Q102.555 -20.147 104.36 -24.135 Q106.165 -28.123 106.487 -32.563 H83.837 L99.665 -16.674 Z M83.837 -37.897 H106.388 Q106.065 -42.337 104.36 -46.356 Q102.654 -50.375 99.665 -53.786 L83.837 -37.897 Z M80.067 -41.606  95.956 -57.433 Q92.483 -60.323 88.526 -62.109 Q84.569 -63.895 80.067 -64.218 V-41.606 Z M77.429 -31.013 Q79.248 -31.013 80.433 -32.227 Q81.617 -33.441 81.617 -35.259 Q81.617 -37.078 80.403 -38.263 Q79.189 -39.447 77.371 -39.447 Q75.552 -39.447 74.367 -38.233 Q73.183 -37.019 73.183 -35.201 Q73.183 -33.382 74.397 -32.197 Q75.611 -31.013 77.429 -31.013 Z M74.733 -41.667 V-64.218 Q70.293 -63.995 66.274 -62.239 Q62.255 -60.484 58.844 -57.495 L74.733 -41.667 Z M48.412 -37.897 H70.963 L55.135 -53.786 Q52.245 -50.313 50.49 -46.325 Q48.735 -42.337 48.412 -37.897 Z M55.135 -16.674  70.963 -32.563 H48.35 Q48.834 -28.123 50.57 -24.135 Q52.307 -20.147 55.135 -16.674 Z M31.878 21.691 Q27.322 21.691 23.901 18.269 Q20.479 14.848 20.479 10.292 V-80.752 Q20.479 -85.308 23.901 -88.729 Q27.322 -92.151 31.878 -92.151 H122.922 Q127.478 -92.151 130.899 -88.729 Q134.321 -85.308 134.321 -80.752 V10.292 Q134.321 14.848 130.899 18.269 Q127.478 21.691 122.922 21.691 H31.878 Z M31.878 12.277 H122.922 Q123.666 12.277 124.287 11.657 Q124.907 11.036 124.907 10.292 V-80.752 Q124.907 -81.496 124.287 -82.117 Q123.666 -82.737 122.922 -82.737 H31.878 Q31.134 -82.737 30.513 -82.117 Q29.893 -81.496 29.893 -80.752 V10.292 Q29.893 11.036 30.513 11.657 Q31.134 12.277 31.878 12.277 Z"/></g><g id="Thin-L" transform="matrix(1 0 0 1 787.282 1556)"><path d="M77.4 -1.243 Q63.136 -1.243 53.274 -11.104 Q43.413 -20.966 43.413 -35.23 Q43.413 -49.494 53.274 -59.417 Q63.136 -69.341 77.4 -69.341 Q91.664 -69.341 101.588 -59.417 Q111.511 -49.494 111.511 -35.23 Q111.511 -20.966 101.588 -11.104 Q91.664 -1.243 77.4 -1.243 Z M75.291 -6.118 V-30.219 L58.348 -13.399 Q61.945 -10.162 66.212 -8.301 Q70.479 -6.441 75.291 -6.118 Z M79.509 -6.118 Q84.197 -6.602 88.464 -8.419 Q92.731 -10.236 96.452 -13.275 L79.509 -30.095 V-6.118 Z M99.355 -16.178 Q102.555 -19.899 104.391 -24.166 Q106.227 -28.433 106.549 -33.121 H82.535 L99.355 -16.178 Z M82.535 -37.339 H106.512 Q106.189 -42.027 104.391 -46.356 Q102.592 -50.685 99.355 -54.282 L82.535 -37.339 Z M79.509 -40.241  96.452 -57.061 Q92.731 -60.261 88.526 -62.14 Q84.321 -64.019 79.509 -64.342 V-40.241 Z M77.43 -31.633 Q79 -31.633 79.999 -32.662 Q80.997 -33.691 80.997 -35.26 Q80.997 -36.83 79.968 -37.829 Q78.939 -38.827 77.37 -38.827 Q75.8 -38.827 74.801 -37.798 Q73.803 -36.769 73.803 -35.2 Q73.803 -33.63 74.832 -32.631 Q75.861 -31.633 77.43 -31.633 Z M75.291 -40.365 V-64.342 Q70.603 -64.057 66.274 -62.239 Q61.945 -60.422 58.348 -57.185 L75.291 -40.365 Z M48.288 -37.339 H72.265 L55.445 -54.282 Q52.245 -50.561 50.428 -46.294 Q48.611 -42.027 48.288 -37.339 Z M55.445 -16.178  72.265 -33.121 H48.164 Q48.648 -28.433 50.508 -24.166 Q52.369 -19.899 55.445 -16.178 Z M34.731 18.466 Q30.251 18.466 26.977 15.193 Q23.704 11.919 23.704 7.439 V-77.899 Q23.704 -82.379 26.977 -85.653 Q30.251 -88.926 34.731 -88.926 H120.069 Q124.549 -88.926 127.823 -85.653 Q131.096 -82.379 131.096 -77.899 V7.439 Q131.096 11.919 127.823 15.193 Q124.549 18.466 120.069 18.466 H34.731 Z M34.731 11.408 H120.069 Q121.558 11.408 122.798 10.168 Q124.038 8.928 124.038 7.439 V-77.899 Q124.038 -79.388 122.798 -80.628 Q121.558 -81.868 120.069 -81.868 H34.731 Q33.242 -81.868 32.002 -80.628 Q30.762 -79.388 30.762 -77.899 V7.439 Q30.762 8.928 32.002 10.168 Q33.242 11.408 34.731 11.408 Z"/></g><g id="Ultralight-L" transform="matrix(1 0 0 1 491.205 1556)"><path d="M77.4 -2.657 Q63.694 -2.657 54.261 -12.091 Q44.828 -21.524 44.828 -35.23 Q44.828 -48.936 54.261 -58.45 Q63.694 -67.964 77.4 -67.964 Q91.106 -67.964 100.62 -58.45 Q110.134 -48.936 110.134 -35.23 Q110.134 -21.524 100.62 -12.091 Q91.106 -2.657 77.4 -2.657 Z M75.626 -6.044 V-31.037 L58.05 -13.622 Q61.759 -10.236 66.193 -8.301 Q70.627 -6.366 75.626 -6.044 Z M79.174 -6.044 Q84.011 -6.527 88.446 -8.382 Q92.88 -10.236 96.75 -13.461 L79.174 -30.876 V-6.044 Z M99.169 -15.88 Q102.555 -19.75 104.409 -24.184 Q106.264 -28.619 106.586 -33.456 H81.754 L99.169 -15.88 Z M81.754 -37.004 H106.586 Q106.264 -41.841 104.409 -46.356 Q102.555 -50.871 99.169 -54.58 L81.754 -37.004 Z M79.174 -39.422  96.75 -56.837 Q92.88 -60.224 88.526 -62.159 Q84.172 -64.094 79.174 -64.416 V-39.422 Z M77.431 -32.005 Q78.851 -32.005 79.738 -32.923 Q80.625 -33.841 80.625 -35.261 Q80.625 -36.681 79.707 -37.568 Q78.789 -38.455 77.369 -38.455 Q75.949 -38.455 75.062 -37.537 Q74.175 -36.619 74.175 -35.199 Q74.175 -33.779 75.093 -32.892 Q76.011 -32.005 77.431 -32.005 Z M75.626 -39.584 V-64.416 Q70.789 -64.094 66.274 -62.239 Q61.759 -60.385 58.05 -56.999 L75.626 -39.584 Z M48.214 -37.004 H73.046 L55.631 -54.58 Q52.245 -50.71 50.391 -46.276 Q48.536 -41.841 48.214 -37.004 Z M55.631 -15.88  73.046 -33.456 H48.053 Q48.536 -28.619 50.471 -24.184 Q52.406 -19.75 55.631 -15.88 Z M36.443 16.531 Q32.008 16.531 28.823 13.347 Q25.639 10.162 25.639 5.728 V-76.187 Q25.639 -80.622 28.823 -83.807 Q32.008 -86.991 36.443 -86.991 H118.358 Q122.792 -86.991 125.977 -83.807 Q129.161 -80.622 129.161 -76.187 V5.728 Q129.161 10.162 125.977 13.347 Q122.792 16.531 118.358 16.531 H36.443 Z M36.443 10.888 H118.358 Q120.293 10.888 121.905 9.275 Q123.517 7.663 123.517 5.728 V-76.187 Q123.517 -78.122 121.905 -79.735 Q120.293 -81.347 118.358 -81.347 H36.443 Q34.508 -81.347 32.895 -79.735 Q31.283 -78.122 31.283 -76.187 V5.728 Q31.283 7.663 32.895 9.275 Q34.508 10.888 36.443 10.888 Z"/></g><g id="Bold-M" transform="matrix(1 0 0 1 2281.8 1126)"><path d="M60.015 -3.98 Q47 -3.98 37.875 -13.09 Q28.75 -22.201 28.75 -35.215 Q28.75 -48.23 37.86 -57.355 Q46.971 -66.48 59.985 -66.48 Q73 -66.48 82.125 -57.37 Q91.25 -48.259 91.25 -35.245 Q91.25 -22.23 82.14 -13.105 Q73.029 -3.98 60.015 -3.98 Z M54.875 -16.98 V-22.98 L50.625 -18.73 Q51.642 -18.116 52.696 -17.673 Q53.75 -17.23 54.875 -16.98 Z M65.125 -16.98 Q66.258 -17.19 67.321 -17.645 Q68.383 -18.1 69.375 -18.73 L65.125 -22.98 V-16.98 Z M76.625 -25.73 Q77.25 -26.73 77.625 -27.855 Q78 -28.98 78.25 -30.105 H72.25 L76.625 -25.73 Z M72.25 -40.355 H78.25 Q78.04 -41.488 77.585 -42.551 Q77.13 -43.613 76.5 -44.605 L72.25 -40.355 Z M65.125 -47.48  69.375 -51.73 Q68.358 -52.344 67.304 -52.787 Q66.25 -53.23 65.125 -53.48 V-47.48 Z M60 -31.48 Q61.5 -31.48 62.625 -32.605 Q63.75 -33.73 63.75 -35.23 Q63.75 -36.73 62.625 -37.855 Q61.5 -38.98 60 -38.98 Q58.5 -38.98 57.375 -37.855 Q56.25 -36.73 56.25 -35.23 Q56.25 -33.73 57.375 -32.605 Q58.5 -31.48 60 -31.48 Z M54.875 -47.48 V-53.48 Q53.742 -53.27 52.679 -52.815 Q51.617 -52.36 50.625 -51.73 L54.875 -47.48 Z M41.75 -40.355 H47.75 L43.5 -44.605 Q42.87 -43.613 42.415 -42.551 Q41.96 -41.488 41.75 -40.355 Z M43.375 -25.855  47.75 -30.105 H41.75 Q41.945 -28.972 42.367 -27.909 Q42.79 -26.847 43.375 -25.855 Z M26.5 15.27 Q19.359 15.27 14.43 10.34 Q9.5 5.411 9.5 -1.73 V-68.73 Q9.5 -75.871 14.43 -80.8 Q19.359 -85.73 26.5 -85.73 H93.5 Q100.641 -85.73 105.57 -80.8 Q110.5 -75.871 110.5 -68.73 V-1.73 Q110.5 5.411 105.57 10.34 Q100.641 15.27 93.5 15.27 H26.5 Z M26.5 -1.73 H93.5 Q93.5 -1.73 93.5 -1.73 Q93.5 -1.73 93.5 -1.73 V-68.73 Q93.5 -68.73 93.5 -68.73 Q93.5 -68.73 93.5 -68.73 H26.5 Q26.5 -68.73 26.5 -68.73 Q26.5 -68.73 26.5 -68.73 V-1.73 Q26.5 -1.73 26.5 -1.73 Q26.5 -1.73 26.5 -1.73 Z"/></g><g id="Semibold-M" transform="matrix(1 0 0 1 1985.97 1126)"><path d="M60.008 -4.523 Q47.217 -4.523 38.255 -13.477 Q29.294 -22.431 29.294 -35.222 Q29.294 -48.013 38.247 -56.975 Q47.201 -65.936 59.992 -65.936 Q72.783 -65.936 81.745 -56.983 Q90.707 -48.029 90.707 -35.238 Q90.707 -22.447 81.753 -13.485 Q72.799 -4.523 60.008 -4.523 Z M55.473 -16.382 V-24.393 L49.81 -18.73 Q51.146 -17.894 52.529 -17.29 Q53.913 -16.686 55.473 -16.382 Z M64.527 -16.382 Q66.037 -16.664 67.453 -17.274 Q68.869 -17.885 70.19 -18.73 L64.527 -24.393 V-16.382 Z M76.571 -24.969 Q77.413 -26.295 77.978 -27.746 Q78.543 -29.197 78.848 -30.703 H70.837 L76.571 -24.969 Z M70.837 -39.757 H78.848 Q78.566 -41.267 77.956 -42.683 Q77.345 -44.099 76.5 -45.42 L70.837 -39.757 Z M64.527 -46.067  70.19 -51.73 Q68.854 -52.566 67.471 -53.17 Q66.087 -53.773 64.527 -54.078 V-46.067 Z M60 -30.936 Q61.772 -30.936 63.033 -32.197 Q64.293 -33.458 64.293 -35.23 Q64.293 -37.002 63.033 -38.263 Q61.772 -39.523 60 -39.523 Q58.228 -39.523 56.967 -38.263 Q55.706 -37.002 55.706 -35.23 Q55.706 -33.458 56.967 -32.197 Q58.228 -30.936 60 -30.936 Z M55.473 -46.067 V-54.078 Q53.963 -53.796 52.547 -53.186 Q51.131 -52.575 49.81 -51.73 L55.473 -46.067 Z M41.152 -39.757 H49.163 L43.5 -45.42 Q42.655 -44.099 42.044 -42.683 Q41.434 -41.267 41.152 -39.757 Z M43.429 -25.04  49.163 -30.703 H41.152 Q41.425 -29.193 42.017 -27.777 Q42.61 -26.361 43.429 -25.04 Z M25.848 14.292 Q19.436 14.292 14.957 9.813 Q10.478 5.335 10.478 -1.078 V-69.382 Q10.478 -75.794 14.957 -80.273 Q19.436 -84.752 25.848 -84.752 H94.152 Q100.564 -84.752 105.043 -80.273 Q109.522 -75.794 109.522 -69.382 V-1.078 Q109.522 5.335 105.043 9.813 Q100.564 14.292 94.152 14.292 H25.848 Z M25.848 -1.078 H94.152 Q94.152 -1.078 94.152 -1.078 Q94.152 -1.078 94.152 -1.078 V-69.382 Q94.152 -69.382 94.152 -69.382 Q94.152 -69.382 94.152 -69.382 H25.848 Q25.848 -69.382 25.848 -69.382 Q25.848 -69.382 25.848 -69.382 V-1.078 Q25.848 -1.078 25.848 -1.078 Q25.848 -1.078 25.848 -1.078 Z"/></g><g id="Medium-M" transform="matrix(1 0 0 1 1689.91 1126)"><path d="M60.004 -4.931 Q47.38 -4.931 38.541 -13.767 Q29.701 -22.603 29.701 -35.226 Q29.701 -47.85 38.537 -56.689 Q47.373 -65.529 59.996 -65.529 Q72.62 -65.529 81.459 -56.693 Q90.299 -47.857 90.299 -35.233 Q90.299 -22.61 81.463 -13.771 Q72.627 -4.931 60.004 -4.931 Z M55.921 -15.934 V-25.453 L49.198 -18.73 Q50.773 -17.727 52.404 -17.003 Q54.035 -16.279 55.921 -15.934 Z M64.079 -15.934 Q65.871 -16.269 67.552 -16.996 Q69.233 -17.723 70.802 -18.73 L64.079 -25.453 V-15.934 Z M76.53 -24.398 Q77.535 -25.969 78.243 -27.665 Q78.951 -29.36 79.296 -31.151 H69.777 L76.53 -24.398 Z M69.777 -39.309 H79.296 Q78.961 -41.101 78.234 -42.782 Q77.507 -44.463 76.5 -46.032 L69.777 -39.309 Z M64.079 -45.007  70.802 -51.73 Q69.227 -52.733 67.596 -53.457 Q65.965 -54.181 64.079 -54.526 V-45.007 Z M60 -30.529 Q61.975 -30.529 63.338 -31.892 Q64.701 -33.254 64.701 -35.23 Q64.701 -37.205 63.338 -38.568 Q61.975 -39.931 60 -39.931 Q58.025 -39.931 56.662 -38.568 Q55.299 -37.205 55.299 -35.23 Q55.299 -33.254 56.662 -31.892 Q58.025 -30.529 60 -30.529 Z M55.921 -45.007 V-54.526 Q54.129 -54.191 52.448 -53.464 Q50.767 -52.737 49.198 -51.73 L55.921 -45.007 Z M40.704 -39.309 H50.223 L43.5 -46.032 Q42.493 -44.463 41.766 -42.782 Q41.039 -41.101 40.704 -39.309 Z M43.47 -24.428  50.223 -31.151 H40.704 Q41.036 -29.358 41.755 -27.678 Q42.474 -25.997 43.47 -24.428 Z M25.359 13.558 Q19.492 13.558 15.352 9.418 Q11.212 5.278 11.212 -0.589 V-69.871 Q11.212 -75.737 15.352 -79.878 Q19.492 -84.018 25.359 -84.018 H94.641 Q100.507 -84.018 104.648 -79.878 Q108.788 -75.737 108.788 -69.871 V-0.589 Q108.788 5.278 104.648 9.418 Q100.507 13.558 94.641 13.558 H25.359 Z M25.359 -0.589 H94.641 Q94.641 -0.589 94.641 -0.589 Q94.641 -0.589 94.641 -0.589 V-69.871 Q94.641 -69.871 94.641 -69.871 Q94.641 -69.871 94.641 -69.871 H25.359 Q25.359 -69.871 25.359 -69.871 Q25.359 -69.871 25.359 -69.871 V-0.589 Q25.359 -0.589 25.359 -0.589 Q25.359 -0.589 25.359 -0.589 Z"/></g><g id="Regular-M" transform="matrix(1 0 0 1 1394.06 1126)"><path d="M60 -5.23 Q47.5 -5.23 38.75 -13.98 Q30 -22.73 30 -35.23 Q30 -47.73 38.75 -56.48 Q47.5 -65.23 60 -65.23 Q72.5 -65.23 81.25 -56.48 Q90 -47.73 90 -35.23 Q90 -22.73 81.25 -13.98 Q72.5 -5.23 60 -5.23 Z M56.25 -15.605 V-26.23 L48.75 -18.73 Q50.5 -17.605 52.312 -16.792 Q54.125 -15.98 56.25 -15.605 Z M63.75 -15.605 Q65.75 -15.98 67.625 -16.792 Q69.5 -17.605 71.25 -18.73 L63.75 -26.23 V-15.605 Z M76.5 -23.98 Q77.625 -25.73 78.438 -27.605 Q79.25 -29.48 79.625 -31.48 H69 L76.5 -23.98 Z M69 -38.98 H79.625 Q79.25 -40.98 78.438 -42.855 Q77.625 -44.73 76.5 -46.48 L69 -38.98 Z M63.75 -44.23  71.25 -51.73 Q69.5 -52.855 67.688 -53.667 Q65.875 -54.48 63.75 -54.855 V-44.23 Z M60 -30.23 Q62.125 -30.23 63.562 -31.667 Q65 -33.105 65 -35.23 Q65 -37.355 63.562 -38.792 Q62.125 -40.23 60 -40.23 Q57.875 -40.23 56.438 -38.792 Q55 -37.355 55 -35.23 Q55 -33.105 56.438 -31.667 Q57.875 -30.23 60 -30.23 Z M56.25 -44.23 V-54.855 Q54.25 -54.48 52.375 -53.667 Q50.5 -52.855 48.75 -51.73 L56.25 -44.23 Z M40.375 -38.98 H51 L43.5 -46.48 Q42.375 -44.73 41.562 -42.855 Q40.75 -40.98 40.375 -38.98 Z M43.5 -23.98  51 -31.48 H40.375 Q40.75 -29.48 41.562 -27.605 Q42.375 -25.73 43.5 -23.98 Z M25 13.02 Q19.534 13.02 15.642 9.128 Q11.75 5.236 11.75 -0.23 V-70.23 Q11.75 -75.696 15.642 -79.588 Q19.534 -83.48 25 -83.48 H95 Q100.466 -83.48 104.358 -79.588 Q108.25 -75.696 108.25 -70.23 V-0.23 Q108.25 5.236 104.358 9.128 Q100.466 13.02 95 13.02 H25 Z M25 -0.23 H95 Q95 -0.23 95 -0.23 Q95 -0.23 95 -0.23 V-70.23 Q95 -70.23 95 -70.23 Q95 -70.23 95 -70.23 H25 Q25 -70.23 25 -70.23 Q25 -70.23 25 -70.23 V-0.23 Q25 -0.23 25 -0.23 Q25 -0.23 25 -0.23 Z"/></g><g id="Light-M" transform="matrix(1 0 0 1 1098.18 1126)"><path d="M60 -7.057 Q48.221 -7.057 40.024 -15.254 Q31.827 -23.451 31.827 -35.23 Q31.827 -47.009 40.024 -55.23 Q48.221 -63.451 60 -63.451 Q71.779 -63.451 80 -55.23 Q88.221 -47.009 88.221 -35.23 Q88.221 -23.451 80 -15.254 Q71.779 -7.057 60 -7.057 Z M57.019 -14.788 V-28.105 L47.644 -18.73 Q49.731 -17.172 52.048 -16.143 Q54.365 -15.114 57.019 -14.788 Z M62.981 -14.788 Q65.51 -15.114 67.889 -16.119 Q70.269 -17.124 72.356 -18.682 L62.981 -28.057 V-14.788 Z M76.548 -22.874 Q78.106 -24.961 79.111 -27.34 Q80.115 -29.72 80.442 -32.249 H67.173 L76.548 -22.874 Z M67.173 -38.211 H80.442 Q80.115 -40.74 79.111 -43.119 Q78.106 -45.499 76.548 -47.586 L67.173 -38.211 Z M62.981 -42.355  72.356 -51.73 Q70.269 -53.288 67.952 -54.317 Q65.635 -55.345 62.981 -55.672 V-42.355 Z M60 -31.047 Q61.788 -31.047 62.986 -32.244 Q64.183 -33.442 64.183 -35.23 Q64.183 -37.018 62.986 -38.215 Q61.788 -39.413 60 -39.413 Q58.212 -39.413 57.014 -38.215 Q55.817 -37.018 55.817 -35.23 Q55.817 -33.442 57.014 -32.244 Q58.212 -31.047 60 -31.047 Z M57.019 -42.403 V-55.672 Q54.49 -55.345 52.111 -54.341 Q49.731 -53.336 47.644 -51.778 L57.019 -42.403 Z M39.558 -38.211 H52.827 L43.452 -47.586 Q41.894 -45.499 40.889 -43.119 Q39.885 -40.74 39.558 -38.211 Z M43.452 -22.874  52.827 -32.249 H39.51 Q39.885 -29.72 40.913 -27.34 Q41.942 -24.961 43.452 -22.874 Z M26.539 10.52 Q21.41 10.52 17.83 6.94 Q14.25 3.361 14.25 -1.769 V-68.691 Q14.25 -73.82 17.83 -77.4 Q21.41 -80.98 26.539 -80.98 H93.461 Q98.591 -80.98 102.17 -77.4 Q105.75 -73.82 105.75 -68.691 V-1.769 Q105.75 3.361 102.17 6.94 Q98.591 10.52 93.461 10.52 H26.539 Z M26.539 -0.23 H93.461 Q94.038 -0.23 94.519 -0.711 Q95 -1.192 95 -1.769 V-68.691 Q95 -69.268 94.519 -69.749 Q94.038 -70.23 93.461 -70.23 H26.539 Q25.962 -70.23 25.481 -69.749 Q25 -69.268 25 -68.691 V-1.769 Q25 -1.192 25.481 -0.711 Q25.962 -0.23 26.539 -0.23 Z"/></g><g id="Thin-M" transform="matrix(1 0 0 1 802.565 1126)"><path d="M60 -8.884 Q48.942 -8.884 41.298 -16.528 Q33.654 -24.172 33.654 -35.23 Q33.654 -46.288 41.298 -53.98 Q48.942 -61.672 60 -61.672 Q71.058 -61.672 78.75 -53.98 Q86.442 -46.288 86.442 -35.23 Q86.442 -24.172 78.75 -16.528 Q71.058 -8.884 60 -8.884 Z M57.788 -13.97 V-29.98 L46.538 -18.73 Q48.962 -16.74 51.784 -15.494 Q54.606 -14.249 57.788 -13.97 Z M62.212 -13.97 Q65.269 -14.249 68.154 -15.446 Q71.038 -16.643 73.462 -18.634 L62.212 -29.884 V-13.97 Z M76.596 -21.768 Q78.587 -24.191 79.784 -27.076 Q80.981 -29.961 81.26 -33.018 H65.346 L76.596 -21.768 Z M65.346 -37.441 H81.26 Q80.981 -40.499 79.784 -43.384 Q78.587 -46.268 76.596 -48.691 L65.346 -37.441 Z M62.212 -40.48  73.462 -51.73 Q71.038 -53.72 68.216 -54.966 Q65.394 -56.211 62.212 -56.49 V-40.48 Z M60 -31.865 Q61.452 -31.865 62.409 -32.821 Q63.365 -33.778 63.365 -35.23 Q63.365 -36.682 62.409 -37.639 Q61.452 -38.595 60 -38.595 Q58.548 -38.595 57.591 -37.639 Q56.635 -36.682 56.635 -35.23 Q56.635 -33.778 57.591 -32.821 Q58.548 -31.865 60 -31.865 Z M57.788 -40.576 V-56.49 Q54.731 -56.211 51.846 -55.014 Q48.962 -53.816 46.538 -51.826 L57.788 -40.576 Z M38.74 -37.441 H54.654 L43.404 -48.691 Q41.413 -46.268 40.216 -43.384 Q39.019 -40.499 38.74 -37.441 Z M43.404 -21.768  54.654 -33.018 H38.644 Q39.019 -29.961 40.264 -27.076 Q41.51 -24.191 43.404 -21.768 Z M28.077 8.02 Q23.284 8.02 20.017 4.753 Q16.75 1.486 16.75 -3.307 V-67.153 Q16.75 -71.946 20.017 -75.213 Q23.284 -78.48 28.077 -78.48 H91.923 Q96.716 -78.48 99.983 -75.213 Q103.25 -71.946 103.25 -67.153 V-3.307 Q103.25 1.486 99.983 4.753 Q96.716 8.02 91.923 8.02 H28.077 Z M28.077 -0.23 H91.923 Q93.077 -0.23 94.038 -1.191 Q95 -2.153 95 -3.307 V-67.153 Q95 -68.307 94.038 -69.268 Q93.077 -70.23 91.923 -70.23 H28.077 Q26.923 -70.23 25.962 -69.268 Q25 -68.307 25 -67.153 V-3.307 Q25 -2.153 25.962 -1.191 Q26.923 -0.23 28.077 -0.23 Z"/></g><g id="Ultralight-M" transform="matrix(1 0 0 1 506.415 1126)"><path d="M60 -9.98 Q49.375 -9.98 42.062 -17.292 Q34.75 -24.605 34.75 -35.23 Q34.75 -45.855 42.062 -53.23 Q49.375 -60.605 60 -60.605 Q70.625 -60.605 78 -53.23 Q85.375 -45.855 85.375 -35.23 Q85.375 -24.605 78 -17.292 Q70.625 -9.98 60 -9.98 Z M58.25 -13.48 V-31.105 L45.875 -18.73 Q48.5 -16.48 51.625 -15.105 Q54.75 -13.73 58.25 -13.48 Z M61.75 -13.48 Q65.125 -13.73 68.312 -15.042 Q71.5 -16.355 74.125 -18.605 L61.75 -30.98 V-13.48 Z M76.625 -21.105 Q78.875 -23.73 80.188 -26.917 Q81.5 -30.105 81.75 -33.48 H64.25 L76.625 -21.105 Z M64.25 -36.98 H81.75 Q81.5 -40.355 80.188 -43.542 Q78.875 -46.73 76.625 -49.355 L64.25 -36.98 Z M61.75 -39.355  74.125 -51.73 Q71.5 -53.98 68.375 -55.355 Q65.25 -56.73 61.75 -56.98 V-39.355 Z M60 -32.355 Q61.25 -32.355 62.062 -33.167 Q62.875 -33.98 62.875 -35.23 Q62.875 -36.48 62.062 -37.292 Q61.25 -38.105 60 -38.105 Q58.75 -38.105 57.938 -37.292 Q57.125 -36.48 57.125 -35.23 Q57.125 -33.98 57.938 -33.167 Q58.75 -32.355 60 -32.355 Z M58.25 -39.48 V-56.98 Q54.875 -56.73 51.688 -55.417 Q48.5 -54.105 45.875 -51.855 L58.25 -39.48 Z M38.25 -36.98 H55.75 L43.375 -49.355 Q41.125 -46.73 39.812 -43.542 Q38.5 -40.355 38.25 -36.98 Z M43.375 -21.105  55.75 -33.48 H38.125 Q38.5 -30.105 39.875 -26.917 Q41.25 -23.73 43.375 -21.105 Z M29 6.52 Q24.409 6.52 21.33 3.44 Q18.25 0.361 18.25 -4.23 V-66.23 Q18.25 -70.821 21.33 -73.9 Q24.409 -76.98 29 -76.98 H91 Q95.591 -76.98 98.67 -73.9 Q101.75 -70.821 101.75 -66.23 V-4.23 Q101.75 0.361 98.67 3.44 Q95.591 6.52 91 6.52 H29 Z M29 -0.23 H91 Q92.5 -0.23 93.75 -1.48 Q95 -2.73 95 -4.23 V-66.23 Q95 -67.73 93.75 -68.98 Q92.5 -70.23 91 -70.23 H29 Q27.5 -70.23 26.25 -68.98 Q25 -67.73 25 -66.23 V-4.23 Q25 -2.73 26.25 -1.48 Q27.5 -0.23 29 -0.23 Z"/></g><g id="Bold-S" transform="matrix(1 0 0 1 2294.23 696)"><path d="M47.352 -12.941 Q38.069 -12.941 31.56 -19.438 Q25.051 -25.936 25.051 -35.218 Q25.051 -44.501 31.548 -51.01 Q38.046 -57.519 47.328 -57.519 Q56.611 -57.519 63.12 -51.022 Q69.629 -44.524 69.629 -35.242 Q69.629 -25.959 63.132 -19.45 Q56.634 -12.941 47.352 -12.941 Z M43.888 -22.31 V-26.945 L40.634 -23.691 Q41.338 -23.207 42.169 -22.857 Q43.001 -22.507 43.888 -22.31 Z M50.792 -22.31 Q51.785 -22.476 52.556 -22.835 Q53.327 -23.194 54.047 -23.691 L50.792 -26.945 V-22.31 Z M58.978 -28.425 Q59.471 -29.151 59.767 -29.972 Q60.063 -30.792 60.26 -31.778 H55.625 L58.978 -28.425 Z M55.625 -38.682 H60.26 Q60.094 -39.675 59.735 -40.446 Q59.376 -41.217 58.879 -41.936 L55.625 -38.682 Z M50.792 -43.514  54.047 -46.769 Q53.342 -47.253 52.511 -47.603 Q51.68 -47.953 50.792 -48.15 V-43.514 Z M47.319 -32.666 Q48.326 -32.666 49.115 -33.434 Q49.904 -34.202 49.904 -35.209 Q49.904 -36.216 49.136 -37.005 Q48.368 -37.794 47.361 -37.794 Q46.354 -37.794 45.565 -37.026 Q44.776 -36.258 44.776 -35.251 Q44.776 -34.244 45.544 -33.455 Q46.312 -32.666 47.319 -32.666 Z M43.888 -43.514 V-48.15 Q42.895 -47.984 42.124 -47.625 Q41.353 -47.266 40.634 -46.769 L43.888 -43.514 Z M34.42 -38.682 H39.056 L35.801 -41.936 Q35.304 -41.217 34.945 -40.446 Q34.586 -39.675 34.42 -38.682 Z M35.702 -28.523  39.056 -31.778 H34.42 Q34.574 -30.785 34.907 -30.014 Q35.241 -29.243 35.702 -28.523 Z M22.486 2.248 Q17.178 2.248 13.52 -1.41 Q9.863 -5.068 9.863 -10.376 V-60.083 Q9.863 -65.392 13.52 -69.05 Q17.178 -72.707 22.486 -72.707 H72.194 Q77.502 -72.707 81.16 -69.05 Q84.818 -65.392 84.818 -60.083 V-10.376 Q84.818 -5.068 81.16 -1.41 Q77.502 2.248 72.194 2.248 H22.486 Z M22.486 -10.376 H72.194 Q72.194 -10.376 72.194 -10.376 Q72.194 -10.376 72.194 -10.376 V-60.083 Q72.194 -60.083 72.194 -60.083 Q72.194 -60.083 72.194 -60.083 H22.486 Q22.486 -60.083 22.486 -60.083 Q22.486 -60.083 22.486 -60.083 V-10.376 Q22.486 -10.376 22.486 -10.376 Q22.486 -10.376 22.486 -10.376 Z"/></g><g id="Semibold-S" transform="matrix(1 0 0 1 1998.1 696)"><path d="M47.347 -13.37 Q38.241 -13.37 31.86 -19.744 Q25.48 -26.118 25.48 -35.223 Q25.48 -44.329 31.854 -50.71 Q38.228 -57.09 47.333 -57.09 Q56.439 -57.09 62.82 -50.716 Q69.2 -44.342 69.2 -35.237 Q69.2 -26.131 62.826 -19.75 Q56.452 -13.37 47.347 -13.37 Z M44.36 -21.839 V-28.06 L39.99 -23.691 Q40.946 -23.031 42.037 -22.555 Q43.129 -22.079 44.36 -21.839 Z M50.32 -21.839 Q51.61 -22.061 52.66 -22.542 Q53.71 -23.024 54.69 -23.691 L50.32 -28.06 V-21.839 Z M58.935 -27.825 Q59.599 -28.808 60.045 -29.886 Q60.491 -30.963 60.731 -32.25 H54.51 L58.935 -27.825 Z M54.51 -38.21 H60.731 Q60.509 -39.5 60.028 -40.55 Q59.546 -41.6 58.879 -42.58 L54.51 -38.21 Z M50.32 -42.4  54.69 -46.769 Q53.734 -47.429 52.643 -47.905 Q51.551 -48.381 50.32 -48.621 V-42.4 Z M47.319 -32.237 Q48.541 -32.237 49.437 -33.112 Q50.333 -33.988 50.333 -35.209 Q50.333 -36.431 49.458 -37.327 Q48.582 -38.223 47.361 -38.223 Q46.139 -38.223 45.243 -37.348 Q44.347 -36.472 44.347 -35.251 Q44.347 -34.029 45.222 -33.133 Q46.098 -32.237 47.319 -32.237 Z M44.36 -42.4 V-48.621 Q43.07 -48.399 42.02 -47.918 Q40.97 -47.436 39.99 -46.769 L44.36 -42.4 Z M33.949 -38.21 H40.17 L35.801 -42.58 Q35.134 -41.6 34.652 -40.55 Q34.171 -39.5 33.949 -38.21 Z M35.745 -27.88  40.17 -32.25 H33.949 Q34.164 -30.96 34.631 -29.91 Q35.098 -28.86 35.745 -27.88 Z M21.972 1.476 Q17.238 1.476 13.936 -1.826 Q10.634 -5.128 10.634 -9.862 V-60.598 Q10.634 -65.332 13.936 -68.634 Q17.238 -71.936 21.972 -71.936 H72.708 Q77.442 -71.936 80.744 -68.634 Q84.046 -65.332 84.046 -60.598 V-9.862 Q84.046 -5.128 80.744 -1.826 Q77.442 1.476 72.708 1.476 H21.972 Z M21.972 -9.862 H72.708 Q72.708 -9.862 72.708 -9.862 Q72.708 -9.862 72.708 -9.862 V-60.598 Q72.708 -60.598 72.708 -60.598 Q72.708 -60.598 72.708 -60.598 H21.972 Q21.972 -60.598 21.972 -60.598 Q21.972 -60.598 21.972 -60.598 V-9.862 Q21.972 -9.862 21.972 -9.862 Q21.972 -9.862 21.972 -9.862 Z"/></g><g id="Medium-S" transform="matrix(1 0 0 1 1701.85 696)"><path d="M47.343 -13.691 Q38.369 -13.691 32.085 -19.973 Q25.801 -26.254 25.801 -35.227 Q25.801 -44.201 32.083 -50.485 Q38.364 -56.769 47.337 -56.769 Q56.311 -56.769 62.595 -50.487 Q68.879 -44.206 68.879 -35.233 Q68.879 -26.259 62.597 -19.975 Q56.316 -13.691 47.343 -13.691 Z M44.714 -21.485 V-28.896 L39.508 -23.691 Q40.652 -22.9 41.939 -22.328 Q43.226 -21.757 44.714 -21.485 Z M49.966 -21.485 Q51.479 -21.749 52.738 -22.323 Q53.997 -22.897 55.172 -23.691 L49.966 -28.896 V-21.485 Z M58.903 -27.374 Q59.696 -28.551 60.255 -29.821 Q60.813 -31.092 61.085 -32.604 H53.674 L58.903 -27.374 Z M53.674 -37.856 H61.085 Q60.821 -39.369 60.247 -40.628 Q59.673 -41.887 58.879 -43.062 L53.674 -37.856 Z M49.966 -41.564  55.172 -46.769 Q54.028 -47.56 52.741 -48.132 Q51.454 -48.703 49.966 -48.975 V-41.564 Z M47.319 -31.915 Q48.701 -31.915 49.678 -32.871 Q50.655 -33.827 50.655 -35.209 Q50.655 -36.591 49.699 -37.568 Q48.743 -38.545 47.361 -38.545 Q45.979 -38.545 45.002 -37.589 Q44.025 -36.633 44.025 -35.251 Q44.025 -33.869 44.981 -32.892 Q45.937 -31.915 47.319 -31.915 Z M44.714 -41.564 V-48.975 Q43.201 -48.711 41.942 -48.137 Q40.683 -47.563 39.508 -46.769 L44.714 -41.564 Z M33.595 -37.856 H41.006 L35.801 -43.062 Q35.007 -41.887 34.433 -40.628 Q33.859 -39.369 33.595 -37.856 Z M35.777 -27.398  41.006 -32.604 H33.595 Q33.857 -31.091 34.424 -29.832 Q34.992 -28.573 35.777 -27.398 Z M21.586 0.897 Q17.283 0.897 14.248 -2.138 Q11.213 -5.173 11.213 -9.476 V-60.984 Q11.213 -65.287 14.248 -68.322 Q17.283 -71.357 21.586 -71.357 H73.094 Q77.397 -71.357 80.432 -68.322 Q83.467 -65.287 83.467 -60.984 V-9.476 Q83.467 -5.173 80.432 -2.138 Q77.397 0.897 73.094 0.897 H21.586 Z M21.586 -9.476 H73.094 Q73.094 -9.476 73.094 -9.476 Q73.094 -9.476 73.094 -9.476 V-60.984 Q73.094 -60.984 73.094 -60.984 Q73.094 -60.984 73.094 -60.984 H21.586 Q21.586 -60.984 21.586 -60.984 Q21.586 -60.984 21.586 -60.984 V-9.476 Q21.586 -9.476 21.586 -9.476 Q21.586 -9.476 21.586 -9.476 Z"/></g><g id="Regular-S" transform="matrix(1 0 0 1 1405.73 696)"><path d="M47.34 -13.927 Q38.464 -13.927 32.25 -20.14 Q26.037 -26.354 26.037 -35.23 Q26.037 -44.106 32.25 -50.32 Q38.464 -56.533 47.34 -56.533 Q56.216 -56.533 62.43 -50.32 Q68.643 -44.106 68.643 -35.23 Q68.643 -26.354 62.43 -20.14 Q56.216 -13.927 47.34 -13.927 Z M44.973 -21.225 V-29.51 L39.154 -23.691 Q40.436 -22.803 41.866 -22.162 Q43.296 -21.521 44.973 -21.225 Z M49.707 -21.225 Q51.384 -21.521 52.796 -22.162 Q54.208 -22.803 55.526 -23.691 L49.707 -29.51 V-21.225 Z M58.879 -27.044 Q59.767 -28.362 60.408 -29.774 Q61.049 -31.186 61.345 -32.863 H53.06 L58.879 -27.044 Z M53.06 -37.597 H61.345 Q61.049 -39.274 60.408 -40.686 Q59.767 -42.098 58.879 -43.416 L53.06 -37.597 Z M49.707 -40.95  55.526 -46.769 Q54.244 -47.657 52.814 -48.298 Q51.384 -48.939 49.707 -49.235 V-40.95 Z M47.319 -31.679 Q48.819 -31.679 49.855 -32.694 Q50.891 -33.709 50.891 -35.209 Q50.891 -36.709 49.876 -37.745 Q48.861 -38.78 47.361 -38.78 Q45.861 -38.78 44.825 -37.766 Q43.79 -36.751 43.79 -35.251 Q43.79 -33.751 44.804 -32.715 Q45.819 -31.679 47.319 -31.679 Z M44.973 -40.95 V-49.235 Q43.296 -48.939 41.884 -48.298 Q40.472 -47.657 39.154 -46.769 L44.973 -40.95 Z M33.335 -37.597 H41.62 L35.801 -43.416 Q34.913 -42.098 34.272 -40.686 Q33.631 -39.274 33.335 -37.597 Z M35.801 -27.044  41.62 -32.863 H33.335 Q33.631 -31.186 34.272 -29.774 Q34.913 -28.362 35.801 -27.044 Z M21.303 0.472 Q17.316 0.472 14.477 -2.367 Q11.638 -5.206 11.638 -9.193 V-61.267 Q11.638 -65.254 14.477 -68.093 Q17.316 -70.932 21.303 -70.932 H73.377 Q77.364 -70.932 80.203 -68.093 Q83.042 -65.254 83.042 -61.267 V-9.193 Q83.042 -5.206 80.203 -2.367 Q77.364 0.472 73.377 0.472 H21.303 Z M21.303 -9.193 H73.377 Q73.377 -9.193 73.377 -9.193 Q73.377 -9.193 73.377 -9.193 V-61.267 Q73.377 -61.267 73.377 -61.267 Q73.377 -61.267 73.377 -61.267 H21.303 Q21.303 -61.267 21.303 -61.267 Q21.303 -61.267 21.303 -61.267 V-9.193 Q21.303 -9.193 21.303 -9.193 Q21.303 -9.193 21.303 -9.193 Z"/></g><g id="Light-S" transform="matrix(1 0 0 1 1109.75 696)"><path d="M47.34 -15.369 Q39.033 -15.369 33.256 -21.146 Q27.479 -26.923 27.479 -35.23 Q27.479 -43.537 33.256 -49.333 Q39.033 -55.129 47.34 -55.129 Q55.647 -55.129 61.443 -49.333 Q67.239 -43.537 67.239 -35.23 Q67.239 -26.923 61.443 -21.146 Q55.647 -15.369 47.34 -15.369 Z M45.58 -20.58 V-30.989 L38.282 -23.691 Q39.829 -22.462 41.658 -21.65 Q43.486 -20.838 45.58 -20.58 Z M49.1 -20.58 Q51.194 -20.838 53.004 -21.631 Q54.815 -22.424 56.398 -23.653 L49.1 -30.951 V-20.58 Z M58.917 -26.172 Q60.146 -27.755 60.939 -29.566 Q61.732 -31.376 61.99 -33.47 H51.619 L58.917 -26.172 Z M51.619 -36.99 H61.99 Q61.732 -39.084 60.939 -40.894 Q60.146 -42.705 58.917 -44.288 L51.619 -36.99 Z M49.1 -39.471  56.398 -46.769 Q54.851 -47.998 53.022 -48.81 Q51.194 -49.622 49.1 -49.88 V-39.471 Z M47.319 -32.324 Q48.554 -32.324 49.4 -33.15 Q50.246 -33.975 50.246 -35.209 Q50.246 -36.444 49.42 -37.29 Q48.595 -38.136 47.361 -38.136 Q46.126 -38.136 45.28 -37.31 Q44.434 -36.485 44.434 -35.251 Q44.434 -34.016 45.26 -33.17 Q46.085 -32.324 47.319 -32.324 Z M45.58 -39.509 V-49.88 Q43.486 -49.622 41.676 -48.829 Q39.865 -48.036 38.282 -46.807 L45.58 -39.509 Z M32.69 -36.99 H43.061 L35.763 -44.288 Q34.534 -42.705 33.741 -40.894 Q32.948 -39.084 32.69 -36.99 Z M35.763 -26.172  43.061 -33.47 H32.652 Q32.948 -31.376 33.76 -29.566 Q34.572 -27.755 35.763 -26.172 Z M22.517 -1.5 Q18.796 -1.5 16.203 -4.093 Q13.61 -6.686 13.61 -10.407 V-60.053 Q13.61 -63.774 16.203 -66.367 Q18.796 -68.96 22.517 -68.96 H72.163 Q75.884 -68.96 78.477 -66.367 Q81.07 -63.774 81.07 -60.053 V-10.407 Q81.07 -6.686 78.477 -4.093 Q75.884 -1.5 72.163 -1.5 H22.517 Z M22.517 -9.193 H72.163 Q72.618 -9.193 72.998 -9.572 Q73.377 -9.952 73.377 -10.407 V-60.053 Q73.377 -60.508 72.998 -60.888 Q72.618 -61.267 72.163 -61.267 H22.517 Q22.062 -61.267 21.682 -60.888 Q21.303 -60.508 21.303 -60.053 V-10.407 Q21.303 -9.952 21.682 -9.572 Q22.062 -9.193 22.517 -9.193 Z"/></g><g id="Thin-S" transform="matrix(1 0 0 1 814.015 696)"><path d="M47.34 -16.81 Q39.602 -16.81 34.261 -22.151 Q28.92 -27.492 28.92 -35.23 Q28.92 -42.968 34.261 -48.347 Q39.602 -53.726 47.34 -53.726 Q55.078 -53.726 60.457 -48.347 Q65.836 -42.968 65.836 -35.23 Q65.836 -27.492 60.457 -22.151 Q55.078 -16.81 47.34 -16.81 Z M46.187 -19.936 V-32.468 L37.409 -23.691 Q39.222 -22.12 41.449 -21.138 Q43.676 -20.156 46.187 -19.936 Z M48.493 -19.936 Q51.004 -20.156 53.213 -21.1 Q55.422 -22.045 57.271 -23.615 L48.493 -32.393 V-19.936 Z M58.955 -25.299 Q60.525 -27.148 61.47 -29.357 Q62.414 -31.566 62.634 -34.077 H50.177 L58.955 -25.299 Z M50.177 -36.383 H62.634 Q62.414 -38.894 61.47 -41.103 Q60.525 -43.312 58.955 -45.161 L50.177 -36.383 Z M48.493 -37.991  57.271 -46.769 Q55.458 -48.34 53.231 -49.322 Q51.004 -50.304 48.493 -50.524 V-37.991 Z M47.319 -32.969 Q48.288 -32.969 48.945 -33.605 Q49.601 -34.24 49.601 -35.209 Q49.601 -36.178 48.965 -36.835 Q48.33 -37.491 47.361 -37.491 Q46.392 -37.491 45.735 -36.855 Q45.079 -36.22 45.079 -35.251 Q45.079 -34.282 45.715 -33.625 Q46.35 -32.969 47.319 -32.969 Z M46.187 -38.067 V-50.524 Q43.676 -50.304 41.467 -49.36 Q39.258 -48.415 37.409 -46.845 L46.187 -38.067 Z M32.046 -36.383 H44.503 L35.725 -45.161 Q34.155 -43.312 33.21 -41.103 Q32.266 -38.894 32.046 -36.383 Z M35.725 -25.299  44.503 -34.077 H31.97 Q32.266 -31.566 33.248 -29.357 Q34.23 -27.148 35.725 -25.299 Z M23.731 -3.473 Q20.275 -3.473 17.929 -5.819 Q15.583 -8.165 15.583 -11.621 V-58.839 Q15.583 -62.295 17.929 -64.641 Q20.275 -66.987 23.731 -66.987 H70.949 Q74.405 -66.987 76.751 -64.641 Q79.097 -62.295 79.097 -58.839 V-11.621 Q79.097 -8.165 76.751 -5.819 Q74.405 -3.473 70.949 -3.473 H23.731 Z M23.731 -9.193 H70.949 Q71.86 -9.193 72.618 -9.952 Q73.377 -10.71 73.377 -11.621 V-58.839 Q73.377 -59.75 72.618 -60.508 Q71.86 -61.267 70.949 -61.267 H23.731 Q22.82 -61.267 22.062 -60.508 Q21.303 -59.75 21.303 -58.839 V-11.621 Q21.303 -10.71 22.062 -9.952 Q22.82 -9.193 23.731 -9.193 Z"/></g><g id="Ultralight-S" transform="matrix(1 0 0 1 517.792 696)"><path d="M47.34 -17.675 Q39.943 -17.675 34.864 -22.754 Q29.785 -27.833 29.785 -35.23 Q29.785 -42.627 34.864 -47.755 Q39.943 -52.884 47.34 -52.884 Q54.737 -52.884 59.865 -47.755 Q64.994 -42.627 64.994 -35.23 Q64.994 -27.833 59.865 -22.754 Q54.737 -17.675 47.34 -17.675 Z M46.551 -19.549 V-33.356 L36.886 -23.691 Q38.858 -21.916 41.324 -20.831 Q43.79 -19.746 46.551 -19.549 Z M48.129 -19.549 Q50.891 -19.746 53.338 -20.781 Q55.786 -21.817 57.794 -23.592 L48.129 -33.257 V-19.549 Z M58.978 -24.776 Q60.753 -26.784 61.789 -29.232 Q62.824 -31.679 63.021 -34.441 H49.312 L58.978 -24.776 Z M49.312 -36.019 H63.021 Q62.824 -38.78 61.789 -41.228 Q60.753 -43.676 58.978 -45.684 L49.312 -36.019 Z M48.129 -37.104  57.794 -46.769 Q55.822 -48.544 53.356 -49.629 Q50.891 -50.714 48.129 -50.911 V-37.104 Z M47.319 -33.356 Q48.129 -33.356 48.671 -33.878 Q49.214 -34.399 49.214 -35.209 Q49.214 -36.019 48.692 -36.561 Q48.171 -37.104 47.361 -37.104 Q46.551 -37.104 46.009 -36.582 Q45.466 -36.061 45.466 -35.251 Q45.466 -34.441 45.988 -33.899 Q46.509 -33.356 47.319 -33.356 Z M46.551 -37.202 V-50.911 Q43.79 -50.714 41.342 -49.679 Q38.894 -48.643 36.886 -46.868 L46.551 -37.202 Z M31.659 -36.019 H45.367 L35.702 -45.684 Q33.927 -43.676 32.891 -41.228 Q31.856 -38.78 31.659 -36.019 Z M35.702 -24.776  45.367 -34.441 H31.56 Q31.856 -31.679 32.941 -29.232 Q34.026 -26.784 35.702 -24.776 Z M24.459 -4.656 Q21.162 -4.656 18.964 -6.854 Q16.766 -9.052 16.766 -12.349 V-58.111 Q16.766 -61.408 18.964 -63.606 Q21.162 -65.804 24.459 -65.804 H70.221 Q73.518 -65.804 75.716 -63.606 Q77.914 -61.408 77.914 -58.111 V-12.349 Q77.914 -9.052 75.716 -6.854 Q73.518 -4.656 70.221 -4.656 H24.459 Z M24.459 -9.193 H70.221 Q71.404 -9.193 72.391 -10.179 Q73.377 -11.165 73.377 -12.349 V-58.111 Q73.377 -59.294 72.391 -60.281 Q71.404 -61.267 70.221 -61.267 H24.459 Q23.276 -61.267 22.289 -60.281 Q21.303 -59.294 21.303 -58.111 V-12.349 Q21.303 -11.165 22.289 -10.179 Q23.276 -9.193 24.459 -9.193 Z"/></g></g></svg>