<svg xmlns="http://www.w3.org/2000/svg" version="1.1" width="3300" height="2000"><g id="Notes"><style>
    text {
      font-family: monospace;
      text-anchor: middle;
    }
    text.emphasis {
      font-weight:bold;
    }
    text.lanchor {
      text-anchor: start;
    }
  </style><rect height="2200" id="artboard" fill="white" width="3300" x="0" y="0"/><line id="" style="fill:none;stroke:black;stroke-width:0.5;" x1="263" x2="3036" y1="292" y2="292"/><text class="lanchor emphasis" transform="matrix(1 0 0 1 263 322)">Weight/Scale Variations</text><text transform="matrix(1 0 0 1 559.711 322)">Ultralight</text><text transform="matrix(1 0 0 1 856.422 322)">Thin</text><text transform="matrix(1 0 0 1 1153.13 322)">Light</text><text transform="matrix(1 0 0 1 1449.84 322)">Regular</text><text transform="matrix(1 0 0 1 1746.56 322)">Medium</text><text transform="matrix(1 0 0 1 2043.27 322)">Semibold</text><text transform="matrix(1 0 0 1 2339.98 322)">Bold</text><text transform="matrix(1 0 0 1 2636.69 322)">Heavy</text><text transform="matrix(1 0 0 1 2933.4 322)">Black</text><text id="template-version" style="text-anchor: end;" transform="matrix(1 0 0 1 3036 1933)">Template v.1.0</text><text class="lanchor" transform="matrix(1 0 0 1 263 726)">Small</text><text class="lanchor" transform="matrix(1 0 0 1 263 1156)">Medium</text><text class="lanchor" transform="matrix(1 0 0 1 263 1586)">Large</text></g><g id="Guides"><g id="H-reference" style="fill:#27AAE1;stroke:none;" transform="matrix(1 0 0 1 339 696)"><path d="M 54.9316 0 L 57.666 0 L 30.5664 -70.459 L 28.0762 -70.459 L 0.976562 0 L 3.66211 0 L 12.9395 -24.4629 L 45.7031 -24.4629 Z M 29.1992 -67.0898 L 29.4434 -67.0898 L 44.8242 -26.709 L 13.8184 -26.709 Z"/></g><line id="Baseline-S" style="fill:none;stroke:#27AAE1;opacity:1;stroke-width:0.577;" x1="263" x2="3036" y1="696" y2="696"/><line id="Capline-S" style="fill:none;stroke:#27AAE1;opacity:1;stroke-width:0.577;" x1="263" x2="3036" y1="625.541" y2="625.541"/><g id="H-reference" style="fill:#27AAE1;stroke:none;" transform="matrix(1 0 0 1 339 1126)"><path d="M 54.9316 0 L 57.666 0 L 30.5664 -70.459 L 28.0762 -70.459 L 0.976562 0 L 3.66211 0 L 12.9395 -24.4629 L 45.7031 -24.4629 Z M 29.1992 -67.0898 L 29.4434 -67.0898 L 44.8242 -26.709 L 13.8184 -26.709 Z"/></g><line id="Baseline-M" style="fill:none;stroke:#27AAE1;opacity:1;stroke-width:0.577;" x1="263" x2="3036" y1="1126" y2="1126"/><line id="Capline-M" style="fill:none;stroke:#27AAE1;opacity:1;stroke-width:0.577;" x1="263" x2="3036" y1="1055.54" y2="1055.54"/><g id="H-reference" style="fill:#27AAE1;stroke:none;" transform="matrix(1 0 0 1 339 1556)"><path d="M 54.9316 0 L 57.666 0 L 30.5664 -70.459 L 28.0762 -70.459 L 0.976562 0 L 3.66211 0 L 12.9395 -24.4629 L 45.7031 -24.4629 Z M 29.1992 -67.0898 L 29.4434 -67.0898 L 44.8242 -26.709 L 13.8184 -26.709 Z"/></g><line id="Baseline-L" style="fill:none;stroke:#27AAE1;opacity:1;stroke-width:0.577;" x1="263" x2="3036" y1="1556" y2="1556"/><line id="Capline-L" style="fill:none;stroke:#27AAE1;opacity:1;stroke-width:0.577;" x1="263" x2="3036" y1="1485.54" y2="1485.54"/><rect height="119.336" id="left-margin" style="fill:darkred;stroke:none;opacity:0.4;" width="12.4512" x="1394.06" y="1030.79"/><rect height="119.336" id="right-margin" style="fill:darkgreen;stroke:none;opacity:0.4;" width="12.4512" x="1502.5112" y="1030.79"/><rect x="1406.5112" y="1045" width="96" height="96" fill="none" stroke="blue" stroke-dasharray="5"/><rect x="1394.06" y="1030.79" width="120.9024" height="119.336" fill="none" stroke="blue"/></g><g id="Symbols"><g id="Bold-L" transform="matrix(1 0 0 1 2266 1556)"><path d="M132.467 1.374  117.551 -13.703 V-49.178 Q117.551 -49.178 117.551 -49.178 Q117.551 -49.178 117.551 -49.178 H81.915 L67.161 -64.094 H94.493 V-75.696 Q94.493 -82.981 89.241 -88.131 Q83.989 -93.28 76.505 -93.28 Q69.086 -93.28 63.931 -88.227 Q58.776 -83.174 58.776 -75.986 V-72.559 L46.843 -84.411 Q48.617 -94.973 56.821 -101.584 Q65.025 -108.196 76.594 -108.196 Q90.172 -108.196 99.71 -98.843 Q109.247 -89.491 109.247 -75.99 V-64.094 H117.551 Q123.869 -64.094 128.168 -59.795 Q132.467 -55.496 132.467 -49.178 V1.374 Z M142.545 47.169  125.186 29.834 Q124.001 30.802 122.039 31.487 Q120.078 32.173 117.539 32.173 H37.249 Q30.997 32.173 26.746 27.836 Q22.494 23.5 22.494 17.418 V-49.178 Q22.494 -54.884 25.84 -58.522 Q29.186 -62.159 32.653 -62.642 L-1.613 -96.827 L6.289 -104.729 L150.285 39.429 L142.545 47.169 Z M112.956 17.418  86.338 -8.946 Q84.576 -7.334 82.462 -6.487 Q80.348 -5.641 77.964 -5.641 Q72.885 -5.641 69.458 -9.027 Q66.032 -12.413 66.032 -17.309 Q66.032 -19.831 66.919 -22.088 Q67.806 -24.346 69.579 -25.958 L46.359 -49.178 H37.249 Q37.249 -49.178 37.249 -49.178 Q37.249 -49.178 37.249 -49.178 V17.418 Q37.249 17.418 37.249 17.418 Q37.249 17.418 37.249 17.418 H112.956 Z"/></g><g id="Semibold-L" transform="matrix(1 0 0 1 1970.27 1556)"><path d="M130.644 1.935  118.182 -10.619 V-49.669 Q118.182 -49.669 118.182 -49.669 Q118.182 -49.669 118.182 -49.669 H79.041 L66.67 -62.131 H96.105 V-75.276 Q96.105 -83.174 90.385 -88.753 Q84.665 -94.332 76.561 -94.332 Q68.494 -94.332 62.899 -88.794 Q57.303 -83.256 57.303 -75.443 V-71.578 L46.843 -81.958 Q48.336 -92.87 56.694 -99.832 Q65.051 -106.794 76.664 -106.794 Q89.892 -106.794 99.184 -97.686 Q108.476 -88.579 108.476 -75.429 V-62.131 H118.182 Q123.416 -62.131 127.03 -58.517 Q130.644 -54.903 130.644 -49.669 V1.935 Z M141.213 46.047  124.075 28.923 Q122.88 29.68 121.432 30.12 Q119.984 30.56 118.17 30.56 H36.618 Q31.421 30.56 27.834 26.925 Q24.247 23.29 24.247 18.189 V-49.669 Q24.247 -54.489 27.242 -57.693 Q30.238 -60.897 33.775 -61.311 L-1.613 -96.687 L5.728 -103.958 L148.462 38.868 L141.213 46.047 Z M113.516 18.189  86.268 -8.806 Q84.505 -7.123 82.392 -6.312 Q80.278 -5.5 77.894 -5.5 Q72.815 -5.5 69.388 -8.852 Q65.962 -12.203 65.962 -17.145 Q65.962 -19.69 66.849 -21.913 Q67.735 -24.135 69.509 -25.818 L45.588 -49.669 H36.618 Q36.618 -49.669 36.618 -49.669 Q36.618 -49.669 36.618 -49.669 V18.189 Q36.618 18.189 36.618 18.189 Q36.618 18.189 36.618 18.189 H113.516 Z"/></g><g id="Medium-L" transform="matrix(1 0 0 1 1674.31 1556)"><path d="M129.277 2.355  118.655 -8.305 V-50.037 Q118.655 -50.037 118.655 -50.037 Q118.655 -50.037 118.655 -50.037 H76.885 L66.302 -60.658 H97.314 V-74.96 Q97.314 -83.319 91.243 -89.22 Q85.171 -95.12 76.603 -95.12 Q68.05 -95.12 62.125 -89.219 Q56.199 -83.318 56.199 -75.035 V-70.842 L46.843 -80.117 Q48.126 -91.292 56.598 -98.517 Q65.071 -105.742 76.716 -105.742 Q89.681 -105.742 98.789 -96.819 Q107.897 -87.896 107.897 -75.008 V-60.658 H118.655 Q123.076 -60.658 126.177 -57.558 Q129.277 -54.458 129.277 -50.037 V2.355 Z M140.214 45.206  123.242 28.239 Q122.038 28.839 120.976 29.095 Q119.914 29.351 118.644 29.351 H36.145 Q31.739 29.351 28.651 26.241 Q25.562 23.132 25.562 18.768 V-50.037 Q25.562 -54.192 28.294 -57.071 Q31.027 -59.95 34.616 -60.311 L-1.613 -96.582 L5.307 -103.379 L147.095 38.447 L140.214 45.206 Z M113.937 18.768  86.216 -8.701 Q84.453 -6.966 82.339 -6.18 Q80.225 -5.395 77.842 -5.395 Q72.762 -5.395 69.336 -8.72 Q65.909 -12.045 65.909 -17.022 Q65.909 -19.585 66.796 -21.781 Q67.683 -23.977 69.457 -25.713 L45.01 -50.037 H36.145 Q36.145 -50.037 36.145 -50.037 Q36.145 -50.037 36.145 -50.037 V18.768 Q36.145 18.768 36.145 18.768 Q36.145 18.768 36.145 18.768 H113.937 Z"/></g><g id="Regular-L" transform="matrix(1 0 0 1 1378.56 1556)"><path d="M128.274 2.664  119.002 -6.608 V-50.307 Q119.002 -50.307 119.002 -50.307 Q119.002 -50.307 119.002 -50.307 H75.304 L66.032 -59.579 H98.201 V-74.729 Q98.201 -83.425 91.872 -89.562 Q85.543 -95.699 76.634 -95.699 Q67.725 -95.699 61.557 -89.531 Q55.389 -83.363 55.389 -74.736 V-70.302 L46.843 -78.767 Q47.972 -90.136 56.528 -97.553 Q65.085 -104.971 76.755 -104.971 Q89.526 -104.971 98.5 -96.182 Q107.473 -87.394 107.473 -74.7 V-59.579 H119.002 Q122.827 -59.579 125.551 -56.855 Q128.274 -54.132 128.274 -50.307 V2.664 Z M139.481 44.589  122.631 27.738 Q121.421 28.222 120.642 28.343 Q119.862 28.464 118.991 28.464 H35.797 Q31.973 28.464 29.249 25.74 Q26.526 23.017 26.526 19.192 V-50.307 Q26.526 -53.975 29.065 -56.615 Q31.605 -59.256 35.233 -59.579 L-1.613 -96.505 L4.999 -102.955 L146.093 38.139 L139.481 44.589 Z M114.246 19.192  86.177 -8.624 Q84.414 -6.85 82.301 -6.084 Q80.187 -5.318 77.803 -5.318 Q72.724 -5.318 69.297 -8.624 Q65.871 -11.929 65.871 -16.931 Q65.871 -19.508 66.758 -21.685 Q67.644 -23.862 69.418 -25.636 L44.586 -50.307 H35.797 Q35.797 -50.307 35.797 -50.307 Q35.797 -50.307 35.797 -50.307 V19.192 Q35.797 19.192 35.797 19.192 Q35.797 19.192 35.797 19.192 H114.246 Z"/></g><g id="Light-L" transform="matrix(1 0 0 1 1082.77 1556)"><path d="M125.328 2.602  118.258 -4.468 V-47.733 Q118.258 -48.601 117.7 -49.159 Q117.142 -49.718 116.274 -49.718 H73.009 L65.939 -56.788 H97.829 V-71.367 Q97.829 -79.908 91.593 -85.912 Q85.357 -91.915 76.588 -91.915 Q67.756 -91.915 61.666 -85.902 Q55.575 -79.89 55.575 -71.387 V-67.635 L48.983 -74.116 Q49.709 -84.833 57.66 -91.909 Q65.612 -98.985 76.737 -98.985 Q88.286 -98.985 96.593 -90.972 Q104.899 -82.959 104.899 -71.349 V-56.788 H116.274 Q120.005 -56.788 122.667 -54.126 Q125.328 -51.464 125.328 -47.733 V2.602 Z M137.589 42.759  119.777 24.885 Q118.506 25.369 117.448 25.459 Q116.389 25.549 115.016 25.549 H38.513 Q34.795 25.549 32.133 22.887 Q29.472 20.225 29.472 16.508 V-47.733 Q29.472 -51.37 31.949 -53.917 Q34.427 -56.465 37.993 -56.727 L-0.031 -94.861 L5.061 -99.792 L142.619 37.829 L137.589 42.759 Z M113.315 18.479  85.313 -9.492 Q83.732 -7.904 81.808 -7.185 Q79.883 -6.466 77.803 -6.466 Q73.344 -6.466 70.274 -9.446 Q67.204 -12.426 67.204 -16.807 Q67.204 -19.104 68.013 -21.08 Q68.823 -23.056 70.349 -24.579 L45.02 -49.718 H38.526 Q37.658 -49.718 37.1 -49.159 Q36.542 -48.601 36.542 -47.733 V16.494 Q36.542 17.362 37.1 17.92 Q37.658 18.479 38.526 18.479 H113.315 Z"/></g><g id="Thin-L" transform="matrix(1 0 0 1 787.282 1556)"><path d="M122.383 2.54  117.514 -2.329 V-45.159 Q117.514 -46.896 116.398 -48.012 Q115.281 -49.128 113.545 -49.128 H70.714 L65.846 -53.997 H97.457 V-68.006 Q97.457 -76.392 91.314 -82.262 Q85.171 -88.132 76.541 -88.132 Q67.787 -88.132 61.774 -82.275 Q55.762 -76.417 55.762 -68.038 V-64.968 L51.122 -69.465 Q51.445 -79.53 58.792 -86.266 Q66.139 -93.001 76.72 -93.001 Q87.046 -93.001 94.686 -85.763 Q102.326 -78.524 102.326 -67.999 V-53.997 H113.545 Q117.183 -53.997 119.783 -51.397 Q122.383 -48.798 122.383 -45.159 V2.54 Z M135.698 40.93  116.925 22.032 Q115.591 22.516 114.254 22.575 Q112.916 22.634 111.043 22.634 H41.228 Q37.617 22.634 35.017 20.034 Q32.417 17.435 32.417 13.825 V-45.159 Q32.417 -48.765 34.833 -51.22 Q37.249 -53.675 40.753 -53.876 L1.55 -93.218 L5.123 -96.629 L139.146 37.519 L135.698 40.93 Z M112.385 17.765  84.449 -10.36 Q83.05 -8.959 81.315 -8.286 Q79.58 -7.613 77.803 -7.613 Q73.964 -7.613 71.251 -10.267 Q68.537 -12.922 68.537 -16.683 Q68.537 -18.699 69.269 -20.474 Q70.001 -22.249 71.279 -23.522 L45.454 -49.128 H41.255 Q39.519 -49.128 38.402 -48.012 Q37.286 -46.896 37.286 -45.159 V13.796 Q37.286 15.533 38.402 16.649 Q39.519 17.765 41.255 17.765 H112.385 Z"/></g><g id="Ultralight-L" transform="matrix(1 0 0 1 491.205 1556)"><path d="M120.615 2.503  117.068 -1.045 V-43.615 Q117.068 -45.872 115.616 -47.324 Q114.165 -48.775 111.907 -48.775 H69.338 L65.79 -52.322 H97.234 V-65.989 Q97.234 -74.282 91.147 -80.072 Q85.059 -85.862 76.513 -85.862 Q67.806 -85.862 61.839 -80.098 Q55.873 -74.333 55.873 -66.029 V-63.368 L52.406 -66.674 Q52.487 -76.349 59.471 -82.879 Q66.455 -89.41 76.709 -89.41 Q86.301 -89.41 93.541 -82.637 Q100.781 -75.863 100.781 -65.989 V-52.322 H111.907 Q115.49 -52.322 118.053 -49.76 Q120.615 -47.198 120.615 -43.615 V2.503 Z M134.563 39.832  115.213 20.321 Q113.843 20.804 112.338 20.845 Q110.832 20.885 108.658 20.885 H42.858 Q39.31 20.885 36.747 18.323 Q34.185 15.76 34.185 12.215 V-43.615 Q34.185 -47.202 36.563 -49.601 Q38.942 -52 42.409 -52.165 L2.499 -92.232 L5.16 -94.731 L137.062 37.333 L134.563 39.832 Z M111.827 17.338  83.931 -10.881 Q82.641 -9.591 81.019 -8.946 Q79.398 -8.301 77.803 -8.301 Q74.336 -8.301 71.837 -10.76 Q69.338 -13.219 69.338 -16.609 Q69.338 -18.456 70.023 -20.111 Q70.708 -21.766 71.837 -22.888 L45.714 -48.775 H42.892 Q40.635 -48.775 39.184 -47.324 Q37.733 -45.872 37.733 -43.615 V12.178 Q37.733 14.435 39.184 15.886 Q40.635 17.338 42.892 17.338 H111.827 Z"/></g><g id="Bold-M" transform="matrix(1 0 0 1 2281.8 1126)"><path d="M103.125 -10.355  88 -25.605 V-43.98 Q88 -43.98 88 -43.98 Q88 -43.98 88 -43.98 H69.625 L54.5 -59.105 H70.875 V-65.249 Q70.875 -69.897 67.719 -73.188 Q64.562 -76.48 59.963 -76.48 Q55.363 -76.48 52.15 -73.313 Q48.938 -70.146 48.938 -65.605 V-64.667 L36.875 -76.73 Q39.75 -83.73 45.969 -87.667 Q52.188 -91.605 59.938 -91.605 Q70.808 -91.605 78.404 -84.074 Q86 -76.542 86 -65.579 V-59.105 H88 Q94.367 -59.105 98.746 -54.726 Q103.125 -50.347 103.125 -43.98 V-10.355 Z M105.062 23.208  96.438 14.708 Q95.25 15.708 92.958 16.551 Q90.667 17.395 88 17.395 H32 Q25.633 17.395 21.254 13.016 Q16.875 8.637 16.875 2.27 V-43.98 Q16.875 -48.98 19.406 -52.511 Q21.938 -56.042 24.75 -57.105 L4.438 -77.292 L12.375 -85.23 L112.875 15.395 L105.062 23.208 Z M83.938 2.27  67.295 -14.48 Q65.938 -13.105 64.204 -12.417 Q62.47 -11.73 60.438 -11.73 Q56.375 -11.73 53.562 -14.511 Q50.75 -17.292 50.75 -21.335 Q50.75 -23.417 51.469 -25.167 Q52.188 -26.917 53.562 -28.297 L37.812 -43.98 H32 Q32 -43.98 32 -43.98 Q32 -43.98 32 -43.98 V2.27 Q32 2.27 32 2.27 Q32 2.27 32 2.27 H83.938 Z"/></g><g id="Semibold-M" transform="matrix(1 0 0 1 1985.97 1126)"><path d="M101.277 -9.757  88.652 -22.453 V-44.469 Q88.652 -44.469 88.652 -44.469 Q88.652 -44.469 88.652 -44.469 H66.636 L54.011 -57.094 H72.56 V-64.814 Q72.56 -70.096 68.914 -73.831 Q65.269 -77.567 60.006 -77.567 Q54.743 -77.567 51.08 -73.915 Q47.416 -70.264 47.416 -65.007 V-63.689 L36.875 -74.23 Q39.478 -81.556 45.833 -85.874 Q52.188 -90.192 59.992 -90.192 Q70.499 -90.192 77.842 -82.878 Q85.185 -75.564 85.185 -64.981 V-57.094 H88.652 Q93.932 -57.094 97.605 -53.422 Q101.277 -49.749 101.277 -44.469 V-9.757 Z M103.704 22.066  95.296 13.729 Q94.109 14.566 92.361 15.138 Q90.612 15.71 88.652 15.71 H31.348 Q26.068 15.71 22.395 12.038 Q18.723 8.366 18.723 3.085 V-44.469 Q18.723 -48.6 20.901 -51.642 Q23.079 -54.684 25.891 -55.746 L4.438 -77.129 L11.777 -84.469 L110.973 14.797 L103.704 22.066 Z M84.535 3.085  67.241 -14.317 Q65.883 -12.942 64.15 -12.254 Q62.416 -11.567 60.383 -11.567 Q56.321 -11.567 53.508 -14.348 Q50.696 -17.129 50.696 -21.172 Q50.696 -23.254 51.414 -25.004 Q52.133 -26.754 53.508 -28.134 L37.052 -44.469 H31.348 Q31.348 -44.469 31.348 -44.469 Q31.348 -44.469 31.348 -44.469 V3.085 Q31.348 3.085 31.348 3.085 Q31.348 3.085 31.348 3.085 H84.535 Z"/></g><g id="Medium-M" transform="matrix(1 0 0 1 1689.91 1126)"><path d="M99.891 -9.309  89.141 -20.089 V-44.836 Q89.141 -44.836 89.141 -44.836 Q89.141 -44.836 89.141 -44.836 H64.394 L53.644 -55.586 H73.823 V-64.488 Q73.823 -70.245 69.811 -74.314 Q65.799 -78.382 60.039 -78.382 Q54.278 -78.382 50.276 -74.367 Q46.275 -70.352 46.275 -64.559 V-62.955 L36.875 -72.355 Q39.275 -79.926 45.731 -84.529 Q52.188 -89.132 60.033 -89.132 Q70.268 -89.132 77.421 -81.981 Q84.573 -74.83 84.573 -64.533 V-55.586 H89.141 Q93.606 -55.586 96.749 -52.443 Q99.891 -49.301 99.891 -44.836 V-9.309 Z M102.685 21.21  94.44 12.996 Q93.253 13.71 91.912 14.079 Q90.572 14.447 89.141 14.447 H30.859 Q26.394 14.447 23.251 11.304 Q20.109 8.162 20.109 3.697 V-44.836 Q20.109 -48.314 22.022 -50.989 Q23.935 -53.665 26.747 -54.727 L4.438 -77.007 L11.329 -83.898 L109.546 14.349 L102.685 21.21 Z M84.984 3.697  67.2 -14.195 Q65.842 -12.82 64.109 -12.132 Q62.375 -11.445 60.342 -11.445 Q56.28 -11.445 53.467 -14.226 Q50.655 -17.007 50.655 -21.05 Q50.655 -23.132 51.374 -24.882 Q52.092 -26.632 53.467 -28.012 L36.481 -44.836 H30.859 Q30.859 -44.836 30.859 -44.836 Q30.859 -44.836 30.859 -44.836 V3.697 Q30.859 3.697 30.859 3.697 Q30.859 3.697 30.859 3.697 H84.984 Z"/></g><g id="Regular-M" transform="matrix(1 0 0 1 1394.06 1126)"><path d="M98.875 -8.98  89.5 -18.355 V-45.105 Q89.5 -45.105 89.5 -45.105 Q89.5 -45.105 89.5 -45.105 H62.75 L53.375 -54.48 H74.75 V-64.249 Q74.75 -70.355 70.469 -74.667 Q66.188 -78.98 60.062 -78.98 Q53.938 -78.98 49.688 -74.699 Q45.438 -70.417 45.438 -64.23 V-62.417 L36.875 -70.98 Q39.125 -78.73 45.656 -83.542 Q52.188 -88.355 60.062 -88.355 Q70.099 -88.355 77.112 -81.324 Q84.125 -74.292 84.125 -64.204 V-54.48 H89.5 Q93.367 -54.48 96.121 -51.726 Q98.875 -48.972 98.875 -45.105 V-8.98 Z M101.938 20.583  93.812 12.458 Q92.625 13.083 91.583 13.301 Q90.542 13.52 89.5 13.52 H30.5 Q26.633 13.52 23.879 10.766 Q21.125 8.012 21.125 4.145 V-45.105 Q21.125 -48.105 22.844 -50.511 Q24.562 -52.917 27.375 -53.98 L4.438 -76.917 L11 -83.48 L108.5 14.02 L101.938 20.583 Z M85.312 4.145  67.17 -14.105 Q65.812 -12.73 64.079 -12.042 Q62.345 -11.355 60.312 -11.355 Q56.25 -11.355 53.438 -14.136 Q50.625 -16.917 50.625 -20.96 Q50.625 -23.042 51.344 -24.792 Q52.062 -26.542 53.438 -27.922 L36.062 -45.105 H30.5 Q30.5 -45.105 30.5 -45.105 Q30.5 -45.105 30.5 -45.105 V4.145 Q30.5 4.145 30.5 4.145 Q30.5 4.145 30.5 4.145 H85.312 Z"/></g><g id="Light-M" transform="matrix(1 0 0 1 1098.18 1126)"><path d="M96.591 -8.114  89.596 -15.11 V-43.59 Q89.596 -44.264 89.163 -44.696 Q88.731 -45.129 88.058 -45.129 H59.577 L52.582 -52.124 H74.798 V-61.932 Q74.798 -68.11 70.421 -72.415 Q66.043 -76.72 59.834 -76.72 Q53.625 -76.72 49.267 -72.415 Q44.909 -68.11 44.909 -61.922 V-60.11 L38.486 -66.508 Q39.99 -74.042 46.053 -78.879 Q52.115 -83.715 59.856 -83.715 Q68.945 -83.715 75.369 -77.369 Q81.793 -71.023 81.793 -61.895 V-52.124 H88.058 Q91.612 -52.124 94.102 -49.635 Q96.591 -47.145 96.591 -43.59 V-8.114 Z M102.058 20.703  91.793 10.438 Q90.654 10.967 89.54 11.114 Q88.426 11.26 87.092 11.26 H31.932 Q28.388 11.26 25.898 8.771 Q23.409 6.281 23.409 2.738 V-43.59 Q23.409 -46.47 25.128 -48.684 Q26.846 -50.898 29.611 -51.721 L4.269 -77.086 L9.173 -81.989 L106.961 15.799 L102.058 20.703 Z M85.409 4.265  66.356 -14.922 Q65.139 -13.692 63.598 -13.088 Q62.057 -12.485 60.312 -12.485 Q56.731 -12.485 54.267 -14.917 Q51.803 -17.35 51.803 -20.912 Q51.803 -22.724 52.438 -24.272 Q53.072 -25.821 54.303 -27.055 L36.014 -45.129 H31.942 Q31.269 -45.129 30.837 -44.696 Q30.404 -44.264 30.404 -43.59 V2.727 Q30.404 3.4 30.837 3.833 Q31.269 4.265 31.942 4.265 H85.409 Z"/></g><g id="Thin-M" transform="matrix(1 0 0 1 802.565 1126)"><path d="M94.308 -7.249  89.692 -11.865 V-42.076 Q89.692 -43.422 88.827 -44.288 Q87.962 -45.153 86.615 -45.153 H56.404 L51.788 -49.768 H74.846 V-59.615 Q74.846 -65.865 70.373 -70.163 Q65.899 -74.461 59.606 -74.461 Q53.312 -74.461 48.846 -70.131 Q44.38 -65.802 44.38 -59.615 V-57.802 L40.096 -62.038 Q40.856 -69.355 46.45 -74.216 Q52.043 -79.076 59.651 -79.076 Q67.791 -79.076 73.626 -73.415 Q79.462 -67.754 79.462 -59.587 V-49.768 H86.615 Q89.858 -49.768 92.083 -47.543 Q94.308 -45.318 94.308 -42.076 V-7.249 Z M102.178 20.823  89.774 8.419 Q88.683 8.852 87.497 8.926 Q86.311 9.001 84.685 9.001 H33.364 Q30.142 9.001 27.917 6.776 Q25.692 4.551 25.692 1.331 V-42.076 Q25.692 -44.836 27.411 -46.857 Q29.13 -48.879 31.846 -49.463 L4.101 -77.254 L7.346 -80.499 L105.423 17.578 L102.178 20.823 Z M85.505 4.385  65.542 -15.74 Q64.466 -14.653 63.117 -14.134 Q61.768 -13.615 60.312 -13.615 Q57.212 -13.615 55.096 -15.699 Q52.981 -17.783 52.981 -20.864 Q52.981 -22.405 53.531 -23.753 Q54.082 -25.1 55.168 -26.188 L35.966 -45.153 H33.385 Q32.038 -45.153 31.173 -44.288 Q30.308 -43.422 30.308 -42.076 V1.309 Q30.308 2.655 31.173 3.52 Q32.038 4.385 33.385 4.385 H85.505 Z"/></g><g id="Ultralight-M" transform="matrix(1 0 0 1 506.415 1126)"><path d="M92.938 -6.73  89.75 -9.917 V-41.167 Q89.75 -42.917 88.625 -44.042 Q87.5 -45.167 85.75 -45.167 H54.5 L51.312 -48.355 H74.875 V-58.224 Q74.875 -64.517 70.344 -68.811 Q65.812 -73.105 59.469 -73.105 Q53.125 -73.105 48.594 -68.761 Q44.062 -64.417 44.062 -58.23 V-56.417 L41.062 -59.355 Q41.375 -66.542 46.688 -71.417 Q52 -76.292 59.527 -76.292 Q67.099 -76.292 72.581 -71.042 Q78.062 -65.792 78.062 -58.202 V-48.355 H85.75 Q88.805 -48.355 90.871 -46.289 Q92.938 -44.222 92.938 -41.167 V-6.73 Z M102.25 20.895  88.562 7.208 Q87.5 7.583 86.271 7.614 Q85.042 7.645 83.24 7.645 H34.223 Q31.195 7.645 29.129 5.579 Q27.062 3.512 27.062 0.487 V-41.167 Q27.062 -43.855 28.781 -45.761 Q30.5 -47.667 33.188 -48.108 L4 -77.355 L6.25 -79.605 L104.5 18.645 L102.25 20.895 Z M85.562 4.458  65.054 -16.23 Q64.062 -15.23 62.829 -14.761 Q61.595 -14.292 60.312 -14.292 Q57.5 -14.292 55.594 -16.167 Q53.688 -18.042 53.688 -20.835 Q53.688 -22.214 54.188 -23.441 Q54.688 -24.667 55.688 -25.667 L35.938 -45.167 H34.25 Q32.5 -45.167 31.375 -44.042 Q30.25 -42.917 30.25 -41.167 V0.458 Q30.25 2.208 31.375 3.333 Q32.5 4.458 34.25 4.458 H85.562 Z"/></g><g id="Bold-S" transform="matrix(1 0 0 1 2294.23 696)"><path d="M78.21 -17.576  67.052 -28.832 V-41.332 Q67.052 -41.332 67.052 -41.332 Q67.052 -41.332 67.052 -41.332 H54.553 L43.395 -52.489 H55.92 V-58.915 Q55.92 -62.582 53.401 -65.179 Q50.883 -67.776 47.212 -67.776 Q43.583 -67.776 40.949 -65.228 Q38.316 -62.68 38.316 -59.196 V-57.569 L29.588 -66.297 Q31.363 -72.214 36.072 -75.568 Q40.781 -78.921 47.192 -78.921 Q55.481 -78.921 61.273 -73.21 Q67.065 -67.498 67.065 -59.175 V-52.489 Q71.763 -52.489 74.986 -49.262 Q78.21 -46.035 78.21 -41.332 V-17.576 Z M81.119 8.116  74.708 1.705 Q73.969 2.79 71.815 3.752 Q69.662 4.713 67.065 4.713 H27.587 Q22.887 4.713 19.629 1.505 Q16.372 -1.704 16.47 -6.431 V-41.345 Q16.47 -45.092 18.33 -47.635 Q20.19 -50.178 22.191 -50.911 L6.263 -66.741 L12.032 -72.51 L86.79 2.445 L81.119 8.116 Z M66.621 -6.431  52.997 -19.943 Q52.123 -18.464 50.607 -17.675 Q49.092 -16.886 47.488 -16.886 Q44.608 -16.886 42.621 -18.848 Q40.634 -20.811 40.634 -23.675 Q40.634 -25.318 41.349 -26.798 Q42.064 -28.277 43.642 -29.365 L31.807 -41.345 H27.615 Q27.615 -41.345 27.615 -41.345 Q27.615 -41.345 27.615 -41.345 V-6.431 Q27.615 -6.431 27.615 -6.431 Q27.615 -6.431 27.615 -6.431 H66.621 Z"/></g><g id="Semibold-S" transform="matrix(1 0 0 1 1998.1 696)"><path d="M76.752 -17.105  67.567 -26.345 V-41.718 Q67.567 -41.718 67.567 -41.718 Q67.567 -41.718 67.567 -41.718 H52.194 L43.009 -50.903 H57.25 V-58.572 Q57.25 -62.739 54.345 -65.686 Q51.44 -68.634 47.246 -68.634 Q43.094 -68.634 40.105 -65.703 Q37.115 -62.773 37.115 -58.724 V-56.797 L29.588 -64.324 Q31.148 -70.499 35.965 -74.153 Q40.781 -77.806 47.235 -77.806 Q55.237 -77.806 60.83 -72.266 Q66.422 -66.726 66.422 -58.704 V-50.903 H67.58 Q71.42 -50.903 74.086 -48.233 Q76.752 -45.564 76.752 -41.718 V-17.105 Z M80.047 7.215  73.808 0.933 Q73.068 1.889 71.344 2.637 Q69.619 3.384 67.58 3.384 H27.073 Q23.23 3.384 20.53 0.733 Q17.83 -1.918 17.928 -5.788 V-41.731 Q17.928 -44.792 19.509 -46.949 Q21.09 -49.106 23.091 -49.839 L6.263 -66.612 L11.561 -71.91 L85.289 1.973 L80.047 7.215 Z M67.093 -5.788  52.954 -19.815 Q52.08 -18.335 50.565 -17.546 Q49.049 -16.757 47.445 -16.757 Q44.565 -16.757 42.578 -18.72 Q40.591 -20.682 40.591 -23.546 Q40.591 -25.19 41.306 -26.669 Q42.021 -28.148 43.599 -29.237 L31.206 -41.731 H27.1 Q27.1 -41.731 27.1 -41.731 Q27.1 -41.731 27.1 -41.731 V-5.788 Q27.1 -5.788 27.1 -5.788 Q27.1 -5.788 27.1 -5.788 H67.093 Z"/></g><g id="Medium-S" transform="matrix(1 0 0 1 1701.85 696)"><path d="M75.658 -16.751  67.953 -24.48 V-42.007 Q67.953 -42.007 67.953 -42.007 Q67.953 -42.007 67.953 -42.007 H50.425 L42.72 -49.713 H58.247 V-58.315 Q58.247 -62.857 55.052 -66.067 Q51.858 -69.277 47.272 -69.277 Q42.727 -69.277 39.471 -66.06 Q36.215 -62.843 36.215 -58.37 V-56.218 L29.588 -62.845 Q30.988 -69.213 35.885 -73.091 Q40.781 -76.97 47.267 -76.97 Q55.055 -76.97 60.497 -71.559 Q65.939 -66.147 65.939 -58.35 V-49.713 H67.965 Q71.163 -49.713 73.411 -47.461 Q75.658 -45.21 75.658 -42.007 V-16.751 Z M79.243 6.54  73.133 0.354 Q72.393 1.214 70.99 1.801 Q69.587 2.387 67.965 2.387 H26.687 Q23.487 2.387 21.205 0.154 Q18.923 -2.079 19.022 -5.306 V-42.02 Q19.022 -44.567 20.394 -46.434 Q21.766 -48.301 23.766 -49.035 L6.263 -66.516 L11.207 -71.46 L84.164 1.619 L79.243 6.54 Z M67.447 -5.306  52.922 -19.718 Q52.048 -18.239 50.532 -17.45 Q49.017 -16.661 47.413 -16.661 Q44.533 -16.661 42.546 -18.623 Q40.558 -20.586 40.558 -23.45 Q40.558 -25.093 41.273 -26.572 Q41.989 -28.052 43.567 -29.14 L30.756 -42.02 H26.715 Q26.715 -42.02 26.715 -42.02 Q26.715 -42.02 26.715 -42.02 V-5.306 Q26.715 -5.306 26.715 -5.306 Q26.715 -5.306 26.715 -5.306 H67.447 Z"/></g><g id="Regular-S" transform="matrix(1 0 0 1 1405.73 696)"><path d="M74.856 -16.491  68.236 -23.112 V-42.219 Q68.236 -42.219 68.236 -42.219 Q68.236 -42.219 68.236 -42.219 H49.128 L42.507 -48.84 H58.978 V-58.126 Q58.978 -62.944 55.571 -66.346 Q52.165 -69.749 47.291 -69.749 Q42.458 -69.749 39.006 -66.322 Q35.554 -62.894 35.554 -58.111 V-55.793 L29.588 -61.76 Q30.87 -68.269 35.826 -72.313 Q40.781 -76.357 47.291 -76.357 Q54.921 -76.357 60.253 -71.04 Q65.586 -65.723 65.586 -58.09 V-48.84 H68.249 Q70.974 -48.84 72.915 -46.895 Q74.856 -44.95 74.856 -42.219 V-16.491 Z M78.653 6.045  72.637 -0.07 Q71.898 0.719 70.731 1.187 Q69.563 1.656 68.249 1.656 H26.404 Q23.676 1.656 21.701 -0.27 Q19.725 -2.197 19.824 -4.952 V-42.232 Q19.824 -44.402 21.042 -46.057 Q22.261 -47.712 24.262 -48.446 L6.263 -66.445 L10.947 -71.129 L83.338 1.36 L78.653 6.045 Z M67.706 -4.952  52.899 -19.647 Q52.025 -18.168 50.509 -17.379 Q48.993 -16.59 47.389 -16.59 Q44.509 -16.59 42.522 -18.553 Q40.535 -20.515 40.535 -23.379 Q40.535 -25.022 41.25 -26.502 Q41.965 -27.981 43.543 -29.07 L30.426 -42.232 H26.431 Q26.431 -42.232 26.431 -42.232 Q26.431 -42.232 26.431 -42.232 V-4.952 Q26.431 -4.952 26.431 -4.952 Q26.431 -4.952 26.431 -4.952 H67.706 Z"/></g><g id="Light-S" transform="matrix(1 0 0 1 1109.75 696)"><path d="M73.054 -15.808  68.311 -20.551 V-41.025 Q68.311 -41.556 67.97 -41.897 Q67.629 -42.238 67.098 -42.238 H46.624 L41.881 -46.981 H59.016 V-56.298 Q59.016 -61.172 55.533 -64.569 Q52.051 -67.966 47.11 -67.966 Q42.212 -67.966 38.674 -64.52 Q35.137 -61.073 35.137 -56.29 V-53.972 L30.858 -58.232 Q31.553 -64.571 36.138 -68.633 Q40.725 -72.696 47.128 -72.696 Q54.011 -72.696 58.878 -67.92 Q63.746 -63.143 63.746 -56.269 V-46.981 H67.11 Q69.59 -46.981 71.322 -45.245 Q73.054 -43.509 73.054 -41.025 V-15.808 Z M78.748 6.139  71.044 -1.663 Q70.342 -0.95 69.118 -0.539 Q67.894 -0.127 66.349 -0.127 H27.534 Q25.061 -0.127 23.294 -1.845 Q21.527 -3.562 21.626 -6.062 V-41.037 Q21.626 -43.112 22.844 -44.615 Q24.063 -46.119 26.026 -46.664 L6.13 -66.578 L9.506 -69.953 L82.124 2.764 L78.748 6.139 Z M67.782 -4.857  52.256 -20.292 Q51.494 -18.927 50.13 -18.204 Q48.765 -17.481 47.389 -17.481 Q44.889 -17.481 43.177 -19.169 Q41.464 -20.857 41.464 -23.341 Q41.464 -24.771 42.113 -26.091 Q42.762 -27.412 44.226 -28.385 L30.388 -42.251 H27.57 Q27.038 -42.251 26.697 -41.91 Q26.356 -41.569 26.356 -41.037 V-6.071 Q26.356 -5.54 26.697 -5.199 Q27.038 -4.857 27.57 -4.857 H67.782 Z"/></g><g id="Thin-S" transform="matrix(1 0 0 1 814.015 696)"><path d="M71.253 -15.126  68.387 -17.991 V-39.83 Q68.387 -40.892 67.704 -41.575 Q67.022 -42.257 65.96 -42.257 H44.121 L41.256 -45.123 H59.054 V-54.469 Q59.054 -59.401 55.495 -62.792 Q51.937 -66.183 46.93 -66.183 Q41.965 -66.183 38.342 -62.718 Q34.72 -59.253 34.72 -54.469 V-52.152 L32.129 -54.705 Q32.235 -60.872 36.451 -64.954 Q40.668 -69.036 46.966 -69.036 Q53.1 -69.036 57.503 -64.8 Q61.906 -60.564 61.906 -54.447 V-45.123 H65.973 Q68.205 -45.123 69.729 -43.595 Q71.253 -42.068 71.253 -39.83 V-15.126 Z M78.843 6.234  69.451 -3.256 Q68.787 -2.619 67.506 -2.265 Q66.225 -1.91 64.449 -1.91 H28.663 Q26.445 -1.91 24.887 -3.419 Q23.329 -4.928 23.427 -7.172 V-39.843 Q23.427 -41.823 24.646 -43.174 Q25.864 -44.526 27.789 -44.882 L5.997 -66.71 L8.064 -68.778 L80.91 4.167 L78.843 6.234 Z M67.858 -4.762  51.614 -20.937 Q50.963 -19.685 49.75 -19.029 Q48.538 -18.373 47.389 -18.373 Q45.268 -18.373 43.831 -19.785 Q42.394 -21.198 42.394 -23.303 Q42.394 -24.519 42.976 -25.681 Q43.558 -26.843 44.908 -27.701 L30.35 -42.27 H28.707 Q27.645 -42.27 26.963 -41.588 Q26.28 -40.905 26.28 -39.843 V-7.19 Q26.28 -6.128 26.963 -5.445 Q27.645 -4.762 28.707 -4.762 H67.858 Z"/></g><g id="Ultralight-S" transform="matrix(1 0 0 1 517.792 696)"><path d="M70.172 -14.716  68.433 -16.455 V-39.113 Q68.433 -40.494 67.545 -41.381 Q66.658 -42.269 65.277 -42.269 H42.619 L40.88 -44.008 H59.076 V-53.372 Q59.076 -58.338 55.473 -61.726 Q51.869 -65.113 46.822 -65.113 Q41.817 -65.113 38.143 -61.637 Q34.469 -58.16 34.469 -53.377 V-51.059 L32.891 -52.588 Q32.645 -58.653 36.639 -62.746 Q40.634 -66.839 46.868 -66.839 Q52.554 -66.839 56.678 -62.928 Q60.802 -59.016 60.802 -53.355 V-44.008 H65.29 Q67.374 -44.008 68.773 -42.605 Q70.172 -41.203 70.172 -39.113 V-14.716 Z M78.9 6.291  68.495 -4.212 Q67.854 -3.621 66.539 -3.3 Q65.224 -2.98 63.31 -2.98 H29.341 Q27.276 -2.98 25.843 -4.363 Q24.41 -5.747 24.508 -7.839 V-39.126 Q24.508 -41.049 25.727 -42.309 Q26.946 -43.57 28.848 -43.813 L5.918 -66.79 L7.2 -68.072 L80.182 5.009 L78.9 6.291 Z M67.903 -4.706  51.229 -21.324 Q50.644 -20.14 49.523 -19.524 Q48.401 -18.908 47.389 -18.908 Q45.496 -18.908 44.223 -20.155 Q42.951 -21.403 42.951 -23.281 Q42.951 -24.368 43.494 -25.435 Q44.036 -26.502 45.318 -27.291 L30.327 -42.282 H29.39 Q28.01 -42.282 27.122 -41.394 Q26.234 -40.506 26.234 -39.126 V-7.862 Q26.234 -6.481 27.122 -5.593 Q28.01 -4.706 29.39 -4.706 H67.903 Z"/></g></g></svg>