<svg xmlns="http://www.w3.org/2000/svg" version="1.1" width="3300" height="2000"><g id="Notes"><style>
    text {
      font-family: monospace;
      text-anchor: middle;
    }
    text.emphasis {
      font-weight:bold;
    }
    text.lanchor {
      text-anchor: start;
    }
  </style><rect height="2200" id="artboard" fill="white" width="3300" x="0" y="0"/><line id="" style="fill:none;stroke:black;stroke-width:0.5;" x1="263" x2="3036" y1="292" y2="292"/><text class="lanchor emphasis" transform="matrix(1 0 0 1 263 322)">Weight/Scale Variations</text><text transform="matrix(1 0 0 1 559.711 322)">Ultralight</text><text transform="matrix(1 0 0 1 856.422 322)">Thin</text><text transform="matrix(1 0 0 1 1153.13 322)">Light</text><text transform="matrix(1 0 0 1 1449.84 322)">Regular</text><text transform="matrix(1 0 0 1 1746.56 322)">Medium</text><text transform="matrix(1 0 0 1 2043.27 322)">Semibold</text><text transform="matrix(1 0 0 1 2339.98 322)">Bold</text><text transform="matrix(1 0 0 1 2636.69 322)">Heavy</text><text transform="matrix(1 0 0 1 2933.4 322)">Black</text><text id="template-version" style="text-anchor: end;" transform="matrix(1 0 0 1 3036 1933)">Template v.1.0</text><text class="lanchor" transform="matrix(1 0 0 1 263 726)">Small</text><text class="lanchor" transform="matrix(1 0 0 1 263 1156)">Medium</text><text class="lanchor" transform="matrix(1 0 0 1 263 1586)">Large</text></g><g id="Guides"><g id="H-reference" style="fill:#27AAE1;stroke:none;" transform="matrix(1 0 0 1 339 696)"><path d="M 54.9316 0 L 57.666 0 L 30.5664 -70.459 L 28.0762 -70.459 L 0.976562 0 L 3.66211 0 L 12.9395 -24.4629 L 45.7031 -24.4629 Z M 29.1992 -67.0898 L 29.4434 -67.0898 L 44.8242 -26.709 L 13.8184 -26.709 Z"/></g><line id="Baseline-S" style="fill:none;stroke:#27AAE1;opacity:1;stroke-width:0.577;" x1="263" x2="3036" y1="696" y2="696"/><line id="Capline-S" style="fill:none;stroke:#27AAE1;opacity:1;stroke-width:0.577;" x1="263" x2="3036" y1="625.541" y2="625.541"/><g id="H-reference" style="fill:#27AAE1;stroke:none;" transform="matrix(1 0 0 1 339 1126)"><path d="M 54.9316 0 L 57.666 0 L 30.5664 -70.459 L 28.0762 -70.459 L 0.976562 0 L 3.66211 0 L 12.9395 -24.4629 L 45.7031 -24.4629 Z M 29.1992 -67.0898 L 29.4434 -67.0898 L 44.8242 -26.709 L 13.8184 -26.709 Z"/></g><line id="Baseline-M" style="fill:none;stroke:#27AAE1;opacity:1;stroke-width:0.577;" x1="263" x2="3036" y1="1126" y2="1126"/><line id="Capline-M" style="fill:none;stroke:#27AAE1;opacity:1;stroke-width:0.577;" x1="263" x2="3036" y1="1055.54" y2="1055.54"/><g id="H-reference" style="fill:#27AAE1;stroke:none;" transform="matrix(1 0 0 1 339 1556)"><path d="M 54.9316 0 L 57.666 0 L 30.5664 -70.459 L 28.0762 -70.459 L 0.976562 0 L 3.66211 0 L 12.9395 -24.4629 L 45.7031 -24.4629 Z M 29.1992 -67.0898 L 29.4434 -67.0898 L 44.8242 -26.709 L 13.8184 -26.709 Z"/></g><line id="Baseline-L" style="fill:none;stroke:#27AAE1;opacity:1;stroke-width:0.577;" x1="263" x2="3036" y1="1556" y2="1556"/><line id="Capline-L" style="fill:none;stroke:#27AAE1;opacity:1;stroke-width:0.577;" x1="263" x2="3036" y1="1485.54" y2="1485.54"/><rect height="119.336" id="left-margin" style="fill:darkred;stroke:none;opacity:0.4;" width="12.4512" x="1394.06" y="1030.79"/><rect height="119.336" id="right-margin" style="fill:darkgreen;stroke:none;opacity:0.4;" width="12.4512" x="1502.5112" y="1030.79"/><rect x="1406.5112" y="1045" width="96" height="96" fill="none" stroke="blue" stroke-dasharray="5"/><rect x="1394.06" y="1030.79" width="120.9024" height="119.336" fill="none" stroke="blue"/></g><g id="Symbols"><g id="Bold-L" transform="matrix(1 0 0 1 2266 1556)"><path d="M3.064 -6.044 V-10.559 Q3.064 -20.452 12.497 -23.809 Q21.93 -27.167 29.751 -27.167 Q37.571 -27.167 47.004 -23.838 Q56.438 -20.508 56.438 -10.559 V-6.044 H3.064 Z M29.617 -35.069 Q23.543 -35.069 19.35 -39.421 Q15.158 -43.773 15.158 -49.848 Q15.158 -55.923 19.416 -60.25 Q23.675 -64.577 29.656 -64.577 Q35.636 -64.577 39.99 -60.225 Q44.344 -55.873 44.344 -49.798 Q44.344 -43.724 40.018 -39.396 Q35.692 -35.069 29.617 -35.069 Z M63.741 -25.394 Q61.708 -25.394 60.363 -26.57 Q59.017 -27.746 59.017 -29.832 Q59.017 -30.875 60.44 -33.521 Q61.436 -34.907 62.162 -36.883 Q62.888 -38.858 62.888 -40.998 Q62.888 -43.138 62.185 -45.28 Q61.482 -47.421 60.415 -48.936 Q59.806 -49.571 59.412 -50.39 Q59.017 -51.21 59.017 -52.191 Q59.017 -54.316 60.401 -55.657 Q61.783 -56.999 63.686 -56.999 Q64.492 -56.999 65.383 -56.676 Q66.274 -56.354 66.919 -56.031 Q69.821 -52.967 71.192 -49.188 Q72.562 -45.409 72.562 -41.269 Q72.562 -37.326 71.001 -32.904 Q69.439 -28.482 66.435 -25.877 Q65.629 -25.232 65.094 -25.313 Q64.559 -25.394 63.741 -25.394 Z M77.464 -11.687 Q75.423 -11.687 74.073 -13.076 Q72.724 -14.465 72.724 -16.417 Q72.724 -17.455 72.957 -18.113 Q73.19 -18.773 74.019 -19.652 Q78.045 -24.104 80.141 -29.757 Q82.237 -35.41 82.237 -41.044 Q82.237 -46.679 80.141 -52.403 Q78.045 -58.127 73.969 -62.667 Q73.351 -63.491 73.118 -64.219 Q72.885 -64.947 72.885 -65.962 Q72.885 -67.945 74.255 -69.325 Q75.624 -70.705 77.519 -70.705 Q78.332 -70.705 79.093 -70.185 Q79.855 -69.664 80.731 -68.931 Q86.249 -63.304 88.839 -55.979 Q91.429 -48.653 91.429 -41.055 Q91.429 -33.456 88.768 -26.119 Q86.108 -18.782 80.904 -13.139 Q80.141 -12.494 79.282 -12.091 Q78.423 -11.687 77.464 -11.687 Z M98.524 -6.044 V-10.559 Q98.524 -20.508 107.876 -23.838 Q117.229 -27.167 125.049 -27.167 Q132.87 -27.167 142.384 -23.809 Q151.898 -20.452 151.898 -10.559 V-6.044 H98.524 Z M125.077 -35.069 Q119.002 -35.069 114.81 -39.421 Q110.618 -43.773 110.618 -49.848 Q110.618 -55.923 114.876 -60.25 Q119.135 -64.577 125.116 -64.577 Q131.096 -64.577 135.45 -60.225 Q139.804 -55.873 139.804 -49.798 Q139.804 -43.724 135.478 -39.396 Q131.152 -35.069 125.077 -35.069 Z"/></g><g id="Semibold-L" transform="matrix(1 0 0 1 1970.27 1556)"><path d="M4.115 -7.446 V-11.33 Q4.115 -20.942 13.373 -24.125 Q22.631 -27.308 30.136 -27.308 Q37.641 -27.308 46.934 -24.141 Q56.227 -20.974 56.227 -11.33 V-7.446 H4.115 Z M30.061 -35.559 Q24.314 -35.559 20.332 -39.652 Q16.349 -43.745 16.349 -49.472 Q16.349 -55.199 20.389 -59.292 Q24.43 -63.386 30.103 -63.386 Q35.777 -63.386 39.885 -59.278 Q43.993 -55.17 43.993 -49.423 Q43.993 -43.676 39.901 -39.618 Q35.808 -35.559 30.061 -35.559 Z M63.059 -25.113 Q60.937 -25.113 59.556 -26.392 Q58.176 -27.67 58.176 -29.752 Q58.176 -30.793 59.607 -33.493 Q60.805 -35.048 61.566 -37.023 Q62.327 -38.998 62.327 -41.068 Q62.327 -43.138 61.579 -45.259 Q60.831 -47.379 59.597 -49.006 Q58.965 -49.656 58.57 -50.515 Q58.176 -51.375 58.176 -52.362 Q58.176 -54.501 59.596 -55.89 Q61.016 -57.279 62.985 -57.279 Q63.935 -57.279 64.859 -56.957 Q65.783 -56.634 66.428 -56.101 Q69.401 -52.827 70.876 -49.057 Q72.352 -45.287 72.352 -41.236 Q72.352 -37.326 70.733 -33.109 Q69.114 -28.892 66.155 -26.018 Q65.348 -25.303 64.689 -25.208 Q64.03 -25.113 63.059 -25.113 Z M77.109 -11.127 Q75.031 -11.127 73.632 -12.548 Q72.233 -13.97 72.233 -15.974 Q72.233 -17.034 72.536 -17.833 Q72.839 -18.632 73.688 -19.463 Q77.905 -24.104 80.036 -29.722 Q82.167 -35.34 82.167 -41.079 Q82.167 -46.819 80.071 -52.578 Q77.975 -58.338 73.73 -62.947 Q73 -63.772 72.662 -64.614 Q72.324 -65.456 72.324 -66.546 Q72.324 -68.578 73.744 -69.992 Q75.164 -71.406 77.136 -71.406 Q78.08 -71.406 78.921 -70.851 Q79.761 -70.295 80.615 -69.562 Q86.328 -63.437 89.053 -56.115 Q91.779 -48.793 91.779 -41.16 Q91.779 -33.526 88.978 -26.19 Q86.178 -18.853 80.713 -12.718 Q79.931 -12.003 79.039 -11.565 Q78.148 -11.127 77.109 -11.127 Z M98.734 -7.446 V-11.33 Q98.734 -20.974 107.946 -24.141 Q117.159 -27.308 124.664 -27.308 Q132.169 -27.308 141.508 -24.125 Q150.846 -20.942 150.846 -11.33 V-7.446 H98.734 Z M124.679 -35.559 Q118.932 -35.559 114.95 -39.652 Q110.968 -43.745 110.968 -49.472 Q110.968 -55.199 115.008 -59.292 Q119.048 -63.386 124.722 -63.386 Q130.395 -63.386 134.504 -59.278 Q138.612 -55.17 138.612 -49.423 Q138.612 -43.676 134.519 -39.618 Q130.427 -35.559 124.679 -35.559 Z"/></g><g id="Medium-L" transform="matrix(1 0 0 1 1674.31 1556)"><path d="M4.904 -8.497 V-11.908 Q4.904 -21.31 14.031 -24.362 Q23.157 -27.413 30.425 -27.413 Q37.694 -27.413 46.882 -24.368 Q56.069 -21.324 56.069 -11.908 V-8.497 H4.904 Z M30.394 -35.928 Q24.892 -35.928 21.068 -39.826 Q17.243 -43.724 17.243 -49.19 Q17.243 -54.656 21.119 -58.574 Q24.996 -62.492 30.439 -62.492 Q35.882 -62.492 39.806 -58.568 Q43.73 -54.644 43.73 -49.142 Q43.73 -43.641 39.813 -39.784 Q35.895 -35.928 30.394 -35.928 Z M62.547 -24.903 Q60.358 -24.903 58.952 -26.258 Q57.545 -27.613 57.545 -29.692 Q57.545 -30.731 58.983 -33.472 Q60.332 -35.153 61.119 -37.128 Q61.906 -39.104 61.906 -41.121 Q61.906 -43.138 61.125 -45.243 Q60.343 -47.347 58.984 -49.059 Q58.334 -49.719 57.939 -50.609 Q57.545 -51.499 57.545 -52.491 Q57.545 -54.64 58.992 -56.064 Q60.44 -57.489 62.459 -57.489 Q63.517 -57.489 64.466 -57.167 Q65.415 -56.844 66.06 -56.154 Q69.085 -52.722 70.64 -48.959 Q72.194 -45.196 72.194 -41.211 Q72.194 -37.326 70.533 -33.263 Q68.871 -29.199 65.944 -26.123 Q65.138 -25.355 64.386 -25.129 Q63.633 -24.903 62.547 -24.903 Z M76.842 -10.706 Q74.738 -10.706 73.302 -12.152 Q71.865 -13.599 71.865 -15.641 Q71.865 -16.718 72.22 -17.623 Q72.576 -18.527 73.44 -19.321 Q77.8 -24.104 79.957 -29.696 Q82.115 -35.287 82.115 -41.106 Q82.115 -46.924 80.019 -52.71 Q77.922 -58.496 73.55 -63.158 Q72.737 -63.982 72.32 -64.91 Q71.903 -65.837 71.903 -66.984 Q71.903 -69.053 73.361 -70.492 Q74.819 -71.932 76.849 -71.932 Q77.892 -71.932 78.791 -71.35 Q79.69 -70.768 80.528 -70.035 Q86.387 -63.537 89.214 -56.218 Q92.042 -48.899 92.042 -41.239 Q92.042 -33.579 89.136 -26.242 Q86.23 -18.905 80.569 -12.403 Q79.773 -11.635 78.857 -11.171 Q77.941 -10.706 76.842 -10.706 Z M98.892 -8.497 V-11.908 Q98.892 -21.324 107.999 -24.368 Q117.106 -27.413 124.375 -27.413 Q131.643 -27.413 140.85 -24.362 Q150.057 -21.31 150.057 -11.908 V-8.497 H98.892 Z M124.381 -35.928 Q118.88 -35.928 115.055 -39.826 Q111.231 -43.724 111.231 -49.19 Q111.231 -54.656 115.107 -58.574 Q118.983 -62.492 124.426 -62.492 Q129.869 -62.492 133.794 -58.568 Q137.718 -54.644 137.718 -49.142 Q137.718 -43.641 133.8 -39.784 Q129.883 -35.928 124.381 -35.928 Z"/></g><g id="Regular-L" transform="matrix(1 0 0 1 1378.56 1556)"><path d="M5.482 -9.269 V-12.332 Q5.482 -21.58 14.513 -24.535 Q23.543 -27.49 30.637 -27.49 Q37.733 -27.49 46.843 -24.535 Q55.954 -21.58 55.954 -12.332 V-9.269 H5.482 Z M30.637 -36.197 Q25.316 -36.197 21.608 -39.953 Q17.899 -43.709 17.899 -48.983 Q17.899 -54.257 21.655 -58.047 Q25.41 -61.836 30.685 -61.836 Q35.959 -61.836 39.748 -58.047 Q43.538 -54.257 43.538 -48.936 Q43.538 -43.615 39.748 -39.906 Q35.959 -36.197 30.637 -36.197 Z M62.172 -24.749 Q59.934 -24.749 58.508 -26.16 Q57.083 -27.571 57.083 -29.647 Q57.083 -30.686 58.524 -33.456 Q59.985 -35.23 60.791 -37.205 Q61.598 -39.181 61.598 -41.159 Q61.598 -43.138 60.791 -45.231 Q59.985 -47.324 58.534 -49.097 Q57.871 -49.766 57.477 -50.678 Q57.083 -51.59 57.083 -52.585 Q57.083 -54.741 58.55 -56.192 Q60.017 -57.644 62.074 -57.644 Q63.21 -57.644 64.177 -57.321 Q65.145 -56.999 65.79 -56.192 Q68.854 -52.645 70.466 -48.887 Q72.079 -45.129 72.079 -41.193 Q72.079 -37.326 70.386 -33.376 Q68.692 -29.425 65.79 -26.2 Q64.984 -25.394 64.163 -25.071 Q63.342 -24.749 62.172 -24.749 Z M76.647 -10.397 Q74.523 -10.397 73.059 -11.862 Q71.595 -13.327 71.595 -15.396 Q71.595 -16.487 71.989 -17.468 Q72.383 -18.45 73.257 -19.217 Q77.722 -24.104 79.899 -29.676 Q82.076 -35.249 82.076 -41.125 Q82.076 -47.001 79.98 -52.806 Q77.884 -58.611 73.419 -63.312 Q72.545 -64.136 72.07 -65.126 Q71.595 -66.116 71.595 -67.305 Q71.595 -69.401 73.081 -70.859 Q74.566 -72.317 76.638 -72.317 Q77.754 -72.317 78.696 -71.717 Q79.638 -71.115 80.464 -70.382 Q86.43 -63.61 89.332 -56.293 Q92.235 -48.976 92.235 -41.297 Q92.235 -33.617 89.252 -26.281 Q86.269 -18.944 80.464 -12.171 Q79.657 -11.365 78.724 -10.881 Q77.79 -10.397 76.647 -10.397 Z M99.008 -9.269 V-12.332 Q99.008 -21.58 108.038 -24.535 Q117.068 -27.49 124.163 -27.49 Q131.257 -27.49 140.368 -24.535 Q149.479 -21.58 149.479 -12.332 V-9.269 H99.008 Z M124.163 -36.197 Q118.841 -36.197 115.133 -39.953 Q111.424 -43.709 111.424 -48.983 Q111.424 -54.257 115.18 -58.047 Q118.935 -61.836 124.21 -61.836 Q129.484 -61.836 133.273 -58.047 Q137.062 -54.257 137.062 -48.936 Q137.062 -43.615 133.273 -39.906 Q129.484 -36.197 124.163 -36.197 Z"/></g><g id="Light-L" transform="matrix(1 0 0 1 1082.77 1556)"><path d="M7.095 -10.447 V-12.643 Q7.095 -20.96 15.939 -23.636 Q24.783 -26.312 31.072 -26.312 Q37.36 -26.312 46.285 -23.636 Q55.209 -20.96 55.209 -12.643 V-10.447 H7.095 Z M31.061 -37.624 Q26.288 -37.624 23.024 -40.935 Q19.759 -44.247 19.759 -48.973 Q19.759 -53.699 23.071 -57.086 Q26.382 -60.472 31.108 -60.472 Q35.835 -60.472 39.221 -57.086 Q42.607 -53.699 42.607 -48.926 Q42.607 -44.152 39.221 -40.888 Q35.835 -37.624 31.061 -37.624 Z M62.867 -25.741 Q60.951 -25.741 59.73 -26.947 Q58.509 -28.154 58.509 -29.833 Q58.509 -30.801 59.765 -33.146 Q61.101 -34.858 61.784 -36.988 Q62.466 -39.119 62.466 -41.224 Q62.466 -43.329 61.753 -45.544 Q61.039 -47.758 59.712 -49.532 Q59.132 -50.067 58.789 -50.833 Q58.447 -51.599 58.447 -52.434 Q58.447 -54.245 59.705 -55.479 Q60.962 -56.713 62.722 -56.713 Q63.675 -56.713 64.503 -56.391 Q65.331 -56.068 65.914 -55.324 Q68.482 -51.963 69.908 -48.454 Q71.334 -44.945 71.334 -41.269 Q71.334 -37.624 69.889 -33.896 Q68.444 -30.169 65.976 -27.192 Q65.273 -26.386 64.587 -26.064 Q63.9 -25.741 62.867 -25.741 Z M77.329 -11.452 Q75.543 -11.452 74.314 -12.709 Q73.083 -13.965 73.083 -15.717 Q73.083 -16.633 73.423 -17.443 Q73.762 -18.252 74.498 -18.907 Q78.839 -23.794 80.954 -29.521 Q83.069 -35.249 83.069 -41.249 Q83.069 -47.249 81.034 -53.178 Q79 -59.107 74.659 -63.808 Q73.923 -64.53 73.503 -65.356 Q73.083 -66.182 73.083 -67.223 Q73.083 -69.002 74.345 -70.225 Q75.607 -71.449 77.336 -71.449 Q78.292 -71.449 79.09 -70.91 Q79.887 -70.371 80.588 -69.824 Q86.206 -63.24 88.91 -56.108 Q91.615 -48.976 91.615 -41.459 Q91.615 -33.942 88.818 -26.784 Q86.021 -19.626 80.588 -13.04 Q79.906 -12.357 79.105 -11.905 Q78.303 -11.452 77.329 -11.452 Z M99.752 -10.447 V-12.643 Q99.752 -20.96 108.596 -23.636 Q117.44 -26.312 123.728 -26.312 Q130.017 -26.312 138.942 -23.636 Q147.866 -20.96 147.866 -12.643 V-10.447 H99.752 Z M123.718 -37.624 Q118.944 -37.624 115.68 -40.935 Q112.416 -44.247 112.416 -48.973 Q112.416 -53.699 115.727 -57.086 Q119.039 -60.472 123.765 -60.472 Q128.491 -60.472 131.878 -57.086 Q135.264 -53.699 135.264 -48.926 Q135.264 -44.152 131.878 -40.888 Q128.491 -37.624 123.718 -37.624 Z"/></g><g id="Thin-L" transform="matrix(1 0 0 1 787.282 1556)"><path d="M8.707 -11.625 V-12.953 Q8.707 -20.34 17.365 -22.737 Q26.023 -25.133 31.506 -25.133 Q36.988 -25.133 45.727 -22.737 Q54.465 -20.34 54.465 -12.953 V-11.625 H8.707 Z M31.485 -39.05 Q27.259 -39.05 24.44 -41.917 Q21.62 -44.784 21.62 -48.963 Q21.62 -53.141 24.487 -56.124 Q27.353 -59.107 31.532 -59.107 Q35.711 -59.107 38.694 -56.124 Q41.677 -53.141 41.677 -48.915 Q41.677 -44.69 38.694 -41.87 Q35.711 -39.05 31.485 -39.05 Z M63.562 -26.733 Q61.968 -26.733 60.952 -27.735 Q59.935 -28.737 59.935 -30.019 Q59.935 -30.916 61.005 -32.836 Q62.218 -34.486 62.776 -36.771 Q63.334 -39.057 63.334 -41.289 Q63.334 -43.521 62.714 -45.856 Q62.094 -48.192 60.89 -49.966 Q60.393 -50.368 60.102 -50.988 Q59.811 -51.608 59.811 -52.284 Q59.811 -53.749 60.859 -54.766 Q61.907 -55.783 63.369 -55.783 Q64.14 -55.783 64.829 -55.461 Q65.517 -55.138 66.038 -54.456 Q68.11 -51.281 69.35 -48.021 Q70.59 -44.761 70.59 -41.345 Q70.59 -37.921 69.393 -34.417 Q68.196 -30.913 66.162 -28.185 Q65.563 -27.378 65.01 -27.056 Q64.458 -26.733 63.562 -26.733 Z M78.011 -12.506 Q76.564 -12.506 75.568 -13.555 Q74.572 -14.604 74.572 -16.037 Q74.572 -16.779 74.856 -17.417 Q75.14 -18.055 75.738 -18.597 Q79.955 -23.484 82.008 -29.366 Q84.061 -35.249 84.061 -41.373 Q84.061 -47.497 82.089 -53.55 Q80.116 -59.604 75.9 -64.304 Q75.301 -64.925 74.936 -65.586 Q74.572 -66.248 74.572 -67.142 Q74.572 -68.603 75.609 -69.592 Q76.647 -70.581 78.033 -70.581 Q78.831 -70.581 79.483 -70.104 Q80.135 -69.627 80.712 -69.266 Q85.982 -62.87 88.488 -55.923 Q90.995 -48.976 90.995 -41.621 Q90.995 -34.267 88.384 -27.287 Q85.773 -20.308 80.712 -13.908 Q80.154 -13.35 79.485 -12.928 Q78.817 -12.506 78.011 -12.506 Z M100.496 -11.625 V-12.953 Q100.496 -20.34 109.154 -22.737 Q117.812 -25.133 123.294 -25.133 Q128.777 -25.133 137.515 -22.737 Q146.254 -20.34 146.254 -12.953 V-11.625 H100.496 Z M123.273 -39.05 Q119.048 -39.05 116.228 -41.917 Q113.408 -44.784 113.408 -48.963 Q113.408 -53.141 116.275 -56.124 Q119.142 -59.107 123.32 -59.107 Q127.499 -59.107 130.482 -56.124 Q133.465 -53.141 133.465 -48.915 Q133.465 -44.69 130.482 -41.87 Q127.499 -39.05 123.273 -39.05 Z"/></g><g id="Ultralight-L" transform="matrix(1 0 0 1 491.205 1556)"><path d="M9.675 -12.332 V-13.139 Q9.675 -19.968 18.221 -22.197 Q26.768 -24.426 31.766 -24.426 Q36.765 -24.426 45.392 -22.197 Q54.019 -19.968 54.019 -13.139 V-12.332 H9.675 Z M31.739 -39.906 Q27.842 -39.906 25.289 -42.506 Q22.736 -45.106 22.736 -48.956 Q22.736 -52.806 25.336 -55.547 Q27.936 -58.289 31.786 -58.289 Q35.636 -58.289 38.377 -55.547 Q41.119 -52.806 41.119 -48.909 Q41.119 -45.012 38.377 -42.459 Q35.636 -39.906 31.739 -39.906 Z M63.978 -27.329 Q62.579 -27.329 61.685 -28.208 Q60.791 -29.086 60.791 -30.131 Q60.791 -30.985 61.749 -32.65 Q62.888 -34.262 63.371 -36.641 Q63.855 -39.019 63.855 -41.328 Q63.855 -43.636 63.291 -46.044 Q62.726 -48.452 61.598 -50.226 Q61.15 -50.549 60.89 -51.081 Q60.63 -51.613 60.63 -52.194 Q60.63 -53.451 61.552 -54.338 Q62.474 -55.225 63.758 -55.225 Q64.419 -55.225 65.024 -54.902 Q65.629 -54.58 66.112 -53.935 Q67.886 -50.871 69.015 -47.761 Q70.144 -44.65 70.144 -41.391 Q70.144 -38.099 69.096 -34.73 Q68.047 -31.36 66.274 -28.78 Q65.736 -27.974 65.265 -27.651 Q64.793 -27.329 63.978 -27.329 Z M78.42 -13.139 Q77.176 -13.139 76.32 -14.063 Q75.465 -14.987 75.465 -16.229 Q75.465 -16.867 75.716 -17.401 Q75.967 -17.936 76.482 -18.411 Q80.625 -23.297 82.641 -29.273 Q84.656 -35.249 84.656 -41.447 Q84.656 -47.646 82.721 -53.774 Q80.786 -59.901 76.644 -64.602 Q76.128 -65.161 75.797 -65.724 Q75.465 -66.287 75.465 -67.094 Q75.465 -68.364 76.368 -69.212 Q77.271 -70.06 78.451 -70.06 Q79.154 -70.06 79.719 -69.62 Q80.283 -69.18 80.786 -68.931 Q85.847 -62.648 88.235 -55.812 Q90.623 -48.976 90.623 -41.718 Q90.623 -34.461 88.123 -27.589 Q85.624 -20.717 80.786 -14.429 Q80.303 -13.945 79.714 -13.542 Q79.125 -13.139 78.42 -13.139 Z M100.943 -12.332 V-13.139 Q100.943 -19.968 109.489 -22.197 Q118.035 -24.426 123.034 -24.426 Q128.032 -24.426 136.659 -22.197 Q145.286 -19.968 145.286 -13.139 V-12.332 H100.943 Z M123.007 -39.906 Q119.11 -39.906 116.557 -42.506 Q114.004 -45.106 114.004 -48.956 Q114.004 -52.806 116.604 -55.547 Q119.204 -58.289 123.054 -58.289 Q126.904 -58.289 129.645 -55.547 Q132.386 -52.806 132.386 -48.909 Q132.386 -45.012 129.645 -42.459 Q126.904 -39.906 123.007 -39.906 Z"/></g><g id="Bold-M" transform="matrix(1 0 0 1 2281.8 1126)"><path d="M0.5 -8.355 V-14.73 Q0.5 -23.855 8.562 -27.105 Q16.625 -30.355 24.062 -30.355 Q31.5 -30.355 39.5 -27.167 Q47.5 -23.98 47.5 -14.73 V-8.355 H0.5 Z M23.976 -34.23 Q18.5 -34.23 14.625 -38.176 Q10.75 -42.122 10.75 -47.634 Q10.75 -53.146 14.649 -57 Q18.549 -60.855 24.024 -60.855 Q29.5 -60.855 33.375 -56.956 Q37.25 -53.056 37.25 -47.581 Q37.25 -42.105 33.351 -38.167 Q29.451 -34.23 23.976 -34.23 Z M45.852 -25.355 Q43.625 -25.355 42.125 -26.824 Q40.625 -28.292 40.625 -30.501 Q40.625 -31.605 42.11 -34.405 Q43.125 -35.605 43.5 -37.105 Q43.875 -38.605 43.875 -40.105 Q43.875 -41.605 43.518 -43.08 Q43.161 -44.556 42.125 -45.855 Q41.5 -46.704 41 -47.639 Q40.5 -48.573 40.5 -49.66 Q40.5 -52.015 42.027 -53.497 Q43.554 -54.98 45.744 -54.98 Q46.964 -54.98 48.17 -54.355 Q49.375 -53.73 50.125 -52.855 Q52.25 -50.105 53.375 -46.931 Q54.5 -43.757 54.5 -40.292 Q54.5 -36.98 53.289 -33.239 Q52.079 -29.499 49.625 -26.855 Q48.875 -26.105 47.939 -25.73 Q47.004 -25.355 45.852 -25.355 Z M60.927 -10.23 Q58.75 -10.23 57.188 -11.792 Q55.625 -13.355 55.625 -15.48 Q55.625 -16.671 56.062 -17.638 Q56.5 -18.605 57.34 -19.317 Q61.25 -22.98 63.188 -28.542 Q65.125 -34.105 65.125 -40.105 Q65.125 -46.105 63.188 -51.667 Q61.25 -57.23 57.319 -60.855 Q56.625 -61.605 56.125 -62.621 Q55.625 -63.636 55.625 -64.855 Q55.625 -67.109 57.184 -68.669 Q58.742 -70.23 60.971 -70.23 Q62.01 -70.23 62.917 -69.792 Q63.823 -69.355 64.625 -68.605 Q70.11 -63.493 72.805 -55.924 Q75.5 -48.355 75.5 -40.167 Q75.5 -31.98 72.812 -24.355 Q70.125 -16.73 64.625 -11.605 Q63.875 -10.98 62.933 -10.605 Q61.991 -10.23 60.927 -10.23 Z M72.5 -8.355 V-14.73 Q72.5 -23.98 80.5 -27.167 Q88.5 -30.355 95.938 -30.355 Q103.375 -30.355 111.438 -27.105 Q119.5 -23.855 119.5 -14.73 V-8.355 H72.5 Z M95.976 -34.23 Q90.5 -34.23 86.625 -38.176 Q82.75 -42.122 82.75 -47.634 Q82.75 -53.146 86.649 -57 Q90.549 -60.855 96.024 -60.855 Q101.5 -60.855 105.375 -56.956 Q109.25 -53.056 109.25 -47.581 Q109.25 -42.105 105.351 -38.167 Q101.451 -34.23 95.976 -34.23 Z"/></g><g id="Semibold-M" transform="matrix(1 0 0 1 1985.97 1126)"><path d="M1.75 -10.094 V-15.654 Q1.75 -24.398 9.595 -27.431 Q17.44 -30.464 24.47 -30.464 Q31.5 -30.464 39.31 -27.466 Q47.12 -24.469 47.12 -15.654 V-10.094 H1.75 Z M24.41 -34.719 Q19.315 -34.719 15.712 -38.373 Q12.109 -42.028 12.109 -47.143 Q12.109 -52.259 15.737 -55.85 Q19.365 -59.442 24.46 -59.442 Q29.554 -59.442 33.158 -55.814 Q36.761 -52.186 36.761 -47.091 Q36.761 -41.996 33.133 -38.358 Q29.505 -34.719 24.41 -34.719 Z M45.432 -25.355 Q43.245 -25.355 41.717 -26.864 Q40.19 -28.374 40.19 -30.528 Q40.19 -31.605 41.682 -34.383 Q42.799 -35.714 43.228 -37.214 Q43.658 -38.714 43.658 -40.159 Q43.658 -41.605 43.238 -43.064 Q42.819 -44.523 41.69 -45.909 Q41.065 -46.77 40.565 -47.716 Q40.065 -48.663 40.065 -49.734 Q40.065 -52.054 41.608 -53.544 Q43.15 -55.034 45.364 -55.034 Q46.654 -55.034 47.851 -54.382 Q49.049 -53.73 49.799 -52.746 Q51.978 -49.833 53.158 -46.72 Q54.337 -43.606 54.337 -40.265 Q54.337 -37.034 53.109 -33.561 Q51.882 -30.088 49.516 -27.235 Q48.766 -26.377 47.734 -25.866 Q46.702 -25.355 45.432 -25.355 Z M60.464 -10.284 Q58.315 -10.284 56.753 -11.847 Q55.19 -13.409 55.19 -15.534 Q55.19 -16.725 55.655 -17.747 Q56.12 -18.768 56.975 -19.497 Q60.978 -23.252 62.943 -28.733 Q64.908 -34.214 64.908 -40.132 Q64.908 -46.051 62.97 -51.586 Q61.033 -57.121 57.017 -60.801 Q56.245 -61.551 55.69 -62.6 Q55.136 -63.65 55.136 -64.909 Q55.136 -67.163 56.696 -68.724 Q58.257 -70.284 60.488 -70.284 Q61.598 -70.284 62.559 -69.82 Q63.52 -69.355 64.299 -68.605 Q69.899 -63.107 72.645 -55.677 Q75.391 -48.246 75.391 -40.249 Q75.391 -32.252 72.622 -24.763 Q69.853 -17.273 64.245 -11.768 Q63.495 -11.089 62.527 -10.686 Q61.56 -10.284 60.464 -10.284 Z M72.88 -10.094 V-15.654 Q72.88 -24.469 80.69 -27.466 Q88.5 -30.464 95.53 -30.464 Q102.56 -30.464 110.405 -27.431 Q118.25 -24.398 118.25 -15.654 V-10.094 H72.88 Z M95.54 -34.719 Q90.446 -34.719 86.842 -38.373 Q83.239 -42.028 83.239 -47.143 Q83.239 -52.259 86.867 -55.85 Q90.495 -59.442 95.59 -59.442 Q100.685 -59.442 104.288 -55.814 Q107.891 -52.186 107.891 -47.091 Q107.891 -41.996 104.263 -38.358 Q100.635 -34.719 95.54 -34.719 Z"/></g><g id="Medium-M" transform="matrix(1 0 0 1 1689.91 1126)"><path d="M2.688 -11.398 V-16.347 Q2.688 -24.806 10.37 -27.676 Q18.052 -30.545 24.776 -30.545 Q31.5 -30.545 39.167 -27.691 Q46.834 -24.836 46.834 -16.347 V-11.398 H2.688 Z M24.736 -35.086 Q19.927 -35.086 16.527 -38.522 Q13.128 -41.957 13.128 -46.775 Q13.128 -51.593 16.552 -54.988 Q19.977 -58.382 24.786 -58.382 Q29.595 -58.382 32.995 -54.957 Q36.394 -51.533 36.394 -46.724 Q36.394 -41.915 32.969 -38.5 Q29.545 -35.086 24.736 -35.086 Z M45.117 -25.355 Q42.959 -25.355 41.412 -26.895 Q39.864 -28.435 39.864 -30.548 Q39.864 -31.605 41.361 -34.367 Q42.554 -35.795 43.025 -37.295 Q43.495 -38.795 43.495 -40.2 Q43.495 -41.605 43.029 -43.052 Q42.563 -44.498 41.364 -45.95 Q40.739 -46.819 40.239 -47.775 Q39.739 -48.73 39.739 -49.789 Q39.739 -52.083 41.293 -53.579 Q42.847 -55.075 45.078 -55.075 Q46.421 -55.075 47.613 -54.402 Q48.804 -53.73 49.554 -52.665 Q51.775 -49.629 52.995 -46.561 Q54.215 -43.493 54.215 -40.245 Q54.215 -37.075 52.974 -33.803 Q51.733 -30.531 49.435 -27.521 Q48.685 -26.58 47.581 -25.968 Q46.476 -25.355 45.117 -25.355 Z M60.117 -10.325 Q57.989 -10.325 56.427 -11.888 Q54.864 -13.45 54.864 -15.575 Q54.864 -16.766 55.349 -17.828 Q55.834 -18.89 56.701 -19.631 Q60.775 -23.455 62.76 -28.875 Q64.745 -34.295 64.745 -40.152 Q64.745 -46.01 62.807 -51.525 Q60.87 -57.04 56.791 -60.76 Q55.959 -61.51 55.364 -62.585 Q54.769 -63.66 54.769 -64.95 Q54.769 -67.204 56.331 -68.765 Q57.892 -70.325 60.125 -70.325 Q61.289 -70.325 62.291 -69.84 Q63.292 -69.355 64.054 -68.605 Q69.741 -62.817 72.525 -55.491 Q75.31 -48.165 75.31 -40.31 Q75.31 -32.455 72.48 -25.068 Q69.65 -17.681 63.959 -11.89 Q63.209 -11.17 62.223 -10.748 Q61.237 -10.325 60.117 -10.325 Z M73.166 -11.398 V-16.347 Q73.166 -24.836 80.833 -27.691 Q88.5 -30.545 95.224 -30.545 Q101.948 -30.545 109.63 -27.676 Q117.312 -24.806 117.312 -16.347 V-11.398 H73.166 Z M95.214 -35.086 Q90.405 -35.086 87.005 -38.522 Q83.606 -41.957 83.606 -46.775 Q83.606 -51.593 87.031 -54.988 Q90.455 -58.382 95.264 -58.382 Q100.073 -58.382 103.473 -54.957 Q106.872 -51.533 106.872 -46.724 Q106.872 -41.915 103.448 -38.5 Q100.023 -35.086 95.214 -35.086 Z"/></g><g id="Regular-M" transform="matrix(1 0 0 1 1394.06 1126)"><path d="M3.375 -12.355 V-16.855 Q3.375 -25.105 10.938 -27.855 Q18.5 -30.605 25 -30.605 Q31.5 -30.605 39.062 -27.855 Q46.625 -25.105 46.625 -16.855 V-12.355 H3.375 Z M24.974 -35.355 Q20.375 -35.355 17.125 -38.63 Q13.875 -41.906 13.875 -46.505 Q13.875 -51.105 17.151 -54.355 Q20.426 -57.605 25.026 -57.605 Q29.625 -57.605 32.875 -54.329 Q36.125 -51.054 36.125 -46.454 Q36.125 -41.855 32.849 -38.605 Q29.574 -35.355 24.974 -35.355 Z M44.886 -25.355 Q42.75 -25.355 41.188 -26.917 Q39.625 -28.48 39.625 -30.563 Q39.625 -31.605 41.125 -34.355 Q42.375 -35.855 42.875 -37.355 Q43.375 -38.855 43.375 -40.23 Q43.375 -41.605 42.875 -43.042 Q42.375 -44.48 41.125 -45.98 Q40.5 -46.855 40 -47.817 Q39.5 -48.78 39.5 -49.83 Q39.5 -52.105 41.062 -53.605 Q42.625 -55.105 44.869 -55.105 Q46.25 -55.105 47.438 -54.417 Q48.625 -53.73 49.375 -52.605 Q51.625 -49.48 52.875 -46.445 Q54.125 -43.41 54.125 -40.23 Q54.125 -37.105 52.875 -33.98 Q51.625 -30.855 49.375 -27.73 Q48.625 -26.73 47.468 -26.042 Q46.311 -25.355 44.886 -25.355 Z M59.862 -10.355 Q57.75 -10.355 56.188 -11.917 Q54.625 -13.48 54.625 -15.605 Q54.625 -16.796 55.125 -17.888 Q55.625 -18.98 56.5 -19.73 Q60.625 -23.605 62.625 -28.98 Q64.625 -34.355 64.625 -40.167 Q64.625 -45.98 62.688 -51.48 Q60.75 -56.98 56.625 -60.73 Q55.75 -61.48 55.125 -62.574 Q54.5 -63.667 54.5 -64.98 Q54.5 -67.234 56.062 -68.794 Q57.625 -70.355 59.859 -70.355 Q61.062 -70.355 62.094 -69.855 Q63.125 -69.355 63.875 -68.605 Q69.625 -62.605 72.438 -55.355 Q75.25 -48.105 75.25 -40.355 Q75.25 -32.605 72.375 -25.292 Q69.5 -17.98 63.75 -11.98 Q63 -11.23 62 -10.792 Q61 -10.355 59.862 -10.355 Z M73.375 -12.355 V-16.855 Q73.375 -25.105 80.938 -27.855 Q88.5 -30.605 95 -30.605 Q101.5 -30.605 109.062 -27.855 Q116.625 -25.105 116.625 -16.855 V-12.355 H73.375 Z M94.975 -35.355 Q90.375 -35.355 87.125 -38.63 Q83.875 -41.906 83.875 -46.505 Q83.875 -51.105 87.15 -54.355 Q90.426 -57.605 95.025 -57.605 Q99.625 -57.605 102.875 -54.329 Q106.125 -51.054 106.125 -46.454 Q106.125 -41.855 102.85 -38.605 Q99.574 -35.355 94.975 -35.355 Z"/></g><g id="Light-M" transform="matrix(1 0 0 1 1098.18 1126)"><path d="M4.625 -13.605 V-17.095 Q4.625 -24.48 11.971 -26.917 Q19.317 -29.355 25 -29.355 Q30.683 -29.355 38.029 -26.917 Q45.375 -24.48 45.375 -17.095 V-13.605 H4.625 Z M24.974 -36.605 Q20.856 -36.605 17.991 -39.496 Q15.125 -42.387 15.125 -46.505 Q15.125 -50.624 18.016 -53.489 Q20.907 -56.355 25.026 -56.355 Q29.144 -56.355 32.01 -53.464 Q34.875 -50.573 34.875 -46.454 Q34.875 -42.336 31.984 -39.47 Q29.093 -36.605 24.974 -36.605 Z M45.8 -26.22 Q43.971 -26.22 42.639 -27.552 Q41.308 -28.884 41.308 -30.659 Q41.308 -31.605 42.567 -33.922 Q43.769 -35.47 44.221 -37.066 Q44.673 -38.663 44.673 -40.173 Q44.673 -41.683 44.197 -43.25 Q43.721 -44.817 42.519 -46.317 Q42.001 -47.061 41.568 -47.88 Q41.135 -48.699 41.135 -49.592 Q41.135 -51.528 42.481 -52.812 Q43.827 -54.095 45.758 -54.095 Q46.947 -54.095 47.978 -53.504 Q49.01 -52.913 49.615 -51.884 Q51.625 -48.951 52.755 -46.074 Q53.885 -43.196 53.885 -40.182 Q53.885 -37.191 52.779 -34.191 Q51.673 -31.192 49.663 -28.307 Q49.047 -27.422 48.063 -26.821 Q47.08 -26.22 45.8 -26.22 Z M60.343 -11.749 Q58.574 -11.749 57.248 -13.096 Q55.923 -14.443 55.923 -16.238 Q55.923 -17.277 56.356 -18.22 Q56.79 -19.163 57.558 -19.778 Q61.587 -23.701 63.49 -29.028 Q65.394 -34.355 65.394 -40.167 Q65.394 -45.98 63.553 -51.456 Q61.712 -56.932 57.683 -60.682 Q56.915 -61.305 56.356 -62.271 Q55.798 -63.238 55.798 -64.397 Q55.798 -66.32 57.143 -67.641 Q58.487 -68.961 60.388 -68.961 Q61.432 -68.961 62.327 -68.533 Q63.221 -68.105 63.827 -67.451 Q69.211 -61.693 71.846 -54.731 Q74.481 -47.768 74.481 -40.361 Q74.481 -32.953 71.798 -25.971 Q69.115 -18.99 63.702 -13.182 Q63.096 -12.528 62.214 -12.139 Q61.331 -11.749 60.343 -11.749 Z M74.625 -13.605 V-17.095 Q74.625 -24.48 81.971 -26.917 Q89.317 -29.355 95 -29.355 Q100.683 -29.355 108.029 -26.917 Q115.375 -24.48 115.375 -17.095 V-13.605 H74.625 Z M94.975 -36.605 Q90.856 -36.605 87.99 -39.496 Q85.125 -42.387 85.125 -46.505 Q85.125 -50.624 88.016 -53.489 Q90.907 -56.355 95.025 -56.355 Q99.144 -56.355 102.01 -53.464 Q104.875 -50.573 104.875 -46.454 Q104.875 -42.336 101.984 -39.47 Q99.093 -36.605 94.975 -36.605 Z"/></g><g id="Thin-M" transform="matrix(1 0 0 1 802.565 1126)"><path d="M5.875 -14.855 V-17.336 Q5.875 -23.855 13.005 -25.98 Q20.135 -28.105 25 -28.105 Q29.865 -28.105 36.995 -25.98 Q44.125 -23.855 44.125 -17.336 V-14.855 H5.875 Z M24.974 -37.855 Q21.337 -37.855 18.856 -40.361 Q16.375 -42.867 16.375 -46.505 Q16.375 -50.143 18.881 -52.624 Q21.387 -55.105 25.026 -55.105 Q28.663 -55.105 31.144 -52.599 Q33.625 -50.093 33.625 -46.454 Q33.625 -42.816 31.119 -40.336 Q28.613 -37.855 24.974 -37.855 Z M46.713 -27.086 Q45.192 -27.086 44.091 -28.187 Q42.99 -29.288 42.99 -30.756 Q42.99 -31.605 44.01 -33.49 Q45.163 -35.086 45.567 -36.778 Q45.971 -38.47 45.971 -40.115 Q45.971 -41.76 45.519 -43.457 Q45.067 -45.153 43.913 -46.653 Q43.502 -47.267 43.136 -47.942 Q42.769 -48.618 42.769 -49.355 Q42.769 -50.951 43.899 -52.018 Q45.029 -53.086 46.648 -53.086 Q47.644 -53.086 48.519 -52.591 Q49.394 -52.095 49.856 -51.163 Q51.625 -48.422 52.635 -45.703 Q53.644 -42.983 53.644 -40.134 Q53.644 -37.277 52.683 -34.403 Q51.721 -31.528 49.952 -28.884 Q49.469 -28.115 48.659 -27.6 Q47.849 -27.086 46.713 -27.086 Z M60.824 -13.143 Q59.397 -13.143 58.309 -14.275 Q57.221 -15.406 57.221 -16.871 Q57.221 -17.758 57.588 -18.552 Q57.954 -19.347 58.615 -19.826 Q62.548 -23.797 64.356 -29.076 Q66.163 -34.355 66.163 -40.167 Q66.163 -45.98 64.418 -51.432 Q62.673 -56.884 58.74 -60.634 Q58.079 -61.129 57.588 -61.968 Q57.096 -62.808 57.096 -63.815 Q57.096 -65.407 58.223 -66.487 Q59.349 -67.566 60.917 -67.566 Q61.801 -67.566 62.559 -67.211 Q63.317 -66.855 63.779 -66.297 Q68.797 -60.781 71.254 -54.106 Q73.712 -47.432 73.712 -40.366 Q73.712 -33.3 71.221 -26.65 Q68.731 -19.999 63.654 -14.384 Q63.192 -13.826 62.427 -13.485 Q61.662 -13.143 60.824 -13.143 Z M75.875 -14.855 V-17.336 Q75.875 -23.855 83.005 -25.98 Q90.135 -28.105 95 -28.105 Q99.865 -28.105 106.995 -25.98 Q114.125 -23.855 114.125 -17.336 V-14.855 H75.875 Z M94.975 -37.855 Q91.337 -37.855 88.856 -40.361 Q86.375 -42.867 86.375 -46.505 Q86.375 -50.143 88.881 -52.624 Q91.387 -55.105 95.025 -55.105 Q98.663 -55.105 101.144 -52.599 Q103.625 -50.093 103.625 -46.454 Q103.625 -42.816 101.119 -40.336 Q98.613 -37.855 94.975 -37.855 Z"/></g><g id="Ultralight-M" transform="matrix(1 0 0 1 506.415 1126)"><path d="M6.625 -15.605 V-17.48 Q6.625 -23.48 13.625 -25.417 Q20.625 -27.355 25 -27.355 Q29.375 -27.355 36.375 -25.417 Q43.375 -23.48 43.375 -17.48 V-15.605 H6.625 Z M24.974 -38.605 Q21.625 -38.605 19.375 -40.88 Q17.125 -43.156 17.125 -46.505 Q17.125 -49.855 19.401 -52.105 Q21.676 -54.355 25.026 -54.355 Q28.375 -54.355 30.625 -52.079 Q32.875 -49.804 32.875 -46.454 Q32.875 -43.105 30.599 -40.855 Q28.324 -38.605 24.974 -38.605 Z M47.261 -27.605 Q45.925 -27.605 44.962 -28.567 Q44 -29.53 44 -30.813 Q44 -31.605 44.875 -33.23 Q46 -34.855 46.375 -36.605 Q46.75 -38.355 46.75 -40.081 Q46.75 -41.807 46.312 -43.581 Q45.875 -45.355 44.75 -46.855 Q44.403 -47.391 44.076 -47.98 Q43.75 -48.569 43.75 -49.212 Q43.75 -50.605 44.75 -51.542 Q45.75 -52.48 47.181 -52.48 Q48.062 -52.48 48.844 -52.042 Q49.625 -51.605 50 -50.73 Q51.625 -48.105 52.562 -45.48 Q53.5 -42.855 53.5 -40.105 Q53.5 -37.329 52.625 -34.53 Q51.75 -31.73 50.125 -29.23 Q49.722 -28.53 49.016 -28.067 Q48.311 -27.605 47.261 -27.605 Z M61.112 -13.98 Q59.891 -13.98 58.946 -14.982 Q58 -15.983 58 -17.251 Q58 -18.046 58.326 -18.751 Q58.653 -19.456 59.25 -19.855 Q63.125 -23.855 64.875 -29.105 Q66.625 -34.355 66.625 -40.167 Q66.625 -45.98 64.938 -51.417 Q63.25 -56.855 59.375 -60.605 Q58.778 -61.024 58.326 -61.787 Q57.875 -62.55 57.875 -63.465 Q57.875 -64.859 58.871 -65.794 Q59.867 -66.73 61.234 -66.73 Q62.023 -66.73 62.699 -66.417 Q63.375 -66.105 63.75 -65.605 Q68.548 -60.234 70.899 -53.732 Q73.25 -47.23 73.25 -40.369 Q73.25 -33.509 70.875 -27.057 Q68.5 -20.605 63.625 -15.105 Q63.25 -14.605 62.556 -14.292 Q61.861 -13.98 61.112 -13.98 Z M76.625 -15.605 V-17.48 Q76.625 -23.48 83.625 -25.417 Q90.625 -27.355 95 -27.355 Q99.375 -27.355 106.375 -25.417 Q113.375 -23.48 113.375 -17.48 V-15.605 H76.625 Z M94.975 -38.605 Q91.625 -38.605 89.375 -40.88 Q87.125 -43.156 87.125 -46.505 Q87.125 -49.855 89.4 -52.105 Q91.676 -54.355 95.025 -54.355 Q98.375 -54.355 100.625 -52.079 Q102.875 -49.804 102.875 -46.454 Q102.875 -43.105 100.6 -40.855 Q98.324 -38.605 94.975 -38.605 Z"/></g><g id="Bold-S" transform="matrix(1 0 0 1 2294.23 696)"><path d="M1.183 -15.604 V-21.62 Q1.183 -28.22 7.052 -30.591 Q12.92 -32.962 18.196 -32.962 Q23.473 -32.962 29.292 -30.64 Q35.111 -28.318 35.111 -21.62 V-15.604 H1.183 Z M18.107 -34.441 Q14.103 -34.441 11.293 -37.329 Q8.482 -40.216 8.482 -44.249 Q8.482 -48.281 11.333 -51.075 Q14.184 -53.87 18.187 -53.87 Q22.191 -53.87 25.001 -51.019 Q27.812 -48.168 27.812 -44.165 Q27.812 -40.161 24.961 -37.301 Q22.11 -34.441 18.107 -34.441 Z M37.558 -23.987 Q36.038 -23.987 35.032 -24.968 Q34.026 -25.949 34.026 -27.455 Q34.026 -28.129 35 -30.141 Q35.998 -31.186 36.541 -32.468 Q37.083 -33.751 37.083 -35.11 Q37.083 -36.47 36.555 -37.803 Q36.026 -39.136 35.012 -40.26 Q34.617 -40.733 34.272 -41.361 Q33.927 -41.99 33.927 -42.729 Q33.927 -44.331 34.984 -45.353 Q36.041 -46.375 37.429 -46.375 Q38.183 -46.375 38.965 -46.128 Q39.746 -45.881 40.14 -45.388 Q42.212 -43.317 43.247 -40.764 Q44.283 -38.21 44.283 -35.279 Q44.283 -32.468 43.13 -29.419 Q41.978 -26.369 39.746 -24.48 Q39.351 -24.085 38.761 -24.036 Q38.171 -23.987 37.558 -23.987 Z M49.459 -12.152 Q48.03 -12.152 46.995 -13.222 Q45.959 -14.291 45.959 -15.719 Q45.959 -16.543 46.255 -17.208 Q46.551 -17.872 47.116 -18.237 Q50.299 -21.028 52.074 -25.565 Q53.849 -30.101 53.849 -35.131 Q53.849 -40.161 52.173 -44.698 Q50.496 -49.235 47.197 -51.996 Q46.748 -52.391 46.354 -53.192 Q45.959 -53.993 45.959 -54.83 Q45.959 -56.339 47.021 -57.324 Q48.084 -58.308 49.585 -58.308 Q50.224 -58.308 50.783 -58.062 Q51.342 -57.815 51.778 -57.421 Q56.204 -53.683 58.577 -47.761 Q60.95 -41.838 60.95 -35.181 Q60.95 -28.523 58.633 -22.557 Q56.315 -16.59 51.778 -12.842 Q51.384 -12.546 50.763 -12.349 Q50.142 -12.152 49.459 -12.152 Z M59.57 -15.604 V-21.62 Q59.57 -28.318 65.319 -30.64 Q71.069 -32.962 76.484 -32.962 Q81.76 -32.962 87.628 -30.591 Q93.496 -28.22 93.496 -21.62 V-15.604 H59.57 Z M76.493 -34.441 Q72.489 -34.441 69.679 -37.329 Q66.868 -40.216 66.868 -44.249 Q66.868 -48.281 69.719 -51.075 Q72.57 -53.87 76.573 -53.87 Q80.577 -53.87 83.387 -51.019 Q86.198 -48.168 86.198 -44.165 Q86.198 -40.161 83.347 -37.301 Q80.496 -34.441 76.493 -34.441 Z"/></g><g id="Semibold-S" transform="matrix(1 0 0 1 1998.1 696)"><path d="M2.17 -16.976 V-22.349 Q2.17 -28.648 7.866 -30.848 Q13.563 -33.047 18.518 -33.047 Q23.473 -33.047 29.142 -30.876 Q34.81 -28.704 34.81 -22.349 V-16.976 H2.17 Z M18.449 -34.827 Q14.747 -34.827 12.15 -37.485 Q9.554 -40.142 9.554 -43.861 Q9.554 -47.581 12.191 -50.168 Q14.828 -52.755 18.531 -52.755 Q22.234 -52.755 24.83 -50.118 Q27.426 -47.481 27.426 -43.778 Q27.426 -40.075 24.789 -37.451 Q22.152 -34.827 18.449 -34.827 Z M37.227 -23.987 Q35.737 -23.987 34.71 -25 Q33.683 -26.014 33.683 -27.476 Q33.683 -28.129 34.662 -30.124 Q35.741 -31.272 36.326 -32.554 Q36.911 -33.836 36.911 -35.153 Q36.911 -36.47 36.334 -37.79 Q35.757 -39.11 34.669 -40.303 Q34.274 -40.784 33.929 -41.423 Q33.584 -42.061 33.584 -42.788 Q33.584 -44.362 34.653 -45.39 Q35.722 -46.418 37.129 -46.418 Q37.938 -46.418 38.713 -46.149 Q39.489 -45.881 39.883 -45.303 Q41.997 -43.103 43.076 -40.597 Q44.154 -38.091 44.154 -35.258 Q44.154 -32.511 42.988 -29.673 Q41.822 -26.834 39.66 -24.78 Q39.266 -24.3 38.599 -24.143 Q37.933 -23.987 37.227 -23.987 Z M49.093 -12.195 Q47.687 -12.195 46.652 -13.264 Q45.616 -14.334 45.616 -15.762 Q45.616 -16.586 45.934 -17.293 Q46.251 -18.001 46.827 -18.378 Q50.084 -21.242 51.881 -25.715 Q53.678 -30.187 53.678 -35.153 Q53.678 -40.118 52.001 -44.634 Q50.324 -49.149 46.959 -51.953 Q46.448 -52.348 46.011 -53.176 Q45.573 -54.004 45.573 -54.873 Q45.573 -56.382 46.637 -57.366 Q47.7 -58.351 49.204 -58.351 Q49.899 -58.351 50.501 -58.083 Q51.103 -57.815 51.521 -57.421 Q56.038 -53.379 58.451 -47.565 Q60.864 -41.752 60.864 -35.245 Q60.864 -28.738 58.482 -22.878 Q56.1 -17.019 51.478 -12.971 Q51.084 -12.632 50.443 -12.413 Q49.802 -12.195 49.093 -12.195 Z M59.87 -16.976 V-22.349 Q59.87 -28.704 65.469 -30.876 Q71.069 -33.047 76.162 -33.047 Q81.117 -33.047 86.814 -30.848 Q92.51 -28.648 92.51 -22.349 V-16.976 H59.87 Z M76.149 -34.827 Q72.446 -34.827 69.85 -37.485 Q67.254 -40.142 67.254 -43.861 Q67.254 -47.581 69.891 -50.168 Q72.528 -52.755 76.231 -52.755 Q79.933 -52.755 82.53 -50.118 Q85.126 -47.481 85.126 -43.778 Q85.126 -40.075 82.489 -37.451 Q79.852 -34.827 76.149 -34.827 Z"/></g><g id="Medium-S" transform="matrix(1 0 0 1 1701.85 696)"><path d="M2.909 -18.005 V-22.895 Q2.909 -28.97 8.477 -31.041 Q14.045 -33.112 18.759 -33.112 Q23.473 -33.112 29.029 -31.053 Q34.585 -28.993 34.585 -22.895 V-18.005 H2.909 Z M18.706 -35.116 Q15.229 -35.116 12.793 -37.602 Q10.358 -40.087 10.358 -43.571 Q10.358 -47.056 12.834 -49.487 Q15.311 -51.919 18.788 -51.919 Q22.266 -51.919 24.701 -49.443 Q27.137 -46.966 27.137 -43.489 Q27.137 -40.011 24.66 -37.564 Q22.184 -35.116 18.706 -35.116 Z M36.978 -23.987 Q35.512 -23.987 34.469 -25.024 Q33.425 -26.062 33.425 -27.493 Q33.425 -28.129 34.409 -30.111 Q35.548 -31.336 36.165 -32.619 Q36.783 -33.901 36.783 -35.185 Q36.783 -36.47 36.169 -37.78 Q35.555 -39.091 34.412 -40.335 Q34.017 -40.823 33.672 -41.469 Q33.327 -42.114 33.327 -42.831 Q33.327 -44.385 34.405 -45.417 Q35.483 -46.45 36.904 -46.45 Q37.754 -46.45 38.525 -46.166 Q39.296 -45.881 39.69 -45.238 Q41.836 -42.942 42.947 -40.472 Q44.057 -38.002 44.057 -35.242 Q44.057 -32.544 42.881 -29.863 Q41.705 -27.183 39.596 -25.005 Q39.201 -24.461 38.478 -24.224 Q37.755 -23.987 36.978 -23.987 Z M48.819 -12.227 Q47.43 -12.227 46.394 -13.297 Q45.359 -14.366 45.359 -15.794 Q45.359 -16.618 45.692 -17.358 Q46.026 -18.097 46.611 -18.484 Q49.924 -21.403 51.736 -25.827 Q53.549 -30.252 53.549 -35.169 Q53.549 -40.086 51.873 -44.585 Q50.196 -49.085 46.781 -51.921 Q46.223 -52.316 45.753 -53.164 Q45.284 -54.012 45.284 -54.905 Q45.284 -56.414 46.348 -57.399 Q47.413 -58.383 48.918 -58.383 Q49.655 -58.383 50.289 -58.099 Q50.924 -57.815 51.328 -57.421 Q55.913 -53.15 58.357 -47.419 Q60.8 -41.688 60.8 -35.293 Q60.8 -28.899 58.37 -23.119 Q55.94 -17.34 51.253 -13.067 Q50.858 -12.696 50.203 -12.462 Q49.547 -12.227 48.819 -12.227 Z M60.095 -18.005 V-22.895 Q60.095 -28.993 65.582 -31.053 Q71.069 -33.112 75.921 -33.112 Q80.635 -33.112 86.203 -31.041 Q91.771 -28.97 91.771 -22.895 V-18.005 H60.095 Z M75.892 -35.116 Q72.414 -35.116 69.979 -37.602 Q67.543 -40.087 67.543 -43.571 Q67.543 -47.056 70.02 -49.487 Q72.496 -51.919 75.974 -51.919 Q79.451 -51.919 81.887 -49.443 Q84.322 -46.966 84.322 -43.489 Q84.322 -40.011 81.846 -37.564 Q79.369 -35.116 75.892 -35.116 Z"/></g><g id="Regular-S" transform="matrix(1 0 0 1 1405.73 696)"><path d="M3.452 -18.76 V-23.296 Q3.452 -29.206 8.926 -31.182 Q14.399 -33.159 18.936 -33.159 Q23.473 -33.159 28.946 -31.182 Q34.42 -29.206 34.42 -23.296 V-18.76 H3.452 Z M18.895 -35.329 Q15.583 -35.329 13.265 -37.687 Q10.947 -40.046 10.947 -43.358 Q10.947 -46.67 13.306 -48.988 Q15.665 -51.306 18.977 -51.306 Q22.289 -51.306 24.607 -48.947 Q26.925 -46.588 26.925 -43.276 Q26.925 -39.964 24.566 -37.646 Q22.207 -35.329 18.895 -35.329 Z M36.796 -23.987 Q35.347 -23.987 34.292 -25.042 Q33.237 -26.097 33.237 -27.504 Q33.237 -28.129 34.223 -30.101 Q35.406 -31.384 36.047 -32.666 Q36.689 -33.948 36.689 -35.209 Q36.689 -36.47 36.047 -37.773 Q35.406 -39.076 34.223 -40.358 Q33.828 -40.852 33.483 -41.503 Q33.138 -42.153 33.138 -42.864 Q33.138 -44.402 34.223 -45.438 Q35.308 -46.473 36.739 -46.473 Q37.62 -46.473 38.387 -46.177 Q39.154 -45.881 39.549 -45.191 Q41.718 -42.824 42.853 -40.38 Q43.987 -37.936 43.987 -35.23 Q43.987 -32.567 42.803 -30.003 Q41.62 -27.439 39.549 -25.17 Q39.154 -24.578 38.389 -24.283 Q37.624 -23.987 36.796 -23.987 Z M48.619 -12.25 Q47.241 -12.25 46.206 -13.32 Q45.17 -14.39 45.17 -15.817 Q45.17 -16.642 45.515 -17.405 Q45.861 -18.168 46.452 -18.562 Q49.806 -21.521 51.63 -25.91 Q53.455 -30.299 53.455 -35.181 Q53.455 -40.063 51.778 -44.55 Q50.102 -49.037 46.65 -51.898 Q46.058 -52.292 45.565 -53.155 Q45.072 -54.018 45.072 -54.929 Q45.072 -56.438 46.137 -57.422 Q47.202 -58.407 48.708 -58.407 Q49.476 -58.407 50.134 -58.111 Q50.792 -57.815 51.186 -57.421 Q55.822 -52.982 58.287 -47.312 Q60.753 -41.641 60.753 -35.329 Q60.753 -29.017 58.287 -23.296 Q55.822 -17.576 51.088 -13.138 Q50.693 -12.743 50.027 -12.497 Q49.36 -12.25 48.619 -12.25 Z M60.26 -18.76 V-23.296 Q60.26 -29.206 65.665 -31.182 Q71.069 -33.159 75.744 -33.159 Q80.281 -33.159 85.754 -31.182 Q91.228 -29.206 91.228 -23.296 V-18.76 H60.26 Z M75.703 -35.329 Q72.391 -35.329 70.073 -37.687 Q67.755 -40.046 67.755 -43.358 Q67.755 -46.67 70.114 -48.988 Q72.473 -51.306 75.785 -51.306 Q79.097 -51.306 81.415 -48.947 Q83.733 -46.588 83.733 -43.276 Q83.733 -39.964 81.374 -37.646 Q79.015 -35.329 75.703 -35.329 Z"/></g><g id="Light-S" transform="matrix(1 0 0 1 1109.75 696)"><path d="M4.438 -19.746 V-23.486 Q4.438 -28.713 9.741 -30.443 Q15.044 -32.173 18.936 -32.173 Q22.828 -32.173 28.131 -30.443 Q33.434 -28.713 33.434 -23.486 V-19.746 H4.438 Z M18.895 -36.315 Q15.962 -36.315 13.948 -38.37 Q11.934 -40.425 11.934 -43.358 Q11.934 -46.291 13.989 -48.305 Q16.044 -50.32 18.977 -50.32 Q21.91 -50.32 23.924 -48.264 Q25.938 -46.209 25.938 -43.276 Q25.938 -40.343 23.883 -38.329 Q21.828 -36.315 18.895 -36.315 Z M37.517 -24.67 Q36.311 -24.67 35.438 -25.543 Q34.564 -26.416 34.564 -27.58 Q34.564 -28.129 35.361 -29.76 Q36.507 -31.08 37.11 -32.438 Q37.713 -33.796 37.713 -35.164 Q37.713 -36.531 37.091 -37.937 Q36.469 -39.342 35.323 -40.624 Q35.013 -41.014 34.72 -41.552 Q34.428 -42.09 34.428 -42.676 Q34.428 -43.947 35.342 -44.812 Q36.256 -45.677 37.441 -45.677 Q38.17 -45.677 38.814 -45.457 Q39.458 -45.237 39.738 -44.622 Q41.718 -42.407 42.758 -40.087 Q43.797 -37.768 43.797 -35.192 Q43.797 -32.635 42.727 -30.17 Q41.658 -27.704 39.776 -25.626 Q39.487 -25.125 38.859 -24.897 Q38.231 -24.67 37.517 -24.67 Z M48.998 -13.351 Q47.891 -13.351 47.043 -14.25 Q46.194 -15.15 46.194 -16.317 Q46.194 -17.021 46.487 -17.667 Q46.78 -18.312 47.287 -18.6 Q50.564 -21.597 52.313 -25.948 Q54.062 -30.299 54.062 -35.181 Q54.062 -40.063 52.461 -44.531 Q50.86 -49 47.484 -51.86 Q46.977 -52.154 46.536 -52.916 Q46.096 -53.679 46.096 -54.469 Q46.096 -55.717 46.989 -56.512 Q47.882 -57.307 49.126 -57.307 Q49.768 -57.307 50.318 -57.068 Q50.868 -56.829 51.148 -56.51 Q55.495 -52.263 57.82 -46.819 Q60.146 -41.375 60.146 -35.333 Q60.146 -29.291 57.832 -23.832 Q55.518 -18.373 51.05 -14.086 Q50.769 -13.768 50.195 -13.559 Q49.622 -13.351 48.998 -13.351 Z M61.246 -19.746 V-23.486 Q61.246 -28.713 66.48 -30.443 Q71.714 -32.173 75.744 -32.173 Q79.636 -32.173 84.939 -30.443 Q90.242 -28.713 90.242 -23.486 V-19.746 H61.246 Z M75.703 -36.315 Q72.77 -36.315 70.756 -38.37 Q68.742 -40.425 68.742 -43.358 Q68.742 -46.291 70.797 -48.305 Q72.852 -50.32 75.785 -50.32 Q78.718 -50.32 80.732 -48.264 Q82.746 -46.209 82.746 -43.276 Q82.746 -40.343 80.691 -38.329 Q78.636 -36.315 75.703 -36.315 Z"/></g><g id="Thin-S" transform="matrix(1 0 0 1 814.015 696)"><path d="M5.424 -20.732 V-23.676 Q5.424 -28.22 10.557 -29.703 Q15.689 -31.186 18.936 -31.186 Q22.183 -31.186 27.315 -29.703 Q32.448 -28.22 32.448 -23.676 V-20.732 H5.424 Z M18.895 -37.301 Q16.341 -37.301 14.631 -39.053 Q12.92 -40.805 12.92 -43.358 Q12.92 -45.912 14.672 -47.623 Q16.423 -49.333 18.977 -49.333 Q21.531 -49.333 23.241 -47.582 Q24.952 -45.83 24.952 -43.276 Q24.952 -40.723 23.2 -39.012 Q21.449 -37.301 18.895 -37.301 Z M38.238 -25.352 Q37.274 -25.352 36.583 -26.043 Q35.892 -26.735 35.892 -27.656 Q35.892 -28.129 36.499 -29.419 Q37.607 -30.777 38.172 -32.211 Q38.737 -33.644 38.737 -35.119 Q38.737 -36.593 38.134 -38.1 Q37.531 -39.607 36.423 -40.89 Q36.197 -41.177 35.957 -41.601 Q35.717 -42.026 35.717 -42.489 Q35.717 -43.492 36.461 -44.186 Q37.204 -44.88 38.142 -44.88 Q38.72 -44.88 39.24 -44.736 Q39.761 -44.592 39.928 -44.053 Q41.718 -41.99 42.663 -39.794 Q43.607 -37.599 43.607 -35.154 Q43.607 -32.703 42.652 -30.336 Q41.696 -27.97 40.004 -26.081 Q39.82 -25.671 39.329 -25.512 Q38.838 -25.352 38.238 -25.352 Z M49.377 -14.451 Q48.541 -14.451 47.88 -15.18 Q47.219 -15.909 47.219 -16.816 Q47.219 -17.401 47.458 -17.929 Q47.698 -18.457 48.121 -18.638 Q51.323 -21.673 52.996 -25.986 Q54.669 -30.299 54.669 -35.181 Q54.669 -40.063 53.144 -44.512 Q51.619 -48.962 48.319 -51.822 Q47.895 -52.015 47.508 -52.678 Q47.12 -53.34 47.12 -54.01 Q47.12 -54.996 47.841 -55.601 Q48.562 -56.207 49.543 -56.207 Q50.059 -56.207 50.501 -56.025 Q50.944 -55.843 51.111 -55.6 Q55.168 -51.543 57.354 -46.326 Q59.539 -41.11 59.539 -35.337 Q59.539 -29.565 57.377 -24.367 Q55.215 -19.169 51.012 -15.035 Q50.845 -14.792 50.364 -14.621 Q49.883 -14.451 49.377 -14.451 Z M62.232 -20.732 V-23.676 Q62.232 -28.22 67.296 -29.703 Q72.359 -31.186 75.744 -31.186 Q78.991 -31.186 84.123 -29.703 Q89.256 -28.22 89.256 -23.676 V-20.732 H62.232 Z M75.703 -37.301 Q73.149 -37.301 71.439 -39.053 Q69.728 -40.805 69.728 -43.358 Q69.728 -45.912 71.48 -47.623 Q73.231 -49.333 75.785 -49.333 Q78.339 -49.333 80.049 -47.582 Q81.76 -45.83 81.76 -43.276 Q81.76 -40.723 80.008 -39.012 Q78.257 -37.301 75.703 -37.301 Z"/></g><g id="Ultralight-S" transform="matrix(1 0 0 1 517.792 696)"><path d="M6.016 -21.324 V-23.789 Q6.016 -27.924 11.046 -29.259 Q16.076 -30.595 18.936 -30.595 Q21.796 -30.595 26.826 -29.259 Q31.856 -27.924 31.856 -23.789 V-21.324 H6.016 Z M18.895 -37.893 Q16.569 -37.893 15.04 -39.463 Q13.512 -41.032 13.512 -43.358 Q13.512 -45.684 15.081 -47.213 Q16.651 -48.742 18.977 -48.742 Q21.303 -48.742 22.832 -47.172 Q24.36 -45.602 24.36 -43.276 Q24.36 -40.95 22.791 -39.422 Q21.221 -37.893 18.895 -37.893 Z M38.67 -25.762 Q37.852 -25.762 37.27 -26.344 Q36.689 -26.926 36.689 -27.702 Q36.689 -28.129 37.182 -29.214 Q38.267 -30.595 38.809 -32.074 Q39.351 -33.553 39.351 -35.092 Q39.351 -36.63 38.76 -38.198 Q38.168 -39.767 37.083 -41.049 Q36.908 -41.274 36.699 -41.631 Q36.491 -41.987 36.491 -42.376 Q36.491 -43.219 37.132 -43.81 Q37.773 -44.402 38.563 -44.402 Q39.05 -44.402 39.496 -44.303 Q39.943 -44.205 40.042 -43.712 Q41.718 -41.739 42.606 -39.619 Q43.494 -37.498 43.494 -35.131 Q43.494 -32.744 42.606 -30.437 Q41.718 -28.129 40.14 -26.354 Q40.02 -25.999 39.611 -25.88 Q39.202 -25.762 38.67 -25.762 Z M49.605 -15.11 Q48.931 -15.11 48.382 -15.738 Q47.833 -16.365 47.833 -17.116 Q47.833 -17.628 48.041 -18.086 Q48.25 -18.544 48.622 -18.661 Q51.778 -21.718 53.405 -26.009 Q55.033 -30.299 55.033 -35.181 Q55.033 -40.063 53.553 -44.501 Q52.074 -48.939 48.819 -51.799 Q48.447 -51.932 48.091 -52.534 Q47.735 -53.136 47.735 -53.734 Q47.735 -54.564 48.353 -55.055 Q48.971 -55.547 49.793 -55.547 Q50.234 -55.547 50.611 -55.399 Q50.989 -55.251 51.088 -55.054 Q54.972 -51.112 57.073 -46.031 Q59.175 -40.95 59.175 -35.34 Q59.175 -29.73 57.104 -24.689 Q55.033 -19.647 50.989 -15.604 Q50.891 -15.406 50.465 -15.258 Q50.04 -15.11 49.605 -15.11 Z M62.824 -21.324 V-23.789 Q62.824 -27.924 67.785 -29.259 Q72.746 -30.595 75.744 -30.595 Q78.604 -30.595 83.634 -29.259 Q88.664 -27.924 88.664 -23.789 V-21.324 H62.824 Z M75.703 -37.893 Q73.377 -37.893 71.848 -39.463 Q70.32 -41.032 70.32 -43.358 Q70.32 -45.684 71.889 -47.213 Q73.459 -48.742 75.785 -48.742 Q78.111 -48.742 79.64 -47.172 Q81.168 -45.602 81.168 -43.276 Q81.168 -40.95 79.599 -39.422 Q78.029 -37.893 75.703 -37.893 Z"/></g></g></svg>