<svg xmlns="http://www.w3.org/2000/svg" version="1.1" width="3300" height="2000"><g id="Notes"><style>
    text {
      font-family: monospace;
      text-anchor: middle;
    }
    text.emphasis {
      font-weight:bold;
    }
    text.lanchor {
      text-anchor: start;
    }
  </style><rect height="2200" id="artboard" fill="white" width="3300" x="0" y="0"/><line id="" style="fill:none;stroke:black;stroke-width:0.5;" x1="263" x2="3036" y1="292" y2="292"/><text class="lanchor emphasis" transform="matrix(1 0 0 1 263 322)">Weight/Scale Variations</text><text transform="matrix(1 0 0 1 559.711 322)">Ultralight</text><text transform="matrix(1 0 0 1 856.422 322)">Thin</text><text transform="matrix(1 0 0 1 1153.13 322)">Light</text><text transform="matrix(1 0 0 1 1449.84 322)">Regular</text><text transform="matrix(1 0 0 1 1746.56 322)">Medium</text><text transform="matrix(1 0 0 1 2043.27 322)">Semibold</text><text transform="matrix(1 0 0 1 2339.98 322)">Bold</text><text transform="matrix(1 0 0 1 2636.69 322)">Heavy</text><text transform="matrix(1 0 0 1 2933.4 322)">Black</text><text id="template-version" style="text-anchor: end;" transform="matrix(1 0 0 1 3036 1933)">Template v.1.0</text><text class="lanchor" transform="matrix(1 0 0 1 263 726)">Small</text><text class="lanchor" transform="matrix(1 0 0 1 263 1156)">Medium</text><text class="lanchor" transform="matrix(1 0 0 1 263 1586)">Large</text></g><g id="Guides"><g id="H-reference" style="fill:#27AAE1;stroke:none;" transform="matrix(1 0 0 1 339 696)"><path d="M 54.9316 0 L 57.666 0 L 30.5664 -70.459 L 28.0762 -70.459 L 0.976562 0 L 3.66211 0 L 12.9395 -24.4629 L 45.7031 -24.4629 Z M 29.1992 -67.0898 L 29.4434 -67.0898 L 44.8242 -26.709 L 13.8184 -26.709 Z"/></g><line id="Baseline-S" style="fill:none;stroke:#27AAE1;opacity:1;stroke-width:0.577;" x1="263" x2="3036" y1="696" y2="696"/><line id="Capline-S" style="fill:none;stroke:#27AAE1;opacity:1;stroke-width:0.577;" x1="263" x2="3036" y1="625.541" y2="625.541"/><g id="H-reference" style="fill:#27AAE1;stroke:none;" transform="matrix(1 0 0 1 339 1126)"><path d="M 54.9316 0 L 57.666 0 L 30.5664 -70.459 L 28.0762 -70.459 L 0.976562 0 L 3.66211 0 L 12.9395 -24.4629 L 45.7031 -24.4629 Z M 29.1992 -67.0898 L 29.4434 -67.0898 L 44.8242 -26.709 L 13.8184 -26.709 Z"/></g><line id="Baseline-M" style="fill:none;stroke:#27AAE1;opacity:1;stroke-width:0.577;" x1="263" x2="3036" y1="1126" y2="1126"/><line id="Capline-M" style="fill:none;stroke:#27AAE1;opacity:1;stroke-width:0.577;" x1="263" x2="3036" y1="1055.54" y2="1055.54"/><g id="H-reference" style="fill:#27AAE1;stroke:none;" transform="matrix(1 0 0 1 339 1556)"><path d="M 54.9316 0 L 57.666 0 L 30.5664 -70.459 L 28.0762 -70.459 L 0.976562 0 L 3.66211 0 L 12.9395 -24.4629 L 45.7031 -24.4629 Z M 29.1992 -67.0898 L 29.4434 -67.0898 L 44.8242 -26.709 L 13.8184 -26.709 Z"/></g><line id="Baseline-L" style="fill:none;stroke:#27AAE1;opacity:1;stroke-width:0.577;" x1="263" x2="3036" y1="1556" y2="1556"/><line id="Capline-L" style="fill:none;stroke:#27AAE1;opacity:1;stroke-width:0.577;" x1="263" x2="3036" y1="1485.54" y2="1485.54"/><rect height="119.336" id="left-margin" style="fill:darkred;stroke:none;opacity:0.4;" width="12.4512" x="1394.06" y="1030.79"/><rect height="119.336" id="right-margin" style="fill:darkgreen;stroke:none;opacity:0.4;" width="12.4512" x="1502.5112" y="1030.79"/><rect x="1406.5112" y="1045" width="96" height="96" fill="none" stroke="blue" stroke-dasharray="5"/><rect x="1394.06" y="1030.79" width="120.9024" height="119.336" fill="none" stroke="blue"/></g><g id="Symbols"><g id="Bold-L" transform="matrix(1 0 0 1 2266 1556)"><path d="M77.29 -5.479  85.696 -13.784 H99.975 V-28.377 L107.473 -35.875 L99.843 -43.344 V-57.673 H85.514 L77.239 -65.948 L69.257 -57.644 H55.148 V-43.373 L47.649 -35.714 L54.927 -28.256 V-13.784 H69.206 L77.29 -5.479 Z M77.239 -17.492 V-53.774 Q84.737 -53.774 90.098 -48.528 Q95.46 -43.283 95.46 -35.628 Q95.46 -27.974 90.072 -22.733 Q84.683 -17.492 77.239 -17.492 Z M24.429 19.676 Q18.299 19.676 13.987 15.364 Q9.675 11.052 9.675 4.921 V-75.381 Q9.675 -81.578 13.987 -85.938 Q18.299 -90.297 24.429 -90.297 H130.371 Q136.568 -90.297 140.927 -85.938 Q145.286 -81.578 145.286 -75.381 V4.921 Q145.286 11.052 140.927 15.364 Q136.568 19.676 130.371 19.676 H24.429 Z"/></g><g id="Semibold-L" transform="matrix(1 0 0 1 1970.27 1556)"><path d="M77.338 -4.919  85.84 -13.363 H100.396 V-28.237 L108.034 -35.875 L100.321 -43.427 V-58.081 H85.667 L77.309 -66.439 L69.117 -58.064 H54.797 V-43.443 L47.159 -35.714 L54.602 -28.098 V-13.363 H69.088 L77.338 -4.919 Z M77.309 -17.142 V-54.054 Q84.947 -54.054 90.344 -48.697 Q95.74 -43.341 95.74 -35.587 Q95.74 -27.833 90.317 -22.488 Q84.893 -17.142 77.309 -17.142 Z M23.798 17.923 Q18.723 17.923 15.075 14.275 Q11.428 10.628 11.428 5.552 V-76.012 Q11.428 -81.125 15.075 -84.8 Q18.723 -88.474 23.798 -88.474 H131.002 Q136.115 -88.474 139.789 -84.8 Q143.463 -81.125 143.463 -76.012 V5.552 Q143.463 10.628 139.789 14.275 Q136.115 17.923 131.002 17.923 H23.798 Z"/></g><g id="Medium-L" transform="matrix(1 0 0 1 1674.31 1556)"><path d="M77.374 -4.498  85.948 -13.048 H100.711 V-28.131 L108.455 -35.875 L100.68 -43.489 V-58.387 H85.781 L77.361 -66.807 L69.011 -58.38 H54.534 V-43.496 L46.791 -35.714 L54.359 -27.98 V-13.048 H68.999 L77.374 -4.498 Z M77.361 -16.879 V-54.264 Q85.105 -54.264 90.528 -48.824 Q95.951 -43.384 95.951 -35.556 Q95.951 -27.728 90.501 -22.304 Q85.051 -16.879 77.361 -16.879 Z M23.325 16.608 Q19.041 16.608 15.892 13.459 Q12.742 10.31 12.742 6.025 V-76.485 Q12.742 -80.785 15.892 -83.946 Q19.041 -87.107 23.325 -87.107 H131.475 Q135.775 -87.107 138.936 -83.946 Q142.096 -80.785 142.096 -76.485 V6.025 Q142.096 10.31 138.936 13.459 Q135.775 16.608 131.475 16.608 H23.325 Z"/></g><g id="Regular-L" transform="matrix(1 0 0 1 1378.56 1556)"><path d="M77.4 -4.189  86.027 -12.816 H100.943 V-28.054 L108.763 -35.875 L100.943 -43.534 V-58.611 H85.866 L77.4 -67.077 L68.934 -58.611 H54.341 V-43.534 L46.521 -35.714 L54.18 -27.893 V-12.816 H68.934 L77.4 -4.189 Z M77.4 -16.686 V-54.419 Q85.221 -54.419 90.663 -48.917 Q96.105 -43.416 96.105 -35.533 Q96.105 -27.651 90.636 -22.169 Q85.167 -16.686 77.4 -16.686 Z M22.978 15.644 Q19.274 15.644 16.49 12.86 Q13.706 10.076 13.706 6.373 V-76.832 Q13.706 -80.536 16.49 -83.32 Q19.274 -86.104 22.978 -86.104 H131.822 Q135.526 -86.104 138.31 -83.32 Q141.094 -80.536 141.094 -76.832 V6.373 Q141.094 10.076 138.31 12.86 Q135.526 15.644 131.822 15.644 H22.978 Z"/></g><g id="Light-L" transform="matrix(1 0 0 1 1082.77 1556)"><path d="M77.4 -7.508  85.003 -15.049 H98.4 V-28.706 L105.383 -35.689 L98.4 -42.573 V-56.068 H84.842 L77.4 -63.573 L69.973 -56.068 H56.76 V-42.573 L49.777 -35.59 L56.661 -28.606 V-15.049 H69.958 L77.4 -7.508 Z M77.4 -18.051 V-52.868 Q84.662 -52.868 89.67 -47.784 Q94.678 -42.701 94.678 -35.433 Q94.678 -28.165 89.638 -23.108 Q84.598 -18.051 77.4 -18.051 Z M25.663 12.698 Q22.017 12.698 19.319 10 Q16.621 7.302 16.621 3.656 V-74.116 Q16.621 -77.762 19.319 -80.46 Q22.017 -83.158 25.663 -83.158 H129.137 Q132.783 -83.158 135.481 -80.46 Q138.179 -77.762 138.179 -74.116 V3.656 Q138.179 7.302 135.481 10 Q132.783 12.698 129.137 12.698 H25.663 Z"/></g><g id="Thin-L" transform="matrix(1 0 0 1 787.282 1556)"><path d="M77.4 -10.825  83.98 -17.282 H95.857 V-29.357 L102.003 -35.503 L95.857 -41.612 V-53.526 H83.819 L77.4 -60.069 L71.012 -53.526 H59.179 V-41.612 L53.033 -35.466 L59.142 -29.32 V-17.282 H70.981 L77.4 -10.825 Z M77.4 -19.415 V-51.318 Q84.104 -51.318 88.678 -46.652 Q93.252 -41.986 93.252 -35.333 Q93.252 -28.68 88.641 -24.047 Q84.03 -19.415 77.4 -19.415 Z M28.346 9.753 Q24.76 9.753 22.148 7.141 Q19.536 4.529 19.536 0.939 V-71.399 Q19.536 -74.989 22.148 -77.601 Q24.76 -80.213 28.346 -80.213 H126.454 Q130.04 -80.213 132.652 -77.601 Q135.264 -74.989 135.264 -71.399 V0.939 Q135.264 4.529 132.652 7.141 Q130.04 9.753 126.454 9.753 H28.346 Z"/></g><g id="Ultralight-L" transform="matrix(1 0 0 1 491.205 1556)"><path d="M77.4 -12.816  83.366 -18.621 H94.331 V-29.747 L99.975 -35.391 L94.331 -41.035 V-52 H83.205 L77.4 -57.966 L71.635 -52 H60.63 V-41.035 L54.986 -35.391 L60.63 -29.747 V-18.621 H71.595 L77.4 -12.816 Z M77.4 -20.234 V-50.387 Q83.769 -50.387 88.083 -45.972 Q92.396 -41.557 92.396 -35.273 Q92.396 -28.988 88.043 -24.611 Q83.689 -20.234 77.4 -20.234 Z M29.957 7.985 Q26.406 7.985 23.845 5.425 Q21.285 2.864 21.285 -0.691 V-69.769 Q21.285 -73.324 23.845 -75.885 Q26.406 -78.445 29.957 -78.445 H124.843 Q128.394 -78.445 130.955 -75.885 Q133.515 -73.324 133.515 -69.769 V-0.691 Q133.515 2.864 130.955 5.425 Q128.394 7.985 124.843 7.985 H29.957 Z"/></g><g id="Bold-M" transform="matrix(1 0 0 1 2281.8 1126)"><path d="M59.875 -10.105  66.75 -16.98 H78.25 V-28.355 L85 -35.23 L78.125 -42.105 V-53.48 H66.75 L59.875 -60.355 L53.125 -53.48 H41.625 V-42.105 L34.75 -35.23 L41.5 -28.48 V-16.98 H53.125 L59.875 -10.105 Z M59.75 -21.48 V-49.105 Q65.562 -49.105 69.656 -45.121 Q73.75 -41.138 73.75 -35.34 Q73.75 -29.542 69.646 -25.511 Q65.542 -21.48 59.75 -21.48 Z M22.125 7.895 Q15.758 7.895 11.379 3.516 Q7 -0.863 7 -7.23 V-63.23 Q7 -69.597 11.379 -73.976 Q15.758 -78.355 22.125 -78.355 H97.875 Q104.242 -78.355 108.621 -73.976 Q113 -69.597 113 -63.23 V-7.23 Q113 -0.863 108.621 3.516 Q104.242 7.895 97.875 7.895 H22.125 Z"/></g><g id="Semibold-M" transform="matrix(1 0 0 1 1985.97 1126)"><path d="M59.929 -9.561  66.913 -16.545 H78.685 V-28.246 L85.598 -35.23 L78.614 -42.214 V-53.915 H66.913 L59.929 -60.898 L53.016 -53.915 H41.245 V-42.214 L34.261 -35.23 L41.174 -28.317 V-16.545 H53.016 L59.929 -9.561 Z M59.859 -21.154 V-49.377 Q65.78 -49.377 69.928 -45.285 Q74.076 -41.192 74.076 -35.286 Q74.076 -29.379 69.918 -25.267 Q65.759 -21.154 59.859 -21.154 Z M21.473 6.047 Q16.193 6.047 12.52 2.375 Q8.848 -1.298 8.848 -6.578 V-63.882 Q8.848 -69.162 12.52 -72.835 Q16.193 -76.507 21.473 -76.507 H98.527 Q103.807 -76.507 107.48 -72.835 Q111.152 -69.162 111.152 -63.882 V-6.578 Q111.152 -1.298 107.48 2.375 Q103.807 6.047 98.527 6.047 H21.473 Z"/></g><g id="Medium-M" transform="matrix(1 0 0 1 1689.91 1126)"><path d="M59.97 -9.154  67.035 -16.219 H79.011 V-28.165 L86.046 -35.23 L78.981 -42.295 V-54.241 H67.035 L59.97 -61.306 L52.935 -54.241 H40.959 V-42.295 L33.894 -35.23 L40.929 -28.195 V-16.219 H52.935 L59.97 -9.154 Z M59.94 -20.909 V-49.58 Q65.943 -49.58 70.132 -45.407 Q74.321 -41.233 74.321 -35.245 Q74.321 -29.257 70.121 -25.083 Q65.922 -20.909 59.94 -20.909 Z M20.984 4.661 Q16.519 4.661 13.376 1.519 Q10.234 -1.624 10.234 -6.089 V-64.371 Q10.234 -68.836 13.376 -71.979 Q16.519 -75.121 20.984 -75.121 H99.016 Q103.481 -75.121 106.624 -71.979 Q109.766 -68.836 109.766 -64.371 V-6.089 Q109.766 -1.624 106.624 1.519 Q103.481 4.661 99.016 4.661 H20.984 Z"/></g><g id="Regular-M" transform="matrix(1 0 0 1 1394.06 1126)"><path d="M60 -8.855  67.125 -15.98 H79.25 V-28.105 L86.375 -35.23 L79.25 -42.355 V-54.48 H67.125 L60 -61.605 L52.875 -54.48 H40.75 V-42.355 L33.625 -35.23 L40.75 -28.105 V-15.98 H52.875 L60 -8.855 Z M60 -20.73 V-49.73 Q66.062 -49.73 70.281 -45.496 Q74.5 -41.263 74.5 -35.215 Q74.5 -29.167 70.271 -24.949 Q66.042 -20.73 60 -20.73 Z M20.625 3.645 Q16.758 3.645 14.004 0.891 Q11.25 -1.863 11.25 -5.73 V-64.73 Q11.25 -68.597 14.004 -71.351 Q16.758 -74.105 20.625 -74.105 H99.375 Q103.242 -74.105 105.996 -71.351 Q108.75 -68.597 108.75 -64.73 V-5.73 Q108.75 -1.863 105.996 0.891 Q103.242 3.645 99.375 3.645 H20.625 Z"/></g><g id="Light-M" transform="matrix(1 0 0 1 1098.18 1126)"><path d="M60 -12.197  66.139 -18.336 H76.894 V-29.091 L83.033 -35.23 L76.894 -41.369 V-52.124 H66.139 L60 -58.263 L53.861 -52.124 H43.106 V-41.369 L36.967 -35.23 L43.106 -29.091 V-18.336 H53.861 L60 -12.197 Z M60 -21.884 V-48.576 Q65.582 -48.576 69.464 -44.673 Q73.346 -40.771 73.346 -35.21 Q73.346 -29.648 69.45 -25.766 Q65.553 -21.884 60 -21.884 Z M22.033 1.361 Q18.489 1.361 15.999 -1.128 Q13.51 -3.618 13.51 -7.163 V-63.297 Q13.51 -66.842 15.999 -69.332 Q18.489 -71.821 22.033 -71.821 H97.967 Q101.511 -71.821 104.001 -69.332 Q106.49 -66.842 106.49 -63.297 V-7.163 Q106.49 -3.618 104.001 -1.128 Q101.511 1.361 97.967 1.361 H22.033 Z"/></g><g id="Thin-M" transform="matrix(1 0 0 1 802.565 1126)"><path d="M60 -15.538  65.154 -20.691 H74.538 V-30.076 L79.692 -35.23 L74.538 -40.384 V-49.768 H65.154 L60 -54.922 L54.846 -49.768 H45.462 V-40.384 L40.308 -35.23 L45.462 -30.076 V-20.691 H54.846 L60 -15.538 Z M60 -23.038 V-47.422 Q65.101 -47.422 68.647 -43.851 Q72.192 -40.279 72.192 -35.204 Q72.192 -30.129 68.628 -26.583 Q65.064 -23.038 60 -23.038 Z M23.44 -0.922 Q20.219 -0.922 17.994 -3.147 Q15.769 -5.372 15.769 -8.596 V-61.864 Q15.769 -65.088 17.994 -67.313 Q20.219 -69.538 23.44 -69.538 H96.56 Q99.781 -69.538 102.006 -67.313 Q104.231 -65.088 104.231 -61.864 V-8.596 Q104.231 -5.372 102.006 -3.147 Q99.781 -0.922 96.56 -0.922 H23.44 Z"/></g><g id="Ultralight-M" transform="matrix(1 0 0 1 506.415 1126)"><path d="M60 -17.542  64.562 -22.105 H73.125 V-30.667 L77.688 -35.23 L73.125 -39.792 V-48.355 H64.562 L60 -52.917 L55.438 -48.355 H46.875 V-39.792 L42.312 -35.23 L46.875 -30.667 V-22.105 H55.438 L60 -17.542 Z M60 -23.73 V-46.73 Q64.812 -46.73 68.156 -43.357 Q71.5 -39.984 71.5 -35.201 Q71.5 -30.417 68.135 -27.074 Q64.771 -23.73 60 -23.73 Z M24.285 -2.292 Q21.258 -2.292 19.191 -4.359 Q17.125 -6.425 17.125 -9.455 V-61.005 Q17.125 -64.035 19.191 -66.101 Q21.258 -68.167 24.285 -68.167 H95.715 Q98.742 -68.167 100.809 -66.101 Q102.875 -64.035 102.875 -61.005 V-9.455 Q102.875 -6.425 100.809 -4.359 Q98.742 -2.292 95.715 -2.292 H24.285 Z"/></g><g id="Bold-S" transform="matrix(1 0 0 1 2294.23 696)"><path d="M47.241 -16.984  52.666 -22.409 H60.161 V-29.806 L65.487 -35.23 L60.063 -40.654 V-48.051 H52.666 L47.241 -53.476 L41.916 -48.051 H34.42 V-40.654 L28.996 -35.23 L34.322 -29.904 V-22.409 H41.916 L47.241 -16.984 Z M47.143 -26.748 V-43.81 Q50.743 -43.81 53.282 -41.358 Q55.822 -38.905 55.822 -35.317 Q55.822 -31.729 53.274 -29.239 Q50.726 -26.748 47.143 -26.748 Z M18.246 -4.36 Q13.547 -4.36 10.324 -7.585 Q7.101 -10.809 7.101 -15.509 V-54.983 Q7.101 -59.683 10.324 -62.891 Q13.547 -66.1 18.246 -66.1 H76.434 Q81.133 -66.1 84.356 -62.875 Q87.579 -59.651 87.579 -54.951 V-15.477 Q87.579 -10.777 84.356 -7.569 Q81.133 -4.36 76.434 -4.36 H18.246 Z"/></g><g id="Semibold-S" transform="matrix(1 0 0 1 1998.1 696)"><path d="M47.284 -16.556  52.794 -22.066 H60.504 V-29.72 L65.959 -35.23 L60.449 -40.74 V-48.394 H52.794 L47.284 -53.904 L41.83 -48.394 H34.12 V-40.74 L28.61 -35.23 L34.064 -29.776 V-22.066 H41.83 L47.284 -16.556 Z M47.229 -26.491 V-44.025 Q50.914 -44.025 53.497 -41.486 Q56.079 -38.948 56.079 -35.274 Q56.079 -31.6 53.488 -29.046 Q50.898 -26.491 47.229 -26.491 Z M17.731 -5.818 Q13.89 -5.818 11.225 -8.485 Q8.559 -11.152 8.559 -14.994 V-55.497 Q8.559 -59.34 11.225 -61.991 Q13.89 -64.642 17.731 -64.642 H76.949 Q80.79 -64.642 83.455 -61.975 Q86.121 -59.308 86.121 -55.466 V-14.963 Q86.121 -11.12 83.455 -8.469 Q80.79 -5.818 76.949 -5.818 H17.731 Z"/></g><g id="Medium-S" transform="matrix(1 0 0 1 1701.85 696)"><path d="M47.316 -16.234  52.891 -21.808 H60.762 V-29.656 L66.312 -35.23 L60.738 -40.804 V-48.652 H52.891 L47.316 -54.226 L41.766 -48.652 H33.895 V-40.804 L28.32 -35.23 L33.871 -29.679 V-21.808 H41.766 L47.316 -16.234 Z M47.293 -26.298 V-44.186 Q51.043 -44.186 53.657 -41.583 Q56.272 -38.98 56.272 -35.242 Q56.272 -31.504 53.649 -28.901 Q51.026 -26.298 47.293 -26.298 Z M17.345 -6.912 Q14.148 -6.912 11.9 -9.161 Q9.652 -11.409 9.652 -14.608 V-55.883 Q9.652 -59.083 11.9 -61.315 Q14.148 -63.548 17.345 -63.548 H77.335 Q80.532 -63.548 82.78 -61.299 Q85.028 -59.051 85.028 -55.852 V-14.577 Q85.028 -11.377 82.78 -9.145 Q80.532 -6.912 77.335 -6.912 H17.345 Z"/></g><g id="Regular-S" transform="matrix(1 0 0 1 1405.73 696)"><path d="M47.34 -15.998  52.962 -21.62 H60.95 V-29.608 L66.572 -35.23 L60.95 -40.852 V-48.84 H52.962 L47.34 -54.462 L41.718 -48.84 H33.73 V-40.852 L28.108 -35.23 L33.73 -29.608 V-21.62 H41.718 L47.34 -15.998 Z M47.34 -26.156 V-44.303 Q51.137 -44.303 53.775 -41.654 Q56.413 -39.004 56.413 -35.218 Q56.413 -31.433 53.767 -28.795 Q51.121 -26.156 47.34 -26.156 Z M17.062 -7.714 Q14.336 -7.714 12.395 -9.656 Q10.454 -11.598 10.454 -14.325 V-56.166 Q10.454 -58.894 12.395 -60.82 Q14.336 -62.746 17.062 -62.746 H77.618 Q80.344 -62.746 82.285 -60.804 Q84.226 -58.862 84.226 -56.135 V-14.294 Q84.226 -11.566 82.285 -9.64 Q80.344 -7.714 77.618 -7.714 H17.062 Z"/></g><g id="Light-S" transform="matrix(1 0 0 1 1109.75 696)"><path d="M47.34 -18.635  52.184 -23.479 H59.091 V-30.386 L63.935 -35.23 L59.091 -40.074 V-46.981 H52.184 L47.34 -51.825 L42.496 -46.981 H35.589 V-40.074 L30.745 -35.23 L35.589 -30.386 V-23.479 H42.496 L47.34 -18.635 Z M47.34 -27.067 V-43.393 Q50.758 -43.393 53.13 -41.004 Q55.503 -38.616 55.503 -35.214 Q55.503 -31.812 53.119 -29.44 Q50.735 -27.067 47.34 -27.067 Z M18.173 -9.516 Q15.702 -9.516 13.97 -11.249 Q12.237 -12.983 12.237 -15.456 V-55.036 Q12.237 -57.509 13.97 -59.227 Q15.702 -60.944 18.173 -60.944 H76.507 Q78.978 -60.944 80.71 -59.211 Q82.443 -57.477 82.443 -55.004 V-15.424 Q82.443 -12.951 80.71 -11.233 Q78.978 -9.516 76.507 -9.516 H18.173 Z"/></g><g id="Thin-S" transform="matrix(1 0 0 1 814.015 696)"><path d="M47.34 -21.271  51.406 -25.337 H57.233 V-31.164 L61.299 -35.23 L57.233 -39.296 V-45.123 H51.406 L47.34 -49.189 L43.274 -45.123 H37.447 V-39.296 L33.381 -35.23 L37.447 -31.164 V-25.337 H43.274 L47.34 -21.271 Z M47.34 -27.977 V-42.483 Q50.378 -42.483 52.486 -40.355 Q54.593 -38.227 54.593 -35.209 Q54.593 -32.192 52.471 -30.084 Q50.349 -27.977 47.34 -27.977 Z M19.283 -11.317 Q17.068 -11.317 15.544 -12.842 Q14.02 -14.367 14.02 -16.586 V-53.906 Q14.02 -56.125 15.544 -57.634 Q17.068 -59.143 19.283 -59.143 H75.397 Q77.612 -59.143 79.136 -57.618 Q80.66 -56.093 80.66 -53.874 V-16.554 Q80.66 -14.335 79.136 -12.826 Q77.612 -11.317 75.397 -11.317 H19.283 Z"/></g><g id="Ultralight-S" transform="matrix(1 0 0 1 517.792 696)"><path d="M47.34 -22.853  50.94 -26.452 H56.118 V-31.63 L59.717 -35.23 L56.118 -38.83 V-44.008 H50.94 L47.34 -47.607 L43.74 -44.008 H38.562 V-38.83 L34.963 -35.23 L38.562 -31.63 V-26.452 H43.74 L47.34 -22.853 Z M47.34 -28.523 V-41.936 Q50.151 -41.936 52.099 -39.965 Q54.047 -37.994 54.047 -35.207 Q54.047 -32.419 52.082 -30.471 Q50.118 -28.523 47.34 -28.523 Z M19.95 -12.398 Q17.887 -12.398 16.488 -13.798 Q15.09 -15.198 15.09 -17.265 V-53.227 Q15.09 -55.294 16.488 -56.678 Q17.887 -58.062 19.95 -58.062 H74.73 Q76.793 -58.062 78.192 -56.662 Q79.59 -55.262 79.59 -53.195 V-17.233 Q79.59 -15.166 78.192 -13.782 Q76.793 -12.398 74.73 -12.398 H19.95 Z"/></g></g></svg>