<svg xmlns="http://www.w3.org/2000/svg" height="24" viewBox="0 -960 960 960" width="24"><path d="M137-137v-52.471q0-23.779 16.891-40.654Q170.781-247 194.5-247h571q23.719 0 40.609 16.92Q823-213.16 823-189.4v52.4H137Zm110-187.5v-441q0-24.438 16.266-40.969Q279.531-823 304.5-823H656q24.438 0 40.969 16.531Q713.5-789.938 713.5-765.5v441H247Zm86.5-106h21q31.093 0 48.046-31.664 16.954-31.664 16.954-91t-16.954-91.586Q385.593-677 354.5-677h-21v246.5ZM553.204-504Q573.5-504 588-518.453q14.5-14.454 14.5-34.751 0-20.296-14.361-34.796t-34.528-14.5q-20.374 0-34.992 14.361Q504-573.778 504-553.611q0 20.374 14.453 34.992Q532.907-504 553.204-504Z"/></svg>