<svg xmlns="http://www.w3.org/2000/svg" height="48" viewBox="0 -960 960 960" width="48"><path d="m51-165 144-285.5q8-14 21.75-22.75t30.175-8.75q17.466 0 31.27 9.75Q292-462.5 300-446.5l37.5 88q6 13.5 22.312 12.536 16.313-.965 20.188-14.536l87.93-293.855Q482-698.5 519.416-726q37.415-27.5 83.758-27.5 45.826 0 83.012 26.451 37.186 26.452 51.856 70.68L910-165H51Zm180.25-407.5q-46.25 0-78.75-32.194T120-684q0-44.833 32.5-77.917Q185-795 231.25-795q45.25 0 78.25 33.018t33 77.757q0 47.225-33 79.475-33 32.25-78.25 32.25Z"/></svg>