<svg xmlns="http://www.w3.org/2000/svg" version="1.1" width="3300" height="2000"><g id="Notes"><style>
    text {
      font-family: monospace;
      text-anchor: middle;
    }
    text.emphasis {
      font-weight:bold;
    }
    text.lanchor {
      text-anchor: start;
    }
  </style><rect height="2200" id="artboard" fill="white" width="3300" x="0" y="0"/><line id="" style="fill:none;stroke:black;stroke-width:0.5;" x1="263" x2="3036" y1="292" y2="292"/><text class="lanchor emphasis" transform="matrix(1 0 0 1 263 322)">Weight/Scale Variations</text><text transform="matrix(1 0 0 1 559.711 322)">Ultralight</text><text transform="matrix(1 0 0 1 856.422 322)">Thin</text><text transform="matrix(1 0 0 1 1153.13 322)">Light</text><text transform="matrix(1 0 0 1 1449.84 322)">Regular</text><text transform="matrix(1 0 0 1 1746.56 322)">Medium</text><text transform="matrix(1 0 0 1 2043.27 322)">Semibold</text><text transform="matrix(1 0 0 1 2339.98 322)">Bold</text><text transform="matrix(1 0 0 1 2636.69 322)">Heavy</text><text transform="matrix(1 0 0 1 2933.4 322)">Black</text><text id="template-version" style="text-anchor: end;" transform="matrix(1 0 0 1 3036 1933)">Template v.1.0</text><text class="lanchor" transform="matrix(1 0 0 1 263 726)">Small</text><text class="lanchor" transform="matrix(1 0 0 1 263 1156)">Medium</text><text class="lanchor" transform="matrix(1 0 0 1 263 1586)">Large</text></g><g id="Guides"><g id="H-reference" style="fill:#27AAE1;stroke:none;" transform="matrix(1 0 0 1 339 696)"><path d="M 54.9316 0 L 57.666 0 L 30.5664 -70.459 L 28.0762 -70.459 L 0.976562 0 L 3.66211 0 L 12.9395 -24.4629 L 45.7031 -24.4629 Z M 29.1992 -67.0898 L 29.4434 -67.0898 L 44.8242 -26.709 L 13.8184 -26.709 Z"/></g><line id="Baseline-S" style="fill:none;stroke:#27AAE1;opacity:1;stroke-width:0.577;" x1="263" x2="3036" y1="696" y2="696"/><line id="Capline-S" style="fill:none;stroke:#27AAE1;opacity:1;stroke-width:0.577;" x1="263" x2="3036" y1="625.541" y2="625.541"/><g id="H-reference" style="fill:#27AAE1;stroke:none;" transform="matrix(1 0 0 1 339 1126)"><path d="M 54.9316 0 L 57.666 0 L 30.5664 -70.459 L 28.0762 -70.459 L 0.976562 0 L 3.66211 0 L 12.9395 -24.4629 L 45.7031 -24.4629 Z M 29.1992 -67.0898 L 29.4434 -67.0898 L 44.8242 -26.709 L 13.8184 -26.709 Z"/></g><line id="Baseline-M" style="fill:none;stroke:#27AAE1;opacity:1;stroke-width:0.577;" x1="263" x2="3036" y1="1126" y2="1126"/><line id="Capline-M" style="fill:none;stroke:#27AAE1;opacity:1;stroke-width:0.577;" x1="263" x2="3036" y1="1055.54" y2="1055.54"/><g id="H-reference" style="fill:#27AAE1;stroke:none;" transform="matrix(1 0 0 1 339 1556)"><path d="M 54.9316 0 L 57.666 0 L 30.5664 -70.459 L 28.0762 -70.459 L 0.976562 0 L 3.66211 0 L 12.9395 -24.4629 L 45.7031 -24.4629 Z M 29.1992 -67.0898 L 29.4434 -67.0898 L 44.8242 -26.709 L 13.8184 -26.709 Z"/></g><line id="Baseline-L" style="fill:none;stroke:#27AAE1;opacity:1;stroke-width:0.577;" x1="263" x2="3036" y1="1556" y2="1556"/><line id="Capline-L" style="fill:none;stroke:#27AAE1;opacity:1;stroke-width:0.577;" x1="263" x2="3036" y1="1485.54" y2="1485.54"/><rect height="119.336" id="left-margin" style="fill:darkred;stroke:none;opacity:0.4;" width="12.4512" x="1394.06" y="1030.79"/><rect height="119.336" id="right-margin" style="fill:darkgreen;stroke:none;opacity:0.4;" width="12.4512" x="1502.5112" y="1030.79"/><rect x="1406.5112" y="1045" width="96" height="96" fill="none" stroke="blue" stroke-dasharray="5"/><rect x="1394.06" y="1030.79" width="120.9024" height="119.336" fill="none" stroke="blue"/></g><g id="Symbols"><g id="Bold-L" transform="matrix(1 0 0 1 2266 1556)"><path d="M101.104 17.015 H109.65 V-4.109 H101.104 V17.015 Z M105.204 -10.236 Q106.84 -10.236 108.245 -11.573 Q109.65 -12.911 109.65 -14.613 Q109.65 -16.315 108.118 -17.63 Q106.586 -18.944 105.296 -18.944 Q103.523 -18.944 102.313 -17.516 Q101.104 -16.087 101.104 -14.521 Q101.104 -12.954 102.256 -11.595 Q103.407 -10.236 105.204 -10.236 Z M45.311 -25.394 H71.843 Q73.776 -28.674 76.578 -31.361 Q79.38 -34.049 82.721 -36.359 H45.311 V-25.394 Z M45.311 1.858 H65.145 Q64.823 -0.884 64.742 -3.544 Q64.661 -6.205 65.145 -9.269 H45.311 V1.858 Z M30.476 32.656 Q24.708 32.656 20.255 28.317 Q15.803 23.977 15.803 17.983 V-88.442 Q15.803 -94.504 20.255 -98.891 Q24.708 -103.277 30.476 -103.277 H89.171 L126.259 -66.512 V-37.649 Q122.585 -39.584 118.859 -40.632 Q115.133 -41.68 111.424 -42.164 V-59.095 H81.431 V-88.442 H30.476 Q30.476 -88.442 30.476 -88.442 Q30.476 -88.442 30.476 -88.442 V17.983 Q30.476 17.983 30.476 17.983 Q30.476 17.983 30.476 17.983 H70.466 Q73.014 22.774 76.49 26.681 Q79.966 30.588 84.495 32.656 H30.476 Z M105.281 -33.295 Q117.956 -33.295 126.945 -24.241 Q135.934 -15.187 135.934 -2.512 Q135.934 10.163 126.929 19.152 Q117.924 28.141 105.318 28.141 Q92.645 28.141 83.571 19.136 Q74.498 10.131 74.498 -2.475 Q74.498 -15.147 83.552 -24.221 Q92.606 -33.295 105.281 -33.295 Z"/></g><g id="Semibold-L" transform="matrix(1 0 0 1 1970.27 1556)"><path d="M102.015 17.926 H110.351 V-3.478 H102.015 V17.926 Z M106.12 -9.605 Q107.781 -9.605 109.066 -10.898 Q110.351 -12.19 110.351 -13.937 Q110.351 -15.614 108.924 -16.893 Q107.498 -18.173 106.137 -18.173 Q104.364 -18.173 103.189 -16.804 Q102.015 -15.436 102.015 -13.845 Q102.015 -12.253 103.157 -10.929 Q104.299 -9.605 106.12 -9.605 Z M44.68 -25.253 H71.773 Q73.795 -28.515 76.613 -31.258 Q79.43 -34.001 82.791 -36.359 H44.68 V-25.253 Z M44.68 2.418 H64.724 Q64.402 -0.323 64.426 -3.054 Q64.451 -5.784 64.935 -8.778 H44.68 V2.418 Z M29.705 32.306 Q24.431 32.306 20.362 28.301 Q16.293 24.296 16.293 18.894 V-89.354 Q16.293 -94.793 20.362 -98.825 Q24.431 -102.857 29.705 -102.857 H87.909 L125.698 -65.321 V-38.63 Q122.375 -40.215 118.999 -41.193 Q115.623 -42.171 112.195 -42.584 V-58.744 H81.011 V-89.354 H29.705 Q29.705 -89.354 29.705 -89.354 Q29.705 -89.354 29.705 -89.354 V18.894 Q29.705 18.894 29.705 18.894 Q29.705 18.894 29.705 18.894 H70.046 Q72.327 23.074 75.27 26.586 Q78.214 30.098 82.041 32.306 H29.705 Z M106.119 -33.646 Q119.288 -33.646 128.662 -24.244 Q138.037 -14.842 138.037 -1.673 Q138.037 11.495 128.663 20.87 Q119.288 30.244 106.159 30.244 Q92.992 30.244 83.569 20.87 Q74.147 11.496 74.147 -1.633 Q74.147 -14.8 83.549 -24.223 Q92.951 -33.646 106.119 -33.646 Z"/></g><g id="Medium-L" transform="matrix(1 0 0 1 1674.31 1556)"><path d="M102.699 18.61 H110.877 V-3.005 H102.699 V18.61 Z M106.808 -9.132 Q108.487 -9.132 109.682 -10.39 Q110.877 -11.649 110.877 -13.43 Q110.877 -15.088 109.529 -16.341 Q108.181 -17.594 106.768 -17.594 Q104.995 -17.594 103.847 -16.271 Q102.699 -14.948 102.699 -13.338 Q102.699 -11.727 103.833 -10.43 Q104.967 -9.132 106.808 -9.132 Z M44.207 -25.148 H71.72 Q73.81 -28.396 76.639 -31.181 Q79.468 -33.966 82.844 -36.359 H44.207 V-25.148 Z M44.207 2.839 H64.409 Q64.086 0.098 64.19 -2.686 Q64.293 -5.469 64.777 -8.41 H44.207 V2.839 Z M29.127 32.043 Q24.223 32.043 20.442 28.289 Q16.661 24.535 16.661 19.577 V-90.037 Q16.661 -95.011 20.442 -98.776 Q24.223 -102.541 29.127 -102.541 H86.963 L125.277 -64.427 V-39.366 Q122.218 -40.688 119.104 -41.613 Q115.991 -42.539 112.773 -42.9 V-58.482 H80.695 V-90.037 H29.127 Q29.127 -90.037 29.127 -90.037 Q29.127 -90.037 29.127 -90.037 V19.577 Q29.127 19.577 29.127 19.577 Q29.127 19.577 29.127 19.577 H69.73 Q71.812 23.3 74.355 26.515 Q76.899 29.729 80.201 32.043 H29.127 Z M106.748 -33.908 Q120.287 -33.908 129.951 -24.246 Q139.614 -14.583 139.614 -1.044 Q139.614 12.495 129.963 22.158 Q120.312 31.822 106.79 31.822 Q93.252 31.822 83.568 22.171 Q73.884 12.52 73.884 -1.002 Q73.884 -14.54 83.547 -24.224 Q93.21 -33.908 106.748 -33.908 Z"/></g><g id="Regular-L" transform="matrix(1 0 0 1 1378.56 1556)"><path d="M103.2 19.111 H111.263 V-2.657 H103.2 V19.111 Z M107.312 -8.785 Q109.005 -8.785 110.134 -10.019 Q111.263 -11.252 111.263 -13.058 Q111.263 -14.703 109.972 -15.936 Q108.683 -17.17 107.231 -17.17 Q105.457 -17.17 104.329 -15.88 Q103.2 -14.59 103.2 -12.966 Q103.2 -11.342 104.329 -10.064 Q105.457 -8.785 107.312 -8.785 Z M43.86 -25.071 H71.682 Q73.82 -28.309 76.658 -31.125 Q79.496 -33.94 82.883 -36.359 H43.86 V-25.071 Z M43.86 3.148 H64.177 Q63.855 0.406 64.016 -2.416 Q64.177 -5.237 64.661 -8.14 H43.86 V3.148 Z M28.703 31.85 Q24.071 31.85 20.501 28.28 Q16.931 24.711 16.931 20.079 V-90.539 Q16.931 -95.171 20.501 -98.74 Q24.071 -102.31 28.703 -102.31 H86.269 L124.969 -63.771 V-39.906 Q122.102 -41.035 119.181 -41.922 Q116.261 -42.809 113.198 -43.131 V-58.289 H80.464 V-90.539 H28.703 Q28.703 -90.539 28.703 -90.539 Q28.703 -90.539 28.703 -90.539 V20.079 Q28.703 20.079 28.703 20.079 Q28.703 20.079 28.703 20.079 H69.499 Q71.434 23.465 73.684 26.462 Q75.935 29.459 78.851 31.85 H28.703 Z M107.21 -34.101 Q121.02 -34.101 130.895 -24.247 Q140.771 -14.393 140.771 -0.583 Q140.771 13.227 130.917 23.103 Q121.063 32.979 107.253 32.979 Q93.443 32.979 83.567 23.125 Q73.691 13.271 73.691 -0.54 Q73.691 -14.35 83.545 -24.225 Q93.399 -34.101 107.21 -34.101 Z"/></g><g id="Light-L" transform="matrix(1 0 0 1 1082.77 1556)"><path d="M102.456 15.452 H109.774 V-3.526 H102.456 V15.452 Z M106.195 -9.157 Q107.765 -9.095 108.769 -10.222 Q109.774 -11.35 109.774 -13.014 Q109.774 -14.517 108.577 -15.626 Q107.38 -16.736 106.115 -16.736 Q104.465 -16.736 103.46 -15.57 Q102.456 -14.404 102.456 -12.904 Q102.456 -11.466 103.46 -10.312 Q104.465 -9.157 106.195 -9.157 Z M45.535 -25.816 H71.188 Q72.89 -28.309 75.108 -30.566 Q77.325 -32.824 79.967 -34.746 H45.535 V-25.816 Z M45.535 1.969 H63.867 Q63.607 -0.214 63.737 -2.416 Q63.867 -4.617 64.227 -6.962 H45.535 V1.969 Z M31.556 28.625 Q27 28.625 23.578 25.203 Q20.156 21.782 20.156 17.226 V-87.686 Q20.156 -92.242 23.578 -95.663 Q27 -99.085 31.556 -99.085 H86.951 L121.744 -64.453 V-40.899 Q119.373 -41.841 117.042 -42.542 Q114.711 -43.243 112.329 -43.503 V-60.025 H82.324 V-89.67 H31.556 Q30.811 -89.67 30.191 -89.05 Q29.571 -88.43 29.571 -87.686 V17.226 Q29.571 17.97 30.191 18.59 Q30.811 19.21 31.556 19.21 H69.561 Q71.062 21.914 72.816 24.323 Q74.571 26.73 76.805 28.625 H31.556 Z M106.093 -32.365 Q118.663 -32.365 127.67 -23.379 Q136.678 -14.393 136.678 -1.792 Q136.678 10.808 127.692 19.816 Q118.706 28.823 106.105 28.823 Q93.505 28.823 84.497 19.84 Q75.49 10.856 75.49 -1.78 Q75.49 -14.35 84.473 -23.357 Q93.457 -32.365 106.093 -32.365 Z"/></g><g id="Thin-L" transform="matrix(1 0 0 1 787.282 1556)"><path d="M101.712 11.793 H108.286 V-4.394 H101.712 V11.793 Z M105.079 -9.529 Q106.524 -9.405 107.405 -10.426 Q108.286 -11.447 108.286 -12.97 Q108.286 -14.331 107.182 -15.316 Q106.078 -16.302 104.999 -16.302 Q103.473 -16.302 102.592 -15.26 Q101.712 -14.218 101.712 -12.842 Q101.712 -11.59 102.592 -10.56 Q103.473 -9.529 105.079 -9.529 Z M47.209 -26.56 H70.695 Q71.96 -28.309 73.557 -30.008 Q75.155 -31.707 77.053 -33.134 H47.209 V-26.56 Z M47.209 0.791 H63.557 Q63.359 -0.834 63.458 -2.416 Q63.557 -3.997 63.793 -5.783 H47.209 V0.791 Z M34.408 25.4 Q29.928 25.4 26.655 22.126 Q23.381 18.853 23.381 14.373 V-84.833 Q23.381 -89.313 26.655 -92.586 Q29.928 -95.86 34.408 -95.86 H87.633 L118.519 -65.136 V-41.891 Q116.644 -42.647 114.902 -43.162 Q113.16 -43.677 111.461 -43.875 V-61.762 H84.185 V-88.802 H34.408 Q32.92 -88.802 31.679 -87.562 Q30.439 -86.321 30.439 -84.833 V14.373 Q30.439 15.861 31.679 17.102 Q32.92 18.342 34.408 18.342 H69.623 Q70.69 20.364 71.948 22.183 Q73.206 24.002 74.758 25.4 H34.408 Z M104.977 -30.628 Q116.306 -30.628 124.445 -22.511 Q132.585 -14.393 132.585 -3.002 Q132.585 8.39 124.467 16.529 Q116.35 24.668 104.958 24.668 Q93.567 24.668 85.428 16.555 Q77.288 8.442 77.288 -3.02 Q77.288 -14.35 85.401 -22.489 Q93.514 -30.628 104.977 -30.628 Z"/></g><g id="Ultralight-L" transform="matrix(1 0 0 1 491.205 1556)"><path d="M101.265 9.598 H107.392 V-4.915 H101.265 V9.598 Z M104.409 -9.752 Q105.78 -9.591 106.586 -10.548 Q107.392 -11.505 107.392 -12.943 Q107.392 -14.219 106.344 -15.13 Q105.296 -16.041 104.329 -16.041 Q102.877 -16.041 102.071 -15.074 Q101.265 -14.106 101.265 -12.805 Q101.265 -11.664 102.071 -10.709 Q102.877 -9.752 104.409 -9.752 Z M48.214 -27.006 H70.399 Q71.401 -28.309 72.627 -29.673 Q73.853 -31.037 75.304 -32.166 H48.214 V-27.006 Z M48.214 0.084 H63.371 Q63.21 -1.206 63.291 -2.416 Q63.371 -3.625 63.532 -5.076 H48.214 V0.084 Z M36.12 23.465 Q31.686 23.465 28.501 20.28 Q25.316 17.096 25.316 12.661 V-83.121 Q25.316 -87.556 28.501 -90.74 Q31.686 -93.925 36.12 -93.925 H88.043 L116.584 -65.545 V-42.486 Q115.007 -43.131 113.618 -43.534 Q112.23 -43.937 110.94 -44.099 V-62.804 H85.301 V-88.281 H36.12 Q34.185 -88.281 32.572 -86.669 Q30.96 -85.056 30.96 -83.121 V12.661 Q30.96 14.596 32.572 16.209 Q34.185 17.821 36.12 17.821 H69.66 Q70.466 19.434 71.427 20.899 Q72.388 22.364 73.53 23.465 H36.12 Z M104.307 -29.586 Q114.892 -29.586 122.51 -21.99 Q130.129 -14.393 130.129 -3.727 Q130.129 6.938 122.532 14.557 Q114.936 22.175 104.27 22.175 Q93.604 22.175 85.986 14.584 Q78.368 6.994 78.368 -3.765 Q78.368 -14.35 85.958 -21.968 Q93.549 -29.586 104.307 -29.586 Z"/></g><g id="Bold-M" transform="matrix(1 0 0 1 2281.8 1126)"><path d="M81.75 4.895 H90.25 V-9.98 H81.75 V4.895 Z M85.848 -14.73 Q87.571 -14.73 88.911 -16.042 Q90.25 -17.355 90.25 -19.042 Q90.25 -20.855 88.938 -22.042 Q87.625 -23.23 86 -23.23 Q84.125 -23.23 82.938 -21.998 Q81.75 -20.766 81.75 -19.087 Q81.75 -17.409 82.938 -16.069 Q84.125 -14.73 85.848 -14.73 Z M34.25 -24.605 H53 Q54.715 -28.263 57.303 -31.464 Q59.891 -34.665 63 -37.355 H34.25 V-24.605 Z M34.25 -4.105 H50 Q49.5 -7.23 49.562 -10.417 Q49.625 -13.605 50.25 -16.98 H34.25 V-4.105 Z M26.25 20.52 Q19.284 20.52 14.267 15.59 Q9.25 10.661 9.25 3.52 V-73.98 Q9.25 -81.121 14.267 -86.05 Q19.284 -90.98 26.25 -90.98 H66.125 L100.75 -56.605 V-42.355 Q96.625 -44.23 92.312 -44.98 Q88 -45.73 83.75 -45.48 V-47.73 H57.375 V-73.98 H26.25 Q26.25 -73.98 26.25 -73.98 Q26.25 -73.98 26.25 -73.98 V3.52 Q26.25 3.52 26.25 3.52 Q26.25 3.52 26.25 3.52 H51.875 Q54 8.77 57.438 13.145 Q60.875 17.52 65.375 20.52 H26.25 Z M86.005 -35.605 Q96.875 -35.605 104.562 -27.85 Q112.25 -20.095 112.25 -9.225 Q112.25 1.645 104.533 9.333 Q96.816 17.02 86 17.02 Q75.132 17.02 67.378 9.303 Q59.625 1.586 59.625 -9.23 Q59.625 -20.098 67.38 -27.852 Q75.135 -35.605 86.005 -35.605 Z"/></g><g id="Semibold-M" transform="matrix(1 0 0 1 1985.97 1126)"><path d="M82.62 5.656 H90.685 V-9.817 H82.62 V5.656 Z M86.566 -14.621 Q88.247 -14.621 89.466 -15.852 Q90.685 -17.083 90.685 -18.744 Q90.685 -20.475 89.454 -21.608 Q88.223 -22.741 86.652 -22.741 Q84.886 -22.741 83.753 -21.555 Q82.62 -20.37 82.62 -18.753 Q82.62 -17.137 83.753 -15.879 Q84.886 -14.621 86.566 -14.621 Z M33.761 -24.551 H53 Q54.73 -28.194 57.28 -31.362 Q59.83 -34.53 62.891 -37.192 H33.761 V-24.551 Z M33.761 -3.725 H49.674 Q49.228 -6.85 49.345 -10.01 Q49.462 -13.17 50.087 -16.436 H33.761 V-3.725 Z M25.489 19.759 Q19.176 19.759 14.648 15.281 Q10.12 10.802 10.12 4.39 V-74.849 Q10.12 -81.262 14.648 -85.74 Q19.176 -90.219 25.489 -90.219 H64.984 L99.88 -55.518 V-43.279 Q96.136 -44.773 92.258 -45.415 Q88.38 -46.056 84.511 -45.806 V-47.621 H57.212 V-74.849 H25.489 Q25.489 -74.849 25.489 -74.849 Q25.489 -74.849 25.489 -74.849 V4.39 Q25.489 4.39 25.489 4.39 Q25.489 4.39 25.489 4.39 H51.658 Q53.456 8.987 56.324 12.901 Q59.19 16.814 62.929 19.759 H25.489 Z M86.655 -35.877 Q97.907 -35.877 105.894 -27.852 Q113.88 -19.828 113.88 -8.575 Q113.88 2.678 105.877 10.664 Q97.874 18.65 86.652 18.65 Q75.401 18.65 67.377 10.647 Q59.353 2.644 59.353 -8.578 Q59.353 -19.829 67.378 -27.853 Q75.402 -35.877 86.655 -35.877 Z"/></g><g id="Medium-M" transform="matrix(1 0 0 1 1689.91 1126)"><path d="M83.272 6.227 H91.011 V-9.695 H83.272 V6.227 Z M87.105 -14.54 Q88.754 -14.54 89.882 -15.71 Q91.011 -16.879 91.011 -18.519 Q91.011 -20.189 89.841 -21.282 Q88.671 -22.374 87.141 -22.374 Q85.457 -22.374 84.364 -21.223 Q83.272 -20.073 83.272 -18.503 Q83.272 -16.933 84.364 -15.736 Q85.457 -14.54 87.105 -14.54 Z M33.394 -24.51 H53 Q54.742 -28.143 57.263 -31.286 Q59.784 -34.429 62.81 -37.07 H33.394 V-24.51 Z M33.394 -3.439 H49.429 Q49.025 -6.564 49.182 -9.704 Q49.34 -12.844 49.965 -16.029 H33.394 V-3.439 Z M24.919 19.189 Q19.094 19.189 14.933 15.048 Q10.772 10.908 10.772 5.042 V-75.502 Q10.772 -81.368 14.933 -85.508 Q19.094 -89.648 24.919 -89.648 H64.128 L99.228 -54.703 V-43.972 Q95.769 -45.181 92.217 -45.741 Q88.666 -46.301 85.082 -46.051 V-47.54 H57.09 V-75.502 H24.919 Q24.919 -75.502 24.919 -75.502 Q24.919 -75.502 24.919 -75.502 V5.042 Q24.919 5.042 24.919 5.042 Q24.919 5.042 24.919 5.042 H51.495 Q53.049 9.15 55.488 12.717 Q57.927 16.284 61.095 19.189 H24.919 Z M87.142 -36.08 Q98.682 -36.08 106.893 -27.854 Q115.103 -19.627 115.103 -8.087 Q115.103 3.452 106.886 11.663 Q98.668 19.873 87.141 19.873 Q75.602 19.873 67.376 11.656 Q59.15 3.438 59.15 -8.089 Q59.15 -19.628 67.376 -27.854 Q75.603 -36.08 87.142 -36.08 Z"/></g><g id="Regular-M" transform="matrix(1 0 0 1 1394.06 1126)"><path d="M83.75 6.645 H91.25 V-9.605 H83.75 V6.645 Z M87.5 -14.48 Q89.125 -14.48 90.188 -15.605 Q91.25 -16.73 91.25 -18.355 Q91.25 -19.98 90.125 -21.042 Q89 -22.105 87.5 -22.105 Q85.875 -22.105 84.812 -20.98 Q83.75 -19.855 83.75 -18.319 Q83.75 -16.784 84.812 -15.632 Q85.875 -14.48 87.5 -14.48 Z M33.125 -24.48 H53 Q54.75 -28.105 57.25 -31.23 Q59.75 -34.355 62.75 -36.98 H33.125 V-24.48 Z M33.125 -3.23 H49.25 Q48.875 -6.355 49.062 -9.48 Q49.25 -12.605 49.875 -15.73 H33.125 V-3.23 Z M24.5 18.77 Q19.034 18.77 15.142 14.878 Q11.25 10.986 11.25 5.52 V-75.98 Q11.25 -81.446 15.142 -85.338 Q19.034 -89.23 24.5 -89.23 H63.5 L98.75 -54.105 V-44.48 Q95.5 -45.48 92.188 -45.98 Q88.875 -46.48 85.5 -46.23 V-47.48 H57 V-75.98 H24.5 Q24.5 -75.98 24.5 -75.98 Q24.5 -75.98 24.5 -75.98 V5.52 Q24.5 5.52 24.5 5.52 Q24.5 5.52 24.5 5.52 H51.375 Q52.75 9.27 54.875 12.583 Q57 15.895 59.75 18.77 H24.5 Z M87.5 -36.23 Q99.25 -36.23 107.625 -27.855 Q116 -19.48 116 -7.73 Q116 4.02 107.625 12.395 Q99.25 20.77 87.5 20.77 Q75.75 20.77 67.375 12.395 Q59 4.02 59 -7.73 Q59 -19.48 67.375 -27.855 Q75.75 -36.23 87.5 -36.23 Z"/></g><g id="Light-M" transform="matrix(1 0 0 1 1098.18 1126)"><path d="M82.308 4.145 H89.231 V-9.605 H82.308 V4.145 Z M85.769 -14.047 Q87.298 -13.999 88.264 -15.052 Q89.231 -16.105 89.231 -17.634 Q89.231 -19.163 88.178 -20.129 Q87.125 -21.095 85.769 -21.095 Q84.24 -21.095 83.274 -20.066 Q82.308 -19.038 82.308 -17.598 Q82.308 -16.207 83.274 -15.127 Q84.24 -14.047 85.769 -14.047 Z M34.375 -25.73 H53.24 Q54.702 -28.586 56.745 -31.086 Q58.788 -33.586 61.163 -35.73 H34.375 V-25.73 Z M34.375 -4.48 H48.962 Q48.683 -6.98 48.87 -9.456 Q49.058 -11.932 49.538 -14.48 H34.375 V-4.48 Z M26.039 16.27 Q20.91 16.27 17.33 12.69 Q13.75 9.111 13.75 3.981 V-74.441 Q13.75 -79.57 17.33 -83.15 Q20.91 -86.73 26.039 -86.73 H64.75 L96.25 -55.355 V-43.855 Q93.529 -44.663 90.865 -45.09 Q88.202 -45.518 85.5 -45.316 V-49.98 H59.5 V-75.98 H26.039 Q25.462 -75.98 24.981 -75.499 Q24.5 -75.018 24.5 -74.441 V3.981 Q24.5 4.558 24.981 5.039 Q25.462 5.52 26.039 5.52 H51.808 Q52.894 8.549 54.562 11.236 Q56.231 13.924 58.404 16.27 H26.039 Z M85.769 -34.499 Q96.509 -34.499 104.139 -26.869 Q111.769 -19.24 111.769 -8.499 Q111.769 2.241 104.139 9.871 Q96.509 17.501 85.769 17.501 Q75.029 17.501 67.399 9.871 Q59.769 2.241 59.769 -8.499 Q59.769 -19.24 67.399 -26.869 Q75.029 -34.499 85.769 -34.499 Z"/></g><g id="Thin-M" transform="matrix(1 0 0 1 802.565 1126)"><path d="M80.865 1.645 H87.212 V-9.605 H80.865 V1.645 Z M84.038 -13.615 Q85.471 -13.518 86.341 -14.499 Q87.212 -15.48 87.212 -16.913 Q87.212 -18.345 86.231 -19.216 Q85.25 -20.086 84.038 -20.086 Q82.606 -20.086 81.736 -19.153 Q80.865 -18.22 80.865 -16.877 Q80.865 -15.63 81.736 -14.622 Q82.606 -13.615 84.038 -13.615 Z M35.625 -26.98 H53.481 Q54.654 -29.066 56.24 -30.941 Q57.827 -32.816 59.577 -34.48 H35.625 V-26.98 Z M35.625 -5.73 H48.673 Q48.49 -7.605 48.678 -9.432 Q48.865 -11.259 49.202 -13.23 H35.625 V-5.73 Z M27.577 13.77 Q22.784 13.77 19.517 10.503 Q16.25 7.236 16.25 2.443 V-72.903 Q16.25 -77.696 19.517 -80.963 Q22.784 -84.23 27.577 -84.23 H66 L93.75 -56.605 V-43.23 Q91.558 -43.845 89.543 -44.201 Q87.529 -44.557 85.5 -44.403 V-52.48 H62 V-75.98 H27.577 Q26.423 -75.98 25.462 -75.018 Q24.5 -74.057 24.5 -72.903 V2.443 Q24.5 3.597 25.462 4.559 Q26.423 5.52 27.577 5.52 H52.24 Q53.038 7.828 54.25 9.89 Q55.462 11.953 57.058 13.77 H27.577 Z M84.038 -32.768 Q93.769 -32.768 100.654 -25.884 Q107.538 -18.999 107.538 -9.268 Q107.538 0.462 100.654 7.347 Q93.769 14.232 84.038 14.232 Q74.308 14.232 67.423 7.347 Q60.538 0.462 60.538 -9.268 Q60.538 -18.999 67.423 -25.884 Q74.308 -32.768 84.038 -32.768 Z"/></g><g id="Ultralight-M" transform="matrix(1 0 0 1 506.415 1126)"><path d="M80 0.145 H86 V-9.605 H80 V0.145 Z M83 -13.355 Q84.375 -13.23 85.188 -14.167 Q86 -15.105 86 -16.48 Q86 -17.855 85.062 -18.667 Q84.125 -19.48 83 -19.48 Q81.625 -19.48 80.812 -18.605 Q80 -17.73 80 -16.444 Q80 -15.284 80.812 -14.319 Q81.625 -13.355 83 -13.355 Z M36.375 -27.73 H53.625 Q54.625 -29.355 55.938 -30.855 Q57.25 -32.355 58.625 -33.73 H36.375 V-27.73 Z M36.375 -6.48 H48.5 Q48.375 -7.98 48.562 -9.417 Q48.75 -10.855 49 -12.48 H36.375 V-6.48 Z M28.5 12.27 Q23.909 12.27 20.83 9.19 Q17.75 6.111 17.75 1.52 V-71.98 Q17.75 -76.571 20.83 -79.65 Q23.909 -82.73 28.5 -82.73 H66.75 L92.25 -57.355 V-42.855 Q90.375 -43.355 88.75 -43.667 Q87.125 -43.98 85.5 -43.855 V-53.98 H63.5 V-75.98 H28.5 Q27 -75.98 25.75 -74.73 Q24.5 -73.48 24.5 -71.98 V1.52 Q24.5 3.02 25.75 4.27 Q27 5.52 28.5 5.52 H52.5 Q53.125 7.395 54.062 9.083 Q55 10.77 56.25 12.27 H28.5 Z M83 -31.73 Q92.125 -31.73 98.562 -25.292 Q105 -18.855 105 -9.73 Q105 -0.605 98.562 5.833 Q92.125 12.27 83 12.27 Q73.875 12.27 67.438 5.833 Q61 -0.605 61 -9.73 Q61 -18.855 67.438 -25.292 Q73.875 -31.73 83 -31.73 Z"/></g><g id="Bold-S" transform="matrix(1 0 0 1 2294.23 696)"><path d="M63.317 -6.727 H70.813 V-12.152 H63.317 V-6.727 Z M66.896 -16.688 Q68.502 -16.688 69.657 -17.773 Q70.813 -18.858 70.813 -20.436 Q70.813 -22.113 69.659 -23.148 Q68.505 -24.184 67.065 -24.184 Q65.29 -24.184 64.303 -23.094 Q63.317 -22.003 63.317 -20.521 Q63.317 -18.901 64.303 -17.794 Q65.29 -16.688 66.896 -16.688 Z M27.812 -25.269 H41.718 Q42.746 -27.867 44.359 -30.142 Q45.972 -32.417 48.03 -34.54 H27.812 V-25.269 Z M27.812 -10.672 H40.338 Q39.845 -12.842 39.845 -15.209 Q39.845 -17.576 40.239 -20.042 H27.812 V-10.672 Z M22.289 7.179 Q17.119 7.179 13.392 3.521 Q9.665 -0.137 9.665 -5.445 V-65.015 Q9.665 -70.323 13.392 -73.981 Q17.119 -77.639 22.289 -77.639 H52.962 L75.547 -55.251 V-40.753 Q72.391 -42.035 69.136 -42.38 Q65.882 -42.725 62.923 -42.331 V-47.459 H45.269 V-65.015 H22.289 Q22.289 -65.015 22.289 -65.015 Q22.289 -65.015 22.289 -65.015 V-5.445 Q22.289 -5.445 22.289 -5.445 Q22.289 -5.445 22.289 -5.445 H41.817 Q43.494 -1.5 46.058 1.754 Q48.622 5.009 52.074 7.179 H22.289 Z M67.091 -35.526 Q75.35 -35.526 81.168 -29.632 Q86.987 -23.737 86.987 -15.479 Q86.987 -7.22 81.123 -1.402 Q75.259 4.417 67.043 4.417 Q58.786 4.417 52.915 -1.447 Q47.044 -7.311 47.044 -15.527 Q47.044 -23.784 52.938 -29.655 Q58.833 -35.526 67.091 -35.526 Z"/></g><g id="Semibold-S" transform="matrix(1 0 0 1 1998.1 696)"><path d="M64.003 -6.127 H71.156 V-12.023 H64.003 V-6.127 Z M67.463 -16.603 Q69.035 -16.603 70.095 -17.623 Q71.156 -18.644 71.156 -20.2 Q71.156 -21.813 70.066 -22.805 Q68.977 -23.798 67.58 -23.798 Q65.89 -23.798 64.947 -22.744 Q64.003 -21.691 64.003 -20.257 Q64.003 -18.686 64.947 -17.644 Q65.89 -16.603 67.463 -16.603 Z M27.426 -25.226 H41.718 Q42.758 -27.813 44.341 -30.062 Q45.924 -32.311 47.945 -34.411 H27.426 V-25.226 Z M27.426 -10.372 H40.08 Q39.63 -12.542 39.673 -14.888 Q39.716 -17.233 40.11 -19.613 H27.426 V-10.372 Z M21.689 6.578 Q17.033 6.578 13.692 3.277 Q10.351 -0.025 10.351 -4.759 V-65.701 Q10.351 -70.435 13.692 -73.737 Q17.033 -77.038 21.689 -77.038 H52.061 L74.861 -54.393 V-41.482 Q72.005 -42.464 69.093 -42.723 Q66.182 -42.983 63.523 -42.588 V-47.374 H45.14 V-65.701 H21.689 Q21.689 -65.701 21.689 -65.701 Q21.689 -65.701 21.689 -65.701 V-4.759 Q21.689 -4.759 21.689 -4.759 Q21.689 -4.759 21.689 -4.759 H41.645 Q43.065 -1.329 45.179 1.561 Q47.293 4.452 50.145 6.578 H21.689 Z M67.604 -35.74 Q76.164 -35.74 82.219 -29.633 Q88.274 -23.526 88.274 -14.966 Q88.274 -6.406 82.183 -0.351 Q76.093 5.704 67.557 5.704 Q58.998 5.704 52.914 -0.387 Q46.83 -6.477 46.83 -15.013 Q46.83 -23.572 52.937 -29.656 Q59.044 -35.74 67.604 -35.74 Z"/></g><g id="Medium-S" transform="matrix(1 0 0 1 1701.85 696)"><path d="M64.518 -5.677 H71.413 V-11.927 H64.518 V-5.677 Z M67.888 -16.538 Q69.435 -16.538 70.424 -17.511 Q71.413 -18.483 71.413 -20.024 Q71.413 -21.588 70.372 -22.548 Q69.33 -23.509 67.965 -23.509 Q66.34 -23.509 65.429 -22.482 Q64.518 -21.456 64.518 -20.06 Q64.518 -18.525 65.429 -17.532 Q66.34 -16.538 67.888 -16.538 Z M27.137 -25.194 H41.718 Q42.767 -27.772 44.327 -30.002 Q45.887 -32.231 47.88 -34.314 H27.137 V-25.194 Z M27.137 -10.147 H39.887 Q39.469 -12.317 39.544 -14.646 Q39.619 -16.976 40.014 -19.291 H27.137 V-10.147 Z M21.239 6.128 Q16.969 6.128 13.917 3.093 Q10.866 0.058 10.866 -4.245 V-66.215 Q10.866 -70.518 13.917 -73.553 Q16.969 -76.588 21.239 -76.588 H51.386 L74.346 -53.75 V-42.029 Q71.715 -42.786 69.061 -42.981 Q66.407 -43.176 63.973 -42.781 V-47.309 H45.044 V-66.215 H21.239 Q21.239 -66.215 21.239 -66.215 Q21.239 -66.215 21.239 -66.215 V-4.245 Q21.239 -4.245 21.239 -4.245 Q21.239 -4.245 21.239 -4.245 H41.517 Q42.743 -1.2 44.52 1.417 Q46.296 4.034 48.697 6.128 H21.239 Z M67.989 -35.901 Q76.775 -35.901 83.007 -29.635 Q89.238 -23.368 89.238 -14.581 Q89.238 -5.795 82.979 0.437 Q76.72 6.668 67.943 6.668 Q59.157 6.668 52.913 0.409 Q46.669 -5.85 46.669 -14.627 Q46.669 -23.413 52.935 -29.657 Q59.202 -35.901 67.989 -35.901 Z"/></g><g id="Regular-S" transform="matrix(1 0 0 1 1405.73 696)"><path d="M64.895 -5.347 H71.602 V-11.856 H64.895 V-5.347 Z M68.199 -16.491 Q69.728 -16.491 70.665 -17.428 Q71.602 -18.365 71.602 -19.894 Q71.602 -21.422 70.596 -22.359 Q69.59 -23.296 68.249 -23.296 Q66.671 -23.296 65.783 -22.29 Q64.895 -21.284 64.895 -19.915 Q64.895 -18.407 65.783 -17.449 Q66.671 -16.491 68.199 -16.491 Z M26.925 -25.17 H41.718 Q42.774 -27.742 44.317 -29.958 Q45.861 -32.173 47.833 -34.244 H26.925 V-25.17 Z M26.925 -9.982 H39.746 Q39.351 -12.152 39.45 -14.469 Q39.549 -16.787 39.943 -19.055 H26.925 V-9.982 Z M20.909 5.798 Q16.922 5.798 14.082 2.959 Q11.243 0.12 11.243 -3.867 V-66.593 Q11.243 -70.58 14.082 -73.419 Q16.922 -76.258 20.909 -76.258 H50.891 L73.969 -53.278 V-42.43 Q71.503 -43.021 69.038 -43.169 Q66.572 -43.317 64.303 -42.923 V-47.262 H44.973 V-66.593 H20.909 Q20.909 -66.593 20.909 -66.593 Q20.909 -66.593 20.909 -66.593 V-3.867 Q20.909 -3.867 20.909 -3.867 Q20.909 -3.867 20.909 -3.867 H41.422 Q42.507 -1.106 44.036 1.311 Q45.565 3.727 47.636 5.798 H20.909 Z M68.271 -36.019 Q77.223 -36.019 83.585 -29.635 Q89.946 -23.252 89.946 -14.299 Q89.946 -5.347 83.562 1.015 Q77.179 7.376 68.226 7.376 Q59.274 7.376 52.912 0.992 Q46.551 -5.391 46.551 -14.344 Q46.551 -23.296 52.935 -29.658 Q59.318 -36.019 68.271 -36.019 Z"/></g><g id="Light-S" transform="matrix(1 0 0 1 1109.75 696)"><path d="M63.757 -7.319 H70.008 V-11.856 H63.757 V-7.319 Z M66.834 -16.15 Q68.286 -16.112 69.147 -16.992 Q70.008 -17.872 70.008 -19.325 Q70.008 -20.778 69.059 -21.639 Q68.11 -22.5 66.883 -22.5 Q65.381 -22.5 64.569 -21.57 Q63.757 -20.64 63.757 -19.346 Q63.757 -17.952 64.569 -17.051 Q65.381 -16.15 66.834 -16.15 Z M27.911 -26.157 H41.908 Q42.736 -28.122 43.919 -29.844 Q45.102 -31.566 46.581 -33.257 H27.911 V-26.157 Z M27.911 -10.968 H39.518 Q39.2 -12.645 39.298 -14.451 Q39.397 -16.256 39.678 -18.069 H27.911 V-10.968 Z M22.122 3.825 Q18.401 3.825 15.809 1.233 Q13.216 -1.36 13.216 -5.081 V-65.379 Q13.216 -69.1 15.809 -71.693 Q18.401 -74.285 22.122 -74.285 H51.877 L71.996 -54.265 V-41.936 Q69.948 -42.376 67.994 -42.467 Q66.041 -42.559 64.303 -42.202 V-49.235 H46.946 V-66.593 H22.122 Q21.667 -66.593 21.288 -66.213 Q20.909 -65.834 20.909 -65.379 V-5.081 Q20.909 -4.626 21.288 -4.247 Q21.667 -3.867 22.122 -3.867 H41.764 Q42.621 -1.675 43.79 0.248 Q44.958 2.172 46.574 3.825 H22.122 Z M66.905 -34.653 Q75.061 -34.653 80.834 -28.858 Q86.608 -23.062 86.608 -14.906 Q86.608 -6.75 80.812 -0.977 Q75.016 4.796 66.861 4.796 Q58.705 4.796 52.931 -0.999 Q47.158 -6.795 47.158 -14.951 Q47.158 -23.107 52.954 -28.88 Q58.749 -34.653 66.905 -34.653 Z"/></g><g id="Thin-S" transform="matrix(1 0 0 1 814.015 696)"><path d="M62.619 -9.292 H68.415 V-11.856 H62.619 V-9.292 Z M65.468 -15.808 Q66.845 -15.733 67.63 -16.556 Q68.415 -17.379 68.415 -18.756 Q68.415 -20.133 67.523 -20.918 Q66.631 -21.703 65.517 -21.703 Q64.091 -21.703 63.355 -20.849 Q62.619 -19.995 62.619 -18.777 Q62.619 -17.497 63.355 -16.653 Q64.091 -15.808 65.468 -15.808 Z M28.897 -27.143 H42.098 Q42.698 -28.501 43.521 -29.73 Q44.343 -30.959 45.33 -32.271 H28.897 V-27.143 Z M28.897 -11.954 H39.291 Q39.048 -13.138 39.147 -14.431 Q39.245 -15.725 39.412 -17.083 H28.897 V-11.954 Z M23.336 1.853 Q19.88 1.853 17.534 -0.493 Q15.188 -2.839 15.188 -6.295 V-64.165 Q15.188 -67.621 17.534 -69.967 Q19.88 -72.313 23.336 -72.313 H52.863 L70.024 -55.251 V-41.443 Q68.393 -41.732 66.951 -41.766 Q65.51 -41.8 64.303 -41.481 V-51.207 H48.918 V-66.593 H23.336 Q22.426 -66.593 21.667 -65.834 Q20.909 -65.075 20.909 -64.165 V-6.295 Q20.909 -5.385 21.667 -4.626 Q22.426 -3.867 23.336 -3.867 H42.105 Q42.735 -2.244 43.543 -0.814 Q44.351 0.616 45.512 1.853 H23.336 Z M65.54 -33.288 Q72.899 -33.288 78.084 -28.08 Q83.27 -22.872 83.27 -15.513 Q83.27 -8.154 78.062 -2.968 Q72.854 2.217 65.495 2.217 Q58.136 2.217 52.95 -2.991 Q47.765 -8.198 47.765 -15.558 Q47.765 -22.917 52.973 -28.102 Q58.18 -33.288 65.54 -33.288 Z"/></g><g id="Ultralight-S" transform="matrix(1 0 0 1 517.792 696)"><path d="M61.937 -10.475 H67.46 V-11.856 H61.937 V-10.475 Z M64.649 -15.604 Q65.98 -15.505 66.72 -16.294 Q67.46 -17.083 67.46 -18.414 Q67.46 -19.746 66.601 -20.486 Q65.743 -21.225 64.698 -21.225 Q63.317 -21.225 62.627 -20.417 Q61.937 -19.608 61.937 -18.436 Q61.937 -17.224 62.627 -16.414 Q63.317 -15.604 64.649 -15.604 Z M29.489 -27.734 H42.212 Q42.675 -28.729 43.282 -29.662 Q43.888 -30.595 44.579 -31.679 H29.489 V-27.734 Z M29.489 -12.546 H39.154 Q38.957 -13.434 39.056 -14.42 Q39.154 -15.406 39.253 -16.491 H29.489 V-12.546 Z M24.065 0.67 Q20.768 0.67 18.57 -1.529 Q16.372 -3.727 16.372 -7.023 V-63.437 Q16.372 -66.733 18.57 -68.931 Q20.768 -71.129 24.065 -71.129 H53.455 L68.84 -55.843 V-41.147 Q67.46 -41.345 66.325 -41.345 Q65.191 -41.345 64.303 -41.049 V-52.391 H50.102 V-66.593 H24.065 Q22.881 -66.593 21.895 -65.606 Q20.909 -64.62 20.909 -63.437 V-7.023 Q20.909 -5.84 21.895 -4.853 Q22.881 -3.867 24.065 -3.867 H42.31 Q42.803 -2.585 43.395 -1.451 Q43.987 -0.317 44.874 0.67 H24.065 Z M64.72 -32.468 Q71.602 -32.468 76.434 -27.614 Q81.267 -22.759 81.267 -15.877 Q81.267 -8.996 76.412 -4.163 Q71.557 0.67 64.676 0.67 Q57.794 0.67 52.962 -4.185 Q48.129 -9.04 48.129 -15.922 Q48.129 -22.803 52.984 -27.636 Q57.839 -32.468 64.72 -32.468 Z"/></g></g></svg>