<svg xmlns="http://www.w3.org/2000/svg" version="1.1" width="3300" height="2000"><g id="Notes"><style>
    text {
      font-family: monospace;
      text-anchor: middle;
    }
    text.emphasis {
      font-weight:bold;
    }
    text.lanchor {
      text-anchor: start;
    }
  </style><rect height="2200" id="artboard" fill="white" width="3300" x="0" y="0"/><line id="" style="fill:none;stroke:black;stroke-width:0.5;" x1="263" x2="3036" y1="292" y2="292"/><text class="lanchor emphasis" transform="matrix(1 0 0 1 263 322)">Weight/Scale Variations</text><text transform="matrix(1 0 0 1 559.711 322)">Ultralight</text><text transform="matrix(1 0 0 1 856.422 322)">Thin</text><text transform="matrix(1 0 0 1 1153.13 322)">Light</text><text transform="matrix(1 0 0 1 1449.84 322)">Regular</text><text transform="matrix(1 0 0 1 1746.56 322)">Medium</text><text transform="matrix(1 0 0 1 2043.27 322)">Semibold</text><text transform="matrix(1 0 0 1 2339.98 322)">Bold</text><text transform="matrix(1 0 0 1 2636.69 322)">Heavy</text><text transform="matrix(1 0 0 1 2933.4 322)">Black</text><text id="template-version" style="text-anchor: end;" transform="matrix(1 0 0 1 3036 1933)">Template v.1.0</text><text class="lanchor" transform="matrix(1 0 0 1 263 726)">Small</text><text class="lanchor" transform="matrix(1 0 0 1 263 1156)">Medium</text><text class="lanchor" transform="matrix(1 0 0 1 263 1586)">Large</text></g><g id="Guides"><g id="H-reference" style="fill:#27AAE1;stroke:none;" transform="matrix(1 0 0 1 339 696)"><path d="M 54.9316 0 L 57.666 0 L 30.5664 -70.459 L 28.0762 -70.459 L 0.976562 0 L 3.66211 0 L 12.9395 -24.4629 L 45.7031 -24.4629 Z M 29.1992 -67.0898 L 29.4434 -67.0898 L 44.8242 -26.709 L 13.8184 -26.709 Z"/></g><line id="Baseline-S" style="fill:none;stroke:#27AAE1;opacity:1;stroke-width:0.577;" x1="263" x2="3036" y1="696" y2="696"/><line id="Capline-S" style="fill:none;stroke:#27AAE1;opacity:1;stroke-width:0.577;" x1="263" x2="3036" y1="625.541" y2="625.541"/><g id="H-reference" style="fill:#27AAE1;stroke:none;" transform="matrix(1 0 0 1 339 1126)"><path d="M 54.9316 0 L 57.666 0 L 30.5664 -70.459 L 28.0762 -70.459 L 0.976562 0 L 3.66211 0 L 12.9395 -24.4629 L 45.7031 -24.4629 Z M 29.1992 -67.0898 L 29.4434 -67.0898 L 44.8242 -26.709 L 13.8184 -26.709 Z"/></g><line id="Baseline-M" style="fill:none;stroke:#27AAE1;opacity:1;stroke-width:0.577;" x1="263" x2="3036" y1="1126" y2="1126"/><line id="Capline-M" style="fill:none;stroke:#27AAE1;opacity:1;stroke-width:0.577;" x1="263" x2="3036" y1="1055.54" y2="1055.54"/><g id="H-reference" style="fill:#27AAE1;stroke:none;" transform="matrix(1 0 0 1 339 1556)"><path d="M 54.9316 0 L 57.666 0 L 30.5664 -70.459 L 28.0762 -70.459 L 0.976562 0 L 3.66211 0 L 12.9395 -24.4629 L 45.7031 -24.4629 Z M 29.1992 -67.0898 L 29.4434 -67.0898 L 44.8242 -26.709 L 13.8184 -26.709 Z"/></g><line id="Baseline-L" style="fill:none;stroke:#27AAE1;opacity:1;stroke-width:0.577;" x1="263" x2="3036" y1="1556" y2="1556"/><line id="Capline-L" style="fill:none;stroke:#27AAE1;opacity:1;stroke-width:0.577;" x1="263" x2="3036" y1="1485.54" y2="1485.54"/><rect height="119.336" id="left-margin" style="fill:darkred;stroke:none;opacity:0.4;" width="12.4512" x="1394.06" y="1030.79"/><rect height="119.336" id="right-margin" style="fill:darkgreen;stroke:none;opacity:0.4;" width="12.4512" x="1502.5112" y="1030.79"/><rect x="1406.5112" y="1045" width="96" height="96" fill="none" stroke="blue" stroke-dasharray="5"/><rect x="1394.06" y="1030.79" width="120.9024" height="119.336" fill="none" stroke="blue"/></g><g id="Symbols"><g id="Bold-L" transform="matrix(1 0 0 1 2266 1556)"><path d="M116.906 32.656 Q114.369 32.656 112.655 31.047 Q110.94 29.439 110.94 26.855 Q110.94 24.271 112.655 22.498 Q114.369 20.724 116.985 20.724 H127.065 V17.015 H122.228 Q120.293 17.015 118.841 15.644 Q117.39 14.274 117.39 12.178 Q117.39 10.404 118.841 8.865 Q120.293 7.326 122.228 7.326 H127.065 V3.631 H116.906 Q114.369 3.631 112.655 2.022 Q110.94 0.414 110.94 -2.17 Q110.94 -4.754 112.655 -6.527 Q114.369 -8.301 116.906 -8.301 H131.419 Q134.523 -8.301 136.76 -6.064 Q138.998 -3.827 138.998 -0.722 V4.599 Q138.998 7.82 136.76 9.999 Q134.523 12.178 131.419 12.178 Q134.523 12.178 136.76 14.415 Q138.998 16.652 138.998 19.756 V25.078 Q138.998 28.298 136.76 30.477 Q134.523 32.656 131.419 32.656 H116.906 Z M116.422 -14.912 Q114.203 -14.912 112.571 -16.544 Q110.94 -18.175 110.94 -20.395 V-32.65 Q110.94 -35.569 113.119 -37.818 Q115.298 -40.067 118.519 -40.067 H127.065 V-43.937 H116.957 Q114.369 -43.937 112.655 -45.58 Q110.94 -47.222 110.94 -49.772 Q110.94 -52.322 112.655 -54.096 Q114.369 -55.87 116.906 -55.87 H131.419 Q134.523 -55.87 136.76 -53.645 Q138.998 -51.419 138.998 -48.13 V-38.132 Q138.998 -34.843 136.76 -32.618 Q134.523 -30.392 131.419 -30.392 H122.873 V-26.845 H132.955 Q135.638 -26.845 137.318 -25.09 Q138.998 -23.335 138.998 -20.736 Q138.998 -18.137 137.318 -16.525 Q135.638 -14.912 132.976 -14.912 H116.422 Z M126.714 -62.481 Q124.001 -62.481 122.308 -64.115 Q120.615 -65.749 120.615 -68.264 V-92.524 H116.261 Q114.004 -92.524 112.472 -94.076 Q110.94 -95.629 110.94 -97.876 Q110.94 -99.983 112.472 -101.711 Q114.004 -103.439 116.29 -103.439 H127.065 Q129.452 -103.439 131 -101.775 Q132.548 -100.112 132.548 -97.956 V-68.319 Q132.548 -65.749 130.883 -64.115 Q129.218 -62.481 126.714 -62.481 Z M25.477 10.888 Q22.132 10.888 20.096 8.814 Q18.06 6.74 18.06 3.573 Q18.06 0.406 20.096 -1.69 Q22.132 -3.786 25.477 -3.786 H89.171 Q92.34 -3.786 94.464 -1.63 Q96.589 0.527 96.589 3.549 Q96.589 6.797 94.464 8.842 Q92.34 10.888 89.171 10.888 H25.477 Z M25.477 -28.135 Q22.132 -28.135 20.096 -30.322 Q18.06 -32.508 18.06 -35.53 Q18.06 -38.777 20.096 -40.793 Q22.132 -42.809 25.477 -42.809 H89.171 Q92.34 -42.809 94.464 -40.765 Q96.589 -38.721 96.589 -35.554 Q96.589 -32.387 94.464 -30.261 Q92.34 -28.135 89.171 -28.135 H25.477 Z M25.477 -67.319 Q22.132 -67.319 20.096 -69.392 Q18.06 -71.466 18.06 -74.633 Q18.06 -77.8 20.096 -79.896 Q22.132 -81.992 25.477 -81.992 H89.171 Q92.34 -81.992 94.464 -79.836 Q96.589 -77.679 96.589 -74.657 Q96.589 -71.409 94.464 -69.364 Q92.34 -67.319 89.171 -67.319 H25.477 Z"/></g><g id="Semibold-L" transform="matrix(1 0 0 1 1970.27 1556)"><path d="M116.836 32.306 Q114.421 32.306 112.786 30.73 Q111.15 29.155 111.15 26.748 Q111.15 24.341 112.786 22.673 Q114.421 21.004 116.915 21.004 H127.275 V16.945 H122.438 Q120.433 16.945 119.017 15.574 Q117.6 14.204 117.6 12.107 Q117.6 10.263 119.017 8.76 Q120.433 7.256 122.438 7.256 H127.275 V3.281 H116.836 Q114.421 3.281 112.786 1.705 Q111.15 0.13 111.15 -2.277 Q111.15 -4.684 112.786 -6.352 Q114.421 -8.021 116.836 -8.021 H131.349 Q134.304 -8.021 136.44 -5.884 Q138.577 -3.748 138.577 -0.793 V4.879 Q138.577 7.951 136.44 10.029 Q134.304 12.107 131.349 12.107 Q134.304 12.107 136.44 14.239 Q138.577 16.37 138.577 19.406 V25.007 Q138.577 28.109 136.44 30.208 Q134.304 32.306 131.349 32.306 H116.836 Z M116.212 -15.193 Q114.175 -15.193 112.662 -16.705 Q111.15 -18.217 111.15 -20.255 V-32.93 Q111.15 -35.781 113.249 -37.924 Q115.347 -40.067 118.449 -40.067 H127.275 V-44.218 H116.887 Q114.421 -44.218 112.786 -45.777 Q111.15 -47.337 111.15 -49.759 Q111.15 -52.182 112.786 -53.851 Q114.421 -55.519 116.836 -55.519 H131.349 Q134.304 -55.519 136.44 -53.395 Q138.577 -51.271 138.577 -48.13 V-37.782 Q138.577 -34.641 136.44 -32.517 Q134.304 -30.392 131.349 -30.392 H122.452 V-26.494 H132.918 Q135.325 -26.494 136.951 -24.836 Q138.577 -23.178 138.577 -20.728 Q138.577 -18.278 136.951 -16.735 Q135.325 -15.193 132.93 -15.193 H116.212 Z M126.586 -62.692 Q124.071 -62.692 122.448 -64.246 Q120.825 -65.801 120.825 -68.194 V-92.664 H116.261 Q114.074 -92.664 112.612 -94.131 Q111.15 -95.599 111.15 -97.77 Q111.15 -99.803 112.612 -101.41 Q114.074 -103.018 116.278 -103.018 H127.135 Q129.267 -103.018 130.697 -101.494 Q132.127 -99.969 132.127 -98.026 V-68.249 Q132.127 -65.801 130.509 -64.246 Q128.892 -62.692 126.586 -62.692 Z M25.758 10.397 Q22.763 10.397 20.867 8.463 Q18.971 6.53 18.971 3.678 Q18.971 0.827 20.867 -1.094 Q22.763 -3.015 25.758 -3.015 H90.083 Q92.909 -3.015 94.854 -1.048 Q96.799 0.92 96.799 3.689 Q96.799 6.586 94.854 8.492 Q92.909 10.397 90.083 10.397 H25.758 Z M25.758 -28.836 Q22.763 -28.836 20.867 -30.833 Q18.971 -32.83 18.971 -35.6 Q18.971 -38.497 20.867 -40.372 Q22.763 -42.248 25.758 -42.248 H90.083 Q92.909 -42.248 94.854 -40.344 Q96.799 -38.44 96.799 -35.589 Q96.799 -32.737 94.854 -30.787 Q92.909 -28.836 90.083 -28.836 H25.758 Z M25.758 -68.16 Q22.763 -68.16 20.867 -70.093 Q18.971 -72.027 18.971 -74.878 Q18.971 -77.73 20.867 -79.651 Q22.763 -81.572 25.758 -81.572 H90.083 Q92.909 -81.572 94.854 -79.604 Q96.799 -77.637 96.799 -74.867 Q96.799 -71.97 94.854 -70.065 Q92.909 -68.16 90.083 -68.16 H25.758 Z"/></g><g id="Medium-L" transform="matrix(1 0 0 1 1674.31 1556)"><path d="M116.784 32.043 Q114.459 32.043 112.884 30.493 Q111.308 28.942 111.308 26.668 Q111.308 24.394 112.884 22.804 Q114.459 21.214 116.863 21.214 H127.433 V16.892 H122.596 Q120.538 16.892 119.148 15.522 Q117.758 14.151 117.758 12.055 Q117.758 10.158 119.148 8.681 Q120.538 7.204 122.596 7.204 H127.433 V3.018 H116.784 Q114.459 3.018 112.884 1.468 Q111.308 -0.083 111.308 -2.357 Q111.308 -4.631 112.884 -6.221 Q114.459 -7.811 116.784 -7.811 H131.296 Q134.139 -7.811 136.2 -5.749 Q138.261 -3.689 138.261 -0.845 V5.089 Q138.261 8.05 136.2 10.052 Q134.139 12.055 131.296 12.055 Q134.139 12.055 136.2 14.107 Q138.261 16.158 138.261 19.143 V24.955 Q138.261 27.967 136.2 30.005 Q134.139 32.043 131.296 32.043 H116.784 Z M116.054 -15.403 Q114.154 -15.403 112.731 -16.826 Q111.308 -18.249 111.308 -20.15 V-33.141 Q111.308 -35.94 113.346 -38.004 Q115.384 -40.067 118.396 -40.067 H127.433 V-44.428 H116.834 Q114.459 -44.428 112.884 -45.925 Q111.308 -47.422 111.308 -49.75 Q111.308 -52.077 112.884 -53.667 Q114.459 -55.257 116.784 -55.257 H131.296 Q134.139 -55.257 136.2 -53.208 Q138.261 -51.159 138.261 -48.13 V-37.519 Q138.261 -34.49 136.2 -32.441 Q134.139 -30.392 131.296 -30.392 H122.136 V-26.232 H132.89 Q135.09 -26.232 136.676 -24.646 Q138.261 -23.061 138.261 -20.722 Q138.261 -18.383 136.676 -16.893 Q135.09 -15.403 132.895 -15.403 H116.054 Z M126.49 -62.849 Q124.124 -62.849 122.554 -64.344 Q120.983 -65.839 120.983 -68.142 V-92.769 H116.261 Q114.126 -92.769 112.717 -94.173 Q111.308 -95.576 111.308 -97.692 Q111.308 -99.668 112.717 -101.185 Q114.126 -102.703 116.268 -102.703 H127.188 Q129.128 -102.703 130.47 -101.282 Q131.811 -99.862 131.811 -98.079 V-68.196 Q131.811 -65.839 130.229 -64.344 Q128.647 -62.849 126.49 -62.849 Z M25.968 10.029 Q23.236 10.029 21.445 8.2 Q19.655 6.372 19.655 3.757 Q19.655 1.142 21.445 -0.647 Q23.236 -2.437 25.968 -2.437 H90.766 Q93.337 -2.437 95.147 -0.611 Q96.957 1.214 96.957 3.795 Q96.957 6.429 95.147 8.229 Q93.337 10.029 90.766 10.029 H25.968 Z M25.968 -29.362 Q23.236 -29.362 21.445 -31.217 Q19.655 -33.072 19.655 -35.653 Q19.655 -38.287 21.445 -40.057 Q23.236 -41.827 25.968 -41.827 H90.766 Q93.337 -41.827 95.147 -40.029 Q96.957 -38.23 96.957 -35.615 Q96.957 -33 95.147 -31.181 Q93.337 -29.362 90.766 -29.362 H25.968 Z M25.968 -68.791 Q23.236 -68.791 21.445 -70.619 Q19.655 -72.447 19.655 -75.062 Q19.655 -77.677 21.445 -79.467 Q23.236 -81.256 25.968 -81.256 H90.766 Q93.337 -81.256 95.147 -79.431 Q96.957 -77.605 96.957 -75.025 Q96.957 -72.391 95.147 -70.591 Q93.337 -68.791 90.766 -68.791 H25.968 Z"/></g><g id="Regular-L" transform="matrix(1 0 0 1 1378.56 1556)"><path d="M116.745 31.85 Q114.487 31.85 112.956 30.318 Q111.424 28.786 111.424 26.609 Q111.424 24.433 112.956 22.901 Q114.487 21.369 116.824 21.369 H127.549 V16.854 H122.711 Q120.615 16.854 119.244 15.483 Q117.874 14.113 117.874 12.016 Q117.874 10.081 119.244 8.623 Q120.615 7.165 122.711 7.165 H127.549 V2.825 H116.745 Q114.487 2.825 112.956 1.293 Q111.424 -0.239 111.424 -2.416 Q111.424 -4.592 112.956 -6.124 Q114.487 -7.656 116.745 -7.656 H131.257 Q134.019 -7.656 136.024 -5.651 Q138.03 -3.645 138.03 -0.884 V5.244 Q138.03 8.122 136.024 10.069 Q134.019 12.016 131.257 12.016 Q134.019 12.016 136.024 14.01 Q138.03 16.003 138.03 18.95 V24.916 Q138.03 27.863 136.024 29.857 Q134.019 31.85 131.257 31.85 H116.745 Z M115.939 -15.557 Q114.138 -15.557 112.781 -16.915 Q111.424 -18.272 111.424 -20.072 V-33.295 Q111.424 -36.056 113.417 -38.062 Q115.411 -40.067 118.358 -40.067 H127.549 V-44.582 H116.795 Q114.487 -44.582 112.956 -46.034 Q111.424 -47.485 111.424 -49.742 Q111.424 -52 112.956 -53.532 Q114.487 -55.064 116.745 -55.064 H131.257 Q134.019 -55.064 136.024 -53.07 Q138.03 -51.077 138.03 -48.13 V-37.326 Q138.03 -34.379 136.024 -32.386 Q134.019 -30.392 131.257 -30.392 H121.905 V-26.039 H132.87 Q134.918 -26.039 136.474 -24.507 Q138.03 -22.975 138.03 -20.717 Q138.03 -18.46 136.474 -17.009 Q134.918 -15.557 132.87 -15.557 H115.939 Z M126.42 -62.965 Q124.163 -62.965 122.631 -64.416 Q121.099 -65.867 121.099 -68.103 V-92.846 H116.261 Q114.165 -92.846 112.794 -94.203 Q111.424 -95.559 111.424 -97.634 Q111.424 -99.569 112.794 -101.02 Q114.165 -102.471 116.261 -102.471 H127.226 Q129.027 -102.471 130.303 -101.128 Q131.58 -99.784 131.58 -98.117 V-68.158 Q131.58 -65.867 130.024 -64.416 Q128.468 -62.965 126.42 -62.965 Z M26.123 9.759 Q23.583 9.759 21.87 8.008 Q20.156 6.257 20.156 3.815 Q20.156 1.374 21.87 -0.319 Q23.583 -2.012 26.123 -2.012 H91.267 Q93.65 -2.012 95.361 -0.291 Q97.073 1.43 97.073 3.872 Q97.073 6.313 95.361 8.036 Q93.65 9.759 91.267 9.759 H26.123 Z M26.123 -29.747 Q23.583 -29.747 21.87 -31.499 Q20.156 -33.25 20.156 -35.691 Q20.156 -38.132 21.87 -39.826 Q23.583 -41.519 26.123 -41.519 H91.267 Q93.65 -41.519 95.361 -39.797 Q97.073 -38.076 97.073 -35.635 Q97.073 -33.193 95.361 -31.47 Q93.65 -29.747 91.267 -29.747 H26.123 Z M26.123 -69.254 Q23.583 -69.254 21.87 -71.005 Q20.156 -72.756 20.156 -75.197 Q20.156 -77.639 21.87 -79.332 Q23.583 -81.025 26.123 -81.025 H91.267 Q93.65 -81.025 95.361 -79.304 Q97.073 -77.582 97.073 -75.141 Q97.073 -72.699 95.361 -70.977 Q93.65 -69.254 91.267 -69.254 H26.123 Z"/></g><g id="Light-L" transform="matrix(1 0 0 1 1082.77 1556)"><path d="M114.512 28.625 Q112.685 28.625 111.434 27.375 Q110.183 26.125 110.183 24.379 Q110.183 22.634 111.434 21.381 Q112.685 20.128 114.591 20.128 H126.308 V13.629 H120.478 Q118.812 13.629 117.723 12.54 Q116.633 11.451 116.633 9.786 Q116.633 8.283 117.723 7.104 Q118.812 5.925 120.478 5.925 H126.308 V-0.4 H114.512 Q112.685 -0.4 111.434 -1.65 Q110.183 -2.9 110.183 -4.646 Q110.183 -6.391 111.434 -7.644 Q112.685 -8.897 114.512 -8.897 H129.025 Q131.364 -8.897 133.084 -7.177 Q134.805 -5.456 134.805 -3.117 V4.251 Q134.805 6.708 133.084 8.37 Q131.364 10.031 129.025 10.031 Q131.364 10.031 133.084 11.74 Q134.805 13.448 134.805 15.973 V22.683 Q134.805 25.208 133.084 26.917 Q131.364 28.625 129.025 28.625 H114.512 Z M114.574 -16.55 Q112.836 -16.55 111.509 -17.876 Q110.183 -19.202 110.183 -20.941 V-33.295 Q110.183 -35.635 111.891 -37.355 Q113.599 -39.075 116.125 -39.075 H126.308 V-45.575 H114.563 Q112.685 -45.575 111.434 -46.744 Q110.183 -47.913 110.183 -49.74 Q110.183 -51.566 111.434 -52.819 Q112.685 -54.071 114.512 -54.071 H129.025 Q131.364 -54.071 133.084 -52.363 Q134.805 -50.655 134.805 -48.13 V-37.326 Q134.805 -34.801 133.084 -33.093 Q131.364 -31.385 129.025 -31.385 H118.68 V-25.046 H130.637 Q132.255 -25.046 133.53 -23.796 Q134.805 -22.547 134.805 -20.72 Q134.805 -18.894 133.53 -17.722 Q132.255 -16.55 130.637 -16.55 H114.574 Z M124.19 -61.725 Q122.364 -61.725 121.111 -62.895 Q119.858 -64.065 119.858 -65.87 V-91.606 H114.028 Q112.362 -91.606 111.273 -92.68 Q110.183 -93.755 110.183 -95.398 Q110.183 -96.902 111.273 -98.074 Q112.362 -99.246 114.028 -99.246 H124.125 Q125.839 -99.246 127.097 -97.921 Q128.355 -96.596 128.355 -95.016 V-65.925 Q128.355 -64.065 127.081 -62.895 Q125.807 -61.725 124.19 -61.725 Z M28.169 8.518 Q26.13 8.518 24.756 7.105 Q23.381 5.692 23.381 3.75 Q23.381 1.808 24.756 0.456 Q26.13 -0.896 28.169 -0.896 H90.833 Q92.715 -0.896 94.087 0.488 Q95.46 1.871 95.46 3.813 Q95.46 5.755 94.087 7.137 Q92.715 8.518 90.833 8.518 H28.169 Z M28.169 -30.864 Q26.13 -30.864 24.756 -32.277 Q23.381 -33.69 23.381 -35.632 Q23.381 -37.574 24.756 -38.926 Q26.13 -40.278 28.169 -40.278 H90.833 Q92.715 -40.278 94.087 -38.895 Q95.46 -37.511 95.46 -35.569 Q95.46 -33.627 94.087 -32.246 Q92.715 -30.864 90.833 -30.864 H28.169 Z M28.169 -70.246 Q26.13 -70.246 24.756 -71.659 Q23.381 -73.072 23.381 -75.013 Q23.381 -76.894 24.756 -78.277 Q26.13 -79.661 28.169 -79.661 H90.833 Q92.715 -79.661 94.087 -78.247 Q95.46 -76.833 95.46 -74.922 Q95.46 -73.01 94.087 -71.628 Q92.715 -70.246 90.833 -70.246 H28.169 Z"/></g><g id="Thin-L" transform="matrix(1 0 0 1 787.282 1556)"><path d="M112.28 25.4 Q110.882 25.4 109.913 24.432 Q108.943 23.464 108.943 22.15 Q108.943 20.835 109.913 19.862 Q110.882 18.888 112.359 18.888 H125.068 V10.404 H118.246 Q117.01 10.404 116.201 9.597 Q115.393 8.79 115.393 7.557 Q115.393 6.484 116.201 5.584 Q117.01 4.684 118.246 4.684 H125.068 V-3.625 H112.28 Q110.882 -3.625 109.913 -4.593 Q108.943 -5.561 108.943 -6.875 Q108.943 -8.19 109.913 -9.163 Q110.882 -10.137 112.28 -10.137 H126.792 Q128.71 -10.137 130.145 -8.702 Q131.58 -7.267 131.58 -5.349 V3.259 Q131.58 5.294 130.145 6.67 Q128.71 8.047 126.792 8.047 Q128.71 8.047 130.145 9.47 Q131.58 10.893 131.58 12.996 V20.451 Q131.58 22.554 130.145 23.977 Q128.71 25.4 126.792 25.4 H112.28 Z M113.21 -17.542 Q111.533 -17.542 110.238 -18.837 Q108.943 -20.132 108.943 -21.809 V-33.295 Q108.943 -35.213 110.366 -36.648 Q111.789 -38.083 113.892 -38.083 H125.068 V-46.567 H112.33 Q110.882 -46.567 109.913 -47.454 Q108.943 -48.342 108.943 -49.737 Q108.943 -51.132 109.913 -52.105 Q110.882 -53.079 112.28 -53.079 H126.792 Q128.71 -53.079 130.145 -51.656 Q131.58 -50.233 131.58 -48.13 V-37.326 Q131.58 -35.223 130.145 -33.8 Q128.71 -32.377 126.792 -32.377 H115.455 V-24.054 H128.405 Q129.593 -24.054 130.586 -23.086 Q131.58 -22.118 131.58 -20.723 Q131.58 -19.328 130.586 -18.435 Q129.593 -17.542 128.405 -17.542 H113.21 Z M121.96 -60.484 Q120.565 -60.484 119.592 -61.373 Q118.618 -62.262 118.618 -63.638 V-90.366 H111.796 Q110.56 -90.366 109.751 -91.158 Q108.943 -91.951 108.943 -93.163 Q108.943 -94.235 109.751 -95.128 Q110.56 -96.021 111.796 -96.021 H121.024 Q122.651 -96.021 123.891 -94.715 Q125.13 -93.408 125.13 -91.916 V-63.692 Q125.13 -62.262 124.138 -61.373 Q123.146 -60.484 121.96 -60.484 Z M30.216 7.278 Q28.678 7.278 27.642 6.203 Q26.606 5.127 26.606 3.685 Q26.606 2.242 27.642 1.231 Q28.678 0.22 30.216 0.22 H90.399 Q91.78 0.22 92.814 1.266 Q93.847 2.312 93.847 3.754 Q93.847 5.197 92.814 6.237 Q91.78 7.278 90.399 7.278 H30.216 Z M30.216 -31.98 Q28.678 -31.98 27.642 -33.056 Q26.606 -34.131 26.606 -35.574 Q26.606 -37.016 27.642 -38.027 Q28.678 -39.038 30.216 -39.038 H90.399 Q91.78 -39.038 92.814 -37.992 Q93.847 -36.947 93.847 -35.504 Q93.847 -34.061 92.814 -33.021 Q91.78 -31.98 90.399 -31.98 H30.216 Z M30.216 -71.238 Q28.678 -71.238 27.642 -72.313 Q26.606 -73.388 26.606 -74.83 Q26.606 -76.15 27.642 -77.223 Q28.678 -78.296 30.216 -78.296 H90.399 Q91.78 -78.296 92.814 -77.191 Q93.847 -76.085 93.847 -74.702 Q93.847 -73.32 92.814 -72.279 Q91.78 -71.238 90.399 -71.238 H30.216 Z"/></g><g id="Ultralight-L" transform="matrix(1 0 0 1 491.205 1556)"><path d="M110.94 23.465 Q109.8 23.465 109 22.666 Q108.199 21.867 108.199 20.812 Q108.199 19.756 109 18.95 Q109.8 18.144 111.019 18.144 H124.324 V8.469 H116.906 Q115.928 8.469 115.288 7.831 Q114.649 7.194 114.649 6.219 Q114.649 5.405 115.288 4.672 Q115.928 3.94 116.906 3.94 H124.324 V-5.56 H110.94 Q109.8 -5.56 109 -6.359 Q108.199 -7.158 108.199 -8.213 Q108.199 -9.269 109 -10.075 Q109.8 -10.881 110.94 -10.881 H125.453 Q127.117 -10.881 128.381 -9.618 Q129.645 -8.354 129.645 -6.689 V2.664 Q129.645 4.446 128.381 5.651 Q127.117 6.856 125.453 6.856 Q127.117 6.856 128.381 8.108 Q129.645 9.36 129.645 11.21 V19.111 Q129.645 20.962 128.381 22.213 Q127.117 23.465 125.453 23.465 H110.94 Z M112.391 -18.137 Q110.752 -18.137 109.475 -19.414 Q108.199 -20.691 108.199 -22.33 V-33.295 Q108.199 -34.96 109.45 -36.224 Q110.702 -37.487 112.553 -37.487 H124.324 V-47.162 H110.99 Q109.8 -47.162 109 -47.881 Q108.199 -48.599 108.199 -49.735 Q108.199 -50.871 109 -51.677 Q109.8 -52.484 110.94 -52.484 H125.453 Q127.117 -52.484 128.381 -51.232 Q129.645 -49.98 129.645 -48.13 V-37.326 Q129.645 -35.476 128.381 -34.224 Q127.117 -32.972 125.453 -32.972 H113.52 V-23.459 H127.065 Q127.995 -23.459 128.82 -22.66 Q129.645 -21.861 129.645 -20.725 Q129.645 -19.589 128.82 -18.863 Q127.995 -18.137 127.065 -18.137 H112.391 Z M120.623 -59.74 Q119.486 -59.74 118.68 -60.46 Q117.874 -61.18 117.874 -62.298 V-89.621 H110.456 Q109.478 -89.621 108.838 -90.245 Q108.199 -90.868 108.199 -91.821 Q108.199 -92.635 108.838 -93.361 Q109.478 -94.086 110.456 -94.086 H119.164 Q120.739 -94.086 121.967 -92.791 Q123.195 -91.495 123.195 -90.055 V-62.353 Q123.195 -61.18 122.372 -60.46 Q121.549 -59.74 120.623 -59.74 Z M31.444 6.534 Q30.206 6.534 29.374 5.661 Q28.541 4.788 28.541 3.645 Q28.541 2.503 29.374 1.696 Q30.206 0.89 31.444 0.89 H90.139 Q91.219 0.89 92.05 1.733 Q92.88 2.576 92.88 3.719 Q92.88 4.862 92.05 5.698 Q91.219 6.534 90.139 6.534 H31.444 Z M31.444 -32.65 Q30.206 -32.65 29.374 -33.523 Q28.541 -34.396 28.541 -35.538 Q28.541 -36.681 29.374 -37.487 Q30.206 -38.294 31.444 -38.294 H90.139 Q91.219 -38.294 92.05 -37.451 Q92.88 -36.608 92.88 -35.465 Q92.88 -34.322 92.05 -33.486 Q91.219 -32.65 90.139 -32.65 H31.444 Z M31.444 -71.834 Q30.206 -71.834 29.374 -72.706 Q28.541 -73.578 28.541 -74.719 Q28.541 -75.704 29.374 -76.591 Q30.206 -77.477 31.444 -77.477 H90.139 Q91.219 -77.477 92.05 -76.557 Q92.88 -75.636 92.88 -74.571 Q92.88 -73.506 92.05 -72.67 Q91.219 -71.834 90.139 -71.834 H31.444 Z"/></g><g id="Bold-M" transform="matrix(1 0 0 1 2281.8 1126)"><path d="M93 20.52 Q90.871 20.52 89.31 19.049 Q87.75 17.578 87.75 15.362 Q87.75 13.145 89.31 11.583 Q90.871 10.02 93 10.02 H100.25 V7.77 H96.5 Q95 7.77 93.875 6.708 Q92.75 5.645 92.75 4.02 Q92.75 2.52 93.875 1.395 Q95 0.27 96.5 0.27 H100.25 V-1.98 H93 Q90.871 -1.98 89.31 -3.451 Q87.75 -4.922 87.75 -7.138 Q87.75 -9.355 89.31 -10.917 Q90.871 -12.48 93 -12.48 H104.25 Q107.013 -12.48 108.881 -10.611 Q110.75 -8.742 110.75 -5.98 V-2.48 Q110.75 0.283 108.881 2.151 Q107.013 4.02 104.25 4.02 Q107.013 4.02 108.881 5.889 Q110.75 7.758 110.75 10.52 V14.02 Q110.75 16.783 108.881 18.651 Q107.013 20.52 104.25 20.52 H93 Z M94.125 -18.73 Q91.362 -18.73 89.556 -20.536 Q87.75 -22.342 87.75 -25.105 V-32.48 Q87.75 -35.242 89.619 -37.111 Q91.487 -38.98 94.25 -38.98 H100.25 V-41.23 H93 Q90.871 -41.23 89.31 -42.79 Q87.75 -44.349 87.75 -46.477 Q87.75 -48.605 89.31 -50.167 Q90.871 -51.73 93 -51.73 H104.25 Q107.013 -51.73 108.881 -49.861 Q110.75 -47.992 110.75 -45.23 V-37.98 Q110.75 -35.217 108.881 -33.349 Q107.013 -31.48 104.25 -31.48 H98.25 V-29.23 H105.441 Q107.792 -29.23 109.271 -27.67 Q110.75 -26.111 110.75 -23.983 Q110.75 -21.855 109.271 -20.292 Q107.792 -18.73 105.457 -18.73 H94.125 Z M100.592 -58.105 Q98.375 -58.105 96.812 -59.665 Q95.25 -61.226 95.25 -63.355 V-82.355 H92.125 Q90.375 -82.355 89.062 -83.605 Q87.75 -84.855 87.75 -86.667 Q87.75 -88.48 89.062 -89.792 Q90.375 -91.105 92.125 -91.105 H99.375 Q102.213 -91.105 103.981 -89.299 Q105.75 -87.492 105.75 -84.73 V-63.355 Q105.75 -61.226 104.279 -59.665 Q102.808 -58.105 100.592 -58.105 Z M22.75 3.395 Q19.125 3.395 16.688 0.958 Q14.25 -1.48 14.25 -5.042 Q14.25 -8.605 16.688 -11.105 Q19.125 -13.605 22.75 -13.605 H69.25 Q72.875 -13.605 75.312 -11.08 Q77.75 -8.555 77.75 -5.105 Q77.75 -1.48 75.312 0.958 Q72.875 3.395 69.25 3.395 H22.75 Z M22.75 -26.73 Q19.125 -26.73 16.688 -29.255 Q14.25 -31.78 14.25 -35.23 Q14.25 -38.855 16.688 -41.292 Q19.125 -43.73 22.75 -43.73 H69.25 Q72.875 -43.73 75.312 -41.292 Q77.75 -38.855 77.75 -35.292 Q77.75 -31.73 75.312 -29.23 Q72.875 -26.73 69.25 -26.73 H22.75 Z M22.75 -56.98 Q19.125 -56.98 16.688 -59.417 Q14.25 -61.855 14.25 -65.417 Q14.25 -68.98 16.688 -71.48 Q19.125 -73.98 22.75 -73.98 H69.25 Q72.875 -73.98 75.312 -71.455 Q77.75 -68.93 77.75 -65.48 Q77.75 -61.855 75.312 -59.417 Q72.875 -56.98 69.25 -56.98 H22.75 Z"/></g><g id="Semibold-M" transform="matrix(1 0 0 1 1985.97 1126)"><path d="M92.62 19.759 Q90.655 19.759 89.203 18.357 Q87.75 16.955 87.75 14.941 Q87.75 12.928 89.203 11.474 Q90.655 10.02 92.62 10.02 H100.25 V7.39 H96.5 Q94.946 7.39 93.848 6.327 Q92.75 5.265 92.75 3.64 Q92.75 2.085 93.848 0.987 Q94.946 -0.11 96.5 -0.11 H100.25 V-2.741 H92.62 Q90.655 -2.741 89.203 -4.143 Q87.75 -5.545 87.75 -7.559 Q87.75 -9.572 89.203 -11.026 Q90.655 -12.48 92.62 -12.48 H103.87 Q106.47 -12.48 108.23 -10.721 Q109.989 -8.961 109.989 -6.36 V-2.48 Q109.989 0.121 108.23 1.88 Q106.47 3.64 103.87 3.64 Q106.47 3.64 108.23 5.399 Q109.989 7.158 109.989 9.759 V13.64 Q109.989 16.24 108.23 18 Q106.47 19.759 103.87 19.759 H92.62 Z M93.527 -19.11 Q91.024 -19.11 89.387 -20.747 Q87.75 -22.384 87.75 -24.888 V-32.86 Q87.75 -35.461 89.509 -37.221 Q91.269 -38.98 93.87 -38.98 H100.25 V-41.61 H92.62 Q90.655 -41.61 89.203 -43.063 Q87.75 -44.515 87.75 -46.478 Q87.75 -48.442 89.203 -49.896 Q90.655 -51.35 92.62 -51.35 H103.87 Q106.47 -51.35 108.23 -49.59 Q109.989 -47.831 109.989 -45.23 V-37.6 Q109.989 -34.999 108.23 -33.239 Q106.47 -31.48 103.87 -31.48 H97.489 V-28.85 H105.086 Q107.176 -28.85 108.582 -27.397 Q109.989 -25.945 109.989 -23.982 Q109.989 -22.018 108.582 -20.564 Q107.176 -19.11 105.095 -19.11 H93.527 Z M100.171 -58.105 Q98.158 -58.105 96.704 -59.558 Q95.25 -61.01 95.25 -62.975 V-82.138 H91.853 Q90.158 -82.138 88.954 -83.306 Q87.75 -84.475 87.75 -86.206 Q87.75 -87.936 88.954 -89.14 Q90.158 -90.344 91.853 -90.344 H99.212 Q101.758 -90.344 103.374 -88.707 Q104.989 -87.07 104.989 -84.567 V-62.975 Q104.989 -61.01 103.587 -59.558 Q102.185 -58.105 100.171 -58.105 Z M22.804 2.689 Q19.56 2.689 17.34 0.468 Q15.12 -1.752 15.12 -4.961 Q15.12 -8.17 17.34 -10.426 Q19.56 -12.681 22.804 -12.681 H70.065 Q73.31 -12.681 75.53 -10.412 Q77.75 -8.142 77.75 -4.996 Q77.75 -1.752 75.53 0.468 Q73.31 2.689 70.065 2.689 H22.804 Z M22.804 -27.599 Q19.56 -27.599 17.34 -29.869 Q15.12 -32.139 15.12 -35.284 Q15.12 -38.529 17.34 -40.749 Q19.56 -42.969 22.804 -42.969 H70.065 Q73.31 -42.969 75.53 -40.749 Q77.75 -38.529 77.75 -35.32 Q77.75 -32.11 75.53 -29.855 Q73.31 -27.599 70.065 -27.599 H22.804 Z M22.804 -57.958 Q19.56 -57.958 17.34 -60.178 Q15.12 -62.398 15.12 -65.608 Q15.12 -68.817 17.34 -71.072 Q19.56 -73.328 22.804 -73.328 H70.065 Q73.31 -73.328 75.53 -71.058 Q77.75 -68.789 77.75 -65.643 Q77.75 -62.398 75.53 -60.178 Q73.31 -57.958 70.065 -57.958 H22.804 Z"/></g><g id="Medium-M" transform="matrix(1 0 0 1 1689.91 1126)"><path d="M92.334 19.189 Q90.494 19.189 89.122 17.838 Q87.75 16.488 87.75 14.626 Q87.75 12.765 89.122 11.392 Q90.494 10.02 92.334 10.02 H100.25 V7.104 H96.5 Q94.905 7.104 93.828 6.042 Q92.75 4.979 92.75 3.354 Q92.75 1.759 93.828 0.682 Q94.905 -0.396 96.5 -0.396 H100.25 V-3.311 H92.334 Q90.494 -3.311 89.122 -4.662 Q87.75 -6.012 87.75 -7.874 Q87.75 -9.735 89.122 -11.108 Q90.494 -12.48 92.334 -12.48 H103.584 Q106.064 -12.48 107.741 -10.803 Q109.418 -9.125 109.418 -6.646 V-2.48 Q109.418 -0 107.741 1.677 Q106.064 3.354 103.584 3.354 Q106.064 3.354 107.741 5.032 Q109.418 6.709 109.418 9.189 V13.354 Q109.418 15.834 107.741 17.511 Q106.064 19.189 103.584 19.189 H92.334 Z M93.079 -19.396 Q90.77 -19.396 89.26 -20.906 Q87.75 -22.415 87.75 -24.725 V-33.146 Q87.75 -35.625 89.427 -37.303 Q91.105 -38.98 93.584 -38.98 H100.25 V-41.896 H92.334 Q90.494 -41.896 89.122 -43.267 Q87.75 -44.639 87.75 -46.479 Q87.75 -48.32 89.122 -49.692 Q90.494 -51.064 92.334 -51.064 H103.584 Q106.064 -51.064 107.741 -49.387 Q109.418 -47.709 109.418 -45.23 V-37.314 Q109.418 -34.835 107.741 -33.157 Q106.064 -31.48 103.584 -31.48 H96.918 V-28.564 H104.82 Q106.714 -28.564 108.066 -27.193 Q109.418 -25.821 109.418 -23.981 Q109.418 -22.14 108.066 -20.768 Q106.714 -19.396 104.824 -19.396 H93.079 Z M99.856 -58.105 Q97.995 -58.105 96.622 -59.477 Q95.25 -60.849 95.25 -62.689 V-81.975 H91.65 Q89.995 -81.975 88.872 -83.082 Q87.75 -84.189 87.75 -85.859 Q87.75 -87.529 88.872 -88.651 Q89.995 -89.773 91.65 -89.773 H99.09 Q101.417 -89.773 102.918 -88.264 Q104.418 -86.754 104.418 -84.445 V-62.689 Q104.418 -60.849 103.068 -59.477 Q101.718 -58.105 99.856 -58.105 Z M22.845 2.159 Q19.886 2.159 17.829 0.102 Q15.772 -1.955 15.772 -4.9 Q15.772 -7.844 17.829 -9.916 Q19.886 -11.988 22.845 -11.988 H70.677 Q73.636 -11.988 75.693 -9.91 Q77.75 -7.832 77.75 -4.915 Q77.75 -1.955 75.693 0.102 Q73.636 2.159 70.677 2.159 H22.845 Z M22.845 -28.252 Q19.886 -28.252 17.829 -30.33 Q15.772 -32.408 15.772 -35.325 Q15.772 -38.284 17.829 -40.341 Q19.886 -42.398 22.845 -42.398 H70.677 Q73.636 -42.398 75.693 -40.341 Q77.75 -38.284 77.75 -35.34 Q77.75 -32.396 75.693 -30.324 Q73.636 -28.252 70.677 -28.252 H22.845 Z M22.845 -58.692 Q19.886 -58.692 17.829 -60.749 Q15.772 -62.806 15.772 -65.75 Q15.772 -68.695 17.829 -70.767 Q19.886 -72.839 22.845 -72.839 H70.677 Q73.636 -72.839 75.693 -70.761 Q77.75 -68.683 77.75 -65.765 Q77.75 -62.806 75.693 -60.749 Q73.636 -58.692 70.677 -58.692 H22.845 Z"/></g><g id="Regular-M" transform="matrix(1 0 0 1 1394.06 1126)"><path d="M92.125 18.77 Q90.375 18.77 89.062 17.458 Q87.75 16.145 87.75 14.395 Q87.75 12.645 89.062 11.333 Q90.375 10.02 92.125 10.02 H100.25 V6.895 H96.5 Q94.875 6.895 93.812 5.833 Q92.75 4.77 92.75 3.145 Q92.75 1.52 93.812 0.458 Q94.875 -0.605 96.5 -0.605 H100.25 V-3.73 H92.125 Q90.375 -3.73 89.062 -5.042 Q87.75 -6.355 87.75 -8.105 Q87.75 -9.855 89.062 -11.167 Q90.375 -12.48 92.125 -12.48 H103.375 Q105.766 -12.48 107.383 -10.863 Q109 -9.246 109 -6.855 V-2.48 Q109 -0.089 107.383 1.528 Q105.766 3.145 103.375 3.145 Q105.766 3.145 107.383 4.762 Q109 6.379 109 8.77 V13.145 Q109 15.536 107.383 17.153 Q105.766 18.77 103.375 18.77 H92.125 Z M92.75 -19.605 Q90.583 -19.605 89.167 -21.022 Q87.75 -22.438 87.75 -24.605 V-33.355 Q87.75 -35.746 89.367 -37.363 Q90.984 -38.98 93.375 -38.98 H100.25 V-42.105 H92.125 Q90.375 -42.105 89.062 -43.417 Q87.75 -44.73 87.75 -46.48 Q87.75 -48.23 89.062 -49.542 Q90.375 -50.855 92.125 -50.855 H103.375 Q105.766 -50.855 107.383 -49.238 Q109 -47.621 109 -45.23 V-37.105 Q109 -34.714 107.383 -33.097 Q105.766 -31.48 103.375 -31.48 H96.5 V-28.355 H104.625 Q106.375 -28.355 107.688 -27.042 Q109 -25.73 109 -23.98 Q109 -22.23 107.688 -20.917 Q106.375 -19.605 104.625 -19.605 H92.75 Z M99.625 -58.105 Q97.875 -58.105 96.562 -59.417 Q95.25 -60.73 95.25 -62.48 V-81.855 H91.5 Q89.875 -81.855 88.812 -82.917 Q87.75 -83.98 87.75 -85.605 Q87.75 -87.23 88.812 -88.292 Q89.875 -89.355 91.5 -89.355 H99 Q101.167 -89.355 102.583 -87.938 Q104 -86.522 104 -84.355 V-62.48 Q104 -60.73 102.688 -59.417 Q101.375 -58.105 99.625 -58.105 Z M22.875 1.77 Q20.125 1.77 18.188 -0.167 Q16.25 -2.105 16.25 -4.855 Q16.25 -7.605 18.188 -9.542 Q20.125 -11.48 22.875 -11.48 H71.125 Q73.875 -11.48 75.812 -9.542 Q77.75 -7.605 77.75 -4.855 Q77.75 -2.105 75.812 -0.167 Q73.875 1.77 71.125 1.77 H22.875 Z M22.875 -28.73 Q20.125 -28.73 18.188 -30.667 Q16.25 -32.605 16.25 -35.355 Q16.25 -38.105 18.188 -40.042 Q20.125 -41.98 22.875 -41.98 H71.125 Q73.875 -41.98 75.812 -40.042 Q77.75 -38.105 77.75 -35.355 Q77.75 -32.605 75.812 -30.667 Q73.875 -28.73 71.125 -28.73 H22.875 Z M22.875 -59.23 Q20.125 -59.23 18.188 -61.167 Q16.25 -63.105 16.25 -65.855 Q16.25 -68.605 18.188 -70.542 Q20.125 -72.48 22.875 -72.48 H71.125 Q73.875 -72.48 75.812 -70.542 Q77.75 -68.605 77.75 -65.855 Q77.75 -63.105 75.812 -61.167 Q73.875 -59.23 71.125 -59.23 H22.875 Z"/></g><g id="Light-M" transform="matrix(1 0 0 1 1098.18 1126)"><path d="M90.394 16.27 Q88.978 16.27 87.883 15.176 Q86.788 14.082 86.788 12.666 Q86.788 11.251 87.883 10.155 Q88.978 9.058 90.394 9.058 H99.288 V4.395 H94.769 Q93.478 4.395 92.633 3.551 Q91.788 2.707 91.788 1.416 Q91.788 0.126 92.633 -0.72 Q93.478 -1.567 94.769 -1.567 H99.288 V-6.23 H90.394 Q88.978 -6.23 87.883 -7.324 Q86.788 -8.418 86.788 -9.834 Q86.788 -11.249 87.883 -12.345 Q88.978 -13.442 90.394 -13.442 H101.644 Q103.708 -13.442 105.104 -12.046 Q106.5 -10.65 106.5 -8.586 V-3.249 Q106.5 -1.186 105.104 0.21 Q103.708 1.606 101.644 1.606 Q103.708 1.606 105.104 3.003 Q106.5 4.399 106.5 6.462 V11.414 Q106.5 13.478 105.104 14.874 Q103.708 16.27 101.644 16.27 H90.394 Z M91.452 -20.374 Q89.478 -20.374 88.133 -21.719 Q86.788 -23.063 86.788 -25.038 V-33.355 Q86.788 -35.419 88.184 -36.815 Q89.58 -38.211 91.644 -38.211 H99.288 V-42.874 H90.394 Q88.978 -42.874 87.883 -43.968 Q86.788 -45.062 86.788 -46.478 Q86.788 -47.893 87.883 -48.99 Q88.978 -50.086 90.394 -50.086 H101.644 Q103.708 -50.086 105.104 -48.69 Q106.5 -47.294 106.5 -45.23 V-37.105 Q106.5 -35.041 105.104 -33.645 Q103.708 -32.249 101.644 -32.249 H94 V-27.586 H102.894 Q104.311 -27.586 105.405 -26.492 Q106.5 -25.398 106.5 -23.982 Q106.5 -22.567 105.405 -21.47 Q104.311 -20.374 102.894 -20.374 H91.452 Z M97.896 -57.143 Q96.481 -57.143 95.385 -58.238 Q94.288 -59.332 94.288 -60.749 V-80.893 H89.769 Q88.478 -80.893 87.633 -81.737 Q86.788 -82.581 86.788 -83.872 Q86.788 -85.162 87.633 -86.009 Q88.478 -86.855 89.769 -86.855 H96.885 Q98.859 -86.855 100.179 -85.534 Q101.5 -84.214 101.5 -82.239 V-60.749 Q101.5 -59.332 100.406 -58.238 Q99.312 -57.143 97.896 -57.143 Z M24.125 0.52 Q21.906 0.52 20.328 -1.059 Q18.75 -2.637 18.75 -4.857 Q18.75 -7.076 20.328 -8.653 Q21.906 -10.23 24.125 -10.23 H70.837 Q73.055 -10.23 74.633 -8.651 Q76.211 -7.073 76.211 -4.853 Q76.211 -2.634 74.633 -1.057 Q73.055 0.52 70.837 0.52 H24.125 Z M24.125 -29.98 Q21.906 -29.98 20.328 -31.559 Q18.75 -33.137 18.75 -35.357 Q18.75 -37.576 20.328 -39.153 Q21.906 -40.73 24.125 -40.73 H70.837 Q73.055 -40.73 74.633 -39.151 Q76.211 -37.573 76.211 -35.353 Q76.211 -33.134 74.633 -31.557 Q73.055 -29.98 70.837 -29.98 H24.125 Z M24.125 -60.48 Q21.906 -60.48 20.328 -62.059 Q18.75 -63.637 18.75 -65.857 Q18.75 -68.076 20.328 -69.653 Q21.906 -71.23 24.125 -71.23 H70.837 Q73.055 -71.23 74.633 -69.651 Q76.211 -68.073 76.211 -65.853 Q76.211 -63.634 74.633 -62.057 Q73.055 -60.48 70.837 -60.48 H24.125 Z"/></g><g id="Thin-M" transform="matrix(1 0 0 1 802.565 1126)"><path d="M88.663 13.77 Q87.58 13.77 86.704 12.895 Q85.827 12.019 85.827 10.938 Q85.827 9.857 86.704 8.977 Q87.58 8.097 88.663 8.097 H98.327 V1.895 H93.038 Q92.08 1.895 91.454 1.27 Q90.827 0.644 90.827 -0.312 Q90.827 -1.268 91.454 -1.898 Q92.08 -2.528 93.038 -2.528 H98.327 V-8.73 H88.663 Q87.58 -8.73 86.704 -9.605 Q85.827 -10.481 85.827 -11.562 Q85.827 -12.643 86.704 -13.523 Q87.58 -14.403 88.663 -14.403 H99.913 Q101.65 -14.403 102.825 -13.228 Q104 -12.053 104 -10.316 V-4.018 Q104 -2.282 102.825 -1.107 Q101.65 0.068 99.913 0.068 Q101.65 0.068 102.825 1.243 Q104 2.418 104 4.155 V9.684 Q104 11.42 102.825 12.595 Q101.65 13.77 99.913 13.77 H88.663 Z M90.154 -21.143 Q88.372 -21.143 87.099 -22.416 Q85.827 -23.688 85.827 -25.47 V-33.355 Q85.827 -35.092 87.002 -36.267 Q88.177 -37.441 89.913 -37.441 H98.327 V-43.643 H88.663 Q87.58 -43.643 86.704 -44.519 Q85.827 -45.394 85.827 -46.475 Q85.827 -47.557 86.704 -48.437 Q87.58 -49.316 88.663 -49.316 H99.913 Q101.65 -49.316 102.825 -48.142 Q104 -46.967 104 -45.23 V-37.105 Q104 -35.368 102.825 -34.193 Q101.65 -33.018 99.913 -33.018 H91.5 V-26.816 H101.163 Q102.247 -26.816 103.123 -25.941 Q104 -25.066 104 -23.984 Q104 -22.903 103.123 -22.023 Q102.247 -21.143 101.163 -21.143 H90.154 Z M96.168 -56.182 Q95.087 -56.182 94.207 -57.058 Q93.327 -57.935 93.327 -59.018 V-79.932 H88.038 Q87.08 -79.932 86.454 -80.557 Q85.827 -81.183 85.827 -82.139 Q85.827 -83.095 86.454 -83.725 Q87.08 -84.355 88.038 -84.355 H94.769 Q96.551 -84.355 97.776 -83.131 Q99 -81.906 99 -80.124 V-59.018 Q99 -57.935 98.125 -57.058 Q97.249 -56.182 96.168 -56.182 Z M25.375 -0.73 Q23.688 -0.73 22.469 -1.95 Q21.25 -3.169 21.25 -4.858 Q21.25 -6.547 22.469 -7.764 Q23.688 -8.98 25.375 -8.98 H70.548 Q72.236 -8.98 73.454 -7.76 Q74.673 -6.541 74.673 -4.852 Q74.673 -3.163 73.454 -1.946 Q72.236 -0.73 70.548 -0.73 H25.375 Z M25.375 -31.23 Q23.688 -31.23 22.469 -32.45 Q21.25 -33.669 21.25 -35.358 Q21.25 -37.047 22.469 -38.264 Q23.688 -39.48 25.375 -39.48 H70.548 Q72.236 -39.48 73.454 -38.26 Q74.673 -37.041 74.673 -35.352 Q74.673 -33.663 73.454 -32.446 Q72.236 -31.23 70.548 -31.23 H25.375 Z M25.375 -61.73 Q23.688 -61.73 22.469 -62.95 Q21.25 -64.169 21.25 -65.858 Q21.25 -67.547 22.469 -68.764 Q23.688 -69.98 25.375 -69.98 H70.548 Q72.236 -69.98 73.454 -68.76 Q74.673 -67.541 74.673 -65.852 Q74.673 -64.163 73.454 -62.946 Q72.236 -61.73 70.548 -61.73 H25.375 Z"/></g><g id="Ultralight-M" transform="matrix(1 0 0 1 506.415 1126)"><path d="M87.625 12.27 Q86.742 12.27 85.996 11.526 Q85.25 10.782 85.25 9.901 Q85.25 9.02 85.996 8.27 Q86.742 7.52 87.625 7.52 H97.75 V0.395 H92 Q91.242 0.395 90.746 -0.099 Q90.25 -0.593 90.25 -1.349 Q90.25 -2.105 90.746 -2.605 Q91.242 -3.105 92 -3.105 H97.75 V-10.23 H87.625 Q86.742 -10.23 85.996 -10.974 Q85.25 -11.718 85.25 -12.599 Q85.25 -13.48 85.996 -14.23 Q86.742 -14.98 87.625 -14.98 H98.875 Q100.416 -14.98 101.458 -13.938 Q102.5 -12.896 102.5 -11.355 V-4.48 Q102.5 -2.939 101.458 -1.897 Q100.416 -0.855 98.875 -0.855 Q100.416 -0.855 101.458 0.187 Q102.5 1.229 102.5 2.77 V8.645 Q102.5 10.186 101.458 11.228 Q100.416 12.27 98.875 12.27 H87.625 Z M89.375 -21.605 Q87.708 -21.605 86.479 -22.834 Q85.25 -24.063 85.25 -25.73 V-33.355 Q85.25 -34.896 86.292 -35.938 Q87.334 -36.98 88.875 -36.98 H97.75 V-44.105 H87.625 Q86.742 -44.105 85.996 -44.849 Q85.25 -45.593 85.25 -46.474 Q85.25 -47.355 85.996 -48.105 Q86.742 -48.855 87.625 -48.855 H98.875 Q100.416 -48.855 101.458 -47.813 Q102.5 -46.771 102.5 -45.23 V-37.105 Q102.5 -35.564 101.458 -34.522 Q100.416 -33.48 98.875 -33.48 H90 V-26.355 H100.125 Q101.008 -26.355 101.754 -25.611 Q102.5 -24.867 102.5 -23.986 Q102.5 -23.105 101.754 -22.355 Q101.008 -21.605 100.125 -21.605 H89.375 Z M95.131 -55.605 Q94.25 -55.605 93.5 -56.351 Q92.75 -57.097 92.75 -57.98 V-79.355 H87 Q86.242 -79.355 85.746 -79.849 Q85.25 -80.343 85.25 -81.099 Q85.25 -81.855 85.746 -82.355 Q86.242 -82.855 87 -82.855 H93.5 Q95.167 -82.855 96.333 -81.688 Q97.5 -80.522 97.5 -78.855 V-57.98 Q97.5 -57.097 96.756 -56.351 Q96.012 -55.605 95.131 -55.605 Z M26.125 -1.48 Q24.756 -1.48 23.753 -2.484 Q22.75 -3.489 22.75 -4.859 Q22.75 -6.23 23.753 -7.23 Q24.756 -8.23 26.125 -8.23 H70.375 Q71.744 -8.23 72.747 -7.226 Q73.75 -6.221 73.75 -4.851 Q73.75 -3.48 72.747 -2.48 Q71.744 -1.48 70.375 -1.48 H26.125 Z M26.125 -31.98 Q24.756 -31.98 23.753 -32.984 Q22.75 -33.989 22.75 -35.359 Q22.75 -36.73 23.753 -37.73 Q24.756 -38.73 26.125 -38.73 H70.375 Q71.744 -38.73 72.747 -37.726 Q73.75 -36.721 73.75 -35.351 Q73.75 -33.98 72.747 -32.98 Q71.744 -31.98 70.375 -31.98 H26.125 Z M26.125 -62.48 Q24.756 -62.48 23.753 -63.484 Q22.75 -64.489 22.75 -65.859 Q22.75 -67.23 23.753 -68.23 Q24.756 -69.23 26.125 -69.23 H70.375 Q71.744 -69.23 72.747 -68.226 Q73.75 -67.221 73.75 -65.851 Q73.75 -64.48 72.747 -63.48 Q71.744 -62.48 70.375 -62.48 H26.125 Z"/></g><g id="Bold-S" transform="matrix(1 0 0 1 2294.23 696)"><path d="M71.996 2.445 Q70.573 2.445 69.509 1.452 Q68.446 0.459 68.446 -1.033 Q68.446 -2.526 69.509 -3.591 Q70.573 -4.656 71.996 -4.656 H77.914 V-5.84 H75.547 Q74.62 -5.84 73.9 -6.51 Q73.18 -7.181 73.18 -8.207 Q73.18 -9.134 73.9 -9.854 Q74.62 -10.574 75.547 -10.574 H77.914 V-11.757 H71.996 Q70.573 -11.757 69.509 -12.75 Q68.446 -13.743 68.446 -15.235 Q68.446 -16.728 69.509 -17.793 Q70.573 -18.858 71.996 -18.858 H81.464 Q82.973 -18.858 83.994 -17.837 Q85.015 -16.817 85.015 -15.308 V-11.757 Q85.015 -10.248 83.994 -9.228 Q82.973 -8.207 81.464 -8.207 Q82.973 -8.207 83.994 -7.186 Q85.015 -6.165 85.015 -4.656 V-1.106 Q85.015 0.403 83.994 1.424 Q82.973 2.445 81.464 2.445 H71.996 Z M73.18 -24.578 Q71.197 -24.578 69.822 -25.954 Q68.446 -27.33 68.446 -29.331 V-34.046 Q68.446 -35.555 69.467 -36.576 Q70.487 -37.597 71.996 -37.597 H77.914 V-38.78 H71.996 Q70.573 -38.78 69.509 -39.843 Q68.446 -40.906 68.446 -42.329 Q68.446 -43.751 69.509 -44.816 Q70.573 -45.881 71.996 -45.881 H81.464 Q82.973 -45.881 83.994 -44.861 Q85.015 -43.84 85.015 -42.331 V-36.413 Q85.015 -34.905 83.994 -33.884 Q82.973 -32.863 81.464 -32.863 H75.547 V-31.679 H81.418 Q83.016 -31.679 84.015 -30.617 Q85.015 -29.554 85.015 -28.131 Q85.015 -26.709 84.015 -25.644 Q83.016 -24.578 81.43 -24.578 H73.18 Z M76.803 -51.7 Q75.317 -51.7 74.257 -52.764 Q73.196 -53.827 73.196 -55.251 V-67.283 H71.338 Q70.221 -67.283 69.333 -68.102 Q68.446 -68.92 68.446 -70.094 Q68.446 -71.268 69.314 -72.135 Q70.182 -73.003 71.306 -73.003 H75.547 Q77.588 -73.003 78.935 -71.628 Q80.281 -70.252 80.281 -68.269 V-55.268 Q80.281 -53.867 79.288 -52.784 Q78.295 -51.7 76.803 -51.7 Z M19.922 -8.7 Q17.23 -8.7 15.42 -10.504 Q13.61 -12.307 13.61 -14.942 Q13.61 -17.576 15.42 -19.45 Q17.23 -21.324 19.922 -21.324 H55.033 Q57.725 -21.324 59.535 -19.451 Q61.345 -17.578 61.345 -15.033 Q61.345 -12.349 59.535 -10.524 Q57.725 -8.7 55.033 -8.7 H19.922 Z M19.922 -28.918 Q17.23 -28.918 15.42 -30.791 Q13.61 -32.664 13.61 -35.209 Q13.61 -37.893 15.42 -39.717 Q17.23 -41.542 19.922 -41.542 H55.033 Q57.725 -41.542 59.535 -39.738 Q61.345 -37.934 61.345 -35.3 Q61.345 -32.666 59.535 -30.792 Q57.725 -28.918 55.033 -28.918 H19.922 Z M19.922 -49.235 Q17.23 -49.235 15.42 -51.039 Q13.61 -52.842 13.61 -55.477 Q13.61 -58.111 15.42 -59.985 Q17.23 -61.859 19.922 -61.859 H55.033 Q57.725 -61.859 59.535 -59.986 Q61.345 -58.113 61.345 -55.568 Q61.345 -52.884 59.535 -51.059 Q57.725 -49.235 55.033 -49.235 H19.922 Z"/></g><g id="Semibold-S" transform="matrix(1 0 0 1 1998.1 696)"><path d="M71.696 1.844 Q70.403 1.844 69.424 0.906 Q68.446 -0.033 68.446 -1.365 Q68.446 -2.697 69.424 -3.677 Q70.403 -4.656 71.696 -4.656 H77.914 V-6.14 H75.547 Q74.577 -6.14 73.878 -6.811 Q73.18 -7.481 73.18 -8.507 Q73.18 -9.477 73.878 -10.175 Q74.577 -10.874 75.547 -10.874 H77.914 V-12.358 H71.696 Q70.403 -12.358 69.424 -13.296 Q68.446 -14.235 68.446 -15.567 Q68.446 -16.899 69.424 -17.879 Q70.403 -18.858 71.696 -18.858 H81.164 Q82.545 -18.858 83.48 -17.924 Q84.414 -16.989 84.414 -15.608 V-11.757 Q84.414 -10.376 83.48 -9.441 Q82.545 -8.507 81.164 -8.507 Q82.545 -8.507 83.48 -7.572 Q84.414 -6.638 84.414 -5.257 V-1.406 Q84.414 -0.025 83.48 0.91 Q82.545 1.844 81.164 1.844 H71.696 Z M72.708 -24.879 Q70.93 -24.879 69.688 -26.121 Q68.446 -27.363 68.446 -29.159 V-34.347 Q68.446 -35.728 69.38 -36.663 Q70.315 -37.597 71.696 -37.597 H77.914 V-39.081 H71.696 Q70.403 -39.081 69.424 -40.059 Q68.446 -41.037 68.446 -42.33 Q68.446 -43.623 69.424 -44.602 Q70.403 -45.581 71.696 -45.581 H81.164 Q82.545 -45.581 83.48 -44.647 Q84.414 -43.712 84.414 -42.331 V-36.113 Q84.414 -34.732 83.48 -33.797 Q82.545 -32.863 81.164 -32.863 H74.946 V-31.379 H81.138 Q82.53 -31.379 83.472 -30.401 Q84.414 -29.423 84.414 -28.13 Q84.414 -26.837 83.472 -25.858 Q82.53 -24.879 81.145 -24.879 H72.708 Z M76.471 -51.7 Q75.146 -51.7 74.171 -52.679 Q73.196 -53.657 73.196 -54.951 V-67.112 H71.124 Q70.049 -67.112 69.248 -67.866 Q68.446 -68.62 68.446 -69.73 Q68.446 -70.839 69.228 -71.621 Q70.01 -72.403 71.091 -72.403 H75.418 Q77.23 -72.403 78.455 -71.161 Q79.68 -69.919 79.68 -68.141 V-54.968 Q79.68 -53.697 78.742 -52.699 Q77.803 -51.7 76.471 -51.7 Z M19.965 -9.257 Q17.573 -9.257 15.935 -10.89 Q14.296 -12.522 14.296 -14.877 Q14.296 -17.233 15.935 -18.914 Q17.573 -20.595 19.965 -20.595 H55.676 Q58.068 -20.595 59.706 -18.924 Q61.345 -17.252 61.345 -14.947 Q61.345 -12.563 59.706 -10.91 Q58.068 -9.257 55.676 -9.257 H19.965 Z M19.965 -29.604 Q17.573 -29.604 15.935 -31.275 Q14.296 -32.947 14.296 -35.252 Q14.296 -37.636 15.935 -39.289 Q17.573 -40.942 19.965 -40.942 H55.676 Q58.068 -40.942 59.706 -39.309 Q61.345 -37.677 61.345 -35.322 Q61.345 -32.966 59.706 -31.285 Q58.068 -29.604 55.676 -29.604 H19.965 Z M19.965 -50.007 Q17.573 -50.007 15.935 -51.639 Q14.296 -53.271 14.296 -55.627 Q14.296 -57.982 15.935 -59.663 Q17.573 -61.344 19.965 -61.344 H55.676 Q58.068 -61.344 59.706 -59.673 Q61.345 -58.002 61.345 -55.696 Q61.345 -53.313 59.706 -51.66 Q58.068 -50.007 55.676 -50.007 H19.965 Z"/></g><g id="Medium-S" transform="matrix(1 0 0 1 1701.85 696)"><path d="M71.471 1.394 Q70.275 1.394 69.36 0.496 Q68.446 -0.401 68.446 -1.614 Q68.446 -2.826 69.36 -3.741 Q70.275 -4.656 71.471 -4.656 H77.914 V-6.365 H75.547 Q74.545 -6.365 73.862 -7.036 Q73.18 -7.706 73.18 -8.732 Q73.18 -9.734 73.862 -10.417 Q74.545 -11.099 75.547 -11.099 H77.914 V-12.808 H71.471 Q70.275 -12.808 69.36 -13.706 Q68.446 -14.603 68.446 -15.816 Q68.446 -17.028 69.36 -17.943 Q70.275 -18.858 71.471 -18.858 H80.939 Q82.225 -18.858 83.094 -17.988 Q83.964 -17.119 83.964 -15.833 V-11.757 Q83.964 -10.472 83.094 -9.602 Q82.225 -8.732 80.939 -8.732 Q82.225 -8.732 83.094 -7.862 Q83.964 -6.993 83.964 -5.707 V-1.631 Q83.964 -0.345 83.094 0.524 Q82.225 1.394 80.939 1.394 H71.471 Z M72.354 -25.104 Q70.73 -25.104 69.588 -26.246 Q68.446 -27.388 68.446 -29.03 V-34.572 Q68.446 -35.857 69.316 -36.727 Q70.185 -37.597 71.471 -37.597 H77.914 V-39.306 H71.471 Q70.275 -39.306 69.36 -40.22 Q68.446 -41.135 68.446 -42.33 Q68.446 -43.526 69.36 -44.441 Q70.275 -45.356 71.471 -45.356 H80.939 Q82.225 -45.356 83.094 -44.486 Q83.964 -43.617 83.964 -42.331 V-35.888 Q83.964 -34.603 83.094 -33.733 Q82.225 -32.863 80.939 -32.863 H74.496 V-31.154 H80.928 Q82.165 -31.154 83.065 -30.24 Q83.964 -29.325 83.964 -28.13 Q83.964 -26.934 83.065 -26.019 Q82.165 -25.104 80.931 -25.104 H72.354 Z M76.222 -51.7 Q75.017 -51.7 74.106 -52.615 Q73.196 -53.53 73.196 -54.726 V-66.983 H70.963 Q69.921 -66.983 69.183 -67.689 Q68.446 -68.395 68.446 -69.456 Q68.446 -70.517 69.164 -71.235 Q69.881 -71.953 70.931 -71.953 H75.322 Q76.96 -71.953 78.095 -70.811 Q79.23 -69.669 79.23 -68.044 V-54.742 Q79.23 -53.569 78.332 -52.635 Q77.435 -51.7 76.222 -51.7 Z M19.997 -9.675 Q17.83 -9.675 16.32 -11.179 Q14.811 -12.683 14.811 -14.829 Q14.811 -16.976 16.32 -18.512 Q17.83 -20.048 19.997 -20.048 H56.158 Q58.326 -20.048 59.835 -18.528 Q61.345 -17.008 61.345 -14.883 Q61.345 -12.724 59.835 -11.2 Q58.326 -9.675 56.158 -9.675 H19.997 Z M19.997 -30.119 Q17.83 -30.119 16.32 -31.639 Q14.811 -33.159 14.811 -35.284 Q14.811 -37.443 16.32 -38.967 Q17.83 -40.491 19.997 -40.491 H56.158 Q58.326 -40.491 59.835 -38.988 Q61.345 -37.484 61.345 -35.338 Q61.345 -33.191 59.835 -31.655 Q58.326 -30.119 56.158 -30.119 H19.997 Z M19.997 -50.586 Q17.83 -50.586 16.32 -52.089 Q14.811 -53.593 14.811 -55.739 Q14.811 -57.886 16.32 -59.422 Q17.83 -60.958 19.997 -60.958 H56.158 Q58.326 -60.958 59.835 -59.438 Q61.345 -57.918 61.345 -55.793 Q61.345 -53.634 59.835 -52.11 Q58.326 -50.586 56.158 -50.586 H19.997 Z"/></g><g id="Regular-S" transform="matrix(1 0 0 1 1405.73 696)"><path d="M71.306 1.064 Q70.182 1.064 69.314 0.196 Q68.446 -0.672 68.446 -1.796 Q68.446 -2.92 69.314 -3.788 Q70.182 -4.656 71.306 -4.656 H77.914 V-6.53 H75.547 Q74.521 -6.53 73.85 -7.201 Q73.18 -7.871 73.18 -8.897 Q73.18 -9.923 73.85 -10.593 Q74.521 -11.264 75.547 -11.264 H77.914 V-13.138 H71.306 Q70.182 -13.138 69.314 -14.006 Q68.446 -14.874 68.446 -15.998 Q68.446 -17.122 69.314 -17.99 Q70.182 -18.858 71.306 -18.858 H80.774 Q81.989 -18.858 82.812 -18.036 Q83.634 -17.214 83.634 -15.998 V-11.757 Q83.634 -10.542 82.812 -9.719 Q81.989 -8.897 80.774 -8.897 Q81.989 -8.897 82.812 -8.075 Q83.634 -7.253 83.634 -6.037 V-1.796 Q83.634 -0.581 82.812 0.242 Q81.989 1.064 80.774 1.064 H71.306 Z M72.095 -25.269 Q70.583 -25.269 69.514 -26.337 Q68.446 -27.406 68.446 -28.936 V-34.737 Q68.446 -35.952 69.268 -36.775 Q70.09 -37.597 71.306 -37.597 H77.914 V-39.471 H71.306 Q70.182 -39.471 69.314 -40.339 Q68.446 -41.207 68.446 -42.331 Q68.446 -43.455 69.314 -44.323 Q70.182 -45.191 71.306 -45.191 H80.774 Q81.989 -45.191 82.812 -44.369 Q83.634 -43.547 83.634 -42.331 V-35.723 Q83.634 -34.508 82.812 -33.685 Q81.989 -32.863 80.774 -32.863 H74.166 V-30.989 H80.774 Q81.898 -30.989 82.766 -30.121 Q83.634 -29.253 83.634 -28.129 Q83.634 -27.005 82.766 -26.137 Q81.898 -25.269 80.774 -25.269 H72.095 Z M76.04 -51.7 Q74.923 -51.7 74.059 -52.568 Q73.196 -53.436 73.196 -54.56 V-66.889 H70.845 Q69.827 -66.889 69.136 -67.559 Q68.446 -68.23 68.446 -69.256 Q68.446 -70.281 69.116 -70.952 Q69.787 -71.623 70.813 -71.623 H75.251 Q76.763 -71.623 77.832 -70.554 Q78.9 -69.486 78.9 -67.973 V-54.577 Q78.9 -53.476 78.032 -52.588 Q77.164 -51.7 76.04 -51.7 Z M20.021 -9.982 Q18.019 -9.982 16.604 -11.391 Q15.188 -12.801 15.188 -14.794 Q15.188 -16.787 16.604 -18.217 Q18.019 -19.647 20.021 -19.647 H56.512 Q58.514 -19.647 59.929 -18.238 Q61.345 -16.829 61.345 -14.835 Q61.345 -12.842 59.929 -11.412 Q58.514 -9.982 56.512 -9.982 H20.021 Z M20.021 -30.496 Q18.019 -30.496 16.604 -31.905 Q15.188 -33.315 15.188 -35.308 Q15.188 -37.301 16.604 -38.731 Q18.019 -40.161 20.021 -40.161 H56.512 Q58.514 -40.161 59.929 -38.752 Q61.345 -37.343 61.345 -35.349 Q61.345 -33.356 59.929 -31.926 Q58.514 -30.496 56.512 -30.496 H20.021 Z M20.021 -51.01 Q18.019 -51.01 16.604 -52.419 Q15.188 -53.829 15.188 -55.822 Q15.188 -57.815 16.604 -59.245 Q18.019 -60.675 20.021 -60.675 H56.512 Q58.514 -60.675 59.929 -59.266 Q61.345 -57.857 61.345 -55.863 Q61.345 -53.87 59.929 -52.44 Q58.514 -51.01 56.512 -51.01 H20.021 Z"/></g><g id="Light-S" transform="matrix(1 0 0 1 1109.75 696)"><path d="M69.94 -0.909 Q69.079 -0.909 68.383 -1.604 Q67.687 -2.3 67.687 -3.16 Q67.687 -4.021 68.383 -4.718 Q69.079 -5.415 69.94 -5.415 H77.155 V-8.503 H74.181 Q73.418 -8.503 72.92 -9.001 Q72.421 -9.499 72.421 -10.261 Q72.421 -11.023 72.92 -11.523 Q73.418 -12.023 74.181 -12.023 H77.155 V-15.111 H69.94 Q69.079 -15.111 68.383 -15.806 Q67.687 -16.502 67.687 -17.362 Q67.687 -18.223 68.383 -18.92 Q69.079 -19.617 69.94 -19.617 H79.408 Q80.366 -19.617 81.014 -18.969 Q81.661 -18.321 81.661 -17.364 V-12.364 Q81.661 -11.407 81.014 -10.759 Q80.366 -10.111 79.408 -10.111 Q80.366 -10.111 81.014 -9.463 Q81.661 -8.815 81.661 -7.858 V-3.162 Q81.661 -2.204 81.014 -1.556 Q80.366 -0.909 79.408 -0.909 H69.94 Z M71.071 -25.876 Q69.71 -25.876 68.699 -26.887 Q67.687 -27.899 67.687 -29.277 V-34.737 Q67.687 -35.694 68.335 -36.342 Q68.983 -36.99 69.94 -36.99 H77.155 V-40.078 H69.94 Q69.079 -40.078 68.383 -40.773 Q67.687 -41.469 67.687 -42.329 Q67.687 -43.19 68.383 -43.887 Q69.079 -44.584 69.94 -44.584 H79.408 Q80.366 -44.584 81.014 -43.936 Q81.661 -43.289 81.661 -42.331 V-35.723 Q81.661 -34.766 81.014 -34.118 Q80.366 -33.47 79.408 -33.47 H72.193 V-30.382 H79.408 Q80.27 -30.382 80.965 -29.687 Q81.661 -28.991 81.661 -28.131 Q81.661 -27.27 80.965 -26.573 Q80.27 -25.876 79.408 -25.876 H71.071 Z M74.676 -50.942 Q73.822 -50.942 73.13 -51.638 Q72.437 -52.334 72.437 -53.195 V-66.13 H69.48 Q68.724 -66.13 68.205 -66.628 Q67.687 -67.126 67.687 -67.888 Q67.687 -68.65 68.186 -69.15 Q68.684 -69.65 69.447 -69.65 H73.582 Q74.942 -69.65 75.935 -68.657 Q76.927 -67.665 76.927 -66.304 V-53.212 Q76.927 -52.373 76.232 -51.657 Q75.536 -50.942 74.676 -50.942 Z M21.007 -10.968 Q19.424 -10.968 18.293 -12.094 Q17.161 -13.221 17.161 -14.795 Q17.161 -16.37 18.293 -17.515 Q19.424 -18.661 21.007 -18.661 H56.284 Q57.867 -18.661 58.999 -17.535 Q60.131 -16.409 60.131 -14.834 Q60.131 -13.259 58.999 -12.114 Q57.867 -10.968 56.284 -10.968 H21.007 Z M21.007 -31.482 Q19.424 -31.482 18.293 -32.608 Q17.161 -33.735 17.161 -35.309 Q17.161 -36.884 18.293 -38.029 Q19.424 -39.175 21.007 -39.175 H56.284 Q57.867 -39.175 58.999 -38.049 Q60.131 -36.923 60.131 -35.348 Q60.131 -33.773 58.999 -32.628 Q57.867 -31.482 56.284 -31.482 H21.007 Z M21.007 -51.996 Q19.424 -51.996 18.293 -53.122 Q17.161 -54.249 17.161 -55.823 Q17.161 -57.398 18.293 -58.543 Q19.424 -59.689 21.007 -59.689 H56.284 Q57.867 -59.689 58.999 -58.563 Q60.131 -57.437 60.131 -55.862 Q60.131 -54.287 58.999 -53.142 Q57.867 -51.996 56.284 -51.996 H21.007 Z"/></g><g id="Thin-S" transform="matrix(1 0 0 1 814.015 696)"><path d="M68.575 -2.881 Q67.976 -2.881 67.452 -3.404 Q66.928 -3.927 66.928 -4.524 Q66.928 -5.121 67.452 -5.647 Q67.976 -6.174 68.575 -6.174 H76.396 V-10.475 H72.816 Q72.316 -10.475 71.989 -10.801 Q71.662 -11.127 71.662 -11.625 Q71.662 -12.123 71.989 -12.452 Q72.316 -12.781 72.816 -12.781 H76.396 V-17.083 H68.575 Q67.976 -17.083 67.452 -17.606 Q66.928 -18.129 66.928 -18.726 Q66.928 -19.323 67.452 -19.849 Q67.976 -20.376 68.575 -20.376 H78.043 Q78.742 -20.376 79.216 -19.902 Q79.689 -19.429 79.689 -18.729 V-12.971 Q79.689 -12.271 79.216 -11.798 Q78.742 -11.325 78.043 -11.325 Q78.742 -11.325 79.216 -10.851 Q79.689 -10.378 79.689 -9.679 V-4.527 Q79.689 -3.828 79.216 -3.354 Q78.742 -2.881 78.043 -2.881 H68.575 Z M70.047 -26.483 Q68.838 -26.483 67.883 -27.437 Q66.928 -28.392 66.928 -29.619 V-34.737 Q66.928 -35.437 67.402 -35.91 Q67.875 -36.383 68.575 -36.383 H76.396 V-40.685 H68.575 Q67.976 -40.685 67.452 -41.208 Q66.928 -41.731 66.928 -42.327 Q66.928 -42.924 67.452 -43.451 Q67.976 -43.977 68.575 -43.977 H78.043 Q78.742 -43.977 79.216 -43.504 Q79.689 -43.031 79.689 -42.331 V-35.723 Q79.689 -35.023 79.216 -34.55 Q78.742 -34.077 78.043 -34.077 H70.221 V-29.775 H78.043 Q78.641 -29.775 79.165 -29.252 Q79.689 -28.729 79.689 -28.133 Q79.689 -27.536 79.165 -27.009 Q78.641 -26.483 78.043 -26.483 H70.047 Z M73.312 -50.183 Q72.723 -50.183 72.201 -50.707 Q71.679 -51.231 71.679 -51.829 V-65.371 H68.114 Q67.621 -65.371 67.275 -65.697 Q66.928 -66.023 66.928 -66.521 Q66.928 -67.019 67.255 -67.348 Q67.582 -67.678 68.082 -67.678 H71.913 Q73.122 -67.678 74.038 -66.761 Q74.955 -65.844 74.955 -64.635 V-51.846 Q74.955 -51.27 74.432 -50.727 Q73.909 -50.183 73.312 -50.183 Z M21.993 -11.954 Q20.83 -11.954 19.981 -12.797 Q19.133 -13.64 19.133 -14.796 Q19.133 -15.953 19.981 -16.814 Q20.83 -17.675 21.993 -17.675 H56.057 Q57.221 -17.675 58.069 -16.832 Q58.917 -15.989 58.917 -14.833 Q58.917 -13.677 58.069 -12.816 Q57.221 -11.954 56.057 -11.954 H21.993 Z M21.993 -32.468 Q20.83 -32.468 19.981 -33.311 Q19.133 -34.154 19.133 -35.31 Q19.133 -36.467 19.981 -37.328 Q20.83 -38.189 21.993 -38.189 H56.057 Q57.221 -38.189 58.069 -37.346 Q58.917 -36.503 58.917 -35.347 Q58.917 -34.191 58.069 -33.33 Q57.221 -32.468 56.057 -32.468 H21.993 Z M21.993 -52.982 Q20.83 -52.982 19.981 -53.825 Q19.133 -54.668 19.133 -55.824 Q19.133 -56.981 19.981 -57.842 Q20.83 -58.703 21.993 -58.703 H56.057 Q57.221 -58.703 58.069 -57.86 Q58.917 -57.017 58.917 -55.861 Q58.917 -54.705 58.069 -53.844 Q57.221 -52.982 56.057 -52.982 H21.993 Z"/></g><g id="Ultralight-S" transform="matrix(1 0 0 1 517.792 696)"><path d="M67.755 -4.064 Q67.315 -4.064 66.894 -4.484 Q66.473 -4.904 66.473 -5.342 Q66.473 -5.781 66.894 -6.205 Q67.315 -6.629 67.755 -6.629 H75.941 V-11.659 H71.996 Q71.654 -11.659 71.431 -11.881 Q71.207 -12.103 71.207 -12.443 Q71.207 -12.783 71.431 -13.01 Q71.654 -13.237 71.996 -13.237 H75.941 V-18.266 H67.755 Q67.315 -18.266 66.894 -18.686 Q66.473 -19.106 66.473 -19.544 Q66.473 -19.983 66.894 -20.407 Q67.315 -20.831 67.755 -20.831 H77.223 Q77.768 -20.831 78.137 -20.462 Q78.505 -20.094 78.505 -19.549 V-13.335 Q78.505 -12.79 78.137 -12.422 Q77.768 -12.053 77.223 -12.053 Q77.768 -12.053 78.137 -11.684 Q78.505 -11.316 78.505 -10.771 V-5.347 Q78.505 -4.802 78.137 -4.433 Q77.768 -4.064 77.223 -4.064 H67.755 Z M69.432 -26.847 Q68.314 -26.847 67.394 -27.767 Q66.473 -28.688 66.473 -29.824 V-34.737 Q66.473 -35.282 66.842 -35.65 Q67.21 -36.019 67.755 -36.019 H75.941 V-41.049 H67.755 Q67.315 -41.049 66.894 -41.468 Q66.473 -41.888 66.473 -42.326 Q66.473 -42.765 66.894 -43.189 Q67.315 -43.613 67.755 -43.613 H77.223 Q77.768 -43.613 78.137 -43.245 Q78.505 -42.876 78.505 -42.331 V-35.723 Q78.505 -35.178 78.137 -34.81 Q77.768 -34.441 77.223 -34.441 H69.038 V-29.411 H77.223 Q77.664 -29.411 78.085 -28.992 Q78.505 -28.572 78.505 -28.134 Q78.505 -27.695 78.085 -27.271 Q77.664 -26.847 77.223 -26.847 H69.432 Z M72.494 -49.728 Q72.062 -49.728 71.643 -50.149 Q71.223 -50.569 71.223 -51.01 V-64.916 H67.295 Q66.96 -64.916 66.717 -65.138 Q66.473 -65.361 66.473 -65.7 Q66.473 -66.04 66.697 -66.267 Q66.92 -66.494 67.262 -66.494 H70.911 Q72.029 -66.494 72.9 -65.623 Q73.772 -64.752 73.772 -63.634 V-51.027 Q73.772 -50.609 73.352 -50.168 Q72.932 -49.728 72.494 -49.728 Z M22.585 -12.546 Q21.673 -12.546 20.995 -13.219 Q20.317 -13.892 20.317 -14.797 Q20.317 -15.702 20.995 -16.393 Q21.673 -17.083 22.585 -17.083 H55.92 Q56.833 -17.083 57.511 -16.41 Q58.189 -15.737 58.189 -14.832 Q58.189 -13.927 57.511 -13.237 Q56.833 -12.546 55.92 -12.546 H22.585 Z M22.585 -33.06 Q21.673 -33.06 20.995 -33.733 Q20.317 -34.406 20.317 -35.311 Q20.317 -36.216 20.995 -36.907 Q21.673 -37.597 22.585 -37.597 H55.92 Q56.833 -37.597 57.511 -36.924 Q58.189 -36.251 58.189 -35.346 Q58.189 -34.441 57.511 -33.751 Q56.833 -33.06 55.92 -33.06 H22.585 Z M22.585 -53.574 Q21.673 -53.574 20.995 -54.247 Q20.317 -54.92 20.317 -55.825 Q20.317 -56.73 20.995 -57.421 Q21.673 -58.111 22.585 -58.111 H55.92 Q56.833 -58.111 57.511 -57.438 Q58.189 -56.765 58.189 -55.86 Q58.189 -54.955 57.511 -54.265 Q56.833 -53.574 55.92 -53.574 H22.585 Z"/></g></g></svg>