<svg xmlns="http://www.w3.org/2000/svg" version="1.1" width="3300" height="2000"><g id="Notes"><style>
    text {
      font-family: monospace;
      text-anchor: middle;
    }
    text.emphasis {
      font-weight:bold;
    }
    text.lanchor {
      text-anchor: start;
    }
  </style><rect height="2200" id="artboard" fill="white" width="3300" x="0" y="0"/><line id="" style="fill:none;stroke:black;stroke-width:0.5;" x1="263" x2="3036" y1="292" y2="292"/><text class="lanchor emphasis" transform="matrix(1 0 0 1 263 322)">Weight/Scale Variations</text><text transform="matrix(1 0 0 1 559.711 322)">Ultralight</text><text transform="matrix(1 0 0 1 856.422 322)">Thin</text><text transform="matrix(1 0 0 1 1153.13 322)">Light</text><text transform="matrix(1 0 0 1 1449.84 322)">Regular</text><text transform="matrix(1 0 0 1 1746.56 322)">Medium</text><text transform="matrix(1 0 0 1 2043.27 322)">Semibold</text><text transform="matrix(1 0 0 1 2339.98 322)">Bold</text><text transform="matrix(1 0 0 1 2636.69 322)">Heavy</text><text transform="matrix(1 0 0 1 2933.4 322)">Black</text><text id="template-version" style="text-anchor: end;" transform="matrix(1 0 0 1 3036 1933)">Template v.1.0</text><text class="lanchor" transform="matrix(1 0 0 1 263 726)">Small</text><text class="lanchor" transform="matrix(1 0 0 1 263 1156)">Medium</text><text class="lanchor" transform="matrix(1 0 0 1 263 1586)">Large</text></g><g id="Guides"><g id="H-reference" style="fill:#27AAE1;stroke:none;" transform="matrix(1 0 0 1 339 696)"><path d="M 54.9316 0 L 57.666 0 L 30.5664 -70.459 L 28.0762 -70.459 L 0.976562 0 L 3.66211 0 L 12.9395 -24.4629 L 45.7031 -24.4629 Z M 29.1992 -67.0898 L 29.4434 -67.0898 L 44.8242 -26.709 L 13.8184 -26.709 Z"/></g><line id="Baseline-S" style="fill:none;stroke:#27AAE1;opacity:1;stroke-width:0.577;" x1="263" x2="3036" y1="696" y2="696"/><line id="Capline-S" style="fill:none;stroke:#27AAE1;opacity:1;stroke-width:0.577;" x1="263" x2="3036" y1="625.541" y2="625.541"/><g id="H-reference" style="fill:#27AAE1;stroke:none;" transform="matrix(1 0 0 1 339 1126)"><path d="M 54.9316 0 L 57.666 0 L 30.5664 -70.459 L 28.0762 -70.459 L 0.976562 0 L 3.66211 0 L 12.9395 -24.4629 L 45.7031 -24.4629 Z M 29.1992 -67.0898 L 29.4434 -67.0898 L 44.8242 -26.709 L 13.8184 -26.709 Z"/></g><line id="Baseline-M" style="fill:none;stroke:#27AAE1;opacity:1;stroke-width:0.577;" x1="263" x2="3036" y1="1126" y2="1126"/><line id="Capline-M" style="fill:none;stroke:#27AAE1;opacity:1;stroke-width:0.577;" x1="263" x2="3036" y1="1055.54" y2="1055.54"/><g id="H-reference" style="fill:#27AAE1;stroke:none;" transform="matrix(1 0 0 1 339 1556)"><path d="M 54.9316 0 L 57.666 0 L 30.5664 -70.459 L 28.0762 -70.459 L 0.976562 0 L 3.66211 0 L 12.9395 -24.4629 L 45.7031 -24.4629 Z M 29.1992 -67.0898 L 29.4434 -67.0898 L 44.8242 -26.709 L 13.8184 -26.709 Z"/></g><line id="Baseline-L" style="fill:none;stroke:#27AAE1;opacity:1;stroke-width:0.577;" x1="263" x2="3036" y1="1556" y2="1556"/><line id="Capline-L" style="fill:none;stroke:#27AAE1;opacity:1;stroke-width:0.577;" x1="263" x2="3036" y1="1485.54" y2="1485.54"/><rect height="119.336" id="left-margin" style="fill:darkred;stroke:none;opacity:0.4;" width="12.4512" x="1394.06" y="1030.79"/><rect height="119.336" id="right-margin" style="fill:darkgreen;stroke:none;opacity:0.4;" width="12.4512" x="1502.5112" y="1030.79"/><rect x="1406.5112" y="1045" width="96" height="96" fill="none" stroke="blue" stroke-dasharray="5"/><rect x="1394.06" y="1030.79" width="120.9024" height="119.336" fill="none" stroke="blue"/></g><g id="Symbols"><g id="Bold-L" transform="matrix(1 0 0 1 2266 1556)"><path d="M65.79 -43.292 Q62.888 -43.292 60.227 -44.421 Q57.566 -45.55 55.148 -47.162 Q53.696 -47.969 52.448 -48.856 Q51.201 -49.742 49.665 -49.742 Q47.73 -49.742 46.26 -48.809 Q44.79 -47.875 43.504 -46.517 Q42.731 -45.711 41.937 -45.389 Q41.144 -45.066 40.151 -45.066 Q38.027 -45.066 36.59 -46.457 Q35.153 -47.848 35.153 -49.904 Q35.153 -50.871 35.556 -51.758 Q35.959 -52.645 36.731 -53.451 Q39.345 -56.192 42.579 -57.805 Q45.813 -59.417 49.587 -59.417 Q52.511 -59.417 55.189 -58.223 Q57.867 -57.029 60.469 -55.386 Q61.598 -54.58 62.937 -53.774 Q64.277 -52.967 65.79 -52.967 Q68.047 -52.967 71.918 -56.192 Q72.562 -56.999 73.482 -57.321 Q74.402 -57.644 75.453 -57.644 Q77.561 -57.644 78.932 -56.253 Q80.303 -54.862 80.303 -52.806 Q80.303 -51.839 79.899 -51.032 Q79.496 -50.226 78.851 -49.42 Q76.11 -46.679 72.804 -44.986 Q69.499 -43.292 65.79 -43.292 Z M65.79 -11.042 Q62.888 -11.042 60.227 -12.171 Q57.566 -13.3 55.148 -14.912 Q53.696 -15.719 52.448 -16.606 Q51.201 -17.492 49.665 -17.492 Q47.73 -17.492 46.26 -16.559 Q44.79 -15.625 43.504 -14.267 Q42.731 -13.461 41.937 -13.139 Q41.144 -12.816 40.151 -12.816 Q38.027 -12.816 36.59 -14.207 Q35.153 -15.598 35.153 -17.654 Q35.153 -18.621 35.556 -19.508 Q35.959 -20.395 36.731 -21.201 Q39.345 -23.942 42.579 -25.555 Q45.813 -27.167 49.587 -27.167 Q52.511 -27.167 55.189 -25.973 Q57.867 -24.779 60.469 -23.136 Q61.598 -22.33 62.937 -21.524 Q64.277 -20.717 65.79 -20.717 Q68.499 -20.717 70.531 -23.056 Q72.562 -25.394 75.419 -25.394 Q77.561 -25.394 78.932 -24.023 Q80.303 -22.652 80.303 -20.556 Q80.303 -19.589 79.899 -18.782 Q79.496 -17.976 78.851 -17.17 Q78.851 -17.124 78.807 -17.081 Q78.763 -17.038 78.69 -17.009 Q75.949 -14.267 72.741 -12.655 Q69.533 -11.042 65.79 -11.042 Z M24.026 20.401 Q17.729 20.401 13.299 15.971 Q8.869 11.541 8.869 5.244 V-75.704 Q8.869 -82.067 13.299 -86.545 Q17.729 -91.022 24.026 -91.022 H130.774 Q137.137 -91.022 141.615 -86.545 Q146.093 -82.067 146.093 -75.704 V5.244 Q146.093 11.541 141.615 15.971 Q137.137 20.401 130.774 20.401 H24.026 Z M24.026 5.244 H91.429 V-75.704 H24.026 Q24.026 -75.704 24.026 -75.704 Q24.026 -75.704 24.026 -75.704 V5.244 Q24.026 5.244 24.026 5.244 Q24.026 5.244 24.026 5.244 Z M117.793 -30.392 Q119.809 -30.392 121.179 -31.844 Q122.55 -33.295 122.55 -35.311 Q122.55 -37.326 121.159 -38.697 Q119.768 -40.067 117.713 -40.067 Q115.778 -40.067 114.326 -38.677 Q112.875 -37.286 112.875 -35.23 Q112.875 -33.295 114.326 -31.844 Q115.778 -30.392 117.793 -30.392 Z M117.793 -2.98 Q119.809 -2.98 121.179 -4.431 Q122.55 -5.882 122.55 -7.898 Q122.55 -9.914 121.159 -11.284 Q119.768 -12.655 117.713 -12.655 Q115.778 -12.655 114.326 -11.264 Q112.875 -9.873 112.875 -7.817 Q112.875 -5.882 114.326 -4.431 Q115.778 -2.98 117.793 -2.98 Z M116.745 -57.805 H118.841 Q120.293 -57.805 121.421 -59.03 Q122.55 -60.256 122.55 -61.675 V-63.771 Q122.55 -65.222 121.325 -66.351 Q120.099 -67.48 118.68 -67.48 H116.584 Q115.133 -67.48 114.004 -66.254 Q112.875 -65.029 112.875 -63.61 V-61.514 Q112.875 -60.062 114.101 -58.934 Q115.326 -57.805 116.745 -57.805 Z"/></g><g id="Semibold-L" transform="matrix(1 0 0 1 1970.27 1556)"><path d="M65.93 -43.292 Q63.028 -43.292 60.367 -44.421 Q57.707 -45.55 55.288 -47.162 Q53.907 -47.969 52.637 -48.856 Q51.368 -49.742 49.805 -49.742 Q47.94 -49.742 46.451 -48.809 Q44.962 -47.875 43.659 -46.517 Q42.872 -45.711 42.078 -45.389 Q41.284 -45.066 40.292 -45.066 Q38.167 -45.066 36.73 -46.457 Q35.293 -47.848 35.293 -49.904 Q35.293 -50.871 35.696 -51.758 Q36.099 -52.645 36.886 -53.451 Q39.555 -56.192 42.778 -57.805 Q46.001 -59.417 49.761 -59.417 Q52.676 -59.417 55.346 -58.223 Q58.015 -57.029 60.609 -55.386 Q61.808 -54.58 63.126 -53.774 Q64.444 -52.967 65.93 -52.967 Q68.188 -52.967 72.058 -56.192 Q72.773 -56.999 73.67 -57.321 Q74.567 -57.644 75.593 -57.644 Q77.702 -57.644 79.072 -56.253 Q80.443 -54.862 80.443 -52.806 Q80.443 -51.839 80.04 -51.032 Q79.637 -50.226 78.992 -49.42 Q76.25 -46.679 72.945 -44.986 Q69.639 -43.292 65.93 -43.292 Z M65.93 -11.042 Q63.028 -11.042 60.367 -12.171 Q57.707 -13.3 55.288 -14.912 Q53.907 -15.719 52.637 -16.606 Q51.368 -17.492 49.805 -17.492 Q47.94 -17.492 46.451 -16.559 Q44.962 -15.625 43.659 -14.267 Q42.872 -13.461 42.078 -13.139 Q41.284 -12.816 40.292 -12.816 Q38.167 -12.816 36.73 -14.207 Q35.293 -15.598 35.293 -17.654 Q35.293 -18.621 35.696 -19.508 Q36.099 -20.395 36.886 -21.201 Q39.555 -23.942 42.778 -25.555 Q46.001 -27.167 49.761 -27.167 Q52.676 -27.167 55.346 -25.973 Q58.015 -24.779 60.609 -23.136 Q61.808 -22.33 63.126 -21.524 Q64.444 -20.717 65.93 -20.717 Q68.667 -20.717 70.72 -23.056 Q72.773 -25.394 75.589 -25.394 Q77.702 -25.394 79.072 -24.023 Q80.443 -22.652 80.443 -20.556 Q80.443 -19.589 80.04 -18.782 Q79.637 -17.976 78.992 -17.17 Q78.992 -17.124 78.948 -17.081 Q78.903 -17.038 78.83 -17.009 Q76.089 -14.267 72.881 -12.655 Q69.673 -11.042 65.93 -11.042 Z M23.395 18.649 Q18.154 18.649 14.388 14.882 Q10.621 11.116 10.621 5.875 V-76.335 Q10.621 -81.614 14.388 -85.407 Q18.154 -89.2 23.395 -89.2 H131.405 Q136.684 -89.2 140.477 -85.407 Q144.27 -81.614 144.27 -76.335 V5.875 Q144.27 11.116 140.477 14.882 Q136.684 18.649 131.405 18.649 H23.395 Z M23.395 5.875 H92.34 V-76.335 H23.395 Q23.395 -76.335 23.395 -76.335 Q23.395 -76.335 23.395 -76.335 V5.875 Q23.395 5.875 23.395 5.875 Q23.395 5.875 23.395 5.875 Z M117.793 -30.392 Q119.809 -30.392 121.179 -31.844 Q122.55 -33.295 122.55 -35.311 Q122.55 -37.326 121.159 -38.697 Q119.768 -40.067 117.713 -40.067 Q115.778 -40.067 114.326 -38.677 Q112.875 -37.286 112.875 -35.23 Q112.875 -33.295 114.326 -31.844 Q115.778 -30.392 117.793 -30.392 Z M117.793 -2.98 Q119.809 -2.98 121.179 -4.431 Q122.55 -5.882 122.55 -7.898 Q122.55 -9.914 121.159 -11.284 Q119.768 -12.655 117.713 -12.655 Q115.778 -12.655 114.326 -11.264 Q112.875 -9.873 112.875 -7.817 Q112.875 -5.882 114.326 -4.431 Q115.778 -2.98 117.793 -2.98 Z M116.114 -57.805 H119.402 Q120.643 -57.805 121.597 -58.813 Q122.55 -59.821 122.55 -61.044 V-64.332 Q122.55 -65.573 121.542 -66.527 Q120.534 -67.48 119.311 -67.48 H116.023 Q114.782 -67.48 113.828 -66.472 Q112.875 -65.464 112.875 -64.241 V-60.953 Q112.875 -59.712 113.883 -58.758 Q114.891 -57.805 116.114 -57.805 Z"/></g><g id="Medium-L" transform="matrix(1 0 0 1 1674.31 1556)"><path d="M66.035 -43.292 Q63.133 -43.292 60.472 -44.421 Q57.812 -45.55 55.393 -47.162 Q54.064 -47.969 52.779 -48.856 Q51.493 -49.742 49.91 -49.742 Q48.098 -49.742 46.594 -48.809 Q45.091 -47.875 43.775 -46.517 Q42.977 -45.711 42.183 -45.389 Q41.389 -45.066 40.397 -45.066 Q38.272 -45.066 36.835 -46.457 Q35.398 -47.848 35.398 -49.904 Q35.398 -50.871 35.801 -51.758 Q36.204 -52.645 37.002 -53.451 Q39.713 -56.192 42.927 -57.805 Q46.142 -59.417 49.892 -59.417 Q52.799 -59.417 55.463 -58.223 Q58.127 -57.029 60.714 -55.386 Q61.966 -54.58 63.268 -53.774 Q64.569 -52.967 66.035 -52.967 Q68.293 -52.967 72.163 -56.192 Q72.931 -56.999 73.811 -57.321 Q74.692 -57.644 75.698 -57.644 Q77.807 -57.644 79.177 -56.253 Q80.548 -54.862 80.548 -52.806 Q80.548 -51.839 80.145 -51.032 Q79.742 -50.226 79.097 -49.42 Q76.355 -46.679 73.05 -44.986 Q69.744 -43.292 66.035 -43.292 Z M66.035 -11.042 Q63.133 -11.042 60.472 -12.171 Q57.812 -13.3 55.393 -14.912 Q54.064 -15.719 52.779 -16.606 Q51.493 -17.492 49.91 -17.492 Q48.098 -17.492 46.594 -16.559 Q45.091 -15.625 43.775 -14.267 Q42.977 -13.461 42.183 -13.139 Q41.389 -12.816 40.397 -12.816 Q38.272 -12.816 36.835 -14.207 Q35.398 -15.598 35.398 -17.654 Q35.398 -18.621 35.801 -19.508 Q36.204 -20.395 37.002 -21.201 Q39.713 -23.942 42.927 -25.555 Q46.142 -27.167 49.892 -27.167 Q52.799 -27.167 55.463 -25.973 Q58.127 -24.779 60.714 -23.136 Q61.966 -22.33 63.268 -21.524 Q64.569 -20.717 66.035 -20.717 Q68.793 -20.717 70.862 -23.056 Q72.931 -25.394 75.717 -25.394 Q77.807 -25.394 79.177 -24.023 Q80.548 -22.652 80.548 -20.556 Q80.548 -19.589 80.145 -18.782 Q79.742 -17.976 79.097 -17.17 Q79.097 -17.124 79.053 -17.081 Q79.009 -17.038 78.935 -17.009 Q76.194 -14.267 72.986 -12.655 Q69.778 -11.042 66.035 -11.042 Z M22.922 17.334 Q18.472 17.334 15.204 14.066 Q11.936 10.798 11.936 6.348 V-76.808 Q11.936 -81.274 15.204 -84.553 Q18.472 -87.833 22.922 -87.833 H131.878 Q136.344 -87.833 139.623 -84.553 Q142.903 -81.274 142.903 -76.808 V6.348 Q142.903 10.798 139.623 14.066 Q136.344 17.334 131.878 17.334 H22.922 Z M22.922 6.348 H93.024 V-76.808 H22.922 Q22.922 -76.808 22.922 -76.808 Q22.922 -76.808 22.922 -76.808 V6.348 Q22.922 6.348 22.922 6.348 Q22.922 6.348 22.922 6.348 Z M117.793 -30.392 Q119.809 -30.392 121.179 -31.844 Q122.55 -33.295 122.55 -35.311 Q122.55 -37.326 121.159 -38.697 Q119.768 -40.067 117.713 -40.067 Q115.778 -40.067 114.326 -38.677 Q112.875 -37.286 112.875 -35.23 Q112.875 -33.295 114.326 -31.844 Q115.778 -30.392 117.793 -30.392 Z M117.793 -2.98 Q119.809 -2.98 121.179 -4.431 Q122.55 -5.882 122.55 -7.898 Q122.55 -9.914 121.159 -11.284 Q119.768 -12.655 117.713 -12.655 Q115.778 -12.655 114.326 -11.264 Q112.875 -9.873 112.875 -7.817 Q112.875 -5.882 114.326 -4.431 Q115.778 -2.98 117.793 -2.98 Z M115.641 -57.805 H119.823 Q120.906 -57.805 121.728 -58.65 Q122.55 -59.495 122.55 -60.571 V-64.753 Q122.55 -65.836 121.705 -66.658 Q120.86 -67.48 119.784 -67.48 H115.602 Q114.519 -67.48 113.697 -66.635 Q112.875 -65.79 112.875 -64.714 V-60.532 Q112.875 -59.449 113.72 -58.627 Q114.565 -57.805 115.641 -57.805 Z"/></g><g id="Regular-L" transform="matrix(1 0 0 1 1378.56 1556)"><path d="M66.112 -43.292 Q63.21 -43.292 60.549 -44.421 Q57.889 -45.55 55.47 -47.162 Q54.18 -47.969 52.882 -48.856 Q51.585 -49.742 49.988 -49.742 Q48.214 -49.742 46.699 -48.809 Q45.185 -47.875 43.86 -46.517 Q43.054 -45.711 42.26 -45.389 Q41.466 -45.066 40.474 -45.066 Q38.349 -45.066 36.912 -46.457 Q35.475 -47.848 35.475 -49.904 Q35.475 -50.871 35.878 -51.758 Q36.281 -52.645 37.087 -53.451 Q39.829 -56.192 43.037 -57.805 Q46.245 -59.417 49.988 -59.417 Q52.89 -59.417 55.549 -58.223 Q58.208 -57.029 60.791 -55.386 Q62.081 -54.58 63.371 -53.774 Q64.661 -52.967 66.112 -52.967 Q68.37 -52.967 72.24 -56.192 Q73.046 -56.999 73.915 -57.321 Q74.783 -57.644 75.775 -57.644 Q77.884 -57.644 79.254 -56.253 Q80.625 -54.862 80.625 -52.806 Q80.625 -51.839 80.222 -51.032 Q79.819 -50.226 79.174 -49.42 Q76.433 -46.679 73.127 -44.986 Q69.821 -43.292 66.112 -43.292 Z M66.112 -11.042 Q63.21 -11.042 60.549 -12.171 Q57.889 -13.3 55.47 -14.912 Q54.18 -15.719 52.882 -16.606 Q51.585 -17.492 49.988 -17.492 Q48.214 -17.492 46.699 -16.559 Q45.185 -15.625 43.86 -14.267 Q43.054 -13.461 42.26 -13.139 Q41.466 -12.816 40.474 -12.816 Q38.349 -12.816 36.912 -14.207 Q35.475 -15.598 35.475 -17.654 Q35.475 -18.621 35.878 -19.508 Q36.281 -20.395 37.087 -21.201 Q39.829 -23.942 43.037 -25.555 Q46.245 -27.167 49.988 -27.167 Q52.89 -27.167 55.549 -25.973 Q58.208 -24.779 60.791 -23.136 Q62.081 -22.33 63.371 -21.524 Q64.661 -20.717 66.112 -20.717 Q68.886 -20.717 70.966 -23.056 Q73.046 -25.394 75.811 -25.394 Q77.884 -25.394 79.254 -24.023 Q80.625 -22.652 80.625 -20.556 Q80.625 -19.589 80.222 -18.782 Q79.819 -17.976 79.174 -17.17 Q79.174 -17.124 79.13 -17.081 Q79.086 -17.038 79.013 -17.009 Q76.271 -14.267 73.063 -12.655 Q69.855 -11.042 66.112 -11.042 Z M22.575 16.37 Q18.705 16.37 15.803 13.468 Q12.9 10.565 12.9 6.695 V-77.155 Q12.9 -81.025 15.803 -83.927 Q18.705 -86.83 22.575 -86.83 H132.225 Q136.095 -86.83 138.998 -83.927 Q141.9 -81.025 141.9 -77.155 V6.695 Q141.9 10.565 138.998 13.468 Q136.095 16.37 132.225 16.37 H22.575 Z M22.575 6.695 H93.525 V-77.155 H22.575 Q22.575 -77.155 22.575 -77.155 Q22.575 -77.155 22.575 -77.155 V6.695 Q22.575 6.695 22.575 6.695 Q22.575 6.695 22.575 6.695 Z M117.793 -30.392 Q119.809 -30.392 121.179 -31.844 Q122.55 -33.295 122.55 -35.311 Q122.55 -37.326 121.159 -38.697 Q119.768 -40.067 117.713 -40.067 Q115.778 -40.067 114.326 -38.677 Q112.875 -37.286 112.875 -35.23 Q112.875 -33.295 114.326 -31.844 Q115.778 -30.392 117.793 -30.392 Z M117.793 -2.98 Q119.809 -2.98 121.179 -4.431 Q122.55 -5.882 122.55 -7.898 Q122.55 -9.914 121.159 -11.284 Q119.768 -12.655 117.713 -12.655 Q115.778 -12.655 114.326 -11.264 Q112.875 -9.873 112.875 -7.817 Q112.875 -5.882 114.326 -4.431 Q115.778 -2.98 117.793 -2.98 Z M115.294 -57.805 H120.131 Q121.099 -57.805 121.824 -58.531 Q122.55 -59.256 122.55 -60.224 V-65.061 Q122.55 -66.029 121.824 -66.754 Q121.099 -67.48 120.131 -67.48 H115.294 Q114.326 -67.48 113.601 -66.754 Q112.875 -66.029 112.875 -65.061 V-60.224 Q112.875 -59.256 113.601 -58.531 Q114.326 -57.805 115.294 -57.805 Z"/></g><g id="Light-L" transform="matrix(1 0 0 1 1082.77 1556)"><path d="M67.725 -44.471 Q64.964 -44.471 62.419 -45.631 Q59.874 -46.79 57.517 -48.279 Q56.103 -49.209 54.696 -50.065 Q53.289 -50.921 51.6 -50.921 Q49.826 -50.921 48.343 -50.111 Q46.86 -49.302 45.473 -48.068 Q44.83 -47.459 44.264 -47.224 Q43.699 -46.989 42.955 -46.989 Q41.354 -46.989 40.244 -48.065 Q39.134 -49.14 39.134 -50.689 Q39.134 -51.491 39.507 -52.254 Q39.879 -53.017 40.623 -53.575 Q42.992 -55.696 45.704 -56.968 Q48.416 -58.239 51.6 -58.239 Q54.322 -58.239 56.823 -57.076 Q59.325 -55.912 61.784 -54.394 Q63.198 -53.464 64.643 -52.626 Q66.088 -51.789 67.725 -51.789 Q69.673 -51.789 73.791 -54.58 Q74.407 -55.2 75.063 -55.461 Q75.72 -55.721 76.479 -55.721 Q78.07 -55.721 79.13 -54.645 Q80.191 -53.57 80.191 -52.021 Q80.191 -51.219 79.819 -50.505 Q79.447 -49.792 78.864 -49.234 Q76.451 -47.109 73.663 -45.79 Q70.876 -44.471 67.725 -44.471 Z M67.725 -12.221 Q64.964 -12.221 62.419 -13.381 Q59.874 -14.54 57.517 -16.029 Q56.103 -16.959 54.696 -17.815 Q53.289 -18.671 51.6 -18.671 Q49.826 -18.671 48.343 -17.861 Q46.86 -17.052 45.473 -15.818 Q44.83 -15.209 44.264 -14.974 Q43.699 -14.739 42.955 -14.739 Q41.354 -14.739 40.244 -15.815 Q39.134 -16.89 39.134 -18.439 Q39.134 -19.241 39.507 -20.004 Q39.879 -20.767 40.623 -21.325 Q42.992 -23.446 45.704 -24.718 Q48.416 -25.989 51.6 -25.989 Q54.322 -25.989 56.823 -24.826 Q59.325 -23.662 61.784 -22.144 Q63.198 -21.214 64.643 -20.376 Q66.088 -19.539 67.725 -19.539 Q70.399 -19.539 72.343 -21.691 Q74.287 -23.843 77.033 -23.701 Q78.814 -23.595 79.968 -22.256 Q81.121 -20.916 80.935 -19.006 Q80.625 -18.1 80.067 -17.573 Q79.509 -17.046 78.926 -16.674 Q78.864 -16.717 78.82 -16.784 Q78.776 -16.852 78.764 -16.885 Q76.333 -14.764 73.621 -13.492 Q70.91 -12.221 67.725 -12.221 Z M25.428 13.145 Q21.634 13.145 18.88 10.39 Q16.125 7.636 16.125 3.842 V-74.302 Q16.125 -78.096 18.88 -80.85 Q21.634 -83.605 25.428 -83.605 H129.372 Q133.166 -83.605 135.92 -80.85 Q138.675 -78.096 138.675 -74.302 V3.842 Q138.675 7.636 135.92 10.39 Q133.166 13.145 129.372 13.145 H25.428 Z M25.428 5.827 H95.882 V-76.287 H25.428 Q24.684 -76.287 24.063 -75.667 Q23.443 -75.046 23.443 -74.302 V3.842 Q23.443 4.586 24.063 5.207 Q24.684 5.827 25.428 5.827 Z M117.328 -30.703 Q119.189 -30.703 120.497 -32.061 Q121.806 -33.419 121.806 -35.28 Q121.806 -37.14 120.476 -38.449 Q119.147 -39.757 117.278 -39.757 Q115.467 -39.757 114.109 -38.428 Q112.751 -37.098 112.751 -35.23 Q112.751 -33.419 114.109 -32.061 Q115.467 -30.703 117.328 -30.703 Z M117.328 -3.724 Q119.189 -3.724 120.497 -5.083 Q121.806 -6.441 121.806 -8.301 Q121.806 -10.162 120.476 -11.47 Q119.147 -12.779 117.278 -12.779 Q115.467 -12.779 114.109 -11.449 Q112.751 -10.12 112.751 -8.252 Q112.751 -6.441 114.109 -5.083 Q115.467 -3.724 117.328 -3.724 Z M115.327 -57.929 H119.237 Q120.168 -57.929 120.863 -58.627 Q121.558 -59.326 121.558 -60.257 V-64.167 Q121.558 -65.098 120.863 -65.793 Q120.168 -66.488 119.242 -66.488 H115.356 Q114.413 -66.488 113.706 -65.793 Q112.999 -65.098 112.999 -64.172 V-60.286 Q112.999 -59.343 113.697 -58.636 Q114.396 -57.929 115.327 -57.929 Z"/></g><g id="Thin-L" transform="matrix(1 0 0 1 787.282 1556)"><path d="M69.338 -45.649 Q66.717 -45.649 64.287 -46.84 Q61.858 -48.031 59.563 -49.395 Q58.025 -50.45 56.509 -51.274 Q54.993 -52.099 53.212 -52.099 Q51.439 -52.099 49.986 -51.414 Q48.534 -50.728 47.085 -49.618 Q46.606 -49.206 46.269 -49.059 Q45.931 -48.911 45.435 -48.911 Q44.359 -48.911 43.576 -49.672 Q42.793 -50.432 42.793 -51.475 Q42.793 -52.112 43.134 -52.75 Q43.475 -53.389 44.158 -53.699 Q46.155 -55.2 48.37 -56.13 Q50.586 -57.061 53.212 -57.061 Q55.754 -57.061 58.097 -55.928 Q60.441 -54.796 62.776 -53.402 Q64.314 -52.347 65.914 -51.479 Q67.514 -50.611 69.338 -50.611 Q70.975 -50.611 75.341 -52.967 Q75.767 -53.402 76.212 -53.6 Q76.657 -53.799 77.184 -53.799 Q78.256 -53.799 79.006 -53.038 Q79.757 -52.278 79.757 -51.235 Q79.757 -50.598 79.416 -49.978 Q79.075 -49.358 78.554 -49.048 Q76.47 -47.539 74.2 -46.594 Q71.93 -45.649 69.338 -45.649 Z M69.338 -13.399 Q66.717 -13.399 64.287 -14.59 Q61.858 -15.781 59.563 -17.145 Q58.025 -18.2 56.509 -19.024 Q54.993 -19.849 53.212 -19.849 Q51.439 -19.849 49.986 -19.164 Q48.534 -18.478 47.085 -17.368 Q46.606 -16.956 46.269 -16.809 Q45.931 -16.661 45.435 -16.661 Q44.359 -16.661 43.576 -17.422 Q42.793 -18.182 42.793 -19.225 Q42.793 -19.862 43.134 -20.5 Q43.475 -21.139 44.158 -21.449 Q46.155 -22.95 48.37 -23.88 Q50.586 -24.811 53.212 -24.811 Q55.754 -24.811 58.097 -23.678 Q60.441 -22.546 62.776 -21.152 Q64.314 -20.097 65.914 -19.229 Q67.514 -18.361 69.338 -18.361 Q71.913 -18.361 73.72 -20.327 Q75.527 -22.293 78.256 -22.009 Q79.744 -21.797 80.681 -20.488 Q81.617 -19.179 81.245 -17.455 Q80.625 -16.612 79.912 -16.364 Q79.199 -16.116 78.678 -16.178 Q78.554 -16.31 78.51 -16.488 Q78.466 -16.665 78.516 -16.761 Q76.395 -15.26 74.18 -14.33 Q71.964 -13.399 69.338 -13.399 Z M28.281 9.92 Q24.563 9.92 21.956 7.314 Q19.35 4.707 19.35 0.989 V-71.449 Q19.35 -75.167 21.956 -77.774 Q24.563 -80.38 28.281 -80.38 H126.519 Q130.237 -80.38 132.844 -77.774 Q135.45 -75.167 135.45 -71.449 V0.989 Q135.45 4.707 132.844 7.314 Q130.237 9.92 126.519 9.92 H28.281 Z M28.281 4.958 H98.238 V-75.418 H28.281 Q26.792 -75.418 25.552 -74.178 Q24.312 -72.938 24.312 -71.449 V0.989 Q24.312 2.478 25.552 3.718 Q26.792 4.958 28.281 4.958 Z M116.863 -31.013 Q118.568 -31.013 119.815 -32.278 Q121.062 -33.543 121.062 -35.249 Q121.062 -36.954 119.793 -38.201 Q118.525 -39.447 116.844 -39.447 Q115.157 -39.447 113.892 -38.179 Q112.627 -36.911 112.627 -35.23 Q112.627 -33.543 113.892 -32.278 Q115.157 -31.013 116.863 -31.013 Z M116.863 -4.468 Q118.568 -4.468 119.815 -5.734 Q121.062 -6.999 121.062 -8.704 Q121.062 -10.41 119.793 -11.657 Q118.525 -12.903 116.844 -12.903 Q115.157 -12.903 113.892 -11.635 Q112.627 -10.367 112.627 -8.686 Q112.627 -6.999 113.892 -5.734 Q115.157 -4.468 116.863 -4.468 Z M115.359 -58.053 H118.344 Q119.238 -58.053 119.902 -58.724 Q120.565 -59.395 120.565 -60.289 V-63.274 Q120.565 -64.168 119.902 -64.832 Q119.238 -65.495 118.353 -65.495 H115.418 Q114.5 -65.495 113.812 -64.832 Q113.123 -64.168 113.123 -63.283 V-60.348 Q113.123 -59.43 113.794 -58.742 Q114.465 -58.053 115.359 -58.053 Z"/></g><g id="Ultralight-L" transform="matrix(1 0 0 1 491.205 1556)"><path d="M70.305 -46.356 Q67.769 -46.356 65.409 -47.566 Q63.049 -48.775 60.791 -50.065 Q59.179 -51.194 57.597 -52 Q56.015 -52.806 54.18 -52.806 Q52.406 -52.806 50.973 -52.195 Q49.539 -51.584 48.053 -50.549 Q47.671 -50.255 47.471 -50.16 Q47.271 -50.065 46.924 -50.065 Q46.162 -50.065 45.575 -50.636 Q44.989 -51.207 44.989 -51.946 Q44.989 -52.484 45.311 -53.048 Q45.634 -53.612 46.279 -53.774 Q48.053 -54.902 49.971 -55.628 Q51.888 -56.354 54.18 -56.354 Q56.613 -56.354 58.862 -55.24 Q61.111 -54.126 63.371 -52.806 Q64.984 -51.677 66.677 -50.791 Q68.37 -49.904 70.305 -49.904 Q71.756 -49.904 76.271 -52 Q76.583 -52.322 76.901 -52.484 Q77.219 -52.645 77.606 -52.645 Q78.368 -52.645 78.932 -52.074 Q79.496 -51.503 79.496 -50.764 Q79.496 -50.226 79.174 -49.662 Q78.851 -49.097 78.368 -48.936 Q76.481 -47.798 74.522 -47.077 Q72.562 -46.356 70.305 -46.356 Z M70.305 -14.106 Q67.769 -14.106 65.409 -15.316 Q63.049 -16.525 60.791 -17.815 Q59.179 -18.944 57.597 -19.75 Q56.015 -20.556 54.18 -20.556 Q52.406 -20.556 50.973 -19.945 Q49.539 -19.334 48.053 -18.299 Q47.671 -18.005 47.471 -17.91 Q47.271 -17.815 46.924 -17.815 Q46.162 -17.815 45.575 -18.386 Q44.989 -18.957 44.989 -19.696 Q44.989 -20.234 45.311 -20.798 Q45.634 -21.362 46.279 -21.524 Q48.053 -22.652 49.971 -23.378 Q51.888 -24.104 54.18 -24.104 Q56.613 -24.104 58.862 -22.99 Q61.111 -21.876 63.371 -20.556 Q64.984 -19.427 66.677 -18.541 Q68.37 -17.654 70.305 -17.654 Q72.821 -17.654 74.546 -19.508 Q76.271 -21.362 78.989 -20.994 Q80.303 -20.717 81.109 -19.427 Q81.915 -18.137 81.431 -16.525 Q80.625 -15.719 79.819 -15.638 Q79.013 -15.557 78.529 -15.88 Q78.368 -16.065 78.323 -16.31 Q78.28 -16.554 78.368 -16.686 Q76.433 -15.557 74.514 -14.832 Q72.597 -14.106 70.305 -14.106 Z M29.992 7.985 Q26.32 7.985 23.803 5.467 Q21.285 2.95 21.285 -0.722 V-69.737 Q21.285 -73.41 23.803 -75.928 Q26.32 -78.445 29.992 -78.445 H124.808 Q128.48 -78.445 130.998 -75.928 Q133.515 -73.41 133.515 -69.737 V-0.722 Q133.515 2.95 130.998 5.467 Q128.48 7.985 124.808 7.985 H29.992 Z M29.992 4.438 H99.653 V-74.897 H29.992 Q28.058 -74.897 26.445 -73.285 Q24.832 -71.672 24.832 -69.737 V-0.722 Q24.832 1.213 26.445 2.825 Q28.058 4.438 29.992 4.438 Z M116.584 -31.199 Q118.196 -31.199 119.406 -32.408 Q120.615 -33.617 120.615 -35.23 Q120.615 -36.842 119.383 -38.052 Q118.152 -39.261 116.584 -39.261 Q114.971 -39.261 113.762 -38.03 Q112.553 -36.798 112.553 -35.23 Q112.553 -33.617 113.762 -32.408 Q114.971 -31.199 116.584 -31.199 Z M116.584 -4.915 Q118.196 -4.915 119.406 -6.124 Q120.615 -7.334 120.615 -8.946 Q120.615 -10.559 119.383 -11.768 Q118.152 -12.977 116.584 -12.977 Q114.971 -12.977 113.762 -11.746 Q112.553 -10.514 112.553 -8.946 Q112.553 -7.334 113.762 -6.124 Q114.971 -4.915 116.584 -4.915 Z M115.379 -58.127 H117.807 Q118.68 -58.127 119.325 -58.782 Q119.97 -59.437 119.97 -60.309 V-62.737 Q119.97 -63.61 119.325 -64.255 Q118.68 -64.9 117.82 -64.9 H115.455 Q114.552 -64.9 113.875 -64.255 Q113.198 -63.61 113.198 -62.75 V-60.385 Q113.198 -59.482 113.852 -58.805 Q114.507 -58.127 115.379 -58.127 Z"/></g><g id="Bold-M" transform="matrix(1 0 0 1 2281.8 1126)"><path d="M50.875 -40.23 Q48.375 -40.23 46.188 -41.167 Q44 -42.105 41.875 -43.48 Q41 -44.105 40.188 -44.667 Q39.375 -45.23 38.375 -45.23 Q37 -45.23 36 -44.542 Q35 -43.855 34.125 -42.855 Q33.375 -41.855 32.375 -41.292 Q31.375 -40.73 30.125 -40.73 Q28 -40.73 26.562 -42.167 Q25.125 -43.605 25.125 -45.73 Q25.125 -46.73 25.5 -47.667 Q25.875 -48.605 26.5 -49.23 Q28.875 -51.855 31.875 -53.542 Q34.875 -55.23 38.375 -55.23 Q40.875 -55.23 43.062 -54.23 Q45.25 -53.23 47.375 -51.855 Q48.25 -51.23 49.062 -50.73 Q49.875 -50.23 50.875 -50.23 Q53.125 -50.23 55.625 -53.23 Q56.375 -53.98 57.25 -54.355 Q58.125 -54.73 59.125 -54.73 Q61.25 -54.73 62.688 -53.292 Q64.125 -51.855 64.125 -49.73 Q64.125 -48.73 63.75 -47.792 Q63.375 -46.855 62.75 -46.23 Q60.375 -43.605 57.375 -41.917 Q54.375 -40.23 50.875 -40.23 Z M50.875 -15.23 Q48.375 -15.23 46.188 -16.167 Q44 -17.105 41.875 -18.48 Q41 -19.105 40.188 -19.667 Q39.375 -20.23 38.375 -20.23 Q37 -20.23 36 -19.542 Q35 -18.855 34.125 -17.855 Q33.375 -16.855 32.375 -16.292 Q31.375 -15.73 30.125 -15.73 Q28 -15.73 26.562 -17.167 Q25.125 -18.605 25.125 -20.73 Q25.125 -21.73 25.5 -22.667 Q25.875 -23.605 26.5 -24.23 Q28.875 -26.855 31.875 -28.542 Q34.875 -30.23 38.375 -30.23 Q40.875 -30.23 43.062 -29.23 Q45.25 -28.23 47.375 -26.855 Q48.25 -26.23 49.062 -25.73 Q49.875 -25.23 50.875 -25.23 Q52.375 -25.23 53.5 -26.23 Q54.625 -27.23 55.625 -28.23 Q56.375 -28.98 57.25 -29.355 Q58.125 -29.73 59.125 -29.73 Q61.25 -29.73 62.688 -28.292 Q64.125 -26.855 64.125 -24.73 Q64.125 -23.73 63.75 -22.792 Q63.375 -21.855 62.75 -21.23 Q60.375 -18.605 57.375 -16.917 Q54.375 -15.23 50.875 -15.23 Z M21.5 9.02 Q14.875 9.02 10.312 4.458 Q5.75 -0.105 5.75 -6.73 V-63.73 Q5.75 -70.355 10.312 -74.917 Q14.875 -79.48 21.5 -79.48 H98.5 Q105.125 -79.48 109.688 -74.917 Q114.25 -70.355 114.25 -63.73 V-6.73 Q114.25 -0.105 109.688 4.458 Q105.125 9.02 98.5 9.02 H21.5 Z M21.5 -6.73 H67.75 V-63.73 H21.5 Q21.5 -63.73 21.5 -63.73 Q21.5 -63.73 21.5 -63.73 V-6.73 Q21.5 -6.73 21.5 -6.73 Q21.5 -6.73 21.5 -6.73 Z M90 -30.23 Q92.125 -30.23 93.562 -31.667 Q95 -33.105 95 -35.23 Q95 -37.355 93.562 -38.792 Q92.125 -40.23 90 -40.23 Q87.875 -40.23 86.438 -38.792 Q85 -37.355 85 -35.23 Q85 -33.105 86.438 -31.667 Q87.875 -30.23 90 -30.23 Z M90 -10.23 Q92.125 -10.23 93.562 -11.667 Q95 -13.105 95 -15.23 Q95 -17.355 93.562 -18.792 Q92.125 -20.23 90 -20.23 Q87.875 -20.23 86.438 -18.792 Q85 -17.355 85 -15.23 Q85 -13.105 86.438 -11.667 Q87.875 -10.23 90 -10.23 Z M89 -50.23 H91.125 Q92.75 -50.23 93.875 -51.43 Q95 -52.63 95 -54.23 V-56.355 Q95 -57.98 93.8 -59.105 Q92.6 -60.23 91 -60.23 H88.875 Q87.25 -60.23 86.125 -59.03 Q85 -57.83 85 -56.23 V-54.105 Q85 -52.48 86.2 -51.355 Q87.4 -50.23 89 -50.23 Z"/></g><g id="Semibold-M" transform="matrix(1 0 0 1 1985.97 1126)"><path d="M51.038 -40.23 Q48.538 -40.23 46.35 -41.167 Q44.163 -42.105 42.038 -43.48 Q41.163 -44.105 40.35 -44.667 Q39.538 -45.23 38.538 -45.23 Q37.163 -45.23 36.163 -44.542 Q35.163 -43.855 34.288 -42.855 Q33.538 -41.855 32.538 -41.292 Q31.538 -40.73 30.288 -40.73 Q28.163 -40.73 26.726 -42.167 Q25.288 -43.605 25.288 -45.73 Q25.288 -46.73 25.663 -47.667 Q26.038 -48.605 26.663 -49.23 Q29.038 -51.855 32.038 -53.542 Q35.038 -55.23 38.538 -55.23 Q41.038 -55.23 43.225 -54.23 Q45.413 -53.23 47.538 -51.855 Q48.413 -51.23 49.225 -50.73 Q50.038 -50.23 51.038 -50.23 Q53.288 -50.23 55.788 -53.23 Q56.538 -53.98 57.413 -54.355 Q58.288 -54.73 59.288 -54.73 Q61.413 -54.73 62.85 -53.292 Q64.288 -51.855 64.288 -49.73 Q64.288 -48.73 63.913 -47.792 Q63.538 -46.855 62.913 -46.23 Q60.538 -43.605 57.538 -41.917 Q54.538 -40.23 51.038 -40.23 Z M51.038 -15.23 Q48.538 -15.23 46.35 -16.167 Q44.163 -17.105 42.038 -18.48 Q41.163 -19.105 40.35 -19.667 Q39.538 -20.23 38.538 -20.23 Q37.163 -20.23 36.163 -19.542 Q35.163 -18.855 34.288 -17.855 Q33.538 -16.855 32.538 -16.292 Q31.538 -15.73 30.288 -15.73 Q28.163 -15.73 26.726 -17.167 Q25.288 -18.605 25.288 -20.73 Q25.288 -21.73 25.663 -22.667 Q26.038 -23.605 26.663 -24.23 Q29.038 -26.855 32.038 -28.542 Q35.038 -30.23 38.538 -30.23 Q41.038 -30.23 43.225 -29.23 Q45.413 -28.23 47.538 -26.855 Q48.413 -26.23 49.225 -25.73 Q50.038 -25.23 51.038 -25.23 Q52.538 -25.23 53.663 -26.23 Q54.788 -27.23 55.788 -28.23 Q56.538 -28.98 57.413 -29.355 Q58.288 -29.73 59.288 -29.73 Q61.413 -29.73 62.85 -28.292 Q64.288 -26.855 64.288 -24.73 Q64.288 -23.73 63.913 -22.792 Q63.538 -21.855 62.913 -21.23 Q60.538 -18.605 57.538 -16.917 Q54.538 -15.23 51.038 -15.23 Z M20.848 7.172 Q15.31 7.172 11.454 3.316 Q7.598 -0.54 7.598 -6.078 V-64.382 Q7.598 -69.92 11.454 -73.776 Q15.31 -77.632 20.848 -77.632 H99.152 Q104.69 -77.632 108.546 -73.776 Q112.402 -69.92 112.402 -64.382 V-6.078 Q112.402 -0.54 108.546 3.316 Q104.69 7.172 99.152 7.172 H20.848 Z M20.848 -6.078 H68.728 V-64.382 H20.848 Q20.848 -64.382 20.848 -64.382 Q20.848 -64.382 20.848 -64.382 V-6.078 Q20.848 -6.078 20.848 -6.078 Q20.848 -6.078 20.848 -6.078 Z M90 -30.23 Q92.125 -30.23 93.562 -31.667 Q95 -33.105 95 -35.23 Q95 -37.355 93.562 -38.792 Q92.125 -40.23 90 -40.23 Q87.875 -40.23 86.438 -38.792 Q85 -37.355 85 -35.23 Q85 -33.105 86.438 -31.667 Q87.875 -30.23 90 -30.23 Z M90 -10.23 Q92.125 -10.23 93.562 -11.667 Q95 -13.105 95 -15.23 Q95 -17.355 93.562 -18.792 Q92.125 -20.23 90 -20.23 Q87.875 -20.23 86.438 -18.792 Q85 -17.355 85 -15.23 Q85 -13.105 86.438 -11.667 Q87.875 -10.23 90 -10.23 Z M88.348 -50.23 H91.723 Q93.076 -50.23 94.038 -51.234 Q95 -52.239 95 -53.578 V-56.953 Q95 -58.306 93.996 -59.268 Q92.991 -60.23 91.652 -60.23 H88.277 Q86.924 -60.23 85.962 -59.226 Q85 -58.221 85 -56.882 V-53.507 Q85 -52.154 86.004 -51.192 Q87.009 -50.23 88.348 -50.23 Z"/></g><g id="Medium-M" transform="matrix(1 0 0 1 1689.91 1126)"><path d="M51.16 -40.23 Q48.66 -40.23 46.473 -41.167 Q44.285 -42.105 42.16 -43.48 Q41.285 -44.105 40.473 -44.667 Q39.66 -45.23 38.66 -45.23 Q37.285 -45.23 36.285 -44.542 Q35.285 -43.855 34.41 -42.855 Q33.66 -41.855 32.66 -41.292 Q31.66 -40.73 30.41 -40.73 Q28.285 -40.73 26.848 -42.167 Q25.41 -43.605 25.41 -45.73 Q25.41 -46.73 25.785 -47.667 Q26.16 -48.605 26.785 -49.23 Q29.16 -51.855 32.16 -53.542 Q35.16 -55.23 38.66 -55.23 Q41.16 -55.23 43.348 -54.23 Q45.535 -53.23 47.66 -51.855 Q48.535 -51.23 49.348 -50.73 Q50.16 -50.23 51.16 -50.23 Q53.41 -50.23 55.91 -53.23 Q56.66 -53.98 57.535 -54.355 Q58.41 -54.73 59.41 -54.73 Q61.535 -54.73 62.973 -53.292 Q64.41 -51.855 64.41 -49.73 Q64.41 -48.73 64.035 -47.792 Q63.66 -46.855 63.035 -46.23 Q60.66 -43.605 57.66 -41.917 Q54.66 -40.23 51.16 -40.23 Z M51.16 -15.23 Q48.66 -15.23 46.473 -16.167 Q44.285 -17.105 42.16 -18.48 Q41.285 -19.105 40.473 -19.667 Q39.66 -20.23 38.66 -20.23 Q37.285 -20.23 36.285 -19.542 Q35.285 -18.855 34.41 -17.855 Q33.66 -16.855 32.66 -16.292 Q31.66 -15.73 30.41 -15.73 Q28.285 -15.73 26.848 -17.167 Q25.41 -18.605 25.41 -20.73 Q25.41 -21.73 25.785 -22.667 Q26.16 -23.605 26.785 -24.23 Q29.16 -26.855 32.16 -28.542 Q35.16 -30.23 38.66 -30.23 Q41.16 -30.23 43.348 -29.23 Q45.535 -28.23 47.66 -26.855 Q48.535 -26.23 49.348 -25.73 Q50.16 -25.23 51.16 -25.23 Q52.66 -25.23 53.785 -26.23 Q54.91 -27.23 55.91 -28.23 Q56.66 -28.98 57.535 -29.355 Q58.41 -29.73 59.41 -29.73 Q61.535 -29.73 62.973 -28.292 Q64.41 -26.855 64.41 -24.73 Q64.41 -23.73 64.035 -22.792 Q63.66 -21.855 63.035 -21.23 Q60.66 -18.605 57.66 -16.917 Q54.66 -15.23 51.16 -15.23 Z M20.359 5.786 Q15.636 5.786 12.31 2.46 Q8.984 -0.866 8.984 -5.589 V-64.871 Q8.984 -69.594 12.31 -72.92 Q15.636 -76.246 20.359 -76.246 H99.641 Q104.364 -76.246 107.69 -72.92 Q111.016 -69.594 111.016 -64.871 V-5.589 Q111.016 -0.866 107.69 2.46 Q104.364 5.786 99.641 5.786 H20.359 Z M20.359 -5.589 H69.462 V-64.871 H20.359 Q20.359 -64.871 20.359 -64.871 Q20.359 -64.871 20.359 -64.871 V-5.589 Q20.359 -5.589 20.359 -5.589 Q20.359 -5.589 20.359 -5.589 Z M90 -30.23 Q92.125 -30.23 93.562 -31.667 Q95 -33.105 95 -35.23 Q95 -37.355 93.562 -38.792 Q92.125 -40.23 90 -40.23 Q87.875 -40.23 86.438 -38.792 Q85 -37.355 85 -35.23 Q85 -33.105 86.438 -31.667 Q87.875 -30.23 90 -30.23 Z M90 -10.23 Q92.125 -10.23 93.562 -11.667 Q95 -13.105 95 -15.23 Q95 -17.355 93.562 -18.792 Q92.125 -20.23 90 -20.23 Q87.875 -20.23 86.438 -18.792 Q85 -17.355 85 -15.23 Q85 -13.105 86.438 -11.667 Q87.875 -10.23 90 -10.23 Z M87.859 -50.23 H92.171 Q93.321 -50.23 94.16 -51.088 Q95 -51.945 95 -53.089 V-57.401 Q95 -58.551 94.142 -59.39 Q93.285 -60.23 92.141 -60.23 H87.829 Q86.679 -60.23 85.84 -59.372 Q85 -58.515 85 -57.371 V-53.059 Q85 -51.909 85.858 -51.07 Q86.715 -50.23 87.859 -50.23 Z"/></g><g id="Regular-M" transform="matrix(1 0 0 1 1394.06 1126)"><path d="M51.25 -40.23 Q48.75 -40.23 46.562 -41.167 Q44.375 -42.105 42.25 -43.48 Q41.375 -44.105 40.562 -44.667 Q39.75 -45.23 38.75 -45.23 Q37.375 -45.23 36.375 -44.542 Q35.375 -43.855 34.5 -42.855 Q33.75 -41.855 32.75 -41.292 Q31.75 -40.73 30.5 -40.73 Q28.375 -40.73 26.938 -42.167 Q25.5 -43.605 25.5 -45.73 Q25.5 -46.73 25.875 -47.667 Q26.25 -48.605 26.875 -49.23 Q29.25 -51.855 32.25 -53.542 Q35.25 -55.23 38.75 -55.23 Q41.25 -55.23 43.438 -54.23 Q45.625 -53.23 47.75 -51.855 Q48.625 -51.23 49.438 -50.73 Q50.25 -50.23 51.25 -50.23 Q53.5 -50.23 56 -53.23 Q56.75 -53.98 57.625 -54.355 Q58.5 -54.73 59.5 -54.73 Q61.625 -54.73 63.062 -53.292 Q64.5 -51.855 64.5 -49.73 Q64.5 -48.73 64.125 -47.792 Q63.75 -46.855 63.125 -46.23 Q60.75 -43.605 57.75 -41.917 Q54.75 -40.23 51.25 -40.23 Z M51.25 -15.23 Q48.75 -15.23 46.562 -16.167 Q44.375 -17.105 42.25 -18.48 Q41.375 -19.105 40.562 -19.667 Q39.75 -20.23 38.75 -20.23 Q37.375 -20.23 36.375 -19.542 Q35.375 -18.855 34.5 -17.855 Q33.75 -16.855 32.75 -16.292 Q31.75 -15.73 30.5 -15.73 Q28.375 -15.73 26.938 -17.167 Q25.5 -18.605 25.5 -20.73 Q25.5 -21.73 25.875 -22.667 Q26.25 -23.605 26.875 -24.23 Q29.25 -26.855 32.25 -28.542 Q35.25 -30.23 38.75 -30.23 Q41.25 -30.23 43.438 -29.23 Q45.625 -28.23 47.75 -26.855 Q48.625 -26.23 49.438 -25.73 Q50.25 -25.23 51.25 -25.23 Q52.75 -25.23 53.875 -26.23 Q55 -27.23 56 -28.23 Q56.75 -28.98 57.625 -29.355 Q58.5 -29.73 59.5 -29.73 Q61.625 -29.73 63.062 -28.292 Q64.5 -26.855 64.5 -24.73 Q64.5 -23.73 64.125 -22.792 Q63.75 -21.855 63.125 -21.23 Q60.75 -18.605 57.75 -16.917 Q54.75 -15.23 51.25 -15.23 Z M20 4.77 Q15.875 4.77 12.938 1.833 Q10 -1.105 10 -5.23 V-65.23 Q10 -69.355 12.938 -72.292 Q15.875 -75.23 20 -75.23 H100 Q104.125 -75.23 107.062 -72.292 Q110 -69.355 110 -65.23 V-5.23 Q110 -1.105 107.062 1.833 Q104.125 4.77 100 4.77 H20 Z M20 -5.23 H70 V-65.23 H20 Q20 -65.23 20 -65.23 Q20 -65.23 20 -65.23 V-5.23 Q20 -5.23 20 -5.23 Q20 -5.23 20 -5.23 Z M90 -30.23 Q92.125 -30.23 93.562 -31.667 Q95 -33.105 95 -35.23 Q95 -37.355 93.562 -38.792 Q92.125 -40.23 90 -40.23 Q87.875 -40.23 86.438 -38.792 Q85 -37.355 85 -35.23 Q85 -33.105 86.438 -31.667 Q87.875 -30.23 90 -30.23 Z M90 -10.23 Q92.125 -10.23 93.562 -11.667 Q95 -13.105 95 -15.23 Q95 -17.355 93.562 -18.792 Q92.125 -20.23 90 -20.23 Q87.875 -20.23 86.438 -18.792 Q85 -17.355 85 -15.23 Q85 -13.105 86.438 -11.667 Q87.875 -10.23 90 -10.23 Z M87.5 -50.23 H92.5 Q93.5 -50.23 94.25 -50.98 Q95 -51.73 95 -52.73 V-57.73 Q95 -58.73 94.25 -59.48 Q93.5 -60.23 92.5 -60.23 H87.5 Q86.5 -60.23 85.75 -59.48 Q85 -58.73 85 -57.73 V-52.73 Q85 -51.73 85.75 -50.98 Q86.5 -50.23 87.5 -50.23 Z"/></g><g id="Light-M" transform="matrix(1 0 0 1 1098.18 1126)"><path d="M52.5 -41.48 Q50.144 -41.48 48.077 -42.418 Q46.01 -43.355 44.029 -44.634 Q43.058 -45.307 42.101 -45.893 Q41.144 -46.48 40 -46.48 Q38.625 -46.48 37.577 -45.865 Q36.529 -45.249 35.606 -44.345 Q35.048 -43.634 34.313 -43.216 Q33.577 -42.797 32.664 -42.797 Q31.067 -42.797 29.967 -43.898 Q28.866 -44.999 28.866 -46.595 Q28.866 -47.403 29.192 -48.148 Q29.52 -48.893 30.096 -49.374 Q32.135 -51.374 34.63 -52.677 Q37.125 -53.98 40 -53.98 Q42.308 -53.98 44.327 -53.004 Q46.346 -52.028 48.327 -50.797 Q49.346 -50.076 50.351 -49.528 Q51.356 -48.98 52.5 -48.98 Q54.365 -48.98 57.202 -51.499 Q57.76 -52.057 58.418 -52.36 Q59.077 -52.662 59.837 -52.662 Q61.433 -52.662 62.534 -51.562 Q63.635 -50.461 63.635 -48.864 Q63.635 -48.057 63.308 -47.312 Q62.981 -46.566 62.404 -46.086 Q60.365 -44.086 57.87 -42.783 Q55.375 -41.48 52.5 -41.48 Z M52.5 -16.48 Q50.144 -16.48 48.077 -17.418 Q46.01 -18.355 44.029 -19.634 Q43.058 -20.307 42.101 -20.893 Q41.144 -21.48 40 -21.48 Q38.625 -21.48 37.577 -20.865 Q36.529 -20.249 35.606 -19.345 Q35.048 -18.634 34.313 -18.216 Q33.577 -17.797 32.664 -17.797 Q31.067 -17.797 29.967 -18.898 Q28.866 -19.999 28.866 -21.595 Q28.866 -22.403 29.192 -23.148 Q29.52 -23.893 30.096 -24.374 Q32.135 -26.374 34.63 -27.677 Q37.125 -28.98 40 -28.98 Q42.308 -28.98 44.327 -28.004 Q46.346 -27.028 48.327 -25.797 Q49.346 -25.076 50.351 -24.528 Q51.356 -23.98 52.5 -23.98 Q54.096 -23.98 55.245 -25.052 Q56.394 -26.124 57.683 -26.739 Q58.433 -27.201 59.188 -27.215 Q59.942 -27.23 60.558 -26.941 Q61.865 -26.797 62.702 -25.792 Q63.538 -24.787 63.442 -23.384 Q63.394 -22.72 63.115 -22.119 Q62.837 -21.518 62.404 -21.086 Q60.365 -19.086 57.87 -17.783 Q55.375 -16.48 52.5 -16.48 Z M21.539 2.27 Q17.75 2.27 15.125 -0.355 Q12.5 -2.98 12.5 -6.769 V-63.691 Q12.5 -67.48 15.125 -70.105 Q17.75 -72.73 21.539 -72.73 H98.461 Q102.25 -72.73 104.875 -70.105 Q107.5 -67.48 107.5 -63.691 V-6.769 Q107.5 -2.98 104.875 -0.355 Q102.25 2.27 98.461 2.27 H21.539 Z M21.539 -5.23 H72.5 V-65.23 H21.539 Q20.962 -65.23 20.481 -64.749 Q20 -64.268 20 -63.691 V-6.769 Q20 -6.192 20.481 -5.711 Q20.962 -5.23 21.539 -5.23 Z M90 -30.807 Q91.837 -30.807 93.13 -32.1 Q94.423 -33.393 94.423 -35.23 Q94.423 -37.066 93.13 -38.36 Q91.837 -39.653 90 -39.653 Q88.163 -39.653 86.87 -38.36 Q85.577 -37.066 85.577 -35.23 Q85.577 -33.393 86.87 -32.1 Q88.163 -30.807 90 -30.807 Z M90 -10.807 Q91.837 -10.807 93.13 -12.1 Q94.423 -13.393 94.423 -15.23 Q94.423 -17.066 93.13 -18.36 Q91.837 -19.653 90 -19.653 Q88.163 -19.653 86.87 -18.36 Q85.577 -17.066 85.577 -15.23 Q85.577 -13.393 86.87 -12.1 Q88.163 -10.807 90 -10.807 Z M88.029 -50.999 H91.971 Q92.875 -50.999 93.553 -51.677 Q94.231 -52.355 94.231 -53.259 V-57.201 Q94.231 -58.105 93.553 -58.783 Q92.875 -59.461 91.971 -59.461 H88.029 Q87.125 -59.461 86.447 -58.783 Q85.769 -58.105 85.769 -57.201 V-53.259 Q85.769 -52.355 86.447 -51.677 Q87.125 -50.999 88.029 -50.999 Z"/></g><g id="Thin-M" transform="matrix(1 0 0 1 802.565 1126)"><path d="M53.75 -42.73 Q51.538 -42.73 49.591 -43.667 Q47.644 -44.605 45.808 -45.788 Q44.74 -46.509 43.639 -47.119 Q42.538 -47.73 41.25 -47.73 Q39.875 -47.73 38.779 -47.187 Q37.683 -46.643 36.712 -45.836 Q36.346 -45.413 35.875 -45.139 Q35.404 -44.865 34.827 -44.865 Q33.76 -44.865 32.995 -45.629 Q32.231 -46.393 32.231 -47.461 Q32.231 -48.076 32.51 -48.629 Q32.788 -49.182 33.317 -49.518 Q35.019 -50.893 37.01 -51.812 Q39 -52.73 41.25 -52.73 Q43.365 -52.73 45.216 -51.778 Q47.067 -50.826 48.904 -49.74 Q50.067 -48.922 51.264 -48.326 Q52.462 -47.73 53.75 -47.73 Q55.231 -47.73 58.404 -49.768 Q58.769 -50.134 59.212 -50.365 Q59.654 -50.595 60.173 -50.595 Q61.24 -50.595 62.005 -49.831 Q62.769 -49.066 62.769 -47.999 Q62.769 -47.384 62.49 -46.831 Q62.212 -46.278 61.683 -45.941 Q59.981 -44.566 57.99 -43.648 Q56 -42.73 53.75 -42.73 Z M53.75 -17.73 Q51.538 -17.73 49.591 -18.667 Q47.644 -19.605 45.808 -20.788 Q44.74 -21.509 43.639 -22.119 Q42.538 -22.73 41.25 -22.73 Q39.875 -22.73 38.779 -22.187 Q37.683 -21.643 36.712 -20.836 Q36.346 -20.413 35.875 -20.139 Q35.404 -19.865 34.827 -19.865 Q33.76 -19.865 32.995 -20.629 Q32.231 -21.393 32.231 -22.461 Q32.231 -23.076 32.51 -23.629 Q32.788 -24.182 33.317 -24.518 Q35.019 -25.893 37.01 -26.812 Q39 -27.73 41.25 -27.73 Q43.365 -27.73 45.216 -26.778 Q47.067 -25.826 48.904 -24.74 Q50.067 -23.922 51.264 -23.326 Q52.462 -22.73 53.75 -22.73 Q55.442 -22.73 56.615 -23.874 Q57.788 -25.018 59.365 -25.249 Q60.115 -25.422 60.75 -25.076 Q61.385 -24.73 61.615 -24.153 Q62.106 -23.865 62.341 -23.292 Q62.577 -22.72 62.385 -22.038 Q62.288 -21.711 62.106 -21.446 Q61.923 -21.182 61.683 -20.941 Q59.981 -19.566 57.99 -18.648 Q56 -17.73 53.75 -17.73 Z M23.077 -0.23 Q19.625 -0.23 17.312 -2.542 Q15 -4.855 15 -8.307 V-62.153 Q15 -65.605 17.312 -67.917 Q19.625 -70.23 23.077 -70.23 H96.923 Q100.375 -70.23 102.688 -67.917 Q105 -65.605 105 -62.153 V-8.307 Q105 -4.855 102.688 -2.542 Q100.375 -0.23 96.923 -0.23 H23.077 Z M23.077 -5.23 H75 V-65.23 H23.077 Q21.923 -65.23 20.962 -64.268 Q20 -63.307 20 -62.153 V-8.307 Q20 -7.153 20.962 -6.191 Q21.923 -5.23 23.077 -5.23 Z M90 -31.384 Q91.548 -31.384 92.697 -32.533 Q93.846 -33.682 93.846 -35.23 Q93.846 -36.778 92.697 -37.927 Q91.548 -39.076 90 -39.076 Q88.452 -39.076 87.303 -37.927 Q86.154 -36.778 86.154 -35.23 Q86.154 -33.682 87.303 -32.533 Q88.452 -31.384 90 -31.384 Z M90 -11.384 Q91.548 -11.384 92.697 -12.533 Q93.846 -13.682 93.846 -15.23 Q93.846 -16.778 92.697 -17.927 Q91.548 -19.076 90 -19.076 Q88.452 -19.076 87.303 -17.927 Q86.154 -16.778 86.154 -15.23 Q86.154 -13.682 87.303 -12.533 Q88.452 -11.384 90 -11.384 Z M88.558 -51.768 H91.442 Q92.25 -51.768 92.856 -52.374 Q93.462 -52.98 93.462 -53.788 V-56.672 Q93.462 -57.48 92.856 -58.086 Q92.25 -58.691 91.442 -58.691 H88.558 Q87.75 -58.691 87.144 -58.086 Q86.538 -57.48 86.538 -56.672 V-53.788 Q86.538 -52.98 87.144 -52.374 Q87.75 -51.768 88.558 -51.768 Z"/></g><g id="Ultralight-M" transform="matrix(1 0 0 1 506.415 1126)"><path d="M54.5 -43.48 Q52.375 -43.48 50.5 -44.417 Q48.625 -45.355 46.875 -46.48 Q45.75 -47.23 44.562 -47.855 Q43.375 -48.48 42 -48.48 Q40.625 -48.48 39.5 -47.98 Q38.375 -47.48 37.375 -46.73 Q37.125 -46.48 36.812 -46.292 Q36.5 -46.105 36.125 -46.105 Q35.375 -46.105 34.812 -46.667 Q34.25 -47.23 34.25 -47.98 Q34.25 -48.48 34.5 -48.917 Q34.75 -49.355 35.25 -49.605 Q36.75 -50.605 38.438 -51.292 Q40.125 -51.98 42 -51.98 Q44 -51.98 45.75 -51.042 Q47.5 -50.105 49.25 -49.105 Q50.5 -48.23 51.812 -47.605 Q53.125 -46.98 54.5 -46.98 Q55.75 -46.98 59.125 -48.73 Q59.375 -48.98 59.688 -49.167 Q60 -49.355 60.375 -49.355 Q61.125 -49.355 61.688 -48.792 Q62.25 -48.23 62.25 -47.48 Q62.25 -46.98 62 -46.542 Q61.75 -46.105 61.25 -45.855 Q59.75 -44.855 58.062 -44.167 Q56.375 -43.48 54.5 -43.48 Z M54.5 -18.48 Q52.375 -18.48 50.5 -19.417 Q48.625 -20.355 46.875 -21.48 Q45.75 -22.23 44.562 -22.855 Q43.375 -23.48 42 -23.48 Q40.625 -23.48 39.5 -22.98 Q38.375 -22.48 37.375 -21.73 Q37.125 -21.48 36.812 -21.292 Q36.5 -21.105 36.125 -21.105 Q35.375 -21.105 34.812 -21.667 Q34.25 -22.23 34.25 -22.98 Q34.25 -23.48 34.5 -23.917 Q34.75 -24.355 35.25 -24.605 Q36.75 -25.605 38.438 -26.292 Q40.125 -26.98 42 -26.98 Q44 -26.98 45.75 -26.042 Q47.5 -25.105 49.25 -24.105 Q50.5 -23.23 51.812 -22.605 Q53.125 -21.98 54.5 -21.98 Q56.25 -21.98 57.438 -23.167 Q58.625 -24.355 60.375 -24.355 Q61.125 -24.355 61.688 -23.792 Q62.25 -23.23 62.25 -22.48 Q62.25 -22.105 62.125 -21.792 Q62 -21.48 61.75 -21.23 Q61.625 -21.105 61.5 -21.042 Q61.375 -20.98 61.25 -20.855 Q59.75 -19.855 58.062 -19.167 Q56.375 -18.48 54.5 -18.48 Z M24 -1.73 Q20.75 -1.73 18.625 -3.855 Q16.5 -5.98 16.5 -9.23 V-61.23 Q16.5 -64.48 18.625 -66.605 Q20.75 -68.73 24 -68.73 H96 Q99.25 -68.73 101.375 -66.605 Q103.5 -64.48 103.5 -61.23 V-9.23 Q103.5 -5.98 101.375 -3.855 Q99.25 -1.73 96 -1.73 H24 Z M24 -5.23 H76.5 V-65.23 H24 Q22.5 -65.23 21.25 -63.98 Q20 -62.73 20 -61.23 V-9.23 Q20 -7.73 21.25 -6.48 Q22.5 -5.23 24 -5.23 Z M90 -31.73 Q91.375 -31.73 92.438 -32.792 Q93.5 -33.855 93.5 -35.23 Q93.5 -36.605 92.438 -37.667 Q91.375 -38.73 90 -38.73 Q88.625 -38.73 87.562 -37.667 Q86.5 -36.605 86.5 -35.23 Q86.5 -33.855 87.562 -32.792 Q88.625 -31.73 90 -31.73 Z M90 -11.73 Q91.375 -11.73 92.438 -12.792 Q93.5 -13.855 93.5 -15.23 Q93.5 -16.605 92.438 -17.667 Q91.375 -18.73 90 -18.73 Q88.625 -18.73 87.562 -17.667 Q86.5 -16.605 86.5 -15.23 Q86.5 -13.855 87.562 -12.792 Q88.625 -11.73 90 -11.73 Z M88.875 -52.23 H91.125 Q91.875 -52.23 92.438 -52.792 Q93 -53.355 93 -54.105 V-56.355 Q93 -57.105 92.438 -57.667 Q91.875 -58.23 91.125 -58.23 H88.875 Q88.125 -58.23 87.562 -57.667 Q87 -57.105 87 -56.355 V-54.105 Q87 -53.355 87.562 -52.792 Q88.125 -52.23 88.875 -52.23 Z"/></g><g id="Bold-S" transform="matrix(1 0 0 1 2294.23 696)"><path d="M41.127 -38.78 Q39.549 -38.78 38.069 -39.274 Q36.59 -39.767 35.209 -40.654 Q34.42 -41.147 33.626 -41.739 Q32.833 -42.331 31.856 -42.331 Q30.811 -42.331 30.051 -41.69 Q29.292 -41.049 28.601 -40.26 Q28.094 -39.703 27.418 -39.39 Q26.741 -39.076 25.896 -39.076 Q24.459 -39.076 23.423 -40.14 Q22.388 -41.203 22.388 -42.775 Q22.388 -43.514 22.634 -44.106 Q22.881 -44.698 23.374 -45.191 Q25.051 -46.966 27.169 -48.199 Q29.286 -49.432 31.757 -49.432 Q33.371 -49.432 34.783 -48.939 Q36.195 -48.446 37.576 -47.657 Q38.365 -47.164 39.159 -46.523 Q39.952 -45.881 40.929 -45.881 Q42.518 -45.881 44.283 -48.051 Q44.776 -48.544 45.435 -48.84 Q46.094 -49.136 46.847 -49.136 Q48.356 -49.136 49.377 -48.073 Q50.397 -47.01 50.397 -45.438 Q50.397 -44.698 50.151 -44.106 Q49.904 -43.514 49.411 -43.021 Q47.754 -41.166 45.661 -39.973 Q43.568 -38.78 41.127 -38.78 Z M41.127 -21.028 Q39.45 -21.028 37.823 -21.57 Q36.195 -22.113 34.815 -23.099 Q34.026 -23.592 33.365 -24.085 Q32.703 -24.578 31.89 -24.578 Q30.771 -24.578 30.031 -23.937 Q29.292 -23.296 28.601 -22.507 Q28.094 -21.95 27.418 -21.637 Q26.741 -21.324 25.896 -21.324 Q24.459 -21.324 23.423 -22.387 Q22.388 -23.45 22.388 -25.022 Q22.388 -25.762 22.634 -26.354 Q22.881 -26.945 23.374 -27.439 Q25.051 -29.214 27.122 -30.447 Q29.193 -31.679 31.609 -31.679 Q33.335 -31.679 34.963 -31.137 Q36.59 -30.595 37.971 -29.608 Q38.76 -29.115 39.401 -28.622 Q40.042 -28.129 40.929 -28.129 Q42.014 -28.129 42.754 -28.819 Q43.494 -29.51 44.283 -30.299 Q44.776 -30.792 45.435 -31.088 Q46.094 -31.384 46.847 -31.384 Q48.356 -31.384 49.377 -30.348 Q50.397 -29.312 50.397 -27.804 Q50.397 -27.093 50.151 -26.428 Q49.904 -25.762 49.411 -25.269 Q47.754 -23.414 45.661 -22.221 Q43.568 -21.028 41.127 -21.028 Z M17.753 -3.473 Q12.92 -3.473 9.517 -6.875 Q6.115 -10.278 6.115 -15.11 V-55.349 Q6.115 -60.251 9.483 -63.619 Q12.851 -66.987 17.753 -66.987 H76.928 Q81.829 -66.987 85.197 -63.619 Q88.565 -60.251 88.565 -55.349 V-15.11 Q88.565 -10.278 85.163 -6.875 Q81.76 -3.473 76.928 -3.473 H17.753 Z M17.753 -15.11 H55.033 V-55.349 H17.753 Q17.753 -55.349 17.753 -55.349 Q17.753 -55.349 17.753 -55.349 V-15.11 Q17.753 -15.11 17.753 -15.11 Q17.753 -15.11 17.753 -15.11 Z M70.989 -31.679 Q72.489 -31.679 73.525 -32.694 Q74.561 -33.709 74.561 -35.209 Q74.561 -36.709 73.546 -37.745 Q72.531 -38.78 71.031 -38.78 Q69.531 -38.78 68.495 -37.766 Q67.46 -36.751 67.46 -35.251 Q67.46 -33.751 68.474 -32.715 Q69.489 -31.679 70.989 -31.679 Z M70.989 -17.477 Q72.489 -17.477 73.525 -18.492 Q74.561 -19.507 74.561 -21.007 Q74.561 -22.507 73.546 -23.543 Q72.531 -24.578 71.031 -24.578 Q69.531 -24.578 68.495 -23.564 Q67.46 -22.549 67.46 -21.049 Q67.46 -19.549 68.474 -18.513 Q69.489 -17.477 70.989 -17.477 Z M70.418 -45.881 H71.7 Q72.983 -45.881 73.772 -46.73 Q74.561 -47.578 74.561 -48.84 V-50.122 Q74.561 -51.404 73.712 -52.193 Q72.864 -52.982 71.602 -52.982 H70.32 Q69.038 -52.982 68.249 -52.134 Q67.46 -51.286 67.46 -50.024 V-48.742 Q67.46 -47.459 68.308 -46.67 Q69.156 -45.881 70.418 -45.881 Z"/></g><g id="Semibold-S" transform="matrix(1 0 0 1 1998.1 696)"><path d="M41.255 -38.78 Q39.677 -38.78 38.198 -39.274 Q36.718 -39.767 35.338 -40.654 Q34.549 -41.147 33.755 -41.739 Q32.961 -42.331 31.984 -42.331 Q30.94 -42.331 30.18 -41.69 Q29.42 -41.049 28.73 -40.26 Q28.223 -39.703 27.546 -39.39 Q26.87 -39.076 26.025 -39.076 Q24.588 -39.076 23.552 -40.14 Q22.516 -41.203 22.516 -42.775 Q22.516 -43.514 22.763 -44.106 Q23.01 -44.698 23.503 -45.191 Q25.179 -46.966 27.297 -48.199 Q29.415 -49.432 31.886 -49.432 Q33.5 -49.432 34.912 -48.939 Q36.324 -48.446 37.705 -47.657 Q38.494 -47.164 39.287 -46.523 Q40.081 -45.881 41.058 -45.881 Q42.646 -45.881 44.411 -48.051 Q44.904 -48.544 45.563 -48.84 Q46.222 -49.136 46.975 -49.136 Q48.484 -49.136 49.505 -48.073 Q50.526 -47.01 50.526 -45.438 Q50.526 -44.698 50.279 -44.106 Q50.033 -43.514 49.54 -43.021 Q47.883 -41.166 45.79 -39.973 Q43.697 -38.78 41.255 -38.78 Z M41.255 -21.028 Q39.579 -21.028 37.951 -21.57 Q36.324 -22.113 34.943 -23.099 Q34.154 -23.592 33.493 -24.085 Q32.832 -24.578 32.018 -24.578 Q30.9 -24.578 30.16 -23.937 Q29.42 -23.296 28.73 -22.507 Q28.223 -21.95 27.546 -21.637 Q26.87 -21.324 26.025 -21.324 Q24.588 -21.324 23.552 -22.387 Q22.516 -23.45 22.516 -25.022 Q22.516 -25.762 22.763 -26.354 Q23.01 -26.945 23.503 -27.439 Q25.179 -29.214 27.25 -30.447 Q29.322 -31.679 31.738 -31.679 Q33.464 -31.679 35.091 -31.137 Q36.718 -30.595 38.099 -29.608 Q38.888 -29.115 39.529 -28.622 Q40.17 -28.129 41.058 -28.129 Q42.143 -28.129 42.883 -28.819 Q43.622 -29.51 44.411 -30.299 Q44.904 -30.792 45.563 -31.088 Q46.222 -31.384 46.975 -31.384 Q48.484 -31.384 49.505 -30.348 Q50.526 -29.312 50.526 -27.804 Q50.526 -27.093 50.279 -26.428 Q50.033 -25.762 49.54 -25.269 Q47.883 -23.414 45.79 -22.221 Q43.697 -21.028 41.255 -21.028 Z M17.238 -4.931 Q13.263 -4.931 10.418 -7.776 Q7.573 -10.621 7.573 -14.596 V-55.864 Q7.573 -59.908 10.383 -62.719 Q13.194 -65.529 17.238 -65.529 H77.442 Q81.486 -65.529 84.297 -62.719 Q87.107 -59.908 87.107 -55.864 V-14.596 Q87.107 -10.621 84.262 -7.776 Q81.417 -4.931 77.442 -4.931 H17.238 Z M17.238 -14.596 H55.805 V-55.864 H17.238 Q17.238 -55.864 17.238 -55.864 Q17.238 -55.864 17.238 -55.864 V-14.596 Q17.238 -14.596 17.238 -14.596 Q17.238 -14.596 17.238 -14.596 Z M70.989 -31.679 Q72.489 -31.679 73.525 -32.694 Q74.561 -33.709 74.561 -35.209 Q74.561 -36.709 73.546 -37.745 Q72.531 -38.78 71.031 -38.78 Q69.531 -38.78 68.495 -37.766 Q67.46 -36.751 67.46 -35.251 Q67.46 -33.751 68.474 -32.715 Q69.489 -31.679 70.989 -31.679 Z M70.989 -17.477 Q72.489 -17.477 73.525 -18.492 Q74.561 -19.507 74.561 -21.007 Q74.561 -22.507 73.546 -23.543 Q72.531 -24.578 71.031 -24.578 Q69.531 -24.578 68.495 -23.564 Q67.46 -22.549 67.46 -21.049 Q67.46 -19.549 68.474 -18.513 Q69.489 -17.477 70.989 -17.477 Z M69.904 -45.881 H72.172 Q73.24 -45.881 73.9 -46.575 Q74.561 -47.269 74.561 -48.326 V-50.594 Q74.561 -51.662 73.867 -52.322 Q73.173 -52.982 72.116 -52.982 H69.848 Q68.78 -52.982 68.12 -52.289 Q67.46 -51.595 67.46 -50.538 V-48.27 Q67.46 -47.202 68.153 -46.542 Q68.847 -45.881 69.904 -45.881 Z"/></g><g id="Medium-S" transform="matrix(1 0 0 1 1701.85 696)"><path d="M41.352 -38.78 Q39.774 -38.78 38.294 -39.274 Q36.815 -39.767 35.434 -40.654 Q34.645 -41.147 33.852 -41.739 Q33.058 -42.331 32.081 -42.331 Q31.036 -42.331 30.276 -41.69 Q29.517 -41.049 28.826 -40.26 Q28.319 -39.703 27.643 -39.39 Q26.967 -39.076 26.121 -39.076 Q24.684 -39.076 23.649 -40.14 Q22.613 -41.203 22.613 -42.775 Q22.613 -43.514 22.86 -44.106 Q23.106 -44.698 23.599 -45.191 Q25.276 -46.966 27.394 -48.199 Q29.512 -49.432 31.982 -49.432 Q33.596 -49.432 35.008 -48.939 Q36.421 -48.446 37.801 -47.657 Q38.59 -47.164 39.384 -46.523 Q40.178 -45.881 41.155 -45.881 Q42.743 -45.881 44.508 -48.051 Q45.001 -48.544 45.66 -48.84 Q46.319 -49.136 47.072 -49.136 Q48.581 -49.136 49.602 -48.073 Q50.623 -47.01 50.623 -45.438 Q50.623 -44.698 50.376 -44.106 Q50.129 -43.514 49.636 -43.021 Q47.979 -41.166 45.886 -39.973 Q43.793 -38.78 41.352 -38.78 Z M41.352 -21.028 Q39.675 -21.028 38.048 -21.57 Q36.421 -22.113 35.04 -23.099 Q34.251 -23.592 33.59 -24.085 Q32.929 -24.578 32.115 -24.578 Q30.996 -24.578 30.256 -23.937 Q29.517 -23.296 28.826 -22.507 Q28.319 -21.95 27.643 -21.637 Q26.967 -21.324 26.121 -21.324 Q24.684 -21.324 23.649 -22.387 Q22.613 -23.45 22.613 -25.022 Q22.613 -25.762 22.86 -26.354 Q23.106 -26.945 23.599 -27.439 Q25.276 -29.214 27.347 -30.447 Q29.418 -31.679 31.834 -31.679 Q33.56 -31.679 35.188 -31.137 Q36.815 -30.595 38.196 -29.608 Q38.985 -29.115 39.626 -28.622 Q40.267 -28.129 41.155 -28.129 Q42.239 -28.129 42.979 -28.819 Q43.719 -29.51 44.508 -30.299 Q45.001 -30.792 45.66 -31.088 Q46.319 -31.384 47.072 -31.384 Q48.581 -31.384 49.602 -30.348 Q50.623 -29.312 50.623 -27.804 Q50.623 -27.093 50.376 -26.428 Q50.129 -25.762 49.636 -25.269 Q47.979 -23.414 45.886 -22.221 Q43.793 -21.028 41.352 -21.028 Z M16.852 -6.024 Q13.52 -6.024 11.093 -8.451 Q8.666 -10.878 8.666 -14.21 V-56.25 Q8.666 -59.651 11.059 -62.043 Q13.451 -64.436 16.852 -64.436 H77.828 Q81.229 -64.436 83.621 -62.043 Q86.014 -59.651 86.014 -56.25 V-14.21 Q86.014 -10.878 83.587 -8.451 Q81.16 -6.024 77.828 -6.024 H16.852 Z M16.852 -14.21 H56.384 V-56.25 H16.852 Q16.852 -56.25 16.852 -56.25 Q16.852 -56.25 16.852 -56.25 V-14.21 Q16.852 -14.21 16.852 -14.21 Q16.852 -14.21 16.852 -14.21 Z M70.989 -31.679 Q72.489 -31.679 73.525 -32.694 Q74.561 -33.709 74.561 -35.209 Q74.561 -36.709 73.546 -37.745 Q72.531 -38.78 71.031 -38.78 Q69.531 -38.78 68.495 -37.766 Q67.46 -36.751 67.46 -35.251 Q67.46 -33.751 68.474 -32.715 Q69.489 -31.679 70.989 -31.679 Z M70.989 -17.477 Q72.489 -17.477 73.525 -18.492 Q74.561 -19.507 74.561 -21.007 Q74.561 -22.507 73.546 -23.543 Q72.531 -24.578 71.031 -24.578 Q69.531 -24.578 68.495 -23.564 Q67.46 -22.549 67.46 -21.049 Q67.46 -19.549 68.474 -18.513 Q69.489 -17.477 70.989 -17.477 Z M69.518 -45.881 H72.526 Q73.433 -45.881 73.997 -46.46 Q74.561 -47.038 74.561 -47.94 V-50.948 Q74.561 -51.855 73.982 -52.419 Q73.404 -52.982 72.502 -52.982 H69.494 Q68.587 -52.982 68.023 -52.404 Q67.46 -51.826 67.46 -50.924 V-47.916 Q67.46 -47.009 68.038 -46.445 Q68.616 -45.881 69.518 -45.881 Z"/></g><g id="Regular-S" transform="matrix(1 0 0 1 1405.73 696)"><path d="M41.422 -38.78 Q39.845 -38.78 38.365 -39.274 Q36.886 -39.767 35.505 -40.654 Q34.716 -41.147 33.922 -41.739 Q33.129 -42.331 32.152 -42.331 Q31.107 -42.331 30.347 -41.69 Q29.588 -41.049 28.897 -40.26 Q28.39 -39.703 27.714 -39.39 Q27.037 -39.076 26.192 -39.076 Q24.755 -39.076 23.719 -40.14 Q22.684 -41.203 22.684 -42.775 Q22.684 -43.514 22.93 -44.106 Q23.177 -44.698 23.67 -45.191 Q25.347 -46.966 27.464 -48.199 Q29.582 -49.432 32.053 -49.432 Q33.667 -49.432 35.079 -48.939 Q36.491 -48.446 37.872 -47.657 Q38.661 -47.164 39.455 -46.523 Q40.248 -45.881 41.225 -45.881 Q42.814 -45.881 44.579 -48.051 Q45.072 -48.544 45.731 -48.84 Q46.39 -49.136 47.143 -49.136 Q48.652 -49.136 49.672 -48.073 Q50.693 -47.01 50.693 -45.438 Q50.693 -44.698 50.447 -44.106 Q50.2 -43.514 49.707 -43.021 Q48.05 -41.166 45.957 -39.973 Q43.864 -38.78 41.422 -38.78 Z M41.422 -21.028 Q39.746 -21.028 38.119 -21.57 Q36.491 -22.113 35.111 -23.099 Q34.322 -23.592 33.66 -24.085 Q32.999 -24.578 32.186 -24.578 Q31.067 -24.578 30.327 -23.937 Q29.588 -23.296 28.897 -22.507 Q28.39 -21.95 27.714 -21.637 Q27.037 -21.324 26.192 -21.324 Q24.755 -21.324 23.719 -22.387 Q22.684 -23.45 22.684 -25.022 Q22.684 -25.762 22.93 -26.354 Q23.177 -26.945 23.67 -27.439 Q25.347 -29.214 27.418 -30.447 Q29.489 -31.679 31.905 -31.679 Q33.631 -31.679 35.258 -31.137 Q36.886 -30.595 38.267 -29.608 Q39.056 -29.115 39.697 -28.622 Q40.338 -28.129 41.225 -28.129 Q42.31 -28.129 43.05 -28.819 Q43.79 -29.51 44.579 -30.299 Q45.072 -30.792 45.731 -31.088 Q46.39 -31.384 47.143 -31.384 Q48.652 -31.384 49.672 -30.348 Q50.693 -29.312 50.693 -27.804 Q50.693 -27.093 50.447 -26.428 Q50.2 -25.762 49.707 -25.269 Q48.05 -23.414 45.957 -22.221 Q43.864 -21.028 41.422 -21.028 Z M16.569 -6.826 Q13.709 -6.826 11.588 -8.946 Q9.468 -11.067 9.468 -13.927 V-56.533 Q9.468 -59.462 11.554 -61.548 Q13.64 -63.634 16.569 -63.634 H78.111 Q81.04 -63.634 83.126 -61.548 Q85.212 -59.462 85.212 -56.533 V-13.927 Q85.212 -11.067 83.092 -8.946 Q80.971 -6.826 78.111 -6.826 H16.569 Z M16.569 -13.927 H56.808 V-56.533 H16.569 Q16.569 -56.533 16.569 -56.533 Q16.569 -56.533 16.569 -56.533 V-13.927 Q16.569 -13.927 16.569 -13.927 Q16.569 -13.927 16.569 -13.927 Z M70.989 -31.679 Q72.489 -31.679 73.525 -32.694 Q74.561 -33.709 74.561 -35.209 Q74.561 -36.709 73.546 -37.745 Q72.531 -38.78 71.031 -38.78 Q69.531 -38.78 68.495 -37.766 Q67.46 -36.751 67.46 -35.251 Q67.46 -33.751 68.474 -32.715 Q69.489 -31.679 70.989 -31.679 Z M70.989 -17.477 Q72.489 -17.477 73.525 -18.492 Q74.561 -19.507 74.561 -21.007 Q74.561 -22.507 73.546 -23.543 Q72.531 -24.578 71.031 -24.578 Q69.531 -24.578 68.495 -23.564 Q67.46 -22.549 67.46 -21.049 Q67.46 -19.549 68.474 -18.513 Q69.489 -17.477 70.989 -17.477 Z M69.235 -45.881 H72.785 Q73.574 -45.881 74.067 -46.375 Q74.561 -46.868 74.561 -47.657 V-51.207 Q74.561 -51.996 74.067 -52.489 Q73.574 -52.982 72.785 -52.982 H69.235 Q68.446 -52.982 67.953 -52.489 Q67.46 -51.996 67.46 -51.207 V-47.657 Q67.46 -46.868 67.953 -46.375 Q68.446 -45.881 69.235 -45.881 Z"/></g><g id="Light-S" transform="matrix(1 0 0 1 1109.75 696)"><path d="M42.409 -39.767 Q40.945 -39.767 39.56 -40.26 Q38.176 -40.753 36.909 -41.565 Q36.044 -42.096 35.136 -42.707 Q34.229 -43.317 33.138 -43.317 Q32.093 -43.317 31.296 -42.733 Q30.498 -42.149 29.77 -41.436 Q29.414 -41.107 28.947 -40.907 Q28.479 -40.708 27.899 -40.708 Q26.879 -40.708 26.109 -41.505 Q25.339 -42.303 25.339 -43.458 Q25.339 -44.046 25.548 -44.486 Q25.757 -44.926 26.212 -45.305 Q27.623 -46.587 29.342 -47.516 Q31.062 -48.446 33.039 -48.446 Q34.502 -48.446 35.781 -47.972 Q37.06 -47.497 38.327 -46.822 Q39.23 -46.253 40.175 -45.574 Q41.121 -44.895 42.212 -44.895 Q43.496 -44.895 45.527 -46.686 Q45.868 -47.027 46.357 -47.266 Q46.845 -47.505 47.408 -47.505 Q48.5 -47.505 49.255 -46.707 Q50.01 -45.909 50.01 -44.755 Q50.01 -44.167 49.802 -43.727 Q49.593 -43.287 49.138 -42.908 Q47.747 -41.545 46.052 -40.656 Q44.357 -39.767 42.409 -39.767 Z M42.409 -22.014 Q40.846 -22.014 39.314 -22.557 Q37.781 -23.099 36.514 -24.01 Q35.649 -24.541 34.874 -25.053 Q34.099 -25.565 33.172 -25.565 Q32.053 -25.565 31.276 -24.981 Q30.498 -24.397 29.77 -23.683 Q29.414 -23.354 28.947 -23.155 Q28.479 -22.955 27.899 -22.955 Q26.879 -22.955 26.109 -23.753 Q25.339 -24.551 25.339 -25.705 Q25.339 -26.293 25.548 -26.733 Q25.757 -27.173 26.212 -27.552 Q27.623 -28.835 29.296 -29.764 Q30.968 -30.693 32.892 -30.693 Q34.466 -30.693 35.96 -30.17 Q37.455 -29.646 38.722 -28.774 Q39.625 -28.205 40.417 -27.674 Q41.21 -27.143 42.212 -27.143 Q43.372 -27.143 44.131 -27.89 Q44.89 -28.637 45.906 -29.123 Q46.399 -29.388 46.964 -29.4 Q47.528 -29.411 47.977 -29.183 Q48.841 -29.07 49.388 -28.375 Q49.935 -27.681 49.859 -26.741 Q49.821 -26.297 49.65 -25.897 Q49.479 -25.496 49.138 -25.155 Q47.747 -23.793 46.052 -22.904 Q44.357 -22.014 42.409 -22.014 Z M17.783 -8.799 Q15.188 -8.799 13.314 -10.672 Q11.441 -12.546 11.441 -15.141 V-55.319 Q11.441 -57.983 13.28 -59.822 Q15.119 -61.661 17.783 -61.661 H76.897 Q79.561 -61.661 81.4 -59.822 Q83.239 -57.983 83.239 -55.319 V-15.141 Q83.239 -12.546 81.366 -10.672 Q79.492 -8.799 76.897 -8.799 H17.783 Z M17.783 -13.927 H58.781 V-56.533 H17.783 Q17.328 -56.533 16.948 -56.154 Q16.569 -55.774 16.569 -55.319 V-15.141 Q16.569 -14.686 16.948 -14.306 Q17.328 -13.927 17.783 -13.927 Z M70.989 -32.135 Q72.262 -32.135 73.183 -33.036 Q74.105 -33.937 74.105 -35.209 Q74.105 -36.482 73.204 -37.403 Q72.303 -38.325 71.031 -38.325 Q69.758 -38.325 68.837 -37.424 Q67.915 -36.523 67.915 -35.251 Q67.915 -33.978 68.816 -33.057 Q69.717 -32.135 70.989 -32.135 Z M70.989 -17.933 Q72.262 -17.933 73.183 -18.834 Q74.105 -19.735 74.105 -21.007 Q74.105 -22.28 73.204 -23.201 Q72.303 -24.123 71.031 -24.123 Q69.758 -24.123 68.837 -23.222 Q67.915 -22.321 67.915 -21.049 Q67.915 -19.776 68.816 -18.855 Q69.717 -17.933 70.989 -17.933 Z M69.652 -46.488 H72.368 Q73.081 -46.488 73.517 -46.925 Q73.954 -47.361 73.954 -48.074 V-50.79 Q73.954 -51.503 73.517 -51.939 Q73.081 -52.376 72.368 -52.376 H69.652 Q68.939 -52.376 68.503 -51.939 Q68.066 -51.503 68.066 -50.79 V-48.074 Q68.066 -47.361 68.503 -46.925 Q68.939 -46.488 69.652 -46.488 Z"/></g><g id="Thin-S" transform="matrix(1 0 0 1 814.015 696)"><path d="M43.395 -40.753 Q42.045 -40.753 40.755 -41.246 Q39.465 -41.739 38.312 -42.475 Q37.371 -43.044 36.35 -43.674 Q35.329 -44.303 34.124 -44.303 Q33.08 -44.303 32.244 -43.776 Q31.408 -43.249 30.642 -42.612 Q30.438 -42.51 30.179 -42.424 Q29.92 -42.339 29.606 -42.339 Q29.003 -42.339 28.499 -42.871 Q27.994 -43.403 27.994 -44.14 Q27.994 -44.577 28.165 -44.865 Q28.336 -45.153 28.753 -45.419 Q29.899 -46.208 31.22 -46.834 Q32.541 -47.459 34.026 -47.459 Q35.336 -47.459 36.483 -47.004 Q37.629 -46.549 38.782 -45.988 Q39.799 -45.343 40.896 -44.626 Q41.993 -43.909 43.198 -43.909 Q44.179 -43.909 46.475 -45.32 Q46.665 -45.51 46.982 -45.692 Q47.3 -45.874 47.674 -45.874 Q48.348 -45.874 48.838 -45.342 Q49.328 -44.809 49.328 -44.072 Q49.328 -43.636 49.157 -43.348 Q48.986 -43.059 48.569 -42.794 Q47.443 -41.925 46.147 -41.339 Q44.851 -40.753 43.395 -40.753 Z M43.395 -23 Q41.946 -23 40.508 -23.543 Q39.071 -24.085 37.917 -24.92 Q36.977 -25.489 36.088 -26.02 Q35.199 -26.551 34.158 -26.551 Q33.039 -26.551 32.224 -26.024 Q31.408 -25.497 30.642 -24.859 Q30.438 -24.757 30.179 -24.672 Q29.92 -24.586 29.606 -24.586 Q29.003 -24.586 28.499 -25.118 Q27.994 -25.651 27.994 -26.388 Q27.994 -26.824 28.165 -27.112 Q28.336 -27.401 28.753 -27.666 Q29.899 -28.455 31.173 -29.081 Q32.448 -29.707 33.878 -29.707 Q35.3 -29.707 36.662 -29.203 Q38.024 -28.698 39.177 -27.939 Q40.193 -27.295 41.138 -26.725 Q42.082 -26.156 43.198 -26.156 Q44.434 -26.156 45.212 -26.961 Q45.99 -27.765 47.234 -27.947 Q47.727 -27.985 48.196 -27.712 Q48.666 -27.439 48.812 -26.983 Q49.031 -26.756 49.104 -26.403 Q49.176 -26.05 49.024 -25.679 Q48.948 -25.5 48.853 -25.366 Q48.759 -25.231 48.569 -25.041 Q47.443 -24.172 46.147 -23.586 Q44.851 -23 43.395 -23 Z M18.997 -10.771 Q16.668 -10.771 15.04 -12.398 Q13.413 -14.026 13.413 -16.355 V-54.105 Q13.413 -56.503 15.006 -58.096 Q16.599 -59.689 18.997 -59.689 H75.683 Q78.081 -59.689 79.674 -58.096 Q81.267 -56.503 81.267 -54.105 V-16.355 Q81.267 -14.026 79.64 -12.398 Q78.012 -10.771 75.683 -10.771 H18.997 Z M18.997 -13.927 H60.753 V-56.533 H18.997 Q18.086 -56.533 17.328 -55.774 Q16.569 -55.016 16.569 -54.105 V-16.355 Q16.569 -15.444 17.328 -14.686 Q18.086 -13.927 18.997 -13.927 Z M70.989 -32.59 Q72.034 -32.59 72.842 -33.377 Q73.65 -34.164 73.65 -35.209 Q73.65 -36.254 72.863 -37.062 Q72.076 -37.87 71.031 -37.87 Q69.986 -37.87 69.178 -37.083 Q68.37 -36.296 68.37 -35.251 Q68.37 -34.206 69.157 -33.398 Q69.944 -32.59 70.989 -32.59 Z M70.989 -18.388 Q72.034 -18.388 72.842 -19.175 Q73.65 -19.962 73.65 -21.007 Q73.65 -22.052 72.863 -22.86 Q72.076 -23.668 71.031 -23.668 Q69.986 -23.668 69.178 -22.881 Q68.37 -22.094 68.37 -21.049 Q68.37 -20.004 69.157 -19.196 Q69.944 -18.388 70.989 -18.388 Z M70.069 -47.095 H71.951 Q72.588 -47.095 72.967 -47.475 Q73.347 -47.854 73.347 -48.491 V-50.373 Q73.347 -51.01 72.967 -51.389 Q72.588 -51.769 71.951 -51.769 H70.069 Q69.432 -51.769 69.053 -51.389 Q68.673 -51.01 68.673 -50.373 V-48.491 Q68.673 -47.854 69.053 -47.475 Q69.432 -47.095 70.069 -47.095 Z"/></g><g id="Ultralight-S" transform="matrix(1 0 0 1 517.792 696)"><path d="M43.987 -41.345 Q42.705 -41.345 41.472 -41.838 Q40.239 -42.331 39.154 -43.021 Q38.168 -43.613 37.078 -44.254 Q35.989 -44.895 34.716 -44.895 Q33.671 -44.895 32.813 -44.402 Q31.955 -43.909 31.166 -43.317 Q31.053 -43.352 30.919 -43.335 Q30.785 -43.317 30.63 -43.317 Q30.278 -43.317 29.933 -43.69 Q29.588 -44.063 29.588 -44.55 Q29.588 -44.895 29.735 -45.092 Q29.883 -45.29 30.278 -45.487 Q31.264 -45.98 32.346 -46.424 Q33.429 -46.868 34.617 -46.868 Q35.837 -46.868 36.904 -46.424 Q37.971 -45.98 39.056 -45.487 Q40.14 -44.797 41.329 -44.057 Q42.517 -43.317 43.79 -43.317 Q44.589 -43.317 47.044 -44.501 Q47.143 -44.599 47.358 -44.747 Q47.573 -44.895 47.833 -44.895 Q48.257 -44.895 48.588 -44.522 Q48.918 -44.149 48.918 -43.662 Q48.918 -43.317 48.77 -43.12 Q48.622 -42.923 48.228 -42.725 Q47.261 -42.152 46.204 -41.749 Q45.146 -41.345 43.987 -41.345 Z M43.987 -23.592 Q42.606 -23.592 41.225 -24.135 Q39.845 -24.677 38.76 -25.466 Q37.773 -26.058 36.816 -26.6 Q35.859 -27.143 34.75 -27.143 Q33.631 -27.143 32.793 -26.65 Q31.955 -26.156 31.166 -25.565 Q31.053 -25.6 30.919 -25.582 Q30.785 -25.565 30.63 -25.565 Q30.278 -25.565 29.933 -25.938 Q29.588 -26.311 29.588 -26.798 Q29.588 -27.143 29.735 -27.34 Q29.883 -27.537 30.278 -27.734 Q31.264 -28.228 32.3 -28.671 Q33.335 -29.115 34.469 -29.115 Q35.801 -29.115 37.083 -28.622 Q38.365 -28.129 39.45 -27.439 Q40.535 -26.748 41.57 -26.156 Q42.606 -25.565 43.79 -25.565 Q45.072 -25.565 45.861 -26.403 Q46.65 -27.241 48.03 -27.241 Q48.524 -27.143 48.936 -26.699 Q49.348 -26.255 49.312 -25.663 Q49.145 -25.367 48.933 -25.22 Q48.721 -25.072 48.524 -25.042 Q48.425 -25.022 48.376 -25.047 Q48.326 -25.072 48.228 -24.973 Q47.261 -24.4 46.204 -23.996 Q45.146 -23.592 43.987 -23.592 Z M19.725 -11.954 Q17.555 -11.954 16.076 -13.434 Q14.597 -14.913 14.597 -17.083 V-53.377 Q14.597 -55.616 16.041 -57.061 Q17.486 -58.505 19.725 -58.505 H74.955 Q77.194 -58.505 78.639 -57.061 Q80.084 -55.616 80.084 -53.377 V-17.083 Q80.084 -14.913 78.604 -13.434 Q77.125 -11.954 74.955 -11.954 H19.725 Z M19.725 -13.927 H61.937 V-56.533 H19.725 Q18.541 -56.533 17.555 -55.547 Q16.569 -54.56 16.569 -53.377 V-17.083 Q16.569 -15.899 17.555 -14.913 Q18.541 -13.927 19.725 -13.927 Z M70.989 -32.863 Q71.898 -32.863 72.637 -33.582 Q73.377 -34.301 73.377 -35.209 Q73.377 -36.118 72.658 -36.857 Q71.939 -37.597 71.031 -37.597 Q70.122 -37.597 69.383 -36.878 Q68.643 -36.159 68.643 -35.251 Q68.643 -34.342 69.362 -33.603 Q70.081 -32.863 70.989 -32.863 Z M70.989 -18.661 Q71.898 -18.661 72.637 -19.38 Q73.377 -20.099 73.377 -21.007 Q73.377 -21.916 72.658 -22.655 Q71.939 -23.395 71.031 -23.395 Q70.122 -23.395 69.383 -22.676 Q68.643 -21.957 68.643 -21.049 Q68.643 -20.14 69.362 -19.401 Q70.081 -18.661 70.989 -18.661 Z M70.32 -47.459 H71.7 Q72.292 -47.459 72.637 -47.805 Q72.983 -48.15 72.983 -48.742 V-50.122 Q72.983 -50.714 72.637 -51.059 Q72.292 -51.404 71.7 -51.404 H70.32 Q69.728 -51.404 69.383 -51.059 Q69.038 -50.714 69.038 -50.122 V-48.742 Q69.038 -48.15 69.383 -47.805 Q69.728 -47.459 70.32 -47.459 Z"/></g></g></svg>