<svg xmlns="http://www.w3.org/2000/svg" version="1.1" width="3300" height="2000"><g id="Notes"><style>
    text {
      font-family: monospace;
      text-anchor: middle;
    }
    text.emphasis {
      font-weight:bold;
    }
    text.lanchor {
      text-anchor: start;
    }
  </style><rect height="2200" id="artboard" fill="white" width="3300" x="0" y="0"/><line id="" style="fill:none;stroke:black;stroke-width:0.5;" x1="263" x2="3036" y1="292" y2="292"/><text class="lanchor emphasis" transform="matrix(1 0 0 1 263 322)">Weight/Scale Variations</text><text transform="matrix(1 0 0 1 559.711 322)">Ultralight</text><text transform="matrix(1 0 0 1 856.422 322)">Thin</text><text transform="matrix(1 0 0 1 1153.13 322)">Light</text><text transform="matrix(1 0 0 1 1449.84 322)">Regular</text><text transform="matrix(1 0 0 1 1746.56 322)">Medium</text><text transform="matrix(1 0 0 1 2043.27 322)">Semibold</text><text transform="matrix(1 0 0 1 2339.98 322)">Bold</text><text transform="matrix(1 0 0 1 2636.69 322)">Heavy</text><text transform="matrix(1 0 0 1 2933.4 322)">Black</text><text id="template-version" style="text-anchor: end;" transform="matrix(1 0 0 1 3036 1933)">Template v.1.0</text><text class="lanchor" transform="matrix(1 0 0 1 263 726)">Small</text><text class="lanchor" transform="matrix(1 0 0 1 263 1156)">Medium</text><text class="lanchor" transform="matrix(1 0 0 1 263 1586)">Large</text></g><g id="Guides"><g id="H-reference" style="fill:#27AAE1;stroke:none;" transform="matrix(1 0 0 1 339 696)"><path d="M 54.9316 0 L 57.666 0 L 30.5664 -70.459 L 28.0762 -70.459 L 0.976562 0 L 3.66211 0 L 12.9395 -24.4629 L 45.7031 -24.4629 Z M 29.1992 -67.0898 L 29.4434 -67.0898 L 44.8242 -26.709 L 13.8184 -26.709 Z"/></g><line id="Baseline-S" style="fill:none;stroke:#27AAE1;opacity:1;stroke-width:0.577;" x1="263" x2="3036" y1="696" y2="696"/><line id="Capline-S" style="fill:none;stroke:#27AAE1;opacity:1;stroke-width:0.577;" x1="263" x2="3036" y1="625.541" y2="625.541"/><g id="H-reference" style="fill:#27AAE1;stroke:none;" transform="matrix(1 0 0 1 339 1126)"><path d="M 54.9316 0 L 57.666 0 L 30.5664 -70.459 L 28.0762 -70.459 L 0.976562 0 L 3.66211 0 L 12.9395 -24.4629 L 45.7031 -24.4629 Z M 29.1992 -67.0898 L 29.4434 -67.0898 L 44.8242 -26.709 L 13.8184 -26.709 Z"/></g><line id="Baseline-M" style="fill:none;stroke:#27AAE1;opacity:1;stroke-width:0.577;" x1="263" x2="3036" y1="1126" y2="1126"/><line id="Capline-M" style="fill:none;stroke:#27AAE1;opacity:1;stroke-width:0.577;" x1="263" x2="3036" y1="1055.54" y2="1055.54"/><g id="H-reference" style="fill:#27AAE1;stroke:none;" transform="matrix(1 0 0 1 339 1556)"><path d="M 54.9316 0 L 57.666 0 L 30.5664 -70.459 L 28.0762 -70.459 L 0.976562 0 L 3.66211 0 L 12.9395 -24.4629 L 45.7031 -24.4629 Z M 29.1992 -67.0898 L 29.4434 -67.0898 L 44.8242 -26.709 L 13.8184 -26.709 Z"/></g><line id="Baseline-L" style="fill:none;stroke:#27AAE1;opacity:1;stroke-width:0.577;" x1="263" x2="3036" y1="1556" y2="1556"/><line id="Capline-L" style="fill:none;stroke:#27AAE1;opacity:1;stroke-width:0.577;" x1="263" x2="3036" y1="1485.54" y2="1485.54"/><rect height="119.336" id="left-margin" style="fill:darkred;stroke:none;opacity:0.4;" width="12.4512" x="1394.06" y="1030.79"/><rect height="119.336" id="right-margin" style="fill:darkgreen;stroke:none;opacity:0.4;" width="12.4512" x="1502.5112" y="1030.79"/><rect x="1406.5112" y="1045" width="96" height="96" fill="none" stroke="blue" stroke-dasharray="5"/><rect x="1394.06" y="1030.79" width="120.9024" height="119.336" fill="none" stroke="blue"/></g><g id="Symbols"><g id="Bold-L" transform="matrix(1 0 0 1 2266 1556)"><path d="M47.891 38.139 V-56.837 H107.231 V38.139 H47.891 Z M77.407 -19.266 Q80.221 -19.266 82.197 -21.09 Q84.172 -22.915 84.172 -26.068 Q84.172 -28.619 82.208 -30.796 Q80.244 -32.972 77.4 -32.972 Q74.42 -32.972 72.443 -30.846 Q70.466 -28.719 70.466 -25.889 Q70.466 -23.194 72.53 -21.23 Q74.593 -19.266 77.407 -19.266 Z M52.729 -67.48  46.44 -73.93 Q52.742 -80.003 60.749 -83.416 Q68.756 -86.83 77.432 -86.83 Q86.108 -86.83 94.083 -83.416 Q102.058 -80.003 108.36 -73.93 L102.071 -67.48 Q97.073 -72.156 90.61 -74.897 Q84.147 -77.639 77.387 -77.639 Q70.627 -77.639 64.177 -74.897 Q57.727 -72.156 52.729 -67.48 Z M35.153 -85.056  28.703 -91.506 Q38.7 -101.02 51.085 -106.341 Q63.47 -111.662 77.374 -111.662 Q91.278 -111.662 103.724 -106.403 Q116.169 -101.143 125.775 -91.184 L119.164 -84.895 Q110.818 -93.307 100.065 -97.889 Q89.312 -102.471 77.309 -102.471 Q65.306 -102.471 54.483 -97.889 Q43.66 -93.307 35.153 -85.056 Z M62.565 23.465 H92.396 V-42.325 H62.565 V23.465 Z"/></g><g id="Semibold-L" transform="matrix(1 0 0 1 1970.27 1556)"><path d="M49.013 39.401 V-54.804 H106.039 V39.401 H49.013 Z M77.394 -18.705 Q80.291 -18.705 82.337 -20.626 Q84.383 -22.546 84.383 -25.718 Q84.383 -28.408 82.362 -30.62 Q80.34 -32.832 77.413 -32.832 Q74.35 -32.832 72.303 -30.67 Q70.256 -28.509 70.256 -25.573 Q70.256 -22.774 72.377 -20.74 Q74.497 -18.705 77.394 -18.705 Z M51.467 -66.078  44.337 -73.299 Q51.054 -79.816 59.589 -83.463 Q68.125 -87.11 77.432 -87.11 Q86.738 -87.11 95.242 -83.463 Q103.746 -79.816 110.463 -73.299 L103.333 -66.078 Q98.054 -71.035 91.311 -73.916 Q84.568 -76.798 77.387 -76.798 Q70.207 -76.798 63.476 -73.916 Q56.746 -71.035 51.467 -66.078 Z M32.278 -85.197  25.057 -92.488 Q35.686 -102.773 49.087 -108.479 Q62.489 -114.186 77.374 -114.186 Q92.259 -114.186 105.721 -108.506 Q119.184 -102.825 129.561 -92.235 L122.038 -85.035 Q113.114 -94.067 101.598 -98.97 Q90.083 -103.873 77.309 -103.873 Q64.535 -103.873 52.949 -98.97 Q41.363 -94.067 32.278 -85.197 Z M62.425 25.989 H92.537 V-41.484 H62.425 V25.989 Z"/></g><g id="Medium-L" transform="matrix(1 0 0 1 1674.31 1556)"><path d="M49.854 40.347 V-53.28 H105.145 V40.347 H49.854 Z M77.384 -18.285 Q80.343 -18.285 82.442 -20.277 Q84.541 -22.269 84.541 -25.455 Q84.541 -28.251 82.476 -30.489 Q80.412 -32.727 77.422 -32.727 Q74.297 -32.727 72.198 -30.539 Q70.098 -28.351 70.098 -25.337 Q70.098 -22.458 72.262 -20.371 Q74.425 -18.285 77.384 -18.285 Z M50.52 -65.026  42.759 -72.826 Q49.787 -79.676 58.72 -83.499 Q67.652 -87.321 77.432 -87.321 Q87.212 -87.321 96.112 -83.499 Q105.013 -79.676 112.041 -72.826 L104.28 -65.026 Q98.79 -70.193 91.837 -73.18 Q84.883 -76.167 77.387 -76.167 Q69.891 -76.167 62.951 -73.18 Q56.01 -70.193 50.52 -65.026 Z M30.122 -85.302  22.323 -93.224 Q33.424 -104.087 47.589 -110.083 Q61.753 -116.079 77.374 -116.079 Q92.995 -116.079 107.22 -110.083 Q121.445 -104.087 132.4 -93.024 L124.194 -85.14 Q114.837 -94.636 102.749 -99.781 Q90.661 -104.925 77.309 -104.925 Q63.957 -104.925 51.799 -99.781 Q39.641 -94.636 30.122 -85.302 Z M62.32 27.882 H92.642 V-40.853 H62.32 V27.882 Z"/></g><g id="Regular-L" transform="matrix(1 0 0 1 1378.56 1556)"><path d="M50.471 41.041 V-52.161 H104.49 V41.041 H50.471 Z M77.377 -17.976 Q80.382 -17.976 82.519 -20.021 Q84.656 -22.067 84.656 -25.262 Q84.656 -28.135 82.56 -30.392 Q80.465 -32.65 77.43 -32.65 Q74.259 -32.65 72.121 -30.442 Q69.983 -28.235 69.983 -25.163 Q69.983 -22.227 72.178 -20.102 Q74.373 -17.976 77.377 -17.976 Z M49.826 -64.255  41.602 -72.479 Q48.859 -79.574 58.082 -83.524 Q67.305 -87.475 77.432 -87.475 Q87.559 -87.475 96.75 -83.524 Q105.941 -79.574 113.198 -72.479 L104.974 -64.255 Q99.33 -69.576 92.222 -72.64 Q85.115 -75.704 77.387 -75.704 Q69.66 -75.704 62.565 -72.64 Q55.47 -69.576 49.826 -64.255 Z M28.541 -85.379  20.317 -93.764 Q31.766 -105.051 46.49 -111.259 Q61.213 -117.468 77.374 -117.468 Q93.535 -117.468 108.319 -111.24 Q123.103 -105.013 134.483 -93.602 L125.775 -85.217 Q116.1 -95.054 103.593 -100.375 Q91.085 -105.696 77.309 -105.696 Q63.532 -105.696 50.955 -100.375 Q38.377 -95.054 28.541 -85.379 Z M62.242 29.27 H92.719 V-40.39 H62.242 V29.27 Z"/></g><g id="Light-L" transform="matrix(1 0 0 1 1082.77 1556)"><path d="M52.084 39.429 V-50.549 H102.877 V39.429 H52.084 Z M77.377 -18.969 Q79.918 -18.969 81.791 -20.743 Q83.664 -22.517 83.664 -25.239 Q83.664 -27.639 81.816 -29.586 Q79.969 -31.534 77.444 -31.534 Q74.783 -31.534 72.941 -29.622 Q71.099 -27.711 71.099 -25.149 Q71.099 -22.723 72.994 -20.846 Q74.889 -18.969 77.377 -18.969 Z M50.571 -65.868  43.959 -72.479 Q50.844 -78.829 59.446 -82.346 Q68.049 -85.862 77.432 -85.862 Q86.814 -85.862 95.386 -82.346 Q103.956 -78.829 110.841 -72.479 L104.229 -65.868 Q98.648 -70.755 91.757 -73.601 Q84.867 -76.448 77.387 -76.448 Q69.908 -76.448 63.03 -73.601 Q56.152 -70.755 50.571 -65.868 Z M29.223 -86.991  22.674 -93.764 Q33.751 -104.369 47.854 -110.112 Q61.957 -115.855 77.374 -115.855 Q92.729 -115.855 106.893 -110.062 Q121.056 -104.269 132.126 -93.602 L125.217 -86.83 Q115.48 -96.294 103.183 -101.367 Q90.886 -106.441 77.333 -106.441 Q63.781 -106.441 51.42 -101.336 Q39.06 -96.232 29.223 -86.991 Z M61.498 30.014 H93.463 V-41.134 H61.498 V30.014 Z"/></g><g id="Thin-L" transform="matrix(1 0 0 1 787.282 1556)"><path d="M53.696 37.816 V-48.936 H101.265 V37.816 H53.696 Z M77.377 -19.961 Q79.454 -19.961 81.063 -21.464 Q82.672 -22.968 82.672 -25.217 Q82.672 -27.143 81.072 -28.78 Q79.472 -30.417 77.457 -30.417 Q75.307 -30.417 73.761 -28.802 Q72.215 -27.187 72.215 -25.135 Q72.215 -23.219 73.81 -21.59 Q75.405 -19.961 77.377 -19.961 Z M51.315 -67.48  46.316 -72.479 Q52.828 -78.085 60.81 -81.168 Q68.793 -84.25 77.432 -84.25 Q86.07 -84.25 94.021 -81.168 Q101.972 -78.085 108.484 -72.479 L103.485 -67.48 Q97.966 -71.933 91.292 -74.563 Q84.619 -77.192 77.387 -77.192 Q70.156 -77.192 63.495 -74.563 Q56.834 -71.933 51.315 -67.48 Z M29.906 -88.604  25.031 -93.764 Q35.735 -103.687 49.218 -108.965 Q62.701 -114.242 77.374 -114.242 Q91.923 -114.242 105.466 -108.884 Q119.01 -103.524 129.769 -93.602 L124.659 -88.442 Q114.86 -97.535 102.773 -102.36 Q90.686 -107.185 77.357 -107.185 Q64.029 -107.185 51.885 -102.298 Q39.742 -97.41 29.906 -88.604 Z M60.754 30.758 H94.207 V-41.878 H60.754 V30.758 Z"/></g><g id="Ultralight-L" transform="matrix(1 0 0 1 491.205 1556)"><path d="M54.664 36.849 V-47.969 H100.297 V36.849 H54.664 Z M77.377 -20.556 Q79.176 -20.556 80.626 -21.897 Q82.076 -23.238 82.076 -25.203 Q82.076 -26.845 80.625 -28.296 Q79.175 -29.747 77.466 -29.747 Q75.622 -29.747 74.253 -28.31 Q72.885 -26.872 72.885 -25.127 Q72.885 -23.517 74.3 -22.037 Q75.714 -20.556 77.377 -20.556 Z M51.761 -68.447  47.73 -72.479 Q54.019 -77.639 61.629 -80.461 Q69.24 -83.282 77.432 -83.282 Q85.624 -83.282 93.203 -80.461 Q100.781 -77.639 107.07 -72.479 L103.039 -68.447 Q97.556 -72.64 91.013 -75.139 Q84.47 -77.639 77.387 -77.639 Q70.305 -77.639 63.774 -75.139 Q57.244 -72.64 51.761 -68.447 Z M30.315 -89.571  26.445 -93.764 Q36.926 -103.277 50.037 -108.276 Q63.148 -113.275 77.374 -113.275 Q91.439 -113.275 104.61 -108.176 Q117.782 -103.078 128.355 -93.602 L124.324 -89.41 Q114.487 -98.279 102.527 -102.955 Q90.566 -107.631 77.372 -107.631 Q64.177 -107.631 52.164 -102.874 Q40.151 -98.117 30.315 -89.571 Z M60.308 31.205 H94.654 V-42.325 H60.308 V31.205 Z"/></g><g id="Bold-M" transform="matrix(1 0 0 1 2281.8 1126)"><path d="M35 26.77 V-50.605 H85 V26.77 H35 Z M60.014 -17.73 Q62.75 -17.73 64.625 -19.612 Q66.5 -21.495 66.5 -24.221 Q66.5 -26.855 64.611 -28.792 Q62.722 -30.73 59.986 -30.73 Q57.25 -30.73 55.375 -28.801 Q53.5 -26.873 53.5 -24.176 Q53.5 -21.48 55.389 -19.605 Q57.278 -17.73 60.014 -17.73 Z M40.75 -56.355  33 -64.23 Q38.386 -69.687 45.397 -72.646 Q52.408 -75.605 60.016 -75.605 Q67.625 -75.605 74.62 -72.646 Q81.614 -69.687 87 -64.23 L79.25 -56.355 Q75.375 -60.23 70.375 -62.292 Q65.375 -64.355 60 -64.355 Q54.625 -64.355 49.625 -62.292 Q44.625 -60.23 40.75 -56.355 Z M25.125 -72.105  16.875 -80.23 Q25.625 -88.73 36.663 -93.417 Q47.702 -98.105 60 -98.105 Q72.298 -98.105 83.337 -93.48 Q94.375 -88.855 102.875 -80.105 L94.875 -72.105 Q88.03 -79.251 78.988 -83.053 Q69.946 -86.855 59.973 -86.855 Q50 -86.855 40.985 -83.053 Q31.97 -79.251 25.125 -72.105 Z M52 9.77 H68 V-33.73 H52 V9.77 Z"/></g><g id="Semibold-M" transform="matrix(1 0 0 1 1985.97 1126)"><path d="M36.359 27.314 V-48.812 H83.641 V27.314 H36.359 Z M60.004 -17.73 Q62.804 -17.73 64.734 -19.66 Q66.663 -21.589 66.663 -24.384 Q66.663 -27.127 64.73 -29.091 Q62.796 -31.056 59.996 -31.056 Q57.196 -31.056 55.266 -29.1 Q53.337 -27.144 53.337 -24.366 Q53.337 -21.589 55.27 -19.659 Q57.204 -17.73 60.004 -17.73 Z M39.772 -55.268  31.37 -63.741 Q37.077 -69.543 44.498 -72.683 Q51.919 -75.822 60.016 -75.822 Q68.114 -75.822 75.519 -72.683 Q82.923 -69.543 88.63 -63.741 L80.228 -55.268 Q76.136 -59.36 70.918 -61.532 Q65.701 -63.703 60 -63.703 Q54.299 -63.703 49.081 -61.532 Q43.864 -59.36 39.772 -55.268 Z M22.897 -72.214  14.049 -80.991 Q23.288 -90.089 35.115 -95.075 Q46.941 -100.061 60 -100.061 Q73.059 -100.061 84.885 -95.11 Q96.712 -90.159 105.81 -80.92 L97.103 -72.214 Q89.811 -79.84 80.177 -83.891 Q70.543 -87.942 59.973 -87.942 Q49.402 -87.942 39.796 -83.891 Q30.189 -79.84 22.897 -72.214 Z M51.728 11.944 H68.272 V-33.513 H51.728 V11.944 Z"/></g><g id="Medium-M" transform="matrix(1 0 0 1 1689.91 1126)"><path d="M37.378 27.721 V-47.466 H82.622 V27.721 H37.378 Z M59.997 -17.73 Q62.845 -17.73 64.815 -19.695 Q66.785 -21.66 66.785 -24.506 Q66.785 -27.33 64.819 -29.316 Q62.852 -31.301 60.003 -31.301 Q57.155 -31.301 55.185 -29.324 Q53.215 -27.348 53.215 -24.509 Q53.215 -21.67 55.181 -19.7 Q57.148 -17.73 59.997 -17.73 Z M39.038 -54.453  30.147 -63.374 Q36.095 -69.434 43.823 -72.71 Q51.552 -75.985 60.016 -75.985 Q68.481 -75.985 76.193 -72.71 Q83.905 -69.434 89.853 -63.374 L80.962 -54.453 Q76.707 -58.708 71.326 -60.961 Q65.946 -63.214 60 -63.214 Q54.054 -63.214 48.674 -60.961 Q43.294 -58.708 39.038 -54.453 Z M21.226 -72.295  11.929 -81.561 Q21.535 -91.108 33.953 -96.318 Q46.37 -101.529 60 -101.529 Q73.63 -101.529 86.047 -96.333 Q98.465 -91.138 108.011 -81.532 L98.774 -72.295 Q91.146 -80.281 81.069 -84.519 Q70.992 -88.757 59.973 -88.757 Q48.954 -88.757 38.904 -84.519 Q28.854 -80.281 21.226 -72.295 Z M51.525 13.574 H68.475 V-33.35 H51.525 V13.574 Z"/></g><g id="Regular-M" transform="matrix(1 0 0 1 1394.06 1126)"><path d="M38.125 28.02 V-46.48 H81.875 V28.02 H38.125 Z M59.991 -17.73 Q62.875 -17.73 64.875 -19.721 Q66.875 -21.712 66.875 -24.596 Q66.875 -27.48 64.884 -29.48 Q62.893 -31.48 60.009 -31.48 Q57.125 -31.48 55.125 -29.489 Q53.125 -27.498 53.125 -24.614 Q53.125 -21.73 55.116 -19.73 Q57.107 -17.73 59.991 -17.73 Z M38.5 -53.855  29.25 -63.105 Q35.375 -69.355 43.329 -72.73 Q51.283 -76.105 60.016 -76.105 Q68.75 -76.105 76.688 -72.73 Q84.625 -69.355 90.75 -63.105 L81.5 -53.855 Q77.125 -58.23 71.625 -60.542 Q66.125 -62.855 60 -62.855 Q53.875 -62.855 48.375 -60.542 Q42.875 -58.23 38.5 -53.855 Z M20 -72.355  10.375 -81.98 Q20.25 -91.855 33.101 -97.23 Q45.952 -102.605 60 -102.605 Q74.048 -102.605 86.899 -97.23 Q99.75 -91.855 109.625 -81.98 L100 -72.355 Q92.125 -80.605 81.723 -84.98 Q71.321 -89.355 59.973 -89.355 Q48.625 -89.355 38.25 -84.98 Q27.875 -80.605 20 -72.355 Z M51.375 14.77 H68.625 V-33.23 H51.375 V14.77 Z"/></g><g id="Light-M" transform="matrix(1 0 0 1 1098.18 1126)"><path d="M39.375 26.77 V-45.23 H80.625 V26.77 H39.375 Z M59.991 -18.788 Q62.394 -18.788 64.106 -20.49 Q65.817 -22.193 65.817 -24.596 Q65.817 -26.999 64.115 -28.711 Q62.412 -30.422 60.009 -30.422 Q57.606 -30.422 55.894 -28.719 Q54.183 -27.017 54.183 -24.614 Q54.183 -22.211 55.886 -20.499 Q57.588 -18.788 59.991 -18.788 Z M38.596 -55.586  31.077 -63.105 Q36.914 -68.778 44.387 -71.816 Q51.86 -74.855 60.016 -74.855 Q68.173 -74.855 75.63 -71.816 Q83.086 -68.778 88.923 -63.105 L81.404 -55.586 Q76.981 -59.672 71.505 -61.889 Q66.029 -64.105 60 -64.105 Q53.971 -64.105 48.495 -61.889 Q43.019 -59.672 38.596 -55.586 Z M20 -74.086  12.202 -81.98 Q21.789 -91.326 34.159 -96.34 Q46.529 -101.355 60 -101.355 Q73.423 -101.355 85.793 -96.316 Q98.163 -91.278 107.798 -81.98 L100 -74.086 Q91.981 -82.095 81.627 -86.35 Q71.273 -90.605 59.973 -90.605 Q48.673 -90.605 38.346 -86.35 Q28.019 -82.095 20 -74.086 Z M50.125 16.02 H69.875 V-34.48 H50.125 V16.02 Z"/></g><g id="Thin-M" transform="matrix(1 0 0 1 802.565 1126)"><path d="M40.625 25.52 V-43.98 H79.375 V25.52 H40.625 Z M59.991 -19.845 Q61.913 -19.845 63.337 -21.26 Q64.76 -22.674 64.76 -24.596 Q64.76 -26.518 63.345 -27.941 Q61.931 -29.365 60.009 -29.365 Q58.087 -29.365 56.663 -27.95 Q55.24 -26.536 55.24 -24.614 Q55.24 -22.691 56.655 -21.268 Q58.069 -19.845 59.991 -19.845 Z M38.692 -57.316  32.904 -63.105 Q38.452 -68.201 45.444 -70.903 Q52.437 -73.605 60.016 -73.605 Q67.596 -73.605 74.572 -70.903 Q81.548 -68.201 87.096 -63.105 L81.308 -57.316 Q76.837 -61.115 71.385 -63.235 Q65.933 -65.355 60 -65.355 Q54.067 -65.355 48.615 -63.235 Q43.163 -61.115 38.692 -57.316 Z M20 -75.816  14.029 -81.98 Q23.327 -90.797 35.216 -95.451 Q47.106 -100.105 60 -100.105 Q72.798 -100.105 84.688 -95.403 Q96.577 -90.701 105.971 -81.98 L100 -75.816 Q91.837 -83.586 81.531 -87.72 Q71.225 -91.855 59.973 -91.855 Q48.721 -91.855 38.442 -87.72 Q28.163 -83.586 20 -75.816 Z M48.875 17.27 H71.125 V-35.73 H48.875 V17.27 Z"/></g><g id="Ultralight-M" transform="matrix(1 0 0 1 506.415 1126)"><path d="M41.375 24.77 V-43.23 H78.625 V24.77 H41.375 Z M59.991 -20.48 Q61.625 -20.48 62.875 -21.721 Q64.125 -22.962 64.125 -24.596 Q64.125 -26.23 62.884 -27.48 Q61.643 -28.73 60.009 -28.73 Q58.375 -28.73 57.125 -27.489 Q55.875 -26.248 55.875 -24.614 Q55.875 -22.98 57.116 -21.73 Q58.357 -20.48 59.991 -20.48 Z M38.75 -58.355  34 -63.105 Q39.375 -67.855 46.079 -70.355 Q52.783 -72.855 60.016 -72.855 Q67.25 -72.855 73.938 -70.355 Q80.625 -67.855 86 -63.105 L81.25 -58.355 Q76.75 -61.98 71.312 -64.042 Q65.875 -66.105 60 -66.105 Q54.125 -66.105 48.688 -64.042 Q43.25 -61.98 38.75 -58.355 Z M20 -76.855  15.125 -81.98 Q24.25 -90.48 35.851 -94.917 Q47.452 -99.355 60 -99.355 Q72.423 -99.355 84.024 -94.855 Q95.625 -90.355 104.875 -81.98 L100 -76.855 Q91.75 -84.48 81.473 -88.542 Q71.196 -92.605 59.973 -92.605 Q48.75 -92.605 38.5 -88.542 Q28.25 -84.48 20 -76.855 Z M48.125 18.02 H71.875 V-36.48 H48.125 V18.02 Z"/></g><g id="Bold-S" transform="matrix(1 0 0 1 2294.23 696)"><path d="M29.193 12.899 V-44.994 H65.487 V12.899 H29.193 Z M47.34 -20.831 Q49.411 -20.831 50.841 -22.256 Q52.271 -23.68 52.271 -25.744 Q52.271 -27.734 50.841 -29.214 Q49.411 -30.693 47.34 -30.693 Q45.269 -30.693 43.839 -29.232 Q42.409 -27.771 42.409 -25.731 Q42.409 -23.691 43.839 -22.261 Q45.269 -20.831 47.34 -20.831 Z M32.645 -52.193  27.023 -57.914 Q31.022 -61.931 36.235 -64.114 Q41.448 -66.297 47.142 -66.297 Q52.835 -66.297 58.072 -64.012 Q63.309 -61.726 67.361 -57.618 L61.739 -51.898 Q58.879 -54.758 55.033 -56.484 Q51.186 -58.21 47.126 -58.21 Q43.066 -58.21 39.285 -56.632 Q35.505 -55.054 32.645 -52.193 Z M19.626 -65.311  13.808 -71.031 Q20.613 -77.639 29.131 -81.239 Q37.649 -84.838 47.143 -84.838 Q56.741 -84.838 65.355 -81.288 Q73.969 -77.737 80.577 -70.834 L74.758 -65.015 Q69.259 -70.653 62.124 -73.702 Q54.99 -76.751 47.121 -76.751 Q39.253 -76.751 32.14 -73.802 Q25.027 -70.852 19.626 -65.311 Z M41.817 0.275 H52.863 V-32.468 H41.817 V0.275 Z"/></g><g id="Semibold-S" transform="matrix(1 0 0 1 1998.1 696)"><path d="M30.265 13.328 V-43.579 H64.415 V13.328 H30.265 Z M47.332 -20.831 Q49.454 -20.831 50.927 -22.293 Q52.4 -23.755 52.4 -25.873 Q52.4 -27.949 50.935 -29.45 Q49.47 -30.951 47.348 -30.951 Q45.226 -30.951 43.753 -29.468 Q42.28 -27.985 42.28 -25.881 Q42.28 -23.777 43.745 -22.304 Q45.21 -20.831 47.332 -20.831 Z M31.873 -51.336  25.737 -57.528 Q29.99 -61.817 35.526 -64.143 Q41.062 -66.468 47.142 -66.468 Q53.221 -66.468 58.781 -64.04 Q64.342 -61.612 68.647 -57.232 L62.511 -51.04 Q59.479 -54.072 55.462 -55.883 Q51.444 -57.695 47.126 -57.695 Q42.808 -57.695 38.857 -56.031 Q34.905 -54.368 31.873 -51.336 Z M17.868 -65.396  11.578 -71.631 Q18.769 -78.711 27.909 -82.546 Q37.048 -86.382 47.143 -86.382 Q57.342 -86.382 66.577 -82.574 Q75.812 -78.766 82.892 -71.477 L76.516 -65.101 Q70.663 -71.117 63.062 -74.363 Q55.461 -77.609 47.121 -77.609 Q38.781 -77.609 31.202 -74.463 Q23.622 -71.317 17.868 -65.396 Z M41.603 1.99 H53.077 V-32.297 H41.603 V1.99 Z"/></g><g id="Medium-S" transform="matrix(1 0 0 1 1701.85 696)"><path d="M31.069 13.649 V-42.517 H63.611 V13.649 H31.069 Z M47.326 -20.831 Q49.486 -20.831 50.991 -22.321 Q52.496 -23.811 52.496 -25.969 Q52.496 -28.11 51.005 -29.627 Q49.514 -31.143 47.354 -31.143 Q45.194 -31.143 43.689 -29.645 Q42.184 -28.146 42.184 -25.993 Q42.184 -23.841 43.675 -22.336 Q45.166 -20.831 47.326 -20.831 Z M31.294 -50.693  24.772 -57.238 Q29.215 -61.731 34.994 -64.164 Q40.773 -66.597 47.142 -66.597 Q53.511 -66.597 59.313 -64.062 Q65.116 -61.527 69.612 -56.942 L63.09 -50.397 Q59.93 -53.557 55.783 -55.433 Q51.637 -57.309 47.126 -57.309 Q42.615 -57.309 38.535 -55.581 Q34.454 -53.853 31.294 -50.693 Z M16.55 -65.461  9.905 -72.081 Q17.386 -79.515 26.992 -83.527 Q36.598 -87.54 47.143 -87.54 Q57.792 -87.54 67.494 -83.539 Q77.195 -79.538 84.629 -71.959 L77.834 -65.165 Q71.717 -71.466 63.766 -74.859 Q55.815 -78.252 47.121 -78.252 Q38.427 -78.252 30.498 -74.958 Q22.569 -71.665 16.55 -65.461 Z M41.442 3.277 H53.238 V-32.168 H41.442 V3.277 Z"/></g><g id="Regular-S" transform="matrix(1 0 0 1 1405.73 696)"><path d="M31.659 13.885 V-41.739 H63.021 V13.885 H31.659 Z M47.322 -20.831 Q49.51 -20.831 51.038 -22.341 Q52.567 -23.852 52.567 -26.04 Q52.567 -28.228 51.056 -29.756 Q49.546 -31.285 47.358 -31.285 Q45.17 -31.285 43.642 -29.774 Q42.113 -28.264 42.113 -26.076 Q42.113 -23.888 43.624 -22.359 Q45.134 -20.831 47.322 -20.831 Z M30.87 -50.221  24.065 -57.026 Q28.647 -61.669 34.604 -64.18 Q40.561 -66.691 47.142 -66.691 Q53.723 -66.691 59.704 -64.078 Q65.684 -61.464 70.32 -56.73 L63.515 -49.925 Q60.26 -53.18 56.019 -55.103 Q51.778 -57.026 47.126 -57.026 Q42.474 -57.026 38.299 -55.251 Q34.124 -53.476 30.87 -50.221 Z M15.583 -65.508  8.679 -72.412 Q16.372 -80.104 26.32 -84.247 Q36.268 -88.389 47.143 -88.389 Q58.122 -88.389 68.166 -84.247 Q78.21 -80.104 85.902 -72.313 L78.801 -65.212 Q72.489 -71.721 64.282 -75.222 Q56.075 -78.724 47.121 -78.724 Q38.168 -78.724 29.982 -75.322 Q21.796 -71.92 15.583 -65.508 Z M41.324 4.22 H53.356 V-32.074 H41.324 V4.22 Z"/></g><g id="Light-S" transform="matrix(1 0 0 1 1109.75 696)"><path d="M32.645 12.899 V-40.753 H62.035 V12.899 H32.645 Z M47.322 -21.665 Q49.13 -21.665 50.431 -22.948 Q51.733 -24.231 51.733 -26.04 Q51.733 -27.848 50.45 -29.149 Q49.167 -30.45 47.358 -30.45 Q45.55 -30.45 44.249 -29.167 Q42.947 -27.884 42.947 -26.076 Q42.947 -24.267 44.23 -22.966 Q45.513 -21.665 47.322 -21.665 Z M30.945 -51.587  25.506 -57.026 Q29.861 -61.213 35.438 -63.459 Q41.016 -65.705 47.142 -65.705 Q53.268 -65.705 58.869 -63.357 Q64.47 -61.009 68.878 -56.73 L63.439 -51.291 Q60.146 -54.318 55.924 -56.165 Q51.702 -58.012 47.126 -58.012 Q42.55 -58.012 38.394 -56.313 Q34.238 -54.614 30.945 -51.587 Z M15.583 -66.874  10.121 -72.412 Q17.586 -79.687 27.154 -83.545 Q36.723 -87.403 47.143 -87.403 Q57.629 -87.403 67.293 -83.526 Q76.958 -79.649 84.461 -72.313 L78.801 -66.578 Q72.376 -72.897 64.206 -76.304 Q56.037 -79.71 47.121 -79.71 Q38.206 -79.71 30.058 -76.403 Q21.91 -73.096 15.583 -66.874 Z M40.338 5.206 H54.342 V-33.06 H40.338 V5.206 Z"/></g><g id="Thin-S" transform="matrix(1 0 0 1 814.015 696)"><path d="M33.631 11.913 V-39.767 H61.049 V11.913 H33.631 Z M47.322 -22.5 Q48.751 -22.5 49.825 -23.555 Q50.898 -24.611 50.898 -26.04 Q50.898 -27.469 49.843 -28.542 Q48.787 -29.616 47.358 -29.616 Q45.929 -29.616 44.855 -28.56 Q43.782 -27.505 43.782 -26.076 Q43.782 -24.647 44.837 -23.573 Q45.893 -22.5 47.322 -22.5 Z M31.021 -52.952  26.947 -57.026 Q31.075 -60.758 36.273 -62.739 Q41.471 -64.719 47.142 -64.719 Q52.813 -64.719 58.035 -62.636 Q63.257 -60.554 67.437 -56.73 L63.363 -52.656 Q60.032 -55.456 55.829 -57.227 Q51.626 -58.999 47.126 -58.999 Q42.626 -58.999 38.489 -57.375 Q34.352 -55.752 31.021 -52.952 Z M15.583 -68.239  11.562 -72.412 Q18.799 -79.27 27.989 -82.843 Q37.178 -86.416 47.143 -86.416 Q57.136 -86.416 66.421 -82.805 Q75.706 -79.194 83.019 -72.313 L78.801 -67.943 Q72.262 -74.073 64.13 -77.385 Q55.999 -80.696 47.121 -80.696 Q38.244 -80.696 30.134 -77.484 Q22.024 -74.272 15.583 -68.239 Z M39.351 6.193 H55.329 V-34.046 H39.351 V6.193 Z"/></g><g id="Ultralight-S" transform="matrix(1 0 0 1 517.792 696)"><path d="M34.223 11.321 V-39.175 H60.457 V11.321 H34.223 Z M47.322 -23 Q48.524 -23 49.46 -23.919 Q50.397 -24.838 50.397 -26.04 Q50.397 -27.241 49.478 -28.178 Q48.56 -29.115 47.358 -29.115 Q46.157 -29.115 45.22 -28.196 Q44.283 -27.277 44.283 -26.076 Q44.283 -24.874 45.202 -23.937 Q46.12 -23 47.322 -23 Z M31.067 -53.771  27.812 -57.026 Q31.803 -60.485 36.774 -62.306 Q41.744 -64.127 47.142 -64.127 Q52.54 -64.127 57.534 -62.204 Q62.528 -60.281 66.572 -56.73 L63.317 -53.476 Q59.964 -56.138 55.772 -57.864 Q51.581 -59.59 47.126 -59.59 Q42.671 -59.59 38.546 -58.012 Q34.42 -56.434 31.067 -53.771 Z M15.583 -69.058  12.427 -72.412 Q19.528 -79.019 28.49 -82.422 Q37.451 -85.825 47.143 -85.825 Q56.84 -85.825 65.898 -82.373 Q74.955 -78.921 82.155 -72.313 L78.801 -68.762 Q72.194 -74.779 64.085 -78.033 Q55.976 -81.288 47.121 -81.288 Q38.267 -81.288 30.179 -78.133 Q22.092 -74.978 15.583 -69.058 Z M38.76 6.784 H55.92 V-34.638 H38.76 V6.784 Z"/></g></g></svg>