<svg xmlns="http://www.w3.org/2000/svg" version="1.1" width="3300" height="2000"><g id="Notes"><style>
    text {
      font-family: monospace;
      text-anchor: middle;
    }
    text.emphasis {
      font-weight:bold;
    }
    text.lanchor {
      text-anchor: start;
    }
  </style><rect height="2200" id="artboard" fill="white" width="3300" x="0" y="0"/><line id="" style="fill:none;stroke:black;stroke-width:0.5;" x1="263" x2="3036" y1="292" y2="292"/><text class="lanchor emphasis" transform="matrix(1 0 0 1 263 322)">Weight/Scale Variations</text><text transform="matrix(1 0 0 1 559.711 322)">Ultralight</text><text transform="matrix(1 0 0 1 856.422 322)">Thin</text><text transform="matrix(1 0 0 1 1153.13 322)">Light</text><text transform="matrix(1 0 0 1 1449.84 322)">Regular</text><text transform="matrix(1 0 0 1 1746.56 322)">Medium</text><text transform="matrix(1 0 0 1 2043.27 322)">Semibold</text><text transform="matrix(1 0 0 1 2339.98 322)">Bold</text><text transform="matrix(1 0 0 1 2636.69 322)">Heavy</text><text transform="matrix(1 0 0 1 2933.4 322)">Black</text><text id="template-version" style="text-anchor: end;" transform="matrix(1 0 0 1 3036 1933)">Template v.1.0</text><text class="lanchor" transform="matrix(1 0 0 1 263 726)">Small</text><text class="lanchor" transform="matrix(1 0 0 1 263 1156)">Medium</text><text class="lanchor" transform="matrix(1 0 0 1 263 1586)">Large</text></g><g id="Guides"><g id="H-reference" style="fill:#27AAE1;stroke:none;" transform="matrix(1 0 0 1 339 696)"><path d="M 54.9316 0 L 57.666 0 L 30.5664 -70.459 L 28.0762 -70.459 L 0.976562 0 L 3.66211 0 L 12.9395 -24.4629 L 45.7031 -24.4629 Z M 29.1992 -67.0898 L 29.4434 -67.0898 L 44.8242 -26.709 L 13.8184 -26.709 Z"/></g><line id="Baseline-S" style="fill:none;stroke:#27AAE1;opacity:1;stroke-width:0.577;" x1="263" x2="3036" y1="696" y2="696"/><line id="Capline-S" style="fill:none;stroke:#27AAE1;opacity:1;stroke-width:0.577;" x1="263" x2="3036" y1="625.541" y2="625.541"/><g id="H-reference" style="fill:#27AAE1;stroke:none;" transform="matrix(1 0 0 1 339 1126)"><path d="M 54.9316 0 L 57.666 0 L 30.5664 -70.459 L 28.0762 -70.459 L 0.976562 0 L 3.66211 0 L 12.9395 -24.4629 L 45.7031 -24.4629 Z M 29.1992 -67.0898 L 29.4434 -67.0898 L 44.8242 -26.709 L 13.8184 -26.709 Z"/></g><line id="Baseline-M" style="fill:none;stroke:#27AAE1;opacity:1;stroke-width:0.577;" x1="263" x2="3036" y1="1126" y2="1126"/><line id="Capline-M" style="fill:none;stroke:#27AAE1;opacity:1;stroke-width:0.577;" x1="263" x2="3036" y1="1055.54" y2="1055.54"/><g id="H-reference" style="fill:#27AAE1;stroke:none;" transform="matrix(1 0 0 1 339 1556)"><path d="M 54.9316 0 L 57.666 0 L 30.5664 -70.459 L 28.0762 -70.459 L 0.976562 0 L 3.66211 0 L 12.9395 -24.4629 L 45.7031 -24.4629 Z M 29.1992 -67.0898 L 29.4434 -67.0898 L 44.8242 -26.709 L 13.8184 -26.709 Z"/></g><line id="Baseline-L" style="fill:none;stroke:#27AAE1;opacity:1;stroke-width:0.577;" x1="263" x2="3036" y1="1556" y2="1556"/><line id="Capline-L" style="fill:none;stroke:#27AAE1;opacity:1;stroke-width:0.577;" x1="263" x2="3036" y1="1485.54" y2="1485.54"/><rect height="119.336" id="left-margin" style="fill:darkred;stroke:none;opacity:0.4;" width="12.4512" x="1394.06" y="1030.79"/><rect height="119.336" id="right-margin" style="fill:darkgreen;stroke:none;opacity:0.4;" width="12.4512" x="1502.5112" y="1030.79"/><rect x="1406.5112" y="1045" width="96" height="96" fill="none" stroke="blue" stroke-dasharray="5"/><rect x="1394.06" y="1030.79" width="120.9024" height="119.336" fill="none" stroke="blue"/></g><g id="Symbols"><g id="Bold-L" transform="matrix(1 0 0 1 2266 1556)"><path d="M22.388 -54.257 Q20.015 -54.257 18.675 -55.822 Q17.334 -57.387 17.334 -59.822 Q17.334 -62.189 18.675 -63.746 Q20.015 -65.303 22.414 -65.303 H46.359 Q50.734 -65.303 53.667 -62.038 Q56.599 -58.772 57.486 -54.257 H22.388 Z M36.793 6.453 Q44.424 6.453 49.705 1.257 Q54.986 -3.938 54.986 -11.602 Q54.986 -19.266 49.741 -24.547 Q44.495 -29.828 36.841 -29.828 Q29.186 -29.828 23.946 -24.599 Q18.705 -19.371 18.705 -11.659 Q18.705 -3.947 23.934 1.253 Q29.163 6.453 36.793 6.453 Z M126.7 8.227 Q131.419 8.227 134.684 4.929 Q137.949 1.631 137.949 -2.999 Q137.949 -7.495 134.663 -10.841 Q131.376 -14.187 126.681 -14.187 Q121.986 -14.187 118.68 -10.822 Q115.374 -7.457 115.374 -2.88 Q115.374 1.696 118.678 4.962 Q121.981 8.227 126.7 8.227 Z M36.922 -2.335 Q33.056 -2.335 30.355 -5.114 Q27.654 -7.893 27.654 -11.754 Q27.654 -15.709 30.324 -18.375 Q32.994 -21.04 36.855 -21.04 Q40.716 -21.04 43.457 -18.384 Q46.198 -15.728 46.198 -11.813 Q46.198 -7.898 43.493 -5.117 Q40.787 -2.335 36.922 -2.335 Z M130.129 -27.014 Q133.835 -26.435 136.969 -24.9 Q140.102 -23.365 143.271 -20.314 V-62.562 Q143.271 -69.078 138.947 -73.278 Q134.624 -77.477 128.379 -77.477 H87.125 L79.496 -84.814 L89.01 -94.409 L83.689 -99.891 L59.017 -75.381 L64.419 -69.818 L73.818 -79.251 L81.431 -72.214 V-54.016 Q81.431 -48.293 77.386 -43.818 Q73.341 -39.342 67.725 -39.342 H54.261 Q58.614 -36.601 60.724 -34.533 Q62.834 -32.466 65.468 -28.296 H67.725 Q77.742 -28.296 85.109 -35.986 Q92.477 -43.676 92.477 -54.016 V-64.336 H130.129 Q130.129 -64.336 130.129 -64.336 Q130.129 -64.336 130.129 -64.336 V-27.014 Z M102.843 -6.124 Q103.761 -10.833 105.012 -13.437 Q106.264 -16.041 109.408 -19.266 H68.934 Q69.741 -15.301 69.821 -12.688 Q69.902 -10.075 69.418 -6.124 H102.843 Z M126.768 21.208 Q116.746 21.208 109.65 14.272 Q102.555 7.336 102.555 -2.475 Q102.555 -12.687 109.757 -19.927 Q116.959 -27.167 127.148 -27.167 Q136.936 -27.167 143.933 -20.011 Q150.93 -12.854 150.93 -2.962 Q150.93 7.103 143.86 14.155 Q136.789 21.208 126.768 21.208 Z M36.439 21.208 Q22.729 21.208 13.34 11.624 Q3.951 2.04 3.951 -11.628 Q3.951 -25.296 13.552 -34.939 Q23.153 -44.582 36.8 -44.582 Q50.446 -44.582 60.093 -34.96 Q69.741 -25.338 69.741 -11.616 Q69.741 2.107 60.106 11.657 Q50.472 21.208 36.439 21.208 Z"/></g><g id="Semibold-L" transform="matrix(1 0 0 1 1970.27 1556)"><path d="M22.96 -54.257 Q20.814 -54.257 19.565 -55.731 Q18.316 -57.205 18.316 -59.401 Q18.316 -61.56 19.565 -63.046 Q20.814 -64.532 22.975 -64.532 H46.92 Q51.085 -64.532 53.947 -61.512 Q56.809 -58.492 57.696 -54.257 H22.96 Z M37.004 6.453 Q45.09 6.453 50.739 0.882 Q56.388 -4.689 56.388 -12.819 Q56.388 -20.949 50.775 -26.58 Q45.161 -32.212 37.051 -32.212 Q28.941 -32.212 23.332 -26.622 Q17.723 -21.032 17.723 -12.876 Q17.723 -4.719 23.32 0.867 Q28.917 6.453 37.004 6.453 Z M126.485 7.456 Q131.349 7.456 134.754 4.04 Q138.16 0.625 138.16 -4.174 Q138.16 -8.897 134.758 -12.348 Q131.355 -15.799 126.495 -15.799 Q121.635 -15.799 118.224 -12.346 Q114.814 -8.892 114.814 -4.124 Q114.814 0.645 118.218 4.05 Q121.622 7.456 126.485 7.456 Z M37.111 -2.756 Q32.916 -2.756 29.97 -5.732 Q27.023 -8.709 27.023 -12.9 Q27.023 -17.186 29.938 -20.094 Q32.854 -23.003 37.045 -23.003 Q41.236 -23.003 44.208 -20.116 Q47.18 -17.229 47.18 -12.984 Q47.18 -8.739 44.243 -5.748 Q41.306 -2.756 37.111 -2.756 Z M130.199 -26.941 Q133.554 -26.294 136.168 -25.025 Q138.781 -23.756 141.658 -21.226 V-63.193 Q141.658 -68.66 138.055 -72.157 Q134.453 -75.655 129.22 -75.655 H87.004 L79.286 -83.202 L88.94 -92.937 L84.74 -97.297 L60.98 -73.629 L65.261 -69.187 L74.799 -78.761 L82.553 -71.443 V-54.016 Q82.553 -47.873 78.227 -43.222 Q73.901 -38.571 67.795 -38.571 H55.312 Q58.965 -36.04 60.783 -34.032 Q62.6 -32.025 64.907 -28.296 H67.795 Q77.952 -28.296 85.39 -35.986 Q92.827 -43.676 92.827 -54.016 V-64.195 H130.199 Q130.199 -64.195 130.199 -64.195 Q130.199 -64.195 130.199 -64.195 V-26.941 Z M103.913 -7.737 Q104.812 -11.884 105.959 -14.173 Q107.105 -16.462 109.689 -19.266 H68.163 Q68.759 -15.792 68.805 -13.494 Q68.85 -11.197 68.437 -7.737 H103.913 Z M126.557 18.824 Q116.993 18.824 110.265 12.23 Q103.537 5.636 103.537 -3.692 Q103.537 -13.421 110.397 -20.294 Q117.258 -27.167 126.963 -27.167 Q136.268 -27.167 142.898 -20.378 Q149.528 -13.588 149.528 -4.154 Q149.528 5.453 142.825 12.139 Q136.121 18.824 126.557 18.824 Z M36.674 18.824 Q23.468 18.824 14.41 9.581 Q5.353 0.339 5.353 -12.845 Q5.353 -26.029 14.605 -35.306 Q23.858 -44.582 37.01 -44.582 Q50.162 -44.582 59.46 -35.316 Q68.759 -26.049 68.759 -12.832 Q68.759 0.386 59.481 9.605 Q50.202 18.824 36.674 18.824 Z"/></g><g id="Medium-L" transform="matrix(1 0 0 1 1674.31 1556)"><path d="M23.389 -54.257 Q21.414 -54.257 20.233 -55.663 Q19.052 -57.068 19.052 -59.086 Q19.052 -61.088 20.233 -62.521 Q21.414 -63.953 23.395 -63.953 H47.341 Q51.348 -63.953 54.157 -61.118 Q56.967 -58.282 57.854 -54.257 H23.389 Z M37.162 6.453 Q45.59 6.453 51.515 0.601 Q57.44 -5.252 57.44 -13.731 Q57.44 -22.211 51.55 -28.105 Q45.661 -34 37.209 -34 Q28.757 -34 22.872 -28.139 Q16.987 -22.279 16.987 -13.788 Q16.987 -5.297 22.86 0.578 Q28.733 6.453 37.162 6.453 Z M126.325 6.877 Q131.296 6.877 134.807 3.373 Q138.318 -0.131 138.318 -5.056 Q138.318 -9.949 134.829 -13.479 Q131.34 -17.009 126.356 -17.009 Q121.372 -17.009 117.882 -13.489 Q114.393 -9.969 114.393 -5.056 Q114.393 -0.144 117.873 3.367 Q121.353 6.877 126.325 6.877 Z M37.253 -3.071 Q32.811 -3.071 29.68 -6.196 Q26.55 -9.322 26.55 -13.76 Q26.55 -18.293 29.649 -21.384 Q32.748 -24.475 37.187 -24.475 Q41.626 -24.475 44.771 -21.415 Q47.916 -18.355 47.916 -13.863 Q47.916 -9.37 44.806 -6.221 Q41.696 -3.071 37.253 -3.071 Z M130.251 -26.885 Q133.344 -26.189 135.567 -25.119 Q137.789 -24.05 140.449 -21.909 V-63.666 Q140.449 -68.345 137.387 -71.316 Q134.324 -74.288 129.851 -74.288 H86.914 L79.128 -81.992 L88.887 -91.832 L85.529 -95.352 L62.453 -72.314 L65.892 -68.714 L75.536 -78.392 L83.394 -70.864 V-54.016 Q83.394 -47.557 78.858 -42.775 Q74.322 -37.992 67.848 -37.992 H56.101 Q59.228 -35.619 60.826 -33.657 Q62.425 -31.695 64.486 -28.296 H67.848 Q78.11 -28.296 85.6 -35.986 Q93.09 -43.676 93.09 -54.016 V-64.09 H130.251 Q130.251 -64.09 130.251 -64.09 Q130.251 -64.09 130.251 -64.09 V-26.885 Z M104.715 -8.946 Q105.601 -12.673 106.669 -14.725 Q107.736 -16.777 109.899 -19.266 H67.585 Q68.023 -16.16 68.042 -14.099 Q68.062 -12.038 67.7 -8.946 H104.715 Z M126.4 17.036 Q117.179 17.036 110.726 10.698 Q104.273 4.36 104.273 -4.605 Q104.273 -13.972 110.877 -20.57 Q117.482 -27.167 126.825 -27.167 Q135.767 -27.167 142.122 -20.653 Q148.476 -14.139 148.476 -5.048 Q148.476 4.216 142.048 10.626 Q135.62 17.036 126.4 17.036 Z M36.85 17.036 Q24.023 17.036 15.214 8.049 Q6.404 -0.937 6.404 -13.758 Q6.404 -26.579 15.396 -35.581 Q24.387 -44.582 37.167 -44.582 Q49.948 -44.582 58.986 -35.583 Q68.023 -26.583 68.023 -13.744 Q68.023 -0.905 59.011 8.066 Q50 17.036 36.85 17.036 Z"/></g><g id="Regular-L" transform="matrix(1 0 0 1 1378.56 1556)"><path d="M23.704 -54.257 Q21.853 -54.257 20.723 -55.613 Q19.592 -56.968 19.592 -58.855 Q19.592 -60.742 20.723 -62.135 Q21.853 -63.529 23.704 -63.529 H47.649 Q51.54 -63.529 54.312 -60.828 Q57.083 -58.127 57.969 -54.257 H23.704 Z M37.277 6.453 Q45.956 6.453 52.084 0.394 Q58.211 -5.664 58.211 -14.4 Q58.211 -23.136 52.119 -29.223 Q46.027 -35.311 37.325 -35.311 Q28.622 -35.311 22.535 -29.252 Q16.448 -23.193 16.448 -14.457 Q16.448 -5.721 22.523 0.366 Q28.598 6.453 37.277 6.453 Z M126.207 6.453 Q131.257 6.453 134.845 2.884 Q138.433 -0.685 138.433 -5.702 Q138.433 -10.72 134.881 -14.308 Q131.329 -17.896 126.254 -17.896 Q121.179 -17.896 117.632 -14.327 Q114.084 -10.758 114.084 -5.74 Q114.084 -0.722 117.62 2.865 Q121.156 6.453 126.207 6.453 Z M37.358 -3.302 Q32.734 -3.302 29.468 -6.537 Q26.203 -9.771 26.203 -14.391 Q26.203 -19.105 29.437 -22.33 Q32.671 -25.555 37.291 -25.555 Q41.912 -25.555 45.184 -22.368 Q48.456 -19.181 48.456 -14.507 Q48.456 -9.833 45.219 -6.568 Q41.982 -3.302 37.358 -3.302 Z M130.29 -26.845 Q133.19 -26.112 135.126 -25.188 Q137.062 -24.265 139.562 -22.411 V-64.013 Q139.562 -68.115 136.896 -70.7 Q134.231 -73.285 130.314 -73.285 H86.848 L79.013 -81.106 L88.849 -91.022 L86.108 -93.925 L63.532 -71.35 L66.354 -68.367 L76.075 -78.122 L84.011 -70.44 V-54.016 Q84.011 -47.326 79.321 -42.447 Q74.631 -37.568 67.886 -37.568 H56.679 Q59.421 -35.311 60.858 -33.381 Q62.296 -31.452 64.177 -28.296 H67.886 Q78.225 -28.296 85.754 -35.986 Q93.283 -43.676 93.283 -54.016 V-64.013 H130.29 Q130.29 -64.013 130.29 -64.013 Q130.29 -64.013 130.29 -64.013 V-26.845 Z M105.303 -9.833 Q106.18 -13.252 107.189 -15.13 Q108.199 -17.009 110.053 -19.266 H67.161 Q67.483 -16.43 67.483 -14.543 Q67.483 -12.655 67.161 -9.833 H105.303 Z M126.284 15.725 Q117.315 15.725 111.064 9.575 Q104.812 3.425 104.812 -5.275 Q104.812 -14.376 111.229 -20.772 Q117.646 -27.167 126.723 -27.167 Q135.399 -27.167 141.552 -20.855 Q147.705 -14.543 147.705 -5.703 Q147.705 3.309 141.479 9.517 Q135.253 15.725 126.284 15.725 Z M36.979 15.725 Q24.429 15.725 15.803 6.926 Q7.176 -1.873 7.176 -14.428 Q7.176 -26.982 15.975 -35.782 Q24.774 -44.582 37.283 -44.582 Q49.792 -44.582 58.638 -35.778 Q67.483 -26.974 67.483 -14.413 Q67.483 -1.851 58.667 6.937 Q49.851 15.725 36.979 15.725 Z"/></g><g id="Light-L" transform="matrix(1 0 0 1 1082.77 1556)"><path d="M23.301 -53.513 Q21.763 -53.513 20.926 -54.523 Q20.088 -55.533 20.088 -56.99 Q20.088 -58.447 20.926 -59.515 Q21.763 -60.583 23.301 -60.583 H46.347 Q49.544 -60.583 51.933 -58.549 Q54.322 -56.515 55.426 -53.513 H23.301 Z M36.768 6.422 Q45.584 6.422 51.82 0.274 Q58.056 -5.874 58.056 -14.769 Q58.056 -23.663 51.862 -29.844 Q45.668 -36.024 36.819 -36.024 Q27.971 -36.024 21.79 -29.876 Q15.61 -23.728 15.61 -14.833 Q15.61 -5.938 21.781 0.242 Q27.952 6.422 36.768 6.422 Z M126.163 6.422 Q131.568 6.422 135.435 2.583 Q139.301 -1.256 139.301 -6.695 Q139.301 -12.072 135.47 -15.93 Q131.639 -19.787 126.207 -19.787 Q120.714 -19.787 116.903 -15.948 Q113.092 -12.109 113.092 -6.733 Q113.092 -1.294 116.894 2.564 Q120.696 6.422 126.163 6.422 Z M36.835 -5.287 Q32.889 -5.287 30.104 -8.055 Q27.32 -10.823 27.32 -14.778 Q27.32 -18.826 30.087 -21.57 Q32.853 -24.315 36.806 -24.315 Q40.733 -24.315 43.54 -21.594 Q46.347 -18.873 46.347 -14.865 Q46.347 -10.857 43.564 -8.072 Q40.782 -5.287 36.835 -5.287 Z M129.887 -26.628 Q132.021 -26.06 133.477 -25.403 Q134.933 -24.746 136.957 -23.496 V-61.997 Q136.957 -65.962 134.331 -68.507 Q131.705 -71.052 127.926 -71.052 H88.89 L81.338 -78.656 L90.958 -88.387 L87.751 -91.692 L65.052 -68.993 L68.401 -65.638 L77.954 -75.207 L85.593 -67.758 V-54.171 Q85.593 -46.917 80.391 -41.576 Q75.189 -36.235 67.855 -36.235 H55.346 Q57.405 -34.349 58.543 -32.934 Q59.681 -31.519 61.231 -29.165 H67.855 Q78.047 -29.165 85.355 -36.616 Q92.663 -44.067 92.663 -54.171 V-63.982 H127.902 Q128.739 -63.982 129.313 -63.393 Q129.887 -62.804 129.887 -61.997 V-26.628 Z M106.606 -11.291 Q107.296 -13.841 108.069 -15.253 Q108.841 -16.665 110.146 -18.46 H64.897 Q65.095 -16.302 65.095 -14.898 Q65.095 -13.494 64.897 -11.291 H106.606 Z M126.208 13.492 Q117.782 13.492 111.902 7.683 Q106.022 1.873 106.022 -6.391 Q106.022 -14.929 111.993 -20.893 Q117.963 -26.857 126.491 -26.857 Q134.747 -26.857 140.559 -20.902 Q146.371 -14.946 146.371 -6.665 Q146.371 1.789 140.502 7.641 Q134.633 13.492 126.208 13.492 Z M36.522 13.492 Q24.715 13.492 16.627 5.245 Q8.54 -3.002 8.54 -14.8 Q8.54 -26.598 16.769 -34.846 Q24.998 -43.094 36.783 -43.094 Q48.537 -43.094 56.832 -34.841 Q65.126 -26.588 65.126 -14.781 Q65.126 -2.974 56.874 5.259 Q48.622 13.492 36.522 13.492 Z"/></g><g id="Thin-L" transform="matrix(1 0 0 1 787.282 1556)"><path d="M22.898 -52.769 Q21.674 -52.769 21.129 -53.434 Q20.584 -54.099 20.584 -55.126 Q20.584 -56.152 21.129 -56.895 Q21.674 -57.638 22.898 -57.638 H45.045 Q47.547 -57.638 49.555 -56.27 Q51.563 -54.902 52.884 -52.769 H22.898 Z M36.259 6.391 Q45.212 6.391 51.557 0.154 Q57.901 -6.084 57.901 -15.137 Q57.901 -24.191 51.605 -30.464 Q45.309 -36.737 36.314 -36.737 Q27.319 -36.737 21.046 -30.5 Q14.773 -24.262 14.773 -15.209 Q14.773 -6.155 21.04 0.118 Q27.307 6.391 36.259 6.391 Z M126.119 6.391 Q131.878 6.391 136.024 2.282 Q140.17 -1.827 140.17 -7.687 Q140.17 -13.423 136.059 -17.551 Q131.949 -21.679 126.161 -21.679 Q120.249 -21.679 116.174 -17.57 Q112.1 -13.461 112.1 -7.725 Q112.1 -1.865 116.168 2.263 Q120.236 6.391 126.119 6.391 Z M36.313 -7.272 Q33.044 -7.272 30.74 -9.574 Q28.436 -11.876 28.436 -15.164 Q28.436 -18.547 30.736 -20.811 Q33.035 -23.074 36.321 -23.074 Q39.555 -23.074 41.897 -20.819 Q44.238 -18.564 44.238 -15.222 Q44.238 -11.88 41.91 -9.576 Q39.581 -7.272 36.313 -7.272 Z M129.484 -26.411 Q130.852 -26.008 131.828 -25.617 Q132.804 -25.226 134.352 -24.581 V-59.982 Q134.352 -63.808 131.766 -66.314 Q129.18 -68.82 125.538 -68.82 H90.932 L83.664 -76.206 L93.066 -85.751 L89.394 -89.46 L66.571 -66.637 L70.448 -62.909 L79.832 -72.293 L87.174 -65.077 V-54.326 Q87.174 -46.509 81.461 -40.705 Q75.747 -34.901 67.824 -34.901 H54.013 Q55.389 -33.388 56.228 -32.486 Q57.066 -31.585 58.286 -30.033 H67.824 Q77.868 -30.033 84.955 -37.245 Q92.043 -44.457 92.043 -54.326 V-63.951 H125.515 Q127.189 -63.951 128.336 -62.773 Q129.484 -61.594 129.484 -59.982 V-26.411 Z M107.908 -12.748 Q108.412 -14.43 108.948 -15.375 Q109.483 -16.321 110.239 -17.654 H62.633 Q62.708 -16.173 62.708 -15.254 Q62.708 -14.334 62.633 -12.748 H107.908 Z M126.131 11.26 Q118.25 11.26 112.741 5.791 Q107.231 0.322 107.231 -7.508 Q107.231 -15.482 112.756 -21.014 Q118.281 -26.547 126.26 -26.547 Q134.095 -26.547 139.567 -20.948 Q145.038 -15.349 145.038 -7.626 Q145.038 0.27 139.525 5.765 Q134.013 11.26 126.131 11.26 Z M36.066 11.26 Q25 11.26 17.452 3.565 Q9.904 -4.13 9.904 -15.172 Q9.904 -26.214 17.563 -33.91 Q25.221 -41.606 36.283 -41.606 Q47.282 -41.606 55.026 -33.903 Q62.77 -26.201 62.77 -15.149 Q62.77 -4.096 55.081 3.582 Q47.393 11.26 36.066 11.26 Z"/></g><g id="Ultralight-L" transform="matrix(1 0 0 1 491.205 1556)"><path d="M22.656 -52.322 Q21.62 -52.322 21.251 -52.781 Q20.882 -53.239 20.882 -54.007 Q20.882 -54.775 21.251 -55.323 Q21.62 -55.87 22.656 -55.87 H44.263 Q46.349 -55.87 48.128 -54.902 Q49.907 -53.935 51.358 -52.322 H22.656 Z M35.954 6.373 Q44.989 6.373 51.398 0.081 Q57.808 -6.21 57.808 -15.358 Q57.808 -24.507 51.451 -30.836 Q45.093 -37.165 36.011 -37.165 Q26.929 -37.165 20.6 -30.874 Q14.271 -24.583 14.271 -15.434 Q14.271 -6.286 20.595 0.043 Q26.919 6.373 35.954 6.373 Z M126.093 6.373 Q132.064 6.373 136.377 2.101 Q140.691 -2.169 140.691 -8.282 Q140.691 -14.234 136.413 -18.524 Q132.135 -22.814 126.133 -22.814 Q119.97 -22.814 115.737 -18.543 Q111.504 -14.272 111.504 -8.32 Q111.504 -2.207 115.733 2.083 Q119.96 6.373 126.093 6.373 Z M35.999 -8.462 Q33.137 -8.462 31.121 -10.485 Q29.106 -12.507 29.106 -15.396 Q29.106 -18.379 31.125 -20.355 Q33.145 -22.33 36.03 -22.33 Q38.848 -22.33 40.91 -20.355 Q42.973 -18.379 42.973 -15.437 Q42.973 -12.494 40.917 -10.478 Q38.861 -8.462 35.999 -8.462 Z M129.242 -26.281 Q130.15 -25.977 130.838 -25.746 Q131.526 -25.515 132.789 -25.232 V-58.772 Q132.789 -62.517 130.227 -64.998 Q127.665 -67.48 124.106 -67.48 H92.158 L85.059 -74.736 L94.331 -84.169 L90.381 -88.12 L67.483 -65.222 L71.676 -61.272 L80.959 -70.544 L88.123 -63.468 V-54.419 Q88.123 -46.264 82.103 -40.182 Q76.082 -34.101 67.806 -34.101 H53.212 Q54.18 -32.811 54.838 -32.218 Q55.497 -31.625 56.518 -30.554 H67.806 Q77.761 -30.554 84.716 -37.622 Q91.671 -44.691 91.671 -54.419 V-63.932 H124.082 Q126.259 -63.932 127.75 -62.401 Q129.242 -60.869 129.242 -58.772 V-26.281 Z M108.689 -13.622 Q109.082 -14.783 109.476 -15.449 Q109.869 -16.114 110.295 -17.17 H61.275 Q61.275 -16.096 61.275 -15.467 Q61.275 -14.838 61.275 -13.622 H108.689 Z M126.085 9.92 Q118.53 9.92 113.243 4.656 Q107.957 -0.608 107.957 -8.177 Q107.957 -15.813 113.214 -21.087 Q118.472 -26.361 126.121 -26.361 Q133.704 -26.361 138.971 -20.976 Q144.238 -15.591 144.238 -8.203 Q144.238 -0.642 138.939 4.639 Q133.64 9.92 126.085 9.92 Z M35.792 9.92 Q25.171 9.92 17.947 2.557 Q10.723 -4.807 10.723 -15.395 Q10.723 -25.983 18.039 -33.348 Q25.355 -40.712 35.982 -40.712 Q46.529 -40.712 53.942 -33.341 Q61.356 -25.969 61.356 -15.369 Q61.356 -4.77 54.005 2.575 Q46.655 9.92 35.792 9.92 Z"/></g><g id="Bold-M" transform="matrix(1 0 0 1 2281.8 1126)"><path d="M19.062 -49.98 Q16.637 -49.98 15.037 -51.58 Q13.438 -53.18 13.438 -55.618 Q13.438 -58.003 15.037 -59.617 Q16.637 -61.23 19.062 -61.23 H33.938 Q38.43 -61.23 41.309 -57.855 Q44.188 -54.48 44.312 -49.98 H19.062 Z M29.805 -5.605 Q34.875 -5.605 38.344 -9.066 Q41.812 -12.528 41.812 -17.598 Q41.812 -22.667 38.351 -26.136 Q34.89 -29.605 29.82 -29.605 Q24.75 -29.605 21.281 -26.144 Q17.812 -22.682 17.812 -17.612 Q17.812 -12.542 21.274 -9.074 Q24.735 -5.605 29.805 -5.605 Z M97.438 -3.73 Q100.25 -3.73 102.156 -5.673 Q104.062 -7.616 104.062 -10.392 Q104.062 -13.167 102.12 -15.074 Q100.177 -16.98 97.401 -16.98 Q94.625 -16.98 92.656 -15.037 Q90.688 -13.094 90.688 -10.318 Q90.688 -7.542 92.656 -5.636 Q94.625 -3.73 97.438 -3.73 Z M29.805 -12.23 Q27.562 -12.23 26.062 -13.8 Q24.562 -15.37 24.562 -17.612 Q24.562 -19.855 26.048 -21.417 Q27.533 -22.98 29.776 -22.98 Q32.018 -22.98 33.603 -21.41 Q35.188 -19.84 35.188 -17.598 Q35.188 -15.355 33.618 -13.792 Q32.048 -12.23 29.805 -12.23 Z M99.312 -30.174 Q103.248 -29.599 106.374 -28.071 Q109.5 -26.542 112.562 -23.23 V-53.605 Q112.562 -59.844 108.12 -64.287 Q103.677 -68.73 97.438 -68.73 H68.83 L63.938 -73.73 L70.375 -80.167 L64.438 -86.355 L44.812 -66.855 L51.062 -60.792 L57.562 -67.355 L62.438 -62.73 V-50.105 Q62.438 -46.752 60.239 -44.241 Q58.041 -41.73 54.688 -41.73 H42.25 Q46.75 -39.23 49.031 -36.949 Q51.312 -34.667 53.688 -30.48 H54.688 Q62.625 -30.48 68.156 -36.261 Q73.688 -42.042 73.688 -50.105 V-55.48 H99.312 Q99.312 -55.48 99.312 -55.48 Q99.312 -55.48 99.312 -55.48 V-30.174 Z M77.625 -11.98 Q78.31 -16.505 79.53 -19.242 Q80.75 -21.98 84.25 -25.23 H55.875 Q56.812 -21.406 56.938 -18.599 Q57.062 -15.792 56.375 -11.98 H77.625 Z M97.424 9.52 Q89.184 9.52 83.373 3.695 Q77.562 -2.129 77.562 -10.369 Q77.562 -18.609 83.387 -24.419 Q89.212 -30.23 97.451 -30.23 Q105.691 -30.23 111.502 -24.405 Q117.312 -18.581 117.312 -10.341 Q117.312 -2.101 111.488 3.709 Q105.663 9.52 97.424 9.52 Z M29.813 9.52 Q18.557 9.52 10.622 1.586 Q2.688 -6.348 2.688 -17.604 Q2.688 -28.861 10.621 -36.795 Q18.555 -44.73 29.812 -44.73 Q41.068 -44.73 49.003 -36.796 Q56.938 -28.862 56.938 -17.606 Q56.938 -6.349 49.004 1.585 Q41.07 9.52 29.813 9.52 Z"/></g><g id="Semibold-M" transform="matrix(1 0 0 1 1985.97 1126)"><path d="M19.66 -49.98 Q17.42 -49.98 15.945 -51.455 Q14.47 -52.93 14.47 -55.183 Q14.47 -57.407 15.945 -58.911 Q17.42 -60.415 19.66 -60.415 H34.535 Q38.756 -60.415 41.58 -57.311 Q44.405 -54.208 44.53 -49.98 H19.66 Z M30.023 -5.605 Q35.581 -5.605 39.431 -9.447 Q43.28 -13.289 43.28 -18.847 Q43.28 -24.406 39.438 -28.256 Q35.596 -32.105 30.037 -32.105 Q24.478 -32.105 20.629 -28.263 Q16.78 -24.421 16.78 -18.862 Q16.78 -13.303 20.622 -9.454 Q24.464 -5.605 30.023 -5.605 Z M97.223 -4.545 Q100.196 -4.545 102.238 -6.611 Q104.28 -8.677 104.28 -11.629 Q104.28 -14.58 102.214 -16.622 Q100.148 -18.665 97.196 -18.665 Q94.245 -18.665 92.167 -16.599 Q90.09 -14.532 90.09 -11.581 Q90.09 -8.629 92.17 -6.587 Q94.251 -4.545 97.223 -4.545 Z M30.032 -12.665 Q27.454 -12.665 25.682 -14.47 Q23.91 -16.274 23.91 -18.853 Q23.91 -21.431 25.667 -23.238 Q27.424 -25.045 30.003 -25.045 Q32.581 -25.045 34.401 -23.24 Q36.22 -21.435 36.22 -18.857 Q36.22 -16.279 34.415 -14.472 Q32.61 -12.665 30.032 -12.665 Z M99.367 -30.117 Q102.922 -29.545 105.559 -28.261 Q108.196 -26.977 110.932 -24.154 V-54.257 Q110.932 -59.465 107.224 -63.174 Q103.515 -66.882 98.307 -66.882 H68.722 L63.72 -72.045 L70.321 -78.646 L65.524 -83.692 L46.823 -65.062 L51.932 -60.14 L58.595 -66.866 L63.633 -61.969 V-50.105 Q63.633 -46.371 61.081 -43.643 Q58.53 -40.915 54.796 -40.915 H43.337 Q47.13 -38.578 49.113 -36.405 Q51.095 -34.233 53.144 -30.48 H54.796 Q62.788 -30.48 68.428 -36.261 Q74.068 -42.042 74.068 -50.105 V-55.317 H99.367 Q99.367 -55.317 99.367 -55.317 Q99.367 -55.317 99.367 -55.317 V-30.117 Z M78.712 -13.665 Q79.397 -17.592 80.508 -19.976 Q81.62 -22.36 84.522 -25.23 H55.114 Q55.834 -21.896 55.905 -19.442 Q55.976 -16.988 55.397 -13.665 H78.712 Z M97.206 7.02 Q89.484 7.02 84.04 1.562 Q78.595 -3.897 78.595 -11.619 Q78.595 -19.341 84.054 -24.785 Q89.512 -30.23 97.234 -30.23 Q104.956 -30.23 110.4 -24.771 Q115.845 -19.313 115.845 -11.591 Q115.845 -3.869 110.387 1.576 Q104.928 7.02 97.206 7.02 Z M30.031 7.02 Q19.293 7.02 11.724 -0.548 Q4.155 -8.116 4.155 -18.854 Q4.155 -29.592 11.723 -37.161 Q19.291 -44.73 30.029 -44.73 Q40.767 -44.73 48.336 -37.162 Q55.905 -29.594 55.905 -18.856 Q55.905 -8.118 48.337 -0.549 Q40.769 7.02 30.031 7.02 Z"/></g><g id="Medium-M" transform="matrix(1 0 0 1 1689.91 1126)"><path d="M20.109 -49.98 Q18.007 -49.98 16.626 -51.361 Q15.245 -52.742 15.245 -54.857 Q15.245 -56.959 16.626 -58.381 Q18.007 -59.803 20.109 -59.803 H34.984 Q39 -59.803 41.784 -56.904 Q44.568 -54.004 44.693 -49.98 H20.109 Z M30.186 -5.605 Q36.111 -5.605 40.246 -9.732 Q44.38 -13.859 44.38 -19.785 Q44.38 -25.711 40.253 -29.845 Q36.126 -33.98 30.2 -33.98 Q24.274 -33.98 20.14 -29.853 Q16.006 -25.726 16.006 -19.8 Q16.006 -13.874 20.133 -9.739 Q24.26 -5.605 30.186 -5.605 Z M97.063 -5.157 Q100.155 -5.157 102.299 -7.315 Q104.443 -9.473 104.443 -12.557 Q104.443 -15.64 102.284 -17.784 Q100.126 -19.928 97.043 -19.928 Q93.959 -19.928 91.8 -17.77 Q89.641 -15.611 89.641 -12.528 Q89.641 -9.445 91.806 -7.301 Q93.97 -5.157 97.063 -5.157 Z M30.202 -12.991 Q27.372 -12.991 25.397 -14.972 Q23.421 -16.953 23.421 -19.783 Q23.421 -22.613 25.382 -24.604 Q27.343 -26.594 30.173 -26.594 Q33.003 -26.594 34.999 -24.613 Q36.995 -22.632 36.995 -19.802 Q36.995 -16.972 35.014 -14.981 Q33.032 -12.991 30.202 -12.991 Z M99.408 -30.074 Q102.677 -29.504 104.947 -28.404 Q107.217 -27.303 109.709 -24.847 V-54.746 Q109.709 -59.181 106.551 -62.338 Q103.394 -65.496 98.959 -65.496 H68.64 L63.557 -70.782 L70.28 -77.504 L66.34 -81.695 L48.331 -63.716 L52.584 -59.651 L59.37 -66.499 L64.53 -61.398 V-50.105 Q64.53 -46.086 61.713 -43.195 Q58.897 -40.303 54.878 -40.303 H44.152 Q47.416 -38.089 49.174 -35.998 Q50.932 -33.907 52.736 -30.48 H54.878 Q62.91 -30.48 68.632 -36.261 Q74.353 -42.042 74.353 -50.105 V-55.195 H99.408 Q99.408 -55.195 99.408 -55.195 Q99.408 -55.195 99.408 -55.195 V-30.074 Z M79.527 -14.928 Q80.212 -18.407 81.242 -20.526 Q82.272 -22.646 84.725 -25.23 H54.544 Q55.1 -22.262 55.13 -20.074 Q55.16 -17.885 54.663 -14.928 H79.527 Z M97.043 5.145 Q89.71 5.145 84.54 -0.039 Q79.37 -5.223 79.37 -12.556 Q79.37 -19.89 84.553 -25.06 Q89.737 -30.23 97.071 -30.23 Q104.404 -30.23 109.575 -25.046 Q114.745 -19.862 114.745 -12.529 Q114.745 -5.195 109.561 -0.025 Q104.377 5.145 97.043 5.145 Z M30.194 5.145 Q19.845 5.145 12.55 -2.149 Q5.255 -9.443 5.255 -19.792 Q5.255 -30.14 12.549 -37.435 Q19.843 -44.73 30.192 -44.73 Q40.541 -44.73 47.836 -37.436 Q55.13 -30.142 55.13 -19.793 Q55.13 -9.445 47.837 -2.15 Q40.542 5.145 30.194 5.145 Z"/></g><g id="Regular-M" transform="matrix(1 0 0 1 1394.06 1126)"><path d="M20.438 -49.98 Q18.438 -49.98 17.125 -51.292 Q15.812 -52.605 15.812 -54.618 Q15.812 -56.631 17.125 -57.993 Q18.438 -59.355 20.438 -59.355 H35.312 Q39.18 -59.355 41.934 -56.605 Q44.688 -53.855 44.812 -49.98 H20.438 Z M30.305 -5.605 Q36.5 -5.605 40.844 -9.941 Q45.188 -14.278 45.188 -20.473 Q45.188 -26.667 40.851 -31.011 Q36.515 -35.355 30.32 -35.355 Q24.125 -35.355 19.781 -31.019 Q15.438 -26.682 15.438 -20.487 Q15.438 -14.292 19.774 -9.949 Q24.11 -5.605 30.305 -5.605 Z M96.945 -5.605 Q100.125 -5.605 102.344 -7.831 Q104.562 -10.057 104.562 -13.237 Q104.562 -16.417 102.336 -18.636 Q100.11 -20.855 96.93 -20.855 Q93.75 -20.855 91.531 -18.629 Q89.312 -16.403 89.312 -13.223 Q89.312 -10.042 91.539 -7.824 Q93.765 -5.605 96.945 -5.605 Z M30.327 -13.23 Q27.312 -13.23 25.188 -15.34 Q23.062 -17.451 23.062 -20.465 Q23.062 -23.48 25.173 -25.605 Q27.283 -27.73 30.298 -27.73 Q33.312 -27.73 35.438 -25.62 Q37.562 -23.509 37.562 -20.495 Q37.562 -17.48 35.452 -15.355 Q33.342 -13.23 30.327 -13.23 Z M99.438 -30.042 Q102.498 -29.474 104.499 -28.508 Q106.5 -27.542 108.812 -25.355 V-55.105 Q108.812 -58.972 106.059 -61.726 Q103.305 -64.48 99.438 -64.48 H68.58 L63.438 -69.855 L70.25 -76.667 L66.938 -80.23 L49.438 -62.73 L53.062 -59.292 L59.938 -66.23 L65.188 -60.98 V-50.105 Q65.188 -45.877 62.177 -42.866 Q59.166 -39.855 54.938 -39.855 H44.75 Q47.625 -37.73 49.219 -35.699 Q50.812 -33.667 52.438 -30.48 H54.938 Q63 -30.48 68.781 -36.261 Q74.562 -42.042 74.562 -50.105 V-55.105 H99.438 Q99.438 -55.105 99.438 -55.105 Q99.438 -55.105 99.438 -55.105 V-30.042 Z M80.125 -15.855 Q80.81 -19.005 81.78 -20.93 Q82.75 -22.855 84.875 -25.23 H54.125 Q54.562 -22.531 54.562 -20.537 Q54.562 -18.542 54.125 -15.855 H80.125 Z M96.924 3.77 Q89.875 3.77 84.906 -1.213 Q79.938 -6.195 79.938 -13.244 Q79.938 -20.292 84.92 -25.261 Q89.903 -30.23 96.951 -30.23 Q104 -30.23 108.969 -25.247 Q113.938 -20.265 113.938 -13.216 Q113.938 -6.167 108.955 -1.199 Q103.972 3.77 96.924 3.77 Z M30.313 3.77 Q20.25 3.77 13.156 -3.323 Q6.062 -10.416 6.062 -20.479 Q6.062 -30.542 13.155 -37.636 Q20.248 -44.73 30.312 -44.73 Q40.375 -44.73 47.469 -37.637 Q54.562 -30.544 54.562 -20.481 Q54.562 -10.417 47.47 -3.324 Q40.377 3.77 30.313 3.77 Z"/></g><g id="Light-M" transform="matrix(1 0 0 1 1098.18 1126)"><path d="M19.596 -49.355 Q18.079 -49.355 17.114 -50.328 Q16.149 -51.301 16.149 -52.812 Q16.149 -54.323 17.114 -55.337 Q18.079 -56.35 19.596 -56.35 H34.784 Q37.835 -56.35 40.095 -54.333 Q42.356 -52.316 42.841 -49.355 H19.596 Z M29.577 -4.956 Q36.019 -4.956 40.543 -9.461 Q45.067 -13.965 45.067 -20.425 Q45.067 -26.884 40.553 -31.396 Q36.038 -35.908 29.589 -35.908 Q23.139 -35.908 18.627 -31.403 Q14.115 -26.899 14.115 -20.439 Q14.115 -13.98 18.625 -9.468 Q23.134 -4.956 29.577 -4.956 Z M97.055 -4.956 Q100.702 -4.956 103.305 -7.56 Q105.909 -10.163 105.909 -13.814 Q105.909 -17.465 103.298 -20.062 Q100.687 -22.658 97.038 -22.658 Q93.389 -22.658 90.798 -20.054 Q88.207 -17.45 88.207 -13.8 Q88.207 -10.149 90.808 -7.552 Q93.408 -4.956 97.055 -4.956 Z M29.583 -14.095 Q26.952 -14.095 25.103 -15.943 Q23.255 -17.791 23.255 -20.431 Q23.255 -23.071 25.102 -24.92 Q26.949 -26.768 29.588 -26.768 Q32.207 -26.768 34.067 -24.92 Q35.928 -23.072 35.928 -20.432 Q35.928 -17.792 34.071 -15.944 Q32.213 -14.095 29.583 -14.095 Z M99.462 -29.49 Q101.688 -29.049 103.18 -28.392 Q104.673 -27.735 106.457 -26.244 V-54.167 Q106.457 -57.687 103.95 -60.194 Q101.443 -62.701 97.923 -62.701 H69.827 L64.663 -68.1 L71.5 -74.961 L68.163 -78.499 L50.615 -60.951 L54.264 -57.513 L61.153 -64.451 L66.413 -59.201 V-50.129 Q66.413 -45.127 62.838 -41.566 Q59.262 -38.004 54.288 -38.004 H43.476 Q45.63 -36.312 46.823 -34.823 Q48.016 -33.334 49.336 -31.009 H54.288 Q62.188 -31.009 67.799 -36.619 Q73.409 -42.229 73.409 -50.129 V-55.706 H97.923 Q98.572 -55.706 99.017 -55.273 Q99.462 -54.84 99.462 -54.167 V-29.49 Z M81.519 -16.985 Q82.06 -19.269 82.774 -20.712 Q83.488 -22.156 84.995 -23.98 H51.745 Q52.038 -21.951 52.038 -20.475 Q52.038 -18.999 51.745 -16.985 H81.519 Z M97.033 2.039 Q90.43 2.039 85.821 -2.595 Q81.212 -7.229 81.212 -13.821 Q81.212 -20.413 85.835 -25.033 Q90.457 -29.653 97.06 -29.653 Q103.663 -29.653 108.284 -25.019 Q112.904 -20.385 112.904 -13.793 Q112.904 -7.201 108.27 -2.581 Q103.636 2.039 97.033 2.039 Z M29.592 2.039 Q20.231 2.039 13.675 -4.527 Q7.12 -11.094 7.12 -20.431 Q7.12 -29.768 13.675 -36.336 Q20.229 -42.903 29.59 -42.903 Q38.928 -42.903 45.495 -36.336 Q52.062 -29.77 52.062 -20.433 Q52.062 -11.095 45.496 -4.528 Q38.929 2.039 29.592 2.039 Z"/></g><g id="Thin-M" transform="matrix(1 0 0 1 802.565 1126)"><path d="M18.755 -48.73 Q17.721 -48.73 17.103 -49.363 Q16.486 -49.997 16.486 -51.006 Q16.486 -52.016 17.103 -52.681 Q17.721 -53.345 18.755 -53.345 H34.255 Q36.49 -53.345 38.257 -52.062 Q40.024 -50.778 40.87 -48.73 H18.755 Z M28.849 -4.307 Q35.538 -4.307 40.243 -8.98 Q44.947 -13.653 44.947 -20.376 Q44.947 -27.1 40.254 -31.78 Q35.562 -36.461 28.858 -36.461 Q22.154 -36.461 17.474 -31.788 Q12.793 -27.115 12.793 -20.391 Q12.793 -13.667 17.476 -8.987 Q22.159 -4.307 28.849 -4.307 Z M97.165 -4.307 Q101.279 -4.307 104.267 -7.288 Q107.255 -10.269 107.255 -14.391 Q107.255 -18.513 104.26 -21.487 Q101.264 -24.461 97.147 -24.461 Q93.029 -24.461 90.065 -21.479 Q87.101 -18.498 87.101 -14.376 Q87.101 -10.255 90.076 -7.281 Q93.052 -4.307 97.165 -4.307 Z M28.838 -14.961 Q26.591 -14.961 25.019 -16.546 Q23.447 -18.132 23.447 -20.397 Q23.447 -22.663 25.031 -24.235 Q26.615 -25.807 28.878 -25.807 Q31.101 -25.807 32.697 -24.221 Q34.293 -22.635 34.293 -20.37 Q34.293 -18.105 32.689 -16.533 Q31.085 -14.961 28.838 -14.961 Z M99.486 -28.937 Q100.878 -28.624 101.862 -28.276 Q102.846 -27.927 104.101 -27.134 V-53.23 Q104.101 -56.403 101.841 -58.663 Q99.582 -60.922 96.409 -60.922 H71.073 L65.889 -66.345 L72.75 -73.254 L69.389 -76.768 L51.793 -59.172 L55.466 -55.735 L62.369 -62.672 L67.639 -57.422 V-50.153 Q67.639 -44.378 63.499 -40.266 Q59.358 -36.153 53.639 -36.153 H42.202 Q43.635 -34.893 44.427 -33.947 Q45.22 -33.001 46.236 -31.538 H53.639 Q61.377 -31.538 66.816 -36.977 Q72.255 -42.416 72.255 -50.153 V-56.307 H96.409 Q97.707 -56.307 98.596 -55.441 Q99.486 -54.576 99.486 -53.23 V-28.937 Z M82.913 -18.115 Q83.31 -19.534 83.768 -20.495 Q84.227 -21.456 85.115 -22.73 H49.365 Q49.514 -21.371 49.514 -20.413 Q49.514 -19.456 49.365 -18.115 H82.913 Z M97.142 0.309 Q90.984 0.309 86.735 -3.977 Q82.486 -8.263 82.486 -14.398 Q82.486 -20.533 86.749 -24.804 Q91.012 -29.076 97.169 -29.076 Q103.327 -29.076 107.599 -24.791 Q111.87 -20.505 111.87 -14.37 Q111.87 -8.235 107.585 -3.963 Q103.299 0.309 97.142 0.309 Z M28.871 0.309 Q20.212 0.309 14.195 -5.731 Q8.178 -11.771 8.178 -20.383 Q8.178 -28.994 14.194 -35.035 Q20.21 -41.076 28.869 -41.076 Q37.481 -41.076 43.522 -35.036 Q49.562 -28.996 49.562 -20.385 Q49.562 -11.773 43.523 -5.732 Q37.483 0.309 28.871 0.309 Z"/></g><g id="Ultralight-M" transform="matrix(1 0 0 1 506.415 1126)"><path d="M18.25 -48.355 Q17.506 -48.355 17.097 -48.785 Q16.688 -49.215 16.688 -49.923 Q16.688 -50.631 17.097 -51.087 Q17.506 -51.542 18.25 -51.542 H33.938 Q35.684 -51.542 37.154 -50.699 Q38.625 -49.855 39.688 -48.355 H18.25 Z M28.412 -3.917 Q35.25 -3.917 40.062 -8.691 Q44.875 -13.465 44.875 -20.348 Q44.875 -27.23 40.075 -32.011 Q35.276 -36.792 28.419 -36.792 Q21.562 -36.792 16.781 -32.019 Q12 -27.245 12 -20.362 Q12 -13.48 16.787 -8.699 Q21.573 -3.917 28.412 -3.917 Z M97.232 -3.917 Q101.625 -3.917 104.844 -7.125 Q108.062 -10.333 108.062 -14.737 Q108.062 -19.141 104.836 -22.342 Q101.61 -25.542 97.211 -25.542 Q92.812 -25.542 89.625 -22.335 Q86.438 -19.127 86.438 -14.723 Q86.438 -10.318 89.638 -7.118 Q92.838 -3.917 97.232 -3.917 Z M28.392 -15.48 Q26.375 -15.48 24.969 -16.908 Q23.562 -18.337 23.562 -20.377 Q23.562 -22.417 24.989 -23.824 Q26.415 -25.23 28.452 -25.23 Q30.438 -25.23 31.875 -23.802 Q33.312 -22.373 33.312 -20.333 Q33.312 -18.292 31.86 -16.886 Q30.408 -15.48 28.392 -15.48 Z M99.5 -28.605 Q100.392 -28.369 101.071 -28.206 Q101.75 -28.042 102.688 -27.667 V-52.667 Q102.688 -55.632 100.576 -57.744 Q98.465 -59.855 95.5 -59.855 H71.821 L66.625 -65.292 L73.5 -72.23 L70.125 -75.73 L52.5 -58.105 L56.188 -54.667 L63.098 -61.605 L68.375 -56.355 V-50.167 Q68.375 -43.928 63.895 -39.485 Q59.416 -35.042 53.25 -35.042 H41.438 Q42.438 -34.042 42.99 -33.422 Q43.542 -32.801 44.375 -31.855 H53.25 Q60.89 -31.855 66.226 -37.191 Q71.562 -42.528 71.562 -50.167 V-56.667 H95.5 Q97.188 -56.667 98.344 -55.542 Q99.5 -54.417 99.5 -52.667 V-28.605 Z M83.75 -18.792 Q84.06 -19.692 84.365 -20.364 Q84.67 -21.037 85.188 -21.98 H47.938 Q48 -21.023 48 -20.376 Q48 -19.73 47.938 -18.792 H83.75 Z M97.207 -0.73 Q91.317 -0.73 87.284 -4.806 Q83.25 -8.883 83.25 -14.744 Q83.25 -20.605 87.297 -24.667 Q91.345 -28.73 97.235 -28.73 Q103.125 -28.73 107.188 -24.654 Q111.25 -20.577 111.25 -14.716 Q111.25 -8.855 107.174 -4.792 Q103.097 -0.73 97.207 -0.73 Z M28.438 -0.73 Q20.2 -0.73 14.506 -6.454 Q8.812 -12.178 8.812 -20.354 Q8.812 -28.53 14.505 -34.255 Q20.198 -39.98 28.437 -39.98 Q36.612 -39.98 42.337 -34.256 Q48.062 -28.532 48.062 -20.356 Q48.062 -12.18 42.338 -6.455 Q36.614 -0.73 28.438 -0.73 Z"/></g><g id="Bold-S" transform="matrix(1 0 0 1 2294.23 696)"><path d="M14.646 -49.235 Q12.9 -49.235 11.751 -50.378 Q10.602 -51.521 10.602 -53.268 Q10.602 -54.973 11.751 -56.148 Q12.9 -57.322 14.646 -57.322 H29.933 Q32.134 -57.322 33.45 -55.596 Q34.765 -53.87 34.963 -51.602 V-49.235 H14.646 Z M23.586 -14.223 Q27.615 -14.223 30.352 -17.011 Q33.089 -19.8 33.089 -23.882 Q33.089 -27.8 30.358 -30.48 Q27.627 -33.159 23.528 -33.159 Q19.429 -33.159 16.742 -30.485 Q14.054 -27.812 14.054 -23.894 Q14.054 -19.812 16.805 -17.017 Q19.557 -14.223 23.586 -14.223 Z M75.695 -12.743 Q78.407 -12.743 80.256 -14.622 Q82.105 -16.5 82.105 -19.183 Q82.105 -21.866 80.227 -23.716 Q78.349 -25.565 75.666 -25.565 Q72.983 -25.565 71.084 -23.687 Q69.185 -21.808 69.185 -19.125 Q69.185 -16.442 71.084 -14.593 Q72.983 -12.743 75.695 -12.743 Z M23.516 -20.633 Q22.24 -20.633 21.402 -21.527 Q20.563 -22.42 20.563 -23.697 Q20.563 -24.973 21.39 -25.861 Q22.217 -26.748 23.493 -26.748 Q24.769 -26.748 25.674 -25.855 Q26.579 -24.961 26.579 -23.685 Q26.579 -22.409 25.686 -21.521 Q24.793 -20.633 23.516 -20.633 Z M77.569 -35.087 Q80.082 -34.831 82.746 -33.576 Q85.409 -32.321 87.234 -30.2 V-50.517 Q87.234 -55.114 83.96 -58.388 Q80.686 -61.661 76.089 -61.661 H55.688 L50.151 -67.086 L54.737 -71.672 L49.46 -77.146 L34.568 -62.352 L39.894 -56.977 L44.529 -61.661 L50.052 -56.336 V-49.333 Q50.052 -47.013 48.549 -45.264 Q47.047 -43.514 44.726 -43.514 H30.87 Q34.519 -41.838 36.812 -40.038 Q39.105 -38.238 40.781 -35.427 H45.318 Q50.686 -35.427 54.413 -39.496 Q58.139 -43.564 58.139 -49.333 V-51.996 H77.569 Q77.569 -51.996 77.569 -51.996 Q77.569 -51.996 77.569 -51.996 V-35.087 Z M59.57 -18.464 Q59.518 -21.344 60.086 -23.602 Q60.654 -25.861 62.627 -28.129 H43.691 Q44.233 -25.901 44.184 -23.391 Q44.135 -20.88 43.592 -18.464 H59.57 Z M75.66 -3.078 Q68.985 -3.078 64.302 -7.796 Q59.619 -12.515 59.619 -19.189 Q59.619 -25.863 64.337 -30.547 Q69.055 -35.23 75.73 -35.23 Q82.404 -35.23 87.087 -30.491 Q91.771 -25.753 91.771 -19.049 Q91.771 -12.346 87.052 -7.712 Q82.334 -3.078 75.66 -3.078 Z M23.621 -3.078 Q14.937 -3.078 8.923 -9.165 Q2.909 -15.252 2.909 -23.887 Q2.909 -32.36 8.945 -38.332 Q14.98 -44.303 23.544 -44.303 Q32.107 -44.303 38.17 -38.332 Q44.233 -32.361 44.233 -23.889 Q44.233 -15.253 38.204 -9.166 Q32.175 -3.078 23.621 -3.078 Z"/></g><g id="Semibold-S" transform="matrix(1 0 0 1 1998.1 696)"><path d="M15.117 -49.235 Q13.518 -49.235 12.467 -50.279 Q11.417 -51.324 11.417 -52.925 Q11.417 -54.503 12.467 -55.591 Q13.518 -56.679 15.117 -56.679 H30.404 Q32.392 -56.679 33.664 -55.167 Q34.937 -53.656 35.134 -51.602 V-49.235 H15.117 Z M23.757 -14.223 Q28.172 -14.223 31.209 -17.312 Q34.246 -20.4 34.246 -24.868 Q34.246 -29.172 31.215 -32.152 Q28.184 -35.131 23.699 -35.131 Q19.215 -35.131 16.227 -32.158 Q13.239 -29.184 13.239 -24.88 Q13.239 -20.412 16.291 -17.317 Q19.342 -14.223 23.757 -14.223 Z M75.526 -13.387 Q78.364 -13.387 80.32 -15.362 Q82.277 -17.337 82.277 -20.159 Q82.277 -22.981 80.301 -24.937 Q78.326 -26.894 75.504 -26.894 Q72.682 -26.894 70.698 -24.919 Q68.714 -22.943 68.714 -20.121 Q68.714 -17.299 70.701 -15.343 Q72.687 -13.387 75.526 -13.387 Z M23.695 -20.977 Q22.154 -20.977 21.102 -22.055 Q20.049 -23.134 20.049 -24.675 Q20.049 -26.216 21.09 -27.297 Q22.131 -28.378 23.672 -28.378 Q25.213 -28.378 26.304 -27.299 Q27.394 -26.22 27.394 -24.679 Q27.394 -23.138 26.315 -22.057 Q25.236 -20.977 23.695 -20.977 Z M77.611 -35.042 Q79.825 -34.788 82.102 -33.726 Q84.38 -32.664 85.947 -30.929 V-51.031 Q85.947 -54.815 83.253 -57.509 Q80.559 -60.204 76.775 -60.204 H55.602 L49.979 -65.757 L54.694 -70.471 L50.318 -75.045 L36.155 -60.937 L40.58 -56.462 L45.344 -61.276 L50.996 -55.735 V-49.333 Q50.996 -46.713 49.214 -44.792 Q47.433 -42.871 44.812 -42.871 H31.727 Q34.819 -41.323 36.876 -39.609 Q38.933 -37.895 40.353 -35.427 H45.404 Q50.814 -35.427 54.627 -39.496 Q58.44 -43.564 58.44 -49.333 V-51.868 H77.611 Q77.611 -51.868 77.611 -51.868 Q77.611 -51.868 77.611 -51.868 V-35.042 Z M60.427 -19.793 Q60.376 -22.201 60.858 -24.181 Q61.34 -26.161 62.841 -28.129 H43.091 Q43.461 -26.287 43.369 -24.055 Q43.277 -21.823 42.82 -19.793 H60.427 Z M75.488 -5.051 Q69.222 -5.051 64.828 -9.48 Q60.433 -13.909 60.433 -20.175 Q60.433 -26.441 64.863 -30.836 Q69.292 -35.23 75.558 -35.23 Q81.824 -35.23 86.218 -30.78 Q90.613 -26.33 90.613 -20.036 Q90.613 -13.741 86.184 -9.396 Q81.754 -5.051 75.488 -5.051 Z M23.793 -5.051 Q15.518 -5.051 9.793 -10.849 Q4.067 -16.647 4.067 -24.874 Q4.067 -32.936 9.814 -38.62 Q15.561 -44.303 23.715 -44.303 Q31.869 -44.303 37.644 -38.621 Q43.419 -32.938 43.419 -24.875 Q43.419 -16.648 37.678 -10.85 Q31.938 -5.051 23.793 -5.051 Z"/></g><g id="Medium-S" transform="matrix(1 0 0 1 1701.85 696)"><path d="M15.471 -49.235 Q13.981 -49.235 13.004 -50.205 Q12.028 -51.176 12.028 -52.668 Q12.028 -54.15 13.004 -55.173 Q13.981 -56.196 15.471 -56.196 H30.758 Q32.585 -56.196 33.825 -54.846 Q35.065 -53.495 35.263 -51.602 V-49.235 H15.471 Z M23.886 -14.223 Q28.59 -14.223 31.853 -17.537 Q35.115 -20.851 35.115 -25.608 Q35.115 -30.202 31.858 -33.406 Q28.602 -36.611 23.828 -36.611 Q19.054 -36.611 15.841 -33.412 Q12.628 -30.213 12.628 -25.62 Q12.628 -20.862 15.905 -17.542 Q19.182 -14.223 23.886 -14.223 Z M75.399 -13.869 Q78.332 -13.869 80.369 -15.917 Q82.405 -17.965 82.405 -20.891 Q82.405 -23.817 80.357 -25.854 Q78.309 -27.891 75.383 -27.891 Q72.457 -27.891 70.409 -25.843 Q68.36 -23.795 68.36 -20.869 Q68.36 -17.943 70.413 -15.906 Q72.466 -13.869 75.399 -13.869 Z M23.83 -21.234 Q22.09 -21.234 20.876 -22.452 Q19.663 -23.67 19.663 -25.409 Q19.663 -27.149 20.865 -28.374 Q22.067 -29.6 23.806 -29.6 Q25.546 -29.6 26.776 -28.382 Q28.005 -27.164 28.005 -25.424 Q28.005 -23.684 26.787 -22.459 Q25.57 -21.234 23.83 -21.234 Z M77.644 -35.008 Q79.632 -34.756 81.62 -33.838 Q83.608 -32.921 84.983 -31.476 V-51.417 Q84.983 -54.591 82.723 -56.85 Q80.463 -59.11 77.29 -59.11 H55.538 L49.851 -64.76 L54.662 -69.571 L50.961 -73.469 L37.345 -59.875 L41.094 -56.076 L45.955 -60.986 L51.703 -55.285 V-49.333 Q51.703 -46.488 49.713 -44.438 Q47.722 -42.389 44.877 -42.389 H32.37 Q35.044 -40.937 36.924 -39.288 Q38.805 -37.638 40.031 -35.427 H45.468 Q50.911 -35.427 54.788 -39.496 Q58.665 -43.564 58.665 -49.333 V-51.771 H77.644 Q77.644 -51.771 77.644 -51.771 Q77.644 -51.771 77.644 -51.771 V-35.008 Z M61.07 -20.79 Q61.019 -22.844 61.437 -24.615 Q61.855 -26.386 63.002 -28.129 H42.64 Q42.883 -26.577 42.758 -24.554 Q42.634 -22.531 42.241 -20.79 H61.07 Z M75.36 -6.53 Q69.4 -6.53 65.222 -10.743 Q61.045 -14.955 61.045 -20.915 Q61.045 -26.874 65.257 -31.052 Q69.47 -35.23 75.429 -35.23 Q81.389 -35.23 85.567 -30.997 Q89.745 -26.764 89.745 -20.775 Q89.745 -14.787 85.532 -10.659 Q81.319 -6.53 75.36 -6.53 Z M23.922 -6.53 Q15.954 -6.53 10.445 -12.112 Q4.935 -17.694 4.935 -25.613 Q4.935 -33.369 10.466 -38.836 Q15.997 -44.303 23.844 -44.303 Q31.691 -44.303 37.249 -38.837 Q42.808 -33.371 42.808 -25.615 Q42.808 -17.695 37.283 -12.113 Q31.759 -6.53 23.922 -6.53 Z"/></g><g id="Regular-S" transform="matrix(1 0 0 1 1405.73 696)"><path d="M15.731 -49.235 Q14.32 -49.235 13.398 -50.151 Q12.476 -51.067 12.476 -52.479 Q12.476 -53.891 13.398 -54.867 Q14.32 -55.843 15.731 -55.843 H31.018 Q32.726 -55.843 33.943 -54.61 Q35.16 -53.377 35.357 -51.602 V-49.235 H15.731 Z M23.98 -14.223 Q28.897 -14.223 32.324 -17.702 Q35.752 -21.181 35.752 -26.151 Q35.752 -30.956 32.33 -34.326 Q28.909 -37.696 23.922 -37.696 Q18.936 -37.696 15.558 -34.332 Q12.18 -30.968 12.18 -26.162 Q12.18 -21.192 15.622 -17.708 Q19.064 -14.223 23.98 -14.223 Z M75.306 -14.223 Q78.308 -14.223 80.404 -16.324 Q82.5 -18.426 82.5 -21.428 Q82.5 -24.431 80.398 -26.526 Q78.297 -28.622 75.294 -28.622 Q72.292 -28.622 70.196 -26.521 Q68.101 -24.419 68.101 -21.417 Q68.101 -18.414 70.202 -16.319 Q72.304 -14.223 75.306 -14.223 Z M23.928 -21.422 Q22.043 -21.422 20.711 -22.742 Q19.38 -24.062 19.38 -25.948 Q19.38 -27.833 20.7 -29.165 Q22.02 -30.496 23.905 -30.496 Q25.79 -30.496 27.122 -29.176 Q28.453 -27.856 28.453 -25.971 Q28.453 -24.085 27.134 -22.754 Q25.814 -21.422 23.928 -21.422 Z M77.667 -34.983 Q79.49 -34.732 81.266 -33.921 Q83.042 -33.11 84.275 -31.877 V-51.7 Q84.275 -54.426 82.334 -56.367 Q80.393 -58.308 77.667 -58.308 H55.491 L49.756 -64.028 L54.638 -68.91 L51.433 -72.313 L38.217 -59.097 L41.472 -55.793 L46.403 -60.774 L52.222 -54.955 V-49.333 Q52.222 -46.323 50.078 -44.179 Q47.934 -42.035 44.924 -42.035 H32.842 Q35.209 -40.654 36.96 -39.052 Q38.71 -37.449 39.795 -35.427 H45.515 Q50.982 -35.427 54.906 -39.496 Q58.83 -43.564 58.83 -49.333 V-51.7 H77.667 Q77.667 -51.7 77.667 -51.7 Q77.667 -51.7 77.667 -51.7 V-34.983 Z M61.542 -21.521 Q61.491 -23.316 61.861 -24.934 Q62.232 -26.551 63.12 -28.129 H42.31 Q42.458 -26.789 42.31 -24.919 Q42.162 -23.05 41.817 -21.521 H61.542 Z M75.265 -7.615 Q69.531 -7.615 65.512 -11.669 Q61.493 -15.723 61.493 -21.457 Q61.493 -27.192 65.547 -31.211 Q69.6 -35.23 75.335 -35.23 Q81.07 -35.23 85.089 -31.156 Q89.108 -27.082 89.108 -21.318 Q89.108 -15.554 85.054 -11.585 Q81 -7.615 75.265 -7.615 Z M24.016 -7.615 Q16.273 -7.615 10.923 -13.038 Q5.572 -18.461 5.572 -26.156 Q5.572 -33.687 10.944 -38.995 Q16.316 -44.303 23.938 -44.303 Q31.56 -44.303 36.96 -38.996 Q42.359 -33.688 42.359 -26.157 Q42.359 -18.463 36.994 -13.039 Q31.628 -7.615 24.016 -7.615 Z"/></g><g id="Light-S" transform="matrix(1 0 0 1 1109.75 696)"><path d="M15.067 -48.742 Q14.038 -48.742 13.39 -49.39 Q12.742 -50.038 12.742 -51.054 Q12.742 -52.07 13.39 -52.771 Q14.038 -53.472 15.067 -53.472 H30.6 Q31.665 -53.472 32.493 -52.817 Q33.32 -52.163 33.802 -51.109 V-48.742 H15.067 Z M23.406 -13.711 Q28.518 -13.711 32.087 -17.322 Q35.657 -20.934 35.657 -26.113 Q35.657 -31.127 32.095 -34.629 Q28.533 -38.132 23.346 -38.132 Q18.158 -38.132 14.648 -34.635 Q11.137 -31.139 11.137 -26.124 Q11.137 -20.946 14.715 -17.328 Q18.294 -13.711 23.406 -13.711 Z M75.393 -13.711 Q78.764 -13.711 81.163 -16.11 Q83.562 -18.51 83.562 -21.884 Q83.562 -25.257 81.157 -27.651 Q78.752 -30.045 75.38 -30.045 Q72.008 -30.045 69.618 -27.645 Q67.228 -25.246 67.228 -21.872 Q67.228 -18.498 69.625 -16.104 Q72.023 -13.711 75.393 -13.711 Z M23.341 -22.105 Q21.758 -22.105 20.645 -23.218 Q19.532 -24.331 19.532 -25.921 Q19.532 -27.511 20.644 -28.624 Q21.756 -29.737 23.345 -29.737 Q24.918 -29.737 26.041 -28.624 Q27.163 -27.512 27.163 -25.922 Q27.163 -24.332 26.043 -23.219 Q24.923 -22.105 23.341 -22.105 Z M77.686 -34.547 Q78.851 -34.397 80.226 -33.829 Q81.601 -33.261 82.416 -32.579 V-50.961 Q82.416 -53.413 80.67 -55.159 Q78.924 -56.905 76.472 -56.905 H56.474 L50.724 -62.644 L55.625 -67.564 L52.4 -70.947 L39.147 -57.694 L42.42 -54.39 L47.362 -59.37 L53.189 -53.551 V-49.352 Q53.189 -45.731 50.6 -43.153 Q48.01 -40.575 44.412 -40.575 H31.837 Q33.635 -39.535 35.069 -38.361 Q36.504 -37.186 37.348 -35.845 H45.003 Q50.341 -35.845 54.13 -39.778 Q57.919 -43.711 57.919 -49.352 V-52.175 H76.472 Q76.984 -52.175 77.335 -51.833 Q77.686 -51.492 77.686 -50.961 V-34.547 Z M62.642 -22.413 Q62.477 -23.525 62.646 -24.762 Q62.815 -25.999 63.215 -27.143 H40.432 Q40.466 -26.331 40.318 -24.871 Q40.171 -23.41 39.939 -22.413 H62.642 Z M75.351 -8.981 Q69.968 -8.981 66.233 -12.759 Q62.498 -16.538 62.498 -21.913 Q62.498 -27.287 66.268 -31.031 Q70.038 -34.775 75.421 -34.775 Q80.804 -34.775 84.548 -30.976 Q88.292 -27.176 88.292 -21.773 Q88.292 -16.37 84.513 -12.675 Q80.734 -8.981 75.351 -8.981 Z M23.447 -8.981 Q16.258 -8.981 11.332 -13.988 Q6.407 -18.996 6.407 -26.118 Q6.407 -33.076 11.354 -37.969 Q16.301 -42.862 23.369 -42.862 Q30.418 -42.862 35.402 -37.97 Q40.387 -33.077 40.387 -26.119 Q40.387 -18.998 35.437 -13.989 Q30.487 -8.981 23.447 -8.981 Z"/></g><g id="Thin-S" transform="matrix(1 0 0 1 814.015 696)"><path d="M14.403 -48.248 Q13.755 -48.248 13.381 -48.629 Q13.007 -49.009 13.007 -49.629 Q13.007 -50.249 13.381 -50.675 Q13.755 -51.101 14.403 -51.101 H30.183 Q30.604 -51.101 31.042 -51.025 Q31.48 -50.949 32.247 -50.615 V-48.248 H14.403 Z M22.831 -13.199 Q28.139 -13.199 31.85 -16.943 Q35.562 -20.688 35.562 -26.075 Q35.562 -31.298 31.859 -34.933 Q28.157 -38.568 22.769 -38.568 Q17.381 -38.568 13.737 -34.939 Q10.094 -31.309 10.094 -26.086 Q10.094 -20.699 13.809 -16.949 Q17.524 -13.199 22.831 -13.199 Z M75.48 -13.199 Q79.219 -13.199 81.921 -15.896 Q84.624 -18.594 84.624 -22.339 Q84.624 -26.084 81.916 -28.775 Q79.207 -31.467 75.465 -31.467 Q71.723 -31.467 69.039 -28.77 Q66.356 -26.072 66.356 -22.327 Q66.356 -18.582 69.049 -15.89 Q71.741 -13.199 75.48 -13.199 Z M22.753 -22.788 Q21.474 -22.788 20.579 -23.694 Q19.683 -24.6 19.683 -25.894 Q19.683 -27.188 20.588 -28.084 Q21.493 -28.979 22.785 -28.979 Q24.046 -28.979 24.96 -28.073 Q25.874 -27.167 25.874 -25.873 Q25.874 -24.578 24.954 -23.683 Q24.033 -22.788 22.753 -22.788 Z M77.705 -34.111 Q78.212 -34.062 79.186 -33.737 Q80.159 -33.413 80.558 -33.28 V-50.221 Q80.558 -52.399 79.007 -53.95 Q77.456 -55.501 75.277 -55.501 H57.458 L51.691 -61.259 L56.611 -66.217 L53.367 -69.582 L40.076 -56.29 L43.368 -52.986 L48.321 -57.967 L54.156 -52.148 V-49.371 Q54.156 -45.14 51.121 -42.127 Q48.086 -39.114 43.899 -39.114 H30.832 Q32.061 -38.416 33.179 -37.67 Q34.298 -36.923 34.902 -36.262 H44.491 Q49.701 -36.262 53.355 -40.06 Q57.009 -43.858 57.009 -49.371 V-52.649 H75.277 Q76.302 -52.649 77.003 -51.966 Q77.705 -51.283 77.705 -50.221 V-34.111 Z M63.742 -23.304 Q63.463 -23.733 63.43 -24.59 Q63.397 -25.447 63.31 -26.156 H38.555 Q38.475 -25.873 38.327 -24.822 Q38.179 -23.771 38.062 -23.304 H63.742 Z M75.437 -10.346 Q70.406 -10.346 66.954 -13.85 Q63.503 -17.354 63.503 -22.368 Q63.503 -27.382 66.989 -30.851 Q70.475 -34.32 75.507 -34.32 Q80.539 -34.32 84.008 -30.795 Q87.477 -27.271 87.477 -22.228 Q87.477 -17.185 83.973 -13.766 Q80.469 -10.346 75.437 -10.346 Z M22.878 -10.346 Q16.243 -10.346 11.742 -14.939 Q7.241 -19.531 7.241 -26.08 Q7.241 -32.465 11.764 -36.943 Q16.286 -41.421 22.8 -41.421 Q29.276 -41.421 33.845 -36.944 Q38.414 -32.467 38.414 -26.081 Q38.414 -19.532 33.88 -14.939 Q29.345 -10.346 22.878 -10.346 Z"/></g><g id="Ultralight-S" transform="matrix(1 0 0 1 517.792 696)"><path d="M14.005 -47.953 Q13.586 -47.953 13.376 -48.172 Q13.166 -48.392 13.166 -48.774 Q13.166 -49.157 13.376 -49.418 Q13.586 -49.679 14.005 -49.679 H29.933 Q29.968 -49.679 30.172 -49.95 Q30.377 -50.221 31.313 -50.32 V-47.953 H14.005 Z M22.486 -12.891 Q27.911 -12.891 31.708 -16.716 Q35.505 -20.54 35.505 -26.052 Q35.505 -31.4 31.718 -35.115 Q27.931 -38.83 22.423 -38.83 Q16.914 -38.83 13.191 -35.121 Q9.468 -31.412 9.468 -26.064 Q9.468 -20.551 13.265 -16.721 Q17.062 -12.891 22.486 -12.891 Z M75.532 -12.891 Q79.492 -12.891 82.377 -15.768 Q85.261 -18.644 85.261 -22.612 Q85.261 -26.58 82.371 -29.45 Q79.48 -32.321 75.516 -32.321 Q71.552 -32.321 68.692 -29.444 Q65.832 -26.568 65.832 -22.6 Q65.832 -18.632 68.702 -15.762 Q71.573 -12.891 75.532 -12.891 Z M22.401 -23.198 Q21.303 -23.198 20.539 -23.979 Q19.774 -24.761 19.774 -25.878 Q19.774 -26.995 20.554 -27.759 Q21.334 -28.523 22.449 -28.523 Q23.522 -28.523 24.311 -27.742 Q25.1 -26.96 25.1 -25.843 Q25.1 -24.726 24.299 -23.962 Q23.499 -23.198 22.401 -23.198 Z M77.716 -33.849 Q77.828 -33.86 78.561 -33.682 Q79.294 -33.504 79.442 -33.701 V-49.777 Q79.442 -51.791 78.008 -53.225 Q76.574 -54.659 74.561 -54.659 H58.048 L52.271 -60.429 L57.203 -65.409 L53.948 -68.762 L40.634 -55.448 L43.937 -52.144 L48.897 -57.125 L54.737 -51.306 V-49.383 Q54.737 -44.785 51.434 -41.512 Q48.131 -38.238 43.592 -38.238 H30.229 Q31.116 -37.745 32.045 -37.255 Q32.974 -36.766 33.434 -36.512 H44.184 Q49.317 -36.512 52.89 -40.229 Q56.463 -43.947 56.463 -49.383 V-52.933 H74.561 Q75.892 -52.933 76.804 -52.046 Q77.716 -51.158 77.716 -49.777 V-33.849 Z M64.402 -23.839 Q64.055 -23.859 63.901 -24.487 Q63.747 -25.116 63.367 -25.565 H37.428 Q37.28 -25.598 37.132 -24.793 Q36.984 -23.987 36.935 -23.839 H64.402 Z M75.489 -11.165 Q70.668 -11.165 67.387 -14.504 Q64.106 -17.843 64.106 -22.641 Q64.106 -27.439 67.422 -30.743 Q70.738 -34.046 75.559 -34.046 Q80.379 -34.046 83.683 -30.687 Q86.987 -27.328 86.987 -22.501 Q86.987 -17.675 83.648 -14.42 Q80.31 -11.165 75.489 -11.165 Z M22.537 -11.165 Q16.234 -11.165 11.988 -15.509 Q7.742 -19.852 7.742 -26.057 Q7.742 -32.099 12.009 -36.327 Q16.277 -40.556 22.459 -40.556 Q28.591 -40.556 32.911 -36.328 Q37.231 -32.1 37.231 -26.059 Q37.231 -19.853 32.945 -15.509 Q28.66 -11.165 22.537 -11.165 Z"/></g></g></svg>