<svg xmlns="http://www.w3.org/2000/svg" version="1.1" width="3300" height="2000"><g id="Notes"><style>
    text {
      font-family: monospace;
      text-anchor: middle;
    }
    text.emphasis {
      font-weight:bold;
    }
    text.lanchor {
      text-anchor: start;
    }
  </style><rect height="2200" id="artboard" fill="white" width="3300" x="0" y="0"/><line id="" style="fill:none;stroke:black;stroke-width:0.5;" x1="263" x2="3036" y1="292" y2="292"/><text class="lanchor emphasis" transform="matrix(1 0 0 1 263 322)">Weight/Scale Variations</text><text transform="matrix(1 0 0 1 559.711 322)">Ultralight</text><text transform="matrix(1 0 0 1 856.422 322)">Thin</text><text transform="matrix(1 0 0 1 1153.13 322)">Light</text><text transform="matrix(1 0 0 1 1449.84 322)">Regular</text><text transform="matrix(1 0 0 1 1746.56 322)">Medium</text><text transform="matrix(1 0 0 1 2043.27 322)">Semibold</text><text transform="matrix(1 0 0 1 2339.98 322)">Bold</text><text transform="matrix(1 0 0 1 2636.69 322)">Heavy</text><text transform="matrix(1 0 0 1 2933.4 322)">Black</text><text id="template-version" style="text-anchor: end;" transform="matrix(1 0 0 1 3036 1933)">Template v.1.0</text><text class="lanchor" transform="matrix(1 0 0 1 263 726)">Small</text><text class="lanchor" transform="matrix(1 0 0 1 263 1156)">Medium</text><text class="lanchor" transform="matrix(1 0 0 1 263 1586)">Large</text></g><g id="Guides"><g id="H-reference" style="fill:#27AAE1;stroke:none;" transform="matrix(1 0 0 1 339 696)"><path d="M 54.9316 0 L 57.666 0 L 30.5664 -70.459 L 28.0762 -70.459 L 0.976562 0 L 3.66211 0 L 12.9395 -24.4629 L 45.7031 -24.4629 Z M 29.1992 -67.0898 L 29.4434 -67.0898 L 44.8242 -26.709 L 13.8184 -26.709 Z"/></g><line id="Baseline-S" style="fill:none;stroke:#27AAE1;opacity:1;stroke-width:0.577;" x1="263" x2="3036" y1="696" y2="696"/><line id="Capline-S" style="fill:none;stroke:#27AAE1;opacity:1;stroke-width:0.577;" x1="263" x2="3036" y1="625.541" y2="625.541"/><g id="H-reference" style="fill:#27AAE1;stroke:none;" transform="matrix(1 0 0 1 339 1126)"><path d="M 54.9316 0 L 57.666 0 L 30.5664 -70.459 L 28.0762 -70.459 L 0.976562 0 L 3.66211 0 L 12.9395 -24.4629 L 45.7031 -24.4629 Z M 29.1992 -67.0898 L 29.4434 -67.0898 L 44.8242 -26.709 L 13.8184 -26.709 Z"/></g><line id="Baseline-M" style="fill:none;stroke:#27AAE1;opacity:1;stroke-width:0.577;" x1="263" x2="3036" y1="1126" y2="1126"/><line id="Capline-M" style="fill:none;stroke:#27AAE1;opacity:1;stroke-width:0.577;" x1="263" x2="3036" y1="1055.54" y2="1055.54"/><g id="H-reference" style="fill:#27AAE1;stroke:none;" transform="matrix(1 0 0 1 339 1556)"><path d="M 54.9316 0 L 57.666 0 L 30.5664 -70.459 L 28.0762 -70.459 L 0.976562 0 L 3.66211 0 L 12.9395 -24.4629 L 45.7031 -24.4629 Z M 29.1992 -67.0898 L 29.4434 -67.0898 L 44.8242 -26.709 L 13.8184 -26.709 Z"/></g><line id="Baseline-L" style="fill:none;stroke:#27AAE1;opacity:1;stroke-width:0.577;" x1="263" x2="3036" y1="1556" y2="1556"/><line id="Capline-L" style="fill:none;stroke:#27AAE1;opacity:1;stroke-width:0.577;" x1="263" x2="3036" y1="1485.54" y2="1485.54"/><rect height="119.336" id="left-margin" style="fill:darkred;stroke:none;opacity:0.4;" width="12.4512" x="1394.06" y="1030.79"/><rect height="119.336" id="right-margin" style="fill:darkgreen;stroke:none;opacity:0.4;" width="12.4512" x="1502.5112" y="1030.79"/><rect x="1406.5112" y="1045" width="96" height="96" fill="none" stroke="blue" stroke-dasharray="5"/><rect x="1394.06" y="1030.79" width="120.9024" height="119.336" fill="none" stroke="blue"/></g><g id="Symbols"><g id="Bold-L" transform="matrix(1 0 0 1 2266 1556)"><path d="M51.703 -2.819 Q53.535 -2.819 54.906 -4.161 Q56.276 -5.504 56.276 -7.495 V-42.002 Q56.276 -43.837 54.865 -45.177 Q53.453 -46.517 51.669 -46.517 Q49.886 -46.517 48.485 -45.177 Q47.085 -43.837 47.085 -42.002 V-7.495 Q47.085 -5.504 48.478 -4.161 Q49.872 -2.819 51.703 -2.819 Z M77.423 -2.819 Q79.335 -2.819 80.625 -4.161 Q81.915 -5.504 81.915 -7.495 V-63.126 Q81.915 -64.96 80.584 -66.301 Q79.253 -67.641 77.389 -67.641 Q75.524 -67.641 74.124 -66.301 Q72.724 -64.96 72.724 -63.126 V-7.495 Q72.724 -5.504 74.117 -4.161 Q75.51 -2.819 77.423 -2.819 Z M103.19 -2.819 Q104.974 -2.819 106.425 -4.161 Q107.876 -5.504 107.876 -7.495 V-21.685 Q107.876 -23.422 106.432 -24.811 Q104.988 -26.2 103.156 -26.2 Q101.324 -26.2 100.005 -24.811 Q98.685 -23.422 98.685 -21.685 V-7.495 Q98.685 -5.504 100.046 -4.161 Q101.406 -2.819 103.19 -2.819 Z M118.199 -54.902 Q115.998 -54.902 114.267 -56.592 Q112.535 -58.282 112.535 -60.618 V-70.204 H102.627 Q100.359 -70.204 98.716 -71.896 Q97.073 -73.588 97.073 -75.905 Q97.073 -78.152 98.765 -79.669 Q100.457 -81.186 102.797 -81.186 H112.553 V-91.28 Q112.553 -93.498 114.224 -95.163 Q115.895 -96.827 118.219 -96.827 Q120.474 -96.827 121.996 -95.163 Q123.517 -93.498 123.517 -91.28 V-81.186 H133.45 Q135.668 -81.186 137.333 -79.623 Q138.998 -78.059 138.998 -75.851 Q138.998 -73.643 137.333 -71.932 Q135.668 -70.221 133.45 -70.221 H123.517 V-60.466 Q123.517 -58.194 121.959 -56.548 Q120.4 -54.902 118.199 -54.902 Z M30.637 26.206 Q24.599 26.206 20.281 21.889 Q15.964 17.571 15.964 11.533 V-81.992 Q15.964 -88.098 20.281 -92.463 Q24.599 -96.827 30.637 -96.827 H84.979 Q88.167 -96.827 90.201 -94.703 Q92.235 -92.579 92.235 -89.41 V-64.739 Q92.235 -58.813 96.609 -54.439 Q100.983 -50.065 106.909 -50.065 H131.58 Q134.749 -50.065 136.873 -48.031 Q138.998 -45.997 138.998 -42.809 V11.533 Q138.998 17.571 134.633 21.889 Q130.268 26.206 124.163 26.206 H30.637 Z"/></g><g id="Semibold-L" transform="matrix(1 0 0 1 1970.27 1556)"><path d="M50.737 -2.118 Q52.834 -2.118 54.345 -3.621 Q55.856 -5.125 55.856 -7.355 V-42.073 Q55.856 -44.145 54.309 -45.647 Q52.763 -47.148 50.693 -47.148 Q48.624 -47.148 47.083 -45.647 Q45.543 -44.145 45.543 -42.073 V-7.355 Q45.543 -5.125 47.092 -3.621 Q48.64 -2.118 50.737 -2.118 Z M77.473 -2.118 Q79.615 -2.118 81.081 -3.621 Q82.546 -5.125 82.546 -7.355 V-63.267 Q82.546 -65.339 81.045 -66.841 Q79.544 -68.342 77.429 -68.342 Q75.314 -68.342 73.773 -66.841 Q72.233 -65.339 72.233 -63.267 V-7.355 Q72.233 -5.125 73.782 -3.621 Q75.331 -2.118 77.473 -2.118 Z M104.166 -2.118 Q106.236 -2.118 107.792 -3.621 Q109.348 -5.125 109.348 -7.355 V-21.615 Q109.348 -23.633 107.784 -25.162 Q106.219 -26.691 104.122 -26.691 Q102.025 -26.691 100.531 -25.162 Q99.036 -23.633 99.036 -21.615 V-7.355 Q99.036 -5.125 100.566 -3.621 Q102.096 -2.118 104.166 -2.118 Z M118.163 -55.323 Q115.858 -55.323 114.13 -57.023 Q112.403 -58.723 112.403 -61.148 V-70.071 H103.227 Q100.841 -70.071 99.167 -71.789 Q97.493 -73.507 97.493 -75.878 Q97.493 -78.21 99.194 -79.803 Q100.896 -81.397 103.323 -81.397 H112.412 V-90.747 Q112.412 -93.037 114.118 -94.722 Q115.824 -96.407 118.199 -96.407 Q120.535 -96.407 122.132 -94.722 Q123.728 -93.037 123.728 -90.747 V-81.397 H132.917 Q135.207 -81.397 136.892 -79.764 Q138.577 -78.132 138.577 -75.823 Q138.577 -73.513 136.892 -71.797 Q135.207 -70.081 132.917 -70.081 H123.728 V-61.061 Q123.728 -58.673 122.098 -56.998 Q120.469 -55.323 118.163 -55.323 Z M29.726 25.856 Q24.28 25.856 20.297 21.873 Q16.314 17.89 16.314 12.444 V-82.904 Q16.314 -88.388 20.297 -92.397 Q24.28 -96.407 29.726 -96.407 H86.03 Q88.869 -96.407 90.762 -94.462 Q92.656 -92.517 92.656 -89.69 V-63.898 Q92.656 -58.392 96.609 -54.439 Q100.562 -50.486 106.068 -50.486 H131.86 Q134.687 -50.486 136.632 -48.592 Q138.577 -46.699 138.577 -43.86 V12.444 Q138.577 17.89 134.567 21.873 Q130.558 25.856 125.074 25.856 H29.726 Z"/></g><g id="Medium-L" transform="matrix(1 0 0 1 1674.31 1556)"><path d="M50.012 -1.592 Q52.308 -1.592 53.924 -3.216 Q55.54 -4.841 55.54 -7.25 V-42.125 Q55.54 -44.377 53.893 -45.999 Q52.245 -47.622 49.961 -47.622 Q47.677 -47.622 46.032 -45.999 Q44.386 -44.377 44.386 -42.125 V-7.25 Q44.386 -4.841 46.051 -3.216 Q47.717 -1.592 50.012 -1.592 Z M77.511 -1.592 Q79.826 -1.592 81.423 -3.216 Q83.019 -4.841 83.019 -7.25 V-63.372 Q83.019 -65.623 81.391 -67.246 Q79.763 -68.868 77.46 -68.868 Q75.156 -68.868 73.511 -67.246 Q71.865 -65.623 71.865 -63.372 V-7.25 Q71.865 -4.841 73.53 -3.216 Q75.196 -1.592 77.511 -1.592 Z M104.898 -1.592 Q107.182 -1.592 108.817 -3.216 Q110.453 -4.841 110.453 -7.25 V-21.562 Q110.453 -23.791 108.798 -25.425 Q107.143 -27.059 104.847 -27.059 Q102.551 -27.059 100.925 -25.425 Q99.298 -23.791 99.298 -21.562 V-7.25 Q99.298 -4.841 100.956 -3.216 Q102.614 -1.592 104.898 -1.592 Z M118.137 -55.639 Q115.753 -55.639 114.028 -57.346 Q112.303 -59.054 112.303 -61.545 V-69.972 H103.676 Q101.202 -69.972 99.505 -71.709 Q97.809 -73.446 97.809 -75.857 Q97.809 -78.252 99.517 -79.903 Q101.225 -81.554 103.717 -81.554 H112.307 V-90.348 Q112.307 -92.691 114.039 -94.391 Q115.771 -96.091 118.184 -96.091 Q120.581 -96.091 122.233 -94.391 Q123.886 -92.691 123.886 -90.348 V-81.554 H132.518 Q134.861 -81.554 136.561 -79.871 Q138.261 -78.187 138.261 -75.801 Q138.261 -73.416 136.561 -71.696 Q134.861 -69.976 132.518 -69.976 H123.886 V-61.508 Q123.886 -59.033 122.203 -57.336 Q120.521 -55.639 118.137 -55.639 Z M29.043 25.593 Q24.04 25.593 20.309 21.861 Q16.577 18.13 16.577 13.127 V-83.587 Q16.577 -88.606 20.309 -92.348 Q24.04 -96.091 29.043 -96.091 H86.819 Q89.394 -96.091 91.183 -94.281 Q92.971 -92.471 92.971 -89.901 V-63.267 Q92.971 -58.077 96.609 -54.439 Q100.247 -50.801 105.437 -50.801 H132.071 Q134.641 -50.801 136.451 -49.013 Q138.261 -47.224 138.261 -44.649 V13.127 Q138.261 18.13 134.518 21.861 Q130.776 25.593 125.757 25.593 H29.043 Z"/></g><g id="Regular-L" transform="matrix(1 0 0 1 1378.56 1556)"><path d="M49.481 -1.206 Q51.922 -1.206 53.616 -2.92 Q55.309 -4.633 55.309 -7.172 V-42.164 Q55.309 -44.546 53.587 -46.258 Q51.866 -47.969 49.425 -47.969 Q46.983 -47.969 45.26 -46.258 Q43.538 -44.546 43.538 -42.164 V-7.172 Q43.538 -4.633 45.289 -2.92 Q47.04 -1.206 49.481 -1.206 Z M77.539 -1.206 Q79.98 -1.206 81.673 -2.92 Q83.366 -4.633 83.366 -7.172 V-63.449 Q83.366 -65.831 81.645 -67.543 Q79.923 -69.254 77.482 -69.254 Q75.041 -69.254 73.318 -67.543 Q71.595 -65.831 71.595 -63.449 V-7.172 Q71.595 -4.633 73.346 -2.92 Q75.097 -1.206 77.539 -1.206 Z M105.435 -1.206 Q107.876 -1.206 109.569 -2.92 Q111.263 -4.633 111.263 -7.172 V-21.524 Q111.263 -23.906 109.541 -25.618 Q107.82 -27.329 105.378 -27.329 Q102.937 -27.329 101.214 -25.618 Q99.491 -23.906 99.491 -21.524 V-7.172 Q99.491 -4.633 101.242 -2.92 Q102.993 -1.206 105.435 -1.206 Z M118.117 -55.87 Q115.676 -55.87 113.953 -57.583 Q112.23 -59.297 112.23 -61.836 V-69.899 H104.006 Q101.467 -69.899 99.753 -71.65 Q98.04 -73.401 98.04 -75.842 Q98.04 -78.284 99.753 -79.977 Q101.467 -81.67 104.006 -81.67 H112.23 V-90.055 Q112.23 -92.437 113.981 -94.149 Q115.732 -95.86 118.174 -95.86 Q120.615 -95.86 122.308 -94.149 Q124.001 -92.437 124.001 -90.055 V-81.67 H132.225 Q134.607 -81.67 136.319 -79.949 Q138.03 -78.227 138.03 -75.786 Q138.03 -73.344 136.319 -71.622 Q134.607 -69.899 132.225 -69.899 H124.001 V-61.836 Q124.001 -59.297 122.28 -57.583 Q120.558 -55.87 118.117 -55.87 Z M28.541 25.4 Q23.865 25.4 20.317 21.853 Q16.77 18.305 16.77 13.629 V-84.089 Q16.77 -88.765 20.317 -92.312 Q23.865 -95.86 28.541 -95.86 H87.398 Q89.78 -95.86 91.491 -94.149 Q93.203 -92.437 93.203 -90.055 V-62.804 Q93.203 -57.845 96.609 -54.439 Q100.015 -51.032 104.974 -51.032 H132.225 Q134.607 -51.032 136.319 -49.321 Q138.03 -47.61 138.03 -45.227 V13.629 Q138.03 18.305 134.483 21.853 Q130.935 25.4 126.259 25.4 H28.541 Z"/></g><g id="Light-L" transform="matrix(1 0 0 1 1082.77 1556)"><path d="M48.864 -2.943 Q50.806 -2.943 52.158 -4.317 Q53.51 -5.692 53.51 -7.731 V-42.102 Q53.51 -43.983 52.126 -45.356 Q50.743 -46.728 48.801 -46.728 Q46.859 -46.728 45.477 -45.356 Q44.096 -43.983 44.096 -42.102 V-7.731 Q44.096 -5.692 45.509 -4.317 Q46.922 -2.943 48.864 -2.943 Z M75.929 -2.943 Q77.871 -2.943 79.223 -4.317 Q80.575 -5.692 80.575 -7.731 V-62.891 Q80.575 -64.772 79.192 -66.145 Q77.808 -67.517 75.866 -67.517 Q73.924 -67.517 72.543 -66.145 Q71.161 -64.772 71.161 -62.891 V-7.731 Q71.161 -5.692 72.574 -4.317 Q73.987 -2.943 75.929 -2.943 Z M102.833 -2.943 Q104.775 -2.943 106.127 -4.317 Q107.479 -5.692 107.479 -7.731 V-21.772 Q107.479 -23.593 106.096 -24.996 Q104.712 -26.398 102.77 -26.398 Q100.828 -26.398 99.446 -24.996 Q98.065 -23.593 98.065 -21.772 V-7.731 Q98.065 -5.692 99.478 -4.317 Q100.891 -2.943 102.833 -2.943 Z M117.99 -58.909 Q116.048 -58.909 114.666 -60.284 Q113.284 -61.658 113.284 -63.697 V-72.628 H104.254 Q102.216 -72.628 100.841 -74.041 Q99.467 -75.454 99.467 -77.396 Q99.467 -79.338 100.841 -80.69 Q102.216 -82.042 104.254 -82.042 H113.284 V-91.233 Q113.284 -93.115 114.698 -94.488 Q116.111 -95.86 118.053 -95.86 Q119.995 -95.86 121.347 -94.488 Q122.699 -93.115 122.699 -91.233 V-82.042 H131.791 Q133.673 -82.042 135.045 -80.659 Q136.417 -79.275 136.417 -77.333 Q136.417 -75.391 135.045 -74.009 Q133.673 -72.628 131.791 -72.628 H122.699 V-63.697 Q122.699 -61.658 121.315 -60.284 Q119.932 -58.909 117.99 -58.909 Z M29.782 22.175 Q25.181 22.175 21.782 18.775 Q18.383 15.376 18.383 10.776 V-81.236 Q18.383 -85.836 21.782 -89.235 Q25.181 -92.635 29.782 -92.635 H89.32 Q91.141 -92.635 92.544 -91.262 Q93.947 -89.89 93.947 -88.008 V-64.789 Q93.947 -59.984 97.244 -56.687 Q100.541 -53.389 105.346 -53.389 H128.566 Q130.447 -53.389 131.82 -51.987 Q133.192 -50.584 133.192 -48.763 V10.776 Q133.192 15.376 129.793 18.775 Q126.393 22.175 121.793 22.175 H29.782 Z"/></g><g id="Thin-L" transform="matrix(1 0 0 1 787.282 1556)"><path d="M48.247 -4.679 Q49.69 -4.679 50.701 -5.715 Q51.712 -6.751 51.712 -8.289 V-42.04 Q51.712 -43.421 50.666 -44.454 Q49.62 -45.488 48.178 -45.488 Q46.735 -45.488 45.694 -44.454 Q44.654 -43.421 44.654 -42.04 V-8.289 Q44.654 -6.751 45.729 -5.715 Q46.805 -4.679 48.247 -4.679 Z M74.32 -4.679 Q75.763 -4.679 76.774 -5.715 Q77.785 -6.751 77.785 -8.289 V-62.332 Q77.785 -63.713 76.739 -64.747 Q75.693 -65.781 74.25 -65.781 Q72.808 -65.781 71.767 -64.747 Q70.727 -63.713 70.727 -62.332 V-8.289 Q70.727 -6.751 71.802 -5.715 Q72.878 -4.679 74.32 -4.679 Z M100.232 -4.679 Q101.674 -4.679 102.685 -5.715 Q103.696 -6.751 103.696 -8.289 V-22.02 Q103.696 -23.28 102.65 -24.374 Q101.605 -25.468 100.162 -25.468 Q98.72 -25.468 97.679 -24.374 Q96.638 -23.28 96.638 -22.02 V-8.289 Q96.638 -6.751 97.714 -5.715 Q98.789 -4.679 100.232 -4.679 Z M117.862 -61.948 Q116.42 -61.948 115.379 -62.984 Q114.339 -64.019 114.339 -65.557 V-75.356 H104.502 Q102.964 -75.356 101.929 -76.432 Q100.893 -77.507 100.893 -78.95 Q100.893 -80.392 101.929 -81.403 Q102.964 -82.414 104.502 -82.414 H114.339 V-92.412 Q114.339 -93.793 115.414 -94.826 Q116.49 -95.86 117.932 -95.86 Q119.375 -95.86 120.386 -94.826 Q121.396 -93.793 121.396 -92.412 V-82.414 H131.357 Q132.738 -82.414 133.771 -81.368 Q134.805 -80.323 134.805 -78.88 Q134.805 -77.438 133.771 -76.397 Q132.738 -75.356 131.357 -75.356 H121.396 V-65.557 Q121.396 -64.019 120.351 -62.984 Q119.305 -61.948 117.862 -61.948 Z M31.022 18.95 Q26.498 18.95 23.246 15.699 Q19.995 12.447 19.995 7.923 V-78.383 Q19.995 -82.907 23.246 -86.159 Q26.498 -89.41 31.022 -89.41 H91.243 Q92.503 -89.41 93.597 -88.376 Q94.691 -87.343 94.691 -85.962 V-66.773 Q94.691 -62.122 97.879 -58.934 Q101.067 -55.746 105.718 -55.746 H124.907 Q126.288 -55.746 127.321 -54.652 Q128.355 -53.558 128.355 -52.298 V7.923 Q128.355 12.447 125.104 15.699 Q121.852 18.95 117.328 18.95 H31.022 Z"/></g><g id="Ultralight-L" transform="matrix(1 0 0 1 491.205 1556)"><path d="M47.877 -5.721 Q49.02 -5.721 49.826 -6.554 Q50.633 -7.386 50.633 -8.624 V-42.002 Q50.633 -43.083 49.789 -43.913 Q48.946 -44.744 47.804 -44.744 Q46.661 -44.744 45.825 -43.913 Q44.989 -43.083 44.989 -42.002 V-8.624 Q44.989 -7.386 45.861 -6.554 Q46.734 -5.721 47.877 -5.721 Z M73.355 -5.721 Q74.498 -5.721 75.304 -6.554 Q76.11 -7.386 76.11 -8.624 V-61.997 Q76.11 -63.078 75.267 -63.908 Q74.424 -64.739 73.281 -64.739 Q72.138 -64.739 71.302 -63.908 Q70.466 -63.078 70.466 -61.997 V-8.624 Q70.466 -7.386 71.339 -6.554 Q72.212 -5.721 73.355 -5.721 Z M98.671 -5.721 Q99.814 -5.721 100.62 -6.554 Q101.426 -7.386 101.426 -8.624 V-22.169 Q101.426 -23.092 100.583 -24.001 Q99.74 -24.91 98.597 -24.91 Q97.454 -24.91 96.618 -24.001 Q95.782 -23.092 95.782 -22.169 V-8.624 Q95.782 -7.386 96.655 -6.554 Q97.528 -5.721 98.671 -5.721 Z M117.786 -63.771 Q116.643 -63.771 115.807 -64.604 Q114.971 -65.436 114.971 -66.674 V-76.994 H104.651 Q103.414 -76.994 102.581 -77.866 Q101.749 -78.739 101.749 -79.882 Q101.749 -81.025 102.581 -81.831 Q103.414 -82.637 104.651 -82.637 H114.971 V-93.119 Q114.971 -94.199 115.844 -95.03 Q116.717 -95.86 117.86 -95.86 Q119.002 -95.86 119.809 -95.03 Q120.615 -94.199 120.615 -93.119 V-82.637 H131.096 Q132.177 -82.637 133.007 -81.794 Q133.838 -80.951 133.838 -79.809 Q133.838 -78.666 133.007 -77.83 Q132.177 -76.994 131.096 -76.994 H120.615 V-66.674 Q120.615 -65.436 119.772 -64.604 Q118.929 -63.771 117.786 -63.771 Z M31.766 17.015 Q27.288 17.015 24.125 13.852 Q20.963 10.69 20.963 6.211 V-76.671 Q20.963 -81.15 24.125 -84.313 Q27.288 -87.475 31.766 -87.475 H92.396 Q93.319 -87.475 94.229 -86.645 Q95.138 -85.814 95.138 -84.734 V-67.964 Q95.138 -63.404 98.26 -60.282 Q101.382 -57.16 105.941 -57.16 H122.711 Q123.792 -57.16 124.622 -56.251 Q125.453 -55.342 125.453 -54.419 V6.211 Q125.453 10.69 122.29 13.852 Q119.127 17.015 114.649 17.015 H31.766 Z"/></g><g id="Bold-M" transform="matrix(1 0 0 1 2281.8 1126)"><path d="M40.035 -9.48 Q42.375 -9.48 44 -11.13 Q45.625 -12.78 45.625 -15.105 V-40.23 Q45.625 -42.555 43.99 -44.205 Q42.355 -45.855 40.053 -45.855 Q37.75 -45.855 36.062 -44.205 Q34.375 -42.555 34.375 -40.23 V-15.105 Q34.375 -12.78 36.035 -11.13 Q37.695 -9.48 40.035 -9.48 Z M60.035 -9.48 Q62.375 -9.48 64 -11.13 Q65.625 -12.78 65.625 -15.105 V-55.355 Q65.625 -57.68 63.99 -59.33 Q62.355 -60.98 60.053 -60.98 Q57.75 -60.98 56.062 -59.33 Q54.375 -57.68 54.375 -55.355 V-15.105 Q54.375 -12.78 56.035 -11.13 Q57.695 -9.48 60.035 -9.48 Z M79.947 -9.48 Q82.25 -9.48 83.938 -11.13 Q85.625 -12.78 85.625 -15.105 V-25.23 Q85.625 -27.48 83.965 -29.167 Q82.305 -30.855 79.965 -30.855 Q77.625 -30.855 76 -29.167 Q74.375 -27.48 74.375 -25.23 V-15.105 Q74.375 -12.78 76.01 -11.13 Q77.645 -9.48 79.947 -9.48 Z M92.925 -50.105 Q90.25 -50.105 88.25 -52.08 Q86.25 -54.055 86.25 -56.73 V-61.48 H81.375 Q78.753 -61.48 76.814 -63.428 Q74.875 -65.375 74.875 -68.14 Q74.875 -70.852 76.85 -72.728 Q78.825 -74.605 81.5 -74.605 H86.25 V-79.48 Q86.25 -82.177 88.198 -84.078 Q90.145 -85.98 92.91 -85.98 Q95.622 -85.98 97.498 -84.078 Q99.375 -82.177 99.375 -79.48 V-74.605 H104.25 Q106.947 -74.605 108.848 -72.718 Q110.75 -70.831 110.75 -68.155 Q110.75 -65.48 108.848 -63.48 Q106.947 -61.48 104.25 -61.48 H99.375 V-56.605 Q99.375 -53.983 97.488 -52.044 Q95.601 -50.105 92.925 -50.105 Z M26.25 15.52 Q19.075 15.52 14.162 10.608 Q9.25 5.695 9.25 -1.48 V-68.98 Q9.25 -76.155 14.162 -81.067 Q19.075 -85.98 26.25 -85.98 H61.375 Q65 -85.98 67.438 -83.542 Q69.875 -81.105 69.875 -77.48 V-62.105 Q69.875 -54.98 74.812 -50.042 Q79.75 -45.105 86.875 -45.105 H102.25 Q105.875 -45.105 108.312 -42.667 Q110.75 -40.23 110.75 -36.605 V-1.48 Q110.75 5.695 105.838 10.608 Q100.925 15.52 93.75 15.52 H26.25 Z"/></g><g id="Semibold-M" transform="matrix(1 0 0 1 1985.97 1126)"><path d="M39.205 -8.936 Q41.723 -8.936 43.484 -10.711 Q45.245 -12.486 45.245 -14.996 V-40.284 Q45.245 -42.794 43.478 -44.569 Q41.712 -46.344 39.215 -46.344 Q36.718 -46.344 34.921 -44.569 Q33.125 -42.794 33.125 -40.284 V-14.996 Q33.125 -12.486 34.906 -10.711 Q36.687 -8.936 39.205 -8.936 Z M60.074 -8.936 Q62.592 -8.936 64.353 -10.711 Q66.114 -12.486 66.114 -14.996 V-55.464 Q66.114 -57.973 64.348 -59.748 Q62.581 -61.523 60.084 -61.523 Q57.587 -61.523 55.791 -59.748 Q53.995 -57.973 53.995 -55.464 V-14.996 Q53.995 -12.486 55.775 -10.711 Q57.556 -8.936 60.074 -8.936 Z M80.785 -8.936 Q83.282 -8.936 85.079 -10.711 Q86.875 -12.486 86.875 -14.996 V-25.176 Q86.875 -27.643 85.094 -29.439 Q83.314 -31.235 80.795 -31.235 Q78.277 -31.235 76.516 -29.439 Q74.755 -27.643 74.755 -25.176 V-14.996 Q74.755 -12.486 76.522 -10.711 Q78.288 -8.936 80.785 -8.936 Z M92.686 -50.485 Q89.978 -50.485 88.005 -52.444 Q86.033 -54.403 86.033 -57.11 V-61.263 H81.81 Q79.132 -61.263 77.194 -63.206 Q75.255 -65.149 75.255 -67.907 Q75.255 -70.636 77.214 -72.539 Q79.173 -74.442 81.88 -74.442 H86.033 V-78.665 Q86.033 -81.385 87.976 -83.302 Q89.919 -85.219 92.677 -85.219 Q95.406 -85.219 97.309 -83.302 Q99.212 -81.385 99.212 -78.665 V-74.442 H103.435 Q106.155 -74.442 108.072 -72.533 Q109.989 -70.624 109.989 -67.916 Q109.989 -65.208 108.072 -63.235 Q106.155 -61.263 103.435 -61.263 H99.212 V-57.04 Q99.212 -54.362 97.303 -52.424 Q95.394 -50.485 92.686 -50.485 Z M25.381 14.759 Q18.934 14.759 14.472 10.298 Q10.011 5.836 10.011 -0.61 V-69.849 Q10.011 -76.296 14.472 -80.758 Q18.934 -85.219 25.381 -85.219 H62.571 Q65.815 -85.219 68.035 -82.999 Q70.255 -80.779 70.255 -77.534 V-60.855 Q70.255 -54.382 74.704 -49.934 Q79.152 -45.485 85.625 -45.485 H102.304 Q105.549 -45.485 107.769 -43.265 Q109.989 -41.045 109.989 -37.801 V-0.61 Q109.989 5.836 105.528 10.298 Q101.066 14.759 94.62 14.759 H25.381 Z"/></g><g id="Medium-M" transform="matrix(1 0 0 1 1689.91 1126)"><path d="M38.582 -8.529 Q41.234 -8.529 43.096 -10.398 Q44.959 -12.266 44.959 -14.915 V-40.325 Q44.959 -42.973 43.094 -44.842 Q41.229 -46.711 38.586 -46.711 Q35.943 -46.711 34.065 -44.842 Q32.188 -42.973 32.188 -40.325 V-14.915 Q32.188 -12.266 34.059 -10.398 Q35.93 -8.529 38.582 -8.529 Z M60.103 -8.529 Q62.755 -8.529 64.618 -10.398 Q66.481 -12.266 66.481 -14.915 V-55.545 Q66.481 -58.194 64.616 -60.062 Q62.751 -61.931 60.108 -61.931 Q57.465 -61.931 55.587 -60.062 Q53.709 -58.194 53.709 -55.545 V-14.915 Q53.709 -12.266 55.58 -10.398 Q57.452 -8.529 60.103 -8.529 Z M81.414 -8.529 Q84.057 -8.529 85.935 -10.398 Q87.812 -12.266 87.812 -14.915 V-25.135 Q87.812 -27.765 85.941 -29.643 Q84.07 -31.521 81.418 -31.521 Q78.766 -31.521 76.903 -29.643 Q75.041 -27.765 75.041 -25.135 V-14.915 Q75.041 -12.266 76.906 -10.398 Q78.771 -8.529 81.414 -8.529 Z M92.507 -50.771 Q89.775 -50.771 87.822 -52.717 Q85.87 -54.664 85.87 -57.396 V-61.1 H82.136 Q79.416 -61.1 77.479 -63.039 Q75.541 -64.979 75.541 -67.733 Q75.541 -70.474 77.487 -72.397 Q79.434 -74.32 82.166 -74.32 H85.87 V-78.053 Q85.87 -80.791 87.809 -82.72 Q89.749 -84.648 92.503 -84.648 Q95.244 -84.648 97.167 -82.72 Q99.09 -80.791 99.09 -78.053 V-74.32 H102.823 Q105.561 -74.32 107.49 -72.394 Q109.418 -70.469 109.418 -67.737 Q109.418 -65.004 107.49 -63.052 Q105.561 -61.1 102.823 -61.1 H99.09 V-57.366 Q99.09 -54.646 97.164 -52.709 Q95.239 -50.771 92.507 -50.771 Z M24.728 14.189 Q18.828 14.189 14.705 10.065 Q10.582 5.942 10.582 0.042 V-70.502 Q10.582 -76.402 14.705 -80.525 Q18.828 -84.648 24.728 -84.648 H63.467 Q66.427 -84.648 68.484 -82.591 Q70.541 -80.534 70.541 -77.575 V-59.917 Q70.541 -53.934 74.622 -49.852 Q78.704 -45.771 84.688 -45.771 H102.345 Q105.304 -45.771 107.361 -43.714 Q109.418 -41.657 109.418 -38.697 V0.042 Q109.418 5.942 105.295 10.065 Q101.172 14.189 95.272 14.189 H24.728 Z"/></g><g id="Regular-M" transform="matrix(1 0 0 1 1394.06 1126)"><path d="M38.125 -8.23 Q40.875 -8.23 42.812 -10.167 Q44.75 -12.105 44.75 -14.855 V-40.355 Q44.75 -43.105 42.812 -45.042 Q40.875 -46.98 38.125 -46.98 Q35.375 -46.98 33.438 -45.042 Q31.5 -43.105 31.5 -40.355 V-14.855 Q31.5 -12.105 33.438 -10.167 Q35.375 -8.23 38.125 -8.23 Z M60.125 -8.23 Q62.875 -8.23 64.812 -10.167 Q66.75 -12.105 66.75 -14.855 V-55.605 Q66.75 -58.355 64.812 -60.292 Q62.875 -62.23 60.125 -62.23 Q57.375 -62.23 55.438 -60.292 Q53.5 -58.355 53.5 -55.605 V-14.855 Q53.5 -12.105 55.438 -10.167 Q57.375 -8.23 60.125 -8.23 Z M81.875 -8.23 Q84.625 -8.23 86.562 -10.167 Q88.5 -12.105 88.5 -14.855 V-25.105 Q88.5 -27.855 86.562 -29.792 Q84.625 -31.73 81.875 -31.73 Q79.125 -31.73 77.188 -29.792 Q75.25 -27.855 75.25 -25.105 V-14.855 Q75.25 -12.105 77.188 -10.167 Q79.125 -8.23 81.875 -8.23 Z M92.375 -50.98 Q89.625 -50.98 87.688 -52.917 Q85.75 -54.855 85.75 -57.605 V-60.98 H82.375 Q79.625 -60.98 77.688 -62.917 Q75.75 -64.855 75.75 -67.605 Q75.75 -70.355 77.688 -72.292 Q79.625 -74.23 82.375 -74.23 H85.75 V-77.605 Q85.75 -80.355 87.688 -82.292 Q89.625 -84.23 92.375 -84.23 Q95.125 -84.23 97.062 -82.292 Q99 -80.355 99 -77.605 V-74.23 H102.375 Q105.125 -74.23 107.062 -72.292 Q109 -70.355 109 -67.605 Q109 -64.855 107.062 -62.917 Q105.125 -60.98 102.375 -60.98 H99 V-57.605 Q99 -54.855 97.062 -52.917 Q95.125 -50.98 92.375 -50.98 Z M24.25 13.77 Q18.75 13.77 14.875 9.895 Q11 6.02 11 0.52 V-70.98 Q11 -76.48 14.875 -80.355 Q18.75 -84.23 24.25 -84.23 H64.125 Q66.875 -84.23 68.812 -82.292 Q70.75 -80.355 70.75 -77.605 V-59.23 Q70.75 -53.605 74.562 -49.792 Q78.375 -45.98 84 -45.98 H102.375 Q105.125 -45.98 107.062 -44.042 Q109 -42.105 109 -39.355 V0.52 Q109 6.02 105.125 9.895 Q101.25 13.77 95.75 13.77 H24.25 Z"/></g><g id="Light-M" transform="matrix(1 0 0 1 1098.18 1126)"><path d="M37.453 -9.48 Q39.673 -9.48 41.25 -11.058 Q42.827 -12.636 42.827 -14.855 V-40.355 Q42.827 -42.574 41.248 -44.152 Q39.67 -45.73 37.45 -45.73 Q35.231 -45.73 33.654 -44.152 Q32.077 -42.574 32.077 -40.355 V-14.855 Q32.077 -12.636 33.656 -11.058 Q35.234 -9.48 37.453 -9.48 Z M58.877 -9.48 Q61.096 -9.48 62.673 -11.058 Q64.25 -12.636 64.25 -14.855 V-55.605 Q64.25 -57.824 62.671 -59.402 Q61.093 -60.98 58.873 -60.98 Q56.654 -60.98 55.077 -59.402 Q53.5 -57.824 53.5 -55.605 V-14.855 Q53.5 -12.636 55.079 -11.058 Q56.657 -9.48 58.877 -9.48 Z M80.05 -9.48 Q82.269 -9.48 83.846 -11.058 Q85.423 -12.636 85.423 -14.855 V-25.105 Q85.423 -27.324 83.844 -28.902 Q82.266 -30.48 80.046 -30.48 Q77.827 -30.48 76.25 -28.902 Q74.673 -27.324 74.673 -25.105 V-14.855 Q74.673 -12.636 76.252 -11.058 Q77.83 -9.48 80.05 -9.48 Z M92.373 -53.48 Q90.154 -53.48 88.577 -55.058 Q87 -56.636 87 -58.855 V-63.48 H82.375 Q80.156 -63.48 78.578 -65.059 Q77 -66.637 77 -68.857 Q77 -71.076 78.578 -72.653 Q80.156 -74.23 82.375 -74.23 H87 V-78.855 Q87 -81.074 88.579 -82.652 Q90.157 -84.23 92.377 -84.23 Q94.596 -84.23 96.173 -82.652 Q97.75 -81.074 97.75 -78.855 V-74.23 H102.375 Q104.594 -74.23 106.172 -72.651 Q107.75 -71.073 107.75 -68.853 Q107.75 -66.634 106.172 -65.057 Q104.594 -63.48 102.375 -63.48 H97.75 V-58.855 Q97.75 -56.636 96.171 -55.058 Q94.593 -53.48 92.373 -53.48 Z M24.538 11.27 Q19.375 11.27 15.813 7.707 Q12.25 4.145 12.25 -1.019 V-69.441 Q12.25 -74.605 15.813 -78.167 Q19.375 -81.73 24.538 -81.73 H66.433 Q68.652 -81.73 70.23 -80.152 Q71.808 -78.574 71.808 -76.355 V-60.576 Q71.808 -55.348 75.338 -51.818 Q78.868 -48.288 84.096 -48.288 H99.875 Q102.094 -48.288 103.672 -46.71 Q105.25 -45.132 105.25 -42.913 V-1.019 Q105.25 4.145 101.687 7.707 Q98.125 11.27 92.961 11.27 H24.538 Z"/></g><g id="Thin-M" transform="matrix(1 0 0 1 802.565 1126)"><path d="M36.782 -10.73 Q38.471 -10.73 39.688 -11.949 Q40.904 -13.167 40.904 -14.855 V-40.355 Q40.904 -42.042 39.684 -43.261 Q38.464 -44.48 36.776 -44.48 Q35.087 -44.48 33.87 -43.261 Q32.654 -42.042 32.654 -40.355 V-14.855 Q32.654 -13.167 33.874 -11.949 Q35.093 -10.73 36.782 -10.73 Z M57.628 -10.73 Q59.317 -10.73 60.534 -11.949 Q61.75 -13.167 61.75 -14.855 V-55.605 Q61.75 -57.292 60.53 -58.511 Q59.311 -59.73 57.622 -59.73 Q55.933 -59.73 54.716 -58.511 Q53.5 -57.292 53.5 -55.605 V-14.855 Q53.5 -13.167 54.72 -11.949 Q55.94 -10.73 57.628 -10.73 Z M78.225 -10.73 Q79.913 -10.73 81.13 -11.949 Q82.346 -13.167 82.346 -14.855 V-25.105 Q82.346 -26.792 81.126 -28.011 Q79.907 -29.23 78.218 -29.23 Q76.529 -29.23 75.312 -28.011 Q74.096 -26.792 74.096 -25.105 V-14.855 Q74.096 -13.167 75.316 -11.949 Q76.536 -10.73 78.225 -10.73 Z M92.372 -55.98 Q90.683 -55.98 89.466 -57.199 Q88.25 -58.417 88.25 -60.105 V-65.98 H82.375 Q80.688 -65.98 79.469 -67.2 Q78.25 -68.419 78.25 -70.108 Q78.25 -71.797 79.469 -73.014 Q80.688 -74.23 82.375 -74.23 H88.25 V-80.105 Q88.25 -81.792 89.47 -83.011 Q90.689 -84.23 92.378 -84.23 Q94.067 -84.23 95.284 -83.011 Q96.5 -81.792 96.5 -80.105 V-74.23 H102.375 Q104.062 -74.23 105.281 -73.01 Q106.5 -71.79 106.5 -70.102 Q106.5 -68.413 105.281 -67.196 Q104.062 -65.98 102.375 -65.98 H96.5 V-60.105 Q96.5 -58.417 95.28 -57.199 Q94.061 -55.98 92.372 -55.98 Z M24.827 8.77 Q20 8.77 16.75 5.52 Q13.5 2.27 13.5 -2.557 V-67.903 Q13.5 -72.73 16.75 -75.98 Q20 -79.23 24.827 -79.23 H68.74 Q70.428 -79.23 71.647 -78.011 Q72.865 -76.792 72.865 -75.105 V-61.922 Q72.865 -57.09 76.113 -53.843 Q79.361 -50.595 84.192 -50.595 H97.375 Q99.062 -50.595 100.281 -49.377 Q101.5 -48.158 101.5 -46.47 V-2.557 Q101.5 2.27 98.25 5.52 Q95 8.77 90.173 8.77 H24.827 Z"/></g><g id="Ultralight-M" transform="matrix(1 0 0 1 506.415 1126)"><path d="M36.379 -11.48 Q37.75 -11.48 38.75 -12.483 Q39.75 -13.486 39.75 -14.855 V-40.355 Q39.75 -41.724 38.746 -42.727 Q37.741 -43.73 36.371 -43.73 Q35 -43.73 34 -42.727 Q33 -41.724 33 -40.355 V-14.855 Q33 -13.486 34.004 -12.483 Q35.009 -11.48 36.379 -11.48 Z M56.879 -11.48 Q58.25 -11.48 59.25 -12.483 Q60.25 -13.486 60.25 -14.855 V-55.605 Q60.25 -56.974 59.246 -57.977 Q58.241 -58.98 56.871 -58.98 Q55.5 -58.98 54.5 -57.977 Q53.5 -56.974 53.5 -55.605 V-14.855 Q53.5 -13.486 54.504 -12.483 Q55.509 -11.48 56.879 -11.48 Z M77.129 -11.48 Q78.5 -11.48 79.5 -12.483 Q80.5 -13.486 80.5 -14.855 V-25.105 Q80.5 -26.474 79.496 -27.477 Q78.491 -28.48 77.121 -28.48 Q75.75 -28.48 74.75 -27.477 Q73.75 -26.474 73.75 -25.105 V-14.855 Q73.75 -13.486 74.754 -12.483 Q75.759 -11.48 77.129 -11.48 Z M92.371 -57.48 Q91 -57.48 90 -58.483 Q89 -59.486 89 -60.855 V-67.48 H82.375 Q81.006 -67.48 80.003 -68.484 Q79 -69.489 79 -70.859 Q79 -72.23 80.003 -73.23 Q81.006 -74.23 82.375 -74.23 H89 V-80.855 Q89 -82.224 90.004 -83.227 Q91.009 -84.23 92.379 -84.23 Q93.75 -84.23 94.75 -83.227 Q95.75 -82.224 95.75 -80.855 V-74.23 H102.375 Q103.744 -74.23 104.747 -73.226 Q105.75 -72.221 105.75 -70.851 Q105.75 -69.48 104.747 -68.48 Q103.744 -67.48 102.375 -67.48 H95.75 V-60.855 Q95.75 -59.486 94.746 -58.483 Q93.741 -57.48 92.371 -57.48 Z M25 7.27 Q20.375 7.27 17.312 4.208 Q14.25 1.145 14.25 -3.48 V-66.98 Q14.25 -71.605 17.312 -74.667 Q20.375 -77.73 25 -77.73 H70.125 Q71.494 -77.73 72.497 -76.727 Q73.5 -75.724 73.5 -74.355 V-62.73 Q73.5 -58.136 76.578 -55.058 Q79.656 -51.98 84.25 -51.98 H95.875 Q97.244 -51.98 98.247 -50.977 Q99.25 -49.974 99.25 -48.605 V-3.48 Q99.25 1.145 96.188 4.208 Q93.125 7.27 88.5 7.27 H25 Z"/></g><g id="Bold-S" transform="matrix(1 0 0 1 2294.23 696)"><path d="M31.961 -15.702 Q33.631 -15.702 34.815 -16.891 Q35.998 -18.079 35.998 -19.746 V-41.147 Q35.998 -42.814 34.828 -44.003 Q33.657 -45.191 32.017 -45.191 Q30.377 -45.191 29.144 -44.003 Q27.911 -42.814 27.911 -41.147 V-19.746 Q27.911 -18.079 29.101 -16.891 Q30.292 -15.702 31.961 -15.702 Z M47.347 -15.702 Q49.017 -15.702 50.2 -16.891 Q51.384 -18.079 51.384 -19.746 V-50.714 Q51.384 -52.381 50.213 -53.569 Q49.043 -54.758 47.402 -54.758 Q45.762 -54.758 44.529 -53.569 Q43.296 -52.381 43.296 -50.714 V-19.746 Q43.296 -18.079 44.487 -16.891 Q45.677 -15.702 47.347 -15.702 Z M62.663 -15.702 Q64.303 -15.702 65.536 -16.891 Q66.769 -18.079 66.769 -19.746 V-31.679 Q66.769 -33.287 65.579 -34.505 Q64.388 -35.723 62.719 -35.723 Q61.049 -35.723 59.865 -34.505 Q58.682 -33.287 58.682 -31.679 V-19.746 Q58.682 -18.079 59.852 -16.891 Q61.023 -15.702 62.663 -15.702 Z M72.155 -46.966 Q70.221 -46.966 68.753 -48.411 Q67.285 -49.856 67.285 -51.799 V-55.152 H63.822 Q61.916 -55.152 60.496 -56.576 Q59.076 -57.999 59.076 -60.013 Q59.076 -61.984 60.524 -63.352 Q61.973 -64.719 63.921 -64.719 H67.285 V-68.171 Q67.285 -70.131 68.712 -71.518 Q70.138 -72.905 72.143 -72.905 Q74.106 -72.905 75.468 -71.518 Q76.829 -70.131 76.829 -68.171 V-64.719 H80.26 Q82.211 -64.719 83.613 -63.349 Q85.015 -61.98 85.015 -60.045 Q85.015 -58.111 83.628 -56.646 Q82.241 -55.182 80.281 -55.182 H76.829 V-51.73 Q76.829 -49.829 75.459 -48.398 Q74.09 -46.966 72.155 -46.966 Z M22.289 2.445 Q16.954 2.445 13.309 -1.199 Q9.665 -4.844 9.665 -10.179 V-60.281 Q9.665 -65.616 13.309 -69.261 Q16.954 -72.905 22.289 -72.905 H45.695 Q48.326 -72.905 50.151 -71.095 Q51.975 -69.285 51.975 -66.593 V-52.489 Q51.975 -47.193 55.639 -43.529 Q59.303 -39.865 64.599 -39.865 H78.703 Q81.395 -39.865 83.205 -38.056 Q85.015 -36.246 85.015 -33.553 V-10.179 Q85.015 -4.844 81.371 -1.199 Q77.726 2.445 72.391 2.445 H22.289 Z"/></g><g id="Semibold-S" transform="matrix(1 0 0 1 1998.1 696)"><path d="M31.306 -15.273 Q33.117 -15.273 34.407 -16.56 Q35.698 -17.848 35.698 -19.66 V-41.19 Q35.698 -43.003 34.424 -44.29 Q33.149 -45.577 31.356 -45.577 Q29.562 -45.577 28.243 -44.29 Q26.925 -43.003 26.925 -41.19 V-19.66 Q26.925 -17.848 28.21 -16.56 Q29.496 -15.273 31.306 -15.273 Z M47.378 -15.273 Q49.188 -15.273 50.479 -16.56 Q51.77 -17.848 51.77 -19.66 V-50.8 Q51.77 -52.612 50.495 -53.9 Q49.221 -55.187 47.427 -55.187 Q45.633 -55.187 44.315 -53.9 Q42.996 -52.612 42.996 -50.8 V-19.66 Q42.996 -17.848 44.282 -16.56 Q45.567 -15.273 47.378 -15.273 Z M63.324 -15.273 Q65.118 -15.273 66.437 -16.56 Q67.755 -17.848 67.755 -19.66 V-31.637 Q67.755 -33.416 66.47 -34.72 Q65.184 -36.023 63.374 -36.023 Q61.563 -36.023 60.273 -34.72 Q58.982 -33.416 58.982 -31.637 V-19.66 Q58.982 -17.848 60.256 -16.56 Q61.531 -15.273 63.324 -15.273 Z M71.967 -47.266 Q70.007 -47.266 68.56 -48.699 Q67.114 -50.13 67.114 -52.099 V-54.981 H64.165 Q62.215 -54.981 60.796 -56.401 Q59.376 -57.82 59.376 -59.829 Q59.376 -61.814 60.812 -63.202 Q62.247 -64.59 64.221 -64.59 H67.114 V-67.528 Q67.114 -69.506 68.537 -70.905 Q69.96 -72.304 71.96 -72.304 Q73.936 -72.304 75.318 -70.905 Q76.7 -69.506 76.7 -67.528 V-64.59 H79.617 Q81.586 -64.59 83 -63.203 Q84.414 -61.817 84.414 -59.857 Q84.414 -57.897 83.015 -56.454 Q81.616 -55.01 79.638 -55.01 H76.7 V-52.073 Q76.7 -50.128 75.313 -48.697 Q73.927 -47.266 71.967 -47.266 Z M21.603 1.844 Q16.842 1.844 13.554 -1.444 Q10.266 -4.732 10.266 -9.493 V-60.967 Q10.266 -65.728 13.554 -69.016 Q16.842 -72.304 21.603 -72.304 H46.638 Q48.969 -72.304 50.622 -70.666 Q52.275 -69.028 52.275 -66.636 V-51.503 Q52.275 -46.722 55.554 -43.444 Q58.832 -40.165 63.613 -40.165 H78.746 Q81.138 -40.165 82.776 -38.527 Q84.414 -36.889 84.414 -34.497 V-9.493 Q84.414 -4.732 81.126 -1.444 Q77.838 1.844 73.077 1.844 H21.603 Z"/></g><g id="Medium-S" transform="matrix(1 0 0 1 1701.85 696)"><path d="M30.815 -14.952 Q32.731 -14.952 34.102 -16.313 Q35.473 -17.674 35.473 -19.596 V-41.223 Q35.473 -43.144 34.121 -44.505 Q32.768 -45.867 30.86 -45.867 Q28.951 -45.867 27.568 -44.505 Q26.185 -43.144 26.185 -41.223 V-19.596 Q26.185 -17.674 27.542 -16.313 Q28.899 -14.952 30.815 -14.952 Z M47.401 -14.952 Q49.317 -14.952 50.688 -16.313 Q52.059 -17.674 52.059 -19.596 V-50.864 Q52.059 -52.786 50.707 -54.147 Q49.355 -55.508 47.446 -55.508 Q45.537 -55.508 44.154 -54.147 Q42.771 -52.786 42.771 -50.864 V-19.596 Q42.771 -17.674 44.128 -16.313 Q45.485 -14.952 47.401 -14.952 Z M63.82 -14.952 Q65.729 -14.952 67.112 -16.313 Q68.495 -17.674 68.495 -19.596 V-31.604 Q68.495 -33.512 67.138 -34.88 Q65.781 -36.248 63.865 -36.248 Q61.949 -36.248 60.578 -34.88 Q59.207 -33.512 59.207 -31.604 V-19.596 Q59.207 -17.674 60.559 -16.313 Q61.912 -14.952 63.82 -14.952 Z M71.825 -47.492 Q69.846 -47.492 68.415 -48.914 Q66.985 -50.336 66.985 -52.324 V-54.852 H64.422 Q62.439 -54.852 61.021 -56.269 Q59.602 -57.686 59.602 -59.691 Q59.602 -61.686 61.027 -63.09 Q62.453 -64.494 64.446 -64.494 H66.985 V-67.045 Q66.985 -69.037 68.406 -70.446 Q69.826 -71.854 71.822 -71.854 Q73.808 -71.854 75.206 -70.446 Q76.604 -69.037 76.604 -67.045 V-64.494 H79.134 Q81.118 -64.494 82.541 -63.094 Q83.964 -61.694 83.964 -59.715 Q83.964 -57.736 82.556 -56.309 Q81.147 -54.882 79.155 -54.882 H76.604 V-52.33 Q76.604 -50.352 75.204 -48.922 Q73.804 -47.492 71.825 -47.492 Z M21.089 1.394 Q16.759 1.394 13.737 -1.627 Q10.716 -4.649 10.716 -8.979 V-61.481 Q10.716 -65.811 13.737 -68.833 Q16.759 -71.854 21.089 -71.854 H47.346 Q49.452 -71.854 50.976 -70.345 Q52.501 -68.835 52.501 -66.668 V-50.763 Q52.501 -46.368 55.489 -43.379 Q58.478 -40.391 62.873 -40.391 H78.778 Q80.945 -40.391 82.455 -38.881 Q83.964 -37.371 83.964 -35.204 V-8.979 Q83.964 -4.649 80.943 -1.627 Q77.921 1.394 73.591 1.394 H21.089 Z"/></g><g id="Regular-S" transform="matrix(1 0 0 1 1405.73 696)"><path d="M30.454 -14.716 Q32.448 -14.716 33.878 -16.131 Q35.308 -17.547 35.308 -19.549 V-41.246 Q35.308 -43.248 33.898 -44.663 Q32.489 -46.079 30.496 -46.079 Q28.503 -46.079 27.073 -44.663 Q25.643 -43.248 25.643 -41.246 V-19.549 Q25.643 -17.547 27.052 -16.131 Q28.461 -14.716 30.454 -14.716 Z M47.418 -14.716 Q49.411 -14.716 50.841 -16.131 Q52.271 -17.547 52.271 -19.549 V-50.911 Q52.271 -52.913 50.862 -54.329 Q49.453 -55.744 47.459 -55.744 Q45.466 -55.744 44.036 -54.329 Q42.606 -52.913 42.606 -50.911 V-19.549 Q42.606 -17.547 44.015 -16.131 Q45.425 -14.716 47.418 -14.716 Z M64.184 -14.716 Q66.177 -14.716 67.607 -16.131 Q69.038 -17.547 69.038 -19.549 V-31.581 Q69.038 -33.583 67.628 -34.998 Q66.219 -36.413 64.226 -36.413 Q62.232 -36.413 60.802 -34.998 Q59.372 -33.583 59.372 -31.581 V-19.549 Q59.372 -17.547 60.782 -16.131 Q62.191 -14.716 64.184 -14.716 Z M71.721 -47.657 Q69.728 -47.657 68.309 -49.072 Q66.891 -50.487 66.891 -52.489 V-54.758 H64.611 Q62.604 -54.758 61.185 -56.173 Q59.767 -57.588 59.767 -59.59 Q59.767 -61.592 61.185 -63.008 Q62.604 -64.423 64.611 -64.423 H66.891 V-66.691 Q66.891 -68.693 68.309 -70.109 Q69.728 -71.524 71.721 -71.524 Q73.714 -71.524 75.124 -70.109 Q76.533 -68.693 76.533 -66.691 V-64.423 H78.781 Q80.774 -64.423 82.204 -63.014 Q83.634 -61.604 83.634 -59.611 Q83.634 -57.618 82.219 -56.203 Q80.803 -54.787 78.801 -54.787 H76.533 V-52.519 Q76.533 -50.517 75.124 -49.087 Q73.714 -47.657 71.721 -47.657 Z M20.711 1.064 Q16.697 1.064 13.872 -1.762 Q11.046 -4.587 11.046 -8.601 V-61.859 Q11.046 -65.873 13.872 -68.698 Q16.697 -71.524 20.711 -71.524 H47.865 Q49.806 -71.524 51.236 -70.109 Q52.666 -68.693 52.666 -66.691 V-50.221 Q52.666 -46.108 55.442 -43.332 Q58.218 -40.556 62.331 -40.556 H78.801 Q80.803 -40.556 82.219 -39.14 Q83.634 -37.725 83.634 -35.723 V-8.601 Q83.634 -4.587 80.808 -1.762 Q77.983 1.064 73.969 1.064 H20.711 Z"/></g><g id="Light-S" transform="matrix(1 0 0 1 1109.75 696)"><path d="M29.925 -15.702 Q31.499 -15.702 32.645 -16.834 Q33.79 -17.966 33.79 -19.549 V-41.246 Q33.79 -42.829 32.664 -43.961 Q31.538 -45.092 29.963 -45.092 Q28.389 -45.092 27.243 -43.961 Q26.098 -42.829 26.098 -41.246 V-19.549 Q26.098 -17.966 27.224 -16.834 Q28.35 -15.702 29.925 -15.702 Z M46.433 -15.702 Q48.007 -15.702 49.153 -16.834 Q50.299 -17.966 50.299 -19.549 V-50.911 Q50.299 -52.494 49.172 -53.626 Q48.046 -54.758 46.472 -54.758 Q44.897 -54.758 43.752 -53.626 Q42.606 -52.494 42.606 -50.911 V-19.549 Q42.606 -17.966 43.732 -16.834 Q44.858 -15.702 46.433 -15.702 Z M62.744 -15.702 Q64.318 -15.702 65.464 -16.834 Q66.61 -17.966 66.61 -19.549 V-31.581 Q66.61 -33.164 65.484 -34.295 Q64.357 -35.427 62.783 -35.427 Q61.208 -35.427 60.063 -34.295 Q58.917 -33.164 58.917 -31.581 V-19.549 Q58.917 -17.966 60.043 -16.834 Q61.169 -15.702 62.744 -15.702 Z M71.72 -49.629 Q70.145 -49.629 69.011 -50.761 Q67.877 -51.893 67.877 -53.476 V-56.73 H64.611 Q63.023 -56.73 61.888 -57.862 Q60.753 -58.995 60.753 -60.578 Q60.753 -62.162 61.888 -63.292 Q63.023 -64.423 64.611 -64.423 H67.877 V-67.678 Q67.877 -69.261 69.012 -70.392 Q70.148 -71.524 71.722 -71.524 Q73.297 -71.524 74.422 -70.392 Q75.547 -69.261 75.547 -67.678 V-64.423 H78.781 Q80.355 -64.423 81.501 -63.297 Q82.648 -62.171 82.648 -60.596 Q82.648 -59.022 81.516 -57.891 Q80.384 -56.76 78.801 -56.76 H75.547 V-53.505 Q75.547 -51.922 74.421 -50.776 Q73.294 -49.629 71.72 -49.629 Z M20.939 -0.909 Q17.19 -0.909 14.611 -3.488 Q12.032 -6.067 12.032 -9.815 V-60.645 Q12.032 -64.393 14.611 -66.972 Q17.19 -69.551 20.939 -69.551 H49.686 Q51.207 -69.551 52.354 -68.42 Q53.5 -67.288 53.5 -65.705 V-51.283 Q53.5 -47.483 56.054 -44.93 Q58.607 -42.377 62.407 -42.377 H76.829 Q78.412 -42.377 79.543 -41.245 Q80.675 -40.113 80.675 -38.53 V-9.815 Q80.675 -6.067 78.096 -3.488 Q75.517 -0.909 71.769 -0.909 H20.939 Z"/></g><g id="Thin-S" transform="matrix(1 0 0 1 814.015 696)"><path d="M29.395 -16.688 Q30.551 -16.688 31.412 -17.537 Q32.273 -18.385 32.273 -19.549 V-41.246 Q32.273 -42.41 31.43 -43.258 Q30.587 -44.106 29.431 -44.106 Q28.275 -44.106 27.414 -43.258 Q26.553 -42.41 26.553 -41.246 V-19.549 Q26.553 -18.385 27.396 -17.537 Q28.239 -16.688 29.395 -16.688 Z M45.448 -16.688 Q46.604 -16.688 47.465 -17.537 Q48.326 -18.385 48.326 -19.549 V-50.911 Q48.326 -52.075 47.483 -52.923 Q46.64 -53.771 45.484 -53.771 Q44.328 -53.771 43.467 -52.923 Q42.606 -52.075 42.606 -50.911 V-19.549 Q42.606 -18.385 43.449 -17.537 Q44.292 -16.688 45.448 -16.688 Z M61.304 -16.688 Q62.46 -16.688 63.321 -17.537 Q64.182 -18.385 64.182 -19.549 V-31.581 Q64.182 -32.745 63.339 -33.593 Q62.496 -34.441 61.34 -34.441 Q60.184 -34.441 59.323 -33.593 Q58.462 -32.745 58.462 -31.581 V-19.549 Q58.462 -18.385 59.305 -17.537 Q60.148 -16.688 61.304 -16.688 Z M71.719 -51.602 Q70.562 -51.602 69.713 -52.45 Q68.863 -53.298 68.863 -54.462 V-58.703 H64.611 Q63.442 -58.703 62.591 -59.552 Q61.739 -60.401 61.739 -61.566 Q61.739 -62.73 62.591 -63.577 Q63.442 -64.423 64.611 -64.423 H68.863 V-68.664 Q68.863 -69.828 69.715 -70.676 Q70.568 -71.524 71.724 -71.524 Q72.88 -71.524 73.72 -70.676 Q74.561 -69.828 74.561 -68.664 V-64.423 H78.781 Q79.936 -64.423 80.799 -63.58 Q81.662 -62.737 81.662 -61.581 Q81.662 -60.425 80.813 -59.579 Q79.965 -58.732 78.801 -58.732 H74.561 V-54.491 Q74.561 -53.328 73.718 -52.465 Q72.875 -51.602 71.719 -51.602 Z M21.166 -2.881 Q17.683 -2.881 15.351 -5.213 Q13.019 -7.546 13.019 -11.029 V-59.431 Q13.019 -62.914 15.351 -65.247 Q17.683 -67.579 21.166 -67.579 H51.506 Q52.609 -67.579 53.472 -66.731 Q54.335 -65.883 54.335 -64.719 V-52.345 Q54.335 -48.858 56.665 -46.528 Q58.996 -44.197 62.483 -44.197 H74.856 Q76.02 -44.197 76.868 -43.349 Q77.716 -42.501 77.716 -41.337 V-11.029 Q77.716 -7.546 75.384 -5.213 Q73.052 -2.881 69.569 -2.881 H21.166 Z"/></g><g id="Ultralight-S" transform="matrix(1 0 0 1 517.792 696)"><path d="M29.077 -17.28 Q29.982 -17.28 30.672 -17.958 Q31.363 -18.636 31.363 -19.549 V-41.246 Q31.363 -42.158 30.69 -42.836 Q30.017 -43.514 29.112 -43.514 Q28.207 -43.514 27.516 -42.836 Q26.826 -42.158 26.826 -41.246 V-19.549 Q26.826 -18.636 27.499 -17.958 Q28.172 -17.28 29.077 -17.28 Z M44.857 -17.28 Q45.762 -17.28 46.452 -17.958 Q47.143 -18.636 47.143 -19.549 V-50.911 Q47.143 -51.824 46.47 -52.502 Q45.797 -53.18 44.892 -53.18 Q43.987 -53.18 43.296 -52.502 Q42.606 -51.824 42.606 -50.911 V-19.549 Q42.606 -18.636 43.279 -17.958 Q43.952 -17.28 44.857 -17.28 Z M60.44 -17.28 Q61.345 -17.28 62.035 -17.958 Q62.726 -18.636 62.726 -19.549 V-31.581 Q62.726 -32.493 62.052 -33.171 Q61.379 -33.849 60.474 -33.849 Q59.57 -33.849 58.879 -33.171 Q58.189 -32.493 58.189 -31.581 V-19.549 Q58.189 -18.636 58.862 -17.958 Q59.535 -17.28 60.44 -17.28 Z M71.718 -52.785 Q70.813 -52.785 70.134 -53.463 Q69.455 -54.141 69.455 -55.054 V-59.886 H64.611 Q63.694 -59.886 63.012 -60.565 Q62.331 -61.244 62.331 -62.158 Q62.331 -63.072 63.012 -63.747 Q63.694 -64.423 64.611 -64.423 H69.455 V-69.256 Q69.455 -70.168 70.137 -70.846 Q70.82 -71.524 71.725 -71.524 Q72.63 -71.524 73.299 -70.846 Q73.969 -70.168 73.969 -69.256 V-64.423 H78.781 Q79.684 -64.423 80.377 -63.75 Q81.07 -63.077 81.07 -62.172 Q81.07 -61.267 80.392 -60.591 Q79.714 -59.916 78.801 -59.916 H73.969 V-55.083 Q73.969 -54.171 73.296 -53.478 Q72.623 -52.785 71.718 -52.785 Z M21.303 -4.064 Q17.979 -4.064 15.795 -6.249 Q13.61 -8.434 13.61 -11.757 V-58.703 Q13.61 -62.026 15.795 -64.211 Q17.979 -66.395 21.303 -66.395 H52.599 Q53.45 -66.395 54.143 -65.717 Q54.836 -65.039 54.836 -64.127 V-52.982 Q54.836 -49.683 57.032 -47.487 Q59.229 -45.29 62.528 -45.29 H73.673 Q74.585 -45.29 75.263 -44.612 Q75.941 -43.934 75.941 -43.021 V-11.757 Q75.941 -8.434 73.757 -6.249 Q71.572 -4.064 68.249 -4.064 H21.303 Z"/></g></g></svg>