<svg xmlns="http://www.w3.org/2000/svg" height="20" viewBox="0 -960 960 960" width="20"><path d="M480.049-142.154q-69.263 0-130.888-26.469-61.625-26.47-107.951-72.808-46.326-46.338-72.691-107.838-26.365-61.499-26.365-130.682 0-70.263 26.469-131.388 26.47-61.125 72.808-107.451 46.338-46.326 107.838-72.691 61.499-26.365 130.682-26.365 70.263 0 131.388 26.469 61.125 26.47 107.451 72.808 46.326 46.338 72.691 107.338 26.365 60.999 26.365 131.182 0 69.263-26.469 130.888-26.47 61.625-72.808 107.951-46.338 46.326-107.338 72.691-60.999 26.365-131.182 26.365Zm-14.318-28.5v-84.192q-40.315-2.653-73.943-16.696-33.627-14.043-59.98-38.804l-59.846 58.192q38.769 34.462 87.821 56.627 49.052 22.166 105.948 24.873Zm28.923 0q56.654-2.692 105.25-24.95t87.75-56.55l-59.077-58.192q-26.654 24.615-60.376 38.749-33.722 14.134-73.547 16.623v84.32Zm-14.581-112.154q82.389 0 139.946-57.438 57.558-57.438 57.558-139.827t-57.518-139.946q-57.517-57.558-140.019-57.558-82.502 0-139.867 57.518-57.365 57.517-57.365 140.019 0 82.502 57.438 139.867 57.438 57.365 139.827 57.365Zm227.658 10.846q34.483-38.98 56.664-87.964 22.181-48.984 25.336-105.805h-84.662q-2.532 40.21-16.666 73.932t-38.864 59.991l58.192 59.846Zm-455.577 0 58.192-58.576q-24.761-26.354-38.804-60.528-14.043-34.174-16.696-74.665h-84.192q2.692 57.039 24.865 106.019 22.173 48.981 56.635 87.75Zm217.538-105.346-65.5-86.423q-6.346-7.077-6.346-16.269 0-9.192 6.346-16.654l65.45-85.963q3.935-6.037 10.346-6.037t10.32 5.962l65.884 86.038q5.962 7.462 5.962 16.654t-5.962 16.269l-65.809 86.323q-3.96 6.062-10.371 6.062-6.411 0-10.32-5.962ZM170.654-494.654h84.192q2.617-40 16.751-74.269 14.134-34.269 38.749-60.35l-58.192-58.381q-34.292 39.154-56.517 87.821-22.225 48.668-24.983 105.179Zm534.415 0h84.662q-3.077-56.511-24.699-105.179-21.622-48.667-56.417-87.821l-59.076 59.077q24.73 26.654 38.864 60.376 14.134 33.722 16.666 73.547ZM330.538-649.539q26.27-24.73 60.471-38.835 34.201-14.105 74.722-16.78v-84.577q-57.039 3.077-105.946 25.28-48.907 22.203-87.823 56.72l58.576 58.192Zm298.039 0 59.077-59.076q-39.154-34.795-87.821-56.417-48.668-21.622-105.179-24.699v84.662q39.825 2.532 73.547 16.666 33.722 14.134 60.376 38.864Z"/></svg>