<svg xmlns="http://www.w3.org/2000/svg" version="1.1" width="3300" height="2000"><g id="Notes"><style>
    text {
      font-family: monospace;
      text-anchor: middle;
    }
    text.emphasis {
      font-weight:bold;
    }
    text.lanchor {
      text-anchor: start;
    }
  </style><rect height="2200" id="artboard" fill="white" width="3300" x="0" y="0"/><line id="" style="fill:none;stroke:black;stroke-width:0.5;" x1="263" x2="3036" y1="292" y2="292"/><text class="lanchor emphasis" transform="matrix(1 0 0 1 263 322)">Weight/Scale Variations</text><text transform="matrix(1 0 0 1 559.711 322)">Ultralight</text><text transform="matrix(1 0 0 1 856.422 322)">Thin</text><text transform="matrix(1 0 0 1 1153.13 322)">Light</text><text transform="matrix(1 0 0 1 1449.84 322)">Regular</text><text transform="matrix(1 0 0 1 1746.56 322)">Medium</text><text transform="matrix(1 0 0 1 2043.27 322)">Semibold</text><text transform="matrix(1 0 0 1 2339.98 322)">Bold</text><text transform="matrix(1 0 0 1 2636.69 322)">Heavy</text><text transform="matrix(1 0 0 1 2933.4 322)">Black</text><text id="template-version" style="text-anchor: end;" transform="matrix(1 0 0 1 3036 1933)">Template v.1.0</text><text class="lanchor" transform="matrix(1 0 0 1 263 726)">Small</text><text class="lanchor" transform="matrix(1 0 0 1 263 1156)">Medium</text><text class="lanchor" transform="matrix(1 0 0 1 263 1586)">Large</text></g><g id="Guides"><g id="H-reference" style="fill:#27AAE1;stroke:none;" transform="matrix(1 0 0 1 339 696)"><path d="M 54.9316 0 L 57.666 0 L 30.5664 -70.459 L 28.0762 -70.459 L 0.976562 0 L 3.66211 0 L 12.9395 -24.4629 L 45.7031 -24.4629 Z M 29.1992 -67.0898 L 29.4434 -67.0898 L 44.8242 -26.709 L 13.8184 -26.709 Z"/></g><line id="Baseline-S" style="fill:none;stroke:#27AAE1;opacity:1;stroke-width:0.577;" x1="263" x2="3036" y1="696" y2="696"/><line id="Capline-S" style="fill:none;stroke:#27AAE1;opacity:1;stroke-width:0.577;" x1="263" x2="3036" y1="625.541" y2="625.541"/><g id="H-reference" style="fill:#27AAE1;stroke:none;" transform="matrix(1 0 0 1 339 1126)"><path d="M 54.9316 0 L 57.666 0 L 30.5664 -70.459 L 28.0762 -70.459 L 0.976562 0 L 3.66211 0 L 12.9395 -24.4629 L 45.7031 -24.4629 Z M 29.1992 -67.0898 L 29.4434 -67.0898 L 44.8242 -26.709 L 13.8184 -26.709 Z"/></g><line id="Baseline-M" style="fill:none;stroke:#27AAE1;opacity:1;stroke-width:0.577;" x1="263" x2="3036" y1="1126" y2="1126"/><line id="Capline-M" style="fill:none;stroke:#27AAE1;opacity:1;stroke-width:0.577;" x1="263" x2="3036" y1="1055.54" y2="1055.54"/><g id="H-reference" style="fill:#27AAE1;stroke:none;" transform="matrix(1 0 0 1 339 1556)"><path d="M 54.9316 0 L 57.666 0 L 30.5664 -70.459 L 28.0762 -70.459 L 0.976562 0 L 3.66211 0 L 12.9395 -24.4629 L 45.7031 -24.4629 Z M 29.1992 -67.0898 L 29.4434 -67.0898 L 44.8242 -26.709 L 13.8184 -26.709 Z"/></g><line id="Baseline-L" style="fill:none;stroke:#27AAE1;opacity:1;stroke-width:0.577;" x1="263" x2="3036" y1="1556" y2="1556"/><line id="Capline-L" style="fill:none;stroke:#27AAE1;opacity:1;stroke-width:0.577;" x1="263" x2="3036" y1="1485.54" y2="1485.54"/><rect height="119.336" id="left-margin" style="fill:darkred;stroke:none;opacity:0.4;" width="12.4512" x="1394.06" y="1030.79"/><rect height="119.336" id="right-margin" style="fill:darkgreen;stroke:none;opacity:0.4;" width="12.4512" x="1502.5112" y="1030.79"/><rect x="1406.5112" y="1045" width="96" height="96" fill="none" stroke="blue" stroke-dasharray="5"/><rect x="1394.06" y="1030.79" width="120.9024" height="119.336" fill="none" stroke="blue"/></g><g id="Symbols"><g id="Bold-L" transform="matrix(1 0 0 1 2266 1556)"><path d="M114.321 28.464 Q101.679 28.464 93.046 19.746 Q84.414 11.027 84.414 -1.454 Q84.414 -13.935 93.052 -22.647 Q101.689 -31.36 114.332 -31.36 Q126.813 -31.36 135.525 -22.642 Q144.238 -13.924 144.238 -1.443 Q144.238 11.038 135.52 19.751 Q126.802 28.464 114.321 28.464 Z M123.637 15.725  129.161 10.001  116.99 -2.012 V-20.556 H108.844 V0.762 L123.637 15.725 Z M30.799 26.126 Q24.713 26.126 20.378 21.792 Q16.044 17.457 16.044 11.371 V-81.831 Q16.044 -88.348 20.163 -92.547 Q24.282 -96.747 30.799 -96.747 H59.017 Q60.711 -102.471 65.748 -106.261 Q70.786 -110.05 77.4 -110.05 Q83.689 -110.05 88.768 -106.261 Q93.847 -102.471 95.944 -96.747 H124.001 Q130.518 -96.747 134.717 -92.547 Q138.917 -88.348 138.917 -81.831 V-32.489 Q135.45 -34.746 131.779 -36.396 Q128.108 -38.045 124.001 -38.616 V-81.831 Q124.001 -81.831 124.001 -81.831 Q124.001 -81.831 124.001 -81.831 H115.536 V-66.029 H39.264 V-81.831 H30.799 Q30.799 -81.831 30.799 -81.831 Q30.799 -81.831 30.799 -81.831 V11.371 Q30.799 11.371 30.799 11.371 Q30.799 11.371 30.799 11.371 H77.481 Q78.609 15.403 80.786 19.232 Q82.963 23.062 86.027 26.126 H30.799 Z M77.409 -84.411 Q79.98 -84.411 81.834 -86.225 Q83.689 -88.039 83.689 -90.66 Q83.689 -93.119 81.85 -95.013 Q80.011 -96.908 77.415 -96.908 Q74.82 -96.908 73.006 -95.007 Q71.192 -93.107 71.192 -90.7 Q71.192 -88.039 73.014 -86.225 Q74.837 -84.411 77.409 -84.411 Z"/></g><g id="Semibold-L" transform="matrix(1 0 0 1 1970.27 1556)"><path d="M113.339 28.464 Q100.767 28.464 92.1 19.746 Q83.433 11.027 83.433 -1.454 Q83.433 -13.935 92.106 -22.647 Q100.778 -31.36 113.35 -31.36 Q125.831 -31.36 134.544 -22.642 Q143.257 -13.924 143.257 -1.443 Q143.257 11.038 134.538 19.751 Q125.82 28.464 113.339 28.464 Z M122.656 15.234  127.689 10.071  115.588 -1.858 V-20.136 H108.283 V0.641 L122.656 15.234 Z M30.168 24.373 Q25.065 24.373 21.431 20.739 Q17.797 17.105 17.797 12.002 V-82.462 Q17.797 -87.929 21.249 -91.427 Q24.701 -94.924 30.168 -94.924 H60.349 Q61.762 -100.578 66.47 -104.298 Q71.177 -108.017 77.4 -108.017 Q83.408 -108.017 88.137 -104.298 Q92.866 -100.578 94.542 -94.924 H124.632 Q130.099 -94.924 133.597 -91.427 Q137.094 -87.929 137.094 -82.462 V-33.12 Q134.118 -34.957 131.078 -36.291 Q128.038 -37.625 124.632 -38.266 V-82.462 Q124.632 -82.462 124.632 -82.462 Q124.632 -82.462 124.632 -82.462 H115.816 V-67.501 H38.984 V-82.462 H30.168 Q30.168 -82.462 30.168 -82.462 Q30.168 -82.462 30.168 -82.462 V12.002 Q30.168 12.002 30.168 12.002 Q30.168 12.002 30.168 12.002 H76.71 Q77.698 15.332 79.384 18.426 Q81.07 21.52 83.503 24.373 H30.168 Z M77.409 -84.061 Q79.98 -84.061 81.834 -85.875 Q83.689 -87.689 83.689 -90.309 Q83.689 -92.838 81.85 -94.698 Q80.011 -96.558 77.415 -96.558 Q74.82 -96.558 73.006 -94.692 Q71.192 -92.826 71.192 -90.349 Q71.192 -87.689 73.014 -85.875 Q74.837 -84.061 77.409 -84.061 Z"/></g><g id="Medium-L" transform="matrix(1 0 0 1 1674.31 1556)"><path d="M112.603 28.464 Q100.084 28.464 91.39 19.746 Q82.697 11.027 82.697 -1.454 Q82.697 -13.935 91.396 -22.647 Q100.094 -31.36 112.614 -31.36 Q125.095 -31.36 133.808 -22.642 Q142.52 -13.924 142.52 -1.443 Q142.52 11.038 133.802 19.751 Q125.084 28.464 112.603 28.464 Z M121.92 14.866  126.585 10.123  114.537 -1.743 V-19.82 H107.862 V0.551 L121.92 14.866 Z M29.695 23.058 Q25.329 23.058 22.22 19.95 Q19.112 16.841 19.112 12.475 V-82.935 Q19.112 -87.615 22.064 -90.586 Q25.015 -93.557 29.695 -93.557 H61.349 Q62.551 -99.159 67.011 -102.825 Q71.471 -106.492 77.4 -106.492 Q83.198 -106.492 87.664 -102.825 Q92.13 -99.159 93.49 -93.557 H125.105 Q129.785 -93.557 132.756 -90.586 Q135.727 -87.615 135.727 -82.935 V-33.593 Q133.119 -35.114 130.552 -36.212 Q127.985 -37.309 125.105 -38.003 V-82.935 Q125.105 -82.935 125.105 -82.935 Q125.105 -82.935 125.105 -82.935 H116.026 V-68.605 H38.774 V-82.935 H29.695 Q29.695 -82.935 29.695 -82.935 Q29.695 -82.935 29.695 -82.935 V12.475 Q29.695 12.475 29.695 12.475 Q29.695 12.475 29.695 12.475 H76.131 Q77.014 15.28 78.333 17.821 Q79.651 20.363 81.61 23.058 H29.695 Z M77.409 -83.798 Q79.98 -83.798 81.834 -85.612 Q83.689 -87.426 83.689 -90.046 Q83.689 -92.628 81.85 -94.461 Q80.011 -96.295 77.415 -96.295 Q74.82 -96.295 73.006 -94.455 Q71.192 -92.616 71.192 -90.087 Q71.192 -87.426 73.014 -85.612 Q74.837 -83.798 77.409 -83.798 Z"/></g><g id="Regular-L" transform="matrix(1 0 0 1 1378.56 1556)"><path d="M112.063 28.464 Q99.582 28.464 90.87 19.746 Q82.157 11.027 82.157 -1.454 Q82.157 -13.935 90.875 -22.647 Q99.593 -31.36 112.074 -31.36 Q124.555 -31.36 133.268 -22.642 Q141.981 -13.924 141.981 -1.443 Q141.981 11.038 133.262 19.751 Q124.544 28.464 112.063 28.464 Z M121.38 14.596  125.775 10.162  113.765 -1.658 V-19.589 H107.554 V0.485 L121.38 14.596 Z M29.348 22.094 Q25.523 22.094 22.799 19.371 Q20.076 16.647 20.076 12.823 V-83.282 Q20.076 -87.384 22.661 -89.969 Q25.246 -92.554 29.348 -92.554 H62.081 Q63.129 -98.117 67.408 -101.746 Q71.687 -105.374 77.4 -105.374 Q83.044 -105.374 87.317 -101.746 Q91.59 -98.117 92.719 -92.554 H125.453 Q129.554 -92.554 132.139 -89.969 Q134.724 -87.384 134.724 -83.282 V-33.94 Q132.386 -35.23 130.166 -36.154 Q127.947 -37.078 125.453 -37.81 V-83.282 Q125.453 -83.282 125.453 -83.282 Q125.453 -83.282 125.453 -83.282 H116.181 V-69.415 H38.619 V-83.282 H29.348 Q29.348 -83.282 29.348 -83.282 Q29.348 -83.282 29.348 -83.282 V12.823 Q29.348 12.823 29.348 12.823 Q29.348 12.823 29.348 12.823 H75.707 Q76.513 15.241 77.561 17.378 Q78.609 19.514 80.222 22.094 H29.348 Z M77.409 -83.605 Q79.98 -83.605 81.834 -85.419 Q83.689 -87.233 83.689 -89.853 Q83.689 -92.474 81.85 -94.288 Q80.011 -96.102 77.415 -96.102 Q74.82 -96.102 73.006 -94.282 Q71.192 -92.462 71.192 -89.894 Q71.192 -87.233 73.014 -85.419 Q74.837 -83.605 77.409 -83.605 Z"/></g><g id="Light-L" transform="matrix(1 0 0 1 1082.77 1556)"><path d="M112.591 25.549 Q101.133 25.549 93.18 17.59 Q85.227 9.632 85.227 -1.826 Q85.227 -13.283 93.188 -21.236 Q101.15 -29.189 112.57 -29.189 Q124.059 -29.189 132.012 -21.228 Q139.965 -13.267 139.965 -1.846 Q139.965 9.643 132.007 17.596 Q124.048 25.549 112.591 25.549 Z M122.295 13.449  126.24 9.48  114.356 -2.204 V-19.961 H108.794 V-0.229 L122.295 13.449 Z M32.076 19.148 Q28.374 19.148 25.698 16.472 Q23.022 13.796 23.022 10.094 V-80.554 Q23.022 -84.533 25.559 -87.071 Q28.097 -89.608 32.076 -89.608 H64.748 Q65.517 -94.241 69.052 -97.357 Q72.586 -100.474 77.4 -100.474 Q82.237 -100.474 85.72 -97.357 Q89.202 -94.241 90.083 -89.608 H122.724 Q126.703 -89.608 129.241 -87.071 Q131.778 -84.533 131.778 -80.554 V-34.405 Q129.905 -35.23 128.266 -35.889 Q126.626 -36.547 124.708 -37.128 V-80.554 Q124.708 -81.298 124.088 -81.918 Q123.468 -82.538 122.724 -82.538 H111.188 V-69.632 H43.612 V-82.538 H32.076 Q31.332 -82.538 30.712 -81.918 Q30.092 -81.298 30.092 -80.554 V10.094 Q30.092 10.962 30.65 11.52 Q31.208 12.078 32.076 12.078 H77.692 Q78.312 13.939 79.096 15.564 Q79.881 17.189 81.121 19.148 H32.076 Z M77.409 -81.992 Q79.794 -81.992 81.478 -83.636 Q83.162 -85.279 83.162 -87.698 Q83.162 -90.117 81.493 -91.76 Q79.825 -93.404 77.415 -93.404 Q75.006 -93.404 73.378 -91.747 Q71.75 -90.091 71.75 -87.738 Q71.75 -85.293 73.386 -83.643 Q75.023 -81.992 77.409 -81.992 Z"/></g><g id="Thin-L" transform="matrix(1 0 0 1 787.282 1556)"><path d="M113.118 22.634 Q102.683 22.634 95.49 15.435 Q88.297 8.237 88.297 -2.198 Q88.297 -12.632 95.501 -19.825 Q102.706 -27.019 113.066 -27.019 Q123.563 -27.019 130.756 -19.814 Q137.949 -12.61 137.949 -2.249 Q137.949 8.247 130.751 15.441 Q123.552 22.634 113.118 22.634 Z M123.21 12.302  126.705 8.798  114.946 -2.75 V-20.333 H110.035 V-0.943 L123.21 12.302 Z M34.805 16.203 Q31.225 16.203 28.596 13.574 Q25.967 10.945 25.967 7.365 V-77.825 Q25.967 -81.682 28.458 -84.172 Q30.948 -86.663 34.805 -86.663 H67.415 Q67.905 -90.365 70.695 -92.97 Q73.485 -95.575 77.4 -95.575 Q81.431 -95.575 84.123 -92.97 Q86.815 -90.365 87.447 -86.663 H119.995 Q123.852 -86.663 126.342 -84.172 Q128.833 -81.682 128.833 -77.825 V-34.87 Q127.425 -35.23 126.365 -35.623 Q125.306 -36.016 123.964 -36.446 V-77.825 Q123.964 -79.313 122.724 -80.554 Q121.483 -81.794 119.995 -81.794 H106.196 V-69.849 H48.604 V-81.794 H34.805 Q33.317 -81.794 32.076 -80.554 Q30.836 -79.313 30.836 -77.825 V7.365 Q30.836 9.101 31.952 10.218 Q33.069 11.334 34.805 11.334 H79.676 Q80.11 12.636 80.631 13.75 Q81.152 14.863 82.02 16.203 H34.805 Z M77.409 -80.38 Q79.608 -80.38 81.121 -81.853 Q82.634 -83.326 82.634 -85.543 Q82.634 -87.76 81.137 -89.233 Q79.639 -90.706 77.415 -90.706 Q75.192 -90.706 73.75 -89.214 Q72.308 -87.721 72.308 -85.583 Q72.308 -83.353 73.759 -81.867 Q75.209 -80.38 77.409 -80.38 Z"/></g><g id="Ultralight-L" transform="matrix(1 0 0 1 491.205 1556)"><path d="M113.434 20.885 Q103.614 20.885 96.876 14.142 Q90.139 7.399 90.139 -2.421 Q90.139 -12.241 96.889 -18.979 Q103.64 -25.716 113.364 -25.716 Q123.265 -25.716 130.003 -18.966 Q136.74 -12.215 136.74 -2.491 Q136.74 7.41 129.997 14.147 Q123.254 20.885 113.434 20.885 Z M123.759 11.613  126.984 8.388  115.301 -3.077 V-20.556 H110.779 V-1.371 L123.759 11.613 Z M36.443 14.435 Q32.935 14.435 30.335 11.835 Q27.735 9.235 27.735 5.728 V-76.187 Q27.735 -79.972 30.197 -82.433 Q32.658 -84.895 36.443 -84.895 H69.015 Q69.338 -88.039 71.681 -90.337 Q74.025 -92.635 77.4 -92.635 Q80.947 -92.635 83.164 -90.337 Q85.382 -88.039 85.866 -84.895 H118.358 Q122.142 -84.895 124.603 -82.433 Q127.065 -79.972 127.065 -76.187 V-35.149 Q125.936 -35.23 125.225 -35.464 Q124.514 -35.698 123.517 -36.036 V-76.187 Q123.517 -78.122 121.905 -79.735 Q120.293 -81.347 118.358 -81.347 H103.2 V-69.979 H51.6 V-81.347 H36.443 Q34.508 -81.347 32.895 -79.735 Q31.283 -78.122 31.283 -76.187 V5.728 Q31.283 7.985 32.734 9.436 Q34.185 10.888 36.443 10.888 H80.867 Q81.189 11.855 81.552 12.661 Q81.915 13.468 82.56 14.435 H36.443 Z M77.409 -79.412 Q79.496 -79.412 80.907 -80.783 Q82.318 -82.154 82.318 -84.25 Q82.318 -86.346 80.923 -87.717 Q79.527 -89.087 77.415 -89.087 Q75.304 -89.087 73.973 -87.693 Q72.643 -86.299 72.643 -84.29 Q72.643 -82.189 73.982 -80.801 Q75.321 -79.412 77.409 -79.412 Z"/></g><g id="Bold-M" transform="matrix(1 0 0 1 2281.8 1126)"><path d="M88.25 13.52 Q78.188 13.52 71.156 6.489 Q64.125 -0.542 64.125 -10.605 Q64.125 -20.667 71.156 -27.699 Q78.188 -34.73 88.25 -34.73 Q98.312 -34.73 105.344 -27.699 Q112.375 -20.667 112.375 -10.605 Q112.375 -0.542 105.344 6.489 Q98.312 13.52 88.25 13.52 Z M96.438 2.208  101.062 -2.542  91.625 -11.855 V-26.23 H84.875 V-9.265 L96.438 2.208 Z M27 12.895 Q20.761 12.895 16.318 8.452 Q11.875 4.009 11.875 -2.23 V-68.23 Q11.875 -74.469 16.318 -78.912 Q20.761 -83.355 27 -83.355 H43.375 Q45.375 -88.105 49.941 -90.98 Q54.506 -93.855 60 -93.855 Q65.312 -93.855 69.938 -90.98 Q74.562 -88.105 76.688 -83.355 H93 Q99.239 -83.355 103.682 -78.912 Q108.125 -74.469 108.125 -68.23 V-37.417 Q104.938 -39.855 101.094 -41.605 Q97.25 -43.355 93 -43.855 V-68.23 Q93 -68.23 93 -68.23 Q93 -68.23 93 -68.23 H84.5 V-52.167 H35.5 V-68.23 H27 Q27 -68.23 27 -68.23 Q27 -68.23 27 -68.23 V-2.23 Q27 -2.23 27 -2.23 Q27 -2.23 27 -2.23 H55.688 Q56.812 2.145 59.031 6.083 Q61.25 10.02 64.375 12.895 H27 Z M60 -70.98 Q61.938 -70.98 63.312 -72.355 Q64.688 -73.73 64.688 -75.667 Q64.688 -77.605 63.312 -78.98 Q61.938 -80.355 60 -80.355 Q58.062 -80.355 56.688 -78.98 Q55.312 -77.605 55.312 -75.667 Q55.312 -73.73 56.688 -72.355 Q58.062 -70.98 60 -70.98 Z"/></g><g id="Semibold-M" transform="matrix(1 0 0 1 1985.97 1126)"><path d="M87.272 13.52 Q77.209 13.52 70.178 6.489 Q63.147 -0.542 63.147 -10.605 Q63.147 -20.667 70.178 -27.699 Q77.209 -34.73 87.272 -34.73 Q97.334 -34.73 104.365 -27.699 Q111.397 -20.667 111.397 -10.605 Q111.397 -0.542 104.365 6.489 Q97.334 13.52 87.272 13.52 Z M95.459 1.664  99.541 -2.488  90.212 -11.692 V-25.795 H84.277 V-9.413 L95.459 1.664 Z M26.348 11.047 Q21.14 11.047 17.431 7.339 Q13.723 3.63 13.723 -1.578 V-68.882 Q13.723 -74.09 17.431 -77.799 Q21.14 -81.507 26.348 -81.507 H44.788 Q46.462 -86.094 50.687 -88.915 Q54.911 -91.736 60 -91.736 Q65.041 -91.736 69.285 -88.915 Q73.53 -86.094 75.275 -81.507 H93.652 Q98.86 -81.507 102.569 -77.799 Q106.277 -74.09 106.277 -68.882 V-38.07 Q103.525 -40.072 100.36 -41.469 Q97.196 -42.866 93.652 -43.475 V-68.882 Q93.652 -68.882 93.652 -68.882 Q93.652 -68.882 93.652 -68.882 H84.772 V-53.689 H35.228 V-68.882 H26.348 Q26.348 -68.882 26.348 -68.882 Q26.348 -68.882 26.348 -68.882 V-1.578 Q26.348 -1.578 26.348 -1.578 Q26.348 -1.578 26.348 -1.578 H54.872 Q55.889 2.091 57.591 5.267 Q59.294 8.444 61.767 11.047 H26.348 Z M60 -70.654 Q61.938 -70.654 63.312 -72.029 Q64.688 -73.404 64.688 -75.341 Q64.688 -77.279 63.312 -78.654 Q61.938 -80.029 60 -80.029 Q58.062 -80.029 56.688 -78.654 Q55.312 -77.279 55.312 -75.341 Q55.312 -73.404 56.688 -72.029 Q58.062 -70.654 60 -70.654 Z"/></g><g id="Medium-M" transform="matrix(1 0 0 1 1689.91 1126)"><path d="M86.538 13.52 Q76.475 13.52 69.444 6.489 Q62.413 -0.542 62.413 -10.605 Q62.413 -20.667 69.444 -27.699 Q76.475 -34.73 86.538 -34.73 Q96.6 -34.73 103.632 -27.699 Q110.663 -20.667 110.663 -10.605 Q110.663 -0.542 103.632 6.489 Q96.6 13.52 86.538 13.52 Z M94.725 1.256  98.4 -2.447  89.152 -11.57 V-25.469 H83.829 V-9.524 L94.725 1.256 Z M25.859 9.661 Q21.424 9.661 18.267 6.504 Q15.109 3.346 15.109 -1.089 V-69.371 Q15.109 -73.806 18.267 -76.963 Q21.424 -80.121 25.859 -80.121 H45.848 Q47.277 -84.586 51.246 -87.366 Q55.215 -90.146 60 -90.146 Q64.837 -90.146 68.796 -87.366 Q72.755 -84.586 74.215 -80.121 H94.141 Q98.576 -80.121 101.734 -76.963 Q104.891 -73.806 104.891 -69.371 V-38.559 Q102.465 -40.235 99.81 -41.367 Q97.155 -42.499 94.141 -43.189 V-69.371 Q94.141 -69.371 94.141 -69.371 Q94.141 -69.371 94.141 -69.371 H84.975 V-54.83 H35.025 V-69.371 H25.859 Q25.859 -69.371 25.859 -69.371 Q25.859 -69.371 25.859 -69.371 V-1.089 Q25.859 -1.089 25.859 -1.089 Q25.859 -1.089 25.859 -1.089 H54.261 Q55.196 2.05 56.511 4.656 Q57.826 7.262 59.81 9.661 H25.859 Z M60 -70.409 Q61.938 -70.409 63.312 -71.784 Q64.688 -73.159 64.688 -75.097 Q64.688 -77.034 63.312 -78.409 Q61.938 -79.784 60 -79.784 Q58.062 -79.784 56.688 -78.409 Q55.312 -77.034 55.312 -75.097 Q55.312 -73.159 56.688 -71.784 Q58.062 -70.409 60 -70.409 Z"/></g><g id="Regular-M" transform="matrix(1 0 0 1 1394.06 1126)"><path d="M86 13.52 Q75.938 13.52 68.906 6.489 Q61.875 -0.542 61.875 -10.605 Q61.875 -20.667 68.906 -27.699 Q75.938 -34.73 86 -34.73 Q96.062 -34.73 103.094 -27.699 Q110.125 -20.667 110.125 -10.605 Q110.125 -0.542 103.094 6.489 Q96.062 13.52 86 13.52 Z M94.188 0.958  97.562 -2.417  88.375 -11.48 V-25.23 H83.5 V-9.605 L94.188 0.958 Z M25.5 8.645 Q21.633 8.645 18.879 5.891 Q16.125 3.137 16.125 -0.73 V-69.73 Q16.125 -73.597 18.879 -76.351 Q21.633 -79.105 25.5 -79.105 H46.625 Q47.875 -83.48 51.656 -86.23 Q55.438 -88.98 60 -88.98 Q64.688 -88.98 68.438 -86.23 Q72.188 -83.48 73.438 -79.105 H94.5 Q98.367 -79.105 101.121 -76.351 Q103.875 -73.597 103.875 -69.73 V-38.917 Q101.688 -40.355 99.406 -41.292 Q97.125 -42.23 94.5 -42.98 V-69.73 Q94.5 -69.73 94.5 -69.73 Q94.5 -69.73 94.5 -69.73 H85.125 V-55.667 H34.875 V-69.73 H25.5 Q25.5 -69.73 25.5 -69.73 Q25.5 -69.73 25.5 -69.73 V-0.73 Q25.5 -0.73 25.5 -0.73 Q25.5 -0.73 25.5 -0.73 H53.812 Q54.688 2.02 55.719 4.208 Q56.75 6.395 58.375 8.645 H25.5 Z M60 -70.23 Q61.938 -70.23 63.312 -71.605 Q64.688 -72.98 64.688 -74.917 Q64.688 -76.855 63.312 -78.23 Q61.938 -79.605 60 -79.605 Q58.062 -79.605 56.688 -78.23 Q55.312 -76.855 55.312 -74.917 Q55.312 -72.98 56.688 -71.605 Q58.062 -70.23 60 -70.23 Z"/></g><g id="Light-M" transform="matrix(1 0 0 1 1098.18 1126)"><path d="M86.769 11.26 Q77.668 11.26 71.322 4.914 Q64.976 -1.432 64.976 -10.533 Q64.976 -19.634 71.322 -25.98 Q77.668 -32.326 86.769 -32.326 Q95.87 -32.326 102.216 -25.98 Q108.562 -19.634 108.562 -10.533 Q108.562 -1.432 102.216 4.914 Q95.87 11.26 86.769 11.26 Z M94.957 0.645  97.971 -2.369  88.881 -11.326 V-24.941 H84.558 V-9.63 L94.957 0.645 Z M26.942 6.361 Q23.41 6.361 20.91 3.861 Q18.409 1.36 18.409 -2.172 V-68.288 Q18.409 -71.82 20.91 -74.32 Q23.41 -76.821 26.942 -76.821 H49.173 Q50.111 -80.475 53.147 -82.828 Q56.183 -85.182 60 -85.182 Q63.894 -85.182 66.899 -82.828 Q69.904 -80.475 70.865 -76.821 H93.058 Q96.59 -76.821 99.091 -74.32 Q101.591 -71.82 101.591 -68.288 V-37.98 Q99.861 -38.961 98.221 -39.62 Q96.582 -40.28 94.596 -40.816 V-68.288 Q94.596 -68.864 94.115 -69.345 Q93.635 -69.826 93.058 -69.826 H82.601 V-57.519 H37.399 V-69.826 H26.942 Q26.366 -69.826 25.885 -69.345 Q25.404 -68.864 25.404 -68.288 V-2.172 Q25.404 -1.499 25.837 -1.067 Q26.269 -0.634 26.942 -0.634 H56.986 Q57.62 1.443 58.375 3.042 Q59.13 4.64 60.37 6.361 H26.942 Z M60 -69.653 Q61.793 -69.653 63.036 -70.896 Q64.279 -72.139 64.279 -73.92 Q64.279 -75.701 63.036 -76.944 Q61.793 -78.187 60 -78.187 Q58.207 -78.187 56.976 -76.939 Q55.745 -75.69 55.745 -73.92 Q55.745 -72.149 56.976 -70.901 Q58.207 -69.653 60 -69.653 Z"/></g><g id="Thin-M" transform="matrix(1 0 0 1 802.565 1126)"><path d="M87.538 9.001 Q79.399 9.001 73.738 3.34 Q68.077 -2.321 68.077 -10.461 Q68.077 -18.6 73.738 -24.261 Q79.399 -29.922 87.538 -29.922 Q95.678 -29.922 101.339 -24.261 Q107 -18.6 107 -10.461 Q107 -2.321 101.339 3.34 Q95.678 9.001 87.538 9.001 Z M95.726 0.333  98.38 -2.321  89.387 -11.172 V-24.653 H85.615 V-9.654 L95.726 0.333 Z M28.385 4.078 Q25.188 4.078 22.94 1.83 Q20.692 -0.417 20.692 -3.615 V-66.845 Q20.692 -70.042 22.94 -72.29 Q25.188 -74.538 28.385 -74.538 H51.721 Q52.346 -77.47 54.637 -79.427 Q56.928 -81.384 60 -81.384 Q63.101 -81.384 65.361 -79.427 Q67.62 -77.47 68.293 -74.538 H91.615 Q94.812 -74.538 97.06 -72.29 Q99.308 -70.042 99.308 -66.845 V-37.042 Q98.034 -37.566 97.037 -37.948 Q96.039 -38.33 94.692 -38.653 V-66.845 Q94.692 -67.999 93.731 -68.961 Q92.769 -69.922 91.615 -69.922 H80.077 V-59.369 H39.923 V-69.922 H28.385 Q27.231 -69.922 26.269 -68.961 Q25.308 -67.999 25.308 -66.845 V-3.615 Q25.308 -2.268 26.173 -1.403 Q27.038 -0.538 28.385 -0.538 H60.159 Q60.553 0.866 61.031 1.876 Q61.51 2.885 62.365 4.078 H28.385 Z M60 -69.076 Q61.649 -69.076 62.76 -70.187 Q63.87 -71.297 63.87 -72.922 Q63.87 -74.547 62.76 -75.658 Q61.649 -76.768 60 -76.768 Q58.351 -76.768 57.264 -75.647 Q56.178 -74.526 56.178 -72.922 Q56.178 -71.318 57.264 -70.197 Q58.351 -69.076 60 -69.076 Z"/></g><g id="Ultralight-M" transform="matrix(1 0 0 1 506.415 1126)"><path d="M88 7.645 Q80.438 7.645 75.188 2.395 Q69.938 -2.855 69.938 -10.417 Q69.938 -17.98 75.188 -23.23 Q80.438 -28.48 88 -28.48 Q95.562 -28.48 100.812 -23.23 Q106.062 -17.98 106.062 -10.417 Q106.062 -2.855 100.812 2.395 Q95.562 7.645 88 7.645 Z M96.188 0.145  98.625 -2.292  89.69 -11.08 V-24.48 H86.25 V-9.669 L96.188 0.145 Z M29.25 2.708 Q26.254 2.708 24.158 0.612 Q22.062 -1.484 22.062 -4.48 V-65.98 Q22.062 -68.976 24.158 -71.072 Q26.254 -73.167 29.25 -73.167 H53.25 Q53.688 -75.667 55.531 -77.386 Q57.375 -79.105 60 -79.105 Q62.625 -79.105 64.438 -77.386 Q66.25 -75.667 66.75 -73.167 H90.75 Q93.746 -73.167 95.842 -71.072 Q97.938 -68.976 97.938 -65.98 V-36.48 Q96.938 -36.73 96.326 -36.945 Q95.714 -37.16 94.75 -37.355 V-65.98 Q94.75 -67.48 93.5 -68.73 Q92.25 -69.98 90.75 -69.98 H78.562 V-60.48 H41.438 V-69.98 H29.25 Q27.75 -69.98 26.5 -68.73 Q25.25 -67.48 25.25 -65.98 V-4.48 Q25.25 -2.73 26.375 -1.605 Q27.5 -0.48 29.25 -0.48 H62.062 Q62.312 0.52 62.625 1.176 Q62.938 1.833 63.562 2.708 H29.25 Z M60 -68.73 Q61.562 -68.73 62.594 -69.761 Q63.625 -70.792 63.625 -72.324 Q63.625 -73.855 62.594 -74.886 Q61.562 -75.917 60 -75.917 Q58.438 -75.917 57.438 -74.873 Q56.438 -73.828 56.438 -72.324 Q56.438 -70.82 57.438 -69.775 Q58.438 -68.73 60 -68.73 Z"/></g><g id="Bold-S" transform="matrix(1 0 0 1 2294.23 696)"><path d="M68.818 1.656 Q61.197 1.656 55.896 -3.668 Q50.595 -8.991 50.595 -16.612 Q50.595 -24.233 55.918 -29.534 Q61.241 -34.835 68.863 -34.835 Q76.484 -34.835 81.785 -29.512 Q87.086 -24.189 87.086 -16.568 Q87.086 -8.946 81.762 -3.645 Q76.439 1.656 68.818 1.656 Z M74.117 -7.073  78.358 -11.412  71.898 -17.773 V-26.551 H65.783 V-15.336 L74.117 -7.073 Z M22.881 0.374 Q18.284 0.374 15.01 -2.9 Q11.736 -6.174 11.736 -10.771 V-59.689 Q11.736 -64.286 15.01 -67.56 Q18.284 -70.834 22.881 -70.834 H36.195 Q37.477 -74.187 40.439 -76.258 Q43.4 -78.329 47.34 -78.329 Q50.94 -78.329 53.997 -76.258 Q57.055 -74.187 58.435 -70.834 H71.799 Q76.396 -70.834 79.67 -67.56 Q82.944 -64.286 82.944 -59.689 V-36.857 Q80.527 -38.583 77.741 -39.915 Q74.955 -41.246 71.799 -41.443 V-59.689 Q71.799 -59.689 71.799 -59.689 Q71.799 -59.689 71.799 -59.689 H65.882 V-47.016 H28.799 V-59.689 H22.881 Q22.881 -59.689 22.881 -59.689 Q22.881 -59.689 22.881 -59.689 V-10.771 Q22.881 -10.771 22.881 -10.771 Q22.881 -10.771 22.881 -10.771 H44.561 Q45.417 -7.418 46.97 -4.607 Q48.524 -1.796 50.891 0.374 H22.881 Z M47.319 -61.859 Q48.671 -61.859 49.658 -62.824 Q50.644 -63.79 50.644 -65.142 Q50.644 -66.494 49.678 -67.48 Q48.713 -68.467 47.361 -68.467 Q46.009 -68.467 45.022 -67.501 Q44.036 -66.536 44.036 -65.183 Q44.036 -63.831 45.002 -62.845 Q45.967 -61.859 47.319 -61.859 Z"/></g><g id="Semibold-S" transform="matrix(1 0 0 1 1998.1 696)"><path d="M68.046 1.656 Q60.425 1.656 55.124 -3.668 Q49.823 -8.991 49.823 -16.612 Q49.823 -24.233 55.146 -29.534 Q60.47 -34.835 68.091 -34.835 Q75.712 -34.835 81.013 -29.512 Q86.314 -24.189 86.314 -16.568 Q86.314 -8.946 80.991 -3.645 Q75.667 1.656 68.046 1.656 Z M73.345 -7.501  77.157 -11.369  70.783 -17.645 V-26.208 H65.311 V-15.452 L73.345 -7.501 Z M22.366 -1.084 Q18.583 -1.084 15.889 -3.779 Q13.194 -6.473 13.194 -10.256 V-60.204 Q13.194 -63.987 15.889 -66.681 Q18.583 -69.376 22.366 -69.376 H37.31 Q38.335 -72.6 41.027 -74.629 Q43.719 -76.657 47.34 -76.657 Q50.725 -76.657 53.483 -74.629 Q56.24 -72.6 57.32 -69.376 H72.314 Q76.097 -69.376 78.791 -66.681 Q81.486 -63.987 81.486 -60.204 V-37.372 Q79.412 -38.755 77.162 -39.807 Q74.912 -40.86 72.314 -41.143 V-60.204 Q72.314 -60.204 72.314 -60.204 Q72.314 -60.204 72.314 -60.204 H66.096 V-48.216 H28.584 V-60.204 H22.366 Q22.366 -60.204 22.366 -60.204 Q22.366 -60.204 22.366 -60.204 V-10.256 Q22.366 -10.256 22.366 -10.256 Q22.366 -10.256 22.366 -10.256 H43.918 Q44.688 -7.461 45.834 -5.25 Q46.98 -3.04 48.832 -1.084 H22.366 Z M47.319 -61.601 Q48.671 -61.601 49.658 -62.567 Q50.644 -63.532 50.644 -64.885 Q50.644 -66.237 49.678 -67.223 Q48.713 -68.209 47.361 -68.209 Q46.009 -68.209 45.022 -67.244 Q44.036 -66.278 44.036 -64.926 Q44.036 -63.574 45.002 -62.588 Q45.967 -61.601 47.319 -61.601 Z"/></g><g id="Medium-S" transform="matrix(1 0 0 1 1701.85 696)"><path d="M67.467 1.656 Q59.846 1.656 54.545 -3.668 Q49.244 -8.991 49.244 -16.612 Q49.244 -24.233 54.567 -29.534 Q59.891 -34.835 67.512 -34.835 Q75.133 -34.835 80.434 -29.512 Q85.735 -24.189 85.735 -16.568 Q85.735 -8.946 80.412 -3.645 Q75.088 1.656 67.467 1.656 Z M72.766 -7.823  76.256 -11.337  69.947 -17.548 V-25.951 H64.957 V-15.54 L72.766 -7.823 Z M21.981 -2.178 Q18.807 -2.178 16.547 -4.437 Q14.288 -6.697 14.288 -9.871 V-60.589 Q14.288 -63.763 16.547 -66.023 Q18.807 -68.282 21.981 -68.282 H38.146 Q38.978 -71.41 41.469 -73.406 Q43.959 -75.403 47.34 -75.403 Q50.565 -75.403 53.097 -73.406 Q55.629 -71.41 56.484 -68.282 H72.699 Q75.873 -68.282 78.133 -66.023 Q80.392 -63.763 80.392 -60.589 V-37.758 Q78.576 -38.883 76.728 -39.727 Q74.88 -40.571 72.699 -40.918 V-60.589 Q72.699 -60.589 72.699 -60.589 Q72.699 -60.589 72.699 -60.589 H66.257 V-49.117 H28.423 V-60.589 H21.981 Q21.981 -60.589 21.981 -60.589 Q21.981 -60.589 21.981 -60.589 V-9.871 Q21.981 -9.871 21.981 -9.871 Q21.981 -9.871 21.981 -9.871 H43.435 Q44.141 -7.493 44.982 -5.733 Q45.822 -3.972 47.289 -2.178 H21.981 Z M47.319 -61.409 Q48.671 -61.409 49.658 -62.374 Q50.644 -63.34 50.644 -64.692 Q50.644 -66.044 49.678 -67.03 Q48.713 -68.016 47.361 -68.016 Q46.009 -68.016 45.022 -67.051 Q44.036 -66.085 44.036 -64.733 Q44.036 -63.381 45.002 -62.395 Q45.967 -61.409 47.319 -61.409 Z"/></g><g id="Regular-S" transform="matrix(1 0 0 1 1405.73 696)"><path d="M67.043 1.656 Q59.422 1.656 54.12 -3.668 Q48.819 -8.991 48.819 -16.612 Q48.819 -24.233 54.143 -29.534 Q59.466 -34.835 67.087 -34.835 Q74.708 -34.835 80.01 -29.512 Q85.311 -24.189 85.311 -16.568 Q85.311 -8.946 79.987 -3.645 Q74.664 1.656 67.043 1.656 Z M72.341 -8.059  75.596 -11.313  69.333 -17.477 V-25.762 H64.698 V-15.604 L72.341 -8.059 Z M21.698 -2.98 Q18.972 -2.98 17.031 -4.921 Q15.09 -6.862 15.09 -9.587 V-60.872 Q15.09 -63.598 17.031 -65.539 Q18.972 -67.48 21.698 -67.48 H38.76 Q39.45 -70.538 41.792 -72.51 Q44.135 -74.483 47.34 -74.483 Q50.447 -74.483 52.814 -72.51 Q55.181 -70.538 55.871 -67.48 H72.983 Q75.708 -67.48 77.649 -65.539 Q79.59 -63.598 79.59 -60.872 V-38.041 Q77.963 -38.978 76.41 -39.668 Q74.856 -40.358 72.983 -40.753 V-60.872 Q72.983 -60.872 72.983 -60.872 Q72.983 -60.872 72.983 -60.872 H66.375 V-49.777 H28.305 V-60.872 H21.698 Q21.698 -60.872 21.698 -60.872 Q21.698 -60.872 21.698 -60.872 V-9.587 Q21.698 -9.587 21.698 -9.587 Q21.698 -9.587 21.698 -9.587 H43.081 Q43.74 -7.516 44.357 -6.086 Q44.973 -4.656 46.157 -2.98 H21.698 Z M47.319 -61.267 Q48.671 -61.267 49.658 -62.232 Q50.644 -63.198 50.644 -64.55 Q50.644 -65.902 49.678 -66.889 Q48.713 -67.875 47.361 -67.875 Q46.009 -67.875 45.022 -66.909 Q44.036 -65.944 44.036 -64.592 Q44.036 -63.239 45.002 -62.253 Q45.967 -61.267 47.319 -61.267 Z"/></g><g id="Light-S" transform="matrix(1 0 0 1 1109.75 696)"><path d="M67.65 -0.127 Q60.787 -0.127 56.027 -4.91 Q51.266 -9.693 51.266 -16.555 Q51.266 -23.418 56.049 -28.178 Q60.832 -32.939 67.694 -32.939 Q74.557 -32.939 79.317 -28.156 Q84.078 -23.373 84.078 -16.511 Q84.078 -9.648 79.295 -4.888 Q74.512 -0.127 67.65 -0.127 Z M72.948 -8.305  75.918 -11.275  69.733 -17.356 V-25.534 H65.533 V-15.623 L72.948 -8.305 Z M22.836 -4.782 Q20.374 -4.782 18.633 -6.523 Q16.892 -8.264 16.892 -10.726 V-59.734 Q16.892 -62.196 18.633 -63.937 Q20.374 -65.678 22.836 -65.678 H40.77 Q41.214 -68.167 42.968 -69.826 Q44.723 -71.486 47.34 -71.486 Q49.821 -71.486 51.6 -69.826 Q53.379 -68.167 53.842 -65.678 H71.844 Q74.306 -65.678 76.047 -63.937 Q77.788 -62.196 77.788 -59.734 V-37.301 Q76.522 -37.878 75.475 -38.349 Q74.428 -38.82 73.058 -39.046 V-59.734 Q73.058 -60.19 72.679 -60.569 Q72.3 -60.948 71.844 -60.948 H64.383 V-51.238 H30.297 V-60.948 H22.836 Q22.38 -60.948 22.001 -60.569 Q21.622 -60.19 21.622 -59.734 V-10.726 Q21.622 -10.194 21.963 -9.853 Q22.304 -9.512 22.836 -9.512 H45.585 Q46.054 -7.972 46.453 -7.006 Q46.851 -6.041 47.731 -4.782 H22.836 Z M47.319 -60.812 Q48.558 -60.812 49.44 -61.673 Q50.322 -62.534 50.322 -63.763 Q50.322 -64.992 49.46 -65.874 Q48.599 -66.756 47.361 -66.756 Q46.122 -66.756 45.25 -65.89 Q44.378 -65.025 44.378 -63.805 Q44.378 -62.584 45.229 -61.698 Q46.081 -60.812 47.319 -60.812 Z"/></g><g id="Thin-S" transform="matrix(1 0 0 1 814.015 696)"><path d="M68.256 -1.91 Q62.153 -1.91 57.933 -6.152 Q53.713 -10.395 53.713 -16.498 Q53.713 -22.602 57.955 -26.822 Q62.197 -31.042 68.301 -31.042 Q74.405 -31.042 78.625 -26.8 Q82.845 -22.558 82.845 -16.454 Q82.845 -10.35 78.603 -6.13 Q74.36 -1.91 68.256 -1.91 Z M73.555 -8.552  76.241 -11.238  70.132 -17.235 V-25.307 H66.367 V-15.642 L73.555 -8.552 Z M23.973 -6.583 Q21.776 -6.583 20.235 -8.125 Q18.693 -9.666 18.693 -11.863 V-58.597 Q18.693 -60.794 20.235 -62.335 Q21.776 -63.877 23.973 -63.877 H42.78 Q42.978 -65.796 44.144 -67.143 Q45.311 -68.489 47.34 -68.489 Q49.195 -68.489 50.386 -67.143 Q51.577 -65.796 51.812 -63.877 H70.707 Q72.904 -63.877 74.445 -62.335 Q75.987 -60.794 75.987 -58.597 V-36.561 Q75.08 -36.778 74.54 -37.03 Q74 -37.281 73.134 -37.339 V-58.597 Q73.134 -59.507 72.376 -60.266 Q71.617 -61.024 70.707 -61.024 H62.392 V-52.698 H32.288 V-61.024 H23.973 Q23.063 -61.024 22.304 -60.266 Q21.546 -59.507 21.546 -58.597 V-11.863 Q21.546 -10.801 22.229 -10.119 Q22.911 -9.436 23.973 -9.436 H48.088 Q48.368 -8.427 48.548 -7.926 Q48.728 -7.425 49.305 -6.583 H23.973 Z M47.319 -60.357 Q48.444 -60.357 49.221 -61.113 Q49.999 -61.87 49.999 -62.976 Q49.999 -64.082 49.242 -64.859 Q48.485 -65.637 47.361 -65.637 Q46.236 -65.637 45.477 -64.872 Q44.719 -64.107 44.719 -63.017 Q44.719 -61.928 45.457 -61.143 Q46.195 -60.357 47.319 -60.357 Z"/></g><g id="Ultralight-S" transform="matrix(1 0 0 1 517.792 696)"><path d="M68.621 -2.98 Q62.972 -2.98 59.076 -6.898 Q55.181 -10.816 55.181 -16.464 Q55.181 -22.113 59.099 -26.009 Q63.017 -29.904 68.665 -29.904 Q74.314 -29.904 78.21 -25.986 Q82.105 -22.068 82.105 -16.42 Q82.105 -10.771 78.187 -6.875 Q74.269 -2.98 68.621 -2.98 Z M73.919 -8.7  76.434 -11.215  70.371 -17.162 V-25.17 H66.868 V-15.654 L73.919 -8.7 Z M24.656 -7.664 Q22.618 -7.664 21.196 -9.086 Q19.774 -10.508 19.774 -12.546 V-57.914 Q19.774 -59.952 21.196 -61.374 Q22.618 -62.796 24.656 -62.796 H43.987 Q44.036 -64.374 44.85 -65.533 Q45.663 -66.691 47.34 -66.691 Q48.819 -66.691 49.658 -65.533 Q50.496 -64.374 50.595 -62.796 H70.024 Q72.062 -62.796 73.484 -61.374 Q74.906 -59.952 74.906 -57.914 V-36.118 Q74.215 -36.118 73.979 -36.238 Q73.743 -36.358 73.18 -36.315 V-57.914 Q73.18 -59.097 72.194 -60.083 Q71.207 -61.07 70.024 -61.07 H61.197 V-53.574 H33.483 V-61.07 H24.656 Q23.473 -61.07 22.486 -60.083 Q21.5 -59.097 21.5 -57.914 V-12.546 Q21.5 -11.165 22.388 -10.278 Q23.276 -9.39 24.656 -9.39 H49.591 Q49.756 -8.7 49.806 -8.478 Q49.855 -8.256 50.249 -7.664 H24.656 Z M47.319 -60.083 Q48.376 -60.083 49.091 -60.778 Q49.806 -61.472 49.806 -62.504 Q49.806 -63.535 49.111 -64.25 Q48.417 -64.965 47.361 -64.965 Q46.304 -64.965 45.614 -64.26 Q44.924 -63.555 44.924 -62.545 Q44.924 -61.535 45.593 -60.809 Q46.263 -60.083 47.319 -60.083 Z"/></g></g></svg>