<svg xmlns="http://www.w3.org/2000/svg" version="1.1" width="3300" height="2000"><g id="Notes"><style>
    text {
      font-family: monospace;
      text-anchor: middle;
    }
    text.emphasis {
      font-weight:bold;
    }
    text.lanchor {
      text-anchor: start;
    }
  </style><rect height="2200" id="artboard" fill="white" width="3300" x="0" y="0"/><line id="" style="fill:none;stroke:black;stroke-width:0.5;" x1="263" x2="3036" y1="292" y2="292"/><text class="lanchor emphasis" transform="matrix(1 0 0 1 263 322)">Weight/Scale Variations</text><text transform="matrix(1 0 0 1 559.711 322)">Ultralight</text><text transform="matrix(1 0 0 1 856.422 322)">Thin</text><text transform="matrix(1 0 0 1 1153.13 322)">Light</text><text transform="matrix(1 0 0 1 1449.84 322)">Regular</text><text transform="matrix(1 0 0 1 1746.56 322)">Medium</text><text transform="matrix(1 0 0 1 2043.27 322)">Semibold</text><text transform="matrix(1 0 0 1 2339.98 322)">Bold</text><text transform="matrix(1 0 0 1 2636.69 322)">Heavy</text><text transform="matrix(1 0 0 1 2933.4 322)">Black</text><text id="template-version" style="text-anchor: end;" transform="matrix(1 0 0 1 3036 1933)">Template v.1.0</text><text class="lanchor" transform="matrix(1 0 0 1 263 726)">Small</text><text class="lanchor" transform="matrix(1 0 0 1 263 1156)">Medium</text><text class="lanchor" transform="matrix(1 0 0 1 263 1586)">Large</text></g><g id="Guides"><g id="H-reference" style="fill:#27AAE1;stroke:none;" transform="matrix(1 0 0 1 339 696)"><path d="M 54.9316 0 L 57.666 0 L 30.5664 -70.459 L 28.0762 -70.459 L 0.976562 0 L 3.66211 0 L 12.9395 -24.4629 L 45.7031 -24.4629 Z M 29.1992 -67.0898 L 29.4434 -67.0898 L 44.8242 -26.709 L 13.8184 -26.709 Z"/></g><line id="Baseline-S" style="fill:none;stroke:#27AAE1;opacity:1;stroke-width:0.577;" x1="263" x2="3036" y1="696" y2="696"/><line id="Capline-S" style="fill:none;stroke:#27AAE1;opacity:1;stroke-width:0.577;" x1="263" x2="3036" y1="625.541" y2="625.541"/><g id="H-reference" style="fill:#27AAE1;stroke:none;" transform="matrix(1 0 0 1 339 1126)"><path d="M 54.9316 0 L 57.666 0 L 30.5664 -70.459 L 28.0762 -70.459 L 0.976562 0 L 3.66211 0 L 12.9395 -24.4629 L 45.7031 -24.4629 Z M 29.1992 -67.0898 L 29.4434 -67.0898 L 44.8242 -26.709 L 13.8184 -26.709 Z"/></g><line id="Baseline-M" style="fill:none;stroke:#27AAE1;opacity:1;stroke-width:0.577;" x1="263" x2="3036" y1="1126" y2="1126"/><line id="Capline-M" style="fill:none;stroke:#27AAE1;opacity:1;stroke-width:0.577;" x1="263" x2="3036" y1="1055.54" y2="1055.54"/><g id="H-reference" style="fill:#27AAE1;stroke:none;" transform="matrix(1 0 0 1 339 1556)"><path d="M 54.9316 0 L 57.666 0 L 30.5664 -70.459 L 28.0762 -70.459 L 0.976562 0 L 3.66211 0 L 12.9395 -24.4629 L 45.7031 -24.4629 Z M 29.1992 -67.0898 L 29.4434 -67.0898 L 44.8242 -26.709 L 13.8184 -26.709 Z"/></g><line id="Baseline-L" style="fill:none;stroke:#27AAE1;opacity:1;stroke-width:0.577;" x1="263" x2="3036" y1="1556" y2="1556"/><line id="Capline-L" style="fill:none;stroke:#27AAE1;opacity:1;stroke-width:0.577;" x1="263" x2="3036" y1="1485.54" y2="1485.54"/><rect height="119.336" id="left-margin" style="fill:darkred;stroke:none;opacity:0.4;" width="12.4512" x="1394.06" y="1030.79"/><rect height="119.336" id="right-margin" style="fill:darkgreen;stroke:none;opacity:0.4;" width="12.4512" x="1502.5112" y="1030.79"/><rect x="1406.5112" y="1045" width="96" height="96" fill="none" stroke="blue" stroke-dasharray="5"/><rect x="1394.06" y="1030.79" width="120.9024" height="119.336" fill="none" stroke="blue"/></g><g id="Symbols"><g id="Bold-L" transform="matrix(1 0 0 1 2266 1556)"><path d="M64.016 -27.893  80.383 2.099 Q81.512 4.76 79.375 6.574 Q77.239 8.388 74.901 6.614 L18.786 -29.102 Q15.158 -31.279 15.158 -35.23 Q15.158 -39.181 18.786 -41.357 L74.901 -77.316 Q77.239 -78.848 79.375 -77.034 Q81.512 -75.22 80.383 -72.721 L64.016 -42.647 H135.45 Q138.594 -42.647 140.731 -40.511 Q142.868 -38.374 142.868 -35.23 Q142.868 -32.086 140.731 -29.989 Q138.594 -27.893 135.45 -27.893 H64.016 Z"/></g><g id="Semibold-L" transform="matrix(1 0 0 1 1970.27 1556)"><path d="M61.773 -29.085  79.472 1.609 Q80.53 3.849 78.744 5.417 Q76.958 6.986 74.971 5.493 L19.066 -30.084 Q16.069 -31.91 16.069 -35.23 Q16.069 -38.55 19.066 -40.376 L74.971 -76.124 Q76.958 -77.446 78.744 -75.877 Q80.53 -74.309 79.472 -72.16 L61.773 -41.456 H135.45 Q138.104 -41.456 139.89 -39.67 Q141.676 -37.884 141.676 -35.23 Q141.676 -32.576 139.89 -30.831 Q138.104 -29.085 135.45 -29.085 H61.773 Z"/></g><g id="Medium-L" transform="matrix(1 0 0 1 1674.31 1556)"><path d="M60.09 -29.979  78.788 1.241 Q79.794 3.165 78.271 4.55 Q76.748 5.934 75.023 4.651 L19.276 -30.82 Q16.752 -32.384 16.752 -35.23 Q16.752 -38.076 19.276 -39.64 L75.023 -75.23 Q76.748 -76.394 78.271 -75.01 Q79.794 -73.625 78.788 -71.739 L60.09 -40.562 H135.45 Q137.736 -40.562 139.259 -39.039 Q140.782 -37.516 140.782 -35.23 Q140.782 -32.944 139.259 -31.462 Q137.736 -29.979 135.45 -29.979 H60.09 Z"/></g><g id="Regular-L" transform="matrix(1 0 0 1 1378.56 1556)"><path d="M58.856 -30.634  78.287 0.971 Q79.254 2.664 77.924 3.913 Q76.594 5.163 75.062 4.034 L19.431 -31.36 Q17.254 -32.731 17.254 -35.23 Q17.254 -37.729 19.431 -39.1 L75.062 -74.575 Q76.594 -75.623 77.924 -74.373 Q79.254 -73.124 78.287 -71.431 L58.856 -39.906 H135.45 Q137.466 -39.906 138.796 -38.576 Q140.126 -37.246 140.126 -35.23 Q140.126 -33.214 138.796 -31.924 Q137.466 -30.634 135.45 -30.634 H58.856 Z"/></g><g id="Light-L" transform="matrix(1 0 0 1 1082.77 1556)"><path d="M59.104 -31.751  74.969 -5.511 Q75.905 -3.849 74.621 -2.661 Q73.337 -1.473 71.837 -2.54 L26.284 -31.484 Q24.138 -32.793 24.138 -35.23 Q24.138 -37.667 26.284 -38.976 L71.837 -68.031 Q73.337 -68.987 74.621 -67.799 Q75.905 -66.611 74.969 -65.011 L59.104 -38.821 H135.45 Q137.031 -38.821 138.036 -37.816 Q139.041 -36.811 139.041 -35.23 Q139.041 -33.649 138.036 -32.7 Q137.031 -31.751 135.45 -31.751 H59.104 Z"/></g><g id="Thin-L" transform="matrix(1 0 0 1 787.282 1556)"><path d="M59.352 -32.867  71.651 -11.991 Q72.556 -10.36 71.319 -9.235 Q70.082 -8.109 68.612 -9.114 L33.137 -31.608 Q31.022 -32.855 31.022 -35.23 Q31.022 -37.605 33.137 -38.852 L68.612 -61.489 Q70.082 -62.351 71.319 -61.225 Q72.556 -60.1 71.651 -58.593 L59.352 -37.736 H135.45 Q136.597 -37.736 137.276 -37.056 Q137.956 -36.377 137.956 -35.23 Q137.956 -34.083 137.276 -33.475 Q136.597 -32.867 135.45 -32.867 H59.352 Z"/></g><g id="Ultralight-L" transform="matrix(1 0 0 1 491.205 1556)"><path d="M59.501 -33.537  69.66 -15.88 Q70.547 -14.267 69.338 -13.179 Q68.128 -12.091 66.677 -13.058 L37.249 -31.682 Q35.153 -32.892 35.153 -35.23 Q35.153 -37.568 37.249 -38.777 L66.677 -57.563 Q68.128 -58.369 69.338 -57.281 Q70.547 -56.192 69.66 -54.741 L59.501 -37.084 H135.45 Q136.337 -37.084 136.821 -36.601 Q137.304 -36.117 137.304 -35.23 Q137.304 -34.343 136.821 -33.94 Q136.337 -33.537 135.45 -33.537 H59.501 Z"/></g><g id="Bold-M" transform="matrix(1 0 0 1 2281.8 1126)"><path d="M52.75 -27.667  62 -7.855 Q63.188 -5.23 61 -3.386 Q58.812 -1.542 56.438 -3.167 L16 -28.855 Q12.5 -31.167 12.5 -35.23 Q12.5 -39.292 16 -41.605 L56.438 -67.292 Q58.812 -68.917 61 -67.074 Q63.188 -65.23 62 -62.605 L52.75 -42.792 H105 Q108.062 -42.792 110.312 -40.542 Q112.562 -38.292 112.562 -35.23 Q112.562 -32.167 110.312 -29.917 Q108.062 -27.667 105 -27.667 H52.75 Z"/></g><g id="Semibold-M" transform="matrix(1 0 0 1 1985.97 1126)"><path d="M50.413 -28.917  61.076 -8.398 Q62.155 -6.208 60.348 -4.609 Q58.541 -3.01 56.492 -4.363 L16.326 -29.887 Q13.37 -31.82 13.37 -35.23 Q13.37 -38.64 16.326 -40.572 L56.492 -66.097 Q58.541 -67.45 60.348 -65.851 Q62.155 -64.252 61.076 -62.061 L50.413 -41.543 H105 Q107.573 -41.543 109.443 -39.673 Q111.313 -37.803 111.313 -35.23 Q111.313 -32.657 109.443 -30.787 Q107.573 -28.917 105 -28.917 H50.413 Z"/></g><g id="Medium-M" transform="matrix(1 0 0 1 1689.91 1126)"><path d="M48.66 -29.855  60.383 -8.806 Q61.38 -6.942 59.859 -5.526 Q58.337 -4.11 56.533 -5.26 L16.571 -30.662 Q14.022 -32.309 14.022 -35.23 Q14.022 -38.151 16.571 -39.798 L56.533 -65.2 Q58.337 -66.35 59.859 -64.934 Q61.38 -63.518 60.383 -61.654 L48.66 -40.605 H105 Q107.207 -40.605 108.791 -39.021 Q110.375 -37.436 110.375 -35.23 Q110.375 -33.023 108.791 -31.439 Q107.207 -29.855 105 -29.855 H48.66 Z"/></g><g id="Regular-M" transform="matrix(1 0 0 1 1394.06 1126)"><path d="M47.375 -30.542  59.875 -9.105 Q60.812 -7.48 59.5 -6.199 Q58.188 -4.917 56.562 -5.917 L16.75 -31.23 Q14.5 -32.667 14.5 -35.23 Q14.5 -37.792 16.75 -39.23 L56.562 -64.542 Q58.188 -65.542 59.5 -64.261 Q60.812 -62.98 59.875 -61.355 L47.375 -39.917 H105 Q106.938 -39.917 108.312 -38.542 Q109.688 -37.167 109.688 -35.23 Q109.688 -33.292 108.312 -31.917 Q106.938 -30.542 105 -30.542 H47.375 Z"/></g><g id="Light-M" transform="matrix(1 0 0 1 1098.18 1126)"><path d="M47.038 -31.744  57.495 -13.6 Q58.312 -12.096 57.132 -10.959 Q55.952 -9.822 54.495 -10.725 L21.63 -31.615 Q19.596 -32.908 19.596 -35.23 Q19.596 -37.552 21.63 -38.845 L54.495 -59.758 Q55.952 -60.638 57.132 -59.501 Q58.312 -58.364 57.495 -56.859 L47.038 -38.739 H105 Q106.457 -38.739 107.483 -37.713 Q108.51 -36.687 108.51 -35.23 Q108.51 -33.773 107.483 -32.759 Q106.457 -31.744 105 -31.744 H47.038 Z"/></g><g id="Thin-M" transform="matrix(1 0 0 1 802.565 1126)"><path d="M46.702 -32.946  55.115 -18.095 Q55.812 -16.711 54.764 -15.718 Q53.716 -14.725 52.428 -15.533 L26.509 -31.999 Q24.692 -33.148 24.692 -35.23 Q24.692 -37.312 26.509 -38.461 L52.428 -54.975 Q53.716 -55.735 54.764 -54.742 Q55.812 -53.749 55.115 -52.365 L46.702 -37.562 H105 Q105.976 -37.562 106.654 -36.884 Q107.332 -36.206 107.332 -35.23 Q107.332 -34.254 106.654 -33.6 Q105.976 -32.946 105 -32.946 H46.702 Z"/></g><g id="Ultralight-M" transform="matrix(1 0 0 1 506.415 1126)"><path d="M46.5 -33.667  53.688 -20.792 Q54.312 -19.48 53.344 -18.574 Q52.375 -17.667 51.188 -18.417 L29.438 -32.23 Q27.75 -33.292 27.75 -35.23 Q27.75 -37.167 29.438 -38.23 L51.188 -52.105 Q52.375 -52.792 53.344 -51.886 Q54.312 -50.98 53.688 -49.667 L46.5 -36.855 H105 Q105.688 -36.855 106.156 -36.386 Q106.625 -35.917 106.625 -35.23 Q106.625 -34.542 106.156 -34.105 Q105.688 -33.667 105 -33.667 H46.5 Z"/></g><g id="Bold-S" transform="matrix(1 0 0 1 2294.23 696)"><path d="M39.154 -29.658  45.17 -16.984 Q46.107 -15.067 44.455 -13.683 Q42.803 -12.3 41.077 -13.582 L13.808 -30.496 Q11.243 -32.215 11.243 -35.226 Q11.243 -38.238 13.808 -39.964 L41.077 -56.878 Q42.803 -58.16 44.455 -56.777 Q46.107 -55.393 45.17 -53.476 L39.154 -40.802 H81.662 Q83.91 -40.802 85.572 -39.146 Q87.234 -37.491 87.234 -35.251 Q87.234 -33.011 85.572 -31.334 Q83.91 -29.658 81.662 -29.658 H39.154 Z"/></g><g id="Semibold-S" transform="matrix(1 0 0 1 1998.1 696)"><path d="M37.31 -30.644  44.441 -17.413 Q45.293 -15.838 43.941 -14.648 Q42.589 -13.457 41.12 -14.525 L14.065 -31.311 Q11.929 -32.729 11.929 -35.226 Q11.929 -37.724 14.065 -39.149 L41.12 -55.935 Q42.589 -57.003 43.941 -55.812 Q45.293 -54.622 44.441 -53.047 L37.31 -39.816 H81.662 Q83.524 -39.816 84.886 -38.46 Q86.248 -37.105 86.248 -35.251 Q86.248 -33.397 84.886 -32.02 Q83.524 -30.644 81.662 -30.644 H37.31 Z"/></g><g id="Medium-S" transform="matrix(1 0 0 1 1701.85 696)"><path d="M35.927 -31.384  43.895 -17.735 Q44.681 -16.417 43.555 -15.372 Q42.428 -14.326 41.152 -15.233 L14.258 -31.922 Q12.444 -33.115 12.444 -35.226 Q12.444 -37.338 14.258 -38.538 L41.152 -55.227 Q42.428 -56.134 43.555 -55.088 Q44.681 -54.043 43.895 -52.725 L35.927 -39.076 H81.662 Q83.235 -39.076 84.371 -37.946 Q85.508 -36.815 85.508 -35.251 Q85.508 -33.686 84.371 -32.535 Q83.235 -31.384 81.662 -31.384 H35.927 Z"/></g><g id="Regular-S" transform="matrix(1 0 0 1 1405.73 696)"><path d="M34.913 -31.926  43.494 -17.971 Q44.233 -16.842 43.272 -15.902 Q42.31 -14.963 41.176 -15.752 L14.399 -32.37 Q12.821 -33.398 12.821 -35.226 Q12.821 -37.055 14.399 -38.09 L41.176 -54.708 Q42.31 -55.497 43.272 -54.558 Q44.233 -53.618 43.494 -52.489 L34.913 -38.534 H81.662 Q83.023 -38.534 83.994 -37.568 Q84.965 -36.603 84.965 -35.251 Q84.965 -33.899 83.994 -32.912 Q83.023 -31.926 81.662 -31.926 H34.913 Z"/></g><g id="Light-S" transform="matrix(1 0 0 1 1109.75 696)"><path d="M34.648 -32.874  41.616 -21.518 Q42.261 -20.484 41.403 -19.658 Q40.546 -18.832 39.545 -19.545 L18.25 -32.673 Q16.842 -33.588 16.842 -35.226 Q16.842 -36.865 18.25 -37.787 L39.545 -50.934 Q40.546 -51.628 41.403 -50.802 Q42.261 -49.976 41.616 -48.942 L34.648 -37.604 H81.662 Q82.643 -37.604 83.34 -36.914 Q84.036 -36.224 84.036 -35.251 Q84.036 -34.278 83.34 -33.576 Q82.643 -32.874 81.662 -32.874 H34.648 Z"/></g><g id="Thin-S" transform="matrix(1 0 0 1 814.015 696)"><path d="M34.382 -33.823  39.738 -25.064 Q40.288 -24.125 39.535 -23.413 Q38.782 -22.701 37.914 -23.338 L22.099 -32.977 Q20.863 -33.778 20.863 -35.226 Q20.863 -36.675 22.099 -37.483 L37.914 -47.16 Q38.782 -47.759 39.535 -47.047 Q40.288 -46.335 39.738 -45.396 L34.382 -36.675 H81.662 Q82.264 -36.675 82.685 -36.26 Q83.107 -35.844 83.107 -35.251 Q83.107 -34.657 82.685 -34.24 Q82.264 -33.823 81.662 -33.823 H34.382 Z"/></g><g id="Ultralight-S" transform="matrix(1 0 0 1 517.792 696)"><path d="M34.223 -34.392  38.612 -27.192 Q39.105 -26.31 38.414 -25.666 Q37.724 -25.022 36.935 -25.614 L24.41 -33.159 Q23.276 -33.892 23.276 -35.226 Q23.276 -36.561 24.41 -37.301 L36.935 -44.895 Q37.724 -45.438 38.414 -44.794 Q39.105 -44.15 38.612 -43.268 L34.223 -36.118 H81.662 Q82.036 -36.118 82.293 -35.867 Q82.549 -35.617 82.549 -35.251 Q82.549 -34.885 82.293 -34.638 Q82.036 -34.392 81.662 -34.392 H34.223 Z"/></g></g></svg>