<svg xmlns="http://www.w3.org/2000/svg" version="1.1" width="3300" height="2000"><g id="Notes"><style>
    text {
      font-family: monospace;
      text-anchor: middle;
    }
    text.emphasis {
      font-weight:bold;
    }
    text.lanchor {
      text-anchor: start;
    }
  </style><rect height="2200" id="artboard" fill="white" width="3300" x="0" y="0"/><line id="" style="fill:none;stroke:black;stroke-width:0.5;" x1="263" x2="3036" y1="292" y2="292"/><text class="lanchor emphasis" transform="matrix(1 0 0 1 263 322)">Weight/Scale Variations</text><text transform="matrix(1 0 0 1 559.711 322)">Ultralight</text><text transform="matrix(1 0 0 1 856.422 322)">Thin</text><text transform="matrix(1 0 0 1 1153.13 322)">Light</text><text transform="matrix(1 0 0 1 1449.84 322)">Regular</text><text transform="matrix(1 0 0 1 1746.56 322)">Medium</text><text transform="matrix(1 0 0 1 2043.27 322)">Semibold</text><text transform="matrix(1 0 0 1 2339.98 322)">Bold</text><text transform="matrix(1 0 0 1 2636.69 322)">Heavy</text><text transform="matrix(1 0 0 1 2933.4 322)">Black</text><text id="template-version" style="text-anchor: end;" transform="matrix(1 0 0 1 3036 1933)">Template v.1.0</text><text class="lanchor" transform="matrix(1 0 0 1 263 726)">Small</text><text class="lanchor" transform="matrix(1 0 0 1 263 1156)">Medium</text><text class="lanchor" transform="matrix(1 0 0 1 263 1586)">Large</text></g><g id="Guides"><g id="H-reference" style="fill:#27AAE1;stroke:none;" transform="matrix(1 0 0 1 339 696)"><path d="M 54.9316 0 L 57.666 0 L 30.5664 -70.459 L 28.0762 -70.459 L 0.976562 0 L 3.66211 0 L 12.9395 -24.4629 L 45.7031 -24.4629 Z M 29.1992 -67.0898 L 29.4434 -67.0898 L 44.8242 -26.709 L 13.8184 -26.709 Z"/></g><line id="Baseline-S" style="fill:none;stroke:#27AAE1;opacity:1;stroke-width:0.577;" x1="263" x2="3036" y1="696" y2="696"/><line id="Capline-S" style="fill:none;stroke:#27AAE1;opacity:1;stroke-width:0.577;" x1="263" x2="3036" y1="625.541" y2="625.541"/><g id="H-reference" style="fill:#27AAE1;stroke:none;" transform="matrix(1 0 0 1 339 1126)"><path d="M 54.9316 0 L 57.666 0 L 30.5664 -70.459 L 28.0762 -70.459 L 0.976562 0 L 3.66211 0 L 12.9395 -24.4629 L 45.7031 -24.4629 Z M 29.1992 -67.0898 L 29.4434 -67.0898 L 44.8242 -26.709 L 13.8184 -26.709 Z"/></g><line id="Baseline-M" style="fill:none;stroke:#27AAE1;opacity:1;stroke-width:0.577;" x1="263" x2="3036" y1="1126" y2="1126"/><line id="Capline-M" style="fill:none;stroke:#27AAE1;opacity:1;stroke-width:0.577;" x1="263" x2="3036" y1="1055.54" y2="1055.54"/><g id="H-reference" style="fill:#27AAE1;stroke:none;" transform="matrix(1 0 0 1 339 1556)"><path d="M 54.9316 0 L 57.666 0 L 30.5664 -70.459 L 28.0762 -70.459 L 0.976562 0 L 3.66211 0 L 12.9395 -24.4629 L 45.7031 -24.4629 Z M 29.1992 -67.0898 L 29.4434 -67.0898 L 44.8242 -26.709 L 13.8184 -26.709 Z"/></g><line id="Baseline-L" style="fill:none;stroke:#27AAE1;opacity:1;stroke-width:0.577;" x1="263" x2="3036" y1="1556" y2="1556"/><line id="Capline-L" style="fill:none;stroke:#27AAE1;opacity:1;stroke-width:0.577;" x1="263" x2="3036" y1="1485.54" y2="1485.54"/><rect height="119.336" id="left-margin" style="fill:darkred;stroke:none;opacity:0.4;" width="12.4512" x="1394.06" y="1030.79"/><rect height="119.336" id="right-margin" style="fill:darkgreen;stroke:none;opacity:0.4;" width="12.4512" x="1502.5112" y="1030.79"/><rect x="1406.5112" y="1045" width="96" height="96" fill="none" stroke="blue" stroke-dasharray="5"/><rect x="1394.06" y="1030.79" width="120.9024" height="119.336" fill="none" stroke="blue"/></g><g id="Symbols"><g id="Bold-L" transform="matrix(1 0 0 1 2266 1556)"><path d="M119.002 -47.646  109.972 -57.321  121.583 -69.092 H85.463 V-82.315 H121.583 L110.134 -93.925 L119.648 -103.277 L147.221 -75.704 L119.002 -47.646 Z M125.291 26.851 Q107.876 26.851 88.204 17.338 Q68.531 7.824 51.439 -9.269 Q34.185 -26.2 24.752 -45.469 Q15.319 -64.739 15.319 -82.96 V-97.472 H59.179 L67.403 -61.352 L45.15 -41.035 Q49.02 -35.069 53.132 -29.909 Q57.244 -24.749 61.759 -20.072 Q66.919 -14.912 72.401 -10.639 Q77.884 -6.366 83.85 -3.141 L105.619 -25.232 L139.643 -17.331 V26.851 H125.291 Z"/></g><g id="Semibold-L" transform="matrix(1 0 0 1 1970.27 1556)"><path d="M118.372 -49.189  110.463 -57.742  122.494 -69.864 H85.182 V-81.544 H122.494 L110.624 -93.504 L119.017 -101.735 L145.048 -75.704 L118.372 -49.189 Z M125.502 25.099 Q108.087 25.099 88.765 15.76 Q69.443 6.422 52.631 -10.39 Q35.657 -27.111 26.364 -46.205 Q17.071 -65.3 17.071 -83.24 V-95.65 H56.935 L64.388 -61.983 L43.608 -42.157 Q47.758 -35.63 52.15 -30.014 Q56.543 -24.398 61.338 -19.512 Q66.778 -14.071 72.752 -9.448 Q78.725 -4.824 85.392 -1.178 L105.899 -22.148 L137.82 -14.948 V25.099 H125.502 Z"/></g><g id="Medium-L" transform="matrix(1 0 0 1 1674.31 1556)"><path d="M117.898 -50.345  110.831 -58.057  123.177 -70.442 H84.972 V-80.965 H123.177 L110.993 -93.189 L118.543 -100.578 L143.418 -75.704 L117.898 -50.345 Z M125.659 23.784 Q108.244 23.784 89.185 14.577 Q70.126 5.37 53.525 -11.232 Q36.761 -27.795 27.574 -46.758 Q18.386 -65.72 18.386 -83.451 V-94.283 H55.253 L62.127 -62.457 L42.451 -42.998 Q46.812 -36.05 51.414 -30.093 Q56.017 -24.135 61.023 -19.091 Q66.673 -13.44 73.015 -8.554 Q79.356 -3.667 86.549 0.294 L106.109 -19.834 L136.453 -13.16 V23.784 H125.659 Z"/></g><g id="Regular-L" transform="matrix(1 0 0 1 1378.56 1556)"><path d="M117.551 -51.194  111.101 -58.289  123.679 -70.866 H84.817 V-80.541 H123.679 L111.263 -92.957 L118.196 -99.73 L142.222 -75.704 L117.551 -51.194 Z M125.775 22.82 Q108.36 22.82 89.494 13.709 Q70.627 4.599 54.18 -11.849 Q37.571 -28.296 28.461 -47.162 Q19.35 -66.029 19.35 -83.605 V-93.28 H54.019 L60.469 -62.804 L41.602 -43.615 Q46.117 -36.359 50.874 -30.151 Q55.631 -23.942 60.791 -18.782 Q66.596 -12.977 73.207 -7.898 Q79.819 -2.819 87.398 1.374 L106.264 -18.137 L135.45 -11.849 V22.82 H125.775 Z"/></g><g id="Light-L" transform="matrix(1 0 0 1 1082.77 1556)"><path d="M116.435 -52.124  111.535 -57.482  125.105 -71.052 H85.438 V-78.37 H125.105 L111.635 -91.903 L116.894 -97.001 L139.183 -74.773 L116.435 -52.124 Z M124.162 19.595 Q107.368 19.595 89.37 10.949 Q71.372 2.304 55.668 -13.399 Q39.928 -29.102 31.252 -47.132 Q22.575 -65.16 22.575 -81.992 V-90.055 H53.461 L59.538 -62.122 L41.292 -44.235 Q45.931 -36.607 50.781 -30.182 Q55.631 -23.756 60.791 -18.596 Q66.596 -12.729 73.363 -7.65 Q80.129 -2.571 88.328 1.932 L106.264 -16.711 L132.225 -11.229 V19.595 H124.162 Z"/></g><g id="Thin-L" transform="matrix(1 0 0 1 787.282 1556)"><path d="M115.319 -53.054  111.97 -56.676  126.532 -71.238 H86.058 V-76.2 H126.532 L112.007 -90.849 L115.591 -94.272 L136.145 -73.843 L115.319 -53.054 Z M122.55 16.37 Q106.375 16.37 89.246 8.19 Q72.116 0.009 57.157 -14.95 Q42.285 -29.909 34.042 -47.1 Q25.8 -64.292 25.8 -80.38 V-86.83 H52.902 L58.608 -61.439 L40.982 -44.855 Q45.745 -36.855 50.688 -30.213 Q55.631 -23.57 60.791 -18.41 Q66.596 -12.481 73.518 -7.402 Q80.439 -2.323 89.258 2.49 L106.264 -15.285 L129 -10.608 V16.37 H122.55 Z"/></g><g id="Ultralight-L" transform="matrix(1 0 0 1 491.205 1556)"><path d="M114.649 -53.612  112.23 -56.192  127.388 -71.35 H86.43 V-74.897 H127.388 L112.23 -90.216 L114.81 -92.635 L134.321 -73.285 L114.649 -53.612 Z M121.583 14.435 Q105.78 14.435 89.171 6.534 Q72.562 -1.367 58.05 -15.88 Q43.699 -30.392 35.717 -47.082 Q27.735 -63.771 27.735 -79.412 V-84.895 H52.568 L58.05 -61.03 L40.796 -45.227 Q45.634 -37.004 50.633 -30.231 Q55.631 -23.459 60.791 -18.299 Q66.596 -12.332 73.611 -7.253 Q80.625 -2.174 89.816 2.825 L106.264 -14.429 L127.065 -10.236 V14.435 H121.583 Z"/></g><g id="Bold-M" transform="matrix(1 0 0 1 2281.8 1126)"><path d="M91.5 -41.605  81.625 -51.23  88.625 -58.355 H65.625 V-72.105 H88.625 L81.875 -78.98 L91.5 -88.855 L115.125 -64.98 L91.5 -41.605 Z M99.25 14.02 Q83.625 14.02 67.5 6.77 Q51.375 -0.48 38.125 -13.48 Q24.875 -26.605 17.812 -42.292 Q10.75 -57.98 10.75 -74.355 V-84.48 H49.75 L56.25 -53.605 L38.5 -38.105 Q40.625 -34.48 43.312 -31.167 Q46 -27.855 49.25 -24.73 Q52.25 -21.855 55.375 -19.355 Q58.5 -16.855 61.75 -14.855 L79.375 -31.98 L109.25 -25.23 V14.02 H99.25 Z"/></g><g id="Semibold-M" transform="matrix(1 0 0 1 1985.97 1126)"><path d="M90.848 -43.181  82.114 -51.665  89.549 -59.17 H65.353 V-71.29 H89.549 L82.364 -78.545 L90.848 -87.279 L112.897 -64.98 L90.848 -43.181 Z M99.467 12.172 Q83.842 12.172 68.071 5.14 Q52.299 -1.893 39.375 -14.676 Q26.451 -27.529 19.524 -43.026 Q12.598 -58.523 12.598 -74.627 V-82.632 H47.468 L53.152 -54.257 L36.924 -39.246 Q39.321 -35.078 42.307 -31.303 Q45.294 -27.529 48.815 -24.132 Q52.087 -20.931 55.728 -18.078 Q59.37 -15.225 63.38 -12.844 L79.647 -28.828 L107.402 -22.784 V12.172 H99.467 Z"/></g><g id="Medium-M" transform="matrix(1 0 0 1 1689.91 1126)"><path d="M90.359 -44.363  82.481 -51.991  90.242 -59.782 H65.15 V-70.678 H90.242 L82.731 -78.219 L90.359 -86.097 L111.226 -64.98 L90.359 -44.363 Z M99.63 10.786 Q84.005 10.786 68.499 3.917 Q52.992 -2.953 40.312 -15.572 Q27.633 -28.222 20.808 -43.576 Q13.984 -58.931 13.984 -74.83 V-81.246 H45.755 L50.829 -54.746 L35.742 -40.102 Q38.342 -35.526 41.553 -31.405 Q44.764 -27.284 48.489 -23.684 Q51.965 -20.238 55.993 -17.12 Q60.022 -14.002 64.603 -11.336 L79.85 -26.464 L106.016 -20.95 V10.786 H99.63 Z"/></g><g id="Regular-M" transform="matrix(1 0 0 1 1394.06 1126)"><path d="M90 -45.23  82.75 -52.23  90.75 -60.23 H65 V-70.23 H90.75 L83 -77.98 L90 -85.23 L110 -64.98 L90 -45.23 Z M99.75 9.77 Q84.125 9.77 68.812 3.02 Q53.5 -3.73 41 -16.23 Q28.5 -28.73 21.75 -43.98 Q15 -59.23 15 -74.98 V-80.23 H44.5 L49.125 -55.105 L34.875 -40.73 Q37.625 -35.855 41 -31.48 Q44.375 -27.105 48.25 -23.355 Q51.875 -19.73 56.188 -16.417 Q60.5 -13.105 65.5 -10.23 L80 -24.73 L105 -19.605 V9.77 H99.75 Z"/></g><g id="Light-M" transform="matrix(1 0 0 1 1098.18 1126)"><path d="M89.423 -46.576  84 -51.845  93.25 -61.095 H65.673 V-68.595 H93.25 L84.154 -77.691 L89.423 -83.114 L107.692 -64.691 L89.423 -46.576 Z M97.875 7.27 Q83.308 7.27 68.861 0.784 Q54.413 -5.701 42.442 -17.672 Q30.519 -29.643 24.01 -44.1 Q17.5 -58.557 17.5 -73.105 V-77.73 H43.346 L47.779 -54.961 L33.913 -41.499 Q37 -36.095 40.519 -31.456 Q44.038 -26.816 47.962 -22.97 Q51.779 -19.057 56.452 -15.576 Q61.125 -12.095 66.846 -8.884 L80.625 -22.903 L102.5 -18.451 V7.27 H97.875 Z"/></g><g id="Thin-M" transform="matrix(1 0 0 1 802.565 1126)"><path d="M88.846 -47.922  85.25 -51.461  95.75 -61.961 H66.346 V-66.961 H95.75 L85.308 -77.403 L88.846 -80.999 L105.385 -64.403 L88.846 -47.922 Z M96 4.77 Q82.49 4.77 68.909 -1.451 Q55.327 -7.672 43.885 -19.115 Q32.538 -30.557 26.269 -44.22 Q20 -57.884 20 -71.23 V-75.23 H42.192 L46.433 -54.816 L32.952 -42.268 Q36.375 -36.336 40.038 -31.432 Q43.702 -26.528 47.673 -22.586 Q51.683 -18.384 56.716 -14.735 Q61.75 -11.086 68.192 -7.538 L81.25 -21.076 L100 -17.297 V4.77 H96 Z"/></g><g id="Ultralight-M" transform="matrix(1 0 0 1 506.415 1126)"><path d="M88.5 -48.73  86 -51.23  97.25 -62.48 H66.75 V-65.98 H97.25 L86 -77.23 L88.5 -79.73 L104 -64.23 L88.5 -48.73 Z M94.875 3.27 Q82 3.27 68.938 -2.792 Q55.875 -8.855 44.75 -19.98 Q33.75 -31.105 27.625 -44.292 Q21.5 -57.48 21.5 -70.105 V-73.73 H41.5 L45.625 -54.73 L32.375 -42.73 Q36 -36.48 39.75 -31.417 Q43.5 -26.355 47.5 -22.355 Q51.625 -17.98 56.875 -14.23 Q62.125 -10.48 69 -6.73 L81.625 -19.98 L98.5 -16.605 V3.27 H94.875 Z"/></g><g id="Bold-S" transform="matrix(1 0 0 1 2294.23 696)"><path d="M72.194 -41.838  65.093 -48.939  69.925 -53.87 H52.567 V-63.93 H69.925 L65.093 -68.96 L72.194 -75.962 L89.256 -58.9 L72.194 -41.838 Z M75.35 1.261 Q64.501 1.261 52.814 -4.163 Q41.127 -9.587 31.264 -19.253 Q21.402 -29.017 16.125 -40.408 Q10.849 -51.799 10.849 -63.239 V-71.82 H40.14 L45.367 -50.517 L31.067 -37.991 Q32.842 -35.131 34.913 -32.518 Q36.984 -29.904 39.351 -27.537 Q41.62 -25.367 43.937 -23.494 Q46.255 -21.62 48.918 -19.844 L63.219 -33.455 L83.831 -28.622 V1.261 H75.35 Z"/></g><g id="Semibold-S" transform="matrix(1 0 0 1 1998.1 696)"><path d="M71.679 -43.081  65.478 -49.282  70.654 -54.513 H52.353 V-63.287 H70.654 L65.478 -68.617 L71.679 -74.719 L87.498 -58.9 L71.679 -43.081 Z M75.521 -0.197 Q64.672 -0.197 53.264 -5.449 Q41.856 -10.702 32.25 -20.196 Q22.645 -29.746 17.476 -40.987 Q12.307 -52.228 12.307 -63.454 V-70.362 H38.339 L42.923 -51.031 L29.823 -38.892 Q31.813 -35.603 34.12 -32.625 Q36.427 -29.647 39.008 -27.066 Q41.491 -24.639 44.216 -22.486 Q46.941 -20.333 50.204 -18.258 L63.433 -30.968 L82.373 -26.693 V-0.197 H75.521 Z"/></g><g id="Medium-S" transform="matrix(1 0 0 1 1701.85 696)"><path d="M71.293 -44.014  65.768 -49.539  71.201 -54.996 H52.192 V-62.804 H71.201 L65.768 -68.359 L71.293 -73.786 L86.179 -58.9 L71.293 -44.014 Z M75.65 -1.29 Q64.801 -1.29 53.602 -6.414 Q42.402 -11.538 32.99 -20.904 Q23.578 -30.292 18.489 -41.421 Q13.4 -52.549 13.4 -63.615 V-69.269 H36.989 L41.09 -51.417 L28.891 -39.567 Q31.041 -35.957 33.525 -32.705 Q36.009 -29.454 38.751 -26.712 Q41.395 -24.092 44.425 -21.73 Q47.456 -19.369 51.169 -17.068 L63.594 -29.102 L81.28 -25.245 V-1.29 H75.65 Z"/></g><g id="Regular-S" transform="matrix(1 0 0 1 1405.73 696)"><path d="M71.01 -44.698  65.98 -49.728  71.602 -55.349 H52.074 V-62.45 H71.602 L65.98 -68.171 L71.01 -73.102 L85.212 -58.9 L71.01 -44.698 Z M75.744 -2.092 Q64.895 -2.092 53.849 -7.122 Q42.803 -12.152 33.532 -21.422 Q24.262 -30.693 19.232 -41.739 Q14.202 -52.785 14.202 -63.733 V-68.467 H35.998 L39.746 -51.7 L28.207 -40.063 Q30.475 -36.216 33.089 -32.764 Q35.702 -29.312 38.562 -26.452 Q41.324 -23.691 44.579 -21.176 Q47.833 -18.661 51.877 -16.195 L63.712 -27.734 L80.478 -24.184 V-2.092 H75.744 Z"/></g><g id="Light-S" transform="matrix(1 0 0 1 1109.75 696)"><path d="M70.555 -45.76  66.966 -49.424  73.574 -56.032 H52.605 V-61.161 H73.574 L66.891 -67.943 L70.555 -71.433 L83.391 -58.672 L70.555 -45.76 Z M74.265 -4.065 Q64.25 -4.065 53.887 -8.886 Q43.524 -13.707 34.671 -22.561 Q25.855 -31.414 21.015 -41.834 Q16.175 -52.254 16.175 -62.253 V-66.494 H35.088 L38.684 -51.587 L27.448 -40.67 Q29.982 -36.406 32.709 -32.745 Q35.437 -29.085 38.335 -26.149 Q41.248 -23.16 44.787 -20.512 Q48.326 -17.864 52.939 -15.133 L64.205 -26.293 L78.505 -23.274 V-4.065 H74.265 Z"/></g><g id="Thin-S" transform="matrix(1 0 0 1 814.015 696)"><path d="M70.1 -46.822  67.953 -49.121  75.547 -56.715 H53.136 V-59.871 H75.547 L67.801 -67.716 L70.1 -69.764 L81.57 -58.445 L70.1 -46.822 Z M72.785 -6.037 Q63.606 -6.037 53.925 -10.65 Q44.245 -15.262 35.808 -23.698 Q27.448 -32.135 22.798 -41.929 Q18.147 -51.723 18.147 -60.774 V-64.522 H34.177 L37.622 -51.473 L26.689 -41.277 Q29.489 -36.596 32.33 -32.726 Q35.171 -28.857 38.107 -25.845 Q41.172 -22.629 44.996 -19.848 Q48.819 -17.068 54.001 -14.071 L64.698 -24.852 L76.533 -22.363 V-6.037 H72.785 Z"/></g><g id="Ultralight-S" transform="matrix(1 0 0 1 517.792 696)"><path d="M69.827 -47.459  68.544 -48.939  76.73 -57.125 H53.455 V-59.097 H76.73 L68.347 -67.579 L69.827 -68.762 L80.478 -58.308 L69.827 -47.459 Z M71.898 -7.22 Q63.219 -7.22 53.948 -11.708 Q44.677 -16.195 36.491 -24.381 Q28.404 -32.567 23.867 -41.986 Q19.331 -51.404 19.331 -59.886 V-63.338 H33.631 L36.984 -51.404 L26.234 -41.641 Q29.193 -36.709 32.102 -32.715 Q35.012 -28.721 37.971 -25.663 Q41.127 -22.31 45.121 -19.45 Q49.115 -16.59 54.638 -13.434 L64.994 -23.987 L75.35 -21.817 V-7.22 H71.898 Z"/></g></g></svg>