<svg xmlns="http://www.w3.org/2000/svg" height="40" viewBox="0 -960 960 960" width="40"><path d="M813.333-114.667 713.5-213.5H188.833q-23.166 0-39.166-16-16-16-16-39.167v-422.666q0-23.167 16-39.167t39.166-16H214l23.167 23.167h-33.5l-73.834-74.501q-3.666-2.166-3.916-7.583t3.916-8.916q3.334-3.334 7.917-3.334t8.416 3.334L829-131.5q2.833 3.667 3.333 8.917T829-114.667q-3.167 4.167-8.083 4.167-4.917 0-7.584-4.167Zm-4-165.999q-7.166 2.666-15.5 1.833-8.333-.833-14.5-7.833L536.333-529l256-171q4.834-2.834 5.5-7.334.667-4.5-2.666-8.5-3.334-3.833-7.167-4.999-3.833-1.167-8.333 1.666L519.833-545.5 366.5-699.5q-7-6.167-7.834-14.5-.833-8.333 1.834-15.5 2.5-5.667 8.75-11.333 6.25-5.667 15.416-5.667h386.501q23.166 0 39.166 16 16 16 16 39.167v386.5q0 9.167-5.666 15.417-5.667 6.25-11.334 8.75Z"/></svg>