<svg xmlns="http://www.w3.org/2000/svg" version="1.1" width="3300" height="2000"><g id="Notes"><style>
    text {
      font-family: monospace;
      text-anchor: middle;
    }
    text.emphasis {
      font-weight:bold;
    }
    text.lanchor {
      text-anchor: start;
    }
  </style><rect height="2200" id="artboard" fill="white" width="3300" x="0" y="0"/><line id="" style="fill:none;stroke:black;stroke-width:0.5;" x1="263" x2="3036" y1="292" y2="292"/><text class="lanchor emphasis" transform="matrix(1 0 0 1 263 322)">Weight/Scale Variations</text><text transform="matrix(1 0 0 1 559.711 322)">Ultralight</text><text transform="matrix(1 0 0 1 856.422 322)">Thin</text><text transform="matrix(1 0 0 1 1153.13 322)">Light</text><text transform="matrix(1 0 0 1 1449.84 322)">Regular</text><text transform="matrix(1 0 0 1 1746.56 322)">Medium</text><text transform="matrix(1 0 0 1 2043.27 322)">Semibold</text><text transform="matrix(1 0 0 1 2339.98 322)">Bold</text><text transform="matrix(1 0 0 1 2636.69 322)">Heavy</text><text transform="matrix(1 0 0 1 2933.4 322)">Black</text><text id="template-version" style="text-anchor: end;" transform="matrix(1 0 0 1 3036 1933)">Template v.1.0</text><text class="lanchor" transform="matrix(1 0 0 1 263 726)">Small</text><text class="lanchor" transform="matrix(1 0 0 1 263 1156)">Medium</text><text class="lanchor" transform="matrix(1 0 0 1 263 1586)">Large</text></g><g id="Guides"><g id="H-reference" style="fill:#27AAE1;stroke:none;" transform="matrix(1 0 0 1 339 696)"><path d="M 54.9316 0 L 57.666 0 L 30.5664 -70.459 L 28.0762 -70.459 L 0.976562 0 L 3.66211 0 L 12.9395 -24.4629 L 45.7031 -24.4629 Z M 29.1992 -67.0898 L 29.4434 -67.0898 L 44.8242 -26.709 L 13.8184 -26.709 Z"/></g><line id="Baseline-S" style="fill:none;stroke:#27AAE1;opacity:1;stroke-width:0.577;" x1="263" x2="3036" y1="696" y2="696"/><line id="Capline-S" style="fill:none;stroke:#27AAE1;opacity:1;stroke-width:0.577;" x1="263" x2="3036" y1="625.541" y2="625.541"/><g id="H-reference" style="fill:#27AAE1;stroke:none;" transform="matrix(1 0 0 1 339 1126)"><path d="M 54.9316 0 L 57.666 0 L 30.5664 -70.459 L 28.0762 -70.459 L 0.976562 0 L 3.66211 0 L 12.9395 -24.4629 L 45.7031 -24.4629 Z M 29.1992 -67.0898 L 29.4434 -67.0898 L 44.8242 -26.709 L 13.8184 -26.709 Z"/></g><line id="Baseline-M" style="fill:none;stroke:#27AAE1;opacity:1;stroke-width:0.577;" x1="263" x2="3036" y1="1126" y2="1126"/><line id="Capline-M" style="fill:none;stroke:#27AAE1;opacity:1;stroke-width:0.577;" x1="263" x2="3036" y1="1055.54" y2="1055.54"/><g id="H-reference" style="fill:#27AAE1;stroke:none;" transform="matrix(1 0 0 1 339 1556)"><path d="M 54.9316 0 L 57.666 0 L 30.5664 -70.459 L 28.0762 -70.459 L 0.976562 0 L 3.66211 0 L 12.9395 -24.4629 L 45.7031 -24.4629 Z M 29.1992 -67.0898 L 29.4434 -67.0898 L 44.8242 -26.709 L 13.8184 -26.709 Z"/></g><line id="Baseline-L" style="fill:none;stroke:#27AAE1;opacity:1;stroke-width:0.577;" x1="263" x2="3036" y1="1556" y2="1556"/><line id="Capline-L" style="fill:none;stroke:#27AAE1;opacity:1;stroke-width:0.577;" x1="263" x2="3036" y1="1485.54" y2="1485.54"/><rect height="119.336" id="left-margin" style="fill:darkred;stroke:none;opacity:0.4;" width="12.4512" x="1394.06" y="1030.79"/><rect height="119.336" id="right-margin" style="fill:darkgreen;stroke:none;opacity:0.4;" width="12.4512" x="1502.5112" y="1030.79"/><rect x="1406.5112" y="1045" width="96" height="96" fill="none" stroke="blue" stroke-dasharray="5"/><rect x="1394.06" y="1030.79" width="120.9024" height="119.336" fill="none" stroke="blue"/></g><g id="Symbols"><g id="Bold-L" transform="matrix(1 0 0 1 2266 1556)"><path d="M132.225 33.946  7.579 -90.539 Q5.966 -92.184 5.886 -94.586 Q5.805 -96.989 7.604 -98.762 Q9.336 -100.536 11.716 -100.536 Q14.097 -100.536 15.803 -98.762 L140.449 25.884 Q142.061 27.687 142.142 29.93 Q142.222 32.173 140.423 33.946 Q138.692 35.72 136.311 35.72 Q133.931 35.72 132.225 33.946 Z M108.36 33.301 Q92.648 33.301 81.719 22.371 Q70.789 11.442 70.789 -4.27 V-22.007 Q70.789 -26.762 71.868 -31.157 Q72.947 -35.552 74.955 -39.422 L102.877 -11.526 H84.172 V-4.27 Q84.172 5.751 91.25 12.834 Q98.328 19.918 108.341 19.918 Q113.681 19.918 118.381 17.771 Q123.08 15.625 126.42 11.855 L135.934 21.597 Q130.774 26.938 123.658 30.12 Q116.543 33.301 108.36 33.301 Z M139.051 7.663 Q136.264 7.663 134.406 5.808 Q132.548 3.954 132.548 1.213 V-11.526 H119.164 L101.91 -28.941 V-46.679 Q99.33 -46.195 97.073 -45.066 Q94.815 -43.937 93.203 -41.841 Q91.59 -40.712 89.574 -41.68 Q87.559 -42.647 86.582 -44.638 Q85.301 -47.001 86.188 -49.501 Q87.075 -52 89.714 -53.469 Q93.686 -56.515 98.471 -58.047 Q103.256 -59.579 108.36 -59.579 Q124.139 -59.579 135.116 -48.576 Q146.093 -37.572 146.093 -22.007 V1.051 Q146.093 3.974 144.068 5.818 Q142.044 7.663 139.051 7.663 Z M114.81 -24.426 H132.548 Q132.225 -32.489 127.307 -38.536 Q122.389 -44.582 114.81 -46.679 V-24.426 Z M24.026 20.401 Q17.729 20.401 13.299 15.971 Q8.869 11.541 8.869 5.244 V-75.704 Q8.869 -81.186 12.255 -85.298 Q15.641 -89.41 20.801 -90.539 H23.843 L38.7 -75.704 H24.026 Q24.026 -75.704 24.026 -75.704 Q24.026 -75.704 24.026 -75.704 V5.244 Q24.026 5.244 24.026 5.244 Q24.026 5.244 24.026 5.244 H53.696 Q56.861 5.244 59.148 7.449 Q61.436 9.654 61.436 12.851 Q61.436 16.048 59.148 18.224 Q56.861 20.401 53.696 20.401 H24.026 Z M51.116 -75.704 Q47.932 -75.704 45.735 -77.909 Q43.538 -80.114 43.538 -83.297 Q43.538 -86.479 45.735 -88.751 Q47.932 -91.022 51.116 -91.022 H138.352 Q141.517 -91.022 143.805 -88.723 Q146.093 -86.423 146.093 -83.24 Q146.093 -80.057 143.805 -77.881 Q141.517 -75.704 138.352 -75.704 H51.116 Z"/></g><g id="Semibold-L" transform="matrix(1 0 0 1 1970.27 1556)"><path d="M131.664 33.105  7.579 -90.819 Q6.036 -92.384 5.991 -94.616 Q5.945 -96.848 7.597 -98.482 Q9.21 -100.116 11.428 -100.116 Q13.646 -100.116 15.242 -98.482 L139.327 25.603 Q140.869 27.253 140.915 29.362 Q140.961 31.472 139.309 33.105 Q137.696 34.738 135.478 34.738 Q133.259 34.738 131.664 33.105 Z M107.519 31.549 Q92.188 31.549 81.523 20.884 Q70.859 10.219 70.859 -5.111 V-23.55 Q70.859 -27.85 71.763 -31.771 Q72.667 -35.693 74.324 -39.282 L99.513 -14.12 H82.63 V-5.111 Q82.63 5.2 89.913 12.489 Q97.197 19.777 107.5 19.777 Q112.84 19.777 117.539 17.701 Q122.239 15.625 125.649 11.925 L134.041 20.446 Q129.021 25.536 122.195 28.542 Q115.369 31.549 107.519 31.549 Z M138.174 8.574 Q135.7 8.574 134.054 6.921 Q132.407 5.268 132.407 2.825 V-14.12 H114.747 L101.77 -27.259 V-48.502 Q98.629 -47.877 95.846 -46.433 Q93.062 -44.989 90.959 -42.612 Q89.487 -41.414 87.611 -42.136 Q85.736 -42.858 84.623 -44.614 Q83.268 -46.721 83.945 -49.115 Q84.621 -51.509 86.884 -53.041 Q91.233 -56.585 96.543 -58.397 Q101.854 -60.21 107.519 -60.21 Q122.887 -60.21 133.579 -49.504 Q144.27 -38.797 144.27 -23.55 V2.734 Q144.27 5.28 142.517 6.927 Q140.765 8.574 138.174 8.574 Z M113.268 -25.618 H132.407 Q131.945 -34.031 126.641 -40.288 Q121.337 -46.545 113.268 -48.502 V-25.618 Z M23.395 18.649 Q18.154 18.649 14.388 14.882 Q10.621 11.116 10.621 5.875 V-76.335 Q10.621 -81.116 13.797 -84.702 Q16.973 -88.288 21.572 -88.926 H24.694 L37.298 -76.335 H23.395 Q23.395 -76.335 23.395 -76.335 Q23.395 -76.335 23.395 -76.335 V5.875 Q23.395 5.875 23.395 5.875 Q23.395 5.875 23.395 5.875 H55.239 Q57.921 5.875 59.819 7.729 Q61.717 9.584 61.717 12.29 Q61.717 14.996 59.819 16.822 Q57.921 18.649 55.239 18.649 H23.395 Z M49.924 -76.335 Q47.23 -76.335 45.384 -78.189 Q43.538 -80.044 43.538 -82.742 Q43.538 -85.44 45.384 -87.32 Q47.23 -89.2 49.924 -89.2 H137.792 Q140.474 -89.2 142.372 -87.292 Q144.27 -85.383 144.27 -82.685 Q144.27 -79.987 142.372 -78.161 Q140.474 -76.335 137.792 -76.335 H49.924 Z"/></g><g id="Medium-L" transform="matrix(1 0 0 1 1674.31 1556)"><path d="M131.243 32.474  7.579 -91.029 Q6.089 -92.535 6.07 -94.639 Q6.05 -96.743 7.591 -98.272 Q9.116 -99.8 11.212 -99.8 Q13.309 -99.8 14.821 -98.272 L138.486 25.393 Q139.975 26.928 139.995 28.937 Q140.014 30.946 138.473 32.474 Q136.948 34.002 134.852 34.002 Q132.756 34.002 131.243 32.474 Z M106.888 30.234 Q91.843 30.234 81.377 19.768 Q70.911 9.302 70.911 -5.742 V-24.707 Q70.911 -28.666 71.684 -32.232 Q72.456 -35.798 73.851 -39.177 L96.988 -16.066 H81.473 V-5.742 Q81.473 4.787 88.911 12.229 Q96.348 19.672 106.869 19.672 Q112.209 19.672 116.908 17.649 Q121.607 15.625 125.07 11.978 L132.621 19.583 Q127.706 24.484 121.097 27.359 Q114.488 30.234 106.888 30.234 Z M137.517 9.257 Q135.277 9.257 133.789 7.756 Q132.302 6.254 132.302 4.034 V-16.066 H111.434 L101.665 -25.997 V-49.869 Q98.103 -49.14 94.925 -47.459 Q91.748 -45.778 89.276 -43.191 Q87.909 -41.939 86.139 -42.478 Q84.369 -43.016 83.154 -44.596 Q81.743 -46.511 82.262 -48.826 Q82.781 -51.141 84.762 -52.719 Q89.392 -56.638 95.097 -58.66 Q100.802 -60.683 106.888 -60.683 Q121.949 -60.683 132.426 -50.2 Q142.903 -39.716 142.903 -24.707 V3.996 Q142.903 6.259 141.354 7.758 Q139.806 9.257 137.517 9.257 Z M112.111 -26.512 H132.302 Q131.734 -35.188 126.141 -41.603 Q120.548 -48.018 112.111 -49.869 V-26.512 Z M22.922 17.334 Q18.472 17.334 15.204 14.066 Q11.936 10.798 11.936 6.348 V-76.808 Q11.936 -81.064 14.954 -84.255 Q17.972 -87.447 22.151 -87.717 H25.332 L36.246 -76.808 H22.922 Q22.922 -76.808 22.922 -76.808 Q22.922 -76.808 22.922 -76.808 V6.348 Q22.922 6.348 22.922 6.348 Q22.922 6.348 22.922 6.348 H56.395 Q58.716 6.348 60.322 7.94 Q61.927 9.531 61.927 11.869 Q61.927 14.207 60.322 15.771 Q58.716 17.334 56.395 17.334 H22.922 Z M49.03 -76.808 Q46.705 -76.808 45.121 -78.4 Q43.538 -79.991 43.538 -82.326 Q43.538 -84.66 45.121 -86.246 Q46.705 -87.833 49.03 -87.833 H137.371 Q139.692 -87.833 141.297 -86.218 Q142.903 -84.604 142.903 -82.269 Q142.903 -79.935 141.297 -78.371 Q139.692 -76.808 137.371 -76.808 H49.03 Z"/></g><g id="Regular-L" transform="matrix(1 0 0 1 1378.56 1556)"><path d="M130.935 32.011  7.579 -91.184 Q6.128 -92.646 6.128 -94.656 Q6.128 -96.666 7.587 -98.117 Q9.047 -99.569 11.054 -99.569 Q13.061 -99.569 14.513 -98.117 L137.869 25.239 Q139.32 26.69 139.32 28.625 Q139.32 30.56 137.86 32.011 Q136.401 33.463 134.393 33.463 Q132.386 33.463 130.935 32.011 Z M106.425 29.27 Q91.59 29.27 81.27 18.95 Q70.95 8.63 70.95 -6.205 V-25.555 Q70.95 -29.264 71.626 -32.569 Q72.302 -35.875 73.504 -39.1 L95.138 -17.492 H80.625 V-6.205 Q80.625 4.484 88.175 12.039 Q95.725 19.595 106.406 19.595 Q111.746 19.595 116.446 17.61 Q121.145 15.625 124.646 12.016 L131.58 18.95 Q126.743 23.713 120.293 26.492 Q113.843 29.27 106.425 29.27 Z M137.034 9.759 Q134.966 9.759 133.596 8.368 Q132.225 6.977 132.225 4.921 V-17.492 H109.005 L101.588 -25.071 V-50.871 Q97.718 -50.065 94.251 -48.211 Q90.784 -46.356 88.043 -43.615 Q86.752 -42.325 85.059 -42.728 Q83.366 -43.131 82.076 -44.582 Q80.625 -46.356 81.028 -48.614 Q81.431 -50.871 83.205 -52.484 Q88.043 -56.676 94.037 -58.853 Q100.031 -61.03 106.425 -61.03 Q121.26 -61.03 131.58 -50.71 Q141.9 -40.39 141.9 -25.555 V4.921 Q141.9 6.977 140.501 8.368 Q139.102 9.759 137.034 9.759 Z M111.263 -27.167 H132.225 Q131.58 -36.036 125.775 -42.567 Q119.97 -49.097 111.263 -50.871 V-27.167 Z M22.575 16.37 Q18.705 16.37 15.803 13.468 Q12.9 10.565 12.9 6.695 V-77.155 Q12.9 -81.025 15.803 -83.927 Q18.705 -86.83 22.575 -86.83 H25.8 L35.475 -77.155 H22.575 Q22.575 -77.155 22.575 -77.155 Q22.575 -77.155 22.575 -77.155 V6.695 Q22.575 6.695 22.575 6.695 Q22.575 6.695 22.575 6.695 H57.244 Q59.3 6.695 60.69 8.094 Q62.081 9.493 62.081 11.561 Q62.081 13.629 60.69 14.999 Q59.3 16.37 57.244 16.37 H22.575 Z M48.375 -77.155 Q46.319 -77.155 44.928 -78.554 Q43.538 -79.953 43.538 -82.021 Q43.538 -84.089 44.928 -85.459 Q46.319 -86.83 48.375 -86.83 H137.062 Q139.118 -86.83 140.509 -85.431 Q141.9 -84.032 141.9 -81.964 Q141.9 -79.896 140.509 -78.526 Q139.118 -77.155 137.062 -77.155 H48.375 Z"/></g><g id="Light-L" transform="matrix(1 0 0 1 1082.77 1556)"><path d="M133.168 30.957  10.742 -91.432 Q9.663 -92.46 9.632 -94.005 Q9.601 -95.55 10.75 -96.629 Q11.838 -97.77 13.349 -97.77 Q14.86 -97.77 15.939 -96.629 L138.427 25.797 Q139.506 26.904 139.537 28.391 Q139.568 29.878 138.418 30.988 Q137.269 32.098 135.793 32.098 Q134.317 32.098 133.168 30.957 Z M106.432 26.045 Q92.954 26.045 83.565 16.663 Q74.175 7.281 74.175 -6.205 V-25.555 Q74.175 -28.551 74.651 -31.22 Q75.126 -33.89 76.047 -36.557 L93.959 -18.671 H81.493 V-6.205 Q81.493 4.174 88.764 11.45 Q96.035 18.727 106.427 18.727 Q111.622 18.727 116.141 16.791 Q120.659 14.854 124.026 11.396 L129.285 16.655 Q124.89 20.989 119.031 23.517 Q113.171 26.045 106.432 26.045 Z M134.984 6.658 Q133.416 6.658 132.386 5.606 Q131.357 4.554 131.357 2.999 V-18.671 H108.881 L102.766 -24.947 V-50.189 Q98.71 -49.507 95.057 -47.683 Q91.404 -45.86 88.539 -42.933 Q87.621 -41.953 86.321 -42.242 Q85.02 -42.532 84.123 -43.59 Q82.982 -44.93 83.261 -46.722 Q83.54 -48.514 84.88 -49.755 Q89.345 -53.761 94.914 -55.783 Q100.484 -57.805 106.425 -57.805 Q119.911 -57.805 129.293 -48.423 Q138.675 -39.041 138.675 -25.555 V2.999 Q138.675 4.554 137.614 5.606 Q136.553 6.658 134.984 6.658 Z M110.084 -25.989 H131.357 Q131.022 -35.23 125.155 -41.978 Q119.288 -48.725 110.084 -50.189 V-25.989 Z M25.428 13.145 Q21.634 13.145 18.88 10.39 Q16.125 7.636 16.125 3.842 V-74.302 Q16.125 -78.096 18.88 -80.85 Q21.634 -83.605 25.428 -83.605 H29.025 L36.343 -76.287 H25.428 Q24.56 -76.287 24.002 -75.728 Q23.443 -75.17 23.443 -74.302 V3.842 Q23.443 4.71 24.002 5.268 Q24.56 5.827 25.428 5.827 H59.415 Q60.909 5.827 61.991 6.888 Q63.074 7.949 63.074 9.517 Q63.074 11.086 61.991 12.115 Q60.909 13.145 59.415 13.145 H25.428 Z M51.476 -76.287 Q49.921 -76.287 48.869 -77.348 Q47.817 -78.409 47.817 -79.977 Q47.817 -81.546 48.869 -82.575 Q49.921 -83.605 51.476 -83.605 H135.016 Q136.571 -83.605 137.623 -82.544 Q138.675 -81.483 138.675 -79.914 Q138.675 -78.346 137.623 -77.316 Q136.571 -76.287 135.016 -76.287 H51.476 Z"/></g><g id="Thin-L" transform="matrix(1 0 0 1 787.282 1556)"><path d="M135.4 29.903  13.905 -91.68 Q13.198 -92.274 13.136 -93.354 Q13.074 -94.434 13.913 -95.141 Q14.629 -95.972 15.644 -95.972 Q16.658 -95.972 17.365 -95.141 L138.985 26.355 Q139.692 27.118 139.754 28.157 Q139.816 29.196 138.977 29.965 Q138.137 30.734 137.192 30.734 Q136.248 30.734 135.4 29.903 Z M106.439 22.82 Q94.319 22.82 85.859 14.376 Q77.4 5.933 77.4 -6.205 V-25.555 Q77.4 -27.837 77.675 -29.872 Q77.95 -31.906 78.59 -34.014 L92.781 -19.849 H82.362 V-6.205 Q82.362 3.863 89.353 10.861 Q96.345 17.858 106.447 17.858 Q111.498 17.858 115.836 15.971 Q120.174 14.084 123.406 10.776 L126.991 14.361 Q123.038 18.265 117.769 20.543 Q112.499 22.82 106.439 22.82 Z M132.935 3.557 Q131.865 3.557 131.177 2.844 Q130.488 2.13 130.488 1.076 V-19.849 H108.757 L103.944 -24.823 V-49.507 Q99.702 -48.949 95.863 -47.156 Q92.024 -45.364 89.035 -42.251 Q88.489 -41.581 87.581 -41.756 Q86.674 -41.932 86.169 -42.598 Q85.338 -43.503 85.493 -44.831 Q85.649 -46.158 86.554 -47.026 Q90.647 -50.846 95.792 -52.713 Q100.937 -54.58 106.425 -54.58 Q118.563 -54.58 127.006 -46.136 Q135.45 -37.693 135.45 -25.555 V1.076 Q135.45 2.13 134.727 2.844 Q134.004 3.557 132.935 3.557 Z M108.906 -24.811 H130.488 Q130.464 -34.424 124.535 -41.388 Q118.606 -48.353 108.906 -49.507 V-24.811 Z M28.281 9.92 Q24.563 9.92 21.956 7.314 Q19.35 4.707 19.35 0.989 V-71.449 Q19.35 -75.167 21.956 -77.774 Q24.563 -80.38 28.281 -80.38 H32.25 L37.212 -75.418 H28.281 Q26.544 -75.418 25.428 -74.302 Q24.312 -73.186 24.312 -71.449 V0.989 Q24.312 2.726 25.428 3.842 Q26.544 4.958 28.281 4.958 H61.585 Q62.518 4.958 63.292 5.682 Q64.066 6.405 64.066 7.474 Q64.066 8.543 63.292 9.232 Q62.518 9.92 61.585 9.92 H28.281 Z M54.577 -75.418 Q53.523 -75.418 52.809 -76.142 Q52.096 -76.865 52.096 -77.934 Q52.096 -79.003 52.809 -79.692 Q53.523 -80.38 54.577 -80.38 H132.969 Q134.024 -80.38 134.737 -79.657 Q135.45 -78.934 135.45 -77.864 Q135.45 -76.795 134.737 -76.107 Q134.024 -75.418 132.969 -75.418 H54.577 Z"/></g><g id="Ultralight-L" transform="matrix(1 0 0 1 491.205 1556)"><path d="M136.74 29.27  15.803 -91.829 Q15.319 -92.162 15.238 -92.963 Q15.158 -93.764 15.811 -94.247 Q16.303 -94.892 17.02 -94.892 Q17.738 -94.892 18.221 -94.247 L139.32 26.69 Q139.804 27.247 139.884 28.017 Q139.965 28.786 139.311 29.351 Q138.658 29.915 138.032 29.915 Q137.406 29.915 136.74 29.27 Z M106.443 20.885 Q95.138 20.885 87.236 13.004 Q79.335 5.124 79.335 -6.205 V-25.555 Q79.335 -27.409 79.489 -29.062 Q79.644 -30.715 80.115 -32.489 L92.074 -20.556 H82.883 V-6.205 Q82.883 3.677 89.707 10.507 Q96.532 17.338 106.46 17.338 Q111.424 17.338 115.653 15.479 Q119.882 13.621 123.034 10.404 L125.614 12.984 Q121.927 16.63 117.012 18.758 Q112.096 20.885 106.443 20.885 Z M131.704 1.696 Q130.935 1.696 130.451 1.186 Q129.968 0.676 129.968 -0.077 V-20.556 H108.683 L104.651 -24.749 V-49.097 Q100.297 -48.614 96.347 -46.84 Q92.396 -45.066 89.332 -41.841 Q89.01 -41.357 88.338 -41.465 Q87.666 -41.572 87.398 -42.002 Q86.752 -42.647 86.833 -43.696 Q86.914 -44.744 87.559 -45.389 Q91.429 -49.097 96.319 -50.871 Q101.209 -52.645 106.425 -52.645 Q117.754 -52.645 125.634 -44.764 Q133.515 -36.884 133.515 -25.555 V-0.077 Q133.515 0.676 132.994 1.186 Q132.474 1.696 131.704 1.696 Z M108.199 -24.104 H129.968 Q130.129 -33.94 124.163 -41.035 Q118.196 -48.13 108.199 -49.097 V-24.104 Z M29.992 7.985 Q26.32 7.985 23.803 5.467 Q21.285 2.95 21.285 -0.722 V-69.737 Q21.285 -73.41 23.803 -75.928 Q26.32 -78.445 29.992 -78.445 H34.185 L37.733 -74.897 H29.992 Q27.735 -74.897 26.284 -73.446 Q24.832 -71.995 24.832 -69.737 V-0.722 Q24.832 1.535 26.284 2.986 Q27.735 4.438 29.992 4.438 H62.888 Q63.484 4.438 64.073 4.958 Q64.661 5.479 64.661 6.248 Q64.661 7.018 64.073 7.501 Q63.484 7.985 62.888 7.985 H29.992 Z M56.438 -74.897 Q55.684 -74.897 55.174 -75.418 Q54.664 -75.939 54.664 -76.708 Q54.664 -77.477 55.174 -77.961 Q55.684 -78.445 56.438 -78.445 H131.741 Q132.495 -78.445 133.005 -77.924 Q133.515 -77.404 133.515 -76.634 Q133.515 -75.865 133.005 -75.381 Q132.495 -74.897 131.741 -74.897 H56.438 Z"/></g><g id="Bold-M" transform="matrix(1 0 0 1 2281.8 1126)"><path d="M100.25 19.645  6.875 -73.605 Q5.125 -75.372 5.125 -77.801 Q5.125 -80.23 6.888 -81.98 Q8.651 -83.73 11.076 -83.73 Q13.5 -83.73 15.25 -81.98 L108.625 11.395 Q110.375 13.168 110.375 15.531 Q110.375 17.895 108.612 19.645 Q106.849 21.395 104.424 21.395 Q102 21.395 100.25 19.645 Z M84.5 19.02 Q72.059 19.02 63.404 10.366 Q54.75 1.711 54.75 -10.73 V-23.98 Q54.75 -27.98 55.75 -31.667 Q56.75 -35.355 58.625 -38.605 L83.125 -14.105 H68.625 V-10.73 Q68.625 -4.153 73.274 0.496 Q77.923 5.145 84.5 5.145 Q88.125 5.145 91.312 3.583 Q94.5 2.02 96.625 -0.605 L106.5 9.27 Q102.5 13.77 96.786 16.395 Q91.071 19.02 84.5 19.02 Z M107.125 -7.355 Q104.256 -7.355 102.316 -9.296 Q100.375 -11.236 100.375 -14.105 H99.875 L77.875 -36.105 V-40.105 Q77.875 -40.105 77.875 -40.105 Q77.875 -40.105 77.875 -40.105 Q75.75 -39.105 73.562 -40.23 Q71.375 -41.355 70.493 -43.648 Q69.5 -46.105 70.688 -48.542 Q71.875 -50.98 74.375 -51.98 Q76.875 -52.98 79.361 -53.355 Q81.848 -53.73 84.5 -53.73 Q96.941 -53.73 105.596 -45.075 Q114.25 -36.421 114.25 -23.98 V-14.23 Q114.25 -11.308 112.201 -9.331 Q110.153 -7.355 107.125 -7.355 Z M91.125 -27.355 H100.25 Q99.75 -31.605 97.312 -34.98 Q94.875 -38.355 91.125 -40.105 V-27.355 Z M21.5 9.02 Q14.875 9.02 10.312 4.458 Q5.75 -0.105 5.75 -6.73 V-63.73 Q5.75 -69.48 9.25 -73.73 Q12.75 -77.98 18.125 -79.105 L33.5 -63.73 H21.5 Q21.5 -63.73 21.5 -63.73 Q21.5 -63.73 21.5 -63.73 V-6.73 Q21.5 -6.73 21.5 -6.73 Q21.5 -6.73 21.5 -6.73 H36.375 Q39.625 -6.73 41.938 -4.417 Q44.25 -2.105 44.25 1.145 Q44.25 4.395 41.938 6.708 Q39.625 9.02 36.375 9.02 H21.5 Z M45.25 -63.73 Q42 -63.73 39.688 -66.042 Q37.375 -68.355 37.375 -71.605 Q37.375 -74.855 39.688 -77.167 Q42 -79.48 45.25 -79.48 H106.375 Q109.625 -79.48 111.938 -77.167 Q114.25 -74.855 114.25 -71.605 Q114.25 -68.355 111.938 -66.042 Q109.625 -63.73 106.375 -63.73 H45.25 Z"/></g><g id="Semibold-M" transform="matrix(1 0 0 1 1985.97 1126)"><path d="M99.652 18.776  6.875 -73.877 Q5.234 -75.527 5.234 -77.797 Q5.234 -80.067 6.882 -81.708 Q8.531 -83.35 10.798 -83.35 Q13.065 -83.35 14.707 -81.708 L107.484 11.069 Q109.125 12.723 109.125 14.929 Q109.125 17.134 107.476 18.776 Q105.828 20.417 103.561 20.417 Q101.293 20.417 99.652 18.776 Z M83.63 17.172 Q71.599 17.172 63.229 8.802 Q54.859 0.432 54.859 -11.599 V-25.61 Q54.859 -29.121 55.669 -32.32 Q56.478 -35.518 57.973 -38.442 L79.647 -16.768 H67.049 V-11.599 Q67.049 -4.73 71.905 0.126 Q76.761 4.982 83.63 4.982 Q87.255 4.982 90.443 3.501 Q93.63 2.02 95.864 -0.551 L104.544 8.129 Q100.652 12.303 95.249 14.738 Q89.845 17.172 83.63 17.172 Z M106.201 -6.431 Q103.656 -6.431 101.934 -8.153 Q100.212 -9.875 100.212 -12.42 V-16.768 H95.31 L77.712 -34.366 V-42.007 Q77.114 -41.844 76.598 -41.545 Q76.082 -41.246 75.538 -40.92 Q73.576 -39.92 71.497 -40.746 Q69.419 -41.572 68.485 -43.629 Q67.435 -45.833 68.351 -48.135 Q69.266 -50.436 71.495 -51.545 Q74.321 -53.034 77.357 -53.708 Q80.392 -54.382 83.63 -54.382 Q95.662 -54.382 104.032 -46.012 Q112.402 -37.642 112.402 -25.61 V-12.491 Q112.402 -9.915 110.62 -8.173 Q108.837 -6.431 106.201 -6.431 Z M89.549 -28.605 H100.087 Q99.478 -33.235 96.606 -36.828 Q93.734 -40.42 89.549 -42.007 V-28.605 Z M20.848 7.172 Q15.31 7.172 11.454 3.316 Q7.598 -0.54 7.598 -6.078 V-64.382 Q7.598 -69.426 10.853 -73.105 Q14.109 -76.784 18.94 -77.42 H18.994 L32.033 -64.382 H20.848 Q20.848 -64.382 20.848 -64.382 Q20.848 -64.382 20.848 -64.382 V-6.078 Q20.848 -6.078 20.848 -6.078 Q20.848 -6.078 20.848 -6.078 H37.951 Q40.712 -6.078 42.644 -4.146 Q44.576 -2.214 44.576 0.547 Q44.576 3.308 42.644 5.24 Q40.712 7.172 37.951 7.172 H20.848 Z M44 -64.382 Q41.239 -64.382 39.307 -66.314 Q37.375 -68.246 37.375 -71.007 Q37.375 -73.768 39.307 -75.7 Q41.239 -77.632 44 -77.632 H105.777 Q108.538 -77.632 110.47 -75.7 Q112.402 -73.768 112.402 -71.007 Q112.402 -68.246 110.47 -66.314 Q108.538 -64.382 105.777 -64.382 H44 Z"/></g><g id="Medium-M" transform="matrix(1 0 0 1 1689.91 1126)"><path d="M99.204 18.123  6.875 -74.08 Q5.315 -75.644 5.315 -77.794 Q5.315 -79.945 6.878 -81.504 Q8.441 -83.064 10.59 -83.064 Q12.739 -83.064 14.299 -81.504 L106.628 10.824 Q108.188 12.39 108.188 14.477 Q108.188 16.564 106.625 18.123 Q105.062 19.683 102.913 19.683 Q100.764 19.683 99.204 18.123 Z M82.978 15.786 Q71.253 15.786 63.097 7.63 Q54.94 -0.527 54.94 -12.252 V-26.833 Q54.94 -29.977 55.607 -32.809 Q56.275 -35.64 57.484 -38.32 L77.038 -18.765 H65.867 V-12.252 Q65.867 -5.163 70.878 -0.151 Q75.889 4.86 82.978 4.86 Q86.603 4.86 89.791 3.44 Q92.978 2.02 95.293 -0.51 L103.076 7.273 Q99.266 11.202 94.096 13.494 Q88.925 15.786 82.978 15.786 Z M105.508 -5.738 Q103.205 -5.738 101.647 -7.296 Q100.09 -8.854 100.09 -11.157 V-18.765 H91.886 L77.59 -33.061 V-43.434 Q76.543 -43.148 75.64 -42.625 Q74.736 -42.102 73.785 -41.532 Q71.946 -40.532 69.948 -41.133 Q67.951 -41.735 66.979 -43.615 Q65.886 -45.629 66.598 -47.829 Q67.31 -50.029 69.334 -51.219 Q72.405 -53.075 75.853 -53.973 Q79.301 -54.871 82.978 -54.871 Q94.703 -54.871 102.86 -46.715 Q111.016 -38.558 111.016 -26.833 V-11.186 Q111.016 -8.871 109.433 -7.305 Q107.849 -5.738 105.508 -5.738 Z M88.367 -29.542 H99.965 Q99.275 -34.458 96.076 -38.214 Q92.878 -41.969 88.367 -43.434 V-29.542 Z M20.359 5.786 Q15.636 5.786 12.31 2.46 Q8.984 -0.866 8.984 -5.589 V-64.871 Q8.984 -69.385 12.056 -72.636 Q15.128 -75.888 19.552 -76.157 H19.647 L30.932 -64.871 H20.359 Q20.359 -64.871 20.359 -64.871 Q20.359 -64.871 20.359 -64.871 V-5.589 Q20.359 -5.589 20.359 -5.589 Q20.359 -5.589 20.359 -5.589 H39.133 Q41.527 -5.589 43.174 -3.942 Q44.821 -2.295 44.821 0.099 Q44.821 2.493 43.174 4.14 Q41.527 5.786 39.133 5.786 H20.359 Z M43.062 -64.871 Q40.669 -64.871 39.022 -66.518 Q37.375 -68.165 37.375 -70.559 Q37.375 -72.953 39.022 -74.6 Q40.669 -76.246 43.062 -76.246 H105.329 Q107.723 -76.246 109.37 -74.6 Q111.016 -72.953 111.016 -70.559 Q111.016 -68.165 109.37 -66.518 Q107.723 -64.871 105.329 -64.871 H43.062 Z"/></g><g id="Regular-M" transform="matrix(1 0 0 1 1394.06 1126)"><path d="M98.875 17.645  6.875 -74.23 Q5.375 -75.73 5.375 -77.792 Q5.375 -79.855 6.875 -81.355 Q8.375 -82.855 10.438 -82.855 Q12.5 -82.855 14 -81.355 L106 10.645 Q107.5 12.145 107.5 14.145 Q107.5 16.145 106 17.645 Q104.5 19.145 102.438 19.145 Q100.375 19.145 98.875 17.645 Z M82.5 14.77 Q71 14.77 63 6.77 Q55 -1.23 55 -12.73 V-27.73 Q55 -30.605 55.562 -33.167 Q56.125 -35.73 57.125 -38.23 L75.125 -20.23 H65 V-12.73 Q65 -5.48 70.125 -0.355 Q75.25 4.77 82.5 4.77 Q86.125 4.77 89.312 3.395 Q92.5 2.02 94.875 -0.48 L102 6.645 Q98.25 10.395 93.25 12.583 Q88.25 14.77 82.5 14.77 Z M105 -5.23 Q102.875 -5.23 101.438 -6.667 Q100 -8.105 100 -10.23 V-20.23 H89.375 L77.5 -32.105 V-44.48 Q76.125 -44.105 74.938 -43.417 Q73.75 -42.73 72.5 -41.98 Q70.75 -40.98 68.812 -41.417 Q66.875 -41.855 65.875 -43.605 Q64.75 -45.48 65.312 -47.605 Q65.875 -49.73 67.75 -50.98 Q71 -53.105 74.75 -54.167 Q78.5 -55.23 82.5 -55.23 Q94 -55.23 102 -47.23 Q110 -39.23 110 -27.73 V-10.23 Q110 -8.105 108.562 -6.667 Q107.125 -5.23 105 -5.23 Z M87.5 -30.23 H99.875 Q99.125 -35.355 95.688 -39.23 Q92.25 -43.105 87.5 -44.48 V-30.23 Z M20 4.77 Q15.875 4.77 12.938 1.833 Q10 -1.105 10 -5.23 V-65.23 Q10 -69.355 12.938 -72.292 Q15.875 -75.23 20 -75.23 H20.125 L30.125 -65.23 H20 Q20 -65.23 20 -65.23 Q20 -65.23 20 -65.23 V-5.23 Q20 -5.23 20 -5.23 Q20 -5.23 20 -5.23 H40 Q42.125 -5.23 43.562 -3.792 Q45 -2.355 45 -0.23 Q45 1.895 43.562 3.333 Q42.125 4.77 40 4.77 H20 Z M42.375 -65.23 Q40.25 -65.23 38.812 -66.667 Q37.375 -68.105 37.375 -70.23 Q37.375 -72.355 38.812 -73.792 Q40.25 -75.23 42.375 -75.23 H105 Q107.125 -75.23 108.562 -73.792 Q110 -72.355 110 -70.23 Q110 -68.105 108.562 -66.667 Q107.125 -65.23 105 -65.23 H42.375 Z"/></g><g id="Light-M" transform="matrix(1 0 0 1 1098.18 1126)"><path d="M101.327 16.635  9.039 -75.576 Q7.923 -76.692 7.899 -78.225 Q7.875 -79.759 9.039 -80.922 Q10.202 -82.086 11.712 -82.086 Q13.221 -82.086 14.385 -80.922 L106.673 11.366 Q107.788 12.482 107.812 13.977 Q107.837 15.472 106.673 16.635 Q105.51 17.799 104 17.799 Q102.49 17.799 101.327 16.635 Z M82.505 12.27 Q72.058 12.27 64.779 4.997 Q57.5 -2.275 57.5 -12.73 V-27.73 Q57.5 -30.052 57.894 -32.122 Q58.289 -34.191 59.048 -36.259 L73.827 -21.48 H65 V-12.73 Q65 -5.48 70.125 -0.355 Q75.25 4.77 82.5 4.77 Q86.125 4.77 89.312 3.395 Q92.5 2.02 94.875 -0.432 L100.221 4.914 Q96.814 8.309 92.272 10.289 Q87.729 12.27 82.505 12.27 Z M103.748 -6.336 Q102.154 -6.336 101.077 -7.414 Q100 -8.492 100 -10.086 V-21.48 H87.981 L78.75 -30.711 V-44.72 Q76.798 -44.393 75.058 -43.514 Q73.317 -42.634 71.731 -41.403 Q70.462 -40.595 69.021 -40.921 Q67.58 -41.246 66.837 -42.547 Q65.952 -43.941 66.37 -45.586 Q66.788 -47.23 68.183 -48.239 Q71.288 -50.509 74.944 -51.619 Q78.6 -52.73 82.5 -52.73 Q92.954 -52.73 100.227 -45.457 Q107.5 -38.184 107.5 -27.73 V-10.086 Q107.5 -8.492 106.421 -7.414 Q105.343 -6.336 103.748 -6.336 Z M86.25 -28.98 H99.923 Q99.462 -34.874 95.688 -39.23 Q91.913 -43.586 86.25 -44.72 V-28.98 Z M21.539 2.27 Q17.75 2.27 15.125 -0.355 Q12.5 -2.98 12.5 -6.769 V-63.691 Q12.5 -67.48 15.125 -70.105 Q17.75 -72.73 21.539 -72.73 H22.577 L30.077 -65.23 H21.539 Q20.866 -65.23 20.433 -64.797 Q20 -64.364 20 -63.691 V-6.769 Q20 -6.095 20.433 -5.663 Q20.866 -5.23 21.539 -5.23 H42.837 Q44.431 -5.23 45.508 -4.151 Q46.587 -3.073 46.587 -1.478 Q46.587 0.116 45.508 1.193 Q44.431 2.27 42.837 2.27 H21.539 Z M43.481 -65.23 Q41.887 -65.23 40.809 -66.309 Q39.731 -67.387 39.731 -68.982 Q39.731 -70.576 40.809 -71.653 Q41.887 -72.73 43.481 -72.73 H103.75 Q105.344 -72.73 106.422 -71.651 Q107.5 -70.573 107.5 -68.978 Q107.5 -67.384 106.422 -66.307 Q105.344 -65.23 103.75 -65.23 H43.481 Z"/></g><g id="Thin-M" transform="matrix(1 0 0 1 802.565 1126)"><path d="M103.779 15.626  11.202 -76.922 Q10.471 -77.653 10.423 -78.658 Q10.375 -79.663 11.202 -80.49 Q12.029 -81.316 12.986 -81.316 Q13.942 -81.316 14.769 -80.49 L107.346 12.087 Q108.077 12.818 108.125 13.809 Q108.173 14.799 107.346 15.626 Q106.519 16.453 105.562 16.453 Q104.606 16.453 103.779 15.626 Z M82.511 9.77 Q73.115 9.77 66.558 3.225 Q60 -3.321 60 -12.73 V-27.73 Q60 -29.499 60.226 -31.076 Q60.452 -32.653 60.971 -34.288 L72.529 -22.73 H65 V-12.73 Q65 -5.48 70.125 -0.355 Q75.25 4.77 82.5 4.77 Q86.125 4.77 89.312 3.395 Q92.5 2.02 94.875 -0.384 L98.442 3.184 Q95.379 6.223 91.294 7.997 Q87.209 9.77 82.511 9.77 Z M102.497 -7.441 Q101.433 -7.441 100.716 -8.16 Q100 -8.879 100 -9.941 V-22.73 H86.587 L80 -29.316 V-44.961 Q77.471 -44.682 75.178 -43.61 Q72.885 -42.538 70.962 -40.826 Q70.173 -40.211 69.229 -40.424 Q68.285 -40.637 67.798 -41.49 Q67.154 -42.403 67.428 -43.567 Q67.702 -44.73 68.615 -45.499 Q71.577 -47.913 75.139 -49.071 Q78.701 -50.23 82.5 -50.23 Q91.909 -50.23 98.455 -43.685 Q105 -37.139 105 -27.73 V-9.941 Q105 -8.879 104.28 -8.16 Q103.561 -7.441 102.497 -7.441 Z M85 -27.73 H99.971 Q99.798 -34.393 95.688 -39.23 Q91.577 -44.066 85 -44.961 V-27.73 Z M23.077 -0.23 Q19.625 -0.23 17.312 -2.542 Q15 -4.855 15 -8.307 V-62.153 Q15 -65.605 17.312 -67.917 Q19.625 -70.23 23.077 -70.23 H25.029 L30.029 -65.23 H23.077 Q21.731 -65.23 20.865 -64.365 Q20 -63.499 20 -62.153 V-8.307 Q20 -6.961 20.865 -6.095 Q21.731 -5.23 23.077 -5.23 H45.673 Q46.736 -5.23 47.454 -4.51 Q48.173 -3.79 48.173 -2.727 Q48.173 -1.663 47.454 -0.946 Q46.736 -0.23 45.673 -0.23 H23.077 Z M44.587 -65.23 Q43.524 -65.23 42.805 -65.95 Q42.087 -66.669 42.087 -67.733 Q42.087 -68.797 42.805 -69.514 Q43.524 -70.23 44.587 -70.23 H102.5 Q103.562 -70.23 104.281 -69.51 Q105 -68.791 105 -67.727 Q105 -66.663 104.281 -65.946 Q103.562 -65.23 102.5 -65.23 H44.587 Z"/></g><g id="Ultralight-M" transform="matrix(1 0 0 1 506.415 1126)"><path d="M105.25 15.02  12.5 -77.73 Q12 -78.23 11.938 -78.917 Q11.875 -79.605 12.5 -80.23 Q13.125 -80.855 13.75 -80.855 Q14.375 -80.855 15 -80.23 L107.75 12.52 Q108.25 13.02 108.312 13.708 Q108.375 14.395 107.75 15.02 Q107.125 15.645 106.5 15.645 Q105.875 15.645 105.25 15.02 Z M82.514 8.27 Q73.75 8.27 67.625 2.161 Q61.5 -3.948 61.5 -12.73 V-27.73 Q61.5 -29.167 61.625 -30.449 Q61.75 -31.73 62.125 -33.105 L71.75 -23.48 H65 V-12.73 Q65 -5.48 70.125 -0.355 Q75.25 4.77 82.5 4.77 Q86.125 4.77 89.312 3.395 Q92.5 2.02 94.875 -0.355 L97.375 2.145 Q94.517 4.972 90.707 6.621 Q86.896 8.27 82.514 8.27 Z M101.746 -8.105 Q101 -8.105 100.5 -8.608 Q100 -9.111 100 -9.855 V-23.48 H85.75 L80.75 -28.48 V-45.105 Q77.875 -44.855 75.25 -43.667 Q72.625 -42.48 70.5 -40.48 Q70 -39.98 69.354 -40.126 Q68.708 -40.272 68.375 -40.855 Q67.875 -41.48 68.062 -42.355 Q68.25 -43.23 68.875 -43.855 Q71.75 -46.355 75.255 -47.542 Q78.761 -48.73 82.5 -48.73 Q91.282 -48.73 97.391 -42.621 Q103.5 -36.512 103.5 -27.73 V-9.855 Q103.5 -9.111 102.996 -8.608 Q102.491 -8.105 101.746 -8.105 Z M84.25 -26.98 H100 Q100 -34.105 95.688 -39.23 Q91.375 -44.355 84.25 -45.105 V-26.98 Z M24 -1.73 Q20.75 -1.73 18.625 -3.855 Q16.5 -5.98 16.5 -9.23 V-61.23 Q16.5 -64.48 18.625 -66.605 Q20.75 -68.73 24 -68.73 H26.5 L30 -65.23 H24 Q22.25 -65.23 21.125 -64.105 Q20 -62.98 20 -61.23 V-9.23 Q20 -7.48 21.125 -6.355 Q22.25 -5.23 24 -5.23 H47.375 Q48.119 -5.23 48.622 -4.726 Q49.125 -4.221 49.125 -3.476 Q49.125 -2.73 48.622 -2.23 Q48.119 -1.73 47.375 -1.73 H24 Z M45.25 -65.23 Q44.506 -65.23 44.003 -65.734 Q43.5 -66.239 43.5 -66.984 Q43.5 -67.73 44.003 -68.23 Q44.506 -68.73 45.25 -68.73 H101.75 Q102.494 -68.73 102.997 -68.226 Q103.5 -67.721 103.5 -66.976 Q103.5 -66.23 102.997 -65.73 Q102.494 -65.23 101.75 -65.23 H45.25 Z"/></g><g id="Bold-S" transform="matrix(1 0 0 1 2294.23 696)"><path d="M77.683 5.566  8.022 -64.092 Q6.707 -65.422 6.756 -67.092 Q6.805 -68.762 8.098 -70.045 Q9.39 -71.327 11.056 -71.327 Q12.723 -71.327 14.038 -70.011 L83.699 -0.35 Q85.015 0.983 85.015 2.669 Q85.015 4.355 83.722 5.601 Q82.463 6.883 80.731 6.883 Q78.999 6.883 77.683 5.566 Z M65.487 5.995 Q55.77 5.995 49.089 -0.685 Q42.409 -7.366 42.409 -17.083 V-25.17 Q42.409 -28.622 43.346 -31.926 Q44.283 -35.23 46.058 -37.991 L65.487 -18.562 H52.567 V-17.083 Q52.567 -11.66 56.354 -7.912 Q60.14 -4.163 65.497 -4.163 Q68.441 -4.163 71.029 -5.396 Q73.618 -6.629 75.35 -8.7 L82.549 -1.5 Q79.45 1.959 75.017 3.977 Q70.585 5.995 65.487 5.995 Z M83.359 -13.237 Q81.272 -13.237 79.839 -14.654 Q78.407 -16.072 78.407 -18.168 V-18.562 H77.519 L60.654 -35.427 V-38.386 Q60.654 -38.386 60.605 -38.485 Q60.556 -38.583 60.556 -38.485 Q59.076 -37.696 57.449 -38.633 Q55.822 -39.569 55.126 -41.28 Q54.441 -43.021 55.279 -44.698 Q56.118 -46.375 57.893 -46.966 Q59.767 -47.755 61.679 -48.002 Q63.592 -48.248 65.487 -48.248 Q75.204 -48.248 81.885 -41.568 Q88.565 -34.887 88.565 -25.17 V-18.266 Q88.565 -16.129 87.068 -14.683 Q85.572 -13.237 83.359 -13.237 Z M70.32 -28.228 H78.21 Q77.716 -31.778 75.695 -34.441 Q73.673 -37.104 70.32 -38.485 V-28.228 Z M17.753 -3.473 Q12.851 -3.473 9.483 -6.875 Q6.115 -10.278 6.115 -15.11 V-55.349 Q6.115 -59.492 8.644 -62.648 Q11.174 -65.804 15.09 -66.691 H17.358 L28.7 -55.349 H17.753 Q17.753 -55.349 17.753 -55.349 Q17.753 -55.349 17.753 -55.349 V-15.11 Q17.753 -15.11 17.753 -15.11 Q17.753 -15.11 17.753 -15.11 H29.094 Q31.491 -15.11 33.202 -13.405 Q34.913 -11.7 34.913 -9.312 Q34.913 -6.925 33.202 -5.199 Q31.491 -3.473 29.094 -3.473 H17.753 Z M36.59 -55.349 Q34.193 -55.349 32.482 -57.055 Q30.771 -58.76 30.771 -61.148 Q30.771 -63.535 32.482 -65.261 Q34.193 -66.987 36.59 -66.987 H82.746 Q85.143 -66.987 86.854 -65.282 Q88.565 -63.577 88.565 -61.189 Q88.565 -58.801 86.854 -57.075 Q85.143 -55.349 82.746 -55.349 H36.59 Z"/></g><g id="Semibold-S" transform="matrix(1 0 0 1 1998.1 696)"><path d="M77.212 4.88  8.022 -64.307 Q6.792 -65.545 6.842 -67.09 Q6.891 -68.634 8.093 -69.83 Q9.295 -71.027 10.838 -71.027 Q12.38 -71.027 13.609 -69.797 L82.799 -0.607 Q84.029 0.633 84.029 2.193 Q84.029 3.754 82.826 4.915 Q81.657 6.111 80.049 6.111 Q78.441 6.111 77.212 4.88 Z M64.801 4.537 Q55.406 4.537 48.95 -1.919 Q42.495 -8.375 42.495 -17.769 V-26.457 Q42.495 -29.523 43.281 -32.441 Q44.068 -35.359 45.543 -37.863 L62.743 -20.663 H51.324 V-17.769 Q51.324 -12.116 55.273 -8.204 Q59.223 -4.292 64.811 -4.292 Q67.755 -4.292 70.343 -5.46 Q72.932 -6.629 74.749 -8.657 L81.006 -2.401 Q77.992 0.802 73.805 2.669 Q69.617 4.537 64.801 4.537 Z M82.63 -12.508 Q80.798 -12.508 79.538 -13.753 Q78.278 -14.998 78.278 -16.839 V-20.663 H73.918 L60.526 -34.055 V-39.887 Q60.054 -39.758 59.597 -39.621 Q59.141 -39.484 58.712 -39.128 Q57.361 -38.339 55.82 -39.04 Q54.278 -39.741 53.542 -41.265 Q52.812 -42.807 53.436 -44.376 Q54.06 -45.946 55.62 -46.623 Q57.752 -47.798 60.097 -48.281 Q62.443 -48.763 64.801 -48.763 Q74.195 -48.763 80.651 -42.307 Q87.107 -35.851 87.107 -26.457 V-16.894 Q87.107 -15.03 85.82 -13.769 Q84.533 -12.508 82.63 -12.508 Z M69.076 -29.214 H78.081 Q77.502 -33.064 75.137 -35.899 Q72.772 -38.733 69.076 -39.985 V-29.214 Z M17.238 -4.931 Q13.194 -4.931 10.383 -7.776 Q7.573 -10.621 7.573 -14.596 V-55.864 Q7.573 -59.449 9.909 -62.155 Q12.246 -64.86 15.733 -65.362 H18.044 L27.542 -55.864 H17.238 Q17.238 -55.864 17.238 -55.864 Q17.238 -55.864 17.238 -55.864 V-14.596 Q17.238 -14.596 17.238 -14.596 Q17.238 -14.596 17.238 -14.596 H30.338 Q32.349 -14.596 33.76 -13.191 Q35.171 -11.786 35.171 -9.784 Q35.171 -7.782 33.76 -6.356 Q32.349 -4.931 30.338 -4.931 H17.238 Z M35.604 -55.864 Q33.593 -55.864 32.182 -57.269 Q30.771 -58.674 30.771 -60.676 Q30.771 -62.678 32.182 -64.104 Q33.593 -65.529 35.604 -65.529 H82.275 Q84.285 -65.529 85.696 -64.124 Q87.107 -62.719 87.107 -60.717 Q87.107 -58.716 85.696 -57.29 Q84.285 -55.864 82.275 -55.864 H35.604 Z"/></g><g id="Medium-S" transform="matrix(1 0 0 1 1701.85 696)"><path d="M76.858 4.365  8.022 -64.468 Q6.857 -65.637 6.906 -67.087 Q6.955 -68.537 8.09 -69.669 Q9.224 -70.801 10.673 -70.801 Q12.122 -70.801 13.288 -69.636 L82.124 -0.8 Q83.289 0.369 83.289 1.837 Q83.289 3.304 82.154 4.4 Q81.053 5.532 79.538 5.532 Q78.023 5.532 76.858 4.365 Z M64.286 3.444 Q55.134 3.444 48.846 -2.844 Q42.559 -9.131 42.559 -18.284 V-27.421 Q42.559 -30.198 43.233 -32.827 Q43.907 -35.455 45.157 -37.766 L60.684 -22.239 H50.391 V-18.284 Q50.391 -12.457 54.463 -8.423 Q58.536 -4.388 64.296 -4.388 Q67.24 -4.388 69.829 -5.508 Q72.417 -6.629 74.299 -8.625 L79.848 -3.076 Q76.899 -0.067 72.895 1.688 Q68.891 3.444 64.286 3.444 Z M82.083 -11.961 Q80.443 -11.961 79.312 -13.077 Q78.182 -14.192 78.182 -15.842 V-22.239 H71.216 L60.429 -33.026 V-41.012 Q59.604 -40.787 58.842 -40.473 Q58.079 -40.159 57.329 -39.61 Q56.075 -38.821 54.598 -39.345 Q53.12 -39.87 52.354 -41.254 Q51.589 -42.646 52.053 -44.135 Q52.516 -45.624 53.916 -46.366 Q56.24 -47.83 58.911 -48.49 Q61.582 -49.149 64.286 -49.149 Q73.439 -49.149 79.726 -42.861 Q86.014 -36.574 86.014 -27.421 V-15.865 Q86.014 -14.206 84.884 -13.083 Q83.754 -11.961 82.083 -11.961 Z M68.143 -29.954 H77.984 Q77.341 -34.029 74.719 -36.992 Q72.097 -39.955 68.143 -41.111 V-29.954 Z M16.852 -6.024 Q13.451 -6.024 11.059 -8.451 Q8.666 -10.878 8.666 -14.21 V-56.25 Q8.666 -59.417 10.858 -61.785 Q13.05 -64.153 16.215 -64.365 H18.559 L26.674 -56.25 H16.852 Q16.852 -56.25 16.852 -56.25 Q16.852 -56.25 16.852 -56.25 V-14.21 Q16.852 -14.21 16.852 -14.21 Q16.852 -14.21 16.852 -14.21 H31.271 Q32.992 -14.21 34.178 -13.03 Q35.363 -11.85 35.363 -10.138 Q35.363 -8.425 34.178 -7.225 Q32.992 -6.024 31.271 -6.024 H16.852 Z M34.864 -56.25 Q33.143 -56.25 31.957 -57.43 Q30.771 -58.61 30.771 -60.322 Q30.771 -62.035 31.957 -63.235 Q33.143 -64.436 34.864 -64.436 H81.921 Q83.642 -64.436 84.828 -63.256 Q86.014 -62.076 86.014 -60.364 Q86.014 -58.651 84.828 -57.451 Q83.642 -56.25 81.921 -56.25 H34.864 Z"/></g><g id="Regular-S" transform="matrix(1 0 0 1 1405.73 696)"><path d="M76.598 3.988  8.022 -64.586 Q6.904 -65.705 6.953 -67.086 Q7.002 -68.467 8.087 -69.551 Q9.172 -70.636 10.553 -70.636 Q11.934 -70.636 13.052 -69.518 L81.628 -0.942 Q82.746 0.176 82.746 1.575 Q82.746 2.974 81.662 4.023 Q80.609 5.108 79.163 5.108 Q77.716 5.108 76.598 3.988 Z M63.909 2.642 Q54.934 2.642 48.77 -3.522 Q42.606 -9.686 42.606 -18.661 V-28.129 Q42.606 -30.693 43.198 -33.11 Q43.79 -35.526 44.874 -37.696 L59.175 -23.395 H49.707 V-18.661 Q49.707 -12.707 53.869 -8.583 Q58.031 -4.459 63.919 -4.459 Q66.863 -4.459 69.451 -5.544 Q72.04 -6.629 73.969 -8.601 L78.999 -3.571 Q76.097 -0.704 72.228 0.969 Q68.358 2.642 63.909 2.642 Z M81.682 -11.56 Q80.182 -11.56 79.147 -12.581 Q78.111 -13.602 78.111 -15.11 V-23.395 H69.235 L60.358 -32.271 V-41.838 Q59.274 -41.542 58.287 -41.098 Q57.301 -40.654 56.315 -39.964 Q55.131 -39.175 53.701 -39.569 Q52.271 -39.964 51.482 -41.246 Q50.693 -42.528 51.038 -43.958 Q51.384 -45.388 52.666 -46.177 Q55.131 -47.854 58.041 -48.643 Q60.95 -49.432 63.909 -49.432 Q72.884 -49.432 79.048 -43.268 Q85.212 -37.104 85.212 -28.129 V-15.11 Q85.212 -13.602 84.197 -12.581 Q83.182 -11.56 81.682 -11.56 Z M67.46 -30.496 H77.914 Q77.223 -34.737 74.413 -37.794 Q71.602 -40.852 67.46 -41.936 V-30.496 Z M16.569 -6.826 Q13.64 -6.826 11.554 -8.946 Q9.468 -11.067 9.468 -13.927 V-56.533 Q9.468 -59.393 11.554 -61.514 Q13.64 -63.634 16.569 -63.634 H18.936 L26.037 -56.533 H16.569 Q16.569 -56.533 16.569 -56.533 Q16.569 -56.533 16.569 -56.533 V-13.927 Q16.569 -13.927 16.569 -13.927 Q16.569 -13.927 16.569 -13.927 H31.955 Q33.463 -13.927 34.484 -12.912 Q35.505 -11.897 35.505 -10.397 Q35.505 -8.897 34.484 -7.862 Q33.463 -6.826 31.955 -6.826 H16.569 Z M34.322 -56.533 Q32.813 -56.533 31.792 -57.548 Q30.771 -58.563 30.771 -60.063 Q30.771 -61.563 31.792 -62.598 Q32.813 -63.634 34.322 -63.634 H81.662 Q83.17 -63.634 84.191 -62.619 Q85.212 -61.604 85.212 -60.104 Q85.212 -58.604 84.191 -57.569 Q83.17 -56.533 81.662 -56.533 H34.322 Z"/></g><g id="Light-S" transform="matrix(1 0 0 1 1109.75 696)"><path d="M78.533 3.191  9.729 -65.648 Q8.914 -66.464 8.945 -67.427 Q8.975 -68.391 9.794 -69.21 Q10.614 -70.029 11.558 -70.029 Q12.503 -70.029 13.355 -69.177 L82.159 -0.373 Q82.974 0.442 82.993 1.442 Q83.012 2.443 82.193 3.226 Q81.406 4.045 80.396 4.045 Q79.386 4.045 78.533 3.191 Z M63.913 0.669 Q55.769 0.669 50.174 -4.921 Q44.579 -10.511 44.579 -18.661 V-28.129 Q44.579 -30.257 45.038 -32.284 Q45.497 -34.312 46.392 -36.14 L58.151 -24.381 H49.707 V-18.661 Q49.707 -12.707 53.869 -8.583 Q58.031 -4.459 63.919 -4.459 Q66.863 -4.459 69.451 -5.544 Q72.04 -6.629 73.969 -8.563 L77.595 -4.937 Q74.964 -2.35 71.456 -0.84 Q67.948 0.669 63.913 0.669 Z M80.695 -12.433 Q79.613 -12.433 78.862 -13.17 Q78.111 -13.907 78.111 -14.997 V-24.381 H68.135 L61.345 -31.171 V-42.028 Q59.805 -41.77 58.382 -41.174 Q56.96 -40.579 55.708 -39.509 Q54.904 -38.872 53.866 -39.177 Q52.828 -39.483 52.241 -40.412 Q51.642 -41.314 51.873 -42.365 Q52.104 -43.416 53.007 -44.015 Q55.359 -45.805 58.194 -46.632 Q61.029 -47.459 63.909 -47.459 Q72.059 -47.459 77.649 -41.869 Q83.239 -36.279 83.239 -28.129 V-14.997 Q83.239 -13.907 82.508 -13.17 Q81.776 -12.433 80.695 -12.433 Z M66.473 -29.51 H77.952 Q77.489 -34.358 74.413 -37.794 Q71.336 -41.231 66.473 -42.126 V-29.51 Z M17.783 -8.799 Q15.119 -8.799 13.28 -10.672 Q11.441 -12.546 11.441 -15.141 V-55.319 Q11.441 -57.914 13.28 -59.788 Q15.119 -61.661 17.783 -61.661 H20.871 L25.999 -56.533 H17.783 Q17.252 -56.533 16.91 -56.192 Q16.569 -55.85 16.569 -55.319 V-15.141 Q16.569 -14.61 16.91 -14.268 Q17.252 -13.927 17.783 -13.927 H34.193 Q35.283 -13.927 36.02 -13.195 Q36.757 -12.464 36.757 -11.382 Q36.757 -10.301 36.02 -9.55 Q35.283 -8.799 34.193 -8.799 H17.783 Z M35.194 -56.533 Q34.104 -56.533 33.367 -57.265 Q32.63 -57.996 32.63 -59.078 Q32.63 -60.159 33.367 -60.91 Q34.104 -61.661 35.194 -61.661 H80.675 Q81.765 -61.661 82.502 -60.93 Q83.239 -60.198 83.239 -59.117 Q83.239 -58.035 82.502 -57.284 Q81.765 -56.533 80.675 -56.533 H35.194 Z"/></g><g id="Thin-S" transform="matrix(1 0 0 1 814.015 696)"><path d="M80.468 2.395  11.436 -66.71 Q10.925 -67.222 10.936 -67.769 Q10.947 -68.315 11.501 -68.869 Q12.055 -69.422 12.563 -69.422 Q13.072 -69.422 13.659 -68.835 L82.69 0.196 Q83.202 0.707 83.24 1.31 Q83.277 1.912 82.724 2.43 Q82.203 2.983 81.629 2.983 Q81.055 2.983 80.468 2.395 Z M63.918 -1.303 Q56.603 -1.303 51.577 -6.319 Q46.551 -11.336 46.551 -18.661 V-28.129 Q46.551 -29.821 46.877 -31.459 Q47.203 -33.098 47.909 -34.585 L57.127 -25.367 H49.707 V-18.661 Q49.707 -12.707 53.869 -8.583 Q58.031 -4.459 63.919 -4.459 Q66.863 -4.459 69.451 -5.544 Q72.04 -6.629 73.969 -8.525 L76.192 -6.302 Q73.831 -3.995 70.684 -2.649 Q67.537 -1.303 63.918 -1.303 Z M79.707 -13.305 Q79.044 -13.305 78.578 -13.759 Q78.111 -14.212 78.111 -14.883 V-25.367 H67.035 L62.331 -30.071 V-42.217 Q60.336 -41.997 58.477 -41.25 Q56.618 -40.503 55.101 -39.054 Q54.676 -38.568 54.03 -38.786 Q53.384 -39.003 53 -39.577 Q52.59 -40.101 52.707 -40.772 Q52.825 -41.443 53.349 -41.853 Q55.587 -43.757 58.348 -44.622 Q61.109 -45.487 63.909 -45.487 Q71.234 -45.487 76.251 -40.471 Q81.267 -35.454 81.267 -28.129 V-14.883 Q81.267 -14.212 80.819 -13.759 Q80.37 -13.305 79.707 -13.305 Z M65.487 -28.523 H77.99 Q77.754 -33.978 74.413 -37.794 Q71.071 -41.61 65.487 -42.316 V-28.523 Z M18.997 -10.771 Q16.599 -10.771 15.006 -12.398 Q13.413 -14.026 13.413 -16.355 V-54.105 Q13.413 -56.434 15.006 -58.062 Q16.599 -59.689 18.997 -59.689 H22.805 L25.961 -56.533 H18.997 Q17.935 -56.533 17.252 -55.85 Q16.569 -55.167 16.569 -54.105 V-16.355 Q16.569 -15.293 17.252 -14.61 Q17.935 -13.927 18.997 -13.927 H36.43 Q37.101 -13.927 37.555 -13.479 Q38.008 -13.03 38.008 -12.367 Q38.008 -11.704 37.555 -11.238 Q37.101 -10.771 36.43 -10.771 H18.997 Z M36.066 -56.533 Q35.396 -56.533 34.942 -56.981 Q34.488 -57.43 34.488 -58.093 Q34.488 -58.756 34.942 -59.222 Q35.396 -59.689 36.066 -59.689 H79.689 Q80.36 -59.689 80.813 -59.241 Q81.267 -58.792 81.267 -58.129 Q81.267 -57.466 80.813 -57 Q80.36 -56.533 79.689 -56.533 H36.066 Z"/></g><g id="Ultralight-S" transform="matrix(1 0 0 1 517.792 696)"><path d="M81.628 1.917  12.46 -67.347 Q12.131 -67.678 12.131 -67.973 Q12.131 -68.269 12.525 -68.664 Q12.92 -69.058 13.166 -69.058 Q13.413 -69.058 13.841 -68.631 L83.009 0.538 Q83.338 0.867 83.387 1.23 Q83.437 1.593 83.042 1.952 Q82.681 2.346 82.368 2.346 Q82.056 2.346 81.628 1.917 Z M63.92 -2.486 Q57.104 -2.486 52.419 -7.159 Q47.735 -11.831 47.735 -18.661 V-28.129 Q47.735 -29.559 47.981 -30.964 Q48.228 -32.37 48.819 -33.652 L56.512 -25.959 H49.707 V-18.661 Q49.707 -12.707 53.869 -8.583 Q58.031 -4.459 63.919 -4.459 Q66.863 -4.459 69.451 -5.544 Q72.04 -6.629 73.969 -8.503 L75.35 -7.122 Q73.152 -4.983 70.221 -3.735 Q67.29 -2.486 63.92 -2.486 Z M79.115 -13.828 Q78.703 -13.828 78.407 -14.112 Q78.111 -14.395 78.111 -14.815 V-25.959 H66.375 L62.923 -29.411 V-42.331 Q60.654 -42.134 58.534 -41.295 Q56.413 -40.457 54.737 -38.78 Q54.54 -38.386 54.129 -38.55 Q53.718 -38.715 53.455 -39.076 Q53.159 -39.372 53.208 -39.816 Q53.258 -40.26 53.553 -40.556 Q55.723 -42.528 58.44 -43.416 Q61.156 -44.303 63.909 -44.303 Q70.739 -44.303 75.411 -39.631 Q80.084 -34.959 80.084 -28.129 V-14.815 Q80.084 -14.395 79.805 -14.112 Q79.526 -13.828 79.115 -13.828 Z M64.895 -27.932 H78.012 Q77.914 -33.751 74.413 -37.794 Q70.911 -41.838 64.895 -42.43 V-27.932 Z M19.725 -11.954 Q17.486 -11.954 16.041 -13.434 Q14.597 -14.913 14.597 -17.083 V-53.377 Q14.597 -55.547 16.041 -57.026 Q17.486 -58.505 19.725 -58.505 H23.966 L25.938 -56.533 H19.725 Q18.344 -56.533 17.457 -55.645 Q16.569 -54.758 16.569 -53.377 V-17.083 Q16.569 -15.702 17.457 -14.815 Q18.344 -13.927 19.725 -13.927 H37.773 Q38.193 -13.927 38.476 -13.648 Q38.76 -13.37 38.76 -12.958 Q38.76 -12.546 38.476 -12.25 Q38.193 -11.954 37.773 -11.954 H19.725 Z M36.59 -56.533 Q36.171 -56.533 35.887 -56.812 Q35.604 -57.09 35.604 -57.502 Q35.604 -57.914 35.887 -58.21 Q36.171 -58.505 36.59 -58.505 H79.097 Q79.516 -58.505 79.8 -58.227 Q80.084 -57.948 80.084 -57.537 Q80.084 -57.125 79.8 -56.829 Q79.516 -56.533 79.097 -56.533 H36.59 Z"/></g></g></svg>