<svg xmlns="http://www.w3.org/2000/svg" version="1.1" width="3300" height="2000"><g id="Notes"><style>
    text {
      font-family: monospace;
      text-anchor: middle;
    }
    text.emphasis {
      font-weight:bold;
    }
    text.lanchor {
      text-anchor: start;
    }
  </style><rect height="2200" id="artboard" fill="white" width="3300" x="0" y="0"/><line id="" style="fill:none;stroke:black;stroke-width:0.5;" x1="263" x2="3036" y1="292" y2="292"/><text class="lanchor emphasis" transform="matrix(1 0 0 1 263 322)">Weight/Scale Variations</text><text transform="matrix(1 0 0 1 559.711 322)">Ultralight</text><text transform="matrix(1 0 0 1 856.422 322)">Thin</text><text transform="matrix(1 0 0 1 1153.13 322)">Light</text><text transform="matrix(1 0 0 1 1449.84 322)">Regular</text><text transform="matrix(1 0 0 1 1746.56 322)">Medium</text><text transform="matrix(1 0 0 1 2043.27 322)">Semibold</text><text transform="matrix(1 0 0 1 2339.98 322)">Bold</text><text transform="matrix(1 0 0 1 2636.69 322)">Heavy</text><text transform="matrix(1 0 0 1 2933.4 322)">Black</text><text id="template-version" style="text-anchor: end;" transform="matrix(1 0 0 1 3036 1933)">Template v.1.0</text><text class="lanchor" transform="matrix(1 0 0 1 263 726)">Small</text><text class="lanchor" transform="matrix(1 0 0 1 263 1156)">Medium</text><text class="lanchor" transform="matrix(1 0 0 1 263 1586)">Large</text></g><g id="Guides"><g id="H-reference" style="fill:#27AAE1;stroke:none;" transform="matrix(1 0 0 1 339 696)"><path d="M 54.9316 0 L 57.666 0 L 30.5664 -70.459 L 28.0762 -70.459 L 0.976562 0 L 3.66211 0 L 12.9395 -24.4629 L 45.7031 -24.4629 Z M 29.1992 -67.0898 L 29.4434 -67.0898 L 44.8242 -26.709 L 13.8184 -26.709 Z"/></g><line id="Baseline-S" style="fill:none;stroke:#27AAE1;opacity:1;stroke-width:0.577;" x1="263" x2="3036" y1="696" y2="696"/><line id="Capline-S" style="fill:none;stroke:#27AAE1;opacity:1;stroke-width:0.577;" x1="263" x2="3036" y1="625.541" y2="625.541"/><g id="H-reference" style="fill:#27AAE1;stroke:none;" transform="matrix(1 0 0 1 339 1126)"><path d="M 54.9316 0 L 57.666 0 L 30.5664 -70.459 L 28.0762 -70.459 L 0.976562 0 L 3.66211 0 L 12.9395 -24.4629 L 45.7031 -24.4629 Z M 29.1992 -67.0898 L 29.4434 -67.0898 L 44.8242 -26.709 L 13.8184 -26.709 Z"/></g><line id="Baseline-M" style="fill:none;stroke:#27AAE1;opacity:1;stroke-width:0.577;" x1="263" x2="3036" y1="1126" y2="1126"/><line id="Capline-M" style="fill:none;stroke:#27AAE1;opacity:1;stroke-width:0.577;" x1="263" x2="3036" y1="1055.54" y2="1055.54"/><g id="H-reference" style="fill:#27AAE1;stroke:none;" transform="matrix(1 0 0 1 339 1556)"><path d="M 54.9316 0 L 57.666 0 L 30.5664 -70.459 L 28.0762 -70.459 L 0.976562 0 L 3.66211 0 L 12.9395 -24.4629 L 45.7031 -24.4629 Z M 29.1992 -67.0898 L 29.4434 -67.0898 L 44.8242 -26.709 L 13.8184 -26.709 Z"/></g><line id="Baseline-L" style="fill:none;stroke:#27AAE1;opacity:1;stroke-width:0.577;" x1="263" x2="3036" y1="1556" y2="1556"/><line id="Capline-L" style="fill:none;stroke:#27AAE1;opacity:1;stroke-width:0.577;" x1="263" x2="3036" y1="1485.54" y2="1485.54"/><rect height="119.336" id="left-margin" style="fill:darkred;stroke:none;opacity:0.4;" width="12.4512" x="1394.06" y="1030.79"/><rect height="119.336" id="right-margin" style="fill:darkgreen;stroke:none;opacity:0.4;" width="12.4512" x="1502.5112" y="1030.79"/><rect x="1406.5112" y="1045" width="96" height="96" fill="none" stroke="blue" stroke-dasharray="5"/><rect x="1394.06" y="1030.79" width="120.9024" height="119.336" fill="none" stroke="blue"/></g><g id="Symbols"><g id="Bold-L" transform="matrix(1 0 0 1 2266 1556)"><path d="M16.77 32.656 Q13.581 32.656 11.547 30.583 Q9.514 28.509 9.514 25.342 Q9.514 22.175 11.547 20.079 Q13.581 17.983 16.77 17.983 H44.344 V4.115 Q44.344 1.152 46.38 -1.075 Q48.415 -3.302 51.761 -3.302 H103.361 Q106.324 -3.302 108.471 -1.075 Q110.618 1.152 110.618 4.115 V17.983 H138.191 Q141.154 17.983 143.382 20.139 Q145.609 22.296 145.609 25.318 Q145.609 28.566 143.382 30.611 Q141.154 32.656 138.191 32.656 H16.77 Z M51.761 -67.48 Q48.415 -67.48 46.38 -69.514 Q44.344 -71.548 44.344 -74.776 V-88.604 H16.77 Q13.581 -88.604 11.547 -90.645 Q9.514 -92.686 9.514 -95.805 Q9.514 -98.924 11.547 -101.181 Q13.581 -103.439 16.77 -103.439 H138.191 Q141.154 -103.439 143.382 -101.157 Q145.609 -98.875 145.609 -95.832 Q145.609 -92.631 143.382 -90.617 Q141.154 -88.604 138.191 -88.604 H110.618 V-74.776 Q110.618 -71.548 108.471 -69.514 Q106.324 -67.48 103.361 -67.48 H51.761 Z"/></g><g id="Semibold-L" transform="matrix(1 0 0 1 1970.27 1556)"><path d="M16.7 32.306 Q13.862 32.306 11.968 30.372 Q10.075 28.439 10.075 25.587 Q10.075 22.736 11.968 20.815 Q13.862 18.894 16.7 18.894 H44.905 V5.657 Q44.905 2.947 46.8 0.944 Q48.696 -1.059 51.691 -1.059 H103.291 Q106.002 -1.059 107.959 0.944 Q109.916 2.947 109.916 5.657 V18.894 H138.191 Q140.902 18.894 142.905 20.861 Q144.908 22.829 144.908 25.598 Q144.908 28.496 142.905 30.401 Q140.902 32.306 138.191 32.306 H16.7 Z M51.691 -69.653 Q48.696 -69.653 46.8 -71.547 Q44.905 -73.44 44.905 -76.301 V-89.515 H16.7 Q13.862 -89.515 11.968 -91.416 Q10.075 -93.317 10.075 -96.12 Q10.075 -98.924 11.968 -100.971 Q13.862 -103.018 16.7 -103.018 H138.191 Q140.902 -103.018 142.905 -100.961 Q144.908 -98.903 144.908 -96.112 Q144.908 -93.262 142.905 -91.389 Q140.902 -89.515 138.191 -89.515 H109.916 V-76.301 Q109.916 -73.44 107.959 -71.547 Q106.002 -69.653 103.291 -69.653 H51.691 Z"/></g><g id="Medium-L" transform="matrix(1 0 0 1 1674.31 1556)"><path d="M16.647 32.043 Q14.072 32.043 12.284 30.215 Q10.495 28.386 10.495 25.771 Q10.495 23.157 12.284 21.367 Q14.072 19.577 16.647 19.577 H45.325 V6.814 Q45.325 4.293 47.116 2.458 Q48.906 0.624 51.639 0.624 H103.239 Q105.76 0.624 107.575 2.458 Q109.391 4.293 109.391 6.814 V19.577 H138.191 Q140.713 19.577 142.547 21.403 Q144.382 23.228 144.382 25.809 Q144.382 28.443 142.547 30.243 Q140.713 32.043 138.191 32.043 H16.647 Z M51.639 -71.283 Q48.906 -71.283 47.116 -73.072 Q45.325 -74.86 45.325 -77.445 V-90.199 H16.647 Q14.072 -90.199 12.284 -91.994 Q10.495 -93.79 10.495 -96.357 Q10.495 -98.924 12.284 -100.813 Q14.072 -102.703 16.647 -102.703 H138.191 Q140.713 -102.703 142.547 -100.813 Q144.382 -98.924 144.382 -96.322 Q144.382 -93.735 142.547 -91.967 Q140.713 -90.199 138.191 -90.199 H109.391 V-77.445 Q109.391 -74.86 107.575 -73.072 Q105.76 -71.283 103.239 -71.283 H51.639 Z"/></g><g id="Regular-L" transform="matrix(1 0 0 1 1378.56 1556)"><path d="M16.609 31.85 Q14.226 31.85 12.515 30.099 Q10.804 28.348 10.804 25.906 Q10.804 23.465 12.515 21.772 Q14.226 20.079 16.609 20.079 H45.634 V7.663 Q45.634 5.28 47.347 3.569 Q49.06 1.858 51.6 1.858 H103.2 Q105.582 1.858 107.294 3.569 Q109.005 5.28 109.005 7.663 V20.079 H138.191 Q140.574 20.079 142.285 21.8 Q143.996 23.522 143.996 25.963 Q143.996 28.404 142.285 30.127 Q140.574 31.85 138.191 31.85 H16.609 Z M51.6 -72.479 Q49.06 -72.479 47.347 -74.19 Q45.634 -75.901 45.634 -78.284 V-90.7 H16.609 Q14.226 -90.7 12.515 -92.419 Q10.804 -94.137 10.804 -96.53 Q10.804 -98.924 12.515 -100.697 Q14.226 -102.471 16.609 -102.471 H138.191 Q140.574 -102.471 142.285 -100.706 Q143.996 -98.94 143.996 -96.477 Q143.996 -94.082 142.285 -92.391 Q140.574 -90.7 138.191 -90.7 H109.005 V-78.284 Q109.005 -75.901 107.294 -74.19 Q105.582 -72.479 103.2 -72.479 H51.6 Z"/></g><g id="Light-L" transform="matrix(1 0 0 1 1082.77 1556)"><path d="M18.655 28.625 Q16.774 28.625 15.401 27.211 Q14.029 25.798 14.029 23.856 Q14.029 21.914 15.401 20.562 Q16.774 19.21 18.655 19.21 H46.812 V8.965 Q46.812 6.662 48.472 5.004 Q50.132 3.346 52.592 3.346 H102.208 Q104.511 3.346 106.169 5.004 Q107.827 6.662 107.827 8.965 V19.21 H136.145 Q138.026 19.21 139.399 20.594 Q140.771 21.977 140.771 23.919 Q140.771 25.861 139.399 27.243 Q138.026 28.625 136.145 28.625 H18.655 Z M52.592 -73.967 Q50.132 -73.967 48.472 -75.625 Q46.812 -77.283 46.812 -79.586 V-89.832 H18.655 Q16.774 -89.832 15.401 -91.212 Q14.029 -92.593 14.029 -94.487 Q14.029 -96.381 15.401 -97.813 Q16.774 -99.246 18.655 -99.246 H136.145 Q138.026 -99.246 139.399 -97.818 Q140.771 -96.39 140.771 -94.427 Q140.771 -92.532 139.399 -91.182 Q138.026 -89.832 136.145 -89.832 H107.827 V-79.586 Q107.827 -77.283 106.169 -75.625 Q104.511 -73.967 102.208 -73.967 H52.592 Z"/></g><g id="Thin-L" transform="matrix(1 0 0 1 787.282 1556)"><path d="M20.702 25.4 Q19.321 25.4 18.287 24.325 Q17.254 23.249 17.254 21.807 Q17.254 20.364 18.287 19.353 Q19.321 18.342 20.702 18.342 H47.99 V10.267 Q47.99 8.043 49.597 6.439 Q51.203 4.834 53.585 4.834 H101.215 Q103.44 4.834 105.044 6.439 Q106.648 8.043 106.648 10.267 V18.342 H134.098 Q135.479 18.342 136.513 19.388 Q137.546 20.434 137.546 21.876 Q137.546 23.319 136.513 24.359 Q135.479 25.4 134.098 25.4 H20.702 Z M53.585 -75.456 Q51.203 -75.456 49.597 -77.06 Q47.99 -78.664 47.99 -80.889 V-88.963 H20.702 Q19.321 -88.963 18.287 -90.006 Q17.254 -91.049 17.254 -92.444 Q17.254 -93.838 18.287 -94.93 Q19.321 -96.021 20.702 -96.021 H134.098 Q135.479 -96.021 136.513 -94.931 Q137.546 -93.841 137.546 -92.377 Q137.546 -90.981 136.513 -89.972 Q135.479 -88.963 134.098 -88.963 H106.648 V-80.889 Q106.648 -78.664 105.044 -77.06 Q103.44 -75.456 101.215 -75.456 H53.585 Z"/></g><g id="Ultralight-L" transform="matrix(1 0 0 1 491.205 1556)"><path d="M21.93 23.465 Q20.85 23.465 20.019 22.592 Q19.189 21.719 19.189 20.577 Q19.189 19.434 20.019 18.628 Q20.85 17.821 21.93 17.821 H48.697 V11.049 Q48.697 8.872 50.272 7.3 Q51.846 5.728 54.18 5.728 H100.62 Q102.797 5.728 104.369 7.3 Q105.941 8.872 105.941 11.049 V17.821 H132.87 Q133.95 17.821 134.781 18.664 Q135.611 19.507 135.611 20.65 Q135.611 21.793 134.781 22.629 Q133.95 23.465 132.87 23.465 H21.93 Z M54.18 -76.349 Q51.846 -76.349 50.272 -77.921 Q48.697 -79.493 48.697 -81.67 V-88.442 H21.93 Q20.85 -88.442 20.019 -89.283 Q19.189 -90.123 19.189 -91.218 Q19.189 -92.312 20.019 -93.199 Q20.85 -94.086 21.93 -94.086 H132.87 Q133.95 -94.086 134.781 -93.199 Q135.611 -92.312 135.611 -91.147 Q135.611 -90.051 134.781 -89.247 Q133.95 -88.442 132.87 -88.442 H105.941 V-81.67 Q105.941 -79.493 104.369 -77.921 Q102.797 -76.349 100.62 -76.349 H54.18 Z"/></g><g id="Bold-M" transform="matrix(1 0 0 1 2281.8 1126)"><path d="M13 20.52 Q9.375 20.52 6.938 18.083 Q4.5 15.645 4.5 12.083 Q4.5 8.52 6.938 6.02 Q9.375 3.52 13 3.52 H31.5 V-9.98 Q31.5 -13.43 33.938 -15.955 Q36.375 -18.48 40 -18.48 H80 Q83.45 -18.48 85.975 -15.955 Q88.5 -13.43 88.5 -9.98 V3.52 H107 Q110.45 3.52 112.975 6.045 Q115.5 8.57 115.5 12.02 Q115.5 15.645 112.975 18.083 Q110.45 20.52 107 20.52 H13 Z M40 -52.105 Q36.375 -52.105 33.938 -54.542 Q31.5 -56.98 31.5 -60.636 V-74.105 H13 Q9.375 -74.105 6.938 -76.542 Q4.5 -78.98 4.5 -82.542 Q4.5 -86.105 6.938 -88.605 Q9.375 -91.105 13 -91.105 H107 Q110.45 -91.105 112.975 -88.58 Q115.5 -86.055 115.5 -82.605 Q115.5 -78.98 112.975 -76.542 Q110.45 -74.105 107 -74.105 H88.5 V-60.636 Q88.5 -56.98 85.975 -54.542 Q83.45 -52.105 80 -52.105 H40 Z"/></g><g id="Semibold-M" transform="matrix(1 0 0 1 1985.97 1126)"><path d="M13.109 19.759 Q9.864 19.759 7.644 17.539 Q5.424 15.319 5.424 12.11 Q5.424 8.9 7.644 6.645 Q9.864 4.39 13.109 4.39 H32.261 V-8.295 Q32.261 -11.441 34.481 -13.711 Q36.701 -15.98 39.946 -15.98 H79.946 Q83.091 -15.98 85.361 -13.711 Q87.63 -11.441 87.63 -8.295 V4.39 H106.837 Q109.983 4.39 112.252 6.659 Q114.522 8.929 114.522 12.074 Q114.522 15.319 112.252 17.539 Q109.983 19.759 106.837 19.759 H13.109 Z M39.946 -54.605 Q36.701 -54.605 34.481 -56.825 Q32.261 -59.045 32.261 -62.307 V-74.974 H13.109 Q9.864 -74.974 7.644 -77.195 Q5.424 -79.415 5.424 -82.624 Q5.424 -85.833 7.644 -88.089 Q9.864 -90.344 13.109 -90.344 H106.837 Q109.983 -90.344 112.252 -88.075 Q114.522 -85.805 114.522 -82.659 Q114.522 -79.415 112.252 -77.195 Q109.983 -74.974 106.837 -74.974 H87.63 V-62.307 Q87.63 -59.045 85.361 -56.825 Q83.091 -54.605 79.946 -54.605 H39.946 Z"/></g><g id="Medium-M" transform="matrix(1 0 0 1 1689.91 1126)"><path d="M13.19 19.189 Q10.231 19.189 8.174 17.131 Q6.117 15.074 6.117 12.13 Q6.117 9.186 8.174 7.114 Q10.231 5.042 13.19 5.042 H32.831 V-7.032 Q32.831 -9.949 34.889 -12.027 Q36.946 -14.105 39.905 -14.105 H79.905 Q82.822 -14.105 84.9 -12.027 Q86.978 -9.949 86.978 -7.032 V5.042 H106.715 Q109.632 5.042 111.71 7.12 Q113.788 9.198 113.788 12.115 Q113.788 15.074 111.71 17.131 Q109.632 19.189 106.715 19.189 H13.19 Z M39.905 -56.48 Q36.946 -56.48 34.889 -58.537 Q32.831 -60.594 32.831 -63.561 V-75.627 H13.19 Q10.231 -75.627 8.174 -77.684 Q6.117 -79.741 6.117 -82.685 Q6.117 -85.629 8.174 -87.701 Q10.231 -89.773 13.19 -89.773 H106.715 Q109.632 -89.773 111.71 -87.695 Q113.788 -85.617 113.788 -82.7 Q113.788 -79.741 111.71 -77.684 Q109.632 -75.627 106.715 -75.627 H86.978 V-63.561 Q86.978 -60.594 84.9 -58.537 Q82.822 -56.48 79.905 -56.48 H39.905 Z"/></g><g id="Regular-M" transform="matrix(1 0 0 1 1394.06 1126)"><path d="M13.25 18.77 Q10.5 18.77 8.562 16.833 Q6.625 14.895 6.625 12.145 Q6.625 9.395 8.562 7.458 Q10.5 5.52 13.25 5.52 H33.25 V-6.105 Q33.25 -8.855 35.188 -10.792 Q37.125 -12.73 39.875 -12.73 H79.875 Q82.625 -12.73 84.562 -10.792 Q86.5 -8.855 86.5 -6.105 V5.52 H106.625 Q109.375 5.52 111.312 7.458 Q113.25 9.395 113.25 12.145 Q113.25 14.895 111.312 16.833 Q109.375 18.77 106.625 18.77 H13.25 Z M39.875 -57.855 Q37.125 -57.855 35.188 -59.792 Q33.25 -61.73 33.25 -64.48 V-76.105 H13.25 Q10.5 -76.105 8.562 -78.042 Q6.625 -79.98 6.625 -82.73 Q6.625 -85.48 8.562 -87.417 Q10.5 -89.355 13.25 -89.355 H106.625 Q109.375 -89.355 111.312 -87.417 Q113.25 -85.48 113.25 -82.73 Q113.25 -79.98 111.312 -78.042 Q109.375 -76.105 106.625 -76.105 H86.5 V-64.48 Q86.5 -61.73 84.562 -59.792 Q82.625 -57.855 79.875 -57.855 H39.875 Z"/></g><g id="Light-M" transform="matrix(1 0 0 1 1098.18 1126)"><path d="M14.5 16.27 Q12.281 16.27 10.703 14.691 Q9.125 13.113 9.125 10.893 Q9.125 8.674 10.703 7.097 Q12.281 5.52 14.5 5.52 H34.5 V-4.086 Q34.5 -6.631 36.299 -8.43 Q38.099 -10.23 40.644 -10.23 H79.106 Q81.651 -10.23 83.451 -8.43 Q85.25 -6.631 85.25 -4.086 V5.52 H105.375 Q107.594 5.52 109.172 7.099 Q110.75 8.677 110.75 10.897 Q110.75 13.116 109.172 14.693 Q107.594 16.27 105.375 16.27 H14.5 Z M40.644 -60.355 Q38.099 -60.355 36.299 -62.154 Q34.5 -63.954 34.5 -66.499 V-76.105 H14.5 Q12.281 -76.105 10.703 -77.684 Q9.125 -79.262 9.125 -81.482 Q9.125 -83.701 10.703 -85.278 Q12.281 -86.855 14.5 -86.855 H105.375 Q107.594 -86.855 109.172 -85.276 Q110.75 -83.698 110.75 -81.478 Q110.75 -79.259 109.172 -77.682 Q107.594 -76.105 105.375 -76.105 H85.25 V-66.499 Q85.25 -63.954 83.451 -62.154 Q81.651 -60.355 79.106 -60.355 H40.644 Z"/></g><g id="Thin-M" transform="matrix(1 0 0 1 802.565 1126)"><path d="M15.75 13.77 Q14.062 13.77 12.844 12.55 Q11.625 11.331 11.625 9.642 Q11.625 7.953 12.844 6.736 Q14.062 5.52 15.75 5.52 H35.75 V-2.067 Q35.75 -4.408 37.411 -6.069 Q39.072 -7.73 41.413 -7.73 H78.337 Q80.678 -7.73 82.339 -6.069 Q84 -4.408 84 -2.067 V5.52 H104.125 Q105.812 5.52 107.031 6.74 Q108.25 7.96 108.25 9.648 Q108.25 11.337 107.031 12.554 Q105.812 13.77 104.125 13.77 H15.75 Z M41.413 -62.855 Q39.072 -62.855 37.411 -64.516 Q35.75 -66.177 35.75 -68.518 V-76.105 H15.75 Q14.062 -76.105 12.844 -77.325 Q11.625 -78.544 11.625 -80.233 Q11.625 -81.922 12.844 -83.139 Q14.062 -84.355 15.75 -84.355 H104.125 Q105.812 -84.355 107.031 -83.135 Q108.25 -81.916 108.25 -80.227 Q108.25 -78.538 107.031 -77.321 Q105.812 -76.105 104.125 -76.105 H84 V-68.518 Q84 -66.177 82.339 -64.516 Q80.678 -62.855 78.337 -62.855 H41.413 Z"/></g><g id="Ultralight-M" transform="matrix(1 0 0 1 506.415 1126)"><path d="M16.5 12.27 Q15.131 12.27 14.128 11.266 Q13.125 10.261 13.125 8.891 Q13.125 7.52 14.128 6.52 Q15.131 5.52 16.5 5.52 H36.5 V-0.855 Q36.5 -3.074 38.078 -4.652 Q39.656 -6.23 41.875 -6.23 H77.875 Q80.094 -6.23 81.672 -4.652 Q83.25 -3.074 83.25 -0.855 V5.52 H103.375 Q104.744 5.52 105.747 6.524 Q106.75 7.529 106.75 8.899 Q106.75 10.27 105.747 11.27 Q104.744 12.27 103.375 12.27 H16.5 Z M41.875 -64.355 Q39.656 -64.355 38.078 -65.933 Q36.5 -67.511 36.5 -69.73 V-76.105 H16.5 Q15.131 -76.105 14.128 -77.109 Q13.125 -78.114 13.125 -79.484 Q13.125 -80.855 14.128 -81.855 Q15.131 -82.855 16.5 -82.855 H103.375 Q104.744 -82.855 105.747 -81.851 Q106.75 -80.846 106.75 -79.476 Q106.75 -78.105 105.747 -77.105 Q104.744 -76.105 103.375 -76.105 H83.25 V-69.73 Q83.25 -67.511 81.672 -65.933 Q80.094 -64.355 77.875 -64.355 H41.875 Z"/></g><g id="Bold-S" transform="matrix(1 0 0 1 2294.23 696)"><path d="M11.441 7.179 Q8.748 7.179 6.938 5.375 Q5.128 3.571 5.128 0.937 Q5.128 -1.697 6.938 -3.571 Q8.748 -5.445 11.441 -5.445 H25.643 V-14.124 Q25.643 -16.679 27.452 -18.557 Q29.262 -20.436 31.955 -20.436 H62.726 Q65.28 -20.436 67.159 -18.557 Q69.038 -16.679 69.038 -14.124 V-5.445 H83.24 Q85.794 -5.445 87.673 -3.572 Q89.552 -1.7 89.552 0.846 Q89.552 3.53 87.673 5.354 Q85.794 7.179 83.24 7.179 H11.441 Z M31.955 -50.122 Q29.262 -50.122 27.452 -51.932 Q25.643 -53.742 25.643 -56.459 V-65.113 H11.441 Q8.748 -65.113 6.938 -66.917 Q5.128 -68.721 5.128 -71.355 Q5.128 -73.99 6.938 -75.863 Q8.748 -77.737 11.441 -77.737 H83.24 Q85.794 -77.737 87.673 -75.864 Q89.552 -73.992 89.552 -71.446 Q89.552 -68.762 87.673 -66.938 Q85.794 -65.113 83.24 -65.113 H69.038 V-56.459 Q69.038 -53.742 67.159 -51.932 Q65.28 -50.122 62.726 -50.122 H31.955 Z"/></g><g id="Semibold-S" transform="matrix(1 0 0 1 1998.1 696)"><path d="M11.526 6.578 Q9.134 6.578 7.496 4.946 Q5.857 3.314 5.857 0.958 Q5.857 -1.397 7.496 -3.078 Q9.134 -4.759 11.526 -4.759 H26.243 V-12.795 Q26.243 -15.109 27.881 -16.787 Q29.519 -18.464 31.912 -18.464 H62.683 Q64.997 -18.464 66.674 -16.787 Q68.351 -15.109 68.351 -12.795 V-4.759 H83.111 Q85.425 -4.759 87.102 -3.088 Q88.78 -1.417 88.78 0.889 Q88.78 3.272 87.102 4.925 Q85.425 6.578 83.111 6.578 H11.526 Z M31.912 -52.095 Q29.519 -52.095 27.881 -53.733 Q26.243 -55.371 26.243 -57.777 V-65.799 H11.526 Q9.134 -65.799 7.496 -67.432 Q5.857 -69.064 5.857 -71.42 Q5.857 -73.775 7.496 -75.456 Q9.134 -77.137 11.526 -77.137 H83.111 Q85.425 -77.137 87.102 -75.466 Q88.78 -73.794 88.78 -71.489 Q88.78 -69.106 87.102 -67.452 Q85.425 -65.799 83.111 -65.799 H68.351 V-57.777 Q68.351 -55.371 66.674 -53.733 Q64.997 -52.095 62.683 -52.095 H31.912 Z"/></g><g id="Medium-S" transform="matrix(1 0 0 1 1701.85 696)"><path d="M11.591 6.128 Q9.423 6.128 7.914 4.625 Q6.404 3.121 6.404 0.974 Q6.404 -1.172 7.914 -2.708 Q9.423 -4.245 11.591 -4.245 H26.693 V-11.798 Q26.693 -13.932 28.203 -15.458 Q29.712 -16.984 31.879 -16.984 H62.65 Q64.785 -16.984 66.311 -15.458 Q67.837 -13.932 67.837 -11.798 V-4.245 H83.014 Q85.149 -4.245 86.675 -2.724 Q88.201 -1.204 88.201 0.921 Q88.201 3.079 86.675 4.604 Q85.149 6.128 83.014 6.128 H11.591 Z M31.879 -53.574 Q29.712 -53.574 28.203 -55.084 Q26.693 -56.593 26.693 -58.766 V-66.314 H11.591 Q9.423 -66.314 7.914 -67.818 Q6.404 -69.321 6.404 -71.468 Q6.404 -73.614 7.914 -75.151 Q9.423 -76.687 11.591 -76.687 H83.014 Q85.149 -76.687 86.675 -75.167 Q88.201 -73.647 88.201 -71.521 Q88.201 -69.363 86.675 -67.838 Q85.149 -66.314 83.014 -66.314 H67.837 V-58.766 Q67.837 -56.593 66.311 -55.084 Q64.785 -53.574 62.65 -53.574 H31.879 Z"/></g><g id="Regular-S" transform="matrix(1 0 0 1 1405.73 696)"><path d="M11.638 5.798 Q9.636 5.798 8.22 4.389 Q6.805 2.979 6.805 0.986 Q6.805 -1.007 8.22 -2.437 Q9.636 -3.867 11.638 -3.867 H27.023 V-11.067 Q27.023 -13.069 28.439 -14.484 Q29.854 -15.899 31.856 -15.899 H62.627 Q64.629 -15.899 66.044 -14.484 Q67.46 -13.069 67.46 -11.067 V-3.867 H82.944 Q84.946 -3.867 86.361 -2.458 Q87.776 -1.049 87.776 0.945 Q87.776 2.938 86.361 4.368 Q84.946 5.798 82.944 5.798 H11.638 Z M31.856 -54.659 Q29.854 -54.659 28.439 -56.074 Q27.023 -57.49 27.023 -59.492 V-66.691 H11.638 Q9.636 -66.691 8.22 -68.101 Q6.805 -69.51 6.805 -71.503 Q6.805 -73.496 8.22 -74.927 Q9.636 -76.357 11.638 -76.357 H82.944 Q84.946 -76.357 86.361 -74.947 Q87.776 -73.538 87.776 -71.545 Q87.776 -69.551 86.361 -68.121 Q84.946 -66.691 82.944 -66.691 H67.46 V-59.492 Q67.46 -57.49 66.044 -56.074 Q64.629 -54.659 62.627 -54.659 H31.856 Z"/></g><g id="Light-S" transform="matrix(1 0 0 1 1109.75 696)"><path d="M12.624 3.825 Q11.041 3.825 9.909 2.699 Q8.778 1.573 8.778 -0.002 Q8.778 -1.576 9.909 -2.722 Q11.041 -3.867 12.624 -3.867 H28.01 V-9.474 Q28.01 -11.314 29.316 -12.621 Q30.622 -13.927 32.463 -13.927 H62.02 Q63.861 -13.927 65.167 -12.621 Q66.473 -11.314 66.473 -9.474 V-3.867 H81.957 Q83.54 -3.867 84.672 -2.741 Q85.804 -1.615 85.804 -0.04 Q85.804 1.534 84.672 2.68 Q83.54 3.825 81.957 3.825 H12.624 Z M32.463 -56.632 Q30.622 -56.632 29.316 -57.938 Q28.01 -59.244 28.01 -61.085 V-66.691 H12.624 Q11.041 -66.691 9.909 -67.817 Q8.778 -68.944 8.778 -70.518 Q8.778 -72.093 9.909 -73.238 Q11.041 -74.384 12.624 -74.384 H81.957 Q83.54 -74.384 84.672 -73.258 Q85.804 -72.132 85.804 -70.557 Q85.804 -68.982 84.672 -67.837 Q83.54 -66.691 81.957 -66.691 H66.473 V-61.085 Q66.473 -59.244 65.167 -57.938 Q63.861 -56.632 62.02 -56.632 H32.463 Z"/></g><g id="Thin-S" transform="matrix(1 0 0 1 814.015 696)"><path d="M13.61 1.853 Q12.446 1.853 11.598 1.01 Q10.75 0.167 10.75 -0.989 Q10.75 -2.145 11.598 -3.006 Q12.446 -3.867 13.61 -3.867 H28.996 V-7.881 Q28.996 -9.56 30.193 -10.757 Q31.39 -11.954 33.07 -11.954 H61.413 Q63.093 -11.954 64.29 -10.757 Q65.487 -9.56 65.487 -7.881 V-3.867 H80.971 Q82.135 -3.867 82.983 -3.024 Q83.831 -2.181 83.831 -1.025 Q83.831 0.131 82.983 0.992 Q82.135 1.853 80.971 1.853 H13.61 Z M33.07 -58.604 Q31.39 -58.604 30.193 -59.801 Q28.996 -60.998 28.996 -62.678 V-66.691 H13.61 Q12.446 -66.691 11.598 -67.534 Q10.75 -68.377 10.75 -69.533 Q10.75 -70.69 11.598 -71.551 Q12.446 -72.412 13.61 -72.412 H80.971 Q82.135 -72.412 82.983 -71.569 Q83.831 -70.726 83.831 -69.57 Q83.831 -68.414 82.983 -67.552 Q82.135 -66.691 80.971 -66.691 H65.487 V-62.678 Q65.487 -60.998 64.29 -59.801 Q63.093 -58.604 61.413 -58.604 H33.07 Z"/></g><g id="Ultralight-S" transform="matrix(1 0 0 1 517.792 696)"><path d="M14.202 0.67 Q13.29 0.67 12.612 -0.004 Q11.934 -0.677 11.934 -1.582 Q11.934 -2.486 12.612 -3.177 Q13.29 -3.867 14.202 -3.867 H29.588 V-6.925 Q29.588 -8.508 30.719 -9.639 Q31.851 -10.771 33.434 -10.771 H61.049 Q62.632 -10.771 63.764 -9.639 Q64.895 -8.508 64.895 -6.925 V-3.867 H80.379 Q81.292 -3.867 81.97 -3.194 Q82.648 -2.521 82.648 -1.616 Q82.648 -0.711 81.97 -0.021 Q81.292 0.67 80.379 0.67 H14.202 Z M33.434 -59.788 Q31.851 -59.788 30.719 -60.919 Q29.588 -62.051 29.588 -63.634 V-66.691 H14.202 Q13.29 -66.691 12.612 -67.364 Q11.934 -68.038 11.934 -68.942 Q11.934 -69.847 12.612 -70.538 Q13.29 -71.228 14.202 -71.228 H80.379 Q81.292 -71.228 81.97 -70.555 Q82.648 -69.882 82.648 -68.977 Q82.648 -68.072 81.97 -67.382 Q81.292 -66.691 80.379 -66.691 H64.895 V-63.634 Q64.895 -62.051 63.764 -60.919 Q62.632 -59.788 61.049 -59.788 H33.434 Z"/></g></g></svg>