<svg xmlns="http://www.w3.org/2000/svg" height="40" viewBox="0 -960 960 960" width="40"><path d="M561.231-73.304q-23.207 0-44.48-8.561-21.274-8.561-37.926-25.316L303.862-283.065q-11.049-11.062-11.202-26.415-.153-15.353 10.441-26.628l4.524-4.525q14.086-14.065 32.806-18.69 18.72-4.626 37.597.693l73.761 20.725V-642.92q0-15.42 10.727-25.852 10.727-10.431 26.048-10.431 15.254 0 25.602 10.431 10.347 10.432 10.347 25.852v250.652h58.001v-129.855q0-15.42 10.625-25.852 10.626-10.431 25.912-10.431 15.287 0 25.657 10.431 10.371 10.432 10.371 25.852v129.855h57.334v-75.217q0-15.42 10.727-25.852 10.727-10.431 26.048-10.431 15.253 0 25.601 10.431 10.348 10.432 10.348 25.852v75.217h58.001q0-15.42 10.655-25.851 10.656-10.431 25.987-10.431 15.331 0 25.627 10.431t10.296 25.851v162.681q0 65.411-45.436 110.847-45.436 45.436-110.847 45.436H561.231Zm-412.173-120q-30.994 0-53.374-22.38-22.38-22.38-22.38-53.374v-501.884q0-31.06 22.38-53.486 22.38-22.427 53.374-22.427h621.884q31.06 0 53.486 22.427 22.427 22.426 22.427 53.486v134.66q0 15.999-11.066 26.938-11.065 10.938-27.101 10.938t-26.891-10.938q-10.855-10.939-10.855-26.938v-134.66H149.058v501.884h78.319q16 0 26.938 10.972 10.939 10.972 10.939 27.022 0 16.05-10.939 26.905-10.938 10.855-26.938 10.855h-78.319Z"/></svg>