<svg xmlns="http://www.w3.org/2000/svg" version="1.1" width="3300" height="2000"><g id="Notes"><style>
    text {
      font-family: monospace;
      text-anchor: middle;
    }
    text.emphasis {
      font-weight:bold;
    }
    text.lanchor {
      text-anchor: start;
    }
  </style><rect height="2200" id="artboard" fill="white" width="3300" x="0" y="0"/><line id="" style="fill:none;stroke:black;stroke-width:0.5;" x1="263" x2="3036" y1="292" y2="292"/><text class="lanchor emphasis" transform="matrix(1 0 0 1 263 322)">Weight/Scale Variations</text><text transform="matrix(1 0 0 1 559.711 322)">Ultralight</text><text transform="matrix(1 0 0 1 856.422 322)">Thin</text><text transform="matrix(1 0 0 1 1153.13 322)">Light</text><text transform="matrix(1 0 0 1 1449.84 322)">Regular</text><text transform="matrix(1 0 0 1 1746.56 322)">Medium</text><text transform="matrix(1 0 0 1 2043.27 322)">Semibold</text><text transform="matrix(1 0 0 1 2339.98 322)">Bold</text><text transform="matrix(1 0 0 1 2636.69 322)">Heavy</text><text transform="matrix(1 0 0 1 2933.4 322)">Black</text><text id="template-version" style="text-anchor: end;" transform="matrix(1 0 0 1 3036 1933)">Template v.1.0</text><text class="lanchor" transform="matrix(1 0 0 1 263 726)">Small</text><text class="lanchor" transform="matrix(1 0 0 1 263 1156)">Medium</text><text class="lanchor" transform="matrix(1 0 0 1 263 1586)">Large</text></g><g id="Guides"><g id="H-reference" style="fill:#27AAE1;stroke:none;" transform="matrix(1 0 0 1 339 696)"><path d="M 54.9316 0 L 57.666 0 L 30.5664 -70.459 L 28.0762 -70.459 L 0.976562 0 L 3.66211 0 L 12.9395 -24.4629 L 45.7031 -24.4629 Z M 29.1992 -67.0898 L 29.4434 -67.0898 L 44.8242 -26.709 L 13.8184 -26.709 Z"/></g><line id="Baseline-S" style="fill:none;stroke:#27AAE1;opacity:1;stroke-width:0.577;" x1="263" x2="3036" y1="696" y2="696"/><line id="Capline-S" style="fill:none;stroke:#27AAE1;opacity:1;stroke-width:0.577;" x1="263" x2="3036" y1="625.541" y2="625.541"/><g id="H-reference" style="fill:#27AAE1;stroke:none;" transform="matrix(1 0 0 1 339 1126)"><path d="M 54.9316 0 L 57.666 0 L 30.5664 -70.459 L 28.0762 -70.459 L 0.976562 0 L 3.66211 0 L 12.9395 -24.4629 L 45.7031 -24.4629 Z M 29.1992 -67.0898 L 29.4434 -67.0898 L 44.8242 -26.709 L 13.8184 -26.709 Z"/></g><line id="Baseline-M" style="fill:none;stroke:#27AAE1;opacity:1;stroke-width:0.577;" x1="263" x2="3036" y1="1126" y2="1126"/><line id="Capline-M" style="fill:none;stroke:#27AAE1;opacity:1;stroke-width:0.577;" x1="263" x2="3036" y1="1055.54" y2="1055.54"/><g id="H-reference" style="fill:#27AAE1;stroke:none;" transform="matrix(1 0 0 1 339 1556)"><path d="M 54.9316 0 L 57.666 0 L 30.5664 -70.459 L 28.0762 -70.459 L 0.976562 0 L 3.66211 0 L 12.9395 -24.4629 L 45.7031 -24.4629 Z M 29.1992 -67.0898 L 29.4434 -67.0898 L 44.8242 -26.709 L 13.8184 -26.709 Z"/></g><line id="Baseline-L" style="fill:none;stroke:#27AAE1;opacity:1;stroke-width:0.577;" x1="263" x2="3036" y1="1556" y2="1556"/><line id="Capline-L" style="fill:none;stroke:#27AAE1;opacity:1;stroke-width:0.577;" x1="263" x2="3036" y1="1485.54" y2="1485.54"/><rect height="119.336" id="left-margin" style="fill:darkred;stroke:none;opacity:0.4;" width="12.4512" x="1394.06" y="1030.79"/><rect height="119.336" id="right-margin" style="fill:darkgreen;stroke:none;opacity:0.4;" width="12.4512" x="1502.5112" y="1030.79"/><rect x="1406.5112" y="1045" width="96" height="96" fill="none" stroke="blue" stroke-dasharray="5"/><rect x="1394.06" y="1030.79" width="120.9024" height="119.336" fill="none" stroke="blue"/></g><g id="Symbols"><g id="Bold-L" transform="matrix(1 0 0 1 2266 1556)"><path d="M8.224 33.946 V-56.676 Q8.224 -71.685 15.821 -82.776 Q23.419 -93.867 37.181 -99.343 Q46.905 -102.955 57.461 -103.761 Q68.016 -104.567 77.384 -104.567 Q86.752 -104.567 97.404 -103.761 Q108.056 -102.955 117.78 -99.343 Q131.512 -93.927 139.125 -82.806 Q146.738 -71.685 146.738 -56.676 V33.946 H8.224 Z M56.921 19.192  69.309 6.856 H85.752 L97.879 19.192 H107.231 V15.941 L98.201 6.836 Q105.527 6.843 111.459 1.488 Q117.39 -3.867 117.39 -12.79 V-54.902 Q117.39 -66.238 105.921 -70.729 Q94.452 -75.22 77.446 -75.22 Q57.405 -75.22 47.407 -70.729 Q37.41 -66.238 37.41 -54.902 V-12.79 Q37.41 -3.222 44.056 1.834 Q50.702 6.889 56.76 6.856 L47.569 15.941 V19.192 H56.921 Z M46.198 -26.845 V-54.902 H108.602 V-26.845 H46.198 Z M99.661 -6.608 Q96.958 -6.608 95.201 -8.356 Q93.444 -10.104 93.444 -12.808 Q93.444 -15.511 95.192 -17.268 Q96.941 -19.024 99.644 -19.024 Q102.347 -19.024 104.104 -17.276 Q105.861 -15.528 105.861 -12.825 Q105.861 -10.121 104.113 -8.365 Q102.364 -6.608 99.661 -6.608 Z M55.156 -6.608 Q52.453 -6.608 50.696 -8.356 Q48.939 -10.104 48.939 -12.808 Q48.939 -15.511 50.687 -17.268 Q52.436 -19.024 55.139 -19.024 Q57.842 -19.024 59.599 -17.276 Q61.356 -15.528 61.356 -12.825 Q61.356 -10.121 59.608 -8.365 Q57.859 -6.608 55.156 -6.608 Z"/></g><g id="Semibold-L" transform="matrix(1 0 0 1 1970.27 1556)"><path d="M10.607 31.563 V-56.676 Q10.607 -70.844 17.826 -81.387 Q25.045 -91.93 38.093 -97.1 Q47.439 -100.571 57.798 -101.343 Q68.156 -102.114 77.384 -102.114 Q86.612 -102.114 97.067 -101.343 Q107.522 -100.571 116.869 -97.1 Q129.899 -91.964 137.092 -81.404 Q144.284 -70.844 144.284 -56.676 V31.563 H10.607 Z M56.501 19.192  69.169 6.576 H85.801 L98.299 19.192 H106.811 V15.941 L97.43 6.556 Q104.826 6.563 110.722 1.348 Q116.619 -3.867 116.619 -12.79 V-54.902 Q116.619 -66.238 104.94 -70.344 Q93.26 -74.449 77.426 -74.449 Q58.597 -74.449 48.389 -70.344 Q38.181 -66.238 38.181 -54.902 V-12.79 Q38.181 -3.222 44.792 1.688 Q51.403 6.597 57.461 6.576 L47.989 15.941 V19.192 H56.501 Z M46.198 -26.845 V-54.902 H108.602 V-26.845 H46.198 Z M99.661 -6.608 Q96.958 -6.608 95.201 -8.356 Q93.444 -10.104 93.444 -12.808 Q93.444 -15.511 95.192 -17.268 Q96.941 -19.024 99.644 -19.024 Q102.347 -19.024 104.104 -17.276 Q105.861 -15.528 105.861 -12.825 Q105.861 -10.121 104.113 -8.365 Q102.364 -6.608 99.661 -6.608 Z M55.156 -6.608 Q52.453 -6.608 50.696 -8.356 Q48.939 -10.104 48.939 -12.808 Q48.939 -15.511 50.687 -17.268 Q52.436 -19.024 55.139 -19.024 Q57.842 -19.024 59.599 -17.276 Q61.356 -15.528 61.356 -12.825 Q61.356 -10.121 59.608 -8.365 Q57.859 -6.608 55.156 -6.608 Z"/></g><g id="Medium-L" transform="matrix(1 0 0 1 1674.31 1556)"><path d="M12.395 29.775 V-56.676 Q12.395 -70.213 19.33 -80.345 Q26.264 -90.477 38.776 -95.417 Q47.839 -98.784 58.05 -99.528 Q68.261 -100.273 77.384 -100.273 Q86.507 -100.273 96.814 -99.528 Q107.122 -98.784 116.185 -95.417 Q128.69 -90.492 135.567 -80.352 Q142.443 -70.213 142.443 -56.676 V29.775 H12.395 Z M56.185 19.192  69.064 6.366 H85.838 L98.615 19.192 H106.495 V15.941 L96.852 6.345 Q104.3 6.352 110.17 1.243 Q116.04 -3.867 116.04 -12.79 V-54.902 Q116.04 -66.238 104.203 -70.054 Q92.366 -73.87 77.411 -73.87 Q59.491 -73.87 49.125 -70.054 Q38.76 -66.238 38.76 -54.902 V-12.79 Q38.76 -3.222 45.344 1.578 Q51.929 6.378 57.987 6.366 L48.305 15.941 V19.192 H56.185 Z M46.198 -26.845 V-54.902 H108.602 V-26.845 H46.198 Z M99.661 -6.608 Q96.958 -6.608 95.201 -8.356 Q93.444 -10.104 93.444 -12.808 Q93.444 -15.511 95.192 -17.268 Q96.941 -19.024 99.644 -19.024 Q102.347 -19.024 104.104 -17.276 Q105.861 -15.528 105.861 -12.825 Q105.861 -10.121 104.113 -8.365 Q102.364 -6.608 99.661 -6.608 Z M55.156 -6.608 Q52.453 -6.608 50.696 -8.356 Q48.939 -10.104 48.939 -12.808 Q48.939 -15.511 50.687 -17.268 Q52.436 -19.024 55.139 -19.024 Q57.842 -19.024 59.599 -17.276 Q61.356 -15.528 61.356 -12.825 Q61.356 -10.121 59.608 -8.365 Q57.859 -6.608 55.156 -6.608 Z"/></g><g id="Regular-L" transform="matrix(1 0 0 1 1378.56 1556)"><path d="M13.706 28.464 V-56.676 Q13.706 -69.75 20.432 -79.581 Q27.158 -89.412 39.277 -94.183 Q48.133 -97.472 58.236 -98.198 Q68.338 -98.924 77.384 -98.924 Q86.43 -98.924 96.629 -98.198 Q106.828 -97.472 115.684 -94.183 Q127.803 -89.412 134.448 -79.581 Q141.094 -69.75 141.094 -56.676 V28.464 H13.706 Z M55.954 19.192  68.987 6.211 H85.866 L98.846 19.192 H106.264 V15.941 L96.428 6.191 Q103.914 6.198 109.765 1.166 Q115.616 -3.867 115.616 -12.79 V-54.902 Q115.616 -66.238 103.664 -69.842 Q91.711 -73.446 77.4 -73.446 Q60.146 -73.446 49.665 -69.842 Q39.184 -66.238 39.184 -54.902 V-12.79 Q39.184 -3.222 45.749 1.498 Q52.314 6.218 58.373 6.211 L48.536 15.941 V19.192 H55.954 Z M46.198 -26.845 V-54.902 H108.602 V-26.845 H46.198 Z M99.661 -6.608 Q96.958 -6.608 95.201 -8.356 Q93.444 -10.104 93.444 -12.808 Q93.444 -15.511 95.192 -17.268 Q96.941 -19.024 99.644 -19.024 Q102.347 -19.024 104.104 -17.276 Q105.861 -15.528 105.861 -12.825 Q105.861 -10.121 104.113 -8.365 Q102.364 -6.608 99.661 -6.608 Z M55.156 -6.608 Q52.453 -6.608 50.696 -8.356 Q48.939 -10.104 48.939 -12.808 Q48.939 -15.511 50.687 -17.268 Q52.436 -19.024 55.139 -19.024 Q57.842 -19.024 59.599 -17.276 Q61.356 -15.528 61.356 -12.825 Q61.356 -10.121 59.608 -8.365 Q57.859 -6.608 55.156 -6.608 Z"/></g><g id="Light-L" transform="matrix(1 0 0 1 1082.77 1556)"><path d="M16.621 25.549 V-56.366 Q16.621 -68.54 22.975 -77.705 Q29.329 -86.869 40.673 -91.423 Q49.001 -94.526 58.794 -95.268 Q68.586 -96.009 77.384 -96.009 Q86.182 -96.009 96.04 -95.268 Q105.898 -94.526 114.226 -91.423 Q125.632 -86.869 131.905 -77.705 Q138.179 -68.54 138.179 -56.366 V25.549 H16.621 Z M55.582 18.479  67.673 5.901 H87.137 L99.28 18.479 H105.085 V15.218 L95.993 5.757 Q103.48 5.516 108.649 0.622 Q113.818 -4.273 113.818 -12.722 V-54.84 Q113.818 -64.831 103.02 -68.301 Q92.223 -71.772 77.4 -71.772 Q60.891 -71.772 50.936 -68.301 Q40.982 -64.831 40.982 -54.84 V-12.722 Q40.982 -3.752 46.679 0.954 Q52.377 5.66 58.807 5.78 L49.715 15.219 V18.479 H55.582 Z M46.787 -26.597 V-54.84 H108.075 V-26.597 H46.787 Z M98.41 -6.949 Q95.952 -6.949 94.342 -8.562 Q92.731 -10.175 92.731 -12.633 Q92.731 -15.09 94.344 -16.701 Q95.957 -18.311 98.414 -18.311 Q100.872 -18.311 102.482 -16.698 Q104.093 -15.085 104.093 -12.628 Q104.093 -10.17 102.48 -8.56 Q100.867 -6.949 98.41 -6.949 Z M56.386 -6.949 Q53.928 -6.949 52.318 -8.562 Q50.707 -10.175 50.707 -12.633 Q50.707 -15.09 52.32 -16.701 Q53.933 -18.311 56.39 -18.311 Q58.848 -18.311 60.458 -16.698 Q62.069 -15.085 62.069 -12.628 Q62.069 -10.17 60.456 -8.56 Q58.843 -6.949 56.386 -6.949 Z"/></g><g id="Thin-L" transform="matrix(1 0 0 1 787.282 1556)"><path d="M19.536 22.634 V-56.056 Q19.536 -67.331 25.518 -75.829 Q31.5 -84.326 42.068 -88.663 Q49.87 -91.581 59.352 -92.337 Q68.834 -93.094 77.384 -93.094 Q85.934 -93.094 95.451 -92.337 Q104.968 -91.581 112.769 -88.663 Q123.462 -84.326 129.363 -75.829 Q135.264 -67.331 135.264 -56.056 V22.634 H19.536 Z M55.21 17.765  66.36 5.591 H88.408 L99.715 17.765 H103.907 V14.495 L95.559 5.323 Q103.046 4.834 107.533 0.078 Q112.019 -4.678 112.019 -12.654 V-54.778 Q112.019 -63.423 102.377 -66.76 Q92.734 -70.097 77.4 -70.097 Q61.635 -70.097 52.208 -66.76 Q42.781 -63.423 42.781 -54.778 V-12.654 Q42.781 -4.281 47.61 0.41 Q52.439 5.102 59.241 5.348 L50.893 14.496 V17.765 H55.21 Z M47.377 -26.349 V-54.778 H107.548 V-26.349 H47.377 Z M97.158 -7.29 Q94.947 -7.29 93.482 -8.768 Q92.018 -10.246 92.018 -12.457 Q92.018 -14.669 93.496 -16.134 Q94.973 -17.598 97.185 -17.598 Q99.397 -17.598 100.861 -16.12 Q102.326 -14.643 102.326 -12.431 Q102.326 -10.219 100.848 -8.755 Q99.37 -7.29 97.158 -7.29 Z M57.615 -7.29 Q55.403 -7.29 53.939 -8.768 Q52.474 -10.246 52.474 -12.457 Q52.474 -14.669 53.952 -16.134 Q55.43 -17.598 57.642 -17.598 Q59.853 -17.598 61.318 -16.12 Q62.782 -14.643 62.782 -12.431 Q62.782 -10.219 61.304 -8.755 Q59.827 -7.29 57.615 -7.29 Z"/></g><g id="Ultralight-L" transform="matrix(1 0 0 1 491.205 1556)"><path d="M21.285 20.885 V-55.87 Q21.285 -66.605 27.044 -74.703 Q32.802 -82.801 42.906 -87.007 Q50.391 -89.813 59.687 -90.579 Q68.983 -91.345 77.384 -91.345 Q85.785 -91.345 95.097 -90.579 Q104.409 -89.813 111.894 -87.007 Q122.159 -82.801 127.837 -74.703 Q133.515 -66.605 133.515 -55.87 V20.885 H21.285 Z M54.986 17.338  65.572 5.405 H89.171 L99.975 17.338 H103.2 V14.06 L95.299 5.062 Q102.786 4.424 106.863 -0.249 Q110.94 -4.921 110.94 -12.613 V-54.741 Q110.94 -62.578 101.991 -65.835 Q93.041 -69.092 77.4 -69.092 Q62.081 -69.092 52.971 -65.835 Q43.86 -62.578 43.86 -54.741 V-12.613 Q43.86 -4.599 48.168 0.084 Q52.476 4.767 59.501 5.09 L51.6 14.063 V17.338 H54.986 Z M47.73 -26.2 V-54.741 H107.231 V-26.2 H47.73 Z M96.408 -7.495 Q94.343 -7.495 92.967 -8.891 Q91.59 -10.288 91.59 -12.352 Q91.59 -14.417 92.986 -15.793 Q94.383 -17.17 96.447 -17.17 Q98.512 -17.17 99.888 -15.774 Q101.265 -14.377 101.265 -12.313 Q101.265 -10.248 99.869 -8.872 Q98.472 -7.495 96.408 -7.495 Z M58.353 -7.495 Q56.288 -7.495 54.912 -8.891 Q53.535 -10.288 53.535 -12.352 Q53.535 -14.417 54.931 -15.793 Q56.328 -17.17 58.392 -17.17 Q60.457 -17.17 61.833 -15.774 Q63.21 -14.377 63.21 -12.313 Q63.21 -10.248 61.814 -8.872 Q60.417 -7.495 58.353 -7.495 Z"/></g><g id="Bold-M" transform="matrix(1 0 0 1 2281.8 1126)"><path d="M5.5 19.27 V-50.73 Q5.5 -62.927 11.777 -71.892 Q18.053 -80.856 29.51 -85.492 Q36.812 -88.292 44.75 -89.011 Q52.688 -89.73 60 -89.73 Q67.312 -89.73 75.25 -89.011 Q83.188 -88.292 90.49 -85.492 Q101.947 -80.856 108.224 -71.892 Q114.5 -62.927 114.5 -50.73 V19.27 H5.5 Z M46.5 4.145  53.25 -2.48 H66.625 L73.25 4.145 H83 V1.645 L78.5 -2.746 Q83.875 -3.48 87.5 -7.949 Q91.125 -12.417 91.125 -17.959 V-49.98 Q91.125 -59.355 83.094 -62.855 Q75.062 -66.355 60 -66.355 Q45.5 -66.355 37.188 -62.855 Q28.875 -59.355 28.875 -49.98 V-17.959 Q28.875 -12.417 32.491 -7.941 Q36.108 -3.465 41.5 -2.73 L37 1.645 V4.145 H46.5 Z M37.875 -30.23 V-49.98 H82.125 V-30.23 H37.875 Z M77.007 -13.105 Q74.938 -13.105 73.531 -14.505 Q72.125 -15.904 72.125 -17.973 Q72.125 -20.042 73.525 -21.449 Q74.924 -22.855 76.993 -22.855 Q79.062 -22.855 80.469 -21.455 Q81.875 -20.056 81.875 -17.987 Q81.875 -15.917 80.475 -14.511 Q79.076 -13.105 77.007 -13.105 Z M43.007 -13.105 Q40.938 -13.105 39.531 -14.505 Q38.125 -15.904 38.125 -17.973 Q38.125 -20.042 39.525 -21.449 Q40.924 -22.855 42.993 -22.855 Q45.062 -22.855 46.469 -21.455 Q47.875 -20.056 47.875 -17.987 Q47.875 -15.917 46.475 -14.511 Q45.076 -13.105 43.007 -13.105 Z"/></g><g id="Semibold-M" transform="matrix(1 0 0 1 1985.97 1126)"><path d="M8 16.77 V-50.73 Q8 -62.112 13.869 -70.479 Q19.738 -78.846 30.434 -83.155 Q37.41 -85.847 45.158 -86.539 Q52.905 -87.23 60 -87.23 Q67.095 -87.23 74.842 -86.539 Q82.59 -85.847 89.566 -83.155 Q100.262 -78.846 106.131 -70.479 Q112 -62.112 112 -50.73 V16.77 H8 Z M46.065 4.145  53.141 -2.806 H66.734 L73.685 4.145 H82.565 V1.645 L77.739 -3.072 Q83.114 -3.806 86.712 -8.112 Q90.31 -12.417 90.31 -17.959 V-49.98 Q90.31 -59.355 82.061 -62.447 Q73.813 -65.54 60 -65.54 Q46.75 -65.54 38.22 -62.447 Q29.69 -59.355 29.69 -49.98 V-17.959 Q29.69 -12.417 33.279 -8.104 Q36.869 -3.791 42.261 -3.056 L37.435 1.645 V4.145 H46.065 Z M37.875 -30.23 V-49.98 H82.125 V-30.23 H37.875 Z M77.007 -13.105 Q74.938 -13.105 73.531 -14.505 Q72.125 -15.904 72.125 -17.973 Q72.125 -20.042 73.525 -21.449 Q74.924 -22.855 76.993 -22.855 Q79.062 -22.855 80.469 -21.455 Q81.875 -20.056 81.875 -17.987 Q81.875 -15.917 80.475 -14.511 Q79.076 -13.105 77.007 -13.105 Z M43.007 -13.105 Q40.938 -13.105 39.531 -14.505 Q38.125 -15.904 38.125 -17.973 Q38.125 -20.042 39.525 -21.449 Q40.924 -22.855 42.993 -22.855 Q45.062 -22.855 46.469 -21.455 Q47.875 -20.056 47.875 -17.987 Q47.875 -15.917 46.475 -14.511 Q45.076 -13.105 43.007 -13.105 Z"/></g><g id="Medium-M" transform="matrix(1 0 0 1 1689.91 1126)"><path d="M9.875 14.895 V-50.73 Q9.875 -61.5 15.438 -69.419 Q21.001 -77.337 31.127 -81.403 Q37.859 -84.013 45.463 -84.684 Q53.068 -85.355 60 -85.355 Q66.932 -85.355 74.537 -84.684 Q82.141 -84.013 88.873 -81.403 Q98.999 -77.337 104.562 -69.419 Q110.125 -61.5 110.125 -50.73 V14.895 H9.875 Z M45.739 4.145  53.06 -3.051 H66.815 L74.011 4.145 H82.239 V1.645 L77.168 -3.316 Q82.543 -4.051 86.121 -8.234 Q89.698 -12.417 89.698 -17.959 V-49.98 Q89.698 -59.355 81.287 -62.142 Q72.875 -64.928 60 -64.928 Q47.688 -64.928 38.995 -62.142 Q30.302 -59.355 30.302 -49.98 V-17.959 Q30.302 -12.417 33.87 -8.226 Q37.439 -4.035 42.831 -3.301 L37.761 1.645 V4.145 H45.739 Z M37.875 -30.23 V-49.98 H82.125 V-30.23 H37.875 Z M77.007 -13.105 Q74.938 -13.105 73.531 -14.505 Q72.125 -15.904 72.125 -17.973 Q72.125 -20.042 73.525 -21.449 Q74.924 -22.855 76.993 -22.855 Q79.062 -22.855 80.469 -21.455 Q81.875 -20.056 81.875 -17.987 Q81.875 -15.917 80.475 -14.511 Q79.076 -13.105 77.007 -13.105 Z M43.007 -13.105 Q40.938 -13.105 39.531 -14.505 Q38.125 -15.904 38.125 -17.973 Q38.125 -20.042 39.525 -21.449 Q40.924 -22.855 42.993 -22.855 Q45.062 -22.855 46.469 -21.455 Q47.875 -20.056 47.875 -17.987 Q47.875 -15.917 46.475 -14.511 Q45.076 -13.105 43.007 -13.105 Z"/></g><g id="Regular-M" transform="matrix(1 0 0 1 1394.06 1126)"><path d="M11.25 13.52 V-50.73 Q11.25 -61.052 16.589 -68.642 Q21.928 -76.231 31.635 -80.117 Q38.188 -82.667 45.688 -83.324 Q53.188 -83.98 60 -83.98 Q66.812 -83.98 74.312 -83.324 Q81.812 -82.667 88.365 -80.117 Q98.072 -76.231 103.411 -68.642 Q108.75 -61.052 108.75 -50.73 V13.52 H11.25 Z M45.5 4.145  53 -3.23 H66.875 L74.25 4.145 H82 V1.645 L76.75 -3.496 Q82.125 -4.23 85.688 -8.324 Q89.25 -12.417 89.25 -17.959 V-49.98 Q89.25 -59.355 80.719 -61.917 Q72.188 -64.48 60 -64.48 Q48.375 -64.48 39.562 -61.917 Q30.75 -59.355 30.75 -49.98 V-17.959 Q30.75 -12.417 34.304 -8.316 Q37.858 -4.215 43.25 -3.48 L38 1.645 V4.145 H45.5 Z M37.875 -30.23 V-49.98 H82.125 V-30.23 H37.875 Z M77.007 -13.105 Q74.938 -13.105 73.531 -14.505 Q72.125 -15.904 72.125 -17.973 Q72.125 -20.042 73.525 -21.449 Q74.924 -22.855 76.993 -22.855 Q79.062 -22.855 80.469 -21.455 Q81.875 -20.056 81.875 -17.987 Q81.875 -15.917 80.475 -14.511 Q79.076 -13.105 77.007 -13.105 Z M43.007 -13.105 Q40.938 -13.105 39.531 -14.505 Q38.125 -15.904 38.125 -17.973 Q38.125 -20.042 39.525 -21.449 Q40.924 -22.855 42.993 -22.855 Q45.062 -22.855 46.469 -21.455 Q47.875 -20.056 47.875 -17.987 Q47.875 -15.917 46.475 -14.511 Q45.076 -13.105 43.007 -13.105 Z"/></g><g id="Light-M" transform="matrix(1 0 0 1 1098.18 1126)"><path d="M13.51 11.26 V-50.778 Q13.51 -60.259 18.512 -67.331 Q23.515 -74.404 32.477 -78.026 Q38.716 -80.432 46.048 -81.076 Q53.38 -81.72 60 -81.72 Q66.62 -81.72 73.952 -81.076 Q81.284 -80.432 87.523 -78.026 Q96.485 -74.404 101.488 -67.331 Q106.49 -60.259 106.49 -50.778 V11.26 H13.51 Z M44.635 4.265  52.126 -3.518 H67.813 L75.212 4.265 H81.135 V1.758 L75.788 -3.784 Q81.26 -4.518 84.558 -8.433 Q87.856 -12.347 87.856 -17.907 V-50.028 Q87.856 -58.167 80.052 -60.675 Q72.248 -63.182 60 -63.182 Q48.423 -63.182 40.284 -60.675 Q32.144 -58.167 32.144 -50.028 V-17.907 Q32.144 -12.347 35.434 -8.401 Q38.723 -4.455 44.212 -3.766 L38.865 1.758 V4.265 H44.635 Z M37.803 -29.653 V-50.028 H82.197 V-29.653 H37.803 Z M76.037 -13.417 Q74.158 -13.417 72.889 -14.688 Q71.62 -15.959 71.62 -17.838 Q71.62 -19.716 72.891 -20.985 Q74.162 -22.254 76.04 -22.254 Q77.919 -22.254 79.188 -20.983 Q80.457 -19.712 80.457 -17.834 Q80.457 -15.955 79.186 -14.686 Q77.915 -13.417 76.037 -13.417 Z M43.96 -13.417 Q42.081 -13.417 40.812 -14.688 Q39.543 -15.959 39.543 -17.838 Q39.543 -19.716 40.814 -20.985 Q42.085 -22.254 43.964 -22.254 Q45.842 -22.254 47.111 -20.983 Q48.38 -19.712 48.38 -17.834 Q48.38 -15.955 47.109 -14.686 Q45.838 -13.417 43.96 -13.417 Z"/></g><g id="Thin-M" transform="matrix(1 0 0 1 802.565 1126)"><path d="M15.769 9.001 V-50.826 Q15.769 -59.465 20.435 -66.021 Q25.101 -72.578 33.318 -75.935 Q39.245 -78.196 46.409 -78.829 Q53.572 -79.461 60 -79.461 Q66.428 -79.461 73.591 -78.829 Q80.755 -78.196 86.682 -75.935 Q94.899 -72.578 99.565 -66.021 Q104.231 -59.465 104.231 -50.826 V9.001 H15.769 Z M43.769 4.385  51.252 -3.807 H68.75 L76.173 4.385 H80.269 V1.87 L74.827 -4.072 Q80.394 -4.807 83.428 -8.542 Q86.462 -12.277 86.462 -17.854 V-50.076 Q86.462 -56.98 79.385 -59.432 Q72.308 -61.884 60 -61.884 Q48.471 -61.884 41.005 -59.432 Q33.538 -56.98 33.538 -50.076 V-17.854 Q33.538 -12.277 36.563 -8.486 Q39.589 -4.695 45.173 -4.053 L39.731 1.871 V4.385 H43.769 Z M37.731 -29.076 V-50.076 H82.269 V-29.076 H37.731 Z M75.067 -13.73 Q73.379 -13.73 72.247 -14.872 Q71.115 -16.014 71.115 -17.702 Q71.115 -19.39 72.257 -20.521 Q73.399 -21.653 75.087 -21.653 Q76.775 -21.653 77.907 -20.511 Q79.038 -19.369 79.038 -17.681 Q79.038 -15.993 77.897 -14.862 Q76.755 -13.73 75.067 -13.73 Z M44.913 -13.73 Q43.225 -13.73 42.093 -14.872 Q40.962 -16.014 40.962 -17.702 Q40.962 -19.39 42.103 -20.521 Q43.245 -21.653 44.933 -21.653 Q46.621 -21.653 47.753 -20.511 Q48.885 -19.369 48.885 -17.681 Q48.885 -15.993 47.743 -14.862 Q46.601 -13.73 44.913 -13.73 Z"/></g><g id="Ultralight-M" transform="matrix(1 0 0 1 506.415 1126)"><path d="M17.125 7.645 V-50.855 Q17.125 -58.989 21.589 -65.235 Q26.053 -71.481 33.823 -74.68 Q39.562 -76.855 46.625 -77.48 Q53.688 -78.105 60 -78.105 Q66.312 -78.105 73.375 -77.48 Q80.438 -76.855 86.177 -74.68 Q93.947 -71.481 98.411 -65.235 Q102.875 -58.989 102.875 -50.855 V7.645 H17.125 Z M43.25 4.458  50.728 -3.98 H69.312 L76.75 4.458 H79.75 V1.937 L74.25 -4.246 Q79.875 -4.98 82.75 -8.607 Q85.625 -12.235 85.625 -17.822 V-50.105 Q85.625 -56.267 78.984 -58.686 Q72.344 -61.105 60 -61.105 Q48.5 -61.105 41.438 -58.686 Q34.375 -56.267 34.375 -50.105 V-17.822 Q34.375 -12.235 37.241 -8.537 Q40.108 -4.84 45.75 -4.224 L40.25 1.939 V4.458 H43.25 Z M37.688 -28.73 V-50.105 H82.312 V-28.73 H37.688 Z M74.485 -13.917 Q72.911 -13.917 71.862 -14.982 Q70.812 -16.047 70.812 -17.62 Q70.812 -19.194 71.877 -20.243 Q72.942 -21.292 74.515 -21.292 Q76.089 -21.292 77.138 -20.228 Q78.188 -19.163 78.188 -17.59 Q78.188 -16.016 77.123 -14.967 Q76.058 -13.917 74.485 -13.917 Z M45.485 -13.917 Q43.911 -13.917 42.862 -14.982 Q41.812 -16.047 41.812 -17.62 Q41.812 -19.194 42.877 -20.243 Q43.942 -21.292 45.515 -21.292 Q47.089 -21.292 48.138 -20.228 Q49.188 -19.163 49.188 -17.59 Q49.188 -16.016 48.123 -14.967 Q47.058 -13.917 45.485 -13.917 Z"/></g><g id="Bold-S" transform="matrix(1 0 0 1 2294.23 696)"><path d="M5.918 6.193 V-46.868 Q5.918 -56.688 10.87 -63.367 Q15.822 -70.046 24.171 -73.408 Q28.946 -75.222 34.371 -75.937 Q39.795 -76.652 47.34 -76.652 Q54.983 -76.652 60.408 -75.937 Q65.832 -75.222 70.509 -73.408 Q78.858 -70.046 83.81 -63.367 Q88.763 -56.688 88.763 -46.868 V6.193 H5.918 Z M36.294 -4.952  41.62 -10.179 H53.159 L58.386 -4.952 H64.303 V-7.319 L61.345 -10.192 H62.528 Q66.375 -10.179 69.136 -13.163 Q71.898 -16.146 71.898 -20.026 V-49.235 Q71.898 -52.982 67.238 -56.385 Q62.578 -59.788 47.34 -59.788 Q31.659 -59.788 27.221 -56.385 Q22.782 -52.982 22.782 -49.235 V-21.998 Q22.782 -17.231 25.488 -13.699 Q28.193 -10.167 32.152 -10.179 H33.335 L30.377 -7.319 V-4.952 H36.294 Z M31.067 -30.496 V-44.501 H63.613 V-30.496 H31.067 Z M59.969 -17.773 Q58.534 -17.773 57.523 -18.779 Q56.512 -19.785 56.512 -21.22 Q56.512 -22.655 57.518 -23.666 Q58.524 -24.677 59.959 -24.677 Q61.394 -24.677 62.405 -23.671 Q63.416 -22.666 63.416 -21.23 Q63.416 -19.795 62.41 -18.784 Q61.404 -17.773 59.969 -17.773 Z M34.721 -17.773 Q33.286 -17.773 32.275 -18.779 Q31.264 -19.785 31.264 -21.22 Q31.264 -22.655 32.27 -23.666 Q33.276 -24.677 34.711 -24.677 Q36.146 -24.677 37.157 -23.671 Q38.168 -22.666 38.168 -21.23 Q38.168 -19.795 37.162 -18.784 Q36.156 -17.773 34.721 -17.773 Z"/></g><g id="Semibold-S" transform="matrix(1 0 0 1 1998.1 696)"><path d="M7.89 4.22 V-46.868 Q7.89 -56.045 12.52 -62.252 Q17.151 -68.459 24.9 -71.564 Q29.418 -73.293 34.692 -73.987 Q39.967 -74.68 47.34 -74.68 Q54.812 -74.68 60.086 -73.987 Q65.361 -73.293 69.78 -71.564 Q77.529 -68.459 82.16 -62.252 Q86.79 -56.045 86.79 -46.868 V4.22 H7.89 Z M35.951 -4.952  41.534 -10.437 H53.245 L58.729 -4.952 H63.96 V-7.319 L60.744 -10.449 H61.928 Q65.774 -10.437 68.514 -13.291 Q71.254 -16.146 71.254 -20.026 V-49.235 Q71.254 -52.982 66.423 -56.063 Q61.591 -59.144 47.34 -59.144 Q32.645 -59.144 28.035 -56.063 Q23.426 -52.982 23.426 -49.235 V-21.998 Q23.426 -17.231 26.109 -13.828 Q28.793 -10.424 32.752 -10.437 H33.936 L30.72 -7.319 V-4.952 H35.951 Z M31.067 -30.496 V-44.501 H63.613 V-30.496 H31.067 Z M59.969 -17.773 Q58.534 -17.773 57.523 -18.779 Q56.512 -19.785 56.512 -21.22 Q56.512 -22.655 57.518 -23.666 Q58.524 -24.677 59.959 -24.677 Q61.394 -24.677 62.405 -23.671 Q63.416 -22.666 63.416 -21.23 Q63.416 -19.795 62.41 -18.784 Q61.404 -17.773 59.969 -17.773 Z M34.721 -17.773 Q33.286 -17.773 32.275 -18.779 Q31.264 -19.785 31.264 -21.22 Q31.264 -22.655 32.27 -23.666 Q33.276 -24.677 34.711 -24.677 Q36.146 -24.677 37.157 -23.671 Q38.168 -22.666 38.168 -21.23 Q38.168 -19.795 37.162 -18.784 Q36.156 -17.773 34.721 -17.773 Z"/></g><g id="Medium-S" transform="matrix(1 0 0 1 1701.85 696)"><path d="M9.369 2.741 V-46.868 Q9.369 -55.563 13.759 -61.416 Q18.148 -67.269 25.447 -70.181 Q29.772 -71.846 34.934 -72.523 Q40.095 -73.201 47.34 -73.201 Q54.683 -73.201 59.845 -72.523 Q65.007 -71.846 69.233 -70.181 Q76.532 -67.269 80.921 -61.416 Q85.311 -55.563 85.311 -46.868 V2.741 H9.369 Z M35.694 -4.952  41.47 -10.629 H53.309 L58.986 -4.952 H63.703 V-7.319 L60.294 -10.642 H61.478 Q65.324 -10.629 68.048 -13.388 Q70.772 -16.146 70.772 -20.026 V-49.235 Q70.772 -52.982 65.812 -55.822 Q60.852 -58.662 47.34 -58.662 Q33.385 -58.662 28.646 -55.822 Q23.908 -52.982 23.908 -49.235 V-21.998 Q23.908 -17.231 26.576 -13.924 Q29.244 -10.617 33.202 -10.629 H34.386 L30.977 -7.319 V-4.952 H35.694 Z M31.067 -30.496 V-44.501 H63.613 V-30.496 H31.067 Z M59.969 -17.773 Q58.534 -17.773 57.523 -18.779 Q56.512 -19.785 56.512 -21.22 Q56.512 -22.655 57.518 -23.666 Q58.524 -24.677 59.959 -24.677 Q61.394 -24.677 62.405 -23.671 Q63.416 -22.666 63.416 -21.23 Q63.416 -19.795 62.41 -18.784 Q61.404 -17.773 59.969 -17.773 Z M34.721 -17.773 Q33.286 -17.773 32.275 -18.779 Q31.264 -19.785 31.264 -21.22 Q31.264 -22.655 32.27 -23.666 Q33.276 -24.677 34.711 -24.677 Q36.146 -24.677 37.157 -23.671 Q38.168 -22.666 38.168 -21.23 Q38.168 -19.795 37.162 -18.784 Q36.156 -17.773 34.721 -17.773 Z"/></g><g id="Regular-S" transform="matrix(1 0 0 1 1405.73 696)"><path d="M10.454 1.656 V-46.868 Q10.454 -55.209 14.667 -60.803 Q18.879 -66.397 25.848 -69.167 Q30.031 -70.784 35.111 -71.45 Q40.19 -72.116 47.34 -72.116 Q54.589 -72.116 59.668 -71.45 Q64.747 -70.784 68.832 -69.167 Q75.801 -66.397 80.013 -60.803 Q84.226 -55.209 84.226 -46.868 V1.656 H10.454 Z M35.505 -4.952  41.422 -10.771 H53.356 L59.175 -4.952 H63.515 V-7.319 L59.964 -10.783 H61.148 Q64.994 -10.771 67.706 -13.459 Q70.418 -16.146 70.418 -20.026 V-49.235 Q70.418 -52.982 65.364 -55.645 Q60.309 -58.308 47.34 -58.308 Q33.927 -58.308 29.094 -55.645 Q24.262 -52.982 24.262 -49.235 V-21.998 Q24.262 -17.231 26.918 -13.995 Q29.574 -10.759 33.532 -10.771 H34.716 L31.166 -7.319 V-4.952 H35.505 Z M31.067 -30.496 V-44.501 H63.613 V-30.496 H31.067 Z M59.969 -17.773 Q58.534 -17.773 57.523 -18.779 Q56.512 -19.785 56.512 -21.22 Q56.512 -22.655 57.518 -23.666 Q58.524 -24.677 59.959 -24.677 Q61.394 -24.677 62.405 -23.671 Q63.416 -22.666 63.416 -21.23 Q63.416 -19.795 62.41 -18.784 Q61.404 -17.773 59.969 -17.773 Z M34.721 -17.773 Q33.286 -17.773 32.275 -18.779 Q31.264 -19.785 31.264 -21.22 Q31.264 -22.655 32.27 -23.666 Q33.276 -24.677 34.711 -24.677 Q36.146 -24.677 37.157 -23.671 Q38.168 -22.666 38.168 -21.23 Q38.168 -19.795 37.162 -18.784 Q36.156 -17.773 34.721 -17.773 Z"/></g><g id="Light-S" transform="matrix(1 0 0 1 1109.75 696)"><path d="M12.237 -0.127 V-46.906 Q12.237 -54.583 16.184 -59.769 Q20.131 -64.955 26.512 -67.517 Q30.449 -69.02 35.395 -69.677 Q40.341 -70.333 47.34 -70.333 Q54.437 -70.333 59.384 -69.677 Q64.33 -69.02 68.168 -67.517 Q74.549 -64.955 78.496 -59.769 Q82.443 -54.583 82.443 -46.906 V-0.127 H12.237 Z M34.822 -4.857  40.733 -10.999 H54.096 L59.934 -4.857 H62.832 V-7.23 L59.205 -11.011 H60.389 Q64.311 -10.999 66.815 -13.545 Q69.318 -16.091 69.318 -19.984 V-49.273 Q69.318 -52.045 64.837 -54.665 Q60.357 -57.284 47.34 -57.284 Q33.965 -57.284 29.663 -54.665 Q25.362 -52.045 25.362 -49.273 V-21.956 Q25.362 -17.176 27.809 -14.062 Q30.257 -10.949 34.291 -10.997 H35.475 L31.848 -7.23 V-4.857 H34.822 Z M31.01 -30.041 V-44.539 H63.67 V-30.041 H31.01 Z M59.204 -18.02 Q57.919 -18.02 57.016 -18.924 Q56.114 -19.828 56.114 -21.113 Q56.114 -22.398 57.018 -23.3 Q57.922 -24.203 59.207 -24.203 Q60.492 -24.203 61.394 -23.299 Q62.297 -22.395 62.297 -21.11 Q62.297 -19.825 61.393 -18.923 Q60.489 -18.02 59.204 -18.02 Z M35.473 -18.02 Q34.188 -18.02 33.286 -18.924 Q32.383 -19.828 32.383 -21.113 Q32.383 -22.398 33.287 -23.3 Q34.191 -24.203 35.476 -24.203 Q36.761 -24.203 37.664 -23.299 Q38.566 -22.395 38.566 -21.11 Q38.566 -19.825 37.662 -18.923 Q36.758 -18.02 35.473 -18.02 Z"/></g><g id="Thin-S" transform="matrix(1 0 0 1 814.015 696)"><path d="M14.02 -1.91 V-46.944 Q14.02 -53.957 17.701 -58.735 Q21.383 -63.514 27.175 -65.867 Q30.866 -67.257 35.679 -67.903 Q40.493 -68.55 47.34 -68.55 Q54.285 -68.55 59.099 -67.903 Q63.913 -67.257 67.505 -65.867 Q73.297 -63.514 76.979 -58.735 Q80.66 -53.957 80.66 -46.944 V-1.91 H14.02 Z M34.139 -4.762  40.044 -11.226 H54.836 L60.692 -4.762 H62.149 V-7.142 L58.447 -11.238 H59.63 Q63.628 -11.226 65.923 -13.631 Q68.218 -16.035 68.218 -19.942 V-49.311 Q68.218 -51.109 64.311 -53.684 Q60.404 -56.26 47.34 -56.26 Q34.003 -56.26 30.232 -53.684 Q26.462 -51.109 26.462 -49.311 V-21.915 Q26.462 -17.12 28.701 -14.129 Q30.94 -11.138 35.05 -11.223 H36.233 L32.531 -7.141 V-4.762 H34.139 Z M30.953 -29.586 V-44.577 H63.727 V-29.586 H30.953 Z M58.439 -18.266 Q57.304 -18.266 56.51 -19.069 Q55.716 -19.871 55.716 -21.006 Q55.716 -22.14 56.518 -22.935 Q57.32 -23.729 58.455 -23.729 Q59.589 -23.729 60.384 -22.926 Q61.178 -22.124 61.178 -20.99 Q61.178 -19.855 60.376 -19.061 Q59.573 -18.266 58.439 -18.266 Z M36.225 -18.266 Q35.091 -18.266 34.296 -19.069 Q33.502 -19.871 33.502 -21.006 Q33.502 -22.14 34.304 -22.935 Q35.107 -23.729 36.241 -23.729 Q37.376 -23.729 38.17 -22.926 Q38.964 -22.124 38.964 -20.99 Q38.964 -19.855 38.162 -19.061 Q37.36 -18.266 36.225 -18.266 Z"/></g><g id="Ultralight-S" transform="matrix(1 0 0 1 517.792 696)"><path d="M15.09 -2.98 V-46.966 Q15.09 -53.582 18.612 -58.115 Q22.134 -62.649 27.574 -64.877 Q31.116 -66.198 35.85 -66.839 Q40.584 -67.48 47.34 -67.48 Q54.194 -67.48 58.928 -66.839 Q63.662 -66.198 67.106 -64.877 Q72.546 -62.649 76.068 -58.115 Q79.59 -53.582 79.59 -46.966 V-2.98 H15.09 Z M33.73 -4.706  39.63 -11.363 H55.279 L61.148 -4.706 H61.739 V-7.088 L57.992 -11.375 H59.175 Q63.219 -11.363 65.388 -13.682 Q67.558 -16.002 67.558 -19.917 V-49.333 Q67.558 -50.546 63.995 -53.096 Q60.432 -55.645 47.34 -55.645 Q34.026 -55.645 30.574 -53.096 Q27.122 -50.546 27.122 -49.333 V-21.89 Q27.122 -17.087 29.236 -14.169 Q31.349 -11.252 35.505 -11.358 H36.689 L32.941 -7.087 V-4.706 H33.73 Z M30.919 -29.312 V-44.599 H63.761 V-29.312 H30.919 Z M57.979 -18.414 Q56.935 -18.414 56.206 -19.156 Q55.477 -19.897 55.477 -20.942 Q55.477 -21.986 56.218 -22.715 Q56.959 -23.444 58.004 -23.444 Q59.048 -23.444 59.777 -22.703 Q60.506 -21.962 60.506 -20.917 Q60.506 -19.873 59.765 -19.144 Q59.024 -18.414 57.979 -18.414 Z M36.676 -18.414 Q35.632 -18.414 34.903 -19.156 Q34.174 -19.897 34.174 -20.942 Q34.174 -21.986 34.915 -22.715 Q35.656 -23.444 36.701 -23.444 Q37.745 -23.444 38.474 -22.703 Q39.203 -21.962 39.203 -20.917 Q39.203 -19.873 38.462 -19.144 Q37.721 -18.414 36.676 -18.414 Z"/></g></g></svg>