<svg xmlns="http://www.w3.org/2000/svg" version="1.1" width="3300" height="2000"><g id="Notes"><style>
    text {
      font-family: monospace;
      text-anchor: middle;
    }
    text.emphasis {
      font-weight:bold;
    }
    text.lanchor {
      text-anchor: start;
    }
  </style><rect height="2200" id="artboard" fill="white" width="3300" x="0" y="0"/><line id="" style="fill:none;stroke:black;stroke-width:0.5;" x1="263" x2="3036" y1="292" y2="292"/><text class="lanchor emphasis" transform="matrix(1 0 0 1 263 322)">Weight/Scale Variations</text><text transform="matrix(1 0 0 1 559.711 322)">Ultralight</text><text transform="matrix(1 0 0 1 856.422 322)">Thin</text><text transform="matrix(1 0 0 1 1153.13 322)">Light</text><text transform="matrix(1 0 0 1 1449.84 322)">Regular</text><text transform="matrix(1 0 0 1 1746.56 322)">Medium</text><text transform="matrix(1 0 0 1 2043.27 322)">Semibold</text><text transform="matrix(1 0 0 1 2339.98 322)">Bold</text><text transform="matrix(1 0 0 1 2636.69 322)">Heavy</text><text transform="matrix(1 0 0 1 2933.4 322)">Black</text><text id="template-version" style="text-anchor: end;" transform="matrix(1 0 0 1 3036 1933)">Template v.1.0</text><text class="lanchor" transform="matrix(1 0 0 1 263 726)">Small</text><text class="lanchor" transform="matrix(1 0 0 1 263 1156)">Medium</text><text class="lanchor" transform="matrix(1 0 0 1 263 1586)">Large</text></g><g id="Guides"><g id="H-reference" style="fill:#27AAE1;stroke:none;" transform="matrix(1 0 0 1 339 696)"><path d="M 54.9316 0 L 57.666 0 L 30.5664 -70.459 L 28.0762 -70.459 L 0.976562 0 L 3.66211 0 L 12.9395 -24.4629 L 45.7031 -24.4629 Z M 29.1992 -67.0898 L 29.4434 -67.0898 L 44.8242 -26.709 L 13.8184 -26.709 Z"/></g><line id="Baseline-S" style="fill:none;stroke:#27AAE1;opacity:1;stroke-width:0.577;" x1="263" x2="3036" y1="696" y2="696"/><line id="Capline-S" style="fill:none;stroke:#27AAE1;opacity:1;stroke-width:0.577;" x1="263" x2="3036" y1="625.541" y2="625.541"/><g id="H-reference" style="fill:#27AAE1;stroke:none;" transform="matrix(1 0 0 1 339 1126)"><path d="M 54.9316 0 L 57.666 0 L 30.5664 -70.459 L 28.0762 -70.459 L 0.976562 0 L 3.66211 0 L 12.9395 -24.4629 L 45.7031 -24.4629 Z M 29.1992 -67.0898 L 29.4434 -67.0898 L 44.8242 -26.709 L 13.8184 -26.709 Z"/></g><line id="Baseline-M" style="fill:none;stroke:#27AAE1;opacity:1;stroke-width:0.577;" x1="263" x2="3036" y1="1126" y2="1126"/><line id="Capline-M" style="fill:none;stroke:#27AAE1;opacity:1;stroke-width:0.577;" x1="263" x2="3036" y1="1055.54" y2="1055.54"/><g id="H-reference" style="fill:#27AAE1;stroke:none;" transform="matrix(1 0 0 1 339 1556)"><path d="M 54.9316 0 L 57.666 0 L 30.5664 -70.459 L 28.0762 -70.459 L 0.976562 0 L 3.66211 0 L 12.9395 -24.4629 L 45.7031 -24.4629 Z M 29.1992 -67.0898 L 29.4434 -67.0898 L 44.8242 -26.709 L 13.8184 -26.709 Z"/></g><line id="Baseline-L" style="fill:none;stroke:#27AAE1;opacity:1;stroke-width:0.577;" x1="263" x2="3036" y1="1556" y2="1556"/><line id="Capline-L" style="fill:none;stroke:#27AAE1;opacity:1;stroke-width:0.577;" x1="263" x2="3036" y1="1485.54" y2="1485.54"/><rect height="119.336" id="left-margin" style="fill:darkred;stroke:none;opacity:0.4;" width="12.4512" x="1394.06" y="1030.79"/><rect height="119.336" id="right-margin" style="fill:darkgreen;stroke:none;opacity:0.4;" width="12.4512" x="1502.5112" y="1030.79"/><rect x="1406.5112" y="1045" width="96" height="96" fill="none" stroke="blue" stroke-dasharray="5"/><rect x="1394.06" y="1030.79" width="120.9024" height="119.336" fill="none" stroke="blue"/></g><g id="Symbols"><g id="Bold-L" transform="matrix(1 0 0 1 2266 1556)"><path d="M41.28 -26.926 Q42.328 -30.634 42.651 -32.771 Q42.973 -34.907 42.973 -36.842 Q42.973 -41.761 40.514 -45.631 Q38.055 -49.501 35.072 -53.854 Q29.912 -61.352 28.541 -66.875 Q27.171 -72.398 27.171 -76.671 Q27.171 -79.816 27.654 -82.517 Q28.138 -85.217 28.703 -88.926 H42.328 Q41.522 -85.621 41.159 -83.041 Q40.796 -80.461 40.796 -77.316 Q40.796 -73.124 42.53 -68.891 Q44.263 -64.658 48.697 -58.531 Q54.019 -50.952 55.309 -45.792 Q56.599 -40.632 56.599 -36.52 Q56.599 -34.101 56.276 -31.924 Q55.954 -29.747 54.986 -26.926 H41.28 Z M69.499 -26.926 Q70.547 -30.634 70.869 -32.771 Q71.192 -34.907 71.192 -36.842 Q71.192 -41.761 68.733 -45.631 Q66.274 -49.501 63.291 -53.854 Q58.131 -61.352 56.76 -66.875 Q55.389 -72.398 55.389 -76.671 Q55.389 -79.816 55.873 -82.517 Q56.357 -85.217 56.921 -88.926 H70.547 Q69.902 -86.346 69.378 -83.565 Q68.854 -80.783 68.854 -77.316 Q68.854 -73.124 70.587 -68.891 Q72.321 -64.658 76.755 -58.531 Q82.076 -50.952 83.366 -45.792 Q84.656 -40.632 84.656 -36.52 Q84.656 -33.537 84.334 -31.4 Q84.011 -29.264 83.205 -26.926 H69.499 Z M97.718 -26.926 Q98.766 -30.634 99.088 -32.771 Q99.411 -34.907 99.411 -36.842 Q99.411 -41.761 96.952 -45.631 Q94.493 -49.501 91.509 -53.854 Q86.349 -61.352 84.979 -66.875 Q83.608 -72.398 83.608 -76.671 Q83.608 -79.816 84.092 -82.517 Q84.576 -85.217 85.14 -88.926 H98.766 Q98.121 -86.346 97.597 -83.565 Q97.073 -80.783 97.073 -77.316 Q97.073 -73.124 98.806 -68.891 Q100.539 -64.658 104.974 -58.531 Q110.295 -50.952 111.585 -45.792 Q112.875 -40.632 112.875 -36.52 Q112.875 -33.537 112.553 -31.4 Q112.23 -29.264 111.424 -26.926 H97.718 Z M77.239 19.514 Q48.294 19.514 29.267 9.275 Q10.239 -0.964 10.239 -16.525 Q10.239 -23.378 15.117 -28.901 Q19.995 -34.424 30.315 -39.584 V-24.749 Q27.413 -23.217 25.639 -21.121 Q23.865 -19.024 23.865 -16.525 Q23.865 -7.737 39.869 -0.924 Q55.873 5.889 77.239 5.889 Q98.282 5.889 114.729 -0.924 Q131.177 -7.737 131.177 -16.525 Q131.177 -19.105 129.202 -21.403 Q127.226 -23.701 124.727 -24.749 V-39.584 Q134.805 -34.424 139.804 -28.901 Q144.803 -23.378 144.803 -16.525 Q144.803 -0.964 125.573 9.275 Q106.344 19.514 77.239 19.514 Z"/></g><g id="Semibold-L" transform="matrix(1 0 0 1 1970.27 1556)"><path d="M43.313 -27.837 Q44.151 -31.055 44.438 -33.016 Q44.726 -34.978 44.726 -36.842 Q44.726 -41.971 42.267 -45.876 Q39.808 -49.781 36.825 -54.065 Q31.945 -61.002 30.434 -66.455 Q28.923 -71.907 28.923 -76.671 Q28.923 -79.395 29.302 -81.886 Q29.68 -84.376 30.245 -87.945 H41.978 Q41.241 -84.639 40.949 -82.305 Q40.656 -79.97 40.656 -77.316 Q40.656 -72.913 42.389 -68.611 Q44.123 -64.308 48.557 -58.18 Q53.388 -51.302 54.923 -46.213 Q56.458 -41.123 56.458 -36.52 Q56.458 -34.242 56.171 -32.24 Q55.884 -30.238 55.056 -27.837 H43.313 Z M70.48 -27.837 Q71.318 -31.055 71.605 -33.016 Q71.893 -34.978 71.893 -36.842 Q71.893 -41.971 69.434 -45.876 Q66.975 -49.781 63.992 -54.065 Q59.112 -61.002 57.601 -66.455 Q56.09 -71.907 56.09 -76.671 Q56.09 -79.395 56.469 -81.886 Q56.848 -84.376 57.412 -87.945 H69.145 Q68.57 -85.435 68.116 -82.899 Q67.662 -80.362 67.662 -77.316 Q67.662 -72.913 69.395 -68.611 Q71.129 -64.308 75.563 -58.18 Q80.394 -51.302 81.929 -46.213 Q83.464 -41.123 83.464 -36.52 Q83.464 -33.817 83.177 -31.856 Q82.89 -29.895 82.223 -27.837 H70.48 Z M97.647 -27.837 Q98.485 -31.055 98.773 -33.016 Q99.06 -34.978 99.06 -36.842 Q99.06 -41.971 96.601 -45.876 Q94.142 -49.781 91.159 -54.065 Q86.279 -61.002 84.768 -66.455 Q83.258 -71.907 83.258 -76.671 Q83.258 -79.395 83.636 -81.886 Q84.015 -84.376 84.579 -87.945 H96.312 Q95.737 -85.435 95.283 -82.899 Q94.829 -80.362 94.829 -77.316 Q94.829 -72.913 96.563 -68.611 Q98.296 -64.308 102.73 -58.18 Q107.561 -51.302 109.096 -46.213 Q110.632 -41.123 110.632 -36.52 Q110.632 -33.817 110.344 -31.856 Q110.057 -29.895 109.391 -27.837 H97.647 Z M77.309 18.042 Q50.468 18.042 32.387 8.188 Q14.305 -1.665 14.305 -16.174 Q14.305 -22.677 18.798 -28.095 Q23.29 -33.512 32.488 -38.392 V-25.029 Q29.446 -23.147 27.742 -20.945 Q26.038 -18.744 26.038 -16.174 Q26.038 -7.527 41.622 -0.609 Q57.205 6.309 77.309 6.309 Q97.23 6.309 113.082 -0.609 Q128.934 -7.527 128.934 -16.174 Q128.934 -18.825 127.063 -21.193 Q125.193 -23.56 122.484 -25.029 V-38.392 Q131.51 -33.512 136.088 -28.095 Q140.666 -22.677 140.666 -16.174 Q140.666 -1.665 122.454 8.188 Q104.241 18.042 77.309 18.042 Z"/></g><g id="Medium-L" transform="matrix(1 0 0 1 1674.31 1556)"><path d="M44.838 -28.521 Q45.518 -31.37 45.779 -33.2 Q46.04 -35.03 46.04 -36.842 Q46.04 -42.129 43.581 -46.06 Q41.122 -49.991 38.139 -54.223 Q33.47 -60.739 31.854 -66.139 Q30.238 -71.539 30.238 -76.671 Q30.238 -79.08 30.538 -81.412 Q30.837 -83.745 31.402 -87.209 H41.715 Q41.031 -83.903 40.791 -81.752 Q40.551 -79.602 40.551 -77.316 Q40.551 -72.756 42.284 -68.4 Q44.018 -64.045 48.452 -57.917 Q52.915 -51.565 54.634 -46.528 Q56.353 -41.491 56.353 -36.52 Q56.353 -34.347 56.092 -32.476 Q55.831 -30.606 55.109 -28.521 H44.838 Z M71.216 -28.521 Q71.897 -31.37 72.158 -33.2 Q72.419 -35.03 72.419 -36.842 Q72.419 -42.129 69.96 -46.06 Q67.501 -49.991 64.518 -54.223 Q59.848 -60.739 58.232 -66.139 Q56.616 -71.539 56.616 -76.671 Q56.616 -79.08 56.916 -81.412 Q57.216 -83.745 57.78 -87.209 H68.093 Q67.571 -84.751 67.169 -82.399 Q66.768 -80.047 66.768 -77.316 Q66.768 -72.756 68.501 -68.4 Q70.235 -64.045 74.669 -57.917 Q79.132 -51.565 80.851 -46.528 Q82.57 -41.491 82.57 -36.52 Q82.57 -34.028 82.309 -32.198 Q82.048 -30.368 81.487 -28.521 H71.216 Z M97.595 -28.521 Q98.275 -31.37 98.536 -33.2 Q98.797 -35.03 98.797 -36.842 Q98.797 -42.129 96.338 -46.06 Q93.879 -49.991 90.896 -54.223 Q86.227 -60.739 84.611 -66.139 Q82.995 -71.539 82.995 -76.671 Q82.995 -79.08 83.294 -81.412 Q83.594 -83.745 84.158 -87.209 H94.472 Q93.949 -84.751 93.548 -82.399 Q93.146 -80.047 93.146 -77.316 Q93.146 -72.756 94.88 -68.4 Q96.613 -64.045 101.048 -57.917 Q105.51 -51.565 107.229 -46.528 Q108.949 -41.491 108.949 -36.52 Q108.949 -34.028 108.688 -32.198 Q108.427 -30.368 107.866 -28.521 H97.595 Z M77.361 16.938 Q52.098 16.938 34.726 7.373 Q17.355 -2.191 17.355 -15.912 Q17.355 -22.151 21.558 -27.49 Q25.761 -32.829 34.118 -37.498 V-25.239 Q30.97 -23.094 29.319 -20.814 Q27.668 -18.534 27.668 -15.912 Q27.668 -7.369 42.936 -0.372 Q58.204 6.625 77.361 6.625 Q96.442 6.625 111.846 -0.372 Q127.251 -7.369 127.251 -15.912 Q127.251 -18.614 125.46 -21.035 Q123.668 -23.455 120.801 -25.239 V-37.498 Q129.039 -32.829 133.301 -27.49 Q137.564 -22.151 137.564 -15.912 Q137.564 -2.191 120.114 7.373 Q102.664 16.938 77.361 16.938 Z"/></g><g id="Regular-L" transform="matrix(1 0 0 1 1378.56 1556)"><path d="M45.956 -29.022 Q46.521 -31.602 46.763 -33.335 Q47.004 -35.069 47.004 -36.842 Q47.004 -42.244 44.545 -46.195 Q42.086 -50.146 39.103 -54.338 Q34.588 -60.546 32.895 -65.908 Q31.202 -71.269 31.202 -76.671 Q31.202 -78.848 31.444 -81.065 Q31.686 -83.282 32.25 -86.669 H41.522 Q40.877 -83.363 40.675 -81.347 Q40.474 -79.332 40.474 -77.316 Q40.474 -72.64 42.207 -68.246 Q43.941 -63.852 48.375 -57.724 Q52.568 -51.758 54.422 -46.759 Q56.276 -41.761 56.276 -36.52 Q56.276 -34.424 56.034 -32.65 Q55.793 -30.876 55.148 -29.022 H45.956 Z M71.756 -29.022 Q72.321 -31.602 72.562 -33.335 Q72.804 -35.069 72.804 -36.842 Q72.804 -42.244 70.345 -46.195 Q67.886 -50.146 64.903 -54.338 Q60.388 -60.546 58.695 -65.908 Q57.002 -71.269 57.002 -76.671 Q57.002 -78.848 57.244 -81.065 Q57.486 -83.282 58.05 -86.669 H67.322 Q66.838 -84.25 66.475 -82.033 Q66.112 -79.816 66.112 -77.316 Q66.112 -72.64 67.846 -68.246 Q69.579 -63.852 74.014 -57.724 Q78.206 -51.758 80.061 -46.759 Q81.915 -41.761 81.915 -36.52 Q81.915 -34.182 81.673 -32.448 Q81.431 -30.715 80.948 -29.022 H71.756 Z M97.556 -29.022 Q98.121 -31.602 98.362 -33.335 Q98.604 -35.069 98.604 -36.842 Q98.604 -42.244 96.145 -46.195 Q93.686 -50.146 90.703 -54.338 Q86.188 -60.546 84.495 -65.908 Q82.802 -71.269 82.802 -76.671 Q82.802 -78.848 83.044 -81.065 Q83.286 -83.282 83.85 -86.669 H93.122 Q92.638 -84.25 92.275 -82.033 Q91.913 -79.816 91.913 -77.316 Q91.913 -72.64 93.646 -68.246 Q95.379 -63.852 99.814 -57.724 Q104.006 -51.758 105.861 -46.759 Q107.715 -41.761 107.715 -36.52 Q107.715 -34.182 107.473 -32.448 Q107.231 -30.715 106.748 -29.022 H97.556 Z M77.4 16.128 Q53.293 16.128 36.443 6.776 Q19.592 -2.577 19.592 -15.719 Q19.592 -21.766 23.583 -27.047 Q27.574 -32.327 35.314 -36.842 V-25.394 Q32.089 -23.056 30.476 -20.717 Q28.864 -18.379 28.864 -15.719 Q28.864 -7.253 43.9 -0.198 Q58.937 6.856 77.4 6.856 Q95.863 6.856 110.94 -0.198 Q126.017 -7.253 126.017 -15.719 Q126.017 -18.46 124.283 -20.919 Q122.55 -23.378 119.567 -25.394 V-36.842 Q127.226 -32.327 131.257 -27.047 Q135.289 -21.766 135.289 -15.719 Q135.289 -2.577 118.398 6.776 Q101.507 16.128 77.4 16.128 Z"/></g><g id="Light-L" transform="matrix(1 0 0 1 1082.77 1556)"><path d="M49.181 -28.712 Q49.591 -30.858 49.786 -32.327 Q49.982 -33.797 49.982 -35.354 Q49.982 -40.849 47.507 -44.831 Q45.032 -48.812 42.08 -52.881 Q37.472 -59.12 35.826 -64.218 Q34.179 -69.316 34.179 -74.562 Q34.179 -76.429 34.359 -78.429 Q34.539 -80.429 34.979 -83.288 H42.08 Q41.528 -80.541 41.389 -78.743 Q41.249 -76.944 41.249 -75.145 Q41.249 -69.973 43.153 -65.517 Q45.057 -61.061 49.15 -55.523 Q53.56 -49.339 55.306 -44.588 Q57.052 -39.838 57.052 -35.032 Q57.052 -33.276 56.856 -31.782 Q56.661 -30.287 56.14 -28.712 H49.181 Z M73.121 -28.712 Q73.53 -30.858 73.725 -32.327 Q73.921 -33.797 73.921 -35.354 Q73.921 -40.849 71.446 -44.831 Q68.972 -48.812 66.02 -52.881 Q61.412 -59.12 59.765 -64.218 Q58.118 -69.316 58.118 -74.562 Q58.118 -76.429 58.298 -78.429 Q58.478 -80.429 58.918 -83.288 H66.019 Q65.629 -81.242 65.328 -79.273 Q65.027 -77.304 65.027 -75.145 Q65.027 -69.973 66.931 -65.517 Q68.835 -61.061 72.928 -55.523 Q77.338 -49.339 79.084 -44.588 Q80.83 -39.838 80.83 -35.032 Q80.83 -33.127 80.665 -31.642 Q80.501 -30.157 80.079 -28.712 H73.121 Z M97.06 -28.712 Q97.469 -30.858 97.665 -32.327 Q97.86 -33.797 97.86 -35.354 Q97.86 -40.849 95.386 -44.831 Q92.911 -48.812 89.959 -52.881 Q85.351 -59.12 83.704 -64.218 Q82.058 -69.316 82.058 -74.562 Q82.058 -76.429 82.237 -78.429 Q82.417 -80.429 82.858 -83.288 H89.959 Q89.568 -81.242 89.267 -79.273 Q88.966 -77.304 88.966 -75.145 Q88.966 -69.973 90.87 -65.517 Q92.774 -61.061 96.868 -55.523 Q101.277 -49.339 103.023 -44.588 Q104.769 -39.838 104.769 -35.032 Q104.769 -33.127 104.604 -31.642 Q104.44 -30.157 104.019 -28.712 H97.06 Z M77.4 12.717 Q54.72 12.717 38.861 4.186 Q23.003 -4.344 23.003 -16.463 Q23.003 -21.549 26.436 -26.209 Q29.869 -30.87 36.523 -34.92 V-26.355 Q33.298 -23.924 31.686 -21.555 Q30.073 -19.186 30.073 -16.525 Q30.073 -7.966 44.52 -1.16 Q58.968 5.647 77.4 5.647 Q95.832 5.647 110.335 -1.16 Q124.838 -7.966 124.838 -16.525 Q124.838 -19.204 123.09 -21.694 Q121.34 -24.184 118.388 -26.355 V-34.92 Q124.931 -30.87 128.42 -26.209 Q131.908 -21.549 131.908 -16.463 Q131.908 -4.344 116.01 4.186 Q100.111 12.717 77.4 12.717 Z"/></g><g id="Thin-L" transform="matrix(1 0 0 1 787.282 1556)"><path d="M52.406 -28.402 Q52.661 -30.113 52.809 -31.32 Q52.958 -32.526 52.958 -33.866 Q52.958 -39.453 50.468 -43.466 Q47.978 -47.479 45.057 -51.423 Q40.356 -57.693 38.756 -62.528 Q37.156 -67.362 37.156 -72.454 Q37.156 -74.011 37.274 -75.794 Q37.391 -77.577 37.708 -79.909 H42.638 Q42.179 -77.719 42.102 -76.138 Q42.024 -74.556 42.024 -72.975 Q42.024 -67.306 44.099 -62.788 Q46.173 -58.27 49.925 -53.321 Q54.552 -46.921 56.189 -42.418 Q57.827 -37.915 57.827 -33.543 Q57.827 -32.129 57.678 -30.913 Q57.529 -29.698 57.132 -28.402 H52.406 Z M74.485 -28.402 Q74.739 -30.113 74.888 -31.32 Q75.037 -32.526 75.037 -33.866 Q75.037 -39.453 72.547 -43.466 Q70.057 -47.479 67.136 -51.423 Q62.435 -57.693 60.835 -62.528 Q59.235 -67.362 59.235 -72.454 Q59.235 -74.011 59.352 -75.794 Q59.47 -77.577 59.787 -79.909 H64.717 Q64.419 -78.234 64.181 -76.513 Q63.942 -74.792 63.942 -72.975 Q63.942 -67.306 66.016 -62.788 Q68.091 -58.27 71.843 -53.321 Q76.47 -46.921 78.107 -42.418 Q79.744 -37.915 79.744 -33.543 Q79.744 -32.073 79.657 -30.836 Q79.571 -29.599 79.211 -28.402 H74.485 Z M96.564 -28.402 Q96.818 -30.113 96.967 -31.32 Q97.116 -32.526 97.116 -33.866 Q97.116 -39.453 94.626 -43.466 Q92.136 -47.479 89.215 -51.423 Q84.514 -57.693 82.913 -62.528 Q81.313 -67.362 81.313 -72.454 Q81.313 -74.011 81.431 -75.794 Q81.549 -77.577 81.865 -79.909 H86.796 Q86.498 -78.234 86.26 -76.513 Q86.021 -74.792 86.021 -72.975 Q86.021 -67.306 88.095 -62.788 Q90.17 -58.27 93.922 -53.321 Q98.549 -46.921 100.186 -42.418 Q101.823 -37.915 101.823 -33.543 Q101.823 -32.073 101.736 -30.836 Q101.65 -29.599 101.29 -28.402 H96.564 Z M77.4 9.306 Q56.146 9.306 41.28 1.597 Q26.414 -6.112 26.414 -17.207 Q26.414 -21.332 29.288 -25.372 Q32.163 -29.413 37.733 -32.997 V-27.316 Q34.508 -24.792 32.895 -22.392 Q31.283 -19.992 31.283 -17.331 Q31.283 -8.68 45.141 -2.121 Q58.999 4.438 77.4 4.438 Q95.801 4.438 109.731 -2.121 Q123.66 -8.68 123.66 -17.331 Q123.66 -19.948 121.896 -22.469 Q120.131 -24.991 117.21 -27.316 V-32.997 Q122.637 -29.413 125.583 -25.372 Q128.529 -21.332 128.529 -17.207 Q128.529 -6.112 113.622 1.597 Q98.716 9.306 77.4 9.306 Z"/></g><g id="Ultralight-L" transform="matrix(1 0 0 1 491.205 1556)"><path d="M54.341 -28.216 Q54.503 -29.667 54.623 -30.715 Q54.744 -31.763 54.744 -32.972 Q54.744 -38.616 52.245 -42.647 Q49.746 -46.679 46.843 -50.549 Q42.086 -56.837 40.514 -61.514 Q38.942 -66.19 38.942 -71.189 Q38.942 -72.559 39.023 -74.212 Q39.103 -75.865 39.345 -77.881 H42.973 Q42.57 -76.026 42.53 -74.575 Q42.489 -73.124 42.489 -71.672 Q42.489 -65.706 44.666 -61.151 Q46.843 -56.596 50.391 -52 Q55.148 -45.469 56.72 -41.116 Q58.292 -36.762 58.292 -32.65 Q58.292 -31.441 58.171 -30.392 Q58.05 -29.344 57.727 -28.216 H54.341 Z M75.304 -28.216 Q75.465 -29.667 75.586 -30.715 Q75.707 -31.763 75.707 -32.972 Q75.707 -38.616 73.207 -42.647 Q70.708 -46.679 67.806 -50.549 Q63.049 -56.837 61.477 -61.514 Q59.904 -66.19 59.904 -71.189 Q59.904 -72.559 59.985 -74.212 Q60.066 -75.865 60.308 -77.881 H63.936 Q63.694 -76.429 63.492 -74.857 Q63.291 -73.285 63.291 -71.672 Q63.291 -65.706 65.468 -61.151 Q67.644 -56.596 71.192 -52 Q75.949 -45.469 77.521 -41.116 Q79.093 -36.762 79.093 -32.65 Q79.093 -31.441 79.053 -30.352 Q79.013 -29.264 78.69 -28.216 H75.304 Z M96.266 -28.216 Q96.428 -29.667 96.548 -30.715 Q96.669 -31.763 96.669 -32.972 Q96.669 -38.616 94.17 -42.647 Q91.671 -46.679 88.768 -50.549 Q84.011 -56.837 82.439 -61.514 Q80.867 -66.19 80.867 -71.189 Q80.867 -72.559 80.948 -74.212 Q81.028 -75.865 81.27 -77.881 H84.898 Q84.656 -76.429 84.455 -74.857 Q84.253 -73.285 84.253 -71.672 Q84.253 -65.706 86.43 -61.151 Q88.607 -56.596 92.154 -52 Q96.911 -45.469 98.483 -41.116 Q100.056 -36.762 100.056 -32.65 Q100.056 -31.441 100.015 -30.352 Q99.975 -29.264 99.653 -28.216 H96.266 Z M77.4 7.259 Q57.002 7.259 42.731 0.043 Q28.461 -7.172 28.461 -17.654 Q28.461 -21.201 31 -24.87 Q33.54 -28.538 38.458 -31.844 V-27.893 Q35.233 -25.313 33.621 -22.894 Q32.008 -20.476 32.008 -17.815 Q32.008 -9.107 45.513 -2.698 Q59.017 3.712 77.4 3.712 Q95.782 3.712 109.368 -2.698 Q122.953 -9.107 122.953 -17.815 Q122.953 -20.395 121.179 -22.935 Q119.406 -25.474 116.503 -27.893 V-31.844 Q121.26 -28.538 123.88 -24.87 Q126.501 -21.201 126.501 -17.654 Q126.501 -7.172 112.19 0.043 Q97.879 7.259 77.4 7.259 Z"/></g><g id="Bold-M" transform="matrix(1 0 0 1 2281.8 1126)"><path d="M29.375 -28.292 Q30.312 -31.48 30.75 -33.48 Q31.188 -35.48 31.188 -37.48 Q31.188 -40.792 29.312 -43.511 Q27.438 -46.23 25.062 -49.48 Q21.375 -54.48 20.156 -58.542 Q18.938 -62.605 18.938 -66.605 Q18.938 -69.417 19.312 -71.886 Q19.688 -74.355 20.125 -77.167 H34.188 Q33.562 -74.48 33.188 -72.042 Q32.812 -69.605 32.812 -66.98 Q32.812 -62.855 34.75 -59.949 Q36.688 -57.042 38.938 -53.855 Q42.188 -49.292 43.625 -45.48 Q45.062 -41.667 45.062 -37.23 Q45.062 -35.292 44.781 -33.199 Q44.5 -31.105 43.625 -28.292 H29.375 Z M51.875 -28.292 Q52.812 -31.48 53.25 -33.48 Q53.688 -35.48 53.688 -37.48 Q53.688 -40.792 51.812 -43.511 Q49.938 -46.23 47.562 -49.48 Q43.875 -54.48 42.656 -58.542 Q41.438 -62.605 41.438 -66.605 Q41.438 -69.417 41.812 -71.886 Q42.188 -74.355 42.625 -77.167 H56.688 Q55.938 -74.23 55.562 -71.824 Q55.188 -69.417 55.188 -66.98 Q55.188 -62.855 57.125 -59.949 Q59.062 -57.042 61.312 -53.855 Q64.562 -49.292 66 -45.48 Q67.438 -41.667 67.438 -37.23 Q67.438 -34.792 67.125 -32.761 Q66.812 -30.73 66.125 -28.292 H51.875 Z M74.375 -28.292 Q75.312 -31.48 75.75 -33.48 Q76.188 -35.48 76.188 -37.48 Q76.188 -40.792 74.312 -43.511 Q72.438 -46.23 70.062 -49.48 Q66.375 -54.48 65.156 -58.542 Q63.938 -62.605 63.938 -66.605 Q63.938 -69.417 64.312 -71.886 Q64.688 -74.355 65.125 -77.167 H79.188 Q78.438 -74.23 78.062 -71.824 Q77.688 -69.417 77.688 -66.98 Q77.688 -62.855 79.625 -59.949 Q81.562 -57.042 83.812 -53.855 Q87.062 -49.292 88.5 -45.48 Q89.938 -41.667 89.938 -37.23 Q89.938 -34.792 89.625 -32.761 Q89.312 -30.73 88.625 -28.292 H74.375 Z M59.75 7.958 Q36.188 7.958 20.875 -0.199 Q5.562 -8.355 5.562 -20.98 Q5.562 -27.105 10.281 -32.074 Q15 -37.042 24.438 -41.105 V-26.667 Q22.312 -25.917 20.875 -24.23 Q19.438 -22.542 19.438 -20.98 Q19.438 -14.855 31.5 -10.386 Q43.562 -5.917 59.75 -5.917 Q75.812 -5.917 88.188 -10.449 Q100.562 -14.98 100.562 -20.98 Q100.562 -22.542 99.125 -24.23 Q97.688 -25.917 95.562 -26.667 V-41.105 Q105 -37.042 109.719 -32.074 Q114.438 -27.105 114.438 -20.98 Q114.438 -8.355 99.031 -0.199 Q83.625 7.958 59.75 7.958 Z"/></g><g id="Semibold-M" transform="matrix(1 0 0 1 1985.97 1126)"><path d="M31.494 -29.271 Q32.215 -31.86 32.598 -33.697 Q32.981 -35.534 32.981 -37.48 Q32.981 -41.01 31.106 -43.756 Q29.231 -46.502 26.856 -49.697 Q23.549 -54.154 22.14 -58.108 Q20.731 -62.061 20.731 -66.605 Q20.731 -68.983 21.024 -71.261 Q21.318 -73.54 21.755 -76.189 H33.807 Q33.236 -73.502 32.943 -71.309 Q32.65 -69.116 32.65 -66.98 Q32.65 -62.638 34.587 -59.65 Q36.525 -56.662 38.775 -53.529 Q41.59 -49.619 43.245 -45.915 Q44.9 -42.211 44.9 -37.23 Q44.9 -35.455 44.645 -33.552 Q44.391 -31.648 43.679 -29.271 H31.494 Z M52.907 -29.271 Q53.628 -31.86 54.011 -33.697 Q54.394 -35.534 54.394 -37.48 Q54.394 -41.01 52.519 -43.756 Q50.644 -46.502 48.269 -49.697 Q44.962 -54.154 43.553 -58.108 Q42.144 -62.061 42.144 -66.605 Q42.144 -68.983 42.438 -71.261 Q42.731 -73.54 43.169 -76.189 H55.22 Q54.579 -73.36 54.258 -71.199 Q53.938 -69.037 53.938 -66.98 Q53.938 -62.638 55.875 -59.65 Q57.813 -56.662 60.063 -53.529 Q62.878 -49.619 64.533 -45.915 Q66.188 -42.211 66.188 -37.23 Q66.188 -35.119 65.929 -33.25 Q65.671 -31.382 65.093 -29.271 H52.907 Z M74.321 -29.271 Q75.041 -31.86 75.424 -33.697 Q75.807 -35.534 75.807 -37.48 Q75.807 -41.01 73.932 -43.756 Q72.057 -46.502 69.682 -49.697 Q66.375 -54.154 64.966 -58.108 Q63.557 -62.061 63.557 -66.605 Q63.557 -68.983 63.851 -71.261 Q64.144 -73.54 64.582 -76.189 H76.633 Q75.992 -73.36 75.671 -71.199 Q75.351 -69.037 75.351 -66.98 Q75.351 -62.638 77.288 -59.65 Q79.226 -56.662 81.476 -53.529 Q84.291 -49.619 85.946 -45.915 Q87.601 -42.211 87.601 -37.23 Q87.601 -35.119 87.343 -33.25 Q87.084 -31.382 86.506 -29.271 H74.321 Z M59.859 6.436 Q38.47 6.436 24.136 -1.313 Q9.801 -9.061 9.801 -20.654 Q9.801 -26.398 14.085 -31.231 Q18.369 -36.064 26.72 -39.909 V-26.994 Q24.432 -25.809 23.076 -24.04 Q21.72 -22.271 21.72 -20.654 Q21.72 -14.692 33.321 -10.087 Q44.921 -5.483 59.859 -5.483 Q74.726 -5.483 86.503 -10.123 Q98.28 -14.763 98.28 -20.654 Q98.28 -22.271 96.924 -24.04 Q95.568 -25.809 93.28 -26.994 V-39.909 Q101.631 -36.064 105.915 -31.231 Q110.199 -26.398 110.199 -20.654 Q110.199 -9.061 95.825 -1.313 Q81.451 6.436 59.859 6.436 Z"/></g><g id="Medium-M" transform="matrix(1 0 0 1 1689.91 1126)"><path d="M33.084 -30.004 Q33.641 -32.146 33.984 -33.86 Q34.326 -35.575 34.326 -37.48 Q34.326 -41.173 32.451 -43.939 Q30.576 -46.705 28.201 -49.86 Q25.179 -53.909 23.628 -57.782 Q22.076 -61.654 22.076 -66.605 Q22.076 -68.657 22.308 -70.792 Q22.541 -72.928 22.978 -75.455 H33.522 Q32.992 -72.768 32.76 -70.758 Q32.527 -68.749 32.527 -66.98 Q32.527 -62.475 34.465 -59.426 Q36.402 -56.377 38.652 -53.284 Q41.141 -49.863 42.959 -46.241 Q44.777 -42.619 44.777 -37.23 Q44.777 -35.578 44.544 -33.817 Q44.31 -32.056 43.72 -30.004 H33.084 Z M53.682 -30.004 Q54.239 -32.146 54.581 -33.86 Q54.924 -35.575 54.924 -37.48 Q54.924 -41.173 53.049 -43.939 Q51.174 -46.705 48.799 -49.86 Q45.777 -53.909 44.225 -57.782 Q42.674 -61.654 42.674 -66.605 Q42.674 -68.657 42.906 -70.792 Q43.139 -72.928 43.576 -75.455 H54.12 Q53.56 -72.708 53.28 -70.73 Q53 -68.752 53 -66.98 Q53 -62.475 54.938 -59.426 Q56.875 -56.377 59.125 -53.284 Q61.614 -49.863 63.432 -46.241 Q65.25 -42.619 65.25 -37.23 Q65.25 -35.363 65.033 -33.617 Q64.815 -31.871 64.318 -30.004 H53.682 Z M74.28 -30.004 Q74.837 -32.146 75.179 -33.86 Q75.522 -35.575 75.522 -37.48 Q75.522 -41.173 73.647 -43.939 Q71.772 -46.705 69.397 -49.86 Q66.375 -53.909 64.823 -57.782 Q63.272 -61.654 63.272 -66.605 Q63.272 -68.657 63.504 -70.792 Q63.736 -72.928 64.174 -75.455 H74.717 Q74.158 -72.708 73.878 -70.73 Q73.598 -68.752 73.598 -66.98 Q73.598 -62.475 75.535 -59.426 Q77.473 -56.377 79.723 -53.284 Q82.212 -49.863 84.03 -46.241 Q85.848 -42.619 85.848 -37.23 Q85.848 -35.363 85.63 -33.617 Q85.413 -31.871 84.916 -30.004 H74.28 Z M59.94 5.295 Q40.182 5.295 26.581 -2.148 Q12.981 -9.591 12.981 -20.409 Q12.981 -25.869 16.939 -30.6 Q20.897 -35.33 28.432 -39.013 V-27.238 Q26.022 -25.727 24.727 -23.897 Q23.432 -22.067 23.432 -20.409 Q23.432 -14.57 34.686 -9.863 Q45.94 -5.157 59.94 -5.157 Q73.91 -5.157 85.239 -9.878 Q96.568 -14.6 96.568 -20.409 Q96.568 -22.067 95.273 -23.897 Q93.978 -25.727 91.568 -27.238 V-39.013 Q99.103 -35.33 103.061 -30.6 Q107.019 -25.869 107.019 -20.409 Q107.019 -9.591 93.42 -2.148 Q79.821 5.295 59.94 5.295 Z"/></g><g id="Regular-M" transform="matrix(1 0 0 1 1394.06 1126)"><path d="M34.25 -30.542 Q34.688 -32.355 35 -33.98 Q35.312 -35.605 35.312 -37.48 Q35.312 -41.292 33.438 -44.074 Q31.562 -46.855 29.188 -49.98 Q26.375 -53.73 24.719 -57.542 Q23.062 -61.355 23.062 -66.605 Q23.062 -68.417 23.25 -70.449 Q23.438 -72.48 23.875 -74.917 H33.312 Q32.812 -72.23 32.625 -70.355 Q32.438 -68.48 32.438 -66.98 Q32.438 -62.355 34.375 -59.261 Q36.312 -56.167 38.562 -53.105 Q40.812 -50.042 42.75 -46.48 Q44.688 -42.917 44.688 -37.23 Q44.688 -35.667 44.469 -34.011 Q44.25 -32.355 43.75 -30.542 H34.25 Z M54.25 -30.542 Q54.688 -32.355 55 -33.98 Q55.312 -35.605 55.312 -37.48 Q55.312 -41.292 53.438 -44.074 Q51.562 -46.855 49.188 -49.98 Q46.375 -53.73 44.719 -57.542 Q43.062 -61.355 43.062 -66.605 Q43.062 -68.417 43.25 -70.449 Q43.438 -72.48 43.875 -74.917 H53.312 Q52.812 -72.23 52.562 -70.386 Q52.312 -68.542 52.312 -66.98 Q52.312 -62.355 54.25 -59.261 Q56.188 -56.167 58.438 -53.105 Q60.688 -50.042 62.625 -46.48 Q64.562 -42.917 64.562 -37.23 Q64.562 -35.542 64.375 -33.886 Q64.188 -32.23 63.75 -30.542 H54.25 Z M74.25 -30.542 Q74.688 -32.355 75 -33.98 Q75.312 -35.605 75.312 -37.48 Q75.312 -41.292 73.438 -44.074 Q71.562 -46.855 69.188 -49.98 Q66.375 -53.73 64.719 -57.542 Q63.062 -61.355 63.062 -66.605 Q63.062 -68.417 63.25 -70.449 Q63.438 -72.48 63.875 -74.917 H73.312 Q72.812 -72.23 72.562 -70.386 Q72.312 -68.542 72.312 -66.98 Q72.312 -62.355 74.25 -59.261 Q76.188 -56.167 78.438 -53.105 Q80.688 -50.042 82.625 -46.48 Q84.562 -42.917 84.562 -37.23 Q84.562 -35.542 84.375 -33.886 Q84.188 -32.23 83.75 -30.542 H74.25 Z M60 4.458 Q41.438 4.458 28.375 -2.761 Q15.312 -9.98 15.312 -20.23 Q15.312 -25.48 19.031 -30.136 Q22.75 -34.792 29.688 -38.355 V-27.417 Q27.188 -25.667 25.938 -23.792 Q24.688 -21.917 24.688 -20.23 Q24.688 -14.48 35.688 -9.699 Q46.688 -4.917 60 -4.917 Q73.312 -4.917 84.312 -9.699 Q95.312 -14.48 95.312 -20.23 Q95.312 -21.917 94.062 -23.792 Q92.812 -25.667 90.312 -27.417 V-38.355 Q97.25 -34.792 100.969 -30.136 Q104.688 -25.48 104.688 -20.23 Q104.688 -9.98 91.656 -2.761 Q78.625 4.458 60 4.458 Z"/></g><g id="Light-M" transform="matrix(1 0 0 1 1098.18 1126)"><path d="M37.183 -30.302 Q37.5 -31.874 37.729 -33.199 Q37.957 -34.523 37.957 -36.038 Q37.957 -40.066 36.07 -42.944 Q34.183 -45.821 31.832 -48.898 Q28.707 -53.009 27.207 -56.737 Q25.707 -60.465 25.707 -65.163 Q25.707 -66.735 25.846 -68.477 Q25.986 -70.22 26.327 -72.297 H33.361 Q32.981 -70.138 32.841 -68.504 Q32.702 -66.869 32.702 -65.538 Q32.702 -60.768 34.627 -57.554 Q36.553 -54.34 38.827 -51.254 Q41.534 -47.59 43.243 -44.148 Q44.952 -40.706 44.952 -35.788 Q44.952 -34.489 44.793 -33.146 Q44.635 -31.802 44.231 -30.302 H37.183 Z M55.74 -30.302 Q56.058 -31.874 56.286 -33.199 Q56.514 -34.523 56.514 -36.038 Q56.514 -40.066 54.627 -42.944 Q52.74 -45.821 50.389 -48.898 Q47.264 -53.009 45.764 -56.737 Q44.264 -60.465 44.264 -65.163 Q44.264 -66.735 44.404 -68.477 Q44.543 -70.22 44.885 -72.297 H51.918 Q51.538 -70.138 51.337 -68.535 Q51.135 -66.932 51.135 -65.538 Q51.135 -60.768 53.06 -57.554 Q54.986 -54.34 57.26 -51.254 Q59.966 -47.59 61.675 -44.148 Q63.385 -40.706 63.385 -35.788 Q63.385 -34.389 63.257 -33.045 Q63.13 -31.701 62.788 -30.302 H55.74 Z M74.298 -30.302 Q74.615 -31.874 74.844 -33.199 Q75.072 -34.523 75.072 -36.038 Q75.072 -40.066 73.185 -42.944 Q71.298 -45.821 68.947 -48.898 Q65.822 -53.009 64.322 -56.737 Q62.822 -60.465 62.822 -65.163 Q62.822 -66.735 62.962 -68.477 Q63.101 -70.22 63.442 -72.297 H70.476 Q70.096 -70.138 69.894 -68.535 Q69.692 -66.932 69.692 -65.538 Q69.692 -60.768 71.618 -57.554 Q73.543 -54.34 75.817 -51.254 Q78.524 -47.59 80.233 -44.148 Q81.942 -40.706 81.942 -35.788 Q81.942 -34.389 81.815 -33.045 Q81.687 -31.701 81.346 -30.302 H74.298 Z M60 1.813 Q42.495 1.813 30.226 -4.769 Q17.957 -11.35 17.957 -20.759 Q17.957 -25.119 21.051 -29.126 Q24.144 -33.134 29.952 -36.287 V-28.211 Q27.452 -26.437 26.202 -24.514 Q24.952 -22.591 24.952 -20.807 Q24.952 -14.744 35.688 -9.963 Q46.423 -5.182 60 -5.182 Q73.577 -5.182 84.325 -9.963 Q95.072 -14.744 95.072 -20.807 Q95.072 -22.591 93.81 -24.514 Q92.548 -26.437 90.072 -28.211 V-36.287 Q95.856 -33.134 98.961 -29.126 Q102.067 -25.119 102.067 -20.759 Q102.067 -11.35 89.805 -4.769 Q77.543 1.813 60 1.813 Z"/></g><g id="Thin-M" transform="matrix(1 0 0 1 802.565 1126)"><path d="M40.115 -30.062 Q40.312 -31.393 40.457 -32.417 Q40.601 -33.441 40.601 -34.595 Q40.601 -38.841 38.702 -41.814 Q36.803 -44.788 34.476 -47.816 Q31.038 -52.288 29.695 -55.932 Q28.351 -59.576 28.351 -63.72 Q28.351 -65.052 28.442 -66.506 Q28.534 -67.961 28.779 -69.677 H33.409 Q33.149 -68.047 33.058 -66.653 Q32.966 -65.259 32.966 -64.095 Q32.966 -59.182 34.88 -55.848 Q36.793 -52.514 39.091 -49.403 Q42.255 -45.139 43.736 -41.817 Q45.216 -38.494 45.216 -34.345 Q45.216 -33.312 45.118 -32.28 Q45.019 -31.249 44.712 -30.062 H40.115 Z M57.231 -30.062 Q57.428 -31.393 57.572 -32.417 Q57.716 -33.441 57.716 -34.595 Q57.716 -38.841 55.817 -41.814 Q53.918 -44.788 51.591 -47.816 Q48.154 -52.288 46.81 -55.932 Q45.466 -59.576 45.466 -63.72 Q45.466 -65.052 45.558 -66.506 Q45.649 -67.961 45.894 -69.677 H50.524 Q50.264 -68.047 50.111 -66.684 Q49.957 -65.321 49.957 -64.095 Q49.957 -59.182 51.87 -55.848 Q53.784 -52.514 56.082 -49.403 Q59.245 -45.139 60.726 -41.817 Q62.207 -38.494 62.207 -34.345 Q62.207 -33.235 62.139 -32.204 Q62.072 -31.172 61.827 -30.062 H57.231 Z M74.346 -30.062 Q74.543 -31.393 74.688 -32.417 Q74.832 -33.441 74.832 -34.595 Q74.832 -38.841 72.933 -41.814 Q71.034 -44.788 68.707 -47.816 Q65.269 -52.288 63.925 -55.932 Q62.582 -59.576 62.582 -63.72 Q62.582 -65.052 62.673 -66.506 Q62.764 -67.961 63.01 -69.677 H67.639 Q67.38 -68.047 67.226 -66.684 Q67.072 -65.321 67.072 -64.095 Q67.072 -59.182 68.986 -55.848 Q70.899 -52.514 73.197 -49.403 Q76.361 -45.139 77.841 -41.817 Q79.322 -38.494 79.322 -34.345 Q79.322 -33.235 79.255 -32.204 Q79.188 -31.172 78.942 -30.062 H74.346 Z M60 -0.831 Q43.553 -0.831 32.077 -6.776 Q20.601 -12.72 20.601 -21.288 Q20.601 -24.759 23.07 -28.117 Q25.538 -31.475 30.216 -34.22 V-29.004 Q27.716 -27.206 26.466 -25.235 Q25.216 -23.264 25.216 -21.384 Q25.216 -15.009 35.688 -10.228 Q46.159 -5.446 60 -5.446 Q73.841 -5.446 84.337 -10.228 Q94.832 -15.009 94.832 -21.384 Q94.832 -23.264 93.558 -25.235 Q92.284 -27.206 89.832 -29.004 V-34.22 Q94.462 -31.475 96.954 -28.117 Q99.447 -24.759 99.447 -21.288 Q99.447 -12.72 87.954 -6.776 Q76.462 -0.831 60 -0.831 Z"/></g><g id="Ultralight-M" transform="matrix(1 0 0 1 506.415 1126)"><path d="M41.875 -29.917 Q42 -31.105 42.094 -31.949 Q42.188 -32.792 42.188 -33.73 Q42.188 -38.105 40.281 -41.136 Q38.375 -44.167 36.062 -47.167 Q32.438 -51.855 31.188 -55.449 Q29.938 -59.042 29.938 -62.855 Q29.938 -64.042 30 -65.324 Q30.062 -66.605 30.25 -68.105 H33.438 Q33.25 -66.792 33.188 -65.542 Q33.125 -64.292 33.125 -63.23 Q33.125 -58.23 35.031 -54.824 Q36.938 -51.417 39.25 -48.292 Q42.688 -43.667 44.031 -40.417 Q45.375 -37.167 45.375 -33.48 Q45.375 -32.605 45.312 -31.761 Q45.25 -30.917 45 -29.917 H41.875 Z M58.125 -29.917 Q58.25 -31.105 58.344 -31.949 Q58.438 -32.792 58.438 -33.73 Q58.438 -38.105 56.531 -41.136 Q54.625 -44.167 52.312 -47.167 Q48.688 -51.855 47.438 -55.449 Q46.188 -59.042 46.188 -62.855 Q46.188 -64.042 46.25 -65.324 Q46.312 -66.605 46.5 -68.105 H49.688 Q49.5 -66.792 49.375 -65.574 Q49.25 -64.355 49.25 -63.23 Q49.25 -58.23 51.156 -54.824 Q53.062 -51.417 55.375 -48.292 Q58.812 -43.667 60.156 -40.417 Q61.5 -37.167 61.5 -33.48 Q61.5 -32.542 61.469 -31.699 Q61.438 -30.855 61.25 -29.917 H58.125 Z M74.375 -29.917 Q74.5 -31.105 74.594 -31.949 Q74.688 -32.792 74.688 -33.73 Q74.688 -38.105 72.781 -41.136 Q70.875 -44.167 68.562 -47.167 Q64.938 -51.855 63.688 -55.449 Q62.438 -59.042 62.438 -62.855 Q62.438 -64.042 62.5 -65.324 Q62.562 -66.605 62.75 -68.105 H65.938 Q65.75 -66.792 65.625 -65.574 Q65.5 -64.355 65.5 -63.23 Q65.5 -58.23 67.406 -54.824 Q69.312 -51.417 71.625 -48.292 Q75.062 -43.667 76.406 -40.417 Q77.75 -37.167 77.75 -33.48 Q77.75 -32.542 77.719 -31.699 Q77.688 -30.855 77.5 -29.917 H74.375 Z M60 -2.417 Q44.188 -2.417 33.188 -7.98 Q22.188 -13.542 22.188 -21.605 Q22.188 -24.542 24.281 -27.511 Q26.375 -30.48 30.375 -32.98 V-29.48 Q27.875 -27.667 26.625 -25.667 Q25.375 -23.667 25.375 -21.73 Q25.375 -15.167 35.688 -10.386 Q46 -5.605 60 -5.605 Q74 -5.605 84.344 -10.386 Q94.688 -15.167 94.688 -21.73 Q94.688 -23.667 93.406 -25.667 Q92.125 -27.667 89.688 -29.48 V-32.98 Q93.625 -30.48 95.75 -27.511 Q97.875 -24.542 97.875 -21.605 Q97.875 -13.542 86.844 -7.98 Q75.812 -2.417 60 -2.417 Z"/></g><g id="Bold-S" transform="matrix(1 0 0 1 2294.23 696)"><path d="M26.333 -28.967 Q26.974 -31.384 27.418 -32.9 Q27.862 -34.416 27.862 -35.92 Q27.862 -38.238 26.382 -40.285 Q24.903 -42.331 23.226 -44.698 Q20.514 -48.446 19.602 -51.552 Q18.689 -54.659 18.689 -57.515 Q18.689 -59.64 19.035 -61.44 Q19.38 -63.239 19.626 -65.163 H29.933 Q29.538 -63.634 29.193 -61.76 Q28.848 -59.886 28.848 -57.859 Q28.848 -54.728 30.285 -52.517 Q31.723 -50.307 33.392 -47.872 Q35.85 -44.353 36.935 -41.58 Q38.02 -38.807 38.02 -35.679 Q38.02 -34.263 37.798 -32.725 Q37.576 -31.186 36.918 -28.967 H26.333 Z M42.507 -28.967 Q43.148 -31.384 43.543 -32.9 Q43.937 -34.416 43.937 -35.92 Q43.937 -38.238 42.507 -40.285 Q41.077 -42.331 39.401 -44.698 Q36.689 -48.446 35.727 -51.552 Q34.765 -54.659 34.765 -57.515 Q34.765 -59.64 35.111 -61.44 Q35.456 -63.239 35.702 -65.163 H46.009 Q45.515 -63.437 45.22 -61.588 Q44.924 -59.74 44.924 -57.86 Q44.924 -54.729 46.368 -52.518 Q47.812 -50.307 49.475 -47.872 Q51.926 -44.353 53.011 -41.58 Q54.096 -38.807 54.096 -35.679 Q54.096 -33.869 53.849 -32.38 Q53.603 -30.89 53.092 -28.967 H42.507 Z M58.485 -28.967 Q59.126 -31.384 59.57 -32.9 Q60.013 -34.416 60.013 -35.92 Q60.013 -38.238 58.534 -40.285 Q57.055 -42.331 55.378 -44.698 Q52.666 -48.446 51.753 -51.552 Q50.841 -54.659 50.841 -57.515 Q50.841 -59.64 51.186 -61.44 Q51.532 -63.239 51.778 -65.163 H62.084 Q61.591 -63.437 61.295 -61.588 Q61 -59.74 61 -57.86 Q61 -54.729 62.444 -52.518 Q63.888 -50.307 65.55 -47.872 Q68.002 -44.353 69.087 -41.587 Q70.172 -38.821 70.172 -35.705 Q70.172 -33.899 69.876 -32.395 Q69.58 -30.89 69.07 -28.967 H58.485 Z M47.143 -4.311 Q29.44 -4.311 18.098 -10.169 Q6.756 -16.028 6.756 -25.17 Q6.756 -29.214 9.838 -32.542 Q12.92 -35.871 19.281 -38.78 V-27.981 Q18.394 -27.685 17.654 -26.83 Q16.914 -25.976 16.914 -25.17 Q16.914 -20.781 25.942 -17.625 Q34.971 -14.469 47.147 -14.469 Q59.224 -14.469 68.495 -17.675 Q77.766 -20.88 77.766 -25.17 Q77.766 -25.976 77.026 -26.83 Q76.286 -27.685 75.399 -27.981 V-38.78 Q81.76 -35.97 84.842 -32.592 Q87.924 -29.214 87.924 -25.17 Q87.924 -16.028 76.459 -10.169 Q64.994 -4.311 47.143 -4.311 Z"/></g><g id="Semibold-S" transform="matrix(1 0 0 1 1998.1 696)"><path d="M28.005 -29.739 Q28.475 -31.684 28.876 -33.071 Q29.277 -34.459 29.277 -35.92 Q29.277 -38.41 27.797 -40.477 Q26.318 -42.545 24.641 -44.87 Q22.229 -48.188 21.167 -51.209 Q20.104 -54.23 20.104 -57.515 Q20.104 -59.297 20.385 -60.946 Q20.666 -62.596 20.913 -64.391 H29.633 Q29.281 -62.862 29 -61.181 Q28.719 -59.5 28.719 -57.859 Q28.719 -54.557 30.157 -52.282 Q31.594 -50.006 33.263 -47.615 Q35.379 -44.61 36.635 -41.923 Q37.891 -39.236 37.891 -35.679 Q37.891 -34.392 37.691 -33.004 Q37.49 -31.615 36.961 -29.739 H28.005 Z M43.322 -29.739 Q43.792 -31.684 44.143 -33.071 Q44.495 -34.459 44.495 -35.92 Q44.495 -38.41 43.065 -40.477 Q41.635 -42.545 39.958 -44.87 Q37.546 -48.188 36.434 -51.209 Q35.323 -54.23 35.323 -57.515 Q35.323 -59.297 35.604 -60.946 Q35.885 -62.596 36.131 -64.391 H44.851 Q44.443 -62.751 44.191 -61.095 Q43.938 -59.44 43.938 -57.86 Q43.938 -54.558 45.382 -52.282 Q46.826 -50.007 48.488 -47.615 Q50.597 -44.61 51.853 -41.923 Q53.11 -39.236 53.11 -35.679 Q53.11 -34.126 52.906 -32.766 Q52.702 -31.405 52.278 -29.739 H43.322 Z M58.442 -29.739 Q58.911 -31.684 59.312 -33.071 Q59.713 -34.459 59.713 -35.92 Q59.713 -38.41 58.234 -40.477 Q56.754 -42.545 55.078 -44.87 Q52.666 -48.188 51.603 -51.209 Q50.541 -54.23 50.541 -57.515 Q50.541 -59.297 50.822 -60.946 Q51.103 -62.596 51.349 -64.391 H60.069 Q59.662 -62.751 59.409 -61.095 Q59.156 -59.44 59.156 -57.86 Q59.156 -54.558 60.6 -52.282 Q62.044 -50.007 63.707 -47.615 Q65.815 -44.61 67.072 -41.93 Q68.328 -39.25 68.328 -35.705 Q68.328 -34.156 68.075 -32.78 Q67.822 -31.405 67.397 -29.739 H58.442 Z M47.229 -5.512 Q31.24 -5.512 20.67 -11.048 Q10.1 -16.585 10.1 -24.913 Q10.1 -28.656 12.839 -31.878 Q15.578 -35.099 21.082 -37.837 V-28.238 Q20.066 -27.599 19.39 -26.68 Q18.715 -25.761 18.715 -24.913 Q18.715 -20.653 27.379 -17.39 Q36.043 -14.126 47.233 -14.126 Q58.367 -14.126 67.166 -17.417 Q75.965 -20.709 75.965 -24.913 Q75.965 -25.761 75.29 -26.68 Q74.614 -27.599 73.598 -28.238 V-37.837 Q79.102 -35.198 81.841 -31.927 Q84.58 -28.656 84.58 -24.913 Q84.58 -16.585 73.929 -11.048 Q63.279 -5.512 47.229 -5.512 Z"/></g><g id="Medium-S" transform="matrix(1 0 0 1 1701.85 696)"><path d="M29.259 -30.318 Q29.6 -31.909 29.969 -33.2 Q30.338 -34.491 30.338 -35.92 Q30.338 -38.538 28.859 -40.622 Q27.379 -42.706 25.703 -44.998 Q23.516 -47.996 22.341 -50.952 Q21.166 -53.909 21.166 -57.515 Q21.166 -59.039 21.398 -60.577 Q21.631 -62.114 21.878 -63.812 H29.407 Q29.088 -62.283 28.855 -60.747 Q28.623 -59.211 28.623 -57.859 Q28.623 -54.428 30.06 -52.105 Q31.498 -49.781 33.167 -47.422 Q35.025 -44.803 36.41 -42.18 Q37.795 -39.557 37.795 -35.679 Q37.795 -34.488 37.61 -33.213 Q37.426 -31.937 36.993 -30.318 H29.259 Z M43.933 -30.318 Q44.274 -31.909 44.593 -33.2 Q44.913 -34.491 44.913 -35.92 Q44.913 -38.538 43.483 -40.622 Q42.053 -42.706 40.376 -44.998 Q38.189 -47.996 36.965 -50.952 Q35.741 -53.909 35.741 -57.515 Q35.741 -59.039 35.973 -60.577 Q36.206 -62.114 36.453 -63.812 H43.983 Q43.639 -62.236 43.419 -60.725 Q43.198 -59.215 43.198 -57.86 Q43.198 -54.429 44.642 -52.106 Q46.086 -49.782 47.749 -47.422 Q49.6 -44.803 50.985 -42.18 Q52.37 -39.557 52.37 -35.679 Q52.37 -34.319 52.198 -33.055 Q52.027 -31.791 51.667 -30.318 H43.933 Z M58.41 -30.318 Q58.751 -31.909 59.119 -33.2 Q59.488 -34.491 59.488 -35.92 Q59.488 -38.538 58.009 -40.622 Q56.529 -42.706 54.853 -44.998 Q52.666 -47.996 51.491 -50.952 Q50.316 -53.909 50.316 -57.515 Q50.316 -59.039 50.549 -60.577 Q50.781 -62.114 51.028 -63.812 H58.558 Q58.214 -62.236 57.994 -60.725 Q57.773 -59.215 57.773 -57.86 Q57.773 -54.429 59.217 -52.106 Q60.661 -49.782 62.324 -47.422 Q64.175 -44.803 65.56 -42.188 Q66.945 -39.572 66.945 -35.705 Q66.945 -34.349 66.724 -33.07 Q66.503 -31.791 66.143 -30.318 H58.41 Z M47.293 -6.412 Q32.591 -6.412 22.6 -11.708 Q12.609 -17.003 12.609 -24.72 Q12.609 -28.238 15.091 -31.379 Q17.572 -34.52 22.433 -37.13 V-28.431 Q21.32 -27.535 20.693 -26.568 Q20.066 -25.6 20.066 -24.72 Q20.066 -20.556 28.456 -17.213 Q36.847 -13.869 47.297 -13.869 Q57.724 -13.869 66.169 -17.225 Q74.614 -20.58 74.614 -24.72 Q74.614 -25.6 73.987 -26.568 Q73.36 -27.535 72.247 -28.431 V-37.13 Q77.108 -34.619 79.589 -31.429 Q82.071 -28.238 82.071 -24.72 Q82.071 -17.003 72.032 -11.708 Q61.992 -6.412 47.293 -6.412 Z"/></g><g id="Regular-S" transform="matrix(1 0 0 1 1405.73 696)"><path d="M30.179 -30.743 Q30.426 -32.074 30.771 -33.294 Q31.116 -34.514 31.116 -35.92 Q31.116 -38.633 29.637 -40.728 Q28.157 -42.824 26.481 -45.092 Q24.459 -47.854 23.202 -50.763 Q21.944 -53.673 21.944 -57.515 Q21.944 -58.851 22.141 -60.305 Q22.339 -61.76 22.585 -63.387 H29.242 Q28.946 -61.859 28.749 -60.429 Q28.552 -58.999 28.552 -57.859 Q28.552 -54.334 29.989 -51.975 Q31.427 -49.616 33.096 -47.28 Q34.765 -44.945 36.245 -42.369 Q37.724 -39.793 37.724 -35.679 Q37.724 -34.559 37.551 -33.366 Q37.379 -32.173 37.017 -30.743 H30.179 Z M44.381 -30.743 Q44.628 -32.074 44.924 -33.294 Q45.22 -34.514 45.22 -35.92 Q45.22 -38.633 43.79 -40.728 Q42.359 -42.824 40.683 -45.092 Q38.661 -47.854 37.354 -50.763 Q36.047 -53.673 36.047 -57.515 Q36.047 -58.851 36.245 -60.305 Q36.442 -61.76 36.689 -63.387 H43.346 Q43.05 -61.859 42.853 -60.454 Q42.655 -59.05 42.655 -57.86 Q42.655 -54.335 44.099 -51.976 Q45.544 -49.617 47.206 -47.281 Q48.869 -44.945 50.348 -42.369 Q51.827 -39.793 51.827 -35.679 Q51.827 -34.461 51.68 -33.267 Q51.532 -32.074 51.219 -30.743 H44.381 Z M58.386 -30.743 Q58.633 -32.074 58.978 -33.294 Q59.323 -34.514 59.323 -35.92 Q59.323 -38.633 57.844 -40.728 Q56.364 -42.824 54.688 -45.092 Q52.666 -47.854 51.408 -50.763 Q50.151 -53.673 50.151 -57.515 Q50.151 -58.851 50.348 -60.305 Q50.545 -61.76 50.792 -63.387 H57.449 Q57.153 -61.859 56.956 -60.454 Q56.759 -59.05 56.759 -57.86 Q56.759 -54.335 58.203 -51.976 Q59.647 -49.617 61.31 -47.281 Q62.972 -44.945 64.451 -42.376 Q65.931 -39.808 65.931 -35.705 Q65.931 -34.49 65.734 -33.282 Q65.536 -32.074 65.223 -30.743 H58.386 Z M47.34 -7.073 Q33.582 -7.073 24.015 -12.191 Q14.449 -17.31 14.449 -24.578 Q14.449 -27.932 16.742 -31.014 Q19.035 -34.096 23.423 -36.611 V-28.573 Q22.24 -27.488 21.648 -26.485 Q21.056 -25.483 21.056 -24.578 Q21.056 -20.486 29.246 -17.083 Q37.436 -13.68 47.344 -13.68 Q57.252 -13.68 65.438 -17.083 Q73.624 -20.486 73.624 -24.578 Q73.624 -25.483 73.032 -26.485 Q72.44 -27.488 71.257 -28.573 V-36.611 Q75.645 -34.194 77.938 -31.063 Q80.231 -27.932 80.231 -24.578 Q80.231 -17.31 70.64 -12.191 Q61.049 -7.073 47.34 -7.073 Z"/></g><g id="Light-S" transform="matrix(1 0 0 1 1109.75 696)"><path d="M32.493 -30.553 Q32.645 -31.695 32.924 -32.678 Q33.203 -33.661 33.203 -34.782 Q33.203 -37.665 31.714 -39.837 Q30.225 -42.008 28.567 -44.239 Q26.299 -47.285 25.165 -50.128 Q24.03 -52.971 24.03 -56.376 Q24.03 -57.523 24.19 -58.75 Q24.349 -59.977 24.52 -61.32 H29.28 Q29.079 -60.209 28.92 -58.968 Q28.761 -57.728 28.761 -56.721 Q28.761 -53.082 30.189 -50.628 Q31.616 -48.175 33.305 -45.82 Q35.334 -43.01 36.634 -40.529 Q37.933 -38.048 37.933 -34.541 Q37.933 -33.63 37.807 -32.683 Q37.682 -31.736 37.396 -30.553 H32.493 Z M45.557 -30.553 Q45.709 -31.695 45.938 -32.678 Q46.168 -33.661 46.168 -34.782 Q46.168 -37.665 44.728 -39.837 Q43.289 -42.008 41.631 -44.239 Q39.363 -47.285 38.179 -50.128 Q36.996 -52.971 36.996 -56.376 Q36.996 -57.523 37.155 -58.75 Q37.314 -59.977 37.485 -61.32 H42.246 Q42.045 -60.209 41.885 -58.994 Q41.726 -57.779 41.726 -56.722 Q41.726 -53.083 43.161 -50.629 Q44.595 -48.175 46.277 -45.82 Q48.3 -43.01 49.599 -40.529 Q50.898 -38.048 50.898 -34.541 Q50.898 -33.55 50.797 -32.603 Q50.697 -31.657 50.46 -30.553 H45.557 Z M58.424 -30.553 Q58.576 -31.695 58.854 -32.678 Q59.133 -33.661 59.133 -34.782 Q59.133 -37.665 57.644 -39.837 Q56.155 -42.008 54.498 -44.239 Q52.23 -47.285 51.095 -50.128 Q49.961 -52.971 49.961 -56.376 Q49.961 -57.523 50.12 -58.75 Q50.28 -59.977 50.45 -61.32 H55.211 Q55.01 -60.209 54.85 -58.994 Q54.691 -57.779 54.691 -56.722 Q54.691 -53.083 56.126 -50.629 Q57.561 -48.175 59.242 -45.82 Q61.265 -43.01 62.564 -40.536 Q63.863 -38.063 63.863 -34.567 Q63.863 -33.58 63.714 -32.618 Q63.564 -31.657 63.326 -30.553 H58.424 Z M47.34 -9.159 Q34.416 -9.159 25.476 -13.775 Q16.535 -18.391 16.535 -24.996 Q16.535 -27.647 18.335 -30.217 Q20.135 -32.787 23.632 -34.979 V-29.199 Q22.449 -28.095 21.857 -27.054 Q21.265 -26.014 21.265 -25.034 Q21.265 -20.694 29.246 -17.292 Q37.228 -13.889 47.344 -13.889 Q57.461 -13.889 65.447 -17.292 Q73.434 -20.694 73.434 -25.034 Q73.434 -26.014 72.833 -27.054 Q72.231 -28.095 71.067 -29.199 V-34.979 Q74.545 -32.886 76.355 -30.266 Q78.164 -27.647 78.164 -24.996 Q78.164 -18.391 69.18 -13.775 Q60.195 -9.159 47.34 -9.159 Z"/></g><g id="Thin-S" transform="matrix(1 0 0 1 814.015 696)"><path d="M34.807 -30.363 Q34.864 -31.315 35.076 -32.061 Q35.289 -32.807 35.289 -33.644 Q35.289 -36.698 33.79 -38.945 Q32.292 -41.193 30.653 -43.385 Q28.138 -46.716 27.127 -49.493 Q26.117 -52.269 26.117 -55.239 Q26.117 -56.195 26.238 -57.195 Q26.359 -58.194 26.454 -59.253 H29.318 Q29.212 -58.559 29.091 -57.508 Q28.969 -56.457 28.969 -55.583 Q28.969 -51.83 30.388 -49.282 Q31.806 -46.733 33.513 -44.36 Q35.903 -41.075 37.022 -38.689 Q38.141 -36.303 38.141 -33.403 Q38.141 -32.701 38.064 -32 Q37.986 -31.3 37.775 -30.363 H34.807 Z M46.733 -30.363 Q46.79 -31.315 46.953 -32.061 Q47.116 -32.807 47.116 -33.644 Q47.116 -36.698 45.667 -38.945 Q44.218 -41.193 42.579 -43.385 Q40.065 -46.716 39.004 -49.493 Q37.944 -52.269 37.944 -55.239 Q37.944 -56.195 38.065 -57.195 Q38.187 -58.194 38.282 -59.253 H41.146 Q41.039 -58.559 40.918 -57.533 Q40.797 -56.508 40.797 -55.584 Q40.797 -51.831 42.222 -49.283 Q43.647 -46.734 45.347 -44.36 Q47.731 -41.075 48.85 -38.689 Q49.969 -36.303 49.969 -33.403 Q49.969 -32.64 49.916 -31.94 Q49.863 -31.24 49.701 -30.363 H46.733 Z M58.462 -30.363 Q58.519 -31.315 58.731 -32.061 Q58.944 -32.807 58.944 -33.644 Q58.944 -36.698 57.445 -38.945 Q55.947 -41.193 54.308 -43.385 Q51.793 -46.716 50.782 -49.493 Q49.772 -52.269 49.772 -55.239 Q49.772 -56.195 49.893 -57.195 Q50.014 -58.194 50.109 -59.253 H52.973 Q52.867 -58.559 52.745 -57.533 Q52.624 -56.508 52.624 -55.584 Q52.624 -51.831 54.049 -49.283 Q55.474 -46.734 57.175 -44.36 Q59.558 -41.075 60.677 -38.697 Q61.796 -36.318 61.796 -33.429 Q61.796 -32.67 61.694 -31.955 Q61.591 -31.24 61.43 -30.363 H58.462 Z M47.34 -11.245 Q35.251 -11.245 26.936 -15.359 Q18.621 -19.472 18.621 -25.413 Q18.621 -27.363 19.928 -29.421 Q21.235 -31.479 23.841 -33.349 V-29.825 Q22.657 -28.702 22.065 -27.623 Q21.474 -26.545 21.474 -25.489 Q21.474 -20.903 29.246 -17.5 Q37.019 -14.098 47.344 -14.098 Q57.669 -14.098 65.457 -17.5 Q73.244 -20.903 73.244 -25.489 Q73.244 -26.545 72.634 -27.623 Q72.023 -28.702 70.877 -29.825 V-33.349 Q73.445 -31.577 74.771 -29.47 Q76.097 -27.363 76.097 -25.413 Q76.097 -19.472 67.719 -15.359 Q59.342 -11.245 47.34 -11.245 Z"/></g><g id="Ultralight-S" transform="matrix(1 0 0 1 517.792 696)"><path d="M36.195 -30.249 Q36.195 -31.088 36.368 -31.692 Q36.541 -32.295 36.541 -32.962 Q36.541 -36.118 35.037 -38.411 Q33.532 -40.704 31.905 -42.873 Q29.242 -46.375 28.305 -49.111 Q27.368 -51.848 27.368 -54.556 Q27.368 -55.399 27.467 -56.262 Q27.566 -57.125 27.615 -58.012 H29.341 Q29.292 -57.569 29.193 -56.632 Q29.094 -55.695 29.094 -54.9 Q29.094 -51.079 30.507 -48.474 Q31.92 -45.868 33.639 -43.483 Q36.245 -39.915 37.256 -37.586 Q38.267 -35.256 38.267 -32.72 Q38.267 -32.143 38.217 -31.591 Q38.168 -31.038 38.003 -30.249 H36.195 Z M47.439 -30.249 Q47.439 -31.088 47.562 -31.692 Q47.685 -32.295 47.685 -32.962 Q47.685 -36.118 46.23 -38.411 Q44.776 -40.704 43.148 -42.873 Q40.486 -46.375 39.499 -49.111 Q38.513 -51.848 38.513 -54.556 Q38.513 -55.399 38.612 -56.262 Q38.71 -57.125 38.76 -58.012 H40.486 Q40.436 -57.569 40.338 -56.657 Q40.239 -55.746 40.239 -54.902 Q40.239 -51.08 41.659 -48.475 Q43.078 -45.869 44.79 -43.484 Q47.389 -39.915 48.4 -37.586 Q49.411 -35.256 49.411 -32.72 Q49.411 -32.094 49.386 -31.541 Q49.362 -30.989 49.246 -30.249 H47.439 Z M58.485 -30.249 Q58.485 -31.088 58.657 -31.692 Q58.83 -32.295 58.83 -32.962 Q58.83 -36.118 57.326 -38.411 Q55.822 -40.704 54.194 -42.873 Q51.532 -46.375 50.595 -49.111 Q49.658 -51.848 49.658 -54.556 Q49.658 -55.399 49.756 -56.262 Q49.855 -57.125 49.904 -58.012 H51.63 Q51.581 -57.569 51.482 -56.657 Q51.384 -55.746 51.384 -54.902 Q51.384 -51.08 52.803 -48.475 Q54.223 -45.869 55.934 -43.484 Q58.534 -39.915 59.545 -37.593 Q60.556 -35.271 60.556 -32.746 Q60.556 -32.123 60.482 -31.556 Q60.408 -30.989 60.292 -30.249 H58.485 Z M47.34 -12.497 Q35.752 -12.497 27.812 -16.309 Q19.873 -20.121 19.873 -25.663 Q19.873 -27.192 20.884 -28.943 Q21.895 -30.693 23.966 -32.37 V-30.2 Q22.782 -29.066 22.191 -27.965 Q21.599 -26.863 21.599 -25.762 Q21.599 -21.028 29.246 -17.625 Q36.894 -14.223 47.344 -14.223 Q57.794 -14.223 65.462 -17.625 Q73.13 -21.028 73.13 -25.762 Q73.13 -26.863 72.514 -27.965 Q71.898 -29.066 70.763 -30.2 V-32.37 Q72.785 -30.792 73.821 -28.992 Q74.856 -27.192 74.856 -25.663 Q74.856 -20.121 66.843 -16.309 Q58.83 -12.497 47.34 -12.497 Z"/></g></g></svg>