<svg xmlns="http://www.w3.org/2000/svg" height="24" viewBox="0 -960 960 960" width="24"><path d="M483-317.5Zm-280.5 75V-316q0-25 16-44.25T257-391.5q49-26 102.75-37.75t108.75-7.25q-2 9.744-3 19t-1 19q0 9.5.75 18.75T468-361.5q-49-4.5-97 5.75T280.5-320v2.5H483q11 22.5 26.053 41.25T544.5-242.5h-342Zm237.5-240q-49.5 0-83.5-34t-34-83.738q0-48.762 34-83.012t83.738-34.25q48.762 0 83.012 34.271T557.5-600q0 49.5-34.271 83.5T440-482.5Zm0-75q17.5 0 30-12.219T482.5-600q0-17.5-12.5-30t-30.25-12.5q-17.75 0-30 12.5t-12.25 30.25q0 17.75 12.219 30T440-557.5Zm0-42.5Zm197.5 357.5V-303q-42-7.5-70-39.409t-28-76.091H579q0 32.5 22.75 55.5T657-340q32.5 0 55.25-23.059Q735-386.119 735-418.5h39.5q0 44-28 76t-70 39.5v60.5h-39Zm19.556-137q-20.556 0-34.806-14.065Q608-407.63 608-428v-78.462q0-20.596 14.194-34.817 14.193-14.221 34.75-14.221 20.556 0 34.806 14.212Q706-527.076 706-506.493v78.41q0 20.583-14.194 34.583-14.193 14-34.75 14ZM90-90v-232h75v157h157v75H90Zm0-548v-232h232v75H165v157H90ZM638-90v-75h157v-157h75v232H638Zm157-548v-157H638v-75h232v232h-75Z"/></svg>