<svg xmlns="http://www.w3.org/2000/svg" version="1.1" width="3300" height="2000"><g id="Notes"><style>
    text {
      font-family: monospace;
      text-anchor: middle;
    }
    text.emphasis {
      font-weight:bold;
    }
    text.lanchor {
      text-anchor: start;
    }
  </style><rect height="2200" id="artboard" fill="white" width="3300" x="0" y="0"/><line id="" style="fill:none;stroke:black;stroke-width:0.5;" x1="263" x2="3036" y1="292" y2="292"/><text class="lanchor emphasis" transform="matrix(1 0 0 1 263 322)">Weight/Scale Variations</text><text transform="matrix(1 0 0 1 559.711 322)">Ultralight</text><text transform="matrix(1 0 0 1 856.422 322)">Thin</text><text transform="matrix(1 0 0 1 1153.13 322)">Light</text><text transform="matrix(1 0 0 1 1449.84 322)">Regular</text><text transform="matrix(1 0 0 1 1746.56 322)">Medium</text><text transform="matrix(1 0 0 1 2043.27 322)">Semibold</text><text transform="matrix(1 0 0 1 2339.98 322)">Bold</text><text transform="matrix(1 0 0 1 2636.69 322)">Heavy</text><text transform="matrix(1 0 0 1 2933.4 322)">Black</text><text id="template-version" style="text-anchor: end;" transform="matrix(1 0 0 1 3036 1933)">Template v.1.0</text><text class="lanchor" transform="matrix(1 0 0 1 263 726)">Small</text><text class="lanchor" transform="matrix(1 0 0 1 263 1156)">Medium</text><text class="lanchor" transform="matrix(1 0 0 1 263 1586)">Large</text></g><g id="Guides"><g id="H-reference" style="fill:#27AAE1;stroke:none;" transform="matrix(1 0 0 1 339 696)"><path d="M 54.9316 0 L 57.666 0 L 30.5664 -70.459 L 28.0762 -70.459 L 0.976562 0 L 3.66211 0 L 12.9395 -24.4629 L 45.7031 -24.4629 Z M 29.1992 -67.0898 L 29.4434 -67.0898 L 44.8242 -26.709 L 13.8184 -26.709 Z"/></g><line id="Baseline-S" style="fill:none;stroke:#27AAE1;opacity:1;stroke-width:0.577;" x1="263" x2="3036" y1="696" y2="696"/><line id="Capline-S" style="fill:none;stroke:#27AAE1;opacity:1;stroke-width:0.577;" x1="263" x2="3036" y1="625.541" y2="625.541"/><g id="H-reference" style="fill:#27AAE1;stroke:none;" transform="matrix(1 0 0 1 339 1126)"><path d="M 54.9316 0 L 57.666 0 L 30.5664 -70.459 L 28.0762 -70.459 L 0.976562 0 L 3.66211 0 L 12.9395 -24.4629 L 45.7031 -24.4629 Z M 29.1992 -67.0898 L 29.4434 -67.0898 L 44.8242 -26.709 L 13.8184 -26.709 Z"/></g><line id="Baseline-M" style="fill:none;stroke:#27AAE1;opacity:1;stroke-width:0.577;" x1="263" x2="3036" y1="1126" y2="1126"/><line id="Capline-M" style="fill:none;stroke:#27AAE1;opacity:1;stroke-width:0.577;" x1="263" x2="3036" y1="1055.54" y2="1055.54"/><g id="H-reference" style="fill:#27AAE1;stroke:none;" transform="matrix(1 0 0 1 339 1556)"><path d="M 54.9316 0 L 57.666 0 L 30.5664 -70.459 L 28.0762 -70.459 L 0.976562 0 L 3.66211 0 L 12.9395 -24.4629 L 45.7031 -24.4629 Z M 29.1992 -67.0898 L 29.4434 -67.0898 L 44.8242 -26.709 L 13.8184 -26.709 Z"/></g><line id="Baseline-L" style="fill:none;stroke:#27AAE1;opacity:1;stroke-width:0.577;" x1="263" x2="3036" y1="1556" y2="1556"/><line id="Capline-L" style="fill:none;stroke:#27AAE1;opacity:1;stroke-width:0.577;" x1="263" x2="3036" y1="1485.54" y2="1485.54"/><rect height="119.336" id="left-margin" style="fill:darkred;stroke:none;opacity:0.4;" width="12.4512" x="1394.06" y="1030.79"/><rect height="119.336" id="right-margin" style="fill:darkgreen;stroke:none;opacity:0.4;" width="12.4512" x="1502.5112" y="1030.79"/><rect x="1406.5112" y="1045" width="96" height="96" fill="none" stroke="blue" stroke-dasharray="5"/><rect x="1394.06" y="1030.79" width="120.9024" height="119.336" fill="none" stroke="blue"/></g><g id="Symbols"><g id="Bold-L" transform="matrix(1 0 0 1 2266 1556)"><path d="M135.611 39.429  114.81 18.466 H25.961 Q19.995 18.466 15.641 14.032 Q11.287 9.598 11.287 3.793 V-72.962 Q11.287 -77.8 14.109 -81.67 Q16.931 -85.54 21.285 -86.991 H24.832 L27.413 -84.572 V-68.77 L4.192 -91.99 L12.094 -99.73 L143.513 31.689 L135.611 39.429 Z M142.384 14.596  116.1 -11.526 V-60.062 L92.719 -41.519 L91.267 -42.97 V-60.869 H66.919 L38.055 -89.894 H131.903 Q137.708 -89.894 142.222 -85.379 Q146.738 -80.864 146.738 -75.059 V3.793 Q146.738 7.34 145.689 10.243 Q144.641 13.145 142.384 14.596 Z M41.925 -11.204 H85.301 L41.925 -54.58 V-11.204 Z"/></g><g id="Semibold-L" transform="matrix(1 0 0 1 1970.27 1556)"><path d="M136.312 39.919  114.53 17.976 H25.33 Q19.925 17.976 15.922 13.927 Q11.918 9.878 11.918 4.564 V-73.734 Q11.918 -78.431 14.916 -82.091 Q17.913 -85.75 22.267 -86.781 H25.814 L28.464 -84.222 V-67.929 L3.772 -92.621 L11.953 -100.641 L144.494 31.899 L136.312 39.919 Z M142.384 15.017  117.572 -9.633 V-60.834 L92.789 -41.098 L91.969 -41.918 V-61.57 H65.727 L38.055 -89.333 H133.024 Q138.338 -89.333 142.433 -85.238 Q146.527 -81.144 146.527 -75.83 V4.564 Q146.527 8.111 145.479 10.908 Q144.431 13.706 142.384 15.017 Z M40.943 -10.433 H86.283 L40.943 -55.772 V-10.433 Z"/></g><g id="Medium-L" transform="matrix(1 0 0 1 1674.31 1556)"><path d="M136.838 40.288  114.319 17.607 H24.857 Q19.872 17.607 16.132 13.848 Q12.392 10.088 12.392 5.142 V-74.312 Q12.392 -78.904 15.52 -82.406 Q18.649 -85.908 23.003 -86.623 H26.55 L29.253 -83.959 V-67.298 L3.456 -93.094 L11.848 -101.325 L145.23 32.057 L136.838 40.288 Z M142.384 15.332  118.676 -8.214 V-61.412 L92.841 -40.783 L92.494 -41.13 V-62.096 H64.833 L38.055 -88.912 H133.866 Q138.812 -88.912 142.591 -85.133 Q146.369 -81.354 146.369 -76.408 V5.142 Q146.369 8.69 145.321 11.408 Q144.273 14.127 142.384 15.332 Z M40.207 -9.854 H87.019 L40.207 -56.666 V-9.854 Z"/></g><g id="Regular-L" transform="matrix(1 0 0 1 1378.56 1556)"><path d="M137.224 40.558  114.165 17.338 H24.51 Q19.834 17.338 16.286 13.79 Q12.739 10.243 12.739 5.566 V-74.736 Q12.739 -79.251 15.964 -82.637 Q19.189 -86.024 23.543 -86.507 H27.09 L29.831 -83.766 V-66.835 L3.225 -93.441 L11.771 -101.826 L145.77 32.173 L137.224 40.558 Z M142.384 15.564  119.486 -7.172 V-61.836 L92.88 -40.551 V-62.481 H64.177 L38.055 -88.604 H134.483 Q139.159 -88.604 142.706 -85.056 Q146.254 -81.509 146.254 -76.832 V5.566 Q146.254 9.114 145.206 11.774 Q144.157 14.435 142.384 15.564 Z M39.668 -9.43 H87.559 L39.668 -57.321 V-9.43 Z"/></g><g id="Light-L" transform="matrix(1 0 0 1 1082.77 1556)"><path d="M135.735 37.084  113.359 14.484 H26.867 Q22.253 14.484 18.86 11.092 Q15.468 7.7 15.468 3.085 V-72.627 Q15.468 -77.08 18.476 -80.312 Q21.484 -83.543 25.651 -84.027 H28.206 L30.576 -81.657 V-68.075 L6.884 -91.767 L13.756 -98.477 L142.607 30.374 L135.735 37.084 Z M139.221 12.401  116.323 -10.336 V-60.038 L91.516 -40.117 V-60.559 H66.1 L41.156 -85.565 H131.257 Q135.872 -85.565 139.264 -82.172 Q142.656 -78.78 142.656 -74.165 V3.085 Q142.656 6.261 141.701 8.766 Q140.746 11.272 139.221 12.401 Z M41.9 -11.043 H87.931 L41.9 -57.073 V-11.043 Z"/></g><g id="Thin-L" transform="matrix(1 0 0 1 787.282 1556)"><path d="M134.247 33.611  112.553 11.632 H29.223 Q24.671 11.632 21.434 8.394 Q18.196 5.157 18.196 0.605 V-70.519 Q18.196 -74.91 20.987 -77.986 Q23.778 -81.062 27.76 -81.546 H29.323 L31.32 -79.549 V-69.316 L10.543 -90.092 L15.74 -95.128 L139.444 28.575 L134.247 33.611 Z M136.058 9.238  113.16 -13.498 V-58.239 L90.151 -39.683 V-58.636 H68.023 L44.257 -82.526 H128.032 Q132.585 -82.526 135.822 -79.288 Q139.06 -76.051 139.06 -71.499 V0.605 Q139.06 3.408 138.198 5.759 Q137.335 8.109 136.058 9.238 Z M44.133 -12.655 H88.303 L44.133 -56.825 V-12.655 Z"/></g><g id="Ultralight-L" transform="matrix(1 0 0 1 491.205 1556)"><path d="M133.354 31.528  112.069 9.92 H30.637 Q26.123 9.92 22.978 6.776 Q19.834 3.631 19.834 -0.884 V-69.254 Q19.834 -73.607 22.494 -76.591 Q25.155 -79.574 29.025 -80.057 H29.992 L31.766 -78.284 V-70.06 L12.739 -89.087 L16.931 -93.119 L137.546 27.496 L133.354 31.528 Z M134.16 7.34  111.263 -15.396 V-57.16 L89.332 -39.422 V-57.482 H69.176 L46.117 -80.702 H126.097 Q130.613 -80.702 133.757 -77.558 Q136.901 -74.414 136.901 -69.899 V-0.884 Q136.901 1.696 136.095 3.954 Q135.289 6.211 134.16 7.34 Z M45.473 -13.622 H88.526 L45.473 -56.676 V-13.622 Z"/></g><g id="Bold-M" transform="matrix(1 0 0 1 2281.8 1126)"><path d="M103.25 25.645  88 10.52 H21.5 Q14.375 10.52 9.438 5.52 Q4.5 0.52 4.5 -6.48 V-63.98 Q4.5 -69.605 7.688 -73.98 Q10.875 -78.355 15.875 -80.105 L20.375 -75.73 V-57.23 L-0.875 -78.48 L8.25 -87.73 L112.5 16.52 L103.25 25.645 Z M114 1.145  91.625 -21.23 V-56.105 L72.25 -40.73 L70.75 -42.23 V-56.23 H56.75 L32.125 -80.98 H99.125 Q106.125 -80.98 111.125 -75.98 Q116.125 -70.98 116.125 -63.98 V-6.48 Q116.125 -4.48 115.688 -2.48 Q115.25 -0.48 114 1.145 Z M29 -14.355 H63.25 L29 -48.605 V-14.355 Z"/></g><g id="Semibold-M" transform="matrix(1 0 0 1 1985.97 1126)"><path d="M103.793 25.754  87.62 9.651 H20.848 Q14.429 9.651 9.954 5.14 Q5.478 0.629 5.478 -5.719 V-64.741 Q5.478 -70.148 8.774 -74.224 Q12.071 -78.301 17.016 -79.561 L21.462 -75.186 V-56.578 L-0.929 -78.969 L8.304 -88.273 L113.098 16.52 L103.793 25.754 Z M113.62 1.362  92.766 -19.491 V-56.703 L72.141 -40.295 L71.293 -41.143 V-56.773 H55.554 L32.288 -80.11 H100.157 Q106.505 -80.11 111.016 -75.6 Q115.527 -71.089 115.527 -64.741 V-5.719 Q115.527 -3.828 115.09 -1.964 Q114.652 -0.1 113.62 1.362 Z M28.239 -13.757 H64.282 L28.239 -49.801 V-13.757 Z"/></g><g id="Medium-M" transform="matrix(1 0 0 1 1689.91 1126)"><path d="M104.201 25.835  87.334 8.998 H20.359 Q14.47 8.998 10.341 4.854 Q6.212 0.71 6.212 -5.148 V-65.311 Q6.212 -70.556 9.59 -74.408 Q12.967 -78.26 17.872 -79.154 L22.277 -74.779 V-56.089 L-0.97 -79.336 L8.345 -88.681 L113.546 16.52 L104.201 25.835 Z M113.334 1.525  93.622 -18.186 V-57.151 L72.06 -39.969 L71.701 -40.328 V-57.181 H54.658 L32.41 -79.458 H100.932 Q106.791 -79.458 110.935 -75.314 Q115.079 -71.17 115.079 -65.311 V-5.148 Q115.079 -3.339 114.641 -1.576 Q114.204 0.186 113.334 1.525 Z M27.669 -13.309 H65.057 L27.669 -50.697 V-13.309 Z"/></g><g id="Regular-M" transform="matrix(1 0 0 1 1394.06 1126)"><path d="M104.5 25.895  87.125 8.52 H20 Q14.5 8.52 10.625 4.645 Q6.75 0.77 6.75 -4.73 V-65.73 Q6.75 -70.855 10.188 -74.542 Q13.625 -78.23 18.5 -78.855 L22.875 -74.48 V-55.73 L-1 -79.605 L8.375 -88.98 L113.875 16.52 L104.5 25.895 Z M113.125 1.645  94.25 -17.23 V-57.48 L72 -39.73 V-57.48 H54 L32.5 -78.98 H101.5 Q107 -78.98 110.875 -75.105 Q114.75 -71.23 114.75 -65.73 V-4.73 Q114.75 -2.98 114.312 -1.292 Q113.875 0.395 113.125 1.645 Z M27.25 -12.98 H65.625 L27.25 -51.355 V-12.98 Z"/></g><g id="Light-M" transform="matrix(1 0 0 1 1098.18 1126)"><path d="M104.115 23.203  87.029 6.02 H21.539 Q16.375 6.02 12.813 2.457 Q9.25 -1.105 9.25 -6.269 V-64.191 Q9.25 -68.98 12.351 -72.355 Q15.452 -75.73 19.846 -76.355 L23.5 -72.701 V-57.413 L2.173 -78.739 L9.817 -86.384 L111.76 15.558 L104.115 23.203 Z M110.481 0.203  91.942 -18.384 V-55.941 L71.231 -39.345 V-56.038 H54.288 L33.846 -76.48 H99.961 Q105.125 -76.48 108.687 -72.917 Q112.25 -69.355 112.25 -64.191 V-6.269 Q112.25 -4.422 111.764 -2.711 Q111.279 -0.999 110.481 0.203 Z M29.558 -14.519 H66.49 L29.558 -51.451 V-14.519 Z"/></g><g id="Thin-M" transform="matrix(1 0 0 1 802.565 1126)"><path d="M103.731 20.51  86.933 3.52 H23.077 Q18.25 3.52 15 0.27 Q11.75 -2.98 11.75 -7.807 V-62.653 Q11.75 -67.105 14.514 -70.167 Q17.279 -73.23 21.192 -73.855 L24.125 -70.922 V-59.095 L5.346 -77.874 L11.26 -83.788 L109.644 14.597 L103.731 20.51 Z M107.837 -1.24  89.635 -19.538 V-54.403 L70.462 -38.961 V-54.595 H54.577 L35.192 -73.98 H98.423 Q103.25 -73.98 106.5 -70.73 Q109.75 -67.48 109.75 -62.653 V-7.807 Q109.75 -5.865 109.216 -4.129 Q108.683 -2.393 107.837 -1.24 Z M31.865 -16.057 H67.356 L31.865 -51.547 V-16.057 Z"/></g><g id="Ultralight-M" transform="matrix(1 0 0 1 506.415 1126)"><path d="M103.5 18.895  86.875 2.02 H24 Q19.375 2.02 16.312 -1.042 Q13.25 -4.105 13.25 -8.73 V-61.73 Q13.25 -65.98 15.812 -68.855 Q18.375 -71.73 22 -72.355 L24.5 -69.855 V-60.105 L7.25 -77.355 L12.125 -82.23 L108.375 14.02 L103.5 18.895 Z M106.25 -2.105  88.25 -20.23 V-53.48 L70 -38.73 V-53.73 H54.75 L36 -72.48 H97.5 Q102.125 -72.48 105.188 -69.417 Q108.25 -66.355 108.25 -61.73 V-8.73 Q108.25 -6.73 107.688 -4.98 Q107.125 -3.23 106.25 -2.105 Z M33.25 -16.98 H67.875 L33.25 -51.605 V-16.98 Z"/></g><g id="Bold-S" transform="matrix(1 0 0 1 2294.23 696)"><path d="M79.886 10.039  67.657 -2.289 H17.753 Q12.525 -2.289 8.827 -5.988 Q5.128 -9.686 5.128 -14.913 V-55.547 Q5.128 -59.59 7.446 -62.845 Q9.764 -66.1 13.314 -67.48 L16.865 -66.395 V-53.081 L2.367 -67.579 L8.778 -74.384 L86.593 3.431 L79.886 10.039 Z M87.579 -7.714  70.32 -24.973 V-50.122 L56.611 -38.78 L55.427 -39.964 V-50.418 H44.973 L27.319 -68.171 H77.421 Q82.549 -68.171 86.297 -64.423 Q90.045 -60.675 90.045 -55.547 V-14.913 Q90.045 -12.941 89.453 -10.968 Q88.861 -8.996 87.579 -7.714 Z M25.643 -20.338 H49.707 L25.643 -44.501 V-20.338 Z"/></g><g id="Semibold-S" transform="matrix(1 0 0 1 1998.1 696)"><path d="M80.315 10.125  67.357 -2.975 H17.238 Q12.568 -2.975 9.234 -6.288 Q5.9 -9.6 5.9 -14.313 V-56.147 Q5.9 -60.019 8.304 -63.038 Q10.707 -66.057 14.215 -67.052 L17.722 -65.967 V-52.567 L2.324 -67.965 L8.821 -74.813 L87.064 3.431 L80.315 10.125 Z M87.279 -7.542  71.22 -23.601 V-50.594 L56.525 -38.437 L55.856 -39.106 V-50.847 H44.03 L27.448 -67.485 H78.235 Q82.849 -67.485 86.211 -64.123 Q89.573 -60.761 89.573 -56.147 V-14.313 Q89.573 -12.426 88.981 -10.561 Q88.39 -8.696 87.279 -7.542 Z M25.042 -19.866 H50.522 L25.042 -45.444 V-19.866 Z"/></g><g id="Medium-S" transform="matrix(1 0 0 1 1701.85 696)"><path d="M80.637 10.189  67.131 -3.49 H16.852 Q12.6 -3.49 9.54 -6.513 Q6.479 -9.536 6.479 -13.863 V-56.597 Q6.479 -60.341 8.947 -63.183 Q11.415 -66.025 14.89 -66.73 L18.366 -65.645 V-52.181 L2.292 -68.254 L8.853 -75.135 L87.418 3.431 L80.637 10.189 Z M87.054 -7.414  71.895 -22.572 V-50.948 L56.461 -38.18 L56.178 -38.463 V-51.169 H43.322 L27.544 -66.97 H78.846 Q83.074 -66.97 86.147 -63.898 Q89.219 -60.825 89.219 -56.597 V-13.863 Q89.219 -12.04 88.627 -10.255 Q88.036 -8.47 87.054 -7.414 Z M24.592 -19.512 H51.133 L24.592 -46.152 V-19.512 Z"/></g><g id="Regular-S" transform="matrix(1 0 0 1 1405.73 696)"><path d="M80.873 10.236  66.966 -3.867 H16.569 Q12.624 -3.867 9.764 -6.678 Q6.904 -9.489 6.904 -13.532 V-56.927 Q6.904 -60.577 9.419 -63.289 Q11.934 -66.001 15.386 -66.494 L18.837 -65.409 V-51.898 L2.268 -68.467 L8.876 -75.37 L87.678 3.431 L80.873 10.236 Z M86.889 -7.319  72.391 -21.817 V-51.207 L56.413 -37.991 V-51.404 H42.803 L27.615 -66.593 H79.294 Q83.24 -66.593 86.1 -63.733 Q88.96 -60.872 88.96 -56.927 V-13.532 Q88.96 -11.757 88.368 -10.031 Q87.776 -8.305 86.889 -7.319 Z M24.262 -19.253 H51.581 L24.262 -46.67 V-19.253 Z"/></g><g id="Light-S" transform="matrix(1 0 0 1 1109.75 696)"><path d="M80.569 8.112  66.891 -5.84 H17.783 Q14.103 -5.84 11.49 -8.404 Q8.876 -10.968 8.876 -14.746 V-55.714 Q8.876 -59.097 11.126 -61.563 Q13.375 -64.028 16.448 -64.522 L19.331 -64.006 V-53.225 L4.772 -67.784 L10.014 -73.322 L86.008 2.672 L80.569 8.112 Z M84.802 -8.457  70.57 -22.727 V-49.993 L55.807 -37.688 V-50.266 H43.031 L28.677 -64.62 H78.081 Q81.76 -64.62 84.374 -62.007 Q86.987 -59.393 86.987 -55.714 V-14.746 Q86.987 -12.895 86.357 -11.15 Q85.728 -9.406 84.802 -8.457 Z M26.083 -20.467 H52.264 L26.083 -46.746 V-20.467 Z"/></g><g id="Thin-S" transform="matrix(1 0 0 1 814.015 696)"><path d="M80.266 5.988  66.815 -7.812 H18.997 Q15.583 -7.812 13.216 -10.13 Q10.849 -12.448 10.849 -15.96 V-54.5 Q10.849 -57.618 12.833 -59.837 Q14.817 -62.056 17.51 -62.549 L19.824 -62.602 V-54.553 L7.275 -67.101 L11.152 -71.274 L84.34 1.914 L80.266 5.988 Z M82.716 -9.595  68.749 -23.638 V-48.78 L55.2 -37.385 V-49.129 H43.258 L29.739 -62.648 H76.867 Q80.281 -62.648 82.648 -60.281 Q85.015 -57.914 85.015 -54.5 V-15.96 Q85.015 -14.033 84.347 -12.269 Q83.68 -10.506 82.716 -9.595 Z M27.903 -21.68 H52.946 L27.903 -46.822 V-21.68 Z"/></g><g id="Ultralight-S" transform="matrix(1 0 0 1 517.792 696)"><path d="M80.084 4.713  66.769 -8.996 H19.725 Q16.47 -8.996 14.251 -11.165 Q12.032 -13.335 12.032 -16.688 V-53.771 Q12.032 -56.73 13.857 -58.801 Q15.681 -60.872 18.147 -61.366 L20.12 -61.76 V-55.349 L8.778 -66.691 L11.835 -70.045 L83.338 1.459 L80.084 4.713 Z M81.464 -10.278  67.657 -24.184 V-48.051 L54.836 -37.202 V-48.446 H43.395 L30.377 -61.464 H76.139 Q79.393 -61.464 81.612 -59.245 Q83.831 -57.026 83.831 -53.771 V-16.688 Q83.831 -14.716 83.141 -12.941 Q82.451 -11.165 81.464 -10.278 Z M28.996 -22.409 H53.356 L28.996 -46.868 V-22.409 Z"/></g></g></svg>