<svg xmlns="http://www.w3.org/2000/svg" version="1.1" width="3300" height="2000"><g id="Notes"><style>
    text {
      font-family: monospace;
      text-anchor: middle;
    }
    text.emphasis {
      font-weight:bold;
    }
    text.lanchor {
      text-anchor: start;
    }
  </style><rect height="2200" id="artboard" fill="white" width="3300" x="0" y="0"/><line id="" style="fill:none;stroke:black;stroke-width:0.5;" x1="263" x2="3036" y1="292" y2="292"/><text class="lanchor emphasis" transform="matrix(1 0 0 1 263 322)">Weight/Scale Variations</text><text transform="matrix(1 0 0 1 559.711 322)">Ultralight</text><text transform="matrix(1 0 0 1 856.422 322)">Thin</text><text transform="matrix(1 0 0 1 1153.13 322)">Light</text><text transform="matrix(1 0 0 1 1449.84 322)">Regular</text><text transform="matrix(1 0 0 1 1746.56 322)">Medium</text><text transform="matrix(1 0 0 1 2043.27 322)">Semibold</text><text transform="matrix(1 0 0 1 2339.98 322)">Bold</text><text transform="matrix(1 0 0 1 2636.69 322)">Heavy</text><text transform="matrix(1 0 0 1 2933.4 322)">Black</text><text id="template-version" style="text-anchor: end;" transform="matrix(1 0 0 1 3036 1933)">Template v.1.0</text><text class="lanchor" transform="matrix(1 0 0 1 263 726)">Small</text><text class="lanchor" transform="matrix(1 0 0 1 263 1156)">Medium</text><text class="lanchor" transform="matrix(1 0 0 1 263 1586)">Large</text></g><g id="Guides"><g id="H-reference" style="fill:#27AAE1;stroke:none;" transform="matrix(1 0 0 1 339 696)"><path d="M 54.9316 0 L 57.666 0 L 30.5664 -70.459 L 28.0762 -70.459 L 0.976562 0 L 3.66211 0 L 12.9395 -24.4629 L 45.7031 -24.4629 Z M 29.1992 -67.0898 L 29.4434 -67.0898 L 44.8242 -26.709 L 13.8184 -26.709 Z"/></g><line id="Baseline-S" style="fill:none;stroke:#27AAE1;opacity:1;stroke-width:0.577;" x1="263" x2="3036" y1="696" y2="696"/><line id="Capline-S" style="fill:none;stroke:#27AAE1;opacity:1;stroke-width:0.577;" x1="263" x2="3036" y1="625.541" y2="625.541"/><g id="H-reference" style="fill:#27AAE1;stroke:none;" transform="matrix(1 0 0 1 339 1126)"><path d="M 54.9316 0 L 57.666 0 L 30.5664 -70.459 L 28.0762 -70.459 L 0.976562 0 L 3.66211 0 L 12.9395 -24.4629 L 45.7031 -24.4629 Z M 29.1992 -67.0898 L 29.4434 -67.0898 L 44.8242 -26.709 L 13.8184 -26.709 Z"/></g><line id="Baseline-M" style="fill:none;stroke:#27AAE1;opacity:1;stroke-width:0.577;" x1="263" x2="3036" y1="1126" y2="1126"/><line id="Capline-M" style="fill:none;stroke:#27AAE1;opacity:1;stroke-width:0.577;" x1="263" x2="3036" y1="1055.54" y2="1055.54"/><g id="H-reference" style="fill:#27AAE1;stroke:none;" transform="matrix(1 0 0 1 339 1556)"><path d="M 54.9316 0 L 57.666 0 L 30.5664 -70.459 L 28.0762 -70.459 L 0.976562 0 L 3.66211 0 L 12.9395 -24.4629 L 45.7031 -24.4629 Z M 29.1992 -67.0898 L 29.4434 -67.0898 L 44.8242 -26.709 L 13.8184 -26.709 Z"/></g><line id="Baseline-L" style="fill:none;stroke:#27AAE1;opacity:1;stroke-width:0.577;" x1="263" x2="3036" y1="1556" y2="1556"/><line id="Capline-L" style="fill:none;stroke:#27AAE1;opacity:1;stroke-width:0.577;" x1="263" x2="3036" y1="1485.54" y2="1485.54"/><rect height="119.336" id="left-margin" style="fill:darkred;stroke:none;opacity:0.4;" width="12.4512" x="1394.06" y="1030.79"/><rect height="119.336" id="right-margin" style="fill:darkgreen;stroke:none;opacity:0.4;" width="12.4512" x="1502.5112" y="1030.79"/><rect x="1406.5112" y="1045" width="96" height="96" fill="none" stroke="blue" stroke-dasharray="5"/><rect x="1394.06" y="1030.79" width="120.9024" height="119.336" fill="none" stroke="blue"/></g><g id="Symbols"><g id="Bold-L" transform="matrix(1 0 0 1 2266 1556)"><path d="M46.763 -97.311 Q44.863 -98.555 44.362 -100.997 Q43.86 -103.439 45.311 -105.212 Q46.763 -106.986 48.929 -107.309 Q51.095 -107.631 53.212 -106.341 L88.518 -80.447 Q90.139 -78.929 90.542 -76.619 Q90.945 -74.309 89.475 -72.368 Q88.005 -70.322 85.689 -70.03 Q83.373 -69.737 81.574 -71.245 L46.763 -97.311 Z M39.96 -76.312 Q37.876 -77.623 37.482 -79.959 Q37.087 -82.294 38.526 -84.179 Q39.95 -86.062 42.245 -86.365 Q44.54 -86.669 46.538 -85.155 L69.176 -68.77 Q65.306 -68.931 62.404 -66.916 Q59.501 -64.9 58.373 -62.481 L39.96 -76.312 Z M69.821 -106.019 Q67.886 -107.47 67.725 -109.745 Q67.564 -112.019 69.003 -113.989 Q70.104 -115.893 72.392 -116.197 Q74.68 -116.5 76.755 -115.21 L114.326 -87.475 L115.778 -100.375 Q115.97 -103.796 118.414 -106.094 Q120.859 -108.392 124.485 -108.921 L126.259 -109.082 Q127.926 -109.082 129.422 -108.196 Q130.917 -107.309 131.419 -106.019 L145.125 -59.417 Q146.415 -55.339 145.609 -51.116 Q144.803 -46.894 142.384 -43.292 L123.517 -17.976 Q123.376 -21.555 122.26 -24.936 Q121.144 -28.318 119.325 -31.36 L133.031 -49.904 Q133.878 -51.38 134.341 -53.114 Q134.805 -54.849 134.108 -56.429 L125.614 -86.185 L124.324 -76.51 Q123.99 -73.147 120.771 -71.846 Q117.551 -70.544 115.133 -72.64 L69.821 -106.019 Z M51.922 -41.196  37.64 -51.684 Q35.45 -53.141 35.14 -55.403 Q34.83 -57.665 36.281 -59.579 Q37.74 -61.55 40.06 -61.854 Q42.381 -62.159 44.344 -60.869 L54.341 -53.129 Q54.341 -50.065 55.389 -47.082 Q56.438 -44.099 58.05 -41.196 H51.922 Z M7.892 -3.786 Q5.297 -3.786 3.858 -5.201 Q2.419 -6.616 2.419 -9.458 Q2.419 -12.3 3.858 -13.687 Q5.297 -15.074 7.892 -15.074 H51.696 Q54.136 -15.074 55.77 -13.659 Q57.405 -12.244 57.405 -9.402 Q57.405 -6.56 55.873 -5.173 Q54.341 -3.786 51.813 -3.786 H7.892 Z M15.105 17.176 Q12.328 17.176 10.921 15.761 Q9.514 14.346 9.514 11.504 Q9.514 8.662 10.921 7.276 Q12.328 5.889 15.101 5.889 H51.681 Q54.113 5.889 55.759 7.304 Q57.405 8.719 57.405 11.561 Q57.405 14.403 55.85 15.79 Q54.295 17.176 51.73 17.176 H15.105 Z M28.137 38.139 Q25.228 38.139 23.821 36.724 Q22.414 35.309 22.414 32.467 Q22.414 29.625 23.821 28.238 Q25.228 26.851 28.137 26.851 H98.524 Q101.495 26.851 103.637 24.765 Q105.78 22.679 105.78 19.595 V-17.492 Q105.78 -19.235 105.054 -20.904 Q104.329 -22.572 102.645 -23.351 L77.884 -42.002 L82.721 -33.456 Q84.011 -30.715 82.439 -27.732 Q80.867 -24.749 77.722 -24.749 H21.63 Q18.778 -24.749 17.371 -26.164 Q15.964 -27.579 15.964 -30.421 Q15.964 -33.263 17.371 -34.649 Q18.778 -36.036 21.643 -36.036 H68.209 L61.598 -47.646 Q60.146 -50.387 60.524 -53.866 Q60.901 -57.344 63.21 -59.417 L64.823 -60.869 Q66.112 -62.159 67.806 -62.239 Q69.499 -62.32 70.828 -61.328 L109.664 -32.3 Q113.372 -29.791 115.22 -25.98 Q117.068 -22.169 117.068 -17.492 V19.595 Q117.068 27.389 111.55 32.764 Q106.032 38.139 98.588 38.139 H28.137 Z"/></g><g id="Semibold-L" transform="matrix(1 0 0 1 1970.27 1556)"><path d="M46.903 -96.961 Q44.988 -98.225 44.494 -100.586 Q44 -102.948 45.452 -104.792 Q46.903 -106.636 49.074 -106.888 Q51.245 -107.141 53.353 -105.851 L88.238 -80.167 Q89.928 -78.648 90.332 -76.373 Q90.735 -74.098 89.273 -72.206 Q87.811 -70.208 85.508 -69.903 Q83.206 -69.597 81.363 -71.104 L46.903 -96.961 Z M40.114 -76.117 Q38.024 -77.42 37.696 -79.695 Q37.368 -81.971 38.812 -83.86 Q40.241 -85.773 42.461 -86.081 Q44.68 -86.388 46.705 -84.902 L69.387 -68.349 Q65.517 -68.721 62.474 -66.705 Q59.431 -64.69 58.302 -62.481 L40.114 -76.117 Z M69.891 -105.598 Q67.956 -107.049 67.76 -109.263 Q67.564 -111.477 69.008 -113.468 Q70.185 -115.394 72.428 -115.666 Q74.671 -115.939 76.685 -114.649 L114.116 -86.984 L115.707 -100.655 Q115.914 -103.738 118.132 -105.837 Q120.35 -107.936 123.574 -108.431 L125.488 -108.592 Q127.342 -108.732 129.028 -107.705 Q130.714 -106.678 131.208 -105.107 L144.774 -59.137 Q146.064 -54.956 145.284 -50.749 Q144.505 -46.542 142.033 -43.012 L123.447 -18.046 Q123.227 -21.541 122.143 -24.839 Q121.059 -28.136 119.255 -31.15 L132.821 -49.553 Q133.808 -51.029 134.201 -52.752 Q134.595 -54.475 133.974 -56.115 L125.263 -86.255 L123.973 -76.23 Q123.617 -72.94 120.479 -71.602 Q117.341 -70.263 114.922 -72.36 L69.891 -105.598 Z M51.993 -41.196  37.92 -51.614 Q35.731 -53.071 35.456 -55.267 Q35.181 -57.464 36.632 -59.403 Q38.097 -61.402 40.35 -61.675 Q42.603 -61.948 44.554 -60.658 L54.271 -53.199 Q54.271 -50.112 55.319 -47.105 Q56.367 -44.099 57.98 -41.196 H51.993 Z M8.312 -3.856 Q5.816 -3.856 4.292 -5.321 Q2.769 -6.785 2.769 -9.458 Q2.769 -12.132 4.292 -13.568 Q5.816 -15.004 8.312 -15.004 H51.724 Q54.116 -15.004 55.726 -13.539 Q57.335 -12.075 57.335 -9.402 Q57.335 -6.728 55.784 -5.292 Q54.233 -3.856 51.791 -3.856 H8.312 Z M15.407 16.966 Q12.776 16.966 11.32 15.502 Q9.864 14.038 9.864 11.364 Q9.864 8.69 11.32 7.255 Q12.776 5.819 15.405 5.819 H51.716 Q54.104 5.819 55.719 7.283 Q57.335 8.747 57.335 11.421 Q57.335 14.094 55.771 15.53 Q54.206 16.966 51.744 16.966 H15.407 Z M28.416 37.788 Q25.676 37.788 24.22 36.324 Q22.764 34.86 22.764 32.186 Q22.764 29.513 24.22 28.077 Q25.676 26.641 28.416 26.641 H98.524 Q101.525 26.641 103.687 24.535 Q105.85 22.428 105.85 19.315 V-17.352 Q105.85 -19.16 105.089 -20.761 Q104.329 -22.362 102.73 -23.234 L77.603 -42.143 L82.651 -33.246 Q84.011 -30.505 82.439 -27.592 Q80.867 -24.679 77.722 -24.679 H21.924 Q19.226 -24.679 17.77 -26.143 Q16.314 -27.607 16.314 -30.281 Q16.314 -32.954 17.77 -34.39 Q19.226 -35.826 21.908 -35.826 H68.349 L61.387 -48.067 Q60.006 -50.528 60.348 -53.69 Q60.691 -56.853 62.859 -58.787 L64.472 -60.238 Q65.902 -61.668 67.806 -61.819 Q69.709 -61.969 71.232 -60.848 L109.588 -32.102 Q113.232 -29.58 115.115 -25.734 Q116.997 -21.888 116.997 -17.352 V19.315 Q116.997 27.097 111.509 32.442 Q106.02 37.788 98.587 37.788 H28.416 Z"/></g><g id="Medium-L" transform="matrix(1 0 0 1 1674.31 1556)"><path d="M47.008 -96.698 Q45.081 -97.977 44.593 -100.278 Q44.105 -102.58 45.557 -104.476 Q47.008 -106.373 49.182 -106.573 Q51.357 -106.772 53.458 -105.482 L88.028 -79.956 Q89.771 -78.438 90.174 -76.189 Q90.577 -73.94 89.121 -72.084 Q87.665 -70.123 85.373 -69.807 Q83.08 -69.492 81.206 -70.999 L47.008 -96.698 Z M40.228 -75.972 Q38.135 -77.267 37.857 -79.498 Q37.578 -81.729 39.027 -83.62 Q40.459 -85.556 42.622 -85.867 Q44.785 -86.178 46.831 -84.712 L69.544 -68.034 Q65.674 -68.563 62.526 -66.547 Q59.379 -64.532 58.25 -62.481 L40.228 -75.972 Z M69.944 -105.283 Q68.009 -106.734 67.786 -108.902 Q67.564 -111.07 69.012 -113.078 Q70.245 -115.019 72.454 -115.269 Q74.664 -115.518 76.632 -114.228 L113.958 -86.616 L115.655 -100.866 Q115.873 -103.694 117.921 -105.644 Q119.968 -107.594 122.89 -108.062 L124.909 -108.224 Q126.903 -108.469 128.733 -107.337 Q130.563 -106.205 131.051 -104.424 L144.512 -58.927 Q145.802 -54.668 145.041 -50.473 Q144.28 -46.279 141.77 -42.802 L123.395 -18.099 Q123.116 -21.531 122.055 -24.765 Q120.995 -28 119.202 -30.992 L132.663 -49.29 Q133.755 -50.766 134.096 -52.48 Q134.437 -54.194 133.873 -55.88 L125 -86.308 L123.71 -76.019 Q123.336 -72.785 120.26 -71.419 Q117.183 -70.053 114.764 -72.149 L69.944 -105.283 Z M52.045 -41.196  38.13 -51.561 Q35.941 -53.018 35.692 -55.166 Q35.443 -57.313 36.895 -59.272 Q38.365 -61.291 40.568 -61.541 Q42.77 -61.791 44.712 -60.501 L54.219 -53.251 Q54.219 -50.148 55.267 -47.123 Q56.315 -44.099 57.927 -41.196 H52.045 Z M8.628 -3.909 Q6.205 -3.909 4.619 -5.41 Q3.032 -6.911 3.032 -9.458 Q3.032 -12.006 4.619 -13.479 Q6.205 -14.951 8.628 -14.951 H51.746 Q54.102 -14.951 55.692 -13.45 Q57.282 -11.949 57.282 -9.402 Q57.282 -6.854 55.717 -5.381 Q54.151 -3.909 51.774 -3.909 H8.628 Z M15.633 16.808 Q13.113 16.808 11.62 15.307 Q10.127 13.806 10.127 11.259 Q10.127 8.711 11.62 7.239 Q13.113 5.766 15.633 5.766 H51.742 Q54.097 5.766 55.689 7.267 Q57.282 8.768 57.282 11.315 Q57.282 13.863 55.711 15.336 Q54.14 16.808 51.754 16.808 H15.633 Z M28.625 37.525 Q26.013 37.525 24.52 36.024 Q23.027 34.524 23.027 31.976 Q23.027 29.429 24.52 27.956 Q26.013 26.483 28.625 26.483 H98.524 Q101.547 26.483 103.725 24.362 Q105.903 22.24 105.903 19.104 V-17.247 Q105.903 -19.103 105.116 -20.653 Q104.329 -22.204 102.794 -23.147 L77.393 -42.248 L82.599 -33.088 Q84.011 -30.347 82.439 -27.486 Q80.867 -24.626 77.722 -24.626 H22.144 Q19.563 -24.626 18.07 -26.127 Q16.577 -27.628 16.577 -30.175 Q16.577 -32.723 18.07 -34.196 Q19.563 -35.668 22.107 -35.668 H68.454 L61.229 -48.382 Q59.901 -50.633 60.217 -53.559 Q60.533 -56.485 62.597 -58.313 L64.209 -59.765 Q65.744 -61.3 67.806 -61.503 Q69.867 -61.707 71.534 -60.488 L109.531 -31.953 Q113.127 -29.423 115.036 -25.55 Q116.945 -21.678 116.945 -17.247 V19.104 Q116.945 26.878 111.478 32.201 Q106.011 37.525 98.586 37.525 H28.625 Z"/></g><g id="Regular-L" transform="matrix(1 0 0 1 1378.56 1556)"><path d="M47.085 -96.505 Q45.15 -97.795 44.666 -100.052 Q44.183 -102.31 45.634 -104.245 Q47.085 -106.18 49.262 -106.341 Q51.439 -106.502 53.535 -105.212 L87.873 -79.802 Q89.655 -78.284 90.058 -76.054 Q90.461 -73.825 89.01 -71.995 Q87.559 -70.06 85.273 -69.737 Q82.988 -69.415 81.09 -70.922 L47.085 -96.505 Z M40.312 -75.865 Q38.216 -77.155 37.974 -79.353 Q37.733 -81.551 39.184 -83.444 Q40.62 -85.397 42.741 -85.71 Q44.862 -86.024 46.924 -84.572 L69.66 -67.802 Q65.79 -68.447 62.565 -66.432 Q59.34 -64.416 58.211 -62.481 L40.312 -75.865 Z M69.983 -105.051 Q68.047 -106.502 67.806 -108.637 Q67.564 -110.772 69.015 -112.791 Q70.29 -114.744 72.474 -114.977 Q74.659 -115.21 76.594 -113.92 L113.843 -86.346 L115.616 -101.02 Q115.842 -103.661 117.765 -105.502 Q119.689 -107.343 122.389 -107.792 L124.485 -107.954 Q126.581 -108.276 128.516 -107.067 Q130.451 -105.857 130.935 -103.922 L144.319 -58.772 Q145.609 -54.457 144.862 -50.271 Q144.116 -46.086 141.578 -42.647 L123.356 -18.137 Q123.034 -21.524 121.991 -24.712 Q120.948 -27.899 119.164 -30.876 L132.548 -49.097 Q133.717 -50.574 134.019 -52.281 Q134.321 -53.989 133.799 -55.708 L124.808 -86.346 L123.517 -75.865 Q123.131 -72.671 120.099 -71.285 Q117.068 -69.899 114.649 -71.995 L69.983 -105.051 Z M52.084 -41.196  38.285 -51.522 Q36.095 -52.98 35.866 -55.091 Q35.636 -57.202 37.087 -59.176 Q38.562 -61.209 40.727 -61.442 Q42.892 -61.675 44.828 -60.385 L54.18 -53.29 Q54.18 -50.174 55.228 -47.136 Q56.276 -44.099 57.889 -41.196 H52.084 Z M8.859 -3.947 Q6.49 -3.947 4.858 -5.475 Q3.225 -7.003 3.225 -9.458 Q3.225 -11.913 4.858 -13.413 Q6.49 -14.912 8.859 -14.912 H51.761 Q54.091 -14.912 55.668 -13.385 Q57.244 -11.857 57.244 -9.402 Q57.244 -6.947 55.668 -5.447 Q54.091 -3.947 51.761 -3.947 H8.859 Z M15.8 16.693 Q13.36 16.693 11.84 15.165 Q10.32 13.637 10.32 11.182 Q10.32 8.727 11.84 7.227 Q13.36 5.728 15.8 5.728 H51.761 Q54.091 5.728 55.668 7.255 Q57.244 8.783 57.244 11.238 Q57.244 13.693 55.668 15.193 Q54.091 16.693 51.761 16.693 H15.8 Z M28.778 37.333 Q26.26 37.333 24.74 35.805 Q23.22 34.277 23.22 31.822 Q23.22 29.367 24.74 27.867 Q26.26 26.368 28.778 26.368 H98.524 Q101.563 26.368 103.752 24.235 Q105.941 22.102 105.941 18.95 V-17.17 Q105.941 -19.062 105.135 -20.575 Q104.329 -22.088 102.842 -23.083 L77.239 -42.325 L82.56 -32.972 Q84.011 -30.231 82.439 -27.409 Q80.867 -24.587 77.722 -24.587 H22.305 Q19.81 -24.587 18.29 -26.115 Q16.77 -27.643 16.77 -30.098 Q16.77 -32.553 18.29 -34.053 Q19.81 -35.552 22.253 -35.552 H68.531 L61.114 -48.614 Q59.824 -50.71 60.121 -53.463 Q60.417 -56.215 62.404 -57.966 L64.016 -59.417 Q65.629 -61.03 67.806 -61.272 Q69.983 -61.514 71.756 -60.224 L109.489 -31.844 Q113.05 -29.307 114.978 -25.415 Q116.906 -21.524 116.906 -17.17 V18.95 Q116.906 26.717 111.455 32.025 Q106.004 37.333 98.586 37.333 H28.778 Z"/></g><g id="Light-L" transform="matrix(1 0 0 1 1082.77 1556)"><path d="M47.705 -95.389 Q46.204 -96.368 45.783 -98.161 Q45.361 -99.953 46.502 -101.454 Q47.643 -102.955 49.386 -103.054 Q51.129 -103.153 52.791 -102.173 L86.757 -77.011 Q88.104 -75.803 88.415 -74.039 Q88.725 -72.274 87.583 -70.879 Q86.442 -69.378 84.666 -69.117 Q82.891 -68.857 81.4 -70.054 L47.705 -95.389 Z M41.367 -75.307 Q39.705 -76.287 39.525 -78.05 Q39.345 -79.814 40.486 -81.273 Q41.612 -82.792 43.299 -83.074 Q44.987 -83.357 46.552 -82.216 L66.435 -67.554 Q63.309 -67.951 60.859 -66.308 Q58.41 -64.664 57.653 -63.163 L41.367 -75.307 Z M70.169 -103.315 Q68.668 -104.456 68.519 -106.125 Q68.37 -107.795 69.511 -109.38 Q70.476 -110.899 72.195 -111.101 Q73.914 -111.302 75.353 -110.323 L112.974 -82.439 L115.058 -98.973 Q115.222 -101.118 116.804 -102.618 Q118.386 -104.117 120.59 -104.505 L121.88 -104.543 Q123.914 -104.803 125.725 -103.625 Q127.536 -102.446 128.02 -100.635 L140.908 -56.979 Q142.135 -52.968 141.451 -49.093 Q140.766 -45.217 138.414 -41.965 L123.604 -22.045 Q123.22 -24.625 122.363 -27.068 Q121.506 -29.512 120.218 -31.807 L131.307 -46.989 Q132.585 -48.66 132.988 -50.611 Q133.391 -52.562 132.806 -54.591 L122.513 -89.385 L120.85 -75.927 Q120.447 -72.771 117.517 -71.49 Q114.587 -70.209 112.292 -72.243 L70.169 -103.315 Z M51.029 -43.181  39.835 -51.584 Q38.07 -52.705 37.908 -54.395 Q37.745 -56.086 38.886 -57.625 Q40.05 -59.224 41.781 -59.395 Q43.513 -59.566 44.952 -58.586 L53.808 -51.926 Q53.932 -49.615 54.763 -47.446 Q55.594 -45.277 56.772 -43.181 H51.029 Z M10.906 -6.801 Q9.038 -6.801 7.744 -7.991 Q6.45 -9.181 6.45 -11.136 Q6.45 -13.092 7.744 -14.25 Q9.038 -15.409 10.906 -15.409 H53.374 Q55.203 -15.409 56.441 -14.219 Q57.678 -13.029 57.678 -11.073 Q57.678 -9.118 56.441 -7.959 Q55.203 -6.801 53.374 -6.801 H10.906 Z M17.846 13.095 Q15.907 13.095 14.726 11.905 Q13.545 10.715 13.545 8.759 Q13.545 6.804 14.726 5.646 Q15.907 4.487 17.846 4.487 H53.374 Q55.203 4.487 56.441 5.677 Q57.678 6.867 57.678 8.823 Q57.678 10.778 56.441 11.937 Q55.203 13.095 53.374 13.095 H17.846 Z M30.825 32.991 Q28.807 32.991 27.626 31.801 Q26.445 30.611 26.445 28.655 Q26.445 26.7 27.626 25.541 Q28.807 24.383 30.825 24.383 H98.462 Q101.997 24.383 104.528 21.909 Q107.058 19.435 107.058 15.787 V-18.1 Q107.058 -20.302 106.127 -22.063 Q105.197 -23.825 103.496 -24.936 L74.448 -46.791 L81.257 -34.833 Q82.709 -32.154 81.183 -29.425 Q79.657 -26.696 76.606 -26.696 H24.352 Q22.357 -26.696 21.176 -27.886 Q19.995 -29.076 19.995 -31.032 Q19.995 -32.987 21.176 -34.146 Q22.357 -35.304 24.299 -35.304 H71.074 L62.788 -50.04 Q61.746 -51.702 61.95 -54.021 Q62.154 -56.339 63.83 -57.656 L64.885 -58.611 Q66.497 -60.1 68.55 -60.28 Q70.603 -60.459 72.252 -59.293 L108.683 -31.844 Q112.057 -29.431 113.862 -25.813 Q115.666 -22.196 115.666 -18.1 V15.787 Q115.666 23.063 110.558 28.027 Q105.451 32.991 98.524 32.991 H30.825 Z"/></g><g id="Thin-L" transform="matrix(1 0 0 1 787.282 1556)"><path d="M48.325 -94.272 Q47.259 -94.942 46.899 -96.269 Q46.539 -97.597 47.37 -98.663 Q48.201 -99.73 49.51 -99.767 Q50.819 -99.804 52.047 -99.135 L85.641 -74.22 Q86.554 -73.322 86.771 -72.023 Q86.988 -70.724 86.157 -69.762 Q85.326 -68.696 84.06 -68.497 Q82.793 -68.299 81.71 -69.186 L48.325 -94.272 Z M42.421 -74.749 Q41.193 -75.418 41.075 -76.748 Q40.958 -78.078 41.789 -79.102 Q42.604 -80.187 43.857 -80.439 Q45.111 -80.69 46.18 -79.859 L63.21 -67.306 Q60.828 -67.455 59.154 -66.184 Q57.479 -64.912 57.095 -63.846 L42.421 -74.749 Z M70.355 -101.578 Q69.288 -102.409 69.232 -103.614 Q69.176 -104.818 70.007 -105.969 Q70.662 -107.054 71.916 -107.225 Q73.17 -107.396 74.113 -106.726 L112.106 -78.532 L114.5 -96.927 Q114.602 -98.576 115.843 -99.734 Q117.084 -100.893 118.792 -101.218 L119.275 -101.132 Q121.248 -101.33 122.935 -100.183 Q124.621 -99.035 125.105 -97.348 L137.497 -55.186 Q138.663 -51.48 138.04 -47.915 Q137.418 -44.349 135.252 -41.283 L123.852 -25.952 Q123.406 -27.726 122.735 -29.425 Q122.064 -31.124 121.272 -32.737 L130.067 -44.88 Q131.453 -46.747 131.957 -48.942 Q132.461 -51.136 131.814 -53.475 L120.218 -92.424 L118.184 -75.989 Q117.764 -72.871 114.935 -71.695 Q112.106 -70.519 109.935 -72.491 L70.355 -101.578 Z M49.975 -45.165  41.386 -51.647 Q40.045 -52.431 39.949 -53.7 Q39.854 -54.969 40.685 -56.075 Q41.539 -57.24 42.836 -57.349 Q44.133 -57.458 45.076 -56.788 L53.436 -50.561 Q53.684 -49.057 54.298 -47.756 Q54.912 -46.455 55.656 -45.165 H49.975 Z M12.953 -9.653 Q11.585 -9.653 10.63 -10.506 Q9.675 -11.358 9.675 -12.814 Q9.675 -14.27 10.63 -15.087 Q11.585 -15.905 12.953 -15.905 H54.986 Q56.315 -15.905 57.213 -15.053 Q58.112 -14.2 58.112 -12.744 Q58.112 -11.288 57.213 -10.471 Q56.315 -9.653 54.986 -9.653 H12.953 Z M19.893 9.498 Q18.454 9.498 17.612 8.646 Q16.77 7.794 16.77 6.338 Q16.77 4.882 17.612 4.064 Q18.454 3.247 19.893 3.247 H54.986 Q56.315 3.247 57.213 4.099 Q58.112 4.951 58.112 6.407 Q58.112 7.863 57.213 8.681 Q56.315 9.498 54.986 9.498 H19.893 Z M32.871 28.65 Q31.354 28.65 30.512 27.798 Q29.67 26.945 29.67 25.489 Q29.67 24.033 30.512 23.216 Q31.354 22.398 32.871 22.398 H98.4 Q102.432 22.398 105.303 19.584 Q108.174 16.769 108.174 12.624 V-19.031 Q108.174 -21.542 107.12 -23.552 Q106.065 -25.561 104.151 -26.79 L71.657 -51.256 L79.955 -36.694 Q81.406 -34.076 79.927 -31.441 Q78.448 -28.805 75.49 -28.805 H26.399 Q24.904 -28.805 24.062 -29.657 Q23.22 -30.509 23.22 -31.965 Q23.22 -33.422 24.062 -34.239 Q24.904 -35.056 26.346 -35.056 H73.617 L64.463 -51.467 Q63.669 -52.695 63.78 -54.579 Q63.89 -56.463 65.257 -57.346 L65.753 -57.805 Q67.365 -59.169 69.294 -59.287 Q71.223 -59.405 72.749 -58.363 L107.876 -31.844 Q111.065 -29.555 112.745 -26.211 Q114.425 -22.868 114.425 -19.031 V12.624 Q114.425 19.409 109.662 24.029 Q104.898 28.65 98.462 28.65 H32.871 Z"/></g><g id="Ultralight-L" transform="matrix(1 0 0 1 491.205 1556)"><path d="M48.697 -93.602 Q47.891 -94.086 47.569 -95.134 Q47.246 -96.182 47.891 -96.989 Q48.536 -97.795 49.584 -97.795 Q50.633 -97.795 51.6 -97.311 L84.971 -72.546 Q85.624 -71.834 85.785 -70.814 Q85.946 -69.794 85.301 -69.092 Q84.656 -68.286 83.696 -68.125 Q82.735 -67.964 81.896 -68.665 L48.697 -93.602 Z M43.054 -74.414 Q42.086 -74.897 42.006 -75.967 Q41.925 -77.036 42.57 -77.8 Q43.2 -78.624 44.192 -78.857 Q45.185 -79.09 45.956 -78.445 L61.275 -67.157 Q59.34 -67.157 58.131 -66.109 Q56.921 -65.061 56.76 -64.255 L43.054 -74.414 Z M70.466 -100.536 Q69.66 -101.181 69.66 -102.107 Q69.66 -103.032 70.305 -103.922 Q70.773 -104.747 71.749 -104.899 Q72.724 -105.051 73.369 -104.567 L111.585 -76.187 L114.165 -95.699 Q114.23 -97.05 115.266 -98.004 Q116.302 -98.958 117.713 -99.246 V-99.085 Q119.648 -99.246 121.26 -98.117 Q122.873 -96.989 123.356 -95.376 L135.45 -54.11 Q136.579 -50.587 135.993 -47.207 Q135.408 -43.828 133.354 -40.874 L124.001 -28.296 Q123.517 -29.586 122.958 -30.839 Q122.399 -32.092 121.905 -33.295 L129.322 -43.615 Q130.774 -45.6 131.338 -47.94 Q131.903 -50.28 131.219 -52.805 L118.841 -94.247 L116.584 -76.026 Q116.154 -72.931 113.386 -71.818 Q110.618 -70.705 108.521 -72.64 L70.466 -100.536 Z M49.343 -46.356  42.316 -51.684 Q41.23 -52.266 41.174 -53.283 Q41.119 -54.3 41.764 -55.144 Q42.432 -56.049 43.468 -56.121 Q44.505 -56.192 45.15 -55.709 L53.212 -49.742 Q53.535 -48.722 54.019 -47.942 Q54.503 -47.162 54.986 -46.356 H49.343 Z M14.181 -11.365 Q13.114 -11.365 12.362 -12.015 Q11.61 -12.664 11.61 -13.821 Q11.61 -14.977 12.362 -15.59 Q13.114 -16.202 14.181 -16.202 H55.954 Q56.982 -16.202 57.677 -15.553 Q58.373 -14.903 58.373 -13.747 Q58.373 -12.59 57.677 -11.978 Q56.982 -11.365 55.954 -11.365 H14.181 Z M21.121 7.34 Q19.983 7.34 19.344 6.69 Q18.705 6.041 18.705 4.884 Q18.705 3.728 19.344 3.115 Q19.983 2.503 21.121 2.503 H55.954 Q56.982 2.503 57.677 3.152 Q58.373 3.802 58.373 4.958 Q58.373 6.115 57.677 6.727 Q56.982 7.34 55.954 7.34 H21.121 Z M34.1 26.045 Q32.883 26.045 32.244 25.395 Q31.605 24.746 31.605 23.589 Q31.605 22.433 32.244 21.82 Q32.883 21.208 34.1 21.208 H98.362 Q102.692 21.208 105.768 18.188 Q108.844 15.169 108.844 10.726 V-19.589 Q108.844 -22.287 107.715 -24.445 Q106.586 -26.603 104.544 -27.902 L69.983 -53.935 L79.174 -37.81 Q80.625 -35.23 79.174 -32.65 Q77.722 -30.07 74.82 -30.07 H27.627 Q26.433 -30.07 25.794 -30.72 Q25.155 -31.369 25.155 -32.526 Q25.155 -33.682 25.794 -34.295 Q26.433 -34.907 27.574 -34.907 H75.142 L65.468 -52.322 Q64.823 -53.29 64.877 -54.914 Q64.932 -56.538 66.112 -57.16 L66.274 -57.321 Q67.886 -58.611 69.741 -58.692 Q71.595 -58.772 73.046 -57.805 L107.392 -31.844 Q110.47 -29.63 112.076 -26.45 Q113.681 -23.271 113.681 -19.589 V10.726 Q113.681 17.217 109.124 21.631 Q104.566 26.045 98.425 26.045 H34.1 Z"/></g><g id="Bold-M" transform="matrix(1 0 0 1 2281.8 1126)"><path d="M34.125 -83.48 Q31.903 -85.069 31.451 -87.712 Q31 -90.355 32.625 -92.542 Q34.25 -94.73 36.829 -95.042 Q39.408 -95.355 41.625 -93.73 L70.25 -72.605 Q72.25 -70.98 72.688 -68.292 Q73.125 -65.605 71.486 -63.456 Q69.846 -61.308 67.236 -61.019 Q64.625 -60.73 62.625 -62.355 L34.125 -83.48 Z M28.375 -65.605 Q26.111 -67.218 25.743 -69.803 Q25.375 -72.388 26.99 -74.55 Q28.594 -76.759 31.172 -77.12 Q33.75 -77.48 35.927 -75.855 L48.375 -66.855 Q44.875 -65.855 42.5 -63.417 Q40.125 -60.98 38.75 -57.98 L28.375 -65.605 Z M53.5 -91.105 Q51.25 -92.73 51 -95.23 Q50.75 -97.729 52.365 -99.971 Q53.844 -102.26 56.392 -102.62 Q58.94 -102.98 61.25 -101.355 L87.375 -81.98 L87.875 -86.73 Q88.403 -90.843 91.238 -93.674 Q94.073 -96.504 98.25 -97.23 L97.875 -97.105 Q100.043 -97.48 101.827 -96.355 Q103.611 -95.23 104.25 -93.23 L114.75 -57.105 Q115.875 -53.598 115.174 -49.827 Q114.474 -46.055 112.25 -42.855 L98.875 -24.98 Q98.625 -28.855 97.133 -32.259 Q95.641 -35.663 93.25 -38.605 L102 -50.355 Q102.5 -51.105 102.688 -52.022 Q102.875 -52.938 102.5 -53.73 L98.5 -67.855 L98.75 -69.73 Q98.333 -65.968 94.854 -64.536 Q91.375 -63.105 88.25 -65.355 L53.5 -91.105 Z M28 -43.73  25.75 -45.355 Q23.5 -46.98 23.125 -49.575 Q22.75 -52.17 24.375 -54.292 Q26.006 -56.508 28.555 -56.869 Q31.103 -57.23 33.375 -55.605 L37 -52.855 Q36.625 -50.605 36.75 -48.292 Q36.875 -45.98 37.625 -43.73 H28 Z M4.5 -8.855 Q1.825 -8.855 -0.025 -10.617 Q-1.875 -12.38 -1.875 -15.23 Q-1.875 -18.08 -0.025 -19.842 Q1.825 -21.605 4.5 -21.605 H40.125 Q42.834 -21.605 44.667 -19.842 Q46.5 -18.08 46.5 -15.23 Q46.5 -12.38 44.737 -10.617 Q42.975 -8.855 40.165 -8.855 H4.5 Z M10.586 8.895 Q7.775 8.895 6.013 7.133 Q4.25 5.37 4.25 2.52 Q4.25 -0.33 6.013 -2.092 Q7.775 -3.855 10.584 -3.855 H40.125 Q42.834 -3.855 44.667 -2.092 Q46.5 -0.33 46.5 2.52 Q46.5 5.37 44.737 7.133 Q42.975 8.895 40.163 8.895 H10.586 Z M20.663 26.645 Q17.775 26.645 16.012 24.883 Q14.25 23.12 14.25 20.27 Q14.25 17.42 16.012 15.658 Q17.775 13.895 20.663 13.895 H75.125 Q76.666 13.895 77.708 12.853 Q78.75 11.811 78.75 10.27 V-22.98 Q78.75 -23.874 78.375 -24.677 Q78 -25.48 77.195 -25.897 L65.5 -34.73 L64.625 -36.355 Q66.375 -33.105 64.531 -29.855 Q62.688 -26.605 59 -26.605 H15.647 Q12.775 -26.605 11.012 -28.367 Q9.25 -30.13 9.25 -32.98 Q9.25 -35.83 11.012 -37.592 Q12.775 -39.355 15.685 -39.355 H48.25 L45.875 -43.73 Q43.875 -47.355 44.355 -51.301 Q44.835 -55.248 47.75 -58.105 L47.625 -57.98 Q49.125 -59.48 51.188 -59.667 Q53.25 -59.855 54.911 -58.575 L85 -35.98 Q88.125 -33.73 89.812 -30.292 Q91.5 -26.855 91.5 -22.98 V10.27 Q91.5 17.145 86.722 21.895 Q81.945 26.645 75.173 26.645 H20.663 Z"/></g><g id="Semibold-M" transform="matrix(1 0 0 1 1985.97 1126)"><path d="M34.56 -82.61 Q32.38 -84.161 31.934 -86.742 Q31.489 -89.322 33.06 -91.483 Q34.63 -93.643 37.175 -93.901 Q39.719 -94.159 41.897 -92.589 L69.87 -71.898 Q71.87 -70.328 72.28 -67.722 Q72.69 -65.116 71.111 -63.032 Q69.533 -60.948 66.97 -60.649 Q64.408 -60.35 62.408 -61.92 L34.56 -82.61 Z M28.864 -65.116 Q26.661 -66.68 26.344 -69.18 Q26.027 -71.681 27.592 -73.813 Q29.146 -75.992 31.638 -76.328 Q34.13 -76.665 36.285 -75.094 L48.538 -66.148 Q45.147 -65.311 42.663 -62.983 Q40.179 -60.654 38.804 -57.817 L28.864 -65.116 Z M53.663 -90.072 Q51.467 -91.643 51.19 -94.096 Q50.913 -96.548 52.478 -98.725 Q53.961 -100.949 56.436 -101.285 Q58.912 -101.621 61.141 -100.051 L87.049 -80.839 L87.712 -86.513 Q88.197 -90.254 90.793 -92.858 Q93.389 -95.461 97.163 -96.143 L96.951 -96.072 Q99.263 -96.502 101.196 -95.268 Q103.128 -94.034 103.761 -91.871 L114.152 -56.29 Q115.223 -52.757 114.552 -49.018 Q113.882 -45.278 111.652 -42.148 L98.712 -24.817 Q98.408 -28.583 96.968 -31.88 Q95.529 -35.178 93.196 -38.061 L101.674 -49.485 Q102.228 -50.235 102.389 -51.17 Q102.549 -52.105 102.228 -52.969 L97.957 -67.855 L98.098 -68.915 Q97.663 -65.264 94.302 -63.858 Q90.94 -62.453 87.924 -64.648 L53.663 -90.072 Z M28.489 -43.621  26.456 -45.138 Q24.261 -46.708 23.913 -49.215 Q23.565 -51.721 25.136 -53.831 Q26.718 -56.013 29.214 -56.35 Q31.71 -56.686 33.919 -55.116 L37 -52.801 Q36.571 -50.533 36.723 -48.202 Q36.875 -45.871 37.625 -43.621 H28.489 Z M5.261 -9.018 Q2.662 -9.018 0.801 -10.764 Q-1.06 -12.51 -1.06 -15.23 Q-1.06 -17.95 0.801 -19.696 Q2.662 -21.442 5.261 -21.442 H40.125 Q42.765 -21.442 44.551 -19.696 Q46.337 -17.95 46.337 -15.23 Q46.337 -12.51 44.591 -10.764 Q42.845 -9.018 40.148 -9.018 H5.261 Z M11.201 8.406 Q8.503 8.406 6.757 6.66 Q5.011 4.914 5.011 2.194 Q5.011 -0.526 6.757 -2.272 Q8.503 -4.018 11.199 -4.018 H40.125 Q42.765 -4.018 44.551 -2.272 Q46.337 -0.526 46.337 2.194 Q46.337 4.914 44.591 6.66 Q42.845 8.406 40.147 8.406 H11.201 Z M21.244 25.83 Q18.503 25.83 16.757 24.084 Q15.011 22.338 15.011 19.618 Q15.011 16.898 16.757 15.152 Q18.503 13.406 21.244 13.406 H75.125 Q76.735 13.406 77.824 12.317 Q78.913 11.228 78.913 9.618 V-22.654 Q78.913 -23.598 78.511 -24.403 Q78.109 -25.208 77.315 -25.697 L64.957 -35.002 L64.462 -35.92 Q66.212 -32.725 64.409 -29.583 Q62.606 -26.442 59 -26.442 H16.235 Q13.503 -26.442 11.757 -28.188 Q10.011 -29.934 10.011 -32.654 Q10.011 -35.373 11.757 -37.12 Q13.503 -38.866 16.257 -38.866 H48.522 L45.712 -44.002 Q43.875 -47.301 44.301 -50.948 Q44.727 -54.595 47.424 -57.235 L47.353 -57.165 Q48.962 -58.773 51.188 -58.988 Q53.413 -59.203 55.222 -57.827 L84.891 -35.545 Q87.962 -33.295 89.65 -29.885 Q91.337 -26.475 91.337 -22.654 V9.618 Q91.337 16.439 86.614 21.134 Q81.89 25.83 75.173 25.83 H21.244 Z"/></g><g id="Medium-M" transform="matrix(1 0 0 1 1689.91 1126)"><path d="M34.886 -81.958 Q32.738 -83.48 32.297 -86.014 Q31.856 -88.548 33.386 -90.688 Q34.916 -92.828 37.435 -93.045 Q39.953 -93.263 42.1 -91.733 L69.584 -71.369 Q71.584 -69.839 71.974 -67.294 Q72.364 -64.749 70.831 -62.713 Q69.297 -60.678 66.771 -60.371 Q64.245 -60.064 62.245 -61.594 L34.886 -81.958 Z M29.231 -64.749 Q27.073 -66.276 26.794 -68.714 Q26.516 -71.151 28.044 -73.26 Q29.56 -75.416 31.988 -75.735 Q34.416 -76.053 36.553 -74.523 L48.66 -65.619 Q45.35 -64.904 42.785 -62.657 Q40.22 -60.409 38.845 -57.695 L29.231 -64.749 Z M53.785 -89.298 Q51.63 -90.828 51.333 -93.245 Q51.035 -95.662 52.563 -97.79 Q54.049 -99.965 56.47 -100.284 Q58.891 -100.602 61.06 -99.072 L86.804 -79.983 L87.59 -86.35 Q88.042 -89.813 90.459 -92.246 Q92.876 -94.679 96.348 -95.328 L96.258 -95.298 Q98.679 -95.768 100.722 -94.453 Q102.766 -93.138 103.394 -90.852 L113.704 -55.678 Q114.734 -52.126 114.086 -48.411 Q113.438 -44.695 111.204 -41.619 L98.59 -24.695 Q98.245 -28.379 96.845 -31.597 Q95.445 -34.814 93.155 -37.654 L101.429 -48.833 Q102.025 -49.583 102.164 -50.532 Q102.304 -51.48 102.025 -52.398 L97.549 -67.855 L97.609 -68.303 Q97.16 -64.736 93.887 -63.35 Q90.614 -61.964 87.679 -64.119 L53.785 -89.298 Z M28.856 -43.54  26.986 -44.975 Q24.831 -46.504 24.504 -48.944 Q24.177 -51.384 25.706 -53.484 Q27.251 -55.641 29.709 -55.96 Q32.166 -56.279 34.326 -54.749 L37 -52.76 Q36.53 -50.479 36.703 -48.134 Q36.875 -45.79 37.625 -43.54 H28.856 Z M5.832 -9.14 Q3.29 -9.14 1.421 -10.874 Q-0.448 -12.608 -0.448 -15.23 Q-0.448 -17.852 1.421 -19.586 Q3.29 -21.32 5.832 -21.32 H40.125 Q42.713 -21.32 44.464 -19.586 Q46.215 -17.852 46.215 -15.23 Q46.215 -12.608 44.481 -10.874 Q42.747 -9.14 40.135 -9.14 H5.832 Z M11.662 8.039 Q9.05 8.039 7.316 6.305 Q5.582 4.571 5.582 1.949 Q5.582 -0.672 7.316 -2.406 Q9.05 -4.14 11.661 -4.14 H40.125 Q42.713 -4.14 44.464 -2.406 Q46.215 -0.672 46.215 1.949 Q46.215 4.571 44.481 6.305 Q42.747 8.039 40.134 8.039 H11.662 Z M21.68 25.218 Q19.049 25.218 17.316 23.484 Q15.582 21.751 15.582 19.129 Q15.582 16.507 17.316 14.773 Q19.049 13.039 21.68 13.039 H75.125 Q76.787 13.039 77.911 11.915 Q79.035 10.791 79.035 9.129 V-22.409 Q79.035 -23.391 78.613 -24.198 Q78.19 -25.004 77.406 -25.548 L64.549 -35.205 L64.34 -35.594 Q66.09 -32.439 64.317 -29.379 Q62.545 -26.32 59 -26.32 H16.676 Q14.05 -26.32 12.316 -28.054 Q10.582 -29.788 10.582 -32.409 Q10.582 -35.031 12.316 -36.765 Q14.05 -38.499 16.686 -38.499 H48.725 L45.59 -44.205 Q43.875 -47.26 44.26 -50.683 Q44.645 -54.106 47.179 -56.583 L47.15 -56.553 Q48.84 -58.244 51.188 -58.479 Q53.535 -58.714 55.454 -57.266 L84.81 -35.219 Q87.84 -32.969 89.527 -29.579 Q91.215 -26.189 91.215 -22.409 V9.129 Q91.215 15.909 86.532 20.564 Q81.85 25.218 75.173 25.218 H21.68 Z"/></g><g id="Regular-M" transform="matrix(1 0 0 1 1394.06 1126)"><path d="M35.125 -81.48 Q33 -82.98 32.562 -85.48 Q32.125 -87.98 33.625 -90.105 Q35.125 -92.23 37.625 -92.417 Q40.125 -92.605 42.25 -91.105 L69.375 -70.98 Q71.375 -69.48 71.75 -66.98 Q72.125 -64.48 70.625 -62.48 Q69.125 -60.48 66.625 -60.167 Q64.125 -59.855 62.125 -61.355 L35.125 -81.48 Z M29.5 -64.48 Q27.375 -65.98 27.125 -68.371 Q26.875 -70.763 28.375 -72.855 Q29.863 -74.994 32.244 -75.299 Q34.625 -75.605 36.75 -74.105 L48.75 -65.23 Q45.5 -64.605 42.875 -62.417 Q40.25 -60.23 38.875 -57.605 L29.5 -64.48 Z M53.875 -88.73 Q51.75 -90.23 51.438 -92.621 Q51.125 -95.013 52.625 -97.105 Q54.113 -99.244 56.494 -99.549 Q58.875 -99.855 61 -98.355 L86.625 -79.355 L87.5 -86.23 Q87.929 -89.489 90.214 -91.797 Q92.5 -94.105 95.75 -94.73 Q98.25 -95.23 100.375 -93.855 Q102.5 -92.48 103.125 -90.105 L113.375 -55.23 Q114.375 -51.664 113.743 -47.966 Q113.112 -44.268 110.875 -41.23 L98.5 -24.605 Q98.125 -28.23 96.754 -31.389 Q95.383 -34.547 93.125 -37.355 L101.25 -48.355 Q101.875 -49.105 102 -50.063 Q102.125 -51.022 101.875 -51.98 L97.25 -67.855 Q96.792 -64.349 93.583 -62.977 Q90.375 -61.605 87.5 -63.73 L53.875 -88.73 Z M29.125 -43.48  27.375 -44.855 Q25.25 -46.355 24.938 -48.746 Q24.625 -51.138 26.125 -53.23 Q27.643 -55.369 30.071 -55.674 Q32.5 -55.98 34.625 -54.48 L37 -52.73 Q36.5 -50.439 36.688 -48.084 Q36.875 -45.73 37.625 -43.48 H29.125 Z M6.25 -9.23 Q3.75 -9.23 1.875 -10.955 Q0 -12.68 0 -15.23 Q0 -17.78 1.875 -19.505 Q3.75 -21.23 6.25 -21.23 H40.125 Q42.675 -21.23 44.4 -19.505 Q46.125 -17.78 46.125 -15.23 Q46.125 -12.68 44.4 -10.955 Q42.675 -9.23 40.125 -9.23 H6.25 Z M12 7.77 Q9.45 7.77 7.725 6.045 Q6 4.32 6 1.77 Q6 -0.78 7.725 -2.505 Q9.45 -4.23 12 -4.23 H40.125 Q42.675 -4.23 44.4 -2.505 Q46.125 -0.78 46.125 1.77 Q46.125 4.32 44.4 6.045 Q42.675 7.77 40.125 7.77 H12 Z M22 24.77 Q19.45 24.77 17.725 23.045 Q16 21.32 16 18.77 Q16 16.22 17.725 14.495 Q19.45 12.77 22 12.77 H75.125 Q76.825 12.77 77.975 11.62 Q79.125 10.47 79.125 8.77 V-22.23 Q79.125 -23.24 78.688 -24.047 Q78.25 -24.855 77.472 -25.438 L64.25 -35.355 Q66 -32.23 64.25 -29.23 Q62.5 -26.23 59 -26.23 H17 Q14.45 -26.23 12.725 -27.955 Q11 -29.68 11 -32.23 Q11 -34.78 12.725 -36.505 Q14.45 -38.23 17 -38.23 H48.875 L45.5 -44.355 Q43.875 -47.23 44.23 -50.489 Q44.585 -53.748 47 -56.105 Q48.75 -57.855 51.188 -58.105 Q53.625 -58.355 55.625 -56.855 L84.75 -34.98 Q87.75 -32.73 89.438 -29.355 Q91.125 -25.98 91.125 -22.23 V8.77 Q91.125 15.52 86.472 20.145 Q81.82 24.77 75.173 24.77 H22 Z"/></g><g id="Light-M" transform="matrix(1 0 0 1 1098.18 1126)"><path d="M35.606 -81.672 Q33.913 -82.884 33.524 -84.855 Q33.135 -86.826 34.346 -88.518 Q35.558 -90.211 37.553 -90.326 Q39.548 -90.441 41.24 -89.23 L68.365 -69.105 Q69.933 -67.893 70.236 -65.922 Q70.538 -63.951 69.327 -62.384 Q68.115 -60.817 66.144 -60.552 Q64.173 -60.288 62.606 -61.499 L35.606 -81.672 Z M30.317 -65.105 Q28.625 -66.317 28.423 -68.203 Q28.221 -70.089 29.433 -71.749 Q30.632 -73.455 32.508 -73.713 Q34.385 -73.97 36.077 -72.759 L47.74 -64.172 Q45.019 -63.643 42.995 -61.816 Q40.971 -59.99 39.933 -58.038 L30.317 -65.105 Z M53.971 -88.441 Q52.279 -89.653 52.062 -91.515 Q51.846 -93.378 53.058 -95.037 Q54.257 -96.744 56.109 -97.001 Q57.962 -97.259 59.654 -96.047 L86.577 -76.085 L87.788 -85.364 Q88.169 -87.95 89.974 -89.801 Q91.779 -91.653 94.404 -92.134 L94.115 -92.086 Q96.423 -92.537 98.38 -91.259 Q100.336 -89.98 100.865 -87.797 L110.731 -54.124 Q111.683 -50.798 111.123 -47.437 Q110.564 -44.075 108.471 -41.278 L98.067 -27.249 Q97.692 -30.105 96.586 -32.518 Q95.479 -34.932 93.702 -37.115 L100.865 -46.864 Q101.683 -47.855 101.904 -49.102 Q102.125 -50.348 101.731 -51.595 L95.663 -72.182 L95.231 -68.336 Q94.808 -65.099 91.846 -63.833 Q88.885 -62.567 86.202 -64.547 L53.971 -88.441 Z M30.712 -44.249  28.529 -45.961 Q26.829 -47.152 26.593 -49.048 Q26.356 -50.945 27.567 -52.605 Q28.797 -54.311 30.721 -54.544 Q32.644 -54.778 34.337 -53.566 L37.913 -50.951 Q37.702 -49.285 37.865 -47.58 Q38.029 -45.874 38.587 -44.249 H30.712 Z M7.5 -11.778 Q5.531 -11.778 4.016 -13.144 Q2.5 -14.51 2.5 -16.53 Q2.5 -18.549 4.016 -19.914 Q5.531 -21.278 7.5 -21.278 H41.375 Q43.394 -21.278 44.759 -19.912 Q46.125 -18.546 46.125 -16.526 Q46.125 -14.507 44.759 -13.143 Q43.394 -11.778 41.375 -11.778 H7.5 Z M13.25 4.645 Q11.231 4.645 9.866 3.279 Q8.5 1.913 8.5 -0.107 Q8.5 -2.126 9.866 -3.491 Q11.231 -4.855 13.25 -4.855 H41.375 Q43.394 -4.855 44.759 -3.489 Q46.125 -2.123 46.125 -0.103 Q46.125 1.916 44.759 3.28 Q43.394 4.645 41.375 4.645 H13.25 Z M23.25 21.068 Q21.231 21.068 19.866 19.702 Q18.5 18.336 18.5 16.316 Q18.5 14.297 19.866 12.932 Q21.231 11.568 23.25 11.568 H75.413 Q77.594 11.568 79.129 10.033 Q80.664 8.499 80.664 6.318 V-22.951 Q80.664 -24.249 80.106 -25.345 Q79.548 -26.442 78.53 -27.169 L61.365 -40.019 L63.288 -36.653 Q64.894 -33.769 63.288 -30.985 Q61.683 -28.201 58.471 -28.201 H18.25 Q16.231 -28.201 14.866 -29.567 Q13.5 -30.933 13.5 -32.953 Q13.5 -34.972 14.866 -36.337 Q16.231 -37.701 18.25 -37.701 H51.76 L47.183 -45.99 Q45.894 -48.288 46.153 -50.897 Q46.412 -53.507 48.394 -55.336 L48.25 -55.191 Q49.856 -56.749 52.101 -56.975 Q54.346 -57.201 56.154 -55.845 L84.269 -34.691 Q87.029 -32.586 88.596 -29.499 Q90.163 -26.413 90.163 -22.951 V6.318 Q90.163 12.547 85.875 16.807 Q81.587 21.068 75.462 21.068 H23.25 Z"/></g><g id="Thin-M" transform="matrix(1 0 0 1 802.565 1126)"><path d="M36.087 -81.865 Q34.827 -82.788 34.486 -84.23 Q34.144 -85.672 35.067 -86.932 Q35.99 -88.192 37.481 -88.235 Q38.971 -88.278 40.231 -87.355 L67.356 -67.23 Q68.49 -66.307 68.721 -64.865 Q68.952 -63.422 68.029 -62.288 Q67.106 -61.153 65.663 -60.937 Q64.221 -60.72 63.087 -61.643 L36.087 -81.865 Z M31.135 -65.73 Q29.875 -66.653 29.721 -68.035 Q29.567 -69.416 30.49 -70.643 Q31.401 -71.917 32.773 -72.126 Q34.144 -72.336 35.404 -71.413 L46.731 -63.115 Q44.538 -62.682 43.115 -61.216 Q41.692 -59.749 40.99 -58.47 L31.135 -65.73 Z M54.067 -88.153 Q52.808 -89.076 52.688 -90.41 Q52.567 -91.743 53.49 -92.97 Q54.401 -94.244 55.725 -94.453 Q57.048 -94.663 58.308 -93.74 L86.529 -72.817 L88.077 -84.499 Q88.409 -86.412 89.734 -87.806 Q91.058 -89.201 93.058 -89.538 L92.481 -89.442 Q94.596 -89.845 96.385 -88.663 Q98.173 -87.48 98.606 -85.49 L108.087 -53.018 Q108.99 -49.933 108.503 -46.908 Q108.016 -43.883 106.067 -41.326 L97.635 -29.893 Q97.26 -31.98 96.418 -33.648 Q95.575 -35.316 94.279 -36.874 L100.481 -45.374 Q101.49 -46.605 101.808 -48.14 Q102.125 -49.675 101.587 -51.211 L94.077 -76.509 L93.212 -68.816 Q92.824 -65.85 90.109 -64.689 Q87.394 -63.528 84.904 -65.365 L54.067 -88.153 Z M32.298 -45.018  29.683 -47.066 Q28.408 -47.948 28.247 -49.351 Q28.087 -50.753 29.01 -51.98 Q29.951 -53.253 31.369 -53.415 Q32.788 -53.576 34.048 -52.653 L38.827 -49.172 Q38.904 -48.131 39.043 -47.075 Q39.183 -46.018 39.548 -45.018 H32.298 Z M8.75 -14.326 Q7.312 -14.326 6.156 -15.333 Q5 -16.341 5 -17.829 Q5 -19.318 6.156 -20.322 Q7.312 -21.326 8.75 -21.326 H42.625 Q44.112 -21.326 45.119 -20.319 Q46.125 -19.312 46.125 -17.823 Q46.125 -16.334 45.119 -15.33 Q44.112 -14.326 42.625 -14.326 H8.75 Z M14.5 1.52 Q13.012 1.52 12.006 0.513 Q11 -0.494 11 -1.983 Q11 -3.472 12.006 -4.476 Q13.012 -5.48 14.5 -5.48 H42.625 Q44.112 -5.48 45.119 -4.473 Q46.125 -3.465 46.125 -1.977 Q46.125 -0.488 45.119 0.516 Q44.112 1.52 42.625 1.52 H14.5 Z M24.5 17.366 Q23.012 17.366 22.006 16.359 Q21 15.352 21 13.863 Q21 12.374 22.006 11.37 Q23.012 10.366 24.5 10.366 H75.702 Q78.364 10.366 80.283 8.447 Q82.202 6.528 82.202 3.866 V-23.672 Q82.202 -25.259 81.524 -26.643 Q80.846 -28.028 79.588 -28.9 L58.481 -44.682 L62.327 -37.951 Q63.788 -35.307 62.327 -32.74 Q60.865 -30.172 57.942 -30.172 H19.5 Q18.012 -30.172 17.006 -31.179 Q16 -32.187 16 -33.676 Q16 -35.165 17.006 -36.168 Q18.012 -37.172 19.5 -37.172 H54.644 L48.865 -47.624 Q47.913 -49.345 48.076 -51.306 Q48.239 -53.267 49.788 -54.566 L49.5 -54.278 Q50.962 -55.643 53.014 -55.845 Q55.067 -56.047 56.683 -54.836 L83.788 -34.403 Q86.308 -32.441 87.755 -29.643 Q89.202 -26.845 89.202 -23.672 V3.866 Q89.202 9.575 85.278 13.47 Q81.355 17.366 75.75 17.366 H24.5 Z"/></g><g id="Ultralight-M" transform="matrix(1 0 0 1 506.415 1126)"><path d="M36.375 -81.98 Q35.375 -82.73 35.062 -83.855 Q34.75 -84.98 35.5 -85.98 Q36.25 -86.98 37.438 -86.98 Q38.625 -86.98 39.625 -86.23 L66.75 -66.105 Q67.625 -65.355 67.812 -64.23 Q68 -63.105 67.25 -62.23 Q66.5 -61.355 65.375 -61.167 Q64.25 -60.98 63.375 -61.73 L36.375 -81.98 Z M31.625 -66.105 Q30.625 -66.855 30.5 -67.934 Q30.375 -69.013 31.125 -69.98 Q31.863 -70.994 32.931 -71.174 Q34 -71.355 35 -70.605 L46.125 -62.48 Q44.25 -62.105 43.188 -60.855 Q42.125 -59.605 41.625 -58.73 L31.625 -66.105 Z M54.125 -87.98 Q53.125 -88.73 53.062 -89.746 Q53 -90.763 53.75 -91.73 Q54.488 -92.744 55.494 -92.924 Q56.5 -93.105 57.5 -92.355 L86.5 -70.855 L88.25 -83.98 Q88.554 -85.489 89.589 -86.609 Q90.625 -87.73 92.25 -87.98 L91.5 -87.855 Q93.5 -88.23 95.188 -87.105 Q96.875 -85.98 97.25 -84.105 L106.5 -52.355 Q107.375 -49.414 106.931 -46.591 Q106.487 -43.768 104.625 -41.355 L97.375 -31.48 Q97 -33.105 96.317 -34.326 Q95.633 -35.547 94.625 -36.73 L100.25 -44.48 Q101.375 -45.855 101.75 -47.563 Q102.125 -49.272 101.5 -50.98 L93.125 -79.105 L92 -69.105 Q91.633 -66.3 89.067 -65.203 Q86.5 -64.105 84.125 -65.855 L54.125 -87.98 Z M33.25 -45.48  30.375 -47.73 Q29.355 -48.426 29.24 -49.532 Q29.125 -50.638 29.875 -51.605 Q30.643 -52.619 31.759 -52.737 Q32.875 -52.855 33.875 -52.105 L39.375 -48.105 Q39.625 -47.439 39.75 -46.772 Q39.875 -46.105 40.125 -45.48 H33.25 Z M9.5 -15.855 Q8.381 -15.855 7.441 -16.647 Q6.5 -17.439 6.5 -18.609 Q6.5 -19.78 7.441 -20.567 Q8.381 -21.355 9.5 -21.355 H43.375 Q44.544 -21.355 45.334 -20.563 Q46.125 -19.771 46.125 -18.601 Q46.125 -17.43 45.334 -16.642 Q44.544 -15.855 43.375 -15.855 H9.5 Z M15.25 -0.355 Q14.081 -0.355 13.291 -1.147 Q12.5 -1.939 12.5 -3.109 Q12.5 -4.28 13.291 -5.067 Q14.081 -5.855 15.25 -5.855 H43.375 Q44.544 -5.855 45.334 -5.063 Q46.125 -4.271 46.125 -3.101 Q46.125 -1.93 45.334 -1.142 Q44.544 -0.355 43.375 -0.355 H15.25 Z M25.25 15.145 Q24.081 15.145 23.291 14.353 Q22.5 13.561 22.5 12.391 Q22.5 11.22 23.291 10.433 Q24.081 9.645 25.25 9.645 H75.875 Q78.825 9.645 80.975 7.495 Q83.125 5.345 83.125 2.395 V-24.105 Q83.125 -25.865 82.375 -27.422 Q81.625 -28.98 80.222 -29.938 L56.75 -47.48 L61.75 -38.73 Q63.125 -36.23 61.75 -33.792 Q60.375 -31.355 57.625 -31.355 H20.25 Q19.081 -31.355 18.291 -32.147 Q17.5 -32.939 17.5 -34.109 Q17.5 -35.28 18.291 -36.067 Q19.081 -36.855 20.25 -36.855 H56.375 L49.875 -48.605 Q49.125 -49.98 49.23 -51.551 Q49.335 -53.123 50.625 -54.105 L50.25 -53.73 Q51.625 -54.98 53.562 -55.167 Q55.5 -55.355 57 -54.23 L83.5 -34.23 Q85.875 -32.355 87.25 -29.73 Q88.625 -27.105 88.625 -24.105 V2.395 Q88.625 7.791 84.92 11.468 Q81.216 15.145 75.923 15.145 H25.25 Z"/></g><g id="Bold-S" transform="matrix(1 0 0 1 2294.23 696)"><path d="M27.418 -76.357 Q25.96 -77.611 25.653 -79.548 Q25.347 -81.485 26.629 -82.915 Q27.911 -84.345 29.847 -84.493 Q31.783 -84.641 33.237 -83.359 L56.709 -63.93 Q57.992 -62.648 58.287 -60.675 Q58.583 -58.703 57.29 -57.303 Q55.996 -55.904 54.035 -55.725 Q52.074 -55.547 50.792 -56.829 L27.418 -76.357 Z M22.684 -61.957 Q21.193 -63.23 21.002 -65.171 Q20.81 -67.112 22.084 -68.522 Q23.35 -69.969 25.236 -70.204 Q27.122 -70.439 28.544 -69.157 L42.113 -58.308 Q39.45 -57.322 37.921 -55.349 Q36.393 -53.377 35.604 -51.404 L22.684 -61.957 Z M44.184 -80.302 Q42.705 -81.584 42.655 -83.457 Q42.606 -85.331 43.881 -86.804 Q45.047 -88.314 46.91 -88.499 Q48.772 -88.685 50.299 -87.403 L69.531 -71.228 L70.32 -74.187 Q70.933 -77.334 73.368 -79.468 Q75.802 -81.603 79.175 -82.018 L78.9 -81.88 Q80.534 -82.175 81.881 -81.14 Q83.228 -80.104 83.437 -78.526 L87.875 -49.432 Q88.467 -46.764 87.667 -44.084 Q86.868 -41.404 85.113 -39.175 L78.012 -30.496 Q77.322 -32.863 75.948 -34.858 Q74.573 -36.854 72.687 -38.485 L77.914 -44.994 Q78.407 -45.586 78.752 -46.358 Q79.097 -47.131 78.801 -47.953 L77.519 -61.464 L77.322 -61.957 Q76.796 -59.285 74.258 -58.353 Q71.72 -57.421 69.432 -59.196 L44.184 -80.302 Z M25.248 -41.443  20.909 -45.092 Q19.429 -46.375 19.183 -48.274 Q18.936 -50.174 20.218 -51.552 Q21.505 -53.004 23.417 -53.24 Q25.329 -53.476 26.826 -52.193 L34.322 -46.177 Q34.42 -45.015 34.519 -43.821 Q34.617 -42.627 35.111 -41.443 H25.248 Z M6.312 -15.209 Q4.369 -15.209 3.023 -16.48 Q1.677 -17.752 1.677 -19.824 Q1.677 -21.896 3.023 -23.188 Q4.369 -24.48 6.312 -24.48 H36.787 Q38.757 -24.48 40.09 -23.209 Q41.422 -21.937 41.422 -19.865 Q41.422 -17.793 40.145 -16.501 Q38.868 -15.209 36.819 -15.209 H6.312 Z M11.903 -1.204 Q9.853 -1.204 8.575 -2.476 Q7.298 -3.747 7.298 -5.819 Q7.298 -7.891 8.575 -9.183 Q9.853 -10.475 11.901 -10.475 H36.787 Q38.757 -10.475 40.09 -9.204 Q41.422 -7.933 41.422 -5.861 Q41.422 -3.788 40.145 -2.496 Q38.868 -1.204 36.818 -1.204 H11.903 Z M21.412 12.8 Q19.35 12.8 18.058 11.529 Q16.766 10.258 16.766 8.186 Q16.766 6.114 18.043 4.822 Q19.321 3.53 21.432 3.53 H59.274 Q61.771 3.53 63.53 1.77 Q65.29 0.011 65.29 -2.486 V-24.184 Q65.29 -25.013 64.994 -25.745 Q64.698 -26.477 64.062 -26.88 L54.047 -35.92 L53.849 -36.315 Q55.131 -33.948 53.726 -31.581 Q52.321 -29.214 49.707 -29.214 H16.685 Q14.587 -29.214 13.309 -30.485 Q12.032 -31.756 12.032 -33.828 Q12.032 -35.901 13.309 -37.193 Q14.587 -38.485 16.715 -38.485 H41.916 L40.436 -41.443 Q38.957 -44.303 39.385 -47.417 Q39.813 -50.531 42.113 -52.785 Q43.234 -53.87 44.779 -54.018 Q46.323 -54.166 47.566 -53.156 L70.024 -33.948 Q72.194 -32.173 73.377 -29.559 Q74.561 -26.945 74.561 -24.184 V-2.486 Q74.561 3.924 70.101 8.362 Q65.641 12.8 59.312 12.8 H21.412 Z"/></g><g id="Semibold-S" transform="matrix(1 0 0 1 1998.1 696)"><path d="M27.761 -75.671 Q26.337 -76.894 26.035 -78.782 Q25.733 -80.67 26.972 -82.079 Q28.211 -83.488 30.12 -83.593 Q32.029 -83.698 33.451 -82.459 L56.409 -63.372 Q57.691 -62.133 57.966 -60.225 Q58.24 -58.317 56.994 -56.969 Q55.749 -55.62 53.826 -55.433 Q51.902 -55.247 50.62 -56.486 L27.761 -75.671 Z M23.07 -61.571 Q21.627 -62.805 21.476 -64.68 Q21.324 -66.554 22.559 -67.941 Q23.785 -69.364 25.603 -69.58 Q27.422 -69.796 28.826 -68.557 L42.241 -57.751 Q39.664 -56.893 38.05 -55.006 Q36.436 -53.12 35.647 -51.276 L23.07 -61.571 Z M44.313 -79.487 Q42.876 -80.726 42.805 -82.563 Q42.735 -84.399 43.97 -85.821 Q45.139 -87.279 46.945 -87.446 Q48.75 -87.613 50.213 -86.374 L69.273 -70.328 L70.191 -74.015 Q70.771 -76.869 73.016 -78.824 Q75.262 -80.78 78.318 -81.16 L78.171 -81.065 Q79.919 -81.404 81.383 -80.282 Q82.847 -79.161 83.051 -77.454 L87.403 -48.789 Q87.952 -46.1 87.176 -43.446 Q86.401 -40.791 84.642 -38.618 L77.884 -30.367 Q77.15 -32.649 75.818 -34.56 Q74.485 -36.471 72.644 -38.056 L77.656 -44.308 Q78.192 -44.9 78.516 -45.686 Q78.84 -46.473 78.587 -47.352 L77.09 -61.464 L76.807 -61.314 Q76.267 -58.73 73.822 -57.818 Q71.377 -56.906 69.175 -58.638 L44.313 -79.487 Z M25.634 -41.358  21.466 -44.921 Q20.029 -46.16 19.804 -47.99 Q19.579 -49.82 20.818 -51.188 Q22.066 -52.614 23.937 -52.83 Q25.809 -53.047 27.255 -51.808 L34.322 -46.134 Q34.377 -44.958 34.497 -43.75 Q34.617 -42.541 35.111 -41.358 H25.634 Z M6.912 -15.338 Q5.029 -15.338 3.675 -16.596 Q2.32 -17.854 2.32 -19.824 Q2.32 -21.793 3.675 -23.072 Q5.029 -24.351 6.912 -24.351 H36.787 Q38.703 -24.351 39.998 -23.093 Q41.294 -21.835 41.294 -19.865 Q41.294 -17.896 40.03 -16.617 Q38.765 -15.338 36.805 -15.338 H6.912 Z M12.388 -1.59 Q10.427 -1.59 9.163 -2.849 Q7.899 -4.107 7.899 -6.076 Q7.899 -8.045 9.163 -9.325 Q10.427 -10.604 12.387 -10.604 H36.787 Q38.703 -10.604 39.998 -9.345 Q41.294 -8.087 41.294 -6.118 Q41.294 -4.149 40.03 -2.869 Q38.765 -1.59 36.804 -1.59 H12.388 Z M21.87 12.157 Q19.925 12.157 18.646 10.899 Q17.367 9.641 17.367 7.671 Q17.367 5.702 18.631 4.423 Q19.895 3.144 21.89 3.144 H59.274 Q61.826 3.144 63.622 1.348 Q65.418 -0.449 65.418 -3.001 V-23.927 Q65.418 -24.795 65.101 -25.529 Q64.784 -26.263 64.158 -26.723 L53.618 -36.135 L53.721 -35.972 Q55.003 -33.648 53.63 -31.366 Q52.256 -29.085 49.707 -29.085 H17.149 Q15.161 -29.085 13.897 -30.344 Q12.633 -31.602 12.633 -33.571 Q12.633 -35.54 13.897 -36.82 Q15.161 -38.099 17.166 -38.099 H42.13 L40.308 -41.658 Q38.957 -44.261 39.342 -47.138 Q39.727 -50.016 41.856 -52.099 L41.898 -52.142 Q43.105 -53.313 44.779 -53.482 Q46.452 -53.651 47.811 -52.566 L69.938 -33.605 Q72.065 -31.83 73.248 -29.237 Q74.432 -26.645 74.432 -23.927 V-3.001 Q74.432 3.367 70.015 7.762 Q65.598 12.157 59.312 12.157 H21.87 Z"/></g><g id="Medium-S" transform="matrix(1 0 0 1 1701.85 696)"><path d="M28.018 -75.156 Q26.619 -76.356 26.32 -78.208 Q26.022 -80.059 27.229 -81.452 Q28.436 -82.844 30.325 -82.917 Q32.214 -82.99 33.612 -81.783 L56.184 -62.954 Q57.466 -61.747 57.725 -59.887 Q57.983 -58.027 56.773 -56.717 Q55.563 -55.407 53.669 -55.214 Q51.774 -55.021 50.492 -56.229 L28.018 -75.156 Z M23.359 -61.282 Q21.952 -62.487 21.831 -64.311 Q21.71 -66.136 22.916 -67.504 Q24.112 -68.909 25.879 -69.111 Q27.647 -69.314 29.038 -68.106 L42.338 -57.333 Q39.825 -56.572 38.146 -54.749 Q36.468 -52.927 35.679 -51.179 L23.359 -61.282 Z M44.409 -78.876 Q43.005 -80.083 42.918 -81.891 Q42.831 -83.7 44.036 -85.083 Q45.209 -86.503 46.971 -86.656 Q48.733 -86.809 50.149 -85.602 L69.08 -69.652 L70.094 -73.887 Q70.649 -76.52 72.753 -78.341 Q74.857 -80.163 77.675 -80.517 L77.624 -80.454 Q79.458 -80.825 81.01 -79.639 Q82.561 -78.453 82.761 -76.65 L87.049 -48.306 Q87.566 -45.603 86.808 -42.967 Q86.05 -40.331 84.288 -38.2 L77.787 -30.271 Q77.022 -32.488 75.72 -34.336 Q74.418 -36.184 72.612 -37.734 L77.464 -43.793 Q78.032 -44.385 78.339 -45.183 Q78.647 -45.98 78.426 -46.902 L76.769 -61.464 L76.422 -60.832 Q75.871 -58.313 73.495 -57.417 Q71.12 -56.52 68.982 -58.22 L44.409 -78.876 Z M25.923 -41.293  21.884 -44.792 Q20.48 -45.999 20.271 -47.777 Q20.062 -49.554 21.269 -50.915 Q22.488 -52.321 24.328 -52.523 Q26.168 -52.725 27.576 -51.518 L34.322 -46.102 Q34.345 -44.916 34.481 -43.696 Q34.617 -42.477 35.111 -41.293 H25.923 Z M7.363 -15.434 Q5.525 -15.434 4.163 -16.683 Q2.802 -17.932 2.802 -19.824 Q2.802 -21.716 4.163 -22.985 Q5.525 -24.255 7.363 -24.255 H36.787 Q38.661 -24.255 39.929 -23.006 Q41.197 -21.757 41.197 -19.865 Q41.197 -17.973 39.943 -16.704 Q38.688 -15.434 36.795 -15.434 H7.363 Z M12.752 -1.88 Q10.858 -1.88 9.604 -3.128 Q8.349 -4.377 8.349 -6.269 Q8.349 -8.161 9.604 -9.431 Q10.858 -10.7 12.751 -10.7 H36.787 Q38.661 -10.7 39.929 -9.451 Q41.197 -8.203 41.197 -6.311 Q41.197 -4.419 39.943 -3.149 Q38.688 -1.88 36.794 -1.88 H12.752 Z M22.214 11.675 Q20.356 11.675 19.086 10.426 Q17.817 9.177 17.817 7.285 Q17.817 5.393 19.072 4.124 Q20.326 2.854 22.234 2.854 H59.274 Q61.867 2.854 63.691 1.03 Q65.515 -0.794 65.515 -3.387 V-23.734 Q65.515 -24.632 65.181 -25.367 Q64.848 -26.102 64.229 -26.605 L53.296 -36.296 L53.624 -35.715 Q54.906 -33.423 53.557 -31.206 Q52.208 -28.989 49.707 -28.989 H17.497 Q15.592 -28.989 14.338 -30.238 Q13.083 -31.486 13.083 -33.378 Q13.083 -35.27 14.338 -36.54 Q15.592 -37.809 17.504 -37.809 H42.291 L40.211 -41.819 Q38.957 -44.228 39.31 -46.929 Q39.663 -49.63 41.663 -51.585 L41.738 -51.66 Q43.009 -52.895 44.779 -53.08 Q46.549 -53.266 47.994 -52.123 L69.874 -33.348 Q71.968 -31.572 73.152 -28.996 Q74.335 -26.42 74.335 -23.734 V-3.387 Q74.335 2.949 69.95 7.312 Q65.566 11.675 59.312 11.675 H22.214 Z"/></g><g id="Regular-S" transform="matrix(1 0 0 1 1405.73 696)"><path d="M28.207 -74.779 Q26.826 -75.962 26.53 -77.787 Q26.234 -79.611 27.418 -80.992 Q28.601 -82.373 30.475 -82.422 Q32.349 -82.471 33.73 -81.288 L56.019 -62.648 Q57.301 -61.464 57.548 -59.64 Q57.794 -57.815 56.611 -56.533 Q55.427 -55.251 53.553 -55.054 Q51.68 -54.856 50.397 -56.04 L28.207 -74.779 Z M23.571 -61.07 Q22.191 -62.253 22.092 -64.041 Q21.993 -65.829 23.177 -67.184 Q24.351 -68.576 26.082 -68.768 Q27.812 -68.96 29.193 -67.776 L42.409 -57.026 Q39.943 -56.336 38.217 -54.56 Q36.491 -52.785 35.702 -51.109 L23.571 -61.07 Z M44.48 -78.428 Q43.099 -79.611 43.001 -81.399 Q42.902 -83.187 44.085 -84.542 Q45.26 -85.934 46.99 -86.077 Q48.721 -86.219 50.102 -85.036 L68.939 -69.157 L70.024 -73.792 Q70.559 -76.265 72.56 -77.987 Q74.561 -79.71 77.203 -80.045 L77.223 -80.006 Q79.12 -80.4 80.736 -79.167 Q82.352 -77.935 82.549 -76.061 L86.79 -47.953 Q87.283 -45.238 86.538 -42.616 Q85.793 -39.994 84.029 -37.893 L77.716 -30.2 Q76.928 -32.37 75.649 -34.172 Q74.37 -35.973 72.588 -37.498 L77.322 -43.416 Q77.914 -44.008 78.21 -44.813 Q78.505 -45.618 78.308 -46.572 L76.533 -61.464 L76.139 -60.478 Q75.58 -58.008 73.255 -57.122 Q70.931 -56.237 68.84 -57.914 L44.48 -78.428 Z M26.136 -41.246  22.191 -44.698 Q20.81 -45.881 20.613 -47.62 Q20.415 -49.359 21.599 -50.714 Q22.796 -52.106 24.614 -52.298 Q26.431 -52.489 27.812 -51.306 L34.322 -46.079 Q34.322 -44.884 34.469 -43.657 Q34.617 -42.43 35.111 -41.246 H26.136 Z M7.693 -15.505 Q5.888 -15.505 4.522 -16.747 Q3.156 -17.988 3.156 -19.824 Q3.156 -21.659 4.522 -22.922 Q5.888 -24.184 7.693 -24.184 H36.787 Q38.631 -24.184 39.879 -22.942 Q41.127 -21.701 41.127 -19.865 Q41.127 -18.03 39.879 -16.767 Q38.631 -15.505 36.787 -15.505 H7.693 Z M13.019 -2.092 Q11.174 -2.092 9.927 -3.334 Q8.679 -4.575 8.679 -6.411 Q8.679 -8.246 9.927 -9.509 Q11.174 -10.771 13.019 -10.771 H36.787 Q38.631 -10.771 39.879 -9.529 Q41.127 -8.288 41.127 -6.452 Q41.127 -4.617 39.879 -3.354 Q38.631 -2.092 36.787 -2.092 H13.019 Z M22.467 11.321 Q20.672 11.321 19.409 10.079 Q18.147 8.838 18.147 7.002 Q18.147 5.167 19.395 3.904 Q20.642 2.642 22.486 2.642 H59.274 Q61.897 2.642 63.741 0.798 Q65.586 -1.047 65.586 -3.67 V-23.592 Q65.586 -24.512 65.24 -25.248 Q64.895 -25.984 64.282 -26.518 L53.06 -36.413 L53.553 -35.526 Q54.836 -33.257 53.504 -31.088 Q52.173 -28.918 49.707 -28.918 H17.753 Q15.908 -28.918 14.661 -30.16 Q13.413 -31.401 13.413 -33.237 Q13.413 -35.072 14.661 -36.335 Q15.908 -37.597 17.753 -37.597 H42.409 L40.14 -41.936 Q38.957 -44.205 39.286 -46.776 Q39.616 -49.347 41.521 -51.207 L41.62 -51.306 Q42.938 -52.588 44.779 -52.785 Q46.619 -52.982 48.129 -51.799 L69.827 -33.159 Q71.898 -31.384 73.081 -28.819 Q74.265 -26.255 74.265 -23.592 V-3.67 Q74.265 2.642 69.903 6.982 Q65.542 11.321 59.312 11.321 H22.467 Z"/></g><g id="Light-S" transform="matrix(1 0 0 1 1109.75 696)"><path d="M28.586 -74.93 Q27.547 -75.886 27.289 -77.294 Q27.031 -78.701 27.987 -79.74 Q28.943 -80.779 30.418 -80.772 Q31.894 -80.764 32.933 -79.808 L55.222 -61.168 Q56.163 -60.212 56.353 -58.805 Q56.542 -57.398 55.587 -56.457 Q54.631 -55.516 53.174 -55.357 Q51.717 -55.198 50.777 -56.154 L28.586 -74.93 Z M24.216 -61.563 Q23.177 -62.519 23.116 -63.909 Q23.056 -65.298 24.011 -66.312 Q24.958 -67.362 26.29 -67.516 Q27.623 -67.67 28.662 -66.714 L41.612 -56.192 Q39.564 -55.577 38.312 -54.086 Q37.06 -52.596 36.537 -51.45 L24.216 -61.563 Z M44.556 -78.2 Q43.516 -79.156 43.494 -80.527 Q43.471 -81.898 44.427 -82.911 Q45.373 -83.962 46.687 -84.066 Q48 -84.171 49.039 -83.215 L68.901 -66.577 L70.251 -73.109 Q70.749 -75.051 72.37 -76.413 Q73.991 -77.775 76.141 -77.997 L75.934 -77.919 Q77.678 -78.276 79.162 -77.119 Q80.645 -75.962 80.766 -74.24 L84.704 -47.08 Q85.159 -44.555 84.471 -42.198 Q83.783 -39.842 82.132 -37.931 L77.375 -32.287 Q76.586 -33.849 75.516 -35.063 Q74.446 -36.277 73.043 -37.309 L77.019 -42.24 Q77.762 -43.021 78.134 -44.054 Q78.505 -45.087 78.194 -46.268 L75.281 -64.878 L74.545 -60.857 Q74.014 -58.6 71.885 -57.798 Q69.755 -56.996 67.816 -58.559 L44.556 -78.2 Z M27.387 -41.853  23.101 -45.571 Q22.056 -46.51 21.918 -47.859 Q21.781 -49.207 22.737 -50.221 Q23.707 -51.271 25.126 -51.406 Q26.545 -51.541 27.585 -50.585 L35.042 -44.675 Q35.27 -43.974 35.399 -43.259 Q35.528 -42.543 35.869 -41.853 H27.387 Z M8.679 -17.516 Q7.293 -17.516 6.211 -18.474 Q5.129 -19.432 5.129 -20.849 Q5.129 -22.266 6.211 -23.244 Q7.293 -24.222 8.679 -24.222 H37.773 Q39.199 -24.222 40.163 -23.264 Q41.127 -22.305 41.127 -20.888 Q41.127 -19.471 40.163 -18.493 Q39.199 -17.516 37.773 -17.516 H8.679 Z M14.005 -4.558 Q12.58 -4.558 11.616 -5.516 Q10.652 -6.475 10.652 -7.892 Q10.652 -9.308 11.616 -10.286 Q12.58 -11.264 14.005 -11.264 H37.773 Q39.199 -11.264 40.163 -10.306 Q41.127 -9.347 41.127 -7.93 Q41.127 -6.514 40.163 -5.536 Q39.199 -4.558 37.773 -4.558 H14.005 Z M23.453 8.4 Q22.077 8.4 21.098 7.441 Q20.12 6.483 20.12 5.066 Q20.12 3.649 21.084 2.671 Q22.048 1.694 23.473 1.694 H59.501 Q62.504 1.694 64.652 -0.454 Q66.8 -2.602 66.8 -5.605 V-24.161 Q66.8 -25.309 66.36 -26.272 Q65.919 -27.236 65.116 -27.884 L50.784 -40.093 L52.795 -36.55 Q53.963 -34.471 52.745 -32.472 Q51.528 -30.473 49.29 -30.473 H18.739 Q17.314 -30.473 16.35 -31.432 Q15.386 -32.39 15.386 -33.807 Q15.386 -35.224 16.35 -36.202 Q17.314 -37.18 18.739 -37.18 H44.685 L41.468 -43.226 Q40.55 -45.039 40.804 -47.099 Q41.057 -49.158 42.621 -50.6 L42.606 -50.585 Q43.81 -51.715 45.499 -51.894 Q47.188 -52.072 48.546 -51.002 L69.447 -32.931 Q71.329 -31.27 72.417 -28.933 Q73.506 -26.597 73.506 -24.161 V-5.605 Q73.506 0.296 69.432 4.348 Q65.359 8.4 59.539 8.4 H23.453 Z"/></g><g id="Thin-S" transform="matrix(1 0 0 1 814.015 696)"><path d="M28.965 -75.082 Q28.267 -75.81 28.047 -76.8 Q27.827 -77.791 28.556 -78.489 Q29.284 -79.186 30.361 -79.122 Q31.439 -79.057 32.137 -78.329 L54.426 -59.689 Q55.025 -58.961 55.158 -57.971 Q55.291 -56.981 54.562 -56.381 Q53.834 -55.782 52.795 -55.661 Q51.755 -55.539 51.156 -56.268 L28.965 -75.082 Z M24.861 -62.056 Q24.163 -62.784 24.14 -63.776 Q24.118 -64.767 24.846 -65.44 Q25.565 -66.149 26.499 -66.264 Q27.433 -66.38 28.131 -65.652 L40.816 -55.357 Q39.185 -54.818 38.407 -53.612 Q37.629 -52.406 37.371 -51.791 L24.861 -62.056 Z M44.632 -77.973 Q43.934 -78.701 43.987 -79.654 Q44.04 -80.608 44.768 -81.28 Q45.487 -81.989 46.383 -82.056 Q47.279 -82.122 47.977 -81.394 L68.863 -63.998 L70.479 -72.427 Q70.938 -73.837 72.18 -74.839 Q73.423 -75.841 75.079 -75.949 L74.644 -75.833 Q76.237 -76.152 77.588 -75.071 Q78.938 -73.99 78.983 -72.419 L82.617 -46.208 Q83.035 -43.872 82.404 -41.781 Q81.773 -39.69 80.235 -37.969 L77.034 -34.373 Q76.245 -35.329 75.383 -35.954 Q74.521 -36.58 73.498 -37.119 L76.715 -41.064 Q77.61 -42.035 78.058 -43.296 Q78.505 -44.556 78.081 -45.965 L74.03 -68.292 L72.952 -61.237 Q72.449 -59.192 70.514 -58.473 Q68.579 -57.754 66.792 -59.203 L44.632 -77.973 Z M28.639 -42.46  24.011 -46.443 Q23.301 -47.139 23.224 -48.097 Q23.146 -49.056 23.875 -49.728 Q24.617 -50.437 25.638 -50.515 Q26.659 -50.593 27.357 -49.864 L35.763 -43.272 Q36.218 -43.064 36.328 -42.861 Q36.438 -42.657 36.628 -42.46 H28.639 Z M9.665 -19.526 Q8.699 -19.526 7.9 -20.201 Q7.101 -20.877 7.101 -21.875 Q7.101 -22.873 7.9 -23.566 Q8.699 -24.26 9.665 -24.26 H38.76 Q39.766 -24.26 40.446 -23.585 Q41.127 -22.909 41.127 -21.911 Q41.127 -20.913 40.446 -20.219 Q39.766 -19.526 38.76 -19.526 H9.665 Z M14.991 -7.023 Q13.985 -7.023 13.305 -7.699 Q12.624 -8.374 12.624 -9.372 Q12.624 -10.37 13.305 -11.064 Q13.985 -11.757 14.991 -11.757 H38.76 Q39.766 -11.757 40.446 -11.082 Q41.127 -10.407 41.127 -9.408 Q41.127 -8.41 40.446 -7.717 Q39.766 -7.023 38.76 -7.023 H14.991 Z M24.439 5.479 Q23.483 5.479 22.787 4.804 Q22.092 4.129 22.092 3.13 Q22.092 2.132 22.773 1.439 Q23.453 0.745 24.459 0.745 H59.729 Q63.111 0.745 65.562 -1.706 Q68.013 -4.157 68.013 -7.539 V-24.73 Q68.013 -26.105 67.478 -27.296 Q66.944 -28.487 65.951 -29.249 L48.508 -43.772 L52.036 -37.574 Q53.091 -35.685 51.987 -33.857 Q50.883 -32.028 48.873 -32.028 H19.725 Q18.719 -32.028 18.039 -32.704 Q17.358 -33.379 17.358 -34.377 Q17.358 -35.376 18.039 -36.069 Q18.719 -36.763 19.725 -36.763 H46.961 L42.796 -44.516 Q42.143 -45.874 42.321 -47.421 Q42.499 -48.968 43.721 -49.993 L43.592 -49.864 Q44.683 -50.843 46.22 -51.002 Q47.757 -51.162 48.963 -50.206 L69.068 -32.704 Q70.76 -31.156 71.754 -29.047 Q72.747 -26.938 72.747 -24.73 V-7.539 Q72.747 -2.049 68.961 1.715 Q65.175 5.479 59.767 5.479 H24.439 Z"/></g><g id="Ultralight-S" transform="matrix(1 0 0 1 517.792 696)"><path d="M29.193 -75.173 Q28.7 -75.765 28.503 -76.505 Q28.305 -77.244 28.897 -77.737 Q29.489 -78.23 30.327 -78.132 Q31.166 -78.033 31.659 -77.441 L53.948 -58.801 Q54.342 -58.21 54.441 -57.47 Q54.54 -56.73 53.948 -56.336 Q53.356 -55.941 52.567 -55.843 Q51.778 -55.744 51.384 -56.336 L29.193 -75.173 Z M25.248 -62.352 Q24.755 -62.944 24.755 -63.696 Q24.755 -64.449 25.347 -64.916 Q25.929 -65.42 26.624 -65.513 Q27.319 -65.606 27.812 -65.015 L40.338 -54.856 Q38.957 -54.363 38.464 -53.328 Q37.971 -52.292 37.872 -51.996 L25.248 -62.352 Z M44.677 -77.836 Q44.184 -78.428 44.283 -79.131 Q44.381 -79.834 44.973 -80.302 Q45.555 -80.806 46.201 -80.85 Q46.847 -80.893 47.34 -80.302 L68.84 -62.45 L70.615 -72.017 Q71.052 -73.109 72.067 -73.894 Q73.081 -74.68 74.441 -74.719 L73.87 -74.581 Q75.372 -74.877 76.643 -73.842 Q77.914 -72.806 77.914 -71.327 L81.366 -45.684 Q81.76 -43.462 81.163 -41.531 Q80.566 -39.599 79.097 -37.991 L76.829 -35.624 Q76.04 -36.216 75.303 -36.489 Q74.567 -36.762 73.772 -37.005 L76.533 -40.358 Q77.519 -41.443 78.012 -42.841 Q78.505 -44.238 78.012 -45.783 L73.278 -70.34 L71.996 -61.464 Q71.51 -59.547 69.692 -58.878 Q67.874 -58.21 66.177 -59.59 L44.677 -77.836 Z M29.39 -42.824  24.558 -46.966 Q24.049 -47.516 24.007 -48.24 Q23.966 -48.965 24.558 -49.432 Q25.163 -49.936 25.945 -49.98 Q26.727 -50.024 27.221 -49.432 L36.195 -42.43 Q36.787 -42.517 36.886 -42.621 Q36.984 -42.725 37.083 -42.824 H29.39 Z M10.257 -20.732 Q9.542 -20.732 8.913 -21.238 Q8.284 -21.743 8.284 -22.49 Q8.284 -23.237 8.913 -23.76 Q9.542 -24.283 10.257 -24.283 H39.351 Q40.106 -24.283 40.616 -23.777 Q41.127 -23.272 41.127 -22.525 Q41.127 -21.778 40.616 -21.255 Q40.106 -20.732 39.351 -20.732 H10.257 Z M15.583 -8.503 Q14.828 -8.503 14.318 -9.008 Q13.808 -9.513 13.808 -10.261 Q13.808 -11.008 14.318 -11.53 Q14.828 -12.053 15.583 -12.053 H39.351 Q40.106 -12.053 40.616 -11.548 Q41.127 -11.042 41.127 -10.295 Q41.127 -9.548 40.616 -9.025 Q40.106 -8.503 39.351 -8.503 H15.583 Z M25.031 3.727 Q24.326 3.727 23.801 3.221 Q23.276 2.716 23.276 1.969 Q23.276 1.222 23.786 0.699 Q24.296 0.176 25.051 0.176 H59.865 Q63.475 0.176 66.108 -2.457 Q68.742 -5.09 68.742 -8.7 V-25.072 Q68.742 -26.583 68.15 -27.911 Q67.558 -29.239 66.451 -30.069 L47.143 -45.98 L51.581 -38.189 Q52.567 -36.413 51.532 -34.688 Q50.496 -32.962 48.622 -32.962 H20.317 Q19.562 -32.962 19.052 -33.467 Q18.541 -33.972 18.541 -34.72 Q18.541 -35.467 19.052 -35.989 Q19.562 -36.512 20.317 -36.512 H48.326 L43.592 -45.29 Q43.099 -46.375 43.231 -47.614 Q43.364 -48.854 44.381 -49.629 L44.184 -49.432 Q45.206 -50.32 46.652 -50.468 Q48.099 -50.615 49.214 -49.728 L68.84 -32.567 Q70.418 -31.088 71.355 -29.115 Q72.292 -27.143 72.292 -25.072 V-8.7 Q72.292 -3.456 68.679 0.135 Q65.065 3.727 59.903 3.727 H25.031 Z"/></g></g></svg>