<svg xmlns="http://www.w3.org/2000/svg" height="48" viewBox="0 -960 960 960" width="48"><path d="M837.922-37.233 39.617-836.383l41.615-42.615 797.92 800.152-41.23 41.614ZM633.999-84q-15.615 0-28.538-14.028-12.923-14.027-12.923-28.434v-125.922q0-14.256 10.115-24.551 10.116-10.295 25.731-10.295h43.384l163.846 164.127v2.031q-2.385 13.764-14.808 25.418t-24.269 11.654H633.999Zm160.769-174.693-38.384-39.384v-29.153q0-19.231-11.693-31.847-11.692-12.615-29.923-12.615-7.307 0-13.576 3.231-6.27 3.231-9.116 7.307l-28.692-28.307q10.226-9.308 23.344-14.961 13.117-5.654 27.557-5.654 34.241 0 57.362 23.879 23.121 23.879 23.121 58.936v68.568ZM509.692-616.076v-272.768q104.845 11.307 175.076 89.219 70.231 77.913 70.231 183.549H509.692ZM613.49-439.078 494.154-557.693h260.845v92.999q-9.427-1.615-19.598-3.23-10.171-1.616-20.388-1.616-28.378 0-53.619 8.116-25.241 8.115-47.904 22.346ZM481-84.001q-114.852 0-195.425-79.865Q205.001-243.73 205.001-359v-198.693h196.921l163.846 164.077q-17.769 23.769-27.654 51.639-9.885 27.869-9.885 58.592v193.691q-11.615 2.847-23.531 4.27-11.916 1.423-23.698 1.423Zm-29.692-516.153L264.463-785.655q33.461-42.882 81.576-70.305 48.116-27.423 105.269-32.884v288.69Zm-246.307-15.922q0-30.154 6.507-58.542 6.506-28.387 19.262-54.227l112.769 112.769H205.001Z"/></svg>