<svg xmlns="http://www.w3.org/2000/svg" height="40" viewBox="0 -960 960 960" width="40"><path d="M474.564-196.309q-14.519 0-24.323-9.808-9.805-9.808-9.805-24.333 0-13.858 9.805-23.652 9.804-9.795 24.323-9.795h333.538q13.852 0 23.656 9.808 9.805 9.808 9.805 23.666 0 14.525-9.805 24.32-9.804 9.794-23.656 9.794H474.564Zm167.089-161.487q-13.858 0-23.653-9.804-9.794-9.804-9.794-24.323v-239.541l-47.848 47.848q-9.897 9.897-23.833 10.089-13.935.193-23.55-10.089-10.282-9.615-10.282-23.358 0-13.744 10.282-24.026l101.102-101.102q11.359-11.359 27.589-11.359 16.231 0 28.256 11.359L771.025-631q9.23 9.898 9.422 23.833.193 13.936-9.422 23.551-10.282 10.282-24.025 10.282-13.744 0-23.359-10.282l-47.847-47.848v239.541q0 14.519-10.142 24.323-10.141 9.804-23.999 9.804Zm-487.178 0q-13.025 0-20.57-10.41t-2.391-22.435L256.361-707.95q2.76-6.446 8.483-10.813 5.723-4.366 13.183-4.366h18.08q7.611 0 13.323 4.366 5.712 4.367 9.134 10.813l124.949 318.617q4.154 11.204-3.013 21.371-7.166 10.166-19.339 10.166-8.032 0-13.942-4.038t-8.192-12.013l-32.231-83.231h-159.18l-31.565 83.103q-2.948 6.923-8.538 11.551-5.589 4.628-13.038 4.628Zm68.833-141.692H350.95l-62.206-166.257h-4l-61.436 166.257Z"/></svg>