<svg xmlns="http://www.w3.org/2000/svg" version="1.1" width="3300" height="2000"><g id="Notes"><style>
    text {
      font-family: monospace;
      text-anchor: middle;
    }
    text.emphasis {
      font-weight:bold;
    }
    text.lanchor {
      text-anchor: start;
    }
  </style><rect height="2200" id="artboard" fill="white" width="3300" x="0" y="0"/><line id="" style="fill:none;stroke:black;stroke-width:0.5;" x1="263" x2="3036" y1="292" y2="292"/><text class="lanchor emphasis" transform="matrix(1 0 0 1 263 322)">Weight/Scale Variations</text><text transform="matrix(1 0 0 1 559.711 322)">Ultralight</text><text transform="matrix(1 0 0 1 856.422 322)">Thin</text><text transform="matrix(1 0 0 1 1153.13 322)">Light</text><text transform="matrix(1 0 0 1 1449.84 322)">Regular</text><text transform="matrix(1 0 0 1 1746.56 322)">Medium</text><text transform="matrix(1 0 0 1 2043.27 322)">Semibold</text><text transform="matrix(1 0 0 1 2339.98 322)">Bold</text><text transform="matrix(1 0 0 1 2636.69 322)">Heavy</text><text transform="matrix(1 0 0 1 2933.4 322)">Black</text><text id="template-version" style="text-anchor: end;" transform="matrix(1 0 0 1 3036 1933)">Template v.1.0</text><text class="lanchor" transform="matrix(1 0 0 1 263 726)">Small</text><text class="lanchor" transform="matrix(1 0 0 1 263 1156)">Medium</text><text class="lanchor" transform="matrix(1 0 0 1 263 1586)">Large</text></g><g id="Guides"><g id="H-reference" style="fill:#27AAE1;stroke:none;" transform="matrix(1 0 0 1 339 696)"><path d="M 54.9316 0 L 57.666 0 L 30.5664 -70.459 L 28.0762 -70.459 L 0.976562 0 L 3.66211 0 L 12.9395 -24.4629 L 45.7031 -24.4629 Z M 29.1992 -67.0898 L 29.4434 -67.0898 L 44.8242 -26.709 L 13.8184 -26.709 Z"/></g><line id="Baseline-S" style="fill:none;stroke:#27AAE1;opacity:1;stroke-width:0.577;" x1="263" x2="3036" y1="696" y2="696"/><line id="Capline-S" style="fill:none;stroke:#27AAE1;opacity:1;stroke-width:0.577;" x1="263" x2="3036" y1="625.541" y2="625.541"/><g id="H-reference" style="fill:#27AAE1;stroke:none;" transform="matrix(1 0 0 1 339 1126)"><path d="M 54.9316 0 L 57.666 0 L 30.5664 -70.459 L 28.0762 -70.459 L 0.976562 0 L 3.66211 0 L 12.9395 -24.4629 L 45.7031 -24.4629 Z M 29.1992 -67.0898 L 29.4434 -67.0898 L 44.8242 -26.709 L 13.8184 -26.709 Z"/></g><line id="Baseline-M" style="fill:none;stroke:#27AAE1;opacity:1;stroke-width:0.577;" x1="263" x2="3036" y1="1126" y2="1126"/><line id="Capline-M" style="fill:none;stroke:#27AAE1;opacity:1;stroke-width:0.577;" x1="263" x2="3036" y1="1055.54" y2="1055.54"/><g id="H-reference" style="fill:#27AAE1;stroke:none;" transform="matrix(1 0 0 1 339 1556)"><path d="M 54.9316 0 L 57.666 0 L 30.5664 -70.459 L 28.0762 -70.459 L 0.976562 0 L 3.66211 0 L 12.9395 -24.4629 L 45.7031 -24.4629 Z M 29.1992 -67.0898 L 29.4434 -67.0898 L 44.8242 -26.709 L 13.8184 -26.709 Z"/></g><line id="Baseline-L" style="fill:none;stroke:#27AAE1;opacity:1;stroke-width:0.577;" x1="263" x2="3036" y1="1556" y2="1556"/><line id="Capline-L" style="fill:none;stroke:#27AAE1;opacity:1;stroke-width:0.577;" x1="263" x2="3036" y1="1485.54" y2="1485.54"/><rect height="119.336" id="left-margin" style="fill:darkred;stroke:none;opacity:0.4;" width="12.4512" x="1394.06" y="1030.79"/><rect height="119.336" id="right-margin" style="fill:darkgreen;stroke:none;opacity:0.4;" width="12.4512" x="1502.5112" y="1030.79"/><rect x="1406.5112" y="1045" width="96" height="96" fill="none" stroke="blue" stroke-dasharray="5"/><rect x="1394.06" y="1030.79" width="120.9024" height="119.336" fill="none" stroke="blue"/></g><g id="Symbols"><g id="Bold-L" transform="matrix(1 0 0 1 2266 1556)"><path d="M50.229 -4.028 H104.651 Q106.574 -4.028 107.911 -5.358 Q109.247 -6.689 109.247 -8.664 Q109.247 -10.639 107.911 -11.97 Q106.574 -13.3 104.651 -13.3 H50.229 Q48.214 -13.3 46.883 -11.964 Q45.553 -10.627 45.553 -8.704 Q45.553 -6.689 46.883 -5.358 Q48.214 -4.028 50.229 -4.028 Z M72.482 -41.196  61.839 -51.758 Q60.469 -52.967 58.617 -53.048 Q56.765 -53.129 55.389 -51.758 Q54.019 -50.387 54.019 -48.533 Q54.019 -46.679 55.405 -45.3 L71.595 -29.022 Q73.889 -26.764 76.982 -26.764 Q80.075 -26.764 82.318 -29.022 L98.758 -45.3 Q100.136 -46.679 100.136 -48.533 Q100.136 -50.387 98.766 -51.758 Q97.395 -53.129 95.541 -53.048 Q93.686 -52.967 92.316 -51.758 L81.754 -41.277 V-68.851 Q81.754 -70.774 80.417 -72.11 Q79.081 -73.446 77.158 -73.446 Q75.142 -73.446 73.812 -72.11 Q72.482 -70.774 72.482 -68.851 V-41.196 Z M77.433 32.495 Q63.371 32.495 51.038 27.201 Q38.704 21.906 29.484 12.686 Q20.264 3.466 14.969 -8.835 Q9.675 -21.136 9.675 -35.197 Q9.675 -49.42 14.969 -61.754 Q20.264 -74.087 29.459 -83.275 Q38.653 -92.464 50.966 -97.79 Q63.279 -103.116 77.354 -103.116 Q91.59 -103.116 103.944 -97.783 Q116.297 -92.451 125.472 -83.303 Q134.648 -74.155 139.967 -61.825 Q145.286 -49.495 145.286 -35.24 Q145.286 -21.157 139.96 -8.826 Q134.634 3.505 125.445 12.706 Q116.257 21.906 103.956 27.201 Q91.655 32.495 77.433 32.495 Z M77.395 17.741 Q99.411 17.741 114.891 2.287 Q130.371 -13.167 130.371 -35.225 Q130.371 -57.241 114.896 -72.721 Q99.421 -88.201 77.325 -88.201 Q55.389 -88.201 39.909 -72.726 Q24.429 -57.251 24.429 -35.155 Q24.429 -13.219 39.883 2.261 Q55.337 17.741 77.395 17.741 Z"/></g><g id="Semibold-L" transform="matrix(1 0 0 1 1970.27 1556)"><path d="M50.229 -3.748 H104.651 Q106.574 -3.748 107.911 -5.078 Q109.247 -6.408 109.247 -8.384 Q109.247 -10.359 107.911 -11.689 Q106.574 -13.02 104.651 -13.02 H50.229 Q48.214 -13.02 46.883 -11.683 Q45.553 -10.347 45.553 -8.424 Q45.553 -6.408 46.883 -5.078 Q48.214 -3.748 50.229 -3.748 Z M72.482 -41.196  61.839 -51.758 Q60.469 -52.967 58.617 -53.048 Q56.765 -53.129 55.389 -51.758 Q54.019 -50.387 54.019 -48.533 Q54.019 -46.679 55.405 -45.3 L72.506 -28.11 Q74.399 -26.204 76.957 -26.204 Q79.514 -26.204 81.407 -28.11 L98.758 -45.3 Q100.136 -46.679 100.136 -48.533 Q100.136 -50.387 98.766 -51.758 Q97.395 -53.129 95.541 -53.048 Q93.686 -52.967 92.316 -51.758 L81.754 -41.277 V-68.851 Q81.754 -70.774 80.417 -72.11 Q79.081 -73.446 77.158 -73.446 Q75.142 -73.446 73.812 -72.11 Q72.482 -70.774 72.482 -68.851 V-41.196 Z M77.423 30.742 Q63.792 30.742 51.773 25.559 Q39.754 20.376 30.774 11.396 Q21.794 2.416 16.611 -9.58 Q11.428 -21.576 11.428 -35.207 Q11.428 -48.999 16.611 -61.018 Q21.794 -73.037 30.76 -81.982 Q39.725 -90.926 51.728 -96.11 Q63.731 -101.293 77.37 -101.293 Q91.169 -101.293 103.2 -96.098 Q115.231 -90.902 124.167 -81.989 Q133.104 -73.076 138.284 -61.063 Q143.463 -49.051 143.463 -35.24 Q143.463 -21.597 138.28 -9.579 Q133.096 2.438 124.152 11.407 Q115.207 20.376 103.211 25.559 Q91.215 30.742 77.423 30.742 Z M77.395 18.372 Q99.691 18.372 115.346 2.698 Q131.002 -12.975 131.002 -35.225 Q131.002 -57.521 115.352 -73.176 Q99.702 -88.832 77.36 -88.832 Q55.179 -88.832 39.489 -73.182 Q23.798 -57.532 23.798 -35.19 Q23.798 -13.009 39.472 2.681 Q55.145 18.372 77.395 18.372 Z"/></g><g id="Medium-L" transform="matrix(1 0 0 1 1674.31 1556)"><path d="M50.229 -3.537 H104.651 Q106.574 -3.537 107.911 -4.868 Q109.247 -6.198 109.247 -8.173 Q109.247 -10.149 107.911 -11.479 Q106.574 -12.809 104.651 -12.809 H50.229 Q48.214 -12.809 46.883 -11.473 Q45.553 -10.137 45.553 -8.214 Q45.553 -6.198 46.883 -4.868 Q48.214 -3.537 50.229 -3.537 Z M72.482 -41.196  61.839 -51.758 Q60.469 -52.967 58.617 -53.048 Q56.765 -53.129 55.389 -51.758 Q54.019 -50.387 54.019 -48.533 Q54.019 -46.679 55.405 -45.3 L73.19 -27.427 Q74.781 -25.783 76.938 -25.783 Q79.094 -25.783 80.723 -27.427 L98.758 -45.3 Q100.136 -46.679 100.136 -48.533 Q100.136 -50.387 98.766 -51.758 Q97.395 -53.129 95.541 -53.048 Q93.686 -52.967 92.316 -51.758 L81.754 -41.277 V-68.851 Q81.754 -70.774 80.417 -72.11 Q79.081 -73.446 77.158 -73.446 Q75.142 -73.446 73.812 -72.11 Q72.482 -70.774 72.482 -68.851 V-41.196 Z M77.416 29.428 Q64.107 29.428 52.324 24.328 Q40.541 19.228 31.742 10.428 Q22.942 1.629 17.842 -10.139 Q12.742 -21.906 12.742 -35.214 Q12.742 -48.684 17.842 -60.467 Q22.942 -72.25 31.736 -81.011 Q40.529 -89.772 52.299 -94.849 Q64.07 -99.926 77.381 -99.926 Q90.854 -99.926 102.642 -94.833 Q114.431 -89.74 123.188 -81.003 Q131.946 -72.266 137.021 -60.492 Q142.096 -48.718 142.096 -35.24 Q142.096 -21.927 137.019 -10.144 Q131.942 1.638 123.181 10.433 Q114.42 19.228 102.653 24.328 Q90.885 29.428 77.416 29.428 Z M77.395 18.845 Q99.901 18.845 115.688 3.007 Q131.475 -12.831 131.475 -35.225 Q131.475 -57.731 115.693 -73.518 Q99.912 -89.305 77.386 -89.305 Q55.021 -89.305 39.173 -73.523 Q23.325 -57.742 23.325 -35.216 Q23.325 -12.851 39.163 2.997 Q55.001 18.845 77.395 18.845 Z"/></g><g id="Regular-L" transform="matrix(1 0 0 1 1378.56 1556)"><path d="M50.229 -3.383 H104.651 Q106.574 -3.383 107.911 -4.713 Q109.247 -6.044 109.247 -8.019 Q109.247 -9.994 107.911 -11.325 Q106.574 -12.655 104.651 -12.655 H50.229 Q48.214 -12.655 46.883 -11.319 Q45.553 -9.982 45.553 -8.059 Q45.553 -6.044 46.883 -4.713 Q48.214 -3.383 50.229 -3.383 Z M72.482 -41.196  61.839 -51.758 Q60.469 -52.967 58.617 -53.048 Q56.765 -53.129 55.389 -51.758 Q54.019 -50.387 54.019 -48.533 Q54.019 -46.679 55.405 -45.3 L73.691 -26.926 Q75.062 -25.474 76.924 -25.474 Q78.785 -25.474 80.222 -26.926 L98.758 -45.3 Q100.136 -46.679 100.136 -48.533 Q100.136 -50.387 98.766 -51.758 Q97.395 -53.129 95.541 -53.048 Q93.686 -52.967 92.316 -51.758 L81.754 -41.277 V-68.851 Q81.754 -70.774 80.417 -72.11 Q79.081 -73.446 77.158 -73.446 Q75.142 -73.446 73.812 -72.11 Q72.482 -70.774 72.482 -68.851 V-41.196 Z M77.41 28.464 Q64.339 28.464 52.729 23.425 Q41.119 18.386 32.452 9.718 Q23.784 1.051 18.745 -10.548 Q13.706 -22.148 13.706 -35.22 Q13.706 -48.452 18.745 -60.062 Q23.784 -71.672 32.452 -80.299 Q41.119 -88.926 52.718 -93.925 Q64.318 -98.924 77.39 -98.924 Q90.623 -98.924 102.233 -93.906 Q113.844 -88.888 122.47 -80.28 Q131.096 -71.672 136.095 -60.073 Q141.094 -48.473 141.094 -35.24 Q141.094 -22.169 136.095 -10.559 Q131.096 1.051 122.469 9.718 Q113.843 18.386 102.243 23.425 Q90.643 28.464 77.41 28.464 Z M77.395 19.192 Q100.056 19.192 115.939 3.233 Q131.822 -12.725 131.822 -35.225 Q131.822 -57.886 115.944 -73.769 Q100.066 -89.652 77.405 -89.652 Q54.906 -89.652 38.942 -73.774 Q22.978 -57.896 22.978 -35.235 Q22.978 -12.736 38.937 3.228 Q54.895 19.192 77.395 19.192 Z"/></g><g id="Light-L" transform="matrix(1 0 0 1 1082.77 1556)"><path d="M50.602 -4.841 H104.31 Q105.76 -4.841 106.775 -5.848 Q107.789 -6.854 107.789 -8.378 Q107.789 -9.901 106.775 -10.906 Q105.76 -11.911 104.31 -11.911 H50.602 Q49.023 -11.911 48.017 -10.895 Q47.011 -9.88 47.011 -8.429 Q47.011 -6.85 48.017 -5.845 Q49.023 -4.841 50.602 -4.841 Z M73.629 -38.901  61.622 -50.952 Q60.624 -51.789 59.175 -51.854 Q57.727 -51.919 56.647 -50.907 Q55.6 -49.86 55.6 -48.44 Q55.6 -47.02 56.682 -45.949 L73.908 -28.724 Q75.217 -27.304 77.05 -27.304 Q78.884 -27.304 80.284 -28.724 L97.67 -45.949 Q98.679 -46.958 98.679 -48.409 Q98.679 -49.86 97.667 -50.934 Q96.62 -51.981 95.168 -51.901 Q93.717 -51.82 92.719 -50.952 L80.699 -38.951 V-68.541 Q80.699 -69.991 79.684 -71.005 Q78.669 -72.02 77.218 -72.02 Q75.639 -72.02 74.634 -71.005 Q73.629 -69.991 73.629 -68.541 V-38.901 Z M77.425 25.549 Q64.897 25.549 53.841 20.741 Q42.785 15.934 34.505 7.665 Q26.225 -0.604 21.423 -11.641 Q16.621 -22.677 16.621 -35.205 Q16.621 -47.832 21.429 -58.919 Q26.236 -70.006 34.505 -78.246 Q42.774 -86.486 53.811 -91.247 Q64.847 -96.009 77.375 -96.009 Q90.002 -96.009 101.09 -91.223 Q112.178 -86.437 120.417 -78.227 Q128.656 -70.017 133.417 -58.95 Q138.179 -47.882 138.179 -35.255 Q138.179 -22.727 133.412 -11.671 Q128.645 -0.615 120.416 7.665 Q112.187 15.945 101.12 20.747 Q90.052 25.549 77.425 25.549 Z M77.393 18.479 Q99.746 18.479 115.427 2.755 Q131.109 -12.969 131.109 -35.223 Q131.109 -57.576 115.434 -73.257 Q99.76 -88.939 77.407 -88.939 Q55.154 -88.939 39.423 -73.264 Q23.691 -57.59 23.691 -35.237 Q23.691 -12.984 39.415 2.747 Q55.139 18.479 77.393 18.479 Z"/></g><g id="Thin-L" transform="matrix(1 0 0 1 787.282 1556)"><path d="M50.974 -6.298 H103.969 Q104.946 -6.298 105.639 -6.981 Q106.332 -7.665 106.332 -8.737 Q106.332 -9.808 105.639 -10.487 Q104.946 -11.167 103.969 -11.167 H50.974 Q49.832 -11.167 49.15 -10.472 Q48.468 -9.778 48.468 -8.799 Q48.468 -7.656 49.15 -6.977 Q49.832 -6.298 50.974 -6.298 Z M74.777 -36.607  61.405 -50.146 Q60.779 -50.611 59.733 -50.66 Q58.688 -50.71 57.905 -50.057 Q57.182 -49.333 57.182 -48.347 Q57.182 -47.361 57.959 -46.597 L74.125 -30.523 Q75.372 -29.133 77.177 -29.133 Q78.983 -29.133 80.346 -30.523 L96.581 -46.597 Q97.221 -47.237 97.221 -48.285 Q97.221 -49.333 96.568 -50.111 Q95.845 -50.834 94.796 -50.753 Q93.748 -50.673 93.122 -50.146 L79.645 -36.625 V-68.23 Q79.645 -69.208 78.951 -69.901 Q78.257 -70.593 77.278 -70.593 Q76.135 -70.593 75.456 -69.901 Q74.777 -69.208 74.777 -68.23 V-36.607 Z M77.44 22.634 Q65.455 22.634 54.954 18.059 Q44.452 13.484 36.559 5.612 Q28.665 -2.26 24.101 -12.733 Q19.536 -23.205 19.536 -35.19 Q19.536 -47.212 24.111 -57.776 Q28.686 -68.339 36.558 -76.192 Q44.43 -84.045 54.903 -88.57 Q65.375 -93.094 77.36 -93.094 Q89.382 -93.094 99.947 -88.54 Q110.511 -83.986 118.363 -76.174 Q126.215 -68.361 130.74 -57.827 Q135.264 -47.292 135.264 -35.27 Q135.264 -23.285 130.729 -12.784 Q126.194 -2.282 118.363 5.611 Q110.531 13.505 99.997 18.069 Q89.462 22.634 77.44 22.634 Z M77.391 17.765 Q99.435 17.765 114.915 2.276 Q130.395 -13.213 130.395 -35.221 Q130.395 -57.265 114.925 -72.745 Q99.454 -88.225 77.409 -88.225 Q55.402 -88.225 39.903 -72.755 Q24.405 -57.284 24.405 -35.239 Q24.405 -13.232 39.894 2.267 Q55.383 17.765 77.391 17.765 Z"/></g><g id="Ultralight-L" transform="matrix(1 0 0 1 491.205 1556)"><path d="M51.197 -7.172 H103.764 Q104.458 -7.172 104.958 -7.662 Q105.457 -8.151 105.457 -8.952 Q105.457 -9.752 104.958 -10.236 Q104.458 -10.72 103.764 -10.72 H51.197 Q50.318 -10.72 49.83 -10.219 Q49.343 -9.717 49.343 -9.021 Q49.343 -8.14 49.83 -7.656 Q50.318 -7.172 51.197 -7.172 Z M75.465 -35.23  61.275 -49.662 Q60.872 -49.904 60.068 -49.944 Q59.265 -49.984 58.66 -49.546 Q58.131 -49.017 58.131 -48.291 Q58.131 -47.566 58.726 -46.986 L74.256 -31.602 Q75.465 -30.231 77.253 -30.231 Q79.042 -30.231 80.383 -31.602 L95.928 -46.986 Q96.347 -47.404 96.347 -48.211 Q96.347 -49.017 95.909 -49.616 Q95.379 -50.146 94.573 -50.065 Q93.767 -49.984 93.364 -49.662 L79.013 -35.23 V-68.044 Q79.013 -68.738 78.511 -69.238 Q78.01 -69.737 77.314 -69.737 Q76.433 -69.737 75.949 -69.238 Q75.465 -68.738 75.465 -68.044 V-35.23 Z M77.449 20.885 Q65.79 20.885 55.621 16.449 Q45.452 12.013 37.791 4.38 Q30.13 -3.253 25.707 -13.388 Q21.285 -23.523 21.285 -35.181 Q21.285 -46.84 25.721 -57.09 Q30.157 -67.34 37.79 -74.96 Q45.423 -82.581 55.558 -86.963 Q65.693 -91.345 77.351 -91.345 Q89.01 -91.345 99.261 -86.93 Q109.511 -82.516 117.131 -74.942 Q124.751 -67.368 129.133 -57.153 Q133.515 -46.937 133.515 -35.279 Q133.515 -23.62 129.119 -13.451 Q124.724 -3.282 117.131 4.379 Q109.538 12.04 99.323 16.463 Q89.107 20.885 77.449 20.885 Z M77.389 17.338 Q99.249 17.338 114.608 1.989 Q129.968 -13.359 129.968 -35.219 Q129.968 -57.079 114.619 -72.438 Q99.271 -87.797 77.411 -87.797 Q55.551 -87.797 40.192 -72.449 Q24.832 -57.101 24.832 -35.241 Q24.832 -13.381 40.181 1.978 Q55.529 17.338 77.389 17.338 Z"/></g><g id="Bold-M" transform="matrix(1 0 0 1 2281.8 1126)"><path d="M40.312 -11.48 H79.688 Q81.625 -11.48 83 -12.855 Q84.375 -14.23 84.375 -16.167 Q84.375 -18.105 83 -19.48 Q81.625 -20.855 79.688 -20.855 H40.312 Q38.375 -20.855 37 -19.48 Q35.625 -18.105 35.625 -16.167 Q35.625 -14.23 37 -12.855 Q38.375 -11.48 40.312 -11.48 Z M55.375 -43.48  50.375 -48.417 Q49.062 -49.73 47.156 -49.73 Q45.25 -49.73 43.875 -48.355 Q42.562 -47.042 42.562 -45.105 Q42.562 -43.167 43.875 -41.855 L54.562 -31.167 Q56.92 -28.855 60.023 -28.855 Q63.125 -28.855 65.438 -31.167 L76.125 -41.855 Q77.438 -43.167 77.469 -45.074 Q77.5 -46.98 76.125 -48.355 Q74.812 -49.667 72.906 -49.699 Q71 -49.73 69.625 -48.417 L64.75 -43.605 V-59.792 Q64.75 -61.73 63.375 -63.105 Q62 -64.48 60.062 -64.48 Q58.125 -64.48 56.75 -63.105 Q55.375 -61.73 55.375 -59.792 V-43.48 Z M60 17.77 Q48.875 17.77 39.252 13.603 Q29.628 9.437 22.481 2.289 Q15.333 -4.858 11.167 -14.482 Q7 -24.105 7 -35.23 Q7 -46.355 11.167 -55.978 Q15.333 -65.602 22.481 -72.749 Q29.628 -79.897 39.252 -84.063 Q48.875 -88.23 60 -88.23 Q71.125 -88.23 80.748 -84.063 Q90.372 -79.897 97.519 -72.749 Q104.667 -65.602 108.833 -55.978 Q113 -46.355 113 -35.23 Q113 -24.105 108.833 -14.482 Q104.667 -4.858 97.519 2.289 Q90.372 9.437 80.748 13.603 Q71.125 17.77 60 17.77 Z M60 2.645 Q75.938 2.645 86.906 -8.324 Q97.875 -19.292 97.875 -35.23 Q97.875 -51.167 86.906 -62.136 Q75.938 -73.105 60 -73.105 Q44.062 -73.105 33.094 -62.136 Q22.125 -51.167 22.125 -35.23 Q22.125 -19.292 33.094 -8.324 Q44.062 2.645 60 2.645 Z"/></g><g id="Semibold-M" transform="matrix(1 0 0 1 1985.97 1126)"><path d="M40.312 -11.208 H79.688 Q81.625 -11.208 83 -12.583 Q84.375 -13.958 84.375 -15.896 Q84.375 -17.833 83 -19.208 Q81.625 -20.583 79.688 -20.583 H40.312 Q38.375 -20.583 37 -19.208 Q35.625 -17.833 35.625 -15.896 Q35.625 -13.958 37 -12.583 Q38.375 -11.208 40.312 -11.208 Z M55.375 -43.48  50.375 -48.417 Q49.062 -49.73 47.156 -49.73 Q45.25 -49.73 43.875 -48.355 Q42.562 -47.042 42.562 -45.105 Q42.562 -43.167 43.875 -41.855 L55.486 -30.244 Q57.444 -28.311 60.013 -28.311 Q62.581 -28.311 64.514 -30.244 L76.125 -41.855 Q77.438 -43.167 77.469 -45.074 Q77.5 -46.98 76.125 -48.355 Q74.812 -49.667 72.906 -49.699 Q71 -49.73 69.625 -48.417 L64.75 -43.605 V-59.792 Q64.75 -61.73 63.375 -63.105 Q62 -64.48 60.062 -64.48 Q58.125 -64.48 56.75 -63.105 Q55.375 -61.73 55.375 -59.792 V-43.48 Z M60 15.922 Q49.31 15.922 40.012 11.896 Q30.714 7.87 23.807 0.963 Q16.9 -5.944 12.874 -15.242 Q8.848 -24.54 8.848 -35.23 Q8.848 -45.92 12.874 -55.218 Q16.9 -64.516 23.807 -71.423 Q30.714 -78.33 40.012 -82.356 Q49.31 -86.382 60 -86.382 Q70.69 -86.382 79.988 -82.356 Q89.286 -78.33 96.193 -71.423 Q103.1 -64.516 107.126 -55.218 Q111.152 -45.92 111.152 -35.23 Q111.152 -24.54 107.126 -15.242 Q103.1 -5.944 96.193 0.963 Q89.286 7.87 79.988 11.896 Q70.69 15.922 60 15.922 Z M60 3.297 Q76.155 3.297 87.341 -7.889 Q98.527 -19.075 98.527 -35.23 Q98.527 -51.385 87.341 -62.571 Q76.155 -73.757 60 -73.757 Q43.845 -73.757 32.659 -62.571 Q21.473 -51.385 21.473 -35.23 Q21.473 -19.075 32.659 -7.889 Q43.845 3.297 60 3.297 Z"/></g><g id="Medium-M" transform="matrix(1 0 0 1 1689.91 1126)"><path d="M40.312 -11.004 H79.688 Q81.625 -11.004 83 -12.379 Q84.375 -13.754 84.375 -15.692 Q84.375 -17.629 83 -19.004 Q81.625 -20.379 79.688 -20.379 H40.312 Q38.375 -20.379 37 -19.004 Q35.625 -17.629 35.625 -15.692 Q35.625 -13.754 37 -12.379 Q38.375 -11.004 40.312 -11.004 Z M55.375 -43.48  50.375 -48.417 Q49.062 -49.73 47.156 -49.73 Q45.25 -49.73 43.875 -48.355 Q42.562 -47.042 42.562 -45.105 Q42.562 -43.167 43.875 -41.855 L56.179 -29.551 Q57.837 -27.904 60.005 -27.904 Q62.174 -27.904 63.821 -29.551 L76.125 -41.855 Q77.438 -43.167 77.469 -45.074 Q77.5 -46.98 76.125 -48.355 Q74.812 -49.667 72.906 -49.699 Q71 -49.73 69.625 -48.417 L64.75 -43.605 V-59.792 Q64.75 -61.73 63.375 -63.105 Q62 -64.48 60.062 -64.48 Q58.125 -64.48 56.75 -63.105 Q55.375 -61.73 55.375 -59.792 V-43.48 Z M60 14.536 Q49.636 14.536 40.582 10.615 Q31.528 6.694 24.802 -0.032 Q18.076 -6.758 14.155 -15.812 Q10.234 -24.866 10.234 -35.23 Q10.234 -45.594 14.155 -54.648 Q18.076 -63.702 24.802 -70.428 Q31.528 -77.154 40.582 -81.075 Q49.636 -84.996 60 -84.996 Q70.364 -84.996 79.418 -81.075 Q88.472 -77.154 95.198 -70.428 Q101.924 -63.702 105.845 -54.648 Q109.766 -45.594 109.766 -35.23 Q109.766 -24.866 105.845 -15.812 Q101.924 -6.758 95.198 -0.032 Q88.472 6.694 79.418 10.615 Q70.364 14.536 60 14.536 Z M60 3.786 Q76.318 3.786 87.667 -7.563 Q99.016 -18.912 99.016 -35.23 Q99.016 -51.548 87.667 -62.897 Q76.318 -74.246 60 -74.246 Q43.682 -74.246 32.333 -62.897 Q20.984 -51.548 20.984 -35.23 Q20.984 -18.912 32.333 -7.563 Q43.682 3.786 60 3.786 Z"/></g><g id="Regular-M" transform="matrix(1 0 0 1 1394.06 1126)"><path d="M40.312 -10.855 H79.688 Q81.625 -10.855 83 -12.23 Q84.375 -13.605 84.375 -15.542 Q84.375 -17.48 83 -18.855 Q81.625 -20.23 79.688 -20.23 H40.312 Q38.375 -20.23 37 -18.855 Q35.625 -17.48 35.625 -15.542 Q35.625 -13.605 37 -12.23 Q38.375 -10.855 40.312 -10.855 Z M55.375 -43.48  50.375 -48.417 Q49.062 -49.73 47.156 -49.73 Q45.25 -49.73 43.875 -48.355 Q42.562 -47.042 42.562 -45.105 Q42.562 -43.167 43.875 -41.855 L56.688 -29.042 Q58.125 -27.605 60 -27.605 Q61.875 -27.605 63.312 -29.042 L76.125 -41.855 Q77.438 -43.167 77.469 -45.074 Q77.5 -46.98 76.125 -48.355 Q74.812 -49.667 72.906 -49.699 Q71 -49.73 69.625 -48.417 L64.75 -43.605 V-59.792 Q64.75 -61.73 63.375 -63.105 Q62 -64.48 60.062 -64.48 Q58.125 -64.48 56.75 -63.105 Q55.375 -61.73 55.375 -59.792 V-43.48 Z M60 13.52 Q49.875 13.52 41 9.676 Q32.125 5.833 25.531 -0.761 Q18.938 -7.355 15.094 -16.23 Q11.25 -25.105 11.25 -35.23 Q11.25 -45.355 15.094 -54.23 Q18.938 -63.105 25.531 -69.699 Q32.125 -76.292 41 -80.136 Q49.875 -83.98 60 -83.98 Q70.125 -83.98 79 -80.136 Q87.875 -76.292 94.469 -69.699 Q101.062 -63.105 104.906 -54.23 Q108.75 -45.355 108.75 -35.23 Q108.75 -25.105 104.906 -16.23 Q101.062 -7.355 94.469 -0.761 Q87.875 5.833 79 9.676 Q70.125 13.52 60 13.52 Z M60 4.145 Q76.438 4.145 87.906 -7.324 Q99.375 -18.792 99.375 -35.23 Q99.375 -51.667 87.906 -63.136 Q76.438 -74.605 60 -74.605 Q43.562 -74.605 32.094 -63.136 Q20.625 -51.667 20.625 -35.23 Q20.625 -18.792 32.094 -7.324 Q43.562 4.145 60 4.145 Z"/></g><g id="Light-M" transform="matrix(1 0 0 1 1098.18 1126)"><path d="M40.264 -11.985 H79.76 Q81.186 -11.985 82.216 -13.013 Q83.245 -14.041 83.245 -15.484 Q83.245 -16.927 82.216 -17.953 Q81.186 -18.98 79.76 -18.98 H40.264 Q38.81 -18.98 37.782 -17.95 Q36.755 -16.92 36.755 -15.493 Q36.755 -14.038 37.782 -13.011 Q38.81 -11.985 40.264 -11.985 Z M56.553 -40.595  49.534 -47.6 Q48.558 -48.576 47.132 -48.588 Q45.707 -48.6 44.658 -47.551 Q43.644 -46.538 43.644 -45.129 Q43.644 -43.72 44.673 -42.694 L57 -30.389 Q58.293 -29.071 60.002 -29.071 Q61.711 -29.071 63.024 -30.389 L75.329 -42.694 Q76.308 -43.672 76.339 -45.098 Q76.37 -46.523 75.321 -47.572 Q74.308 -48.586 72.906 -48.593 Q71.505 -48.6 70.466 -47.6 L63.548 -40.696 V-59.889 Q63.548 -61.315 62.518 -62.345 Q61.488 -63.374 60.061 -63.374 Q58.606 -63.374 57.579 -62.345 Q56.553 -61.315 56.553 -59.889 V-40.595 Z M60.011 11.26 Q50.356 11.26 41.886 7.596 Q33.417 3.932 27.123 -2.353 Q20.829 -8.638 17.17 -17.101 Q13.51 -25.563 13.51 -35.218 Q13.51 -44.874 17.174 -53.344 Q20.838 -61.813 27.123 -68.107 Q33.408 -74.4 41.871 -78.06 Q50.333 -81.72 59.989 -81.72 Q69.644 -81.72 78.114 -78.056 Q86.583 -74.392 92.877 -68.107 Q99.171 -61.821 102.83 -53.359 Q106.49 -44.897 106.49 -35.241 Q106.49 -25.586 102.826 -17.116 Q99.162 -8.647 92.877 -2.353 Q86.591 3.941 78.129 7.6 Q69.667 11.26 60.011 11.26 Z M59.998 4.265 Q76.486 4.265 87.99 -7.238 Q99.495 -18.741 99.495 -35.228 Q99.495 -51.716 87.992 -63.22 Q76.489 -74.725 60.002 -74.725 Q43.514 -74.725 32.01 -63.222 Q20.505 -51.719 20.505 -35.232 Q20.505 -18.744 32.008 -7.24 Q43.511 4.265 59.998 4.265 Z"/></g><g id="Thin-M" transform="matrix(1 0 0 1 802.565 1126)"><path d="M40.216 -13.115 H79.832 Q80.748 -13.115 81.431 -13.796 Q82.115 -14.477 82.115 -15.426 Q82.115 -16.374 81.431 -17.052 Q80.748 -17.73 79.832 -17.73 H40.216 Q39.245 -17.73 38.565 -17.045 Q37.885 -16.36 37.885 -15.443 Q37.885 -14.47 38.565 -13.792 Q39.245 -13.115 40.216 -13.115 Z M57.731 -37.711  48.692 -46.783 Q48.053 -47.422 47.108 -47.446 Q46.163 -47.47 45.441 -46.748 Q44.726 -46.033 44.726 -45.153 Q44.726 -44.273 45.471 -43.533 L57.312 -31.735 Q58.462 -30.538 60.004 -30.538 Q61.547 -30.538 62.736 -31.735 L74.534 -43.533 Q75.178 -44.177 75.209 -45.122 Q75.24 -46.066 74.518 -46.789 Q73.803 -47.504 72.906 -47.487 Q72.01 -47.47 71.308 -46.783 L62.346 -37.788 V-59.985 Q62.346 -60.901 61.661 -61.585 Q60.976 -62.268 60.059 -62.268 Q59.087 -62.268 58.409 -61.585 Q57.731 -60.901 57.731 -59.985 V-37.711 Z M60.023 9.001 Q50.837 9.001 42.773 5.517 Q34.709 2.033 28.715 -3.945 Q22.721 -9.922 19.245 -17.971 Q15.769 -26.021 15.769 -35.207 Q15.769 -44.393 19.253 -52.457 Q22.737 -60.521 28.715 -66.515 Q34.692 -72.509 42.741 -75.985 Q50.791 -79.461 59.977 -79.461 Q69.163 -79.461 77.227 -75.977 Q85.291 -72.493 91.285 -66.515 Q97.279 -60.538 100.755 -52.489 Q104.231 -44.439 104.231 -35.253 Q104.231 -26.066 100.747 -18.003 Q97.263 -9.939 91.285 -3.945 Q85.308 2.049 77.259 5.525 Q69.209 9.001 60.023 9.001 Z M59.997 4.385 Q76.534 4.385 88.075 -7.152 Q99.615 -18.69 99.615 -35.227 Q99.615 -51.764 88.078 -63.304 Q76.54 -74.845 60.003 -74.845 Q43.466 -74.845 31.925 -63.308 Q20.385 -51.77 20.385 -35.233 Q20.385 -18.696 31.922 -7.155 Q43.46 4.385 59.997 4.385 Z"/></g><g id="Ultralight-M" transform="matrix(1 0 0 1 506.415 1126)"><path d="M40.188 -13.792 H79.875 Q80.484 -13.792 80.961 -14.266 Q81.438 -14.739 81.438 -15.391 Q81.438 -16.042 80.961 -16.511 Q80.484 -16.98 79.875 -16.98 H40.188 Q39.506 -16.98 39.034 -16.502 Q38.562 -16.024 38.562 -15.413 Q38.562 -14.73 39.034 -14.261 Q39.506 -13.792 40.188 -13.792 Z M58.438 -35.98  48.188 -46.292 Q47.75 -46.73 47.094 -46.761 Q46.438 -46.792 45.91 -46.265 Q45.375 -45.73 45.375 -45.167 Q45.375 -44.605 45.95 -44.036 L57.5 -32.542 Q58.562 -31.417 60.006 -31.417 Q61.449 -31.417 62.562 -32.542 L74.056 -44.036 Q74.5 -44.48 74.531 -45.136 Q74.562 -45.792 74.035 -46.32 Q73.5 -46.855 72.906 -46.824 Q72.312 -46.792 71.812 -46.292 L61.625 -36.042 V-60.042 Q61.625 -60.652 61.147 -61.128 Q60.669 -61.605 60.058 -61.605 Q59.375 -61.605 58.906 -61.128 Q58.438 -60.652 58.438 -60.042 V-35.98 Z M60.03 7.645 Q51.125 7.645 43.304 4.269 Q35.484 0.893 29.67 -4.9 Q23.857 -10.692 20.491 -18.494 Q17.125 -26.295 17.125 -35.2 Q17.125 -44.105 20.501 -51.925 Q23.877 -59.746 29.67 -65.56 Q35.462 -71.373 43.264 -74.739 Q51.066 -78.105 59.97 -78.105 Q68.875 -78.105 76.695 -74.729 Q84.516 -71.353 90.33 -65.56 Q96.144 -59.768 99.509 -51.966 Q102.875 -44.164 102.875 -35.26 Q102.875 -26.355 99.499 -18.534 Q96.123 -10.714 90.33 -4.9 Q84.538 0.914 76.736 4.279 Q68.934 7.645 60.03 7.645 Z M59.996 4.458 Q76.562 4.458 88.125 -7.101 Q99.688 -18.659 99.688 -35.226 Q99.688 -51.792 88.129 -63.355 Q76.571 -74.917 60.004 -74.917 Q43.438 -74.917 31.875 -63.359 Q20.312 -51.801 20.312 -35.234 Q20.312 -18.667 31.871 -7.105 Q43.429 4.458 59.996 4.458 Z"/></g><g id="Bold-S" transform="matrix(1 0 0 1 2294.23 696)"><path d="M32.201 -17.28 H62.479 Q63.84 -17.28 64.811 -18.246 Q65.783 -19.211 65.783 -20.563 Q65.783 -21.916 64.811 -22.902 Q63.84 -23.888 62.479 -23.888 H32.201 Q30.84 -23.888 29.869 -22.923 Q28.897 -21.957 28.897 -20.605 Q28.897 -19.253 29.869 -18.266 Q30.84 -17.28 32.201 -17.28 Z M44.085 -40.95  40.535 -44.55 Q39.499 -45.586 38.176 -45.586 Q36.853 -45.586 35.9 -44.599 Q34.864 -43.564 34.864 -42.282 Q34.864 -41 35.9 -39.964 L43.359 -32.504 Q45.108 -30.792 47.376 -30.792 Q49.644 -30.792 51.334 -32.518 L58.781 -39.964 Q59.816 -41 59.791 -42.306 Q59.767 -43.613 58.781 -44.599 Q57.745 -45.635 56.438 -45.61 Q55.131 -45.586 54.145 -44.55 L50.693 -41.049 V-52.623 Q50.693 -53.99 49.728 -54.966 Q48.762 -55.941 47.41 -55.941 Q46.058 -55.941 45.072 -54.966 Q44.085 -53.99 44.085 -52.623 V-40.95 Z M47.367 5.009 Q38.957 5.009 31.66 1.869 Q24.363 -1.27 18.871 -6.761 Q13.38 -12.253 10.241 -19.546 Q7.101 -26.839 7.101 -35.275 Q7.101 -43.712 10.241 -50.959 Q13.38 -58.207 18.871 -63.699 Q24.363 -69.19 31.656 -72.329 Q38.949 -75.469 47.385 -75.469 Q55.822 -75.469 63.069 -72.329 Q70.317 -69.19 75.809 -63.699 Q81.3 -58.207 84.439 -50.937 Q87.579 -43.667 87.579 -35.257 Q87.579 -26.847 84.439 -19.55 Q81.3 -12.253 75.809 -6.761 Q70.317 -1.27 63.047 1.869 Q55.777 5.009 47.367 5.009 Z M47.34 -6.136 Q59.52 -6.136 67.977 -14.593 Q76.434 -23.05 76.434 -35.23 Q76.434 -47.41 67.977 -55.867 Q59.52 -64.324 47.34 -64.324 Q35.16 -64.324 26.703 -55.867 Q18.246 -47.41 18.246 -35.23 Q18.246 -23.05 26.703 -14.593 Q35.16 -6.136 47.34 -6.136 Z"/></g><g id="Semibold-S" transform="matrix(1 0 0 1 1998.1 696)"><path d="M32.201 -17.066 H62.479 Q63.84 -17.066 64.811 -18.031 Q65.783 -18.997 65.783 -20.349 Q65.783 -21.701 64.811 -22.687 Q63.84 -23.674 62.479 -23.674 H32.201 Q30.84 -23.674 29.869 -22.708 Q28.897 -21.743 28.897 -20.391 Q28.897 -19.038 29.869 -18.052 Q30.84 -17.066 32.201 -17.066 Z M44.085 -40.95  40.535 -44.55 Q39.499 -45.586 38.176 -45.586 Q36.853 -45.586 35.9 -44.599 Q34.864 -43.564 34.864 -42.282 Q34.864 -41 35.9 -39.964 L44.088 -31.775 Q45.521 -30.363 47.368 -30.363 Q49.215 -30.363 50.605 -31.789 L58.781 -39.964 Q59.816 -41 59.791 -42.306 Q59.767 -43.613 58.781 -44.599 Q57.745 -45.635 56.438 -45.61 Q55.131 -45.586 54.145 -44.55 L50.693 -41.049 V-52.623 Q50.693 -53.99 49.728 -54.966 Q48.762 -55.941 47.41 -55.941 Q46.058 -55.941 45.072 -54.966 Q44.085 -53.99 44.085 -52.623 V-40.95 Z M47.367 3.551 Q39.3 3.551 32.26 0.522 Q25.219 -2.506 19.918 -7.808 Q14.616 -13.109 11.588 -20.146 Q8.559 -27.182 8.559 -35.275 Q8.559 -43.369 11.588 -50.36 Q14.616 -57.351 19.918 -62.652 Q25.219 -67.954 32.256 -70.982 Q39.292 -74.011 47.385 -74.011 Q55.479 -74.011 62.47 -70.982 Q69.461 -67.954 74.762 -62.652 Q80.064 -57.351 83.092 -50.338 Q86.121 -43.324 86.121 -35.257 Q86.121 -27.19 83.092 -20.15 Q80.064 -13.109 74.762 -7.808 Q69.461 -2.506 62.448 0.522 Q55.434 3.551 47.367 3.551 Z M47.34 -5.621 Q59.692 -5.621 68.32 -14.25 Q76.949 -22.878 76.949 -35.23 Q76.949 -47.582 68.32 -56.21 Q59.692 -64.839 47.34 -64.839 Q34.988 -64.839 26.36 -56.21 Q17.731 -47.582 17.731 -35.23 Q17.731 -22.878 26.36 -14.25 Q34.988 -5.621 47.34 -5.621 Z"/></g><g id="Medium-S" transform="matrix(1 0 0 1 1701.85 696)"><path d="M32.201 -16.905 H62.479 Q63.84 -16.905 64.811 -17.871 Q65.783 -18.836 65.783 -20.188 Q65.783 -21.54 64.811 -22.527 Q63.84 -23.513 62.479 -23.513 H32.201 Q30.84 -23.513 29.869 -22.547 Q28.897 -21.582 28.897 -20.23 Q28.897 -18.878 29.869 -17.891 Q30.84 -16.905 32.201 -16.905 Z M44.085 -40.95  40.535 -44.55 Q39.499 -45.586 38.176 -45.586 Q36.853 -45.586 35.9 -44.599 Q34.864 -43.564 34.864 -42.282 Q34.864 -41 35.9 -39.964 L44.635 -31.228 Q45.831 -30.041 47.362 -30.041 Q48.894 -30.041 50.059 -31.242 L58.781 -39.964 Q59.816 -41 59.791 -42.306 Q59.767 -43.613 58.781 -44.599 Q57.745 -45.635 56.438 -45.61 Q55.131 -45.586 54.145 -44.55 L50.693 -41.049 V-52.623 Q50.693 -53.99 49.728 -54.966 Q48.762 -55.941 47.41 -55.941 Q46.058 -55.941 45.072 -54.966 Q44.085 -53.99 44.085 -52.623 V-40.95 Z M47.367 2.458 Q39.557 2.458 32.709 -0.488 Q25.862 -3.434 20.703 -8.593 Q15.544 -13.752 12.598 -20.595 Q9.652 -27.439 9.652 -35.275 Q9.652 -43.111 12.598 -49.91 Q15.544 -56.708 20.703 -61.867 Q25.862 -67.026 32.705 -69.972 Q39.549 -72.918 47.385 -72.918 Q55.221 -72.918 62.02 -69.972 Q68.818 -67.026 73.977 -61.867 Q79.136 -56.708 82.082 -49.888 Q85.028 -43.067 85.028 -35.257 Q85.028 -27.447 82.082 -20.599 Q79.136 -13.752 73.977 -8.593 Q68.818 -3.434 61.998 -0.488 Q55.177 2.458 47.367 2.458 Z M47.34 -5.235 Q59.82 -5.235 68.578 -13.992 Q77.335 -22.75 77.335 -35.23 Q77.335 -47.71 68.578 -56.468 Q59.82 -65.225 47.34 -65.225 Q34.86 -65.225 26.102 -56.468 Q17.345 -47.71 17.345 -35.23 Q17.345 -22.75 26.102 -13.992 Q34.86 -5.235 47.34 -5.235 Z"/></g><g id="Regular-S" transform="matrix(1 0 0 1 1405.73 696)"><path d="M32.201 -16.787 H62.479 Q63.84 -16.787 64.811 -17.753 Q65.783 -18.718 65.783 -20.07 Q65.783 -21.422 64.811 -22.409 Q63.84 -23.395 62.479 -23.395 H32.201 Q30.84 -23.395 29.869 -22.43 Q28.897 -21.464 28.897 -20.112 Q28.897 -18.76 29.869 -17.773 Q30.84 -16.787 32.201 -16.787 Z M44.085 -40.95  40.535 -44.55 Q39.499 -45.586 38.176 -45.586 Q36.853 -45.586 35.9 -44.599 Q34.864 -43.564 34.864 -42.282 Q34.864 -41 35.9 -39.964 L45.036 -30.828 Q46.058 -29.806 47.358 -29.806 Q48.658 -29.806 49.658 -30.841 L58.781 -39.964 Q59.816 -41 59.791 -42.306 Q59.767 -43.613 58.781 -44.599 Q57.745 -45.635 56.438 -45.61 Q55.131 -45.586 54.145 -44.55 L50.693 -41.049 V-52.623 Q50.693 -53.99 49.728 -54.966 Q48.762 -55.941 47.41 -55.941 Q46.058 -55.941 45.072 -54.966 Q44.085 -53.99 44.085 -52.623 V-40.95 Z M47.367 1.656 Q39.746 1.656 33.039 -1.229 Q26.333 -4.114 21.278 -9.168 Q16.224 -14.223 13.339 -20.925 Q10.454 -27.628 10.454 -35.275 Q10.454 -42.923 13.339 -49.58 Q16.224 -56.237 21.278 -61.292 Q26.333 -66.346 33.035 -69.231 Q39.738 -72.116 47.385 -72.116 Q55.033 -72.116 61.69 -69.231 Q68.347 -66.346 73.402 -61.292 Q78.456 -56.237 81.341 -49.558 Q84.226 -42.878 84.226 -35.257 Q84.226 -27.636 81.341 -20.929 Q78.456 -14.223 73.402 -9.168 Q68.347 -4.114 61.668 -1.229 Q54.988 1.656 47.367 1.656 Z M47.34 -4.952 Q59.915 -4.952 68.766 -13.804 Q77.618 -22.655 77.618 -35.23 Q77.618 -47.805 68.766 -56.656 Q59.915 -65.508 47.34 -65.508 Q34.765 -65.508 25.914 -56.656 Q17.062 -47.805 17.062 -35.23 Q17.062 -22.655 25.914 -13.804 Q34.765 -4.952 47.34 -4.952 Z"/></g><g id="Light-S" transform="matrix(1 0 0 1 1109.75 696)"><path d="M32.163 -17.679 H62.536 Q63.494 -17.679 64.193 -18.37 Q64.891 -19.062 64.891 -20.024 Q64.891 -20.986 64.193 -21.697 Q63.494 -22.409 62.536 -22.409 H32.163 Q31.183 -22.409 30.486 -21.716 Q29.789 -21.022 29.789 -20.073 Q29.789 -19.101 30.486 -18.39 Q31.183 -17.679 32.163 -17.679 Z M45.015 -38.674  39.871 -43.905 Q39.101 -44.675 38.157 -44.685 Q37.213 -44.694 36.517 -43.965 Q35.717 -43.165 35.717 -42.301 Q35.717 -41.436 36.529 -40.626 L45.282 -31.89 Q46.191 -30.963 47.36 -30.963 Q48.529 -30.963 49.43 -31.903 L58.153 -40.626 Q58.925 -41.398 58.9 -42.325 Q58.875 -43.253 58.146 -43.982 Q57.347 -44.781 56.438 -44.738 Q55.53 -44.694 54.809 -43.905 L49.745 -38.754 V-52.699 Q49.745 -53.663 49.052 -54.366 Q48.358 -55.069 47.409 -55.069 Q46.437 -55.069 45.726 -54.366 Q45.015 -53.663 45.015 -52.699 V-38.674 Z M47.376 -0.127 Q40.125 -0.127 33.739 -2.87 Q27.352 -5.613 22.534 -10.424 Q17.717 -15.236 14.977 -21.612 Q12.237 -27.989 12.237 -35.266 Q12.237 -42.543 14.98 -48.881 Q17.723 -55.218 22.534 -60.036 Q27.346 -64.853 33.722 -67.593 Q40.099 -70.333 47.376 -70.333 Q54.653 -70.333 60.991 -67.59 Q67.328 -64.847 72.146 -60.036 Q76.963 -55.224 79.703 -48.871 Q82.443 -42.517 82.443 -35.266 Q82.443 -28.015 79.7 -21.629 Q76.957 -15.242 72.146 -10.424 Q67.334 -5.607 60.981 -2.867 Q54.627 -0.127 47.376 -0.127 Z M47.339 -4.857 Q59.953 -4.857 68.833 -13.736 Q77.713 -22.615 77.713 -35.229 Q77.713 -47.843 68.834 -56.723 Q59.955 -65.603 47.341 -65.603 Q34.727 -65.603 25.847 -56.724 Q16.967 -47.845 16.967 -35.231 Q16.967 -22.617 25.846 -13.737 Q34.725 -4.857 47.339 -4.857 Z"/></g><g id="Thin-S" transform="matrix(1 0 0 1 814.015 696)"><path d="M32.125 -18.57 H62.593 Q63.148 -18.57 63.574 -18.988 Q64 -19.406 64 -19.978 Q64 -20.55 63.574 -20.986 Q63.148 -21.422 62.593 -21.422 H32.125 Q31.527 -21.422 31.103 -21.002 Q30.68 -20.581 30.68 -20.033 Q30.68 -19.442 31.103 -19.006 Q31.527 -18.57 32.125 -18.57 Z M45.944 -36.398  39.207 -43.26 Q38.703 -43.765 38.138 -43.784 Q37.574 -43.803 37.135 -43.331 Q36.571 -42.767 36.571 -42.32 Q36.571 -41.872 37.159 -41.288 L45.529 -32.952 Q46.323 -32.119 47.361 -32.119 Q48.399 -32.119 49.203 -32.965 L57.525 -41.288 Q58.033 -41.796 58.009 -42.344 Q57.984 -42.892 57.512 -43.364 Q56.948 -43.928 56.438 -43.865 Q55.928 -43.803 55.473 -43.26 L48.797 -36.459 V-52.775 Q48.797 -53.336 48.376 -53.766 Q47.955 -54.196 47.407 -54.196 Q46.816 -54.196 46.38 -53.766 Q45.944 -53.336 45.944 -52.775 V-36.398 Z M47.385 -1.91 Q40.504 -1.91 34.438 -4.511 Q28.371 -7.112 23.79 -11.68 Q19.209 -16.248 16.615 -22.299 Q14.02 -28.35 14.02 -35.257 Q14.02 -42.164 16.621 -48.181 Q19.222 -54.199 23.79 -58.78 Q28.358 -63.361 34.409 -65.955 Q40.46 -68.55 47.367 -68.55 Q54.274 -68.55 60.291 -65.949 Q66.309 -63.348 70.89 -58.78 Q75.471 -54.212 78.065 -48.184 Q80.66 -42.156 80.66 -35.275 Q80.66 -28.394 78.059 -22.328 Q75.458 -16.261 70.89 -11.68 Q66.322 -7.099 60.294 -4.505 Q54.266 -1.91 47.385 -1.91 Z M47.338 -4.762 Q59.991 -4.762 68.899 -13.668 Q77.808 -22.574 77.808 -35.228 Q77.808 -47.881 68.902 -56.789 Q59.996 -65.698 47.342 -65.698 Q34.689 -65.698 25.781 -56.792 Q16.872 -47.886 16.872 -35.232 Q16.872 -22.579 25.778 -13.671 Q34.684 -4.762 47.338 -4.762 Z"/></g><g id="Ultralight-S" transform="matrix(1 0 0 1 517.792 696)"><path d="M32.102 -19.105 H62.627 Q62.94 -19.105 63.203 -19.359 Q63.465 -19.613 63.465 -19.951 Q63.465 -20.288 63.203 -20.56 Q62.94 -20.831 62.627 -20.831 H32.102 Q31.733 -20.831 31.474 -20.573 Q31.215 -20.316 31.215 -20.01 Q31.215 -19.647 31.474 -19.376 Q31.733 -19.105 32.102 -19.105 Z M46.502 -35.033  38.809 -42.873 Q38.464 -43.219 38.127 -43.243 Q37.79 -43.268 37.505 -42.951 Q37.083 -42.528 37.083 -42.331 Q37.083 -42.134 37.536 -41.685 L45.677 -33.589 Q46.403 -32.814 47.362 -32.814 Q48.322 -32.814 49.066 -33.603 L57.148 -41.685 Q57.498 -42.035 57.474 -42.356 Q57.449 -42.676 57.132 -42.993 Q56.709 -43.416 56.438 -43.342 Q56.167 -43.268 55.871 -42.873 L48.228 -35.082 V-52.82 Q48.228 -53.14 47.97 -53.406 Q47.712 -53.673 47.407 -53.673 Q47.044 -53.673 46.773 -53.406 Q46.502 -53.14 46.502 -52.82 V-35.033 Z M47.391 -2.98 Q40.732 -2.98 34.858 -5.496 Q28.983 -8.011 24.544 -12.434 Q20.105 -16.856 17.597 -22.711 Q15.09 -28.567 15.09 -35.252 Q15.09 -41.936 17.606 -47.762 Q20.121 -53.587 24.544 -58.026 Q28.966 -62.465 34.821 -64.973 Q40.677 -67.48 47.362 -67.48 Q54.047 -67.48 59.872 -64.964 Q65.697 -62.449 70.136 -58.026 Q74.575 -53.604 77.083 -47.772 Q79.59 -41.939 79.59 -35.281 Q79.59 -28.622 77.074 -22.748 Q74.559 -16.873 70.136 -12.434 Q65.714 -7.995 59.882 -5.487 Q54.049 -2.98 47.391 -2.98 Z M47.337 -4.706 Q60.013 -4.706 68.939 -13.628 Q77.864 -22.55 77.864 -35.227 Q77.864 -47.903 68.942 -56.829 Q60.02 -65.754 47.343 -65.754 Q34.667 -65.754 25.741 -56.832 Q16.816 -47.91 16.816 -35.233 Q16.816 -22.557 25.738 -13.631 Q34.66 -4.706 47.337 -4.706 Z"/></g></g></svg>