<svg xmlns="http://www.w3.org/2000/svg" height="24" viewBox="0 -960 960 960" width="24"><path d="M176.659-151.869q-61.398 0-103.811-43.913-42.413-43.914-42.413-106.305v-179.674q0-48.435 20.597-90.869 20.598-42.435 58.794-72.153l174.196-136.956q13.282-10.522 20.804-26.094 7.522-15.571 7.522-32.558v-87.5h90.761v87.5q0 16.987 7.641 32.558 7.641 15.572 21.685 26.094L606.63-644.783q37.435 29.718 58.033 72.153 20.598 42.434 20.598 90.869v46.065H594.5v-46.065q0-26.804-11.761-50.467t-32.804-40.185l-66.348-53.022v461.957Q441.522-181 416.913-216.174q-24.609-35.174-23.848-85.913v-394.717l-35.217-28.174-35.218 28.174v394.717q.761 62.391-41.905 106.305-42.667 43.913-104.066 43.913Zm.754-90.761q23.848 0 39.652-17.685 15.804-17.685 15.044-41.772v-323.348l-66.587 53.022q-21.044 16.283-32.685 40.065-11.641 23.783-11.641 50.587v179.674q0 24.154 16.128 41.805 16.127 17.652 40.089 17.652ZM565.5-151.869q-17.813 0-29.863-12.05t-12.05-29.863v-160q0-17.814 12.05-29.864t29.863-12.05h99.044q17.813 0 29.863 12.05t12.05 29.864v160q0 17.813-12.05 29.863t-29.863 12.05H565.5Zm21.913-63.827h55.217v-116.173h-55.217v116.173ZM746.457-71.869v-108.087q0-17.813 12.05-29.863t29.863-12.05h77.369v-30H746.457v-63.827h141.195q17.813 0 29.863 12.05t12.05 29.864v66.173q0 17.813-12.05 29.863t-29.863 12.05h-77.369v30h119.282v63.827H746.457ZM176.652-434.413Zm362.391 0Z"/></svg>