<svg xmlns="http://www.w3.org/2000/svg" height="48" viewBox="0 -960 960 960" width="48"><path d="m338.461-289.537 40.154-109.156h191.77l41.154 109.156h-52.078q-11.307 0-18.384 7.076Q534-275.384 534-265.269q0 11.115 7.077 18.192T559.461-240h142.616q10.923 0 17.5-7.077t6.577-18.192q0-10.115-6.577-17.192-6.577-7.076-17.5-7.076h-19.616L528.537-695.154q-4.461-11.308-14.516-18.077Q503.966-720 491.658-720h-26.777q-13.325 0-23.103 7.269-9.777 7.269-13.239 17.577L276.616-289.537h-18.309q-11.307 0-17.884 7.076-6.577 7.077-6.577 17.192 0 11.115 6.577 18.192T258.307-240h138.616q9.923 0 17-7.077T421-265.269q0-10.115-7.077-17.192-7.077-7.076-17.834-7.076h-57.628Zm58.538-160.078 73.54-196.463h8.692l74.154 196.463H396.999ZM154.694-84.001q-28.254 0-49.473-21.22-21.22-21.219-21.22-49.473v-650.612q0-28.254 21.22-49.473 21.219-21.22 49.473-21.22h650.612q28.254 0 49.473 21.22 21.22 21.219 21.22 49.473v650.612q0 28.254-21.22 49.473-21.219 21.22-49.473 21.22H154.694Zm0-58.384h650.612q4.616 0 8.463-3.846 3.846-3.847 3.846-8.463v-650.612q0-4.616-3.846-8.463-3.847-3.846-8.463-3.846H154.694q-4.616 0-8.463 3.846-3.846 3.847-3.846 8.463v650.612q0 4.616 3.846 8.463 3.847 3.846 8.463 3.846Zm-12.309 0V-817.615-142.385Z"/></svg>