<svg xmlns="http://www.w3.org/2000/svg" height="40" viewBox="0 -960 960 960" width="40"><path d="m343.667-303.333 34.333-90h197.333l34.667 90h-52.667q-13.333 0-22.5 9.166-9.166 9.167-9.166 22.5 0 13.334 9.166 22.5Q544-240 557.333-240h141q13.334 0 22.5-9.167 9.167-9.166 9.167-22.5 0-13.333-9.167-22.5-9.166-9.166-22.5-9.166h-9L534.333-694q-5-11.667-15.051-18.833Q509.231-720 496.439-720h-31.98q-12.792 0-23.126 7.167Q431-705.667 426-694L271.333-303.333h-9.666q-13.334 0-22.5 9.166Q230-285 230-271.667q0 13.334 9.167 22.5 9.166 9.167 22.5 9.167h136q13.333 0 22.5-9.167 9.166-9.166 9.166-22.5 0-13.333-9.666-22.5-9.667-9.166-23-9.166h-53Zm58-151.667 70-182.333h9L551.333-455H401.667ZM146.666-80q-27 0-46.833-19.833T80-146.666v-666.668q0-27 19.833-46.833T146.666-880h666.668q27 0 46.833 19.833T880-813.334v666.668q0 27-19.833 46.833T813.334-80H146.666Zm0-66.666h666.668v-666.668H146.666v666.668Zm0 0v-666.668 666.668Z"/></svg>