<svg xmlns="http://www.w3.org/2000/svg" height="20" viewBox="0 -960 960 960" width="20"><path d="m321.308-277.693 46.384-119.999h217.846l47.154 119.999h-79.461q-7.846 0-13.346 5.501-5.5 5.5-5.5 13.346t5.5 13.346q5.5 5.5 13.346 5.5h151.23q7.847 0 13.347-5.5 5.5-5.5 5.5-13.346t-5.5-13.346q-5.5-5.501-13.347-5.501h-28.307L508.231-705.846q-2.692-6.846-8.308-10.5Q494.308-720 487.231-720h-18.077q-7.077 0-12.693 3.654-5.615 3.654-8.275 10.5L281-277.693h-24.461q-7.847 0-13.347 5.501-5.5 5.5-5.5 13.346t5.5 13.346q5.5 5.5 13.347 5.5h145.23q7.846 0 13.346-5.5t5.5-13.346q0-7.846-5.694-13.346-5.694-5.501-13.152-5.501h-80.461Zm60.615-157.538 92.385-233.538h6.923l90.846 233.538H381.923ZM192.615-136q-24.315 0-40.465-16.15Q136-168.3 136-192.615v-574.77q0-24.315 16.15-40.465Q168.3-824 192.615-824h574.77q24.315 0 40.465 16.15Q824-791.7 824-767.385v574.77q0 24.315-16.15 40.465Q791.7-136 767.385-136h-574.77Zm0-32h574.77q9.23 0 16.923-7.692Q792-183.385 792-192.615v-574.77q0-9.23-7.692-16.923Q776.615-792 767.385-792h-574.77q-9.23 0-16.923 7.692Q168-776.615 168-767.385v574.77q0 9.23 7.692 16.923Q183.385-168 192.615-168ZM168-168v-624 624Z"/></svg>