<svg xmlns="http://www.w3.org/2000/svg" height="24" viewBox="0 -960 960 960" width="24"><path d="m373.913-318.957 23.609-68.652h148.26l22.609 68.652h-9.695q-16.566 0-28.131 11.348Q519-296.261 519-279.696q0 16.566 11.565 28.131Q542.13-240 558.696-240h132.043q16.565 0 27.913-11.565Q730-263.13 730-279.696q0-16.565-11.348-27.913-11.348-11.348-27.913-11.348h-1.304L561.957-677.174q-7-19.696-23.573-31.261Q521.812-720 500.565-720h-46.261q-21.413 0-37.119 12.348-15.707 12.348-23.272 31.478L270.13-318.957h-.869q-16.565 0-27.913 11.348Q230-296.261 230-279.696q0 16.566 11.348 28.131Q252.696-240 269.261-240h127.043q16.566 0 28.131-11.565Q436-263.13 436-279.696q0-16.565-11.848-27.913-11.848-11.348-28.413-11.348h-21.826Zm50.739-148.304 42.218-126.173h10.565l42.217 126.173h-95ZM163.044-40.086q-51.299 0-87.128-35.83-35.83-35.829-35.83-87.128v-633.912q0-51.299 35.83-87.128 35.829-35.829 87.128-35.829h633.912q51.299 0 87.128 35.829t35.829 87.128v633.912q0 51.299-35.829 87.128-35.829 35.83-87.128 35.83H163.044Zm0-122.958h633.912v-633.912H163.044v633.912Zm0 0v-633.912 633.912Z"/></svg>