<svg xmlns="http://www.w3.org/2000/svg" version="1.1" width="3300" height="2000"><g id="Notes"><style>
    text {
      font-family: monospace;
      text-anchor: middle;
    }
    text.emphasis {
      font-weight:bold;
    }
    text.lanchor {
      text-anchor: start;
    }
  </style><rect height="2200" id="artboard" fill="white" width="3300" x="0" y="0"/><line id="" style="fill:none;stroke:black;stroke-width:0.5;" x1="263" x2="3036" y1="292" y2="292"/><text class="lanchor emphasis" transform="matrix(1 0 0 1 263 322)">Weight/Scale Variations</text><text transform="matrix(1 0 0 1 559.711 322)">Ultralight</text><text transform="matrix(1 0 0 1 856.422 322)">Thin</text><text transform="matrix(1 0 0 1 1153.13 322)">Light</text><text transform="matrix(1 0 0 1 1449.84 322)">Regular</text><text transform="matrix(1 0 0 1 1746.56 322)">Medium</text><text transform="matrix(1 0 0 1 2043.27 322)">Semibold</text><text transform="matrix(1 0 0 1 2339.98 322)">Bold</text><text transform="matrix(1 0 0 1 2636.69 322)">Heavy</text><text transform="matrix(1 0 0 1 2933.4 322)">Black</text><text id="template-version" style="text-anchor: end;" transform="matrix(1 0 0 1 3036 1933)">Template v.1.0</text><text class="lanchor" transform="matrix(1 0 0 1 263 726)">Small</text><text class="lanchor" transform="matrix(1 0 0 1 263 1156)">Medium</text><text class="lanchor" transform="matrix(1 0 0 1 263 1586)">Large</text></g><g id="Guides"><g id="H-reference" style="fill:#27AAE1;stroke:none;" transform="matrix(1 0 0 1 339 696)"><path d="M 54.9316 0 L 57.666 0 L 30.5664 -70.459 L 28.0762 -70.459 L 0.976562 0 L 3.66211 0 L 12.9395 -24.4629 L 45.7031 -24.4629 Z M 29.1992 -67.0898 L 29.4434 -67.0898 L 44.8242 -26.709 L 13.8184 -26.709 Z"/></g><line id="Baseline-S" style="fill:none;stroke:#27AAE1;opacity:1;stroke-width:0.577;" x1="263" x2="3036" y1="696" y2="696"/><line id="Capline-S" style="fill:none;stroke:#27AAE1;opacity:1;stroke-width:0.577;" x1="263" x2="3036" y1="625.541" y2="625.541"/><g id="H-reference" style="fill:#27AAE1;stroke:none;" transform="matrix(1 0 0 1 339 1126)"><path d="M 54.9316 0 L 57.666 0 L 30.5664 -70.459 L 28.0762 -70.459 L 0.976562 0 L 3.66211 0 L 12.9395 -24.4629 L 45.7031 -24.4629 Z M 29.1992 -67.0898 L 29.4434 -67.0898 L 44.8242 -26.709 L 13.8184 -26.709 Z"/></g><line id="Baseline-M" style="fill:none;stroke:#27AAE1;opacity:1;stroke-width:0.577;" x1="263" x2="3036" y1="1126" y2="1126"/><line id="Capline-M" style="fill:none;stroke:#27AAE1;opacity:1;stroke-width:0.577;" x1="263" x2="3036" y1="1055.54" y2="1055.54"/><g id="H-reference" style="fill:#27AAE1;stroke:none;" transform="matrix(1 0 0 1 339 1556)"><path d="M 54.9316 0 L 57.666 0 L 30.5664 -70.459 L 28.0762 -70.459 L 0.976562 0 L 3.66211 0 L 12.9395 -24.4629 L 45.7031 -24.4629 Z M 29.1992 -67.0898 L 29.4434 -67.0898 L 44.8242 -26.709 L 13.8184 -26.709 Z"/></g><line id="Baseline-L" style="fill:none;stroke:#27AAE1;opacity:1;stroke-width:0.577;" x1="263" x2="3036" y1="1556" y2="1556"/><line id="Capline-L" style="fill:none;stroke:#27AAE1;opacity:1;stroke-width:0.577;" x1="263" x2="3036" y1="1485.54" y2="1485.54"/><rect height="119.336" id="left-margin" style="fill:darkred;stroke:none;opacity:0.4;" width="12.4512" x="1394.06" y="1030.79"/><rect height="119.336" id="right-margin" style="fill:darkgreen;stroke:none;opacity:0.4;" width="12.4512" x="1502.5112" y="1030.79"/><rect x="1406.5112" y="1045" width="96" height="96" fill="none" stroke="blue" stroke-dasharray="5"/><rect x="1394.06" y="1030.79" width="120.9024" height="119.336" fill="none" stroke="blue"/></g><g id="Symbols"><g id="Bold-L" transform="matrix(1 0 0 1 2266 1556)"><path d="M42.731 5.083  13.545 -23.942 Q11.287 -26.2 11.287 -29.264 Q11.287 -32.327 13.545 -34.585 Q15.641 -36.52 18.705 -36.52 Q21.769 -36.52 24.026 -34.585 L47.891 -10.559 L58.373 -0.077 L53.374 5.083 Q50.955 7.34 47.811 7.259 Q44.666 7.179 42.731 5.083 Z M69.176 1.213  39.99 -27.974 Q37.733 -30.231 37.894 -33.295 Q38.055 -36.359 40.312 -38.777 Q42.248 -40.551 45.392 -40.551 Q48.536 -40.551 50.633 -38.777 L74.498 -14.59 L131.096 -70.866 Q132.87 -72.962 135.934 -73.043 Q138.998 -73.124 141.416 -71.027 Q143.513 -68.931 143.593 -65.787 Q143.674 -62.642 141.416 -60.385 L79.819 1.213 Q77.722 3.309 74.498 3.309 Q71.273 3.309 69.176 1.213 Z M74.82 -23.942  64.661 -34.424  101.426 -71.189 Q103.523 -73.285 106.586 -73.285 Q109.65 -73.285 111.907 -71.189 Q113.843 -68.931 113.843 -65.867 Q113.843 -62.804 111.907 -60.869 L74.82 -23.942 Z"/></g><g id="Semibold-L" transform="matrix(1 0 0 1 1970.27 1556)"><path d="M42.311 3.26  12.914 -25.976 Q10.867 -28.023 10.902 -30.841 Q10.937 -33.659 12.984 -35.707 Q14.94 -37.502 17.723 -37.502 Q20.507 -37.502 22.554 -35.707 L47.05 -11.049 L56.62 -1.48 L51.902 3.33 Q49.763 5.377 46.934 5.296 Q44.105 5.216 42.311 3.26 Z M70.508 1.072  41.112 -28.254 Q38.994 -30.301 39.156 -33.12 Q39.317 -35.938 41.364 -38.076 Q43.159 -39.78 46.023 -39.78 Q48.887 -39.78 50.843 -38.076 L75.269 -13.398 L132.639 -70.516 Q134.342 -72.472 137.196 -72.517 Q140.049 -72.563 142.187 -70.607 Q144.073 -68.651 144.119 -65.822 Q144.164 -62.993 142.117 -60.946 L80.099 1.072 Q78.143 3.028 75.269 3.028 Q72.394 3.028 70.508 1.072 Z M74.82 -25.204  65.432 -34.774  101.356 -70.698 Q103.312 -72.654 106.096 -72.654 Q108.879 -72.654 110.926 -70.698 Q112.791 -68.651 112.791 -65.867 Q112.791 -63.084 110.996 -61.219 L74.82 -25.204 Z"/></g><g id="Medium-L" transform="matrix(1 0 0 1 1674.31 1556)"><path d="M41.995 1.893  12.441 -27.5 Q10.551 -29.39 10.613 -32.024 Q10.674 -34.659 12.563 -36.548 Q14.414 -38.238 16.987 -38.238 Q19.56 -38.238 21.45 -36.548 L46.419 -11.418 L55.305 -2.531 L50.797 2.015 Q48.869 3.905 46.277 3.824 Q43.685 3.743 41.995 1.893 Z M71.507 0.967  41.953 -28.464 Q39.941 -30.354 40.102 -32.988 Q40.263 -35.623 42.153 -37.551 Q43.842 -39.202 46.496 -39.202 Q49.15 -39.202 51.001 -37.551 L75.847 -12.504 L133.795 -70.253 Q135.446 -72.104 138.142 -72.123 Q140.838 -72.142 142.766 -70.291 Q144.494 -68.441 144.513 -65.848 Q144.533 -63.256 142.643 -61.367 L80.309 0.967 Q78.459 2.818 75.847 2.818 Q73.236 2.818 71.507 0.967 Z M74.82 -26.151  66.011 -35.037  101.304 -70.33 Q103.154 -72.181 105.727 -72.181 Q108.3 -72.181 110.19 -70.33 Q112.002 -68.441 112.002 -65.867 Q112.002 -63.294 110.313 -61.482 L74.82 -26.151 Z"/></g><g id="Regular-L" transform="matrix(1 0 0 1 1378.56 1556)"><path d="M41.764 0.89  12.094 -28.619 Q10.32 -30.392 10.401 -32.892 Q10.481 -35.391 12.255 -37.165 Q14.029 -38.777 16.448 -38.777 Q18.866 -38.777 20.64 -37.165 L45.956 -11.687 L54.341 -3.302 L49.988 1.051 Q48.214 2.825 45.795 2.744 Q43.376 2.664 41.764 0.89 Z M72.24 0.89  42.57 -28.619 Q40.635 -30.392 40.796 -32.892 Q40.958 -35.391 42.731 -37.165 Q44.344 -38.777 46.843 -38.777 Q49.343 -38.777 51.116 -37.165 L76.271 -11.849 L134.644 -70.06 Q136.256 -71.834 138.836 -71.834 Q141.416 -71.834 143.19 -70.06 Q144.803 -68.286 144.803 -65.867 Q144.803 -63.449 143.029 -61.675 L80.464 0.89 Q78.69 2.664 76.271 2.664 Q73.853 2.664 72.24 0.89 Z M74.82 -26.845  66.435 -35.23  101.265 -70.06 Q103.039 -71.834 105.457 -71.834 Q107.876 -71.834 109.65 -70.06 Q111.424 -68.286 111.424 -65.867 Q111.424 -63.449 109.811 -61.675 L74.82 -26.845 Z"/></g><g id="Light-L" transform="matrix(1 0 0 1 1082.77 1556)"><path d="M40.771 -1.157  12.28 -29.425 Q10.878 -30.827 10.928 -32.861 Q10.977 -34.895 12.379 -36.297 Q13.843 -37.599 15.765 -37.599 Q17.688 -37.599 19.089 -36.297 L44.84 -10.509 L47.073 -12.742 L53.783 -6.031 L48.747 -0.995 Q47.035 0.778 44.679 0.698 Q42.322 0.617 40.771 -1.157 Z M73.667 -1.157  45.237 -29.425 Q43.612 -30.827 43.742 -32.861 Q43.873 -34.895 45.336 -36.297 Q46.577 -37.599 48.58 -37.599 Q50.583 -37.599 52.047 -36.297 L77.574 -10.67 L136.07 -68.944 Q137.311 -70.345 139.394 -70.376 Q141.478 -70.407 142.942 -69.006 Q144.244 -67.542 144.244 -65.619 Q144.244 -63.697 142.781 -62.295 L81.642 -1.157 Q79.93 0.617 77.574 0.617 Q75.217 0.617 73.667 -1.157 Z M73.89 -29.202  67.179 -35.912  100.273 -69.006 Q101.674 -70.407 103.597 -70.438 Q105.519 -70.469 106.983 -69.006 Q108.447 -67.542 108.447 -65.65 Q108.447 -63.759 107.144 -62.295 L73.89 -29.202 Z"/></g><g id="Thin-L" transform="matrix(1 0 0 1 787.282 1556)"><path d="M39.779 -3.203  12.466 -30.231 Q11.436 -31.261 11.455 -32.83 Q11.474 -34.399 12.503 -35.428 Q13.657 -36.421 15.083 -36.421 Q16.51 -36.421 17.539 -35.428 L43.724 -9.331 L48.189 -13.796 L53.225 -8.76 L47.507 -3.042 Q45.857 -1.268 43.562 -1.349 Q41.268 -1.429 39.779 -3.203 Z M75.093 -3.203  47.904 -30.231 Q46.589 -31.261 46.688 -32.83 Q46.787 -34.399 47.941 -35.428 Q48.809 -36.421 50.316 -36.421 Q51.823 -36.421 52.977 -35.428 L78.876 -9.492 L137.497 -67.827 Q138.365 -68.857 139.953 -68.919 Q141.54 -68.981 142.694 -67.951 Q143.686 -66.798 143.686 -65.371 Q143.686 -63.945 142.533 -62.915 L82.82 -3.203 Q81.171 -1.429 78.876 -1.429 Q76.581 -1.429 75.093 -3.203 Z M72.959 -31.558  67.923 -36.594  99.28 -67.951 Q100.31 -68.981 101.736 -69.043 Q103.163 -69.105 104.316 -67.951 Q105.47 -66.798 105.47 -65.433 Q105.47 -64.069 104.478 -62.915 L72.959 -31.558 Z"/></g><g id="Ultralight-L" transform="matrix(1 0 0 1 491.205 1556)"><path d="M39.184 -4.431  12.578 -30.715 Q11.771 -31.521 11.771 -32.811 Q11.771 -34.101 12.578 -34.907 Q13.545 -35.714 14.674 -35.714 Q15.803 -35.714 16.609 -34.907 L43.054 -8.624 L48.859 -14.429 L52.89 -10.397 L46.763 -4.27 Q45.15 -2.496 42.892 -2.577 Q40.635 -2.657 39.184 -4.431 Z M75.949 -4.431  49.504 -30.715 Q48.375 -31.521 48.456 -32.811 Q48.536 -34.101 49.504 -34.907 Q50.149 -35.714 51.358 -35.714 Q52.568 -35.714 53.535 -34.907 L79.657 -8.785 L138.352 -67.157 Q138.998 -67.964 140.287 -68.044 Q141.578 -68.125 142.545 -67.319 Q143.351 -66.351 143.351 -65.222 Q143.351 -64.094 142.384 -63.287 L83.528 -4.431 Q81.915 -2.657 79.657 -2.657 Q77.4 -2.657 75.949 -4.431 Z M72.401 -32.972  68.37 -37.004  98.685 -67.319 Q99.491 -68.125 100.62 -68.206 Q101.749 -68.286 102.716 -67.319 Q103.684 -66.351 103.684 -65.303 Q103.684 -64.255 102.877 -63.287 L72.401 -32.972 Z"/></g><g id="Bold-M" transform="matrix(1 0 0 1 2281.8 1126)"><path d="M26.625 -2.105  5.375 -23.355 Q2.875 -25.855 2.875 -29.355 Q2.875 -32.855 5.375 -35.355 Q7.75 -37.73 11.25 -37.73 Q14.75 -37.73 17.25 -35.355 L32.75 -19.855 L44.625 -7.98 L38.75 -2.105 Q36.125 0.395 32.625 0.395 Q29.125 0.395 26.625 -2.105 Z M56.5 -6.105  35.125 -27.48 Q32.5 -30.105 32.625 -33.542 Q32.75 -36.98 35.25 -39.605 Q37.75 -41.98 41.188 -41.98 Q44.625 -41.98 47.125 -39.605 L62.625 -24.105 L102.75 -64.23 Q105.125 -66.605 108.625 -66.605 Q112.125 -66.605 114.625 -64.105 Q117.125 -61.73 117.188 -58.23 Q117.25 -54.73 114.75 -52.23 L68.625 -6.105 Q66.125 -3.605 62.625 -3.605 Q59.125 -3.605 56.5 -6.105 Z M61.75 -35.105  49.875 -46.98  67.25 -64.355 Q69.625 -66.73 73.125 -66.73 Q76.625 -66.73 79.125 -64.355 Q81.5 -61.855 81.562 -58.355 Q81.625 -54.855 79.125 -52.48 L61.75 -35.105 Z"/></g><g id="Semibold-M" transform="matrix(1 0 0 1 1985.97 1126)"><path d="M26.516 -4.17  5.103 -25.583 Q2.821 -27.866 2.848 -31.012 Q2.875 -34.159 5.158 -36.442 Q7.37 -38.599 10.489 -38.627 Q13.609 -38.654 15.891 -36.442 L32.098 -20.235 L42.832 -9.502 L37.391 -4.116 Q35.038 -1.887 31.919 -1.887 Q28.799 -1.887 26.516 -4.17 Z M57.75 -6.431  36.212 -27.915 Q33.859 -30.214 33.956 -33.352 Q34.054 -36.491 36.282 -38.844 Q38.565 -41.056 41.677 -41.056 Q44.788 -41.056 47.071 -38.844 L63.223 -22.746 L104.217 -63.741 Q106.429 -65.953 109.63 -65.926 Q112.832 -65.898 115.06 -63.561 Q117.234 -61.35 117.269 -58.23 Q117.304 -55.11 115.076 -52.882 L68.625 -6.431 Q66.342 -4.148 63.223 -4.148 Q60.103 -4.148 57.75 -6.431 Z M61.75 -36.083  50.907 -46.817  67.848 -63.757 Q70.005 -65.915 73.152 -65.915 Q76.299 -65.915 78.582 -63.757 Q80.793 -61.475 80.856 -58.328 Q80.918 -55.181 78.636 -52.969 L61.75 -36.083 Z"/></g><g id="Medium-M" transform="matrix(1 0 0 1 1689.91 1126)"><path d="M26.435 -5.719  4.899 -27.254 Q2.78 -29.374 2.828 -32.256 Q2.875 -35.138 4.995 -37.257 Q7.084 -39.252 9.918 -39.299 Q12.753 -39.347 14.872 -37.257 L31.609 -20.521 L41.486 -10.643 L36.372 -5.624 Q34.223 -3.599 31.389 -3.599 Q28.554 -3.599 26.435 -5.719 Z M58.688 -6.676  37.027 -28.241 Q34.878 -30.295 34.955 -33.21 Q35.033 -36.124 37.057 -38.273 Q39.177 -40.363 42.044 -40.363 Q44.91 -40.363 47.03 -38.273 L63.671 -21.727 L105.318 -63.374 Q107.408 -65.464 110.385 -65.416 Q113.361 -65.369 115.386 -63.154 Q117.315 -61.064 117.33 -58.23 Q117.345 -55.396 115.321 -53.371 L68.625 -6.676 Q66.505 -4.556 63.671 -4.556 Q60.837 -4.556 58.688 -6.676 Z M61.75 -36.817  51.682 -46.695  68.296 -63.309 Q70.291 -65.303 73.172 -65.303 Q76.054 -65.303 78.174 -63.309 Q80.264 -61.189 80.326 -58.307 Q80.389 -55.426 78.269 -53.336 L61.75 -36.817 Z"/></g><g id="Regular-M" transform="matrix(1 0 0 1 1394.06 1126)"><path d="M26.375 -6.855  4.75 -28.48 Q2.75 -30.48 2.812 -33.167 Q2.875 -35.855 4.875 -37.855 Q6.875 -39.73 9.5 -39.792 Q12.125 -39.855 14.125 -37.855 L31.25 -20.73 L40.5 -11.48 L35.625 -6.73 Q33.625 -4.855 31 -4.855 Q28.375 -4.855 26.375 -6.855 Z M59.375 -6.855  37.625 -28.48 Q35.625 -30.355 35.688 -33.105 Q35.75 -35.855 37.625 -37.855 Q39.625 -39.855 42.312 -39.855 Q45 -39.855 47 -37.855 L64 -20.98 L106.125 -63.105 Q108.125 -65.105 110.938 -65.042 Q113.75 -64.98 115.625 -62.855 Q117.375 -60.855 117.375 -58.23 Q117.375 -55.605 115.5 -53.73 L68.625 -6.855 Q66.625 -4.855 64 -4.855 Q61.375 -4.855 59.375 -6.855 Z M61.75 -37.355  52.25 -46.605  68.625 -62.98 Q70.5 -64.855 73.188 -64.855 Q75.875 -64.855 77.875 -62.98 Q79.875 -60.98 79.938 -58.292 Q80 -55.605 78 -53.605 L61.75 -37.355 Z"/></g><g id="Light-M" transform="matrix(1 0 0 1 1098.18 1126)"><path d="M26.712 -8.249  5.615 -29.345 Q4 -30.961 4.014 -33.143 Q4.029 -35.326 5.692 -36.989 Q7.356 -38.576 9.452 -38.614 Q11.548 -38.653 13.211 -36.989 L31.202 -18.999 L32.933 -20.73 L40.452 -13.211 L35.288 -8.124 Q33.433 -6.345 31 -6.369 Q28.567 -6.394 26.712 -8.249 Z M59.712 -8.249  38.49 -29.345 Q36.827 -30.884 36.865 -33.105 Q36.904 -35.326 38.49 -36.989 Q40.154 -38.653 42.288 -38.653 Q44.423 -38.653 46.087 -36.989 L64 -19.201 L106.99 -62.191 Q108.606 -63.807 110.913 -63.792 Q113.221 -63.778 114.76 -61.989 Q116.221 -60.326 116.197 -58.23 Q116.173 -56.134 114.635 -54.595 L68.288 -8.249 Q66.433 -6.394 64 -6.394 Q61.567 -6.394 59.712 -8.249 Z M60.019 -37.355  52.298 -44.874  69.538 -62.114 Q71.077 -63.653 73.236 -63.677 Q75.394 -63.701 77.058 -62.114 Q78.721 -60.451 78.784 -58.316 Q78.846 -56.182 77.183 -54.518 L60.019 -37.355 Z"/></g><g id="Thin-M" transform="matrix(1 0 0 1 802.565 1126)"><path d="M27.048 -9.643  6.481 -30.211 Q5.25 -31.441 5.216 -33.119 Q5.183 -34.797 6.51 -36.124 Q7.837 -37.422 9.404 -37.437 Q10.971 -37.451 12.298 -36.124 L31.154 -17.268 L34.615 -20.73 L40.404 -14.941 L34.952 -9.518 Q33.24 -7.836 31 -7.884 Q28.76 -7.932 27.048 -9.643 Z M60.048 -9.643  39.356 -30.211 Q38.029 -31.413 38.043 -33.105 Q38.058 -34.797 39.356 -36.124 Q40.683 -37.451 42.264 -37.451 Q43.846 -37.451 45.173 -36.124 L64 -17.422 L107.856 -61.278 Q109.087 -62.509 110.889 -62.542 Q112.692 -62.576 113.894 -61.124 Q115.067 -59.797 115.019 -58.23 Q114.971 -56.663 113.769 -55.461 L67.952 -9.643 Q66.24 -7.932 64 -7.932 Q61.76 -7.932 60.048 -9.643 Z M58.288 -37.355  52.346 -43.143  70.452 -61.249 Q71.654 -62.451 73.284 -62.499 Q74.913 -62.547 76.24 -61.249 Q77.567 -59.922 77.63 -58.341 Q77.692 -56.759 76.365 -55.432 L58.288 -37.355 Z"/></g><g id="Ultralight-M" transform="matrix(1 0 0 1 506.415 1126)"><path d="M27.25 -10.48  7 -30.73 Q6 -31.73 5.938 -33.105 Q5.875 -34.48 7 -35.605 Q8.125 -36.73 9.375 -36.73 Q10.625 -36.73 11.75 -35.605 L31.125 -16.23 L35.625 -20.73 L40.375 -15.98 L34.75 -10.355 Q33.125 -8.73 31 -8.792 Q28.875 -8.855 27.25 -10.48 Z M60.25 -10.48  39.875 -30.73 Q38.75 -31.73 38.75 -33.105 Q38.75 -34.48 39.875 -35.605 Q41 -36.73 42.25 -36.73 Q43.5 -36.73 44.625 -35.605 L64 -16.355 L108.375 -60.73 Q109.375 -61.73 110.875 -61.792 Q112.375 -61.855 113.375 -60.605 Q114.375 -59.48 114.312 -58.23 Q114.25 -56.98 113.25 -55.98 L67.75 -10.48 Q66.125 -8.855 64 -8.855 Q61.875 -8.855 60.25 -10.48 Z M57.25 -37.355  52.375 -42.105  71 -60.73 Q72 -61.73 73.312 -61.792 Q74.625 -61.855 75.75 -60.73 Q76.875 -59.605 76.938 -58.355 Q77 -57.105 75.875 -55.98 L57.25 -37.355 Z"/></g><g id="Bold-S" transform="matrix(1 0 0 1 2294.23 696)"><path d="M23.769 -12.842  11.934 -24.677 Q10.06 -26.551 10.06 -29.165 Q10.06 -31.778 11.934 -33.652 Q13.709 -35.526 16.322 -35.477 Q18.936 -35.427 20.81 -33.652 L28.207 -26.156 L37.083 -17.28 L32.744 -12.842 Q30.771 -10.87 28.207 -10.919 Q25.643 -10.968 23.769 -12.842 Z M45.17 -16.097  33.335 -27.932 Q31.264 -30.003 31.363 -32.518 Q31.461 -35.033 33.434 -37.005 Q35.308 -38.78 37.823 -38.78 Q40.338 -38.78 42.212 -37.005 L49.707 -29.411 L73.772 -53.476 Q75.547 -55.251 78.16 -55.349 Q80.774 -55.448 82.648 -53.574 Q84.62 -51.799 84.62 -49.185 Q84.62 -46.572 82.746 -44.698 L54.145 -16.097 Q52.271 -14.223 49.707 -14.223 Q47.143 -14.223 45.17 -16.097 Z M49.017 -37.005  40.239 -45.881  48.129 -53.771 Q50.003 -55.645 52.567 -55.645 Q55.131 -55.645 57.005 -53.771 Q58.781 -51.898 58.83 -49.333 Q58.879 -46.769 57.005 -44.994 L49.017 -37.005 Z"/></g><g id="Semibold-S" transform="matrix(1 0 0 1 1998.1 696)"><path d="M23.683 -14.472  11.719 -26.435 Q10.017 -28.137 10.038 -30.472 Q10.06 -32.807 11.762 -34.51 Q13.409 -36.212 15.722 -36.184 Q18.036 -36.156 19.738 -34.51 L27.692 -26.457 L35.668 -18.481 L31.672 -14.429 Q29.913 -12.671 27.649 -12.72 Q25.385 -12.769 23.683 -14.472 Z M46.156 -16.354  34.193 -28.275 Q32.336 -30.089 32.413 -32.368 Q32.49 -34.647 34.249 -36.405 Q35.951 -38.052 38.209 -38.052 Q40.466 -38.052 42.169 -36.405 L50.179 -28.339 L74.929 -53.09 Q76.576 -54.736 78.954 -54.814 Q81.331 -54.891 82.991 -53.145 Q84.706 -51.499 84.685 -49.185 Q84.663 -46.872 83.004 -45.213 L54.145 -16.354 Q52.443 -14.652 50.179 -14.652 Q47.915 -14.652 46.156 -16.354 Z M49.017 -37.777  41.054 -45.753  48.601 -53.3 Q50.303 -55.002 52.589 -55.002 Q54.874 -55.002 56.576 -53.3 Q58.223 -51.598 58.272 -49.312 Q58.322 -47.026 56.619 -45.38 L49.017 -37.777 Z"/></g><g id="Medium-S" transform="matrix(1 0 0 1 1701.85 696)"><path d="M23.619 -15.694  11.558 -27.754 Q9.985 -29.327 10.022 -31.453 Q10.06 -33.579 11.634 -35.153 Q13.184 -36.727 15.272 -36.715 Q17.36 -36.703 18.934 -35.153 L27.306 -26.682 L34.607 -19.381 L30.867 -15.619 Q29.27 -14.021 27.231 -14.071 Q25.192 -14.12 23.619 -15.694 Z M46.896 -16.547  34.836 -28.532 Q33.14 -30.153 33.201 -32.255 Q33.262 -34.357 34.86 -35.955 Q36.433 -37.505 38.498 -37.505 Q40.563 -37.505 42.136 -35.955 L50.532 -27.535 L75.798 -52.8 Q77.348 -54.35 79.549 -54.411 Q81.749 -54.473 83.248 -52.824 Q84.77 -51.274 84.733 -49.185 Q84.695 -47.097 83.197 -45.598 L54.145 -16.547 Q52.571 -14.973 50.532 -14.973 Q48.494 -14.973 46.896 -16.547 Z M49.017 -38.356  41.665 -45.656  48.954 -52.946 Q50.528 -54.52 52.605 -54.52 Q54.681 -54.52 56.255 -52.946 Q57.805 -51.372 57.854 -49.296 Q57.904 -47.219 56.33 -45.669 L49.017 -38.356 Z"/></g><g id="Regular-S" transform="matrix(1 0 0 1 1405.73 696)"><path d="M23.571 -16.59  11.441 -28.721 Q9.961 -30.2 10.01 -32.173 Q10.06 -34.145 11.539 -35.624 Q13.019 -37.104 14.942 -37.104 Q16.865 -37.104 18.344 -35.624 L27.023 -26.847 L33.828 -20.042 L30.278 -16.491 Q28.799 -15.012 26.925 -15.061 Q25.051 -15.11 23.571 -16.59 Z M47.439 -16.688  35.308 -28.721 Q33.73 -30.2 33.779 -32.173 Q33.828 -34.145 35.308 -35.624 Q36.787 -37.104 38.71 -37.104 Q40.634 -37.104 42.113 -35.624 L50.792 -26.945 L76.434 -52.588 Q77.914 -54.067 79.985 -54.117 Q82.056 -54.166 83.437 -52.588 Q84.818 -51.109 84.768 -49.185 Q84.719 -47.262 83.338 -45.881 L54.145 -16.688 Q52.666 -15.209 50.792 -15.209 Q48.918 -15.209 47.439 -16.688 Z M49.017 -38.78  42.113 -45.586  49.214 -52.687 Q50.693 -54.166 52.616 -54.166 Q54.54 -54.166 56.019 -52.687 Q57.498 -51.207 57.548 -49.284 Q57.597 -47.361 56.118 -45.881 L49.017 -38.78 Z"/></g><g id="Light-S" transform="matrix(1 0 0 1 1109.75 696)"><path d="M23.837 -17.69  12.123 -29.404 Q10.947 -30.579 10.959 -32.154 Q10.97 -33.728 12.184 -34.942 Q13.398 -36.193 14.904 -36.174 Q16.41 -36.155 17.623 -34.942 L26.985 -25.481 L28.351 -26.847 L33.79 -21.407 L30.012 -17.591 Q28.647 -16.188 26.925 -16.256 Q25.203 -16.324 23.837 -17.69 Z M47.704 -17.789  35.991 -29.404 Q34.678 -30.617 34.709 -32.173 Q34.739 -33.728 35.991 -34.942 Q37.204 -36.155 38.691 -36.155 Q40.178 -36.155 41.392 -34.942 L50.792 -25.542 L77.117 -51.867 Q78.293 -53.043 79.966 -53.13 Q81.639 -53.218 82.754 -51.905 Q83.907 -50.691 83.839 -49.185 Q83.77 -47.68 82.655 -46.564 L53.88 -17.789 Q52.514 -16.423 50.792 -16.423 Q49.07 -16.423 47.704 -17.789 Z M47.651 -38.78  42.151 -44.22  49.935 -52.004 Q51.149 -53.218 52.654 -53.237 Q54.16 -53.256 55.374 -52.004 Q56.588 -50.79 56.637 -49.303 Q56.687 -47.816 55.473 -46.602 L47.651 -38.78 Z"/></g><g id="Thin-S" transform="matrix(1 0 0 1 814.015 696)"><path d="M24.102 -18.79  12.806 -30.086 Q11.934 -30.959 11.907 -32.135 Q11.88 -33.311 12.829 -34.259 Q13.777 -35.283 14.866 -35.245 Q15.954 -35.207 16.903 -34.259 L26.947 -24.116 L29.679 -26.847 L33.753 -22.773 L29.747 -18.691 Q28.495 -17.364 26.925 -17.451 Q25.354 -17.538 24.102 -18.79 Z M47.97 -18.889  36.673 -30.086 Q35.626 -31.035 35.638 -32.173 Q35.649 -33.311 36.673 -34.259 Q37.622 -35.207 38.672 -35.207 Q39.723 -35.207 40.671 -34.259 L50.792 -24.139 L77.8 -51.147 Q78.672 -52.019 79.947 -52.144 Q81.222 -52.269 82.071 -51.222 Q82.997 -50.274 82.91 -49.185 Q82.822 -48.097 81.973 -47.247 L53.614 -18.889 Q52.362 -17.637 50.792 -17.637 Q49.221 -17.637 47.97 -18.889 Z M46.286 -38.78  42.189 -42.855  50.655 -51.321 Q51.604 -52.269 52.692 -52.307 Q53.781 -52.345 54.729 -51.321 Q55.678 -50.373 55.727 -49.322 Q55.776 -48.271 54.828 -47.323 L46.286 -38.78 Z"/></g><g id="Ultralight-S" transform="matrix(1 0 0 1 517.792 696)"><path d="M24.262 -19.45  13.216 -30.496 Q12.525 -31.186 12.476 -32.123 Q12.427 -33.06 13.216 -33.849 Q14.005 -34.737 14.843 -34.688 Q15.681 -34.638 16.47 -33.849 L26.925 -23.296 L30.475 -26.847 L33.73 -23.592 L29.588 -19.351 Q28.404 -18.069 26.925 -18.168 Q25.445 -18.266 24.262 -19.45 Z M48.129 -19.549  37.083 -30.496 Q36.195 -31.285 36.195 -32.173 Q36.195 -33.06 37.083 -33.849 Q37.872 -34.638 38.661 -34.638 Q39.45 -34.638 40.239 -33.849 L50.792 -23.296 L78.21 -50.714 Q78.9 -51.404 79.936 -51.552 Q80.971 -51.7 81.662 -50.813 Q82.451 -50.024 82.352 -49.185 Q82.253 -48.347 81.563 -47.657 L53.455 -19.549 Q52.271 -18.365 50.792 -18.365 Q49.312 -18.365 48.129 -19.549 Z M45.466 -38.78  42.212 -42.035  51.088 -50.911 Q51.877 -51.7 52.715 -51.75 Q53.553 -51.799 54.342 -50.911 Q55.131 -50.122 55.181 -49.333 Q55.23 -48.544 54.441 -47.755 L45.466 -38.78 Z"/></g></g></svg>