<svg xmlns="http://www.w3.org/2000/svg" version="1.1" width="3300" height="2000"><g id="Notes"><style>
    text {
      font-family: monospace;
      text-anchor: middle;
    }
    text.emphasis {
      font-weight:bold;
    }
    text.lanchor {
      text-anchor: start;
    }
  </style><rect height="2200" id="artboard" fill="white" width="3300" x="0" y="0"/><line id="" style="fill:none;stroke:black;stroke-width:0.5;" x1="263" x2="3036" y1="292" y2="292"/><text class="lanchor emphasis" transform="matrix(1 0 0 1 263 322)">Weight/Scale Variations</text><text transform="matrix(1 0 0 1 559.711 322)">Ultralight</text><text transform="matrix(1 0 0 1 856.422 322)">Thin</text><text transform="matrix(1 0 0 1 1153.13 322)">Light</text><text transform="matrix(1 0 0 1 1449.84 322)">Regular</text><text transform="matrix(1 0 0 1 1746.56 322)">Medium</text><text transform="matrix(1 0 0 1 2043.27 322)">Semibold</text><text transform="matrix(1 0 0 1 2339.98 322)">Bold</text><text transform="matrix(1 0 0 1 2636.69 322)">Heavy</text><text transform="matrix(1 0 0 1 2933.4 322)">Black</text><text id="template-version" style="text-anchor: end;" transform="matrix(1 0 0 1 3036 1933)">Template v.1.0</text><text class="lanchor" transform="matrix(1 0 0 1 263 726)">Small</text><text class="lanchor" transform="matrix(1 0 0 1 263 1156)">Medium</text><text class="lanchor" transform="matrix(1 0 0 1 263 1586)">Large</text></g><g id="Guides"><g id="H-reference" style="fill:#27AAE1;stroke:none;" transform="matrix(1 0 0 1 339 696)"><path d="M 54.9316 0 L 57.666 0 L 30.5664 -70.459 L 28.0762 -70.459 L 0.976562 0 L 3.66211 0 L 12.9395 -24.4629 L 45.7031 -24.4629 Z M 29.1992 -67.0898 L 29.4434 -67.0898 L 44.8242 -26.709 L 13.8184 -26.709 Z"/></g><line id="Baseline-S" style="fill:none;stroke:#27AAE1;opacity:1;stroke-width:0.577;" x1="263" x2="3036" y1="696" y2="696"/><line id="Capline-S" style="fill:none;stroke:#27AAE1;opacity:1;stroke-width:0.577;" x1="263" x2="3036" y1="625.541" y2="625.541"/><g id="H-reference" style="fill:#27AAE1;stroke:none;" transform="matrix(1 0 0 1 339 1126)"><path d="M 54.9316 0 L 57.666 0 L 30.5664 -70.459 L 28.0762 -70.459 L 0.976562 0 L 3.66211 0 L 12.9395 -24.4629 L 45.7031 -24.4629 Z M 29.1992 -67.0898 L 29.4434 -67.0898 L 44.8242 -26.709 L 13.8184 -26.709 Z"/></g><line id="Baseline-M" style="fill:none;stroke:#27AAE1;opacity:1;stroke-width:0.577;" x1="263" x2="3036" y1="1126" y2="1126"/><line id="Capline-M" style="fill:none;stroke:#27AAE1;opacity:1;stroke-width:0.577;" x1="263" x2="3036" y1="1055.54" y2="1055.54"/><g id="H-reference" style="fill:#27AAE1;stroke:none;" transform="matrix(1 0 0 1 339 1556)"><path d="M 54.9316 0 L 57.666 0 L 30.5664 -70.459 L 28.0762 -70.459 L 0.976562 0 L 3.66211 0 L 12.9395 -24.4629 L 45.7031 -24.4629 Z M 29.1992 -67.0898 L 29.4434 -67.0898 L 44.8242 -26.709 L 13.8184 -26.709 Z"/></g><line id="Baseline-L" style="fill:none;stroke:#27AAE1;opacity:1;stroke-width:0.577;" x1="263" x2="3036" y1="1556" y2="1556"/><line id="Capline-L" style="fill:none;stroke:#27AAE1;opacity:1;stroke-width:0.577;" x1="263" x2="3036" y1="1485.54" y2="1485.54"/><rect height="119.336" id="left-margin" style="fill:darkred;stroke:none;opacity:0.4;" width="12.4512" x="1394.06" y="1030.79"/><rect height="119.336" id="right-margin" style="fill:darkgreen;stroke:none;opacity:0.4;" width="12.4512" x="1502.5112" y="1030.79"/><rect x="1406.5112" y="1045" width="96" height="96" fill="none" stroke="blue" stroke-dasharray="5"/><rect x="1394.06" y="1030.79" width="120.9024" height="119.336" fill="none" stroke="blue"/></g><g id="Symbols"><g id="Bold-L" transform="matrix(1 0 0 1 2266 1556)"><path d="M113.198 -18.944 Q111.263 -19.105 109.569 -20.234 Q107.876 -21.362 106.748 -22.814 L103.684 -21.201 Q101.91 -20.717 100.701 -21.04 Q99.491 -21.362 98.846 -22.491 L97.718 -23.942 Q96.911 -25.232 97.234 -26.522 Q97.556 -27.812 98.685 -28.941 L101.588 -31.037 Q100.943 -32.811 100.943 -35.552 Q100.943 -38.294 101.588 -40.067 L98.685 -42.486 Q97.718 -43.292 97.234 -44.582 Q96.75 -45.872 97.718 -47.162 L98.846 -48.614 Q99.491 -49.904 100.781 -50.146 Q102.071 -50.387 103.523 -50.065 L106.748 -48.452 Q107.876 -49.904 109.489 -50.952 Q111.101 -52 113.198 -52.161 L113.681 -56.354 Q114.004 -57.805 114.81 -58.611 Q115.616 -59.417 117.39 -59.417 H119.648 Q121.099 -59.417 121.905 -58.611 Q122.711 -57.805 123.034 -56.354 L123.517 -52.161 Q125.614 -52 127.226 -50.952 Q128.839 -49.904 129.968 -48.452 L133.354 -50.065 Q134.644 -50.387 135.934 -50.146 Q137.224 -49.904 138.03 -48.614 L138.998 -47.162 Q140.126 -45.872 139.562 -44.582 Q138.998 -43.292 138.191 -42.486 L135.127 -40.067 Q135.934 -38.294 135.934 -35.552 Q135.934 -32.811 135.127 -31.037 L138.03 -28.941 Q139.159 -27.812 139.481 -26.522 Q139.804 -25.232 139.159 -23.942 L138.191 -22.491 Q137.224 -21.362 136.014 -21.04 Q134.805 -20.717 133.354 -21.201 L129.968 -22.814 Q128.839 -21.362 127.146 -20.234 Q125.453 -19.105 123.517 -18.944 L123.034 -14.912 Q122.711 -13.3 121.905 -12.494 Q121.099 -11.687 119.648 -11.687 H117.39 Q115.616 -11.687 114.81 -12.494 Q114.004 -13.3 113.681 -14.912 L113.198 -18.944 Z M118.358 -24.91 Q122.873 -24.91 125.936 -27.974 Q129 -31.037 129 -35.552 Q129 -40.067 125.936 -43.131 Q122.873 -46.195 118.358 -46.195 Q113.843 -46.195 110.779 -43.131 Q107.715 -40.067 107.715 -35.552 Q107.715 -31.037 110.779 -27.974 Q113.843 -24.91 118.358 -24.91 Z M43.699 38.784 Q37.733 38.784 33.379 34.43 Q29.025 30.076 29.025 24.11 V-94.57 Q29.025 -100.536 33.379 -104.89 Q37.733 -109.244 43.699 -109.244 H111.101 Q117.068 -109.244 121.421 -104.89 Q125.775 -100.536 125.775 -94.57 V-80.219 Q125.775 -76.832 123.679 -74.817 Q121.583 -72.801 118.519 -72.801 Q116.422 -72.801 114.81 -73.688 Q113.198 -74.575 112.391 -76.187 V-80.38 H43.699 V9.92 H112.553 V5.728 Q113.198 4.115 114.81 3.228 Q116.422 2.341 118.519 2.341 Q121.583 2.341 123.679 4.357 Q125.775 6.373 125.775 9.598 V24.11 Q125.775 30.076 121.421 34.43 Q117.068 38.784 111.101 38.784 H43.699 Z"/></g><g id="Semibold-L" transform="matrix(1 0 0 1 1970.27 1556)"><path d="M112.707 -18.663 Q110.842 -18.895 109.289 -19.883 Q107.736 -20.872 106.677 -22.183 L102.983 -20.36 Q101.489 -19.876 100.35 -20.199 Q99.211 -20.521 98.636 -21.51 L96.736 -24.223 Q96 -25.373 96.252 -26.557 Q96.505 -27.742 97.563 -28.731 L101.027 -31.318 Q100.382 -32.881 100.382 -35.518 Q100.382 -38.153 101.027 -39.717 L97.563 -42.556 Q96.596 -43.292 96.217 -44.477 Q95.839 -45.662 96.666 -46.812 L98.566 -49.525 Q99.141 -50.675 100.326 -50.917 Q101.51 -51.159 102.821 -50.836 L106.677 -48.943 Q107.736 -50.324 109.208 -51.267 Q110.681 -52.21 112.707 -52.442 L113.261 -57.195 Q113.513 -58.576 114.249 -59.312 Q114.985 -60.048 116.549 -60.048 H120.208 Q121.589 -60.048 122.326 -59.312 Q123.062 -58.576 123.314 -57.195 L123.868 -52.442 Q125.894 -52.21 127.367 -51.267 Q128.839 -50.324 129.897 -48.943 L133.915 -50.836 Q135.064 -51.159 136.249 -50.917 Q137.434 -50.675 138.17 -49.525 L139.909 -46.812 Q140.827 -45.662 140.403 -44.477 Q139.979 -43.292 139.173 -42.556 L135.548 -39.717 Q136.284 -38.153 136.284 -35.518 Q136.284 -32.881 135.548 -31.318 L139.012 -28.731 Q140.07 -27.742 140.322 -26.557 Q140.575 -25.373 140 -24.223 L138.191 -21.51 Q137.364 -20.521 136.225 -20.199 Q135.085 -19.876 133.844 -20.36 L129.897 -22.183 Q128.839 -20.872 127.286 -19.883 Q125.733 -18.895 123.868 -18.663 L123.314 -14.001 Q123.062 -12.529 122.326 -11.793 Q121.589 -11.057 120.208 -11.057 H116.549 Q114.985 -11.057 114.249 -11.793 Q113.513 -12.529 113.261 -14.001 L112.707 -18.663 Z M118.287 -24.98 Q122.732 -24.98 125.796 -28.044 Q128.86 -31.108 128.86 -35.552 Q128.86 -39.997 125.796 -43.061 Q122.732 -46.125 118.287 -46.125 Q113.843 -46.125 110.779 -43.061 Q107.715 -39.997 107.715 -35.552 Q107.715 -31.108 110.779 -28.044 Q113.843 -24.98 118.287 -24.98 Z M42.787 38.644 Q37.242 38.644 33.309 34.71 Q29.376 30.777 29.376 25.232 V-95.692 Q29.376 -101.237 33.309 -105.17 Q37.242 -109.103 42.787 -109.103 H112.013 Q117.558 -109.103 121.491 -105.17 Q125.424 -101.237 125.424 -95.692 V-80.078 Q125.424 -77.043 123.503 -75.167 Q121.583 -73.292 118.799 -73.292 Q116.843 -73.292 115.371 -74.179 Q113.899 -75.066 113.162 -76.608 V-80.801 H42.787 V10.341 H113.254 V6.148 Q113.828 4.606 115.336 3.719 Q116.843 2.832 118.799 2.832 Q121.583 2.832 123.503 4.707 Q125.424 6.583 125.424 9.457 V25.232 Q125.424 30.777 121.491 34.71 Q117.558 38.644 112.013 38.644 H42.787 Z"/></g><g id="Medium-L" transform="matrix(1 0 0 1 1674.31 1556)"><path d="M112.339 -18.453 Q110.526 -18.737 109.079 -19.62 Q107.631 -20.504 106.625 -21.71 L102.457 -19.729 Q101.174 -19.245 100.087 -19.568 Q99.001 -19.89 98.478 -20.774 L96 -24.433 Q95.316 -25.478 95.516 -26.584 Q95.716 -27.69 96.722 -28.573 L100.606 -31.528 Q99.961 -32.934 99.961 -35.491 Q99.961 -38.048 100.606 -39.454 L96.722 -42.609 Q95.754 -43.292 95.455 -44.399 Q95.155 -45.504 95.877 -46.549 L98.356 -50.209 Q98.878 -51.253 99.984 -51.495 Q101.09 -51.737 102.296 -51.415 L106.625 -49.311 Q107.631 -50.64 108.998 -51.504 Q110.365 -52.368 112.339 -52.652 L112.945 -57.826 Q113.145 -59.155 113.828 -59.838 Q114.512 -60.522 115.918 -60.522 H120.629 Q121.958 -60.522 122.641 -59.838 Q123.325 -59.155 123.524 -57.826 L124.131 -52.652 Q126.104 -52.368 127.472 -51.504 Q128.839 -50.64 129.845 -49.311 L134.335 -51.415 Q135.38 -51.737 136.486 -51.495 Q137.592 -51.253 138.275 -50.209 L140.592 -46.549 Q141.353 -45.504 141.034 -44.399 Q140.715 -43.292 139.909 -42.609 L135.864 -39.454 Q136.547 -38.048 136.547 -35.491 Q136.547 -32.934 135.864 -31.528 L139.748 -28.573 Q140.754 -27.69 140.953 -26.584 Q141.153 -25.478 140.631 -24.433 L138.191 -20.774 Q137.469 -19.89 136.383 -19.568 Q135.296 -19.245 134.213 -19.729 L129.845 -21.71 Q128.839 -20.504 127.391 -19.62 Q125.943 -18.737 124.131 -18.453 L123.524 -13.318 Q123.325 -11.95 122.641 -11.267 Q121.958 -10.583 120.629 -10.583 H115.918 Q114.512 -10.583 113.828 -11.267 Q113.145 -11.95 112.945 -13.318 L112.339 -18.453 Z M118.235 -25.033 Q122.627 -25.033 125.691 -28.096 Q128.755 -31.16 128.755 -35.552 Q128.755 -39.945 125.691 -43.009 Q122.627 -46.072 118.235 -46.072 Q113.843 -46.072 110.779 -43.009 Q107.715 -39.945 107.715 -35.552 Q107.715 -31.16 110.779 -28.096 Q113.843 -25.033 118.235 -25.033 Z M42.104 38.538 Q36.874 38.538 33.256 34.921 Q29.638 31.303 29.638 26.073 V-96.533 Q29.638 -101.763 33.256 -105.381 Q36.874 -108.998 42.104 -108.998 H112.696 Q117.926 -108.998 121.544 -105.381 Q125.162 -101.763 125.162 -96.533 V-79.973 Q125.162 -77.201 123.372 -75.43 Q121.583 -73.66 119.009 -73.66 Q117.159 -73.66 115.792 -74.547 Q114.424 -75.434 113.741 -76.924 V-81.116 H42.104 V10.656 H113.779 V6.464 Q114.302 4.974 115.73 4.087 Q117.159 3.2 119.009 3.2 Q121.583 3.2 123.372 4.97 Q125.162 6.741 125.162 9.352 V26.073 Q125.162 31.303 121.544 34.921 Q117.926 38.538 112.696 38.538 H42.104 Z"/></g><g id="Regular-L" transform="matrix(1 0 0 1 1378.56 1556)"><path d="M112.069 -18.299 Q110.295 -18.621 108.924 -19.427 Q107.554 -20.234 106.586 -21.362 L102.071 -19.266 Q100.943 -18.782 99.894 -19.105 Q98.846 -19.427 98.362 -20.234 L95.46 -24.587 Q94.815 -25.555 94.976 -26.603 Q95.138 -27.651 96.105 -28.457 L100.297 -31.682 Q99.653 -32.972 99.653 -35.472 Q99.653 -37.971 100.297 -39.261 L96.105 -42.647 Q95.138 -43.292 94.896 -44.341 Q94.654 -45.389 95.299 -46.356 L98.201 -50.71 Q98.685 -51.677 99.733 -51.919 Q100.781 -52.161 101.91 -51.839 L106.586 -49.581 Q107.554 -50.871 108.844 -51.677 Q110.134 -52.484 112.069 -52.806 L112.714 -58.289 Q112.875 -59.579 113.52 -60.224 Q114.165 -60.869 115.455 -60.869 H120.938 Q122.228 -60.869 122.873 -60.224 Q123.517 -59.579 123.679 -58.289 L124.324 -52.806 Q126.259 -52.484 127.549 -51.677 Q128.839 -50.871 129.806 -49.581 L134.644 -51.839 Q135.611 -52.161 136.659 -51.919 Q137.708 -51.677 138.352 -50.71 L141.094 -46.356 Q141.739 -45.389 141.497 -44.341 Q141.255 -43.292 140.449 -42.647 L136.095 -39.261 Q136.74 -37.971 136.74 -35.472 Q136.74 -32.972 136.095 -31.682 L140.287 -28.457 Q141.255 -27.651 141.416 -26.603 Q141.578 -25.555 141.094 -24.587 L138.191 -20.234 Q137.546 -19.427 136.498 -19.105 Q135.45 -18.782 134.483 -19.266 L129.806 -21.362 Q128.839 -20.234 127.468 -19.427 Q126.097 -18.621 124.324 -18.299 L123.679 -12.816 Q123.517 -11.526 122.873 -10.881 Q122.228 -10.236 120.938 -10.236 H115.455 Q114.165 -10.236 113.52 -10.881 Q112.875 -11.526 112.714 -12.816 L112.069 -18.299 Z M118.196 -25.071 Q122.55 -25.071 125.614 -28.135 Q128.678 -31.199 128.678 -35.552 Q128.678 -39.906 125.614 -42.97 Q122.55 -46.034 118.196 -46.034 Q113.843 -46.034 110.779 -42.97 Q107.715 -39.906 107.715 -35.552 Q107.715 -31.199 110.779 -28.135 Q113.843 -25.071 118.196 -25.071 Z M41.602 38.461 Q36.604 38.461 33.218 35.075 Q29.831 31.689 29.831 26.69 V-97.15 Q29.831 -102.149 33.218 -105.535 Q36.604 -108.921 41.602 -108.921 H113.198 Q118.196 -108.921 121.583 -105.535 Q124.969 -102.149 124.969 -97.15 V-79.896 Q124.969 -77.316 123.276 -75.623 Q121.583 -73.93 119.164 -73.93 Q117.39 -73.93 116.1 -74.817 Q114.81 -75.704 114.165 -77.155 V-81.347 H41.602 V10.888 H114.165 V6.695 Q114.649 5.244 116.019 4.357 Q117.39 3.47 119.164 3.47 Q121.583 3.47 123.276 5.163 Q124.969 6.856 124.969 9.275 V26.69 Q124.969 31.689 121.583 35.075 Q118.196 38.461 113.198 38.461 H41.602 Z"/></g><g id="Light-L" transform="matrix(1 0 0 1 1082.77 1556)"><path d="M111.387 -19.291 Q109.117 -19.614 107.529 -20.575 Q105.941 -21.536 104.85 -22.913 L101.389 -21.251 Q100.26 -20.705 99.243 -21.059 Q98.226 -21.412 97.742 -22.156 L95.894 -24.836 Q95.249 -25.741 95.441 -26.758 Q95.634 -27.775 96.539 -28.52 L99.863 -31.062 Q99.094 -32.724 99.094 -35.348 Q99.094 -37.971 99.863 -39.695 L96.539 -42.399 Q95.634 -42.982 95.361 -43.999 Q95.088 -45.017 95.733 -45.984 L97.581 -48.601 Q98.003 -49.569 99.02 -49.811 Q100.037 -50.052 101.166 -49.668 L104.85 -47.845 Q105.941 -49.383 107.51 -50.344 Q109.079 -51.305 111.387 -51.628 L111.845 -55.932 Q111.945 -57.222 112.59 -57.867 Q113.235 -58.512 114.525 -58.512 H117.898 Q119.126 -58.512 119.771 -57.867 Q120.416 -57.222 120.578 -55.932 L121.037 -51.628 Q123.344 -51.305 124.882 -50.344 Q126.42 -49.383 127.573 -47.845 L131.357 -49.668 Q132.324 -50.052 133.341 -49.78 Q134.358 -49.507 135.003 -48.539 L136.69 -45.922 Q137.273 -45.017 137.031 -43.999 Q136.789 -42.982 136.045 -42.399 L132.56 -39.695 Q133.329 -37.971 133.329 -35.348 Q133.329 -32.724 132.56 -31.062 L135.884 -28.52 Q136.789 -27.713 136.951 -26.696 Q137.112 -25.679 136.628 -24.774 L134.78 -22.094 Q134.197 -21.35 133.18 -21.028 Q132.163 -20.705 131.195 -21.251 L127.573 -22.913 Q126.42 -21.536 124.832 -20.575 Q123.244 -19.614 121.037 -19.291 L120.578 -14.987 Q120.416 -13.759 119.771 -13.114 Q119.126 -12.469 117.898 -12.469 H114.525 Q113.235 -12.469 112.59 -13.114 Q111.945 -13.759 111.845 -14.987 L111.387 -19.291 Z M116.211 -25.133 Q120.441 -25.133 123.505 -28.166 Q126.569 -31.199 126.569 -35.49 Q126.569 -39.72 123.505 -42.753 Q120.441 -45.786 116.211 -45.786 Q111.92 -45.786 108.887 -42.753 Q105.854 -39.72 105.854 -35.49 Q105.854 -31.199 108.887 -28.166 Q111.92 -25.133 116.211 -25.133 Z M44.456 35.236 Q39.643 35.236 36.35 31.943 Q33.056 28.65 33.056 23.837 V-94.297 Q33.056 -99.11 36.35 -102.403 Q39.643 -105.696 44.456 -105.696 H110.344 Q115.157 -105.696 118.45 -102.403 Q121.744 -99.11 121.744 -94.297 V-77.477 Q121.744 -75.394 120.392 -74.042 Q119.04 -72.69 117.117 -72.69 Q115.839 -72.69 114.89 -73.235 Q113.942 -73.781 113.297 -74.736 V-80.789 H42.471 V10.329 H113.297 V4.276 Q113.78 3.321 114.81 2.775 Q115.839 2.23 117.117 2.23 Q119.04 2.23 120.392 3.582 Q121.744 4.934 121.744 6.856 V23.837 Q121.744 28.65 118.45 31.943 Q115.157 35.236 110.344 35.236 H44.456 Z"/></g><g id="Thin-L" transform="matrix(1 0 0 1 787.282 1556)"><path d="M110.704 -20.283 Q107.938 -20.606 106.133 -21.722 Q104.329 -22.839 103.113 -24.463 L100.707 -23.235 Q99.578 -22.628 98.592 -23.012 Q97.606 -23.397 97.122 -24.079 L96.328 -25.084 Q95.683 -25.927 95.907 -26.913 Q96.13 -27.899 96.973 -28.582 L99.429 -30.442 Q98.536 -32.476 98.536 -35.224 Q98.536 -37.971 99.429 -40.13 L96.973 -42.151 Q96.13 -42.672 95.826 -43.658 Q95.522 -44.645 96.167 -45.612 L96.961 -46.493 Q97.321 -47.46 98.307 -47.702 Q99.293 -47.944 100.422 -47.497 L103.113 -46.108 Q104.329 -47.894 106.177 -49.011 Q108.025 -50.127 110.704 -50.45 L110.977 -53.575 Q111.014 -54.865 111.659 -55.51 Q112.304 -56.155 113.594 -56.155 H114.86 Q116.026 -56.155 116.671 -55.51 Q117.316 -54.865 117.477 -53.575 L117.75 -50.45 Q120.429 -50.127 122.215 -49.011 Q124.001 -47.894 125.341 -46.108 L128.07 -47.497 Q129.037 -47.944 130.023 -47.64 Q131.009 -47.336 131.654 -46.369 L132.287 -45.488 Q132.808 -44.645 132.566 -43.658 Q132.324 -42.672 131.642 -42.151 L129.025 -40.13 Q129.918 -37.971 129.918 -35.224 Q129.918 -32.476 129.025 -30.442 L131.481 -28.582 Q132.324 -27.775 132.486 -26.789 Q132.647 -25.803 132.163 -24.96 L131.369 -23.955 Q130.848 -23.273 129.862 -22.95 Q128.876 -22.628 127.908 -23.235 L125.341 -24.463 Q124.001 -22.839 122.197 -21.722 Q120.392 -20.606 117.75 -20.283 L117.477 -17.158 Q117.316 -15.992 116.671 -15.347 Q116.026 -14.702 114.86 -14.702 H113.594 Q112.304 -14.702 111.659 -15.347 Q111.014 -15.992 110.977 -17.158 L110.704 -20.283 Z M114.227 -25.195 Q118.333 -25.195 121.396 -28.197 Q124.46 -31.199 124.46 -35.428 Q124.46 -39.534 121.396 -42.536 Q118.333 -45.538 114.227 -45.538 Q109.997 -45.538 106.996 -42.536 Q103.994 -39.534 103.994 -35.428 Q103.994 -31.199 106.996 -28.197 Q109.997 -25.195 114.227 -25.195 Z M47.308 32.011 Q42.682 32.011 39.481 28.811 Q36.281 25.611 36.281 20.984 V-91.444 Q36.281 -96.071 39.481 -99.271 Q42.682 -102.471 47.308 -102.471 H107.492 Q112.118 -102.471 115.319 -99.271 Q118.519 -96.071 118.519 -91.444 V-75.059 Q118.519 -73.471 117.508 -72.46 Q116.497 -71.449 115.071 -71.449 Q114.289 -71.449 113.681 -71.654 Q113.073 -71.859 112.428 -72.317 V-80.231 H43.339 V9.771 H112.428 V1.858 Q112.912 1.399 113.601 1.194 Q114.289 0.989 115.071 0.989 Q116.497 0.989 117.508 2 Q118.519 3.011 118.519 4.438 V20.984 Q118.519 25.611 115.319 28.811 Q112.118 32.011 107.492 32.011 H47.308 Z"/></g><g id="Ultralight-L" transform="matrix(1 0 0 1 491.205 1556)"><path d="M110.295 -20.879 Q107.231 -21.201 105.296 -22.411 Q103.361 -23.62 102.071 -25.394 L100.297 -24.426 Q99.169 -23.781 98.201 -24.184 Q97.234 -24.587 96.75 -25.232 H96.589 Q95.944 -26.039 96.186 -27.006 Q96.428 -27.974 97.234 -28.619 L99.169 -30.07 Q98.201 -32.327 98.201 -35.149 Q98.201 -37.971 99.169 -40.39 L97.234 -42.002 Q96.428 -42.486 96.105 -43.454 Q95.782 -44.421 96.428 -45.389 L96.589 -45.227 Q96.911 -46.195 97.879 -46.437 Q98.846 -46.679 99.975 -46.195 L102.071 -45.066 Q103.361 -47.001 105.377 -48.211 Q107.392 -49.42 110.295 -49.742 L110.456 -52.161 Q110.456 -53.451 111.101 -54.096 Q111.746 -54.741 113.036 -54.741 Q114.165 -54.741 114.81 -54.096 Q115.455 -53.451 115.616 -52.161 L115.778 -49.742 Q118.68 -49.42 120.615 -48.211 Q122.55 -47.001 124.001 -45.066 L126.097 -46.195 Q127.065 -46.679 128.032 -46.356 Q129 -46.034 129.645 -45.066 V-45.227 Q130.129 -44.421 129.887 -43.454 Q129.645 -42.486 129 -42.002 L126.904 -40.39 Q127.871 -37.971 127.871 -35.149 Q127.871 -32.327 126.904 -30.07 L128.839 -28.619 Q129.645 -27.812 129.806 -26.845 Q129.968 -25.877 129.484 -25.071 H129.322 Q128.839 -24.426 127.871 -24.104 Q126.904 -23.781 125.936 -24.426 L124.001 -25.394 Q122.55 -23.62 120.615 -22.411 Q118.68 -21.201 115.778 -20.879 L115.616 -18.46 Q115.455 -17.331 114.81 -16.686 Q114.165 -16.041 113.036 -16.041 Q111.746 -16.041 111.101 -16.686 Q110.456 -17.331 110.456 -18.46 L110.295 -20.879 Z M113.036 -25.232 Q117.068 -25.232 120.131 -28.216 Q123.195 -31.199 123.195 -35.391 Q123.195 -39.422 120.131 -42.406 Q117.068 -45.389 113.036 -45.389 Q108.844 -45.389 105.861 -42.406 Q102.877 -39.422 102.877 -35.391 Q102.877 -31.199 105.861 -28.216 Q108.844 -25.232 113.036 -25.232 Z M49.02 30.076 Q44.505 30.076 41.361 26.932 Q38.216 23.788 38.216 19.273 V-89.732 Q38.216 -94.247 41.361 -97.392 Q44.505 -100.536 49.02 -100.536 H105.78 Q110.295 -100.536 113.439 -97.392 Q116.584 -94.247 116.584 -89.732 V-73.607 Q116.584 -72.317 115.778 -71.511 Q114.971 -70.705 113.843 -70.705 Q113.359 -70.705 112.956 -70.705 Q112.553 -70.705 111.907 -70.866 V-79.896 H43.86 V9.436 H111.907 V0.406 Q112.391 0.245 112.875 0.245 Q113.359 0.245 113.843 0.245 Q114.971 0.245 115.778 1.051 Q116.584 1.858 116.584 2.986 V19.273 Q116.584 23.788 113.439 26.932 Q110.295 30.076 105.78 30.076 H49.02 Z"/></g><g id="Bold-M" transform="matrix(1 0 0 1 2281.8 1126)"><path d="M85.125 -21.23 Q84.375 -21.355 83.688 -21.792 Q83 -22.23 82.375 -22.855 L79.875 -21.73 Q78.25 -21.105 76.75 -21.605 Q75.25 -22.105 74.5 -23.48 L72.625 -26.48 Q71.875 -27.855 72.125 -29.417 Q72.375 -30.98 73.75 -31.98 L76 -33.73 Q76 -34.48 76 -35.292 Q76 -36.105 76 -36.855 L73.75 -38.605 Q72.5 -39.605 72.188 -41.167 Q71.875 -42.73 72.75 -44.105 L74.625 -47.105 Q75.375 -48.48 76.875 -48.98 Q78.375 -49.48 79.875 -48.855 L82.375 -47.855 Q83 -48.355 83.688 -48.73 Q84.375 -49.105 85.125 -49.23 L85.5 -52.105 Q85.75 -53.73 86.875 -54.792 Q88 -55.855 89.75 -55.855 H93.125 Q94.75 -55.855 95.875 -54.792 Q97 -53.73 97.25 -52.105 L97.625 -49.23 Q98.375 -49.105 99.062 -48.73 Q99.75 -48.355 100.375 -47.855 L102.875 -48.855 Q104.375 -49.48 105.875 -48.98 Q107.375 -48.48 108.125 -47.105 L110 -44.105 Q111 -42.73 110.625 -41.167 Q110.25 -39.605 109 -38.605 L106.75 -36.855 Q106.875 -36.105 106.875 -35.292 Q106.875 -34.48 106.75 -33.73 L109 -31.98 Q110.375 -30.98 110.625 -29.417 Q110.875 -27.855 110.125 -26.48 L108.375 -23.48 Q107.5 -22.105 106 -21.605 Q104.5 -21.105 102.875 -21.73 L100.375 -22.855 Q99.75 -22.23 99.062 -21.792 Q98.375 -21.355 97.625 -21.23 L97.25 -18.355 Q97 -16.73 95.875 -15.667 Q94.75 -14.605 93.125 -14.605 H89.75 Q88 -14.605 86.875 -15.667 Q85.75 -16.73 85.5 -18.355 L85.125 -21.23 Z M91.375 -27.855 Q94.5 -27.855 96.625 -29.98 Q98.75 -32.105 98.75 -35.23 Q98.75 -38.355 96.625 -40.48 Q94.5 -42.605 91.375 -42.605 Q88.25 -42.605 86.125 -40.48 Q84 -38.355 84 -35.23 Q84 -32.105 86.125 -29.98 Q88.25 -27.855 91.375 -27.855 Z M36.625 25.27 Q29.625 25.27 24.625 20.27 Q19.625 15.27 19.625 8.27 V-78.73 Q19.625 -85.73 24.625 -90.73 Q29.625 -95.73 36.625 -95.73 H83.375 Q90.375 -95.73 95.375 -90.73 Q100.375 -85.73 100.375 -78.73 V-69.355 Q100.375 -65.73 97.875 -63.292 Q95.375 -60.855 91.875 -60.855 Q90.125 -60.855 88.562 -61.417 Q87 -61.98 85.5 -62.98 H36.625 V-7.48 H85.5 Q86.875 -8.48 88.438 -9.042 Q90 -9.605 91.875 -9.605 Q95.375 -9.605 97.875 -7.167 Q100.375 -4.73 100.375 -1.105 V8.27 Q100.375 15.27 95.375 20.27 Q90.375 25.27 83.375 25.27 H36.625 Z"/></g><g id="Semibold-M" transform="matrix(1 0 0 1 1985.97 1126)"><path d="M84.636 -21.013 Q83.94 -21.192 83.361 -21.521 Q82.783 -21.85 82.212 -22.366 L79.114 -21.023 Q77.707 -20.453 76.342 -20.926 Q74.978 -21.398 74.283 -22.61 L71.701 -26.806 Q71.005 -28.018 71.228 -29.445 Q71.451 -30.871 72.663 -31.763 L75.457 -33.947 Q75.457 -34.534 75.457 -35.265 Q75.457 -35.996 75.457 -36.583 L72.663 -38.768 Q71.522 -39.659 71.264 -41.086 Q71.005 -42.513 71.772 -43.725 L74.353 -47.92 Q75.049 -49.132 76.413 -49.605 Q77.777 -50.078 79.114 -49.507 L82.212 -48.235 Q82.783 -48.681 83.361 -48.974 Q83.94 -49.268 84.636 -49.447 L85.065 -52.92 Q85.261 -54.436 86.277 -55.39 Q87.293 -56.344 88.88 -56.344 H93.614 Q95.13 -56.344 96.147 -55.39 Q97.163 -54.436 97.359 -52.92 L97.788 -49.447 Q98.484 -49.268 99.062 -48.974 Q99.641 -48.681 100.212 -48.235 L103.31 -49.507 Q104.647 -50.078 106.011 -49.605 Q107.375 -49.132 108.071 -47.92 L110.652 -43.725 Q111.489 -42.513 111.196 -41.086 Q110.902 -39.659 109.761 -38.768 L106.967 -36.583 Q107.038 -35.996 107.038 -35.265 Q107.038 -34.534 106.967 -33.947 L109.761 -31.763 Q110.973 -30.871 111.196 -29.445 Q111.418 -28.018 110.723 -26.806 L108.212 -22.61 Q107.446 -21.398 106.082 -20.926 Q104.717 -20.453 103.31 -21.023 L100.212 -22.366 Q99.641 -21.85 99.062 -21.521 Q98.484 -21.192 97.788 -21.013 L97.359 -17.54 Q97.163 -16.023 96.147 -15.07 Q95.13 -14.116 93.614 -14.116 H88.88 Q87.293 -14.116 86.277 -15.07 Q85.261 -16.023 85.065 -17.54 L84.636 -21.013 Z M91.212 -27.909 Q94.283 -27.909 96.408 -30.034 Q98.533 -32.159 98.533 -35.23 Q98.533 -38.301 96.408 -40.426 Q94.283 -42.551 91.212 -42.551 Q88.141 -42.551 86.016 -40.426 Q83.891 -38.301 83.891 -35.23 Q83.891 -32.159 86.016 -30.034 Q88.141 -27.909 91.212 -27.909 Z M35.701 24.727 Q29.299 24.727 24.815 20.243 Q20.331 15.759 20.331 9.357 V-79.817 Q20.331 -86.219 24.815 -90.703 Q29.299 -95.186 35.701 -95.186 H84.299 Q90.701 -95.186 95.185 -90.703 Q99.668 -86.219 99.668 -79.817 V-68.92 Q99.668 -65.676 97.413 -63.455 Q95.158 -61.235 91.984 -61.235 Q90.288 -61.235 88.861 -61.852 Q87.435 -62.469 86.152 -63.523 H35.701 V-6.936 H86.098 Q87.31 -7.991 88.764 -8.608 Q90.217 -9.225 91.984 -9.225 Q95.158 -9.225 97.413 -7.004 Q99.668 -4.784 99.668 -1.54 V9.357 Q99.668 15.759 95.185 20.243 Q90.701 24.727 84.299 24.727 H35.701 Z"/></g><g id="Medium-M" transform="matrix(1 0 0 1 1689.91 1126)"><path d="M84.269 -20.85 Q83.614 -21.07 83.117 -21.317 Q82.62 -21.564 82.09 -21.999 L78.543 -20.494 Q77.299 -19.964 76.037 -20.416 Q74.775 -20.869 74.12 -21.958 L71.008 -27.051 Q70.353 -28.14 70.556 -29.465 Q70.758 -30.79 71.848 -31.6 L75.049 -34.11 Q75.049 -34.575 75.049 -35.245 Q75.049 -35.915 75.049 -36.379 L71.848 -38.89 Q70.788 -39.7 70.571 -41.025 Q70.353 -42.35 71.038 -43.439 L74.15 -48.532 Q74.804 -49.621 76.067 -50.074 Q77.329 -50.526 78.543 -49.996 L82.09 -48.521 Q82.62 -48.926 83.117 -49.158 Q83.614 -49.39 84.269 -49.61 L84.739 -53.532 Q84.894 -54.966 85.829 -55.839 Q86.764 -56.711 88.228 -56.711 H93.981 Q95.416 -56.711 96.35 -55.839 Q97.285 -54.966 97.44 -53.532 L97.91 -49.61 Q98.565 -49.39 99.062 -49.158 Q99.56 -48.926 100.09 -48.521 L103.636 -49.996 Q104.85 -50.526 106.113 -50.074 Q107.375 -49.621 108.03 -48.532 L111.141 -43.439 Q111.856 -42.35 111.624 -41.025 Q111.391 -39.7 110.332 -38.89 L107.13 -36.379 Q107.16 -35.915 107.16 -35.245 Q107.16 -34.575 107.13 -34.11 L110.332 -31.6 Q111.421 -30.79 111.624 -29.465 Q111.826 -28.14 111.171 -27.051 L108.09 -21.958 Q107.405 -20.869 106.143 -20.416 Q104.88 -19.964 103.636 -20.494 L100.09 -21.999 Q99.56 -21.564 99.062 -21.317 Q98.565 -21.07 97.91 -20.85 L97.44 -16.928 Q97.285 -15.494 96.35 -14.621 Q95.416 -13.749 93.981 -13.749 H88.228 Q86.764 -13.749 85.829 -14.621 Q84.894 -15.494 84.739 -16.928 L84.269 -20.85 Z M91.09 -27.95 Q94.12 -27.95 96.245 -30.075 Q98.37 -32.2 98.37 -35.23 Q98.37 -38.26 96.245 -40.385 Q94.12 -42.51 91.09 -42.51 Q88.06 -42.51 85.935 -40.385 Q83.81 -38.26 83.81 -35.23 Q83.81 -32.2 85.935 -30.075 Q88.06 -27.95 91.09 -27.95 Z M35.008 24.319 Q29.054 24.319 24.958 20.223 Q20.861 16.126 20.861 10.172 V-80.632 Q20.861 -86.586 24.958 -90.682 Q29.054 -94.779 35.008 -94.779 H84.992 Q90.946 -94.779 95.042 -90.682 Q99.139 -86.586 99.139 -80.632 V-68.594 Q99.139 -65.635 97.067 -63.578 Q94.995 -61.521 92.065 -61.521 Q90.41 -61.521 89.086 -62.178 Q87.761 -62.836 86.641 -63.931 H35.008 V-6.529 H86.546 Q87.636 -7.624 89.008 -8.282 Q90.38 -8.939 92.065 -8.939 Q94.995 -8.939 97.067 -6.882 Q99.139 -4.825 99.139 -1.866 V10.172 Q99.139 16.126 95.042 20.223 Q90.946 24.319 84.992 24.319 H35.008 Z"/></g><g id="Regular-M" transform="matrix(1 0 0 1 1394.06 1126)"><path d="M84 -20.73 Q83.375 -20.98 82.938 -21.167 Q82.5 -21.355 82 -21.73 L78.125 -20.105 Q77 -19.605 75.812 -20.042 Q74.625 -20.48 74 -21.48 L70.5 -27.23 Q69.875 -28.23 70.062 -29.48 Q70.25 -30.73 71.25 -31.48 L74.75 -34.23 Q74.75 -34.605 74.75 -35.23 Q74.75 -35.855 74.75 -36.23 L71.25 -38.98 Q70.25 -39.73 70.062 -40.98 Q69.875 -42.23 70.5 -43.23 L74 -48.98 Q74.625 -49.98 75.812 -50.417 Q77 -50.855 78.125 -50.355 L82 -48.73 Q82.5 -49.105 82.938 -49.292 Q83.375 -49.48 84 -49.73 L84.5 -53.98 Q84.625 -55.355 85.5 -56.167 Q86.375 -56.98 87.75 -56.98 H94.25 Q95.625 -56.98 96.5 -56.167 Q97.375 -55.355 97.5 -53.98 L98 -49.73 Q98.625 -49.48 99.062 -49.292 Q99.5 -49.105 100 -48.73 L103.875 -50.355 Q105 -50.855 106.188 -50.417 Q107.375 -49.98 108 -48.98 L111.5 -43.23 Q112.125 -42.23 111.938 -40.98 Q111.75 -39.73 110.75 -38.98 L107.25 -36.23 Q107.25 -35.855 107.25 -35.23 Q107.25 -34.605 107.25 -34.23 L110.75 -31.48 Q111.75 -30.73 111.938 -29.48 Q112.125 -28.23 111.5 -27.23 L108 -21.48 Q107.375 -20.48 106.188 -20.042 Q105 -19.605 103.875 -20.105 L100 -21.73 Q99.5 -21.355 99.062 -21.167 Q98.625 -20.98 98 -20.73 L97.5 -16.48 Q97.375 -15.105 96.5 -14.292 Q95.625 -13.48 94.25 -13.48 H87.75 Q86.375 -13.48 85.5 -14.292 Q84.625 -15.105 84.5 -16.48 L84 -20.73 Z M91 -27.98 Q94 -27.98 96.125 -30.105 Q98.25 -32.23 98.25 -35.23 Q98.25 -38.23 96.125 -40.355 Q94 -42.48 91 -42.48 Q88 -42.48 85.875 -40.355 Q83.75 -38.23 83.75 -35.23 Q83.75 -32.23 85.875 -30.105 Q88 -27.98 91 -27.98 Z M34.5 24.02 Q28.875 24.02 25.062 20.208 Q21.25 16.395 21.25 10.77 V-81.23 Q21.25 -86.855 25.062 -90.667 Q28.875 -94.48 34.5 -94.48 H85.5 Q91.125 -94.48 94.938 -90.667 Q98.75 -86.855 98.75 -81.23 V-68.355 Q98.75 -65.605 96.812 -63.667 Q94.875 -61.73 92.125 -61.73 Q90.5 -61.73 89.25 -62.417 Q88 -63.105 87 -64.23 H34.5 V-6.23 H86.875 Q87.875 -7.355 89.188 -8.042 Q90.5 -8.73 92.125 -8.73 Q94.875 -8.73 96.812 -6.792 Q98.75 -4.855 98.75 -2.105 V10.77 Q98.75 16.395 94.938 20.208 Q91.125 24.02 85.5 24.02 H34.5 Z"/></g><g id="Light-M" transform="matrix(1 0 0 1 1098.18 1126)"><path d="M84.192 -21.788 Q83.087 -22.038 82.337 -22.418 Q81.587 -22.797 80.942 -23.413 L77.981 -22.124 Q76.952 -21.624 75.812 -22.038 Q74.673 -22.451 74.096 -23.355 L71.654 -27.23 Q71.077 -28.134 71.24 -29.312 Q71.404 -30.49 72.356 -31.143 L75.135 -33.364 Q74.942 -34.172 74.942 -35.182 Q74.942 -36.192 75.135 -36.999 L72.308 -39.22 Q71.356 -39.922 71.192 -41.076 Q71.029 -42.23 71.606 -43.134 L74 -47.057 Q74.577 -48.009 75.692 -48.398 Q76.808 -48.787 77.837 -48.287 L80.942 -46.951 Q81.587 -47.614 82.337 -48.018 Q83.087 -48.422 84.192 -48.672 L84.548 -52.057 Q84.673 -53.336 85.476 -54.1 Q86.279 -54.864 87.558 -54.864 H91.942 Q93.221 -54.864 94.024 -54.1 Q94.827 -53.336 94.952 -52.057 L95.308 -48.672 Q96.413 -48.422 97.163 -48.018 Q97.913 -47.614 98.558 -46.951 L101.615 -48.287 Q102.644 -48.787 103.784 -48.374 Q104.923 -47.961 105.5 -47.009 L107.894 -43.086 Q108.471 -42.182 108.307 -41.028 Q108.144 -39.874 107.192 -39.22 L104.365 -36.999 Q104.558 -36.192 104.558 -35.182 Q104.558 -34.172 104.365 -33.364 L107.144 -31.143 Q108.096 -30.441 108.259 -29.264 Q108.423 -28.086 107.846 -27.182 L105.404 -23.307 Q104.827 -22.403 103.711 -22.014 Q102.596 -21.624 101.567 -22.124 L98.558 -23.413 Q97.913 -22.797 97.163 -22.418 Q96.413 -22.038 95.308 -21.788 L94.952 -18.403 Q94.827 -17.124 94.024 -16.36 Q93.221 -15.595 91.942 -15.595 H87.558 Q86.279 -15.595 85.476 -16.36 Q84.673 -17.124 84.548 -18.403 L84.192 -21.788 Z M89.75 -27.884 Q92.75 -27.884 94.923 -30.057 Q97.096 -32.23 97.096 -35.23 Q97.096 -38.23 94.923 -40.403 Q92.75 -42.576 89.75 -42.576 Q86.75 -42.576 84.577 -40.403 Q82.404 -38.23 82.404 -35.23 Q82.404 -32.23 84.577 -30.057 Q86.75 -27.884 89.75 -27.884 Z M36.039 21.52 Q30.798 21.52 27.274 17.996 Q23.75 14.472 23.75 9.231 V-79.691 Q23.75 -84.932 27.274 -88.456 Q30.798 -91.98 36.039 -91.98 H83.961 Q89.202 -91.98 92.726 -88.456 Q96.25 -84.932 96.25 -79.691 V-67.297 Q96.25 -65.076 94.673 -63.499 Q93.096 -61.922 90.875 -61.922 Q89.779 -61.922 88.889 -62.249 Q88 -62.576 87 -63.172 V-65.48 H34.5 V-4.98 H86.875 V-7.288 Q87.875 -7.884 88.827 -8.211 Q89.779 -8.538 90.875 -8.538 Q93.096 -8.538 94.673 -6.961 Q96.25 -5.384 96.25 -3.163 V9.231 Q96.25 14.472 92.726 17.996 Q89.202 21.52 83.961 21.52 H36.039 Z"/></g><g id="Thin-M" transform="matrix(1 0 0 1 802.565 1126)"><path d="M84.385 -22.845 Q82.798 -23.095 81.736 -23.667 Q80.673 -24.24 79.885 -25.095 L77.837 -24.143 Q76.904 -23.643 75.812 -24.033 Q74.721 -24.422 74.192 -25.23 L72.808 -27.23 Q72.279 -28.038 72.418 -29.143 Q72.558 -30.249 73.462 -30.807 L75.519 -32.499 Q75.135 -33.74 75.135 -35.134 Q75.135 -36.528 75.519 -37.768 L73.365 -39.461 Q72.462 -40.115 72.322 -41.172 Q72.183 -42.23 72.712 -43.038 L74 -45.134 Q74.529 -46.038 75.572 -46.379 Q76.615 -46.72 77.548 -46.22 L79.885 -45.172 Q80.673 -46.124 81.736 -46.744 Q82.798 -47.365 84.385 -47.615 L84.596 -50.134 Q84.721 -51.317 85.452 -52.033 Q86.183 -52.749 87.365 -52.749 H89.635 Q90.817 -52.749 91.548 -52.033 Q92.279 -51.317 92.404 -50.134 L92.615 -47.615 Q94.202 -47.365 95.264 -46.744 Q96.327 -46.124 97.115 -45.172 L99.356 -46.22 Q100.288 -46.72 101.38 -46.331 Q102.471 -45.942 103 -45.038 L104.288 -42.941 Q104.817 -42.134 104.678 -41.076 Q104.538 -40.018 103.635 -39.461 L101.481 -37.768 Q101.865 -36.528 101.865 -35.134 Q101.865 -33.74 101.481 -32.499 L103.538 -30.807 Q104.442 -30.153 104.582 -29.047 Q104.721 -27.941 104.192 -27.134 L102.808 -25.134 Q102.279 -24.326 101.236 -23.985 Q100.192 -23.643 99.26 -24.143 L97.115 -25.095 Q96.327 -24.24 95.264 -23.667 Q94.202 -23.095 92.615 -22.845 L92.404 -20.326 Q92.279 -19.143 91.548 -18.427 Q90.817 -17.711 89.635 -17.711 H87.365 Q86.183 -17.711 85.452 -18.427 Q84.721 -19.143 84.596 -20.326 L84.385 -22.845 Z M88.5 -27.788 Q91.5 -27.788 93.721 -30.009 Q95.942 -32.23 95.942 -35.23 Q95.942 -38.23 93.721 -40.451 Q91.5 -42.672 88.5 -42.672 Q85.5 -42.672 83.279 -40.451 Q81.058 -38.23 81.058 -35.23 Q81.058 -32.23 83.279 -30.009 Q85.5 -27.788 88.5 -27.788 Z M37.577 19.02 Q32.721 19.02 29.485 15.785 Q26.25 12.549 26.25 7.693 V-78.153 Q26.25 -83.009 29.485 -86.244 Q32.721 -89.48 37.577 -89.48 H82.423 Q87.279 -89.48 90.514 -86.244 Q93.75 -83.009 93.75 -78.153 V-66.24 Q93.75 -64.547 92.534 -63.331 Q91.317 -62.115 89.625 -62.115 Q89.058 -62.115 88.529 -62.081 Q88 -62.047 87 -62.115 V-66.73 H34.5 V-3.73 H86.875 V-8.345 Q87.875 -8.413 88.466 -8.379 Q89.058 -8.345 89.625 -8.345 Q91.317 -8.345 92.534 -7.129 Q93.75 -5.913 93.75 -4.22 V7.693 Q93.75 12.549 90.514 15.785 Q87.279 19.02 82.423 19.02 H37.577 Z"/></g><g id="Ultralight-M" transform="matrix(1 0 0 1 506.415 1126)"><path d="M84.5 -23.48 Q82.625 -23.73 81.375 -24.417 Q80.125 -25.105 79.25 -26.105 L77.75 -25.355 Q76.875 -24.855 75.812 -25.23 Q74.75 -25.605 74.25 -26.355 L73.5 -27.23 Q73 -27.98 73.125 -29.042 Q73.25 -30.105 74.125 -30.605 L75.75 -31.98 Q75.25 -33.48 75.25 -35.105 Q75.25 -36.73 75.75 -38.23 L74 -39.605 Q73.125 -40.23 73 -41.23 Q72.875 -42.23 73.375 -42.98 L74 -43.98 Q74.5 -44.855 75.5 -45.167 Q76.5 -45.48 77.375 -44.98 L79.25 -44.105 Q80.125 -45.23 81.375 -45.98 Q82.625 -46.73 84.5 -46.98 L84.625 -48.98 Q84.75 -50.105 85.438 -50.792 Q86.125 -51.48 87.25 -51.48 H88.25 Q89.375 -51.48 90.062 -50.792 Q90.75 -50.105 90.875 -48.98 L91 -46.98 Q92.875 -46.73 94.125 -45.98 Q95.375 -45.23 96.25 -44.105 L98 -44.98 Q98.875 -45.48 99.938 -45.105 Q101 -44.73 101.5 -43.855 L102.125 -42.855 Q102.625 -42.105 102.5 -41.105 Q102.375 -40.105 101.5 -39.605 L99.75 -38.23 Q100.25 -36.73 100.25 -35.105 Q100.25 -33.48 99.75 -31.98 L101.375 -30.605 Q102.25 -29.98 102.375 -28.917 Q102.5 -27.855 102 -27.105 L101.25 -26.23 Q100.75 -25.48 99.75 -25.167 Q98.75 -24.855 97.875 -25.355 L96.25 -26.105 Q95.375 -25.105 94.125 -24.417 Q92.875 -23.73 91 -23.48 L90.875 -21.48 Q90.75 -20.355 90.062 -19.667 Q89.375 -18.98 88.25 -18.98 H87.25 Q86.125 -18.98 85.438 -19.667 Q84.75 -20.355 84.625 -21.48 L84.5 -23.48 Z M87.75 -27.73 Q90.75 -27.73 93 -29.98 Q95.25 -32.23 95.25 -35.23 Q95.25 -38.23 93 -40.48 Q90.75 -42.73 87.75 -42.73 Q84.75 -42.73 82.5 -40.48 Q80.25 -38.23 80.25 -35.23 Q80.25 -32.23 82.5 -29.98 Q84.75 -27.73 87.75 -27.73 Z M38.5 17.52 Q33.875 17.52 30.812 14.458 Q27.75 11.395 27.75 6.77 V-77.23 Q27.75 -81.855 30.812 -84.917 Q33.875 -87.98 38.5 -87.98 H81.5 Q86.125 -87.98 89.188 -84.917 Q92.25 -81.855 92.25 -77.23 V-65.605 Q92.25 -64.23 91.25 -63.23 Q90.25 -62.23 88.875 -62.23 Q88.625 -62.23 88.312 -61.98 Q88 -61.73 87 -61.48 V-67.48 H34.5 V-2.98 H86.875 V-8.98 Q87.875 -8.73 88.25 -8.48 Q88.625 -8.23 88.875 -8.23 Q90.25 -8.23 91.25 -7.23 Q92.25 -6.23 92.25 -4.855 V6.77 Q92.25 11.395 89.188 14.458 Q86.125 17.52 81.5 17.52 H38.5 Z"/></g><g id="Bold-S" transform="matrix(1 0 0 1 2294.23 696)"><path d="M69.531 -24.973 Q68.643 -25.072 67.805 -25.565 Q66.966 -26.058 66.276 -26.748 L64.501 -26.255 Q63.317 -25.861 62.232 -26.304 Q61.148 -26.748 60.654 -27.636 L60.358 -27.833 Q59.865 -28.721 59.964 -29.855 Q60.063 -30.989 61.049 -31.778 L62.331 -33.257 Q62.43 -33.751 62.331 -34.786 Q62.232 -35.822 62.331 -37.104 L61.049 -38.386 Q60.161 -39.175 59.964 -40.309 Q59.767 -41.443 60.358 -42.331 L60.556 -42.627 Q61.049 -43.613 62.134 -44.008 Q63.219 -44.402 64.303 -44.008 L66.177 -43.613 Q66.868 -44.303 67.755 -44.797 Q68.643 -45.29 69.531 -45.487 L70.122 -47.361 Q70.418 -48.446 71.207 -49.185 Q71.996 -49.925 73.18 -49.925 H73.476 Q74.561 -49.925 75.35 -49.185 Q76.139 -48.446 76.434 -47.361 L77.026 -45.487 Q77.914 -45.29 78.801 -44.797 Q79.689 -44.303 80.379 -43.613 L82.253 -44.008 Q83.338 -44.402 84.423 -44.008 Q85.508 -43.613 86.001 -42.627 L86.198 -42.331 Q86.889 -41.443 86.642 -40.309 Q86.395 -39.175 85.508 -38.386 L84.226 -37.104 Q84.226 -36.808 84.324 -35.723 Q84.423 -34.638 84.226 -33.257 L85.508 -31.877 Q86.494 -31.088 86.593 -29.954 Q86.691 -28.819 86.198 -27.932 L86.001 -27.636 Q85.409 -26.748 84.324 -26.354 Q83.24 -25.959 82.056 -26.354 L80.379 -26.748 Q79.689 -26.058 78.801 -25.614 Q77.914 -25.17 77.026 -24.973 L76.434 -23.099 Q76.139 -22.014 75.35 -21.275 Q74.561 -20.535 73.476 -20.535 H73.18 Q71.996 -20.535 71.207 -21.275 Q70.418 -22.014 70.122 -23.099 L69.531 -24.973 Z M73.278 -30.595 Q75.152 -30.595 76.533 -31.975 Q77.914 -33.356 77.914 -35.23 Q77.914 -37.104 76.533 -38.485 Q75.152 -39.865 73.278 -39.865 Q71.404 -39.865 70.024 -38.485 Q68.643 -37.104 68.643 -35.23 Q68.643 -33.356 70.024 -31.975 Q71.404 -30.595 73.278 -30.595 Z M27.319 11.716 Q22.092 11.716 18.394 8.017 Q14.695 4.319 14.695 -0.908 V-69.551 Q14.695 -74.779 18.394 -78.477 Q22.092 -82.175 27.319 -82.175 H67.361 Q72.588 -82.175 76.286 -78.477 Q79.985 -74.779 79.985 -69.551 V-60.971 Q79.985 -58.308 78.111 -56.484 Q76.237 -54.659 73.673 -54.659 Q72.489 -54.659 71.355 -55.004 Q70.221 -55.349 69.038 -55.941 V-57.125 H27.319 V-13.335 H69.038 V-14.519 Q70.122 -15.11 71.257 -15.456 Q72.391 -15.801 73.673 -15.801 Q76.237 -15.801 78.111 -13.976 Q79.985 -12.152 79.985 -9.489 V-0.908 Q79.985 4.319 76.286 8.017 Q72.588 11.716 67.361 11.716 H27.319 Z"/></g><g id="Semibold-S" transform="matrix(1 0 0 1 1998.1 696)"><path d="M69.145 -24.801 Q68.3 -24.943 67.547 -25.35 Q66.795 -25.758 66.147 -26.362 L63.9 -25.698 Q62.888 -25.346 61.911 -25.769 Q60.933 -26.191 60.483 -26.95 L59.63 -28.09 Q59.179 -28.849 59.257 -29.876 Q59.334 -30.903 60.191 -31.607 L61.902 -33.429 Q62.001 -33.794 61.902 -34.765 Q61.804 -35.736 61.902 -36.889 L60.191 -38.515 Q59.389 -39.218 59.235 -40.245 Q59.081 -41.272 59.587 -42.031 L60.341 -43.27 Q60.792 -44.128 61.769 -44.501 Q62.747 -44.874 63.703 -44.522 L66.049 -43.913 Q66.696 -44.561 67.498 -44.99 Q68.3 -45.418 69.145 -45.659 L69.779 -48.004 Q70.032 -49.003 70.736 -49.657 Q71.439 -50.311 72.494 -50.311 H73.862 Q74.861 -50.311 75.564 -49.657 Q76.267 -49.003 76.52 -48.004 L77.155 -45.659 Q78 -45.418 78.801 -44.99 Q79.603 -44.561 80.251 -43.913 L82.596 -44.522 Q83.553 -44.874 84.53 -44.501 Q85.508 -44.128 85.958 -43.27 L86.713 -42.031 Q87.275 -41.272 87.092 -40.245 Q86.91 -39.218 86.108 -38.515 L84.397 -36.889 Q84.354 -36.722 84.453 -35.702 Q84.552 -34.681 84.397 -33.429 L86.108 -31.705 Q86.966 -31.002 87.043 -29.975 Q87.12 -28.948 86.67 -28.189 L85.872 -26.95 Q85.366 -26.191 84.389 -25.818 Q83.411 -25.445 82.399 -25.796 L80.251 -26.362 Q79.603 -25.758 78.801 -25.4 Q78 -25.042 77.155 -24.801 L76.52 -22.456 Q76.267 -21.457 75.564 -20.803 Q74.861 -20.149 73.862 -20.149 H72.494 Q71.439 -20.149 70.736 -20.803 Q70.032 -21.457 69.779 -22.456 L69.145 -24.801 Z M73.15 -30.638 Q74.981 -30.638 76.361 -32.018 Q77.742 -33.399 77.742 -35.23 Q77.742 -37.061 76.361 -38.442 Q74.981 -39.822 73.15 -39.822 Q71.319 -39.822 69.938 -38.442 Q68.557 -37.061 68.557 -35.23 Q68.557 -33.399 69.938 -32.018 Q71.319 -30.638 73.15 -30.638 Z M26.59 11.287 Q21.835 11.287 18.544 7.996 Q15.253 4.705 15.253 -0.051 V-70.409 Q15.253 -75.165 18.544 -78.456 Q21.835 -81.747 26.59 -81.747 H68.09 Q72.845 -81.747 76.136 -78.456 Q79.427 -75.165 79.427 -70.409 V-60.628 Q79.427 -58.265 77.747 -56.612 Q76.066 -54.959 73.759 -54.959 Q72.618 -54.959 71.591 -55.347 Q70.564 -55.735 69.552 -56.37 V-57.554 H26.59 V-12.906 H69.509 V-14.09 Q70.465 -14.725 71.514 -15.113 Q72.562 -15.501 73.759 -15.501 Q76.066 -15.501 77.747 -13.848 Q79.427 -12.195 79.427 -9.832 V-0.051 Q79.427 4.705 76.136 7.996 Q72.845 11.287 68.09 11.287 H26.59 Z"/></g><g id="Medium-S" transform="matrix(1 0 0 1 1701.85 696)"><path d="M68.855 -24.673 Q68.043 -24.846 67.354 -25.19 Q66.666 -25.533 66.051 -26.073 L63.45 -25.28 Q62.567 -24.96 61.67 -25.366 Q60.772 -25.773 60.354 -26.435 L59.083 -28.283 Q58.665 -28.946 58.726 -29.892 Q58.787 -30.839 59.548 -31.478 L61.581 -33.558 Q61.679 -33.826 61.581 -34.749 Q61.482 -35.672 61.581 -36.729 L59.548 -38.611 Q58.81 -39.25 58.688 -40.197 Q58.566 -41.143 59.008 -41.806 L60.181 -43.752 Q60.599 -44.514 61.496 -44.871 Q62.393 -45.228 63.253 -44.908 L65.952 -44.138 Q66.568 -44.754 67.305 -45.134 Q68.043 -45.515 68.855 -45.787 L69.522 -48.486 Q69.743 -49.421 70.382 -50.011 Q71.021 -50.601 71.979 -50.601 H74.151 Q75.086 -50.601 75.725 -50.011 Q76.364 -49.421 76.584 -48.486 L77.251 -45.787 Q78.064 -45.515 78.801 -45.134 Q79.539 -44.754 80.154 -44.138 L82.854 -44.908 Q83.713 -45.228 84.611 -44.871 Q85.508 -44.514 85.926 -43.752 L87.099 -41.806 Q87.564 -41.143 87.43 -40.197 Q87.296 -39.25 86.558 -38.611 L84.526 -36.729 Q84.451 -36.658 84.55 -35.686 Q84.648 -34.713 84.526 -33.558 L86.558 -31.577 Q87.32 -30.938 87.381 -29.991 Q87.442 -29.045 87.024 -28.382 L85.776 -26.435 Q85.334 -25.773 84.437 -25.416 Q83.54 -25.059 82.656 -25.378 L80.154 -26.073 Q79.539 -25.533 78.801 -25.239 Q78.064 -24.945 77.251 -24.673 L76.584 -21.974 Q76.364 -21.039 75.725 -20.449 Q75.086 -19.859 74.151 -19.859 H71.979 Q71.021 -19.859 70.382 -20.449 Q69.743 -21.039 69.522 -21.974 L68.855 -24.673 Z M73.053 -30.67 Q74.852 -30.67 76.233 -32.05 Q77.614 -33.431 77.614 -35.23 Q77.614 -37.029 76.233 -38.41 Q74.852 -39.79 73.053 -39.79 Q71.254 -39.79 69.874 -38.41 Q68.493 -37.029 68.493 -35.23 Q68.493 -33.431 69.874 -32.05 Q71.254 -30.67 73.053 -30.67 Z M26.043 10.965 Q21.642 10.965 18.656 7.98 Q15.671 4.994 15.671 0.592 V-71.052 Q15.671 -75.454 18.656 -78.44 Q21.642 -81.425 26.043 -81.425 H68.637 Q73.038 -81.425 76.024 -78.44 Q79.009 -75.454 79.009 -71.052 V-60.371 Q79.009 -58.233 77.473 -56.709 Q75.937 -55.184 73.823 -55.184 Q72.715 -55.184 71.768 -55.605 Q70.821 -56.025 69.938 -56.692 V-57.875 H26.043 V-12.585 H69.863 V-13.768 Q70.723 -14.435 71.707 -14.855 Q72.691 -15.276 73.823 -15.276 Q75.937 -15.276 77.473 -13.751 Q79.009 -12.227 79.009 -10.089 V0.592 Q79.009 4.994 76.024 7.98 Q73.038 10.965 68.637 10.965 H26.043 Z"/></g><g id="Regular-S" transform="matrix(1 0 0 1 1405.73 696)"><path d="M68.643 -24.578 Q67.854 -24.776 67.213 -25.072 Q66.572 -25.367 65.98 -25.861 L63.12 -24.973 Q62.331 -24.677 61.493 -25.072 Q60.654 -25.466 60.26 -26.058 L58.682 -28.425 Q58.287 -29.017 58.337 -29.904 Q58.386 -30.792 59.076 -31.384 L61.345 -33.652 Q61.443 -33.849 61.345 -34.737 Q61.246 -35.624 61.345 -36.611 L59.076 -38.682 Q58.386 -39.274 58.287 -40.161 Q58.189 -41.049 58.583 -41.641 L60.063 -44.106 Q60.457 -44.797 61.295 -45.142 Q62.134 -45.487 62.923 -45.191 L65.882 -44.303 Q66.473 -44.895 67.164 -45.24 Q67.854 -45.586 68.643 -45.881 L69.333 -48.84 Q69.531 -49.728 70.122 -50.27 Q70.714 -50.813 71.602 -50.813 H74.363 Q75.251 -50.813 75.843 -50.27 Q76.434 -49.728 76.632 -48.84 L77.322 -45.881 Q78.111 -45.586 78.801 -45.24 Q79.492 -44.895 80.084 -44.303 L83.042 -45.191 Q83.831 -45.487 84.67 -45.142 Q85.508 -44.797 85.902 -44.106 L87.382 -41.641 Q87.776 -41.049 87.678 -40.161 Q87.579 -39.274 86.889 -38.682 L84.62 -36.611 Q84.522 -36.611 84.62 -35.674 Q84.719 -34.737 84.62 -33.652 L86.889 -31.482 Q87.579 -30.89 87.628 -30.003 Q87.678 -29.115 87.283 -28.523 L85.705 -26.058 Q85.311 -25.466 84.472 -25.121 Q83.634 -24.776 82.845 -25.072 L80.084 -25.861 Q79.492 -25.367 78.801 -25.121 Q78.111 -24.874 77.322 -24.578 L76.632 -21.62 Q76.434 -20.732 75.843 -20.19 Q75.251 -19.647 74.363 -19.647 H71.602 Q70.714 -19.647 70.122 -20.19 Q69.531 -20.732 69.333 -21.62 L68.643 -24.578 Z M72.983 -30.693 Q74.758 -30.693 76.139 -32.074 Q77.519 -33.455 77.519 -35.23 Q77.519 -37.005 76.139 -38.386 Q74.758 -39.767 72.983 -39.767 Q71.207 -39.767 69.827 -38.386 Q68.446 -37.005 68.446 -35.23 Q68.446 -33.455 69.827 -32.074 Q71.207 -30.693 72.983 -30.693 Z M25.643 10.729 Q21.5 10.729 18.739 7.968 Q15.977 5.206 15.977 1.064 V-71.524 Q15.977 -75.666 18.739 -78.428 Q21.5 -81.189 25.643 -81.189 H69.038 Q73.18 -81.189 75.941 -78.428 Q78.703 -75.666 78.703 -71.524 V-60.182 Q78.703 -58.21 77.273 -56.78 Q75.843 -55.349 73.87 -55.349 Q72.785 -55.349 71.898 -55.793 Q71.01 -56.237 70.221 -56.927 V-58.111 H25.643 V-12.349 H70.122 V-13.532 Q70.911 -14.223 71.848 -14.667 Q72.785 -15.11 73.87 -15.11 Q75.843 -15.11 77.273 -13.68 Q78.703 -12.25 78.703 -10.278 V1.064 Q78.703 5.206 75.941 7.968 Q73.18 10.729 69.038 10.729 H25.643 Z"/></g><g id="Light-S" transform="matrix(1 0 0 1 1109.75 696)"><path d="M68.795 -25.413 Q67.626 -25.61 66.739 -26.058 Q65.851 -26.506 65.146 -27.188 L63.006 -26.566 Q62.293 -26.27 61.493 -26.646 Q60.692 -27.021 60.336 -27.537 L59.592 -28.425 Q59.236 -28.941 59.266 -29.772 Q59.296 -30.602 59.949 -31.118 L61.648 -32.969 Q61.595 -33.508 61.497 -34.699 Q61.398 -35.89 61.648 -37.218 L59.911 -38.872 Q59.259 -39.425 59.179 -40.237 Q59.099 -41.049 59.456 -41.565 L60.063 -42.589 Q60.419 -43.241 61.201 -43.549 Q61.982 -43.856 62.695 -43.56 L65.047 -42.9 Q65.752 -43.719 66.689 -44.235 Q67.626 -44.751 68.795 -45.047 L69.371 -47.323 Q69.569 -48.135 70.103 -48.639 Q70.638 -49.144 71.45 -49.144 H72.542 Q73.354 -49.144 73.889 -48.639 Q74.424 -48.135 74.621 -47.323 L75.198 -45.047 Q76.366 -44.751 77.303 -44.235 Q78.24 -43.719 78.945 -42.9 L81.259 -43.56 Q81.972 -43.856 82.773 -43.53 Q83.573 -43.203 83.93 -42.551 L84.537 -41.527 Q84.893 -41.011 84.813 -40.199 Q84.734 -39.387 84.081 -38.872 L82.344 -37.218 Q82.397 -36.876 82.496 -35.636 Q82.594 -34.395 82.344 -32.969 L84.043 -31.217 Q84.696 -30.663 84.726 -29.832 Q84.757 -29.001 84.4 -28.486 L83.657 -27.499 Q83.3 -26.984 82.519 -26.676 Q81.737 -26.369 81.024 -26.665 L78.945 -27.188 Q78.24 -26.506 77.303 -26.107 Q76.366 -25.709 75.198 -25.413 L74.621 -23.137 Q74.424 -22.325 73.889 -21.821 Q73.354 -21.316 72.542 -21.316 H71.45 Q70.638 -21.316 70.103 -21.821 Q69.569 -22.325 69.371 -23.137 L68.795 -25.413 Z M71.996 -30.617 Q73.771 -30.617 75.19 -32.036 Q76.609 -33.455 76.609 -35.23 Q76.609 -37.005 75.19 -38.424 Q73.771 -39.843 71.996 -39.843 Q70.221 -39.843 68.802 -38.424 Q67.384 -37.005 67.384 -35.23 Q67.384 -33.455 68.802 -32.036 Q70.221 -30.617 71.996 -30.617 Z M26.856 8.757 Q23.018 8.757 20.484 6.223 Q17.95 3.689 17.95 -0.15 V-70.31 Q17.95 -74.149 20.484 -76.683 Q23.018 -79.217 26.856 -79.217 H67.824 Q71.662 -79.217 74.196 -76.683 Q76.73 -74.149 76.73 -70.31 V-59.348 Q76.73 -57.792 75.585 -56.647 Q74.439 -55.501 72.884 -55.501 Q72.216 -55.501 71.613 -55.661 Q71.01 -55.82 70.221 -56.093 V-59.097 H25.643 V-11.363 H70.122 V-14.367 Q70.911 -14.64 71.564 -14.799 Q72.216 -14.959 72.884 -14.959 Q74.439 -14.959 75.585 -13.813 Q76.73 -12.668 76.73 -11.112 V-0.15 Q76.73 3.689 74.196 6.223 Q71.662 8.757 67.824 8.757 H26.856 Z"/></g><g id="Thin-S" transform="matrix(1 0 0 1 814.015 696)"><path d="M68.946 -26.248 Q67.399 -26.445 66.265 -27.044 Q65.13 -27.643 64.311 -28.516 L62.892 -28.159 Q62.255 -27.863 61.493 -28.22 Q60.73 -28.577 60.412 -29.017 L60.503 -28.425 Q60.184 -28.865 60.195 -29.639 Q60.207 -30.413 60.821 -30.853 L61.952 -32.286 Q61.747 -33.166 61.648 -34.661 Q61.55 -36.156 61.952 -37.825 L60.745 -39.061 Q60.131 -39.577 60.07 -40.313 Q60.009 -41.049 60.328 -41.489 L60.063 -41.072 Q60.381 -41.686 61.106 -41.956 Q61.83 -42.225 62.468 -41.929 L64.212 -41.497 Q65.032 -42.543 66.215 -43.23 Q67.399 -43.917 68.946 -44.212 L69.409 -45.806 Q69.606 -46.542 70.084 -47.008 Q70.562 -47.475 71.298 -47.475 H70.722 Q71.458 -47.475 71.936 -47.008 Q72.414 -46.542 72.611 -45.806 L73.074 -44.212 Q74.621 -43.917 75.805 -43.23 Q76.988 -42.543 77.808 -41.497 L79.477 -41.929 Q80.114 -42.225 80.876 -41.918 Q81.639 -41.61 81.957 -40.996 L81.692 -41.413 Q82.011 -40.973 81.95 -40.237 Q81.889 -39.501 81.275 -39.061 L80.068 -37.825 Q80.273 -37.142 80.372 -35.598 Q80.47 -34.054 80.068 -32.286 L81.199 -30.951 Q81.813 -30.435 81.825 -29.661 Q81.836 -28.888 81.517 -28.448 L81.608 -28.941 Q81.29 -28.501 80.565 -28.231 Q79.841 -27.962 79.203 -28.258 L77.808 -28.516 Q76.988 -27.643 75.805 -27.093 Q74.621 -26.543 73.074 -26.248 L72.611 -24.654 Q72.414 -23.918 71.936 -23.452 Q71.458 -22.985 70.722 -22.985 H71.298 Q70.562 -22.985 70.084 -23.452 Q69.606 -23.918 69.409 -24.654 L68.946 -26.248 Z M71.01 -30.542 Q72.785 -30.542 74.242 -31.998 Q75.699 -33.455 75.699 -35.23 Q75.699 -37.005 74.242 -38.462 Q72.785 -39.918 71.01 -39.918 Q69.235 -39.918 67.778 -38.462 Q66.322 -37.005 66.322 -35.23 Q66.322 -33.455 67.778 -31.998 Q69.235 -30.542 71.01 -30.542 Z M28.07 6.784 Q24.535 6.784 22.228 4.478 Q19.922 2.172 19.922 -1.364 V-69.096 Q19.922 -72.632 22.228 -74.938 Q24.535 -77.244 28.07 -77.244 H66.61 Q70.145 -77.244 72.452 -74.938 Q74.758 -72.632 74.758 -69.096 V-58.513 Q74.758 -57.375 73.897 -56.514 Q73.036 -55.653 71.898 -55.653 Q71.647 -55.653 71.329 -55.528 Q71.01 -55.403 70.221 -55.258 V-60.083 H25.643 V-10.376 H70.122 V-15.202 Q70.911 -15.057 71.279 -14.932 Q71.647 -14.807 71.898 -14.807 Q73.036 -14.807 73.897 -13.946 Q74.758 -13.085 74.758 -11.947 V-1.364 Q74.758 2.172 72.452 4.478 Q70.145 6.784 66.61 6.784 H28.07 Z"/></g><g id="Ultralight-S" transform="matrix(1 0 0 1 517.792 696)"><path d="M69.038 -26.748 Q67.262 -26.945 65.98 -27.636 Q64.698 -28.326 63.81 -29.312 L62.824 -29.115 Q62.232 -28.819 61.493 -29.165 Q60.753 -29.51 60.457 -29.904 L61.049 -28.425 Q60.753 -28.819 60.753 -29.559 Q60.753 -30.299 61.345 -30.693 L62.134 -31.877 Q61.838 -32.962 61.739 -34.638 Q61.641 -36.315 62.134 -38.189 L61.246 -39.175 Q60.654 -39.668 60.605 -40.358 Q60.556 -41.049 60.852 -41.443 L60.063 -40.161 Q60.358 -40.753 61.049 -41 Q61.739 -41.246 62.331 -40.95 L63.712 -40.654 Q64.599 -41.838 65.931 -42.627 Q67.262 -43.416 69.038 -43.712 L69.432 -44.895 Q69.629 -45.586 70.073 -46.029 Q70.517 -46.473 71.207 -46.473 H69.629 Q70.32 -46.473 70.763 -46.029 Q71.207 -45.586 71.404 -44.895 L71.799 -43.712 Q73.574 -43.416 74.906 -42.627 Q76.237 -41.838 77.125 -40.654 L78.407 -40.95 Q78.999 -41.246 79.738 -40.95 Q80.478 -40.654 80.774 -40.063 L79.985 -41.345 Q80.281 -40.95 80.231 -40.26 Q80.182 -39.569 79.59 -39.175 L78.703 -38.189 Q78.999 -37.301 79.097 -35.575 Q79.196 -33.849 78.703 -31.877 L79.492 -30.792 Q80.084 -30.299 80.084 -29.559 Q80.084 -28.819 79.788 -28.425 L80.379 -29.806 Q80.084 -29.411 79.393 -29.165 Q78.703 -28.918 78.111 -29.214 L77.125 -29.312 Q76.237 -28.326 74.906 -27.685 Q73.574 -27.044 71.799 -26.748 L71.404 -25.565 Q71.207 -24.874 70.763 -24.431 Q70.32 -23.987 69.629 -23.987 H71.207 Q70.517 -23.987 70.073 -24.431 Q69.629 -24.874 69.432 -25.565 L69.038 -26.748 Z M70.418 -30.496 Q72.194 -30.496 73.673 -31.975 Q75.152 -33.455 75.152 -35.23 Q75.152 -37.005 73.673 -38.485 Q72.194 -39.964 70.418 -39.964 Q68.643 -39.964 67.164 -38.485 Q65.684 -37.005 65.684 -35.23 Q65.684 -33.455 67.164 -31.975 Q68.643 -30.496 70.418 -30.496 Z M28.799 5.601 Q25.445 5.601 23.276 3.431 Q21.106 1.261 21.106 -2.092 V-68.368 Q21.106 -71.721 23.276 -73.891 Q25.445 -76.061 28.799 -76.061 H65.882 Q69.235 -76.061 71.404 -73.891 Q73.574 -71.721 73.574 -68.368 V-58.012 Q73.574 -57.125 72.884 -56.434 Q72.194 -55.744 71.306 -55.744 Q71.306 -55.744 71.158 -55.448 Q71.01 -55.152 70.221 -54.758 V-60.675 H25.643 V-9.785 H70.122 V-15.702 Q70.911 -15.308 71.109 -15.012 Q71.306 -14.716 71.306 -14.716 Q72.194 -14.716 72.884 -14.026 Q73.574 -13.335 73.574 -12.448 V-2.092 Q73.574 1.261 71.404 3.431 Q69.235 5.601 65.882 5.601 H28.799 Z"/></g></g></svg>