<svg xmlns="http://www.w3.org/2000/svg" height="20" viewBox="0 -960 960 960" width="20"><path d="M791.463-94.616 103.078-783l37.153-36.768 688.385 688-37.153 37.153ZM667-627.077q-45 0-76.538-31.538-31.538-31.539-31.538-76.923t31.538-76.922Q622-843.999 667-843.999q44.999 0 76.537 31.539 31.539 31.538 31.539 76.922t-31.539 76.923Q711.999-627.077 667-627.077Zm-283.693-51.231L232.693-830.307q11.308-8.846 24.577-14.538 13.269-5.692 27.268-7.616 51.539 6.539 84.039 39.039 32.499 32.5 32.499 77.884 0 15.923-4.538 30.538t-13.231 26.692ZM480-292.54q-24.769 0-42.807-16.73-18.038-16.731-18.038-41.5v-87.692q0-19.923 13.153-35.615 13.154-15.692 32.846-21.153l75.691 75.691v68.769q0 24.769-17.538 41.5-17.538 16.73-43.307 16.73Zm-17.846 176.539v-84.077q-54.538-5.692-92.73-45.423-38.192-39.73-42.192-96.269h35.307q4 45 37.923 76.308 33.923 31.308 79.538 31.308 44.846 0 77.192-33.154t38.5-97l35.999 35.615q-8.461 50.846-45.615 86.307-37.154 35.462-88.23 42.308v84.077h-35.692ZM671.999-405.54q-11.693-51.384-49.847-90.076-38.153-38.691-89.46-51.845 32.769-12.154 66.346-18.039 33.577-5.884 67.962-5.884 44.384 0 88.691 10.23 44.308 10.231 87.385 32.077 23.615 11.616 36.269 29.154t12.654 40.23v54.153h-220Zm-603.998 0v-54.153q0-22.692 12.654-40.23 12.654-17.538 36.269-29.154 43.077-21.846 87.385-32.077 44.307-10.23 88.691-10.23 29 0 56.693 4 27.692 4 56.077 12.769l10.154 10.539q-47.692 16.153-82.153 53.345-34.462 37.192-45.77 85.191h-220Z"/></svg>