<svg xmlns="http://www.w3.org/2000/svg" version="1.1" width="3300" height="2000"><g id="Notes"><style>
    text {
      font-family: monospace;
      text-anchor: middle;
    }
    text.emphasis {
      font-weight:bold;
    }
    text.lanchor {
      text-anchor: start;
    }
  </style><rect height="2200" id="artboard" fill="white" width="3300" x="0" y="0"/><line id="" style="fill:none;stroke:black;stroke-width:0.5;" x1="263" x2="3036" y1="292" y2="292"/><text class="lanchor emphasis" transform="matrix(1 0 0 1 263 322)">Weight/Scale Variations</text><text transform="matrix(1 0 0 1 559.711 322)">Ultralight</text><text transform="matrix(1 0 0 1 856.422 322)">Thin</text><text transform="matrix(1 0 0 1 1153.13 322)">Light</text><text transform="matrix(1 0 0 1 1449.84 322)">Regular</text><text transform="matrix(1 0 0 1 1746.56 322)">Medium</text><text transform="matrix(1 0 0 1 2043.27 322)">Semibold</text><text transform="matrix(1 0 0 1 2339.98 322)">Bold</text><text transform="matrix(1 0 0 1 2636.69 322)">Heavy</text><text transform="matrix(1 0 0 1 2933.4 322)">Black</text><text id="template-version" style="text-anchor: end;" transform="matrix(1 0 0 1 3036 1933)">Template v.1.0</text><text class="lanchor" transform="matrix(1 0 0 1 263 726)">Small</text><text class="lanchor" transform="matrix(1 0 0 1 263 1156)">Medium</text><text class="lanchor" transform="matrix(1 0 0 1 263 1586)">Large</text></g><g id="Guides"><g id="H-reference" style="fill:#27AAE1;stroke:none;" transform="matrix(1 0 0 1 339 696)"><path d="M 54.9316 0 L 57.666 0 L 30.5664 -70.459 L 28.0762 -70.459 L 0.976562 0 L 3.66211 0 L 12.9395 -24.4629 L 45.7031 -24.4629 Z M 29.1992 -67.0898 L 29.4434 -67.0898 L 44.8242 -26.709 L 13.8184 -26.709 Z"/></g><line id="Baseline-S" style="fill:none;stroke:#27AAE1;opacity:1;stroke-width:0.577;" x1="263" x2="3036" y1="696" y2="696"/><line id="Capline-S" style="fill:none;stroke:#27AAE1;opacity:1;stroke-width:0.577;" x1="263" x2="3036" y1="625.541" y2="625.541"/><g id="H-reference" style="fill:#27AAE1;stroke:none;" transform="matrix(1 0 0 1 339 1126)"><path d="M 54.9316 0 L 57.666 0 L 30.5664 -70.459 L 28.0762 -70.459 L 0.976562 0 L 3.66211 0 L 12.9395 -24.4629 L 45.7031 -24.4629 Z M 29.1992 -67.0898 L 29.4434 -67.0898 L 44.8242 -26.709 L 13.8184 -26.709 Z"/></g><line id="Baseline-M" style="fill:none;stroke:#27AAE1;opacity:1;stroke-width:0.577;" x1="263" x2="3036" y1="1126" y2="1126"/><line id="Capline-M" style="fill:none;stroke:#27AAE1;opacity:1;stroke-width:0.577;" x1="263" x2="3036" y1="1055.54" y2="1055.54"/><g id="H-reference" style="fill:#27AAE1;stroke:none;" transform="matrix(1 0 0 1 339 1556)"><path d="M 54.9316 0 L 57.666 0 L 30.5664 -70.459 L 28.0762 -70.459 L 0.976562 0 L 3.66211 0 L 12.9395 -24.4629 L 45.7031 -24.4629 Z M 29.1992 -67.0898 L 29.4434 -67.0898 L 44.8242 -26.709 L 13.8184 -26.709 Z"/></g><line id="Baseline-L" style="fill:none;stroke:#27AAE1;opacity:1;stroke-width:0.577;" x1="263" x2="3036" y1="1556" y2="1556"/><line id="Capline-L" style="fill:none;stroke:#27AAE1;opacity:1;stroke-width:0.577;" x1="263" x2="3036" y1="1485.54" y2="1485.54"/><rect height="119.336" id="left-margin" style="fill:darkred;stroke:none;opacity:0.4;" width="12.4512" x="1394.06" y="1030.79"/><rect height="119.336" id="right-margin" style="fill:darkgreen;stroke:none;opacity:0.4;" width="12.4512" x="1502.5112" y="1030.79"/><rect x="1406.5112" y="1045" width="96" height="96" fill="none" stroke="blue" stroke-dasharray="5"/><rect x="1394.06" y="1030.79" width="120.9024" height="119.336" fill="none" stroke="blue"/></g><g id="Symbols"><g id="Bold-L" transform="matrix(1 0 0 1 2266 1556)"><path d="M15.319 33.301 V-20.879 H139.643 V33.301 H15.319 Z M40.151 -30.392  5.644 -50.387  47.251 -57.428  36.07 -98.485  70.625 -73.754  91.429 -111.017  98.524 -68.931  139.159 -80.219  114.649 -45.389  140.771 -30.392 H40.151 Z"/></g><g id="Semibold-L" transform="matrix(1 0 0 1 1970.27 1556)"><path d="M17.071 31.549 V-21.51 H137.82 V31.549 H17.071 Z M40.362 -31.023  7.607 -49.967  48.09 -56.82  37.213 -96.783  70.836 -72.709  91.078 -108.984  97.963 -68.02  137.476 -79.027  113.667 -45.108  138.177 -31.023 H40.362 Z"/></g><g id="Medium-L" transform="matrix(1 0 0 1 1674.31 1556)"><path d="M18.386 30.234 V-21.983 H136.453 V30.234 H18.386 Z M40.519 -31.497  9.079 -49.651  48.72 -56.365  38.071 -95.506  70.995 -71.925  90.815 -107.46  97.542 -67.336  136.214 -78.133  112.931 -44.898  136.232 -31.497 H40.519 Z"/></g><g id="Regular-L" transform="matrix(1 0 0 1 1378.56 1556)"><path d="M19.35 29.27 V-22.33 H135.45 V29.27 H19.35 Z M40.635 -31.844  10.159 -49.42  49.181 -56.031  38.7 -94.57  71.111 -71.35  90.623 -106.341  97.234 -66.835  135.289 -77.477  112.391 -44.744  134.805 -31.844 H40.635 Z"/></g><g id="Light-L" transform="matrix(1 0 0 1 1082.77 1556)"><path d="M22.575 23.564 V-23.012 H132.225 V23.564 H22.575 Z M41.441 -32.588  14.997 -47.932  51.042 -54.109  41.305 -89.794  71.297 -68.249  89.444 -100.573  95.621 -64.044  130.947 -73.88  109.724 -43.627  128.975 -32.588 H41.441 Z"/></g><g id="Thin-L" transform="matrix(1 0 0 1 787.282 1556)"><path d="M25.8 17.858 V-23.694 H129 V17.858 H25.8 Z M42.248 -33.332  19.834 -46.443  52.902 -52.186  43.91 -85.019  71.483 -65.148  88.266 -94.806  94.009 -61.253  126.606 -70.283  107.058 -42.511  123.145 -33.332 H42.248 Z"/></g><g id="Ultralight-L" transform="matrix(1 0 0 1 491.205 1556)"><path d="M27.735 14.435 V-24.104 H127.065 V14.435 H27.735 Z M42.731 -33.779  22.736 -45.55  54.019 -51.032  45.473 -82.154  71.595 -63.287  87.559 -91.345  93.041 -59.579  124.001 -68.125  105.457 -41.841  119.648 -33.779 H42.731 Z"/></g><g id="Bold-M" transform="matrix(1 0 0 1 2281.8 1126)"><path d="M10.75 19.02 V-23.73 H109.25 V19.02 H10.75 Z M32.125 -31.23  2.75 -47.98  35.483 -53.428  26.618 -85.435  53.759 -66.231  70.125 -95.105  75.625 -62.355  107.625 -71.23  88.375 -44.105  111.125 -31.23 H32.125 Z"/></g><g id="Semibold-M" transform="matrix(1 0 0 1 1985.97 1126)"><path d="M12.598 17.172 V-24.382 H107.402 V17.172 H12.598 Z M32.342 -31.882  4.815 -47.545  36.36 -52.798  27.816 -83.661  53.972 -65.143  69.745 -92.986  75.027 -61.431  105.886 -69.98  87.343 -43.833  108.462 -31.882 H32.342 Z"/></g><g id="Medium-M" transform="matrix(1 0 0 1 1689.91 1126)"><path d="M13.984 15.786 V-24.871 H106.016 V15.786 H13.984 Z M32.505 -32.371  6.364 -47.219  37.018 -52.326  28.716 -82.331  54.133 -64.328  69.459 -91.396  74.579 -60.738  104.582 -69.042  86.568 -43.629  106.465 -32.371 H32.505 Z"/></g><g id="Regular-M" transform="matrix(1 0 0 1 1394.06 1126)"><path d="M15 14.77 V-25.23 H105 V14.77 H15 Z M32.625 -32.73  7.5 -46.98  37.5 -51.98  29.375 -81.355  54.25 -63.73  69.25 -90.23  74.25 -60.23  103.625 -68.355  86 -43.48  105 -32.73 H32.625 Z"/></g><g id="Light-M" transform="matrix(1 0 0 1 1098.18 1126)"><path d="M17.5 10.347 V-25.759 H102.5 V10.347 H17.5 Z M32.962 -33.259  11.347 -45.634  39.087 -50.297  31.539 -77.605  54.635 -61.182  68.625 -85.807  73.288 -57.922  100.596 -65.47  84.221 -42.374  100.336 -33.259 H32.962 Z"/></g><g id="Thin-M" transform="matrix(1 0 0 1 802.565 1126)"><path d="M20 5.924 V-26.288 H100 V5.924 H20 Z M33.298 -33.788  15.192 -44.288  40.673 -48.615  33.702 -73.855  55.019 -58.634  68 -81.384  72.327 -55.615  97.567 -62.586  82.442 -41.268  95.673 -33.788 H33.298 Z"/></g><g id="Ultralight-M" transform="matrix(1 0 0 1 506.415 1126)"><path d="M21.5 3.27 V-26.605 H98.5 V3.27 H21.5 Z M33.5 -34.105  17.5 -43.48  41.625 -47.605  35 -71.605  55.25 -57.105  67.625 -78.73  71.75 -54.23  95.75 -60.855  81.375 -40.605  92.875 -34.105 H33.5 Z"/></g><g id="Bold-S" transform="matrix(1 0 0 1 2294.23 696)"><path d="M10.849 5.995 V-26.945 H83.831 V5.995 H10.849 Z M27.516 -31.679  3.353 -45.487  28.509 -49.671  21.696 -74.255  42.554 -59.505  55.131 -81.682  59.372 -56.533  83.93 -63.338  69.136 -42.528  88.269 -31.679 H27.516 Z"/></g><g id="Semibold-S" transform="matrix(1 0 0 1 1998.1 696)"><path d="M12.307 4.537 V-27.46 H82.373 V4.537 H12.307 Z M27.688 -32.194  4.983 -45.144  29.201 -49.175  22.642 -72.856  42.722 -58.647  54.831 -80.01  58.901 -55.804  82.558 -62.352  68.321 -42.314  86.168 -32.194 H27.688 Z"/></g><g id="Medium-S" transform="matrix(1 0 0 1 1701.85 696)"><path d="M13.4 3.444 V-27.846 H81.28 V3.444 H13.4 Z M27.816 -32.58  6.205 -44.887  29.72 -48.802  23.351 -71.806  42.849 -58.004  54.606 -78.756  58.547 -55.257  81.529 -61.612  67.71 -42.153  84.592 -32.58 H27.816 Z"/></g><g id="Regular-S" transform="matrix(1 0 0 1 1405.73 696)"><path d="M14.202 2.642 V-28.129 H80.478 V2.642 H14.202 Z M27.911 -32.863  7.101 -44.698  30.1 -48.529  23.871 -71.036  42.941 -57.532  54.441 -77.836  58.287 -54.856  80.774 -61.07  67.262 -42.035  83.437 -32.863 H27.911 Z"/></g><g id="Light-S" transform="matrix(1 0 0 1 1109.75 696)"><path d="M16.175 -0.848 V-28.546 H78.505 V-0.848 H16.175 Z M28.176 -33.28  10.136 -43.636  31.352 -47.201  25.578 -68.077  43.245 -55.521  53.948 -74.346  57.529 -53.035  78.384 -58.794  65.859 -41.163  79.757 -33.28 H28.176 Z"/></g><g id="Thin-S" transform="matrix(1 0 0 1 814.015 696)"><path d="M18.147 -4.338 V-28.963 H76.533 V-4.338 H18.147 Z M28.442 -33.697  13.17 -42.574  32.604 -45.874  27.285 -65.119  43.548 -53.511  53.455 -70.856  56.77 -51.215  75.994 -56.518  64.455 -40.29  76.078 -33.697 H28.442 Z"/></g><g id="Ultralight-S" transform="matrix(1 0 0 1 517.792 696)"><path d="M19.331 -6.431 V-29.214 H75.35 V-6.431 H19.331 Z M28.601 -33.948  14.991 -41.936  33.355 -45.077  28.309 -63.343  43.73 -52.305  53.159 -68.762  56.315 -50.122  74.561 -55.152  63.613 -39.767  73.87 -33.948 H28.601 Z"/></g></g></svg>