<svg xmlns="http://www.w3.org/2000/svg" height="48" viewBox="0 -960 960 960" width="48"><path d="M444-104v-556h73v556h-73ZM273-232v-301h73v301h-73Zm341 0v-301h72v301h-72ZM104-346v-73h73v73h-73Zm680 0v-73h72v73h-72ZM64-572v-72h44q45.693 0 85.927-22.731Q234.161-689.462 257-729q35.148-59.074 94.432-93.037Q410.716-856 479.96-856q68.04 0 127.714 33.963Q667.349-788.074 703-729q23 40.462 63 62.731T853-644h43v72h-43q-65.735 0-121.644-31.397Q675.447-634.793 641-692q-26.169-43-68.96-67.5-42.79-24.5-92.587-24.5-49.802 0-92.127 24.5Q345-735 320-692q-33.881 57.207-89.941 88.603Q174-572 108-572H64Z"/></svg>