<svg xmlns="http://www.w3.org/2000/svg" height="48" viewBox="0 -960 960 960" width="48"><path d="M469.5-172v-468.5h22V-172h-22ZM319-284v-245.5h22V-284h-22Zm300 0v-245.5h22V-284h-22ZM170-395.5v-22h22v22h-22Zm598 0v-22h22v22h-22Zm-636-185v-22h17q46.787 0 86.317-21.981 39.53-21.981 65.183-62.019 28.599-46.365 76.857-73.932Q425.616-788 479.808-788q54.692 0 102.898 27.568Q630.913-732.865 660-686.5q22.653 40.038 63.076 62.019Q763.5-602.5 811.5-602.5H828v22h-17q-52.5 0-97.75-25.25T641-676.5q-26-41-68.712-65.25T480-766q-49.04 0-92.27 24.25T320.5-676.5Q292-631 246.75-605.75T149-580.5h-17Z"/></svg>