<svg xmlns="http://www.w3.org/2000/svg" version="1.1" width="3300" height="2000"><g id="Notes"><style>
    text {
      font-family: monospace;
      text-anchor: middle;
    }
    text.emphasis {
      font-weight:bold;
    }
    text.lanchor {
      text-anchor: start;
    }
  </style><rect height="2200" id="artboard" fill="white" width="3300" x="0" y="0"/><line id="" style="fill:none;stroke:black;stroke-width:0.5;" x1="263" x2="3036" y1="292" y2="292"/><text class="lanchor emphasis" transform="matrix(1 0 0 1 263 322)">Weight/Scale Variations</text><text transform="matrix(1 0 0 1 559.711 322)">Ultralight</text><text transform="matrix(1 0 0 1 856.422 322)">Thin</text><text transform="matrix(1 0 0 1 1153.13 322)">Light</text><text transform="matrix(1 0 0 1 1449.84 322)">Regular</text><text transform="matrix(1 0 0 1 1746.56 322)">Medium</text><text transform="matrix(1 0 0 1 2043.27 322)">Semibold</text><text transform="matrix(1 0 0 1 2339.98 322)">Bold</text><text transform="matrix(1 0 0 1 2636.69 322)">Heavy</text><text transform="matrix(1 0 0 1 2933.4 322)">Black</text><text id="template-version" style="text-anchor: end;" transform="matrix(1 0 0 1 3036 1933)">Template v.1.0</text><text class="lanchor" transform="matrix(1 0 0 1 263 726)">Small</text><text class="lanchor" transform="matrix(1 0 0 1 263 1156)">Medium</text><text class="lanchor" transform="matrix(1 0 0 1 263 1586)">Large</text></g><g id="Guides"><g id="H-reference" style="fill:#27AAE1;stroke:none;" transform="matrix(1 0 0 1 339 696)"><path d="M 54.9316 0 L 57.666 0 L 30.5664 -70.459 L 28.0762 -70.459 L 0.976562 0 L 3.66211 0 L 12.9395 -24.4629 L 45.7031 -24.4629 Z M 29.1992 -67.0898 L 29.4434 -67.0898 L 44.8242 -26.709 L 13.8184 -26.709 Z"/></g><line id="Baseline-S" style="fill:none;stroke:#27AAE1;opacity:1;stroke-width:0.577;" x1="263" x2="3036" y1="696" y2="696"/><line id="Capline-S" style="fill:none;stroke:#27AAE1;opacity:1;stroke-width:0.577;" x1="263" x2="3036" y1="625.541" y2="625.541"/><g id="H-reference" style="fill:#27AAE1;stroke:none;" transform="matrix(1 0 0 1 339 1126)"><path d="M 54.9316 0 L 57.666 0 L 30.5664 -70.459 L 28.0762 -70.459 L 0.976562 0 L 3.66211 0 L 12.9395 -24.4629 L 45.7031 -24.4629 Z M 29.1992 -67.0898 L 29.4434 -67.0898 L 44.8242 -26.709 L 13.8184 -26.709 Z"/></g><line id="Baseline-M" style="fill:none;stroke:#27AAE1;opacity:1;stroke-width:0.577;" x1="263" x2="3036" y1="1126" y2="1126"/><line id="Capline-M" style="fill:none;stroke:#27AAE1;opacity:1;stroke-width:0.577;" x1="263" x2="3036" y1="1055.54" y2="1055.54"/><g id="H-reference" style="fill:#27AAE1;stroke:none;" transform="matrix(1 0 0 1 339 1556)"><path d="M 54.9316 0 L 57.666 0 L 30.5664 -70.459 L 28.0762 -70.459 L 0.976562 0 L 3.66211 0 L 12.9395 -24.4629 L 45.7031 -24.4629 Z M 29.1992 -67.0898 L 29.4434 -67.0898 L 44.8242 -26.709 L 13.8184 -26.709 Z"/></g><line id="Baseline-L" style="fill:none;stroke:#27AAE1;opacity:1;stroke-width:0.577;" x1="263" x2="3036" y1="1556" y2="1556"/><line id="Capline-L" style="fill:none;stroke:#27AAE1;opacity:1;stroke-width:0.577;" x1="263" x2="3036" y1="1485.54" y2="1485.54"/><rect height="119.336" id="left-margin" style="fill:darkred;stroke:none;opacity:0.4;" width="12.4512" x="1394.06" y="1030.79"/><rect height="119.336" id="right-margin" style="fill:darkgreen;stroke:none;opacity:0.4;" width="12.4512" x="1502.5112" y="1030.79"/><rect x="1406.5112" y="1045" width="96" height="96" fill="none" stroke="blue" stroke-dasharray="5"/><rect x="1394.06" y="1030.79" width="120.9024" height="119.336" fill="none" stroke="blue"/></g><g id="Symbols"><g id="Bold-L" transform="matrix(1 0 0 1 2266 1556)"><path d="M52.126 -21.846 Q54.986 -21.846 57.083 -23.904 Q59.179 -25.962 59.179 -28.822 Q59.179 -31.682 57.088 -33.779 Q54.998 -35.875 52.089 -35.875 Q49.181 -35.875 47.166 -33.784 Q45.15 -31.694 45.15 -28.786 Q45.15 -25.877 47.208 -23.862 Q49.266 -21.846 52.126 -21.846 Z M77.442 -21.846 Q80.303 -21.846 82.399 -23.904 Q84.495 -25.962 84.495 -28.822 Q84.495 -31.682 82.404 -33.779 Q80.314 -35.875 77.406 -35.875 Q74.498 -35.875 72.482 -33.784 Q70.466 -31.694 70.466 -28.786 Q70.466 -25.877 72.524 -23.862 Q74.582 -21.846 77.442 -21.846 Z M102.759 -21.846 Q105.619 -21.846 107.715 -23.904 Q109.811 -25.962 109.811 -28.822 Q109.811 -31.682 107.721 -33.779 Q105.63 -35.875 102.722 -35.875 Q99.814 -35.875 97.798 -33.784 Q95.782 -31.694 95.782 -28.786 Q95.782 -25.877 97.841 -23.862 Q99.899 -21.846 102.759 -21.846 Z M77.239 32.979 Q64.5 32.979 53.212 28.141 Q41.925 23.304 33.459 14.919 Q24.994 6.534 20.156 -4.754 Q15.319 -16.041 15.319 -28.898 Q15.319 -41.755 20.156 -53.005 Q24.994 -64.255 33.459 -72.721 Q41.925 -81.186 53.212 -86.104 Q64.5 -91.022 77.239 -91.022 Q89.978 -91.022 101.265 -86.104 Q112.553 -81.186 121.018 -72.721 Q129.484 -64.255 134.402 -53.005 Q139.32 -41.755 139.32 -28.898 Q139.32 -16.041 134.402 -4.754 Q129.484 6.534 121.016 14.957 Q112.549 23.381 101.263 28.18 Q89.978 32.979 77.239 32.979 Z M32.734 -102.794  40.958 -94.57  11.126 -65.706  3.064 -73.93  32.734 -102.794 Z M121.744 -102.794  151.575 -73.93  143.351 -65.706  113.52 -94.57  121.744 -102.794 Z M77.218 17.821 Q96.75 17.821 110.376 4.216 Q124.001 -9.389 124.001 -28.921 Q124.001 -48.452 110.396 -62.078 Q96.791 -75.704 77.259 -75.704 Q57.727 -75.704 44.102 -62.098 Q30.476 -48.493 30.476 -28.962 Q30.476 -9.43 44.082 4.196 Q57.687 17.821 77.218 17.821 Z"/></g><g id="Semibold-L" transform="matrix(1 0 0 1 1970.27 1556)"><path d="M51.91 -22.758 Q54.425 -22.758 56.206 -24.529 Q57.987 -26.301 57.987 -28.816 Q57.987 -31.332 56.197 -33.113 Q54.407 -34.893 51.864 -34.893 Q49.322 -34.893 47.586 -33.104 Q45.851 -31.314 45.851 -28.771 Q45.851 -26.228 47.623 -24.493 Q49.394 -22.758 51.91 -22.758 Z M77.436 -22.758 Q79.952 -22.758 81.733 -24.529 Q83.513 -26.301 83.513 -28.816 Q83.513 -31.332 81.724 -33.113 Q79.934 -34.893 77.391 -34.893 Q74.848 -34.893 73.113 -33.104 Q71.378 -31.314 71.378 -28.771 Q71.378 -26.228 73.149 -24.493 Q74.921 -22.758 77.436 -22.758 Z M102.963 -22.758 Q105.478 -22.758 107.259 -24.529 Q109.04 -26.301 109.04 -28.816 Q109.04 -31.332 107.25 -33.113 Q105.46 -34.893 102.917 -34.893 Q100.375 -34.893 98.639 -33.104 Q96.904 -31.314 96.904 -28.771 Q96.904 -26.228 98.676 -24.493 Q100.447 -22.758 102.963 -22.758 Z M77.239 31.226 Q64.851 31.226 53.878 26.529 Q42.907 21.832 34.721 13.692 Q26.536 5.552 21.804 -5.42 Q17.071 -16.392 17.071 -28.898 Q17.071 -41.405 21.804 -52.339 Q26.536 -63.273 34.721 -71.494 Q42.907 -79.714 53.878 -84.457 Q64.851 -89.2 77.239 -89.2 Q89.627 -89.2 100.599 -84.457 Q111.571 -79.714 119.791 -71.494 Q128.012 -63.273 132.754 -52.339 Q137.497 -41.405 137.497 -28.898 Q137.497 -16.392 132.754 -5.42 Q128.012 5.552 119.79 13.714 Q111.569 21.875 100.598 26.551 Q89.627 31.226 77.239 31.226 Z M33.505 -100.55  41.098 -92.958  12.739 -65.566  5.237 -73.159  33.505 -100.55 Z M120.973 -100.55  149.332 -73.159  141.739 -65.566  113.38 -92.958  120.973 -100.55 Z M77.23 18.452 Q97.03 18.452 110.831 4.66 Q124.632 -9.133 124.632 -28.933 Q124.632 -48.733 110.84 -62.534 Q97.047 -76.335 77.247 -76.335 Q57.447 -76.335 43.646 -62.542 Q29.845 -48.75 29.845 -28.95 Q29.845 -9.15 43.638 4.651 Q57.43 18.452 77.23 18.452 Z"/></g><g id="Medium-L" transform="matrix(1 0 0 1 1674.31 1556)"><path d="M51.747 -23.441 Q54.005 -23.441 55.549 -24.998 Q57.093 -26.554 57.093 -28.812 Q57.093 -31.069 55.529 -32.613 Q53.964 -34.157 51.695 -34.157 Q49.427 -34.157 47.902 -32.593 Q46.377 -31.029 46.377 -28.76 Q46.377 -26.491 47.933 -24.966 Q49.49 -23.441 51.747 -23.441 Z M77.432 -23.441 Q79.689 -23.441 81.233 -24.998 Q82.777 -26.554 82.777 -28.812 Q82.777 -31.069 81.213 -32.613 Q79.649 -34.157 77.38 -34.157 Q75.111 -34.157 73.586 -32.593 Q72.061 -31.029 72.061 -28.76 Q72.061 -26.491 73.618 -24.966 Q75.174 -23.441 77.432 -23.441 Z M103.116 -23.441 Q105.373 -23.441 106.917 -24.998 Q108.462 -26.554 108.462 -28.812 Q108.462 -31.069 106.897 -32.613 Q105.333 -34.157 103.064 -34.157 Q100.795 -34.157 99.27 -32.593 Q97.746 -31.029 97.746 -28.76 Q97.746 -26.491 99.302 -24.966 Q100.859 -23.441 103.116 -23.441 Z M77.239 29.911 Q65.113 29.911 54.378 25.319 Q43.643 20.727 35.668 12.772 Q27.693 4.816 23.039 -5.919 Q18.386 -16.655 18.386 -28.898 Q18.386 -41.142 23.039 -51.84 Q27.693 -62.537 35.668 -70.574 Q43.643 -78.61 54.378 -83.221 Q65.113 -87.833 77.239 -87.833 Q89.364 -87.833 100.099 -83.221 Q110.835 -78.61 118.871 -70.574 Q126.907 -62.537 131.519 -51.84 Q136.13 -41.142 136.13 -28.898 Q136.13 -16.655 131.519 -5.919 Q126.907 4.816 118.871 12.781 Q110.834 20.746 100.099 25.329 Q89.364 29.911 77.239 29.911 Z M34.083 -98.868  41.203 -91.748  13.948 -65.461  6.867 -72.58  34.083 -98.868 Z M120.394 -98.868  147.649 -72.58  140.529 -65.461  113.275 -91.748  120.394 -98.868 Z M77.239 18.925 Q97.241 18.925 111.173 4.993 Q125.105 -8.94 125.105 -28.942 Q125.105 -48.943 111.173 -62.876 Q97.24 -76.808 77.238 -76.808 Q57.237 -76.808 43.304 -62.875 Q29.372 -48.943 29.372 -28.941 Q29.372 -8.939 43.305 4.993 Q57.237 18.925 77.239 18.925 Z"/></g><g id="Regular-L" transform="matrix(1 0 0 1 1378.56 1556)"><path d="M51.628 -23.942 Q53.696 -23.942 55.067 -25.341 Q56.438 -26.74 56.438 -28.808 Q56.438 -30.876 55.039 -32.247 Q53.64 -33.617 51.572 -33.617 Q49.504 -33.617 48.133 -32.219 Q46.763 -30.82 46.763 -28.752 Q46.763 -26.684 48.161 -25.313 Q49.56 -23.942 51.628 -23.942 Z M77.428 -23.942 Q79.496 -23.942 80.867 -25.341 Q82.237 -26.74 82.237 -28.808 Q82.237 -30.876 80.839 -32.247 Q79.44 -33.617 77.372 -33.617 Q75.304 -33.617 73.933 -32.219 Q72.562 -30.82 72.562 -28.752 Q72.562 -26.684 73.961 -25.313 Q75.36 -23.942 77.428 -23.942 Z M103.228 -23.942 Q105.296 -23.942 106.667 -25.341 Q108.038 -26.74 108.038 -28.808 Q108.038 -30.876 106.639 -32.247 Q105.24 -33.617 103.172 -33.617 Q101.104 -33.617 99.733 -32.219 Q98.362 -30.82 98.362 -28.752 Q98.362 -26.684 99.761 -25.313 Q101.16 -23.942 103.228 -23.942 Z M77.239 28.948 Q65.306 28.948 54.744 24.433 Q44.183 19.918 36.362 12.097 Q28.541 4.276 23.946 -6.286 Q19.35 -16.847 19.35 -28.898 Q19.35 -40.949 23.946 -51.473 Q28.541 -61.997 36.362 -69.899 Q44.183 -77.8 54.744 -82.315 Q65.306 -86.83 77.239 -86.83 Q89.171 -86.83 99.733 -82.315 Q110.295 -77.8 118.196 -69.899 Q126.097 -61.997 130.613 -51.473 Q135.127 -40.949 135.127 -28.898 Q135.127 -16.847 130.613 -6.286 Q126.097 4.276 118.196 12.097 Q110.295 19.918 99.733 24.433 Q89.171 28.948 77.239 28.948 Z M34.508 -97.634  41.28 -90.861  14.835 -65.384  8.062 -72.156  34.508 -97.634 Z M119.97 -97.634  146.415 -72.156  139.643 -65.384  113.198 -90.861  119.97 -97.634 Z M77.246 19.273 Q97.395 19.273 111.424 5.237 Q125.453 -8.799 125.453 -28.948 Q125.453 -49.097 111.417 -63.126 Q97.381 -77.155 77.232 -77.155 Q57.083 -77.155 43.054 -63.119 Q29.025 -49.084 29.025 -28.934 Q29.025 -8.785 43.061 5.244 Q57.096 19.273 77.246 19.273 Z"/></g><g id="Light-L" transform="matrix(1 0 0 1 1082.77 1556)"><path d="M52.432 -24.377 Q54.254 -24.377 55.532 -25.68 Q56.81 -26.984 56.81 -28.806 Q56.81 -30.628 55.506 -31.906 Q54.202 -33.183 52.38 -33.183 Q50.558 -33.183 49.281 -31.88 Q48.003 -30.576 48.003 -28.754 Q48.003 -26.932 49.307 -25.654 Q50.61 -24.377 52.432 -24.377 Z M77.426 -24.377 Q79.248 -24.377 80.526 -25.68 Q81.803 -26.984 81.803 -28.806 Q81.803 -30.628 80.5 -31.906 Q79.196 -33.183 77.374 -33.183 Q75.552 -33.183 74.274 -31.88 Q72.997 -30.576 72.997 -28.754 Q72.997 -26.932 74.3 -25.654 Q75.604 -24.377 77.426 -24.377 Z M102.42 -24.377 Q104.242 -24.377 105.519 -25.68 Q106.797 -26.984 106.797 -28.806 Q106.797 -30.628 105.493 -31.906 Q104.19 -33.183 102.368 -33.183 Q100.546 -33.183 99.268 -31.88 Q97.99 -30.576 97.99 -28.754 Q97.99 -26.932 99.294 -25.654 Q100.598 -24.377 102.42 -24.377 Z M77.288 25.784 Q66.017 25.784 56.03 21.517 Q46.043 17.25 38.626 9.864 Q31.208 2.478 26.892 -7.501 Q22.575 -17.48 22.575 -28.864 Q22.575 -40.247 26.892 -50.192 Q31.208 -60.137 38.626 -67.604 Q46.043 -75.071 56.027 -79.338 Q66.01 -83.605 77.281 -83.605 Q88.551 -83.605 98.524 -79.338 Q108.496 -75.071 115.963 -67.604 Q123.43 -60.137 127.697 -50.191 Q131.964 -40.245 131.964 -28.856 Q131.964 -17.468 127.697 -7.495 Q123.43 2.478 115.963 9.864 Q108.496 17.25 98.527 21.517 Q88.558 25.784 77.288 25.784 Z M35.934 -94.098  41.094 -89.001  16.882 -65.446  11.722 -70.606  35.934 -94.098 Z M118.606 -94.098  142.88 -70.606  137.72 -65.446  113.508 -89.001  118.606 -94.098 Z M77.283 18.466 Q97.023 18.466 110.835 4.652 Q124.646 -9.162 124.646 -28.886 Q124.646 -48.636 110.832 -62.462 Q97.018 -76.287 77.294 -76.287 Q57.544 -76.287 43.718 -62.462 Q29.893 -48.637 29.893 -28.897 Q29.893 -9.157 43.718 4.655 Q57.543 18.466 77.283 18.466 Z"/></g><g id="Thin-L" transform="matrix(1 0 0 1 787.282 1556)"><path d="M53.236 -24.811 Q54.813 -24.811 55.997 -26.019 Q57.182 -27.228 57.182 -28.804 Q57.182 -30.38 55.973 -31.565 Q54.765 -32.749 53.188 -32.749 Q51.612 -32.749 50.428 -31.541 Q49.243 -30.332 49.243 -28.756 Q49.243 -27.18 50.452 -25.995 Q51.66 -24.811 53.236 -24.811 Z M77.424 -24.811 Q79 -24.811 80.185 -26.019 Q81.369 -27.228 81.369 -28.804 Q81.369 -30.38 80.161 -31.565 Q78.952 -32.749 77.376 -32.749 Q75.8 -32.749 74.615 -31.541 Q73.431 -30.332 73.431 -28.756 Q73.431 -27.18 74.639 -25.995 Q75.848 -24.811 77.424 -24.811 Z M101.611 -24.811 Q103.188 -24.811 104.372 -26.019 Q105.557 -27.228 105.557 -28.804 Q105.557 -30.38 104.348 -31.565 Q103.14 -32.749 101.564 -32.749 Q99.987 -32.749 98.803 -31.541 Q97.618 -30.332 97.618 -28.756 Q97.618 -27.18 98.827 -25.995 Q100.035 -24.811 101.611 -24.811 Z M77.337 22.622 Q66.728 22.622 57.316 18.603 Q47.904 14.584 40.889 7.632 Q33.875 0.679 29.837 -8.717 Q25.8 -18.113 25.8 -28.829 Q25.8 -39.545 29.837 -48.911 Q33.875 -58.276 40.889 -65.309 Q47.904 -72.342 57.309 -76.361 Q66.714 -80.38 77.323 -80.38 Q87.931 -80.38 97.314 -76.361 Q106.698 -72.342 113.731 -65.309 Q120.764 -58.276 124.783 -48.909 Q128.802 -39.541 128.802 -28.814 Q128.802 -18.088 124.783 -8.704 Q120.764 0.679 113.731 7.632 Q106.698 14.584 97.321 18.603 Q87.945 22.622 77.337 22.622 Z M37.36 -90.564  40.908 -87.14  18.928 -65.508  15.381 -69.055  37.36 -90.564 Z M117.241 -90.564  139.345 -69.055  135.797 -65.508  113.818 -87.14  117.241 -90.564 Z M77.32 17.66 Q96.651 17.66 110.245 4.068 Q123.84 -9.524 123.84 -28.824 Q123.84 -48.176 110.248 -61.797 Q96.656 -75.418 77.356 -75.418 Q58.004 -75.418 44.383 -61.805 Q30.762 -48.191 30.762 -28.86 Q30.762 -9.529 44.375 4.065 Q57.989 17.66 77.32 17.66 Z"/></g><g id="Ultralight-L" transform="matrix(1 0 0 1 491.205 1556)"><path d="M53.719 -25.071 Q55.148 -25.071 56.276 -26.223 Q57.405 -27.374 57.405 -28.803 Q57.405 -30.231 56.254 -31.36 Q55.102 -32.489 53.674 -32.489 Q52.245 -32.489 51.116 -31.337 Q49.988 -30.186 49.988 -28.757 Q49.988 -27.329 51.139 -26.2 Q52.29 -25.071 53.719 -25.071 Z M77.423 -25.071 Q78.851 -25.071 79.98 -26.223 Q81.109 -27.374 81.109 -28.803 Q81.109 -30.231 79.957 -31.36 Q78.806 -32.489 77.377 -32.489 Q75.949 -32.489 74.82 -31.337 Q73.691 -30.186 73.691 -28.757 Q73.691 -27.329 74.843 -26.2 Q75.994 -25.071 77.423 -25.071 Z M101.126 -25.071 Q102.555 -25.071 103.684 -26.223 Q104.812 -27.374 104.812 -28.803 Q104.812 -30.231 103.661 -31.36 Q102.51 -32.489 101.081 -32.489 Q99.653 -32.489 98.524 -31.337 Q97.395 -30.186 97.395 -28.757 Q97.395 -27.329 98.546 -26.2 Q99.698 -25.071 101.126 -25.071 Z M77.366 20.724 Q67.155 20.724 58.088 16.854 Q49.02 12.984 42.248 6.292 Q35.475 -0.4 31.605 -9.446 Q27.735 -18.493 27.735 -28.808 Q27.735 -39.124 31.605 -48.142 Q35.475 -57.16 42.248 -63.932 Q49.02 -70.705 58.078 -74.575 Q67.137 -78.445 77.348 -78.445 Q87.559 -78.445 96.589 -74.575 Q105.619 -70.705 112.391 -63.932 Q119.164 -57.16 123.034 -48.139 Q126.904 -39.118 126.904 -28.789 Q126.904 -18.46 123.034 -9.43 Q119.164 -0.4 112.391 6.292 Q105.619 12.984 96.598 16.854 Q87.577 20.724 77.366 20.724 Z M38.216 -88.442  40.796 -86.024  20.156 -65.545  17.576 -68.125  38.216 -88.442 Z M116.422 -88.442  137.224 -68.125  134.644 -65.545  114.004 -86.024  116.422 -88.442 Z M77.342 17.176 Q96.428 17.176 109.892 3.717 Q123.356 -9.742 123.356 -28.787 Q123.356 -47.899 109.897 -61.398 Q96.438 -74.897 77.393 -74.897 Q58.281 -74.897 44.782 -61.41 Q31.283 -47.923 31.283 -28.838 Q31.283 -9.752 44.77 3.712 Q58.257 17.176 77.342 17.176 Z"/></g><g id="Bold-M" transform="matrix(1 0 0 1 2281.8 1126)"><path d="M40.5 -22.98 Q43.5 -22.98 45.625 -25.105 Q47.75 -27.23 47.75 -30.23 Q47.75 -33.23 45.625 -35.355 Q43.5 -37.48 40.5 -37.48 Q37.5 -37.48 35.375 -35.355 Q33.25 -33.23 33.25 -30.23 Q33.25 -27.23 35.375 -25.105 Q37.5 -22.98 40.5 -22.98 Z M60 -22.98 Q63 -22.98 65.125 -25.105 Q67.25 -27.23 67.25 -30.23 Q67.25 -33.23 65.125 -35.355 Q63 -37.48 60 -37.48 Q57 -37.48 54.875 -35.355 Q52.75 -33.23 52.75 -30.23 Q52.75 -27.23 54.875 -25.105 Q57 -22.98 60 -22.98 Z M79.5 -22.98 Q82.5 -22.98 84.625 -25.105 Q86.75 -27.23 86.75 -30.23 Q86.75 -33.23 84.625 -35.355 Q82.5 -37.48 79.5 -37.48 Q76.5 -37.48 74.375 -35.355 Q72.25 -33.23 72.25 -30.23 Q72.25 -27.23 74.375 -25.105 Q76.5 -22.98 79.5 -22.98 Z M60 19.02 Q49.875 19.02 40.875 15.145 Q31.875 11.27 25.188 4.583 Q18.5 -2.105 14.625 -11.105 Q10.75 -20.105 10.75 -30.23 Q10.75 -40.355 14.625 -49.355 Q18.5 -58.355 25.188 -65.042 Q31.875 -71.73 40.875 -75.605 Q49.875 -79.48 60 -79.48 Q70.125 -79.48 79.125 -75.605 Q88.125 -71.73 94.812 -65.042 Q101.5 -58.355 105.375 -49.355 Q109.25 -40.355 109.25 -30.23 Q109.25 -20.105 105.375 -11.105 Q101.5 -2.105 94.812 4.583 Q88.125 11.27 79.125 15.145 Q70.125 19.02 60 19.02 Z M26.125 -88.73  34.625 -80.355  9.875 -55.605  1.5 -64.105  26.125 -88.73 Z M93.875 -88.73  118.5 -64.105  110.125 -55.605  85.375 -80.355  93.875 -88.73 Z M60.001 3.27 Q74 3.27 83.75 -6.481 Q93.5 -16.232 93.5 -30.231 Q93.5 -44.23 83.749 -53.98 Q73.998 -63.73 59.999 -63.73 Q46 -63.73 36.25 -53.979 Q26.5 -44.227 26.5 -30.229 Q26.5 -16.23 36.251 -6.48 Q46.002 3.27 60.001 3.27 Z"/></g><g id="Semibold-M" transform="matrix(1 0 0 1 1985.97 1126)"><path d="M40.283 -23.958 Q42.902 -23.958 44.728 -25.784 Q46.554 -27.61 46.554 -30.23 Q46.554 -32.85 44.728 -34.676 Q42.902 -36.502 40.283 -36.502 Q37.663 -36.502 35.837 -34.676 Q34.011 -32.85 34.011 -30.23 Q34.011 -27.61 35.837 -25.784 Q37.663 -23.958 40.283 -23.958 Z M60 -23.958 Q62.62 -23.958 64.446 -25.784 Q66.272 -27.61 66.272 -30.23 Q66.272 -32.85 64.446 -34.676 Q62.62 -36.502 60 -36.502 Q57.38 -36.502 55.554 -34.676 Q53.728 -32.85 53.728 -30.23 Q53.728 -27.61 55.554 -25.784 Q57.38 -23.958 60 -23.958 Z M79.717 -23.958 Q82.337 -23.958 84.163 -25.784 Q85.989 -27.61 85.989 -30.23 Q85.989 -32.85 84.163 -34.676 Q82.337 -36.502 79.717 -36.502 Q77.098 -36.502 75.272 -34.676 Q73.446 -32.85 73.446 -30.23 Q73.446 -27.61 75.272 -25.784 Q77.098 -23.958 79.717 -23.958 Z M60 17.172 Q50.201 17.172 41.554 13.433 Q32.907 9.694 26.492 3.278 Q20.076 -3.137 16.337 -11.784 Q12.598 -20.431 12.598 -30.23 Q12.598 -40.029 16.337 -48.676 Q20.076 -57.322 26.492 -63.738 Q32.907 -70.154 41.554 -73.893 Q50.201 -77.632 60 -77.632 Q69.799 -77.632 78.446 -73.893 Q87.093 -70.154 93.508 -63.738 Q99.924 -57.322 103.663 -48.676 Q107.402 -40.029 107.402 -30.23 Q107.402 -20.431 103.663 -11.784 Q99.924 -3.137 93.508 3.278 Q87.093 9.694 78.446 13.433 Q69.799 17.172 60 17.172 Z M26.94 -86.447  34.788 -78.67  11.56 -55.442  3.783 -63.29  26.94 -86.447 Z M93.06 -86.447  116.218 -63.29  108.44 -55.442  85.212 -78.67  93.06 -86.447 Z M60.001 3.922 Q74.272 3.922 84.212 -6.019 Q94.152 -15.96 94.152 -30.231 Q94.152 -44.502 84.211 -54.442 Q74.27 -64.382 59.999 -64.382 Q45.728 -64.382 35.788 -54.441 Q25.848 -44.5 25.848 -30.229 Q25.848 -15.958 35.789 -6.018 Q45.73 3.922 60.001 3.922 Z"/></g><g id="Medium-M" transform="matrix(1 0 0 1 1689.91 1126)"><path d="M40.12 -24.692 Q42.454 -24.692 44.056 -26.294 Q45.658 -27.896 45.658 -30.23 Q45.658 -32.564 44.056 -34.166 Q42.454 -35.768 40.12 -35.768 Q37.785 -35.768 36.183 -34.166 Q34.581 -32.564 34.581 -30.23 Q34.581 -27.896 36.183 -26.294 Q37.785 -24.692 40.12 -24.692 Z M60 -24.692 Q62.334 -24.692 63.936 -26.294 Q65.538 -27.896 65.538 -30.23 Q65.538 -32.564 63.936 -34.166 Q62.334 -35.768 60 -35.768 Q57.666 -35.768 56.064 -34.166 Q54.462 -32.564 54.462 -30.23 Q54.462 -27.896 56.064 -26.294 Q57.666 -24.692 60 -24.692 Z M79.88 -24.692 Q82.215 -24.692 83.817 -26.294 Q85.418 -27.896 85.418 -30.23 Q85.418 -32.564 83.817 -34.166 Q82.215 -35.768 79.88 -35.768 Q77.546 -35.768 75.944 -34.166 Q74.342 -32.564 74.342 -30.23 Q74.342 -27.896 75.944 -26.294 Q77.546 -24.692 79.88 -24.692 Z M60 15.786 Q50.446 15.786 42.064 12.149 Q33.682 8.512 27.47 2.3 Q21.258 -3.912 17.621 -12.294 Q13.984 -20.676 13.984 -30.23 Q13.984 -39.784 17.621 -48.166 Q21.258 -56.548 27.47 -62.76 Q33.682 -68.972 42.064 -72.609 Q50.446 -76.246 60 -76.246 Q69.554 -76.246 77.936 -72.609 Q86.318 -68.972 92.53 -62.76 Q98.742 -56.548 102.379 -48.166 Q106.016 -39.784 106.016 -30.23 Q106.016 -20.676 102.379 -12.294 Q98.742 -3.912 92.53 2.3 Q86.318 8.512 77.936 12.149 Q69.554 15.786 60 15.786 Z M27.552 -84.735  34.91 -77.407  12.823 -55.32  5.495 -62.678  27.552 -84.735 Z M92.448 -84.735  114.505 -62.678  107.177 -55.32  85.09 -77.407  92.448 -84.735 Z M60 4.411 Q74.475 4.411 84.558 -5.672 Q94.641 -15.755 94.641 -30.23 Q94.641 -44.705 84.558 -54.788 Q74.475 -64.871 60 -64.871 Q45.525 -64.871 35.442 -54.788 Q25.359 -44.705 25.359 -30.23 Q25.359 -15.754 35.442 -5.672 Q45.525 4.411 60 4.411 Z"/></g><g id="Regular-M" transform="matrix(1 0 0 1 1394.06 1126)"><path d="M40 -25.23 Q42.125 -25.23 43.562 -26.667 Q45 -28.105 45 -30.23 Q45 -32.355 43.562 -33.792 Q42.125 -35.23 40 -35.23 Q37.875 -35.23 36.438 -33.792 Q35 -32.355 35 -30.23 Q35 -28.105 36.438 -26.667 Q37.875 -25.23 40 -25.23 Z M60 -25.23 Q62.125 -25.23 63.562 -26.667 Q65 -28.105 65 -30.23 Q65 -32.355 63.562 -33.792 Q62.125 -35.23 60 -35.23 Q57.875 -35.23 56.438 -33.792 Q55 -32.355 55 -30.23 Q55 -28.105 56.438 -26.667 Q57.875 -25.23 60 -25.23 Z M80 -25.23 Q82.125 -25.23 83.562 -26.667 Q85 -28.105 85 -30.23 Q85 -32.355 83.562 -33.792 Q82.125 -35.23 80 -35.23 Q77.875 -35.23 76.438 -33.792 Q75 -32.355 75 -30.23 Q75 -28.105 76.438 -26.667 Q77.875 -25.23 80 -25.23 Z M60 14.77 Q50.625 14.77 42.438 11.208 Q34.25 7.645 28.188 1.583 Q22.125 -4.48 18.562 -12.667 Q15 -20.855 15 -30.23 Q15 -39.605 18.562 -47.792 Q22.125 -55.98 28.188 -62.042 Q34.25 -68.105 42.438 -71.667 Q50.625 -75.23 60 -75.23 Q69.375 -75.23 77.562 -71.667 Q85.75 -68.105 91.812 -62.042 Q97.875 -55.98 101.438 -47.792 Q105 -39.605 105 -30.23 Q105 -20.855 101.438 -12.667 Q97.875 -4.48 91.812 1.583 Q85.75 7.645 77.562 11.208 Q69.375 14.77 60 14.77 Z M28 -83.48  35 -76.48  13.75 -55.23  6.75 -62.23  28 -83.48 Z M92 -83.48  113.25 -62.23  106.25 -55.23  85 -76.48  92 -83.48 Z M60 4.77 Q74.625 4.77 84.812 -5.417 Q95 -15.605 95 -30.23 Q95 -44.855 84.812 -55.042 Q74.625 -65.23 60 -65.23 Q45.375 -65.23 35.188 -55.042 Q25 -44.855 25 -30.23 Q25 -15.605 35.188 -5.417 Q45.375 4.77 60 4.77 Z"/></g><g id="Light-M" transform="matrix(1 0 0 1 1098.18 1126)"><path d="M40.623 -25.903 Q42.462 -25.903 43.707 -27.147 Q44.952 -28.39 44.952 -30.228 Q44.952 -32.066 43.708 -33.312 Q42.465 -34.557 40.627 -34.557 Q38.788 -34.557 37.543 -33.313 Q36.298 -32.07 36.298 -30.232 Q36.298 -28.393 37.542 -27.148 Q38.785 -25.903 40.623 -25.903 Z M59.998 -25.903 Q61.837 -25.903 63.082 -27.147 Q64.327 -28.39 64.327 -30.228 Q64.327 -32.066 63.083 -33.312 Q61.84 -34.557 60.002 -34.557 Q58.163 -34.557 56.918 -33.313 Q55.673 -32.07 55.673 -30.232 Q55.673 -28.393 56.917 -27.148 Q58.16 -25.903 59.998 -25.903 Z M79.373 -25.903 Q81.212 -25.903 82.457 -27.147 Q83.702 -28.39 83.702 -30.228 Q83.702 -32.066 82.458 -33.312 Q81.215 -34.557 79.377 -34.557 Q77.538 -34.557 76.293 -33.313 Q75.048 -32.07 75.048 -30.232 Q75.048 -28.393 76.292 -27.148 Q77.535 -25.903 79.373 -25.903 Z M60.003 12.27 Q51.154 12.27 43.423 8.924 Q35.692 5.578 29.942 -0.172 Q24.192 -5.922 20.846 -13.65 Q17.5 -21.378 17.5 -30.227 Q17.5 -39.076 20.846 -46.807 Q24.192 -54.538 29.942 -60.288 Q35.692 -66.037 43.42 -69.384 Q51.148 -72.73 59.997 -72.73 Q68.846 -72.73 76.577 -69.384 Q84.308 -66.037 90.058 -60.288 Q95.808 -54.538 99.154 -46.81 Q102.5 -39.082 102.5 -30.233 Q102.5 -21.384 99.154 -13.653 Q95.808 -5.922 90.058 -0.172 Q84.308 5.578 76.58 8.924 Q68.852 12.27 60.003 12.27 Z M28.769 -80.787  34.038 -75.518  14.712 -56.192  9.443 -61.461  28.769 -80.787 Z M91.231 -80.787  110.558 -61.461  105.288 -56.192  85.962 -75.518  91.231 -80.787 Z M60 4.77 Q74.577 4.77 84.788 -5.441 Q95 -15.653 95 -30.23 Q95 -44.807 84.788 -55.018 Q74.577 -65.23 60 -65.23 Q45.423 -65.23 35.212 -55.018 Q25 -44.807 25 -30.23 Q25 -15.653 35.212 -5.441 Q45.423 4.77 60 4.77 Z"/></g><g id="Thin-M" transform="matrix(1 0 0 1 802.565 1126)"><path d="M41.247 -26.576 Q42.798 -26.576 43.851 -27.626 Q44.904 -28.675 44.904 -30.227 Q44.904 -31.778 43.854 -32.831 Q42.805 -33.884 41.253 -33.884 Q39.702 -33.884 38.649 -32.834 Q37.596 -31.785 37.596 -30.233 Q37.596 -28.682 38.646 -27.629 Q39.695 -26.576 41.247 -26.576 Z M59.997 -26.576 Q61.548 -26.576 62.601 -27.626 Q63.654 -28.675 63.654 -30.227 Q63.654 -31.778 62.604 -32.831 Q61.555 -33.884 60.003 -33.884 Q58.452 -33.884 57.399 -32.834 Q56.346 -31.785 56.346 -30.233 Q56.346 -28.682 57.396 -27.629 Q58.445 -26.576 59.997 -26.576 Z M78.747 -26.576 Q80.298 -26.576 81.351 -27.626 Q82.404 -28.675 82.404 -30.227 Q82.404 -31.778 81.354 -32.831 Q80.305 -33.884 78.753 -33.884 Q77.202 -33.884 76.149 -32.834 Q75.096 -31.785 75.096 -30.233 Q75.096 -28.682 76.146 -27.629 Q77.195 -26.576 78.747 -26.576 Z M60.005 9.77 Q51.683 9.77 44.409 6.64 Q37.135 3.51 31.697 -1.927 Q26.26 -7.365 23.13 -14.633 Q20 -21.902 20 -30.224 Q20 -38.547 23.13 -45.821 Q26.26 -53.095 31.697 -58.533 Q37.135 -63.97 44.403 -67.1 Q51.672 -70.23 59.995 -70.23 Q68.317 -70.23 75.591 -67.1 Q82.865 -63.97 88.303 -58.533 Q93.74 -53.095 96.87 -45.827 Q100 -38.558 100 -30.235 Q100 -21.913 96.87 -14.639 Q93.74 -7.365 88.303 -1.927 Q82.865 3.51 75.597 6.64 Q68.328 9.77 60.005 9.77 Z M29.538 -78.095  33.077 -74.557  15.673 -57.153  12.135 -60.691  29.538 -78.095 Z M90.462 -78.095  107.865 -60.691  104.327 -57.153  86.923 -74.557  90.462 -78.095 Z M60 4.77 Q74.529 4.77 84.764 -5.466 Q95 -15.701 95 -30.23 Q95 -44.759 84.764 -54.994 Q74.529 -65.23 60 -65.23 Q45.471 -65.23 35.236 -54.994 Q25 -44.759 25 -30.23 Q25 -15.701 35.236 -5.466 Q45.471 4.77 60 4.77 Z"/></g><g id="Ultralight-M" transform="matrix(1 0 0 1 506.415 1126)"><path d="M41.621 -26.98 Q43 -26.98 43.938 -27.913 Q44.875 -28.846 44.875 -30.226 Q44.875 -31.605 43.942 -32.542 Q43.009 -33.48 41.629 -33.48 Q40.25 -33.48 39.312 -32.547 Q38.375 -31.614 38.375 -30.234 Q38.375 -28.855 39.308 -27.917 Q40.241 -26.98 41.621 -26.98 Z M59.996 -26.98 Q61.375 -26.98 62.312 -27.913 Q63.25 -28.846 63.25 -30.226 Q63.25 -31.605 62.317 -32.542 Q61.384 -33.48 60.004 -33.48 Q58.625 -33.48 57.688 -32.547 Q56.75 -31.614 56.75 -30.234 Q56.75 -28.855 57.683 -27.917 Q58.616 -26.98 59.996 -26.98 Z M78.371 -26.98 Q79.75 -26.98 80.688 -27.913 Q81.625 -28.846 81.625 -30.226 Q81.625 -31.605 80.692 -32.542 Q79.759 -33.48 78.379 -33.48 Q77 -33.48 76.062 -32.547 Q75.125 -31.614 75.125 -30.234 Q75.125 -28.855 76.058 -27.917 Q76.991 -26.98 78.371 -26.98 Z M60.007 8.27 Q52 8.27 45 5.27 Q38 2.27 32.75 -2.98 Q27.5 -8.23 24.5 -15.223 Q21.5 -22.216 21.5 -30.223 Q21.5 -38.23 24.5 -45.23 Q27.5 -52.23 32.75 -57.48 Q38 -62.73 44.993 -65.73 Q51.986 -68.73 59.993 -68.73 Q68 -68.73 75 -65.73 Q82 -62.73 87.25 -57.48 Q92.5 -52.23 95.5 -45.237 Q98.5 -38.244 98.5 -30.237 Q98.5 -22.23 95.5 -15.23 Q92.5 -8.23 87.25 -2.98 Q82 2.27 75.007 5.27 Q68.014 8.27 60.007 8.27 Z M30 -76.48  32.5 -73.98  16.25 -57.73  13.75 -60.23  30 -76.48 Z M90 -76.48  106.25 -60.23  103.75 -57.73  87.5 -73.98  90 -76.48 Z M60 4.77 Q74.5 4.77 84.75 -5.48 Q95 -15.73 95 -30.23 Q95 -44.73 84.75 -54.98 Q74.5 -65.23 60 -65.23 Q45.5 -65.23 35.25 -54.98 Q25 -44.73 25 -30.23 Q25 -15.73 35.25 -5.48 Q45.5 4.77 60 4.77 Z"/></g><g id="Bold-S" transform="matrix(1 0 0 1 2294.23 696)"><path d="M33.512 -25.17 Q35.702 -25.17 37.28 -26.727 Q38.858 -28.285 38.858 -30.475 Q38.858 -32.666 37.301 -34.244 Q35.744 -35.822 33.553 -35.822 Q31.363 -35.822 29.785 -34.265 Q28.207 -32.707 28.207 -30.517 Q28.207 -28.326 29.764 -26.748 Q31.321 -25.17 33.512 -25.17 Z M47.319 -25.17 Q49.51 -25.17 51.088 -26.727 Q52.666 -28.285 52.666 -30.475 Q52.666 -32.666 51.109 -34.244 Q49.551 -35.822 47.361 -35.822 Q45.17 -35.822 43.592 -34.265 Q42.014 -32.707 42.014 -30.517 Q42.014 -28.326 43.571 -26.748 Q45.129 -25.17 47.319 -25.17 Z M61.127 -25.17 Q63.317 -25.17 64.895 -26.727 Q66.473 -28.285 66.473 -30.475 Q66.473 -32.666 64.916 -34.244 Q63.359 -35.822 61.168 -35.822 Q58.978 -35.822 57.4 -34.265 Q55.822 -32.707 55.822 -30.517 Q55.822 -28.326 57.379 -26.748 Q58.936 -25.17 61.127 -25.17 Z M47.34 5.995 Q39.845 5.995 33.174 3.125 Q26.504 0.255 21.546 -4.702 Q16.589 -9.66 13.719 -16.33 Q10.849 -23 10.849 -30.496 Q10.849 -37.991 13.719 -44.662 Q16.589 -51.332 21.546 -56.29 Q26.504 -61.247 33.174 -64.117 Q39.845 -66.987 47.34 -66.987 Q54.836 -66.987 61.506 -64.117 Q68.176 -61.247 73.134 -56.29 Q78.091 -51.332 80.961 -44.662 Q83.831 -37.991 83.831 -30.496 Q83.831 -23 80.961 -16.33 Q78.091 -9.66 73.134 -4.702 Q68.176 0.255 61.506 3.125 Q54.836 5.995 47.34 5.995 Z M21.895 -75.37  28.108 -69.256  8.58 -49.728  2.466 -55.941  21.895 -75.37 Z M72.785 -75.37  92.214 -55.941  86.1 -49.728  66.572 -69.256  72.785 -75.37 Z M47.319 -5.642 Q57.696 -5.642 64.945 -12.871 Q72.194 -20.099 72.194 -30.475 Q72.194 -40.852 64.965 -48.101 Q57.737 -55.349 47.361 -55.349 Q36.984 -55.349 29.735 -48.121 Q22.486 -40.893 22.486 -30.517 Q22.486 -20.14 29.715 -12.891 Q36.943 -5.642 47.319 -5.642 Z"/></g><g id="Semibold-S" transform="matrix(1 0 0 1 1998.1 696)"><path d="M33.34 -25.942 Q35.231 -25.942 36.573 -27.263 Q37.915 -28.585 37.915 -30.475 Q37.915 -32.366 36.594 -33.708 Q35.272 -35.05 33.382 -35.05 Q31.491 -35.05 30.149 -33.729 Q28.807 -32.407 28.807 -30.517 Q28.807 -28.626 30.128 -27.284 Q31.45 -25.942 33.34 -25.942 Z M47.319 -25.942 Q49.21 -25.942 50.552 -27.263 Q51.894 -28.585 51.894 -30.475 Q51.894 -32.366 50.573 -33.708 Q49.251 -35.05 47.361 -35.05 Q45.47 -35.05 44.128 -33.729 Q42.786 -32.407 42.786 -30.517 Q42.786 -28.626 44.107 -27.284 Q45.429 -25.942 47.319 -25.942 Z M61.298 -25.942 Q63.189 -25.942 64.531 -27.263 Q65.873 -28.585 65.873 -30.475 Q65.873 -32.366 64.552 -33.708 Q63.23 -35.05 61.34 -35.05 Q59.449 -35.05 58.107 -33.729 Q56.765 -32.407 56.765 -30.517 Q56.765 -28.626 58.086 -27.284 Q59.408 -25.942 61.298 -25.942 Z M47.34 4.537 Q40.102 4.537 33.71 1.775 Q27.319 -0.988 22.575 -5.731 Q17.832 -10.475 15.069 -16.866 Q12.307 -23.258 12.307 -30.496 Q12.307 -37.734 15.069 -44.126 Q17.832 -50.517 22.575 -55.261 Q27.319 -60.004 33.71 -62.767 Q40.102 -65.529 47.34 -65.529 Q54.578 -65.529 60.97 -62.767 Q67.361 -60.004 72.105 -55.261 Q76.848 -50.517 79.611 -44.126 Q82.373 -37.734 82.373 -30.496 Q82.373 -23.258 79.611 -16.866 Q76.848 -10.475 72.105 -5.731 Q67.361 -0.988 60.97 1.775 Q54.578 4.537 47.34 4.537 Z M22.538 -73.569  28.237 -67.926  9.91 -49.599  4.267 -55.298  22.538 -73.569 Z M72.142 -73.569  90.413 -55.298  84.77 -49.599  66.443 -67.926  72.142 -73.569 Z M47.319 -5.128 Q57.91 -5.128 65.309 -12.506 Q72.708 -19.883 72.708 -30.475 Q72.708 -41.066 65.33 -48.465 Q57.953 -55.864 47.361 -55.864 Q36.77 -55.864 29.371 -48.486 Q21.972 -41.109 21.972 -30.517 Q21.972 -19.926 29.35 -12.527 Q36.727 -5.128 47.319 -5.128 Z"/></g><g id="Medium-S" transform="matrix(1 0 0 1 1701.85 696)"><path d="M33.212 -26.521 Q34.877 -26.521 36.042 -27.665 Q37.207 -28.81 37.207 -30.475 Q37.207 -32.14 36.063 -33.306 Q34.918 -34.471 33.253 -34.471 Q31.588 -34.471 30.423 -33.327 Q29.257 -32.182 29.257 -30.517 Q29.257 -28.852 30.402 -27.686 Q31.546 -26.521 33.212 -26.521 Z M47.319 -26.521 Q48.984 -26.521 50.15 -27.665 Q51.315 -28.81 51.315 -30.475 Q51.315 -32.14 50.171 -33.306 Q49.026 -34.471 47.361 -34.471 Q45.696 -34.471 44.53 -33.327 Q43.365 -32.182 43.365 -30.517 Q43.365 -28.852 44.509 -27.686 Q45.654 -26.521 47.319 -26.521 Z M61.427 -26.521 Q63.092 -26.521 64.257 -27.665 Q65.423 -28.81 65.423 -30.475 Q65.423 -32.14 64.278 -33.306 Q63.134 -34.471 61.468 -34.471 Q59.803 -34.471 58.638 -33.327 Q57.473 -32.182 57.473 -30.517 Q57.473 -28.852 58.617 -27.686 Q59.762 -26.521 61.427 -26.521 Z M47.34 3.444 Q40.295 3.444 34.112 0.762 Q27.93 -1.921 23.347 -6.503 Q18.765 -11.086 16.082 -17.268 Q13.4 -23.451 13.4 -30.496 Q13.4 -37.541 16.082 -43.724 Q18.765 -49.906 23.347 -54.489 Q27.93 -59.071 34.112 -61.754 Q40.295 -64.436 47.34 -64.436 Q54.385 -64.436 60.568 -61.754 Q66.75 -59.071 71.333 -54.489 Q75.915 -49.906 78.598 -43.724 Q81.28 -37.541 81.28 -30.496 Q81.28 -23.451 78.598 -17.268 Q75.915 -11.086 71.333 -6.503 Q66.75 -1.921 60.568 0.762 Q54.385 3.444 47.34 3.444 Z M23.02 -72.219  28.333 -66.929  10.907 -49.503  5.617 -54.816  23.02 -72.219 Z M71.66 -72.219  89.063 -54.816  83.773 -49.503  66.347 -66.929  71.66 -72.219 Z M47.318 -4.742 Q58.071 -4.742 65.582 -12.232 Q73.094 -19.722 73.094 -30.474 Q73.094 -41.227 65.604 -48.738 Q58.114 -56.25 47.362 -56.25 Q36.609 -56.25 29.098 -48.76 Q21.586 -41.27 21.586 -30.518 Q21.586 -19.765 29.076 -12.254 Q36.566 -4.742 47.318 -4.742 Z"/></g><g id="Regular-S" transform="matrix(1 0 0 1 1405.73 696)"><path d="M33.117 -26.945 Q34.617 -26.945 35.653 -27.96 Q36.689 -28.975 36.689 -30.475 Q36.689 -31.975 35.674 -33.011 Q34.659 -34.046 33.159 -34.046 Q31.659 -34.046 30.623 -33.032 Q29.588 -32.017 29.588 -30.517 Q29.588 -29.017 30.602 -27.981 Q31.617 -26.945 33.117 -26.945 Z M47.319 -26.945 Q48.819 -26.945 49.855 -27.96 Q50.891 -28.975 50.891 -30.475 Q50.891 -31.975 49.876 -33.011 Q48.861 -34.046 47.361 -34.046 Q45.861 -34.046 44.825 -33.032 Q43.79 -32.017 43.79 -30.517 Q43.79 -29.017 44.804 -27.981 Q45.819 -26.945 47.319 -26.945 Z M61.521 -26.945 Q63.021 -26.945 64.057 -27.96 Q65.093 -28.975 65.093 -30.475 Q65.093 -31.975 64.078 -33.011 Q63.063 -34.046 61.563 -34.046 Q60.063 -34.046 59.027 -33.032 Q57.992 -32.017 57.992 -30.517 Q57.992 -29.017 59.006 -27.981 Q60.021 -26.945 61.521 -26.945 Z M47.34 2.642 Q40.436 2.642 34.407 0.019 Q28.378 -2.605 23.913 -7.069 Q19.449 -11.534 16.825 -17.563 Q14.202 -23.592 14.202 -30.496 Q14.202 -37.4 16.825 -43.429 Q19.449 -49.458 23.913 -53.923 Q28.378 -58.387 34.407 -61.011 Q40.436 -63.634 47.34 -63.634 Q54.244 -63.634 60.273 -61.011 Q66.302 -58.387 70.767 -53.923 Q75.231 -49.458 77.855 -43.429 Q80.478 -37.4 80.478 -30.496 Q80.478 -23.592 77.855 -17.563 Q75.231 -11.534 70.767 -7.069 Q66.302 -2.605 60.273 0.019 Q54.244 2.642 47.34 2.642 Z M23.374 -71.228  28.404 -66.198  11.638 -49.432  6.608 -54.462  23.374 -71.228 Z M71.306 -71.228  88.072 -54.462  83.042 -49.432  66.276 -66.198  71.306 -71.228 Z M47.318 -4.459 Q58.189 -4.459 65.783 -12.031 Q73.377 -19.604 73.377 -30.474 Q73.377 -41.345 65.805 -48.939 Q58.232 -56.533 47.362 -56.533 Q36.491 -56.533 28.897 -48.961 Q21.303 -41.388 21.303 -30.518 Q21.303 -19.647 28.875 -12.053 Q36.448 -4.459 47.318 -4.459 Z"/></g><g id="Light-S" transform="matrix(1 0 0 1 1109.75 696)"><path d="M33.609 -27.477 Q34.883 -27.477 35.767 -28.338 Q36.651 -29.2 36.651 -30.474 Q36.651 -31.748 35.789 -32.632 Q34.927 -33.515 33.653 -33.515 Q32.379 -33.515 31.496 -32.654 Q30.612 -31.792 30.612 -30.518 Q30.612 -29.244 31.474 -28.36 Q32.335 -27.477 33.609 -27.477 Z M47.318 -27.477 Q48.592 -27.477 49.476 -28.338 Q50.359 -29.2 50.359 -30.474 Q50.359 -31.748 49.498 -32.632 Q48.636 -33.515 47.362 -33.515 Q46.088 -33.515 45.204 -32.654 Q44.321 -31.792 44.321 -30.518 Q44.321 -29.244 45.182 -28.36 Q46.044 -27.477 47.318 -27.477 Z M61.027 -27.477 Q62.301 -27.477 63.184 -28.338 Q64.068 -29.2 64.068 -30.474 Q64.068 -31.748 63.206 -32.632 Q62.345 -33.515 61.071 -33.515 Q59.797 -33.515 58.913 -32.654 Q58.029 -31.792 58.029 -30.518 Q58.029 -29.244 58.891 -28.36 Q59.753 -27.477 61.027 -27.477 Z M47.342 0.669 Q40.854 0.669 35.185 -1.783 Q29.516 -4.236 25.298 -8.454 Q21.08 -12.672 18.627 -18.338 Q16.175 -24.005 16.175 -30.494 Q16.175 -36.982 18.627 -42.651 Q21.08 -48.32 25.298 -52.538 Q29.516 -56.756 35.182 -59.209 Q40.849 -61.661 47.338 -61.661 Q53.826 -61.661 59.495 -59.209 Q65.164 -56.756 69.382 -52.538 Q73.6 -48.32 76.053 -42.654 Q78.505 -36.987 78.505 -30.498 Q78.505 -24.01 76.053 -18.341 Q73.6 -12.672 69.382 -8.454 Q65.164 -4.236 59.498 -1.783 Q53.831 0.669 47.342 0.669 Z M23.981 -69.104  27.645 -65.44  12.396 -50.191  8.732 -53.855  23.981 -69.104 Z M70.699 -69.104  85.948 -53.855  82.284 -50.191  67.035 -65.44  70.699 -69.104 Z M47.318 -4.459 Q58.151 -4.459 65.764 -12.05 Q73.377 -19.641 73.377 -30.474 Q73.377 -41.307 65.786 -48.92 Q58.195 -56.533 47.362 -56.533 Q36.529 -56.533 28.916 -48.942 Q21.303 -41.351 21.303 -30.518 Q21.303 -19.685 28.894 -12.072 Q36.485 -4.459 47.318 -4.459 Z"/></g><g id="Thin-S" transform="matrix(1 0 0 1 814.015 696)"><path d="M34.101 -28.008 Q35.148 -28.008 35.881 -28.716 Q36.613 -29.425 36.613 -30.473 Q36.613 -31.52 35.904 -32.252 Q35.195 -32.984 34.148 -32.984 Q33.1 -32.984 32.368 -32.276 Q31.636 -31.567 31.636 -30.519 Q31.636 -29.472 32.345 -28.74 Q33.053 -28.008 34.101 -28.008 Z M47.317 -28.008 Q48.364 -28.008 49.096 -28.716 Q49.828 -29.425 49.828 -30.473 Q49.828 -31.52 49.12 -32.252 Q48.411 -32.984 47.363 -32.984 Q46.316 -32.984 45.584 -32.276 Q44.852 -31.567 44.852 -30.519 Q44.852 -29.472 45.56 -28.74 Q46.269 -28.008 47.317 -28.008 Z M60.532 -28.008 Q61.58 -28.008 62.312 -28.716 Q63.044 -29.425 63.044 -30.473 Q63.044 -31.52 62.335 -32.252 Q61.627 -32.984 60.579 -32.984 Q59.532 -32.984 58.799 -32.276 Q58.067 -31.567 58.067 -30.519 Q58.067 -29.472 58.776 -28.74 Q59.485 -28.008 60.532 -28.008 Z M47.344 -1.303 Q41.271 -1.303 35.962 -3.585 Q30.654 -5.867 26.682 -9.838 Q22.711 -13.81 20.429 -19.114 Q18.147 -24.418 18.147 -30.492 Q18.147 -36.565 20.429 -41.874 Q22.711 -47.182 26.682 -51.154 Q30.654 -55.125 35.958 -57.407 Q41.262 -59.689 47.336 -59.689 Q53.409 -59.689 58.718 -57.407 Q64.026 -55.125 67.998 -51.154 Q71.969 -47.182 74.251 -41.878 Q76.533 -36.574 76.533 -30.5 Q76.533 -24.427 74.251 -19.118 Q71.969 -13.81 67.998 -9.838 Q64.026 -5.867 58.722 -3.585 Q53.418 -1.303 47.344 -1.303 Z M24.588 -66.98  26.887 -64.681  13.155 -50.949  10.856 -53.248  24.588 -66.98 Z M70.092 -66.98  83.824 -53.248  81.525 -50.949  67.793 -64.681  70.092 -66.98 Z M47.318 -4.459 Q58.113 -4.459 65.745 -12.069 Q73.377 -19.679 73.377 -30.474 Q73.377 -41.269 65.767 -48.901 Q58.157 -56.533 47.362 -56.533 Q36.567 -56.533 28.935 -48.923 Q21.303 -41.313 21.303 -30.518 Q21.303 -19.723 28.913 -12.091 Q36.523 -4.459 47.318 -4.459 Z"/></g><g id="Ultralight-S" transform="matrix(1 0 0 1 517.792 696)"><path d="M34.396 -28.326 Q35.308 -28.326 35.949 -28.943 Q36.59 -29.56 36.59 -30.472 Q36.59 -31.384 35.973 -32.025 Q35.356 -32.666 34.444 -32.666 Q33.532 -32.666 32.891 -32.049 Q32.25 -31.432 32.25 -30.52 Q32.25 -29.608 32.867 -28.967 Q33.484 -28.326 34.396 -28.326 Z M47.316 -28.326 Q48.228 -28.326 48.869 -28.943 Q49.51 -29.56 49.51 -30.472 Q49.51 -31.384 48.893 -32.025 Q48.276 -32.666 47.364 -32.666 Q46.452 -32.666 45.811 -32.049 Q45.17 -31.432 45.17 -30.52 Q45.17 -29.608 45.787 -28.967 Q46.404 -28.326 47.316 -28.326 Z M60.236 -28.326 Q61.148 -28.326 61.789 -28.943 Q62.43 -29.56 62.43 -30.472 Q62.43 -31.384 61.813 -32.025 Q61.196 -32.666 60.284 -32.666 Q59.372 -32.666 58.731 -32.049 Q58.09 -31.432 58.09 -30.52 Q58.09 -29.608 58.707 -28.967 Q59.324 -28.326 60.236 -28.326 Z M47.346 -2.486 Q41.521 -2.486 36.429 -4.666 Q31.336 -6.846 27.513 -10.669 Q23.69 -14.492 21.51 -19.579 Q19.331 -24.666 19.331 -30.49 Q19.331 -36.315 21.51 -41.407 Q23.69 -46.5 27.513 -50.323 Q31.336 -54.146 36.423 -56.326 Q41.51 -58.505 47.334 -58.505 Q53.159 -58.505 58.251 -56.326 Q63.344 -54.146 67.167 -50.323 Q70.99 -46.5 73.17 -41.413 Q75.35 -36.326 75.35 -30.502 Q75.35 -24.677 73.17 -19.585 Q70.99 -14.492 67.167 -10.669 Q63.344 -6.846 58.257 -4.666 Q53.17 -2.486 47.346 -2.486 Z M24.952 -65.705  26.431 -64.226  13.61 -51.404  12.131 -52.884  24.952 -65.705 Z M69.728 -65.705  82.549 -52.884  81.07 -51.404  68.249 -64.226  69.728 -65.705 Z M47.318 -4.459 Q58.09 -4.459 65.734 -12.081 Q73.377 -19.702 73.377 -30.474 Q73.377 -41.246 65.755 -48.89 Q58.134 -56.533 47.362 -56.533 Q36.59 -56.533 28.946 -48.911 Q21.303 -41.29 21.303 -30.518 Q21.303 -19.746 28.925 -12.102 Q36.546 -4.459 47.318 -4.459 Z"/></g></g></svg>