<svg xmlns="http://www.w3.org/2000/svg" height="24" viewBox="0 -960 960 960" width="24"><path d="M289.956-240q-51 0-81.837-28.337-30.837-28.337-30.837-73.815 0-44.957 35.098-73.815 35.098-28.859 90.533-28.859 23 0 44.761 4 21.761 4 37.043 11.239v-14.391q0-26.848-19.902-44.011-19.902-17.163-51.511-17.163-14.522 0-28.424 4.261t-25.663 12.304q-14.674 9.761-26.772 6.163-12.097-3.598-19.336-12.554-7.24-8.957-6.761-20.794.478-11.837 12.195-19.837 20.718-15.522 46.076-22.902 25.359-7.38 51.598-7.38 67.565 0 102.402 33.456 34.837 33.457 34.837 97.261v153.457q0 14.195-10.217 24.032t-24.413 9.837q-14.196 0-24.152-10.217-9.957-10.218-9.957-24.174v-3.804h-3.761q-13.521 22.282-37.761 34.163Q318.956-240 289.956-240Zm14.392-58.304q33.804 0 57.467-23.044 23.663-23.043 23.663-54.326-12.804-7.283-30.989-11.185-18.185-3.902-37.424-3.902-32 0-49.522 12.924-17.521 12.924-17.521 35.207 0 19.282 15.402 31.804 15.402 12.522 38.924 12.522Zm353.739-100.631v-199.391q0-17.717 12.098-29.696Q682.283-640 700-640t29.696 11.978q11.978 11.979 11.978 29.696v199.391l32.891-32.891q11.718-11.718 29.196-11.718t29.196 11.718q11.717 11.717 11.717 29.315t-11.717 29.315L731.826-272.065q-13.674 13.674-32.065 13.674t-32.065-13.674l-101.131-101.37q-11.717-11.717-11.717-29.195 0-17.479 11.717-29.196 11.718-11.718 29.196-11.837 17.478-.12 29.196 11.598l33.13 33.13Z"/></svg>