<svg xmlns="http://www.w3.org/2000/svg" version="1.1" width="3300" height="2000"><g id="Notes"><style>
    text {
      font-family: monospace;
      text-anchor: middle;
    }
    text.emphasis {
      font-weight:bold;
    }
    text.lanchor {
      text-anchor: start;
    }
  </style><rect height="2200" id="artboard" fill="white" width="3300" x="0" y="0"/><line id="" style="fill:none;stroke:black;stroke-width:0.5;" x1="263" x2="3036" y1="292" y2="292"/><text class="lanchor emphasis" transform="matrix(1 0 0 1 263 322)">Weight/Scale Variations</text><text transform="matrix(1 0 0 1 559.711 322)">Ultralight</text><text transform="matrix(1 0 0 1 856.422 322)">Thin</text><text transform="matrix(1 0 0 1 1153.13 322)">Light</text><text transform="matrix(1 0 0 1 1449.84 322)">Regular</text><text transform="matrix(1 0 0 1 1746.56 322)">Medium</text><text transform="matrix(1 0 0 1 2043.27 322)">Semibold</text><text transform="matrix(1 0 0 1 2339.98 322)">Bold</text><text transform="matrix(1 0 0 1 2636.69 322)">Heavy</text><text transform="matrix(1 0 0 1 2933.4 322)">Black</text><text id="template-version" style="text-anchor: end;" transform="matrix(1 0 0 1 3036 1933)">Template v.1.0</text><text class="lanchor" transform="matrix(1 0 0 1 263 726)">Small</text><text class="lanchor" transform="matrix(1 0 0 1 263 1156)">Medium</text><text class="lanchor" transform="matrix(1 0 0 1 263 1586)">Large</text></g><g id="Guides"><g id="H-reference" style="fill:#27AAE1;stroke:none;" transform="matrix(1 0 0 1 339 696)"><path d="M 54.9316 0 L 57.666 0 L 30.5664 -70.459 L 28.0762 -70.459 L 0.976562 0 L 3.66211 0 L 12.9395 -24.4629 L 45.7031 -24.4629 Z M 29.1992 -67.0898 L 29.4434 -67.0898 L 44.8242 -26.709 L 13.8184 -26.709 Z"/></g><line id="Baseline-S" style="fill:none;stroke:#27AAE1;opacity:1;stroke-width:0.577;" x1="263" x2="3036" y1="696" y2="696"/><line id="Capline-S" style="fill:none;stroke:#27AAE1;opacity:1;stroke-width:0.577;" x1="263" x2="3036" y1="625.541" y2="625.541"/><g id="H-reference" style="fill:#27AAE1;stroke:none;" transform="matrix(1 0 0 1 339 1126)"><path d="M 54.9316 0 L 57.666 0 L 30.5664 -70.459 L 28.0762 -70.459 L 0.976562 0 L 3.66211 0 L 12.9395 -24.4629 L 45.7031 -24.4629 Z M 29.1992 -67.0898 L 29.4434 -67.0898 L 44.8242 -26.709 L 13.8184 -26.709 Z"/></g><line id="Baseline-M" style="fill:none;stroke:#27AAE1;opacity:1;stroke-width:0.577;" x1="263" x2="3036" y1="1126" y2="1126"/><line id="Capline-M" style="fill:none;stroke:#27AAE1;opacity:1;stroke-width:0.577;" x1="263" x2="3036" y1="1055.54" y2="1055.54"/><g id="H-reference" style="fill:#27AAE1;stroke:none;" transform="matrix(1 0 0 1 339 1556)"><path d="M 54.9316 0 L 57.666 0 L 30.5664 -70.459 L 28.0762 -70.459 L 0.976562 0 L 3.66211 0 L 12.9395 -24.4629 L 45.7031 -24.4629 Z M 29.1992 -67.0898 L 29.4434 -67.0898 L 44.8242 -26.709 L 13.8184 -26.709 Z"/></g><line id="Baseline-L" style="fill:none;stroke:#27AAE1;opacity:1;stroke-width:0.577;" x1="263" x2="3036" y1="1556" y2="1556"/><line id="Capline-L" style="fill:none;stroke:#27AAE1;opacity:1;stroke-width:0.577;" x1="263" x2="3036" y1="1485.54" y2="1485.54"/><rect height="119.336" id="left-margin" style="fill:darkred;stroke:none;opacity:0.4;" width="12.4512" x="1394.06" y="1030.79"/><rect height="119.336" id="right-margin" style="fill:darkgreen;stroke:none;opacity:0.4;" width="12.4512" x="1502.5112" y="1030.79"/><rect x="1406.5112" y="1045" width="96" height="96" fill="none" stroke="blue" stroke-dasharray="5"/><rect x="1394.06" y="1030.79" width="120.9024" height="119.336" fill="none" stroke="blue"/></g><g id="Symbols"><g id="Bold-L" transform="matrix(1 0 0 1 2266 1556)"><path d="M118.519 -3.947 H104.974 Q102.37 -3.947 100.527 -5.828 Q98.685 -7.708 98.685 -10.341 Q98.685 -12.973 100.527 -14.83 Q102.37 -16.686 104.974 -16.686 H118.519 V-30.392 Q118.519 -32.884 120.436 -34.783 Q122.353 -36.681 125.04 -36.681 Q127.658 -36.681 129.538 -34.783 Q131.419 -32.884 131.419 -30.392 V-16.686 H144.803 Q147.528 -16.686 149.471 -14.836 Q151.414 -12.985 151.414 -10.352 Q151.414 -7.72 149.471 -5.834 Q147.528 -3.947 144.803 -3.947 H131.419 V9.598 Q131.419 12.343 129.511 14.195 Q127.603 16.048 124.929 16.048 Q122.324 16.048 120.421 14.195 Q118.519 12.343 118.519 9.598 V-3.947 Z M18.221 26.206 Q12.124 26.206 7.836 21.918 Q3.548 17.63 3.548 11.533 V-84.411 Q3.548 -90.472 7.836 -94.859 Q12.124 -99.246 18.221 -99.246 H114.326 Q119.926 -99.246 124.463 -94.859 Q129 -90.472 129 -84.411 V-52 Q129 -48.654 126.876 -46.618 Q124.751 -44.582 122.038 -44.582 Q118.519 -44.582 116.422 -46.816 Q114.326 -49.049 114.326 -52.322 V-60.869 H18.221 V11.533 Q18.221 11.533 18.221 11.533 Q18.221 11.533 18.221 11.533 H101.426 Q104.684 11.533 106.764 13.621 Q108.844 15.709 108.844 18.898 Q108.844 22.018 106.764 24.112 Q104.684 26.206 101.426 26.206 H18.221 Z M18.221 -70.06 H114.326 V-84.411 Q114.326 -84.411 114.326 -84.411 Q114.326 -84.411 114.326 -84.411 H18.221 Q18.221 -84.411 18.221 -84.411 Q18.221 -84.411 18.221 -84.411 V-70.06 Z"/></g><g id="Semibold-L" transform="matrix(1 0 0 1 1970.27 1556)"><path d="M118.238 -4.018 H103.572 Q101.064 -4.018 99.279 -5.842 Q97.493 -7.666 97.493 -10.215 Q97.493 -12.765 99.279 -14.55 Q101.064 -16.336 103.572 -16.336 H118.238 V-31.094 Q118.238 -33.538 120.069 -35.355 Q121.9 -37.172 124.459 -37.172 Q126.979 -37.172 128.813 -35.355 Q130.648 -33.538 130.648 -31.094 V-16.336 H145.153 Q147.759 -16.336 149.621 -14.541 Q151.484 -12.747 151.484 -10.197 Q151.484 -7.648 149.621 -5.833 Q147.759 -4.018 145.153 -4.018 H130.648 V10.579 Q130.648 13.235 128.801 15.027 Q126.955 16.819 124.373 16.819 Q121.86 16.819 120.049 15.027 Q118.238 13.235 118.238 10.579 V-4.018 Z M16.889 25.786 Q11.384 25.786 7.431 21.832 Q3.477 17.879 3.477 12.374 V-85.323 Q3.477 -90.762 7.431 -94.794 Q11.384 -98.826 16.889 -98.826 H114.747 Q119.926 -98.826 124.042 -94.794 Q128.159 -90.762 128.159 -85.323 V-52.631 Q128.159 -49.636 126.069 -47.74 Q123.98 -45.844 120.776 -45.844 Q118.028 -45.844 116.388 -47.622 Q114.747 -49.4 114.747 -51.902 V-60.588 H16.889 V12.374 Q16.889 12.374 16.889 12.374 Q16.889 12.374 16.889 12.374 H101.777 Q104.684 12.374 106.623 14.322 Q108.563 16.27 108.563 19.143 Q108.563 21.948 106.623 23.867 Q104.684 25.786 101.777 25.786 H16.889 Z M16.889 -70.901 H114.747 V-85.323 Q114.747 -85.323 114.747 -85.323 Q114.747 -85.323 114.747 -85.323 H16.889 Q16.889 -85.323 16.889 -85.323 Q16.889 -85.323 16.889 -85.323 V-70.901 Z"/></g><g id="Medium-L" transform="matrix(1 0 0 1 1674.31 1556)"><path d="M118.028 -4.07 H102.52 Q100.084 -4.07 98.342 -5.852 Q96.599 -7.634 96.599 -10.121 Q96.599 -12.608 98.342 -14.341 Q100.084 -16.073 102.52 -16.073 H118.028 V-31.619 Q118.028 -34.028 119.794 -35.784 Q121.56 -37.54 124.024 -37.54 Q126.471 -37.54 128.27 -35.784 Q130.069 -34.028 130.069 -31.619 V-16.073 H145.416 Q147.933 -16.073 149.734 -14.32 Q151.536 -12.568 151.536 -10.081 Q151.536 -7.594 149.734 -5.832 Q147.933 -4.07 145.416 -4.07 H130.069 V11.315 Q130.069 13.904 128.269 15.651 Q126.47 17.397 123.956 17.397 Q121.511 17.397 119.77 15.651 Q118.028 13.904 118.028 11.315 V-4.07 Z M15.89 25.47 Q10.83 25.47 7.127 21.768 Q3.425 18.065 3.425 13.005 V-86.006 Q3.425 -90.98 7.127 -94.745 Q10.83 -98.51 15.89 -98.51 H115.062 Q119.926 -98.51 123.727 -94.745 Q127.528 -90.98 127.528 -86.006 V-53.104 Q127.528 -50.372 125.465 -48.581 Q123.401 -46.791 119.83 -46.791 Q117.66 -46.791 116.361 -48.227 Q115.062 -49.663 115.062 -51.586 V-60.378 H15.89 V13.005 Q15.89 13.005 15.89 13.005 Q15.89 13.005 15.89 13.005 H102.04 Q104.684 13.005 106.518 14.848 Q108.353 16.691 108.353 19.327 Q108.353 21.895 106.518 23.683 Q104.684 25.47 102.04 25.47 H15.89 Z M15.89 -71.532 H115.062 V-86.006 Q115.062 -86.006 115.062 -86.006 Q115.062 -86.006 115.062 -86.006 H15.89 Q15.89 -86.006 15.89 -86.006 Q15.89 -86.006 15.89 -86.006 V-71.532 Z"/></g><g id="Regular-L" transform="matrix(1 0 0 1 1378.56 1556)"><path d="M117.874 -4.109 H101.749 Q99.366 -4.109 97.655 -5.86 Q95.944 -7.611 95.944 -10.052 Q95.944 -12.494 97.655 -14.187 Q99.366 -15.88 101.749 -15.88 H117.874 V-32.005 Q117.874 -34.387 119.592 -36.099 Q121.311 -37.81 123.704 -37.81 Q126.097 -37.81 127.871 -36.099 Q129.645 -34.387 129.645 -32.005 V-15.88 H145.609 Q148.06 -15.88 149.817 -14.159 Q151.575 -12.437 151.575 -9.996 Q151.575 -7.554 149.817 -5.832 Q148.06 -4.109 145.609 -4.109 H129.645 V11.855 Q129.645 14.395 127.879 16.108 Q126.113 17.821 123.651 17.821 Q121.256 17.821 119.565 16.108 Q117.874 14.395 117.874 11.855 V-4.109 Z M15.158 25.239 Q10.423 25.239 6.905 21.72 Q3.386 18.202 3.386 13.468 V-86.507 Q3.386 -91.139 6.905 -94.709 Q10.423 -98.279 15.158 -98.279 H115.294 Q119.926 -98.279 123.495 -94.709 Q127.065 -91.139 127.065 -86.507 V-53.451 Q127.065 -50.912 125.021 -49.198 Q122.977 -47.485 119.136 -47.485 Q117.39 -47.485 116.342 -48.67 Q115.294 -49.855 115.294 -51.355 V-60.224 H15.158 V13.468 Q15.158 13.468 15.158 13.468 Q15.158 13.468 15.158 13.468 H102.233 Q104.684 13.468 106.441 15.233 Q108.199 16.999 108.199 19.462 Q108.199 21.857 106.441 23.548 Q104.684 25.239 102.233 25.239 H15.158 Z M15.158 -71.995 H115.294 V-86.507 Q115.294 -86.507 115.294 -86.507 Q115.294 -86.507 115.294 -86.507 H15.158 Q15.158 -86.507 15.158 -86.507 Q15.158 -86.507 15.158 -86.507 V-71.995 Z"/></g><g id="Light-L" transform="matrix(1 0 0 1 1082.77 1556)"><path d="M118.308 -5.473 H101.625 Q99.743 -5.473 98.371 -6.886 Q96.998 -8.299 96.998 -10.241 Q96.998 -12.122 98.371 -13.505 Q99.743 -14.888 101.625 -14.888 H118.308 V-31.509 Q118.308 -33.39 119.688 -34.763 Q121.069 -36.135 122.962 -36.135 Q124.795 -36.135 126.259 -34.763 Q127.722 -33.39 127.722 -31.509 V-14.888 H144.182 Q146.132 -14.888 147.551 -13.474 Q148.97 -12.061 148.97 -10.149 Q148.97 -8.237 147.551 -6.855 Q146.132 -5.473 144.182 -5.473 H127.722 V11.049 Q127.722 13.088 126.264 14.462 Q124.807 15.836 122.873 15.836 Q121.008 15.836 119.658 14.462 Q118.308 13.088 118.308 11.049 V-5.473 Z M17.39 22.014 Q12.732 22.014 9.361 18.643 Q5.991 15.273 5.991 10.614 V-83.034 Q5.991 -87.542 9.361 -90.988 Q12.732 -94.433 17.39 -94.433 H111.2 Q115.708 -94.433 119.154 -90.988 Q122.599 -87.542 122.599 -83.034 V-52.707 Q122.599 -50.668 120.863 -49.294 Q119.127 -47.919 115.815 -47.919 Q114.599 -47.919 113.892 -48.765 Q113.185 -49.612 113.185 -50.611 V-61.588 H15.406 V10.614 Q15.406 11.483 15.964 12.041 Q16.522 12.599 17.39 12.599 H101.736 Q103.626 12.599 105.075 14.027 Q106.524 15.455 106.524 17.418 Q106.524 19.314 105.075 20.664 Q103.626 22.014 101.736 22.014 H17.39 Z M15.406 -71.003 H113.185 V-83.034 Q113.185 -83.84 112.596 -84.43 Q112.007 -85.019 111.2 -85.019 H17.39 Q16.522 -85.019 15.964 -84.43 Q15.406 -83.84 15.406 -83.034 V-71.003 Z"/></g><g id="Thin-L" transform="matrix(1 0 0 1 787.282 1556)"><path d="M118.742 -6.838 H101.501 Q100.12 -6.838 99.086 -7.912 Q98.052 -8.987 98.052 -10.429 Q98.052 -11.75 99.086 -12.823 Q100.12 -13.895 101.501 -13.895 H118.742 V-31.013 Q118.742 -32.394 119.784 -33.427 Q120.827 -34.461 122.22 -34.461 Q123.493 -34.461 124.646 -33.427 Q125.8 -32.394 125.8 -31.013 V-13.895 H142.756 Q144.205 -13.895 145.285 -12.79 Q146.365 -11.684 146.365 -10.302 Q146.365 -8.919 145.285 -7.878 Q144.205 -6.838 142.756 -6.838 H125.8 V10.243 Q125.8 11.781 124.65 12.816 Q123.5 13.852 122.096 13.852 Q120.76 13.852 119.751 12.816 Q118.742 11.781 118.742 10.243 V-6.838 Z M19.623 18.789 Q15.04 18.789 11.818 15.567 Q8.596 12.345 8.596 7.762 V-79.561 Q8.596 -83.945 11.818 -87.267 Q15.04 -90.588 19.623 -90.588 H107.107 Q111.491 -90.588 114.813 -87.267 Q118.134 -83.945 118.134 -79.561 V-51.963 Q118.134 -50.425 116.706 -49.389 Q115.278 -48.353 112.495 -48.353 Q111.808 -48.353 111.442 -48.861 Q111.076 -49.369 111.076 -49.867 V-62.953 H15.654 V7.762 Q15.654 9.498 16.77 10.615 Q17.886 11.731 19.623 11.731 H101.24 Q102.569 11.731 103.709 12.821 Q104.85 13.911 104.85 15.375 Q104.85 16.771 103.709 17.78 Q102.569 18.789 101.24 18.789 H19.623 Z M15.654 -70.01 H111.076 V-79.561 Q111.076 -81.174 109.898 -82.352 Q108.72 -83.531 107.107 -83.531 H19.623 Q17.886 -83.531 16.77 -82.352 Q15.654 -81.174 15.654 -79.561 V-70.01 Z"/></g><g id="Ultralight-L" transform="matrix(1 0 0 1 491.205 1556)"><path d="M119.002 -7.656 H101.426 Q100.346 -7.656 99.515 -8.528 Q98.685 -9.4 98.685 -10.542 Q98.685 -11.526 99.515 -12.413 Q100.346 -13.3 101.426 -13.3 H119.002 V-30.715 Q119.002 -31.795 119.842 -32.626 Q120.681 -33.456 121.775 -33.456 Q122.711 -33.456 123.679 -32.626 Q124.646 -31.795 124.646 -30.715 V-13.3 H141.9 Q143.049 -13.3 143.926 -12.379 Q144.803 -11.458 144.803 -10.393 Q144.803 -9.328 143.926 -8.492 Q143.049 -7.656 141.9 -7.656 H124.646 V9.759 Q124.646 10.996 123.681 11.829 Q122.716 12.661 121.629 12.661 Q120.611 12.661 119.807 11.829 Q119.002 10.996 119.002 9.759 V-7.656 Z M20.963 16.854 Q16.425 16.854 13.292 13.721 Q10.159 10.587 10.159 6.05 V-77.477 Q10.159 -81.787 13.292 -85.034 Q16.425 -88.281 20.963 -88.281 H104.651 Q108.961 -88.281 112.208 -85.034 Q115.455 -81.787 115.455 -77.477 V-51.516 Q115.455 -50.279 114.212 -49.446 Q112.968 -48.614 110.503 -48.614 Q110.134 -48.614 109.972 -48.918 Q109.811 -49.222 109.811 -49.42 V-63.771 H15.803 V6.05 Q15.803 8.308 17.254 9.759 Q18.705 11.21 20.963 11.21 H100.943 Q101.934 11.21 102.89 12.097 Q103.845 12.985 103.845 14.149 Q103.845 15.245 102.89 16.049 Q101.934 16.854 100.943 16.854 H20.963 Z M15.803 -69.415 H109.811 V-77.477 Q109.811 -79.574 108.279 -81.106 Q106.748 -82.637 104.651 -82.637 H20.963 Q18.705 -82.637 17.254 -81.106 Q15.803 -79.574 15.803 -77.477 V-69.415 Z"/></g><g id="Bold-M" transform="matrix(1 0 0 1 2281.8 1126)"><path d="M92.375 -7.605 H86.625 Q83.578 -7.605 81.352 -9.794 Q79.125 -11.983 79.125 -15.105 Q79.125 -18.227 81.352 -20.416 Q83.578 -22.605 86.625 -22.605 H92.375 V-28.355 Q92.375 -31.402 94.574 -33.628 Q96.773 -35.855 99.91 -35.855 Q103.047 -35.855 105.211 -33.628 Q107.375 -31.402 107.375 -28.355 V-22.605 H113.125 Q116.247 -22.605 118.436 -20.416 Q120.625 -18.227 120.625 -15.105 Q120.625 -11.983 118.436 -9.794 Q116.247 -7.605 113.125 -7.605 H107.375 V-1.855 Q107.375 1.267 105.201 3.456 Q103.027 5.645 99.928 5.645 Q96.828 5.645 94.602 3.456 Q92.375 1.267 92.375 -1.855 V-7.605 Z M16.25 15.52 Q9.109 15.52 4.18 10.59 Q-0.75 5.661 -0.75 -1.48 V-68.98 Q-0.75 -76.121 4.18 -81.05 Q9.109 -85.98 16.25 -85.98 H83.75 Q90.716 -85.98 95.733 -81.05 Q100.75 -76.121 100.75 -68.98 V-52.48 Q100.75 -48.855 98.125 -46.417 Q95.5 -43.98 91 -43.98 Q88 -43.98 85.875 -46.105 Q83.75 -48.23 83.75 -51.23 V-49.855 H16.25 V-1.48 Q16.25 -1.48 16.25 -1.48 Q16.25 -1.48 16.25 -1.48 H73.875 Q77.5 -1.48 79.938 0.958 Q82.375 3.395 82.375 6.958 Q82.375 10.52 79.938 13.02 Q77.5 15.52 73.875 15.52 H16.25 Z M16.25 -61.105 H83.75 V-68.98 Q83.75 -68.98 83.75 -68.98 Q83.75 -68.98 83.75 -68.98 H16.25 Q16.25 -68.98 16.25 -68.98 Q16.25 -68.98 16.25 -68.98 V-61.105 Z"/></g><g id="Semibold-M" transform="matrix(1 0 0 1 1985.97 1126)"><path d="M91.94 -7.877 H84.94 Q82.022 -7.877 79.922 -9.956 Q77.821 -12.036 77.821 -14.996 Q77.821 -17.956 79.922 -20.036 Q82.022 -22.116 84.94 -22.116 H91.94 V-29.116 Q91.94 -32.034 94.026 -34.134 Q96.111 -36.235 99.08 -36.235 Q102.048 -36.235 104.114 -34.134 Q106.179 -32.034 106.179 -29.116 V-22.116 H113.179 Q116.139 -22.116 118.219 -20.036 Q120.299 -17.956 120.299 -14.996 Q120.299 -12.036 118.219 -9.956 Q116.139 -7.877 113.179 -7.877 H106.179 V-0.877 Q106.179 2.083 104.108 4.163 Q102.037 6.243 99.09 6.243 Q96.142 6.243 94.041 4.163 Q91.94 2.083 91.94 -0.877 V-7.877 Z M15 14.705 Q8.588 14.705 4.109 10.226 Q-0.37 5.748 -0.37 -0.665 V-69.849 Q-0.37 -76.262 4.109 -80.74 Q8.588 -85.219 15 -85.219 H84.239 Q90.553 -85.219 95.081 -80.74 Q99.609 -76.262 99.609 -69.849 V-52.86 Q99.609 -49.616 97.12 -47.396 Q94.63 -45.176 89.859 -45.176 Q87.565 -45.176 85.902 -46.839 Q84.239 -48.502 84.239 -50.795 V-50.018 H15 V-0.665 Q15 -0.665 15 -0.665 Q15 -0.665 15 -0.665 H74.255 Q77.5 -0.665 79.72 1.555 Q81.94 3.775 81.94 6.985 Q81.94 10.194 79.72 12.449 Q77.5 14.705 74.255 14.705 H15 Z M15 -62.137 H84.239 V-69.849 Q84.239 -69.849 84.239 -69.849 Q84.239 -69.849 84.239 -69.849 H15 Q15 -69.849 15 -69.849 Q15 -69.849 15 -69.849 V-62.137 Z"/></g><g id="Medium-M" transform="matrix(1 0 0 1 1689.91 1126)"><path d="M91.614 -8.08 H83.677 Q80.856 -8.08 78.849 -10.078 Q76.842 -12.076 76.842 -14.915 Q76.842 -17.754 78.849 -19.751 Q80.856 -21.749 83.677 -21.749 H91.614 V-29.686 Q91.614 -32.507 93.614 -34.514 Q95.614 -36.521 98.457 -36.521 Q101.299 -36.521 103.291 -34.514 Q105.283 -32.507 105.283 -29.686 V-21.749 H113.22 Q116.059 -21.749 118.057 -19.751 Q120.054 -17.754 120.054 -14.915 Q120.054 -12.076 118.057 -10.078 Q116.059 -8.08 113.22 -8.08 H105.283 V-0.143 Q105.283 2.696 103.289 4.694 Q101.294 6.691 98.461 6.691 Q95.627 6.691 93.621 4.694 Q91.614 2.696 91.614 -0.143 V-8.08 Z M14.062 14.093 Q8.196 14.093 4.056 9.953 Q-0.084 5.813 -0.084 -0.053 V-70.502 Q-0.084 -76.368 4.056 -80.508 Q8.196 -84.648 14.062 -84.648 H84.606 Q90.43 -84.648 94.591 -80.508 Q98.753 -76.368 98.753 -70.502 V-53.146 Q98.753 -50.186 96.365 -48.129 Q93.978 -46.072 89.003 -46.072 Q87.239 -46.072 85.922 -47.389 Q84.606 -48.705 84.606 -50.469 V-50.14 H14.062 V-0.053 Q14.062 -0.053 14.062 -0.053 Q14.062 -0.053 14.062 -0.053 H74.541 Q77.5 -0.053 79.557 2.004 Q81.614 4.061 81.614 7.005 Q81.614 9.949 79.557 12.021 Q77.5 14.093 74.541 14.093 H14.062 Z M14.062 -62.912 H84.606 V-70.502 Q84.606 -70.502 84.606 -70.502 Q84.606 -70.502 84.606 -70.502 H14.062 Q14.062 -70.502 14.062 -70.502 Q14.062 -70.502 14.062 -70.502 V-62.912 Z"/></g><g id="Regular-M" transform="matrix(1 0 0 1 1394.06 1126)"><path d="M91.375 -8.23 H82.75 Q80 -8.23 78.062 -10.167 Q76.125 -12.105 76.125 -14.855 Q76.125 -17.605 78.062 -19.542 Q80 -21.48 82.75 -21.48 H91.375 V-30.105 Q91.375 -32.855 93.312 -34.792 Q95.25 -36.73 98 -36.73 Q100.75 -36.73 102.688 -34.792 Q104.625 -32.855 104.625 -30.105 V-21.48 H113.25 Q116 -21.48 117.938 -19.542 Q119.875 -17.605 119.875 -14.855 Q119.875 -12.105 117.938 -10.167 Q116 -8.23 113.25 -8.23 H104.625 V0.395 Q104.625 3.145 102.688 5.083 Q100.75 7.02 98 7.02 Q95.25 7.02 93.312 5.083 Q91.375 3.145 91.375 0.395 V-8.23 Z M13.375 13.645 Q7.909 13.645 4.017 9.753 Q0.125 5.861 0.125 0.395 V-70.98 Q0.125 -76.446 4.017 -80.338 Q7.909 -84.23 13.375 -84.23 H84.875 Q90.341 -84.23 94.233 -80.338 Q98.125 -76.446 98.125 -70.98 V-53.355 Q98.125 -50.605 95.812 -48.667 Q93.5 -46.73 88.375 -46.73 Q87 -46.73 85.938 -47.792 Q84.875 -48.855 84.875 -50.23 H13.375 V0.395 Q13.375 0.395 13.375 0.395 Q13.375 0.395 13.375 0.395 H74.75 Q77.5 0.395 79.438 2.333 Q81.375 4.27 81.375 7.02 Q81.375 9.77 79.438 11.708 Q77.5 13.645 74.75 13.645 H13.375 Z M13.375 -63.48 H84.875 V-70.98 Q84.875 -70.98 84.875 -70.98 Q84.875 -70.98 84.875 -70.98 H13.375 Q13.375 -70.98 13.375 -70.98 Q13.375 -70.98 13.375 -70.98 V-63.48 Z"/></g><g id="Light-M" transform="matrix(1 0 0 1 1098.18 1126)"><path d="M91.856 -9.769 H81.981 Q79.762 -9.769 78.184 -11.347 Q76.606 -12.926 76.606 -15.145 Q76.606 -17.365 78.184 -18.941 Q79.762 -20.518 81.981 -20.518 H91.856 V-30.393 Q91.856 -32.612 93.434 -34.19 Q95.013 -35.768 97.232 -35.768 Q99.452 -35.768 101.029 -34.19 Q102.606 -32.612 102.606 -30.393 V-20.518 H112.481 Q114.699 -20.518 116.278 -18.94 Q117.856 -17.361 117.856 -15.142 Q117.856 -12.922 116.278 -11.345 Q114.699 -9.769 112.481 -9.769 H102.606 V0.107 Q102.606 2.325 101.027 3.903 Q99.448 5.481 97.229 5.481 Q95.01 5.481 93.433 3.903 Q91.856 2.325 91.856 0.107 V-9.769 Z M14.433 11.145 Q9.304 11.145 5.724 7.565 Q2.144 3.986 2.144 -1.144 V-69.441 Q2.144 -74.57 5.724 -78.15 Q9.304 -81.73 14.433 -81.73 H82.856 Q87.985 -81.73 91.564 -78.15 Q95.144 -74.57 95.144 -69.441 V-52.105 Q95.144 -49.886 93.19 -48.308 Q91.237 -46.73 86.642 -46.73 Q85.798 -46.73 85.096 -47.433 Q84.394 -48.136 84.394 -48.98 V-51.769 H12.894 V-1.144 Q12.894 -0.47 13.327 -0.038 Q13.76 0.395 14.433 0.395 H75.519 Q77.738 0.395 79.316 1.974 Q80.894 3.552 80.894 5.772 Q80.894 7.991 79.316 9.568 Q77.738 11.145 75.519 11.145 H14.433 Z M12.894 -62.518 H84.394 V-69.441 Q84.394 -70.114 83.962 -70.547 Q83.529 -70.98 82.856 -70.98 H14.433 Q13.76 -70.98 13.327 -70.547 Q12.894 -70.114 12.894 -69.441 V-62.518 Z"/></g><g id="Thin-M" transform="matrix(1 0 0 1 802.565 1126)"><path d="M92.337 -11.307 H81.212 Q79.524 -11.307 78.305 -12.527 Q77.087 -13.746 77.087 -15.435 Q77.087 -17.124 78.305 -18.341 Q79.524 -19.557 81.212 -19.557 H92.337 V-30.682 Q92.337 -32.369 93.556 -33.588 Q94.776 -34.807 96.465 -34.807 Q98.154 -34.807 99.37 -33.588 Q100.587 -32.369 100.587 -30.682 V-19.557 H111.712 Q113.399 -19.557 114.618 -18.337 Q115.837 -17.117 115.837 -15.428 Q115.837 -13.74 114.618 -12.523 Q113.399 -11.307 111.712 -11.307 H100.587 V-0.182 Q100.587 1.506 99.367 2.724 Q98.147 3.943 96.458 3.943 Q94.769 3.943 93.553 2.724 Q92.337 1.506 92.337 -0.182 V-11.307 Z M15.49 8.645 Q10.698 8.645 7.431 5.378 Q4.163 2.111 4.163 -2.682 V-67.903 Q4.163 -72.696 7.431 -75.963 Q10.698 -79.23 15.49 -79.23 H80.837 Q85.629 -79.23 88.896 -75.963 Q92.163 -72.696 92.163 -67.903 V-50.855 Q92.163 -49.167 90.569 -47.949 Q88.974 -46.73 84.91 -46.73 Q84.596 -46.73 84.255 -47.074 Q83.913 -47.417 83.913 -47.73 V-53.307 H12.414 V-2.682 Q12.414 -1.336 13.279 -0.47 Q14.144 0.395 15.49 0.395 H76.288 Q77.976 0.395 79.195 1.615 Q80.413 2.835 80.413 4.523 Q80.413 6.212 79.195 7.429 Q77.976 8.645 76.288 8.645 H15.49 Z M12.414 -61.557 H83.913 V-67.903 Q83.913 -69.249 83.048 -70.115 Q82.183 -70.98 80.837 -70.98 H15.49 Q14.144 -70.98 13.279 -70.115 Q12.414 -69.249 12.414 -67.903 V-61.557 Z"/></g><g id="Ultralight-M" transform="matrix(1 0 0 1 506.415 1126)"><path d="M92.625 -12.23 H80.75 Q79.381 -12.23 78.378 -13.234 Q77.375 -14.239 77.375 -15.609 Q77.375 -16.98 78.378 -17.98 Q79.381 -18.98 80.75 -18.98 H92.625 V-30.855 Q92.625 -32.224 93.629 -33.227 Q94.634 -34.23 96.004 -34.23 Q97.375 -34.23 98.375 -33.227 Q99.375 -32.224 99.375 -30.855 V-18.98 H111.25 Q112.619 -18.98 113.622 -17.976 Q114.625 -16.971 114.625 -15.601 Q114.625 -14.23 113.622 -13.23 Q112.619 -12.23 111.25 -12.23 H99.375 V-0.355 Q99.375 1.014 98.371 2.017 Q97.366 3.02 95.996 3.02 Q94.625 3.02 93.625 2.017 Q92.625 1.014 92.625 -0.355 V-12.23 Z M16.125 7.145 Q11.534 7.145 8.455 4.065 Q5.375 0.986 5.375 -3.605 V-66.98 Q5.375 -71.571 8.455 -74.65 Q11.534 -77.73 16.125 -77.73 H79.625 Q84.216 -77.73 87.295 -74.65 Q90.375 -71.571 90.375 -66.98 V-50.105 Q90.375 -48.736 88.996 -47.733 Q87.616 -46.73 83.871 -46.73 Q83.875 -46.73 83.75 -46.858 Q83.625 -46.986 83.625 -46.98 V-54.23 H12.125 V-3.605 Q12.125 -1.855 13.25 -0.73 Q14.375 0.395 16.125 0.395 H76.75 Q78.119 0.395 79.122 1.399 Q80.125 2.404 80.125 3.774 Q80.125 5.145 79.122 6.145 Q78.119 7.145 76.75 7.145 H16.125 Z M12.125 -60.98 H83.625 V-66.98 Q83.625 -68.73 82.5 -69.855 Q81.375 -70.98 79.625 -70.98 H16.125 Q14.375 -70.98 13.25 -69.855 Q12.125 -68.73 12.125 -66.98 V-60.98 Z"/></g><g id="Bold-S" transform="matrix(1 0 0 1 2294.23 696)"><path d="M72.884 -14.223 H70.32 Q68.083 -14.223 66.44 -15.831 Q64.797 -17.438 64.797 -19.725 Q64.797 -22.012 66.44 -23.64 Q68.083 -25.269 70.32 -25.269 H72.884 V-27.833 Q72.884 -30.069 74.5 -31.713 Q76.115 -33.356 78.414 -33.356 Q80.712 -33.356 82.321 -31.713 Q83.93 -30.069 83.93 -27.833 V-25.269 H86.494 Q88.79 -25.269 90.403 -23.661 Q92.017 -22.053 92.017 -19.767 Q92.017 -17.48 90.403 -15.851 Q88.79 -14.223 86.494 -14.223 H83.93 V-11.659 Q83.93 -9.363 82.334 -7.749 Q80.738 -6.136 78.469 -6.136 Q76.2 -6.136 74.542 -7.749 Q72.884 -9.363 72.884 -11.659 V-14.223 Z M17.555 2.445 Q12.316 2.445 8.624 -1.248 Q4.931 -4.94 4.931 -10.179 V-60.281 Q4.931 -65.589 8.624 -69.247 Q12.316 -72.905 17.555 -72.905 H67.657 Q72.827 -72.905 76.554 -69.247 Q80.281 -65.589 80.281 -60.281 V-45.29 Q80.281 -42.597 78.329 -40.788 Q76.377 -38.978 73.003 -38.978 Q70.813 -38.978 69.235 -40.541 Q67.657 -42.104 67.657 -44.303 V-45.191 H17.555 V-10.179 Q17.555 -10.179 17.555 -10.179 Q17.555 -10.179 17.555 -10.179 H60.063 Q62.755 -10.179 64.565 -8.375 Q66.375 -6.572 66.375 -3.937 Q66.375 -1.303 64.565 0.571 Q62.755 2.445 60.063 2.445 H17.555 Z M17.555 -53.278 H67.657 V-60.281 Q67.657 -60.281 67.657 -60.281 Q67.657 -60.281 67.657 -60.281 H17.555 Q17.555 -60.281 17.555 -60.281 Q17.555 -60.281 17.555 -60.281 V-53.278 Z"/></g><g id="Semibold-S" transform="matrix(1 0 0 1 1998.1 696)"><path d="M72.541 -14.437 H68.99 Q66.856 -14.437 65.312 -15.959 Q63.768 -17.48 63.768 -19.639 Q63.768 -21.798 65.312 -23.341 Q66.856 -24.883 68.99 -24.883 H72.541 V-28.433 Q72.541 -30.568 74.067 -32.112 Q75.593 -33.656 77.759 -33.656 Q79.924 -33.656 81.455 -32.112 Q82.987 -30.568 82.987 -28.433 V-24.883 H86.537 Q88.705 -24.883 90.232 -23.361 Q91.76 -21.84 91.76 -19.681 Q91.76 -17.522 90.232 -15.979 Q88.705 -14.437 86.537 -14.437 H82.987 V-10.887 Q82.987 -8.719 81.472 -7.191 Q79.957 -5.664 77.808 -5.664 Q75.659 -5.664 74.1 -7.191 Q72.541 -8.719 72.541 -10.887 V-14.437 Z M16.569 1.802 Q11.904 1.802 8.568 -1.535 Q5.231 -4.871 5.231 -9.536 V-60.967 Q5.231 -65.701 8.568 -69.003 Q11.904 -72.304 16.569 -72.304 H68.043 Q72.699 -72.304 76.039 -69.003 Q79.38 -65.701 79.38 -60.967 V-45.59 Q79.38 -43.198 77.536 -41.559 Q75.691 -39.921 72.103 -39.921 Q70.47 -39.921 69.256 -41.12 Q68.043 -42.319 68.043 -43.96 V-45.32 H16.569 V-9.536 Q16.569 -9.536 16.569 -9.536 Q16.569 -9.536 16.569 -9.536 H60.363 Q62.755 -9.536 64.393 -7.904 Q66.032 -6.272 66.032 -3.916 Q66.032 -1.56 64.393 0.121 Q62.755 1.802 60.363 1.802 H16.569 Z M16.569 -54.093 H68.043 V-60.967 Q68.043 -60.967 68.043 -60.967 Q68.043 -60.967 68.043 -60.967 H16.569 Q16.569 -60.967 16.569 -60.967 Q16.569 -60.967 16.569 -60.967 V-54.093 Z"/></g><g id="Medium-S" transform="matrix(1 0 0 1 1701.85 696)"><path d="M72.284 -14.598 H67.993 Q65.935 -14.598 64.465 -16.055 Q62.996 -17.512 62.996 -19.575 Q62.996 -21.638 64.465 -23.116 Q65.935 -24.593 67.993 -24.593 H72.284 V-28.884 Q72.284 -30.942 73.742 -32.412 Q75.201 -33.881 77.267 -33.881 Q79.333 -33.881 80.806 -32.412 Q82.279 -30.942 82.279 -28.884 V-24.593 H86.569 Q88.641 -24.593 90.104 -23.137 Q91.567 -21.68 91.567 -19.617 Q91.567 -17.553 90.104 -16.076 Q88.641 -14.598 86.569 -14.598 H82.279 V-10.308 Q82.279 -8.236 80.825 -6.773 Q79.371 -5.31 77.312 -5.31 Q75.253 -5.31 73.768 -6.773 Q72.284 -8.236 72.284 -10.308 V-14.598 Z M15.829 1.319 Q11.595 1.319 8.526 -1.75 Q5.457 -4.82 5.457 -9.054 V-61.481 Q5.457 -65.784 8.526 -68.819 Q11.595 -71.854 15.829 -71.854 H68.332 Q72.602 -71.854 75.653 -68.819 Q78.705 -65.784 78.705 -61.481 V-45.815 Q78.705 -43.648 76.941 -42.138 Q75.177 -40.629 71.427 -40.629 Q70.212 -40.629 69.272 -41.554 Q68.332 -42.479 68.332 -43.703 V-45.416 H15.829 V-9.054 Q15.829 -9.054 15.829 -9.054 Q15.829 -9.054 15.829 -9.054 H60.588 Q62.755 -9.054 64.265 -7.55 Q65.774 -6.046 65.774 -3.9 Q65.774 -1.753 64.265 -0.217 Q62.755 1.319 60.588 1.319 H15.829 Z M15.829 -54.704 H68.332 V-61.481 Q68.332 -61.481 68.332 -61.481 Q68.332 -61.481 68.332 -61.481 H15.829 Q15.829 -61.481 15.829 -61.481 Q15.829 -61.481 15.829 -61.481 V-54.704 Z"/></g><g id="Regular-S" transform="matrix(1 0 0 1 1405.73 696)"><path d="M72.095 -14.716 H67.262 Q65.26 -14.716 63.845 -16.125 Q62.43 -17.535 62.43 -19.528 Q62.43 -21.521 63.845 -22.951 Q65.26 -24.381 67.262 -24.381 H72.095 V-29.214 Q72.095 -31.216 73.504 -32.631 Q74.913 -34.046 76.907 -34.046 Q78.9 -34.046 80.33 -32.631 Q81.76 -31.216 81.76 -29.214 V-24.381 H86.593 Q88.595 -24.381 90.01 -22.972 Q91.425 -21.563 91.425 -19.569 Q91.425 -17.576 90.01 -16.146 Q88.595 -14.716 86.593 -14.716 H81.76 V-9.883 Q81.76 -7.881 80.351 -6.466 Q78.942 -5.051 76.948 -5.051 Q74.955 -5.051 73.525 -6.466 Q72.095 -7.881 72.095 -9.883 V-14.716 Z M15.287 0.965 Q11.369 0.965 8.495 -1.908 Q5.622 -4.782 5.622 -8.7 V-61.859 Q5.622 -65.846 8.495 -68.685 Q11.369 -71.524 15.287 -71.524 H68.544 Q72.531 -71.524 75.371 -68.685 Q78.21 -65.846 78.21 -61.859 V-45.98 Q78.21 -43.978 76.504 -42.563 Q74.799 -41.147 70.932 -41.147 Q70.024 -41.147 69.284 -41.872 Q68.544 -42.597 68.544 -43.514 V-45.487 H15.287 V-8.7 Q15.287 -8.7 15.287 -8.7 Q15.287 -8.7 15.287 -8.7 H60.753 Q62.755 -8.7 64.17 -7.291 Q65.586 -5.881 65.586 -3.888 Q65.586 -1.895 64.17 -0.465 Q62.755 0.965 60.753 0.965 H15.287 Z M15.287 -55.152 H68.544 V-61.859 Q68.544 -61.859 68.544 -61.859 Q68.544 -61.859 68.544 -61.859 H15.287 Q15.287 -61.859 15.287 -61.859 Q15.287 -61.859 15.287 -61.859 V-55.152 Z"/></g><g id="Light-S" transform="matrix(1 0 0 1 1109.75 696)"><path d="M72.474 -15.93 H66.655 Q65.072 -15.93 63.941 -17.056 Q62.809 -18.182 62.809 -19.757 Q62.809 -21.331 63.941 -22.477 Q65.072 -23.623 66.655 -23.623 H72.474 V-29.442 Q72.474 -31.024 73.6 -32.156 Q74.726 -33.288 76.301 -33.288 Q77.876 -33.288 79.021 -32.156 Q80.167 -31.024 80.167 -29.442 V-23.623 H85.986 Q87.569 -23.623 88.7 -22.496 Q89.832 -21.37 89.832 -19.796 Q89.832 -18.221 88.7 -17.076 Q87.569 -15.93 85.986 -15.93 H80.167 V-10.111 Q80.167 -8.528 79.041 -7.396 Q77.915 -6.265 76.34 -6.265 Q74.765 -6.265 73.62 -7.396 Q72.474 -8.528 72.474 -10.111 V-15.93 Z M16.121 -1.007 Q12.469 -1.007 9.842 -3.634 Q7.215 -6.261 7.215 -9.914 V-60.645 Q7.215 -64.366 9.842 -66.959 Q12.469 -69.551 16.121 -69.551 H66.951 Q70.672 -69.551 73.265 -66.959 Q75.858 -64.366 75.858 -60.645 V-44.994 Q75.858 -43.411 74.436 -42.279 Q73.014 -41.147 69.565 -41.147 Q69.075 -41.147 68.62 -41.589 Q68.165 -42.03 68.165 -42.528 V-46.701 H14.908 V-9.914 Q14.908 -9.383 15.249 -9.041 Q15.59 -8.7 16.121 -8.7 H61.36 Q62.943 -8.7 64.075 -7.574 Q65.206 -6.448 65.206 -4.873 Q65.206 -3.298 64.075 -2.153 Q62.943 -1.007 61.36 -1.007 H16.121 Z M14.908 -54.394 H68.165 V-60.645 Q68.165 -61.176 67.824 -61.517 Q67.482 -61.859 66.951 -61.859 H16.121 Q15.59 -61.859 15.249 -61.517 Q14.908 -61.176 14.908 -60.645 V-54.394 Z"/></g><g id="Thin-S" transform="matrix(1 0 0 1 814.015 696)"><path d="M72.853 -17.144 H66.048 Q64.885 -17.144 64.036 -17.987 Q63.188 -18.83 63.188 -19.986 Q63.188 -21.142 64.036 -22.003 Q64.885 -22.864 66.048 -22.864 H72.853 V-29.669 Q72.853 -30.833 73.697 -31.681 Q74.539 -32.529 75.696 -32.529 Q76.852 -32.529 77.713 -31.681 Q78.574 -30.833 78.574 -29.669 V-22.864 H85.379 Q86.543 -22.864 87.391 -22.021 Q88.239 -21.178 88.239 -20.022 Q88.239 -18.866 87.391 -18.005 Q86.543 -17.144 85.379 -17.144 H78.574 V-10.339 Q78.574 -9.175 77.731 -8.327 Q76.888 -7.478 75.732 -7.478 Q74.576 -7.478 73.715 -8.327 Q72.853 -9.175 72.853 -10.339 V-17.144 Z M16.956 -2.98 Q13.569 -2.98 11.189 -5.36 Q8.808 -7.741 8.808 -11.128 V-59.431 Q8.808 -62.887 11.189 -65.233 Q13.569 -67.579 16.956 -67.579 H65.358 Q68.814 -67.579 71.16 -65.233 Q73.506 -62.887 73.506 -59.431 V-44.008 Q73.506 -42.844 72.367 -41.996 Q71.228 -41.147 68.198 -41.147 Q68.127 -41.147 67.956 -41.305 Q67.786 -41.463 67.786 -41.542 V-47.915 H14.528 V-11.128 Q14.528 -10.065 15.211 -9.383 Q15.894 -8.7 16.956 -8.7 H61.967 Q63.131 -8.7 63.979 -7.857 Q64.827 -7.014 64.827 -5.858 Q64.827 -4.702 63.979 -3.841 Q63.131 -2.98 61.967 -2.98 H16.956 Z M14.528 -53.635 H67.786 V-59.431 Q67.786 -60.493 67.103 -61.176 Q66.42 -61.859 65.358 -61.859 H16.956 Q15.894 -61.859 15.211 -61.176 Q14.528 -60.493 14.528 -59.431 V-53.635 Z"/></g><g id="Ultralight-S" transform="matrix(1 0 0 1 517.792 696)"><path d="M73.081 -17.872 H65.684 Q64.772 -17.872 64.094 -18.545 Q63.416 -19.218 63.416 -20.123 Q63.416 -21.028 64.094 -21.718 Q64.772 -22.409 65.684 -22.409 H73.081 V-29.806 Q73.081 -30.718 73.754 -31.396 Q74.427 -32.074 75.332 -32.074 Q76.237 -32.074 76.928 -31.396 Q77.618 -30.718 77.618 -29.806 V-22.409 H85.015 Q85.927 -22.409 86.605 -21.736 Q87.283 -21.063 87.283 -20.158 Q87.283 -19.253 86.605 -18.562 Q85.927 -17.872 85.015 -17.872 H77.618 V-10.475 Q77.618 -9.563 76.945 -8.885 Q76.272 -8.207 75.367 -8.207 Q74.462 -8.207 73.772 -8.885 Q73.081 -9.563 73.081 -10.475 V-17.872 Z M17.457 -4.163 Q14.229 -4.163 11.996 -6.396 Q9.764 -8.628 9.764 -11.856 V-58.703 Q9.764 -61.999 11.996 -64.197 Q14.229 -66.395 17.457 -66.395 H64.402 Q67.699 -66.395 69.897 -64.197 Q72.095 -61.999 72.095 -58.703 V-43.416 Q72.095 -42.504 71.126 -41.826 Q70.157 -41.147 67.378 -41.147 Q67.558 -41.147 67.558 -41.135 Q67.558 -41.123 67.558 -40.95 V-48.643 H14.301 V-11.856 Q14.301 -10.475 15.188 -9.587 Q16.076 -8.7 17.457 -8.7 H62.331 Q63.243 -8.7 63.921 -8.027 Q64.599 -7.354 64.599 -6.449 Q64.599 -5.544 63.921 -4.853 Q63.243 -4.163 62.331 -4.163 H17.457 Z M14.301 -53.18 H67.558 V-58.703 Q67.558 -60.083 66.671 -60.971 Q65.783 -61.859 64.402 -61.859 H17.457 Q16.076 -61.859 15.188 -60.971 Q14.301 -60.083 14.301 -58.703 V-53.18 Z"/></g></g></svg>