<svg xmlns="http://www.w3.org/2000/svg" version="1.1" width="3300" height="2000"><g id="Notes"><style>
    text {
      font-family: monospace;
      text-anchor: middle;
    }
    text.emphasis {
      font-weight:bold;
    }
    text.lanchor {
      text-anchor: start;
    }
  </style><rect height="2200" id="artboard" fill="white" width="3300" x="0" y="0"/><line id="" style="fill:none;stroke:black;stroke-width:0.5;" x1="263" x2="3036" y1="292" y2="292"/><text class="lanchor emphasis" transform="matrix(1 0 0 1 263 322)">Weight/Scale Variations</text><text transform="matrix(1 0 0 1 559.711 322)">Ultralight</text><text transform="matrix(1 0 0 1 856.422 322)">Thin</text><text transform="matrix(1 0 0 1 1153.13 322)">Light</text><text transform="matrix(1 0 0 1 1449.84 322)">Regular</text><text transform="matrix(1 0 0 1 1746.56 322)">Medium</text><text transform="matrix(1 0 0 1 2043.27 322)">Semibold</text><text transform="matrix(1 0 0 1 2339.98 322)">Bold</text><text transform="matrix(1 0 0 1 2636.69 322)">Heavy</text><text transform="matrix(1 0 0 1 2933.4 322)">Black</text><text id="template-version" style="text-anchor: end;" transform="matrix(1 0 0 1 3036 1933)">Template v.1.0</text><text class="lanchor" transform="matrix(1 0 0 1 263 726)">Small</text><text class="lanchor" transform="matrix(1 0 0 1 263 1156)">Medium</text><text class="lanchor" transform="matrix(1 0 0 1 263 1586)">Large</text></g><g id="Guides"><g id="H-reference" style="fill:#27AAE1;stroke:none;" transform="matrix(1 0 0 1 339 696)"><path d="M 54.9316 0 L 57.666 0 L 30.5664 -70.459 L 28.0762 -70.459 L 0.976562 0 L 3.66211 0 L 12.9395 -24.4629 L 45.7031 -24.4629 Z M 29.1992 -67.0898 L 29.4434 -67.0898 L 44.8242 -26.709 L 13.8184 -26.709 Z"/></g><line id="Baseline-S" style="fill:none;stroke:#27AAE1;opacity:1;stroke-width:0.577;" x1="263" x2="3036" y1="696" y2="696"/><line id="Capline-S" style="fill:none;stroke:#27AAE1;opacity:1;stroke-width:0.577;" x1="263" x2="3036" y1="625.541" y2="625.541"/><g id="H-reference" style="fill:#27AAE1;stroke:none;" transform="matrix(1 0 0 1 339 1126)"><path d="M 54.9316 0 L 57.666 0 L 30.5664 -70.459 L 28.0762 -70.459 L 0.976562 0 L 3.66211 0 L 12.9395 -24.4629 L 45.7031 -24.4629 Z M 29.1992 -67.0898 L 29.4434 -67.0898 L 44.8242 -26.709 L 13.8184 -26.709 Z"/></g><line id="Baseline-M" style="fill:none;stroke:#27AAE1;opacity:1;stroke-width:0.577;" x1="263" x2="3036" y1="1126" y2="1126"/><line id="Capline-M" style="fill:none;stroke:#27AAE1;opacity:1;stroke-width:0.577;" x1="263" x2="3036" y1="1055.54" y2="1055.54"/><g id="H-reference" style="fill:#27AAE1;stroke:none;" transform="matrix(1 0 0 1 339 1556)"><path d="M 54.9316 0 L 57.666 0 L 30.5664 -70.459 L 28.0762 -70.459 L 0.976562 0 L 3.66211 0 L 12.9395 -24.4629 L 45.7031 -24.4629 Z M 29.1992 -67.0898 L 29.4434 -67.0898 L 44.8242 -26.709 L 13.8184 -26.709 Z"/></g><line id="Baseline-L" style="fill:none;stroke:#27AAE1;opacity:1;stroke-width:0.577;" x1="263" x2="3036" y1="1556" y2="1556"/><line id="Capline-L" style="fill:none;stroke:#27AAE1;opacity:1;stroke-width:0.577;" x1="263" x2="3036" y1="1485.54" y2="1485.54"/><rect height="119.336" id="left-margin" style="fill:darkred;stroke:none;opacity:0.4;" width="12.4512" x="1394.06" y="1030.79"/><rect height="119.336" id="right-margin" style="fill:darkgreen;stroke:none;opacity:0.4;" width="12.4512" x="1502.5112" y="1030.79"/><rect x="1406.5112" y="1045" width="96" height="96" fill="none" stroke="blue" stroke-dasharray="5"/><rect x="1394.06" y="1030.79" width="120.9024" height="119.336" fill="none" stroke="blue"/></g><g id="Symbols"><g id="Bold-L" transform="matrix(1 0 0 1 2266 1556)"><path d="M136.901 36.204  4.999 -97.795 Q3.386 -99.569 3.306 -101.746 Q3.225 -103.922 4.999 -105.696 Q6.772 -107.631 9.111 -107.631 Q11.449 -107.631 13.223 -105.696 L144.964 28.141 Q146.738 29.915 146.657 32.173 Q146.576 34.43 144.803 36.204 Q143.029 37.978 140.771 37.978 Q138.514 37.978 136.901 36.204 Z M28.541 -81.992  43.699 -66.674 V9.759 H112.391 L126.097 23.626 V24.433 Q126.259 30.721 121.744 35.075 Q117.229 39.429 110.94 39.429 H43.699 Q37.41 39.429 32.976 34.994 Q28.541 30.56 28.541 24.271 V-81.992 Z M111.101 -34.101 V-80.219 H58.211 Q55.148 -80.219 52.326 -81.347 Q49.504 -82.476 47.246 -84.734 L38.7 -93.764 Q34.024 -98.44 36.201 -104.164 Q38.377 -109.889 44.344 -109.889 H111.101 Q117.39 -109.889 121.824 -105.454 Q126.259 -101.02 126.259 -94.731 V-34.101 Q126.259 -30.876 124.082 -28.699 Q121.905 -26.522 118.68 -26.522 Q115.455 -26.522 113.278 -28.699 Q111.101 -30.876 111.101 -34.101 Z"/></g><g id="Semibold-L" transform="matrix(1 0 0 1 1970.27 1556)"><path d="M135.499 35.363  6.261 -96.042 Q4.788 -97.676 4.708 -99.748 Q4.627 -101.819 6.261 -103.453 Q7.894 -105.178 10.057 -105.178 Q12.22 -105.178 13.853 -103.453 L143.071 27.861 Q144.704 29.494 144.624 31.612 Q144.543 33.729 142.91 35.363 Q141.276 36.996 139.159 36.996 Q137.042 36.996 135.499 35.363 Z M30.154 -79.328  42.928 -66.393 V10.53 H112.111 L124.485 23.065 V25.134 Q124.646 30.441 120.832 34.129 Q117.018 37.816 111.711 37.816 H42.928 Q37.62 37.816 33.887 34.083 Q30.154 30.35 30.154 25.042 V-79.328 Z M111.872 -27.652 V-80.99 H54.846 Q52.273 -80.99 49.872 -81.943 Q47.471 -82.897 45.634 -84.804 L37.368 -93.483 Q33.183 -97.739 35.359 -103.008 Q37.536 -108.276 43.292 -108.276 H111.872 Q117.18 -108.276 120.913 -104.508 Q124.646 -100.74 124.646 -95.502 V-27.652 Q124.646 -24.917 122.82 -23.091 Q120.994 -21.265 118.259 -21.265 Q115.525 -21.265 113.699 -23.091 Q111.872 -24.917 111.872 -27.652 Z"/></g><g id="Medium-L" transform="matrix(1 0 0 1 1674.31 1556)"><path d="M134.448 34.732  7.207 -94.728 Q5.84 -96.256 5.759 -98.249 Q5.679 -100.242 7.207 -101.77 Q8.736 -103.337 10.767 -103.337 Q12.798 -103.337 14.327 -101.77 L141.651 27.651 Q143.18 29.179 143.099 31.191 Q143.018 33.203 141.49 34.732 Q139.961 36.26 137.949 36.26 Q135.937 36.26 134.448 34.732 Z M31.363 -77.33  42.349 -66.183 V11.108 H111.901 L123.276 22.645 V25.659 Q123.437 30.231 120.149 33.419 Q116.861 36.607 112.29 36.607 H42.349 Q37.778 36.607 34.571 33.399 Q31.363 30.192 31.363 25.621 V-77.33 Z M112.451 -22.814 V-81.568 H52.322 Q50.117 -81.568 48.032 -82.39 Q45.946 -83.212 44.424 -84.856 L36.369 -93.273 Q32.552 -97.213 34.728 -102.14 Q36.905 -107.067 42.503 -107.067 H112.451 Q117.022 -107.067 120.229 -103.798 Q123.437 -100.529 123.437 -96.081 V-22.814 Q123.437 -20.448 121.873 -18.884 Q120.31 -17.321 117.944 -17.321 Q115.578 -17.321 114.014 -18.884 Q112.451 -20.448 112.451 -22.814 Z"/></g><g id="Regular-L" transform="matrix(1 0 0 1 1378.56 1556)"><path d="M133.676 34.269  7.901 -93.764 Q6.611 -95.215 6.531 -97.15 Q6.45 -99.085 7.901 -100.536 Q9.353 -101.987 11.287 -101.987 Q13.223 -101.987 14.674 -100.536 L140.61 27.496 Q142.061 28.948 141.981 30.883 Q141.9 32.818 140.449 34.269 Q138.998 35.72 137.062 35.72 Q135.127 35.72 133.676 34.269 Z M32.25 -75.865  41.925 -66.029 V11.533 H111.746 L122.389 22.336 V26.045 Q122.55 30.076 119.648 32.898 Q116.745 35.72 112.714 35.72 H41.925 Q37.894 35.72 35.072 32.898 Q32.25 30.076 32.25 26.045 V-75.865 Z M112.875 -19.266 V-81.992 H50.471 Q48.536 -81.992 46.682 -82.718 Q44.828 -83.444 43.538 -84.895 L35.636 -93.119 Q32.089 -96.827 34.266 -101.504 Q36.443 -106.18 41.925 -106.18 H112.875 Q116.906 -106.18 119.728 -103.277 Q122.55 -100.375 122.55 -96.505 V-19.266 Q122.55 -17.17 121.179 -15.799 Q119.809 -14.429 117.713 -14.429 Q115.616 -14.429 114.246 -15.799 Q112.875 -17.17 112.875 -19.266 Z"/></g><g id="Light-L" transform="matrix(1 0 0 1 1082.77 1556)"><path d="M134.296 33.338  8.087 -94.508 Q7.107 -95.587 7.027 -97.057 Q6.946 -98.527 8.087 -99.668 Q9.228 -100.809 10.667 -100.809 Q12.106 -100.809 13.247 -99.668 L139.556 28.178 Q140.635 29.258 140.616 30.727 Q140.597 32.197 139.456 33.338 Q138.315 34.48 136.876 34.48 Q135.438 34.48 134.296 33.338 Z M35.475 -72.082  42.793 -64.602 V10.974 H111.56 L119.226 18.739 V23.192 Q119.325 27.037 116.546 29.766 Q113.768 32.495 109.923 32.495 H44.778 Q40.933 32.495 38.204 29.766 Q35.475 27.037 35.475 23.192 V-72.082 Z M112.007 -19.576 V-81.434 H46.75 Q44.815 -81.434 43.209 -82.377 Q41.602 -83.32 40.87 -84.957 L36.815 -91.568 Q34.632 -95.277 37.088 -99.116 Q39.544 -102.955 44.778 -102.955 H110.022 Q113.929 -102.955 116.627 -100.207 Q119.325 -97.46 119.325 -93.652 V-19.576 Q119.325 -17.976 118.295 -16.947 Q117.266 -15.917 115.666 -15.917 Q114.066 -15.917 113.036 -16.947 Q112.007 -17.976 112.007 -19.576 Z"/></g><g id="Thin-L" transform="matrix(1 0 0 1 787.282 1556)"><path d="M134.917 32.408  8.273 -95.252 Q7.604 -95.959 7.523 -96.964 Q7.442 -97.969 8.273 -98.8 Q9.104 -99.631 10.047 -99.631 Q10.99 -99.631 11.821 -98.8 L138.501 28.861 Q139.208 29.568 139.252 30.572 Q139.295 31.577 138.464 32.408 Q137.633 33.239 136.69 33.239 Q135.748 33.239 134.917 32.408 Z M38.7 -68.299  43.662 -63.176 V10.416 H111.374 L116.063 15.142 V20.339 Q116.1 23.998 113.446 26.634 Q110.791 29.27 107.132 29.27 H47.631 Q43.972 29.27 41.336 26.634 Q38.7 23.998 38.7 20.339 V-68.299 Z M111.138 -19.886 V-80.876 H43.029 Q41.094 -80.876 39.736 -82.036 Q38.377 -83.196 38.204 -85.019 L37.993 -90.018 Q37.174 -93.727 39.909 -96.728 Q42.644 -99.73 47.631 -99.73 H107.169 Q110.952 -99.73 113.526 -97.138 Q116.1 -94.545 116.1 -90.799 V-19.886 Q116.1 -18.782 115.412 -18.094 Q114.723 -17.406 113.619 -17.406 Q112.515 -17.406 111.827 -18.094 Q111.138 -18.782 111.138 -19.886 Z"/></g><g id="Ultralight-L" transform="matrix(1 0 0 1 491.205 1556)"><path d="M135.289 31.85  8.385 -95.699 Q7.901 -96.182 7.821 -96.908 Q7.74 -97.634 8.385 -98.279 Q9.03 -98.924 9.675 -98.924 Q10.32 -98.924 10.965 -98.279 L137.869 29.27 Q138.352 29.754 138.433 30.479 Q138.514 31.205 137.869 31.85 Q137.224 32.495 136.579 32.495 Q135.934 32.495 135.289 31.85 Z M40.635 -66.029  44.183 -62.32 V10.081 H111.263 L114.165 12.984 V18.628 Q114.165 22.175 111.585 24.755 Q109.005 27.335 105.457 27.335 H49.343 Q45.795 27.335 43.215 24.755 Q40.635 22.175 40.635 18.628 V-66.029 Z M110.618 -20.072 V-80.541 H40.796 Q38.861 -80.541 37.652 -81.831 Q36.443 -83.121 36.604 -85.056 L38.7 -89.087 Q38.7 -92.796 41.602 -95.296 Q44.505 -97.795 49.343 -97.795 H105.457 Q109.166 -97.795 111.666 -95.296 Q114.165 -92.796 114.165 -89.087 V-20.072 Q114.165 -19.266 113.681 -18.782 Q113.198 -18.299 112.391 -18.299 Q111.585 -18.299 111.101 -18.782 Q110.618 -19.266 110.618 -20.072 Z"/></g><g id="Bold-M" transform="matrix(1 0 0 1 2281.8 1126)"><path d="M102.25 19.77  4 -78.355 Q2.25 -80.105 2.25 -82.48 Q2.25 -84.855 4 -86.605 Q5.75 -88.355 8.25 -88.355 Q10.75 -88.355 12.5 -86.605 L110.5 11.52 Q112.25 13.27 112.25 15.645 Q112.25 18.02 110.5 19.77 Q108.75 21.52 106.375 21.52 Q104 21.52 102.25 19.77 Z M21.125 -69.48  36.875 -53.73 V-7.105 H83.625 L98.875 8.145 Q98.875 14.645 94.25 19.145 Q89.625 23.645 83.125 23.645 H36.875 Q30.25 23.645 25.688 19.083 Q21.125 14.52 21.125 7.895 V-69.48 Z M83.125 -35.605 V-63.355 H56.25 Q53.125 -63.355 50.25 -64.605 Q47.375 -65.855 45.125 -67.98 L33 -80.105 Q29 -84.105 30.75 -89.105 Q32.5 -94.105 37.5 -94.105 H83.125 Q89.75 -94.105 94.312 -89.542 Q98.875 -84.98 98.875 -78.355 V-35.605 Q98.875 -32.355 96.562 -30.042 Q94.25 -27.73 91 -27.73 Q87.75 -27.73 85.438 -30.042 Q83.125 -32.355 83.125 -35.605 Z"/></g><g id="Semibold-M" transform="matrix(1 0 0 1 1985.97 1126)"><path d="M100.837 18.901  5.304 -76.562 Q3.717 -78.149 3.717 -80.415 Q3.717 -82.681 5.304 -84.268 Q6.891 -85.855 9.228 -85.855 Q11.565 -85.855 13.152 -84.268 L108.544 11.194 Q110.131 12.781 110.131 15.047 Q110.131 17.314 108.544 18.901 Q106.957 20.488 104.69 20.488 Q102.424 20.488 100.837 18.901 Z M22.81 -66.708  36.06 -53.458 V-6.29 H83.353 L97.19 7.547 V8.852 Q97.19 14.319 93.299 18.14 Q89.408 21.96 83.94 21.96 H36.06 Q30.522 21.96 26.666 18.104 Q22.81 14.248 22.81 8.71 V-66.708 Z M83.94 -28.921 V-64.17 H52.772 Q50.136 -64.17 47.723 -65.23 Q45.31 -66.29 43.44 -68.089 L31.641 -79.833 Q28.131 -83.344 29.908 -87.882 Q31.685 -92.42 36.413 -92.42 H83.94 Q89.478 -92.42 93.334 -88.564 Q97.19 -84.708 97.19 -79.17 V-28.921 Q97.19 -26.16 95.258 -24.228 Q93.326 -22.296 90.565 -22.296 Q87.804 -22.296 85.872 -24.228 Q83.94 -26.16 83.94 -28.921 Z"/></g><g id="Medium-M" transform="matrix(1 0 0 1 1689.91 1126)"><path d="M99.777 18.248  6.283 -75.216 Q4.818 -76.681 4.818 -78.866 Q4.818 -81.051 6.283 -82.515 Q7.747 -83.98 9.962 -83.98 Q12.177 -83.98 13.641 -82.515 L107.076 10.949 Q108.541 12.414 108.541 14.599 Q108.541 16.784 107.076 18.248 Q105.611 19.713 103.427 19.713 Q101.242 19.713 99.777 18.248 Z M24.073 -64.629  35.448 -53.254 V-5.678 H83.15 L95.927 7.099 V9.381 Q95.927 14.074 92.586 17.386 Q89.245 20.697 84.552 20.697 H35.448 Q30.726 20.697 27.399 17.371 Q24.073 14.045 24.073 9.322 V-64.629 Z M84.552 -23.907 V-64.782 H50.163 Q47.894 -64.782 45.828 -65.699 Q43.761 -66.616 42.177 -68.17 L30.622 -79.629 Q27.478 -82.773 29.276 -86.965 Q31.073 -91.157 35.598 -91.157 H84.552 Q89.275 -91.157 92.6 -87.83 Q95.927 -84.504 95.927 -79.782 V-23.907 Q95.927 -21.513 94.28 -19.866 Q92.633 -18.219 90.239 -18.219 Q87.845 -18.219 86.198 -19.866 Q84.552 -21.513 84.552 -23.907 Z"/></g><g id="Regular-M" transform="matrix(1 0 0 1 1394.06 1126)"><path d="M99 17.77  7 -74.23 Q5.625 -75.605 5.625 -77.73 Q5.625 -79.855 7 -81.23 Q8.375 -82.605 10.5 -82.605 Q12.625 -82.605 14 -81.23 L106 10.77 Q107.375 12.145 107.375 14.27 Q107.375 16.395 106 17.77 Q104.625 19.145 102.5 19.145 Q100.375 19.145 99 17.77 Z M25 -63.105  35 -53.105 V-5.23 H83 L95 6.77 V9.77 Q95 13.895 92.062 16.833 Q89.125 19.77 85 19.77 H35 Q30.875 19.77 27.938 16.833 Q25 13.895 25 9.77 V-63.105 Z M85 -20.23 V-65.23 H48.25 Q46.25 -65.23 44.438 -66.042 Q42.625 -66.855 41.25 -68.23 L29.875 -79.48 Q27 -82.355 28.812 -86.292 Q30.625 -90.23 35 -90.23 H85 Q89.125 -90.23 92.062 -87.292 Q95 -84.355 95 -80.23 V-20.23 Q95 -18.105 93.562 -16.667 Q92.125 -15.23 90 -15.23 Q87.875 -15.23 86.438 -16.667 Q85 -18.105 85 -20.23 Z"/></g><g id="Light-M" transform="matrix(1 0 0 1 1098.18 1126)"><path d="M100.731 17.289  6.904 -76.538 Q5.865 -77.576 5.841 -79.148 Q5.817 -80.72 6.904 -81.807 Q7.99 -82.893 9.538 -82.893 Q11.086 -82.893 12.173 -81.807 L106 12.02 Q107.038 13.059 107.062 14.631 Q107.087 16.203 106 17.289 Q104.913 18.376 103.365 18.376 Q101.817 18.376 100.731 17.289 Z M27.5 -61.134  35 -53.634 V-3.98 H83.817 L92.5 4.703 V8.231 Q92.5 11.972 89.851 14.621 Q87.202 17.27 83.461 17.27 H36.539 Q32.798 17.27 30.149 14.621 Q27.5 11.972 27.5 8.231 V-61.134 Z M85 -21.192 V-66.48 H42.913 Q41.057 -66.48 39.533 -67.389 Q38.009 -68.297 37.163 -69.769 L30.163 -78.422 Q28.394 -81.345 30.399 -84.538 Q32.404 -87.73 36.539 -87.73 H83.461 Q87.25 -87.73 89.875 -85.105 Q92.5 -82.48 92.5 -78.691 V-21.192 Q92.5 -19.595 91.423 -18.519 Q90.346 -17.442 88.75 -17.442 Q87.154 -17.442 86.077 -18.519 Q85 -19.595 85 -21.192 Z"/></g><g id="Thin-M" transform="matrix(1 0 0 1 802.565 1126)"><path d="M102.462 16.809  6.808 -78.845 Q6.106 -79.547 6.058 -80.566 Q6.01 -81.586 6.808 -82.384 Q7.606 -83.182 8.577 -83.182 Q9.548 -83.182 10.346 -82.384 L106 13.27 Q106.702 13.972 106.75 14.991 Q106.798 16.01 106 16.809 Q105.202 17.607 104.231 17.607 Q103.26 17.607 102.462 16.809 Z M30 -59.163  35 -54.163 V-2.73 H84.635 L90 2.635 V6.693 Q90 10.049 87.639 12.41 Q85.279 14.77 81.923 14.77 H38.077 Q34.721 14.77 32.361 12.41 Q30 10.049 30 6.693 V-59.163 Z M85 -22.153 V-67.73 H37.577 Q35.865 -67.73 34.63 -68.735 Q33.394 -69.74 33.077 -71.307 L30.452 -77.365 Q29.788 -80.336 31.985 -82.783 Q34.183 -85.23 38.077 -85.23 H81.923 Q85.375 -85.23 87.688 -82.917 Q90 -80.605 90 -77.153 V-22.153 Q90 -21.086 89.284 -20.369 Q88.567 -19.653 87.5 -19.653 Q86.433 -19.653 85.716 -20.369 Q85 -21.086 85 -22.153 Z"/></g><g id="Ultralight-M" transform="matrix(1 0 0 1 506.415 1126)"><path d="M103.5 16.52  6.75 -80.23 Q6.25 -80.73 6.188 -81.417 Q6.125 -82.105 6.75 -82.73 Q7.375 -83.355 8 -83.355 Q8.625 -83.355 9.25 -82.73 L106 14.02 Q106.5 14.52 106.562 15.208 Q106.625 15.895 106 16.52 Q105.375 17.145 104.75 17.145 Q104.125 17.145 103.5 16.52 Z M31.5 -57.98  35 -54.48 V-1.98 H85.125 L88.5 1.395 V5.77 Q88.5 8.895 86.312 11.083 Q84.125 13.27 81 13.27 H39 Q35.875 13.27 33.688 11.083 Q31.5 8.895 31.5 5.77 V-57.98 Z M85 -22.73 V-68.48 H34.375 Q32.75 -68.48 31.688 -69.542 Q30.625 -70.605 30.625 -72.23 V-76.73 Q30.625 -79.73 32.938 -81.73 Q35.25 -83.73 39 -83.73 H81 Q84.25 -83.73 86.375 -81.605 Q88.5 -79.48 88.5 -76.23 V-22.73 Q88.5 -21.98 88 -21.48 Q87.5 -20.98 86.75 -20.98 Q86 -20.98 85.5 -21.48 Q85 -21.98 85 -22.73 Z"/></g><g id="Bold-S" transform="matrix(1 0 0 1 2294.23 696)"><path d="M79.196 5.601  5.622 -67.875 Q4.241 -69.256 4.29 -70.834 Q4.34 -72.412 5.72 -73.792 Q7.101 -75.173 8.778 -75.173 Q10.454 -75.173 11.835 -73.792 L85.212 -0.317 Q86.593 1.064 86.593 2.642 Q86.593 4.22 85.212 5.601 Q83.831 6.982 82.204 6.982 Q80.577 6.982 79.196 5.601 Z M15.879 -63.141  27.516 -51.503 V-13.039 H67.164 L78.308 -1.895 V-0.021 Q78.308 4.417 75.004 7.425 Q71.7 10.433 67.164 10.433 H27.516 Q22.585 10.433 19.232 7.08 Q15.879 3.727 15.879 -1.204 V-63.141 Z M67.164 -36.709 V-57.421 H43.001 Q40.732 -57.421 38.612 -58.259 Q36.491 -59.097 34.716 -60.774 L24.854 -70.735 Q21.895 -73.694 23.128 -77.294 Q24.36 -80.893 28.01 -80.893 H67.164 Q71.996 -80.893 75.399 -77.491 Q78.801 -74.088 78.801 -69.256 V-36.709 Q78.801 -34.342 77.075 -32.616 Q75.35 -30.89 72.983 -30.89 Q70.615 -30.89 68.89 -32.616 Q67.164 -34.342 67.164 -36.709 Z"/></g><g id="Semibold-S" transform="matrix(1 0 0 1 1998.1 696)"><path d="M78.081 4.915  6.651 -66.46 Q5.399 -67.712 5.448 -69.204 Q5.497 -70.697 6.749 -71.949 Q8.001 -73.201 9.549 -73.201 Q11.097 -73.201 12.35 -71.949 L83.668 -0.574 Q84.921 0.678 84.921 2.17 Q84.921 3.663 83.668 4.915 Q82.416 6.167 80.875 6.167 Q79.333 6.167 78.081 4.915 Z M17.208 -60.954  26.873 -51.289 V-12.396 H66.949 L76.979 -2.366 V0.537 Q76.979 4.16 74.254 6.632 Q71.529 9.104 67.807 9.104 H26.873 Q22.8 9.104 20.004 6.308 Q17.208 3.512 17.208 -0.561 V-60.954 Z M67.807 -31.435 V-58.064 H40.256 Q38.374 -58.064 36.618 -58.752 Q34.862 -59.44 33.387 -60.86 L23.782 -70.521 Q21.209 -73.093 22.463 -76.329 Q23.717 -79.564 27.152 -79.564 H67.807 Q71.782 -79.564 74.627 -76.719 Q77.472 -73.874 77.472 -69.899 V-31.435 Q77.472 -29.454 76.046 -28.029 Q74.621 -26.603 72.639 -26.603 Q70.658 -26.603 69.233 -28.029 Q67.807 -29.454 67.807 -31.435 Z"/></g><g id="Medium-S" transform="matrix(1 0 0 1 1701.85 696)"><path d="M77.245 4.4  7.423 -65.398 Q6.267 -66.554 6.316 -67.982 Q6.366 -69.41 7.521 -70.566 Q8.677 -71.721 10.128 -71.721 Q11.58 -71.721 12.735 -70.566 L82.511 -0.767 Q83.666 0.389 83.666 1.817 Q83.666 3.245 82.511 4.4 Q81.355 5.556 79.878 5.556 Q78.4 5.556 77.245 4.4 Z M18.205 -59.314  26.391 -51.128 V-11.914 H66.788 L75.982 -2.72 V0.955 Q75.982 3.967 73.691 6.037 Q71.4 8.107 68.289 8.107 H26.391 Q22.96 8.107 20.583 5.729 Q18.205 3.352 18.205 -0.079 V-59.314 Z M68.289 -27.479 V-58.546 H38.198 Q36.605 -58.546 35.122 -59.122 Q33.64 -59.698 32.39 -60.924 L22.977 -70.36 Q20.694 -72.643 21.964 -75.605 Q23.235 -78.567 26.509 -78.567 H68.289 Q71.621 -78.567 74.048 -76.14 Q76.475 -73.713 76.475 -70.381 V-27.479 Q76.475 -25.788 75.274 -24.587 Q74.074 -23.387 72.382 -23.387 Q70.691 -23.387 69.49 -24.587 Q68.289 -25.788 68.289 -27.479 Z"/></g><g id="Regular-S" transform="matrix(1 0 0 1 1405.73 696)"><path d="M76.632 4.023  7.989 -64.62 Q6.904 -65.705 6.953 -67.086 Q7.002 -68.467 8.087 -69.551 Q9.172 -70.636 10.553 -70.636 Q11.934 -70.636 13.019 -69.551 L81.662 -0.908 Q82.746 0.176 82.746 1.557 Q82.746 2.938 81.662 4.023 Q80.577 5.108 79.147 5.108 Q77.716 5.108 76.632 4.023 Z M18.936 -58.111  26.037 -51.01 V-11.56 H66.671 L75.251 -2.98 V1.261 Q75.251 3.826 73.278 5.601 Q71.306 7.376 68.643 7.376 H26.037 Q23.078 7.376 21.007 5.305 Q18.936 3.234 18.936 0.275 V-58.111 Z M68.643 -24.578 V-58.9 H36.689 Q35.308 -58.9 34.026 -59.393 Q32.744 -59.886 31.659 -60.971 L22.388 -70.242 Q20.317 -72.313 21.599 -75.074 Q22.881 -77.836 26.037 -77.836 H68.643 Q71.503 -77.836 73.624 -75.716 Q75.744 -73.595 75.744 -70.735 V-24.578 Q75.744 -23.099 74.708 -22.064 Q73.673 -21.028 72.194 -21.028 Q70.714 -21.028 69.679 -22.064 Q68.643 -23.099 68.643 -24.578 Z"/></g><g id="Light-S" transform="matrix(1 0 0 1 1109.75 696)"><path d="M77.997 3.643  7.913 -66.441 Q7.093 -67.26 7.124 -68.205 Q7.154 -69.15 8.011 -70.007 Q8.869 -70.864 9.794 -70.864 Q10.72 -70.864 11.577 -70.007 L81.662 0.078 Q82.481 0.897 82.5 1.842 Q82.519 2.786 81.662 3.643 Q80.804 4.501 79.829 4.501 Q78.855 4.501 77.997 3.643 Z M20.909 -56.556  26.037 -51.427 V-10.574 H67.315 L73.278 -4.611 V0.047 Q73.278 2.308 71.533 3.856 Q69.788 5.403 67.429 5.403 H27.251 Q24.596 5.403 22.752 3.56 Q20.909 1.716 20.909 -0.939 V-56.556 Z M68.643 -25.337 V-59.886 H32.478 Q31.211 -59.886 30.156 -60.455 Q29.102 -61.024 28.434 -62.185 L22.616 -69.407 Q21.417 -71.516 22.851 -73.69 Q24.285 -75.863 27.251 -75.863 H67.429 Q70.024 -75.863 71.898 -73.99 Q73.771 -72.116 73.771 -69.521 V-25.337 Q73.771 -24.275 73.02 -23.524 Q72.269 -22.773 71.207 -22.773 Q70.145 -22.773 69.394 -23.524 Q68.643 -24.275 68.643 -25.337 Z"/></g><g id="Thin-S" transform="matrix(1 0 0 1 814.015 696)"><path d="M79.363 3.264  7.837 -68.262 Q7.283 -68.816 7.295 -69.324 Q7.306 -69.832 7.936 -70.462 Q8.565 -71.092 9.036 -71.092 Q9.506 -71.092 10.136 -70.462 L81.662 1.064 Q82.215 1.618 82.253 2.126 Q82.291 2.634 81.662 3.264 Q81.032 3.894 80.512 3.894 Q79.992 3.894 79.363 3.264 Z M22.881 -55.001  26.037 -51.844 V-9.587 H67.96 L71.306 -6.242 V-1.166 Q71.306 0.791 69.789 2.111 Q68.271 3.431 66.215 3.431 H28.465 Q26.113 3.431 24.497 1.815 Q22.881 0.199 22.881 -2.153 V-55.001 Z M68.643 -26.096 V-60.872 H28.268 Q27.114 -60.872 26.287 -61.517 Q25.46 -62.162 25.21 -63.399 L22.843 -68.573 Q22.517 -70.72 24.102 -72.305 Q25.688 -73.891 28.465 -73.891 H66.215 Q68.544 -73.891 70.172 -72.264 Q71.799 -70.636 71.799 -68.307 V-26.096 Q71.799 -25.451 71.332 -24.984 Q70.866 -24.518 70.221 -24.518 Q69.576 -24.518 69.11 -24.984 Q68.643 -25.451 68.643 -26.096 Z"/></g><g id="Ultralight-S" transform="matrix(1 0 0 1 517.792 696)"><path d="M80.182 3.037  7.791 -69.354 Q7.397 -69.749 7.397 -69.995 Q7.397 -70.242 7.89 -70.735 Q8.383 -71.228 8.58 -71.228 Q8.778 -71.228 9.271 -70.735 L81.662 1.656 Q82.056 2.05 82.105 2.297 Q82.155 2.543 81.662 3.037 Q81.168 3.53 80.922 3.53 Q80.675 3.53 80.182 3.037 Z M24.065 -54.067  26.037 -52.095 V-8.996 H68.347 L70.122 -7.22 V-1.895 Q70.122 -0.119 68.742 1.064 Q67.361 2.248 65.487 2.248 H29.193 Q27.023 2.248 25.544 0.768 Q24.065 -0.711 24.065 -2.881 V-54.067 Z M68.643 -26.551 V-61.464 H25.741 Q24.656 -61.464 23.966 -62.155 Q23.276 -62.845 23.276 -64.127 L22.98 -68.072 Q23.177 -70.242 24.854 -71.475 Q26.53 -72.707 29.193 -72.707 H65.487 Q67.657 -72.707 69.136 -71.228 Q70.615 -69.749 70.615 -67.579 V-26.551 Q70.615 -26.156 70.32 -25.861 Q70.024 -25.565 69.629 -25.565 Q69.235 -25.565 68.939 -25.861 Q68.643 -26.156 68.643 -26.551 Z"/></g></g></svg>