<svg xmlns="http://www.w3.org/2000/svg" version="1.1" width="3300" height="2000"><g id="Notes"><style>
    text {
      font-family: monospace;
      text-anchor: middle;
    }
    text.emphasis {
      font-weight:bold;
    }
    text.lanchor {
      text-anchor: start;
    }
  </style><rect height="2200" id="artboard" fill="white" width="3300" x="0" y="0"/><line id="" style="fill:none;stroke:black;stroke-width:0.5;" x1="263" x2="3036" y1="292" y2="292"/><text class="lanchor emphasis" transform="matrix(1 0 0 1 263 322)">Weight/Scale Variations</text><text transform="matrix(1 0 0 1 559.711 322)">Ultralight</text><text transform="matrix(1 0 0 1 856.422 322)">Thin</text><text transform="matrix(1 0 0 1 1153.13 322)">Light</text><text transform="matrix(1 0 0 1 1449.84 322)">Regular</text><text transform="matrix(1 0 0 1 1746.56 322)">Medium</text><text transform="matrix(1 0 0 1 2043.27 322)">Semibold</text><text transform="matrix(1 0 0 1 2339.98 322)">Bold</text><text transform="matrix(1 0 0 1 2636.69 322)">Heavy</text><text transform="matrix(1 0 0 1 2933.4 322)">Black</text><text id="template-version" style="text-anchor: end;" transform="matrix(1 0 0 1 3036 1933)">Template v.1.0</text><text class="lanchor" transform="matrix(1 0 0 1 263 726)">Small</text><text class="lanchor" transform="matrix(1 0 0 1 263 1156)">Medium</text><text class="lanchor" transform="matrix(1 0 0 1 263 1586)">Large</text></g><g id="Guides"><g id="H-reference" style="fill:#27AAE1;stroke:none;" transform="matrix(1 0 0 1 339 696)"><path d="M 54.9316 0 L 57.666 0 L 30.5664 -70.459 L 28.0762 -70.459 L 0.976562 0 L 3.66211 0 L 12.9395 -24.4629 L 45.7031 -24.4629 Z M 29.1992 -67.0898 L 29.4434 -67.0898 L 44.8242 -26.709 L 13.8184 -26.709 Z"/></g><line id="Baseline-S" style="fill:none;stroke:#27AAE1;opacity:1;stroke-width:0.577;" x1="263" x2="3036" y1="696" y2="696"/><line id="Capline-S" style="fill:none;stroke:#27AAE1;opacity:1;stroke-width:0.577;" x1="263" x2="3036" y1="625.541" y2="625.541"/><g id="H-reference" style="fill:#27AAE1;stroke:none;" transform="matrix(1 0 0 1 339 1126)"><path d="M 54.9316 0 L 57.666 0 L 30.5664 -70.459 L 28.0762 -70.459 L 0.976562 0 L 3.66211 0 L 12.9395 -24.4629 L 45.7031 -24.4629 Z M 29.1992 -67.0898 L 29.4434 -67.0898 L 44.8242 -26.709 L 13.8184 -26.709 Z"/></g><line id="Baseline-M" style="fill:none;stroke:#27AAE1;opacity:1;stroke-width:0.577;" x1="263" x2="3036" y1="1126" y2="1126"/><line id="Capline-M" style="fill:none;stroke:#27AAE1;opacity:1;stroke-width:0.577;" x1="263" x2="3036" y1="1055.54" y2="1055.54"/><g id="H-reference" style="fill:#27AAE1;stroke:none;" transform="matrix(1 0 0 1 339 1556)"><path d="M 54.9316 0 L 57.666 0 L 30.5664 -70.459 L 28.0762 -70.459 L 0.976562 0 L 3.66211 0 L 12.9395 -24.4629 L 45.7031 -24.4629 Z M 29.1992 -67.0898 L 29.4434 -67.0898 L 44.8242 -26.709 L 13.8184 -26.709 Z"/></g><line id="Baseline-L" style="fill:none;stroke:#27AAE1;opacity:1;stroke-width:0.577;" x1="263" x2="3036" y1="1556" y2="1556"/><line id="Capline-L" style="fill:none;stroke:#27AAE1;opacity:1;stroke-width:0.577;" x1="263" x2="3036" y1="1485.54" y2="1485.54"/><rect height="119.336" id="left-margin" style="fill:darkred;stroke:none;opacity:0.4;" width="12.4512" x="1394.06" y="1030.79"/><rect height="119.336" id="right-margin" style="fill:darkgreen;stroke:none;opacity:0.4;" width="12.4512" x="1502.5112" y="1030.79"/><rect x="1406.5112" y="1045" width="96" height="96" fill="none" stroke="blue" stroke-dasharray="5"/><rect x="1394.06" y="1030.79" width="120.9024" height="119.336" fill="none" stroke="blue"/></g><g id="Symbols"><g id="Bold-L" transform="matrix(1 0 0 1 2266 1556)"><path d="M56.599 -35.552 H98.282 Q101.293 -35.552 103.456 -37.717 Q105.619 -39.882 105.619 -42.944 Q105.619 -46.006 103.456 -48.237 Q101.293 -50.468 98.282 -50.468 H56.599 Q53.495 -50.468 51.338 -48.202 Q49.181 -45.937 49.181 -42.928 Q49.181 -39.826 51.338 -37.689 Q53.495 -35.552 56.599 -35.552 Z M24.429 13.306 Q18.299 13.306 13.987 8.994 Q9.675 4.682 9.675 -1.448 V-81.831 Q9.675 -88.028 13.987 -92.388 Q18.299 -96.747 24.429 -96.747 H130.371 Q136.568 -96.747 140.927 -92.388 Q145.286 -88.028 145.286 -81.831 V-1.448 Q145.286 4.682 140.927 8.994 Q136.568 13.306 130.371 13.306 H103.361 V18.708 Q103.361 21.812 101.108 23.969 Q98.854 26.126 95.863 26.126 H59.017 Q55.913 26.126 53.757 23.969 Q51.6 21.812 51.6 18.708 V13.306 H24.429 Z M24.429 -1.448 H130.371 Q130.371 -1.448 130.371 -1.448 Q130.371 -1.448 130.371 -1.448 V-81.831 Q130.371 -81.831 130.371 -81.831 Q130.371 -81.831 130.371 -81.831 H24.429 Q24.429 -81.831 24.429 -81.831 Q24.429 -81.831 24.429 -81.831 V-1.448 Q24.429 -1.448 24.429 -1.448 Q24.429 -1.448 24.429 -1.448 Z"/></g><g id="Semibold-L" transform="matrix(1 0 0 1 1970.27 1556)"><path d="M56.599 -36.394 H98.282 Q100.803 -36.394 102.615 -38.208 Q104.427 -40.022 104.427 -42.599 Q104.427 -45.177 102.615 -47.016 Q100.803 -48.856 98.282 -48.856 H56.599 Q53.985 -48.856 52.179 -46.982 Q50.373 -45.108 50.373 -42.583 Q50.373 -39.966 52.179 -38.18 Q53.985 -36.394 56.599 -36.394 Z M23.798 11.554 Q18.723 11.554 15.075 7.906 Q11.428 4.258 11.428 -0.817 V-82.462 Q11.428 -87.575 15.075 -91.25 Q18.723 -94.924 23.798 -94.924 H131.002 Q136.115 -94.924 139.789 -91.25 Q143.463 -87.575 143.463 -82.462 V-0.817 Q143.463 4.258 139.789 7.906 Q136.115 11.554 131.002 11.554 H102.38 V18.147 Q102.38 20.761 100.516 22.567 Q98.653 24.373 96.144 24.373 H58.737 Q56.124 24.373 54.318 22.567 Q52.511 20.761 52.511 18.147 V11.554 H23.798 Z M23.798 -0.817 H131.002 Q131.002 -0.817 131.002 -0.817 Q131.002 -0.817 131.002 -0.817 V-82.462 Q131.002 -82.462 131.002 -82.462 Q131.002 -82.462 131.002 -82.462 H23.798 Q23.798 -82.462 23.798 -82.462 Q23.798 -82.462 23.798 -82.462 V-0.817 Q23.798 -0.817 23.798 -0.817 Q23.798 -0.817 23.798 -0.817 Z"/></g><g id="Medium-L" transform="matrix(1 0 0 1 1674.31 1556)"><path d="M56.599 -37.025 H98.282 Q100.434 -37.025 101.984 -38.576 Q103.533 -40.128 103.533 -42.341 Q103.533 -44.555 101.984 -46.101 Q100.434 -47.646 98.282 -47.646 H56.599 Q54.354 -47.646 52.81 -46.066 Q51.267 -44.486 51.267 -42.325 Q51.267 -40.071 52.81 -38.548 Q54.354 -37.025 56.599 -37.025 Z M23.325 10.239 Q19.041 10.239 15.892 7.09 Q12.742 3.94 12.742 -0.344 V-82.935 Q12.742 -87.235 15.892 -90.396 Q19.041 -93.557 23.325 -93.557 H131.475 Q135.775 -93.557 138.936 -90.396 Q142.096 -87.235 142.096 -82.935 V-0.344 Q142.096 3.94 138.936 7.09 Q135.775 10.239 131.475 10.239 H101.644 V17.727 Q101.644 19.972 100.073 21.515 Q98.501 23.058 96.354 23.058 H58.527 Q56.282 23.058 54.738 21.515 Q53.195 19.972 53.195 17.727 V10.239 H23.325 Z M23.325 -0.344 H131.475 Q131.475 -0.344 131.475 -0.344 Q131.475 -0.344 131.475 -0.344 V-82.935 Q131.475 -82.935 131.475 -82.935 Q131.475 -82.935 131.475 -82.935 H23.325 Q23.325 -82.935 23.325 -82.935 Q23.325 -82.935 23.325 -82.935 V-0.344 Q23.325 -0.344 23.325 -0.344 Q23.325 -0.344 23.325 -0.344 Z"/></g><g id="Regular-L" transform="matrix(1 0 0 1 1378.56 1556)"><path d="M56.599 -37.487 H98.282 Q100.164 -37.487 101.521 -38.846 Q102.877 -40.205 102.877 -42.152 Q102.877 -44.099 101.521 -45.429 Q100.164 -46.759 98.282 -46.759 H56.599 Q54.623 -46.759 53.273 -45.395 Q51.922 -44.03 51.922 -42.136 Q51.922 -40.148 53.273 -38.818 Q54.623 -37.487 56.599 -37.487 Z M22.978 9.275 Q19.274 9.275 16.49 6.491 Q13.706 3.707 13.706 0.003 V-83.282 Q13.706 -86.986 16.49 -89.77 Q19.274 -92.554 22.978 -92.554 H131.822 Q135.526 -92.554 138.31 -89.77 Q141.094 -86.986 141.094 -83.282 V0.003 Q141.094 3.707 138.31 6.491 Q135.526 9.275 131.822 9.275 H101.104 V17.418 Q101.104 19.393 99.747 20.744 Q98.391 22.094 96.508 22.094 H58.373 Q56.397 22.094 55.047 20.744 Q53.696 19.393 53.696 17.418 V9.275 H22.978 Z M22.978 0.003 H131.822 Q131.822 0.003 131.822 0.003 Q131.822 0.003 131.822 0.003 V-83.282 Q131.822 -83.282 131.822 -83.282 Q131.822 -83.282 131.822 -83.282 H22.978 Q22.978 -83.282 22.978 -83.282 Q22.978 -83.282 22.978 -83.282 V0.003 Q22.978 0.003 22.978 0.003 Q22.978 0.003 22.978 0.003 Z"/></g><g id="Light-L" transform="matrix(1 0 0 1 1082.77 1556)"><path d="M57.002 -38.48 H97.91 Q99.321 -38.48 100.355 -39.514 Q101.389 -40.548 101.389 -42.044 Q101.389 -43.541 100.355 -44.545 Q99.321 -45.55 97.91 -45.55 H57.002 Q55.462 -45.55 54.437 -44.508 Q53.411 -43.465 53.411 -42.041 Q53.411 -40.489 54.437 -39.485 Q55.462 -38.48 57.002 -38.48 Z M25.676 6.298 Q22.017 6.298 19.319 3.6 Q16.621 0.902 16.621 -2.743 V-80.568 Q16.621 -84.212 19.319 -86.91 Q22.017 -89.608 25.663 -89.608 H129.137 Q132.783 -89.608 135.481 -86.91 Q138.179 -84.212 138.179 -80.568 V-2.743 Q138.179 0.902 135.481 3.6 Q132.783 6.298 129.124 6.298 H98.499 V14.565 Q98.499 16.539 97.186 17.844 Q95.872 19.148 94.027 19.148 H60.884 Q58.911 19.148 57.606 17.844 Q56.301 16.539 56.301 14.565 V6.298 H25.676 Z M25.676 -0.772 H129.124 Q129.868 -0.772 130.488 -1.392 Q131.109 -2.013 131.109 -2.757 V-80.554 Q131.109 -81.298 130.488 -81.918 Q129.868 -82.538 129.124 -82.538 H25.676 Q24.932 -82.538 24.312 -81.918 Q23.691 -81.298 23.691 -80.554 V-2.757 Q23.691 -2.013 24.312 -1.392 Q24.932 -0.772 25.676 -0.772 Z"/></g><g id="Thin-L" transform="matrix(1 0 0 1 787.282 1556)"><path d="M57.405 -39.472 H97.538 Q98.478 -39.472 99.189 -40.182 Q99.901 -40.891 99.901 -41.937 Q99.901 -42.982 99.189 -43.662 Q98.478 -44.341 97.538 -44.341 H57.405 Q56.301 -44.341 55.6 -43.62 Q54.899 -42.9 54.899 -41.947 Q54.899 -40.83 55.6 -40.151 Q56.301 -39.472 57.405 -39.472 Z M28.374 3.321 Q24.76 3.321 22.148 0.709 Q19.536 -1.903 19.536 -5.488 V-77.853 Q19.536 -81.439 22.148 -84.051 Q24.76 -86.663 28.346 -86.663 H126.454 Q130.04 -86.663 132.652 -84.051 Q135.264 -81.439 135.264 -77.853 V-5.488 Q135.264 -1.903 132.652 0.709 Q130.04 3.321 126.426 3.321 H95.894 V11.712 Q95.894 13.685 94.624 14.944 Q93.355 16.203 91.547 16.203 H63.396 Q61.424 16.203 60.165 14.944 Q58.906 13.685 58.906 11.712 V3.321 H28.374 Z M28.374 -1.547 H126.426 Q127.915 -1.547 129.155 -2.788 Q130.395 -4.028 130.395 -5.517 V-77.825 Q130.395 -79.313 129.155 -80.554 Q127.915 -81.794 126.426 -81.794 H28.374 Q26.885 -81.794 25.645 -80.554 Q24.405 -79.313 24.405 -77.825 V-5.517 Q24.405 -4.028 25.645 -2.788 Q26.885 -1.547 28.374 -1.547 Z"/></g><g id="Ultralight-L" transform="matrix(1 0 0 1 491.205 1556)"><path d="M57.647 -40.067 H97.314 Q97.971 -40.067 98.489 -40.582 Q99.008 -41.097 99.008 -41.872 Q99.008 -42.647 98.489 -43.131 Q97.971 -43.615 97.314 -43.615 H57.647 Q56.804 -43.615 56.299 -43.088 Q55.793 -42.561 55.793 -41.891 Q55.793 -41.035 56.299 -40.551 Q56.804 -40.067 57.647 -40.067 Z M29.992 1.535 Q26.406 1.535 23.845 -1.025 Q21.285 -3.586 21.285 -7.136 V-76.224 Q21.285 -79.774 23.845 -82.335 Q26.406 -84.895 29.957 -84.895 H124.843 Q128.394 -84.895 130.955 -82.335 Q133.515 -79.774 133.515 -76.224 V-7.136 Q133.515 -3.586 130.955 -1.025 Q128.394 1.535 124.808 1.535 H94.331 V10.001 Q94.331 11.972 93.088 13.204 Q91.844 14.435 90.058 14.435 H64.903 Q62.932 14.435 61.7 13.204 Q60.469 11.972 60.469 10.001 V1.535 H29.992 Z M29.992 -2.012 H124.808 Q126.743 -2.012 128.355 -3.625 Q129.968 -5.237 129.968 -7.172 V-76.187 Q129.968 -78.122 128.355 -79.735 Q126.743 -81.347 124.808 -81.347 H29.992 Q28.058 -81.347 26.445 -79.735 Q24.832 -78.122 24.832 -76.187 V-7.172 Q24.832 -5.237 26.445 -3.625 Q28.058 -2.012 29.992 -2.012 Z"/></g><g id="Bold-M" transform="matrix(1 0 0 1 2281.8 1126)"><path d="M45.188 -33.48 H74.812 Q77.875 -33.48 80.125 -35.73 Q82.375 -37.98 82.375 -41.042 Q82.375 -44.105 80.125 -46.355 Q77.875 -48.605 74.812 -48.605 H45.188 Q42.125 -48.605 39.875 -46.355 Q37.625 -44.105 37.625 -41.042 Q37.625 -37.98 39.875 -35.73 Q42.125 -33.48 45.188 -33.48 Z M22.125 3.02 Q15.758 3.02 11.379 -1.359 Q7 -5.738 7 -12.105 V-68.23 Q7 -74.597 11.379 -78.976 Q15.758 -83.355 22.125 -83.355 H97.875 Q104.242 -83.355 108.621 -78.976 Q113 -74.597 113 -68.23 V-12.105 Q113 -5.738 108.621 -1.359 Q104.242 3.02 97.875 3.02 H81.5 V5.333 Q81.5 8.395 79.25 10.645 Q77 12.895 73.938 12.895 H46.062 Q43 12.895 40.75 10.645 Q38.5 8.395 38.5 5.333 V3.02 H22.125 Z M22.125 -12.105 H97.875 Q97.875 -12.105 97.875 -12.105 Q97.875 -12.105 97.875 -12.105 V-68.23 Q97.875 -68.23 97.875 -68.23 Q97.875 -68.23 97.875 -68.23 H22.125 Q22.125 -68.23 22.125 -68.23 Q22.125 -68.23 22.125 -68.23 V-12.105 Q22.125 -12.105 22.125 -12.105 Q22.125 -12.105 22.125 -12.105 Z"/></g><g id="Semibold-M" transform="matrix(1 0 0 1 1985.97 1126)"><path d="M45.188 -34.349 H74.812 Q77.386 -34.349 79.255 -36.219 Q81.125 -38.089 81.125 -40.662 Q81.125 -43.235 79.255 -45.105 Q77.386 -46.975 74.812 -46.975 H45.188 Q42.614 -46.975 40.745 -45.105 Q38.875 -43.235 38.875 -40.662 Q38.875 -38.089 40.745 -36.219 Q42.614 -34.349 45.188 -34.349 Z M21.473 1.172 Q16.193 1.172 12.52 -2.5 Q8.848 -6.173 8.848 -11.453 V-68.882 Q8.848 -74.162 12.52 -77.835 Q16.193 -81.507 21.473 -81.507 H98.527 Q103.807 -81.507 107.48 -77.835 Q111.152 -74.162 111.152 -68.882 V-11.453 Q111.152 -6.173 107.48 -2.5 Q103.807 1.172 98.527 1.172 H80.522 V4.735 Q80.522 7.308 78.652 9.178 Q76.783 11.047 74.209 11.047 H45.791 Q43.217 11.047 41.348 9.178 Q39.478 7.308 39.478 4.735 V1.172 H21.473 Z M21.473 -11.453 H98.527 Q98.527 -11.453 98.527 -11.453 Q98.527 -11.453 98.527 -11.453 V-68.882 Q98.527 -68.882 98.527 -68.882 Q98.527 -68.882 98.527 -68.882 H21.473 Q21.473 -68.882 21.473 -68.882 Q21.473 -68.882 21.473 -68.882 V-11.453 Q21.473 -11.453 21.473 -11.453 Q21.473 -11.453 21.473 -11.453 Z"/></g><g id="Medium-M" transform="matrix(1 0 0 1 1689.91 1126)"><path d="M45.188 -35.002 H74.812 Q77.019 -35.002 78.603 -36.586 Q80.188 -38.17 80.188 -40.377 Q80.188 -42.583 78.603 -44.167 Q77.019 -45.752 74.812 -45.752 H45.188 Q42.981 -45.752 41.397 -44.167 Q39.812 -42.583 39.812 -40.377 Q39.812 -38.17 41.397 -36.586 Q42.981 -35.002 45.188 -35.002 Z M20.984 -0.214 Q16.519 -0.214 13.376 -3.356 Q10.234 -6.499 10.234 -10.964 V-69.371 Q10.234 -73.836 13.376 -76.979 Q16.519 -80.121 20.984 -80.121 H99.016 Q103.481 -80.121 106.624 -76.979 Q109.766 -73.836 109.766 -69.371 V-10.964 Q109.766 -6.499 106.624 -3.356 Q103.481 -0.214 99.016 -0.214 H79.788 V4.286 Q79.788 6.493 78.204 8.077 Q76.62 9.661 74.413 9.661 H45.587 Q43.38 9.661 41.796 8.077 Q40.212 6.493 40.212 4.286 V-0.214 H20.984 Z M20.984 -10.964 H99.016 Q99.016 -10.964 99.016 -10.964 Q99.016 -10.964 99.016 -10.964 V-69.371 Q99.016 -69.371 99.016 -69.371 Q99.016 -69.371 99.016 -69.371 H20.984 Q20.984 -69.371 20.984 -69.371 Q20.984 -69.371 20.984 -69.371 V-10.964 Q20.984 -10.964 20.984 -10.964 Q20.984 -10.964 20.984 -10.964 Z"/></g><g id="Regular-M" transform="matrix(1 0 0 1 1394.06 1126)"><path d="M45.188 -35.48 H74.812 Q76.75 -35.48 78.125 -36.855 Q79.5 -38.23 79.5 -40.167 Q79.5 -42.105 78.125 -43.48 Q76.75 -44.855 74.812 -44.855 H45.188 Q43.25 -44.855 41.875 -43.48 Q40.5 -42.105 40.5 -40.167 Q40.5 -38.23 41.875 -36.855 Q43.25 -35.48 45.188 -35.48 Z M20.625 -1.23 Q16.758 -1.23 14.004 -3.984 Q11.25 -6.738 11.25 -10.605 V-69.73 Q11.25 -73.597 14.004 -76.351 Q16.758 -79.105 20.625 -79.105 H99.375 Q103.242 -79.105 105.996 -76.351 Q108.75 -73.597 108.75 -69.73 V-10.605 Q108.75 -6.738 105.996 -3.984 Q103.242 -1.23 99.375 -1.23 H79.25 V3.958 Q79.25 5.895 77.875 7.27 Q76.5 8.645 74.562 8.645 H45.438 Q43.5 8.645 42.125 7.27 Q40.75 5.895 40.75 3.958 V-1.23 H20.625 Z M20.625 -10.605 H99.375 Q99.375 -10.605 99.375 -10.605 Q99.375 -10.605 99.375 -10.605 V-69.73 Q99.375 -69.73 99.375 -69.73 Q99.375 -69.73 99.375 -69.73 H20.625 Q20.625 -69.73 20.625 -69.73 Q20.625 -69.73 20.625 -69.73 V-10.605 Q20.625 -10.605 20.625 -10.605 Q20.625 -10.605 20.625 -10.605 Z"/></g><g id="Light-M" transform="matrix(1 0 0 1 1098.18 1126)"><path d="M45.163 -36.682 H74.861 Q76.29 -36.682 77.318 -37.708 Q78.346 -38.735 78.346 -40.179 Q78.346 -41.624 77.318 -42.651 Q76.29 -43.677 74.861 -43.677 H45.163 Q43.707 -43.677 42.68 -42.649 Q41.654 -41.621 41.654 -40.191 Q41.654 -38.735 42.68 -37.708 Q43.707 -36.682 45.163 -36.682 Z M22.043 -3.538 Q18.489 -3.538 15.999 -6.027 Q13.51 -8.517 13.51 -12.06 V-68.298 Q13.51 -71.842 15.999 -74.332 Q18.489 -76.821 22.033 -76.821 H97.967 Q101.511 -76.821 104.001 -74.332 Q106.49 -71.842 106.49 -68.298 V-12.06 Q106.49 -8.517 104.001 -6.027 Q101.511 -3.538 97.957 -3.538 H76.894 V2.082 Q76.894 3.876 75.65 5.118 Q74.405 6.361 72.639 6.361 H47.385 Q45.592 6.361 44.349 5.118 Q43.106 3.876 43.106 2.082 V-3.538 H22.043 Z M22.043 -10.533 H97.957 Q98.534 -10.533 99.014 -11.014 Q99.495 -11.494 99.495 -12.071 V-68.288 Q99.495 -68.864 99.014 -69.345 Q98.534 -69.826 97.957 -69.826 H22.043 Q21.466 -69.826 20.986 -69.345 Q20.505 -68.864 20.505 -68.288 V-12.071 Q20.505 -11.494 20.986 -11.014 Q21.466 -10.533 22.043 -10.533 Z"/></g><g id="Thin-M" transform="matrix(1 0 0 1 802.565 1126)"><path d="M45.139 -37.884 H74.909 Q75.829 -37.884 76.511 -38.562 Q77.192 -39.24 77.192 -40.191 Q77.192 -41.143 76.511 -41.821 Q75.829 -42.499 74.909 -42.499 H45.139 Q44.163 -42.499 43.486 -41.818 Q42.808 -41.136 42.808 -40.216 Q42.808 -39.24 43.486 -38.562 Q44.163 -37.884 45.139 -37.884 Z M23.462 -5.845 Q20.219 -5.845 17.994 -8.07 Q15.769 -10.295 15.769 -13.516 V-66.867 Q15.769 -70.088 17.994 -72.313 Q20.219 -74.538 23.44 -74.538 H96.56 Q99.781 -74.538 102.006 -72.313 Q104.231 -70.088 104.231 -66.867 V-13.516 Q104.231 -10.295 102.006 -8.07 Q99.781 -5.845 96.538 -5.845 H74.538 V0.208 Q74.538 1.857 73.424 2.967 Q72.31 4.078 70.716 4.078 H49.332 Q47.683 4.078 46.572 2.967 Q45.462 1.857 45.462 0.208 V-5.845 H23.462 Z M23.462 -10.461 H96.538 Q97.692 -10.461 98.654 -11.422 Q99.615 -12.384 99.615 -13.538 V-66.845 Q99.615 -67.999 98.654 -68.961 Q97.692 -69.922 96.538 -69.922 H23.462 Q22.308 -69.922 21.346 -68.961 Q20.385 -67.999 20.385 -66.845 V-13.538 Q20.385 -12.384 21.346 -11.422 Q22.308 -10.461 23.462 -10.461 Z"/></g><g id="Ultralight-M" transform="matrix(1 0 0 1 506.415 1126)"><path d="M45.125 -38.605 H74.938 Q75.553 -38.605 76.027 -39.074 Q76.5 -39.542 76.5 -40.199 Q76.5 -40.855 76.027 -41.324 Q75.553 -41.792 74.938 -41.792 H45.125 Q44.438 -41.792 43.969 -41.319 Q43.5 -40.846 43.5 -40.23 Q43.5 -39.542 43.969 -39.074 Q44.438 -38.605 45.125 -38.605 Z M24.312 -7.23 Q21.258 -7.23 19.191 -9.296 Q17.125 -11.363 17.125 -14.389 V-66.008 Q17.125 -69.035 19.191 -71.101 Q21.258 -73.167 24.285 -73.167 H95.715 Q98.742 -73.167 100.809 -71.101 Q102.875 -69.035 102.875 -66.008 V-14.389 Q102.875 -11.363 100.809 -9.296 Q98.742 -7.23 95.688 -7.23 H73.125 V-0.917 Q73.125 0.645 72.089 1.676 Q71.053 2.708 69.562 2.708 H50.5 Q48.938 2.708 47.906 1.676 Q46.875 0.645 46.875 -0.917 V-7.23 H24.312 Z M24.312 -10.417 H95.688 Q97.188 -10.417 98.438 -11.667 Q99.688 -12.917 99.688 -14.417 V-65.98 Q99.688 -67.48 98.438 -68.73 Q97.188 -69.98 95.688 -69.98 H24.312 Q22.812 -69.98 21.562 -68.73 Q20.312 -67.48 20.312 -65.98 V-14.417 Q20.312 -12.917 21.562 -11.667 Q22.812 -10.417 24.312 -10.417 Z"/></g><g id="Bold-S" transform="matrix(1 0 0 1 2294.23 696)"><path d="M36.832 -35.033 H57.816 Q60.063 -35.033 61.739 -36.689 Q63.416 -38.344 63.416 -40.584 Q63.416 -42.824 61.755 -44.501 Q60.094 -46.177 57.848 -46.177 H36.864 Q34.617 -46.177 32.941 -44.522 Q31.264 -42.866 31.264 -40.626 Q31.264 -38.386 32.925 -36.709 Q34.586 -35.033 36.832 -35.033 Z M18.246 -8.996 Q13.547 -8.996 10.324 -12.22 Q7.101 -15.444 7.101 -20.144 V-59.717 Q7.101 -64.417 10.324 -67.625 Q13.547 -70.834 18.246 -70.834 H76.434 Q81.133 -70.834 84.356 -67.609 Q87.579 -64.385 87.579 -59.685 V-20.112 Q87.579 -15.412 84.356 -12.204 Q81.133 -8.996 76.434 -8.996 H62.726 V-5.199 Q62.726 -2.95 61.065 -1.288 Q59.404 0.374 57.157 0.374 H37.555 Q35.308 0.374 33.631 -1.288 Q31.955 -2.95 31.955 -5.199 V-8.996 H18.246 Z M18.246 -20.14 H76.434 Q76.434 -20.14 76.434 -20.14 Q76.434 -20.14 76.434 -20.14 V-59.689 Q76.434 -59.689 76.434 -59.689 Q76.434 -59.689 76.434 -59.689 H18.246 Q18.246 -59.689 18.246 -59.689 Q18.246 -59.689 18.246 -59.689 V-20.14 Q18.246 -20.14 18.246 -20.14 Q18.246 -20.14 18.246 -20.14 Z"/></g><g id="Semibold-S" transform="matrix(1 0 0 1 1998.1 696)"><path d="M36.832 -35.719 H57.816 Q59.677 -35.719 61.053 -37.074 Q62.43 -38.43 62.43 -40.284 Q62.43 -42.138 61.069 -43.515 Q59.709 -44.891 57.848 -44.891 H36.864 Q35.003 -44.891 33.627 -43.535 Q32.25 -42.18 32.25 -40.326 Q32.25 -38.472 33.611 -37.095 Q34.971 -35.719 36.832 -35.719 Z M17.731 -10.454 Q13.89 -10.454 11.225 -13.121 Q8.559 -15.787 8.559 -19.63 V-60.231 Q8.559 -64.074 11.225 -66.725 Q13.89 -69.376 17.731 -69.376 H76.949 Q80.79 -69.376 83.455 -66.709 Q86.121 -64.042 86.121 -60.2 V-19.598 Q86.121 -15.756 83.455 -13.105 Q80.79 -10.454 76.949 -10.454 H61.954 V-5.67 Q61.954 -3.808 60.593 -2.446 Q59.233 -1.084 57.372 -1.084 H37.34 Q35.479 -1.084 34.103 -2.446 Q32.726 -3.808 32.726 -5.67 V-10.454 H17.731 Z M17.731 -19.626 H76.949 Q76.949 -19.626 76.949 -19.626 Q76.949 -19.626 76.949 -19.626 V-60.204 Q76.949 -60.204 76.949 -60.204 Q76.949 -60.204 76.949 -60.204 H17.731 Q17.731 -60.204 17.731 -60.204 Q17.731 -60.204 17.731 -60.204 V-19.626 Q17.731 -19.626 17.731 -19.626 Q17.731 -19.626 17.731 -19.626 Z"/></g><g id="Medium-S" transform="matrix(1 0 0 1 1701.85 696)"><path d="M36.832 -36.233 H57.816 Q59.387 -36.233 60.539 -37.364 Q61.69 -38.495 61.69 -40.059 Q61.69 -41.623 60.555 -42.775 Q59.419 -43.926 57.848 -43.926 H36.864 Q35.293 -43.926 34.141 -42.796 Q32.99 -41.665 32.99 -40.1 Q32.99 -38.536 34.125 -37.385 Q35.261 -36.233 36.832 -36.233 Z M17.345 -11.547 Q14.148 -11.547 11.9 -13.796 Q9.652 -16.045 9.652 -19.244 V-60.617 Q9.652 -63.817 11.9 -66.049 Q14.148 -68.282 17.345 -68.282 H77.335 Q80.532 -68.282 82.78 -66.033 Q85.028 -63.785 85.028 -60.586 V-19.212 Q85.028 -16.013 82.78 -13.78 Q80.532 -11.547 77.335 -11.547 H61.375 V-6.024 Q61.375 -4.451 60.239 -3.314 Q59.104 -2.178 57.532 -2.178 H37.18 Q35.608 -2.178 34.457 -3.314 Q33.305 -4.451 33.305 -6.024 V-11.547 H17.345 Z M17.345 -19.24 H77.335 Q77.335 -19.24 77.335 -19.24 Q77.335 -19.24 77.335 -19.24 V-60.589 Q77.335 -60.589 77.335 -60.589 Q77.335 -60.589 77.335 -60.589 H17.345 Q17.345 -60.589 17.345 -60.589 Q17.345 -60.589 17.345 -60.589 V-19.24 Q17.345 -19.24 17.345 -19.24 Q17.345 -19.24 17.345 -19.24 Z"/></g><g id="Regular-S" transform="matrix(1 0 0 1 1405.73 696)"><path d="M36.832 -36.611 H57.816 Q59.175 -36.611 60.161 -37.576 Q61.148 -38.542 61.148 -39.894 Q61.148 -41.246 60.177 -42.232 Q59.207 -43.219 57.848 -43.219 H36.864 Q35.505 -43.219 34.519 -42.253 Q33.532 -41.288 33.532 -39.935 Q33.532 -38.583 34.503 -37.597 Q35.473 -36.611 36.832 -36.611 Z M17.062 -12.349 Q14.336 -12.349 12.395 -14.291 Q10.454 -16.233 10.454 -18.961 V-60.9 Q10.454 -63.628 12.395 -65.554 Q14.336 -67.48 17.062 -67.48 H77.618 Q80.344 -67.48 82.285 -65.538 Q84.226 -63.596 84.226 -60.869 V-18.929 Q84.226 -16.201 82.285 -14.275 Q80.344 -12.349 77.618 -12.349 H60.95 V-6.284 Q60.95 -4.923 59.98 -3.951 Q59.01 -2.98 57.65 -2.98 H37.062 Q35.702 -2.98 34.716 -3.951 Q33.73 -4.923 33.73 -6.284 V-12.349 H17.062 Z M17.062 -18.957 H77.618 Q77.618 -18.957 77.618 -18.957 Q77.618 -18.957 77.618 -18.957 V-60.872 Q77.618 -60.872 77.618 -60.872 Q77.618 -60.872 77.618 -60.872 H17.062 Q17.062 -60.872 17.062 -60.872 Q17.062 -60.872 17.062 -60.872 V-18.957 Q17.062 -18.957 17.062 -18.957 Q17.062 -18.957 17.062 -18.957 Z"/></g><g id="Light-S" transform="matrix(1 0 0 1 1109.75 696)"><path d="M36.813 -37.559 H57.854 Q58.812 -37.559 59.524 -38.25 Q60.237 -38.94 60.237 -39.903 Q60.237 -40.867 59.54 -41.578 Q58.844 -42.289 57.885 -42.289 H36.845 Q35.865 -42.289 35.154 -41.597 Q34.443 -40.905 34.443 -39.954 Q34.443 -38.982 35.138 -38.27 Q35.834 -37.559 36.813 -37.559 Z M18.181 -14.17 Q15.702 -14.17 13.97 -15.903 Q12.237 -17.637 12.237 -20.109 V-59.771 Q12.237 -62.243 13.97 -63.961 Q15.702 -65.678 18.173 -65.678 H76.507 Q78.978 -65.678 80.71 -63.945 Q82.443 -62.211 82.443 -59.739 V-20.077 Q82.443 -17.605 80.71 -15.888 Q78.978 -14.17 76.499 -14.17 H59.091 V-7.763 Q59.091 -6.516 58.224 -5.649 Q57.357 -4.782 56.133 -4.782 H38.598 Q37.352 -4.782 36.471 -5.649 Q35.589 -6.516 35.589 -7.763 V-14.17 H18.181 Z M18.181 -18.9 H76.499 Q76.954 -18.9 77.333 -19.279 Q77.713 -19.659 77.713 -20.114 V-59.734 Q77.713 -60.19 77.333 -60.569 Q76.954 -60.948 76.499 -60.948 H18.181 Q17.726 -60.948 17.347 -60.569 Q16.967 -60.19 16.967 -59.734 V-20.114 Q16.967 -19.659 17.347 -19.279 Q17.726 -18.9 18.181 -18.9 Z"/></g><g id="Thin-S" transform="matrix(1 0 0 1 814.015 696)"><path d="M36.795 -38.507 H57.891 Q58.449 -38.507 58.888 -38.923 Q59.327 -39.338 59.327 -39.913 Q59.327 -40.488 58.904 -40.924 Q58.48 -41.36 57.923 -41.36 H36.826 Q36.226 -41.36 35.79 -40.942 Q35.353 -40.523 35.353 -39.973 Q35.353 -39.38 35.774 -38.944 Q36.194 -38.507 36.795 -38.507 Z M19.3 -15.991 Q17.068 -15.991 15.544 -17.515 Q14.02 -19.041 14.02 -21.257 V-58.642 Q14.02 -60.859 15.544 -62.368 Q17.068 -63.877 19.283 -63.877 H75.397 Q77.612 -63.877 79.136 -62.352 Q80.66 -60.827 80.66 -58.61 V-21.226 Q80.66 -19.009 79.136 -17.499 Q77.612 -15.991 75.38 -15.991 H57.233 V-9.242 Q57.233 -8.109 56.468 -7.346 Q55.704 -6.583 54.616 -6.583 H40.134 Q39.002 -6.583 38.225 -7.346 Q37.447 -8.109 37.447 -9.242 V-15.991 H19.3 Z M19.3 -18.843 H75.38 Q76.29 -18.843 77.049 -19.602 Q77.808 -20.36 77.808 -21.271 V-58.597 Q77.808 -59.507 77.049 -60.266 Q76.29 -61.024 75.38 -61.024 H19.3 Q18.39 -61.024 17.631 -60.266 Q16.872 -59.507 16.872 -58.597 V-21.271 Q16.872 -20.36 17.631 -19.602 Q18.39 -18.843 19.3 -18.843 Z"/></g><g id="Ultralight-S" transform="matrix(1 0 0 1 517.792 696)"><path d="M36.783 -39.076 H57.914 Q58.231 -39.076 58.506 -39.327 Q58.781 -39.577 58.781 -39.919 Q58.781 -40.26 58.522 -40.531 Q58.263 -40.802 57.946 -40.802 H36.815 Q36.442 -40.802 36.171 -40.548 Q35.9 -40.294 35.9 -39.985 Q35.9 -39.619 36.155 -39.348 Q36.41 -39.076 36.783 -39.076 Z M19.972 -17.083 Q17.887 -17.083 16.488 -18.483 Q15.09 -19.883 15.09 -21.946 V-57.964 Q15.09 -60.028 16.488 -61.412 Q17.887 -62.796 19.95 -62.796 H74.73 Q76.793 -62.796 78.192 -61.396 Q79.59 -59.996 79.59 -57.932 V-21.915 Q79.59 -19.851 78.192 -18.467 Q76.793 -17.083 74.708 -17.083 H56.118 V-10.13 Q56.118 -9.065 55.415 -8.365 Q54.712 -7.664 53.705 -7.664 H41.056 Q39.992 -7.664 39.277 -8.365 Q38.562 -9.065 38.562 -10.13 V-17.083 H19.972 Z M19.972 -18.809 H74.708 Q75.892 -18.809 76.878 -19.795 Q77.864 -20.781 77.864 -21.965 V-57.914 Q77.864 -59.097 76.878 -60.083 Q75.892 -61.07 74.708 -61.07 H19.972 Q18.788 -61.07 17.802 -60.083 Q16.816 -59.097 16.816 -57.914 V-21.965 Q16.816 -20.781 17.802 -19.795 Q18.788 -18.809 19.972 -18.809 Z"/></g></g></svg>