<svg xmlns="http://www.w3.org/2000/svg" height="20" viewBox="0 -960 960 960" width="20"><path d="M689.231-434.538q10.238 0 17.119-6.821 6.881-6.82 6.881-16.969 0-10.149-6.881-17.18-6.881-7.031-17.119-7.031H558.154q-10.239 0-17.119 6.821-6.881 6.82-6.881 16.969 0 10.149 6.881 17.18 6.88 7.031 17.119 7.031h131.077Zm0-126.77q10.238 0 17.119-6.82t6.881-16.969q0-10.149-6.881-17.18-6.881-7.031-17.119-7.031H558.154q-10.239 0-17.119 6.82-6.881 6.821-6.881 16.97t6.881 17.18q6.88 7.03 17.119 7.03h131.077ZM338.577-436.692q-25.423 0-43.769 3.577-18.347 3.576-36.5 10.73-13.616 7.385-20.539 11.952-6.923 4.568-6.923 9.664 0 12.78 8.577 21.428 8.577 8.649 21.269 8.649h156.77q11.627 0 20.237-8.927 8.609-8.927 8.609-20.381 0-8.077-6.039-12.538-6.038-4.462-20.423-8.847-19.154-7.154-37.5-11.23-18.346-4.077-43.769-4.077Zm.712-48.616q22.096 0 36.942-15.058 14.846-15.059 14.846-37.154 0-22.095-15.059-36.942-15.058-14.846-37.153-14.846-22.096 0-36.942 15.059-14.846 15.058-14.846 37.154 0 22.095 15.058 36.941 15.059 14.846 37.154 14.846ZM192.615-208q-35.04 0-58.828-23.799Q110-255.599 110-290.656v-379.012q0-35.057 23.787-58.695Q157.575-752 192.615-752h574.77q35.04 0 58.828 23.799Q850-704.401 850-669.344v379.012q0 35.057-23.787 58.695Q802.425-208 767.385-208h-574.77Zm0-58h574.77q9.23 0 16.923-7.692Q792-281.385 792-290.615v-378.77q0-9.23-7.692-16.923Q776.615-694 767.385-694h-574.77q-9.23 0-16.923 7.692Q168-678.615 168-669.385v378.77q0 9.23 7.692 16.923Q183.385-266 192.615-266ZM168-266v-428 428Z"/></svg>