<svg xmlns="http://www.w3.org/2000/svg" height="20" viewBox="0 -960 960 960" width="20"><path d="M697.231-459.692q6.108 0 10.381-4.213 4.273-4.212 4.273-10.038 0-5.826-4.273-10.249-4.273-4.424-10.381-4.424H543.885q-6.108 0-10.381 4.242-4.273 4.241-4.273 9.817 0 6.019 4.273 10.442t10.381 4.423h153.346Zm0-106.346q6.108 0 10.381-4.021 4.273-4.02 4.273-10.038 0-6.018-4.273-10.442-4.273-4.423-10.381-4.423H543.885q-6.108 0-10.381 4.213-4.273 4.212-4.273 10.231 0 6.018 4.273 10.249 4.273 4.231 10.381 4.231h153.346ZM337.904-445.539q-25.481 0-43.404 3.327-17.923 3.327-35.077 9.866-14.5 6.269-23.423 17.451-8.923 11.182-8.923 23.895 0 10.802 6.219 18.132 6.22 7.33 14.396 7.33h180.924q8.176 0 14.395-6.861 6.22-6.86 6.22-17.216 0-14.91-8.539-25.494-8.538-10.583-23.307-16.237-18.539-6.654-36.27-10.423-17.73-3.77-43.211-3.77Zm.655-48.615q20.857 0 35.399-14.497 14.542-14.497 14.542-35.804 0-21.308-14.754-35.657-14.754-14.35-35.805-14.35-21.05 0-35.399 14.498-14.35 14.497-14.35 35.804 0 21.307 14.516 35.657 14.517 14.349 35.851 14.349ZM195.523-237.538q-22.468 0-37.919-15.463-15.45-15.462-15.45-37.964v-378.394q0-22.502 15.45-37.802 15.451-15.301 37.919-15.301h568.954q22.468 0 37.919 15.463 15.45 15.462 15.45 37.964v378.394q0 22.502-15.45 37.802-15.451 15.301-37.919 15.301H195.523Zm.169-28.924h568.616q9.231 0 16.923-7.692 7.692-7.692 7.692-16.923v-377.846q0-9.231-7.692-16.923-7.692-7.692-16.923-7.692H195.692q-9.231 0-16.923 7.692-7.692 7.692-7.692 16.923v377.846q0 9.231 7.692 16.923 7.692 7.692 16.923 7.692Zm-24.615 0v-427.076 427.076Z"/></svg>