<svg xmlns="http://www.w3.org/2000/svg" version="1.1" width="3300" height="2000"><g id="Notes"><style>
    text {
      font-family: monospace;
      text-anchor: middle;
    }
    text.emphasis {
      font-weight:bold;
    }
    text.lanchor {
      text-anchor: start;
    }
  </style><rect height="2200" id="artboard" fill="white" width="3300" x="0" y="0"/><line id="" style="fill:none;stroke:black;stroke-width:0.5;" x1="263" x2="3036" y1="292" y2="292"/><text class="lanchor emphasis" transform="matrix(1 0 0 1 263 322)">Weight/Scale Variations</text><text transform="matrix(1 0 0 1 559.711 322)">Ultralight</text><text transform="matrix(1 0 0 1 856.422 322)">Thin</text><text transform="matrix(1 0 0 1 1153.13 322)">Light</text><text transform="matrix(1 0 0 1 1449.84 322)">Regular</text><text transform="matrix(1 0 0 1 1746.56 322)">Medium</text><text transform="matrix(1 0 0 1 2043.27 322)">Semibold</text><text transform="matrix(1 0 0 1 2339.98 322)">Bold</text><text transform="matrix(1 0 0 1 2636.69 322)">Heavy</text><text transform="matrix(1 0 0 1 2933.4 322)">Black</text><text id="template-version" style="text-anchor: end;" transform="matrix(1 0 0 1 3036 1933)">Template v.1.0</text><text class="lanchor" transform="matrix(1 0 0 1 263 726)">Small</text><text class="lanchor" transform="matrix(1 0 0 1 263 1156)">Medium</text><text class="lanchor" transform="matrix(1 0 0 1 263 1586)">Large</text></g><g id="Guides"><g id="H-reference" style="fill:#27AAE1;stroke:none;" transform="matrix(1 0 0 1 339 696)"><path d="M 54.9316 0 L 57.666 0 L 30.5664 -70.459 L 28.0762 -70.459 L 0.976562 0 L 3.66211 0 L 12.9395 -24.4629 L 45.7031 -24.4629 Z M 29.1992 -67.0898 L 29.4434 -67.0898 L 44.8242 -26.709 L 13.8184 -26.709 Z"/></g><line id="Baseline-S" style="fill:none;stroke:#27AAE1;opacity:1;stroke-width:0.577;" x1="263" x2="3036" y1="696" y2="696"/><line id="Capline-S" style="fill:none;stroke:#27AAE1;opacity:1;stroke-width:0.577;" x1="263" x2="3036" y1="625.541" y2="625.541"/><g id="H-reference" style="fill:#27AAE1;stroke:none;" transform="matrix(1 0 0 1 339 1126)"><path d="M 54.9316 0 L 57.666 0 L 30.5664 -70.459 L 28.0762 -70.459 L 0.976562 0 L 3.66211 0 L 12.9395 -24.4629 L 45.7031 -24.4629 Z M 29.1992 -67.0898 L 29.4434 -67.0898 L 44.8242 -26.709 L 13.8184 -26.709 Z"/></g><line id="Baseline-M" style="fill:none;stroke:#27AAE1;opacity:1;stroke-width:0.577;" x1="263" x2="3036" y1="1126" y2="1126"/><line id="Capline-M" style="fill:none;stroke:#27AAE1;opacity:1;stroke-width:0.577;" x1="263" x2="3036" y1="1055.54" y2="1055.54"/><g id="H-reference" style="fill:#27AAE1;stroke:none;" transform="matrix(1 0 0 1 339 1556)"><path d="M 54.9316 0 L 57.666 0 L 30.5664 -70.459 L 28.0762 -70.459 L 0.976562 0 L 3.66211 0 L 12.9395 -24.4629 L 45.7031 -24.4629 Z M 29.1992 -67.0898 L 29.4434 -67.0898 L 44.8242 -26.709 L 13.8184 -26.709 Z"/></g><line id="Baseline-L" style="fill:none;stroke:#27AAE1;opacity:1;stroke-width:0.577;" x1="263" x2="3036" y1="1556" y2="1556"/><line id="Capline-L" style="fill:none;stroke:#27AAE1;opacity:1;stroke-width:0.577;" x1="263" x2="3036" y1="1485.54" y2="1485.54"/><rect height="119.336" id="left-margin" style="fill:darkred;stroke:none;opacity:0.4;" width="12.4512" x="1394.06" y="1030.79"/><rect height="119.336" id="right-margin" style="fill:darkgreen;stroke:none;opacity:0.4;" width="12.4512" x="1502.5112" y="1030.79"/><rect x="1406.5112" y="1045" width="96" height="96" fill="none" stroke="blue" stroke-dasharray="5"/><rect x="1394.06" y="1030.79" width="120.9024" height="119.336" fill="none" stroke="blue"/></g><g id="Symbols"><g id="Bold-L" transform="matrix(1 0 0 1 2266 1556)"><path d="M61.275 -26.522 V-43.937 Q61.275 -46.9 63.424 -49.047 Q65.572 -51.194 68.692 -51.194 H86.108 Q89.07 -51.194 91.217 -49.047 Q93.364 -46.9 93.364 -43.937 V-26.522 Q93.364 -23.402 91.217 -21.254 Q89.07 -19.105 86.108 -19.105 H68.692 Q65.572 -19.105 63.424 -21.254 Q61.275 -23.402 61.275 -26.522 Z M55.631 22.256 V13.468 H43.376 Q37.608 13.468 33.155 9.015 Q28.703 4.562 28.703 -1.206 V-13.461 H19.879 Q17.427 -13.461 15.808 -15.1 Q14.19 -16.739 14.19 -19.015 Q14.19 -21.221 15.834 -22.824 Q17.477 -24.426 19.914 -24.426 H28.703 V-46.679 H19.834 Q17.367 -46.679 15.778 -48.345 Q14.19 -50.012 14.19 -52.328 Q14.19 -54.576 15.834 -56.11 Q17.477 -57.644 19.914 -57.644 H28.703 V-69.899 Q28.703 -75.734 33.155 -80.234 Q37.608 -84.734 43.376 -84.734 H55.631 V-93.057 Q55.631 -95.275 57.265 -96.858 Q58.899 -98.44 61.167 -98.44 Q63.367 -98.44 64.972 -96.845 Q66.577 -95.249 66.577 -93.038 V-84.734 H88.849 V-93.038 Q88.849 -95.314 90.515 -96.877 Q92.182 -98.44 94.498 -98.44 Q96.746 -98.44 98.28 -96.845 Q99.814 -95.249 99.814 -93.038 V-84.734 H112.069 Q117.904 -84.734 122.404 -80.234 Q126.904 -75.734 126.904 -69.899 V-57.644 H135.227 Q137.445 -57.644 139.028 -56.086 Q140.61 -54.528 140.61 -52.328 Q140.61 -50.06 139.015 -48.379 Q137.419 -46.698 135.208 -46.698 H126.904 V-24.426 H135.208 Q137.484 -24.426 139.047 -22.835 Q140.61 -21.244 140.61 -18.995 Q140.61 -16.746 139.015 -15.103 Q137.419 -13.461 135.208 -13.461 H126.904 V-1.206 Q126.904 4.562 122.404 9.015 Q117.904 13.468 112.069 13.468 H99.814 V22.291 Q99.814 24.743 98.25 26.362 Q96.686 27.98 94.478 27.98 Q92.27 27.98 90.559 26.336 Q88.849 24.693 88.849 22.256 V13.468 H66.596 V22.336 Q66.596 24.803 65.005 26.392 Q63.414 27.98 61.165 27.98 Q58.916 27.98 57.273 26.336 Q55.631 24.693 55.631 22.256 Z M112.069 -1.206 Q112.069 -1.206 112.069 -1.206 Q112.069 -1.206 112.069 -1.206 V-69.899 Q112.069 -69.899 112.069 -69.899 Q112.069 -69.899 112.069 -69.899 H43.376 Q43.376 -69.899 43.376 -69.899 Q43.376 -69.899 43.376 -69.899 V-1.206 Q43.376 -1.206 43.376 -1.206 Q43.376 -1.206 43.376 -1.206 H112.069 Z"/></g><g id="Semibold-L" transform="matrix(1 0 0 1 1970.27 1556)"><path d="M60.153 -24.77 V-45.69 Q60.153 -48.401 62.113 -50.358 Q64.072 -52.315 66.94 -52.315 H87.86 Q90.571 -52.315 92.528 -50.358 Q94.485 -48.401 94.485 -45.69 V-24.77 Q94.485 -21.902 92.528 -19.943 Q90.571 -17.983 87.86 -17.983 H66.94 Q64.072 -17.983 62.113 -19.943 Q60.153 -21.902 60.153 -24.77 Z M56.192 21.379 V12.977 H42.605 Q37.331 12.977 33.262 8.908 Q29.193 4.839 29.193 -0.435 V-14.022 H20.771 Q18.281 -14.022 16.621 -15.71 Q14.961 -17.397 14.961 -19.745 Q14.961 -22.054 16.635 -23.696 Q18.309 -25.338 20.791 -25.338 H29.193 V-45.767 H20.745 Q18.246 -45.767 16.604 -47.471 Q14.961 -49.174 14.961 -51.545 Q14.961 -53.877 16.635 -55.48 Q18.309 -57.083 20.791 -57.083 H29.193 V-70.67 Q29.193 -75.982 33.262 -80.077 Q37.331 -84.173 42.605 -84.173 H56.192 V-92.102 Q56.192 -94.392 57.877 -96.03 Q59.562 -97.669 61.905 -97.669 Q64.21 -97.669 65.854 -96.023 Q67.497 -94.377 67.497 -92.092 V-84.173 H87.937 V-92.092 Q87.937 -94.414 89.641 -96.041 Q91.344 -97.669 93.715 -97.669 Q96.047 -97.669 97.65 -96.023 Q99.253 -94.377 99.253 -92.092 V-84.173 H112.84 Q118.152 -84.173 122.247 -80.077 Q126.343 -75.982 126.343 -70.67 V-57.083 H134.272 Q136.562 -57.083 138.2 -55.454 Q139.839 -53.825 139.839 -51.52 Q139.839 -49.177 138.193 -47.477 Q136.547 -45.778 134.262 -45.778 H126.343 V-25.338 H134.262 Q136.584 -25.338 138.211 -23.69 Q139.839 -22.042 139.839 -19.709 Q139.839 -17.377 138.193 -15.699 Q136.547 -14.022 134.262 -14.022 H126.343 V-0.435 Q126.343 4.839 122.247 8.908 Q118.152 12.977 112.84 12.977 H99.253 V21.399 Q99.253 23.889 97.621 25.549 Q95.988 27.209 93.679 27.209 Q91.369 27.209 89.653 25.535 Q87.937 23.861 87.937 21.379 V12.977 H67.508 V21.425 Q67.508 23.924 65.86 25.566 Q64.212 27.209 61.879 27.209 Q59.547 27.209 57.869 25.535 Q56.192 23.861 56.192 21.379 Z M112.84 -0.435 Q112.84 -0.435 112.84 -0.435 Q112.84 -0.435 112.84 -0.435 V-70.67 Q112.84 -70.67 112.84 -70.67 Q112.84 -70.67 112.84 -70.67 H42.605 Q42.605 -70.67 42.605 -70.67 Q42.605 -70.67 42.605 -70.67 V-0.435 Q42.605 -0.435 42.605 -0.435 Q42.605 -0.435 42.605 -0.435 H112.84 Z"/></g><g id="Medium-L" transform="matrix(1 0 0 1 1674.31 1556)"><path d="M59.312 -23.455 V-47.005 Q59.312 -49.526 61.129 -51.341 Q62.947 -53.157 65.625 -53.157 H89.175 Q91.696 -53.157 93.511 -51.341 Q95.327 -49.526 95.327 -47.005 V-23.455 Q95.327 -20.777 93.511 -18.959 Q91.696 -17.142 89.175 -17.142 H65.625 Q62.947 -17.142 61.129 -18.959 Q59.312 -20.777 59.312 -23.455 Z M56.613 20.722 V12.609 H42.027 Q37.123 12.609 33.342 8.828 Q29.561 5.047 29.561 0.143 V-14.443 H21.439 Q18.921 -14.443 17.23 -16.167 Q15.54 -17.891 15.54 -20.293 Q15.54 -22.678 17.236 -24.35 Q18.933 -26.021 21.448 -26.021 H29.561 V-45.084 H21.429 Q18.906 -45.084 17.223 -46.815 Q15.54 -48.546 15.54 -50.957 Q15.54 -53.352 17.236 -55.007 Q18.933 -56.662 21.448 -56.662 H29.561 V-71.248 Q29.561 -76.168 33.342 -79.96 Q37.123 -83.752 42.027 -83.752 H56.613 V-91.386 Q56.613 -93.73 58.336 -95.41 Q60.059 -97.09 62.459 -97.09 Q64.842 -97.09 66.515 -95.407 Q68.187 -93.723 68.187 -91.382 V-83.752 H87.254 V-91.382 Q87.254 -93.739 88.985 -95.415 Q90.716 -97.09 93.127 -97.09 Q95.522 -97.09 97.177 -95.407 Q98.832 -93.723 98.832 -91.382 V-83.752 H113.418 Q118.338 -83.752 122.13 -79.96 Q125.922 -76.168 125.922 -71.248 V-56.662 H133.556 Q135.9 -56.662 137.58 -54.98 Q139.26 -53.298 139.26 -50.914 Q139.26 -48.514 137.577 -46.801 Q135.893 -45.088 133.552 -45.088 H125.922 V-26.021 H133.552 Q135.909 -26.021 137.585 -24.331 Q139.26 -22.641 139.26 -20.245 Q139.26 -17.85 137.577 -16.146 Q135.893 -14.443 133.552 -14.443 H125.922 V0.143 Q125.922 5.047 122.13 8.828 Q118.338 12.609 113.418 12.609 H98.832 V20.731 Q98.832 23.249 97.149 24.94 Q95.465 26.63 93.079 26.63 Q90.694 26.63 88.974 24.934 Q87.254 23.237 87.254 20.722 V12.609 H68.191 V20.741 Q68.191 23.264 66.501 24.947 Q64.811 26.63 62.415 26.63 Q60.02 26.63 58.316 24.934 Q56.613 23.237 56.613 20.722 Z M113.418 0.143 Q113.418 0.143 113.418 0.143 Q113.418 0.143 113.418 0.143 V-71.248 Q113.418 -71.248 113.418 -71.248 Q113.418 -71.248 113.418 -71.248 H42.027 Q42.027 -71.248 42.027 -71.248 Q42.027 -71.248 42.027 -71.248 V0.143 Q42.027 0.143 42.027 0.143 Q42.027 0.143 42.027 0.143 H113.418 Z"/></g><g id="Regular-L" transform="matrix(1 0 0 1 1378.56 1556)"><path d="M58.695 -22.491 V-47.969 Q58.695 -50.351 60.408 -52.063 Q62.122 -53.774 64.661 -53.774 H90.139 Q92.521 -53.774 94.233 -52.063 Q95.944 -50.351 95.944 -47.969 V-22.491 Q95.944 -19.952 94.233 -18.238 Q92.521 -16.525 90.139 -16.525 H64.661 Q62.122 -16.525 60.408 -18.238 Q58.695 -19.952 58.695 -22.491 Z M56.921 20.24 V12.339 H41.602 Q36.971 12.339 33.401 8.769 Q29.831 5.199 29.831 0.568 V-14.751 H21.93 Q19.39 -14.751 17.677 -16.502 Q15.964 -18.253 15.964 -20.695 Q15.964 -23.136 17.677 -24.829 Q19.39 -26.522 21.93 -26.522 H29.831 V-44.582 H21.93 Q19.39 -44.582 17.677 -46.334 Q15.964 -48.085 15.964 -50.526 Q15.964 -52.967 17.677 -54.661 Q19.39 -56.354 21.93 -56.354 H29.831 V-71.672 Q29.831 -76.304 33.401 -79.874 Q36.971 -83.444 41.602 -83.444 H56.921 V-90.861 Q56.921 -93.244 58.672 -94.955 Q60.423 -96.666 62.865 -96.666 Q65.306 -96.666 66.999 -94.955 Q68.692 -93.244 68.692 -90.861 V-83.444 H86.752 V-90.861 Q86.752 -93.244 88.504 -94.955 Q90.255 -96.666 92.696 -96.666 Q95.138 -96.666 96.831 -94.955 Q98.524 -93.244 98.524 -90.861 V-83.444 H113.843 Q118.474 -83.444 122.044 -79.874 Q125.614 -76.304 125.614 -71.672 V-56.354 H133.031 Q135.414 -56.354 137.125 -54.632 Q138.836 -52.911 138.836 -50.47 Q138.836 -48.028 137.125 -46.305 Q135.414 -44.582 133.031 -44.582 H125.614 V-26.522 H133.031 Q135.414 -26.522 137.125 -24.801 Q138.836 -23.08 138.836 -20.638 Q138.836 -18.197 137.125 -16.474 Q135.414 -14.751 133.031 -14.751 H125.614 V0.568 Q125.614 5.199 122.044 8.769 Q118.474 12.339 113.843 12.339 H98.524 V20.24 Q98.524 22.78 96.802 24.493 Q95.081 26.206 92.64 26.206 Q90.198 26.206 88.475 24.493 Q86.752 22.78 86.752 20.24 V12.339 H68.692 V20.24 Q68.692 22.78 66.971 24.493 Q65.25 26.206 62.808 26.206 Q60.367 26.206 58.644 24.493 Q56.921 22.78 56.921 20.24 Z M113.843 0.568 Q113.843 0.568 113.843 0.568 Q113.843 0.568 113.843 0.568 V-71.672 Q113.843 -71.672 113.843 -71.672 Q113.843 -71.672 113.843 -71.672 H41.602 Q41.602 -71.672 41.602 -71.672 Q41.602 -71.672 41.602 -71.672 V0.568 Q41.602 0.568 41.602 0.568 Q41.602 0.568 41.602 0.568 H113.843 Z"/></g><g id="Light-L" transform="matrix(1 0 0 1 1082.77 1556)"><path d="M61.176 -24.786 V-45.736 Q61.176 -47.979 62.836 -49.667 Q64.495 -51.355 66.956 -51.355 H87.906 Q90.149 -51.355 91.837 -49.667 Q93.525 -47.979 93.525 -45.736 V-24.786 Q93.525 -22.325 91.837 -20.666 Q90.149 -19.006 87.906 -19.006 H66.956 Q64.495 -19.006 62.836 -20.666 Q61.176 -22.325 61.176 -24.786 Z M58.534 16.705 V9.114 H44.456 Q39.9 9.114 36.478 5.692 Q33.056 2.27 33.056 -2.286 V-16.364 H25.465 Q23.427 -16.364 22.052 -17.777 Q20.678 -19.19 20.678 -21.132 Q20.678 -23.074 22.052 -24.426 Q23.427 -25.778 25.465 -25.778 H33.056 V-45.141 H25.465 Q23.427 -45.141 22.052 -46.554 Q20.678 -47.967 20.678 -49.909 Q20.678 -51.851 22.052 -53.203 Q23.427 -54.555 25.465 -54.555 H33.056 V-68.633 Q33.056 -73.189 36.478 -76.611 Q39.9 -80.033 44.456 -80.033 H58.534 V-87.326 Q58.534 -89.207 59.947 -90.58 Q61.36 -91.952 63.302 -91.952 Q65.244 -91.952 66.596 -90.58 Q67.948 -89.207 67.948 -87.326 V-80.033 H87.311 V-87.326 Q87.311 -89.207 88.724 -90.58 Q90.137 -91.952 92.079 -91.952 Q94.021 -91.952 95.373 -90.58 Q96.725 -89.207 96.725 -87.326 V-80.033 H110.803 Q115.359 -80.033 118.781 -76.611 Q122.203 -73.189 122.203 -68.633 V-54.555 H129.496 Q131.377 -54.555 132.75 -53.171 Q134.122 -51.788 134.122 -49.846 Q134.122 -47.904 132.75 -46.522 Q131.377 -45.141 129.496 -45.141 H122.203 V-25.778 H129.496 Q131.377 -25.778 132.75 -24.395 Q134.122 -23.011 134.122 -21.069 Q134.122 -19.127 132.75 -17.746 Q131.377 -16.364 129.496 -16.364 H122.203 V-2.286 Q122.203 2.27 118.781 5.692 Q115.359 9.114 110.803 9.114 H96.725 V16.705 Q96.725 18.743 95.341 20.118 Q93.958 21.492 92.016 21.492 Q90.074 21.492 88.692 20.118 Q87.311 18.743 87.311 16.705 V9.114 H67.948 V16.705 Q67.948 18.743 66.565 20.118 Q65.181 21.492 63.239 21.492 Q61.297 21.492 59.916 20.118 Q58.534 18.743 58.534 16.705 Z M110.803 -0.301 Q111.548 -0.301 112.168 -0.921 Q112.788 -1.541 112.788 -2.286 V-68.633 Q112.788 -69.378 112.168 -69.998 Q111.548 -70.618 110.803 -70.618 H44.456 Q43.711 -70.618 43.091 -69.998 Q42.471 -69.378 42.471 -68.633 V-2.286 Q42.471 -1.541 43.091 -0.921 Q43.711 -0.301 44.456 -0.301 H110.803 Z"/></g><g id="Thin-L" transform="matrix(1 0 0 1 787.282 1556)"><path d="M63.657 -27.081 V-43.503 Q63.657 -45.607 65.263 -47.272 Q66.869 -48.936 69.251 -48.936 H85.673 Q87.777 -48.936 89.442 -47.272 Q91.106 -45.607 91.106 -43.503 V-27.081 Q91.106 -24.699 89.442 -23.093 Q87.777 -21.487 85.673 -21.487 H69.251 Q66.869 -21.487 65.263 -23.093 Q63.657 -24.699 63.657 -27.081 Z M60.146 13.17 V5.889 H47.308 Q42.828 5.889 39.555 2.615 Q36.281 -0.658 36.281 -5.138 V-17.976 H29 Q27.462 -17.976 26.426 -19.052 Q25.391 -20.127 25.391 -21.57 Q25.391 -23.012 26.426 -24.023 Q27.462 -25.034 29 -25.034 H36.281 V-45.699 H29 Q27.462 -45.699 26.426 -46.774 Q25.391 -47.85 25.391 -49.292 Q25.391 -50.735 26.426 -51.746 Q27.462 -52.757 29 -52.757 H36.281 V-65.595 Q36.281 -70.075 39.555 -73.348 Q42.828 -76.622 47.308 -76.622 H60.146 V-83.791 Q60.146 -85.172 61.222 -86.206 Q62.297 -87.239 63.74 -87.239 Q65.182 -87.239 66.193 -86.206 Q67.204 -85.172 67.204 -83.791 V-76.622 H87.869 V-83.791 Q87.869 -85.172 88.944 -86.206 Q90.02 -87.239 91.462 -87.239 Q92.905 -87.239 93.916 -86.206 Q94.927 -85.172 94.927 -83.791 V-76.622 H107.765 Q112.245 -76.622 115.518 -73.348 Q118.792 -70.075 118.792 -65.595 V-52.757 H125.961 Q127.342 -52.757 128.376 -51.711 Q129.409 -50.665 129.409 -49.223 Q129.409 -47.78 128.376 -46.739 Q127.342 -45.699 125.961 -45.699 H118.792 V-25.034 H125.961 Q127.342 -25.034 128.376 -23.988 Q129.409 -22.943 129.409 -21.5 Q129.409 -20.058 128.376 -19.017 Q127.342 -17.976 125.961 -17.976 H118.792 V-5.138 Q118.792 -0.658 115.518 2.615 Q112.245 5.889 107.765 5.889 H94.927 V13.17 Q94.927 14.708 93.881 15.744 Q92.835 16.779 91.393 16.779 Q89.95 16.779 88.909 15.744 Q87.869 14.708 87.869 13.17 V5.889 H67.204 V13.17 Q67.204 14.708 66.158 15.744 Q65.113 16.779 63.67 16.779 Q62.228 16.779 61.187 15.744 Q60.146 14.708 60.146 13.17 Z M107.765 -1.169 Q109.253 -1.169 110.493 -2.409 Q111.734 -3.65 111.734 -5.138 V-65.595 Q111.734 -67.083 110.493 -68.323 Q109.253 -69.564 107.765 -69.564 H47.308 Q45.82 -69.564 44.579 -68.323 Q43.339 -67.083 43.339 -65.595 V-5.138 Q43.339 -3.65 44.579 -2.409 Q45.82 -1.169 47.308 -1.169 H107.765 Z"/></g><g id="Ultralight-L" transform="matrix(1 0 0 1 491.205 1556)"><path d="M65.145 -28.457 V-42.164 Q65.145 -44.183 66.719 -45.834 Q68.293 -47.485 70.627 -47.485 H84.334 Q86.353 -47.485 88.004 -45.834 Q89.655 -44.183 89.655 -42.164 V-28.457 Q89.655 -26.123 88.004 -24.549 Q86.353 -22.975 84.334 -22.975 H70.627 Q68.293 -22.975 66.719 -24.549 Q65.145 -26.123 65.145 -28.457 Z M61.114 11.049 V3.954 H49.02 Q44.586 3.954 41.401 0.769 Q38.216 -2.416 38.216 -6.85 V-18.944 H31.121 Q29.884 -18.944 29.051 -19.816 Q28.219 -20.689 28.219 -21.832 Q28.219 -22.975 29.051 -23.781 Q29.884 -24.587 31.121 -24.587 H38.216 V-46.034 H31.121 Q29.884 -46.034 29.051 -46.906 Q28.219 -47.779 28.219 -48.922 Q28.219 -50.065 29.051 -50.871 Q29.884 -51.677 31.121 -51.677 H38.216 V-63.771 Q38.216 -68.206 41.401 -71.39 Q44.586 -74.575 49.02 -74.575 H61.114 V-81.67 Q61.114 -82.75 61.986 -83.581 Q62.859 -84.411 64.002 -84.411 Q65.145 -84.411 65.951 -83.581 Q66.758 -82.75 66.758 -81.67 V-74.575 H88.204 V-81.67 Q88.204 -82.75 89.076 -83.581 Q89.949 -84.411 91.092 -84.411 Q92.235 -84.411 93.041 -83.581 Q93.847 -82.75 93.847 -81.67 V-74.575 H105.941 Q110.376 -74.575 113.56 -71.39 Q116.745 -68.206 116.745 -63.771 V-51.677 H123.84 Q124.92 -51.677 125.751 -50.834 Q126.581 -49.991 126.581 -48.849 Q126.581 -47.706 125.751 -46.87 Q124.92 -46.034 123.84 -46.034 H116.745 V-24.587 H123.84 Q124.92 -24.587 125.751 -23.744 Q126.581 -22.901 126.581 -21.759 Q126.581 -20.616 125.751 -19.78 Q124.92 -18.944 123.84 -18.944 H116.745 V-6.85 Q116.745 -2.416 113.56 0.769 Q110.376 3.954 105.941 3.954 H93.847 V11.049 Q93.847 12.286 93.004 13.119 Q92.161 13.951 91.019 13.951 Q89.876 13.951 89.04 13.119 Q88.204 12.286 88.204 11.049 V3.954 H66.758 V11.049 Q66.758 12.286 65.914 13.119 Q65.071 13.951 63.929 13.951 Q62.786 13.951 61.95 13.119 Q61.114 12.286 61.114 11.049 Z M105.941 -1.69 Q107.876 -1.69 109.489 -3.302 Q111.101 -4.915 111.101 -6.85 V-63.771 Q111.101 -65.706 109.489 -67.319 Q107.876 -68.931 105.941 -68.931 H49.02 Q47.085 -68.931 45.473 -67.319 Q43.86 -65.706 43.86 -63.771 V-6.85 Q43.86 -4.915 45.473 -3.302 Q47.085 -1.69 49.02 -1.69 H105.941 Z"/></g><g id="Bold-M" transform="matrix(1 0 0 1 2281.8 1126)"><path d="M43.75 -27.48 V-42.98 Q43.75 -46.43 46.275 -48.955 Q48.8 -51.48 52.25 -51.48 H67.75 Q71.2 -51.48 73.725 -48.955 Q76.25 -46.43 76.25 -42.98 V-27.48 Q76.25 -24.03 73.725 -21.505 Q71.2 -18.98 67.75 -18.98 H52.25 Q48.8 -18.98 46.275 -21.505 Q43.75 -24.03 43.75 -27.48 Z M41.5 11.27 V5.52 H36.25 Q29.284 5.52 24.267 0.503 Q19.25 -4.514 19.25 -11.48 V-16.73 H13.41 Q10.675 -16.73 8.775 -18.652 Q6.875 -20.575 6.875 -23.302 Q6.875 -25.977 8.812 -27.916 Q10.75 -29.855 13.5 -29.855 H19.25 V-40.605 H13.438 Q10.664 -40.605 8.77 -42.553 Q6.875 -44.5 6.875 -47.265 Q6.875 -49.977 8.812 -51.853 Q10.75 -53.73 13.5 -53.73 H19.25 V-58.98 Q19.25 -65.946 24.267 -70.963 Q29.284 -75.98 36.25 -75.98 H41.5 V-81.82 Q41.5 -84.555 43.422 -86.455 Q45.345 -88.355 48.072 -88.355 Q50.747 -88.355 52.686 -86.435 Q54.625 -84.516 54.625 -81.792 V-75.98 H65.375 V-81.792 Q65.375 -84.566 67.323 -86.46 Q69.27 -88.355 72.035 -88.355 Q74.747 -88.355 76.623 -86.435 Q78.5 -84.516 78.5 -81.792 V-75.98 H83.75 Q90.716 -75.98 95.733 -70.963 Q100.75 -65.946 100.75 -58.98 V-53.73 H106.59 Q109.325 -53.73 111.225 -51.844 Q113.125 -49.957 113.125 -47.283 Q113.125 -44.555 111.206 -42.58 Q109.286 -40.605 106.562 -40.605 H100.75 V-29.855 H106.562 Q109.336 -29.855 111.231 -27.943 Q113.125 -26.03 113.125 -23.318 Q113.125 -20.605 111.206 -18.667 Q109.286 -16.73 106.562 -16.73 H100.75 V-11.48 Q100.75 -4.514 95.733 0.503 Q90.716 5.52 83.75 5.52 H78.5 V11.36 Q78.5 14.095 76.613 15.995 Q74.726 17.895 72.05 17.895 Q69.375 17.895 67.375 15.958 Q65.375 14.02 65.375 11.27 V5.52 H54.625 V11.333 Q54.625 14.106 52.713 16.001 Q50.8 17.895 48.088 17.895 Q45.375 17.895 43.438 15.958 Q41.5 14.02 41.5 11.27 Z M83.75 -11.48 Q83.75 -11.48 83.75 -11.48 Q83.75 -11.48 83.75 -11.48 V-58.98 Q83.75 -58.98 83.75 -58.98 Q83.75 -58.98 83.75 -58.98 H36.25 Q36.25 -58.98 36.25 -58.98 Q36.25 -58.98 36.25 -58.98 V-11.48 Q36.25 -11.48 36.25 -11.48 Q36.25 -11.48 36.25 -11.48 H83.75 Z"/></g><g id="Semibold-M" transform="matrix(1 0 0 1 1985.97 1126)"><path d="M42.88 -25.795 V-44.665 Q42.88 -47.81 45.15 -50.08 Q47.42 -52.349 50.565 -52.349 H69.435 Q72.58 -52.349 74.85 -50.08 Q77.12 -47.81 77.12 -44.665 V-25.795 Q77.12 -22.65 74.85 -20.38 Q72.58 -18.11 69.435 -18.11 H50.565 Q47.42 -18.11 45.15 -20.38 Q42.88 -22.65 42.88 -25.795 Z M42.261 10.02 V4.651 H35.489 Q29.176 4.651 24.648 0.122 Q20.119 -4.406 20.119 -10.719 V-17.491 H14.699 Q11.957 -17.491 10.041 -19.42 Q8.125 -21.349 8.125 -24.086 Q8.125 -26.793 10.062 -28.732 Q12 -30.67 14.75 -30.67 H20.119 V-39.79 H14.715 Q11.951 -39.79 10.038 -41.733 Q8.125 -43.676 8.125 -46.435 Q8.125 -49.163 10.062 -51.066 Q12 -52.969 14.75 -52.969 H20.119 V-59.741 Q20.119 -66.054 24.648 -70.582 Q29.176 -75.11 35.489 -75.11 H42.261 V-80.531 Q42.261 -83.272 44.19 -85.189 Q46.119 -87.105 48.856 -87.105 Q51.563 -87.105 53.502 -85.178 Q55.44 -83.25 55.44 -80.515 V-75.11 H64.56 V-80.515 Q64.56 -83.279 66.503 -85.192 Q68.446 -87.105 71.205 -87.105 Q73.933 -87.105 75.836 -85.178 Q77.739 -83.25 77.739 -80.515 V-75.11 H84.511 Q90.824 -75.11 95.352 -70.582 Q99.88 -66.054 99.88 -59.741 V-52.969 H105.301 Q108.043 -52.969 109.959 -51.06 Q111.875 -49.152 111.875 -46.445 Q111.875 -43.707 109.948 -41.748 Q108.02 -39.79 105.285 -39.79 H99.88 V-30.67 H105.285 Q108.049 -30.67 109.962 -28.747 Q111.875 -26.824 111.875 -24.095 Q111.875 -21.366 109.948 -19.428 Q108.02 -17.491 105.285 -17.491 H99.88 V-10.719 Q99.88 -4.406 95.352 0.122 Q90.824 4.651 84.511 4.651 H77.739 V10.071 Q77.739 12.813 75.83 14.729 Q73.921 16.645 71.213 16.645 Q68.505 16.645 66.533 14.708 Q64.56 12.77 64.56 10.02 V4.651 H55.44 V10.055 Q55.44 12.819 53.517 14.732 Q51.594 16.645 48.865 16.645 Q46.136 16.645 44.198 14.708 Q42.261 12.77 42.261 10.02 Z M84.511 -10.719 Q84.511 -10.719 84.511 -10.719 Q84.511 -10.719 84.511 -10.719 V-59.741 Q84.511 -59.741 84.511 -59.741 Q84.511 -59.741 84.511 -59.741 H35.489 Q35.489 -59.741 35.489 -59.741 Q35.489 -59.741 35.489 -59.741 V-10.719 Q35.489 -10.719 35.489 -10.719 Q35.489 -10.719 35.489 -10.719 H84.511 Z"/></g><g id="Medium-M" transform="matrix(1 0 0 1 1689.91 1126)"><path d="M42.228 -24.532 V-45.928 Q42.228 -48.846 44.306 -50.924 Q46.384 -53.002 49.302 -53.002 H70.698 Q73.616 -53.002 75.694 -50.924 Q77.772 -48.846 77.772 -45.928 V-24.532 Q77.772 -21.614 75.694 -19.536 Q73.616 -17.458 70.698 -17.458 H49.302 Q46.384 -17.458 44.306 -19.536 Q42.228 -21.614 42.228 -24.532 Z M42.831 9.083 V3.998 H34.919 Q29.094 3.998 24.933 -0.163 Q20.772 -4.324 20.772 -10.148 V-18.061 H15.666 Q12.919 -18.061 10.991 -19.995 Q9.062 -21.929 9.062 -24.674 Q9.062 -27.406 11 -29.344 Q12.938 -31.282 15.688 -31.282 H20.772 V-39.178 H15.672 Q12.917 -39.178 10.99 -41.118 Q9.062 -43.058 9.062 -45.812 Q9.062 -48.553 11 -50.475 Q12.938 -52.398 15.688 -52.398 H20.772 V-60.311 Q20.772 -66.136 24.933 -70.297 Q29.094 -74.458 34.919 -74.458 H42.831 V-79.564 Q42.831 -82.31 44.765 -84.239 Q46.699 -86.167 49.444 -86.167 Q52.176 -86.167 54.114 -84.234 Q56.052 -82.301 56.052 -79.557 V-74.458 H63.948 V-79.557 Q63.948 -82.313 65.888 -84.24 Q67.828 -86.167 70.582 -86.167 Q73.323 -86.167 75.246 -84.234 Q77.168 -82.301 77.168 -79.557 V-74.458 H85.082 Q90.906 -74.458 95.067 -70.297 Q99.228 -66.136 99.228 -60.311 V-52.398 H104.334 Q107.081 -52.398 109.009 -50.473 Q110.938 -48.548 110.938 -45.816 Q110.938 -43.071 109.004 -41.125 Q107.071 -39.178 104.328 -39.178 H99.228 V-31.282 H104.328 Q107.083 -31.282 109.01 -29.35 Q110.938 -27.419 110.938 -24.678 Q110.938 -21.936 109.004 -19.999 Q107.071 -18.061 104.328 -18.061 H99.228 V-10.148 Q99.228 -4.324 95.067 -0.163 Q90.906 3.998 85.082 3.998 H77.168 V9.104 Q77.168 11.851 75.243 13.779 Q73.318 15.708 70.585 15.708 Q67.853 15.708 65.901 13.77 Q63.948 11.833 63.948 9.083 V3.998 H56.052 V9.098 Q56.052 11.853 54.12 13.78 Q52.189 15.708 49.448 15.708 Q46.706 15.708 44.769 13.77 Q42.831 11.833 42.831 9.083 Z M85.082 -10.148 Q85.082 -10.148 85.082 -10.148 Q85.082 -10.148 85.082 -10.148 V-60.311 Q85.082 -60.311 85.082 -60.311 Q85.082 -60.311 85.082 -60.311 H34.919 Q34.919 -60.311 34.919 -60.311 Q34.919 -60.311 34.919 -60.311 V-10.148 Q34.919 -10.148 34.919 -10.148 Q34.919 -10.148 34.919 -10.148 H85.082 Z"/></g><g id="Regular-M" transform="matrix(1 0 0 1 1394.06 1126)"><path d="M41.75 -23.605 V-46.855 Q41.75 -49.605 43.688 -51.542 Q45.625 -53.48 48.375 -53.48 H71.625 Q74.375 -53.48 76.312 -51.542 Q78.25 -49.605 78.25 -46.855 V-23.605 Q78.25 -20.855 76.312 -18.917 Q74.375 -16.98 71.625 -16.98 H48.375 Q45.625 -16.98 43.688 -18.917 Q41.75 -20.855 41.75 -23.605 Z M43.25 8.395 V3.52 H34.5 Q29.034 3.52 25.142 -0.372 Q21.25 -4.264 21.25 -9.73 V-18.48 H16.375 Q13.625 -18.48 11.688 -20.417 Q9.75 -22.355 9.75 -25.105 Q9.75 -27.855 11.688 -29.792 Q13.625 -31.73 16.375 -31.73 H21.25 V-38.73 H16.375 Q13.625 -38.73 11.688 -40.667 Q9.75 -42.605 9.75 -45.355 Q9.75 -48.105 11.688 -50.042 Q13.625 -51.98 16.375 -51.98 H21.25 V-60.73 Q21.25 -66.196 25.142 -70.088 Q29.034 -73.98 34.5 -73.98 H43.25 V-78.855 Q43.25 -81.605 45.188 -83.542 Q47.125 -85.48 49.875 -85.48 Q52.625 -85.48 54.562 -83.542 Q56.5 -81.605 56.5 -78.855 V-73.98 H63.5 V-78.855 Q63.5 -81.605 65.438 -83.542 Q67.375 -85.48 70.125 -85.48 Q72.875 -85.48 74.812 -83.542 Q76.75 -81.605 76.75 -78.855 V-73.98 H85.5 Q90.966 -73.98 94.858 -70.088 Q98.75 -66.196 98.75 -60.73 V-51.98 H103.625 Q106.375 -51.98 108.312 -50.042 Q110.25 -48.105 110.25 -45.355 Q110.25 -42.605 108.312 -40.667 Q106.375 -38.73 103.625 -38.73 H98.75 V-31.73 H103.625 Q106.375 -31.73 108.312 -29.792 Q110.25 -27.855 110.25 -25.105 Q110.25 -22.355 108.312 -20.417 Q106.375 -18.48 103.625 -18.48 H98.75 V-9.73 Q98.75 -4.264 94.858 -0.372 Q90.966 3.52 85.5 3.52 H76.75 V8.395 Q76.75 11.145 74.812 13.083 Q72.875 15.02 70.125 15.02 Q67.375 15.02 65.438 13.083 Q63.5 11.145 63.5 8.395 V3.52 H56.5 V8.395 Q56.5 11.145 54.562 13.083 Q52.625 15.02 49.875 15.02 Q47.125 15.02 45.188 13.083 Q43.25 11.145 43.25 8.395 Z M85.5 -9.73 Q85.5 -9.73 85.5 -9.73 Q85.5 -9.73 85.5 -9.73 V-60.73 Q85.5 -60.73 85.5 -60.73 Q85.5 -60.73 85.5 -60.73 H34.5 Q34.5 -60.73 34.5 -60.73 Q34.5 -60.73 34.5 -60.73 V-9.73 Q34.5 -9.73 34.5 -9.73 Q34.5 -9.73 34.5 -9.73 H85.5 Z"/></g><g id="Light-M" transform="matrix(1 0 0 1 1098.18 1126)"><path d="M44.25 -25.624 V-44.836 Q44.25 -47.381 46.05 -49.18 Q47.849 -50.98 50.394 -50.98 H69.606 Q72.151 -50.98 73.951 -49.18 Q75.75 -47.381 75.75 -44.836 V-25.624 Q75.75 -23.079 73.951 -21.279 Q72.151 -19.48 69.606 -19.48 H50.394 Q47.849 -19.48 46.05 -21.279 Q44.25 -23.079 44.25 -25.624 Z M44.5 5.991 V1.02 H36.039 Q30.91 1.02 27.33 -2.56 Q23.75 -6.139 23.75 -11.269 V-19.73 H18.779 Q16.56 -19.73 14.982 -21.309 Q13.404 -22.887 13.404 -25.107 Q13.404 -27.326 14.982 -28.903 Q16.56 -30.48 18.779 -30.48 H23.75 V-39.98 H18.779 Q16.56 -39.98 14.982 -41.559 Q13.404 -43.137 13.404 -45.357 Q13.404 -47.576 14.982 -49.153 Q16.56 -50.73 18.779 -50.73 H23.75 V-59.191 Q23.75 -64.32 27.33 -67.9 Q30.91 -71.48 36.039 -71.48 H44.5 V-76.451 Q44.5 -78.67 46.079 -80.248 Q47.657 -81.826 49.877 -81.826 Q52.096 -81.826 53.673 -80.248 Q55.25 -78.67 55.25 -76.451 V-71.48 H64.75 V-76.451 Q64.75 -78.67 66.329 -80.248 Q67.907 -81.826 70.127 -81.826 Q72.346 -81.826 73.923 -80.248 Q75.5 -78.67 75.5 -76.451 V-71.48 H83.961 Q89.091 -71.48 92.67 -67.9 Q96.25 -64.32 96.25 -59.191 V-50.73 H101.221 Q103.44 -50.73 105.018 -49.151 Q106.596 -47.573 106.596 -45.353 Q106.596 -43.134 105.018 -41.557 Q103.44 -39.98 101.221 -39.98 H96.25 V-30.48 H101.221 Q103.44 -30.48 105.018 -28.901 Q106.596 -27.323 106.596 -25.103 Q106.596 -22.884 105.018 -21.307 Q103.44 -19.73 101.221 -19.73 H96.25 V-11.269 Q96.25 -6.139 92.67 -2.56 Q89.091 1.02 83.961 1.02 H75.5 V5.991 Q75.5 8.21 73.921 9.788 Q72.343 11.366 70.123 11.366 Q67.904 11.366 66.327 9.788 Q64.75 8.21 64.75 5.991 V1.02 H55.25 V5.991 Q55.25 8.21 53.671 9.788 Q52.093 11.366 49.873 11.366 Q47.654 11.366 46.077 9.788 Q44.5 8.21 44.5 5.991 Z M83.961 -9.73 Q84.538 -9.73 85.019 -10.211 Q85.5 -10.692 85.5 -11.269 V-59.191 Q85.5 -59.768 85.019 -60.249 Q84.538 -60.73 83.961 -60.73 H36.039 Q35.462 -60.73 34.981 -60.249 Q34.5 -59.768 34.5 -59.191 V-11.269 Q34.5 -10.692 34.981 -10.211 Q35.462 -9.73 36.039 -9.73 H83.961 Z"/></g><g id="Thin-M" transform="matrix(1 0 0 1 802.565 1126)"><path d="M46.75 -27.643 V-42.817 Q46.75 -45.158 48.411 -46.819 Q50.072 -48.48 52.413 -48.48 H67.587 Q69.928 -48.48 71.589 -46.819 Q73.25 -45.158 73.25 -42.817 V-27.643 Q73.25 -25.302 71.589 -23.641 Q69.928 -21.98 67.587 -21.98 H52.413 Q50.072 -21.98 48.411 -23.641 Q46.75 -25.302 46.75 -27.643 Z M45.75 3.587 V-1.48 H37.577 Q32.784 -1.48 29.517 -4.747 Q26.25 -8.014 26.25 -12.807 V-20.98 H21.183 Q19.495 -20.98 18.276 -22.2 Q17.058 -23.419 17.058 -25.108 Q17.058 -26.797 18.276 -28.014 Q19.495 -29.23 21.183 -29.23 H26.25 V-41.23 H21.183 Q19.495 -41.23 18.276 -42.45 Q17.058 -43.669 17.058 -45.358 Q17.058 -47.047 18.276 -48.264 Q19.495 -49.48 21.183 -49.48 H26.25 V-57.653 Q26.25 -62.446 29.517 -65.713 Q32.784 -68.98 37.577 -68.98 H45.75 V-74.047 Q45.75 -75.735 46.97 -76.954 Q48.189 -78.172 49.878 -78.172 Q51.567 -78.172 52.784 -76.954 Q54 -75.735 54 -74.047 V-68.98 H66 V-74.047 Q66 -75.735 67.22 -76.954 Q68.439 -78.172 70.128 -78.172 Q71.817 -78.172 73.034 -76.954 Q74.25 -75.735 74.25 -74.047 V-68.98 H82.423 Q87.216 -68.98 90.483 -65.713 Q93.75 -62.446 93.75 -57.653 V-49.48 H98.817 Q100.505 -49.48 101.724 -48.26 Q102.942 -47.041 102.942 -45.352 Q102.942 -43.663 101.724 -42.446 Q100.505 -41.23 98.817 -41.23 H93.75 V-29.23 H98.817 Q100.505 -29.23 101.724 -28.01 Q102.942 -26.791 102.942 -25.102 Q102.942 -23.413 101.724 -22.196 Q100.505 -20.98 98.817 -20.98 H93.75 V-12.807 Q93.75 -8.014 90.483 -4.747 Q87.216 -1.48 82.423 -1.48 H74.25 V3.587 Q74.25 5.275 73.03 6.494 Q71.811 7.712 70.122 7.712 Q68.433 7.712 67.216 6.494 Q66 5.275 66 3.587 V-1.48 H54 V3.587 Q54 5.275 52.78 6.494 Q51.561 7.712 49.872 7.712 Q48.183 7.712 46.966 6.494 Q45.75 5.275 45.75 3.587 Z M82.423 -9.73 Q83.577 -9.73 84.538 -10.691 Q85.5 -11.653 85.5 -12.807 V-57.653 Q85.5 -58.807 84.538 -59.768 Q83.577 -60.73 82.423 -60.73 H37.577 Q36.423 -60.73 35.462 -59.768 Q34.5 -58.807 34.5 -57.653 V-12.807 Q34.5 -11.653 35.462 -10.691 Q36.423 -9.73 37.577 -9.73 H82.423 Z"/></g><g id="Ultralight-M" transform="matrix(1 0 0 1 506.415 1126)"><path d="M48.25 -28.855 V-41.605 Q48.25 -43.824 49.828 -45.402 Q51.406 -46.98 53.625 -46.98 H66.375 Q68.594 -46.98 70.172 -45.402 Q71.75 -43.824 71.75 -41.605 V-28.855 Q71.75 -26.636 70.172 -25.058 Q68.594 -23.48 66.375 -23.48 H53.625 Q51.406 -23.48 49.828 -25.058 Q48.25 -26.636 48.25 -28.855 Z M46.5 2.145 V-2.98 H38.5 Q33.909 -2.98 30.83 -6.06 Q27.75 -9.139 27.75 -13.73 V-21.73 H22.625 Q21.256 -21.73 20.253 -22.734 Q19.25 -23.739 19.25 -25.109 Q19.25 -26.48 20.253 -27.48 Q21.256 -28.48 22.625 -28.48 H27.75 V-41.98 H22.625 Q21.256 -41.98 20.253 -42.984 Q19.25 -43.989 19.25 -45.359 Q19.25 -46.73 20.253 -47.73 Q21.256 -48.73 22.625 -48.73 H27.75 V-56.73 Q27.75 -61.321 30.83 -64.4 Q33.909 -67.48 38.5 -67.48 H46.5 V-72.605 Q46.5 -73.974 47.504 -74.977 Q48.509 -75.98 49.879 -75.98 Q51.25 -75.98 52.25 -74.977 Q53.25 -73.974 53.25 -72.605 V-67.48 H66.75 V-72.605 Q66.75 -73.974 67.754 -74.977 Q68.759 -75.98 70.129 -75.98 Q71.5 -75.98 72.5 -74.977 Q73.5 -73.974 73.5 -72.605 V-67.48 H81.5 Q86.091 -67.48 89.17 -64.4 Q92.25 -61.321 92.25 -56.73 V-48.73 H97.375 Q98.744 -48.73 99.747 -47.726 Q100.75 -46.721 100.75 -45.351 Q100.75 -43.98 99.747 -42.98 Q98.744 -41.98 97.375 -41.98 H92.25 V-28.48 H97.375 Q98.744 -28.48 99.747 -27.476 Q100.75 -26.471 100.75 -25.101 Q100.75 -23.73 99.747 -22.73 Q98.744 -21.73 97.375 -21.73 H92.25 V-13.73 Q92.25 -9.139 89.17 -6.06 Q86.091 -2.98 81.5 -2.98 H73.5 V2.145 Q73.5 3.514 72.496 4.517 Q71.491 5.52 70.121 5.52 Q68.75 5.52 67.75 4.517 Q66.75 3.514 66.75 2.145 V-2.98 H53.25 V2.145 Q53.25 3.514 52.246 4.517 Q51.241 5.52 49.871 5.52 Q48.5 5.52 47.5 4.517 Q46.5 3.514 46.5 2.145 Z M81.5 -9.73 Q83 -9.73 84.25 -10.98 Q85.5 -12.23 85.5 -13.73 V-56.73 Q85.5 -58.23 84.25 -59.48 Q83 -60.73 81.5 -60.73 H38.5 Q37 -60.73 35.75 -59.48 Q34.5 -58.23 34.5 -56.73 V-13.73 Q34.5 -12.23 35.75 -10.98 Q37 -9.73 38.5 -9.73 H81.5 Z"/></g><g id="Bold-S" transform="matrix(1 0 0 1 2294.23 696)"><path d="M36.886 -31.088 V-39.372 Q36.886 -41.927 38.765 -43.805 Q40.643 -45.684 43.198 -45.684 H51.482 Q54.037 -45.684 55.915 -43.805 Q57.794 -41.927 57.794 -39.372 V-31.088 Q57.794 -28.533 55.915 -26.655 Q54.037 -24.776 51.482 -24.776 H43.198 Q40.643 -24.776 38.765 -26.655 Q36.886 -28.533 36.886 -31.088 Z M32.744 -0.514 V-7.023 H31.757 Q26.656 -7.023 22.895 -10.785 Q19.133 -14.546 19.133 -19.647 V-20.633 H12.553 Q10.563 -20.633 9.177 -22.031 Q7.791 -23.428 7.791 -25.404 Q7.791 -27.338 9.207 -28.769 Q10.622 -30.2 12.624 -30.2 H19.133 V-40.26 H12.575 Q10.554 -40.26 9.173 -41.677 Q7.791 -43.094 7.791 -45.099 Q7.791 -47.063 9.207 -48.444 Q10.622 -49.826 12.624 -49.826 H19.133 V-50.813 Q19.133 -55.914 22.895 -59.675 Q26.656 -63.437 31.757 -63.437 H32.744 V-70.017 Q32.744 -72.007 34.141 -73.393 Q35.538 -74.779 37.514 -74.779 Q39.448 -74.779 40.879 -73.378 Q42.31 -71.976 42.31 -69.995 V-63.437 H52.37 V-69.995 Q52.37 -72.016 53.787 -73.397 Q55.204 -74.779 57.209 -74.779 Q59.173 -74.779 60.554 -73.378 Q61.937 -71.976 61.937 -69.995 V-63.437 H62.923 Q68.024 -63.437 71.785 -59.675 Q75.547 -55.914 75.547 -50.813 V-49.826 H82.127 Q84.117 -49.826 85.503 -48.457 Q86.889 -47.088 86.889 -45.155 Q86.889 -43.179 85.488 -41.72 Q84.086 -40.26 82.105 -40.26 H75.547 V-30.2 H82.105 Q84.126 -30.2 85.507 -28.811 Q86.889 -27.421 86.889 -25.457 Q86.889 -23.494 85.488 -22.064 Q84.086 -20.633 82.105 -20.633 H75.547 V-19.647 Q75.547 -14.546 71.785 -10.785 Q68.024 -7.023 62.923 -7.023 H61.937 V-0.443 Q61.937 1.547 60.567 2.933 Q59.197 4.319 57.263 4.319 Q55.329 4.319 53.849 2.903 Q52.37 1.488 52.37 -0.514 V-7.023 H42.31 V-0.465 Q42.31 1.556 40.921 2.937 Q39.531 4.319 37.567 4.319 Q35.604 4.319 34.174 2.903 Q32.744 1.488 32.744 -0.514 Z M62.923 -19.647 Q62.923 -19.647 62.923 -19.647 Q62.923 -19.647 62.923 -19.647 V-50.813 Q62.923 -50.813 62.923 -50.813 Q62.923 -50.813 62.923 -50.813 H31.757 Q31.757 -50.813 31.757 -50.813 Q31.757 -50.813 31.757 -50.813 V-19.647 Q31.757 -19.647 31.757 -19.647 Q31.757 -19.647 31.757 -19.647 H62.923 Z"/></g><g id="Semibold-S" transform="matrix(1 0 0 1 1998.1 696)"><path d="M36.2 -29.759 V-40.701 Q36.2 -43.016 37.877 -44.693 Q39.554 -46.37 41.869 -46.37 H52.811 Q55.126 -46.37 56.803 -44.693 Q58.48 -43.016 58.48 -40.701 V-29.759 Q58.48 -27.444 56.803 -25.767 Q55.126 -24.09 52.811 -24.09 H41.869 Q39.554 -24.09 37.877 -25.767 Q36.2 -27.444 36.2 -29.759 Z M33.344 -1.5 V-7.709 H31.157 Q26.57 -7.709 23.195 -11.085 Q19.819 -14.46 19.819 -19.047 V-21.234 H13.57 Q11.575 -21.234 10.176 -22.636 Q8.778 -24.039 8.778 -26.022 Q8.778 -27.982 10.193 -29.413 Q11.608 -30.843 13.61 -30.843 H19.819 V-39.617 H13.582 Q11.57 -39.617 10.174 -41.031 Q8.778 -42.444 8.778 -44.444 Q8.778 -46.42 10.193 -47.823 Q11.608 -49.226 13.61 -49.226 H19.819 V-51.413 Q19.819 -56 23.195 -59.375 Q26.57 -62.751 31.157 -62.751 H33.344 V-69 Q33.344 -70.995 34.746 -72.394 Q36.149 -73.792 38.132 -73.792 Q40.092 -73.792 41.523 -72.385 Q42.953 -70.978 42.953 -68.988 V-62.751 H51.727 V-68.988 Q51.727 -71 53.141 -72.396 Q54.554 -73.792 56.554 -73.792 Q58.53 -73.792 59.933 -72.385 Q61.336 -70.978 61.336 -68.988 V-62.751 H63.523 Q68.11 -62.751 71.485 -59.375 Q74.861 -56 74.861 -51.413 V-49.226 H81.11 Q83.105 -49.226 84.504 -47.84 Q85.902 -46.453 85.902 -44.494 Q85.902 -42.51 84.495 -41.063 Q83.088 -39.617 81.098 -39.617 H74.861 V-30.843 H81.098 Q83.11 -30.843 84.506 -29.445 Q85.902 -28.047 85.902 -26.071 Q85.902 -24.094 84.495 -22.664 Q83.088 -21.234 81.098 -21.234 H74.861 V-19.047 Q74.861 -14.46 71.485 -11.085 Q68.11 -7.709 63.523 -7.709 H61.336 V-1.46 Q61.336 0.535 59.949 1.934 Q58.563 3.332 56.603 3.332 Q54.643 3.332 53.185 1.917 Q51.727 0.502 51.727 -1.5 V-7.709 H42.953 V-1.472 Q42.953 0.54 41.555 1.936 Q40.157 3.332 38.181 3.332 Q36.204 3.332 34.774 1.917 Q33.344 0.502 33.344 -1.5 Z M63.523 -19.047 Q63.523 -19.047 63.523 -19.047 Q63.523 -19.047 63.523 -19.047 V-51.413 Q63.523 -51.413 63.523 -51.413 Q63.523 -51.413 63.523 -51.413 H31.157 Q31.157 -51.413 31.157 -51.413 Q31.157 -51.413 31.157 -51.413 V-19.047 Q31.157 -19.047 31.157 -19.047 Q31.157 -19.047 31.157 -19.047 H63.523 Z"/></g><g id="Medium-S" transform="matrix(1 0 0 1 1701.85 696)"><path d="M35.685 -28.761 V-41.699 Q35.685 -43.833 37.211 -45.359 Q38.737 -46.885 40.871 -46.885 H53.809 Q55.943 -46.885 57.469 -45.359 Q58.995 -43.833 58.995 -41.699 V-28.761 Q58.995 -26.627 57.469 -25.101 Q55.943 -23.575 53.809 -23.575 H40.871 Q38.737 -23.575 37.211 -25.101 Q35.685 -26.627 35.685 -28.761 Z M33.794 -2.24 V-8.224 H30.707 Q26.506 -8.224 23.42 -11.31 Q20.334 -14.396 20.334 -18.597 V-21.684 H14.333 Q12.334 -21.684 10.925 -23.091 Q9.517 -24.497 9.517 -26.486 Q9.517 -28.465 10.933 -29.895 Q12.348 -31.326 14.35 -31.326 H20.334 V-39.134 H14.338 Q12.332 -39.134 10.924 -40.545 Q9.517 -41.957 9.517 -43.953 Q9.517 -45.939 10.933 -47.357 Q12.348 -48.776 14.35 -48.776 H20.334 V-51.863 Q20.334 -56.064 23.42 -59.15 Q26.506 -62.236 30.707 -62.236 H33.794 V-68.237 Q33.794 -70.236 35.201 -71.645 Q36.607 -73.053 38.596 -73.053 Q40.575 -73.053 42.005 -71.641 Q43.436 -70.229 43.436 -68.232 V-62.236 H51.244 V-68.232 Q51.244 -70.238 52.655 -71.646 Q54.067 -73.053 56.063 -73.053 Q58.049 -73.053 59.467 -71.641 Q60.886 -70.229 60.886 -68.232 V-62.236 H63.973 Q68.174 -62.236 71.26 -59.15 Q74.346 -56.064 74.346 -51.863 V-48.776 H80.347 Q82.346 -48.776 83.755 -47.376 Q85.163 -45.977 85.163 -43.998 Q85.163 -42.009 83.751 -40.571 Q82.339 -39.134 80.342 -39.134 H74.346 V-31.326 H80.342 Q82.348 -31.326 83.756 -29.921 Q85.163 -28.517 85.163 -26.53 Q85.163 -24.544 83.751 -23.114 Q82.339 -21.684 80.342 -21.684 H74.346 V-18.597 Q74.346 -14.396 71.26 -11.31 Q68.174 -8.224 63.973 -8.224 H60.886 V-2.223 Q60.886 -0.224 59.486 1.185 Q58.086 2.593 56.107 2.593 Q54.128 2.593 52.686 1.177 Q51.244 -0.238 51.244 -2.24 V-8.224 H43.436 V-2.228 Q43.436 -0.222 42.031 1.186 Q40.627 2.593 38.64 2.593 Q36.654 2.593 35.224 1.177 Q33.794 -0.238 33.794 -2.24 Z M63.973 -18.597 Q63.973 -18.597 63.973 -18.597 Q63.973 -18.597 63.973 -18.597 V-51.863 Q63.973 -51.863 63.973 -51.863 Q63.973 -51.863 63.973 -51.863 H30.707 Q30.707 -51.863 30.707 -51.863 Q30.707 -51.863 30.707 -51.863 V-18.597 Q30.707 -18.597 30.707 -18.597 Q30.707 -18.597 30.707 -18.597 H63.973 Z"/></g><g id="Regular-S" transform="matrix(1 0 0 1 1405.73 696)"><path d="M35.308 -28.03 V-42.43 Q35.308 -44.432 36.723 -45.847 Q38.138 -47.262 40.14 -47.262 H54.54 Q56.542 -47.262 57.957 -45.847 Q59.372 -44.432 59.372 -42.43 V-28.03 Q59.372 -26.028 57.957 -24.613 Q56.542 -23.198 54.54 -23.198 H40.14 Q38.138 -23.198 36.723 -24.613 Q35.308 -26.028 35.308 -28.03 Z M34.124 -2.782 V-8.601 H30.377 Q26.459 -8.601 23.585 -11.475 Q20.711 -14.349 20.711 -18.266 V-22.014 H14.892 Q12.89 -22.014 11.475 -23.424 Q10.06 -24.833 10.06 -26.826 Q10.06 -28.819 11.475 -30.249 Q12.89 -31.679 14.892 -31.679 H20.711 V-38.78 H14.892 Q12.89 -38.78 11.475 -40.19 Q10.06 -41.599 10.06 -43.592 Q10.06 -45.586 11.475 -47.016 Q12.89 -48.446 14.892 -48.446 H20.711 V-52.193 Q20.711 -56.111 23.585 -58.985 Q26.459 -61.859 30.377 -61.859 H34.124 V-67.678 Q34.124 -69.68 35.534 -71.095 Q36.943 -72.51 38.936 -72.51 Q40.929 -72.51 42.359 -71.095 Q43.79 -69.68 43.79 -67.678 V-61.859 H50.891 V-67.678 Q50.891 -69.68 52.3 -71.095 Q53.709 -72.51 55.702 -72.51 Q57.696 -72.51 59.126 -71.095 Q60.556 -69.68 60.556 -67.678 V-61.859 H64.303 Q68.221 -61.859 71.095 -58.985 Q73.969 -56.111 73.969 -52.193 V-48.446 H79.788 Q81.79 -48.446 83.205 -47.036 Q84.62 -45.627 84.62 -43.634 Q84.62 -41.641 83.205 -40.211 Q81.79 -38.78 79.788 -38.78 H73.969 V-31.679 H79.788 Q81.79 -31.679 83.205 -30.27 Q84.62 -28.861 84.62 -26.868 Q84.62 -24.874 83.205 -23.444 Q81.79 -22.014 79.788 -22.014 H73.969 V-18.266 Q73.969 -14.349 71.095 -11.475 Q68.221 -8.601 64.303 -8.601 H60.556 V-2.782 Q60.556 -0.78 59.146 0.635 Q57.737 2.05 55.744 2.05 Q53.751 2.05 52.321 0.635 Q50.891 -0.78 50.891 -2.782 V-8.601 H43.79 V-2.782 Q43.79 -0.78 42.38 0.635 Q40.971 2.05 38.978 2.05 Q36.984 2.05 35.554 0.635 Q34.124 -0.78 34.124 -2.782 Z M64.303 -18.266 Q64.303 -18.266 64.303 -18.266 Q64.303 -18.266 64.303 -18.266 V-52.193 Q64.303 -52.193 64.303 -52.193 Q64.303 -52.193 64.303 -52.193 H30.377 Q30.377 -52.193 30.377 -52.193 Q30.377 -52.193 30.377 -52.193 V-18.266 Q30.377 -18.266 30.377 -18.266 Q30.377 -18.266 30.377 -18.266 H64.303 Z"/></g><g id="Light-S" transform="matrix(1 0 0 1 1109.75 696)"><path d="M37.28 -29.624 V-40.836 Q37.28 -42.677 38.587 -43.983 Q39.893 -45.29 41.734 -45.29 H52.946 Q54.787 -45.29 56.093 -43.983 Q57.4 -42.677 57.4 -40.836 V-29.624 Q57.4 -27.783 56.093 -26.477 Q54.787 -25.17 52.946 -25.17 H41.734 Q39.893 -25.17 38.587 -26.477 Q37.28 -27.783 37.28 -29.624 Z M35.111 -4.679 V-10.574 H31.59 Q27.938 -10.574 25.311 -13.201 Q22.684 -15.828 22.684 -19.48 V-23.001 H16.789 Q15.206 -23.001 14.075 -24.127 Q12.943 -25.253 12.943 -26.827 Q12.943 -28.402 14.075 -29.548 Q15.206 -30.693 16.789 -30.693 H22.684 V-39.767 H16.789 Q15.206 -39.767 14.075 -40.893 Q12.943 -42.019 12.943 -43.594 Q12.943 -45.168 14.075 -46.314 Q15.206 -47.459 16.789 -47.459 H22.684 V-50.98 Q22.684 -54.632 25.311 -57.259 Q27.938 -59.886 31.59 -59.886 H35.111 V-65.781 Q35.111 -67.364 36.237 -68.495 Q37.363 -69.627 38.937 -69.627 Q40.512 -69.627 41.658 -68.495 Q42.803 -67.364 42.803 -65.781 V-59.886 H51.877 V-65.781 Q51.877 -67.364 53.003 -68.495 Q54.129 -69.627 55.704 -69.627 Q57.278 -69.627 58.424 -68.495 Q59.569 -67.364 59.569 -65.781 V-59.886 H63.09 Q66.742 -59.886 69.369 -57.259 Q71.996 -54.632 71.996 -50.98 V-47.459 H77.891 Q79.474 -47.459 80.605 -46.333 Q81.737 -45.207 81.737 -43.633 Q81.737 -42.058 80.605 -40.912 Q79.474 -39.767 77.891 -39.767 H71.996 V-30.693 H77.891 Q79.474 -30.693 80.605 -29.567 Q81.737 -28.441 81.737 -26.866 Q81.737 -25.292 80.605 -24.146 Q79.474 -23.001 77.891 -23.001 H71.996 V-19.48 Q71.996 -15.828 69.369 -13.201 Q66.742 -10.574 63.09 -10.574 H59.569 V-4.679 Q59.569 -3.096 58.443 -1.965 Q57.317 -0.833 55.743 -0.833 Q54.168 -0.833 53.022 -1.965 Q51.877 -3.096 51.877 -4.679 V-10.574 H42.803 V-4.679 Q42.803 -3.096 41.677 -1.965 Q40.551 -0.833 38.976 -0.833 Q37.402 -0.833 36.256 -1.965 Q35.111 -3.096 35.111 -4.679 Z M63.09 -18.266 Q63.545 -18.266 63.924 -18.646 Q64.303 -19.025 64.303 -19.48 V-50.98 Q64.303 -51.435 63.924 -51.814 Q63.545 -52.193 63.09 -52.193 H31.59 Q31.135 -52.193 30.756 -51.814 Q30.377 -51.435 30.377 -50.98 V-19.48 Q30.377 -19.025 30.756 -18.646 Q31.135 -18.266 31.59 -18.266 H63.09 Z"/></g><g id="Thin-S" transform="matrix(1 0 0 1 814.015 696)"><path d="M39.253 -31.217 V-39.243 Q39.253 -40.923 40.45 -42.12 Q41.647 -43.317 43.327 -43.317 H51.353 Q53.033 -43.317 54.23 -42.12 Q55.427 -40.923 55.427 -39.243 V-31.217 Q55.427 -29.537 54.23 -28.34 Q53.033 -27.143 51.353 -27.143 H43.327 Q41.647 -27.143 40.45 -28.34 Q39.253 -29.537 39.253 -31.217 Z M36.097 -6.576 V-12.546 H32.804 Q29.417 -12.546 27.037 -14.927 Q24.656 -17.307 24.656 -20.694 V-23.987 H18.686 Q17.522 -23.987 16.674 -24.83 Q15.825 -25.673 15.825 -26.829 Q15.825 -27.985 16.674 -28.846 Q17.522 -29.707 18.686 -29.707 H24.656 V-40.753 H18.686 Q17.522 -40.753 16.674 -41.596 Q15.825 -42.439 15.825 -43.595 Q15.825 -44.751 16.674 -45.612 Q17.522 -46.473 18.686 -46.473 H24.656 V-49.766 Q24.656 -53.153 27.037 -55.533 Q29.417 -57.914 32.804 -57.914 H36.097 V-63.884 Q36.097 -65.048 36.94 -65.896 Q37.783 -66.745 38.939 -66.745 Q40.095 -66.745 40.956 -65.896 Q41.817 -65.048 41.817 -63.884 V-57.914 H52.863 V-63.884 Q52.863 -65.048 53.706 -65.896 Q54.549 -66.745 55.705 -66.745 Q56.861 -66.745 57.722 -65.896 Q58.583 -65.048 58.583 -63.884 V-57.914 H61.876 Q65.263 -57.914 67.643 -55.533 Q70.024 -53.153 70.024 -49.766 V-46.473 H75.994 Q77.158 -46.473 78.006 -45.63 Q78.855 -44.787 78.855 -43.631 Q78.855 -42.475 78.006 -41.614 Q77.158 -40.753 75.994 -40.753 H70.024 V-29.707 H75.994 Q77.158 -29.707 78.006 -28.864 Q78.855 -28.021 78.855 -26.865 Q78.855 -25.709 78.006 -24.848 Q77.158 -23.987 75.994 -23.987 H70.024 V-20.694 Q70.024 -17.307 67.643 -14.927 Q65.263 -12.546 61.876 -12.546 H58.583 V-6.576 Q58.583 -5.412 57.74 -4.564 Q56.897 -3.715 55.741 -3.715 Q54.585 -3.715 53.724 -4.564 Q52.863 -5.412 52.863 -6.576 V-12.546 H41.817 V-6.576 Q41.817 -5.412 40.974 -4.564 Q40.131 -3.715 38.975 -3.715 Q37.819 -3.715 36.958 -4.564 Q36.097 -5.412 36.097 -6.576 Z M61.876 -18.266 Q62.786 -18.266 63.545 -19.025 Q64.303 -19.784 64.303 -20.694 V-49.766 Q64.303 -50.676 63.545 -51.435 Q62.786 -52.193 61.876 -52.193 H32.804 Q31.894 -52.193 31.135 -51.435 Q30.377 -50.676 30.377 -49.766 V-20.694 Q30.377 -19.784 31.135 -19.025 Q31.894 -18.266 32.804 -18.266 H61.876 Z"/></g><g id="Ultralight-S" transform="matrix(1 0 0 1 517.792 696)"><path d="M40.436 -32.173 V-38.287 Q40.436 -39.87 41.568 -41.002 Q42.7 -42.134 44.283 -42.134 H50.397 Q51.98 -42.134 53.112 -41.002 Q54.244 -39.87 54.244 -38.287 V-32.173 Q54.244 -30.59 53.112 -29.458 Q51.98 -28.326 50.397 -28.326 H44.283 Q42.7 -28.326 41.568 -29.458 Q40.436 -30.59 40.436 -32.173 Z M36.689 -7.714 V-13.73 H33.532 Q30.305 -13.73 28.072 -15.962 Q25.84 -18.195 25.84 -21.422 V-24.578 H19.824 Q18.911 -24.578 18.233 -25.252 Q17.555 -25.925 17.555 -26.83 Q17.555 -27.734 18.233 -28.425 Q18.911 -29.115 19.824 -29.115 H25.84 V-41.345 H19.824 Q18.911 -41.345 18.233 -42.018 Q17.555 -42.691 17.555 -43.596 Q17.555 -44.501 18.233 -45.191 Q18.911 -45.881 19.824 -45.881 H25.84 V-49.037 Q25.84 -52.265 28.072 -54.498 Q30.305 -56.73 33.532 -56.73 H36.689 V-62.746 Q36.689 -63.659 37.362 -64.337 Q38.035 -65.015 38.94 -65.015 Q39.845 -65.015 40.535 -64.337 Q41.225 -63.659 41.225 -62.746 V-56.73 H53.455 V-62.746 Q53.455 -63.659 54.128 -64.337 Q54.801 -65.015 55.706 -65.015 Q56.611 -65.015 57.301 -64.337 Q57.992 -63.659 57.992 -62.746 V-56.73 H61.148 Q64.375 -56.73 66.608 -54.498 Q68.84 -52.265 68.84 -49.037 V-45.881 H74.856 Q75.769 -45.881 76.447 -45.208 Q77.125 -44.535 77.125 -43.63 Q77.125 -42.725 76.447 -42.035 Q75.769 -41.345 74.856 -41.345 H68.84 V-29.115 H74.856 Q75.769 -29.115 76.447 -28.442 Q77.125 -27.769 77.125 -26.864 Q77.125 -25.959 76.447 -25.269 Q75.769 -24.578 74.856 -24.578 H68.84 V-21.422 Q68.84 -18.195 66.608 -15.962 Q64.375 -13.73 61.148 -13.73 H57.992 V-7.714 Q57.992 -6.801 57.318 -6.123 Q56.645 -5.445 55.74 -5.445 Q54.836 -5.445 54.145 -6.123 Q53.455 -6.801 53.455 -7.714 V-13.73 H41.225 V-7.714 Q41.225 -6.801 40.552 -6.123 Q39.879 -5.445 38.974 -5.445 Q38.069 -5.445 37.379 -6.123 Q36.689 -6.801 36.689 -7.714 Z M61.148 -18.266 Q62.331 -18.266 63.317 -19.253 Q64.303 -20.239 64.303 -21.422 V-49.037 Q64.303 -50.221 63.317 -51.207 Q62.331 -52.193 61.148 -52.193 H33.532 Q32.349 -52.193 31.363 -51.207 Q30.377 -50.221 30.377 -49.037 V-21.422 Q30.377 -20.239 31.363 -19.253 Q32.349 -18.266 33.532 -18.266 H61.148 Z"/></g></g></svg>