<svg xmlns="http://www.w3.org/2000/svg" version="1.1" width="3300" height="2000"><g id="Notes"><style>
    text {
      font-family: monospace;
      text-anchor: middle;
    }
    text.emphasis {
      font-weight:bold;
    }
    text.lanchor {
      text-anchor: start;
    }
  </style><rect height="2200" id="artboard" fill="white" width="3300" x="0" y="0"/><line id="" style="fill:none;stroke:black;stroke-width:0.5;" x1="263" x2="3036" y1="292" y2="292"/><text class="lanchor emphasis" transform="matrix(1 0 0 1 263 322)">Weight/Scale Variations</text><text transform="matrix(1 0 0 1 559.711 322)">Ultralight</text><text transform="matrix(1 0 0 1 856.422 322)">Thin</text><text transform="matrix(1 0 0 1 1153.13 322)">Light</text><text transform="matrix(1 0 0 1 1449.84 322)">Regular</text><text transform="matrix(1 0 0 1 1746.56 322)">Medium</text><text transform="matrix(1 0 0 1 2043.27 322)">Semibold</text><text transform="matrix(1 0 0 1 2339.98 322)">Bold</text><text transform="matrix(1 0 0 1 2636.69 322)">Heavy</text><text transform="matrix(1 0 0 1 2933.4 322)">Black</text><text id="template-version" style="text-anchor: end;" transform="matrix(1 0 0 1 3036 1933)">Template v.1.0</text><text class="lanchor" transform="matrix(1 0 0 1 263 726)">Small</text><text class="lanchor" transform="matrix(1 0 0 1 263 1156)">Medium</text><text class="lanchor" transform="matrix(1 0 0 1 263 1586)">Large</text></g><g id="Guides"><g id="H-reference" style="fill:#27AAE1;stroke:none;" transform="matrix(1 0 0 1 339 696)"><path d="M 54.9316 0 L 57.666 0 L 30.5664 -70.459 L 28.0762 -70.459 L 0.976562 0 L 3.66211 0 L 12.9395 -24.4629 L 45.7031 -24.4629 Z M 29.1992 -67.0898 L 29.4434 -67.0898 L 44.8242 -26.709 L 13.8184 -26.709 Z"/></g><line id="Baseline-S" style="fill:none;stroke:#27AAE1;opacity:1;stroke-width:0.577;" x1="263" x2="3036" y1="696" y2="696"/><line id="Capline-S" style="fill:none;stroke:#27AAE1;opacity:1;stroke-width:0.577;" x1="263" x2="3036" y1="625.541" y2="625.541"/><g id="H-reference" style="fill:#27AAE1;stroke:none;" transform="matrix(1 0 0 1 339 1126)"><path d="M 54.9316 0 L 57.666 0 L 30.5664 -70.459 L 28.0762 -70.459 L 0.976562 0 L 3.66211 0 L 12.9395 -24.4629 L 45.7031 -24.4629 Z M 29.1992 -67.0898 L 29.4434 -67.0898 L 44.8242 -26.709 L 13.8184 -26.709 Z"/></g><line id="Baseline-M" style="fill:none;stroke:#27AAE1;opacity:1;stroke-width:0.577;" x1="263" x2="3036" y1="1126" y2="1126"/><line id="Capline-M" style="fill:none;stroke:#27AAE1;opacity:1;stroke-width:0.577;" x1="263" x2="3036" y1="1055.54" y2="1055.54"/><g id="H-reference" style="fill:#27AAE1;stroke:none;" transform="matrix(1 0 0 1 339 1556)"><path d="M 54.9316 0 L 57.666 0 L 30.5664 -70.459 L 28.0762 -70.459 L 0.976562 0 L 3.66211 0 L 12.9395 -24.4629 L 45.7031 -24.4629 Z M 29.1992 -67.0898 L 29.4434 -67.0898 L 44.8242 -26.709 L 13.8184 -26.709 Z"/></g><line id="Baseline-L" style="fill:none;stroke:#27AAE1;opacity:1;stroke-width:0.577;" x1="263" x2="3036" y1="1556" y2="1556"/><line id="Capline-L" style="fill:none;stroke:#27AAE1;opacity:1;stroke-width:0.577;" x1="263" x2="3036" y1="1485.54" y2="1485.54"/><rect height="119.336" id="left-margin" style="fill:darkred;stroke:none;opacity:0.4;" width="12.4512" x="1394.06" y="1030.79"/><rect height="119.336" id="right-margin" style="fill:darkgreen;stroke:none;opacity:0.4;" width="12.4512" x="1502.5112" y="1030.79"/><rect x="1406.5112" y="1045" width="96" height="96" fill="none" stroke="blue" stroke-dasharray="5"/><rect x="1394.06" y="1030.79" width="120.9024" height="119.336" fill="none" stroke="blue"/></g><g id="Symbols"><g id="Bold-L" transform="matrix(1 0 0 1 2266 1556)"><path d="M29.186 -55.222 Q29.186 -45.55 32.008 -35.875 Q34.83 -26.2 40.796 -17.654 Q42.57 -14.59 42.328 -11.365 Q42.086 -8.14 39.99 -6.205 Q37.894 -4.109 34.669 -4.189 Q31.444 -4.27 29.862 -7.045 Q22.253 -17.654 18.383 -29.989 Q14.513 -42.325 14.513 -55.225 Q14.513 -67.802 18.06 -80.219 Q21.608 -92.635 29.67 -103.277 Q31.444 -105.696 34.588 -105.938 Q37.733 -106.18 39.829 -104.245 Q41.925 -101.987 42.167 -98.917 Q42.409 -95.846 40.635 -93.441 Q34.508 -84.895 31.847 -75.059 Q29.186 -65.222 29.186 -55.222 Z M93.203 -39.745 Q86.914 -39.745 82.641 -44.018 Q78.368 -48.291 78.368 -54.58 Q78.368 -61.03 82.641 -65.384 Q86.914 -69.737 93.203 -69.737 Q99.33 -69.737 103.845 -65.384 Q108.36 -61.03 108.36 -54.58 Q108.36 -48.291 103.845 -44.018 Q99.33 -39.745 93.203 -39.745 Z M125.614 3.793 Q125.614 0.729 127.629 -1.448 Q129.645 -3.625 132.856 -3.625 Q135.906 -3.625 138.177 -1.448 Q140.449 0.729 140.449 3.818 Q139.804 17.015 131.98 24.513 Q124.157 32.011 113.366 32.011 Q103.039 32.011 95.782 26.126 Q88.526 20.24 85.301 12.339 Q81.915 3.793 78.771 -0.642 Q75.626 -5.076 67.403 -12.01 Q56.921 -19.911 51.922 -29.989 Q46.924 -40.067 46.924 -54.58 Q46.924 -74.877 59.904 -88.029 Q72.885 -101.181 93.188 -101.181 Q113.008 -101.181 126.486 -87.904 Q139.965 -74.627 140.61 -54.096 Q140.61 -50.871 138.338 -48.856 Q136.067 -46.84 133.017 -46.84 Q129.806 -46.84 127.791 -48.856 Q125.775 -50.871 125.775 -54.096 Q125.13 -68.286 116.181 -77.316 Q107.231 -86.346 93.283 -86.346 Q79.496 -86.346 70.627 -77.28 Q61.759 -68.214 61.759 -54.58 Q61.759 -43.454 66.112 -35.633 Q70.466 -27.812 80.865 -20.072 Q86.752 -15.719 90.381 -10.317 Q94.009 -4.915 97.718 3.148 Q100.459 10.081 104.208 13.629 Q107.957 17.176 113.359 17.176 Q117.874 17.176 121.421 13.548 Q124.969 9.92 125.614 3.793 Z"/></g><g id="Semibold-L" transform="matrix(1 0 0 1 1970.27 1556)"><path d="M28.906 -55.434 Q28.906 -45.48 31.903 -35.7 Q34.9 -25.92 41.077 -17.373 Q42.71 -14.66 42.574 -11.716 Q42.437 -8.771 40.411 -6.976 Q38.455 -5.02 35.475 -5.206 Q32.495 -5.392 30.97 -7.872 Q23.304 -18.355 19.399 -30.445 Q15.494 -42.535 15.494 -55.435 Q15.494 -68.013 19.182 -80.289 Q22.869 -92.565 30.932 -102.997 Q32.565 -105.206 35.464 -105.412 Q38.363 -105.619 40.319 -103.824 Q42.276 -101.777 42.377 -98.955 Q42.479 -96.133 40.845 -93.932 Q34.508 -85.386 31.707 -75.514 Q28.906 -65.643 28.906 -55.434 Z M92.572 -39.535 Q86.143 -39.535 81.729 -43.913 Q77.316 -48.291 77.316 -54.79 Q77.316 -61.31 81.729 -65.839 Q86.143 -70.368 92.572 -70.368 Q98.839 -70.368 103.494 -65.839 Q108.15 -61.31 108.15 -54.79 Q108.15 -48.291 103.494 -43.913 Q98.839 -39.535 92.572 -39.535 Z M125.824 4.634 Q125.824 1.85 127.7 -0.151 Q129.575 -2.153 132.441 -2.153 Q135.217 -2.153 137.272 -0.151 Q139.327 1.85 139.327 4.648 Q138.682 17.015 131.105 24.303 Q123.528 31.591 113.012 31.591 Q103.109 31.591 95.817 26.091 Q88.526 20.591 85.442 12.829 Q81.985 4.003 78.595 -0.782 Q75.206 -5.567 66.842 -12.431 Q56.15 -20.542 51.397 -30.62 Q46.643 -40.698 46.643 -54.79 Q46.643 -74.956 59.519 -87.928 Q72.394 -100.901 92.564 -100.901 Q112.249 -100.901 125.581 -87.928 Q138.913 -74.955 139.558 -54.937 Q139.558 -52.063 137.503 -50.188 Q135.448 -48.312 132.673 -48.312 Q129.806 -48.312 127.931 -50.188 Q126.055 -52.063 126.055 -54.937 Q125.41 -69.198 116.11 -78.298 Q106.811 -87.398 92.617 -87.398 Q78.585 -87.398 69.366 -78.032 Q60.146 -68.666 60.146 -54.79 Q60.146 -43.524 64.535 -35.493 Q68.924 -27.462 79.709 -19.442 Q85.701 -14.948 89.329 -9.546 Q92.957 -4.144 96.526 3.989 Q99.267 10.852 103.314 14.47 Q107.361 18.088 112.938 18.088 Q117.874 18.088 121.526 14.46 Q125.179 10.831 125.824 4.634 Z"/></g><g id="Medium-L" transform="matrix(1 0 0 1 1674.31 1556)"><path d="M28.696 -55.592 Q28.696 -45.427 31.824 -35.568 Q34.953 -25.709 41.287 -17.163 Q42.815 -14.713 42.758 -11.978 Q42.7 -9.244 40.726 -7.555 Q38.875 -5.704 36.08 -5.968 Q33.284 -6.233 31.802 -8.492 Q24.093 -18.881 20.162 -30.787 Q16.23 -42.693 16.23 -55.593 Q16.23 -68.171 20.023 -80.341 Q23.816 -92.512 31.878 -102.787 Q33.407 -104.837 36.122 -105.018 Q38.837 -105.198 40.688 -103.509 Q42.538 -101.619 42.535 -98.983 Q42.531 -96.347 41.003 -94.3 Q34.508 -85.754 31.601 -75.856 Q28.696 -65.959 28.696 -55.592 Z M92.098 -39.377 Q85.564 -39.377 81.046 -43.834 Q76.527 -48.291 76.527 -54.948 Q76.527 -61.521 81.046 -66.181 Q85.564 -70.842 92.098 -70.842 Q98.471 -70.842 103.232 -66.181 Q107.992 -61.521 107.992 -54.948 Q107.992 -48.291 103.232 -43.834 Q98.471 -39.377 92.098 -39.377 Z M125.982 5.265 Q125.982 2.692 127.752 0.822 Q129.522 -1.049 132.131 -1.049 Q134.7 -1.049 136.593 0.822 Q138.486 2.692 138.486 5.271 Q137.841 17.015 130.449 24.145 Q123.057 31.275 112.747 31.275 Q103.161 31.275 95.844 26.064 Q88.526 20.853 85.547 13.198 Q82.038 4.161 78.464 -0.887 Q74.89 -5.935 66.421 -12.746 Q55.572 -21.015 51.002 -31.094 Q46.433 -41.172 46.433 -54.948 Q46.433 -75.015 59.23 -87.853 Q72.026 -100.691 92.095 -100.691 Q111.68 -100.691 124.902 -87.946 Q138.125 -75.201 138.77 -55.568 Q138.77 -52.957 136.877 -51.187 Q134.984 -49.416 132.414 -49.416 Q129.806 -49.416 128.036 -51.187 Q126.266 -52.957 126.266 -55.568 Q125.621 -69.881 116.058 -79.034 Q106.495 -88.187 92.118 -88.187 Q77.901 -88.187 68.419 -78.596 Q58.937 -69.005 58.937 -54.948 Q58.937 -43.576 63.352 -35.388 Q67.767 -27.199 78.842 -18.968 Q84.912 -14.369 88.54 -8.967 Q92.168 -3.565 95.632 4.62 Q98.373 11.431 102.644 15.101 Q106.914 18.771 112.623 18.771 Q117.874 18.771 121.605 15.143 Q125.337 11.515 125.982 5.265 Z"/></g><g id="Regular-L" transform="matrix(1 0 0 1 1378.56 1556)"><path d="M28.541 -55.709 Q28.541 -45.389 31.766 -35.472 Q34.991 -25.555 41.441 -17.009 Q42.892 -14.751 42.892 -12.171 Q42.892 -9.591 40.958 -7.979 Q39.184 -6.205 36.523 -6.527 Q33.863 -6.85 32.411 -8.946 Q24.671 -19.266 20.721 -31.037 Q16.77 -42.809 16.77 -55.709 Q16.77 -68.286 20.64 -80.38 Q24.51 -92.474 32.572 -102.632 Q34.024 -104.567 36.604 -104.729 Q39.184 -104.89 40.958 -103.277 Q42.731 -101.504 42.651 -99.004 Q42.57 -96.505 41.119 -94.57 Q34.508 -86.024 31.524 -76.107 Q28.541 -66.19 28.541 -55.709 Z M91.751 -39.261 Q85.14 -39.261 80.544 -43.776 Q75.949 -48.291 75.949 -55.064 Q75.949 -61.675 80.544 -66.432 Q85.14 -71.189 91.751 -71.189 Q98.201 -71.189 103.039 -66.432 Q107.876 -61.675 107.876 -55.064 Q107.876 -48.291 103.039 -43.776 Q98.201 -39.261 91.751 -39.261 Z M126.097 5.728 Q126.097 3.309 127.791 1.535 Q129.484 -0.239 131.903 -0.239 Q134.321 -0.239 136.095 1.535 Q137.869 3.309 137.869 5.728 Q137.224 17.015 129.968 24.029 Q122.711 31.044 112.553 31.044 Q103.2 31.044 95.863 26.045 Q88.526 21.046 85.624 13.468 Q82.076 4.276 78.368 -0.964 Q74.659 -6.205 66.112 -12.977 Q55.148 -21.362 50.713 -31.441 Q46.279 -41.519 46.279 -55.064 Q46.279 -75.059 59.017 -87.797 Q71.756 -100.536 91.751 -100.536 Q111.263 -100.536 124.404 -87.959 Q137.546 -75.381 138.191 -56.031 Q138.191 -53.612 136.417 -51.919 Q134.644 -50.226 132.225 -50.226 Q129.806 -50.226 128.113 -51.919 Q126.42 -53.612 126.42 -56.031 Q125.775 -70.382 116.019 -79.574 Q106.264 -88.765 91.751 -88.765 Q77.4 -88.765 67.725 -79.009 Q58.05 -69.254 58.05 -55.064 Q58.05 -43.615 62.484 -35.311 Q66.919 -27.006 78.206 -18.621 Q84.334 -13.945 87.962 -8.543 Q91.59 -3.141 94.976 5.083 Q97.718 11.855 102.152 15.564 Q106.586 19.273 112.391 19.273 Q117.874 19.273 121.663 15.644 Q125.453 12.016 126.097 5.728 Z"/></g><g id="Light-L" transform="matrix(1 0 0 1 1082.77 1556)"><path d="M27.859 -55.337 Q27.859 -44.893 31.177 -34.914 Q34.495 -24.935 41.007 -16.264 Q42.148 -14.441 42.148 -12.326 Q42.148 -10.211 40.647 -8.971 Q39.246 -7.569 37.112 -7.861 Q34.979 -8.153 33.776 -9.877 Q26.284 -19.762 22.364 -31.255 Q18.445 -42.747 18.445 -55.337 Q18.445 -67.666 22.315 -79.481 Q26.185 -91.295 33.999 -101.144 Q35.202 -102.645 37.224 -102.806 Q39.246 -102.967 40.647 -101.727 Q41.987 -100.263 41.906 -98.229 Q41.826 -96.195 40.685 -94.632 Q34.073 -86.024 30.966 -76.076 Q27.859 -66.128 27.859 -55.337 Z M91.751 -40.006 Q85.512 -40.006 81.196 -44.241 Q76.879 -48.477 76.879 -54.878 Q76.879 -61.117 81.196 -65.564 Q85.512 -70.01 91.751 -70.01 Q97.829 -70.01 102.326 -65.564 Q106.822 -61.117 106.822 -54.878 Q106.822 -48.477 102.326 -44.241 Q97.829 -40.006 91.751 -40.006 Z M126.718 6.658 Q126.718 4.735 128.101 3.272 Q129.484 1.808 131.406 1.808 Q133.329 1.808 134.792 3.272 Q136.256 4.735 136.256 6.658 Q135.239 17.015 128.448 23.254 Q121.657 29.493 112.242 29.493 Q103.324 29.493 96.421 24.557 Q89.519 19.62 86.678 11.979 Q83.379 3.346 79.515 -1.864 Q75.651 -7.073 67.167 -13.846 Q56.45 -21.983 51.985 -31.968 Q47.519 -41.953 47.519 -54.878 Q47.519 -74.19 59.979 -86.619 Q72.438 -99.048 91.751 -99.048 Q110.27 -99.048 122.947 -87.183 Q135.624 -75.319 136.517 -56.962 Q136.517 -55.039 135.084 -53.687 Q133.651 -52.335 131.729 -52.335 Q129.806 -52.335 128.454 -53.687 Q127.102 -55.039 127.102 -56.962 Q126.209 -71.313 116.205 -80.473 Q106.202 -89.633 91.751 -89.633 Q76.966 -89.633 66.95 -79.568 Q56.934 -69.502 56.934 -54.878 Q56.934 -43.367 61.709 -34.69 Q66.485 -26.014 77.214 -18.001 Q83.528 -13.139 87.125 -7.954 Q90.722 -2.769 94.108 5.393 Q96.973 12.351 101.47 16.215 Q105.966 20.079 112.081 20.079 Q117.688 20.079 121.725 16.513 Q125.763 12.947 126.718 6.658 Z"/></g><g id="Thin-L" transform="matrix(1 0 0 1 787.282 1556)"><path d="M27.177 -54.965 Q27.177 -44.396 30.588 -34.356 Q33.999 -24.315 40.573 -15.52 Q41.404 -14.131 41.404 -12.481 Q41.404 -10.832 40.337 -9.963 Q39.308 -8.934 37.702 -9.194 Q36.095 -9.455 35.14 -10.807 Q27.896 -20.259 24.008 -31.472 Q20.119 -42.685 20.119 -54.965 Q20.119 -67.046 23.989 -78.581 Q27.859 -90.117 35.425 -99.656 Q36.38 -100.722 37.844 -100.884 Q39.308 -101.045 40.337 -100.177 Q41.243 -99.023 41.162 -97.454 Q41.082 -95.885 40.25 -94.694 Q33.639 -86.024 30.408 -76.045 Q27.177 -66.066 27.177 -54.965 Z M91.751 -40.75 Q85.884 -40.75 81.847 -44.707 Q77.809 -48.663 77.809 -54.692 Q77.809 -60.559 81.847 -64.695 Q85.884 -68.832 91.751 -68.832 Q97.457 -68.832 101.612 -64.695 Q105.768 -60.559 105.768 -54.692 Q105.768 -48.663 101.612 -44.707 Q97.457 -40.75 91.751 -40.75 Z M127.338 7.588 Q127.338 6.162 128.411 5.008 Q129.484 3.854 130.91 3.854 Q132.337 3.854 133.49 5.008 Q134.644 6.162 134.644 7.588 Q133.255 17.015 126.929 22.479 Q120.603 27.943 111.932 27.943 Q103.448 27.943 96.979 23.068 Q90.511 18.193 87.732 10.491 Q84.681 2.416 80.662 -2.763 Q76.643 -7.942 68.221 -14.714 Q57.752 -22.603 53.256 -32.495 Q48.76 -42.387 48.76 -54.692 Q48.76 -73.322 60.94 -85.441 Q73.121 -97.559 91.751 -97.559 Q109.278 -97.559 121.489 -86.408 Q133.701 -75.257 134.842 -57.892 Q134.842 -56.465 133.751 -55.454 Q132.659 -54.444 131.233 -54.444 Q129.806 -54.444 128.795 -55.454 Q127.784 -56.465 127.784 -57.892 Q126.643 -72.243 116.392 -81.372 Q106.14 -90.502 91.751 -90.502 Q76.532 -90.502 66.175 -80.126 Q55.817 -69.75 55.817 -54.692 Q55.817 -43.119 60.934 -34.07 Q66.05 -25.022 76.222 -17.381 Q82.721 -12.332 86.287 -7.365 Q89.853 -2.397 93.24 5.703 Q96.229 12.847 100.788 16.866 Q105.346 20.885 111.771 20.885 Q117.502 20.885 121.787 17.381 Q126.073 13.877 127.338 7.588 Z"/></g><g id="Ultralight-L" transform="matrix(1 0 0 1 491.205 1556)"><path d="M26.768 -54.741 Q26.768 -44.099 30.234 -34.021 Q33.701 -23.942 40.312 -15.074 Q40.958 -13.945 40.958 -12.574 Q40.958 -11.204 40.151 -10.559 Q39.345 -9.752 38.055 -9.994 Q36.765 -10.236 35.959 -11.365 Q28.864 -20.556 24.994 -31.602 Q21.124 -42.647 21.124 -54.741 Q21.124 -66.674 24.994 -78.042 Q28.864 -89.41 36.281 -98.762 Q37.087 -99.569 38.216 -99.73 Q39.345 -99.891 40.151 -99.246 Q40.796 -98.279 40.716 -96.989 Q40.635 -95.699 39.99 -94.731 Q33.379 -86.024 30.073 -76.026 Q26.768 -66.029 26.768 -54.741 Z M91.751 -41.196 Q86.108 -41.196 82.237 -44.986 Q78.368 -48.775 78.368 -54.58 Q78.368 -60.224 82.237 -64.174 Q86.108 -68.125 91.751 -68.125 Q97.234 -68.125 101.184 -64.174 Q105.135 -60.224 105.135 -54.58 Q105.135 -48.775 101.184 -44.986 Q97.234 -41.196 91.751 -41.196 Z M127.71 8.146 Q127.71 7.018 128.597 6.05 Q129.484 5.083 130.613 5.083 Q131.741 5.083 132.709 6.05 Q133.676 7.018 133.676 8.146 Q132.064 17.015 126.017 22.014 Q119.97 27.013 111.746 27.013 Q103.523 27.013 97.314 22.175 Q91.106 17.338 88.365 9.598 Q85.463 1.858 81.351 -3.302 Q77.239 -8.462 68.854 -15.235 Q58.534 -22.975 54.019 -32.811 Q49.504 -42.647 49.504 -54.58 Q49.504 -72.801 61.517 -84.734 Q73.53 -96.666 91.751 -96.666 Q108.683 -96.666 120.615 -85.943 Q132.548 -75.22 133.838 -58.45 Q133.838 -57.321 132.951 -56.515 Q132.064 -55.709 130.935 -55.709 Q129.806 -55.709 129 -56.515 Q128.194 -57.321 128.194 -58.45 Q126.904 -72.801 116.503 -81.912 Q106.103 -91.022 91.751 -91.022 Q76.271 -91.022 65.709 -80.461 Q55.148 -69.899 55.148 -54.58 Q55.148 -42.97 60.469 -33.698 Q65.79 -24.426 75.626 -17.009 Q82.237 -11.849 85.785 -7.011 Q89.332 -2.174 92.719 5.889 Q95.782 13.145 100.378 17.257 Q104.974 21.369 111.585 21.369 Q117.39 21.369 121.824 17.902 Q126.259 14.435 127.71 8.146 Z"/></g><g id="Bold-M" transform="matrix(1 0 0 1 2281.8 1126)"><path d="M24.625 -49.48 Q24.625 -42.73 26.438 -35.917 Q28.25 -29.105 32.125 -22.605 Q34 -19.355 33.812 -15.73 Q33.625 -12.105 31.125 -9.605 Q28.75 -7.23 25.25 -7.292 Q21.75 -7.355 19.875 -10.23 Q13.875 -18.855 10.75 -28.855 Q7.625 -38.855 7.625 -49.48 Q7.625 -59.855 10.75 -69.792 Q13.875 -79.73 20 -88.605 Q21.875 -91.355 25.25 -91.48 Q28.625 -91.605 30.875 -89.23 Q33.375 -86.73 33.625 -83.23 Q33.875 -79.73 32 -76.73 Q28.125 -70.23 26.375 -63.292 Q24.625 -56.355 24.625 -49.48 Z M73.5 -36.48 Q68.125 -36.48 64.312 -40.355 Q60.5 -44.23 60.5 -49.48 Q60.5 -54.98 64.312 -58.73 Q68.125 -62.48 73.5 -62.48 Q78.875 -62.48 82.688 -58.73 Q86.5 -54.98 86.5 -49.48 Q86.5 -44.23 82.688 -40.355 Q78.875 -36.48 73.5 -36.48 Z M95.25 -7.73 Q95.25 -11.23 97.688 -13.73 Q100.125 -16.23 103.75 -16.23 Q107.25 -16.23 109.75 -13.73 Q112.25 -11.23 112.25 -7.73 Q112.25 5.395 105.375 12.395 Q98.5 19.395 88.75 19.395 Q80 19.395 74 14.77 Q68 10.145 65.5 3.27 Q63 -3.855 60.688 -6.917 Q58.375 -9.98 51.625 -15.23 Q44.125 -20.855 39.375 -29.605 Q34.625 -38.355 34.625 -49.48 Q34.625 -65.855 45.875 -77.042 Q57.125 -88.23 73.5 -88.23 Q89.875 -88.23 101.125 -76.105 Q112.375 -63.98 112.375 -46.105 Q112.375 -42.48 109.875 -40.042 Q107.375 -37.605 103.875 -37.605 Q100.25 -37.605 97.812 -40.042 Q95.375 -42.48 95.375 -46.105 Q95.375 -56.73 89.062 -63.98 Q82.75 -71.23 73.5 -71.23 Q64.25 -71.23 57.938 -65.042 Q51.625 -58.855 51.625 -49.48 Q51.625 -41.605 54.875 -36.417 Q58.125 -31.23 64.75 -26.23 Q70.875 -21.73 74.312 -17.417 Q77.75 -13.105 79.5 -7.605 Q81.25 -1.98 83.125 0.208 Q85 2.395 88.5 2.395 Q91.75 2.395 93.5 -0.105 Q95.25 -2.605 95.25 -7.73 Z"/></g><g id="Semibold-M" transform="matrix(1 0 0 1 1985.97 1126)"><path d="M24.408 -49.697 Q24.408 -42.621 26.438 -35.7 Q28.467 -28.779 32.56 -22.333 Q34.326 -19.464 34.193 -16.219 Q34.06 -12.974 31.777 -10.692 Q29.565 -8.48 26.391 -8.624 Q23.217 -8.768 21.397 -11.371 Q15.397 -19.724 12.217 -29.48 Q9.038 -39.235 9.038 -49.697 Q9.038 -60.072 12.299 -69.82 Q15.56 -79.567 21.63 -88.116 Q23.397 -90.594 26.446 -90.692 Q29.494 -90.79 31.581 -88.632 Q33.864 -86.35 34.005 -83.176 Q34.147 -80.002 32.38 -77.273 Q28.288 -70.882 26.348 -63.863 Q24.408 -56.844 24.408 -49.697 Z M72.685 -36.371 Q67.201 -36.371 63.28 -40.328 Q59.359 -44.284 59.359 -49.697 Q59.359 -55.252 63.28 -59.138 Q67.201 -63.023 72.685 -63.023 Q78.168 -63.023 82.09 -59.138 Q86.011 -55.252 86.011 -49.697 Q86.011 -44.284 82.09 -40.328 Q78.168 -36.371 72.685 -36.371 Z M95.413 -6.86 Q95.413 -10.034 97.633 -12.29 Q99.853 -14.545 103.098 -14.545 Q106.272 -14.545 108.527 -12.29 Q110.783 -10.034 110.783 -6.86 Q110.783 5.232 104.179 11.96 Q97.576 18.689 88.152 18.689 Q79.837 18.689 73.891 14.417 Q67.946 10.145 65.554 3.379 Q63.054 -3.909 60.552 -7.216 Q58.049 -10.523 51.19 -15.773 Q43.419 -21.561 38.913 -30.23 Q34.408 -38.898 34.408 -49.697 Q34.408 -65.855 45.467 -76.825 Q56.527 -87.795 72.685 -87.795 Q88.843 -87.795 99.902 -76.078 Q110.962 -64.36 110.962 -47.137 Q110.962 -43.893 108.707 -41.673 Q106.451 -39.453 103.277 -39.453 Q100.033 -39.453 97.812 -41.673 Q95.592 -43.893 95.592 -47.137 Q95.592 -57.817 88.954 -65.121 Q82.315 -72.426 72.685 -72.426 Q63.054 -72.426 56.416 -65.912 Q49.777 -59.398 49.777 -49.697 Q49.777 -41.659 53.054 -36.227 Q56.332 -30.795 63.283 -25.578 Q69.516 -20.969 72.927 -16.629 Q76.337 -12.29 78.033 -6.79 Q79.783 -1.219 81.957 1.05 Q84.13 3.319 87.902 3.319 Q91.533 3.319 93.473 0.792 Q95.413 -1.735 95.413 -6.86 Z"/></g><g id="Medium-M" transform="matrix(1 0 0 1 1689.91 1126)"><path d="M24.245 -49.86 Q24.245 -42.54 26.438 -35.537 Q28.63 -28.534 32.886 -22.129 Q34.571 -19.545 34.478 -16.586 Q34.386 -13.627 32.266 -11.507 Q30.177 -9.417 27.247 -9.623 Q24.318 -9.828 22.538 -12.227 Q16.538 -20.377 13.318 -29.949 Q10.098 -39.521 10.098 -49.86 Q10.098 -60.235 13.461 -69.84 Q16.823 -79.445 22.853 -87.749 Q24.538 -90.023 27.342 -90.101 Q30.147 -90.178 32.111 -88.184 Q34.231 -86.064 34.291 -83.135 Q34.35 -80.205 32.666 -77.681 Q28.41 -71.371 26.328 -64.291 Q24.245 -57.211 24.245 -49.86 Z M72.073 -36.29 Q66.508 -36.29 62.505 -40.307 Q58.503 -44.325 58.503 -49.86 Q58.503 -55.455 62.505 -59.443 Q66.508 -63.431 72.073 -63.431 Q77.639 -63.431 81.641 -59.443 Q85.644 -55.455 85.644 -49.86 Q85.644 -44.325 81.641 -40.307 Q77.639 -36.29 72.073 -36.29 Z M95.535 -6.208 Q95.535 -9.138 97.592 -11.21 Q99.65 -13.282 102.609 -13.282 Q105.538 -13.282 107.61 -11.21 Q109.682 -9.138 109.682 -6.208 Q109.682 5.11 103.283 11.634 Q96.883 18.159 87.704 18.159 Q79.715 18.159 73.81 14.152 Q67.905 10.145 65.595 3.46 Q63.095 -3.95 60.45 -7.441 Q57.804 -10.931 50.864 -16.181 Q42.889 -22.091 38.567 -30.699 Q34.245 -39.306 34.245 -49.86 Q34.245 -65.855 45.162 -76.662 Q56.079 -87.469 72.073 -87.469 Q88.068 -87.469 98.985 -76.057 Q109.902 -64.646 109.902 -47.912 Q109.902 -44.953 107.83 -42.896 Q105.758 -40.839 102.829 -40.839 Q99.87 -40.839 97.812 -42.896 Q95.755 -44.953 95.755 -47.912 Q95.755 -58.632 88.872 -65.977 Q81.989 -73.322 72.073 -73.322 Q62.158 -73.322 55.275 -66.564 Q48.391 -59.806 48.391 -49.86 Q48.391 -41.7 51.689 -36.085 Q54.986 -30.469 62.182 -25.089 Q68.497 -20.398 71.887 -16.038 Q75.277 -11.678 76.932 -6.178 Q78.682 -0.648 81.08 1.682 Q83.478 4.012 87.454 4.012 Q91.37 4.012 93.453 1.464 Q95.535 -1.083 95.535 -6.208 Z"/></g><g id="Regular-M" transform="matrix(1 0 0 1 1394.06 1126)"><path d="M24.125 -49.98 Q24.125 -42.48 26.438 -35.417 Q28.75 -28.355 33.125 -21.98 Q34.75 -19.605 34.688 -16.855 Q34.625 -14.105 32.625 -12.105 Q30.625 -10.105 27.875 -10.355 Q25.125 -10.605 23.375 -12.855 Q17.375 -20.855 14.125 -30.292 Q10.875 -39.73 10.875 -49.98 Q10.875 -60.355 14.312 -69.855 Q17.75 -79.355 23.75 -87.48 Q25.375 -89.605 28 -89.667 Q30.625 -89.73 32.5 -87.855 Q34.5 -85.855 34.5 -83.105 Q34.5 -80.355 32.875 -77.98 Q28.5 -71.73 26.312 -64.605 Q24.125 -57.48 24.125 -49.98 Z M71.625 -36.23 Q66 -36.23 61.938 -40.292 Q57.875 -44.355 57.875 -49.98 Q57.875 -55.605 61.938 -59.667 Q66 -63.73 71.625 -63.73 Q77.25 -63.73 81.312 -59.667 Q85.375 -55.605 85.375 -49.98 Q85.375 -44.355 81.312 -40.292 Q77.25 -36.23 71.625 -36.23 Z M95.625 -5.73 Q95.625 -8.48 97.562 -10.417 Q99.5 -12.355 102.25 -12.355 Q105 -12.355 106.938 -10.417 Q108.875 -8.48 108.875 -5.73 Q108.875 5.02 102.625 11.395 Q96.375 17.77 87.375 17.77 Q79.625 17.77 73.75 13.958 Q67.875 10.145 65.625 3.52 Q63.125 -3.98 60.375 -7.605 Q57.625 -11.23 50.625 -16.48 Q42.5 -22.48 38.312 -31.042 Q34.125 -39.605 34.125 -49.98 Q34.125 -65.855 44.938 -76.542 Q55.75 -87.23 71.625 -87.23 Q87.5 -87.23 98.312 -76.042 Q109.125 -64.855 109.125 -48.48 Q109.125 -45.73 107.188 -43.792 Q105.25 -41.855 102.5 -41.855 Q99.75 -41.855 97.812 -43.792 Q95.875 -45.73 95.875 -48.48 Q95.875 -59.23 88.812 -66.605 Q81.75 -73.98 71.625 -73.98 Q61.5 -73.98 54.438 -67.042 Q47.375 -60.105 47.375 -49.98 Q47.375 -41.73 50.688 -35.98 Q54 -30.23 61.375 -24.73 Q67.75 -19.98 71.125 -15.605 Q74.5 -11.23 76.125 -5.73 Q77.875 -0.23 80.438 2.145 Q83 4.52 87.125 4.52 Q91.25 4.52 93.438 1.958 Q95.625 -0.605 95.625 -5.73 Z"/></g><g id="Light-M" transform="matrix(1 0 0 1 1098.18 1126)"><path d="M22.923 -49.98 Q22.923 -42.24 25.308 -34.961 Q27.692 -27.682 32.26 -21.114 Q33.548 -19.172 33.534 -16.903 Q33.519 -14.634 31.856 -13.018 Q30.24 -11.403 28.043 -11.653 Q25.846 -11.903 24.385 -13.72 Q18.529 -21.528 15.351 -30.725 Q12.173 -39.922 12.173 -49.98 Q12.173 -60.066 15.539 -69.35 Q18.904 -78.634 24.76 -86.614 Q26.096 -88.307 28.168 -88.369 Q30.24 -88.432 31.731 -86.941 Q33.394 -85.326 33.346 -83.057 Q33.298 -80.788 32.01 -78.845 Q27.442 -72.403 25.183 -65.062 Q22.923 -57.72 22.923 -49.98 Z M71.673 -37.192 Q66.433 -37.192 62.659 -40.942 Q58.885 -44.692 58.885 -49.98 Q58.885 -55.22 62.659 -58.994 Q66.433 -62.768 71.673 -62.768 Q76.913 -62.768 80.688 -58.994 Q84.462 -55.22 84.462 -49.98 Q84.462 -44.692 80.688 -40.942 Q76.913 -37.192 71.673 -37.192 Z M96.731 -4.48 Q96.731 -6.701 98.332 -8.302 Q99.933 -9.903 102.154 -9.903 Q104.375 -9.903 105.976 -8.302 Q107.577 -6.701 107.577 -4.48 Q107.192 5.357 101.423 10.938 Q95.654 16.52 87.423 16.52 Q80.202 16.52 74.567 12.756 Q68.933 8.991 66.731 2.655 Q64.327 -4.461 61.337 -8.35 Q58.346 -12.24 51.442 -17.442 Q43.413 -23.345 39.418 -31.74 Q35.423 -40.134 35.423 -49.98 Q35.423 -65.374 45.851 -75.677 Q56.279 -85.98 71.673 -85.98 Q86.779 -85.98 97.135 -75.586 Q107.49 -65.192 107.827 -49.73 Q107.827 -47.509 106.25 -45.932 Q104.673 -44.355 102.452 -44.355 Q100.231 -44.355 98.654 -45.932 Q97.077 -47.509 97.077 -49.73 Q96.74 -60.624 89.365 -67.927 Q81.99 -75.23 71.673 -75.23 Q61.067 -75.23 53.62 -67.908 Q46.173 -60.586 46.173 -49.98 Q46.173 -41.538 49.798 -35.331 Q53.423 -29.124 60.846 -23.576 Q66.933 -18.97 70.091 -14.86 Q73.25 -10.749 75.115 -4.961 Q77.058 0.587 79.933 3.179 Q82.808 5.77 87.173 5.77 Q91.442 5.77 93.894 3.256 Q96.346 0.741 96.731 -4.48 Z"/></g><g id="Thin-M" transform="matrix(1 0 0 1 802.565 1126)"><path d="M21.721 -49.98 Q21.721 -41.999 24.178 -34.504 Q26.635 -27.009 31.394 -20.249 Q32.346 -18.74 32.38 -16.951 Q32.413 -15.163 31.087 -13.932 Q29.856 -12.701 28.212 -12.951 Q26.567 -13.201 25.394 -14.586 Q19.683 -22.201 16.577 -31.158 Q13.471 -40.115 13.471 -49.98 Q13.471 -59.778 16.764 -68.845 Q20.058 -77.913 25.769 -85.749 Q26.817 -87.009 28.337 -87.071 Q29.856 -87.134 30.962 -86.028 Q32.288 -84.797 32.192 -83.009 Q32.096 -81.22 31.144 -79.711 Q26.385 -73.076 24.053 -65.518 Q21.721 -57.961 21.721 -49.98 Z M71.721 -38.153 Q66.865 -38.153 63.38 -41.591 Q59.894 -45.028 59.894 -49.98 Q59.894 -54.836 63.38 -58.321 Q66.865 -61.807 71.721 -61.807 Q76.577 -61.807 80.062 -58.321 Q83.548 -54.836 83.548 -49.98 Q83.548 -45.028 80.062 -41.591 Q76.577 -38.153 71.721 -38.153 Z M97.837 -3.23 Q97.837 -4.922 99.101 -6.187 Q100.365 -7.451 102.058 -7.451 Q103.75 -7.451 105.014 -6.187 Q106.279 -4.922 106.279 -3.23 Q105.51 5.693 100.221 10.482 Q94.933 15.27 87.471 15.27 Q80.779 15.27 75.385 11.554 Q69.99 7.837 67.837 1.789 Q65.529 -4.941 62.298 -9.095 Q59.067 -13.249 52.26 -18.403 Q44.327 -24.211 40.524 -32.437 Q36.721 -40.663 36.721 -49.98 Q36.721 -64.893 46.764 -74.812 Q56.808 -84.73 71.721 -84.73 Q86.058 -84.73 95.957 -75.129 Q105.856 -65.528 106.529 -50.98 Q106.529 -49.288 105.312 -48.071 Q104.096 -46.855 102.404 -46.855 Q100.712 -46.855 99.495 -48.071 Q98.279 -49.288 98.279 -50.98 Q97.606 -62.018 89.918 -69.249 Q82.231 -76.48 71.721 -76.48 Q60.635 -76.48 52.803 -68.773 Q44.971 -61.066 44.971 -49.98 Q44.971 -41.345 48.909 -34.682 Q52.846 -28.018 60.317 -22.422 Q66.115 -17.961 69.058 -14.115 Q72 -10.268 74.106 -4.191 Q76.24 1.405 79.428 4.212 Q82.615 7.02 87.221 7.02 Q91.635 7.02 94.351 4.554 Q97.067 2.087 97.837 -3.23 Z"/></g><g id="Ultralight-M" transform="matrix(1 0 0 1 506.415 1126)"><path d="M21 -49.98 Q21 -41.855 23.5 -34.23 Q26 -26.605 30.875 -19.73 Q31.625 -18.48 31.688 -16.98 Q31.75 -15.48 30.625 -14.48 Q29.625 -13.48 28.312 -13.73 Q27 -13.98 26 -15.105 Q20.375 -22.605 17.312 -31.417 Q14.25 -40.23 14.25 -49.98 Q14.25 -59.605 17.5 -68.542 Q20.75 -77.48 26.375 -85.23 Q27.25 -86.23 28.438 -86.292 Q29.625 -86.355 30.5 -85.48 Q31.625 -84.48 31.5 -82.98 Q31.375 -81.48 30.625 -80.23 Q25.75 -73.48 23.375 -65.792 Q21 -58.105 21 -49.98 Z M71.75 -38.73 Q67.125 -38.73 63.812 -41.98 Q60.5 -45.23 60.5 -49.98 Q60.5 -54.605 63.812 -57.917 Q67.125 -61.23 71.75 -61.23 Q76.375 -61.23 79.688 -57.917 Q83 -54.605 83 -49.98 Q83 -45.23 79.688 -41.98 Q76.375 -38.73 71.75 -38.73 Z M98.5 -2.48 Q98.5 -3.855 99.562 -4.917 Q100.625 -5.98 102 -5.98 Q103.375 -5.98 104.438 -4.917 Q105.5 -3.855 105.5 -2.48 Q104.5 5.895 99.5 10.208 Q94.5 14.52 87.5 14.52 Q81.125 14.52 75.875 10.833 Q70.625 7.145 68.5 1.27 Q66.25 -5.23 62.875 -9.542 Q59.5 -13.855 52.75 -18.98 Q44.875 -24.73 41.188 -32.855 Q37.5 -40.98 37.5 -49.98 Q37.5 -64.605 47.312 -74.292 Q57.125 -83.98 71.75 -83.98 Q85.625 -83.98 95.25 -74.855 Q104.875 -65.73 105.75 -51.73 Q105.75 -50.355 104.75 -49.355 Q103.75 -48.355 102.375 -48.355 Q101 -48.355 100 -49.355 Q99 -50.355 99 -51.73 Q98.125 -62.855 90.25 -70.042 Q82.375 -77.23 71.75 -77.23 Q60.375 -77.23 52.312 -69.292 Q44.25 -61.355 44.25 -49.98 Q44.25 -41.23 48.375 -34.292 Q52.5 -27.355 60 -21.73 Q65.625 -17.355 68.438 -13.667 Q71.25 -9.98 73.5 -3.73 Q75.75 1.895 79.125 4.833 Q82.5 7.77 87.25 7.77 Q91.75 7.77 94.625 5.333 Q97.5 2.895 98.5 -2.48 Z"/></g><g id="Bold-S" transform="matrix(1 0 0 1 2294.23 696)"><path d="M21.007 -46.428 Q21.007 -41.641 22.334 -36.544 Q23.66 -31.448 26.53 -26.551 Q27.911 -24.184 27.763 -21.475 Q27.615 -18.765 25.783 -16.902 Q24.061 -15.11 21.499 -15.16 Q18.936 -15.209 17.555 -17.28 Q12.92 -23.888 10.652 -31.269 Q8.383 -38.65 8.383 -46.473 Q8.383 -53.87 10.652 -61.267 Q12.92 -68.664 17.654 -75.469 Q19.035 -77.441 21.5 -77.491 Q23.966 -77.54 25.587 -75.77 Q27.418 -73.901 27.615 -71.283 Q27.812 -68.664 26.431 -66.494 Q23.571 -61.563 22.289 -56.434 Q21.007 -51.306 21.007 -46.428 Z M57.225 -36.611 Q53.159 -36.611 50.249 -39.52 Q47.34 -42.43 47.34 -46.428 Q47.34 -50.621 50.227 -53.478 Q53.114 -56.336 57.18 -56.336 Q61.246 -56.336 64.156 -53.478 Q67.065 -50.621 67.065 -46.428 Q67.065 -42.43 64.178 -39.52 Q61.291 -36.611 57.225 -36.611 Z M73.574 -13.536 Q73.574 -16.097 75.378 -17.971 Q77.182 -19.844 79.865 -19.844 Q82.451 -19.844 84.324 -17.99 Q86.198 -16.135 86.198 -13.547 Q86.198 -3.867 81.295 1.212 Q76.392 6.291 69.432 6.291 Q62.134 6.291 57.893 1.656 Q53.652 -2.98 52.061 -7.92 Q50.397 -13.138 48.474 -16.639 Q46.551 -20.14 42.014 -22.507 Q35.702 -25.466 31.905 -32.37 Q28.108 -39.274 28.108 -46.572 Q28.108 -58.604 36.639 -67.037 Q45.17 -75.469 57.203 -75.469 Q69.235 -75.469 77.766 -66.248 Q86.297 -57.026 86.297 -43.81 Q86.297 -41.118 84.444 -39.308 Q82.591 -37.498 80.006 -37.498 Q77.322 -37.498 75.497 -39.308 Q73.673 -41.118 73.673 -43.81 Q73.673 -51.7 68.84 -57.273 Q64.008 -62.845 57.203 -62.845 Q50.397 -62.845 45.565 -58.16 Q40.732 -53.476 40.732 -46.572 Q40.732 -41.838 43.296 -37.942 Q45.861 -34.046 50.693 -31.482 Q56.512 -28.523 58.583 -24.973 Q60.654 -21.422 62.923 -14.321 Q64.501 -9.489 66.128 -7.911 Q67.755 -6.333 69.235 -6.333 Q71.392 -6.333 72.483 -8.108 Q73.574 -9.883 73.574 -13.536 Z"/></g><g id="Semibold-S" transform="matrix(1 0 0 1 1998.1 696)"><path d="M20.836 -46.6 Q20.836 -41.555 22.334 -36.373 Q23.831 -31.19 26.873 -26.337 Q28.168 -24.27 28.063 -21.86 Q27.958 -19.451 26.297 -17.76 Q24.704 -16.097 22.399 -16.21 Q20.094 -16.324 18.756 -18.181 Q14.12 -24.574 11.809 -31.762 Q9.498 -38.95 9.498 -46.645 Q9.498 -54.042 11.873 -61.288 Q14.249 -68.535 18.94 -75.083 Q20.235 -76.841 22.444 -76.869 Q24.652 -76.897 26.145 -75.298 Q27.804 -73.601 27.915 -71.24 Q28.027 -68.878 26.732 -66.923 Q23.7 -62.077 22.268 -56.885 Q20.836 -51.692 20.836 -46.6 Z M56.582 -36.525 Q52.43 -36.525 49.435 -39.499 Q46.44 -42.473 46.44 -46.6 Q46.44 -50.836 49.413 -53.8 Q52.386 -56.765 56.537 -56.765 Q60.689 -56.765 63.684 -53.8 Q66.679 -50.836 66.679 -46.6 Q66.679 -42.473 63.706 -39.499 Q60.733 -36.525 56.582 -36.525 Z M73.703 -12.85 Q73.703 -15.153 75.335 -16.834 Q76.967 -18.515 79.351 -18.515 Q81.679 -18.515 83.36 -16.853 Q85.041 -15.192 85.041 -12.861 Q85.041 -3.996 80.352 0.869 Q75.664 5.734 68.96 5.734 Q62.005 5.734 57.807 1.377 Q53.609 -2.98 52.104 -7.834 Q50.44 -13.181 48.367 -16.875 Q46.294 -20.569 41.671 -22.936 Q35.145 -26.024 31.541 -32.863 Q27.937 -39.702 27.937 -46.743 Q27.937 -58.604 36.318 -66.865 Q44.699 -75.126 56.559 -75.126 Q68.42 -75.126 76.801 -66.226 Q85.182 -57.326 85.182 -44.625 Q85.182 -42.233 83.522 -40.595 Q81.862 -38.956 79.534 -38.956 Q77.15 -38.956 75.497 -40.595 Q73.844 -42.233 73.844 -44.625 Q73.844 -52.558 68.754 -58.173 Q63.665 -63.788 56.559 -63.788 Q49.454 -63.788 44.364 -58.846 Q39.274 -53.904 39.274 -46.743 Q39.274 -41.881 41.86 -37.792 Q44.446 -33.703 49.536 -30.968 Q55.44 -27.923 57.49 -24.351 Q59.54 -20.779 61.765 -13.678 Q63.343 -8.889 65.206 -7.246 Q67.069 -5.604 68.763 -5.604 Q71.221 -5.604 72.462 -7.401 Q73.703 -9.197 73.703 -12.85 Z"/></g><g id="Medium-S" transform="matrix(1 0 0 1 1701.85 696)"><path d="M20.707 -46.728 Q20.707 -41.491 22.334 -36.244 Q23.96 -30.998 27.13 -26.176 Q28.361 -24.334 28.288 -22.15 Q28.215 -19.966 26.683 -18.403 Q25.187 -16.836 23.074 -16.998 Q20.962 -17.16 19.656 -18.856 Q15.021 -25.089 12.678 -32.132 Q10.334 -39.175 10.334 -46.773 Q10.334 -54.17 12.79 -61.304 Q15.246 -68.439 19.905 -74.794 Q21.136 -76.391 23.151 -76.403 Q25.167 -76.415 26.563 -74.945 Q28.093 -73.376 28.14 -71.208 Q28.187 -69.039 26.957 -67.245 Q23.797 -62.463 22.252 -57.222 Q20.707 -51.981 20.707 -46.728 Z M56.099 -36.461 Q51.883 -36.461 48.824 -39.483 Q45.764 -42.505 45.764 -46.729 Q45.764 -50.996 48.801 -54.041 Q51.839 -57.086 56.055 -57.086 Q60.271 -57.086 63.33 -54.041 Q66.39 -50.996 66.39 -46.729 Q66.39 -42.505 63.352 -39.483 Q60.315 -36.461 56.099 -36.461 Z M73.799 -12.336 Q73.799 -14.446 75.303 -15.982 Q76.807 -17.518 78.965 -17.518 Q81.1 -17.518 82.636 -16.001 Q84.172 -14.484 84.172 -12.347 Q84.172 -4.092 79.644 0.612 Q75.117 5.316 68.607 5.316 Q61.909 5.316 57.743 1.168 Q53.577 -2.98 52.136 -7.77 Q50.472 -13.213 48.287 -17.052 Q46.101 -20.891 41.414 -23.258 Q34.727 -26.442 31.267 -33.233 Q27.808 -40.024 27.808 -46.872 Q27.808 -58.604 36.076 -66.736 Q44.345 -74.869 56.077 -74.869 Q67.809 -74.869 76.077 -66.21 Q84.346 -57.551 84.346 -45.236 Q84.346 -43.069 82.83 -41.559 Q81.315 -40.05 79.18 -40.05 Q77.022 -40.05 75.497 -41.559 Q73.973 -43.069 73.973 -45.236 Q73.973 -53.201 68.69 -58.849 Q63.407 -64.496 56.077 -64.496 Q48.746 -64.496 43.464 -59.361 Q38.181 -54.226 38.181 -46.872 Q38.181 -41.913 40.783 -37.68 Q43.384 -33.446 48.667 -30.582 Q54.636 -27.473 56.67 -23.885 Q58.703 -20.297 60.897 -13.196 Q62.475 -8.438 64.515 -6.748 Q66.555 -5.057 68.409 -5.057 Q71.092 -5.057 72.446 -6.87 Q73.799 -8.683 73.799 -12.336 Z"/></g><g id="Regular-S" transform="matrix(1 0 0 1 1405.73 696)"><path d="M20.613 -46.823 Q20.613 -41.443 22.334 -36.15 Q24.054 -30.856 27.319 -26.058 Q28.503 -24.381 28.453 -22.362 Q28.404 -20.343 26.966 -18.875 Q25.541 -17.379 23.57 -17.576 Q21.599 -17.773 20.317 -19.351 Q15.681 -25.466 13.314 -32.403 Q10.947 -39.34 10.947 -46.868 Q10.947 -54.265 13.462 -61.316 Q15.977 -68.368 20.613 -74.581 Q21.796 -76.061 23.67 -76.061 Q25.544 -76.061 26.869 -74.685 Q28.305 -73.211 28.305 -71.184 Q28.305 -69.157 27.122 -67.48 Q23.867 -62.746 22.24 -57.47 Q20.613 -52.193 20.613 -46.823 Z M55.745 -36.413 Q51.482 -36.413 48.376 -39.471 Q45.269 -42.528 45.269 -46.823 Q45.269 -51.114 48.353 -54.218 Q51.438 -57.322 55.701 -57.322 Q59.964 -57.322 63.071 -54.218 Q66.177 -51.114 66.177 -46.823 Q66.177 -42.528 63.093 -39.471 Q60.008 -36.413 55.745 -36.413 Z M73.87 -11.958 Q73.87 -13.927 75.279 -15.357 Q76.689 -16.787 78.682 -16.787 Q80.675 -16.787 82.105 -15.376 Q83.535 -13.965 83.535 -11.969 Q83.535 -4.163 79.126 0.423 Q74.716 5.009 68.347 5.009 Q61.838 5.009 57.696 1.015 Q53.553 -2.98 52.16 -7.723 Q50.496 -13.237 48.228 -17.182 Q45.959 -21.127 41.225 -23.494 Q34.42 -26.748 31.067 -33.504 Q27.714 -40.26 27.714 -46.966 Q27.714 -58.604 35.9 -66.642 Q44.085 -74.68 55.723 -74.68 Q67.361 -74.68 75.547 -66.198 Q83.733 -57.716 83.733 -45.684 Q83.733 -43.682 82.323 -42.267 Q80.914 -40.852 78.921 -40.852 Q76.928 -40.852 75.497 -42.267 Q74.067 -43.682 74.067 -45.684 Q74.067 -53.673 68.643 -59.344 Q63.219 -65.015 55.723 -65.015 Q48.228 -65.015 42.803 -59.738 Q37.379 -54.462 37.379 -46.966 Q37.379 -41.936 39.992 -37.597 Q42.606 -33.257 48.03 -30.299 Q54.047 -27.143 56.068 -23.543 Q58.09 -19.943 60.26 -12.842 Q61.838 -8.108 64.008 -6.382 Q66.177 -4.656 68.15 -4.656 Q70.998 -4.656 72.434 -6.481 Q73.87 -8.305 73.87 -11.958 Z"/></g><g id="Light-S" transform="matrix(1 0 0 1 1109.75 696)"><path d="M19.664 -46.823 Q19.664 -41.254 21.442 -35.789 Q23.22 -30.325 26.636 -25.375 Q27.554 -24.04 27.543 -22.4 Q27.531 -20.76 26.359 -19.595 Q25.237 -18.403 23.702 -18.6 Q22.168 -18.798 21.113 -20.034 Q16.592 -25.997 14.282 -32.744 Q11.972 -39.492 11.972 -46.868 Q11.972 -54.037 14.43 -60.918 Q16.888 -67.799 21.409 -73.898 Q22.365 -75.037 23.803 -75.037 Q25.24 -75.037 26.262 -73.964 Q27.433 -72.794 27.395 -71.146 Q27.357 -69.498 26.439 -68.163 Q23.033 -63.277 21.348 -57.83 Q19.664 -52.383 19.664 -46.823 Z M55.783 -37.172 Q51.824 -37.172 48.945 -39.983 Q46.066 -42.794 46.066 -46.823 Q46.066 -50.811 48.922 -53.687 Q51.779 -56.563 55.739 -56.563 Q59.698 -56.563 62.578 -53.687 Q65.457 -50.811 65.457 -46.823 Q65.457 -42.794 62.6 -39.983 Q59.743 -37.172 55.783 -37.172 Z M74.743 -10.972 Q74.743 -12.523 75.886 -13.688 Q77.03 -14.852 78.606 -14.852 Q80.182 -14.852 81.347 -13.707 Q82.511 -12.562 82.511 -10.983 Q82.208 -3.898 78.177 0.063 Q74.147 4.023 68.385 4.023 Q62.293 4.023 58.341 0.066 Q54.388 -3.89 53.032 -8.405 Q51.444 -13.616 48.986 -17.77 Q46.528 -21.923 41.87 -24.252 Q35.141 -27.431 31.939 -34.054 Q28.738 -40.677 28.738 -46.966 Q28.738 -58.225 36.62 -65.959 Q44.503 -73.694 55.761 -73.694 Q66.792 -73.694 74.617 -65.838 Q82.443 -57.982 82.708 -46.671 Q82.708 -45.086 81.584 -43.955 Q80.459 -42.824 78.883 -42.824 Q77.307 -42.824 76.161 -43.955 Q75.016 -45.086 75.016 -46.671 Q74.75 -54.773 69.079 -60.387 Q63.408 -66.001 55.761 -66.001 Q47.886 -66.001 42.158 -60.421 Q36.43 -54.841 36.43 -46.966 Q36.43 -41.785 39.291 -37.085 Q42.151 -32.385 47.613 -29.388 Q53.402 -26.346 55.253 -22.955 Q57.104 -19.564 59.463 -12.235 Q61.193 -7.463 63.609 -5.567 Q66.026 -3.67 68.188 -3.67 Q71.149 -3.67 72.794 -5.457 Q74.439 -7.243 74.743 -10.972 Z"/></g><g id="Thin-S" transform="matrix(1 0 0 1 814.015 696)"><path d="M18.716 -46.823 Q18.716 -41.064 20.551 -35.429 Q22.385 -29.794 25.954 -24.692 Q26.606 -23.698 26.633 -22.438 Q26.659 -21.178 25.753 -20.316 Q24.934 -19.427 23.835 -19.624 Q22.737 -19.822 21.91 -20.717 Q17.502 -26.528 15.249 -33.086 Q12.996 -39.643 12.996 -46.868 Q12.996 -53.809 15.397 -60.52 Q17.798 -67.23 22.206 -73.216 Q22.934 -74.012 23.935 -74.012 Q24.937 -74.012 25.656 -73.244 Q26.561 -72.377 26.485 -71.108 Q26.409 -69.84 25.756 -68.846 Q22.198 -63.808 20.457 -58.191 Q18.716 -52.573 18.716 -46.823 Z M55.821 -37.931 Q52.165 -37.931 49.513 -40.495 Q46.862 -43.059 46.862 -46.823 Q46.862 -50.507 49.491 -53.156 Q52.121 -55.805 55.777 -55.805 Q59.433 -55.805 62.084 -53.156 Q64.736 -50.507 64.736 -46.823 Q64.736 -43.059 62.107 -40.495 Q59.477 -37.931 55.821 -37.931 Z M75.615 -9.986 Q75.615 -11.12 76.493 -12.019 Q77.372 -12.918 78.53 -12.918 Q79.689 -12.918 80.588 -12.038 Q81.487 -11.158 81.487 -9.997 Q80.88 -3.632 77.229 -0.298 Q73.578 3.037 68.423 3.037 Q62.748 3.037 58.985 -0.882 Q55.222 -4.8 53.905 -9.088 Q52.393 -13.995 49.745 -18.358 Q47.097 -22.72 42.515 -25.011 Q35.862 -28.114 32.812 -34.604 Q29.762 -41.094 29.762 -46.966 Q29.762 -57.846 37.341 -65.277 Q44.92 -72.707 55.799 -72.707 Q66.223 -72.707 73.688 -65.477 Q81.153 -58.248 81.684 -47.657 Q81.684 -46.489 80.844 -45.643 Q80.004 -44.797 78.845 -44.797 Q77.686 -44.797 76.825 -45.643 Q75.964 -46.489 75.964 -47.657 Q75.433 -55.873 69.515 -61.43 Q63.598 -66.987 55.799 -66.987 Q47.545 -66.987 41.514 -61.104 Q35.482 -55.22 35.482 -46.966 Q35.482 -41.633 38.589 -36.573 Q41.696 -31.513 47.196 -28.478 Q52.757 -25.55 54.437 -22.367 Q56.118 -19.185 58.667 -11.628 Q60.548 -6.818 63.211 -4.751 Q65.874 -2.684 68.226 -2.684 Q71.301 -2.684 73.155 -4.432 Q75.008 -6.181 75.615 -9.986 Z"/></g><g id="Ultralight-S" transform="matrix(1 0 0 1 517.792 696)"><path d="M18.147 -46.823 Q18.147 -40.95 20.016 -35.213 Q21.885 -29.475 25.544 -24.283 Q26.037 -23.494 26.086 -22.461 Q26.136 -21.428 25.388 -20.749 Q24.752 -20.042 23.915 -20.239 Q23.078 -20.436 22.388 -21.127 Q18.048 -26.847 15.829 -33.291 Q13.61 -39.734 13.61 -46.868 Q13.61 -53.673 15.977 -60.281 Q18.344 -66.889 22.684 -72.806 Q23.276 -73.398 24.015 -73.398 Q24.755 -73.398 25.291 -72.811 Q26.037 -72.126 25.938 -71.085 Q25.84 -70.045 25.347 -69.256 Q21.698 -64.127 19.922 -58.407 Q18.147 -52.687 18.147 -46.823 Z M55.844 -38.386 Q52.37 -38.386 49.855 -40.802 Q47.34 -43.219 47.34 -46.823 Q47.34 -50.325 49.833 -52.837 Q52.325 -55.349 55.8 -55.349 Q59.274 -55.349 61.789 -52.837 Q64.303 -50.325 64.303 -46.823 Q64.303 -43.219 61.811 -40.802 Q59.318 -38.386 55.844 -38.386 Z M76.139 -9.394 Q76.139 -10.278 76.857 -11.018 Q77.576 -11.757 78.485 -11.757 Q79.393 -11.757 80.133 -11.037 Q80.873 -10.316 80.873 -9.405 Q80.084 -3.473 76.66 -0.514 Q73.236 2.445 68.446 2.445 Q63.021 2.445 59.372 -1.451 Q55.723 -5.347 54.428 -9.498 Q52.962 -14.223 50.2 -18.71 Q47.439 -23.198 42.902 -25.466 Q36.294 -28.523 33.335 -34.934 Q30.377 -41.345 30.377 -46.966 Q30.377 -57.618 37.773 -64.867 Q45.17 -72.116 55.822 -72.116 Q65.882 -72.116 73.13 -65.261 Q80.379 -58.407 81.07 -48.248 Q81.07 -47.331 80.4 -46.656 Q79.731 -45.98 78.822 -45.98 Q77.914 -45.98 77.223 -46.656 Q76.533 -47.331 76.533 -48.248 Q75.843 -56.533 69.777 -62.056 Q63.712 -67.579 55.822 -67.579 Q47.34 -67.579 41.127 -61.514 Q34.913 -55.448 34.913 -46.966 Q34.913 -41.542 38.168 -36.266 Q41.422 -30.989 46.946 -27.932 Q52.37 -25.072 53.948 -22.014 Q55.526 -18.957 58.189 -11.264 Q60.161 -6.431 62.972 -4.262 Q65.783 -2.092 68.249 -2.092 Q71.392 -2.092 73.371 -3.818 Q75.35 -5.544 76.139 -9.394 Z"/></g></g></svg>