<svg xmlns="http://www.w3.org/2000/svg" version="1.1" width="3300" height="2000"><g id="Notes"><style>
    text {
      font-family: monospace;
      text-anchor: middle;
    }
    text.emphasis {
      font-weight:bold;
    }
    text.lanchor {
      text-anchor: start;
    }
  </style><rect height="2200" id="artboard" fill="white" width="3300" x="0" y="0"/><line id="" style="fill:none;stroke:black;stroke-width:0.5;" x1="263" x2="3036" y1="292" y2="292"/><text class="lanchor emphasis" transform="matrix(1 0 0 1 263 322)">Weight/Scale Variations</text><text transform="matrix(1 0 0 1 559.711 322)">Ultralight</text><text transform="matrix(1 0 0 1 856.422 322)">Thin</text><text transform="matrix(1 0 0 1 1153.13 322)">Light</text><text transform="matrix(1 0 0 1 1449.84 322)">Regular</text><text transform="matrix(1 0 0 1 1746.56 322)">Medium</text><text transform="matrix(1 0 0 1 2043.27 322)">Semibold</text><text transform="matrix(1 0 0 1 2339.98 322)">Bold</text><text transform="matrix(1 0 0 1 2636.69 322)">Heavy</text><text transform="matrix(1 0 0 1 2933.4 322)">Black</text><text id="template-version" style="text-anchor: end;" transform="matrix(1 0 0 1 3036 1933)">Template v.1.0</text><text class="lanchor" transform="matrix(1 0 0 1 263 726)">Small</text><text class="lanchor" transform="matrix(1 0 0 1 263 1156)">Medium</text><text class="lanchor" transform="matrix(1 0 0 1 263 1586)">Large</text></g><g id="Guides"><g id="H-reference" style="fill:#27AAE1;stroke:none;" transform="matrix(1 0 0 1 339 696)"><path d="M 54.9316 0 L 57.666 0 L 30.5664 -70.459 L 28.0762 -70.459 L 0.976562 0 L 3.66211 0 L 12.9395 -24.4629 L 45.7031 -24.4629 Z M 29.1992 -67.0898 L 29.4434 -67.0898 L 44.8242 -26.709 L 13.8184 -26.709 Z"/></g><line id="Baseline-S" style="fill:none;stroke:#27AAE1;opacity:1;stroke-width:0.577;" x1="263" x2="3036" y1="696" y2="696"/><line id="Capline-S" style="fill:none;stroke:#27AAE1;opacity:1;stroke-width:0.577;" x1="263" x2="3036" y1="625.541" y2="625.541"/><g id="H-reference" style="fill:#27AAE1;stroke:none;" transform="matrix(1 0 0 1 339 1126)"><path d="M 54.9316 0 L 57.666 0 L 30.5664 -70.459 L 28.0762 -70.459 L 0.976562 0 L 3.66211 0 L 12.9395 -24.4629 L 45.7031 -24.4629 Z M 29.1992 -67.0898 L 29.4434 -67.0898 L 44.8242 -26.709 L 13.8184 -26.709 Z"/></g><line id="Baseline-M" style="fill:none;stroke:#27AAE1;opacity:1;stroke-width:0.577;" x1="263" x2="3036" y1="1126" y2="1126"/><line id="Capline-M" style="fill:none;stroke:#27AAE1;opacity:1;stroke-width:0.577;" x1="263" x2="3036" y1="1055.54" y2="1055.54"/><g id="H-reference" style="fill:#27AAE1;stroke:none;" transform="matrix(1 0 0 1 339 1556)"><path d="M 54.9316 0 L 57.666 0 L 30.5664 -70.459 L 28.0762 -70.459 L 0.976562 0 L 3.66211 0 L 12.9395 -24.4629 L 45.7031 -24.4629 Z M 29.1992 -67.0898 L 29.4434 -67.0898 L 44.8242 -26.709 L 13.8184 -26.709 Z"/></g><line id="Baseline-L" style="fill:none;stroke:#27AAE1;opacity:1;stroke-width:0.577;" x1="263" x2="3036" y1="1556" y2="1556"/><line id="Capline-L" style="fill:none;stroke:#27AAE1;opacity:1;stroke-width:0.577;" x1="263" x2="3036" y1="1485.54" y2="1485.54"/><rect height="119.336" id="left-margin" style="fill:darkred;stroke:none;opacity:0.4;" width="12.4512" x="1394.06" y="1030.79"/><rect height="119.336" id="right-margin" style="fill:darkgreen;stroke:none;opacity:0.4;" width="12.4512" x="1502.5112" y="1030.79"/><rect x="1406.5112" y="1045" width="96" height="96" fill="none" stroke="blue" stroke-dasharray="5"/><rect x="1394.06" y="1030.79" width="120.9024" height="119.336" fill="none" stroke="blue"/></g><g id="Symbols"><g id="Bold-L" transform="matrix(1 0 0 1 2266 1556)"><path d="M27.09 25.964 Q22.414 24.271 20.076 21.691 Q17.738 19.111 16.286 14.435 L127.629 -96.666 Q131.58 -95.537 134.644 -92.393 Q137.708 -89.249 138.675 -85.217 L27.09 25.964 Z M56.921 26.045  82.399 0.568 V20.24 V26.045 H56.921 Z M91.671 16.773 V2.019 H145.286 V16.773 H91.671 Z M16.125 -14.751 V-35.391 L77.319 -96.666 H97.879 L16.125 -14.751 Z M90.381 -7.253  138.836 -55.709 V-35.149 L111.021 -7.253 H90.381 Z M16.125 -66.512 V-81.751 Q16.125 -87.878 20.438 -92.272 Q24.752 -96.666 30.879 -96.666 H46.198 L16.125 -66.512 Z"/></g><g id="Semibold-L" transform="matrix(1 0 0 1 1970.27 1556)"><path d="M26.88 24.212 Q22.975 22.659 21.162 20.605 Q19.35 18.55 18.039 14.645 L127.84 -94.843 Q131.089 -93.855 133.592 -91.306 Q136.095 -88.758 136.922 -85.428 L26.88 24.212 Z M60.286 24.292  83.03 1.549 V18.487 V24.292 H60.286 Z M92.302 15.02 V2.65 H143.463 V15.02 H92.302 Z M17.878 -18.116 V-35.602 L77.109 -94.843 H94.514 L17.878 -18.116 Z M91.292 -6.622  137.013 -52.344 V-34.939 L108.777 -6.622 H91.292 Z M17.878 -69.597 V-82.382 Q17.878 -87.457 21.525 -91.151 Q25.173 -94.843 30.248 -94.843 H43.114 L17.878 -69.597 Z"/></g><g id="Medium-L" transform="matrix(1 0 0 1 1674.31 1556)"><path d="M26.722 22.897 Q23.395 21.449 21.977 19.79 Q20.559 18.13 19.354 14.803 L127.998 -93.476 Q130.721 -92.593 132.803 -90.492 Q134.886 -88.39 135.608 -85.586 L26.722 22.897 Z M62.81 22.978  83.503 2.285 V17.173 V22.978 H62.81 Z M92.775 13.706 V3.123 H142.096 V13.706 H92.775 Z M19.192 -20.64 V-35.759 L76.951 -93.476 H91.99 L19.192 -20.64 Z M91.976 -6.149  135.646 -49.82 V-34.781 L107.095 -6.149 H91.976 Z M19.192 -71.911 V-82.855 Q19.192 -87.142 22.34 -90.309 Q25.488 -93.476 29.775 -93.476 H40.8 L19.192 -71.911 Z"/></g><g id="Regular-L" transform="matrix(1 0 0 1 1378.56 1556)"><path d="M26.606 21.933 Q23.704 20.563 22.575 19.192 Q21.446 17.821 20.317 14.919 L128.113 -92.474 Q130.451 -91.667 132.225 -89.894 Q133.999 -88.12 134.644 -85.701 L26.606 21.933 Z M64.661 22.014  83.85 2.825 V16.209 V22.014 H64.661 Z M93.122 12.742 V3.47 H141.094 V12.742 H93.122 Z M20.156 -22.491 V-35.875 L76.836 -92.474 H90.139 L20.156 -22.491 Z M92.477 -5.802  134.644 -47.969 V-34.666 L105.861 -5.802 H92.477 Z M20.156 -73.607 V-83.202 Q20.156 -86.911 22.938 -89.692 Q25.719 -92.474 29.428 -92.474 H39.103 L20.156 -73.607 Z"/></g><g id="Light-L" transform="matrix(1 0 0 1 1082.77 1556)"><path d="M28.033 19.049 Q25.813 17.958 24.963 16.928 Q24.113 15.899 23.202 13.647 L126.718 -89.559 Q128.466 -88.907 129.806 -87.537 Q131.146 -86.166 131.76 -84.43 L28.033 19.049 Z M67.142 19.099  80.873 5.368 V14.844 V19.099 H67.142 Z M92.409 7.563 V0.493 H138.179 V7.563 H92.409 Z M23.071 -24.972 V-35.224 L77.518 -89.559 H87.658 L23.071 -24.972 Z M97.284 -11.043  131.729 -45.488 V-35.348 L107.535 -11.043 H97.284 Z M23.071 -74.073 V-80.504 Q23.071 -84.182 25.76 -86.87 Q28.448 -89.559 32.126 -89.559 H38.669 L23.071 -74.073 Z"/></g><g id="Thin-L" transform="matrix(1 0 0 1 787.282 1556)"><path d="M29.459 16.165 Q27.921 15.353 27.35 14.664 Q26.78 13.976 26.085 12.376 L125.322 -86.644 Q126.482 -86.148 127.388 -85.18 Q128.293 -84.213 128.876 -83.158 L29.459 16.165 Z M69.623 16.184  77.896 7.911 V13.48 V16.184 H69.623 Z M91.695 2.385 V-2.484 H135.264 V2.385 H91.695 Z M25.986 -27.453 V-34.573 L78.2 -86.644 H85.177 L25.986 -27.453 Z M102.09 -16.283  128.814 -43.007 V-36.03 L109.21 -16.283 H102.09 Z M25.986 -74.538 V-77.806 Q25.986 -81.453 28.582 -84.048 Q31.177 -86.644 34.824 -86.644 H38.235 L25.986 -74.538 Z"/></g><g id="Ultralight-L" transform="matrix(1 0 0 1 491.205 1556)"><path d="M30.315 14.435 Q29.186 13.79 28.783 13.306 Q28.38 12.823 27.816 11.613 L124.485 -84.895 Q125.291 -84.492 125.936 -83.766 Q126.581 -83.041 127.146 -82.396 L30.315 14.435 Z M71.111 14.435  76.11 9.436 V12.661 V14.435 H71.111 Z M91.267 -0.722 V-4.27 H133.515 V-0.722 H91.267 Z M27.735 -28.941 V-34.182 L78.609 -84.895 H83.689 L27.735 -28.941 Z M104.974 -19.427  127.065 -41.519 V-36.439 L110.214 -19.427 H104.974 Z M27.735 -74.817 V-76.187 Q27.735 -79.816 30.275 -82.355 Q32.814 -84.895 36.443 -84.895 H37.974 L27.735 -74.817 Z"/></g><g id="Bold-M" transform="matrix(1 0 0 1 2281.8 1126)"><path d="M23.5 12.645 Q19.438 11.52 16.375 8.458 Q13.312 5.395 12.188 1.333 L96.625 -83.23 Q100.75 -82.167 103.844 -79.105 Q106.938 -76.042 107.938 -71.917 L23.5 12.645 Z M39.25 12.77  58.5 -6.48 V12.77 H39.25 Z M67.875 3.395 V-11.73 H113 V3.395 H67.875 Z M12 -14.48 V-35.167 L60.062 -83.23 H80.75 L12 -14.48 Z M73.125 -21.105  108 -55.98 V-35.292 L93.812 -21.105 H73.125 Z M12 -52.792 V-68.105 Q12 -74.48 16.375 -78.855 Q20.75 -83.23 27.125 -83.23 H42.438 L12 -52.792 Z"/></g><g id="Semibold-M" transform="matrix(1 0 0 1 1985.97 1126)"><path d="M23.283 10.797 Q19.981 9.89 17.462 7.371 Q14.943 4.852 14.035 1.55 L96.842 -81.382 Q100.261 -80.483 102.757 -77.991 Q105.253 -75.499 106.144 -72.135 L23.283 10.797 Z M42.728 10.922  59.152 -5.502 V10.922 H42.728 Z M68.527 1.547 V-11.078 H111.152 V1.547 H68.527 Z M13.848 -17.958 V-35.385 L59.845 -81.382 H77.272 L13.848 -17.958 Z M74.103 -20.453  106.152 -52.502 V-35.075 L91.53 -20.453 H74.103 Z M13.848 -55.999 V-68.757 Q13.848 -74.045 17.516 -77.714 Q21.185 -81.382 26.473 -81.382 H39.231 L13.848 -55.999 Z"/></g><g id="Medium-M" transform="matrix(1 0 0 1 1689.91 1126)"><path d="M23.12 9.411 Q20.389 8.667 18.277 6.555 Q16.166 4.444 15.421 1.713 L97.005 -79.996 Q99.894 -79.219 101.942 -77.155 Q103.989 -75.091 104.799 -72.298 L23.12 9.411 Z M45.337 9.536  59.641 -4.768 V9.536 H45.337 Z M69.016 0.161 V-10.589 H109.766 V0.161 H69.016 Z M15.234 -20.567 V-35.548 L59.682 -79.996 H74.663 L15.234 -20.567 Z M74.837 -19.964  104.766 -49.893 V-34.912 L89.818 -19.964 H74.837 Z M15.234 -58.404 V-69.246 Q15.234 -73.719 18.372 -76.858 Q21.511 -79.996 25.984 -79.996 H36.826 L15.234 -58.404 Z"/></g><g id="Regular-M" transform="matrix(1 0 0 1 1394.06 1126)"><path d="M23 8.395 Q20.688 7.77 18.875 5.958 Q17.062 4.145 16.438 1.833 L97.125 -78.98 Q99.625 -78.292 101.344 -76.542 Q103.062 -74.792 103.812 -72.417 L23 8.395 Z M47.25 8.52  60 -4.23 V8.52 H47.25 Z M69.375 -0.855 V-10.23 H108.75 V-0.855 H69.375 Z M16.25 -22.48 V-35.667 L59.562 -78.98 H72.75 L16.25 -22.48 Z M75.375 -19.605  103.75 -47.98 V-34.792 L88.562 -19.605 H75.375 Z M16.25 -60.167 V-69.605 Q16.25 -73.48 19 -76.23 Q21.75 -78.98 25.625 -78.98 H35.062 L16.25 -60.167 Z"/></g><g id="Light-M" transform="matrix(1 0 0 1 1098.18 1126)"><path d="M23.577 6.159 Q21.841 5.606 20.534 4.299 Q19.226 2.991 18.673 1.232 L96.524 -76.72 Q98.375 -76.153 99.637 -74.86 Q100.899 -73.566 101.529 -71.816 L23.577 6.159 Z M50.039 6.26  59.038 -2.739 V6.26 H50.039 Z M69.495 -4.197 V-11.192 H106.49 V-4.197 H69.495 Z M18.51 -25.269 V-35.163 L60.091 -76.72 H69.961 L18.51 -25.269 Z M77.947 -21.648  101.49 -45.191 V-35.321 L87.841 -21.648 H77.947 Z M18.51 -61.826 V-68.187 Q18.51 -71.749 20.995 -74.235 Q23.481 -76.72 27.043 -76.72 H33.428 L18.51 -61.826 Z"/></g><g id="Thin-M" transform="matrix(1 0 0 1 802.565 1126)"><path d="M24.154 3.924 Q22.995 3.443 22.192 2.64 Q21.389 1.837 20.909 0.631 L95.923 -74.461 Q97.125 -74.014 97.93 -73.177 Q98.736 -72.341 99.245 -71.216 L24.154 3.924 Z M52.827 4.001  58.077 -1.249 V4.001 H52.827 Z M69.615 -7.538 V-12.153 H104.231 V-7.538 H69.615 Z M20.769 -28.057 V-34.658 L60.62 -74.461 H67.173 L20.769 -28.057 Z M80.519 -23.691  99.231 -42.403 V-35.85 L87.12 -23.691 H80.519 Z M20.769 -63.485 V-66.768 Q20.769 -70.018 22.99 -72.24 Q25.212 -74.461 28.462 -74.461 H31.793 L20.769 -63.485 Z"/></g><g id="Ultralight-M" transform="matrix(1 0 0 1 506.415 1126)"><path d="M24.5 2.583 Q23.688 2.145 23.188 1.645 Q22.688 1.145 22.25 0.27 L95.562 -73.105 Q96.375 -72.73 96.906 -72.167 Q97.438 -71.605 97.875 -70.855 L24.5 2.583 Z M54.5 2.645  57.5 -0.355 V2.645 H54.5 Z M69.688 -9.542 V-12.73 H102.875 V-9.542 H69.688 Z M22.125 -29.73 V-34.355 L60.938 -73.105 H65.5 L22.125 -29.73 Z M82.062 -24.917  97.875 -40.73 V-36.167 L86.688 -24.917 H82.062 Z M22.125 -64.48 V-65.917 Q22.125 -68.98 24.188 -71.042 Q26.25 -73.105 29.312 -73.105 H30.812 L22.125 -64.48 Z"/></g><g id="Bold-S" transform="matrix(1 0 0 1 2294.23 696)"><path d="M20.415 0.176 Q17.21 -0.81 15.09 -2.93 Q12.969 -5.051 11.983 -8.256 L74.363 -70.735 Q77.322 -69.798 79.615 -67.579 Q81.908 -65.36 82.697 -62.303 L20.415 0.176 Z M31.856 0.275  48.524 -16.393 V0.275 H31.856 Z M55.131 -5.149 V-16.294 H87.579 V-5.149 H55.131 Z M11.835 -19.746 V-35.082 L47.488 -70.735 H62.824 L11.835 -19.746 Z M55.033 -22.902  82.845 -50.714 V-35.378 L70.369 -22.902 H55.033 Z M11.835 -48.988 V-59.59 Q11.835 -64.324 15.04 -67.53 Q18.246 -70.735 22.98 -70.735 H33.582 L11.835 -48.988 Z"/></g><g id="Semibold-S" transform="matrix(1 0 0 1 1998.1 696)"><path d="M20.244 -1.281 Q17.639 -2.096 15.947 -3.788 Q14.256 -5.48 13.441 -8.085 L74.535 -69.277 Q76.936 -68.469 78.757 -66.7 Q80.579 -64.931 81.282 -62.474 L20.244 -1.281 Z M34.6 -1.183  49.038 -15.621 V-1.183 H34.6 Z M55.646 -6.607 V-15.779 H86.121 V-6.607 H55.646 Z M13.293 -22.49 V-35.254 L47.316 -69.277 H60.08 L13.293 -22.49 Z M55.805 -22.387  81.387 -47.97 V-35.206 L68.568 -22.387 H55.805 Z M13.293 -51.518 V-60.105 Q13.293 -63.981 15.941 -66.629 Q18.589 -69.277 22.465 -69.277 H31.052 L13.293 -51.518 Z"/></g><g id="Medium-S" transform="matrix(1 0 0 1 1701.85 696)"><path d="M20.115 -2.375 Q17.961 -3.061 16.59 -4.431 Q15.22 -5.801 14.534 -7.956 L74.663 -68.184 Q76.647 -67.472 78.114 -66.041 Q79.582 -64.609 80.221 -62.603 L20.115 -2.375 Z M36.658 -2.276  49.424 -15.042 V-2.276 H36.658 Z M56.032 -7.701 V-15.394 H85.028 V-7.701 H56.032 Z M14.386 -24.548 V-35.382 L47.188 -68.184 H58.022 L14.386 -24.548 Z M56.384 -22.001  80.294 -45.912 V-35.078 L67.217 -22.001 H56.384 Z M14.386 -53.416 V-60.491 Q14.386 -63.724 16.616 -65.954 Q18.846 -68.184 22.079 -68.184 H29.154 L14.386 -53.416 Z"/></g><g id="Regular-S" transform="matrix(1 0 0 1 1405.73 696)"><path d="M20.021 -3.177 Q18.196 -3.769 17.062 -4.903 Q15.928 -6.037 15.336 -7.862 L74.758 -67.382 Q76.434 -66.741 77.643 -65.557 Q78.851 -64.374 79.442 -62.697 L20.021 -3.177 Z M38.168 -3.078  49.707 -14.617 V-3.078 H38.168 Z M56.315 -8.503 V-15.11 H84.226 V-8.503 H56.315 Z M15.188 -26.058 V-35.477 L47.093 -67.382 H56.512 L15.188 -26.058 Z M56.808 -21.718  79.492 -44.402 V-34.983 L66.227 -21.718 H56.808 Z M15.188 -54.807 V-60.774 Q15.188 -63.535 17.111 -65.459 Q19.035 -67.382 21.796 -67.382 H27.763 L15.188 -54.807 Z"/></g><g id="Light-S" transform="matrix(1 0 0 1 1109.75 696)"><path d="M20.476 -4.941 Q19.107 -5.476 18.371 -6.212 Q17.635 -6.947 17.1 -8.336 L74.284 -65.599 Q75.448 -65.053 76.296 -64.229 Q77.144 -63.406 77.64 -62.223 L20.476 -4.941 Z M40.368 -4.861  48.948 -13.441 V-4.861 H40.368 Z M56.41 -11.139 V-15.869 H82.443 V-11.139 H56.41 Z M16.971 -28.258 V-35.078 L47.511 -65.599 H54.312 L16.971 -28.258 Z M58.838 -23.331  77.709 -42.202 V-35.401 L65.658 -23.331 H58.838 Z M16.971 -56.116 V-59.655 Q16.971 -62.17 18.686 -63.884 Q20.4 -65.599 22.915 -65.599 H26.473 L16.971 -56.116 Z"/></g><g id="Thin-S" transform="matrix(1 0 0 1 814.015 696)"><path d="M20.931 -6.705 Q20.017 -7.183 19.679 -7.52 Q19.342 -7.858 18.864 -8.81 L73.809 -63.816 Q74.462 -63.365 74.949 -62.902 Q75.437 -62.439 75.839 -61.749 L20.931 -6.705 Z M42.568 -6.644  48.19 -12.266 V-6.644 H42.568 Z M56.505 -13.775 V-16.628 H80.66 V-13.775 H56.505 Z M18.754 -30.458 V-34.68 L47.928 -63.816 H52.112 L18.754 -30.458 Z M60.867 -24.943  75.926 -40.002 V-35.818 L65.089 -24.943 H60.867 Z M18.754 -57.424 V-58.536 Q18.754 -60.804 20.26 -62.31 Q21.766 -63.816 24.034 -63.816 H25.183 L18.754 -57.424 Z"/></g><g id="Ultralight-S" transform="matrix(1 0 0 1 517.792 696)"><path d="M21.204 -7.763 Q20.563 -8.207 20.465 -8.305 Q20.366 -8.404 19.922 -9.094 L73.525 -62.746 Q73.87 -62.352 74.141 -62.105 Q74.413 -61.859 74.758 -61.464 L21.204 -7.763 Z M43.888 -7.714  47.735 -11.56 V-7.714 H43.888 Z M56.561 -15.357 V-17.083 H79.59 V-15.357 H56.561 Z M19.824 -31.778 V-34.441 L48.178 -62.746 H50.792 L19.824 -31.778 Z M62.084 -25.91  74.856 -38.682 V-36.068 L64.747 -25.91 H62.084 Z M19.824 -58.21 V-57.864 Q19.824 -59.985 21.204 -61.366 Q22.585 -62.746 24.706 -62.746 H24.41 L19.824 -58.21 Z"/></g></g></svg>