<svg xmlns="http://www.w3.org/2000/svg" version="1.1" width="3300" height="2000"><g id="Notes"><style>
    text {
      font-family: monospace;
      text-anchor: middle;
    }
    text.emphasis {
      font-weight:bold;
    }
    text.lanchor {
      text-anchor: start;
    }
  </style><rect height="2200" id="artboard" fill="white" width="3300" x="0" y="0"/><line id="" style="fill:none;stroke:black;stroke-width:0.5;" x1="263" x2="3036" y1="292" y2="292"/><text class="lanchor emphasis" transform="matrix(1 0 0 1 263 322)">Weight/Scale Variations</text><text transform="matrix(1 0 0 1 559.711 322)">Ultralight</text><text transform="matrix(1 0 0 1 856.422 322)">Thin</text><text transform="matrix(1 0 0 1 1153.13 322)">Light</text><text transform="matrix(1 0 0 1 1449.84 322)">Regular</text><text transform="matrix(1 0 0 1 1746.56 322)">Medium</text><text transform="matrix(1 0 0 1 2043.27 322)">Semibold</text><text transform="matrix(1 0 0 1 2339.98 322)">Bold</text><text transform="matrix(1 0 0 1 2636.69 322)">Heavy</text><text transform="matrix(1 0 0 1 2933.4 322)">Black</text><text id="template-version" style="text-anchor: end;" transform="matrix(1 0 0 1 3036 1933)">Template v.1.0</text><text class="lanchor" transform="matrix(1 0 0 1 263 726)">Small</text><text class="lanchor" transform="matrix(1 0 0 1 263 1156)">Medium</text><text class="lanchor" transform="matrix(1 0 0 1 263 1586)">Large</text></g><g id="Guides"><g id="H-reference" style="fill:#27AAE1;stroke:none;" transform="matrix(1 0 0 1 339 696)"><path d="M 54.9316 0 L 57.666 0 L 30.5664 -70.459 L 28.0762 -70.459 L 0.976562 0 L 3.66211 0 L 12.9395 -24.4629 L 45.7031 -24.4629 Z M 29.1992 -67.0898 L 29.4434 -67.0898 L 44.8242 -26.709 L 13.8184 -26.709 Z"/></g><line id="Baseline-S" style="fill:none;stroke:#27AAE1;opacity:1;stroke-width:0.577;" x1="263" x2="3036" y1="696" y2="696"/><line id="Capline-S" style="fill:none;stroke:#27AAE1;opacity:1;stroke-width:0.577;" x1="263" x2="3036" y1="625.541" y2="625.541"/><g id="H-reference" style="fill:#27AAE1;stroke:none;" transform="matrix(1 0 0 1 339 1126)"><path d="M 54.9316 0 L 57.666 0 L 30.5664 -70.459 L 28.0762 -70.459 L 0.976562 0 L 3.66211 0 L 12.9395 -24.4629 L 45.7031 -24.4629 Z M 29.1992 -67.0898 L 29.4434 -67.0898 L 44.8242 -26.709 L 13.8184 -26.709 Z"/></g><line id="Baseline-M" style="fill:none;stroke:#27AAE1;opacity:1;stroke-width:0.577;" x1="263" x2="3036" y1="1126" y2="1126"/><line id="Capline-M" style="fill:none;stroke:#27AAE1;opacity:1;stroke-width:0.577;" x1="263" x2="3036" y1="1055.54" y2="1055.54"/><g id="H-reference" style="fill:#27AAE1;stroke:none;" transform="matrix(1 0 0 1 339 1556)"><path d="M 54.9316 0 L 57.666 0 L 30.5664 -70.459 L 28.0762 -70.459 L 0.976562 0 L 3.66211 0 L 12.9395 -24.4629 L 45.7031 -24.4629 Z M 29.1992 -67.0898 L 29.4434 -67.0898 L 44.8242 -26.709 L 13.8184 -26.709 Z"/></g><line id="Baseline-L" style="fill:none;stroke:#27AAE1;opacity:1;stroke-width:0.577;" x1="263" x2="3036" y1="1556" y2="1556"/><line id="Capline-L" style="fill:none;stroke:#27AAE1;opacity:1;stroke-width:0.577;" x1="263" x2="3036" y1="1485.54" y2="1485.54"/><rect height="119.336" id="left-margin" style="fill:darkred;stroke:none;opacity:0.4;" width="12.4512" x="1394.06" y="1030.79"/><rect height="119.336" id="right-margin" style="fill:darkgreen;stroke:none;opacity:0.4;" width="12.4512" x="1502.5112" y="1030.79"/><rect x="1406.5112" y="1045" width="96" height="96" fill="none" stroke="blue" stroke-dasharray="5"/><rect x="1394.06" y="1030.79" width="120.9024" height="119.336" fill="none" stroke="blue"/></g><g id="Symbols"><g id="Bold-L" transform="matrix(1 0 0 1 2266 1556)"><path d="M8.869 -11.204 V-26.522 H39.99 V-37.165 Q39.99 -37.165 39.99 -37.165 Q39.99 -37.165 39.99 -37.165 H29.025 Q25.873 -37.165 23.74 -39.37 Q21.608 -41.575 21.608 -44.772 Q21.608 -47.969 23.74 -50.146 Q25.873 -52.322 29.025 -52.322 H40.151 Q46.337 -52.322 50.742 -47.87 Q55.148 -43.417 55.148 -37.165 V-26.522 H69.66 V-75.704 Q69.66 -87.323 77.964 -95.622 Q86.269 -103.922 98.105 -103.922 Q105.941 -103.922 112.443 -99.66 Q118.944 -95.398 122.873 -88.442 L129.161 -76.349 L115.294 -69.576 L109.166 -81.509 Q107.361 -84.643 104.41 -86.623 Q101.458 -88.604 97.95 -88.604 Q92.396 -88.604 88.688 -84.841 Q84.979 -81.079 84.979 -75.704 V-26.522 H99.491 V-37.165 Q99.491 -43.417 103.944 -47.87 Q108.396 -52.322 114.649 -52.322 H125.614 Q128.835 -52.322 131.014 -50.117 Q133.192 -47.912 133.192 -44.716 Q133.192 -41.519 131.014 -39.342 Q128.835 -37.165 125.614 -37.165 H114.81 Q114.81 -37.165 114.81 -37.165 Q114.81 -37.165 114.81 -37.165 V-26.522 H146.093 V-11.204 H8.869 Z M36.765 26.851 Q30.579 26.851 26.174 22.446 Q21.769 18.041 21.769 11.855 V-11.204 H36.926 V11.694 Q36.926 11.694 36.926 11.694 Q36.926 11.694 36.926 11.694 H117.874 Q117.874 11.694 117.874 11.694 Q117.874 11.694 117.874 11.694 V-11.204 H133.192 V12.661 Q133.192 18.515 129.065 22.683 Q124.938 26.851 119.002 26.851 H36.765 Z"/></g><g id="Semibold-L" transform="matrix(1 0 0 1 1970.27 1556)"><path d="M10.621 -13.938 V-26.803 H42.233 V-37.726 Q42.233 -37.726 42.233 -37.726 Q42.233 -37.726 42.233 -37.726 H29.726 Q27.05 -37.726 25.24 -39.581 Q23.43 -41.435 23.43 -44.141 Q23.43 -46.847 25.24 -48.673 Q27.05 -50.5 29.726 -50.5 H42.324 Q47.556 -50.5 51.282 -46.747 Q55.007 -42.995 55.007 -37.726 V-26.803 H70.922 V-75.353 Q70.922 -86.407 78.806 -94.254 Q86.689 -102.1 97.866 -102.1 Q105.38 -102.1 111.579 -98.113 Q117.778 -94.127 121.4 -87.461 L127.899 -74.736 L116.205 -69.015 L109.867 -81.579 Q108.006 -84.963 104.763 -87.099 Q101.522 -89.235 97.729 -89.235 Q91.835 -89.235 87.811 -85.186 Q83.787 -81.137 83.787 -75.353 V-26.803 H99.702 V-37.726 Q99.702 -42.995 103.454 -46.747 Q107.206 -50.5 112.476 -50.5 H124.983 Q127.697 -50.5 129.534 -48.645 Q131.37 -46.79 131.37 -44.085 Q131.37 -41.378 129.534 -39.552 Q127.697 -37.726 124.983 -37.726 H112.567 Q112.567 -37.726 112.567 -37.726 Q112.567 -37.726 112.567 -37.726 V-26.803 H144.27 V-13.938 H10.621 Z M36.204 25.099 Q30.973 25.099 27.247 21.373 Q23.521 17.647 23.521 12.416 V-13.938 H36.295 V12.325 Q36.295 12.325 36.295 12.325 Q36.295 12.325 36.295 12.325 H118.505 Q118.505 12.325 118.505 12.325 Q118.505 12.325 118.505 12.325 V-13.938 H131.37 V12.171 Q131.37 17.503 127.596 21.301 Q123.821 25.099 118.442 25.099 H36.204 Z"/></g><g id="Medium-L" transform="matrix(1 0 0 1 1674.31 1556)"><path d="M11.936 -15.989 V-27.013 H43.916 V-38.147 Q43.916 -38.147 43.916 -38.147 Q43.916 -38.147 43.916 -38.147 H30.252 Q27.934 -38.147 26.366 -39.738 Q24.797 -41.33 24.797 -43.668 Q24.797 -46.006 26.366 -47.569 Q27.934 -49.133 30.252 -49.133 H43.955 Q48.47 -49.133 51.686 -45.905 Q54.902 -42.678 54.902 -38.147 V-27.013 H71.868 V-75.09 Q71.868 -85.721 79.437 -93.227 Q87.005 -100.733 97.687 -100.733 Q104.96 -100.733 110.931 -96.953 Q116.903 -93.173 120.296 -86.725 L126.953 -73.527 L116.889 -68.595 L110.393 -81.631 Q108.489 -85.203 105.029 -87.455 Q101.569 -89.708 97.563 -89.708 Q91.415 -89.708 87.154 -85.445 Q82.893 -81.181 82.893 -75.09 V-27.013 H99.859 V-38.147 Q99.859 -42.678 103.086 -45.905 Q106.314 -49.133 110.845 -49.133 H124.51 Q126.844 -49.133 128.423 -47.541 Q130.003 -45.949 130.003 -43.611 Q130.003 -41.273 128.423 -39.71 Q126.844 -38.147 124.51 -38.147 H110.884 Q110.884 -38.147 110.884 -38.147 Q110.884 -38.147 110.884 -38.147 V-27.013 H142.903 V-15.989 H11.936 Z M35.783 23.784 Q31.268 23.784 28.052 20.568 Q24.836 17.352 24.836 12.837 V-15.989 H35.822 V12.798 Q35.822 12.798 35.822 12.798 Q35.822 12.798 35.822 12.798 H118.978 Q118.978 12.798 118.978 12.798 Q118.978 12.798 118.978 12.798 V-15.989 H130.003 V11.802 Q130.003 16.745 126.493 20.264 Q122.983 23.784 118.021 23.784 H35.783 Z"/></g><g id="Regular-L" transform="matrix(1 0 0 1 1378.56 1556)"><path d="M12.9 -17.492 V-27.167 H45.15 V-38.455 Q45.15 -38.455 45.15 -38.455 Q45.15 -38.455 45.15 -38.455 H30.637 Q28.582 -38.455 27.191 -39.854 Q25.8 -41.253 25.8 -43.321 Q25.8 -45.389 27.191 -46.759 Q28.582 -48.13 30.637 -48.13 H45.15 Q49.141 -48.13 51.983 -45.288 Q54.825 -42.446 54.825 -38.455 V-27.167 H72.562 V-74.897 Q72.562 -85.217 79.899 -92.474 Q87.236 -99.73 97.556 -99.73 Q104.651 -99.73 110.456 -96.102 Q116.261 -92.474 119.486 -86.185 L126.259 -72.64 L117.39 -68.286 L110.779 -81.67 Q108.844 -85.379 105.224 -87.717 Q101.604 -90.055 97.441 -90.055 Q91.106 -90.055 86.672 -85.634 Q82.237 -81.213 82.237 -74.897 V-27.167 H99.975 V-38.455 Q99.975 -42.446 102.817 -45.288 Q105.659 -48.13 109.65 -48.13 H124.163 Q126.218 -48.13 127.609 -46.731 Q129 -45.332 129 -43.264 Q129 -41.196 127.609 -39.826 Q126.218 -38.455 124.163 -38.455 H109.65 Q109.65 -38.455 109.65 -38.455 Q109.65 -38.455 109.65 -38.455 V-27.167 H141.9 V-17.492 H12.9 Z M35.475 22.82 Q31.484 22.82 28.642 19.978 Q25.8 17.136 25.8 13.145 V-17.492 H35.475 V13.145 Q35.475 13.145 35.475 13.145 Q35.475 13.145 35.475 13.145 H119.325 Q119.325 13.145 119.325 13.145 Q119.325 13.145 119.325 13.145 V-17.492 H129 V11.533 Q129 16.189 125.684 19.504 Q122.369 22.82 117.713 22.82 H35.475 Z"/></g><g id="Light-L" transform="matrix(1 0 0 1 1082.77 1556)"><path d="M16.125 -18.795 V-26.113 H48.127 V-37.277 Q48.127 -38.083 47.569 -38.641 Q47.011 -39.199 46.204 -39.199 H32.684 Q31.126 -39.199 30.076 -40.258 Q29.025 -41.317 29.025 -42.888 Q29.025 -44.458 30.076 -45.488 Q31.126 -46.517 32.684 -46.517 H46.204 Q50.009 -46.517 52.727 -43.799 Q55.445 -41.081 55.445 -37.277 V-26.113 H73.741 V-72.975 Q73.741 -82.733 80.678 -89.619 Q87.614 -96.505 97.373 -96.505 Q104.093 -96.505 109.624 -93.059 Q115.154 -89.612 118.184 -83.642 L124.336 -71.276 L117.638 -67.976 L111.585 -80.243 Q109.526 -84.262 105.654 -86.725 Q101.781 -89.187 97.286 -89.187 Q90.486 -89.187 85.773 -84.487 Q81.059 -79.787 81.059 -72.962 V-26.113 H99.355 V-37.277 Q99.355 -41.081 102.073 -43.799 Q104.791 -46.517 108.596 -46.517 H122.116 Q123.674 -46.517 124.724 -45.459 Q125.775 -44.4 125.775 -42.829 Q125.775 -41.258 124.724 -40.229 Q123.674 -39.199 122.116 -39.199 H108.596 Q107.789 -39.199 107.231 -38.641 Q106.673 -38.083 106.673 -37.277 V-26.113 H138.675 V-18.795 H16.125 Z M38.266 19.595 Q34.461 19.595 31.743 16.877 Q29.025 14.159 29.025 10.354 V-18.795 H36.343 V10.354 Q36.343 11.16 36.902 11.718 Q37.46 12.277 38.266 12.277 H116.534 Q117.34 12.277 117.898 11.718 Q118.457 11.16 118.457 10.354 V-18.795 H125.775 V9.486 Q125.775 13.701 122.828 16.648 Q119.881 19.595 115.728 19.595 H38.266 Z"/></g><g id="Thin-L" transform="matrix(1 0 0 1 787.282 1556)"><path d="M19.35 -20.097 V-25.059 H51.104 V-36.098 Q51.104 -37.711 49.988 -38.827 Q48.871 -39.943 47.259 -39.943 H34.731 Q33.67 -39.943 32.96 -40.662 Q32.25 -41.381 32.25 -42.455 Q32.25 -43.528 32.96 -44.217 Q33.67 -44.905 34.731 -44.905 H47.259 Q50.877 -44.905 53.471 -42.311 Q56.065 -39.717 56.065 -36.098 V-25.059 H74.919 V-71.052 Q74.919 -80.249 81.456 -86.765 Q87.992 -93.28 97.189 -93.28 Q103.535 -93.28 108.791 -90.016 Q114.047 -86.751 116.881 -81.099 L122.414 -69.911 L117.886 -67.666 L112.391 -78.817 Q110.208 -83.146 106.083 -85.732 Q101.958 -88.318 97.131 -88.318 Q89.866 -88.318 84.873 -83.339 Q79.881 -78.36 79.881 -71.028 V-25.059 H98.735 V-36.098 Q98.735 -39.717 101.329 -42.311 Q103.923 -44.905 107.541 -44.905 H120.069 Q121.13 -44.905 121.84 -44.186 Q122.55 -43.467 122.55 -42.394 Q122.55 -41.32 121.84 -40.632 Q121.13 -39.943 120.069 -39.943 H107.541 Q105.929 -39.943 104.812 -38.827 Q103.696 -37.711 103.696 -36.098 V-25.059 H135.45 V-20.097 H19.35 Z M41.057 16.37 Q37.438 16.37 34.844 13.776 Q32.25 11.182 32.25 7.563 V-20.097 H37.212 V7.563 Q37.212 9.176 38.328 10.292 Q39.444 11.408 41.057 11.408 H113.743 Q115.356 11.408 116.472 10.292 Q117.588 9.176 117.588 7.563 V-20.097 H122.55 V7.439 Q122.55 11.213 119.972 13.792 Q117.393 16.37 113.743 16.37 H41.057 Z"/></g><g id="Ultralight-L" transform="matrix(1 0 0 1 491.205 1556)"><path d="M21.285 -20.879 V-24.426 H52.89 V-35.391 Q52.89 -37.487 51.439 -38.939 Q49.988 -40.39 47.891 -40.39 H35.959 Q35.197 -40.39 34.691 -40.905 Q34.185 -41.42 34.185 -42.195 Q34.185 -42.97 34.691 -43.454 Q35.197 -43.937 35.959 -43.937 H47.891 Q51.398 -43.937 53.918 -41.418 Q56.438 -38.898 56.438 -35.391 V-24.426 H75.626 V-69.899 Q75.626 -78.759 81.923 -85.052 Q88.219 -91.345 97.079 -91.345 Q103.2 -91.345 108.292 -88.19 Q113.383 -85.035 116.1 -79.574 L121.26 -69.092 L118.035 -67.48 L112.875 -77.961 Q110.618 -82.476 106.341 -85.137 Q102.065 -87.797 97.038 -87.797 Q89.494 -87.797 84.334 -82.651 Q79.174 -77.504 79.174 -69.867 V-24.426 H98.362 V-35.391 Q98.362 -38.898 100.882 -41.418 Q103.402 -43.937 106.909 -43.937 H118.841 Q119.603 -43.937 120.109 -43.423 Q120.615 -42.908 120.615 -42.133 Q120.615 -41.357 120.109 -40.874 Q119.603 -40.39 118.841 -40.39 H106.909 Q104.812 -40.39 103.361 -38.939 Q101.91 -37.487 101.91 -35.391 V-24.426 H133.515 V-20.879 H21.285 Z M42.731 14.435 Q39.224 14.435 36.705 11.915 Q34.185 9.396 34.185 5.889 V-20.879 H37.733 V5.889 Q37.733 7.985 39.184 9.436 Q40.635 10.888 42.731 10.888 H112.069 Q114.165 10.888 115.616 9.436 Q117.068 7.985 117.068 5.889 V-20.879 H120.615 V6.211 Q120.615 9.72 118.258 12.078 Q115.901 14.435 112.553 14.435 H42.731 Z"/></g><g id="Bold-M" transform="matrix(1 0 0 1 2281.8 1126)"><path d="M5.75 -13.73 V-29.48 H29.625 V-33.855 Q29.625 -33.855 29.625 -33.855 Q29.625 -33.855 29.625 -33.855 H23.375 Q20.081 -33.855 17.853 -36.167 Q15.625 -38.48 15.625 -41.73 Q15.625 -44.98 17.853 -47.292 Q20.081 -49.605 23.375 -49.605 H29.75 Q36.195 -49.605 40.785 -44.978 Q45.375 -40.352 45.375 -33.855 V-29.48 H52 V-65.48 Q52 -75.48 59.062 -82.48 Q66.125 -89.48 76.175 -89.48 Q82.875 -89.48 88.438 -85.855 Q94 -82.23 97.25 -76.23 L102.5 -66.23 L88.375 -59.23 L83 -69.23 Q81.975 -71.284 80.113 -72.507 Q78.25 -73.73 76.019 -73.73 Q72.625 -73.73 70.188 -71.324 Q67.75 -68.917 67.75 -65.48 V-29.48 H74.5 V-33.855 Q74.5 -40.352 79.09 -44.978 Q83.68 -49.605 90.125 -49.605 H96.5 Q99.794 -49.605 102.022 -47.292 Q104.25 -44.98 104.25 -41.73 Q104.25 -38.48 102.022 -36.167 Q99.794 -33.855 96.5 -33.855 H90.25 Q90.25 -33.855 90.25 -33.855 Q90.25 -33.855 90.25 -33.855 V-29.48 H114.25 V-13.73 H5.75 Z M31.375 14.02 Q24.93 14.02 20.34 9.43 Q15.75 4.84 15.75 -1.605 V-13.73 H31.5 V-1.73 Q31.5 -1.73 31.5 -1.73 Q31.5 -1.73 31.5 -1.73 H88.5 Q88.5 -1.73 88.5 -1.73 Q88.5 -1.73 88.5 -1.73 V-13.73 H104.25 V1.02 Q104.25 6.383 100.5 10.201 Q96.75 14.02 91.375 14.02 H31.375 Z"/></g><g id="Semibold-M" transform="matrix(1 0 0 1 1985.97 1126)"><path d="M7.598 -16.556 V-29.806 H31.962 V-34.453 Q31.962 -34.453 31.962 -34.453 Q31.962 -34.453 31.962 -34.453 H24.081 Q21.296 -34.453 19.412 -36.385 Q17.527 -38.317 17.527 -41.078 Q17.527 -43.839 19.412 -45.771 Q21.296 -47.703 24.081 -47.703 H32.032 Q37.469 -47.703 41.34 -43.811 Q45.212 -39.918 45.212 -34.453 V-29.806 H53.304 V-65.154 Q53.304 -74.556 59.905 -81.094 Q66.505 -87.632 75.936 -87.632 Q82.223 -87.632 87.487 -84.279 Q92.75 -80.926 95.728 -75.252 L101.196 -64.6 L89.299 -58.686 L83.761 -69.339 Q82.584 -71.641 80.444 -73.012 Q78.304 -74.382 75.794 -74.382 Q71.973 -74.382 69.264 -71.691 Q66.554 -68.999 66.554 -65.154 V-29.806 H74.717 V-34.453 Q74.717 -39.918 78.589 -43.811 Q82.46 -47.703 87.897 -47.703 H95.848 Q98.633 -47.703 100.518 -45.771 Q102.402 -43.839 102.402 -41.078 Q102.402 -38.317 100.518 -36.385 Q98.633 -34.453 95.848 -34.453 H87.968 Q87.968 -34.453 87.968 -34.453 Q87.968 -34.453 87.968 -34.453 V-29.806 H112.402 V-16.556 H7.598 Z M30.777 12.172 Q25.341 12.172 21.469 8.301 Q17.598 4.429 17.598 -1.007 V-16.556 H30.848 V-1.078 Q30.848 -1.078 30.848 -1.078 Q30.848 -1.078 30.848 -1.078 H89.152 Q89.152 -1.078 89.152 -1.078 Q89.152 -1.078 89.152 -1.078 V-16.556 H102.402 V0.477 Q102.402 5.301 99.005 8.737 Q95.609 12.172 90.777 12.172 H30.777 Z"/></g><g id="Medium-M" transform="matrix(1 0 0 1 1689.91 1126)"><path d="M8.984 -18.676 V-30.051 H33.715 V-34.901 Q33.715 -34.901 33.715 -34.901 Q33.715 -34.901 33.715 -34.901 H24.611 Q22.207 -34.901 20.58 -36.548 Q18.954 -38.195 18.954 -40.589 Q18.954 -42.983 20.58 -44.629 Q22.207 -46.276 24.611 -46.276 H33.745 Q38.424 -46.276 41.757 -42.935 Q45.09 -39.593 45.09 -34.901 V-30.051 H54.283 V-64.909 Q54.283 -73.863 60.537 -80.055 Q66.791 -86.246 75.757 -86.246 Q81.734 -86.246 86.773 -83.097 Q91.812 -79.947 94.587 -74.518 L100.217 -63.377 L89.992 -58.279 L84.332 -69.42 Q83.04 -71.909 80.693 -73.39 Q78.345 -74.871 75.624 -74.871 Q71.484 -74.871 68.571 -71.966 Q65.658 -69.06 65.658 -64.909 V-30.051 H74.88 V-34.901 Q74.88 -39.593 78.213 -42.935 Q81.546 -46.276 86.226 -46.276 H95.359 Q97.763 -46.276 99.39 -44.629 Q101.016 -42.983 101.016 -40.589 Q101.016 -38.195 99.39 -36.548 Q97.763 -34.901 95.359 -34.901 H86.255 Q86.255 -34.901 86.255 -34.901 Q86.255 -34.901 86.255 -34.901 V-30.051 H111.016 V-18.676 H8.984 Z M30.329 10.786 Q25.649 10.786 22.316 7.454 Q18.984 4.121 18.984 -0.559 V-18.676 H30.359 V-0.589 Q30.359 -0.589 30.359 -0.589 Q30.359 -0.589 30.359 -0.589 H89.641 Q89.641 -0.589 89.641 -0.589 Q89.641 -0.589 89.641 -0.589 V-18.676 H101.016 V0.069 Q101.016 4.49 97.885 7.638 Q94.753 10.786 90.329 10.786 H30.329 Z"/></g><g id="Regular-M" transform="matrix(1 0 0 1 1394.06 1126)"><path d="M10 -20.23 V-30.23 H35 V-35.23 Q35 -35.23 35 -35.23 Q35 -35.23 35 -35.23 H25 Q22.875 -35.23 21.438 -36.667 Q20 -38.105 20 -40.23 Q20 -42.355 21.438 -43.792 Q22.875 -45.23 25 -45.23 H35 Q39.125 -45.23 42.062 -42.292 Q45 -39.355 45 -35.23 V-30.23 H55 V-64.73 Q55 -73.355 61 -79.292 Q67 -85.23 75.625 -85.23 Q81.375 -85.23 86.25 -82.23 Q91.125 -79.23 93.75 -73.98 L99.5 -62.48 L90.5 -57.98 L84.75 -69.48 Q83.375 -72.105 80.875 -73.667 Q78.375 -75.23 75.5 -75.23 Q71.125 -75.23 68.062 -72.167 Q65 -69.105 65 -64.73 V-30.23 H75 V-35.23 Q75 -39.355 77.938 -42.292 Q80.875 -45.23 85 -45.23 H95 Q97.125 -45.23 98.562 -43.792 Q100 -42.355 100 -40.23 Q100 -38.105 98.562 -36.667 Q97.125 -35.23 95 -35.23 H85 Q85 -35.23 85 -35.23 Q85 -35.23 85 -35.23 V-30.23 H110 V-20.23 H10 Z M30 9.77 Q25.875 9.77 22.938 6.833 Q20 3.895 20 -0.23 V-20.23 H30 V-0.23 Q30 -0.23 30 -0.23 Q30 -0.23 30 -0.23 H90 Q90 -0.23 90 -0.23 Q90 -0.23 90 -0.23 V-20.23 H100 V-0.23 Q100 3.895 97.062 6.833 Q94.125 9.77 90 9.77 H30 Z"/></g><g id="Light-M" transform="matrix(1 0 0 1 1098.18 1126)"><path d="M12.5 -21.576 V-29.076 H37.308 V-34.99 Q37.308 -35.615 36.875 -36.047 Q36.442 -36.48 35.817 -36.48 H26.25 Q24.654 -36.48 23.577 -37.557 Q22.5 -38.634 22.5 -40.23 Q22.5 -41.826 23.577 -42.903 Q24.654 -43.98 26.25 -43.98 H35.817 Q39.558 -43.98 42.183 -41.355 Q44.808 -38.73 44.808 -34.99 V-29.076 H56.25 V-63.576 Q56.25 -71.624 61.841 -77.177 Q67.433 -82.73 75.481 -82.73 Q80.846 -82.73 85.433 -79.922 Q90.019 -77.114 92.452 -72.201 L97.577 -61.903 L90.837 -58.509 L85.663 -68.855 Q84.144 -71.768 81.38 -73.499 Q78.615 -75.23 75.404 -75.23 Q70.548 -75.23 67.149 -71.831 Q63.75 -68.432 63.75 -63.576 V-29.076 H75.192 V-34.99 Q75.192 -38.73 77.817 -41.355 Q80.442 -43.98 84.183 -43.98 H93.75 Q95.346 -43.98 96.423 -42.903 Q97.5 -41.826 97.5 -40.23 Q97.5 -38.634 96.423 -37.557 Q95.346 -36.48 93.75 -36.48 H84.183 Q83.558 -36.48 83.125 -36.047 Q82.692 -35.615 82.692 -34.99 V-29.076 H107.5 V-21.576 H12.5 Z M31.491 7.27 Q27.75 7.27 25.125 4.645 Q22.5 2.02 22.5 -1.72 V-21.576 H30 V-1.72 Q30 -1.095 30.433 -0.663 Q30.866 -0.23 31.491 -0.23 H88.51 Q89.135 -0.23 89.567 -0.663 Q90 -1.095 90 -1.72 V-21.576 H97.5 V-1.48 Q97.5 2.164 94.947 4.717 Q92.394 7.27 88.798 7.27 H31.491 Z"/></g><g id="Thin-M" transform="matrix(1 0 0 1 802.565 1126)"><path d="M15 -22.922 V-27.922 H39.615 V-34.749 Q39.615 -35.999 38.75 -36.865 Q37.885 -37.73 36.635 -37.73 H27.5 Q26.433 -37.73 25.716 -38.446 Q25 -39.163 25 -40.23 Q25 -41.297 25.716 -42.014 Q26.433 -42.73 27.5 -42.73 H36.635 Q39.99 -42.73 42.303 -40.417 Q44.615 -38.105 44.615 -34.749 V-27.922 H57.5 V-62.422 Q57.5 -69.893 62.683 -75.062 Q67.865 -80.23 75.337 -80.23 Q80.317 -80.23 84.615 -77.615 Q88.913 -74.999 91.154 -70.422 L95.654 -61.326 L91.173 -59.038 L86.577 -68.23 Q84.913 -71.432 81.885 -73.331 Q78.856 -75.23 75.308 -75.23 Q69.971 -75.23 66.236 -71.494 Q62.5 -67.759 62.5 -62.422 V-27.922 H75.385 V-34.749 Q75.385 -38.105 77.697 -40.417 Q80.01 -42.73 83.365 -42.73 H92.5 Q93.567 -42.73 94.284 -42.014 Q95 -41.297 95 -40.23 Q95 -39.163 94.284 -38.446 Q93.567 -37.73 92.5 -37.73 H83.365 Q82.115 -37.73 81.25 -36.865 Q80.385 -35.999 80.385 -34.749 V-27.922 H105 V-22.922 H15 Z M32.981 4.77 Q29.625 4.77 27.312 2.458 Q25 0.145 25 -3.211 V-22.922 H30 V-3.211 Q30 -1.961 30.865 -1.095 Q31.731 -0.23 32.981 -0.23 H87.019 Q88.269 -0.23 89.135 -1.095 Q90 -1.961 90 -3.211 V-22.922 H95 V-2.73 Q95 0.434 92.832 2.602 Q90.663 4.77 87.596 4.77 H32.981 Z"/></g><g id="Ultralight-M" transform="matrix(1 0 0 1 506.415 1126)"><path d="M16.5 -23.73 V-27.23 H41 V-34.605 Q41 -36.23 39.875 -37.355 Q38.75 -38.48 37.125 -38.48 H28.25 Q27.5 -38.48 27 -38.98 Q26.5 -39.48 26.5 -40.23 Q26.5 -40.98 27 -41.48 Q27.5 -41.98 28.25 -41.98 H37.125 Q40.25 -41.98 42.375 -39.855 Q44.5 -37.73 44.5 -34.605 V-27.23 H58.25 V-61.73 Q58.25 -68.855 63.188 -73.792 Q68.125 -78.73 75.25 -78.73 Q80 -78.73 84.125 -76.23 Q88.25 -73.73 90.375 -69.355 L94.5 -60.98 L91.375 -59.355 L87.125 -67.855 Q85.375 -71.23 82.188 -73.23 Q79 -75.23 75.25 -75.23 Q69.625 -75.23 65.688 -71.292 Q61.75 -67.355 61.75 -61.73 V-27.23 H75.5 V-34.605 Q75.5 -37.73 77.625 -39.855 Q79.75 -41.98 82.875 -41.98 H91.75 Q92.5 -41.98 93 -41.48 Q93.5 -40.98 93.5 -40.23 Q93.5 -39.48 93 -38.98 Q92.5 -38.48 91.75 -38.48 H82.875 Q81.25 -38.48 80.125 -37.355 Q79 -36.23 79 -34.605 V-27.23 H103.5 V-23.73 H16.5 Z M33.875 3.27 Q30.75 3.27 28.625 1.145 Q26.5 -0.98 26.5 -4.105 V-23.73 H30 V-4.105 Q30 -2.48 31.125 -1.355 Q32.25 -0.23 33.875 -0.23 H86.125 Q87.75 -0.23 88.875 -1.355 Q90 -2.48 90 -4.105 V-23.73 H93.5 V-3.48 Q93.5 -0.605 91.562 1.333 Q89.625 3.27 86.875 3.27 H33.875 Z"/></g><g id="Bold-S" transform="matrix(1 0 0 1 2294.23 696)"><path d="M6.115 -18.266 V-29.904 H25.347 V-35.329 Q25.347 -35.329 25.347 -35.329 Q25.347 -35.329 25.347 -35.329 H21.204 Q18.773 -35.329 17.129 -37.034 Q15.484 -38.739 15.484 -41.127 Q15.484 -43.514 17.143 -45.191 Q18.803 -46.868 21.204 -46.966 H25.149 Q30.037 -47.065 33.511 -43.563 Q36.984 -40.06 36.984 -35.033 V-29.904 H41.422 V-58.308 Q41.422 -65.804 46.737 -71.129 Q52.051 -76.455 59.609 -76.455 Q64.797 -76.455 68.991 -73.7 Q73.186 -70.945 75.645 -66.395 L79.59 -58.801 L69.235 -53.673 L65.093 -61.267 Q64.284 -62.888 62.814 -63.853 Q61.345 -64.817 59.585 -64.817 Q56.907 -64.817 54.983 -62.919 Q53.06 -61.02 53.06 -58.308 V-29.904 H57.597 V-35.033 Q57.597 -40.06 61.07 -43.563 Q64.544 -47.065 69.432 -46.966 H73.377 Q75.779 -46.868 77.438 -45.182 Q79.097 -43.497 79.097 -41.139 Q79.097 -38.78 77.438 -37.005 Q75.779 -35.23 73.377 -35.329 H69.235 Q69.235 -35.329 69.235 -35.329 Q69.235 -35.329 69.235 -35.329 V-29.904 H88.565 V-18.266 H6.115 Z M24.755 1.261 Q19.995 1.261 16.605 -2.128 Q13.216 -5.518 13.216 -10.278 V-18.266 H24.854 V-10.376 Q24.854 -10.376 24.854 -10.376 Q24.854 -10.376 24.854 -10.376 H69.827 Q69.827 -10.376 69.827 -10.376 Q69.827 -10.376 69.827 -10.376 V-18.266 H81.464 V-8.404 Q81.464 -4.417 78.737 -1.578 Q76.01 1.261 72.095 1.261 H24.755 Z"/></g><g id="Semibold-S" transform="matrix(1 0 0 1 1998.1 696)"><path d="M7.573 -20.496 V-30.162 H27.19 V-35.8 Q27.19 -35.8 27.19 -35.8 Q27.19 -35.8 27.19 -35.8 H21.762 Q19.732 -35.8 18.358 -37.205 Q16.985 -38.61 16.985 -40.612 Q16.985 -42.614 18.373 -43.991 Q19.761 -45.367 21.762 -45.466 H26.95 Q31.042 -45.564 33.949 -42.641 Q36.856 -39.718 36.856 -35.504 V-30.162 H42.452 V-58.051 Q42.452 -65.075 47.401 -70.036 Q52.351 -74.997 59.42 -74.997 Q64.282 -74.997 68.241 -72.457 Q72.2 -69.916 74.445 -65.624 L78.561 -57.515 L69.964 -53.244 L65.693 -61.353 Q64.764 -63.169 63.076 -64.251 Q61.388 -65.332 59.407 -65.332 Q56.392 -65.332 54.255 -63.208 Q52.117 -61.085 52.117 -58.051 V-30.162 H57.769 V-35.504 Q57.769 -39.718 60.675 -42.641 Q63.582 -45.564 67.674 -45.466 H72.862 Q74.863 -45.367 76.251 -43.982 Q77.639 -42.597 77.639 -40.624 Q77.639 -38.652 76.251 -37.177 Q74.863 -35.702 72.862 -35.8 H67.434 Q67.434 -35.8 67.434 -35.8 Q67.434 -35.8 67.434 -35.8 V-30.162 H87.107 V-20.496 H7.573 Z M24.283 -0.197 Q20.319 -0.197 17.496 -3.019 Q14.674 -5.842 14.674 -9.806 V-20.496 H24.339 V-9.862 Q24.339 -9.862 24.339 -9.862 Q24.339 -9.862 24.339 -9.862 H70.341 Q70.341 -9.862 70.341 -9.862 Q70.341 -9.862 70.341 -9.862 V-20.496 H80.006 V-8.833 Q80.006 -5.27 77.558 -2.733 Q75.11 -0.197 71.623 -0.197 H24.283 Z"/></g><g id="Medium-S" transform="matrix(1 0 0 1 1701.85 696)"><path d="M8.666 -22.169 V-30.354 H28.573 V-36.154 Q28.573 -36.154 28.573 -36.154 Q28.573 -36.154 28.573 -36.154 H22.18 Q20.45 -36.154 19.28 -37.334 Q18.111 -38.514 18.111 -40.226 Q18.111 -41.939 19.295 -43.09 Q20.48 -44.241 22.18 -44.34 H28.301 Q31.796 -44.439 34.278 -41.95 Q36.759 -39.462 36.759 -35.858 V-30.354 H43.223 V-57.858 Q43.223 -64.528 47.9 -69.216 Q52.576 -73.904 59.279 -73.904 Q63.896 -73.904 67.678 -71.524 Q71.46 -69.144 73.544 -65.045 L77.789 -56.55 L70.51 -52.922 L66.143 -61.417 Q65.124 -63.381 63.272 -64.549 Q61.42 -65.718 59.273 -65.718 Q56.006 -65.718 53.708 -63.426 Q51.409 -61.133 51.409 -57.858 V-30.354 H57.897 V-35.858 Q57.897 -39.462 60.379 -41.95 Q62.86 -44.439 66.355 -44.34 H72.477 Q74.176 -44.241 75.361 -43.081 Q76.546 -41.921 76.546 -40.238 Q76.546 -38.555 75.361 -37.305 Q74.176 -36.055 72.477 -36.154 H66.083 Q66.083 -36.154 66.083 -36.154 Q66.083 -36.154 66.083 -36.154 V-30.354 H86.014 V-22.169 H8.666 Z M23.929 -1.29 Q20.563 -1.29 18.165 -3.688 Q15.767 -6.086 15.767 -9.452 V-22.169 H23.953 V-9.476 Q23.953 -9.476 23.953 -9.476 Q23.953 -9.476 23.953 -9.476 H70.727 Q70.727 -9.476 70.727 -9.476 Q70.727 -9.476 70.727 -9.476 V-22.169 H78.913 V-9.154 Q78.913 -5.91 76.674 -3.6 Q74.434 -1.29 71.269 -1.29 H23.929 Z"/></g><g id="Regular-S" transform="matrix(1 0 0 1 1405.73 696)"><path d="M9.468 -23.395 V-30.496 H29.588 V-36.413 Q29.588 -36.413 29.588 -36.413 Q29.588 -36.413 29.588 -36.413 H22.486 Q20.978 -36.413 19.957 -37.428 Q18.936 -38.443 18.936 -39.943 Q18.936 -41.443 19.972 -42.43 Q21.007 -43.416 22.486 -43.514 H29.292 Q32.349 -43.613 34.519 -41.443 Q36.689 -39.274 36.689 -36.118 V-30.496 H43.79 V-57.716 Q43.79 -64.127 48.265 -68.615 Q52.741 -73.102 59.175 -73.102 Q63.613 -73.102 67.265 -70.84 Q70.917 -68.578 72.884 -64.62 L77.223 -55.843 L70.911 -52.687 L66.473 -61.464 Q65.388 -63.535 63.416 -64.768 Q61.443 -66.001 59.175 -66.001 Q55.723 -66.001 53.307 -63.585 Q50.891 -61.168 50.891 -57.716 V-30.496 H57.992 V-36.118 Q57.992 -39.274 60.161 -41.443 Q62.331 -43.613 65.388 -43.514 H72.194 Q73.673 -43.416 74.708 -42.421 Q75.744 -41.426 75.744 -39.955 Q75.744 -38.485 74.708 -37.4 Q73.673 -36.315 72.194 -36.413 H65.093 Q65.093 -36.413 65.093 -36.413 Q65.093 -36.413 65.093 -36.413 V-30.496 H85.212 V-23.395 H9.468 Z M23.67 -2.092 Q20.741 -2.092 18.655 -4.178 Q16.569 -6.264 16.569 -9.193 V-23.395 H23.67 V-9.193 Q23.67 -9.193 23.67 -9.193 Q23.67 -9.193 23.67 -9.193 H71.01 Q71.01 -9.193 71.01 -9.193 Q71.01 -9.193 71.01 -9.193 V-23.395 H78.111 V-9.39 Q78.111 -6.38 76.025 -4.236 Q73.939 -2.092 71.01 -2.092 H23.67 Z"/></g><g id="Light-S" transform="matrix(1 0 0 1 1109.75 696)"><path d="M11.441 -24.457 V-29.586 H31.408 V-36.224 Q31.408 -36.717 31.067 -37.058 Q30.726 -37.4 30.232 -37.4 H23.473 Q22.381 -37.4 21.645 -38.13 Q20.909 -38.86 20.909 -39.943 Q20.909 -41.026 21.66 -41.728 Q22.411 -42.43 23.473 -42.528 H29.937 Q32.69 -42.627 34.614 -40.704 Q36.537 -38.78 36.537 -35.928 V-29.586 H44.776 V-56.806 Q44.776 -62.761 48.929 -66.945 Q53.082 -71.129 59.061 -71.129 Q63.196 -71.129 66.62 -69.019 Q70.045 -66.909 71.86 -63.217 L75.706 -55.387 L71.177 -53.104 L67.194 -60.971 Q65.995 -63.27 63.814 -64.635 Q61.633 -66.001 59.099 -66.001 Q55.268 -66.001 52.586 -63.319 Q49.904 -60.637 49.904 -56.806 V-29.586 H58.143 V-35.928 Q58.143 -38.78 60.066 -40.704 Q61.99 -42.627 64.743 -42.528 H71.207 Q72.269 -42.43 73.02 -41.719 Q73.771 -41.009 73.771 -39.955 Q73.771 -38.902 73.02 -38.102 Q72.269 -37.301 71.207 -37.4 H64.448 Q63.954 -37.4 63.613 -37.058 Q63.272 -36.717 63.272 -36.224 V-29.586 H83.239 V-24.457 H11.441 Z M24.846 -4.065 Q22.22 -4.065 20.381 -5.904 Q18.542 -7.743 18.542 -10.369 V-24.457 H23.67 V-10.369 Q23.67 -9.876 24.011 -9.534 Q24.353 -9.193 24.846 -9.193 H69.834 Q70.327 -9.193 70.669 -9.534 Q71.01 -9.876 71.01 -10.369 V-24.457 H76.138 V-10.377 Q76.138 -7.745 74.356 -5.905 Q72.574 -4.065 70.062 -4.065 H24.846 Z"/></g><g id="Thin-S" transform="matrix(1 0 0 1 814.015 696)"><path d="M13.413 -25.519 V-28.675 H33.229 V-36.034 Q33.229 -37.02 32.546 -37.703 Q31.863 -38.386 30.877 -38.386 H24.459 Q23.785 -38.386 23.333 -38.832 Q22.881 -39.278 22.881 -39.943 Q22.881 -40.609 23.348 -41.026 Q23.814 -41.443 24.459 -41.542 H30.581 Q33.032 -41.641 34.708 -39.964 Q36.385 -38.287 36.385 -35.738 V-28.675 H45.762 V-55.896 Q45.762 -61.396 49.593 -65.277 Q53.424 -69.157 58.947 -69.157 Q62.779 -69.157 65.975 -67.199 Q69.172 -65.24 70.836 -61.813 L74.189 -54.932 L71.442 -53.521 L67.915 -60.478 Q66.602 -63.004 64.212 -64.503 Q61.823 -66.001 59.023 -66.001 Q54.813 -66.001 51.865 -63.054 Q48.918 -60.106 48.918 -55.896 V-28.675 H58.295 V-35.738 Q58.295 -38.287 59.972 -39.964 Q61.648 -41.641 64.099 -41.542 H70.221 Q70.866 -41.443 71.332 -41.018 Q71.799 -40.592 71.799 -39.955 Q71.799 -39.319 71.332 -38.803 Q70.866 -38.287 70.221 -38.386 H63.803 Q62.817 -38.386 62.134 -37.703 Q61.451 -37.02 61.451 -36.034 V-28.675 H81.267 V-25.519 H13.413 Z M26.022 -6.037 Q23.7 -6.037 22.107 -7.63 Q20.514 -9.223 20.514 -11.545 V-25.519 H23.67 V-11.545 Q23.67 -10.559 24.353 -9.876 Q25.036 -9.193 26.022 -9.193 H68.658 Q69.644 -9.193 70.327 -9.876 Q71.01 -10.559 71.01 -11.545 V-25.519 H74.166 V-11.363 Q74.166 -9.111 72.687 -7.574 Q71.208 -6.037 69.113 -6.037 H26.022 Z"/></g><g id="Ultralight-S" transform="matrix(1 0 0 1 517.792 696)"><path d="M14.597 -26.156 V-28.129 H34.322 V-35.92 Q34.322 -37.202 33.434 -38.09 Q32.546 -38.978 31.264 -38.978 H25.051 Q24.627 -38.978 24.346 -39.253 Q24.065 -39.528 24.065 -39.943 Q24.065 -40.358 24.36 -40.605 Q24.656 -40.852 25.051 -40.95 H30.968 Q33.237 -41.049 34.765 -39.52 Q36.294 -37.991 36.294 -35.624 V-28.129 H46.354 V-55.349 Q46.354 -60.577 49.991 -64.275 Q53.629 -67.973 58.879 -67.973 Q62.528 -67.973 65.589 -66.106 Q68.649 -64.239 70.221 -60.971 L73.278 -54.659 L71.602 -53.771 L68.347 -60.182 Q66.966 -62.845 64.451 -64.423 Q61.937 -66.001 58.978 -66.001 Q54.54 -66.001 51.433 -62.894 Q48.326 -59.788 48.326 -55.349 V-28.129 H58.386 V-35.624 Q58.386 -37.991 59.915 -39.52 Q61.443 -41.049 63.712 -40.95 H69.629 Q70.024 -40.852 70.32 -40.596 Q70.615 -40.341 70.615 -39.955 Q70.615 -39.569 70.32 -39.224 Q70.024 -38.879 69.629 -38.978 H63.416 Q62.134 -38.978 61.246 -38.09 Q60.358 -37.202 60.358 -35.92 V-28.129 H80.084 V-26.156 H14.597 Z M26.727 -7.22 Q24.587 -7.22 23.142 -8.665 Q21.698 -10.11 21.698 -12.25 V-26.156 H23.67 V-12.25 Q23.67 -10.968 24.558 -10.081 Q25.445 -9.193 26.727 -9.193 H67.953 Q69.235 -9.193 70.122 -10.081 Q71.01 -10.968 71.01 -12.25 V-26.156 H72.983 V-11.954 Q72.983 -9.93 71.686 -8.575 Q70.389 -7.22 68.544 -7.22 H26.727 Z"/></g></g></svg>