<svg xmlns="http://www.w3.org/2000/svg" height="40" viewBox="0 -960 960 960" width="40"><path d="M199.971-281.333v-66.283h66.282v66.283h-66.282Zm368.732 0v-66.283h165.544v-100.123H568.703v-230.928h231.986v66.283H634.985v98.123h99.262q27.423 0 46.932 19.372 19.51 19.373 19.51 47.15v100.123q0 27.778-19.51 47.03-19.509 19.253-46.827 19.253H568.703ZM348.492-282l85.761-330.384H269.587v-66.283h168.871q26.251 0 45.516 17.507 19.265 17.507 19.265 43.245 0 3.123-2.073 13.248L417.405-282h-68.913Z"/></svg>