<svg xmlns="http://www.w3.org/2000/svg" height="40" viewBox="0 -960 960 960" width="40"><path d="M724.174-467.753Zm212.03 76.275H747.29q-2.429-20.3-8.54-39.512-6.112-19.213-14.576-36.763h117.985q.228-8.553-4.248-16.291-4.476-7.738-12.461-11.854-28.986-14.087-59.739-21.334-30.754-7.246-62.536-8.666h-8.507q-3.947 0-8.508.666-17.333-21.811-38.152-39.108-20.819-17.298-45.369-30.312 19.985-4.348 40.984-6.688 20.999-2.341 42.029-2.341 53.247 0 102.348 12.507 49.102 12.508 93.073 37.377 25.429 14.254 40.28 38.143 14.851 23.89 14.851 52.437v71.739Zm-250.618-252.29q-52.618 0-89.385-36.833-36.766-36.833-36.766-89.451 0-52.619 36.833-89.385 36.833-36.767 89.451-36.767 52.618 0 89.385 36.833 36.766 36.833 36.766 89.452 0 52.618-36.833 89.384-36.833 36.767-89.451 36.767Zm.096-76.087q21.318 0 35.71-14.41 14.391-14.41 14.391-35.711 0-20.981-14.421-35.561-14.421-14.58-35.739-14.58-21.319 0-35.71 14.57-14.391 14.57-14.391 35.74 0 21.169 14.421 35.56 14.421 14.392 35.739 14.392Zm-.03-50.131ZM235.825-467.753ZM24.173-391.478v-71.739q0-28.499 14.652-52.351t40.102-38.229q43.971-24.869 93.073-37.377 49.101-12.507 102.348-12.507 21.045 0 42.06 2.358 21.014 2.357 41.33 6.671-24.927 13.014-45.746 30.312-20.819 17.297-38.152 39.108-4.435-.666-8.413-.666h-8.602q-31.782 1.42-62.536 8.666-30.753 7.247-59.739 21.334-7.885 4.277-12.29 11.885-4.405 7.608-4.043 16.26h117.608q-8.463 17.55-14.575 36.763-6.111 19.212-8.522 39.512H24.173Zm250.108-252.29q-52.618 0-89.385-36.833-36.766-36.833-36.766-89.451 0-52.619 36.833-89.385 36.833-36.767 89.451-36.767 52.619 0 89.385 36.833 36.766 36.833 36.766 89.452 0 52.618-36.833 89.384-36.832 36.767-89.451 36.767Zm.096-76.087q21.319 0 35.71-14.41 14.391-14.41 14.391-35.711 0-20.981-14.421-35.561-14.421-14.58-35.739-14.58-21.318 0-35.71 14.57-14.391 14.57-14.391 35.74 0 21.169 14.421 35.56 14.421 14.392 35.739 14.392Zm-.029-50.131Zm205.593 490.435q-32.319 0-55.623-23.146-23.304-23.147-23.304-55.651v-115.681q0-32.115 23.369-54.985 23.369-22.87 55.884-22.87 32.516 0 55.334 22.87 22.819 22.87 22.819 54.985v115.681q0 32.504-23.053 55.651-23.053 23.146-55.426 23.146ZM448.377-64.173v-84.638q-75.58-11.638-126.182-69.244-50.601-57.607-50.601-135.959h63.058q0 60.052 42.309 102.424 42.309 42.373 103.136 42.373t102.757-42.405q41.929-42.405 41.929-102.392h63.058q0 78.203-50.601 135.884-50.602 57.681-125.805 69.319v84.638h-63.058Z"/></svg>