<svg xmlns="http://www.w3.org/2000/svg" height="20" viewBox="0 -960 960 960" width="20"><path d="M688-458Zm256 89H718q-3-25-10.63-46.695Q699.739-437.39 688-458h147q-4-3-8.5-2.5t-7.561-.289Q788-473 758.5-480q-29.5-7-54.5-9h-19.5q-9.5 0-19.5 2-19.104-23.754-44.999-42.421Q594.107-548.087 564-560q30-10 59.407-14.5Q652.813-579 683-579q53 0 107.5 14T898-521q21 11 33.5 28t12.5 35v89ZM683.882-628Q628-628 589-667.118q-39-39.117-39-95Q550-818 589.118-857q39.117-39 95-39Q740-896 779-856.882q39 39.117 39 95Q818-706 778.882-667q-39.117 39-95 39Zm.118-89q18.4 0 31.7-13.3t13.3-32.2q0-18.9-12.993-32.2-12.993-13.3-32.2-13.3T651.8-794.775Q639-781.55 639-762q0 18.4 13.3 31.7T684-717Zm0-46ZM272-458ZM16-369v-89q0-18 12.5-35T62-521q53-30 107.5-44T277-579q30.187 0 59.593 4.5Q366-570 396-560q-30.107 11.913-56.001 30.579Q314.104-510.754 295-487q-10-2-19.5-2H256q-25 2-54.5 9t-60.439 19.211Q138-460 133.5-460.5T125-458h147q-11.739 20.61-19.37 42.305Q245-394 241.903-369H16Zm259.882-259Q220-628 181-667.118q-39-39.117-39-95Q142-818 181.118-857q39.117-39 95-39Q332-896 371-856.882q39 39.117 39 95Q410-706 370.882-667q-39.117 39-95 39Zm.118-89q18.4 0 31.7-13.3t13.3-32.2q0-18.9-12.993-32.2-12.993-13.3-32.2-13.3T243.8-794.775Q231-781.55 231-762q0 18.4 13.3 31.7T276-717Zm0-46Zm204.628 510Q445-253 419-277.112 393-301.225 393-336v-96q0-34 25.867-58.5 25.868-24.5 61.496-24.5t61.133 24.5Q567-466 567-432v96q0 34.775-25.372 58.888-25.371 24.112-61 24.112ZM444-64v-91q-63-11-105.5-58.492T292-327h72q4 44 37.672 74 33.671 30 78.5 30Q525-223 557.5-253t37.5-74h73q-4 66.016-46.5 113.508Q579-166 516-155v91h-72Z"/></svg>