<svg xmlns="http://www.w3.org/2000/svg" height="24" viewBox="0 -960 960 960" width="24"><path d="M442.326-70.782v-83.891q-74.457-13.392-124.686-71.033-50.228-57.642-50.228-135.098h75.284q0 55.739 40.221 95.141 40.221 39.402 97.119 39.402 56.899 0 96.801-39.402t39.902-95.141h75.284q0 77.456-49.729 134.848-49.728 57.391-124.685 71.283v83.891h-75.283Zm37.634-212.392q-34.338 0-58.79-24.298-24.453-24.298-24.453-58.419v-110.718q0-33.831 24.459-58.242 24.458-24.41 58.804-24.41 34.346 0 58.792 24.41 24.446 24.411 24.446 58.242v110.718q0 34.121-24.577 58.419-24.576 24.298-58.681 24.298ZM30.782-397.848v-77q0-25.413 14.652-47.304 14.652-21.891 40.89-36.391 42.392-23.457 90.414-35.403 48.022-11.945 100.283-11.945 18.609 0 37.119 1.652 18.511 1.652 36.62 4.956-57.566 31.087-94.902 83.881-37.337 52.793-45.707 117.554H30.781Zm719.067 0q-8.37-64.761-45.707-117.587-37.336-52.826-94.902-83.848 18.109-3.304 36.619-4.956 18.511-1.652 37.12-1.652 52.261 0 100.283 11.945 48.022 11.946 90.413 35.403 26.239 14.5 40.891 36.391 14.652 21.891 14.652 47.304v77H749.849ZM277.665-643.022q-52.151 0-88.539-36.092t-36.388-87.653q0-51.56 36.428-87.288 36.428-35.729 88.468-35.729 52.04 0 88.333 35.666 36.294 35.666 36.294 87.116 0 51.658-36.341 87.819-36.34 36.161-88.255 36.161Zm404.701 0q-52.04 0-88.333-36.092-36.294-36.092-36.294-87.653 0-51.56 36.341-87.288 36.34-35.729 88.255-35.729 52.151 0 88.539 35.666t36.388 87.116q0 51.658-36.428 87.819t-88.468 36.161Z"/></svg>