<svg xmlns="http://www.w3.org/2000/svg" height="24" viewBox="0 -960 960 960" width="24"><path d="M178.615-208q-38.34 0-64.478-26.137Q88-260.275 88-298.615v-442.77q0-38.34 26.137-64.478Q140.275-832 178.615-832h562.77q38.34 0 64.478 26.137Q832-779.725 832-741.385v121.693h-66v-121.693q0-9.23-7.692-16.923Q750.615-766 741.385-766h-562.77q-9.23 0-16.923 7.692Q154-750.615 154-741.385v442.77q0 9.23 7.692 16.923Q169.385-274 178.615-274h22l66.77 66h-88.77ZM564.846-88q-22.624 0-42.658-8.461-20.034-8.462-36.727-25.154l-184-182.462 33-33q12.385-12.385 27.693-15.692 15.307-3.308 31.384 2.154l65.308 13.461v-291.077q0-13.538 9.731-23.269 9.731-9.731 23.269-9.731 13.539 0 23.269 9.731 9.731 9.731 9.731 23.269v232.308h70.769v-150.769q0-13.539 9.731-23.27 9.731-9.73 23.269-9.73 13.539 0 23.27 9.73 9.731 9.731 9.731 23.27v150.769h70.769v-37.385q0-13.538 9.73-23.269 9.731-9.731 23.27-9.731 13.538 0 23.269 9.731 9.731 9.731 9.731 23.269v37.385h70.769q0-13.539 9.731-23.269 9.731-9.731 23.269-9.731 13.539 0 23.269 9.731 9.731 9.73 9.731 23.269V-241q0 64.308-44.346 108.654Q846.462-88 782.154-88H564.846Z"/></svg>