<svg xmlns="http://www.w3.org/2000/svg" version="1.1" width="3300" height="2000"><g id="Notes"><style>
    text {
      font-family: monospace;
      text-anchor: middle;
    }
    text.emphasis {
      font-weight:bold;
    }
    text.lanchor {
      text-anchor: start;
    }
  </style><rect height="2200" id="artboard" fill="white" width="3300" x="0" y="0"/><line id="" style="fill:none;stroke:black;stroke-width:0.5;" x1="263" x2="3036" y1="292" y2="292"/><text class="lanchor emphasis" transform="matrix(1 0 0 1 263 322)">Weight/Scale Variations</text><text transform="matrix(1 0 0 1 559.711 322)">Ultralight</text><text transform="matrix(1 0 0 1 856.422 322)">Thin</text><text transform="matrix(1 0 0 1 1153.13 322)">Light</text><text transform="matrix(1 0 0 1 1449.84 322)">Regular</text><text transform="matrix(1 0 0 1 1746.56 322)">Medium</text><text transform="matrix(1 0 0 1 2043.27 322)">Semibold</text><text transform="matrix(1 0 0 1 2339.98 322)">Bold</text><text transform="matrix(1 0 0 1 2636.69 322)">Heavy</text><text transform="matrix(1 0 0 1 2933.4 322)">Black</text><text id="template-version" style="text-anchor: end;" transform="matrix(1 0 0 1 3036 1933)">Template v.1.0</text><text class="lanchor" transform="matrix(1 0 0 1 263 726)">Small</text><text class="lanchor" transform="matrix(1 0 0 1 263 1156)">Medium</text><text class="lanchor" transform="matrix(1 0 0 1 263 1586)">Large</text></g><g id="Guides"><g id="H-reference" style="fill:#27AAE1;stroke:none;" transform="matrix(1 0 0 1 339 696)"><path d="M 54.9316 0 L 57.666 0 L 30.5664 -70.459 L 28.0762 -70.459 L 0.976562 0 L 3.66211 0 L 12.9395 -24.4629 L 45.7031 -24.4629 Z M 29.1992 -67.0898 L 29.4434 -67.0898 L 44.8242 -26.709 L 13.8184 -26.709 Z"/></g><line id="Baseline-S" style="fill:none;stroke:#27AAE1;opacity:1;stroke-width:0.577;" x1="263" x2="3036" y1="696" y2="696"/><line id="Capline-S" style="fill:none;stroke:#27AAE1;opacity:1;stroke-width:0.577;" x1="263" x2="3036" y1="625.541" y2="625.541"/><g id="H-reference" style="fill:#27AAE1;stroke:none;" transform="matrix(1 0 0 1 339 1126)"><path d="M 54.9316 0 L 57.666 0 L 30.5664 -70.459 L 28.0762 -70.459 L 0.976562 0 L 3.66211 0 L 12.9395 -24.4629 L 45.7031 -24.4629 Z M 29.1992 -67.0898 L 29.4434 -67.0898 L 44.8242 -26.709 L 13.8184 -26.709 Z"/></g><line id="Baseline-M" style="fill:none;stroke:#27AAE1;opacity:1;stroke-width:0.577;" x1="263" x2="3036" y1="1126" y2="1126"/><line id="Capline-M" style="fill:none;stroke:#27AAE1;opacity:1;stroke-width:0.577;" x1="263" x2="3036" y1="1055.54" y2="1055.54"/><g id="H-reference" style="fill:#27AAE1;stroke:none;" transform="matrix(1 0 0 1 339 1556)"><path d="M 54.9316 0 L 57.666 0 L 30.5664 -70.459 L 28.0762 -70.459 L 0.976562 0 L 3.66211 0 L 12.9395 -24.4629 L 45.7031 -24.4629 Z M 29.1992 -67.0898 L 29.4434 -67.0898 L 44.8242 -26.709 L 13.8184 -26.709 Z"/></g><line id="Baseline-L" style="fill:none;stroke:#27AAE1;opacity:1;stroke-width:0.577;" x1="263" x2="3036" y1="1556" y2="1556"/><line id="Capline-L" style="fill:none;stroke:#27AAE1;opacity:1;stroke-width:0.577;" x1="263" x2="3036" y1="1485.54" y2="1485.54"/><rect height="119.336" id="left-margin" style="fill:darkred;stroke:none;opacity:0.4;" width="12.4512" x="1394.06" y="1030.79"/><rect height="119.336" id="right-margin" style="fill:darkgreen;stroke:none;opacity:0.4;" width="12.4512" x="1502.5112" y="1030.79"/><rect x="1406.5112" y="1045" width="96" height="96" fill="none" stroke="blue" stroke-dasharray="5"/><rect x="1394.06" y="1030.79" width="120.9024" height="119.336" fill="none" stroke="blue"/></g><g id="Symbols"><g id="Bold-L" transform="matrix(1 0 0 1 2266 1556)"><path d="M8.869 33.301 V-103.922 H146.093 V33.301 H8.869 Z M24.026 -7.979 V18.144 H38.7 V3.47 H32.25 V-7.979 H24.026 Z M24.026 -20.717 H32.25 V-28.78 H38.7 V-44.099 Q38.7 -48.13 41.522 -50.952 Q44.344 -53.774 48.375 -53.774 H61.275 Q65.306 -53.774 68.128 -50.952 Q70.95 -48.13 70.95 -44.099 V-28.78 H77.4 V-20.717 H130.774 V-88.604 H24.026 V-20.717 Z M44.344 -8.624 H65.306 V-16.686 H44.344 V-8.624 Z M54.825 -60.224 Q50.794 -60.224 47.972 -63.046 Q45.15 -65.867 45.15 -69.899 Q45.15 -73.93 47.972 -76.752 Q50.794 -79.574 54.825 -79.574 Q58.856 -79.574 61.678 -76.752 Q64.5 -73.93 64.5 -69.899 Q64.5 -65.867 61.678 -63.046 Q58.856 -60.224 54.825 -60.224 Z M48.375 18.144 H61.275 V3.47 H48.375 V18.144 Z M70.95 18.144 H130.774 V-7.979 H77.4 V3.47 H70.95 V18.144 Z M79.98 -48.936 Q80.141 -50.065 80.222 -51.181 Q80.303 -52.297 80.303 -53.498 Q80.303 -55.386 79.496 -57.16 Q78.69 -58.934 76.433 -61.675 Q74.175 -64.577 72.966 -67.548 Q71.756 -70.519 71.756 -73.647 Q71.756 -74.897 71.837 -76.107 Q71.918 -77.316 72.188 -79.574 H80.303 Q79.98 -78.122 79.899 -76.739 Q79.819 -75.355 79.819 -73.607 Q79.819 -71.723 80.625 -69.924 Q81.431 -68.125 83.205 -66.029 Q85.946 -62.642 87.236 -59.605 Q88.526 -56.567 88.526 -53.451 Q88.526 -52 88.446 -50.952 Q88.365 -49.904 88.095 -48.936 H79.98 Z M96.105 -48.936 Q96.266 -50.065 96.347 -51.181 Q96.428 -52.297 96.428 -53.498 Q96.428 -55.386 95.621 -57.16 Q94.815 -58.934 92.558 -61.675 Q90.3 -64.577 89.091 -67.548 Q87.881 -70.519 87.881 -73.647 Q87.881 -74.897 87.962 -76.107 Q88.043 -77.316 88.313 -79.574 H96.428 Q96.105 -78.122 96.024 -76.739 Q95.944 -75.355 95.944 -73.607 Q95.944 -71.723 96.75 -69.924 Q97.556 -68.125 99.33 -66.029 Q102.071 -62.642 103.361 -59.605 Q104.651 -56.567 104.651 -53.451 Q104.651 -52 104.571 -50.952 Q104.49 -49.904 104.22 -48.936 H96.105 Z M112.553 -48.936 Q112.714 -50.065 112.794 -51.181 Q112.875 -52.297 112.875 -53.498 Q112.875 -55.386 112.069 -57.16 Q111.263 -58.934 109.005 -61.675 Q106.748 -64.577 105.538 -67.548 Q104.329 -70.519 104.329 -73.647 Q104.329 -74.897 104.409 -76.107 Q104.49 -77.316 104.76 -79.574 H112.875 Q112.553 -78.122 112.472 -76.739 Q112.391 -75.355 112.391 -73.607 Q112.391 -71.723 113.198 -69.924 Q114.004 -68.125 115.778 -66.029 Q118.519 -62.642 119.809 -59.605 Q121.099 -56.567 121.099 -53.451 Q121.099 -52 121.018 -50.952 Q120.938 -49.904 120.667 -48.936 H112.553 Z"/></g><g id="Semibold-L" transform="matrix(1 0 0 1 1970.27 1556)"><path d="M10.621 31.549 V-102.1 H144.27 V31.549 H10.621 Z M23.395 -9.311 V18.775 H38.7 V3.47 H32.25 V-9.311 H23.395 Z M23.395 -20.717 H32.25 V-28.78 H38.7 V-44.099 Q38.7 -48.13 41.522 -50.952 Q44.344 -53.774 48.375 -53.774 H61.275 Q65.306 -53.774 68.128 -50.952 Q70.95 -48.13 70.95 -44.099 V-28.78 H77.4 V-20.717 H131.405 V-89.235 H23.395 V-20.717 Z M43.292 -7.572 H66.358 V-17.738 H43.292 V-7.572 Z M54.825 -60.224 Q50.794 -60.224 47.972 -63.046 Q45.15 -65.867 45.15 -69.899 Q45.15 -73.93 47.972 -76.752 Q50.794 -79.574 54.825 -79.574 Q58.856 -79.574 61.678 -76.752 Q64.5 -73.93 64.5 -69.899 Q64.5 -65.867 61.678 -63.046 Q58.856 -60.224 54.825 -60.224 Z M48.375 18.775 H61.275 V3.47 H48.375 V18.775 Z M70.95 18.775 H131.405 V-9.311 H77.4 V3.47 H70.95 V18.775 Z M79.98 -48.936 Q80.141 -50.065 80.222 -51.181 Q80.303 -52.297 80.303 -53.498 Q80.303 -55.386 79.496 -57.16 Q78.69 -58.934 76.433 -61.675 Q74.175 -64.577 72.966 -67.548 Q71.756 -70.519 71.756 -73.647 Q71.756 -74.897 71.837 -76.107 Q71.918 -77.316 72.188 -79.574 H80.303 Q79.98 -78.122 79.899 -76.739 Q79.819 -75.355 79.819 -73.607 Q79.819 -71.723 80.625 -69.924 Q81.431 -68.125 83.205 -66.029 Q85.946 -62.642 87.236 -59.605 Q88.526 -56.567 88.526 -53.451 Q88.526 -52 88.446 -50.952 Q88.365 -49.904 88.095 -48.936 H79.98 Z M96.105 -48.936 Q96.266 -50.065 96.347 -51.181 Q96.428 -52.297 96.428 -53.498 Q96.428 -55.386 95.621 -57.16 Q94.815 -58.934 92.558 -61.675 Q90.3 -64.577 89.091 -67.548 Q87.881 -70.519 87.881 -73.647 Q87.881 -74.897 87.962 -76.107 Q88.043 -77.316 88.313 -79.574 H96.428 Q96.105 -78.122 96.024 -76.739 Q95.944 -75.355 95.944 -73.607 Q95.944 -71.723 96.75 -69.924 Q97.556 -68.125 99.33 -66.029 Q102.071 -62.642 103.361 -59.605 Q104.651 -56.567 104.651 -53.451 Q104.651 -52 104.571 -50.952 Q104.49 -49.904 104.22 -48.936 H96.105 Z M112.553 -48.936 Q112.714 -50.065 112.794 -51.181 Q112.875 -52.297 112.875 -53.498 Q112.875 -55.386 112.069 -57.16 Q111.263 -58.934 109.005 -61.675 Q106.748 -64.577 105.538 -67.548 Q104.329 -70.519 104.329 -73.647 Q104.329 -74.897 104.409 -76.107 Q104.49 -77.316 104.76 -79.574 H112.875 Q112.553 -78.122 112.472 -76.739 Q112.391 -75.355 112.391 -73.607 Q112.391 -71.723 113.198 -69.924 Q114.004 -68.125 115.778 -66.029 Q118.519 -62.642 119.809 -59.605 Q121.099 -56.567 121.099 -53.451 Q121.099 -52 121.018 -50.952 Q120.938 -49.904 120.667 -48.936 H112.553 Z"/></g><g id="Medium-L" transform="matrix(1 0 0 1 1674.31 1556)"><path d="M11.936 30.234 V-100.733 H142.903 V30.234 H11.936 Z M22.922 -10.31 V19.248 H38.7 V3.47 H32.25 V-10.31 H22.922 Z M22.922 -20.717 H32.25 V-28.78 H38.7 V-44.099 Q38.7 -48.13 41.522 -50.952 Q44.344 -53.774 48.375 -53.774 H61.275 Q65.306 -53.774 68.128 -50.952 Q70.95 -48.13 70.95 -44.099 V-28.78 H77.4 V-20.717 H131.878 V-89.708 H22.922 V-20.717 Z M42.503 -6.783 H67.147 V-18.527 H42.503 V-6.783 Z M54.825 -60.224 Q50.794 -60.224 47.972 -63.046 Q45.15 -65.867 45.15 -69.899 Q45.15 -73.93 47.972 -76.752 Q50.794 -79.574 54.825 -79.574 Q58.856 -79.574 61.678 -76.752 Q64.5 -73.93 64.5 -69.899 Q64.5 -65.867 61.678 -63.046 Q58.856 -60.224 54.825 -60.224 Z M48.375 19.248 H61.275 V3.47 H48.375 V19.248 Z M70.95 19.248 H131.878 V-10.31 H77.4 V3.47 H70.95 V19.248 Z M79.98 -48.936 Q80.141 -50.065 80.222 -51.181 Q80.303 -52.297 80.303 -53.498 Q80.303 -55.386 79.496 -57.16 Q78.69 -58.934 76.433 -61.675 Q74.175 -64.577 72.966 -67.548 Q71.756 -70.519 71.756 -73.647 Q71.756 -74.897 71.837 -76.107 Q71.918 -77.316 72.188 -79.574 H80.303 Q79.98 -78.122 79.899 -76.739 Q79.819 -75.355 79.819 -73.607 Q79.819 -71.723 80.625 -69.924 Q81.431 -68.125 83.205 -66.029 Q85.946 -62.642 87.236 -59.605 Q88.526 -56.567 88.526 -53.451 Q88.526 -52 88.446 -50.952 Q88.365 -49.904 88.095 -48.936 H79.98 Z M96.105 -48.936 Q96.266 -50.065 96.347 -51.181 Q96.428 -52.297 96.428 -53.498 Q96.428 -55.386 95.621 -57.16 Q94.815 -58.934 92.558 -61.675 Q90.3 -64.577 89.091 -67.548 Q87.881 -70.519 87.881 -73.647 Q87.881 -74.897 87.962 -76.107 Q88.043 -77.316 88.313 -79.574 H96.428 Q96.105 -78.122 96.024 -76.739 Q95.944 -75.355 95.944 -73.607 Q95.944 -71.723 96.75 -69.924 Q97.556 -68.125 99.33 -66.029 Q102.071 -62.642 103.361 -59.605 Q104.651 -56.567 104.651 -53.451 Q104.651 -52 104.571 -50.952 Q104.49 -49.904 104.22 -48.936 H96.105 Z M112.553 -48.936 Q112.714 -50.065 112.794 -51.181 Q112.875 -52.297 112.875 -53.498 Q112.875 -55.386 112.069 -57.16 Q111.263 -58.934 109.005 -61.675 Q106.748 -64.577 105.538 -67.548 Q104.329 -70.519 104.329 -73.647 Q104.329 -74.897 104.409 -76.107 Q104.49 -77.316 104.76 -79.574 H112.875 Q112.553 -78.122 112.472 -76.739 Q112.391 -75.355 112.391 -73.607 Q112.391 -71.723 113.198 -69.924 Q114.004 -68.125 115.778 -66.029 Q118.519 -62.642 119.809 -59.605 Q121.099 -56.567 121.099 -53.451 Q121.099 -52 121.018 -50.952 Q120.938 -49.904 120.667 -48.936 H112.553 Z"/></g><g id="Regular-L" transform="matrix(1 0 0 1 1378.56 1556)"><path d="M12.9 29.27 V-99.73 H141.9 V29.27 H12.9 Z M22.575 -11.042 V19.595 H38.7 V3.47 H32.25 V-11.042 H22.575 Z M22.575 -20.717 H32.25 V-28.78 H38.7 V-44.099 Q38.7 -48.13 41.522 -50.952 Q44.344 -53.774 48.375 -53.774 H61.275 Q65.306 -53.774 68.128 -50.952 Q70.95 -48.13 70.95 -44.099 V-28.78 H77.4 V-20.717 H132.225 V-90.055 H22.575 V-20.717 Z M41.925 -6.205 H67.725 V-19.105 H41.925 V-6.205 Z M54.825 -60.224 Q50.794 -60.224 47.972 -63.046 Q45.15 -65.867 45.15 -69.899 Q45.15 -73.93 47.972 -76.752 Q50.794 -79.574 54.825 -79.574 Q58.856 -79.574 61.678 -76.752 Q64.5 -73.93 64.5 -69.899 Q64.5 -65.867 61.678 -63.046 Q58.856 -60.224 54.825 -60.224 Z M48.375 19.595 H61.275 V3.47 H48.375 V19.595 Z M70.95 19.595 H132.225 V-11.042 H77.4 V3.47 H70.95 V19.595 Z M79.98 -48.936 Q80.141 -50.065 80.222 -51.181 Q80.303 -52.297 80.303 -53.498 Q80.303 -55.386 79.496 -57.16 Q78.69 -58.934 76.433 -61.675 Q74.175 -64.577 72.966 -67.548 Q71.756 -70.519 71.756 -73.647 Q71.756 -74.897 71.837 -76.107 Q71.918 -77.316 72.188 -79.574 H80.303 Q79.98 -78.122 79.899 -76.739 Q79.819 -75.355 79.819 -73.607 Q79.819 -71.723 80.625 -69.924 Q81.431 -68.125 83.205 -66.029 Q85.946 -62.642 87.236 -59.605 Q88.526 -56.567 88.526 -53.451 Q88.526 -52 88.446 -50.952 Q88.365 -49.904 88.095 -48.936 H79.98 Z M96.105 -48.936 Q96.266 -50.065 96.347 -51.181 Q96.428 -52.297 96.428 -53.498 Q96.428 -55.386 95.621 -57.16 Q94.815 -58.934 92.558 -61.675 Q90.3 -64.577 89.091 -67.548 Q87.881 -70.519 87.881 -73.647 Q87.881 -74.897 87.962 -76.107 Q88.043 -77.316 88.313 -79.574 H96.428 Q96.105 -78.122 96.024 -76.739 Q95.944 -75.355 95.944 -73.607 Q95.944 -71.723 96.75 -69.924 Q97.556 -68.125 99.33 -66.029 Q102.071 -62.642 103.361 -59.605 Q104.651 -56.567 104.651 -53.451 Q104.651 -52 104.571 -50.952 Q104.49 -49.904 104.22 -48.936 H96.105 Z M112.553 -48.936 Q112.714 -50.065 112.794 -51.181 Q112.875 -52.297 112.875 -53.498 Q112.875 -55.386 112.069 -57.16 Q111.263 -58.934 109.005 -61.675 Q106.748 -64.577 105.538 -67.548 Q104.329 -70.519 104.329 -73.647 Q104.329 -74.897 104.409 -76.107 Q104.49 -77.316 104.76 -79.574 H112.875 Q112.553 -78.122 112.472 -76.739 Q112.391 -75.355 112.391 -73.607 Q112.391 -71.723 113.198 -69.924 Q114.004 -68.125 115.778 -66.029 Q118.519 -62.642 119.809 -59.605 Q121.099 -56.567 121.099 -53.451 Q121.099 -52 121.018 -50.952 Q120.938 -49.904 120.667 -48.936 H112.553 Z"/></g><g id="Light-L" transform="matrix(1 0 0 1 1082.77 1556)"><path d="M16.125 26.045 V-96.505 H138.675 V26.045 H16.125 Z M23.443 -12.221 V18.727 H40.313 V2.106 H34.235 V-12.221 H23.443 Z M23.443 -19.539 H34.235 V-27.54 H39.692 V-42.734 Q39.692 -46.352 42.225 -48.884 Q44.757 -51.417 48.375 -51.417 H61.275 Q64.893 -51.417 67.425 -48.884 Q69.958 -46.352 69.958 -42.734 V-27.54 H75.415 V-19.539 H131.357 V-89.187 H23.443 V-19.539 Z M41.925 -5.585 H67.725 V-19.849 H41.925 V-5.585 Z M54.84 -57.867 Q51.228 -57.867 48.685 -60.364 Q46.142 -62.861 46.142 -66.535 Q46.142 -70.147 48.671 -72.689 Q51.199 -75.232 54.81 -75.232 Q58.422 -75.232 60.965 -72.704 Q63.508 -70.176 63.508 -66.564 Q63.508 -62.89 60.979 -60.379 Q58.451 -57.867 54.84 -57.867 Z M49.367 18.727 H60.283 V2.106 H49.367 V18.727 Z M69.337 18.727 H131.357 V-12.221 H75.415 V2.106 H69.337 V18.727 Z M80.848 -49.742 Q80.948 -50.313 81.028 -51.348 Q81.109 -52.383 81.109 -53.498 Q81.109 -55.562 80.209 -57.434 Q79.31 -59.306 76.991 -62.186 Q74.857 -64.951 73.71 -67.785 Q72.562 -70.618 72.562 -73.64 Q72.562 -74.789 72.612 -75.835 Q72.662 -76.882 72.87 -78.829 H79.372 Q79.174 -77.564 79.124 -76.328 Q79.074 -75.091 79.074 -73.607 Q79.074 -71.552 79.943 -69.653 Q80.811 -67.753 82.647 -65.511 Q85.257 -62.241 86.519 -59.342 Q87.782 -56.443 87.782 -53.451 Q87.782 -52.248 87.701 -51.386 Q87.621 -50.524 87.476 -49.742 H80.848 Z M96.973 -49.742 Q97.073 -50.313 97.153 -51.348 Q97.234 -52.383 97.234 -53.498 Q97.234 -55.562 96.334 -57.434 Q95.435 -59.306 93.116 -62.186 Q90.982 -64.951 89.835 -67.785 Q88.688 -70.618 88.688 -73.64 Q88.688 -74.789 88.737 -75.835 Q88.787 -76.882 88.995 -78.829 H95.497 Q95.299 -77.564 95.249 -76.328 Q95.199 -75.091 95.199 -73.607 Q95.199 -71.552 96.068 -69.653 Q96.936 -67.753 98.772 -65.511 Q101.382 -62.241 102.644 -59.342 Q103.907 -56.443 103.907 -53.451 Q103.907 -52.248 103.826 -51.386 Q103.746 -50.524 103.601 -49.742 H96.973 Z M113.421 -49.742 Q113.52 -50.313 113.601 -51.348 Q113.681 -52.383 113.681 -53.498 Q113.681 -55.562 112.782 -57.434 Q111.883 -59.306 109.563 -62.186 Q107.43 -64.951 106.282 -67.785 Q105.135 -70.618 105.135 -73.64 Q105.135 -74.789 105.185 -75.835 Q105.234 -76.882 105.443 -78.829 H111.945 Q111.746 -77.564 111.697 -76.328 Q111.647 -75.091 111.647 -73.607 Q111.647 -71.552 112.515 -69.653 Q113.384 -67.753 115.219 -65.511 Q117.829 -62.241 119.092 -59.342 Q120.354 -56.443 120.354 -53.451 Q120.354 -52.248 120.274 -51.386 Q120.193 -50.524 120.049 -49.742 H113.421 Z"/></g><g id="Thin-L" transform="matrix(1 0 0 1 787.282 1556)"><path d="M19.35 22.82 V-93.28 H135.45 V22.82 H19.35 Z M24.312 -13.399 V17.858 H41.925 V0.741 H36.219 V-13.399 H24.312 Z M24.312 -18.361 H36.219 V-26.299 H40.685 V-41.37 Q40.685 -44.574 42.928 -46.817 Q45.171 -49.06 48.375 -49.06 H61.275 Q64.479 -49.06 66.722 -46.817 Q68.965 -44.574 68.965 -41.37 V-26.299 H73.431 V-18.361 H130.488 V-88.318 H24.312 V-18.361 Z M41.925 -4.965 H67.725 V-20.593 H41.925 V-4.965 Z M54.854 -55.51 Q51.662 -55.51 49.398 -57.683 Q47.135 -59.855 47.135 -63.172 Q47.135 -66.364 49.369 -68.627 Q51.604 -70.891 54.796 -70.891 Q57.988 -70.891 60.252 -68.657 Q62.515 -66.422 62.515 -63.23 Q62.515 -59.914 60.281 -57.712 Q58.046 -55.51 54.854 -55.51 Z M50.36 17.858 H59.29 V0.741 H50.36 V17.858 Z M67.725 17.858 H130.488 V-13.399 H73.431 V0.741 H67.725 V17.858 Z M81.717 -50.549 Q81.754 -50.561 81.834 -51.516 Q81.915 -52.47 81.915 -53.498 Q81.915 -55.738 80.923 -57.708 Q79.93 -59.678 77.549 -62.696 Q75.539 -65.324 74.454 -68.021 Q73.369 -70.717 73.369 -73.633 Q73.369 -74.68 73.387 -75.564 Q73.406 -76.448 73.552 -78.085 H78.442 Q78.368 -77.006 78.349 -75.917 Q78.33 -74.827 78.33 -73.607 Q78.33 -71.382 79.261 -69.381 Q80.191 -67.381 82.089 -64.993 Q84.567 -61.839 85.803 -59.079 Q87.038 -56.319 87.038 -53.451 Q87.038 -52.496 86.957 -51.82 Q86.877 -51.144 86.858 -50.549 H81.717 Z M97.842 -50.549 Q97.879 -50.561 97.959 -51.516 Q98.04 -52.47 98.04 -53.498 Q98.04 -55.738 97.048 -57.708 Q96.055 -59.678 93.674 -62.696 Q91.664 -65.324 90.579 -68.021 Q89.494 -70.717 89.494 -73.633 Q89.494 -74.68 89.512 -75.564 Q89.531 -76.448 89.677 -78.085 H94.567 Q94.493 -77.006 94.474 -75.917 Q94.455 -74.827 94.455 -73.607 Q94.455 -71.382 95.386 -69.381 Q96.316 -67.381 98.214 -64.993 Q100.692 -61.839 101.928 -59.079 Q103.163 -56.319 103.163 -53.451 Q103.163 -52.496 103.082 -51.82 Q103.002 -51.144 102.983 -50.549 H97.842 Z M114.289 -50.549 Q114.326 -50.561 114.407 -51.516 Q114.487 -52.47 114.487 -53.498 Q114.487 -55.738 113.495 -57.708 Q112.503 -59.678 110.121 -62.696 Q108.112 -65.324 107.027 -68.021 Q105.941 -70.717 105.941 -73.633 Q105.941 -74.68 105.96 -75.564 Q105.978 -76.448 106.125 -78.085 H111.014 Q110.94 -77.006 110.921 -75.917 Q110.903 -74.827 110.903 -73.607 Q110.903 -71.382 111.833 -69.381 Q112.763 -67.381 114.661 -64.993 Q117.14 -61.839 118.375 -59.079 Q119.61 -56.319 119.61 -53.451 Q119.61 -52.496 119.53 -51.82 Q119.449 -51.144 119.431 -50.549 H114.289 Z"/></g><g id="Ultralight-L" transform="matrix(1 0 0 1 491.205 1556)"><path d="M21.285 20.885 V-91.345 H133.515 V20.885 H21.285 Z M24.832 -14.106 V17.338 H42.892 V-0.077 H37.41 V-14.106 H24.832 Z M24.832 -17.654 H37.41 V-25.555 H41.28 V-40.551 Q41.28 -43.507 43.349 -45.577 Q45.419 -47.646 48.375 -47.646 H61.275 Q64.231 -47.646 66.301 -45.577 Q68.37 -43.507 68.37 -40.551 V-25.555 H72.24 V-17.654 H129.968 V-87.797 H24.832 V-17.654 Z M41.925 -4.592 H67.725 V-21.04 H41.925 V-4.592 Z M54.863 -54.096 Q51.922 -54.096 49.826 -56.074 Q47.73 -58.052 47.73 -61.153 Q47.73 -64.094 49.788 -66.19 Q51.847 -68.286 54.787 -68.286 Q57.727 -68.286 59.824 -66.228 Q61.92 -64.17 61.92 -61.229 Q61.92 -58.127 59.862 -56.112 Q57.803 -54.096 54.863 -54.096 Z M50.955 17.338 H58.695 V-0.077 H50.955 V17.338 Z M66.758 17.338 H129.968 V-14.106 H72.24 V-0.077 H66.758 V17.338 Z M82.237 -51.032 Q82.237 -50.71 82.318 -51.616 Q82.399 -52.522 82.399 -53.498 Q82.399 -55.844 81.351 -57.873 Q80.303 -59.901 77.884 -63.002 Q75.949 -65.548 74.901 -68.162 Q73.853 -70.777 73.853 -73.629 Q73.853 -74.614 73.853 -75.401 Q73.853 -76.187 73.962 -77.639 H77.884 Q77.884 -76.671 77.884 -75.67 Q77.884 -74.669 77.884 -73.607 Q77.884 -71.279 78.851 -69.218 Q79.819 -67.157 81.754 -64.682 Q84.153 -61.598 85.372 -58.921 Q86.591 -56.244 86.591 -53.451 Q86.591 -52.645 86.511 -52.081 Q86.43 -51.516 86.487 -51.032 H82.237 Z M98.362 -51.032 Q98.362 -50.71 98.443 -51.616 Q98.524 -52.522 98.524 -53.498 Q98.524 -55.844 97.476 -57.873 Q96.428 -59.901 94.009 -63.002 Q92.074 -65.548 91.026 -68.162 Q89.978 -70.777 89.978 -73.629 Q89.978 -74.614 89.978 -75.401 Q89.978 -76.187 90.087 -77.639 H94.009 Q94.009 -76.671 94.009 -75.67 Q94.009 -74.669 94.009 -73.607 Q94.009 -71.279 94.976 -69.218 Q95.944 -67.157 97.879 -64.682 Q100.278 -61.598 101.497 -58.921 Q102.716 -56.244 102.716 -53.451 Q102.716 -52.645 102.636 -52.081 Q102.555 -51.516 102.612 -51.032 H98.362 Z M114.81 -51.032 Q114.81 -50.71 114.891 -51.616 Q114.971 -52.522 114.971 -53.498 Q114.971 -55.844 113.923 -57.873 Q112.875 -59.901 110.456 -63.002 Q108.521 -65.548 107.473 -68.162 Q106.425 -70.777 106.425 -73.629 Q106.425 -74.614 106.425 -75.401 Q106.425 -76.187 106.534 -77.639 H110.456 Q110.456 -76.671 110.456 -75.67 Q110.456 -74.669 110.456 -73.607 Q110.456 -71.279 111.424 -69.218 Q112.391 -67.157 114.326 -64.682 Q116.726 -61.598 117.945 -58.921 Q119.164 -56.244 119.164 -53.451 Q119.164 -52.645 119.083 -52.081 Q119.002 -51.516 119.06 -51.032 H114.81 Z"/></g><g id="Bold-M" transform="matrix(1 0 0 1 2281.8 1126)"><path d="M5.75 19.02 V-89.48 H114.25 V19.02 H5.75 Z M21.5 -11.98 V3.27 H30 V-5.23 H25 V-11.98 H21.5 Z M21.5 -25.23 H25 V-30.23 H30 V-42.73 Q30 -45.855 32.188 -48.042 Q34.375 -50.23 37.5 -50.23 H47.5 Q50.625 -50.23 52.812 -48.042 Q55 -45.855 55 -42.73 V-30.23 H60 V-25.23 H98.5 V-73.73 H21.5 V-25.23 Z M35 -15.23 H50 V-20.23 H35 V-15.23 Z M42.5 -55.23 Q39.375 -55.23 37.188 -57.417 Q35 -59.605 35 -62.73 Q35 -65.855 37.188 -68.042 Q39.375 -70.23 42.5 -70.23 Q45.625 -70.23 47.812 -68.042 Q50 -65.855 50 -62.73 Q50 -59.605 47.812 -57.417 Q45.625 -55.23 42.5 -55.23 Z M40 3.27 H45 V-5.23 H40 V3.27 Z M55 3.27 H98.5 V-11.98 H60 V-5.23 H55 V3.27 Z M61.25 -45.23 Q61.5 -46.855 61.562 -47.667 Q61.625 -48.48 61.625 -49.355 Q61.625 -50.73 61.062 -51.98 Q60.5 -53.23 58.75 -55.355 Q56.875 -57.73 55.938 -60.105 Q55 -62.48 55 -64.98 Q55 -65.98 55.125 -67.042 Q55.25 -68.105 55.5 -70.23 H63 Q62.75 -68.855 62.625 -67.667 Q62.5 -66.48 62.5 -64.98 Q62.5 -63.605 63.062 -62.292 Q63.625 -60.98 65 -59.48 Q67.25 -56.73 68.25 -54.292 Q69.25 -51.855 69.25 -49.355 Q69.25 -47.98 69.125 -47.105 Q69 -46.23 68.75 -45.23 H61.25 Z M73.75 -45.23 Q74 -46.855 74.062 -47.667 Q74.125 -48.48 74.125 -49.355 Q74.125 -50.73 73.562 -51.98 Q73 -53.23 71.25 -55.355 Q69.375 -57.73 68.438 -60.105 Q67.5 -62.48 67.5 -64.98 Q67.5 -65.98 67.625 -67.042 Q67.75 -68.105 68 -70.23 H75.5 Q75.25 -68.855 75.125 -67.667 Q75 -66.48 75 -64.98 Q75 -63.605 75.562 -62.292 Q76.125 -60.98 77.5 -59.48 Q79.75 -56.73 80.75 -54.292 Q81.75 -51.855 81.75 -49.355 Q81.75 -47.98 81.625 -47.105 Q81.5 -46.23 81.25 -45.23 H73.75 Z M86.5 -45.23 Q86.75 -46.855 86.812 -47.667 Q86.875 -48.48 86.875 -49.355 Q86.875 -50.73 86.312 -51.98 Q85.75 -53.23 84 -55.355 Q82.125 -57.73 81.188 -60.105 Q80.25 -62.48 80.25 -64.98 Q80.25 -65.98 80.375 -67.042 Q80.5 -68.105 80.75 -70.23 H88.25 Q88 -68.855 87.875 -67.667 Q87.75 -66.48 87.75 -64.98 Q87.75 -63.605 88.312 -62.292 Q88.875 -60.98 90.25 -59.48 Q92.5 -56.73 93.5 -54.292 Q94.5 -51.855 94.5 -49.355 Q94.5 -47.98 94.375 -47.105 Q94.25 -46.23 94 -45.23 H86.5 Z"/></g><g id="Semibold-M" transform="matrix(1 0 0 1 1985.97 1126)"><path d="M7.598 17.172 V-87.632 H112.402 V17.172 H7.598 Z M20.848 -13.393 V3.922 H30 V-5.23 H25 V-13.393 H20.848 Z M20.848 -25.23 H25 V-30.23 H30 V-42.73 Q30 -45.855 32.188 -48.042 Q34.375 -50.23 37.5 -50.23 H47.5 Q50.625 -50.23 52.812 -48.042 Q55 -45.855 55 -42.73 V-30.23 H60 V-25.23 H99.152 V-74.382 H20.848 V-25.23 Z M33.913 -14.143 H51.087 V-21.317 H33.913 V-14.143 Z M42.5 -55.23 Q39.375 -55.23 37.188 -57.417 Q35 -59.605 35 -62.73 Q35 -65.855 37.188 -68.042 Q39.375 -70.23 42.5 -70.23 Q45.625 -70.23 47.812 -68.042 Q50 -65.855 50 -62.73 Q50 -59.605 47.812 -57.417 Q45.625 -55.23 42.5 -55.23 Z M40 3.922 H45 V-5.23 H40 V3.922 Z M55 3.922 H99.152 V-13.393 H60 V-5.23 H55 V3.922 Z M61.25 -45.23 Q61.5 -46.855 61.562 -47.667 Q61.625 -48.48 61.625 -49.355 Q61.625 -50.73 61.062 -51.98 Q60.5 -53.23 58.75 -55.355 Q56.875 -57.73 55.938 -60.105 Q55 -62.48 55 -64.98 Q55 -65.98 55.125 -67.042 Q55.25 -68.105 55.5 -70.23 H63 Q62.75 -68.855 62.625 -67.667 Q62.5 -66.48 62.5 -64.98 Q62.5 -63.605 63.062 -62.292 Q63.625 -60.98 65 -59.48 Q67.25 -56.73 68.25 -54.292 Q69.25 -51.855 69.25 -49.355 Q69.25 -47.98 69.125 -47.105 Q69 -46.23 68.75 -45.23 H61.25 Z M73.75 -45.23 Q74 -46.855 74.062 -47.667 Q74.125 -48.48 74.125 -49.355 Q74.125 -50.73 73.562 -51.98 Q73 -53.23 71.25 -55.355 Q69.375 -57.73 68.438 -60.105 Q67.5 -62.48 67.5 -64.98 Q67.5 -65.98 67.625 -67.042 Q67.75 -68.105 68 -70.23 H75.5 Q75.25 -68.855 75.125 -67.667 Q75 -66.48 75 -64.98 Q75 -63.605 75.562 -62.292 Q76.125 -60.98 77.5 -59.48 Q79.75 -56.73 80.75 -54.292 Q81.75 -51.855 81.75 -49.355 Q81.75 -47.98 81.625 -47.105 Q81.5 -46.23 81.25 -45.23 H73.75 Z M86.5 -45.23 Q86.75 -46.855 86.812 -47.667 Q86.875 -48.48 86.875 -49.355 Q86.875 -50.73 86.312 -51.98 Q85.75 -53.23 84 -55.355 Q82.125 -57.73 81.188 -60.105 Q80.25 -62.48 80.25 -64.98 Q80.25 -65.98 80.375 -67.042 Q80.5 -68.105 80.75 -70.23 H88.25 Q88 -68.855 87.875 -67.667 Q87.75 -66.48 87.75 -64.98 Q87.75 -63.605 88.312 -62.292 Q88.875 -60.98 90.25 -59.48 Q92.5 -56.73 93.5 -54.292 Q94.5 -51.855 94.5 -49.355 Q94.5 -47.98 94.375 -47.105 Q94.25 -46.23 94 -45.23 H86.5 Z"/></g><g id="Medium-M" transform="matrix(1 0 0 1 1689.91 1126)"><path d="M8.984 15.786 V-86.246 H111.016 V15.786 H8.984 Z M20.359 -14.453 V4.411 H30 V-5.23 H25 V-14.453 H20.359 Z M20.359 -25.23 H25 V-30.23 H30 V-42.73 Q30 -45.855 32.188 -48.042 Q34.375 -50.23 37.5 -50.23 H47.5 Q50.625 -50.23 52.812 -48.042 Q55 -45.855 55 -42.73 V-30.23 H60 V-25.23 H99.641 V-74.871 H20.359 V-25.23 Z M33.098 -13.328 H51.902 V-22.132 H33.098 V-13.328 Z M42.5 -55.23 Q39.375 -55.23 37.188 -57.417 Q35 -59.605 35 -62.73 Q35 -65.855 37.188 -68.042 Q39.375 -70.23 42.5 -70.23 Q45.625 -70.23 47.812 -68.042 Q50 -65.855 50 -62.73 Q50 -59.605 47.812 -57.417 Q45.625 -55.23 42.5 -55.23 Z M40 4.411 H45 V-5.23 H40 V4.411 Z M55 4.411 H99.641 V-14.453 H60 V-5.23 H55 V4.411 Z M61.25 -45.23 Q61.5 -46.855 61.562 -47.667 Q61.625 -48.48 61.625 -49.355 Q61.625 -50.73 61.062 -51.98 Q60.5 -53.23 58.75 -55.355 Q56.875 -57.73 55.938 -60.105 Q55 -62.48 55 -64.98 Q55 -65.98 55.125 -67.042 Q55.25 -68.105 55.5 -70.23 H63 Q62.75 -68.855 62.625 -67.667 Q62.5 -66.48 62.5 -64.98 Q62.5 -63.605 63.062 -62.292 Q63.625 -60.98 65 -59.48 Q67.25 -56.73 68.25 -54.292 Q69.25 -51.855 69.25 -49.355 Q69.25 -47.98 69.125 -47.105 Q69 -46.23 68.75 -45.23 H61.25 Z M73.75 -45.23 Q74 -46.855 74.062 -47.667 Q74.125 -48.48 74.125 -49.355 Q74.125 -50.73 73.562 -51.98 Q73 -53.23 71.25 -55.355 Q69.375 -57.73 68.438 -60.105 Q67.5 -62.48 67.5 -64.98 Q67.5 -65.98 67.625 -67.042 Q67.75 -68.105 68 -70.23 H75.5 Q75.25 -68.855 75.125 -67.667 Q75 -66.48 75 -64.98 Q75 -63.605 75.562 -62.292 Q76.125 -60.98 77.5 -59.48 Q79.75 -56.73 80.75 -54.292 Q81.75 -51.855 81.75 -49.355 Q81.75 -47.98 81.625 -47.105 Q81.5 -46.23 81.25 -45.23 H73.75 Z M86.5 -45.23 Q86.75 -46.855 86.812 -47.667 Q86.875 -48.48 86.875 -49.355 Q86.875 -50.73 86.312 -51.98 Q85.75 -53.23 84 -55.355 Q82.125 -57.73 81.188 -60.105 Q80.25 -62.48 80.25 -64.98 Q80.25 -65.98 80.375 -67.042 Q80.5 -68.105 80.75 -70.23 H88.25 Q88 -68.855 87.875 -67.667 Q87.75 -66.48 87.75 -64.98 Q87.75 -63.605 88.312 -62.292 Q88.875 -60.98 90.25 -59.48 Q92.5 -56.73 93.5 -54.292 Q94.5 -51.855 94.5 -49.355 Q94.5 -47.98 94.375 -47.105 Q94.25 -46.23 94 -45.23 H86.5 Z"/></g><g id="Regular-M" transform="matrix(1 0 0 1 1394.06 1126)"><path d="M10 14.77 V-85.23 H110 V14.77 H10 Z M20 -15.23 V4.77 H30 V-5.23 H25 V-15.23 H20 Z M20 -25.23 H25 V-30.23 H30 V-42.73 Q30 -45.855 32.188 -48.042 Q34.375 -50.23 37.5 -50.23 H47.5 Q50.625 -50.23 52.812 -48.042 Q55 -45.855 55 -42.73 V-30.23 H60 V-25.23 H100 V-75.23 H20 V-25.23 Z M32.5 -12.73 H52.5 V-22.73 H32.5 V-12.73 Z M42.5 -55.23 Q39.375 -55.23 37.188 -57.417 Q35 -59.605 35 -62.73 Q35 -65.855 37.188 -68.042 Q39.375 -70.23 42.5 -70.23 Q45.625 -70.23 47.812 -68.042 Q50 -65.855 50 -62.73 Q50 -59.605 47.812 -57.417 Q45.625 -55.23 42.5 -55.23 Z M40 4.77 H45 V-5.23 H40 V4.77 Z M55 4.77 H100 V-15.23 H60 V-5.23 H55 V4.77 Z M61.25 -45.23 Q61.5 -46.855 61.562 -47.667 Q61.625 -48.48 61.625 -49.355 Q61.625 -50.73 61.062 -51.98 Q60.5 -53.23 58.75 -55.355 Q56.875 -57.73 55.938 -60.105 Q55 -62.48 55 -64.98 Q55 -65.98 55.125 -67.042 Q55.25 -68.105 55.5 -70.23 H63 Q62.75 -68.855 62.625 -67.667 Q62.5 -66.48 62.5 -64.98 Q62.5 -63.605 63.062 -62.292 Q63.625 -60.98 65 -59.48 Q67.25 -56.73 68.25 -54.292 Q69.25 -51.855 69.25 -49.355 Q69.25 -47.98 69.125 -47.105 Q69 -46.23 68.75 -45.23 H61.25 Z M73.75 -45.23 Q74 -46.855 74.062 -47.667 Q74.125 -48.48 74.125 -49.355 Q74.125 -50.73 73.562 -51.98 Q73 -53.23 71.25 -55.355 Q69.375 -57.73 68.438 -60.105 Q67.5 -62.48 67.5 -64.98 Q67.5 -65.98 67.625 -67.042 Q67.75 -68.105 68 -70.23 H75.5 Q75.25 -68.855 75.125 -67.667 Q75 -66.48 75 -64.98 Q75 -63.605 75.562 -62.292 Q76.125 -60.98 77.5 -59.48 Q79.75 -56.73 80.75 -54.292 Q81.75 -51.855 81.75 -49.355 Q81.75 -47.98 81.625 -47.105 Q81.5 -46.23 81.25 -45.23 H73.75 Z M86.5 -45.23 Q86.75 -46.855 86.812 -47.667 Q86.875 -48.48 86.875 -49.355 Q86.875 -50.73 86.312 -51.98 Q85.75 -53.23 84 -55.355 Q82.125 -57.73 81.188 -60.105 Q80.25 -62.48 80.25 -64.98 Q80.25 -65.98 80.375 -67.042 Q80.5 -68.105 80.75 -70.23 H88.25 Q88 -68.855 87.875 -67.667 Q87.75 -66.48 87.75 -64.98 Q87.75 -63.605 88.312 -62.292 Q88.875 -60.98 90.25 -59.48 Q92.5 -56.73 93.5 -54.292 Q94.5 -51.855 94.5 -49.355 Q94.5 -47.98 94.375 -47.105 Q94.25 -46.23 94 -45.23 H86.5 Z"/></g><g id="Light-M" transform="matrix(1 0 0 1 1098.18 1126)"><path d="M12.5 12.27 V-82.73 H107.5 V12.27 H12.5 Z M20 -16.48 V4.77 H31.25 V-6.288 H26.539 V-16.48 H20 Z M20 -23.98 H26.539 V-29.268 H30.769 V-41.48 Q30.769 -44.284 32.732 -46.247 Q34.696 -48.211 37.5 -48.211 H47.5 Q50.304 -48.211 52.268 -46.247 Q54.231 -44.284 54.231 -41.48 V-29.268 H58.461 V-23.98 H100 V-75.23 H20 V-23.98 Z M32.5 -12.249 H52.5 V-23.307 H32.5 V-12.249 Z M42.511 -53.211 Q39.712 -53.211 37.74 -55.17 Q35.769 -57.13 35.769 -59.93 Q35.769 -62.73 37.729 -64.701 Q39.689 -66.672 42.489 -66.672 Q45.288 -66.672 47.26 -64.712 Q49.231 -62.752 49.231 -59.953 Q49.231 -57.153 47.271 -55.182 Q45.311 -53.211 42.511 -53.211 Z M40.096 4.77 H44.904 V-6.288 H40.096 V4.77 Z M53.75 4.77 H100 V-16.48 H58.461 V-6.288 H53.75 V4.77 Z M62.115 -45.999 Q62.269 -46.999 62.332 -47.765 Q62.394 -48.53 62.394 -49.355 Q62.394 -50.866 61.76 -52.241 Q61.125 -53.615 59.327 -55.836 Q57.548 -58.092 56.659 -60.348 Q55.769 -62.605 55.769 -64.98 Q55.769 -65.884 55.846 -66.802 Q55.923 -67.72 56.173 -69.461 H62.087 Q61.885 -68.326 61.808 -67.301 Q61.731 -66.275 61.731 -64.98 Q61.731 -63.473 62.365 -62.034 Q63 -60.595 64.423 -58.999 Q66.571 -56.371 67.526 -54.041 Q68.481 -51.711 68.481 -49.355 Q68.481 -48.268 68.404 -47.538 Q68.327 -46.807 68.126 -45.999 H62.115 Z M74.615 -45.999 Q74.769 -46.999 74.832 -47.765 Q74.894 -48.53 74.894 -49.355 Q74.894 -50.866 74.26 -52.241 Q73.625 -53.615 71.827 -55.836 Q70.048 -58.092 69.159 -60.348 Q68.269 -62.605 68.269 -64.98 Q68.269 -65.884 68.346 -66.802 Q68.423 -67.72 68.673 -69.461 H74.587 Q74.385 -68.326 74.308 -67.301 Q74.231 -66.275 74.231 -64.98 Q74.231 -63.473 74.865 -62.034 Q75.5 -60.595 76.923 -58.999 Q79.071 -56.371 80.026 -54.041 Q80.981 -51.711 80.981 -49.355 Q80.981 -48.268 80.904 -47.538 Q80.827 -46.807 80.626 -45.999 H74.615 Z M87.365 -45.999 Q87.519 -47.047 87.582 -47.797 Q87.644 -48.547 87.644 -49.355 Q87.644 -50.866 87.01 -52.241 Q86.375 -53.615 84.577 -55.836 Q82.798 -58.092 81.909 -60.348 Q81.019 -62.605 81.019 -64.98 Q81.019 -65.884 81.096 -66.802 Q81.173 -67.72 81.423 -69.461 H87.337 Q87.135 -68.326 87.058 -67.301 Q86.981 -66.275 86.981 -64.98 Q86.981 -63.473 87.615 -62.034 Q88.25 -60.595 89.673 -58.999 Q91.821 -56.371 92.776 -54.041 Q93.731 -51.711 93.731 -49.355 Q93.731 -48.268 93.654 -47.538 Q93.577 -46.807 93.376 -45.999 H87.365 Z"/></g><g id="Thin-M" transform="matrix(1 0 0 1 802.565 1126)"><path d="M15 9.77 V-80.23 H105 V9.77 H15 Z M20 -17.73 V4.77 H32.5 V-7.345 H28.077 V-17.73 H20 Z M20 -22.73 H28.077 V-28.307 H31.538 V-40.23 Q31.538 -42.714 33.277 -44.453 Q35.016 -46.192 37.5 -46.192 H47.5 Q49.984 -46.192 51.723 -44.453 Q53.462 -42.714 53.462 -40.23 V-28.307 H56.923 V-22.73 H100 V-75.23 H20 V-22.73 Z M32.5 -11.768 H52.5 V-23.884 H32.5 V-11.768 Z M42.523 -51.192 Q40.048 -51.192 38.293 -52.924 Q36.538 -54.656 36.538 -57.13 Q36.538 -59.605 38.271 -61.36 Q40.003 -63.115 42.477 -63.115 Q44.952 -63.115 46.707 -61.382 Q48.462 -59.65 48.462 -57.176 Q48.462 -54.701 46.729 -52.946 Q44.997 -51.192 42.523 -51.192 Z M40.192 4.77 H44.808 V-7.345 H40.192 V4.77 Z M52.5 4.77 H100 V-17.73 H56.923 V-7.345 H52.5 V4.77 Z M62.981 -46.768 Q63.038 -47.143 63.101 -47.862 Q63.163 -48.581 63.163 -49.355 Q63.163 -51.003 62.457 -52.501 Q61.75 -53.999 59.904 -56.316 Q58.221 -58.454 57.38 -60.592 Q56.538 -62.73 56.538 -64.98 Q56.538 -65.788 56.567 -66.562 Q56.596 -67.336 56.846 -68.691 H61.173 Q61.019 -67.797 60.99 -66.934 Q60.962 -66.071 60.962 -64.98 Q60.962 -63.341 61.668 -61.776 Q62.375 -60.211 63.846 -58.518 Q65.892 -56.011 66.802 -53.789 Q67.712 -51.566 67.712 -49.355 Q67.712 -48.557 67.683 -47.97 Q67.654 -47.384 67.503 -46.768 H62.981 Z M75.481 -46.768 Q75.538 -47.143 75.601 -47.862 Q75.663 -48.581 75.663 -49.355 Q75.663 -51.003 74.957 -52.501 Q74.25 -53.999 72.404 -56.316 Q70.721 -58.454 69.88 -60.592 Q69.038 -62.73 69.038 -64.98 Q69.038 -65.788 69.067 -66.562 Q69.096 -67.336 69.346 -68.691 H73.673 Q73.519 -67.797 73.49 -66.934 Q73.462 -66.071 73.462 -64.98 Q73.462 -63.341 74.168 -61.776 Q74.875 -60.211 76.346 -58.518 Q78.392 -56.011 79.302 -53.789 Q80.212 -51.566 80.212 -49.355 Q80.212 -48.557 80.183 -47.97 Q80.154 -47.384 80.003 -46.768 H75.481 Z M88.231 -46.768 Q88.288 -47.24 88.351 -47.927 Q88.413 -48.615 88.413 -49.355 Q88.413 -51.003 87.707 -52.501 Q87 -53.999 85.154 -56.316 Q83.471 -58.454 82.63 -60.592 Q81.788 -62.73 81.788 -64.98 Q81.788 -65.788 81.817 -66.562 Q81.846 -67.336 82.096 -68.691 H86.423 Q86.269 -67.797 86.24 -66.934 Q86.212 -66.071 86.212 -64.98 Q86.212 -63.341 86.918 -61.776 Q87.625 -60.211 89.096 -58.518 Q91.142 -56.011 92.052 -53.789 Q92.962 -51.566 92.962 -49.355 Q92.962 -48.557 92.933 -47.97 Q92.904 -47.384 92.753 -46.768 H88.231 Z"/></g><g id="Ultralight-M" transform="matrix(1 0 0 1 506.415 1126)"><path d="M16.5 8.27 V-78.73 H103.5 V8.27 H16.5 Z M20 -18.48 V4.77 H33.25 V-7.98 H29 V-18.48 H20 Z M20 -21.98 H29 V-27.73 H32 V-39.48 Q32 -41.772 33.604 -43.376 Q35.208 -44.98 37.5 -44.98 H47.5 Q49.792 -44.98 51.396 -43.376 Q53 -41.772 53 -39.48 V-27.73 H56 V-21.98 H100 V-75.23 H20 V-21.98 Z M32.5 -11.48 H52.5 V-24.23 H32.5 V-11.48 Z M42.529 -49.98 Q40.25 -49.98 38.625 -51.576 Q37 -53.171 37 -55.451 Q37 -57.73 38.596 -59.355 Q40.191 -60.98 42.471 -60.98 Q44.75 -60.98 46.375 -59.384 Q48 -57.789 48 -55.509 Q48 -53.23 46.404 -51.605 Q44.809 -49.98 42.529 -49.98 Z M40.25 4.77 H44.75 V-7.98 H40.25 V4.77 Z M51.75 4.77 H100 V-18.48 H56 V-7.98 H51.75 V4.77 Z M63.5 -47.23 Q63.5 -47.23 63.562 -47.921 Q63.625 -48.611 63.625 -49.355 Q63.625 -51.085 62.875 -52.657 Q62.125 -54.23 60.25 -56.605 Q58.625 -58.671 57.812 -60.738 Q57 -62.805 57 -64.98 Q57 -65.73 57 -66.417 Q57 -67.105 57.25 -68.23 H60.625 Q60.5 -67.48 60.5 -66.714 Q60.5 -65.948 60.5 -64.98 Q60.5 -63.261 61.25 -61.621 Q62 -59.98 63.5 -58.23 Q65.485 -55.796 66.368 -53.638 Q67.25 -51.48 67.25 -49.355 Q67.25 -48.73 67.25 -48.23 Q67.25 -47.73 67.129 -47.23 H63.5 Z M76 -47.23 Q76 -47.23 76.062 -47.921 Q76.125 -48.611 76.125 -49.355 Q76.125 -51.085 75.375 -52.657 Q74.625 -54.23 72.75 -56.605 Q71.125 -58.671 70.312 -60.738 Q69.5 -62.805 69.5 -64.98 Q69.5 -65.73 69.5 -66.417 Q69.5 -67.105 69.75 -68.23 H73.125 Q73 -67.48 73 -66.714 Q73 -65.948 73 -64.98 Q73 -63.261 73.75 -61.621 Q74.5 -59.98 76 -58.23 Q77.985 -55.796 78.868 -53.638 Q79.75 -51.48 79.75 -49.355 Q79.75 -48.73 79.75 -48.23 Q79.75 -47.73 79.629 -47.23 H76 Z M88.75 -47.23 Q88.75 -47.355 88.812 -48.005 Q88.875 -48.655 88.875 -49.355 Q88.875 -51.085 88.125 -52.657 Q87.375 -54.23 85.5 -56.605 Q83.875 -58.671 83.062 -60.738 Q82.25 -62.805 82.25 -64.98 Q82.25 -65.73 82.25 -66.417 Q82.25 -67.105 82.5 -68.23 H85.875 Q85.75 -67.48 85.75 -66.714 Q85.75 -65.948 85.75 -64.98 Q85.75 -63.261 86.5 -61.621 Q87.25 -59.98 88.75 -58.23 Q90.735 -55.796 91.618 -53.638 Q92.5 -51.48 92.5 -49.355 Q92.5 -48.73 92.5 -48.23 Q92.5 -47.73 92.379 -47.23 H88.75 Z"/></g><g id="Bold-S" transform="matrix(1 0 0 1 2294.23 696)"><path d="M6.115 5.995 V-76.455 H88.565 V5.995 H6.115 Z M17.753 -16.097 V-5.642 H23.67 V-11.56 H20.12 V-16.097 H17.753 Z M17.753 -25.762 H20.12 V-30.496 H23.67 V-42.331 Q23.67 -44.303 25.051 -45.684 Q26.431 -47.065 28.404 -47.065 H37.872 Q39.845 -47.065 41.225 -45.684 Q42.606 -44.303 42.606 -42.331 V-30.496 H46.157 V-25.762 H76.928 V-64.817 H17.753 V-25.762 Z M26.826 -18.266 H39.45 V-23.789 H26.826 V-18.266 Z M33.138 -49.432 Q30.672 -49.432 28.946 -51.158 Q27.221 -52.884 27.221 -55.349 Q27.221 -57.815 28.946 -59.541 Q30.672 -61.267 33.138 -61.267 Q35.604 -61.267 37.33 -59.541 Q39.056 -57.815 39.056 -55.349 Q39.056 -52.884 37.33 -51.158 Q35.604 -49.432 33.138 -49.432 Z M30.771 -5.642 H35.505 V-11.56 H30.771 V-5.642 Z M42.606 -5.642 H76.928 V-16.097 H46.157 V-11.56 H42.606 V-5.642 Z M49.411 -41.147 Q49.806 -42.232 50.003 -43.317 Q50.2 -44.402 50.2 -45.147 Q50.2 -46.318 49.756 -47.382 Q49.312 -48.446 48.228 -49.728 Q46.551 -51.7 45.762 -53.736 Q44.973 -55.771 44.973 -57.914 Q44.973 -58.703 45.022 -59.541 Q45.072 -60.379 45.236 -61.267 H50.2 Q50.003 -60.182 49.855 -59.344 Q49.707 -58.505 49.707 -57.914 Q49.707 -56.533 50.249 -55.3 Q50.792 -54.067 51.975 -52.687 Q53.455 -50.911 54.194 -49.021 Q54.934 -47.13 54.934 -45.191 Q54.934 -44.402 54.786 -43.416 Q54.638 -42.43 54.342 -41.147 H49.411 Z M58.386 -41.147 Q58.781 -42.232 58.978 -43.317 Q59.175 -44.402 59.175 -45.147 Q59.175 -46.318 58.731 -47.382 Q58.287 -48.446 57.203 -49.728 Q55.526 -51.7 54.737 -53.736 Q53.948 -55.771 53.948 -57.914 Q53.948 -58.703 53.997 -59.541 Q54.047 -60.379 54.211 -61.267 H59.175 Q58.978 -60.182 58.83 -59.344 Q58.682 -58.505 58.682 -57.914 Q58.682 -56.533 59.224 -55.3 Q59.767 -54.067 60.95 -52.687 Q62.43 -50.911 63.169 -49.021 Q63.909 -47.13 63.909 -45.191 Q63.909 -44.402 63.761 -43.416 Q63.613 -42.43 63.317 -41.147 H58.386 Z M67.657 -41.147 Q68.051 -42.232 68.249 -43.317 Q68.446 -44.402 68.446 -45.147 Q68.446 -46.318 68.002 -47.382 Q67.558 -48.446 66.473 -49.728 Q64.797 -51.7 64.008 -53.736 Q63.219 -55.771 63.219 -57.914 Q63.219 -58.703 63.268 -59.541 Q63.317 -60.379 63.482 -61.267 H68.446 Q68.249 -60.182 68.101 -59.344 Q67.953 -58.505 67.953 -57.914 Q67.953 -56.533 68.495 -55.3 Q69.038 -54.067 70.221 -52.687 Q71.7 -50.911 72.44 -49.021 Q73.18 -47.13 73.18 -45.191 Q73.18 -44.402 73.032 -43.416 Q72.884 -42.43 72.588 -41.147 H67.657 Z"/></g><g id="Semibold-S" transform="matrix(1 0 0 1 1998.1 696)"><path d="M7.573 4.537 V-74.997 H87.107 V4.537 H7.573 Z M17.238 -17.212 V-5.128 H23.67 V-11.56 H20.12 V-17.212 H17.238 Z M17.238 -25.762 H20.12 V-30.496 H23.67 V-42.331 Q23.67 -44.303 25.051 -45.684 Q26.431 -47.065 28.404 -47.065 H37.872 Q39.845 -47.065 41.225 -45.684 Q42.606 -44.303 42.606 -42.331 V-30.496 H46.157 V-25.762 H77.442 V-65.332 H17.238 V-25.762 Z M25.968 -17.409 H40.308 V-24.647 H25.968 V-17.409 Z M33.138 -49.432 Q30.672 -49.432 28.946 -51.158 Q27.221 -52.884 27.221 -55.349 Q27.221 -57.815 28.946 -59.541 Q30.672 -61.267 33.138 -61.267 Q35.604 -61.267 37.33 -59.541 Q39.056 -57.815 39.056 -55.349 Q39.056 -52.884 37.33 -51.158 Q35.604 -49.432 33.138 -49.432 Z M30.771 -5.128 H35.505 V-11.56 H30.771 V-5.128 Z M42.606 -5.128 H77.442 V-17.212 H46.157 V-11.56 H42.606 V-5.128 Z M49.411 -41.147 Q49.806 -42.232 50.003 -43.317 Q50.2 -44.402 50.2 -45.147 Q50.2 -46.318 49.756 -47.382 Q49.312 -48.446 48.228 -49.728 Q46.551 -51.7 45.762 -53.736 Q44.973 -55.771 44.973 -57.914 Q44.973 -58.703 45.022 -59.541 Q45.072 -60.379 45.236 -61.267 H50.2 Q50.003 -60.182 49.855 -59.344 Q49.707 -58.505 49.707 -57.914 Q49.707 -56.533 50.249 -55.3 Q50.792 -54.067 51.975 -52.687 Q53.455 -50.911 54.194 -49.021 Q54.934 -47.13 54.934 -45.191 Q54.934 -44.402 54.786 -43.416 Q54.638 -42.43 54.342 -41.147 H49.411 Z M58.386 -41.147 Q58.781 -42.232 58.978 -43.317 Q59.175 -44.402 59.175 -45.147 Q59.175 -46.318 58.731 -47.382 Q58.287 -48.446 57.203 -49.728 Q55.526 -51.7 54.737 -53.736 Q53.948 -55.771 53.948 -57.914 Q53.948 -58.703 53.997 -59.541 Q54.047 -60.379 54.211 -61.267 H59.175 Q58.978 -60.182 58.83 -59.344 Q58.682 -58.505 58.682 -57.914 Q58.682 -56.533 59.224 -55.3 Q59.767 -54.067 60.95 -52.687 Q62.43 -50.911 63.169 -49.021 Q63.909 -47.13 63.909 -45.191 Q63.909 -44.402 63.761 -43.416 Q63.613 -42.43 63.317 -41.147 H58.386 Z M67.657 -41.147 Q68.051 -42.232 68.249 -43.317 Q68.446 -44.402 68.446 -45.147 Q68.446 -46.318 68.002 -47.382 Q67.558 -48.446 66.473 -49.728 Q64.797 -51.7 64.008 -53.736 Q63.219 -55.771 63.219 -57.914 Q63.219 -58.703 63.268 -59.541 Q63.317 -60.379 63.482 -61.267 H68.446 Q68.249 -60.182 68.101 -59.344 Q67.953 -58.505 67.953 -57.914 Q67.953 -56.533 68.495 -55.3 Q69.038 -54.067 70.221 -52.687 Q71.7 -50.911 72.44 -49.021 Q73.18 -47.13 73.18 -45.191 Q73.18 -44.402 73.032 -43.416 Q72.884 -42.43 72.588 -41.147 H67.657 Z"/></g><g id="Medium-S" transform="matrix(1 0 0 1 1701.85 696)"><path d="M8.666 3.444 V-73.904 H86.014 V3.444 H8.666 Z M16.852 -18.048 V-4.742 H23.67 V-11.56 H20.12 V-18.048 H16.852 Z M16.852 -25.762 H20.12 V-30.496 H23.67 V-42.331 Q23.67 -44.303 25.051 -45.684 Q26.431 -47.065 28.404 -47.065 H37.872 Q39.845 -47.065 41.225 -45.684 Q42.606 -44.303 42.606 -42.331 V-30.496 H46.157 V-25.762 H77.828 V-65.718 H16.852 V-25.762 Z M25.325 -16.766 H40.951 V-25.29 H25.325 V-16.766 Z M33.138 -49.432 Q30.672 -49.432 28.946 -51.158 Q27.221 -52.884 27.221 -55.349 Q27.221 -57.815 28.946 -59.541 Q30.672 -61.267 33.138 -61.267 Q35.604 -61.267 37.33 -59.541 Q39.056 -57.815 39.056 -55.349 Q39.056 -52.884 37.33 -51.158 Q35.604 -49.432 33.138 -49.432 Z M30.771 -4.742 H35.505 V-11.56 H30.771 V-4.742 Z M42.606 -4.742 H77.828 V-18.048 H46.157 V-11.56 H42.606 V-4.742 Z M49.411 -41.147 Q49.806 -42.232 50.003 -43.317 Q50.2 -44.402 50.2 -45.147 Q50.2 -46.318 49.756 -47.382 Q49.312 -48.446 48.228 -49.728 Q46.551 -51.7 45.762 -53.736 Q44.973 -55.771 44.973 -57.914 Q44.973 -58.703 45.022 -59.541 Q45.072 -60.379 45.236 -61.267 H50.2 Q50.003 -60.182 49.855 -59.344 Q49.707 -58.505 49.707 -57.914 Q49.707 -56.533 50.249 -55.3 Q50.792 -54.067 51.975 -52.687 Q53.455 -50.911 54.194 -49.021 Q54.934 -47.13 54.934 -45.191 Q54.934 -44.402 54.786 -43.416 Q54.638 -42.43 54.342 -41.147 H49.411 Z M58.386 -41.147 Q58.781 -42.232 58.978 -43.317 Q59.175 -44.402 59.175 -45.147 Q59.175 -46.318 58.731 -47.382 Q58.287 -48.446 57.203 -49.728 Q55.526 -51.7 54.737 -53.736 Q53.948 -55.771 53.948 -57.914 Q53.948 -58.703 53.997 -59.541 Q54.047 -60.379 54.211 -61.267 H59.175 Q58.978 -60.182 58.83 -59.344 Q58.682 -58.505 58.682 -57.914 Q58.682 -56.533 59.224 -55.3 Q59.767 -54.067 60.95 -52.687 Q62.43 -50.911 63.169 -49.021 Q63.909 -47.13 63.909 -45.191 Q63.909 -44.402 63.761 -43.416 Q63.613 -42.43 63.317 -41.147 H58.386 Z M67.657 -41.147 Q68.051 -42.232 68.249 -43.317 Q68.446 -44.402 68.446 -45.147 Q68.446 -46.318 68.002 -47.382 Q67.558 -48.446 66.473 -49.728 Q64.797 -51.7 64.008 -53.736 Q63.219 -55.771 63.219 -57.914 Q63.219 -58.703 63.268 -59.541 Q63.317 -60.379 63.482 -61.267 H68.446 Q68.249 -60.182 68.101 -59.344 Q67.953 -58.505 67.953 -57.914 Q67.953 -56.533 68.495 -55.3 Q69.038 -54.067 70.221 -52.687 Q71.7 -50.911 72.44 -49.021 Q73.18 -47.13 73.18 -45.191 Q73.18 -44.402 73.032 -43.416 Q72.884 -42.43 72.588 -41.147 H67.657 Z"/></g><g id="Regular-S" transform="matrix(1 0 0 1 1405.73 696)"><path d="M9.468 2.642 V-73.102 H85.212 V2.642 H9.468 Z M16.569 -18.661 V-4.459 H23.67 V-11.56 H20.12 V-18.661 H16.569 Z M16.569 -25.762 H20.12 V-30.496 H23.67 V-42.331 Q23.67 -44.303 25.051 -45.684 Q26.431 -47.065 28.404 -47.065 H37.872 Q39.845 -47.065 41.225 -45.684 Q42.606 -44.303 42.606 -42.331 V-30.496 H46.157 V-25.762 H78.111 V-66.001 H16.569 V-25.762 Z M24.854 -16.294 H41.422 V-25.762 H24.854 V-16.294 Z M33.138 -49.432 Q30.672 -49.432 28.946 -51.158 Q27.221 -52.884 27.221 -55.349 Q27.221 -57.815 28.946 -59.541 Q30.672 -61.267 33.138 -61.267 Q35.604 -61.267 37.33 -59.541 Q39.056 -57.815 39.056 -55.349 Q39.056 -52.884 37.33 -51.158 Q35.604 -49.432 33.138 -49.432 Z M30.771 -4.459 H35.505 V-11.56 H30.771 V-4.459 Z M42.606 -4.459 H78.111 V-18.661 H46.157 V-11.56 H42.606 V-4.459 Z M49.411 -41.147 Q49.806 -42.232 50.003 -43.317 Q50.2 -44.402 50.2 -45.147 Q50.2 -46.318 49.756 -47.382 Q49.312 -48.446 48.228 -49.728 Q46.551 -51.7 45.762 -53.736 Q44.973 -55.771 44.973 -57.914 Q44.973 -58.703 45.022 -59.541 Q45.072 -60.379 45.236 -61.267 H50.2 Q50.003 -60.182 49.855 -59.344 Q49.707 -58.505 49.707 -57.914 Q49.707 -56.533 50.249 -55.3 Q50.792 -54.067 51.975 -52.687 Q53.455 -50.911 54.194 -49.021 Q54.934 -47.13 54.934 -45.191 Q54.934 -44.402 54.786 -43.416 Q54.638 -42.43 54.342 -41.147 H49.411 Z M58.386 -41.147 Q58.781 -42.232 58.978 -43.317 Q59.175 -44.402 59.175 -45.147 Q59.175 -46.318 58.731 -47.382 Q58.287 -48.446 57.203 -49.728 Q55.526 -51.7 54.737 -53.736 Q53.948 -55.771 53.948 -57.914 Q53.948 -58.703 53.997 -59.541 Q54.047 -60.379 54.211 -61.267 H59.175 Q58.978 -60.182 58.83 -59.344 Q58.682 -58.505 58.682 -57.914 Q58.682 -56.533 59.224 -55.3 Q59.767 -54.067 60.95 -52.687 Q62.43 -50.911 63.169 -49.021 Q63.909 -47.13 63.909 -45.191 Q63.909 -44.402 63.761 -43.416 Q63.613 -42.43 63.317 -41.147 H58.386 Z M67.657 -41.147 Q68.051 -42.232 68.249 -43.317 Q68.446 -44.402 68.446 -45.147 Q68.446 -46.318 68.002 -47.382 Q67.558 -48.446 66.473 -49.728 Q64.797 -51.7 64.008 -53.736 Q63.219 -55.771 63.219 -57.914 Q63.219 -58.703 63.268 -59.541 Q63.317 -60.379 63.482 -61.267 H68.446 Q68.249 -60.182 68.101 -59.344 Q67.953 -58.505 67.953 -57.914 Q67.953 -56.533 68.495 -55.3 Q69.038 -54.067 70.221 -52.687 Q71.7 -50.911 72.44 -49.021 Q73.18 -47.13 73.18 -45.191 Q73.18 -44.402 73.032 -43.416 Q72.884 -42.43 72.588 -41.147 H67.657 Z"/></g><g id="Light-S" transform="matrix(1 0 0 1 1109.75 696)"><path d="M11.441 0.669 V-71.129 H83.239 V0.669 H11.441 Z M16.569 -19.647 V-4.459 H24.656 V-12.395 H21.333 V-19.647 H16.569 Z M16.569 -24.776 H21.333 V-29.737 H24.277 V-41.345 Q24.277 -43.064 25.481 -44.268 Q26.684 -45.472 28.404 -45.472 H37.872 Q39.592 -45.472 40.795 -44.268 Q41.999 -43.064 41.999 -41.345 V-29.737 H44.943 V-24.776 H78.111 V-66.001 H16.569 V-24.776 Z M24.854 -15.915 H41.422 V-26.217 H24.854 V-15.915 Z M33.147 -47.839 Q30.938 -47.839 29.383 -49.385 Q27.827 -50.931 27.827 -53.14 Q27.827 -55.349 29.374 -56.905 Q30.92 -58.46 33.129 -58.46 Q35.338 -58.46 36.893 -56.913 Q38.449 -55.367 38.449 -53.158 Q38.449 -50.949 36.902 -49.394 Q35.356 -47.839 33.147 -47.839 Z M30.847 -4.459 H35.429 V-12.395 H30.847 V-4.459 Z M41.62 -4.459 H78.111 V-19.647 H44.943 V-12.395 H41.62 V-4.459 Z M50.094 -41.754 Q50.413 -42.346 50.61 -43.394 Q50.807 -44.442 50.807 -45.147 Q50.807 -46.425 50.306 -47.587 Q49.806 -48.749 48.683 -50.107 Q47.082 -51.986 46.331 -53.928 Q45.58 -55.87 45.58 -57.914 Q45.58 -58.627 45.591 -59.351 Q45.603 -60.076 45.767 -60.66 H49.479 Q49.32 -59.765 49.21 -59.054 Q49.1 -58.344 49.1 -57.914 Q49.1 -56.429 49.699 -55.096 Q50.299 -53.764 51.52 -52.307 Q52.919 -50.628 53.623 -48.822 Q54.327 -47.016 54.327 -45.191 Q54.327 -44.63 54.217 -43.757 Q54.107 -42.885 53.85 -41.754 H50.094 Z M59.069 -41.754 Q59.387 -42.346 59.585 -43.394 Q59.782 -44.442 59.782 -45.147 Q59.782 -46.425 59.281 -47.587 Q58.781 -48.749 57.658 -50.107 Q56.057 -51.986 55.306 -53.928 Q54.555 -55.87 54.555 -57.914 Q54.555 -58.627 54.566 -59.351 Q54.578 -60.076 54.742 -60.66 H58.454 Q58.295 -59.765 58.185 -59.054 Q58.075 -58.344 58.075 -57.914 Q58.075 -56.429 58.674 -55.096 Q59.274 -53.764 60.495 -52.307 Q61.894 -50.628 62.598 -48.822 Q63.302 -47.016 63.302 -45.191 Q63.302 -44.63 63.192 -43.757 Q63.082 -42.885 62.825 -41.754 H59.069 Z M68.34 -41.754 Q68.658 -42.384 68.855 -43.42 Q69.053 -44.455 69.053 -45.147 Q69.053 -46.425 68.552 -47.587 Q68.051 -48.749 66.929 -50.107 Q65.328 -51.986 64.577 -53.928 Q63.826 -55.87 63.826 -57.914 Q63.826 -58.627 63.837 -59.351 Q63.848 -60.076 64.013 -60.66 H67.725 Q67.566 -59.765 67.456 -59.054 Q67.346 -58.344 67.346 -57.914 Q67.346 -56.429 67.945 -55.096 Q68.544 -53.764 69.766 -52.307 Q71.165 -50.628 71.869 -48.822 Q72.573 -47.016 72.573 -45.191 Q72.573 -44.63 72.463 -43.757 Q72.353 -42.885 72.096 -41.754 H68.34 Z"/></g><g id="Thin-S" transform="matrix(1 0 0 1 814.015 696)"><path d="M13.413 -1.303 V-69.157 H81.267 V-1.303 H13.413 Z M16.569 -20.633 V-4.459 H25.643 V-13.229 H22.547 V-20.633 H16.569 Z M16.569 -23.789 H22.547 V-28.979 H24.884 V-40.358 Q24.884 -41.825 25.911 -42.852 Q26.937 -43.879 28.404 -43.879 H37.872 Q39.339 -43.879 40.365 -42.852 Q41.392 -41.825 41.392 -40.358 V-28.979 H43.729 V-23.789 H78.111 V-66.001 H16.569 V-23.789 Z M24.854 -15.535 H41.422 V-26.672 H24.854 V-15.535 Z M33.156 -46.246 Q31.203 -46.246 29.819 -47.612 Q28.434 -48.979 28.434 -50.931 Q28.434 -52.884 29.801 -54.268 Q31.168 -55.653 33.12 -55.653 Q35.073 -55.653 36.457 -54.286 Q37.842 -52.92 37.842 -50.967 Q37.842 -49.015 36.475 -47.63 Q35.108 -46.246 33.156 -46.246 Z M30.923 -4.459 H35.353 V-13.229 H30.923 V-4.459 Z M40.634 -4.459 H78.111 V-20.633 H43.729 V-13.229 H40.634 V-4.459 Z M50.777 -42.361 Q51.02 -42.46 51.217 -43.471 Q51.414 -44.482 51.414 -45.147 Q51.414 -46.533 50.856 -47.793 Q50.299 -49.053 49.138 -50.486 Q47.613 -52.272 46.9 -54.12 Q46.187 -55.968 46.187 -57.914 Q46.187 -58.551 46.16 -59.162 Q46.134 -59.772 46.298 -60.053 H48.759 Q48.637 -59.348 48.565 -58.765 Q48.493 -58.183 48.493 -57.914 Q48.493 -56.324 49.149 -54.892 Q49.806 -53.46 51.065 -51.928 Q52.384 -50.344 53.052 -48.623 Q53.72 -46.903 53.72 -45.191 Q53.72 -44.857 53.648 -44.099 Q53.576 -43.34 53.359 -42.361 H50.777 Z M59.752 -42.361 Q59.994 -42.46 60.192 -43.471 Q60.389 -44.482 60.389 -45.147 Q60.389 -46.533 59.831 -47.793 Q59.274 -49.053 58.113 -50.486 Q56.588 -52.272 55.875 -54.12 Q55.162 -55.968 55.162 -57.914 Q55.162 -58.551 55.135 -59.162 Q55.109 -59.772 55.273 -60.053 H57.734 Q57.612 -59.348 57.54 -58.765 Q57.468 -58.183 57.468 -57.914 Q57.468 -56.324 58.124 -54.892 Q58.781 -53.46 60.04 -51.928 Q61.359 -50.344 62.027 -48.623 Q62.695 -46.903 62.695 -45.191 Q62.695 -44.857 62.623 -44.099 Q62.551 -43.34 62.333 -42.361 H59.752 Z M69.022 -42.361 Q69.265 -42.536 69.462 -43.522 Q69.66 -44.508 69.66 -45.147 Q69.66 -46.533 69.102 -47.793 Q68.544 -49.053 67.384 -50.486 Q65.859 -52.272 65.146 -54.12 Q64.433 -55.968 64.433 -57.914 Q64.433 -58.551 64.406 -59.162 Q64.379 -59.772 64.544 -60.053 H67.004 Q66.883 -59.348 66.811 -58.765 Q66.739 -58.183 66.739 -57.914 Q66.739 -56.324 67.395 -54.892 Q68.051 -53.46 69.311 -51.928 Q70.629 -50.344 71.298 -48.623 Q71.966 -46.903 71.966 -45.191 Q71.966 -44.857 71.894 -44.099 Q71.822 -43.34 71.604 -42.361 H69.022 Z"/></g><g id="Ultralight-S" transform="matrix(1 0 0 1 517.792 696)"><path d="M14.597 -2.486 V-67.973 H80.084 V-2.486 H14.597 Z M16.569 -21.225 V-4.459 H26.234 V-13.73 H23.276 V-21.225 H16.569 Z M16.569 -23.198 H23.276 V-28.523 H25.248 V-39.767 Q25.248 -41.082 26.168 -42.002 Q27.089 -42.923 28.404 -42.923 H37.872 Q39.187 -42.923 40.108 -42.002 Q41.028 -41.082 41.028 -39.767 V-28.523 H43.001 V-23.198 H78.111 V-66.001 H16.569 V-23.198 Z M24.854 -15.308 H41.422 V-26.945 H24.854 V-15.308 Z M33.161 -45.29 Q31.363 -45.29 30.081 -46.549 Q28.799 -47.808 28.799 -49.606 Q28.799 -51.404 30.057 -52.687 Q31.316 -53.969 33.115 -53.969 Q34.913 -53.969 36.195 -52.71 Q37.477 -51.451 37.477 -49.652 Q37.477 -47.854 36.219 -46.572 Q34.96 -45.29 33.161 -45.29 Z M30.968 -4.459 H35.308 V-13.73 H30.968 V-4.459 Z M40.042 -4.459 H78.111 V-21.225 H43.001 V-13.73 H40.042 V-4.459 Z M51.186 -42.725 Q51.384 -42.528 51.581 -43.517 Q51.778 -44.506 51.778 -45.147 Q51.778 -46.598 51.186 -47.916 Q50.595 -49.235 49.411 -50.714 Q47.932 -52.443 47.241 -54.235 Q46.551 -56.027 46.551 -57.914 Q46.551 -58.505 46.502 -59.048 Q46.452 -59.59 46.617 -59.689 H48.326 Q48.228 -59.097 48.178 -58.591 Q48.129 -58.086 48.129 -57.914 Q48.129 -56.262 48.819 -54.77 Q49.51 -53.278 50.792 -51.7 Q52.062 -50.174 52.709 -48.504 Q53.356 -46.834 53.356 -45.191 Q53.356 -44.994 53.307 -44.303 Q53.258 -43.613 53.063 -42.725 H51.186 Z M60.161 -42.725 Q60.358 -42.528 60.556 -43.517 Q60.753 -44.506 60.753 -45.147 Q60.753 -46.598 60.161 -47.916 Q59.57 -49.235 58.386 -50.714 Q56.907 -52.443 56.216 -54.235 Q55.526 -56.027 55.526 -57.914 Q55.526 -58.505 55.477 -59.048 Q55.427 -59.59 55.592 -59.689 H57.301 Q57.203 -59.097 57.153 -58.591 Q57.104 -58.086 57.104 -57.914 Q57.104 -56.262 57.794 -54.77 Q58.485 -53.278 59.767 -51.7 Q61.037 -50.174 61.684 -48.504 Q62.331 -46.834 62.331 -45.191 Q62.331 -44.994 62.282 -44.303 Q62.232 -43.613 62.038 -42.725 H60.161 Z M69.432 -42.725 Q69.629 -42.627 69.827 -43.584 Q70.024 -44.54 70.024 -45.147 Q70.024 -46.598 69.432 -47.916 Q68.84 -49.235 67.657 -50.714 Q66.177 -52.443 65.487 -54.235 Q64.797 -56.027 64.797 -57.914 Q64.797 -58.505 64.747 -59.048 Q64.698 -59.59 64.862 -59.689 H66.572 Q66.473 -59.097 66.424 -58.591 Q66.375 -58.086 66.375 -57.914 Q66.375 -56.262 67.065 -54.77 Q67.755 -53.278 69.038 -51.7 Q70.308 -50.174 70.955 -48.504 Q71.602 -46.834 71.602 -45.191 Q71.602 -44.994 71.552 -44.303 Q71.503 -43.613 71.309 -42.725 H69.432 Z"/></g></g></svg>