<svg xmlns="http://www.w3.org/2000/svg" version="1.1" width="3300" height="2000"><g id="Notes"><style>
    text {
      font-family: monospace;
      text-anchor: middle;
    }
    text.emphasis {
      font-weight:bold;
    }
    text.lanchor {
      text-anchor: start;
    }
  </style><rect height="2200" id="artboard" fill="white" width="3300" x="0" y="0"/><line id="" style="fill:none;stroke:black;stroke-width:0.5;" x1="263" x2="3036" y1="292" y2="292"/><text class="lanchor emphasis" transform="matrix(1 0 0 1 263 322)">Weight/Scale Variations</text><text transform="matrix(1 0 0 1 559.711 322)">Ultralight</text><text transform="matrix(1 0 0 1 856.422 322)">Thin</text><text transform="matrix(1 0 0 1 1153.13 322)">Light</text><text transform="matrix(1 0 0 1 1449.84 322)">Regular</text><text transform="matrix(1 0 0 1 1746.56 322)">Medium</text><text transform="matrix(1 0 0 1 2043.27 322)">Semibold</text><text transform="matrix(1 0 0 1 2339.98 322)">Bold</text><text transform="matrix(1 0 0 1 2636.69 322)">Heavy</text><text transform="matrix(1 0 0 1 2933.4 322)">Black</text><text id="template-version" style="text-anchor: end;" transform="matrix(1 0 0 1 3036 1933)">Template v.1.0</text><text class="lanchor" transform="matrix(1 0 0 1 263 726)">Small</text><text class="lanchor" transform="matrix(1 0 0 1 263 1156)">Medium</text><text class="lanchor" transform="matrix(1 0 0 1 263 1586)">Large</text></g><g id="Guides"><g id="H-reference" style="fill:#27AAE1;stroke:none;" transform="matrix(1 0 0 1 339 696)"><path d="M 54.9316 0 L 57.666 0 L 30.5664 -70.459 L 28.0762 -70.459 L 0.976562 0 L 3.66211 0 L 12.9395 -24.4629 L 45.7031 -24.4629 Z M 29.1992 -67.0898 L 29.4434 -67.0898 L 44.8242 -26.709 L 13.8184 -26.709 Z"/></g><line id="Baseline-S" style="fill:none;stroke:#27AAE1;opacity:1;stroke-width:0.577;" x1="263" x2="3036" y1="696" y2="696"/><line id="Capline-S" style="fill:none;stroke:#27AAE1;opacity:1;stroke-width:0.577;" x1="263" x2="3036" y1="625.541" y2="625.541"/><g id="H-reference" style="fill:#27AAE1;stroke:none;" transform="matrix(1 0 0 1 339 1126)"><path d="M 54.9316 0 L 57.666 0 L 30.5664 -70.459 L 28.0762 -70.459 L 0.976562 0 L 3.66211 0 L 12.9395 -24.4629 L 45.7031 -24.4629 Z M 29.1992 -67.0898 L 29.4434 -67.0898 L 44.8242 -26.709 L 13.8184 -26.709 Z"/></g><line id="Baseline-M" style="fill:none;stroke:#27AAE1;opacity:1;stroke-width:0.577;" x1="263" x2="3036" y1="1126" y2="1126"/><line id="Capline-M" style="fill:none;stroke:#27AAE1;opacity:1;stroke-width:0.577;" x1="263" x2="3036" y1="1055.54" y2="1055.54"/><g id="H-reference" style="fill:#27AAE1;stroke:none;" transform="matrix(1 0 0 1 339 1556)"><path d="M 54.9316 0 L 57.666 0 L 30.5664 -70.459 L 28.0762 -70.459 L 0.976562 0 L 3.66211 0 L 12.9395 -24.4629 L 45.7031 -24.4629 Z M 29.1992 -67.0898 L 29.4434 -67.0898 L 44.8242 -26.709 L 13.8184 -26.709 Z"/></g><line id="Baseline-L" style="fill:none;stroke:#27AAE1;opacity:1;stroke-width:0.577;" x1="263" x2="3036" y1="1556" y2="1556"/><line id="Capline-L" style="fill:none;stroke:#27AAE1;opacity:1;stroke-width:0.577;" x1="263" x2="3036" y1="1485.54" y2="1485.54"/><rect height="119.336" id="left-margin" style="fill:darkred;stroke:none;opacity:0.4;" width="12.4512" x="1394.06" y="1030.79"/><rect height="119.336" id="right-margin" style="fill:darkgreen;stroke:none;opacity:0.4;" width="12.4512" x="1502.5112" y="1030.79"/><rect x="1406.5112" y="1045" width="96" height="96" fill="none" stroke="blue" stroke-dasharray="5"/><rect x="1394.06" y="1030.79" width="120.9024" height="119.336" fill="none" stroke="blue"/></g><g id="Symbols"><g id="Bold-L" transform="matrix(1 0 0 1 2266 1556)"><path d="M51.278 6.05 Q45.025 6.05 40.573 1.597 Q36.12 -2.855 36.12 -9.107 V-88.765 Q36.12 -95.017 40.573 -99.47 Q45.025 -103.922 51.278 -103.922 H130.935 Q137.187 -103.922 141.64 -99.47 Q146.093 -95.017 146.093 -88.765 V-9.107 Q146.093 -2.855 141.64 1.597 Q137.187 6.05 130.935 6.05 H51.278 Z M51.278 -9.107 H130.935 Q130.935 -9.107 130.935 -9.107 Q130.935 -9.107 130.935 -9.107 V-61.514 H92.235 Q89.05 -61.514 86.853 -63.711 Q84.656 -65.908 84.656 -69.092 V-88.765 H51.278 Q51.278 -88.765 51.278 -88.765 Q51.278 -88.765 51.278 -88.765 V-9.107 Q51.278 -9.107 51.278 -9.107 Q51.278 -9.107 51.278 -9.107 Z M16.357 -75.704 Q13.223 -75.704 11.046 -77.971 Q8.869 -80.239 8.869 -83.373 Q8.869 -86.507 11.104 -88.765 Q13.338 -91.022 16.425 -91.022 Q19.511 -91.022 21.769 -88.727 Q24.026 -86.431 24.026 -83.254 Q24.026 -80.146 21.759 -77.925 Q19.491 -75.704 16.357 -75.704 Z M43.671 33.301 Q40.562 33.301 38.341 31.066 Q36.12 28.832 36.12 25.745 Q36.12 22.659 38.387 20.401 Q40.655 18.144 43.789 18.144 Q46.924 18.144 49.181 20.411 Q51.439 22.679 51.439 25.813 Q51.439 28.948 49.143 31.124 Q46.847 33.301 43.671 33.301 Z M70.922 33.301 Q67.725 33.301 65.548 31.066 Q63.371 28.832 63.371 25.745 Q63.371 22.659 65.576 20.401 Q67.782 18.144 70.978 18.144 Q74.175 18.144 76.352 20.411 Q78.529 22.679 78.529 25.813 Q78.529 28.948 76.324 31.124 Q74.118 33.301 70.922 33.301 Z M98.272 33.301 Q95.138 33.301 92.88 31.066 Q90.623 28.832 90.623 25.745 Q90.623 22.659 92.918 20.401 Q95.214 18.144 98.391 18.144 Q101.499 18.144 103.72 20.411 Q105.941 22.679 105.941 25.813 Q105.941 28.948 103.674 31.124 Q101.406 33.301 98.272 33.301 Z M16.357 -48.452 Q13.223 -48.452 11.046 -50.748 Q8.869 -53.044 8.869 -56.221 Q8.869 -59.329 11.104 -61.55 Q13.338 -63.771 16.425 -63.771 Q19.511 -63.771 21.769 -61.504 Q24.026 -59.236 24.026 -56.102 Q24.026 -52.967 21.759 -50.71 Q19.491 -48.452 16.357 -48.452 Z M16.357 -21.201 Q13.223 -21.201 11.046 -23.406 Q8.869 -25.612 8.869 -28.808 Q8.869 -32.005 11.104 -34.182 Q13.338 -36.359 16.425 -36.359 Q19.511 -36.359 21.769 -34.154 Q24.026 -31.948 24.026 -28.752 Q24.026 -25.555 21.759 -23.378 Q19.491 -21.201 16.357 -21.201 Z M16.357 6.05 Q13.223 6.05 11.046 3.783 Q8.869 1.515 8.869 -1.619 Q8.869 -4.754 11.104 -7.011 Q13.338 -9.269 16.425 -9.269 Q19.511 -9.269 21.769 -6.973 Q24.026 -4.677 24.026 -1.501 Q24.026 1.608 21.759 3.829 Q19.491 6.05 16.357 6.05 Z M16.357 33.301 Q13.223 33.301 11.046 31.066 Q8.869 28.832 8.869 25.745 Q8.869 22.659 11.104 20.401 Q13.338 18.144 16.425 18.144 Q19.511 18.144 21.769 20.411 Q24.026 22.679 24.026 25.813 Q24.026 28.948 21.759 31.124 Q19.491 33.301 16.357 33.301 Z M125.424 33.301 Q122.316 33.301 120.095 31.066 Q117.874 28.832 117.874 25.745 Q117.874 22.659 120.141 20.401 Q122.409 18.144 125.543 18.144 Q128.678 18.144 130.935 20.411 Q133.192 22.679 133.192 25.813 Q133.192 28.948 130.897 31.124 Q128.601 33.301 125.424 33.301 Z"/></g><g id="Semibold-L" transform="matrix(1 0 0 1 1970.27 1556)"><path d="M50.366 4.578 Q45.097 4.578 41.344 0.826 Q37.592 -2.927 37.592 -8.196 V-89.326 Q37.592 -94.595 41.344 -98.347 Q45.097 -102.1 50.366 -102.1 H131.496 Q136.765 -102.1 140.517 -98.347 Q144.27 -94.595 144.27 -89.326 V-8.196 Q144.27 -2.927 140.517 0.826 Q136.765 4.578 131.496 4.578 H50.366 Z M50.366 -8.196 H131.496 Q131.496 -8.196 131.496 -8.196 Q131.496 -8.196 131.496 -8.196 V-61.303 H90.693 Q87.999 -61.303 86.152 -63.15 Q84.306 -64.996 84.306 -67.69 V-89.326 H50.366 Q50.366 -89.326 50.366 -89.326 Q50.366 -89.326 50.366 -89.326 V-8.196 Q50.366 -8.196 50.366 -8.196 Q50.366 -8.196 50.366 -8.196 Z M16.945 -76.335 Q14.274 -76.335 12.448 -78.225 Q10.621 -80.114 10.621 -82.785 Q10.621 -85.456 12.493 -87.328 Q14.364 -89.2 17.008 -89.2 Q19.652 -89.2 21.523 -87.294 Q23.395 -85.388 23.395 -82.693 Q23.395 -80.038 21.505 -78.186 Q19.616 -76.335 16.945 -76.335 Z M43.951 31.549 Q41.295 31.549 39.444 29.677 Q37.592 27.806 37.592 25.162 Q37.592 22.518 39.482 20.647 Q41.372 18.775 44.043 18.775 Q46.713 18.775 48.585 20.665 Q50.457 22.554 50.457 25.225 Q50.457 27.896 48.551 29.722 Q46.645 31.549 43.951 31.549 Z M70.922 31.549 Q68.216 31.549 66.389 29.677 Q64.563 27.806 64.563 25.162 Q64.563 22.518 66.418 20.647 Q68.272 18.775 70.978 18.775 Q73.684 18.775 75.511 20.665 Q77.337 22.554 77.337 25.225 Q77.337 27.896 75.482 29.722 Q73.628 31.549 70.922 31.549 Z M97.949 31.549 Q95.278 31.549 93.406 29.677 Q91.534 27.806 91.534 25.162 Q91.534 22.518 93.44 20.647 Q95.346 18.775 98.04 18.775 Q100.696 18.775 102.548 20.665 Q104.399 22.554 104.399 25.225 Q104.399 27.896 102.509 29.722 Q100.619 31.549 97.949 31.549 Z M16.945 -49.364 Q14.274 -49.364 12.448 -51.27 Q10.621 -53.176 10.621 -55.87 Q10.621 -58.526 12.493 -60.378 Q14.364 -62.229 17.008 -62.229 Q19.652 -62.229 21.523 -60.339 Q23.395 -58.449 23.395 -55.779 Q23.395 -53.108 21.505 -51.236 Q19.616 -49.364 16.945 -49.364 Z M16.945 -22.393 Q14.274 -22.393 12.448 -24.248 Q10.621 -26.102 10.621 -28.808 Q10.621 -31.514 12.493 -33.341 Q14.364 -35.167 17.008 -35.167 Q19.652 -35.167 21.523 -33.312 Q23.395 -31.458 23.395 -28.752 Q23.395 -26.046 21.505 -24.219 Q19.616 -22.393 16.945 -22.393 Z M16.945 4.578 Q14.274 4.578 12.448 2.688 Q10.621 0.798 10.621 -1.873 Q10.621 -4.543 12.493 -6.415 Q14.364 -8.287 17.008 -8.287 Q19.652 -8.287 21.523 -6.381 Q23.395 -4.475 23.395 -1.781 Q23.395 0.875 21.505 2.726 Q19.616 4.578 16.945 4.578 Z M16.945 31.549 Q14.274 31.549 12.448 29.677 Q10.621 27.806 10.621 25.162 Q10.621 22.518 12.493 20.647 Q14.364 18.775 17.008 18.775 Q19.652 18.775 21.523 20.665 Q23.395 22.554 23.395 25.225 Q23.395 27.896 21.505 29.722 Q19.616 31.549 16.945 31.549 Z M124.863 31.549 Q122.208 31.549 120.356 29.677 Q118.505 27.806 118.505 25.162 Q118.505 22.518 120.395 20.647 Q122.284 18.775 124.955 18.775 Q127.626 18.775 129.498 20.665 Q131.37 22.554 131.37 25.225 Q131.37 27.896 129.464 29.722 Q127.558 31.549 124.863 31.549 Z"/></g><g id="Medium-L" transform="matrix(1 0 0 1 1674.31 1556)"><path d="M49.683 3.474 Q45.151 3.474 41.924 0.246 Q38.696 -2.981 38.696 -7.513 V-89.747 Q38.696 -94.278 41.924 -97.505 Q45.151 -100.733 49.683 -100.733 H131.917 Q136.448 -100.733 139.675 -97.505 Q142.903 -94.278 142.903 -89.747 V-7.513 Q142.903 -2.981 139.675 0.246 Q136.448 3.474 131.917 3.474 H49.683 Z M49.683 -7.513 H131.917 Q131.917 -7.513 131.917 -7.513 Q131.917 -7.513 131.917 -7.513 V-61.146 H89.536 Q87.21 -61.146 85.626 -62.729 Q84.043 -64.313 84.043 -66.639 V-89.747 H49.683 Q49.683 -89.747 49.683 -89.747 Q49.683 -89.747 49.683 -89.747 V-7.513 Q49.683 -7.513 49.683 -7.513 Q49.683 -7.513 49.683 -7.513 Z M17.386 -76.808 Q15.063 -76.808 13.499 -78.415 Q11.936 -80.021 11.936 -82.344 Q11.936 -84.667 13.535 -86.25 Q15.134 -87.833 17.445 -87.833 Q19.757 -87.833 21.339 -86.219 Q22.922 -84.606 22.922 -82.273 Q22.922 -79.956 21.315 -78.382 Q19.709 -76.808 17.386 -76.808 Z M44.161 30.234 Q41.845 30.234 40.271 28.635 Q38.696 27.036 38.696 24.725 Q38.696 22.413 40.303 20.831 Q41.91 19.248 44.233 19.248 Q46.556 19.248 48.138 20.855 Q49.721 22.461 49.721 24.784 Q49.721 27.107 48.108 28.671 Q46.494 30.234 44.161 30.234 Z M70.922 30.234 Q68.584 30.234 67.02 28.635 Q65.457 27.036 65.457 24.725 Q65.457 22.413 67.049 20.831 Q68.64 19.248 70.978 19.248 Q73.316 19.248 74.88 20.855 Q76.443 22.461 76.443 24.784 Q76.443 27.107 74.851 28.671 Q73.26 30.234 70.922 30.234 Z M97.706 30.234 Q95.383 30.234 93.8 28.635 Q92.217 27.036 92.217 24.725 Q92.217 22.413 93.831 20.831 Q95.444 19.248 97.777 19.248 Q100.094 19.248 101.668 20.855 Q103.242 22.461 103.242 24.784 Q103.242 27.107 101.636 28.671 Q100.029 30.234 97.706 30.234 Z M17.386 -50.047 Q15.063 -50.047 13.499 -51.661 Q11.936 -53.274 11.936 -55.607 Q11.936 -57.924 13.535 -59.498 Q15.134 -61.072 17.445 -61.072 Q19.757 -61.072 21.339 -59.466 Q22.922 -57.859 22.922 -55.536 Q22.922 -53.213 21.315 -51.63 Q19.709 -50.047 17.386 -50.047 Z M17.386 -23.287 Q15.063 -23.287 13.499 -24.879 Q11.936 -26.47 11.936 -28.808 Q11.936 -31.146 13.535 -32.71 Q15.134 -34.273 17.445 -34.273 Q19.757 -34.273 21.339 -32.681 Q22.922 -31.09 22.922 -28.752 Q22.922 -26.414 21.315 -24.85 Q19.709 -23.287 17.386 -23.287 Z M17.386 3.474 Q15.063 3.474 13.499 1.867 Q11.936 0.26 11.936 -2.063 Q11.936 -4.386 13.535 -5.968 Q15.134 -7.551 17.445 -7.551 Q19.757 -7.551 21.339 -5.938 Q22.922 -4.324 22.922 -1.991 Q22.922 0.325 21.315 1.899 Q19.709 3.474 17.386 3.474 Z M17.386 30.234 Q15.063 30.234 13.499 28.635 Q11.936 27.036 11.936 24.725 Q11.936 22.413 13.535 20.831 Q15.134 19.248 17.445 19.248 Q19.757 19.248 21.339 20.855 Q22.922 22.461 22.922 24.784 Q22.922 27.107 21.315 28.671 Q19.709 30.234 17.386 30.234 Z M124.443 30.234 Q122.126 30.234 120.552 28.635 Q118.978 27.036 118.978 24.725 Q118.978 22.413 120.585 20.831 Q122.191 19.248 124.514 19.248 Q126.837 19.248 128.42 20.855 Q130.003 22.461 130.003 24.784 Q130.003 27.107 128.389 28.671 Q126.776 30.234 124.443 30.234 Z"/></g><g id="Regular-L" transform="matrix(1 0 0 1 1378.56 1556)"><path d="M49.181 2.664 Q45.19 2.664 42.348 -0.178 Q39.506 -3.02 39.506 -7.011 V-90.055 Q39.506 -94.046 42.348 -96.888 Q45.19 -99.73 49.181 -99.73 H132.225 Q136.216 -99.73 139.058 -96.888 Q141.9 -94.046 141.9 -90.055 V-7.011 Q141.9 -3.02 139.058 -0.178 Q136.216 2.664 132.225 2.664 H49.181 Z M49.181 -7.011 H132.225 Q132.225 -7.011 132.225 -7.011 Q132.225 -7.011 132.225 -7.011 V-61.03 H88.688 Q86.632 -61.03 85.241 -62.421 Q83.85 -63.812 83.85 -65.867 V-90.055 H49.181 Q49.181 -90.055 49.181 -90.055 Q49.181 -90.055 49.181 -90.055 V-7.011 Q49.181 -7.011 49.181 -7.011 Q49.181 -7.011 49.181 -7.011 Z M17.709 -77.155 Q15.641 -77.155 14.271 -78.554 Q12.9 -79.953 12.9 -82.021 Q12.9 -84.089 14.299 -85.459 Q15.698 -86.83 17.766 -86.83 Q19.834 -86.83 21.204 -85.431 Q22.575 -84.032 22.575 -81.964 Q22.575 -79.896 21.176 -78.526 Q19.777 -77.155 17.709 -77.155 Z M44.316 29.27 Q42.248 29.27 40.877 27.871 Q39.506 26.472 39.506 24.404 Q39.506 22.336 40.905 20.966 Q42.304 19.595 44.372 19.595 Q46.44 19.595 47.811 20.994 Q49.181 22.393 49.181 24.461 Q49.181 26.529 47.782 27.899 Q46.383 29.27 44.316 29.27 Z M70.922 29.27 Q68.854 29.27 67.483 27.871 Q66.112 26.472 66.112 24.404 Q66.112 22.336 67.511 20.966 Q68.91 19.595 70.978 19.595 Q73.046 19.595 74.417 20.994 Q75.788 22.393 75.788 24.461 Q75.788 26.529 74.389 27.899 Q72.99 29.27 70.922 29.27 Z M97.528 29.27 Q95.46 29.27 94.089 27.871 Q92.719 26.472 92.719 24.404 Q92.719 22.336 94.118 20.966 Q95.517 19.595 97.584 19.595 Q99.653 19.595 101.023 20.994 Q102.394 22.393 102.394 24.461 Q102.394 26.529 100.995 27.899 Q99.596 29.27 97.528 29.27 Z M17.709 -50.549 Q15.641 -50.549 14.271 -51.948 Q12.9 -53.347 12.9 -55.414 Q12.9 -57.482 14.299 -58.853 Q15.698 -60.224 17.766 -60.224 Q19.834 -60.224 21.204 -58.825 Q22.575 -57.426 22.575 -55.358 Q22.575 -53.29 21.176 -51.919 Q19.777 -50.549 17.709 -50.549 Z M17.709 -23.942 Q15.641 -23.942 14.271 -25.341 Q12.9 -26.74 12.9 -28.808 Q12.9 -30.876 14.299 -32.247 Q15.698 -33.617 17.766 -33.617 Q19.834 -33.617 21.204 -32.219 Q22.575 -30.82 22.575 -28.752 Q22.575 -26.684 21.176 -25.313 Q19.777 -23.942 17.709 -23.942 Z M17.709 2.664 Q15.641 2.664 14.271 1.265 Q12.9 -0.134 12.9 -2.202 Q12.9 -4.27 14.299 -5.641 Q15.698 -7.011 17.766 -7.011 Q19.834 -7.011 21.204 -5.612 Q22.575 -4.213 22.575 -2.146 Q22.575 -0.077 21.176 1.293 Q19.777 2.664 17.709 2.664 Z M17.709 29.27 Q15.641 29.27 14.271 27.871 Q12.9 26.472 12.9 24.404 Q12.9 22.336 14.299 20.966 Q15.698 19.595 17.766 19.595 Q19.834 19.595 21.204 20.994 Q22.575 22.393 22.575 24.461 Q22.575 26.529 21.176 27.899 Q19.777 29.27 17.709 29.27 Z M124.134 29.27 Q122.066 29.27 120.696 27.871 Q119.325 26.472 119.325 24.404 Q119.325 22.336 120.724 20.966 Q122.123 19.595 124.191 19.595 Q126.259 19.595 127.629 20.994 Q129 22.393 129 24.461 Q129 26.529 127.601 27.899 Q126.202 29.27 124.134 29.27 Z"/></g><g id="Light-L" transform="matrix(1 0 0 1 1082.77 1556)"><path d="M51.228 0.617 Q47.263 0.617 44.439 -2.17 Q41.615 -4.957 41.615 -8.934 V-86.954 Q41.615 -90.931 44.439 -93.718 Q47.263 -96.505 51.228 -96.505 H129.124 Q133.064 -96.505 135.869 -93.699 Q138.675 -90.894 138.675 -86.954 V-8.934 Q138.675 -4.994 135.869 -2.189 Q133.064 0.617 129.124 0.617 H51.228 Z M51.228 -6.701 H129.124 Q130.054 -6.701 130.705 -7.321 Q131.357 -7.942 131.357 -8.934 V-63.635 H89.742 Q87.765 -63.635 86.428 -64.963 Q85.09 -66.292 85.09 -68.255 V-89.187 H51.228 Q50.236 -89.187 49.584 -88.535 Q48.933 -87.884 48.933 -86.954 V-8.934 Q48.933 -7.942 49.584 -7.321 Q50.236 -6.701 51.228 -6.701 Z M20.189 -75.542 Q18.463 -75.542 17.325 -76.71 Q16.187 -77.877 16.187 -79.603 Q16.187 -81.329 17.355 -82.467 Q18.522 -83.605 20.248 -83.605 Q21.974 -83.605 23.112 -82.437 Q24.25 -81.27 24.25 -79.544 Q24.25 -77.818 23.082 -76.68 Q21.915 -75.542 20.189 -75.542 Z M45.618 26.045 Q43.829 26.045 42.722 24.877 Q41.615 23.71 41.615 21.984 Q41.615 20.258 42.75 19.12 Q43.886 17.982 45.644 17.982 Q47.401 17.982 48.539 19.15 Q49.677 20.317 49.677 22.043 Q49.677 23.769 48.51 24.907 Q47.343 26.045 45.618 26.045 Z M70.983 26.045 Q69.257 26.045 68.119 24.877 Q66.981 23.71 66.981 21.984 Q66.981 20.258 68.148 19.12 Q69.316 17.982 71.041 17.982 Q72.767 17.982 73.905 19.15 Q75.043 20.317 75.043 22.043 Q75.043 23.769 73.876 24.907 Q72.708 26.045 70.983 26.045 Z M96.412 26.045 Q94.623 26.045 93.516 24.877 Q92.409 23.71 92.409 21.984 Q92.409 20.258 93.544 19.12 Q94.679 17.982 96.437 17.982 Q98.195 17.982 99.333 19.15 Q100.471 20.317 100.471 22.043 Q100.471 23.769 99.304 24.907 Q98.137 26.045 96.412 26.045 Z M20.189 -50.177 Q18.463 -50.177 17.325 -51.312 Q16.187 -52.447 16.187 -54.205 Q16.187 -55.963 17.355 -57.101 Q18.522 -58.239 20.248 -58.239 Q21.974 -58.239 23.112 -57.072 Q24.25 -55.905 24.25 -54.179 Q24.25 -52.391 23.082 -51.284 Q21.915 -50.177 20.189 -50.177 Z M20.189 -24.749 Q18.463 -24.749 17.325 -25.916 Q16.187 -27.084 16.187 -28.809 Q16.187 -30.535 17.355 -31.673 Q18.522 -32.811 20.248 -32.811 Q21.974 -32.811 23.112 -31.644 Q24.25 -30.476 24.25 -28.751 Q24.25 -27.025 23.082 -25.887 Q21.915 -24.749 20.189 -24.749 Z M20.189 0.617 Q18.463 0.617 17.325 -0.518 Q16.187 -1.654 16.187 -3.412 Q16.187 -5.169 17.355 -6.307 Q18.522 -7.445 20.248 -7.445 Q21.974 -7.445 23.112 -6.278 Q24.25 -5.111 24.25 -3.386 Q24.25 -1.597 23.082 -0.49 Q21.915 0.617 20.189 0.617 Z M20.189 26.045 Q18.463 26.045 17.325 24.877 Q16.187 23.71 16.187 21.984 Q16.187 20.258 17.355 19.12 Q18.522 17.982 20.248 17.982 Q21.974 17.982 23.112 19.15 Q24.25 20.317 24.25 22.043 Q24.25 23.769 23.082 24.907 Q21.915 26.045 20.189 26.045 Z M121.776 26.045 Q120.05 26.045 118.913 24.877 Q117.774 23.71 117.774 21.984 Q117.774 20.258 118.942 19.12 Q120.109 17.982 121.835 17.982 Q123.561 17.982 124.699 19.15 Q125.837 20.317 125.837 22.043 Q125.837 23.769 124.669 24.907 Q123.502 26.045 121.776 26.045 Z"/></g><g id="Thin-L" transform="matrix(1 0 0 1 787.282 1556)"><path d="M53.274 -1.429 Q49.335 -1.429 46.529 -4.161 Q43.724 -6.893 43.724 -10.856 V-83.853 Q43.724 -87.816 46.529 -90.548 Q49.335 -93.28 53.274 -93.28 H126.023 Q129.912 -93.28 132.681 -90.511 Q135.45 -87.742 135.45 -83.853 V-10.856 Q135.45 -6.968 132.681 -4.199 Q129.912 -1.429 126.023 -1.429 H53.274 Z M53.274 -6.391 H126.023 Q127.884 -6.391 129.186 -7.631 Q130.488 -8.872 130.488 -10.856 V-66.24 H90.796 Q88.898 -66.24 87.615 -67.505 Q86.331 -68.771 86.331 -70.643 V-88.318 H53.274 Q51.29 -88.318 49.988 -87.016 Q48.685 -85.714 48.685 -83.853 V-10.856 Q48.685 -8.872 49.988 -7.631 Q51.29 -6.391 53.274 -6.391 Z M22.669 -73.93 Q21.285 -73.93 20.379 -74.866 Q19.474 -75.802 19.474 -77.185 Q19.474 -78.569 20.41 -79.475 Q21.346 -80.38 22.729 -80.38 Q24.113 -80.38 25.019 -79.444 Q25.924 -78.508 25.924 -77.125 Q25.924 -75.741 24.988 -74.836 Q24.052 -73.93 22.669 -73.93 Z M46.92 22.82 Q45.41 22.82 44.567 21.884 Q43.724 20.948 43.724 19.565 Q43.724 18.181 44.595 17.276 Q45.467 16.37 46.915 16.37 Q48.363 16.37 49.268 17.306 Q50.174 18.242 50.174 19.625 Q50.174 21.009 49.238 21.915 Q48.303 22.82 46.92 22.82 Z M71.044 22.82 Q69.66 22.82 68.755 21.884 Q67.849 20.948 67.849 19.565 Q67.849 18.181 68.785 17.276 Q69.721 16.37 71.104 16.37 Q72.488 16.37 73.394 17.306 Q74.299 18.242 74.299 19.625 Q74.299 21.009 73.363 21.915 Q72.427 22.82 71.044 22.82 Z M95.295 22.82 Q93.785 22.82 92.942 21.884 Q92.099 20.948 92.099 19.565 Q92.099 18.181 92.97 17.276 Q93.842 16.37 95.29 16.37 Q96.738 16.37 97.643 17.306 Q98.549 18.242 98.549 19.625 Q98.549 21.009 97.613 21.915 Q96.678 22.82 95.295 22.82 Z M22.669 -49.805 Q21.285 -49.805 20.379 -50.676 Q19.474 -51.548 19.474 -52.996 Q19.474 -54.444 20.41 -55.349 Q21.346 -56.255 22.729 -56.255 Q24.113 -56.255 25.019 -55.319 Q25.924 -54.384 25.924 -53.001 Q25.924 -51.491 24.988 -50.648 Q24.052 -49.805 22.669 -49.805 Z M22.669 -25.555 Q21.285 -25.555 20.379 -26.491 Q19.474 -27.427 19.474 -28.81 Q19.474 -30.194 20.41 -31.1 Q21.346 -32.005 22.729 -32.005 Q24.113 -32.005 25.019 -31.069 Q25.924 -30.133 25.924 -28.75 Q25.924 -27.366 24.988 -26.46 Q24.052 -25.555 22.669 -25.555 Z M22.669 -1.429 Q21.285 -1.429 20.379 -2.301 Q19.474 -3.173 19.474 -4.621 Q19.474 -6.069 20.41 -6.974 Q21.346 -7.88 22.729 -7.88 Q24.113 -7.88 25.019 -6.944 Q25.924 -6.009 25.924 -4.626 Q25.924 -3.116 24.988 -2.273 Q24.052 -1.429 22.669 -1.429 Z M22.669 22.82 Q21.285 22.82 20.379 21.884 Q19.474 20.948 19.474 19.565 Q19.474 18.181 20.41 17.276 Q21.346 16.37 22.729 16.37 Q24.113 16.37 25.019 17.306 Q25.924 18.242 25.924 19.625 Q25.924 21.009 24.988 21.915 Q24.052 22.82 22.669 22.82 Z M119.419 22.82 Q118.035 22.82 117.13 21.884 Q116.224 20.948 116.224 19.565 Q116.224 18.181 117.16 17.276 Q118.096 16.37 119.479 16.37 Q120.863 16.37 121.769 17.306 Q122.674 18.242 122.674 19.625 Q122.674 21.009 121.738 21.915 Q120.802 22.82 119.419 22.82 Z"/></g><g id="Ultralight-L" transform="matrix(1 0 0 1 491.205 1556)"><path d="M54.503 -2.657 Q50.578 -2.657 47.783 -5.356 Q44.989 -8.055 44.989 -12.01 V-81.992 Q44.989 -85.947 47.783 -88.646 Q50.578 -91.345 54.503 -91.345 H124.163 Q128.02 -91.345 130.768 -88.598 Q133.515 -85.85 133.515 -81.992 V-12.01 Q133.515 -8.152 130.768 -5.405 Q128.02 -2.657 124.163 -2.657 H54.503 Z M54.503 -6.205 H124.163 Q126.581 -6.205 128.274 -7.817 Q129.968 -9.43 129.968 -12.01 V-67.802 H91.429 Q89.578 -67.802 88.327 -69.031 Q87.075 -70.26 87.075 -72.076 V-87.797 H54.503 Q51.922 -87.797 50.229 -86.104 Q48.536 -84.411 48.536 -81.992 V-12.01 Q48.536 -9.43 50.229 -7.817 Q51.922 -6.205 54.503 -6.205 Z M24.156 -72.962 Q22.978 -72.962 22.212 -73.76 Q21.446 -74.557 21.446 -75.735 Q21.446 -76.913 22.243 -77.679 Q23.04 -78.445 24.219 -78.445 Q25.397 -78.445 26.163 -77.648 Q26.929 -76.851 26.929 -75.673 Q26.929 -74.494 26.132 -73.728 Q25.335 -72.962 24.156 -72.962 Z M47.702 20.885 Q46.359 20.885 45.674 20.088 Q44.989 19.291 44.989 18.113 Q44.989 16.934 45.702 16.168 Q46.416 15.403 47.678 15.403 Q48.939 15.403 49.705 16.2 Q50.471 16.997 50.471 18.175 Q50.471 19.353 49.675 20.119 Q48.879 20.885 47.702 20.885 Z M71.08 20.885 Q69.902 20.885 69.136 20.088 Q68.37 19.291 68.37 18.113 Q68.37 16.934 69.167 16.168 Q69.964 15.403 71.142 15.403 Q72.321 15.403 73.087 16.2 Q73.853 16.997 73.853 18.175 Q73.853 19.353 73.055 20.119 Q72.258 20.885 71.08 20.885 Z M94.626 20.885 Q93.283 20.885 92.598 20.088 Q91.913 19.291 91.913 18.113 Q91.913 16.934 92.626 16.168 Q93.34 15.403 94.601 15.403 Q95.863 15.403 96.629 16.2 Q97.395 16.997 97.395 18.175 Q97.395 19.353 96.599 20.119 Q95.802 20.885 94.626 20.885 Z M24.156 -49.581 Q22.978 -49.581 22.212 -50.295 Q21.446 -51.008 21.446 -52.27 Q21.446 -53.532 22.243 -54.298 Q23.04 -55.064 24.219 -55.064 Q25.397 -55.064 26.163 -54.267 Q26.929 -53.471 26.929 -52.294 Q26.929 -50.952 26.132 -50.267 Q25.335 -49.581 24.156 -49.581 Z M24.156 -26.039 Q22.978 -26.039 22.212 -26.836 Q21.446 -27.633 21.446 -28.811 Q21.446 -29.989 22.243 -30.755 Q23.04 -31.521 24.219 -31.521 Q25.397 -31.521 26.163 -30.724 Q26.929 -29.927 26.929 -28.749 Q26.929 -27.571 26.132 -26.805 Q25.335 -26.039 24.156 -26.039 Z M24.156 -2.657 Q22.978 -2.657 22.212 -3.371 Q21.446 -4.085 21.446 -5.346 Q21.446 -6.608 22.243 -7.374 Q23.04 -8.14 24.219 -8.14 Q25.397 -8.14 26.163 -7.344 Q26.929 -6.547 26.929 -5.371 Q26.929 -4.028 26.132 -3.343 Q25.335 -2.657 24.156 -2.657 Z M24.156 20.885 Q22.978 20.885 22.212 20.088 Q21.446 19.291 21.446 18.113 Q21.446 16.934 22.243 16.168 Q23.04 15.403 24.219 15.403 Q25.397 15.403 26.163 16.2 Q26.929 16.997 26.929 18.175 Q26.929 19.353 26.132 20.119 Q25.335 20.885 24.156 20.885 Z M118.004 20.885 Q116.826 20.885 116.06 20.088 Q115.294 19.291 115.294 18.113 Q115.294 16.934 116.091 16.168 Q116.888 15.403 118.066 15.403 Q119.244 15.403 120.01 16.2 Q120.776 16.997 120.776 18.175 Q120.776 19.353 119.979 20.119 Q119.182 20.885 118.004 20.885 Z"/></g><g id="Bold-M" transform="matrix(1 0 0 1 2281.8 1126)"><path d="M42.125 -1.73 Q35.68 -1.73 31.09 -6.32 Q26.5 -10.91 26.5 -17.355 V-73.855 Q26.5 -80.3 31.09 -84.89 Q35.68 -89.48 42.125 -89.48 H98.625 Q105.07 -89.48 109.66 -84.89 Q114.25 -80.3 114.25 -73.855 V-17.355 Q114.25 -10.91 109.66 -6.32 Q105.07 -1.73 98.625 -1.73 H42.125 Z M42.125 -17.355 H98.625 Q98.625 -17.355 98.625 -17.355 Q98.625 -17.355 98.625 -17.355 V-55.73 H73.625 Q70.375 -55.73 68.062 -58.042 Q65.75 -60.355 65.75 -63.605 V-73.855 H42.125 Q42.125 -73.855 42.125 -73.855 Q42.125 -73.855 42.125 -73.855 V-17.355 Q42.125 -17.355 42.125 -17.355 Q42.125 -17.355 42.125 -17.355 Z M13.625 -63.73 Q10.375 -63.73 8.062 -66.042 Q5.75 -68.355 5.75 -71.605 Q5.75 -74.855 8.062 -77.167 Q10.375 -79.48 13.625 -79.48 Q16.875 -79.48 19.188 -77.167 Q21.5 -74.855 21.5 -71.605 Q21.5 -68.355 19.188 -66.042 Q16.875 -63.73 13.625 -63.73 Z M34.375 19.02 Q31.125 19.02 28.812 16.708 Q26.5 14.395 26.5 11.145 Q26.5 7.895 28.812 5.583 Q31.125 3.27 34.375 3.27 Q37.625 3.27 39.938 5.583 Q42.25 7.895 42.25 11.145 Q42.25 14.395 39.938 16.708 Q37.625 19.02 34.375 19.02 Z M55 19.02 Q51.75 19.02 49.438 16.708 Q47.125 14.395 47.125 11.145 Q47.125 7.895 49.438 5.583 Q51.75 3.27 55 3.27 Q58.25 3.27 60.562 5.583 Q62.875 7.895 62.875 11.145 Q62.875 14.395 60.562 16.708 Q58.25 19.02 55 19.02 Z M75.75 19.02 Q72.5 19.02 70.188 16.708 Q67.875 14.395 67.875 11.145 Q67.875 7.895 70.188 5.583 Q72.5 3.27 75.75 3.27 Q79 3.27 81.312 5.583 Q83.625 7.895 83.625 11.145 Q83.625 14.395 81.312 16.708 Q79 19.02 75.75 19.02 Z M13.625 -43.105 Q10.375 -43.105 8.062 -45.417 Q5.75 -47.73 5.75 -50.98 Q5.75 -54.23 8.062 -56.542 Q10.375 -58.855 13.625 -58.855 Q16.875 -58.855 19.188 -56.542 Q21.5 -54.23 21.5 -50.98 Q21.5 -47.73 19.188 -45.417 Q16.875 -43.105 13.625 -43.105 Z M13.625 -22.355 Q10.375 -22.355 8.062 -24.667 Q5.75 -26.98 5.75 -30.23 Q5.75 -33.48 8.062 -35.792 Q10.375 -38.105 13.625 -38.105 Q16.875 -38.105 19.188 -35.792 Q21.5 -33.48 21.5 -30.23 Q21.5 -26.98 19.188 -24.667 Q16.875 -22.355 13.625 -22.355 Z M13.625 -1.73 Q10.375 -1.73 8.062 -4.042 Q5.75 -6.355 5.75 -9.605 Q5.75 -12.855 8.062 -15.167 Q10.375 -17.48 13.625 -17.48 Q16.875 -17.48 19.188 -15.167 Q21.5 -12.855 21.5 -9.605 Q21.5 -6.355 19.188 -4.042 Q16.875 -1.73 13.625 -1.73 Z M13.625 19.02 Q10.375 19.02 8.062 16.708 Q5.75 14.395 5.75 11.145 Q5.75 7.895 8.062 5.583 Q10.375 3.27 13.625 3.27 Q16.875 3.27 19.188 5.583 Q21.5 7.895 21.5 11.145 Q21.5 14.395 19.188 16.708 Q16.875 19.02 13.625 19.02 Z M96.375 19.02 Q93.125 19.02 90.812 16.708 Q88.5 14.395 88.5 11.145 Q88.5 7.895 90.812 5.583 Q93.125 3.27 96.375 3.27 Q99.625 3.27 101.938 5.583 Q104.25 7.895 104.25 11.145 Q104.25 14.395 101.938 16.708 Q99.625 19.02 96.375 19.02 Z"/></g><g id="Semibold-M" transform="matrix(1 0 0 1 1985.97 1126)"><path d="M41.201 -3.252 Q35.765 -3.252 31.893 -7.123 Q28.022 -10.995 28.022 -16.431 V-74.453 Q28.022 -79.889 31.893 -83.761 Q35.765 -87.632 41.201 -87.632 H99.223 Q104.659 -87.632 108.531 -83.761 Q112.402 -79.889 112.402 -74.453 V-16.431 Q112.402 -10.995 108.531 -7.123 Q104.659 -3.252 99.223 -3.252 H41.201 Z M41.201 -16.431 H99.223 Q99.223 -16.431 99.223 -16.431 Q99.223 -16.431 99.223 -16.431 V-55.513 H72.049 Q69.288 -55.513 67.356 -57.445 Q65.424 -59.377 65.424 -62.138 V-74.453 H41.201 Q41.201 -74.453 41.201 -74.453 Q41.201 -74.453 41.201 -74.453 V-16.431 Q41.201 -16.431 41.201 -16.431 Q41.201 -16.431 41.201 -16.431 Z M14.223 -64.382 Q11.462 -64.382 9.53 -66.314 Q7.598 -68.246 7.598 -71.007 Q7.598 -73.768 9.53 -75.7 Q11.462 -77.632 14.223 -77.632 Q16.984 -77.632 18.916 -75.7 Q20.848 -73.768 20.848 -71.007 Q20.848 -68.246 18.916 -66.314 Q16.984 -64.382 14.223 -64.382 Z M34.647 17.172 Q31.886 17.172 29.954 15.24 Q28.022 13.308 28.022 10.547 Q28.022 7.786 29.954 5.854 Q31.886 3.922 34.647 3.922 Q37.408 3.922 39.34 5.854 Q41.272 7.786 41.272 10.547 Q41.272 13.308 39.34 15.24 Q37.408 17.172 34.647 17.172 Z M55 17.172 Q52.239 17.172 50.307 15.24 Q48.375 13.308 48.375 10.547 Q48.375 7.786 50.307 5.854 Q52.239 3.922 55 3.922 Q57.761 3.922 59.693 5.854 Q61.625 7.786 61.625 10.547 Q61.625 13.308 59.693 15.24 Q57.761 17.172 55 17.172 Z M75.424 17.172 Q72.663 17.172 70.731 15.24 Q68.799 13.308 68.799 10.547 Q68.799 7.786 70.731 5.854 Q72.663 3.922 75.424 3.922 Q78.185 3.922 80.117 5.854 Q82.049 7.786 82.049 10.547 Q82.049 13.308 80.117 15.24 Q78.185 17.172 75.424 17.172 Z M14.223 -44.029 Q11.462 -44.029 9.53 -45.961 Q7.598 -47.893 7.598 -50.654 Q7.598 -53.415 9.53 -55.347 Q11.462 -57.279 14.223 -57.279 Q16.984 -57.279 18.916 -55.347 Q20.848 -53.415 20.848 -50.654 Q20.848 -47.893 18.916 -45.961 Q16.984 -44.029 14.223 -44.029 Z M14.223 -23.605 Q11.462 -23.605 9.53 -25.537 Q7.598 -27.469 7.598 -30.23 Q7.598 -32.991 9.53 -34.923 Q11.462 -36.855 14.223 -36.855 Q16.984 -36.855 18.916 -34.923 Q20.848 -32.991 20.848 -30.23 Q20.848 -27.469 18.916 -25.537 Q16.984 -23.605 14.223 -23.605 Z M14.223 -3.252 Q11.462 -3.252 9.53 -5.184 Q7.598 -7.116 7.598 -9.877 Q7.598 -12.638 9.53 -14.57 Q11.462 -16.502 14.223 -16.502 Q16.984 -16.502 18.916 -14.57 Q20.848 -12.638 20.848 -9.877 Q20.848 -7.116 18.916 -5.184 Q16.984 -3.252 14.223 -3.252 Z M14.223 17.172 Q11.462 17.172 9.53 15.24 Q7.598 13.308 7.598 10.547 Q7.598 7.786 9.53 5.854 Q11.462 3.922 14.223 3.922 Q16.984 3.922 18.916 5.854 Q20.848 7.786 20.848 10.547 Q20.848 13.308 18.916 15.24 Q16.984 17.172 14.223 17.172 Z M95.777 17.172 Q93.016 17.172 91.084 15.24 Q89.152 13.308 89.152 10.547 Q89.152 7.786 91.084 5.854 Q93.016 3.922 95.777 3.922 Q98.538 3.922 100.47 5.854 Q102.402 7.786 102.402 10.547 Q102.402 13.308 100.47 15.24 Q98.538 17.172 95.777 17.172 Z"/></g><g id="Medium-M" transform="matrix(1 0 0 1 1689.91 1126)"><path d="M40.508 -4.393 Q35.828 -4.393 32.496 -7.726 Q29.163 -11.058 29.163 -15.738 V-74.901 Q29.163 -79.581 32.496 -82.914 Q35.828 -86.246 40.508 -86.246 H99.671 Q104.351 -86.246 107.684 -82.914 Q111.016 -79.581 111.016 -74.901 V-15.738 Q111.016 -11.058 107.684 -7.726 Q104.351 -4.393 99.671 -4.393 H40.508 Z M40.508 -15.738 H99.671 Q99.671 -15.738 99.671 -15.738 Q99.671 -15.738 99.671 -15.738 V-55.35 H70.867 Q68.473 -55.35 66.826 -56.996 Q65.179 -58.643 65.179 -61.037 V-74.901 H40.508 Q40.508 -74.901 40.508 -74.901 Q40.508 -74.901 40.508 -74.901 V-15.738 Q40.508 -15.738 40.508 -15.738 Q40.508 -15.738 40.508 -15.738 Z M14.671 -64.871 Q12.277 -64.871 10.63 -66.518 Q8.984 -68.165 8.984 -70.559 Q8.984 -72.953 10.63 -74.6 Q12.277 -76.246 14.671 -76.246 Q17.065 -76.246 18.712 -74.6 Q20.359 -72.953 20.359 -70.559 Q20.359 -68.165 18.712 -66.518 Q17.065 -64.871 14.671 -64.871 Z M34.85 15.786 Q32.456 15.786 30.81 14.14 Q29.163 12.493 29.163 10.099 Q29.163 7.705 30.81 6.058 Q32.456 4.411 34.85 4.411 Q37.245 4.411 38.891 6.058 Q40.538 7.705 40.538 10.099 Q40.538 12.493 38.891 14.14 Q37.245 15.786 34.85 15.786 Z M55 15.786 Q52.606 15.786 50.959 14.14 Q49.312 12.493 49.312 10.099 Q49.312 7.705 50.959 6.058 Q52.606 4.411 55 4.411 Q57.394 4.411 59.041 6.058 Q60.688 7.705 60.688 10.099 Q60.688 12.493 59.041 14.14 Q57.394 15.786 55 15.786 Z M75.179 15.786 Q72.785 15.786 71.139 14.14 Q69.492 12.493 69.492 10.099 Q69.492 7.705 71.139 6.058 Q72.785 4.411 75.179 4.411 Q77.573 4.411 79.22 6.058 Q80.867 7.705 80.867 10.099 Q80.867 12.493 79.22 14.14 Q77.573 15.786 75.179 15.786 Z M14.671 -44.722 Q12.277 -44.722 10.63 -46.369 Q8.984 -48.015 8.984 -50.409 Q8.984 -52.803 10.63 -54.45 Q12.277 -56.097 14.671 -56.097 Q17.065 -56.097 18.712 -54.45 Q20.359 -52.803 20.359 -50.409 Q20.359 -48.015 18.712 -46.369 Q17.065 -44.722 14.671 -44.722 Z M14.671 -24.542 Q12.277 -24.542 10.63 -26.189 Q8.984 -27.836 8.984 -30.23 Q8.984 -32.624 10.63 -34.271 Q12.277 -35.917 14.671 -35.917 Q17.065 -35.917 18.712 -34.271 Q20.359 -32.624 20.359 -30.23 Q20.359 -27.836 18.712 -26.189 Q17.065 -24.542 14.671 -24.542 Z M14.671 -4.393 Q12.277 -4.393 10.63 -6.04 Q8.984 -7.686 8.984 -10.08 Q8.984 -12.475 10.63 -14.121 Q12.277 -15.768 14.671 -15.768 Q17.065 -15.768 18.712 -14.121 Q20.359 -12.475 20.359 -10.08 Q20.359 -7.686 18.712 -6.04 Q17.065 -4.393 14.671 -4.393 Z M14.671 15.786 Q12.277 15.786 10.63 14.14 Q8.984 12.493 8.984 10.099 Q8.984 7.705 10.63 6.058 Q12.277 4.411 14.671 4.411 Q17.065 4.411 18.712 6.058 Q20.359 7.705 20.359 10.099 Q20.359 12.493 18.712 14.14 Q17.065 15.786 14.671 15.786 Z M95.329 15.786 Q92.935 15.786 91.288 14.14 Q89.641 12.493 89.641 10.099 Q89.641 7.705 91.288 6.058 Q92.935 4.411 95.329 4.411 Q97.723 4.411 99.37 6.058 Q101.016 7.705 101.016 10.099 Q101.016 12.493 99.37 14.14 Q97.723 15.786 95.329 15.786 Z"/></g><g id="Regular-M" transform="matrix(1 0 0 1 1394.06 1126)"><path d="M40 -5.23 Q35.875 -5.23 32.938 -8.167 Q30 -11.105 30 -15.23 V-75.23 Q30 -79.355 32.938 -82.292 Q35.875 -85.23 40 -85.23 H100 Q104.125 -85.23 107.062 -82.292 Q110 -79.355 110 -75.23 V-15.23 Q110 -11.105 107.062 -8.167 Q104.125 -5.23 100 -5.23 H40 Z M40 -15.23 H100 Q100 -15.23 100 -15.23 Q100 -15.23 100 -15.23 V-55.23 H70 Q67.875 -55.23 66.438 -56.667 Q65 -58.105 65 -60.23 V-75.23 H40 Q40 -75.23 40 -75.23 Q40 -75.23 40 -75.23 V-15.23 Q40 -15.23 40 -15.23 Q40 -15.23 40 -15.23 Z M15 -65.23 Q12.875 -65.23 11.438 -66.667 Q10 -68.105 10 -70.23 Q10 -72.355 11.438 -73.792 Q12.875 -75.23 15 -75.23 Q17.125 -75.23 18.562 -73.792 Q20 -72.355 20 -70.23 Q20 -68.105 18.562 -66.667 Q17.125 -65.23 15 -65.23 Z M35 14.77 Q32.875 14.77 31.438 13.333 Q30 11.895 30 9.77 Q30 7.645 31.438 6.208 Q32.875 4.77 35 4.77 Q37.125 4.77 38.562 6.208 Q40 7.645 40 9.77 Q40 11.895 38.562 13.333 Q37.125 14.77 35 14.77 Z M55 14.77 Q52.875 14.77 51.438 13.333 Q50 11.895 50 9.77 Q50 7.645 51.438 6.208 Q52.875 4.77 55 4.77 Q57.125 4.77 58.562 6.208 Q60 7.645 60 9.77 Q60 11.895 58.562 13.333 Q57.125 14.77 55 14.77 Z M75 14.77 Q72.875 14.77 71.438 13.333 Q70 11.895 70 9.77 Q70 7.645 71.438 6.208 Q72.875 4.77 75 4.77 Q77.125 4.77 78.562 6.208 Q80 7.645 80 9.77 Q80 11.895 78.562 13.333 Q77.125 14.77 75 14.77 Z M15 -45.23 Q12.875 -45.23 11.438 -46.667 Q10 -48.105 10 -50.23 Q10 -52.355 11.438 -53.792 Q12.875 -55.23 15 -55.23 Q17.125 -55.23 18.562 -53.792 Q20 -52.355 20 -50.23 Q20 -48.105 18.562 -46.667 Q17.125 -45.23 15 -45.23 Z M15 -25.23 Q12.875 -25.23 11.438 -26.667 Q10 -28.105 10 -30.23 Q10 -32.355 11.438 -33.792 Q12.875 -35.23 15 -35.23 Q17.125 -35.23 18.562 -33.792 Q20 -32.355 20 -30.23 Q20 -28.105 18.562 -26.667 Q17.125 -25.23 15 -25.23 Z M15 -5.23 Q12.875 -5.23 11.438 -6.667 Q10 -8.105 10 -10.23 Q10 -12.355 11.438 -13.792 Q12.875 -15.23 15 -15.23 Q17.125 -15.23 18.562 -13.792 Q20 -12.355 20 -10.23 Q20 -8.105 18.562 -6.667 Q17.125 -5.23 15 -5.23 Z M15 14.77 Q12.875 14.77 11.438 13.333 Q10 11.895 10 9.77 Q10 7.645 11.438 6.208 Q12.875 4.77 15 4.77 Q17.125 4.77 18.562 6.208 Q20 7.645 20 9.77 Q20 11.895 18.562 13.333 Q17.125 14.77 15 14.77 Z M95 14.77 Q92.875 14.77 91.438 13.333 Q90 11.895 90 9.77 Q90 7.645 91.438 6.208 Q92.875 4.77 95 4.77 Q97.125 4.77 98.562 6.208 Q100 7.645 100 9.77 Q100 11.895 98.562 13.333 Q97.125 14.77 95 14.77 Z"/></g><g id="Light-M" transform="matrix(1 0 0 1 1098.18 1126)"><path d="M41.058 -6.961 Q37.23 -6.961 34.505 -9.658 Q31.779 -12.355 31.779 -16.192 V-73.499 Q31.779 -77.336 34.505 -80.033 Q37.23 -82.73 41.058 -82.73 H98.269 Q102.077 -82.73 104.788 -80.018 Q107.5 -77.307 107.5 -73.499 V-16.192 Q107.5 -12.384 104.788 -9.672 Q102.077 -6.961 98.269 -6.961 H41.058 Z M41.058 -14.461 H98.269 Q98.99 -14.461 99.495 -14.965 Q100 -15.47 100 -16.192 V-57.249 H70.481 Q68.56 -57.249 67.261 -58.542 Q65.962 -59.834 65.962 -61.744 V-75.23 H41.058 Q40.337 -75.23 39.808 -74.725 Q39.279 -74.22 39.279 -73.499 V-16.192 Q39.279 -15.47 39.808 -14.965 Q40.337 -14.461 41.058 -14.461 Z M16.587 -64.653 Q14.87 -64.653 13.709 -65.814 Q12.548 -66.975 12.548 -68.691 Q12.548 -70.408 13.709 -71.569 Q14.87 -72.73 16.587 -72.73 Q18.303 -72.73 19.464 -71.569 Q20.625 -70.408 20.625 -68.691 Q20.625 -66.975 19.464 -65.814 Q18.303 -64.653 16.587 -64.653 Z M35.817 12.27 Q34.101 12.27 32.94 11.109 Q31.779 9.948 31.779 8.231 Q31.779 6.515 32.94 5.354 Q34.101 4.193 35.817 4.193 Q37.534 4.193 38.695 5.354 Q39.856 6.515 39.856 8.231 Q39.856 9.948 38.695 11.109 Q37.534 12.27 35.817 12.27 Z M55.048 12.27 Q53.332 12.27 52.171 11.109 Q51.01 9.948 51.01 8.231 Q51.01 6.515 52.171 5.354 Q53.332 4.193 55.048 4.193 Q56.764 4.193 57.925 5.354 Q59.087 6.515 59.087 8.231 Q59.087 9.948 57.925 11.109 Q56.764 12.27 55.048 12.27 Z M74.279 12.27 Q72.562 12.27 71.401 11.109 Q70.24 9.948 70.24 8.231 Q70.24 6.515 71.401 5.354 Q72.562 4.193 74.279 4.193 Q75.995 4.193 77.156 5.354 Q78.317 6.515 78.317 8.231 Q78.317 9.948 77.156 11.109 Q75.995 12.27 74.279 12.27 Z M16.587 -45.422 Q14.87 -45.422 13.709 -46.583 Q12.548 -47.744 12.548 -49.461 Q12.548 -51.177 13.709 -52.338 Q14.87 -53.499 16.587 -53.499 Q18.303 -53.499 19.464 -52.338 Q20.625 -51.177 20.625 -49.461 Q20.625 -47.744 19.464 -46.583 Q18.303 -45.422 16.587 -45.422 Z M16.587 -26.192 Q14.87 -26.192 13.709 -27.353 Q12.548 -28.514 12.548 -30.23 Q12.548 -31.946 13.709 -33.107 Q14.87 -34.268 16.587 -34.268 Q18.303 -34.268 19.464 -33.107 Q20.625 -31.946 20.625 -30.23 Q20.625 -28.514 19.464 -27.353 Q18.303 -26.192 16.587 -26.192 Z M16.587 -6.961 Q14.87 -6.961 13.709 -8.122 Q12.548 -9.283 12.548 -10.999 Q12.548 -12.716 13.709 -13.877 Q14.87 -15.038 16.587 -15.038 Q18.303 -15.038 19.464 -13.877 Q20.625 -12.716 20.625 -10.999 Q20.625 -9.283 19.464 -8.122 Q18.303 -6.961 16.587 -6.961 Z M16.587 12.27 Q14.87 12.27 13.709 11.109 Q12.548 9.948 12.548 8.231 Q12.548 6.515 13.709 5.354 Q14.87 4.193 16.587 4.193 Q18.303 4.193 19.464 5.354 Q20.625 6.515 20.625 8.231 Q20.625 9.948 19.464 11.109 Q18.303 12.27 16.587 12.27 Z M93.51 12.27 Q91.793 12.27 90.632 11.109 Q89.471 9.948 89.471 8.231 Q89.471 6.515 90.632 5.354 Q91.793 4.193 93.51 4.193 Q95.226 4.193 96.387 5.354 Q97.548 6.515 97.548 8.231 Q97.548 9.948 96.387 11.109 Q95.226 12.27 93.51 12.27 Z"/></g><g id="Thin-M" transform="matrix(1 0 0 1 802.565 1126)"><path d="M42.115 -8.691 Q38.585 -8.691 36.072 -11.148 Q33.558 -13.605 33.558 -17.153 V-71.768 Q33.558 -75.317 36.072 -77.773 Q38.585 -80.23 42.115 -80.23 H96.538 Q100.029 -80.23 102.514 -77.744 Q105 -75.259 105 -71.768 V-17.153 Q105 -13.663 102.514 -11.177 Q100.029 -8.691 96.538 -8.691 H42.115 Z M42.115 -13.691 H96.538 Q97.981 -13.691 98.99 -14.701 Q100 -15.711 100 -17.153 V-59.268 H70.962 Q69.245 -59.268 68.084 -60.416 Q66.923 -61.563 66.923 -63.259 V-75.23 H42.115 Q40.673 -75.23 39.615 -74.22 Q38.558 -73.211 38.558 -71.768 V-17.153 Q38.558 -15.711 39.615 -14.701 Q40.673 -13.691 42.115 -13.691 Z M18.173 -64.076 Q16.865 -64.076 15.981 -64.961 Q15.096 -65.845 15.096 -67.153 Q15.096 -68.461 15.981 -69.345 Q16.865 -70.23 18.173 -70.23 Q19.481 -70.23 20.365 -69.345 Q21.25 -68.461 21.25 -67.153 Q21.25 -65.845 20.365 -64.961 Q19.481 -64.076 18.173 -64.076 Z M36.635 9.77 Q35.327 9.77 34.442 8.885 Q33.558 8.001 33.558 6.693 Q33.558 5.385 34.442 4.501 Q35.327 3.616 36.635 3.616 Q37.942 3.616 38.827 4.501 Q39.712 5.385 39.712 6.693 Q39.712 8.001 38.827 8.885 Q37.942 9.77 36.635 9.77 Z M55.096 9.77 Q53.788 9.77 52.904 8.885 Q52.019 8.001 52.019 6.693 Q52.019 5.385 52.904 4.501 Q53.788 3.616 55.096 3.616 Q56.404 3.616 57.288 4.501 Q58.173 5.385 58.173 6.693 Q58.173 8.001 57.288 8.885 Q56.404 9.77 55.096 9.77 Z M73.558 9.77 Q72.25 9.77 71.365 8.885 Q70.481 8.001 70.481 6.693 Q70.481 5.385 71.365 4.501 Q72.25 3.616 73.558 3.616 Q74.865 3.616 75.75 4.501 Q76.635 5.385 76.635 6.693 Q76.635 8.001 75.75 8.885 Q74.865 9.77 73.558 9.77 Z M18.173 -45.615 Q16.865 -45.615 15.981 -46.499 Q15.096 -47.384 15.096 -48.691 Q15.096 -49.999 15.981 -50.884 Q16.865 -51.768 18.173 -51.768 Q19.481 -51.768 20.365 -50.884 Q21.25 -49.999 21.25 -48.691 Q21.25 -47.384 20.365 -46.499 Q19.481 -45.615 18.173 -45.615 Z M18.173 -27.153 Q16.865 -27.153 15.981 -28.038 Q15.096 -28.922 15.096 -30.23 Q15.096 -31.538 15.981 -32.422 Q16.865 -33.307 18.173 -33.307 Q19.481 -33.307 20.365 -32.422 Q21.25 -31.538 21.25 -30.23 Q21.25 -28.922 20.365 -28.038 Q19.481 -27.153 18.173 -27.153 Z M18.173 -8.691 Q16.865 -8.691 15.981 -9.576 Q15.096 -10.461 15.096 -11.768 Q15.096 -13.076 15.981 -13.961 Q16.865 -14.845 18.173 -14.845 Q19.481 -14.845 20.365 -13.961 Q21.25 -13.076 21.25 -11.768 Q21.25 -10.461 20.365 -9.576 Q19.481 -8.691 18.173 -8.691 Z M18.173 9.77 Q16.865 9.77 15.981 8.885 Q15.096 8.001 15.096 6.693 Q15.096 5.385 15.981 4.501 Q16.865 3.616 18.173 3.616 Q19.481 3.616 20.365 4.501 Q21.25 5.385 21.25 6.693 Q21.25 8.001 20.365 8.885 Q19.481 9.77 18.173 9.77 Z M92.019 9.77 Q90.712 9.77 89.827 8.885 Q88.942 8.001 88.942 6.693 Q88.942 5.385 89.827 4.501 Q90.712 3.616 92.019 3.616 Q93.327 3.616 94.212 4.501 Q95.096 5.385 95.096 6.693 Q95.096 8.001 94.212 8.885 Q93.327 9.77 92.019 9.77 Z"/></g><g id="Ultralight-M" transform="matrix(1 0 0 1 506.415 1126)"><path d="M42.75 -9.73 Q39.398 -9.73 37.012 -12.042 Q34.625 -14.355 34.625 -17.73 V-70.73 Q34.625 -74.105 37.012 -76.417 Q39.398 -78.73 42.75 -78.73 H95.5 Q98.8 -78.73 101.15 -76.38 Q103.5 -74.03 103.5 -70.73 V-17.73 Q103.5 -14.43 101.15 -12.08 Q98.8 -9.73 95.5 -9.73 H42.75 Z M42.75 -13.23 H95.5 Q97.375 -13.23 98.688 -14.542 Q100 -15.855 100 -17.73 V-60.48 H71.25 Q69.656 -60.48 68.578 -61.54 Q67.5 -62.6 67.5 -64.167 V-75.23 H42.75 Q40.875 -75.23 39.5 -73.917 Q38.125 -72.605 38.125 -70.73 V-17.73 Q38.125 -15.855 39.5 -14.542 Q40.875 -13.23 42.75 -13.23 Z M19.125 -63.73 Q18.062 -63.73 17.344 -64.449 Q16.625 -65.167 16.625 -66.23 Q16.625 -67.292 17.344 -68.011 Q18.062 -68.73 19.125 -68.73 Q20.188 -68.73 20.906 -68.011 Q21.625 -67.292 21.625 -66.23 Q21.625 -65.167 20.906 -64.449 Q20.188 -63.73 19.125 -63.73 Z M37.125 8.27 Q36.062 8.27 35.344 7.551 Q34.625 6.833 34.625 5.77 Q34.625 4.708 35.344 3.989 Q36.062 3.27 37.125 3.27 Q38.188 3.27 38.906 3.989 Q39.625 4.708 39.625 5.77 Q39.625 6.833 38.906 7.551 Q38.188 8.27 37.125 8.27 Z M55.125 8.27 Q54.062 8.27 53.344 7.551 Q52.625 6.833 52.625 5.77 Q52.625 4.708 53.344 3.989 Q54.062 3.27 55.125 3.27 Q56.188 3.27 56.906 3.989 Q57.625 4.708 57.625 5.77 Q57.625 6.833 56.906 7.551 Q56.188 8.27 55.125 8.27 Z M73.125 8.27 Q72.062 8.27 71.344 7.551 Q70.625 6.833 70.625 5.77 Q70.625 4.708 71.344 3.989 Q72.062 3.27 73.125 3.27 Q74.188 3.27 74.906 3.989 Q75.625 4.708 75.625 5.77 Q75.625 6.833 74.906 7.551 Q74.188 8.27 73.125 8.27 Z M19.125 -45.73 Q18.062 -45.73 17.344 -46.449 Q16.625 -47.167 16.625 -48.23 Q16.625 -49.292 17.344 -50.011 Q18.062 -50.73 19.125 -50.73 Q20.188 -50.73 20.906 -50.011 Q21.625 -49.292 21.625 -48.23 Q21.625 -47.167 20.906 -46.449 Q20.188 -45.73 19.125 -45.73 Z M19.125 -27.73 Q18.062 -27.73 17.344 -28.449 Q16.625 -29.167 16.625 -30.23 Q16.625 -31.292 17.344 -32.011 Q18.062 -32.73 19.125 -32.73 Q20.188 -32.73 20.906 -32.011 Q21.625 -31.292 21.625 -30.23 Q21.625 -29.167 20.906 -28.449 Q20.188 -27.73 19.125 -27.73 Z M19.125 -9.73 Q18.062 -9.73 17.344 -10.449 Q16.625 -11.167 16.625 -12.23 Q16.625 -13.292 17.344 -14.011 Q18.062 -14.73 19.125 -14.73 Q20.188 -14.73 20.906 -14.011 Q21.625 -13.292 21.625 -12.23 Q21.625 -11.167 20.906 -10.449 Q20.188 -9.73 19.125 -9.73 Z M19.125 8.27 Q18.062 8.27 17.344 7.551 Q16.625 6.833 16.625 5.77 Q16.625 4.708 17.344 3.989 Q18.062 3.27 19.125 3.27 Q20.188 3.27 20.906 3.989 Q21.625 4.708 21.625 5.77 Q21.625 6.833 20.906 7.551 Q20.188 8.27 19.125 8.27 Z M91.125 8.27 Q90.062 8.27 89.344 7.551 Q88.625 6.833 88.625 5.77 Q88.625 4.708 89.344 3.989 Q90.062 3.27 91.125 3.27 Q92.188 3.27 92.906 3.989 Q93.625 4.708 93.625 5.77 Q93.625 6.833 92.906 7.551 Q92.188 8.27 91.125 8.27 Z"/></g><g id="Bold-S" transform="matrix(1 0 0 1 2294.23 696)"><path d="M32.448 -8.798 Q27.688 -8.798 24.298 -12.188 Q20.909 -15.578 20.909 -20.338 V-64.916 Q20.909 -69.676 24.298 -73.066 Q27.688 -76.455 32.448 -76.455 H77.026 Q81.786 -76.455 85.176 -73.066 Q88.565 -69.676 88.565 -64.916 V-20.338 Q88.565 -15.578 85.176 -12.188 Q81.786 -8.798 77.026 -8.798 H32.448 Z M32.448 -20.338 H77.026 Q77.026 -20.338 77.026 -20.338 Q77.026 -20.338 77.026 -20.338 V-54.56 H58.485 Q56.088 -54.56 54.377 -56.272 Q52.666 -57.983 52.666 -60.379 V-64.916 H32.448 Q32.448 -64.916 32.448 -64.916 Q32.448 -64.916 32.448 -64.916 V-20.338 Q32.448 -20.338 32.448 -20.338 Q32.448 -20.338 32.448 -20.338 Z M11.954 -55.349 Q9.567 -55.349 7.841 -57.055 Q6.115 -58.76 6.115 -61.148 Q6.115 -63.535 7.82 -65.261 Q9.525 -66.987 11.913 -66.987 Q14.301 -66.987 16.027 -65.282 Q17.753 -63.577 17.753 -61.189 Q17.753 -58.801 16.047 -57.075 Q14.342 -55.349 11.954 -55.349 Z M27.34 5.995 Q24.952 5.995 23.226 4.29 Q21.5 2.585 21.5 0.197 Q21.5 -2.191 23.205 -3.917 Q24.911 -5.642 27.298 -5.642 Q29.686 -5.642 31.412 -3.937 Q33.138 -2.232 33.138 0.156 Q33.138 2.543 31.433 4.269 Q29.728 5.995 27.34 5.995 Z M42.627 5.995 Q40.239 5.995 38.513 4.29 Q36.787 2.585 36.787 0.197 Q36.787 -2.191 38.492 -3.917 Q40.197 -5.642 42.585 -5.642 Q44.973 -5.642 46.699 -3.937 Q48.425 -2.232 48.425 0.156 Q48.425 2.543 46.72 4.269 Q45.015 5.995 42.627 5.995 Z M58.012 5.995 Q55.625 5.995 53.899 4.29 Q52.173 2.585 52.173 0.197 Q52.173 -2.191 53.878 -3.917 Q55.583 -5.642 57.971 -5.642 Q60.358 -5.642 62.084 -3.937 Q63.81 -2.232 63.81 0.156 Q63.81 2.543 62.105 4.269 Q60.4 5.995 58.012 5.995 Z M11.954 -40.063 Q9.567 -40.063 7.841 -41.768 Q6.115 -43.473 6.115 -45.861 Q6.115 -48.248 7.82 -49.974 Q9.525 -51.7 11.913 -51.7 Q14.301 -51.7 16.027 -49.995 Q17.753 -48.29 17.753 -45.902 Q17.753 -43.514 16.047 -41.789 Q14.342 -40.063 11.954 -40.063 Z M11.954 -24.677 Q9.567 -24.677 7.841 -26.382 Q6.115 -28.087 6.115 -30.475 Q6.115 -32.863 7.82 -34.589 Q9.525 -36.315 11.913 -36.315 Q14.301 -36.315 16.027 -34.61 Q17.753 -32.905 17.753 -30.517 Q17.753 -28.129 16.047 -26.403 Q14.342 -24.677 11.954 -24.677 Z M11.954 -9.39 Q9.567 -9.39 7.841 -11.095 Q6.115 -12.801 6.115 -15.188 Q6.115 -17.576 7.82 -19.302 Q9.525 -21.028 11.913 -21.028 Q14.301 -21.028 16.027 -19.323 Q17.753 -17.618 17.753 -15.23 Q17.753 -12.842 16.047 -11.116 Q14.342 -9.39 11.954 -9.39 Z M11.954 5.995 Q9.567 5.995 7.841 4.29 Q6.115 2.585 6.115 0.197 Q6.115 -2.191 7.82 -3.917 Q9.525 -5.642 11.913 -5.642 Q14.301 -5.642 16.027 -3.937 Q17.753 -2.232 17.753 0.156 Q17.753 2.543 16.047 4.269 Q14.342 5.995 11.954 5.995 Z M73.299 5.995 Q70.911 5.995 69.185 4.29 Q67.46 2.585 67.46 0.197 Q67.46 -2.191 69.165 -3.917 Q70.87 -5.642 73.258 -5.642 Q75.645 -5.642 77.371 -3.937 Q79.097 -2.232 79.097 0.156 Q79.097 2.543 77.392 4.269 Q75.687 5.995 73.299 5.995 Z"/></g><g id="Semibold-S" transform="matrix(1 0 0 1 1998.1 696)"><path d="M31.719 -9.999 Q27.755 -9.999 24.932 -12.822 Q22.109 -15.645 22.109 -19.609 V-65.388 Q22.109 -69.352 24.932 -72.175 Q27.755 -74.997 31.719 -74.997 H77.498 Q81.462 -74.997 84.285 -72.175 Q87.107 -69.352 87.107 -65.388 V-19.609 Q87.107 -15.645 84.285 -12.822 Q81.462 -9.999 77.498 -9.999 H31.719 Z M31.719 -19.609 H77.498 Q77.498 -19.609 77.498 -19.609 Q77.498 -19.609 77.498 -19.609 V-54.389 H57.241 Q55.23 -54.389 53.819 -55.8 Q52.408 -57.211 52.408 -59.222 V-65.388 H31.719 Q31.719 -65.388 31.719 -65.388 Q31.719 -65.388 31.719 -65.388 V-19.609 Q31.719 -19.609 31.719 -19.609 Q31.719 -19.609 31.719 -19.609 Z M12.426 -55.864 Q10.424 -55.864 8.998 -57.269 Q7.573 -58.674 7.573 -60.676 Q7.573 -62.678 8.978 -64.104 Q10.383 -65.529 12.385 -65.529 Q14.386 -65.529 15.812 -64.124 Q17.238 -62.719 17.238 -60.717 Q17.238 -58.716 15.833 -57.29 Q14.428 -55.864 12.426 -55.864 Z M27.554 4.537 Q25.552 4.537 24.127 3.132 Q22.701 1.727 22.701 -0.275 Q22.701 -2.276 24.106 -3.702 Q25.511 -5.128 27.513 -5.128 Q29.515 -5.128 30.94 -3.723 Q32.366 -2.318 32.366 -0.316 Q32.366 1.686 30.961 3.112 Q29.556 4.537 27.554 4.537 Z M42.627 4.537 Q40.625 4.537 39.199 3.132 Q37.773 1.727 37.773 -0.275 Q37.773 -2.276 39.178 -3.702 Q40.583 -5.128 42.585 -5.128 Q44.587 -5.128 46.013 -3.723 Q47.439 -2.318 47.439 -0.316 Q47.439 1.686 46.034 3.112 Q44.629 4.537 42.627 4.537 Z M57.755 4.537 Q55.753 4.537 54.327 3.132 Q52.902 1.727 52.902 -0.275 Q52.902 -2.276 54.307 -3.702 Q55.712 -5.128 57.713 -5.128 Q59.715 -5.128 61.141 -3.723 Q62.567 -2.318 62.567 -0.316 Q62.567 1.686 61.162 3.112 Q59.757 4.537 57.755 4.537 Z M12.426 -40.792 Q10.424 -40.792 8.998 -42.197 Q7.573 -43.602 7.573 -45.603 Q7.573 -47.605 8.978 -49.031 Q10.383 -50.457 12.385 -50.457 Q14.386 -50.457 15.812 -49.052 Q17.238 -47.647 17.238 -45.645 Q17.238 -43.643 15.833 -42.217 Q14.428 -40.792 12.426 -40.792 Z M12.426 -25.663 Q10.424 -25.663 8.998 -27.068 Q7.573 -28.473 7.573 -30.475 Q7.573 -32.477 8.978 -33.903 Q10.383 -35.329 12.385 -35.329 Q14.386 -35.329 15.812 -33.924 Q17.238 -32.519 17.238 -30.517 Q17.238 -28.515 15.833 -27.089 Q14.428 -25.663 12.426 -25.663 Z M12.426 -10.591 Q10.424 -10.591 8.998 -11.996 Q7.573 -13.401 7.573 -15.403 Q7.573 -17.405 8.978 -18.83 Q10.383 -20.256 12.385 -20.256 Q14.386 -20.256 15.812 -18.851 Q17.238 -17.446 17.238 -15.444 Q17.238 -13.442 15.833 -12.017 Q14.428 -10.591 12.426 -10.591 Z M12.426 4.537 Q10.424 4.537 8.998 3.132 Q7.573 1.727 7.573 -0.275 Q7.573 -2.276 8.978 -3.702 Q10.383 -5.128 12.385 -5.128 Q14.386 -5.128 15.812 -3.723 Q17.238 -2.318 17.238 -0.316 Q17.238 1.686 15.833 3.112 Q14.428 4.537 12.426 4.537 Z M72.827 4.537 Q70.826 4.537 69.4 3.132 Q67.974 1.727 67.974 -0.275 Q67.974 -2.276 69.379 -3.702 Q70.784 -5.128 72.786 -5.128 Q74.788 -5.128 76.214 -3.723 Q77.639 -2.318 77.639 -0.316 Q77.639 1.686 76.234 3.112 Q74.829 4.537 72.827 4.537 Z"/></g><g id="Medium-S" transform="matrix(1 0 0 1 1701.85 696)"><path d="M31.172 -10.9 Q27.805 -10.9 25.407 -13.297 Q23.01 -15.695 23.01 -19.062 V-65.742 Q23.01 -69.108 25.407 -71.506 Q27.805 -73.904 31.172 -73.904 H77.852 Q81.218 -73.904 83.616 -71.506 Q86.014 -69.108 86.014 -65.742 V-19.062 Q86.014 -15.695 83.616 -13.297 Q81.218 -10.9 77.852 -10.9 H31.172 Z M31.172 -19.062 H77.852 Q77.852 -19.062 77.852 -19.062 Q77.852 -19.062 77.852 -19.062 V-54.26 H56.308 Q54.587 -54.26 53.401 -55.446 Q52.216 -56.632 52.216 -58.353 V-65.742 H31.172 Q31.172 -65.742 31.172 -65.742 Q31.172 -65.742 31.172 -65.742 V-19.062 Q31.172 -19.062 31.172 -19.062 Q31.172 -19.062 31.172 -19.062 Z M12.78 -56.25 Q11.067 -56.25 9.867 -57.43 Q8.666 -58.61 8.666 -60.322 Q8.666 -62.035 9.846 -63.235 Q11.026 -64.436 12.738 -64.436 Q14.451 -64.436 15.651 -63.256 Q16.852 -62.076 16.852 -60.364 Q16.852 -58.651 15.672 -57.451 Q14.492 -56.25 12.78 -56.25 Z M27.715 3.444 Q26.003 3.444 24.802 2.264 Q23.601 1.084 23.601 -0.628 Q23.601 -2.341 24.781 -3.541 Q25.961 -4.742 27.674 -4.742 Q29.386 -4.742 30.587 -3.562 Q31.787 -2.382 31.787 -0.67 Q31.787 1.043 30.607 2.243 Q29.428 3.444 27.715 3.444 Z M42.627 3.444 Q40.914 3.444 39.714 2.264 Q38.513 1.084 38.513 -0.628 Q38.513 -2.341 39.693 -3.541 Q40.873 -4.742 42.585 -4.742 Q44.298 -4.742 45.498 -3.562 Q46.699 -2.382 46.699 -0.67 Q46.699 1.043 45.519 2.243 Q44.339 3.444 42.627 3.444 Z M57.562 3.444 Q55.85 3.444 54.649 2.264 Q53.448 1.084 53.448 -0.628 Q53.448 -2.341 54.628 -3.541 Q55.808 -4.742 57.52 -4.742 Q59.233 -4.742 60.434 -3.562 Q61.634 -2.382 61.634 -0.67 Q61.634 1.043 60.454 2.243 Q59.274 3.444 57.562 3.444 Z M12.78 -41.338 Q11.067 -41.338 9.867 -42.518 Q8.666 -43.698 8.666 -45.41 Q8.666 -47.123 9.846 -48.324 Q11.026 -49.524 12.738 -49.524 Q14.451 -49.524 15.651 -48.344 Q16.852 -47.164 16.852 -45.452 Q16.852 -43.74 15.672 -42.539 Q14.492 -41.338 12.78 -41.338 Z M12.78 -26.403 Q11.067 -26.403 9.867 -27.583 Q8.666 -28.763 8.666 -30.475 Q8.666 -32.188 9.846 -33.388 Q11.026 -34.589 12.738 -34.589 Q14.451 -34.589 15.651 -33.409 Q16.852 -32.229 16.852 -30.517 Q16.852 -28.804 15.672 -27.604 Q14.492 -26.403 12.78 -26.403 Z M12.78 -11.491 Q11.067 -11.491 9.867 -12.671 Q8.666 -13.851 8.666 -15.564 Q8.666 -17.276 9.846 -18.477 Q11.026 -19.677 12.738 -19.677 Q14.451 -19.677 15.651 -18.497 Q16.852 -17.318 16.852 -15.605 Q16.852 -13.893 15.672 -12.692 Q14.492 -11.491 12.78 -11.491 Z M12.78 3.444 Q11.067 3.444 9.867 2.264 Q8.666 1.084 8.666 -0.628 Q8.666 -2.341 9.846 -3.541 Q11.026 -4.742 12.738 -4.742 Q14.451 -4.742 15.651 -3.562 Q16.852 -2.382 16.852 -0.67 Q16.852 1.043 15.672 2.243 Q14.492 3.444 12.78 3.444 Z M72.474 3.444 Q70.761 3.444 69.561 2.264 Q68.36 1.084 68.36 -0.628 Q68.36 -2.341 69.54 -3.541 Q70.72 -4.742 72.432 -4.742 Q74.145 -4.742 75.345 -3.562 Q76.546 -2.382 76.546 -0.67 Q76.546 1.043 75.366 2.243 Q74.186 3.444 72.474 3.444 Z"/></g><g id="Regular-S" transform="matrix(1 0 0 1 1405.73 696)"><path d="M30.771 -11.56 Q27.842 -11.56 25.756 -13.646 Q23.67 -15.732 23.67 -18.661 V-66.001 Q23.67 -68.93 25.756 -71.016 Q27.842 -73.102 30.771 -73.102 H78.111 Q81.04 -73.102 83.126 -71.016 Q85.212 -68.93 85.212 -66.001 V-18.661 Q85.212 -15.732 83.126 -13.646 Q81.04 -11.56 78.111 -11.56 H30.771 Z M30.771 -18.661 H78.111 Q78.111 -18.661 78.111 -18.661 Q78.111 -18.661 78.111 -18.661 V-54.166 H55.625 Q54.116 -54.166 53.095 -55.187 Q52.074 -56.208 52.074 -57.716 V-66.001 H30.771 Q30.771 -66.001 30.771 -66.001 Q30.771 -66.001 30.771 -66.001 V-18.661 Q30.771 -18.661 30.771 -18.661 Q30.771 -18.661 30.771 -18.661 Z M13.039 -56.533 Q11.539 -56.533 10.504 -57.548 Q9.468 -58.563 9.468 -60.063 Q9.468 -61.563 10.483 -62.598 Q11.498 -63.634 12.998 -63.634 Q14.498 -63.634 15.533 -62.619 Q16.569 -61.604 16.569 -60.104 Q16.569 -58.604 15.554 -57.569 Q14.539 -56.533 13.039 -56.533 Z M27.833 2.642 Q26.333 2.642 25.297 1.627 Q24.262 0.612 24.262 -0.888 Q24.262 -2.388 25.277 -3.423 Q26.291 -4.459 27.791 -4.459 Q29.292 -4.459 30.327 -3.444 Q31.363 -2.429 31.363 -0.929 Q31.363 0.571 30.348 1.606 Q29.333 2.642 27.833 2.642 Z M42.627 2.642 Q41.127 2.642 40.091 1.627 Q39.056 0.612 39.056 -0.888 Q39.056 -2.388 40.07 -3.423 Q41.085 -4.459 42.585 -4.459 Q44.085 -4.459 45.121 -3.444 Q46.157 -2.429 46.157 -0.929 Q46.157 0.571 45.142 1.606 Q44.127 2.642 42.627 2.642 Z M57.421 2.642 Q55.92 2.642 54.885 1.627 Q53.849 0.612 53.849 -0.888 Q53.849 -2.388 54.864 -3.423 Q55.879 -4.459 57.379 -4.459 Q58.879 -4.459 59.915 -3.444 Q60.95 -2.429 60.95 -0.929 Q60.95 0.571 59.935 1.606 Q58.921 2.642 57.421 2.642 Z M13.039 -41.739 Q11.539 -41.739 10.504 -42.754 Q9.468 -43.769 9.468 -45.269 Q9.468 -46.769 10.483 -47.805 Q11.498 -48.84 12.998 -48.84 Q14.498 -48.84 15.533 -47.825 Q16.569 -46.811 16.569 -45.311 Q16.569 -43.81 15.554 -42.775 Q14.539 -41.739 13.039 -41.739 Z M13.039 -26.945 Q11.539 -26.945 10.504 -27.96 Q9.468 -28.975 9.468 -30.475 Q9.468 -31.975 10.483 -33.011 Q11.498 -34.046 12.998 -34.046 Q14.498 -34.046 15.533 -33.032 Q16.569 -32.017 16.569 -30.517 Q16.569 -29.017 15.554 -27.981 Q14.539 -26.945 13.039 -26.945 Z M13.039 -12.152 Q11.539 -12.152 10.504 -13.167 Q9.468 -14.181 9.468 -15.681 Q9.468 -17.182 10.483 -18.217 Q11.498 -19.253 12.998 -19.253 Q14.498 -19.253 15.533 -18.238 Q16.569 -17.223 16.569 -15.723 Q16.569 -14.223 15.554 -13.187 Q14.539 -12.152 13.039 -12.152 Z M13.039 2.642 Q11.539 2.642 10.504 1.627 Q9.468 0.612 9.468 -0.888 Q9.468 -2.388 10.483 -3.423 Q11.498 -4.459 12.998 -4.459 Q14.498 -4.459 15.533 -3.444 Q16.569 -2.429 16.569 -0.929 Q16.569 0.571 15.554 1.606 Q14.539 2.642 13.039 2.642 Z M72.214 2.642 Q70.714 2.642 69.679 1.627 Q68.643 0.612 68.643 -0.888 Q68.643 -2.388 69.658 -3.423 Q70.673 -4.459 72.173 -4.459 Q73.673 -4.459 74.708 -3.444 Q75.744 -2.429 75.744 -0.929 Q75.744 0.571 74.729 1.606 Q73.714 2.642 72.214 2.642 Z"/></g><g id="Light-S" transform="matrix(1 0 0 1 1109.75 696)"><path d="M31.606 -12.926 Q28.911 -12.926 26.992 -14.822 Q25.074 -16.718 25.074 -19.42 V-64.635 Q25.074 -67.337 26.992 -69.233 Q28.911 -71.129 31.606 -71.129 H76.745 Q79.424 -71.129 81.332 -69.222 Q83.239 -67.314 83.239 -64.635 V-19.42 Q83.239 -16.741 81.332 -14.833 Q79.424 -12.926 76.745 -12.926 H31.606 Z M31.606 -18.054 H76.745 Q77.314 -18.054 77.713 -18.452 Q78.111 -18.851 78.111 -19.42 V-55.759 H56.004 Q54.656 -55.759 53.744 -56.666 Q52.833 -57.572 52.833 -58.911 V-66.001 H31.606 Q31.037 -66.001 30.619 -65.603 Q30.202 -65.204 30.202 -64.635 V-19.42 Q30.202 -18.851 30.619 -18.452 Q31.037 -18.054 31.606 -18.054 Z M14.291 -56.078 Q13.113 -56.078 12.296 -56.874 Q11.479 -57.671 11.479 -58.849 Q11.479 -60.026 12.275 -60.844 Q13.072 -61.661 14.25 -61.661 Q15.427 -61.661 16.245 -60.865 Q17.062 -60.068 17.062 -58.89 Q17.062 -57.713 16.266 -56.895 Q15.469 -56.078 14.291 -56.078 Z M28.478 0.669 Q27.3 0.669 26.483 -0.127 Q25.665 -0.924 25.665 -2.102 Q25.665 -3.279 26.462 -4.097 Q27.259 -4.914 28.436 -4.914 Q29.614 -4.914 30.432 -4.118 Q31.249 -3.321 31.249 -2.143 Q31.249 -0.966 30.452 -0.148 Q29.656 0.669 28.478 0.669 Z M42.665 0.669 Q41.487 0.669 40.67 -0.127 Q39.852 -0.924 39.852 -2.102 Q39.852 -3.279 40.649 -4.097 Q41.445 -4.914 42.623 -4.914 Q43.801 -4.914 44.618 -4.118 Q45.436 -3.321 45.436 -2.143 Q45.436 -0.966 44.639 -0.148 Q43.842 0.669 42.665 0.669 Z M56.851 0.669 Q55.674 0.669 54.856 -0.127 Q54.039 -0.924 54.039 -2.102 Q54.039 -3.279 54.836 -4.097 Q55.632 -4.914 56.81 -4.914 Q57.988 -4.914 58.805 -4.118 Q59.622 -3.321 59.622 -2.143 Q59.622 -0.966 58.826 -0.148 Q58.029 0.669 56.851 0.669 Z M14.291 -41.891 Q13.113 -41.891 12.296 -42.688 Q11.479 -43.484 11.479 -44.662 Q11.479 -45.84 12.275 -46.657 Q13.072 -47.475 14.25 -47.475 Q15.427 -47.475 16.245 -46.678 Q17.062 -45.881 17.062 -44.704 Q17.062 -43.526 16.266 -42.708 Q15.469 -41.891 14.291 -41.891 Z M14.291 -27.704 Q13.113 -27.704 12.296 -28.501 Q11.479 -29.298 11.479 -30.475 Q11.479 -31.653 12.275 -32.47 Q13.072 -33.288 14.25 -33.288 Q15.427 -33.288 16.245 -32.491 Q17.062 -31.694 17.062 -30.517 Q17.062 -29.339 16.266 -28.522 Q15.469 -27.704 14.291 -27.704 Z M14.291 -13.517 Q13.113 -13.517 12.296 -14.314 Q11.479 -15.111 11.479 -16.288 Q11.479 -17.466 12.275 -18.284 Q13.072 -19.101 14.25 -19.101 Q15.427 -19.101 16.245 -18.304 Q17.062 -17.508 17.062 -16.33 Q17.062 -15.152 16.266 -14.335 Q15.469 -13.517 14.291 -13.517 Z M14.291 0.669 Q13.113 0.669 12.296 -0.127 Q11.479 -0.924 11.479 -2.102 Q11.479 -3.279 12.275 -4.097 Q13.072 -4.914 14.25 -4.914 Q15.427 -4.914 16.245 -4.118 Q17.062 -3.321 17.062 -2.143 Q17.062 -0.966 16.266 -0.148 Q15.469 0.669 14.291 0.669 Z M71.038 0.669 Q69.861 0.669 69.043 -0.127 Q68.226 -0.924 68.226 -2.102 Q68.226 -3.279 69.022 -4.097 Q69.819 -4.914 70.997 -4.914 Q72.174 -4.914 72.992 -4.118 Q73.809 -3.321 73.809 -2.143 Q73.809 -0.966 73.013 -0.148 Q72.216 0.669 71.038 0.669 Z"/></g><g id="Thin-S" transform="matrix(1 0 0 1 814.015 696)"><path d="M32.44 -14.291 Q29.98 -14.291 28.229 -15.998 Q26.477 -17.704 26.477 -20.178 V-63.27 Q26.477 -65.744 28.229 -67.45 Q29.98 -69.157 32.44 -69.157 H75.38 Q77.808 -69.157 79.538 -67.428 Q81.267 -65.698 81.267 -63.27 V-20.178 Q81.267 -17.75 79.538 -16.021 Q77.808 -14.291 75.38 -14.291 H32.44 Z M32.44 -17.447 H75.38 Q76.518 -17.447 77.314 -18.244 Q78.111 -19.04 78.111 -20.178 V-57.352 H56.383 Q55.197 -57.352 54.394 -58.144 Q53.591 -58.936 53.591 -60.106 V-66.001 H32.44 Q31.302 -66.001 30.468 -65.204 Q29.633 -64.408 29.633 -63.27 V-20.178 Q29.633 -19.04 30.468 -18.244 Q31.302 -17.447 32.44 -17.447 Z M15.543 -55.623 Q14.688 -55.623 14.088 -56.201 Q13.489 -56.78 13.489 -57.635 Q13.489 -58.49 14.067 -59.09 Q14.646 -59.689 15.501 -59.689 Q16.357 -59.689 16.956 -59.11 Q17.555 -58.532 17.555 -57.677 Q17.555 -56.821 16.977 -56.222 Q16.398 -55.623 15.543 -55.623 Z M29.123 -1.303 Q28.267 -1.303 27.668 -1.882 Q27.069 -2.46 27.069 -3.315 Q27.069 -4.171 27.647 -4.77 Q28.226 -5.369 29.081 -5.369 Q29.936 -5.369 30.536 -4.791 Q31.135 -4.212 31.135 -3.357 Q31.135 -2.502 30.557 -1.902 Q29.978 -1.303 29.123 -1.303 Z M42.703 -1.303 Q41.847 -1.303 41.248 -1.882 Q40.649 -2.46 40.649 -3.315 Q40.649 -4.171 41.227 -4.77 Q41.806 -5.369 42.661 -5.369 Q43.516 -5.369 44.116 -4.791 Q44.715 -4.212 44.715 -3.357 Q44.715 -2.502 44.136 -1.902 Q43.558 -1.303 42.703 -1.303 Z M56.283 -1.303 Q55.427 -1.303 54.828 -1.882 Q54.229 -2.46 54.229 -3.315 Q54.229 -4.171 54.807 -4.77 Q55.386 -5.369 56.241 -5.369 Q57.096 -5.369 57.696 -4.791 Q58.295 -4.212 58.295 -3.357 Q58.295 -2.502 57.716 -1.902 Q57.138 -1.303 56.283 -1.303 Z M15.543 -42.043 Q14.688 -42.043 14.088 -42.621 Q13.489 -43.2 13.489 -44.055 Q13.489 -44.91 14.067 -45.51 Q14.646 -46.109 15.501 -46.109 Q16.357 -46.109 16.956 -45.53 Q17.555 -44.952 17.555 -44.097 Q17.555 -43.241 16.977 -42.642 Q16.398 -42.043 15.543 -42.043 Z M15.543 -28.463 Q14.688 -28.463 14.088 -29.041 Q13.489 -29.62 13.489 -30.475 Q13.489 -31.331 14.067 -31.93 Q14.646 -32.529 15.501 -32.529 Q16.357 -32.529 16.956 -31.951 Q17.555 -31.372 17.555 -30.517 Q17.555 -29.661 16.977 -29.062 Q16.398 -28.463 15.543 -28.463 Z M15.543 -14.883 Q14.688 -14.883 14.088 -15.462 Q13.489 -16.04 13.489 -16.895 Q13.489 -17.751 14.067 -18.35 Q14.646 -18.949 15.501 -18.949 Q16.357 -18.949 16.956 -18.371 Q17.555 -17.792 17.555 -16.937 Q17.555 -16.082 16.977 -15.482 Q16.398 -14.883 15.543 -14.883 Z M15.543 -1.303 Q14.688 -1.303 14.088 -1.882 Q13.489 -2.46 13.489 -3.315 Q13.489 -4.171 14.067 -4.77 Q14.646 -5.369 15.501 -5.369 Q16.357 -5.369 16.956 -4.791 Q17.555 -4.212 17.555 -3.357 Q17.555 -2.502 16.977 -1.902 Q16.398 -1.303 15.543 -1.303 Z M69.862 -1.303 Q69.007 -1.303 68.408 -1.882 Q67.809 -2.46 67.809 -3.315 Q67.809 -4.171 68.387 -4.77 Q68.966 -5.369 69.821 -5.369 Q70.676 -5.369 71.276 -4.791 Q71.875 -4.212 71.875 -3.357 Q71.875 -2.502 71.296 -1.902 Q70.718 -1.303 69.862 -1.303 Z"/></g><g id="Ultralight-S" transform="matrix(1 0 0 1 517.792 696)"><path d="M32.941 -15.11 Q30.622 -15.11 28.971 -16.703 Q27.319 -18.296 27.319 -20.633 V-62.45 Q27.319 -64.788 28.971 -66.381 Q30.622 -67.973 32.941 -67.973 H74.561 Q76.839 -67.973 78.461 -66.351 Q80.084 -64.729 80.084 -62.45 V-20.633 Q80.084 -18.355 78.461 -16.733 Q76.839 -15.11 74.561 -15.11 H32.941 Z M32.941 -17.083 H74.561 Q76.04 -17.083 77.075 -18.119 Q78.111 -19.154 78.111 -20.633 V-58.308 H56.611 Q55.521 -58.308 54.784 -59.031 Q54.047 -59.754 54.047 -60.823 V-66.001 H32.941 Q31.461 -66.001 30.377 -64.965 Q29.292 -63.93 29.292 -62.45 V-20.633 Q29.292 -19.154 30.377 -18.119 Q31.461 -17.083 32.941 -17.083 Z M16.294 -55.349 Q15.632 -55.349 15.164 -55.797 Q14.695 -56.245 14.695 -56.907 Q14.695 -57.569 15.143 -58.037 Q15.591 -58.505 16.252 -58.505 Q16.914 -58.505 17.383 -58.058 Q17.851 -57.61 17.851 -56.948 Q17.851 -56.286 17.403 -55.818 Q16.956 -55.349 16.294 -55.349 Z M29.51 -2.486 Q28.848 -2.486 28.379 -2.934 Q27.911 -3.382 27.911 -4.044 Q27.911 -4.706 28.359 -5.174 Q28.806 -5.642 29.468 -5.642 Q30.13 -5.642 30.598 -5.195 Q31.067 -4.747 31.067 -4.085 Q31.067 -3.423 30.619 -2.955 Q30.171 -2.486 29.51 -2.486 Z M42.725 -2.486 Q42.064 -2.486 41.595 -2.934 Q41.127 -3.382 41.127 -4.044 Q41.127 -4.706 41.574 -5.174 Q42.022 -5.642 42.684 -5.642 Q43.346 -5.642 43.814 -5.195 Q44.283 -4.747 44.283 -4.085 Q44.283 -3.423 43.835 -2.955 Q43.387 -2.486 42.725 -2.486 Z M55.941 -2.486 Q55.279 -2.486 54.811 -2.934 Q54.342 -3.382 54.342 -4.044 Q54.342 -4.706 54.79 -5.174 Q55.238 -5.642 55.9 -5.642 Q56.561 -5.642 57.03 -5.195 Q57.498 -4.747 57.498 -4.085 Q57.498 -3.423 57.051 -2.955 Q56.603 -2.486 55.941 -2.486 Z M16.294 -42.134 Q15.632 -42.134 15.164 -42.581 Q14.695 -43.029 14.695 -43.691 Q14.695 -44.353 15.143 -44.821 Q15.591 -45.29 16.252 -45.29 Q16.914 -45.29 17.383 -44.842 Q17.851 -44.394 17.851 -43.733 Q17.851 -43.071 17.403 -42.602 Q16.956 -42.134 16.294 -42.134 Z M16.294 -28.918 Q15.632 -28.918 15.164 -29.366 Q14.695 -29.813 14.695 -30.475 Q14.695 -31.137 15.143 -31.606 Q15.591 -32.074 16.252 -32.074 Q16.914 -32.074 17.383 -31.626 Q17.851 -31.179 17.851 -30.517 Q17.851 -29.855 17.403 -29.386 Q16.956 -28.918 16.294 -28.918 Z M16.294 -15.702 Q15.632 -15.702 15.164 -16.15 Q14.695 -16.598 14.695 -17.259 Q14.695 -17.921 15.143 -18.39 Q15.591 -18.858 16.252 -18.858 Q16.914 -18.858 17.383 -18.411 Q17.851 -17.963 17.851 -17.301 Q17.851 -16.639 17.403 -16.171 Q16.956 -15.702 16.294 -15.702 Z M16.294 -2.486 Q15.632 -2.486 15.164 -2.934 Q14.695 -3.382 14.695 -4.044 Q14.695 -4.706 15.143 -5.174 Q15.591 -5.642 16.252 -5.642 Q16.914 -5.642 17.383 -5.195 Q17.851 -4.747 17.851 -4.085 Q17.851 -3.423 17.403 -2.955 Q16.956 -2.486 16.294 -2.486 Z M69.157 -2.486 Q68.495 -2.486 68.027 -2.934 Q67.558 -3.382 67.558 -4.044 Q67.558 -4.706 68.006 -5.174 Q68.454 -5.642 69.115 -5.642 Q69.777 -5.642 70.246 -5.195 Q70.714 -4.747 70.714 -4.085 Q70.714 -3.423 70.266 -2.955 Q69.819 -2.486 69.157 -2.486 Z"/></g></g></svg>