<svg xmlns="http://www.w3.org/2000/svg" version="1.1" width="3300" height="2000"><g id="Notes"><style>
    text {
      font-family: monospace;
      text-anchor: middle;
    }
    text.emphasis {
      font-weight:bold;
    }
    text.lanchor {
      text-anchor: start;
    }
  </style><rect height="2200" id="artboard" fill="white" width="3300" x="0" y="0"/><line id="" style="fill:none;stroke:black;stroke-width:0.5;" x1="263" x2="3036" y1="292" y2="292"/><text class="lanchor emphasis" transform="matrix(1 0 0 1 263 322)">Weight/Scale Variations</text><text transform="matrix(1 0 0 1 559.711 322)">Ultralight</text><text transform="matrix(1 0 0 1 856.422 322)">Thin</text><text transform="matrix(1 0 0 1 1153.13 322)">Light</text><text transform="matrix(1 0 0 1 1449.84 322)">Regular</text><text transform="matrix(1 0 0 1 1746.56 322)">Medium</text><text transform="matrix(1 0 0 1 2043.27 322)">Semibold</text><text transform="matrix(1 0 0 1 2339.98 322)">Bold</text><text transform="matrix(1 0 0 1 2636.69 322)">Heavy</text><text transform="matrix(1 0 0 1 2933.4 322)">Black</text><text id="template-version" style="text-anchor: end;" transform="matrix(1 0 0 1 3036 1933)">Template v.1.0</text><text class="lanchor" transform="matrix(1 0 0 1 263 726)">Small</text><text class="lanchor" transform="matrix(1 0 0 1 263 1156)">Medium</text><text class="lanchor" transform="matrix(1 0 0 1 263 1586)">Large</text></g><g id="Guides"><g id="H-reference" style="fill:#27AAE1;stroke:none;" transform="matrix(1 0 0 1 339 696)"><path d="M 54.9316 0 L 57.666 0 L 30.5664 -70.459 L 28.0762 -70.459 L 0.976562 0 L 3.66211 0 L 12.9395 -24.4629 L 45.7031 -24.4629 Z M 29.1992 -67.0898 L 29.4434 -67.0898 L 44.8242 -26.709 L 13.8184 -26.709 Z"/></g><line id="Baseline-S" style="fill:none;stroke:#27AAE1;opacity:1;stroke-width:0.577;" x1="263" x2="3036" y1="696" y2="696"/><line id="Capline-S" style="fill:none;stroke:#27AAE1;opacity:1;stroke-width:0.577;" x1="263" x2="3036" y1="625.541" y2="625.541"/><g id="H-reference" style="fill:#27AAE1;stroke:none;" transform="matrix(1 0 0 1 339 1126)"><path d="M 54.9316 0 L 57.666 0 L 30.5664 -70.459 L 28.0762 -70.459 L 0.976562 0 L 3.66211 0 L 12.9395 -24.4629 L 45.7031 -24.4629 Z M 29.1992 -67.0898 L 29.4434 -67.0898 L 44.8242 -26.709 L 13.8184 -26.709 Z"/></g><line id="Baseline-M" style="fill:none;stroke:#27AAE1;opacity:1;stroke-width:0.577;" x1="263" x2="3036" y1="1126" y2="1126"/><line id="Capline-M" style="fill:none;stroke:#27AAE1;opacity:1;stroke-width:0.577;" x1="263" x2="3036" y1="1055.54" y2="1055.54"/><g id="H-reference" style="fill:#27AAE1;stroke:none;" transform="matrix(1 0 0 1 339 1556)"><path d="M 54.9316 0 L 57.666 0 L 30.5664 -70.459 L 28.0762 -70.459 L 0.976562 0 L 3.66211 0 L 12.9395 -24.4629 L 45.7031 -24.4629 Z M 29.1992 -67.0898 L 29.4434 -67.0898 L 44.8242 -26.709 L 13.8184 -26.709 Z"/></g><line id="Baseline-L" style="fill:none;stroke:#27AAE1;opacity:1;stroke-width:0.577;" x1="263" x2="3036" y1="1556" y2="1556"/><line id="Capline-L" style="fill:none;stroke:#27AAE1;opacity:1;stroke-width:0.577;" x1="263" x2="3036" y1="1485.54" y2="1485.54"/><rect height="119.336" id="left-margin" style="fill:darkred;stroke:none;opacity:0.4;" width="12.4512" x="1394.06" y="1030.79"/><rect height="119.336" id="right-margin" style="fill:darkgreen;stroke:none;opacity:0.4;" width="12.4512" x="1502.5112" y="1030.79"/><rect x="1406.5112" y="1045" width="96" height="96" fill="none" stroke="blue" stroke-dasharray="5"/><rect x="1394.06" y="1030.79" width="120.9024" height="119.336" fill="none" stroke="blue"/></g><g id="Symbols"><g id="Bold-L" transform="matrix(1 0 0 1 2266 1556)"><path d="M8.869 20.401 V-91.022 H146.093 V-28.135 H130.774 V-75.704 H24.026 V5.244 H97.073 V20.401 H8.869 Z M91.751 -16.041  69.338 -38.455 V-22.652 H55.954 V-61.352 H94.654 V-47.969 H78.69 L101.104 -25.555 L91.751 -16.041 Z M126.316 20.563 Q118.301 20.563 112.524 14.867 Q106.748 9.171 106.748 0.999 Q106.748 -7.172 112.544 -12.816 Q118.341 -18.46 126.472 -18.46 Q134.536 -18.46 140.314 -12.831 Q146.093 -7.202 146.093 1.023 Q146.093 9.114 140.279 14.838 Q134.465 20.563 126.316 20.563 Z"/></g><g id="Semibold-L" transform="matrix(1 0 0 1 1970.27 1556)"><path d="M10.621 18.649 V-89.2 H144.27 V-28.415 H131.405 V-76.335 H23.395 V5.875 H96.932 V18.649 H10.621 Z M91.471 -18.214  68.636 -41.049 V-24.896 H56.865 V-61.212 H93.182 V-49.441 H76.867 L99.702 -26.607 L91.471 -18.214 Z M125.38 18.74 Q117.694 18.74 112.151 13.242 Q106.607 7.744 106.607 -0.065 Q106.607 -7.874 112.162 -13.307 Q117.717 -18.74 125.503 -18.74 Q133.251 -18.74 138.76 -13.31 Q144.27 -7.879 144.27 -0.016 Q144.27 7.712 138.735 13.226 Q133.199 18.74 125.38 18.74 Z"/></g><g id="Medium-L" transform="matrix(1 0 0 1 1674.31 1556)"><path d="M11.936 17.334 V-87.833 H142.903 V-28.626 H131.878 V-76.808 H22.922 V6.348 H96.827 V17.334 H11.936 Z M91.261 -19.845  68.111 -42.995 V-26.579 H57.549 V-61.107 H92.077 V-50.545 H75.5 L98.65 -27.395 L91.261 -19.845 Z M124.677 17.373 Q117.24 17.373 111.871 12.023 Q106.502 6.674 106.502 -0.863 Q106.502 -8.399 111.876 -13.675 Q117.249 -18.951 124.776 -18.951 Q132.287 -18.951 137.595 -13.668 Q142.903 -8.386 142.903 -0.796 Q142.903 6.66 137.576 12.016 Q132.25 17.373 124.677 17.373 Z"/></g><g id="Regular-L" transform="matrix(1 0 0 1 1378.56 1556)"><path d="M12.9 16.37 V-86.83 H141.9 V-28.78 H132.225 V-77.155 H22.575 V6.695 H96.75 V16.37 H12.9 Z M91.106 -21.04  67.725 -44.421 V-27.812 H58.05 V-61.03 H91.267 V-51.355 H74.498 L97.879 -27.974 L91.106 -21.04 Z M124.163 16.37 Q116.906 16.37 111.666 11.129 Q106.425 5.889 106.425 -1.448 Q106.425 -8.785 111.666 -13.945 Q116.906 -19.105 124.243 -19.105 Q131.58 -19.105 136.74 -13.932 Q141.9 -8.758 141.9 -1.367 Q141.9 5.889 136.727 11.129 Q131.553 16.37 124.163 16.37 Z"/></g><g id="Light-L" transform="matrix(1 0 0 1 1082.77 1556)"><path d="M16.125 13.145 V-83.605 H138.675 V-31.385 H131.357 V-76.287 H23.443 V5.827 H94.145 V13.145 H16.125 Z M93.091 -20.73  66.981 -46.84 V-28.557 H59.663 V-59.417 H90.523 V-52.099 H72.079 L98.251 -25.989 L93.091 -20.73 Z M122.36 13.145 Q115.697 13.145 110.875 8.319 Q106.053 3.494 106.053 -3.25 Q106.053 -9.995 110.878 -14.736 Q115.704 -19.477 122.448 -19.477 Q129.192 -19.477 133.933 -14.719 Q138.675 -9.96 138.675 -3.163 Q138.675 3.501 133.916 8.323 Q129.158 13.145 122.36 13.145 Z"/></g><g id="Thin-L" transform="matrix(1 0 0 1 787.282 1556)"><path d="M19.35 9.92 V-80.38 H135.45 V-33.99 H130.488 V-75.418 H24.312 V4.958 H91.54 V9.92 H19.35 Z M95.075 -20.42  66.237 -49.259 V-29.301 H61.275 V-57.805 H89.779 V-52.843 H69.66 L98.623 -24.005 L95.075 -20.42 Z M120.558 9.92 Q114.487 9.92 110.084 5.509 Q105.681 1.099 105.681 -5.053 Q105.681 -11.204 110.092 -15.527 Q114.502 -19.849 120.653 -19.849 Q126.805 -19.849 131.127 -15.506 Q135.45 -11.162 135.45 -4.957 Q135.45 1.113 131.107 5.517 Q126.763 9.92 120.558 9.92 Z"/></g><g id="Ultralight-L" transform="matrix(1 0 0 1 491.205 1556)"><path d="M21.285 7.985 V-78.445 H133.515 V-35.552 H129.968 V-74.897 H24.832 V4.438 H89.978 V7.985 H21.285 Z M96.266 -20.234  65.79 -50.71 V-29.747 H62.242 V-56.837 H89.332 V-53.29 H68.209 L98.846 -22.814 L96.266 -20.234 Z M119.477 7.985 Q113.762 7.985 109.61 3.823 Q105.457 -0.338 105.457 -6.134 Q105.457 -11.929 109.619 -16.001 Q113.781 -20.072 119.576 -20.072 Q125.372 -20.072 129.443 -15.978 Q133.515 -11.884 133.515 -6.034 Q133.515 -0.319 129.421 3.833 Q125.326 7.985 119.477 7.985 Z"/></g><g id="Bold-M" transform="matrix(1 0 0 1 2281.8 1126)"><path d="M5.75 9.02 V-79.48 H114.25 V-34.605 H98.5 V-63.73 H21.5 V-6.73 H70.375 V9.02 H5.75 Z M70.375 -18.105  56.625 -31.98 V-21.605 H42.75 V-55.605 H76.75 V-41.73 H66.25 L80.125 -27.98 L70.375 -18.105 Z M97.228 9.145 Q90.206 9.145 85.29 4.23 Q80.375 -0.686 80.375 -7.708 Q80.375 -14.73 85.29 -19.667 Q90.206 -24.605 97.228 -24.605 Q104.25 -24.605 109.25 -19.689 Q114.25 -14.774 114.25 -7.752 Q114.25 -0.73 109.25 4.208 Q104.25 9.145 97.228 9.145 Z"/></g><g id="Semibold-M" transform="matrix(1 0 0 1 1985.97 1126)"><path d="M7.598 7.172 V-77.632 H112.402 V-34.877 H99.152 V-64.382 H20.848 V-6.078 H70.212 V7.172 H7.598 Z M70.103 -20.387  55.919 -34.643 V-23.942 H43.728 V-55.442 H75.228 V-43.252 H64.402 L78.658 -29.067 L70.103 -20.387 Z M96.259 7.243 Q89.573 7.243 84.892 2.563 Q80.212 -2.118 80.212 -8.804 Q80.212 -15.491 84.892 -20.184 Q89.573 -24.877 96.259 -24.877 Q102.946 -24.877 107.674 -20.196 Q112.402 -15.516 112.402 -8.829 Q112.402 -2.143 107.674 2.55 Q102.946 7.243 96.259 7.243 Z"/></g><g id="Medium-M" transform="matrix(1 0 0 1 1689.91 1126)"><path d="M8.984 5.786 V-76.246 H111.016 V-35.08 H99.641 V-64.871 H20.359 V-5.589 H70.09 V5.786 H8.984 Z M69.9 -22.099  55.389 -36.64 V-25.695 H44.462 V-55.32 H74.087 V-44.393 H63.016 L77.557 -29.882 L69.9 -22.099 Z M95.533 5.816 Q89.098 5.816 84.594 1.312 Q80.09 -3.192 80.09 -9.627 Q80.09 -16.061 84.594 -20.571 Q89.098 -25.08 95.533 -25.08 Q101.967 -25.08 106.492 -20.576 Q111.016 -16.072 111.016 -9.637 Q111.016 -3.203 106.492 1.307 Q101.967 5.816 95.533 5.816 Z"/></g><g id="Regular-M" transform="matrix(1 0 0 1 1394.06 1126)"><path d="M10 4.77 V-75.23 H110 V-35.23 H100 V-65.23 H20 V-5.23 H70 V4.77 H10 Z M69.75 -23.355  55 -38.105 V-26.98 H45 V-55.23 H73.25 V-45.23 H62 L76.75 -30.48 L69.75 -23.355 Z M95 4.77 Q88.75 4.77 84.375 0.395 Q80 -3.98 80 -10.23 Q80 -16.48 84.375 -20.855 Q88.75 -25.23 95 -25.23 Q101.25 -25.23 105.625 -20.855 Q110 -16.48 110 -10.23 Q110 -3.98 105.625 0.395 Q101.25 4.77 95 4.77 Z"/></g><g id="Light-M" transform="matrix(1 0 0 1 1098.18 1126)"><path d="M12.5 2.27 V-72.73 H107.5 V-35.903 H100 V-65.23 H20 V-5.23 H69.327 V2.27 H12.5 Z M71.529 -23.355  53.75 -41.134 V-28.23 H46.25 V-53.98 H72 V-46.48 H58.971 L76.798 -28.701 L71.529 -23.355 Z M93.942 2.27 Q88.293 2.27 84.339 -1.684 Q80.385 -5.639 80.385 -11.288 Q80.385 -16.937 84.339 -20.891 Q88.293 -24.845 93.942 -24.845 Q99.591 -24.845 103.546 -20.891 Q107.5 -16.937 107.5 -11.288 Q107.5 -5.639 103.546 -1.684 Q99.591 2.27 93.942 2.27 Z"/></g><g id="Thin-M" transform="matrix(1 0 0 1 802.565 1126)"><path d="M15 -0.23 V-70.23 H105 V-36.576 H100 V-65.23 H20 V-5.23 H68.654 V-0.23 H15 Z M73.308 -23.355  52.5 -44.163 V-29.48 H47.5 V-52.73 H70.75 V-47.73 H55.942 L76.846 -26.922 L73.308 -23.355 Z M92.885 -0.23 Q87.837 -0.23 84.303 -3.764 Q80.769 -7.297 80.769 -12.345 Q80.769 -17.393 84.303 -20.927 Q87.837 -24.461 92.885 -24.461 Q97.933 -24.461 101.466 -20.927 Q105 -17.393 105 -12.345 Q105 -7.297 101.466 -3.764 Q97.933 -0.23 92.885 -0.23 Z"/></g><g id="Ultralight-M" transform="matrix(1 0 0 1 506.415 1126)"><path d="M16.5 -1.73 V-68.73 H103.5 V-36.98 H100 V-65.23 H20 V-5.23 H68.25 V-1.73 H16.5 Z M74.375 -23.355  51.75 -45.98 V-30.23 H48.25 V-51.98 H70 V-48.48 H54.125 L76.875 -25.855 L74.375 -23.355 Z M92.25 -1.73 Q87.562 -1.73 84.281 -5.011 Q81 -8.292 81 -12.98 Q81 -17.667 84.281 -20.949 Q87.562 -24.23 92.25 -24.23 Q96.938 -24.23 100.219 -20.949 Q103.5 -17.667 103.5 -12.98 Q103.5 -8.292 100.219 -5.011 Q96.938 -1.73 92.25 -1.73 Z"/></g><g id="Bold-S" transform="matrix(1 0 0 1 2294.23 696)"><path d="M6.115 -3.473 V-66.987 H88.565 V-34.737 H76.928 V-55.349 H17.753 V-15.11 H57.104 V-3.473 H6.115 Z M58.287 -22.705  48.622 -32.468 V-25.072 H38.464 V-49.728 H63.096 V-39.577 H55.685 L65.487 -29.904 L58.287 -22.705 Z M76.318 -3.374 Q71.271 -3.374 67.738 -6.907 Q64.205 -10.44 64.205 -15.488 Q64.205 -20.535 67.738 -24.085 Q71.271 -27.636 76.318 -27.636 Q81.366 -27.636 84.965 -24.103 Q88.565 -20.57 88.565 -15.522 Q88.565 -10.475 84.965 -6.925 Q81.366 -3.374 76.318 -3.374 Z"/></g><g id="Semibold-S" transform="matrix(1 0 0 1 1998.1 696)"><path d="M7.573 -4.931 V-65.529 H87.107 V-34.951 H77.442 V-55.864 H17.238 V-14.596 H56.975 V-4.931 H7.573 Z M58.073 -24.506  48.065 -34.57 V-26.915 H39.236 V-49.599 H61.895 V-40.778 H54.227 L64.329 -30.762 L58.073 -24.506 Z M75.554 -4.875 Q70.772 -4.875 67.424 -8.223 Q64.076 -11.57 64.076 -16.353 Q64.076 -21.135 67.424 -24.493 Q70.772 -27.85 75.554 -27.85 Q80.337 -27.85 83.722 -24.503 Q87.107 -21.155 87.107 -16.372 Q87.107 -11.59 83.722 -8.232 Q80.337 -4.875 75.554 -4.875 Z"/></g><g id="Medium-S" transform="matrix(1 0 0 1 1701.85 696)"><path d="M8.666 -6.024 V-64.436 H86.014 V-35.112 H77.828 V-56.25 H16.852 V-14.21 H56.879 V-6.024 H8.666 Z M57.912 -25.856  47.647 -36.145 V-28.298 H39.815 V-49.503 H60.995 V-41.679 H53.134 L63.461 -31.405 L57.912 -25.856 Z M74.981 -6.001 Q70.397 -6.001 67.188 -9.209 Q63.98 -12.418 63.98 -17.002 Q63.98 -21.585 67.188 -24.798 Q70.397 -28.011 74.981 -28.011 Q79.565 -28.011 82.789 -24.802 Q86.014 -21.594 86.014 -17.01 Q86.014 -12.426 82.789 -9.213 Q79.565 -6.001 74.981 -6.001 Z"/></g><g id="Regular-S" transform="matrix(1 0 0 1 1405.73 696)"><path d="M9.468 -6.826 V-63.634 H85.212 V-35.23 H78.111 V-56.533 H16.569 V-13.927 H56.808 V-6.826 H9.468 Z M57.794 -26.847  47.34 -37.301 V-29.312 H40.239 V-49.432 H60.334 V-42.339 H52.332 L62.824 -31.877 L57.794 -26.847 Z M74.561 -6.826 Q70.122 -6.826 67.016 -9.933 Q63.909 -13.039 63.909 -17.477 Q63.909 -21.916 67.016 -25.022 Q70.122 -28.129 74.561 -28.129 Q78.999 -28.129 82.105 -25.022 Q85.212 -21.916 85.212 -17.477 Q85.212 -13.039 82.105 -9.933 Q78.999 -6.826 74.561 -6.826 Z"/></g><g id="Light-S" transform="matrix(1 0 0 1 1109.75 696)"><path d="M11.441 -8.799 V-61.661 H83.239 V-35.761 H78.111 V-56.533 H16.569 V-13.927 H56.277 V-8.799 H11.441 Z M59.198 -26.847  46.354 -39.691 V-30.299 H41.225 V-48.446 H59.348 V-43.325 H49.942 L62.862 -30.473 L59.198 -26.847 Z M73.726 -8.799 Q69.762 -8.799 66.987 -11.573 Q64.212 -14.348 64.212 -18.312 Q64.212 -22.276 66.987 -25.051 Q69.762 -27.826 73.726 -27.826 Q77.69 -27.826 80.465 -25.051 Q83.239 -22.276 83.239 -18.312 Q83.239 -14.348 80.465 -11.573 Q77.69 -8.799 73.726 -8.799 Z"/></g><g id="Thin-S" transform="matrix(1 0 0 1 814.015 696)"><path d="M13.413 -10.771 V-59.689 H81.267 V-36.292 H78.111 V-56.533 H16.569 V-13.927 H55.746 V-10.771 H13.413 Z M60.601 -26.847  45.367 -42.081 V-31.285 H42.212 V-47.459 H58.362 V-44.311 H47.552 L62.9 -29.07 L60.601 -26.847 Z M72.891 -10.771 Q69.402 -10.771 66.959 -13.214 Q64.516 -15.657 64.516 -19.147 Q64.516 -22.636 66.959 -25.079 Q69.402 -27.522 72.891 -27.522 Q76.381 -27.522 78.824 -25.079 Q81.267 -22.636 81.267 -19.147 Q81.267 -15.657 78.824 -13.214 Q76.381 -10.771 72.891 -10.771 Z"/></g><g id="Ultralight-S" transform="matrix(1 0 0 1 517.792 696)"><path d="M14.597 -11.954 V-58.505 H80.084 V-36.611 H78.111 V-56.533 H16.569 V-13.927 H55.427 V-11.954 H14.597 Z M61.443 -26.847  44.776 -43.514 V-31.877 H42.803 V-46.868 H57.77 V-44.903 H46.118 L62.923 -28.228 L61.443 -26.847 Z M72.391 -11.954 Q69.185 -11.954 66.942 -14.198 Q64.698 -16.442 64.698 -19.647 Q64.698 -22.853 66.942 -25.096 Q69.185 -27.34 72.391 -27.34 Q75.596 -27.34 77.84 -25.096 Q80.084 -22.853 80.084 -19.647 Q80.084 -16.442 77.84 -14.198 Q75.596 -11.954 72.391 -11.954 Z"/></g></g></svg>