<svg xmlns="http://www.w3.org/2000/svg" version="1.1" width="3300" height="2000"><g id="Notes"><style>
    text {
      font-family: monospace;
      text-anchor: middle;
    }
    text.emphasis {
      font-weight:bold;
    }
    text.lanchor {
      text-anchor: start;
    }
  </style><rect height="2200" id="artboard" fill="white" width="3300" x="0" y="0"/><line id="" style="fill:none;stroke:black;stroke-width:0.5;" x1="263" x2="3036" y1="292" y2="292"/><text class="lanchor emphasis" transform="matrix(1 0 0 1 263 322)">Weight/Scale Variations</text><text transform="matrix(1 0 0 1 559.711 322)">Ultralight</text><text transform="matrix(1 0 0 1 856.422 322)">Thin</text><text transform="matrix(1 0 0 1 1153.13 322)">Light</text><text transform="matrix(1 0 0 1 1449.84 322)">Regular</text><text transform="matrix(1 0 0 1 1746.56 322)">Medium</text><text transform="matrix(1 0 0 1 2043.27 322)">Semibold</text><text transform="matrix(1 0 0 1 2339.98 322)">Bold</text><text transform="matrix(1 0 0 1 2636.69 322)">Heavy</text><text transform="matrix(1 0 0 1 2933.4 322)">Black</text><text id="template-version" style="text-anchor: end;" transform="matrix(1 0 0 1 3036 1933)">Template v.1.0</text><text class="lanchor" transform="matrix(1 0 0 1 263 726)">Small</text><text class="lanchor" transform="matrix(1 0 0 1 263 1156)">Medium</text><text class="lanchor" transform="matrix(1 0 0 1 263 1586)">Large</text></g><g id="Guides"><g id="H-reference" style="fill:#27AAE1;stroke:none;" transform="matrix(1 0 0 1 339 696)"><path d="M 54.9316 0 L 57.666 0 L 30.5664 -70.459 L 28.0762 -70.459 L 0.976562 0 L 3.66211 0 L 12.9395 -24.4629 L 45.7031 -24.4629 Z M 29.1992 -67.0898 L 29.4434 -67.0898 L 44.8242 -26.709 L 13.8184 -26.709 Z"/></g><line id="Baseline-S" style="fill:none;stroke:#27AAE1;opacity:1;stroke-width:0.577;" x1="263" x2="3036" y1="696" y2="696"/><line id="Capline-S" style="fill:none;stroke:#27AAE1;opacity:1;stroke-width:0.577;" x1="263" x2="3036" y1="625.541" y2="625.541"/><g id="H-reference" style="fill:#27AAE1;stroke:none;" transform="matrix(1 0 0 1 339 1126)"><path d="M 54.9316 0 L 57.666 0 L 30.5664 -70.459 L 28.0762 -70.459 L 0.976562 0 L 3.66211 0 L 12.9395 -24.4629 L 45.7031 -24.4629 Z M 29.1992 -67.0898 L 29.4434 -67.0898 L 44.8242 -26.709 L 13.8184 -26.709 Z"/></g><line id="Baseline-M" style="fill:none;stroke:#27AAE1;opacity:1;stroke-width:0.577;" x1="263" x2="3036" y1="1126" y2="1126"/><line id="Capline-M" style="fill:none;stroke:#27AAE1;opacity:1;stroke-width:0.577;" x1="263" x2="3036" y1="1055.54" y2="1055.54"/><g id="H-reference" style="fill:#27AAE1;stroke:none;" transform="matrix(1 0 0 1 339 1556)"><path d="M 54.9316 0 L 57.666 0 L 30.5664 -70.459 L 28.0762 -70.459 L 0.976562 0 L 3.66211 0 L 12.9395 -24.4629 L 45.7031 -24.4629 Z M 29.1992 -67.0898 L 29.4434 -67.0898 L 44.8242 -26.709 L 13.8184 -26.709 Z"/></g><line id="Baseline-L" style="fill:none;stroke:#27AAE1;opacity:1;stroke-width:0.577;" x1="263" x2="3036" y1="1556" y2="1556"/><line id="Capline-L" style="fill:none;stroke:#27AAE1;opacity:1;stroke-width:0.577;" x1="263" x2="3036" y1="1485.54" y2="1485.54"/><rect height="119.336" id="left-margin" style="fill:darkred;stroke:none;opacity:0.4;" width="12.4512" x="1394.06" y="1030.79"/><rect height="119.336" id="right-margin" style="fill:darkgreen;stroke:none;opacity:0.4;" width="12.4512" x="1502.5112" y="1030.79"/><rect x="1406.5112" y="1045" width="96" height="96" fill="none" stroke="blue" stroke-dasharray="5"/><rect x="1394.06" y="1030.79" width="120.9024" height="119.336" fill="none" stroke="blue"/></g><g id="Symbols"><g id="Bold-L" transform="matrix(1 0 0 1 2266 1556)"><path d="M57.647 -31.924 Q61.114 -31.924 63.21 -34.222 Q65.306 -36.52 66.919 -39.422 L54.744 -51.597 V-35.069 Q54.744 -33.779 55.591 -32.852 Q56.438 -31.924 57.647 -31.924 Z M17.093 27.416 Q13.948 27.416 11.812 25.279 Q9.675 23.143 9.675 19.998 V3.148 Q9.675 -3.141 13.908 -7.455 Q18.141 -11.768 24.429 -11.768 H94.815 L85.059 -21.524 H37.652 Q34.508 -21.524 32.411 -23.62 Q30.315 -25.716 30.315 -28.861 V-76.187 L8.224 -98.117 Q6.45 -99.811 6.652 -102.068 Q6.853 -104.326 8.546 -106.099 Q10.32 -107.792 12.537 -107.792 Q14.754 -107.792 16.528 -106.099 L142.868 20.24 Q144.399 21.853 144.44 24.191 Q144.48 26.529 142.787 28.061 Q141.013 29.834 138.836 29.754 Q136.659 29.673 134.966 27.899 L134.241 27.416 H17.093 Z M111.988 -24.104  90.784 -45.389 Q94.573 -45.711 97.314 -48.775 Q100.056 -51.839 100.056 -55.789 Q100.056 -60.385 96.75 -63.771 Q93.444 -67.157 88.849 -67.157 Q84.737 -67.157 81.794 -64.416 Q78.851 -61.675 78.69 -57.886 L38.297 -98.198 Q34.669 -101.826 36.644 -106.301 Q38.619 -110.776 43.618 -110.776 H109.972 Q116.019 -110.776 120.373 -106.382 Q124.727 -101.987 124.727 -96.021 V-29.425 Q124.727 -24.346 120.172 -22.37 Q115.616 -20.395 111.988 -24.104 Z"/></g><g id="Semibold-L" transform="matrix(1 0 0 1 1970.27 1556)"><path d="M56.876 -31.995 Q60.553 -31.995 62.93 -34.362 Q65.306 -36.73 66.989 -39.773 L53.763 -52.999 V-35.279 Q53.763 -33.919 54.68 -32.957 Q55.596 -31.995 56.876 -31.995 Z M17.653 24.401 Q15 24.401 13.214 22.615 Q11.428 20.829 11.428 18.175 V2.517 Q11.428 -2.721 14.994 -6.333 Q18.561 -9.945 23.798 -9.945 H96.988 L86.041 -20.893 H37.792 Q35.138 -20.893 33.393 -22.638 Q31.647 -24.384 31.647 -27.038 V-75.206 L8.294 -98.468 Q6.66 -100.021 6.827 -102.138 Q6.993 -104.255 8.546 -105.889 Q10.18 -107.442 12.257 -107.442 Q14.334 -107.442 15.967 -105.889 L140.624 18.768 Q142.086 20.31 142.091 22.473 Q142.096 24.636 140.544 26.098 Q138.91 27.731 136.838 27.651 Q134.767 27.57 133.214 25.936 L131.507 24.401 H17.653 Z M112.689 -22.632  90.083 -45.248 Q94.223 -45.431 97.209 -48.6 Q100.196 -51.769 100.196 -56 Q100.196 -60.595 96.89 -63.947 Q93.585 -67.298 88.989 -67.298 Q84.667 -67.298 81.584 -64.311 Q78.501 -61.324 78.41 -57.185 L36.965 -98.549 Q33.968 -101.546 35.593 -105.319 Q37.217 -109.093 41.375 -109.093 H110.954 Q115.949 -109.093 119.637 -105.4 Q123.325 -101.707 123.325 -96.722 V-27.041 Q123.325 -22.803 119.506 -21.179 Q115.686 -19.554 112.689 -22.632 Z"/></g><g id="Medium-L" transform="matrix(1 0 0 1 1674.31 1556)"><path d="M56.297 -32.047 Q60.132 -32.047 62.719 -34.468 Q65.306 -36.888 67.041 -40.036 L53.027 -54.051 V-35.437 Q53.027 -34.024 53.996 -33.036 Q54.965 -32.047 56.297 -32.047 Z M18.074 22.14 Q15.788 22.14 14.265 20.617 Q12.742 19.094 12.742 16.808 V2.043 Q12.742 -2.405 15.809 -5.492 Q18.877 -8.578 23.325 -8.578 H98.618 L86.777 -20.42 H37.897 Q35.612 -20.42 34.129 -21.902 Q32.646 -23.385 32.646 -25.671 V-74.47 L8.346 -98.731 Q6.818 -100.179 6.958 -102.191 Q7.099 -104.203 8.546 -105.731 Q10.075 -107.179 12.047 -107.179 Q14.018 -107.179 15.547 -105.731 L138.941 17.664 Q140.351 19.153 140.33 21.185 Q140.309 23.216 138.861 24.625 Q137.332 26.154 135.34 26.073 Q133.347 25.992 131.899 24.464 L129.456 22.14 H18.074 Z M113.215 -21.527  89.557 -45.143 Q93.96 -45.221 97.13 -48.468 Q100.301 -51.716 100.301 -56.158 Q100.301 -60.753 96.995 -64.078 Q93.69 -67.403 89.094 -67.403 Q84.614 -67.403 81.426 -64.232 Q78.238 -61.062 78.199 -56.659 L35.966 -98.812 Q33.442 -101.336 34.804 -104.583 Q36.166 -107.831 39.692 -107.831 H111.69 Q115.897 -107.831 119.085 -104.664 Q122.273 -101.497 122.273 -97.248 V-25.254 Q122.273 -21.646 119.006 -20.285 Q115.739 -18.923 113.215 -21.527 Z"/></g><g id="Regular-L" transform="matrix(1 0 0 1 1378.56 1556)"><path d="M55.873 -32.086 Q59.824 -32.086 62.565 -34.545 Q65.306 -37.004 67.08 -40.229 L52.487 -54.822 V-35.552 Q52.487 -34.101 53.495 -33.093 Q54.503 -32.086 55.873 -32.086 Z M18.383 20.482 Q16.367 20.482 15.037 19.152 Q13.706 17.821 13.706 15.806 V1.696 Q13.706 -2.174 16.407 -4.875 Q19.108 -7.576 22.978 -7.576 H99.814 L87.317 -20.072 H37.974 Q35.959 -20.072 34.669 -21.362 Q33.379 -22.652 33.379 -24.668 V-73.93 L8.385 -98.924 Q6.934 -100.294 7.055 -102.229 Q7.176 -104.164 8.546 -105.616 Q9.998 -106.986 11.892 -106.986 Q13.787 -106.986 15.238 -105.616 L137.708 16.854 Q139.078 18.305 139.038 20.24 Q138.998 22.175 137.627 23.546 Q136.176 24.997 134.241 24.916 Q132.306 24.836 130.935 23.384 L127.952 20.482 H18.383 Z M113.601 -20.717  89.171 -45.066 Q93.767 -45.066 97.073 -48.372 Q100.378 -51.677 100.378 -56.273 Q100.378 -60.869 97.073 -64.174 Q93.767 -67.48 89.171 -67.48 Q84.576 -67.48 81.31 -64.174 Q78.045 -60.869 78.045 -56.273 L35.233 -99.004 Q33.056 -101.181 34.225 -104.043 Q35.394 -106.906 38.458 -106.906 H112.23 Q115.858 -106.906 118.68 -104.124 Q121.502 -101.343 121.502 -97.634 V-23.942 Q121.502 -20.798 118.64 -19.629 Q115.778 -18.46 113.601 -20.717 Z"/></g><g id="Light-L" transform="matrix(1 0 0 1 1082.77 1556)"><path d="M56.276 -33.419 Q60.661 -33.419 63.232 -36.545 Q65.802 -39.671 67.235 -43.268 L52.89 -57.551 V-36.886 Q52.89 -35.373 53.882 -34.396 Q54.875 -33.419 56.276 -33.419 Z M21.205 17.598 Q19.189 17.598 17.905 16.283 Q16.621 14.968 16.621 13.015 V2.534 Q16.621 -1.274 19.276 -3.898 Q21.93 -6.521 25.676 -6.521 H104 L90.976 -19.545 H40.176 Q38.161 -19.545 36.933 -20.804 Q35.705 -22.063 35.705 -24.017 V-74.736 L11.176 -99.265 Q10.128 -100.232 10.202 -101.733 Q10.277 -103.234 11.337 -104.375 Q12.385 -105.405 13.861 -105.405 Q15.337 -105.405 16.448 -104.375 L138.359 17.567 Q139.357 18.677 139.379 20.162 Q139.401 21.648 138.433 22.677 Q137.292 23.818 135.822 23.738 Q134.352 23.657 133.292 22.578 L128.107 17.598 H21.205 Z M111.492 -23.974  89.419 -45.997 Q93.426 -46.121 96.235 -48.992 Q99.045 -51.864 99.045 -55.901 Q99.045 -59.938 96.111 -62.841 Q93.178 -65.743 89.109 -65.743 Q85.134 -65.743 82.272 -62.965 Q79.409 -60.187 79.316 -56.242 L39.42 -96.306 Q37.274 -98.39 38.396 -101.175 Q39.519 -103.959 42.521 -103.959 H110.152 Q113.749 -103.959 116.478 -101.271 Q119.207 -98.582 119.207 -94.905 V-27.137 Q119.207 -23.961 116.422 -22.839 Q113.638 -21.716 111.492 -23.974 Z"/></g><g id="Thin-L" transform="matrix(1 0 0 1 787.282 1556)"><path d="M56.679 -34.752 Q61.498 -34.752 63.898 -38.545 Q66.299 -42.337 67.39 -46.307 L53.293 -60.28 V-38.219 Q53.293 -36.644 54.27 -35.698 Q55.247 -34.752 56.679 -34.752 Z M24.026 14.714 Q22.011 14.714 20.773 13.415 Q19.536 12.116 19.536 10.224 V3.371 Q19.536 -0.375 22.144 -2.921 Q24.752 -5.467 28.374 -5.467 H108.186 L94.635 -19.018 H42.378 Q40.362 -19.018 39.196 -20.246 Q38.03 -21.474 38.03 -23.366 V-75.542 L13.967 -99.606 Q13.322 -100.17 13.35 -101.237 Q13.377 -102.304 14.128 -103.135 Q14.773 -103.823 15.83 -103.823 Q16.888 -103.823 17.657 -103.135 L139.01 18.28 Q139.636 19.049 139.72 20.085 Q139.804 21.121 139.239 21.809 Q138.408 22.64 137.404 22.56 Q136.399 22.479 135.648 21.772 L128.262 14.714 H24.026 Z M109.383 -27.229  89.667 -46.927 Q93.085 -47.175 95.398 -49.612 Q97.711 -52.05 97.711 -55.529 Q97.711 -59.008 95.15 -61.508 Q92.588 -64.007 89.047 -64.007 Q85.692 -64.007 83.233 -61.756 Q80.774 -59.504 80.588 -56.211 L43.606 -93.609 Q41.491 -95.6 42.567 -98.307 Q43.643 -101.014 46.583 -101.014 H108.075 Q111.641 -101.014 114.277 -98.418 Q116.913 -95.823 116.913 -92.176 V-30.33 Q116.913 -27.124 114.205 -26.048 Q111.498 -24.972 109.383 -27.229 Z"/></g><g id="Ultralight-L" transform="matrix(1 0 0 1 491.205 1556)"><path d="M56.921 -35.552 Q62.001 -35.552 64.298 -39.745 Q66.596 -43.937 67.483 -48.13 L53.535 -61.917 V-39.019 Q53.535 -37.407 54.503 -36.48 Q55.47 -35.552 56.921 -35.552 Z M25.719 12.984 Q23.704 12.984 22.494 11.694 Q21.285 10.404 21.285 8.549 V3.873 Q21.285 0.164 23.865 -2.335 Q26.445 -4.834 29.992 -4.834 H110.698 L96.831 -18.702 H43.699 Q41.683 -18.702 40.554 -19.911 Q39.426 -21.121 39.426 -22.975 V-76.026 L15.641 -99.811 Q15.238 -100.133 15.238 -100.939 Q15.238 -101.746 15.803 -102.391 Q16.206 -102.874 17.012 -102.874 Q17.818 -102.874 18.383 -102.391 L139.401 18.708 Q139.804 19.273 139.925 20.038 Q140.046 20.804 139.723 21.288 Q139.078 21.933 138.352 21.853 Q137.627 21.772 137.062 21.288 L128.355 12.984 H25.719 Z M108.118 -29.183  89.816 -47.485 Q92.88 -47.807 94.896 -49.984 Q96.911 -52.161 96.911 -55.306 Q96.911 -58.45 94.573 -60.707 Q92.235 -62.965 89.01 -62.965 Q86.027 -62.965 83.81 -61.03 Q81.593 -59.095 81.351 -56.192 L46.117 -91.99 Q44.021 -93.925 45.069 -96.586 Q46.117 -99.246 49.02 -99.246 H106.828 Q110.376 -99.246 112.956 -96.707 Q115.536 -94.167 115.536 -90.539 V-32.247 Q115.536 -29.022 112.875 -27.974 Q110.214 -26.926 108.118 -29.183 Z"/></g><g id="Bold-M" transform="matrix(1 0 0 1 2281.8 1126)"><path d="M46 -31.605 Q47.75 -31.605 49 -33.105 Q50.25 -34.605 51.312 -36.105 L43 -44.417 V-34.792 Q43 -33.542 43.875 -32.574 Q44.75 -31.605 46 -31.605 Z M14.562 14.395 Q11.5 14.395 9.25 12.145 Q7 9.895 7 6.833 V-5.417 Q7 -11.792 11.375 -16.167 Q15.75 -20.542 22.125 -20.542 H66.938 L62.812 -24.667 H30.25 Q27.188 -24.667 24.938 -26.917 Q22.688 -29.167 22.688 -32.23 V-64.73 L8.125 -79.292 Q6.375 -81.042 6.469 -83.324 Q6.562 -85.605 8.25 -87.292 Q10 -89.042 12.25 -89.042 Q14.5 -89.042 16.25 -87.292 L110.688 7.208 Q112.375 8.895 112.312 11.145 Q112.25 13.395 110.562 15.083 Q108.875 16.77 106.594 16.77 Q104.312 16.77 102.625 15.083 L102 14.395 H14.562 Z M84.438 -33.042  74.75 -42.855 Q76.688 -44.23 77.844 -46.355 Q79 -48.48 79 -50.917 Q79 -54.917 76.188 -57.761 Q73.375 -60.605 69.375 -60.605 Q66.938 -60.605 64.875 -59.449 Q62.812 -58.292 61.438 -56.355 L36.375 -81.48 Q32.75 -85.105 34.75 -89.73 Q36.75 -94.355 41.75 -94.355 H82.312 Q88.688 -94.355 93.062 -89.98 Q97.438 -85.605 97.438 -79.23 V-38.417 Q97.438 -33.417 92.75 -31.417 Q88.062 -29.417 84.438 -33.042 Z"/></g><g id="Semibold-M" transform="matrix(1 0 0 1 1985.97 1126)"><path d="M45.185 -31.659 Q47.206 -31.659 48.728 -33.241 Q50.25 -34.822 51.367 -36.485 L41.968 -45.885 V-35.01 Q41.968 -33.651 42.897 -32.655 Q43.826 -31.659 45.185 -31.659 Z M15.16 11.243 Q12.587 11.243 10.717 9.374 Q8.848 7.504 8.848 4.931 V-6.07 Q8.848 -11.358 12.516 -15.026 Q16.185 -18.695 21.473 -18.695 H69.166 L63.845 -24.015 H30.413 Q27.84 -24.015 25.97 -25.885 Q24.101 -27.754 24.101 -30.328 V-63.752 L8.179 -79.673 Q6.592 -81.26 6.632 -83.378 Q6.671 -85.496 8.25 -87.075 Q9.837 -88.662 11.951 -88.662 Q14.065 -88.662 15.652 -87.075 L108.405 5.686 Q109.984 7.265 109.948 9.352 Q109.913 11.439 108.334 13.017 Q106.756 14.596 104.637 14.596 Q102.519 14.596 100.94 13.017 L99.174 11.243 H15.16 Z M85.144 -31.521  74.043 -42.692 Q76.307 -43.904 77.735 -46.165 Q79.163 -48.426 79.163 -51.135 Q79.163 -55.135 76.35 -57.951 Q73.538 -60.768 69.538 -60.768 Q66.829 -60.768 64.603 -59.34 Q62.378 -57.912 61.166 -55.648 L35.016 -81.86 Q31.989 -84.888 33.636 -88.752 Q35.283 -92.616 39.468 -92.616 H83.345 Q88.633 -92.616 92.302 -88.947 Q95.97 -85.279 95.97 -79.991 V-35.972 Q95.97 -31.787 92.071 -30.14 Q88.171 -28.494 85.144 -31.521 Z"/></g><g id="Medium-M" transform="matrix(1 0 0 1 1689.91 1126)"><path d="M44.573 -31.7 Q46.799 -31.7 48.525 -33.343 Q50.25 -34.985 51.408 -36.771 L41.193 -46.985 V-35.173 Q41.193 -33.733 42.163 -32.716 Q43.133 -31.7 44.573 -31.7 Z M15.609 8.879 Q13.402 8.879 11.818 7.295 Q10.234 5.71 10.234 3.504 V-6.559 Q10.234 -11.032 13.372 -14.17 Q16.511 -17.309 20.984 -17.309 H70.837 L64.62 -23.526 H30.535 Q28.329 -23.526 26.744 -25.11 Q25.16 -26.695 25.16 -28.901 V-63.018 L8.22 -79.958 Q6.755 -81.423 6.754 -83.419 Q6.753 -85.415 8.25 -86.912 Q9.715 -88.377 11.727 -88.377 Q13.739 -88.377 15.204 -86.912 L106.693 4.545 Q108.19 6.042 108.175 8.006 Q108.16 9.971 106.663 11.468 Q105.166 12.966 103.17 12.966 Q101.174 12.966 99.677 11.468 L97.054 8.879 H15.609 Z M85.674 -30.379  73.514 -42.57 Q76.022 -43.659 77.653 -46.022 Q79.285 -48.385 79.285 -51.298 Q79.285 -55.298 76.473 -58.094 Q73.66 -60.89 69.66 -60.89 Q66.747 -60.89 64.4 -59.258 Q62.052 -57.627 60.962 -55.119 L33.997 -82.146 Q31.419 -84.725 32.8 -88.018 Q34.182 -91.311 37.755 -91.311 H84.12 Q88.592 -91.311 91.731 -88.173 Q94.87 -85.034 94.87 -80.561 V-34.138 Q94.87 -30.564 91.561 -29.182 Q88.253 -27.801 85.674 -30.379 Z"/></g><g id="Regular-M" transform="matrix(1 0 0 1 1394.06 1126)"><path d="M44.125 -31.73 Q46.5 -31.73 48.375 -33.417 Q50.25 -35.105 51.438 -36.98 L40.625 -47.792 V-35.292 Q40.625 -33.792 41.625 -32.761 Q42.625 -31.73 44.125 -31.73 Z M15.938 7.145 Q14 7.145 12.625 5.77 Q11.25 4.395 11.25 2.458 V-6.917 Q11.25 -10.792 14 -13.542 Q16.75 -16.292 20.625 -16.292 H72.062 L65.188 -23.167 H30.625 Q28.688 -23.167 27.312 -24.542 Q25.938 -25.917 25.938 -27.855 V-62.48 L8.25 -80.167 Q6.875 -81.542 6.844 -83.449 Q6.812 -85.355 8.25 -86.792 Q9.625 -88.167 11.562 -88.167 Q13.5 -88.167 14.875 -86.792 L105.438 3.708 Q106.875 5.145 106.875 7.02 Q106.875 8.895 105.438 10.333 Q104 11.77 102.094 11.77 Q100.188 11.77 98.75 10.333 L95.5 7.145 H15.938 Z M86.062 -29.542  73.125 -42.48 Q75.812 -43.48 77.594 -45.917 Q79.375 -48.355 79.375 -51.417 Q79.375 -55.417 76.562 -58.199 Q73.75 -60.98 69.75 -60.98 Q66.688 -60.98 64.25 -59.199 Q61.812 -57.417 60.812 -54.73 L33.25 -82.355 Q31 -84.605 32.188 -87.48 Q33.375 -90.355 36.5 -90.355 H84.688 Q88.562 -90.355 91.312 -87.605 Q94.062 -84.855 94.062 -80.98 V-32.792 Q94.062 -29.667 91.188 -28.48 Q88.312 -27.292 86.062 -29.542 Z"/></g><g id="Light-M" transform="matrix(1 0 0 1 1098.18 1126)"><path d="M44.245 -33.1 Q47.101 -33.1 48.916 -35.377 Q50.731 -37.653 51.702 -39.961 L41.034 -50.629 V-36.374 Q41.034 -34.97 41.95 -34.035 Q42.865 -33.1 44.245 -33.1 Z M17.789 4.957 Q15.995 4.957 14.752 3.715 Q13.51 2.472 13.51 0.679 V-6.22 Q13.51 -9.759 16.007 -12.256 Q18.505 -14.754 22.043 -14.754 H76.895 L68.938 -22.711 H32.092 Q30.298 -22.711 29.067 -23.941 Q27.837 -25.172 27.837 -26.965 V-63.826 L10.125 -81.538 Q9.111 -82.552 9.068 -83.978 Q9.024 -85.403 10.125 -86.504 Q11.188 -87.566 12.608 -87.566 Q14.029 -87.566 15.091 -86.504 L106.231 4.597 Q107.284 5.674 107.308 7.08 Q107.332 8.486 106.255 9.563 Q105.154 10.664 103.752 10.664 Q102.351 10.664 101.25 9.563 L96.582 4.957 H17.789 Z M84.909 -30.576  72.212 -43.297 Q74.635 -44.153 76.224 -46.254 Q77.812 -48.355 77.812 -51.081 Q77.812 -54.504 75.385 -56.925 Q72.957 -59.345 69.51 -59.345 Q66.832 -59.345 64.707 -57.756 Q62.582 -56.167 61.75 -53.792 L34.957 -80.744 Q32.923 -82.778 34.002 -85.4 Q35.082 -88.023 37.918 -88.023 H83.654 Q87.216 -88.023 89.702 -85.537 Q92.187 -83.052 92.187 -79.489 V-33.538 Q92.187 -30.677 89.565 -29.598 Q86.942 -28.518 84.909 -30.576 Z"/></g><g id="Thin-M" transform="matrix(1 0 0 1 802.565 1126)"><path d="M44.365 -34.47 Q47.702 -34.47 49.457 -37.336 Q51.212 -40.201 51.966 -42.941 L41.442 -53.465 V-37.456 Q41.442 -36.148 42.274 -35.309 Q43.106 -34.47 44.365 -34.47 Z M19.639 2.77 Q17.99 2.77 16.88 1.66 Q15.769 0.549 15.769 -1.1 V-5.523 Q15.769 -8.725 18.014 -10.97 Q20.26 -13.216 23.462 -13.216 H81.726 L72.688 -22.254 H33.558 Q31.909 -22.254 30.822 -23.341 Q29.735 -24.427 29.735 -26.076 V-65.172 L12 -82.908 Q11.346 -83.562 11.291 -84.506 Q11.236 -85.451 12 -86.216 Q12.75 -86.966 13.654 -86.966 Q14.558 -86.966 15.308 -86.216 L107.024 5.486 Q107.692 6.203 107.74 7.14 Q107.788 8.078 107.072 8.794 Q106.308 9.559 105.411 9.559 Q104.514 9.559 103.75 8.794 L97.663 2.77 H19.639 Z M83.755 -31.61  71.298 -44.115 Q73.457 -44.826 74.853 -46.591 Q76.25 -48.355 76.25 -50.744 Q76.25 -53.591 74.207 -55.651 Q72.163 -57.711 69.269 -57.711 Q66.976 -57.711 65.163 -56.314 Q63.351 -54.917 62.688 -52.855 L36.663 -79.134 Q34.846 -80.951 35.817 -83.321 Q36.788 -85.692 39.337 -85.692 H82.62 Q85.87 -85.692 88.091 -83.47 Q90.312 -81.249 90.312 -77.999 V-34.283 Q90.312 -31.687 87.942 -30.716 Q85.572 -29.744 83.755 -31.61 Z"/></g><g id="Ultralight-M" transform="matrix(1 0 0 1 506.415 1126)"><path d="M44.438 -35.292 Q48.062 -35.292 49.781 -38.511 Q51.5 -41.73 52.125 -44.73 L41.688 -55.167 V-38.105 Q41.688 -36.855 42.469 -36.074 Q43.25 -35.292 44.438 -35.292 Z M20.75 1.458 Q19.188 1.458 18.156 0.426 Q17.125 -0.605 17.125 -2.167 V-5.105 Q17.125 -8.105 19.219 -10.199 Q21.312 -12.292 24.312 -12.292 H84.625 L74.938 -21.98 H34.438 Q32.875 -21.98 31.875 -22.98 Q30.875 -23.98 30.875 -25.542 V-65.98 L13.125 -83.73 Q12.688 -84.167 12.625 -84.824 Q12.562 -85.48 13.125 -86.042 Q13.688 -86.605 14.281 -86.605 Q14.875 -86.605 15.438 -86.042 L107.5 6.02 Q107.938 6.52 108 7.176 Q108.062 7.833 107.562 8.333 Q107 8.895 106.406 8.895 Q105.812 8.895 105.25 8.333 L98.312 1.458 H20.75 Z M83.062 -32.23  70.75 -44.605 Q72.75 -45.23 74.031 -46.792 Q75.312 -48.355 75.312 -50.542 Q75.312 -53.042 73.5 -54.886 Q71.688 -56.73 69.125 -56.73 Q67.062 -56.73 65.438 -55.449 Q63.812 -54.167 63.25 -52.292 L37.688 -78.167 Q36 -79.855 36.906 -82.074 Q37.812 -84.292 40.188 -84.292 H82 Q85.062 -84.292 87.125 -82.23 Q89.188 -80.167 89.188 -77.105 V-34.73 Q89.188 -32.292 86.969 -31.386 Q84.75 -30.48 83.062 -32.23 Z"/></g><g id="Bold-S" transform="matrix(1 0 0 1 2294.23 696)"><path d="M37.458 -32.173 Q38.562 -32.173 39.401 -33.11 Q40.239 -34.046 41.077 -35.131 L35.505 -40.704 V-34.42 Q35.505 -33.603 36.078 -32.888 Q36.651 -32.173 37.458 -32.173 Z M12.673 3.53 Q10.425 3.53 8.763 1.868 Q7.101 0.206 7.101 -2.043 V-12.102 Q7.101 -16.807 10.321 -20.027 Q13.541 -23.247 18.246 -23.247 H53.11 L51.038 -25.318 H25.051 Q22.802 -25.318 21.14 -26.98 Q19.478 -28.642 19.478 -30.89 V-56.73 L8.778 -67.431 Q7.397 -68.812 7.569 -70.414 Q7.742 -72.017 8.975 -73.25 Q10.356 -74.631 11.884 -74.631 Q13.413 -74.631 14.794 -73.25 L85.557 -2.339 Q86.79 -1.142 86.691 0.454 Q86.593 2.05 85.36 3.283 Q84.127 4.516 82.508 4.516 Q80.889 4.516 79.689 3.283 L80.084 3.53 H12.673 Z M65.635 -32.123  57.992 -39.865 Q59.224 -40.95 59.989 -42.425 Q60.753 -43.899 60.753 -45.566 Q60.753 -48.396 58.774 -50.443 Q56.796 -52.489 53.978 -52.489 Q52.321 -52.489 50.94 -51.725 Q49.559 -50.961 48.474 -49.728 L28.7 -69.65 Q26.037 -72.313 27.51 -75.716 Q28.983 -79.118 32.645 -79.118 H64.194 Q69.185 -79.118 72.243 -76.061 Q75.3 -73.003 75.3 -67.997 V-36.068 Q75.3 -32.407 71.799 -30.934 Q68.298 -29.46 65.635 -32.123 Z"/></g><g id="Semibold-S" transform="matrix(1 0 0 1 1998.1 696)"><path d="M36.815 -32.216 Q38.134 -32.216 39.186 -33.217 Q40.239 -34.218 41.12 -35.431 L34.69 -41.861 V-34.592 Q34.69 -33.688 35.306 -32.952 Q35.922 -32.216 36.815 -32.216 Z M13.145 1.043 Q11.282 1.043 9.92 -0.319 Q8.559 -1.681 8.559 -3.543 V-12.617 Q8.559 -16.464 11.222 -19.127 Q13.884 -21.789 17.731 -21.789 H54.868 L51.853 -24.804 H25.179 Q23.317 -24.804 21.955 -26.165 Q20.593 -27.527 20.593 -29.39 V-55.958 L8.821 -67.731 Q7.568 -68.983 7.698 -70.457 Q7.828 -71.931 8.975 -73.078 Q10.227 -74.331 11.649 -74.331 Q13.07 -74.331 14.322 -73.078 L83.756 -3.539 Q84.903 -2.428 84.826 -0.961 Q84.749 0.507 83.602 1.654 Q82.455 2.801 80.964 2.801 Q79.474 2.801 78.36 1.654 L77.854 1.043 H13.145 Z M66.192 -30.923  57.434 -39.737 Q58.924 -40.693 59.903 -42.275 Q60.882 -43.856 60.882 -45.737 Q60.882 -48.568 58.903 -50.593 Q56.925 -52.618 54.106 -52.618 Q52.235 -52.618 50.725 -51.639 Q49.216 -50.661 48.26 -49.17 L27.628 -69.95 Q25.437 -72.141 26.631 -74.944 Q27.825 -77.746 30.844 -77.746 H65.009 Q69.143 -77.746 71.642 -75.246 Q74.143 -72.746 74.143 -68.597 V-34.139 Q74.143 -31.12 71.263 -29.926 Q68.384 -28.732 66.192 -30.923 Z"/></g><g id="Medium-S" transform="matrix(1 0 0 1 1701.85 696)"><path d="M36.332 -32.248 Q37.812 -32.248 39.026 -33.297 Q40.239 -34.347 41.152 -35.657 L34.079 -42.73 V-34.72 Q34.079 -33.753 34.727 -33 Q35.375 -32.248 36.332 -32.248 Z M13.499 -0.823 Q11.925 -0.823 10.789 -1.959 Q9.652 -3.096 9.652 -4.669 V-13.003 Q9.652 -16.207 11.897 -18.451 Q14.142 -20.696 17.345 -20.696 H56.186 L52.464 -24.418 H25.276 Q23.703 -24.418 22.566 -25.554 Q21.429 -26.691 21.429 -28.264 V-55.379 L8.853 -67.956 Q7.697 -69.112 7.795 -70.49 Q7.892 -71.867 8.975 -72.95 Q10.13 -74.105 11.472 -74.105 Q12.813 -74.105 13.968 -72.95 L82.406 -4.44 Q83.488 -3.393 83.427 -2.022 Q83.366 -0.651 82.283 0.432 Q81.201 1.514 79.807 1.514 Q78.413 1.514 77.363 0.432 L76.181 -0.823 H13.499 Z M66.61 -30.022  57.016 -39.64 Q58.699 -40.5 59.839 -42.162 Q60.978 -43.824 60.978 -45.866 Q60.978 -48.697 59 -50.706 Q57.021 -52.715 54.203 -52.715 Q52.17 -52.715 50.565 -51.575 Q48.959 -50.435 48.099 -48.752 L26.824 -70.175 Q24.986 -72.013 25.972 -74.365 Q26.957 -76.717 29.493 -76.717 H65.62 Q69.11 -76.717 71.192 -74.635 Q73.274 -72.553 73.274 -69.047 V-32.691 Q73.274 -30.155 70.861 -29.17 Q68.448 -28.185 66.61 -30.022 Z"/></g><g id="Regular-S" transform="matrix(1 0 0 1 1405.73 696)"><path d="M35.978 -32.271 Q37.576 -32.271 38.908 -33.356 Q40.239 -34.441 41.176 -35.822 L33.631 -43.367 V-34.815 Q33.631 -33.8 34.303 -33.036 Q34.974 -32.271 35.978 -32.271 Z M13.758 -2.191 Q12.397 -2.191 11.426 -3.162 Q10.454 -4.134 10.454 -5.495 V-13.286 Q10.454 -16.018 12.392 -17.956 Q14.33 -19.894 17.062 -19.894 H57.153 L52.912 -24.135 H25.347 Q23.986 -24.135 23.014 -25.106 Q22.043 -26.078 22.043 -27.439 V-54.955 L8.876 -68.121 Q7.791 -69.206 7.865 -70.513 Q7.939 -71.82 8.975 -72.855 Q10.06 -73.94 11.342 -73.94 Q12.624 -73.94 13.709 -72.855 L81.415 -5.1 Q82.451 -4.1 82.401 -2.8 Q82.352 -1.5 81.316 -0.465 Q80.281 0.571 78.957 0.571 Q77.634 0.571 76.632 -0.465 L74.955 -2.191 H13.758 Z M66.917 -29.362  56.709 -39.569 Q58.534 -40.358 59.791 -42.08 Q61.049 -43.801 61.049 -45.96 Q61.049 -48.791 59.07 -50.788 Q57.092 -52.785 54.274 -52.785 Q52.123 -52.785 50.447 -51.528 Q48.77 -50.27 47.981 -48.446 L26.234 -70.34 Q24.656 -71.918 25.488 -73.94 Q26.32 -75.962 28.503 -75.962 H66.068 Q69.087 -75.962 70.862 -74.187 Q72.637 -72.412 72.637 -69.377 V-31.63 Q72.637 -29.448 70.566 -28.616 Q68.495 -27.784 66.917 -29.362 Z"/></g><g id="Light-S" transform="matrix(1 0 0 1 1109.75 696)"><path d="M36.073 -33.352 Q38.05 -33.352 39.334 -34.902 Q40.618 -36.452 41.385 -38.174 L33.954 -45.605 V-35.668 Q33.954 -34.729 34.559 -34.041 Q35.164 -33.352 36.073 -33.352 Z M15.219 -3.917 Q13.972 -3.917 13.104 -4.784 Q12.237 -5.651 12.237 -6.898 V-12.736 Q12.237 -15.202 13.976 -16.941 Q15.715 -18.68 18.181 -18.68 H60.966 L55.871 -23.774 H26.504 Q25.256 -23.774 24.399 -24.632 Q23.541 -25.49 23.541 -26.737 V-56.017 L10.356 -69.203 Q9.555 -70.003 9.62 -70.93 Q9.684 -71.858 10.454 -72.628 Q11.293 -73.466 12.167 -73.466 Q13.041 -73.466 13.88 -72.628 L82.041 -4.398 Q82.773 -3.683 82.743 -2.753 Q82.712 -1.823 81.961 -1.072 Q81.191 -0.302 80.266 -0.302 Q79.341 -0.302 78.604 -1.072 L75.809 -3.917 H15.219 Z M66.007 -30.177  55.989 -40.214 Q57.604 -40.89 58.71 -42.345 Q59.816 -43.801 59.816 -45.695 Q59.816 -48.07 58.141 -49.783 Q56.466 -51.495 54.084 -51.495 Q52.237 -51.495 50.807 -50.39 Q49.377 -49.284 48.721 -47.706 L27.581 -69.07 Q26.174 -70.477 26.92 -72.3 Q27.667 -74.122 29.622 -74.122 H65.252 Q68.025 -74.122 69.591 -72.556 Q71.158 -70.989 71.158 -68.201 V-32.218 Q71.158 -30.245 69.286 -29.498 Q67.414 -28.751 66.007 -30.177 Z"/></g><g id="Thin-S" transform="matrix(1 0 0 1 814.015 696)"><path d="M36.168 -34.433 Q38.524 -34.433 39.761 -36.448 Q40.998 -38.462 41.593 -40.525 L34.276 -47.843 V-36.522 Q34.276 -35.659 34.815 -35.046 Q35.354 -34.433 36.168 -34.433 Z M16.679 -5.642 Q15.546 -5.642 14.783 -6.405 Q14.02 -7.168 14.02 -8.302 V-12.186 Q14.02 -14.387 15.56 -15.926 Q17.099 -17.466 19.3 -17.466 H64.778 L58.83 -23.414 H27.66 Q26.527 -23.414 25.783 -24.158 Q25.039 -24.902 25.039 -26.035 V-57.079 L11.835 -70.284 Q11.319 -70.8 11.374 -71.348 Q11.429 -71.896 11.934 -72.4 Q12.525 -72.992 12.992 -72.992 Q13.458 -72.992 14.05 -72.4 L82.667 -3.697 Q83.095 -3.266 83.084 -2.705 Q83.073 -2.145 82.606 -1.679 Q82.101 -1.174 81.575 -1.174 Q81.048 -1.174 80.577 -1.679 L76.662 -5.642 H16.679 Z M65.096 -30.993  55.268 -40.859 Q56.675 -41.421 57.629 -42.611 Q58.583 -43.801 58.583 -45.429 Q58.583 -47.35 57.212 -48.778 Q55.84 -50.206 53.894 -50.206 Q52.351 -50.206 51.167 -49.252 Q49.984 -48.298 49.46 -46.966 L28.928 -67.799 Q27.691 -69.036 28.352 -70.659 Q29.014 -72.283 30.741 -72.283 H64.437 Q66.963 -72.283 68.321 -70.925 Q69.679 -69.567 69.679 -67.025 V-32.806 Q69.679 -31.041 68.006 -30.38 Q66.333 -29.718 65.096 -30.993 Z"/></g><g id="Ultralight-S" transform="matrix(1 0 0 1 517.792 696)"><path d="M36.225 -35.082 Q38.809 -35.082 40.017 -37.375 Q41.225 -39.668 41.718 -41.936 L34.469 -49.185 V-37.034 Q34.469 -36.216 34.968 -35.649 Q35.468 -35.082 36.225 -35.082 Z M17.555 -6.678 Q16.49 -6.678 15.79 -7.378 Q15.09 -8.079 15.09 -9.144 V-11.856 Q15.09 -13.897 16.51 -15.318 Q17.93 -16.738 19.972 -16.738 H67.065 L60.605 -23.198 H28.355 Q27.29 -23.198 26.614 -23.873 Q25.938 -24.549 25.938 -25.614 V-57.716 L12.723 -70.932 Q12.377 -71.277 12.427 -71.598 Q12.476 -71.918 12.821 -72.264 Q13.265 -72.707 13.487 -72.707 Q13.709 -72.707 14.153 -72.264 L83.042 -3.275 Q83.289 -3.016 83.289 -2.677 Q83.289 -2.339 82.993 -2.043 Q82.648 -1.697 82.36 -1.697 Q82.072 -1.697 81.76 -2.043 L77.174 -6.678 H17.555 Z M64.55 -31.482  54.836 -41.246 Q56.118 -41.739 56.981 -42.77 Q57.844 -43.801 57.844 -45.27 Q57.844 -46.917 56.654 -48.175 Q55.464 -49.432 53.78 -49.432 Q52.419 -49.432 51.384 -48.569 Q50.348 -47.706 49.904 -46.523 L29.735 -67.037 Q28.601 -68.171 29.211 -69.675 Q29.821 -71.179 31.412 -71.179 H63.947 Q66.325 -71.179 67.558 -69.946 Q68.791 -68.713 68.791 -66.32 V-33.159 Q68.791 -31.519 67.238 -30.909 Q65.684 -30.299 64.55 -31.482 Z"/></g></g></svg>