<svg xmlns="http://www.w3.org/2000/svg" version="1.1" width="3300" height="2000"><g id="Notes"><style>
    text {
      font-family: monospace;
      text-anchor: middle;
    }
    text.emphasis {
      font-weight:bold;
    }
    text.lanchor {
      text-anchor: start;
    }
  </style><rect height="2200" id="artboard" fill="white" width="3300" x="0" y="0"/><line id="" style="fill:none;stroke:black;stroke-width:0.5;" x1="263" x2="3036" y1="292" y2="292"/><text class="lanchor emphasis" transform="matrix(1 0 0 1 263 322)">Weight/Scale Variations</text><text transform="matrix(1 0 0 1 559.711 322)">Ultralight</text><text transform="matrix(1 0 0 1 856.422 322)">Thin</text><text transform="matrix(1 0 0 1 1153.13 322)">Light</text><text transform="matrix(1 0 0 1 1449.84 322)">Regular</text><text transform="matrix(1 0 0 1 1746.56 322)">Medium</text><text transform="matrix(1 0 0 1 2043.27 322)">Semibold</text><text transform="matrix(1 0 0 1 2339.98 322)">Bold</text><text transform="matrix(1 0 0 1 2636.69 322)">Heavy</text><text transform="matrix(1 0 0 1 2933.4 322)">Black</text><text id="template-version" style="text-anchor: end;" transform="matrix(1 0 0 1 3036 1933)">Template v.1.0</text><text class="lanchor" transform="matrix(1 0 0 1 263 726)">Small</text><text class="lanchor" transform="matrix(1 0 0 1 263 1156)">Medium</text><text class="lanchor" transform="matrix(1 0 0 1 263 1586)">Large</text></g><g id="Guides"><g id="H-reference" style="fill:#27AAE1;stroke:none;" transform="matrix(1 0 0 1 339 696)"><path d="M 54.9316 0 L 57.666 0 L 30.5664 -70.459 L 28.0762 -70.459 L 0.976562 0 L 3.66211 0 L 12.9395 -24.4629 L 45.7031 -24.4629 Z M 29.1992 -67.0898 L 29.4434 -67.0898 L 44.8242 -26.709 L 13.8184 -26.709 Z"/></g><line id="Baseline-S" style="fill:none;stroke:#27AAE1;opacity:1;stroke-width:0.577;" x1="263" x2="3036" y1="696" y2="696"/><line id="Capline-S" style="fill:none;stroke:#27AAE1;opacity:1;stroke-width:0.577;" x1="263" x2="3036" y1="625.541" y2="625.541"/><g id="H-reference" style="fill:#27AAE1;stroke:none;" transform="matrix(1 0 0 1 339 1126)"><path d="M 54.9316 0 L 57.666 0 L 30.5664 -70.459 L 28.0762 -70.459 L 0.976562 0 L 3.66211 0 L 12.9395 -24.4629 L 45.7031 -24.4629 Z M 29.1992 -67.0898 L 29.4434 -67.0898 L 44.8242 -26.709 L 13.8184 -26.709 Z"/></g><line id="Baseline-M" style="fill:none;stroke:#27AAE1;opacity:1;stroke-width:0.577;" x1="263" x2="3036" y1="1126" y2="1126"/><line id="Capline-M" style="fill:none;stroke:#27AAE1;opacity:1;stroke-width:0.577;" x1="263" x2="3036" y1="1055.54" y2="1055.54"/><g id="H-reference" style="fill:#27AAE1;stroke:none;" transform="matrix(1 0 0 1 339 1556)"><path d="M 54.9316 0 L 57.666 0 L 30.5664 -70.459 L 28.0762 -70.459 L 0.976562 0 L 3.66211 0 L 12.9395 -24.4629 L 45.7031 -24.4629 Z M 29.1992 -67.0898 L 29.4434 -67.0898 L 44.8242 -26.709 L 13.8184 -26.709 Z"/></g><line id="Baseline-L" style="fill:none;stroke:#27AAE1;opacity:1;stroke-width:0.577;" x1="263" x2="3036" y1="1556" y2="1556"/><line id="Capline-L" style="fill:none;stroke:#27AAE1;opacity:1;stroke-width:0.577;" x1="263" x2="3036" y1="1485.54" y2="1485.54"/><rect height="119.336" id="left-margin" style="fill:darkred;stroke:none;opacity:0.4;" width="12.4512" x="1394.06" y="1030.79"/><rect height="119.336" id="right-margin" style="fill:darkgreen;stroke:none;opacity:0.4;" width="12.4512" x="1502.5112" y="1030.79"/><rect x="1406.5112" y="1045" width="96" height="96" fill="none" stroke="blue" stroke-dasharray="5"/><rect x="1394.06" y="1030.79" width="120.9024" height="119.336" fill="none" stroke="blue"/></g><g id="Symbols"><g id="Bold-L" transform="matrix(1 0 0 1 2266 1556)"><path d="M24.188 35.881 Q18.193 35.881 13.853 31.494 Q9.514 27.107 9.514 21.046 V-60.707 Q9.514 -64.577 10.109 -68.954 Q10.704 -73.331 14.19 -75.059 L92.719 -106.664 Q94.587 -107.147 96.344 -106.593 Q98.1 -106.038 98.685 -104.084 Q99.33 -102.149 98.656 -100.435 Q97.982 -98.722 96.178 -98.149 L37.087 -74.414 H130.613 Q136.674 -74.414 141.061 -70.027 Q145.447 -65.64 145.447 -59.579 V21.046 Q145.447 27.107 141.061 31.494 Q136.674 35.881 130.613 35.881 H24.188 Z M50.017 12.178 Q56.599 12.178 61.114 7.472 Q65.629 2.766 65.629 -3.493 Q65.629 -10.075 61.084 -14.59 Q56.54 -19.105 49.958 -19.105 Q43.376 -19.105 38.861 -14.56 Q34.346 -10.016 34.346 -3.434 Q34.346 2.825 38.891 7.501 Q43.435 12.178 50.017 12.178 Z M24.188 -36.036 H106.586 V-40.257 Q106.586 -42.007 107.979 -43.375 Q109.373 -44.744 111.285 -44.744 Q113.198 -44.744 114.487 -43.355 Q115.778 -41.966 115.778 -40.229 V-36.036 H130.613 V-59.579 Q130.613 -59.579 130.613 -59.579 Q130.613 -59.579 130.613 -59.579 H24.188 Q24.188 -59.579 24.188 -59.579 Q24.188 -59.579 24.188 -59.579 V-36.036 Z"/></g><g id="Semibold-L" transform="matrix(1 0 0 1 1970.27 1556)"><path d="M23.276 34.479 Q17.874 34.479 13.869 30.447 Q9.864 26.416 9.864 20.976 V-64.844 Q9.864 -67.031 10.284 -69.585 Q10.704 -72.139 12.718 -73.166 L95.172 -106.383 Q97.111 -107.007 98.959 -106.343 Q100.808 -105.679 101.489 -103.663 Q102.204 -101.658 101.46 -99.84 Q100.716 -98.021 98.88 -97.364 L42.836 -74.904 H131.524 Q136.963 -74.904 140.995 -70.873 Q145.027 -66.841 145.027 -61.402 V20.976 Q145.027 26.416 140.995 30.447 Q136.963 34.479 131.524 34.479 H23.276 Z M50.648 11.617 Q57.23 11.617 61.745 6.981 Q66.26 2.345 66.26 -4.054 Q66.26 -10.636 61.715 -15.151 Q57.171 -19.666 50.589 -19.666 Q44.007 -19.666 39.492 -15.121 Q34.977 -10.577 34.977 -3.995 Q34.977 2.404 39.522 7.011 Q44.066 11.617 50.648 11.617 Z M23.276 -37.929 H106.166 V-42.22 Q106.166 -44.25 107.715 -45.759 Q109.263 -47.267 111.406 -47.267 Q113.548 -47.267 115.013 -45.739 Q116.479 -44.21 116.479 -42.192 V-37.929 H131.524 V-61.402 Q131.524 -61.402 131.524 -61.402 Q131.524 -61.402 131.524 -61.402 H23.276 Q23.276 -61.402 23.276 -61.402 Q23.276 -61.402 23.276 -61.402 V-37.929 Z"/></g><g id="Medium-L" transform="matrix(1 0 0 1 1674.31 1556)"><path d="M22.593 33.428 Q17.635 33.428 13.881 29.662 Q10.127 25.897 10.127 20.924 V-67.946 Q10.127 -68.872 10.415 -70.059 Q10.704 -71.245 11.614 -71.746 L97.013 -106.173 Q99.004 -106.902 100.922 -106.156 Q102.839 -105.41 103.593 -103.348 Q104.36 -101.29 103.564 -99.393 Q102.767 -97.495 100.907 -96.776 L47.148 -75.273 H132.207 Q137.181 -75.273 140.946 -71.507 Q144.711 -67.742 144.711 -62.769 V20.924 Q144.711 25.897 140.946 29.662 Q137.181 33.428 132.207 33.428 H22.593 Z M51.121 11.196 Q57.703 11.196 62.218 6.613 Q66.733 2.03 66.733 -4.475 Q66.733 -11.057 62.188 -15.572 Q57.644 -20.087 51.062 -20.087 Q44.48 -20.087 39.965 -15.542 Q35.45 -10.998 35.45 -4.416 Q35.45 2.089 39.995 6.642 Q44.54 11.196 51.121 11.196 Z M22.593 -39.349 H105.85 V-43.692 Q105.85 -45.933 107.516 -47.547 Q109.181 -49.161 111.496 -49.161 Q113.811 -49.161 115.408 -47.526 Q117.004 -45.892 117.004 -43.664 V-39.349 H132.207 V-62.769 Q132.207 -62.769 132.207 -62.769 Q132.207 -62.769 132.207 -62.769 H22.593 Q22.593 -62.769 22.593 -62.769 Q22.593 -62.769 22.593 -62.769 V-39.349 Z"/></g><g id="Regular-L" transform="matrix(1 0 0 1 1378.56 1556)"><path d="M22.091 32.656 Q17.459 32.656 13.89 29.086 Q10.32 25.517 10.32 20.885 V-70.221 Q10.32 -70.221 10.512 -70.406 Q10.704 -70.59 10.804 -70.705 L98.362 -106.019 Q100.392 -106.825 102.36 -106.019 Q104.329 -105.212 105.135 -103.116 Q105.941 -101.02 105.106 -99.065 Q104.271 -97.11 102.394 -96.344 L50.31 -75.542 H132.709 Q137.341 -75.542 140.91 -71.973 Q144.48 -68.403 144.48 -63.771 V20.885 Q144.48 25.517 140.91 29.086 Q137.341 32.656 132.709 32.656 H22.091 Z M51.468 10.888 Q58.05 10.888 62.565 6.343 Q67.08 1.798 67.08 -4.783 Q67.08 -11.365 62.535 -15.88 Q57.991 -20.395 51.409 -20.395 Q44.828 -20.395 40.312 -15.85 Q35.797 -11.306 35.797 -4.724 Q35.797 1.858 40.342 6.373 Q44.887 10.888 51.468 10.888 Z M22.091 -40.39 H105.619 V-44.772 Q105.619 -47.167 107.37 -48.858 Q109.121 -50.549 111.562 -50.549 Q114.004 -50.549 115.697 -48.838 Q117.39 -47.126 117.39 -44.744 V-40.39 H132.709 V-63.771 Q132.709 -63.771 132.709 -63.771 Q132.709 -63.771 132.709 -63.771 H22.091 Q22.091 -63.771 22.091 -63.771 Q22.091 -63.771 22.091 -63.771 V-40.39 Z"/></g><g id="Light-L" transform="matrix(1 0 0 1 1082.77 1556)"><path d="M24.944 29.431 Q20.388 29.431 16.967 26.009 Q13.545 22.588 13.545 18.032 V-67.12 Q13.545 -67.678 14.264 -68.421 Q14.983 -69.163 15.58 -69.465 L96.44 -102.173 Q98.097 -102.793 99.7 -102.132 Q101.303 -101.471 101.972 -99.829 Q102.654 -98.105 101.95 -96.515 Q101.246 -94.925 99.789 -94.297 L44.976 -72.317 H129.856 Q134.412 -72.317 137.833 -68.896 Q141.255 -65.474 141.255 -60.918 V18.032 Q141.255 22.588 137.833 26.009 Q134.412 29.431 129.856 29.431 H24.944 Z M51.041 9.027 Q57.12 9.027 61.325 4.785 Q65.529 0.544 65.529 -5.535 Q65.529 -11.613 61.288 -15.818 Q57.047 -20.023 50.968 -20.023 Q44.89 -20.023 40.685 -15.781 Q36.48 -11.54 36.48 -5.461 Q36.48 0.617 40.721 4.822 Q44.963 9.027 51.041 9.027 Z M22.96 -39.087 H106.363 V-45.021 Q106.363 -46.918 107.774 -48.268 Q109.185 -49.618 111.129 -49.618 Q113.073 -49.618 114.425 -48.248 Q115.777 -46.877 115.777 -44.992 V-39.087 H131.84 V-60.918 Q131.84 -61.662 131.22 -62.283 Q130.6 -62.903 129.856 -62.903 H24.944 Q24.2 -62.903 23.58 -62.283 Q22.96 -61.662 22.96 -60.918 V-39.087 Z"/></g><g id="Thin-L" transform="matrix(1 0 0 1 787.282 1556)"><path d="M27.797 26.206 Q23.317 26.206 20.044 22.933 Q16.77 19.659 16.77 15.179 V-64.019 Q16.77 -65.136 18.016 -66.436 Q19.262 -67.737 20.355 -68.224 L94.517 -98.328 Q95.802 -98.762 97.04 -98.246 Q98.278 -97.73 98.809 -96.542 Q99.367 -95.19 98.795 -93.966 Q98.223 -92.741 97.184 -92.251 L39.643 -69.092 H127.003 Q131.483 -69.092 134.756 -65.819 Q138.03 -62.545 138.03 -58.066 V15.179 Q138.03 19.659 134.756 22.933 Q131.483 26.206 127.003 26.206 H27.797 Z M50.614 7.166 Q56.189 7.166 60.084 3.228 Q63.979 -0.71 63.979 -6.286 Q63.979 -11.861 60.041 -15.756 Q56.102 -19.651 50.527 -19.651 Q44.952 -19.651 41.057 -15.712 Q37.162 -11.774 37.162 -6.199 Q37.162 -0.623 41.1 3.272 Q45.039 7.166 50.614 7.166 Z M23.828 -37.785 H107.107 V-45.27 Q107.107 -46.67 108.178 -47.679 Q109.249 -48.688 110.696 -48.688 Q112.143 -48.688 113.154 -47.658 Q114.165 -46.627 114.165 -45.24 V-37.785 H130.972 V-58.066 Q130.972 -59.554 129.732 -60.794 Q128.491 -62.035 127.003 -62.035 H27.797 Q26.309 -62.035 25.068 -60.794 Q23.828 -59.554 23.828 -58.066 V-37.785 Z"/></g><g id="Ultralight-L" transform="matrix(1 0 0 1 491.205 1556)"><path d="M29.509 24.271 Q25.074 24.271 21.89 21.087 Q18.705 17.902 18.705 13.468 V-62.159 Q18.705 -63.61 20.268 -65.246 Q21.83 -66.881 23.22 -67.48 L93.364 -96.021 Q94.426 -96.344 95.444 -95.915 Q96.463 -95.486 96.911 -94.57 Q97.395 -93.441 96.902 -92.436 Q96.408 -91.431 95.621 -91.022 L36.443 -67.157 H125.291 Q129.726 -67.157 132.91 -63.973 Q136.095 -60.788 136.095 -56.354 V13.468 Q136.095 17.902 132.91 21.087 Q129.726 24.271 125.291 24.271 H29.509 Z M50.358 6.05 Q55.631 6.05 59.34 2.294 Q63.049 -1.463 63.049 -6.736 Q63.049 -12.01 59.292 -15.719 Q55.536 -19.427 50.262 -19.427 Q44.989 -19.427 41.28 -15.671 Q37.571 -11.915 37.571 -6.641 Q37.571 -1.367 41.328 2.341 Q45.084 6.05 50.358 6.05 Z M24.349 -37.004 H107.554 V-45.42 Q107.554 -46.522 108.421 -47.326 Q109.288 -48.13 110.436 -48.13 Q111.585 -48.13 112.391 -47.304 Q113.198 -46.477 113.198 -45.389 V-37.004 H130.451 V-56.354 Q130.451 -58.289 128.839 -59.901 Q127.226 -61.514 125.291 -61.514 H29.509 Q27.574 -61.514 25.961 -59.901 Q24.349 -58.289 24.349 -56.354 V-37.004 Z"/></g><g id="Bold-M" transform="matrix(1 0 0 1 2281.8 1126)"><path d="M21.25 24.395 Q14.109 24.395 9.18 19.465 Q4.25 14.536 4.25 7.395 V-61.98 Q4.25 -63.23 4.312 -64.605 Q4.375 -65.98 5.5 -66.48 L72.25 -93.605 Q74.375 -94.48 76.461 -93.675 Q78.547 -92.87 79.312 -90.73 Q80.125 -88.605 79.25 -86.605 Q78.375 -84.605 76.25 -83.73 L35.625 -66.98 H98.75 Q105.891 -66.98 110.82 -62.05 Q115.75 -57.121 115.75 -49.98 V7.395 Q115.75 14.536 110.82 19.465 Q105.891 24.395 98.75 24.395 H21.25 Z M38.5 3.77 Q43.75 3.77 47.375 0.083 Q51 -3.605 51 -8.73 Q51 -13.98 47.375 -17.605 Q43.75 -21.23 38.5 -21.23 Q33.25 -21.23 29.625 -17.605 Q26 -13.98 26 -8.73 Q26 -3.605 29.625 0.083 Q33.25 3.77 38.5 3.77 Z M21.25 -36.23 H79.5 V-40.105 Q79.5 -42.355 81.16 -44.042 Q82.82 -45.73 85.16 -45.73 Q87.5 -45.73 89.125 -44.042 Q90.75 -42.355 90.75 -40.105 V-36.23 H98.75 V-49.98 Q98.75 -49.98 98.75 -49.98 Q98.75 -49.98 98.75 -49.98 H21.25 Q21.25 -49.98 21.25 -49.98 Q21.25 -49.98 21.25 -49.98 V-36.23 Z"/></g><g id="Semibold-M" transform="matrix(1 0 0 1 1985.97 1126)"><path d="M20.381 22.493 Q13.968 22.493 9.489 18.014 Q5.011 13.536 5.011 7.123 V-62.469 Q5.011 -63.176 5.046 -63.953 Q5.082 -64.73 5.717 -65.013 L74.587 -93.007 Q76.766 -93.936 78.896 -93.074 Q81.026 -92.211 81.84 -90.023 Q82.679 -87.844 81.777 -85.79 Q80.875 -83.735 78.75 -82.806 L41.005 -67.306 H99.62 Q106.032 -67.306 110.51 -62.827 Q114.989 -58.349 114.989 -51.936 V7.123 Q114.989 13.536 110.51 18.014 Q106.032 22.493 99.62 22.493 H20.381 Z M39.152 3.009 Q44.402 3.009 48.027 -0.651 Q51.652 -4.311 51.652 -9.491 Q51.652 -14.741 48.027 -18.366 Q44.402 -21.991 39.152 -21.991 Q33.902 -21.991 30.277 -18.366 Q26.652 -14.741 26.652 -9.491 Q26.652 -4.311 30.277 -0.651 Q33.902 3.009 39.152 3.009 Z M20.381 -38.186 H79.174 V-42.17 Q79.174 -44.637 80.955 -46.434 Q82.735 -48.23 85.254 -48.23 Q87.772 -48.23 89.533 -46.434 Q91.293 -44.637 91.293 -42.17 V-38.186 H99.62 V-51.936 Q99.62 -51.936 99.62 -51.936 Q99.62 -51.936 99.62 -51.936 H20.381 Q20.381 -51.936 20.381 -51.936 Q20.381 -51.936 20.381 -51.936 V-38.186 Z"/></g><g id="Medium-M" transform="matrix(1 0 0 1 1689.91 1126)"><path d="M19.728 21.066 Q13.862 21.066 9.722 16.926 Q5.582 12.786 5.582 6.92 V-62.836 Q5.582 -63.135 5.596 -63.464 Q5.611 -63.792 5.88 -63.912 L76.34 -92.559 Q78.56 -93.529 80.723 -92.623 Q82.886 -91.717 83.735 -89.494 Q84.595 -87.273 83.672 -85.178 Q82.75 -83.083 80.625 -82.113 L45.041 -67.551 H100.272 Q106.138 -67.551 110.278 -63.41 Q114.418 -59.27 114.418 -53.404 V6.92 Q114.418 12.786 110.278 16.926 Q106.138 21.066 100.272 21.066 H19.728 Z M39.641 2.439 Q44.891 2.439 48.516 -1.201 Q52.141 -4.841 52.141 -10.061 Q52.141 -15.311 48.516 -18.936 Q44.891 -22.561 39.641 -22.561 Q34.391 -22.561 30.766 -18.936 Q27.141 -15.311 27.141 -10.061 Q27.141 -4.841 30.766 -1.201 Q34.391 2.439 39.641 2.439 Z M19.728 -39.654 H78.929 V-43.719 Q78.929 -46.349 80.8 -48.227 Q82.672 -50.105 85.324 -50.105 Q87.975 -50.105 89.838 -48.227 Q91.701 -46.349 91.701 -43.719 V-39.654 H100.272 V-53.404 Q100.272 -53.404 100.272 -53.404 Q100.272 -53.404 100.272 -53.404 H19.728 Q19.728 -53.404 19.728 -53.404 Q19.728 -53.404 19.728 -53.404 V-39.654 Z"/></g><g id="Regular-M" transform="matrix(1 0 0 1 1394.06 1126)"><path d="M19.25 20.02 Q13.784 20.02 9.892 16.128 Q6 12.236 6 6.77 V-63.105 Q6 -63.105 6 -63.105 Q6 -63.105 6 -63.105 L77.625 -92.23 Q79.875 -93.23 82.062 -92.292 Q84.25 -91.355 85.125 -89.105 Q86 -86.855 85.062 -84.73 Q84.125 -82.605 82 -81.605 L48 -67.73 H100.75 Q106.216 -67.73 110.108 -63.838 Q114 -59.946 114 -54.48 V6.77 Q114 12.236 110.108 16.128 Q106.216 20.02 100.75 20.02 H19.25 Z M40 2.02 Q45.25 2.02 48.875 -1.605 Q52.5 -5.23 52.5 -10.48 Q52.5 -15.73 48.875 -19.355 Q45.25 -22.98 40 -22.98 Q34.75 -22.98 31.125 -19.355 Q27.5 -15.73 27.5 -10.48 Q27.5 -5.23 31.125 -1.605 Q34.75 2.02 40 2.02 Z M19.25 -40.73 H78.75 V-44.855 Q78.75 -47.605 80.688 -49.542 Q82.625 -51.48 85.375 -51.48 Q88.125 -51.48 90.062 -49.542 Q92 -47.605 92 -44.855 V-40.73 H100.75 V-54.48 Q100.75 -54.48 100.75 -54.48 Q100.75 -54.48 100.75 -54.48 H19.25 Q19.25 -54.48 19.25 -54.48 Q19.25 -54.48 19.25 -54.48 V-40.73 Z"/></g><g id="Light-M" transform="matrix(1 0 0 1 1098.18 1126)"><path d="M20.789 17.52 Q15.659 17.52 12.08 13.94 Q8.5 10.361 8.5 5.231 V-60.124 Q8.5 -60.701 8.957 -61.35 Q9.414 -61.999 9.943 -62.239 L76.086 -89.153 Q77.904 -90.009 79.707 -89.215 Q81.509 -88.422 82.24 -86.605 Q82.971 -84.787 82.178 -83.047 Q81.384 -81.307 79.692 -80.451 L42.327 -65.23 H99.211 Q104.341 -65.23 107.92 -61.65 Q111.5 -58.07 111.5 -52.941 V5.231 Q111.5 10.361 107.92 13.94 Q104.341 17.52 99.211 17.52 H20.789 Z M39.615 0.481 Q44.433 0.481 47.793 -2.879 Q51.154 -6.24 51.154 -11.057 Q51.154 -15.874 47.793 -19.235 Q44.433 -22.595 39.615 -22.595 Q34.798 -22.595 31.438 -19.235 Q28.077 -15.874 28.077 -11.057 Q28.077 -6.24 31.438 -2.879 Q34.798 0.481 39.615 0.481 Z M19.25 -39.384 H80 V-44.374 Q80 -46.595 81.577 -48.172 Q83.154 -49.749 85.375 -49.749 Q87.596 -49.749 89.173 -48.172 Q90.75 -46.595 90.75 -44.374 V-39.384 H100.75 V-52.941 Q100.75 -53.518 100.269 -53.999 Q99.788 -54.48 99.211 -54.48 H20.789 Q20.212 -54.48 19.731 -53.999 Q19.25 -53.518 19.25 -52.941 V-39.384 Z"/></g><g id="Thin-M" transform="matrix(1 0 0 1 802.565 1126)"><path d="M22.327 15.02 Q17.534 15.02 14.267 11.753 Q11 8.486 11 3.693 V-57.143 Q11 -58.297 11.913 -59.595 Q12.827 -60.893 13.885 -61.374 L74.548 -86.076 Q75.933 -86.788 77.351 -86.139 Q78.769 -85.49 79.356 -84.105 Q79.942 -82.72 79.293 -81.365 Q78.644 -80.009 77.385 -79.297 L36.654 -62.73 H97.673 Q102.466 -62.73 105.733 -59.463 Q109 -56.196 109 -51.403 V3.693 Q109 8.486 105.733 11.753 Q102.466 15.02 97.673 15.02 H22.327 Z M39.231 -1.057 Q43.615 -1.057 46.712 -4.153 Q49.808 -7.249 49.808 -11.634 Q49.808 -16.018 46.712 -19.115 Q43.615 -22.211 39.231 -22.211 Q34.846 -22.211 31.75 -19.115 Q28.654 -16.018 28.654 -11.634 Q28.654 -7.249 31.75 -4.153 Q34.846 -1.057 39.231 -1.057 Z M19.25 -38.038 H81.25 V-43.893 Q81.25 -45.586 82.466 -46.802 Q83.683 -48.018 85.375 -48.018 Q87.067 -48.018 88.284 -46.802 Q89.5 -45.586 89.5 -43.893 V-38.038 H100.75 V-51.403 Q100.75 -52.557 99.788 -53.518 Q98.827 -54.48 97.673 -54.48 H22.327 Q21.173 -54.48 20.212 -53.518 Q19.25 -52.557 19.25 -51.403 V-38.038 Z"/></g><g id="Ultralight-M" transform="matrix(1 0 0 1 506.415 1126)"><path d="M23.25 13.52 Q18.659 13.52 15.58 10.44 Q12.5 7.361 12.5 2.77 V-55.355 Q12.5 -56.855 13.688 -58.542 Q14.875 -60.23 16.25 -60.855 L73.625 -84.23 Q74.75 -84.855 75.938 -84.292 Q77.125 -83.73 77.625 -82.605 Q78.125 -81.48 77.562 -80.355 Q77 -79.23 76 -78.605 L33.25 -61.23 H96.75 Q101.341 -61.23 104.42 -58.15 Q107.5 -55.071 107.5 -50.48 V2.77 Q107.5 7.361 104.42 10.44 Q101.341 13.52 96.75 13.52 H23.25 Z M39 -1.98 Q43.125 -1.98 46.062 -4.917 Q49 -7.855 49 -11.98 Q49 -16.105 46.062 -19.042 Q43.125 -21.98 39 -21.98 Q34.875 -21.98 31.938 -19.042 Q29 -16.105 29 -11.98 Q29 -7.855 31.938 -4.917 Q34.875 -1.98 39 -1.98 Z M19.25 -37.23 H82 V-43.605 Q82 -44.98 83 -45.98 Q84 -46.98 85.375 -46.98 Q86.75 -46.98 87.75 -45.98 Q88.75 -44.98 88.75 -43.605 V-37.23 H100.75 V-50.48 Q100.75 -51.98 99.5 -53.23 Q98.25 -54.48 96.75 -54.48 H23.25 Q21.75 -54.48 20.5 -53.23 Q19.25 -51.98 19.25 -50.48 V-37.23 Z"/></g><g id="Bold-S" transform="matrix(1 0 0 1 2294.23 696)"><path d="M17.555 10.236 Q12.247 10.236 8.589 6.576 Q4.931 2.917 4.931 -2.395 V-47.112 Q4.931 -50.32 6.312 -53.229 Q7.693 -56.138 10.652 -57.322 L61.542 -75.863 Q63.219 -76.554 64.864 -75.82 Q66.51 -75.086 67.114 -73.398 Q67.755 -71.721 67.016 -70.143 Q66.276 -68.565 64.599 -67.875 L31.461 -55.547 H77.121 Q82.463 -55.547 86.106 -51.888 Q89.749 -48.229 89.749 -42.919 V-2.36 Q89.749 2.95 86.091 6.593 Q82.433 10.236 77.125 10.236 H17.555 Z M29.565 -6.037 Q33.532 -6.037 36.294 -8.826 Q39.056 -11.614 39.056 -15.483 Q39.056 -19.45 36.316 -22.211 Q33.577 -24.973 29.61 -24.973 Q25.643 -24.973 22.881 -22.234 Q20.12 -19.494 20.12 -15.527 Q20.12 -11.659 22.859 -8.848 Q25.598 -6.037 29.565 -6.037 Z M17.555 -34.441 H63.515 V-37.104 Q63.515 -38.711 64.705 -39.929 Q65.895 -41.147 67.565 -41.147 Q69.235 -41.147 70.407 -39.929 Q71.579 -38.711 71.579 -37.104 V-34.441 H77.125 V-42.923 Q77.125 -42.923 77.125 -42.923 Q77.125 -42.923 77.125 -42.923 H17.555 Q17.555 -42.923 17.555 -42.923 Q17.555 -42.923 17.555 -42.923 V-34.441 Z"/></g><g id="Semibold-S" transform="matrix(1 0 0 1 1998.1 696)"><path d="M16.869 8.735 Q12.135 8.735 8.833 5.432 Q5.532 2.128 5.532 -2.609 V-47.498 Q5.532 -50.277 6.891 -52.715 Q8.25 -55.152 10.823 -56.164 L63.386 -75.392 Q65.105 -76.125 66.786 -75.346 Q68.467 -74.567 69.108 -72.84 Q69.771 -71.121 69.009 -69.5 Q68.248 -67.879 66.572 -67.146 L35.706 -55.804 H77.807 Q82.574 -55.804 85.861 -52.501 Q89.148 -49.198 89.148 -44.462 V-2.574 Q89.148 2.161 85.847 5.448 Q82.545 8.735 77.811 8.735 H16.869 Z M30.08 -6.637 Q34.047 -6.637 36.809 -9.404 Q39.57 -12.172 39.57 -16.083 Q39.57 -20.05 36.831 -22.812 Q34.092 -25.573 30.124 -25.573 Q26.157 -25.573 23.396 -22.834 Q20.634 -20.095 20.634 -16.128 Q20.634 -12.216 23.373 -9.427 Q26.113 -6.637 30.08 -6.637 Z M16.869 -35.985 H63.257 V-38.733 Q63.257 -40.512 64.543 -41.816 Q65.828 -43.12 67.639 -43.12 Q69.449 -43.12 70.728 -41.816 Q72.008 -40.512 72.008 -38.733 V-35.985 H77.811 V-44.466 Q77.811 -44.466 77.811 -44.466 Q77.811 -44.466 77.811 -44.466 H16.869 Q16.869 -44.466 16.869 -44.466 Q16.869 -44.466 16.869 -44.466 V-35.985 Z"/></g><g id="Medium-S" transform="matrix(1 0 0 1 1701.85 696)"><path d="M16.355 7.61 Q12.052 7.61 9.017 4.573 Q5.982 1.536 5.982 -2.77 V-47.788 Q5.982 -50.245 7.325 -52.329 Q8.668 -54.413 10.952 -55.296 L64.769 -75.038 Q66.52 -75.803 68.227 -74.99 Q69.934 -74.177 70.604 -72.422 Q71.282 -70.671 70.505 -69.018 Q69.728 -67.365 68.051 -66.599 L38.89 -55.997 H78.322 Q82.658 -55.997 85.678 -52.961 Q88.698 -49.925 88.698 -45.62 V-2.735 Q88.698 1.569 85.663 4.59 Q82.628 7.61 78.325 7.61 H16.355 Z M30.466 -7.088 Q34.433 -7.088 37.194 -9.839 Q39.956 -12.59 39.956 -16.533 Q39.956 -20.501 37.217 -23.262 Q34.477 -26.024 30.51 -26.024 Q26.543 -26.024 23.781 -23.284 Q21.02 -20.545 21.02 -16.578 Q21.02 -12.634 23.759 -9.861 Q26.499 -7.088 30.466 -7.088 Z M16.355 -37.142 H63.064 V-39.955 Q63.064 -41.863 64.421 -43.231 Q65.778 -44.599 67.694 -44.599 Q69.61 -44.599 70.97 -43.231 Q72.329 -41.863 72.329 -39.955 V-37.142 H78.325 V-45.624 Q78.325 -45.624 78.325 -45.624 Q78.325 -45.624 78.325 -45.624 H16.355 Q16.355 -45.624 16.355 -45.624 Q16.355 -45.624 16.355 -45.624 V-37.142 Z"/></g><g id="Regular-S" transform="matrix(1 0 0 1 1405.73 696)"><path d="M15.977 6.784 Q11.99 6.784 9.151 3.943 Q6.312 1.102 6.312 -2.888 V-48 Q6.312 -50.221 7.643 -52.046 Q8.975 -53.87 11.046 -54.659 L65.783 -74.779 Q67.558 -75.568 69.284 -74.729 Q71.01 -73.891 71.7 -72.116 Q72.391 -70.34 71.602 -68.664 Q70.813 -66.987 69.136 -66.198 L41.225 -56.138 H78.699 Q82.719 -56.138 85.544 -53.298 Q88.368 -50.458 88.368 -46.469 V-2.853 Q88.368 1.136 85.529 3.96 Q82.69 6.784 78.703 6.784 H15.977 Z M30.749 -7.418 Q34.716 -7.418 37.477 -10.157 Q40.239 -12.896 40.239 -16.864 Q40.239 -20.831 37.5 -23.592 Q34.76 -26.354 30.793 -26.354 Q26.826 -26.354 24.065 -23.614 Q21.303 -20.875 21.303 -16.908 Q21.303 -12.941 24.042 -10.179 Q26.782 -7.418 30.749 -7.418 Z M15.977 -37.991 H62.923 V-40.852 Q62.923 -42.854 64.332 -44.269 Q65.741 -45.684 67.735 -45.684 Q69.728 -45.684 71.146 -44.269 Q72.565 -42.854 72.565 -40.852 V-37.991 H78.703 V-46.473 Q78.703 -46.473 78.703 -46.473 Q78.703 -46.473 78.703 -46.473 H15.977 Q15.977 -46.473 15.977 -46.473 Q15.977 -46.473 15.977 -46.473 V-37.991 Z"/></g><g id="Light-S" transform="matrix(1 0 0 1 1109.75 696)"><path d="M17.191 4.812 Q13.47 4.812 10.877 2.217 Q8.285 -0.378 8.285 -4.102 V-45.648 Q8.285 -48.324 9.977 -50.661 Q11.668 -52.998 14.157 -53.976 L64.569 -72.351 Q66.003 -73.026 67.425 -72.301 Q68.848 -71.577 69.424 -70.143 Q70.001 -68.709 69.326 -67.336 Q68.65 -65.963 67.315 -65.288 L36.749 -54.166 H77.485 Q81.24 -54.166 83.818 -51.572 Q86.395 -48.978 86.395 -45.255 V-4.067 Q86.395 -0.344 83.803 2.234 Q81.21 4.812 77.489 4.812 H17.191 Z M30.445 -8.632 Q34.071 -8.632 36.624 -11.162 Q39.177 -13.693 39.177 -17.319 Q39.177 -20.945 36.646 -23.497 Q34.116 -26.05 30.49 -26.05 Q26.864 -26.05 24.311 -23.52 Q21.758 -20.989 21.758 -17.363 Q21.758 -13.737 24.289 -11.185 Q26.819 -8.632 30.445 -8.632 Z M15.977 -36.929 H63.909 V-40.472 Q63.909 -42.057 65.034 -43.188 Q66.159 -44.319 67.735 -44.319 Q69.311 -44.319 70.445 -43.188 Q71.579 -42.057 71.579 -40.472 V-36.929 H78.703 V-45.259 Q78.703 -45.715 78.323 -46.094 Q77.944 -46.473 77.489 -46.473 H17.191 Q16.736 -46.473 16.357 -46.094 Q15.977 -45.715 15.977 -45.259 V-36.929 Z"/></g><g id="Thin-S" transform="matrix(1 0 0 1 814.015 696)"><path d="M18.405 2.839 Q14.949 2.839 12.603 0.491 Q10.257 -1.857 10.257 -5.315 V-43.296 Q10.257 -46.428 12.309 -49.276 Q14.361 -52.125 17.267 -53.294 L63.355 -69.923 Q64.448 -70.485 65.567 -69.874 Q66.686 -69.263 67.148 -68.171 Q67.611 -67.078 67.05 -66.009 Q66.488 -64.939 65.495 -64.378 L32.273 -52.193 H76.272 Q79.761 -52.193 82.092 -49.846 Q84.423 -47.499 84.423 -44.042 V-5.281 Q84.423 -1.823 82.077 0.508 Q79.731 2.839 76.275 2.839 H18.405 Z M30.142 -9.845 Q33.426 -9.845 35.77 -12.167 Q38.115 -14.489 38.115 -17.774 Q38.115 -21.058 35.793 -23.403 Q33.471 -25.747 30.186 -25.747 Q26.902 -25.747 24.558 -23.425 Q22.213 -21.103 22.213 -17.818 Q22.213 -14.534 24.535 -12.19 Q26.857 -9.845 30.142 -9.845 Z M15.977 -35.867 H64.895 V-40.093 Q64.895 -41.261 65.736 -42.107 Q66.576 -42.953 67.735 -42.953 Q68.893 -42.953 69.743 -42.107 Q70.593 -41.261 70.593 -40.093 V-35.867 H78.703 V-44.046 Q78.703 -44.956 77.944 -45.715 Q77.185 -46.473 76.275 -46.473 H18.405 Q17.495 -46.473 16.736 -45.715 Q15.977 -44.956 15.977 -44.046 V-35.867 Z"/></g><g id="Ultralight-S" transform="matrix(1 0 0 1 517.792 696)"><path d="M19.133 1.656 Q15.837 1.656 13.639 -0.544 Q11.441 -2.744 11.441 -6.044 V-41.885 Q11.441 -45.29 13.709 -48.446 Q15.977 -51.602 19.133 -52.884 L62.627 -68.467 Q63.515 -68.96 64.451 -68.417 Q65.388 -67.875 65.783 -66.987 Q66.177 -66.1 65.684 -65.212 Q65.191 -64.324 64.402 -63.831 L29.588 -51.01 H75.543 Q78.873 -51.01 81.056 -48.811 Q83.24 -46.611 83.24 -43.313 V-6.009 Q83.24 -2.711 81.041 -0.528 Q78.843 1.656 75.547 1.656 H19.133 Z M29.96 -10.574 Q33.039 -10.574 35.258 -12.771 Q37.477 -14.967 37.477 -18.047 Q37.477 -21.127 35.281 -23.346 Q33.084 -25.565 30.004 -25.565 Q26.925 -25.565 24.706 -23.368 Q22.486 -21.171 22.486 -18.091 Q22.486 -15.012 24.683 -12.793 Q26.88 -10.574 29.96 -10.574 Z M15.977 -35.23 H65.487 V-39.865 Q65.487 -40.783 66.157 -41.458 Q66.826 -42.134 67.735 -42.134 Q68.643 -42.134 69.322 -41.458 Q70.001 -40.783 70.001 -39.865 V-35.23 H78.703 V-43.317 Q78.703 -44.501 77.716 -45.487 Q76.73 -46.473 75.547 -46.473 H19.133 Q17.95 -46.473 16.963 -45.487 Q15.977 -44.501 15.977 -43.317 V-35.23 Z"/></g></g></svg>