<svg xmlns="http://www.w3.org/2000/svg" version="1.1" width="3300" height="2000"><g id="Notes"><style>
    text {
      font-family: monospace;
      text-anchor: middle;
    }
    text.emphasis {
      font-weight:bold;
    }
    text.lanchor {
      text-anchor: start;
    }
  </style><rect height="2200" id="artboard" fill="white" width="3300" x="0" y="0"/><line id="" style="fill:none;stroke:black;stroke-width:0.5;" x1="263" x2="3036" y1="292" y2="292"/><text class="lanchor emphasis" transform="matrix(1 0 0 1 263 322)">Weight/Scale Variations</text><text transform="matrix(1 0 0 1 559.711 322)">Ultralight</text><text transform="matrix(1 0 0 1 856.422 322)">Thin</text><text transform="matrix(1 0 0 1 1153.13 322)">Light</text><text transform="matrix(1 0 0 1 1449.84 322)">Regular</text><text transform="matrix(1 0 0 1 1746.56 322)">Medium</text><text transform="matrix(1 0 0 1 2043.27 322)">Semibold</text><text transform="matrix(1 0 0 1 2339.98 322)">Bold</text><text transform="matrix(1 0 0 1 2636.69 322)">Heavy</text><text transform="matrix(1 0 0 1 2933.4 322)">Black</text><text id="template-version" style="text-anchor: end;" transform="matrix(1 0 0 1 3036 1933)">Template v.1.0</text><text class="lanchor" transform="matrix(1 0 0 1 263 726)">Small</text><text class="lanchor" transform="matrix(1 0 0 1 263 1156)">Medium</text><text class="lanchor" transform="matrix(1 0 0 1 263 1586)">Large</text></g><g id="Guides"><g id="H-reference" style="fill:#27AAE1;stroke:none;" transform="matrix(1 0 0 1 339 696)"><path d="M 54.9316 0 L 57.666 0 L 30.5664 -70.459 L 28.0762 -70.459 L 0.976562 0 L 3.66211 0 L 12.9395 -24.4629 L 45.7031 -24.4629 Z M 29.1992 -67.0898 L 29.4434 -67.0898 L 44.8242 -26.709 L 13.8184 -26.709 Z"/></g><line id="Baseline-S" style="fill:none;stroke:#27AAE1;opacity:1;stroke-width:0.577;" x1="263" x2="3036" y1="696" y2="696"/><line id="Capline-S" style="fill:none;stroke:#27AAE1;opacity:1;stroke-width:0.577;" x1="263" x2="3036" y1="625.541" y2="625.541"/><g id="H-reference" style="fill:#27AAE1;stroke:none;" transform="matrix(1 0 0 1 339 1126)"><path d="M 54.9316 0 L 57.666 0 L 30.5664 -70.459 L 28.0762 -70.459 L 0.976562 0 L 3.66211 0 L 12.9395 -24.4629 L 45.7031 -24.4629 Z M 29.1992 -67.0898 L 29.4434 -67.0898 L 44.8242 -26.709 L 13.8184 -26.709 Z"/></g><line id="Baseline-M" style="fill:none;stroke:#27AAE1;opacity:1;stroke-width:0.577;" x1="263" x2="3036" y1="1126" y2="1126"/><line id="Capline-M" style="fill:none;stroke:#27AAE1;opacity:1;stroke-width:0.577;" x1="263" x2="3036" y1="1055.54" y2="1055.54"/><g id="H-reference" style="fill:#27AAE1;stroke:none;" transform="matrix(1 0 0 1 339 1556)"><path d="M 54.9316 0 L 57.666 0 L 30.5664 -70.459 L 28.0762 -70.459 L 0.976562 0 L 3.66211 0 L 12.9395 -24.4629 L 45.7031 -24.4629 Z M 29.1992 -67.0898 L 29.4434 -67.0898 L 44.8242 -26.709 L 13.8184 -26.709 Z"/></g><line id="Baseline-L" style="fill:none;stroke:#27AAE1;opacity:1;stroke-width:0.577;" x1="263" x2="3036" y1="1556" y2="1556"/><line id="Capline-L" style="fill:none;stroke:#27AAE1;opacity:1;stroke-width:0.577;" x1="263" x2="3036" y1="1485.54" y2="1485.54"/><rect height="119.336" id="left-margin" style="fill:darkred;stroke:none;opacity:0.4;" width="12.4512" x="1394.06" y="1030.79"/><rect height="119.336" id="right-margin" style="fill:darkgreen;stroke:none;opacity:0.4;" width="12.4512" x="1502.5112" y="1030.79"/><rect x="1406.5112" y="1045" width="96" height="96" fill="none" stroke="blue" stroke-dasharray="5"/><rect x="1394.06" y="1030.79" width="120.9024" height="119.336" fill="none" stroke="blue"/></g><g id="Symbols"><g id="Bold-L" transform="matrix(1 0 0 1 2266 1556)"><path d="M124.808 26.045 Q107.638 26.045 88.205 16.612 Q68.773 7.179 51.842 -9.833 Q34.911 -26.442 25.518 -45.471 Q16.125 -64.5 16.125 -82.476 V-96.666 H59.259 L67.483 -61.191 L45.473 -41.035 Q49.287 -35.126 53.266 -30.099 Q57.244 -25.071 61.845 -20.39 Q66.999 -15.154 72.467 -10.829 Q77.935 -6.503 83.827 -3.302 L105.457 -25.152 L138.836 -17.479 V26.045 H124.808 Z M76.916 -63.126 V-69.092 H90.703 V-76.913 H76.916 V-96.666 H96.669 V-90.7 H82.883 V-82.879 H96.669 V-63.126 H76.916 Z M105.135 -63.126 V-96.666 H110.94 V-63.126 H105.135 Z M119.406 -63.126 V-96.666 H139.159 V-76.849 H125.372 V-63.126 H119.406 Z M125.372 -82.879 H133.192 V-90.7 H125.372 V-82.879 Z"/></g><g id="Semibold-L" transform="matrix(1 0 0 1 1970.27 1556)"><path d="M125.018 24.292 Q107.848 24.292 88.766 15.035 Q69.685 5.777 53.034 -10.92 Q36.383 -27.353 27.13 -46.206 Q17.878 -65.06 17.878 -82.757 V-94.843 H57.016 L64.469 -61.822 L43.93 -42.157 Q48.014 -35.697 52.279 -30.209 Q56.543 -24.721 61.422 -19.831 Q66.859 -14.313 72.818 -9.637 Q78.776 -4.961 85.37 -1.34 L105.738 -22.067 L137.013 -15.066 V24.292 H125.018 Z M76.075 -61.654 V-67.27 H89.862 V-75.441 H76.075 V-94.843 H95.478 V-89.228 H81.691 V-81.057 H95.478 V-61.654 H76.075 Z M103.943 -61.654 V-94.843 H109.468 V-61.654 H103.943 Z M117.933 -61.654 V-94.843 H137.336 V-75.404 H123.549 V-61.654 H117.933 Z M123.549 -81.057 H131.72 V-89.228 H123.549 V-81.057 Z"/></g><g id="Medium-L" transform="matrix(1 0 0 1 1674.31 1556)"><path d="M125.176 22.978 Q108.006 22.978 89.187 13.851 Q70.368 4.725 53.928 -11.735 Q37.487 -28.037 28.34 -46.758 Q19.192 -65.479 19.192 -82.967 V-93.476 H55.333 L62.208 -62.295 L42.773 -42.998 Q47.06 -36.125 51.538 -30.292 Q56.017 -24.458 61.105 -19.412 Q66.754 -13.682 73.081 -8.743 Q79.407 -3.804 86.526 0.133 L105.948 -19.754 L135.646 -13.256 V22.978 H125.176 Z M75.444 -60.55 V-65.903 H89.231 V-74.337 H75.444 V-93.476 H94.584 V-88.124 H80.797 V-79.69 H94.584 V-60.55 H75.444 Z M103.049 -60.55 V-93.476 H108.364 V-60.55 H103.049 Z M116.829 -60.55 V-93.476 H135.969 V-74.321 H122.182 V-60.55 H116.829 Z M122.182 -79.69 H130.616 V-88.124 H122.182 V-79.69 Z"/></g><g id="Regular-L" transform="matrix(1 0 0 1 1378.56 1556)"><path d="M125.291 22.014 Q108.121 22.014 89.495 12.984 Q70.869 3.954 54.583 -12.332 Q38.297 -28.538 29.227 -47.162 Q20.156 -65.787 20.156 -83.121 V-92.474 H54.099 L60.549 -62.642 L41.925 -43.615 Q46.359 -36.439 50.995 -30.352 Q55.631 -24.265 60.872 -19.105 Q66.677 -13.219 73.273 -8.087 Q79.87 -2.956 87.375 1.213 L106.103 -18.057 L134.644 -11.929 V22.014 H125.291 Z M74.981 -59.74 V-64.9 H88.768 V-73.527 H74.981 V-92.474 H93.928 V-87.314 H80.141 V-78.687 H93.928 V-59.74 H74.981 Z M102.394 -59.74 V-92.474 H107.554 V-59.74 H102.394 Z M116.019 -59.74 V-92.474 H134.966 V-73.527 H121.179 V-59.74 H116.019 Z M121.179 -78.687 H129.806 V-87.314 H121.179 V-78.687 Z"/></g><g id="Light-L" transform="matrix(1 0 0 1 1082.77 1556)"><path d="M123.896 19.099 Q107.253 19.099 89.371 10.503 Q71.49 1.907 55.979 -13.728 Q40.406 -29.22 31.739 -47.12 Q23.071 -65.019 23.071 -81.726 V-89.559 H53.51 L59.619 -62.053 L41.522 -44.236 Q46.08 -36.656 50.84 -30.306 Q55.6 -23.955 60.872 -18.826 Q66.646 -12.878 73.397 -7.762 Q80.149 -2.645 88.298 1.833 L106.165 -16.692 L131.729 -11.278 V19.099 H123.896 Z M77.028 -60.05 V-64.776 H89.978 V-72.442 H77.028 V-89.559 H94.765 V-84.771 H81.816 V-77.229 H94.765 V-60.05 H77.028 Z M102.022 -60.05 V-89.559 H106.809 V-60.05 H102.022 Z M114.128 -60.05 V-89.559 H131.989 V-72.442 H118.916 V-60.05 H114.128 Z M118.916 -77.229 H127.201 V-84.771 H118.916 V-77.229 Z"/></g><g id="Thin-L" transform="matrix(1 0 0 1 787.282 1556)"><path d="M122.5 16.184 Q106.385 16.184 89.247 8.022 Q72.11 -0.139 57.374 -15.123 Q42.514 -29.902 34.25 -47.077 Q25.986 -64.252 25.986 -80.33 V-86.644 H52.921 L58.689 -61.464 L41.119 -44.856 Q45.801 -36.873 50.685 -30.259 Q55.569 -23.645 60.872 -18.547 Q66.615 -12.537 73.521 -7.436 Q80.428 -2.335 89.221 2.453 L106.227 -15.328 L128.814 -10.627 V16.184 H122.5 Z M79.074 -60.36 V-64.652 H91.187 V-71.356 H79.074 V-86.644 H95.603 V-82.228 H83.49 V-75.772 H95.603 V-60.36 H79.074 Z M101.65 -60.36 V-86.644 H106.065 V-60.36 H101.65 Z M112.236 -60.36 V-86.644 H129.012 V-71.356 H116.652 V-60.36 H112.236 Z M116.652 -75.772 H124.597 V-82.228 H116.652 V-75.772 Z"/></g><g id="Ultralight-L" transform="matrix(1 0 0 1 491.205 1556)"><path d="M121.663 14.435 Q105.864 14.435 89.173 6.534 Q72.482 -1.367 58.211 -15.961 Q43.779 -30.312 35.757 -47.052 Q27.735 -63.792 27.735 -79.493 V-84.895 H52.568 L58.131 -61.111 L40.877 -45.228 Q45.634 -37.004 50.592 -30.231 Q55.551 -23.459 60.872 -18.379 Q66.596 -12.332 73.596 -7.241 Q80.595 -2.149 89.775 2.825 L106.264 -14.509 L127.065 -10.236 V14.435 H121.663 Z M80.303 -60.546 V-64.577 H91.913 V-70.705 H80.303 V-84.895 H96.105 V-80.702 H84.495 V-74.897 H96.105 V-60.546 H80.303 Z M101.426 -60.546 V-84.895 H105.619 V-60.546 H101.426 Z M111.101 -60.546 V-84.895 H127.226 V-70.705 H115.294 V-60.546 H111.101 Z M115.294 -74.897 H123.034 V-80.702 H115.294 V-74.897 Z"/></g><g id="Bold-M" transform="matrix(1 0 0 1 2281.8 1126)"><path d="M98.438 12.77 Q83.235 12.77 67.524 5.645 Q51.812 -1.48 38.812 -14.23 Q25.875 -27.042 18.938 -42.355 Q12 -57.667 12 -73.542 V-83.23 H49.875 L56.312 -53.292 L38.938 -38.105 Q40.938 -34.667 43.531 -31.48 Q46.125 -28.292 49.312 -25.167 Q52.375 -22.23 55.469 -19.667 Q58.562 -17.105 61.732 -15.105 L79.125 -31.792 L108 -25.355 V12.77 H98.438 Z M61.5 -57.98 V-63.48 H71.375 V-67.855 H61.5 V-83.23 H76.875 V-77.73 H67 V-73.355 H76.875 V-57.98 H61.5 Z M82 -57.98 V-83.23 H87.5 V-57.98 H82 Z M92.625 -57.98 V-83.23 H108 V-67.855 H98.125 V-57.98 H92.625 Z M98.125 -73.355 H102.5 V-77.73 H98.125 V-73.355 Z"/></g><g id="Semibold-M" transform="matrix(1 0 0 1 1985.97 1126)"><path d="M98.655 10.922 Q83.452 10.922 68.094 4.015 Q52.736 -2.893 40.062 -15.398 Q27.451 -27.966 20.649 -43.089 Q13.848 -58.211 13.848 -73.814 V-81.382 H47.593 L53.215 -53.945 L37.361 -39.246 Q39.633 -35.265 42.526 -31.616 Q45.419 -27.966 48.878 -24.57 Q52.212 -21.306 55.822 -18.39 Q59.432 -15.475 63.363 -13.094 L79.397 -28.64 L106.152 -22.909 V10.922 H98.655 Z M60.63 -56.458 V-61.632 H70.505 V-66.333 H60.63 V-81.382 H75.679 V-76.208 H65.804 V-71.507 H75.679 V-56.458 H60.63 Z M80.804 -56.458 V-81.382 H85.978 V-56.458 H80.804 Z M91.103 -56.458 V-81.382 H106.152 V-66.333 H96.277 V-56.458 H91.103 Z M96.277 -71.507 H100.978 V-76.208 H96.277 V-71.507 Z"/></g><g id="Medium-M" transform="matrix(1 0 0 1 1689.91 1126)"><path d="M98.818 9.536 Q83.615 9.536 68.522 2.792 Q53.429 -3.953 41 -16.275 Q28.633 -28.659 21.933 -43.639 Q15.234 -58.619 15.234 -74.018 V-79.996 H45.88 L50.891 -54.434 L36.179 -40.102 Q38.655 -35.714 41.772 -31.718 Q44.889 -27.722 48.552 -24.121 Q52.09 -20.613 56.087 -17.432 Q60.084 -14.252 64.586 -11.586 L79.6 -26.276 L104.766 -21.075 V9.536 H98.818 Z M59.978 -55.317 V-60.246 H69.853 V-65.192 H59.978 V-79.996 H74.783 V-75.067 H64.908 V-70.121 H74.783 V-55.317 H59.978 Z M79.908 -55.317 V-79.996 H84.837 V-55.317 H79.908 Z M89.962 -55.317 V-79.996 H104.766 V-65.192 H94.891 V-55.317 H89.962 Z M94.891 -70.121 H99.837 V-75.067 H94.891 V-70.121 Z"/></g><g id="Regular-M" transform="matrix(1 0 0 1 1394.06 1126)"><path d="M98.938 8.52 Q83.735 8.52 68.836 1.895 Q53.938 -4.73 41.688 -16.917 Q29.5 -29.167 22.875 -44.042 Q16.25 -58.917 16.25 -74.167 V-78.98 H44.625 L49.188 -54.792 L35.312 -40.73 Q37.938 -36.042 41.219 -31.792 Q44.5 -27.542 48.312 -23.792 Q52 -20.105 56.281 -16.73 Q60.562 -13.355 65.482 -10.48 L79.75 -24.542 L103.75 -19.73 V8.52 H98.938 Z M59.5 -54.48 V-59.23 H69.375 V-64.355 H59.5 V-78.98 H74.125 V-74.23 H64.25 V-69.105 H74.125 V-54.48 H59.5 Z M79.25 -54.48 V-78.98 H84 V-54.48 H79.25 Z M89.125 -54.48 V-78.98 H103.75 V-64.355 H93.875 V-54.48 H89.125 Z M93.875 -69.105 H99 V-74.23 H93.875 V-69.105 Z"/></g><g id="Light-M" transform="matrix(1 0 0 1 1098.18 1126)"><path d="M97.231 6.26 Q83.014 6.26 68.884 -0.124 Q54.755 -6.509 43.034 -18.24 Q31.327 -29.985 24.918 -44.154 Q18.51 -58.323 18.51 -72.461 V-76.72 H43.447 L47.841 -54.72 L34.279 -41.5 Q37.24 -36.259 40.69 -31.708 Q44.139 -27.158 48.024 -23.336 Q51.88 -19.36 56.522 -15.828 Q61.163 -12.297 66.823 -9.086 L80.423 -22.763 L101.49 -18.552 V6.26 H97.231 Z M60.654 -54.528 V-58.749 H70.072 V-63.562 H60.654 V-76.72 H74.293 V-72.499 H64.875 V-67.783 H74.293 V-54.528 H60.654 Z M78.913 -54.528 V-76.72 H83.135 V-54.528 H78.913 Z M87.755 -54.528 V-76.72 H101.49 V-63.562 H91.976 V-54.528 H87.755 Z M91.976 -67.783 H97.269 V-72.499 H91.976 V-67.783 Z"/></g><g id="Thin-M" transform="matrix(1 0 0 1 802.565 1126)"><path d="M95.524 4.001 Q82.293 4.001 68.932 -2.143 Q55.572 -8.288 44.38 -19.562 Q33.154 -30.802 26.962 -44.265 Q20.769 -57.728 20.769 -70.754 V-74.461 H42.269 L46.495 -54.648 L33.245 -42.269 Q36.543 -36.475 40.161 -31.624 Q43.779 -26.773 47.736 -22.879 Q51.76 -18.615 56.762 -14.927 Q61.764 -11.24 68.164 -7.691 L81.096 -20.985 L99.231 -17.374 V4.001 H95.524 Z M61.808 -54.576 V-58.268 H70.769 V-62.768 H61.808 V-74.461 H74.462 V-70.768 H65.5 V-66.461 H74.462 V-54.576 H61.808 Z M78.577 -54.576 V-74.461 H82.269 V-54.576 H78.577 Z M86.385 -54.576 V-74.461 H99.231 V-62.768 H90.077 V-54.576 H86.385 Z M90.077 -66.461 H95.538 V-70.768 H90.077 V-66.461 Z"/></g><g id="Ultralight-M" transform="matrix(1 0 0 1 506.415 1126)"><path d="M94.5 2.645 Q81.86 2.645 68.961 -3.355 Q56.062 -9.355 45.188 -20.355 Q34.25 -31.292 28.188 -44.332 Q22.125 -57.371 22.125 -69.73 V-73.105 H41.562 L45.688 -54.605 L32.625 -42.731 Q36.125 -36.605 39.844 -31.574 Q43.562 -26.542 47.562 -22.605 Q51.688 -18.167 56.906 -14.386 Q62.125 -10.605 68.968 -6.855 L81.5 -19.917 L97.875 -16.667 V2.645 H94.5 Z M62.5 -54.605 V-57.98 H71.188 V-62.292 H62.5 V-73.105 H74.562 V-69.73 H65.875 V-65.667 H74.562 V-54.605 H62.5 Z M78.375 -54.605 V-73.105 H81.75 V-54.605 H78.375 Z M85.562 -54.605 V-73.105 H97.875 V-62.292 H88.938 V-54.605 H85.562 Z M88.938 -65.667 H94.5 V-69.73 H88.938 V-65.667 Z"/></g><g id="Bold-S" transform="matrix(1 0 0 1 2294.23 696)"><path d="M74.708 0.275 Q64.193 0.275 52.832 -5.051 Q41.472 -10.376 31.807 -19.844 Q22.191 -29.362 17.013 -40.457 Q11.835 -51.552 11.835 -62.598 V-70.834 H40.239 L45.417 -50.27 L31.412 -37.991 Q33.089 -35.279 35.086 -32.764 Q37.083 -30.249 39.445 -27.884 Q41.718 -25.663 44.011 -23.74 Q46.304 -21.817 48.904 -20.042 L63.021 -33.307 L82.845 -28.721 V0.275 H74.708 Z M43.79 -46.868 V-51.996 H53.159 V-56.237 H43.79 V-70.735 H58.287 V-65.606 H48.918 V-61.366 H58.287 V-46.868 H43.79 Z M63.12 -46.868 V-70.735 H68.249 V-46.868 H63.12 Z M73.081 -46.868 V-70.735 H87.579 V-56.237 H78.21 V-46.868 H73.081 Z M78.21 -61.366 H82.451 V-65.606 H78.21 V-61.366 Z"/></g><g id="Semibold-S" transform="matrix(1 0 0 1 1998.1 696)"><path d="M74.88 -1.183 Q64.364 -1.183 53.283 -6.337 Q42.201 -11.491 32.793 -20.766 Q23.434 -30.091 18.363 -41.036 Q13.293 -51.981 13.293 -62.813 V-69.376 H38.438 L42.973 -50.785 L30.169 -38.892 Q32.06 -35.751 34.293 -32.872 Q36.526 -29.992 39.102 -27.412 Q41.59 -24.934 44.29 -22.733 Q46.99 -20.531 50.19 -18.455 L63.236 -30.82 L81.387 -26.791 V-1.183 H74.88 Z M43.103 -45.667 V-50.538 H52.473 V-55.037 H43.103 V-69.277 H57.344 V-64.406 H47.975 V-59.908 H57.344 V-45.667 H43.103 Z M62.177 -45.667 V-69.277 H67.048 V-45.667 H62.177 Z M71.881 -45.667 V-69.277 H86.121 V-55.037 H76.752 V-45.667 H71.881 Z M76.752 -59.908 H81.25 V-64.406 H76.752 V-59.908 Z"/></g><g id="Medium-S" transform="matrix(1 0 0 1 1701.85 696)"><path d="M75.009 -2.276 Q64.493 -2.276 53.62 -7.302 Q42.748 -12.327 33.532 -21.458 Q24.367 -30.638 19.377 -41.47 Q14.386 -52.303 14.386 -62.974 V-68.282 H37.087 L41.14 -51.171 L29.236 -39.567 Q31.288 -36.105 33.698 -32.952 Q36.108 -29.799 38.845 -27.059 Q41.493 -24.388 44.499 -21.977 Q47.505 -19.566 51.155 -17.265 L63.397 -28.954 L80.294 -25.344 V-2.276 H75.009 Z M42.589 -44.767 V-49.445 H51.958 V-54.136 H42.589 V-68.184 H56.636 V-63.505 H47.267 V-58.814 H56.636 V-44.767 H42.589 Z M61.469 -44.767 V-68.184 H66.147 V-44.767 H61.469 Z M70.98 -44.767 V-68.184 H85.028 V-54.136 H75.658 V-44.767 H70.98 Z M75.658 -58.814 H80.349 V-63.505 H75.658 V-58.814 Z"/></g><g id="Regular-S" transform="matrix(1 0 0 1 1405.73 696)"><path d="M75.103 -3.078 Q64.587 -3.078 53.868 -8.009 Q43.148 -12.941 34.075 -21.965 Q25.051 -31.038 20.12 -41.789 Q15.188 -52.539 15.188 -63.092 V-67.48 H36.097 L39.795 -51.454 L28.552 -40.063 Q30.722 -36.364 33.261 -33.011 Q35.801 -29.658 38.656 -26.799 Q41.422 -23.987 44.652 -21.422 Q47.882 -18.858 51.863 -16.393 L63.515 -27.587 L79.492 -24.283 V-3.078 H75.103 Z M42.212 -44.106 V-48.643 H51.581 V-53.476 H42.212 V-67.382 H56.118 V-62.845 H46.748 V-58.012 H56.118 V-44.106 H42.212 Z M60.95 -44.106 V-67.382 H65.487 V-44.106 H60.95 Z M70.32 -44.106 V-67.382 H84.226 V-53.476 H74.856 V-44.106 H70.32 Z M74.856 -58.012 H79.689 V-62.845 H74.856 V-58.012 Z"/></g><g id="Light-S" transform="matrix(1 0 0 1 1109.75 696)"><path d="M73.756 -4.861 Q64.018 -4.861 53.906 -9.603 Q43.793 -14.344 35.137 -23.008 Q26.492 -31.683 21.732 -41.876 Q16.971 -52.069 16.971 -61.745 V-65.697 H35.167 L38.733 -51.397 L27.736 -40.67 Q30.172 -36.535 32.844 -32.945 Q35.516 -29.354 38.428 -26.439 Q41.328 -23.399 44.842 -20.711 Q48.357 -18.024 52.921 -15.292 L64.046 -26.183 L77.709 -23.353 V-4.861 H73.756 Z M43.122 -44.144 V-48.264 H52.131 V-52.85 H43.122 V-65.599 H56.25 V-61.479 H47.241 V-56.969 H56.25 V-44.144 H43.122 Z M60.685 -44.144 V-65.599 H64.804 V-44.144 H60.685 Z M69.238 -44.144 V-65.599 H82.443 V-52.85 H73.358 V-44.144 H69.238 Z M73.358 -56.969 H78.323 V-61.479 H73.358 V-56.969 Z"/></g><g id="Thin-S" transform="matrix(1 0 0 1 814.015 696)"><path d="M72.41 -6.644 Q63.449 -6.644 53.944 -11.196 Q44.438 -15.748 36.199 -24.051 Q27.934 -32.328 23.344 -41.964 Q18.754 -51.6 18.754 -60.398 V-63.915 H34.238 L37.671 -51.34 L26.921 -41.277 Q29.622 -36.706 32.427 -32.878 Q35.232 -29.051 38.201 -26.078 Q41.233 -22.811 45.032 -20 Q48.831 -17.189 53.978 -14.192 L64.577 -24.78 L75.926 -22.424 V-6.644 H72.41 Z M44.032 -44.182 V-47.884 H52.681 V-52.224 H44.032 V-63.816 H56.383 V-60.114 H47.735 V-55.926 H56.383 V-44.182 H44.032 Z M60.419 -44.182 V-63.816 H64.121 V-44.182 H60.419 Z M68.157 -44.182 V-63.816 H80.66 V-52.224 H71.86 V-44.182 H68.157 Z M71.86 -55.926 H76.958 V-60.114 H71.86 V-55.926 Z"/></g><g id="Ultralight-S" transform="matrix(1 0 0 1 517.792 696)"><path d="M71.602 -7.714 Q63.108 -7.714 53.967 -12.152 Q44.825 -16.59 36.836 -24.677 Q28.799 -32.715 24.311 -42.017 Q19.824 -51.318 19.824 -59.59 V-62.845 H33.68 L37.034 -51.306 L26.431 -41.641 Q29.292 -36.808 32.176 -32.838 Q35.061 -28.869 38.064 -25.862 Q41.176 -22.458 45.146 -19.573 Q49.115 -16.688 54.613 -13.532 L64.895 -23.937 L74.856 -21.866 V-7.714 H71.602 Z M44.579 -44.205 V-47.657 H53.011 V-51.848 H44.579 V-62.746 H56.463 V-59.294 H48.03 V-55.3 H56.463 V-44.205 H44.579 Z M60.26 -44.205 V-62.746 H63.712 V-44.205 H60.26 Z M67.509 -44.205 V-62.746 H79.59 V-51.848 H70.961 V-44.205 H67.509 Z M70.961 -55.3 H76.139 V-59.294 H70.961 V-55.3 Z"/></g></g></svg>