<svg xmlns="http://www.w3.org/2000/svg" version="1.1" width="3300" height="2000"><g id="Notes"><style>
    text {
      font-family: monospace;
      text-anchor: middle;
    }
    text.emphasis {
      font-weight:bold;
    }
    text.lanchor {
      text-anchor: start;
    }
  </style><rect height="2200" id="artboard" fill="white" width="3300" x="0" y="0"/><line id="" style="fill:none;stroke:black;stroke-width:0.5;" x1="263" x2="3036" y1="292" y2="292"/><text class="lanchor emphasis" transform="matrix(1 0 0 1 263 322)">Weight/Scale Variations</text><text transform="matrix(1 0 0 1 559.711 322)">Ultralight</text><text transform="matrix(1 0 0 1 856.422 322)">Thin</text><text transform="matrix(1 0 0 1 1153.13 322)">Light</text><text transform="matrix(1 0 0 1 1449.84 322)">Regular</text><text transform="matrix(1 0 0 1 1746.56 322)">Medium</text><text transform="matrix(1 0 0 1 2043.27 322)">Semibold</text><text transform="matrix(1 0 0 1 2339.98 322)">Bold</text><text transform="matrix(1 0 0 1 2636.69 322)">Heavy</text><text transform="matrix(1 0 0 1 2933.4 322)">Black</text><text id="template-version" style="text-anchor: end;" transform="matrix(1 0 0 1 3036 1933)">Template v.1.0</text><text class="lanchor" transform="matrix(1 0 0 1 263 726)">Small</text><text class="lanchor" transform="matrix(1 0 0 1 263 1156)">Medium</text><text class="lanchor" transform="matrix(1 0 0 1 263 1586)">Large</text></g><g id="Guides"><g id="H-reference" style="fill:#27AAE1;stroke:none;" transform="matrix(1 0 0 1 339 696)"><path d="M 54.9316 0 L 57.666 0 L 30.5664 -70.459 L 28.0762 -70.459 L 0.976562 0 L 3.66211 0 L 12.9395 -24.4629 L 45.7031 -24.4629 Z M 29.1992 -67.0898 L 29.4434 -67.0898 L 44.8242 -26.709 L 13.8184 -26.709 Z"/></g><line id="Baseline-S" style="fill:none;stroke:#27AAE1;opacity:1;stroke-width:0.577;" x1="263" x2="3036" y1="696" y2="696"/><line id="Capline-S" style="fill:none;stroke:#27AAE1;opacity:1;stroke-width:0.577;" x1="263" x2="3036" y1="625.541" y2="625.541"/><g id="H-reference" style="fill:#27AAE1;stroke:none;" transform="matrix(1 0 0 1 339 1126)"><path d="M 54.9316 0 L 57.666 0 L 30.5664 -70.459 L 28.0762 -70.459 L 0.976562 0 L 3.66211 0 L 12.9395 -24.4629 L 45.7031 -24.4629 Z M 29.1992 -67.0898 L 29.4434 -67.0898 L 44.8242 -26.709 L 13.8184 -26.709 Z"/></g><line id="Baseline-M" style="fill:none;stroke:#27AAE1;opacity:1;stroke-width:0.577;" x1="263" x2="3036" y1="1126" y2="1126"/><line id="Capline-M" style="fill:none;stroke:#27AAE1;opacity:1;stroke-width:0.577;" x1="263" x2="3036" y1="1055.54" y2="1055.54"/><g id="H-reference" style="fill:#27AAE1;stroke:none;" transform="matrix(1 0 0 1 339 1556)"><path d="M 54.9316 0 L 57.666 0 L 30.5664 -70.459 L 28.0762 -70.459 L 0.976562 0 L 3.66211 0 L 12.9395 -24.4629 L 45.7031 -24.4629 Z M 29.1992 -67.0898 L 29.4434 -67.0898 L 44.8242 -26.709 L 13.8184 -26.709 Z"/></g><line id="Baseline-L" style="fill:none;stroke:#27AAE1;opacity:1;stroke-width:0.577;" x1="263" x2="3036" y1="1556" y2="1556"/><line id="Capline-L" style="fill:none;stroke:#27AAE1;opacity:1;stroke-width:0.577;" x1="263" x2="3036" y1="1485.54" y2="1485.54"/><rect height="119.336" id="left-margin" style="fill:darkred;stroke:none;opacity:0.4;" width="12.4512" x="1394.06" y="1030.79"/><rect height="119.336" id="right-margin" style="fill:darkgreen;stroke:none;opacity:0.4;" width="12.4512" x="1502.5112" y="1030.79"/><rect x="1406.5112" y="1045" width="96" height="96" fill="none" stroke="blue" stroke-dasharray="5"/><rect x="1394.06" y="1030.79" width="120.9024" height="119.336" fill="none" stroke="blue"/></g><g id="Symbols"><g id="Bold-L" transform="matrix(1 0 0 1 2266 1556)"><path d="M56.76 26.126 Q39.715 26.126 27.879 14.291 Q16.044 2.455 16.044 -14.59 V-55.87 Q16.044 -72.915 27.879 -84.831 Q39.715 -96.747 56.76 -96.747 H98.04 Q115.085 -96.747 127.001 -84.831 Q138.917 -72.915 138.917 -55.87 V-14.59 Q138.917 2.455 127.001 14.291 Q115.085 26.126 98.04 26.126 H56.76 Z M70.547 -9.349  109.972 -48.775  102.071 -56.757  70.547 -25.232  54.986 -40.874  47.004 -32.892  70.547 -9.349 Z"/></g><g id="Semibold-L" transform="matrix(1 0 0 1 1970.27 1556)"><path d="M56.76 24.373 Q40.427 24.373 29.112 13.058 Q17.797 1.743 17.797 -14.59 V-55.87 Q17.797 -72.203 29.112 -83.563 Q40.427 -94.924 56.76 -94.924 H98.04 Q114.373 -94.924 125.733 -83.563 Q137.094 -72.203 137.094 -55.87 V-14.59 Q137.094 1.743 125.733 13.058 Q114.373 24.373 98.04 24.373 H56.76 Z M70.687 -9.91  109.552 -48.775  102.212 -56.196  70.687 -24.672  55.127 -40.313  47.705 -32.892  70.687 -9.91 Z"/></g><g id="Medium-L" transform="matrix(1 0 0 1 1674.31 1556)"><path d="M56.76 23.058 Q40.962 23.058 30.037 12.133 Q19.112 1.208 19.112 -14.59 V-55.87 Q19.112 -71.668 30.037 -82.613 Q40.962 -93.557 56.76 -93.557 H98.04 Q113.838 -93.557 124.783 -82.613 Q135.727 -71.668 135.727 -55.87 V-14.59 Q135.727 1.208 124.783 12.133 Q113.838 23.058 98.04 23.058 H56.76 Z M70.792 -10.331  109.236 -48.775  102.317 -55.775  70.792 -24.251  55.232 -39.892  48.231 -32.892  70.792 -10.331 Z"/></g><g id="Regular-L" transform="matrix(1 0 0 1 1378.56 1556)"><path d="M56.76 22.094 Q41.354 22.094 30.715 11.455 Q20.076 0.816 20.076 -14.59 V-55.87 Q20.076 -71.276 30.715 -81.915 Q41.354 -92.554 56.76 -92.554 H98.04 Q113.446 -92.554 124.085 -81.915 Q134.724 -71.276 134.724 -55.87 V-14.59 Q134.724 0.816 124.085 11.455 Q113.446 22.094 98.04 22.094 H56.76 Z M70.869 -10.639  109.005 -48.775  102.394 -55.467  70.869 -23.942  55.309 -39.584  48.617 -32.892  70.869 -10.639 Z"/></g><g id="Light-L" transform="matrix(1 0 0 1 1082.77 1556)"><path d="M57.07 19.148 Q42.793 19.148 32.908 9.262 Q23.022 -0.623 23.022 -14.9 V-55.56 Q23.022 -69.837 32.908 -79.722 Q42.793 -89.608 57.07 -89.608 H97.73 Q112.007 -89.608 121.892 -79.722 Q131.778 -69.837 131.778 -55.56 V-14.9 Q131.778 -0.623 121.892 9.262 Q112.007 19.148 97.73 19.148 H57.07 Z M70.9 -12.531  107.02 -48.651  101.991 -53.792  70.9 -22.702  55.712 -37.94  50.571 -32.799  70.9 -12.531 Z"/></g><g id="Thin-L" transform="matrix(1 0 0 1 787.282 1556)"><path d="M57.38 16.203 Q44.233 16.203 35.1 7.07 Q25.967 -2.063 25.967 -15.21 V-55.25 Q25.967 -68.397 35.1 -77.53 Q44.233 -86.663 57.38 -86.663 H97.42 Q110.567 -86.663 119.7 -77.53 Q128.833 -68.397 128.833 -55.25 V-15.21 Q128.833 -2.063 119.7 7.07 Q110.567 16.203 97.42 16.203 H57.38 Z M70.931 -14.422  105.036 -48.527  101.588 -52.118  70.931 -21.462  56.115 -36.297  52.524 -32.706  70.931 -14.422 Z"/></g><g id="Ultralight-L" transform="matrix(1 0 0 1 491.205 1556)"><path d="M57.566 14.435 Q45.096 14.435 36.416 5.754 Q27.735 -2.926 27.735 -15.396 V-55.064 Q27.735 -67.534 36.416 -76.214 Q45.096 -84.895 57.566 -84.895 H97.234 Q109.704 -84.895 118.384 -76.214 Q127.065 -67.534 127.065 -55.064 V-15.396 Q127.065 -2.926 118.384 5.754 Q109.704 14.435 97.234 14.435 H57.566 Z M70.95 -15.557  103.845 -48.452  101.346 -51.113  70.95 -20.717  56.357 -35.311  53.696 -32.65  70.95 -15.557 Z"/></g><g id="Bold-M" transform="matrix(1 0 0 1 2281.8 1126)"><path d="M45.25 12.895 Q31.344 12.895 21.609 3.161 Q11.875 -6.574 11.875 -20.48 V-49.98 Q11.875 -63.886 21.609 -73.621 Q31.344 -83.355 45.25 -83.355 H74.75 Q88.656 -83.355 98.391 -73.621 Q108.125 -63.886 108.125 -49.98 V-20.48 Q108.125 -6.574 98.391 3.161 Q88.656 12.895 74.75 12.895 H45.25 Z M54.75 -14.48  85.25 -44.98  77.312 -52.917  54.75 -30.355  43.812 -41.292  35.875 -33.355  54.75 -14.48 Z"/></g><g id="Semibold-M" transform="matrix(1 0 0 1 1985.97 1126)"><path d="M45.25 11.047 Q32.114 11.047 22.918 1.852 Q13.723 -7.344 13.723 -20.48 V-49.98 Q13.723 -63.116 22.918 -72.312 Q32.114 -81.507 45.25 -81.507 H74.75 Q87.886 -81.507 97.082 -72.312 Q106.277 -63.116 106.277 -49.98 V-20.48 Q106.277 -7.344 97.082 1.852 Q87.886 11.047 74.75 11.047 H45.25 Z M54.913 -15.078  84.815 -44.98  77.475 -52.32  54.913 -29.757  43.975 -40.695  36.636 -33.355  54.913 -15.078 Z"/></g><g id="Medium-M" transform="matrix(1 0 0 1 1689.91 1126)"><path d="M45.25 9.661 Q32.691 9.661 23.9 0.87 Q15.109 -7.921 15.109 -20.48 V-49.98 Q15.109 -62.539 23.9 -71.33 Q32.691 -80.121 45.25 -80.121 H74.75 Q87.309 -80.121 96.1 -71.33 Q104.891 -62.539 104.891 -49.98 V-20.48 Q104.891 -7.921 96.1 0.87 Q87.309 9.661 74.75 9.661 H45.25 Z M55.035 -15.526  84.489 -44.98  77.598 -51.871  55.035 -29.309  44.098 -40.246  37.206 -33.355  55.035 -15.526 Z"/></g><g id="Regular-M" transform="matrix(1 0 0 1 1394.06 1126)"><path d="M45.25 8.645 Q33.115 8.645 24.62 0.15 Q16.125 -8.345 16.125 -20.48 V-49.98 Q16.125 -62.115 24.62 -70.61 Q33.115 -79.105 45.25 -79.105 H74.75 Q86.885 -79.105 95.38 -70.61 Q103.875 -62.115 103.875 -49.98 V-20.48 Q103.875 -8.345 95.38 0.15 Q86.885 8.645 74.75 8.645 H45.25 Z M55.125 -15.855  84.25 -44.98  77.688 -51.542  55.125 -28.98  44.188 -39.917  37.625 -33.355  55.125 -15.855 Z"/></g><g id="Light-M" transform="matrix(1 0 0 1 1098.18 1126)"><path d="M45.202 6.361 Q34.038 6.361 26.224 -1.453 Q18.409 -9.268 18.409 -20.432 V-50.028 Q18.409 -61.192 26.224 -69.006 Q34.038 -76.821 45.202 -76.821 H74.798 Q85.962 -76.821 93.776 -69.006 Q101.591 -61.192 101.591 -50.028 V-20.432 Q101.591 -9.268 93.776 -1.453 Q85.962 6.361 74.798 6.361 H45.202 Z M55.101 -17.466  82.663 -45.028  77.76 -49.956  55.101 -27.297  44.163 -38.259  39.236 -33.331  55.101 -17.466 Z"/></g><g id="Thin-M" transform="matrix(1 0 0 1 802.565 1126)"><path d="M45.154 4.078 Q34.962 4.078 27.827 -3.057 Q20.692 -10.191 20.692 -20.384 V-50.076 Q20.692 -60.268 27.827 -67.403 Q34.962 -74.538 45.154 -74.538 H74.846 Q85.038 -74.538 92.173 -67.403 Q99.308 -60.268 99.308 -50.076 V-20.384 Q99.308 -10.191 92.173 -3.057 Q85.038 4.078 74.846 4.078 H45.154 Z M55.077 -19.076  81.077 -45.076  77.832 -48.369  55.077 -25.615  44.139 -36.6  40.846 -33.307  55.077 -19.076 Z"/></g><g id="Ultralight-M" transform="matrix(1 0 0 1 506.415 1126)"><path d="M45.125 2.708 Q35.516 2.708 28.789 -4.019 Q22.062 -10.746 22.062 -20.355 V-50.105 Q22.062 -59.714 28.789 -66.441 Q35.516 -73.167 45.125 -73.167 H74.875 Q84.484 -73.167 91.211 -66.441 Q97.938 -59.714 97.938 -50.105 V-20.355 Q97.938 -10.746 91.211 -4.019 Q84.484 2.708 74.875 2.708 H45.125 Z M55.062 -20.042  80.125 -45.105  77.875 -47.417  55.062 -24.605  44.125 -35.605  41.812 -33.292  55.062 -20.042 Z"/></g><g id="Bold-S" transform="matrix(1 0 0 1 2294.23 696)"><path d="M35.702 0.374 Q25.716 0.374 18.726 -6.616 Q11.736 -13.606 11.736 -23.592 V-46.868 Q11.736 -56.854 18.726 -63.844 Q25.716 -70.834 35.702 -70.834 H58.978 Q68.964 -70.834 75.954 -63.844 Q82.944 -56.854 82.944 -46.868 V-23.592 Q82.944 -13.606 75.954 -6.616 Q68.964 0.374 58.978 0.374 H35.702 Z M42.113 -22.113  62.627 -42.528  56.857 -48.298  42.113 -33.652  35.456 -40.211  29.785 -34.441  42.113 -22.113 Z"/></g><g id="Semibold-S" transform="matrix(1 0 0 1 1998.1 696)"><path d="M35.702 -1.084 Q26.324 -1.084 19.759 -7.649 Q13.194 -14.214 13.194 -23.592 V-46.868 Q13.194 -56.246 19.759 -62.811 Q26.324 -69.376 35.702 -69.376 H58.978 Q68.356 -69.376 74.921 -62.811 Q81.486 -56.246 81.486 -46.868 V-23.592 Q81.486 -14.214 74.921 -7.649 Q68.356 -1.084 58.978 -1.084 H35.702 Z M42.241 -22.584  62.284 -42.528  56.986 -47.826  42.241 -33.18  35.584 -39.739  30.385 -34.441  42.241 -22.584 Z"/></g><g id="Medium-S" transform="matrix(1 0 0 1 1701.85 696)"><path d="M35.702 -2.178 Q26.78 -2.178 20.534 -8.424 Q14.288 -14.67 14.288 -23.592 V-46.868 Q14.288 -55.79 20.534 -62.036 Q26.78 -68.282 35.702 -68.282 H58.978 Q67.9 -68.282 74.146 -62.036 Q80.392 -55.79 80.392 -46.868 V-23.592 Q80.392 -14.67 74.146 -8.424 Q67.9 -2.178 58.978 -2.178 H35.702 Z M42.338 -22.938  62.027 -42.528  57.082 -47.472  42.338 -32.827  35.681 -39.385  30.835 -34.441  42.338 -22.938 Z"/></g><g id="Regular-S" transform="matrix(1 0 0 1 1405.73 696)"><path d="M35.702 -2.98 Q27.114 -2.98 21.102 -8.992 Q15.09 -15.004 15.09 -23.592 V-46.868 Q15.09 -55.456 21.102 -61.468 Q27.114 -67.48 35.702 -67.48 H58.978 Q67.566 -67.48 73.578 -61.468 Q79.59 -55.456 79.59 -46.868 V-23.592 Q79.59 -15.004 73.578 -8.992 Q67.566 -2.98 58.978 -2.98 H35.702 Z M42.409 -23.198  61.838 -42.528  57.153 -47.213  42.409 -32.567  35.752 -39.126  31.166 -34.441  42.409 -23.198 Z"/></g><g id="Light-S" transform="matrix(1 0 0 1 1109.75 696)"><path d="M35.664 -4.782 Q27.842 -4.782 22.367 -10.257 Q16.892 -15.732 16.892 -23.554 V-46.906 Q16.892 -54.728 22.367 -60.203 Q27.842 -65.678 35.664 -65.678 H59.016 Q66.838 -65.678 72.313 -60.203 Q77.788 -54.728 77.788 -46.906 V-23.554 Q77.788 -15.732 72.313 -10.257 Q66.838 -4.782 59.016 -4.782 H35.664 Z M42.39 -24.469  60.586 -42.566  57.21 -45.961  42.39 -31.239  35.733 -37.817  32.436 -34.422  42.39 -24.469 Z"/></g><g id="Thin-S" transform="matrix(1 0 0 1 814.015 696)"><path d="M35.626 -6.583 Q28.571 -6.583 23.632 -11.522 Q18.693 -16.461 18.693 -23.516 V-46.944 Q18.693 -53.999 23.632 -58.938 Q28.571 -63.877 35.626 -63.877 H59.054 Q66.109 -63.877 71.048 -58.938 Q75.987 -53.999 75.987 -46.944 V-23.516 Q75.987 -16.461 71.048 -11.522 Q66.109 -6.583 59.054 -6.583 H35.626 Z M42.371 -25.739  59.334 -42.604  57.267 -44.709  42.371 -29.912  35.714 -36.508  33.707 -34.403  42.371 -25.739 Z"/></g><g id="Ultralight-S" transform="matrix(1 0 0 1 517.792 696)"><path d="M35.604 -7.664 Q29.008 -7.664 24.391 -12.281 Q19.774 -16.898 19.774 -23.494 V-46.966 Q19.774 -53.562 24.391 -58.179 Q29.008 -62.796 35.604 -62.796 H59.076 Q65.672 -62.796 70.289 -58.179 Q74.906 -53.562 74.906 -46.966 V-23.494 Q74.906 -16.898 70.289 -12.281 Q65.672 -7.664 59.076 -7.664 H35.604 Z M42.359 -26.502  58.583 -42.627  57.301 -43.958  42.359 -29.115  35.702 -35.723  34.469 -34.392  42.359 -26.502 Z"/></g></g></svg>