<svg xmlns="http://www.w3.org/2000/svg" height="20" viewBox="0 -960 960 960" width="20"><path d="M480-480ZM218.87-161.696q-43.905 0-74.54-30.646-30.634-30.647-30.634-74.568v-426.504q0-43.921 30.634-74.406 30.635-30.484 74.54-30.484h522.26q43.905 0 74.54 30.616 30.634 30.616 30.634 74.494v225.864q0 21.625-15.413 37.249-15.413 15.624-36.963 15.624t-37.174-15.474q-15.624-15.474-15.624-37.113V-693.13H218.87v426.26h322.086q21.639 0 37.113 15.414 15.474 15.413 15.474 36.963t-15.474 37.174q-15.474 15.623-37.113 15.623H218.87Zm522.493 0h-19.529q-21.689 0-37.196-15.473-15.508-15.474-15.508-37.114 0-21.639 15.508-37.113 15.507-15.474 37.196-15.474h19.529v-19.413q0-21.639 15.508-37.113 15.507-15.474 37.057-15.474 21.55 0 36.963 15.474t15.413 37.113v19.413h19.203q21.55 0 37.174 15.414 15.623 15.413 15.623 36.963t-15.473 37.057q-15.474 15.507-37.114 15.507h-19.413v19.53q0 21.689-15.473 37.196-15.474 15.507-37.114 15.507-21.339 0-36.846-15.473-15.508-15.474-15.508-37.114v-19.413ZM566.245-368h61.799q25.475 0 44.118-16.475 18.642-16.475 18.642-41.438v4.152q0-15.478-10.235-28.717-10.235-13.239-25.243-13.239-12.239 0-23.478 9.5t-13.239 22.005v-.505h-41.131v-94.566h41.131v-.505q2 12.505 13.239 21.505 11.239 9 23.478 9 14.207 0 24.843-12.362 10.635-12.363 10.635-27.594v3.332q0-24.614-18.424-41.354Q653.956-592 628.391-592h-62.434q-25.682 0-43.917 18.303-18.236 18.303-18.236 44.084v98.636q0 25.781 18.318 44.379Q540.441-368 566.245-368Zm-234.848 0h61.799q25.577 0 44.288-16.475 18.712-16.475 18.712-41.438v4.152q0-15.478-10.355-28.717-10.355-13.239-25.363-13.239-12.239 0-23.478 9.5t-13.239 22.005v-.505H342.63v-94.566h41.131v-.505q2 12.505 13.239 21.505 11.239 9 23.478 9 14.311 0 25.014-12.362 10.704-12.363 10.704-27.594v3.332q0-24.614-18.493-41.354Q419.21-592 393.543-592h-62.434q-25.682 0-43.798 18.303-18.115 18.303-18.115 44.084v98.636q0 25.781 18.198 44.379Q305.593-368 331.397-368Z"/></svg>