<svg xmlns="http://www.w3.org/2000/svg" height="24" viewBox="0 -960 960 960" width="24"><path d="M480-480ZM210.783-149.782q-42.305 0-71.653-29.348-29.348-29.348-29.348-71.653v-458.434q0-42.305 29.348-71.653 29.348-29.348 71.653-29.348h538.434q42.305 0 71.653 29.348 29.348 29.348 29.348 71.653v250.455q0 20.587-14.956 35.544-14.957 14.956-35.544 14.956-20.588 0-35.544-14.956-14.957-14.957-14.957-35.544v-250.455H210.783v458.434h330.455q20.587 0 35.544 14.957 14.956 14.956 14.956 35.544 0 20.587-14.956 35.544-14.957 14.956-35.544 14.956H210.783Zm538.434 0h-29.499q-20.588 0-35.544-14.956-14.957-14.957-14.957-35.544 0-20.588 14.957-35.544 14.956-14.957 35.544-14.957h29.499v-29.499q0-20.588 14.957-35.544 14.956-14.957 35.544-14.957 20.587 0 35.544 14.957 14.956 14.956 14.956 35.544v29.499h29.5q20.587 0 35.544 14.957 14.956 14.956 14.956 35.544 0 20.587-14.956 35.544-14.957 14.956-35.544 14.956h-29.5v29.5q0 20.587-14.956 35.544-14.957 14.956-35.544 14.956-20.588 0-35.544-14.956-14.957-14.957-14.957-35.544v-29.5ZM562.718-363h93.998q20.588 0 35.544-14.088 14.957-14.087 14.957-34.152v-9.064q0-14.261-9.371-24.772t-23.086-10.511q-12.565 0-22.228 8.815-9.663 8.815-10.794 21.381v.869h-63.477v-110.956h63.477v.869q1.131 12.566 10.794 21.098 9.663 8.533 22.228 8.533 13.715 0 23.086-10.228 9.371-10.229 9.371-24.49v-9.064q0-20.065-14.957-34.152Q677.304-597 656.716-597h-93.998q-20.588 0-35.544 14.957-14.957 14.956-14.957 35.544v132.998q0 20.588 14.957 35.544Q542.13-363 562.718-363Zm-259.434 0h93.998q20.588 0 35.544-14.088 14.957-14.087 14.957-34.152v-9.064q0-14.261-9.371-24.772t-23.086-10.511q-12.565 0-22.228 8.815-9.663 8.815-10.794 21.381v.869h-63.477v-110.956h63.477v.869q1.131 12.566 10.794 21.098 9.663 8.533 22.228 8.533 13.715 0 23.086-10.228 9.371-10.229 9.371-24.49v-9.064q0-20.065-14.957-34.152Q417.87-597 397.282-597h-93.998q-20.588 0-35.544 14.957-14.957 14.956-14.957 35.544v132.998q0 20.588 14.957 35.544Q282.696-363 303.284-363Z"/></svg>