<svg xmlns="http://www.w3.org/2000/svg" height="48" viewBox="0 -960 960 960" width="48"><path d="M555-361h119.08q7.92 2 15.92-1t15-9q-2 .889-4 2t-4 2q8-6 13.5-15.786Q716-392.571 716-403l-1-8q0-12.233-7.983-21.617Q699.034-442 686.884-442 675-442 666.5-434.328t-8.5 18.64v.688h-87v-130h87v.733q0 11.267 8.616 18.767 8.617 7.5 20.5 7.5 12.151 0 20.017-9.167Q715-536.333 715-549v-11q0-15.75-12.175-27.375T674-599H555q-17.75 0-29.875 12.175T513-558v155q0 17.75 12.125 29.875T555-361ZM180-147q-29 0-51-22t-22-51v-520q0-29 22-51t51-22h600q29 0 51 22t22 51v357q0 11-8 17.5t-19 5.5q-37.459-2-72.229 11-34.771 13-61.582 39.797-27.522 27.507-40.856 62.855Q638-211 641-174q0 10.8-6.499 18.9-6.5 8.1-17.501 8.1H180Zm600 0h-43q-15.75 0-26.375-10.86Q700-168.719 700-183.86q0-15.14 10.625-25.64T737-220h43v-44q0-14.775 10.86-25.388Q801.719-300 816.86-300q15.14 0 25.64 10.612Q853-278.775 853-264v44h44q14.775 0 25.388 10.675Q933-198.649 933-183.509q0 15.141-10.612 25.825Q911.775-147 897-147h-44v43q0 15.75-10.675 26.375Q831.649-67 816.509-67q-15.141 0-25.825-10.625T780-104v-43ZM288-361h119q16.65 0 28.825-11.538Q448-384.075 448-401v-11q0-12.233-8.483-21.617Q431.034-443 418.884-443q-11.017 0-19.451 8.172-8.433 8.172-8.433 19.14v.688h-87v-130h87v.733q0 11.267 8.616 18.767 8.617 7.5 20.5 7.5 12.151 0 20.017-9.167Q448-536.333 448-549v-11q0-15.75-12.175-27.375T407-599H288q-17.75 0-29.875 12.175T246-558v155q0 17.75 12.125 29.875T288-361Z"/></svg>