<svg xmlns="http://www.w3.org/2000/svg" version="1.1" width="3300" height="2000"><g id="Notes"><style>
    text {
      font-family: monospace;
      text-anchor: middle;
    }
    text.emphasis {
      font-weight:bold;
    }
    text.lanchor {
      text-anchor: start;
    }
  </style><rect height="2200" id="artboard" fill="white" width="3300" x="0" y="0"/><line id="" style="fill:none;stroke:black;stroke-width:0.5;" x1="263" x2="3036" y1="292" y2="292"/><text class="lanchor emphasis" transform="matrix(1 0 0 1 263 322)">Weight/Scale Variations</text><text transform="matrix(1 0 0 1 559.711 322)">Ultralight</text><text transform="matrix(1 0 0 1 856.422 322)">Thin</text><text transform="matrix(1 0 0 1 1153.13 322)">Light</text><text transform="matrix(1 0 0 1 1449.84 322)">Regular</text><text transform="matrix(1 0 0 1 1746.56 322)">Medium</text><text transform="matrix(1 0 0 1 2043.27 322)">Semibold</text><text transform="matrix(1 0 0 1 2339.98 322)">Bold</text><text transform="matrix(1 0 0 1 2636.69 322)">Heavy</text><text transform="matrix(1 0 0 1 2933.4 322)">Black</text><text id="template-version" style="text-anchor: end;" transform="matrix(1 0 0 1 3036 1933)">Template v.1.0</text><text class="lanchor" transform="matrix(1 0 0 1 263 726)">Small</text><text class="lanchor" transform="matrix(1 0 0 1 263 1156)">Medium</text><text class="lanchor" transform="matrix(1 0 0 1 263 1586)">Large</text></g><g id="Guides"><g id="H-reference" style="fill:#27AAE1;stroke:none;" transform="matrix(1 0 0 1 339 696)"><path d="M 54.9316 0 L 57.666 0 L 30.5664 -70.459 L 28.0762 -70.459 L 0.976562 0 L 3.66211 0 L 12.9395 -24.4629 L 45.7031 -24.4629 Z M 29.1992 -67.0898 L 29.4434 -67.0898 L 44.8242 -26.709 L 13.8184 -26.709 Z"/></g><line id="Baseline-S" style="fill:none;stroke:#27AAE1;opacity:1;stroke-width:0.577;" x1="263" x2="3036" y1="696" y2="696"/><line id="Capline-S" style="fill:none;stroke:#27AAE1;opacity:1;stroke-width:0.577;" x1="263" x2="3036" y1="625.541" y2="625.541"/><g id="H-reference" style="fill:#27AAE1;stroke:none;" transform="matrix(1 0 0 1 339 1126)"><path d="M 54.9316 0 L 57.666 0 L 30.5664 -70.459 L 28.0762 -70.459 L 0.976562 0 L 3.66211 0 L 12.9395 -24.4629 L 45.7031 -24.4629 Z M 29.1992 -67.0898 L 29.4434 -67.0898 L 44.8242 -26.709 L 13.8184 -26.709 Z"/></g><line id="Baseline-M" style="fill:none;stroke:#27AAE1;opacity:1;stroke-width:0.577;" x1="263" x2="3036" y1="1126" y2="1126"/><line id="Capline-M" style="fill:none;stroke:#27AAE1;opacity:1;stroke-width:0.577;" x1="263" x2="3036" y1="1055.54" y2="1055.54"/><g id="H-reference" style="fill:#27AAE1;stroke:none;" transform="matrix(1 0 0 1 339 1556)"><path d="M 54.9316 0 L 57.666 0 L 30.5664 -70.459 L 28.0762 -70.459 L 0.976562 0 L 3.66211 0 L 12.9395 -24.4629 L 45.7031 -24.4629 Z M 29.1992 -67.0898 L 29.4434 -67.0898 L 44.8242 -26.709 L 13.8184 -26.709 Z"/></g><line id="Baseline-L" style="fill:none;stroke:#27AAE1;opacity:1;stroke-width:0.577;" x1="263" x2="3036" y1="1556" y2="1556"/><line id="Capline-L" style="fill:none;stroke:#27AAE1;opacity:1;stroke-width:0.577;" x1="263" x2="3036" y1="1485.54" y2="1485.54"/><rect height="119.336" id="left-margin" style="fill:darkred;stroke:none;opacity:0.4;" width="12.4512" x="1394.06" y="1030.79"/><rect height="119.336" id="right-margin" style="fill:darkgreen;stroke:none;opacity:0.4;" width="12.4512" x="1502.5112" y="1030.79"/><rect x="1406.5112" y="1045" width="96" height="96" fill="none" stroke="blue" stroke-dasharray="5"/><rect x="1394.06" y="1030.79" width="120.9024" height="119.336" fill="none" stroke="blue"/></g><g id="Symbols"><g id="Bold-L" transform="matrix(1 0 0 1 2266 1556)"><path d="M45.311 17.741 H114.487 L79.98 -16.928 L45.311 17.741 Z M27.413 32.495 Q22.333 32.495 20.559 27.94 Q18.786 23.384 22.414 19.756 L69.418 -27.329 L15.722 -81.106 Q13.948 -82.799 13.867 -85.137 Q13.787 -87.475 15.561 -89.249 Q17.254 -90.781 19.511 -90.781 Q21.769 -90.781 23.462 -89.249 L143.109 30.399 Q144.641 31.931 144.722 34.228 Q144.803 36.526 143.109 38.219 Q141.416 39.993 139.118 39.953 Q136.821 39.913 135.127 38.219 L129.242 32.495 H27.413 Z M145.286 -85.298 V1.213 Q145.286 5.002 142.948 6.856 Q140.61 8.711 137.788 8.711 Q135.047 8.711 132.709 6.937 Q130.371 5.163 130.371 1.374 V-67.399 L99.653 -36.762 Q97.234 -34.504 94.331 -34.424 Q91.429 -34.343 89.252 -36.762 Q87.075 -38.939 87.075 -41.922 Q87.075 -44.905 89.252 -47.162 L132.548 -90.458 Q136.176 -94.086 140.731 -92.192 Q145.286 -90.297 145.286 -85.298 Z"/></g><g id="Semibold-L" transform="matrix(1 0 0 1 1970.27 1556)"><path d="M41.245 18.372 H116.24 L78.788 -19.171 L41.245 18.372 Z M26.291 30.742 Q22.053 30.742 20.559 26.923 Q19.066 23.104 22.063 20.107 L69.979 -27.89 L18.035 -79.914 Q16.402 -81.467 16.356 -83.63 Q16.311 -85.793 17.944 -87.426 Q19.497 -88.888 21.614 -88.888 Q23.732 -88.888 25.285 -87.426 L141.497 28.786 Q142.959 30.248 143.004 32.371 Q143.05 34.493 141.497 36.046 Q139.944 37.68 137.787 37.639 Q135.629 37.599 134.076 36.046 L128.611 30.742 H26.291 Z M143.463 -86.42 V2.404 Q143.463 5.563 141.511 7.102 Q139.558 8.64 137.227 8.64 Q134.907 8.64 132.954 7.147 Q131.002 5.654 131.002 2.495 V-71.465 L97.129 -37.603 Q95.131 -35.696 92.684 -35.651 Q90.237 -35.605 88.411 -37.603 Q86.584 -39.429 86.584 -41.922 Q86.584 -44.414 88.411 -46.321 L132.828 -90.739 Q135.825 -93.736 139.644 -92.157 Q143.463 -90.577 143.463 -86.42 Z"/></g><g id="Medium-L" transform="matrix(1 0 0 1 1674.31 1556)"><path d="M38.195 18.845 H117.555 L77.894 -20.854 L38.195 18.845 Z M25.449 29.428 Q21.842 29.428 20.559 26.161 Q19.276 22.894 21.8 20.37 L70.4 -28.31 L19.771 -79.02 Q18.242 -80.468 18.223 -82.499 Q18.204 -84.53 19.732 -86.059 Q21.18 -87.468 23.192 -87.468 Q25.204 -87.468 26.652 -86.059 L140.287 27.577 Q141.697 28.986 141.716 30.977 Q141.735 32.968 140.287 34.416 Q138.84 35.944 136.787 35.904 Q134.735 35.864 133.287 34.416 L128.138 29.428 H25.449 Z M142.096 -87.261 V3.298 Q142.096 5.983 140.433 7.286 Q138.77 8.588 136.807 8.588 Q134.801 8.588 133.138 7.305 Q131.475 6.022 131.475 3.337 V-74.515 L95.236 -38.234 Q93.553 -36.59 91.448 -36.571 Q89.343 -36.552 87.78 -38.234 Q86.216 -39.798 86.216 -41.922 Q86.216 -44.046 87.78 -45.69 L133.038 -90.949 Q135.562 -93.473 138.829 -92.13 Q142.096 -90.788 142.096 -87.261 Z"/></g><g id="Regular-L" transform="matrix(1 0 0 1 1378.56 1556)"><path d="M35.959 19.192 H118.519 L77.239 -22.088 L35.959 19.192 Z M24.832 28.464 Q21.688 28.464 20.559 25.602 Q19.431 22.739 21.608 20.563 L70.708 -28.619 L21.043 -78.364 Q19.592 -79.735 19.592 -81.67 Q19.592 -83.605 21.043 -85.056 Q22.414 -86.427 24.349 -86.427 Q26.284 -86.427 27.654 -85.056 L139.401 26.69 Q140.771 28.061 140.771 29.955 Q140.771 31.85 139.401 33.221 Q138.03 34.672 136.055 34.632 Q134.079 34.591 132.709 33.221 L127.791 28.464 H24.832 Z M141.094 -87.878 V3.954 Q141.094 6.292 139.643 7.421 Q138.191 8.549 136.498 8.549 Q134.724 8.549 133.273 7.421 Q131.822 6.292 131.822 3.954 V-76.752 L93.847 -38.697 Q92.396 -37.246 90.542 -37.246 Q88.688 -37.246 87.317 -38.697 Q85.946 -40.067 85.946 -41.922 Q85.946 -43.776 87.317 -45.227 L133.192 -91.103 Q135.369 -93.28 138.232 -92.111 Q141.094 -90.942 141.094 -87.878 Z"/></g><g id="Light-L" transform="matrix(1 0 0 1 1082.77 1556)"><path d="M33.602 18.479 H120.938 L77.301 -25.158 L33.602 18.479 Z M27.531 25.549 Q24.355 25.549 23.273 22.764 Q22.191 19.979 24.336 17.834 L72.29 -30.2 L23.71 -78.861 Q22.6 -79.828 22.585 -81.36 Q22.569 -82.892 23.71 -83.971 Q24.678 -85 26.178 -85 Q27.679 -85 28.74 -83.971 L138.78 26.07 Q139.779 27.068 139.794 28.544 Q139.81 30.02 138.749 31.081 Q137.751 32.191 136.225 32.166 Q134.7 32.141 133.639 31.081 L128.008 25.549 H27.531 Z M138.179 -85.242 V2.341 Q138.179 4.152 137.068 4.986 Q135.958 5.82 134.699 5.82 Q133.298 5.82 132.203 4.986 Q131.109 4.152 131.109 2.372 V-79.109 L92.235 -40.092 Q91.125 -39.044 89.674 -39.013 Q88.222 -38.982 87.224 -40.092 Q86.163 -41.153 86.163 -42.573 Q86.163 -43.993 87.224 -45.134 L130.464 -88.374 Q132.609 -90.52 135.394 -89.382 Q138.179 -88.244 138.179 -85.242 Z"/></g><g id="Thin-L" transform="matrix(1 0 0 1 787.282 1556)"><path d="M31.245 17.765 H123.356 L77.363 -28.228 L31.245 17.765 Z M30.228 22.634 Q27.022 22.634 25.986 19.927 Q24.95 17.22 27.065 15.105 L73.871 -31.782 L26.377 -79.357 Q25.608 -79.921 25.577 -81.05 Q25.546 -82.179 26.377 -82.886 Q26.941 -83.574 28.008 -83.574 Q29.075 -83.574 29.825 -82.886 L138.16 25.45 Q138.787 26.076 138.818 27.133 Q138.849 28.191 138.098 28.941 Q137.472 29.71 136.396 29.701 Q135.32 29.692 134.569 28.941 L128.225 22.634 H30.228 Z M135.264 -82.607 V0.729 Q135.264 2.013 134.495 2.552 Q133.726 3.092 132.901 3.092 Q131.872 3.092 131.133 2.552 Q130.395 2.013 130.395 0.791 V-81.465 L90.623 -41.488 Q89.853 -40.843 88.805 -40.781 Q87.757 -40.719 87.131 -41.488 Q86.38 -42.238 86.38 -43.224 Q86.38 -44.21 87.131 -45.041 L127.735 -85.645 Q129.85 -87.76 132.557 -86.653 Q135.264 -85.546 135.264 -82.607 Z"/></g><g id="Ultralight-L" transform="matrix(1 0 0 1 491.205 1556)"><path d="M29.831 17.338 H124.808 L77.4 -30.07 L29.831 17.338 Z M31.847 20.885 Q28.622 20.885 27.614 18.224 Q26.606 15.564 28.703 13.468 L74.82 -32.731 L27.977 -79.654 Q27.413 -79.977 27.372 -80.864 Q27.332 -81.751 27.977 -82.234 Q28.299 -82.718 29.106 -82.718 Q29.912 -82.718 30.476 -82.234 L137.788 25.078 Q138.191 25.481 138.232 26.287 Q138.272 27.093 137.708 27.658 Q137.304 28.222 136.498 28.222 Q135.692 28.222 135.127 27.658 L128.355 20.885 H31.847 Z M133.515 -81.025 V-0.239 Q133.515 0.729 132.951 1.092 Q132.386 1.454 131.822 1.454 Q131.016 1.454 130.492 1.092 Q129.968 0.729 129.968 -0.158 V-82.879 L89.655 -42.325 Q89.091 -41.922 88.284 -41.841 Q87.478 -41.761 87.075 -42.325 Q86.511 -42.889 86.511 -43.615 Q86.511 -44.341 87.075 -44.986 L126.097 -84.008 Q128.194 -86.104 130.854 -85.016 Q133.515 -83.927 133.515 -81.025 Z"/></g><g id="Bold-M" transform="matrix(1 0 0 1 2281.8 1126)"><path d="M43.5 2.645 H81.875 L62.75 -16.605 L43.5 2.645 Z M25.188 17.77 Q20.188 17.77 18.281 13.083 Q16.375 8.395 20 4.77 L52 -27.292 L10.062 -69.292 Q8.375 -71.042 8.281 -73.324 Q8.188 -75.605 9.938 -77.292 Q11.625 -78.98 13.906 -78.98 Q16.188 -78.98 17.875 -77.292 L110.562 15.395 Q112.25 17.083 112.281 19.333 Q112.312 21.583 110.625 23.27 Q108.938 25.02 106.625 24.989 Q104.312 24.958 102.625 23.27 L97 17.77 H25.188 Z M113 -70.105 V-13.855 Q113 -10.042 110.688 -8.167 Q108.375 -6.292 105.438 -6.292 Q102.688 -6.292 100.281 -8.136 Q97.875 -9.98 97.875 -13.792 V-51.792 L82.625 -36.605 Q80.25 -34.355 77.281 -34.292 Q74.312 -34.23 72 -36.605 Q69.688 -38.917 69.688 -41.949 Q69.688 -44.98 72 -47.292 L100.125 -75.417 Q103.75 -79.042 108.375 -77.074 Q113 -75.105 113 -70.105 Z"/></g><g id="Semibold-M" transform="matrix(1 0 0 1 1985.97 1126)"><path d="M39.316 3.297 H83.723 L61.554 -18.942 L39.316 3.297 Z M24.046 15.922 Q19.861 15.922 18.254 12.023 Q16.647 8.123 19.674 5.096 L52.598 -27.89 L12.454 -68.043 Q10.875 -69.629 10.835 -71.748 Q10.796 -73.866 12.383 -75.445 Q13.962 -77.024 16.08 -77.024 Q18.198 -77.024 19.777 -75.445 L108.932 13.71 Q110.511 15.289 110.515 17.376 Q110.519 19.463 108.94 21.042 Q107.362 22.629 105.239 22.625 Q103.117 22.621 101.538 21.042 L96.348 15.922 H24.046 Z M111.152 -71.246 V-12.659 Q111.152 -9.499 109.22 -7.923 Q107.288 -6.347 104.84 -6.347 Q102.525 -6.347 100.526 -7.919 Q98.527 -9.491 98.527 -12.651 V-55.977 L80.016 -37.474 Q78.076 -35.605 75.569 -35.57 Q73.063 -35.534 71.13 -37.474 Q69.198 -39.407 69.198 -41.949 Q69.198 -44.491 71.13 -46.423 L100.397 -75.689 Q103.424 -78.716 107.288 -77.074 Q111.152 -75.431 111.152 -71.246 Z"/></g><g id="Medium-M" transform="matrix(1 0 0 1 1689.91 1126)"><path d="M36.177 3.786 H85.109 L60.658 -20.695 L36.177 3.786 Z M23.19 14.536 Q19.617 14.536 18.234 11.228 Q16.851 7.92 19.429 5.341 L53.046 -28.339 L14.247 -67.105 Q12.75 -68.57 12.751 -70.566 Q12.753 -72.561 14.217 -74.059 Q15.715 -75.556 17.711 -75.556 Q19.706 -75.556 21.204 -74.059 L107.709 12.447 Q109.207 13.944 109.19 15.909 Q109.174 17.873 107.677 19.371 Q106.179 20.835 104.2 20.852 Q102.22 20.868 100.723 19.371 L95.859 14.536 H23.19 Z M109.766 -72.102 V-11.763 Q109.766 -9.091 108.12 -7.739 Q106.473 -6.388 104.391 -6.388 Q102.402 -6.388 100.709 -7.756 Q99.016 -9.124 99.016 -11.795 V-59.116 L78.06 -38.127 Q76.446 -36.542 74.285 -36.527 Q72.125 -36.513 70.478 -38.127 Q68.832 -39.773 68.832 -41.949 Q68.832 -44.124 70.478 -45.771 L100.6 -75.893 Q103.179 -78.472 106.473 -77.074 Q109.766 -75.676 109.766 -72.102 Z"/></g><g id="Regular-M" transform="matrix(1 0 0 1 1394.06 1126)"><path d="M33.875 4.145 H86.125 L60 -21.98 L33.875 4.145 Z M22.562 13.52 Q19.438 13.52 18.219 10.645 Q17 7.77 19.25 5.52 L53.375 -28.667 L15.562 -66.417 Q14.125 -67.792 14.156 -69.699 Q14.188 -71.605 15.562 -73.042 Q17 -74.48 18.906 -74.48 Q20.812 -74.48 22.25 -73.042 L106.812 11.52 Q108.25 12.958 108.219 14.833 Q108.188 16.708 106.75 18.145 Q105.312 19.52 103.438 19.551 Q101.562 19.583 100.125 18.145 L95.5 13.52 H22.562 Z M108.75 -72.73 V-11.105 Q108.75 -8.792 107.312 -7.605 Q105.875 -6.417 104.062 -6.417 Q102.312 -6.417 100.844 -7.636 Q99.375 -8.855 99.375 -11.167 V-61.417 L76.625 -38.605 Q75.25 -37.23 73.344 -37.23 Q71.438 -37.23 70 -38.605 Q68.562 -40.042 68.562 -41.949 Q68.562 -43.855 70 -45.292 L100.75 -76.042 Q103 -78.292 105.875 -77.074 Q108.75 -75.855 108.75 -72.73 Z"/></g><g id="Light-M" transform="matrix(1 0 0 1 1098.18 1126)"><path d="M30.413 4.265 H89.587 L60 -25.322 L30.413 4.265 Z M23.788 11.26 Q20.928 11.26 19.841 8.638 Q18.755 6.015 20.789 3.981 L55.034 -30.326 L17.822 -67.523 Q16.745 -68.538 16.741 -69.963 Q16.736 -71.389 17.822 -72.49 Q18.899 -73.566 20.301 -73.566 Q21.702 -73.566 22.803 -72.49 L106.572 11.28 Q107.625 12.333 107.63 13.739 Q107.635 15.145 106.534 16.246 Q105.433 17.308 104.05 17.328 Q102.668 17.347 101.567 16.246 L96.582 11.26 H23.788 Z M106.49 -71.504 V-10.624 Q106.49 -8.913 105.413 -8.026 Q104.336 -7.139 103.005 -7.139 Q101.688 -7.139 100.591 -8.033 Q99.495 -8.927 99.495 -10.663 V-64.879 L74.173 -39.494 Q73.159 -38.48 71.733 -38.456 Q70.308 -38.432 69.207 -39.494 Q68.106 -40.595 68.106 -41.997 Q68.106 -43.398 69.207 -44.499 L99.211 -74.504 Q101.245 -76.538 103.868 -75.439 Q106.49 -74.34 106.49 -71.504 Z"/></g><g id="Thin-M" transform="matrix(1 0 0 1 802.565 1126)"><path d="M26.952 4.385 H93.048 L60 -28.663 L26.952 4.385 Z M25.014 9.001 Q22.418 9.001 21.464 6.631 Q20.51 4.26 22.327 2.443 L56.692 -31.985 L20.082 -68.629 Q19.365 -69.283 19.325 -70.228 Q19.284 -71.172 20.082 -71.937 Q20.798 -72.653 21.695 -72.653 Q22.591 -72.653 23.356 -71.937 L106.332 11.039 Q107 11.708 107.041 12.645 Q107.082 13.583 106.317 14.347 Q105.553 15.097 104.663 15.104 Q103.774 15.111 103.01 14.347 L97.663 9.001 H25.014 Z M104.231 -70.278 V-10.143 Q104.231 -9.033 103.514 -8.446 Q102.798 -7.86 101.947 -7.86 Q101.062 -7.86 100.339 -8.429 Q99.615 -8.999 99.615 -10.158 V-68.34 L71.721 -40.384 Q71.067 -39.73 70.123 -39.682 Q69.178 -39.634 68.413 -40.384 Q67.649 -41.148 67.649 -42.045 Q67.649 -42.941 68.413 -43.706 L97.673 -72.966 Q99.49 -74.783 101.861 -73.804 Q104.231 -72.826 104.231 -70.278 Z"/></g><g id="Ultralight-M" transform="matrix(1 0 0 1 506.415 1126)"><path d="M24.875 4.458 H95.125 L60 -30.667 L24.875 4.458 Z M25.75 7.645 Q23.312 7.645 22.438 5.426 Q21.562 3.208 23.25 1.52 L57.688 -32.98 L21.438 -69.292 Q20.938 -69.73 20.875 -70.386 Q20.812 -71.042 21.438 -71.605 Q21.938 -72.105 22.531 -72.105 Q23.125 -72.105 23.688 -71.605 L106.188 10.895 Q106.625 11.333 106.688 11.989 Q106.75 12.645 106.188 13.208 Q105.625 13.77 105.031 13.77 Q104.438 13.77 103.875 13.208 L98.312 7.645 H25.75 Z M102.875 -69.542 V-9.855 Q102.875 -9.105 102.375 -8.699 Q101.875 -8.292 101.312 -8.292 Q100.688 -8.292 100.188 -8.667 Q99.688 -9.042 99.688 -9.855 V-70.417 L70.25 -40.917 Q69.812 -40.48 69.156 -40.417 Q68.5 -40.355 67.938 -40.917 Q67.375 -41.48 67.375 -42.074 Q67.375 -42.667 67.938 -43.23 L96.75 -72.042 Q98.438 -73.73 100.656 -72.824 Q102.875 -71.917 102.875 -69.542 Z"/></g><g id="Bold-S" transform="matrix(1 0 0 1 2294.23 696)"><path d="M34.026 -6.136 H64.895 L49.51 -21.62 L34.026 -6.136 Z M20.465 5.009 Q16.797 5.009 15.401 1.557 Q14.005 -1.895 16.668 -4.558 L41.521 -29.46 L11.786 -59.344 Q10.553 -60.725 10.43 -62.327 Q10.306 -63.93 11.64 -65.163 Q12.92 -66.395 14.539 -66.395 Q16.158 -66.395 17.358 -65.163 L85.449 2.831 Q86.691 4.072 86.765 5.699 Q86.839 7.327 85.606 8.607 Q84.374 9.94 82.648 9.866 Q80.922 9.792 79.689 8.56 L76.04 5.009 H20.465 Z M87.579 -62.155 V-17.971 Q87.579 -15.16 85.878 -13.779 Q84.176 -12.398 82.007 -12.398 Q79.985 -12.398 78.21 -13.727 Q76.434 -15.055 76.434 -17.823 V-48.594 L63.845 -36.053 Q61.937 -34.244 59.841 -34.244 Q57.745 -34.244 56.019 -36.07 Q54.293 -37.844 54.293 -40.054 Q54.293 -42.265 56.019 -43.958 L78.111 -66.05 Q80.774 -68.713 84.176 -67.268 Q87.579 -65.822 87.579 -62.155 Z"/></g><g id="Semibold-S" transform="matrix(1 0 0 1 1998.1 696)"><path d="M30.724 -5.621 H66.353 L48.566 -23.463 L30.724 -5.621 Z M19.564 3.551 Q16.54 3.551 15.379 0.721 Q14.219 -2.109 16.41 -4.3 L41.993 -29.932 L13.672 -58.358 Q12.525 -59.61 12.445 -61.084 Q12.364 -62.558 13.569 -63.705 Q14.764 -64.852 16.254 -64.852 Q17.745 -64.852 18.859 -63.705 L84.163 1.502 Q85.319 2.657 85.372 4.156 Q85.424 5.655 84.277 6.849 Q83.13 8.054 81.554 8.001 Q79.978 7.949 78.831 6.802 L75.525 3.551 H19.564 Z M86.121 -63.055 V-17.027 Q86.121 -14.731 84.72 -13.586 Q83.319 -12.441 81.535 -12.441 Q79.856 -12.441 78.403 -13.555 Q76.949 -14.669 76.949 -16.922 V-51.895 L61.786 -36.739 Q60.221 -35.23 58.49 -35.251 Q56.759 -35.273 55.333 -36.757 Q53.907 -38.229 53.907 -40.054 Q53.907 -41.879 55.333 -43.272 L78.325 -66.265 Q80.517 -68.456 83.319 -67.268 Q86.121 -66.08 86.121 -63.055 Z"/></g><g id="Medium-S" transform="matrix(1 0 0 1 1701.85 696)"><path d="M28.247 -5.235 H67.447 L47.859 -24.846 L28.247 -5.235 Z M18.889 2.458 Q16.347 2.458 15.363 0.094 Q14.38 -2.27 16.217 -4.107 L42.347 -30.286 L15.087 -57.618 Q14.005 -58.774 13.957 -60.151 Q13.908 -61.529 15.017 -62.611 Q16.147 -63.694 17.541 -63.694 Q18.935 -63.694 19.984 -62.611 L83.198 0.505 Q84.29 1.596 84.327 2.998 Q84.363 4.4 83.28 5.53 Q82.198 6.638 80.734 6.602 Q79.271 6.566 78.188 5.483 L75.139 2.458 H18.889 Z M85.028 -63.73 V-16.32 Q85.028 -14.409 83.852 -13.441 Q82.676 -12.473 81.181 -12.473 Q79.76 -12.473 78.547 -13.427 Q77.335 -14.38 77.335 -16.247 V-54.372 L60.243 -37.254 Q58.935 -35.97 57.477 -36.007 Q56.019 -36.045 54.818 -37.271 Q53.618 -38.519 53.618 -40.054 Q53.618 -41.59 54.818 -42.758 L78.486 -66.425 Q80.324 -68.263 82.676 -67.268 Q85.028 -66.273 85.028 -63.73 Z"/></g><g id="Regular-S" transform="matrix(1 0 0 1 1405.73 696)"><path d="M26.431 -4.952 H68.249 L47.34 -25.861 L26.431 -4.952 Z M18.394 1.656 Q16.205 1.656 15.352 -0.366 Q14.498 -2.388 16.076 -3.966 L42.606 -30.545 L16.125 -57.075 Q15.09 -58.16 15.065 -59.467 Q15.04 -60.774 16.078 -61.809 Q17.161 -62.845 18.484 -62.845 Q19.807 -62.845 20.81 -61.809 L82.49 -0.226 Q83.535 0.817 83.56 2.149 Q83.585 3.48 82.549 4.563 Q81.514 5.601 80.133 5.576 Q78.752 5.551 77.716 4.516 L74.856 1.656 H18.394 Z M84.226 -64.226 V-15.801 Q84.226 -14.174 83.215 -13.335 Q82.204 -12.497 80.922 -12.497 Q79.689 -12.497 78.653 -13.332 Q77.618 -14.168 77.618 -15.752 V-56.188 L59.111 -37.631 Q57.992 -36.512 56.734 -36.561 Q55.477 -36.611 54.441 -37.648 Q53.405 -38.731 53.405 -40.054 Q53.405 -41.378 54.441 -42.38 L78.604 -66.543 Q80.182 -68.121 82.204 -67.268 Q84.226 -66.414 84.226 -64.226 Z"/></g><g id="Light-S" transform="matrix(1 0 0 1 1109.75 696)"><path d="M23.7 -4.857 H70.98 L47.34 -28.497 L23.7 -4.857 Z M19.361 -0.127 Q17.381 -0.127 16.632 -1.95 Q15.882 -3.772 17.29 -5.18 L43.915 -31.854 L17.908 -57.948 Q17.157 -58.748 17.104 -59.676 Q17.051 -60.603 17.861 -61.373 Q18.659 -62.124 19.584 -62.124 Q20.509 -62.124 21.246 -61.373 L82.301 -0.416 Q83.042 0.324 83.095 1.286 Q83.148 2.247 82.378 3.065 Q81.608 3.856 80.616 3.822 Q79.625 3.787 78.855 3.017 L75.71 -0.127 H19.361 Z M82.443 -63.258 V-15.422 Q82.443 -14.268 81.716 -13.667 Q80.99 -13.066 80.087 -13.066 Q79.196 -13.066 78.454 -13.645 Q77.713 -14.224 77.713 -15.353 V-58.919 L57.176 -38.333 Q56.341 -37.498 55.463 -37.529 Q54.585 -37.559 53.815 -38.35 Q53.045 -39.167 53.045 -40.092 Q53.045 -41.017 53.815 -41.754 L77.39 -65.329 Q78.798 -66.737 80.62 -65.978 Q82.443 -65.219 82.443 -63.258 Z"/></g><g id="Thin-S" transform="matrix(1 0 0 1 814.015 696)"><path d="M20.969 -4.762 H73.711 L47.34 -31.133 L20.969 -4.762 Z M20.328 -1.91 Q18.557 -1.91 17.912 -3.533 Q17.267 -5.157 18.504 -6.394 L45.223 -33.163 L19.691 -58.82 Q19.224 -59.336 19.143 -59.884 Q19.061 -60.432 19.644 -60.937 Q20.157 -61.404 20.684 -61.404 Q21.211 -61.404 21.682 -60.937 L82.111 -0.605 Q82.549 -0.169 82.631 0.423 Q82.712 1.015 82.208 1.566 Q81.703 2.111 81.1 2.067 Q80.497 2.024 79.992 1.519 L76.563 -1.91 H20.328 Z M80.66 -62.291 V-15.042 Q80.66 -14.363 80.218 -13.999 Q79.776 -13.635 79.253 -13.635 Q78.703 -13.635 78.255 -13.958 Q77.808 -14.281 77.808 -14.955 V-61.65 L55.242 -39.035 Q54.691 -38.485 54.193 -38.496 Q53.694 -38.507 53.189 -39.052 Q52.685 -39.604 52.685 -40.13 Q52.685 -40.657 53.189 -41.129 L76.176 -64.116 Q77.413 -65.352 79.037 -64.688 Q80.66 -64.024 80.66 -62.291 Z"/></g><g id="Ultralight-S" transform="matrix(1 0 0 1 517.792 696)"><path d="M19.331 -4.706 H75.35 L47.34 -32.715 L19.331 -4.706 Z M20.909 -2.98 Q19.263 -2.98 18.68 -4.484 Q18.098 -5.988 19.232 -7.122 L46.009 -33.948 L20.761 -59.344 Q20.465 -59.689 20.366 -60.01 Q20.267 -60.33 20.713 -60.675 Q21.056 -60.971 21.344 -60.971 Q21.632 -60.971 21.944 -60.675 L81.997 -0.719 Q82.253 -0.465 82.352 -0.095 Q82.451 0.275 82.105 0.667 Q81.76 1.064 81.39 1.015 Q81.02 0.965 80.675 0.62 L77.075 -2.98 H20.909 Z M79.59 -61.711 V-14.815 Q79.59 -14.42 79.319 -14.198 Q79.048 -13.976 78.752 -13.976 Q78.407 -13.976 78.136 -14.146 Q77.864 -14.315 77.864 -14.716 V-63.289 L54.081 -39.456 Q53.701 -39.076 53.43 -39.076 Q53.159 -39.076 52.814 -39.473 Q52.468 -39.865 52.468 -40.153 Q52.468 -40.441 52.814 -40.753 L75.448 -63.387 Q76.582 -64.522 78.086 -63.914 Q79.59 -63.307 79.59 -61.711 Z"/></g></g></svg>