<svg xmlns="http://www.w3.org/2000/svg" version="1.1" width="3300" height="2000"><g id="Notes"><style>
    text {
      font-family: monospace;
      text-anchor: middle;
    }
    text.emphasis {
      font-weight:bold;
    }
    text.lanchor {
      text-anchor: start;
    }
  </style><rect height="2200" id="artboard" fill="white" width="3300" x="0" y="0"/><line id="" style="fill:none;stroke:black;stroke-width:0.5;" x1="263" x2="3036" y1="292" y2="292"/><text class="lanchor emphasis" transform="matrix(1 0 0 1 263 322)">Weight/Scale Variations</text><text transform="matrix(1 0 0 1 559.711 322)">Ultralight</text><text transform="matrix(1 0 0 1 856.422 322)">Thin</text><text transform="matrix(1 0 0 1 1153.13 322)">Light</text><text transform="matrix(1 0 0 1 1449.84 322)">Regular</text><text transform="matrix(1 0 0 1 1746.56 322)">Medium</text><text transform="matrix(1 0 0 1 2043.27 322)">Semibold</text><text transform="matrix(1 0 0 1 2339.98 322)">Bold</text><text transform="matrix(1 0 0 1 2636.69 322)">Heavy</text><text transform="matrix(1 0 0 1 2933.4 322)">Black</text><text id="template-version" style="text-anchor: end;" transform="matrix(1 0 0 1 3036 1933)">Template v.1.0</text><text class="lanchor" transform="matrix(1 0 0 1 263 726)">Small</text><text class="lanchor" transform="matrix(1 0 0 1 263 1156)">Medium</text><text class="lanchor" transform="matrix(1 0 0 1 263 1586)">Large</text></g><g id="Guides"><g id="H-reference" style="fill:#27AAE1;stroke:none;" transform="matrix(1 0 0 1 339 696)"><path d="M 54.9316 0 L 57.666 0 L 30.5664 -70.459 L 28.0762 -70.459 L 0.976562 0 L 3.66211 0 L 12.9395 -24.4629 L 45.7031 -24.4629 Z M 29.1992 -67.0898 L 29.4434 -67.0898 L 44.8242 -26.709 L 13.8184 -26.709 Z"/></g><line id="Baseline-S" style="fill:none;stroke:#27AAE1;opacity:1;stroke-width:0.577;" x1="263" x2="3036" y1="696" y2="696"/><line id="Capline-S" style="fill:none;stroke:#27AAE1;opacity:1;stroke-width:0.577;" x1="263" x2="3036" y1="625.541" y2="625.541"/><g id="H-reference" style="fill:#27AAE1;stroke:none;" transform="matrix(1 0 0 1 339 1126)"><path d="M 54.9316 0 L 57.666 0 L 30.5664 -70.459 L 28.0762 -70.459 L 0.976562 0 L 3.66211 0 L 12.9395 -24.4629 L 45.7031 -24.4629 Z M 29.1992 -67.0898 L 29.4434 -67.0898 L 44.8242 -26.709 L 13.8184 -26.709 Z"/></g><line id="Baseline-M" style="fill:none;stroke:#27AAE1;opacity:1;stroke-width:0.577;" x1="263" x2="3036" y1="1126" y2="1126"/><line id="Capline-M" style="fill:none;stroke:#27AAE1;opacity:1;stroke-width:0.577;" x1="263" x2="3036" y1="1055.54" y2="1055.54"/><g id="H-reference" style="fill:#27AAE1;stroke:none;" transform="matrix(1 0 0 1 339 1556)"><path d="M 54.9316 0 L 57.666 0 L 30.5664 -70.459 L 28.0762 -70.459 L 0.976562 0 L 3.66211 0 L 12.9395 -24.4629 L 45.7031 -24.4629 Z M 29.1992 -67.0898 L 29.4434 -67.0898 L 44.8242 -26.709 L 13.8184 -26.709 Z"/></g><line id="Baseline-L" style="fill:none;stroke:#27AAE1;opacity:1;stroke-width:0.577;" x1="263" x2="3036" y1="1556" y2="1556"/><line id="Capline-L" style="fill:none;stroke:#27AAE1;opacity:1;stroke-width:0.577;" x1="263" x2="3036" y1="1485.54" y2="1485.54"/><rect height="119.336" id="left-margin" style="fill:darkred;stroke:none;opacity:0.4;" width="12.4512" x="1394.06" y="1030.79"/><rect height="119.336" id="right-margin" style="fill:darkgreen;stroke:none;opacity:0.4;" width="12.4512" x="1502.5112" y="1030.79"/><rect x="1406.5112" y="1045" width="96" height="96" fill="none" stroke="blue" stroke-dasharray="5"/><rect x="1394.06" y="1030.79" width="120.9024" height="119.336" fill="none" stroke="blue"/></g><g id="Symbols"><g id="Bold-L" transform="matrix(1 0 0 1 2266 1556)"><path d="M55.525 19.595 H37.329 Q31.078 19.595 26.827 15.343 Q22.575 11.092 22.575 4.841 V-13.262 L10.965 -24.9 Q8.707 -27.087 7.74 -29.707 Q6.772 -32.327 6.772 -35.199 Q6.772 -38.07 7.721 -40.727 Q8.669 -43.383 10.965 -45.631 L22.575 -57.239 V-75.301 Q22.575 -81.619 26.827 -85.917 Q31.078 -90.216 37.329 -90.216 H55.432 L67.07 -101.665 Q69.257 -103.922 71.962 -104.93 Q74.667 -105.938 77.597 -105.938 Q80.527 -105.938 83.119 -104.818 Q85.711 -103.698 87.962 -101.504 L99.342 -90.216 H117.471 Q123.789 -90.216 128.087 -85.917 Q132.386 -81.619 132.386 -75.301 V-57.239 L143.835 -45.631 Q146.093 -43.373 147.1 -40.779 Q148.108 -38.184 148.108 -35.256 Q148.108 -32.327 147.1 -29.707 Q146.093 -27.087 143.835 -24.9 L132.386 -13.262 V4.841 Q132.386 11.092 128.087 15.343 Q123.789 19.595 117.471 19.595 H99.342 L87.962 30.883 Q85.723 33.2 83.097 34.137 Q80.471 35.075 77.593 35.075 Q74.719 35.075 72.075 34.118 Q69.43 33.161 67.231 30.883 L55.525 19.595 Z M83.575 -38.294  92.543 -44.731  101.27 -38.294  97.864 -48.569  106.748 -54.983 H95.764 L92.558 -65.545 L89.091 -54.983 H78.045 L87.1 -48.564 L83.575 -38.294 Z M77.325 -4.996 Q89.978 -4.996 98.846 -13.746 Q107.715 -22.495 107.715 -35.195 Q107.715 -36.497 107.513 -37.718 Q107.312 -38.939 107.226 -40.148 Q105.434 -32.871 99.646 -28.326 Q93.858 -23.781 86.275 -23.781 Q77.4 -23.781 71.111 -29.995 Q64.823 -36.208 64.823 -45.186 Q64.823 -52.242 68.813 -57.765 Q72.804 -63.287 79.013 -65.545 H77.4 Q64.669 -65.545 55.917 -56.695 Q47.166 -47.846 47.166 -35.169 Q47.166 -22.491 55.919 -13.743 Q64.672 -4.996 77.325 -4.996 Z"/></g><g id="Semibold-L" transform="matrix(1 0 0 1 1970.27 1556)"><path d="M55.805 17.842 H36.698 Q31.502 17.842 27.915 14.255 Q24.328 10.668 24.328 5.472 V-13.542 L11.316 -26.583 Q9.408 -28.419 8.616 -30.605 Q7.824 -32.791 7.824 -35.199 Q7.824 -37.607 8.597 -39.829 Q9.37 -42.051 11.316 -43.948 L24.328 -56.958 V-75.932 Q24.328 -81.166 27.915 -84.78 Q31.502 -88.393 36.698 -88.393 H55.712 L68.753 -101.314 Q70.589 -103.221 72.871 -104.054 Q75.153 -104.887 77.595 -104.887 Q80.037 -104.887 82.208 -103.942 Q84.379 -102.997 86.279 -101.153 L99.062 -88.393 H118.102 Q123.336 -88.393 126.95 -84.78 Q130.563 -81.166 130.563 -75.932 V-56.958 L143.484 -43.948 Q145.391 -42.041 146.224 -39.87 Q147.057 -37.698 147.057 -35.258 Q147.057 -32.818 146.224 -30.619 Q145.391 -28.419 143.484 -26.583 L130.563 -13.542 V5.472 Q130.563 10.668 126.95 14.255 Q123.336 17.842 118.102 17.842 H99.062 L86.279 30.532 Q84.391 32.428 82.199 33.226 Q80.007 34.023 77.593 34.023 Q75.183 34.023 72.972 33.207 Q70.762 32.39 68.914 30.532 L55.805 17.842 Z M83.715 -38.364  92.909 -44.984  101.864 -38.364  98.339 -48.877  107.449 -55.474 H96.238 L92.908 -66.246 L89.403 -55.474 H78.115 L87.31 -48.872 L83.715 -38.364 Z M77.36 -4.295 Q90.258 -4.295 99.337 -13.255 Q108.416 -22.215 108.416 -35.207 Q108.416 -36.497 108.25 -37.753 Q108.083 -39.009 107.93 -40.218 Q106.149 -32.856 100.226 -28.178 Q94.302 -23.501 86.492 -23.501 Q77.33 -23.501 70.936 -29.843 Q64.542 -36.186 64.542 -45.448 Q64.542 -52.592 68.603 -58.255 Q72.664 -63.918 79.083 -66.246 H77.4 Q64.389 -66.246 55.427 -57.186 Q46.465 -48.126 46.465 -35.203 Q46.465 -22.211 55.428 -13.253 Q64.391 -4.295 77.36 -4.295 Z"/></g><g id="Medium-L" transform="matrix(1 0 0 1 1674.31 1556)"><path d="M56.016 16.528 H36.225 Q31.82 16.528 28.731 13.439 Q25.642 10.35 25.642 5.945 V-13.753 L11.578 -27.845 Q9.934 -29.418 9.274 -31.278 Q8.613 -33.138 8.613 -35.199 Q8.613 -37.259 9.254 -39.155 Q9.896 -41.052 11.578 -42.686 L25.642 -56.748 V-76.405 Q25.642 -80.826 28.731 -83.926 Q31.82 -87.026 36.225 -87.026 H55.923 L70.015 -101.052 Q71.588 -102.696 73.553 -103.397 Q75.517 -104.098 77.593 -104.098 Q79.668 -104.098 81.524 -103.285 Q83.38 -102.471 85.017 -100.89 L98.852 -87.026 H118.575 Q122.996 -87.026 126.096 -83.926 Q129.196 -80.826 129.196 -76.405 V-56.748 L143.222 -42.686 Q144.866 -41.042 145.567 -39.188 Q146.268 -37.334 146.268 -35.26 Q146.268 -33.186 145.567 -31.302 Q144.866 -29.418 143.222 -27.845 L129.196 -13.753 V5.945 Q129.196 10.35 126.096 13.439 Q122.996 16.528 118.575 16.528 H98.852 L85.017 30.269 Q83.392 31.85 81.525 32.542 Q79.659 33.235 77.593 33.235 Q75.531 33.235 73.646 32.523 Q71.761 31.811 70.176 30.269 L56.016 16.528 Z M83.82 -38.416  93.184 -45.174  102.309 -38.416  98.695 -49.108  107.974 -55.842 H96.594 L93.171 -66.772 L89.638 -55.842 H78.168 L87.468 -49.103 L83.82 -38.416 Z M77.385 -3.769 Q90.468 -3.769 99.705 -12.887 Q108.942 -22.005 108.942 -35.217 Q108.942 -36.497 108.802 -37.779 Q108.662 -39.061 108.457 -40.271 Q106.685 -32.844 100.66 -28.067 Q94.636 -23.291 86.655 -23.291 Q77.277 -23.291 70.805 -29.73 Q64.332 -36.17 64.332 -45.644 Q64.332 -52.855 68.445 -58.624 Q72.559 -64.392 79.135 -66.772 H77.4 Q64.179 -66.772 55.059 -57.554 Q45.939 -48.336 45.939 -35.229 Q45.939 -22.001 55.06 -12.885 Q64.181 -3.769 77.385 -3.769 Z"/></g><g id="Regular-L" transform="matrix(1 0 0 1 1378.56 1556)"><path d="M56.17 15.564 H35.878 Q32.053 15.564 29.33 12.84 Q26.606 10.117 26.606 6.292 V-13.907 L11.771 -28.77 Q10.32 -30.151 9.756 -31.772 Q9.191 -33.393 9.191 -35.199 Q9.191 -37.004 9.736 -38.661 Q10.281 -40.319 11.771 -41.761 L26.606 -56.594 V-76.752 Q26.606 -80.577 29.33 -83.3 Q32.053 -86.024 35.878 -86.024 H56.077 L70.94 -100.859 Q72.321 -102.31 74.053 -102.915 Q75.785 -103.519 77.592 -103.519 Q79.399 -103.519 81.023 -102.802 Q82.647 -102.086 84.092 -100.697 L98.697 -86.024 H118.922 Q122.747 -86.024 125.47 -83.3 Q128.194 -80.577 128.194 -76.752 V-56.594 L143.029 -41.761 Q144.48 -40.309 145.085 -38.688 Q145.689 -37.067 145.689 -35.261 Q145.689 -33.456 145.085 -31.803 Q144.48 -30.151 143.029 -28.77 L128.194 -13.907 V6.292 Q128.194 10.117 125.47 12.84 Q122.747 15.564 118.922 15.564 H98.697 L84.092 30.076 Q82.659 31.426 81.032 32.041 Q79.404 32.656 77.593 32.656 Q75.786 32.656 74.14 32.022 Q72.494 31.387 71.101 30.076 L56.17 15.564 Z M83.897 -38.455  93.386 -45.313  102.636 -38.455  98.956 -49.277  108.36 -56.112 H96.855 L93.364 -67.157 L89.81 -56.112 H78.206 L87.584 -49.272 L83.897 -38.455 Z M77.404 -3.383 Q90.623 -3.383 99.975 -12.617 Q109.328 -21.85 109.328 -35.223 Q109.328 -36.497 109.207 -37.799 Q109.086 -39.1 108.844 -40.309 Q107.078 -32.836 100.979 -27.986 Q94.88 -23.136 86.774 -23.136 Q77.239 -23.136 70.708 -29.647 Q64.177 -36.158 64.177 -45.788 Q64.177 -53.048 68.33 -58.893 Q72.482 -64.739 79.174 -67.157 H77.4 Q64.024 -67.157 54.789 -57.824 Q45.553 -48.491 45.553 -35.248 Q45.553 -21.846 54.79 -12.615 Q64.027 -3.383 77.404 -3.383 Z"/></g><g id="Light-L" transform="matrix(1 0 0 1 1082.77 1556)"><path d="M57.39 12.649 H38.576 Q34.889 12.649 32.205 9.965 Q29.521 7.281 29.521 3.594 V-15.127 L15.803 -28.921 Q14.352 -30.244 13.803 -31.822 Q13.254 -33.4 13.254 -35.186 Q13.254 -36.973 13.776 -38.601 Q14.298 -40.23 15.803 -41.637 L29.521 -55.389 V-74.054 Q29.521 -77.741 32.205 -80.425 Q34.889 -83.109 38.576 -83.109 H57.297 L71.091 -96.889 Q72.414 -98.278 74.072 -98.883 Q75.73 -99.488 77.518 -99.488 Q79.305 -99.488 80.899 -98.802 Q82.492 -98.116 83.906 -96.728 L97.493 -83.109 H116.224 Q119.911 -83.109 122.595 -80.425 Q125.279 -77.741 125.279 -74.054 V-55.389 L139.059 -41.637 Q140.448 -40.216 141.053 -38.638 Q141.658 -37.06 141.658 -35.274 Q141.658 -33.487 141.053 -31.866 Q140.448 -30.244 139.059 -28.921 L125.279 -15.127 V3.594 Q125.279 7.281 122.595 9.965 Q119.911 12.649 116.224 12.649 H97.493 L83.906 26.169 Q82.508 27.533 80.923 28.094 Q79.337 28.656 77.543 28.656 Q75.754 28.656 74.17 28.068 Q72.587 27.48 71.253 26.169 L57.39 12.649 Z M83.432 -38.238  92.238 -44.569  100.775 -38.238  97.386 -48.292  106.065 -54.53 H95.397 L92.216 -64.832 L88.905 -54.53 H78.175 L86.827 -48.286 L83.432 -38.238 Z M77.387 -5.74 Q89.661 -5.74 98.331 -14.286 Q107.002 -22.831 107.002 -35.207 Q107.002 -36.386 106.865 -37.588 Q106.729 -38.79 106.518 -39.906 Q104.882 -33 99.229 -28.518 Q93.576 -24.036 86.07 -24.036 Q77.239 -24.036 71.189 -30.066 Q65.139 -36.096 65.139 -44.982 Q65.139 -51.746 69.012 -57.157 Q72.885 -62.568 79.05 -64.832 H77.412 Q65.021 -64.832 56.466 -56.195 Q47.91 -47.559 47.91 -35.257 Q47.91 -22.849 56.458 -14.294 Q65.006 -5.74 77.387 -5.74 Z"/></g><g id="Thin-L" transform="matrix(1 0 0 1 787.282 1556)"><path d="M58.61 9.734 H41.274 Q37.724 9.734 35.08 7.09 Q32.436 4.446 32.436 0.896 V-16.347 L19.834 -29.073 Q18.383 -30.337 17.849 -31.872 Q17.316 -33.407 17.316 -35.174 Q17.316 -36.942 17.815 -38.541 Q18.314 -40.141 19.834 -41.513 L32.436 -54.185 V-71.356 Q32.436 -74.906 35.08 -77.55 Q37.724 -80.194 41.274 -80.194 H58.517 L71.243 -92.92 Q72.507 -94.247 74.091 -94.852 Q75.674 -95.457 77.444 -95.457 Q79.213 -95.457 80.775 -94.802 Q82.337 -94.147 83.72 -92.759 L96.289 -80.194 H113.526 Q117.076 -80.194 119.72 -77.55 Q122.364 -74.906 122.364 -71.356 V-54.185 L135.09 -41.513 Q136.417 -40.123 137.022 -38.588 Q137.627 -37.053 137.627 -35.286 Q137.627 -33.518 137.022 -31.927 Q136.417 -30.337 135.09 -29.073 L122.364 -16.347 V0.896 Q122.364 4.446 119.72 7.09 Q117.076 9.734 113.526 9.734 H96.289 L83.72 22.262 Q82.358 23.641 80.813 24.149 Q79.269 24.656 77.492 24.656 Q75.722 24.656 74.201 24.114 Q72.68 23.573 71.404 22.262 L58.61 9.734 Z M82.967 -38.021  91.091 -43.825  98.914 -38.021  95.815 -47.306  103.771 -52.949 H93.94 L91.069 -62.506 L87.999 -52.949 H78.144 L86.072 -47.301 L82.967 -38.021 Z M77.369 -8.097 Q88.7 -8.097 96.688 -15.954 Q104.676 -23.812 104.676 -35.192 Q104.676 -36.276 104.524 -37.378 Q104.372 -38.48 104.192 -39.503 Q102.685 -33.163 97.479 -29.049 Q92.272 -24.935 85.365 -24.935 Q77.239 -24.935 71.669 -30.484 Q66.1 -36.034 66.1 -44.176 Q66.1 -50.443 69.694 -55.42 Q73.288 -60.397 78.926 -62.506 H77.424 Q66.018 -62.506 58.142 -54.567 Q50.267 -46.628 50.267 -35.266 Q50.267 -23.851 58.126 -15.974 Q65.986 -8.097 77.369 -8.097 Z"/></g><g id="Ultralight-L" transform="matrix(1 0 0 1 491.205 1556)"><path d="M59.342 7.985 H42.892 Q39.426 7.985 36.805 5.365 Q34.185 2.744 34.185 -0.722 V-17.079 L22.253 -29.163 Q20.801 -30.392 20.277 -31.902 Q19.753 -33.411 19.753 -35.167 Q19.753 -36.923 20.239 -38.505 Q20.724 -40.087 22.253 -41.438 L34.185 -53.463 V-69.737 Q34.185 -73.204 36.805 -75.825 Q39.426 -78.445 42.892 -78.445 H59.249 L71.333 -90.539 Q72.562 -91.829 74.102 -92.433 Q75.641 -93.038 77.399 -93.038 Q79.157 -93.038 80.7 -92.402 Q82.244 -91.766 83.608 -90.377 L95.566 -78.445 H111.907 Q115.374 -78.445 117.995 -75.825 Q120.615 -73.204 120.615 -69.737 V-53.463 L132.709 -41.438 Q133.999 -40.067 134.603 -38.558 Q135.208 -37.049 135.208 -35.293 Q135.208 -33.537 134.603 -31.965 Q133.999 -30.392 132.709 -29.163 L120.615 -17.079 V-0.722 Q120.615 2.744 117.995 5.365 Q115.374 7.985 111.907 7.985 H95.566 L83.608 19.918 Q82.267 21.306 80.748 21.781 Q79.228 22.256 77.462 22.256 Q75.703 22.256 74.219 21.742 Q72.736 21.228 71.495 19.918 L59.342 7.985 Z M82.688 -37.891  90.403 -43.378  97.798 -37.891  94.873 -46.715  102.394 -52 H93.065 L90.381 -61.111 L87.456 -52 H78.126 L85.618 -46.71 L82.688 -37.891 Z M77.359 -9.511 Q88.123 -9.511 95.702 -16.955 Q103.281 -24.4 103.281 -35.182 Q103.281 -36.209 103.119 -37.251 Q102.958 -38.294 102.797 -39.261 Q101.367 -33.261 96.428 -29.368 Q91.49 -25.474 84.942 -25.474 Q77.239 -25.474 71.958 -30.736 Q66.677 -35.997 66.677 -43.692 Q66.677 -49.662 70.103 -54.378 Q73.53 -59.095 78.851 -61.111 H77.431 Q66.616 -61.111 59.148 -53.59 Q51.681 -46.069 51.681 -35.271 Q51.681 -24.452 59.127 -16.981 Q66.574 -9.511 77.359 -9.511 Z"/></g><g id="Bold-M" transform="matrix(1 0 0 1 2281.8 1126)"><path d="M43.142 7.77 H32.125 Q25.758 7.77 21.379 3.391 Q17 -0.988 17 -7.355 V-18.372 L10.75 -24.667 Q8.5 -26.855 7.469 -29.574 Q6.438 -32.292 6.438 -35.23 Q6.438 -38.167 7.469 -40.886 Q8.5 -43.605 10.75 -45.792 L17 -52.088 V-63.105 Q17 -69.472 21.379 -73.851 Q25.758 -78.23 32.125 -78.23 H43.142 L49.438 -84.48 Q51.75 -86.73 54.406 -87.761 Q57.062 -88.792 60 -88.792 Q62.938 -88.792 65.594 -87.761 Q68.25 -86.73 70.562 -84.48 L76.858 -78.23 H87.875 Q94.242 -78.23 98.621 -73.851 Q103 -69.472 103 -63.105 V-52.088 L109.25 -45.792 Q111.5 -43.48 112.531 -40.824 Q113.562 -38.167 113.562 -35.23 Q113.562 -32.292 112.531 -29.636 Q111.5 -26.98 109.25 -24.667 L103 -18.372 V-7.355 Q103 -0.988 98.621 3.391 Q94.242 7.77 87.875 7.77 H76.858 L70.562 14.02 Q68.375 16.27 65.656 17.301 Q62.938 18.333 60 18.333 Q57.062 18.333 54.344 17.301 Q51.625 16.27 49.438 14.02 L43.142 7.77 Z M64.599 -37.417  71.33 -42.296  77.938 -37.417  75.375 -45.23  82.125 -50.105 H73.769 L71.312 -57.917 L68.745 -50.105 H60.438 L67.293 -45.226 L64.599 -37.417 Z M59.988 -12.417 Q69.5 -12.417 76.094 -19.068 Q82.688 -25.719 82.688 -35.234 Q82.688 -36.212 82.625 -37.065 Q82.562 -37.917 82.438 -38.855 Q81.086 -33.366 76.731 -29.954 Q72.375 -26.542 66.672 -26.542 Q60 -26.542 55.219 -31.246 Q50.438 -35.949 50.438 -42.665 Q50.438 -48.042 53.531 -52.136 Q56.625 -56.23 61.25 -57.917 H60 Q50.486 -57.917 43.837 -51.335 Q37.188 -44.752 37.188 -35.24 Q37.188 -25.73 43.834 -19.074 Q50.48 -12.417 59.988 -12.417 Z"/></g><g id="Semibold-M" transform="matrix(1 0 0 1 1985.97 1126)"><path d="M43.414 5.922 H31.473 Q26.193 5.922 22.52 2.25 Q18.848 -1.423 18.848 -6.703 V-18.644 L11.13 -26.406 Q9.261 -28.268 8.393 -30.525 Q7.524 -32.782 7.524 -35.23 Q7.524 -37.678 8.393 -39.935 Q9.261 -42.192 11.13 -44.053 L18.848 -51.816 V-63.757 Q18.848 -69.037 22.52 -72.71 Q26.193 -76.382 31.473 -76.382 H43.414 L51.176 -84.1 Q53.109 -85.969 55.33 -86.837 Q57.552 -87.706 60 -87.706 Q62.448 -87.706 64.67 -86.837 Q66.891 -85.969 68.823 -84.1 L76.586 -76.382 H88.527 Q93.807 -76.382 97.48 -72.71 Q101.152 -69.037 101.152 -63.757 V-51.816 L108.87 -44.053 Q110.739 -42.121 111.607 -39.9 Q112.476 -37.678 112.476 -35.23 Q112.476 -32.782 111.607 -30.56 Q110.739 -28.339 108.87 -26.406 L101.152 -18.644 V-6.703 Q101.152 -1.423 97.48 2.25 Q93.807 5.922 88.527 5.922 H76.586 L68.823 13.64 Q66.962 15.509 64.705 16.377 Q62.448 17.246 60 17.246 Q57.552 17.246 55.295 16.377 Q53.038 15.509 51.176 13.64 L43.414 5.922 Z M64.762 -37.526  71.71 -42.568  78.535 -37.526  75.864 -45.556  82.832 -50.594 H74.258 L71.693 -58.678 L69.072 -50.594 H60.492 L67.51 -45.552 L64.762 -37.526 Z M59.988 -11.711 Q69.772 -11.711 76.61 -18.552 Q83.448 -25.393 83.448 -35.234 Q83.448 -36.212 83.386 -37.119 Q83.323 -38.026 83.144 -38.964 Q81.793 -33.366 77.301 -29.818 Q72.81 -26.271 66.89 -26.271 Q59.946 -26.271 55.056 -31.11 Q50.166 -35.949 50.166 -42.936 Q50.166 -48.423 53.314 -52.68 Q56.462 -56.936 61.304 -58.678 H60 Q50.16 -58.678 43.321 -51.851 Q36.481 -45.024 36.481 -35.24 Q36.481 -25.404 43.317 -18.557 Q50.153 -11.711 59.988 -11.711 Z"/></g><g id="Medium-M" transform="matrix(1 0 0 1 1689.91 1126)"><path d="M43.617 4.536 H30.984 Q26.519 4.536 23.376 1.394 Q20.234 -1.749 20.234 -6.214 V-18.847 L11.416 -27.711 Q9.832 -29.328 9.086 -31.238 Q8.34 -33.148 8.34 -35.23 Q8.34 -37.311 9.086 -39.222 Q9.832 -41.132 11.416 -42.749 L20.234 -51.612 V-64.246 Q20.234 -68.711 23.376 -71.854 Q26.519 -74.996 30.984 -74.996 H43.617 L52.481 -83.814 Q54.128 -85.398 56.023 -86.144 Q57.919 -86.89 60 -86.89 Q62.081 -86.89 63.977 -86.144 Q65.872 -85.398 67.519 -83.814 L76.382 -74.996 H89.016 Q93.481 -74.996 96.624 -71.854 Q99.766 -68.711 99.766 -64.246 V-51.612 L108.584 -42.749 Q110.168 -41.102 110.914 -39.207 Q111.66 -37.311 111.66 -35.23 Q111.66 -33.148 110.914 -31.253 Q110.168 -29.358 108.584 -27.711 L99.766 -18.847 V-6.214 Q99.766 -1.749 96.624 1.394 Q93.481 4.536 89.016 4.536 H76.382 L67.519 13.354 Q65.902 14.939 63.992 15.684 Q62.081 16.43 60 16.43 Q57.919 16.43 56.008 15.684 Q54.098 14.939 52.481 13.354 L43.617 4.536 Z M64.885 -37.608  71.995 -42.772  78.984 -37.608  76.231 -45.801  83.361 -50.961 H74.625 L71.978 -59.249 L69.316 -50.961 H60.533 L67.673 -45.797 L64.885 -37.608 Z M59.988 -11.181 Q69.975 -11.181 76.997 -18.165 Q84.019 -25.148 84.019 -35.234 Q84.019 -36.212 83.957 -37.16 Q83.894 -38.108 83.674 -39.045 Q82.323 -33.366 77.729 -29.716 Q73.136 -26.067 67.053 -26.067 Q59.905 -26.067 54.933 -31.008 Q49.962 -35.949 49.962 -43.14 Q49.962 -48.708 53.151 -53.087 Q56.34 -57.466 61.345 -59.249 H60 Q49.916 -59.249 42.933 -52.238 Q35.951 -45.228 35.951 -35.24 Q35.951 -25.159 42.93 -18.17 Q49.909 -11.181 59.988 -11.181 Z"/></g><g id="Regular-M" transform="matrix(1 0 0 1 1394.06 1126)"><path d="M43.767 3.52 H30.625 Q26.758 3.52 24.004 0.766 Q21.25 -1.988 21.25 -5.855 V-18.997 L11.625 -28.667 Q10.25 -30.105 9.594 -31.761 Q8.938 -33.417 8.938 -35.23 Q8.938 -37.042 9.594 -38.699 Q10.25 -40.355 11.625 -41.792 L21.25 -51.463 V-64.605 Q21.25 -68.472 24.004 -71.226 Q26.758 -73.98 30.625 -73.98 H43.767 L53.438 -83.605 Q54.875 -84.98 56.531 -85.636 Q58.188 -86.292 60 -86.292 Q61.812 -86.292 63.469 -85.636 Q65.125 -84.98 66.562 -83.605 L76.233 -73.98 H89.375 Q93.242 -73.98 95.996 -71.226 Q98.75 -68.472 98.75 -64.605 V-51.463 L108.375 -41.792 Q109.75 -40.355 110.406 -38.699 Q111.062 -37.042 111.062 -35.23 Q111.062 -33.417 110.406 -31.761 Q109.75 -30.105 108.375 -28.667 L98.75 -18.997 V-5.855 Q98.75 -1.988 95.996 0.766 Q93.242 3.52 89.375 3.52 H76.233 L66.562 13.145 Q65.125 14.52 63.469 15.176 Q61.812 15.833 60 15.833 Q58.188 15.833 56.531 15.176 Q54.875 14.52 53.438 13.145 L43.767 3.52 Z M64.974 -37.667  72.205 -42.921  79.312 -37.667  76.5 -45.98  83.75 -51.23 H74.894 L72.188 -59.667 L69.495 -51.23 H60.562 L67.793 -45.976 L64.974 -37.667 Z M59.988 -10.792 Q70.125 -10.792 77.281 -17.881 Q84.438 -24.969 84.438 -35.234 Q84.438 -36.212 84.375 -37.19 Q84.312 -38.167 84.062 -39.105 Q82.711 -33.366 78.043 -29.642 Q73.375 -25.917 67.172 -25.917 Q59.875 -25.917 54.844 -30.933 Q49.812 -35.949 49.812 -43.29 Q49.812 -48.917 53.031 -53.386 Q56.25 -57.855 61.375 -59.667 H60 Q49.736 -59.667 42.649 -52.522 Q35.562 -45.377 35.562 -35.24 Q35.562 -24.98 42.646 -17.886 Q49.73 -10.792 59.988 -10.792 Z"/></g><g id="Light-M" transform="matrix(1 0 0 1 1098.18 1126)"><path d="M44.713 1.26 H32.043 Q28.523 1.26 26.017 -1.246 Q23.51 -3.753 23.51 -7.273 V-19.943 L14.221 -29.265 Q12.943 -30.562 12.37 -32.064 Q11.798 -33.567 11.798 -35.221 Q11.798 -36.874 12.365 -38.388 Q12.931 -39.901 14.221 -41.215 L23.51 -50.529 V-63.187 Q23.51 -66.707 26.017 -69.213 Q28.523 -71.72 32.043 -71.72 H44.713 L54.035 -81.009 Q55.332 -82.287 56.834 -82.872 Q58.337 -83.456 59.991 -83.456 Q61.644 -83.456 63.156 -82.872 Q64.668 -82.287 65.986 -81.009 L75.299 -71.72 H87.957 Q91.477 -71.72 93.984 -69.213 Q96.49 -66.707 96.49 -63.187 V-50.529 L105.779 -41.215 Q107.058 -39.898 107.642 -38.396 Q108.226 -36.893 108.226 -35.239 Q108.226 -33.586 107.642 -32.074 Q107.058 -30.562 105.779 -29.265 L96.49 -19.943 V-7.273 Q96.49 -3.753 93.984 -1.246 Q91.477 1.26 87.957 1.26 H75.299 L65.986 10.549 Q64.672 11.839 63.168 12.405 Q61.664 12.972 60.009 12.972 Q58.355 12.972 56.843 12.4 Q55.332 11.828 54.035 10.549 L44.713 1.26 Z M64.614 -37.499  71.315 -42.344  77.87 -37.499  75.283 -45.216  81.971 -50.004 H73.764 L71.298 -57.864 L68.793 -50.004 H60.538 L67.207 -45.212 L64.614 -37.499 Z M59.975 -12.619 Q69.38 -12.619 76.007 -19.174 Q82.635 -25.729 82.635 -35.222 Q82.635 -36.126 82.56 -37.027 Q82.486 -37.927 82.26 -38.792 Q81.008 -33.493 76.686 -30.054 Q72.364 -26.615 66.626 -26.615 Q59.875 -26.615 55.216 -31.258 Q50.558 -35.901 50.558 -42.665 Q50.558 -47.908 53.56 -52.04 Q56.562 -56.172 61.279 -57.864 H60.009 Q50.509 -57.864 43.949 -51.26 Q37.389 -44.655 37.389 -35.246 Q37.389 -25.757 43.939 -19.188 Q50.489 -12.619 59.975 -12.619 Z"/></g><g id="Thin-M" transform="matrix(1 0 0 1 802.565 1126)"><path d="M45.658 -0.999 H33.462 Q30.288 -0.999 28.029 -3.259 Q25.769 -5.518 25.769 -8.691 V-20.888 L16.817 -29.863 Q15.635 -31.018 15.147 -32.367 Q14.659 -33.716 14.659 -35.211 Q14.659 -36.706 15.135 -38.077 Q15.612 -39.447 16.817 -40.639 L25.769 -49.596 V-61.768 Q25.769 -64.941 28.029 -67.201 Q30.288 -69.461 33.462 -69.461 H45.658 L54.633 -78.413 Q55.788 -79.595 57.138 -80.107 Q58.486 -80.619 59.981 -80.619 Q61.476 -80.619 62.844 -80.107 Q64.212 -79.595 65.409 -78.413 L74.366 -69.461 H86.538 Q89.712 -69.461 91.971 -67.201 Q94.231 -64.941 94.231 -61.768 V-49.596 L103.183 -40.639 Q104.365 -39.441 104.877 -38.092 Q105.389 -36.743 105.389 -35.249 Q105.389 -33.754 104.877 -32.386 Q104.365 -31.018 103.183 -29.863 L94.231 -20.888 V-8.691 Q94.231 -5.518 91.971 -3.259 Q89.712 -0.999 86.538 -0.999 H74.366 L65.409 7.953 Q64.218 9.158 62.867 9.635 Q61.515 10.111 60.018 10.111 Q58.523 10.111 57.156 9.623 Q55.788 9.135 54.633 7.953 L45.658 -0.999 Z M64.253 -37.331  70.426 -41.768  76.428 -37.331  74.066 -44.452  80.192 -48.778 H72.634 L70.409 -56.062 L68.091 -48.778 H60.514 L66.621 -44.448 L64.253 -37.331 Z M59.961 -14.446 Q68.635 -14.446 74.733 -20.468 Q80.832 -26.489 80.832 -35.21 Q80.832 -36.04 80.745 -36.864 Q80.659 -37.687 80.457 -38.48 Q79.306 -33.62 75.33 -30.466 Q71.354 -27.312 66.08 -27.312 Q59.875 -27.312 55.589 -31.582 Q51.303 -35.853 51.303 -42.04 Q51.303 -46.898 54.089 -50.694 Q56.875 -54.49 61.183 -56.062 H60.018 Q51.281 -56.062 45.249 -49.997 Q39.216 -43.933 39.216 -35.253 Q39.216 -26.534 45.232 -20.49 Q51.248 -14.446 59.961 -14.446 Z"/></g><g id="Ultralight-M" transform="matrix(1 0 0 1 506.415 1126)"><path d="M46.226 -2.355 H34.312 Q31.348 -2.355 29.236 -4.466 Q27.125 -6.578 27.125 -9.542 V-21.456 L18.375 -30.222 Q17.25 -31.292 16.812 -32.549 Q16.375 -33.806 16.375 -35.206 Q16.375 -36.605 16.797 -37.89 Q17.22 -39.175 18.375 -40.292 L27.125 -49.036 V-60.917 Q27.125 -63.882 29.236 -65.994 Q31.348 -68.105 34.312 -68.105 H46.226 L54.992 -76.855 Q56.062 -77.98 57.319 -78.449 Q58.576 -78.917 59.976 -78.917 Q61.375 -78.917 62.656 -78.449 Q63.938 -77.98 65.062 -76.855 L73.806 -68.105 H85.688 Q88.652 -68.105 90.764 -65.994 Q92.875 -63.882 92.875 -60.917 V-49.036 L101.625 -40.292 Q102.75 -39.167 103.219 -37.911 Q103.688 -36.654 103.688 -35.254 Q103.688 -33.855 103.219 -32.574 Q102.75 -31.292 101.625 -30.222 L92.875 -21.456 V-9.542 Q92.875 -6.578 90.764 -4.466 Q88.652 -2.355 85.688 -2.355 H73.806 L65.062 6.395 Q63.946 7.55 62.686 7.973 Q61.426 8.395 60.023 8.395 Q58.624 8.395 57.343 7.958 Q56.062 7.52 54.992 6.395 L46.226 -2.355 Z M64.037 -37.23  69.892 -41.421  75.562 -37.23  73.335 -43.994  79.125 -48.042 H71.956 L69.875 -54.98 L67.67 -48.042 H60.5 L66.269 -43.99 L64.037 -37.23 Z M59.953 -15.542 Q68.188 -15.542 73.969 -21.244 Q79.75 -26.945 79.75 -35.202 Q79.75 -35.989 79.656 -36.766 Q79.562 -37.542 79.375 -38.292 Q78.284 -33.696 74.516 -30.713 Q70.747 -27.73 65.752 -27.73 Q59.875 -27.73 55.812 -31.777 Q51.75 -35.824 51.75 -41.665 Q51.75 -46.292 54.406 -49.886 Q57.062 -53.48 61.125 -54.98 H60.024 Q51.745 -54.98 46.029 -49.24 Q40.312 -43.5 40.312 -35.257 Q40.312 -27 46.008 -21.271 Q51.704 -15.542 59.953 -15.542 Z"/></g><g id="Bold-S" transform="matrix(1 0 0 1 2294.23 696)"><path d="M35.42 -4.459 H27.739 Q23.03 -4.459 19.8 -7.69 Q16.569 -10.92 16.569 -15.629 V-23.31 L12.427 -27.389 Q10.652 -29.017 9.936 -31.032 Q9.221 -33.047 9.221 -35.23 Q9.221 -37.413 9.936 -39.428 Q10.652 -41.443 12.427 -43.071 L16.569 -47.15 V-54.831 Q16.569 -59.54 19.8 -62.77 Q23.03 -66.001 27.739 -66.001 H35.42 L39.499 -70.143 Q41.225 -71.918 43.191 -72.634 Q45.157 -73.349 47.34 -73.349 Q49.523 -73.349 51.489 -72.634 Q53.455 -71.918 55.181 -70.143 L59.26 -66.001 H66.941 Q71.65 -66.001 74.88 -62.77 Q78.111 -59.54 78.111 -54.831 V-47.15 L82.253 -43.071 Q84.029 -41.345 84.744 -39.379 Q85.459 -37.413 85.459 -35.23 Q85.459 -33.047 84.744 -31.081 Q84.029 -29.115 82.253 -27.389 L78.111 -23.31 V-15.629 Q78.111 -10.92 74.88 -7.69 Q71.65 -4.459 66.941 -4.459 H59.26 L55.181 -0.317 Q53.553 1.459 51.538 2.174 Q49.523 2.889 47.34 2.889 Q45.157 2.889 43.142 2.174 Q41.127 1.459 39.499 -0.317 L35.42 -4.459 Z M50.969 -37.35  55.885 -40.904  60.704 -37.35  58.879 -43.12  63.81 -46.572 H57.612 L55.871 -52.341 L53.983 -46.572 H47.882 L52.897 -43.117 L50.969 -37.35 Z M47.353 -18.02 Q54.54 -18.02 59.496 -23.045 Q64.451 -28.071 64.451 -35.257 Q64.451 -35.998 64.402 -36.64 Q64.353 -37.282 64.254 -37.991 Q63.225 -33.832 59.918 -31.252 Q56.611 -28.671 52.383 -28.671 Q47.439 -28.671 43.765 -32.212 Q40.091 -35.752 40.091 -40.8 Q40.091 -44.945 42.483 -48.027 Q44.874 -51.109 48.326 -52.341 H47.34 Q40.165 -52.341 35.147 -47.371 Q30.13 -42.401 30.13 -35.213 Q30.13 -28.03 35.151 -23.025 Q40.173 -18.02 47.353 -18.02 Z"/></g><g id="Semibold-S" transform="matrix(1 0 0 1 1998.1 696)"><path d="M35.634 -5.917 H27.225 Q23.373 -5.917 20.7 -8.59 Q18.027 -11.263 18.027 -15.115 V-23.524 L12.727 -28.761 Q11.252 -30.131 10.665 -31.782 Q10.079 -33.433 10.079 -35.23 Q10.079 -37.027 10.665 -38.678 Q11.252 -40.329 12.727 -41.699 L18.027 -46.936 V-55.345 Q18.027 -59.197 20.7 -61.87 Q23.373 -64.543 27.225 -64.543 H35.634 L40.871 -69.843 Q42.297 -71.318 43.92 -71.905 Q45.543 -72.491 47.34 -72.491 Q49.137 -72.491 50.76 -71.905 Q52.383 -71.318 53.809 -69.843 L59.046 -64.543 H67.455 Q71.307 -64.543 73.98 -61.87 Q76.653 -59.197 76.653 -55.345 V-46.936 L81.953 -41.699 Q83.428 -40.273 84.015 -38.65 Q84.601 -37.027 84.601 -35.23 Q84.601 -33.433 84.015 -31.81 Q83.428 -30.187 81.953 -28.761 L76.653 -23.524 V-15.115 Q76.653 -11.263 73.98 -8.59 Q71.307 -5.917 67.455 -5.917 H59.046 L53.809 -0.617 Q52.439 0.858 50.788 1.445 Q49.137 2.031 47.34 2.031 Q45.543 2.031 43.892 1.445 Q42.241 0.858 40.871 -0.617 L35.634 -5.917 Z M51.097 -37.436  56.185 -41.118  61.175 -37.436  59.265 -43.377  64.368 -46.958 H57.998 L56.171 -52.942 L54.24 -46.958 H47.925 L53.068 -43.374 L51.097 -37.436 Z M47.353 -17.463 Q54.754 -17.463 59.903 -22.638 Q65.052 -27.814 65.052 -35.257 Q65.052 -35.998 65.002 -36.683 Q64.953 -37.368 64.812 -38.077 Q63.783 -33.832 60.368 -31.145 Q56.954 -28.457 52.555 -28.457 Q47.396 -28.457 43.636 -32.104 Q39.877 -35.752 39.877 -41.015 Q39.877 -45.245 42.311 -48.455 Q44.746 -51.666 48.369 -52.942 H47.34 Q39.908 -52.942 34.74 -47.779 Q29.573 -42.615 29.573 -35.213 Q29.573 -27.773 34.744 -22.618 Q39.915 -17.463 47.353 -17.463 Z"/></g><g id="Medium-S" transform="matrix(1 0 0 1 1701.85 696)"><path d="M35.795 -7.01 H26.839 Q23.631 -7.01 21.375 -9.265 Q19.12 -11.521 19.12 -14.729 V-23.685 L12.952 -29.791 Q11.702 -30.968 11.212 -32.345 Q10.722 -33.722 10.722 -35.23 Q10.722 -36.738 11.212 -38.115 Q11.702 -39.492 12.952 -40.669 L19.12 -46.775 V-55.731 Q19.12 -58.939 21.375 -61.195 Q23.631 -63.45 26.839 -63.45 H35.795 L41.901 -69.618 Q43.101 -70.868 44.467 -71.358 Q45.832 -71.848 47.34 -71.848 Q48.848 -71.848 50.213 -71.358 Q51.579 -70.868 52.779 -69.618 L58.885 -63.45 H67.841 Q71.049 -63.45 73.305 -61.195 Q75.56 -58.939 75.56 -55.731 V-46.775 L81.728 -40.669 Q82.978 -39.469 83.468 -38.103 Q83.958 -36.738 83.958 -35.23 Q83.958 -33.722 83.468 -32.357 Q82.978 -30.991 81.728 -29.791 L75.56 -23.685 V-14.729 Q75.56 -11.521 73.305 -9.265 Q71.049 -7.01 67.841 -7.01 H58.885 L52.779 -0.842 Q51.602 0.408 50.225 0.898 Q48.848 1.388 47.34 1.388 Q45.832 1.388 44.455 0.898 Q43.078 0.408 41.901 -0.842 L35.795 -7.01 Z M51.194 -37.501  56.41 -41.279  61.529 -37.501  59.555 -43.57  64.786 -47.247 H58.287 L56.396 -53.392 L54.433 -47.247 H47.957 L53.197 -43.567 L51.194 -37.501 Z M47.353 -17.044 Q54.915 -17.044 60.208 -22.333 Q65.502 -27.621 65.502 -35.257 Q65.502 -35.998 65.453 -36.715 Q65.403 -37.432 65.23 -38.142 Q64.201 -33.832 60.706 -31.064 Q57.211 -28.296 52.683 -28.296 Q47.364 -28.296 43.54 -32.024 Q39.716 -35.752 39.716 -41.175 Q39.716 -45.47 42.183 -48.777 Q44.649 -52.084 48.401 -53.392 H47.34 Q39.715 -53.392 34.435 -48.084 Q29.154 -42.776 29.154 -35.213 Q29.154 -27.58 34.438 -22.312 Q39.722 -17.044 47.353 -17.044 Z"/></g><g id="Regular-S" transform="matrix(1 0 0 1 1405.73 696)"><path d="M35.913 -7.812 H26.556 Q23.819 -7.812 21.871 -9.761 Q19.922 -11.709 19.922 -14.446 V-23.803 L13.117 -30.545 Q12.032 -31.581 11.613 -32.758 Q11.194 -33.934 11.194 -35.23 Q11.194 -36.526 11.613 -37.702 Q12.032 -38.879 13.117 -39.915 L19.922 -46.657 V-56.014 Q19.922 -58.751 21.871 -60.699 Q23.819 -62.648 26.556 -62.648 H35.913 L42.655 -69.453 Q43.691 -70.538 44.868 -70.957 Q46.044 -71.376 47.34 -71.376 Q48.636 -71.376 49.812 -70.957 Q50.989 -70.538 52.025 -69.453 L58.767 -62.648 H68.124 Q70.861 -62.648 72.809 -60.699 Q74.758 -58.751 74.758 -56.014 V-46.657 L81.563 -39.915 Q82.648 -38.879 83.067 -37.702 Q83.486 -36.526 83.486 -35.23 Q83.486 -33.934 83.067 -32.758 Q82.648 -31.581 81.563 -30.545 L74.758 -23.803 V-14.446 Q74.758 -11.709 72.809 -9.761 Q70.861 -7.812 68.124 -7.812 H58.767 L52.025 -1.007 Q50.989 0.078 49.812 0.497 Q48.636 0.916 47.34 0.916 Q46.044 0.916 44.868 0.497 Q43.691 0.078 42.655 -1.007 L35.913 -7.812 Z M51.265 -37.548  56.575 -41.397  61.789 -37.548  59.767 -43.712  65.093 -47.459 H58.499 L56.561 -53.722 L54.574 -47.459 H47.981 L53.291 -43.709 L51.265 -37.548 Z M47.353 -16.738 Q55.033 -16.738 60.432 -22.108 Q65.832 -27.479 65.832 -35.257 Q65.832 -35.998 65.783 -36.739 Q65.734 -37.48 65.536 -38.189 Q64.508 -33.832 60.954 -31.005 Q57.4 -28.178 52.778 -28.178 Q47.34 -28.178 43.469 -31.965 Q39.598 -35.752 39.598 -41.293 Q39.598 -45.635 42.088 -49.013 Q44.579 -52.391 48.425 -53.722 H47.34 Q39.573 -53.722 34.211 -48.308 Q28.848 -42.894 28.848 -35.213 Q28.848 -27.439 34.214 -22.088 Q39.581 -16.738 47.353 -16.738 Z"/></g><g id="Light-S" transform="matrix(1 0 0 1 1109.75 696)"><path d="M36.659 -9.595 H27.675 Q25.212 -9.595 23.459 -11.349 Q21.705 -13.102 21.705 -15.565 V-24.549 L15.166 -31.017 Q14.157 -31.941 13.804 -32.997 Q13.451 -34.052 13.451 -35.223 Q13.451 -36.393 13.799 -37.457 Q14.148 -38.521 15.166 -39.459 L21.705 -45.92 V-54.895 Q21.705 -57.358 23.459 -59.111 Q25.212 -60.865 27.675 -60.865 H36.659 L43.127 -67.404 Q44.051 -68.413 45.107 -68.776 Q46.162 -69.138 47.333 -69.138 Q48.503 -69.138 49.566 -68.776 Q50.629 -68.413 51.569 -67.404 L58.03 -60.865 H67.005 Q69.468 -60.865 71.221 -59.111 Q72.975 -57.358 72.975 -54.895 V-45.92 L79.514 -39.459 Q80.523 -38.519 80.886 -37.463 Q81.248 -36.408 81.248 -35.237 Q81.248 -34.067 80.886 -33.004 Q80.523 -31.941 79.514 -31.017 L72.975 -24.549 V-15.565 Q72.975 -13.102 71.221 -11.349 Q69.468 -9.595 67.005 -9.595 H58.03 L51.569 -3.056 Q50.631 -2.038 49.575 -1.689 Q48.518 -1.341 47.347 -1.341 Q46.177 -1.341 45.114 -1.694 Q44.051 -2.047 43.127 -3.056 L36.659 -9.595 Z M50.98 -37.415  55.873 -40.942  60.651 -37.415  58.806 -43.109  63.689 -46.492 H57.608 L55.86 -52.3 L54.021 -46.492 H47.962 L52.829 -43.106 L50.98 -37.415 Z M47.342 -18.179 Q54.445 -18.179 59.427 -23.129 Q64.41 -28.079 64.41 -35.248 Q64.41 -35.93 64.351 -36.61 Q64.292 -37.29 64.114 -37.942 Q63.164 -33.932 59.883 -31.33 Q56.602 -28.728 52.347 -28.728 Q47.34 -28.728 43.763 -32.221 Q40.186 -35.714 40.186 -40.8 Q40.186 -44.838 42.506 -47.951 Q44.825 -51.063 48.349 -52.3 H47.347 Q40.183 -52.3 35.236 -47.312 Q30.289 -42.324 30.289 -35.218 Q30.289 -28.052 35.235 -23.115 Q40.18 -18.179 47.342 -18.179 Z"/></g><g id="Thin-S" transform="matrix(1 0 0 1 814.015 696)"><path d="M37.405 -11.378 H28.794 Q26.605 -11.378 25.046 -12.936 Q23.488 -14.495 23.488 -16.684 V-25.295 L17.214 -31.489 Q16.281 -32.302 15.994 -33.236 Q15.708 -34.17 15.708 -35.215 Q15.708 -36.26 15.985 -37.212 Q16.263 -38.163 17.214 -39.004 L23.488 -45.184 V-53.776 Q23.488 -55.965 25.046 -57.524 Q26.605 -59.082 28.794 -59.082 H37.405 L43.599 -65.356 Q44.412 -66.289 45.346 -66.595 Q46.28 -66.9 47.325 -66.9 Q48.37 -66.9 49.319 -66.595 Q50.268 -66.289 51.114 -65.356 L57.294 -59.082 H65.886 Q68.075 -59.082 69.634 -57.524 Q71.192 -55.965 71.192 -53.776 V-45.184 L77.466 -39.004 Q78.399 -38.158 78.705 -37.224 Q79.01 -36.29 79.01 -35.245 Q79.01 -34.2 78.705 -33.251 Q78.399 -32.302 77.466 -31.489 L71.192 -25.295 V-16.684 Q71.192 -14.495 69.634 -12.936 Q68.075 -11.378 65.886 -11.378 H57.294 L51.114 -5.104 Q50.274 -4.153 49.337 -3.875 Q48.401 -3.598 47.354 -3.598 Q46.309 -3.598 45.36 -3.884 Q44.412 -4.171 43.599 -5.104 L37.405 -11.378 Z M50.696 -37.282  55.172 -40.487  59.513 -37.282  57.846 -42.506  62.286 -45.525 H56.716 L55.158 -50.877 L53.467 -45.525 H47.943 L52.367 -42.503 L50.696 -37.282 Z M47.332 -19.621 Q53.857 -19.621 58.422 -24.15 Q62.987 -28.679 62.987 -35.238 Q62.987 -35.863 62.919 -36.481 Q62.851 -37.1 62.691 -37.696 Q61.821 -34.033 58.813 -31.655 Q55.805 -29.278 51.916 -29.278 Q47.34 -29.278 44.057 -32.477 Q40.774 -35.676 40.774 -40.307 Q40.774 -44.042 42.923 -46.889 Q45.072 -49.735 48.273 -50.877 H47.354 Q40.792 -50.877 36.262 -46.316 Q31.731 -41.755 31.731 -35.223 Q31.731 -28.665 36.255 -24.143 Q40.779 -19.621 47.332 -19.621 Z"/></g><g id="Ultralight-S" transform="matrix(1 0 0 1 517.792 696)"><path d="M37.853 -12.448 H29.465 Q27.441 -12.448 25.999 -13.889 Q24.558 -15.331 24.558 -17.355 V-25.743 L18.443 -31.772 Q17.555 -32.518 17.309 -33.379 Q17.062 -34.241 17.062 -35.211 Q17.062 -36.18 17.297 -37.064 Q17.532 -37.948 18.443 -38.731 L24.558 -44.742 V-53.105 Q24.558 -55.129 25.999 -56.571 Q27.441 -58.012 29.465 -58.012 H37.853 L43.882 -64.127 Q44.628 -65.015 45.489 -65.286 Q46.351 -65.557 47.321 -65.557 Q48.29 -65.557 49.171 -65.286 Q50.052 -65.015 50.841 -64.127 L56.852 -58.012 H65.215 Q67.239 -58.012 68.681 -56.571 Q70.122 -55.129 70.122 -53.105 V-44.742 L76.237 -38.731 Q77.125 -37.942 77.396 -37.081 Q77.667 -36.219 77.667 -35.249 Q77.667 -34.28 77.396 -33.399 Q77.125 -32.518 76.237 -31.772 L70.122 -25.743 V-17.355 Q70.122 -15.331 68.681 -13.889 Q67.239 -12.448 65.215 -12.448 H56.852 L50.841 -6.333 Q50.059 -5.422 49.195 -5.187 Q48.331 -4.952 47.358 -4.952 Q46.388 -4.952 45.508 -5.199 Q44.628 -5.445 43.882 -6.333 L37.853 -12.448 Z M50.525 -37.202  54.75 -40.214  58.83 -37.202  57.27 -42.145  61.443 -44.945 H56.182 L54.737 -50.024 L53.135 -44.945 H47.932 L52.089 -42.142 L50.525 -37.202 Z M47.325 -20.486 Q53.504 -20.486 57.819 -24.762 Q62.134 -29.039 62.134 -35.232 Q62.134 -35.822 62.06 -36.404 Q61.986 -36.987 61.838 -37.548 Q61.015 -34.093 58.171 -31.851 Q55.326 -29.608 51.657 -29.608 Q47.34 -29.608 44.233 -32.631 Q41.127 -35.653 41.127 -40.011 Q41.127 -43.564 43.173 -46.251 Q45.22 -48.939 48.228 -50.024 H47.359 Q41.158 -50.024 36.877 -45.718 Q32.596 -41.413 32.596 -35.227 Q32.596 -29.032 36.867 -24.759 Q41.139 -20.486 47.325 -20.486 Z"/></g></g></svg>