<svg xmlns="http://www.w3.org/2000/svg" height="20" viewBox="0 -960 960 960" width="20"><path d="M629.979-35.39q-85.786 0-158.175-46.935-72.39-46.934-102.477-123.455-11.783-14.022-12.294-32.87-.511-18.849 8.25-35.697 8.761-16.848 25.663-26.555 16.903-9.707 35.751-9.707h249.259q1.001-6.304.718-14.292-.283-7.988-.283-16.356 0-8.058-.217-16.215-.217-8.158-1.217-17.527h-77.261q-16.061 0-27.889-11.728-11.828-11.729-11.828-28.305 0-16.577 11.8-28.838 11.8-12.26 28.483-12.26h204.434q-19.739-26.848-45.717-46.391-25.978-19.544-56.826-29.283-17.696-7.326-26.696-21.685-9-14.359-3.739-30.337t18.055-24.228q12.794-8.25 26.489-3.555 93.239 28.457 151.794 105.272 58.554 76.816 58.554 175.816 0 122.971-86.122 209.051-86.121 86.08-208.509 86.08Zm-96.501-106.98q-7.741-21.211-12.71-42.707-4.968-21.495-9.194-44.4h-67.378q13.609 28.282 36.711 50.297 23.101 22.016 52.571 36.81Zm96.501 14.805q14.173-24.044 22.162-50.007 7.99-25.964 13.555-51.905h-72.434q5.434 25.912 14.255 52.015 8.82 26.103 22.462 49.897Zm95.5-12.805q30.783-13.804 54.728-36.814 23.945-23.011 37.554-52.293h-69.683q-3.931 22.941-9.363 45.535-5.431 22.594-13.236 43.572Zm32.174-170.239h85.911q.48-5.037.697-9.981.218-4.944.218-9.431 0-11.305-.957-22.948-.956-11.644-3.799-22.03h-82.07q1 9.369.717 17.149-.282 7.779-.282 16.622 0 6.976.282 15.34.283 8.365-.717 15.279Zm-427.382-24.739q-122.967 0-208.924-85.795Q35.39-506.937 35.39-630.067q0-123.129 85.915-208.836 85.915-85.707 209.216-85.707 122.718 0 208.675 85.795 85.956 85.795 85.956 208.925 0 123.129-85.956 208.836-85.957 85.706-208.925 85.706Zm0-81.131q89.25 0 151.5-62.274t62.25-151.25q0-88.976-62.267-151.226t-151.233-62.25q-89.5 0-151.75 62.274-62.25 62.275-62.25 151.25 0 88.976 62.25 151.226t151.5 62.25Zm-97.076-233.347q16.826 0 28.837-11.832t12.011-28.846q0-16.576-11.831-28.515-11.832-11.938-28.846-11.938-16.576 0-28.515 11.728t-11.939 28.554q0 16.827 11.728 28.838t28.555 12.011Zm96.943 163.522q47.275 0 84.096-25.57 36.82-25.569 53.396-67.648H192.912q16.576 42.079 53.264 67.648 36.687 25.57 83.962 25.57Zm96.959-163.522q16.577 0 28.838-11.832t12.261-28.846q0-16.576-12.051-28.515-12.05-11.938-28.627-11.938-16.576 0-28.515 11.728-11.938 11.728-11.938 28.554 0 16.827 11.728 28.838t28.304 12.011Zm-96.576 19.847Z"/></svg>