<svg xmlns="http://www.w3.org/2000/svg" version="1.1" width="3300" height="2000"><g id="Notes"><style>
    text {
      font-family: monospace;
      text-anchor: middle;
    }
    text.emphasis {
      font-weight:bold;
    }
    text.lanchor {
      text-anchor: start;
    }
  </style><rect height="2200" id="artboard" fill="white" width="3300" x="0" y="0"/><line id="" style="fill:none;stroke:black;stroke-width:0.5;" x1="263" x2="3036" y1="292" y2="292"/><text class="lanchor emphasis" transform="matrix(1 0 0 1 263 322)">Weight/Scale Variations</text><text transform="matrix(1 0 0 1 559.711 322)">Ultralight</text><text transform="matrix(1 0 0 1 856.422 322)">Thin</text><text transform="matrix(1 0 0 1 1153.13 322)">Light</text><text transform="matrix(1 0 0 1 1449.84 322)">Regular</text><text transform="matrix(1 0 0 1 1746.56 322)">Medium</text><text transform="matrix(1 0 0 1 2043.27 322)">Semibold</text><text transform="matrix(1 0 0 1 2339.98 322)">Bold</text><text transform="matrix(1 0 0 1 2636.69 322)">Heavy</text><text transform="matrix(1 0 0 1 2933.4 322)">Black</text><text id="template-version" style="text-anchor: end;" transform="matrix(1 0 0 1 3036 1933)">Template v.1.0</text><text class="lanchor" transform="matrix(1 0 0 1 263 726)">Small</text><text class="lanchor" transform="matrix(1 0 0 1 263 1156)">Medium</text><text class="lanchor" transform="matrix(1 0 0 1 263 1586)">Large</text></g><g id="Guides"><g id="H-reference" style="fill:#27AAE1;stroke:none;" transform="matrix(1 0 0 1 339 696)"><path d="M 54.9316 0 L 57.666 0 L 30.5664 -70.459 L 28.0762 -70.459 L 0.976562 0 L 3.66211 0 L 12.9395 -24.4629 L 45.7031 -24.4629 Z M 29.1992 -67.0898 L 29.4434 -67.0898 L 44.8242 -26.709 L 13.8184 -26.709 Z"/></g><line id="Baseline-S" style="fill:none;stroke:#27AAE1;opacity:1;stroke-width:0.577;" x1="263" x2="3036" y1="696" y2="696"/><line id="Capline-S" style="fill:none;stroke:#27AAE1;opacity:1;stroke-width:0.577;" x1="263" x2="3036" y1="625.541" y2="625.541"/><g id="H-reference" style="fill:#27AAE1;stroke:none;" transform="matrix(1 0 0 1 339 1126)"><path d="M 54.9316 0 L 57.666 0 L 30.5664 -70.459 L 28.0762 -70.459 L 0.976562 0 L 3.66211 0 L 12.9395 -24.4629 L 45.7031 -24.4629 Z M 29.1992 -67.0898 L 29.4434 -67.0898 L 44.8242 -26.709 L 13.8184 -26.709 Z"/></g><line id="Baseline-M" style="fill:none;stroke:#27AAE1;opacity:1;stroke-width:0.577;" x1="263" x2="3036" y1="1126" y2="1126"/><line id="Capline-M" style="fill:none;stroke:#27AAE1;opacity:1;stroke-width:0.577;" x1="263" x2="3036" y1="1055.54" y2="1055.54"/><g id="H-reference" style="fill:#27AAE1;stroke:none;" transform="matrix(1 0 0 1 339 1556)"><path d="M 54.9316 0 L 57.666 0 L 30.5664 -70.459 L 28.0762 -70.459 L 0.976562 0 L 3.66211 0 L 12.9395 -24.4629 L 45.7031 -24.4629 Z M 29.1992 -67.0898 L 29.4434 -67.0898 L 44.8242 -26.709 L 13.8184 -26.709 Z"/></g><line id="Baseline-L" style="fill:none;stroke:#27AAE1;opacity:1;stroke-width:0.577;" x1="263" x2="3036" y1="1556" y2="1556"/><line id="Capline-L" style="fill:none;stroke:#27AAE1;opacity:1;stroke-width:0.577;" x1="263" x2="3036" y1="1485.54" y2="1485.54"/><rect height="119.336" id="left-margin" style="fill:darkred;stroke:none;opacity:0.4;" width="12.4512" x="1394.06" y="1030.79"/><rect height="119.336" id="right-margin" style="fill:darkgreen;stroke:none;opacity:0.4;" width="12.4512" x="1502.5112" y="1030.79"/><rect x="1406.5112" y="1045" width="96" height="96" fill="none" stroke="blue" stroke-dasharray="5"/><rect x="1394.06" y="1030.79" width="120.9024" height="119.336" fill="none" stroke="blue"/></g><g id="Symbols"><g id="Bold-L" transform="matrix(1 0 0 1 2266 1556)"><path d="M127.549 -3.302 Q126.097 -3.302 124.808 -3.947 Q123.517 -4.592 122.389 -5.721 L43.215 -84.411 Q42.409 -85.217 41.602 -86.669 Q40.796 -88.12 40.796 -89.571 V-97.956 Q40.796 -100.375 42.328 -101.826 Q43.86 -103.277 46.601 -103.277 H53.696 Q56.76 -103.277 58.937 -101.181 Q61.114 -99.085 61.114 -95.86 V-90.377 H93.847 V-95.86 Q93.847 -99.085 95.863 -101.181 Q97.879 -103.277 101.265 -103.277 H107.07 Q110.295 -103.277 112.391 -101.181 Q114.487 -99.085 114.487 -95.86 V-89.087 Q122.711 -87.314 128.839 -81.428 Q134.966 -75.542 134.966 -66.19 V-10.72 Q134.966 -7.334 132.709 -5.318 Q130.451 -3.302 127.549 -3.302 Z M36.926 32.656 Q30.96 32.656 26.687 28.464 Q22.414 24.271 22.414 18.144 V-64.739 Q22.414 -70.382 24.429 -75.22 Q26.445 -80.057 30.476 -83.766 L31.444 -82.799 V-66.996 L9.191 -89.571 Q7.579 -91.022 7.498 -93.199 Q7.418 -95.376 9.353 -97.15 Q10.804 -98.762 13.223 -98.762 Q15.641 -98.762 17.093 -97.15 L139.481 25.239 Q140.933 26.69 140.852 29.028 Q140.771 31.366 139.481 32.818 Q137.708 34.591 135.369 34.511 Q133.031 34.43 131.58 32.818 L116.261 17.338 H131.257 L132.064 18.305 V21.53 Q130.774 26.529 126.823 29.593 Q122.873 32.656 117.874 32.656 H36.926 Z M74.981 -23.781  63.855 -34.585 H51.6 Q49.826 -34.585 48.859 -33.456 Q47.891 -32.327 47.891 -29.264 Q47.891 -26.845 49.423 -25.313 Q50.955 -23.781 53.374 -23.781 H74.981 Z"/></g><g id="Semibold-L" transform="matrix(1 0 0 1 1970.27 1556)"><path d="M126.778 -3.863 Q125.467 -3.863 124.282 -4.438 Q123.097 -5.013 122.038 -6.072 L44.126 -84.201 Q43.25 -85.077 42.514 -86.458 Q41.778 -87.84 41.778 -89.221 V-97.746 Q41.778 -100.024 43.345 -101.441 Q44.912 -102.857 47.513 -102.857 H54.327 Q57.111 -102.857 59.112 -100.936 Q61.114 -99.015 61.114 -96.14 V-89.957 H93.777 V-96.14 Q93.777 -99.015 95.653 -100.936 Q97.528 -102.857 100.564 -102.857 H106.649 Q109.524 -102.857 111.48 -100.936 Q113.436 -99.015 113.436 -96.14 V-88.807 Q121.87 -87.103 127.682 -80.727 Q133.494 -74.351 133.494 -65.208 V-10.65 Q133.494 -7.544 131.412 -5.704 Q129.33 -3.863 126.778 -3.863 Z M36.085 32.306 Q30.609 32.306 26.687 28.464 Q22.764 24.622 22.764 18.985 V-64.388 Q22.764 -69.822 24.815 -74.694 Q26.866 -79.567 30.897 -83.276 L33.477 -80.766 V-64.473 L10.173 -87.959 Q8.42 -89.55 8.41 -91.832 Q8.399 -94.114 10.334 -95.888 Q11.855 -97.501 14.309 -97.501 Q16.763 -97.501 18.354 -95.888 L138.219 23.977 Q139.811 25.568 139.73 27.906 Q139.65 30.245 138.219 31.836 Q136.376 33.61 134.002 33.564 Q131.629 33.519 130.038 31.836 L113.317 15.024 H129.084 L131.853 17.954 V21.179 Q130.984 26.038 127.279 29.172 Q123.574 32.306 118.715 32.306 H36.085 Z M74.771 -23.361  63.294 -34.585 H50.829 Q49.125 -34.375 48.123 -33.141 Q47.12 -31.907 47.12 -29.053 Q47.12 -26.565 48.722 -24.963 Q50.324 -23.361 52.813 -23.361 H74.771 Z"/></g><g id="Medium-L" transform="matrix(1 0 0 1 1674.31 1556)"><path d="M126.199 -4.284 Q124.993 -4.284 123.887 -4.806 Q122.781 -5.329 121.775 -6.335 L44.81 -84.043 Q43.881 -84.972 43.197 -86.301 Q42.514 -87.629 42.514 -88.958 V-97.588 Q42.514 -99.762 44.107 -101.151 Q45.7 -102.541 48.196 -102.541 H54.8 Q57.373 -102.541 59.244 -100.752 Q61.114 -98.962 61.114 -96.351 V-89.641 H93.725 V-96.351 Q93.725 -98.962 95.495 -100.752 Q97.265 -102.541 100.038 -102.541 H106.334 Q108.945 -102.541 110.796 -100.752 Q112.647 -98.962 112.647 -96.351 V-88.597 Q121.239 -86.946 126.814 -80.201 Q132.39 -73.457 132.39 -64.472 V-10.597 Q132.39 -7.702 130.439 -5.993 Q128.488 -4.284 126.199 -4.284 Z M35.454 32.043 Q30.347 32.043 26.687 28.464 Q23.027 24.885 23.027 19.616 V-64.125 Q23.027 -69.401 25.104 -74.3 Q27.181 -79.199 31.212 -82.907 L35.002 -79.241 V-62.579 L10.909 -86.749 Q9.051 -88.446 9.093 -90.807 Q9.135 -93.168 11.07 -94.942 Q12.644 -96.554 15.124 -96.554 Q17.604 -96.554 19.301 -94.942 L137.273 23.03 Q138.969 24.727 138.889 27.065 Q138.808 29.403 137.273 31.1 Q135.376 32.874 132.977 32.854 Q130.578 32.835 128.881 31.1 L111.108 13.289 H127.454 L131.696 17.692 V20.917 Q131.142 25.67 127.621 28.856 Q124.099 32.043 119.346 32.043 H35.454 Z M74.613 -23.045  62.873 -34.585 H50.25 Q48.599 -34.217 47.571 -32.904 Q46.542 -31.591 46.542 -28.896 Q46.542 -26.354 48.196 -24.7 Q49.851 -23.045 52.392 -23.045 H74.613 Z"/></g><g id="Regular-L" transform="matrix(1 0 0 1 1378.56 1556)"><path d="M125.775 -4.592 Q124.646 -4.592 123.598 -5.076 Q122.55 -5.56 121.583 -6.527 L45.311 -83.927 Q44.344 -84.895 43.699 -86.185 Q43.054 -87.475 43.054 -88.765 V-97.472 Q43.054 -99.569 44.666 -100.939 Q46.279 -102.31 48.697 -102.31 H55.148 Q57.566 -102.31 59.34 -100.617 Q61.114 -98.924 61.114 -96.505 V-89.41 H93.686 V-96.505 Q93.686 -98.924 95.379 -100.617 Q97.073 -102.31 99.653 -102.31 H106.103 Q108.521 -102.31 110.295 -100.617 Q112.069 -98.924 112.069 -96.505 V-88.442 Q120.776 -86.83 126.178 -79.816 Q131.58 -72.801 131.58 -63.932 V-10.559 Q131.58 -7.817 129.726 -6.205 Q127.871 -4.592 125.775 -4.592 Z M34.991 31.85 Q30.154 31.85 26.687 28.464 Q23.22 25.078 23.22 20.079 V-63.932 Q23.22 -69.092 25.316 -74.011 Q27.413 -78.929 31.444 -82.637 L36.12 -78.122 V-61.191 L11.449 -85.862 Q9.514 -87.636 9.594 -90.055 Q9.675 -92.474 11.61 -94.247 Q13.223 -95.86 15.722 -95.86 Q18.221 -95.86 19.995 -94.247 L136.579 22.336 Q138.352 24.11 138.272 26.448 Q138.191 28.786 136.579 30.56 Q134.644 32.334 132.225 32.334 Q129.806 32.334 128.032 30.56 L109.489 12.016 H126.259 L131.58 17.499 V20.724 Q131.257 25.4 127.871 28.625 Q124.485 31.85 119.809 31.85 H34.991 Z M74.498 -22.814  62.565 -34.585 H49.826 Q48.214 -34.101 47.166 -32.731 Q46.117 -31.36 46.117 -28.78 Q46.117 -26.2 47.811 -24.507 Q49.504 -22.814 52.084 -22.814 H74.498 Z"/></g><g id="Light-L" transform="matrix(1 0 0 1 1082.77 1556)"><path d="M122.736 -8.686 Q121.607 -8.686 120.59 -9.17 Q119.573 -9.653 118.667 -10.621 L48.474 -81.881 Q47.507 -82.786 46.893 -84.014 Q46.279 -85.242 46.279 -86.47 V-94.433 Q46.279 -96.468 47.829 -97.776 Q49.38 -99.085 51.737 -99.085 H56.202 Q58.559 -99.085 60.27 -97.454 Q61.982 -95.823 61.982 -93.466 V-86.185 H92.818 V-93.466 Q92.818 -95.823 94.449 -97.454 Q96.08 -99.085 98.598 -99.085 H103.063 Q105.42 -99.085 107.132 -97.454 Q108.844 -95.823 108.844 -93.466 V-85.465 Q117.427 -84.163 122.891 -77.49 Q128.355 -70.816 128.355 -62.196 V-14.466 Q128.355 -11.849 126.562 -10.268 Q124.77 -8.686 122.736 -8.686 Z M37.844 28.625 Q33.193 28.625 29.788 25.425 Q26.383 22.224 26.445 17.412 V-62.196 Q26.445 -67.046 28.417 -71.685 Q30.39 -76.324 34.297 -79.784 L38.043 -76.262 V-62.68 L14.736 -85.925 Q13.173 -87.326 13.223 -89.28 Q13.272 -91.233 14.897 -92.697 Q16.138 -93.937 18.141 -93.937 Q20.144 -93.937 21.608 -92.697 L134.966 20.662 Q136.368 22.125 136.287 23.998 Q136.206 25.871 134.966 27.273 Q133.341 28.736 131.45 28.736 Q129.558 28.736 128.095 27.273 L109.427 8.605 H122.909 L128.355 14.274 V17.995 Q128.032 22.485 124.739 25.555 Q121.446 28.625 116.956 28.625 H37.844 Z M77.165 -23.496  67.713 -32.91 H50.757 Q49.64 -32.427 48.933 -31.397 Q48.226 -30.368 48.226 -28.284 Q48.226 -26.2 49.578 -24.848 Q50.93 -23.496 53.014 -23.496 H77.165 Z"/></g><g id="Thin-L" transform="matrix(1 0 0 1 787.282 1556)"><path d="M119.697 -12.779 Q118.568 -12.779 117.582 -13.263 Q116.596 -13.747 115.753 -14.714 L51.637 -79.834 Q50.67 -80.678 50.087 -81.844 Q49.504 -83.01 49.504 -84.176 V-91.395 Q49.504 -93.367 50.992 -94.613 Q52.481 -95.86 54.775 -95.86 H57.256 Q59.551 -95.86 61.201 -94.291 Q62.85 -92.722 62.85 -90.427 V-82.96 H91.95 V-90.427 Q91.95 -92.722 93.519 -94.291 Q95.088 -95.86 97.544 -95.86 H100.025 Q102.319 -95.86 103.969 -94.291 Q105.619 -92.722 105.619 -90.427 V-82.489 Q114.078 -81.496 119.604 -75.164 Q125.13 -68.832 125.13 -60.459 V-18.373 Q125.13 -15.88 123.4 -14.329 Q121.669 -12.779 119.697 -12.779 Z M40.697 25.4 Q36.232 25.4 32.889 22.386 Q29.546 19.372 29.67 14.745 V-60.459 Q29.67 -64.999 31.518 -69.359 Q33.366 -73.719 37.149 -76.932 L39.965 -74.401 V-64.168 L18.023 -85.987 Q16.832 -87.016 16.851 -88.505 Q16.869 -89.993 18.184 -91.147 Q19.052 -92.015 20.559 -92.015 Q22.066 -92.015 23.22 -91.147 L133.354 18.987 Q134.383 20.141 134.303 21.549 Q134.222 22.956 133.354 23.986 Q132.039 25.14 130.675 25.14 Q129.31 25.14 128.157 23.986 L109.365 5.194 H119.561 L125.13 11.049 V15.266 Q124.808 19.57 121.607 22.485 Q118.407 25.4 114.103 25.4 H40.697 Z M79.831 -24.178  72.86 -31.236 H51.687 Q51.067 -30.752 50.701 -30.064 Q50.335 -29.375 50.335 -27.788 Q50.335 -26.2 51.346 -25.189 Q52.357 -24.178 53.944 -24.178 H79.831 Z"/></g><g id="Ultralight-L" transform="matrix(1 0 0 1 491.205 1556)"><path d="M117.874 -15.235 Q116.745 -15.235 115.778 -15.719 Q114.81 -16.202 114.004 -17.17 L53.535 -78.606 Q52.568 -79.412 52.003 -80.541 Q51.439 -81.67 51.439 -82.799 V-89.571 Q51.439 -91.506 52.89 -92.716 Q54.341 -93.925 56.599 -93.925 H57.889 Q60.146 -93.925 61.759 -92.393 Q63.371 -90.861 63.371 -88.604 V-81.025 H91.429 V-88.604 Q91.429 -90.861 92.961 -92.393 Q94.493 -93.925 96.911 -93.925 H98.201 Q100.459 -93.925 102.071 -92.393 Q103.684 -90.861 103.684 -88.604 V-80.702 Q112.069 -79.896 117.632 -73.769 Q123.195 -67.641 123.195 -59.417 V-20.717 Q123.195 -18.299 121.502 -16.767 Q119.809 -15.235 117.874 -15.235 Z M42.409 23.465 Q38.055 23.465 34.749 20.563 Q31.444 17.66 31.605 13.145 V-59.417 Q31.605 -63.771 33.379 -67.964 Q35.153 -72.156 38.861 -75.22 L41.119 -73.285 V-65.061 L19.995 -86.024 Q19.027 -86.83 19.027 -88.039 Q19.027 -89.249 20.156 -90.216 Q20.801 -90.861 22.011 -90.861 Q23.22 -90.861 24.188 -90.216 L132.386 17.983 Q133.192 18.95 133.112 20.079 Q133.031 21.208 132.386 22.014 Q131.257 22.981 130.209 22.981 Q129.161 22.981 128.194 22.014 L109.328 3.148 H117.551 L123.195 9.114 V13.629 Q122.873 17.821 119.728 20.643 Q116.584 23.465 112.391 23.465 H42.409 Z M81.431 -24.587  75.949 -30.231 H52.245 Q51.922 -29.747 51.761 -29.264 Q51.6 -28.78 51.6 -27.49 Q51.6 -26.2 52.406 -25.394 Q53.212 -24.587 54.503 -24.587 H81.431 Z"/></g><g id="Bold-M" transform="matrix(1 0 0 1 2281.8 1126)"><path d="M99.75 -15.98 Q98.25 -15.98 96.688 -16.667 Q95.125 -17.355 93.75 -18.605 L30.625 -82.48 Q29.875 -83.23 29.312 -84.167 Q28.75 -85.105 28.75 -85.98 V-85.355 Q28.75 -87.98 30.562 -89.48 Q32.375 -90.98 35.25 -90.98 H41 Q44.5 -90.98 47 -88.542 Q49.5 -86.105 49.5 -82.48 V-80.98 H70.375 V-82.48 Q70.375 -86.105 72.812 -88.542 Q75.25 -90.98 78.875 -90.98 H83.375 Q87 -90.98 89.438 -88.542 Q91.875 -86.105 91.875 -82.48 V-79.23 Q98.5 -77.355 103.375 -72.417 Q108.25 -67.48 108.25 -59.855 V-24.48 Q108.25 -20.605 105.625 -18.292 Q103 -15.98 99.75 -15.98 Z M31.125 20.52 Q24.125 20.52 19.188 15.645 Q14.25 10.77 14.25 3.77 V-58.355 Q14.25 -63.73 16.25 -68.167 Q18.25 -72.605 22.125 -75.855 L26.625 -71.355 V-52.73 L4.625 -74.98 Q2.75 -76.855 2.688 -79.48 Q2.625 -82.105 4.625 -84.105 Q6.625 -86.105 9.312 -86.105 Q12 -86.105 13.875 -84.105 L108.875 10.895 Q110.75 12.77 110.75 15.395 Q110.75 18.02 108.875 19.895 Q106.875 22.02 104.188 21.958 Q101.5 21.895 99.625 19.895 L86.625 7.02 H104.625 L105.25 7.77 Q103.875 13.52 99.375 17.02 Q94.875 20.52 88.875 20.52 H31.125 Z M55.625 -24.105  42.75 -36.855 H44 Q42.75 -36.605 41.938 -35.355 Q41.125 -34.105 41.125 -30.605 Q41.125 -27.855 43 -25.98 Q44.875 -24.105 47.625 -24.105 H55.625 Z"/></g><g id="Semibold-M" transform="matrix(1 0 0 1 1985.97 1126)"><path d="M98.718 -16.523 Q97.326 -16.523 95.927 -17.129 Q94.527 -17.735 93.315 -18.877 L31.929 -81.502 Q31.125 -82.306 30.59 -83.271 Q30.054 -84.235 30.054 -85.165 V-84.811 Q30.054 -87.273 31.867 -88.746 Q33.679 -90.219 36.391 -90.219 H41.87 Q45.044 -90.219 47.299 -87.999 Q49.554 -85.779 49.554 -82.534 V-80.219 H70.321 V-82.534 Q70.321 -85.779 72.541 -87.999 Q74.761 -90.219 78.005 -90.219 H82.777 Q86.022 -90.219 88.242 -87.999 Q90.462 -85.779 90.462 -82.534 V-78.632 Q97.25 -76.811 101.826 -71.466 Q106.402 -66.121 106.402 -58.659 V-24.208 Q106.402 -20.714 104.022 -18.619 Q101.641 -16.523 98.718 -16.523 Z M30.31 19.759 Q23.962 19.759 19.486 15.346 Q15.011 10.933 15.011 4.585 V-57.811 Q15.011 -62.915 17.011 -67.325 Q19.011 -71.735 22.777 -74.931 L28.69 -69.127 V-50.393 L5.929 -73.295 Q4 -75.225 3.965 -77.877 Q3.929 -80.529 5.929 -82.529 Q7.929 -84.529 10.617 -84.529 Q13.304 -84.529 15.234 -82.529 L107.299 9.536 Q109.228 11.466 109.228 14.091 Q109.228 16.716 107.299 18.645 Q105.299 20.716 102.612 20.68 Q99.924 20.645 97.995 18.645 L83.853 4.629 H102.18 L104.707 7.227 Q103.766 12.759 99.565 16.259 Q95.364 19.759 89.69 19.759 H30.31 Z M55.462 -23.833  42.533 -36.746 H43.239 Q41.935 -36.333 41.068 -34.975 Q40.201 -33.616 40.201 -30.388 Q40.201 -27.638 42.103 -25.735 Q44.005 -23.833 46.755 -23.833 H55.462 Z"/></g><g id="Medium-M" transform="matrix(1 0 0 1 1689.91 1126)"><path d="M97.943 -16.931 Q96.633 -16.931 95.356 -17.476 Q94.079 -18.021 92.989 -19.08 L32.908 -80.768 Q32.062 -81.613 31.547 -82.598 Q31.033 -83.583 31.033 -84.553 V-84.404 Q31.033 -86.744 32.845 -88.196 Q34.658 -89.648 37.247 -89.648 H42.522 Q45.451 -89.648 47.523 -87.591 Q49.595 -85.534 49.595 -82.575 V-79.648 H70.28 V-82.575 Q70.28 -85.534 72.337 -87.591 Q74.394 -89.648 77.353 -89.648 H82.329 Q85.288 -89.648 87.345 -87.591 Q89.402 -85.534 89.402 -82.575 V-78.184 Q96.312 -76.404 100.664 -70.753 Q105.016 -65.102 105.016 -57.763 V-24.004 Q105.016 -20.795 102.819 -18.863 Q100.622 -16.931 97.943 -16.931 Z M29.698 19.189 Q23.84 19.189 19.711 15.122 Q15.582 11.055 15.582 5.197 V-57.404 Q15.582 -62.303 17.581 -66.693 Q19.581 -71.083 23.266 -74.238 L30.239 -67.456 V-48.64 L6.908 -72.032 Q4.938 -74.002 4.923 -76.674 Q4.908 -79.347 6.908 -81.347 Q8.908 -83.347 11.595 -83.347 Q14.283 -83.347 16.253 -81.347 L106.117 8.517 Q108.087 10.487 108.087 13.112 Q108.087 15.737 106.117 17.708 Q104.117 19.737 101.429 19.723 Q98.742 19.708 96.772 17.708 L81.775 2.835 H100.345 L104.299 6.819 Q103.685 12.189 99.708 15.689 Q95.731 19.189 90.302 19.189 H29.698 Z M55.34 -23.629  42.37 -36.665 H42.669 Q41.323 -36.129 40.416 -34.689 Q39.508 -33.249 39.508 -30.225 Q39.508 -27.475 41.431 -25.552 Q43.353 -23.629 46.103 -23.629 H55.34 Z"/></g><g id="Regular-M" transform="matrix(1 0 0 1 1394.06 1126)"><path d="M97.375 -17.23 Q96.125 -17.23 94.938 -17.73 Q93.75 -18.23 92.75 -19.23 L33.625 -80.23 Q32.75 -81.105 32.25 -82.105 Q31.75 -83.105 31.75 -84.105 Q31.75 -86.355 33.562 -87.792 Q35.375 -89.23 37.875 -89.23 H43 Q45.75 -89.23 47.688 -87.292 Q49.625 -85.355 49.625 -82.605 V-79.23 H70.25 V-82.605 Q70.25 -85.355 72.188 -87.292 Q74.125 -89.23 76.875 -89.23 H82 Q84.75 -89.23 86.688 -87.292 Q88.625 -85.355 88.625 -82.605 V-77.855 Q95.625 -76.105 99.812 -70.23 Q104 -64.355 104 -57.105 V-23.855 Q104 -20.855 101.938 -19.042 Q99.875 -17.23 97.375 -17.23 Z M29.25 18.77 Q23.75 18.77 19.875 14.958 Q16 11.145 16 5.645 V-57.105 Q16 -61.855 18 -66.23 Q20 -70.605 23.625 -73.73 L31.375 -66.23 V-47.355 L7.625 -71.105 Q5.625 -73.105 5.625 -75.792 Q5.625 -78.48 7.625 -80.48 Q9.625 -82.48 12.312 -82.48 Q15 -82.48 17 -80.48 L105.25 7.77 Q107.25 9.77 107.25 12.395 Q107.25 15.02 105.25 17.02 Q103.25 19.02 100.562 19.02 Q97.875 19.02 95.875 17.02 L80.25 1.52 H99 L104 6.52 Q103.625 11.77 99.812 15.27 Q96 18.77 90.75 18.77 H29.25 Z M55.25 -23.48  42.25 -36.605 Q40.875 -35.98 39.938 -34.48 Q39 -32.98 39 -30.105 Q39 -27.355 40.938 -25.417 Q42.875 -23.48 45.625 -23.48 H55.25 Z"/></g><g id="Light-M" transform="matrix(1 0 0 1 1098.18 1126)"><path d="M95.356 -18.961 Q94.25 -18.961 93.135 -19.437 Q92.019 -19.913 91.067 -20.865 L35.885 -77.826 Q35.154 -78.557 34.702 -79.412 Q34.25 -80.268 34.25 -81.076 V-82.086 Q34.25 -84.143 35.919 -85.436 Q37.587 -86.73 39.894 -86.73 H43.481 Q46.038 -86.73 47.832 -84.936 Q49.625 -83.143 49.625 -80.586 V-76.73 H70.25 V-80.586 Q70.25 -83.143 72.043 -84.936 Q73.837 -86.73 76.394 -86.73 H79.981 Q82.538 -86.73 84.332 -84.936 Q86.125 -83.143 86.125 -80.586 V-75.595 Q93.077 -74.278 97.288 -68.691 Q101.5 -63.105 101.5 -56.095 V-25.105 Q101.5 -22.297 99.558 -20.629 Q97.615 -18.961 95.356 -18.961 Z M30.789 16.27 Q25.673 16.27 22.063 12.794 Q18.452 9.318 18.5 4.251 V-56.095 Q18.5 -60.509 20.38 -64.619 Q22.26 -68.73 25.741 -71.614 L32 -65.605 V-50.24 L10.125 -72.115 Q8.462 -73.778 8.438 -75.937 Q8.414 -78.095 10.125 -79.759 Q11.789 -81.422 13.923 -81.422 Q16.058 -81.422 17.721 -79.759 L104.529 7.001 Q106.192 8.664 106.192 10.76 Q106.192 12.856 104.529 14.52 Q102.817 16.231 100.707 16.231 Q98.596 16.231 96.885 14.52 L81.067 -1.172 H96.356 L101.5 4.02 V5.078 Q101.125 9.895 97.601 13.082 Q94.077 16.27 89.211 16.27 H30.789 Z M57.894 -24.345  47.395 -34.97 H41.962 Q41.115 -34.345 40.538 -33.206 Q39.962 -32.066 39.962 -29.72 Q39.962 -27.499 41.538 -25.922 Q43.115 -24.345 45.337 -24.345 H57.894 Z"/></g><g id="Thin-M" transform="matrix(1 0 0 1 802.565 1126)"><path d="M93.337 -20.691 Q92.375 -20.691 91.332 -21.143 Q90.288 -21.595 89.385 -22.499 L38.144 -75.422 Q37.558 -76.009 37.154 -76.72 Q36.75 -77.432 36.75 -78.047 V-80.067 Q36.75 -81.932 38.274 -83.081 Q39.798 -84.23 41.913 -84.23 H43.962 Q46.327 -84.23 47.976 -82.581 Q49.625 -80.932 49.625 -78.567 V-74.23 H70.25 V-78.567 Q70.25 -80.932 71.899 -82.581 Q73.548 -84.23 75.913 -84.23 H77.962 Q80.327 -84.23 81.976 -82.581 Q83.625 -80.932 83.625 -78.567 V-73.336 Q90.529 -72.451 94.764 -67.153 Q99 -61.855 99 -55.086 V-26.355 Q99 -23.74 97.178 -22.215 Q95.356 -20.691 93.337 -20.691 Z M32.327 13.77 Q27.596 13.77 24.25 10.631 Q20.904 7.491 21 2.857 V-55.086 Q21 -59.163 22.76 -63.009 Q24.519 -66.855 27.856 -69.499 L32.625 -64.98 V-53.124 L12.625 -73.124 Q11.298 -74.451 11.25 -76.081 Q11.202 -77.711 12.625 -79.038 Q13.952 -80.365 15.534 -80.365 Q17.115 -80.365 18.442 -79.038 L103.808 6.232 Q105.135 7.559 105.135 9.126 Q105.135 10.693 103.808 12.02 Q102.385 13.443 100.851 13.443 Q99.317 13.443 97.894 12.02 L81.885 -3.865 H93.712 L99 1.52 V3.635 Q98.625 8.02 95.389 10.895 Q92.154 13.77 87.673 13.77 H32.327 Z M60.538 -25.211  52.538 -33.336 H41.673 Q41.356 -32.711 41.139 -31.932 Q40.923 -31.153 40.923 -29.336 Q40.923 -27.643 42.139 -26.427 Q43.356 -25.211 45.048 -25.211 H60.538 Z"/></g><g id="Ultralight-M" transform="matrix(1 0 0 1 506.415 1126)"><path d="M92.125 -21.73 Q91.25 -21.73 90.25 -22.167 Q89.25 -22.605 88.375 -23.48 L39.5 -73.98 Q39 -74.48 38.625 -75.105 Q38.25 -75.73 38.25 -76.23 V-78.855 Q38.25 -80.605 39.688 -81.667 Q41.125 -82.73 43.125 -82.73 H44.25 Q46.5 -82.73 48.062 -81.167 Q49.625 -79.605 49.625 -77.355 V-72.73 H70.25 V-77.355 Q70.25 -79.605 71.812 -81.167 Q73.375 -82.73 75.625 -82.73 H76.75 Q79 -82.73 80.562 -81.167 Q82.125 -79.605 82.125 -77.355 V-71.98 Q89 -71.355 93.25 -66.23 Q97.5 -61.105 97.5 -54.48 V-27.105 Q97.5 -24.605 95.75 -23.167 Q94 -21.73 92.125 -21.73 Z M33.25 12.27 Q28.75 12.27 25.562 9.333 Q22.375 6.395 22.5 2.02 V-54.48 Q22.5 -58.355 24.188 -62.042 Q25.875 -65.73 29.125 -68.23 L33 -64.605 V-54.855 L14.125 -73.73 Q13 -74.855 12.938 -76.167 Q12.875 -77.48 14.125 -78.605 Q15.25 -79.73 16.5 -79.73 Q17.75 -79.73 18.875 -78.605 L103.375 5.77 Q104.5 6.895 104.5 8.145 Q104.5 9.395 103.375 10.52 Q102.125 11.77 100.938 11.77 Q99.75 11.77 98.5 10.52 L82.375 -5.48 H92.125 L97.5 0.02 V2.77 Q97.125 6.895 94.062 9.583 Q91 12.27 86.75 12.27 H33.25 Z M62.125 -25.73  55.625 -32.355 H41.5 Q41.5 -31.73 41.5 -31.167 Q41.5 -30.605 41.5 -29.105 Q41.5 -27.73 42.5 -26.73 Q43.5 -25.73 44.875 -25.73 H62.125 Z"/></g><g id="Bold-S" transform="matrix(1 0 0 1 2294.23 696)"><path d="M75.958 -21.521 Q74.856 -21.521 73.673 -22.113 Q72.489 -22.705 71.503 -23.592 L25.929 -69.662 Q25.445 -70.143 25.051 -70.784 Q24.656 -71.425 24.656 -71.918 V-73.595 Q24.656 -75.499 25.969 -76.569 Q27.283 -77.639 29.378 -77.639 H33.508 Q36.097 -77.639 37.958 -75.829 Q39.819 -74.019 39.819 -71.327 V-70.538 H54.737 V-71.327 Q54.737 -74.019 56.543 -75.829 Q58.349 -77.639 61.037 -77.639 H64.181 Q66.868 -77.639 68.692 -75.829 Q70.517 -74.019 70.517 -71.327 V-69.354 Q75.35 -67.973 78.801 -64.423 Q82.253 -60.872 82.253 -55.448 V-27.833 Q82.253 -24.874 80.305 -23.198 Q78.358 -21.521 75.958 -21.521 Z M26.897 7.179 Q21.698 7.179 18.048 3.564 Q14.399 -0.05 14.399 -5.248 V-54.265 Q14.399 -57.618 15.583 -60.478 Q16.766 -63.338 19.035 -65.804 L22.782 -62.155 V-48.347 L6.707 -64.719 Q5.227 -66.198 5.178 -68.023 Q5.128 -69.847 6.659 -71.327 Q8.186 -72.806 10.126 -72.806 Q12.065 -72.806 13.413 -71.327 L83.437 -1.402 Q84.916 0.078 84.867 1.902 Q84.818 3.727 83.437 5.108 Q81.859 6.784 79.985 6.735 Q78.111 6.686 76.632 5.108 L68.643 -2.684 H81.859 L79.886 -4.459 V-2.092 Q78.801 2.119 75.481 4.649 Q72.162 7.179 67.751 7.179 H26.897 Z M44.283 -27.241  34.913 -36.512 H35.505 Q34.686 -36.315 34.159 -35.448 Q33.631 -34.581 33.631 -31.996 Q33.631 -30.003 34.997 -28.622 Q36.363 -27.241 38.365 -27.241 H44.283 Z"/></g><g id="Semibold-S" transform="matrix(1 0 0 1 1998.1 696)"><path d="M75.143 -21.95 Q74.127 -21.95 73.073 -22.477 Q72.018 -23.005 71.16 -23.807 L26.958 -68.89 Q26.431 -69.414 26.058 -70.077 Q25.685 -70.739 25.685 -71.275 V-73.166 Q25.685 -74.941 26.998 -75.99 Q28.312 -77.038 30.278 -77.038 H34.194 Q36.526 -77.038 38.194 -75.4 Q39.861 -73.762 39.861 -71.37 V-69.937 H54.694 V-71.37 Q54.694 -73.762 56.329 -75.4 Q57.963 -77.038 60.351 -77.038 H63.709 Q66.096 -77.038 67.749 -75.4 Q69.402 -73.762 69.402 -71.37 V-68.883 Q74.363 -67.545 77.579 -63.673 Q80.795 -59.801 80.795 -54.505 V-27.619 Q80.795 -24.96 79.041 -23.455 Q77.286 -21.95 75.143 -21.95 Z M26.253 6.578 Q21.569 6.578 18.284 3.328 Q15 0.078 15 -4.605 V-53.836 Q15 -56.975 16.183 -59.813 Q17.367 -62.652 19.549 -65.075 L24.412 -60.397 V-46.503 L7.736 -63.39 Q6.213 -64.912 6.185 -66.758 Q6.158 -68.604 7.688 -70.083 Q9.215 -71.563 11.155 -71.563 Q13.094 -71.563 14.485 -70.083 L82.193 -2.474 Q83.716 -0.951 83.666 0.873 Q83.617 2.698 82.193 4.121 Q80.615 5.755 78.741 5.727 Q76.868 5.699 75.345 4.121 L66.456 -4.57 H79.929 L79.457 -4.888 V-2.521 Q78.716 1.519 75.632 4.049 Q72.547 6.578 68.395 6.578 H26.253 Z M44.154 -27.027  34.742 -36.426 H34.905 Q34.043 -36.1 33.473 -35.148 Q32.902 -34.195 32.902 -31.825 Q32.902 -29.831 34.29 -28.429 Q35.677 -27.027 37.679 -27.027 H44.154 Z"/></g><g id="Medium-S" transform="matrix(1 0 0 1 1701.85 696)"><path d="M74.532 -22.272 Q73.581 -22.272 72.622 -22.751 Q71.664 -23.23 70.903 -23.967 L27.73 -68.311 Q27.171 -68.868 26.814 -69.546 Q26.457 -70.225 26.457 -70.793 V-72.845 Q26.457 -74.523 27.77 -75.556 Q29.084 -76.588 30.954 -76.588 H34.709 Q36.847 -76.588 38.37 -75.079 Q39.894 -73.569 39.894 -71.402 V-69.487 H54.662 V-71.402 Q54.662 -73.569 56.168 -75.079 Q57.674 -76.588 59.836 -76.588 H63.355 Q65.517 -76.588 67.041 -75.079 Q68.566 -73.569 68.566 -71.402 V-68.529 Q73.624 -67.223 76.663 -63.11 Q79.702 -58.996 79.702 -53.797 V-27.458 Q79.702 -25.024 78.092 -23.648 Q76.482 -22.272 74.532 -22.272 Z M25.771 6.128 Q21.472 6.128 18.461 3.151 Q15.45 0.175 15.45 -4.122 V-53.514 Q15.45 -56.492 16.633 -59.315 Q17.817 -62.137 19.935 -64.528 L25.634 -59.078 V-45.12 L8.507 -62.393 Q6.953 -63.947 6.941 -65.809 Q6.929 -67.671 8.46 -69.151 Q9.987 -70.63 11.926 -70.63 Q13.866 -70.63 15.289 -69.151 L81.261 -3.278 Q82.815 -1.723 82.766 0.101 Q82.716 1.926 81.261 3.382 Q79.683 4.983 77.809 4.972 Q75.935 4.96 74.38 3.382 L64.816 -5.986 H78.482 L79.136 -5.209 V-2.842 Q78.651 1.069 75.744 3.598 Q72.837 6.128 68.877 6.128 H25.771 Z M44.057 -26.866  34.613 -36.362 H34.454 Q33.561 -35.94 32.958 -34.923 Q32.355 -33.906 32.355 -31.696 Q32.355 -29.703 33.759 -28.284 Q35.162 -26.866 37.164 -26.866 H44.057 Z"/></g><g id="Regular-S" transform="matrix(1 0 0 1 1405.73 696)"><path d="M74.084 -22.507 Q73.18 -22.507 72.292 -22.951 Q71.404 -23.395 70.714 -24.085 L28.296 -67.887 Q27.714 -68.467 27.368 -69.157 Q27.023 -69.847 27.023 -70.439 V-72.609 Q27.023 -74.216 28.336 -75.237 Q29.65 -76.258 31.449 -76.258 H35.086 Q37.083 -76.258 38.5 -74.843 Q39.917 -73.427 39.917 -71.425 V-69.157 H54.638 V-71.425 Q54.638 -73.427 56.05 -74.843 Q57.462 -76.258 59.459 -76.258 H63.096 Q65.093 -76.258 66.523 -74.843 Q67.953 -73.427 67.953 -71.425 V-68.269 Q73.081 -66.987 75.991 -62.697 Q78.9 -58.407 78.9 -53.278 V-27.34 Q78.9 -25.072 77.396 -23.789 Q75.892 -22.507 74.084 -22.507 Z M25.417 5.798 Q21.402 5.798 18.591 3.022 Q15.78 0.245 15.78 -3.769 V-53.278 Q15.78 -56.138 16.963 -58.949 Q18.147 -61.76 20.218 -64.127 L26.53 -58.111 V-44.106 L9.074 -61.661 Q7.496 -63.239 7.496 -65.113 Q7.496 -66.987 9.026 -68.467 Q10.553 -69.946 12.493 -69.946 Q14.432 -69.946 15.879 -68.467 L80.577 -3.867 Q82.155 -2.289 82.105 -0.465 Q82.056 1.36 80.577 2.839 Q78.999 4.417 77.125 4.417 Q75.251 4.417 73.673 2.839 L63.613 -7.023 H77.421 L78.9 -5.445 V-3.078 Q78.604 0.739 75.827 3.268 Q73.049 5.798 69.231 5.798 H25.417 Z M43.987 -26.748  34.519 -36.315 H34.124 Q33.207 -35.822 32.581 -34.758 Q31.955 -33.694 31.955 -31.602 Q31.955 -29.608 33.37 -28.178 Q34.785 -26.748 36.787 -26.748 H43.987 Z"/></g><g id="Light-S" transform="matrix(1 0 0 1 1109.75 696)"><path d="M72.491 -23.873 Q71.7 -23.873 70.87 -24.298 Q70.039 -24.723 69.386 -25.375 L30.078 -65.99 Q29.61 -66.456 29.303 -67.033 Q28.996 -67.609 28.996 -68.049 V-71.016 Q28.996 -72.471 30.195 -73.378 Q31.395 -74.285 33.042 -74.285 H35.465 Q37.311 -74.285 38.614 -72.984 Q39.917 -71.682 39.917 -69.832 V-67.184 H54.638 V-69.832 Q54.638 -71.682 55.936 -72.984 Q57.234 -74.285 59.079 -74.285 H61.502 Q63.347 -74.285 64.664 -72.984 Q65.98 -71.682 65.98 -69.832 V-66.486 Q71.071 -65.546 73.999 -61.483 Q76.927 -57.421 76.927 -52.482 V-28.326 Q76.927 -26.21 75.518 -25.041 Q74.109 -23.873 72.491 -23.873 Z M26.631 3.825 Q22.919 3.825 20.317 1.315 Q17.715 -1.196 17.753 -4.869 V-52.482 Q17.753 -55.076 18.841 -57.678 Q19.93 -60.281 21.887 -62.458 L27.023 -57.618 V-46.382 L11.046 -62.458 Q9.734 -63.771 9.715 -65.227 Q9.696 -66.684 10.999 -67.898 Q12.26 -69.111 13.763 -69.111 Q15.267 -69.111 16.448 -67.898 L80.008 -4.474 Q81.32 -3.162 81.271 -1.755 Q81.221 -0.347 80.008 0.867 Q78.657 2.217 77.239 2.217 Q75.82 2.217 74.47 0.867 L64.258 -9.148 H75.334 L76.927 -7.418 V-4.216 Q76.632 -0.741 74.082 1.542 Q71.532 3.825 68.017 3.825 H26.631 Z M46.073 -27.431  38.578 -35.025 H33.897 Q33.397 -34.532 33.055 -33.752 Q32.713 -32.973 32.713 -31.298 Q32.713 -29.722 33.844 -28.577 Q34.975 -27.431 36.559 -27.431 H46.073 Z"/></g><g id="Thin-S" transform="matrix(1 0 0 1 814.015 696)"><path d="M70.897 -25.238 Q70.221 -25.238 69.447 -25.644 Q68.673 -26.05 68.059 -26.665 L31.861 -64.094 Q31.507 -64.446 31.238 -64.909 Q30.968 -65.371 30.968 -65.66 V-69.423 Q30.968 -70.727 32.054 -71.52 Q33.139 -72.313 34.636 -72.313 H35.845 Q37.538 -72.313 38.728 -71.125 Q39.917 -69.938 39.917 -68.239 V-65.212 H54.638 V-68.239 Q54.638 -69.938 55.822 -71.125 Q57.007 -72.313 58.7 -72.313 H59.909 Q61.603 -72.313 62.805 -71.125 Q64.008 -69.938 64.008 -68.239 V-64.704 Q69.06 -64.104 72.008 -60.269 Q74.955 -56.434 74.955 -51.685 V-29.312 Q74.955 -27.348 73.641 -26.293 Q72.326 -25.238 70.897 -25.238 Z M27.845 1.853 Q24.436 1.853 22.043 -0.392 Q19.649 -2.637 19.725 -5.969 V-51.685 Q19.725 -54.014 20.719 -56.408 Q21.713 -58.801 23.556 -60.789 L27.516 -57.125 V-48.658 L13.019 -63.255 Q11.971 -64.302 11.934 -65.341 Q11.896 -66.38 12.971 -67.329 Q13.967 -68.277 15.034 -68.277 Q16.101 -68.277 17.017 -67.329 L79.439 -5.081 Q80.486 -4.034 80.436 -3.044 Q80.387 -2.054 79.439 -1.106 Q78.316 0.017 77.352 0.017 Q76.389 0.017 75.266 -1.106 L64.903 -11.272 H73.248 L74.955 -9.39 V-5.354 Q74.659 -2.22 72.337 -0.184 Q70.015 1.853 66.803 1.853 H27.845 Z M48.159 -28.114  42.636 -33.735 H33.669 Q33.586 -33.242 33.529 -32.747 Q33.472 -32.252 33.472 -30.995 Q33.472 -29.836 34.318 -28.975 Q35.164 -28.114 36.332 -28.114 H48.159 Z"/></g><g id="Ultralight-S" transform="matrix(1 0 0 1 517.792 696)"><path d="M69.942 -26.058 Q69.333 -26.058 68.594 -26.452 Q67.854 -26.847 67.262 -27.439 L32.931 -62.956 Q32.645 -63.239 32.398 -63.634 Q32.152 -64.028 32.152 -64.226 V-68.467 Q32.152 -69.68 33.169 -70.405 Q34.186 -71.129 35.591 -71.129 H36.072 Q37.675 -71.129 38.796 -70.01 Q39.917 -68.891 39.917 -67.283 V-64.028 H54.638 V-67.283 Q54.638 -68.891 55.754 -70.01 Q56.87 -71.129 58.472 -71.129 H58.953 Q60.556 -71.129 61.69 -70.01 Q62.824 -68.891 62.824 -67.283 V-63.634 Q67.854 -63.239 70.813 -59.541 Q73.772 -55.843 73.772 -51.207 V-29.904 Q73.772 -28.03 72.514 -27.044 Q71.257 -26.058 69.942 -26.058 Z M28.573 0.67 Q25.347 0.67 23.078 -1.416 Q20.81 -3.502 20.909 -6.629 V-51.207 Q20.909 -53.377 21.845 -55.645 Q22.782 -57.914 24.558 -59.788 L27.812 -56.829 V-50.024 L14.202 -63.733 Q13.314 -64.62 13.265 -65.409 Q13.216 -66.198 14.155 -66.987 Q14.991 -67.776 15.796 -67.776 Q16.602 -67.776 17.358 -66.987 L79.097 -5.445 Q79.985 -4.558 79.936 -3.818 Q79.886 -3.078 79.097 -2.289 Q78.111 -1.303 77.421 -1.303 Q76.73 -1.303 75.744 -2.289 L65.29 -12.546 H71.996 L73.772 -10.574 V-6.037 Q73.476 -3.108 71.29 -1.219 Q69.104 0.67 66.075 0.67 H28.573 Z M49.411 -28.523  45.072 -32.962 H33.532 Q33.7 -32.468 33.814 -32.144 Q33.927 -31.82 33.927 -30.813 Q33.927 -29.904 34.603 -29.214 Q35.278 -28.523 36.195 -28.523 H49.411 Z"/></g></g></svg>