<svg xmlns="http://www.w3.org/2000/svg" version="1.1" width="3300" height="2000"><g id="Notes"><style>
    text {
      font-family: monospace;
      text-anchor: middle;
    }
    text.emphasis {
      font-weight:bold;
    }
    text.lanchor {
      text-anchor: start;
    }
  </style><rect height="2200" id="artboard" fill="white" width="3300" x="0" y="0"/><line id="" style="fill:none;stroke:black;stroke-width:0.5;" x1="263" x2="3036" y1="292" y2="292"/><text class="lanchor emphasis" transform="matrix(1 0 0 1 263 322)">Weight/Scale Variations</text><text transform="matrix(1 0 0 1 559.711 322)">Ultralight</text><text transform="matrix(1 0 0 1 856.422 322)">Thin</text><text transform="matrix(1 0 0 1 1153.13 322)">Light</text><text transform="matrix(1 0 0 1 1449.84 322)">Regular</text><text transform="matrix(1 0 0 1 1746.56 322)">Medium</text><text transform="matrix(1 0 0 1 2043.27 322)">Semibold</text><text transform="matrix(1 0 0 1 2339.98 322)">Bold</text><text transform="matrix(1 0 0 1 2636.69 322)">Heavy</text><text transform="matrix(1 0 0 1 2933.4 322)">Black</text><text id="template-version" style="text-anchor: end;" transform="matrix(1 0 0 1 3036 1933)">Template v.1.0</text><text class="lanchor" transform="matrix(1 0 0 1 263 726)">Small</text><text class="lanchor" transform="matrix(1 0 0 1 263 1156)">Medium</text><text class="lanchor" transform="matrix(1 0 0 1 263 1586)">Large</text></g><g id="Guides"><g id="H-reference" style="fill:#27AAE1;stroke:none;" transform="matrix(1 0 0 1 339 696)"><path d="M 54.9316 0 L 57.666 0 L 30.5664 -70.459 L 28.0762 -70.459 L 0.976562 0 L 3.66211 0 L 12.9395 -24.4629 L 45.7031 -24.4629 Z M 29.1992 -67.0898 L 29.4434 -67.0898 L 44.8242 -26.709 L 13.8184 -26.709 Z"/></g><line id="Baseline-S" style="fill:none;stroke:#27AAE1;opacity:1;stroke-width:0.577;" x1="263" x2="3036" y1="696" y2="696"/><line id="Capline-S" style="fill:none;stroke:#27AAE1;opacity:1;stroke-width:0.577;" x1="263" x2="3036" y1="625.541" y2="625.541"/><g id="H-reference" style="fill:#27AAE1;stroke:none;" transform="matrix(1 0 0 1 339 1126)"><path d="M 54.9316 0 L 57.666 0 L 30.5664 -70.459 L 28.0762 -70.459 L 0.976562 0 L 3.66211 0 L 12.9395 -24.4629 L 45.7031 -24.4629 Z M 29.1992 -67.0898 L 29.4434 -67.0898 L 44.8242 -26.709 L 13.8184 -26.709 Z"/></g><line id="Baseline-M" style="fill:none;stroke:#27AAE1;opacity:1;stroke-width:0.577;" x1="263" x2="3036" y1="1126" y2="1126"/><line id="Capline-M" style="fill:none;stroke:#27AAE1;opacity:1;stroke-width:0.577;" x1="263" x2="3036" y1="1055.54" y2="1055.54"/><g id="H-reference" style="fill:#27AAE1;stroke:none;" transform="matrix(1 0 0 1 339 1556)"><path d="M 54.9316 0 L 57.666 0 L 30.5664 -70.459 L 28.0762 -70.459 L 0.976562 0 L 3.66211 0 L 12.9395 -24.4629 L 45.7031 -24.4629 Z M 29.1992 -67.0898 L 29.4434 -67.0898 L 44.8242 -26.709 L 13.8184 -26.709 Z"/></g><line id="Baseline-L" style="fill:none;stroke:#27AAE1;opacity:1;stroke-width:0.577;" x1="263" x2="3036" y1="1556" y2="1556"/><line id="Capline-L" style="fill:none;stroke:#27AAE1;opacity:1;stroke-width:0.577;" x1="263" x2="3036" y1="1485.54" y2="1485.54"/><rect height="119.336" id="left-margin" style="fill:darkred;stroke:none;opacity:0.4;" width="12.4512" x="1394.06" y="1030.79"/><rect height="119.336" id="right-margin" style="fill:darkgreen;stroke:none;opacity:0.4;" width="12.4512" x="1502.5112" y="1030.79"/><rect x="1406.5112" y="1045" width="96" height="96" fill="none" stroke="blue" stroke-dasharray="5"/><rect x="1394.06" y="1030.79" width="120.9024" height="119.336" fill="none" stroke="blue"/></g><g id="Symbols"><g id="Bold-L" transform="matrix(1 0 0 1 2266 1556)"><path d="M131.903 26.851 H22.898 Q19.713 26.851 17.516 24.646 Q15.319 22.441 15.319 19.083 Q15.319 15.886 17.516 13.709 Q19.713 11.533 23.059 11.533 H131.903 Q135.087 11.533 137.365 13.818 Q139.643 16.104 139.643 19.301 Q139.643 22.498 137.365 24.674 Q135.087 26.851 131.903 26.851 Z M32.411 -34.424  64.339 -42.97  40.796 -82.315 Q39.023 -85.056 40.393 -87.878 Q41.764 -90.7 44.666 -91.506 L47.569 -92.474 Q49.181 -92.957 50.791 -92.538 Q52.4 -92.119 53.696 -91.022 L97.073 -52 L131.096 -60.869 Q136.74 -62.32 141.416 -58.941 Q146.093 -55.562 146.093 -49.742 Q146.093 -45.524 143.669 -42.33 Q141.245 -39.136 137.385 -38.132 L34.346 -10.236 Q31.766 -9.591 29.348 -10.639 Q26.929 -11.687 25.639 -13.784 L12.416 -36.197 Q11.126 -38.294 12.174 -40.632 Q13.223 -42.97 15.831 -43.239 L18.828 -43.964 Q19.834 -44.099 20.936 -43.765 Q22.038 -43.431 22.898 -42.809 L32.411 -34.424 Z"/></g><g id="Semibold-L" transform="matrix(1 0 0 1 1970.27 1556)"><path d="M131.342 25.099 H23.458 Q20.764 25.099 18.918 23.244 Q17.071 21.389 17.071 18.592 Q17.071 15.886 18.918 14.06 Q20.764 12.234 23.549 12.234 H131.342 Q134.036 12.234 135.928 14.134 Q137.82 16.034 137.82 18.74 Q137.82 21.446 135.928 23.272 Q134.036 25.099 131.342 25.099 Z M31.921 -32.601  65.811 -41.708  41.708 -82.105 Q40.214 -84.425 41.34 -86.791 Q42.465 -89.158 44.947 -89.894 L47.428 -90.721 Q48.831 -91.135 50.195 -90.786 Q51.559 -90.437 52.645 -89.48 L96.371 -50.107 L130.746 -59.186 Q135.829 -60.567 140.014 -57.434 Q144.2 -54.3 144.2 -48.971 Q144.2 -45.244 142.021 -42.4 Q139.843 -39.557 136.403 -38.623 L33.856 -10.867 Q31.696 -10.292 29.663 -11.165 Q27.63 -12.038 26.55 -13.854 L13.538 -35.917 Q12.458 -37.663 13.331 -39.51 Q14.204 -41.358 16.322 -41.626 L18.758 -42.212 Q19.623 -42.346 20.48 -42.082 Q21.336 -41.818 22.056 -41.266 L31.921 -32.601 Z"/></g><g id="Medium-L" transform="matrix(1 0 0 1 1674.31 1556)"><path d="M130.921 23.784 H23.879 Q21.553 23.784 19.97 22.192 Q18.386 20.601 18.386 18.224 Q18.386 15.886 19.97 14.323 Q21.553 12.759 23.918 12.759 H130.921 Q133.247 12.759 134.85 14.37 Q136.453 15.981 136.453 18.319 Q136.453 20.657 134.85 22.221 Q133.247 23.784 130.921 23.784 Z M31.552 -31.234  66.915 -40.762  42.391 -81.947 Q41.108 -83.952 42.049 -85.977 Q42.991 -88.001 45.157 -88.684 L47.323 -89.406 Q48.568 -89.768 49.748 -89.471 Q50.928 -89.174 51.856 -88.323 L95.846 -48.687 L130.483 -57.924 Q135.145 -59.253 138.963 -56.303 Q142.78 -53.354 142.78 -48.393 Q142.78 -45.033 140.785 -42.453 Q138.791 -39.873 135.667 -38.991 L33.487 -11.34 Q31.644 -10.818 29.9 -11.559 Q28.156 -12.301 27.234 -13.906 L14.379 -35.707 Q13.457 -37.19 14.199 -38.669 Q14.94 -40.148 16.69 -40.417 L18.706 -40.897 Q19.466 -41.031 20.138 -40.82 Q20.811 -40.609 21.425 -40.11 L31.552 -31.234 Z"/></g><g id="Regular-L" transform="matrix(1 0 0 1 1378.56 1556)"><path d="M130.613 22.82 H24.188 Q22.132 22.82 20.741 21.421 Q19.35 20.022 19.35 17.954 Q19.35 15.886 20.741 14.516 Q22.132 13.145 24.188 13.145 H130.613 Q132.668 13.145 134.059 14.544 Q135.45 15.943 135.45 18.011 Q135.45 20.079 134.059 21.449 Q132.668 22.82 130.613 22.82 Z M31.283 -30.231  67.725 -40.067  42.892 -81.831 Q41.764 -83.605 42.57 -85.379 Q43.376 -87.152 45.311 -87.797 L47.246 -88.442 Q48.375 -88.765 49.42 -88.507 Q50.465 -88.249 51.278 -87.475 L95.46 -47.646 L130.29 -56.999 Q134.644 -58.289 138.191 -55.474 Q141.739 -52.66 141.739 -47.969 Q141.739 -44.879 139.879 -42.491 Q138.02 -40.104 135.127 -39.261 L33.218 -11.687 Q31.605 -11.204 30.073 -11.849 Q28.541 -12.494 27.735 -13.945 L14.996 -35.552 Q14.19 -36.842 14.835 -38.052 Q15.48 -39.261 16.96 -39.53 L18.667 -39.933 Q19.35 -40.067 19.887 -39.895 Q20.425 -39.722 20.963 -39.261 L31.283 -30.231 Z"/></g><g id="Light-L" transform="matrix(1 0 0 1 1082.77 1556)"><path d="M128.566 19.595 H26.234 Q24.674 19.595 23.625 18.537 Q22.575 17.479 22.575 15.907 Q22.575 14.336 23.625 13.306 Q24.674 12.277 26.234 12.277 H128.566 Q130.126 12.277 131.175 13.334 Q132.225 14.392 132.225 15.964 Q132.225 17.536 131.175 18.565 Q130.126 19.595 128.566 19.595 Z M33.205 -27.874  69.089 -37.525  44.009 -79.66 Q43.128 -81.062 43.78 -82.464 Q44.431 -83.865 45.931 -84.386 L47.494 -84.969 Q48.375 -85.23 49.172 -85.003 Q49.969 -84.776 50.657 -84.188 L94.716 -44.607 L128.553 -53.588 Q132.349 -54.691 135.462 -52.249 Q138.576 -49.807 138.576 -45.798 Q138.576 -43.08 136.995 -41.003 Q135.415 -38.926 132.895 -38.207 L34.892 -11.687 Q33.342 -11.204 31.872 -11.818 Q30.402 -12.432 29.596 -13.883 L17.787 -34.064 Q17.105 -35.106 17.626 -36.098 Q18.147 -37.09 19.317 -37.297 L20.652 -37.638 Q21.149 -37.711 21.624 -37.569 Q22.1 -37.427 22.575 -37.09 L33.205 -27.874 Z"/></g><g id="Thin-L" transform="matrix(1 0 0 1 787.282 1556)"><path d="M126.519 16.37 H28.281 Q27.217 16.37 26.509 15.653 Q25.8 14.937 25.8 13.861 Q25.8 12.785 26.509 12.097 Q27.217 11.408 28.281 11.408 H126.519 Q127.583 11.408 128.291 12.125 Q129 12.842 129 13.918 Q129 14.993 128.291 15.682 Q127.583 16.37 126.519 16.37 Z M35.128 -25.518  70.454 -34.982  45.125 -77.49 Q44.493 -78.519 44.989 -79.549 Q45.485 -80.578 46.552 -80.975 L47.742 -81.496 Q48.375 -81.695 48.924 -81.499 Q49.472 -81.303 50.037 -80.901 L93.972 -41.568 L126.817 -50.177 Q130.054 -51.095 132.734 -49.024 Q135.413 -46.954 135.413 -43.627 Q135.413 -41.282 134.112 -39.515 Q132.81 -37.747 130.662 -37.153 L36.567 -11.687 Q35.078 -11.204 33.67 -11.787 Q32.262 -12.37 31.456 -13.821 L20.578 -32.576 Q20.02 -33.369 20.417 -34.145 Q20.814 -34.92 21.673 -35.065 L22.636 -35.344 Q22.947 -35.354 23.361 -35.243 Q23.774 -35.133 24.188 -34.92 L35.128 -25.518 Z"/></g><g id="Ultralight-L" transform="matrix(1 0 0 1 491.205 1556)"><path d="M125.291 14.435 H29.509 Q28.743 14.435 28.239 13.923 Q27.735 13.411 27.735 12.633 Q27.735 11.855 28.239 11.371 Q28.743 10.888 29.509 10.888 H125.291 Q126.057 10.888 126.561 11.399 Q127.065 11.912 127.065 12.689 Q127.065 13.468 126.561 13.951 Q126.057 14.435 125.291 14.435 Z M36.281 -24.104  71.273 -33.456  45.795 -76.187 Q45.311 -76.994 45.714 -77.8 Q46.117 -78.606 46.924 -78.929 L47.891 -79.412 Q48.375 -79.574 48.775 -79.396 Q49.175 -79.219 49.665 -78.929 L93.525 -39.745 L125.775 -48.13 Q128.678 -48.936 131.096 -47.089 Q133.515 -45.242 133.515 -42.325 Q133.515 -40.203 132.381 -38.621 Q131.248 -37.04 129.322 -36.52 L37.571 -11.687 Q36.12 -11.204 34.749 -11.768 Q33.379 -12.332 32.572 -13.784 L22.253 -31.682 Q21.769 -32.327 22.091 -32.972 Q22.414 -33.617 23.087 -33.725 L23.827 -33.967 Q24.026 -33.94 24.402 -33.848 Q24.779 -33.756 25.155 -33.617 L36.281 -24.104 Z"/></g><g id="Bold-M" transform="matrix(1 0 0 1 2281.8 1126)"><path d="M101.375 14.02 H18.625 Q15.375 14.02 13.062 11.645 Q10.75 9.27 10.75 6.02 Q10.75 2.77 13.125 0.458 Q15.5 -1.855 18.75 -1.855 H101.375 Q104.625 -1.855 106.938 0.52 Q109.25 2.895 109.25 6.145 Q109.25 9.395 106.938 11.708 Q104.625 14.02 101.375 14.02 Z M27.625 -37.605  47 -42.73  31 -69.73 Q29.25 -72.605 30.5 -75.542 Q31.75 -78.48 34.875 -79.48 L38 -80.355 Q39.75 -80.855 41.375 -80.48 Q43 -80.105 44.375 -78.98 L75.875 -50.73 L100 -56.98 Q105.5 -58.355 109.875 -55.105 Q114.25 -51.855 114.25 -46.23 Q114.25 -42.48 111.938 -39.48 Q109.625 -36.48 106 -35.48 L29 -14.73 Q26.5 -14.105 24.062 -15.105 Q21.625 -16.105 20.25 -18.355 L9.5 -36.355 Q8.125 -38.73 9.25 -41.23 Q10.375 -43.73 13.125 -44.23 L16.375 -44.855 Q17.625 -45.105 18.75 -44.73 Q19.875 -44.355 20.875 -43.605 L27.625 -37.605 Z"/></g><g id="Semibold-M" transform="matrix(1 0 0 1 1985.97 1126)"><path d="M100.777 12.172 H19.223 Q16.462 12.172 14.53 10.205 Q12.598 8.238 12.598 5.477 Q12.598 2.716 14.565 0.784 Q16.532 -1.148 19.294 -1.148 H100.777 Q103.538 -1.148 105.47 0.819 Q107.402 2.786 107.402 5.547 Q107.402 8.308 105.47 10.24 Q103.538 12.172 100.777 12.172 Z M27.136 -35.703  48.522 -41.426  31.924 -69.513 Q30.5 -71.898 31.478 -74.428 Q32.456 -76.958 35.147 -77.795 L37.837 -78.562 Q39.315 -79.007 40.723 -78.687 Q42.13 -78.366 43.288 -77.404 L75.168 -48.774 L99.674 -55.241 Q104.522 -56.507 108.408 -53.529 Q112.294 -50.551 112.294 -45.469 Q112.294 -42.154 110.253 -39.534 Q108.212 -36.915 105.022 -36.023 L28.511 -15.382 Q26.391 -14.811 24.361 -15.648 Q22.331 -16.485 21.174 -18.409 L10.696 -36.083 Q9.538 -38.023 10.473 -40.089 Q11.408 -42.154 13.668 -42.545 L16.321 -43.062 Q17.353 -43.257 18.261 -42.964 Q19.169 -42.67 20.006 -42.029 L27.136 -35.703 Z"/></g><g id="Medium-M" transform="matrix(1 0 0 1 1689.91 1126)"><path d="M100.329 10.786 H19.671 Q17.277 10.786 15.63 9.125 Q13.984 7.463 13.984 5.069 Q13.984 2.675 15.645 1.028 Q17.307 -0.619 19.701 -0.619 H100.329 Q102.723 -0.619 104.37 1.043 Q106.016 2.705 106.016 5.099 Q106.016 7.493 104.37 9.14 Q102.723 10.786 100.329 10.786 Z M26.769 -34.276  49.663 -40.447  32.617 -69.35 Q31.438 -71.369 32.212 -73.593 Q32.986 -75.817 35.35 -76.532 L37.715 -77.216 Q38.989 -77.621 40.234 -77.341 Q41.478 -77.061 42.473 -76.222 L74.639 -47.306 L99.429 -53.936 Q103.788 -55.121 107.307 -52.347 Q110.826 -49.572 110.826 -44.898 Q110.826 -41.909 108.989 -39.575 Q107.152 -37.241 104.288 -36.431 L28.144 -15.871 Q26.31 -15.341 24.586 -16.056 Q22.861 -16.771 21.867 -18.45 L11.592 -35.879 Q10.598 -37.494 11.39 -39.233 Q12.182 -40.972 14.076 -41.282 L16.28 -41.716 Q17.149 -41.871 17.894 -41.639 Q18.639 -41.407 19.353 -40.847 L26.769 -34.276 Z"/></g><g id="Regular-M" transform="matrix(1 0 0 1 1394.06 1126)"><path d="M100 9.77 H20 Q17.875 9.77 16.438 8.333 Q15 6.895 15 4.77 Q15 2.645 16.438 1.208 Q17.875 -0.23 20 -0.23 H100 Q102.125 -0.23 103.562 1.208 Q105 2.645 105 4.77 Q105 6.895 103.562 8.333 Q102.125 9.77 100 9.77 Z M26.5 -33.23  50.5 -39.73  33.125 -69.23 Q32.125 -70.98 32.75 -72.98 Q33.375 -74.98 35.5 -75.605 L37.625 -76.23 Q38.75 -76.605 39.875 -76.355 Q41 -76.105 41.875 -75.355 L74.25 -46.23 L99.25 -52.98 Q103.25 -54.105 106.5 -51.48 Q109.75 -48.855 109.75 -44.48 Q109.75 -41.73 108.062 -39.605 Q106.375 -37.48 103.75 -36.73 L27.875 -16.23 Q26.25 -15.73 24.75 -16.355 Q23.25 -16.98 22.375 -18.48 L12.25 -35.73 Q11.375 -37.105 12.062 -38.605 Q12.75 -40.105 14.375 -40.355 L16.25 -40.73 Q17 -40.855 17.625 -40.667 Q18.25 -40.48 18.875 -39.98 L26.5 -33.23 Z"/></g><g id="Light-M" transform="matrix(1 0 0 1 1098.18 1126)"><path d="M98.75 7.27 H21.25 Q19.654 7.27 18.577 6.193 Q17.5 5.116 17.5 3.52 Q17.5 1.924 18.577 0.847 Q19.654 -0.23 21.25 -0.23 H98.75 Q100.346 -0.23 101.423 0.847 Q102.5 1.924 102.5 3.52 Q102.5 5.116 101.423 6.193 Q100.346 7.27 98.75 7.27 Z M27.366 -30.874  52.087 -37.566  34.038 -68.124 Q33.231 -69.489 33.736 -71.033 Q34.24 -72.576 35.885 -73.057 L37.529 -73.586 Q38.413 -73.912 39.274 -73.686 Q40.135 -73.461 40.817 -72.903 L73.625 -43.489 L98.385 -50.095 Q101.808 -51.028 104.577 -48.811 Q107.346 -46.595 107.346 -42.941 Q107.346 -40.576 105.947 -38.788 Q104.548 -36.999 102.308 -36.345 L28.596 -16.422 Q27.116 -15.97 25.736 -16.547 Q24.356 -17.124 23.577 -18.48 L14.221 -34.528 Q13.539 -35.614 14.082 -36.754 Q14.625 -37.893 15.866 -38.143 L17.308 -38.422 Q17.866 -38.547 18.394 -38.408 Q18.923 -38.268 19.404 -37.864 L27.366 -30.874 Z"/></g><g id="Thin-M" transform="matrix(1 0 0 1 802.565 1126)"><path d="M97.5 4.77 H22.5 Q21.433 4.77 20.716 4.054 Q20 3.337 20 2.27 Q20 1.203 20.716 0.486 Q21.433 -0.23 22.5 -0.23 H97.5 Q98.567 -0.23 99.284 0.486 Q100 1.203 100 2.27 Q100 3.337 99.284 4.054 Q98.567 4.77 97.5 4.77 Z M28.231 -28.518  53.673 -35.403  34.952 -67.018 Q34.337 -67.999 34.721 -69.086 Q35.106 -70.172 36.269 -70.509 L37.433 -70.942 Q38.077 -71.22 38.673 -71.018 Q39.269 -70.817 39.76 -70.451 L73 -40.749 L97.519 -47.211 Q100.365 -47.951 102.654 -46.143 Q104.942 -44.336 104.942 -41.403 Q104.942 -39.422 103.832 -37.97 Q102.721 -36.518 100.865 -35.961 L29.317 -16.615 Q27.981 -16.211 26.721 -16.74 Q25.462 -17.268 24.779 -18.48 L16.192 -33.326 Q15.702 -34.124 16.101 -34.903 Q16.5 -35.682 17.356 -35.932 L18.365 -36.115 Q18.731 -36.24 19.163 -36.148 Q19.596 -36.057 19.933 -35.749 L28.231 -28.518 Z"/></g><g id="Ultralight-M" transform="matrix(1 0 0 1 506.415 1126)"><path d="M96.75 3.27 H23.25 Q22.5 3.27 22 2.77 Q21.5 2.27 21.5 1.52 Q21.5 0.77 22 0.27 Q22.5 -0.23 23.25 -0.23 H96.75 Q97.5 -0.23 98 0.27 Q98.5 0.77 98.5 1.52 Q98.5 2.27 98 2.77 Q97.5 3.27 96.75 3.27 Z M28.75 -27.105  54.625 -34.105  35.5 -66.355 Q35 -67.105 35.312 -67.917 Q35.625 -68.73 36.5 -68.98 L37.375 -69.355 Q37.875 -69.605 38.312 -69.417 Q38.75 -69.23 39.125 -68.98 L72.625 -39.105 L97 -45.48 Q99.5 -46.105 101.5 -44.542 Q103.5 -42.98 103.5 -40.48 Q103.5 -38.73 102.562 -37.48 Q101.625 -36.23 100 -35.73 L29.75 -16.73 Q28.5 -16.355 27.312 -16.855 Q26.125 -17.355 25.5 -18.48 L17.375 -32.605 Q17 -33.23 17.312 -33.792 Q17.625 -34.355 18.25 -34.605 L19 -34.73 Q19.25 -34.855 19.625 -34.792 Q20 -34.73 20.25 -34.48 L28.75 -27.105 Z"/></g><g id="Bold-S" transform="matrix(1 0 0 1 2294.23 696)"><path d="M78.012 1.261 H16.668 Q14.301 1.261 12.575 -0.514 Q10.849 -2.289 10.849 -4.656 Q10.849 -7.023 12.624 -8.749 Q14.399 -10.475 16.766 -10.475 H78.012 Q80.379 -10.475 82.105 -8.7 Q83.831 -6.925 83.831 -4.558 Q83.831 -2.191 82.105 -0.465 Q80.379 1.261 78.012 1.261 Z M24.163 -37.991  35.604 -40.95  23.966 -60.577 Q22.585 -62.845 23.67 -64.965 Q24.755 -67.086 27.122 -67.776 L29.686 -68.467 Q30.968 -68.762 32.053 -68.417 Q33.138 -68.072 34.124 -67.283 L57.4 -46.966 L77.125 -52.095 Q80.873 -53.081 84.029 -51.109 Q87.184 -49.136 87.776 -45.487 Q88.269 -42.331 86.494 -39.569 Q84.719 -36.808 81.563 -35.92 L24.755 -20.633 Q22.881 -20.239 21.056 -20.929 Q19.232 -21.62 18.246 -23.296 L9.764 -37.202 Q8.778 -39.076 9.616 -40.901 Q10.454 -42.725 12.427 -43.219 L14.991 -43.712 Q15.879 -44.008 16.766 -43.712 Q17.654 -43.416 18.443 -42.824 L24.163 -37.991 Z"/></g><g id="Semibold-S" transform="matrix(1 0 0 1 1998.1 696)"><path d="M77.541 -0.197 H17.139 Q15.158 -0.197 13.732 -1.65 Q12.307 -3.104 12.307 -5.085 Q12.307 -7.066 13.76 -8.492 Q15.214 -9.918 17.195 -9.918 H77.541 Q79.522 -9.918 80.948 -8.464 Q82.373 -7.01 82.373 -5.029 Q82.373 -3.048 80.948 -1.622 Q79.522 -0.197 77.541 -0.197 Z M23.777 -36.491  36.804 -39.921  24.695 -60.405 Q23.571 -62.288 24.442 -64.086 Q25.312 -65.885 27.336 -66.447 L29.558 -67.052 Q30.625 -67.305 31.539 -67.002 Q32.452 -66.7 33.267 -66.04 L56.842 -45.423 L76.867 -50.723 Q80.101 -51.623 82.871 -49.865 Q85.641 -48.107 86.233 -44.887 Q86.726 -42.074 85.165 -39.612 Q83.604 -37.151 80.791 -36.349 L24.369 -21.148 Q22.795 -20.796 21.292 -21.358 Q19.789 -21.92 18.975 -23.339 L10.707 -36.988 Q9.892 -38.519 10.581 -40 Q11.269 -41.482 12.856 -41.889 L14.948 -42.297 Q15.664 -42.55 16.38 -42.318 Q17.096 -42.087 17.757 -41.581 L23.777 -36.491 Z"/></g><g id="Medium-S" transform="matrix(1 0 0 1 1701.85 696)"><path d="M77.187 -1.29 H17.493 Q15.801 -1.29 14.601 -2.503 Q13.4 -3.715 13.4 -5.407 Q13.4 -7.098 14.613 -8.299 Q15.825 -9.5 17.517 -9.5 H77.187 Q78.879 -9.5 80.079 -8.287 Q81.28 -7.075 81.28 -5.383 Q81.28 -3.691 80.079 -2.491 Q78.879 -1.29 77.187 -1.29 Z M23.488 -35.365  37.705 -39.149  25.242 -60.277 Q24.311 -61.87 25.021 -63.427 Q25.73 -64.985 27.497 -65.45 L29.461 -65.99 Q30.368 -66.211 31.153 -65.941 Q31.937 -65.671 32.623 -65.107 L56.424 -44.265 L76.675 -49.694 Q79.522 -50.53 82.002 -48.932 Q84.483 -47.335 85.075 -44.436 Q85.568 -41.881 84.168 -39.645 Q82.768 -37.408 80.212 -36.671 L24.079 -21.534 Q22.731 -21.214 21.469 -21.68 Q20.207 -22.145 19.521 -23.371 L11.415 -36.827 Q10.729 -38.101 11.304 -39.325 Q11.88 -40.549 13.177 -40.892 L14.916 -41.235 Q15.503 -41.456 16.091 -41.273 Q16.678 -41.09 17.242 -40.648 L23.488 -35.365 Z"/></g><g id="Regular-S" transform="matrix(1 0 0 1 1405.73 696)"><path d="M76.928 -2.092 H17.753 Q16.273 -2.092 15.238 -3.128 Q14.202 -4.163 14.202 -5.642 Q14.202 -7.122 15.238 -8.157 Q16.273 -9.193 17.753 -9.193 H76.928 Q78.407 -9.193 79.442 -8.157 Q80.478 -7.122 80.478 -5.642 Q80.478 -4.163 79.442 -3.128 Q78.407 -2.092 76.928 -2.092 Z M23.276 -34.54  38.365 -38.583  25.643 -60.182 Q24.854 -61.563 25.445 -62.944 Q26.037 -64.324 27.615 -64.719 L29.39 -65.212 Q30.179 -65.409 30.87 -65.163 Q31.56 -64.916 32.152 -64.423 L56.118 -43.416 L76.533 -48.939 Q79.097 -49.728 81.366 -48.248 Q83.634 -46.769 84.226 -44.106 Q84.719 -41.739 83.437 -39.668 Q82.155 -37.597 79.788 -36.907 L23.867 -21.817 Q22.684 -21.521 21.599 -21.916 Q20.514 -22.31 19.922 -23.395 L11.934 -36.709 Q11.342 -37.794 11.835 -38.83 Q12.328 -39.865 13.413 -40.161 L14.892 -40.457 Q15.386 -40.654 15.879 -40.506 Q16.372 -40.358 16.865 -39.964 L23.276 -34.54 Z"/></g><g id="Light-S" transform="matrix(1 0 0 1 1109.75 696)"><path d="M75.941 -4.065 H18.739 Q17.677 -4.065 16.926 -4.816 Q16.175 -5.567 16.175 -6.629 Q16.175 -7.691 16.926 -8.442 Q17.677 -9.193 18.739 -9.193 H75.941 Q77.003 -9.193 77.754 -8.442 Q78.505 -7.691 78.505 -6.629 Q78.505 -5.567 77.754 -4.816 Q77.003 -4.065 75.941 -4.065 Z M23.958 -32.681  39.617 -36.876  26.363 -59.31 Q25.726 -60.387 26.223 -61.407 Q26.72 -62.428 27.918 -62.708 L29.314 -63.126 Q29.914 -63.285 30.395 -63.057 Q30.877 -62.83 31.317 -62.488 L55.625 -41.254 L75.85 -46.663 Q77.959 -47.3 79.848 -46.143 Q81.737 -44.986 82.329 -42.892 Q82.822 -40.829 81.768 -39.023 Q80.713 -37.218 78.65 -36.603 L24.436 -21.969 Q23.367 -21.711 22.377 -22.067 Q21.387 -22.424 20.871 -23.395 L13.489 -35.761 Q13.049 -36.618 13.428 -37.369 Q13.808 -38.12 14.589 -38.416 L15.727 -38.636 Q16.068 -38.833 16.486 -38.723 Q16.903 -38.613 17.282 -38.295 L23.958 -32.681 Z"/></g><g id="Thin-S" transform="matrix(1 0 0 1 814.015 696)"><path d="M74.955 -6.037 H19.725 Q19.08 -6.037 18.614 -6.504 Q18.147 -6.97 18.147 -7.615 Q18.147 -8.26 18.614 -8.726 Q19.08 -9.193 19.725 -9.193 H74.955 Q75.6 -9.193 76.066 -8.726 Q76.533 -8.26 76.533 -7.615 Q76.533 -6.97 76.066 -6.504 Q75.6 -6.037 74.955 -6.037 Z M24.641 -30.822  40.869 -35.169  27.084 -58.437 Q26.598 -59.211 27 -59.871 Q27.403 -60.531 28.222 -60.698 L29.239 -61.039 Q29.648 -61.161 29.921 -60.952 Q30.194 -60.744 30.483 -60.554 L55.131 -39.092 L75.167 -44.387 Q76.821 -44.873 78.331 -44.038 Q79.841 -43.203 80.433 -41.679 Q80.926 -39.919 80.099 -38.378 Q79.272 -36.838 77.512 -36.3 L25.005 -22.12 Q24.049 -21.9 23.154 -22.219 Q22.259 -22.538 21.819 -23.395 L15.044 -34.813 Q14.756 -35.442 15.021 -35.909 Q15.287 -36.376 15.765 -36.672 L16.561 -36.816 Q16.751 -37.013 17.093 -36.941 Q17.434 -36.869 17.699 -36.626 L24.641 -30.822 Z"/></g><g id="Ultralight-S" transform="matrix(1 0 0 1 517.792 696)"><path d="M74.363 -7.22 H20.317 Q19.922 -7.22 19.626 -7.516 Q19.331 -7.812 19.331 -8.207 Q19.331 -8.601 19.626 -8.897 Q19.922 -9.193 20.317 -9.193 H74.363 Q74.758 -9.193 75.054 -8.897 Q75.35 -8.601 75.35 -8.207 Q75.35 -7.812 75.054 -7.516 Q74.758 -7.22 74.363 -7.22 Z M25.051 -29.707  41.62 -34.145  27.516 -57.914 Q27.122 -58.505 27.467 -58.949 Q27.812 -59.393 28.404 -59.492 L29.193 -59.788 Q29.489 -59.886 29.637 -59.689 Q29.785 -59.492 29.982 -59.393 L54.836 -37.794 L74.758 -43.021 Q76.139 -43.416 77.421 -42.775 Q78.703 -42.134 79.294 -40.95 Q79.788 -39.372 79.097 -37.991 Q78.407 -36.611 76.829 -36.118 L25.347 -22.211 Q24.459 -22.014 23.621 -22.31 Q22.782 -22.606 22.388 -23.395 L15.977 -34.244 Q15.78 -34.737 15.977 -35.033 Q16.175 -35.329 16.47 -35.624 L17.062 -35.723 Q17.161 -35.92 17.457 -35.871 Q17.753 -35.822 17.95 -35.624 L25.051 -29.707 Z"/></g></g></svg>