<svg xmlns="http://www.w3.org/2000/svg" version="1.1" width="3300" height="2000"><g id="Notes"><style>
    text {
      font-family: monospace;
      text-anchor: middle;
    }
    text.emphasis {
      font-weight:bold;
    }
    text.lanchor {
      text-anchor: start;
    }
  </style><rect height="2200" id="artboard" fill="white" width="3300" x="0" y="0"/><line id="" style="fill:none;stroke:black;stroke-width:0.5;" x1="263" x2="3036" y1="292" y2="292"/><text class="lanchor emphasis" transform="matrix(1 0 0 1 263 322)">Weight/Scale Variations</text><text transform="matrix(1 0 0 1 559.711 322)">Ultralight</text><text transform="matrix(1 0 0 1 856.422 322)">Thin</text><text transform="matrix(1 0 0 1 1153.13 322)">Light</text><text transform="matrix(1 0 0 1 1449.84 322)">Regular</text><text transform="matrix(1 0 0 1 1746.56 322)">Medium</text><text transform="matrix(1 0 0 1 2043.27 322)">Semibold</text><text transform="matrix(1 0 0 1 2339.98 322)">Bold</text><text transform="matrix(1 0 0 1 2636.69 322)">Heavy</text><text transform="matrix(1 0 0 1 2933.4 322)">Black</text><text id="template-version" style="text-anchor: end;" transform="matrix(1 0 0 1 3036 1933)">Template v.1.0</text><text class="lanchor" transform="matrix(1 0 0 1 263 726)">Small</text><text class="lanchor" transform="matrix(1 0 0 1 263 1156)">Medium</text><text class="lanchor" transform="matrix(1 0 0 1 263 1586)">Large</text></g><g id="Guides"><g id="H-reference" style="fill:#27AAE1;stroke:none;" transform="matrix(1 0 0 1 339 696)"><path d="M 54.9316 0 L 57.666 0 L 30.5664 -70.459 L 28.0762 -70.459 L 0.976562 0 L 3.66211 0 L 12.9395 -24.4629 L 45.7031 -24.4629 Z M 29.1992 -67.0898 L 29.4434 -67.0898 L 44.8242 -26.709 L 13.8184 -26.709 Z"/></g><line id="Baseline-S" style="fill:none;stroke:#27AAE1;opacity:1;stroke-width:0.577;" x1="263" x2="3036" y1="696" y2="696"/><line id="Capline-S" style="fill:none;stroke:#27AAE1;opacity:1;stroke-width:0.577;" x1="263" x2="3036" y1="625.541" y2="625.541"/><g id="H-reference" style="fill:#27AAE1;stroke:none;" transform="matrix(1 0 0 1 339 1126)"><path d="M 54.9316 0 L 57.666 0 L 30.5664 -70.459 L 28.0762 -70.459 L 0.976562 0 L 3.66211 0 L 12.9395 -24.4629 L 45.7031 -24.4629 Z M 29.1992 -67.0898 L 29.4434 -67.0898 L 44.8242 -26.709 L 13.8184 -26.709 Z"/></g><line id="Baseline-M" style="fill:none;stroke:#27AAE1;opacity:1;stroke-width:0.577;" x1="263" x2="3036" y1="1126" y2="1126"/><line id="Capline-M" style="fill:none;stroke:#27AAE1;opacity:1;stroke-width:0.577;" x1="263" x2="3036" y1="1055.54" y2="1055.54"/><g id="H-reference" style="fill:#27AAE1;stroke:none;" transform="matrix(1 0 0 1 339 1556)"><path d="M 54.9316 0 L 57.666 0 L 30.5664 -70.459 L 28.0762 -70.459 L 0.976562 0 L 3.66211 0 L 12.9395 -24.4629 L 45.7031 -24.4629 Z M 29.1992 -67.0898 L 29.4434 -67.0898 L 44.8242 -26.709 L 13.8184 -26.709 Z"/></g><line id="Baseline-L" style="fill:none;stroke:#27AAE1;opacity:1;stroke-width:0.577;" x1="263" x2="3036" y1="1556" y2="1556"/><line id="Capline-L" style="fill:none;stroke:#27AAE1;opacity:1;stroke-width:0.577;" x1="263" x2="3036" y1="1485.54" y2="1485.54"/><rect height="119.336" id="left-margin" style="fill:darkred;stroke:none;opacity:0.4;" width="12.4512" x="1394.06" y="1030.79"/><rect height="119.336" id="right-margin" style="fill:darkgreen;stroke:none;opacity:0.4;" width="12.4512" x="1502.5112" y="1030.79"/><rect x="1406.5112" y="1045" width="96" height="96" fill="none" stroke="blue" stroke-dasharray="5"/><rect x="1394.06" y="1030.79" width="120.9024" height="119.336" fill="none" stroke="blue"/></g><g id="Symbols"><g id="Bold-L" transform="matrix(1 0 0 1 2266 1556)"><path d="M64.534 -77.155 Q58.856 -77.155 54.906 -81.146 Q50.955 -85.136 50.955 -90.74 Q50.955 -96.344 54.871 -100.375 Q58.788 -104.406 64.466 -104.406 Q70.144 -104.406 74.094 -100.39 Q78.045 -96.374 78.045 -90.734 Q78.045 -85.161 74.129 -81.158 Q70.212 -77.155 64.534 -77.155 Z M108.944 5.566 Q115.216 5.566 119.609 1.235 Q124.001 -3.096 124.001 -9.369 Q124.001 -15.641 119.67 -20.034 Q115.339 -24.426 109.066 -24.426 Q102.794 -24.426 98.401 -20.095 Q94.009 -15.764 94.009 -9.491 Q94.009 -3.219 98.34 1.174 Q102.671 5.566 108.944 5.566 Z M141.9 34.269  124.163 16.531 Q120.615 18.547 116.854 19.635 Q113.093 20.724 109.005 20.724 Q96.441 20.724 87.646 11.94 Q78.851 3.156 78.851 -9.392 Q78.851 -21.94 87.635 -30.762 Q96.419 -39.584 108.967 -39.584 Q121.515 -39.584 130.337 -30.789 Q139.159 -21.994 139.159 -9.43 Q139.159 -5.181 138.111 -1.5 Q137.062 2.18 134.966 5.728 L152.704 23.465 L141.9 34.269 Z M70.627 30.56 V3.148 Q72.669 8.791 76.002 13.387 Q79.335 17.983 84.011 21.369 V30.56 H70.627 Z M45.15 30.56 V-54.58 Q34.826 -55.285 24.831 -56.626 Q14.835 -57.966 4.838 -60.546 L8.224 -73.446 Q22.134 -70.06 36.127 -68.689 Q50.12 -67.319 64.522 -67.319 Q78.923 -67.319 93.077 -68.689 Q107.231 -70.06 121.099 -73.446 L124.324 -60.546 Q114.326 -58.127 104.277 -56.723 Q94.228 -55.319 84.011 -54.58 V-40.229 Q77.239 -34.907 73.288 -27.087 Q69.338 -19.266 69.176 -10.236 Q69.176 -10.881 69.096 -11.446 Q69.015 -12.01 69.015 -12.655 H58.373 V30.56 H45.15 Z"/></g><g id="Semibold-L" transform="matrix(1 0 0 1 1970.27 1556)"><path d="M64.525 -76.734 Q59.207 -76.734 55.466 -80.492 Q51.726 -84.249 51.726 -89.525 Q51.726 -94.801 55.441 -98.587 Q59.157 -102.373 64.475 -102.373 Q69.793 -102.373 73.534 -98.601 Q77.274 -94.83 77.274 -89.533 Q77.274 -84.274 73.559 -80.504 Q69.843 -76.734 64.525 -76.734 Z M107.839 5.356 Q114.619 5.356 119.345 0.674 Q124.071 -4.007 124.071 -10.788 Q124.071 -17.568 119.39 -22.294 Q114.708 -27.02 107.928 -27.02 Q101.148 -27.02 96.422 -22.339 Q91.695 -17.657 91.695 -10.877 Q91.695 -4.096 96.377 0.63 Q101.059 5.356 107.839 5.356 Z M140.778 31.114  123.251 13.587 Q119.704 15.778 115.872 16.954 Q112.041 18.13 107.883 18.13 Q95.816 18.13 87.369 9.687 Q78.921 1.243 78.921 -10.819 Q78.921 -22.881 87.365 -31.337 Q95.808 -39.794 107.87 -39.794 Q119.932 -39.794 128.389 -31.347 Q136.845 -22.9 136.845 -10.832 Q136.845 -6.583 135.692 -2.797 Q134.539 0.988 132.302 4.536 L149.829 22.063 L140.778 31.114 Z M71.258 29.999 V2.376 Q73.113 7.319 76.049 11.424 Q78.984 15.529 83.03 18.635 V29.999 H71.258 Z M46.061 29.999 V-55.491 Q35.737 -56.211 25.672 -57.58 Q15.606 -58.948 5.538 -61.458 L8.504 -72.956 Q22.345 -69.639 36.267 -68.269 Q50.19 -66.898 64.522 -66.898 Q78.853 -66.898 92.867 -68.269 Q106.881 -69.639 120.678 -72.956 L123.553 -61.458 Q113.485 -59.039 103.389 -57.635 Q93.294 -56.23 83.03 -55.491 V-40.299 Q76.748 -35.048 73.043 -27.508 Q69.338 -19.967 69.246 -11.288 Q69.246 -11.652 69.201 -11.971 Q69.155 -12.29 69.155 -12.655 H57.742 V29.999 H46.061 Z"/></g><g id="Medium-L" transform="matrix(1 0 0 1 1674.31 1556)"><path d="M64.518 -76.419 Q59.47 -76.419 55.887 -80.001 Q52.305 -83.584 52.305 -88.614 Q52.305 -93.645 55.869 -97.246 Q59.434 -100.848 64.482 -100.848 Q69.53 -100.848 73.113 -97.26 Q76.695 -93.671 76.695 -88.632 Q76.695 -83.609 73.131 -80.014 Q69.566 -76.419 64.518 -76.419 Z M107.01 5.198 Q114.171 5.198 119.147 0.254 Q124.124 -4.691 124.124 -11.852 Q124.124 -19.013 119.179 -23.989 Q114.235 -28.966 107.074 -28.966 Q99.913 -28.966 94.936 -24.021 Q89.96 -19.077 89.96 -11.916 Q89.96 -4.755 94.904 0.222 Q99.849 5.198 107.01 5.198 Z M139.937 28.748  122.568 11.378 Q119.02 13.701 115.136 14.942 Q111.253 16.184 107.042 16.184 Q95.347 16.184 87.16 7.996 Q78.974 -0.192 78.974 -11.889 Q78.974 -23.586 87.162 -31.769 Q95.35 -39.952 107.047 -39.952 Q118.745 -39.952 126.927 -31.765 Q135.11 -23.579 135.11 -11.884 Q135.11 -7.635 133.878 -3.77 Q132.646 0.094 130.304 3.642 L147.674 21.011 L139.937 28.748 Z M71.732 29.578 V1.798 Q73.447 6.215 76.084 9.952 Q78.722 13.688 82.294 16.584 V29.578 H71.732 Z M46.745 29.578 V-56.175 Q36.42 -56.906 26.302 -58.295 Q16.185 -59.684 6.064 -62.141 L8.715 -72.587 Q22.503 -69.324 36.373 -67.953 Q50.242 -66.583 64.522 -66.583 Q78.801 -66.583 92.709 -67.953 Q106.618 -69.324 120.363 -72.587 L122.974 -62.141 Q112.854 -59.722 102.724 -58.318 Q92.593 -56.914 82.294 -56.175 V-40.351 Q76.38 -35.153 72.859 -27.823 Q69.338 -20.493 69.299 -12.077 Q69.299 -12.231 69.28 -12.366 Q69.26 -12.501 69.26 -12.655 H57.268 V29.578 H46.745 Z"/></g><g id="Regular-L" transform="matrix(1 0 0 1 1378.56 1556)"><path d="M64.513 -76.187 Q59.663 -76.187 56.196 -79.641 Q52.729 -83.096 52.729 -87.946 Q52.729 -92.796 56.183 -96.263 Q59.637 -99.73 64.487 -99.73 Q69.338 -99.73 72.804 -96.276 Q76.271 -92.822 76.271 -87.972 Q76.271 -83.121 72.817 -79.654 Q69.363 -76.187 64.513 -76.187 Z M106.402 5.083 Q113.843 5.083 119.002 -0.055 Q124.163 -5.192 124.163 -12.632 Q124.163 -20.072 119.025 -25.232 Q113.888 -30.392 106.448 -30.392 Q99.008 -30.392 93.847 -25.255 Q88.688 -20.118 88.688 -12.678 Q88.688 -5.237 93.825 -0.077 Q98.962 5.083 106.402 5.083 Z M139.32 27.013  122.066 9.759 Q118.519 12.178 114.597 13.468 Q110.674 14.758 106.425 14.758 Q95.003 14.758 87.008 6.757 Q79.013 -1.244 79.013 -12.674 Q79.013 -24.104 87.013 -32.086 Q95.014 -40.067 106.444 -40.067 Q117.874 -40.067 125.856 -32.072 Q133.838 -24.077 133.838 -12.655 Q133.838 -8.406 132.548 -4.483 Q131.257 -0.561 128.839 2.986 L146.093 20.24 L139.32 27.013 Z M72.079 29.27 V1.374 Q73.691 5.405 76.11 8.872 Q78.529 12.339 81.754 15.08 V29.27 H72.079 Z M47.246 29.27 V-56.676 Q36.921 -57.415 26.765 -58.82 Q16.609 -60.224 6.45 -62.642 L8.869 -72.317 Q22.618 -69.092 36.45 -67.722 Q50.281 -66.351 64.522 -66.351 Q78.762 -66.351 92.594 -67.722 Q106.425 -69.092 120.131 -72.317 L122.55 -62.642 Q112.391 -60.224 102.235 -58.82 Q92.079 -57.415 81.754 -56.676 V-40.39 Q76.11 -35.23 72.724 -28.054 Q69.338 -20.879 69.338 -12.655 Q69.338 -12.655 69.338 -12.655 Q69.338 -12.655 69.338 -12.655 H56.921 V29.27 H47.246 Z"/></g><g id="Light-L" transform="matrix(1 0 0 1 1082.77 1556)"><path d="M64.513 -76.187 Q59.886 -76.187 56.648 -79.441 Q53.411 -82.695 53.411 -87.264 Q53.411 -91.891 56.636 -95.128 Q59.86 -98.366 64.487 -98.366 Q69.114 -98.366 72.352 -95.141 Q75.589 -91.916 75.589 -87.32 Q75.589 -82.724 72.364 -79.456 Q69.14 -76.187 64.513 -76.187 Z M106.402 5.641 Q114.091 5.641 119.406 0.348 Q124.721 -4.944 124.721 -12.632 Q124.721 -20.321 119.428 -25.636 Q114.136 -30.951 106.448 -30.951 Q98.759 -30.951 93.444 -25.658 Q88.129 -20.366 88.129 -12.678 Q88.129 -4.989 93.422 0.326 Q98.714 5.641 106.402 5.641 Z M139.32 25.338  121.756 7.774 Q118.395 10.255 114.513 11.607 Q110.631 12.959 106.425 12.959 Q95.753 12.959 88.282 5.482 Q80.811 -1.996 80.811 -12.678 Q80.811 -23.359 88.288 -30.814 Q95.766 -38.269 106.448 -38.269 Q117.129 -38.269 124.584 -30.798 Q132.039 -23.327 132.039 -12.655 Q132.039 -8.449 130.687 -4.567 Q129.335 -0.685 126.854 2.676 L144.418 20.24 L139.32 25.338 Z M72.389 27.657 V2.676 Q73.691 5.839 75.49 8.593 Q77.288 11.346 79.707 13.653 V27.657 H72.389 Z M49.293 27.657 V-57.979 Q39.279 -58.744 29.402 -60.073 Q19.524 -61.402 9.675 -63.697 L11.474 -71.015 Q24.604 -67.976 37.778 -66.637 Q50.952 -65.297 64.515 -65.297 Q78.079 -65.297 91.26 -66.637 Q104.44 -67.976 117.588 -71.015 L119.325 -63.697 Q109.476 -61.402 99.598 -60.073 Q89.721 -58.744 79.707 -57.979 V-38.963 Q74.932 -33.99 72.104 -27.527 Q69.275 -21.065 69.089 -13.771 Q69.089 -13.865 69.089 -13.958 Q69.089 -14.05 69.089 -14.143 H56.611 V27.657 H49.293 Z"/></g><g id="Thin-L" transform="matrix(1 0 0 1 787.282 1556)"><path d="M64.513 -76.187 Q60.109 -76.187 57.101 -79.241 Q54.093 -82.294 54.093 -86.582 Q54.093 -90.985 57.088 -93.993 Q60.083 -97.001 64.487 -97.001 Q68.891 -97.001 71.899 -94.006 Q74.907 -91.011 74.907 -86.669 Q74.907 -82.327 71.912 -79.257 Q68.917 -76.187 64.513 -76.187 Z M106.402 6.199 Q114.339 6.199 119.809 0.751 Q125.279 -4.696 125.279 -12.632 Q125.279 -20.569 119.831 -26.039 Q114.384 -31.509 106.448 -31.509 Q98.511 -31.509 93.041 -26.061 Q87.571 -20.614 87.571 -12.678 Q87.571 -4.741 93.019 0.729 Q98.466 6.199 106.402 6.199 Z M139.32 23.663  121.446 5.79 Q118.271 8.332 114.429 9.746 Q110.587 11.16 106.425 11.16 Q96.502 11.16 89.556 4.207 Q82.61 -2.747 82.61 -12.681 Q82.61 -22.615 89.563 -29.543 Q96.517 -36.47 106.451 -36.47 Q116.385 -36.47 123.313 -29.524 Q130.24 -22.578 130.24 -12.655 Q130.24 -8.493 128.826 -4.651 Q127.412 -0.809 124.87 2.366 L142.743 20.24 L139.32 23.663 Z M72.699 26.045 V3.979 Q73.691 6.273 74.87 8.314 Q76.048 10.354 77.661 12.227 V26.045 H72.699 Z M51.339 26.045 V-59.281 Q41.637 -60.072 32.038 -61.326 Q22.439 -62.58 12.9 -64.751 L14.078 -69.713 Q26.589 -66.86 39.106 -65.551 Q51.622 -64.243 64.509 -64.243 Q77.396 -64.243 89.926 -65.551 Q102.456 -66.86 115.046 -69.713 L116.1 -64.751 Q106.561 -62.58 96.962 -61.326 Q87.363 -60.072 77.661 -59.281 V-37.537 Q73.753 -32.749 71.483 -27 Q69.213 -21.251 68.841 -14.888 Q68.841 -15.074 68.841 -15.26 Q68.841 -15.446 68.841 -15.632 H56.301 V26.045 H51.339 Z"/></g><g id="Ultralight-L" transform="matrix(1 0 0 1 491.205 1556)"><path d="M64.513 -76.187 Q60.243 -76.187 57.373 -79.12 Q54.503 -82.053 54.503 -86.172 Q54.503 -90.442 57.36 -93.312 Q60.217 -96.182 64.487 -96.182 Q68.757 -96.182 71.627 -93.325 Q74.498 -90.468 74.498 -86.279 Q74.498 -82.089 71.64 -79.138 Q68.783 -76.187 64.513 -76.187 Z M106.402 6.534 Q114.487 6.534 120.051 0.993 Q125.614 -4.547 125.614 -12.632 Q125.614 -20.717 120.073 -26.281 Q114.533 -31.844 106.448 -31.844 Q98.362 -31.844 92.799 -26.303 Q87.236 -20.763 87.236 -12.678 Q87.236 -4.592 92.777 0.971 Q98.317 6.534 106.402 6.534 Z M139.32 22.659  121.26 4.599 Q118.196 7.179 114.378 8.63 Q110.561 10.081 106.425 10.081 Q96.952 10.081 90.32 3.442 Q83.689 -3.198 83.689 -12.683 Q83.689 -22.169 90.329 -28.78 Q96.968 -35.391 106.454 -35.391 Q115.939 -35.391 122.55 -28.76 Q129.161 -22.128 129.161 -12.655 Q129.161 -8.519 127.71 -4.702 Q126.259 -0.884 123.679 2.18 L141.739 20.24 L139.32 22.659 Z M72.885 25.078 V4.76 Q73.691 6.534 74.498 8.146 Q75.304 9.759 76.433 11.371 V25.078 H72.885 Z M52.568 25.078 V-60.062 Q43.052 -60.869 33.62 -62.078 Q24.188 -63.287 14.835 -65.384 L15.641 -68.931 Q27.78 -66.19 39.903 -64.9 Q52.025 -63.61 64.505 -63.61 Q76.986 -63.61 89.125 -64.9 Q101.265 -66.19 113.52 -68.931 L114.165 -65.384 Q104.812 -63.287 95.38 -62.078 Q85.948 -60.869 76.433 -60.062 V-36.681 Q73.046 -32.005 71.111 -26.684 Q69.176 -21.362 68.692 -15.557 Q68.692 -15.799 68.692 -16.041 Q68.692 -16.283 68.692 -16.525 H56.115 V25.078 H52.568 Z"/></g><g id="Bold-M" transform="matrix(1 0 0 1 2281.8 1126)"><path d="M50.017 -66.23 Q45.125 -66.23 41.625 -69.713 Q38.125 -73.197 38.125 -78.088 Q38.125 -82.98 41.608 -86.48 Q45.092 -89.98 49.983 -89.98 Q54.875 -89.98 58.375 -86.497 Q61.875 -83.013 61.875 -78.122 Q61.875 -73.23 58.392 -69.73 Q54.908 -66.23 50.017 -66.23 Z M85.095 -4.73 Q89.125 -4.73 91.938 -7.513 Q94.75 -10.295 94.75 -14.325 Q94.75 -18.355 91.967 -21.167 Q89.185 -23.98 85.155 -23.98 Q81.125 -23.98 78.312 -21.197 Q75.5 -18.415 75.5 -14.385 Q75.5 -10.355 78.283 -7.542 Q81.065 -4.73 85.095 -4.73 Z M110.625 22.27  96.625 8.27 Q93.875 9.645 91 10.333 Q88.125 11.02 85.125 11.02 Q74.552 11.02 67.151 3.619 Q59.75 -3.782 59.75 -14.355 Q59.75 -24.928 67.151 -32.329 Q74.552 -39.73 85.125 -39.73 Q95.698 -39.73 103.099 -32.329 Q110.5 -24.928 110.5 -14.355 Q110.5 -11.355 109.812 -8.48 Q109.125 -5.605 107.75 -2.855 L121.75 11.145 L110.625 22.27 Z M53.5 16.145 V1.52 Q55.875 6.145 59.375 9.833 Q62.875 13.52 67.25 16.145 H53.5 Z M32.75 16.145 V-47.98 Q25.251 -48.579 17.876 -49.717 Q10.5 -50.855 3.25 -52.98 L6.75 -66.355 Q17.375 -63.48 28.188 -62.355 Q39 -61.23 50 -61.23 Q61 -61.23 71.938 -62.355 Q82.875 -63.48 93.5 -66.355 L96.875 -52.98 Q89.5 -51.105 82.124 -49.868 Q74.749 -48.631 67.25 -47.98 V-44.855 Q59.5 -40.355 54.75 -32.542 Q50 -24.73 49.75 -15.23 Q49.75 -15.23 49.75 -15.23 Q49.75 -15.23 49.75 -15.23 H46.5 V16.145 H32.75 Z"/></g><g id="Semibold-M" transform="matrix(1 0 0 1 1985.97 1126)"><path d="M50.009 -65.795 Q45.451 -65.795 42.196 -69.041 Q38.94 -72.287 38.94 -76.846 Q38.94 -81.404 42.186 -84.659 Q45.432 -87.915 49.991 -87.915 Q54.549 -87.915 57.804 -84.669 Q61.06 -81.423 61.06 -76.864 Q61.06 -72.306 57.814 -69.051 Q54.568 -65.795 50.009 -65.795 Z M83.967 -4.947 Q88.527 -4.947 91.693 -8.096 Q94.859 -11.245 94.859 -15.805 Q94.859 -20.366 91.71 -23.531 Q88.561 -26.697 84.001 -26.697 Q79.44 -26.697 76.275 -23.548 Q73.109 -20.4 73.109 -15.839 Q73.109 -11.279 76.258 -8.113 Q79.406 -4.947 83.967 -4.947 Z M109.484 19.009  95.701 5.227 Q92.951 6.765 90.022 7.534 Q87.093 8.303 83.984 8.303 Q73.932 8.303 66.895 1.266 Q59.859 -5.77 59.859 -15.822 Q59.859 -25.874 66.895 -32.911 Q73.932 -39.947 83.984 -39.947 Q94.036 -39.947 101.072 -32.911 Q108.109 -25.874 108.109 -15.822 Q108.109 -12.714 107.34 -9.784 Q106.571 -6.855 105.033 -4.105 L118.815 9.678 L109.484 19.009 Z M54.152 15.547 V0.705 Q56.31 4.623 59.402 7.795 Q62.495 10.966 66.272 13.319 V15.547 H54.152 Z M33.728 15.547 V-48.958 Q26.175 -49.568 18.745 -50.728 Q11.315 -51.887 4.011 -53.958 L7.076 -65.866 Q17.647 -62.991 28.351 -61.893 Q39.054 -60.795 50 -60.795 Q60.946 -60.795 71.72 -61.893 Q82.495 -62.991 93.065 -65.866 L96.06 -53.958 Q88.685 -52.029 81.255 -50.813 Q73.825 -49.598 66.272 -48.958 V-44.964 Q58.956 -40.518 54.478 -32.977 Q50 -25.436 49.859 -16.317 Q49.859 -16.045 49.859 -15.773 Q49.859 -15.502 49.913 -15.23 H45.848 V15.547 H33.728 Z"/></g><g id="Medium-M" transform="matrix(1 0 0 1 1689.91 1126)"><path d="M50.004 -65.469 Q45.696 -65.469 42.624 -68.537 Q39.552 -71.605 39.552 -75.913 Q39.552 -80.222 42.62 -83.294 Q45.688 -86.366 49.996 -86.366 Q54.304 -86.366 57.376 -83.298 Q60.448 -80.23 60.448 -75.921 Q60.448 -71.613 57.38 -68.541 Q54.312 -65.469 50.004 -65.469 Z M83.121 -5.11 Q88.079 -5.11 91.51 -8.534 Q94.94 -11.957 94.94 -16.916 Q94.94 -21.874 91.517 -25.305 Q88.093 -28.735 83.135 -28.735 Q78.177 -28.735 74.746 -25.312 Q71.315 -21.888 71.315 -16.93 Q71.315 -11.972 74.739 -8.541 Q78.162 -5.11 83.121 -5.11 Z M108.628 16.564  95.008 2.944 Q92.258 4.604 89.288 5.434 Q86.318 6.265 83.128 6.265 Q73.466 6.265 66.703 -0.498 Q59.94 -7.261 59.94 -16.923 Q59.94 -26.584 66.703 -33.347 Q73.466 -40.11 83.128 -40.11 Q92.789 -40.11 99.552 -33.347 Q106.315 -26.584 106.315 -16.923 Q106.315 -13.733 105.485 -10.763 Q104.655 -7.792 102.995 -5.042 L116.614 8.577 L108.628 16.564 Z M54.641 15.099 V0.093 Q56.636 3.482 59.422 6.266 Q62.209 9.05 65.538 11.199 V15.099 H54.641 Z M34.462 15.099 V-49.692 Q26.867 -50.311 19.397 -51.486 Q11.927 -52.662 4.582 -54.692 L7.321 -65.499 Q17.851 -62.624 28.473 -61.547 Q39.095 -60.469 50 -60.469 Q60.905 -60.469 71.557 -61.547 Q82.209 -62.624 92.739 -65.499 L95.448 -54.692 Q88.073 -52.722 80.603 -51.522 Q73.133 -50.323 65.538 -49.692 V-45.045 Q58.549 -40.64 54.275 -33.303 Q50 -25.966 49.94 -17.132 Q49.94 -16.657 49.94 -16.181 Q49.94 -15.705 50.035 -15.23 H45.359 V15.099 H34.462 Z"/></g><g id="Regular-M" transform="matrix(1 0 0 1 1394.06 1126)"><path d="M50 -65.23 Q45.875 -65.23 42.938 -68.167 Q40 -71.105 40 -75.23 Q40 -79.355 42.938 -82.292 Q45.875 -85.23 50 -85.23 Q54.125 -85.23 57.062 -82.292 Q60 -79.355 60 -75.23 Q60 -71.105 57.062 -68.167 Q54.125 -65.23 50 -65.23 Z M82.5 -5.23 Q87.75 -5.23 91.375 -8.855 Q95 -12.48 95 -17.73 Q95 -22.98 91.375 -26.605 Q87.75 -30.23 82.5 -30.23 Q77.25 -30.23 73.625 -26.605 Q70 -22.98 70 -17.73 Q70 -12.48 73.625 -8.855 Q77.25 -5.23 82.5 -5.23 Z M108 14.77  94.5 1.27 Q91.75 3.02 88.75 3.895 Q85.75 4.77 82.5 4.77 Q73.125 4.77 66.562 -1.792 Q60 -8.355 60 -17.73 Q60 -27.105 66.562 -33.667 Q73.125 -40.23 82.5 -40.23 Q91.875 -40.23 98.438 -33.667 Q105 -27.105 105 -17.73 Q105 -14.48 104.125 -11.48 Q103.25 -8.48 101.5 -5.73 L115 7.77 L108 14.77 Z M55 14.77 V-0.355 Q56.875 2.645 59.438 5.145 Q62 7.645 65 9.645 V14.77 H55 Z M35 14.77 V-50.23 Q27.375 -50.855 19.875 -52.042 Q12.375 -53.23 5 -55.23 L7.5 -65.23 Q18 -62.355 28.562 -61.292 Q39.125 -60.23 50 -60.23 Q60.875 -60.23 71.438 -61.292 Q82 -62.355 92.5 -65.23 L95 -55.23 Q87.625 -53.23 80.125 -52.042 Q72.625 -50.855 65 -50.23 V-45.105 Q58.25 -40.73 54.125 -33.542 Q50 -26.355 50 -17.73 Q50 -17.105 50 -16.48 Q50 -15.855 50.125 -15.23 H45 V14.77 H35 Z"/></g><g id="Light-M" transform="matrix(1 0 0 1 1098.18 1126)"><path d="M50 -65.711 Q46.192 -65.711 43.481 -68.422 Q40.769 -71.134 40.769 -74.941 Q40.769 -78.749 43.481 -81.461 Q46.192 -84.172 50 -84.172 Q53.808 -84.172 56.519 -81.461 Q59.231 -78.749 59.231 -74.941 Q59.231 -71.134 56.519 -68.422 Q53.808 -65.711 50 -65.711 Z M82.5 -4.461 Q88.038 -4.461 91.904 -8.326 Q95.769 -12.191 95.769 -17.73 Q95.769 -23.268 91.904 -27.134 Q88.038 -30.999 82.5 -30.999 Q76.962 -30.999 73.096 -27.134 Q69.231 -23.268 69.231 -17.73 Q69.231 -12.191 73.096 -8.326 Q76.962 -4.461 82.5 -4.461 Z M108 12.991  94.308 -0.701 Q91.654 1.145 88.685 2.092 Q85.716 3.039 82.5 3.039 Q73.846 3.039 67.788 -3.018 Q61.731 -9.076 61.731 -17.73 Q61.731 -26.384 67.788 -32.441 Q73.846 -38.499 82.5 -38.499 Q91.154 -38.499 97.212 -32.441 Q103.269 -26.384 103.269 -17.73 Q103.269 -14.514 102.322 -11.545 Q101.375 -8.576 99.529 -5.922 L113.221 7.77 L108 12.991 Z M55.481 13.52 V-1.076 Q56.923 1.299 58.837 3.294 Q60.75 5.289 62.981 6.953 V13.52 H55.481 Z M37.019 13.52 V-51.672 Q29.539 -52.297 22.159 -53.389 Q14.779 -54.48 7.5 -56.384 L9.327 -63.884 Q19.394 -61.249 29.495 -60.211 Q39.595 -59.172 49.995 -59.172 Q60.394 -59.172 70.5 -60.211 Q80.606 -61.249 90.673 -63.884 L92.5 -56.384 Q85.221 -54.48 77.841 -53.389 Q70.461 -52.297 62.981 -51.672 V-42.412 Q57.577 -38.326 54.269 -32.124 Q50.962 -25.922 50.817 -18.595 Q50.817 -18.211 50.817 -17.826 Q50.817 -17.442 50.894 -17.057 H44.519 V13.52 H37.019 Z"/></g><g id="Thin-M" transform="matrix(1 0 0 1 802.565 1126)"><path d="M50 -66.191 Q46.51 -66.191 44.024 -68.677 Q41.538 -71.163 41.538 -74.653 Q41.538 -78.143 44.024 -80.629 Q46.51 -83.115 50 -83.115 Q53.49 -83.115 55.976 -80.629 Q58.462 -78.143 58.462 -74.653 Q58.462 -71.163 55.976 -68.677 Q53.49 -66.191 50 -66.191 Z M82.5 -3.691 Q88.327 -3.691 92.433 -7.797 Q96.538 -11.903 96.538 -17.73 Q96.538 -23.557 92.433 -27.663 Q88.327 -31.768 82.5 -31.768 Q76.673 -31.768 72.567 -27.663 Q68.462 -23.557 68.462 -17.73 Q68.462 -11.903 72.567 -7.797 Q76.673 -3.691 82.5 -3.691 Z M108 11.212  94.115 -2.672 Q91.558 -0.73 88.62 0.289 Q85.682 1.309 82.5 1.309 Q74.567 1.309 69.014 -4.244 Q63.462 -9.797 63.462 -17.73 Q63.462 -25.663 69.014 -31.216 Q74.567 -36.768 82.5 -36.768 Q90.433 -36.768 95.986 -31.216 Q101.538 -25.663 101.538 -17.73 Q101.538 -14.548 100.519 -11.61 Q99.5 -8.672 97.558 -6.115 L111.442 7.77 L108 11.212 Z M55.962 12.27 V-1.797 Q56.971 -0.047 58.236 1.443 Q59.5 2.934 60.962 4.26 V12.27 H55.962 Z M39.038 12.27 V-53.115 Q31.702 -53.74 24.442 -54.735 Q17.183 -55.73 10 -57.538 L11.154 -62.538 Q20.788 -60.143 30.427 -59.129 Q40.066 -58.115 49.99 -58.115 Q59.913 -58.115 69.562 -59.129 Q79.212 -60.143 88.846 -62.538 L90 -57.538 Q82.817 -55.73 75.558 -54.735 Q68.298 -53.74 60.962 -53.115 V-39.72 Q56.904 -35.922 54.413 -30.706 Q51.923 -25.49 51.635 -19.461 Q51.635 -19.316 51.635 -19.172 Q51.635 -19.028 51.663 -18.884 H44.038 V12.27 H39.038 Z"/></g><g id="Ultralight-M" transform="matrix(1 0 0 1 506.415 1126)"><path d="M50 -66.48 Q46.7 -66.48 44.35 -68.83 Q42 -71.18 42 -74.48 Q42 -77.78 44.35 -80.13 Q46.7 -82.48 50 -82.48 Q53.3 -82.48 55.65 -80.13 Q58 -77.78 58 -74.48 Q58 -71.18 55.65 -68.83 Q53.3 -66.48 50 -66.48 Z M82.5 -3.23 Q88.5 -3.23 92.75 -7.48 Q97 -11.73 97 -17.73 Q97 -23.73 92.75 -27.98 Q88.5 -32.23 82.5 -32.23 Q76.5 -32.23 72.25 -27.98 Q68 -23.73 68 -17.73 Q68 -11.73 72.25 -7.48 Q76.5 -3.23 82.5 -3.23 Z M108 10.145  94 -3.855 Q91.5 -1.855 88.581 -0.792 Q85.662 0.27 82.5 0.27 Q75 0.27 69.75 -4.98 Q64.5 -10.23 64.5 -17.73 Q64.5 -25.23 69.75 -30.48 Q75 -35.73 82.5 -35.73 Q90 -35.73 95.25 -30.48 Q100.5 -25.23 100.5 -17.73 Q100.5 -14.568 99.438 -11.649 Q98.375 -8.73 96.375 -6.23 L110.375 7.77 L108 10.145 Z M56.25 11.52 V-2.23 Q57 -0.855 57.875 0.333 Q58.75 1.52 59.75 2.645 V11.52 H56.25 Z M40.25 11.52 V-53.98 Q33 -54.605 25.812 -55.542 Q18.625 -56.48 11.5 -58.23 L12.25 -61.73 Q21.625 -59.48 30.986 -58.48 Q40.348 -57.48 49.986 -57.48 Q59.625 -57.48 69 -58.48 Q78.375 -59.48 87.75 -61.73 L88.5 -58.23 Q81.375 -56.48 74.188 -55.542 Q67 -54.605 59.75 -53.98 V-38.105 Q56.5 -34.48 54.5 -29.855 Q52.5 -25.23 52.125 -19.98 Q52.125 -19.98 52.125 -19.98 Q52.125 -19.98 52.125 -19.98 H43.75 V11.52 H40.25 Z"/></g><g id="Bold-S" transform="matrix(1 0 0 1 2294.23 696)"><path d="M42.595 -56.138 Q38.562 -56.138 35.702 -59.01 Q32.842 -61.881 32.842 -65.914 Q32.842 -69.946 35.714 -72.806 Q38.585 -75.666 42.617 -75.666 Q46.65 -75.666 49.51 -72.795 Q52.37 -69.923 52.37 -65.891 Q52.37 -61.859 49.498 -58.999 Q46.627 -56.138 42.595 -56.138 Z M68.301 -11.165 Q71.306 -11.165 73.426 -13.24 Q75.547 -15.315 75.547 -18.319 Q75.547 -21.324 73.472 -23.444 Q71.398 -25.565 68.393 -25.565 Q65.388 -25.565 63.268 -23.49 Q61.148 -21.416 61.148 -18.411 Q61.148 -15.406 63.222 -13.286 Q65.297 -11.165 68.301 -11.165 Z M86.987 8.56  76.928 -1.5 Q74.955 -0.514 72.736 -0.021 Q70.517 0.472 68.324 0.472 Q60.485 0.472 54.997 -5.022 Q49.51 -10.516 49.51 -18.365 Q49.51 -26.214 55.004 -31.708 Q60.498 -37.202 68.347 -37.202 Q76.196 -37.202 81.69 -31.715 Q87.184 -26.227 87.184 -18.388 Q87.184 -16.195 86.691 -13.976 Q86.198 -11.757 85.212 -9.785 L95.272 0.275 L86.987 8.56 Z M46.157 3.727 V-5.347 Q47.932 -2.092 50.496 0.423 Q53.06 2.938 56.216 4.649 V3.727 H46.157 Z M28.99 3.727 V-41.202 Q23.671 -41.62 18.493 -42.765 Q13.314 -43.909 8.087 -45.388 L10.652 -54.659 Q18.443 -52.588 26.481 -51.404 Q34.519 -50.221 42.606 -50.221 Q50.693 -50.221 58.83 -51.404 Q66.966 -52.588 74.758 -54.659 L77.223 -45.388 Q71.996 -43.81 66.769 -42.834 Q61.541 -41.858 56.216 -41.246 V-41.345 Q50.102 -38.189 46.354 -32.271 Q42.606 -26.354 42.409 -19.055 Q42.409 -19.549 42.409 -20.042 Q42.409 -20.535 42.31 -21.028 H39.056 V3.727 H28.99 Z"/></g><g id="Semibold-S" transform="matrix(1 0 0 1 1998.1 696)"><path d="M42.589 -55.795 Q38.82 -55.795 36.152 -58.48 Q33.485 -61.164 33.485 -64.933 Q33.485 -68.703 36.17 -71.37 Q38.854 -74.037 42.623 -74.037 Q46.392 -74.037 49.06 -71.353 Q51.727 -68.669 51.727 -64.899 Q51.727 -61.13 49.042 -58.463 Q46.358 -55.795 42.589 -55.795 Z M67.411 -11.337 Q70.834 -11.337 73.233 -13.701 Q75.633 -16.064 75.633 -19.487 Q75.633 -22.91 73.269 -25.31 Q70.905 -27.709 67.482 -27.709 Q64.059 -27.709 61.66 -25.345 Q59.261 -22.981 59.261 -19.558 Q59.261 -16.135 61.624 -13.736 Q63.988 -11.337 67.411 -11.337 Z M86.087 5.987  76.199 -3.901 Q74.226 -2.787 71.964 -2.229 Q69.702 -1.672 67.424 -1.672 Q59.995 -1.672 54.795 -6.878 Q49.596 -12.085 49.596 -19.523 Q49.596 -26.961 54.802 -32.167 Q60.009 -37.374 67.447 -37.374 Q74.885 -37.374 80.091 -32.174 Q85.298 -26.974 85.298 -19.546 Q85.298 -17.267 84.74 -15.005 Q84.183 -12.743 83.068 -10.771 L92.956 -0.883 L86.087 5.987 Z M46.671 3.255 V-5.99 Q48.275 -3.293 50.517 -1.185 Q52.76 0.923 55.444 2.42 V3.255 H46.671 Z M29.762 3.255 V-41.974 Q24.4 -42.401 19.179 -43.562 Q13.958 -44.724 8.688 -46.16 L10.909 -54.273 Q18.657 -52.202 26.609 -51.04 Q34.562 -49.878 42.606 -49.878 Q50.65 -49.878 58.658 -51.04 Q66.666 -52.202 74.415 -54.273 L76.58 -46.16 Q71.353 -44.539 66.083 -43.58 Q60.812 -42.621 55.444 -42.018 V-41.431 Q49.673 -38.317 46.139 -32.614 Q42.606 -26.911 42.495 -19.913 Q42.495 -20.192 42.495 -20.471 Q42.495 -20.749 42.439 -21.028 H38.541 V3.255 H29.762 Z"/></g><g id="Medium-S" transform="matrix(1 0 0 1 1701.85 696)"><path d="M42.585 -55.538 Q39.013 -55.538 36.49 -58.082 Q33.968 -60.626 33.968 -64.198 Q33.968 -67.77 36.511 -70.292 Q39.055 -72.815 42.627 -72.815 Q46.199 -72.815 48.722 -70.271 Q51.244 -67.727 51.244 -64.155 Q51.244 -60.583 48.701 -58.061 Q46.157 -55.538 42.585 -55.538 Z M66.743 -11.466 Q70.48 -11.466 73.089 -14.046 Q75.697 -16.626 75.697 -20.363 Q75.697 -24.1 73.117 -26.709 Q70.536 -29.317 66.799 -29.317 Q63.062 -29.317 60.454 -26.736 Q57.846 -24.156 57.846 -20.419 Q57.846 -16.682 60.426 -14.074 Q63.006 -11.466 66.743 -11.466 Z M85.411 4.057  75.652 -5.702 Q73.679 -4.491 71.385 -3.885 Q69.091 -3.28 66.748 -3.28 Q59.628 -3.28 54.644 -8.271 Q49.66 -13.261 49.66 -20.391 Q49.66 -27.521 54.651 -32.512 Q59.641 -37.503 66.771 -37.503 Q73.901 -37.503 78.892 -32.519 Q83.883 -27.534 83.883 -20.414 Q83.883 -18.071 83.277 -15.777 Q82.671 -13.483 81.46 -11.511 L91.22 -1.751 L85.411 4.057 Z M47.057 2.901 V-6.472 Q48.532 -4.193 50.533 -2.391 Q52.535 -0.589 54.865 0.747 V2.901 H47.057 Z M30.341 2.901 V-42.553 Q24.946 -42.986 19.693 -44.161 Q14.44 -45.335 9.138 -46.739 L11.102 -53.984 Q18.818 -51.913 26.706 -50.767 Q34.594 -49.621 42.606 -49.621 Q50.618 -49.621 58.53 -50.767 Q66.441 -51.913 74.157 -53.984 L76.098 -46.739 Q70.871 -45.086 65.568 -44.14 Q60.266 -43.193 54.865 -42.597 V-41.495 Q49.351 -38.414 45.979 -32.872 Q42.606 -27.329 42.559 -20.556 Q42.559 -20.674 42.559 -20.792 Q42.559 -20.91 42.535 -21.028 H38.155 V2.901 H30.341 Z"/></g><g id="Regular-S" transform="matrix(1 0 0 1 1405.73 696)"><path d="M42.582 -55.349 Q39.154 -55.349 36.738 -57.79 Q34.322 -60.231 34.322 -63.658 Q34.322 -67.086 36.762 -69.502 Q39.203 -71.918 42.63 -71.918 Q46.058 -71.918 48.474 -69.478 Q50.891 -67.037 50.891 -63.61 Q50.891 -60.182 48.45 -57.766 Q46.009 -55.349 42.582 -55.349 Z M66.254 -11.56 Q70.221 -11.56 72.983 -14.299 Q75.744 -17.039 75.744 -21.006 Q75.744 -24.973 73.005 -27.734 Q70.265 -30.496 66.298 -30.496 Q62.331 -30.496 59.57 -27.757 Q56.808 -25.017 56.808 -21.05 Q56.808 -17.083 59.547 -14.321 Q62.287 -11.56 66.254 -11.56 Z M84.916 2.642  75.251 -7.023 Q73.278 -5.741 70.961 -5.1 Q68.643 -4.459 66.253 -4.459 Q59.359 -4.459 54.533 -9.292 Q49.707 -14.124 49.707 -21.028 Q49.707 -27.932 54.54 -32.764 Q59.372 -37.597 66.276 -37.597 Q73.18 -37.597 78.012 -32.771 Q82.845 -27.945 82.845 -21.051 Q82.845 -18.661 82.204 -16.343 Q81.563 -14.026 80.281 -12.053 L89.946 -2.388 L84.916 2.642 Z M47.34 2.642 V-6.826 Q48.721 -4.853 50.545 -3.275 Q52.37 -1.697 54.441 -0.479 V2.642 H47.34 Z M30.765 2.642 V-42.977 Q25.347 -43.416 20.07 -44.599 Q14.794 -45.783 9.468 -47.164 L11.243 -53.771 Q18.936 -51.7 26.777 -50.566 Q34.617 -49.432 42.606 -49.432 Q50.595 -49.432 58.435 -50.566 Q66.276 -51.7 73.969 -53.771 L75.744 -47.164 Q70.517 -45.487 65.191 -44.55 Q59.865 -43.613 54.441 -43.021 V-41.542 Q49.115 -38.485 45.861 -33.06 Q42.606 -27.636 42.606 -21.028 Q42.606 -21.028 42.606 -21.028 Q42.606 -21.028 42.606 -21.028 H37.872 V2.642 H30.765 Z"/></g><g id="Light-S" transform="matrix(1 0 0 1 1109.75 696)"><path d="M42.582 -55.729 Q39.405 -55.729 37.166 -57.991 Q34.928 -60.254 34.928 -63.431 Q34.928 -66.608 37.191 -68.846 Q39.453 -71.084 42.63 -71.084 Q45.807 -71.084 48.046 -68.821 Q50.284 -66.559 50.284 -63.382 Q50.284 -60.205 48.021 -57.967 Q45.759 -55.729 42.582 -55.729 Z M66.254 -10.953 Q70.449 -10.953 73.4 -13.882 Q76.351 -16.811 76.351 -21.006 Q76.351 -25.201 73.422 -28.152 Q70.493 -31.103 66.298 -31.103 Q62.103 -31.103 59.152 -28.174 Q56.201 -25.245 56.201 -21.05 Q56.201 -16.855 59.13 -13.904 Q62.059 -10.953 66.254 -10.953 Z M84.916 1.238  75.099 -8.579 Q73.203 -7.221 70.909 -6.523 Q68.616 -5.825 66.253 -5.825 Q59.928 -5.825 55.5 -10.259 Q51.073 -14.693 51.073 -21.028 Q51.073 -27.363 55.507 -31.797 Q59.941 -36.231 66.276 -36.231 Q72.611 -36.231 77.045 -31.804 Q81.479 -27.376 81.479 -21.051 Q81.479 -18.688 80.781 -16.395 Q80.083 -14.101 78.725 -12.205 L88.542 -2.388 L84.916 1.238 Z M47.719 1.656 V-7.395 Q48.759 -5.916 50.071 -4.736 Q51.384 -3.556 52.848 -2.604 V1.656 H47.719 Z M32.359 1.656 V-44.115 Q27.054 -44.554 21.872 -45.662 Q16.691 -46.769 11.441 -48.074 L12.685 -52.709 Q20.036 -50.828 27.512 -49.713 Q34.989 -48.597 42.602 -48.597 Q50.215 -48.597 57.696 -49.713 Q65.176 -50.828 72.527 -52.709 L73.771 -48.074 Q68.62 -46.473 63.389 -45.612 Q58.158 -44.751 52.848 -44.159 V-39.418 Q48.584 -36.588 45.974 -31.941 Q43.365 -27.294 43.251 -21.711 Q43.251 -21.901 43.251 -22.09 Q43.251 -22.28 43.213 -22.47 H37.493 V1.656 H32.359 Z"/></g><g id="Thin-S" transform="matrix(1 0 0 1 814.015 696)"><path d="M42.582 -56.108 Q39.655 -56.108 37.595 -58.192 Q35.535 -60.277 35.535 -63.203 Q35.535 -66.13 37.62 -68.19 Q39.704 -70.249 42.63 -70.249 Q45.557 -70.249 47.617 -68.165 Q49.677 -66.081 49.677 -63.154 Q49.677 -60.228 47.592 -58.168 Q45.508 -56.108 42.582 -56.108 Z M66.254 -10.346 Q70.676 -10.346 73.817 -13.465 Q76.958 -16.583 76.958 -21.006 Q76.958 -25.428 73.839 -28.569 Q70.721 -31.71 66.298 -31.71 Q61.876 -31.71 58.735 -28.591 Q55.594 -25.473 55.594 -21.05 Q55.594 -16.628 58.713 -13.487 Q61.831 -10.346 66.254 -10.346 Z M84.916 -0.165  74.947 -10.134 Q73.127 -8.7 70.858 -7.945 Q68.59 -7.19 66.253 -7.19 Q60.497 -7.19 56.467 -11.226 Q52.438 -15.262 52.438 -21.028 Q52.438 -26.794 56.474 -30.83 Q60.51 -34.866 66.276 -34.866 Q72.042 -34.866 76.078 -30.837 Q80.114 -26.807 80.114 -21.051 Q80.114 -18.714 79.359 -16.446 Q78.604 -14.177 77.17 -12.357 L87.139 -2.388 L84.916 -0.165 Z M48.099 0.67 V-7.964 Q48.797 -6.978 49.597 -6.196 Q50.397 -5.415 51.255 -4.728 V0.67 H48.099 Z M33.952 0.67 V-45.253 Q28.761 -45.692 23.674 -46.724 Q18.587 -47.755 13.413 -48.984 L14.126 -51.647 Q21.136 -49.956 28.248 -48.859 Q35.36 -47.763 42.598 -47.763 Q49.836 -47.763 56.956 -48.859 Q64.076 -49.956 71.086 -51.647 L71.799 -48.984 Q66.724 -47.459 61.588 -46.674 Q56.451 -45.889 51.255 -45.297 V-37.294 Q48.053 -34.691 46.088 -30.822 Q44.123 -26.953 43.896 -22.394 Q43.896 -22.773 43.896 -23.152 Q43.896 -23.531 43.82 -23.911 H37.113 V0.67 H33.952 Z"/></g><g id="Ultralight-S" transform="matrix(1 0 0 1 517.792 696)"><path d="M42.582 -56.336 Q39.805 -56.336 37.852 -58.313 Q35.9 -60.29 35.9 -63.067 Q35.9 -65.843 37.877 -67.796 Q39.854 -69.749 42.63 -69.749 Q45.407 -69.749 47.36 -67.772 Q49.312 -65.794 49.312 -63.018 Q49.312 -60.241 47.335 -58.289 Q45.358 -56.336 42.582 -56.336 Z M66.254 -9.982 Q70.813 -9.982 74.067 -13.214 Q77.322 -16.447 77.322 -21.006 Q77.322 -25.565 74.09 -28.819 Q70.857 -32.074 66.298 -32.074 Q61.739 -32.074 58.485 -28.842 Q55.23 -25.609 55.23 -21.05 Q55.23 -16.491 58.462 -13.237 Q61.695 -9.982 66.254 -9.982 Z M84.916 -1.007  74.856 -11.067 Q73.081 -9.587 70.827 -8.798 Q68.574 -8.009 66.253 -8.009 Q60.838 -8.009 57.048 -11.807 Q53.258 -15.604 53.258 -21.028 Q53.258 -26.452 57.055 -30.249 Q60.852 -34.046 66.276 -34.046 Q71.7 -34.046 75.497 -30.256 Q79.294 -26.466 79.294 -21.051 Q79.294 -18.73 78.505 -16.477 Q77.716 -14.223 76.237 -12.448 L86.297 -2.388 L84.916 -1.007 Z M48.326 0.078 V-8.305 Q48.819 -7.615 49.312 -7.073 Q49.806 -6.53 50.299 -6.002 V0.078 H48.326 Z M34.908 0.078 V-45.936 Q29.785 -46.375 24.755 -47.361 Q19.725 -48.347 14.597 -49.531 L14.991 -51.01 Q21.796 -49.432 28.689 -48.347 Q35.582 -47.262 42.595 -47.262 Q49.608 -47.262 56.512 -48.347 Q63.416 -49.432 70.221 -51.01 L70.615 -49.531 Q65.586 -48.051 60.506 -47.312 Q55.427 -46.572 50.299 -45.98 V-36.019 Q47.735 -33.553 46.157 -30.151 Q44.579 -26.748 44.283 -22.803 Q44.283 -23.296 44.283 -23.789 Q44.283 -24.283 44.184 -24.776 H36.886 V0.078 H34.908 Z"/></g></g></svg>