<svg xmlns="http://www.w3.org/2000/svg" version="1.1" width="3300" height="2000"><g id="Notes"><style>
    text {
      font-family: monospace;
      text-anchor: middle;
    }
    text.emphasis {
      font-weight:bold;
    }
    text.lanchor {
      text-anchor: start;
    }
  </style><rect height="2200" id="artboard" fill="white" width="3300" x="0" y="0"/><line id="" style="fill:none;stroke:black;stroke-width:0.5;" x1="263" x2="3036" y1="292" y2="292"/><text class="lanchor emphasis" transform="matrix(1 0 0 1 263 322)">Weight/Scale Variations</text><text transform="matrix(1 0 0 1 559.711 322)">Ultralight</text><text transform="matrix(1 0 0 1 856.422 322)">Thin</text><text transform="matrix(1 0 0 1 1153.13 322)">Light</text><text transform="matrix(1 0 0 1 1449.84 322)">Regular</text><text transform="matrix(1 0 0 1 1746.56 322)">Medium</text><text transform="matrix(1 0 0 1 2043.27 322)">Semibold</text><text transform="matrix(1 0 0 1 2339.98 322)">Bold</text><text transform="matrix(1 0 0 1 2636.69 322)">Heavy</text><text transform="matrix(1 0 0 1 2933.4 322)">Black</text><text id="template-version" style="text-anchor: end;" transform="matrix(1 0 0 1 3036 1933)">Template v.1.0</text><text class="lanchor" transform="matrix(1 0 0 1 263 726)">Small</text><text class="lanchor" transform="matrix(1 0 0 1 263 1156)">Medium</text><text class="lanchor" transform="matrix(1 0 0 1 263 1586)">Large</text></g><g id="Guides"><g id="H-reference" style="fill:#27AAE1;stroke:none;" transform="matrix(1 0 0 1 339 696)"><path d="M 54.9316 0 L 57.666 0 L 30.5664 -70.459 L 28.0762 -70.459 L 0.976562 0 L 3.66211 0 L 12.9395 -24.4629 L 45.7031 -24.4629 Z M 29.1992 -67.0898 L 29.4434 -67.0898 L 44.8242 -26.709 L 13.8184 -26.709 Z"/></g><line id="Baseline-S" style="fill:none;stroke:#27AAE1;opacity:1;stroke-width:0.577;" x1="263" x2="3036" y1="696" y2="696"/><line id="Capline-S" style="fill:none;stroke:#27AAE1;opacity:1;stroke-width:0.577;" x1="263" x2="3036" y1="625.541" y2="625.541"/><g id="H-reference" style="fill:#27AAE1;stroke:none;" transform="matrix(1 0 0 1 339 1126)"><path d="M 54.9316 0 L 57.666 0 L 30.5664 -70.459 L 28.0762 -70.459 L 0.976562 0 L 3.66211 0 L 12.9395 -24.4629 L 45.7031 -24.4629 Z M 29.1992 -67.0898 L 29.4434 -67.0898 L 44.8242 -26.709 L 13.8184 -26.709 Z"/></g><line id="Baseline-M" style="fill:none;stroke:#27AAE1;opacity:1;stroke-width:0.577;" x1="263" x2="3036" y1="1126" y2="1126"/><line id="Capline-M" style="fill:none;stroke:#27AAE1;opacity:1;stroke-width:0.577;" x1="263" x2="3036" y1="1055.54" y2="1055.54"/><g id="H-reference" style="fill:#27AAE1;stroke:none;" transform="matrix(1 0 0 1 339 1556)"><path d="M 54.9316 0 L 57.666 0 L 30.5664 -70.459 L 28.0762 -70.459 L 0.976562 0 L 3.66211 0 L 12.9395 -24.4629 L 45.7031 -24.4629 Z M 29.1992 -67.0898 L 29.4434 -67.0898 L 44.8242 -26.709 L 13.8184 -26.709 Z"/></g><line id="Baseline-L" style="fill:none;stroke:#27AAE1;opacity:1;stroke-width:0.577;" x1="263" x2="3036" y1="1556" y2="1556"/><line id="Capline-L" style="fill:none;stroke:#27AAE1;opacity:1;stroke-width:0.577;" x1="263" x2="3036" y1="1485.54" y2="1485.54"/><rect height="119.336" id="left-margin" style="fill:darkred;stroke:none;opacity:0.4;" width="12.4512" x="1394.06" y="1030.79"/><rect height="119.336" id="right-margin" style="fill:darkgreen;stroke:none;opacity:0.4;" width="12.4512" x="1502.5112" y="1030.79"/><rect x="1406.5112" y="1045" width="96" height="96" fill="none" stroke="blue" stroke-dasharray="5"/><rect x="1394.06" y="1030.79" width="120.9024" height="119.336" fill="none" stroke="blue"/></g><g id="Symbols"><g id="Bold-L" transform="matrix(1 0 0 1 2266 1556)"><path d="M30.476 3.309 Q40.151 -5.076 51.664 -10.156 Q63.177 -15.235 77.383 -15.235 Q91.59 -15.235 103.119 -10.317 Q114.649 -5.399 124.324 2.986 V-82.154 Q124.324 -82.154 124.324 -82.154 Q124.324 -82.154 124.324 -82.154 H30.476 Q30.476 -82.154 30.476 -82.154 Q30.476 -82.154 30.476 -82.154 V3.309 Z M77.703 -23.297 Q87.559 -23.297 94.251 -29.97 Q100.943 -36.642 100.943 -46.498 Q100.943 -56.354 94.27 -62.965 Q87.598 -69.576 77.742 -69.576 Q67.886 -69.576 61.194 -62.985 Q54.503 -56.393 54.503 -46.537 Q54.503 -36.681 61.175 -29.989 Q67.847 -23.297 77.703 -23.297 Z M30.476 26.851 Q24.179 26.851 19.749 22.421 Q15.319 17.991 15.319 11.694 V-82.154 Q15.319 -88.517 19.749 -92.995 Q24.179 -97.472 30.476 -97.472 H124.324 Q130.687 -97.472 135.165 -92.995 Q139.643 -88.517 139.643 -82.154 V11.694 Q139.643 17.991 135.165 22.421 Q130.687 26.851 124.324 26.851 H30.476 Z M37.894 11.694 H116.906 Q116.906 11.549 116.906 11.406 Q116.906 11.263 116.906 11.049 Q108.199 3.631 98.201 0.003 Q88.204 -3.625 77.4 -3.625 Q66.596 -3.625 56.599 0.003 Q46.601 3.631 37.894 11.049 Q37.894 11.286 37.894 11.417 Q37.894 11.549 37.894 11.694 Z M77.666 -34.746 Q72.804 -34.746 69.458 -38.182 Q66.112 -41.618 66.112 -46.527 Q66.112 -51.436 69.515 -54.782 Q72.918 -58.127 77.779 -58.127 Q82.641 -58.127 85.987 -54.725 Q89.332 -51.322 89.332 -46.461 Q89.332 -41.599 85.93 -38.173 Q82.527 -34.746 77.666 -34.746 Z"/></g><g id="Semibold-L" transform="matrix(1 0 0 1 1970.27 1556)"><path d="M29.845 4.991 Q39.52 -3.674 51.348 -8.964 Q63.177 -14.253 77.383 -14.253 Q91.59 -14.253 103.435 -9.055 Q115.28 -3.856 124.955 4.809 V-82.785 Q124.955 -82.785 124.955 -82.785 Q124.955 -82.785 124.955 -82.785 H29.845 Q29.845 -82.785 29.845 -82.785 Q29.845 -82.785 29.845 -82.785 V4.991 Z M77.711 -24.349 Q87.348 -24.349 93.935 -30.925 Q100.522 -37.5 100.522 -47.137 Q100.522 -56.774 93.946 -63.316 Q87.371 -69.857 77.734 -69.857 Q68.097 -69.857 61.51 -63.327 Q54.923 -56.797 54.923 -47.159 Q54.923 -37.522 61.499 -30.936 Q68.074 -24.349 77.711 -24.349 Z M29.845 25.099 Q24.604 25.099 20.838 21.332 Q17.071 17.566 17.071 12.325 V-82.785 Q17.071 -88.064 20.838 -91.857 Q24.604 -95.65 29.845 -95.65 H124.955 Q130.234 -95.65 134.027 -91.857 Q137.82 -88.064 137.82 -82.785 V12.325 Q137.82 17.566 134.027 21.332 Q130.234 25.099 124.955 25.099 H29.845 Z M37.894 12.325 H116.906 Q116.906 12.032 116.906 11.831 Q116.906 11.631 116.906 11.329 Q108.199 3.912 98.201 0.213 Q88.204 -3.485 77.4 -3.485 Q66.596 -3.485 56.599 0.213 Q46.601 3.912 37.894 11.329 Q37.894 11.644 37.894 11.838 Q37.894 12.032 37.894 12.325 Z M77.69 -35.027 Q72.664 -35.027 69.178 -38.564 Q65.692 -42.101 65.692 -47.154 Q65.692 -52.207 69.21 -55.693 Q72.728 -59.179 77.755 -59.179 Q82.781 -59.179 86.267 -55.661 Q89.753 -52.142 89.753 -47.116 Q89.753 -42.09 86.235 -38.558 Q82.717 -35.027 77.69 -35.027 Z"/></g><g id="Medium-L" transform="matrix(1 0 0 1 1674.31 1556)"><path d="M29.372 6.253 Q39.047 -2.623 51.112 -8.07 Q63.177 -13.517 77.383 -13.517 Q91.59 -13.517 103.671 -8.108 Q115.753 -2.7 125.428 6.176 V-83.258 Q125.428 -83.258 125.428 -83.258 Q125.428 -83.258 125.428 -83.258 H29.372 Q29.372 -83.258 29.372 -83.258 Q29.372 -83.258 29.372 -83.258 V6.253 Z M77.718 -25.138 Q87.191 -25.138 93.699 -31.641 Q100.206 -38.144 100.206 -47.617 Q100.206 -57.09 93.703 -63.578 Q87.2 -70.067 77.727 -70.067 Q68.254 -70.067 61.746 -63.583 Q55.239 -57.099 55.239 -47.626 Q55.239 -38.153 61.742 -31.646 Q68.245 -25.138 77.718 -25.138 Z M29.372 23.784 Q24.922 23.784 21.654 20.516 Q18.386 17.248 18.386 12.798 V-83.258 Q18.386 -87.724 21.654 -91.003 Q24.922 -94.283 29.372 -94.283 H125.428 Q129.894 -94.283 133.173 -91.003 Q136.453 -87.724 136.453 -83.258 V12.798 Q136.453 17.248 133.173 20.516 Q129.894 23.784 125.428 23.784 H29.372 Z M37.894 12.798 H116.906 Q116.906 12.395 116.906 12.151 Q116.906 11.906 116.906 11.539 Q108.199 4.122 98.201 0.371 Q88.204 -3.38 77.4 -3.38 Q66.596 -3.38 56.599 0.371 Q46.601 4.122 37.894 11.539 Q37.894 11.912 37.894 12.153 Q37.894 12.395 37.894 12.798 Z M77.709 -35.237 Q72.559 -35.237 68.968 -38.85 Q65.376 -42.463 65.376 -47.624 Q65.376 -52.785 68.981 -56.376 Q72.586 -59.968 77.736 -59.968 Q82.886 -59.968 86.477 -56.363 Q90.069 -52.758 90.069 -47.608 Q90.069 -42.458 86.464 -38.848 Q82.859 -35.237 77.709 -35.237 Z"/></g><g id="Regular-L" transform="matrix(1 0 0 1 1378.56 1556)"><path d="M29.025 7.179 Q38.7 -1.851 50.938 -7.414 Q63.177 -12.977 77.383 -12.977 Q91.59 -12.977 103.845 -7.414 Q116.1 -1.851 125.775 7.179 V-83.605 Q125.775 -83.605 125.775 -83.605 Q125.775 -83.605 125.775 -83.605 H29.025 Q29.025 -83.605 29.025 -83.605 Q29.025 -83.605 29.025 -83.605 V7.179 Z M77.722 -25.716 Q87.075 -25.716 93.525 -32.166 Q99.975 -38.616 99.975 -47.969 Q99.975 -57.321 93.525 -63.771 Q87.075 -70.221 77.722 -70.221 Q68.37 -70.221 61.92 -63.771 Q55.47 -57.321 55.47 -47.969 Q55.47 -38.616 61.92 -32.166 Q68.37 -25.716 77.722 -25.716 Z M29.025 22.82 Q25.155 22.82 22.253 19.918 Q19.35 17.015 19.35 13.145 V-83.605 Q19.35 -87.475 22.253 -90.377 Q25.155 -93.28 29.025 -93.28 H125.775 Q129.645 -93.28 132.548 -90.377 Q135.45 -87.475 135.45 -83.605 V13.145 Q135.45 17.015 132.548 19.918 Q129.645 22.82 125.775 22.82 H29.025 Z M37.894 13.145 H116.906 Q116.906 12.661 116.906 12.385 Q116.906 12.108 116.906 11.694 Q108.199 4.276 98.201 0.487 Q88.204 -3.302 77.4 -3.302 Q66.596 -3.302 56.599 0.487 Q46.601 4.276 37.894 11.694 Q37.894 12.108 37.894 12.385 Q37.894 12.661 37.894 13.145 Z M77.722 -35.391 Q72.482 -35.391 68.813 -39.06 Q65.145 -42.728 65.145 -47.969 Q65.145 -53.209 68.813 -56.878 Q72.482 -60.546 77.722 -60.546 Q82.963 -60.546 86.632 -56.878 Q90.3 -53.209 90.3 -47.969 Q90.3 -42.728 86.632 -39.06 Q82.963 -35.391 77.722 -35.391 Z"/></g><g id="Light-L" transform="matrix(1 0 0 1 1082.77 1556)"><path d="M29.893 7.179 Q39.32 -1.727 51.342 -7.135 Q63.363 -12.543 77.383 -12.543 Q91.404 -12.543 103.442 -7.135 Q115.48 -1.727 124.907 7.179 V-80.752 Q124.907 -81.496 124.287 -82.117 Q123.666 -82.737 122.922 -82.737 H31.878 Q31.134 -82.737 30.513 -82.117 Q29.893 -81.496 29.893 -80.752 V7.179 Z M77.629 -26.274 Q86.331 -26.274 92.347 -32.29 Q98.362 -38.306 98.362 -47.007 Q98.362 -55.709 92.347 -61.725 Q86.331 -67.74 77.629 -67.74 Q68.928 -67.74 62.912 -61.725 Q56.897 -55.709 56.897 -47.007 Q56.897 -38.306 62.912 -32.29 Q68.928 -26.274 77.629 -26.274 Z M31.878 19.595 Q28.084 19.595 25.33 16.84 Q22.575 14.086 22.575 10.292 V-80.752 Q22.575 -84.546 25.33 -87.3 Q28.084 -90.055 31.878 -90.055 H122.922 Q126.716 -90.055 129.47 -87.3 Q132.225 -84.546 132.225 -80.752 V10.292 Q132.225 14.086 129.47 16.84 Q126.716 19.595 122.922 19.595 H31.878 Z M36.281 12.277 H118.581 Q118.581 11.855 118.581 11.623 Q118.581 11.391 118.581 11.012 Q109.501 2.912 99.065 -1.157 Q88.628 -5.225 77.4 -5.225 Q66.224 -5.225 55.793 -1.188 Q45.361 2.85 36.281 10.888 Q36.281 11.302 36.281 11.578 Q36.281 11.855 36.281 12.277 Z M77.66 -33.593 Q72.048 -33.593 68.131 -37.509 Q64.215 -41.426 64.215 -47.007 Q64.215 -52.589 68.131 -56.506 Q72.048 -60.422 77.629 -60.422 Q83.211 -60.422 87.128 -56.493 Q91.044 -52.563 91.044 -47.038 Q91.044 -41.426 87.115 -37.509 Q83.185 -33.593 77.66 -33.593 Z"/></g><g id="Thin-L" transform="matrix(1 0 0 1 787.282 1556)"><path d="M30.762 7.179 Q39.94 -1.603 51.744 -6.856 Q63.549 -12.109 77.383 -12.109 Q91.218 -12.109 103.039 -6.856 Q114.86 -1.603 124.038 7.179 V-77.899 Q124.038 -79.388 122.798 -80.628 Q121.558 -81.868 120.069 -81.868 H34.731 Q33.242 -81.868 32.002 -80.628 Q30.762 -79.388 30.762 -77.899 V7.179 Z M77.536 -26.833 Q85.587 -26.833 91.168 -32.414 Q96.75 -37.996 96.75 -46.046 Q96.75 -54.096 91.168 -59.678 Q85.587 -65.26 77.536 -65.26 Q69.486 -65.26 63.905 -59.678 Q58.323 -54.096 58.323 -46.046 Q58.323 -37.996 63.905 -32.414 Q69.486 -26.833 77.536 -26.833 Z M34.731 16.37 Q31.013 16.37 28.406 13.764 Q25.8 11.157 25.8 7.439 V-77.899 Q25.8 -81.617 28.406 -84.224 Q31.013 -86.83 34.731 -86.83 H120.069 Q123.787 -86.83 126.394 -84.224 Q129 -81.617 129 -77.899 V7.439 Q129 11.157 126.394 13.764 Q123.787 16.37 120.069 16.37 H34.731 Z M34.669 11.408 H120.255 Q120.255 11.049 120.255 10.861 Q120.255 10.673 120.255 10.329 Q110.804 1.547 99.928 -2.8 Q89.053 -7.148 77.4 -7.148 Q65.852 -7.148 54.986 -2.862 Q44.12 1.423 34.669 10.081 Q34.669 10.496 34.669 10.772 Q34.669 11.049 34.669 11.408 Z M77.598 -31.794 Q71.614 -31.794 67.449 -35.959 Q63.284 -40.123 63.284 -46.046 Q63.284 -51.969 67.449 -56.134 Q71.614 -60.298 77.536 -60.298 Q83.459 -60.298 87.624 -56.108 Q91.788 -51.917 91.788 -46.108 Q91.788 -40.123 87.598 -35.959 Q83.408 -31.794 77.598 -31.794 Z"/></g><g id="Ultralight-L" transform="matrix(1 0 0 1 491.205 1556)"><path d="M31.283 7.179 Q40.312 -1.529 51.986 -6.689 Q63.66 -11.849 77.383 -11.849 Q91.106 -11.849 102.797 -6.689 Q114.487 -1.529 123.517 7.179 V-76.187 Q123.517 -78.122 121.905 -79.735 Q120.293 -81.347 118.358 -81.347 H36.443 Q34.508 -81.347 32.895 -79.735 Q31.283 -78.122 31.283 -76.187 V7.179 Z M77.481 -27.167 Q85.14 -27.167 90.461 -32.489 Q95.782 -37.81 95.782 -45.469 Q95.782 -53.129 90.461 -58.45 Q85.14 -63.771 77.481 -63.771 Q69.821 -63.771 64.5 -58.45 Q59.179 -53.129 59.179 -45.469 Q59.179 -37.81 64.5 -32.489 Q69.821 -27.167 77.481 -27.167 Z M36.443 14.435 Q32.77 14.435 30.253 11.917 Q27.735 9.4 27.735 5.728 V-76.187 Q27.735 -79.86 30.253 -82.378 Q32.77 -84.895 36.443 -84.895 H118.358 Q122.03 -84.895 124.548 -82.378 Q127.065 -79.86 127.065 -76.187 V5.728 Q127.065 9.4 124.548 11.917 Q122.03 14.435 118.358 14.435 H36.443 Z M33.701 10.888 H121.26 Q121.26 10.565 121.26 10.404 Q121.26 10.243 121.26 9.92 Q111.585 0.729 100.446 -3.786 Q89.308 -8.301 77.4 -8.301 Q65.629 -8.301 54.503 -3.867 Q43.376 0.568 33.701 9.598 Q33.701 10.012 33.701 10.289 Q33.701 10.565 33.701 10.888 Z M77.561 -30.715 Q71.353 -30.715 67.04 -35.028 Q62.726 -39.342 62.726 -45.469 Q62.726 -51.597 67.04 -55.91 Q71.353 -60.224 77.481 -60.224 Q83.608 -60.224 87.922 -55.877 Q92.235 -51.53 92.235 -45.55 Q92.235 -39.342 87.888 -35.028 Q83.541 -30.715 77.561 -30.715 Z"/></g><g id="Bold-M" transform="matrix(1 0 0 1 2281.8 1126)"><path d="M26.5 -9.98 Q33.25 -15.98 41.438 -19.23 Q49.625 -22.48 60 -22.48 Q70.375 -22.48 78.562 -19.355 Q86.75 -16.23 93.5 -10.23 V-68.73 Q93.5 -68.73 93.5 -68.73 Q93.5 -68.73 93.5 -68.73 H26.5 Q26.5 -68.73 26.5 -68.73 Q26.5 -68.73 26.5 -68.73 V-9.98 Z M60 -27.73 Q67.75 -27.73 73.125 -33.105 Q78.5 -38.48 78.5 -46.23 Q78.5 -53.98 73.125 -59.292 Q67.75 -64.605 60 -64.605 Q52.25 -64.605 46.875 -59.292 Q41.5 -53.98 41.5 -46.23 Q41.5 -38.48 46.875 -33.105 Q52.25 -27.73 60 -27.73 Z M26.5 14.02 Q19.875 14.02 15.312 9.458 Q10.75 4.895 10.75 -1.73 V-68.73 Q10.75 -75.355 15.312 -79.917 Q19.875 -84.48 26.5 -84.48 H93.5 Q100.125 -84.48 104.688 -79.917 Q109.25 -75.355 109.25 -68.73 V-1.73 Q109.25 4.895 104.688 9.458 Q100.125 14.02 93.5 14.02 H26.5 Z M35 -1.73 H85 Q85 -1.842 85 -1.917 Q85 -1.992 85 -2.105 Q79.75 -6.48 73.375 -8.542 Q67 -10.605 60 -10.605 Q53 -10.605 46.625 -8.542 Q40.25 -6.48 35 -2.105 Q35 -1.992 35 -1.917 Q35 -1.842 35 -1.73 Z M59.971 -39.605 Q57.25 -39.605 55.375 -41.535 Q53.5 -43.465 53.5 -46.223 Q53.5 -48.98 55.404 -50.855 Q57.309 -52.73 60.029 -52.73 Q62.75 -52.73 64.625 -50.826 Q66.5 -48.921 66.5 -46.201 Q66.5 -43.48 64.596 -41.542 Q62.691 -39.605 59.971 -39.605 Z"/></g><g id="Semibold-M" transform="matrix(1 0 0 1 1985.97 1126)"><path d="M25.848 -8.241 Q32.598 -14.513 41.111 -18.007 Q49.625 -21.502 60 -21.502 Q70.375 -21.502 78.889 -18.078 Q87.402 -14.654 94.152 -8.382 V-69.382 Q94.152 -69.382 94.152 -69.382 Q94.152 -69.382 94.152 -69.382 H25.848 Q25.848 -69.382 25.848 -69.382 Q25.848 -69.382 25.848 -69.382 V-8.241 Z M60 -28.817 Q67.533 -28.817 72.799 -34.083 Q78.065 -39.349 78.065 -46.882 Q78.065 -54.415 72.799 -59.646 Q67.533 -64.877 60 -64.877 Q52.467 -64.877 47.201 -59.646 Q41.935 -54.415 41.935 -46.882 Q41.935 -39.349 47.201 -34.083 Q52.467 -28.817 60 -28.817 Z M25.848 12.172 Q20.31 12.172 16.454 8.316 Q12.598 4.46 12.598 -1.078 V-69.382 Q12.598 -74.92 16.454 -78.776 Q20.31 -82.632 25.848 -82.632 H94.152 Q99.69 -82.632 103.546 -78.776 Q107.402 -74.92 107.402 -69.382 V-1.078 Q107.402 4.46 103.546 8.316 Q99.69 12.172 94.152 12.172 H25.848 Z M35 -1.078 H85 Q85 -1.304 85 -1.456 Q85 -1.607 85 -1.833 Q79.75 -6.208 73.375 -8.325 Q67 -10.442 60 -10.442 Q53 -10.442 46.625 -8.325 Q40.25 -6.208 35 -1.833 Q35 -1.607 35 -1.456 Q35 -1.304 35 -1.078 Z M59.983 -39.877 Q57.087 -39.877 55.076 -41.919 Q53.065 -43.961 53.065 -46.878 Q53.065 -49.795 55.093 -51.806 Q57.12 -53.817 60.017 -53.817 Q62.913 -53.817 64.924 -51.789 Q66.935 -49.762 66.935 -46.865 Q66.935 -43.969 64.907 -41.923 Q62.88 -39.877 59.983 -39.877 Z"/></g><g id="Medium-M" transform="matrix(1 0 0 1 1689.91 1126)"><path d="M25.359 -6.936 Q32.109 -13.412 40.867 -17.09 Q49.625 -20.768 60 -20.768 Q70.375 -20.768 79.133 -17.12 Q87.891 -13.472 94.641 -6.996 V-69.871 Q94.641 -69.871 94.641 -69.871 Q94.641 -69.871 94.641 -69.871 H25.359 Q25.359 -69.871 25.359 -69.871 Q25.359 -69.871 25.359 -69.871 V-6.936 Z M60 -29.632 Q67.37 -29.632 72.554 -34.817 Q77.739 -40.002 77.739 -47.371 Q77.739 -54.741 72.554 -59.911 Q67.37 -65.08 60 -65.08 Q52.63 -65.08 47.446 -59.911 Q42.261 -54.741 42.261 -47.371 Q42.261 -40.002 47.446 -34.817 Q52.63 -29.632 60 -29.632 Z M25.359 10.786 Q20.636 10.786 17.31 7.46 Q13.984 4.134 13.984 -0.589 V-69.871 Q13.984 -74.594 17.31 -77.92 Q20.636 -81.246 25.359 -81.246 H94.641 Q99.364 -81.246 102.69 -77.92 Q106.016 -74.594 106.016 -69.871 V-0.589 Q106.016 4.134 102.69 7.46 Q99.364 10.786 94.641 10.786 H25.359 Z M35 -0.589 H85 Q85 -0.901 85 -1.109 Q85 -1.317 85 -1.629 Q79.75 -6.004 73.375 -8.162 Q67 -10.32 60 -10.32 Q53 -10.32 46.625 -8.162 Q40.25 -6.004 35 -1.629 Q35 -1.317 35 -1.109 Q35 -0.901 35 -0.589 Z M59.993 -40.08 Q56.965 -40.08 54.852 -42.206 Q52.739 -44.332 52.739 -47.369 Q52.739 -50.407 54.859 -52.519 Q56.979 -54.632 60.007 -54.632 Q63.035 -54.632 65.148 -52.512 Q67.261 -50.392 67.261 -47.364 Q67.261 -44.336 65.141 -42.208 Q63.021 -40.08 59.993 -40.08 Z"/></g><g id="Regular-M" transform="matrix(1 0 0 1 1394.06 1126)"><path d="M25 -5.98 Q31.75 -12.605 40.688 -16.417 Q49.625 -20.23 60 -20.23 Q70.375 -20.23 79.312 -16.417 Q88.25 -12.605 95 -5.98 V-70.23 Q95 -70.23 95 -70.23 Q95 -70.23 95 -70.23 H25 Q25 -70.23 25 -70.23 Q25 -70.23 25 -70.23 V-5.98 Z M60 -30.23 Q67.25 -30.23 72.375 -35.355 Q77.5 -40.48 77.5 -47.73 Q77.5 -54.98 72.375 -60.105 Q67.25 -65.23 60 -65.23 Q52.75 -65.23 47.625 -60.105 Q42.5 -54.98 42.5 -47.73 Q42.5 -40.48 47.625 -35.355 Q52.75 -30.23 60 -30.23 Z M25 9.77 Q20.875 9.77 17.938 6.833 Q15 3.895 15 -0.23 V-70.23 Q15 -74.355 17.938 -77.292 Q20.875 -80.23 25 -80.23 H95 Q99.125 -80.23 102.062 -77.292 Q105 -74.355 105 -70.23 V-0.23 Q105 3.895 102.062 6.833 Q99.125 9.77 95 9.77 H25 Z M35 -0.23 H85 Q85 -0.605 85 -0.855 Q85 -1.105 85 -1.48 Q79.75 -5.855 73.375 -8.042 Q67 -10.23 60 -10.23 Q53 -10.23 46.625 -8.042 Q40.25 -5.855 35 -1.48 Q35 -1.105 35 -0.855 Q35 -0.605 35 -0.23 Z M60 -40.23 Q56.875 -40.23 54.688 -42.417 Q52.5 -44.605 52.5 -47.73 Q52.5 -50.855 54.688 -53.042 Q56.875 -55.23 60 -55.23 Q63.125 -55.23 65.312 -53.042 Q67.5 -50.855 67.5 -47.73 Q67.5 -44.605 65.312 -42.417 Q63.125 -40.23 60 -40.23 Z"/></g><g id="Light-M" transform="matrix(1 0 0 1 1098.18 1126)"><path d="M25 -5.018 Q31.75 -11.643 40.688 -15.456 Q49.625 -19.268 60 -19.268 Q70.375 -19.268 79.312 -15.456 Q88.25 -11.643 95 -5.018 V-68.691 Q95 -69.268 94.519 -69.749 Q94.038 -70.23 93.461 -70.23 H26.539 Q25.962 -70.23 25.481 -69.749 Q25 -69.268 25 -68.691 V-5.018 Z M60 -30.038 Q66.769 -30.038 71.51 -34.778 Q76.25 -39.518 76.25 -46.288 Q76.25 -53.057 71.51 -57.797 Q66.769 -62.537 60 -62.537 Q53.231 -62.537 48.49 -57.797 Q43.75 -53.057 43.75 -46.288 Q43.75 -39.518 48.49 -34.778 Q53.231 -30.038 60 -30.038 Z M26.539 7.27 Q22.75 7.27 20.125 4.645 Q17.5 2.02 17.5 -1.769 V-68.691 Q17.5 -72.48 20.125 -75.105 Q22.75 -77.73 26.539 -77.73 H93.461 Q97.25 -77.73 99.875 -75.105 Q102.5 -72.48 102.5 -68.691 V-1.769 Q102.5 2.02 99.875 4.645 Q97.25 7.27 93.461 7.27 H26.539 Z M32.211 -0.23 H87.789 Q87.789 -0.557 87.789 -0.759 Q87.789 -0.961 87.789 -1.288 Q81.865 -6.576 74.793 -9.172 Q67.721 -11.769 60 -11.769 Q52.375 -11.769 45.279 -9.196 Q38.182 -6.624 32.211 -1.384 Q32.211 -1.057 32.211 -0.807 Q32.211 -0.557 32.211 -0.23 Z M60 -37.537 Q56.394 -37.537 53.822 -40.11 Q51.25 -42.682 51.25 -46.288 Q51.25 -49.893 53.822 -52.465 Q56.394 -55.038 60 -55.038 Q63.606 -55.038 66.178 -52.465 Q68.75 -49.893 68.75 -46.288 Q68.75 -42.682 66.178 -40.11 Q63.606 -37.537 60 -37.537 Z"/></g><g id="Thin-M" transform="matrix(1 0 0 1 802.565 1126)"><path d="M25 -4.057 Q31.75 -10.682 40.688 -14.494 Q49.625 -18.307 60 -18.307 Q70.375 -18.307 79.312 -14.494 Q88.25 -10.682 95 -4.057 V-67.153 Q95 -68.307 94.038 -69.268 Q93.077 -70.23 91.923 -70.23 H28.077 Q26.923 -70.23 25.962 -69.268 Q25 -68.307 25 -67.153 V-4.057 Z M60 -29.845 Q66.288 -29.845 70.644 -34.201 Q75 -38.557 75 -44.845 Q75 -51.134 70.644 -55.49 Q66.288 -59.845 60 -59.845 Q53.712 -59.845 49.356 -55.49 Q45 -51.134 45 -44.845 Q45 -38.557 49.356 -34.201 Q53.712 -29.845 60 -29.845 Z M28.077 4.77 Q24.625 4.77 22.312 2.458 Q20 0.145 20 -3.307 V-67.153 Q20 -70.605 22.312 -72.917 Q24.625 -75.23 28.077 -75.23 H91.923 Q95.375 -75.23 97.688 -72.917 Q100 -70.605 100 -67.153 V-3.307 Q100 0.145 97.688 2.458 Q95.375 4.77 91.923 4.77 H28.077 Z M29.423 -0.23 H90.577 Q90.577 -0.509 90.577 -0.663 Q90.577 -0.816 90.577 -1.095 Q83.981 -7.297 76.212 -10.302 Q68.442 -13.307 60 -13.307 Q51.75 -13.307 43.933 -10.35 Q36.115 -7.393 29.423 -1.288 Q29.423 -1.009 29.423 -0.759 Q29.423 -0.509 29.423 -0.23 Z M60 -34.845 Q55.913 -34.845 52.957 -37.802 Q50 -40.759 50 -44.845 Q50 -48.932 52.957 -51.889 Q55.913 -54.845 60 -54.845 Q64.087 -54.845 67.043 -51.889 Q70 -48.932 70 -44.845 Q70 -40.759 67.043 -37.802 Q64.087 -34.845 60 -34.845 Z"/></g><g id="Ultralight-M" transform="matrix(1 0 0 1 506.415 1126)"><path d="M25 -3.48 Q31.75 -10.105 40.688 -13.917 Q49.625 -17.73 60 -17.73 Q70.375 -17.73 79.312 -13.917 Q88.25 -10.105 95 -3.48 V-66.23 Q95 -67.73 93.75 -68.98 Q92.5 -70.23 91 -70.23 H29 Q27.5 -70.23 26.25 -68.98 Q25 -67.73 25 -66.23 V-3.48 Z M60 -29.73 Q66 -29.73 70.125 -33.855 Q74.25 -37.98 74.25 -43.98 Q74.25 -49.98 70.125 -54.105 Q66 -58.23 60 -58.23 Q54 -58.23 49.875 -54.105 Q45.75 -49.98 45.75 -43.98 Q45.75 -37.98 49.875 -33.855 Q54 -29.73 60 -29.73 Z M29 3.27 Q25.75 3.27 23.625 1.145 Q21.5 -0.98 21.5 -4.23 V-66.23 Q21.5 -69.48 23.625 -71.605 Q25.75 -73.73 29 -73.73 H91 Q94.25 -73.73 96.375 -71.605 Q98.5 -69.48 98.5 -66.23 V-4.23 Q98.5 -0.98 96.375 1.145 Q94.25 3.27 91 3.27 H29 Z M27.75 -0.23 H92.25 Q92.25 -0.48 92.25 -0.605 Q92.25 -0.73 92.25 -0.98 Q85.25 -7.73 77.062 -10.98 Q68.875 -14.23 60 -14.23 Q51.375 -14.23 43.125 -11.042 Q34.875 -7.855 27.75 -1.23 Q27.75 -0.98 27.75 -0.73 Q27.75 -0.48 27.75 -0.23 Z M60 -33.23 Q55.625 -33.23 52.438 -36.417 Q49.25 -39.605 49.25 -43.98 Q49.25 -48.355 52.438 -51.542 Q55.625 -54.73 60 -54.73 Q64.375 -54.73 67.562 -51.542 Q70.75 -48.355 70.75 -43.98 Q70.75 -39.605 67.562 -36.417 Q64.375 -33.23 60 -33.23 Z"/></g><g id="Bold-S" transform="matrix(1 0 0 1 2294.23 696)"><path d="M22.486 -17.576 Q28.01 -21.62 34.124 -23.395 Q40.239 -25.17 47.34 -25.17 Q54.441 -25.17 60.556 -23.543 Q66.671 -21.916 72.194 -17.773 V-60.083 Q72.194 -60.083 72.194 -60.083 Q72.194 -60.083 72.194 -60.083 H22.486 Q22.486 -60.083 22.486 -60.083 Q22.486 -60.083 22.486 -60.083 V-17.576 Z M47.364 -26.156 Q53.652 -26.156 57.992 -30.52 Q62.331 -34.883 62.331 -41.171 Q62.331 -47.459 57.968 -51.75 Q53.604 -56.04 47.316 -56.04 Q41.028 -56.04 36.689 -51.726 Q32.349 -47.412 32.349 -41.124 Q32.349 -34.835 36.712 -30.496 Q41.076 -26.156 47.364 -26.156 Z M22.486 1.261 Q17.585 1.261 14.217 -2.107 Q10.849 -5.475 10.849 -10.376 V-60.083 Q10.849 -64.985 14.217 -68.353 Q17.585 -71.721 22.486 -71.721 H72.194 Q77.095 -71.721 80.463 -68.353 Q83.831 -64.985 83.831 -60.083 V-10.376 Q83.831 -5.475 80.463 -2.107 Q77.095 1.261 72.194 1.261 H22.486 Z M26.136 -10.376 H68.544 Q68.544 -10.169 68.544 -10.031 Q68.544 -9.893 68.544 -9.686 Q64.008 -13.138 58.583 -14.864 Q53.159 -16.59 47.34 -16.59 Q41.521 -16.59 36.146 -14.864 Q30.771 -13.138 26.136 -9.686 Q26.136 -9.893 26.136 -10.031 Q26.136 -10.169 26.136 -10.376 Z M47.317 -34.737 Q44.677 -34.737 42.853 -36.605 Q41.028 -38.473 41.028 -41.142 Q41.028 -43.81 42.876 -45.635 Q44.724 -47.459 47.363 -47.459 Q50.003 -47.459 51.827 -45.612 Q53.652 -43.764 53.652 -41.124 Q53.652 -38.485 51.804 -36.611 Q49.956 -34.737 47.317 -34.737 Z"/></g><g id="Semibold-S" transform="matrix(1 0 0 1 1998.1 696)"><path d="M21.972 -16.204 Q27.495 -20.462 33.867 -22.43 Q40.239 -24.398 47.34 -24.398 Q54.441 -24.398 60.813 -22.535 Q67.185 -20.672 72.708 -16.316 V-60.598 Q72.708 -60.598 72.708 -60.598 Q72.708 -60.598 72.708 -60.598 H21.972 Q21.972 -60.598 21.972 -60.598 Q21.972 -60.598 21.972 -60.598 V-16.204 Z M47.364 -27.014 Q53.48 -27.014 57.734 -31.292 Q61.988 -35.569 61.988 -41.686 Q61.988 -47.803 57.71 -52.028 Q53.433 -56.254 47.316 -56.254 Q41.2 -56.254 36.946 -52.004 Q32.692 -47.755 32.692 -41.638 Q32.692 -35.522 36.97 -31.268 Q41.247 -27.014 47.364 -27.014 Z M21.972 -0.197 Q17.928 -0.197 15.117 -3.007 Q12.307 -5.818 12.307 -9.862 V-60.598 Q12.307 -64.642 15.117 -67.453 Q17.928 -70.263 21.972 -70.263 H72.708 Q76.752 -70.263 79.563 -67.453 Q82.373 -64.642 82.373 -60.598 V-9.862 Q82.373 -5.818 79.563 -3.007 Q76.752 -0.197 72.708 -0.197 H21.972 Z M26.136 -9.862 H68.544 Q68.544 -9.745 68.544 -9.667 Q68.544 -9.589 68.544 -9.472 Q64.008 -12.924 58.583 -14.692 Q53.159 -16.461 47.34 -16.461 Q41.521 -16.461 36.146 -14.692 Q30.771 -12.924 26.136 -9.472 Q26.136 -9.589 26.136 -9.667 Q26.136 -9.745 26.136 -9.862 Z M47.327 -34.951 Q44.549 -34.951 42.617 -36.908 Q40.685 -38.864 40.685 -41.659 Q40.685 -44.454 42.63 -46.385 Q44.575 -48.317 47.353 -48.317 Q50.131 -48.317 52.063 -46.372 Q53.995 -44.427 53.995 -41.649 Q53.995 -38.871 52.05 -36.911 Q50.105 -34.951 47.327 -34.951 Z"/></g><g id="Medium-S" transform="matrix(1 0 0 1 1701.85 696)"><path d="M21.586 -15.175 Q27.109 -19.594 33.674 -21.707 Q40.239 -23.819 47.34 -23.819 Q54.441 -23.819 61.006 -21.78 Q67.571 -19.739 73.094 -15.222 V-60.984 Q73.094 -60.984 73.094 -60.984 Q73.094 -60.984 73.094 -60.984 H21.586 Q21.586 -60.984 21.586 -60.984 Q21.586 -60.984 21.586 -60.984 V-15.175 Z M47.364 -27.657 Q53.352 -27.657 57.541 -31.871 Q61.731 -36.084 61.731 -42.072 Q61.731 -48.06 57.517 -52.237 Q53.304 -56.415 47.316 -56.415 Q41.328 -56.415 37.139 -52.214 Q32.949 -48.012 32.949 -42.024 Q32.949 -36.036 37.163 -31.847 Q41.376 -27.657 47.364 -27.657 Z M21.586 -1.29 Q18.185 -1.29 15.793 -3.683 Q13.4 -6.075 13.4 -9.476 V-60.984 Q13.4 -64.385 15.793 -66.777 Q18.185 -69.17 21.586 -69.17 H73.094 Q76.495 -69.17 78.887 -66.777 Q81.28 -64.385 81.28 -60.984 V-9.476 Q81.28 -6.075 78.887 -3.683 Q76.495 -1.29 73.094 -1.29 H21.586 Z M26.136 -9.476 H68.544 Q68.544 -9.426 68.544 -9.394 Q68.544 -9.36 68.544 -9.311 Q64.008 -12.763 58.583 -14.564 Q53.159 -16.365 47.34 -16.365 Q41.521 -16.365 36.146 -14.564 Q30.771 -12.763 26.136 -9.311 Q26.136 -9.36 26.136 -9.394 Q26.136 -9.426 26.136 -9.476 Z M47.334 -35.112 Q44.452 -35.112 42.44 -37.135 Q40.428 -39.157 40.428 -42.047 Q40.428 -44.936 42.445 -46.948 Q44.463 -48.96 47.346 -48.96 Q50.228 -48.96 52.24 -46.943 Q54.252 -44.925 54.252 -42.042 Q54.252 -39.16 52.235 -37.136 Q50.217 -35.112 47.334 -35.112 Z"/></g><g id="Regular-S" transform="matrix(1 0 0 1 1405.73 696)"><path d="M21.303 -14.42 Q26.826 -18.957 33.532 -21.176 Q40.239 -23.395 47.34 -23.395 Q54.441 -23.395 61.148 -21.225 Q67.854 -19.055 73.377 -14.42 V-61.267 Q73.377 -61.267 73.377 -61.267 Q73.377 -61.267 73.377 -61.267 H21.303 Q21.303 -61.267 21.303 -61.267 Q21.303 -61.267 21.303 -61.267 V-14.42 Z M47.364 -28.129 Q53.258 -28.129 57.4 -32.295 Q61.542 -36.461 61.542 -42.355 Q61.542 -48.248 57.376 -52.391 Q53.21 -56.533 47.316 -56.533 Q41.422 -56.533 37.28 -52.367 Q33.138 -48.201 33.138 -42.307 Q33.138 -36.413 37.304 -32.271 Q41.47 -28.129 47.364 -28.129 Z M21.303 -2.092 Q18.374 -2.092 16.288 -4.178 Q14.202 -6.264 14.202 -9.193 V-61.267 Q14.202 -64.196 16.288 -66.282 Q18.374 -68.368 21.303 -68.368 H73.377 Q76.306 -68.368 78.392 -66.282 Q80.478 -64.196 80.478 -61.267 V-9.193 Q80.478 -6.264 78.392 -4.178 Q76.306 -2.092 73.377 -2.092 H21.303 Z M26.136 -9.193 H68.544 Q68.544 -9.193 68.544 -9.193 Q68.544 -9.193 68.544 -9.193 Q64.008 -12.645 58.583 -14.469 Q53.159 -16.294 47.34 -16.294 Q41.521 -16.294 36.146 -14.469 Q30.771 -12.645 26.136 -9.193 Q26.136 -9.193 26.136 -9.193 Q26.136 -9.193 26.136 -9.193 Z M47.34 -35.23 Q44.381 -35.23 42.31 -37.301 Q40.239 -39.372 40.239 -42.331 Q40.239 -45.29 42.31 -47.361 Q44.381 -49.432 47.34 -49.432 Q50.299 -49.432 52.37 -47.361 Q54.441 -45.29 54.441 -42.331 Q54.441 -39.372 52.37 -37.301 Q50.299 -35.23 47.34 -35.23 Z"/></g><g id="Light-S" transform="matrix(1 0 0 1 1109.75 696)"><path d="M21.303 -13.661 Q26.826 -18.198 33.532 -20.417 Q40.239 -22.636 47.34 -22.636 Q54.441 -22.636 61.148 -20.467 Q67.854 -18.297 73.377 -13.661 V-60.053 Q73.377 -60.508 72.998 -60.888 Q72.618 -61.267 72.163 -61.267 H22.517 Q22.062 -61.267 21.682 -60.888 Q21.303 -60.508 21.303 -60.053 V-13.661 Z M47.364 -27.977 Q52.878 -27.977 56.717 -31.84 Q60.556 -35.703 60.556 -41.217 Q60.556 -46.731 56.693 -50.57 Q52.83 -54.409 47.316 -54.409 Q41.802 -54.409 37.963 -50.546 Q34.124 -46.683 34.124 -41.169 Q34.124 -35.655 37.987 -31.816 Q41.85 -27.977 47.364 -27.977 Z M22.517 -4.065 Q19.853 -4.065 18.014 -5.904 Q16.175 -7.743 16.175 -10.407 V-60.053 Q16.175 -62.717 18.014 -64.556 Q19.853 -66.395 22.517 -66.395 H72.163 Q74.827 -66.395 76.666 -64.556 Q78.505 -62.717 78.505 -60.053 V-10.407 Q78.505 -7.743 76.666 -5.904 Q74.827 -4.065 72.163 -4.065 H22.517 Z M23.935 -9.193 H70.745 Q70.745 -9.155 70.745 -9.117 Q70.745 -9.079 70.745 -9.041 Q65.677 -13.214 59.702 -15.361 Q53.728 -17.508 47.34 -17.508 Q41.028 -17.508 35.084 -15.38 Q29.14 -13.252 23.935 -9.117 Q23.935 -9.155 23.935 -9.155 Q23.935 -9.155 23.935 -9.193 Z M47.34 -33.106 Q44.002 -33.106 41.627 -35.48 Q39.253 -37.855 39.253 -41.193 Q39.253 -44.531 41.627 -46.906 Q44.002 -49.28 47.34 -49.28 Q50.678 -49.28 53.053 -46.906 Q55.427 -44.531 55.427 -41.193 Q55.427 -37.855 53.053 -35.48 Q50.678 -33.106 47.34 -33.106 Z"/></g><g id="Thin-S" transform="matrix(1 0 0 1 814.015 696)"><path d="M21.303 -12.903 Q26.826 -17.44 33.532 -19.659 Q40.239 -21.878 47.34 -21.878 Q54.441 -21.878 61.148 -19.708 Q67.854 -17.538 73.377 -12.903 V-58.839 Q73.377 -59.75 72.618 -60.508 Q71.86 -61.267 70.949 -61.267 H23.731 Q22.82 -61.267 22.062 -60.508 Q21.303 -59.75 21.303 -58.839 V-12.903 Z M47.364 -27.826 Q52.499 -27.826 56.034 -31.385 Q59.57 -34.944 59.57 -40.079 Q59.57 -45.214 56.01 -48.749 Q52.451 -52.285 47.316 -52.285 Q42.181 -52.285 38.646 -48.725 Q35.111 -45.166 35.111 -40.031 Q35.111 -34.896 38.67 -31.361 Q42.229 -27.826 47.364 -27.826 Z M23.731 -6.037 Q21.333 -6.037 19.74 -7.63 Q18.147 -9.223 18.147 -11.621 V-58.839 Q18.147 -61.237 19.74 -62.83 Q21.333 -64.423 23.731 -64.423 H70.949 Q73.347 -64.423 74.94 -62.83 Q76.533 -61.237 76.533 -58.839 V-11.621 Q76.533 -9.223 74.94 -7.63 Q73.347 -6.037 70.949 -6.037 H23.731 Z M21.735 -9.193 H72.945 Q72.945 -9.117 72.945 -9.041 Q72.945 -8.965 72.945 -8.89 Q67.346 -13.783 60.821 -16.252 Q54.297 -18.722 47.34 -18.722 Q40.535 -18.722 34.022 -16.29 Q27.509 -13.859 21.735 -9.041 Q21.735 -9.117 21.735 -9.117 Q21.735 -9.117 21.735 -9.193 Z M47.34 -30.982 Q43.623 -30.982 40.945 -33.66 Q38.267 -36.338 38.267 -40.055 Q38.267 -43.772 40.945 -46.45 Q43.623 -49.129 47.34 -49.129 Q51.057 -49.129 53.735 -46.45 Q56.413 -43.772 56.413 -40.055 Q56.413 -36.338 53.735 -33.66 Q51.057 -30.982 47.34 -30.982 Z"/></g><g id="Ultralight-S" transform="matrix(1 0 0 1 517.792 696)"><path d="M21.303 -12.448 Q26.826 -16.984 33.532 -19.203 Q40.239 -21.422 47.34 -21.422 Q54.441 -21.422 61.148 -19.253 Q67.854 -17.083 73.377 -12.448 V-58.111 Q73.377 -59.294 72.391 -60.281 Q71.404 -61.267 70.221 -61.267 H24.459 Q23.276 -61.267 22.289 -60.281 Q21.303 -59.294 21.303 -58.111 V-12.448 Z M47.364 -27.734 Q52.271 -27.734 55.625 -31.112 Q58.978 -34.489 58.978 -39.396 Q58.978 -44.303 55.601 -47.657 Q52.223 -51.01 47.316 -51.01 Q42.409 -51.01 39.056 -47.633 Q35.702 -44.256 35.702 -39.348 Q35.702 -34.441 39.079 -31.088 Q42.457 -27.734 47.364 -27.734 Z M24.459 -7.22 Q22.22 -7.22 20.775 -8.665 Q19.331 -10.11 19.331 -12.349 V-58.111 Q19.331 -60.35 20.775 -61.795 Q22.22 -63.239 24.459 -63.239 H70.221 Q72.46 -63.239 73.905 -61.795 Q75.35 -60.35 75.35 -58.111 V-12.349 Q75.35 -10.11 73.905 -8.665 Q72.46 -7.22 70.221 -7.22 H24.459 Z M20.415 -9.193 H74.265 Q74.265 -9.094 74.265 -8.996 Q74.265 -8.897 74.265 -8.798 Q68.347 -14.124 61.493 -16.787 Q54.638 -19.45 47.34 -19.45 Q40.239 -19.45 33.385 -16.836 Q26.53 -14.223 20.415 -8.996 Q20.415 -9.094 20.415 -9.094 Q20.415 -9.094 20.415 -9.193 Z M47.34 -29.707 Q43.395 -29.707 40.535 -32.567 Q37.675 -35.427 37.675 -39.372 Q37.675 -43.317 40.535 -46.177 Q43.395 -49.037 47.34 -49.037 Q51.285 -49.037 54.145 -46.177 Q57.005 -43.317 57.005 -39.372 Q57.005 -35.427 54.145 -32.567 Q51.285 -29.707 47.34 -29.707 Z"/></g></g></svg>