<svg xmlns="http://www.w3.org/2000/svg" version="1.1" width="3300" height="2000"><g id="Notes"><style>
    text {
      font-family: monospace;
      text-anchor: middle;
    }
    text.emphasis {
      font-weight:bold;
    }
    text.lanchor {
      text-anchor: start;
    }
  </style><rect height="2200" id="artboard" fill="white" width="3300" x="0" y="0"/><line id="" style="fill:none;stroke:black;stroke-width:0.5;" x1="263" x2="3036" y1="292" y2="292"/><text class="lanchor emphasis" transform="matrix(1 0 0 1 263 322)">Weight/Scale Variations</text><text transform="matrix(1 0 0 1 559.711 322)">Ultralight</text><text transform="matrix(1 0 0 1 856.422 322)">Thin</text><text transform="matrix(1 0 0 1 1153.13 322)">Light</text><text transform="matrix(1 0 0 1 1449.84 322)">Regular</text><text transform="matrix(1 0 0 1 1746.56 322)">Medium</text><text transform="matrix(1 0 0 1 2043.27 322)">Semibold</text><text transform="matrix(1 0 0 1 2339.98 322)">Bold</text><text transform="matrix(1 0 0 1 2636.69 322)">Heavy</text><text transform="matrix(1 0 0 1 2933.4 322)">Black</text><text id="template-version" style="text-anchor: end;" transform="matrix(1 0 0 1 3036 1933)">Template v.1.0</text><text class="lanchor" transform="matrix(1 0 0 1 263 726)">Small</text><text class="lanchor" transform="matrix(1 0 0 1 263 1156)">Medium</text><text class="lanchor" transform="matrix(1 0 0 1 263 1586)">Large</text></g><g id="Guides"><g id="H-reference" style="fill:#27AAE1;stroke:none;" transform="matrix(1 0 0 1 339 696)"><path d="M 54.9316 0 L 57.666 0 L 30.5664 -70.459 L 28.0762 -70.459 L 0.976562 0 L 3.66211 0 L 12.9395 -24.4629 L 45.7031 -24.4629 Z M 29.1992 -67.0898 L 29.4434 -67.0898 L 44.8242 -26.709 L 13.8184 -26.709 Z"/></g><line id="Baseline-S" style="fill:none;stroke:#27AAE1;opacity:1;stroke-width:0.577;" x1="263" x2="3036" y1="696" y2="696"/><line id="Capline-S" style="fill:none;stroke:#27AAE1;opacity:1;stroke-width:0.577;" x1="263" x2="3036" y1="625.541" y2="625.541"/><g id="H-reference" style="fill:#27AAE1;stroke:none;" transform="matrix(1 0 0 1 339 1126)"><path d="M 54.9316 0 L 57.666 0 L 30.5664 -70.459 L 28.0762 -70.459 L 0.976562 0 L 3.66211 0 L 12.9395 -24.4629 L 45.7031 -24.4629 Z M 29.1992 -67.0898 L 29.4434 -67.0898 L 44.8242 -26.709 L 13.8184 -26.709 Z"/></g><line id="Baseline-M" style="fill:none;stroke:#27AAE1;opacity:1;stroke-width:0.577;" x1="263" x2="3036" y1="1126" y2="1126"/><line id="Capline-M" style="fill:none;stroke:#27AAE1;opacity:1;stroke-width:0.577;" x1="263" x2="3036" y1="1055.54" y2="1055.54"/><g id="H-reference" style="fill:#27AAE1;stroke:none;" transform="matrix(1 0 0 1 339 1556)"><path d="M 54.9316 0 L 57.666 0 L 30.5664 -70.459 L 28.0762 -70.459 L 0.976562 0 L 3.66211 0 L 12.9395 -24.4629 L 45.7031 -24.4629 Z M 29.1992 -67.0898 L 29.4434 -67.0898 L 44.8242 -26.709 L 13.8184 -26.709 Z"/></g><line id="Baseline-L" style="fill:none;stroke:#27AAE1;opacity:1;stroke-width:0.577;" x1="263" x2="3036" y1="1556" y2="1556"/><line id="Capline-L" style="fill:none;stroke:#27AAE1;opacity:1;stroke-width:0.577;" x1="263" x2="3036" y1="1485.54" y2="1485.54"/><rect height="119.336" id="left-margin" style="fill:darkred;stroke:none;opacity:0.4;" width="12.4512" x="1394.06" y="1030.79"/><rect height="119.336" id="right-margin" style="fill:darkgreen;stroke:none;opacity:0.4;" width="12.4512" x="1502.5112" y="1030.79"/><rect x="1406.5112" y="1045" width="96" height="96" fill="none" stroke="blue" stroke-dasharray="5"/><rect x="1394.06" y="1030.79" width="120.9024" height="119.336" fill="none" stroke="blue"/></g><g id="Symbols"><g id="Bold-L" transform="matrix(1 0 0 1 2266 1556)"><path d="M123.195 26.851  112.391 16.209  121.583 7.018 H93.525 V-8.301 H121.583 L112.391 -17.331 L123.195 -28.135 L150.769 -0.561 L123.195 26.851 Z M64.5 -18.782 Q72.788 -18.782 79.448 -22.652 Q86.108 -26.522 90.139 -32.972 Q84.656 -37.004 78.172 -39.181 Q71.687 -41.357 64.465 -41.357 Q57.244 -41.357 50.794 -39.181 Q44.344 -37.004 38.861 -32.972 Q42.892 -26.522 49.552 -22.652 Q56.212 -18.782 64.5 -18.782 Z M64.514 -51.032 Q69.176 -51.032 72.482 -54.352 Q75.788 -57.672 75.788 -62.334 Q75.788 -66.996 72.468 -70.302 Q69.148 -73.607 64.486 -73.607 Q59.824 -73.607 56.518 -70.288 Q53.212 -66.968 53.212 -62.306 Q53.212 -57.644 56.532 -54.338 Q59.852 -51.032 64.514 -51.032 Z M64.5 33.301 Q36.604 10.081 22.736 -9.188 Q8.869 -28.457 8.869 -47.324 Q8.869 -73.078 25.645 -88.501 Q42.421 -103.922 64.5 -103.922 Q86.51 -103.922 103.401 -88.501 Q120.293 -73.078 120.293 -47.324 Q120.293 -45.521 120.078 -43.701 Q119.862 -41.88 119.373 -39.906 Q119.373 -39.906 116.939 -39.906 Q114.505 -39.906 111.504 -39.906 Q108.503 -39.906 106.093 -39.906 Q103.684 -39.906 103.684 -39.906 Q104.329 -41.841 104.651 -43.701 Q104.974 -45.561 104.974 -47.324 Q104.974 -65.467 93.26 -77.035 Q81.547 -88.604 64.524 -88.604 Q47.502 -88.604 35.764 -77.035 Q24.026 -65.467 24.026 -47.324 Q24.026 -33.94 34.185 -19.669 Q44.344 -5.399 64.5 13.306 Q67.218 10.726 69.648 8.388 Q72.079 6.05 74.498 3.793 Q74.498 3.793 76.259 5.479 Q78.02 7.166 80.129 9.108 Q82.237 11.049 83.931 12.742 Q85.624 14.435 85.624 14.435 Q80.786 18.95 75.655 23.712 Q70.523 28.474 64.5 33.301 Z"/></g><g id="Semibold-L" transform="matrix(1 0 0 1 1970.27 1556)"><path d="M122.284 25.099  113.232 16.139  123.545 5.756 H93.315 V-7.109 H123.545 L113.232 -17.401 L122.284 -26.453 L148.105 -0.631 L122.284 25.099 Z M64.5 -18.222 Q72.788 -18.222 79.448 -22.092 Q86.108 -25.962 90.139 -32.412 Q84.656 -36.513 78.172 -38.655 Q71.687 -40.797 64.465 -40.797 Q57.244 -40.797 50.794 -38.655 Q44.344 -36.513 38.861 -32.412 Q42.892 -25.962 49.552 -22.092 Q56.212 -18.222 64.5 -18.222 Z M64.514 -50.472 Q69.176 -50.472 72.482 -53.791 Q75.788 -57.111 75.788 -61.773 Q75.788 -66.435 72.468 -69.741 Q69.148 -73.047 64.486 -73.047 Q59.824 -73.047 56.518 -69.727 Q53.212 -66.407 53.212 -61.745 Q53.212 -57.083 56.532 -53.777 Q59.852 -50.472 64.514 -50.472 Z M64.5 31.549 Q37.445 8.819 24.033 -10.31 Q10.621 -29.439 10.621 -47.113 Q10.621 -72.187 26.869 -87.143 Q43.117 -102.1 64.5 -102.1 Q85.844 -102.1 102.157 -87.143 Q118.47 -72.187 118.47 -47.113 Q118.47 -44.973 118.255 -42.796 Q118.04 -40.618 117.389 -38.294 Q117.389 -38.294 115.312 -38.294 Q113.236 -38.294 110.733 -38.294 Q108.231 -38.294 106.167 -38.294 Q104.104 -38.294 104.104 -38.294 Q104.819 -40.579 105.212 -42.796 Q105.605 -45.013 105.605 -47.113 Q105.605 -65.626 93.705 -77.431 Q81.806 -89.235 64.514 -89.235 Q47.221 -89.235 35.308 -77.431 Q23.395 -65.626 23.395 -47.113 Q23.395 -34.291 33.694 -19.319 Q43.993 -4.347 64.5 14.708 Q67.649 11.848 70.389 9.124 Q73.13 6.401 75.829 3.793 Q75.829 3.793 77.31 5.199 Q78.791 6.606 80.55 8.231 Q82.308 9.857 83.755 11.27 Q85.203 12.682 85.203 12.682 Q80.506 17.268 75.445 21.994 Q70.383 26.721 64.5 31.549 Z"/></g><g id="Medium-L" transform="matrix(1 0 0 1 1674.31 1556)"><path d="M121.6 23.784  113.863 16.086  125.018 4.809 H93.157 V-6.215 H125.018 L113.863 -17.454 L121.6 -25.19 L146.107 -0.684 L121.6 23.784 Z M64.5 -17.801 Q72.788 -17.801 79.448 -21.671 Q86.108 -25.541 90.139 -31.991 Q84.656 -36.145 78.172 -38.261 Q71.687 -40.376 64.465 -40.376 Q57.244 -40.376 50.794 -38.261 Q44.344 -36.145 38.861 -31.991 Q42.892 -25.541 49.552 -21.671 Q56.212 -17.801 64.5 -17.801 Z M64.514 -50.051 Q69.176 -50.051 72.482 -53.371 Q75.788 -56.691 75.788 -61.353 Q75.788 -66.015 72.468 -69.32 Q69.148 -72.626 64.486 -72.626 Q59.824 -72.626 56.518 -69.306 Q53.212 -65.986 53.212 -61.324 Q53.212 -56.662 56.532 -53.357 Q59.852 -50.051 64.514 -50.051 Z M64.5 30.234 Q38.076 7.873 25.006 -11.151 Q11.936 -30.175 11.936 -46.956 Q11.936 -71.518 27.787 -86.125 Q43.639 -100.733 64.5 -100.733 Q85.345 -100.733 101.224 -86.125 Q117.103 -71.518 117.103 -46.956 Q117.103 -44.562 116.888 -42.117 Q116.673 -39.672 115.901 -37.084 Q115.901 -37.084 114.092 -37.084 Q112.283 -37.084 110.155 -37.084 Q108.026 -37.084 106.223 -37.084 Q104.42 -37.084 104.42 -37.084 Q105.188 -39.633 105.633 -42.117 Q106.078 -44.602 106.078 -46.956 Q106.078 -65.746 94.039 -77.727 Q82.001 -89.708 64.506 -89.708 Q47.011 -89.708 34.966 -77.727 Q22.922 -65.746 22.922 -46.956 Q22.922 -34.553 33.326 -19.056 Q43.73 -3.558 64.5 15.76 Q67.972 12.689 70.945 9.676 Q73.919 6.663 76.829 3.793 Q76.829 3.793 78.099 4.989 Q79.37 6.185 80.865 7.574 Q82.36 8.963 83.624 10.165 Q84.888 11.368 84.888 11.368 Q80.296 16.005 75.287 20.706 Q70.278 25.406 64.5 30.234 Z"/></g><g id="Regular-L" transform="matrix(1 0 0 1 1378.56 1556)"><path d="M121.099 22.82  114.326 16.048  126.097 4.115 H93.041 V-5.56 H126.097 L114.326 -17.492 L121.099 -24.265 L144.641 -0.722 L121.099 22.82 Z M64.5 -17.492 Q72.788 -17.492 79.448 -21.362 Q86.108 -25.232 90.139 -31.682 Q84.656 -35.875 78.172 -37.971 Q71.687 -40.067 64.465 -40.067 Q57.244 -40.067 50.794 -37.971 Q44.344 -35.875 38.861 -31.682 Q42.892 -25.232 49.552 -21.362 Q56.212 -17.492 64.5 -17.492 Z M64.514 -49.742 Q69.176 -49.742 72.482 -53.062 Q75.788 -56.382 75.788 -61.044 Q75.788 -65.706 72.468 -69.012 Q69.148 -72.317 64.486 -72.317 Q59.824 -72.317 56.518 -68.998 Q53.212 -65.678 53.212 -61.016 Q53.212 -56.354 56.532 -53.048 Q59.852 -49.742 64.514 -49.742 Z M64.5 29.27 Q38.539 7.179 25.719 -11.768 Q12.9 -30.715 12.9 -46.84 Q12.9 -71.027 28.461 -85.379 Q44.021 -99.73 64.5 -99.73 Q84.979 -99.73 100.539 -85.379 Q116.1 -71.027 116.1 -46.84 Q116.1 -44.26 115.885 -41.619 Q115.67 -38.978 114.81 -36.197 Q114.81 -36.197 113.198 -36.197 Q111.585 -36.197 109.731 -36.197 Q107.876 -36.197 106.264 -36.197 Q104.651 -36.197 104.651 -36.197 Q105.457 -38.939 105.941 -41.62 Q106.425 -44.3 106.425 -46.84 Q106.425 -65.834 94.284 -77.944 Q82.143 -90.055 64.5 -90.055 Q46.857 -90.055 34.716 -77.944 Q22.575 -65.834 22.575 -46.84 Q22.575 -34.746 33.056 -18.863 Q43.538 -2.98 64.5 16.531 Q68.209 13.306 71.353 10.081 Q74.498 6.856 77.561 3.793 Q77.561 3.793 78.678 4.834 Q79.794 5.876 81.096 7.092 Q82.399 8.308 83.528 9.356 Q84.656 10.404 84.656 10.404 Q80.141 15.08 75.171 19.761 Q70.201 24.442 64.5 29.27 Z"/></g><g id="Light-L" transform="matrix(1 0 0 1 1082.77 1556)"><path d="M120.541 19.595  115.443 14.497  128.392 1.386 H94.716 V-5.932 H128.392 L115.443 -19.043 L120.541 -24.141 L142.408 -2.273 L120.541 19.595 Z M64.807 -18.671 Q72.416 -18.671 78.641 -22.138 Q84.867 -25.605 88.836 -31.372 Q83.602 -35.131 77.557 -37.01 Q71.513 -38.889 64.781 -38.889 Q58.05 -38.889 52.034 -37.01 Q46.018 -35.131 40.784 -31.372 Q44.753 -25.605 50.976 -22.138 Q57.198 -18.671 64.807 -18.671 Z M64.855 -50.921 Q69.052 -50.921 71.986 -53.9 Q74.919 -56.878 74.919 -61.075 Q74.919 -65.272 71.968 -68.206 Q69.017 -71.139 64.796 -71.139 Q60.63 -71.139 57.666 -68.188 Q54.701 -65.237 54.701 -61.016 Q54.701 -56.85 57.68 -53.885 Q60.659 -50.921 64.855 -50.921 Z M64.81 26.107 Q40.461 5.008 28.293 -13.164 Q16.125 -31.335 16.125 -46.53 Q16.125 -68.857 30.569 -82.681 Q45.014 -96.505 64.81 -96.505 Q84.607 -96.505 99.051 -82.681 Q113.495 -68.857 113.495 -46.53 Q113.495 -44.32 113.352 -42.047 Q113.21 -39.773 112.515 -37.438 Q112.515 -37.438 111.262 -37.438 Q110.009 -37.438 108.6 -37.438 Q107.191 -37.438 105.983 -37.438 Q104.775 -37.438 104.775 -37.438 Q105.395 -39.745 105.786 -42.047 Q106.177 -44.349 106.177 -46.53 Q106.177 -65.204 94.315 -77.226 Q82.454 -89.249 64.81 -89.249 Q47.167 -89.249 35.305 -77.226 Q23.443 -65.204 23.443 -46.53 Q23.443 -34.312 34.204 -17.964 Q44.964 -1.616 64.81 16.407 Q68.705 13.058 72.097 9.616 Q75.49 6.174 78.678 2.862 Q78.74 2.862 79.577 3.625 Q80.414 4.388 81.412 5.293 Q82.41 6.199 83.254 6.968 Q84.098 7.737 84.098 7.737 Q79.799 12.294 75.031 16.818 Q70.263 21.341 64.81 26.107 Z"/></g><g id="Thin-L" transform="matrix(1 0 0 1 787.282 1556)"><path d="M119.982 16.37  116.559 12.947  130.687 -1.343 H96.39 V-6.304 H130.687 L116.559 -20.593 L119.982 -24.017 L140.176 -3.823 L119.982 16.37 Z M65.114 -19.849 Q72.044 -19.849 77.835 -22.913 Q83.627 -25.977 87.534 -31.062 Q82.548 -34.387 76.943 -36.049 Q71.339 -37.711 65.098 -37.711 Q58.856 -37.711 53.275 -36.049 Q47.693 -34.387 42.706 -31.062 Q46.614 -25.977 52.399 -22.913 Q58.184 -19.849 65.114 -19.849 Z M65.196 -52.099 Q68.928 -52.099 71.49 -54.737 Q74.051 -57.375 74.051 -61.106 Q74.051 -64.838 71.468 -67.399 Q68.886 -69.961 65.106 -69.961 Q61.436 -69.961 58.813 -67.378 Q56.189 -64.796 56.189 -61.016 Q56.189 -57.346 58.827 -54.723 Q61.465 -52.099 65.196 -52.099 Z M65.12 22.944 Q42.384 2.837 30.867 -14.559 Q19.35 -31.955 19.35 -46.22 Q19.35 -66.686 32.678 -79.983 Q46.006 -93.28 65.12 -93.28 Q84.235 -93.28 97.563 -79.983 Q110.89 -66.686 110.89 -46.22 Q110.89 -44.38 110.82 -42.474 Q110.75 -40.569 110.221 -38.678 Q110.221 -38.678 109.327 -38.678 Q108.433 -38.678 107.469 -38.678 Q106.506 -38.678 105.703 -38.678 Q104.899 -38.678 104.899 -38.678 Q105.333 -40.551 105.631 -42.474 Q105.929 -44.398 105.929 -46.22 Q105.929 -64.574 94.346 -76.508 Q82.764 -88.442 65.12 -88.442 Q47.477 -88.442 35.894 -76.508 Q24.312 -64.574 24.312 -46.22 Q24.312 -33.878 35.351 -17.065 Q46.39 -0.251 65.12 16.283 Q69.201 12.81 72.842 9.151 Q76.482 5.492 79.794 1.932 Q79.918 1.932 80.476 2.416 Q81.034 2.899 81.728 3.495 Q82.422 4.09 82.981 4.58 Q83.54 5.07 83.54 5.07 Q79.457 9.509 74.891 13.875 Q70.325 18.241 65.12 22.944 Z"/></g><g id="Ultralight-L" transform="matrix(1 0 0 1 491.205 1556)"><path d="M119.648 14.435  117.229 12.016  132.064 -2.98 H97.395 V-6.527 H132.064 L117.229 -21.524 L119.648 -23.942 L138.836 -4.754 L119.648 14.435 Z M65.298 -20.556 Q71.82 -20.556 77.351 -23.378 Q82.883 -26.2 86.752 -30.876 Q81.915 -33.94 76.575 -35.472 Q71.234 -37.004 65.287 -37.004 Q59.34 -37.004 54.019 -35.472 Q48.697 -33.94 43.86 -30.876 Q47.73 -26.2 53.253 -23.378 Q58.776 -20.556 65.298 -20.556 Z M65.401 -52.806 Q68.854 -52.806 71.192 -55.239 Q73.53 -57.672 73.53 -61.125 Q73.53 -64.577 71.168 -66.916 Q68.807 -69.254 65.292 -69.254 Q61.92 -69.254 59.501 -66.892 Q57.083 -64.531 57.083 -61.016 Q57.083 -57.644 59.516 -55.225 Q61.949 -52.806 65.401 -52.806 Z M65.306 21.046 Q43.538 1.535 32.411 -15.396 Q21.285 -32.327 21.285 -46.034 Q21.285 -65.384 33.943 -78.364 Q46.601 -91.345 65.306 -91.345 Q84.011 -91.345 96.669 -78.364 Q109.328 -65.384 109.328 -46.034 Q109.328 -44.415 109.301 -42.731 Q109.274 -41.046 108.844 -39.422 Q108.844 -39.422 108.165 -39.422 Q107.487 -39.422 106.791 -39.422 Q106.095 -39.422 105.534 -39.422 Q104.974 -39.422 104.974 -39.422 Q105.296 -41.035 105.538 -42.731 Q105.78 -44.427 105.78 -46.034 Q105.78 -64.196 94.365 -76.078 Q82.95 -87.959 65.306 -87.959 Q47.663 -87.959 36.248 -76.078 Q24.832 -64.196 24.832 -46.034 Q24.832 -33.617 36.039 -16.525 Q47.246 0.568 65.306 16.209 Q69.499 12.661 73.288 8.872 Q77.078 5.083 80.464 1.374 Q80.625 1.374 81.016 1.69 Q81.406 2.006 81.917 2.416 Q82.428 2.825 82.817 3.148 Q83.205 3.47 83.205 3.47 Q79.252 7.837 74.807 12.109 Q70.362 16.38 65.306 21.046 Z"/></g><g id="Bold-M" transform="matrix(1 0 0 1 2281.8 1126)"><path d="M98.375 14.02  87.25 2.895  92.375 -2.23 H76.75 V-17.98 H92.375 L87.25 -23.105 L98.375 -34.23 L122.5 -10.105 L98.375 14.02 Z M50 -21.48 Q57 -21.48 62.625 -24.917 Q68.25 -28.355 71.5 -33.98 Q67.125 -37.605 61.625 -39.542 Q56.125 -41.48 50 -41.48 Q43.875 -41.48 38.375 -39.542 Q32.875 -37.605 28.5 -33.98 Q31.75 -28.355 37.375 -24.917 Q43 -21.48 50 -21.48 Z M50 -46.48 Q54.125 -46.48 57.062 -49.417 Q60 -52.355 60 -56.48 Q60 -60.605 57.062 -63.542 Q54.125 -66.48 50 -66.48 Q45.875 -66.48 42.938 -63.542 Q40 -60.605 40 -56.48 Q40 -52.355 42.938 -49.417 Q45.875 -46.48 50 -46.48 Z M50 19.02 Q27.875 0.645 16.812 -14.355 Q5.75 -29.355 5.75 -44.73 Q5.75 -65.195 19.094 -77.337 Q32.438 -89.48 50 -89.48 Q67.562 -89.48 80.906 -77.337 Q94.25 -65.195 94.25 -44.73 Q94.25 -44.368 94.25 -43.987 Q94.25 -43.605 94.25 -43.355 Q94.25 -43.355 91.82 -43.355 Q89.389 -43.355 86.375 -43.355 Q83.361 -43.355 80.93 -43.355 Q78.5 -43.355 78.5 -43.355 Q78.5 -43.605 78.5 -43.987 Q78.5 -44.368 78.5 -44.73 Q78.5 -57.476 70.246 -65.603 Q61.991 -73.73 49.996 -73.73 Q38 -73.73 29.75 -65.603 Q21.5 -57.476 21.5 -44.73 Q21.5 -34.605 28.562 -24.792 Q35.625 -14.98 50 -1.855 Q51.875 -3.605 53.562 -5.167 Q55.25 -6.73 56.875 -8.355 Q56.875 -8.355 58.625 -6.605 Q60.375 -4.855 62.438 -2.73 Q64.5 -0.605 66.25 1.145 Q68 2.895 68 2.895 Q64 6.77 59.562 10.77 Q55.125 14.77 50 19.02 Z"/></g><g id="Semibold-M" transform="matrix(1 0 0 1 1985.97 1126)"><path d="M97.451 12.172  88.12 2.841  94.44 -3.534 H76.533 V-16.784 H94.44 L88.12 -23.159 L97.451 -32.491 L119.783 -10.159 L97.451 12.172 Z M50 -20.936 Q57 -20.936 62.625 -24.374 Q68.25 -27.811 71.5 -33.436 Q67.125 -37.061 61.625 -38.999 Q56.125 -40.936 50 -40.936 Q43.875 -40.936 38.375 -38.999 Q32.875 -37.061 28.5 -33.436 Q31.75 -27.811 37.375 -24.374 Q43 -20.936 50 -20.936 Z M50 -45.936 Q54.125 -45.936 57.062 -48.874 Q60 -51.811 60 -55.936 Q60 -60.061 57.062 -62.999 Q54.125 -65.936 50 -65.936 Q45.875 -65.936 42.938 -62.999 Q40 -60.061 40 -55.936 Q40 -51.811 42.938 -48.874 Q45.875 -45.936 50 -45.936 Z M50 17.172 Q28.744 -0.659 18.171 -15.523 Q7.598 -30.387 7.598 -44.513 Q7.598 -64.232 20.385 -75.932 Q33.172 -87.632 50 -87.632 Q66.828 -87.632 79.615 -75.932 Q92.402 -64.232 92.402 -44.513 Q92.402 -43.819 92.375 -43.087 Q92.348 -42.355 92.239 -41.67 Q92.239 -41.67 90.186 -41.67 Q88.133 -41.67 85.587 -41.67 Q83.041 -41.67 80.988 -41.67 Q78.935 -41.67 78.935 -41.67 Q79.043 -42.355 79.098 -43.087 Q79.152 -43.819 79.152 -44.513 Q79.152 -57.641 70.71 -66.011 Q62.267 -74.382 49.998 -74.382 Q37.728 -74.382 29.288 -66.011 Q20.848 -57.641 20.848 -44.513 Q20.848 -34.931 28.046 -24.412 Q35.245 -13.893 50 -0.388 Q52.31 -2.464 54.323 -4.434 Q56.337 -6.404 58.234 -8.355 Q58.234 -8.355 59.712 -6.877 Q61.19 -5.398 62.927 -3.627 Q64.663 -1.855 66.114 -0.377 Q67.565 1.102 67.565 1.102 Q63.728 4.977 59.372 8.977 Q55.016 12.977 50 17.172 Z"/></g><g id="Medium-M" transform="matrix(1 0 0 1 1689.91 1126)"><path d="M96.758 10.786  88.772 2.8  95.989 -4.513 H76.37 V-15.888 H95.989 L88.772 -23.2 L96.758 -31.186 L117.745 -10.2 L96.758 10.786 Z M50 -20.529 Q57 -20.529 62.625 -23.966 Q68.25 -27.404 71.5 -33.029 Q67.125 -36.654 61.625 -38.591 Q56.125 -40.529 50 -40.529 Q43.875 -40.529 38.375 -38.591 Q32.875 -36.654 28.5 -33.029 Q31.75 -27.404 37.375 -23.966 Q43 -20.529 50 -20.529 Z M50 -45.529 Q54.125 -45.529 57.062 -48.466 Q60 -51.404 60 -55.529 Q60 -59.654 57.062 -62.591 Q54.125 -65.529 50 -65.529 Q45.875 -65.529 42.938 -62.591 Q40 -59.654 40 -55.529 Q40 -51.404 42.938 -48.466 Q45.875 -45.529 50 -45.529 Z M50 15.786 Q29.397 -1.638 19.19 -16.4 Q8.984 -31.162 8.984 -44.35 Q8.984 -63.51 21.353 -74.878 Q33.722 -86.246 50 -86.246 Q66.278 -86.246 78.647 -74.878 Q91.016 -63.51 91.016 -44.35 Q91.016 -43.407 90.969 -42.412 Q90.921 -41.417 90.731 -40.407 Q90.731 -40.407 88.961 -40.407 Q87.191 -40.407 84.996 -40.407 Q82.801 -40.407 81.031 -40.407 Q79.261 -40.407 79.261 -40.407 Q79.451 -41.417 79.546 -42.412 Q79.641 -43.407 79.641 -44.35 Q79.641 -57.764 71.057 -66.318 Q62.473 -74.871 49.999 -74.871 Q37.525 -74.871 28.942 -66.318 Q20.359 -57.764 20.359 -44.35 Q20.359 -35.176 27.659 -24.127 Q34.959 -13.078 50 0.713 Q52.636 -1.608 54.894 -3.883 Q57.152 -6.159 59.253 -8.355 Q59.253 -8.355 60.527 -7.08 Q61.802 -5.806 63.294 -4.299 Q64.785 -2.792 66.012 -1.518 Q67.239 -0.244 67.239 -0.244 Q63.525 3.631 59.23 7.631 Q54.935 11.631 50 15.786 Z"/></g><g id="Regular-M" transform="matrix(1 0 0 1 1394.06 1126)"><path d="M96.25 9.77  89.25 2.77  97.125 -5.23 H76.25 V-15.23 H97.125 L89.25 -23.23 L96.25 -30.23 L116.25 -10.23 L96.25 9.77 Z M50 -20.23 Q57 -20.23 62.625 -23.667 Q68.25 -27.105 71.5 -32.73 Q67.125 -36.355 61.625 -38.292 Q56.125 -40.23 50 -40.23 Q43.875 -40.23 38.375 -38.292 Q32.875 -36.355 28.5 -32.73 Q31.75 -27.105 37.375 -23.667 Q43 -20.23 50 -20.23 Z M50 -45.23 Q54.125 -45.23 57.062 -48.167 Q60 -51.105 60 -55.23 Q60 -59.355 57.062 -62.292 Q54.125 -65.23 50 -65.23 Q45.875 -65.23 42.938 -62.292 Q40 -59.355 40 -55.23 Q40 -51.105 42.938 -48.167 Q45.875 -45.23 50 -45.23 Z M50 14.77 Q29.875 -2.355 19.938 -17.042 Q10 -31.73 10 -44.23 Q10 -62.98 22.062 -74.105 Q34.125 -85.23 50 -85.23 Q65.875 -85.23 77.938 -74.105 Q90 -62.98 90 -44.23 Q90 -43.105 89.938 -41.917 Q89.875 -40.73 89.625 -39.48 Q89.625 -39.48 88.062 -39.48 Q86.5 -39.48 84.562 -39.48 Q82.625 -39.48 81.062 -39.48 Q79.5 -39.48 79.5 -39.48 Q79.75 -40.73 79.875 -41.917 Q80 -43.105 80 -44.23 Q80 -57.855 71.312 -66.542 Q62.625 -75.23 50 -75.23 Q37.375 -75.23 28.688 -66.542 Q20 -57.855 20 -44.23 Q20 -35.355 27.375 -23.917 Q34.75 -12.48 50 1.52 Q52.875 -0.98 55.312 -3.48 Q57.75 -5.98 60 -8.355 Q60 -8.355 61.125 -7.23 Q62.25 -6.105 63.562 -4.792 Q64.875 -3.48 65.938 -2.355 Q67 -1.23 67 -1.23 Q63.375 2.645 59.125 6.645 Q54.875 10.645 50 14.77 Z"/></g><g id="Light-M" transform="matrix(1 0 0 1 1098.18 1126)"><path d="M95.192 7.27  89.923 2.049  99.048 -7.201 H76.442 V-14.701 H99.048 L89.923 -23.951 L95.192 -29.172 L113.413 -10.951 L95.192 7.27 Z M50.24 -21.48 Q56.567 -21.48 61.736 -24.485 Q66.904 -27.49 70.058 -32.441 Q65.923 -35.634 60.889 -37.307 Q55.856 -38.98 50.25 -38.98 Q44.644 -38.98 39.601 -37.307 Q34.558 -35.634 30.423 -32.441 Q33.577 -27.49 38.745 -24.485 Q43.913 -21.48 50.24 -21.48 Z M50.24 -46.48 Q53.885 -46.48 56.438 -49.033 Q58.99 -51.586 58.99 -55.23 Q58.99 -58.874 56.438 -61.427 Q53.885 -63.98 50.24 -63.98 Q46.596 -63.98 44.043 -61.427 Q41.49 -58.874 41.49 -55.23 Q41.49 -51.586 44.043 -49.033 Q46.596 -46.48 50.24 -46.48 Z M50.24 12.318 Q31.366 -4.038 21.933 -18.124 Q12.5 -32.211 12.5 -43.99 Q12.5 -61.297 23.697 -72.013 Q34.894 -82.73 50.24 -82.73 Q65.587 -82.73 76.784 -72.013 Q87.981 -61.297 87.981 -43.99 Q87.981 -42.911 87.942 -41.772 Q87.904 -40.634 87.654 -39.48 Q87.654 -39.48 86.477 -39.48 Q85.3 -39.48 83.841 -39.48 Q82.382 -39.48 81.206 -39.48 Q80.029 -39.48 80.029 -39.48 Q80.279 -40.634 80.38 -41.772 Q80.481 -42.911 80.481 -43.99 Q80.481 -57.663 71.793 -66.47 Q63.106 -75.278 50.24 -75.278 Q37.375 -75.278 28.688 -66.47 Q20 -57.663 20 -43.99 Q20 -34.922 27.784 -22.86 Q35.567 -10.797 50.24 2.337 Q53.26 -0.259 55.889 -2.927 Q58.519 -5.595 60.913 -8.163 Q60.913 -8.163 61.774 -7.35 Q62.635 -6.538 63.615 -5.562 Q64.595 -4.586 65.389 -3.749 Q66.183 -2.913 66.183 -2.913 Q62.773 0.774 58.776 4.58 Q54.779 8.385 50.24 12.318 Z"/></g><g id="Thin-M" transform="matrix(1 0 0 1 802.565 1126)"><path d="M94.135 4.77  90.596 1.328  100.971 -9.172 H76.635 V-14.172 H100.971 L90.596 -24.672 L94.135 -28.115 L110.577 -11.672 L94.135 4.77 Z M50.481 -22.73 Q56.135 -22.73 60.846 -25.302 Q65.558 -27.874 68.615 -32.153 Q64.721 -34.913 60.154 -36.321 Q55.586 -37.73 50.5 -37.73 Q45.413 -37.73 40.827 -36.321 Q36.24 -34.913 32.346 -32.153 Q35.404 -27.874 40.115 -25.302 Q44.827 -22.73 50.481 -22.73 Z M50.481 -47.73 Q53.644 -47.73 55.812 -49.898 Q57.981 -52.066 57.981 -55.23 Q57.981 -58.393 55.812 -60.562 Q53.644 -62.73 50.481 -62.73 Q47.317 -62.73 45.149 -60.562 Q42.981 -58.393 42.981 -55.23 Q42.981 -52.066 45.149 -49.898 Q47.317 -47.73 50.481 -47.73 Z M50.481 9.866 Q32.856 -5.72 23.928 -19.206 Q15 -32.691 15 -43.749 Q15 -59.615 25.332 -69.922 Q35.663 -80.23 50.481 -80.23 Q65.298 -80.23 75.63 -69.922 Q85.962 -59.615 85.962 -43.749 Q85.962 -42.717 85.947 -41.627 Q85.933 -40.538 85.683 -39.48 Q85.683 -39.48 84.892 -39.48 Q84.101 -39.48 83.12 -39.48 Q82.139 -39.48 81.349 -39.48 Q80.558 -39.48 80.558 -39.48 Q80.808 -40.538 80.885 -41.627 Q80.962 -42.717 80.962 -43.749 Q80.962 -57.47 72.274 -66.398 Q63.587 -75.326 50.481 -75.326 Q37.375 -75.326 28.688 -66.398 Q20 -57.47 20 -43.749 Q20 -34.49 28.192 -21.802 Q36.385 -9.115 50.481 3.155 Q53.644 0.462 56.466 -2.374 Q59.288 -5.211 61.827 -7.97 Q61.827 -7.97 62.423 -7.47 Q63.019 -6.97 63.667 -6.331 Q64.316 -5.691 64.841 -5.143 Q65.365 -4.595 65.365 -4.595 Q62.172 -1.097 58.427 2.515 Q54.683 6.126 50.481 9.866 Z"/></g><g id="Ultralight-M" transform="matrix(1 0 0 1 506.415 1126)"><path d="M93.5 3.27  91 0.895  102.125 -10.355 H76.75 V-13.855 H102.125 L91 -25.105 L93.5 -27.48 L108.875 -12.105 L93.5 3.27 Z M50.625 -23.48 Q55.875 -23.48 60.312 -25.792 Q64.75 -28.105 67.75 -31.98 Q64 -34.48 59.712 -35.73 Q55.425 -36.98 50.65 -36.98 Q45.875 -36.98 41.562 -35.73 Q37.25 -34.48 33.5 -31.98 Q36.5 -28.105 40.938 -25.792 Q45.375 -23.48 50.625 -23.48 Z M50.625 -48.48 Q53.5 -48.48 55.438 -50.417 Q57.375 -52.355 57.375 -55.23 Q57.375 -58.105 55.438 -60.042 Q53.5 -61.98 50.625 -61.98 Q47.75 -61.98 45.812 -60.042 Q43.875 -58.105 43.875 -55.23 Q43.875 -52.355 45.812 -50.417 Q47.75 -48.48 50.625 -48.48 Z M50.625 8.395 Q33.75 -6.73 25.125 -19.855 Q16.5 -32.98 16.5 -43.605 Q16.5 -58.605 26.312 -68.667 Q36.125 -78.73 50.625 -78.73 Q65.125 -78.73 74.938 -68.667 Q84.75 -58.605 84.75 -43.605 Q84.75 -42.6 84.75 -41.54 Q84.75 -40.48 84.5 -39.48 Q84.5 -39.48 83.941 -39.48 Q83.381 -39.48 82.688 -39.48 Q81.994 -39.48 81.434 -39.48 Q80.875 -39.48 80.875 -39.48 Q81.125 -40.48 81.188 -41.54 Q81.25 -42.6 81.25 -43.605 Q81.25 -57.355 72.562 -66.355 Q63.875 -75.355 50.625 -75.355 Q37.375 -75.355 28.688 -66.355 Q20 -57.355 20 -43.605 Q20 -34.23 28.438 -21.167 Q36.875 -8.105 50.625 3.645 Q53.875 0.895 56.812 -2.042 Q59.75 -4.98 62.375 -7.855 Q62.375 -7.855 62.812 -7.542 Q63.25 -7.23 63.699 -6.792 Q64.148 -6.355 64.511 -5.98 Q64.875 -5.605 64.875 -5.605 Q61.811 -2.219 58.218 1.275 Q54.625 4.77 50.625 8.395 Z"/></g><g id="Bold-S" transform="matrix(1 0 0 1 2294.23 696)"><path d="M75.054 1.261  66.769 -7.023  70.122 -10.376 H59.57 V-22.014 H70.122 L66.769 -25.367 L75.054 -33.652 L92.214 -16.195 L75.054 1.261 Z M40.239 -26.748 Q45.072 -26.748 49.312 -28.869 Q53.553 -30.989 56.019 -35.131 Q52.567 -37.794 48.573 -39.372 Q44.579 -40.95 40.239 -40.95 Q35.9 -40.95 31.905 -39.372 Q27.911 -37.794 24.459 -35.131 Q26.925 -30.989 31.166 -28.869 Q35.406 -26.748 40.239 -26.748 Z M40.26 -45.684 Q43.198 -45.684 45.269 -47.776 Q47.34 -49.868 47.34 -52.806 Q47.34 -55.744 45.248 -57.815 Q43.156 -59.886 40.218 -59.886 Q37.28 -59.886 35.209 -57.794 Q33.138 -55.702 33.138 -52.764 Q33.138 -49.826 35.23 -47.755 Q37.322 -45.684 40.26 -45.684 Z M40.239 5.995 Q23.179 -7.922 14.647 -19.258 Q6.115 -30.595 6.115 -42.43 Q6.115 -56.998 15.904 -66.727 Q25.692 -76.455 40.19 -76.455 Q54.687 -76.455 64.525 -66.727 Q74.363 -56.998 74.363 -42.43 Q74.363 -41.954 74.314 -41.452 Q74.265 -40.95 74.281 -40.654 Q74.281 -40.654 72.467 -40.654 Q70.654 -40.654 68.405 -40.654 Q66.156 -40.654 64.342 -40.654 Q62.528 -40.654 62.528 -40.654 Q62.627 -41.033 62.676 -41.507 Q62.726 -41.981 62.726 -42.43 Q62.726 -52.092 56.311 -58.455 Q49.897 -64.817 40.236 -64.817 Q30.574 -64.817 24.163 -58.455 Q17.753 -52.092 17.753 -42.43 Q17.753 -34.441 23.473 -26.847 Q29.193 -19.253 40.286 -9.39 Q41.718 -10.771 43.05 -11.856 Q44.381 -12.941 45.663 -14.223 Q45.663 -14.223 46.953 -12.933 Q48.243 -11.643 49.764 -10.073 Q51.285 -8.503 52.616 -7.22 Q53.948 -5.938 53.948 -5.938 Q50.792 -3.078 47.488 -0.169 Q44.184 2.741 40.239 5.995 Z"/></g><g id="Semibold-S" transform="matrix(1 0 0 1 1998.1 696)"><path d="M74.325 -0.197  67.455 -7.066  71.752 -11.406 H59.398 V-21.071 H71.752 L67.455 -25.41 L74.325 -32.28 L90.07 -16.238 L74.325 -0.197 Z M40.239 -26.319 Q45.072 -26.319 49.312 -28.44 Q53.553 -30.56 56.019 -34.703 Q52.567 -37.365 48.573 -38.943 Q44.579 -40.521 40.239 -40.521 Q35.9 -40.521 31.905 -38.943 Q27.911 -37.365 24.459 -34.703 Q26.925 -30.56 31.166 -28.44 Q35.406 -26.319 40.239 -26.319 Z M40.26 -45.255 Q43.198 -45.255 45.269 -47.348 Q47.34 -49.44 47.34 -52.377 Q47.34 -55.315 45.248 -57.386 Q43.156 -59.457 40.218 -59.457 Q37.28 -59.457 35.209 -57.365 Q33.138 -55.273 33.138 -52.336 Q33.138 -49.398 35.23 -47.327 Q37.322 -45.255 40.26 -45.255 Z M40.239 4.537 Q23.865 -8.951 15.719 -20.18 Q7.573 -31.409 7.573 -42.258 Q7.573 -56.239 16.922 -65.618 Q26.271 -74.997 40.19 -74.997 Q54.108 -74.997 63.507 -65.618 Q72.905 -56.239 72.905 -42.258 Q72.905 -41.521 72.835 -40.742 Q72.764 -39.964 72.695 -39.325 Q72.695 -39.325 71.179 -39.325 Q69.663 -39.325 67.783 -39.325 Q65.903 -39.325 64.387 -39.325 Q62.871 -39.325 62.871 -39.325 Q63.056 -40.047 63.148 -40.797 Q63.24 -41.547 63.24 -42.258 Q63.24 -52.222 56.677 -58.777 Q50.115 -65.332 40.237 -65.332 Q30.359 -65.332 23.799 -58.777 Q17.238 -52.222 17.238 -42.258 Q17.238 -34.698 23.065 -26.547 Q28.893 -18.395 40.286 -8.233 Q42.061 -9.871 43.65 -11.277 Q45.239 -12.683 46.735 -14.223 Q46.735 -14.223 47.811 -13.148 Q48.886 -12.072 50.15 -10.781 Q51.414 -9.489 52.509 -8.421 Q53.605 -7.353 53.605 -7.353 Q50.577 -4.493 47.338 -1.584 Q44.098 1.326 40.239 4.537 Z"/></g><g id="Medium-S" transform="matrix(1 0 0 1 1701.85 696)"><path d="M73.778 -1.29  67.97 -7.098  72.974 -12.177 H59.269 V-20.363 H72.974 L67.97 -25.443 L73.778 -31.251 L88.462 -16.27 L73.778 -1.29 Z M40.239 -25.998 Q45.072 -25.998 49.312 -28.118 Q53.553 -30.239 56.019 -34.381 Q52.567 -37.044 48.573 -38.622 Q44.579 -40.2 40.239 -40.2 Q35.9 -40.2 31.905 -38.622 Q27.911 -37.044 24.459 -34.381 Q26.925 -30.239 31.166 -28.118 Q35.406 -25.998 40.239 -25.998 Z M40.26 -44.934 Q43.198 -44.934 45.269 -47.026 Q47.34 -49.118 47.34 -52.056 Q47.34 -54.994 45.248 -57.065 Q43.156 -59.136 40.218 -59.136 Q37.28 -59.136 35.209 -57.044 Q33.138 -54.952 33.138 -52.014 Q33.138 -49.076 35.23 -47.005 Q37.322 -44.934 40.26 -44.934 Z M40.239 3.444 Q24.38 -9.722 16.523 -20.871 Q8.666 -32.02 8.666 -42.13 Q8.666 -55.669 17.686 -64.786 Q26.705 -73.904 40.19 -73.904 Q53.674 -73.904 62.743 -64.786 Q71.812 -55.669 71.812 -42.13 Q71.812 -41.196 71.725 -40.21 Q71.638 -39.224 71.505 -38.328 Q71.505 -38.328 70.212 -38.328 Q68.92 -38.328 67.317 -38.328 Q65.714 -38.328 64.421 -38.328 Q63.129 -38.328 63.129 -38.328 Q63.377 -39.307 63.502 -40.265 Q63.626 -41.222 63.626 -42.13 Q63.626 -52.319 56.952 -59.019 Q50.278 -65.718 40.238 -65.718 Q30.199 -65.718 23.525 -59.019 Q16.852 -52.319 16.852 -42.13 Q16.852 -34.891 22.76 -26.322 Q28.668 -17.752 40.286 -7.364 Q42.319 -9.195 44.1 -10.843 Q45.882 -12.491 47.539 -14.223 Q47.539 -14.223 48.454 -13.308 Q49.368 -12.394 50.439 -11.311 Q51.51 -10.229 52.429 -9.322 Q53.348 -8.415 53.348 -8.415 Q50.417 -5.555 47.225 -2.645 Q44.034 0.264 40.239 3.444 Z"/></g><g id="Regular-S" transform="matrix(1 0 0 1 1405.73 696)"><path d="M73.377 -2.092  68.347 -7.122  73.87 -12.743 H59.175 V-19.844 H73.87 L68.347 -25.466 L73.377 -30.496 L87.283 -16.294 L73.377 -2.092 Z M40.239 -25.762 Q45.072 -25.762 49.312 -27.882 Q53.553 -30.003 56.019 -34.145 Q52.567 -36.808 48.573 -38.386 Q44.579 -39.964 40.239 -39.964 Q35.9 -39.964 31.905 -38.386 Q27.911 -36.808 24.459 -34.145 Q26.925 -30.003 31.166 -27.882 Q35.406 -25.762 40.239 -25.762 Z M40.26 -44.698 Q43.198 -44.698 45.269 -46.79 Q47.34 -48.882 47.34 -51.82 Q47.34 -54.758 45.248 -56.829 Q43.156 -58.9 40.218 -58.9 Q37.28 -58.9 35.209 -56.808 Q33.138 -54.716 33.138 -51.778 Q33.138 -48.84 35.23 -46.769 Q37.322 -44.698 40.26 -44.698 Z M40.239 2.642 Q24.757 -10.289 17.113 -21.379 Q9.468 -32.468 9.468 -42.035 Q9.468 -55.251 18.246 -64.176 Q27.023 -73.102 40.19 -73.102 Q53.356 -73.102 62.183 -64.176 Q71.01 -55.251 71.01 -42.035 Q71.01 -40.957 70.911 -39.82 Q70.813 -38.682 70.632 -37.597 Q70.632 -37.597 69.503 -37.597 Q68.374 -37.597 66.975 -37.597 Q65.575 -37.597 64.446 -37.597 Q63.317 -37.597 63.317 -37.597 Q63.613 -38.765 63.761 -39.874 Q63.909 -40.984 63.909 -42.035 Q63.909 -52.391 57.153 -59.196 Q50.397 -66.001 40.239 -66.001 Q30.081 -66.001 23.325 -59.196 Q16.569 -52.391 16.569 -42.035 Q16.569 -35.033 22.536 -26.156 Q28.503 -17.28 40.286 -6.727 Q42.507 -8.7 44.431 -10.524 Q46.354 -12.349 48.129 -14.223 Q48.129 -14.223 48.926 -13.426 Q49.722 -12.63 50.652 -11.7 Q51.581 -10.771 52.37 -9.982 Q53.159 -9.193 53.159 -9.193 Q50.299 -6.333 47.143 -3.423 Q43.987 -0.514 40.239 2.642 Z"/></g><g id="Light-S" transform="matrix(1 0 0 1 1109.75 696)"><path d="M72.542 -4.065  68.878 -7.691  75.388 -14.299 H59.327 V-19.427 H75.388 L68.878 -26.035 L72.542 -29.661 L85.045 -16.863 L72.542 -4.065 Z M40.429 -26.748 Q44.73 -26.748 48.611 -28.527 Q52.491 -30.306 54.881 -33.917 Q51.619 -36.239 47.992 -37.608 Q44.366 -38.978 40.436 -38.978 Q36.506 -38.978 32.873 -37.608 Q29.239 -36.239 25.976 -33.917 Q28.366 -30.306 32.247 -28.527 Q36.127 -26.748 40.429 -26.748 Z M40.45 -45.684 Q43.008 -45.684 44.776 -47.473 Q46.543 -49.261 46.543 -51.82 Q46.543 -54.378 44.755 -56.146 Q42.966 -57.914 40.408 -57.914 Q37.849 -57.914 36.082 -56.125 Q34.314 -54.337 34.314 -51.778 Q34.314 -49.22 36.103 -47.452 Q37.891 -45.684 40.45 -45.684 Z M40.429 0.707 Q25.933 -11.616 18.687 -22.232 Q11.441 -32.848 11.441 -41.845 Q11.441 -53.923 19.535 -62.526 Q27.63 -71.129 40.379 -71.129 Q53.128 -71.129 61.273 -62.526 Q69.417 -53.923 69.417 -41.845 Q69.417 -40.804 69.337 -39.705 Q69.257 -38.606 69.077 -37.597 Q69.077 -37.597 68.252 -37.597 Q67.428 -37.597 66.406 -37.597 Q65.383 -37.597 64.559 -37.597 Q63.735 -37.597 63.735 -37.597 Q64.03 -38.689 64.159 -39.76 Q64.288 -40.831 64.288 -41.845 Q64.288 -52.239 57.532 -59.139 Q50.777 -66.039 40.429 -66.039 Q30.081 -66.039 23.325 -59.139 Q16.569 -52.239 16.569 -41.845 Q16.569 -34.691 22.858 -25.322 Q29.148 -15.952 40.476 -6.082 Q42.811 -8.131 44.886 -10.088 Q46.961 -12.046 48.85 -14.071 Q48.85 -14.071 49.438 -13.521 Q50.026 -12.971 50.693 -12.307 Q51.36 -11.644 51.937 -11.082 Q52.514 -10.521 52.514 -10.521 Q49.824 -7.809 46.867 -5.053 Q43.911 -2.297 40.429 0.707 Z"/></g><g id="Thin-S" transform="matrix(1 0 0 1 814.015 696)"><path d="M71.708 -6.037  69.409 -8.26  76.905 -15.854 H59.478 V-19.01 H76.905 L69.409 -26.604 L71.708 -28.827 L82.807 -17.432 L71.708 -6.037 Z M40.618 -27.734 Q44.389 -27.734 47.909 -29.172 Q51.429 -30.61 53.743 -33.69 Q50.67 -35.67 47.412 -36.831 Q44.154 -37.991 40.633 -37.991 Q37.113 -37.991 33.84 -36.831 Q30.566 -35.67 27.494 -33.69 Q29.808 -30.61 33.328 -29.172 Q36.848 -27.734 40.618 -27.734 Z M40.639 -46.67 Q42.818 -46.67 44.283 -48.156 Q45.747 -49.641 45.747 -51.82 Q45.747 -53.999 44.262 -55.463 Q42.777 -56.927 40.597 -56.927 Q38.418 -56.927 36.954 -55.442 Q35.49 -53.957 35.49 -51.778 Q35.49 -49.599 36.975 -48.135 Q38.46 -46.67 40.639 -46.67 Z M40.618 -1.227 Q27.109 -12.944 20.261 -23.085 Q13.413 -33.227 13.413 -41.656 Q13.413 -52.596 20.825 -60.876 Q28.237 -69.157 40.569 -69.157 Q52.901 -69.157 60.362 -60.876 Q67.824 -52.596 67.824 -41.656 Q67.824 -40.651 67.763 -39.591 Q67.702 -38.53 67.522 -37.597 Q67.522 -37.597 67.002 -37.597 Q66.482 -37.597 65.837 -37.597 Q65.192 -37.597 64.672 -37.597 Q64.152 -37.597 64.152 -37.597 Q64.448 -38.613 64.558 -39.646 Q64.668 -40.678 64.668 -41.656 Q64.668 -52.087 57.912 -59.082 Q51.156 -66.077 40.618 -66.077 Q30.081 -66.077 23.325 -59.082 Q16.569 -52.087 16.569 -41.656 Q16.569 -34.35 23.181 -24.487 Q29.792 -14.625 40.665 -5.438 Q43.114 -7.562 45.341 -9.652 Q47.568 -11.742 49.57 -13.919 Q49.57 -13.919 49.95 -13.616 Q50.329 -13.312 50.734 -12.914 Q51.14 -12.516 51.504 -12.182 Q51.869 -11.848 51.869 -11.848 Q49.349 -9.285 46.592 -6.682 Q43.835 -4.08 40.618 -1.227 Z"/></g><g id="Ultralight-S" transform="matrix(1 0 0 1 517.792 696)"><path d="M71.207 -7.22  69.728 -8.601  77.815 -16.787 H59.57 V-18.76 H77.815 L69.728 -26.945 L71.207 -28.326 L81.464 -17.773 L71.207 -7.22 Z M40.732 -28.326 Q44.184 -28.326 47.488 -29.559 Q50.792 -30.792 53.06 -33.553 Q50.102 -35.329 47.064 -36.364 Q44.026 -37.4 40.752 -37.4 Q37.477 -37.4 34.42 -36.364 Q31.363 -35.329 28.404 -33.553 Q30.672 -30.792 33.976 -29.559 Q37.28 -28.326 40.732 -28.326 Z M40.753 -47.262 Q42.705 -47.262 43.987 -48.565 Q45.269 -49.868 45.269 -51.82 Q45.269 -53.771 43.966 -55.054 Q42.663 -56.336 40.711 -56.336 Q38.76 -56.336 37.477 -55.033 Q36.195 -53.73 36.195 -51.778 Q36.195 -49.826 37.498 -48.544 Q38.802 -47.262 40.753 -47.262 Z M40.732 -2.388 Q27.815 -13.74 21.206 -23.598 Q14.597 -33.455 14.597 -41.542 Q14.597 -51.799 21.599 -59.886 Q28.601 -67.973 40.683 -67.973 Q52.764 -67.973 59.816 -59.886 Q66.868 -51.799 66.868 -41.542 Q66.868 -40.559 66.818 -39.522 Q66.769 -38.485 66.589 -37.597 Q66.589 -37.597 66.251 -37.597 Q65.914 -37.597 65.495 -37.597 Q65.077 -37.597 64.74 -37.597 Q64.402 -37.597 64.402 -37.597 Q64.698 -38.568 64.797 -39.577 Q64.895 -40.586 64.895 -41.542 Q64.895 -51.996 58.139 -59.048 Q51.384 -66.1 40.732 -66.1 Q30.081 -66.1 23.325 -59.048 Q16.569 -51.996 16.569 -41.542 Q16.569 -34.145 23.374 -23.987 Q30.179 -13.828 40.779 -5.051 Q43.296 -7.22 45.614 -9.39 Q47.932 -11.56 50.003 -13.828 Q50.003 -13.828 50.257 -13.673 Q50.511 -13.517 50.759 -13.278 Q51.007 -13.039 51.245 -12.842 Q51.482 -12.645 51.482 -12.645 Q49.064 -10.171 46.427 -7.66 Q43.79 -5.149 40.732 -2.388 Z"/></g></g></svg>