<svg xmlns="http://www.w3.org/2000/svg" height="20" viewBox="0 -960 960 960" width="20"><path d="M454-298H284q-9.25 0-16.125-6.875T261-321v-103q0-33.425 22.287-55.713Q305.575-502 339-502h60q14 0 23-9t9-23v-50q0-14-9-23t-23-9H284q-9.25 0-16.125-6.825-6.875-6.824-6.875-16Q261-648 267.875-655T284-662h115q33.425 0 55.713 22.287Q477-617.425 477-584v50q0 33.425-22.287 55.713Q432.425-456 399-456h-60q-14 0-23 9t-9 23v80h147q9.25 0 16.125 6.825 6.875 6.824 6.875 16Q477-312 470.125-305T454-298Zm224-121-49 100q-4.041 9.294-12.613 15.147-8.573 5.853-18.86 5.853-19.771 0-29.149-15.673T566-346l71-148-53-119q-7-17.654 3.032-33.327Q597.065-662 615.163-662q11.924 0 21.86 6.353T651-639l30 73 31-75q3.041-9.294 11.926-15.147T743.473-662q19.771 0 29.149 15.673T775-614l-54 118 71 148q8 18.654-2.545 34.327Q778.911-298 759.837-298q-11.174 0-20.485-5.853T726-319l-48-100ZM163.175-298Q154-298 147-304.825q-7-6.824-7-16Q140-330 146.825-337q6.824-7 16-7Q172-344 179-337.175q7 6.824 7 16Q186-312 179.175-305q-6.824 7-16 7Z"/></svg>