<svg xmlns="http://www.w3.org/2000/svg" height="20" viewBox="0 -960 960 960" width="20"><path d="m791.229-127.233-662.9-664.153q-4.752-4.768-5.137-10.3-.385-5.532 4.731-10.314 4.782-5.115 10.122-5.115t10.856 5.516l662.583 662.583q4.747 4.565 4.939 10.727.192 6.163-4.731 11.207-4.923 5.044-10.262 5.044-5.34 0-10.201-5.195ZM260.346-553.885q-35.288 0-60.336-24.219-25.049-24.22-25.049-60.533 0-30.609 17.712-53.409 17.711-22.8 44.981-30.8l105.269 106.269q-8 27.269-30.151 44.981-22.15 17.711-52.426 17.711Zm112.423 266.154Zm203.616-190.5Zm94.769-164.884L798.039-294.27q1.653 6.385-1.152 10.981-2.806 4.597-7.82 6.904-5.015 2.308-10.499-.013-5.484-2.32-7.876-9.448L643.923-632.154q-7.196-18.615-24.269-29.538-17.073-10.923-37.555-10.923-20.868 0-37.83 11.015-16.963 11.014-23.154 30.446l-15.461 53.423q-2.031 5.308-7.676 7.962T487-569.808q-5.692-2.307-8.346-7.418-2.654-5.11.038-11.12l15.462-51.539q9.645-28.598 33.818-45.126 24.174-16.528 54.692-16.528 29.298 0 54.303 15.582t34.187 42.842ZM233.846-406.217q5.962-11.283 17.811-18.168 11.849-6.884 24.796-6.884 13.509 0 23.818 7.73 10.309 7.731 17.614 19.193l38.461 78.077q5.375 10.615 19.476 9.818 14.101-.796 17.755-11.357l59.308-179.807 20.461 20.461-55.307 169.077q-6.347 15.577-18.014 22.962-11.667 7.384-27.239 7.384-14.161 0-24.82-7.403-10.658-7.404-18.12-18.751l-33.115-68.307q-6.154-12.693-21.154-13.077-15-.385-21.923 12.307l-84.846 161.078q-2.693 3.5-4.885 5.615-2.192 2.115-7.149 2.115-7.863 0-12.049-6.384-4.187-6.385.074-13.974l89.047-171.705Z"/></svg>