<svg xmlns="http://www.w3.org/2000/svg" height="48" viewBox="0 -960 960 960" width="48"><path d="M375.731-868.885v-30.192h208.538v30.192H375.731Zm104.051 747.501q-65.911 0-123.956-25.414t-101.38-68.465q-43.335-43.051-68.371-101.488-25.037-58.437-25.037-124.115 0-64.943 25.056-123.255 25.055-58.312 68.423-101.827 43.367-43.514 101.376-68.437Q413.901-759.308 480-759.308q61.462 0 116.077 21.731 54.615 21.731 98.352 60.461l40.61-41.538 22.038 22.038-41.538 41.539q37.423 39.269 60.423 93.346 23 54.077 23 121.385 0 65.285-24.926 123.638-24.926 58.352-68.39 101.375t-101.709 68.486q-58.245 25.463-124.155 25.463Zm.435-30.193q120.437 0 204.495-84.274 84.057-84.275 84.057-204.712 0-120.437-84.274-204.495-84.275-84.057-204.712-84.057-120.437 0-204.495 84.274-84.057 84.275-84.057 204.712 0 120.437 84.274 204.494 84.275 84.058 204.712 84.058ZM480-440.115Zm-61.115 116.307 174.577-117.538-174.577-116.539v234.077Z"/></svg>