<svg xmlns="http://www.w3.org/2000/svg" version="1.1" width="3300" height="2000"><g id="Notes"><style>
    text {
      font-family: monospace;
      text-anchor: middle;
    }
    text.emphasis {
      font-weight:bold;
    }
    text.lanchor {
      text-anchor: start;
    }
  </style><rect height="2200" id="artboard" fill="white" width="3300" x="0" y="0"/><line id="" style="fill:none;stroke:black;stroke-width:0.5;" x1="263" x2="3036" y1="292" y2="292"/><text class="lanchor emphasis" transform="matrix(1 0 0 1 263 322)">Weight/Scale Variations</text><text transform="matrix(1 0 0 1 559.711 322)">Ultralight</text><text transform="matrix(1 0 0 1 856.422 322)">Thin</text><text transform="matrix(1 0 0 1 1153.13 322)">Light</text><text transform="matrix(1 0 0 1 1449.84 322)">Regular</text><text transform="matrix(1 0 0 1 1746.56 322)">Medium</text><text transform="matrix(1 0 0 1 2043.27 322)">Semibold</text><text transform="matrix(1 0 0 1 2339.98 322)">Bold</text><text transform="matrix(1 0 0 1 2636.69 322)">Heavy</text><text transform="matrix(1 0 0 1 2933.4 322)">Black</text><text id="template-version" style="text-anchor: end;" transform="matrix(1 0 0 1 3036 1933)">Template v.1.0</text><text class="lanchor" transform="matrix(1 0 0 1 263 726)">Small</text><text class="lanchor" transform="matrix(1 0 0 1 263 1156)">Medium</text><text class="lanchor" transform="matrix(1 0 0 1 263 1586)">Large</text></g><g id="Guides"><g id="H-reference" style="fill:#27AAE1;stroke:none;" transform="matrix(1 0 0 1 339 696)"><path d="M 54.9316 0 L 57.666 0 L 30.5664 -70.459 L 28.0762 -70.459 L 0.976562 0 L 3.66211 0 L 12.9395 -24.4629 L 45.7031 -24.4629 Z M 29.1992 -67.0898 L 29.4434 -67.0898 L 44.8242 -26.709 L 13.8184 -26.709 Z"/></g><line id="Baseline-S" style="fill:none;stroke:#27AAE1;opacity:1;stroke-width:0.577;" x1="263" x2="3036" y1="696" y2="696"/><line id="Capline-S" style="fill:none;stroke:#27AAE1;opacity:1;stroke-width:0.577;" x1="263" x2="3036" y1="625.541" y2="625.541"/><g id="H-reference" style="fill:#27AAE1;stroke:none;" transform="matrix(1 0 0 1 339 1126)"><path d="M 54.9316 0 L 57.666 0 L 30.5664 -70.459 L 28.0762 -70.459 L 0.976562 0 L 3.66211 0 L 12.9395 -24.4629 L 45.7031 -24.4629 Z M 29.1992 -67.0898 L 29.4434 -67.0898 L 44.8242 -26.709 L 13.8184 -26.709 Z"/></g><line id="Baseline-M" style="fill:none;stroke:#27AAE1;opacity:1;stroke-width:0.577;" x1="263" x2="3036" y1="1126" y2="1126"/><line id="Capline-M" style="fill:none;stroke:#27AAE1;opacity:1;stroke-width:0.577;" x1="263" x2="3036" y1="1055.54" y2="1055.54"/><g id="H-reference" style="fill:#27AAE1;stroke:none;" transform="matrix(1 0 0 1 339 1556)"><path d="M 54.9316 0 L 57.666 0 L 30.5664 -70.459 L 28.0762 -70.459 L 0.976562 0 L 3.66211 0 L 12.9395 -24.4629 L 45.7031 -24.4629 Z M 29.1992 -67.0898 L 29.4434 -67.0898 L 44.8242 -26.709 L 13.8184 -26.709 Z"/></g><line id="Baseline-L" style="fill:none;stroke:#27AAE1;opacity:1;stroke-width:0.577;" x1="263" x2="3036" y1="1556" y2="1556"/><line id="Capline-L" style="fill:none;stroke:#27AAE1;opacity:1;stroke-width:0.577;" x1="263" x2="3036" y1="1485.54" y2="1485.54"/><rect height="119.336" id="left-margin" style="fill:darkred;stroke:none;opacity:0.4;" width="12.4512" x="1394.06" y="1030.79"/><rect height="119.336" id="right-margin" style="fill:darkgreen;stroke:none;opacity:0.4;" width="12.4512" x="1502.5112" y="1030.79"/><rect x="1406.5112" y="1045" width="96" height="96" fill="none" stroke="blue" stroke-dasharray="5"/><rect x="1394.06" y="1030.79" width="120.9024" height="119.336" fill="none" stroke="blue"/></g><g id="Symbols"><g id="Bold-L" transform="matrix(1 0 0 1 2266 1556)"><path d="M131.338 32.495  118.476 19.595 H37.329 Q31.194 19.595 26.884 15.286 Q22.575 10.976 22.575 4.841 V-10.639 Q22.575 -13.743 24.74 -15.9 Q26.905 -18.057 30.021 -18.057 Q33.056 -18.057 35.193 -15.9 Q37.329 -13.743 37.329 -10.639 V4.841 Q37.329 4.841 37.329 4.841 Q37.329 4.841 37.329 4.841 H103.764 L82.157 -16.767 L78.932 -13.703 Q79.013 -13.3 78.832 -13.058 Q78.652 -12.816 78.206 -12.816 Q76.923 -12.816 75.348 -13.3 Q73.772 -13.784 72.55 -15.086 L46.223 -41.252 Q44.586 -42.809 44.344 -44.542 Q44.102 -46.276 44.586 -48.211 Q45.714 -49.097 46.924 -49.38 Q48.133 -49.662 49.584 -49.339 L9.675 -89.249 Q8.062 -90.781 7.982 -93.144 Q7.901 -95.507 9.684 -97.133 Q11.102 -98.601 13.493 -98.601 Q15.883 -98.601 17.415 -97.15 L139.32 24.674 Q140.691 26.337 140.691 28.69 Q140.691 31.044 139.272 32.516 Q137.532 34.188 135.241 34.188 Q132.951 34.188 131.338 32.495 Z M108.36 -52.081 Q110.537 -49.823 110.537 -46.603 Q110.537 -43.382 108.333 -41.25 L104.087 -36.923 Q101.91 -34.746 98.737 -34.659 Q95.564 -34.572 93.456 -36.755 Q91.267 -38.858 91.348 -41.977 Q91.429 -45.095 93.594 -47.282 L98.104 -51.802 Q100.297 -54.016 103.24 -54.137 Q106.183 -54.257 108.36 -52.081 Z M77.428 -90.216 Q80.544 -90.216 82.681 -87.969 Q84.817 -85.721 84.817 -82.637 V-63.287 Q84.817 -59.531 82.569 -57.741 Q80.321 -55.951 77.429 -56.112 Q74.578 -56.112 72.321 -57.886 Q70.063 -59.659 70.063 -63.126 V-82.637 Q70.063 -85.721 72.188 -87.969 Q74.312 -90.216 77.428 -90.216 Z"/></g><g id="Semibold-L" transform="matrix(1 0 0 1 1970.27 1556)"><path d="M129.656 30.532  116.952 17.842 H36.698 Q31.618 17.842 27.973 14.197 Q24.328 10.552 24.328 5.472 V-11.2 Q24.328 -13.814 26.142 -15.62 Q27.956 -17.426 30.582 -17.426 Q33.126 -17.426 34.912 -15.62 Q36.698 -13.814 36.698 -11.2 V5.472 Q36.698 5.472 36.698 5.472 Q36.698 5.472 36.698 5.472 H104.606 L82.998 -16.136 L79.773 -13.072 Q79.503 -12.459 79.051 -12.147 Q78.598 -11.835 77.856 -11.835 Q76.713 -11.835 75.488 -12.248 Q74.263 -12.662 73.24 -13.765 L48 -38.914 Q46.408 -40.425 46.377 -42.334 Q46.345 -44.243 47.179 -45.897 Q48.308 -46.854 49.518 -47.101 Q50.727 -47.348 52.178 -47.026 L11.638 -87.566 Q10.096 -89.028 10.05 -91.207 Q10.004 -93.386 11.646 -94.89 Q12.995 -96.288 15.21 -96.288 Q17.425 -96.288 18.887 -94.907 L137.077 23.272 Q138.377 24.795 138.377 26.973 Q138.377 29.151 137.029 30.553 Q135.41 32.085 133.269 32.085 Q131.128 32.085 129.656 30.532 Z M106.748 -48.015 Q108.574 -46.108 108.574 -43.413 Q108.574 -40.718 106.732 -38.948 L102.615 -34.75 Q100.788 -32.923 98.101 -32.874 Q95.413 -32.825 93.661 -34.655 Q91.828 -36.405 91.909 -39.043 Q91.99 -41.682 93.81 -43.515 L98.111 -47.822 Q99.947 -49.669 102.434 -49.755 Q104.921 -49.841 106.748 -48.015 Z M77.428 -88.393 Q80.054 -88.393 81.84 -86.536 Q83.626 -84.679 83.626 -82.077 V-59.712 Q83.626 -56.581 81.737 -55.109 Q79.848 -53.637 77.429 -53.728 Q75.069 -53.728 73.162 -55.204 Q71.255 -56.68 71.255 -59.621 V-82.077 Q71.255 -84.679 73.029 -86.536 Q74.803 -88.393 77.428 -88.393 Z"/></g><g id="Medium-L" transform="matrix(1 0 0 1 1674.31 1556)"><path d="M128.394 29.06  115.809 16.528 H36.225 Q31.936 16.528 28.789 13.381 Q25.642 10.234 25.642 5.945 V-11.621 Q25.642 -13.866 27.194 -15.409 Q28.745 -16.953 31.002 -16.953 Q33.179 -16.953 34.702 -15.409 Q36.225 -13.866 36.225 -11.621 V5.945 Q36.225 5.945 36.225 5.945 Q36.225 5.945 36.225 5.945 H105.237 L83.629 -15.663 L80.404 -12.599 Q79.871 -11.828 79.215 -11.463 Q78.558 -11.099 77.593 -11.099 Q76.555 -11.099 75.593 -11.46 Q74.631 -11.821 73.758 -12.774 L49.333 -37.161 Q47.775 -38.637 47.902 -40.678 Q48.028 -42.718 49.125 -44.162 Q50.254 -45.171 51.463 -45.392 Q52.673 -45.613 54.124 -45.291 L13.11 -86.304 Q11.62 -87.713 11.601 -89.754 Q11.582 -91.795 13.119 -93.207 Q14.415 -94.552 16.499 -94.552 Q18.582 -94.552 19.991 -93.224 L135.394 22.221 Q136.642 23.638 136.642 25.684 Q136.642 27.731 135.346 29.081 Q133.819 30.507 131.79 30.507 Q129.761 30.507 128.394 29.06 Z M105.538 -44.965 Q107.102 -43.321 107.102 -41.02 Q107.102 -38.72 105.532 -37.222 L101.51 -33.12 Q99.947 -31.556 97.624 -31.535 Q95.301 -31.515 93.815 -33.08 Q92.249 -34.564 92.33 -36.843 Q92.41 -39.123 93.971 -40.689 L98.117 -44.837 Q99.684 -46.409 101.829 -46.468 Q103.975 -46.528 105.538 -44.965 Z M77.428 -87.026 Q79.686 -87.026 81.209 -85.461 Q82.732 -83.896 82.732 -81.656 V-57.03 Q82.732 -54.369 81.112 -53.135 Q79.493 -51.902 77.429 -51.94 Q75.437 -51.94 73.793 -53.193 Q72.149 -54.445 72.149 -56.992 V-81.656 Q72.149 -83.896 73.66 -85.461 Q75.171 -87.026 77.428 -87.026 Z"/></g><g id="Regular-L" transform="matrix(1 0 0 1 1378.56 1556)"><path d="M127.468 27.98  114.971 15.564 H35.878 Q32.169 15.564 29.388 12.782 Q26.606 10.001 26.606 6.292 V-11.929 Q26.606 -13.905 27.965 -15.255 Q29.323 -16.606 31.311 -16.606 Q33.218 -16.606 34.548 -15.255 Q35.878 -13.905 35.878 -11.929 V6.292 Q35.878 6.292 35.878 6.292 Q35.878 6.292 35.878 6.292 H105.699 L84.092 -15.316 L80.867 -12.252 Q80.141 -11.365 79.335 -10.962 Q78.529 -10.559 77.4 -10.559 Q76.439 -10.559 75.67 -10.881 Q74.901 -11.204 74.137 -12.048 L50.31 -35.875 Q48.778 -37.326 49.02 -39.463 Q49.262 -41.599 50.552 -42.889 Q51.681 -43.937 52.89 -44.139 Q54.099 -44.341 55.551 -44.018 L14.19 -85.379 Q12.739 -86.749 12.739 -88.689 Q12.739 -90.628 14.199 -91.973 Q15.456 -93.28 17.443 -93.28 Q19.431 -93.28 20.801 -91.99 L134.16 21.449 Q135.369 22.79 135.369 24.74 Q135.369 26.69 134.112 28.001 Q132.652 29.351 130.705 29.351 Q128.758 29.351 127.468 27.98 Z M104.651 -42.728 Q106.022 -41.277 106.022 -39.266 Q106.022 -37.255 104.651 -35.956 L100.701 -31.924 Q99.33 -30.554 97.274 -30.554 Q95.218 -30.554 93.928 -31.924 Q92.558 -33.214 92.638 -35.23 Q92.719 -37.246 94.089 -38.616 L98.121 -42.647 Q99.491 -44.018 101.386 -44.058 Q103.281 -44.099 104.651 -42.728 Z M77.428 -86.024 Q79.416 -86.024 80.746 -84.673 Q82.076 -83.323 82.076 -81.347 V-55.064 Q82.076 -52.746 80.654 -51.688 Q79.232 -50.629 77.429 -50.629 Q75.707 -50.629 74.256 -51.718 Q72.804 -52.806 72.804 -55.064 V-81.347 Q72.804 -83.323 74.123 -84.673 Q75.441 -86.024 77.428 -86.024 Z"/></g><g id="Light-L" transform="matrix(1 0 0 1 1082.77 1556)"><path d="M127.623 25.003  115.188 12.649 H38.576 Q34.898 12.649 32.21 9.96 Q29.521 7.272 29.521 3.594 V-12.829 Q29.521 -14.37 30.554 -15.395 Q31.587 -16.42 33.14 -16.42 Q34.582 -16.42 35.587 -15.395 Q36.591 -14.37 36.591 -12.829 V3.594 Q36.591 4.338 37.212 4.958 Q37.832 5.579 38.576 5.579 H108.118 L84.867 -17.672 L80.712 -13.616 Q80.048 -12.76 79.257 -12.357 Q78.467 -11.954 77.369 -11.954 Q76.408 -11.954 75.717 -12.277 Q75.025 -12.599 74.292 -13.443 L53.752 -33.921 Q52.531 -35.031 52.726 -36.656 Q52.921 -38.281 53.994 -39.354 Q55.061 -40.309 56.301 -40.48 Q57.542 -40.65 58.869 -40.173 L63.769 -35.335 V-38.932 L17.167 -85.534 Q16.057 -86.563 16.057 -88.037 Q16.057 -89.511 17.207 -90.546 Q18.123 -91.512 19.645 -91.512 Q21.167 -91.512 22.228 -90.563 L132.765 19.992 Q133.633 21.053 133.633 22.553 Q133.633 24.054 132.716 25.024 Q131.567 26.063 130.069 26.063 Q128.572 26.063 127.623 25.003 Z M101.24 -39.875 Q102.3 -38.734 102.347 -37.219 Q102.393 -35.704 101.426 -34.901 L98.716 -32.079 Q97.779 -31.112 96.266 -31.174 Q94.753 -31.236 93.556 -32.607 Q92.558 -33.431 92.607 -34.827 Q92.657 -36.222 93.655 -37.19 L96.446 -39.98 Q97.382 -40.948 98.781 -40.926 Q100.179 -40.905 101.24 -39.875 Z M77.428 -83.14 Q78.981 -83.14 79.986 -82.115 Q80.991 -81.09 80.991 -79.549 V-54.816 Q80.991 -53.087 79.91 -52.262 Q78.829 -51.436 77.429 -51.436 Q76.11 -51.436 75.015 -52.261 Q73.921 -53.085 73.921 -54.847 V-79.549 Q73.921 -81.09 74.898 -82.115 Q75.875 -83.14 77.428 -83.14 Z"/></g><g id="Thin-L" transform="matrix(1 0 0 1 787.282 1556)"><path d="M127.778 22.026  115.405 9.734 H41.274 Q37.627 9.734 35.032 7.138 Q32.436 4.543 32.436 0.896 V-13.728 Q32.436 -14.835 33.143 -15.534 Q33.851 -16.233 34.97 -16.233 Q35.946 -16.233 36.626 -15.534 Q37.305 -14.835 37.305 -13.728 V0.896 Q37.305 2.385 38.545 3.625 Q39.785 4.865 41.274 4.865 H110.537 L85.642 -20.029 L80.557 -14.981 Q79.955 -14.156 79.18 -13.753 Q78.405 -13.35 77.338 -13.35 Q76.378 -13.35 75.763 -13.672 Q75.149 -13.995 74.447 -14.839 L57.194 -31.968 Q56.282 -32.737 56.431 -33.85 Q56.58 -34.963 57.436 -35.819 Q58.441 -36.681 59.712 -36.821 Q60.983 -36.96 62.187 -36.328 L71.986 -26.653 V-33.847 L20.144 -85.689 Q19.375 -86.377 19.375 -87.386 Q19.375 -88.395 20.214 -89.12 Q20.79 -89.745 21.847 -89.745 Q22.904 -89.745 23.654 -89.137 L131.369 18.534 Q131.896 19.317 131.896 20.367 Q131.896 21.418 131.321 22.047 Q130.482 22.777 129.434 22.777 Q128.386 22.777 127.778 22.026 Z M97.829 -37.022 Q98.58 -36.191 98.673 -35.172 Q98.766 -34.154 98.201 -33.847 L96.731 -32.234 Q96.229 -31.67 95.258 -31.794 Q94.288 -31.918 93.184 -33.289 Q92.558 -33.648 92.576 -34.424 Q92.595 -35.199 93.221 -35.763 L94.772 -37.314 Q95.274 -37.878 96.176 -37.795 Q97.079 -37.711 97.829 -37.022 Z M77.428 -80.256 Q78.547 -80.256 79.226 -79.557 Q79.906 -78.857 79.906 -77.75 V-54.568 Q79.906 -53.429 79.166 -52.835 Q78.426 -52.242 77.429 -52.242 Q76.513 -52.242 75.775 -52.803 Q75.037 -53.364 75.037 -54.63 V-77.75 Q75.037 -78.857 75.673 -79.557 Q76.309 -80.256 77.428 -80.256 Z"/></g><g id="Ultralight-L" transform="matrix(1 0 0 1 491.205 1556)"><path d="M127.871 20.24  115.536 7.985 H42.892 Q39.264 7.985 36.725 5.445 Q34.185 2.906 34.185 -0.722 V-14.267 Q34.185 -15.114 34.697 -15.618 Q35.209 -16.122 36.068 -16.122 Q36.765 -16.122 37.249 -15.618 Q37.733 -15.114 37.733 -14.267 V-0.722 Q37.733 1.213 39.345 2.825 Q40.958 4.438 42.892 4.438 H111.988 L86.108 -21.443 L80.464 -15.799 Q79.899 -14.993 79.133 -14.59 Q78.368 -14.187 77.319 -14.187 Q76.359 -14.187 75.791 -14.509 Q75.223 -14.832 74.54 -15.676 L59.259 -30.796 Q58.534 -31.36 58.655 -32.166 Q58.776 -32.972 59.501 -33.698 Q60.469 -34.504 61.759 -34.625 Q63.049 -34.746 64.177 -34.021 L76.916 -21.443 V-30.796 L21.93 -85.782 Q21.366 -86.266 21.366 -86.995 Q21.366 -87.725 22.019 -88.264 Q22.39 -88.684 23.168 -88.684 Q23.946 -88.684 24.51 -88.281 L130.532 17.66 Q130.854 18.275 130.854 19.056 Q130.854 19.837 130.484 20.261 Q129.83 20.804 129.052 20.804 Q128.274 20.804 127.871 20.24 Z M95.782 -35.311 Q96.347 -34.666 96.468 -33.945 Q96.589 -33.223 96.266 -33.214 L95.541 -32.327 Q95.299 -32.005 94.654 -32.166 Q94.009 -32.327 92.961 -33.698 Q92.558 -33.779 92.558 -34.182 Q92.558 -34.585 92.961 -34.907 L93.767 -35.714 Q94.009 -36.036 94.613 -35.915 Q95.218 -35.794 95.782 -35.311 Z M77.428 -78.526 Q78.287 -78.526 78.771 -78.022 Q79.254 -77.518 79.254 -76.671 V-54.419 Q79.254 -53.633 78.719 -53.179 Q78.184 -52.726 77.429 -52.726 Q76.755 -52.726 76.231 -53.129 Q75.707 -53.532 75.707 -54.499 V-76.671 Q75.707 -77.518 76.138 -78.022 Q76.57 -78.526 77.428 -78.526 Z"/></g><g id="Bold-M" transform="matrix(1 0 0 1 2281.8 1126)"><path d="M99 17.77  89.062 7.77 H32.125 Q25.75 7.77 21.375 3.395 Q17 -0.98 17 -7.355 V-14.48 Q17 -17.542 19.25 -19.792 Q21.5 -22.042 24.562 -22.042 Q27.625 -22.042 29.875 -19.792 Q32.125 -17.542 32.125 -14.48 V-7.355 Q32.125 -7.355 32.125 -7.355 Q32.125 -7.355 32.125 -7.355 H74.062 L61 -20.417 Q61.062 -20.292 60.969 -20.167 Q60.875 -20.042 60.812 -20.042 Q59.438 -20.042 57.75 -20.667 Q56.062 -21.292 55.062 -22.292 L35.312 -41.917 Q33.812 -43.417 33.281 -45.042 Q32.75 -46.667 33 -48.292 Q33 -48.167 33 -48.23 Q33 -48.292 33 -48.292 L7 -74.292 Q5.375 -75.917 5.312 -78.23 Q5.25 -80.542 6.938 -82.23 Q8.688 -83.98 10.938 -83.98 Q13.188 -83.98 14.875 -82.23 L106.938 9.77 Q108.688 11.52 108.688 13.77 Q108.688 16.02 106.938 17.77 Q105.25 19.458 103 19.458 Q100.75 19.458 99 17.77 Z M84.625 -52.667 Q86.812 -50.48 86.812 -47.355 Q86.812 -44.23 84.625 -42.042 L83.188 -40.605 Q81.062 -38.48 78 -38.449 Q74.938 -38.417 72.688 -40.542 Q70.438 -42.667 70.438 -45.761 Q70.438 -48.855 72.688 -51.105 L74.188 -52.605 Q76.375 -54.792 79.406 -54.824 Q82.438 -54.855 84.625 -52.667 Z M60 -78.167 Q63.062 -78.167 65.312 -75.917 Q67.562 -73.667 67.562 -70.605 V-63.73 Q67.562 -59.855 65.25 -58.011 Q62.938 -56.167 60 -56.292 Q57.25 -56.417 54.844 -58.261 Q52.438 -60.105 52.438 -63.667 V-70.605 Q52.438 -73.667 54.688 -75.917 Q56.938 -78.167 60 -78.167 Z"/></g><g id="Semibold-M" transform="matrix(1 0 0 1 1985.97 1126)"><path d="M97.261 15.705  87.487 5.922 H31.473 Q26.185 5.922 22.516 2.254 Q18.848 -1.415 18.848 -6.703 V-15.078 Q18.848 -17.651 20.717 -19.521 Q22.587 -21.39 25.16 -21.39 Q27.734 -21.39 29.603 -19.521 Q31.473 -17.651 31.473 -15.078 V-6.703 Q31.473 -6.703 31.473 -6.703 Q31.473 -6.703 31.473 -6.703 H74.932 L61.87 -19.765 Q61.606 -19.477 61.213 -19.271 Q60.821 -19.064 60.432 -19.064 Q59.22 -19.064 57.913 -19.581 Q56.606 -20.097 55.769 -20.934 L37.106 -39.526 Q35.66 -40.972 35.373 -42.733 Q35.087 -44.494 35.663 -45.901 Q35.663 -45.831 35.663 -45.866 Q35.663 -45.901 35.663 -45.901 L9.011 -72.553 Q7.494 -74.07 7.459 -76.219 Q7.424 -78.369 9.003 -79.947 Q10.589 -81.534 12.704 -81.534 Q14.818 -81.534 16.397 -79.947 L104.655 8.303 Q106.242 9.89 106.242 12.004 Q106.242 14.118 104.655 15.705 Q103.076 17.284 100.962 17.284 Q98.848 17.284 97.261 15.705 Z M82.94 -48.483 Q84.747 -46.676 84.747 -44.067 Q84.747 -41.458 82.94 -39.651 L81.666 -38.377 Q79.867 -36.578 77.321 -36.574 Q74.775 -36.57 72.905 -38.369 Q71.035 -40.168 71.035 -42.745 Q71.035 -45.323 72.905 -47.192 L74.188 -48.475 Q75.995 -50.282 78.564 -50.286 Q81.133 -50.29 82.94 -48.483 Z M60 -76.32 Q62.573 -76.32 64.443 -74.45 Q66.313 -72.581 66.313 -70.007 V-60.035 Q66.313 -56.812 64.38 -55.294 Q62.448 -53.776 60 -53.847 Q57.685 -53.918 55.686 -55.462 Q53.687 -57.007 53.687 -60.026 V-70.007 Q53.687 -72.581 55.557 -74.45 Q57.427 -76.32 60 -76.32 Z"/></g><g id="Medium-M" transform="matrix(1 0 0 1 1689.91 1126)"><path d="M95.957 14.156  86.304 4.536 H30.984 Q26.511 4.536 23.372 1.398 Q20.234 -1.741 20.234 -6.214 V-15.526 Q20.234 -17.733 21.818 -19.317 Q23.402 -20.901 25.609 -20.901 Q27.815 -20.901 29.399 -19.317 Q30.984 -17.733 30.984 -15.526 V-6.214 Q30.984 -6.214 30.984 -6.214 Q30.984 -6.214 30.984 -6.214 H75.584 L62.522 -19.276 Q62.014 -18.866 61.397 -18.598 Q60.78 -18.33 60.147 -18.33 Q59.057 -18.33 58.035 -18.765 Q57.014 -19.2 56.299 -19.915 L38.451 -37.733 Q37.046 -39.138 36.943 -41 Q36.84 -42.863 37.66 -44.108 Q37.66 -44.078 37.66 -44.093 Q37.66 -44.108 37.66 -44.108 L10.519 -71.249 Q9.084 -72.684 9.069 -74.711 Q9.054 -76.738 10.552 -78.235 Q12.016 -79.7 14.028 -79.7 Q16.041 -79.7 17.538 -78.235 L102.943 7.202 Q104.408 8.667 104.408 10.679 Q104.408 12.691 102.943 14.156 Q101.446 15.653 99.433 15.653 Q97.421 15.653 95.957 14.156 Z M81.677 -45.344 Q83.198 -43.822 83.198 -41.601 Q83.198 -39.379 81.677 -37.858 L80.525 -36.706 Q78.97 -35.151 76.811 -35.167 Q74.652 -35.184 73.068 -36.738 Q71.484 -38.292 71.484 -40.483 Q71.484 -42.673 73.068 -44.257 L74.188 -45.377 Q75.709 -46.898 77.932 -46.882 Q80.155 -46.866 81.677 -45.344 Z M60 -74.934 Q62.206 -74.934 63.791 -73.35 Q65.375 -71.765 65.375 -69.559 V-57.263 Q65.375 -54.529 63.728 -53.256 Q62.081 -51.983 60 -52.013 Q58.011 -52.042 56.318 -53.363 Q54.625 -54.684 54.625 -57.295 V-69.559 Q54.625 -71.765 56.209 -73.35 Q57.794 -74.934 60 -74.934 Z"/></g><g id="Regular-M" transform="matrix(1 0 0 1 1394.06 1126)"><path d="M95 13.02  85.438 3.52 H30.625 Q26.75 3.52 24 0.77 Q21.25 -1.98 21.25 -5.855 V-15.855 Q21.25 -17.792 22.625 -19.167 Q24 -20.542 25.938 -20.542 Q27.875 -20.542 29.25 -19.167 Q30.625 -17.792 30.625 -15.855 V-5.855 Q30.625 -5.855 30.625 -5.855 Q30.625 -5.855 30.625 -5.855 H76.062 L63 -18.917 Q62.312 -18.417 61.531 -18.105 Q60.75 -17.792 59.938 -17.792 Q58.938 -17.792 58.125 -18.167 Q57.312 -18.542 56.688 -19.167 L39.438 -36.417 Q38.062 -37.792 38.094 -39.73 Q38.125 -41.667 39.125 -42.792 Q39.125 -42.792 39.125 -42.792 Q39.125 -42.792 39.125 -42.792 L11.625 -70.292 Q10.25 -71.667 10.25 -73.605 Q10.25 -75.542 11.688 -76.98 Q13.062 -78.355 15 -78.355 Q16.938 -78.355 18.375 -76.98 L101.688 6.395 Q103.062 7.77 103.062 9.708 Q103.062 11.645 101.688 13.02 Q100.25 14.458 98.312 14.458 Q96.375 14.458 95 13.02 Z M80.75 -43.042 Q82.062 -41.73 82.062 -39.792 Q82.062 -37.855 80.75 -36.542 L79.688 -35.48 Q78.312 -34.105 76.438 -34.136 Q74.562 -34.167 73.188 -35.542 Q71.812 -36.917 71.812 -38.824 Q71.812 -40.73 73.188 -42.105 L74.188 -43.105 Q75.5 -44.417 77.469 -44.386 Q79.438 -44.355 80.75 -43.042 Z M60 -73.917 Q61.938 -73.917 63.312 -72.542 Q64.688 -71.167 64.688 -69.23 V-55.23 Q64.688 -52.855 63.25 -51.761 Q61.812 -50.667 60 -50.667 Q58.25 -50.667 56.781 -51.824 Q55.312 -52.98 55.312 -55.292 V-69.23 Q55.312 -71.167 56.688 -72.542 Q58.062 -73.917 60 -73.917 Z"/></g><g id="Light-M" transform="matrix(1 0 0 1 1098.18 1126)"><path d="M96.082 10.76  86.567 1.26 H32.043 Q28.481 1.26 25.995 -1.225 Q23.51 -3.711 23.51 -7.273 V-16.985 Q23.51 -18.442 24.536 -19.468 Q25.563 -20.494 27.019 -20.494 Q28.452 -20.494 29.478 -19.468 Q30.505 -18.442 30.505 -16.985 V-7.273 Q30.505 -6.696 30.986 -6.216 Q31.466 -5.735 32.043 -5.735 H79.572 L64.226 -21.081 L62.832 -19.687 Q62.192 -19.115 61.471 -18.802 Q60.75 -18.49 59.913 -18.49 Q59.01 -18.49 58.329 -18.817 Q57.649 -19.143 57.048 -19.768 L42.106 -34.663 Q41.02 -35.725 41.063 -37.194 Q41.106 -38.662 41.938 -39.571 Q42.178 -39.787 42.419 -39.787 Q42.659 -39.787 42.899 -39.571 L46.698 -35.821 V-38.609 L13.933 -71.374 Q12.87 -72.437 12.87 -73.845 Q12.87 -75.254 13.971 -76.355 Q15.034 -77.417 16.442 -77.417 Q17.851 -77.417 18.952 -76.355 L101.087 5.794 Q102.149 6.857 102.149 8.277 Q102.149 9.698 101.087 10.76 Q99.986 11.861 98.565 11.861 Q97.144 11.861 96.082 10.76 Z M78.106 -40.206 Q79.13 -39.182 79.142 -37.773 Q79.154 -36.364 78.25 -35.485 L77.572 -34.783 Q76.63 -33.865 75.272 -33.92 Q73.913 -33.975 72.707 -35.206 Q71.764 -36.124 71.764 -37.453 Q71.764 -38.783 72.707 -39.701 L73.37 -40.364 Q74.25 -41.268 75.666 -41.237 Q77.082 -41.206 78.106 -40.206 Z M60 -71.682 Q61.457 -71.682 62.483 -70.655 Q63.51 -69.629 63.51 -68.172 V-53.643 Q63.51 -51.869 62.433 -51.052 Q61.356 -50.235 60 -50.235 Q58.707 -50.235 57.611 -51.09 Q56.514 -51.946 56.514 -53.682 V-68.172 Q56.514 -69.629 57.529 -70.655 Q58.543 -71.682 60 -71.682 Z"/></g><g id="Thin-M" transform="matrix(1 0 0 1 802.565 1126)"><path d="M97.163 8.501  87.697 -0.999 H33.462 Q30.212 -0.999 27.99 -3.22 Q25.769 -5.441 25.769 -8.691 V-18.115 Q25.769 -19.091 26.447 -19.768 Q27.125 -20.446 28.101 -20.446 Q29.029 -20.446 29.707 -19.768 Q30.385 -19.091 30.385 -18.115 V-8.691 Q30.385 -7.538 31.346 -6.576 Q32.308 -5.615 33.462 -5.615 H83.082 L65.452 -23.244 L62.663 -20.456 Q62.072 -19.812 61.411 -19.499 Q60.75 -19.187 59.889 -19.187 Q59.082 -19.187 58.534 -19.466 Q57.986 -19.744 57.409 -20.369 L44.774 -32.908 Q43.976 -33.658 44.031 -34.658 Q44.087 -35.658 44.75 -36.35 Q45.231 -36.783 45.712 -36.783 Q46.192 -36.783 46.673 -36.35 L54.269 -28.85 V-34.427 L16.24 -72.456 Q15.49 -73.206 15.49 -74.086 Q15.49 -74.966 16.255 -75.73 Q17.005 -76.48 17.885 -76.48 Q18.764 -76.48 19.529 -75.73 L100.486 5.193 Q101.236 5.943 101.236 6.847 Q101.236 7.751 100.486 8.501 Q99.721 9.265 98.817 9.265 Q97.913 9.265 97.163 8.501 Z M75.462 -37.369 Q76.197 -36.634 76.221 -35.754 Q76.245 -34.874 75.75 -34.427 L75.457 -34.086 Q74.947 -33.624 74.106 -33.703 Q73.264 -33.783 72.226 -34.869 Q71.716 -35.331 71.716 -36.083 Q71.716 -36.836 72.226 -37.297 L72.553 -37.624 Q73 -38.119 73.863 -38.088 Q74.726 -38.057 75.462 -37.369 Z M60 -69.446 Q60.976 -69.446 61.654 -68.768 Q62.332 -68.091 62.332 -67.115 V-52.057 Q62.332 -50.884 61.615 -50.343 Q60.899 -49.802 60 -49.802 Q59.163 -49.802 58.44 -50.357 Q57.716 -50.913 57.716 -52.071 V-67.115 Q57.716 -68.091 58.37 -68.768 Q59.024 -69.446 60 -69.446 Z"/></g><g id="Ultralight-M" transform="matrix(1 0 0 1 506.415 1126)"><path d="M97.812 7.145  88.375 -2.355 H34.312 Q31.25 -2.355 29.188 -4.417 Q27.125 -6.48 27.125 -9.542 V-18.792 Q27.125 -19.48 27.594 -19.949 Q28.062 -20.417 28.75 -20.417 Q29.375 -20.417 29.844 -19.949 Q30.312 -19.48 30.312 -18.792 V-9.542 Q30.312 -8.042 31.562 -6.792 Q32.812 -5.542 34.312 -5.542 H85.188 L66.188 -24.542 L62.562 -20.917 Q62 -20.23 61.375 -19.917 Q60.75 -19.605 59.875 -19.605 Q59.125 -19.605 58.656 -19.855 Q58.188 -20.105 57.625 -20.73 L46.375 -31.855 Q45.75 -32.417 45.812 -33.136 Q45.875 -33.855 46.438 -34.417 Q47.062 -34.98 47.688 -34.98 Q48.312 -34.98 48.938 -34.417 L58.812 -24.667 V-31.917 L17.625 -73.105 Q17.062 -73.667 17.062 -74.23 Q17.062 -74.792 17.625 -75.355 Q18.188 -75.917 18.75 -75.917 Q19.312 -75.917 19.875 -75.355 L100.125 4.833 Q100.688 5.395 100.688 5.989 Q100.688 6.583 100.125 7.145 Q99.562 7.708 98.969 7.708 Q98.375 7.708 97.812 7.145 Z M73.875 -35.667 Q74.438 -35.105 74.469 -34.542 Q74.5 -33.98 74.25 -33.792 L74.188 -33.667 Q73.938 -33.48 73.406 -33.574 Q72.875 -33.667 71.938 -34.667 Q71.688 -34.855 71.688 -35.261 Q71.688 -35.667 71.938 -35.855 L72.062 -35.98 Q72.25 -36.23 72.781 -36.199 Q73.312 -36.167 73.875 -35.667 Z M60 -68.105 Q60.688 -68.105 61.156 -67.636 Q61.625 -67.167 61.625 -66.48 V-51.105 Q61.625 -50.292 61.125 -49.917 Q60.625 -49.542 60 -49.542 Q59.438 -49.542 58.938 -49.917 Q58.438 -50.292 58.438 -51.105 V-66.48 Q58.438 -67.167 58.875 -67.636 Q59.312 -68.105 60 -68.105 Z"/></g><g id="Bold-S" transform="matrix(1 0 0 1 2294.23 696)"><path d="M77.125 4.516  68.298 -4.459 H27.714 Q23.078 -4.459 19.824 -7.664 Q16.569 -10.87 16.569 -15.604 V-16.886 Q16.569 -19.006 18.246 -20.732 Q19.922 -22.458 22.141 -22.458 Q24.262 -22.458 25.988 -20.732 Q27.714 -19.006 27.714 -16.886 V-15.604 Q27.714 -15.604 27.714 -15.604 Q27.714 -15.604 27.714 -15.604 H57.252 L48.425 -24.431 L48.129 -24.135 Q48.277 -23.937 48.203 -23.789 Q48.129 -23.642 47.981 -23.642 Q47.093 -23.642 45.811 -24.085 Q44.529 -24.529 43.74 -25.318 L29.045 -40.013 Q27.862 -41.098 27.541 -42.331 Q27.221 -43.564 27.418 -44.747 Q27.516 -44.747 27.566 -44.846 Q27.615 -44.945 27.714 -45.043 L7.594 -65.163 Q6.312 -66.445 6.263 -68.023 Q6.213 -69.601 7.446 -70.834 Q8.827 -72.214 10.356 -72.214 Q11.884 -72.214 13.117 -70.834 L82.894 -1.303 Q84.275 0.078 84.275 1.606 Q84.275 3.135 82.894 4.516 Q81.662 5.749 80.084 5.749 Q78.505 5.749 77.125 4.516 Z M66.276 -49.481 Q68.002 -47.755 68.002 -45.635 Q68.002 -43.514 66.276 -41.789 L63.958 -39.471 Q62.38 -37.893 60.161 -37.819 Q57.942 -37.745 56.266 -39.323 Q54.589 -40.901 54.589 -43.095 Q54.589 -45.29 56.266 -46.966 L58.731 -49.432 Q60.358 -51.059 62.454 -51.133 Q64.55 -51.207 66.276 -49.481 Z M47.34 -70.686 Q49.559 -70.686 51.236 -69.009 Q52.912 -67.332 52.912 -65.113 V-56.04 Q52.912 -53.18 51.236 -51.774 Q49.559 -50.369 47.34 -50.468 Q45.269 -50.566 43.518 -51.972 Q41.768 -53.377 41.768 -55.892 V-65.113 Q41.768 -67.332 43.444 -69.009 Q45.121 -70.686 47.34 -70.686 Z"/></g><g id="Semibold-S" transform="matrix(1 0 0 1 1998.1 696)"><path d="M75.753 2.886  67.054 -5.917 H27.199 Q23.421 -5.917 20.724 -8.565 Q18.027 -11.213 18.027 -15.089 V-17.357 Q18.027 -19.092 19.403 -20.518 Q20.78 -21.944 22.613 -21.944 Q24.348 -21.944 25.773 -20.518 Q27.199 -19.092 27.199 -17.357 V-15.089 Q27.199 -15.089 27.199 -15.089 Q27.199 -15.089 27.199 -15.089 H57.938 L49.111 -23.916 L48.815 -23.62 Q48.706 -23.294 48.396 -23.082 Q48.086 -22.87 47.681 -22.87 Q46.922 -22.87 45.94 -23.228 Q44.958 -23.586 44.298 -24.246 L30.46 -38.127 Q29.319 -39.169 29.192 -40.509 Q29.064 -41.849 29.519 -42.861 Q29.617 -42.904 29.667 -42.981 Q29.716 -43.058 29.815 -43.157 L9.181 -63.791 Q7.984 -64.987 7.956 -66.436 Q7.928 -67.886 9.076 -69.033 Q10.328 -70.285 11.749 -70.285 Q13.171 -70.285 14.318 -69.033 L81.093 -2.461 Q82.346 -1.209 82.346 0.213 Q82.346 1.634 81.093 2.886 Q79.946 4.034 78.476 4.034 Q77.005 4.034 75.753 2.886 Z M64.947 -46.18 Q66.373 -44.754 66.373 -43.041 Q66.373 -41.328 64.947 -39.902 L62.758 -37.713 Q61.437 -36.392 59.625 -36.34 Q57.814 -36.287 56.437 -37.608 Q55.061 -38.929 55.061 -40.716 Q55.061 -42.503 56.437 -43.879 L58.731 -46.173 Q60.058 -47.5 61.79 -47.553 Q63.521 -47.606 64.947 -46.18 Z M47.34 -69.228 Q49.173 -69.228 50.55 -67.851 Q51.926 -66.475 51.926 -64.642 V-53.124 Q51.926 -50.779 50.55 -49.63 Q49.173 -48.482 47.34 -48.538 Q45.612 -48.594 44.183 -49.763 Q42.754 -50.933 42.754 -53.019 V-64.642 Q42.754 -66.475 44.13 -67.851 Q45.507 -69.228 47.34 -69.228 Z"/></g><g id="Medium-S" transform="matrix(1 0 0 1 1701.85 696)"><path d="M74.723 1.664  66.122 -7.01 H26.813 Q23.679 -7.01 21.399 -9.24 Q19.12 -11.47 19.12 -14.703 V-17.711 Q19.12 -19.156 20.272 -20.357 Q21.423 -21.558 22.967 -21.558 Q24.412 -21.558 25.613 -20.357 Q26.813 -19.156 26.813 -17.711 V-14.703 Q26.813 -14.703 26.813 -14.703 Q26.813 -14.703 26.813 -14.703 H58.452 L49.626 -23.53 L49.33 -23.234 Q49.027 -22.812 48.541 -22.551 Q48.054 -22.291 47.456 -22.291 Q46.793 -22.291 46.036 -22.585 Q45.28 -22.878 44.716 -23.442 L31.521 -36.712 Q30.413 -37.721 30.43 -39.142 Q30.447 -40.562 31.095 -41.446 Q31.193 -41.521 31.243 -41.582 Q31.292 -41.643 31.391 -41.741 L10.371 -62.761 Q9.239 -63.893 9.227 -65.246 Q9.215 -66.599 10.298 -67.682 Q11.453 -68.838 12.794 -68.838 Q14.136 -68.838 15.218 -67.682 L79.743 -3.329 Q80.898 -2.173 80.898 -0.832 Q80.898 0.509 79.743 1.664 Q78.66 2.747 77.27 2.747 Q75.879 2.747 74.723 1.664 Z M63.95 -43.703 Q65.15 -42.503 65.15 -41.095 Q65.15 -39.687 63.95 -38.487 L61.857 -36.394 Q60.729 -35.266 59.223 -35.23 Q57.717 -35.194 56.566 -36.321 Q55.414 -37.449 55.414 -38.931 Q55.414 -40.412 56.566 -41.564 L58.731 -43.729 Q59.833 -44.831 61.291 -44.867 Q62.749 -44.904 63.95 -43.703 Z M47.34 -68.134 Q48.884 -68.134 50.035 -66.983 Q51.186 -65.832 51.186 -64.288 V-50.937 Q51.186 -48.978 50.035 -48.022 Q48.884 -47.067 47.34 -47.091 Q45.869 -47.114 44.681 -48.107 Q43.494 -49.1 43.494 -50.864 V-64.288 Q43.494 -65.832 44.645 -66.983 Q45.796 -68.134 47.34 -68.134 Z"/></g><g id="Regular-S" transform="matrix(1 0 0 1 1405.73 696)"><path d="M73.969 0.768  65.438 -7.812 H26.53 Q23.867 -7.812 21.895 -9.735 Q19.922 -11.659 19.922 -14.42 V-17.971 Q19.922 -19.203 20.909 -20.239 Q21.895 -21.275 23.226 -21.275 Q24.459 -21.275 25.495 -20.239 Q26.53 -19.203 26.53 -17.971 V-14.42 Q26.53 -14.42 26.53 -14.42 Q26.53 -14.42 26.53 -14.42 H58.83 L50.003 -23.247 L49.707 -22.951 Q49.263 -22.458 48.647 -22.162 Q48.03 -21.866 47.291 -21.866 Q46.699 -21.866 46.107 -22.113 Q45.515 -22.359 45.022 -22.853 L32.3 -35.674 Q31.215 -36.66 31.338 -38.139 Q31.461 -39.619 32.25 -40.408 Q32.349 -40.506 32.398 -40.556 Q32.448 -40.605 32.546 -40.704 L11.243 -62.007 Q10.158 -63.092 10.158 -64.374 Q10.158 -65.656 11.194 -66.691 Q12.279 -67.776 13.561 -67.776 Q14.843 -67.776 15.879 -66.691 L78.752 -3.966 Q79.837 -2.881 79.837 -1.599 Q79.837 -0.317 78.752 0.768 Q77.716 1.804 76.385 1.804 Q75.054 1.804 73.969 0.768 Z M63.219 -41.887 Q64.254 -40.852 64.254 -39.668 Q64.254 -38.485 63.219 -37.449 L61.197 -35.427 Q60.211 -34.441 58.928 -34.416 Q57.646 -34.392 56.66 -35.378 Q55.674 -36.364 55.674 -37.622 Q55.674 -38.879 56.66 -39.865 L58.731 -41.936 Q59.668 -42.873 60.926 -42.898 Q62.183 -42.923 63.219 -41.887 Z M47.34 -67.332 Q48.671 -67.332 49.658 -66.346 Q50.644 -65.36 50.644 -64.028 V-49.333 Q50.644 -47.657 49.658 -46.843 Q48.671 -46.029 47.34 -46.029 Q46.058 -46.029 45.047 -46.892 Q44.036 -47.755 44.036 -49.284 V-64.028 Q44.036 -65.36 45.022 -66.346 Q46.009 -67.332 47.34 -67.332 Z"/></g><g id="Light-S" transform="matrix(1 0 0 1 1109.75 696)"><path d="M74.822 -1.015  66.329 -9.595 H27.649 Q25.233 -9.595 23.469 -11.31 Q21.705 -13.024 21.705 -15.539 V-18.862 Q21.705 -19.716 22.416 -20.476 Q23.128 -21.237 24.08 -21.237 Q24.914 -21.237 25.675 -20.476 Q26.435 -19.716 26.435 -18.862 V-15.539 Q26.435 -15.084 26.815 -14.705 Q27.194 -14.325 27.649 -14.325 H61.599 L50.97 -24.954 L49.574 -23.558 Q49.168 -23.008 48.599 -22.712 Q48.03 -22.416 47.272 -22.416 Q46.756 -22.416 46.268 -22.625 Q45.781 -22.834 45.307 -23.327 L34.405 -34.289 Q33.548 -35.029 33.681 -36.138 Q33.813 -37.248 34.47 -37.866 Q34.758 -38.135 34.997 -38.185 Q35.236 -38.234 35.524 -38.162 L38.521 -35.203 V-37.403 L13.064 -62.86 Q12.226 -63.699 12.226 -64.563 Q12.226 -65.428 12.996 -66.198 Q13.834 -67.036 14.699 -67.036 Q15.564 -67.036 16.334 -66.198 L78.278 -4.44 Q79.116 -3.602 79.116 -2.727 Q79.116 -1.853 78.278 -1.015 Q77.508 -0.245 76.584 -0.245 Q75.661 -0.245 74.822 -1.015 Z M61.132 -39.649 Q61.94 -38.841 61.95 -38.075 Q61.959 -37.309 61.246 -36.614 L59.528 -34.877 Q58.883 -34.251 58.008 -34.246 Q57.134 -34.24 56.281 -35.112 Q55.636 -35.738 55.636 -36.541 Q55.636 -37.343 56.281 -37.969 L58.086 -39.774 Q58.682 -40.389 59.503 -40.413 Q60.324 -40.438 61.132 -39.649 Z M47.34 -65.568 Q48.292 -65.568 49.003 -64.857 Q49.714 -64.146 49.714 -63.194 V-48.082 Q49.714 -46.879 49.013 -46.284 Q48.311 -45.688 47.34 -45.688 Q46.418 -45.688 45.701 -46.314 Q44.984 -46.94 44.984 -48.013 V-63.194 Q44.984 -64.146 45.686 -64.857 Q46.388 -65.568 47.34 -65.568 Z"/></g><g id="Thin-S" transform="matrix(1 0 0 1 814.015 696)"><path d="M75.676 -2.798  67.221 -11.378 H28.768 Q26.598 -11.378 25.043 -12.884 Q23.488 -14.39 23.488 -16.658 V-19.753 Q23.488 -20.228 23.924 -20.713 Q24.36 -21.199 24.933 -21.199 Q25.369 -21.199 25.855 -20.713 Q26.34 -20.228 26.34 -19.753 V-16.658 Q26.34 -15.748 27.099 -14.989 Q27.858 -14.23 28.768 -14.23 H64.368 L51.937 -26.661 L49.442 -24.165 Q49.074 -23.558 48.552 -23.262 Q48.03 -22.966 47.253 -22.966 Q46.813 -22.966 46.43 -23.137 Q46.047 -23.308 45.591 -23.801 L36.51 -32.905 Q35.88 -33.398 36.023 -34.138 Q36.165 -34.877 36.689 -35.325 Q37.166 -35.765 37.595 -35.814 Q38.024 -35.863 38.502 -35.621 L44.495 -29.703 V-34.103 L14.885 -63.714 Q14.293 -64.305 14.293 -64.753 Q14.293 -65.201 14.797 -65.705 Q15.389 -66.297 15.837 -66.297 Q16.284 -66.297 16.789 -65.705 L77.804 -4.914 Q78.396 -4.322 78.396 -3.856 Q78.396 -3.389 77.804 -2.798 Q77.299 -2.293 76.783 -2.293 Q76.268 -2.293 75.676 -2.798 Z M59.046 -37.411 Q59.626 -36.831 59.645 -36.482 Q59.664 -36.133 59.274 -35.78 L57.859 -34.327 Q57.555 -34.062 57.089 -34.075 Q56.622 -34.088 55.901 -34.847 Q55.598 -35.112 55.598 -35.46 Q55.598 -35.807 55.901 -36.072 L57.441 -37.612 Q57.696 -37.904 58.081 -37.929 Q58.466 -37.954 59.046 -37.411 Z M47.34 -63.805 Q47.913 -63.805 48.349 -63.369 Q48.785 -62.932 48.785 -62.359 V-46.83 Q48.785 -46.102 48.368 -45.724 Q47.951 -45.347 47.34 -45.347 Q46.779 -45.347 46.356 -45.735 Q45.933 -46.124 45.933 -46.743 V-62.359 Q45.933 -62.932 46.35 -63.369 Q46.767 -63.805 47.34 -63.805 Z"/></g><g id="Ultralight-S" transform="matrix(1 0 0 1 517.792 696)"><path d="M76.188 -3.867  67.755 -12.448 H29.44 Q27.418 -12.448 25.988 -13.828 Q24.558 -15.209 24.558 -17.33 V-20.288 Q24.558 -20.535 24.829 -20.855 Q25.1 -21.176 25.445 -21.176 Q25.643 -21.176 25.963 -20.855 Q26.284 -20.535 26.284 -20.288 V-17.33 Q26.284 -16.146 27.27 -15.16 Q28.256 -14.174 29.44 -14.174 H66.029 L52.518 -27.685 L49.362 -24.529 Q49.017 -23.888 48.524 -23.592 Q48.03 -23.296 47.241 -23.296 Q46.847 -23.296 46.526 -23.444 Q46.206 -23.592 45.762 -24.085 L37.773 -32.074 Q37.28 -32.419 37.428 -32.937 Q37.576 -33.455 38.02 -33.8 Q38.612 -34.342 39.154 -34.392 Q39.697 -34.441 40.288 -34.096 L48.08 -26.403 V-32.123 L15.977 -64.226 Q15.533 -64.67 15.533 -64.867 Q15.533 -65.064 15.879 -65.409 Q16.322 -65.853 16.52 -65.853 Q16.717 -65.853 17.062 -65.409 L77.519 -5.199 Q77.963 -4.755 77.963 -4.533 Q77.963 -4.311 77.519 -3.867 Q77.174 -3.522 76.903 -3.522 Q76.632 -3.522 76.188 -3.867 Z M57.794 -36.068 Q58.238 -35.624 58.263 -35.526 Q58.287 -35.427 58.09 -35.279 L56.857 -33.997 Q56.759 -33.948 56.537 -33.973 Q56.315 -33.997 55.674 -34.688 Q55.575 -34.737 55.575 -34.811 Q55.575 -34.885 55.674 -34.934 L57.055 -36.315 Q57.104 -36.413 57.227 -36.438 Q57.35 -36.463 57.794 -36.068 Z M47.34 -62.746 Q47.685 -62.746 47.956 -62.475 Q48.228 -62.204 48.228 -61.859 V-46.079 Q48.228 -45.635 47.981 -45.388 Q47.735 -45.142 47.34 -45.142 Q46.995 -45.142 46.748 -45.388 Q46.502 -45.635 46.502 -45.98 V-61.859 Q46.502 -62.204 46.748 -62.475 Q46.995 -62.746 47.34 -62.746 Z"/></g></g></svg>