<svg xmlns="http://www.w3.org/2000/svg" height="20" viewBox="0 -960 960 960" width="20"><path d="M136-136v-127.385h688V-136H136Zm32-32h624v-63.385H168V-168Zm81.077-158.769V-824h461.846v497.231h-32V-792H281.077v465.231h-32Zm95.384-103.539h19.828q30.173 0 47.25-30.791 17.076-30.792 17.076-86.424 0-55.631-16.926-86.669-16.927-31.039-47.297-31.039h-19.931v234.923Zm203.116-67.384q20.577 0 35.038-14.654 14.462-14.653 14.462-35.231 0-20.577-14.653-35.038-14.654-14.462-35.231-14.462-20.578 0-35.039 14.653-14.462 14.654-14.462 35.231 0 20.578 14.654 35.039 14.653 14.462 35.231 14.462ZM480-168Zm0-391.385Z"/></svg>