<svg xmlns="http://www.w3.org/2000/svg" version="1.1" width="3300" height="2000"><g id="Notes"><style>
    text {
      font-family: monospace;
      text-anchor: middle;
    }
    text.emphasis {
      font-weight:bold;
    }
    text.lanchor {
      text-anchor: start;
    }
  </style><rect height="2200" id="artboard" fill="white" width="3300" x="0" y="0"/><line id="" style="fill:none;stroke:black;stroke-width:0.5;" x1="263" x2="3036" y1="292" y2="292"/><text class="lanchor emphasis" transform="matrix(1 0 0 1 263 322)">Weight/Scale Variations</text><text transform="matrix(1 0 0 1 559.711 322)">Ultralight</text><text transform="matrix(1 0 0 1 856.422 322)">Thin</text><text transform="matrix(1 0 0 1 1153.13 322)">Light</text><text transform="matrix(1 0 0 1 1449.84 322)">Regular</text><text transform="matrix(1 0 0 1 1746.56 322)">Medium</text><text transform="matrix(1 0 0 1 2043.27 322)">Semibold</text><text transform="matrix(1 0 0 1 2339.98 322)">Bold</text><text transform="matrix(1 0 0 1 2636.69 322)">Heavy</text><text transform="matrix(1 0 0 1 2933.4 322)">Black</text><text id="template-version" style="text-anchor: end;" transform="matrix(1 0 0 1 3036 1933)">Template v.1.0</text><text class="lanchor" transform="matrix(1 0 0 1 263 726)">Small</text><text class="lanchor" transform="matrix(1 0 0 1 263 1156)">Medium</text><text class="lanchor" transform="matrix(1 0 0 1 263 1586)">Large</text></g><g id="Guides"><g id="H-reference" style="fill:#27AAE1;stroke:none;" transform="matrix(1 0 0 1 339 696)"><path d="M 54.9316 0 L 57.666 0 L 30.5664 -70.459 L 28.0762 -70.459 L 0.976562 0 L 3.66211 0 L 12.9395 -24.4629 L 45.7031 -24.4629 Z M 29.1992 -67.0898 L 29.4434 -67.0898 L 44.8242 -26.709 L 13.8184 -26.709 Z"/></g><line id="Baseline-S" style="fill:none;stroke:#27AAE1;opacity:1;stroke-width:0.577;" x1="263" x2="3036" y1="696" y2="696"/><line id="Capline-S" style="fill:none;stroke:#27AAE1;opacity:1;stroke-width:0.577;" x1="263" x2="3036" y1="625.541" y2="625.541"/><g id="H-reference" style="fill:#27AAE1;stroke:none;" transform="matrix(1 0 0 1 339 1126)"><path d="M 54.9316 0 L 57.666 0 L 30.5664 -70.459 L 28.0762 -70.459 L 0.976562 0 L 3.66211 0 L 12.9395 -24.4629 L 45.7031 -24.4629 Z M 29.1992 -67.0898 L 29.4434 -67.0898 L 44.8242 -26.709 L 13.8184 -26.709 Z"/></g><line id="Baseline-M" style="fill:none;stroke:#27AAE1;opacity:1;stroke-width:0.577;" x1="263" x2="3036" y1="1126" y2="1126"/><line id="Capline-M" style="fill:none;stroke:#27AAE1;opacity:1;stroke-width:0.577;" x1="263" x2="3036" y1="1055.54" y2="1055.54"/><g id="H-reference" style="fill:#27AAE1;stroke:none;" transform="matrix(1 0 0 1 339 1556)"><path d="M 54.9316 0 L 57.666 0 L 30.5664 -70.459 L 28.0762 -70.459 L 0.976562 0 L 3.66211 0 L 12.9395 -24.4629 L 45.7031 -24.4629 Z M 29.1992 -67.0898 L 29.4434 -67.0898 L 44.8242 -26.709 L 13.8184 -26.709 Z"/></g><line id="Baseline-L" style="fill:none;stroke:#27AAE1;opacity:1;stroke-width:0.577;" x1="263" x2="3036" y1="1556" y2="1556"/><line id="Capline-L" style="fill:none;stroke:#27AAE1;opacity:1;stroke-width:0.577;" x1="263" x2="3036" y1="1485.54" y2="1485.54"/><rect height="119.336" id="left-margin" style="fill:darkred;stroke:none;opacity:0.4;" width="12.4512" x="1394.06" y="1030.79"/><rect height="119.336" id="right-margin" style="fill:darkgreen;stroke:none;opacity:0.4;" width="12.4512" x="1502.5112" y="1030.79"/><rect x="1406.5112" y="1045" width="96" height="96" fill="none" stroke="blue" stroke-dasharray="5"/><rect x="1394.06" y="1030.79" width="120.9024" height="119.336" fill="none" stroke="blue"/></g><g id="Symbols"><g id="Bold-L" transform="matrix(1 0 0 1 2266 1556)"><path d="M61.92 7.018 V-77.155 H146.093 V7.018 H61.92 Z M77.078 -8.301 H130.774 V-61.997 H77.078 V-8.301 Z M35.314 7.018 V-8.301 H50.633 V7.018 H35.314 Z M35.314 -61.997 V-77.155 H50.633 V-61.997 H35.314 Z M8.869 7.018 V-8.301 H24.026 V7.018 H8.869 Z M8.869 -27.49 V-42.809 H24.026 V-27.49 H8.869 Z M8.869 -61.997 V-77.155 H24.026 V-61.997 H8.869 Z"/></g><g id="Semibold-L" transform="matrix(1 0 0 1 1970.27 1556)"><path d="M63.042 5.475 V-75.753 H144.27 V5.475 H63.042 Z M75.816 -7.39 H131.405 V-62.979 H75.816 V-7.39 Z M36.786 5.475 V-7.39 H49.651 V5.475 H36.786 Z M36.786 -62.979 V-75.753 H49.651 V-62.979 H36.786 Z M10.621 5.475 V-7.39 H23.395 V5.475 H10.621 Z M10.621 -28.752 V-41.617 H23.395 V-28.752 H10.621 Z M10.621 -62.979 V-75.753 H23.395 V-62.979 H10.621 Z"/></g><g id="Medium-L" transform="matrix(1 0 0 1 1674.31 1556)"><path d="M63.883 4.318 V-74.701 H142.903 V4.318 H63.883 Z M74.869 -6.706 H131.878 V-63.715 H74.869 V-6.706 Z M37.89 4.318 V-6.706 H48.915 V4.318 H37.89 Z M37.89 -63.715 V-74.701 H48.915 V-63.715 H37.89 Z M11.936 4.318 V-6.706 H22.922 V4.318 H11.936 Z M11.936 -29.698 V-40.723 H22.922 V-29.698 H11.936 Z M11.936 -63.715 V-74.701 H22.922 V-63.715 H11.936 Z"/></g><g id="Regular-L" transform="matrix(1 0 0 1 1378.56 1556)"><path d="M64.5 3.47 V-73.93 H141.9 V3.47 H64.5 Z M74.175 -6.205 H132.225 V-64.255 H74.175 V-6.205 Z M38.7 3.47 V-6.205 H48.375 V3.47 H38.7 Z M38.7 -64.255 V-73.93 H48.375 V-64.255 H38.7 Z M12.9 3.47 V-6.205 H22.575 V3.47 H12.9 Z M12.9 -30.392 V-40.067 H22.575 V-30.392 H12.9 Z M12.9 -64.255 V-73.93 H22.575 V-64.255 H12.9 Z"/></g><g id="Light-L" transform="matrix(1 0 0 1 1082.77 1556)"><path d="M67.477 0.369 V-70.829 H138.675 V0.369 H67.477 Z M74.795 -6.949 H131.357 V-63.511 H74.795 V-6.949 Z M41.801 0.369 V-7.693 H49.863 V0.369 H41.801 Z M41.801 -62.767 V-70.829 H49.863 V-62.767 H41.801 Z M16.125 0.369 V-7.693 H24.188 V0.369 H16.125 Z M16.125 -31.199 V-39.261 H24.188 V-31.199 H16.125 Z M16.125 -62.767 V-70.829 H24.188 V-62.767 H16.125 Z"/></g><g id="Thin-L" transform="matrix(1 0 0 1 787.282 1556)"><path d="M70.454 -2.732 V-67.728 H135.45 V-2.732 H70.454 Z M75.415 -7.693 H130.488 V-62.767 H75.415 V-7.693 Z M44.902 -2.732 V-9.182 H51.352 V-2.732 H44.902 Z M44.902 -61.278 V-67.728 H51.352 V-61.278 H44.902 Z M19.35 -2.732 V-9.182 H25.8 V-2.732 H19.35 Z M19.35 -32.005 V-38.455 H25.8 V-32.005 H19.35 Z M19.35 -61.278 V-67.728 H25.8 V-61.278 H19.35 Z"/></g><g id="Ultralight-L" transform="matrix(1 0 0 1 491.205 1556)"><path d="M72.24 -4.592 V-65.867 H133.515 V-4.592 H72.24 Z M75.788 -8.14 H129.968 V-62.32 H75.788 V-8.14 Z M46.763 -4.592 V-10.075 H52.245 V-4.592 H46.763 Z M46.763 -60.385 V-65.867 H52.245 V-60.385 H46.763 Z M21.285 -4.592 V-10.075 H26.768 V-4.592 H21.285 Z M21.285 -32.489 V-37.971 H26.768 V-32.489 H21.285 Z M21.285 -60.385 V-65.867 H26.768 V-60.385 H21.285 Z"/></g><g id="Bold-M" transform="matrix(1 0 0 1 2281.8 1126)"><path d="M47.25 -1.605 V-68.605 H114.25 V-1.605 H47.25 Z M63 -17.355 H98.5 V-52.855 H63 V-17.355 Z M26.5 -1.605 V-17.355 H42.25 V-1.605 H26.5 Z M26.5 -52.855 V-68.605 H42.25 V-52.855 H26.5 Z M5.75 -1.605 V-17.355 H21.5 V-1.605 H5.75 Z M5.75 -27.23 V-42.98 H21.5 V-27.23 H5.75 Z M5.75 -52.855 V-68.605 H21.5 V-52.855 H5.75 Z"/></g><g id="Semibold-M" transform="matrix(1 0 0 1 1985.97 1126)"><path d="M48.446 -3.181 V-67.138 H112.402 V-3.181 H48.446 Z M61.696 -16.431 H99.152 V-53.887 H61.696 V-16.431 Z M28.022 -3.181 V-16.431 H41.272 V-3.181 H28.022 Z M28.022 -53.887 V-67.138 H41.272 V-53.887 H28.022 Z M7.598 -3.181 V-16.431 H20.848 V-3.181 H7.598 Z M7.598 -28.534 V-41.784 H20.848 V-28.534 H7.598 Z M7.598 -53.887 V-67.138 H20.848 V-53.887 H7.598 Z"/></g><g id="Medium-M" transform="matrix(1 0 0 1 1689.91 1126)"><path d="M49.342 -4.363 V-66.037 H111.016 V-4.363 H49.342 Z M60.717 -15.738 H99.641 V-54.662 H60.717 V-15.738 Z M29.163 -4.363 V-15.738 H40.538 V-4.363 H29.163 Z M29.163 -54.662 V-66.037 H40.538 V-54.662 H29.163 Z M8.984 -4.363 V-15.738 H20.359 V-4.363 H8.984 Z M8.984 -29.513 V-40.888 H20.359 V-29.513 H8.984 Z M8.984 -54.662 V-66.037 H20.359 V-54.662 H8.984 Z"/></g><g id="Regular-M" transform="matrix(1 0 0 1 1394.06 1126)"><path d="M50 -5.23 V-65.23 H110 V-5.23 H50 Z M60 -15.23 H100 V-55.23 H60 V-15.23 Z M30 -5.23 V-15.23 H40 V-5.23 H30 Z M30 -55.23 V-65.23 H40 V-55.23 H30 Z M10 -5.23 V-15.23 H20 V-5.23 H10 Z M10 -30.23 V-40.23 H20 V-30.23 H10 Z M10 -55.23 V-65.23 H20 V-55.23 H10 Z"/></g><g id="Light-M" transform="matrix(1 0 0 1 1098.18 1126)"><path d="M52.308 -7.634 V-62.826 H107.5 V-7.634 H52.308 Z M59.808 -15.134 H100 V-55.326 H59.808 V-15.134 Z M32.404 -7.634 V-15.711 H40.481 V-7.634 H32.404 Z M32.404 -54.749 V-62.826 H40.481 V-54.749 H32.404 Z M12.5 -7.634 V-15.711 H20.577 V-7.634 H12.5 Z M12.5 -31.192 V-39.268 H20.577 V-31.192 H12.5 Z M12.5 -54.749 V-62.826 H20.577 V-54.749 H12.5 Z"/></g><g id="Thin-M" transform="matrix(1 0 0 1 802.565 1126)"><path d="M54.615 -10.038 V-60.422 H105 V-10.038 H54.615 Z M59.615 -15.038 H100 V-55.422 H59.615 V-15.038 Z M34.808 -10.038 V-16.191 H40.962 V-10.038 H34.808 Z M34.808 -54.268 V-60.422 H40.962 V-54.268 H34.808 Z M15 -10.038 V-16.191 H21.154 V-10.038 H15 Z M15 -32.153 V-38.307 H21.154 V-32.153 H15 Z M15 -54.268 V-60.422 H21.154 V-54.268 H15 Z"/></g><g id="Ultralight-M" transform="matrix(1 0 0 1 506.415 1126)"><path d="M56 -11.48 V-58.98 H103.5 V-11.48 H56 Z M59.5 -14.98 H100 V-55.48 H59.5 V-14.98 Z M36.25 -11.48 V-16.48 H41.25 V-11.48 H36.25 Z M36.25 -53.98 V-58.98 H41.25 V-53.98 H36.25 Z M16.5 -11.48 V-16.48 H21.5 V-11.48 H16.5 Z M16.5 -32.73 V-37.73 H21.5 V-32.73 H16.5 Z M16.5 -53.98 V-58.98 H21.5 V-53.98 H16.5 Z"/></g><g id="Bold-S" transform="matrix(1 0 0 1 2294.23 696)"><path d="M35.702 -8.7 V-61.563 H88.565 V-8.7 H35.702 Z M47.34 -20.338 H76.928 V-49.925 H47.34 V-20.338 Z M20.909 -8.7 V-20.338 H32.546 V-8.7 H20.909 Z M20.909 -49.925 V-61.563 H32.546 V-49.925 H20.909 Z M6.115 -8.7 V-20.338 H17.753 V-8.7 H6.115 Z M6.115 -29.312 V-40.95 H17.753 V-29.312 H6.115 Z M6.115 -49.925 V-61.563 H17.753 V-49.925 H6.115 Z"/></g><g id="Semibold-S" transform="matrix(1 0 0 1 1998.1 696)"><path d="M36.646 -9.943 V-60.405 H87.107 V-9.943 H36.646 Z M46.311 -19.609 H77.442 V-50.74 H46.311 V-19.609 Z M22.109 -9.943 V-19.609 H31.774 V-9.943 H22.109 Z M22.109 -50.74 V-60.405 H31.774 V-50.74 H22.109 Z M7.573 -9.943 V-19.609 H17.238 V-9.943 H7.573 Z M7.573 -30.342 V-40.007 H17.238 V-30.342 H7.573 Z M7.573 -50.74 V-60.405 H17.238 V-50.74 H7.573 Z"/></g><g id="Medium-S" transform="matrix(1 0 0 1 1701.85 696)"><path d="M37.353 -10.876 V-59.537 H86.014 V-10.876 H37.353 Z M45.539 -19.062 H77.828 V-51.351 H45.539 V-19.062 Z M23.01 -10.876 V-19.062 H31.195 V-10.876 H23.01 Z M23.01 -51.351 V-59.537 H31.195 V-51.351 H23.01 Z M8.666 -10.876 V-19.062 H16.852 V-10.876 H8.666 Z M8.666 -31.113 V-39.299 H16.852 V-31.113 H8.666 Z M8.666 -51.351 V-59.537 H16.852 V-51.351 H8.666 Z"/></g><g id="Regular-S" transform="matrix(1 0 0 1 1405.73 696)"><path d="M37.872 -11.56 V-58.9 H85.212 V-11.56 H37.872 Z M44.973 -18.661 H78.111 V-51.799 H44.973 V-18.661 Z M23.67 -11.56 V-18.661 H30.771 V-11.56 H23.67 Z M23.67 -51.799 V-58.9 H30.771 V-51.799 H23.67 Z M9.468 -11.56 V-18.661 H16.569 V-11.56 H9.468 Z M9.468 -31.679 V-38.78 H16.569 V-31.679 H9.468 Z M9.468 -51.799 V-58.9 H16.569 V-51.799 H9.468 Z"/></g><g id="Light-S" transform="matrix(1 0 0 1 1109.75 696)"><path d="M39.693 -13.457 V-57.003 H83.239 V-13.457 H39.693 Z M44.821 -18.585 H78.111 V-51.875 H44.821 V-18.585 Z M25.567 -13.457 V-19.04 H31.15 V-13.457 H25.567 Z M25.567 -51.42 V-57.003 H31.15 V-51.42 H25.567 Z M11.441 -13.457 V-19.04 H17.024 V-13.457 H11.441 Z M11.441 -32.438 V-38.022 H17.024 V-32.438 H11.441 Z M11.441 -51.42 V-57.003 H17.024 V-51.42 H11.441 Z"/></g><g id="Thin-S" transform="matrix(1 0 0 1 814.015 696)"><path d="M41.514 -15.353 V-55.107 H81.267 V-15.353 H41.514 Z M44.67 -18.509 H78.111 V-51.951 H44.67 V-18.509 Z M27.463 -15.353 V-19.42 H31.53 V-15.353 H27.463 Z M27.463 -51.04 V-55.107 H31.53 V-51.04 H27.463 Z M13.413 -15.353 V-19.42 H17.479 V-15.353 H13.413 Z M13.413 -33.197 V-37.263 H17.479 V-33.197 H13.413 Z M13.413 -51.04 V-55.107 H17.479 V-51.04 H13.413 Z"/></g><g id="Ultralight-S" transform="matrix(1 0 0 1 517.792 696)"><path d="M42.606 -16.491 V-53.969 H80.084 V-16.491 H42.606 Z M44.579 -18.464 H78.111 V-51.996 H44.579 V-18.464 Z M28.601 -16.491 V-19.647 H31.757 V-16.491 H28.601 Z M28.601 -50.813 V-53.969 H31.757 V-50.813 H28.601 Z M14.597 -16.491 V-19.647 H17.753 V-16.491 H14.597 Z M14.597 -33.652 V-36.808 H17.753 V-33.652 H14.597 Z M14.597 -50.813 V-53.969 H17.753 V-50.813 H14.597 Z"/></g></g></svg>