<svg xmlns="http://www.w3.org/2000/svg" height="40" viewBox="0 -960 960 960" width="40"><path d="M613.859-82.82q-92.118 0-162.469-54.885-70.352-54.885-92.326-140.462 21.372-.141 41.566-1.874 20.194-1.733 38.985-6.933h239.126q2.056-15.617 3.042-31.607.986-15.99.986-32.102 0-12.918-.807-27.42-.808-14.502-2.637-29.025h-67.851q6.597-7.052 11.856-15.437 5.26-8.384 10.824-16.999H825.41q-20.525-45.936-58.839-79.923t-86.84-48.436q.667-7.603 1.673-16.195 1.006-8.593.929-17.382 85.077 22.872 139.962 92.999 54.885 70.126 54.885 161.706 0 109.99-76.797 186.982Q723.586-82.82 613.859-82.82Zm-42.91-38.423q-18.808-31.872-31.105-65.176-12.297-33.305-18.286-68.119H402.577q22.743 51.756 67.039 87.223 44.296 35.467 101.333 46.072Zm42.598 6.038q23.056-33.308 37.664-67.685 14.607-34.378 21.917-71.648h-119.41q6.051 30.784 21.429 68.405 15.379 37.62 38.4 70.928Zm42.505-6.038q56.589-10.526 101.493-46.032 44.904-35.507 68.365-87.263H706.137q-7.021 35.675-19.15 68.616-12.128 32.94-30.935 64.679Zm55.615-165.731h125.671q3.714-13.898 5.56-28.914 1.846-15.015 1.846-31.115 0-15.916-1.86-30.685-1.859-14.77-5.882-29.44H711.667q1.923 14.583 2.803 28.817.881 14.234.881 28.315 0 15.639-.881 31.522-.88 15.883-2.803 31.5Zm-364.598-62.693q-110.193 0-187.221-77.188Q82.82-504.044 82.82-614.084q0-109.596 77.037-186.346t187.09-76.75q109.886 0 186.886 76.745t77 186.668q0 109.698-76.785 186.899-76.786 77.201-186.979 77.201Zm-.043-32.436q95.666 0 163.519-67.989 67.853-67.99 67.853-163.914 0-95.033-67.946-162.885-67.946-67.853-163.808-67.853-95.569 0-163.478 68.04-67.91 68.039-67.91 163.379 0 95.403 68.052 163.313 68.053 67.909 163.718 67.909Zm-94.879-263.256q9.987 0 17.459-7.139 7.471-7.139 7.471-18.552 0-10.976-7.617-18.091-7.618-7.116-17.858-7.116-11.038 0-18.23 7.204-7.193 7.203-7.193 18.109 0 11.316 7.173 18.45 7.173 7.135 18.795 7.135Zm94.84 164.487q37.81 0 69.584-17.475t51.826-46.397l-242.987-.769q19.72 29.691 51.744 47.166 32.023 17.475 69.833 17.475Zm95.782-164.487q9.577 0 17.526-7.139t7.949-18.552q0-10.976-8.033-18.091-8.032-7.116-18.16-7.116-10.654 0-17.679 7.252-7.026 7.251-7.026 18.228 0 11.003 7.007 18.21 7.006 7.208 18.416 7.208Zm-95.974 31.5Z"/></svg>