<svg xmlns="http://www.w3.org/2000/svg" height="20" viewBox="0 -960 960 960" width="20"><path d="M575.782-63.87q-21.675 0-42.794-8.807-21.119-8.807-36.597-24.388l-203.87-203.391 64.544-63.587 113.13 28.804v-335.804h79.175v439.369l-103.392-27.608 106.284 106.509q4.434 4.447 10.507 7.088 6.073 2.642 13.013 2.642h195.96q32.99 0 56.483-23.622 23.493-23.621 23.493-56.791v-226.805h79.174v226.805q0 66.674-46.457 113.13-46.456 46.457-113.13 46.457H575.782Zm21.588-287.043v-199.174h79.174v199.174H597.37Zm127.174 0v-141.608h79.174v141.608h-79.174Zm46.761 207.87H552.174h219.131ZM87.869-183.869v-640.262h736.262v250.044H741.13V-741.13H170.87v474.26h57.782l83.478 83.001H87.87Z"/></svg>