<svg xmlns="http://www.w3.org/2000/svg" height="20" viewBox="0 -960 960 960" width="20"><path d="M280-259.727h-21.609q-2.13 0-10.391 10.361 0 1.992 10.391 9.366h95.522q3.131 0 9.392-9.391 0-4.131-2.631-7.261-2.63-3.131-6.761-3.131h-47.261l40.761-123.26h138.143l39.487 123.26h-43.261q-3.131 0-9.392 10.392 0 2 9.253 9.391h231.27q2.131 0 10.392-9.391 0-4.131-2.881-7.261-2.88-3.131-7.511-3.131h-20.477L541.853-690.195q-4.113-13.587-16.477-21.696Q513.012-720 498.744-720h-30.509q-13.887 0-26.159 8.359-12.272 8.359-16.403 21.946L280-259.727Zm73.543-143.968 62.609-188.435 62.804 188.435H353.543ZM179.783-86.782q-38.942 0-65.972-27.029-27.03-27.03-27.03-65.972v-600.434q0-38.942 27.03-65.972 27.03-27.029 65.972-27.029h600.434q38.942 0 65.972 27.029 27.029 27.03 27.029 65.972v600.434q0 38.942-27.029 65.972-27.03 27.03-65.972 27.03H179.783Zm0-93.001h600.434v-600.434H179.783v600.434Zm0 0v-600.434 600.434Z"/></svg>