<svg xmlns="http://www.w3.org/2000/svg" height="48" viewBox="0 -960 960 960" width="48"><path d="M111.5-20q-38.019 0-64.76-26.74Q20-73.482 20-111.5V-190q0-18.675 13.425-32.087 13.426-13.413 32.5-13.413 19.075 0 32.325 13.413Q111.5-208.675 111.5-190v78.5H190q18.675 0 32.087 13.463Q235.5-84.574 235.5-65.825q0 19.325-13.413 32.575Q208.675-20 190-20h-78.5Zm738 0h-78q-19.25 0-32.375-13.535T726-65.925q0-18.856 13.125-32.216Q752.25-111.5 771.5-111.5h78V-190q0-18.675 13.425-32.087 13.426-13.413 32.5-13.413 19.075 0 32.325 13.413Q941-208.675 941-190v78.5q0 38.019-26.741 64.76Q887.519-20 849.5-20ZM478.939-207.5Q369-207.5 276.25-264.75T125.5-422.5q-8-12.5-11.5-26.974-3.5-14.473-3.5-29.526 0-15 3.75-30t11.25-28.5q57.955-100.876 150.042-159.188Q367.629-755 478-755q110 0 204 57.75t151.947 158.695Q841.5-525 845.75-510.25 850-495.5 850-481t-4.75 30.02q-4.75 15.521-12.303 29.59-57.122 100.034-151.096 156.962Q587.878-207.5 478.939-207.5Zm-.573-84.5q90.882 0 169.758-50.727Q727-393.455 770-480.477 727-567.5 648.248-619T478-670.5q-90.744 0-168.372 51.5Q232-567.5 189.5-480.25q42.5 86.75 120.243 137.5Q387.485-292 478.366-292Zm.977-56.5q56.157 0 96.407-39.233Q616-426.965 616-480.343q0-53.743-40.154-93.2T479.346-613Q425-613 388.25-574.639q-36.75 38.361-36.75 94.293 0 55.932 37.026 93.889 37.025 37.957 90.817 37.957Zm-.049-76.5q-23.794 0-39.044-15.913Q425-456.826 425-480.059 425-503.5 440.266-520q15.266-16.5 39.146-16.5 24.088 0 40.088 16.35 16 16.351 16 40.209 0 23.441-16.248 39.191Q503.005-425 479.294-425ZM190-849.5h-78.5V-726H20v-123.5q0-38.019 26.74-64.759Q73.482-941 111.5-941H190q18.675 0 32.087 13.463 13.413 13.463 13.413 32.212 0 19.325-13.413 32.575Q208.675-849.5 190-849.5Zm751 0v78q0 19.25-13.535 32.375T895.075-726q-18.856 0-32.216-13.125Q849.5-752.25 849.5-771.5v-78h-78q-19.25 0-32.375-13.535T726-895.425q0-18.856 13.125-32.216Q752.25-941 771.5-941h78q38.019 0 64.759 26.741Q941-887.519 941-849.5Zm-460.5 367Z"/></svg>