<svg xmlns="http://www.w3.org/2000/svg" height="40" viewBox="0 -960 960 960" width="40"><path d="M144-70.667q-30.575 0-51.954-21.38Q70.667-113.424 70.667-144v-83.333q0-8.45 6.251-14.725 6.252-6.275 14.667-6.275T106-242.058q6 6.275 6 14.725V-144q0 14 9 23t23 9h83.333q8.45 0 14.725 6.129 6.275 6.128 6.275 14.543 0 8.416-6.275 14.538-6.275 6.123-14.725 6.123H144Zm672 0h-83.333q-8.167 0-14.25-6.251-6.084-6.252-6.084-14.667T718.417-106q6.083-6 14.25-6H816q14 0 23-9t9-23v-83.333q0-8.45 6.251-14.725 6.252-6.275 14.667-6.275t14.415 6.275q6 6.275 6 14.725V-144q0 30.575-21.379 51.954T816-70.667ZM480.553-246.334q-98.22 0-178.053-48T172.667-433q-6.667-10.667-9.333-21.592-2.667-10.925-2.667-23.609 0-12.522 3.333-24.994 3.334-12.472 8.667-23.805 50-90 129.5-139t178.386-49q98.886 0 178 49t129.78 139q6 11.216 9.167 23.275 3.166 12.058 3.166 23.725 0 11.667-3.333 23.833Q794-444 788.333-433q-50.666 90.666-130.114 138.666-79.447 48-177.666 48Zm-.22-41.333q92.334 0 166.667-50.166Q721.333-388 764.667-480q-43.334-92-117.792-142.833-74.459-50.834-166.208-50.834-92.667 0-166.711 50.856Q239.912-571.956 195.667-480q44 92 118.166 142.167 74.167 50.166 166.5 50.166ZM480.104-370q46.381 0 78.472-31.724 32.091-31.723 32.091-78.38 0-46.381-32.105-78.472-32.104-32.091-78.666-32.091-46.563 0-78.229 32.105Q370-526.458 370-479.896q0 46.563 31.724 78.229Q433.447-370 480.104-370Zm.19-41.333q-28.98 0-48.971-20.049-19.99-20.049-19.99-48.834 0-28.784 20.049-48.951t48.834-20.167q28.784 0 48.951 19.891t20.167 49.149q0 28.98-19.891 48.971-19.891 19.99-49.149 19.99ZM227.333-848H144q-14 0-23 9t-9 23v103.667H70.667V-816q0-30.575 21.38-51.954 21.378-21.379 51.953-21.379h83.333q8.45 0 14.725 6.129 6.275 6.128 6.275 14.543t-6.275 14.538Q235.783-848 227.333-848Zm662 32v83.333q0 8.167-6.129 14.25-6.128 6.084-14.543 6.084t-14.538-6.084Q848-724.5 848-732.667V-816q0-14-9-23t-23-9h-83.333q-8.167 0-14.25-6.251-6.084-6.252-6.084-14.667t6.084-14.415q6.083-6 14.25-6H816q30.575 0 51.954 21.379T889.333-816ZM481-480Z"/></svg>