<svg xmlns="http://www.w3.org/2000/svg" height="20" viewBox="0 -960 960 960" width="20"><path d="M144.615-88Q117-88 102.5-102.5 88-117 88-144.615v-88.616q0-6.838 4.52-11.419t11.269-4.581q6.749 0 11.48 4.581Q120-240.069 120-233.231v88.616q0 10.769 6.923 17.692T144.615-120h88.616q6.838 0 11.419 4.52 4.581 4.521 4.581 11.27t-4.581 11.48Q240.069-88 233.231-88h-88.616Zm670.77 0h-88.616q-6.838 0-11.419-4.52t-4.581-11.269q0-6.749 4.581-11.48Q719.931-120 726.769-120h88.616q10.769 0 17.692-6.923T840-144.615v-88.616q0-6.838 4.52-11.419 4.521-4.581 11.27-4.581t11.479 4.581Q872-240.069 872-233.231v88.616Q872-117 857.5-102.5 843-88 815.385-88ZM479.969-270.769q-89.738 0-162.585-45.077-72.846-45.077-117.315-126.376-4.915-8.701-6.646-17.907-1.731-9.205-1.731-18.871 0-8.923 2.231-19.5t6.461-19.269q44.154-81.308 117.031-126.385 72.877-45.077 162.616-45.077 89.738 0 162.584 45.077 72.847 45.077 117.316 126.376 4.915 8.701 6.646 18.778 1.731 10.077 1.731 19t-2.231 19q-2.231 10.077-6.461 18.769-44.154 81.308-117.031 126.385-72.877 45.077-162.616 45.077Zm-.094-32q86.202 0 154.487-46.339Q702.647-395.446 741.846-480q-39.147-84.554-107.333-130.892-68.187-46.339-154.388-46.339-86.202 0-154.487 46.339Q257.353-564.554 218.154-480q39.147 84.554 107.333 130.892 68.187 46.339 154.388 46.339Zm.347-70.615q44.778 0 75.586-31.03t30.808-75.808q0-44.778-31.03-75.586t-75.808-30.808q-44.778 0-75.586 31.03t-30.808 75.808q0 44.778 31.03 75.586t75.808 30.808ZM480-405.385q-31.154 0-52.885-21.73-21.73-21.731-21.73-52.885 0-31.154 21.73-52.885 21.731-21.73 52.885-21.73 31.154 0 52.885 21.73 21.73 21.731 21.73 52.885 0 31.154-21.73 52.885-21.731 21.73-52.885 21.73ZM233.231-840h-88.616q-10.769 0-17.692 6.923T120-815.385v104.616H88v-104.616Q88-843 102.5-857.5 117-872 144.615-872h88.616q6.838 0 11.419 4.52t4.581 11.269q0 6.749-4.581 11.48Q240.069-840 233.231-840ZM872-815.385v88.616q0 6.838-4.52 11.419t-11.269 4.581q-6.749 0-11.48-4.581Q840-719.931 840-726.769v-88.616q0-10.769-6.923-17.692T815.385-840h-88.616q-6.838 0-11.419-4.52-4.581-4.521-4.581-11.27t4.581-11.479Q719.931-872 726.769-872h88.616Q843-872 857.5-857.5 872-843 872-815.385ZM480-480Z"/></svg>