<svg xmlns="http://www.w3.org/2000/svg" height="20" viewBox="0 -960 960 960" width="20"><path d="M619.271-60.652q-11.171 0-18.264-8.707-7.094-8.706-7.094-19.532V-217.5q0-21.639 15.474-37.113t37.113-15.474h46.826L821.782-141.63v54.174q0 10.347-6.939 18.576-6.939 8.228-17.582 8.228h-177.99Zm150.442 7.344L48.634-773.626q-15.59-15.352-15.59-35.393 0-20.042 15.239-34.916 14.974-15 35.465-15 20.491 0 36.082 15.337l721.079 720.109q15.591 15.532 15.471 35.604-.119 20.071-15.287 35-14.994 15.168-35.391 15.168-20.398 0-35.989-15.591Zm33.635-219.257-44.718-44.718v-.804q0-15.061-10.404-25.53-10.405-10.47-25.786-10.47-1.331 0-.712.381.62.38-1.141-.62l-34.478-34.478q8.61-3.637 18.066-5.699 9.455-2.062 18.396-2.062 33.238 0 57.007 22.753 23.77 22.753 23.77 55.812v45.435Zm-275.5-331.718v-294.065q115.391 18.283 194.685 99.098 79.293 80.815 79.293 194.967H527.848Zm101.782 159-66.826-64.826h239.022v57.305q-18.239-7.239-38.478-11.239-20.239-4-40.65-4-26.232 0-49.65 6t-43.418 16.76ZM481.761-59.653q-134.792 0-229.19-93.466-94.397-93.467-94.397-228.359v-128.631h295.13l114.935 115.174q-21.294 25.751-33.81 58.552-12.516 32.8-12.516 69.057v204.452q-10.685.889-20.679 2.055-9.995 1.167-19.473 1.167ZM433.674-639 254.326-816.066q35.717-32.521 82.157-53.554 46.44-21.034 97.191-27.967V-639Zm-275.5 34.717q0-43.239 11.926-81.478t35.074-72.478L359.13-604.283H158.174Z"/></svg>