<svg xmlns="http://www.w3.org/2000/svg" version="1.1" width="3300" height="2000"><g id="Notes"><style>
    text {
      font-family: monospace;
      text-anchor: middle;
    }
    text.emphasis {
      font-weight:bold;
    }
    text.lanchor {
      text-anchor: start;
    }
  </style><rect height="2200" id="artboard" fill="white" width="3300" x="0" y="0"/><line id="" style="fill:none;stroke:black;stroke-width:0.5;" x1="263" x2="3036" y1="292" y2="292"/><text class="lanchor emphasis" transform="matrix(1 0 0 1 263 322)">Weight/Scale Variations</text><text transform="matrix(1 0 0 1 559.711 322)">Ultralight</text><text transform="matrix(1 0 0 1 856.422 322)">Thin</text><text transform="matrix(1 0 0 1 1153.13 322)">Light</text><text transform="matrix(1 0 0 1 1449.84 322)">Regular</text><text transform="matrix(1 0 0 1 1746.56 322)">Medium</text><text transform="matrix(1 0 0 1 2043.27 322)">Semibold</text><text transform="matrix(1 0 0 1 2339.98 322)">Bold</text><text transform="matrix(1 0 0 1 2636.69 322)">Heavy</text><text transform="matrix(1 0 0 1 2933.4 322)">Black</text><text id="template-version" style="text-anchor: end;" transform="matrix(1 0 0 1 3036 1933)">Template v.1.0</text><text class="lanchor" transform="matrix(1 0 0 1 263 726)">Small</text><text class="lanchor" transform="matrix(1 0 0 1 263 1156)">Medium</text><text class="lanchor" transform="matrix(1 0 0 1 263 1586)">Large</text></g><g id="Guides"><g id="H-reference" style="fill:#27AAE1;stroke:none;" transform="matrix(1 0 0 1 339 696)"><path d="M 54.9316 0 L 57.666 0 L 30.5664 -70.459 L 28.0762 -70.459 L 0.976562 0 L 3.66211 0 L 12.9395 -24.4629 L 45.7031 -24.4629 Z M 29.1992 -67.0898 L 29.4434 -67.0898 L 44.8242 -26.709 L 13.8184 -26.709 Z"/></g><line id="Baseline-S" style="fill:none;stroke:#27AAE1;opacity:1;stroke-width:0.577;" x1="263" x2="3036" y1="696" y2="696"/><line id="Capline-S" style="fill:none;stroke:#27AAE1;opacity:1;stroke-width:0.577;" x1="263" x2="3036" y1="625.541" y2="625.541"/><g id="H-reference" style="fill:#27AAE1;stroke:none;" transform="matrix(1 0 0 1 339 1126)"><path d="M 54.9316 0 L 57.666 0 L 30.5664 -70.459 L 28.0762 -70.459 L 0.976562 0 L 3.66211 0 L 12.9395 -24.4629 L 45.7031 -24.4629 Z M 29.1992 -67.0898 L 29.4434 -67.0898 L 44.8242 -26.709 L 13.8184 -26.709 Z"/></g><line id="Baseline-M" style="fill:none;stroke:#27AAE1;opacity:1;stroke-width:0.577;" x1="263" x2="3036" y1="1126" y2="1126"/><line id="Capline-M" style="fill:none;stroke:#27AAE1;opacity:1;stroke-width:0.577;" x1="263" x2="3036" y1="1055.54" y2="1055.54"/><g id="H-reference" style="fill:#27AAE1;stroke:none;" transform="matrix(1 0 0 1 339 1556)"><path d="M 54.9316 0 L 57.666 0 L 30.5664 -70.459 L 28.0762 -70.459 L 0.976562 0 L 3.66211 0 L 12.9395 -24.4629 L 45.7031 -24.4629 Z M 29.1992 -67.0898 L 29.4434 -67.0898 L 44.8242 -26.709 L 13.8184 -26.709 Z"/></g><line id="Baseline-L" style="fill:none;stroke:#27AAE1;opacity:1;stroke-width:0.577;" x1="263" x2="3036" y1="1556" y2="1556"/><line id="Capline-L" style="fill:none;stroke:#27AAE1;opacity:1;stroke-width:0.577;" x1="263" x2="3036" y1="1485.54" y2="1485.54"/><rect height="119.336" id="left-margin" style="fill:darkred;stroke:none;opacity:0.4;" width="12.4512" x="1394.06" y="1030.79"/><rect height="119.336" id="right-margin" style="fill:darkgreen;stroke:none;opacity:0.4;" width="12.4512" x="1502.5112" y="1030.79"/><rect x="1406.5112" y="1045" width="96" height="96" fill="none" stroke="blue" stroke-dasharray="5"/><rect x="1394.06" y="1030.79" width="120.9024" height="119.336" fill="none" stroke="blue"/></g><g id="Symbols"><g id="Bold-L" transform="matrix(1 0 0 1 2266 1556)"><path d="M77.225 0.084 Q89.342 0.084 97.561 -8.021 Q105.78 -16.127 105.78 -28.258 Q105.78 -40.39 97.58 -48.533 Q89.38 -56.676 77.262 -56.676 Q65.145 -56.676 57.083 -48.585 Q49.02 -40.493 49.02 -28.415 Q49.02 -16.202 57.063 -8.059 Q65.107 0.084 77.225 0.084 Z M77.256 -12.816 Q70.627 -12.816 66.274 -17.251 Q61.92 -21.685 61.92 -28.377 Q61.92 -35.069 66.304 -39.503 Q70.689 -43.937 77.35 -43.937 Q84.011 -43.937 88.526 -39.503 Q93.041 -35.069 93.041 -28.377 Q93.041 -21.685 88.551 -17.251 Q84.061 -12.816 77.256 -12.816 Z M24.026 26.851 Q17.729 26.851 13.299 22.421 Q8.869 17.991 8.869 11.694 V-68.125 Q8.869 -74.327 13.299 -78.885 Q17.729 -83.444 24.026 -83.444 H44.183 L53.212 -93.119 Q55.309 -95.376 58.05 -96.424 Q60.791 -97.472 63.855 -97.472 H91.106 Q93.989 -97.472 96.74 -96.424 Q99.491 -95.376 101.588 -93.119 L110.779 -83.444 H130.774 Q136.976 -83.444 141.534 -78.885 Q146.093 -74.327 146.093 -68.125 V11.694 Q146.093 17.991 141.534 22.421 Q136.976 26.851 130.774 26.851 H24.026 Z M77.4 11.694 H130.774 Q130.774 11.694 130.774 11.694 Q130.774 11.694 130.774 11.694 V-68.125 Q130.774 -68.125 130.774 -68.125 Q130.774 -68.125 130.774 -68.125 H104.329 L91.267 -82.154 H77.4 V11.694 Z M24.994 11.049 Q24.994 11.049 24.994 11.049 Q24.994 11.049 24.994 11.049 V-67.641 Q24.994 -67.641 24.994 -67.641 Q24.994 -67.641 24.994 -67.641 H51.6 L63.371 -80.864 H91.429 L103.2 -67.641 H129.806 Q129.806 -67.641 129.806 -67.641 Q129.806 -67.641 129.806 -67.641 V11.049 Q129.806 11.049 129.806 11.049 Q129.806 11.049 129.806 11.049 H24.994 Z"/></g><g id="Semibold-L" transform="matrix(1 0 0 1 1970.27 1556)"><path d="M77.266 -0.337 Q89.198 -0.337 97.279 -8.353 Q105.359 -16.37 105.359 -28.31 Q105.359 -40.25 97.289 -48.253 Q89.219 -56.256 77.287 -56.256 Q65.355 -56.256 57.398 -48.282 Q49.441 -40.308 49.441 -28.398 Q49.441 -16.413 57.387 -8.375 Q65.334 -0.337 77.266 -0.337 Z M77.283 -11.835 Q70.207 -11.835 65.573 -16.55 Q60.938 -21.264 60.938 -28.377 Q60.938 -35.489 65.59 -40.169 Q70.241 -44.849 77.337 -44.849 Q84.432 -44.849 89.192 -40.169 Q93.953 -35.489 93.953 -28.377 Q93.953 -21.264 89.206 -16.55 Q84.46 -11.835 77.283 -11.835 Z M23.395 25.099 Q18.154 25.099 14.388 21.332 Q10.621 17.566 10.621 12.325 V-68.756 Q10.621 -73.874 14.388 -77.748 Q18.154 -81.621 23.395 -81.621 H45.094 L54.054 -91.717 Q55.799 -93.764 58.19 -94.707 Q60.581 -95.65 63.294 -95.65 H91.597 Q94.208 -95.65 96.604 -94.707 Q99.001 -93.764 100.746 -91.717 L109.797 -81.621 H131.405 Q136.523 -81.621 140.396 -77.748 Q144.27 -73.874 144.27 -68.756 V12.325 Q144.27 17.566 140.396 21.332 Q136.523 25.099 131.405 25.099 H23.395 Z M77.4 12.325 H131.405 Q131.405 12.325 131.405 12.325 Q131.405 12.325 131.405 12.325 V-68.756 Q131.405 -68.756 131.405 -68.756 Q131.405 -68.756 131.405 -68.756 H104.188 L91.688 -82.785 H77.4 V12.325 Z M23.942 11.96 Q23.942 11.96 23.942 11.96 Q23.942 11.96 23.942 11.96 V-68.482 Q23.942 -68.482 23.942 -68.482 Q23.942 -68.482 23.942 -68.482 H51.249 L63.021 -82.056 H91.779 L103.551 -68.482 H130.858 Q130.858 -68.482 130.858 -68.482 Q130.858 -68.482 130.858 -68.482 V11.96 Q130.858 11.96 130.858 11.96 Q130.858 11.96 130.858 11.96 H23.942 Z"/></g><g id="Medium-L" transform="matrix(1 0 0 1 1674.31 1556)"><path d="M77.297 -0.652 Q89.089 -0.652 97.067 -8.602 Q105.044 -16.552 105.044 -28.348 Q105.044 -40.145 97.071 -48.042 Q89.099 -55.94 77.306 -55.94 Q65.513 -55.94 57.635 -48.055 Q49.756 -40.169 49.756 -28.386 Q49.756 -16.571 57.63 -8.611 Q65.504 -0.652 77.297 -0.652 Z M77.304 -11.099 Q69.891 -11.099 65.047 -16.024 Q60.202 -20.949 60.202 -28.377 Q60.202 -35.805 65.054 -40.669 Q69.906 -45.532 77.327 -45.532 Q84.747 -45.532 89.692 -40.669 Q94.636 -35.805 94.636 -28.377 Q94.636 -20.949 89.698 -16.024 Q84.759 -11.099 77.304 -11.099 Z M22.922 23.784 Q18.472 23.784 15.204 20.516 Q11.936 17.248 11.936 12.798 V-69.229 Q11.936 -73.534 15.204 -76.894 Q18.472 -80.254 22.922 -80.254 H45.777 L54.685 -90.665 Q56.168 -92.554 58.295 -93.419 Q60.423 -94.283 62.873 -94.283 H91.965 Q94.372 -94.283 96.502 -93.419 Q98.632 -92.554 100.115 -90.665 L109.061 -80.254 H131.878 Q136.183 -80.254 139.543 -76.894 Q142.903 -73.534 142.903 -69.229 V12.798 Q142.903 17.248 139.543 20.516 Q136.183 23.784 131.878 23.784 H22.922 Z M77.4 12.798 H131.878 Q131.878 12.798 131.878 12.798 Q131.878 12.798 131.878 12.798 V-69.229 Q131.878 -69.229 131.878 -69.229 Q131.878 -69.229 131.878 -69.229 H104.083 L92.004 -83.258 H77.4 V12.798 Z M23.153 12.644 Q23.153 12.644 23.153 12.644 Q23.153 12.644 23.153 12.644 V-69.113 Q23.153 -69.113 23.153 -69.113 Q23.153 -69.113 23.153 -69.113 H50.987 L62.758 -82.95 H92.042 L103.813 -69.113 H131.647 Q131.647 -69.113 131.647 -69.113 Q131.647 -69.113 131.647 -69.113 V12.644 Q131.647 12.644 131.647 12.644 Q131.647 12.644 131.647 12.644 H23.153 Z"/></g><g id="Regular-L" transform="matrix(1 0 0 1 1378.56 1556)"><path d="M77.319 -0.884 Q89.01 -0.884 96.911 -8.785 Q104.812 -16.686 104.812 -28.377 Q104.812 -40.067 96.911 -47.888 Q89.01 -55.709 77.319 -55.709 Q65.629 -55.709 57.808 -47.888 Q49.988 -40.067 49.988 -28.377 Q49.988 -16.686 57.808 -8.785 Q65.629 -0.884 77.319 -0.884 Z M77.319 -10.559 Q69.66 -10.559 64.661 -15.638 Q59.663 -20.717 59.663 -28.377 Q59.663 -36.036 64.661 -41.035 Q69.66 -46.034 77.319 -46.034 Q84.979 -46.034 90.058 -41.035 Q95.138 -36.036 95.138 -28.377 Q95.138 -20.717 90.058 -15.638 Q84.979 -10.559 77.319 -10.559 Z M22.575 22.82 Q18.705 22.82 15.803 19.918 Q12.9 17.015 12.9 13.145 V-69.576 Q12.9 -73.285 15.803 -76.268 Q18.705 -79.251 22.575 -79.251 H46.279 L55.148 -89.894 Q56.438 -91.667 58.373 -92.474 Q60.308 -93.28 62.565 -93.28 H92.235 Q94.493 -93.28 96.428 -92.474 Q98.362 -91.667 99.653 -89.894 L108.521 -79.251 H132.225 Q135.934 -79.251 138.917 -76.268 Q141.9 -73.285 141.9 -69.576 V13.145 Q141.9 17.015 138.917 19.918 Q135.934 22.82 132.225 22.82 H22.575 Z M77.4 13.145 H132.225 Q132.225 13.145 132.225 13.145 Q132.225 13.145 132.225 13.145 V-69.576 Q132.225 -69.576 132.225 -69.576 Q132.225 -69.576 132.225 -69.576 H104.006 L92.235 -83.605 H77.4 V13.145 Z M22.575 13.145 Q22.575 13.145 22.575 13.145 Q22.575 13.145 22.575 13.145 V-69.576 Q22.575 -69.576 22.575 -69.576 Q22.575 -69.576 22.575 -69.576 H50.794 L62.565 -83.605 H92.235 L104.006 -69.576 H132.225 Q132.225 -69.576 132.225 -69.576 Q132.225 -69.576 132.225 -69.576 V13.145 Q132.225 13.145 132.225 13.145 Q132.225 13.145 132.225 13.145 H22.575 Z"/></g><g id="Light-L" transform="matrix(1 0 0 1 1082.77 1556)"><path d="M77.35 -3.055 Q88.142 -3.055 95.454 -10.367 Q102.766 -17.679 102.766 -28.47 Q102.766 -39.261 95.454 -46.524 Q88.142 -53.786 77.35 -53.786 Q66.559 -53.786 59.297 -46.524 Q52.034 -39.261 52.034 -28.47 Q52.034 -17.679 59.297 -10.367 Q66.559 -3.055 77.35 -3.055 Z M77.35 -10.373 Q69.598 -10.373 64.475 -15.545 Q59.352 -20.717 59.352 -28.47 Q59.352 -36.222 64.475 -41.345 Q69.598 -46.468 77.35 -46.468 Q85.103 -46.468 90.275 -41.345 Q95.448 -36.222 95.448 -28.47 Q95.448 -20.717 90.275 -15.545 Q85.103 -10.373 77.35 -10.373 Z M25.428 19.595 Q21.634 19.595 18.88 16.84 Q16.125 14.086 16.125 10.292 V-67.033 Q16.125 -70.742 18.88 -73.539 Q21.634 -76.336 25.428 -76.336 H47.581 L56.636 -86.917 Q57.864 -88.504 59.691 -89.28 Q61.518 -90.055 63.681 -90.055 H91.119 Q93.282 -90.055 95.109 -89.28 Q96.936 -88.504 98.164 -86.917 L107.219 -76.336 H129.372 Q133.081 -76.336 135.878 -73.539 Q138.675 -70.742 138.675 -67.033 V10.292 Q138.675 14.086 135.878 16.84 Q133.081 19.595 129.372 19.595 H25.428 Z M77.4 12.277 H129.372 Q130.24 12.277 130.798 11.718 Q131.357 11.16 131.357 10.292 V-67.033 Q131.357 -67.84 130.798 -68.429 Q130.24 -69.018 129.372 -69.018 H103.82 L91.987 -82.737 H77.4 V12.277 Z M25.18 11.967 Q24.622 11.967 24.219 11.563 Q23.815 11.16 23.815 10.54 V-67.343 Q23.815 -67.902 24.219 -68.305 Q24.622 -68.708 25.18 -68.708 H51.166 L62.937 -82.302 H91.863 L103.634 -68.708 H129.62 Q130.178 -68.708 130.581 -68.305 Q130.985 -67.902 130.985 -67.343 V10.54 Q130.985 11.16 130.581 11.563 Q130.178 11.967 129.62 11.967 H25.18 Z"/></g><g id="Thin-L" transform="matrix(1 0 0 1 787.282 1556)"><path d="M77.381 -5.225 Q87.273 -5.225 93.996 -11.948 Q100.719 -18.671 100.719 -28.563 Q100.719 -38.455 93.996 -45.159 Q87.273 -51.864 77.381 -51.864 Q67.489 -51.864 60.785 -45.159 Q54.081 -38.455 54.081 -28.563 Q54.081 -18.671 60.785 -11.948 Q67.489 -5.225 77.381 -5.225 Z M77.381 -10.187 Q69.536 -10.187 64.289 -15.452 Q59.042 -20.717 59.042 -28.563 Q59.042 -36.408 64.289 -41.655 Q69.536 -46.902 77.381 -46.902 Q85.227 -46.902 90.492 -41.655 Q95.758 -36.408 95.758 -28.563 Q95.758 -20.717 90.492 -15.452 Q85.227 -10.187 77.381 -10.187 Z M28.281 16.37 Q24.563 16.37 21.956 13.764 Q19.35 11.157 19.35 7.439 V-64.491 Q19.35 -68.199 21.956 -70.81 Q24.563 -73.421 28.281 -73.421 H48.884 L58.124 -83.94 Q59.29 -85.342 61.01 -86.086 Q62.729 -86.83 64.798 -86.83 H90.002 Q92.071 -86.83 93.79 -86.086 Q95.51 -85.342 96.676 -83.94 L105.916 -73.421 H126.519 Q130.228 -73.421 132.839 -70.81 Q135.45 -68.199 135.45 -64.491 V7.439 Q135.45 11.157 132.839 13.764 Q130.228 16.37 126.519 16.37 H28.281 Z M77.4 11.408 H126.519 Q128.256 11.408 129.372 10.292 Q130.488 9.176 130.488 7.439 V-64.491 Q130.488 -66.103 129.372 -67.282 Q128.256 -68.46 126.519 -68.46 H103.634 L91.739 -81.868 H77.4 V11.408 Z M27.785 10.788 Q26.668 10.788 25.862 9.982 Q25.056 9.176 25.056 7.935 V-65.111 Q25.056 -66.227 25.862 -67.033 Q26.668 -67.84 27.785 -67.84 H51.538 L63.309 -81 H91.491 L103.262 -67.84 H127.015 Q128.132 -67.84 128.938 -67.033 Q129.744 -66.227 129.744 -65.111 V7.935 Q129.744 9.176 128.938 9.982 Q128.132 10.788 127.015 10.788 H27.785 Z"/></g><g id="Ultralight-L" transform="matrix(1 0 0 1 491.205 1556)"><path d="M77.4 -6.527 Q86.752 -6.527 93.122 -12.897 Q99.491 -19.266 99.491 -28.619 Q99.491 -37.971 93.122 -44.341 Q86.752 -50.71 77.4 -50.71 Q68.047 -50.71 61.678 -44.341 Q55.309 -37.971 55.309 -28.619 Q55.309 -19.266 61.678 -12.897 Q68.047 -6.527 77.4 -6.527 Z M77.4 -10.075 Q69.499 -10.075 64.177 -15.396 Q58.856 -20.717 58.856 -28.619 Q58.856 -36.52 64.177 -41.841 Q69.499 -47.162 77.4 -47.162 Q85.301 -47.162 90.623 -41.841 Q95.944 -36.52 95.944 -28.619 Q95.944 -20.717 90.623 -15.396 Q85.301 -10.075 77.4 -10.075 Z M29.992 14.435 Q26.32 14.435 23.803 11.917 Q21.285 9.4 21.285 5.728 V-62.965 Q21.285 -66.674 23.803 -69.173 Q26.32 -71.672 29.992 -71.672 H49.665 L59.017 -82.154 Q60.146 -83.444 61.801 -84.169 Q63.455 -84.895 65.468 -84.895 H89.332 Q91.345 -84.895 92.999 -84.169 Q94.654 -83.444 95.782 -82.154 L105.135 -71.672 H124.808 Q128.516 -71.672 131.016 -69.173 Q133.515 -66.674 133.515 -62.965 V5.728 Q133.515 9.4 131.016 11.917 Q128.516 14.435 124.808 14.435 H29.992 Z M77.4 10.888 H124.808 Q127.065 10.888 128.516 9.436 Q129.968 7.985 129.968 5.728 V-62.965 Q129.968 -65.061 128.516 -66.593 Q127.065 -68.125 124.808 -68.125 H103.523 L91.59 -81.347 H77.4 V10.888 Z M29.348 10.081 Q27.896 10.081 26.848 9.033 Q25.8 7.985 25.8 6.373 V-63.771 Q25.8 -65.222 26.848 -66.271 Q27.896 -67.319 29.348 -67.319 H51.761 L63.532 -80.219 H91.267 L103.039 -67.319 H125.453 Q126.904 -67.319 127.952 -66.271 Q129 -65.222 129 -63.771 V6.373 Q129 7.985 127.952 9.033 Q126.904 10.081 125.453 10.081 H29.348 Z"/></g><g id="Bold-M" transform="matrix(1 0 0 1 2281.8 1126)"><path d="M60.066 -6.73 Q69.83 -6.73 76.665 -13.576 Q83.5 -20.421 83.5 -30.201 Q83.5 -39.98 76.665 -46.855 Q69.83 -53.73 60.066 -53.73 Q50.198 -53.73 43.349 -46.884 Q36.5 -40.039 36.5 -30.259 Q36.5 -20.48 43.349 -13.605 Q50.198 -6.73 60.066 -6.73 Z M60.076 -19.98 Q55.697 -19.98 52.724 -22.917 Q49.75 -25.855 49.75 -30.23 Q49.75 -34.605 52.748 -37.542 Q55.745 -40.48 60.086 -40.48 Q64.323 -40.48 67.286 -37.542 Q70.25 -34.605 70.25 -30.23 Q70.25 -25.855 67.299 -22.917 Q64.349 -19.98 60.076 -19.98 Z M21.5 14.02 Q14.875 14.02 10.312 9.458 Q5.75 4.895 5.75 -1.73 V-58.73 Q5.75 -65.355 10.312 -69.917 Q14.875 -74.48 21.5 -74.48 H33.5 L40 -80.355 Q42.125 -82.355 44.938 -83.417 Q47.75 -84.48 50.625 -84.48 H69.375 Q72.25 -84.48 75.062 -83.417 Q77.875 -82.355 80 -80.355 L86.5 -74.48 H98.5 Q105.125 -74.48 109.688 -69.917 Q114.25 -65.355 114.25 -58.73 V-1.73 Q114.25 4.895 109.688 9.458 Q105.125 14.02 98.5 14.02 H21.5 Z M60.125 -1.73 H98.5 Q98.5 -1.73 98.5 -1.73 Q98.5 -1.73 98.5 -1.73 V-58.73 Q98.5 -58.73 98.5 -58.73 Q98.5 -58.73 98.5 -58.73 H80.125 L69.625 -68.73 H60.125 V-1.73 Z M21.5 -1.73 Q21.5 -1.73 21.5 -1.73 Q21.5 -1.73 21.5 -1.73 V-58.73 Q21.5 -58.73 21.5 -58.73 Q21.5 -58.73 21.5 -58.73 H39.5 L50.75 -68.73 H69.625 L80.125 -58.73 H98.5 Q98.5 -58.73 98.5 -58.73 Q98.5 -58.73 98.5 -58.73 V-1.73 Q98.5 -1.73 98.5 -1.73 Q98.5 -1.73 98.5 -1.73 H21.5 Z"/></g><g id="Semibold-M" transform="matrix(1 0 0 1 1985.97 1126)"><path d="M60.037 -7.165 Q69.632 -7.165 76.349 -13.887 Q83.065 -20.61 83.065 -30.213 Q83.065 -39.817 76.349 -46.556 Q69.632 -53.295 60.037 -53.295 Q50.384 -53.295 43.659 -46.573 Q36.935 -39.85 36.935 -30.247 Q36.935 -20.643 43.659 -13.904 Q50.384 -7.165 60.037 -7.165 Z M60.043 -19.002 Q55.286 -19.002 52.029 -22.238 Q48.772 -25.475 48.772 -30.23 Q48.772 -34.985 52.042 -38.222 Q55.312 -41.458 60.049 -41.458 Q64.726 -41.458 67.977 -38.222 Q71.228 -34.985 71.228 -30.23 Q71.228 -25.475 67.984 -22.238 Q64.741 -19.002 60.043 -19.002 Z M20.848 12.172 Q15.31 12.172 11.454 8.316 Q7.598 4.46 7.598 -1.078 V-59.382 Q7.598 -64.92 11.454 -68.776 Q15.31 -72.632 20.848 -72.632 H34.478 L40.87 -78.888 Q42.669 -80.67 45.1 -81.651 Q47.533 -82.632 50.081 -82.632 H69.918 Q72.467 -82.632 74.9 -81.651 Q77.332 -80.67 79.13 -78.888 L85.522 -72.632 H99.152 Q104.69 -72.632 108.546 -68.776 Q112.402 -64.92 112.402 -59.382 V-1.078 Q112.402 4.46 108.546 8.316 Q104.69 12.172 99.152 12.172 H20.848 Z M60.071 -1.078 H99.152 Q99.152 -1.078 99.152 -1.078 Q99.152 -1.078 99.152 -1.078 V-59.382 Q99.152 -59.382 99.152 -59.382 Q99.152 -59.382 99.152 -59.382 H79.962 L70.06 -69.382 H60.071 V-1.078 Z M20.848 -1.078 Q20.848 -1.078 20.848 -1.078 Q20.848 -1.078 20.848 -1.078 V-59.382 Q20.848 -59.382 20.848 -59.382 Q20.848 -59.382 20.848 -59.382 H39.826 L50.152 -69.382 H70.06 L79.962 -59.382 H99.152 Q99.152 -59.382 99.152 -59.382 Q99.152 -59.382 99.152 -59.382 V-1.078 Q99.152 -1.078 99.152 -1.078 Q99.152 -1.078 99.152 -1.078 H20.848 Z"/></g><g id="Medium-M" transform="matrix(1 0 0 1 1689.91 1126)"><path d="M60.016 -7.491 Q69.484 -7.491 76.112 -14.121 Q82.739 -20.751 82.739 -30.223 Q82.739 -39.695 76.112 -46.332 Q69.484 -52.969 60.016 -52.969 Q50.523 -52.969 43.892 -46.339 Q37.261 -39.709 37.261 -30.237 Q37.261 -20.765 43.892 -14.128 Q50.523 -7.491 60.016 -7.491 Z M60.018 -18.268 Q54.977 -18.268 51.507 -21.729 Q48.038 -25.189 48.038 -30.23 Q48.038 -35.271 51.513 -38.731 Q54.988 -42.192 60.021 -42.192 Q65.028 -42.192 68.495 -38.731 Q71.962 -35.271 71.962 -30.23 Q71.962 -25.189 68.498 -21.729 Q65.034 -18.268 60.018 -18.268 Z M20.359 10.786 Q15.636 10.786 12.31 7.46 Q8.984 4.134 8.984 -0.589 V-59.871 Q8.984 -64.594 12.31 -67.92 Q15.636 -71.246 20.359 -71.246 H35.212 L41.522 -77.787 Q43.076 -79.407 45.223 -80.326 Q47.37 -81.246 49.674 -81.246 H70.326 Q72.63 -81.246 74.777 -80.326 Q76.924 -79.407 78.478 -77.787 L84.788 -71.246 H99.641 Q104.364 -71.246 107.69 -67.92 Q111.016 -64.594 111.016 -59.871 V-0.589 Q111.016 4.134 107.69 7.46 Q104.364 10.786 99.641 10.786 H20.359 Z M60.03 -0.589 H99.641 Q99.641 -0.589 99.641 -0.589 Q99.641 -0.589 99.641 -0.589 V-59.871 Q99.641 -59.871 99.641 -59.871 Q99.641 -59.871 99.641 -59.871 H79.84 L70.386 -69.871 H60.03 V-0.589 Z M20.359 -0.589 Q20.359 -0.589 20.359 -0.589 Q20.359 -0.589 20.359 -0.589 V-59.871 Q20.359 -59.871 20.359 -59.871 Q20.359 -59.871 20.359 -59.871 H40.071 L49.704 -69.871 H70.386 L79.84 -59.871 H99.641 Q99.641 -59.871 99.641 -59.871 Q99.641 -59.871 99.641 -59.871 V-0.589 Q99.641 -0.589 99.641 -0.589 Q99.641 -0.589 99.641 -0.589 H20.359 Z"/></g><g id="Regular-M" transform="matrix(1 0 0 1 1394.06 1126)"><path d="M60 -7.73 Q69.375 -7.73 75.938 -14.292 Q82.5 -20.855 82.5 -30.23 Q82.5 -39.605 75.938 -46.167 Q69.375 -52.73 60 -52.73 Q50.625 -52.73 44.062 -46.167 Q37.5 -39.605 37.5 -30.23 Q37.5 -20.855 44.062 -14.292 Q50.625 -7.73 60 -7.73 Z M60 -17.73 Q54.75 -17.73 51.125 -21.355 Q47.5 -24.98 47.5 -30.23 Q47.5 -35.48 51.125 -39.105 Q54.75 -42.73 60 -42.73 Q65.25 -42.73 68.875 -39.105 Q72.5 -35.48 72.5 -30.23 Q72.5 -24.98 68.875 -21.355 Q65.25 -17.73 60 -17.73 Z M20 9.77 Q15.875 9.77 12.938 6.833 Q10 3.895 10 -0.23 V-60.23 Q10 -64.355 12.938 -67.292 Q15.875 -70.23 20 -70.23 H35.75 L42 -76.98 Q43.375 -78.48 45.312 -79.355 Q47.25 -80.23 49.375 -80.23 H70.625 Q72.75 -80.23 74.688 -79.355 Q76.625 -78.48 78 -76.98 L84.25 -70.23 H100 Q104.125 -70.23 107.062 -67.292 Q110 -64.355 110 -60.23 V-0.23 Q110 3.895 107.062 6.833 Q104.125 9.77 100 9.77 H20 Z M60 -0.23 H100 Q100 -0.23 100 -0.23 Q100 -0.23 100 -0.23 V-60.23 Q100 -60.23 100 -60.23 Q100 -60.23 100 -60.23 H79.75 L70.625 -70.23 H60 V-0.23 Z M20 -0.23 Q20 -0.23 20 -0.23 Q20 -0.23 20 -0.23 V-60.23 Q20 -60.23 20 -60.23 Q20 -60.23 20 -60.23 H40.25 L49.375 -70.23 H70.625 L79.75 -60.23 H100 Q100 -60.23 100 -60.23 Q100 -60.23 100 -60.23 V-0.23 Q100 -0.23 100 -0.23 Q100 -0.23 100 -0.23 H20 Z"/></g><g id="Light-M" transform="matrix(1 0 0 1 1098.18 1126)"><path d="M60 -9.653 Q68.606 -9.653 74.591 -15.639 Q80.577 -21.624 80.577 -30.23 Q80.577 -38.836 74.591 -44.821 Q68.606 -50.807 60 -50.807 Q51.394 -50.807 45.409 -44.821 Q39.423 -38.836 39.423 -30.23 Q39.423 -21.624 45.409 -15.639 Q51.394 -9.653 60 -9.653 Z M60 -17.153 Q54.462 -17.153 50.692 -20.922 Q46.923 -24.691 46.923 -30.23 Q46.923 -35.768 50.692 -39.538 Q54.462 -43.307 60 -43.307 Q65.538 -43.307 69.308 -39.538 Q73.077 -35.768 73.077 -30.23 Q73.077 -24.691 69.308 -20.922 Q65.538 -17.153 60 -17.153 Z M21.539 7.27 Q17.75 7.27 15.125 4.645 Q12.5 2.02 12.5 -1.769 V-58.691 Q12.5 -62.48 15.125 -65.105 Q17.75 -67.73 21.539 -67.73 H36.808 L43.346 -74.816 Q44.577 -76.172 46.322 -76.951 Q48.067 -77.73 50 -77.73 H70 Q71.933 -77.73 73.678 -76.951 Q75.423 -76.172 76.654 -74.816 L83.192 -67.73 H98.461 Q102.25 -67.73 104.875 -65.105 Q107.5 -62.48 107.5 -58.691 V-1.769 Q107.5 2.02 104.875 4.645 Q102.25 7.27 98.461 7.27 H21.539 Z M60 -0.23 H98.461 Q99.135 -0.23 99.567 -0.663 Q100 -1.095 100 -1.769 V-58.691 Q100 -59.364 99.567 -59.797 Q99.135 -60.23 98.461 -60.23 H79.846 L70.673 -70.23 H60 V-0.23 Z M21.539 -0.23 Q20.866 -0.23 20.433 -0.663 Q20 -1.095 20 -1.769 V-58.691 Q20 -59.364 20.433 -59.797 Q20.866 -60.23 21.539 -60.23 H40.154 L49.327 -70.23 H70.673 L79.846 -60.23 H98.461 Q99.135 -60.23 99.567 -59.797 Q100 -59.364 100 -58.691 V-1.769 Q100 -1.095 99.567 -0.663 Q99.135 -0.23 98.461 -0.23 H21.539 Z"/></g><g id="Thin-M" transform="matrix(1 0 0 1 802.565 1126)"><path d="M60 -11.576 Q67.837 -11.576 73.245 -16.985 Q78.654 -22.393 78.654 -30.23 Q78.654 -38.066 73.245 -43.475 Q67.837 -48.884 60 -48.884 Q52.163 -48.884 46.755 -43.475 Q41.346 -38.066 41.346 -30.23 Q41.346 -22.393 46.755 -16.985 Q52.163 -11.576 60 -11.576 Z M60 -16.576 Q54.173 -16.576 50.26 -20.49 Q46.346 -24.403 46.346 -30.23 Q46.346 -36.057 50.26 -39.97 Q54.173 -43.884 60 -43.884 Q65.827 -43.884 69.74 -39.97 Q73.654 -36.057 73.654 -30.23 Q73.654 -24.403 69.74 -20.49 Q65.827 -16.576 60 -16.576 Z M23.077 4.77 Q19.625 4.77 17.312 2.458 Q15 0.145 15 -3.307 V-57.153 Q15 -60.605 17.312 -62.917 Q19.625 -65.23 23.077 -65.23 H37.865 L44.692 -72.653 Q45.779 -73.865 47.332 -74.547 Q48.885 -75.23 50.625 -75.23 H69.375 Q71.115 -75.23 72.668 -74.547 Q74.221 -73.865 75.308 -72.653 L82.135 -65.23 H96.923 Q100.375 -65.23 102.688 -62.917 Q105 -60.605 105 -57.153 V-3.307 Q105 0.145 102.688 2.458 Q100.375 4.77 96.923 4.77 H23.077 Z M60 -0.23 H96.923 Q98.269 -0.23 99.135 -1.095 Q100 -1.961 100 -3.307 V-57.153 Q100 -58.499 99.135 -59.365 Q98.269 -60.23 96.923 -60.23 H79.942 L70.721 -70.23 H60 V-0.23 Z M23.077 -0.23 Q21.731 -0.23 20.865 -1.095 Q20 -1.961 20 -3.307 V-57.153 Q20 -58.499 20.865 -59.365 Q21.731 -60.23 23.077 -60.23 H40.058 L49.279 -70.23 H70.721 L79.942 -60.23 H96.923 Q98.269 -60.23 99.135 -59.365 Q100 -58.499 100 -57.153 V-3.307 Q100 -1.961 99.135 -1.095 Q98.269 -0.23 96.923 -0.23 H23.077 Z"/></g><g id="Ultralight-M" transform="matrix(1 0 0 1 506.415 1126)"><path d="M60 -12.73 Q67.375 -12.73 72.438 -17.792 Q77.5 -22.855 77.5 -30.23 Q77.5 -37.605 72.438 -42.667 Q67.375 -47.73 60 -47.73 Q52.625 -47.73 47.562 -42.667 Q42.5 -37.605 42.5 -30.23 Q42.5 -22.855 47.562 -17.792 Q52.625 -12.73 60 -12.73 Z M60 -16.23 Q54 -16.23 50 -20.23 Q46 -24.23 46 -30.23 Q46 -36.23 50 -40.23 Q54 -44.23 60 -44.23 Q66 -44.23 70 -40.23 Q74 -36.23 74 -30.23 Q74 -24.23 70 -20.23 Q66 -16.23 60 -16.23 Z M24 3.27 Q20.75 3.27 18.625 1.145 Q16.5 -0.98 16.5 -4.23 V-56.23 Q16.5 -59.48 18.625 -61.605 Q20.75 -63.73 24 -63.73 H38.5 L45.5 -71.355 Q46.5 -72.48 47.938 -73.105 Q49.375 -73.73 51 -73.73 H69 Q70.625 -73.73 72.062 -73.105 Q73.5 -72.48 74.5 -71.355 L81.5 -63.73 H96 Q99.25 -63.73 101.375 -61.605 Q103.5 -59.48 103.5 -56.23 V-4.23 Q103.5 -0.98 101.375 1.145 Q99.25 3.27 96 3.27 H24 Z M60 -0.23 H96 Q97.75 -0.23 98.875 -1.355 Q100 -2.48 100 -4.23 V-56.23 Q100 -57.98 98.875 -59.105 Q97.75 -60.23 96 -60.23 H80 L70.75 -70.23 H60 V-0.23 Z M24 -0.23 Q22.25 -0.23 21.125 -1.355 Q20 -2.48 20 -4.23 V-56.23 Q20 -57.98 21.125 -59.105 Q22.25 -60.23 24 -60.23 H40 L49.25 -70.23 H70.75 L80 -60.23 H96 Q97.75 -60.23 98.875 -59.105 Q100 -57.98 100 -56.23 V-4.23 Q100 -2.48 98.875 -1.355 Q97.75 -0.23 96 -0.23 H24 Z"/></g><g id="Bold-S" transform="matrix(1 0 0 1 2294.23 696)"><path d="M47.392 -13.138 Q54.8 -13.138 59.749 -18.194 Q64.698 -23.25 64.698 -30.473 Q64.698 -37.597 59.749 -42.725 Q54.8 -47.854 47.392 -47.854 Q39.902 -47.854 34.942 -42.749 Q29.982 -37.643 29.982 -30.47 Q29.982 -23.296 34.942 -18.217 Q39.902 -13.138 47.392 -13.138 Z M47.4 -22.803 Q43.945 -22.803 41.796 -24.937 Q39.647 -27.07 39.647 -30.397 Q39.647 -33.642 41.815 -35.915 Q43.983 -38.189 47.408 -38.189 Q50.75 -38.189 52.892 -35.915 Q55.033 -33.642 55.033 -30.397 Q55.033 -27.07 52.902 -24.937 Q50.771 -22.803 47.4 -22.803 Z M17.753 1.261 Q12.92 1.261 9.517 -2.141 Q6.115 -5.544 6.115 -10.376 V-50.615 Q6.115 -55.448 9.517 -58.851 Q12.92 -62.253 17.753 -62.253 H26.629 L31.757 -68.171 Q33.434 -69.946 35.621 -70.834 Q37.808 -71.721 40.042 -71.721 H54.656 Q56.907 -71.721 59.076 -70.834 Q61.246 -69.946 62.923 -68.171 L68.051 -62.253 H76.928 Q81.829 -62.253 85.197 -58.851 Q88.565 -55.448 88.565 -50.615 V-10.376 Q88.565 -5.544 85.197 -2.141 Q81.829 1.261 76.928 1.261 H17.753 Z M47.439 -10.376 H76.928 Q76.928 -10.376 76.928 -10.376 Q76.928 -10.376 76.928 -10.376 V-50.615 Q76.928 -50.615 76.928 -50.615 Q76.928 -50.615 76.928 -50.615 H63.021 L54.828 -60.083 H47.439 V-10.376 Z M17.753 -10.376 Q17.753 -10.376 17.753 -10.376 Q17.753 -10.376 17.753 -10.376 V-50.615 Q17.753 -50.615 17.753 -50.615 Q17.753 -50.615 17.753 -50.615 H31.363 L40.14 -60.083 H54.836 L63.021 -50.615 H76.928 Q76.928 -50.615 76.928 -50.615 Q76.928 -50.615 76.928 -50.615 V-10.376 Q76.928 -10.376 76.928 -10.376 Q76.928 -10.376 76.928 -10.376 H17.753 Z"/></g><g id="Semibold-S" transform="matrix(1 0 0 1 1998.1 696)"><path d="M47.369 -13.481 Q54.644 -13.481 59.499 -18.44 Q64.355 -23.399 64.355 -30.483 Q64.355 -37.468 59.499 -42.49 Q54.644 -47.511 47.369 -47.511 Q40.049 -47.511 35.187 -42.503 Q30.325 -37.495 30.325 -30.46 Q30.325 -23.425 35.187 -18.453 Q40.049 -13.481 47.369 -13.481 Z M47.374 -22.031 Q43.62 -22.031 41.248 -24.401 Q38.875 -26.77 38.875 -30.397 Q38.875 -33.942 41.258 -36.451 Q43.642 -38.961 47.378 -38.961 Q51.069 -38.961 53.437 -36.451 Q55.805 -33.942 55.805 -30.397 Q55.805 -26.77 53.442 -24.401 Q51.08 -22.031 47.374 -22.031 Z M17.238 -0.197 Q13.263 -0.197 10.418 -3.042 Q7.573 -5.887 7.573 -9.862 V-51.13 Q7.573 -55.105 10.418 -57.95 Q13.263 -60.795 17.238 -60.795 H27.401 L32.443 -67.013 Q33.863 -68.617 35.75 -69.44 Q37.637 -70.263 39.613 -70.263 H55.085 Q57.078 -70.263 58.948 -69.44 Q60.817 -68.617 62.237 -67.013 L67.279 -60.795 H77.442 Q81.486 -60.795 84.297 -57.95 Q87.107 -55.105 87.107 -51.13 V-9.862 Q87.107 -5.887 84.297 -3.042 Q81.486 -0.197 77.442 -0.197 H17.238 Z M47.396 -9.862 H77.442 Q77.442 -9.862 77.442 -9.862 Q77.442 -9.862 77.442 -9.862 V-51.13 Q77.442 -51.13 77.442 -51.13 Q77.442 -51.13 77.442 -51.13 H62.893 L55.171 -60.598 H47.396 V-9.862 Z M17.238 -9.862 Q17.238 -9.862 17.238 -9.862 Q17.238 -9.862 17.238 -9.862 V-51.13 Q17.238 -51.13 17.238 -51.13 Q17.238 -51.13 17.238 -51.13 H31.62 L39.669 -60.598 H55.179 L62.893 -51.13 H77.442 Q77.442 -51.13 77.442 -51.13 Q77.442 -51.13 77.442 -51.13 V-9.862 Q77.442 -9.862 77.442 -9.862 Q77.442 -9.862 77.442 -9.862 H17.238 Z"/></g><g id="Medium-S" transform="matrix(1 0 0 1 1701.85 696)"><path d="M47.353 -13.738 Q54.527 -13.738 59.312 -18.624 Q64.098 -23.51 64.098 -30.49 Q64.098 -37.372 59.312 -42.313 Q54.527 -47.254 47.353 -47.254 Q40.158 -47.254 35.37 -42.318 Q30.582 -37.383 30.582 -30.452 Q30.582 -23.522 35.37 -18.63 Q40.158 -13.738 47.353 -13.738 Z M47.354 -21.452 Q43.377 -21.452 40.837 -23.998 Q38.296 -26.544 38.296 -30.397 Q38.296 -34.167 40.841 -36.853 Q43.386 -39.54 47.356 -39.54 Q51.307 -39.54 53.845 -36.853 Q56.384 -34.167 56.384 -30.397 Q56.384 -26.544 53.848 -23.998 Q51.312 -21.452 47.354 -21.452 Z M16.852 -1.29 Q13.52 -1.29 11.093 -3.717 Q8.666 -6.144 8.666 -9.476 V-51.516 Q8.666 -54.848 11.093 -57.275 Q13.52 -59.702 16.852 -59.702 H27.98 L32.958 -66.145 Q34.184 -67.62 35.846 -68.395 Q37.508 -69.17 39.291 -69.17 H55.407 Q57.207 -69.17 58.851 -68.395 Q60.496 -67.62 61.722 -66.145 L66.7 -59.702 H77.828 Q81.229 -59.702 83.621 -57.275 Q86.014 -54.848 86.014 -51.516 V-9.476 Q86.014 -6.144 83.621 -3.717 Q81.229 -1.29 77.828 -1.29 H16.852 Z M47.364 -9.476 H77.828 Q77.828 -9.476 77.828 -9.476 Q77.828 -9.476 77.828 -9.476 V-51.516 Q77.828 -51.516 77.828 -51.516 Q77.828 -51.516 77.828 -51.516 H62.796 L55.428 -60.984 H47.364 V-9.476 Z M16.852 -9.476 Q16.852 -9.476 16.852 -9.476 Q16.852 -9.476 16.852 -9.476 V-51.516 Q16.852 -51.516 16.852 -51.516 Q16.852 -51.516 16.852 -51.516 H31.813 L39.315 -60.984 H55.436 L62.796 -51.516 H77.828 Q77.828 -51.516 77.828 -51.516 Q77.828 -51.516 77.828 -51.516 V-9.476 Q77.828 -9.476 77.828 -9.476 Q77.828 -9.476 77.828 -9.476 H16.852 Z"/></g><g id="Regular-S" transform="matrix(1 0 0 1 1405.73 696)"><path d="M47.34 -13.927 Q54.441 -13.927 59.175 -18.76 Q63.909 -23.592 63.909 -30.496 Q63.909 -37.301 59.175 -42.183 Q54.441 -47.065 47.34 -47.065 Q40.239 -47.065 35.505 -42.183 Q30.771 -37.301 30.771 -30.447 Q30.771 -23.592 35.505 -18.76 Q40.239 -13.927 47.34 -13.927 Z M47.34 -21.028 Q43.198 -21.028 40.535 -23.704 Q37.872 -26.379 37.872 -30.397 Q37.872 -34.333 40.535 -37.148 Q43.198 -39.964 47.34 -39.964 Q51.482 -39.964 54.145 -37.148 Q56.808 -34.333 56.808 -30.397 Q56.808 -26.379 54.145 -23.704 Q51.482 -21.028 47.34 -21.028 Z M16.569 -2.092 Q13.709 -2.092 11.588 -4.212 Q9.468 -6.333 9.468 -9.193 V-51.799 Q9.468 -54.659 11.588 -56.78 Q13.709 -58.9 16.569 -58.9 H28.404 L33.335 -65.508 Q34.42 -66.889 35.917 -67.628 Q37.414 -68.368 39.056 -68.368 H55.642 Q57.301 -68.368 58.781 -67.628 Q60.26 -66.889 61.345 -65.508 L66.276 -58.9 H78.111 Q81.04 -58.9 83.126 -56.78 Q85.212 -54.659 85.212 -51.799 V-9.193 Q85.212 -6.333 83.126 -4.212 Q81.04 -2.092 78.111 -2.092 H16.569 Z M47.34 -9.193 H78.111 Q78.111 -9.193 78.111 -9.193 Q78.111 -9.193 78.111 -9.193 V-51.799 Q78.111 -51.799 78.111 -51.799 Q78.111 -51.799 78.111 -51.799 H62.726 L55.617 -61.267 H47.34 V-9.193 Z M16.569 -9.193 Q16.569 -9.193 16.569 -9.193 Q16.569 -9.193 16.569 -9.193 V-51.799 Q16.569 -51.799 16.569 -51.799 Q16.569 -51.799 16.569 -51.799 H31.955 L39.056 -61.267 H55.625 L62.726 -51.799 H78.111 Q78.111 -51.799 78.111 -51.799 Q78.111 -51.799 78.111 -51.799 V-9.193 Q78.111 -9.193 78.111 -9.193 Q78.111 -9.193 78.111 -9.193 H16.569 Z"/></g><g id="Light-S" transform="matrix(1 0 0 1 1109.75 696)"><path d="M47.34 -15.444 Q53.834 -15.444 58.113 -19.822 Q62.392 -24.199 62.392 -30.496 Q62.392 -36.694 58.113 -41.121 Q53.834 -45.548 47.34 -45.548 Q40.846 -45.548 36.567 -41.121 Q32.288 -36.694 32.288 -30.447 Q32.288 -24.199 36.567 -19.822 Q40.846 -15.444 47.34 -15.444 Z M47.34 -20.573 Q42.97 -20.573 40.193 -23.362 Q37.417 -26.152 37.417 -30.397 Q37.417 -34.56 40.193 -37.49 Q42.97 -40.419 47.34 -40.419 Q51.71 -40.419 54.487 -37.49 Q57.263 -34.56 57.263 -30.397 Q57.263 -26.152 54.487 -23.362 Q51.71 -20.573 47.34 -20.573 Z M17.783 -4.065 Q15.188 -4.065 13.314 -5.938 Q11.441 -7.812 11.441 -10.407 V-50.585 Q11.441 -53.18 13.314 -55.054 Q15.188 -56.927 17.783 -56.927 H29.239 L34.397 -63.801 Q35.369 -65.068 36.714 -65.732 Q38.059 -66.395 39.549 -66.395 H55.149 Q56.656 -66.395 57.984 -65.732 Q59.311 -65.068 60.283 -63.801 L65.441 -56.927 H76.897 Q79.561 -56.927 81.4 -55.054 Q83.239 -53.18 83.239 -50.585 V-10.407 Q83.239 -7.812 81.4 -5.938 Q79.561 -4.065 76.897 -4.065 H17.783 Z M47.34 -9.193 H76.897 Q77.428 -9.193 77.77 -9.534 Q78.111 -9.876 78.111 -10.407 V-50.585 Q78.111 -51.116 77.77 -51.458 Q77.428 -51.799 76.897 -51.799 H62.801 L55.655 -61.267 H47.34 V-9.193 Z M17.783 -9.193 Q17.252 -9.193 16.91 -9.534 Q16.569 -9.876 16.569 -10.407 V-50.585 Q16.569 -51.116 16.91 -51.458 Q17.252 -51.799 17.783 -51.799 H31.879 L39.018 -61.267 H55.662 L62.801 -51.799 H76.897 Q77.428 -51.799 77.77 -51.458 Q78.111 -51.116 78.111 -50.585 V-10.407 Q78.111 -9.876 77.77 -9.534 Q77.428 -9.193 76.897 -9.193 H17.783 Z"/></g><g id="Thin-S" transform="matrix(1 0 0 1 814.015 696)"><path d="M47.34 -16.962 Q53.227 -16.962 57.051 -20.884 Q60.874 -24.806 60.874 -30.496 Q60.874 -36.087 57.051 -40.059 Q53.227 -44.03 47.34 -44.03 Q41.453 -44.03 37.629 -40.059 Q33.806 -36.087 33.806 -30.447 Q33.806 -24.806 37.629 -20.884 Q41.453 -16.962 47.34 -16.962 Z M47.34 -20.118 Q42.743 -20.118 39.852 -23.021 Q36.962 -25.924 36.962 -30.397 Q36.962 -34.788 39.852 -37.831 Q42.743 -40.874 47.34 -40.874 Q51.937 -40.874 54.828 -37.831 Q57.718 -34.788 57.718 -30.397 Q57.718 -25.924 54.828 -23.021 Q51.937 -20.118 47.34 -20.118 Z M18.997 -6.037 Q16.668 -6.037 15.04 -7.664 Q13.413 -9.292 13.413 -11.621 V-49.371 Q13.413 -51.7 15.04 -53.328 Q16.668 -54.955 18.997 -54.955 H30.073 L35.459 -62.094 Q36.317 -63.247 37.51 -63.835 Q38.704 -64.423 40.042 -64.423 H54.656 Q56.011 -64.423 57.187 -63.835 Q58.363 -63.247 59.221 -62.094 L64.607 -54.955 H75.683 Q78.081 -54.955 79.674 -53.328 Q81.267 -51.7 81.267 -49.371 V-11.621 Q81.267 -9.292 79.674 -7.664 Q78.081 -6.037 75.683 -6.037 H18.997 Z M47.34 -9.193 H75.683 Q76.745 -9.193 77.428 -9.876 Q78.111 -10.559 78.111 -11.621 V-49.371 Q78.111 -50.433 77.428 -51.116 Q76.745 -51.799 75.683 -51.799 H62.877 L55.693 -61.267 H47.34 V-9.193 Z M18.997 -9.193 Q17.935 -9.193 17.252 -9.876 Q16.569 -10.559 16.569 -11.621 V-49.371 Q16.569 -50.433 17.252 -51.116 Q17.935 -51.799 18.997 -51.799 H31.803 L38.98 -61.267 H55.7 L62.877 -51.799 H75.683 Q76.745 -51.799 77.428 -51.116 Q78.111 -50.433 78.111 -49.371 V-11.621 Q78.111 -10.559 77.428 -9.876 Q76.745 -9.193 75.683 -9.193 H18.997 Z"/></g><g id="Ultralight-S" transform="matrix(1 0 0 1 517.792 696)"><path d="M47.34 -17.872 Q52.863 -17.872 56.413 -21.521 Q59.964 -25.17 59.964 -30.496 Q59.964 -35.723 56.413 -39.422 Q52.863 -43.12 47.34 -43.12 Q41.817 -43.12 38.267 -39.422 Q34.716 -35.723 34.716 -30.447 Q34.716 -25.17 38.267 -21.521 Q41.817 -17.872 47.34 -17.872 Z M47.34 -19.844 Q42.606 -19.844 39.647 -22.816 Q36.689 -25.788 36.689 -30.397 Q36.689 -34.924 39.647 -38.036 Q42.606 -41.147 47.34 -41.147 Q52.074 -41.147 55.033 -38.036 Q57.992 -34.924 57.992 -30.397 Q57.992 -25.788 55.033 -22.816 Q52.074 -19.844 47.34 -19.844 Z M19.725 -7.22 Q17.555 -7.22 16.076 -8.7 Q14.597 -10.179 14.597 -12.349 V-48.643 Q14.597 -50.813 16.076 -52.292 Q17.555 -53.771 19.725 -53.771 H30.574 L36.097 -61.07 Q36.886 -62.155 37.988 -62.697 Q39.09 -63.239 40.338 -63.239 H54.36 Q55.625 -63.239 56.709 -62.697 Q57.794 -62.155 58.583 -61.07 L64.106 -53.771 H74.955 Q77.194 -53.771 78.639 -52.292 Q80.084 -50.813 80.084 -48.643 V-12.349 Q80.084 -10.179 78.639 -8.7 Q77.194 -7.22 74.955 -7.22 H19.725 Z M47.34 -9.193 H74.955 Q76.336 -9.193 77.223 -10.081 Q78.111 -10.968 78.111 -12.349 V-48.643 Q78.111 -50.024 77.223 -50.911 Q76.336 -51.799 74.955 -51.799 H62.923 L55.716 -61.267 H47.34 V-9.193 Z M19.725 -9.193 Q18.344 -9.193 17.457 -10.081 Q16.569 -10.968 16.569 -12.349 V-48.643 Q16.569 -50.024 17.457 -50.911 Q18.344 -51.799 19.725 -51.799 H31.757 L38.957 -61.267 H55.723 L62.923 -51.799 H74.955 Q76.336 -51.799 77.223 -50.911 Q78.111 -50.024 78.111 -48.643 V-12.349 Q78.111 -10.968 77.223 -10.081 Q76.336 -9.193 74.955 -9.193 H19.725 Z"/></g></g></svg>