<svg xmlns="http://www.w3.org/2000/svg" version="1.1" width="3300" height="2000"><g id="Notes"><style>
    text {
      font-family: monospace;
      text-anchor: middle;
    }
    text.emphasis {
      font-weight:bold;
    }
    text.lanchor {
      text-anchor: start;
    }
  </style><rect height="2200" id="artboard" fill="white" width="3300" x="0" y="0"/><line id="" style="fill:none;stroke:black;stroke-width:0.5;" x1="263" x2="3036" y1="292" y2="292"/><text class="lanchor emphasis" transform="matrix(1 0 0 1 263 322)">Weight/Scale Variations</text><text transform="matrix(1 0 0 1 559.711 322)">Ultralight</text><text transform="matrix(1 0 0 1 856.422 322)">Thin</text><text transform="matrix(1 0 0 1 1153.13 322)">Light</text><text transform="matrix(1 0 0 1 1449.84 322)">Regular</text><text transform="matrix(1 0 0 1 1746.56 322)">Medium</text><text transform="matrix(1 0 0 1 2043.27 322)">Semibold</text><text transform="matrix(1 0 0 1 2339.98 322)">Bold</text><text transform="matrix(1 0 0 1 2636.69 322)">Heavy</text><text transform="matrix(1 0 0 1 2933.4 322)">Black</text><text id="template-version" style="text-anchor: end;" transform="matrix(1 0 0 1 3036 1933)">Template v.1.0</text><text class="lanchor" transform="matrix(1 0 0 1 263 726)">Small</text><text class="lanchor" transform="matrix(1 0 0 1 263 1156)">Medium</text><text class="lanchor" transform="matrix(1 0 0 1 263 1586)">Large</text></g><g id="Guides"><g id="H-reference" style="fill:#27AAE1;stroke:none;" transform="matrix(1 0 0 1 339 696)"><path d="M 54.9316 0 L 57.666 0 L 30.5664 -70.459 L 28.0762 -70.459 L 0.976562 0 L 3.66211 0 L 12.9395 -24.4629 L 45.7031 -24.4629 Z M 29.1992 -67.0898 L 29.4434 -67.0898 L 44.8242 -26.709 L 13.8184 -26.709 Z"/></g><line id="Baseline-S" style="fill:none;stroke:#27AAE1;opacity:1;stroke-width:0.577;" x1="263" x2="3036" y1="696" y2="696"/><line id="Capline-S" style="fill:none;stroke:#27AAE1;opacity:1;stroke-width:0.577;" x1="263" x2="3036" y1="625.541" y2="625.541"/><g id="H-reference" style="fill:#27AAE1;stroke:none;" transform="matrix(1 0 0 1 339 1126)"><path d="M 54.9316 0 L 57.666 0 L 30.5664 -70.459 L 28.0762 -70.459 L 0.976562 0 L 3.66211 0 L 12.9395 -24.4629 L 45.7031 -24.4629 Z M 29.1992 -67.0898 L 29.4434 -67.0898 L 44.8242 -26.709 L 13.8184 -26.709 Z"/></g><line id="Baseline-M" style="fill:none;stroke:#27AAE1;opacity:1;stroke-width:0.577;" x1="263" x2="3036" y1="1126" y2="1126"/><line id="Capline-M" style="fill:none;stroke:#27AAE1;opacity:1;stroke-width:0.577;" x1="263" x2="3036" y1="1055.54" y2="1055.54"/><g id="H-reference" style="fill:#27AAE1;stroke:none;" transform="matrix(1 0 0 1 339 1556)"><path d="M 54.9316 0 L 57.666 0 L 30.5664 -70.459 L 28.0762 -70.459 L 0.976562 0 L 3.66211 0 L 12.9395 -24.4629 L 45.7031 -24.4629 Z M 29.1992 -67.0898 L 29.4434 -67.0898 L 44.8242 -26.709 L 13.8184 -26.709 Z"/></g><line id="Baseline-L" style="fill:none;stroke:#27AAE1;opacity:1;stroke-width:0.577;" x1="263" x2="3036" y1="1556" y2="1556"/><line id="Capline-L" style="fill:none;stroke:#27AAE1;opacity:1;stroke-width:0.577;" x1="263" x2="3036" y1="1485.54" y2="1485.54"/><rect height="119.336" id="left-margin" style="fill:darkred;stroke:none;opacity:0.4;" width="12.4512" x="1394.06" y="1030.79"/><rect height="119.336" id="right-margin" style="fill:darkgreen;stroke:none;opacity:0.4;" width="12.4512" x="1502.5112" y="1030.79"/><rect x="1406.5112" y="1045" width="96" height="96" fill="none" stroke="blue" stroke-dasharray="5"/><rect x="1394.06" y="1030.79" width="120.9024" height="119.336" fill="none" stroke="blue"/></g><g id="Symbols"><g id="Bold-L" transform="matrix(1 0 0 1 2266 1556)"><path d="M77.406 13.387 Q74.679 13.387 72.855 11.567 Q71.031 9.747 71.031 7.018 V-77.477 Q71.031 -80.207 72.849 -82.067 Q74.668 -83.927 77.394 -83.927 Q80.121 -83.927 81.986 -82.067 Q83.85 -80.207 83.85 -77.477 V7.018 Q83.85 9.747 81.991 11.567 Q80.132 13.387 77.406 13.387 Z M2.983 -5.802 V-10.397 Q2.983 -14.341 5.266 -17.869 Q7.549 -21.397 11.368 -23.297 Q15.573 -24.914 20.133 -25.96 Q24.692 -27.006 29.68 -27.006 Q34.669 -27.006 39.221 -25.96 Q43.773 -24.914 48.133 -23.297 Q51.964 -21.43 54.201 -17.885 Q56.438 -14.341 56.438 -10.397 V-5.802 H2.983 Z M98.443 -5.802 V-10.397 Q98.443 -14.341 100.637 -17.869 Q102.831 -21.397 106.828 -23.297 Q111.033 -24.914 115.593 -25.96 Q120.152 -27.006 125.14 -27.006 Q130.129 -27.006 134.681 -25.96 Q139.233 -24.914 143.432 -23.297 Q147.246 -21.43 149.572 -17.885 Q151.898 -14.341 151.898 -10.397 V-5.802 H98.443 Z M29.678 -35.311 Q23.662 -35.311 19.369 -39.629 Q15.077 -43.947 15.077 -50.01 Q15.077 -56.074 19.361 -60.366 Q23.646 -64.658 29.662 -64.658 Q35.678 -64.658 39.971 -60.347 Q44.263 -56.036 44.263 -50.02 Q44.263 -44.004 39.979 -39.657 Q35.694 -35.311 29.678 -35.311 Z M125.138 -35.311 Q119.121 -35.311 114.829 -39.629 Q110.537 -43.947 110.537 -50.01 Q110.537 -56.074 114.821 -60.366 Q119.106 -64.658 125.122 -64.658 Q131.139 -64.658 135.431 -60.347 Q139.723 -56.036 139.723 -50.02 Q139.723 -44.004 135.439 -39.657 Q131.154 -35.311 125.138 -35.311 Z"/></g><g id="Semibold-L" transform="matrix(1 0 0 1 1970.27 1556)"><path d="M77.391 11.775 Q74.986 11.775 73.394 10.176 Q71.802 8.578 71.802 6.176 V-76.636 Q71.802 -79.038 73.403 -80.676 Q75.004 -82.315 77.409 -82.315 Q79.814 -82.315 81.447 -80.676 Q83.079 -79.038 83.079 -76.636 V6.176 Q83.079 8.578 81.438 10.176 Q79.796 11.775 77.391 11.775 Z M4.595 -8.185 V-11.589 Q4.595 -15.244 6.668 -18.461 Q8.741 -21.678 12.28 -23.368 Q16.414 -24.984 20.833 -25.995 Q25.253 -27.006 30.101 -27.006 Q34.949 -27.006 39.361 -25.995 Q43.773 -24.984 47.993 -23.368 Q51.536 -21.71 53.601 -18.477 Q55.666 -15.244 55.666 -11.589 V-8.185 H4.595 Z M99.214 -8.185 V-11.589 Q99.214 -15.244 101.237 -18.461 Q103.259 -21.678 106.898 -23.368 Q111.033 -24.984 115.452 -25.995 Q119.871 -27.006 124.72 -27.006 Q129.568 -27.006 133.98 -25.995 Q138.392 -24.984 142.52 -23.368 Q146.054 -21.71 148.17 -18.477 Q150.285 -15.244 150.285 -11.589 V-8.185 H99.214 Z M30.098 -35.731 Q24.573 -35.731 20.631 -39.685 Q16.689 -43.638 16.689 -49.19 Q16.689 -54.742 20.624 -58.683 Q24.558 -62.625 30.083 -62.625 Q35.609 -62.625 39.55 -58.676 Q43.492 -54.726 43.492 -49.201 Q43.492 -43.676 39.558 -39.704 Q35.623 -35.731 30.098 -35.731 Z M124.717 -35.731 Q119.191 -35.731 115.25 -39.685 Q111.308 -43.638 111.308 -49.19 Q111.308 -54.742 115.242 -58.683 Q119.177 -62.625 124.702 -62.625 Q130.227 -62.625 134.169 -58.676 Q138.111 -54.726 138.111 -49.201 Q138.111 -43.676 134.176 -39.704 Q130.242 -35.731 124.717 -35.731 Z"/></g><g id="Medium-L" transform="matrix(1 0 0 1 1674.31 1556)"><path d="M77.38 10.565 Q75.216 10.565 73.798 9.133 Q72.38 7.701 72.38 5.545 V-76.005 Q72.38 -78.161 73.818 -79.633 Q75.256 -81.106 77.42 -81.106 Q79.584 -81.106 81.042 -79.633 Q82.5 -78.161 82.5 -76.005 V5.545 Q82.5 7.701 81.022 9.133 Q79.544 10.565 77.38 10.565 Z M5.805 -9.973 V-12.483 Q5.805 -15.921 7.72 -18.904 Q9.635 -21.888 12.963 -23.42 Q17.045 -25.036 21.359 -26.021 Q25.673 -27.006 30.416 -27.006 Q35.159 -27.006 39.466 -26.021 Q43.773 -25.036 47.888 -23.42 Q51.215 -21.92 53.151 -18.921 Q55.088 -15.921 55.088 -12.483 V-9.973 H5.805 Z M99.793 -9.973 V-12.483 Q99.793 -15.921 101.686 -18.904 Q103.58 -21.888 106.951 -23.42 Q111.033 -25.036 115.347 -26.021 Q119.661 -27.006 124.404 -27.006 Q129.147 -27.006 133.454 -26.021 Q137.761 -25.036 141.837 -23.42 Q145.16 -21.92 147.118 -18.921 Q149.076 -15.921 149.076 -12.483 V-9.973 H99.793 Z M30.413 -36.047 Q25.256 -36.047 21.578 -39.727 Q17.899 -43.407 17.899 -48.575 Q17.899 -53.742 21.571 -57.421 Q25.243 -61.1 30.399 -61.1 Q35.556 -61.1 39.235 -57.422 Q42.913 -53.743 42.913 -48.587 Q42.913 -43.43 39.241 -39.739 Q35.569 -36.047 30.413 -36.047 Z M124.401 -36.047 Q119.244 -36.047 115.565 -39.727 Q111.887 -43.407 111.887 -48.575 Q111.887 -53.742 115.559 -57.421 Q119.231 -61.1 124.387 -61.1 Q129.544 -61.1 133.222 -57.422 Q136.901 -53.743 136.901 -48.587 Q136.901 -43.43 133.229 -39.739 Q129.557 -36.047 124.401 -36.047 Z"/></g><g id="Regular-L" transform="matrix(1 0 0 1 1378.56 1556)"><path d="M77.372 9.678 Q75.384 9.678 74.094 8.368 Q72.804 7.058 72.804 5.083 V-75.542 Q72.804 -77.518 74.123 -78.868 Q75.441 -80.219 77.428 -80.219 Q79.416 -80.219 80.746 -78.868 Q82.076 -77.518 82.076 -75.542 V5.083 Q82.076 7.058 80.718 8.368 Q79.359 9.678 77.372 9.678 Z M6.692 -11.284 V-13.139 Q6.692 -16.417 8.491 -19.23 Q10.29 -22.042 13.464 -23.459 Q17.508 -25.075 21.745 -26.041 Q25.982 -27.006 30.648 -27.006 Q35.314 -27.006 39.543 -26.041 Q43.773 -25.075 47.811 -23.459 Q50.98 -22.075 52.822 -19.246 Q54.664 -16.417 54.664 -13.139 V-11.284 H6.692 Z M100.217 -11.284 V-13.139 Q100.217 -16.417 102.016 -19.23 Q103.815 -22.042 106.989 -23.459 Q111.033 -25.075 115.27 -26.041 Q119.507 -27.006 124.173 -27.006 Q128.839 -27.006 133.068 -26.041 Q137.298 -25.075 141.336 -23.459 Q144.505 -22.075 146.347 -19.246 Q148.189 -16.417 148.189 -13.139 V-11.284 H100.217 Z M30.644 -36.278 Q25.758 -36.278 22.272 -39.758 Q18.786 -43.237 18.786 -48.124 Q18.786 -53.01 22.265 -56.496 Q25.745 -59.982 30.631 -59.982 Q35.517 -59.982 39.003 -56.502 Q42.489 -53.023 42.489 -48.136 Q42.489 -43.25 39.01 -39.764 Q35.53 -36.278 30.644 -36.278 Z M124.169 -36.278 Q119.283 -36.278 115.797 -39.758 Q112.311 -43.237 112.311 -48.124 Q112.311 -53.01 115.79 -56.496 Q119.27 -59.982 124.156 -59.982 Q129.042 -59.982 132.528 -56.502 Q136.014 -53.023 136.014 -48.136 Q136.014 -43.25 132.535 -39.764 Q129.055 -36.278 124.169 -36.278 Z"/></g><g id="Light-L" transform="matrix(1 0 0 1 1082.77 1556)"><path d="M77.371 8.128 Q75.819 8.128 74.87 7.158 Q73.921 6.188 73.921 4.648 V-75.108 Q73.921 -76.648 74.899 -77.674 Q75.877 -78.699 77.429 -78.699 Q78.981 -78.699 79.986 -77.674 Q80.991 -76.648 80.991 -75.108 V4.648 Q80.991 6.188 79.957 7.158 Q78.923 8.128 77.371 8.128 Z M8.242 -12.401 V-13.449 Q8.242 -16.309 9.856 -18.741 Q11.469 -21.174 14.302 -22.435 Q18.253 -24.02 22.394 -24.971 Q26.536 -25.921 31.095 -25.921 Q35.655 -25.921 39.776 -24.971 Q43.897 -24.02 47.842 -22.435 Q50.668 -21.219 52.34 -18.764 Q54.012 -16.309 54.012 -13.449 V-12.401 H8.242 Z M100.899 -12.401 V-13.449 Q100.899 -16.309 102.512 -18.741 Q104.126 -21.174 106.958 -22.435 Q110.909 -24.02 115.051 -24.971 Q119.193 -25.921 123.752 -25.921 Q128.312 -25.921 132.433 -24.971 Q136.554 -24.02 140.498 -22.435 Q143.324 -21.219 144.997 -18.764 Q146.669 -16.309 146.669 -13.449 V-12.401 H100.899 Z M31.073 -37.612 Q26.698 -37.612 23.626 -40.673 Q20.553 -43.733 20.553 -48.108 Q20.553 -52.483 23.614 -55.597 Q26.675 -58.71 31.05 -58.71 Q35.424 -58.71 38.538 -55.608 Q41.652 -52.506 41.652 -48.131 Q41.652 -43.757 38.55 -40.684 Q35.448 -37.612 31.073 -37.612 Z M123.73 -37.612 Q119.355 -37.612 116.282 -40.673 Q113.21 -43.733 113.21 -48.108 Q113.21 -52.483 116.271 -55.597 Q119.332 -58.71 123.706 -58.71 Q128.081 -58.71 131.195 -55.608 Q134.309 -52.506 134.309 -48.131 Q134.309 -43.757 131.207 -40.684 Q128.104 -37.612 123.73 -37.612 Z"/></g><g id="Thin-L" transform="matrix(1 0 0 1 787.282 1556)"><path d="M77.37 6.577 Q76.253 6.577 75.645 5.948 Q75.037 5.318 75.037 4.214 V-74.674 Q75.037 -75.778 75.675 -76.479 Q76.313 -77.18 77.43 -77.18 Q78.547 -77.18 79.226 -76.479 Q79.906 -75.778 79.906 -74.674 V4.214 Q79.906 5.318 79.196 5.948 Q78.487 6.577 77.37 6.577 Z M9.793 -13.517 V-13.759 Q9.793 -16.2 11.22 -18.253 Q12.647 -20.306 15.139 -21.412 Q18.997 -22.966 23.043 -23.901 Q27.09 -24.836 31.543 -24.836 Q35.996 -24.836 40.009 -23.901 Q44.021 -22.966 47.873 -21.412 Q50.356 -20.363 51.858 -18.281 Q53.361 -16.2 53.361 -13.759 V-13.517 H9.793 Z M101.581 -13.517 V-13.759 Q101.581 -16.2 103.008 -18.253 Q104.435 -20.306 106.927 -21.412 Q110.785 -22.966 114.832 -23.901 Q118.878 -24.836 123.331 -24.836 Q127.784 -24.836 131.797 -23.901 Q135.81 -22.966 139.661 -21.412 Q142.144 -20.363 143.647 -18.281 Q145.15 -16.2 145.15 -13.759 V-13.517 H101.581 Z M31.502 -38.945 Q27.639 -38.945 24.98 -41.587 Q22.321 -44.229 22.321 -48.092 Q22.321 -51.955 24.963 -54.697 Q27.605 -57.439 31.468 -57.439 Q35.331 -57.439 38.073 -54.714 Q40.815 -51.989 40.815 -48.126 Q40.815 -44.263 38.09 -41.604 Q35.365 -38.945 31.502 -38.945 Z M123.29 -38.945 Q119.427 -38.945 116.768 -41.587 Q114.109 -44.229 114.109 -48.092 Q114.109 -51.955 116.751 -54.697 Q119.393 -57.439 123.257 -57.439 Q127.12 -57.439 129.862 -54.714 Q132.603 -51.989 132.603 -48.126 Q132.603 -44.263 129.878 -41.604 Q127.154 -38.945 123.29 -38.945 Z"/></g><g id="Ultralight-L" transform="matrix(1 0 0 1 491.205 1556)"><path d="M77.369 5.647 Q76.513 5.647 76.11 5.222 Q75.707 4.796 75.707 3.954 V-74.414 Q75.707 -75.256 76.141 -75.762 Q76.575 -76.268 77.431 -76.268 Q78.287 -76.268 78.771 -75.762 Q79.254 -75.256 79.254 -74.414 V3.954 Q79.254 4.796 78.74 5.222 Q78.225 5.647 77.369 5.647 Z M10.723 -14.187 V-13.945 Q10.723 -16.135 12.039 -17.96 Q13.354 -19.785 15.641 -20.798 Q19.443 -22.334 23.433 -23.259 Q27.422 -24.184 31.812 -24.184 Q36.201 -24.184 40.148 -23.259 Q44.096 -22.334 47.891 -20.798 Q50.168 -19.849 51.57 -17.992 Q52.971 -16.135 52.971 -13.945 V-14.187 H10.723 Z M101.991 -14.187 V-13.945 Q101.991 -16.135 103.306 -17.96 Q104.622 -19.785 106.909 -20.798 Q110.711 -22.334 114.7 -23.259 Q118.69 -24.184 123.079 -24.184 Q127.468 -24.184 131.416 -23.259 Q135.363 -22.334 139.159 -20.798 Q141.436 -19.849 142.837 -17.992 Q144.238 -16.135 144.238 -13.945 V-14.187 H101.991 Z M31.759 -39.745 Q28.203 -39.745 25.792 -42.136 Q23.381 -44.527 23.381 -48.083 Q23.381 -51.639 25.772 -54.158 Q28.163 -56.676 31.719 -56.676 Q35.275 -56.676 37.794 -54.178 Q40.312 -51.679 40.312 -48.123 Q40.312 -44.567 37.814 -42.156 Q35.315 -39.745 31.759 -39.745 Z M123.027 -39.745 Q119.47 -39.745 117.06 -42.136 Q114.649 -44.527 114.649 -48.083 Q114.649 -51.639 117.04 -54.158 Q119.43 -56.676 122.987 -56.676 Q126.543 -56.676 129.061 -54.178 Q131.58 -51.679 131.58 -48.123 Q131.58 -44.567 129.081 -42.156 Q126.583 -39.745 123.027 -39.745 Z"/></g><g id="Bold-M" transform="matrix(1 0 0 1 2281.8 1126)"><path d="M60 3.333 Q57.266 3.333 55.352 1.419 Q53.438 -0.496 53.438 -3.23 V-67.23 Q53.438 -69.964 55.352 -71.878 Q57.266 -73.792 60 -73.792 Q62.734 -73.792 64.648 -71.878 Q66.562 -69.964 66.562 -67.23 V-3.23 Q66.562 -0.496 64.648 1.419 Q62.734 3.333 60 3.333 Z M1.438 -9.792 V-15.23 Q1.438 -18.886 3.531 -22.058 Q5.625 -25.23 9.125 -26.792 Q12.438 -28.417 16.25 -29.167 Q20.062 -29.917 24 -29.917 Q27.938 -29.917 31.812 -29.167 Q35.688 -28.417 39 -26.792 Q42.513 -25.23 44.538 -22.058 Q46.562 -18.886 46.562 -15.23 V-9.792 H1.438 Z M73.438 -9.792 V-15.23 Q73.438 -18.886 75.462 -22.058 Q77.487 -25.23 81 -26.792 Q84.312 -28.417 88.188 -29.167 Q92.062 -29.917 96 -29.917 Q99.938 -29.917 103.75 -29.167 Q107.562 -28.417 110.875 -26.792 Q114.375 -25.23 116.469 -22.058 Q118.562 -18.886 118.562 -15.23 V-9.792 H73.438 Z M24.043 -34.605 Q18.905 -34.605 15.202 -38.29 Q11.5 -41.975 11.5 -47.15 Q11.5 -52.325 15.185 -55.965 Q18.87 -59.605 24.045 -59.605 Q29.22 -59.605 32.86 -55.946 Q36.5 -52.287 36.5 -47.148 Q36.5 -42.01 32.841 -38.307 Q29.182 -34.605 24.043 -34.605 Z M96.043 -34.605 Q90.905 -34.605 87.202 -38.29 Q83.5 -41.975 83.5 -47.15 Q83.5 -52.325 87.185 -55.965 Q90.87 -59.605 96.045 -59.605 Q101.22 -59.605 104.86 -55.946 Q108.5 -52.287 108.5 -47.148 Q108.5 -42.01 104.841 -38.307 Q101.182 -34.605 96.043 -34.605 Z"/></g><g id="Semibold-M" transform="matrix(1 0 0 1 1985.97 1126)"><path d="M60 1.648 Q57.612 1.648 55.932 -0.032 Q54.253 -1.712 54.253 -4.099 V-66.36 Q54.253 -68.748 55.932 -70.428 Q57.612 -72.108 60 -72.108 Q62.388 -72.108 64.068 -70.428 Q65.747 -68.748 65.747 -66.36 V-4.099 Q65.747 -1.712 64.068 -0.032 Q62.388 1.648 60 1.648 Z M3.122 -12.292 V-16.48 Q3.122 -19.81 4.998 -22.656 Q6.875 -25.502 10.049 -26.901 Q13.307 -28.417 16.956 -29.167 Q20.606 -29.917 24.435 -29.917 Q28.264 -29.917 31.948 -29.167 Q35.633 -28.417 38.891 -26.901 Q42.072 -25.502 43.91 -22.656 Q45.747 -19.81 45.747 -16.48 V-12.292 H3.122 Z M74.253 -12.292 V-16.48 Q74.253 -19.81 76.09 -22.656 Q77.927 -25.502 81.109 -26.901 Q84.367 -28.417 88.052 -29.167 Q91.736 -29.917 95.565 -29.917 Q99.394 -29.917 103.043 -29.167 Q106.693 -28.417 109.951 -26.901 Q113.125 -25.502 115.001 -22.656 Q116.878 -19.81 116.878 -16.48 V-12.292 H74.253 Z M24.459 -35.04 Q19.828 -35.04 16.507 -38.352 Q13.185 -41.664 13.185 -46.315 Q13.185 -50.967 16.497 -54.253 Q19.809 -57.54 24.46 -57.54 Q29.112 -57.54 32.398 -54.242 Q35.685 -50.945 35.685 -46.314 Q35.685 -41.684 32.387 -38.362 Q29.09 -35.04 24.459 -35.04 Z M95.59 -35.04 Q90.959 -35.04 87.637 -38.352 Q84.315 -41.664 84.315 -46.315 Q84.315 -50.967 87.627 -54.253 Q90.94 -57.54 95.591 -57.54 Q100.242 -57.54 103.529 -54.242 Q106.815 -50.945 106.815 -46.314 Q106.815 -41.684 103.518 -38.362 Q100.22 -35.04 95.59 -35.04 Z"/></g><g id="Medium-M" transform="matrix(1 0 0 1 1689.91 1126)"><path d="M60 0.384 Q57.872 0.384 56.368 -1.12 Q54.864 -2.624 54.864 -4.752 V-65.708 Q54.864 -67.836 56.368 -69.34 Q57.872 -70.844 60 -70.844 Q62.128 -70.844 63.632 -69.34 Q65.136 -67.836 65.136 -65.708 V-4.752 Q65.136 -2.624 63.632 -1.12 Q62.128 0.384 60 0.384 Z M4.386 -14.167 V-17.417 Q4.386 -20.503 6.099 -23.104 Q7.812 -25.705 10.742 -26.983 Q13.959 -28.417 17.486 -29.167 Q21.014 -29.917 24.761 -29.917 Q28.508 -29.917 32.05 -29.167 Q35.592 -28.417 38.81 -26.983 Q41.742 -25.705 43.439 -23.104 Q45.136 -20.503 45.136 -17.417 V-14.167 H4.386 Z M74.864 -14.167 V-17.417 Q74.864 -20.503 76.561 -23.104 Q78.258 -25.705 81.19 -26.983 Q84.408 -28.417 87.95 -29.167 Q91.492 -29.917 95.239 -29.917 Q98.986 -29.917 102.514 -29.167 Q106.041 -28.417 109.258 -26.983 Q112.188 -25.705 113.901 -23.104 Q115.614 -20.503 115.614 -17.417 V-14.167 H74.864 Z M24.771 -35.366 Q20.521 -35.366 17.485 -38.398 Q14.448 -41.431 14.448 -45.689 Q14.448 -49.948 17.481 -52.969 Q20.513 -55.991 24.772 -55.991 Q29.03 -55.991 32.052 -52.965 Q35.073 -49.938 35.073 -45.689 Q35.073 -41.439 32.047 -38.402 Q29.021 -35.366 24.771 -35.366 Z M95.249 -35.366 Q91 -35.366 87.963 -38.398 Q84.927 -41.431 84.927 -45.689 Q84.927 -49.948 87.959 -52.969 Q90.992 -55.991 95.25 -55.991 Q99.508 -55.991 102.53 -52.965 Q105.552 -49.938 105.552 -45.689 Q105.552 -41.439 102.525 -38.402 Q99.499 -35.366 95.249 -35.366 Z"/></g><g id="Regular-M" transform="matrix(1 0 0 1 1394.06 1126)"><path d="M60 -0.542 Q58.062 -0.542 56.688 -1.917 Q55.312 -3.292 55.312 -5.23 V-65.23 Q55.312 -67.167 56.688 -68.542 Q58.062 -69.917 60 -69.917 Q61.938 -69.917 63.312 -68.542 Q64.688 -67.167 64.688 -65.23 V-5.23 Q64.688 -3.292 63.312 -1.917 Q61.938 -0.542 60 -0.542 Z M5.312 -15.542 V-18.105 Q5.312 -21.011 6.906 -23.433 Q8.5 -25.855 11.25 -27.042 Q14.438 -28.417 17.875 -29.167 Q21.312 -29.917 25 -29.917 Q28.688 -29.917 32.125 -29.167 Q35.562 -28.417 38.75 -27.042 Q41.5 -25.855 43.094 -23.433 Q44.688 -21.011 44.688 -18.105 V-15.542 H5.312 Z M75.312 -15.542 V-18.105 Q75.312 -21.011 76.906 -23.433 Q78.5 -25.855 81.25 -27.042 Q84.438 -28.417 87.875 -29.167 Q91.312 -29.917 95 -29.917 Q98.688 -29.917 102.125 -29.167 Q105.562 -28.417 108.75 -27.042 Q111.5 -25.855 113.094 -23.433 Q114.688 -21.011 114.688 -18.105 V-15.542 H75.312 Z M25 -35.605 Q21.03 -35.605 18.202 -38.432 Q15.375 -41.26 15.375 -45.23 Q15.375 -49.2 18.202 -52.028 Q21.03 -54.855 25 -54.855 Q28.97 -54.855 31.798 -52.028 Q34.625 -49.2 34.625 -45.23 Q34.625 -41.26 31.798 -38.432 Q28.97 -35.605 25 -35.605 Z M95 -35.605 Q91.03 -35.605 88.202 -38.432 Q85.375 -41.26 85.375 -45.23 Q85.375 -49.2 88.202 -52.028 Q91.03 -54.855 95 -54.855 Q98.97 -54.855 101.798 -52.028 Q104.625 -49.2 104.625 -45.23 Q104.625 -41.26 101.798 -38.432 Q98.97 -35.605 95 -35.605 Z"/></g><g id="Light-M" transform="matrix(1 0 0 1 1098.18 1126)"><path d="M60 -1.744 Q58.543 -1.744 57.529 -2.759 Q56.514 -3.773 56.514 -5.23 V-65.23 Q56.514 -66.687 57.529 -67.713 Q58.543 -68.739 60 -68.739 Q61.457 -68.739 62.483 -67.713 Q63.51 -66.687 63.51 -65.23 V-5.23 Q63.51 -3.773 62.483 -2.759 Q61.457 -1.744 60 -1.744 Z M6.514 -16.744 V-18.345 Q6.514 -20.819 7.916 -22.856 Q9.317 -24.893 11.707 -25.961 Q14.774 -27.312 18.103 -28.026 Q21.433 -28.739 25 -28.739 Q28.567 -28.739 31.897 -28.026 Q35.226 -27.312 38.293 -25.961 Q40.681 -24.903 42.095 -22.861 Q43.51 -20.819 43.51 -18.345 V-16.744 H6.514 Z M76.514 -16.744 V-18.345 Q76.514 -20.819 77.916 -22.856 Q79.317 -24.893 81.707 -25.961 Q84.774 -27.312 88.103 -28.026 Q91.433 -28.739 95 -28.739 Q98.567 -28.739 101.897 -28.026 Q105.226 -27.312 108.293 -25.961 Q110.681 -24.903 112.095 -22.861 Q113.51 -20.819 113.51 -18.345 V-16.744 H76.514 Z M25.004 -36.783 Q21.486 -36.783 19.02 -39.246 Q16.553 -41.708 16.553 -45.226 Q16.553 -48.743 19.016 -51.21 Q21.478 -53.677 24.996 -53.677 Q28.514 -53.677 30.98 -51.214 Q33.447 -48.752 33.447 -45.234 Q33.447 -41.716 30.984 -39.25 Q28.522 -36.783 25.004 -36.783 Z M95.004 -36.783 Q91.487 -36.783 89.02 -39.246 Q86.553 -41.708 86.553 -45.226 Q86.553 -48.743 89.016 -51.21 Q91.478 -53.677 94.996 -53.677 Q98.513 -53.677 100.98 -51.214 Q103.447 -48.752 103.447 -45.234 Q103.447 -41.716 100.984 -39.25 Q98.522 -36.783 95.004 -36.783 Z"/></g><g id="Thin-M" transform="matrix(1 0 0 1 802.565 1126)"><path d="M60 -2.946 Q59.024 -2.946 58.37 -3.6 Q57.716 -4.254 57.716 -5.23 V-65.23 Q57.716 -66.206 58.37 -66.884 Q59.024 -67.562 60 -67.562 Q60.976 -67.562 61.654 -66.884 Q62.332 -66.206 62.332 -65.23 V-5.23 Q62.332 -4.254 61.654 -3.6 Q60.976 -2.946 60 -2.946 Z M7.716 -17.946 V-18.586 Q7.716 -20.627 8.925 -22.279 Q10.135 -23.932 12.164 -24.879 Q15.111 -26.206 18.332 -26.884 Q21.553 -27.562 25 -27.562 Q28.447 -27.562 31.668 -26.884 Q34.889 -26.206 37.837 -24.879 Q39.862 -23.951 41.097 -22.289 Q42.332 -20.627 42.332 -18.586 V-17.946 H7.716 Z M77.716 -17.946 V-18.586 Q77.716 -20.627 78.925 -22.279 Q80.135 -23.932 82.163 -24.879 Q85.111 -26.206 88.332 -26.884 Q91.553 -27.562 95 -27.562 Q98.447 -27.562 101.668 -26.884 Q104.889 -26.206 107.837 -24.879 Q109.862 -23.951 111.097 -22.289 Q112.332 -20.627 112.332 -18.586 V-17.946 H77.716 Z M25.008 -37.961 Q21.943 -37.961 19.837 -40.059 Q17.731 -42.157 17.731 -45.222 Q17.731 -48.287 19.829 -50.393 Q21.927 -52.499 24.992 -52.499 Q28.057 -52.499 30.163 -50.401 Q32.269 -48.303 32.269 -45.238 Q32.269 -42.173 30.171 -40.067 Q28.073 -37.961 25.008 -37.961 Z M95.008 -37.961 Q91.943 -37.961 89.837 -40.059 Q87.731 -42.157 87.731 -45.222 Q87.731 -48.287 89.829 -50.393 Q91.927 -52.499 94.992 -52.499 Q98.057 -52.499 100.163 -50.401 Q102.269 -48.303 102.269 -45.238 Q102.269 -42.173 100.171 -40.067 Q98.073 -37.961 95.008 -37.961 Z"/></g><g id="Ultralight-M" transform="matrix(1 0 0 1 506.415 1126)"><path d="M60 -3.667 Q59.312 -3.667 58.875 -4.105 Q58.438 -4.542 58.438 -5.23 V-65.23 Q58.438 -65.917 58.875 -66.386 Q59.312 -66.855 60 -66.855 Q60.688 -66.855 61.156 -66.386 Q61.625 -65.917 61.625 -65.23 V-5.23 Q61.625 -4.542 61.156 -4.105 Q60.688 -3.667 60 -3.667 Z M8.438 -18.667 V-18.73 Q8.438 -20.511 9.531 -21.933 Q10.625 -23.355 12.438 -24.23 Q15.312 -25.542 18.469 -26.199 Q21.625 -26.855 25 -26.855 Q28.375 -26.855 31.531 -26.199 Q34.688 -25.542 37.562 -24.23 Q39.371 -23.38 40.498 -21.946 Q41.625 -20.511 41.625 -18.73 V-18.667 H8.438 Z M78.438 -18.667 V-18.73 Q78.438 -20.511 79.531 -21.933 Q80.625 -23.355 82.438 -24.23 Q85.312 -25.542 88.469 -26.199 Q91.625 -26.855 95 -26.855 Q98.375 -26.855 101.531 -26.199 Q104.688 -25.542 107.562 -24.23 Q109.371 -23.38 110.498 -21.946 Q111.625 -20.511 111.625 -18.73 V-18.667 H78.438 Z M25.011 -38.667 Q22.217 -38.667 20.327 -40.547 Q18.438 -42.426 18.438 -45.219 Q18.438 -48.013 20.317 -49.903 Q22.196 -51.792 24.989 -51.792 Q27.783 -51.792 29.673 -49.913 Q31.562 -48.034 31.562 -45.24 Q31.562 -42.447 29.683 -40.557 Q27.804 -38.667 25.011 -38.667 Z M95.01 -38.667 Q92.217 -38.667 90.327 -40.547 Q88.438 -42.426 88.438 -45.219 Q88.438 -48.013 90.317 -49.903 Q92.196 -51.792 94.99 -51.792 Q97.783 -51.792 99.673 -49.913 Q101.562 -48.034 101.562 -45.24 Q101.562 -42.447 99.683 -40.557 Q97.804 -38.667 95.01 -38.667 Z"/></g><g id="Bold-S" transform="matrix(1 0 0 1 2294.23 696)"><path d="M47.361 -8.749 Q45.38 -8.749 43.968 -10.146 Q42.557 -11.543 42.557 -13.532 V-56.927 Q42.557 -58.917 43.947 -60.314 Q45.338 -61.711 47.319 -61.711 Q49.3 -61.711 50.712 -60.314 Q52.123 -58.917 52.123 -56.927 V-13.532 Q52.123 -11.543 50.733 -10.146 Q49.342 -8.749 47.361 -8.749 Z M1.923 -16.738 V-22.014 Q1.923 -24.702 3.477 -26.958 Q5.03 -29.214 7.514 -30.353 Q9.813 -31.532 12.562 -32.074 Q15.31 -32.616 18.134 -32.616 Q20.958 -32.616 23.747 -32.076 Q26.537 -31.536 28.897 -30.348 Q31.373 -29.214 32.872 -26.958 Q34.371 -24.702 34.371 -22.014 V-16.738 H1.923 Z M60.309 -16.738 V-22.014 Q60.309 -24.702 61.808 -26.958 Q63.307 -29.214 65.801 -30.353 Q68.101 -31.532 70.899 -32.074 Q73.696 -32.616 76.52 -32.616 Q79.344 -32.616 82.084 -32.076 Q84.824 -31.536 87.184 -30.348 Q89.65 -29.214 91.203 -26.958 Q92.757 -24.702 92.757 -22.014 V-16.738 H60.309 Z M18.16 -34.737 Q14.423 -34.737 11.748 -37.419 Q9.074 -40.101 9.074 -43.867 Q9.074 -47.633 11.756 -50.259 Q14.438 -52.884 18.204 -52.884 Q21.97 -52.884 24.595 -50.222 Q27.221 -47.561 27.221 -43.823 Q27.221 -40.086 24.559 -37.411 Q21.898 -34.737 18.16 -34.737 Z M76.546 -34.737 Q72.809 -34.737 70.134 -37.419 Q67.46 -40.101 67.46 -43.867 Q67.46 -47.633 70.142 -50.259 Q72.824 -52.884 76.59 -52.884 Q80.356 -52.884 82.981 -50.222 Q85.606 -47.561 85.606 -43.823 Q85.606 -40.086 82.945 -37.411 Q80.284 -34.737 76.546 -34.737 Z"/></g><g id="Semibold-S" transform="matrix(1 0 0 1 1998.1 696)"><path d="M47.361 -10.078 Q45.653 -10.078 44.427 -11.29 Q43.2 -12.502 43.2 -14.219 V-56.241 Q43.2 -57.958 44.406 -59.17 Q45.612 -60.382 47.319 -60.382 Q49.027 -60.382 50.253 -59.17 Q51.48 -57.958 51.48 -56.241 V-14.219 Q51.48 -12.502 50.274 -11.29 Q49.068 -10.078 47.361 -10.078 Z M3.252 -18.71 V-23 Q3.252 -25.431 4.634 -27.429 Q6.016 -29.428 8.243 -30.439 Q10.499 -31.532 13.119 -32.074 Q15.739 -32.616 18.477 -32.616 Q21.215 -32.616 23.855 -32.076 Q26.494 -31.536 28.811 -30.434 Q31.025 -29.428 32.377 -27.429 Q33.728 -25.431 33.728 -23 V-18.71 H3.252 Z M60.952 -18.71 V-23 Q60.952 -25.431 62.303 -27.429 Q63.655 -29.428 65.887 -30.439 Q68.143 -31.532 70.791 -32.074 Q73.439 -32.616 76.177 -32.616 Q78.915 -32.616 81.527 -32.076 Q84.138 -31.536 86.456 -30.434 Q88.664 -29.428 90.046 -27.429 Q91.428 -25.431 91.428 -23 V-18.71 H60.952 Z M18.488 -35.08 Q15.152 -35.08 12.777 -37.468 Q10.403 -39.855 10.403 -43.208 Q10.403 -46.561 12.79 -48.908 Q15.178 -51.254 18.531 -51.254 Q21.884 -51.254 24.231 -48.878 Q26.577 -46.502 26.577 -43.165 Q26.577 -39.829 24.201 -37.454 Q21.825 -35.08 18.488 -35.08 Z M76.188 -35.08 Q72.852 -35.08 70.477 -37.468 Q68.103 -39.855 68.103 -43.208 Q68.103 -46.561 70.49 -48.908 Q72.878 -51.254 76.231 -51.254 Q79.584 -51.254 81.931 -48.878 Q84.277 -46.502 84.277 -43.165 Q84.277 -39.829 81.901 -37.454 Q79.525 -35.08 76.188 -35.08 Z"/></g><g id="Medium-S" transform="matrix(1 0 0 1 1701.85 696)"><path d="M47.361 -11.075 Q45.858 -11.075 44.77 -12.149 Q43.682 -13.222 43.682 -14.733 V-55.727 Q43.682 -57.238 44.75 -58.311 Q45.817 -59.385 47.319 -59.385 Q48.822 -59.385 49.91 -58.311 Q50.998 -57.238 50.998 -55.727 V-14.733 Q50.998 -13.222 49.93 -12.149 Q48.863 -11.075 47.361 -11.075 Z M4.249 -20.19 V-23.74 Q4.249 -25.977 5.503 -27.783 Q6.756 -29.589 8.789 -30.503 Q11.014 -31.532 13.537 -32.074 Q16.061 -32.616 18.734 -32.616 Q21.408 -32.616 23.935 -32.076 Q26.462 -31.536 28.747 -30.498 Q30.765 -29.589 32.005 -27.783 Q33.245 -25.977 33.245 -23.74 V-20.19 H4.249 Z M61.435 -20.19 V-23.74 Q61.435 -25.977 62.675 -27.783 Q63.915 -29.589 65.951 -30.503 Q68.176 -31.532 70.711 -32.074 Q73.246 -32.616 75.92 -32.616 Q78.593 -32.616 81.109 -32.076 Q83.624 -31.536 85.909 -30.498 Q87.924 -29.589 89.177 -27.783 Q90.431 -25.977 90.431 -23.74 V-20.19 H61.435 Z M18.735 -35.337 Q15.698 -35.337 13.549 -37.504 Q11.4 -39.671 11.4 -42.714 Q11.4 -45.757 13.567 -47.895 Q15.734 -50.032 18.777 -50.032 Q21.82 -50.032 23.957 -47.87 Q26.095 -45.708 26.095 -42.672 Q26.095 -39.636 23.933 -37.487 Q21.771 -35.337 18.735 -35.337 Z M75.92 -35.337 Q72.884 -35.337 70.734 -37.504 Q68.585 -39.671 68.585 -42.714 Q68.585 -45.757 70.752 -47.895 Q72.919 -50.032 75.962 -50.032 Q79.005 -50.032 81.143 -47.87 Q83.28 -45.708 83.28 -42.672 Q83.28 -39.636 81.118 -37.487 Q78.956 -35.337 75.92 -35.337 Z"/></g><g id="Regular-S" transform="matrix(1 0 0 1 1405.73 696)"><path d="M47.361 -11.807 Q46.009 -11.807 45.022 -12.778 Q44.036 -13.749 44.036 -15.11 V-55.349 Q44.036 -56.711 45.002 -57.682 Q45.967 -58.653 47.319 -58.653 Q48.671 -58.653 49.658 -57.682 Q50.644 -56.711 50.644 -55.349 V-15.11 Q50.644 -13.749 49.678 -12.778 Q48.713 -11.807 47.361 -11.807 Z M4.981 -21.275 V-24.283 Q4.981 -26.378 6.139 -28.043 Q7.298 -29.707 9.19 -30.55 Q11.391 -31.532 13.844 -32.074 Q16.297 -32.616 18.923 -32.616 Q21.55 -32.616 23.994 -32.076 Q26.438 -31.536 28.7 -30.545 Q30.574 -29.707 31.733 -28.043 Q32.891 -26.378 32.891 -24.283 V-21.275 H4.981 Z M61.789 -21.275 V-24.283 Q61.789 -26.378 62.947 -28.043 Q64.106 -29.707 65.998 -30.55 Q68.199 -31.532 70.652 -32.074 Q73.105 -32.616 75.731 -32.616 Q78.358 -32.616 80.802 -32.076 Q83.246 -31.536 85.508 -30.545 Q87.382 -29.707 88.541 -28.043 Q89.699 -26.378 89.699 -24.283 V-21.275 H61.789 Z M18.915 -35.526 Q16.099 -35.526 14.115 -37.531 Q12.131 -39.536 12.131 -42.352 Q12.131 -45.168 14.136 -47.152 Q16.141 -49.136 18.957 -49.136 Q21.773 -49.136 23.757 -47.131 Q25.741 -45.126 25.741 -42.31 Q25.741 -39.494 23.736 -37.51 Q21.731 -35.526 18.915 -35.526 Z M75.723 -35.526 Q72.907 -35.526 70.923 -37.531 Q68.939 -39.536 68.939 -42.352 Q68.939 -45.168 70.944 -47.152 Q72.949 -49.136 75.765 -49.136 Q78.581 -49.136 80.565 -47.131 Q82.549 -45.126 82.549 -42.31 Q82.549 -39.494 80.544 -37.51 Q78.539 -35.526 75.723 -35.526 Z"/></g><g id="Light-S" transform="matrix(1 0 0 1 1109.75 696)"><path d="M47.361 -12.755 Q46.388 -12.755 45.686 -13.442 Q44.984 -14.129 44.984 -15.11 V-55.349 Q44.984 -56.331 45.665 -57.028 Q46.346 -57.724 47.319 -57.724 Q48.292 -57.724 49.003 -57.028 Q49.714 -56.331 49.714 -55.349 V-15.11 Q49.714 -14.129 49.024 -13.442 Q48.334 -12.755 47.361 -12.755 Z M5.929 -22.223 V-24.472 Q5.929 -26.227 6.936 -27.587 Q7.943 -28.948 9.551 -29.696 Q11.657 -30.659 14.024 -31.173 Q16.392 -31.687 18.923 -31.687 Q21.455 -31.687 23.814 -31.175 Q26.173 -30.663 28.339 -29.692 Q29.928 -28.956 30.945 -27.591 Q31.962 -26.227 31.962 -24.472 V-22.223 H5.929 Z M62.737 -22.223 V-24.472 Q62.737 -26.227 63.744 -27.587 Q64.751 -28.948 66.359 -29.696 Q68.465 -30.659 70.832 -31.173 Q73.2 -31.687 75.731 -31.687 Q78.263 -31.687 80.622 -31.175 Q82.981 -30.663 85.147 -29.692 Q86.736 -28.956 87.753 -27.591 Q88.77 -26.227 88.77 -24.472 V-22.223 H62.737 Z M18.918 -36.455 Q16.46 -36.455 14.76 -38.173 Q13.06 -39.89 13.06 -42.349 Q13.06 -44.807 14.778 -46.507 Q16.495 -48.207 18.954 -48.207 Q21.412 -48.207 23.112 -46.489 Q24.812 -44.772 24.812 -42.313 Q24.812 -39.855 23.094 -38.155 Q21.377 -36.455 18.918 -36.455 Z M75.726 -36.455 Q73.268 -36.455 71.568 -38.173 Q69.868 -39.89 69.868 -42.349 Q69.868 -44.807 71.586 -46.507 Q73.303 -48.207 75.762 -48.207 Q78.22 -48.207 79.92 -46.489 Q81.62 -44.772 81.62 -42.313 Q81.62 -39.855 79.902 -38.155 Q78.185 -36.455 75.726 -36.455 Z"/></g><g id="Thin-S" transform="matrix(1 0 0 1 814.015 696)"><path d="M47.361 -13.703 Q46.767 -13.703 46.35 -14.106 Q45.933 -14.508 45.933 -15.11 V-55.349 Q45.933 -55.952 46.329 -56.373 Q46.726 -56.795 47.319 -56.795 Q47.913 -56.795 48.349 -56.373 Q48.785 -55.952 48.785 -55.349 V-15.11 Q48.785 -14.508 48.37 -14.106 Q47.954 -13.703 47.361 -13.703 Z M6.877 -23.171 V-24.662 Q6.877 -26.075 7.733 -27.132 Q8.588 -28.19 9.911 -28.843 Q11.922 -29.787 14.204 -30.272 Q16.486 -30.758 18.923 -30.758 Q21.36 -30.758 23.634 -30.274 Q25.907 -29.791 27.979 -28.838 Q29.282 -28.205 30.157 -27.14 Q31.033 -26.075 31.033 -24.662 V-23.171 H6.877 Z M63.685 -23.171 V-24.662 Q63.685 -26.075 64.541 -27.132 Q65.396 -28.19 66.719 -28.843 Q68.73 -29.787 71.012 -30.272 Q73.294 -30.758 75.731 -30.758 Q78.168 -30.758 80.442 -30.274 Q82.715 -29.791 84.787 -28.838 Q86.09 -28.205 86.965 -27.14 Q87.841 -26.075 87.841 -24.662 V-23.171 H63.685 Z M18.921 -37.385 Q16.82 -37.385 15.405 -38.814 Q13.99 -40.244 13.99 -42.346 Q13.99 -44.447 15.419 -45.862 Q16.849 -47.277 18.951 -47.277 Q21.052 -47.277 22.467 -45.848 Q23.882 -44.418 23.882 -42.316 Q23.882 -40.215 22.453 -38.8 Q21.023 -37.385 18.921 -37.385 Z M75.729 -37.385 Q73.628 -37.385 72.213 -38.814 Q70.798 -40.244 70.798 -42.346 Q70.798 -44.447 72.227 -45.862 Q73.657 -47.277 75.759 -47.277 Q77.86 -47.277 79.275 -45.848 Q80.69 -44.418 80.69 -42.316 Q80.69 -40.215 79.261 -38.8 Q77.831 -37.385 75.729 -37.385 Z"/></g><g id="Ultralight-S" transform="matrix(1 0 0 1 517.792 696)"><path d="M47.361 -14.272 Q46.995 -14.272 46.748 -14.504 Q46.502 -14.736 46.502 -15.11 V-55.349 Q46.502 -55.724 46.727 -55.981 Q46.953 -56.237 47.319 -56.237 Q47.685 -56.237 47.956 -55.981 Q48.228 -55.724 48.228 -55.349 V-15.11 Q48.228 -14.736 47.977 -14.504 Q47.727 -14.272 47.361 -14.272 Z M7.446 -23.74 V-24.776 Q7.446 -25.984 8.211 -26.859 Q8.975 -27.734 10.127 -28.331 Q12.082 -29.263 14.312 -29.732 Q16.543 -30.2 18.923 -30.2 Q21.303 -30.2 23.525 -29.734 Q25.748 -29.267 27.763 -28.326 Q28.894 -27.754 29.685 -26.869 Q30.475 -25.984 30.475 -24.776 V-23.74 H7.446 Z M64.254 -23.74 V-24.776 Q64.254 -25.984 65.019 -26.859 Q65.783 -27.734 66.935 -28.331 Q68.89 -29.263 71.12 -29.732 Q73.351 -30.2 75.731 -30.2 Q78.111 -30.2 80.333 -29.734 Q82.556 -29.267 84.571 -28.326 Q85.702 -27.754 86.493 -26.869 Q87.283 -25.984 87.283 -24.776 V-23.74 H64.254 Z M18.923 -37.942 Q17.036 -37.942 15.792 -39.199 Q14.547 -40.457 14.547 -42.344 Q14.547 -44.231 15.804 -45.475 Q17.062 -46.72 18.949 -46.72 Q20.836 -46.72 22.08 -45.463 Q23.325 -44.205 23.325 -42.318 Q23.325 -40.431 22.068 -39.187 Q20.81 -37.942 18.923 -37.942 Z M75.731 -37.942 Q73.844 -37.942 72.6 -39.199 Q71.355 -40.457 71.355 -42.344 Q71.355 -44.231 72.612 -45.475 Q73.87 -46.72 75.757 -46.72 Q77.644 -46.72 78.888 -45.463 Q80.133 -44.205 80.133 -42.318 Q80.133 -40.431 78.876 -39.187 Q77.618 -37.942 75.731 -37.942 Z"/></g></g></svg>