<svg xmlns="http://www.w3.org/2000/svg" height="20" viewBox="0 -960 960 960" width="20"><path d="M580.304-87.87v-195.826h48v-48q0-30.417 21.76-51.926 21.759-21.508 52.315-21.508 30.556 0 52.154 21.508 21.598 21.509 21.598 51.926v48h48v195.827H580.304Zm85.914-195.826h72v-48q0-15.3-10.29-25.65-10.289-10.35-25.5-10.35-15.21 0-25.71 10.35t-10.5 25.65v48ZM480-528Zm0 440.13q-123.368 0-209.75-86.38-86.381-86.382-86.381-209.75v-192q0-123.368 86.377-209.75 86.377-86.381 209.74-86.381 123.362 0 209.753 86.381 86.392 86.382 86.392 209.75v112.87q-19.87-7.957-40.74-10.74-20.869-2.782-42.261-.869V-528H266.87v144q0 88.449 62.34 150.79 62.341 62.34 150.79 62.34 6.957 0 14.152-.239 7.196-.239 14.152-1.956v83.668q-7.163.955-14.255 1.241-7.092.287-14.049.287ZM268.87-600H444v-185.13q-71.283 11.239-119.206 62.902Q276.87-670.565 268.87-600ZM516-600h175.13q-8-70.565-55.924-121.728Q587.283-772.891 516-785.13V-600Zm-36 72Zm36-72Zm-72 0Z"/></svg>