<svg xmlns="http://www.w3.org/2000/svg" version="1.1" width="3300" height="2000"><g id="Notes"><style>
    text {
      font-family: monospace;
      text-anchor: middle;
    }
    text.emphasis {
      font-weight:bold;
    }
    text.lanchor {
      text-anchor: start;
    }
  </style><rect height="2200" id="artboard" fill="white" width="3300" x="0" y="0"/><line id="" style="fill:none;stroke:black;stroke-width:0.5;" x1="263" x2="3036" y1="292" y2="292"/><text class="lanchor emphasis" transform="matrix(1 0 0 1 263 322)">Weight/Scale Variations</text><text transform="matrix(1 0 0 1 559.711 322)">Ultralight</text><text transform="matrix(1 0 0 1 856.422 322)">Thin</text><text transform="matrix(1 0 0 1 1153.13 322)">Light</text><text transform="matrix(1 0 0 1 1449.84 322)">Regular</text><text transform="matrix(1 0 0 1 1746.56 322)">Medium</text><text transform="matrix(1 0 0 1 2043.27 322)">Semibold</text><text transform="matrix(1 0 0 1 2339.98 322)">Bold</text><text transform="matrix(1 0 0 1 2636.69 322)">Heavy</text><text transform="matrix(1 0 0 1 2933.4 322)">Black</text><text id="template-version" style="text-anchor: end;" transform="matrix(1 0 0 1 3036 1933)">Template v.1.0</text><text class="lanchor" transform="matrix(1 0 0 1 263 726)">Small</text><text class="lanchor" transform="matrix(1 0 0 1 263 1156)">Medium</text><text class="lanchor" transform="matrix(1 0 0 1 263 1586)">Large</text></g><g id="Guides"><g id="H-reference" style="fill:#27AAE1;stroke:none;" transform="matrix(1 0 0 1 339 696)"><path d="M 54.9316 0 L 57.666 0 L 30.5664 -70.459 L 28.0762 -70.459 L 0.976562 0 L 3.66211 0 L 12.9395 -24.4629 L 45.7031 -24.4629 Z M 29.1992 -67.0898 L 29.4434 -67.0898 L 44.8242 -26.709 L 13.8184 -26.709 Z"/></g><line id="Baseline-S" style="fill:none;stroke:#27AAE1;opacity:1;stroke-width:0.577;" x1="263" x2="3036" y1="696" y2="696"/><line id="Capline-S" style="fill:none;stroke:#27AAE1;opacity:1;stroke-width:0.577;" x1="263" x2="3036" y1="625.541" y2="625.541"/><g id="H-reference" style="fill:#27AAE1;stroke:none;" transform="matrix(1 0 0 1 339 1126)"><path d="M 54.9316 0 L 57.666 0 L 30.5664 -70.459 L 28.0762 -70.459 L 0.976562 0 L 3.66211 0 L 12.9395 -24.4629 L 45.7031 -24.4629 Z M 29.1992 -67.0898 L 29.4434 -67.0898 L 44.8242 -26.709 L 13.8184 -26.709 Z"/></g><line id="Baseline-M" style="fill:none;stroke:#27AAE1;opacity:1;stroke-width:0.577;" x1="263" x2="3036" y1="1126" y2="1126"/><line id="Capline-M" style="fill:none;stroke:#27AAE1;opacity:1;stroke-width:0.577;" x1="263" x2="3036" y1="1055.54" y2="1055.54"/><g id="H-reference" style="fill:#27AAE1;stroke:none;" transform="matrix(1 0 0 1 339 1556)"><path d="M 54.9316 0 L 57.666 0 L 30.5664 -70.459 L 28.0762 -70.459 L 0.976562 0 L 3.66211 0 L 12.9395 -24.4629 L 45.7031 -24.4629 Z M 29.1992 -67.0898 L 29.4434 -67.0898 L 44.8242 -26.709 L 13.8184 -26.709 Z"/></g><line id="Baseline-L" style="fill:none;stroke:#27AAE1;opacity:1;stroke-width:0.577;" x1="263" x2="3036" y1="1556" y2="1556"/><line id="Capline-L" style="fill:none;stroke:#27AAE1;opacity:1;stroke-width:0.577;" x1="263" x2="3036" y1="1485.54" y2="1485.54"/><rect height="119.336" id="left-margin" style="fill:darkred;stroke:none;opacity:0.4;" width="12.4512" x="1394.06" y="1030.79"/><rect height="119.336" id="right-margin" style="fill:darkgreen;stroke:none;opacity:0.4;" width="12.4512" x="1502.5112" y="1030.79"/><rect x="1406.5112" y="1045" width="96" height="96" fill="none" stroke="blue" stroke-dasharray="5"/><rect x="1394.06" y="1030.79" width="120.9024" height="119.336" fill="none" stroke="blue"/></g><g id="Symbols"><g id="Bold-L" transform="matrix(1 0 0 1 2266 1556)"><path d="M24.429 19.514 Q18.307 19.514 13.991 15.198 Q9.675 10.883 9.675 4.76 V-13.945 Q9.675 -16.956 11.84 -19.119 Q14.005 -21.282 17.08 -21.282 Q20.156 -21.282 22.293 -19.119 Q24.429 -16.956 24.429 -13.945 V4.76 Q24.429 4.76 24.429 4.76 Q24.429 4.76 24.429 4.76 H43.134 Q46.146 4.76 48.308 6.931 Q50.471 9.102 50.471 12.125 Q50.471 15.241 48.308 17.378 Q46.146 19.514 43.134 19.514 H24.429 Z M9.675 -82.557 V-101.181 Q9.675 -107.304 13.991 -111.7 Q18.307 -116.097 24.429 -116.097 H43.134 Q46.146 -116.097 48.308 -113.845 Q50.471 -111.594 50.471 -108.571 Q50.471 -105.454 48.308 -103.318 Q46.146 -101.181 43.134 -101.181 H24.429 Q24.429 -101.181 24.429 -101.181 Q24.429 -101.181 24.429 -101.181 V-82.557 Q24.429 -79.453 22.258 -77.296 Q20.088 -75.139 17.064 -75.139 Q13.948 -75.139 11.812 -77.296 Q9.675 -79.453 9.675 -82.557 Z M77.34 -34.424 Q71.676 -34.424 67.644 -38.479 Q63.613 -42.535 63.613 -48.226 Q63.613 -54.096 67.669 -58.087 Q71.724 -62.078 77.415 -62.078 Q83.286 -62.078 87.277 -58.096 Q91.267 -54.114 91.267 -48.151 Q91.267 -42.486 87.285 -38.455 Q83.304 -34.424 77.34 -34.424 Z M130.371 -82.557 V-101.181 Q130.371 -101.181 130.371 -101.181 Q130.371 -101.181 130.371 -101.181 H111.746 Q108.642 -101.181 106.485 -103.346 Q104.329 -105.511 104.329 -108.587 Q104.329 -111.662 106.485 -113.88 Q108.642 -116.097 111.746 -116.097 H130.371 Q136.493 -116.097 140.89 -111.7 Q145.286 -107.304 145.286 -101.181 V-82.557 Q145.286 -79.453 143.035 -77.296 Q140.783 -75.139 137.76 -75.139 Q134.644 -75.139 132.507 -77.296 Q130.371 -79.453 130.371 -82.557 Z M37.571 -42.325 Q34.308 -42.325 32.473 -39.232 Q30.637 -36.138 32.089 -32.811 Q35.513 -21.865 43.588 -13.617 Q51.664 -5.37 62.726 -2.093 Q66.193 -0.642 69.338 -2.577 Q72.482 -4.512 72.482 -8.25 Q72.482 -10.801 71.066 -12.681 Q69.65 -14.561 67.403 -15.557 Q59.501 -17.654 54.019 -23.459 Q48.536 -29.264 46.198 -37.004 Q44.987 -39.415 42.589 -40.87 Q40.192 -42.325 37.571 -42.325 Z M37.733 -51.597 Q34.469 -51.597 32.795 -54.635 Q31.121 -57.673 32.411 -61.03 Q35.945 -71.902 43.853 -80.132 Q51.761 -88.362 62.888 -91.748 Q66.364 -93.119 69.584 -91.184 Q72.804 -89.249 72.804 -85.511 Q72.804 -82.96 71.393 -81.065 Q69.983 -79.171 67.725 -78.284 Q59.824 -76.107 54.341 -70.302 Q48.859 -64.497 46.44 -56.837 Q45.301 -54.345 42.928 -52.971 Q40.556 -51.597 37.733 -51.597 Z M117.39 -51.597 Q120.492 -51.597 122.247 -54.635 Q124.001 -57.673 122.711 -61.03 Q119.097 -71.902 111.189 -80.132 Q103.281 -88.362 92.235 -91.748 Q88.597 -93.119 85.458 -91.184 Q82.318 -89.249 82.318 -85.511 Q82.318 -82.96 83.729 -81.065 Q85.14 -79.171 87.398 -78.284 Q95.218 -76.107 100.741 -70.302 Q106.264 -64.497 108.763 -56.837 Q109.84 -54.364 112.184 -52.981 Q114.527 -51.597 117.39 -51.597 Z M117.027 21.691 Q104.409 21.691 95.581 12.88 Q86.752 4.069 86.752 -8.543 Q86.752 -21.201 95.563 -29.989 Q104.374 -38.777 116.987 -38.777 Q129.645 -38.777 138.433 -29.989 Q147.221 -21.201 147.221 -8.583 Q147.221 4.034 138.433 12.863 Q129.645 21.691 117.027 21.691 Z M117.39 11.613 Q119.567 11.613 121.018 10.243 Q122.469 8.872 122.469 6.614 Q122.469 4.357 121.002 2.906 Q119.535 1.454 117.471 1.454 Q115.213 1.454 113.843 2.906 Q112.472 4.357 112.472 6.614 Q112.472 8.872 113.843 10.243 Q115.213 11.613 117.39 11.613 Z M117.471 -5.318 Q119.002 -5.318 120.051 -6.447 Q121.099 -7.576 121.099 -9.07 V-24.303 Q121.099 -25.797 119.97 -26.845 Q118.841 -27.893 117.309 -27.893 Q115.778 -27.893 114.729 -26.764 Q113.681 -25.636 113.681 -24.142 V-8.908 Q113.681 -7.414 114.81 -6.366 Q115.939 -5.318 117.471 -5.318 Z"/></g><g id="Semibold-L" transform="matrix(1 0 0 1 1970.27 1556)"><path d="M23.798 17.762 Q18.728 17.762 15.078 14.112 Q11.428 10.462 11.428 5.391 V-15.137 Q11.428 -17.657 13.242 -19.47 Q15.056 -21.282 17.641 -21.282 Q20.226 -21.282 22.012 -19.47 Q23.798 -17.657 23.798 -15.137 V5.391 Q23.798 5.391 23.798 5.391 Q23.798 5.391 23.798 5.391 H44.326 Q46.847 5.391 48.659 7.211 Q50.471 9.032 50.471 11.564 Q50.471 14.19 48.659 15.976 Q46.847 17.762 44.326 17.762 H23.798 Z M11.428 -81.365 V-101.812 Q11.428 -106.883 15.078 -110.579 Q18.728 -114.274 23.798 -114.274 H44.326 Q46.847 -114.274 48.659 -112.408 Q50.471 -110.542 50.471 -108.01 Q50.471 -105.384 48.659 -103.598 Q46.847 -101.812 44.326 -101.812 H23.798 Q23.798 -101.812 23.798 -101.812 Q23.798 -101.812 23.798 -101.812 V-81.365 Q23.798 -78.752 21.978 -76.946 Q20.158 -75.139 17.625 -75.139 Q15 -75.139 13.214 -76.946 Q11.428 -78.752 11.428 -81.365 Z M77.34 -35.616 Q72.166 -35.616 68.486 -39.32 Q64.805 -43.025 64.805 -48.226 Q64.805 -53.535 68.51 -57.211 Q72.215 -60.886 77.415 -60.886 Q82.725 -60.886 86.4 -57.22 Q90.076 -53.553 90.076 -48.151 Q90.076 -42.977 86.409 -39.296 Q82.743 -35.616 77.34 -35.616 Z M131.002 -81.365 V-101.812 Q131.002 -101.812 131.002 -101.812 Q131.002 -101.812 131.002 -101.812 H110.554 Q107.941 -101.812 106.135 -103.626 Q104.329 -105.441 104.329 -108.026 Q104.329 -110.611 106.135 -112.443 Q107.941 -114.274 110.554 -114.274 H131.002 Q136.072 -114.274 139.768 -110.579 Q143.463 -106.883 143.463 -101.812 V-81.365 Q143.463 -78.752 141.598 -76.946 Q139.732 -75.139 137.199 -75.139 Q134.574 -75.139 132.788 -76.946 Q131.002 -78.752 131.002 -81.365 Z M37.641 -42.605 Q34.869 -42.605 33.314 -40.003 Q31.759 -37.4 32.86 -34.564 Q36.144 -23.056 44.535 -14.599 Q52.925 -6.141 64.479 -3.005 Q67.385 -1.904 69.968 -3.488 Q72.552 -5.073 72.552 -8.11 Q72.552 -10.31 71.241 -11.98 Q69.93 -13.65 67.893 -14.436 Q59.221 -16.672 53.107 -23.003 Q46.994 -29.334 44.586 -37.915 Q43.725 -39.976 41.783 -41.291 Q39.841 -42.605 37.641 -42.605 Z M37.803 -51.877 Q35.03 -51.877 33.566 -54.46 Q32.103 -57.042 33.112 -59.908 Q36.436 -71.341 44.73 -79.781 Q53.023 -88.222 64.64 -91.468 Q67.556 -92.488 70.18 -90.903 Q72.804 -89.319 72.804 -86.282 Q72.804 -84.082 71.499 -82.397 Q70.193 -80.713 68.146 -80.036 Q59.473 -77.719 53.36 -71.389 Q47.246 -65.058 44.828 -56.557 Q43.969 -54.415 42.052 -53.146 Q40.136 -51.877 37.803 -51.877 Z M117.25 -51.877 Q119.931 -51.877 121.44 -54.46 Q122.95 -57.042 121.94 -59.908 Q118.536 -71.341 110.242 -79.781 Q101.949 -88.222 90.412 -91.468 Q87.405 -92.488 84.827 -90.903 Q82.248 -89.319 82.248 -86.282 Q82.248 -84.082 83.554 -82.397 Q84.86 -80.713 86.907 -80.036 Q95.499 -77.719 101.652 -71.389 Q107.806 -65.058 110.305 -56.557 Q111.102 -54.434 112.99 -53.156 Q114.878 -51.877 117.25 -51.877 Z M117.027 21.691 Q104.409 21.691 95.581 12.88 Q86.752 4.069 86.752 -8.543 Q86.752 -21.201 95.563 -29.989 Q104.374 -38.777 116.987 -38.777 Q129.645 -38.777 138.433 -29.989 Q147.221 -21.201 147.221 -8.583 Q147.221 4.034 138.433 12.863 Q129.645 21.691 117.027 21.691 Z M117.39 10.772 Q119.286 10.772 120.562 9.577 Q121.838 8.381 121.838 6.404 Q121.838 4.427 120.546 3.186 Q119.254 1.945 117.471 1.945 Q115.494 1.945 114.298 3.186 Q113.103 4.427 113.103 6.404 Q113.103 8.381 114.298 9.577 Q115.494 10.772 117.39 10.772 Z M117.471 -4.687 Q118.862 -4.687 119.77 -5.676 Q120.678 -6.664 120.678 -8.018 V-24.093 Q120.678 -25.446 119.69 -26.354 Q118.701 -27.262 117.309 -27.262 Q115.918 -27.262 115.01 -26.274 Q114.102 -25.285 114.102 -23.931 V-7.857 Q114.102 -6.503 115.09 -5.595 Q116.079 -4.687 117.471 -4.687 Z"/></g><g id="Medium-L" transform="matrix(1 0 0 1 1674.31 1556)"><path d="M23.325 16.447 Q19.043 16.447 15.893 13.297 Q12.742 10.146 12.742 5.864 V-16.031 Q12.742 -18.183 14.294 -19.733 Q15.845 -21.282 18.062 -21.282 Q20.279 -21.282 21.802 -19.733 Q23.325 -18.183 23.325 -16.031 V5.864 Q23.325 5.864 23.325 5.864 Q23.325 5.864 23.325 5.864 H45.22 Q47.373 5.864 48.922 7.422 Q50.471 8.979 50.471 11.144 Q50.471 13.401 48.922 14.924 Q47.373 16.447 45.22 16.447 H23.325 Z M12.742 -80.471 V-102.285 Q12.742 -106.568 15.893 -109.737 Q19.043 -112.907 23.325 -112.907 H45.22 Q47.373 -112.907 48.922 -111.33 Q50.471 -109.753 50.471 -107.589 Q50.471 -105.332 48.922 -103.808 Q47.373 -102.285 45.22 -102.285 H23.325 Q23.325 -102.285 23.325 -102.285 Q23.325 -102.285 23.325 -102.285 V-80.471 Q23.325 -78.226 21.768 -76.683 Q20.21 -75.139 18.046 -75.139 Q15.788 -75.139 14.265 -76.683 Q12.742 -78.226 12.742 -80.471 Z M77.34 -36.51 Q72.534 -36.51 69.117 -39.952 Q65.699 -43.393 65.699 -48.226 Q65.699 -53.115 69.141 -56.554 Q72.583 -59.992 77.415 -59.992 Q82.304 -59.992 85.743 -56.563 Q89.182 -53.133 89.182 -48.151 Q89.182 -43.345 85.752 -39.927 Q82.322 -36.51 77.34 -36.51 Z M131.475 -80.471 V-102.285 Q131.475 -102.285 131.475 -102.285 Q131.475 -102.285 131.475 -102.285 H109.66 Q107.415 -102.285 105.872 -103.837 Q104.329 -105.388 104.329 -107.605 Q104.329 -109.822 105.872 -111.365 Q107.415 -112.907 109.66 -112.907 H131.475 Q135.757 -112.907 138.927 -109.737 Q142.096 -106.568 142.096 -102.285 V-80.471 Q142.096 -78.226 140.52 -76.683 Q138.943 -75.139 136.778 -75.139 Q134.521 -75.139 132.998 -76.683 Q131.475 -78.226 131.475 -80.471 Z M37.694 -42.816 Q35.29 -42.816 33.945 -40.581 Q32.601 -38.347 33.438 -35.879 Q36.617 -23.95 45.244 -15.335 Q53.872 -6.72 65.794 -3.688 Q68.279 -2.85 70.442 -4.172 Q72.605 -5.493 72.605 -8.005 Q72.605 -9.942 71.373 -11.454 Q70.141 -12.966 68.261 -13.594 Q59.011 -15.936 52.424 -22.661 Q45.837 -29.386 43.376 -38.599 Q42.779 -40.397 41.179 -41.606 Q39.578 -42.816 37.694 -42.816 Z M37.855 -52.088 Q35.451 -52.088 34.145 -54.328 Q32.839 -56.569 33.638 -59.067 Q36.804 -70.92 45.387 -79.518 Q53.97 -88.116 65.955 -91.257 Q68.45 -92.015 70.627 -90.693 Q72.804 -89.371 72.804 -86.86 Q72.804 -84.923 71.577 -83.396 Q70.351 -81.87 68.461 -81.351 Q59.21 -78.929 52.624 -72.203 Q46.037 -65.478 43.618 -56.347 Q42.97 -54.468 41.395 -53.278 Q39.82 -52.088 37.855 -52.088 Z M117.145 -52.088 Q119.51 -52.088 120.836 -54.328 Q122.161 -56.569 121.362 -59.067 Q118.115 -70.92 109.532 -79.518 Q100.95 -88.116 89.045 -91.257 Q86.511 -92.015 84.353 -90.693 Q82.195 -89.371 82.195 -86.86 Q82.195 -84.923 83.422 -83.396 Q84.649 -81.87 86.539 -81.351 Q95.709 -78.929 102.336 -72.203 Q108.963 -65.478 111.462 -56.347 Q112.048 -54.487 113.595 -53.287 Q115.141 -52.088 117.145 -52.088 Z M117.027 21.691 Q104.409 21.691 95.581 12.88 Q86.752 4.069 86.752 -8.543 Q86.752 -21.201 95.563 -29.989 Q104.374 -38.777 116.987 -38.777 Q129.645 -38.777 138.433 -29.989 Q147.221 -21.201 147.221 -8.583 Q147.221 4.034 138.433 12.863 Q129.645 21.691 117.027 21.691 Z M117.39 10.141 Q119.076 10.141 120.221 9.077 Q121.365 8.013 121.365 6.246 Q121.365 4.48 120.204 3.396 Q119.044 2.313 117.471 2.313 Q115.704 2.313 114.64 3.396 Q113.576 4.48 113.576 6.246 Q113.576 8.013 114.64 9.077 Q115.704 10.141 117.39 10.141 Z M117.471 -4.214 Q118.757 -4.214 119.56 -5.097 Q120.363 -5.981 120.363 -7.229 V-23.935 Q120.363 -25.183 119.479 -25.986 Q118.596 -26.789 117.309 -26.789 Q116.023 -26.789 115.22 -25.906 Q114.417 -25.022 114.417 -23.774 V-7.068 Q114.417 -5.819 115.301 -5.017 Q116.184 -4.214 117.471 -4.214 Z"/></g><g id="Regular-L" transform="matrix(1 0 0 1 1378.56 1556)"><path d="M22.978 15.483 Q19.274 15.483 16.49 12.699 Q13.706 9.915 13.706 6.211 V-16.686 Q13.706 -18.569 15.065 -19.925 Q16.423 -21.282 18.37 -21.282 Q20.317 -21.282 21.648 -19.925 Q22.978 -18.569 22.978 -16.686 V6.211 Q22.978 6.211 22.978 6.211 Q22.978 6.211 22.978 6.211 H45.876 Q47.758 6.211 49.115 7.576 Q50.471 8.941 50.471 10.835 Q50.471 12.823 49.115 14.153 Q47.758 15.483 45.876 15.483 H22.978 Z M13.706 -79.816 V-102.632 Q13.706 -106.336 16.49 -109.12 Q19.274 -111.904 22.978 -111.904 H45.876 Q47.758 -111.904 49.115 -110.54 Q50.471 -109.175 50.471 -107.281 Q50.471 -105.293 49.115 -103.963 Q47.758 -102.632 45.876 -102.632 H22.978 Q22.978 -102.632 22.978 -102.632 Q22.978 -102.632 22.978 -102.632 V-79.816 Q22.978 -77.84 21.613 -76.49 Q20.249 -75.139 18.354 -75.139 Q16.367 -75.139 15.037 -76.49 Q13.706 -77.84 13.706 -79.816 Z M77.34 -37.165 Q72.804 -37.165 69.579 -40.414 Q66.354 -43.663 66.354 -48.226 Q66.354 -52.806 69.604 -56.072 Q72.853 -59.337 77.415 -59.337 Q81.996 -59.337 85.261 -56.08 Q88.526 -52.824 88.526 -48.151 Q88.526 -43.615 85.27 -40.39 Q82.014 -37.165 77.34 -37.165 Z M131.822 -79.816 V-102.632 Q131.822 -102.632 131.822 -102.632 Q131.822 -102.632 131.822 -102.632 H109.005 Q107.03 -102.632 105.679 -103.991 Q104.329 -105.35 104.329 -107.297 Q104.329 -109.244 105.679 -110.574 Q107.03 -111.904 109.005 -111.904 H131.822 Q135.526 -111.904 138.31 -109.12 Q141.094 -106.336 141.094 -102.632 V-79.816 Q141.094 -77.84 139.729 -76.49 Q138.364 -75.139 136.47 -75.139 Q134.483 -75.139 133.152 -76.49 Q131.822 -77.84 131.822 -79.816 Z M37.733 -42.97 Q35.598 -42.97 34.408 -41.005 Q33.218 -39.041 33.863 -36.842 Q36.964 -24.606 45.765 -15.875 Q54.566 -7.144 66.758 -4.189 Q68.934 -3.544 70.789 -4.673 Q72.643 -5.802 72.643 -7.927 Q72.643 -9.672 71.469 -11.068 Q70.295 -12.465 68.531 -12.977 Q58.856 -15.396 51.922 -22.411 Q44.989 -29.425 42.489 -39.1 Q42.084 -40.705 40.735 -41.838 Q39.386 -42.97 37.733 -42.97 Z M37.894 -52.242 Q35.759 -52.242 34.569 -54.232 Q33.379 -56.222 34.024 -58.45 Q37.074 -70.612 45.869 -79.326 Q54.664 -88.039 66.919 -91.103 Q69.106 -91.667 70.955 -90.539 Q72.804 -89.41 72.804 -87.284 Q72.804 -85.54 71.635 -84.129 Q70.466 -82.718 68.692 -82.315 Q59.017 -79.816 52.084 -72.801 Q45.15 -65.787 42.731 -56.192 Q42.237 -54.506 40.913 -53.374 Q39.589 -52.242 37.894 -52.242 Z M117.068 -52.242 Q119.202 -52.242 120.392 -54.232 Q121.583 -56.222 120.938 -58.45 Q117.807 -70.612 109.012 -79.326 Q100.217 -88.039 88.043 -91.103 Q85.856 -91.667 84.006 -90.539 Q82.157 -89.41 82.157 -87.284 Q82.157 -85.54 83.326 -84.129 Q84.495 -82.718 86.269 -82.315 Q95.863 -79.816 102.837 -72.801 Q109.811 -65.787 112.311 -56.192 Q112.742 -54.525 114.038 -53.384 Q115.334 -52.242 117.068 -52.242 Z M117.027 21.691 Q104.409 21.691 95.581 12.88 Q86.752 4.069 86.752 -8.543 Q86.752 -21.201 95.563 -29.989 Q104.374 -38.777 116.987 -38.777 Q129.645 -38.777 138.433 -29.989 Q147.221 -21.201 147.221 -8.583 Q147.221 4.034 138.433 12.863 Q129.645 21.691 117.027 21.691 Z M117.39 9.678 Q118.922 9.678 119.97 8.711 Q121.018 7.743 121.018 6.131 Q121.018 4.518 119.954 3.551 Q118.89 2.583 117.471 2.583 Q115.858 2.583 114.891 3.551 Q113.923 4.518 113.923 6.131 Q113.923 7.743 114.891 8.711 Q115.858 9.678 117.39 9.678 Z M117.471 -3.867 Q118.68 -3.867 119.406 -4.673 Q120.131 -5.479 120.131 -6.651 V-23.819 Q120.131 -24.991 119.325 -25.716 Q118.519 -26.442 117.309 -26.442 Q116.1 -26.442 115.374 -25.636 Q114.649 -24.829 114.649 -23.658 V-6.49 Q114.649 -5.318 115.455 -4.592 Q116.261 -3.867 117.471 -3.867 Z"/></g><g id="Light-L" transform="matrix(1 0 0 1 1082.77 1556)"><path d="M25.676 12.599 Q22.017 12.599 19.319 9.901 Q16.621 7.203 16.621 3.544 V-18.082 Q16.621 -19.493 17.655 -20.527 Q18.69 -21.561 20.186 -21.561 Q21.682 -21.561 22.687 -20.527 Q23.691 -19.493 23.691 -18.082 V3.544 Q23.691 4.289 24.312 4.909 Q24.932 5.529 25.676 5.529 H47.302 Q48.713 5.529 49.747 6.571 Q50.781 7.614 50.781 9.038 Q50.781 10.59 49.747 11.594 Q48.713 12.599 47.302 12.599 H25.676 Z M16.621 -78.389 V-99.904 Q16.621 -103.562 19.319 -106.26 Q22.017 -108.958 25.676 -108.958 H47.302 Q48.713 -108.958 49.747 -107.916 Q50.781 -106.873 50.781 -105.45 Q50.781 -103.898 49.747 -102.893 Q48.713 -101.888 47.302 -101.888 H25.676 Q24.932 -101.888 24.312 -101.268 Q23.691 -100.648 23.691 -99.904 V-78.389 Q23.691 -76.849 22.649 -75.824 Q21.607 -74.798 20.183 -74.798 Q18.631 -74.798 17.626 -75.824 Q16.621 -76.849 16.621 -78.389 Z M77.345 -38.25 Q73.27 -38.25 70.37 -41.178 Q67.471 -44.105 67.471 -48.227 Q67.471 -52.31 70.398 -55.265 Q73.325 -58.22 77.448 -58.22 Q81.53 -58.22 84.486 -55.279 Q87.441 -52.338 87.441 -48.125 Q87.441 -44.049 84.5 -41.15 Q81.558 -38.25 77.345 -38.25 Z M131.109 -78.389 V-99.904 Q131.109 -100.648 130.488 -101.268 Q129.868 -101.888 129.124 -101.888 H107.61 Q106.07 -101.888 105.044 -102.922 Q104.019 -103.956 104.019 -105.453 Q104.019 -106.949 105.044 -107.954 Q106.07 -108.958 107.61 -108.958 H129.124 Q132.783 -108.958 135.481 -106.26 Q138.179 -103.562 138.179 -99.904 V-78.389 Q138.179 -76.849 137.136 -75.824 Q136.094 -74.798 134.67 -74.798 Q133.118 -74.798 132.113 -75.824 Q131.109 -76.849 131.109 -78.389 Z M38.386 -41.978 Q36.776 -41.978 35.834 -40.463 Q34.892 -38.948 35.444 -37.308 Q38.422 -25.598 46.788 -17.177 Q55.155 -8.756 66.758 -5.864 Q68.531 -5.374 70.06 -6.208 Q71.589 -7.042 71.589 -8.697 Q71.589 -10.038 70.575 -11.112 Q69.562 -12.186 68.221 -12.574 Q58.484 -15.148 51.504 -22.178 Q44.524 -29.208 41.962 -38.945 Q41.681 -40.125 40.658 -41.051 Q39.634 -41.978 38.386 -41.978 Z M38.483 -53.513 Q36.863 -53.513 35.927 -55.023 Q34.991 -56.532 35.543 -58.295 Q38.47 -69.837 46.815 -78.24 Q55.16 -86.644 66.888 -89.677 Q68.675 -90.117 70.182 -89.252 Q71.688 -88.387 71.688 -86.732 Q71.688 -85.391 70.713 -84.297 Q69.737 -83.203 68.382 -82.966 Q58.645 -80.281 51.619 -73.251 Q44.592 -66.221 42.142 -56.596 Q41.758 -55.289 40.758 -54.401 Q39.757 -53.513 38.483 -53.513 Z M116.447 -53.513 Q118.024 -53.513 118.966 -55.027 Q119.908 -56.54 119.387 -58.295 Q116.38 -69.837 108.004 -78.24 Q99.628 -86.644 88.043 -89.677 Q86.255 -90.117 84.748 -89.252 Q83.242 -88.387 83.242 -86.736 Q83.242 -85.397 84.21 -84.306 Q85.177 -83.214 86.61 -82.966 Q96.235 -80.281 103.271 -73.251 Q110.307 -66.221 112.869 -56.596 Q113.146 -55.301 114.131 -54.407 Q115.118 -53.513 116.447 -53.513 Z M115.485 17.536 Q103.944 17.536 95.876 9.5 Q87.807 1.464 87.807 -10.063 Q87.807 -21.604 95.861 -29.664 Q103.915 -37.723 115.467 -37.723 Q127.039 -37.723 135.053 -29.664 Q143.066 -21.604 143.066 -10.103 Q143.066 1.398 135.046 9.467 Q127.026 17.536 115.485 17.536 Z M115.746 6.732 Q117.154 6.732 118.14 5.827 Q119.126 4.921 119.126 3.433 Q119.126 1.944 118.124 1.008 Q117.122 0.071 115.827 0.071 Q114.339 0.071 113.402 1.008 Q112.466 1.944 112.466 3.433 Q112.466 4.921 113.402 5.827 Q114.339 6.732 115.746 6.732 Z M115.796 -6.131 Q116.863 -6.131 117.567 -6.884 Q118.271 -7.638 118.271 -8.727 V-23.968 Q118.271 -25.053 117.517 -25.732 Q116.764 -26.411 115.666 -26.411 Q114.568 -26.411 113.895 -25.693 Q113.222 -24.975 113.222 -23.879 V-8.544 Q113.222 -7.551 113.976 -6.841 Q114.729 -6.131 115.796 -6.131 Z"/></g><g id="Thin-L" transform="matrix(1 0 0 1 787.282 1556)"><path d="M28.374 9.715 Q24.76 9.715 22.148 7.103 Q19.536 4.491 19.536 0.878 V-19.477 Q19.536 -20.417 20.246 -21.129 Q20.955 -21.84 22.001 -21.84 Q23.046 -21.84 23.726 -21.129 Q24.405 -20.417 24.405 -19.477 V0.878 Q24.405 2.366 25.645 3.606 Q26.885 4.847 28.374 4.847 H48.728 Q49.668 4.847 50.38 5.567 Q51.091 6.287 51.091 7.24 Q51.091 8.357 50.38 9.036 Q49.668 9.715 48.728 9.715 H28.374 Z M19.536 -76.963 V-97.175 Q19.536 -100.789 22.148 -103.401 Q24.76 -106.013 28.374 -106.013 H48.728 Q49.668 -106.013 50.38 -105.292 Q51.091 -104.572 51.091 -103.619 Q51.091 -102.502 50.38 -101.823 Q49.668 -101.144 48.728 -101.144 H28.374 Q26.885 -101.144 25.645 -99.904 Q24.405 -98.663 24.405 -97.175 V-76.963 Q24.405 -75.859 23.684 -75.158 Q22.964 -74.457 22.011 -74.457 Q20.894 -74.457 20.215 -75.158 Q19.536 -75.859 19.536 -76.963 Z M77.351 -39.336 Q73.735 -39.336 71.161 -41.941 Q68.587 -44.546 68.587 -48.228 Q68.587 -51.814 71.192 -54.459 Q73.798 -57.104 77.479 -57.104 Q81.065 -57.104 83.711 -54.478 Q86.356 -51.852 86.356 -48.099 Q86.356 -44.483 83.729 -41.909 Q81.103 -39.336 77.351 -39.336 Z M130.395 -76.963 V-97.175 Q130.395 -98.663 129.155 -99.904 Q127.915 -101.144 126.426 -101.144 H106.214 Q105.11 -101.144 104.409 -101.854 Q103.709 -102.563 103.709 -103.609 Q103.709 -104.654 104.409 -105.333 Q105.11 -106.013 106.214 -106.013 H126.426 Q130.04 -106.013 132.652 -103.401 Q135.264 -100.789 135.264 -97.175 V-76.963 Q135.264 -75.859 134.544 -75.158 Q133.823 -74.457 132.871 -74.457 Q131.754 -74.457 131.074 -75.158 Q130.395 -75.859 130.395 -76.963 Z M39.039 -40.985 Q37.955 -40.985 37.261 -39.92 Q36.567 -38.855 37.025 -37.773 Q39.879 -26.591 47.812 -18.48 Q55.745 -10.369 66.758 -7.538 Q68.128 -7.203 69.331 -7.743 Q70.534 -8.283 70.534 -9.466 Q70.534 -10.405 69.682 -11.156 Q68.83 -11.907 67.911 -12.171 Q58.112 -14.9 51.085 -21.945 Q44.058 -28.991 41.435 -38.79 Q41.278 -39.545 40.58 -40.265 Q39.882 -40.985 39.039 -40.985 Z M39.072 -54.785 Q37.966 -54.785 37.285 -55.813 Q36.604 -56.842 37.063 -58.14 Q39.865 -69.061 47.76 -77.155 Q55.656 -85.248 66.857 -88.25 Q68.245 -88.567 69.408 -87.965 Q70.572 -87.363 70.572 -86.18 Q70.572 -85.241 69.79 -84.465 Q69.009 -83.688 68.072 -83.617 Q58.273 -80.746 51.153 -73.701 Q44.034 -66.655 41.553 -56.999 Q41.28 -56.072 40.602 -55.428 Q39.925 -54.785 39.072 -54.785 Z M115.827 -54.785 Q116.845 -54.785 117.539 -55.822 Q118.233 -56.859 117.837 -58.14 Q114.954 -69.061 106.996 -77.155 Q99.038 -85.248 88.043 -88.25 Q86.654 -88.567 85.491 -87.965 Q84.327 -87.363 84.327 -86.188 Q84.327 -85.254 85.093 -84.482 Q85.859 -83.71 86.951 -83.617 Q96.607 -80.746 103.706 -73.701 Q110.804 -66.655 113.427 -56.999 Q113.549 -56.076 114.225 -55.43 Q114.901 -54.785 115.827 -54.785 Z M113.944 13.381 Q103.479 13.381 96.17 6.12 Q88.861 -1.141 88.861 -11.582 Q88.861 -22.007 96.159 -29.338 Q103.456 -36.669 113.948 -36.669 Q124.434 -36.669 131.672 -29.338 Q138.911 -22.007 138.911 -11.622 Q138.911 -1.237 131.659 6.072 Q124.408 13.381 113.944 13.381 Z M114.103 3.786 Q115.387 3.786 116.311 2.943 Q117.235 2.099 117.235 0.735 Q117.235 -0.629 116.295 -1.535 Q115.355 -2.44 114.184 -2.44 Q112.819 -2.44 111.914 -1.535 Q111.008 -0.629 111.008 0.735 Q111.008 2.099 111.914 2.943 Q112.819 3.786 114.103 3.786 Z M114.122 -8.394 Q115.046 -8.394 115.728 -9.095 Q116.41 -9.796 116.41 -10.802 V-24.117 Q116.41 -25.115 115.709 -25.747 Q115.008 -26.38 114.022 -26.38 Q113.036 -26.38 112.416 -25.75 Q111.796 -25.12 111.796 -24.101 V-10.598 Q111.796 -9.783 112.497 -9.089 Q113.198 -8.394 114.122 -8.394 Z"/></g><g id="Ultralight-L" transform="matrix(1 0 0 1 491.205 1556)"><path d="M29.992 7.985 Q26.406 7.985 23.845 5.425 Q21.285 2.864 21.285 -0.722 V-20.314 Q21.285 -20.971 21.8 -21.489 Q22.315 -22.007 23.09 -22.007 Q23.865 -22.007 24.349 -21.489 Q24.832 -20.971 24.832 -20.314 V-0.722 Q24.832 1.213 26.445 2.825 Q28.058 4.438 29.992 4.438 H49.584 Q50.241 4.438 50.759 4.964 Q51.278 5.491 51.278 6.162 Q51.278 7.018 50.759 7.501 Q50.241 7.985 49.584 7.985 H29.992 Z M21.285 -76.107 V-95.537 Q21.285 -99.124 23.845 -101.685 Q26.406 -104.245 29.992 -104.245 H49.584 Q50.241 -104.245 50.759 -103.718 Q51.278 -103.191 51.278 -102.521 Q51.278 -101.665 50.759 -101.181 Q50.241 -100.697 49.584 -100.697 H29.992 Q28.058 -100.697 26.445 -99.085 Q24.832 -97.472 24.832 -95.537 V-76.107 Q24.832 -75.264 24.306 -74.759 Q23.779 -74.252 23.108 -74.252 Q22.253 -74.252 21.769 -74.759 Q21.285 -75.264 21.285 -76.107 Z M77.354 -39.987 Q74.014 -39.987 71.635 -42.399 Q69.257 -44.811 69.257 -48.229 Q69.257 -51.516 71.669 -53.975 Q74.081 -56.434 77.499 -56.434 Q80.786 -56.434 83.245 -53.997 Q85.704 -51.56 85.704 -48.084 Q85.704 -44.744 83.267 -42.365 Q80.83 -39.987 77.354 -39.987 Z M129.968 -76.107 V-95.537 Q129.968 -97.472 128.355 -99.085 Q126.743 -100.697 124.808 -100.697 H105.377 Q104.534 -100.697 104.029 -101.212 Q103.523 -101.727 103.523 -102.502 Q103.523 -103.277 104.029 -103.761 Q104.534 -104.245 105.377 -104.245 H124.808 Q128.394 -104.245 130.955 -101.685 Q133.515 -99.124 133.515 -95.537 V-76.107 Q133.515 -75.264 132.988 -74.759 Q132.461 -74.252 131.791 -74.252 Q130.935 -74.252 130.451 -74.759 Q129.968 -75.264 129.968 -76.107 Z M39.43 -40.39 Q38.662 -40.39 38.117 -39.594 Q37.571 -38.799 37.974 -38.052 Q40.754 -27.186 48.426 -19.261 Q56.098 -11.336 66.758 -8.543 Q67.886 -8.301 68.894 -8.664 Q69.902 -9.027 69.902 -9.927 Q69.902 -10.625 69.146 -11.182 Q68.39 -11.74 67.725 -11.929 Q57.889 -14.751 50.834 -21.806 Q43.779 -28.861 41.119 -38.697 Q41.036 -39.197 40.533 -39.794 Q40.031 -40.39 39.43 -40.39 Z M39.426 -55.547 Q38.628 -55.547 38.1 -56.288 Q37.571 -57.028 37.974 -58.047 Q40.702 -68.596 48.328 -76.504 Q55.954 -84.411 66.838 -87.394 Q67.987 -87.636 68.944 -87.193 Q69.902 -86.749 69.902 -85.849 Q69.902 -85.151 69.237 -84.565 Q68.572 -83.979 67.886 -84.008 Q58.05 -81.025 50.874 -73.97 Q43.699 -66.916 41.199 -57.241 Q40.992 -56.541 40.509 -56.044 Q40.025 -55.547 39.426 -55.547 Z M115.455 -55.547 Q116.138 -55.547 116.683 -56.299 Q117.229 -57.05 116.906 -58.047 Q114.098 -68.596 106.391 -76.504 Q98.685 -84.411 88.043 -87.394 Q86.894 -87.636 85.936 -87.193 Q84.979 -86.749 84.979 -85.859 Q84.979 -85.168 85.624 -84.588 Q86.269 -84.008 87.156 -84.008 Q96.831 -81.025 103.966 -73.97 Q111.101 -66.916 113.762 -57.241 Q113.791 -56.541 114.281 -56.044 Q114.771 -55.547 115.455 -55.547 Z M113.019 10.888 Q103.2 10.888 96.347 4.091 Q89.494 -2.705 89.494 -12.494 Q89.494 -22.249 96.337 -29.143 Q103.18 -36.036 113.036 -36.036 Q122.871 -36.036 129.644 -29.143 Q136.417 -22.249 136.417 -12.534 Q136.417 -2.819 129.627 4.034 Q122.837 10.888 113.019 10.888 Z M113.117 2.019 Q114.326 2.019 115.213 1.213 Q116.1 0.406 116.1 -0.884 Q116.1 -2.174 115.197 -3.061 Q114.294 -3.947 113.198 -3.947 Q111.907 -3.947 111.021 -3.061 Q110.134 -2.174 110.134 -0.884 Q110.134 0.406 111.021 1.213 Q111.907 2.019 113.117 2.019 Z M113.117 -9.752 Q113.955 -9.752 114.625 -10.422 Q115.294 -11.091 115.294 -12.048 V-24.207 Q115.294 -25.152 114.625 -25.757 Q113.955 -26.361 113.036 -26.361 Q112.117 -26.361 111.529 -25.784 Q110.94 -25.207 110.94 -24.234 V-11.831 Q110.94 -11.123 111.609 -10.438 Q112.278 -9.752 113.117 -9.752 Z"/></g><g id="Bold-M" transform="matrix(1 0 0 1 2281.8 1126)"><path d="M22.125 7.645 Q15.758 7.645 11.379 3.266 Q7 -1.113 7 -7.48 V-18.042 Q7 -21.105 9.25 -23.355 Q11.5 -25.605 14.562 -25.605 Q17.625 -25.605 19.875 -23.355 Q22.125 -21.105 22.125 -18.042 V-7.48 Q22.125 -7.48 22.125 -7.48 Q22.125 -7.48 22.125 -7.48 H32.688 Q35.75 -7.48 38 -5.23 Q40.25 -2.98 40.25 0.083 Q40.25 3.145 38 5.395 Q35.75 7.645 32.688 7.645 H22.125 Z M7 -72.667 V-83.23 Q7 -89.597 11.379 -93.976 Q15.758 -98.355 22.125 -98.355 H32.688 Q35.75 -98.355 38 -96.105 Q40.25 -93.855 40.25 -90.792 Q40.25 -87.73 38 -85.48 Q35.75 -83.23 32.688 -83.23 H22.125 Q22.125 -83.23 22.125 -83.23 Q22.125 -83.23 22.125 -83.23 V-72.667 Q22.125 -69.605 19.875 -67.355 Q17.625 -65.105 14.562 -65.105 Q11.5 -65.105 9.25 -67.355 Q7 -69.605 7 -72.667 Z M59.997 -32.792 Q54.75 -32.792 51.094 -36.452 Q47.438 -40.112 47.438 -45.36 Q47.438 -50.73 51.097 -54.324 Q54.757 -57.917 60.005 -57.917 Q65.375 -57.917 68.969 -54.319 Q72.562 -50.721 72.562 -45.352 Q72.562 -40.105 68.964 -36.449 Q65.366 -32.792 59.997 -32.792 Z M97.875 -72.667 V-83.23 Q97.875 -83.23 97.875 -83.23 Q97.875 -83.23 97.875 -83.23 H87.312 Q84.25 -83.23 82 -85.48 Q79.75 -87.73 79.75 -90.792 Q79.75 -93.855 82 -96.105 Q84.25 -98.355 87.312 -98.355 H97.875 Q104.242 -98.355 108.621 -93.976 Q113 -89.597 113 -83.23 V-72.667 Q113 -69.605 110.75 -67.355 Q108.5 -65.105 105.438 -65.105 Q102.375 -65.105 100.125 -67.355 Q97.875 -69.605 97.875 -72.667 Z M30.562 -39.23 Q27.125 -39.23 25.406 -36.227 Q23.688 -33.224 25.062 -29.917 Q28 -22.99 33.157 -17.672 Q38.312 -12.355 45.25 -9.542 Q48.75 -7.98 51.906 -10.136 Q55.062 -12.292 55.062 -16.105 Q55.062 -18.605 53.688 -20.449 Q52.312 -22.292 50.25 -23.417 Q46.75 -25.105 44.094 -27.824 Q41.438 -30.542 39.75 -34.042 Q38.436 -36.474 35.901 -37.852 Q33.367 -39.23 30.562 -39.23 Z M30.812 -48.605 Q27.375 -48.605 25.719 -51.608 Q24.062 -54.611 25.438 -57.917 Q28.365 -64.845 33.432 -70.163 Q38.5 -75.48 45.438 -78.292 Q48.938 -79.855 52.125 -77.699 Q55.312 -75.542 55.312 -71.73 Q55.312 -69.23 53.938 -67.386 Q52.562 -65.542 50.5 -64.417 Q47 -62.73 44.375 -60.011 Q41.75 -57.292 40.062 -53.792 Q38.742 -51.36 36.19 -49.983 Q33.639 -48.605 30.812 -48.605 Z M89.5 -48.605 Q92.938 -48.605 94.594 -51.608 Q96.25 -54.611 94.875 -57.917 Q91.948 -64.845 86.88 -70.163 Q81.812 -75.48 74.875 -78.292 Q71.375 -79.855 68.188 -77.699 Q65 -75.542 65 -71.73 Q65 -69.23 66.375 -67.386 Q67.75 -65.542 69.812 -64.417 Q73.312 -62.73 75.969 -60.011 Q78.625 -57.292 80.312 -53.792 Q81.626 -51.36 84.161 -49.983 Q86.696 -48.605 89.5 -48.605 Z M94.125 13.02 Q84.062 13.02 77.031 5.989 Q70 -1.042 70 -11.105 Q70 -21.167 77.031 -28.199 Q84.062 -35.23 94.125 -35.23 Q104.188 -35.23 111.219 -28.199 Q118.25 -21.167 118.25 -11.105 Q118.25 -1.042 111.219 5.989 Q104.188 13.02 94.125 13.02 Z M94.125 5.395 Q95.875 5.395 97 4.27 Q98.125 3.145 98.125 1.395 Q98.125 -0.355 97 -1.542 Q95.875 -2.73 94.125 -2.73 Q92.375 -2.73 91.25 -1.542 Q90.125 -0.355 90.125 1.395 Q90.125 3.145 91.25 4.27 Q92.375 5.395 94.125 5.395 Z M94.125 -7.855 Q95.5 -7.855 96.5 -8.855 Q97.5 -9.855 97.5 -11.201 V-23.759 Q97.5 -25.105 96.562 -26.105 Q95.625 -27.105 94.125 -27.105 Q92.75 -27.105 91.75 -26.105 Q90.75 -25.105 90.75 -23.759 V-11.201 Q90.75 -9.855 91.688 -8.855 Q92.625 -7.855 94.125 -7.855 Z"/></g><g id="Semibold-M" transform="matrix(1 0 0 1 1985.97 1126)"><path d="M21.473 5.797 Q16.193 5.797 12.52 2.125 Q8.848 -1.548 8.848 -6.828 V-19.292 Q8.848 -21.866 10.717 -23.735 Q12.587 -25.605 15.16 -25.605 Q17.734 -25.605 19.603 -23.735 Q21.473 -21.866 21.473 -19.292 V-6.828 Q21.473 -6.828 21.473 -6.828 Q21.473 -6.828 21.473 -6.828 H33.937 Q36.511 -6.828 38.38 -4.958 Q40.25 -3.089 40.25 -0.515 Q40.25 2.058 38.38 3.928 Q36.511 5.797 33.937 5.797 H21.473 Z M8.848 -71.418 V-83.882 Q8.848 -89.162 12.52 -92.835 Q16.193 -96.507 21.473 -96.507 H33.937 Q36.511 -96.507 38.38 -94.638 Q40.25 -92.768 40.25 -90.195 Q40.25 -87.621 38.38 -85.752 Q36.511 -83.882 33.937 -83.882 H21.473 Q21.473 -83.882 21.473 -83.882 Q21.473 -83.882 21.473 -83.882 V-71.418 Q21.473 -68.844 19.603 -66.975 Q17.734 -65.105 15.16 -65.105 Q12.587 -65.105 10.717 -66.975 Q8.848 -68.844 8.848 -71.418 Z M59.997 -34.042 Q55.294 -34.042 51.99 -37.349 Q48.687 -40.656 48.687 -45.36 Q48.687 -50.186 51.994 -53.427 Q55.301 -56.668 60.005 -56.668 Q64.832 -56.668 68.072 -53.422 Q71.313 -50.177 71.313 -45.352 Q71.313 -40.648 68.067 -37.345 Q64.822 -34.042 59.997 -34.042 Z M98.527 -71.418 V-83.882 Q98.527 -83.882 98.527 -83.882 Q98.527 -83.882 98.527 -83.882 H86.063 Q83.489 -83.882 81.62 -85.752 Q79.75 -87.621 79.75 -90.195 Q79.75 -92.768 81.62 -94.638 Q83.489 -96.507 86.063 -96.507 H98.527 Q103.807 -96.507 107.48 -92.835 Q111.152 -89.162 111.152 -83.882 V-71.418 Q111.152 -68.844 109.283 -66.975 Q107.413 -65.105 104.84 -65.105 Q102.266 -65.105 100.397 -66.975 Q98.527 -68.844 98.527 -71.418 Z M30.671 -39.556 Q27.777 -39.556 26.303 -37.042 Q24.829 -34.528 25.878 -31.711 Q28.598 -24.294 34.135 -18.732 Q39.671 -13.17 47.098 -10.466 Q50 -9.284 52.558 -11.06 Q55.117 -12.836 55.117 -15.942 Q55.117 -18.116 53.878 -19.742 Q52.639 -21.369 50.739 -22.276 Q46.424 -24.072 43.143 -27.335 Q39.861 -30.597 38.12 -34.966 Q37.132 -37.072 35.086 -38.314 Q33.041 -39.556 30.671 -39.556 Z M30.867 -48.931 Q27.973 -48.931 26.534 -51.445 Q25.095 -53.959 26.144 -56.776 Q28.854 -64.193 34.356 -69.755 Q39.859 -75.317 47.285 -78.021 Q50.187 -79.203 52.75 -77.427 Q55.312 -75.651 55.312 -72.545 Q55.312 -70.371 54.073 -68.745 Q52.834 -67.118 50.935 -66.211 Q46.62 -64.415 43.37 -61.152 Q40.12 -57.89 38.378 -53.521 Q37.383 -51.415 35.321 -50.173 Q33.258 -48.931 30.867 -48.931 Z M89.391 -48.931 Q92.285 -48.931 93.724 -51.445 Q95.163 -53.959 94.114 -56.776 Q91.404 -64.193 85.902 -69.755 Q80.4 -75.317 72.973 -78.021 Q70.071 -79.203 67.508 -77.427 Q64.946 -75.651 64.946 -72.545 Q64.946 -70.371 66.185 -68.745 Q67.424 -67.118 69.323 -66.211 Q73.639 -64.415 76.92 -61.152 Q80.201 -57.89 81.943 -53.521 Q82.931 -51.415 84.976 -50.173 Q87.022 -48.931 89.391 -48.931 Z M94.125 13.02 Q84.062 13.02 77.031 5.989 Q70 -1.042 70 -11.105 Q70 -21.167 77.031 -28.199 Q84.062 -35.23 94.125 -35.23 Q104.188 -35.23 111.219 -28.199 Q118.25 -21.167 118.25 -11.105 Q118.25 -1.042 111.219 5.989 Q104.188 13.02 94.125 13.02 Z M94.125 4.526 Q95.549 4.526 96.511 3.564 Q97.473 2.602 97.473 1.178 Q97.473 -0.246 96.511 -1.244 Q95.549 -2.241 94.125 -2.241 Q92.701 -2.241 91.739 -1.244 Q90.777 -0.246 90.777 1.178 Q90.777 2.602 91.739 3.564 Q92.701 4.526 94.125 4.526 Z M94.125 -7.203 Q95.337 -7.203 96.201 -8.067 Q97.065 -8.931 97.065 -10.114 V-23.542 Q97.065 -24.725 96.236 -25.589 Q95.408 -26.453 94.125 -26.453 Q92.913 -26.453 92.049 -25.589 Q91.185 -24.725 91.185 -23.542 V-10.114 Q91.185 -8.931 92.014 -8.067 Q92.842 -7.203 94.125 -7.203 Z"/></g><g id="Medium-M" transform="matrix(1 0 0 1 1689.91 1126)"><path d="M20.984 4.411 Q16.519 4.411 13.376 1.269 Q10.234 -1.874 10.234 -6.339 V-20.23 Q10.234 -22.436 11.818 -24.021 Q13.402 -25.605 15.609 -25.605 Q17.815 -25.605 19.399 -24.021 Q20.984 -22.436 20.984 -20.23 V-6.339 Q20.984 -6.339 20.984 -6.339 Q20.984 -6.339 20.984 -6.339 H34.875 Q37.081 -6.339 38.666 -4.754 Q40.25 -3.17 40.25 -0.964 Q40.25 1.243 38.666 2.827 Q37.081 4.411 34.875 4.411 H20.984 Z M10.234 -70.48 V-84.371 Q10.234 -88.836 13.376 -91.979 Q16.519 -95.121 20.984 -95.121 H34.875 Q37.081 -95.121 38.666 -93.537 Q40.25 -91.953 40.25 -89.746 Q40.25 -87.54 38.666 -85.955 Q37.081 -84.371 34.875 -84.371 H20.984 Q20.984 -84.371 20.984 -84.371 Q20.984 -84.371 20.984 -84.371 V-70.48 Q20.984 -68.273 19.399 -66.689 Q17.815 -65.105 15.609 -65.105 Q13.402 -65.105 11.818 -66.689 Q10.234 -68.273 10.234 -70.48 Z M59.997 -34.98 Q55.701 -34.98 52.663 -38.022 Q49.625 -41.063 49.625 -45.36 Q49.625 -49.779 52.667 -52.754 Q55.708 -55.73 60.005 -55.73 Q64.424 -55.73 67.4 -52.75 Q70.375 -49.769 70.375 -45.352 Q70.375 -41.056 67.395 -38.018 Q64.415 -34.98 59.997 -34.98 Z M99.016 -70.48 V-84.371 Q99.016 -84.371 99.016 -84.371 Q99.016 -84.371 99.016 -84.371 H85.125 Q82.918 -84.371 81.334 -85.955 Q79.75 -87.54 79.75 -89.746 Q79.75 -91.953 81.334 -93.537 Q82.918 -95.121 85.125 -95.121 H99.016 Q103.481 -95.121 106.624 -91.979 Q109.766 -88.836 109.766 -84.371 V-70.48 Q109.766 -68.273 108.182 -66.689 Q106.598 -65.105 104.391 -65.105 Q102.185 -65.105 100.6 -66.689 Q99.016 -68.273 99.016 -70.48 Z M30.753 -39.801 Q28.266 -39.801 26.976 -37.653 Q25.685 -35.506 26.489 -33.056 Q29.047 -25.272 34.868 -19.527 Q40.69 -13.782 48.484 -11.159 Q50.938 -10.263 53.047 -11.753 Q55.158 -13.244 55.158 -15.82 Q55.158 -17.749 54.02 -19.212 Q52.883 -20.676 51.106 -21.42 Q46.179 -23.298 42.429 -26.968 Q38.679 -30.638 36.897 -35.659 Q36.154 -37.521 34.475 -38.661 Q32.796 -39.801 30.753 -39.801 Z M30.908 -49.176 Q28.421 -49.176 27.145 -51.323 Q25.869 -53.47 26.674 -55.92 Q29.221 -63.704 35.049 -69.449 Q40.878 -75.195 48.671 -77.817 Q51.125 -78.714 53.219 -77.223 Q55.312 -75.733 55.312 -73.157 Q55.312 -71.227 54.175 -69.764 Q53.038 -68.301 51.261 -67.556 Q46.334 -65.678 42.615 -62.008 Q38.897 -58.339 37.114 -53.317 Q36.364 -51.456 34.669 -50.316 Q32.973 -49.176 30.908 -49.176 Z M89.31 -49.176 Q91.796 -49.176 93.072 -51.323 Q94.348 -53.47 93.543 -55.92 Q90.997 -63.704 85.168 -69.449 Q79.34 -75.195 71.546 -77.817 Q69.092 -78.714 66.999 -77.223 Q64.905 -75.733 64.905 -73.157 Q64.905 -71.227 66.042 -69.764 Q67.179 -68.301 68.957 -67.556 Q73.883 -65.678 77.633 -62.008 Q81.383 -58.339 83.166 -53.317 Q83.909 -51.456 85.588 -50.316 Q87.266 -49.176 89.31 -49.176 Z M94.125 13.02 Q84.062 13.02 77.031 5.989 Q70 -1.042 70 -11.105 Q70 -21.167 77.031 -28.199 Q84.062 -35.23 94.125 -35.23 Q104.188 -35.23 111.219 -28.199 Q118.25 -21.167 118.25 -11.105 Q118.25 -1.042 111.219 5.989 Q104.188 13.02 94.125 13.02 Z M94.125 3.873 Q95.304 3.873 96.144 3.034 Q96.984 2.194 96.984 1.015 Q96.984 -0.165 96.144 -1.019 Q95.304 -1.874 94.125 -1.874 Q92.946 -1.874 92.106 -1.019 Q91.266 -0.165 91.266 1.015 Q91.266 2.194 92.106 3.034 Q92.946 3.873 94.125 3.873 Z M94.125 -6.714 Q95.215 -6.714 95.977 -7.476 Q96.739 -8.238 96.739 -9.298 V-23.379 Q96.739 -24.439 95.992 -25.201 Q95.245 -25.964 94.125 -25.964 Q93.035 -25.964 92.273 -25.201 Q91.511 -24.439 91.511 -23.379 V-9.298 Q91.511 -8.238 92.258 -7.476 Q93.005 -6.714 94.125 -6.714 Z"/></g><g id="Regular-M" transform="matrix(1 0 0 1 1394.06 1126)"><path d="M20.625 3.395 Q16.758 3.395 14.004 0.641 Q11.25 -2.113 11.25 -5.98 V-20.917 Q11.25 -22.855 12.625 -24.23 Q14 -25.605 15.938 -25.605 Q17.875 -25.605 19.25 -24.23 Q20.625 -22.855 20.625 -20.917 V-5.98 Q20.625 -5.98 20.625 -5.98 Q20.625 -5.98 20.625 -5.98 H35.562 Q37.5 -5.98 38.875 -4.605 Q40.25 -3.23 40.25 -1.292 Q40.25 0.645 38.875 2.02 Q37.5 3.395 35.562 3.395 H20.625 Z M11.25 -69.792 V-84.73 Q11.25 -88.597 14.004 -91.351 Q16.758 -94.105 20.625 -94.105 H35.562 Q37.5 -94.105 38.875 -92.73 Q40.25 -91.355 40.25 -89.417 Q40.25 -87.48 38.875 -86.105 Q37.5 -84.73 35.562 -84.73 H20.625 Q20.625 -84.73 20.625 -84.73 Q20.625 -84.73 20.625 -84.73 V-69.792 Q20.625 -67.855 19.25 -66.48 Q17.875 -65.105 15.938 -65.105 Q14 -65.105 12.625 -66.48 Q11.25 -67.855 11.25 -69.792 Z M59.997 -35.667 Q56 -35.667 53.156 -38.515 Q50.312 -41.362 50.312 -45.36 Q50.312 -49.48 53.16 -52.261 Q56.007 -55.042 60.005 -55.042 Q64.125 -55.042 66.906 -52.256 Q69.688 -49.471 69.688 -45.352 Q69.688 -41.355 66.901 -38.511 Q64.116 -35.667 59.997 -35.667 Z M99.375 -69.792 V-84.73 Q99.375 -84.73 99.375 -84.73 Q99.375 -84.73 99.375 -84.73 H84.438 Q82.5 -84.73 81.125 -86.105 Q79.75 -87.48 79.75 -89.417 Q79.75 -91.355 81.125 -92.73 Q82.5 -94.105 84.438 -94.105 H99.375 Q103.242 -94.105 105.996 -91.351 Q108.75 -88.597 108.75 -84.73 V-69.792 Q108.75 -67.855 107.375 -66.48 Q106 -65.105 104.062 -65.105 Q102.125 -65.105 100.75 -66.48 Q99.375 -67.855 99.375 -69.792 Z M30.812 -39.98 Q28.625 -39.98 27.469 -38.102 Q26.312 -36.224 26.938 -34.042 Q29.375 -25.99 35.407 -20.11 Q41.438 -14.23 49.5 -11.667 Q51.625 -10.98 53.406 -12.261 Q55.188 -13.542 55.188 -15.73 Q55.188 -17.48 54.125 -18.824 Q53.062 -20.167 51.375 -20.792 Q46 -22.73 41.906 -26.699 Q37.812 -30.667 36 -36.167 Q35.436 -37.849 34.026 -38.915 Q32.617 -39.98 30.812 -39.98 Z M30.938 -49.355 Q28.75 -49.355 27.594 -51.233 Q26.438 -53.111 27.062 -55.292 Q29.49 -63.345 35.557 -69.225 Q41.625 -75.105 49.688 -77.667 Q51.812 -78.355 53.562 -77.074 Q55.312 -75.792 55.312 -73.605 Q55.312 -71.855 54.25 -70.511 Q53.188 -69.167 51.5 -68.542 Q46.125 -66.605 42.062 -62.636 Q38 -58.667 36.188 -53.167 Q35.617 -51.485 34.19 -50.42 Q32.764 -49.355 30.938 -49.355 Z M89.25 -49.355 Q91.438 -49.355 92.594 -51.233 Q93.75 -53.111 93.125 -55.292 Q90.698 -63.345 84.63 -69.225 Q78.562 -75.105 70.5 -77.667 Q68.375 -78.355 66.625 -77.074 Q64.875 -75.792 64.875 -73.605 Q64.875 -71.855 65.938 -70.511 Q67 -69.167 68.688 -68.542 Q74.062 -66.605 78.156 -62.636 Q82.25 -58.667 84.062 -53.167 Q84.626 -51.485 86.036 -50.42 Q87.446 -49.355 89.25 -49.355 Z M94.125 13.02 Q84.062 13.02 77.031 5.989 Q70 -1.042 70 -11.105 Q70 -21.167 77.031 -28.199 Q84.062 -35.23 94.125 -35.23 Q104.188 -35.23 111.219 -28.199 Q118.25 -21.167 118.25 -11.105 Q118.25 -1.042 111.219 5.989 Q104.188 13.02 94.125 13.02 Z M94.125 3.395 Q95.125 3.395 95.875 2.645 Q96.625 1.895 96.625 0.895 Q96.625 -0.105 95.875 -0.855 Q95.125 -1.605 94.125 -1.605 Q93.125 -1.605 92.375 -0.855 Q91.625 -0.105 91.625 0.895 Q91.625 1.895 92.375 2.645 Q93.125 3.395 94.125 3.395 Z M94.125 -6.355 Q95.125 -6.355 95.812 -7.042 Q96.5 -7.73 96.5 -8.701 V-23.259 Q96.5 -24.23 95.812 -24.917 Q95.125 -25.605 94.125 -25.605 Q93.125 -25.605 92.438 -24.917 Q91.75 -24.23 91.75 -23.259 V-8.701 Q91.75 -7.73 92.438 -7.042 Q93.125 -6.355 94.125 -6.355 Z"/></g><g id="Light-M" transform="matrix(1 0 0 1 1098.18 1126)"><path d="M22.043 1.159 Q18.489 1.159 15.999 -1.33 Q13.51 -3.82 13.51 -7.374 V-22.047 Q13.51 -23.476 14.536 -24.505 Q15.563 -25.533 17.007 -25.533 Q18.452 -25.533 19.478 -24.505 Q20.505 -23.476 20.505 -22.047 V-7.374 Q20.505 -6.797 20.986 -6.317 Q21.466 -5.836 22.043 -5.836 H36.716 Q38.145 -5.836 39.174 -4.807 Q40.202 -3.779 40.202 -2.35 Q40.202 -0.894 39.174 0.133 Q38.145 1.159 36.716 1.159 H22.043 Z M13.51 -68.639 V-83.288 Q13.51 -86.842 15.999 -89.332 Q18.489 -91.821 22.043 -91.821 H36.716 Q38.145 -91.821 39.174 -90.793 Q40.202 -89.765 40.202 -88.336 Q40.202 -86.879 39.174 -85.853 Q38.145 -84.826 36.716 -84.826 H22.043 Q21.466 -84.826 20.986 -84.345 Q20.505 -83.864 20.505 -83.288 V-68.639 Q20.505 -67.182 19.477 -66.155 Q18.448 -65.129 17.019 -65.129 Q15.563 -65.129 14.536 -66.155 Q13.51 -67.182 13.51 -68.639 Z M60.001 -36.845 Q56.457 -36.845 53.986 -39.323 Q51.514 -41.8 51.514 -45.339 Q51.514 -48.951 53.992 -51.396 Q56.47 -53.84 60.008 -53.84 Q63.62 -53.84 66.065 -51.396 Q68.51 -48.951 68.51 -45.332 Q68.51 -41.788 66.065 -39.317 Q63.62 -36.845 60.001 -36.845 Z M99.495 -68.639 V-83.288 Q99.495 -83.864 99.014 -84.345 Q98.534 -84.826 97.957 -84.826 H83.308 Q81.851 -84.826 80.825 -85.853 Q79.798 -86.879 79.798 -88.324 Q79.798 -89.768 80.825 -90.795 Q81.851 -91.821 83.308 -91.821 H97.957 Q101.511 -91.821 104.001 -89.332 Q106.49 -86.842 106.49 -83.288 V-68.639 Q106.49 -67.182 105.462 -66.155 Q104.434 -65.129 103.005 -65.129 Q101.548 -65.129 100.522 -66.155 Q99.495 -67.182 99.495 -68.639 Z M30.886 -39.595 Q29.202 -39.595 28.334 -38.186 Q27.466 -36.776 27.971 -35.124 Q30.313 -27.095 36.248 -21.216 Q42.183 -15.336 50.221 -12.869 Q51.889 -12.35 53.298 -13.259 Q54.707 -14.167 54.707 -15.84 Q54.707 -17.167 53.823 -18.17 Q52.939 -19.173 51.663 -19.663 Q45.615 -21.72 41.101 -26.134 Q36.587 -30.547 34.678 -36.72 Q34.258 -37.946 33.221 -38.77 Q32.184 -39.595 30.886 -39.595 Z M30.962 -50.052 Q29.269 -50.052 28.406 -51.462 Q27.543 -52.871 28.048 -54.547 Q30.379 -62.552 36.339 -68.432 Q42.298 -74.312 50.337 -76.802 Q52.008 -77.297 53.396 -76.389 Q54.784 -75.48 54.784 -73.807 Q54.784 -72.48 53.925 -71.473 Q53.067 -70.466 51.788 -70.009 Q45.74 -67.927 41.221 -63.514 Q36.702 -59.1 34.817 -52.951 Q34.38 -51.707 33.336 -50.88 Q32.292 -50.052 30.962 -50.052 Z M89.154 -50.052 Q90.812 -50.052 91.68 -51.465 Q92.548 -52.877 92.067 -54.547 Q89.736 -62.552 83.777 -68.432 Q77.817 -74.312 69.779 -76.802 Q68.108 -77.297 66.72 -76.389 Q65.332 -75.48 65.332 -73.807 Q65.332 -72.48 66.214 -71.473 Q67.096 -70.466 68.375 -70.009 Q74.399 -67.927 78.925 -63.514 Q83.452 -59.1 85.361 -52.951 Q85.756 -51.702 86.794 -50.877 Q87.832 -50.052 89.154 -50.052 Z M91.889 8.452 Q82.788 8.452 76.442 2.106 Q70.096 -4.24 70.096 -13.341 Q70.096 -22.442 76.442 -28.788 Q82.788 -35.134 91.889 -35.134 Q100.99 -35.134 107.336 -28.788 Q113.682 -22.442 113.682 -13.341 Q113.682 -4.24 107.336 2.106 Q100.99 8.452 91.889 8.452 Z M91.889 -0.091 Q92.889 -0.091 93.591 -0.793 Q94.293 -1.495 94.293 -2.495 Q94.293 -3.495 93.591 -4.197 Q92.889 -4.898 91.889 -4.898 Q90.889 -4.898 90.187 -4.197 Q89.485 -3.495 89.485 -2.495 Q89.485 -1.495 90.187 -0.793 Q90.889 -0.091 91.889 -0.091 Z M91.889 -9.504 Q92.803 -9.504 93.401 -10.103 Q94 -10.701 94 -11.585 V-24.311 Q94 -25.192 93.401 -25.795 Q92.803 -26.398 91.889 -26.398 Q90.976 -26.398 90.377 -25.8 Q89.779 -25.201 89.779 -24.317 V-11.591 Q89.779 -10.711 90.377 -10.108 Q90.976 -9.504 91.889 -9.504 Z"/></g><g id="Thin-M" transform="matrix(1 0 0 1 802.565 1126)"><path d="M23.462 -1.076 Q20.219 -1.076 17.994 -3.301 Q15.769 -5.526 15.769 -8.768 V-23.177 Q15.769 -24.098 16.447 -24.779 Q17.125 -25.461 18.077 -25.461 Q19.029 -25.461 19.707 -24.779 Q20.385 -24.098 20.385 -23.177 V-8.768 Q20.385 -7.615 21.346 -6.653 Q22.308 -5.691 23.462 -5.691 H37.87 Q38.791 -5.691 39.472 -5.01 Q40.154 -4.328 40.154 -3.408 Q40.154 -2.432 39.472 -1.754 Q38.791 -1.076 37.87 -1.076 H23.462 Z M15.769 -67.485 V-81.845 Q15.769 -85.088 17.994 -87.313 Q20.219 -89.538 23.462 -89.538 H37.87 Q38.791 -89.538 39.472 -88.856 Q40.154 -88.175 40.154 -87.254 Q40.154 -86.278 39.472 -85.6 Q38.791 -84.922 37.87 -84.922 H23.462 Q22.308 -84.922 21.346 -83.961 Q20.385 -82.999 20.385 -81.845 V-67.485 Q20.385 -66.509 19.703 -65.831 Q19.022 -65.153 18.101 -65.153 Q17.125 -65.153 16.447 -65.831 Q15.769 -66.509 15.769 -67.485 Z M60.005 -38.023 Q56.913 -38.023 54.815 -40.131 Q52.716 -42.239 52.716 -45.317 Q52.716 -48.422 54.824 -50.53 Q56.932 -52.639 60.011 -52.639 Q63.115 -52.639 65.224 -50.535 Q67.332 -48.431 67.332 -45.312 Q67.332 -42.22 65.228 -40.122 Q63.124 -38.023 60.005 -38.023 Z M99.615 -67.485 V-81.845 Q99.615 -82.999 98.654 -83.961 Q97.692 -84.922 96.538 -84.922 H82.178 Q81.202 -84.922 80.524 -85.6 Q79.846 -86.278 79.846 -87.23 Q79.846 -88.182 80.524 -88.86 Q81.202 -89.538 82.178 -89.538 H96.538 Q99.781 -89.538 102.006 -87.313 Q104.231 -85.088 104.231 -81.845 V-67.485 Q104.231 -66.509 103.549 -65.831 Q102.868 -65.153 101.947 -65.153 Q100.971 -65.153 100.293 -65.831 Q99.615 -66.509 99.615 -67.485 Z M30.959 -39.211 Q29.779 -39.211 29.2 -38.27 Q28.62 -37.329 29.005 -36.206 Q31.25 -28.201 37.089 -22.321 Q42.928 -16.441 50.942 -14.071 Q52.154 -13.72 53.19 -14.256 Q54.226 -14.792 54.226 -15.95 Q54.226 -16.855 53.521 -17.517 Q52.816 -18.179 51.952 -18.533 Q45.231 -20.711 40.296 -25.569 Q35.361 -30.427 33.356 -37.273 Q33.08 -38.042 32.416 -38.626 Q31.752 -39.211 30.959 -39.211 Z M30.986 -50.749 Q29.788 -50.749 29.218 -51.69 Q28.649 -52.631 29.034 -53.802 Q31.268 -61.759 37.12 -67.639 Q42.971 -73.518 50.986 -75.937 Q52.203 -76.24 53.229 -75.704 Q54.255 -75.167 54.255 -74.01 Q54.255 -73.105 53.601 -72.434 Q52.947 -71.764 52.077 -71.475 Q45.356 -69.249 40.38 -64.391 Q35.404 -59.533 33.447 -52.735 Q33.144 -51.929 32.483 -51.339 Q31.821 -50.749 30.986 -50.749 Z M89.058 -50.749 Q90.188 -50.749 90.767 -51.696 Q91.346 -52.643 91.01 -53.802 Q88.775 -61.759 82.924 -67.639 Q77.072 -73.518 69.058 -75.937 Q67.84 -76.24 66.814 -75.704 Q65.788 -75.167 65.788 -74.01 Q65.788 -73.105 66.49 -72.434 Q67.192 -71.764 68.062 -71.475 Q74.736 -69.249 79.695 -64.391 Q84.654 -59.533 86.659 -52.735 Q86.886 -51.918 87.552 -51.334 Q88.217 -50.749 89.058 -50.749 Z M89.654 3.886 Q81.514 3.886 75.853 -1.776 Q70.192 -7.437 70.192 -15.576 Q70.192 -23.715 75.853 -29.377 Q81.514 -35.038 89.654 -35.038 Q97.793 -35.038 103.454 -29.377 Q109.115 -23.715 109.115 -15.576 Q109.115 -7.437 103.454 -1.776 Q97.793 3.886 89.654 3.886 Z M89.654 -3.576 Q90.654 -3.576 91.308 -4.23 Q91.962 -4.884 91.962 -5.884 Q91.962 -6.884 91.308 -7.538 Q90.654 -8.191 89.654 -8.191 Q88.654 -8.191 88 -7.538 Q87.346 -6.884 87.346 -5.884 Q87.346 -4.884 88 -4.23 Q88.654 -3.576 89.654 -3.576 Z M89.654 -12.653 Q90.481 -12.653 90.99 -13.163 Q91.5 -13.672 91.5 -14.47 V-25.363 Q91.5 -26.153 90.99 -26.672 Q90.481 -27.191 89.654 -27.191 Q88.827 -27.191 88.317 -26.682 Q87.808 -26.172 87.808 -25.375 V-14.482 Q87.808 -13.691 88.317 -13.172 Q88.827 -12.653 89.654 -12.653 Z"/></g><g id="Ultralight-M" transform="matrix(1 0 0 1 506.415 1126)"><path d="M24.312 -2.417 Q21.258 -2.417 19.191 -4.484 Q17.125 -6.55 17.125 -9.605 V-23.855 Q17.125 -24.471 17.594 -24.944 Q18.062 -25.417 18.719 -25.417 Q19.375 -25.417 19.844 -24.944 Q20.312 -24.471 20.312 -23.855 V-9.605 Q20.312 -8.105 21.562 -6.855 Q22.812 -5.605 24.312 -5.605 H38.562 Q39.178 -5.605 39.651 -5.131 Q40.125 -4.658 40.125 -4.042 Q40.125 -3.355 39.651 -2.886 Q39.178 -2.417 38.562 -2.417 H24.312 Z M17.125 -66.792 V-80.98 Q17.125 -84.035 19.191 -86.101 Q21.258 -88.167 24.312 -88.167 H38.562 Q39.178 -88.167 39.651 -87.694 Q40.125 -87.221 40.125 -86.605 Q40.125 -85.917 39.651 -85.449 Q39.178 -84.98 38.562 -84.98 H24.312 Q22.812 -84.98 21.562 -83.73 Q20.312 -82.48 20.312 -80.98 V-66.792 Q20.312 -66.105 19.839 -65.636 Q19.366 -65.167 18.75 -65.167 Q18.062 -65.167 17.594 -65.636 Q17.125 -66.105 17.125 -66.792 Z M60.008 -38.73 Q57.188 -38.73 55.312 -40.616 Q53.438 -42.502 53.438 -45.304 Q53.438 -48.105 55.324 -50.011 Q57.209 -51.917 60.012 -51.917 Q62.812 -51.917 64.719 -50.018 Q66.625 -48.119 66.625 -45.3 Q66.625 -42.48 64.726 -40.605 Q62.826 -38.73 60.008 -38.73 Z M99.688 -66.792 V-80.98 Q99.688 -82.48 98.438 -83.73 Q97.188 -84.98 95.688 -84.98 H81.5 Q80.812 -84.98 80.344 -85.449 Q79.875 -85.917 79.875 -86.574 Q79.875 -87.23 80.344 -87.699 Q80.812 -88.167 81.5 -88.167 H95.688 Q98.742 -88.167 100.809 -86.101 Q102.875 -84.035 102.875 -80.98 V-66.792 Q102.875 -66.105 102.402 -65.636 Q101.928 -65.167 101.312 -65.167 Q100.625 -65.167 100.156 -65.636 Q99.688 -66.105 99.688 -66.792 Z M31.004 -38.98 Q30.125 -38.98 29.719 -38.32 Q29.312 -37.661 29.625 -36.855 Q31.813 -28.865 37.594 -22.985 Q43.375 -17.105 51.375 -14.792 Q52.312 -14.542 53.125 -14.855 Q53.938 -15.167 53.938 -16.016 Q53.938 -16.667 53.34 -17.125 Q52.742 -17.583 52.125 -17.855 Q45 -20.105 39.812 -25.23 Q34.625 -30.355 32.562 -37.605 Q32.374 -38.099 31.933 -38.54 Q31.492 -38.98 31.004 -38.98 Z M31 -51.167 Q30.099 -51.167 29.706 -51.827 Q29.312 -52.486 29.625 -53.355 Q31.802 -61.283 37.589 -67.163 Q43.375 -73.042 51.375 -75.417 Q52.32 -75.605 53.129 -75.292 Q53.938 -74.98 53.938 -74.131 Q53.938 -73.48 53.406 -73.011 Q52.875 -72.542 52.25 -72.355 Q45.125 -70.042 39.875 -64.917 Q34.625 -59.792 32.625 -52.605 Q32.402 -52.063 31.97 -51.615 Q31.538 -51.167 31 -51.167 Z M89 -51.167 Q89.812 -51.167 90.219 -51.835 Q90.625 -52.503 90.375 -53.355 Q88.198 -61.283 82.412 -67.163 Q76.625 -73.042 68.625 -75.417 Q67.68 -75.605 66.871 -75.292 Q66.062 -74.98 66.062 -74.131 Q66.062 -73.48 66.656 -73.011 Q67.25 -72.542 67.875 -72.355 Q74.938 -70.042 80.156 -64.917 Q85.375 -59.792 87.438 -52.605 Q87.564 -52.048 88.006 -51.608 Q88.449 -51.167 89 -51.167 Z M88.312 1.145 Q80.75 1.145 75.5 -4.105 Q70.25 -9.355 70.25 -16.917 Q70.25 -24.48 75.5 -29.73 Q80.75 -34.98 88.312 -34.98 Q95.875 -34.98 101.125 -29.73 Q106.375 -24.48 106.375 -16.917 Q106.375 -9.355 101.125 -4.105 Q95.875 1.145 88.312 1.145 Z M88.312 -5.667 Q89.312 -5.667 89.938 -6.292 Q90.562 -6.917 90.562 -7.917 Q90.562 -8.917 89.938 -9.542 Q89.312 -10.167 88.312 -10.167 Q87.312 -10.167 86.688 -9.542 Q86.062 -8.917 86.062 -7.917 Q86.062 -6.917 86.688 -6.292 Q87.312 -5.667 88.312 -5.667 Z M88.312 -14.542 Q89.088 -14.542 89.544 -14.999 Q90 -15.455 90 -16.201 V-25.994 Q90 -26.73 89.544 -27.199 Q89.088 -27.667 88.312 -27.667 Q87.537 -27.667 87.081 -27.211 Q86.625 -26.755 86.625 -26.009 V-16.216 Q86.625 -15.48 87.081 -15.011 Q87.537 -14.542 88.312 -14.542 Z"/></g><g id="Bold-S" transform="matrix(1 0 0 1 2294.23 696)"><path d="M18.246 -4.558 Q13.547 -4.558 10.324 -7.781 Q7.101 -11.004 7.101 -15.702 V-25.22 Q7.101 -27.468 8.757 -29.13 Q10.413 -30.792 12.653 -30.792 Q14.892 -30.792 16.569 -29.13 Q18.246 -27.468 18.246 -25.22 V-15.702 Q18.246 -15.702 18.246 -15.702 Q18.246 -15.702 18.246 -15.702 H27.763 Q30.012 -15.702 31.673 -14.046 Q33.335 -12.391 33.335 -10.151 Q33.335 -7.911 31.673 -6.234 Q30.012 -4.558 27.763 -4.558 H18.246 Z M7.101 -64.374 V-73.891 Q7.101 -78.589 10.324 -81.812 Q13.547 -85.036 18.246 -85.036 H27.763 Q30.012 -85.036 31.673 -83.38 Q33.335 -81.724 33.335 -79.484 Q33.335 -77.244 31.673 -75.568 Q30.012 -73.891 27.763 -73.891 H18.246 Q18.246 -73.891 18.246 -73.891 Q18.246 -73.891 18.246 -73.891 V-64.374 Q18.246 -62.125 16.59 -60.463 Q14.934 -58.801 12.694 -58.801 Q10.454 -58.801 8.778 -60.463 Q7.101 -62.125 7.101 -64.374 Z M47.317 -35.674 Q43.494 -35.674 40.855 -38.317 Q38.217 -40.961 38.217 -44.759 Q38.217 -48.643 40.861 -51.281 Q43.504 -53.919 47.303 -53.919 Q51.186 -53.919 53.825 -51.301 Q56.463 -48.683 56.463 -44.774 Q56.463 -40.95 53.844 -38.312 Q51.226 -35.674 47.317 -35.674 Z M76.434 -64.374 V-73.891 Q76.434 -73.891 76.434 -73.891 Q76.434 -73.891 76.434 -73.891 H66.917 Q64.668 -73.891 63.007 -75.547 Q61.345 -77.203 61.345 -79.443 Q61.345 -81.682 63.007 -83.359 Q64.668 -85.036 66.917 -85.036 H76.434 Q81.133 -85.036 84.356 -81.812 Q87.579 -78.589 87.579 -73.891 V-64.374 Q87.579 -62.125 85.923 -60.463 Q84.267 -58.801 82.027 -58.801 Q79.788 -58.801 78.111 -60.463 Q76.434 -62.125 76.434 -64.374 Z M24.965 -41.246 Q22.434 -41.246 21.154 -38.97 Q19.873 -36.694 20.958 -34.194 Q23.375 -28.432 27.541 -24.139 Q31.708 -19.844 37.477 -17.724 Q40.042 -16.59 42.335 -18.094 Q44.628 -19.598 44.628 -22.409 Q44.628 -24.381 43.642 -25.688 Q42.655 -26.995 41.127 -27.882 Q37.773 -29.312 35.332 -31.901 Q32.891 -34.49 31.56 -37.745 Q30.606 -39.403 28.811 -40.324 Q27.017 -41.246 24.965 -41.246 Z M25.1 -46.276 Q22.528 -46.276 21.299 -48.547 Q20.07 -50.818 21.167 -53.467 Q23.524 -59.077 27.641 -63.377 Q31.757 -67.678 37.428 -69.798 Q40.091 -70.932 42.409 -69.428 Q44.726 -67.924 44.726 -65.113 Q44.726 -63.141 43.74 -61.834 Q42.754 -60.527 41.225 -59.64 Q37.872 -58.21 35.505 -55.67 Q33.138 -53.13 31.807 -49.876 Q30.765 -48.154 28.932 -47.215 Q27.099 -46.276 25.1 -46.276 Z M69.728 -46.276 Q72.341 -46.276 73.5 -48.547 Q74.659 -50.818 73.554 -53.47 Q71.166 -59.09 67.118 -63.384 Q63.071 -67.678 57.4 -69.798 Q54.737 -70.932 52.37 -69.428 Q50.003 -67.924 50.003 -65.113 Q50.003 -63.141 51.038 -61.834 Q52.074 -60.527 53.603 -59.64 Q56.956 -58.21 59.333 -55.685 Q61.709 -53.161 63.169 -49.876 Q64.131 -48.175 65.943 -47.225 Q67.755 -46.276 69.728 -46.276 Z M75.031 1.261 Q67.41 1.261 62.109 -4.062 Q56.808 -9.386 56.808 -17.007 Q56.808 -24.628 62.131 -29.929 Q67.455 -35.23 75.076 -35.23 Q82.697 -35.23 87.998 -29.907 Q93.299 -24.583 93.299 -16.962 Q93.299 -9.341 87.976 -4.04 Q82.652 1.261 75.031 1.261 Z M75.054 -6.333 Q76.592 -6.333 77.598 -7.339 Q78.604 -8.345 78.604 -9.883 Q78.604 -11.422 77.598 -12.477 Q76.592 -13.532 75.054 -13.532 Q73.515 -13.532 72.509 -12.477 Q71.503 -11.422 71.503 -9.883 Q71.503 -8.345 72.509 -7.339 Q73.515 -6.333 75.054 -6.333 Z M75.054 -18.365 Q76.296 -18.365 77.204 -19.272 Q78.111 -20.18 78.111 -21.399 V-24.207 Q78.111 -25.427 77.253 -26.334 Q76.395 -27.241 75.054 -27.241 Q73.811 -27.241 72.904 -26.334 Q71.996 -25.427 71.996 -24.207 V-21.399 Q71.996 -20.18 72.854 -19.272 Q73.712 -18.365 75.054 -18.365 Z"/></g><g id="Semibold-S" transform="matrix(1 0 0 1 1998.1 696)"><path d="M17.731 -6.015 Q13.89 -6.015 11.225 -8.681 Q8.559 -11.347 8.559 -15.188 V-26.206 Q8.559 -28.069 9.915 -29.43 Q11.27 -30.792 13.124 -30.792 Q14.978 -30.792 16.355 -29.43 Q17.731 -28.069 17.731 -26.206 V-15.188 Q17.731 -15.188 17.731 -15.188 Q17.731 -15.188 17.731 -15.188 H28.749 Q30.612 -15.188 31.974 -13.832 Q33.335 -12.476 33.335 -10.622 Q33.335 -8.768 31.974 -7.392 Q30.612 -6.015 28.749 -6.015 H17.731 Z M8.559 -63.388 V-74.406 Q8.559 -78.246 11.225 -80.912 Q13.89 -83.578 17.731 -83.578 H28.749 Q30.612 -83.578 31.974 -82.222 Q33.335 -80.866 33.335 -79.012 Q33.335 -77.158 31.974 -75.782 Q30.612 -74.406 28.749 -74.406 H17.731 Q17.731 -74.406 17.731 -74.406 Q17.731 -74.406 17.731 -74.406 V-63.388 Q17.731 -61.525 16.375 -60.163 Q15.02 -58.801 13.166 -58.801 Q11.312 -58.801 9.935 -60.163 Q8.559 -61.525 8.559 -63.388 Z M47.317 -36.66 Q43.922 -36.66 41.563 -39.025 Q39.203 -41.39 39.203 -44.759 Q39.203 -48.214 41.568 -50.574 Q43.933 -52.933 47.303 -52.933 Q50.758 -52.933 53.117 -50.594 Q55.477 -48.254 55.477 -44.774 Q55.477 -41.379 53.137 -39.019 Q50.797 -36.66 47.317 -36.66 Z M76.949 -63.388 V-74.406 Q76.949 -74.406 76.949 -74.406 Q76.949 -74.406 76.949 -74.406 H65.931 Q64.068 -74.406 62.706 -75.761 Q61.345 -77.117 61.345 -78.971 Q61.345 -80.825 62.706 -82.201 Q64.068 -83.578 65.931 -83.578 H76.949 Q80.79 -83.578 83.455 -80.912 Q86.121 -78.246 86.121 -74.406 V-63.388 Q86.121 -61.525 84.765 -60.163 Q83.41 -58.801 81.556 -58.801 Q79.702 -58.801 78.325 -60.163 Q76.949 -61.525 76.949 -63.388 Z M25.051 -41.503 Q22.949 -41.503 21.861 -39.613 Q20.773 -37.723 21.601 -35.609 Q23.846 -29.462 28.313 -24.975 Q32.78 -20.488 38.935 -18.453 Q41.028 -17.619 42.849 -18.823 Q44.671 -20.027 44.671 -22.28 Q44.671 -23.995 43.792 -25.131 Q42.913 -26.266 41.513 -26.982 Q37.516 -28.498 34.582 -31.515 Q31.648 -34.533 30.274 -38.474 Q29.576 -39.874 28.168 -40.689 Q26.76 -41.503 25.051 -41.503 Z M25.143 -46.533 Q23 -46.533 21.942 -48.418 Q20.885 -50.303 21.725 -52.567 Q23.91 -58.563 28.37 -63.056 Q32.829 -67.549 38.886 -69.584 Q41.077 -70.418 42.902 -69.214 Q44.726 -68.01 44.726 -65.757 Q44.726 -64.041 43.847 -62.906 Q42.968 -61.771 41.568 -61.055 Q37.572 -59.539 34.712 -56.57 Q31.852 -53.602 30.477 -49.661 Q29.693 -48.197 28.246 -47.365 Q26.799 -46.533 25.143 -46.533 Z M69.642 -46.533 Q71.827 -46.533 72.814 -48.418 Q73.802 -50.303 72.953 -52.57 Q70.737 -58.575 66.347 -63.062 Q61.956 -67.549 55.899 -69.584 Q53.708 -70.418 51.834 -69.214 Q49.96 -68.01 49.96 -65.757 Q49.96 -64.041 50.888 -62.906 Q51.817 -61.771 53.217 -61.055 Q57.213 -59.539 60.083 -56.586 Q62.952 -53.632 64.456 -49.661 Q65.16 -48.217 66.586 -47.375 Q68.013 -46.533 69.642 -46.533 Z M75.031 1.261 Q67.41 1.261 62.109 -4.062 Q56.808 -9.386 56.808 -17.007 Q56.808 -24.628 62.131 -29.929 Q67.455 -35.23 75.076 -35.23 Q82.697 -35.23 87.998 -29.907 Q93.299 -24.583 93.299 -16.962 Q93.299 -9.341 87.976 -4.04 Q82.652 1.261 75.031 1.261 Z M75.054 -7.019 Q76.335 -7.019 77.212 -7.896 Q78.09 -8.774 78.09 -10.055 Q78.09 -11.336 77.212 -12.241 Q76.335 -13.147 75.054 -13.147 Q73.772 -13.147 72.895 -12.241 Q72.018 -11.336 72.018 -10.055 Q72.018 -8.774 72.895 -7.896 Q73.772 -7.019 75.054 -7.019 Z M75.054 -17.851 Q76.168 -17.851 76.968 -18.651 Q77.768 -19.451 77.768 -20.542 V-24.036 Q77.768 -25.127 76.996 -25.927 Q76.223 -26.727 75.054 -26.727 Q73.94 -26.727 73.139 -25.927 Q72.339 -25.127 72.339 -24.036 V-20.542 Q72.339 -19.451 73.112 -18.651 Q73.884 -17.851 75.054 -17.851 Z"/></g><g id="Medium-S" transform="matrix(1 0 0 1 1701.85 696)"><path d="M17.345 -7.109 Q14.148 -7.109 11.9 -9.357 Q9.652 -11.604 9.652 -14.802 V-26.945 Q9.652 -28.519 10.783 -29.655 Q11.914 -30.792 13.478 -30.792 Q15.042 -30.792 16.194 -29.655 Q17.345 -28.519 17.345 -26.945 V-14.802 Q17.345 -14.802 17.345 -14.802 Q17.345 -14.802 17.345 -14.802 H29.489 Q31.062 -14.802 32.199 -13.671 Q33.335 -12.541 33.335 -10.976 Q33.335 -9.412 32.199 -8.26 Q31.062 -7.109 29.489 -7.109 H17.345 Z M9.652 -62.648 V-74.791 Q9.652 -77.989 11.9 -80.237 Q14.148 -82.484 17.345 -82.484 H29.489 Q31.062 -82.484 32.199 -81.354 Q33.335 -80.223 33.335 -78.659 Q33.335 -77.094 32.199 -75.943 Q31.062 -74.791 29.489 -74.791 H17.345 Q17.345 -74.791 17.345 -74.791 Q17.345 -74.791 17.345 -74.791 V-62.648 Q17.345 -61.074 16.215 -59.938 Q15.084 -58.801 13.52 -58.801 Q11.955 -58.801 10.804 -59.938 Q9.652 -61.074 9.652 -62.648 Z M47.317 -37.4 Q44.244 -37.4 42.094 -39.556 Q39.943 -41.711 39.943 -44.759 Q39.943 -47.893 42.099 -50.043 Q44.255 -52.193 47.303 -52.193 Q50.436 -52.193 52.586 -50.063 Q54.737 -47.932 54.737 -44.774 Q54.737 -41.701 52.606 -39.55 Q50.476 -37.4 47.317 -37.4 Z M77.335 -62.648 V-74.791 Q77.335 -74.791 77.335 -74.791 Q77.335 -74.791 77.335 -74.791 H65.191 Q63.618 -74.791 62.481 -75.922 Q61.345 -77.053 61.345 -78.617 Q61.345 -80.182 62.481 -81.333 Q63.618 -82.484 65.191 -82.484 H77.335 Q80.532 -82.484 82.78 -80.237 Q85.028 -77.989 85.028 -74.791 V-62.648 Q85.028 -61.074 83.897 -59.938 Q82.766 -58.801 81.202 -58.801 Q79.638 -58.801 78.486 -59.938 Q77.335 -61.074 77.335 -62.648 Z M25.115 -41.696 Q23.335 -41.696 22.392 -40.096 Q21.449 -38.495 22.083 -36.671 Q24.2 -30.233 28.892 -25.602 Q33.584 -20.97 40.029 -19 Q41.768 -18.391 43.235 -19.37 Q44.703 -20.348 44.703 -22.184 Q44.703 -23.706 43.904 -24.713 Q43.106 -25.719 41.802 -26.307 Q37.323 -27.887 34.019 -31.226 Q30.715 -34.565 29.309 -39.021 Q28.805 -40.228 27.686 -40.962 Q26.567 -41.696 25.115 -41.696 Z M25.175 -46.726 Q23.354 -46.726 22.425 -48.322 Q21.496 -49.917 22.143 -51.892 Q24.2 -58.177 28.916 -62.815 Q33.633 -67.452 39.98 -69.423 Q41.817 -70.032 43.272 -69.053 Q44.726 -68.074 44.726 -66.239 Q44.726 -64.717 43.928 -63.71 Q43.129 -62.703 41.826 -62.116 Q37.347 -60.536 34.117 -57.246 Q30.887 -53.956 29.48 -49.501 Q28.889 -48.229 27.731 -47.478 Q26.574 -46.726 25.175 -46.726 Z M69.578 -46.726 Q71.441 -46.726 72.3 -48.322 Q73.158 -49.917 72.503 -51.894 Q70.416 -58.189 65.768 -62.821 Q61.12 -67.452 54.773 -69.423 Q52.936 -70.032 51.432 -69.053 Q49.928 -68.074 49.928 -66.239 Q49.928 -64.717 50.776 -63.71 Q51.624 -62.703 52.927 -62.116 Q57.406 -60.536 60.646 -57.261 Q63.885 -53.986 65.421 -49.501 Q65.932 -48.25 67.069 -47.488 Q68.206 -46.726 69.578 -46.726 Z M75.031 1.261 Q67.41 1.261 62.109 -4.062 Q56.808 -9.386 56.808 -17.007 Q56.808 -24.628 62.131 -29.929 Q67.455 -35.23 75.076 -35.23 Q82.697 -35.23 87.998 -29.907 Q93.299 -24.583 93.299 -16.962 Q93.299 -9.341 87.976 -4.04 Q82.652 1.261 75.031 1.261 Z M75.054 -7.534 Q76.142 -7.534 76.923 -8.314 Q77.704 -9.095 77.704 -10.183 Q77.704 -11.272 76.923 -12.064 Q76.142 -12.857 75.054 -12.857 Q73.965 -12.857 73.184 -12.064 Q72.404 -11.272 72.404 -10.183 Q72.404 -9.095 73.184 -8.314 Q73.965 -7.534 75.054 -7.534 Z M75.054 -17.465 Q76.071 -17.465 76.791 -18.184 Q77.511 -18.904 77.511 -19.898 V-23.907 Q77.511 -24.901 76.803 -25.621 Q76.095 -26.341 75.054 -26.341 Q74.036 -26.341 73.316 -25.621 Q72.597 -24.901 72.597 -23.907 V-19.898 Q72.597 -18.904 73.305 -18.184 Q74.012 -17.465 75.054 -17.465 Z"/></g><g id="Regular-S" transform="matrix(1 0 0 1 1405.73 696)"><path d="M17.062 -7.911 Q14.336 -7.911 12.395 -9.852 Q10.454 -11.793 10.454 -14.519 V-27.488 Q10.454 -28.849 11.42 -29.82 Q12.385 -30.792 13.737 -30.792 Q15.09 -30.792 16.076 -29.82 Q17.062 -28.849 17.062 -27.488 V-14.519 Q17.062 -14.519 17.062 -14.519 Q17.062 -14.519 17.062 -14.519 H30.031 Q31.392 -14.519 32.364 -13.553 Q33.335 -12.588 33.335 -11.236 Q33.335 -9.883 32.364 -8.897 Q31.392 -7.911 30.031 -7.911 H17.062 Z M10.454 -62.105 V-75.074 Q10.454 -77.8 12.395 -79.741 Q14.336 -81.682 17.062 -81.682 H30.031 Q31.392 -81.682 32.364 -80.717 Q33.335 -79.751 33.335 -78.399 Q33.335 -77.047 32.364 -76.061 Q31.392 -75.074 30.031 -75.074 H17.062 Q17.062 -75.074 17.062 -75.074 Q17.062 -75.074 17.062 -75.074 V-62.105 Q17.062 -60.744 16.097 -59.773 Q15.131 -58.801 13.779 -58.801 Q12.427 -58.801 11.441 -59.773 Q10.454 -60.744 10.454 -62.105 Z M47.317 -37.942 Q44.48 -37.942 42.483 -39.945 Q40.486 -41.947 40.486 -44.759 Q40.486 -47.657 42.488 -49.654 Q44.491 -51.651 47.303 -51.651 Q50.2 -51.651 52.197 -49.674 Q54.194 -47.696 54.194 -44.774 Q54.194 -41.936 52.217 -39.939 Q50.24 -37.942 47.317 -37.942 Z M77.618 -62.105 V-75.074 Q77.618 -75.074 77.618 -75.074 Q77.618 -75.074 77.618 -75.074 H64.649 Q63.288 -75.074 62.316 -76.04 Q61.345 -77.005 61.345 -78.358 Q61.345 -79.71 62.316 -80.696 Q63.288 -81.682 64.649 -81.682 H77.618 Q80.344 -81.682 82.285 -79.741 Q84.226 -77.8 84.226 -75.074 V-62.105 Q84.226 -60.744 83.26 -59.773 Q82.295 -58.801 80.943 -58.801 Q79.59 -58.801 78.604 -59.773 Q77.618 -60.744 77.618 -62.105 Z M25.162 -41.838 Q23.618 -41.838 22.781 -40.45 Q21.944 -39.061 22.437 -37.449 Q24.459 -30.799 29.316 -26.062 Q34.174 -21.324 40.831 -19.401 Q42.31 -18.957 43.518 -19.771 Q44.726 -20.584 44.726 -22.113 Q44.726 -23.494 43.987 -24.406 Q43.247 -25.318 42.014 -25.811 Q37.182 -27.439 33.606 -31.014 Q30.031 -34.589 28.601 -39.422 Q28.239 -40.488 27.332 -41.163 Q26.425 -41.838 25.162 -41.838 Z M25.199 -46.868 Q23.613 -46.868 22.779 -48.251 Q21.944 -49.634 22.45 -51.396 Q24.412 -57.894 29.317 -62.638 Q34.223 -67.382 40.781 -69.305 Q42.359 -69.749 43.543 -68.935 Q44.726 -68.121 44.726 -66.593 Q44.726 -65.212 43.987 -64.3 Q43.247 -63.387 42.014 -62.894 Q37.182 -61.267 33.68 -57.741 Q30.179 -54.215 28.749 -49.383 Q28.299 -48.253 27.354 -47.56 Q26.409 -46.868 25.199 -46.868 Z M69.531 -46.868 Q71.158 -46.868 71.922 -48.251 Q72.687 -49.634 72.173 -51.399 Q70.18 -57.906 65.343 -62.644 Q60.506 -67.382 53.948 -69.305 Q52.37 -69.749 51.137 -68.935 Q49.904 -68.121 49.904 -66.593 Q49.904 -65.212 50.693 -64.3 Q51.482 -63.387 52.715 -62.894 Q57.548 -61.267 61.058 -57.756 Q64.569 -54.245 66.128 -49.383 Q66.498 -48.273 67.423 -47.57 Q68.347 -46.868 69.531 -46.868 Z M75.031 1.261 Q67.41 1.261 62.109 -4.062 Q56.808 -9.386 56.808 -17.007 Q56.808 -24.628 62.131 -29.929 Q67.455 -35.23 75.076 -35.23 Q82.697 -35.23 87.998 -29.907 Q93.299 -24.583 93.299 -16.962 Q93.299 -9.341 87.976 -4.04 Q82.652 1.261 75.031 1.261 Z M75.054 -7.911 Q76 -7.911 76.711 -8.621 Q77.421 -9.331 77.421 -10.278 Q77.421 -11.225 76.711 -11.935 Q76 -12.645 75.054 -12.645 Q74.107 -12.645 73.397 -11.935 Q72.687 -11.225 72.687 -10.278 Q72.687 -9.331 73.397 -8.621 Q74.107 -7.911 75.054 -7.911 Z M75.054 -17.182 Q76 -17.182 76.661 -17.842 Q77.322 -18.503 77.322 -19.427 V-23.813 Q77.322 -24.736 76.661 -25.397 Q76 -26.058 75.054 -26.058 Q74.107 -26.058 73.446 -25.397 Q72.785 -24.736 72.785 -23.813 V-19.427 Q72.785 -18.503 73.446 -17.842 Q74.107 -17.182 75.054 -17.182 Z"/></g><g id="Light-S" transform="matrix(1 0 0 1 1109.75 696)"><path d="M18.181 -9.675 Q15.702 -9.675 13.97 -11.407 Q12.237 -13.14 12.237 -15.619 V-28.379 Q12.237 -29.339 12.928 -30.037 Q13.618 -30.735 14.582 -30.735 Q15.545 -30.735 16.256 -30.037 Q16.967 -29.339 16.967 -28.379 V-15.619 Q16.967 -15.164 17.347 -14.784 Q17.726 -14.405 18.181 -14.405 H30.942 Q31.902 -14.405 32.6 -13.713 Q33.297 -13.021 33.297 -12.07 Q33.297 -11.097 32.6 -10.386 Q31.902 -9.675 30.942 -9.675 H18.181 Z M12.237 -61.195 V-73.936 Q12.237 -76.416 13.97 -78.148 Q15.702 -79.88 18.181 -79.88 H30.942 Q31.902 -79.88 32.6 -79.189 Q33.297 -78.497 33.297 -77.546 Q33.297 -76.573 32.6 -75.862 Q31.902 -75.15 30.942 -75.15 H18.181 Q17.726 -75.15 17.347 -74.771 Q16.967 -74.392 16.967 -73.936 V-61.195 Q16.967 -60.213 16.275 -59.517 Q15.584 -58.82 14.632 -58.82 Q13.66 -58.82 12.948 -59.517 Q12.237 -60.213 12.237 -61.195 Z M47.32 -38.872 Q44.84 -38.872 43.137 -40.582 Q41.434 -42.293 41.434 -44.742 Q41.434 -47.239 43.145 -48.971 Q44.856 -50.703 47.305 -50.703 Q49.802 -50.703 51.533 -48.994 Q53.265 -47.286 53.265 -44.758 Q53.265 -42.278 51.557 -40.575 Q49.849 -38.872 47.32 -38.872 Z M77.713 -61.195 V-73.936 Q77.713 -74.392 77.333 -74.771 Q76.954 -75.15 76.499 -75.15 H63.757 Q62.776 -75.15 62.079 -75.841 Q61.383 -76.531 61.383 -77.495 Q61.383 -78.458 62.079 -79.169 Q62.776 -79.88 63.757 -79.88 H76.499 Q78.978 -79.88 80.71 -78.148 Q82.443 -76.416 82.443 -73.936 V-61.195 Q82.443 -60.213 81.751 -59.517 Q81.059 -58.82 80.108 -58.82 Q79.135 -58.82 78.424 -59.517 Q77.713 -60.213 77.713 -61.195 Z M25.22 -41.534 Q24.073 -41.534 23.464 -40.516 Q22.854 -39.498 23.253 -38.303 Q25.199 -31.672 29.98 -26.934 Q34.762 -22.196 41.4 -20.349 Q42.519 -20.038 43.433 -20.558 Q44.347 -21.077 44.347 -22.2 Q44.347 -23.247 43.748 -23.89 Q43.15 -24.534 42.242 -24.92 Q36.878 -26.642 32.971 -30.568 Q29.064 -34.494 27.558 -39.858 Q27.309 -40.563 26.696 -41.049 Q26.084 -41.534 25.22 -41.534 Z M25.218 -47.418 Q24.022 -47.418 23.419 -48.431 Q22.817 -49.445 23.227 -50.808 Q25.114 -57.268 29.934 -62.012 Q34.754 -66.756 41.294 -68.622 Q42.514 -68.914 43.411 -68.395 Q44.309 -67.875 44.309 -66.753 Q44.309 -65.705 43.731 -65.058 Q43.152 -64.412 42.242 -64.051 Q36.878 -62.31 33.017 -58.434 Q29.155 -54.557 27.668 -49.212 Q27.323 -48.428 26.68 -47.923 Q26.037 -47.418 25.218 -47.418 Z M69.455 -47.418 Q70.665 -47.418 71.202 -48.434 Q71.738 -49.45 71.338 -50.811 Q69.421 -57.28 64.67 -62.018 Q59.918 -66.756 53.379 -68.622 Q52.159 -68.914 51.212 -68.395 Q50.265 -67.875 50.265 -66.753 Q50.265 -65.705 50.911 -65.058 Q51.558 -64.412 52.468 -64.051 Q57.813 -62.31 61.665 -58.449 Q65.517 -54.587 67.152 -49.212 Q67.389 -48.444 68.02 -47.931 Q68.652 -47.418 69.455 -47.418 Z M73.267 -2.343 Q66.405 -2.343 61.644 -7.125 Q56.884 -11.908 56.884 -18.771 Q56.884 -25.633 61.667 -30.394 Q66.449 -35.154 73.312 -35.154 Q80.174 -35.154 84.935 -30.371 Q89.695 -25.589 89.695 -18.726 Q89.695 -11.864 84.913 -7.103 Q80.13 -2.343 73.267 -2.343 Z M73.29 -10.661 Q74.236 -10.661 74.909 -11.333 Q75.581 -12.005 75.581 -12.952 Q75.581 -13.899 74.909 -14.571 Q74.236 -15.243 73.29 -15.243 Q72.343 -15.243 71.671 -14.571 Q70.998 -13.899 70.998 -12.952 Q70.998 -12.005 71.671 -11.333 Q72.343 -10.661 73.29 -10.661 Z M73.29 -19.666 Q74.168 -19.666 74.759 -20.257 Q75.349 -20.848 75.349 -21.703 V-24.643 Q75.349 -25.495 74.759 -26.089 Q74.168 -26.684 73.29 -26.684 Q72.411 -26.684 71.821 -26.093 Q71.23 -25.503 71.23 -24.647 V-21.708 Q71.23 -20.855 71.821 -20.261 Q72.411 -19.666 73.29 -19.666 Z"/></g><g id="Thin-S" transform="matrix(1 0 0 1 814.015 696)"><path d="M19.3 -11.439 Q17.068 -11.439 15.544 -12.962 Q14.02 -14.486 14.02 -16.719 V-29.271 Q14.02 -29.829 14.435 -30.254 Q14.851 -30.678 15.425 -30.678 Q16 -30.678 16.436 -30.254 Q16.872 -29.829 16.872 -29.271 V-16.719 Q16.872 -15.808 17.631 -15.05 Q18.39 -14.291 19.3 -14.291 H31.852 Q32.411 -14.291 32.835 -13.873 Q33.259 -13.454 33.259 -12.905 Q33.259 -12.311 32.835 -11.875 Q32.411 -11.439 31.852 -11.439 H19.3 Z M14.02 -60.285 V-72.799 Q14.02 -75.031 15.544 -76.555 Q17.068 -78.079 19.3 -78.079 H31.852 Q32.411 -78.079 32.835 -77.66 Q33.259 -77.242 33.259 -76.692 Q33.259 -76.099 32.835 -75.663 Q32.411 -75.226 31.852 -75.226 H19.3 Q18.39 -75.226 17.631 -74.468 Q16.872 -73.709 16.872 -72.799 V-60.285 Q16.872 -59.682 16.454 -59.261 Q16.036 -58.839 15.486 -58.839 Q14.892 -58.839 14.456 -59.261 Q14.02 -59.682 14.02 -60.285 Z M47.323 -39.801 Q45.201 -39.801 43.791 -41.22 Q42.382 -42.639 42.382 -44.726 Q42.382 -46.822 43.801 -48.288 Q45.22 -49.754 47.307 -49.754 Q49.404 -49.754 50.87 -48.315 Q52.336 -46.876 52.336 -44.742 Q52.336 -42.619 50.897 -41.21 Q49.457 -39.801 47.323 -39.801 Z M77.808 -60.285 V-72.799 Q77.808 -73.709 77.049 -74.468 Q76.29 -75.226 75.38 -75.226 H62.866 Q62.263 -75.226 61.842 -75.642 Q61.421 -76.057 61.421 -76.632 Q61.421 -77.206 61.842 -77.643 Q62.263 -78.079 62.866 -78.079 H75.38 Q77.612 -78.079 79.136 -76.555 Q80.66 -75.031 80.66 -72.799 V-60.285 Q80.66 -59.682 80.242 -59.261 Q79.824 -58.839 79.274 -58.839 Q78.68 -58.839 78.244 -59.261 Q77.808 -59.682 77.808 -60.285 Z M25.278 -41.231 Q24.528 -41.231 24.146 -40.582 Q23.765 -39.934 24.068 -39.156 Q25.939 -32.544 30.644 -27.807 Q35.349 -23.069 41.969 -21.297 Q42.727 -21.119 43.348 -21.345 Q43.968 -21.57 43.968 -22.286 Q43.968 -23 43.51 -23.375 Q43.053 -23.749 42.469 -24.028 Q36.575 -25.845 32.336 -30.122 Q28.097 -34.399 26.515 -40.294 Q26.38 -40.639 26.061 -40.935 Q25.742 -41.231 25.278 -41.231 Z M25.237 -47.968 Q24.431 -47.968 24.06 -48.611 Q23.689 -49.255 24.005 -50.22 Q25.815 -56.642 30.55 -61.386 Q35.285 -66.13 41.806 -67.939 Q42.668 -68.08 43.28 -67.854 Q43.892 -67.628 43.892 -66.912 Q43.892 -66.198 43.475 -65.817 Q43.057 -65.436 42.469 -65.208 Q36.575 -63.353 32.353 -59.126 Q28.131 -54.898 26.587 -49.041 Q26.348 -48.603 26.006 -48.285 Q25.665 -47.968 25.237 -47.968 Z M69.379 -47.968 Q70.172 -47.968 70.481 -48.616 Q70.79 -49.265 70.504 -50.223 Q68.663 -56.654 63.997 -61.392 Q59.331 -66.13 52.81 -67.939 Q51.948 -68.08 51.286 -67.854 Q50.625 -67.628 50.625 -66.912 Q50.625 -66.198 51.129 -65.817 Q51.634 -65.436 52.222 -65.208 Q58.079 -63.353 62.272 -59.141 Q66.466 -54.928 68.176 -49.041 Q68.281 -48.615 68.618 -48.291 Q68.956 -47.968 69.379 -47.968 Z M71.504 -5.946 Q65.4 -5.946 61.18 -10.188 Q56.96 -14.431 56.96 -20.534 Q56.96 -26.638 61.202 -30.858 Q65.444 -35.078 71.548 -35.078 Q77.652 -35.078 81.872 -30.836 Q86.092 -26.594 86.092 -20.49 Q86.092 -14.386 81.85 -10.166 Q77.607 -5.946 71.504 -5.946 Z M71.526 -13.411 Q72.473 -13.411 73.107 -14.045 Q73.741 -14.68 73.741 -15.626 Q73.741 -16.573 73.107 -17.207 Q72.473 -17.842 71.526 -17.842 Q70.579 -17.842 69.945 -17.207 Q69.311 -16.573 69.311 -15.626 Q69.311 -14.68 69.945 -14.045 Q70.579 -13.411 71.526 -13.411 Z M71.526 -22.151 Q72.336 -22.151 72.857 -22.671 Q73.377 -23.192 73.377 -23.979 V-25.472 Q73.377 -26.254 72.857 -26.782 Q72.336 -27.31 71.526 -27.31 Q70.716 -27.31 70.195 -26.789 Q69.675 -26.269 69.675 -25.482 V-23.988 Q69.675 -23.207 70.195 -22.679 Q70.716 -22.151 71.526 -22.151 Z"/></g><g id="Ultralight-S" transform="matrix(1 0 0 1 517.792 696)"><path d="M19.972 -12.497 Q17.887 -12.497 16.488 -13.896 Q15.09 -15.294 15.09 -17.379 V-29.806 Q15.09 -30.124 15.34 -30.384 Q15.591 -30.644 15.932 -30.644 Q16.273 -30.644 16.544 -30.384 Q16.816 -30.124 16.816 -29.806 V-17.379 Q16.816 -16.195 17.802 -15.209 Q18.788 -14.223 19.972 -14.223 H32.398 Q32.716 -14.223 32.976 -13.969 Q33.237 -13.715 33.237 -13.405 Q33.237 -13.039 32.976 -12.768 Q32.716 -12.497 32.398 -12.497 H19.972 Z M15.09 -59.738 V-72.116 Q15.09 -74.2 16.488 -75.599 Q17.887 -76.998 19.972 -76.998 H32.398 Q32.716 -76.998 32.976 -76.744 Q33.237 -76.489 33.237 -76.18 Q33.237 -75.814 32.976 -75.543 Q32.716 -75.272 32.398 -75.272 H19.972 Q18.788 -75.272 17.802 -74.285 Q16.816 -73.299 16.816 -72.116 V-59.738 Q16.816 -59.364 16.561 -59.107 Q16.307 -58.851 15.998 -58.851 Q15.632 -58.851 15.361 -59.107 Q15.09 -59.364 15.09 -59.738 Z M47.325 -40.358 Q45.417 -40.358 44.184 -41.603 Q42.951 -42.847 42.951 -44.715 Q42.951 -46.572 44.195 -47.879 Q45.439 -49.185 47.308 -49.185 Q49.165 -49.185 50.471 -47.908 Q51.778 -46.63 51.778 -44.733 Q51.778 -42.824 50.5 -41.591 Q49.223 -40.358 47.325 -40.358 Z M77.864 -59.738 V-72.116 Q77.864 -73.299 76.878 -74.285 Q75.892 -75.272 74.708 -75.272 H62.331 Q61.956 -75.272 61.7 -75.522 Q61.443 -75.773 61.443 -76.114 Q61.443 -76.455 61.7 -76.726 Q61.956 -76.998 62.331 -76.998 H74.708 Q76.793 -76.998 78.192 -75.599 Q79.59 -74.2 79.59 -72.116 V-59.738 Q79.59 -59.364 79.336 -59.107 Q79.082 -58.851 78.773 -58.851 Q78.407 -58.851 78.136 -59.107 Q77.864 -59.364 77.864 -59.738 Z M25.313 -41.049 Q24.801 -41.049 24.556 -40.622 Q24.311 -40.195 24.558 -39.668 Q26.383 -33.068 31.042 -28.33 Q35.702 -23.592 42.31 -21.866 Q42.853 -21.768 43.296 -21.817 Q43.74 -21.866 43.74 -22.339 Q43.74 -22.853 43.367 -23.066 Q42.994 -23.279 42.606 -23.494 Q36.393 -25.367 31.955 -29.855 Q27.516 -34.342 25.889 -40.556 Q25.822 -40.685 25.68 -40.867 Q25.537 -41.049 25.313 -41.049 Z M25.248 -48.298 Q24.677 -48.298 24.445 -48.72 Q24.212 -49.141 24.471 -49.868 Q26.236 -56.266 30.92 -61.01 Q35.604 -65.754 42.113 -67.53 Q42.76 -67.579 43.201 -67.53 Q43.642 -67.48 43.642 -67.008 Q43.642 -66.494 43.321 -66.272 Q43.001 -66.05 42.606 -65.902 Q36.393 -63.979 31.955 -59.541 Q27.516 -55.103 25.938 -48.939 Q25.763 -48.708 25.602 -48.503 Q25.442 -48.298 25.248 -48.298 Z M69.333 -48.298 Q69.876 -48.298 70.048 -48.726 Q70.221 -49.154 70.003 -49.87 Q68.207 -56.279 63.593 -61.017 Q58.978 -65.754 52.468 -67.53 Q51.821 -67.579 51.331 -67.53 Q50.841 -67.48 50.841 -67.008 Q50.841 -66.494 51.26 -66.272 Q51.68 -66.05 52.074 -65.902 Q58.238 -63.979 62.636 -59.556 Q67.035 -55.133 68.791 -48.939 Q68.816 -48.717 68.977 -48.507 Q69.138 -48.298 69.333 -48.298 Z M70.445 -8.108 Q64.797 -8.108 60.901 -12.026 Q57.005 -15.944 57.005 -21.593 Q57.005 -27.241 60.923 -31.137 Q64.841 -35.033 70.49 -35.033 Q76.139 -35.033 80.034 -31.115 Q83.93 -27.197 83.93 -21.548 Q83.93 -15.899 80.012 -12.004 Q76.094 -8.108 70.445 -8.108 Z M70.468 -15.061 Q71.414 -15.061 72.026 -15.673 Q72.637 -16.284 72.637 -17.231 Q72.637 -18.178 72.026 -18.789 Q71.414 -19.401 70.468 -19.401 Q69.521 -19.401 68.909 -18.789 Q68.298 -18.178 68.298 -17.231 Q68.298 -16.284 68.909 -15.673 Q69.521 -15.061 70.468 -15.061 Z M70.468 -23.642 Q71.237 -23.642 71.715 -24.12 Q72.194 -24.598 72.194 -25.344 V-25.97 Q72.194 -26.709 71.715 -27.197 Q71.237 -27.685 70.468 -27.685 Q69.698 -27.685 69.22 -27.207 Q68.742 -26.729 68.742 -25.982 V-25.357 Q68.742 -24.618 69.22 -24.13 Q69.698 -23.642 70.468 -23.642 Z"/></g></g></svg>