<svg xmlns="http://www.w3.org/2000/svg" version="1.1" width="3300" height="2000"><g id="Notes"><style>
    text {
      font-family: monospace;
      text-anchor: middle;
    }
    text.emphasis {
      font-weight:bold;
    }
    text.lanchor {
      text-anchor: start;
    }
  </style><rect height="2200" id="artboard" fill="white" width="3300" x="0" y="0"/><line id="" style="fill:none;stroke:black;stroke-width:0.5;" x1="263" x2="3036" y1="292" y2="292"/><text class="lanchor emphasis" transform="matrix(1 0 0 1 263 322)">Weight/Scale Variations</text><text transform="matrix(1 0 0 1 559.711 322)">Ultralight</text><text transform="matrix(1 0 0 1 856.422 322)">Thin</text><text transform="matrix(1 0 0 1 1153.13 322)">Light</text><text transform="matrix(1 0 0 1 1449.84 322)">Regular</text><text transform="matrix(1 0 0 1 1746.56 322)">Medium</text><text transform="matrix(1 0 0 1 2043.27 322)">Semibold</text><text transform="matrix(1 0 0 1 2339.98 322)">Bold</text><text transform="matrix(1 0 0 1 2636.69 322)">Heavy</text><text transform="matrix(1 0 0 1 2933.4 322)">Black</text><text id="template-version" style="text-anchor: end;" transform="matrix(1 0 0 1 3036 1933)">Template v.1.0</text><text class="lanchor" transform="matrix(1 0 0 1 263 726)">Small</text><text class="lanchor" transform="matrix(1 0 0 1 263 1156)">Medium</text><text class="lanchor" transform="matrix(1 0 0 1 263 1586)">Large</text></g><g id="Guides"><g id="H-reference" style="fill:#27AAE1;stroke:none;" transform="matrix(1 0 0 1 339 696)"><path d="M 54.9316 0 L 57.666 0 L 30.5664 -70.459 L 28.0762 -70.459 L 0.976562 0 L 3.66211 0 L 12.9395 -24.4629 L 45.7031 -24.4629 Z M 29.1992 -67.0898 L 29.4434 -67.0898 L 44.8242 -26.709 L 13.8184 -26.709 Z"/></g><line id="Baseline-S" style="fill:none;stroke:#27AAE1;opacity:1;stroke-width:0.577;" x1="263" x2="3036" y1="696" y2="696"/><line id="Capline-S" style="fill:none;stroke:#27AAE1;opacity:1;stroke-width:0.577;" x1="263" x2="3036" y1="625.541" y2="625.541"/><g id="H-reference" style="fill:#27AAE1;stroke:none;" transform="matrix(1 0 0 1 339 1126)"><path d="M 54.9316 0 L 57.666 0 L 30.5664 -70.459 L 28.0762 -70.459 L 0.976562 0 L 3.66211 0 L 12.9395 -24.4629 L 45.7031 -24.4629 Z M 29.1992 -67.0898 L 29.4434 -67.0898 L 44.8242 -26.709 L 13.8184 -26.709 Z"/></g><line id="Baseline-M" style="fill:none;stroke:#27AAE1;opacity:1;stroke-width:0.577;" x1="263" x2="3036" y1="1126" y2="1126"/><line id="Capline-M" style="fill:none;stroke:#27AAE1;opacity:1;stroke-width:0.577;" x1="263" x2="3036" y1="1055.54" y2="1055.54"/><g id="H-reference" style="fill:#27AAE1;stroke:none;" transform="matrix(1 0 0 1 339 1556)"><path d="M 54.9316 0 L 57.666 0 L 30.5664 -70.459 L 28.0762 -70.459 L 0.976562 0 L 3.66211 0 L 12.9395 -24.4629 L 45.7031 -24.4629 Z M 29.1992 -67.0898 L 29.4434 -67.0898 L 44.8242 -26.709 L 13.8184 -26.709 Z"/></g><line id="Baseline-L" style="fill:none;stroke:#27AAE1;opacity:1;stroke-width:0.577;" x1="263" x2="3036" y1="1556" y2="1556"/><line id="Capline-L" style="fill:none;stroke:#27AAE1;opacity:1;stroke-width:0.577;" x1="263" x2="3036" y1="1485.54" y2="1485.54"/><rect height="119.336" id="left-margin" style="fill:darkred;stroke:none;opacity:0.4;" width="12.4512" x="1394.06" y="1030.79"/><rect height="119.336" id="right-margin" style="fill:darkgreen;stroke:none;opacity:0.4;" width="12.4512" x="1502.5112" y="1030.79"/><rect x="1406.5112" y="1045" width="96" height="96" fill="none" stroke="blue" stroke-dasharray="5"/><rect x="1394.06" y="1030.79" width="120.9024" height="119.336" fill="none" stroke="blue"/></g><g id="Symbols"><g id="Bold-L" transform="matrix(1 0 0 1 2266 1556)"><path d="M21.93 23.143 V-23.942 H8.788 V-40.632 H51.761 V-23.942 H38.619 V23.143 H21.93 Z M21.93 -49.904 V-93.764 H38.619 V-49.904 H21.93 Z M55.954 -56.515 V-73.204 H69.096 V-93.764 H85.785 V-73.204 H98.927 V-56.515 H55.954 Z M69.096 23.143 V-47.243 H85.785 V23.143 H69.096 Z M116.261 23.143 V2.825 H103.119 V-13.864 H146.093 V2.825 H132.951 V23.143 H116.261 Z M116.261 -23.136 V-93.764 H132.951 V-23.136 H116.261 Z"/></g><g id="Semibold-L" transform="matrix(1 0 0 1 1970.27 1556)"><path d="M26.767 19.918 V-27.167 H13.625 V-40.632 H53.374 V-27.167 H40.232 V19.918 H26.767 Z M26.767 -49.904 V-90.539 H40.232 V-49.904 H26.767 Z M57.566 -56.515 V-69.98 H70.708 V-90.539 H84.173 V-69.98 H97.315 V-56.515 H57.566 Z M70.708 19.918 V-47.243 H84.173 V19.918 H70.708 Z M114.649 19.918 V-0.4 H101.507 V-13.864 H141.255 V-0.4 H128.113 V19.918 H114.649 Z M114.649 -23.136 V-90.539 H128.113 V-23.136 H114.649 Z"/></g><g id="Medium-L" transform="matrix(1 0 0 1 1674.31 1556)"><path d="M30.396 17.499 V-29.586 H17.254 V-40.632 H54.583 V-29.586 H41.441 V17.499 H30.396 Z M30.396 -49.904 V-88.12 H41.441 V-49.904 H30.396 Z M58.776 -56.515 V-67.561 H71.918 V-88.12 H82.963 V-67.561 H96.105 V-56.515 H58.776 Z M71.918 17.499 V-47.243 H82.963 V17.499 H71.918 Z M113.439 17.499 V-2.819 H100.297 V-13.864 H137.627 V-2.819 H124.485 V17.499 H113.439 Z M113.439 -23.136 V-88.12 H124.485 V-23.136 H113.439 Z"/></g><g id="Regular-L" transform="matrix(1 0 0 1 1378.56 1556)"><path d="M33.056 15.725 V-31.36 H19.914 V-40.632 H55.47 V-31.36 H42.328 V15.725 H33.056 Z M33.056 -49.904 V-86.346 H42.328 V-49.904 H33.056 Z M59.663 -56.515 V-65.787 H72.804 V-86.346 H82.076 V-65.787 H95.218 V-56.515 H59.663 Z M72.804 15.725 V-47.243 H82.076 V15.725 H72.804 Z M112.553 15.725 V-4.592 H99.411 V-13.864 H134.966 V-4.592 H121.824 V15.725 H112.553 Z M112.553 -23.136 V-86.346 H121.824 V-23.136 H112.553 Z"/></g><g id="Light-L" transform="matrix(1 0 0 1 1082.77 1556)"><path d="M33.925 14.33 V-32.631 H20.814 V-39.701 H54.075 V-32.631 H40.995 V14.33 H33.925 Z M33.925 -52.478 V-84.92 H40.995 V-52.478 H33.925 Z M60.779 -57.352 V-64.422 H73.921 V-84.92 H80.991 V-64.422 H94.102 V-57.352 H60.779 Z M73.921 14.33 V-44.576 H80.991 V14.33 H73.921 Z M113.886 14.33 V-6.081 H100.806 V-13.151 H134.067 V-6.081 H120.956 V14.33 H113.886 Z M113.886 -25.927 V-84.92 H120.956 V-25.927 H113.886 Z"/></g><g id="Thin-L" transform="matrix(1 0 0 1 787.282 1556)"><path d="M34.793 12.934 V-33.903 H21.713 V-38.771 H52.679 V-33.903 H39.661 V12.934 H34.793 Z M34.793 -55.051 V-83.493 H39.661 V-55.051 H34.793 Z M61.895 -58.19 V-63.058 H75.037 V-83.493 H79.906 V-63.058 H92.985 V-58.19 H61.895 Z M75.037 12.934 V-41.909 H79.906 V12.934 H75.037 Z M115.219 12.934 V-7.569 H102.202 V-12.438 H133.168 V-7.569 H120.088 V12.934 H115.219 Z M115.219 -28.718 V-83.493 H120.088 V-28.718 H115.219 Z"/></g><g id="Ultralight-L" transform="matrix(1 0 0 1 491.205 1556)"><path d="M35.314 12.097 V-34.666 H22.253 V-38.213 H51.842 V-34.666 H38.861 V12.097 H35.314 Z M35.314 -56.596 V-82.637 H38.861 V-56.596 H35.314 Z M62.565 -58.692 V-62.239 H75.707 V-82.637 H79.254 V-62.239 H92.316 V-58.692 H62.565 Z M75.707 12.097 V-40.309 H79.254 V12.097 H75.707 Z M116.019 12.097 V-8.462 H103.039 V-12.01 H132.628 V-8.462 H119.567 V12.097 H116.019 Z M116.019 -30.392 V-82.637 H119.567 V-30.392 H116.019 Z"/></g><g id="Bold-M" transform="matrix(1 0 0 1 2281.8 1126)"><path d="M14.25 11.458 V-23.042 H4.375 V-40.042 H41.062 V-23.042 H31.25 V11.458 H14.25 Z M14.25 -49.417 V-82.105 H31.25 V-49.417 H14.25 Z M41.625 -49.417 V-66.417 H51.438 V-82.105 H68.562 V-66.417 H78.438 V-49.417 H41.625 Z M51.438 11.458 V-40.042 H68.562 V11.458 H51.438 Z M88.812 11.458 V-3.355 H79 V-20.355 H115.688 V-3.355 H105.812 V11.458 H88.812 Z M88.812 -29.73 V-82.105 H105.812 V-29.73 H88.812 Z"/></g><g id="Semibold-M" transform="matrix(1 0 0 1 1985.97 1126)"><path d="M19.25 8.143 V-26.357 H9.375 V-40.042 H42.747 V-26.357 H32.935 V8.143 H19.25 Z M19.25 -49.417 V-78.79 H32.935 V-49.417 H19.25 Z M43.31 -49.417 V-63.102 H53.122 V-78.79 H66.878 V-63.102 H76.753 V-49.417 H43.31 Z M53.122 8.143 V-40.042 H66.878 V8.143 H53.122 Z M87.128 8.143 V-6.67 H77.315 V-20.355 H110.688 V-6.67 H100.813 V8.143 H87.128 Z M87.128 -29.73 V-78.79 H100.813 V-29.73 H87.128 Z"/></g><g id="Medium-M" transform="matrix(1 0 0 1 1689.91 1126)"><path d="M23 5.656 V-28.844 H13.125 V-40.042 H44.011 V-28.844 H34.198 V5.656 H23 Z M23 -49.417 V-76.303 H34.198 V-49.417 H23 Z M44.573 -49.417 V-60.616 H54.386 V-76.303 H65.614 V-60.616 H75.489 V-49.417 H44.573 Z M54.386 5.656 V-40.042 H65.614 V5.656 H54.386 Z M85.864 5.656 V-9.157 H76.052 V-20.355 H106.938 V-9.157 H97.062 V5.656 H85.864 Z M85.864 -29.73 V-76.303 H97.062 V-29.73 H85.864 Z"/></g><g id="Regular-M" transform="matrix(1 0 0 1 1394.06 1126)"><path d="M25.75 3.833 V-30.667 H15.875 V-40.042 H44.938 V-30.667 H35.125 V3.833 H25.75 Z M25.75 -49.417 V-74.48 H35.125 V-49.417 H25.75 Z M45.5 -49.417 V-58.792 H55.312 V-74.48 H64.688 V-58.792 H74.562 V-49.417 H45.5 Z M55.312 3.833 V-40.042 H64.688 V3.833 H55.312 Z M84.938 3.833 V-10.98 H75.125 V-20.355 H104.188 V-10.98 H94.312 V3.833 H84.938 Z M84.938 -29.73 V-74.48 H94.312 V-29.73 H84.938 Z"/></g><g id="Light-M" transform="matrix(1 0 0 1 1098.18 1126)"><path d="M26.471 2.751 V-32.134 H16.572 V-39.129 H43.327 V-32.134 H33.466 V2.751 H26.471 Z M26.471 -50.547 V-73.374 H33.466 V-50.547 H26.471 Z M46.654 -50.547 V-57.542 H56.514 V-73.374 H63.51 V-57.542 H73.409 V-50.547 H46.654 Z M56.514 2.751 V-39.129 H63.51 V2.751 H56.514 Z M86.596 2.751 V-12.374 H76.736 V-19.369 H103.49 V-12.374 H93.591 V2.751 H86.596 Z M86.596 -30.788 V-73.374 H93.591 V-30.788 H86.596 Z"/></g><g id="Thin-M" transform="matrix(1 0 0 1 802.565 1126)"><path d="M27.192 1.669 V-33.6 H17.269 V-38.216 H41.716 V-33.6 H31.808 V1.669 H27.192 Z M27.192 -51.677 V-72.268 H31.808 V-51.677 H27.192 Z M47.808 -51.677 V-56.292 H57.716 V-72.268 H62.332 V-56.292 H72.255 V-51.677 H47.808 Z M57.716 1.669 V-38.216 H62.332 V1.669 H57.716 Z M88.255 1.669 V-13.768 H78.346 V-18.384 H102.793 V-13.768 H92.87 V1.669 H88.255 Z M88.255 -31.845 V-72.268 H92.87 V-31.845 H88.255 Z"/></g><g id="Ultralight-M" transform="matrix(1 0 0 1 506.415 1126)"><path d="M27.625 1.02 V-34.48 H17.688 V-37.667 H40.75 V-34.48 H30.812 V1.02 H27.625 Z M27.625 -52.355 V-71.605 H30.812 V-52.355 H27.625 Z M48.5 -52.355 V-55.542 H58.438 V-71.605 H61.625 V-55.542 H71.562 V-52.355 H48.5 Z M58.438 1.02 V-37.667 H61.625 V1.02 H58.438 Z M89.25 1.02 V-14.605 H79.312 V-17.792 H102.375 V-14.605 H92.438 V1.02 H89.25 Z M89.25 -32.48 V-71.605 H92.438 V-32.48 H89.25 Z"/></g><g id="Bold-S" transform="matrix(1 0 0 1 2294.23 696)"><path d="M12.821 -1.55 V-24.825 H5.819 V-37.449 H32.497 V-24.825 H25.445 V-1.55 H12.821 Z M12.821 -44.057 V-69.058 H25.445 V-44.057 H12.821 Z M34.026 -44.057 V-56.681 H40.979 V-69.058 H53.701 V-56.681 H60.704 V-44.057 H34.026 Z M40.979 -1.55 V-37.449 H53.701 V-1.55 H40.979 Z M69.284 -1.55 V-13.237 H62.232 V-25.861 H88.91 V-13.237 H81.908 V-1.55 H69.284 Z M69.284 -32.468 V-69.058 H81.908 V-32.468 H69.284 Z"/></g><g id="Semibold-S" transform="matrix(1 0 0 1 1998.1 696)"><path d="M16.766 -4.165 V-27.441 H9.764 V-37.449 H33.826 V-27.441 H26.774 V-4.165 H16.766 Z M16.766 -44.057 V-66.443 H26.774 V-44.057 H16.766 Z M35.355 -44.057 V-54.065 H42.308 V-66.443 H52.372 V-54.065 H59.375 V-44.057 H35.355 Z M42.308 -4.165 V-37.449 H52.372 V-4.165 H42.308 Z M67.955 -4.165 V-15.852 H60.903 V-25.861 H84.966 V-15.852 H77.963 V-4.165 H67.955 Z M67.955 -32.468 V-66.443 H77.963 V-32.468 H67.955 Z"/></g><g id="Medium-S" transform="matrix(1 0 0 1 1701.85 696)"><path d="M19.725 -6.127 V-29.403 H12.723 V-37.449 H34.823 V-29.403 H27.772 V-6.127 H19.725 Z M19.725 -44.057 V-64.481 H27.772 V-44.057 H19.725 Z M36.352 -44.057 V-52.103 H43.305 V-64.481 H51.375 V-52.103 H58.377 V-44.057 H36.352 Z M43.305 -6.127 V-37.449 H51.375 V-6.127 H43.305 Z M66.958 -6.127 V-17.814 H59.906 V-25.861 H82.007 V-17.814 H75.004 V-6.127 H66.958 Z M66.958 -32.468 V-64.481 H75.004 V-32.468 H66.958 Z"/></g><g id="Regular-S" transform="matrix(1 0 0 1 1405.73 696)"><path d="M21.895 -7.566 V-30.841 H14.892 V-37.449 H35.554 V-30.841 H28.503 V-7.566 H21.895 Z M21.895 -44.057 V-63.042 H28.503 V-44.057 H21.895 Z M37.083 -44.057 V-50.665 H44.036 V-63.042 H50.644 V-50.665 H57.646 V-44.057 H37.083 Z M44.036 -7.566 V-37.449 H50.644 V-7.566 H44.036 Z M66.227 -7.566 V-19.253 H59.175 V-25.861 H79.837 V-19.253 H72.835 V-7.566 H66.227 Z M66.227 -32.468 V-63.042 H72.835 V-32.468 H66.227 Z"/></g><g id="Light-S" transform="matrix(1 0 0 1 1109.75 696)"><path d="M22.464 -8.419 V-31.998 H15.442 V-36.728 H34.283 V-31.998 H27.194 V-8.419 H22.464 Z M22.464 -44.948 V-62.17 H27.194 V-44.948 H22.464 Z M37.993 -44.948 V-49.678 H44.984 V-62.17 H49.714 V-49.678 H56.736 V-44.948 H37.993 Z M44.984 -8.419 V-36.728 H49.714 V-8.419 H44.984 Z M67.535 -8.419 V-20.353 H60.446 V-25.083 H79.287 V-20.353 H72.265 V-8.419 H67.535 Z M67.535 -33.303 V-62.17 H72.265 V-33.303 H67.535 Z"/></g><g id="Thin-S" transform="matrix(1 0 0 1 814.015 696)"><path d="M23.033 -9.273 V-33.155 H15.992 V-36.008 H33.013 V-33.155 H25.885 V-9.273 H23.033 Z M23.033 -45.84 V-61.297 H25.885 V-45.84 H23.033 Z M38.904 -45.84 V-48.692 H45.933 V-61.297 H48.785 V-48.692 H55.826 V-45.84 H38.904 Z M45.933 -9.273 V-36.008 H48.785 V-9.273 H45.933 Z M68.844 -9.273 V-21.453 H61.716 V-24.305 H78.737 V-21.453 H71.697 V-9.273 H68.844 Z M68.844 -34.138 V-61.297 H71.697 V-34.138 H68.844 Z"/></g><g id="Ultralight-S" transform="matrix(1 0 0 1 517.792 696)"><path d="M23.374 -9.785 V-33.849 H16.322 V-35.575 H32.25 V-33.849 H25.1 V-9.785 H23.374 Z M23.374 -46.375 V-60.774 H25.1 V-46.375 H23.374 Z M39.45 -46.375 V-48.101 H46.502 V-60.774 H48.228 V-48.101 H55.279 V-46.375 H39.45 Z M46.502 -9.785 V-35.575 H48.228 V-9.785 H46.502 Z M69.629 -9.785 V-22.113 H62.479 V-23.839 H78.407 V-22.113 H71.355 V-9.785 H69.629 Z M69.629 -34.638 V-60.774 H71.355 V-34.638 H69.629 Z"/></g></g></svg>