<svg xmlns="http://www.w3.org/2000/svg" version="1.1" width="3300" height="2000"><g id="Notes"><style>
    text {
      font-family: monospace;
      text-anchor: middle;
    }
    text.emphasis {
      font-weight:bold;
    }
    text.lanchor {
      text-anchor: start;
    }
  </style><rect height="2200" id="artboard" fill="white" width="3300" x="0" y="0"/><line id="" style="fill:none;stroke:black;stroke-width:0.5;" x1="263" x2="3036" y1="292" y2="292"/><text class="lanchor emphasis" transform="matrix(1 0 0 1 263 322)">Weight/Scale Variations</text><text transform="matrix(1 0 0 1 559.711 322)">Ultralight</text><text transform="matrix(1 0 0 1 856.422 322)">Thin</text><text transform="matrix(1 0 0 1 1153.13 322)">Light</text><text transform="matrix(1 0 0 1 1449.84 322)">Regular</text><text transform="matrix(1 0 0 1 1746.56 322)">Medium</text><text transform="matrix(1 0 0 1 2043.27 322)">Semibold</text><text transform="matrix(1 0 0 1 2339.98 322)">Bold</text><text transform="matrix(1 0 0 1 2636.69 322)">Heavy</text><text transform="matrix(1 0 0 1 2933.4 322)">Black</text><text id="template-version" style="text-anchor: end;" transform="matrix(1 0 0 1 3036 1933)">Template v.1.0</text><text class="lanchor" transform="matrix(1 0 0 1 263 726)">Small</text><text class="lanchor" transform="matrix(1 0 0 1 263 1156)">Medium</text><text class="lanchor" transform="matrix(1 0 0 1 263 1586)">Large</text></g><g id="Guides"><g id="H-reference" style="fill:#27AAE1;stroke:none;" transform="matrix(1 0 0 1 339 696)"><path d="M 54.9316 0 L 57.666 0 L 30.5664 -70.459 L 28.0762 -70.459 L 0.976562 0 L 3.66211 0 L 12.9395 -24.4629 L 45.7031 -24.4629 Z M 29.1992 -67.0898 L 29.4434 -67.0898 L 44.8242 -26.709 L 13.8184 -26.709 Z"/></g><line id="Baseline-S" style="fill:none;stroke:#27AAE1;opacity:1;stroke-width:0.577;" x1="263" x2="3036" y1="696" y2="696"/><line id="Capline-S" style="fill:none;stroke:#27AAE1;opacity:1;stroke-width:0.577;" x1="263" x2="3036" y1="625.541" y2="625.541"/><g id="H-reference" style="fill:#27AAE1;stroke:none;" transform="matrix(1 0 0 1 339 1126)"><path d="M 54.9316 0 L 57.666 0 L 30.5664 -70.459 L 28.0762 -70.459 L 0.976562 0 L 3.66211 0 L 12.9395 -24.4629 L 45.7031 -24.4629 Z M 29.1992 -67.0898 L 29.4434 -67.0898 L 44.8242 -26.709 L 13.8184 -26.709 Z"/></g><line id="Baseline-M" style="fill:none;stroke:#27AAE1;opacity:1;stroke-width:0.577;" x1="263" x2="3036" y1="1126" y2="1126"/><line id="Capline-M" style="fill:none;stroke:#27AAE1;opacity:1;stroke-width:0.577;" x1="263" x2="3036" y1="1055.54" y2="1055.54"/><g id="H-reference" style="fill:#27AAE1;stroke:none;" transform="matrix(1 0 0 1 339 1556)"><path d="M 54.9316 0 L 57.666 0 L 30.5664 -70.459 L 28.0762 -70.459 L 0.976562 0 L 3.66211 0 L 12.9395 -24.4629 L 45.7031 -24.4629 Z M 29.1992 -67.0898 L 29.4434 -67.0898 L 44.8242 -26.709 L 13.8184 -26.709 Z"/></g><line id="Baseline-L" style="fill:none;stroke:#27AAE1;opacity:1;stroke-width:0.577;" x1="263" x2="3036" y1="1556" y2="1556"/><line id="Capline-L" style="fill:none;stroke:#27AAE1;opacity:1;stroke-width:0.577;" x1="263" x2="3036" y1="1485.54" y2="1485.54"/><rect height="119.336" id="left-margin" style="fill:darkred;stroke:none;opacity:0.4;" width="12.4512" x="1394.06" y="1030.79"/><rect height="119.336" id="right-margin" style="fill:darkgreen;stroke:none;opacity:0.4;" width="12.4512" x="1502.5112" y="1030.79"/><rect x="1406.5112" y="1045" width="96" height="96" fill="none" stroke="blue" stroke-dasharray="5"/><rect x="1394.06" y="1030.79" width="120.9024" height="119.336" fill="none" stroke="blue"/></g><g id="Symbols"><g id="Bold-L" transform="matrix(1 0 0 1 2266 1556)"><path d="M152.059 -49.742 Q140.126 -49.742 129 -54.096 Q117.874 -58.45 109.328 -67.077 Q100.781 -75.704 96.266 -86.792 Q91.751 -97.88 91.751 -109.889 H105.135 Q105.135 -100.536 108.763 -91.909 Q112.391 -83.282 118.921 -76.663 Q125.45 -70.044 134.09 -66.505 Q142.73 -62.965 152.059 -62.965 V-49.742 Z M152.22 -80.38 Q146.415 -80.38 141.013 -82.598 Q135.611 -84.816 131.419 -89.087 Q127.388 -93.119 125.13 -98.572 Q122.873 -104.026 122.873 -109.889 H136.417 Q136.417 -106.825 137.546 -103.922 Q138.675 -101.02 140.933 -98.762 Q143.19 -96.505 146.173 -95.215 Q149.156 -93.925 152.22 -93.925 V-80.38 Z M62.129 -33.134 Q49.599 -33.134 41.731 -41.116 Q33.863 -49.097 33.863 -61.547 Q33.863 -73.996 41.731 -81.864 Q49.599 -89.732 62.048 -89.732 Q74.498 -89.732 82.479 -81.864 Q90.461 -73.996 90.461 -61.547 Q90.461 -49.097 82.56 -41.116 Q74.659 -33.134 62.129 -33.134 Z M6.45 26.69 V7.34 Q6.45 -0.561 10.643 -5.721 Q14.835 -10.881 19.672 -13.3 Q27.896 -17.492 39.99 -20.395 Q52.084 -23.297 62.081 -23.297 Q72.079 -23.297 84.092 -20.476 Q96.105 -17.654 104.329 -13.622 Q109.166 -11.042 113.52 -5.802 Q117.874 -0.561 117.874 7.34 V26.69 H6.45 Z"/></g><g id="Semibold-L" transform="matrix(1 0 0 1 1970.27 1556)"><path d="M150.446 -48.971 Q138.654 -48.971 127.703 -53.325 Q116.752 -57.679 108.346 -66.13 Q99.94 -74.582 95.46 -85.512 Q90.98 -96.441 90.98 -108.276 H102.822 Q102.822 -98.784 106.485 -90.017 Q110.148 -81.249 116.783 -74.564 Q123.418 -67.878 132.192 -64.265 Q140.967 -60.652 150.446 -60.652 V-48.971 Z M150.608 -78.838 Q144.803 -78.838 139.401 -81.038 Q133.999 -83.238 129.806 -87.475 Q125.705 -91.576 123.483 -97.007 Q121.26 -102.439 121.26 -108.276 H133.123 Q133.123 -104.862 134.392 -101.644 Q135.661 -98.426 138.128 -95.958 Q140.596 -93.491 143.895 -92.095 Q147.193 -90.7 150.608 -90.7 V-78.838 Z M63.16 -31.311 Q51.451 -31.311 44.059 -38.767 Q36.667 -46.223 36.667 -57.887 Q36.667 -69.551 44.059 -76.942 Q51.451 -84.334 63.114 -84.334 Q74.778 -84.334 82.234 -76.942 Q89.69 -69.551 89.69 -57.887 Q89.69 -46.223 82.28 -38.767 Q74.869 -31.311 63.16 -31.311 Z M9.254 25.008 V7.48 Q9.254 0.35 12.956 -4.424 Q16.658 -9.199 21.495 -11.618 Q29.719 -15.81 41.427 -18.642 Q53.135 -21.475 63.133 -21.475 Q73.13 -21.475 84.758 -18.688 Q96.385 -15.901 104.609 -11.8 Q109.447 -9.29 113.275 -4.47 Q117.103 0.35 117.103 7.48 V25.008 H9.254 Z"/></g><g id="Medium-L" transform="matrix(1 0 0 1 1674.31 1556)"><path d="M149.237 -48.393 Q137.55 -48.393 126.73 -52.747 Q115.911 -57.1 107.61 -65.421 Q99.309 -73.741 94.855 -84.551 Q90.402 -95.362 90.402 -107.067 H101.086 Q101.086 -97.469 104.776 -88.597 Q108.465 -79.725 115.18 -72.989 Q121.894 -66.253 130.769 -62.585 Q139.645 -58.916 149.237 -58.916 V-48.393 Z M149.398 -77.681 Q143.593 -77.681 138.191 -79.868 Q132.789 -82.054 128.597 -86.266 Q124.443 -90.42 122.247 -95.834 Q120.051 -101.248 120.051 -107.067 H130.651 Q130.651 -103.39 132.025 -99.935 Q133.399 -96.48 136.025 -93.855 Q138.65 -91.229 142.186 -89.755 Q145.721 -88.281 149.398 -88.281 V-77.681 Z M63.933 -29.944 Q52.839 -29.944 45.805 -37.006 Q38.77 -44.067 38.77 -55.142 Q38.77 -66.216 45.805 -73.251 Q52.839 -80.285 63.914 -80.285 Q74.988 -80.285 82.05 -73.251 Q89.112 -66.216 89.112 -55.142 Q89.112 -44.067 82.069 -37.006 Q75.027 -29.944 63.933 -29.944 Z M11.358 23.745 V7.585 Q11.358 1.034 14.691 -3.451 Q18.025 -7.937 22.862 -10.355 Q31.086 -14.548 42.505 -17.328 Q53.924 -20.108 63.922 -20.108 Q73.919 -20.108 85.257 -17.347 Q96.596 -14.586 104.819 -10.433 Q109.657 -7.975 113.091 -3.471 Q116.524 1.034 116.524 7.585 V23.745 H11.358 Z"/></g><g id="Regular-L" transform="matrix(1 0 0 1 1378.56 1556)"><path d="M148.35 -47.969 Q136.74 -47.969 126.017 -52.322 Q115.294 -56.676 107.07 -64.9 Q98.846 -73.124 94.412 -83.847 Q89.978 -94.57 89.978 -106.18 H99.814 Q99.814 -96.505 103.523 -87.556 Q107.231 -78.606 114.004 -71.834 Q120.776 -65.061 129.726 -61.352 Q138.675 -57.644 148.35 -57.644 V-47.969 Z M148.511 -76.832 Q142.706 -76.832 137.304 -79.009 Q131.903 -81.186 127.71 -85.379 Q123.517 -89.571 121.341 -94.973 Q119.164 -100.375 119.164 -106.18 H128.839 Q128.839 -102.31 130.29 -98.682 Q131.741 -95.054 134.483 -92.312 Q137.224 -89.571 140.933 -88.039 Q144.641 -86.507 148.511 -86.507 V-76.832 Z M64.5 -28.941 Q53.858 -28.941 47.085 -35.714 Q40.312 -42.486 40.312 -53.129 Q40.312 -63.771 47.085 -70.544 Q53.858 -77.316 64.5 -77.316 Q75.142 -77.316 81.915 -70.544 Q88.688 -63.771 88.688 -53.129 Q88.688 -42.486 81.915 -35.714 Q75.142 -28.941 64.5 -28.941 Z M12.9 22.82 V7.663 Q12.9 1.535 15.964 -2.738 Q19.027 -7.011 23.865 -9.43 Q32.089 -13.622 43.296 -16.364 Q54.503 -19.105 64.5 -19.105 Q74.498 -19.105 85.624 -16.364 Q96.75 -13.622 104.974 -9.43 Q109.811 -7.011 112.956 -2.738 Q116.1 1.535 116.1 7.663 V22.82 H12.9 Z"/></g><g id="Light-L" transform="matrix(1 0 0 1 1082.77 1556)"><path d="M146.551 -49.209 Q135.401 -49.209 125.13 -53.408 Q114.86 -57.607 107.008 -65.52 Q99.094 -73.372 94.846 -83.643 Q90.598 -93.913 90.598 -105.064 H98.077 Q98.077 -95.389 101.788 -86.469 Q105.499 -77.549 112.269 -70.778 Q119.04 -64.007 127.958 -60.298 Q136.876 -56.589 146.551 -56.589 V-49.209 Z M146.651 -78.941 Q141.466 -78.941 136.653 -80.901 Q131.84 -82.861 128.206 -86.557 Q124.51 -90.253 122.519 -95.066 Q120.528 -99.879 120.528 -105.064 H127.97 Q127.97 -101.38 129.34 -97.909 Q130.709 -94.439 133.304 -91.816 Q135.926 -89.196 139.446 -87.758 Q142.967 -86.321 146.651 -86.321 V-78.941 Z M64.81 -32.104 Q55.498 -32.104 49.456 -38.147 Q43.414 -44.189 43.414 -53.501 Q43.414 -62.875 49.456 -68.886 Q55.498 -74.897 64.81 -74.897 Q74.122 -74.897 80.164 -68.886 Q86.207 -62.875 86.207 -53.501 Q86.207 -44.189 80.164 -38.147 Q74.122 -32.104 64.81 -32.104 Z M16.435 17.114 V4.871 Q16.435 -0.574 19.158 -4.227 Q21.881 -7.88 26.346 -10.112 Q34.384 -14.119 45.001 -16.674 Q55.619 -19.229 64.81 -19.229 Q74.001 -19.229 84.538 -16.674 Q95.075 -14.119 103.175 -10.112 Q107.64 -7.88 110.413 -4.227 Q113.185 -0.574 113.185 4.871 V17.114 H16.435 Z"/></g><g id="Thin-L" transform="matrix(1 0 0 1 787.282 1556)"><path d="M144.753 -50.45 Q134.062 -50.45 124.244 -54.493 Q114.425 -58.537 106.946 -66.14 Q99.342 -73.62 95.28 -83.438 Q91.218 -93.257 91.218 -103.947 H96.341 Q96.341 -94.272 100.054 -85.382 Q103.766 -76.492 110.535 -69.722 Q117.303 -62.953 126.191 -59.244 Q135.078 -55.535 144.753 -55.535 V-50.45 Z M144.79 -81.05 Q140.225 -81.05 136.002 -82.792 Q131.778 -84.535 128.702 -87.735 Q125.502 -90.936 123.697 -95.159 Q121.893 -99.383 121.893 -103.947 H127.102 Q127.102 -100.449 128.39 -97.136 Q129.677 -93.823 132.126 -91.32 Q134.629 -88.82 137.961 -87.478 Q141.292 -86.135 144.79 -86.135 V-81.05 Z M65.12 -35.267 Q57.138 -35.267 51.826 -40.579 Q46.514 -45.891 46.514 -53.873 Q46.514 -61.979 51.826 -67.229 Q57.138 -72.479 65.12 -72.479 Q73.102 -72.479 78.414 -67.229 Q83.726 -61.979 83.726 -53.873 Q83.726 -45.891 78.414 -40.579 Q73.102 -35.267 65.12 -35.267 Z M19.97 11.408 V2.081 Q19.97 -2.682 22.352 -5.715 Q24.733 -8.748 28.827 -10.794 Q36.678 -14.615 46.707 -16.984 Q56.735 -19.353 65.12 -19.353 Q73.505 -19.353 83.453 -16.984 Q93.401 -14.615 101.377 -10.794 Q105.47 -8.748 107.87 -5.715 Q110.27 -2.682 110.27 2.081 V11.408 H19.97 Z"/></g><g id="Ultralight-L" transform="matrix(1 0 0 1 491.205 1556)"><path d="M143.674 -51.194 Q133.259 -51.194 123.712 -55.144 Q114.165 -59.095 106.909 -66.512 Q99.491 -73.769 95.541 -83.316 Q91.59 -92.863 91.59 -103.277 H95.299 Q95.299 -93.602 99.013 -84.73 Q102.727 -75.858 109.494 -69.089 Q116.261 -62.32 125.13 -58.611 Q133.999 -54.902 143.674 -54.902 V-51.194 Z M143.674 -82.315 Q139.481 -82.315 135.611 -83.927 Q131.741 -85.54 129 -88.442 Q126.097 -91.345 124.404 -95.215 Q122.711 -99.085 122.711 -103.277 H126.581 Q126.581 -99.891 127.82 -96.673 Q129.058 -93.454 131.419 -91.022 Q133.851 -88.595 137.069 -87.309 Q140.287 -86.024 143.674 -86.024 V-82.315 Z M65.306 -37.165 Q58.123 -37.165 53.249 -42.039 Q48.375 -46.913 48.375 -54.096 Q48.375 -61.441 53.249 -66.234 Q58.123 -71.027 65.306 -71.027 Q72.49 -71.027 77.364 -66.234 Q82.237 -61.441 82.237 -54.096 Q82.237 -46.913 77.364 -42.039 Q72.49 -37.165 65.306 -37.165 Z M22.091 7.985 V0.406 Q22.091 -3.947 24.268 -6.608 Q26.445 -9.269 30.315 -11.204 Q38.055 -14.912 47.73 -17.17 Q57.405 -19.427 65.306 -19.427 Q73.207 -19.427 82.802 -17.17 Q92.396 -14.912 100.297 -11.204 Q104.168 -9.269 106.344 -6.608 Q108.521 -3.947 108.521 0.406 V7.985 H22.091 Z"/></g><g id="Bold-M" transform="matrix(1 0 0 1 2281.8 1126)"><path d="M118.875 -46.855 Q109.5 -46.855 100.875 -50.355 Q92.25 -53.855 85.5 -60.605 Q78.75 -67.355 75.25 -76.009 Q71.75 -84.664 71.75 -94.105 H85.375 Q85.375 -87.355 87.938 -81.23 Q90.5 -75.105 95.249 -70.349 Q99.998 -65.593 106.053 -63.036 Q112.108 -60.48 118.875 -60.48 V-46.855 Z M118.875 -68.605 Q113.75 -68.605 109.188 -70.512 Q104.625 -72.418 101 -76.105 Q97.375 -79.73 95.438 -84.332 Q93.5 -88.935 93.5 -94.105 H107.375 Q107.375 -91.73 108.25 -89.73 Q109.125 -87.73 110.75 -86.042 Q112.375 -84.355 114.464 -83.48 Q116.554 -82.605 118.875 -82.605 V-68.605 Z M47.562 -34.605 Q37.375 -34.605 30.312 -41.667 Q23.25 -48.73 23.25 -58.855 Q23.25 -68.98 30.312 -76.042 Q37.375 -83.105 47.5 -83.105 Q57.625 -83.105 64.688 -76.042 Q71.75 -68.98 71.75 -58.855 Q71.75 -48.73 64.75 -41.667 Q57.75 -34.605 47.562 -34.605 Z M3.25 13.77 V-4.605 Q3.25 -10.605 6.562 -15.105 Q9.875 -19.605 13.625 -21.48 Q20 -24.73 28.938 -27.167 Q37.875 -29.605 47.5 -29.605 Q57.125 -29.605 66.062 -27.292 Q75 -24.98 81.375 -21.73 Q85.125 -19.855 88.438 -15.23 Q91.75 -10.605 91.75 -4.605 V13.77 H3.25 Z"/></g><g id="Semibold-M" transform="matrix(1 0 0 1 1985.97 1126)"><path d="M117.19 -46.094 Q107.978 -46.094 99.516 -49.567 Q91.054 -53.04 84.468 -59.627 Q77.88 -66.214 74.408 -74.692 Q70.935 -83.171 70.935 -92.42 H82.984 Q82.984 -85.507 85.573 -79.274 Q88.163 -73.04 93.021 -68.178 Q97.879 -63.316 104.073 -60.702 Q110.267 -58.089 117.19 -58.089 V-46.094 Z M117.19 -67.029 Q112.065 -67.029 107.503 -68.922 Q102.94 -70.815 99.315 -74.475 Q95.69 -78.1 93.78 -82.685 Q91.87 -87.27 91.87 -92.42 H104.006 Q104.006 -89.719 105.016 -87.366 Q106.027 -85.013 107.87 -83.135 Q109.712 -81.257 112.116 -80.274 Q114.519 -79.29 117.19 -79.29 V-67.029 Z M48.622 -32.703 Q39.277 -32.703 32.731 -39.249 Q26.185 -45.795 26.185 -55.105 Q26.185 -64.415 32.731 -70.961 Q39.277 -77.507 48.587 -77.507 Q57.897 -77.507 64.443 -70.961 Q70.989 -64.415 70.989 -55.105 Q70.989 -45.795 64.478 -39.249 Q57.967 -32.703 48.622 -32.703 Z M6.185 12.031 V-4.442 Q6.185 -9.627 8.981 -13.746 Q11.777 -17.866 15.527 -19.741 Q21.902 -22.991 30.432 -25.347 Q38.962 -27.703 48.587 -27.703 Q58.212 -27.703 66.742 -25.418 Q75.272 -23.132 81.647 -19.882 Q85.397 -18.007 88.193 -13.817 Q90.989 -9.627 90.989 -4.442 V12.031 H6.185 Z"/></g><g id="Medium-M" transform="matrix(1 0 0 1 1689.91 1126)"><path d="M115.927 -45.523 Q106.837 -45.523 98.497 -48.976 Q90.158 -52.428 83.693 -58.893 Q77.228 -65.358 73.776 -73.704 Q70.323 -82.051 70.323 -91.157 H81.19 Q81.19 -84.121 83.8 -77.806 Q86.41 -71.491 91.35 -66.549 Q96.29 -61.607 102.589 -58.951 Q108.887 -56.295 115.927 -56.295 V-45.523 Z M115.927 -65.847 Q110.802 -65.847 106.239 -67.729 Q101.677 -69.612 98.052 -73.252 Q94.427 -76.877 92.537 -81.449 Q90.647 -86.021 90.647 -91.157 H101.478 Q101.478 -88.211 102.591 -85.593 Q103.704 -82.975 105.709 -80.954 Q107.715 -78.934 110.354 -77.869 Q112.994 -76.803 115.927 -76.803 V-65.847 Z M49.417 -31.276 Q40.704 -31.276 34.545 -37.435 Q28.386 -43.594 28.386 -52.292 Q28.386 -60.991 34.545 -67.15 Q40.704 -73.309 49.402 -73.309 Q58.1 -73.309 64.26 -67.15 Q70.418 -60.991 70.418 -52.292 Q70.418 -43.594 64.275 -37.435 Q58.13 -31.276 49.417 -31.276 Z M8.386 10.727 V-4.32 Q8.386 -8.893 10.795 -12.727 Q13.204 -16.561 16.954 -18.436 Q23.329 -21.686 31.553 -23.981 Q39.777 -26.276 49.402 -26.276 Q59.027 -26.276 67.251 -24.011 Q75.475 -21.746 81.85 -18.496 Q85.6 -16.621 88.01 -12.757 Q90.418 -8.893 90.418 -4.32 V10.727 H8.386 Z"/></g><g id="Regular-M" transform="matrix(1 0 0 1 1394.06 1126)"><path d="M115 -45.105 Q106 -45.105 97.75 -48.542 Q89.5 -51.98 83.125 -58.355 Q76.75 -64.73 73.312 -72.98 Q69.875 -81.23 69.875 -90.23 H79.875 Q79.875 -83.105 82.5 -76.73 Q85.125 -70.355 90.125 -65.355 Q95.125 -60.355 101.5 -57.667 Q107.875 -54.98 115 -54.98 V-45.105 Z M115 -64.98 Q109.875 -64.98 105.312 -66.855 Q100.75 -68.73 97.125 -72.355 Q93.5 -75.98 91.625 -80.542 Q89.75 -85.105 89.75 -90.23 H99.625 Q99.625 -87.105 100.812 -84.292 Q102 -81.48 104.125 -79.355 Q106.25 -77.23 109.062 -76.105 Q111.875 -74.98 115 -74.98 V-64.98 Z M50 -30.23 Q41.75 -30.23 35.875 -36.105 Q30 -41.98 30 -50.23 Q30 -58.48 35.875 -64.355 Q41.75 -70.23 50 -70.23 Q58.25 -70.23 64.125 -64.355 Q70 -58.48 70 -50.23 Q70 -41.98 64.125 -36.105 Q58.25 -30.23 50 -30.23 Z M10 9.77 V-4.23 Q10 -8.355 12.125 -11.98 Q14.25 -15.605 18 -17.48 Q24.375 -20.73 32.375 -22.98 Q40.375 -25.23 50 -25.23 Q59.625 -25.23 67.625 -22.98 Q75.625 -20.73 82 -17.48 Q85.75 -15.605 87.875 -11.98 Q90 -8.355 90 -4.23 V9.77 H10 Z"/></g><g id="Light-M" transform="matrix(1 0 0 1 1098.18 1126)"><path d="M113.606 -46.067 Q104.962 -46.067 97.039 -49.384 Q89.115 -52.701 83.029 -58.788 Q76.942 -64.874 73.625 -72.798 Q70.308 -80.721 70.308 -89.364 H77.856 Q77.856 -82.143 80.53 -75.647 Q83.205 -69.151 88.299 -64.056 Q93.394 -58.961 99.889 -56.249 Q106.385 -53.538 113.606 -53.538 V-46.067 Z M113.606 -67.288 Q109.154 -67.288 105.144 -68.946 Q101.135 -70.605 97.99 -73.749 Q94.846 -76.893 93.188 -80.903 Q91.529 -84.913 91.529 -89.364 H99 Q99 -86.432 100.124 -83.741 Q101.248 -81.051 103.26 -79.018 Q105.292 -76.987 107.983 -75.911 Q110.673 -74.836 113.606 -74.836 V-67.288 Z M50.24 -32.73 Q43.022 -32.73 37.881 -37.871 Q32.741 -43.011 32.741 -50.23 Q32.741 -57.449 37.881 -62.589 Q43.022 -67.73 50.24 -67.73 Q57.459 -67.73 62.6 -62.589 Q67.74 -57.449 67.74 -50.23 Q67.74 -43.011 62.6 -37.871 Q57.459 -32.73 50.24 -32.73 Z M12.741 5.347 V-5.769 Q12.741 -9.557 14.673 -12.629 Q16.606 -15.701 20.067 -17.384 Q26.298 -20.49 34.01 -22.571 Q41.721 -24.653 50.24 -24.653 Q58.76 -24.653 66.471 -22.571 Q74.183 -20.49 80.413 -17.384 Q83.875 -15.701 85.808 -12.629 Q87.74 -9.557 87.74 -5.769 V5.347 H12.741 Z"/></g><g id="Thin-M" transform="matrix(1 0 0 1 802.565 1126)"><path d="M112.212 -47.028 Q103.924 -47.028 96.328 -50.225 Q88.731 -53.422 82.933 -59.22 Q77.135 -65.018 73.938 -72.615 Q70.74 -80.212 70.74 -88.499 H75.837 Q75.837 -81.182 78.561 -74.564 Q81.285 -67.947 86.474 -62.757 Q91.663 -57.566 98.279 -54.831 Q104.894 -52.095 112.212 -52.095 V-47.028 Z M112.212 -69.595 Q108.433 -69.595 104.976 -71.038 Q101.519 -72.48 98.856 -75.143 Q96.192 -77.807 94.75 -81.264 Q93.308 -84.72 93.308 -88.499 H98.375 Q98.375 -85.759 99.436 -83.191 Q100.496 -80.622 102.394 -78.682 Q104.335 -76.744 106.903 -75.718 Q109.471 -74.691 112.212 -74.691 V-69.595 Z M50.481 -35.23 Q44.293 -35.23 39.887 -39.636 Q35.481 -44.042 35.481 -50.23 Q35.481 -56.417 39.887 -60.824 Q44.293 -65.23 50.481 -65.23 Q56.668 -65.23 61.075 -60.824 Q65.481 -56.417 65.481 -50.23 Q65.481 -44.042 61.075 -39.636 Q56.668 -35.23 50.481 -35.23 Z M15.481 0.924 V-7.307 Q15.481 -10.759 17.221 -13.278 Q18.962 -15.797 22.135 -17.288 Q28.221 -20.249 35.644 -22.163 Q43.067 -24.076 50.481 -24.076 Q57.894 -24.076 65.317 -22.163 Q72.74 -20.249 78.827 -17.288 Q82 -15.797 83.74 -13.278 Q85.481 -10.759 85.481 -7.307 V0.924 H15.481 Z"/></g><g id="Ultralight-M" transform="matrix(1 0 0 1 506.415 1126)"><path d="M111.375 -47.605 Q103.302 -47.605 95.901 -50.73 Q88.5 -53.855 82.875 -59.48 Q77.25 -65.105 74.125 -72.506 Q71 -79.906 71 -87.98 H74.625 Q74.625 -80.605 77.379 -73.915 Q80.133 -67.224 85.379 -61.977 Q90.625 -56.73 97.312 -53.98 Q104 -51.23 111.375 -51.23 V-47.605 Z M111.375 -70.98 Q108 -70.98 104.875 -72.292 Q101.75 -73.605 99.375 -75.98 Q97 -78.355 95.688 -81.48 Q94.375 -84.605 94.375 -87.98 H98 Q98 -85.355 99.023 -82.86 Q100.045 -80.365 101.875 -78.48 Q103.76 -76.598 106.255 -75.601 Q108.75 -74.605 111.375 -74.605 V-70.98 Z M50.625 -36.73 Q45.056 -36.73 41.091 -40.696 Q37.125 -44.661 37.125 -50.23 Q37.125 -55.799 41.091 -59.764 Q45.056 -63.73 50.625 -63.73 Q56.194 -63.73 60.159 -59.764 Q64.125 -55.799 64.125 -50.23 Q64.125 -44.661 60.159 -40.696 Q56.194 -36.73 50.625 -36.73 Z M17.125 -1.73 V-8.23 Q17.125 -11.48 18.75 -13.667 Q20.375 -15.855 23.375 -17.23 Q29.375 -20.105 36.625 -21.917 Q43.875 -23.73 50.625 -23.73 Q57.375 -23.73 64.625 -21.917 Q71.875 -20.105 77.875 -17.23 Q80.875 -15.855 82.5 -13.667 Q84.125 -11.48 84.125 -8.23 V-1.73 H17.125 Z"/></g><g id="Bold-S" transform="matrix(1 0 0 1 2294.23 696)"><path d="M93.003 -36.611 Q85.113 -36.611 77.881 -39.526 Q70.649 -42.441 64.994 -48.051 Q59.383 -53.712 56.468 -60.975 Q53.553 -68.237 53.553 -76.159 H63.515 Q63.515 -70.242 65.783 -64.867 Q68.051 -59.492 72.193 -55.246 Q76.334 -51 81.681 -48.835 Q87.028 -46.67 93.003 -46.67 V-36.611 Z M93.003 -52.292 Q88.269 -52.292 83.93 -54.092 Q79.59 -55.893 76.237 -59.294 Q72.884 -62.648 71.059 -67.019 Q69.235 -71.39 69.235 -76.159 H79.492 Q79.492 -73.37 80.478 -70.967 Q81.464 -68.565 83.437 -66.642 Q85.336 -64.64 87.8 -63.595 Q90.265 -62.549 93.003 -62.549 V-52.292 Z M35.949 -29.214 Q28.503 -29.214 23.423 -34.293 Q18.344 -39.372 18.344 -46.769 Q18.344 -54.166 23.423 -59.245 Q28.503 -64.324 35.9 -64.324 Q43.296 -64.324 48.376 -59.245 Q53.455 -54.166 53.455 -46.769 Q53.455 -39.372 48.425 -34.293 Q43.395 -29.214 35.949 -29.214 Z M4.142 5.798 V-6.727 Q4.142 -10.639 6.263 -13.466 Q8.383 -16.294 10.652 -17.675 Q16.076 -20.831 22.832 -22.655 Q29.588 -24.48 35.85 -24.48 Q42.113 -24.48 48.869 -22.754 Q55.625 -21.028 61.148 -17.872 Q63.317 -16.491 65.487 -13.565 Q67.657 -10.639 67.657 -6.727 V5.798 H4.142 Z"/></g><g id="Semibold-S" transform="matrix(1 0 0 1 1998.1 696)"><path d="M91.674 -36.01 Q83.913 -36.01 76.809 -38.904 Q69.706 -41.798 64.179 -47.279 Q58.697 -52.812 55.804 -59.935 Q52.91 -67.059 52.91 -74.83 H61.628 Q61.628 -68.784 63.918 -63.323 Q66.208 -57.862 70.435 -53.533 Q74.663 -49.204 80.119 -46.994 Q85.576 -44.784 91.674 -44.784 V-36.01 Z M91.674 -51.049 Q86.94 -51.049 82.601 -52.838 Q78.261 -54.628 74.908 -58.008 Q71.555 -61.361 69.752 -65.719 Q67.948 -70.076 67.948 -74.83 H76.833 Q76.833 -71.783 77.927 -69.102 Q79.02 -66.421 81.164 -64.348 Q83.235 -62.196 85.947 -61.065 Q88.66 -59.934 91.674 -59.934 V-51.049 Z M36.785 -27.713 Q30.003 -27.713 25.332 -32.385 Q20.66 -37.057 20.66 -43.811 Q20.66 -50.564 25.332 -55.236 Q30.003 -59.908 36.757 -59.908 Q43.511 -59.908 48.183 -55.236 Q52.854 -50.564 52.854 -43.811 Q52.854 -37.057 48.21 -32.385 Q43.567 -27.713 36.785 -27.713 Z M6.458 4.426 V-6.599 Q6.458 -9.867 8.171 -12.394 Q9.884 -14.922 12.152 -16.303 Q17.577 -19.459 24.011 -21.219 Q30.445 -22.979 36.708 -22.979 Q42.97 -22.979 49.405 -21.275 Q55.839 -19.57 61.362 -16.414 Q63.532 -15.033 65.294 -12.45 Q67.056 -9.867 67.056 -6.599 V4.426 H6.458 Z"/></g><g id="Medium-S" transform="matrix(1 0 0 1 1701.85 696)"><path d="M90.677 -35.56 Q83.012 -35.56 76.005 -38.438 Q68.999 -41.315 63.568 -46.7 Q58.183 -52.136 55.305 -59.156 Q52.428 -66.175 52.428 -73.833 H60.213 Q60.213 -67.691 62.519 -62.165 Q64.825 -56.64 69.117 -52.248 Q73.409 -47.856 78.948 -45.612 Q84.487 -43.369 90.677 -43.369 V-35.56 Z M90.677 -50.116 Q85.943 -50.116 81.604 -51.897 Q77.264 -53.678 73.911 -57.043 Q70.558 -60.397 68.771 -64.744 Q66.984 -69.091 66.984 -73.833 H74.839 Q74.839 -70.593 76.013 -67.703 Q77.187 -64.813 79.46 -62.627 Q81.659 -60.363 84.557 -59.167 Q87.456 -57.972 90.677 -57.972 V-50.116 Z M37.412 -26.587 Q31.129 -26.587 26.763 -30.954 Q22.396 -35.32 22.396 -41.591 Q22.396 -47.863 26.763 -52.229 Q31.129 -56.595 37.4 -56.595 Q43.672 -56.595 48.038 -52.229 Q52.404 -47.863 52.404 -41.591 Q52.404 -35.32 48.05 -30.954 Q43.695 -26.587 37.412 -26.587 Z M8.194 3.397 V-6.502 Q8.194 -9.288 9.602 -11.59 Q11.01 -13.893 13.278 -15.273 Q18.702 -18.429 24.895 -20.141 Q31.088 -21.853 37.351 -21.853 Q43.614 -21.853 49.807 -20.165 Q56 -18.477 61.523 -15.321 Q63.692 -13.94 65.149 -11.614 Q66.606 -9.288 66.606 -6.502 V3.397 H8.194 Z"/></g><g id="Regular-S" transform="matrix(1 0 0 1 1405.73 696)"><path d="M89.946 -35.23 Q82.352 -35.23 75.416 -38.096 Q68.48 -40.961 63.12 -46.276 Q57.805 -51.641 54.94 -58.584 Q52.074 -65.528 52.074 -73.102 H59.175 Q59.175 -66.889 61.493 -61.316 Q63.81 -55.744 68.15 -51.306 Q72.489 -46.868 78.089 -44.599 Q83.688 -42.331 89.946 -42.331 V-35.23 Z M89.946 -49.432 Q85.212 -49.432 80.873 -51.207 Q76.533 -52.982 73.18 -56.336 Q69.827 -59.689 68.051 -64.028 Q66.276 -68.368 66.276 -73.102 H73.377 Q73.377 -69.721 74.61 -66.677 Q75.843 -63.634 78.21 -61.366 Q80.503 -59.018 83.538 -57.776 Q86.574 -56.533 89.946 -56.533 V-49.432 Z M37.872 -25.762 Q31.955 -25.762 27.812 -29.904 Q23.67 -34.046 23.67 -39.964 Q23.67 -45.881 27.812 -50.024 Q31.955 -54.166 37.872 -54.166 Q43.79 -54.166 47.932 -50.024 Q52.074 -45.881 52.074 -39.964 Q52.074 -34.046 47.932 -29.904 Q43.79 -25.762 37.872 -25.762 Z M9.468 2.642 V-6.431 Q9.468 -8.863 10.652 -11.001 Q11.835 -13.138 14.103 -14.519 Q19.528 -17.675 25.544 -19.351 Q31.56 -21.028 37.823 -21.028 Q44.085 -21.028 50.102 -19.351 Q56.118 -17.675 61.641 -14.519 Q63.81 -13.138 65.043 -11.001 Q66.276 -8.863 66.276 -6.431 V2.642 H9.468 Z"/></g><g id="Light-S" transform="matrix(1 0 0 1 1109.75 696)"><path d="M88.846 -35.989 Q81.533 -35.989 74.855 -38.76 Q68.176 -41.53 63.044 -46.617 Q57.957 -51.755 55.186 -58.441 Q52.415 -65.126 52.415 -72.419 H57.582 Q57.582 -66.13 59.939 -60.462 Q62.295 -54.794 66.71 -50.281 Q71.124 -45.768 76.818 -43.48 Q82.512 -41.193 88.846 -41.193 V-35.989 Z M88.846 -51.253 Q84.643 -51.253 80.74 -52.857 Q76.836 -54.462 73.863 -57.436 Q70.889 -60.41 69.284 -64.313 Q67.68 -68.216 67.68 -72.419 H72.884 Q72.884 -69.189 74.067 -66.243 Q75.249 -63.296 77.527 -61.1 Q79.747 -58.827 82.686 -57.623 Q85.625 -56.419 88.846 -56.419 V-51.253 Z M38.062 -27.735 Q32.958 -27.735 29.395 -31.297 Q25.832 -34.86 25.832 -39.964 Q25.832 -45.068 29.395 -48.631 Q32.958 -52.193 38.062 -52.193 Q43.165 -52.193 46.728 -48.631 Q50.291 -45.068 50.291 -39.964 Q50.291 -34.86 46.728 -31.297 Q43.165 -27.735 38.062 -27.735 Z M11.63 -0.848 V-7.645 Q11.63 -9.812 12.662 -11.513 Q13.694 -13.214 15.735 -14.443 Q21.045 -17.485 26.834 -19.029 Q32.622 -20.573 38.012 -20.573 Q43.402 -20.573 49.191 -19.029 Q54.98 -17.485 60.389 -14.443 Q62.331 -13.214 63.412 -11.513 Q64.493 -9.812 64.493 -7.645 V-0.848 H11.63 Z"/></g><g id="Thin-S" transform="matrix(1 0 0 1 814.015 696)"><path d="M87.746 -36.747 Q80.714 -36.747 74.293 -39.423 Q67.873 -42.099 62.968 -46.959 Q58.109 -51.869 55.433 -58.297 Q52.757 -64.724 52.757 -71.736 H55.989 Q55.989 -65.371 58.385 -59.608 Q60.781 -53.844 65.27 -49.256 Q69.758 -44.668 75.547 -42.361 Q81.336 -40.055 87.746 -40.055 V-36.747 Z M87.746 -53.074 Q84.074 -53.074 80.607 -54.507 Q77.14 -55.941 74.545 -58.536 Q71.951 -61.13 70.517 -64.597 Q69.083 -68.065 69.083 -71.736 H72.391 Q72.391 -68.658 73.523 -65.808 Q74.656 -62.957 76.844 -60.835 Q78.992 -58.635 81.834 -57.47 Q84.677 -56.305 87.746 -56.305 V-53.074 Z M38.251 -29.707 Q33.961 -29.707 30.978 -32.69 Q27.994 -35.674 27.994 -39.964 Q27.994 -44.254 30.978 -47.238 Q33.961 -50.221 38.251 -50.221 Q42.541 -50.221 45.525 -47.238 Q48.508 -44.254 48.508 -39.964 Q48.508 -35.674 45.525 -32.69 Q42.541 -29.707 38.251 -29.707 Z M13.792 -4.338 V-8.859 Q13.792 -10.76 14.672 -12.025 Q15.552 -13.29 17.366 -14.367 Q22.562 -17.295 28.123 -18.707 Q33.684 -20.118 38.202 -20.118 Q42.72 -20.118 48.281 -18.707 Q53.842 -17.295 59.137 -14.367 Q60.852 -13.29 61.781 -12.025 Q62.71 -10.76 62.71 -8.859 V-4.338 H13.792 Z"/></g><g id="Ultralight-S" transform="matrix(1 0 0 1 517.792 696)"><path d="M87.086 -37.202 Q80.223 -37.202 73.957 -39.822 Q67.691 -42.441 62.923 -47.164 Q58.2 -51.937 55.581 -58.21 Q52.962 -64.483 52.962 -71.327 H55.033 Q55.033 -64.916 57.452 -59.095 Q59.872 -53.274 64.405 -48.641 Q68.939 -44.008 74.785 -41.69 Q80.631 -39.372 87.086 -39.372 V-37.202 Z M87.086 -54.166 Q83.733 -54.166 80.527 -55.497 Q77.322 -56.829 74.955 -59.196 Q72.588 -61.563 71.257 -64.768 Q69.925 -67.973 69.925 -71.327 H72.095 Q72.095 -68.34 73.198 -65.547 Q74.3 -62.754 76.434 -60.675 Q78.538 -58.52 81.323 -57.378 Q84.108 -56.237 87.086 -56.237 V-54.166 Z M38.365 -30.89 Q34.563 -30.89 31.927 -33.526 Q29.292 -36.162 29.292 -39.964 Q29.292 -43.766 31.927 -46.402 Q34.563 -49.037 38.365 -49.037 Q42.167 -49.037 44.803 -46.402 Q47.439 -43.766 47.439 -39.964 Q47.439 -36.162 44.803 -33.526 Q42.167 -30.89 38.365 -30.89 Z M15.09 -6.431 V-9.587 Q15.09 -11.329 15.879 -12.332 Q16.668 -13.335 18.344 -14.321 Q23.473 -17.182 28.897 -18.513 Q34.322 -19.844 38.316 -19.844 Q42.31 -19.844 47.735 -18.513 Q53.159 -17.182 58.386 -14.321 Q59.964 -13.335 60.802 -12.332 Q61.641 -11.329 61.641 -9.587 V-6.431 H15.09 Z"/></g></g></svg>