<svg xmlns="http://www.w3.org/2000/svg" version="1.1" width="3300" height="2000"><g id="Notes"><style>
    text {
      font-family: monospace;
      text-anchor: middle;
    }
    text.emphasis {
      font-weight:bold;
    }
    text.lanchor {
      text-anchor: start;
    }
  </style><rect height="2200" id="artboard" fill="white" width="3300" x="0" y="0"/><line id="" style="fill:none;stroke:black;stroke-width:0.5;" x1="263" x2="3036" y1="292" y2="292"/><text class="lanchor emphasis" transform="matrix(1 0 0 1 263 322)">Weight/Scale Variations</text><text transform="matrix(1 0 0 1 559.711 322)">Ultralight</text><text transform="matrix(1 0 0 1 856.422 322)">Thin</text><text transform="matrix(1 0 0 1 1153.13 322)">Light</text><text transform="matrix(1 0 0 1 1449.84 322)">Regular</text><text transform="matrix(1 0 0 1 1746.56 322)">Medium</text><text transform="matrix(1 0 0 1 2043.27 322)">Semibold</text><text transform="matrix(1 0 0 1 2339.98 322)">Bold</text><text transform="matrix(1 0 0 1 2636.69 322)">Heavy</text><text transform="matrix(1 0 0 1 2933.4 322)">Black</text><text id="template-version" style="text-anchor: end;" transform="matrix(1 0 0 1 3036 1933)">Template v.1.0</text><text class="lanchor" transform="matrix(1 0 0 1 263 726)">Small</text><text class="lanchor" transform="matrix(1 0 0 1 263 1156)">Medium</text><text class="lanchor" transform="matrix(1 0 0 1 263 1586)">Large</text></g><g id="Guides"><g id="H-reference" style="fill:#27AAE1;stroke:none;" transform="matrix(1 0 0 1 339 696)"><path d="M 54.9316 0 L 57.666 0 L 30.5664 -70.459 L 28.0762 -70.459 L 0.976562 0 L 3.66211 0 L 12.9395 -24.4629 L 45.7031 -24.4629 Z M 29.1992 -67.0898 L 29.4434 -67.0898 L 44.8242 -26.709 L 13.8184 -26.709 Z"/></g><line id="Baseline-S" style="fill:none;stroke:#27AAE1;opacity:1;stroke-width:0.577;" x1="263" x2="3036" y1="696" y2="696"/><line id="Capline-S" style="fill:none;stroke:#27AAE1;opacity:1;stroke-width:0.577;" x1="263" x2="3036" y1="625.541" y2="625.541"/><g id="H-reference" style="fill:#27AAE1;stroke:none;" transform="matrix(1 0 0 1 339 1126)"><path d="M 54.9316 0 L 57.666 0 L 30.5664 -70.459 L 28.0762 -70.459 L 0.976562 0 L 3.66211 0 L 12.9395 -24.4629 L 45.7031 -24.4629 Z M 29.1992 -67.0898 L 29.4434 -67.0898 L 44.8242 -26.709 L 13.8184 -26.709 Z"/></g><line id="Baseline-M" style="fill:none;stroke:#27AAE1;opacity:1;stroke-width:0.577;" x1="263" x2="3036" y1="1126" y2="1126"/><line id="Capline-M" style="fill:none;stroke:#27AAE1;opacity:1;stroke-width:0.577;" x1="263" x2="3036" y1="1055.54" y2="1055.54"/><g id="H-reference" style="fill:#27AAE1;stroke:none;" transform="matrix(1 0 0 1 339 1556)"><path d="M 54.9316 0 L 57.666 0 L 30.5664 -70.459 L 28.0762 -70.459 L 0.976562 0 L 3.66211 0 L 12.9395 -24.4629 L 45.7031 -24.4629 Z M 29.1992 -67.0898 L 29.4434 -67.0898 L 44.8242 -26.709 L 13.8184 -26.709 Z"/></g><line id="Baseline-L" style="fill:none;stroke:#27AAE1;opacity:1;stroke-width:0.577;" x1="263" x2="3036" y1="1556" y2="1556"/><line id="Capline-L" style="fill:none;stroke:#27AAE1;opacity:1;stroke-width:0.577;" x1="263" x2="3036" y1="1485.54" y2="1485.54"/><rect height="119.336" id="left-margin" style="fill:darkred;stroke:none;opacity:0.4;" width="12.4512" x="1394.06" y="1030.79"/><rect height="119.336" id="right-margin" style="fill:darkgreen;stroke:none;opacity:0.4;" width="12.4512" x="1502.5112" y="1030.79"/><rect x="1406.5112" y="1045" width="96" height="96" fill="none" stroke="blue" stroke-dasharray="5"/><rect x="1394.06" y="1030.79" width="120.9024" height="119.336" fill="none" stroke="blue"/></g><g id="Symbols"><g id="Bold-L" transform="matrix(1 0 0 1 2266 1556)"><path d="M21.769 -1.529 V-63.287 Q21.769 -80.005 33.298 -85.595 Q44.828 -91.184 72.401 -91.667 L77.4 -101.826 H47.331 Q45.617 -101.826 44.497 -103.054 Q43.376 -104.283 43.376 -105.957 Q43.376 -107.631 44.518 -108.76 Q45.661 -109.889 47.407 -109.889 H107.44 Q109.139 -109.889 110.282 -108.741 Q111.424 -107.594 111.424 -105.839 Q111.424 -104.245 110.282 -103.036 Q109.139 -101.826 107.392 -101.826 H87.075 L82.399 -91.667 Q105.619 -91.184 119.406 -85.591 Q133.192 -79.998 133.192 -63.287 V-1.529 Q133.192 10.165 125.291 18.75 Q117.39 27.335 106.103 27.98 L110.295 32.173 Q113.359 35.236 111.652 39.187 Q109.946 43.138 105.706 43.138 Q104.329 43.138 103.2 42.654 Q102.071 42.17 101.254 41.192 L88.204 28.303 H66.596 L53.707 41.192 Q52.729 42.17 51.576 42.654 Q50.423 43.138 49.181 43.138 Q44.801 43.138 43.121 39.187 Q41.441 35.236 44.505 32.173 L48.697 27.98 Q37.41 27.335 29.589 18.75 Q21.769 10.165 21.769 -1.529 Z M77.893 3.47 Q81.593 3.47 84.172 0.88 Q86.752 -1.709 86.752 -5.408 Q86.752 -8.946 84.163 -11.607 Q81.573 -14.267 77.874 -14.267 Q74.175 -14.267 71.595 -11.597 Q69.015 -8.927 69.015 -5.389 Q69.015 -1.69 71.605 0.89 Q74.194 3.47 77.893 3.47 Z M36.926 -32.811 H117.713 V-57.805 H36.926 V-32.811 Z"/></g><g id="Semibold-L" transform="matrix(1 0 0 1 1970.27 1556)"><path d="M23.521 -0.758 V-63.287 Q23.521 -79.046 34.981 -84.239 Q46.44 -89.431 72.401 -89.845 L77.47 -100.214 H48.136 Q46.407 -100.214 45.277 -101.407 Q44.147 -102.6 44.147 -104.309 Q44.147 -106.019 45.29 -107.148 Q46.432 -108.276 48.179 -108.276 H106.648 Q108.368 -108.276 109.51 -107.129 Q110.653 -105.981 110.653 -104.226 Q110.653 -102.563 109.51 -101.388 Q108.368 -100.214 106.621 -100.214 H87.145 L82.399 -89.845 Q104.357 -89.431 117.863 -84.272 Q131.37 -79.112 131.37 -63.287 V-0.758 Q131.37 9.989 124.064 17.68 Q116.759 25.372 106.243 25.737 L110.435 29.929 Q113.218 32.713 111.688 36.313 Q110.156 39.913 106.249 39.913 Q105.03 39.913 104.006 39.499 Q102.983 39.085 102.166 38.177 L89.816 25.919 H64.984 L52.726 38.177 Q51.817 39.085 50.778 39.499 Q49.739 39.913 48.62 39.913 Q44.685 39.913 43.133 36.313 Q41.582 32.713 44.365 29.929 L48.557 25.737 Q38.041 25.372 30.781 17.68 Q23.521 9.989 23.521 -0.758 Z M77.893 3.19 Q81.593 3.19 84.172 0.6 Q86.752 -1.989 86.752 -5.689 Q86.752 -9.297 84.163 -11.922 Q81.573 -14.548 77.874 -14.548 Q74.175 -14.548 71.595 -11.913 Q69.015 -9.278 69.015 -5.67 Q69.015 -1.97 71.605 0.61 Q74.194 3.19 77.893 3.19 Z M36.295 -33.442 H118.343 V-58.436 H36.295 V-33.442 Z"/></g><g id="Medium-L" transform="matrix(1 0 0 1 1674.31 1556)"><path d="M24.836 -0.179 V-63.287 Q24.836 -78.327 36.243 -83.222 Q47.649 -88.116 72.401 -88.478 L77.523 -99.004 H48.739 Q47 -99.004 45.863 -100.171 Q44.726 -101.338 44.726 -103.074 Q44.726 -104.809 45.868 -105.938 Q47.01 -107.067 48.757 -107.067 H106.054 Q107.79 -107.067 108.932 -105.919 Q110.074 -104.772 110.074 -103.017 Q110.074 -101.3 108.932 -100.152 Q107.79 -99.004 106.043 -99.004 H87.198 L82.399 -88.478 Q103.41 -88.116 116.706 -83.282 Q130.003 -78.448 130.003 -63.287 V-0.179 Q130.003 9.856 123.144 16.878 Q116.286 23.9 106.348 24.054 L110.54 28.246 Q113.113 30.819 111.714 34.157 Q110.314 37.494 106.656 37.494 Q105.556 37.494 104.611 37.133 Q103.666 36.772 102.849 35.916 L91.026 24.131 H63.774 L51.989 35.916 Q51.134 36.772 50.18 37.133 Q49.227 37.494 48.2 37.494 Q44.599 37.494 43.143 34.157 Q41.687 30.819 44.26 28.246 L48.452 24.054 Q38.514 23.9 31.675 16.878 Q24.836 9.856 24.836 -0.179 Z M77.893 2.979 Q81.593 2.979 84.172 0.39 Q86.752 -2.2 86.752 -5.899 Q86.752 -9.56 84.163 -12.159 Q81.573 -14.758 77.874 -14.758 Q74.175 -14.758 71.595 -12.149 Q69.015 -9.541 69.015 -5.88 Q69.015 -2.181 71.605 0.399 Q74.194 2.979 77.893 2.979 Z M35.822 -33.915 H118.817 V-58.909 H35.822 V-33.915 Z"/></g><g id="Regular-L" transform="matrix(1 0 0 1 1378.56 1556)"><path d="M25.8 0.245 V-63.287 Q25.8 -77.8 37.168 -82.476 Q48.536 -87.152 72.401 -87.475 L77.561 -98.117 H49.181 Q47.434 -98.117 46.292 -99.265 Q45.15 -100.413 45.15 -102.167 Q45.15 -103.922 46.292 -105.051 Q47.434 -106.18 49.181 -106.18 H105.619 Q107.366 -106.18 108.508 -105.033 Q109.65 -103.885 109.65 -102.13 Q109.65 -100.375 108.508 -99.246 Q107.366 -98.117 105.619 -98.117 H87.236 L82.399 -87.475 Q102.716 -87.152 115.858 -82.557 Q129 -77.961 129 -63.287 V0.245 Q129 9.759 122.469 16.289 Q115.939 22.82 106.425 22.82 L110.618 27.013 Q113.036 29.431 111.733 32.576 Q110.43 35.72 106.955 35.72 Q105.941 35.72 105.054 35.398 Q104.168 35.075 103.35 34.258 L91.913 22.82 H62.888 L51.45 34.258 Q50.633 35.075 49.742 35.398 Q48.851 35.72 47.891 35.72 Q44.536 35.72 43.15 32.576 Q41.764 29.431 44.183 27.013 L48.375 22.82 Q38.861 22.82 32.331 16.289 Q25.8 9.759 25.8 0.245 Z M77.893 2.825 Q81.593 2.825 84.172 0.235 Q86.752 -2.354 86.752 -6.053 Q86.752 -9.752 84.163 -12.332 Q81.573 -14.912 77.874 -14.912 Q74.175 -14.912 71.595 -12.323 Q69.015 -9.733 69.015 -6.034 Q69.015 -2.335 71.605 0.245 Q74.194 2.825 77.893 2.825 Z M35.475 -34.262 H119.164 V-59.256 H35.475 V-34.262 Z"/></g><g id="Light-L" transform="matrix(1 0 0 1 1082.77 1556)"><path d="M29.025 -0.995 V-62.667 Q29.025 -75.629 40.145 -79.716 Q51.265 -83.803 73.518 -84.064 L78.554 -94.458 H48.685 Q47.261 -94.458 46.329 -95.394 Q45.398 -96.33 45.398 -97.761 Q45.398 -99.165 46.329 -100.068 Q47.261 -100.97 48.685 -100.97 H106.177 Q107.574 -100.97 108.488 -100.043 Q109.402 -99.116 109.402 -97.699 Q109.402 -96.282 108.488 -95.37 Q107.574 -94.458 106.177 -94.458 H86.12 L81.282 -84.052 Q100.794 -83.803 113.284 -79.74 Q125.775 -75.677 125.775 -62.667 V-0.995 Q125.775 7.65 119.802 13.622 Q113.83 19.595 105.185 19.595 L111.362 25.772 Q113.222 27.633 112.215 30.064 Q111.208 32.495 108.523 32.495 Q107.74 32.495 107.037 32.234 Q106.335 31.974 105.711 31.347 L93.959 19.595 H60.841 L49.089 31.347 Q48.456 31.974 47.739 32.234 Q47.021 32.495 46.288 32.495 Q43.677 32.495 42.628 30.064 Q41.578 27.633 43.438 25.772 L49.615 19.595 Q40.97 19.595 34.998 13.622 Q29.025 7.65 29.025 -0.995 Z M77.795 1.771 Q81.056 1.771 83.315 -0.554 Q85.574 -2.879 85.574 -6.141 Q85.574 -9.402 83.291 -11.661 Q81.008 -13.92 77.747 -13.92 Q74.485 -13.92 72.184 -11.637 Q69.883 -9.354 69.883 -6.093 Q69.883 -2.831 72.208 -0.53 Q74.533 1.771 77.795 1.771 Z M36.343 -31.285 H118.358 V-59.504 H36.343 V-31.285 Z"/></g><g id="Thin-L" transform="matrix(1 0 0 1 787.282 1556)"><path d="M32.25 -2.236 V-62.047 Q32.25 -73.459 43.122 -76.957 Q53.994 -80.454 74.634 -80.653 L79.546 -90.799 H48.189 Q47.087 -90.799 46.367 -91.523 Q45.646 -92.248 45.646 -93.355 Q45.646 -94.409 46.367 -95.085 Q47.087 -95.761 48.189 -95.761 H106.735 Q107.783 -95.761 108.469 -95.055 Q109.154 -94.348 109.154 -93.269 Q109.154 -92.188 108.469 -91.494 Q107.783 -90.799 106.735 -90.799 H85.004 L80.166 -80.629 Q98.871 -80.454 110.711 -76.923 Q122.55 -73.392 122.55 -62.047 V-2.236 Q122.55 5.541 117.136 10.956 Q111.721 16.37 103.944 16.37 L112.106 24.532 Q113.408 25.834 112.698 27.552 Q111.987 29.27 110.091 29.27 Q109.538 29.27 109.02 29.072 Q108.502 28.873 108.072 28.436 L96.006 16.37 H58.794 L46.728 28.436 Q46.281 28.873 45.736 29.072 Q45.192 29.27 44.685 29.27 Q42.819 29.27 42.106 27.552 Q41.392 25.834 42.694 24.532 L50.856 16.37 Q43.079 16.37 37.664 10.956 Q32.25 5.541 32.25 -2.236 Z M77.696 0.716 Q80.52 0.716 82.458 -1.344 Q84.396 -3.405 84.396 -6.228 Q84.396 -9.052 82.419 -10.99 Q80.443 -12.928 77.619 -12.928 Q74.795 -12.928 72.773 -10.951 Q70.752 -8.975 70.752 -6.151 Q70.752 -3.327 72.812 -1.305 Q74.873 0.716 77.696 0.716 Z M37.212 -28.309 H117.551 V-59.752 H37.212 V-28.309 Z"/></g><g id="Ultralight-L" transform="matrix(1 0 0 1 491.205 1556)"><path d="M34.185 -2.98 V-61.675 Q34.185 -72.156 44.908 -75.301 Q55.631 -78.445 75.304 -78.606 L80.141 -88.604 H47.891 Q46.983 -88.604 46.389 -89.201 Q45.795 -89.798 45.795 -90.711 Q45.795 -91.555 46.389 -92.095 Q46.983 -92.635 47.891 -92.635 H107.07 Q107.909 -92.635 108.457 -92.061 Q109.005 -91.488 109.005 -90.61 Q109.005 -89.732 108.457 -89.168 Q107.909 -88.604 107.07 -88.604 H84.334 L79.496 -78.576 Q97.718 -78.445 109.166 -75.233 Q120.615 -72.022 120.615 -61.675 V-2.98 Q120.615 4.276 115.536 9.356 Q110.456 14.435 103.2 14.435 L112.553 23.788 Q113.52 24.755 112.987 26.045 Q112.454 27.335 111.032 27.335 Q110.618 27.335 110.21 27.174 Q109.802 27.013 109.489 26.69 L97.234 14.435 H57.566 L45.311 26.69 Q44.975 27.013 44.535 27.174 Q44.094 27.335 43.724 27.335 Q42.305 27.335 41.792 26.045 Q41.28 24.755 42.248 23.788 L51.6 14.435 Q44.344 14.435 39.264 9.356 Q34.185 4.276 34.185 -2.98 Z M77.637 0.084 Q80.198 0.084 81.943 -1.818 Q83.689 -3.72 83.689 -6.281 Q83.689 -8.842 81.896 -10.587 Q80.103 -12.332 77.542 -12.332 Q74.981 -12.332 73.127 -10.54 Q71.273 -8.747 71.273 -6.186 Q71.273 -3.625 73.174 -1.771 Q75.076 0.084 77.637 0.084 Z M37.733 -26.522 H117.068 V-59.901 H37.733 V-26.522 Z"/></g><g id="Bold-M" transform="matrix(1 0 0 1 2281.8 1126)"><path d="M15.75 -9.605 V-55.23 Q15.75 -69.605 26.562 -74.23 Q37.375 -78.855 55 -79.48 L58.5 -86.605 H36.875 Q35.25 -86.605 34.188 -87.667 Q33.125 -88.73 33.125 -90.355 Q33.125 -91.98 34.188 -93.042 Q35.25 -94.105 36.875 -94.105 H83.125 Q84.75 -94.105 85.812 -93.042 Q86.875 -91.98 86.875 -90.355 Q86.875 -88.73 85.812 -87.667 Q84.75 -86.605 83.125 -86.605 H68.5 L65 -79.48 Q82.875 -78.855 93.562 -74.23 Q104.25 -69.605 104.25 -55.23 V-9.605 Q104.25 0.145 97.812 7.27 Q91.375 14.395 82.125 15.145 L84.625 17.645 Q87.375 20.395 85.938 23.895 Q84.5 27.395 80.532 27.395 Q79.375 27.395 78.375 26.958 Q77.375 26.52 76.5 25.77 L66.125 15.52 H53.875 L43.5 25.77 Q42.625 26.52 41.609 26.958 Q40.594 27.395 39.5 27.395 Q35.625 27.395 34.125 23.895 Q32.625 20.395 35.375 17.645 L37.875 15.145 Q28.625 14.395 22.188 7.27 Q15.75 0.145 15.75 -9.605 Z M60 -4.48 Q63.125 -4.48 65.312 -6.667 Q67.5 -8.855 67.5 -11.98 Q67.5 -15.105 65.312 -17.292 Q63.125 -19.48 60 -19.48 Q56.875 -19.48 54.688 -17.292 Q52.5 -15.105 52.5 -11.98 Q52.5 -8.855 54.688 -6.667 Q56.875 -4.48 60 -4.48 Z M31.5 -33.73 H88.5 V-48.73 H31.5 V-33.73 Z"/></g><g id="Semibold-M" transform="matrix(1 0 0 1 1985.97 1126)"><path d="M17.598 -8.79 V-55.23 Q17.598 -68.627 28.329 -72.871 Q39.06 -77.116 55 -77.632 L58.609 -84.92 H37.69 Q36.065 -84.92 35.003 -85.983 Q33.94 -87.045 33.94 -88.67 Q33.94 -90.295 35.003 -91.358 Q36.065 -92.42 37.69 -92.42 H82.31 Q83.935 -92.42 84.997 -91.358 Q86.06 -90.295 86.06 -88.67 Q86.06 -87.045 84.997 -85.983 Q83.935 -84.92 82.31 -84.92 H68.609 L65 -77.632 Q81.571 -77.116 91.987 -72.899 Q102.402 -68.681 102.402 -55.23 V-8.79 Q102.402 -0.072 96.563 6.156 Q90.723 12.384 82.288 12.808 L84.788 15.308 Q87.266 17.787 85.965 20.933 Q84.663 24.08 81.116 24.08 Q80.082 24.08 79.163 23.697 Q78.245 23.314 77.478 22.618 L67.81 13.02 H52.19 L42.522 22.618 Q41.755 23.314 40.828 23.697 Q39.901 24.08 38.902 24.08 Q35.462 24.08 34.098 20.933 Q32.734 17.787 35.212 15.308 L37.712 12.808 Q29.277 12.384 23.437 6.156 Q17.598 -0.072 17.598 -8.79 Z M60 -4.806 Q63.125 -4.806 65.312 -6.994 Q67.5 -9.181 67.5 -12.306 Q67.5 -15.431 65.312 -17.619 Q63.125 -19.806 60 -19.806 Q56.875 -19.806 54.688 -17.619 Q52.5 -15.431 52.5 -12.306 Q52.5 -9.181 54.688 -6.994 Q56.875 -4.806 60 -4.806 Z M30.848 -34.382 H89.152 V-49.382 H30.848 V-34.382 Z"/></g><g id="Medium-M" transform="matrix(1 0 0 1 1689.91 1126)"><path d="M18.984 -8.178 V-55.23 Q18.984 -67.893 29.654 -71.852 Q40.323 -75.811 55 -76.246 L58.69 -83.657 H38.302 Q36.677 -83.657 35.614 -84.719 Q34.552 -85.782 34.552 -87.407 Q34.552 -89.032 35.614 -90.094 Q36.677 -91.157 38.302 -91.157 H81.698 Q83.323 -91.157 84.386 -90.094 Q85.448 -89.032 85.448 -87.407 Q85.448 -85.782 84.386 -84.719 Q83.323 -83.657 81.698 -83.657 H68.69 L65 -76.246 Q80.592 -75.811 90.804 -71.9 Q101.016 -67.988 101.016 -55.23 V-8.178 Q101.016 -0.235 95.625 5.32 Q90.234 10.876 82.41 11.055 L84.91 13.555 Q87.185 15.83 85.985 18.712 Q84.785 21.593 81.554 21.593 Q80.611 21.593 79.754 21.251 Q78.897 20.909 78.212 20.254 L69.073 11.145 H50.927 L41.788 20.254 Q41.103 20.909 40.242 21.251 Q39.381 21.593 38.454 21.593 Q35.34 21.593 34.078 18.712 Q32.815 15.83 35.09 13.555 L37.59 11.055 Q29.766 10.876 24.375 5.32 Q18.984 -0.235 18.984 -8.178 Z M60 -5.051 Q63.125 -5.051 65.312 -7.238 Q67.5 -9.426 67.5 -12.551 Q67.5 -15.676 65.312 -17.863 Q63.125 -20.051 60 -20.051 Q56.875 -20.051 54.688 -17.863 Q52.5 -15.676 52.5 -12.551 Q52.5 -9.426 54.688 -7.238 Q56.875 -5.051 60 -5.051 Z M30.359 -34.871 H89.641 V-49.871 H30.359 V-34.871 Z"/></g><g id="Regular-M" transform="matrix(1 0 0 1 1394.06 1126)"><path d="M20 -7.73 V-55.23 Q20 -67.355 30.625 -71.105 Q41.25 -74.855 55 -75.23 L58.75 -82.73 H38.75 Q37.125 -82.73 36.062 -83.792 Q35 -84.855 35 -86.48 Q35 -88.105 36.062 -89.167 Q37.125 -90.23 38.75 -90.23 H81.25 Q82.875 -90.23 83.938 -89.167 Q85 -88.105 85 -86.48 Q85 -84.855 83.938 -83.792 Q82.875 -82.73 81.25 -82.73 H68.75 L65 -75.23 Q79.875 -74.855 89.938 -71.167 Q100 -67.48 100 -55.23 V-7.73 Q100 -0.355 94.938 4.708 Q89.875 9.77 82.5 9.77 L85 12.27 Q87.125 14.395 86 17.083 Q84.875 19.77 81.875 19.77 Q81 19.77 80.188 19.458 Q79.375 19.145 78.75 18.52 L70 9.77 H50 L41.25 18.52 Q40.625 19.145 39.812 19.458 Q39 19.77 38.125 19.77 Q35.25 19.77 34.062 17.083 Q32.875 14.395 35 12.27 L37.5 9.77 Q30.125 9.77 25.062 4.708 Q20 -0.355 20 -7.73 Z M60 -5.23 Q63.125 -5.23 65.312 -7.417 Q67.5 -9.605 67.5 -12.73 Q67.5 -15.855 65.312 -18.042 Q63.125 -20.23 60 -20.23 Q56.875 -20.23 54.688 -18.042 Q52.5 -15.855 52.5 -12.73 Q52.5 -9.605 54.688 -7.417 Q56.875 -5.23 60 -5.23 Z M30 -35.23 H90 V-50.23 H30 V-35.23 Z"/></g><g id="Light-M" transform="matrix(1 0 0 1 1098.18 1126)"><path d="M22.5 -8.692 V-55.23 Q22.5 -65.864 32.452 -69.134 Q42.404 -72.403 56.154 -72.73 L59.904 -80.23 H38.173 Q36.881 -80.23 36.037 -81.074 Q35.192 -81.918 35.192 -83.208 Q35.192 -84.499 36.037 -85.345 Q36.881 -86.191 38.173 -86.191 H81.827 Q83.119 -86.191 83.963 -85.347 Q84.808 -84.503 84.808 -83.213 Q84.808 -81.922 83.963 -81.076 Q83.119 -80.23 81.827 -80.23 H67.596 L63.846 -72.73 Q78.288 -72.403 87.894 -69.176 Q97.5 -65.949 97.5 -55.23 V-8.692 Q97.5 -1.99 92.87 2.64 Q88.24 7.27 81.538 7.27 L85.769 11.501 Q87.413 13.145 86.545 15.207 Q85.676 17.27 83.359 17.27 Q82.683 17.27 82.061 17.029 Q81.44 16.789 80.962 16.308 L71.923 7.27 H48.077 L39.038 16.308 Q38.553 16.789 37.923 17.029 Q37.293 17.27 36.614 17.27 Q34.385 17.27 33.486 15.207 Q32.587 13.145 34.231 11.501 L38.462 7.27 Q31.76 7.27 27.13 2.64 Q22.5 -1.99 22.5 -8.692 Z M60.011 -6.192 Q62.74 -6.192 64.639 -8.102 Q66.538 -10.012 66.538 -12.741 Q66.538 -15.47 64.628 -17.369 Q62.718 -19.268 59.989 -19.268 Q57.26 -19.268 55.361 -17.358 Q53.462 -15.448 53.462 -12.719 Q53.462 -9.99 55.372 -8.091 Q57.282 -6.192 60.011 -6.192 Z M30 -32.73 H90 V-51.384 H30 V-32.73 Z"/></g><g id="Thin-M" transform="matrix(1 0 0 1 802.565 1126)"><path d="M25 -9.653 V-55.23 Q25 -64.374 34.279 -67.163 Q43.558 -69.951 57.308 -70.23 L61.058 -77.73 H37.596 Q36.638 -77.73 36.011 -78.355 Q35.385 -78.981 35.385 -79.937 Q35.385 -80.893 36.011 -81.523 Q36.638 -82.153 37.596 -82.153 H82.404 Q83.362 -82.153 83.989 -81.528 Q84.615 -80.902 84.615 -79.946 Q84.615 -78.99 83.989 -78.36 Q83.362 -77.73 82.404 -77.73 H66.442 L62.692 -70.23 Q76.702 -69.951 85.851 -67.185 Q95 -64.419 95 -55.23 V-9.653 Q95 -3.624 90.803 0.573 Q86.606 4.77 80.577 4.77 L86.538 10.732 Q87.702 11.895 87.089 13.333 Q86.476 14.77 84.842 14.77 Q84.365 14.77 83.935 14.602 Q83.504 14.434 83.173 14.097 L73.846 4.77 H46.154 L36.827 14.097 Q36.482 14.434 36.035 14.602 Q35.587 14.77 35.104 14.77 Q33.519 14.77 32.909 13.333 Q32.298 11.895 33.462 10.732 L39.423 4.77 Q33.394 4.77 29.197 0.573 Q25 -3.624 25 -9.653 Z M60.023 -7.153 Q62.356 -7.153 63.966 -8.786 Q65.577 -10.419 65.577 -12.753 Q65.577 -15.086 63.944 -16.696 Q62.31 -18.307 59.977 -18.307 Q57.644 -18.307 56.034 -16.674 Q54.423 -15.04 54.423 -12.707 Q54.423 -10.374 56.056 -8.764 Q57.69 -7.153 60.023 -7.153 Z M30 -30.23 H90 V-52.538 H30 V-30.23 Z"/></g><g id="Ultralight-M" transform="matrix(1 0 0 1 506.415 1126)"><path d="M26.5 -10.23 V-55.23 Q26.5 -63.48 35.375 -65.98 Q44.25 -68.48 58 -68.73 L61.75 -76.23 H37.25 Q36.492 -76.23 35.996 -76.724 Q35.5 -77.218 35.5 -77.974 Q35.5 -78.73 35.996 -79.23 Q36.492 -79.73 37.25 -79.73 H82.75 Q83.508 -79.73 84.004 -79.236 Q84.5 -78.742 84.5 -77.986 Q84.5 -77.23 84.004 -76.73 Q83.508 -76.23 82.75 -76.23 H65.75 L62 -68.73 Q75.75 -68.48 84.625 -65.99 Q93.5 -63.501 93.5 -55.23 V-10.23 Q93.5 -4.605 89.562 -0.667 Q85.625 3.27 80 3.27 L87 10.27 Q87.875 11.145 87.416 12.208 Q86.957 13.27 85.732 13.27 Q85.375 13.27 85.059 13.145 Q84.743 13.02 84.5 12.77 L75 3.27 H45 L35.5 12.77 Q35.24 13.02 34.901 13.145 Q34.562 13.27 34.198 13.27 Q33 13.27 32.562 12.208 Q32.125 11.145 33 10.27 L40 3.27 Q34.375 3.27 30.438 -0.667 Q26.5 -4.605 26.5 -10.23 Z M60.029 -7.73 Q62.125 -7.73 63.562 -9.197 Q65 -10.664 65 -12.759 Q65 -14.855 63.533 -16.292 Q62.066 -17.73 59.971 -17.73 Q57.875 -17.73 56.438 -16.263 Q55 -14.796 55 -12.701 Q55 -10.605 56.467 -9.167 Q57.934 -7.73 60.029 -7.73 Z M30 -28.73 H90 V-53.23 H30 V-28.73 Z"/></g><g id="Bold-S" transform="matrix(1 0 0 1 2294.23 696)"><path d="M15.583 -15.406 V-49.432 Q15.583 -57.815 21.747 -62.303 Q27.911 -66.79 45.072 -66.987 L47.241 -71.425 H29.292 Q28.266 -71.425 27.595 -72.096 Q26.925 -72.767 26.925 -73.792 Q26.925 -74.818 27.595 -75.489 Q28.266 -76.159 29.292 -76.159 H65.388 Q66.414 -76.159 67.085 -75.489 Q67.755 -74.818 67.755 -73.792 Q67.755 -72.767 67.085 -72.096 Q66.414 -71.425 65.388 -71.425 H52.567 L50.397 -66.987 Q67.065 -66.79 73.081 -62.204 Q79.097 -57.618 79.097 -49.432 V-15.406 Q79.097 -8.207 74.561 -2.634 Q70.024 2.938 63.317 4.319 L64.599 5.601 Q66.769 7.798 65.635 10.595 Q64.501 13.392 61.37 13.392 Q60.358 13.392 59.57 13.022 Q58.781 12.652 58.09 12.011 L50.792 4.812 H43.888 L36.59 12.011 Q35.9 12.652 35.098 13.022 Q34.297 13.392 33.335 13.392 Q30.179 13.392 29.045 10.532 Q27.911 7.672 30.081 5.502 L31.264 4.319 Q24.558 2.938 20.07 -2.634 Q15.583 -8.207 15.583 -15.406 Z M47.34 -10.968 Q49.312 -10.968 50.693 -12.349 Q52.074 -13.73 52.074 -15.702 Q52.074 -17.675 50.693 -19.055 Q49.312 -20.436 47.34 -20.436 Q45.367 -20.436 43.987 -19.055 Q42.606 -17.675 42.606 -15.702 Q42.606 -13.73 43.987 -12.349 Q45.367 -10.968 47.34 -10.968 Z M27.221 -31.679 H67.46 V-43.514 H27.221 V-31.679 Z"/></g><g id="Semibold-S" transform="matrix(1 0 0 1 1998.1 696)"><path d="M17.041 -14.763 V-49.432 Q17.041 -57.043 23.14 -61.231 Q29.24 -65.418 45.072 -65.529 L47.327 -70.096 H29.935 Q28.909 -70.096 28.238 -70.767 Q27.568 -71.438 27.568 -72.463 Q27.568 -73.489 28.238 -74.16 Q28.909 -74.83 29.935 -74.83 H64.745 Q65.771 -74.83 66.442 -74.16 Q67.112 -73.489 67.112 -72.463 Q67.112 -71.438 66.442 -70.767 Q65.771 -70.096 64.745 -70.096 H52.653 L50.397 -65.529 Q66.036 -65.418 71.838 -61.153 Q77.639 -56.889 77.639 -49.432 V-14.763 Q77.639 -8.378 73.574 -3.513 Q69.509 1.351 63.446 2.475 L64.728 3.757 Q66.683 5.74 65.656 8.258 Q64.629 10.777 61.831 10.777 Q60.916 10.777 60.191 10.45 Q59.467 10.123 58.862 9.524 L52.121 2.839 H42.559 L35.818 9.524 Q35.213 10.123 34.482 10.45 Q33.75 10.777 32.864 10.777 Q30.051 10.777 29.024 8.195 Q27.997 5.614 29.952 3.658 L31.136 2.475 Q25.072 1.351 21.056 -3.513 Q17.041 -8.378 17.041 -14.763 Z M47.34 -11.226 Q49.312 -11.226 50.693 -12.606 Q52.074 -13.987 52.074 -15.96 Q52.074 -17.932 50.693 -19.313 Q49.312 -20.694 47.34 -20.694 Q45.367 -20.694 43.987 -19.313 Q42.606 -17.932 42.606 -15.96 Q42.606 -13.987 43.987 -12.606 Q45.367 -11.226 47.34 -11.226 Z M26.706 -32.194 H67.974 V-44.029 H26.706 V-32.194 Z"/></g><g id="Medium-S" transform="matrix(1 0 0 1 1701.85 696)"><path d="M18.134 -14.281 V-49.432 Q18.134 -56.464 24.186 -60.427 Q30.237 -64.389 45.072 -64.436 L47.391 -69.099 H30.417 Q29.392 -69.099 28.721 -69.77 Q28.05 -70.44 28.05 -71.466 Q28.05 -72.492 28.721 -73.162 Q29.392 -73.833 30.417 -73.833 H64.263 Q65.288 -73.833 65.959 -73.162 Q66.63 -72.492 66.63 -71.466 Q66.63 -70.44 65.959 -69.77 Q65.288 -69.099 64.263 -69.099 H52.717 L50.397 -64.436 Q65.264 -64.389 70.905 -60.365 Q76.546 -56.342 76.546 -49.432 V-14.281 Q76.546 -8.507 72.835 -4.173 Q69.123 0.161 63.542 1.092 L64.825 2.374 Q66.619 4.197 65.672 6.506 Q64.726 8.815 62.176 8.815 Q61.334 8.815 60.658 8.52 Q59.981 8.225 59.441 7.659 L53.118 1.36 H41.562 L35.239 7.659 Q34.699 8.225 34.02 8.52 Q33.34 8.815 32.51 8.815 Q29.954 8.815 29.008 6.442 Q28.061 4.07 29.855 2.275 L31.039 1.092 Q25.458 0.161 21.796 -4.173 Q18.134 -8.507 18.134 -14.281 Z M47.34 -11.418 Q49.312 -11.418 50.693 -12.799 Q52.074 -14.18 52.074 -16.152 Q52.074 -18.125 50.693 -19.506 Q49.312 -20.886 47.34 -20.886 Q45.367 -20.886 43.987 -19.506 Q42.606 -18.125 42.606 -16.152 Q42.606 -14.18 43.987 -12.799 Q45.367 -11.418 47.34 -11.418 Z M26.32 -32.58 H68.36 V-44.415 H26.32 V-32.58 Z"/></g><g id="Regular-S" transform="matrix(1 0 0 1 1405.73 696)"><path d="M18.936 -13.927 V-49.432 Q18.936 -56.04 24.952 -59.837 Q30.968 -63.634 45.072 -63.634 L47.439 -68.368 H30.771 Q29.745 -68.368 29.075 -69.039 Q28.404 -69.709 28.404 -70.735 Q28.404 -71.761 29.075 -72.431 Q29.745 -73.102 30.771 -73.102 H63.909 Q64.935 -73.102 65.605 -72.431 Q66.276 -71.761 66.276 -70.735 Q66.276 -69.709 65.605 -69.039 Q64.935 -68.368 63.909 -68.368 H52.764 L50.397 -63.634 Q64.698 -63.634 70.221 -59.788 Q75.744 -55.941 75.744 -49.432 V-13.927 Q75.744 -8.601 72.292 -4.656 Q68.84 -0.711 63.613 0.078 L64.895 1.36 Q66.572 3.064 65.684 5.22 Q64.797 7.376 62.43 7.376 Q61.641 7.376 61 7.105 Q60.358 6.834 59.865 6.291 L53.849 0.275 H40.831 L34.815 6.291 Q34.322 6.834 33.68 7.105 Q33.039 7.376 32.25 7.376 Q29.883 7.376 28.996 5.157 Q28.108 2.938 29.785 1.261 L30.968 0.078 Q25.741 -0.711 22.339 -4.656 Q18.936 -8.601 18.936 -13.927 Z M47.34 -11.56 Q49.312 -11.56 50.693 -12.941 Q52.074 -14.321 52.074 -16.294 Q52.074 -18.266 50.693 -19.647 Q49.312 -21.028 47.34 -21.028 Q45.367 -21.028 43.987 -19.647 Q42.606 -18.266 42.606 -16.294 Q42.606 -14.321 43.987 -12.941 Q45.367 -11.56 47.34 -11.56 Z M26.037 -32.863 H68.643 V-44.698 H26.037 V-32.863 Z"/></g><g id="Light-S" transform="matrix(1 0 0 1 1109.75 696)"><path d="M20.909 -14.686 V-49.432 Q20.909 -54.864 26.394 -58.282 Q31.879 -61.699 45.982 -61.661 L48.349 -66.395 H30.316 Q29.553 -66.395 29.054 -66.894 Q28.556 -67.392 28.556 -68.154 Q28.556 -68.916 29.054 -69.415 Q29.553 -69.915 30.316 -69.915 H64.364 Q65.127 -69.915 65.626 -69.417 Q66.124 -68.919 66.124 -68.157 Q66.124 -67.395 65.626 -66.895 Q65.127 -66.395 64.364 -66.395 H51.854 L49.487 -61.661 Q63.446 -61.699 68.609 -58.216 Q73.771 -54.734 73.771 -49.432 V-14.686 Q73.771 -9.891 70.661 -6.288 Q67.55 -2.684 62.854 -1.895 L65.502 0.753 Q66.8 2.078 66.114 3.741 Q65.428 5.403 63.6 5.403 Q62.968 5.403 62.478 5.189 Q61.988 4.975 61.61 4.546 L55.367 -1.698 H39.313 L33.07 4.546 Q32.687 4.975 32.19 5.189 Q31.693 5.403 31.059 5.403 Q29.2 5.403 28.54 3.677 Q27.88 1.952 29.178 0.654 L31.727 -1.895 Q27.031 -2.684 23.97 -6.288 Q20.909 -9.891 20.909 -14.686 Z M47.349 -12.319 Q49.009 -12.319 50.162 -13.481 Q51.315 -14.643 51.315 -16.303 Q51.315 -17.963 50.153 -19.116 Q48.991 -20.269 47.331 -20.269 Q45.671 -20.269 44.518 -19.107 Q43.365 -17.945 43.365 -16.285 Q43.365 -14.625 44.527 -13.472 Q45.689 -12.319 47.349 -12.319 Z M26.037 -30.89 H68.643 V-45.608 H26.037 V-30.89 Z"/></g><g id="Thin-S" transform="matrix(1 0 0 1 814.015 696)"><path d="M22.881 -15.444 V-49.432 Q22.881 -53.688 27.835 -56.727 Q32.789 -59.765 46.892 -59.689 L49.259 -64.423 H29.861 Q29.361 -64.423 29.034 -64.749 Q28.707 -65.075 28.707 -65.573 Q28.707 -66.071 29.034 -66.4 Q29.361 -66.729 29.861 -66.729 H64.819 Q65.319 -66.729 65.646 -66.404 Q65.973 -66.078 65.973 -65.58 Q65.973 -65.082 65.646 -64.752 Q65.319 -64.423 64.819 -64.423 H50.944 L48.577 -59.689 Q62.195 -59.765 66.997 -56.646 Q71.799 -53.526 71.799 -49.432 V-15.444 Q71.799 -11.181 69.03 -7.918 Q66.261 -4.656 62.096 -3.867 L66.109 0.146 Q67.027 1.092 66.544 2.262 Q66.06 3.431 64.771 3.431 Q64.296 3.431 63.956 3.274 Q63.616 3.116 63.355 2.801 L56.884 -3.67 H37.796 L31.325 2.801 Q31.053 3.116 30.7 3.274 Q30.346 3.431 29.867 3.431 Q28.518 3.431 28.085 2.198 Q27.653 0.965 28.571 0.047 L32.486 -3.867 Q28.321 -4.656 25.601 -7.918 Q22.881 -11.181 22.881 -15.444 Z M47.358 -13.077 Q48.706 -13.077 49.631 -14.021 Q50.557 -14.964 50.557 -16.312 Q50.557 -17.66 49.613 -18.585 Q48.67 -19.511 47.322 -19.511 Q45.974 -19.511 45.049 -18.567 Q44.123 -17.624 44.123 -16.276 Q44.123 -14.928 45.067 -14.003 Q46.01 -13.077 47.358 -13.077 Z M26.037 -28.918 H68.643 V-46.519 H26.037 V-28.918 Z"/></g><g id="Ultralight-S" transform="matrix(1 0 0 1 517.792 696)"><path d="M24.065 -15.899 V-49.432 Q24.065 -52.982 28.7 -55.793 Q33.335 -58.604 47.439 -58.505 L49.806 -63.239 H29.588 Q29.246 -63.239 29.022 -63.462 Q28.799 -63.684 28.799 -64.024 Q28.799 -64.364 29.022 -64.591 Q29.246 -64.817 29.588 -64.817 H65.093 Q65.434 -64.817 65.658 -64.595 Q65.882 -64.373 65.882 -64.033 Q65.882 -63.693 65.658 -63.466 Q65.434 -63.239 65.093 -63.239 H50.397 L48.03 -58.505 Q61.443 -58.604 66.029 -55.703 Q70.615 -52.802 70.615 -49.432 V-15.899 Q70.615 -11.954 68.051 -8.897 Q65.487 -5.84 61.641 -5.051 L66.473 -0.218 Q67.164 0.5 66.801 1.374 Q66.439 2.248 65.473 2.248 Q65.093 2.248 64.843 2.124 Q64.594 2.001 64.402 1.754 L57.794 -4.853 H36.886 L30.278 1.754 Q30.072 2.001 29.805 2.124 Q29.538 2.248 29.152 2.248 Q28.108 2.248 27.812 1.311 Q27.516 0.374 28.207 -0.317 L32.941 -5.051 Q29.094 -5.84 26.579 -8.897 Q24.065 -11.954 24.065 -15.899 Z M47.363 -13.532 Q48.524 -13.532 49.312 -14.345 Q50.102 -15.157 50.102 -16.317 Q50.102 -17.477 49.289 -18.266 Q48.477 -19.055 47.317 -19.055 Q46.157 -19.055 45.367 -18.243 Q44.579 -17.431 44.579 -16.271 Q44.579 -15.11 45.391 -14.321 Q46.203 -13.532 47.363 -13.532 Z M26.037 -27.734 H68.643 V-47.065 H26.037 V-27.734 Z"/></g></g></svg>