<svg xmlns="http://www.w3.org/2000/svg" version="1.1" width="3300" height="2000"><g id="Notes"><style>
    text {
      font-family: monospace;
      text-anchor: middle;
    }
    text.emphasis {
      font-weight:bold;
    }
    text.lanchor {
      text-anchor: start;
    }
  </style><rect height="2200" id="artboard" fill="white" width="3300" x="0" y="0"/><line id="" style="fill:none;stroke:black;stroke-width:0.5;" x1="263" x2="3036" y1="292" y2="292"/><text class="lanchor emphasis" transform="matrix(1 0 0 1 263 322)">Weight/Scale Variations</text><text transform="matrix(1 0 0 1 559.711 322)">Ultralight</text><text transform="matrix(1 0 0 1 856.422 322)">Thin</text><text transform="matrix(1 0 0 1 1153.13 322)">Light</text><text transform="matrix(1 0 0 1 1449.84 322)">Regular</text><text transform="matrix(1 0 0 1 1746.56 322)">Medium</text><text transform="matrix(1 0 0 1 2043.27 322)">Semibold</text><text transform="matrix(1 0 0 1 2339.98 322)">Bold</text><text transform="matrix(1 0 0 1 2636.69 322)">Heavy</text><text transform="matrix(1 0 0 1 2933.4 322)">Black</text><text id="template-version" style="text-anchor: end;" transform="matrix(1 0 0 1 3036 1933)">Template v.1.0</text><text class="lanchor" transform="matrix(1 0 0 1 263 726)">Small</text><text class="lanchor" transform="matrix(1 0 0 1 263 1156)">Medium</text><text class="lanchor" transform="matrix(1 0 0 1 263 1586)">Large</text></g><g id="Guides"><g id="H-reference" style="fill:#27AAE1;stroke:none;" transform="matrix(1 0 0 1 339 696)"><path d="M 54.9316 0 L 57.666 0 L 30.5664 -70.459 L 28.0762 -70.459 L 0.976562 0 L 3.66211 0 L 12.9395 -24.4629 L 45.7031 -24.4629 Z M 29.1992 -67.0898 L 29.4434 -67.0898 L 44.8242 -26.709 L 13.8184 -26.709 Z"/></g><line id="Baseline-S" style="fill:none;stroke:#27AAE1;opacity:1;stroke-width:0.577;" x1="263" x2="3036" y1="696" y2="696"/><line id="Capline-S" style="fill:none;stroke:#27AAE1;opacity:1;stroke-width:0.577;" x1="263" x2="3036" y1="625.541" y2="625.541"/><g id="H-reference" style="fill:#27AAE1;stroke:none;" transform="matrix(1 0 0 1 339 1126)"><path d="M 54.9316 0 L 57.666 0 L 30.5664 -70.459 L 28.0762 -70.459 L 0.976562 0 L 3.66211 0 L 12.9395 -24.4629 L 45.7031 -24.4629 Z M 29.1992 -67.0898 L 29.4434 -67.0898 L 44.8242 -26.709 L 13.8184 -26.709 Z"/></g><line id="Baseline-M" style="fill:none;stroke:#27AAE1;opacity:1;stroke-width:0.577;" x1="263" x2="3036" y1="1126" y2="1126"/><line id="Capline-M" style="fill:none;stroke:#27AAE1;opacity:1;stroke-width:0.577;" x1="263" x2="3036" y1="1055.54" y2="1055.54"/><g id="H-reference" style="fill:#27AAE1;stroke:none;" transform="matrix(1 0 0 1 339 1556)"><path d="M 54.9316 0 L 57.666 0 L 30.5664 -70.459 L 28.0762 -70.459 L 0.976562 0 L 3.66211 0 L 12.9395 -24.4629 L 45.7031 -24.4629 Z M 29.1992 -67.0898 L 29.4434 -67.0898 L 44.8242 -26.709 L 13.8184 -26.709 Z"/></g><line id="Baseline-L" style="fill:none;stroke:#27AAE1;opacity:1;stroke-width:0.577;" x1="263" x2="3036" y1="1556" y2="1556"/><line id="Capline-L" style="fill:none;stroke:#27AAE1;opacity:1;stroke-width:0.577;" x1="263" x2="3036" y1="1485.54" y2="1485.54"/><rect height="119.336" id="left-margin" style="fill:darkred;stroke:none;opacity:0.4;" width="12.4512" x="1394.06" y="1030.79"/><rect height="119.336" id="right-margin" style="fill:darkgreen;stroke:none;opacity:0.4;" width="12.4512" x="1502.5112" y="1030.79"/><rect x="1406.5112" y="1045" width="96" height="96" fill="none" stroke="blue" stroke-dasharray="5"/><rect x="1394.06" y="1030.79" width="120.9024" height="119.336" fill="none" stroke="blue"/></g><g id="Symbols"><g id="Bold-L" transform="matrix(1 0 0 1 2266 1556)"><path d="M103.703 20.401 Q94.976 20.401 88.849 14.383 Q82.721 8.364 82.721 -0.452 Q82.721 -9.269 88.694 -15.316 Q94.667 -21.362 103.2 -21.362 Q104.897 -21.362 106.439 -21.06 Q107.981 -20.758 109.489 -20.072 V-77.961 H146.093 V-61.03 H124.646 V-0.4 Q124.646 8.442 118.538 14.422 Q112.429 20.401 103.703 20.401 Z M15.319 2.825 V-12.171 H66.919 V2.825 H15.319 Z M15.319 -29.909 V-45.066 H92.558 V-29.909 H15.319 Z M15.319 -62.804 V-77.961 H92.558 V-62.804 H15.319 Z"/></g><g id="Semibold-L" transform="matrix(1 0 0 1 1970.27 1556)"><path d="M103.69 18.649 Q95.397 18.649 89.585 12.894 Q83.773 7.14 83.773 -1.205 Q83.773 -9.549 89.439 -15.316 Q95.105 -21.082 103.2 -21.082 Q105.278 -21.082 107.168 -20.701 Q109.057 -20.32 110.821 -19.442 V-76.209 H144.27 V-61.661 H123.595 V-1.101 Q123.595 7.227 117.789 12.938 Q111.984 18.649 103.69 18.649 Z M17.071 -2.503 V-15.186 H67.69 V-2.503 H17.071 Z M17.071 -32.923 V-45.697 H93.889 V-32.923 H17.071 Z M17.071 -63.435 V-76.209 H93.889 V-63.435 H17.071 Z"/></g><g id="Medium-L" transform="matrix(1 0 0 1 1674.31 1556)"><path d="M103.681 17.334 Q95.712 17.334 90.137 11.777 Q84.562 6.221 84.562 -1.769 Q84.562 -9.759 89.998 -15.316 Q95.434 -20.872 103.2 -20.872 Q105.565 -20.872 107.715 -20.431 Q109.864 -19.991 111.82 -18.968 V-74.894 H142.903 V-62.134 H122.806 V-1.627 Q122.806 6.315 117.228 11.825 Q111.65 17.334 103.681 17.334 Z M18.386 -6.499 V-17.447 H68.268 V-6.499 H18.386 Z M18.386 -35.184 V-46.17 H94.889 V-35.184 H18.386 Z M18.386 -63.908 V-74.894 H94.889 V-63.908 H18.386 Z"/></g><g id="Regular-L" transform="matrix(1 0 0 1 1378.56 1556)"><path d="M103.674 16.37 Q95.944 16.37 90.542 10.959 Q85.14 5.547 85.14 -2.183 Q85.14 -9.914 90.408 -15.316 Q95.675 -20.717 103.2 -20.717 Q105.775 -20.717 108.116 -20.234 Q110.456 -19.75 112.553 -18.621 V-73.93 H141.9 V-62.481 H122.228 V-2.012 Q122.228 5.647 116.816 11.008 Q111.405 16.37 103.674 16.37 Z M19.35 -9.43 V-19.105 H68.692 V-9.43 H19.35 Z M19.35 -36.842 V-46.517 H95.621 V-36.842 H19.35 Z M19.35 -64.255 V-73.93 H95.621 V-64.255 H19.35 Z"/></g><g id="Light-L" transform="matrix(1 0 0 1 1082.77 1556)"><path d="M102.864 13.145 Q95.882 13.145 90.976 8.267 Q86.07 3.388 86.07 -3.581 Q86.07 -10.601 90.867 -15.504 Q95.665 -20.407 102.518 -20.407 Q105.225 -20.407 107.685 -19.645 Q110.146 -18.882 112.304 -17.505 V-70.705 H138.675 V-60.621 H119.623 V-3.439 Q119.623 3.471 114.735 8.308 Q109.847 13.145 102.864 13.145 Z M22.575 -13.399 V-20.718 H69.437 V-13.399 H22.575 Z M22.575 -38.393 V-45.711 H95.249 V-38.393 H22.575 Z M22.575 -63.387 V-70.705 H95.249 V-63.387 H22.575 Z"/></g><g id="Thin-L" transform="matrix(1 0 0 1 787.282 1556)"><path d="M102.054 9.92 Q95.82 9.92 91.41 5.575 Q87.001 1.23 87.001 -4.978 Q87.001 -11.289 91.327 -15.693 Q95.654 -20.097 101.836 -20.097 Q104.674 -20.097 107.255 -19.055 Q109.836 -18.013 112.056 -16.389 V-67.48 H135.45 V-58.76 H117.018 V-4.865 Q117.018 1.295 112.654 5.608 Q108.289 9.92 102.054 9.92 Z M25.8 -17.368 V-22.33 H70.181 V-17.368 H25.8 Z M25.8 -39.943 V-44.905 H94.877 V-39.943 H25.8 Z M25.8 -62.518 V-67.48 H94.877 V-62.518 H25.8 Z"/></g><g id="Ultralight-L" transform="matrix(1 0 0 1 491.205 1556)"><path d="M101.568 7.985 Q95.782 7.985 91.671 3.96 Q87.559 -0.066 87.559 -5.816 Q87.559 -11.701 91.603 -15.806 Q95.648 -19.911 101.426 -19.911 Q104.344 -19.911 106.997 -18.702 Q109.65 -17.492 111.907 -15.719 V-65.545 H133.515 V-57.644 H115.455 V-5.721 Q115.455 -0.01 111.405 3.987 Q107.355 7.985 101.568 7.985 Z M27.735 -19.75 V-23.297 H70.627 V-19.75 H27.735 Z M27.735 -40.874 V-44.421 H94.654 V-40.874 H27.735 Z M27.735 -61.997 V-65.545 H94.654 V-61.997 H27.735 Z"/></g><g id="Bold-M" transform="matrix(1 0 0 1 2281.8 1126)"><path d="M80.029 9.02 Q72.75 9.02 67.625 3.924 Q62.5 -1.171 62.5 -8.451 Q62.5 -15.73 67.604 -20.792 Q72.708 -25.855 80 -25.855 Q80.488 -25.855 80.931 -25.855 Q81.375 -25.855 81.875 -25.73 V-69.355 H114.25 V-53.73 H97.5 V-8.48 Q97.5 -1.188 92.404 3.916 Q87.309 9.02 80.029 9.02 Z M10.75 -2.48 V-18.105 H53.125 V-2.48 H10.75 Z M10.75 -28.105 V-43.73 H71.875 V-28.105 H10.75 Z M10.75 -53.73 V-69.355 H71.875 V-53.73 H10.75 Z"/></g><g id="Semibold-M" transform="matrix(1 0 0 1 1985.97 1126)"><path d="M80.017 7.172 Q73.185 7.172 68.386 2.39 Q63.587 -2.392 63.587 -9.224 Q63.587 -16.056 68.374 -20.82 Q73.161 -25.583 80 -25.583 Q80.874 -25.583 81.668 -25.502 Q82.462 -25.42 83.234 -25.078 V-67.562 H112.402 V-54.382 H96.413 V-9.241 Q96.413 -2.402 91.631 2.385 Q86.849 7.172 80.017 7.172 Z M12.598 -8.023 V-21.203 H53.94 V-8.023 H12.598 Z M12.598 -31.203 V-44.382 H73.234 V-31.203 H12.598 Z M12.598 -54.382 V-67.562 H73.234 V-54.382 H12.598 Z"/></g><g id="Medium-M" transform="matrix(1 0 0 1 1689.91 1126)"><path d="M80.007 5.786 Q73.511 5.786 68.957 1.239 Q64.402 -3.308 64.402 -9.804 Q64.402 -16.301 68.951 -20.84 Q73.501 -25.379 80 -25.379 Q81.163 -25.379 82.22 -25.237 Q83.277 -25.094 84.253 -24.589 V-66.216 H111.016 V-54.871 H95.598 V-9.811 Q95.598 -3.312 91.05 1.237 Q86.503 5.786 80.007 5.786 Z M13.984 -12.181 V-23.526 H54.552 V-12.181 H13.984 Z M13.984 -33.526 V-44.871 H74.253 V-33.526 H13.984 Z M13.984 -54.871 V-66.216 H74.253 V-54.871 H13.984 Z"/></g><g id="Regular-M" transform="matrix(1 0 0 1 1394.06 1126)"><path d="M80 4.77 Q73.75 4.77 69.375 0.395 Q65 -3.98 65 -10.23 Q65 -16.48 69.375 -20.855 Q73.75 -25.23 80 -25.23 Q81.375 -25.23 82.625 -25.042 Q83.875 -24.855 85 -24.23 V-65.23 H110 V-55.23 H95 V-10.23 Q95 -3.98 90.625 0.395 Q86.25 4.77 80 4.77 Z M15 -15.23 V-25.23 H55 V-15.23 H15 Z M15 -35.23 V-45.23 H75 V-35.23 H15 Z M15 -55.23 V-65.23 H75 V-55.23 H15 Z"/></g><g id="Light-M" transform="matrix(1 0 0 1 1098.18 1126)"><path d="M79.46 2.27 Q73.846 2.27 69.928 -1.642 Q66.01 -5.555 66.01 -11.143 Q66.01 -16.772 69.936 -20.713 Q73.862 -24.653 79.471 -24.653 Q81.119 -24.653 82.617 -24.201 Q84.115 -23.749 85.433 -22.836 V-62.73 H107.5 V-54.076 H92.933 V-11.143 Q92.933 -5.555 89.003 -1.642 Q85.073 2.27 79.46 2.27 Z M17.5 -18.307 V-25.807 H55.096 V-18.307 H17.5 Z M17.5 -36.769 V-44.268 H74.471 V-36.769 H17.5 Z M17.5 -55.23 V-62.73 H74.471 V-55.23 H17.5 Z"/></g><g id="Thin-M" transform="matrix(1 0 0 1 802.565 1126)"><path d="M78.92 -0.23 Q73.942 -0.23 70.481 -3.679 Q67.019 -7.129 67.019 -12.057 Q67.019 -17.065 70.497 -20.57 Q73.974 -24.076 78.942 -24.076 Q80.863 -24.076 82.609 -23.36 Q84.356 -22.643 85.865 -21.441 V-60.23 H105 V-52.922 H90.865 V-12.057 Q90.865 -7.129 87.381 -3.679 Q83.897 -0.23 78.92 -0.23 Z M20 -21.384 V-26.384 H55.192 V-21.384 H20 Z M20 -38.307 V-43.307 H73.942 V-38.307 H20 Z M20 -55.23 V-60.23 H73.942 V-55.23 H20 Z"/></g><g id="Ultralight-M" transform="matrix(1 0 0 1 506.415 1126)"><path d="M78.596 -1.73 Q74 -1.73 70.812 -4.902 Q67.625 -8.074 67.625 -12.605 Q67.625 -17.24 70.833 -20.485 Q74.042 -23.73 78.625 -23.73 Q80.71 -23.73 82.605 -22.855 Q84.5 -21.98 86.125 -20.605 V-58.73 H103.5 V-52.23 H89.625 V-12.605 Q89.625 -8.074 86.408 -4.902 Q83.191 -1.73 78.596 -1.73 Z M21.5 -23.23 V-26.73 H55.25 V-23.23 H21.5 Z M21.5 -39.23 V-42.73 H73.625 V-39.23 H21.5 Z M21.5 -55.23 V-58.73 H73.625 V-55.23 H21.5 Z"/></g><g id="Bold-S" transform="matrix(1 0 0 1 2294.23 696)"><path d="M61.565 -8.207 Q55.822 -8.207 51.778 -12.227 Q47.735 -16.248 47.735 -21.991 Q47.735 -27.734 51.762 -31.729 Q55.789 -35.723 61.542 -35.723 Q62.026 -35.723 62.622 -35.624 Q63.219 -35.526 63.81 -35.427 V-66.889 H88.565 V-55.349 H75.35 V-22.014 Q75.35 -16.261 71.329 -12.234 Q67.309 -8.207 61.565 -8.207 Z M10.849 -18.069 V-29.608 H41.127 V-18.069 H10.849 Z M10.849 -36.709 V-48.248 H54.342 V-36.709 H10.849 Z M10.849 -55.349 V-66.889 H54.342 V-55.349 H10.849 Z"/></g><g id="Semibold-S" transform="matrix(1 0 0 1 1998.1 696)"><path d="M61.555 -9.665 Q56.165 -9.665 52.378 -13.438 Q48.592 -17.211 48.592 -22.601 Q48.592 -27.992 52.369 -31.75 Q56.146 -35.509 61.542 -35.509 Q62.33 -35.509 63.203 -35.346 Q64.076 -35.183 64.882 -34.913 V-65.474 H87.107 V-55.864 H74.492 V-22.615 Q74.492 -17.219 70.719 -13.442 Q66.945 -9.665 61.555 -9.665 Z M12.307 -22.443 V-32.052 H41.77 V-22.443 H12.307 Z M12.307 -39.153 V-48.763 H55.414 V-39.153 H12.307 Z M12.307 -55.864 V-65.474 H55.414 V-55.864 H12.307 Z"/></g><g id="Medium-S" transform="matrix(1 0 0 1 1701.85 696)"><path d="M61.548 -10.758 Q56.422 -10.758 52.829 -14.346 Q49.235 -17.934 49.235 -23.059 Q49.235 -28.185 52.825 -31.766 Q56.414 -35.348 61.542 -35.348 Q62.558 -35.348 63.639 -35.137 Q64.719 -34.926 65.686 -34.527 V-64.412 H86.014 V-56.25 H73.849 V-23.065 Q73.849 -17.937 70.261 -14.348 Q66.673 -10.758 61.548 -10.758 Z M13.4 -25.723 V-33.886 H42.252 V-25.723 H13.4 Z M13.4 -40.987 V-49.149 H56.218 V-40.987 H13.4 Z M13.4 -56.25 V-64.412 H56.218 V-56.25 H13.4 Z"/></g><g id="Regular-S" transform="matrix(1 0 0 1 1405.73 696)"><path d="M61.542 -11.56 Q56.611 -11.56 53.159 -15.012 Q49.707 -18.464 49.707 -23.395 Q49.707 -28.326 53.159 -31.778 Q56.611 -35.23 61.542 -35.23 Q62.726 -35.23 63.958 -34.983 Q65.191 -34.737 66.276 -34.244 V-63.634 H85.212 V-56.533 H73.377 V-23.395 Q73.377 -18.464 69.925 -15.012 Q66.473 -11.56 61.542 -11.56 Z M14.202 -28.129 V-35.23 H42.606 V-28.129 H14.202 Z M14.202 -42.331 V-49.432 H56.808 V-42.331 H14.202 Z M14.202 -56.533 V-63.634 H56.808 V-56.533 H14.202 Z"/></g><g id="Light-S" transform="matrix(1 0 0 1 1109.75 696)"><path d="M61.116 -13.533 Q56.687 -13.533 53.595 -16.619 Q50.504 -19.706 50.504 -24.116 Q50.504 -28.557 53.602 -31.666 Q56.699 -34.775 61.125 -34.775 Q62.524 -34.775 63.952 -34.32 Q65.381 -33.864 66.617 -33.144 V-61.661 H83.239 V-55.623 H71.746 V-24.116 Q71.746 -19.706 68.645 -16.619 Q65.545 -13.533 61.116 -13.533 Z M16.175 -30.557 V-35.685 H42.682 V-30.557 H16.175 Z M16.175 -43.545 V-48.673 H56.391 V-43.545 H16.175 Z M16.175 -56.533 V-61.661 H56.391 V-56.533 H16.175 Z"/></g><g id="Thin-S" transform="matrix(1 0 0 1 814.015 696)"><path d="M60.69 -15.505 Q56.762 -15.505 54.031 -18.227 Q51.3 -20.948 51.3 -24.836 Q51.3 -28.788 54.044 -31.554 Q56.788 -34.32 60.708 -34.32 Q62.322 -34.32 63.946 -33.656 Q65.57 -32.992 66.959 -32.044 V-59.689 H81.267 V-54.712 H70.115 V-24.836 Q70.115 -20.948 67.366 -18.227 Q64.617 -15.505 60.69 -15.505 Z M18.147 -32.984 V-36.14 H42.758 V-32.984 H18.147 Z M18.147 -44.759 V-47.915 H55.974 V-44.759 H18.147 Z M18.147 -56.533 V-59.689 H55.974 V-56.533 H18.147 Z"/></g><g id="Ultralight-S" transform="matrix(1 0 0 1 517.792 696)"><path d="M60.434 -16.688 Q56.808 -16.688 54.293 -19.191 Q51.778 -21.694 51.778 -25.269 Q51.778 -28.926 54.31 -31.486 Q56.841 -34.046 60.457 -34.046 Q62.201 -34.046 63.942 -33.257 Q65.684 -32.468 67.164 -31.384 V-58.505 H80.084 V-54.166 H69.136 V-25.269 Q69.136 -21.694 66.598 -19.191 Q64.06 -16.688 60.434 -16.688 Z M19.331 -34.441 V-36.413 H42.803 V-34.441 H19.331 Z M19.331 -45.487 V-47.459 H55.723 V-45.487 H19.331 Z M19.331 -56.533 V-58.505 H55.723 V-56.533 H19.331 Z"/></g></g></svg>