<svg xmlns="http://www.w3.org/2000/svg" version="1.1" width="3300" height="2000"><g id="Notes"><style>
    text {
      font-family: monospace;
      text-anchor: middle;
    }
    text.emphasis {
      font-weight:bold;
    }
    text.lanchor {
      text-anchor: start;
    }
  </style><rect height="2200" id="artboard" fill="white" width="3300" x="0" y="0"/><line id="" style="fill:none;stroke:black;stroke-width:0.5;" x1="263" x2="3036" y1="292" y2="292"/><text class="lanchor emphasis" transform="matrix(1 0 0 1 263 322)">Weight/Scale Variations</text><text transform="matrix(1 0 0 1 559.711 322)">Ultralight</text><text transform="matrix(1 0 0 1 856.422 322)">Thin</text><text transform="matrix(1 0 0 1 1153.13 322)">Light</text><text transform="matrix(1 0 0 1 1449.84 322)">Regular</text><text transform="matrix(1 0 0 1 1746.56 322)">Medium</text><text transform="matrix(1 0 0 1 2043.27 322)">Semibold</text><text transform="matrix(1 0 0 1 2339.98 322)">Bold</text><text transform="matrix(1 0 0 1 2636.69 322)">Heavy</text><text transform="matrix(1 0 0 1 2933.4 322)">Black</text><text id="template-version" style="text-anchor: end;" transform="matrix(1 0 0 1 3036 1933)">Template v.1.0</text><text class="lanchor" transform="matrix(1 0 0 1 263 726)">Small</text><text class="lanchor" transform="matrix(1 0 0 1 263 1156)">Medium</text><text class="lanchor" transform="matrix(1 0 0 1 263 1586)">Large</text></g><g id="Guides"><g id="H-reference" style="fill:#27AAE1;stroke:none;" transform="matrix(1 0 0 1 339 696)"><path d="M 54.9316 0 L 57.666 0 L 30.5664 -70.459 L 28.0762 -70.459 L 0.976562 0 L 3.66211 0 L 12.9395 -24.4629 L 45.7031 -24.4629 Z M 29.1992 -67.0898 L 29.4434 -67.0898 L 44.8242 -26.709 L 13.8184 -26.709 Z"/></g><line id="Baseline-S" style="fill:none;stroke:#27AAE1;opacity:1;stroke-width:0.577;" x1="263" x2="3036" y1="696" y2="696"/><line id="Capline-S" style="fill:none;stroke:#27AAE1;opacity:1;stroke-width:0.577;" x1="263" x2="3036" y1="625.541" y2="625.541"/><g id="H-reference" style="fill:#27AAE1;stroke:none;" transform="matrix(1 0 0 1 339 1126)"><path d="M 54.9316 0 L 57.666 0 L 30.5664 -70.459 L 28.0762 -70.459 L 0.976562 0 L 3.66211 0 L 12.9395 -24.4629 L 45.7031 -24.4629 Z M 29.1992 -67.0898 L 29.4434 -67.0898 L 44.8242 -26.709 L 13.8184 -26.709 Z"/></g><line id="Baseline-M" style="fill:none;stroke:#27AAE1;opacity:1;stroke-width:0.577;" x1="263" x2="3036" y1="1126" y2="1126"/><line id="Capline-M" style="fill:none;stroke:#27AAE1;opacity:1;stroke-width:0.577;" x1="263" x2="3036" y1="1055.54" y2="1055.54"/><g id="H-reference" style="fill:#27AAE1;stroke:none;" transform="matrix(1 0 0 1 339 1556)"><path d="M 54.9316 0 L 57.666 0 L 30.5664 -70.459 L 28.0762 -70.459 L 0.976562 0 L 3.66211 0 L 12.9395 -24.4629 L 45.7031 -24.4629 Z M 29.1992 -67.0898 L 29.4434 -67.0898 L 44.8242 -26.709 L 13.8184 -26.709 Z"/></g><line id="Baseline-L" style="fill:none;stroke:#27AAE1;opacity:1;stroke-width:0.577;" x1="263" x2="3036" y1="1556" y2="1556"/><line id="Capline-L" style="fill:none;stroke:#27AAE1;opacity:1;stroke-width:0.577;" x1="263" x2="3036" y1="1485.54" y2="1485.54"/><rect height="119.336" id="left-margin" style="fill:darkred;stroke:none;opacity:0.4;" width="12.4512" x="1394.06" y="1030.79"/><rect height="119.336" id="right-margin" style="fill:darkgreen;stroke:none;opacity:0.4;" width="12.4512" x="1502.5112" y="1030.79"/><rect x="1406.5112" y="1045" width="96" height="96" fill="none" stroke="blue" stroke-dasharray="5"/><rect x="1394.06" y="1030.79" width="120.9024" height="119.336" fill="none" stroke="blue"/></g><g id="Symbols"><g id="Bold-L" transform="matrix(1 0 0 1 2266 1556)"><path d="M67.644 -24.668  54.977 -37.416 Q52.89 -39.422 49.889 -39.422 Q46.888 -39.422 44.586 -37.246 Q42.489 -34.988 42.489 -32.005 Q42.489 -29.022 44.718 -27.035 L62.323 -9.269 Q64.544 -7.011 67.586 -7.011 Q70.627 -7.011 73.046 -9.269 L109.328 -45.711 Q111.666 -47.888 111.666 -50.809 Q111.666 -53.729 109.328 -56.112 Q107.07 -58.127 103.988 -58.047 Q100.907 -57.966 98.787 -55.972 L67.644 -24.668 Z M77.422 32.495 Q63.386 32.495 51.027 27.198 Q38.668 21.902 29.466 12.684 Q20.264 3.466 14.969 -8.859 Q9.675 -21.185 9.675 -35.208 Q9.675 -49.405 14.972 -61.764 Q20.268 -74.123 29.461 -83.293 Q38.653 -92.464 50.991 -97.79 Q63.328 -103.116 77.364 -103.116 Q91.575 -103.116 103.953 -97.8 Q116.331 -92.485 125.49 -83.32 Q134.648 -74.155 139.967 -61.801 Q145.286 -49.447 145.286 -35.23 Q145.286 -21.172 139.958 -8.815 Q134.63 3.541 125.443 12.724 Q116.257 21.906 103.932 27.201 Q91.606 32.495 77.422 32.495 Z"/></g><g id="Semibold-L" transform="matrix(1 0 0 1 1970.27 1556)"><path d="M67.785 -22.845  53.785 -36.925 Q51.979 -38.651 49.406 -38.651 Q46.833 -38.651 44.866 -36.755 Q43.05 -34.848 43.05 -32.285 Q43.05 -29.723 44.929 -28.016 L63.375 -9.409 Q65.213 -7.502 67.745 -7.502 Q70.277 -7.502 72.275 -9.409 L109.398 -46.623 Q111.385 -48.519 111.385 -51.046 Q111.385 -53.573 109.398 -55.621 Q107.421 -57.356 104.767 -57.276 Q102.114 -57.195 100.329 -55.481 L67.785 -22.845 Z M77.413 30.742 Q63.807 30.742 51.762 25.557 Q39.718 20.371 30.756 11.394 Q21.794 2.416 16.611 -9.604 Q11.428 -21.625 11.428 -35.217 Q11.428 -48.984 16.613 -61.029 Q21.799 -73.073 30.762 -82 Q39.725 -90.926 51.752 -96.11 Q63.78 -101.293 77.38 -101.293 Q91.154 -101.293 103.21 -96.115 Q115.265 -90.936 124.184 -82.006 Q133.104 -73.076 138.284 -61.039 Q143.463 -49.002 143.463 -35.23 Q143.463 -21.612 138.278 -9.569 Q133.092 2.474 124.149 11.425 Q115.207 20.376 103.187 25.559 Q91.166 30.742 77.413 30.742 Z"/></g><g id="Medium-L" transform="matrix(1 0 0 1 1674.31 1556)"><path d="M67.89 -21.478  52.891 -36.557 Q51.295 -38.073 49.044 -38.073 Q46.792 -38.073 45.076 -36.387 Q43.471 -34.743 43.471 -32.496 Q43.471 -30.249 45.087 -28.752 L64.163 -9.514 Q65.715 -7.87 67.865 -7.87 Q70.014 -7.87 71.697 -9.514 L109.45 -47.306 Q111.175 -48.992 111.175 -51.224 Q111.175 -53.456 109.45 -55.253 Q107.683 -56.778 105.352 -56.697 Q103.02 -56.617 101.486 -55.113 L67.89 -21.478 Z M77.405 29.428 Q64.123 29.428 52.314 24.326 Q40.505 19.223 31.724 10.426 Q22.942 1.629 17.842 -10.163 Q12.742 -21.955 12.742 -35.225 Q12.742 -48.669 17.844 -60.477 Q22.947 -72.286 31.738 -81.029 Q40.529 -89.772 52.324 -94.849 Q64.118 -99.926 77.391 -99.926 Q90.839 -99.926 102.652 -94.85 Q114.465 -89.774 123.205 -81.02 Q131.946 -72.266 137.021 -60.467 Q142.096 -48.669 142.096 -35.23 Q142.096 -21.942 137.017 -10.134 Q131.938 1.674 123.179 10.451 Q114.42 19.228 102.628 24.328 Q90.836 29.428 77.405 29.428 Z"/></g><g id="Regular-L" transform="matrix(1 0 0 1 1378.56 1556)"><path d="M67.967 -20.476  52.236 -36.287 Q50.794 -37.649 48.778 -37.649 Q46.763 -37.649 45.231 -36.117 Q43.779 -34.666 43.779 -32.65 Q43.779 -30.634 45.202 -29.292 L64.742 -9.591 Q66.083 -8.14 67.952 -8.14 Q69.821 -8.14 71.273 -9.591 L109.489 -47.807 Q111.021 -49.339 111.021 -51.355 Q111.021 -53.371 109.489 -54.983 Q107.876 -56.354 105.78 -56.273 Q103.684 -56.192 102.334 -54.843 L67.967 -20.476 Z M77.4 28.464 Q64.354 28.464 52.718 23.423 Q41.083 18.381 32.434 9.716 Q23.784 1.051 18.745 -10.573 Q13.706 -22.197 13.706 -35.23 Q13.706 -48.438 18.747 -60.073 Q23.789 -71.709 32.454 -80.317 Q41.119 -88.926 52.743 -93.925 Q64.367 -98.924 77.4 -98.924 Q90.608 -98.924 102.243 -93.923 Q113.879 -88.922 122.487 -80.297 Q131.096 -71.672 136.095 -60.048 Q141.094 -48.424 141.094 -35.23 Q141.094 -22.184 136.093 -10.548 Q131.092 1.087 122.467 9.736 Q113.843 18.386 102.218 23.425 Q90.594 28.464 77.4 28.464 Z"/></g><g id="Light-L" transform="matrix(1 0 0 1 1082.77 1556)"><path d="M67.936 -19.08  51.647 -35.543 Q50.515 -36.501 48.964 -36.532 Q47.414 -36.563 46.285 -35.435 Q45.144 -34.293 45.144 -32.743 Q45.144 -31.193 46.257 -30.191 L64.804 -11.545 Q66.083 -10.063 67.924 -10.063 Q69.765 -10.063 71.179 -11.545 L108.403 -48.707 Q109.47 -49.836 109.501 -51.386 Q109.532 -52.936 108.403 -54.177 Q107.163 -55.206 105.563 -55.157 Q103.963 -55.107 102.955 -54.099 L67.936 -19.08 Z M77.415 25.549 Q64.912 25.549 53.831 20.739 Q42.749 15.93 34.487 7.663 Q26.225 -0.604 21.423 -11.665 Q16.621 -22.726 16.621 -35.215 Q16.621 -47.817 21.431 -58.93 Q26.24 -70.042 34.507 -78.264 Q42.774 -86.486 53.835 -91.247 Q64.896 -96.009 77.385 -96.009 Q89.987 -96.009 101.1 -91.24 Q112.212 -86.471 120.434 -78.244 Q128.656 -70.017 133.417 -58.925 Q138.179 -47.834 138.179 -35.245 Q138.179 -22.742 133.41 -11.661 Q128.641 -0.579 120.414 7.683 Q112.187 15.945 101.095 20.747 Q90.004 25.549 77.415 25.549 Z"/></g><g id="Thin-L" transform="matrix(1 0 0 1 787.282 1556)"><path d="M67.905 -17.685  51.058 -34.799 Q50.236 -35.354 49.15 -35.416 Q48.065 -35.478 47.339 -34.753 Q46.508 -33.921 46.508 -32.836 Q46.508 -31.751 47.311 -31.091 L64.866 -13.498 Q66.083 -11.985 67.896 -11.985 Q69.709 -11.985 71.086 -13.498 L107.318 -49.606 Q107.92 -50.332 107.982 -51.417 Q108.044 -52.502 107.318 -53.371 Q106.45 -54.059 105.346 -54.04 Q104.242 -54.022 103.575 -53.355 L67.905 -17.685 Z M77.43 22.634 Q65.47 22.634 54.943 18.057 Q44.416 13.479 36.541 5.61 Q28.665 -2.26 24.101 -12.757 Q19.536 -23.254 19.536 -35.2 Q19.536 -47.197 24.113 -57.786 Q28.691 -68.376 36.56 -76.21 Q44.43 -84.045 54.927 -88.57 Q65.424 -93.094 77.37 -93.094 Q89.367 -93.094 99.956 -88.557 Q110.546 -84.02 118.38 -76.191 Q126.215 -68.361 130.74 -57.802 Q135.264 -47.243 135.264 -35.26 Q135.264 -23.3 130.727 -12.773 Q126.19 -2.246 118.361 5.629 Q110.531 13.505 99.972 18.069 Q89.413 22.634 77.43 22.634 Z"/></g><g id="Ultralight-L" transform="matrix(1 0 0 1 491.205 1556)"><path d="M67.886 -16.847  50.704 -34.352 Q50.068 -34.666 49.262 -34.746 Q48.456 -34.827 47.972 -34.343 Q47.327 -33.698 47.327 -32.892 Q47.327 -32.086 47.943 -31.63 L64.903 -14.671 Q66.083 -13.139 67.879 -13.139 Q69.675 -13.139 71.031 -14.671 L106.667 -50.146 Q106.989 -50.629 107.07 -51.436 Q107.151 -52.242 106.667 -52.887 Q106.022 -53.371 105.216 -53.371 Q104.409 -53.371 103.947 -52.908 L67.886 -16.847 Z M77.438 20.885 Q65.805 20.885 55.61 16.447 Q45.416 12.009 37.773 4.378 Q30.13 -3.253 25.707 -13.412 Q21.285 -23.571 21.285 -35.192 Q21.285 -46.825 25.723 -57.1 Q30.161 -67.376 37.792 -74.978 Q45.423 -82.581 55.582 -86.963 Q65.741 -91.345 77.362 -91.345 Q88.995 -91.345 99.27 -86.947 Q109.546 -82.549 117.148 -74.959 Q124.751 -67.368 129.133 -57.128 Q133.515 -46.889 133.515 -35.268 Q133.515 -23.635 129.117 -13.44 Q124.719 -3.246 117.129 4.397 Q109.538 12.04 99.298 16.463 Q89.059 20.885 77.438 20.885 Z"/></g><g id="Bold-M" transform="matrix(1 0 0 1 2281.8 1126)"><path d="M52.75 -30.48  45.305 -37.925 Q43.188 -40.042 40.25 -40.042 Q37.312 -40.042 35.188 -37.917 Q33.062 -35.792 33.125 -32.855 Q33.188 -29.917 35.291 -27.814 L47.312 -15.792 Q49.648 -13.48 52.761 -13.48 Q55.875 -13.48 58.188 -15.792 L84.062 -41.667 Q86.188 -43.792 86.188 -46.667 Q86.188 -49.542 84.062 -51.667 Q81.938 -53.792 79 -53.792 Q76.062 -53.792 73.954 -51.684 L52.75 -30.48 Z M60 17.77 Q48.887 17.77 39.243 13.602 Q29.6 9.433 22.467 2.288 Q15.333 -4.858 11.167 -14.492 Q7 -24.127 7 -35.23 Q7 -46.343 11.168 -55.987 Q15.337 -65.63 22.482 -72.763 Q29.628 -79.897 39.263 -84.063 Q48.897 -88.23 60 -88.23 Q71.113 -88.23 80.757 -84.062 Q90.4 -79.893 97.533 -72.748 Q104.667 -65.602 108.833 -55.967 Q113 -46.333 113 -35.23 Q113 -24.117 108.832 -14.473 Q104.663 -4.83 97.518 2.303 Q90.372 9.437 80.737 13.603 Q71.103 17.77 60 17.77 Z"/></g><g id="Semibold-M" transform="matrix(1 0 0 1 1985.97 1126)"><path d="M52.913 -28.578  44.056 -37.435 Q42.264 -39.227 39.761 -39.227 Q37.258 -39.227 35.459 -37.428 Q33.66 -35.629 33.696 -33.127 Q33.731 -30.624 35.508 -28.847 L48.399 -15.955 Q50.334 -14.023 52.914 -14.023 Q55.495 -14.023 57.427 -15.955 L84.117 -42.646 Q85.916 -44.445 85.916 -46.912 Q85.916 -49.379 84.117 -51.178 Q82.318 -52.977 79.815 -52.977 Q77.312 -52.977 75.53 -51.195 L52.913 -28.578 Z M60 15.922 Q49.322 15.922 40.004 11.894 Q30.686 7.866 23.793 0.961 Q16.9 -5.944 12.874 -15.253 Q8.848 -24.562 8.848 -35.23 Q8.848 -45.909 12.876 -55.226 Q16.904 -64.544 23.809 -71.437 Q30.714 -78.33 40.023 -82.356 Q49.332 -86.382 60 -86.382 Q70.679 -86.382 79.996 -82.354 Q89.314 -78.326 96.207 -71.421 Q103.1 -64.516 107.126 -55.207 Q111.152 -45.898 111.152 -35.23 Q111.152 -24.551 107.124 -15.233 Q103.096 -5.916 96.191 0.977 Q89.286 7.87 79.977 11.896 Q70.668 15.922 60 15.922 Z"/></g><g id="Medium-M" transform="matrix(1 0 0 1 1689.91 1126)"><path d="M53.035 -27.151  43.118 -37.069 Q41.571 -38.616 39.394 -38.616 Q37.217 -38.616 35.663 -37.061 Q34.109 -35.507 34.124 -33.33 Q34.139 -31.154 35.671 -29.621 L49.215 -16.078 Q50.849 -14.431 53.029 -14.431 Q55.209 -14.431 56.856 -16.078 L84.158 -43.379 Q85.712 -44.934 85.712 -47.095 Q85.712 -49.257 84.158 -50.811 Q82.603 -52.366 80.427 -52.366 Q78.25 -52.366 76.712 -50.828 L53.035 -27.151 Z M60 14.536 Q49.648 14.536 40.574 10.614 Q31.5 6.691 24.788 -0.033 Q18.076 -6.758 14.155 -15.823 Q10.234 -24.888 10.234 -35.23 Q10.234 -45.582 14.156 -54.656 Q18.079 -63.73 24.803 -70.442 Q31.528 -77.154 40.593 -81.075 Q49.658 -84.996 60 -84.996 Q70.353 -84.996 79.426 -81.074 Q88.5 -77.151 95.212 -70.427 Q101.924 -63.702 105.845 -54.637 Q109.766 -45.572 109.766 -35.23 Q109.766 -24.877 105.844 -15.804 Q101.921 -6.73 95.197 -0.018 Q88.472 6.694 79.407 10.615 Q70.342 14.536 60 14.536 Z"/></g><g id="Regular-M" transform="matrix(1 0 0 1 1394.06 1126)"><path d="M53.125 -26.105  42.43 -36.8 Q41.062 -38.167 39.125 -38.167 Q37.188 -38.167 35.812 -36.792 Q34.438 -35.417 34.438 -33.48 Q34.438 -31.542 35.791 -30.189 L49.812 -16.167 Q51.227 -14.73 53.114 -14.73 Q55 -14.73 56.438 -16.167 L84.188 -43.917 Q85.562 -45.292 85.562 -47.23 Q85.562 -49.167 84.188 -50.542 Q82.812 -51.917 80.875 -51.917 Q78.938 -51.917 77.579 -50.559 L53.125 -26.105 Z M60 13.52 Q49.887 13.52 40.992 9.675 Q32.097 5.829 25.517 -0.763 Q18.938 -7.355 15.094 -16.241 Q11.25 -25.127 11.25 -35.23 Q11.25 -45.343 15.095 -54.238 Q18.941 -63.133 25.533 -69.713 Q32.125 -76.292 41.011 -80.136 Q49.897 -83.98 60 -83.98 Q70.113 -83.98 79.008 -80.135 Q87.903 -76.289 94.483 -69.697 Q101.062 -63.105 104.906 -54.219 Q108.75 -45.333 108.75 -35.23 Q108.75 -25.117 104.905 -16.222 Q101.059 -7.327 94.467 -0.747 Q87.875 5.833 78.989 9.676 Q70.103 13.52 60 13.52 Z"/></g><g id="Light-M" transform="matrix(1 0 0 1 1098.18 1126)"><path d="M53.005 -24.398  41.445 -35.982 Q40.413 -36.989 38.981 -37.014 Q37.548 -37.038 36.486 -35.975 Q35.399 -34.889 35.399 -33.48 Q35.399 -32.071 36.464 -31.031 L50.005 -17.49 Q51.275 -16.172 52.996 -16.172 Q54.716 -16.172 56.029 -17.49 L83.442 -44.903 Q84.457 -45.917 84.481 -47.35 Q84.505 -48.783 83.442 -49.869 Q82.356 -50.932 80.947 -50.932 Q79.538 -50.932 78.493 -49.886 L53.005 -24.398 Z M60.011 11.26 Q50.367 11.26 41.878 7.595 Q33.389 3.929 27.109 -2.355 Q20.829 -8.638 17.17 -17.112 Q13.51 -25.585 13.51 -35.218 Q13.51 -44.862 17.175 -53.352 Q20.841 -61.841 27.125 -68.121 Q33.408 -74.4 41.882 -78.06 Q50.355 -81.72 59.989 -81.72 Q69.632 -81.72 78.122 -78.055 Q86.611 -74.389 92.891 -68.105 Q99.171 -61.821 102.83 -53.348 Q106.49 -44.875 106.49 -35.241 Q106.49 -25.597 102.825 -17.108 Q99.159 -8.619 92.875 -2.339 Q86.591 3.941 78.118 7.6 Q69.645 11.26 60.011 11.26 Z"/></g><g id="Thin-M" transform="matrix(1 0 0 1 802.565 1126)"><path d="M52.885 -22.691  40.459 -35.165 Q39.764 -35.812 38.837 -35.86 Q37.909 -35.908 37.159 -35.158 Q36.361 -34.36 36.361 -33.48 Q36.361 -32.6 37.137 -31.872 L50.197 -18.812 Q51.323 -17.615 52.878 -17.615 Q54.432 -17.615 55.62 -18.812 L82.697 -45.889 Q83.351 -46.542 83.399 -47.47 Q83.447 -48.398 82.697 -49.196 Q81.899 -49.946 81.019 -49.946 Q80.139 -49.946 79.406 -49.213 L52.885 -22.691 Z M60.023 9.001 Q50.848 9.001 42.764 5.515 Q34.681 2.029 28.701 -3.946 Q22.721 -9.922 19.245 -17.982 Q15.769 -26.043 15.769 -35.207 Q15.769 -44.382 19.255 -52.465 Q22.741 -60.549 28.716 -66.529 Q34.692 -72.509 42.752 -75.985 Q50.813 -79.461 59.977 -79.461 Q69.152 -79.461 77.236 -75.975 Q85.319 -72.489 91.299 -66.514 Q97.279 -60.538 100.755 -52.478 Q104.231 -44.417 104.231 -35.253 Q104.231 -26.078 100.745 -17.994 Q97.259 -9.911 91.284 -3.931 Q85.308 2.049 77.248 5.525 Q69.187 9.001 60.023 9.001 Z"/></g><g id="Ultralight-M" transform="matrix(1 0 0 1 506.415 1126)"><path d="M52.812 -21.667  39.868 -34.675 Q39.375 -35.105 38.75 -35.167 Q38.125 -35.23 37.562 -34.667 Q36.938 -34.042 36.938 -33.48 Q36.938 -32.917 37.541 -32.377 L50.312 -19.605 Q51.352 -18.48 52.807 -18.48 Q54.261 -18.48 55.375 -19.605 L82.25 -46.48 Q82.688 -46.917 82.75 -47.542 Q82.812 -48.167 82.25 -48.792 Q81.625 -49.355 81.062 -49.355 Q80.5 -49.355 79.954 -48.809 L52.812 -21.667 Z M60.03 7.645 Q51.137 7.645 43.296 4.267 Q35.456 0.889 29.656 -4.901 Q23.857 -10.692 20.491 -18.505 Q17.125 -26.317 17.125 -35.2 Q17.125 -44.093 20.503 -51.934 Q23.881 -59.774 29.671 -65.574 Q35.462 -71.373 43.275 -74.739 Q51.087 -78.105 59.97 -78.105 Q68.863 -78.105 76.704 -74.727 Q84.544 -71.349 90.344 -65.559 Q96.144 -59.768 99.509 -51.955 Q102.875 -44.143 102.875 -35.26 Q102.875 -26.367 99.497 -18.526 Q96.119 -10.686 90.329 -4.886 Q84.538 0.914 76.725 4.279 Q68.913 7.645 60.03 7.645 Z"/></g><g id="Bold-S" transform="matrix(1 0 0 1 2294.23 696)"><path d="M42.113 -34.441  38.803 -37.652 Q37.132 -39.323 35.111 -39.323 Q33.089 -39.323 31.412 -37.646 Q29.735 -35.97 29.785 -33.899 Q29.834 -31.827 31.493 -30.168 L38.119 -23.543 Q39.862 -21.817 42.122 -21.817 Q44.381 -21.817 46.107 -23.543 L62.676 -40.112 Q64.353 -41.789 64.353 -43.81 Q64.353 -45.832 62.676 -47.509 Q61 -49.185 58.978 -49.185 Q56.956 -49.185 55.292 -47.522 L42.113 -34.441 Z M47.34 5.009 Q38.966 5.009 31.653 1.868 Q24.341 -1.273 18.86 -6.763 Q13.38 -12.253 10.241 -19.558 Q7.101 -26.864 7.101 -35.23 Q7.101 -43.703 10.242 -50.966 Q13.383 -58.229 18.873 -63.71 Q24.363 -69.19 31.668 -72.329 Q38.974 -75.469 47.34 -75.469 Q55.813 -75.469 63.076 -72.328 Q70.339 -69.187 75.82 -63.697 Q81.3 -58.207 84.439 -50.951 Q87.579 -43.694 87.579 -35.23 Q87.579 -26.856 84.438 -19.543 Q81.297 -12.231 75.807 -6.75 Q70.317 -1.27 63.061 1.869 Q55.804 5.009 47.34 5.009 Z"/></g><g id="Semibold-S" transform="matrix(1 0 0 1 1998.1 696)"><path d="M42.241 -32.94  37.817 -37.266 Q36.403 -38.68 34.725 -38.68 Q33.046 -38.68 31.626 -37.26 Q30.207 -35.841 30.235 -34.113 Q30.263 -32.385 31.665 -30.983 L38.976 -23.672 Q40.404 -22.246 42.243 -22.246 Q44.081 -22.246 45.507 -23.672 L62.719 -40.884 Q64.138 -42.303 64.138 -44.003 Q64.138 -45.704 62.719 -47.123 Q61.3 -48.542 59.621 -48.542 Q57.942 -48.542 56.536 -47.136 L42.241 -32.94 Z M47.34 3.551 Q39.309 3.551 32.253 0.521 Q25.197 -2.509 19.907 -7.809 Q14.616 -13.109 11.588 -20.158 Q8.559 -27.207 8.559 -35.23 Q8.559 -43.36 11.589 -50.366 Q14.619 -57.373 19.919 -62.663 Q25.219 -67.954 32.268 -70.982 Q39.317 -74.011 47.34 -74.011 Q55.47 -74.011 62.476 -70.981 Q69.483 -67.951 74.773 -62.651 Q80.064 -57.351 83.092 -50.351 Q86.121 -43.351 86.121 -35.23 Q86.121 -27.199 83.091 -20.143 Q80.061 -13.087 74.761 -7.797 Q69.461 -2.506 62.461 0.522 Q55.461 3.551 47.34 3.551 Z"/></g><g id="Medium-S" transform="matrix(1 0 0 1 1701.85 696)"><path d="M42.338 -31.815  37.077 -36.977 Q35.857 -38.197 34.435 -38.197 Q33.014 -38.197 31.787 -36.971 Q30.561 -35.745 30.573 -34.274 Q30.585 -32.803 31.793 -31.594 L39.619 -23.768 Q40.811 -22.567 42.333 -22.567 Q43.856 -22.567 45.057 -23.768 L62.751 -41.463 Q63.978 -42.689 63.978 -44.148 Q63.978 -45.607 62.751 -46.833 Q61.525 -48.06 60.103 -48.06 Q58.682 -48.06 57.468 -46.846 L42.338 -31.815 Z M47.34 2.458 Q39.566 2.458 32.703 -0.489 Q25.84 -3.436 20.692 -8.594 Q15.544 -13.752 12.598 -20.608 Q9.652 -27.464 9.652 -35.23 Q9.652 -43.102 12.599 -49.916 Q15.546 -56.73 20.704 -61.878 Q25.862 -67.026 32.718 -69.972 Q39.574 -72.918 47.34 -72.918 Q55.212 -72.918 62.026 -69.971 Q68.84 -67.024 73.988 -61.866 Q79.136 -56.708 82.082 -49.901 Q85.028 -43.094 85.028 -35.23 Q85.028 -27.456 82.081 -20.593 Q79.134 -13.73 73.976 -8.582 Q68.818 -3.434 62.011 -0.488 Q55.204 2.458 47.34 2.458 Z"/></g><g id="Regular-S" transform="matrix(1 0 0 1 1405.73 696)"><path d="M42.409 -30.989  36.535 -36.764 Q35.456 -37.844 34.223 -37.844 Q32.99 -37.844 31.905 -36.759 Q30.82 -35.674 30.82 -34.392 Q30.82 -33.11 31.888 -32.042 L40.091 -23.839 Q41.109 -22.803 42.4 -22.803 Q43.691 -22.803 44.726 -23.839 L62.775 -41.887 Q63.86 -42.972 63.86 -44.254 Q63.86 -45.536 62.775 -46.621 Q61.69 -47.706 60.457 -47.706 Q59.224 -47.706 58.152 -46.634 L42.409 -30.989 Z M47.34 1.656 Q39.755 1.656 33.033 -1.23 Q26.311 -4.116 21.267 -9.17 Q16.224 -14.223 13.339 -20.938 Q10.454 -27.653 10.454 -35.23 Q10.454 -42.914 13.34 -49.586 Q16.226 -56.259 21.28 -61.303 Q26.333 -66.346 33.048 -69.231 Q39.763 -72.116 47.34 -72.116 Q55.024 -72.116 61.696 -69.23 Q68.369 -66.344 73.413 -61.29 Q78.456 -56.237 81.341 -49.571 Q84.226 -42.905 84.226 -35.23 Q84.226 -27.645 81.34 -20.923 Q78.454 -14.201 73.4 -9.157 Q68.347 -4.114 61.681 -1.229 Q55.015 1.656 47.34 1.656 Z"/></g><g id="Light-S" transform="matrix(1 0 0 1 1109.75 696)"><path d="M42.314 -29.642  35.757 -36.119 Q34.944 -36.914 34.109 -36.933 Q33.275 -36.952 32.436 -36.114 Q31.579 -35.257 31.579 -34.392 Q31.579 -33.527 32.419 -32.706 L40.243 -24.882 Q41.147 -23.941 42.307 -23.941 Q43.467 -23.941 44.404 -24.882 L62.187 -42.665 Q62.987 -43.465 63.006 -44.349 Q63.025 -45.233 62.187 -46.09 Q61.33 -46.928 60.514 -46.928 Q59.699 -46.928 58.873 -46.103 L42.314 -29.642 Z M47.349 -0.127 Q40.134 -0.127 33.732 -2.871 Q27.33 -5.616 22.523 -10.426 Q17.717 -15.236 14.977 -21.625 Q12.237 -28.014 12.237 -35.221 Q12.237 -42.534 14.981 -48.887 Q17.726 -55.24 22.536 -60.047 Q27.346 -64.853 33.735 -67.593 Q40.124 -70.333 47.331 -70.333 Q54.644 -70.333 60.997 -67.589 Q67.35 -64.844 72.157 -60.034 Q76.963 -55.224 79.703 -48.884 Q82.443 -42.544 82.443 -35.239 Q82.443 -28.024 79.699 -21.622 Q76.954 -15.22 72.144 -10.413 Q67.334 -5.607 60.994 -2.867 Q54.654 -0.127 47.349 -0.127 Z"/></g><g id="Thin-S" transform="matrix(1 0 0 1 814.015 696)"><path d="M42.219 -28.296  34.98 -35.475 Q34.431 -35.985 33.995 -36.023 Q33.559 -36.061 32.967 -35.469 Q32.338 -34.839 32.338 -34.392 Q32.338 -33.944 32.95 -33.37 L40.395 -25.925 Q41.185 -25.079 42.214 -25.079 Q43.243 -25.079 44.082 -25.925 L61.599 -43.442 Q62.115 -43.958 62.153 -44.444 Q62.191 -44.929 61.599 -45.559 Q60.969 -46.151 60.571 -46.151 Q60.173 -46.151 59.594 -45.572 L42.219 -28.296 Z M47.358 -1.91 Q40.514 -1.91 34.432 -4.512 Q28.349 -7.115 23.779 -11.681 Q19.209 -16.248 16.615 -22.312 Q14.02 -28.376 14.02 -35.212 Q14.02 -42.155 16.622 -48.188 Q19.225 -54.221 23.791 -58.791 Q28.358 -63.361 34.422 -65.955 Q40.486 -68.55 47.322 -68.55 Q54.265 -68.55 60.298 -65.948 Q66.331 -63.345 70.901 -58.779 Q75.471 -54.212 78.065 -48.197 Q80.66 -42.183 80.66 -35.248 Q80.66 -28.404 78.058 -22.322 Q75.455 -16.239 70.889 -11.669 Q66.322 -7.099 60.307 -4.505 Q54.293 -1.91 47.358 -1.91 Z"/></g><g id="Ultralight-S" transform="matrix(1 0 0 1 517.792 696)"><path d="M42.162 -27.488  34.513 -35.088 Q34.124 -35.427 33.927 -35.477 Q33.73 -35.526 33.286 -35.082 Q32.793 -34.589 32.793 -34.392 Q32.793 -34.194 33.269 -33.768 L40.486 -26.551 Q41.207 -25.762 42.158 -25.762 Q43.108 -25.762 43.888 -26.551 L61.246 -43.909 Q61.591 -44.254 61.641 -44.501 Q61.69 -44.747 61.246 -45.24 Q60.753 -45.684 60.605 -45.684 Q60.457 -45.684 60.026 -45.253 L42.162 -27.488 Z M47.363 -2.98 Q40.741 -2.98 34.851 -5.497 Q28.961 -8.014 24.533 -12.435 Q20.105 -16.856 17.597 -22.724 Q15.09 -28.592 15.09 -35.207 Q15.09 -41.927 17.607 -47.768 Q20.124 -53.609 24.545 -58.037 Q28.966 -62.465 34.834 -64.973 Q40.702 -67.48 47.317 -67.48 Q54.037 -67.48 59.878 -64.963 Q65.719 -62.446 70.147 -58.025 Q74.575 -53.604 77.083 -47.785 Q79.59 -41.966 79.59 -35.253 Q79.59 -28.631 77.073 -22.741 Q74.556 -16.851 70.135 -12.423 Q65.714 -7.995 59.895 -5.487 Q54.076 -2.98 47.363 -2.98 Z"/></g></g></svg>