<svg xmlns="http://www.w3.org/2000/svg" version="1.1" width="3300" height="2000"><g id="Notes"><style>
    text {
      font-family: monospace;
      text-anchor: middle;
    }
    text.emphasis {
      font-weight:bold;
    }
    text.lanchor {
      text-anchor: start;
    }
  </style><rect height="2200" id="artboard" fill="white" width="3300" x="0" y="0"/><line id="" style="fill:none;stroke:black;stroke-width:0.5;" x1="263" x2="3036" y1="292" y2="292"/><text class="lanchor emphasis" transform="matrix(1 0 0 1 263 322)">Weight/Scale Variations</text><text transform="matrix(1 0 0 1 559.711 322)">Ultralight</text><text transform="matrix(1 0 0 1 856.422 322)">Thin</text><text transform="matrix(1 0 0 1 1153.13 322)">Light</text><text transform="matrix(1 0 0 1 1449.84 322)">Regular</text><text transform="matrix(1 0 0 1 1746.56 322)">Medium</text><text transform="matrix(1 0 0 1 2043.27 322)">Semibold</text><text transform="matrix(1 0 0 1 2339.98 322)">Bold</text><text transform="matrix(1 0 0 1 2636.69 322)">Heavy</text><text transform="matrix(1 0 0 1 2933.4 322)">Black</text><text id="template-version" style="text-anchor: end;" transform="matrix(1 0 0 1 3036 1933)">Template v.1.0</text><text class="lanchor" transform="matrix(1 0 0 1 263 726)">Small</text><text class="lanchor" transform="matrix(1 0 0 1 263 1156)">Medium</text><text class="lanchor" transform="matrix(1 0 0 1 263 1586)">Large</text></g><g id="Guides"><g id="H-reference" style="fill:#27AAE1;stroke:none;" transform="matrix(1 0 0 1 339 696)"><path d="M 54.9316 0 L 57.666 0 L 30.5664 -70.459 L 28.0762 -70.459 L 0.976562 0 L 3.66211 0 L 12.9395 -24.4629 L 45.7031 -24.4629 Z M 29.1992 -67.0898 L 29.4434 -67.0898 L 44.8242 -26.709 L 13.8184 -26.709 Z"/></g><line id="Baseline-S" style="fill:none;stroke:#27AAE1;opacity:1;stroke-width:0.577;" x1="263" x2="3036" y1="696" y2="696"/><line id="Capline-S" style="fill:none;stroke:#27AAE1;opacity:1;stroke-width:0.577;" x1="263" x2="3036" y1="625.541" y2="625.541"/><g id="H-reference" style="fill:#27AAE1;stroke:none;" transform="matrix(1 0 0 1 339 1126)"><path d="M 54.9316 0 L 57.666 0 L 30.5664 -70.459 L 28.0762 -70.459 L 0.976562 0 L 3.66211 0 L 12.9395 -24.4629 L 45.7031 -24.4629 Z M 29.1992 -67.0898 L 29.4434 -67.0898 L 44.8242 -26.709 L 13.8184 -26.709 Z"/></g><line id="Baseline-M" style="fill:none;stroke:#27AAE1;opacity:1;stroke-width:0.577;" x1="263" x2="3036" y1="1126" y2="1126"/><line id="Capline-M" style="fill:none;stroke:#27AAE1;opacity:1;stroke-width:0.577;" x1="263" x2="3036" y1="1055.54" y2="1055.54"/><g id="H-reference" style="fill:#27AAE1;stroke:none;" transform="matrix(1 0 0 1 339 1556)"><path d="M 54.9316 0 L 57.666 0 L 30.5664 -70.459 L 28.0762 -70.459 L 0.976562 0 L 3.66211 0 L 12.9395 -24.4629 L 45.7031 -24.4629 Z M 29.1992 -67.0898 L 29.4434 -67.0898 L 44.8242 -26.709 L 13.8184 -26.709 Z"/></g><line id="Baseline-L" style="fill:none;stroke:#27AAE1;opacity:1;stroke-width:0.577;" x1="263" x2="3036" y1="1556" y2="1556"/><line id="Capline-L" style="fill:none;stroke:#27AAE1;opacity:1;stroke-width:0.577;" x1="263" x2="3036" y1="1485.54" y2="1485.54"/><rect height="119.336" id="left-margin" style="fill:darkred;stroke:none;opacity:0.4;" width="12.4512" x="1394.06" y="1030.79"/><rect height="119.336" id="right-margin" style="fill:darkgreen;stroke:none;opacity:0.4;" width="12.4512" x="1502.5112" y="1030.79"/><rect x="1406.5112" y="1045" width="96" height="96" fill="none" stroke="blue" stroke-dasharray="5"/><rect x="1394.06" y="1030.79" width="120.9024" height="119.336" fill="none" stroke="blue"/></g><g id="Symbols"><g id="Bold-L" transform="matrix(1 0 0 1 2266 1556)"><path d="M137.466 34.188  17.415 -85.54  25.155 -93.441  145.206 26.609  137.466 34.188 Z M48.456 -10.639 H107.957 L98.685 -19.911 H48.456 V-10.639 Z M32.976 -30.796 H42.248 V-40.067 H32.976 V-30.796 Z M52.971 -30.796 H62.242 V-40.067 H52.971 V-30.796 Z M112.633 -30.796 H121.905 V-40.067 H112.633 V-30.796 Z M32.976 -50.952 H42.248 V-60.224 H32.976 V-50.952 Z M92.799 -50.952 H102.071 V-60.224 H92.799 V-50.952 Z M112.633 -50.952 H121.905 V-60.224 H112.633 V-50.952 Z M22.414 14.999 Q16.291 14.999 11.975 10.603 Q7.659 6.206 7.659 0.245 V-71.108 Q7.659 -76.908 11.653 -81.143 Q15.646 -85.379 21.446 -85.862 H32.572 L133.596 14.999 H22.414 Z M143.674 9.436  102.071 -32.408 V-40.067 H94.089 L82.076 -52.564 V-60.224 H73.691 L48.294 -86.024 H132.467 Q138.589 -86.024 142.986 -81.627 Q147.382 -77.231 147.382 -71.108 V-0.319 Q147.382 2.592 146.375 5.006 Q145.367 7.421 143.674 9.436 Z"/></g><g id="Semibold-L" transform="matrix(1 0 0 1 1970.27 1556)"><path d="M138.167 33.487  18.116 -86.241  25.365 -93.582  145.346 26.399  138.167 33.487 Z M48.456 -10.639 H108.307 L99.036 -19.911 H48.456 V-10.639 Z M32.976 -30.796 H42.248 V-40.067 H32.976 V-30.796 Z M52.971 -30.796 H62.242 V-40.067 H52.971 V-30.796 Z M112.633 -30.796 H121.905 V-40.067 H112.633 V-30.796 Z M32.976 -50.952 H42.248 V-60.224 H32.976 V-50.952 Z M92.799 -50.952 H102.071 V-60.224 H92.799 V-50.952 Z M112.633 -50.952 H121.905 V-60.224 H112.633 V-50.952 Z M22.414 12.616 Q17.343 12.616 13.693 8.885 Q10.043 5.155 10.043 0.245 V-71.108 Q10.043 -75.997 13.511 -79.601 Q16.978 -83.206 21.867 -83.479 H35.377 L131.563 12.616 H22.414 Z M141.641 8.104  102.071 -31.707 V-40.067 H93.388 L82.076 -51.863 V-60.224 H73.06 L50.047 -83.57 H132.467 Q137.538 -83.57 141.233 -79.875 Q144.929 -76.179 144.929 -71.108 V-0.249 Q144.929 2.242 144.026 4.34 Q143.124 6.439 141.641 8.104 Z"/></g><g id="Medium-L" transform="matrix(1 0 0 1 1674.31 1556)"><path d="M138.693 32.961  18.642 -86.767  25.523 -93.687  145.451 26.241  138.693 32.961 Z M48.456 -10.639 H108.57 L99.298 -19.911 H48.456 V-10.639 Z M32.976 -30.796 H42.248 V-40.067 H32.976 V-30.796 Z M52.971 -30.796 H62.242 V-40.067 H52.971 V-30.796 Z M112.633 -30.796 H121.905 V-40.067 H112.633 V-30.796 Z M32.976 -50.952 H42.248 V-60.224 H32.976 V-50.952 Z M92.799 -50.952 H102.071 V-60.224 H92.799 V-50.952 Z M112.633 -50.952 H121.905 V-60.224 H112.633 V-50.952 Z M22.414 10.828 Q18.132 10.828 14.981 7.597 Q11.831 4.366 11.831 0.245 V-71.108 Q11.831 -75.313 14.904 -78.444 Q17.977 -81.575 22.182 -81.691 H37.48 L130.038 10.828 H22.414 Z M140.116 7.105  102.071 -31.181 V-40.067 H92.862 L82.076 -51.337 V-60.224 H72.587 L51.362 -81.73 H132.467 Q136.749 -81.73 139.919 -78.56 Q143.088 -75.39 143.088 -71.108 V-0.197 Q143.088 1.979 142.265 3.841 Q141.441 5.703 140.116 7.105 Z"/></g><g id="Regular-L" transform="matrix(1 0 0 1 1378.56 1556)"><path d="M139.078 32.576  19.027 -87.152  25.639 -93.764  145.528 26.126  139.078 32.576 Z M48.456 -10.639 H108.763 L99.491 -19.911 H48.456 V-10.639 Z M32.976 -30.796 H42.248 V-40.067 H32.976 V-30.796 Z M52.971 -30.796 H62.242 V-40.067 H52.971 V-30.796 Z M112.633 -30.796 H121.905 V-40.067 H112.633 V-30.796 Z M32.976 -50.952 H42.248 V-60.224 H32.976 V-50.952 Z M92.799 -50.952 H102.071 V-60.224 H92.799 V-50.952 Z M112.633 -50.952 H121.905 V-60.224 H112.633 V-50.952 Z M22.414 9.517 Q18.71 9.517 15.926 6.652 Q13.142 3.788 13.142 0.245 V-71.108 Q13.142 -74.812 15.926 -77.596 Q18.71 -80.38 22.414 -80.38 H39.023 L128.919 9.517 H22.414 Z M138.998 6.373  102.071 -30.796 V-40.067 H92.477 L82.076 -50.952 V-60.224 H72.24 L52.326 -80.38 H132.467 Q136.171 -80.38 138.955 -77.596 Q141.739 -74.812 141.739 -71.108 V-0.158 Q141.739 1.786 140.973 3.475 Q140.207 5.163 138.998 6.373 Z"/></g><g id="Light-L" transform="matrix(1 0 0 1 1082.77 1556)"><path d="M138.52 30.622  21.012 -86.625  26.073 -91.686  143.419 25.66  138.52 30.622 Z M50.037 -11.042 H106.778 L97.972 -19.849 H50.037 V-11.042 Z M33.503 -30.951 H42.31 V-39.757 H33.503 V-30.951 Z M53.312 -30.951 H62.118 V-39.757 H53.312 V-30.951 Z M112.54 -30.951 H121.347 V-39.757 H112.54 V-30.951 Z M33.503 -50.921 H42.31 V-59.728 H33.503 V-50.921 Z M92.83 -50.921 H101.637 V-59.728 H92.83 V-50.921 Z M112.54 -50.921 H121.347 V-59.728 H112.54 V-50.921 Z M25.329 6.447 Q21.67 6.447 18.972 3.706 Q16.274 0.965 16.274 -2.608 V-68.1 Q16.274 -71.759 18.972 -74.457 Q21.67 -77.155 25.329 -77.155 H40.604 L124.206 6.447 H25.329 Z M135.927 3.488  101.637 -30.982 V-39.757 H92.601 L81.828 -50.89 V-59.728 H72.55 L55.365 -77.155 H129.521 Q133.179 -77.155 135.877 -74.457 Q138.576 -71.759 138.576 -68.1 V-2.949 Q138.576 -0.943 137.841 0.668 Q137.106 2.279 135.927 3.488 Z"/></g><g id="Thin-L" transform="matrix(1 0 0 1 787.282 1556)"><path d="M137.962 28.668  22.997 -86.098  26.507 -89.608  141.311 25.195  137.962 28.668 Z M51.619 -11.446 H104.794 L96.452 -19.787 H51.619 V-11.446 Z M34.03 -31.106 H42.372 V-39.447 H34.03 V-31.106 Z M53.653 -31.106 H61.994 V-39.447 H53.653 V-31.106 Z M112.447 -31.106 H120.789 V-39.447 H112.447 V-31.106 Z M34.03 -50.89 H42.372 V-59.231 H34.03 V-50.89 Z M92.861 -50.89 H101.203 V-59.231 H92.861 V-50.89 Z M112.447 -50.89 H120.789 V-59.231 H112.447 V-50.89 Z M28.244 3.377 Q24.63 3.377 22.018 0.76 Q19.406 -1.856 19.406 -5.461 V-65.092 Q19.406 -68.706 22.018 -71.318 Q24.63 -73.93 28.244 -73.93 H42.185 L119.493 3.377 H28.244 Z M132.858 0.605  101.203 -31.168 V-39.447 H92.725 L81.58 -50.828 V-59.231 H72.86 L58.403 -73.93 H126.575 Q130.189 -73.93 132.801 -71.318 Q135.413 -68.706 135.413 -65.092 V-5.74 Q135.413 -3.672 134.709 -2.138 Q134.005 -0.605 132.858 0.605 Z"/></g><g id="Ultralight-L" transform="matrix(1 0 0 1 491.205 1556)"><path d="M137.627 27.496  24.188 -85.782  26.768 -88.362  140.046 24.916  137.627 27.496 Z M52.568 -11.687 H103.603 L95.541 -19.75 H52.568 V-11.687 Z M34.346 -31.199 H42.409 V-39.261 H34.346 V-31.199 Z M53.858 -31.199 H61.92 V-39.261 H53.858 V-31.199 Z M112.391 -31.199 H120.454 V-39.261 H112.391 V-31.199 Z M34.346 -50.871 H42.409 V-58.934 H34.346 V-50.871 Z M92.88 -50.871 H100.943 V-58.934 H92.88 V-50.871 Z M112.391 -50.871 H120.454 V-58.934 H112.391 V-50.871 Z M29.992 1.535 Q26.406 1.535 23.845 -1.007 Q21.285 -3.549 21.285 -7.172 V-63.287 Q21.285 -66.874 23.845 -69.435 Q26.406 -71.995 29.992 -71.995 H43.134 L116.664 1.535 H29.992 Z M131.016 -1.126  100.943 -31.279 V-39.261 H92.799 L81.431 -50.791 V-58.934 H73.046 L60.227 -71.995 H124.808 Q128.394 -71.995 130.955 -69.435 Q133.515 -66.874 133.515 -63.287 V-7.414 Q133.515 -5.309 132.83 -3.822 Q132.144 -2.335 131.016 -1.126 Z"/></g><g id="Bold-M" transform="matrix(1 0 0 1 2281.8 1126)"><path d="M98.938 18.27  8.625 -72.042  16.5 -79.917  106.812 10.395  98.938 18.27 Z M40.125 -15.855 H80.562 L71.188 -25.23 H40.125 V-15.855 Z M25.375 -30.855 H34.75 V-40.23 H25.375 V-30.855 Z M40.375 -30.855 H49.75 V-40.23 H40.375 V-30.855 Z M85.375 -30.855 H94.75 V-40.23 H85.375 V-30.855 Z M25.375 -45.855 H34.75 V-55.23 H25.375 V-45.855 Z M70.375 -45.855 H79.75 V-55.23 H70.375 V-45.855 Z M85.375 -45.855 H94.75 V-55.23 H85.375 V-45.855 Z M19.75 4.895 Q13.383 4.895 9.004 0.516 Q4.625 -3.863 4.625 -10.23 V-60.855 Q4.625 -66.972 8.629 -71.226 Q12.633 -75.48 18.75 -75.855 H20.438 L101.312 4.895 H19.75 Z M111.812 -0.417  79.75 -32.542 V-40.23 H71.938 L64.75 -47.542 V-55.23 H56.875 L36.312 -75.98 H100.375 Q106.742 -75.98 111.121 -71.601 Q115.5 -67.222 115.5 -60.855 V-10.292 Q115.5 -7.41 114.469 -4.945 Q113.438 -2.48 111.812 -0.417 Z"/></g><g id="Semibold-M" transform="matrix(1 0 0 1 1985.97 1126)"><path d="M99.644 17.509  9.386 -72.749  16.717 -80.08  106.975 10.178  99.644 17.509 Z M40.125 -15.855 H80.943 L71.568 -25.23 H40.125 V-15.855 Z M25.375 -30.855 H34.75 V-40.23 H25.375 V-30.855 Z M40.375 -30.855 H49.75 V-40.23 H40.375 V-30.855 Z M85.375 -30.855 H94.75 V-40.23 H85.375 V-30.855 Z M25.375 -45.855 H34.75 V-55.23 H25.375 V-45.855 Z M70.375 -45.855 H79.75 V-55.23 H70.375 V-45.855 Z M85.375 -45.855 H94.75 V-55.23 H85.375 V-45.855 Z M19.75 2.395 Q14.47 2.395 10.797 -1.277 Q7.125 -4.95 7.125 -10.23 V-60.855 Q7.125 -65.994 10.585 -69.596 Q14.046 -73.197 19.185 -73.409 H23.318 L99.193 2.395 H19.75 Z M109.693 -1.776  79.75 -31.836 V-40.23 H71.231 L64.75 -46.836 V-55.23 H56.223 L38.106 -73.48 H100.375 Q105.655 -73.48 109.328 -69.808 Q113 -66.135 113 -60.855 V-10.238 Q113 -7.737 112.078 -5.625 Q111.155 -3.512 109.693 -1.776 Z"/></g><g id="Medium-M" transform="matrix(1 0 0 1 1689.91 1126)"><path d="M100.174 16.939  9.957 -73.279  16.88 -80.203  107.098 10.015  100.174 16.939 Z M40.125 -15.855 H81.228 L71.853 -25.23 H40.125 V-15.855 Z M25.375 -30.855 H34.75 V-40.23 H25.375 V-30.855 Z M40.375 -30.855 H49.75 V-40.23 H40.375 V-30.855 Z M85.375 -30.855 H94.75 V-40.23 H85.375 V-30.855 Z M25.375 -45.855 H34.75 V-55.23 H25.375 V-45.855 Z M70.375 -45.855 H79.75 V-55.23 H70.375 V-45.855 Z M85.375 -45.855 H94.75 V-55.23 H85.375 V-45.855 Z M19.75 0.52 Q15.285 0.52 12.143 -2.622 Q9 -5.765 9 -10.23 V-60.855 Q9 -65.26 12.053 -68.373 Q15.106 -71.485 19.511 -71.575 H25.478 L97.603 0.52 H19.75 Z M108.103 -2.795  79.75 -31.306 V-40.23 H70.701 L64.75 -46.306 V-55.23 H55.734 L39.451 -71.605 H100.375 Q104.84 -71.605 107.983 -68.462 Q111.125 -65.32 111.125 -60.855 V-10.197 Q111.125 -7.981 110.284 -6.134 Q109.443 -4.287 108.103 -2.795 Z"/></g><g id="Regular-M" transform="matrix(1 0 0 1 1394.06 1126)"><path d="M100.562 16.52  10.375 -73.667  17 -80.292  107.188 9.895  100.562 16.52 Z M40.125 -15.855 H81.438 L72.062 -25.23 H40.125 V-15.855 Z M25.375 -30.855 H34.75 V-40.23 H25.375 V-30.855 Z M40.375 -30.855 H49.75 V-40.23 H40.375 V-30.855 Z M85.375 -30.855 H94.75 V-40.23 H85.375 V-30.855 Z M25.375 -45.855 H34.75 V-55.23 H25.375 V-45.855 Z M70.375 -45.855 H79.75 V-55.23 H70.375 V-45.855 Z M85.375 -45.855 H94.75 V-55.23 H85.375 V-45.855 Z M19.75 -0.855 Q15.883 -0.855 13.129 -3.609 Q10.375 -6.363 10.375 -10.23 V-60.855 Q10.375 -64.722 13.129 -67.476 Q15.883 -70.23 19.75 -70.23 H27.062 L96.438 -0.855 H19.75 Z M106.938 -3.542  79.75 -30.917 V-40.23 H70.312 L64.75 -45.917 V-55.23 H55.375 L40.438 -70.23 H100.375 Q104.242 -70.23 106.996 -67.476 Q109.75 -64.722 109.75 -60.855 V-10.167 Q109.75 -8.16 108.969 -6.508 Q108.188 -4.855 106.938 -3.542 Z"/></g><g id="Light-M" transform="matrix(1 0 0 1 1098.18 1126)"><path d="M102.245 15.102  13.5 -73.643  18.442 -78.586  107.188 10.16  102.245 15.102 Z M40.678 -16.312 H80.716 L72.375 -24.653 H40.678 V-16.312 Z M25.88 -31.312 H34.221 V-39.653 H25.88 V-31.312 Z M40.88 -31.312 H49.221 V-39.653 H40.88 V-31.312 Z M85.88 -31.312 H94.221 V-39.653 H85.88 V-31.312 Z M25.88 -46.312 H34.221 V-54.653 H25.88 V-46.312 Z M70.88 -46.312 H79.221 V-54.653 H70.88 V-46.312 Z M85.88 -46.312 H94.221 V-54.653 H85.88 V-46.312 Z M21.337 -3.235 Q17.782 -3.235 15.293 -5.724 Q12.803 -8.214 12.803 -11.769 V-59.196 Q12.803 -62.751 15.293 -65.24 Q17.782 -67.73 21.337 -67.73 H29.298 L93.793 -3.235 H21.337 Z M104.75 -5.682  79.221 -31.35 V-39.653 H70.793 L64.221 -46.35 V-54.653 H55.808 L42.842 -67.73 H98.764 Q102.319 -67.73 104.808 -65.24 Q107.298 -62.751 107.298 -59.196 V-11.754 Q107.298 -9.891 106.589 -8.371 Q105.88 -6.85 104.75 -5.682 Z"/></g><g id="Thin-M" transform="matrix(1 0 0 1 802.565 1126)"><path d="M103.928 13.684  16.625 -73.619  19.885 -76.879  107.188 10.424  103.928 13.684 Z M41.231 -16.768 H79.995 L72.688 -24.076 H41.231 V-16.768 Z M26.385 -31.768 H33.692 V-39.076 H26.385 V-31.768 Z M41.385 -31.768 H48.692 V-39.076 H41.385 V-31.768 Z M86.385 -31.768 H93.692 V-39.076 H86.385 V-31.768 Z M26.385 -46.768 H33.692 V-54.076 H26.385 V-46.768 Z M71.385 -46.768 H78.692 V-54.076 H71.385 V-46.768 Z M86.385 -46.768 H93.692 V-54.076 H86.385 V-46.768 Z M22.923 -5.615 Q19.681 -5.615 17.456 -7.84 Q15.231 -10.065 15.231 -13.307 V-57.538 Q15.231 -60.78 17.456 -63.005 Q19.681 -65.23 22.923 -65.23 H31.534 L91.149 -5.615 H22.923 Z M102.562 -7.821  78.692 -31.783 V-39.076 H71.274 L63.692 -46.783 V-54.076 H56.24 L45.245 -65.23 H97.154 Q100.396 -65.23 102.621 -63.005 Q104.846 -60.78 104.846 -57.538 V-13.34 Q104.846 -11.622 104.209 -10.234 Q103.572 -8.845 102.562 -7.821 Z"/></g><g id="Ultralight-M" transform="matrix(1 0 0 1 506.415 1126)"><path d="M104.938 12.833  18.5 -73.605  20.75 -75.855  107.188 10.583  104.938 12.833 Z M41.562 -17.042 H79.562 L72.875 -23.73 H41.562 V-17.042 Z M26.688 -32.042 H33.375 V-38.73 H26.688 V-32.042 Z M41.688 -32.042 H48.375 V-38.73 H41.688 V-32.042 Z M86.688 -32.042 H93.375 V-38.73 H86.688 V-32.042 Z M26.688 -47.042 H33.375 V-53.73 H26.688 V-47.042 Z M71.688 -47.042 H78.375 V-53.73 H71.688 V-47.042 Z M86.688 -47.042 H93.375 V-53.73 H86.688 V-47.042 Z M23.875 -7.042 Q20.82 -7.042 18.754 -9.109 Q16.688 -11.175 16.688 -14.23 V-56.542 Q16.688 -59.597 18.754 -61.664 Q20.82 -63.73 23.875 -63.73 H32.875 L89.562 -7.042 H23.875 Z M101.25 -9.105  78.375 -32.042 V-38.73 H71.562 L63.375 -47.042 V-53.73 H56.5 L46.688 -63.73 H96.188 Q99.242 -63.73 101.309 -61.664 Q103.375 -59.597 103.375 -56.542 V-14.292 Q103.375 -12.66 102.781 -11.351 Q102.188 -10.042 101.25 -9.105 Z"/></g><g id="Bold-S" transform="matrix(1 0 0 1 2294.23 696)"><path d="M76.089 3.332  10.454 -62.303  15.977 -67.924  81.711 -2.191  76.089 3.332 Z M33.237 -21.521 H62.479 L55.871 -28.129 H33.237 V-21.521 Z M23.966 -33.356 H30.574 V-39.964 H23.966 V-33.356 Z M34.026 -33.356 H40.634 V-39.964 H34.026 V-33.356 Z M64.205 -33.356 H70.813 V-39.964 H64.205 V-33.356 Z M23.966 -42.824 H30.574 V-49.432 H23.966 V-42.824 Z M54.145 -42.824 H60.753 V-49.432 H54.145 V-42.824 Z M64.205 -42.824 H70.813 V-49.432 H64.205 V-42.824 Z M16.372 -7.516 Q11.674 -7.516 8.45 -10.74 Q5.227 -13.963 5.227 -18.661 V-52.292 Q5.227 -56.793 8.154 -59.918 Q11.082 -63.042 15.583 -63.338 H20.563 L76.484 -7.516 H16.372 Z M85.261 -10.229  60.753 -34.688 V-39.964 H55.378 L50.693 -44.747 V-49.432 H45.762 L32.004 -63.437 H78.397 Q83.135 -63.437 86.343 -60.214 Q89.552 -56.99 89.552 -52.292 V-18.809 Q89.552 -16.163 88.343 -13.911 Q87.135 -11.659 85.261 -10.229 Z"/></g><g id="Semibold-S" transform="matrix(1 0 0 1 1998.1 696)"><path d="M76.647 2.732  11.055 -62.86  16.149 -68.053  81.839 -2.362  76.647 2.732 Z M33.237 -21.521 H62.779 L56.171 -28.129 H33.237 V-21.521 Z M23.966 -33.356 H30.574 V-39.964 H23.966 V-33.356 Z M34.026 -33.356 H40.634 V-39.964 H34.026 V-33.356 Z M64.205 -33.356 H70.813 V-39.964 H64.205 V-33.356 Z M23.966 -42.824 H30.574 V-49.432 H23.966 V-42.824 Z M54.145 -42.824 H60.753 V-49.432 H54.145 V-42.824 Z M64.205 -42.824 H70.813 V-49.432 H64.205 V-42.824 Z M16.372 -9.489 Q12.531 -9.489 9.865 -12.155 Q7.2 -14.82 7.2 -18.661 V-52.292 Q7.2 -56.021 9.698 -58.631 Q12.197 -61.241 15.926 -61.409 H22.836 L74.812 -9.489 H16.372 Z M83.589 -11.301  60.753 -34.13 V-39.964 H54.821 L50.693 -44.19 V-49.432 H45.247 L33.419 -61.464 H78.397 Q82.277 -61.464 84.928 -58.799 Q87.579 -56.133 87.579 -52.292 V-18.766 Q87.579 -16.42 86.457 -14.447 Q85.334 -12.473 83.589 -11.301 Z"/></g><g id="Medium-S" transform="matrix(1 0 0 1 1701.85 696)"><path d="M77.065 2.282  11.505 -63.278  16.277 -68.149  81.936 -2.491  77.065 2.282 Z M33.237 -21.521 H63.004 L56.396 -28.129 H33.237 V-21.521 Z M23.966 -33.356 H30.574 V-39.964 H23.966 V-33.356 Z M34.026 -33.356 H40.634 V-39.964 H34.026 V-33.356 Z M64.205 -33.356 H70.813 V-39.964 H64.205 V-33.356 Z M23.966 -42.824 H30.574 V-49.432 H23.966 V-42.824 Z M54.145 -42.824 H60.753 V-49.432 H54.145 V-42.824 Z M64.205 -42.824 H70.813 V-49.432 H64.205 V-42.824 Z M16.372 -10.968 Q13.174 -10.968 10.927 -13.216 Q8.679 -15.464 8.679 -18.661 V-52.292 Q8.679 -55.442 10.856 -57.666 Q13.033 -59.891 16.183 -59.961 H24.54 L73.557 -10.968 H16.372 Z M82.335 -12.105  60.753 -33.712 V-39.964 H54.402 L50.693 -43.772 V-49.432 H44.862 L34.48 -59.985 H78.397 Q81.634 -59.985 83.867 -57.737 Q86.1 -55.49 86.1 -52.292 V-18.734 Q86.1 -16.613 85.042 -14.849 Q83.984 -13.084 82.335 -12.105 Z"/></g><g id="Regular-S" transform="matrix(1 0 0 1 1405.73 696)"><path d="M77.371 1.952  11.835 -63.585  16.372 -68.22  82.007 -2.585  77.371 1.952 Z M33.237 -21.521 H63.169 L56.561 -28.129 H33.237 V-21.521 Z M23.966 -33.356 H30.574 V-39.964 H23.966 V-33.356 Z M34.026 -33.356 H40.634 V-39.964 H34.026 V-33.356 Z M64.205 -33.356 H70.813 V-39.964 H64.205 V-33.356 Z M23.966 -42.824 H30.574 V-49.432 H23.966 V-42.824 Z M54.145 -42.824 H60.753 V-49.432 H54.145 V-42.824 Z M64.205 -42.824 H70.813 V-49.432 H64.205 V-42.824 Z M16.372 -12.053 Q13.646 -12.053 11.705 -13.994 Q9.764 -15.935 9.764 -18.661 V-52.292 Q9.764 -55.018 11.705 -56.959 Q13.646 -58.9 16.372 -58.9 H25.79 L72.637 -12.053 H16.372 Z M81.415 -12.694  60.753 -33.405 V-39.964 H54.096 L50.693 -43.465 V-49.432 H44.579 L35.258 -58.9 H78.397 Q81.162 -58.9 83.089 -56.959 Q85.015 -55.018 85.015 -52.292 V-18.71 Q85.015 -16.754 84.004 -15.143 Q82.993 -13.532 81.415 -12.694 Z"/></g><g id="Light-S" transform="matrix(1 0 0 1 1109.75 696)"><path d="M78.699 0.833  14.301 -63.566  17.51 -66.873  82.007 -2.376  78.699 0.833 Z M33.673 -21.882 H62.6 L56.808 -27.674 H33.673 V-21.882 Z M24.364 -33.717 H30.156 V-39.509 H24.364 V-33.717 Z M34.424 -33.717 H40.216 V-39.509 H34.424 V-33.717 Z M64.603 -33.717 H70.395 V-39.509 H64.603 V-33.717 Z M24.364 -43.185 H30.156 V-48.977 H24.364 V-43.185 Z M54.543 -43.185 H60.336 V-48.977 H54.543 V-43.185 Z M64.603 -43.185 H70.395 V-48.977 H64.603 V-43.185 Z M17.624 -13.931 Q15.144 -13.931 13.412 -15.663 Q11.68 -17.396 11.68 -19.875 V-50.983 Q11.68 -53.463 13.412 -55.195 Q15.144 -56.927 17.624 -56.927 H27.554 L70.551 -13.931 H17.624 Z M79.689 -14.382  60.336 -33.747 V-39.509 H54.475 L50.276 -43.807 V-48.977 H44.92 L37.155 -56.927 H77.126 Q79.645 -56.927 81.362 -55.195 Q83.08 -53.463 83.08 -50.983 V-19.962 Q83.08 -18.12 82.126 -16.613 Q81.172 -15.107 79.689 -14.382 Z"/></g><g id="Thin-S" transform="matrix(1 0 0 1 814.015 696)"><path d="M80.027 -0.286  16.766 -63.547  18.648 -65.527  82.007 -2.168  80.027 -0.286 Z M34.109 -22.242 H62.031 L57.055 -27.219 H34.109 V-22.242 Z M24.762 -34.077 H29.739 V-39.054 H24.762 V-34.077 Z M34.822 -34.077 H39.799 V-39.054 H34.822 V-34.077 Z M65.001 -34.077 H69.978 V-39.054 H65.001 V-34.077 Z M24.762 -43.545 H29.739 V-48.522 H24.762 V-43.545 Z M54.942 -43.545 H59.919 V-48.522 H54.942 V-43.545 Z M65.001 -43.545 H69.978 V-48.522 H65.001 V-43.545 Z M18.875 -15.808 Q16.643 -15.808 15.119 -17.332 Q13.595 -18.856 13.595 -21.089 V-49.675 Q13.595 -51.907 15.119 -53.431 Q16.643 -54.955 18.875 -54.955 H29.318 L68.465 -15.808 H18.875 Z M77.963 -16.07  59.919 -34.088 V-39.054 H54.854 L49.859 -44.148 V-48.522 H45.261 L39.052 -54.955 H75.856 Q78.128 -54.955 79.637 -53.431 Q81.146 -51.907 81.146 -49.675 V-21.214 Q81.146 -19.485 80.248 -18.083 Q79.351 -16.681 77.963 -16.07 Z"/></g><g id="Ultralight-S" transform="matrix(1 0 0 1 517.792 696)"><path d="M80.823 -0.958  18.246 -63.535  19.331 -64.719  82.007 -2.043  80.823 -0.958 Z M34.371 -22.458 H61.69 L57.203 -26.945 H34.371 V-22.458 Z M25.001 -34.293 H29.489 V-38.78 H25.001 V-34.293 Z M35.061 -34.293 H39.549 V-38.78 H35.061 V-34.293 Z M65.24 -34.293 H69.728 V-38.78 H65.24 V-34.293 Z M25.001 -43.761 H29.489 V-48.248 H25.001 V-43.761 Z M55.181 -43.761 H59.668 V-48.248 H55.181 V-43.761 Z M65.24 -43.761 H69.728 V-48.248 H65.24 V-43.761 Z M19.626 -16.935 Q17.542 -16.935 16.143 -18.334 Q14.744 -19.732 14.744 -21.817 V-48.89 Q14.744 -50.974 16.143 -52.373 Q17.542 -53.771 19.626 -53.771 H30.377 L67.213 -16.935 H19.626 Z M76.928 -17.083  59.668 -34.293 V-38.78 H55.082 L49.608 -44.353 V-48.248 H45.466 L40.19 -53.771 H75.093 Q77.217 -53.771 78.601 -52.373 Q79.985 -50.974 79.985 -48.89 V-21.965 Q79.985 -20.305 79.122 -18.965 Q78.259 -17.625 76.928 -17.083 Z"/></g></g></svg>