<svg xmlns="http://www.w3.org/2000/svg" height="48" viewBox="0 -960 960 960" width="48"><path d="M407.059-287.616q110.018 0 187.595-77.698 77.576-77.699 77.576-187.917 0-109.993-77.576-187.189-77.577-77.195-187.595-77.195T220.021-736.42Q143-655.224 143-553.231q0 110.218 77.101 187.917 77.1 77.698 186.958 77.698Zm.29-167.154q-12.247 0-20.336-8.524-8.089-8.523-8.089-21.167v-183.693q0-11.819 8.285-20.255 8.284-8.436 20.532-8.436 12.247 0 20.907 8.436 8.659 8.436 8.659 20.255v184.693q0 12.194-8.855 20.442-8.855 8.249-21.103 8.249Zm-142.7 0q-12.113 0-20.111-8.524-7.999-8.523-7.999-21.167v-101.385q0-12.194 8.194-20.443 8.195-8.249 20.308-8.249t20.497 8.249q8.385 8.249 8.385 20.443v102.385q0 12.194-8.58 20.442-8.58 8.249-20.694 8.249Zm286.154 0q-12.114 0-20.112-8.524-7.998-8.523-7.998-21.167v-60.154q0-12.194 8.194-20.443t20.307-8.249q12.113 0 20.498 8.249 8.384 8.249 8.384 20.443v61.154q0 12.194-8.58 20.442-8.58 8.249-20.693 8.249ZM407-230.001q-133.785 0-228.084-94.67-94.3-94.669-94.3-228.588 0-135.073 94.077-228.906 94.076-93.834 228.541-93.834 134.143 0 228.761 93.995 94.619 93.995 94.619 228.02 0 60.396-20.466 113.513-20.466 53.116-56.38 95.624l201.616 198.616q8.692 8.564 8.884 20.743.192 12.179-8.942 21.564-8.135 8.384-20 8.192-11.865-.192-20.557-8.884L612.153-303.848q-42.376 34.037-94.665 53.942Q465.2-230.001 407-230.001Z"/></svg>