<svg xmlns="http://www.w3.org/2000/svg" height="20" viewBox="0 -960 960 960" width="20"><path d="M409.615-312.038q98.885 0 168.481-69.555Q647.692-451.147 647.692-550q0-99.045-69.596-168.503-69.596-69.459-168.481-69.459-98.884 0-167.98 69.459Q172.538-649.045 172.538-550q0 98.853 69.097 168.407 69.096 69.555 167.98 69.555Zm.697-129.655q-9.85 0-17.062-7.071-7.211-7.071-7.211-17.005v-212q0-9.742 7.014-16.813 7.015-7.071 16.865-7.071 9.659 0 16.87 7.071t7.211 16.813v212q0 9.934-7.014 17.005t-16.673 7.071Zm-126.499 0q-9.851 0-17.062-7.071-7.212-7.071-7.212-17.005v-119.039q0-9.934 7.015-17.005 7.014-7.071 16.864-7.071 9.659 0 16.87 7.071t7.211 17.005v119.039q0 9.934-7.014 17.005t-16.672 7.071Zm253.307 0q-9.851 0-16.966-7.046-7.115-7.045-7.115-16.943v-72.44q0-9.897 6.918-17.118 6.918-7.221 16.769-7.221 9.85 0 17.062 7.046 7.211 7.046 7.211 16.943v72.44q0 9.897-7.014 17.118-7.014 7.221-16.865 7.221ZM409.956-264.848q-119.186 0-202.282-83.4t-83.096-202.076q0-118.868 83.304-202.233 83.304-83.365 201.672-83.365 118.676 0 202.387 83.096t83.711 202.782q0 52.195-17.884 99.102-17.885 46.908-49.577 84.403l191.654 191.962q7.808 7.872 7.962 16.147.154 8.276-7.962 16.583-8.115 8.5-17.115 8.308-8.999-.193-17.114-8.5l-191.27-190.27q-37.88 31.885-85.038 49.673-47.157 17.788-99.352 17.788Z"/></svg>