<svg xmlns="http://www.w3.org/2000/svg" height="40" viewBox="0 -960 960 960" width="40"><path d="M671.333-478.667Zm6.667 24q-5.1 0-8.55-3.497-3.45-3.497-3.45-8.666 0-5.17 3.45-8.503 3.45-3.334 8.55-3.334h166.667q-.334-21.333-8.167-35.166-7.833-13.834-26.167-22.5Q777-554 744.5-562.667q-32.5-8.666-77.5-8.666-12.667 0-24.5 1t-23.833 3q-5.334 1-8.667-2.846-3.333-3.845-3.333-8.333 0-4.488 3.666-8.155 3.667-3.666 9-4.666 12-2 23.5-3t24.167-1q47.333 0 82.5 9t70.833 27q25 13.666 36.334 31.5Q868-510 868-481v1.333q0 10.625-7.188 17.813-7.187 7.187-17.812 7.187H678ZM667.059-648Q630-648 604-674.25T578-738q0-37.5 25.941-63.75t63-26.25Q704-828 730-801.75T756-738q0 37.5-25.941 63.75t-63 26.25Zm-.03-24q27.638 0 46.304-18.898Q732-709.795 732-737.731t-18.696-47.102Q694.608-804 666.971-804q-27.638 0-46.304 18.898Q602-766.205 602-738.269t18.696 47.102Q639.392-672 667.029-672ZM667-738ZM288.667-478.667Zm-171.667 24q-10.625 0-17.813-7.187Q92-469.042 92-479.667V-481q0-29 11.333-46.833 11.334-17.834 37-31.5 35-18 70.167-27t82.5-9q12.667 0 24.167 1 11.5 1 24.166 3 4.667 1 8.334 4.666 3.666 3.667 3.666 8.155 0 4.488-3.333 8.333-3.333 3.846-8.667 2.846-12-2-23.833-3-11.833-1-24.5-1-45 0-77.5 8.666Q183-554 149.667-536.333q-18.334 8.666-26.167 22.5-7.833 13.833-8.167 35.166H282q5.1 0 8.55 3.498 3.45 3.497 3.45 8.666 0 5.17-3.45 8.503t-8.55 3.333H117ZM293.059-648Q256-648 230-674.25T204-738q0-37.5 25.941-63.75t63-26.25Q330-828 356-801.75T382-738q0 37.5-25.941 63.75t-63 26.25Zm-.03-24q27.638 0 46.304-18.898Q358-709.795 358-737.731t-18.696-47.102Q320.608-804 292.971-804q-27.638 0-46.304 18.898Q228-766.205 228-738.269t18.696 47.102Q265.392-672 293.029-672ZM293-738Zm186.888 414.333q-21.221 0-35.055-14.412Q431-352.492 431-373.667v-114.666q0-20.584 13.945-35.292 13.946-14.708 35.167-14.708 21.221 0 35.055 14.708Q529-508.917 529-488.333v114.666q0 21.175-13.945 35.588-13.946 14.412-35.167 14.412ZM480.047-132q-5.38 0-8.714-3.3Q468-138.6 468-144v-65q-60-4.333-101.833-47.667Q324.333-300 319.333-362.333q-.333-5.334 3.167-8.334t8.321-3q4.554 0 7.867 4 3.312 4 4.312 9.334 4.333 53.666 43.133 91Q424.934-232 480.007-232q55.074 0 93.867-37.333 38.793-37.334 43.126-91 1.035-5.75 4.777-9.542 3.743-3.792 8.89-3.792 4.458 0 7.895 3 3.438 3 3.105 8.334-5 62.333-47.334 105.666Q552-213.333 492-209v65q0 5.4-3.287 8.7-3.287 3.3-8.666 3.3Z"/></svg>