<svg xmlns="http://www.w3.org/2000/svg" height="40" viewBox="0 -960 960 960" width="40"><path d="M692.076-468.372Zm23.435 47.883q-10.231 0-16.955-6.763-6.724-6.763-6.724-17.05 0-10.288 6.724-17.179 6.724-6.891 16.955-6.891h131.976q-.923-14.859-8.553-26.099-7.631-11.241-21.505-18.271-32.916-17.272-67.807-25.778-34.891-8.507-76.526-8.917-8.936 0-17.048.385-8.113.384-16.793 1.154-10.012.384-16.538-6.074-6.525-6.459-6.525-16.288 0-9.83 6.833-16.99 6.833-7.16 16.846-7.891 8.397-1 16.391-1.59 7.994-.589 16.923-.589 46.815 0 86.973 9.961 40.158 9.962 78.995 29.333 27.359 14.706 41.731 36.423 14.371 21.718 14.371 50.974v19.461q0 12.356-8.353 20.518-8.354 8.161-20.326 8.161H715.511Zm-42.504-221.639q-43.93 0-75.007-31.291-31.076-31.291-31.076-75.391 0-44.099 31.171-75.272 31.172-31.173 75.102-31.173 43.931 0 75.007 31.29 31.077 31.291 31.077 75.391 0 44.1-31.172 75.273-31.171 31.173-75.102 31.173Zm.107-47.884q24.355 0 41.319-17.053 16.965-17.053 16.965-41.523 0-24.47-16.976-41.627-16.976-17.157-41.331-17.157-24.355 0-41.32 17.053-16.964 17.054-16.964 41.524 0 24.47 16.975 41.627 16.976 17.156 41.332 17.156Zm-.012-58.68Zm-405.178 280.32ZM93.95-420.489q-12.548 0-20.877-8.161-8.328-8.162-8.328-20.518v-19.461q0-29.256 14.353-50.971 14.354-21.716 42.531-36.426 38.09-19.282 78.231-29.288Q240-595.32 286.815-595.32q8.929 0 16.923.589 7.994.59 17.293 1.415 9.111.906 16.207 8.066 7.096 7.16 7.096 16.99 0 9.829-6.837 16.288-6.836 6.458-16.687 6.074-8.655-.77-16.861-1.154-8.205-.385-17.131-.385-41.549.41-76.44 8.917-34.891 8.506-67.807 25.778-13.874 7.03-21.505 18.271-7.63 11.24-8.553 26.099h131.976q10.231 0 17.218 7.026t6.987 17.313q0 10.288-6.987 16.916t-17.218 6.628H93.949Zm192.853-221.639q-43.931 0-75.007-31.291-31.077-31.291-31.077-75.391 0-44.099 31.172-75.272 31.171-31.173 75.102-31.173 43.93 0 75.007 31.29 31.076 31.291 31.076 75.391 0 44.1-31.171 75.273-31.172 31.173-75.102 31.173Zm.106-47.884q24.355 0 41.32-17.053 16.964-17.053 16.964-41.523 0-24.47-16.976-41.627-16.975-17.157-41.331-17.157-24.355 0-41.319 17.053-16.965 17.054-16.965 41.524 0 24.47 16.976 41.627 16.976 17.156 41.331 17.156Zm-.011-58.68ZM480.08-300.873q-26.057 0-44.094-18.389-18.037-18.389-18.037-44.572v-117.388q0-25.823 18.045-44.345 18.044-18.522 44.013-18.522 26.223 0 44.384 18.499 18.159 18.499 18.159 44.436v117.32q0 26.183-18.207 44.572-18.207 18.389-44.263 18.389Zm.284 196.128q-7.723 0-12.806-5.096-5.083-5.096-5.083-12.955v-61.577q-63.757-6.115-108.481-51.218-44.724-45.102-51.365-109.961-.423-7.756 4.387-13.019t12.557-5.263q7.55 0 12.541 5.691 4.991 5.691 6.232 13.04 6.397 53.333 46.524 89.859 40.126 36.526 95.133 36.526t95.13-36.526q40.124-36.526 46.491-89.676 1.248-7.933 6.416-13.423 5.167-5.491 12.96-5.491 7.607 0 12.393 5.263 4.786 5.263 4.363 13.019-6.334 64.859-51.321 109.961-44.987 45.103-108.41 51.218v61.577q0 7.859-5.158 12.955-5.159 5.096-12.503 5.096Z"/></svg>