<svg xmlns="http://www.w3.org/2000/svg" version="1.1" width="3300" height="2000"><g id="Notes"><style>
    text {
      font-family: monospace;
      text-anchor: middle;
    }
    text.emphasis {
      font-weight:bold;
    }
    text.lanchor {
      text-anchor: start;
    }
  </style><rect height="2200" id="artboard" fill="white" width="3300" x="0" y="0"/><line id="" style="fill:none;stroke:black;stroke-width:0.5;" x1="263" x2="3036" y1="292" y2="292"/><text class="lanchor emphasis" transform="matrix(1 0 0 1 263 322)">Weight/Scale Variations</text><text transform="matrix(1 0 0 1 559.711 322)">Ultralight</text><text transform="matrix(1 0 0 1 856.422 322)">Thin</text><text transform="matrix(1 0 0 1 1153.13 322)">Light</text><text transform="matrix(1 0 0 1 1449.84 322)">Regular</text><text transform="matrix(1 0 0 1 1746.56 322)">Medium</text><text transform="matrix(1 0 0 1 2043.27 322)">Semibold</text><text transform="matrix(1 0 0 1 2339.98 322)">Bold</text><text transform="matrix(1 0 0 1 2636.69 322)">Heavy</text><text transform="matrix(1 0 0 1 2933.4 322)">Black</text><text id="template-version" style="text-anchor: end;" transform="matrix(1 0 0 1 3036 1933)">Template v.1.0</text><text class="lanchor" transform="matrix(1 0 0 1 263 726)">Small</text><text class="lanchor" transform="matrix(1 0 0 1 263 1156)">Medium</text><text class="lanchor" transform="matrix(1 0 0 1 263 1586)">Large</text></g><g id="Guides"><g id="H-reference" style="fill:#27AAE1;stroke:none;" transform="matrix(1 0 0 1 339 696)"><path d="M 54.9316 0 L 57.666 0 L 30.5664 -70.459 L 28.0762 -70.459 L 0.976562 0 L 3.66211 0 L 12.9395 -24.4629 L 45.7031 -24.4629 Z M 29.1992 -67.0898 L 29.4434 -67.0898 L 44.8242 -26.709 L 13.8184 -26.709 Z"/></g><line id="Baseline-S" style="fill:none;stroke:#27AAE1;opacity:1;stroke-width:0.577;" x1="263" x2="3036" y1="696" y2="696"/><line id="Capline-S" style="fill:none;stroke:#27AAE1;opacity:1;stroke-width:0.577;" x1="263" x2="3036" y1="625.541" y2="625.541"/><g id="H-reference" style="fill:#27AAE1;stroke:none;" transform="matrix(1 0 0 1 339 1126)"><path d="M 54.9316 0 L 57.666 0 L 30.5664 -70.459 L 28.0762 -70.459 L 0.976562 0 L 3.66211 0 L 12.9395 -24.4629 L 45.7031 -24.4629 Z M 29.1992 -67.0898 L 29.4434 -67.0898 L 44.8242 -26.709 L 13.8184 -26.709 Z"/></g><line id="Baseline-M" style="fill:none;stroke:#27AAE1;opacity:1;stroke-width:0.577;" x1="263" x2="3036" y1="1126" y2="1126"/><line id="Capline-M" style="fill:none;stroke:#27AAE1;opacity:1;stroke-width:0.577;" x1="263" x2="3036" y1="1055.54" y2="1055.54"/><g id="H-reference" style="fill:#27AAE1;stroke:none;" transform="matrix(1 0 0 1 339 1556)"><path d="M 54.9316 0 L 57.666 0 L 30.5664 -70.459 L 28.0762 -70.459 L 0.976562 0 L 3.66211 0 L 12.9395 -24.4629 L 45.7031 -24.4629 Z M 29.1992 -67.0898 L 29.4434 -67.0898 L 44.8242 -26.709 L 13.8184 -26.709 Z"/></g><line id="Baseline-L" style="fill:none;stroke:#27AAE1;opacity:1;stroke-width:0.577;" x1="263" x2="3036" y1="1556" y2="1556"/><line id="Capline-L" style="fill:none;stroke:#27AAE1;opacity:1;stroke-width:0.577;" x1="263" x2="3036" y1="1485.54" y2="1485.54"/><rect height="119.336" id="left-margin" style="fill:darkred;stroke:none;opacity:0.4;" width="12.4512" x="1394.06" y="1030.79"/><rect height="119.336" id="right-margin" style="fill:darkgreen;stroke:none;opacity:0.4;" width="12.4512" x="1502.5112" y="1030.79"/><rect x="1406.5112" y="1045" width="96" height="96" fill="none" stroke="blue" stroke-dasharray="5"/><rect x="1394.06" y="1030.79" width="120.9024" height="119.336" fill="none" stroke="blue"/></g><g id="Symbols"><g id="Bold-L" transform="matrix(1 0 0 1 2266 1556)"><path d="M77.4 33.301 Q64.618 33.301 53.373 28.473 Q42.128 23.644 33.763 15.25 Q25.397 6.856 20.64 -4.332 Q15.883 -15.52 15.883 -28.237 Q15.883 -40.874 20.721 -52.121 Q25.558 -63.368 33.943 -71.672 Q42.328 -79.977 53.568 -84.814 Q64.808 -89.652 77.584 -89.652 H81.351 L74.981 -96.102 Q72.724 -98.158 72.724 -101.201 Q72.724 -104.245 74.981 -106.502 Q77.018 -108.543 80.112 -108.45 Q83.205 -108.357 85.301 -106.261 L103.764 -87.878 Q105.941 -85.459 105.941 -82.476 Q105.941 -79.493 103.764 -77.316 L85.301 -59.014 Q83.286 -56.837 80.262 -56.717 Q77.239 -56.596 74.981 -58.772 Q72.724 -60.971 72.804 -63.943 Q72.885 -66.916 75.142 -69.334 L80.706 -74.736 H76.755 Q57.525 -74.736 44.162 -61.139 Q30.799 -47.543 30.799 -28.244 Q30.799 -8.785 44.404 4.8 Q58.009 18.386 77.4 18.386 Q94.819 18.386 108.064 6.944 Q121.308 -4.497 123.679 -21.846 Q124.082 -24.668 126.38 -26.442 Q128.678 -28.216 131.534 -28.216 Q134.794 -28.216 136.855 -26.2 Q138.917 -24.184 138.756 -21.524 Q136.238 2.307 118.63 17.804 Q101.023 33.301 77.4 33.301 Z"/></g><g id="Semibold-L" transform="matrix(1 0 0 1 1970.27 1556)"><path d="M77.4 31.198 Q64.987 31.198 54.092 26.506 Q43.196 21.814 35.103 13.704 Q27.009 5.594 22.357 -5.269 Q17.706 -16.133 17.706 -28.508 Q17.706 -40.804 22.403 -51.7 Q27.1 -62.597 35.205 -70.656 Q43.31 -78.715 54.202 -83.412 Q65.095 -88.11 77.504 -88.11 H81.28 L73.579 -95.892 Q71.742 -97.579 71.777 -100.141 Q71.812 -102.703 73.649 -104.54 Q75.326 -106.219 77.899 -106.166 Q80.471 -106.114 82.217 -104.368 L99.909 -86.686 Q101.735 -84.688 101.735 -82.196 Q101.735 -79.703 99.909 -77.877 L82.217 -60.276 Q80.481 -58.45 77.949 -58.364 Q75.416 -58.278 73.579 -60.104 Q71.672 -61.943 71.753 -64.429 Q71.833 -66.916 73.74 -68.914 L80.565 -75.648 H76.685 Q57.193 -75.648 43.68 -61.863 Q30.168 -48.078 30.168 -28.512 Q30.168 -8.785 43.957 4.976 Q57.747 18.736 77.4 18.736 Q95.343 18.736 108.823 6.854 Q122.304 -5.029 124.38 -22.898 Q124.713 -25.369 126.59 -26.933 Q128.467 -28.496 130.923 -28.496 Q133.642 -28.496 135.368 -26.726 Q137.094 -24.955 136.933 -22.645 Q134.739 0.604 117.635 15.901 Q100.532 31.198 77.4 31.198 Z"/></g><g id="Medium-L" transform="matrix(1 0 0 1 1674.31 1556)"><path d="M77.4 29.621 Q65.264 29.621 54.631 25.031 Q43.998 20.441 36.108 12.544 Q28.219 4.648 23.646 -5.972 Q19.073 -16.591 19.073 -28.712 Q19.073 -40.751 23.665 -51.385 Q28.257 -62.018 36.152 -69.893 Q44.046 -77.768 54.678 -82.361 Q65.31 -86.953 77.444 -86.953 H81.228 L72.528 -95.734 Q71.006 -97.146 71.067 -99.346 Q71.129 -101.546 72.65 -103.067 Q74.057 -104.475 76.239 -104.453 Q78.42 -104.431 79.903 -102.948 L97.016 -85.792 Q98.58 -84.11 98.58 -81.986 Q98.58 -79.861 97.016 -78.298 L79.903 -61.223 Q78.378 -59.659 76.213 -59.6 Q74.049 -59.54 72.528 -61.104 Q70.883 -62.672 70.964 -64.794 Q71.045 -66.916 72.689 -68.598 L80.46 -76.331 H76.632 Q56.943 -76.331 43.319 -62.406 Q29.695 -48.48 29.695 -28.713 Q29.695 -8.785 43.622 5.107 Q57.549 18.999 77.4 18.999 Q95.736 18.999 109.393 6.785 Q123.051 -5.428 124.906 -23.687 Q125.186 -25.895 126.748 -27.301 Q128.309 -28.706 130.465 -28.706 Q132.778 -28.706 134.252 -27.12 Q135.727 -25.534 135.566 -23.487 Q133.614 -0.673 116.889 14.474 Q100.164 29.621 77.4 29.621 Z"/></g><g id="Regular-L" transform="matrix(1 0 0 1 1378.56 1556)"><path d="M77.4 28.464 Q65.468 28.464 55.027 23.949 Q44.586 19.434 36.846 11.694 Q29.106 3.954 24.591 -6.487 Q20.076 -16.928 20.076 -28.861 Q20.076 -40.712 24.591 -51.153 Q29.106 -61.594 36.846 -69.334 Q44.586 -77.074 55.027 -81.589 Q65.468 -86.104 77.4 -86.104 H81.189 L71.756 -95.618 Q70.466 -96.827 70.547 -98.762 Q70.627 -100.697 71.918 -101.987 Q73.127 -103.197 75.022 -103.197 Q76.916 -103.197 78.206 -101.907 L94.896 -85.137 Q96.266 -83.686 96.266 -81.831 Q96.266 -79.977 94.896 -78.606 L78.206 -61.917 Q76.836 -60.546 74.941 -60.506 Q73.046 -60.466 71.756 -61.836 Q70.305 -63.207 70.386 -65.061 Q70.466 -66.916 71.918 -68.367 L80.383 -76.832 H76.594 Q56.76 -76.832 43.054 -62.804 Q29.348 -48.775 29.348 -28.861 Q29.348 -8.785 43.376 5.203 Q57.405 19.192 77.4 19.192 Q96.024 19.192 109.811 6.735 Q123.598 -5.721 125.291 -24.265 Q125.533 -26.281 126.863 -27.571 Q128.194 -28.861 130.129 -28.861 Q132.144 -28.861 133.434 -27.409 Q134.724 -25.958 134.563 -24.104 Q132.789 -1.609 116.342 13.427 Q99.894 28.464 77.4 28.464 Z"/></g><g id="Light-L" transform="matrix(1 0 0 1 1082.77 1556)"><path d="M77.4 25.549 Q66.088 25.549 56.174 21.266 Q46.26 16.984 38.908 9.632 Q31.555 2.279 27.289 -7.635 Q23.022 -17.548 23.022 -28.861 Q23.022 -40.061 27.289 -49.975 Q31.555 -59.889 38.908 -67.241 Q46.26 -74.593 56.174 -78.876 Q66.088 -83.158 77.4 -83.158 H81.158 L71.353 -93.075 Q70.311 -94.005 70.392 -95.475 Q70.472 -96.945 71.452 -97.987 Q72.352 -98.824 73.797 -98.824 Q75.242 -98.824 76.221 -97.844 L90.988 -83.214 Q92.266 -81.763 92.266 -79.939 Q92.266 -78.116 90.988 -76.839 L76.377 -62.165 Q75.409 -61.073 73.917 -61.049 Q72.426 -61.024 71.446 -62.084 Q70.336 -63.083 70.386 -64.534 Q70.435 -65.985 71.576 -67.126 L80.6 -76.088 H76.842 Q57.194 -76.088 43.643 -62.277 Q30.092 -48.465 30.092 -28.861 Q30.092 -9.064 43.903 4.707 Q57.715 18.479 77.4 18.479 Q95.993 18.479 109.548 5.945 Q123.102 -6.59 124.547 -25.133 Q124.696 -26.715 125.731 -27.772 Q126.767 -28.83 128.299 -28.83 Q129.849 -28.83 130.814 -27.688 Q131.778 -26.547 131.679 -25.127 Q130.246 -3.501 114.59 11.024 Q98.933 25.549 77.4 25.549 Z"/></g><g id="Thin-L" transform="matrix(1 0 0 1 787.282 1556)"><path d="M77.4 22.634 Q66.708 22.634 57.321 18.584 Q47.935 14.534 40.97 7.569 Q34.005 0.605 29.986 -8.782 Q25.967 -18.168 25.967 -28.861 Q25.967 -39.41 29.986 -48.797 Q34.005 -58.183 40.97 -65.148 Q47.935 -72.113 57.321 -76.163 Q66.708 -80.213 77.4 -80.213 H81.127 L70.95 -90.533 Q70.156 -91.184 70.237 -92.188 Q70.317 -93.193 70.987 -93.987 Q71.576 -94.452 72.572 -94.452 Q73.567 -94.452 74.237 -93.782 L87.081 -81.292 Q88.266 -79.84 88.266 -78.048 Q88.266 -76.256 87.081 -75.071 L74.547 -62.413 Q73.983 -61.601 72.894 -61.591 Q71.806 -61.582 71.136 -62.332 Q70.367 -62.959 70.386 -64.007 Q70.404 -65.055 71.235 -65.886 L80.817 -75.344 H77.09 Q57.628 -75.344 44.232 -61.749 Q30.836 -48.155 30.836 -28.861 Q30.836 -9.343 44.431 4.211 Q58.025 17.765 77.4 17.765 Q95.962 17.765 109.284 5.154 Q122.606 -7.458 123.803 -26.002 Q123.859 -27.149 124.6 -27.974 Q125.341 -28.799 126.47 -28.799 Q127.555 -28.799 128.194 -27.968 Q128.833 -27.137 128.795 -26.15 Q127.704 -5.392 112.838 8.621 Q97.972 22.634 77.4 22.634 Z"/></g><g id="Ultralight-L" transform="matrix(1 0 0 1 491.205 1556)"><path d="M77.4 20.885 Q67.08 20.885 58.01 16.975 Q48.939 13.064 42.207 6.332 Q35.475 -0.4 31.605 -9.47 Q27.735 -18.541 27.735 -28.861 Q27.735 -39.019 31.605 -48.09 Q35.475 -57.16 42.207 -63.892 Q48.939 -70.624 58.01 -74.535 Q67.08 -78.445 77.4 -78.445 H81.109 L70.708 -89.007 Q70.063 -89.491 70.144 -90.216 Q70.224 -90.942 70.708 -91.587 Q71.111 -91.829 71.837 -91.829 Q72.562 -91.829 73.046 -91.345 L84.737 -80.138 Q85.866 -78.687 85.866 -76.913 Q85.866 -75.139 84.737 -74.011 L73.449 -62.562 Q73.127 -61.917 72.28 -61.917 Q71.434 -61.917 70.95 -62.481 Q70.386 -62.884 70.386 -63.691 Q70.386 -64.497 71.031 -65.142 L80.948 -74.897 H77.239 Q57.889 -74.897 44.586 -61.433 Q31.283 -47.969 31.283 -28.861 Q31.283 -9.511 44.747 3.913 Q58.211 17.338 77.4 17.338 Q95.944 17.338 109.126 4.679 Q122.308 -7.979 123.356 -26.522 Q123.356 -27.409 123.921 -28.095 Q124.485 -28.78 125.372 -28.78 Q126.178 -28.78 126.622 -28.135 Q127.065 -27.49 127.065 -26.764 Q126.178 -6.527 111.787 7.179 Q97.395 20.885 77.4 20.885 Z"/></g><g id="Bold-M" transform="matrix(1 0 0 1 2281.8 1126)"><path d="M60 18.52 Q50 18.52 41.219 14.77 Q32.438 11.02 25.875 4.458 Q19.312 -2.105 15.531 -10.886 Q11.75 -19.667 11.75 -29.667 Q11.75 -39.667 15.531 -48.386 Q19.312 -57.105 25.938 -63.667 Q32.562 -70.23 41.344 -73.98 Q50.125 -77.73 60.125 -77.73 H61 L59.688 -79.042 Q57.438 -81.292 57.375 -84.386 Q57.312 -87.48 59.562 -89.792 Q61.875 -92.105 65.031 -92.074 Q68.188 -92.042 70.5 -89.73 L84.688 -75.542 Q87.062 -73.167 87.062 -70.167 Q87.062 -67.167 84.688 -64.792 L70.438 -50.667 Q68.312 -48.542 65.25 -48.449 Q62.188 -48.355 59.875 -50.48 Q57.5 -52.73 57.469 -55.824 Q57.438 -58.917 59.812 -61.292 L61.125 -62.605 H60.125 Q46.375 -62.605 36.688 -53.011 Q27 -43.417 27 -29.667 Q27 -15.917 36.625 -6.261 Q46.25 3.395 60 3.395 Q72 3.395 81.156 -4.167 Q90.312 -11.73 92.5 -23.48 Q93.125 -26.23 95.406 -27.917 Q97.688 -29.605 100.688 -29.605 Q103.812 -29.605 106.031 -27.855 Q108.25 -26.105 107.875 -23.292 Q105.562 -5.105 91.875 6.708 Q78.188 18.52 60 18.52 Z"/></g><g id="Semibold-M" transform="matrix(1 0 0 1 1985.97 1126)"><path d="M60 16.346 Q50.38 16.346 41.952 12.732 Q33.524 9.118 27.234 2.827 Q20.943 -3.464 17.297 -11.892 Q13.652 -20.32 13.652 -29.939 Q13.652 -39.559 17.297 -47.951 Q20.943 -56.344 27.269 -62.635 Q33.595 -68.926 42.023 -72.54 Q50.451 -76.154 60.071 -76.154 H60.946 L58.275 -78.825 Q56.405 -80.695 56.37 -83.272 Q56.334 -85.85 58.204 -87.782 Q60.136 -89.714 62.749 -89.71 Q65.362 -89.706 67.294 -87.774 L80.72 -74.347 Q82.661 -72.407 82.661 -69.869 Q82.661 -67.33 80.72 -65.39 L67.231 -51.972 Q65.432 -50.173 62.886 -50.133 Q60.34 -50.094 58.408 -51.893 Q56.468 -53.762 56.436 -56.34 Q56.405 -58.917 58.345 -60.858 L61.016 -63.529 H60.071 Q46.049 -63.529 36.198 -53.745 Q26.348 -43.961 26.348 -29.939 Q26.348 -15.917 36.163 -6.098 Q45.978 3.721 60 3.721 Q72.489 3.721 81.917 -4.303 Q91.345 -12.328 93.261 -24.621 Q93.723 -26.991 95.624 -28.461 Q97.525 -29.931 100.035 -29.931 Q102.617 -29.931 104.482 -28.398 Q106.348 -26.866 106.027 -24.488 Q103.987 -6.844 90.843 4.751 Q77.698 16.346 60 16.346 Z"/></g><g id="Medium-M" transform="matrix(1 0 0 1 1689.91 1126)"><path d="M60 14.716 Q50.666 14.716 42.503 11.204 Q34.34 7.691 28.253 1.604 Q22.166 -4.483 18.622 -12.646 Q15.079 -20.809 15.079 -30.143 Q15.079 -39.477 18.622 -47.625 Q22.166 -55.773 28.268 -61.86 Q34.37 -67.947 42.533 -71.46 Q50.696 -74.972 60.03 -74.972 H60.905 L57.215 -78.662 Q55.63 -80.246 55.615 -82.436 Q55.6 -84.627 57.185 -86.273 Q58.831 -87.92 61.037 -87.936 Q63.242 -87.953 64.889 -86.306 L77.745 -73.45 Q79.359 -71.836 79.359 -69.644 Q79.359 -67.453 77.745 -65.839 L64.826 -52.95 Q63.272 -51.396 61.113 -51.397 Q58.954 -51.398 57.307 -52.953 Q55.693 -54.537 55.662 -56.727 Q55.63 -58.917 57.245 -60.532 L60.935 -64.222 H60.03 Q45.804 -64.222 35.831 -54.295 Q25.859 -44.369 25.859 -30.143 Q25.859 -15.917 35.817 -5.976 Q45.775 3.966 60 3.966 Q72.856 3.966 82.488 -4.405 Q92.12 -12.776 93.832 -25.477 Q94.171 -27.561 95.787 -28.869 Q97.402 -30.176 99.546 -30.176 Q101.72 -30.176 103.321 -28.806 Q104.921 -27.436 104.641 -25.385 Q102.804 -8.148 90.068 3.284 Q77.332 14.716 60 14.716 Z"/></g><g id="Regular-M" transform="matrix(1 0 0 1 1394.06 1126)"><path d="M60 13.52 Q50.875 13.52 42.906 10.083 Q34.938 6.645 29 0.708 Q23.062 -5.23 19.594 -13.199 Q16.125 -21.167 16.125 -30.292 Q16.125 -39.417 19.594 -47.386 Q23.062 -55.355 29 -61.292 Q34.938 -67.23 42.906 -70.667 Q50.875 -74.105 60 -74.105 H60.875 L56.438 -78.542 Q55.062 -79.917 55.062 -81.824 Q55.062 -83.73 56.438 -85.167 Q57.875 -86.605 59.781 -86.636 Q61.688 -86.667 63.125 -85.23 L75.562 -72.792 Q76.938 -71.417 76.938 -69.48 Q76.938 -67.542 75.562 -66.167 L63.062 -53.667 Q61.688 -52.292 59.812 -52.324 Q57.938 -52.355 56.5 -53.73 Q55.125 -55.105 55.094 -57.011 Q55.062 -58.917 56.438 -60.292 L60.875 -64.73 H60 Q45.625 -64.73 35.562 -54.699 Q25.5 -44.667 25.5 -30.292 Q25.5 -15.917 35.562 -5.886 Q45.625 4.145 60 4.145 Q73.125 4.145 82.906 -4.48 Q92.688 -13.105 94.25 -26.105 Q94.5 -27.98 95.906 -29.167 Q97.312 -30.355 99.188 -30.355 Q101.062 -30.355 102.469 -29.105 Q103.875 -27.855 103.625 -26.042 Q101.938 -9.105 89.5 2.208 Q77.062 13.52 60 13.52 Z"/></g><g id="Light-M" transform="matrix(1 0 0 1 1098.18 1126)"><path d="M60 11.26 Q51.356 11.26 43.796 8.003 Q36.236 4.746 30.599 -0.891 Q24.962 -6.528 21.685 -14.088 Q18.409 -21.648 18.409 -30.292 Q18.409 -38.913 21.685 -46.473 Q24.962 -54.033 30.599 -59.67 Q36.236 -65.307 43.796 -68.564 Q51.356 -71.821 60 -71.821 H61.428 L55.885 -77.389 Q54.798 -78.451 54.798 -79.852 Q54.798 -81.254 55.885 -82.355 Q56.937 -83.408 58.351 -83.415 Q59.764 -83.422 60.865 -82.369 L71.86 -71.446 Q73.115 -70.167 73.115 -68.422 Q73.115 -66.677 71.86 -65.422 L60.923 -54.437 Q59.908 -53.374 58.514 -53.393 Q57.12 -53.413 56.019 -54.451 Q54.957 -55.49 54.925 -56.891 Q54.894 -58.292 55.981 -59.379 L61.428 -64.826 H60 Q45.577 -64.826 35.49 -54.771 Q25.404 -44.716 25.404 -30.292 Q25.404 -15.845 35.49 -5.79 Q45.577 4.265 60 4.265 Q73.438 4.265 83.279 -4.684 Q93.12 -13.634 94.394 -26.97 Q94.572 -28.413 95.606 -29.372 Q96.639 -30.331 98.106 -30.331 Q99.524 -30.331 100.558 -29.345 Q101.591 -28.36 101.437 -26.98 Q100.111 -10.668 88.238 0.296 Q76.365 11.26 60 11.26 Z"/></g><g id="Thin-M" transform="matrix(1 0 0 1 802.565 1126)"><path d="M60 9.001 Q51.837 9.001 44.685 5.924 Q37.534 2.847 32.197 -2.49 Q26.86 -7.826 23.776 -14.978 Q20.692 -22.129 20.692 -30.292 Q20.692 -38.408 23.776 -45.559 Q26.86 -52.711 32.197 -58.047 Q37.534 -63.384 44.685 -66.461 Q51.837 -69.538 60 -69.538 H61.981 L55.332 -76.235 Q54.534 -76.985 54.534 -77.881 Q54.534 -78.778 55.332 -79.542 Q56 -80.211 56.921 -80.194 Q57.841 -80.177 58.606 -79.509 L68.159 -70.1 Q69.293 -68.917 69.293 -67.365 Q69.293 -65.812 68.159 -64.677 L58.784 -55.206 Q58.13 -54.456 57.216 -54.463 Q56.303 -54.47 55.538 -55.172 Q54.788 -55.874 54.757 -56.771 Q54.726 -57.667 55.524 -58.466 L61.981 -64.922 H60 Q45.529 -64.922 35.418 -54.843 Q25.308 -44.764 25.308 -30.292 Q25.308 -15.773 35.418 -5.694 Q45.529 4.385 60 4.385 Q73.75 4.385 83.651 -4.889 Q93.553 -14.163 94.538 -27.836 Q94.644 -28.845 95.305 -29.576 Q95.966 -30.307 97.024 -30.307 Q97.986 -30.307 98.647 -29.586 Q99.308 -28.865 99.25 -27.917 Q98.284 -12.23 86.976 -1.615 Q75.668 9.001 60 9.001 Z"/></g><g id="Ultralight-M" transform="matrix(1 0 0 1 506.415 1126)"><path d="M60 7.645 Q52.125 7.645 45.219 4.676 Q38.312 1.708 33.156 -3.449 Q28 -8.605 25.031 -15.511 Q22.062 -22.417 22.062 -30.292 Q22.062 -38.105 25.031 -45.011 Q28 -51.917 33.156 -57.074 Q38.312 -62.23 45.219 -65.199 Q52.125 -68.167 60 -68.167 H62.312 L55 -75.542 Q54.375 -76.105 54.375 -76.699 Q54.375 -77.292 55 -77.855 Q55.438 -78.292 56.062 -78.261 Q56.688 -78.23 57.25 -77.792 L65.938 -69.292 Q67 -68.167 67 -66.73 Q67 -65.292 65.938 -64.23 L57.5 -55.667 Q57.062 -55.105 56.438 -55.105 Q55.812 -55.105 55.25 -55.605 Q54.688 -56.105 54.656 -56.699 Q54.625 -57.292 55.25 -57.917 L62.312 -64.98 H60 Q45.5 -64.98 35.375 -54.886 Q25.25 -44.792 25.25 -30.292 Q25.25 -15.73 35.375 -5.636 Q45.5 4.458 60 4.458 Q73.938 4.458 83.875 -5.011 Q93.812 -14.48 94.625 -28.355 Q94.688 -29.105 95.125 -29.699 Q95.562 -30.292 96.375 -30.292 Q97.062 -30.292 97.5 -29.73 Q97.938 -29.167 97.938 -28.48 Q97.188 -13.167 86.219 -2.761 Q75.25 7.645 60 7.645 Z"/></g><g id="Bold-S" transform="matrix(1 0 0 1 2294.23 696)"><path d="M47.338 5.601 Q39.943 5.601 33.445 2.829 Q26.948 0.058 22.089 -4.801 Q17.23 -9.66 14.434 -16.158 Q11.638 -22.655 11.638 -30.052 Q11.638 -37.449 14.434 -43.897 Q17.23 -50.346 22.138 -55.205 Q27.046 -60.064 33.544 -62.835 Q40.042 -65.606 47.439 -65.606 H48.228 L47.981 -65.853 Q46.206 -67.628 46.157 -69.889 Q46.107 -72.149 47.882 -73.842 Q49.608 -75.568 51.901 -75.494 Q54.194 -75.42 55.92 -73.694 L65.536 -63.979 Q67.41 -62.105 67.41 -60.034 Q67.41 -57.963 65.536 -56.089 L55.772 -46.424 Q54.194 -44.846 52.025 -44.772 Q49.855 -44.698 48.082 -46.276 Q46.255 -47.953 46.23 -50.196 Q46.206 -52.44 48.08 -54.314 L48.228 -54.462 H47.439 Q37.249 -54.462 30.065 -47.358 Q22.881 -40.254 22.881 -30.074 Q22.881 -19.894 30.016 -12.719 Q37.151 -5.544 47.34 -5.544 Q56.293 -5.544 63.134 -11.313 Q69.974 -17.083 71.404 -25.861 Q71.898 -27.833 73.592 -28.918 Q75.286 -30.003 77.512 -30.003 Q79.837 -30.003 81.44 -28.678 Q83.042 -27.354 82.746 -25.22 Q81.014 -11.798 70.889 -3.098 Q60.763 5.601 47.338 5.601 Z"/></g><g id="Semibold-S" transform="matrix(1 0 0 1 1998.1 696)"><path d="M47.338 3.886 Q40.243 3.886 34.024 1.222 Q27.805 -1.443 23.161 -6.087 Q18.516 -10.732 15.827 -16.951 Q13.138 -23.17 13.138 -30.267 Q13.138 -37.363 15.827 -43.554 Q18.516 -49.746 23.189 -54.39 Q27.861 -59.035 34.08 -61.699 Q40.299 -64.363 47.396 -64.363 H48.185 L46.866 -65.682 Q45.391 -67.157 45.363 -69.009 Q45.335 -70.862 46.81 -72.255 Q48.236 -73.681 50.101 -73.628 Q51.965 -73.576 53.391 -72.15 L62.406 -63.036 Q63.937 -61.505 63.937 -59.798 Q63.937 -58.092 62.406 -56.561 L53.243 -47.453 Q51.922 -46.132 50.159 -46.101 Q48.397 -46.07 46.924 -47.391 Q45.44 -48.767 45.416 -50.604 Q45.391 -52.44 46.922 -53.971 L48.142 -55.191 H47.396 Q36.992 -55.191 29.679 -47.937 Q22.366 -40.683 22.366 -30.288 Q22.366 -19.894 29.651 -12.59 Q36.936 -5.287 47.34 -5.287 Q56.679 -5.287 63.734 -11.421 Q70.789 -17.555 72.005 -26.761 Q72.369 -28.433 73.763 -29.347 Q75.157 -30.26 76.998 -30.26 Q78.894 -30.26 80.218 -29.107 Q81.542 -27.954 81.289 -26.163 Q79.771 -13.17 70.074 -4.642 Q60.377 3.886 47.338 3.886 Z"/></g><g id="Medium-S" transform="matrix(1 0 0 1 1701.85 696)"><path d="M47.338 2.599 Q40.468 2.599 34.458 0.015 Q28.448 -2.568 23.965 -7.052 Q19.481 -11.536 16.873 -17.546 Q14.264 -23.556 14.264 -30.427 Q14.264 -37.299 16.873 -43.297 Q19.481 -49.295 23.977 -53.779 Q28.472 -58.263 34.482 -60.847 Q40.492 -63.43 47.364 -63.43 H48.153 L46.03 -65.553 Q44.78 -66.803 44.768 -68.35 Q44.756 -69.897 46.006 -71.065 Q47.207 -72.266 48.75 -72.229 Q50.292 -72.193 51.493 -70.992 L60.058 -62.328 Q61.332 -61.055 61.332 -59.621 Q61.332 -58.188 60.058 -56.915 L51.345 -48.225 Q50.217 -47.097 48.76 -47.098 Q47.304 -47.099 46.056 -48.227 Q44.829 -49.378 44.805 -50.909 Q44.78 -52.44 46.054 -53.714 L48.078 -55.738 H47.364 Q36.799 -55.738 29.39 -48.371 Q21.981 -41.005 21.981 -30.449 Q21.981 -19.894 29.378 -12.494 Q36.775 -5.094 47.34 -5.094 Q56.969 -5.094 64.184 -11.501 Q71.4 -17.908 72.455 -27.436 Q72.723 -28.884 73.892 -29.668 Q75.061 -30.453 76.612 -30.453 Q78.186 -30.453 79.301 -29.429 Q80.416 -28.405 80.195 -26.87 Q78.838 -14.199 69.463 -5.8 Q60.088 2.599 47.338 2.599 Z"/></g><g id="Regular-S" transform="matrix(1 0 0 1 1405.73 696)"><path d="M47.338 1.656 Q40.634 1.656 34.777 -0.869 Q28.92 -3.394 24.554 -7.76 Q20.189 -12.125 17.639 -17.982 Q15.09 -23.839 15.09 -30.545 Q15.09 -37.252 17.639 -43.108 Q20.189 -48.965 24.554 -53.331 Q28.92 -57.697 34.777 -60.222 Q40.634 -62.746 47.34 -62.746 H48.129 L45.417 -65.459 Q44.332 -66.543 44.332 -67.867 Q44.332 -69.19 45.417 -70.193 Q46.452 -71.228 47.759 -71.203 Q49.066 -71.179 50.102 -70.143 L58.337 -61.809 Q59.422 -60.725 59.422 -59.492 Q59.422 -58.259 58.337 -57.174 L49.954 -48.791 Q48.967 -47.805 47.735 -47.829 Q46.502 -47.854 45.419 -48.84 Q44.381 -49.826 44.357 -51.133 Q44.332 -52.44 45.417 -53.525 L48.03 -56.138 H47.34 Q36.658 -56.138 29.178 -48.69 Q21.698 -41.241 21.698 -30.567 Q21.698 -19.894 29.178 -12.423 Q36.658 -4.952 47.34 -4.952 Q57.181 -4.952 64.515 -11.56 Q71.848 -18.168 72.785 -27.932 Q72.983 -29.214 73.986 -29.904 Q74.99 -30.595 76.329 -30.595 Q77.667 -30.595 78.629 -29.665 Q79.59 -28.735 79.393 -27.389 Q78.154 -14.954 69.015 -6.649 Q59.875 1.656 47.338 1.656 Z"/></g><g id="Light-S" transform="matrix(1 0 0 1 1109.75 696)"><path d="M47.338 -0.127 Q41.013 -0.127 35.479 -2.51 Q29.944 -4.892 25.816 -9.021 Q21.687 -13.15 19.289 -18.684 Q16.892 -24.218 16.892 -30.545 Q16.892 -36.853 19.289 -42.388 Q21.687 -47.922 25.816 -52.051 Q29.944 -56.179 35.479 -58.562 Q41.013 -60.944 47.34 -60.944 H48.565 L44.981 -64.548 Q44.123 -65.386 44.123 -66.311 Q44.123 -67.236 44.981 -67.973 Q45.713 -68.705 46.631 -68.662 Q47.548 -68.618 48.319 -67.886 L55.416 -60.747 Q56.406 -59.738 56.406 -58.657 Q56.406 -57.576 55.416 -56.586 L48.265 -49.398 Q47.564 -48.658 46.71 -48.673 Q45.857 -48.689 45.04 -49.409 Q44.249 -50.13 44.224 -51.038 Q44.199 -51.947 45.056 -52.804 L48.467 -56.214 H47.34 Q36.62 -56.214 29.121 -48.746 Q21.622 -41.278 21.622 -30.567 Q21.622 -19.837 29.121 -12.347 Q36.62 -4.857 47.34 -4.857 Q57.427 -4.857 64.809 -11.721 Q72.19 -18.585 72.899 -28.615 Q73.039 -29.555 73.749 -30.066 Q74.459 -30.576 75.475 -30.576 Q76.453 -30.576 77.121 -29.854 Q77.788 -29.133 77.667 -28.129 Q76.713 -16.186 68.019 -8.157 Q59.325 -0.127 47.338 -0.127 Z"/></g><g id="Thin-S" transform="matrix(1 0 0 1 814.015 696)"><path d="M47.338 -1.91 Q41.392 -1.91 36.18 -4.15 Q30.968 -6.39 27.077 -10.282 Q23.185 -14.174 20.939 -19.386 Q18.693 -24.597 18.693 -30.545 Q18.693 -36.455 20.939 -41.667 Q23.185 -46.879 27.077 -50.771 Q30.968 -54.662 36.18 -56.902 Q41.392 -59.143 47.34 -59.143 H49.001 L44.544 -63.638 Q43.915 -64.23 43.915 -64.756 Q43.915 -65.283 44.544 -65.754 Q44.973 -66.183 45.502 -66.121 Q46.031 -66.058 46.536 -65.629 L52.495 -59.685 Q53.39 -58.752 53.39 -57.823 Q53.39 -56.893 52.495 -55.998 L46.578 -50.005 Q46.16 -49.512 45.686 -49.517 Q45.212 -49.523 44.66 -49.978 Q44.116 -50.433 44.091 -50.944 Q44.066 -51.454 44.696 -52.084 L48.903 -56.29 H47.34 Q36.582 -56.29 29.064 -48.803 Q21.546 -41.316 21.546 -30.567 Q21.546 -19.78 29.064 -12.271 Q36.582 -4.762 47.34 -4.762 Q57.674 -4.762 65.103 -11.882 Q72.531 -19.002 73.013 -29.297 Q73.096 -29.897 73.512 -30.227 Q73.928 -30.557 74.622 -30.557 Q75.24 -30.557 75.613 -30.044 Q75.987 -29.531 75.941 -28.869 Q75.271 -17.419 67.023 -9.665 Q58.775 -1.91 47.338 -1.91 Z"/></g><g id="Ultralight-S" transform="matrix(1 0 0 1 517.792 696)"><path d="M47.338 -2.98 Q41.62 -2.98 36.601 -5.135 Q31.583 -7.29 27.834 -11.039 Q24.084 -14.788 21.929 -19.807 Q19.774 -24.825 19.774 -30.545 Q19.774 -36.216 21.929 -41.235 Q24.084 -46.253 27.834 -50.002 Q31.583 -53.752 36.601 -55.907 Q41.62 -58.062 47.34 -58.062 H49.263 L44.283 -63.092 Q43.79 -63.535 43.79 -63.823 Q43.79 -64.111 44.283 -64.423 Q44.529 -64.67 44.825 -64.596 Q45.121 -64.522 45.466 -64.275 L50.743 -59.048 Q51.581 -58.16 51.581 -57.322 Q51.581 -56.484 50.743 -55.645 L45.565 -50.369 Q45.318 -50.024 45.072 -50.024 Q44.825 -50.024 44.433 -50.32 Q44.036 -50.615 44.011 -50.887 Q43.987 -51.158 44.48 -51.651 L49.165 -56.336 H47.34 Q36.559 -56.336 29.03 -48.837 Q21.5 -41.339 21.5 -30.567 Q21.5 -19.746 29.03 -12.226 Q36.559 -4.706 47.34 -4.706 Q57.822 -4.706 65.279 -11.979 Q72.736 -19.253 73.081 -29.707 Q73.13 -30.101 73.37 -30.323 Q73.609 -30.545 74.11 -30.545 Q74.511 -30.545 74.708 -30.158 Q74.906 -29.77 74.906 -29.312 Q74.406 -18.159 66.426 -10.569 Q58.445 -2.98 47.338 -2.98 Z"/></g></g></svg>