<svg xmlns="http://www.w3.org/2000/svg" height="48" viewBox="0 -960 960 960" width="48"><path d="M451.5-593.391Zm31.391 31.891Zm-63.739 112.305ZM396.087-561.5Zm55.413 0ZM509-619Zm-28.964-282.218q119.04 0 200.611 81.493Q762.218-738.233 762.218-619v169.152q-16.892-4.717-33.174-5.119-16.283-.403-32.696 2.293V-561.5H482.891L451.5-593.391v-239.957q-47.783 6-86.098 29.873-38.314 23.873-63.772 60.953l-46.739-46.739q38.197-51.437 96.366-81.697 58.169-30.26 128.779-30.26Zm-257.122 164.87L396.087-561.5H263.652V-361q0 89.784 63.259 153.066t153.011 63.282q16.684 0 33.077-2.359 16.392-2.359 31.349-7.598v69.462q-15.957 3.157-31.849 4.641-15.893 1.484-32.629 1.484-119.021 0-200.435-81.335Q198.022-241.692 198.022-361v-258q0-32.124 6.594-61.494 6.594-29.37 18.298-55.854ZM509-619h187.348q0-79.745-52.283-141.677Q591.783-822.609 509-833.348V-619ZM834.674-33.174 35.5-835.109l43.87-44.108L878.543-77.044l-43.869 43.87ZM593.848-79.022V-285.39h77.348l160.456 161.456v44.913H593.848Zm205.87-167.869-39.935-41.015v-37.739q0-19.796-11.62-32.771-11.619-12.975-29.905-12.975-10.753 0-18.283 3.619-7.531 3.62-12.028 10.381l-28.664-28.622q10.5-11.726 25.703-18.53 15.203-6.805 33.495-6.805 33.904 0 57.57 24.718 23.667 24.719 23.667 60.739v79Z"/></svg>