<svg xmlns="http://www.w3.org/2000/svg" version="1.1" width="3300" height="2000"><g id="Notes"><style>
    text {
      font-family: monospace;
      text-anchor: middle;
    }
    text.emphasis {
      font-weight:bold;
    }
    text.lanchor {
      text-anchor: start;
    }
  </style><rect height="2200" id="artboard" fill="white" width="3300" x="0" y="0"/><line id="" style="fill:none;stroke:black;stroke-width:0.5;" x1="263" x2="3036" y1="292" y2="292"/><text class="lanchor emphasis" transform="matrix(1 0 0 1 263 322)">Weight/Scale Variations</text><text transform="matrix(1 0 0 1 559.711 322)">Ultralight</text><text transform="matrix(1 0 0 1 856.422 322)">Thin</text><text transform="matrix(1 0 0 1 1153.13 322)">Light</text><text transform="matrix(1 0 0 1 1449.84 322)">Regular</text><text transform="matrix(1 0 0 1 1746.56 322)">Medium</text><text transform="matrix(1 0 0 1 2043.27 322)">Semibold</text><text transform="matrix(1 0 0 1 2339.98 322)">Bold</text><text transform="matrix(1 0 0 1 2636.69 322)">Heavy</text><text transform="matrix(1 0 0 1 2933.4 322)">Black</text><text id="template-version" style="text-anchor: end;" transform="matrix(1 0 0 1 3036 1933)">Template v.1.0</text><text class="lanchor" transform="matrix(1 0 0 1 263 726)">Small</text><text class="lanchor" transform="matrix(1 0 0 1 263 1156)">Medium</text><text class="lanchor" transform="matrix(1 0 0 1 263 1586)">Large</text></g><g id="Guides"><g id="H-reference" style="fill:#27AAE1;stroke:none;" transform="matrix(1 0 0 1 339 696)"><path d="M 54.9316 0 L 57.666 0 L 30.5664 -70.459 L 28.0762 -70.459 L 0.976562 0 L 3.66211 0 L 12.9395 -24.4629 L 45.7031 -24.4629 Z M 29.1992 -67.0898 L 29.4434 -67.0898 L 44.8242 -26.709 L 13.8184 -26.709 Z"/></g><line id="Baseline-S" style="fill:none;stroke:#27AAE1;opacity:1;stroke-width:0.577;" x1="263" x2="3036" y1="696" y2="696"/><line id="Capline-S" style="fill:none;stroke:#27AAE1;opacity:1;stroke-width:0.577;" x1="263" x2="3036" y1="625.541" y2="625.541"/><g id="H-reference" style="fill:#27AAE1;stroke:none;" transform="matrix(1 0 0 1 339 1126)"><path d="M 54.9316 0 L 57.666 0 L 30.5664 -70.459 L 28.0762 -70.459 L 0.976562 0 L 3.66211 0 L 12.9395 -24.4629 L 45.7031 -24.4629 Z M 29.1992 -67.0898 L 29.4434 -67.0898 L 44.8242 -26.709 L 13.8184 -26.709 Z"/></g><line id="Baseline-M" style="fill:none;stroke:#27AAE1;opacity:1;stroke-width:0.577;" x1="263" x2="3036" y1="1126" y2="1126"/><line id="Capline-M" style="fill:none;stroke:#27AAE1;opacity:1;stroke-width:0.577;" x1="263" x2="3036" y1="1055.54" y2="1055.54"/><g id="H-reference" style="fill:#27AAE1;stroke:none;" transform="matrix(1 0 0 1 339 1556)"><path d="M 54.9316 0 L 57.666 0 L 30.5664 -70.459 L 28.0762 -70.459 L 0.976562 0 L 3.66211 0 L 12.9395 -24.4629 L 45.7031 -24.4629 Z M 29.1992 -67.0898 L 29.4434 -67.0898 L 44.8242 -26.709 L 13.8184 -26.709 Z"/></g><line id="Baseline-L" style="fill:none;stroke:#27AAE1;opacity:1;stroke-width:0.577;" x1="263" x2="3036" y1="1556" y2="1556"/><line id="Capline-L" style="fill:none;stroke:#27AAE1;opacity:1;stroke-width:0.577;" x1="263" x2="3036" y1="1485.54" y2="1485.54"/><rect height="119.336" id="left-margin" style="fill:darkred;stroke:none;opacity:0.4;" width="12.4512" x="1394.06" y="1030.79"/><rect height="119.336" id="right-margin" style="fill:darkgreen;stroke:none;opacity:0.4;" width="12.4512" x="1502.5112" y="1030.79"/><rect x="1406.5112" y="1045" width="96" height="96" fill="none" stroke="blue" stroke-dasharray="5"/><rect x="1394.06" y="1030.79" width="120.9024" height="119.336" fill="none" stroke="blue"/></g><g id="Symbols"><g id="Bold-L" transform="matrix(1 0 0 1 2266 1556)"><path d="M40.312 5.244 H114.649 L77.561 -23.942 L40.312 5.244 Z M66.758 -68.77 Q65.951 -66.674 64.074 -65.303 Q62.196 -63.932 59.755 -63.932 Q56.599 -63.932 54.422 -66.109 Q52.245 -68.286 52.245 -71.585 Q52.245 -72.317 52.245 -73.124 Q52.245 -73.93 52.709 -74.7 Q55.928 -82.096 62.678 -86.559 Q69.429 -91.022 77.561 -91.022 Q88.731 -91.022 96.611 -83.222 Q104.49 -75.421 104.49 -64.255 Q104.49 -55.574 98.846 -49.03 Q93.203 -42.486 84.979 -39.584 V-37.326 L143.029 6.856 Q144.48 7.985 145.286 9.522 Q146.093 11.06 146.093 12.812 Q146.093 16.048 143.835 18.224 Q141.578 20.401 138.352 20.401 H16.609 Q13.223 20.401 11.046 18.224 Q8.869 16.048 8.869 12.812 Q8.869 11.06 9.675 9.522 Q10.481 7.985 11.933 6.856 L69.983 -37.326 V-44.905 Q69.983 -47.949 72.118 -50.216 Q74.254 -52.484 77.239 -52.484 Q82.213 -52.484 85.692 -55.789 Q89.171 -59.095 89.171 -64.174 Q89.171 -68.931 85.785 -72.317 Q82.399 -75.704 77.603 -75.704 Q74.014 -75.704 71.111 -73.769 Q68.209 -71.834 66.758 -68.77 Z"/></g><g id="Semibold-L" transform="matrix(1 0 0 1 1970.27 1556)"><path d="M36.807 5.875 H118.084 L77.491 -26.256 L36.807 5.875 Z M66.197 -69.05 Q65.531 -67.305 63.979 -66.144 Q62.427 -64.984 60.346 -64.984 Q57.65 -64.984 55.824 -66.81 Q53.998 -68.637 53.998 -71.412 Q53.998 -72.037 53.998 -72.703 Q53.998 -73.369 54.4 -74.015 Q57.411 -80.859 63.681 -85.029 Q69.95 -89.2 77.491 -89.2 Q87.871 -89.2 95.199 -81.951 Q102.527 -74.703 102.527 -64.325 Q102.527 -55.983 97.164 -49.655 Q91.8 -43.327 83.787 -40.705 V-37.467 L141.697 7.207 Q142.938 8.195 143.604 9.485 Q144.27 10.775 144.27 12.255 Q144.27 14.996 142.398 16.822 Q140.526 18.649 137.792 18.649 H17.099 Q14.274 18.649 12.448 16.822 Q10.621 14.996 10.621 12.255 Q10.621 10.775 11.287 9.485 Q11.953 8.195 13.194 7.207 L71.104 -37.467 V-45.606 Q71.104 -48.168 72.907 -50.08 Q74.71 -51.993 77.239 -51.993 Q82.434 -51.993 86.048 -55.509 Q89.662 -59.025 89.662 -64.28 Q89.662 -69.282 86.1 -72.808 Q82.539 -76.335 77.514 -76.335 Q73.803 -76.335 70.761 -74.33 Q67.718 -72.324 66.197 -69.05 Z"/></g><g id="Medium-L" transform="matrix(1 0 0 1 1674.31 1556)"><path d="M34.178 6.348 H120.66 L77.439 -27.991 L34.178 6.348 Z M65.776 -69.261 Q65.215 -67.778 63.907 -66.775 Q62.6 -65.773 60.789 -65.773 Q58.439 -65.773 56.876 -67.336 Q55.312 -68.9 55.312 -71.283 Q55.312 -71.827 55.312 -72.388 Q55.312 -72.948 55.669 -73.501 Q58.524 -79.931 64.432 -83.882 Q70.341 -87.833 77.439 -87.833 Q87.226 -87.833 94.14 -80.998 Q101.055 -74.164 101.055 -64.378 Q101.055 -56.29 95.902 -50.124 Q90.749 -43.958 82.893 -41.547 V-37.572 L140.698 7.47 Q141.781 8.353 142.342 9.457 Q142.903 10.561 142.903 11.838 Q142.903 14.207 141.32 15.771 Q139.737 17.334 137.371 17.334 H17.468 Q15.063 17.334 13.499 15.771 Q11.936 14.207 11.936 11.838 Q11.936 10.561 12.497 9.457 Q13.058 8.353 14.141 7.47 L71.946 -37.572 V-46.132 Q71.946 -48.332 73.499 -49.978 Q75.053 -51.625 77.239 -51.625 Q82.6 -51.625 86.315 -55.299 Q90.03 -58.972 90.03 -64.358 Q90.03 -69.545 86.337 -73.176 Q82.644 -76.808 77.448 -76.808 Q73.646 -76.808 70.498 -74.75 Q67.35 -72.693 65.776 -69.261 Z"/></g><g id="Regular-L" transform="matrix(1 0 0 1 1378.56 1556)"><path d="M32.25 6.695 H122.55 L77.4 -29.264 L32.25 6.695 Z M65.468 -69.415 Q64.984 -68.125 63.855 -67.238 Q62.726 -66.351 61.114 -66.351 Q59.017 -66.351 57.647 -67.722 Q56.276 -69.092 56.276 -71.189 Q56.276 -71.672 56.276 -72.156 Q56.276 -72.64 56.599 -73.124 Q59.34 -79.251 64.984 -83.041 Q70.627 -86.83 77.4 -86.83 Q86.752 -86.83 93.364 -80.299 Q99.975 -73.769 99.975 -64.416 Q99.975 -56.515 94.976 -50.468 Q89.978 -44.421 82.237 -42.164 V-37.649 L139.965 7.663 Q140.933 8.469 141.416 9.436 Q141.9 10.404 141.9 11.533 Q141.9 13.629 140.529 14.999 Q139.159 16.37 137.062 16.37 H17.738 Q15.641 16.37 14.271 14.999 Q12.9 13.629 12.9 11.533 Q12.9 10.404 13.384 9.436 Q13.867 8.469 14.835 7.663 L72.562 -37.649 V-46.517 Q72.562 -48.452 73.933 -49.904 Q75.304 -51.355 77.239 -51.355 Q82.721 -51.355 86.511 -55.144 Q90.3 -58.934 90.3 -64.416 Q90.3 -69.737 86.511 -73.446 Q82.721 -77.155 77.4 -77.155 Q73.53 -77.155 70.305 -75.059 Q67.08 -72.962 65.468 -69.415 Z"/></g><g id="Light-L" transform="matrix(1 0 0 1 1082.77 1556)"><path d="M30.886 5.827 H123.977 L77.4 -30.318 L30.886 5.827 Z M65.219 -68.361 Q64.86 -67.443 64.01 -66.773 Q63.16 -66.103 61.941 -66.103 Q60.335 -66.103 59.298 -67.138 Q58.261 -68.173 58.261 -69.776 Q58.261 -70.122 58.292 -70.482 Q58.323 -70.841 58.584 -71.201 Q61.071 -76.746 66.193 -80.176 Q71.316 -83.605 77.462 -83.605 Q86.008 -83.605 91.968 -77.694 Q97.928 -71.784 97.928 -63.238 Q97.928 -55.833 93.147 -50.251 Q88.365 -44.669 81.059 -42.97 V-36.718 L137.236 6.546 Q138.017 7.15 138.377 7.897 Q138.737 8.644 138.737 9.492 Q138.737 11.086 137.706 12.115 Q136.675 13.145 135.078 13.145 H19.784 Q18.187 13.145 17.156 12.121 Q16.125 11.097 16.125 9.511 Q16.125 8.667 16.485 7.911 Q16.845 7.155 17.626 6.546 L73.741 -36.718 V-46.331 Q73.741 -47.829 74.776 -48.91 Q75.812 -49.991 77.239 -49.991 Q82.845 -49.991 86.728 -53.843 Q90.61 -57.696 90.61 -63.239 Q90.61 -68.683 86.774 -72.485 Q82.938 -76.287 77.462 -76.287 Q73.53 -76.287 70.212 -74.159 Q66.894 -72.032 65.219 -68.361 Z"/></g><g id="Thin-L" transform="matrix(1 0 0 1 787.282 1556)"><path d="M29.521 4.958 H125.403 L77.4 -31.372 L29.521 4.958 Z M64.971 -67.306 Q64.736 -66.761 64.165 -66.308 Q63.595 -65.855 62.768 -65.855 Q61.653 -65.855 60.949 -66.555 Q60.245 -67.254 60.245 -68.363 Q60.245 -68.572 60.308 -68.807 Q60.369 -69.043 60.568 -69.279 Q62.803 -74.242 67.403 -77.311 Q72.003 -80.38 77.524 -80.38 Q85.264 -80.38 90.573 -75.09 Q95.882 -69.8 95.882 -62.06 Q95.882 -55.151 91.317 -50.034 Q86.752 -44.917 79.881 -43.776 V-35.788 L134.507 5.43 Q135.103 5.831 135.338 6.358 Q135.574 6.885 135.574 7.452 Q135.574 8.543 134.883 9.232 Q134.191 9.92 133.093 9.92 H21.831 Q20.733 9.92 20.041 9.243 Q19.35 8.566 19.35 7.489 Q19.35 6.931 19.586 6.386 Q19.821 5.841 20.417 5.43 L74.919 -35.788 V-46.145 Q74.919 -47.206 75.62 -47.916 Q76.32 -48.626 77.239 -48.626 Q82.969 -48.626 86.945 -52.542 Q90.92 -56.459 90.92 -62.062 Q90.92 -67.629 87.038 -71.524 Q83.155 -75.418 77.524 -75.418 Q73.53 -75.418 70.119 -73.26 Q66.708 -71.102 64.971 -67.306 Z"/></g><g id="Ultralight-L" transform="matrix(1 0 0 1 491.205 1556)"><path d="M28.703 4.438 H126.259 L77.4 -32.005 L28.703 4.438 Z M64.823 -66.674 Q64.661 -66.351 64.258 -66.029 Q63.855 -65.706 63.265 -65.706 Q62.443 -65.706 61.94 -66.204 Q61.436 -66.702 61.436 -67.516 Q61.436 -67.641 61.517 -67.802 Q61.598 -67.964 61.759 -68.125 Q63.841 -72.739 68.129 -75.592 Q72.416 -78.445 77.561 -78.445 Q84.817 -78.445 89.736 -73.527 Q94.654 -68.609 94.654 -61.352 Q94.654 -54.741 90.219 -49.904 Q85.785 -45.066 79.174 -44.26 V-35.23 L132.87 4.76 Q133.354 5.04 133.515 5.435 Q133.676 5.83 133.676 6.228 Q133.676 7.018 133.188 7.501 Q132.701 7.985 131.903 7.985 H23.059 Q22.261 7.985 21.773 7.516 Q21.285 7.047 21.285 6.276 Q21.285 5.889 21.446 5.471 Q21.608 5.053 22.091 4.76 L75.626 -35.23 V-46.034 Q75.626 -46.832 76.126 -47.32 Q76.625 -47.807 77.239 -47.807 Q83.044 -47.807 87.075 -51.762 Q91.106 -55.716 91.106 -61.356 Q91.106 -66.996 87.196 -70.947 Q83.286 -74.897 77.561 -74.897 Q73.53 -74.897 70.063 -72.721 Q66.596 -70.544 64.823 -66.674 Z"/></g><g id="Bold-M" transform="matrix(1 0 0 1 2281.8 1126)"><path d="M38.375 -6.73 H81.75 L60.125 -22.23 L38.375 -6.73 Z M54.375 -59.98 Q53.5 -57.855 51.562 -56.48 Q49.625 -55.105 47.125 -55.105 Q43.875 -55.105 41.562 -57.417 Q39.25 -59.73 39.25 -62.98 Q39.25 -63.855 39.375 -64.667 Q39.5 -65.48 39.875 -66.23 Q42.5 -72.23 48 -75.855 Q53.5 -79.48 60.125 -79.48 Q69.25 -79.48 75.688 -73.105 Q82.125 -66.73 82.125 -57.605 Q82.125 -50.98 78.125 -45.855 Q74.125 -40.73 67.875 -38.23 V-36.105 L111.125 -5.105 Q112.625 -3.98 113.5 -2.355 Q114.375 -0.73 114.375 1.145 Q114.375 4.395 112 6.708 Q109.625 9.02 106.375 9.02 H13.75 Q10.5 9.02 8.125 6.708 Q5.75 4.395 5.75 1.145 Q5.75 -0.73 6.625 -2.355 Q7.5 -3.98 9 -5.105 L52.25 -36.105 V-43.605 Q52.25 -46.855 54.562 -49.105 Q56.875 -51.355 60.125 -51.355 Q62.75 -51.355 64.562 -53.167 Q66.375 -54.98 66.375 -57.605 Q66.375 -60.105 64.5 -61.917 Q62.625 -63.73 60.125 -63.73 Q58.25 -63.73 56.688 -62.73 Q55.125 -61.73 54.375 -59.98 Z"/></g><g id="Semibold-M" transform="matrix(1 0 0 1 1985.97 1126)"><path d="M34.734 -6.078 H85.337 L60.071 -24.621 L34.734 -6.078 Z M53.831 -60.306 Q53.065 -58.507 51.454 -57.349 Q49.842 -56.192 47.723 -56.192 Q44.962 -56.192 43.03 -58.124 Q41.098 -60.056 41.098 -62.817 Q41.098 -63.583 41.196 -64.233 Q41.293 -64.882 41.614 -65.523 Q44.022 -70.98 49.032 -74.306 Q54.044 -77.632 60.071 -77.632 Q68.38 -77.632 74.247 -71.828 Q80.114 -66.023 80.114 -57.714 Q80.114 -51.415 76.359 -46.507 Q72.603 -41.599 66.625 -39.426 V-36.268 L109.766 -4.725 Q111.049 -3.817 111.761 -2.436 Q112.473 -1.056 112.473 0.547 Q112.473 3.308 110.505 5.24 Q108.538 7.172 105.777 7.172 H14.293 Q11.533 7.172 9.565 5.24 Q7.598 3.308 7.598 0.547 Q7.598 -1.056 8.31 -2.436 Q9.022 -3.817 10.304 -4.725 L53.446 -36.268 V-44.311 Q53.446 -47.072 55.405 -48.969 Q57.364 -50.866 60.125 -50.866 Q62.967 -50.866 64.916 -52.869 Q66.864 -54.871 66.864 -57.714 Q66.864 -60.485 64.853 -62.434 Q62.842 -64.382 60.071 -64.382 Q58.033 -64.382 56.334 -63.301 Q54.636 -62.219 53.831 -60.306 Z"/></g><g id="Medium-M" transform="matrix(1 0 0 1 1689.91 1126)"><path d="M32.003 -5.589 H88.027 L60.03 -26.415 L32.003 -5.589 Z M53.424 -60.551 Q52.739 -58.996 51.372 -58.002 Q50.005 -57.007 48.171 -57.007 Q45.777 -57.007 44.13 -58.654 Q42.484 -60.301 42.484 -62.695 Q42.484 -63.379 42.561 -63.907 Q42.639 -64.434 42.919 -64.994 Q45.163 -70.042 49.807 -73.144 Q54.451 -76.246 60.03 -76.246 Q67.728 -76.246 73.167 -70.87 Q78.606 -65.494 78.606 -57.795 Q78.606 -51.741 75.034 -46.996 Q71.462 -42.252 65.688 -40.322 V-36.39 L108.747 -4.439 Q109.867 -3.695 110.457 -2.498 Q111.046 -1.301 111.046 0.099 Q111.046 2.493 109.385 4.14 Q107.723 5.786 105.329 5.786 H14.701 Q12.307 5.786 10.645 4.14 Q8.984 2.493 8.984 0.099 Q8.984 -1.301 9.573 -2.498 Q10.163 -3.695 11.283 -4.439 L54.342 -36.39 V-44.841 Q54.342 -47.235 56.037 -48.867 Q57.731 -50.499 60.125 -50.499 Q63.13 -50.499 65.181 -52.644 Q67.231 -54.79 67.231 -57.795 Q67.231 -60.771 65.118 -62.821 Q63.005 -64.871 60.03 -64.871 Q57.87 -64.871 56.069 -63.729 Q54.269 -62.586 53.424 -60.551 Z"/></g><g id="Regular-M" transform="matrix(1 0 0 1 1394.06 1126)"><path d="M30 -5.23 H90 L60 -27.73 L30 -5.23 Z M53.125 -60.73 Q52.5 -59.355 51.312 -58.48 Q50.125 -57.605 48.5 -57.605 Q46.375 -57.605 44.938 -59.042 Q43.5 -60.48 43.5 -62.605 Q43.5 -63.23 43.562 -63.667 Q43.625 -64.105 43.875 -64.605 Q46 -69.355 50.375 -72.292 Q54.75 -75.23 60 -75.23 Q67.25 -75.23 72.375 -70.167 Q77.5 -65.105 77.5 -57.855 Q77.5 -51.98 74.062 -47.355 Q70.625 -42.73 65 -40.98 V-36.48 L108 -4.23 Q109 -3.605 109.5 -2.542 Q110 -1.48 110 -0.23 Q110 1.895 108.562 3.333 Q107.125 4.77 105 4.77 H15 Q12.875 4.77 11.438 3.333 Q10 1.895 10 -0.23 Q10 -1.48 10.5 -2.542 Q11 -3.605 12 -4.23 L55 -36.48 V-45.23 Q55 -47.355 56.5 -48.792 Q58 -50.23 60.125 -50.23 Q63.25 -50.23 65.375 -52.48 Q67.5 -54.73 67.5 -57.855 Q67.5 -60.98 65.312 -63.105 Q63.125 -65.23 60 -65.23 Q57.75 -65.23 55.875 -64.042 Q54 -62.855 53.125 -60.73 Z"/></g><g id="Light-M" transform="matrix(1 0 0 1 1098.18 1126)"><path d="M27.596 -5.23 H92.452 L60 -29.317 L27.596 -5.23 Z M52.308 -60.201 Q51.827 -59.163 50.952 -58.528 Q50.077 -57.893 48.853 -57.893 Q47.252 -57.893 46.169 -58.975 Q45.087 -60.056 45.087 -61.654 Q45.087 -62.124 45.149 -62.417 Q45.212 -62.711 45.414 -63.114 Q47.342 -67.413 51.313 -70.071 Q55.283 -72.73 60.048 -72.73 Q66.673 -72.73 71.293 -68.148 Q75.913 -63.566 75.913 -56.941 Q75.913 -51.355 72.524 -47.09 Q69.135 -42.826 63.75 -41.509 V-35.903 L106.029 -4.47 Q106.788 -4.002 107.168 -3.207 Q107.548 -2.411 107.548 -1.475 Q107.548 0.116 106.47 1.193 Q105.392 2.27 103.798 2.27 H16.25 Q14.656 2.27 13.578 1.197 Q12.5 0.125 12.5 -1.461 Q12.5 -2.393 12.88 -3.196 Q13.26 -3.998 14.019 -4.47 L56.25 -35.903 V-44.749 Q56.25 -46.343 57.37 -47.421 Q58.49 -48.499 60.077 -48.499 Q63.538 -48.499 65.976 -50.991 Q68.413 -53.482 68.413 -56.943 Q68.413 -60.403 65.974 -62.816 Q63.534 -65.23 60.048 -65.23 Q57.558 -65.23 55.442 -63.898 Q53.327 -62.566 52.308 -60.201 Z"/></g><g id="Thin-M" transform="matrix(1 0 0 1 802.565 1126)"><path d="M25.192 -5.23 H94.904 L60 -30.903 L25.192 -5.23 Z M51.49 -59.672 Q51.154 -58.97 50.591 -58.576 Q50.029 -58.182 49.206 -58.182 Q48.129 -58.182 47.401 -58.907 Q46.673 -59.632 46.673 -60.703 Q46.673 -61.018 46.736 -61.167 Q46.798 -61.316 46.952 -61.624 Q48.684 -65.471 52.25 -67.851 Q55.817 -70.23 60.096 -70.23 Q66.096 -70.23 70.212 -66.129 Q74.327 -62.028 74.327 -56.028 Q74.327 -50.73 70.986 -46.826 Q67.644 -42.922 62.5 -42.038 V-35.326 L104.058 -4.711 Q104.577 -4.4 104.837 -3.871 Q105.096 -3.342 105.096 -2.72 Q105.096 -1.663 104.377 -0.946 Q103.659 -0.23 102.596 -0.23 H17.5 Q16.438 -0.23 15.719 -0.938 Q15 -1.645 15 -2.691 Q15 -3.307 15.26 -3.849 Q15.519 -4.392 16.038 -4.711 L57.5 -35.326 V-44.268 Q57.5 -45.331 58.24 -46.05 Q58.98 -46.768 60.029 -46.768 Q63.827 -46.768 66.577 -49.501 Q69.327 -52.234 69.327 -56.03 Q69.327 -59.826 66.635 -62.528 Q63.942 -65.23 60.096 -65.23 Q57.365 -65.23 55.01 -63.754 Q52.654 -62.278 51.49 -59.672 Z"/></g><g id="Ultralight-M" transform="matrix(1 0 0 1 506.415 1126)"><path d="M23.75 -5.23 H96.375 L60 -31.855 L23.75 -5.23 Z M51 -59.355 Q50.75 -58.855 50.375 -58.605 Q50 -58.355 49.417 -58.355 Q48.656 -58.355 48.14 -58.866 Q47.625 -59.377 47.625 -60.133 Q47.625 -60.355 47.688 -60.417 Q47.75 -60.48 47.875 -60.73 Q49.489 -64.306 52.813 -66.518 Q56.137 -68.73 60.125 -68.73 Q65.75 -68.73 69.562 -64.917 Q73.375 -61.105 73.375 -55.48 Q73.375 -50.355 70.062 -46.667 Q66.75 -42.98 61.75 -42.355 V-34.98 L102.875 -4.855 Q103.25 -4.638 103.438 -4.269 Q103.625 -3.901 103.625 -3.467 Q103.625 -2.73 103.122 -2.23 Q102.619 -1.73 101.875 -1.73 H18.25 Q17.506 -1.73 17.003 -2.219 Q16.5 -2.707 16.5 -3.43 Q16.5 -3.855 16.688 -4.241 Q16.875 -4.628 17.25 -4.855 L58.25 -34.98 V-43.98 Q58.25 -44.724 58.762 -45.227 Q59.274 -45.73 60 -45.73 Q64 -45.73 66.938 -48.608 Q69.875 -51.486 69.875 -55.483 Q69.875 -59.48 67.031 -62.355 Q64.188 -65.23 60.125 -65.23 Q57.25 -65.23 54.75 -63.667 Q52.25 -62.105 51 -59.355 Z"/></g><g id="Bold-S" transform="matrix(1 0 0 1 2294.23 696)"><path d="M30.87 -15.11 H63.909 L47.439 -25.762 L30.87 -15.11 Z M43.987 -53.081 Q43.395 -51.503 41.916 -50.517 Q40.436 -49.531 38.635 -49.531 Q36.294 -49.531 34.568 -51.242 Q32.842 -52.953 32.842 -55.349 Q32.842 -55.941 32.941 -56.582 Q33.039 -57.223 33.335 -57.815 Q35.111 -62.056 38.963 -64.522 Q42.815 -66.987 47.457 -66.987 Q53.849 -66.987 58.337 -62.537 Q62.824 -58.087 62.824 -51.718 Q62.824 -47.164 60.112 -43.564 Q57.4 -39.964 53.159 -38.287 V-36.019 L86.152 -13.923 Q87.309 -13.081 87.987 -11.877 Q88.664 -10.672 88.664 -9.292 Q88.664 -6.895 86.903 -5.184 Q85.143 -3.473 82.746 -3.473 H12.032 Q9.636 -3.473 7.875 -5.248 Q6.115 -7.023 6.115 -9.401 Q6.115 -10.771 6.792 -11.972 Q7.469 -13.174 8.626 -14.014 L41.62 -36.019 V-42.232 Q41.62 -44.629 43.358 -46.291 Q45.096 -47.953 47.537 -47.953 Q49.115 -47.953 50.151 -49.032 Q51.186 -50.111 51.186 -51.695 Q51.186 -53.18 50.061 -54.265 Q48.936 -55.349 47.469 -55.349 Q46.354 -55.349 45.417 -54.708 Q44.48 -54.067 43.987 -53.081 Z"/></g><g id="Semibold-S" transform="matrix(1 0 0 1 1998.1 696)"><path d="M27.997 -14.596 H66.739 L47.396 -27.649 L27.997 -14.596 Z M43.558 -53.338 Q43.052 -52.018 41.83 -51.203 Q40.608 -50.388 39.106 -50.388 Q37.152 -50.388 35.726 -51.799 Q34.3 -53.21 34.3 -55.221 Q34.3 -55.727 34.377 -56.239 Q34.454 -56.752 34.707 -57.258 Q36.311 -61.07 39.777 -63.3 Q43.244 -65.529 47.414 -65.529 Q53.163 -65.529 57.2 -61.53 Q61.238 -57.53 61.238 -51.804 Q61.238 -47.507 58.718 -44.078 Q56.199 -40.65 52.173 -39.231 V-36.148 L85.08 -13.623 Q86.066 -12.952 86.615 -11.941 Q87.163 -10.93 87.163 -9.763 Q87.163 -7.753 85.724 -6.342 Q84.285 -4.931 82.275 -4.931 H12.461 Q10.45 -4.931 9.011 -6.406 Q7.573 -7.881 7.573 -9.873 Q7.573 -11.028 8.121 -12.037 Q8.67 -13.045 9.655 -13.713 L42.563 -36.148 V-42.79 Q42.563 -44.8 44.022 -46.184 Q45.482 -47.567 47.537 -47.567 Q49.287 -47.567 50.43 -48.796 Q51.572 -50.025 51.572 -51.78 Q51.572 -53.48 50.34 -54.672 Q49.107 -55.864 47.426 -55.864 Q46.182 -55.864 45.138 -55.159 Q44.094 -54.453 43.558 -53.338 Z"/></g><g id="Medium-S" transform="matrix(1 0 0 1 1701.85 696)"><path d="M25.842 -14.21 H68.862 L47.364 -29.064 L25.842 -14.21 Z M43.236 -53.531 Q42.795 -52.404 41.766 -51.718 Q40.736 -51.031 39.46 -51.031 Q37.795 -51.031 36.594 -52.217 Q35.393 -53.403 35.393 -55.124 Q35.393 -55.566 35.455 -55.982 Q35.516 -56.398 35.737 -56.84 Q37.212 -60.33 40.388 -62.383 Q43.565 -64.436 47.382 -64.436 Q52.649 -64.436 56.348 -60.774 Q60.048 -57.112 60.048 -51.868 Q60.048 -47.764 57.673 -44.464 Q55.299 -41.165 51.433 -39.938 V-36.244 L84.276 -13.397 Q85.133 -12.856 85.585 -11.989 Q86.037 -11.123 86.037 -10.117 Q86.037 -8.396 84.84 -7.21 Q83.642 -6.024 81.921 -6.024 H12.783 Q11.061 -6.024 9.864 -7.274 Q8.666 -8.524 8.666 -10.227 Q8.666 -11.221 9.118 -12.085 Q9.57 -12.948 10.427 -13.488 L43.271 -36.244 V-43.208 Q43.271 -44.929 44.521 -46.103 Q45.771 -47.277 47.537 -47.277 Q49.415 -47.277 50.639 -48.619 Q51.862 -49.961 51.862 -51.845 Q51.862 -53.705 50.549 -54.977 Q49.236 -56.25 47.394 -56.25 Q46.054 -56.25 44.929 -55.496 Q43.804 -54.743 43.236 -53.531 Z"/></g><g id="Regular-S" transform="matrix(1 0 0 1 1405.73 696)"><path d="M24.262 -13.927 H70.418 L47.34 -30.101 L24.262 -13.927 Z M43.001 -53.673 Q42.606 -52.687 41.718 -52.095 Q40.831 -51.503 39.72 -51.503 Q38.267 -51.503 37.231 -52.524 Q36.195 -53.545 36.195 -55.054 Q36.195 -55.448 36.245 -55.793 Q36.294 -56.138 36.491 -56.533 Q37.872 -59.788 40.837 -61.711 Q43.801 -63.634 47.359 -63.634 Q52.271 -63.634 55.723 -60.22 Q59.175 -56.805 59.175 -51.915 Q59.175 -47.953 56.907 -44.747 Q54.638 -41.542 50.891 -40.457 V-36.315 L83.687 -13.232 Q84.449 -12.785 84.831 -12.025 Q85.212 -11.264 85.212 -10.376 Q85.212 -8.868 84.191 -7.847 Q83.17 -6.826 81.662 -6.826 H13.019 Q11.51 -6.826 10.489 -7.911 Q9.468 -8.996 9.468 -10.486 Q9.468 -11.363 9.849 -12.12 Q10.231 -12.878 10.993 -13.323 L43.79 -36.315 V-43.514 Q43.79 -45.023 44.886 -46.044 Q45.983 -47.065 47.537 -47.065 Q49.51 -47.065 50.792 -48.489 Q52.074 -49.914 52.074 -51.892 Q52.074 -53.87 50.702 -55.202 Q49.33 -56.533 47.37 -56.533 Q45.959 -56.533 44.776 -55.744 Q43.592 -54.955 43.001 -53.673 Z"/></g><g id="Light-S" transform="matrix(1 0 0 1 1109.75 696)"><path d="M22.365 -13.927 H72.353 L47.34 -31.353 L22.365 -13.927 Z M42.356 -53.256 Q42.075 -52.535 41.434 -52.133 Q40.793 -51.731 39.998 -51.731 Q38.959 -51.731 38.203 -52.47 Q37.447 -53.21 37.447 -54.303 Q37.447 -54.576 37.497 -54.807 Q37.546 -55.038 37.705 -55.357 Q38.931 -58.255 41.576 -59.958 Q44.222 -61.661 47.397 -61.661 Q51.816 -61.661 54.87 -58.626 Q57.923 -55.591 57.923 -51.194 Q57.923 -47.459 55.693 -44.539 Q53.462 -41.618 49.904 -40.874 V-35.86 L82.131 -13.422 Q82.704 -13.099 82.991 -12.549 Q83.277 -11.999 83.277 -11.359 Q83.277 -10.271 82.54 -9.535 Q81.803 -8.799 80.713 -8.799 H14.005 Q12.915 -8.799 12.178 -9.596 Q11.441 -10.393 11.441 -11.457 Q11.441 -12.084 11.727 -12.636 Q12.014 -13.188 12.587 -13.513 L44.776 -35.86 V-43.135 Q44.776 -44.225 45.573 -44.962 Q46.37 -45.699 47.499 -45.699 Q49.737 -45.699 51.266 -47.314 Q52.795 -48.929 52.795 -51.172 Q52.795 -53.415 51.224 -54.974 Q49.653 -56.533 47.408 -56.533 Q45.807 -56.533 44.434 -55.63 Q43.061 -54.727 42.356 -53.256 Z"/></g><g id="Thin-S" transform="matrix(1 0 0 1 814.015 696)"><path d="M20.469 -13.927 H74.287 L47.34 -32.605 L20.469 -13.927 Z M41.711 -52.838 Q41.544 -52.383 41.149 -52.171 Q40.755 -51.958 40.276 -51.958 Q39.651 -51.958 39.175 -52.417 Q38.699 -52.875 38.699 -53.553 Q38.699 -53.703 38.748 -53.821 Q38.797 -53.938 38.919 -54.181 Q39.99 -56.724 42.316 -58.206 Q44.643 -59.689 47.434 -59.689 Q51.361 -59.689 54.016 -57.033 Q56.672 -54.377 56.672 -50.474 Q56.672 -46.966 54.479 -44.33 Q52.286 -41.694 48.918 -41.292 V-35.404 L80.576 -13.612 Q80.959 -13.412 81.151 -13.073 Q81.343 -12.733 81.343 -12.341 Q81.343 -11.675 80.889 -11.223 Q80.435 -10.771 79.765 -10.771 H14.991 Q14.32 -10.771 13.867 -11.28 Q13.413 -11.789 13.413 -12.428 Q13.413 -12.804 13.605 -13.151 Q13.796 -13.498 14.18 -13.703 L45.762 -35.404 V-42.756 Q45.762 -43.427 46.259 -43.88 Q46.757 -44.334 47.461 -44.334 Q49.965 -44.334 51.74 -46.139 Q53.515 -47.945 53.515 -50.452 Q53.515 -52.96 51.745 -54.746 Q49.975 -56.533 47.446 -56.533 Q45.656 -56.533 44.093 -55.516 Q42.53 -54.5 41.711 -52.838 Z"/></g><g id="Ultralight-S" transform="matrix(1 0 0 1 517.792 696)"><path d="M19.331 -13.927 H75.448 L47.34 -33.356 L19.331 -13.927 Z M41.324 -52.588 Q41.225 -52.292 40.979 -52.193 Q40.732 -52.095 40.443 -52.095 Q40.066 -52.095 39.758 -52.385 Q39.45 -52.675 39.45 -53.103 Q39.45 -53.18 39.499 -53.229 Q39.549 -53.278 39.647 -53.476 Q40.625 -55.804 42.76 -57.155 Q44.895 -58.505 47.457 -58.505 Q51.088 -58.505 53.504 -56.077 Q55.92 -53.649 55.92 -50.041 Q55.92 -46.67 53.751 -44.205 Q51.581 -41.739 48.326 -41.542 V-35.131 L79.643 -13.726 Q79.913 -13.6 80.047 -13.387 Q80.182 -13.174 80.182 -12.931 Q80.182 -12.517 79.899 -12.236 Q79.615 -11.954 79.196 -11.954 H15.583 Q15.164 -11.954 14.88 -12.291 Q14.597 -12.627 14.597 -13.011 Q14.597 -13.237 14.731 -13.461 Q14.866 -13.685 15.136 -13.816 L46.354 -35.131 V-42.528 Q46.354 -42.947 46.671 -43.231 Q46.989 -43.514 47.439 -43.514 Q50.102 -43.514 52.025 -45.434 Q53.948 -47.354 53.948 -50.02 Q53.948 -52.687 52.058 -54.61 Q50.168 -56.533 47.469 -56.533 Q45.565 -56.533 43.888 -55.448 Q42.212 -54.363 41.324 -52.588 Z"/></g></g></svg>