<svg xmlns="http://www.w3.org/2000/svg" version="1.1" width="3300" height="2000"><g id="Notes"><style>
    text {
      font-family: monospace;
      text-anchor: middle;
    }
    text.emphasis {
      font-weight:bold;
    }
    text.lanchor {
      text-anchor: start;
    }
  </style><rect height="2200" id="artboard" fill="white" width="3300" x="0" y="0"/><line id="" style="fill:none;stroke:black;stroke-width:0.5;" x1="263" x2="3036" y1="292" y2="292"/><text class="lanchor emphasis" transform="matrix(1 0 0 1 263 322)">Weight/Scale Variations</text><text transform="matrix(1 0 0 1 559.711 322)">Ultralight</text><text transform="matrix(1 0 0 1 856.422 322)">Thin</text><text transform="matrix(1 0 0 1 1153.13 322)">Light</text><text transform="matrix(1 0 0 1 1449.84 322)">Regular</text><text transform="matrix(1 0 0 1 1746.56 322)">Medium</text><text transform="matrix(1 0 0 1 2043.27 322)">Semibold</text><text transform="matrix(1 0 0 1 2339.98 322)">Bold</text><text transform="matrix(1 0 0 1 2636.69 322)">Heavy</text><text transform="matrix(1 0 0 1 2933.4 322)">Black</text><text id="template-version" style="text-anchor: end;" transform="matrix(1 0 0 1 3036 1933)">Template v.1.0</text><text class="lanchor" transform="matrix(1 0 0 1 263 726)">Small</text><text class="lanchor" transform="matrix(1 0 0 1 263 1156)">Medium</text><text class="lanchor" transform="matrix(1 0 0 1 263 1586)">Large</text></g><g id="Guides"><g id="H-reference" style="fill:#27AAE1;stroke:none;" transform="matrix(1 0 0 1 339 696)"><path d="M 54.9316 0 L 57.666 0 L 30.5664 -70.459 L 28.0762 -70.459 L 0.976562 0 L 3.66211 0 L 12.9395 -24.4629 L 45.7031 -24.4629 Z M 29.1992 -67.0898 L 29.4434 -67.0898 L 44.8242 -26.709 L 13.8184 -26.709 Z"/></g><line id="Baseline-S" style="fill:none;stroke:#27AAE1;opacity:1;stroke-width:0.577;" x1="263" x2="3036" y1="696" y2="696"/><line id="Capline-S" style="fill:none;stroke:#27AAE1;opacity:1;stroke-width:0.577;" x1="263" x2="3036" y1="625.541" y2="625.541"/><g id="H-reference" style="fill:#27AAE1;stroke:none;" transform="matrix(1 0 0 1 339 1126)"><path d="M 54.9316 0 L 57.666 0 L 30.5664 -70.459 L 28.0762 -70.459 L 0.976562 0 L 3.66211 0 L 12.9395 -24.4629 L 45.7031 -24.4629 Z M 29.1992 -67.0898 L 29.4434 -67.0898 L 44.8242 -26.709 L 13.8184 -26.709 Z"/></g><line id="Baseline-M" style="fill:none;stroke:#27AAE1;opacity:1;stroke-width:0.577;" x1="263" x2="3036" y1="1126" y2="1126"/><line id="Capline-M" style="fill:none;stroke:#27AAE1;opacity:1;stroke-width:0.577;" x1="263" x2="3036" y1="1055.54" y2="1055.54"/><g id="H-reference" style="fill:#27AAE1;stroke:none;" transform="matrix(1 0 0 1 339 1556)"><path d="M 54.9316 0 L 57.666 0 L 30.5664 -70.459 L 28.0762 -70.459 L 0.976562 0 L 3.66211 0 L 12.9395 -24.4629 L 45.7031 -24.4629 Z M 29.1992 -67.0898 L 29.4434 -67.0898 L 44.8242 -26.709 L 13.8184 -26.709 Z"/></g><line id="Baseline-L" style="fill:none;stroke:#27AAE1;opacity:1;stroke-width:0.577;" x1="263" x2="3036" y1="1556" y2="1556"/><line id="Capline-L" style="fill:none;stroke:#27AAE1;opacity:1;stroke-width:0.577;" x1="263" x2="3036" y1="1485.54" y2="1485.54"/><rect height="119.336" id="left-margin" style="fill:darkred;stroke:none;opacity:0.4;" width="12.4512" x="1394.06" y="1030.79"/><rect height="119.336" id="right-margin" style="fill:darkgreen;stroke:none;opacity:0.4;" width="12.4512" x="1502.5112" y="1030.79"/><rect x="1406.5112" y="1045" width="96" height="96" fill="none" stroke="blue" stroke-dasharray="5"/><rect x="1394.06" y="1030.79" width="120.9024" height="119.336" fill="none" stroke="blue"/></g><g id="Symbols"><g id="Bold-L" transform="matrix(1 0 0 1 2266 1556)"><path d="M135.45 36.365  118.029 18.95 Q109.328 25.4 99.166 28.948 Q89.005 32.495 77.532 32.495 Q63.587 32.495 51.206 27.131 Q38.825 21.768 29.692 12.538 Q20.559 3.309 15.117 -8.941 Q9.675 -21.191 9.675 -35.167 Q9.675 -46.674 13.301 -56.932 Q16.926 -67.191 23.22 -75.726 L5.805 -93.28 L13.545 -101.101 L143.19 28.544 L135.45 36.365 Z M68.626 17.176 Q73.38 8.099 80.521 3.024 Q87.663 -2.051 94.573 -4.351 L33.819 -65.142 Q29.348 -58.853 26.969 -51.28 Q24.591 -43.707 24.591 -35.43 Q24.591 -27.325 27.009 -19.869 Q29.428 -12.413 33.327 -6.447 Q39.668 -9.833 46.569 -11.567 Q53.471 -13.3 60.939 -13.3 Q65.226 -13.3 69.378 -12.655 Q73.53 -12.01 76.836 -10.559 Q74.527 -8.83 72.367 -7.277 Q70.207 -5.724 68.358 -3.867 Q66.108 -4.189 64.362 -4.189 Q62.616 -4.189 60.858 -4.189 Q54.812 -4.189 49.255 -2.952 Q43.699 -1.714 38.539 1.084 Q44.344 7.34 52.275 11.613 Q60.207 15.886 68.626 17.176 Z M133.192 2.825  122.228 -8.14 Q125.449 -13.398 127.99 -20.433 Q130.532 -27.468 130.532 -35.391 Q130.532 -57.482 115.092 -72.842 Q99.653 -88.201 77.562 -88.201 Q69.741 -88.201 62.825 -86.137 Q55.91 -84.074 49.988 -80.219 L39.345 -91.022 Q47.488 -96.666 57.164 -99.891 Q66.839 -103.116 77.563 -103.116 Q91.333 -103.116 103.735 -97.672 Q116.136 -92.228 125.269 -82.998 Q134.402 -73.769 139.844 -61.475 Q145.286 -49.18 145.286 -35.232 Q145.286 -24.669 142.142 -14.994 Q138.998 -5.318 133.192 2.825 Z M81.27 -48.936  62.323 -67.883 Q70.386 -68.528 76.029 -62.683 Q81.673 -56.837 81.27 -48.936 Z M60.953 -26.119 Q52.045 -26.119 45.775 -32.342 Q39.506 -38.565 39.506 -47.584 Q39.506 -53.169 42.046 -57.946 Q44.586 -62.723 49.101 -65.545 L78.932 -35.714 Q76.11 -31.199 71.343 -28.659 Q66.576 -26.119 60.953 -26.119 Z M110.053 -20.314  92.719 -37.487 Q93.041 -43.131 97.437 -47.404 Q101.833 -51.677 107.796 -51.677 Q114.662 -51.677 119.452 -46.887 Q124.243 -42.096 124.243 -35.23 Q124.243 -29.267 119.97 -24.872 Q115.697 -20.476 110.053 -20.314 Z"/></g><g id="Semibold-L" transform="matrix(1 0 0 1 1970.27 1556)"><path d="M133.417 34.192  116.837 17.618 Q108.416 23.858 98.5 27.3 Q88.584 30.742 77.458 30.742 Q63.904 30.742 51.855 25.519 Q39.807 20.295 30.884 11.311 Q21.961 2.327 16.695 -9.642 Q11.428 -21.612 11.428 -35.178 Q11.428 -46.323 14.914 -56.294 Q18.401 -66.265 24.552 -74.604 L7.978 -91.247 L15.227 -98.577 L140.666 26.862 L133.417 34.192 Z M68.486 17.807 Q73.41 8.505 80.637 3.323 Q87.863 -1.859 94.994 -4.14 L33.382 -65.773 Q28.787 -59.274 26.338 -51.558 Q23.89 -43.842 23.89 -35.36 Q23.89 -27.185 26.308 -19.659 Q28.727 -12.133 32.766 -6.096 Q39.177 -9.553 46.162 -11.286 Q53.148 -13.02 60.63 -13.02 Q65.015 -13.02 69.238 -12.375 Q73.46 -11.73 76.836 -10.278 Q74.527 -8.619 72.297 -6.961 Q70.067 -5.303 68.218 -3.516 Q66.038 -3.839 64.187 -3.839 Q62.336 -3.839 60.583 -3.839 Q54.56 -3.839 48.919 -2.574 Q43.278 -1.31 38.048 1.471 Q43.993 7.831 51.972 12.174 Q59.952 16.517 68.486 17.807 Z M131.159 2.685  122.087 -6.387 Q125.729 -11.926 128.411 -19.451 Q131.093 -26.977 131.093 -35.321 Q131.093 -57.693 115.478 -73.262 Q99.863 -88.832 77.492 -88.832 Q69.25 -88.832 61.906 -86.561 Q54.562 -84.291 48.305 -80.078 L39.485 -88.989 Q47.558 -94.773 57.186 -98.033 Q66.814 -101.293 77.493 -101.293 Q90.983 -101.293 103.034 -96.024 Q115.085 -90.755 124.007 -81.771 Q132.93 -72.787 138.197 -60.802 Q143.463 -48.817 143.463 -35.232 Q143.463 -24.644 140.249 -15.016 Q137.035 -5.388 131.159 2.685 Z M81.55 -46.833  59.87 -68.514 Q69.334 -69.72 75.959 -62.928 Q82.585 -56.136 81.55 -46.833 Z M60.672 -25.979 Q51.723 -25.979 45.369 -32.307 Q39.016 -38.636 39.016 -47.654 Q39.016 -53.151 41.485 -57.867 Q43.955 -62.583 48.33 -65.475 L78.511 -35.293 Q75.619 -30.918 70.914 -28.449 Q66.208 -25.979 60.672 -25.979 Z M109.072 -19.403  92.158 -36.226 Q92.27 -42.5 96.946 -47.194 Q101.621 -51.888 108.076 -51.888 Q115.012 -51.888 119.873 -47.027 Q124.734 -42.166 124.734 -35.23 Q124.734 -28.775 120.04 -24.1 Q115.346 -19.424 109.072 -19.403 Z"/></g><g id="Medium-L" transform="matrix(1 0 0 1 1674.31 1556)"><path d="M131.892 32.562  115.943 16.619 Q107.733 22.701 98.001 26.064 Q88.269 29.428 77.402 29.428 Q64.141 29.428 52.342 24.309 Q40.543 19.191 31.778 10.391 Q23.013 1.591 17.878 -10.168 Q12.742 -21.927 12.742 -35.186 Q12.742 -46.06 16.124 -55.815 Q19.507 -65.57 25.551 -73.763 L9.608 -89.722 L16.49 -96.684 L138.773 25.6 L131.892 32.562 Z M68.38 18.28 Q73.433 8.81 80.723 3.547 Q88.013 -1.715 95.309 -3.982 L33.055 -66.246 Q28.366 -59.589 25.865 -51.767 Q23.364 -43.944 23.364 -35.307 Q23.364 -27.08 25.782 -19.501 Q28.201 -11.922 32.346 -5.833 Q38.809 -9.342 45.857 -11.076 Q52.906 -12.809 60.397 -12.809 Q64.857 -12.809 69.132 -12.164 Q73.407 -11.519 76.836 -10.068 Q74.527 -8.462 72.244 -6.725 Q69.962 -4.988 68.112 -3.253 Q65.986 -3.576 64.056 -3.576 Q62.126 -3.576 60.378 -3.576 Q54.371 -3.576 48.667 -2.291 Q42.963 -1.007 37.68 1.762 Q43.73 8.199 51.745 12.595 Q59.76 16.99 68.38 18.28 Z M129.635 2.58  121.982 -5.073 Q125.94 -10.822 128.727 -18.715 Q131.513 -26.609 131.513 -35.269 Q131.513 -57.851 115.767 -73.578 Q100.021 -89.305 77.439 -89.305 Q68.882 -89.305 61.216 -86.879 Q53.551 -84.453 47.043 -79.973 L39.59 -87.465 Q47.611 -93.354 57.203 -96.64 Q66.796 -99.926 77.44 -99.926 Q90.72 -99.926 102.508 -94.789 Q114.296 -89.651 123.061 -80.851 Q131.825 -72.051 136.961 -60.297 Q142.096 -48.544 142.096 -35.232 Q142.096 -24.626 138.829 -15.033 Q135.562 -5.441 129.635 2.58 Z M81.761 -45.256  58.029 -68.987 Q68.545 -70.614 75.907 -63.112 Q83.268 -55.611 81.761 -45.256 Z M60.462 -25.874 Q51.482 -25.874 45.065 -32.281 Q38.647 -38.688 38.647 -47.706 Q38.647 -53.138 41.064 -57.808 Q43.481 -62.478 47.751 -65.422 L78.196 -34.978 Q75.251 -30.708 70.592 -28.291 Q65.932 -25.874 60.462 -25.874 Z M108.335 -18.719  91.737 -35.279 Q91.692 -42.027 96.577 -47.036 Q101.462 -52.046 108.286 -52.046 Q115.275 -52.046 120.188 -47.132 Q125.102 -42.219 125.102 -35.23 Q125.102 -28.406 120.093 -23.521 Q115.083 -18.635 108.335 -18.719 Z"/></g><g id="Regular-L" transform="matrix(1 0 0 1 1378.56 1556)"><path d="M130.774 31.366  115.288 15.886 Q107.231 21.853 97.634 25.158 Q88.037 28.464 77.362 28.464 Q64.316 28.464 52.699 23.423 Q41.083 18.381 32.434 9.716 Q23.784 1.051 18.745 -10.554 Q13.706 -22.159 13.706 -35.192 Q13.706 -45.867 17.012 -55.464 Q20.317 -65.061 26.284 -73.146 L10.804 -88.604 L17.415 -95.296 L137.385 24.674 L130.774 31.366 Z M68.303 18.628 Q73.449 9.033 80.786 3.712 Q88.123 -1.609 95.541 -3.867 L32.814 -66.593 Q28.058 -59.821 25.518 -51.919 Q22.978 -44.018 22.978 -35.268 Q22.978 -27.003 25.397 -19.385 Q27.816 -11.768 32.037 -5.641 Q38.539 -9.188 45.634 -10.922 Q52.729 -12.655 60.227 -12.655 Q64.742 -12.655 69.055 -12.01 Q73.369 -11.365 76.836 -9.914 Q74.527 -8.346 72.205 -6.551 Q69.885 -4.756 68.035 -3.061 Q65.947 -3.383 63.959 -3.383 Q61.971 -3.383 60.227 -3.383 Q54.233 -3.383 48.482 -2.084 Q42.731 -0.784 37.41 1.976 Q43.538 8.469 51.579 12.903 Q59.62 17.338 68.303 18.628 Z M128.516 2.503  121.905 -4.109 Q126.094 -10.012 128.958 -18.175 Q131.822 -26.339 131.822 -35.23 Q131.822 -57.966 115.979 -73.809 Q100.136 -89.652 77.4 -89.652 Q68.612 -89.652 60.711 -87.112 Q52.809 -84.572 46.117 -79.896 L39.668 -86.346 Q47.649 -92.312 57.216 -95.618 Q66.782 -98.924 77.402 -98.924 Q90.527 -98.924 102.122 -93.883 Q113.717 -88.841 122.366 -80.176 Q131.016 -71.511 136.055 -59.928 Q141.094 -48.344 141.094 -35.232 Q141.094 -24.612 137.788 -15.046 Q134.483 -5.479 128.516 2.503 Z M81.915 -44.099  56.679 -69.334 Q67.967 -71.269 75.868 -63.247 Q83.769 -55.225 81.915 -44.099 Z M60.308 -25.797 Q51.305 -25.797 44.841 -32.262 Q38.377 -38.727 38.377 -47.745 Q38.377 -53.129 40.756 -57.765 Q43.134 -62.401 47.327 -65.384 L77.964 -34.746 Q74.981 -30.554 70.355 -28.175 Q65.73 -25.797 60.308 -25.797 Z M107.796 -18.218  91.429 -34.585 Q91.267 -41.68 96.307 -46.921 Q101.346 -52.161 108.441 -52.161 Q115.468 -52.161 120.42 -47.209 Q125.372 -42.257 125.372 -35.23 Q125.372 -28.135 120.131 -23.096 Q114.891 -18.057 107.796 -18.218 Z"/></g><g id="Light-L" transform="matrix(1 0 0 1 1082.77 1556)"><path d="M130.185 27.583  115.014 12.413 Q107.052 18.689 97.476 22.119 Q87.899 25.549 77.362 25.549 Q64.854 25.549 53.766 20.739 Q42.677 15.928 34.45 7.691 Q26.222 -0.547 21.422 -11.618 Q16.621 -22.689 16.621 -35.177 Q16.621 -45.898 20.082 -55.402 Q23.543 -64.906 29.757 -72.867 L14.618 -87.984 L19.648 -93.063 L135.152 22.442 L130.185 27.583 Z M69.389 18.069 Q74.969 8.134 82.926 2.952 Q90.883 -2.23 98.487 -4.053 L34.739 -67.865 Q29.422 -60.968 26.557 -52.736 Q23.691 -44.503 23.691 -35.268 Q23.691 -26.684 26.265 -18.966 Q28.839 -11.248 33.185 -4.927 Q39.469 -8.506 46.145 -10.208 Q52.822 -11.911 59.948 -11.911 Q64.094 -11.911 68.096 -11.312 Q72.097 -10.714 74.789 -9.697 Q73.048 -8.353 71.301 -7.022 Q69.553 -5.692 68.159 -4.332 Q66.443 -4.655 64.201 -4.748 Q61.958 -4.841 59.959 -4.841 Q53.938 -4.841 48.164 -3.479 Q42.39 -2.118 37.348 0.766 Q42.787 7.371 51.782 12.108 Q60.776 16.845 69.389 18.069 Z M126.966 -0.32  121.905 -5.442 Q125.753 -11.097 128.431 -18.879 Q131.109 -26.66 131.109 -35.23 Q131.109 -57.659 115.466 -73.299 Q99.824 -88.939 77.392 -88.939 Q68.953 -88.939 61.424 -86.569 Q53.895 -84.2 47.451 -79.834 L42.49 -84.796 Q49.953 -90.186 58.801 -93.097 Q67.649 -96.009 77.402 -96.009 Q89.926 -96.009 101.024 -91.199 Q112.123 -86.388 120.35 -78.151 Q128.578 -69.913 133.378 -58.827 Q138.179 -47.742 138.179 -35.232 Q138.179 -25.479 135.267 -16.631 Q132.356 -7.783 126.966 -0.32 Z M80.768 -46.58  59.253 -68.032 Q68.556 -69.006 75.077 -62.394 Q81.598 -55.783 80.768 -46.58 Z M60.585 -27.316 Q52.122 -27.316 46.087 -33.353 Q40.052 -39.389 40.052 -47.868 Q40.052 -52.945 42.276 -57.254 Q44.499 -61.563 48.381 -64.329 L77.065 -35.646 Q74.237 -31.763 69.934 -29.54 Q65.631 -27.316 60.585 -27.316 Z M108.416 -18.931  91.615 -35.67 Q91.795 -42.176 96.56 -46.89 Q101.326 -51.603 107.913 -51.603 Q114.748 -51.603 119.517 -46.834 Q124.287 -42.065 124.287 -35.23 Q124.287 -28.643 119.573 -23.877 Q114.86 -19.111 108.416 -18.931 Z"/></g><g id="Thin-L" transform="matrix(1 0 0 1 787.282 1556)"><path d="M129.595 23.8  114.741 8.94 Q106.873 15.527 97.317 19.08 Q87.761 22.634 77.362 22.634 Q65.392 22.634 54.832 18.055 Q44.272 13.476 36.466 5.665 Q28.66 -2.145 24.098 -12.682 Q19.536 -23.219 19.536 -35.163 Q19.536 -45.929 23.152 -55.34 Q26.768 -64.751 33.23 -72.588 L18.432 -87.363 L21.88 -90.83 L132.92 20.209 L129.595 23.8 Z M70.474 17.511 Q76.488 7.235 85.066 2.192 Q93.643 -2.85 101.432 -4.239 L36.663 -69.136 Q30.786 -62.115 27.596 -53.552 Q24.405 -44.988 24.405 -35.268 Q24.405 -26.365 27.133 -18.546 Q29.862 -10.727 34.332 -4.214 Q40.399 -7.824 46.657 -9.495 Q52.915 -11.167 59.669 -11.167 Q63.446 -11.167 67.136 -10.615 Q70.826 -10.063 72.742 -9.48 Q71.569 -8.36 70.396 -7.494 Q69.222 -6.627 68.283 -5.603 Q66.94 -5.926 64.442 -6.112 Q61.945 -6.298 59.691 -6.298 Q53.643 -6.298 47.846 -4.875 Q42.049 -3.451 37.286 -0.443 Q42.036 6.274 51.984 11.313 Q61.933 16.352 70.474 17.511 Z M125.415 -3.141  121.905 -6.776 Q125.412 -12.182 127.904 -19.582 Q130.395 -26.981 130.395 -35.23 Q130.395 -57.352 114.954 -72.789 Q99.513 -88.225 77.384 -88.225 Q69.294 -88.225 62.137 -86.027 Q54.98 -83.828 48.784 -79.772 L45.311 -83.245 Q52.257 -88.06 60.387 -90.577 Q68.516 -93.094 77.402 -93.094 Q89.326 -93.094 99.927 -88.515 Q110.528 -83.936 118.334 -76.125 Q126.14 -68.315 130.702 -57.727 Q135.264 -47.14 135.264 -35.232 Q135.264 -26.346 132.747 -18.217 Q130.23 -10.087 125.415 -3.141 Z M79.62 -49.06  61.827 -66.73 Q69.145 -66.742 74.287 -61.542 Q79.428 -56.341 79.62 -49.06 Z M60.861 -28.836 Q52.939 -28.836 47.333 -34.444 Q41.727 -40.052 41.727 -47.991 Q41.727 -52.762 43.795 -56.744 Q45.863 -60.726 49.436 -63.275 L76.166 -36.545 Q73.493 -32.972 69.513 -30.904 Q65.533 -28.836 60.861 -28.836 Z M109.036 -19.645  91.801 -36.756 Q92.322 -42.672 96.814 -46.859 Q101.307 -51.045 107.386 -51.045 Q114.029 -51.045 118.615 -46.459 Q123.201 -41.873 123.201 -35.23 Q123.201 -29.15 119.015 -24.658 Q114.829 -20.166 109.036 -19.645 Z"/></g><g id="Ultralight-L" transform="matrix(1 0 0 1 491.205 1556)"><path d="M129.242 21.53  114.577 6.856 Q106.765 13.629 97.222 17.257 Q87.678 20.885 77.362 20.885 Q65.715 20.885 55.472 16.445 Q45.229 12.004 37.676 4.45 Q30.123 -3.104 25.704 -13.321 Q21.285 -23.538 21.285 -35.154 Q21.285 -45.948 24.994 -55.303 Q28.703 -64.658 35.314 -72.42 L20.721 -86.991 L23.22 -89.491 L131.58 18.869 L129.242 21.53 Z M71.125 17.176 Q77.4 6.695 86.349 1.737 Q95.299 -3.222 103.2 -4.351 L37.818 -69.899 Q31.605 -62.804 28.219 -54.042 Q24.832 -45.279 24.832 -35.268 Q24.832 -26.174 27.654 -18.294 Q30.476 -10.415 35.02 -3.786 Q40.958 -7.414 46.964 -9.067 Q52.971 -10.72 59.501 -10.72 Q63.058 -10.72 66.56 -10.196 Q70.063 -9.672 71.514 -9.349 Q70.682 -8.364 69.853 -7.776 Q69.023 -7.188 68.358 -6.366 Q67.237 -6.689 64.587 -6.931 Q61.937 -7.172 59.53 -7.172 Q53.467 -7.172 47.656 -5.712 Q41.844 -4.251 37.249 -1.169 Q41.586 5.616 52.106 10.836 Q62.626 16.056 71.125 17.176 Z M124.485 -4.834  121.905 -7.576 Q125.207 -12.834 127.587 -20.004 Q129.968 -27.174 129.968 -35.23 Q129.968 -57.168 114.646 -72.482 Q99.325 -87.797 77.38 -87.797 Q69.499 -87.797 62.565 -85.701 Q55.631 -83.605 49.584 -79.735 L47.004 -82.315 Q53.639 -86.784 61.338 -89.064 Q69.037 -91.345 77.402 -91.345 Q88.966 -91.345 99.268 -86.905 Q109.571 -82.464 117.124 -74.91 Q124.677 -67.356 129.096 -57.067 Q133.515 -46.779 133.515 -35.232 Q133.515 -26.867 131.234 -19.168 Q128.954 -11.469 124.485 -4.834 Z M78.932 -50.549  63.371 -65.948 Q69.499 -65.384 73.812 -61.03 Q78.126 -56.676 78.932 -50.549 Z M61.028 -29.747 Q53.429 -29.747 48.08 -35.099 Q42.731 -40.45 42.731 -48.065 Q42.731 -52.652 44.707 -56.438 Q46.682 -60.224 50.068 -62.642 L75.626 -37.084 Q73.046 -33.698 69.26 -31.723 Q65.474 -29.747 61.028 -29.747 Z M109.408 -20.072  91.913 -37.407 Q92.638 -42.97 96.967 -46.84 Q101.295 -50.71 107.07 -50.71 Q113.597 -50.71 118.074 -46.234 Q122.55 -41.757 122.55 -35.23 Q122.55 -29.455 118.68 -25.127 Q114.81 -20.798 109.408 -20.072 Z"/></g><g id="Bold-M" transform="matrix(1 0 0 1 2281.8 1126)"><path d="M103.062 21.645  89.933 8.52 Q83.562 12.895 75.998 15.333 Q68.433 17.77 60.125 17.77 Q49.137 17.77 39.492 13.612 Q29.847 9.454 22.642 2.237 Q15.438 -4.98 11.281 -14.616 Q7.125 -24.252 7.125 -35.23 Q7.125 -43.538 9.562 -51.103 Q12 -58.667 16.375 -65.06 L3.062 -78.355 L11 -86.292 L111 13.708 L103.062 21.645 Z M52.25 1.77 Q55.125 -4.167 59.5 -7.667 Q63.875 -11.167 68.25 -13.167 L27.312 -54.105 Q24.812 -49.98 23.531 -45.23 Q22.25 -40.48 22.25 -35.355 Q22.25 -29.855 23.688 -24.917 Q25.125 -19.98 27.75 -15.98 Q32.625 -18.355 37.719 -19.605 Q42.812 -20.855 48.25 -20.855 Q51.688 -20.855 55.125 -20.199 Q58.562 -19.542 61.562 -18.542 Q59.005 -17.002 56.677 -15.303 Q54.349 -13.603 52.25 -11.48 Q50.688 -11.73 49.999 -11.73 Q49.31 -11.73 48.25 -11.73 Q44.25 -11.73 40.562 -10.91 Q36.875 -10.09 33.375 -8.326 Q37.125 -4.542 42 -1.949 Q46.875 0.645 52.25 1.77 Z M105.375 -7.792  94.125 -19.042 Q95.935 -22.806 96.967 -26.884 Q98 -30.963 98 -35.355 Q98 -51.042 86.906 -62.074 Q75.812 -73.105 60.125 -73.105 Q55.75 -73.105 51.562 -72.136 Q47.375 -71.167 43.688 -69.355 L32.562 -80.48 Q38.562 -84.167 45.5 -86.199 Q52.438 -88.23 60.125 -88.23 Q71.113 -88.23 80.696 -84.072 Q90.278 -79.914 97.483 -72.697 Q104.688 -65.48 108.844 -55.844 Q113 -46.208 113 -35.23 Q113 -27.667 110.969 -20.73 Q108.938 -13.792 105.375 -7.792 Z M64.062 -48.98  52.5 -60.542 Q56.875 -59.667 59.969 -56.511 Q63.062 -53.355 64.062 -48.98 Z M48.375 -28.355 Q41.5 -28.355 36.688 -33.167 Q31.875 -37.98 31.875 -44.866 Q31.875 -49.105 33.781 -52.667 Q35.688 -56.23 38.938 -58.355 L61.875 -35.417 Q59.75 -32.167 56.203 -30.261 Q52.656 -28.355 48.375 -28.355 Z M87.688 -25.48  71.625 -41.417 Q73.188 -43.855 75.75 -45.417 Q78.312 -46.98 81.5 -46.98 Q86.395 -46.98 89.823 -43.552 Q93.25 -40.125 93.25 -35.23 Q93.25 -32.042 91.688 -29.48 Q90.125 -26.917 87.688 -25.48 Z"/></g><g id="Semibold-M" transform="matrix(1 0 0 1 1985.97 1126)"><path d="M100.997 19.363  88.737 7.107 Q82.584 11.319 75.319 13.621 Q68.053 15.922 60.071 15.922 Q49.463 15.922 40.144 11.9 Q30.825 7.878 23.892 0.933 Q16.959 -6.012 12.939 -15.322 Q8.918 -24.632 8.918 -35.23 Q8.918 -43.212 11.22 -50.478 Q13.522 -57.744 17.734 -63.918 L5.345 -76.29 L12.739 -83.684 L108.391 11.969 L100.997 19.363 Z M52.087 2.422 Q55.125 -3.733 59.609 -7.341 Q64.092 -10.95 68.685 -12.95 L26.878 -54.757 Q24.269 -50.469 22.906 -45.556 Q21.544 -40.643 21.544 -35.301 Q21.544 -29.746 22.981 -24.754 Q24.419 -19.763 27.152 -15.6 Q32.081 -18.029 37.284 -19.306 Q42.486 -20.583 47.978 -20.583 Q51.525 -20.583 54.989 -19.927 Q58.454 -19.271 61.562 -18.271 Q58.951 -16.785 56.596 -15.004 Q54.24 -13.223 52.141 -11.1 Q50.688 -11.35 49.863 -11.35 Q49.038 -11.35 47.978 -11.35 Q43.978 -11.35 40.209 -10.503 Q36.44 -9.656 32.886 -7.891 Q36.745 -3.999 41.674 -1.351 Q46.603 1.297 52.087 2.422 Z M103.256 -7.955  93.962 -17.249 Q96.152 -21.284 97.375 -25.825 Q98.598 -30.365 98.598 -35.301 Q98.598 -51.314 87.341 -62.536 Q76.084 -73.757 60.071 -73.757 Q55.152 -73.757 50.557 -72.571 Q45.962 -71.385 41.949 -69.192 L32.725 -78.415 Q38.671 -82.211 45.554 -84.297 Q52.438 -86.382 60.071 -86.382 Q70.679 -86.382 79.962 -82.36 Q89.246 -78.338 96.178 -71.393 Q103.112 -64.447 107.132 -55.138 Q111.152 -45.828 111.152 -35.23 Q111.152 -27.667 109.067 -20.784 Q106.981 -13.901 103.256 -7.955 Z M64.334 -46.806  49.946 -61.195 Q55.788 -60.917 59.887 -56.756 Q63.986 -52.594 64.334 -46.806 Z M48.103 -28.246 Q41.174 -28.246 36.28 -33.14 Q31.386 -38.034 31.386 -44.975 Q31.386 -49.105 33.211 -52.586 Q35.035 -56.067 38.122 -58.301 L61.44 -34.983 Q59.206 -31.896 55.741 -30.071 Q52.276 -28.246 48.103 -28.246 Z M86.655 -24.556  71.027 -40.113 Q72.372 -43.203 75.234 -45.2 Q78.095 -47.197 81.772 -47.197 Q86.775 -47.197 90.257 -43.715 Q93.739 -40.234 93.739 -35.23 Q93.739 -31.553 91.742 -28.692 Q89.745 -25.831 86.655 -24.556 Z"/></g><g id="Medium-M" transform="matrix(1 0 0 1 1689.91 1126)"><path d="M99.448 17.651  87.841 6.047 Q81.85 10.137 74.809 12.337 Q67.768 14.536 60.03 14.536 Q49.707 14.536 40.633 10.616 Q31.559 6.696 24.83 -0.045 Q18.101 -6.787 14.182 -15.852 Q10.264 -24.918 10.264 -35.23 Q10.264 -42.968 12.463 -50.009 Q14.663 -57.051 18.753 -63.062 L7.057 -74.741 L14.043 -81.727 L106.435 10.664 L99.448 17.651 Z M51.965 2.911 Q55.125 -3.407 59.69 -7.097 Q64.255 -10.787 69.011 -12.787 L26.552 -55.246 Q23.861 -50.836 22.438 -45.801 Q21.014 -40.765 21.014 -35.26 Q21.014 -29.665 22.451 -24.632 Q23.889 -19.6 26.704 -15.314 Q31.674 -17.784 36.958 -19.082 Q42.242 -20.379 47.775 -20.379 Q51.402 -20.379 54.887 -19.723 Q58.372 -19.067 61.562 -18.067 Q58.91 -16.622 56.535 -14.779 Q54.159 -12.937 52.06 -10.814 Q50.688 -11.064 49.761 -11.064 Q48.834 -11.064 47.775 -11.064 Q43.775 -11.064 39.944 -10.197 Q36.114 -9.329 32.519 -7.565 Q36.459 -3.591 41.429 -0.902 Q46.4 1.786 51.965 2.911 Z M101.666 -8.078  93.84 -15.904 Q96.315 -20.143 97.681 -25.03 Q99.046 -29.916 99.046 -35.26 Q99.046 -51.518 87.667 -62.882 Q76.288 -74.246 60.03 -74.246 Q54.704 -74.246 49.803 -72.897 Q44.902 -71.548 40.644 -69.07 L32.848 -76.866 Q38.753 -80.744 45.595 -82.87 Q52.438 -84.996 60.03 -84.996 Q70.353 -84.996 79.412 -81.076 Q88.471 -77.156 95.2 -70.414 Q101.929 -63.673 105.848 -54.608 Q109.766 -45.542 109.766 -35.23 Q109.766 -27.667 107.64 -20.825 Q105.514 -13.983 101.666 -8.078 Z M64.538 -45.176  48.03 -61.684 Q54.973 -61.855 59.826 -56.939 Q64.679 -52.023 64.538 -45.176 Z M47.9 -28.165 Q40.929 -28.165 35.974 -33.12 Q31.019 -38.075 31.019 -45.056 Q31.019 -49.105 32.783 -52.525 Q34.546 -55.945 37.511 -58.26 L61.114 -34.657 Q58.799 -31.692 55.395 -29.928 Q51.99 -28.165 47.9 -28.165 Z M85.88 -23.863  70.579 -39.135 Q71.761 -42.714 74.847 -45.037 Q77.932 -47.36 81.975 -47.36 Q87.061 -47.36 90.583 -43.838 Q94.106 -40.315 94.106 -35.23 Q94.106 -31.186 91.783 -28.101 Q89.459 -25.015 85.88 -23.863 Z"/></g><g id="Regular-M" transform="matrix(1 0 0 1 1394.06 1126)"><path d="M98.312 16.395  87.183 5.27 Q81.312 9.27 74.436 11.395 Q67.558 13.52 60 13.52 Q49.887 13.52 40.992 9.675 Q32.097 5.829 25.517 -0.763 Q18.938 -7.355 15.094 -16.241 Q11.25 -25.127 11.25 -35.23 Q11.25 -42.788 13.375 -49.665 Q15.5 -56.542 19.5 -62.435 L8.312 -73.605 L15 -80.292 L105 9.708 L98.312 16.395 Z M51.875 3.27 Q55.125 -3.167 59.75 -6.917 Q64.375 -10.667 69.25 -12.667 L26.312 -55.605 Q23.562 -51.105 22.094 -45.98 Q20.625 -40.855 20.625 -35.23 Q20.625 -29.605 22.062 -24.542 Q23.5 -19.48 26.375 -15.105 Q31.375 -17.605 36.719 -18.917 Q42.062 -20.23 47.625 -20.23 Q51.312 -20.23 54.812 -19.574 Q58.312 -18.917 61.562 -17.917 Q58.88 -16.502 56.49 -14.615 Q54.099 -12.728 52 -10.605 Q50.688 -10.855 49.686 -10.855 Q48.685 -10.855 47.625 -10.855 Q43.625 -10.855 39.75 -9.973 Q35.875 -9.09 32.25 -7.326 Q36.25 -3.292 41.25 -0.574 Q46.25 2.145 51.875 3.27 Z M100.5 -8.167  93.75 -14.917 Q96.435 -19.306 97.905 -24.447 Q99.375 -29.588 99.375 -35.23 Q99.375 -51.667 87.906 -63.136 Q76.438 -74.605 60 -74.605 Q54.375 -74.605 49.25 -73.136 Q44.125 -71.667 39.688 -68.98 L32.938 -75.73 Q38.812 -79.667 45.625 -81.824 Q52.438 -83.98 60 -83.98 Q70.113 -83.98 79.008 -80.135 Q87.903 -76.289 94.483 -69.697 Q101.062 -63.105 104.906 -54.219 Q108.75 -45.333 108.75 -35.23 Q108.75 -27.667 106.594 -20.855 Q104.438 -14.042 100.5 -8.167 Z M64.688 -43.98  46.625 -62.042 Q54.375 -62.542 59.781 -57.074 Q65.188 -51.605 64.688 -43.98 Z M47.75 -28.105 Q40.75 -28.105 35.75 -33.105 Q30.75 -38.105 30.75 -45.116 Q30.75 -49.105 32.469 -52.48 Q34.188 -55.855 37.062 -58.23 L60.875 -34.417 Q58.5 -31.542 55.141 -29.824 Q51.781 -28.105 47.75 -28.105 Z M85.312 -23.355  70.25 -38.417 Q71.312 -42.355 74.562 -44.917 Q77.812 -47.48 82.125 -47.48 Q87.27 -47.48 90.823 -43.927 Q94.375 -40.375 94.375 -35.23 Q94.375 -30.917 91.812 -27.667 Q89.25 -24.417 85.312 -23.355 Z"/></g><g id="Light-M" transform="matrix(1 0 0 1 1098.18 1126)"><path d="M98.577 13.27  87.5 2.193 Q81.606 6.578 74.625 8.919 Q67.644 11.26 60 11.26 Q50.352 11.26 41.867 7.594 Q33.381 3.928 27.104 -2.357 Q20.828 -8.642 17.169 -17.114 Q13.51 -25.586 13.51 -35.219 Q13.51 -43.005 15.875 -49.954 Q18.241 -56.903 22.577 -62.747 L11.462 -73.845 L16.442 -78.85 L103.558 8.265 L98.577 13.27 Z M53.053 3.655 Q56.832 -3.336 62.25 -7.074 Q67.668 -10.812 72.928 -12.379 L27.66 -57.648 Q24.236 -52.86 22.37 -47.19 Q20.505 -41.519 20.505 -35.23 Q20.505 -29.166 22.183 -23.784 Q23.861 -18.403 26.928 -13.831 Q31.76 -16.451 36.779 -17.715 Q41.798 -18.98 47.168 -18.98 Q50.474 -18.98 53.66 -18.408 Q56.846 -17.836 59.303 -17.124 Q57.301 -15.979 55.572 -14.596 Q53.842 -13.213 52.24 -11.591 Q51.168 -11.841 49.825 -11.913 Q48.483 -11.985 47.177 -11.985 Q43.012 -11.985 38.975 -11.006 Q34.937 -10.028 31.337 -8.071 Q35.043 -3.71 41.119 -0.565 Q47.194 2.58 53.053 3.655 Z M98.913 -9.826  93.846 -14.893 Q96.459 -19.138 97.977 -24.319 Q99.495 -29.5 99.495 -35.23 Q99.495 -51.718 87.99 -63.221 Q76.484 -74.725 59.994 -74.725 Q54.351 -74.725 49.226 -73.244 Q44.101 -71.764 39.663 -69.076 L34.596 -74.143 Q40.118 -77.778 46.517 -79.749 Q52.917 -81.72 60 -81.72 Q69.648 -81.72 78.133 -78.054 Q86.619 -74.388 92.896 -68.103 Q99.172 -61.818 102.831 -53.342 Q106.49 -44.867 106.49 -35.23 Q106.49 -28.147 104.519 -21.747 Q102.549 -15.348 98.913 -9.826 Z M63.413 -45.326  47.899 -60.84 Q54.351 -60.884 58.904 -56.292 Q63.457 -51.701 63.413 -45.326 Z M47.724 -29.283 Q41.143 -29.283 36.499 -33.927 Q31.856 -38.571 31.856 -45.163 Q31.856 -48.915 33.478 -52.084 Q35.101 -55.254 37.832 -57.461 L60.034 -35.259 Q57.827 -32.528 54.67 -30.905 Q51.513 -29.283 47.724 -29.283 Z M85.168 -23.571  70.538 -38.201 Q71.529 -42.115 74.735 -44.677 Q77.942 -47.24 82.197 -47.24 Q87.241 -47.24 90.724 -43.757 Q94.207 -40.274 94.207 -35.23 Q94.207 -30.974 91.644 -27.768 Q89.082 -24.562 85.168 -23.571 Z"/></g><g id="Thin-M" transform="matrix(1 0 0 1 802.565 1126)"><path d="M98.841 10.145  87.817 -0.884 Q81.9 3.885 74.814 6.443 Q67.729 9.001 60 9.001 Q50.818 9.001 42.742 5.514 Q34.666 2.027 28.691 -3.951 Q22.717 -9.929 19.243 -17.987 Q15.769 -26.045 15.769 -35.207 Q15.769 -43.221 18.375 -50.242 Q20.981 -57.264 25.654 -63.06 L14.611 -74.086 L17.885 -77.408 L102.115 6.823 L98.841 10.145 Z M54.231 4.039 Q58.538 -3.504 64.75 -7.23 Q70.962 -10.956 76.606 -12.091 L29.008 -59.691 Q24.909 -54.615 22.647 -48.399 Q20.385 -42.184 20.385 -35.23 Q20.385 -28.726 22.303 -23.027 Q24.221 -17.327 27.481 -12.557 Q32.144 -15.297 36.839 -16.514 Q41.534 -17.73 46.712 -17.73 Q49.635 -17.73 52.508 -17.242 Q55.38 -16.754 57.043 -16.331 Q55.722 -15.455 54.654 -14.576 Q53.586 -13.697 52.481 -12.576 Q51.649 -12.826 49.965 -12.97 Q48.28 -13.115 46.729 -13.115 Q42.399 -13.115 38.2 -12.04 Q34 -10.965 30.423 -8.816 Q33.836 -4.128 40.988 -0.556 Q48.139 3.016 54.231 4.039 Z M97.327 -11.485  93.942 -14.869 Q96.483 -18.969 98.049 -24.191 Q99.615 -29.412 99.615 -35.23 Q99.615 -51.768 88.073 -63.307 Q76.531 -74.845 59.987 -74.845 Q54.327 -74.845 49.202 -73.353 Q44.077 -71.86 39.639 -69.172 L36.255 -72.557 Q41.423 -75.89 47.41 -77.675 Q53.397 -79.461 60 -79.461 Q69.182 -79.461 77.258 -75.974 Q85.335 -72.487 91.309 -66.509 Q97.283 -60.531 100.757 -52.466 Q104.231 -44.4 104.231 -35.23 Q104.231 -28.627 102.445 -22.64 Q100.66 -16.653 97.327 -11.485 Z M62.139 -46.672  49.173 -59.639 Q54.327 -59.225 58.026 -55.511 Q61.726 -51.797 62.139 -46.672 Z M47.699 -30.461 Q41.536 -30.461 37.249 -34.748 Q32.962 -39.036 32.962 -45.211 Q32.962 -48.724 34.488 -51.689 Q36.014 -54.653 38.601 -56.691 L59.192 -36.1 Q57.154 -33.514 54.199 -31.987 Q51.244 -30.461 47.699 -30.461 Z M85.024 -23.788  70.827 -37.985 Q71.745 -41.874 74.908 -44.437 Q78.071 -46.999 82.269 -46.999 Q87.212 -46.999 90.625 -43.586 Q94.038 -40.173 94.038 -35.23 Q94.038 -31.031 91.476 -27.869 Q88.913 -24.706 85.024 -23.788 Z"/></g><g id="Ultralight-M" transform="matrix(1 0 0 1 506.415 1126)"><path d="M99 8.27  88.007 -2.73 Q82.076 2.27 74.928 4.958 Q67.78 7.645 60 7.645 Q51.097 7.645 43.267 4.265 Q35.436 0.886 29.644 -4.908 Q23.851 -10.701 20.488 -18.511 Q17.125 -26.321 17.125 -35.2 Q17.125 -43.351 19.875 -50.415 Q22.625 -57.48 27.5 -63.247 L16.5 -74.23 L18.75 -76.542 L101.25 5.958 L99 8.27 Z M54.938 4.27 Q59.562 -3.605 66.25 -7.324 Q72.938 -11.042 78.812 -11.917 L29.816 -60.917 Q25.312 -55.667 22.812 -49.125 Q20.312 -42.583 20.312 -35.23 Q20.312 -28.463 22.375 -22.572 Q24.438 -16.681 27.812 -11.792 Q32.375 -14.605 36.875 -15.792 Q41.375 -16.98 46.438 -16.98 Q49.132 -16.98 51.816 -16.542 Q54.5 -16.105 55.688 -15.855 Q54.775 -15.141 54.103 -14.565 Q53.431 -13.988 52.625 -13.167 Q51.938 -13.417 50.048 -13.605 Q48.159 -13.792 46.46 -13.792 Q42.031 -13.792 37.734 -12.66 Q33.438 -11.528 29.875 -9.263 Q33.112 -4.379 40.909 -0.551 Q48.706 3.277 54.938 4.27 Z M96.375 -12.48  94 -14.855 Q96.497 -18.868 98.092 -24.114 Q99.688 -29.36 99.688 -35.23 Q99.688 -51.798 88.123 -63.358 Q76.559 -74.917 59.984 -74.917 Q54.312 -74.917 49.188 -73.417 Q44.062 -71.917 39.625 -69.23 L37.25 -71.605 Q42.206 -74.756 47.946 -76.431 Q53.685 -78.105 60 -78.105 Q68.903 -78.105 76.734 -74.725 Q84.564 -71.346 90.356 -65.552 Q96.149 -59.759 99.512 -51.939 Q102.875 -44.12 102.875 -35.23 Q102.875 -28.915 101.201 -23.175 Q99.526 -17.436 96.375 -12.48 Z M61.375 -47.48  49.938 -58.917 Q54.312 -58.23 57.5 -55.042 Q60.688 -51.855 61.375 -47.48 Z M47.683 -31.167 Q41.771 -31.167 37.698 -35.241 Q33.625 -39.316 33.625 -45.24 Q33.625 -48.61 35.094 -51.451 Q36.562 -54.292 39.062 -56.23 L58.688 -36.605 Q56.75 -34.105 53.917 -32.636 Q51.083 -31.167 47.683 -31.167 Z M84.938 -23.917  71 -37.855 Q71.875 -41.73 75.012 -44.292 Q78.148 -46.855 82.312 -46.855 Q87.195 -46.855 90.566 -43.484 Q93.938 -40.112 93.938 -35.23 Q93.938 -31.066 91.375 -27.929 Q88.812 -24.792 84.938 -23.917 Z"/></g><g id="Bold-S" transform="matrix(1 0 0 1 2294.23 696)"><path d="M79.048 6.193  70.563 -2.289 Q65.734 1.163 59.829 3.086 Q53.924 5.009 47.439 5.009 Q39.126 5.009 31.831 1.876 Q24.536 -1.256 18.999 -6.803 Q13.462 -12.349 10.331 -19.637 Q7.2 -26.926 7.2 -35.23 Q7.2 -41.715 9.123 -47.62 Q11.046 -53.525 14.498 -58.371 L5.868 -66.987 L11.539 -72.658 L84.719 0.522 L79.048 6.193 Z M43.888 -6.333 Q44.677 -10.623 47.389 -13.927 Q50.102 -17.231 53.652 -19.203 L22.536 -50.32 Q20.465 -47.065 19.404 -43.219 Q18.344 -39.372 18.344 -35.329 Q18.344 -31.975 19.035 -28.819 Q19.725 -25.663 21.106 -22.902 Q25.051 -24.677 29.043 -25.466 Q33.036 -26.255 37.299 -26.255 Q39.992 -26.255 42.903 -25.764 Q45.814 -25.274 48.376 -24.529 Q46.654 -23.412 45.211 -22.121 Q43.769 -20.829 42.409 -19.351 Q40.979 -19.549 39.794 -19.697 Q38.61 -19.844 37.28 -19.844 Q33.858 -19.844 30.687 -19.198 Q27.516 -18.551 24.459 -17.257 Q27.911 -12.694 33.039 -9.859 Q38.168 -7.023 43.888 -6.333 Z M81.563 -13.976  73.18 -22.359 Q74.805 -25.526 75.669 -28.744 Q76.533 -31.962 76.533 -35.303 Q76.533 -47.312 67.977 -55.818 Q59.422 -64.324 47.439 -64.324 Q43.987 -64.324 40.584 -63.511 Q37.182 -62.697 34.272 -61.168 L26.086 -69.354 Q30.623 -72.264 36.033 -73.866 Q41.443 -75.469 47.439 -75.469 Q55.813 -75.469 63.028 -72.336 Q70.243 -69.204 75.78 -63.657 Q81.316 -58.111 84.448 -50.853 Q87.579 -43.596 87.579 -35.23 Q87.579 -29.333 85.976 -23.923 Q84.374 -18.513 81.563 -13.976 Z M48.869 -46.572  39.549 -55.892 Q43.296 -55.793 45.984 -53.056 Q48.671 -50.32 48.869 -46.572 Z M37.379 -32.173 Q32.281 -32.173 28.715 -35.739 Q25.149 -39.305 25.149 -44.411 Q25.149 -47.484 26.461 -50.069 Q27.772 -52.654 30.031 -54.166 L47.143 -37.055 Q45.631 -34.796 43.058 -33.484 Q40.486 -32.173 37.379 -32.173 Z M65.635 -29.904  55.329 -40.112 Q55.772 -42.725 57.992 -44.599 Q60.211 -46.473 63.12 -46.473 Q66.816 -46.473 69.406 -43.883 Q71.996 -41.293 71.996 -37.597 Q71.996 -34.688 70.122 -32.468 Q68.249 -30.249 65.635 -29.904 Z"/></g><g id="Semibold-S" transform="matrix(1 0 0 1 1998.1 696)"><path d="M77.419 4.392  69.619 -3.404 Q64.962 -0.081 59.293 1.735 Q53.624 3.551 47.396 3.551 Q39.384 3.551 32.345 0.526 Q25.307 -2.5 19.985 -7.832 Q14.663 -13.164 11.639 -20.195 Q8.615 -27.226 8.615 -35.23 Q8.615 -41.458 10.431 -47.127 Q12.247 -52.796 15.57 -57.471 L7.669 -65.358 L12.911 -70.6 L82.661 -0.851 L77.419 4.392 Z M43.76 -5.818 Q44.677 -10.28 47.475 -13.67 Q50.273 -17.059 53.995 -19.032 L22.193 -50.834 Q20.036 -47.451 18.911 -43.476 Q17.787 -39.501 17.787 -35.286 Q17.787 -31.89 18.477 -28.691 Q19.168 -25.492 20.634 -22.602 Q24.622 -24.42 28.7 -25.23 Q32.779 -26.041 37.085 -26.041 Q39.864 -26.041 42.796 -25.55 Q45.728 -25.059 48.376 -24.315 Q46.611 -23.241 45.147 -21.885 Q43.683 -20.529 42.323 -19.051 Q40.979 -19.249 39.687 -19.396 Q38.395 -19.544 37.066 -19.544 Q33.644 -19.544 30.409 -18.876 Q27.173 -18.208 24.073 -16.914 Q27.611 -12.265 32.782 -9.387 Q37.953 -6.509 43.76 -5.818 Z M79.891 -14.105  73.051 -20.944 Q74.976 -24.326 75.99 -27.908 Q77.005 -31.49 77.005 -35.26 Q77.005 -47.526 68.32 -56.182 Q59.636 -64.839 47.396 -64.839 Q43.515 -64.839 39.791 -63.854 Q36.067 -62.869 32.9 -61.04 L26.215 -67.725 Q30.709 -70.72 36.076 -72.366 Q41.443 -74.011 47.396 -74.011 Q55.47 -74.011 62.449 -70.986 Q69.428 -67.96 74.751 -62.628 Q80.073 -57.296 83.097 -50.296 Q86.121 -43.296 86.121 -35.23 Q86.121 -29.333 84.476 -23.966 Q82.83 -18.599 79.891 -14.105 Z M49.083 -44.857  37.533 -56.406 Q42.439 -56.779 45.92 -53.249 Q49.4 -49.719 49.083 -44.857 Z M37.164 -32.087 Q32.024 -32.087 28.394 -35.717 Q24.763 -39.347 24.763 -44.497 Q24.763 -47.484 26.011 -50.005 Q27.258 -52.525 29.388 -54.123 L46.8 -36.712 Q45.202 -34.581 42.694 -33.334 Q40.185 -32.087 37.164 -32.087 Z M64.82 -29.175  54.857 -39.083 Q55.129 -42.211 57.584 -44.428 Q60.039 -46.645 63.334 -46.645 Q67.117 -46.645 69.749 -44.012 Q72.382 -41.379 72.382 -37.597 Q72.382 -34.302 70.165 -31.847 Q67.948 -29.392 64.82 -29.175 Z"/></g><g id="Medium-S" transform="matrix(1 0 0 1 1701.85 696)"><path d="M76.196 3.041  68.912 -4.24 Q64.383 -1.014 58.891 0.722 Q53.399 2.458 47.364 2.458 Q39.577 2.458 32.731 -0.487 Q25.886 -3.432 20.725 -8.604 Q15.563 -13.775 12.62 -20.613 Q9.676 -27.451 9.676 -35.23 Q9.676 -41.265 11.412 -46.757 Q13.147 -52.249 16.374 -56.795 L9.02 -64.136 L13.94 -69.056 L81.117 -1.88 L76.196 3.041 Z M43.663 -5.432 Q44.677 -10.023 47.539 -13.477 Q50.402 -16.931 54.252 -18.903 L21.935 -51.22 Q19.714 -47.74 18.541 -43.669 Q17.369 -39.597 17.369 -35.254 Q17.369 -31.825 18.059 -28.594 Q18.75 -25.363 20.28 -22.377 Q24.3 -24.227 28.443 -25.053 Q32.586 -25.88 36.924 -25.88 Q39.767 -25.88 42.715 -25.389 Q45.663 -24.899 48.376 -24.154 Q46.579 -23.112 45.099 -21.708 Q43.619 -20.304 42.259 -18.826 Q40.979 -19.023 39.607 -19.171 Q38.235 -19.319 36.905 -19.319 Q33.483 -19.319 30.2 -18.635 Q26.916 -17.951 23.784 -16.657 Q27.386 -11.944 32.589 -9.033 Q37.793 -6.123 43.663 -5.432 Z M78.636 -14.201  72.955 -19.883 Q75.105 -23.425 76.232 -27.281 Q77.358 -31.136 77.358 -35.228 Q77.358 -47.687 68.578 -56.456 Q59.797 -65.225 47.364 -65.225 Q43.161 -65.225 39.196 -64.111 Q35.231 -62.997 31.871 -60.943 L26.311 -66.503 Q30.773 -69.562 36.108 -71.24 Q41.443 -72.918 47.364 -72.918 Q55.212 -72.918 62.015 -69.973 Q68.817 -67.028 73.979 -61.856 Q79.14 -56.685 82.084 -49.878 Q85.028 -43.071 85.028 -35.23 Q85.028 -29.333 83.35 -23.998 Q81.672 -18.663 78.636 -14.201 Z M49.244 -43.57  36.022 -56.792 Q41.796 -57.519 45.871 -53.394 Q49.947 -49.269 49.244 -43.57 Z M37.004 -32.023 Q31.831 -32.023 28.153 -35.701 Q24.474 -39.38 24.474 -44.561 Q24.474 -47.484 25.673 -49.956 Q26.872 -52.429 28.906 -54.091 L46.542 -36.454 Q44.88 -34.42 42.42 -33.222 Q39.96 -32.023 37.004 -32.023 Z M64.209 -28.629  54.503 -38.311 Q54.647 -41.825 57.279 -44.299 Q59.91 -46.773 63.495 -46.773 Q67.342 -46.773 70.007 -44.109 Q72.672 -41.444 72.672 -37.597 Q72.672 -34.012 70.197 -31.38 Q67.723 -28.749 64.209 -28.629 Z"/></g><g id="Regular-S" transform="matrix(1 0 0 1 1405.73 696)"><path d="M75.3 2.05  68.393 -4.853 Q63.958 -1.697 58.596 -0.021 Q53.234 1.656 47.34 1.656 Q39.718 1.656 33.014 -1.23 Q26.311 -4.116 21.267 -9.17 Q16.224 -14.223 13.339 -20.92 Q10.454 -27.616 10.454 -35.23 Q10.454 -41.124 12.131 -46.486 Q13.808 -51.848 16.963 -56.3 L10.01 -63.239 L14.695 -67.924 L79.985 -2.634 L75.3 2.05 Z M43.592 -5.149 Q44.677 -9.834 47.587 -13.335 Q50.496 -16.836 54.441 -18.809 L21.747 -51.503 Q19.478 -47.953 18.27 -43.81 Q17.062 -39.668 17.062 -35.23 Q17.062 -31.778 17.753 -28.523 Q18.443 -25.269 20.021 -22.211 Q24.065 -24.085 28.254 -24.924 Q32.444 -25.762 36.806 -25.762 Q39.697 -25.762 42.656 -25.271 Q45.616 -24.781 48.376 -24.036 Q46.555 -23.018 45.064 -21.578 Q43.572 -20.139 42.212 -18.661 Q40.979 -18.858 39.548 -19.006 Q38.117 -19.154 36.787 -19.154 Q33.365 -19.154 30.046 -18.458 Q26.727 -17.762 23.571 -16.468 Q27.221 -11.708 32.448 -8.774 Q37.675 -5.84 43.592 -5.149 Z M77.716 -14.272  72.884 -19.105 Q75.199 -22.765 76.409 -26.821 Q77.618 -30.877 77.618 -35.205 Q77.618 -47.805 68.766 -56.656 Q59.915 -65.508 47.34 -65.508 Q42.902 -65.508 38.76 -64.3 Q34.617 -63.092 31.116 -60.872 L26.382 -65.606 Q30.82 -68.713 36.132 -70.414 Q41.443 -72.116 47.34 -72.116 Q55.024 -72.116 61.696 -69.23 Q68.369 -66.344 73.413 -61.29 Q78.456 -56.237 81.341 -49.571 Q84.226 -42.905 84.226 -35.23 Q84.226 -29.333 82.524 -24.022 Q80.823 -18.71 77.716 -14.272 Z M49.362 -42.627  34.913 -57.075 Q41.324 -58.062 45.836 -53.5 Q50.348 -48.939 49.362 -42.627 Z M36.886 -31.975 Q31.69 -31.975 27.976 -35.689 Q24.262 -39.403 24.262 -44.608 Q24.262 -47.484 25.425 -49.921 Q26.589 -52.358 28.552 -54.067 L46.354 -36.266 Q44.644 -34.303 42.22 -33.139 Q39.795 -31.975 36.886 -31.975 Z M63.761 -28.228  54.244 -37.745 Q54.293 -41.542 57.055 -44.205 Q59.816 -46.868 63.613 -46.868 Q67.507 -46.868 70.195 -44.179 Q72.884 -41.491 72.884 -37.597 Q72.884 -33.8 70.221 -31.038 Q67.558 -28.277 63.761 -28.228 Z"/></g><g id="Light-S" transform="matrix(1 0 0 1 1109.75 696)"><path d="M75.509 -0.416  68.643 -7.281 Q64.19 -3.822 58.746 -1.975 Q53.301 -0.127 47.34 -0.127 Q40.085 -0.127 33.705 -2.872 Q27.324 -5.617 22.52 -10.427 Q17.715 -15.238 14.976 -21.608 Q12.237 -27.978 12.237 -35.221 Q12.237 -41.294 14.103 -46.714 Q15.97 -52.133 19.391 -56.547 L12.495 -63.429 L15.833 -66.786 L78.847 -3.772 L75.509 -0.416 Z M44.522 -4.846 Q46.024 -9.967 49.559 -13.459 Q53.095 -16.95 57.343 -18.581 L22.81 -53.115 Q20.01 -49.337 18.488 -44.765 Q16.967 -40.192 16.967 -35.23 Q16.967 -31.431 17.847 -27.925 Q18.727 -24.419 20.457 -21.206 Q24.368 -23.175 28.302 -23.975 Q32.236 -24.776 36.446 -24.776 Q39.035 -24.776 41.747 -24.351 Q44.459 -23.927 46.593 -23.41 Q45.309 -22.605 44.339 -21.563 Q43.369 -20.521 42.401 -19.439 Q41.358 -19.636 39.658 -19.841 Q37.957 -20.046 36.433 -20.046 Q32.882 -20.046 29.435 -19.274 Q25.988 -18.502 22.851 -17.056 Q26.268 -12.038 32.344 -8.767 Q38.42 -5.496 44.522 -4.846 Z M76.465 -15.581  72.96 -19.086 Q75.218 -22.632 76.466 -26.72 Q77.713 -30.808 77.713 -35.205 Q77.713 -47.844 68.832 -56.724 Q59.952 -65.603 47.335 -65.603 Q42.883 -65.603 38.741 -64.385 Q34.598 -63.167 31.097 -60.948 L27.691 -64.355 Q31.85 -67.223 36.836 -68.778 Q41.822 -70.333 47.34 -70.333 Q54.656 -70.333 61.006 -67.588 Q67.356 -64.843 72.16 -60.033 Q76.965 -55.222 79.704 -48.88 Q82.443 -42.537 82.443 -35.23 Q82.443 -29.712 80.888 -24.726 Q79.333 -19.74 76.465 -15.581 Z M48.357 -43.689  35.919 -56.127 Q41.305 -56.753 45.144 -52.884 Q48.982 -49.015 48.357 -43.689 Z M36.865 -32.905 Q32 -32.905 28.567 -36.338 Q25.134 -39.771 25.134 -44.646 Q25.134 -47.334 26.222 -49.609 Q27.31 -51.884 29.159 -53.46 L45.69 -36.929 Q44.113 -35.08 41.848 -33.993 Q39.583 -32.905 36.865 -32.905 Z M63.647 -28.398  54.471 -37.574 Q54.464 -41.352 57.191 -44.015 Q59.918 -46.678 63.67 -46.678 Q67.484 -46.678 70.118 -44.045 Q72.751 -41.411 72.751 -37.597 Q72.751 -33.845 70.088 -31.118 Q67.425 -28.391 63.647 -28.398 Z"/></g><g id="Thin-S" transform="matrix(1 0 0 1 814.015 696)"><path d="M75.717 -2.881  68.893 -9.709 Q64.422 -5.946 58.895 -3.928 Q53.368 -1.91 47.34 -1.91 Q40.453 -1.91 34.395 -4.513 Q28.337 -7.117 23.772 -11.685 Q19.206 -16.254 16.613 -22.297 Q14.02 -28.341 14.02 -35.212 Q14.02 -41.465 16.076 -46.941 Q18.132 -52.417 21.819 -56.793 L14.98 -63.619 L16.971 -65.648 L77.709 -4.91 L75.717 -2.881 Z M45.451 -4.542 Q47.37 -10.1 51.532 -13.582 Q55.693 -17.064 60.245 -18.354 L23.873 -54.727 Q20.541 -50.722 18.706 -45.719 Q16.872 -40.717 16.872 -35.23 Q16.872 -31.085 17.942 -27.327 Q19.012 -23.57 20.893 -20.201 Q24.671 -22.265 28.349 -23.027 Q32.027 -23.789 36.086 -23.789 Q38.373 -23.789 40.838 -23.432 Q43.302 -23.074 44.81 -22.784 Q44.064 -22.192 43.615 -21.548 Q43.167 -20.904 42.591 -20.216 Q41.737 -20.413 39.767 -20.675 Q37.797 -20.937 36.08 -20.937 Q32.398 -20.937 28.823 -20.089 Q25.248 -19.241 22.13 -17.644 Q25.316 -12.367 32.241 -8.76 Q39.165 -5.153 45.451 -4.542 Z M75.213 -16.889  73.036 -19.067 Q75.237 -22.499 76.522 -26.619 Q77.808 -30.739 77.808 -35.205 Q77.808 -47.884 68.898 -56.791 Q59.988 -65.698 47.33 -65.698 Q42.864 -65.698 38.722 -64.47 Q34.579 -63.243 31.078 -61.024 L28.999 -63.103 Q32.88 -65.733 37.54 -67.141 Q42.2 -68.55 47.34 -68.55 Q54.289 -68.55 60.316 -65.947 Q66.343 -63.343 70.908 -58.775 Q75.474 -54.206 78.067 -48.188 Q80.66 -42.169 80.66 -35.23 Q80.66 -30.09 79.251 -25.43 Q77.843 -20.77 75.213 -16.889 Z M47.351 -44.751  36.924 -55.179 Q41.286 -55.444 44.451 -52.267 Q47.617 -49.091 47.351 -44.751 Z M36.845 -33.834 Q32.31 -33.834 29.158 -36.986 Q26.007 -40.138 26.007 -44.683 Q26.007 -47.184 27.019 -49.297 Q28.03 -51.41 29.766 -52.853 L45.026 -37.593 Q43.582 -35.858 41.477 -34.846 Q39.372 -33.834 36.845 -33.834 Z M63.533 -28.569  54.699 -37.403 Q54.635 -41.163 57.327 -43.826 Q60.02 -46.488 63.727 -46.488 Q67.461 -46.488 70.04 -43.91 Q72.618 -41.331 72.618 -37.597 Q72.618 -33.89 69.956 -31.197 Q67.293 -28.505 63.533 -28.569 Z"/></g><g id="Ultralight-S" transform="matrix(1 0 0 1 517.792 696)"><path d="M75.843 -4.36  69.043 -11.165 Q64.561 -7.22 58.985 -5.1 Q53.409 -2.98 47.34 -2.98 Q40.673 -2.98 34.809 -5.498 Q28.945 -8.017 24.523 -12.44 Q20.101 -16.863 17.595 -22.711 Q15.09 -28.558 15.09 -35.207 Q15.09 -41.568 17.259 -47.078 Q19.429 -52.588 23.276 -56.941 L16.47 -63.733 L17.654 -64.965 L77.026 -5.593 L75.843 -4.36 Z M46.009 -4.36 Q48.178 -10.179 52.715 -13.656 Q57.252 -17.132 61.986 -18.217 L24.511 -55.695 Q20.859 -51.552 18.837 -46.292 Q16.816 -41.031 16.816 -35.23 Q16.816 -30.877 17.999 -26.969 Q19.183 -23.06 21.155 -19.598 Q24.854 -21.718 28.378 -22.458 Q31.902 -23.198 35.869 -23.198 Q37.976 -23.198 40.292 -22.88 Q42.608 -22.562 43.74 -22.409 Q43.316 -21.944 43.181 -21.539 Q43.045 -21.133 42.705 -20.683 Q41.965 -20.88 39.833 -21.176 Q37.701 -21.472 35.868 -21.472 Q32.108 -21.472 28.456 -20.578 Q24.804 -19.685 21.698 -17.997 Q24.745 -12.565 32.178 -8.756 Q39.612 -4.947 46.009 -4.36 Z M74.462 -17.675  73.081 -19.055 Q75.249 -22.419 76.557 -26.558 Q77.864 -30.697 77.864 -35.205 Q77.864 -47.908 68.937 -56.831 Q60.01 -65.754 47.327 -65.754 Q42.853 -65.754 38.71 -64.522 Q34.568 -63.289 31.067 -61.07 L29.785 -62.352 Q33.497 -64.838 37.963 -66.159 Q42.428 -67.48 47.34 -67.48 Q54.069 -67.48 59.902 -64.962 Q65.735 -62.443 70.157 -58.02 Q74.579 -53.597 77.085 -47.773 Q79.59 -41.949 79.59 -35.23 Q79.59 -30.318 78.269 -25.853 Q76.948 -21.387 74.462 -17.675 Z M46.748 -45.388  37.527 -54.61 Q41.275 -54.659 44.036 -51.898 Q46.798 -49.136 46.748 -45.388 Z M36.833 -34.392 Q32.496 -34.392 29.513 -37.375 Q26.53 -40.358 26.53 -44.706 Q26.53 -47.094 27.496 -49.109 Q28.463 -51.125 30.13 -52.489 L44.628 -37.991 Q43.264 -36.324 41.254 -35.358 Q39.244 -34.392 36.833 -34.392 Z M63.465 -28.671  54.836 -37.301 Q54.737 -41.049 57.409 -43.712 Q60.081 -46.375 63.761 -46.375 Q67.448 -46.375 69.993 -43.829 Q72.539 -41.284 72.539 -37.597 Q72.539 -33.917 69.876 -31.245 Q67.213 -28.573 63.465 -28.671 Z"/></g></g></svg>