<svg xmlns="http://www.w3.org/2000/svg" height="48" viewBox="0 -960 960 960" width="48"><path d="M601.5-505q-11 0-18.75 7.017Q575-490.967 575-481.5v4.25q0 1.25 2 1.75l20.5 20.5q1 1 2.5 1.5t2.5.5q9.467-5 16.483-9.75Q626-467.5 626-480.5q0-9.65-7.425-17.075Q611.15-505 601.5-505ZM349-480.5ZM533-334H351.5q-10.725 0-18.112-7.243-7.388-7.243-7.388-18.2 0-10.057 7.388-17.307Q340.775-384 351.5-384H555q-8 11.25-13.5 23.5T533-334Zm279.396 230.896L107.5-809q-3-3.233-3.5-7.867-.5-4.633 3.714-8.133 3.215-2.5 7.546-2.5t7.844 3.112L828-119q3 3 2.75 7.75t-2.964 8.25q-3.896 2.5-8.591 2.5-4.695 0-6.799-2.604ZM774-708q22.244 0 38.122 15.878T828-654v186.5q0 4.25-3.324 7.375T818.114-457q-5.239 0-8.676-2.75Q806-462.5 806-468v-186q0-12-10-22t-22-10H370.5q-5.25 0-7.875-3.043-2.625-3.042-2.625-8.093 0-3.489 2.625-7.176Q365.25-708 370.5-708H774ZM186-252q-22.244 0-38.122-15.766Q132-283.531 132-306v-348q0-22.244 15.878-38.122T185.952-708H240l21 22h-75q-12 0-22 10t-10 22v348q0 12 10 22t22 10h330.5q4.025 0 7.262 3.303 3.238 3.303 3.238 7.425 0 5.272-3.238 8.272-3.237 3-7.262 3H186Zm463.156 120q-13.656 0-25.906-12.882Q611-157.765 611-170v-102.493q0-12.507 8.294-23.007Q627.588-306 640-309h-1.5l150 150.6v26.4H649.156ZM828-224.5l-66.5-66.059v-59.322q0-17.969-12.5-30.044T719.758-392q-12.363 0-21.64 7-9.278 7-12.678 18l-21.94-21.5q8.429-14.577 23.714-23.038Q702.5-420 719.99-420q28.01 0 48.26 20.75 20.25 20.75 20.25 48.798V-310h2.7q12.918 0 24.859 11.647Q828-286.706 828-273v48.5ZM238.057-577q-10.557 0-17.807-6.925-7.25-6.926-7.25-17.75 0-10.825 7.443-18.075t17.75-7.25q10.307 0 17.557 7.475 7.25 7.476 7.25 17.45 0 11.575-7.48 18.325-7.481 6.75-17.463 6.75Zm0 122q-10.557 0-17.807-7.443-7.25-7.443-7.25-17.75t7.443-17.557q7.443-7.25 17.75-7.25t17.557 7.48q7.25 7.481 7.25 17.463 0 10.557-7.48 17.807-7.481 7.25-17.463 7.25Zm121 0q-10.557 0-17.807-7.443-7.25-7.443-7.25-17.75t7.443-17.557q7.443-7.25 17.75-7.25t17.557 7.48q7.25 7.481 7.25 17.463 0 10.557-7.48 17.807-7.481 7.25-17.463 7.25Zm242.136-122q10.307 0 17.557-6.925 7.25-6.926 7.25-17.75 0-10.825-7.48-18.075-7.481-7.25-17.463-7.25-10.557 0-17.807 7.475-7.25 7.476-7.25 17.45 0 11.575 7.443 18.325t17.75 6.75Zm121 0q10.307 0 17.557-6.925 7.25-6.926 7.25-17.75 0-10.825-7.48-18.075-7.481-7.25-17.463-7.25-10.557 0-17.807 7.475-7.25 7.476-7.25 17.45 0 11.575 7.443 18.325t17.75 6.75Zm-.136 68q-10.557 0-17.807 7.475-7.25 7.476-7.25 17.45 0 11.575 7.443 18.325t17.75 6.75q10.307 0 17.557-6.925 7.25-6.926 7.25-17.75 0-10.825-7.48-18.075-7.481-7.25-17.463-7.25ZM480.5-627q-11 0-18.75 7.017Q454-612.967 453-602.5q0 2.5.5 3.5t1.5 1.5l20.5 20.5q.5 1 2 1.5t4 .5q9.467 0 16.483-8.25Q505-591.5 505-602.5q0-9.65-7.425-17.075Q490.15-627 480.5-627Zm7 60.5Z"/></svg>