<svg xmlns="http://www.w3.org/2000/svg" version="1.1" width="3300" height="2000"><g id="Notes"><style>
    text {
      font-family: monospace;
      text-anchor: middle;
    }
    text.emphasis {
      font-weight:bold;
    }
    text.lanchor {
      text-anchor: start;
    }
  </style><rect height="2200" id="artboard" fill="white" width="3300" x="0" y="0"/><line id="" style="fill:none;stroke:black;stroke-width:0.5;" x1="263" x2="3036" y1="292" y2="292"/><text class="lanchor emphasis" transform="matrix(1 0 0 1 263 322)">Weight/Scale Variations</text><text transform="matrix(1 0 0 1 559.711 322)">Ultralight</text><text transform="matrix(1 0 0 1 856.422 322)">Thin</text><text transform="matrix(1 0 0 1 1153.13 322)">Light</text><text transform="matrix(1 0 0 1 1449.84 322)">Regular</text><text transform="matrix(1 0 0 1 1746.56 322)">Medium</text><text transform="matrix(1 0 0 1 2043.27 322)">Semibold</text><text transform="matrix(1 0 0 1 2339.98 322)">Bold</text><text transform="matrix(1 0 0 1 2636.69 322)">Heavy</text><text transform="matrix(1 0 0 1 2933.4 322)">Black</text><text id="template-version" style="text-anchor: end;" transform="matrix(1 0 0 1 3036 1933)">Template v.1.0</text><text class="lanchor" transform="matrix(1 0 0 1 263 726)">Small</text><text class="lanchor" transform="matrix(1 0 0 1 263 1156)">Medium</text><text class="lanchor" transform="matrix(1 0 0 1 263 1586)">Large</text></g><g id="Guides"><g id="H-reference" style="fill:#27AAE1;stroke:none;" transform="matrix(1 0 0 1 339 696)"><path d="M 54.9316 0 L 57.666 0 L 30.5664 -70.459 L 28.0762 -70.459 L 0.976562 0 L 3.66211 0 L 12.9395 -24.4629 L 45.7031 -24.4629 Z M 29.1992 -67.0898 L 29.4434 -67.0898 L 44.8242 -26.709 L 13.8184 -26.709 Z"/></g><line id="Baseline-S" style="fill:none;stroke:#27AAE1;opacity:1;stroke-width:0.577;" x1="263" x2="3036" y1="696" y2="696"/><line id="Capline-S" style="fill:none;stroke:#27AAE1;opacity:1;stroke-width:0.577;" x1="263" x2="3036" y1="625.541" y2="625.541"/><g id="H-reference" style="fill:#27AAE1;stroke:none;" transform="matrix(1 0 0 1 339 1126)"><path d="M 54.9316 0 L 57.666 0 L 30.5664 -70.459 L 28.0762 -70.459 L 0.976562 0 L 3.66211 0 L 12.9395 -24.4629 L 45.7031 -24.4629 Z M 29.1992 -67.0898 L 29.4434 -67.0898 L 44.8242 -26.709 L 13.8184 -26.709 Z"/></g><line id="Baseline-M" style="fill:none;stroke:#27AAE1;opacity:1;stroke-width:0.577;" x1="263" x2="3036" y1="1126" y2="1126"/><line id="Capline-M" style="fill:none;stroke:#27AAE1;opacity:1;stroke-width:0.577;" x1="263" x2="3036" y1="1055.54" y2="1055.54"/><g id="H-reference" style="fill:#27AAE1;stroke:none;" transform="matrix(1 0 0 1 339 1556)"><path d="M 54.9316 0 L 57.666 0 L 30.5664 -70.459 L 28.0762 -70.459 L 0.976562 0 L 3.66211 0 L 12.9395 -24.4629 L 45.7031 -24.4629 Z M 29.1992 -67.0898 L 29.4434 -67.0898 L 44.8242 -26.709 L 13.8184 -26.709 Z"/></g><line id="Baseline-L" style="fill:none;stroke:#27AAE1;opacity:1;stroke-width:0.577;" x1="263" x2="3036" y1="1556" y2="1556"/><line id="Capline-L" style="fill:none;stroke:#27AAE1;opacity:1;stroke-width:0.577;" x1="263" x2="3036" y1="1485.54" y2="1485.54"/><rect height="119.336" id="left-margin" style="fill:darkred;stroke:none;opacity:0.4;" width="12.4512" x="1394.06" y="1030.79"/><rect height="119.336" id="right-margin" style="fill:darkgreen;stroke:none;opacity:0.4;" width="12.4512" x="1502.5112" y="1030.79"/><rect x="1406.5112" y="1045" width="96" height="96" fill="none" stroke="blue" stroke-dasharray="5"/><rect x="1394.06" y="1030.79" width="120.9024" height="119.336" fill="none" stroke="blue"/></g><g id="Symbols"><g id="Bold-L" transform="matrix(1 0 0 1 2266 1556)"><path d="M15.319 -43.776 Q15.319 -30.231 25.236 -21.362 Q35.153 -12.494 49.181 -12.977 L38.539 -23.136 Q36.604 -25.112 36.604 -27.752 Q36.604 -30.392 38.637 -32.327 Q40.312 -34.101 43.102 -34.101 Q45.892 -34.101 47.73 -32.327 L67.564 -12.655 Q69.66 -10.544 69.579 -7.568 Q69.499 -4.592 67.564 -2.335 L47.891 17.176 Q45.91 19.273 43.434 19.192 Q40.958 19.111 38.861 17.015 Q37.087 15.241 37.007 12.5 Q36.926 9.759 38.861 7.663 L47.73 -0.884 Q29.348 0.084 15.883 -12.574 Q2.419 -25.232 2.419 -43.615 Q2.419 -63.177 16.286 -76.777 Q30.154 -90.377 49.988 -90.377 H63.694 Q66.346 -90.377 68.245 -88.523 Q70.144 -86.669 70.144 -84.038 Q70.144 -81.568 68.245 -79.603 Q66.346 -77.639 63.694 -77.639 H49.988 Q35.448 -77.639 25.383 -67.911 Q15.319 -58.182 15.319 -43.776 Z M90.3 19.756 Q87.071 19.756 85.057 17.741 Q83.044 15.725 83.044 12.339 V-21.524 Q83.044 -24.592 85.057 -26.686 Q87.071 -28.78 90.3 -28.78 H138.191 Q141.328 -28.78 143.468 -26.686 Q145.609 -24.592 145.609 -21.524 V12.339 Q145.609 15.725 143.468 17.741 Q141.328 19.756 138.191 19.756 H90.3 Z M90.3 -41.68 Q87.071 -41.68 85.057 -43.776 Q83.044 -45.872 83.044 -49.097 V-82.96 Q83.044 -86.189 85.057 -88.283 Q87.071 -90.377 90.3 -90.377 H138.191 Q141.328 -90.377 143.468 -88.283 Q145.609 -86.189 145.609 -82.96 V-49.097 Q145.609 -45.872 143.468 -43.776 Q141.328 -41.68 138.191 -41.68 H90.3 Z M97.879 -56.515 H130.935 V-75.542 H97.879 V-56.515 Z"/></g><g id="Semibold-L" transform="matrix(1 0 0 1 1970.27 1556)"><path d="M15.249 -42.865 Q15.249 -28.899 25.341 -19.505 Q35.433 -10.11 49.672 -10.313 L39.52 -20.122 Q37.655 -22.027 37.655 -24.527 Q37.655 -27.028 39.618 -28.892 Q41.294 -30.666 43.943 -30.666 Q46.593 -30.666 48.431 -28.892 L67.914 -9.57 Q69.8 -7.6 69.755 -4.904 Q69.709 -2.209 67.914 -0.162 L48.522 19.139 Q46.611 21.095 44.205 21.015 Q41.799 20.934 39.843 18.978 Q38.069 17.204 38.023 14.603 Q37.978 12.002 39.913 10.046 L48.501 1.71 Q29.768 2.257 16.304 -10.822 Q2.839 -23.901 2.839 -42.774 Q2.839 -62.476 16.707 -76.216 Q30.574 -89.957 50.478 -89.957 H64.184 Q66.767 -89.957 68.596 -88.173 Q70.424 -86.388 70.424 -83.828 Q70.424 -81.358 68.596 -79.498 Q66.767 -77.639 64.184 -77.639 H50.338 Q35.588 -77.639 25.418 -67.595 Q15.249 -57.551 15.249 -42.865 Z M89.949 19.406 Q87.071 19.406 85.198 17.53 Q83.324 15.655 83.324 12.619 V-22.155 Q83.324 -24.942 85.198 -26.861 Q87.071 -28.78 89.949 -28.78 H138.402 Q141.257 -28.78 143.223 -26.861 Q145.188 -24.942 145.188 -22.155 V12.619 Q145.188 15.655 143.223 17.53 Q141.257 19.406 138.402 19.406 H89.949 Z M89.949 -41.68 Q87.071 -41.68 85.198 -43.601 Q83.324 -45.522 83.324 -48.467 V-83.24 Q83.324 -86.119 85.198 -88.038 Q87.071 -89.957 89.949 -89.957 H138.402 Q141.257 -89.957 143.223 -88.038 Q145.188 -86.119 145.188 -83.24 V-48.467 Q145.188 -45.522 143.223 -43.601 Q141.257 -41.68 138.402 -41.68 H89.949 Z M96.827 -55.183 H131.776 V-76.454 H96.827 V-55.183 Z"/></g><g id="Medium-L" transform="matrix(1 0 0 1 1674.31 1556)"><path d="M15.196 -42.181 Q15.196 -27.9 25.42 -18.111 Q35.643 -8.322 50.04 -8.315 L40.256 -17.861 Q38.444 -19.713 38.444 -22.108 Q38.444 -24.503 40.355 -26.316 Q42.03 -28.09 44.574 -28.09 Q47.119 -28.09 48.957 -26.316 L68.177 -7.257 Q69.905 -5.391 69.886 -2.906 Q69.867 -0.421 68.177 1.468 L48.995 20.612 Q47.137 22.462 44.783 22.382 Q42.43 22.301 40.579 20.45 Q38.805 18.677 38.786 16.181 Q38.767 13.685 40.702 11.834 L49.08 3.656 Q30.084 3.887 16.619 -9.507 Q3.155 -22.901 3.155 -42.143 Q3.155 -61.95 17.022 -75.796 Q30.89 -89.641 50.846 -89.641 H64.553 Q67.082 -89.641 68.858 -87.91 Q70.634 -86.178 70.634 -83.67 Q70.634 -81.2 68.858 -79.419 Q67.082 -77.639 64.553 -77.639 H50.601 Q35.693 -77.639 25.444 -67.358 Q15.196 -57.078 15.196 -42.181 Z M89.687 19.143 Q87.071 19.143 85.303 17.372 Q83.534 15.602 83.534 12.829 V-22.628 Q83.534 -25.205 85.303 -26.993 Q87.071 -28.78 89.687 -28.78 H138.559 Q141.205 -28.78 143.039 -26.993 Q144.873 -25.205 144.873 -22.628 V12.829 Q144.873 15.602 143.039 17.372 Q141.205 19.143 138.559 19.143 H89.687 Z M89.687 -41.68 Q87.071 -41.68 85.303 -43.47 Q83.534 -45.259 83.534 -47.993 V-83.451 Q83.534 -86.066 85.303 -87.854 Q87.071 -89.641 89.687 -89.641 H138.559 Q141.205 -89.641 143.039 -87.854 Q144.873 -86.066 144.873 -83.451 V-47.993 Q144.873 -45.259 143.039 -43.47 Q141.205 -41.68 138.559 -41.68 H89.687 Z M96.038 -54.184 H132.407 V-77.137 H96.038 V-54.184 Z"/></g><g id="Regular-L" transform="matrix(1 0 0 1 1378.56 1556)"><path d="M15.158 -41.68 Q15.158 -27.167 25.477 -17.089 Q35.797 -7.011 50.31 -6.85 L40.796 -16.202 Q39.023 -18.017 39.023 -20.335 Q39.023 -22.652 40.894 -24.426 Q42.57 -26.2 45.037 -26.2 Q47.504 -26.2 49.343 -24.426 L68.37 -5.56 Q69.983 -3.772 69.983 -1.441 Q69.983 0.89 68.37 2.664 L49.343 21.691 Q47.522 23.465 45.207 23.384 Q42.892 23.304 41.119 21.53 Q39.345 19.756 39.345 17.338 Q39.345 14.919 41.28 13.145 L49.504 5.083 Q30.315 5.083 16.851 -8.543 Q3.386 -22.169 3.386 -41.68 Q3.386 -61.564 17.254 -75.487 Q31.121 -89.41 51.116 -89.41 H64.823 Q67.314 -89.41 69.051 -87.717 Q70.789 -86.024 70.789 -83.554 Q70.789 -81.084 69.051 -79.362 Q67.314 -77.639 64.823 -77.639 H50.794 Q35.77 -77.639 25.464 -67.185 Q15.158 -56.731 15.158 -41.68 Z M89.494 18.95 Q87.071 18.95 85.38 17.257 Q83.689 15.564 83.689 12.984 V-22.975 Q83.689 -25.398 85.38 -27.089 Q87.071 -28.78 89.494 -28.78 H138.675 Q141.166 -28.78 142.904 -27.089 Q144.641 -25.398 144.641 -22.975 V12.984 Q144.641 15.564 142.904 17.257 Q141.166 18.95 138.675 18.95 H89.494 Z M89.494 -41.68 Q87.071 -41.68 85.38 -43.373 Q83.689 -45.066 83.689 -47.646 V-83.605 Q83.689 -86.028 85.38 -87.719 Q87.071 -89.41 89.494 -89.41 H138.675 Q141.166 -89.41 142.904 -87.719 Q144.641 -86.028 144.641 -83.605 V-47.646 Q144.641 -45.066 142.904 -43.373 Q141.166 -41.68 138.675 -41.68 H89.494 Z M95.46 -53.451 H132.87 V-77.639 H95.46 V-53.451 Z"/></g><g id="Light-L" transform="matrix(1 0 0 1 1082.77 1556)"><path d="M16.77 -41.68 Q16.77 -26.981 27.772 -17.182 Q38.775 -7.383 53.783 -7.222 L42.843 -18.001 Q41.441 -19.443 41.41 -21.296 Q41.379 -23.149 42.928 -24.612 Q44.245 -26.076 46.216 -26.076 Q48.186 -26.076 49.715 -24.612 L67.378 -7.048 Q68.928 -5.322 68.928 -3.053 Q68.928 -0.785 67.378 0.927 L49.715 18.59 Q48.266 19.992 46.417 19.973 Q44.567 19.954 43.09 18.477 Q41.702 17.027 41.702 15.105 Q41.702 13.182 43.265 11.781 L52.915 2.354 Q34.223 2.105 20.789 -10.466 Q7.356 -23.037 7.356 -41.68 Q7.356 -60.324 20.541 -73.254 Q33.726 -86.185 52.543 -86.185 H64.388 Q66.38 -86.185 67.778 -84.831 Q69.176 -83.476 69.176 -81.505 Q69.176 -79.534 67.778 -78.152 Q66.38 -76.77 64.388 -76.77 H52.282 Q37.445 -76.77 27.107 -66.627 Q16.77 -56.483 16.77 -41.68 Z M90.948 15.725 Q88.559 15.725 86.931 14.086 Q85.301 12.447 85.301 9.945 V-22.516 Q85.301 -24.902 86.938 -26.531 Q88.575 -28.16 90.92 -28.16 H135.608 Q138.065 -28.16 139.741 -26.523 Q141.416 -24.886 141.416 -22.541 V9.92 Q141.416 12.463 139.733 14.094 Q138.05 15.725 135.636 15.725 H90.948 Z M90.948 -42.3 Q88.559 -42.3 86.931 -43.939 Q85.301 -45.578 85.301 -48.08 V-80.541 Q85.301 -82.927 86.938 -84.556 Q88.575 -86.185 90.92 -86.185 H135.608 Q138.065 -86.185 139.741 -84.548 Q141.416 -82.911 141.416 -80.566 V-48.105 Q141.416 -45.562 139.733 -43.931 Q138.05 -42.3 135.636 -42.3 H90.948 Z M94.716 -51.715 H132.002 V-76.77 H94.716 V-51.715 Z"/></g><g id="Thin-L" transform="matrix(1 0 0 1 787.282 1556)"><path d="M18.383 -41.68 Q18.383 -26.795 30.067 -17.275 Q41.751 -7.755 57.256 -7.594 L44.889 -19.8 Q43.86 -20.869 43.798 -22.257 Q43.736 -23.645 44.961 -24.798 Q45.919 -25.952 47.394 -25.952 Q48.869 -25.952 50.087 -24.798 L66.385 -8.537 Q67.874 -6.873 67.874 -4.666 Q67.874 -2.459 66.385 -0.809 L50.087 15.489 Q49.011 16.519 47.626 16.562 Q46.242 16.606 45.061 15.425 Q44.058 14.299 44.058 12.872 Q44.058 11.446 45.249 10.416 L56.326 -0.375 Q38.129 -0.871 24.727 -12.388 Q11.325 -23.905 11.325 -41.68 Q11.325 -59.084 23.828 -71.022 Q36.331 -82.96 53.969 -82.96 H63.954 Q65.447 -82.96 66.505 -81.945 Q67.564 -80.93 67.564 -79.457 Q67.564 -77.984 66.505 -76.943 Q65.447 -75.902 63.954 -75.902 H53.771 Q39.119 -75.902 28.751 -66.069 Q18.383 -56.235 18.383 -41.68 Z M92.403 12.5 Q90.048 12.5 88.481 10.915 Q86.914 9.331 86.914 6.906 V-22.058 Q86.914 -24.405 88.496 -25.972 Q90.079 -27.54 92.347 -27.54 H132.541 Q134.964 -27.54 136.578 -25.957 Q138.191 -24.374 138.191 -22.107 V6.857 Q138.191 9.362 136.562 10.931 Q134.933 12.5 132.597 12.5 H92.403 Z M92.403 -42.92 Q90.048 -42.92 88.481 -44.505 Q86.914 -46.09 86.914 -48.515 V-77.478 Q86.914 -79.826 88.496 -81.393 Q90.079 -82.96 92.347 -82.96 H132.541 Q134.964 -82.96 136.578 -81.377 Q138.191 -79.795 138.191 -77.527 V-48.564 Q138.191 -46.059 136.562 -44.489 Q134.933 -42.92 132.597 -42.92 H92.403 Z M93.972 -49.978 H131.133 V-75.902 H93.972 V-49.978 Z"/></g><g id="Ultralight-L" transform="matrix(1 0 0 1 491.205 1556)"><path d="M19.35 -41.68 Q19.35 -26.684 31.444 -17.331 Q43.538 -7.979 59.34 -7.817 L46.117 -20.879 Q45.311 -21.725 45.231 -22.834 Q45.15 -23.942 46.181 -24.91 Q46.924 -25.877 48.101 -25.877 Q49.278 -25.877 50.31 -24.91 L65.79 -9.43 Q67.241 -7.803 67.241 -5.633 Q67.241 -3.464 65.79 -1.851 L50.31 13.629 Q49.457 14.435 48.352 14.516 Q47.246 14.596 46.244 13.594 Q45.473 12.661 45.473 11.533 Q45.473 10.404 46.44 9.598 L58.373 -2.012 Q40.474 -2.657 27.09 -13.542 Q13.706 -24.426 13.706 -41.68 Q13.706 -58.339 25.8 -69.682 Q37.894 -81.025 54.825 -81.025 H63.694 Q64.887 -81.025 65.742 -80.213 Q66.596 -79.401 66.596 -78.227 Q66.596 -77.053 65.742 -76.217 Q64.887 -75.381 63.694 -75.381 H54.664 Q40.124 -75.381 29.737 -65.734 Q19.35 -56.086 19.35 -41.68 Z M93.275 10.565 Q90.941 10.565 89.411 9.013 Q87.881 7.461 87.881 5.083 V-21.782 Q87.881 -24.108 89.431 -25.638 Q90.981 -27.167 93.203 -27.167 H130.701 Q133.104 -27.167 134.68 -25.618 Q136.256 -24.067 136.256 -21.846 V5.019 Q136.256 7.501 134.66 9.033 Q133.064 10.565 130.774 10.565 H93.275 Z M93.275 -43.292 Q90.941 -43.292 89.411 -44.845 Q87.881 -46.397 87.881 -48.775 V-75.64 Q87.881 -77.965 89.431 -79.495 Q90.981 -81.025 93.203 -81.025 H130.701 Q133.104 -81.025 134.68 -79.475 Q136.256 -77.925 136.256 -75.704 V-48.839 Q136.256 -46.356 134.66 -44.824 Q133.064 -43.292 130.774 -43.292 H93.275 Z M93.525 -48.936 H130.613 V-75.381 H93.525 V-48.936 Z"/></g><g id="Bold-M" transform="matrix(1 0 0 1 2281.8 1126)"><path d="M13.125 -42.23 Q13.125 -34.605 17.812 -28.667 Q22.5 -22.73 29.75 -20.605 L27.625 -22.605 Q25.375 -24.855 25.438 -27.917 Q25.5 -30.98 27.75 -33.23 Q30 -35.48 33.062 -35.48 Q36.125 -35.48 38.375 -33.23 L52 -19.605 Q54.625 -17.105 54.562 -13.667 Q54.5 -10.23 52 -7.605 L38.375 5.895 Q36.125 8.145 33.125 8.145 Q30.125 8.145 27.875 5.895 Q25.625 3.645 25.625 0.52 Q25.625 -2.605 27.875 -4.855 L29.125 -5.98 Q15.875 -8.48 7 -18.667 Q-1.875 -28.855 -1.875 -42.23 Q-1.875 -58.48 9.75 -69.792 Q21.375 -81.105 37.75 -81.105 H46.375 Q49.5 -81.105 51.688 -78.917 Q53.875 -76.73 53.875 -73.605 Q53.875 -70.605 51.688 -68.355 Q49.5 -66.105 46.375 -66.105 H37.625 Q27.5 -66.105 20.312 -59.23 Q13.125 -52.355 13.125 -42.23 Z M72.375 10.52 Q68.75 10.52 66.312 8.083 Q63.875 5.645 63.875 2.02 V-21.73 Q63.875 -25.23 66.312 -27.73 Q68.75 -30.23 72.375 -30.23 H107.5 Q111 -30.23 113.5 -27.73 Q116 -25.23 116 -21.73 V2.02 Q116 5.645 113.5 8.083 Q111 10.52 107.5 10.52 H72.375 Z M72.375 -40.23 Q68.75 -40.23 66.312 -42.73 Q63.875 -45.23 63.875 -48.73 V-72.48 Q63.875 -76.105 66.312 -78.542 Q68.75 -80.98 72.375 -80.98 H107.5 Q111 -80.98 113.5 -78.542 Q116 -76.105 116 -72.48 V-48.73 Q116 -45.23 113.5 -42.73 Q111 -40.23 107.5 -40.23 H72.375 Z M80.875 -57.23 H99 V-63.98 H80.875 V-57.23 Z"/></g><g id="Semibold-M" transform="matrix(1 0 0 1 1985.97 1126)"><path d="M13.234 -41.306 Q13.234 -33.246 18.111 -26.793 Q22.989 -20.339 30.619 -17.996 L28.766 -19.779 Q26.679 -21.866 26.715 -24.765 Q26.75 -27.665 28.891 -29.806 Q31.032 -31.948 33.932 -31.948 Q36.831 -31.948 38.973 -29.806 L52.272 -16.507 Q54.625 -14.225 54.59 -11.14 Q54.554 -8.056 52.272 -5.703 L38.919 7.58 Q36.831 9.667 33.94 9.667 Q31.049 9.667 28.962 7.58 Q26.821 5.438 26.848 2.504 Q26.875 -0.431 29.016 -2.518 L30.266 -3.697 Q16.744 -6.469 7.87 -17.037 Q-1.006 -27.605 -1.006 -41.36 Q-1.006 -57.61 10.511 -68.95 Q22.027 -80.29 38.348 -80.29 H47.081 Q50.044 -80.29 52.122 -78.211 Q54.201 -76.132 54.201 -73.17 Q54.201 -70.279 52.122 -68.165 Q50.044 -66.051 47.081 -66.051 H38.114 Q27.772 -66.051 20.503 -58.877 Q13.234 -51.703 13.234 -41.306 Z M71.886 9.759 Q68.641 9.759 66.421 7.539 Q64.201 5.319 64.201 2.074 V-22.545 Q64.201 -25.719 66.421 -27.974 Q68.641 -30.23 71.886 -30.23 H107.5 Q110.674 -30.23 112.929 -27.974 Q115.185 -25.719 115.185 -22.545 V2.074 Q115.185 5.319 112.929 7.539 Q110.674 9.759 107.5 9.759 H71.886 Z M71.886 -40.23 Q68.641 -40.23 66.421 -42.485 Q64.201 -44.741 64.201 -47.915 V-72.534 Q64.201 -75.779 66.421 -77.999 Q68.641 -80.219 71.886 -80.219 H107.5 Q110.674 -80.219 112.929 -77.999 Q115.185 -75.779 115.185 -72.534 V-47.915 Q115.185 -44.741 112.929 -42.485 Q110.674 -40.23 107.5 -40.23 H71.886 Z M79.571 -55.6 H99.815 V-64.849 H79.571 V-55.6 Z"/></g><g id="Medium-M" transform="matrix(1 0 0 1 1689.91 1126)"><path d="M13.315 -40.613 Q13.315 -32.227 18.336 -25.386 Q23.356 -18.545 31.272 -16.04 L29.622 -17.659 Q27.658 -19.624 27.672 -22.401 Q27.688 -25.178 29.747 -27.238 Q31.807 -29.298 34.584 -29.298 Q37.361 -29.298 39.421 -27.238 L52.475 -14.184 Q54.625 -12.064 54.61 -9.245 Q54.595 -6.426 52.475 -4.276 L39.326 8.843 Q37.361 10.808 34.552 10.808 Q31.742 10.808 29.777 8.843 Q27.717 6.784 27.765 3.992 Q27.812 1.199 29.872 -0.765 L31.122 -1.985 Q17.397 -4.961 8.522 -15.814 Q-0.353 -26.667 -0.353 -40.708 Q-0.353 -56.958 11.082 -68.318 Q22.516 -79.678 38.796 -79.678 H47.611 Q50.451 -79.678 52.448 -77.681 Q54.446 -75.684 54.446 -72.844 Q54.446 -70.034 52.448 -68.022 Q50.451 -66.01 47.611 -66.01 H38.481 Q27.976 -66.01 20.645 -58.612 Q13.315 -51.214 13.315 -40.613 Z M71.519 9.189 Q68.56 9.189 66.503 7.131 Q64.446 5.074 64.446 2.115 V-23.157 Q64.446 -26.086 66.503 -28.158 Q68.56 -30.23 71.519 -30.23 H107.5 Q110.429 -30.23 112.501 -28.158 Q114.573 -26.086 114.573 -23.157 V2.115 Q114.573 5.074 112.501 7.131 Q110.429 9.189 107.5 9.189 H71.519 Z M71.519 -40.23 Q68.56 -40.23 66.503 -42.302 Q64.446 -44.374 64.446 -47.303 V-72.575 Q64.446 -75.534 66.503 -77.591 Q68.56 -79.648 71.519 -79.648 H107.5 Q110.429 -79.648 112.501 -77.591 Q114.573 -75.534 114.573 -72.575 V-47.303 Q114.573 -44.374 112.501 -42.302 Q110.429 -40.23 107.5 -40.23 H71.519 Z M78.592 -54.377 H100.427 V-65.502 H78.592 V-54.377 Z"/></g><g id="Regular-M" transform="matrix(1 0 0 1 1394.06 1126)"><path d="M13.375 -40.105 Q13.375 -31.48 18.5 -24.355 Q23.625 -17.23 31.75 -14.605 L30.25 -16.105 Q28.375 -17.98 28.375 -20.667 Q28.375 -23.355 30.375 -25.355 Q32.375 -27.355 35.062 -27.355 Q37.75 -27.355 39.75 -25.355 L52.625 -12.48 Q54.625 -10.48 54.625 -7.855 Q54.625 -5.23 52.625 -3.23 L39.625 9.77 Q37.75 11.645 35 11.645 Q32.25 11.645 30.375 9.77 Q28.375 7.77 28.438 5.083 Q28.5 2.395 30.5 0.52 L31.75 -0.73 Q17.875 -3.855 9 -14.917 Q0.125 -25.98 0.125 -40.23 Q0.125 -56.48 11.5 -67.855 Q22.875 -79.23 39.125 -79.23 H48 Q50.75 -79.23 52.688 -77.292 Q54.625 -75.355 54.625 -72.605 Q54.625 -69.855 52.688 -67.917 Q50.75 -65.98 48 -65.98 H38.75 Q28.125 -65.98 20.75 -58.417 Q13.375 -50.855 13.375 -40.105 Z M71.25 8.77 Q68.5 8.77 66.562 6.833 Q64.625 4.895 64.625 2.145 V-23.605 Q64.625 -26.355 66.562 -28.292 Q68.5 -30.23 71.25 -30.23 H107.5 Q110.25 -30.23 112.188 -28.292 Q114.125 -26.355 114.125 -23.605 V2.145 Q114.125 4.895 112.188 6.833 Q110.25 8.77 107.5 8.77 H71.25 Z M71.25 -40.23 Q68.5 -40.23 66.562 -42.167 Q64.625 -44.105 64.625 -46.855 V-72.605 Q64.625 -75.355 66.562 -77.292 Q68.5 -79.23 71.25 -79.23 H107.5 Q110.25 -79.23 112.188 -77.292 Q114.125 -75.355 114.125 -72.605 V-46.855 Q114.125 -44.105 112.188 -42.167 Q110.25 -40.23 107.5 -40.23 H71.25 Z M77.875 -53.48 H100.875 V-65.98 H77.875 V-53.48 Z"/></g><g id="Light-M" transform="matrix(1 0 0 1 1098.18 1126)"><path d="M13.952 -40.105 Q13.952 -30.711 20.303 -23.562 Q26.654 -16.413 35.885 -14.365 L32.029 -18.22 Q30.491 -19.759 30.466 -21.918 Q30.442 -24.076 32.144 -25.74 Q33.817 -27.403 35.952 -27.403 Q38.087 -27.403 39.75 -25.74 L52.096 -13.393 Q53.952 -11.538 53.952 -9.105 Q53.952 -6.672 52.096 -4.817 L39.673 7.606 Q38.135 9.145 35.938 9.169 Q33.74 9.193 32.192 7.644 Q30.491 5.943 30.553 3.784 Q30.616 1.626 32.327 0.087 L35.596 -3.086 Q21.77 -5.778 12.486 -16.047 Q3.202 -26.317 3.202 -40.23 Q3.202 -55.518 14.048 -66.124 Q24.894 -76.73 40.231 -76.73 H48 Q50.219 -76.73 51.797 -75.151 Q53.375 -73.573 53.375 -71.353 Q53.375 -69.134 51.797 -67.557 Q50.219 -65.98 48 -65.98 H39.904 Q29.087 -65.98 21.519 -58.466 Q13.952 -50.951 13.952 -40.105 Z M72.041 6.27 Q69.462 6.27 67.668 4.471 Q65.875 2.671 65.875 0.126 V-23.586 Q65.875 -26.163 67.674 -27.956 Q69.474 -29.749 72.019 -29.749 H105.459 Q108.038 -29.749 109.832 -27.95 Q111.625 -26.151 111.625 -23.605 V0.107 Q111.625 2.683 109.826 4.477 Q108.026 6.27 105.481 6.27 H72.041 Z M72.041 -40.711 Q69.462 -40.711 67.668 -42.51 Q65.875 -44.309 65.875 -46.855 V-70.567 Q65.875 -73.143 67.674 -74.936 Q69.474 -76.73 72.019 -76.73 H105.459 Q108.038 -76.73 109.832 -74.93 Q111.625 -73.131 111.625 -70.586 V-46.874 Q111.625 -44.297 109.826 -42.504 Q108.026 -40.711 105.481 -40.711 H72.041 Z M76.625 -51.461 H100.875 V-65.98 H76.625 V-51.461 Z"/></g><g id="Thin-M" transform="matrix(1 0 0 1 802.565 1126)"><path d="M14.529 -40.105 Q14.529 -29.941 22.106 -22.768 Q29.683 -15.595 40.019 -14.124 L33.808 -20.336 Q32.606 -21.538 32.558 -23.167 Q32.51 -24.797 33.912 -26.124 Q35.26 -27.451 36.841 -27.451 Q38.423 -27.451 39.75 -26.124 L51.567 -14.307 Q53.279 -12.595 53.279 -10.355 Q53.279 -8.115 51.567 -6.403 L39.721 5.443 Q38.519 6.645 36.875 6.693 Q35.231 6.741 34.008 5.518 Q32.606 4.116 32.668 2.486 Q32.731 0.857 34.154 -0.345 L39.442 -5.441 Q25.663 -7.701 15.971 -17.177 Q6.279 -26.653 6.279 -40.23 Q6.279 -54.557 16.596 -64.393 Q26.913 -74.23 41.337 -74.23 H48 Q49.688 -74.23 50.906 -73.01 Q52.125 -71.791 52.125 -70.102 Q52.125 -68.413 50.906 -67.196 Q49.688 -65.98 48 -65.98 H41.058 Q30.048 -65.98 22.288 -58.514 Q14.529 -51.047 14.529 -40.105 Z M72.832 3.77 Q70.423 3.77 68.774 2.109 Q67.125 0.448 67.125 -1.893 V-23.567 Q67.125 -25.97 68.786 -27.619 Q70.447 -29.268 72.788 -29.268 H103.418 Q105.827 -29.268 107.476 -27.607 Q109.125 -25.946 109.125 -23.605 V-1.931 Q109.125 0.472 107.464 2.121 Q105.803 3.77 103.462 3.77 H72.832 Z M72.832 -41.191 Q70.423 -41.191 68.774 -42.853 Q67.125 -44.514 67.125 -46.855 V-68.528 Q67.125 -70.932 68.786 -72.581 Q70.447 -74.23 72.788 -74.23 H103.418 Q105.827 -74.23 107.476 -72.569 Q109.125 -70.908 109.125 -68.567 V-46.893 Q109.125 -44.49 107.464 -42.841 Q105.803 -41.191 103.462 -41.191 H72.832 Z M75.375 -49.442 H100.875 V-65.98 H75.375 V-49.442 Z"/></g><g id="Ultralight-M" transform="matrix(1 0 0 1 506.415 1126)"><path d="M14.875 -40.105 Q14.875 -29.48 23.188 -22.292 Q31.5 -15.105 42.5 -13.98 L34.875 -21.605 Q33.875 -22.605 33.812 -23.917 Q33.75 -25.23 34.973 -26.355 Q36.125 -27.48 37.375 -27.48 Q38.625 -27.48 39.75 -26.355 L51.25 -14.855 Q52.875 -13.23 52.875 -11.105 Q52.875 -8.98 51.25 -7.355 L39.75 4.145 Q38.75 5.145 37.438 5.208 Q36.125 5.27 35.098 4.243 Q33.875 3.02 33.938 1.708 Q34 0.395 35.25 -0.605 L41.75 -6.855 Q28 -8.855 18.062 -17.855 Q8.125 -26.855 8.125 -40.23 Q8.125 -53.98 18.125 -63.355 Q28.125 -72.73 42 -72.73 H48 Q49.369 -72.73 50.372 -71.726 Q51.375 -70.721 51.375 -69.351 Q51.375 -67.98 50.372 -66.98 Q49.369 -65.98 48 -65.98 H41.75 Q30.625 -65.98 22.75 -58.542 Q14.875 -51.105 14.875 -40.105 Z M73.306 2.27 Q71 2.27 69.438 0.692 Q67.875 -0.886 67.875 -3.105 V-23.555 Q67.875 -25.855 69.453 -27.417 Q71.031 -28.98 73.25 -28.98 H102.194 Q104.5 -28.98 106.062 -27.402 Q107.625 -25.824 107.625 -23.605 V-3.154 Q107.625 -0.855 106.047 0.708 Q104.469 2.27 102.25 2.27 H73.306 Z M73.306 -41.48 Q71 -41.48 69.438 -43.058 Q67.875 -44.636 67.875 -46.855 V-67.305 Q67.875 -69.605 69.453 -71.167 Q71.031 -72.73 73.25 -72.73 H102.194 Q104.5 -72.73 106.062 -71.152 Q107.625 -69.574 107.625 -67.355 V-46.904 Q107.625 -44.605 106.047 -43.042 Q104.469 -41.48 102.25 -41.48 H73.306 Z M74.625 -48.23 H100.875 V-65.98 H74.625 V-48.23 Z"/></g><g id="Bold-S" transform="matrix(1 0 0 1 2294.23 696)"><path d="M10.356 -43.317 Q10.356 -37.005 14.695 -32.567 Q19.035 -28.129 25.149 -27.833 H27.023 L25.84 -28.918 Q24.065 -30.693 24.065 -32.912 Q24.065 -35.131 25.793 -36.808 Q27.516 -38.485 29.752 -38.485 Q31.987 -38.485 33.631 -36.808 L42.902 -27.537 Q44.874 -25.699 44.825 -23.166 Q44.776 -20.633 42.902 -18.661 L33.73 -9.587 Q31.955 -7.812 29.883 -7.862 Q27.812 -7.911 26.136 -9.587 Q24.36 -11.363 24.36 -13.685 Q24.36 -16.007 26.136 -17.675 L26.037 -17.28 H24.262 Q13.906 -18.069 6.608 -25.515 Q-0.69 -32.962 -0.69 -43.317 Q-0.69 -54.985 7.678 -63.106 Q16.046 -71.228 27.812 -71.228 H38.562 Q40.86 -71.228 42.473 -69.622 Q44.085 -68.015 44.085 -65.726 Q44.085 -63.535 42.473 -61.859 Q40.86 -60.182 38.562 -60.182 H27.714 Q20.544 -60.182 15.45 -55.335 Q10.356 -50.487 10.356 -43.317 Z M57.498 -5.248 Q54.806 -5.248 52.996 -7.058 Q51.186 -8.868 51.186 -11.56 V-27.143 Q51.186 -29.737 52.996 -31.596 Q54.806 -33.455 57.498 -33.455 H83.634 Q86.228 -33.455 88.087 -31.596 Q89.946 -29.737 89.946 -27.143 V-11.56 Q89.946 -8.868 88.087 -7.058 Q86.228 -5.248 83.634 -5.248 H57.498 Z M57.498 -42.923 Q54.806 -42.923 52.996 -44.782 Q51.186 -46.641 51.186 -49.235 V-64.817 Q51.186 -67.51 52.996 -69.32 Q54.806 -71.129 57.498 -71.129 H83.634 Q86.228 -71.129 88.087 -69.32 Q89.946 -67.51 89.946 -64.817 V-49.235 Q89.946 -46.641 88.087 -44.782 Q86.228 -42.923 83.634 -42.923 H57.498 Z M63.81 -55.547 H77.322 V-58.505 H63.81 V-55.547 Z"/></g><g id="Semibold-S" transform="matrix(1 0 0 1 1998.1 696)"><path d="M10.441 -42.588 Q10.441 -35.933 14.931 -31.088 Q19.421 -26.242 25.835 -25.775 H27.709 L26.74 -26.688 Q25.094 -28.335 25.072 -30.425 Q25.051 -32.516 26.693 -34.107 Q28.331 -35.698 30.438 -35.698 Q32.545 -35.698 34.103 -34.107 L43.116 -25.093 Q44.874 -23.427 44.846 -21.173 Q44.819 -18.918 43.116 -17.16 L34.159 -8.258 Q32.512 -6.612 30.527 -6.661 Q28.541 -6.71 26.993 -8.258 Q25.304 -9.948 25.325 -12.12 Q25.347 -14.292 27.036 -15.831 L26.937 -15.479 H25.162 Q14.592 -16.483 7.294 -24.229 Q-0.004 -31.975 -0.004 -42.631 Q-0.004 -54.299 8.278 -62.442 Q16.561 -70.585 28.284 -70.585 H39.12 Q41.289 -70.585 42.816 -69.064 Q44.343 -67.543 44.343 -65.383 Q44.343 -63.278 42.816 -61.709 Q41.289 -60.139 39.12 -60.139 H28.1 Q20.758 -60.139 15.6 -55.056 Q10.441 -49.973 10.441 -42.588 Z M57.112 -5.848 Q54.72 -5.848 53.082 -7.487 Q51.444 -9.125 51.444 -11.517 V-27.786 Q51.444 -30.123 53.082 -31.789 Q54.72 -33.455 57.112 -33.455 H83.634 Q85.971 -33.455 87.637 -31.789 Q89.303 -30.123 89.303 -27.786 V-11.517 Q89.303 -9.125 87.637 -7.487 Q85.971 -5.848 83.634 -5.848 H57.112 Z M57.112 -42.923 Q54.72 -42.923 53.082 -44.589 Q51.444 -46.255 51.444 -48.592 V-64.86 Q51.444 -67.253 53.082 -68.891 Q54.72 -70.529 57.112 -70.529 H83.634 Q85.971 -70.529 87.637 -68.891 Q89.303 -67.253 89.303 -64.86 V-48.592 Q89.303 -46.255 87.637 -44.589 Q85.971 -42.923 83.634 -42.923 H57.112 Z M62.781 -54.26 H77.965 V-59.192 H62.781 V-54.26 Z"/></g><g id="Medium-S" transform="matrix(1 0 0 1 1701.85 696)"><path d="M10.506 -42.042 Q10.506 -35.129 15.108 -29.978 Q19.71 -24.827 26.35 -24.231 H28.224 L27.416 -25.016 Q25.865 -26.566 25.828 -28.56 Q25.79 -30.554 27.368 -32.081 Q28.942 -33.607 30.953 -33.607 Q32.963 -33.607 34.457 -32.081 L43.277 -23.26 Q44.874 -21.722 44.863 -19.677 Q44.851 -17.632 43.277 -16.035 L34.48 -7.261 Q32.93 -5.711 31.009 -5.76 Q29.088 -5.81 27.636 -7.261 Q26.011 -8.886 26.049 -10.946 Q26.086 -13.005 27.711 -14.448 L27.613 -14.129 H25.838 Q15.107 -15.293 7.809 -23.264 Q0.51 -31.236 0.51 -42.117 Q0.51 -53.784 8.729 -61.943 Q16.947 -70.103 28.638 -70.103 H39.538 Q41.611 -70.103 43.073 -68.646 Q44.536 -67.19 44.536 -65.126 Q44.536 -63.085 43.073 -61.596 Q41.611 -60.107 39.538 -60.107 H28.389 Q20.919 -60.107 15.712 -54.847 Q10.506 -49.587 10.506 -42.042 Z M56.823 -6.299 Q54.656 -6.299 53.146 -7.808 Q51.637 -9.318 51.637 -11.485 V-28.268 Q51.637 -30.412 53.146 -31.933 Q54.656 -33.455 56.823 -33.455 H83.634 Q85.778 -33.455 87.299 -31.933 Q88.82 -30.412 88.82 -28.268 V-11.485 Q88.82 -9.318 87.299 -7.808 Q85.778 -6.299 83.634 -6.299 H56.823 Z M56.823 -42.923 Q54.656 -42.923 53.146 -44.444 Q51.637 -45.966 51.637 -48.109 V-64.893 Q51.637 -67.06 53.146 -68.569 Q54.656 -70.079 56.823 -70.079 H83.634 Q85.778 -70.079 87.299 -68.569 Q88.82 -67.06 88.82 -64.893 V-48.109 Q88.82 -45.966 87.299 -44.444 Q85.778 -42.923 83.634 -42.923 H56.823 Z M62.009 -53.296 H78.448 V-59.706 H62.009 V-53.296 Z"/></g><g id="Regular-S" transform="matrix(1 0 0 1 1405.73 696)"><path d="M10.553 -41.641 Q10.553 -34.54 15.238 -29.165 Q19.922 -23.789 26.727 -23.099 H28.601 L27.911 -23.789 Q26.431 -25.269 26.382 -27.192 Q26.333 -29.115 27.864 -30.595 Q29.39 -32.074 31.33 -32.074 Q33.269 -32.074 34.716 -30.595 L43.395 -21.916 Q44.874 -20.472 44.874 -18.58 Q44.874 -16.688 43.395 -15.209 L34.716 -6.53 Q33.237 -5.051 31.363 -5.1 Q29.489 -5.149 28.108 -6.53 Q26.53 -8.108 26.579 -10.085 Q26.629 -12.062 28.207 -13.434 L28.108 -13.138 H26.333 Q15.484 -14.42 8.186 -22.557 Q0.888 -30.693 0.888 -41.739 Q0.888 -53.407 9.059 -61.578 Q17.23 -69.749 28.897 -69.749 H39.845 Q41.847 -69.749 43.262 -68.339 Q44.677 -66.93 44.677 -64.937 Q44.677 -62.944 43.262 -61.514 Q41.847 -60.083 39.845 -60.083 H28.601 Q21.037 -60.083 15.795 -54.694 Q10.553 -49.304 10.553 -41.641 Z M56.611 -6.629 Q54.609 -6.629 53.193 -8.044 Q51.778 -9.459 51.778 -11.461 V-28.622 Q51.778 -30.624 53.193 -32.039 Q54.609 -33.455 56.611 -33.455 H83.634 Q85.636 -33.455 87.051 -32.039 Q88.467 -30.624 88.467 -28.622 V-11.461 Q88.467 -9.459 87.051 -8.044 Q85.636 -6.629 83.634 -6.629 H56.611 Z M56.611 -42.923 Q54.609 -42.923 53.193 -44.338 Q51.778 -45.753 51.778 -47.755 V-64.916 Q51.778 -66.918 53.193 -68.333 Q54.609 -69.749 56.611 -69.749 H83.634 Q85.636 -69.749 87.051 -68.333 Q88.467 -66.918 88.467 -64.916 V-47.755 Q88.467 -45.753 87.051 -44.338 Q85.636 -42.923 83.634 -42.923 H56.611 Z M61.443 -52.588 H78.801 V-60.083 H61.443 V-52.588 Z"/></g><g id="Light-S" transform="matrix(1 0 0 1 1109.75 696)"><path d="M11.008 -41.641 Q11.008 -33.933 16.66 -28.539 Q22.312 -23.145 29.99 -22.909 H31.864 L29.315 -25.459 Q28.101 -26.673 28.032 -28.178 Q27.964 -29.684 29.259 -30.898 Q30.528 -32.112 32.032 -32.112 Q33.535 -32.112 34.716 -30.898 L42.978 -22.636 Q44.343 -21.307 44.343 -19.567 Q44.343 -17.827 42.978 -16.461 L34.754 -8.237 Q33.54 -7.023 32.103 -7.054 Q30.665 -7.084 29.541 -8.208 Q28.199 -9.55 28.249 -11.109 Q28.298 -12.669 29.648 -13.775 L31.143 -14.997 H29.368 Q18.557 -15.938 10.936 -23.448 Q3.315 -30.959 3.315 -41.739 Q3.315 -52.648 11.069 -60.212 Q18.823 -67.776 29.77 -67.776 H39.845 Q41.427 -67.776 42.559 -66.65 Q43.691 -65.524 43.691 -63.949 Q43.691 -62.375 42.559 -61.229 Q41.427 -60.083 39.845 -60.083 H29.512 Q21.795 -60.083 16.402 -54.732 Q11.008 -49.38 11.008 -41.641 Z M57.235 -8.601 Q55.367 -8.601 54.066 -9.908 Q52.764 -11.214 52.764 -13.055 V-28.607 Q52.764 -30.472 54.071 -31.774 Q55.377 -33.075 57.218 -33.075 H82.024 Q83.891 -33.075 85.192 -31.769 Q86.494 -30.463 86.494 -28.622 V-13.07 Q86.494 -11.204 85.188 -9.903 Q83.882 -8.601 82.041 -8.601 H57.235 Z M57.235 -43.302 Q55.367 -43.302 54.066 -44.608 Q52.764 -45.915 52.764 -47.755 V-63.308 Q52.764 -65.173 54.071 -66.475 Q55.377 -67.776 57.218 -67.776 H82.024 Q83.891 -67.776 85.192 -66.47 Q86.494 -65.164 86.494 -63.323 V-47.77 Q86.494 -45.905 85.188 -44.604 Q83.882 -43.302 82.041 -43.302 H57.235 Z M60.457 -50.995 H78.801 V-60.083 H60.457 V-50.995 Z"/></g><g id="Thin-S" transform="matrix(1 0 0 1 814.015 696)"><path d="M11.463 -41.641 Q11.463 -33.326 18.082 -27.913 Q24.702 -22.5 33.252 -22.72 H35.126 L30.718 -27.128 Q29.77 -28.076 29.682 -29.165 Q29.595 -30.253 30.654 -31.202 Q31.666 -32.15 32.733 -32.15 Q33.801 -32.15 34.716 -31.202 L42.561 -23.357 Q43.812 -22.141 43.812 -20.553 Q43.812 -18.964 42.561 -17.713 L34.792 -9.944 Q33.844 -8.996 32.842 -9.007 Q31.841 -9.019 30.974 -9.885 Q29.868 -10.991 29.917 -12.134 Q29.967 -13.276 31.09 -14.117 L34.177 -16.855 H32.402 Q21.629 -17.455 13.686 -24.34 Q5.743 -31.224 5.743 -41.739 Q5.743 -51.889 13.08 -58.847 Q20.416 -65.804 30.642 -65.804 H39.845 Q41.008 -65.804 41.856 -64.961 Q42.705 -64.118 42.705 -62.962 Q42.705 -61.806 41.856 -60.945 Q41.008 -60.083 39.845 -60.083 H30.422 Q22.554 -60.083 17.009 -54.769 Q11.463 -49.455 11.463 -41.641 Z M57.859 -10.574 Q56.126 -10.574 54.938 -11.771 Q53.751 -12.968 53.751 -14.648 V-28.592 Q53.751 -30.321 54.948 -31.508 Q56.145 -32.696 57.825 -32.696 H80.413 Q82.146 -32.696 83.334 -31.499 Q84.522 -30.302 84.522 -28.622 V-14.678 Q84.522 -12.949 83.325 -11.761 Q82.127 -10.574 80.448 -10.574 H57.859 Z M57.859 -43.681 Q56.126 -43.681 54.938 -44.879 Q53.751 -46.076 53.751 -47.755 V-61.7 Q53.751 -63.428 54.948 -64.616 Q56.145 -65.804 57.825 -65.804 H80.413 Q82.146 -65.804 83.334 -64.607 Q84.522 -63.409 84.522 -61.73 V-47.785 Q84.522 -46.057 83.325 -44.869 Q82.127 -43.681 80.448 -43.681 H57.859 Z M59.471 -49.402 H78.801 V-60.083 H59.471 V-49.402 Z"/></g><g id="Ultralight-S" transform="matrix(1 0 0 1 517.792 696)"><path d="M11.736 -41.641 Q11.736 -32.962 18.936 -27.537 Q26.136 -22.113 35.209 -22.606 H37.083 L31.56 -28.129 Q30.771 -28.918 30.672 -29.756 Q30.574 -30.595 31.491 -31.384 Q32.349 -32.173 33.154 -32.173 Q33.96 -32.173 34.716 -31.384 L42.31 -23.789 Q43.494 -22.642 43.494 -21.145 Q43.494 -19.647 42.31 -18.464 L34.815 -10.968 Q34.026 -10.179 33.286 -10.179 Q32.546 -10.179 31.834 -10.891 Q30.87 -11.856 30.919 -12.748 Q30.968 -13.64 31.955 -14.321 L35.998 -17.971 H34.223 Q23.473 -18.365 15.336 -24.874 Q7.2 -31.384 7.2 -41.739 Q7.2 -51.434 14.286 -58.027 Q21.372 -64.62 31.166 -64.62 H39.845 Q40.757 -64.62 41.435 -63.947 Q42.113 -63.274 42.113 -62.369 Q42.113 -61.464 41.435 -60.774 Q40.757 -60.083 39.845 -60.083 H30.968 Q23.009 -60.083 17.373 -54.792 Q11.736 -49.501 11.736 -41.641 Z M58.233 -11.757 Q56.581 -11.757 55.462 -12.889 Q54.342 -14.021 54.342 -15.604 V-28.583 Q54.342 -30.23 55.474 -31.349 Q56.606 -32.468 58.189 -32.468 H79.447 Q81.099 -32.468 82.219 -31.337 Q83.338 -30.205 83.338 -28.622 V-15.643 Q83.338 -13.996 82.206 -12.877 Q81.075 -11.757 79.492 -11.757 H58.233 Z M58.233 -43.909 Q56.581 -43.909 55.462 -45.041 Q54.342 -46.172 54.342 -47.755 V-60.735 Q54.342 -62.381 55.474 -63.501 Q56.606 -64.62 58.189 -64.62 H79.447 Q81.099 -64.62 82.219 -63.489 Q83.338 -62.357 83.338 -60.774 V-47.794 Q83.338 -46.148 82.206 -45.028 Q81.075 -43.909 79.492 -43.909 H58.233 Z M58.879 -48.446 H78.801 V-60.083 H58.879 V-48.446 Z"/></g></g></svg>