<svg xmlns="http://www.w3.org/2000/svg" version="1.1" width="3300" height="2000"><g id="Notes"><style>
    text {
      font-family: monospace;
      text-anchor: middle;
    }
    text.emphasis {
      font-weight:bold;
    }
    text.lanchor {
      text-anchor: start;
    }
  </style><rect height="2200" id="artboard" fill="white" width="3300" x="0" y="0"/><line id="" style="fill:none;stroke:black;stroke-width:0.5;" x1="263" x2="3036" y1="292" y2="292"/><text class="lanchor emphasis" transform="matrix(1 0 0 1 263 322)">Weight/Scale Variations</text><text transform="matrix(1 0 0 1 559.711 322)">Ultralight</text><text transform="matrix(1 0 0 1 856.422 322)">Thin</text><text transform="matrix(1 0 0 1 1153.13 322)">Light</text><text transform="matrix(1 0 0 1 1449.84 322)">Regular</text><text transform="matrix(1 0 0 1 1746.56 322)">Medium</text><text transform="matrix(1 0 0 1 2043.27 322)">Semibold</text><text transform="matrix(1 0 0 1 2339.98 322)">Bold</text><text transform="matrix(1 0 0 1 2636.69 322)">Heavy</text><text transform="matrix(1 0 0 1 2933.4 322)">Black</text><text id="template-version" style="text-anchor: end;" transform="matrix(1 0 0 1 3036 1933)">Template v.1.0</text><text class="lanchor" transform="matrix(1 0 0 1 263 726)">Small</text><text class="lanchor" transform="matrix(1 0 0 1 263 1156)">Medium</text><text class="lanchor" transform="matrix(1 0 0 1 263 1586)">Large</text></g><g id="Guides"><g id="H-reference" style="fill:#27AAE1;stroke:none;" transform="matrix(1 0 0 1 339 696)"><path d="M 54.9316 0 L 57.666 0 L 30.5664 -70.459 L 28.0762 -70.459 L 0.976562 0 L 3.66211 0 L 12.9395 -24.4629 L 45.7031 -24.4629 Z M 29.1992 -67.0898 L 29.4434 -67.0898 L 44.8242 -26.709 L 13.8184 -26.709 Z"/></g><line id="Baseline-S" style="fill:none;stroke:#27AAE1;opacity:1;stroke-width:0.577;" x1="263" x2="3036" y1="696" y2="696"/><line id="Capline-S" style="fill:none;stroke:#27AAE1;opacity:1;stroke-width:0.577;" x1="263" x2="3036" y1="625.541" y2="625.541"/><g id="H-reference" style="fill:#27AAE1;stroke:none;" transform="matrix(1 0 0 1 339 1126)"><path d="M 54.9316 0 L 57.666 0 L 30.5664 -70.459 L 28.0762 -70.459 L 0.976562 0 L 3.66211 0 L 12.9395 -24.4629 L 45.7031 -24.4629 Z M 29.1992 -67.0898 L 29.4434 -67.0898 L 44.8242 -26.709 L 13.8184 -26.709 Z"/></g><line id="Baseline-M" style="fill:none;stroke:#27AAE1;opacity:1;stroke-width:0.577;" x1="263" x2="3036" y1="1126" y2="1126"/><line id="Capline-M" style="fill:none;stroke:#27AAE1;opacity:1;stroke-width:0.577;" x1="263" x2="3036" y1="1055.54" y2="1055.54"/><g id="H-reference" style="fill:#27AAE1;stroke:none;" transform="matrix(1 0 0 1 339 1556)"><path d="M 54.9316 0 L 57.666 0 L 30.5664 -70.459 L 28.0762 -70.459 L 0.976562 0 L 3.66211 0 L 12.9395 -24.4629 L 45.7031 -24.4629 Z M 29.1992 -67.0898 L 29.4434 -67.0898 L 44.8242 -26.709 L 13.8184 -26.709 Z"/></g><line id="Baseline-L" style="fill:none;stroke:#27AAE1;opacity:1;stroke-width:0.577;" x1="263" x2="3036" y1="1556" y2="1556"/><line id="Capline-L" style="fill:none;stroke:#27AAE1;opacity:1;stroke-width:0.577;" x1="263" x2="3036" y1="1485.54" y2="1485.54"/><rect height="119.336" id="left-margin" style="fill:darkred;stroke:none;opacity:0.4;" width="12.4512" x="1394.06" y="1030.79"/><rect height="119.336" id="right-margin" style="fill:darkgreen;stroke:none;opacity:0.4;" width="12.4512" x="1502.5112" y="1030.79"/><rect x="1406.5112" y="1045" width="96" height="96" fill="none" stroke="blue" stroke-dasharray="5"/><rect x="1394.06" y="1030.79" width="120.9024" height="119.336" fill="none" stroke="blue"/></g><g id="Symbols"><g id="Bold-L" transform="matrix(1 0 0 1 2266 1556)"><path d="M54.18 25.803 H100.701 V-9.349 Q96.115 -4.804 90.21 -2.32 Q84.304 0.164 77.426 0.164 Q70.547 0.164 64.605 -2.282 Q58.664 -4.727 54.18 -9.349 V25.803 Z M77.372 -11.042 Q86.43 -11.042 93.001 -17.478 Q99.572 -23.913 99.572 -33.105 Q99.572 -42.231 93.053 -48.688 Q86.534 -55.144 77.452 -55.144 Q68.37 -55.144 61.92 -48.72 Q55.47 -42.297 55.47 -33.12 Q55.47 -23.942 61.858 -17.492 Q68.246 -11.042 77.372 -11.042 Z M54.18 -56.757 Q58.685 -61.302 64.59 -63.827 Q70.496 -66.351 77.374 -66.351 Q84.253 -66.351 90.195 -63.865 Q96.136 -61.379 100.701 -56.757 V-96.263 H54.18 V-56.757 Z M40.554 39.429 V-109.889 H114.326 V39.429 H40.554 Z M77.343 -22.733 Q73.051 -22.733 70.106 -25.779 Q67.161 -28.825 67.161 -33.176 Q67.161 -37.461 70.148 -40.457 Q73.136 -43.454 77.405 -43.454 Q81.673 -43.454 84.777 -40.416 Q87.881 -37.378 87.881 -33.039 Q87.881 -28.699 84.758 -25.716 Q81.635 -22.733 77.343 -22.733 Z M77.428 -74.817 Q79.964 -74.817 81.504 -76.345 Q83.044 -77.873 83.044 -80.408 Q83.044 -82.944 81.476 -84.484 Q79.907 -86.024 77.372 -86.024 Q74.836 -86.024 73.337 -84.456 Q71.837 -82.887 71.837 -80.352 Q71.837 -77.816 73.365 -76.316 Q74.893 -74.817 77.428 -74.817 Z"/></g><g id="Semibold-L" transform="matrix(1 0 0 1 1970.27 1556)"><path d="M54.39 25.593 H100.49 V-10.751 Q95.975 -6.276 90.136 -3.792 Q84.297 -1.308 77.422 -1.308 Q70.547 -1.308 64.68 -3.77 Q58.813 -6.233 54.39 -10.751 V25.593 Z M77.372 -11.673 Q86.605 -11.673 93.229 -18.19 Q99.852 -24.707 99.852 -34.017 Q99.852 -43.288 93.281 -49.847 Q86.71 -56.406 77.452 -56.406 Q68.195 -56.406 61.657 -49.889 Q55.119 -43.371 55.119 -34.06 Q55.119 -24.749 61.61 -18.211 Q68.1 -11.673 77.372 -11.673 Z M54.39 -57.248 Q58.825 -61.723 64.664 -64.247 Q70.503 -66.772 77.378 -66.772 Q84.253 -66.772 90.12 -64.269 Q95.987 -61.766 100.49 -57.248 V-96.053 H54.39 V-57.248 Z M42.658 37.326 V-107.786 H112.223 V37.326 H42.658 Z M77.368 -24.416 Q73.364 -24.416 70.613 -27.234 Q67.862 -30.053 67.862 -34.079 Q67.862 -38.068 70.647 -40.866 Q73.433 -43.664 77.413 -43.664 Q81.393 -43.664 84.251 -40.843 Q87.11 -38.022 87.11 -33.991 Q87.11 -29.961 84.241 -27.188 Q81.371 -24.416 77.368 -24.416 Z M77.428 -75.238 Q79.726 -75.238 81.174 -76.674 Q82.623 -78.111 82.623 -80.408 Q82.623 -82.706 81.146 -84.154 Q79.669 -85.603 77.372 -85.603 Q75.074 -85.603 73.666 -84.126 Q72.258 -82.649 72.258 -80.352 Q72.258 -78.054 73.694 -76.646 Q75.131 -75.238 77.428 -75.238 Z"/></g><g id="Medium-L" transform="matrix(1 0 0 1 1674.31 1556)"><path d="M54.548 25.435 H100.332 V-11.803 Q95.87 -7.381 90.081 -4.896 Q84.291 -2.412 77.419 -2.412 Q70.547 -2.412 64.736 -4.887 Q58.925 -7.362 54.548 -11.803 V25.435 Z M77.372 -12.147 Q86.737 -12.147 93.4 -18.725 Q100.063 -25.303 100.063 -34.7 Q100.063 -44.081 93.452 -50.717 Q86.841 -57.353 77.452 -57.353 Q68.063 -57.353 61.46 -50.765 Q54.857 -44.177 54.857 -34.765 Q54.857 -25.353 61.423 -18.75 Q67.99 -12.147 77.372 -12.147 Z M54.548 -57.616 Q58.93 -62.038 64.719 -64.563 Q70.509 -67.087 77.381 -67.087 Q84.253 -67.087 90.064 -64.572 Q95.875 -62.057 100.332 -57.616 V-95.895 H54.548 V-57.616 Z M44.235 35.748 V-106.208 H110.646 V35.748 H44.235 Z M77.386 -25.678 Q73.599 -25.678 70.994 -28.326 Q68.388 -30.974 68.388 -34.757 Q68.388 -38.524 71.022 -41.173 Q73.656 -43.822 77.419 -43.822 Q81.182 -43.822 83.857 -41.163 Q86.532 -38.504 86.532 -34.706 Q86.532 -30.908 83.852 -28.293 Q81.173 -25.678 77.386 -25.678 Z M77.428 -75.553 Q79.547 -75.553 80.927 -76.922 Q82.308 -78.29 82.308 -80.408 Q82.308 -82.527 80.899 -83.907 Q79.49 -85.288 77.372 -85.288 Q75.253 -85.288 73.913 -83.879 Q72.573 -82.47 72.573 -80.352 Q72.573 -78.233 73.942 -76.893 Q75.31 -75.553 77.428 -75.553 Z"/></g><g id="Regular-L" transform="matrix(1 0 0 1 1378.56 1556)"><path d="M54.664 25.319 H100.217 V-12.574 Q95.793 -8.19 90.04 -5.706 Q84.287 -3.222 77.417 -3.222 Q70.547 -3.222 64.777 -5.706 Q59.007 -8.19 54.664 -12.574 V25.319 Z M77.372 -12.494 Q86.833 -12.494 93.525 -19.117 Q100.217 -25.74 100.217 -35.202 Q100.217 -44.663 93.577 -51.355 Q86.937 -58.047 77.452 -58.047 Q67.967 -58.047 61.315 -51.407 Q54.664 -44.767 54.664 -35.282 Q54.664 -25.797 61.287 -19.145 Q67.91 -12.494 77.372 -12.494 Z M54.664 -57.886 Q59.007 -62.27 64.76 -64.794 Q70.513 -67.319 77.383 -67.319 Q84.253 -67.319 90.023 -64.794 Q95.793 -62.27 100.217 -57.886 V-95.779 H54.664 V-57.886 Z M45.392 34.591 V-105.051 H109.489 V34.591 H45.392 Z M77.4 -26.603 Q73.772 -26.603 71.273 -29.126 Q68.773 -31.649 68.773 -35.254 Q68.773 -38.858 71.296 -41.398 Q73.819 -43.937 77.424 -43.937 Q81.028 -43.937 83.568 -41.398 Q86.108 -38.858 86.108 -35.23 Q86.108 -31.602 83.568 -29.102 Q81.028 -26.603 77.4 -26.603 Z M77.428 -75.784 Q79.416 -75.784 80.746 -77.103 Q82.076 -78.421 82.076 -80.408 Q82.076 -82.396 80.718 -83.726 Q79.359 -85.056 77.372 -85.056 Q75.384 -85.056 74.094 -83.698 Q72.804 -82.339 72.804 -80.352 Q72.804 -78.364 74.123 -77.074 Q75.441 -75.784 77.428 -75.784 Z"/></g><g id="Light-L" transform="matrix(1 0 0 1 1082.77 1556)"><path d="M55.625 24.73 H99.286 V-16.203 Q95.235 -11.602 89.659 -8.993 Q84.083 -6.385 77.423 -6.385 Q70.764 -6.385 65.165 -8.993 Q59.565 -11.602 55.625 -16.203 V24.73 Z M77.37 -13.455 Q86.43 -13.455 92.858 -19.797 Q99.286 -26.14 99.286 -35.2 Q99.286 -44.26 92.921 -50.688 Q86.556 -57.116 77.463 -57.116 Q68.37 -57.116 61.998 -50.751 Q55.625 -44.386 55.625 -35.293 Q55.625 -26.2 61.967 -19.828 Q68.31 -13.455 77.37 -13.455 Z M55.625 -54.257 Q59.576 -58.86 65.15 -61.523 Q70.723 -64.187 77.38 -64.187 Q84.036 -64.187 89.64 -61.523 Q95.244 -58.86 99.286 -54.257 V-95.19 H55.625 V-54.257 Z M48.555 31.8 V-102.26 H106.357 V31.8 H48.555 Z M77.389 -27.161 Q74.024 -27.161 71.678 -29.531 Q69.331 -31.901 69.331 -35.243 Q69.331 -38.584 71.701 -41.028 Q74.071 -43.472 77.413 -43.472 Q80.754 -43.472 83.198 -41.028 Q85.642 -38.584 85.642 -35.219 Q85.642 -31.854 83.198 -29.508 Q80.754 -27.161 77.389 -27.161 Z M77.429 -76.157 Q79.199 -76.157 80.467 -77.398 Q81.735 -78.64 81.735 -80.409 Q81.735 -82.179 80.447 -83.447 Q79.158 -84.715 77.38 -84.715 Q75.601 -84.715 74.389 -83.427 Q73.177 -82.138 73.177 -80.36 Q73.177 -78.581 74.418 -77.369 Q75.66 -76.157 77.429 -76.157 Z"/></g><g id="Thin-L" transform="matrix(1 0 0 1 787.282 1556)"><path d="M56.586 24.141 H98.356 V-19.831 Q94.676 -15.012 89.278 -12.28 Q83.879 -9.548 77.43 -9.548 Q70.981 -9.548 65.552 -12.28 Q60.124 -15.012 56.586 -19.831 V24.141 Z M77.368 -14.416 Q86.027 -14.416 92.192 -20.478 Q98.356 -26.539 98.356 -35.198 Q98.356 -43.857 92.266 -50.022 Q86.175 -56.186 77.474 -56.186 Q68.773 -56.186 62.68 -50.096 Q56.586 -44.005 56.586 -35.304 Q56.586 -26.603 62.648 -20.51 Q68.709 -14.416 77.368 -14.416 Z M56.586 -50.629 Q60.145 -55.451 65.539 -58.253 Q70.933 -61.055 77.376 -61.055 Q83.819 -61.055 89.257 -58.253 Q94.695 -55.451 98.356 -50.629 V-94.601 H56.586 V-50.629 Z M51.718 29.01 V-99.47 H103.225 V29.01 H51.718 Z M77.378 -27.719 Q74.276 -27.719 72.083 -29.936 Q69.889 -32.153 69.889 -35.232 Q69.889 -38.31 72.106 -40.659 Q74.323 -43.007 77.402 -43.007 Q80.48 -43.007 82.829 -40.659 Q85.177 -38.31 85.177 -35.208 Q85.177 -32.106 82.829 -29.913 Q80.48 -27.719 77.378 -27.719 Z M77.43 -76.529 Q78.982 -76.529 80.188 -77.694 Q81.394 -78.859 81.394 -80.41 Q81.394 -81.962 80.176 -83.168 Q78.958 -84.374 77.388 -84.374 Q75.818 -84.374 74.684 -83.156 Q73.549 -81.938 73.549 -80.368 Q73.549 -78.798 74.714 -77.664 Q75.879 -76.529 77.43 -76.529 Z"/></g><g id="Ultralight-L" transform="matrix(1 0 0 1 491.205 1556)"><path d="M57.163 23.788 H97.798 V-22.007 Q94.342 -17.059 89.049 -14.252 Q83.756 -11.446 77.434 -11.446 Q71.111 -11.446 65.785 -14.252 Q60.458 -17.059 57.163 -22.007 V23.788 Z M77.367 -14.993 Q85.785 -14.993 91.792 -20.886 Q97.798 -26.779 97.798 -35.197 Q97.798 -43.615 91.872 -49.622 Q85.946 -55.628 77.481 -55.628 Q69.015 -55.628 63.089 -49.702 Q57.163 -43.776 57.163 -35.311 Q57.163 -26.845 63.056 -20.919 Q68.949 -14.993 77.367 -14.993 Z M57.163 -48.452 Q60.487 -53.405 65.773 -56.29 Q71.059 -59.176 77.374 -59.176 Q83.689 -59.176 89.027 -56.29 Q94.365 -53.405 97.798 -48.452 V-94.247 H57.163 V-48.452 Z M53.616 27.335 V-97.795 H101.346 V27.335 H53.616 Z M77.371 -28.054 Q74.427 -28.054 72.326 -30.179 Q70.224 -32.305 70.224 -35.225 Q70.224 -38.146 72.349 -40.437 Q74.475 -42.728 77.395 -42.728 Q80.316 -42.728 82.607 -40.437 Q84.898 -38.146 84.898 -35.201 Q84.898 -32.257 82.607 -30.156 Q80.316 -28.054 77.371 -28.054 Z M77.431 -76.752 Q78.851 -76.752 80.02 -77.871 Q81.189 -78.991 81.189 -80.411 Q81.189 -81.831 80.013 -83 Q78.837 -84.169 77.393 -84.169 Q75.949 -84.169 74.86 -82.993 Q73.772 -81.817 73.772 -80.373 Q73.772 -78.929 74.891 -77.84 Q76.011 -76.752 77.431 -76.752 Z"/></g><g id="Bold-M" transform="matrix(1 0 0 1 2281.8 1126)"><path d="M44.188 9.145 H75.812 V-12.48 Q72.508 -9.956 68.511 -8.499 Q64.514 -7.042 60.007 -7.042 Q55.5 -7.042 51.488 -8.47 Q47.476 -9.897 44.188 -12.48 V9.145 Z M59.996 -18.417 Q66.062 -18.417 70.312 -22.664 Q74.562 -26.91 74.562 -32.976 Q74.562 -39.042 70.316 -43.292 Q66.07 -47.542 60.004 -47.542 Q53.938 -47.542 49.688 -43.296 Q45.438 -39.05 45.438 -32.984 Q45.438 -26.917 49.684 -22.667 Q53.93 -18.417 59.996 -18.417 Z M44.188 -53.48 Q47.492 -56.003 51.489 -57.46 Q55.486 -58.917 59.993 -58.917 Q64.5 -58.917 68.512 -57.49 Q72.524 -56.063 75.812 -53.48 V-79.605 H44.188 V-53.48 Z M30.312 23.02 V-93.48 H89.688 V23.02 H30.312 Z M59.982 -24.042 Q56.25 -24.042 53.656 -26.655 Q51.062 -29.267 51.062 -32.998 Q51.062 -36.73 53.675 -39.324 Q56.287 -41.917 60.018 -41.917 Q63.75 -41.917 66.344 -39.305 Q68.938 -36.693 68.938 -32.962 Q68.938 -29.23 66.325 -26.636 Q63.713 -24.042 59.982 -24.042 Z M60 -64.542 Q62.362 -64.542 64.025 -66.205 Q65.688 -67.867 65.688 -70.23 Q65.688 -72.592 64.025 -74.255 Q62.362 -75.917 60 -75.917 Q57.638 -75.917 55.975 -74.255 Q54.312 -72.592 54.312 -70.23 Q54.312 -67.867 55.975 -66.205 Q57.638 -64.542 60 -64.542 Z"/></g><g id="Semibold-M" transform="matrix(1 0 0 1 1985.97 1126)"><path d="M44.405 8.928 H75.595 V-13.947 Q72.345 -11.424 68.399 -9.994 Q64.453 -8.564 60.004 -8.564 Q55.554 -8.564 51.6 -9.977 Q47.646 -11.39 44.405 -13.947 V8.928 Z M59.996 -19.07 Q66.198 -19.07 70.543 -23.411 Q74.889 -27.752 74.889 -33.954 Q74.889 -40.156 70.547 -44.502 Q66.206 -48.847 60.004 -48.847 Q53.802 -48.847 49.456 -44.505 Q45.111 -40.164 45.111 -33.962 Q45.111 -27.76 49.453 -23.415 Q53.794 -19.07 59.996 -19.07 Z M44.405 -53.969 Q47.655 -56.492 51.601 -57.922 Q55.547 -59.352 59.996 -59.352 Q64.446 -59.352 68.4 -57.939 Q72.354 -56.526 75.595 -53.969 V-79.388 H44.405 V-53.969 Z M32.486 20.846 V-91.306 H87.514 V20.846 H32.486 Z M59.988 -25.781 Q56.576 -25.781 54.2 -28.17 Q51.823 -30.558 51.823 -33.97 Q51.823 -37.382 54.212 -39.758 Q56.6 -42.135 60.012 -42.135 Q63.424 -42.135 65.8 -39.746 Q68.177 -37.358 68.177 -33.946 Q68.177 -30.534 65.788 -28.158 Q63.4 -25.781 59.988 -25.781 Z M60 -64.977 Q62.178 -64.977 63.715 -66.515 Q65.253 -68.052 65.253 -70.23 Q65.253 -72.408 63.715 -73.945 Q62.178 -75.483 60 -75.483 Q57.822 -75.483 56.285 -73.945 Q54.747 -72.408 54.747 -70.23 Q54.747 -68.052 56.285 -66.515 Q57.822 -64.977 60 -64.977 Z"/></g><g id="Medium-M" transform="matrix(1 0 0 1 1689.91 1126)"><path d="M44.568 8.765 H75.432 V-15.048 Q72.223 -12.524 68.315 -11.115 Q64.408 -9.705 60.002 -9.705 Q55.595 -9.705 51.684 -11.108 Q47.773 -12.51 44.568 -15.048 V8.765 Z M59.996 -19.559 Q66.3 -19.559 70.717 -23.971 Q75.133 -28.384 75.133 -34.688 Q75.133 -40.992 70.72 -45.409 Q66.308 -49.825 60.004 -49.825 Q53.7 -49.825 49.283 -45.412 Q44.867 -41 44.867 -34.696 Q44.867 -28.392 49.28 -23.975 Q53.692 -19.559 59.996 -19.559 Z M44.568 -54.336 Q47.777 -56.859 51.685 -58.269 Q55.592 -59.678 59.998 -59.678 Q64.405 -59.678 68.316 -58.276 Q72.227 -56.874 75.432 -54.336 V-79.225 H44.568 V-54.336 Z M34.117 19.216 V-89.676 H85.883 V19.216 H34.117 Z M59.993 -27.086 Q56.821 -27.086 54.607 -29.306 Q52.394 -31.527 52.394 -34.699 Q52.394 -37.871 54.614 -40.085 Q56.835 -42.298 60.007 -42.298 Q63.179 -42.298 65.393 -40.077 Q67.606 -37.857 67.606 -34.685 Q67.606 -31.513 65.385 -29.299 Q63.165 -27.086 59.993 -27.086 Z M60 -65.303 Q62.039 -65.303 63.483 -66.747 Q64.927 -68.191 64.927 -70.23 Q64.927 -72.269 63.483 -73.713 Q62.039 -75.157 60 -75.157 Q57.961 -75.157 56.517 -73.713 Q55.073 -72.269 55.073 -70.23 Q55.073 -68.191 56.517 -66.747 Q57.961 -65.303 60 -65.303 Z"/></g><g id="Regular-M" transform="matrix(1 0 0 1 1394.06 1126)"><path d="M44.688 8.645 H75.312 V-15.855 Q72.133 -13.331 68.254 -11.937 Q64.375 -10.542 60 -10.542 Q55.625 -10.542 51.746 -11.937 Q47.867 -13.331 44.688 -15.855 V8.645 Z M59.996 -19.917 Q66.375 -19.917 70.844 -24.383 Q75.312 -28.848 75.312 -35.226 Q75.312 -41.605 70.847 -46.074 Q66.382 -50.542 60.004 -50.542 Q53.625 -50.542 49.156 -46.077 Q44.688 -41.612 44.688 -35.234 Q44.688 -28.855 49.153 -24.386 Q53.618 -19.917 59.996 -19.917 Z M44.688 -54.605 Q47.867 -57.128 51.746 -58.523 Q55.625 -59.917 60 -59.917 Q64.375 -59.917 68.254 -58.523 Q72.133 -57.128 75.312 -54.605 V-79.105 H44.688 V-54.605 Z M35.312 18.02 V-88.48 H84.688 V18.02 H35.312 Z M59.996 -28.042 Q57 -28.042 54.906 -30.14 Q52.812 -32.237 52.812 -35.234 Q52.812 -38.23 54.91 -40.324 Q57.007 -42.417 60.004 -42.417 Q63 -42.417 65.094 -40.32 Q67.188 -38.223 67.188 -35.226 Q67.188 -32.23 65.09 -30.136 Q62.993 -28.042 59.996 -28.042 Z M60 -65.542 Q61.938 -65.542 63.312 -66.917 Q64.688 -68.292 64.688 -70.23 Q64.688 -72.167 63.312 -73.542 Q61.938 -74.917 60 -74.917 Q58.062 -74.917 56.688 -73.542 Q55.312 -72.167 55.312 -70.23 Q55.312 -68.292 56.688 -66.917 Q58.062 -65.542 60 -65.542 Z"/></g><g id="Light-M" transform="matrix(1 0 0 1 1098.18 1126)"><path d="M44.76 8.861 H75.264 V-19.245 Q72.325 -16.312 68.415 -14.654 Q64.505 -12.995 60.005 -12.995 Q55.505 -12.995 51.59 -14.654 Q47.675 -16.312 44.76 -19.245 V8.861 Z M60.001 -19.99 Q66.351 -19.99 70.808 -24.435 Q75.264 -28.88 75.264 -35.231 Q75.264 -41.581 70.814 -46.038 Q66.364 -50.494 60.007 -50.494 Q53.649 -50.494 49.204 -46.044 Q44.76 -41.594 44.76 -35.236 Q44.76 -28.879 49.205 -24.434 Q53.65 -19.99 60.001 -19.99 Z M44.76 -51.215 Q47.683 -54.149 51.591 -55.819 Q55.499 -57.489 59.997 -57.489 Q64.495 -57.489 68.414 -55.819 Q72.332 -54.149 75.264 -51.215 V-79.321 H44.76 V-51.215 Z M37.765 15.856 V-86.316 H82.26 V15.856 H37.765 Z M59.996 -28.619 Q57.26 -28.619 55.325 -30.559 Q53.389 -32.498 53.389 -35.234 Q53.389 -37.97 55.329 -39.917 Q57.268 -41.865 60.004 -41.865 Q62.74 -41.865 64.687 -39.913 Q66.635 -37.962 66.635 -35.226 Q66.635 -32.49 64.683 -30.555 Q62.732 -28.619 59.996 -28.619 Z M60.001 -66.167 Q61.673 -66.167 62.88 -67.363 Q64.087 -68.559 64.087 -70.231 Q64.087 -71.903 62.886 -73.11 Q61.686 -74.316 60.006 -74.316 Q58.327 -74.316 57.132 -73.116 Q55.938 -71.916 55.938 -70.236 Q55.938 -68.557 57.133 -67.362 Q58.329 -66.167 60.001 -66.167 Z"/></g><g id="Thin-M" transform="matrix(1 0 0 1 802.565 1126)"><path d="M44.832 9.078 H75.216 V-22.634 Q72.518 -19.293 68.576 -17.37 Q64.635 -15.446 60.01 -15.446 Q55.385 -15.446 51.434 -17.37 Q47.482 -19.293 44.832 -22.634 V9.078 Z M60.005 -20.062 Q66.327 -20.062 70.772 -24.487 Q75.216 -28.913 75.216 -35.235 Q75.216 -41.557 70.781 -46.002 Q66.346 -50.446 60.009 -50.446 Q53.673 -50.446 49.252 -46.011 Q44.832 -41.576 44.832 -35.239 Q44.832 -28.903 49.257 -24.482 Q53.683 -20.062 60.005 -20.062 Z M44.832 -47.826 Q47.499 -51.169 51.436 -53.115 Q55.373 -55.062 59.994 -55.062 Q64.615 -55.062 68.573 -53.115 Q72.532 -51.169 75.216 -47.826 V-79.538 H44.832 V-47.826 Z M40.216 13.693 V-84.153 H79.832 V13.693 H40.216 Z M59.996 -29.196 Q57.521 -29.196 55.744 -30.977 Q53.966 -32.758 53.966 -35.234 Q53.966 -37.709 55.747 -39.51 Q57.528 -41.312 60.004 -41.312 Q62.479 -41.312 64.281 -39.507 Q66.082 -37.702 66.082 -35.226 Q66.082 -32.751 64.277 -30.974 Q62.472 -29.196 59.996 -29.196 Z M60.002 -66.792 Q61.409 -66.792 62.447 -67.809 Q63.486 -68.825 63.486 -70.232 Q63.486 -71.639 62.46 -72.677 Q61.434 -73.716 60.013 -73.716 Q58.591 -73.716 57.577 -72.69 Q56.562 -71.664 56.562 -70.243 Q56.562 -68.821 57.579 -67.807 Q58.595 -66.792 60.002 -66.792 Z"/></g><g id="Ultralight-M" transform="matrix(1 0 0 1 506.415 1126)"><path d="M44.875 9.208 H75.188 V-24.667 Q72.633 -21.081 68.673 -18.999 Q64.714 -16.917 60.013 -16.917 Q55.312 -16.917 51.34 -18.999 Q47.367 -21.081 44.875 -24.667 V9.208 Z M60.007 -20.105 Q66.312 -20.105 70.75 -24.519 Q75.188 -28.932 75.188 -35.237 Q75.188 -41.542 70.761 -45.98 Q66.335 -50.417 60.011 -50.417 Q53.688 -50.417 49.281 -45.991 Q44.875 -41.565 44.875 -35.241 Q44.875 -28.917 49.289 -24.511 Q53.702 -20.105 60.007 -20.105 Z M44.875 -45.792 Q47.389 -49.382 51.343 -51.493 Q55.298 -53.605 59.993 -53.605 Q64.688 -53.605 68.669 -51.493 Q72.651 -49.382 75.188 -45.792 V-79.667 H44.875 V-45.792 Z M41.688 12.395 V-82.855 H78.375 V12.395 H41.688 Z M59.996 -29.542 Q57.677 -29.542 55.995 -31.228 Q54.312 -32.914 54.312 -35.234 Q54.312 -37.553 55.998 -39.266 Q57.684 -40.98 60.004 -40.98 Q62.323 -40.98 64.037 -39.263 Q65.75 -37.546 65.75 -35.226 Q65.75 -32.907 64.033 -31.225 Q62.316 -29.542 59.996 -29.542 Z M60.002 -67.167 Q61.25 -67.167 62.188 -68.076 Q63.125 -68.984 63.125 -70.232 Q63.125 -71.48 62.204 -72.417 Q61.283 -73.355 60.017 -73.355 Q58.75 -73.355 57.844 -72.434 Q56.938 -71.513 56.938 -70.246 Q56.938 -68.98 57.846 -68.074 Q58.754 -67.167 60.002 -67.167 Z"/></g><g id="Bold-S" transform="matrix(1 0 0 1 2294.23 696)"><path d="M34.864 -0.218 H59.816 V-18.266 Q57.209 -16.182 54.055 -14.98 Q50.901 -13.779 47.345 -13.779 Q43.79 -13.779 40.624 -14.957 Q37.459 -16.135 34.864 -18.266 V-0.218 Z M47.337 -21.965 Q52.123 -21.965 55.477 -25.315 Q58.83 -28.666 58.83 -33.452 Q58.83 -38.238 55.479 -41.591 Q52.129 -44.945 47.343 -44.945 Q42.557 -44.945 39.203 -41.594 Q35.85 -38.244 35.85 -33.458 Q35.85 -28.671 39.201 -25.318 Q42.551 -21.965 47.337 -21.965 Z M34.864 -48.643 Q37.471 -50.728 40.625 -51.929 Q43.779 -53.13 47.335 -53.13 Q50.891 -53.13 54.056 -51.952 Q57.221 -50.774 59.816 -48.643 V-70.242 H34.864 V-48.643 Z M24.706 9.94 V-80.4 H69.974 V9.94 H24.706 Z M47.326 -26.403 Q44.381 -26.403 42.335 -28.464 Q40.288 -30.525 40.288 -33.469 Q40.288 -36.413 42.349 -38.46 Q44.41 -40.506 47.354 -40.506 Q50.299 -40.506 52.345 -38.445 Q54.392 -36.385 54.392 -33.44 Q54.392 -30.496 52.331 -28.45 Q50.27 -26.403 47.326 -26.403 Z M47.319 -58.358 Q49.007 -58.358 50.22 -59.55 Q51.433 -60.742 51.433 -62.43 Q51.433 -64.117 50.241 -65.33 Q49.048 -66.543 47.361 -66.543 Q45.673 -66.543 44.46 -65.351 Q43.247 -64.159 43.247 -62.471 Q43.247 -60.784 44.439 -59.571 Q45.632 -58.358 47.319 -58.358 Z"/></g><g id="Semibold-S" transform="matrix(1 0 0 1 1998.1 696)"><path d="M35.035 -0.39 H59.645 V-19.424 Q57.08 -17.34 53.967 -16.16 Q50.854 -14.98 47.343 -14.98 Q43.832 -14.98 40.712 -16.146 Q37.593 -17.313 35.035 -19.424 V-0.39 Z M47.337 -22.479 Q52.231 -22.479 55.659 -25.905 Q59.087 -29.33 59.087 -34.224 Q59.087 -39.117 55.662 -42.545 Q52.236 -45.974 47.343 -45.974 Q42.449 -45.974 39.021 -42.548 Q35.593 -39.123 35.593 -34.229 Q35.593 -29.336 39.018 -25.908 Q42.444 -22.479 47.337 -22.479 Z M35.035 -49.029 Q37.6 -51.114 40.713 -52.294 Q43.826 -53.473 47.337 -53.473 Q50.848 -53.473 53.968 -52.307 Q57.087 -51.14 59.645 -49.029 V-70.07 H35.035 V-49.029 Z M26.421 8.225 V-78.685 H68.259 V8.225 H26.421 Z M47.331 -27.775 Q44.639 -27.775 42.764 -29.66 Q40.889 -31.544 40.889 -34.236 Q40.889 -36.928 42.773 -38.803 Q44.657 -40.678 47.349 -40.678 Q50.041 -40.678 51.916 -38.794 Q53.791 -36.909 53.791 -34.217 Q53.791 -31.525 51.907 -29.65 Q50.023 -27.775 47.331 -27.775 Z M47.319 -58.701 Q48.861 -58.701 49.975 -59.794 Q51.09 -60.888 51.09 -62.43 Q51.09 -63.971 49.996 -65.086 Q48.903 -66.2 47.361 -66.2 Q45.819 -66.2 44.705 -65.107 Q43.59 -64.013 43.59 -62.471 Q43.59 -60.93 44.684 -59.815 Q45.777 -58.701 47.319 -58.701 Z"/></g><g id="Medium-S" transform="matrix(1 0 0 1 1701.85 696)"><path d="M35.164 -0.518 H59.516 V-20.293 Q56.984 -18.208 53.901 -17.044 Q50.818 -15.88 47.341 -15.88 Q43.865 -15.88 40.779 -17.038 Q37.693 -18.197 35.164 -20.293 V-0.518 Z M47.337 -22.865 Q52.311 -22.865 55.796 -26.347 Q59.28 -29.829 59.28 -34.803 Q59.28 -39.776 55.798 -43.261 Q52.317 -46.746 47.343 -46.746 Q42.369 -46.746 38.884 -43.264 Q35.4 -39.782 35.4 -34.808 Q35.4 -29.835 38.882 -26.35 Q42.363 -22.865 47.337 -22.865 Z M35.164 -49.318 Q37.696 -51.403 40.779 -52.567 Q43.862 -53.731 47.339 -53.731 Q50.815 -53.731 53.901 -52.573 Q56.987 -51.414 59.516 -49.318 V-69.942 H35.164 V-49.318 Z M27.707 6.939 V-77.399 H66.973 V6.939 H27.707 Z M47.334 -28.804 Q44.831 -28.804 43.085 -30.556 Q41.339 -32.308 41.339 -34.811 Q41.339 -37.314 43.091 -39.06 Q44.843 -40.807 47.346 -40.807 Q49.849 -40.807 51.595 -39.055 Q53.341 -37.303 53.341 -34.8 Q53.341 -32.297 51.589 -30.551 Q49.837 -28.804 47.334 -28.804 Z M47.319 -58.958 Q48.752 -58.958 49.792 -59.978 Q50.833 -60.997 50.833 -62.43 Q50.833 -63.862 49.813 -64.903 Q48.793 -65.943 47.361 -65.943 Q45.928 -65.943 44.888 -64.923 Q43.847 -63.904 43.847 -62.471 Q43.847 -61.039 44.867 -59.998 Q45.887 -58.958 47.319 -58.958 Z"/></g><g id="Regular-S" transform="matrix(1 0 0 1 1405.73 696)"><path d="M35.258 -0.613 H59.422 V-20.929 Q56.913 -18.845 53.852 -17.693 Q50.792 -16.541 47.34 -16.541 Q43.888 -16.541 40.828 -17.693 Q37.767 -18.845 35.258 -20.929 V-0.613 Z M47.337 -23.148 Q52.37 -23.148 55.896 -26.671 Q59.422 -30.194 59.422 -35.227 Q59.422 -40.26 55.899 -43.786 Q52.376 -47.312 47.343 -47.312 Q42.31 -47.312 38.784 -43.789 Q35.258 -40.266 35.258 -35.233 Q35.258 -30.2 38.781 -26.674 Q42.304 -23.148 47.337 -23.148 Z M35.258 -49.531 Q37.767 -51.615 40.828 -52.767 Q43.888 -53.919 47.34 -53.919 Q50.792 -53.919 53.852 -52.767 Q56.913 -51.615 59.422 -49.531 V-69.847 H35.258 V-49.531 Z M28.651 5.995 V-76.455 H66.029 V5.995 H28.651 Z M47.337 -29.559 Q44.973 -29.559 43.321 -31.214 Q41.669 -32.869 41.669 -35.233 Q41.669 -37.597 43.324 -39.249 Q44.979 -40.901 47.343 -40.901 Q49.707 -40.901 51.359 -39.246 Q53.011 -37.591 53.011 -35.227 Q53.011 -32.863 51.356 -31.211 Q49.701 -29.559 47.337 -29.559 Z M47.319 -59.147 Q48.671 -59.147 49.658 -60.112 Q50.644 -61.078 50.644 -62.43 Q50.644 -63.782 49.678 -64.768 Q48.713 -65.754 47.361 -65.754 Q46.009 -65.754 45.022 -64.789 Q44.036 -63.823 44.036 -62.471 Q44.036 -61.119 45.002 -60.133 Q45.967 -59.147 47.319 -59.147 Z"/></g><g id="Light-S" transform="matrix(1 0 0 1 1109.75 696)"><path d="M35.315 -0.442 H59.384 V-23.604 Q57.065 -21.197 53.98 -19.836 Q50.895 -18.475 47.344 -18.475 Q43.793 -18.475 40.704 -19.836 Q37.615 -21.197 35.315 -23.604 V-0.442 Z M47.34 -23.205 Q52.351 -23.205 55.867 -26.713 Q59.384 -30.22 59.384 -35.23 Q59.384 -40.241 55.872 -43.757 Q52.361 -47.274 47.345 -47.274 Q42.329 -47.274 38.822 -43.762 Q35.315 -40.251 35.315 -35.235 Q35.315 -30.219 38.823 -26.712 Q42.33 -23.205 47.34 -23.205 Z M35.315 -46.856 Q37.622 -49.264 40.705 -50.634 Q43.789 -52.004 47.338 -52.004 Q50.887 -52.004 53.978 -50.634 Q57.07 -49.264 59.384 -46.856 V-70.018 H35.315 V-46.856 Z M30.585 4.288 V-74.748 H64.114 V4.288 H30.585 Z M47.337 -30.014 Q45.178 -30.014 43.651 -31.544 Q42.124 -33.074 42.124 -35.233 Q42.124 -37.392 43.654 -38.928 Q45.184 -40.465 47.343 -40.465 Q49.502 -40.465 51.038 -38.925 Q52.575 -37.386 52.575 -35.227 Q52.575 -33.068 51.035 -31.541 Q49.496 -30.014 47.337 -30.014 Z M47.32 -59.64 Q48.463 -59.64 49.316 -60.464 Q50.17 -61.288 50.17 -62.43 Q50.17 -63.573 49.342 -64.427 Q48.514 -65.28 47.366 -65.28 Q46.217 -65.28 45.373 -64.452 Q44.529 -63.625 44.529 -62.476 Q44.529 -61.328 45.353 -60.484 Q46.177 -59.64 47.32 -59.64 Z"/></g><g id="Thin-S" transform="matrix(1 0 0 1 814.015 696)"><path d="M35.372 -0.271 H59.346 V-26.278 Q57.216 -23.548 54.107 -21.979 Q50.997 -20.41 47.348 -20.41 Q43.698 -20.41 40.581 -21.979 Q37.464 -23.548 35.372 -26.278 V-0.271 Z M47.344 -23.262 Q52.332 -23.262 55.839 -26.754 Q59.346 -30.246 59.346 -35.234 Q59.346 -40.222 55.846 -43.729 Q52.347 -47.236 47.347 -47.236 Q42.348 -47.236 38.86 -43.736 Q35.372 -40.237 35.372 -35.237 Q35.372 -30.238 38.864 -26.75 Q42.356 -23.262 47.344 -23.262 Z M35.372 -44.182 Q37.477 -46.914 40.583 -48.501 Q43.69 -50.088 47.336 -50.088 Q50.982 -50.088 54.104 -48.501 Q57.227 -46.914 59.346 -44.182 V-70.189 H35.372 V-44.182 Z M32.52 2.581 V-73.041 H62.198 V2.581 H32.52 Z M47.337 -30.469 Q45.384 -30.469 43.982 -31.875 Q42.579 -33.28 42.579 -35.233 Q42.579 -37.186 43.985 -38.607 Q45.39 -40.029 47.343 -40.029 Q49.296 -40.029 50.717 -38.604 Q52.139 -37.18 52.139 -35.227 Q52.139 -33.274 50.714 -31.872 Q49.29 -30.469 47.337 -30.469 Z M47.321 -60.133 Q48.254 -60.133 48.975 -60.815 Q49.696 -61.497 49.696 -62.431 Q49.696 -63.365 49.006 -64.085 Q48.316 -64.806 47.371 -64.806 Q46.426 -64.806 45.724 -64.116 Q45.022 -63.426 45.022 -62.481 Q45.022 -61.536 45.705 -60.835 Q46.387 -60.133 47.321 -60.133 Z"/></g><g id="Ultralight-S" transform="matrix(1 0 0 1 517.792 696)"><path d="M35.406 -0.169 H59.323 V-27.882 Q57.307 -24.959 54.183 -23.265 Q51.059 -21.57 47.35 -21.57 Q43.642 -21.57 40.507 -23.265 Q37.373 -24.959 35.406 -27.882 V-0.169 Z M47.346 -23.296 Q52.321 -23.296 55.822 -26.779 Q59.323 -30.261 59.323 -35.236 Q59.323 -40.211 55.83 -43.712 Q52.338 -47.213 47.349 -47.213 Q42.359 -47.213 38.883 -43.72 Q35.406 -40.228 35.406 -35.239 Q35.406 -30.249 38.889 -26.773 Q42.371 -23.296 47.346 -23.296 Z M35.406 -42.578 Q37.39 -45.503 40.51 -47.221 Q43.63 -48.939 47.334 -48.939 Q51.038 -48.939 54.18 -47.221 Q57.322 -45.503 59.323 -42.578 V-70.291 H35.406 V-42.578 Z M33.68 1.557 V-72.017 H61.049 V1.557 H33.68 Z M47.337 -30.743 Q45.507 -30.743 44.18 -32.073 Q42.853 -33.403 42.853 -35.233 Q42.853 -37.063 44.183 -38.415 Q45.513 -39.767 47.343 -39.767 Q49.173 -39.767 50.525 -38.412 Q51.877 -37.057 51.877 -35.227 Q51.877 -33.397 50.522 -32.07 Q49.167 -30.743 47.337 -30.743 Z M47.321 -60.429 Q48.129 -60.429 48.77 -61.026 Q49.411 -61.623 49.411 -62.431 Q49.411 -63.239 48.804 -63.881 Q48.196 -64.522 47.374 -64.522 Q46.551 -64.522 45.935 -63.914 Q45.318 -63.307 45.318 -62.484 Q45.318 -61.661 45.916 -61.045 Q46.513 -60.429 47.321 -60.429 Z"/></g></g></svg>