<svg xmlns="http://www.w3.org/2000/svg" height="24" viewBox="0 -960 960 960" width="24"><path d="M490.001-435.001 705.768-580 490.001-724.999v289.998ZM357.538-290.77q-30.307 0-51.307-21-21-21-21-51.307v-430.769q0-30.307 21-51.307 21-21 51.307-21h430.769q30.307 0 51.307 21 21 21 21 51.307v430.769q0 30.307-21 51.307-21 21-51.307 21H357.538ZM238.231-106.155q-29.922 4.23-53.422-14.462-23.5-18.692-27.115-48.615l-51.693-412.767q-3.615-29.923 14.962-53.615 18.577-23.692 48.5-27.308l35.768-3.846v340.614q0 48.076 33.654 81.73t81.73 33.654h412.154q-2.923 19-16.884 33.038-13.961 14.038-34.191 16.653l-443.463 54.924Z"/></svg>