<svg xmlns="http://www.w3.org/2000/svg" height="24" viewBox="0 -960 960 960" width="24"><path d="m506.479-446.522 240-160-240-160v320ZM385.523-262.87q-51.3 0-87.129-35.829-35.829-35.829-35.829-87.128V-816.87q0-51.299 35.829-87.128t87.129-35.829H817.13q51.3 0 87.129 35.829 35.829 35.829 35.829 87.128v431.043q0 51.299-35.829 87.128T817.13-262.87H385.523ZM220.13-35.52q-50.719 5.565-90.415-25.358Q90.019-91.8 83.477-142.652L31.173-570.694q-6.13-50.783 25.452-91.015 31.583-40.232 82.245-46.204l43.695-5v393.304q0 57.21 39.828 96.975 39.828 39.764 97.129 39.764h408.304q3.391 35.044-18.631 62.417-22.022 27.372-56.501 31.324L220.13-35.521Z"/></svg>