<svg xmlns="http://www.w3.org/2000/svg" version="1.1" width="3300" height="2000"><g id="Notes"><style>
    text {
      font-family: monospace;
      text-anchor: middle;
    }
    text.emphasis {
      font-weight:bold;
    }
    text.lanchor {
      text-anchor: start;
    }
  </style><rect height="2200" id="artboard" fill="white" width="3300" x="0" y="0"/><line id="" style="fill:none;stroke:black;stroke-width:0.5;" x1="263" x2="3036" y1="292" y2="292"/><text class="lanchor emphasis" transform="matrix(1 0 0 1 263 322)">Weight/Scale Variations</text><text transform="matrix(1 0 0 1 559.711 322)">Ultralight</text><text transform="matrix(1 0 0 1 856.422 322)">Thin</text><text transform="matrix(1 0 0 1 1153.13 322)">Light</text><text transform="matrix(1 0 0 1 1449.84 322)">Regular</text><text transform="matrix(1 0 0 1 1746.56 322)">Medium</text><text transform="matrix(1 0 0 1 2043.27 322)">Semibold</text><text transform="matrix(1 0 0 1 2339.98 322)">Bold</text><text transform="matrix(1 0 0 1 2636.69 322)">Heavy</text><text transform="matrix(1 0 0 1 2933.4 322)">Black</text><text id="template-version" style="text-anchor: end;" transform="matrix(1 0 0 1 3036 1933)">Template v.1.0</text><text class="lanchor" transform="matrix(1 0 0 1 263 726)">Small</text><text class="lanchor" transform="matrix(1 0 0 1 263 1156)">Medium</text><text class="lanchor" transform="matrix(1 0 0 1 263 1586)">Large</text></g><g id="Guides"><g id="H-reference" style="fill:#27AAE1;stroke:none;" transform="matrix(1 0 0 1 339 696)"><path d="M 54.9316 0 L 57.666 0 L 30.5664 -70.459 L 28.0762 -70.459 L 0.976562 0 L 3.66211 0 L 12.9395 -24.4629 L 45.7031 -24.4629 Z M 29.1992 -67.0898 L 29.4434 -67.0898 L 44.8242 -26.709 L 13.8184 -26.709 Z"/></g><line id="Baseline-S" style="fill:none;stroke:#27AAE1;opacity:1;stroke-width:0.577;" x1="263" x2="3036" y1="696" y2="696"/><line id="Capline-S" style="fill:none;stroke:#27AAE1;opacity:1;stroke-width:0.577;" x1="263" x2="3036" y1="625.541" y2="625.541"/><g id="H-reference" style="fill:#27AAE1;stroke:none;" transform="matrix(1 0 0 1 339 1126)"><path d="M 54.9316 0 L 57.666 0 L 30.5664 -70.459 L 28.0762 -70.459 L 0.976562 0 L 3.66211 0 L 12.9395 -24.4629 L 45.7031 -24.4629 Z M 29.1992 -67.0898 L 29.4434 -67.0898 L 44.8242 -26.709 L 13.8184 -26.709 Z"/></g><line id="Baseline-M" style="fill:none;stroke:#27AAE1;opacity:1;stroke-width:0.577;" x1="263" x2="3036" y1="1126" y2="1126"/><line id="Capline-M" style="fill:none;stroke:#27AAE1;opacity:1;stroke-width:0.577;" x1="263" x2="3036" y1="1055.54" y2="1055.54"/><g id="H-reference" style="fill:#27AAE1;stroke:none;" transform="matrix(1 0 0 1 339 1556)"><path d="M 54.9316 0 L 57.666 0 L 30.5664 -70.459 L 28.0762 -70.459 L 0.976562 0 L 3.66211 0 L 12.9395 -24.4629 L 45.7031 -24.4629 Z M 29.1992 -67.0898 L 29.4434 -67.0898 L 44.8242 -26.709 L 13.8184 -26.709 Z"/></g><line id="Baseline-L" style="fill:none;stroke:#27AAE1;opacity:1;stroke-width:0.577;" x1="263" x2="3036" y1="1556" y2="1556"/><line id="Capline-L" style="fill:none;stroke:#27AAE1;opacity:1;stroke-width:0.577;" x1="263" x2="3036" y1="1485.54" y2="1485.54"/><rect height="119.336" id="left-margin" style="fill:darkred;stroke:none;opacity:0.4;" width="12.4512" x="1394.06" y="1030.79"/><rect height="119.336" id="right-margin" style="fill:darkgreen;stroke:none;opacity:0.4;" width="12.4512" x="1502.5112" y="1030.79"/><rect x="1406.5112" y="1045" width="96" height="96" fill="none" stroke="blue" stroke-dasharray="5"/><rect x="1394.06" y="1030.79" width="120.9024" height="119.336" fill="none" stroke="blue"/></g><g id="Symbols"><g id="Bold-L" transform="matrix(1 0 0 1 2266 1556)"><path d="M109.592 39.026 Q106.389 39.026 104.23 36.921 Q102.071 34.816 102.071 31.84 Q102.071 28.806 104.17 26.579 Q106.268 24.352 109.569 24.352 Q121.018 24.352 129.121 16.32 Q137.224 8.288 137.224 -3.302 Q137.224 -6.335 139.295 -8.366 Q141.367 -10.397 144.295 -10.397 Q147.302 -10.397 149.519 -8.321 Q151.736 -6.244 151.736 -3.302 Q151.736 14.352 139.358 26.689 Q126.979 39.026 109.592 39.026 Z M10.292 -59.74 Q7.238 -59.74 5.191 -61.899 Q3.144 -64.057 3.144 -67.235 Q3.144 -84.537 15.481 -97.051 Q27.818 -109.566 45.473 -109.566 Q48.481 -109.566 50.605 -107.349 Q52.729 -105.132 52.729 -102.079 Q52.729 -99.027 50.697 -97.04 Q48.666 -95.054 45.634 -95.054 Q34.117 -95.054 25.968 -86.911 Q17.818 -78.767 17.818 -67.399 Q17.818 -64.029 15.596 -61.885 Q13.374 -59.74 10.292 -59.74 Z M122.228 -81.923 Q124.001 -80.095 123.921 -77.617 Q123.84 -75.139 122.228 -73.366 L86.027 -37.326 Q84.092 -35.633 81.576 -35.579 Q79.061 -35.526 77.36 -37.413 Q75.546 -39.201 75.546 -41.687 Q75.546 -44.174 77.451 -46.165 L113.413 -81.885 Q115.213 -83.766 117.8 -83.766 Q120.388 -83.766 122.228 -81.923 Z M134.644 -60.062 Q136.417 -58.217 136.417 -55.82 Q136.417 -53.424 134.629 -51.563 L103.119 -20.072 Q101.184 -18.137 98.766 -18.218 Q96.347 -18.299 94.452 -20.332 Q92.638 -22.239 92.719 -24.663 Q92.799 -27.087 94.727 -29.014 L125.921 -60.209 Q127.56 -61.836 130.156 -61.836 Q132.752 -61.836 134.644 -60.062 Z M27.413 15.241 Q11.852 -0.319 11.328 -22.411 Q10.804 -44.502 26.203 -59.901 L44.666 -78.364 Q46.887 -80.541 49.969 -80.541 Q53.051 -80.541 55.228 -78.364 L55.631 -77.961 Q58.363 -75.176 59.94 -71.489 Q61.517 -67.802 61.517 -64.497 L86.914 -89.894 Q88.731 -91.667 91.246 -91.667 Q93.762 -91.667 95.621 -90 Q97.395 -88.264 97.395 -85.622 Q97.395 -82.98 95.621 -81.106 L63.936 -49.581 L56.679 -42.002 L58.856 -39.906 Q65.709 -32.901 65.871 -23.06 Q66.032 -13.219 59.091 -6.118 L59.017 -5.963 Q57.123 -4.028 54.603 -4.109 Q52.084 -4.189 50.35 -5.948 Q48.456 -8.042 48.456 -10.529 Q48.456 -13.015 50.391 -14.751 L50.713 -15.074 Q54.099 -18.46 53.777 -23.177 Q53.454 -27.893 50.149 -31.199 L44.505 -37.004 Q42.167 -39.121 42.167 -42.223 Q42.167 -45.324 44.505 -47.485 L50.391 -53.371 Q52.89 -56.026 52.729 -59.778 Q52.568 -63.529 49.907 -66.271 L34.991 -51.194 Q22.978 -39.342 23.583 -22.451 Q24.188 -5.56 36.201 6.453 Q48.053 18.305 64.581 18.587 Q81.109 18.869 93.006 7.053 L131.131 -30.876 Q133.029 -32.731 135.514 -32.731 Q137.998 -32.731 139.804 -30.912 Q141.497 -29.062 141.497 -26.634 Q141.497 -24.206 139.881 -22.323 L101.91 15.644 Q86.511 31.044 64.782 30.963 Q43.054 30.883 27.413 15.241 Z"/></g><g id="Semibold-L" transform="matrix(1 0 0 1 1970.27 1556)"><path d="M109.863 36.993 Q107.23 36.993 105.422 35.214 Q103.614 33.436 103.614 30.923 Q103.614 28.377 105.361 26.54 Q107.109 24.702 109.85 24.702 Q121.369 24.702 129.436 16.671 Q137.504 8.639 137.504 -2.952 Q137.504 -5.519 139.249 -7.222 Q140.994 -8.925 143.46 -8.925 Q145.97 -8.925 147.837 -7.177 Q149.703 -5.429 149.703 -2.952 Q149.703 13.714 137.999 25.353 Q126.294 36.993 109.863 36.993 Z M11.215 -61.282 Q8.653 -61.282 6.915 -63.09 Q5.177 -64.899 5.177 -67.517 Q5.177 -83.929 16.837 -95.731 Q28.496 -107.533 45.122 -107.533 Q47.666 -107.533 49.461 -105.667 Q51.257 -103.8 51.257 -101.244 Q51.257 -98.688 49.554 -97.011 Q47.85 -95.334 45.283 -95.334 Q33.767 -95.334 25.617 -87.226 Q17.468 -79.118 17.468 -67.68 Q17.468 -64.87 15.637 -63.076 Q13.807 -61.282 11.215 -61.282 Z M121.246 -81.778 Q122.809 -80.155 122.764 -77.928 Q122.718 -75.7 121.246 -74.137 L83.503 -36.485 Q81.778 -34.932 79.543 -34.913 Q77.308 -34.895 75.747 -36.604 Q74.144 -38.197 74.144 -40.414 Q74.144 -42.632 75.816 -44.391 L113.413 -81.745 Q115.003 -83.416 117.31 -83.416 Q119.617 -83.416 121.246 -81.778 Z M133.592 -60.214 Q135.156 -58.59 135.156 -56.392 Q135.156 -54.195 133.577 -52.545 L100.455 -19.442 Q98.731 -17.717 96.557 -17.797 Q94.384 -17.878 92.7 -19.631 Q91.096 -21.332 91.141 -23.508 Q91.187 -25.685 92.904 -27.402 L125.781 -60.279 Q127.279 -61.766 129.595 -61.766 Q131.911 -61.766 133.592 -60.214 Z M29.165 12.998 Q14.095 -2.072 13.746 -23.392 Q13.398 -44.712 28.376 -59.691 L46.209 -77.523 Q48.047 -79.349 50.619 -79.349 Q53.192 -79.349 55.018 -77.523 L56.613 -75.928 Q58.969 -73.5 60.383 -70.301 Q61.797 -67.101 61.867 -64.287 L87.124 -89.613 Q88.731 -91.177 91.001 -91.177 Q93.271 -91.177 94.92 -89.67 Q96.484 -88.095 96.484 -85.74 Q96.484 -83.386 94.92 -81.737 L62.884 -49.792 L54.506 -41.231 L57.664 -38.083 Q64.377 -31.285 64.398 -21.761 Q64.42 -12.238 57.685 -5.342 L57.615 -5.192 Q55.913 -3.467 53.683 -3.548 Q51.453 -3.629 49.86 -5.209 Q48.175 -7.033 48.175 -9.251 Q48.175 -11.468 49.9 -13.069 L50.152 -13.321 Q53.749 -16.918 53.567 -21.88 Q53.384 -26.842 49.868 -30.358 L43.313 -37.004 Q41.396 -38.766 41.396 -41.379 Q41.396 -43.992 43.313 -45.803 L50.881 -53.3 Q53.451 -55.956 53.36 -59.813 Q53.269 -63.67 50.608 -66.411 L36.183 -51.895 Q24.31 -40.113 24.704 -23.432 Q25.099 -6.752 36.972 5.121 Q48.824 16.973 65.352 17.255 Q81.88 17.537 93.722 5.776 L131.481 -31.858 Q133.156 -33.502 135.401 -33.502 Q137.647 -33.502 139.278 -31.894 Q140.796 -30.253 140.796 -28.064 Q140.796 -25.875 139.32 -24.216 L101.63 13.471 Q86.651 28.45 65.483 28.299 Q44.316 28.149 29.165 12.998 Z"/></g><g id="Medium-L" transform="matrix(1 0 0 1 1674.31 1556)"><path d="M110.066 35.468 Q107.861 35.468 106.316 33.934 Q104.77 32.401 104.77 30.235 Q104.77 28.055 106.255 26.51 Q107.74 24.965 110.06 24.965 Q121.632 24.965 129.673 16.934 Q137.714 8.902 137.714 -2.689 Q137.714 -4.907 139.215 -6.364 Q140.715 -7.821 142.833 -7.821 Q144.971 -7.821 146.574 -6.319 Q148.178 -4.817 148.178 -2.689 Q148.178 13.235 136.979 24.351 Q125.78 35.468 110.066 35.468 Z M11.908 -62.439 Q9.713 -62.439 8.208 -63.984 Q6.702 -65.53 6.702 -67.728 Q6.702 -83.473 17.853 -94.74 Q29.005 -106.008 44.859 -106.008 Q47.054 -106.008 48.603 -104.404 Q50.152 -102.801 50.152 -100.618 Q50.152 -98.434 48.695 -96.989 Q47.239 -95.544 45.02 -95.544 Q33.504 -95.544 25.354 -87.463 Q17.205 -79.381 17.205 -67.89 Q17.205 -65.501 15.668 -63.97 Q14.131 -62.439 11.908 -62.439 Z M120.51 -81.669 Q121.915 -80.2 121.896 -78.161 Q121.877 -76.121 120.51 -74.715 L81.61 -35.854 Q80.043 -34.406 78.018 -34.414 Q75.994 -34.421 74.538 -35.997 Q73.092 -37.443 73.092 -39.459 Q73.092 -41.475 74.59 -43.059 L113.413 -81.64 Q114.845 -83.153 116.942 -83.153 Q119.038 -83.153 120.51 -81.669 Z M132.803 -60.327 Q134.209 -58.869 134.209 -56.821 Q134.209 -54.773 132.789 -53.281 L98.457 -18.968 Q96.89 -17.401 94.901 -17.482 Q92.912 -17.563 91.385 -19.105 Q89.939 -20.652 89.958 -22.643 Q89.978 -24.633 91.537 -26.193 L125.676 -60.331 Q127.069 -61.714 129.174 -61.714 Q131.279 -61.714 132.803 -60.327 Z M30.48 11.315 Q15.778 -3.387 15.561 -24.128 Q15.343 -44.87 30.007 -59.533 L47.365 -76.892 Q48.917 -78.455 51.107 -78.455 Q53.297 -78.455 54.86 -76.892 L57.349 -74.403 Q59.424 -72.243 60.716 -69.409 Q62.008 -66.576 62.13 -64.129 L87.282 -89.403 Q88.731 -90.809 90.817 -90.809 Q92.903 -90.809 94.394 -89.422 Q95.8 -87.967 95.8 -85.829 Q95.8 -83.691 94.394 -82.21 L62.095 -49.949 L52.876 -40.653 L56.77 -36.716 Q63.378 -30.072 63.294 -20.787 Q63.21 -11.502 56.63 -4.76 L56.564 -4.613 Q55.006 -3.047 52.993 -3.127 Q50.98 -3.208 49.491 -4.655 Q47.965 -6.276 47.965 -8.292 Q47.965 -10.308 49.532 -11.807 L49.732 -12.006 Q53.486 -15.761 53.409 -20.907 Q53.332 -26.053 49.658 -29.727 L42.419 -37.004 Q40.817 -38.5 40.817 -40.747 Q40.817 -42.993 42.419 -44.54 L51.249 -53.248 Q53.872 -55.903 53.833 -59.839 Q53.794 -63.775 51.134 -66.516 L37.077 -52.421 Q25.309 -40.692 25.546 -24.169 Q25.782 -7.646 37.55 4.122 Q49.402 15.974 65.93 16.256 Q82.458 16.538 94.26 4.818 L131.744 -32.594 Q133.25 -34.08 135.317 -34.08 Q137.384 -34.08 138.884 -32.63 Q140.27 -31.147 140.27 -29.137 Q140.27 -27.126 138.899 -25.636 L101.419 11.841 Q86.756 26.504 66.009 26.301 Q45.262 26.098 30.48 11.315 Z"/></g><g id="Regular-L" transform="matrix(1 0 0 1 1378.56 1556)"><path d="M110.214 34.349 Q108.324 34.349 106.971 32.995 Q105.619 31.642 105.619 29.73 Q105.619 27.819 106.911 26.488 Q108.203 25.158 110.214 25.158 Q121.824 25.158 129.847 17.126 Q137.869 9.095 137.869 -2.496 Q137.869 -4.459 139.189 -5.735 Q140.51 -7.011 142.374 -7.011 Q144.238 -7.011 145.649 -5.69 Q147.06 -4.368 147.06 -2.496 Q147.06 12.883 136.231 23.616 Q125.403 34.349 110.214 34.349 Z M12.416 -63.287 Q10.491 -63.287 9.156 -64.64 Q7.821 -65.992 7.821 -67.883 Q7.821 -83.138 18.599 -94.014 Q29.378 -104.89 44.666 -104.89 Q46.605 -104.89 47.974 -103.479 Q49.343 -102.068 49.343 -100.158 Q49.343 -98.248 48.066 -96.973 Q46.79 -95.699 44.828 -95.699 Q33.311 -95.699 25.162 -87.636 Q17.012 -79.574 17.012 -68.044 Q17.012 -65.964 15.691 -64.626 Q14.369 -63.287 12.416 -63.287 Z M119.97 -81.589 Q121.26 -80.233 121.26 -78.331 Q121.26 -76.429 119.97 -75.139 L80.222 -35.391 Q78.771 -34.021 76.9 -34.048 Q75.03 -34.074 73.651 -35.552 Q72.321 -36.891 72.321 -38.759 Q72.321 -40.627 73.691 -42.083 L113.413 -81.563 Q114.729 -82.96 116.672 -82.96 Q118.614 -82.96 119.97 -81.589 Z M132.225 -60.41 Q133.515 -59.074 133.515 -57.136 Q133.515 -55.198 132.21 -53.821 L96.992 -18.621 Q95.541 -17.17 93.686 -17.251 Q91.832 -17.331 90.421 -18.719 Q89.091 -20.153 89.091 -22.007 Q89.091 -23.862 90.534 -25.306 L125.599 -60.37 Q126.915 -61.675 128.866 -61.675 Q130.817 -61.675 132.225 -60.41 Z M31.444 10.081 Q17.012 -4.351 16.891 -24.668 Q16.77 -44.986 31.202 -59.417 L48.214 -76.429 Q49.555 -77.8 51.464 -77.8 Q53.374 -77.8 54.744 -76.429 L57.889 -73.285 Q59.757 -71.321 60.96 -68.755 Q62.162 -66.19 62.323 -64.013 L87.398 -89.249 Q88.731 -90.539 90.682 -90.539 Q92.633 -90.539 94.009 -89.24 Q95.299 -87.874 95.299 -85.894 Q95.299 -83.915 94.009 -82.557 L61.517 -50.065 L51.681 -40.229 L56.115 -35.714 Q62.646 -29.183 62.484 -20.072 Q62.323 -10.962 55.856 -4.334 L55.793 -4.189 Q54.341 -2.738 52.487 -2.819 Q50.633 -2.899 49.222 -4.249 Q47.811 -5.721 47.811 -7.589 Q47.811 -9.457 49.262 -10.881 L49.423 -11.042 Q53.293 -14.912 53.293 -20.193 Q53.293 -25.474 49.504 -29.264 L41.764 -37.004 Q40.393 -38.305 40.393 -40.282 Q40.393 -42.26 41.764 -43.615 L51.519 -53.209 Q54.18 -55.865 54.18 -59.858 Q54.18 -63.852 51.519 -66.593 L37.733 -52.806 Q26.042 -41.116 26.163 -24.708 Q26.284 -8.301 37.974 3.389 Q49.826 15.241 66.354 15.523 Q82.883 15.806 94.654 4.115 L131.937 -33.134 Q133.32 -34.504 135.256 -34.504 Q137.191 -34.504 138.594 -33.17 Q139.884 -31.803 139.884 -29.923 Q139.884 -28.044 138.591 -26.677 L101.265 10.646 Q86.833 25.078 66.395 24.836 Q45.956 24.594 31.444 10.081 Z"/></g><g id="Light-L" transform="matrix(1 0 0 1 1082.77 1556)"><path d="M107.858 30.876 Q106.316 30.876 105.3 29.87 Q104.285 28.864 104.285 27.365 Q104.285 25.896 105.272 24.876 Q106.258 23.856 107.858 23.856 Q119.809 23.825 128.172 15.467 Q136.535 7.11 136.597 -4.884 Q136.597 -6.415 137.587 -7.395 Q138.576 -8.376 140.012 -8.376 Q141.416 -8.376 142.517 -7.371 Q143.618 -6.367 143.618 -4.884 Q143.618 10.03 133.124 20.453 Q122.631 30.876 107.858 30.876 Z M14.802 -62.016 Q13.251 -62.016 12.273 -63.013 Q11.294 -64.011 11.294 -65.526 Q11.294 -80.285 21.759 -90.866 Q32.224 -101.448 47.054 -101.448 Q48.535 -101.448 49.59 -100.359 Q50.645 -99.271 50.645 -97.798 Q50.645 -96.325 49.665 -95.376 Q48.684 -94.427 47.153 -94.427 Q35.203 -94.365 26.774 -85.977 Q18.345 -77.589 18.314 -65.688 Q18.314 -64.046 17.3 -63.031 Q16.286 -62.016 14.802 -62.016 Z M118.078 -79.317 Q119.058 -78.262 119.058 -76.818 Q119.058 -75.375 118.078 -74.395 L78.981 -35.267 Q77.902 -34.269 76.463 -34.296 Q75.023 -34.322 73.992 -35.428 Q72.941 -36.333 72.972 -37.8 Q73.003 -39.268 74.001 -40.409 L113.041 -79.299 Q114.058 -80.386 115.53 -80.386 Q117.001 -80.386 118.078 -79.317 Z M129.589 -58.891 Q130.569 -57.809 130.569 -56.333 Q130.569 -54.857 129.574 -53.79 L95.007 -19.303 Q93.928 -18.255 92.461 -18.274 Q90.995 -18.293 89.956 -19.367 Q88.967 -20.401 89.013 -21.856 Q89.06 -23.31 90.162 -24.437 L124.575 -58.851 Q125.519 -59.783 127.02 -59.783 Q128.522 -59.783 129.589 -58.891 Z M33.49 8.065 Q19.865 -5.529 19.837 -24.715 Q19.809 -43.9 33.466 -57.557 L49.764 -73.855 Q51.055 -75.164 52.943 -75.164 Q54.831 -75.164 56.14 -73.855 L58.726 -71.3 Q60.719 -69.181 61.905 -66.507 Q63.092 -63.833 63.129 -61.439 L87.801 -86.241 Q88.762 -87.158 90.25 -87.158 Q91.74 -87.158 92.861 -86.232 Q93.779 -85.12 93.779 -83.603 Q93.779 -82.085 92.861 -81.099 L61.486 -49.755 L52.363 -40.57 L56.425 -36.334 Q62.553 -30.207 62.484 -21.546 Q62.416 -12.885 56.292 -6.599 L55.013 -5.271 Q53.938 -4.227 52.484 -4.276 Q51.029 -4.326 49.966 -5.334 Q48.958 -6.459 48.958 -7.896 Q48.958 -9.333 50.006 -10.416 L51.408 -11.818 Q55.495 -15.905 55.464 -21.605 Q55.433 -27.304 51.364 -31.466 L45.423 -37.407 Q44.083 -38.658 44.083 -40.599 Q44.083 -42.54 45.404 -43.841 L54 -52.217 Q56.754 -55.027 56.754 -59.13 Q56.754 -63.232 54 -66.159 L53.07 -67.089 L38.477 -52.558 Q26.879 -41.004 26.892 -24.808 Q26.904 -8.611 38.44 2.955 Q50.167 14.714 66.478 14.919 Q82.789 15.123 94.499 3.495 L130.2 -32.203 Q131.211 -33.202 132.685 -33.202 Q134.159 -33.202 135.307 -32.239 Q136.225 -31.158 136.225 -29.725 Q136.225 -28.292 135.303 -27.235 L99.471 8.441 Q85.872 22.1 66.55 21.936 Q47.228 21.772 33.49 8.065 Z"/></g><g id="Thin-L" transform="matrix(1 0 0 1 787.282 1556)"><path d="M105.501 27.403 Q104.308 27.403 103.63 26.745 Q102.952 26.088 102.952 25 Q102.952 23.974 103.633 23.263 Q104.314 22.553 105.501 22.553 Q117.793 22.491 126.498 13.808 Q135.202 5.125 135.326 -7.272 Q135.326 -8.37 135.985 -9.055 Q136.643 -9.74 137.65 -9.74 Q138.594 -9.74 139.385 -9.052 Q140.176 -8.365 140.176 -7.272 Q140.176 7.178 130.018 17.29 Q119.861 27.403 105.501 27.403 Z M17.187 -60.745 Q16.011 -60.745 15.389 -61.387 Q14.767 -62.029 14.767 -63.17 Q14.767 -77.433 24.918 -87.719 Q35.069 -98.006 49.442 -98.006 Q50.465 -98.006 51.206 -97.24 Q51.947 -96.473 51.947 -95.438 Q51.947 -94.403 51.263 -93.78 Q50.578 -93.156 49.479 -93.156 Q37.094 -93.032 28.386 -84.318 Q19.679 -75.605 19.617 -63.331 Q19.617 -62.128 18.91 -61.437 Q18.203 -60.745 17.187 -60.745 Z M116.187 -77.044 Q116.857 -76.291 116.857 -75.306 Q116.857 -74.321 116.187 -73.651 L77.741 -35.143 Q77.034 -34.517 76.026 -34.544 Q75.017 -34.57 74.333 -35.304 Q73.561 -35.775 73.623 -36.842 Q73.685 -37.91 74.311 -38.734 L112.668 -77.035 Q113.387 -77.812 114.388 -77.812 Q115.389 -77.812 116.187 -77.044 Z M126.953 -57.372 Q127.623 -56.544 127.623 -55.53 Q127.623 -54.515 126.938 -53.759 L93.023 -19.986 Q92.316 -19.341 91.237 -19.297 Q90.157 -19.254 89.491 -20.014 Q88.843 -20.649 88.936 -21.704 Q89.029 -22.758 89.79 -23.569 L123.552 -57.331 Q124.124 -57.892 125.175 -57.892 Q126.227 -57.892 126.953 -57.372 Z M35.537 6.05 Q22.718 -6.707 22.783 -24.761 Q22.848 -42.815 35.729 -55.696 L51.315 -71.282 Q52.554 -72.528 54.422 -72.528 Q56.289 -72.528 57.535 -71.282 L59.563 -69.316 Q61.68 -67.041 62.851 -64.259 Q64.022 -61.477 63.936 -58.866 L88.204 -83.233 Q88.792 -83.779 89.82 -83.779 Q90.847 -83.779 91.714 -83.224 Q92.26 -82.367 92.26 -81.311 Q92.26 -80.256 91.714 -79.642 L61.455 -49.445 L53.045 -40.911 L56.735 -36.954 Q62.46 -31.23 62.484 -23.018 Q62.509 -14.807 56.727 -8.863 L54.234 -6.352 Q53.535 -5.715 52.481 -5.734 Q51.426 -5.752 50.71 -6.42 Q50.105 -7.197 50.105 -8.203 Q50.105 -9.209 50.75 -9.951 L53.392 -12.593 Q57.697 -16.897 57.634 -23.015 Q57.572 -29.133 53.225 -33.667 L49.082 -37.81 Q47.773 -39.011 47.773 -40.915 Q47.773 -42.819 49.044 -44.067 L56.481 -51.225 Q59.328 -54.19 59.328 -58.401 Q59.328 -62.612 56.481 -65.725 L54.62 -67.585 L39.221 -52.31 Q27.716 -40.893 27.62 -24.907 Q27.524 -8.921 38.905 2.521 Q50.508 14.187 66.602 14.314 Q82.696 14.441 94.344 2.875 L128.464 -31.273 Q129.102 -31.9 130.114 -31.9 Q131.126 -31.9 132.02 -31.309 Q132.566 -30.513 132.566 -29.526 Q132.566 -28.54 132.017 -27.793 L97.678 6.237 Q84.911 19.124 66.705 19.037 Q48.499 18.95 35.537 6.05 Z"/></g><g id="Ultralight-L" transform="matrix(1 0 0 1 491.205 1556)"><path d="M104.087 25.319 Q103.103 25.319 102.628 24.87 Q102.152 24.421 102.152 23.58 Q102.152 22.82 102.65 22.296 Q103.148 21.772 104.087 21.772 Q116.584 21.691 125.493 12.813 Q134.402 3.935 134.563 -8.704 Q134.563 -9.544 135.023 -10.051 Q135.483 -10.559 136.233 -10.559 Q136.901 -10.559 137.506 -10.061 Q138.111 -9.564 138.111 -8.704 Q138.111 5.466 128.154 15.393 Q118.198 25.319 104.087 25.319 Z M18.619 -59.982 Q17.667 -59.982 17.259 -60.411 Q16.851 -60.841 16.851 -61.756 Q16.851 -75.721 26.813 -85.831 Q36.776 -95.941 50.874 -95.941 Q51.624 -95.941 52.176 -95.368 Q52.729 -94.795 52.729 -94.022 Q52.729 -93.249 52.221 -92.821 Q51.714 -92.393 50.874 -92.393 Q38.229 -92.232 29.354 -83.323 Q20.479 -74.414 20.398 -61.917 Q20.398 -60.978 19.876 -60.48 Q19.353 -59.982 18.619 -59.982 Z M115.052 -75.681 Q115.536 -75.108 115.536 -74.398 Q115.536 -73.688 115.052 -73.204 L76.997 -35.069 Q76.513 -34.666 75.763 -34.693 Q75.013 -34.719 74.538 -35.23 Q73.933 -35.44 74.014 -36.267 Q74.094 -37.095 74.498 -37.729 L112.445 -75.677 Q112.985 -76.268 113.703 -76.268 Q114.422 -76.268 115.052 -75.681 Z M125.372 -56.46 Q125.856 -55.785 125.856 -55.048 Q125.856 -54.311 125.357 -53.74 L91.832 -20.395 Q91.348 -19.992 90.502 -19.911 Q89.655 -19.831 89.212 -20.402 Q88.768 -20.798 88.889 -21.612 Q89.01 -22.427 89.567 -23.048 L122.938 -56.42 Q123.286 -56.757 124.068 -56.757 Q124.851 -56.757 125.372 -56.46 Z M36.765 4.841 Q24.429 -7.414 24.55 -24.789 Q24.671 -42.164 37.087 -54.58 L52.245 -69.737 Q53.454 -70.947 55.309 -70.947 Q57.163 -70.947 58.373 -69.737 L60.066 -68.125 Q62.257 -65.758 63.419 -62.91 Q64.581 -60.062 64.419 -57.321 L88.446 -81.428 Q88.811 -81.751 89.561 -81.751 Q90.311 -81.751 91.026 -81.42 Q91.348 -80.714 91.348 -79.936 Q91.348 -79.158 91.026 -78.767 L61.436 -49.259 L53.454 -41.116 L56.921 -37.326 Q62.404 -31.844 62.484 -23.902 Q62.565 -15.961 56.988 -10.222 L53.766 -7 Q53.293 -6.608 52.479 -6.608 Q51.664 -6.608 51.157 -7.071 Q50.794 -7.64 50.794 -8.387 Q50.794 -9.134 51.197 -9.672 L54.583 -13.058 Q59.017 -17.492 58.937 -23.862 Q58.856 -30.231 54.341 -34.988 L51.278 -38.052 Q49.988 -39.224 49.988 -41.105 Q49.988 -42.986 51.228 -44.203 L57.969 -50.629 Q60.872 -53.688 60.872 -57.964 Q60.872 -62.239 57.969 -65.464 L55.551 -67.883 L39.668 -52.161 Q28.219 -40.826 28.058 -24.967 Q27.896 -9.107 39.184 2.261 Q50.713 13.871 66.677 13.951 Q82.641 14.032 94.251 2.503 L127.422 -30.715 Q127.837 -31.118 128.572 -31.118 Q129.306 -31.118 130.048 -30.751 Q130.371 -30.126 130.371 -29.407 Q130.371 -28.689 130.044 -28.128 L96.601 4.915 Q84.334 17.338 66.798 17.297 Q49.262 17.257 36.765 4.841 Z"/></g><g id="Bold-M" transform="matrix(1 0 0 1 2281.8 1126)"><path d="M82.562 22.708 Q79.472 22.708 77.267 20.5 Q75.062 18.292 75.062 15.218 Q75.062 12.145 77.267 9.926 Q79.472 7.708 82.562 7.708 Q91 7.708 96.969 1.739 Q102.938 -4.23 102.938 -12.667 Q102.938 -15.751 105.145 -17.928 Q107.353 -20.105 110.427 -20.105 Q113.5 -20.105 115.719 -17.928 Q117.938 -15.751 117.938 -12.667 Q117.938 2.011 107.589 12.359 Q97.241 22.708 82.562 22.708 Z M9.552 -50.292 Q6.479 -50.292 4.271 -52.497 Q2.062 -54.702 2.062 -57.792 Q2.062 -72.471 12.411 -82.819 Q22.759 -93.167 37.438 -93.167 Q40.521 -93.167 42.698 -90.917 Q44.875 -88.667 44.875 -85.59 Q44.875 -82.512 42.698 -80.34 Q40.521 -78.167 37.438 -78.167 Q29 -78.167 23.031 -72.199 Q17.062 -66.23 17.062 -57.792 Q17.062 -54.702 14.858 -52.497 Q12.653 -50.292 9.552 -50.292 Z M96.438 -72.105 Q98.312 -70.23 98.25 -67.699 Q98.188 -65.167 96.312 -63.292 L70.438 -37.48 Q68.562 -35.667 65.969 -35.636 Q63.375 -35.605 61.562 -37.422 Q59.812 -39.342 59.812 -41.911 Q59.812 -44.48 61.625 -46.292 L87.417 -72.084 Q89.324 -73.98 91.943 -73.98 Q94.562 -73.98 96.438 -72.105 Z M105.438 -55.542 Q107.312 -53.667 107.312 -51.199 Q107.312 -48.73 105.426 -46.843 L83.188 -24.605 Q81.188 -22.605 78.719 -22.667 Q76.25 -22.73 74.312 -24.73 Q72.562 -26.667 72.594 -29.199 Q72.625 -31.73 74.438 -33.542 L96.551 -55.656 Q98.438 -57.542 100.987 -57.48 Q103.537 -57.417 105.438 -55.542 Z M22.25 3.77 Q9.875 -8.605 9.375 -25.98 Q8.875 -43.355 21.125 -55.605 L35.125 -69.73 Q37.46 -72.042 40.574 -72.042 Q43.688 -72.042 46 -69.73 L46.562 -69.105 Q48.261 -67.395 49.287 -65.375 Q50.312 -63.355 50.688 -61.105 L67.688 -77.917 Q69.588 -79.792 72.075 -79.855 Q74.562 -79.917 76.438 -78.069 Q78.312 -76.22 78.312 -73.6 Q78.312 -70.98 76.438 -69.105 L56.125 -48.855 L49.062 -41.667 L49.5 -41.23 Q55.438 -35.292 55.531 -27.042 Q55.625 -18.792 49.82 -12.863 L49.812 -12.73 Q47.969 -10.855 45.359 -10.855 Q42.75 -10.855 40.938 -12.642 Q39.125 -14.592 39.125 -17.161 Q39.125 -19.73 40.938 -21.542 L41.062 -21.667 Q43.25 -23.855 43.094 -27.042 Q42.938 -30.23 40.75 -32.417 L36.75 -36.417 Q34.5 -38.626 34.5 -41.74 Q34.5 -44.855 36.75 -47.105 L40.938 -51.292 Q42.188 -52.567 42 -54.367 Q41.812 -56.167 40.562 -57.417 L30 -46.855 Q21.5 -38.355 22 -26.042 Q22.5 -13.73 31.125 -5.105 Q39.625 3.395 51.406 3.395 Q63.188 3.395 71.688 -5.105 L99.932 -33.23 Q101.812 -35.105 104.3 -35.105 Q106.787 -35.105 108.688 -33.23 Q110.562 -31.33 110.562 -28.842 Q110.562 -26.355 108.684 -24.474 L80.5 3.77 Q68.25 16.02 51.375 16.02 Q34.5 16.02 22.25 3.77 Z"/></g><g id="Semibold-M" transform="matrix(1 0 0 1 1985.97 1126)"><path d="M82.889 20.588 Q80.287 20.588 78.463 18.729 Q76.638 16.869 76.638 14.29 Q76.638 11.71 78.463 9.872 Q80.287 8.034 82.889 8.034 Q91.326 8.034 97.295 2.065 Q103.264 -3.904 103.264 -12.341 Q103.264 -14.929 105.123 -16.756 Q106.982 -18.583 109.562 -18.583 Q112.141 -18.583 113.98 -16.756 Q115.818 -14.929 115.818 -12.341 Q115.818 1.322 106.185 10.955 Q96.552 20.588 82.889 20.588 Z M10.48 -51.868 Q7.901 -51.868 6.041 -53.693 Q4.182 -55.517 4.182 -58.119 Q4.182 -71.782 13.815 -81.415 Q23.448 -91.048 37.111 -91.048 Q39.7 -91.048 41.526 -89.178 Q43.353 -87.309 43.353 -84.725 Q43.353 -82.141 41.526 -80.317 Q39.7 -78.494 37.111 -78.494 Q28.674 -78.494 22.705 -72.525 Q16.736 -66.556 16.736 -58.119 Q16.736 -55.517 14.912 -53.693 Q13.088 -51.868 10.48 -51.868 Z M95.405 -71.942 Q97.063 -70.284 97.027 -68.025 Q96.992 -65.765 95.334 -64.108 L67.829 -36.61 Q66.171 -34.961 63.877 -34.957 Q61.582 -34.953 59.932 -36.578 Q58.345 -38.288 58.345 -40.569 Q58.345 -42.85 59.995 -44.499 L87.417 -71.921 Q89.102 -73.6 91.424 -73.6 Q93.747 -73.6 95.405 -71.942 Z M104.351 -55.705 Q106.008 -54.048 106.008 -51.796 Q106.008 -49.545 104.339 -47.876 L80.416 -23.953 Q78.688 -22.225 76.463 -22.26 Q74.239 -22.295 72.519 -24.023 Q70.932 -25.744 70.936 -28.003 Q70.94 -30.263 72.59 -31.912 L96.442 -55.765 Q98.111 -57.434 100.39 -57.398 Q102.668 -57.363 104.351 -55.705 Z M24.043 1.433 Q12.212 -10.398 11.902 -27.012 Q11.592 -43.627 23.353 -55.388 L36.755 -68.86 Q38.69 -70.793 41.27 -70.793 Q43.85 -70.793 45.783 -68.86 L47.595 -66.986 Q48.913 -65.656 49.749 -64.125 Q50.584 -62.594 51.068 -60.888 L67.905 -77.646 Q69.588 -79.303 71.831 -79.339 Q74.073 -79.374 75.731 -77.731 Q77.389 -76.088 77.389 -73.752 Q77.389 -71.415 75.731 -69.757 L55.038 -49.072 L46.834 -40.852 L48.304 -39.382 Q54.025 -33.662 54.01 -25.738 Q53.995 -17.814 48.35 -12.044 L48.345 -11.915 Q46.705 -10.257 44.401 -10.257 Q42.098 -10.257 40.448 -11.852 Q38.799 -13.592 38.799 -15.873 Q38.799 -18.154 40.448 -19.803 L40.519 -19.874 Q42.924 -22.279 42.904 -25.711 Q42.883 -29.143 40.478 -31.548 L35.554 -36.417 Q33.685 -38.263 33.685 -40.88 Q33.685 -43.496 35.554 -45.366 L41.481 -51.238 Q42.785 -52.567 42.679 -54.422 Q42.573 -56.276 41.269 -57.58 L31.25 -47.561 Q22.804 -39.116 23.114 -27.048 Q23.424 -14.98 31.94 -6.464 Q40.386 1.982 52.167 2.009 Q63.948 2.036 72.394 -6.409 L100.312 -34.262 Q101.975 -35.92 104.219 -35.92 Q106.461 -35.92 108.144 -34.262 Q109.802 -32.58 109.802 -30.337 Q109.802 -28.094 108.141 -26.431 L80.228 1.488 Q68.467 13.249 52.136 13.221 Q35.804 13.194 24.043 1.433 Z"/></g><g id="Medium-M" transform="matrix(1 0 0 1 1689.91 1126)"><path d="M83.133 18.998 Q80.898 18.998 79.36 17.4 Q77.821 15.802 77.821 13.593 Q77.821 11.384 79.36 9.831 Q80.898 8.278 83.133 8.278 Q91.571 8.278 97.539 2.309 Q103.508 -3.659 103.508 -12.097 Q103.508 -14.313 105.106 -15.877 Q106.704 -17.442 108.913 -17.442 Q111.122 -17.442 112.675 -15.877 Q114.228 -14.313 114.228 -12.097 Q114.228 0.806 105.132 9.902 Q96.036 18.998 83.133 18.998 Z M11.177 -53.051 Q8.968 -53.051 7.37 -54.59 Q5.772 -56.128 5.772 -58.363 Q5.772 -71.266 14.868 -80.362 Q23.964 -89.458 36.867 -89.458 Q39.083 -89.458 40.648 -87.874 Q42.212 -86.29 42.212 -84.076 Q42.212 -81.863 40.648 -80.3 Q39.083 -78.738 36.867 -78.738 Q28.429 -78.738 22.461 -72.769 Q16.492 -66.801 16.492 -58.363 Q16.492 -56.128 14.953 -54.59 Q13.414 -53.051 11.177 -53.051 Z M94.63 -71.82 Q96.125 -70.325 96.11 -68.269 Q96.095 -66.214 94.6 -64.719 L65.872 -35.958 Q64.378 -34.431 62.307 -34.447 Q60.236 -34.464 58.709 -35.944 Q57.245 -37.497 57.245 -39.562 Q57.245 -41.627 58.772 -43.154 L87.417 -71.799 Q88.935 -73.314 91.035 -73.314 Q93.136 -73.314 94.63 -71.82 Z M103.535 -55.828 Q105.03 -54.333 105.03 -52.245 Q105.03 -50.157 103.524 -48.65 L78.337 -23.464 Q76.812 -21.939 74.772 -21.954 Q72.731 -21.969 71.174 -23.494 Q69.709 -25.051 69.693 -27.106 Q69.677 -29.162 71.204 -30.689 L96.361 -55.846 Q97.867 -57.352 99.941 -57.337 Q102.016 -57.322 103.535 -55.828 Z M25.389 -0.32 Q13.965 -11.744 13.797 -27.787 Q13.63 -43.83 25.024 -55.225 L37.978 -68.208 Q39.613 -69.855 41.793 -69.855 Q43.973 -69.855 45.62 -68.208 L48.37 -65.396 Q49.402 -64.351 50.095 -63.187 Q50.788 -62.023 51.353 -60.725 L68.068 -77.442 Q69.588 -78.936 71.647 -78.951 Q73.707 -78.966 75.201 -77.478 Q76.696 -75.99 76.696 -73.865 Q76.696 -71.741 75.201 -70.246 L54.223 -49.235 L45.163 -40.241 L47.408 -37.996 Q52.965 -32.439 52.868 -24.76 Q52.772 -17.08 47.246 -11.43 L47.245 -11.303 Q45.758 -9.809 43.683 -9.809 Q41.609 -9.809 40.081 -11.26 Q38.554 -12.842 38.554 -14.907 Q38.554 -16.972 40.081 -18.499 L40.111 -18.529 Q42.679 -21.097 42.761 -24.712 Q42.842 -28.328 40.275 -30.896 L34.658 -36.417 Q33.073 -37.992 33.073 -40.234 Q33.073 -42.477 34.658 -44.061 L41.889 -51.197 Q43.234 -52.567 43.189 -54.463 Q43.144 -56.358 41.799 -57.703 L32.188 -48.091 Q23.783 -39.686 23.95 -27.802 Q24.117 -15.917 32.552 -7.483 Q40.956 0.922 52.738 0.97 Q64.519 1.017 72.924 -7.388 L100.598 -35.037 Q102.098 -36.532 104.157 -36.532 Q106.217 -36.532 107.736 -35.037 Q109.231 -33.517 109.231 -31.458 Q109.231 -29.398 107.734 -27.898 L80.025 -0.224 Q68.63 11.17 52.706 11.122 Q36.783 11.074 25.389 -0.32 Z"/></g><g id="Regular-M" transform="matrix(1 0 0 1 1394.06 1126)"><path d="M83.312 17.833 Q81.347 17.833 80.017 16.426 Q78.688 15.02 78.688 13.083 Q78.688 11.145 80.017 9.801 Q81.347 8.458 83.312 8.458 Q91.75 8.458 97.719 2.489 Q103.688 -3.48 103.688 -11.917 Q103.688 -13.861 105.094 -15.233 Q106.5 -16.605 108.438 -16.605 Q110.375 -16.605 111.719 -15.233 Q113.062 -13.861 113.062 -11.917 Q113.062 0.427 104.36 9.13 Q95.657 17.833 83.312 17.833 Z M11.688 -53.917 Q9.75 -53.917 8.344 -55.247 Q6.938 -56.577 6.938 -58.542 Q6.938 -70.887 15.64 -79.59 Q24.343 -88.292 36.688 -88.292 Q38.631 -88.292 40.003 -86.917 Q41.375 -85.542 41.375 -83.601 Q41.375 -81.659 40.003 -80.288 Q38.631 -78.917 36.688 -78.917 Q28.25 -78.917 22.281 -72.949 Q16.312 -66.98 16.312 -58.542 Q16.312 -56.577 14.983 -55.247 Q13.653 -53.917 11.688 -53.917 Z M94.062 -71.73 Q95.438 -70.355 95.438 -68.449 Q95.438 -66.542 94.062 -65.167 L64.438 -35.48 Q63.062 -34.042 61.156 -34.074 Q59.25 -34.105 57.812 -35.48 Q56.438 -36.917 56.438 -38.824 Q56.438 -40.73 57.875 -42.167 L87.417 -71.709 Q88.812 -73.105 90.75 -73.105 Q92.688 -73.105 94.062 -71.73 Z M102.938 -55.917 Q104.312 -54.542 104.312 -52.574 Q104.312 -50.605 102.926 -49.218 L76.812 -23.105 Q75.438 -21.73 73.531 -21.73 Q71.625 -21.73 70.188 -23.105 Q68.812 -24.542 68.781 -26.449 Q68.75 -28.355 70.188 -29.792 L96.301 -55.906 Q97.688 -57.292 99.612 -57.292 Q101.537 -57.292 102.938 -55.917 Z M26.375 -1.605 Q15.25 -12.73 15.188 -28.355 Q15.125 -43.98 26.25 -55.105 L38.875 -67.73 Q40.29 -69.167 42.176 -69.167 Q44.062 -69.167 45.5 -67.73 L48.938 -64.23 Q49.761 -63.395 50.349 -62.5 Q50.938 -61.605 51.562 -60.605 L68.188 -77.292 Q69.588 -78.667 71.513 -78.667 Q73.438 -78.667 74.812 -77.292 Q76.188 -75.917 76.188 -73.949 Q76.188 -71.98 74.812 -70.605 L53.625 -49.355 L43.938 -39.792 L46.75 -36.98 Q52.188 -31.542 52.031 -24.042 Q51.875 -16.542 46.438 -10.98 V-10.855 Q45.062 -9.48 43.156 -9.48 Q41.25 -9.48 39.812 -10.825 Q38.375 -12.292 38.375 -14.199 Q38.375 -16.105 39.812 -17.542 Q42.5 -20.23 42.656 -23.98 Q42.812 -27.73 40.125 -30.417 L34 -36.417 Q32.625 -37.792 32.625 -39.761 Q32.625 -41.73 34 -43.105 L42.188 -51.167 Q43.562 -52.567 43.562 -54.492 Q43.562 -56.417 42.188 -57.792 L32.875 -48.48 Q24.5 -40.105 24.562 -28.355 Q24.625 -16.605 33 -8.23 Q41.375 0.145 53.156 0.208 Q64.938 0.27 73.312 -8.105 L100.807 -35.605 Q102.188 -36.98 104.112 -36.98 Q106.037 -36.98 107.438 -35.605 Q108.812 -34.205 108.812 -32.28 Q108.812 -30.355 107.434 -28.974 L79.875 -1.48 Q68.75 9.645 53.125 9.583 Q37.5 9.52 26.375 -1.605 Z"/></g><g id="Light-M" transform="matrix(1 0 0 1 1098.18 1126)"><path d="M81.822 15.092 Q80.319 15.092 79.323 14.052 Q78.327 13.011 78.327 11.561 Q78.327 10.135 79.323 9.128 Q80.319 8.121 81.822 8.121 Q90.764 8.097 97.046 1.804 Q103.327 -4.49 103.375 -13.432 Q103.375 -14.881 104.415 -15.911 Q105.456 -16.942 106.906 -16.942 Q108.332 -16.942 109.339 -15.911 Q110.346 -14.881 110.346 -13.432 Q110.346 -1.544 102.016 6.774 Q93.686 15.092 81.822 15.092 Z M13.2 -53.557 Q11.745 -53.557 10.712 -54.539 Q9.678 -55.521 9.678 -57.004 Q9.678 -68.867 18.025 -77.222 Q26.372 -85.576 38.202 -85.576 Q39.651 -85.576 40.681 -84.548 Q41.712 -83.52 41.712 -82.06 Q41.712 -80.601 40.681 -79.603 Q39.651 -78.605 38.202 -78.605 Q29.236 -78.557 22.954 -72.264 Q16.673 -65.97 16.649 -57.052 Q16.649 -55.549 15.654 -54.553 Q14.659 -53.557 13.2 -53.557 Z M92.019 -69.638 Q93.058 -68.6 93.058 -67.187 Q93.058 -65.773 92.019 -64.735 L62.851 -35.528 Q61.812 -34.475 60.399 -34.502 Q58.986 -34.53 57.933 -35.528 Q56.87 -36.581 56.894 -38.018 Q56.918 -39.456 57.971 -40.533 L87.032 -69.618 Q88.091 -70.677 89.524 -70.677 Q90.957 -70.677 92.019 -69.638 Z M100.51 -54.211 Q101.548 -53.148 101.548 -51.696 Q101.548 -50.244 100.498 -49.194 L74.841 -23.586 Q73.803 -22.571 72.365 -22.547 Q70.928 -22.523 69.875 -23.586 Q68.861 -24.639 68.865 -26.076 Q68.87 -27.514 69.947 -28.59 L95.556 -54.199 Q96.606 -55.249 98.014 -55.249 Q99.422 -55.249 100.51 -54.211 Z M27.433 -2.759 Q16.933 -13.259 16.918 -27.958 Q16.904 -42.658 27.428 -53.182 L39.788 -65.542 Q41.072 -66.836 42.82 -66.836 Q44.567 -66.836 45.861 -65.542 L48.529 -62.836 Q49.593 -61.736 50.241 -60.492 Q50.889 -59.249 51.322 -57.84 L68.115 -74.672 Q69.179 -75.71 70.587 -75.71 Q71.995 -75.71 73.058 -74.672 Q74.096 -73.61 74.096 -72.158 Q74.096 -70.706 73.058 -69.667 L51.726 -48.297 L43.264 -39.865 L46.029 -37.076 Q51.058 -32.047 50.974 -25.088 Q50.889 -18.129 45.909 -13.023 L44.971 -11.985 Q43.933 -10.97 42.495 -10.946 Q41.058 -10.922 40.005 -11.955 Q38.928 -13.051 38.928 -14.482 Q38.928 -15.913 40.005 -16.99 L40.966 -17.951 Q43.918 -20.903 43.978 -25.05 Q44.038 -29.196 41.087 -32.172 L36.356 -36.826 Q35.101 -38.06 35.101 -39.859 Q35.101 -41.658 36.341 -42.896 L43.582 -50.014 Q45.221 -51.678 45.221 -54 Q45.221 -56.321 43.582 -57.985 L42.861 -58.706 L32.394 -48.288 Q23.947 -39.84 23.925 -28.006 Q23.904 -16.172 32.351 -7.725 Q40.822 0.746 52.724 0.797 Q64.625 0.847 73.096 -7.624 L99.413 -33.922 Q100.457 -34.961 101.865 -34.961 Q103.273 -34.961 104.36 -33.922 Q105.399 -32.859 105.399 -31.439 Q105.399 -30.018 104.357 -28.974 L77.956 -2.66 Q67.428 7.866 52.692 7.816 Q37.957 7.765 27.433 -2.759 Z"/></g><g id="Thin-M" transform="matrix(1 0 0 1 802.565 1126)"><path d="M80.332 12.352 Q79.292 12.352 78.629 11.678 Q77.966 11.003 77.966 10.04 Q77.966 9.126 78.629 8.455 Q79.292 7.784 80.332 7.784 Q89.779 7.736 96.373 1.119 Q102.966 -5.499 103.062 -14.946 Q103.062 -15.901 103.737 -16.59 Q104.411 -17.278 105.374 -17.278 Q106.288 -17.278 106.959 -16.59 Q107.63 -15.901 107.63 -14.946 Q107.63 -3.515 99.672 4.418 Q91.715 12.352 80.332 12.352 Z M14.713 -53.196 Q13.74 -53.196 13.079 -53.831 Q12.418 -54.466 12.418 -55.466 Q12.418 -66.848 20.41 -74.854 Q28.401 -82.86 39.716 -82.86 Q40.671 -82.86 41.36 -82.179 Q42.048 -81.497 42.048 -80.52 Q42.048 -79.543 41.36 -78.918 Q40.671 -78.292 39.716 -78.292 Q30.221 -78.196 23.627 -71.579 Q17.034 -64.961 16.986 -55.562 Q16.986 -54.522 16.326 -53.859 Q15.666 -53.196 14.713 -53.196 Z M89.976 -67.547 Q90.678 -66.845 90.678 -65.925 Q90.678 -65.004 89.976 -64.302 L61.264 -35.576 Q60.562 -34.908 59.642 -34.931 Q58.721 -34.954 58.053 -35.576 Q57.303 -36.244 57.351 -37.213 Q57.399 -38.182 58.067 -38.898 L86.648 -67.527 Q87.37 -68.249 88.298 -68.249 Q89.226 -68.249 89.976 -67.547 Z M98.082 -52.504 Q98.784 -51.754 98.784 -50.819 Q98.784 -49.884 98.07 -49.17 L72.87 -24.066 Q72.168 -23.413 71.2 -23.365 Q70.231 -23.316 69.562 -24.066 Q68.909 -24.735 68.95 -25.704 Q68.99 -26.672 69.707 -27.389 L94.811 -52.492 Q95.524 -53.206 96.415 -53.206 Q97.307 -53.206 98.082 -52.504 Z M28.49 -3.913 Q18.615 -13.788 18.649 -27.562 Q18.683 -41.336 28.606 -51.259 L40.702 -63.355 Q41.855 -64.504 43.463 -64.504 Q45.072 -64.504 46.221 -63.355 L48.12 -61.441 Q49.425 -60.077 50.133 -58.485 Q50.841 -56.893 51.082 -55.076 L68.043 -72.052 Q68.77 -72.754 69.662 -72.754 Q70.553 -72.754 71.303 -72.052 Q72.005 -71.302 72.005 -70.367 Q72.005 -69.432 71.303 -68.73 L49.827 -47.24 L42.591 -39.937 L45.308 -37.172 Q49.928 -32.552 49.916 -26.134 Q49.904 -19.715 45.38 -15.066 L43.505 -13.115 Q42.803 -12.461 41.834 -12.413 Q40.865 -12.365 40.197 -13.085 Q39.481 -13.808 39.481 -14.764 Q39.481 -15.72 40.197 -16.437 L42.12 -18.36 Q45.337 -21.576 45.3 -26.119 Q45.264 -30.663 42.048 -33.927 L38.712 -37.235 Q37.577 -38.328 37.577 -39.957 Q37.577 -41.586 38.682 -42.686 L44.976 -48.86 Q46.88 -50.789 46.88 -53.507 Q46.88 -56.225 44.976 -58.177 L43.534 -59.619 L31.913 -48.095 Q23.394 -39.576 23.288 -27.658 Q23.183 -15.74 31.702 -7.22 Q40.269 1.347 52.291 1.385 Q64.312 1.424 72.88 -7.143 L98.019 -32.24 Q98.726 -32.942 99.617 -32.942 Q100.509 -32.942 101.284 -32.24 Q101.986 -31.513 101.986 -30.597 Q101.986 -29.682 101.281 -28.974 L76.036 -3.839 Q66.106 6.087 52.26 6.049 Q38.413 6.01 28.49 -3.913 Z"/></g><g id="Ultralight-M" transform="matrix(1 0 0 1 506.415 1126)"><path d="M79.438 10.708 Q78.675 10.708 78.213 10.253 Q77.75 9.798 77.75 9.128 Q77.75 8.52 78.213 8.051 Q78.675 7.583 79.438 7.583 Q89.188 7.52 95.969 0.708 Q102.75 -6.105 102.875 -15.855 Q102.875 -16.513 103.33 -16.997 Q103.784 -17.48 104.455 -17.48 Q105.062 -17.48 105.531 -16.997 Q106 -16.513 106 -15.855 Q106 -4.698 98.266 3.005 Q90.532 10.708 79.438 10.708 Z M15.621 -52.98 Q14.938 -52.98 14.5 -53.406 Q14.062 -53.833 14.062 -54.542 Q14.062 -65.637 21.84 -73.433 Q29.619 -81.23 40.625 -81.23 Q41.283 -81.23 41.767 -80.757 Q42.25 -80.284 42.25 -79.596 Q42.25 -78.909 41.767 -78.507 Q41.283 -78.105 40.625 -78.105 Q30.812 -77.98 24.031 -71.167 Q17.25 -64.355 17.188 -54.667 Q17.188 -53.905 16.728 -53.442 Q16.269 -52.98 15.621 -52.98 Z M88.75 -66.292 Q89.25 -65.792 89.25 -65.167 Q89.25 -64.542 88.75 -64.042 L60.312 -35.605 Q59.812 -35.167 59.188 -35.188 Q58.562 -35.209 58.125 -35.605 Q57.562 -36.042 57.625 -36.73 Q57.688 -37.417 58.125 -37.917 L86.417 -66.272 Q86.938 -66.792 87.562 -66.792 Q88.188 -66.792 88.75 -66.292 Z M96.625 -51.48 Q97.125 -50.917 97.125 -50.292 Q97.125 -49.667 96.614 -49.156 L71.688 -24.355 Q71.188 -23.917 70.5 -23.855 Q69.812 -23.792 69.375 -24.355 Q68.938 -24.792 69 -25.48 Q69.062 -26.167 69.562 -26.667 L94.364 -51.468 Q94.875 -51.98 95.456 -51.98 Q96.037 -51.98 96.625 -51.48 Z M29.125 -4.605 Q19.625 -14.105 19.688 -27.324 Q19.75 -40.542 29.312 -50.105 L41.25 -62.042 Q42.324 -63.105 43.849 -63.105 Q45.375 -63.105 46.438 -62.042 L47.875 -60.605 Q49.324 -59.082 50.068 -57.281 Q50.812 -55.48 50.938 -53.417 L68 -70.48 Q68.525 -70.98 69.106 -70.98 Q69.688 -70.98 70.25 -70.48 Q70.75 -69.917 70.75 -69.292 Q70.75 -68.667 70.25 -68.167 L48.688 -46.605 L42.188 -39.98 L44.875 -37.23 Q49.25 -32.855 49.281 -26.761 Q49.312 -20.667 45.062 -16.292 L42.625 -13.792 Q42.125 -13.355 41.438 -13.292 Q40.75 -13.23 40.312 -13.763 Q39.812 -14.263 39.812 -14.934 Q39.812 -15.605 40.312 -16.105 L42.812 -18.605 Q46.188 -21.98 46.094 -26.761 Q46 -31.542 42.625 -34.98 L40.125 -37.48 Q39.062 -38.488 39.062 -40.015 Q39.062 -41.542 40.087 -42.561 L45.812 -48.167 Q47.875 -50.255 47.875 -53.211 Q47.875 -56.167 45.812 -58.292 L43.938 -60.167 L31.625 -47.98 Q23.062 -39.417 22.906 -27.449 Q22.75 -15.48 31.312 -6.917 Q39.938 1.708 52.031 1.739 Q64.125 1.77 72.75 -6.855 L97.182 -31.23 Q97.688 -31.73 98.269 -31.73 Q98.85 -31.73 99.438 -31.23 Q99.938 -30.705 99.938 -30.092 Q99.938 -29.48 99.434 -28.974 L74.885 -4.547 Q65.312 5.02 52 4.989 Q38.688 4.958 29.125 -4.605 Z"/></g><g id="Bold-S" transform="matrix(1 0 0 1 2294.23 696)"><path d="M64.353 9.595 Q62.082 9.595 60.456 7.996 Q58.83 6.397 58.83 4.174 Q58.83 1.952 60.456 0.3 Q62.082 -1.352 64.353 -1.352 Q71.404 -1.352 76.311 -6.259 Q81.218 -11.165 81.218 -18.217 Q81.218 -20.446 82.817 -22.019 Q84.416 -23.592 86.639 -23.592 Q88.861 -23.592 90.513 -22.019 Q92.165 -20.446 92.165 -18.217 Q92.165 -6.677 84.029 1.459 Q75.893 9.595 64.353 9.595 Z M7.952 -46.72 Q5.703 -46.72 4.109 -48.346 Q2.515 -49.972 2.515 -52.243 Q2.515 -63.783 10.651 -71.919 Q18.787 -80.055 30.327 -80.055 Q32.556 -80.055 34.129 -78.399 Q35.702 -76.743 35.702 -74.492 Q35.702 -72.24 34.129 -70.674 Q32.556 -69.108 30.327 -69.108 Q23.276 -69.108 18.369 -64.201 Q13.462 -59.294 13.462 -52.243 Q13.462 -49.972 11.842 -48.346 Q10.222 -46.72 7.952 -46.72 Z M73.525 -62.852 Q74.906 -61.478 74.856 -59.622 Q74.807 -57.766 73.426 -56.385 L56.463 -39.569 Q54.983 -38.238 53.184 -38.213 Q51.384 -38.189 50.052 -39.575 Q48.77 -41.038 48.77 -42.885 Q48.77 -44.731 50.102 -46.029 L66.901 -62.829 Q68.298 -64.226 70.221 -64.226 Q72.144 -64.226 73.525 -62.852 Z M78.653 -50.566 Q80.034 -49.185 80.034 -47.418 Q80.034 -45.651 78.644 -44.294 L65.142 -30.792 Q63.564 -29.214 61.863 -29.312 Q60.161 -29.411 58.731 -30.942 Q57.449 -32.419 57.523 -34.219 Q57.597 -36.019 58.928 -37.35 L72.234 -50.656 Q73.591 -52.046 75.422 -51.996 Q77.253 -51.947 78.653 -50.566 Z M16.569 -5.741 Q7.791 -14.519 7.298 -26.847 Q6.805 -39.175 15.484 -47.854 L26.007 -58.475 Q27.781 -60.231 30.09 -60.231 Q32.4 -60.231 34.114 -58.517 L34.272 -58.308 Q35.711 -56.86 36.717 -55.119 Q37.724 -53.377 37.724 -51.207 L51.334 -64.571 Q52.702 -65.952 54.484 -66.001 Q56.266 -66.05 57.646 -64.69 Q59.027 -63.33 59.027 -61.444 Q59.027 -59.558 57.646 -58.21 L40.732 -41.345 L39.105 -39.422 L38.464 -40.063 Q42.458 -36.068 42.68 -30.545 Q42.902 -25.022 39.095 -21.116 L39.105 -21.028 Q37.65 -19.549 35.838 -19.598 Q34.026 -19.647 32.694 -21.01 Q31.363 -22.497 31.363 -24.343 Q31.363 -26.189 32.694 -27.488 L32.793 -27.587 Q33.927 -28.721 33.606 -30.595 Q33.286 -32.468 32.143 -33.636 L30.179 -35.674 Q28.503 -37.285 28.503 -39.561 Q28.503 -41.838 30.179 -43.514 L30.426 -43.761 Q31.609 -45.004 31.461 -46.749 Q31.313 -48.495 30.13 -49.679 L21.895 -41.542 Q15.977 -35.624 16.52 -26.896 Q17.062 -18.168 23.078 -12.152 Q28.996 -6.234 37.129 -6.234 Q45.262 -6.234 51.137 -12.152 L71.826 -32.652 Q73.229 -34.046 75.011 -34.046 Q76.793 -34.046 78.16 -32.666 Q79.541 -31.298 79.541 -29.516 Q79.541 -27.734 78.144 -26.336 L57.597 -5.741 Q48.966 2.938 37.107 2.938 Q25.248 2.938 16.569 -5.741 Z"/></g><g id="Semibold-S" transform="matrix(1 0 0 1 1998.1 696)"><path d="M64.61 7.923 Q62.725 7.923 61.399 6.599 Q60.073 5.274 60.073 3.441 Q60.073 1.609 61.399 0.257 Q62.725 -1.095 64.61 -1.095 Q71.662 -1.095 76.568 -6.002 Q81.475 -10.908 81.475 -17.96 Q81.475 -19.797 82.799 -21.095 Q84.123 -22.392 85.956 -22.392 Q87.789 -22.392 89.141 -21.095 Q90.493 -19.797 90.493 -17.96 Q90.493 -7.22 82.921 0.351 Q75.35 7.923 64.61 7.923 Z M8.684 -47.963 Q6.825 -47.963 5.506 -49.289 Q4.187 -50.615 4.187 -52.5 Q4.187 -63.24 11.759 -70.811 Q19.33 -78.383 30.07 -78.383 Q31.907 -78.383 33.205 -77.027 Q34.502 -75.671 34.502 -73.809 Q34.502 -71.947 33.205 -70.656 Q31.907 -69.365 30.07 -69.365 Q23.018 -69.365 18.112 -64.458 Q13.205 -59.552 13.205 -52.5 Q13.205 -50.615 11.885 -49.289 Q10.565 -47.963 8.684 -47.963 Z M72.71 -62.723 Q73.92 -61.521 73.892 -59.879 Q73.864 -58.237 72.654 -57.028 L54.405 -38.883 Q53.097 -37.681 51.533 -37.677 Q49.969 -37.674 48.766 -38.909 Q47.612 -40.207 47.612 -41.826 Q47.612 -43.445 48.815 -44.614 L66.901 -62.7 Q68.122 -63.926 69.812 -63.926 Q71.501 -63.926 72.71 -62.723 Z M77.796 -50.695 Q79.005 -49.486 79.005 -47.89 Q79.005 -46.295 77.787 -45.109 L62.955 -30.277 Q61.591 -28.914 60.083 -28.991 Q58.575 -29.068 57.316 -30.385 Q56.163 -31.69 56.215 -33.276 Q56.268 -34.861 57.471 -36.064 L72.148 -50.741 Q73.333 -51.96 74.95 -51.932 Q76.567 -51.904 77.796 -50.695 Z M17.984 -7.585 Q9.635 -15.934 9.292 -27.662 Q8.949 -39.389 17.242 -47.682 L27.293 -57.789 Q28.751 -59.245 30.64 -59.245 Q32.528 -59.245 33.942 -57.831 L35.087 -56.636 Q36.225 -55.488 37.082 -54.132 Q37.938 -52.777 38.024 -51.036 L51.506 -64.357 Q52.702 -65.566 54.291 -65.594 Q55.88 -65.621 57.089 -64.424 Q58.298 -63.226 58.298 -61.564 Q58.298 -59.901 57.089 -58.724 L39.875 -41.516 L37.347 -38.778 L37.52 -38.605 Q41.343 -34.782 41.479 -29.516 Q41.616 -24.25 37.934 -20.47 L37.947 -20.385 Q36.653 -19.077 35.082 -19.126 Q33.511 -19.176 32.308 -20.387 Q31.105 -21.708 31.105 -23.327 Q31.105 -24.946 32.308 -26.116 L32.364 -26.172 Q33.67 -27.477 33.456 -29.544 Q33.243 -31.611 31.929 -32.949 L29.236 -35.674 Q27.859 -36.999 27.859 -38.882 Q27.859 -40.766 29.236 -42.142 L30.855 -43.718 Q32.081 -45.004 31.997 -46.792 Q31.914 -48.581 30.687 -49.807 L22.881 -42.099 Q17.006 -36.225 17.399 -27.689 Q17.791 -19.154 23.721 -13.224 Q29.596 -7.349 37.729 -7.328 Q45.863 -7.306 51.694 -13.181 L72.126 -33.466 Q73.358 -34.69 74.947 -34.69 Q76.535 -34.69 77.731 -33.48 Q78.941 -32.284 78.941 -30.695 Q78.941 -29.107 77.715 -27.879 L57.383 -7.542 Q49.138 0.751 37.707 0.73 Q26.277 0.708 17.984 -7.585 Z"/></g><g id="Medium-S" transform="matrix(1 0 0 1 1701.85 696)"><path d="M64.803 6.668 Q63.208 6.668 62.107 5.551 Q61.006 4.433 61.006 2.892 Q61.006 1.351 62.107 0.225 Q63.208 -0.902 64.803 -0.902 Q71.855 -0.902 76.761 -5.809 Q81.668 -10.715 81.668 -17.767 Q81.668 -19.311 82.786 -20.401 Q83.904 -21.491 85.444 -21.491 Q86.985 -21.491 88.112 -20.401 Q89.238 -19.311 89.238 -17.767 Q89.238 -7.628 82.09 -0.48 Q74.942 6.668 64.803 6.668 Z M9.234 -48.896 Q7.667 -48.896 6.554 -49.997 Q5.442 -51.098 5.442 -52.693 Q5.442 -62.832 12.59 -69.98 Q19.738 -77.128 29.877 -77.128 Q31.421 -77.128 32.511 -75.998 Q33.601 -74.867 33.601 -73.297 Q33.601 -71.728 32.511 -70.643 Q31.421 -69.558 29.877 -69.558 Q22.825 -69.558 17.919 -64.651 Q13.012 -59.745 13.012 -52.693 Q13.012 -51.098 11.917 -49.997 Q10.822 -48.896 9.234 -48.896 Z M72.099 -62.627 Q73.18 -61.553 73.168 -60.072 Q73.156 -58.591 72.076 -57.511 L52.861 -38.369 Q51.682 -37.263 50.295 -37.275 Q48.907 -37.288 47.801 -38.409 Q46.744 -39.583 46.744 -41.031 Q46.744 -42.48 47.85 -43.553 L66.901 -62.604 Q67.991 -63.7 69.505 -63.7 Q71.019 -63.7 72.099 -62.627 Z M77.153 -50.791 Q78.233 -49.711 78.233 -48.244 Q78.233 -46.777 77.143 -45.72 L61.315 -29.891 Q60.112 -28.689 58.748 -28.75 Q57.385 -28.811 56.255 -29.966 Q55.198 -31.143 55.234 -32.568 Q55.271 -33.993 56.377 -35.099 L72.084 -50.806 Q73.14 -51.895 74.596 -51.884 Q76.052 -51.872 77.153 -50.791 Z M19.045 -8.968 Q11.018 -16.995 10.788 -28.273 Q10.557 -39.55 18.561 -47.554 L28.258 -57.274 Q29.48 -58.505 31.052 -58.505 Q32.625 -58.505 33.814 -57.316 L35.698 -55.382 Q36.611 -54.459 37.355 -53.393 Q38.099 -52.326 38.249 -50.907 L51.634 -64.196 Q52.702 -65.276 54.146 -65.288 Q55.59 -65.3 56.671 -64.224 Q57.751 -63.149 57.751 -61.653 Q57.751 -60.158 56.671 -59.11 L39.231 -41.645 L36.028 -38.296 L36.813 -37.511 Q40.507 -33.817 40.579 -28.744 Q40.651 -23.672 37.064 -19.986 L37.079 -19.902 Q35.905 -18.723 34.515 -18.772 Q33.125 -18.822 32.019 -19.919 Q30.913 -21.117 30.913 -22.565 Q30.913 -24.013 32.019 -25.087 L32.042 -25.11 Q33.477 -26.545 33.344 -28.756 Q33.211 -30.968 31.768 -32.435 L28.528 -35.674 Q27.377 -36.784 27.377 -38.373 Q27.377 -39.962 28.528 -41.113 L31.176 -43.686 Q32.435 -45.004 32.399 -46.824 Q32.364 -48.645 31.105 -49.904 L23.621 -42.517 Q17.778 -36.675 18.058 -28.284 Q18.338 -19.894 24.204 -14.028 Q30.046 -8.185 38.18 -8.148 Q46.313 -8.11 52.113 -13.953 L72.351 -34.077 Q73.454 -35.172 74.898 -35.172 Q76.342 -35.172 77.41 -34.091 Q78.491 -33.024 78.491 -31.58 Q78.491 -30.136 77.394 -29.037 L57.222 -8.893 Q49.266 -0.889 38.158 -0.927 Q27.049 -0.964 19.045 -8.968 Z"/></g><g id="Regular-S" transform="matrix(1 0 0 1 1405.73 696)"><path d="M64.945 5.749 Q63.561 5.749 62.626 4.782 Q61.69 3.815 61.69 2.489 Q61.69 1.163 62.626 0.201 Q63.561 -0.761 64.945 -0.761 Q71.996 -0.761 76.903 -5.667 Q81.809 -10.574 81.809 -17.625 Q81.809 -18.955 82.776 -19.893 Q83.743 -20.831 85.069 -20.831 Q86.395 -20.831 87.357 -19.893 Q88.319 -18.955 88.319 -17.625 Q88.319 -7.927 81.481 -1.089 Q74.643 5.749 64.945 5.749 Z M9.637 -49.58 Q8.284 -49.58 7.323 -50.516 Q6.361 -51.451 6.361 -52.835 Q6.361 -62.533 13.199 -69.371 Q20.037 -76.209 29.735 -76.209 Q31.065 -76.209 32.003 -75.243 Q32.941 -74.278 32.941 -72.922 Q32.941 -71.567 32.003 -70.633 Q31.065 -69.699 29.735 -69.699 Q22.684 -69.699 17.777 -64.793 Q12.871 -59.886 12.871 -52.835 Q12.871 -51.451 11.941 -50.516 Q11.011 -49.58 9.637 -49.58 Z M71.651 -62.556 Q72.637 -61.577 72.637 -60.214 Q72.637 -58.851 71.651 -57.864 L51.729 -37.991 Q50.644 -36.956 49.386 -36.981 Q48.129 -37.005 47.093 -38.043 Q46.107 -39.126 46.107 -40.449 Q46.107 -41.772 47.143 -42.775 L66.901 -62.533 Q67.894 -63.535 69.28 -63.535 Q70.665 -63.535 71.651 -62.556 Z M76.681 -50.862 Q77.667 -49.876 77.667 -48.503 Q77.667 -47.131 76.672 -46.168 L60.112 -29.608 Q59.027 -28.523 57.77 -28.573 Q56.512 -28.622 55.477 -29.66 Q54.49 -30.743 54.515 -32.049 Q54.54 -33.356 55.575 -34.392 L72.036 -50.853 Q72.999 -51.848 74.337 -51.848 Q75.675 -51.848 76.681 -50.862 Z M19.824 -9.982 Q12.032 -17.773 11.884 -28.721 Q11.736 -39.668 19.528 -47.459 L28.965 -56.897 Q30.013 -57.963 31.354 -57.963 Q32.695 -57.963 33.719 -56.939 L36.146 -54.462 Q36.894 -53.704 37.556 -52.85 Q38.217 -51.996 38.414 -50.813 L51.729 -64.078 Q52.702 -65.064 54.04 -65.064 Q55.378 -65.064 56.364 -64.078 Q57.35 -63.092 57.35 -61.719 Q57.35 -60.347 56.364 -59.393 L38.76 -41.739 L35.061 -37.942 L36.294 -36.709 Q39.894 -33.11 39.918 -28.178 Q39.943 -23.247 36.425 -19.631 L36.442 -19.549 Q35.357 -18.464 34.1 -18.513 Q32.842 -18.562 31.807 -19.577 Q30.771 -20.683 30.771 -22.006 Q30.771 -23.329 31.807 -24.332 Q33.335 -25.861 33.261 -28.178 Q33.187 -30.496 31.65 -32.058 L28.01 -35.674 Q27.023 -36.627 27.023 -38 Q27.023 -39.372 28.01 -40.358 L31.412 -43.662 Q32.694 -45.004 32.694 -46.848 Q32.694 -48.692 31.412 -49.974 L24.163 -42.824 Q18.344 -37.005 18.541 -28.721 Q18.739 -20.436 24.558 -14.617 Q30.377 -8.798 38.51 -8.749 Q46.643 -8.7 52.419 -14.519 L72.516 -34.526 Q73.525 -35.526 74.863 -35.526 Q76.201 -35.526 77.174 -34.54 Q78.16 -33.566 78.16 -32.229 Q78.16 -30.89 77.158 -29.886 L57.104 -9.883 Q49.361 -2.092 38.488 -2.141 Q27.615 -2.191 19.824 -9.982 Z"/></g><g id="Light-S" transform="matrix(1 0 0 1 1109.75 696)"><path d="M63.769 3.586 Q62.75 3.586 62.078 2.908 Q61.405 2.231 61.405 1.289 Q61.405 0.366 62.078 -0.33 Q62.75 -1.026 63.769 -1.026 Q71.219 -1.045 76.372 -6.208 Q81.525 -11.37 81.563 -18.82 Q81.563 -19.759 82.241 -20.428 Q82.919 -21.096 83.86 -21.096 Q84.783 -21.096 85.479 -20.428 Q86.175 -19.759 86.175 -18.82 Q86.175 -9.482 79.632 -2.948 Q73.088 3.586 63.769 3.586 Z M10.83 -49.295 Q9.859 -49.295 9.191 -49.957 Q8.524 -50.619 8.524 -51.621 Q8.524 -60.94 15.081 -67.503 Q21.638 -74.065 30.93 -74.065 Q31.869 -74.065 32.538 -73.374 Q33.206 -72.682 33.206 -71.707 Q33.206 -70.732 32.538 -70.092 Q31.869 -69.453 30.93 -69.453 Q23.461 -69.415 18.308 -64.252 Q13.155 -59.09 13.136 -51.659 Q13.136 -50.64 12.471 -49.968 Q11.805 -49.295 10.83 -49.295 Z M70.039 -60.906 Q70.759 -60.192 70.759 -59.218 Q70.759 -58.244 70.039 -57.523 L50.477 -38.029 Q49.658 -37.297 48.789 -37.319 Q47.92 -37.34 47.188 -38.081 Q46.449 -38.86 46.468 -39.813 Q46.486 -40.767 47.219 -41.485 L66.597 -60.883 Q67.325 -61.62 68.312 -61.62 Q69.299 -61.62 70.039 -60.906 Z M74.765 -49.515 Q75.486 -48.776 75.486 -47.811 Q75.486 -46.846 74.756 -46.149 L58.557 -29.988 Q57.737 -29.187 56.85 -29.218 Q55.962 -29.248 55.23 -30.039 Q54.528 -30.818 54.581 -31.755 Q54.635 -32.692 55.386 -33.443 L71.448 -49.506 Q72.145 -50.236 73.076 -50.236 Q74.006 -50.236 74.765 -49.515 Z M20.658 -10.892 Q13.36 -18.191 13.25 -28.408 Q13.14 -38.625 20.457 -45.942 L29.686 -55.171 Q30.631 -56.123 31.862 -56.123 Q33.094 -56.123 34.004 -55.213 L35.824 -53.362 Q36.762 -52.395 37.47 -51.266 Q38.179 -50.137 38.225 -48.631 L51.672 -62.01 Q52.379 -62.731 53.31 -62.731 Q54.24 -62.731 54.98 -62.01 Q55.7 -61.271 55.7 -60.306 Q55.7 -59.341 54.98 -58.653 L37.261 -40.905 L34.53 -37.999 L35.725 -36.785 Q39.002 -33.508 39.084 -29.003 Q39.165 -24.499 36.008 -21.243 L35.285 -20.44 Q34.466 -19.64 33.578 -19.67 Q32.69 -19.7 31.958 -20.468 Q31.207 -21.281 31.207 -22.229 Q31.207 -23.178 31.958 -23.896 L32.717 -24.654 Q34.454 -26.392 34.305 -29.022 Q34.155 -31.653 32.409 -33.442 L29.868 -35.996 Q28.977 -36.838 28.977 -38.077 Q28.977 -39.315 29.857 -40.193 L32.512 -42.752 Q34.003 -44.302 34.003 -46.459 Q34.003 -48.616 32.512 -50.126 L31.943 -50.695 L23.784 -42.672 Q17.908 -36.797 18.039 -28.446 Q18.17 -20.095 24.045 -14.219 Q29.94 -8.324 38.168 -8.284 Q46.397 -8.245 52.248 -14.139 L71.416 -33.198 Q72.159 -33.933 73.09 -33.933 Q74.02 -33.933 74.746 -33.212 Q75.467 -32.504 75.467 -31.565 Q75.467 -30.625 74.73 -29.886 L55.589 -10.814 Q48.318 -3.496 38.146 -3.535 Q27.975 -3.575 20.658 -10.892 Z"/></g><g id="Thin-S" transform="matrix(1 0 0 1 814.015 696)"><path d="M62.593 1.424 Q61.94 1.424 61.53 1.035 Q61.121 0.646 61.121 0.089 Q61.121 -0.431 61.53 -0.861 Q61.94 -1.292 62.593 -1.292 Q70.441 -1.33 75.841 -6.748 Q81.24 -12.167 81.316 -20.015 Q81.316 -20.564 81.705 -20.963 Q82.095 -21.362 82.652 -21.362 Q83.171 -21.362 83.602 -20.963 Q84.032 -20.564 84.032 -20.015 Q84.032 -11.037 77.783 -4.806 Q71.533 1.424 62.593 1.424 Z M12.024 -49.011 Q11.433 -49.011 11.059 -49.399 Q10.686 -49.786 10.686 -50.407 Q10.686 -59.347 16.962 -65.635 Q23.238 -71.922 32.125 -71.922 Q32.674 -71.922 33.073 -71.504 Q33.472 -71.086 33.472 -70.492 Q33.472 -69.897 33.073 -69.552 Q32.674 -69.206 32.125 -69.206 Q24.239 -69.13 18.839 -63.712 Q13.44 -58.293 13.402 -50.483 Q13.402 -49.83 13 -49.42 Q12.599 -49.011 12.024 -49.011 Z M68.427 -59.256 Q68.882 -58.808 68.882 -58.222 Q68.882 -57.637 68.427 -57.182 L49.225 -38.067 Q48.671 -37.639 48.192 -37.657 Q47.712 -37.675 47.283 -38.119 Q46.79 -38.595 46.828 -39.178 Q46.866 -39.762 47.294 -40.195 L66.294 -59.233 Q66.756 -59.704 67.345 -59.704 Q67.934 -59.704 68.427 -59.256 Z M72.85 -48.169 Q73.305 -47.676 73.305 -47.119 Q73.305 -46.562 72.841 -46.13 L57.002 -30.367 Q56.448 -29.851 55.93 -29.863 Q55.412 -29.874 54.983 -30.418 Q54.566 -30.894 54.648 -31.461 Q54.729 -32.029 55.196 -32.495 L70.861 -48.16 Q71.292 -48.624 71.814 -48.624 Q72.337 -48.624 72.85 -48.169 Z M21.493 -11.803 Q14.688 -18.608 14.615 -28.095 Q14.543 -37.582 21.386 -44.425 L30.407 -53.445 Q31.248 -54.284 32.37 -54.284 Q33.492 -54.284 34.288 -53.487 L35.501 -52.262 Q36.629 -51.087 37.385 -49.683 Q38.141 -48.279 38.035 -46.451 L51.615 -59.943 Q52.057 -60.398 52.58 -60.398 Q53.102 -60.398 53.595 -59.943 Q54.05 -59.45 54.05 -58.893 Q54.05 -58.336 53.595 -57.914 L35.763 -40.07 L33.999 -38.056 L35.156 -36.861 Q38.111 -33.906 38.249 -29.828 Q38.388 -25.751 35.591 -22.855 L34.128 -21.331 Q33.574 -20.816 33.056 -20.827 Q32.539 -20.838 32.11 -21.359 Q31.643 -21.879 31.643 -22.452 Q31.643 -23.026 32.11 -23.46 L33.627 -24.977 Q35.573 -26.923 35.348 -29.866 Q35.122 -32.81 33.167 -34.827 L31.727 -36.319 Q30.93 -37.05 30.93 -38.154 Q30.93 -39.258 31.704 -40.028 L33.612 -41.842 Q35.311 -43.6 35.311 -46.07 Q35.311 -48.541 33.612 -50.278 L32.474 -51.416 L23.405 -42.521 Q17.472 -36.588 17.536 -28.171 Q17.601 -19.753 23.533 -13.821 Q29.504 -7.85 37.827 -7.82 Q46.15 -7.789 52.078 -13.76 L70.316 -31.87 Q70.794 -32.34 71.316 -32.34 Q71.839 -32.34 72.319 -31.884 Q72.774 -31.442 72.774 -30.901 Q72.774 -30.359 72.302 -29.886 L54.075 -11.745 Q47.275 -4.899 37.805 -4.929 Q28.336 -4.96 21.493 -11.803 Z"/></g><g id="Ultralight-S" transform="matrix(1 0 0 1 517.792 696)"><path d="M61.887 0.127 Q61.453 0.127 61.202 -0.089 Q60.95 -0.305 60.95 -0.631 Q60.95 -0.908 61.202 -1.18 Q61.453 -1.451 61.887 -1.451 Q69.974 -1.5 75.522 -7.073 Q81.07 -12.645 81.168 -20.732 Q81.168 -21.047 81.384 -21.284 Q81.6 -21.521 81.927 -21.521 Q82.204 -21.521 82.475 -21.284 Q82.746 -21.047 82.746 -20.732 Q82.746 -11.97 76.673 -5.922 Q70.6 0.127 61.887 0.127 Z M12.74 -48.84 Q12.377 -48.84 12.18 -49.063 Q11.983 -49.287 11.983 -49.679 Q11.983 -58.391 18.091 -64.514 Q24.199 -70.636 32.842 -70.636 Q33.157 -70.636 33.394 -70.382 Q33.631 -70.129 33.631 -69.763 Q33.631 -69.397 33.394 -69.228 Q33.157 -69.058 32.842 -69.058 Q24.706 -68.96 19.158 -63.387 Q13.61 -57.815 13.561 -49.777 Q13.561 -49.343 13.318 -49.092 Q13.075 -48.84 12.74 -48.84 Z M67.46 -58.266 Q67.755 -57.977 67.755 -57.625 Q67.755 -57.273 67.46 -56.977 L48.474 -38.09 Q48.08 -37.844 47.833 -37.86 Q47.587 -37.876 47.34 -38.142 Q46.995 -38.435 47.044 -38.797 Q47.093 -39.159 47.34 -39.422 L66.112 -58.243 Q66.415 -58.555 66.765 -58.555 Q67.114 -58.555 67.46 -58.266 Z M71.7 -47.361 Q71.996 -47.016 71.996 -46.703 Q71.996 -46.391 71.691 -46.119 L56.068 -30.595 Q55.674 -30.249 55.378 -30.249 Q55.082 -30.249 54.836 -30.646 Q54.589 -30.94 54.688 -31.285 Q54.786 -31.63 55.082 -31.926 L70.508 -47.352 Q70.78 -47.657 71.058 -47.657 Q71.335 -47.657 71.7 -47.361 Z M21.993 -12.349 Q15.484 -18.858 15.435 -27.907 Q15.386 -36.956 21.944 -43.514 L30.839 -52.41 Q31.618 -53.18 32.675 -53.18 Q33.731 -53.18 34.459 -52.452 L35.308 -51.602 Q36.549 -50.302 37.334 -48.733 Q38.119 -47.164 37.921 -45.142 L51.581 -58.703 Q51.864 -58.999 52.141 -58.999 Q52.419 -58.999 52.764 -58.703 Q53.06 -58.358 53.06 -58.045 Q53.06 -57.733 52.764 -57.47 L34.864 -39.569 L33.68 -38.09 L34.815 -36.907 Q37.576 -34.145 37.749 -30.323 Q37.921 -26.502 35.341 -23.822 L33.434 -21.866 Q33.039 -21.521 32.744 -21.521 Q32.448 -21.521 32.201 -21.894 Q31.905 -22.238 31.905 -22.586 Q31.905 -22.935 32.201 -23.198 L34.174 -25.17 Q36.245 -27.241 35.973 -30.373 Q35.702 -33.504 33.623 -35.657 L32.842 -36.512 Q32.102 -37.176 32.102 -38.2 Q32.102 -39.224 32.812 -39.929 L34.272 -41.295 Q36.097 -43.179 36.097 -45.837 Q36.097 -48.495 34.272 -50.369 L32.793 -51.848 L23.177 -42.43 Q17.21 -36.463 17.235 -28.006 Q17.259 -19.549 23.226 -13.582 Q29.242 -7.566 37.622 -7.541 Q46.002 -7.516 51.975 -13.532 L69.656 -31.074 Q69.974 -31.384 70.252 -31.384 Q70.53 -31.384 70.862 -31.088 Q71.158 -30.805 71.158 -30.503 Q71.158 -30.2 70.846 -29.886 L53.167 -12.304 Q46.649 -5.741 37.6 -5.766 Q28.552 -5.79 21.993 -12.349 Z"/></g></g></svg>