<svg xmlns="http://www.w3.org/2000/svg" version="1.1" width="3300" height="2000"><g id="Notes"><style>
    text {
      font-family: monospace;
      text-anchor: middle;
    }
    text.emphasis {
      font-weight:bold;
    }
    text.lanchor {
      text-anchor: start;
    }
  </style><rect height="2200" id="artboard" fill="white" width="3300" x="0" y="0"/><line id="" style="fill:none;stroke:black;stroke-width:0.5;" x1="263" x2="3036" y1="292" y2="292"/><text class="lanchor emphasis" transform="matrix(1 0 0 1 263 322)">Weight/Scale Variations</text><text transform="matrix(1 0 0 1 559.711 322)">Ultralight</text><text transform="matrix(1 0 0 1 856.422 322)">Thin</text><text transform="matrix(1 0 0 1 1153.13 322)">Light</text><text transform="matrix(1 0 0 1 1449.84 322)">Regular</text><text transform="matrix(1 0 0 1 1746.56 322)">Medium</text><text transform="matrix(1 0 0 1 2043.27 322)">Semibold</text><text transform="matrix(1 0 0 1 2339.98 322)">Bold</text><text transform="matrix(1 0 0 1 2636.69 322)">Heavy</text><text transform="matrix(1 0 0 1 2933.4 322)">Black</text><text id="template-version" style="text-anchor: end;" transform="matrix(1 0 0 1 3036 1933)">Template v.1.0</text><text class="lanchor" transform="matrix(1 0 0 1 263 726)">Small</text><text class="lanchor" transform="matrix(1 0 0 1 263 1156)">Medium</text><text class="lanchor" transform="matrix(1 0 0 1 263 1586)">Large</text></g><g id="Guides"><g id="H-reference" style="fill:#27AAE1;stroke:none;" transform="matrix(1 0 0 1 339 696)"><path d="M 54.9316 0 L 57.666 0 L 30.5664 -70.459 L 28.0762 -70.459 L 0.976562 0 L 3.66211 0 L 12.9395 -24.4629 L 45.7031 -24.4629 Z M 29.1992 -67.0898 L 29.4434 -67.0898 L 44.8242 -26.709 L 13.8184 -26.709 Z"/></g><line id="Baseline-S" style="fill:none;stroke:#27AAE1;opacity:1;stroke-width:0.577;" x1="263" x2="3036" y1="696" y2="696"/><line id="Capline-S" style="fill:none;stroke:#27AAE1;opacity:1;stroke-width:0.577;" x1="263" x2="3036" y1="625.541" y2="625.541"/><g id="H-reference" style="fill:#27AAE1;stroke:none;" transform="matrix(1 0 0 1 339 1126)"><path d="M 54.9316 0 L 57.666 0 L 30.5664 -70.459 L 28.0762 -70.459 L 0.976562 0 L 3.66211 0 L 12.9395 -24.4629 L 45.7031 -24.4629 Z M 29.1992 -67.0898 L 29.4434 -67.0898 L 44.8242 -26.709 L 13.8184 -26.709 Z"/></g><line id="Baseline-M" style="fill:none;stroke:#27AAE1;opacity:1;stroke-width:0.577;" x1="263" x2="3036" y1="1126" y2="1126"/><line id="Capline-M" style="fill:none;stroke:#27AAE1;opacity:1;stroke-width:0.577;" x1="263" x2="3036" y1="1055.54" y2="1055.54"/><g id="H-reference" style="fill:#27AAE1;stroke:none;" transform="matrix(1 0 0 1 339 1556)"><path d="M 54.9316 0 L 57.666 0 L 30.5664 -70.459 L 28.0762 -70.459 L 0.976562 0 L 3.66211 0 L 12.9395 -24.4629 L 45.7031 -24.4629 Z M 29.1992 -67.0898 L 29.4434 -67.0898 L 44.8242 -26.709 L 13.8184 -26.709 Z"/></g><line id="Baseline-L" style="fill:none;stroke:#27AAE1;opacity:1;stroke-width:0.577;" x1="263" x2="3036" y1="1556" y2="1556"/><line id="Capline-L" style="fill:none;stroke:#27AAE1;opacity:1;stroke-width:0.577;" x1="263" x2="3036" y1="1485.54" y2="1485.54"/><rect height="119.336" id="left-margin" style="fill:darkred;stroke:none;opacity:0.4;" width="12.4512" x="1394.06" y="1030.79"/><rect height="119.336" id="right-margin" style="fill:darkgreen;stroke:none;opacity:0.4;" width="12.4512" x="1502.5112" y="1030.79"/><rect x="1406.5112" y="1045" width="96" height="96" fill="none" stroke="blue" stroke-dasharray="5"/><rect x="1394.06" y="1030.79" width="120.9024" height="119.336" fill="none" stroke="blue"/></g><g id="Symbols"><g id="Bold-L" transform="matrix(1 0 0 1 2266 1556)"><path d="M77.417 30.963 Q62.646 30.963 49.175 25.077 Q35.703 19.19 25.477 8.872 L34.266 0.003 Q42.88 8.875 53.935 13.751 Q64.991 18.628 77.256 18.628 Q89.655 18.628 100.862 13.831 Q112.069 9.035 120.776 0.164 L129.564 8.872 Q119.002 19.111 105.596 25.037 Q92.189 30.963 77.417 30.963 Z M77.396 2.099 Q68.451 2.099 60.066 -1.408 Q51.681 -4.915 45.15 -11.123 L54.019 -19.669 Q58.695 -15.396 64.823 -12.897 Q70.951 -10.397 77.416 -10.397 Q83.882 -10.397 89.929 -12.816 Q95.977 -15.235 100.943 -19.669 L109.731 -10.962 Q103.119 -4.915 94.731 -1.408 Q86.342 2.099 77.396 2.099 Z M25.881 -86.749 V-76.671 H128.919 V-86.749 H25.881 Z M48.053 -61.917  51.116 -51.839 H103.945 L106.748 -61.917 H48.053 Z M38.942 -36.923  32.876 -61.917 H11.126 V-101.665 H143.835 V-61.917 H121.999 L115.616 -36.923 H38.942 Z"/></g><g id="Semibold-L" transform="matrix(1 0 0 1 1970.27 1556)"><path d="M77.417 27.107 Q62.926 27.107 49.7 21.466 Q36.475 15.825 26.389 5.647 L34.266 -2.24 Q42.88 6.561 53.97 11.333 Q65.061 16.104 77.327 16.104 Q89.655 16.104 100.862 11.413 Q112.069 6.722 120.776 -2.079 L128.583 5.647 Q118.231 15.746 105.07 21.427 Q91.908 27.107 77.417 27.107 Z M77.396 -0.424 Q68.451 -0.424 60.136 -3.861 Q51.821 -7.299 45.43 -13.647 L53.248 -21.212 Q58.064 -16.588 64.367 -14.054 Q70.67 -11.519 77.409 -11.519 Q84.149 -11.519 90.406 -14.008 Q96.663 -16.497 101.644 -21.212 L109.45 -13.486 Q102.979 -7.299 94.661 -3.861 Q86.342 -0.424 77.396 -0.424 Z M27.353 -85.277 V-75.199 H127.447 V-85.277 H27.353 Z M48.333 -62.828  51.397 -52.75 H103.586 L106.467 -62.828 H48.333 Z M41.536 -40.288  35.47 -62.828 H14.982 V-97.739 H139.909 V-62.828 H119.405 L112.742 -40.288 H41.536 Z"/></g><g id="Medium-L" transform="matrix(1 0 0 1 1674.31 1556)"><path d="M77.417 24.215 Q63.136 24.215 50.095 18.758 Q37.053 13.301 27.072 3.228 L34.266 -3.923 Q42.88 4.826 53.997 9.518 Q65.114 14.211 77.379 14.211 Q89.655 14.211 100.862 9.599 Q112.069 4.987 120.776 -3.762 L127.847 3.228 Q117.653 13.222 104.676 18.719 Q91.698 24.215 77.417 24.215 Z M77.396 -2.317 Q68.451 -2.317 60.188 -5.702 Q51.926 -9.086 45.641 -15.54 L52.669 -22.369 Q57.591 -17.482 64.025 -14.921 Q70.459 -12.361 77.404 -12.361 Q84.348 -12.361 90.763 -14.902 Q97.178 -17.443 102.169 -22.369 L109.24 -15.379 Q102.874 -9.086 94.608 -5.702 Q86.342 -2.317 77.396 -2.317 Z M28.457 -84.173 V-74.095 H126.343 V-84.173 H28.457 Z M48.543 -63.512  51.607 -53.434 H103.317 L106.257 -63.512 H48.543 Z M43.481 -42.812  37.415 -63.512 H17.874 V-94.794 H136.964 V-63.512 H117.46 L110.586 -42.812 H43.481 Z"/></g><g id="Regular-L" transform="matrix(1 0 0 1 1378.56 1556)"><path d="M77.417 22.094 Q63.291 22.094 50.384 16.772 Q37.477 11.45 27.574 1.454 L34.266 -5.157 Q42.88 3.554 54.016 8.188 Q65.152 12.823 77.418 12.823 Q89.655 12.823 100.862 8.268 Q112.069 3.714 120.776 -4.996 L127.307 1.454 Q117.229 11.371 104.386 16.733 Q91.544 22.094 77.417 22.094 Z M77.396 -3.706 Q68.451 -3.706 60.227 -7.052 Q52.003 -10.397 45.795 -16.928 L52.245 -23.217 Q57.244 -18.137 63.774 -15.557 Q70.305 -12.977 77.4 -12.977 Q84.495 -12.977 91.026 -15.557 Q97.556 -18.137 102.555 -23.217 L109.086 -16.767 Q102.797 -10.397 94.569 -7.052 Q86.342 -3.706 77.396 -3.706 Z M29.267 -83.363 V-73.285 H125.533 V-83.363 H29.267 Z M48.697 -64.013  51.761 -53.935 H103.119 L106.103 -64.013 H48.697 Z M44.908 -44.663  38.842 -64.013 H19.995 V-92.635 H134.805 V-64.013 H116.033 L109.005 -44.663 H44.908 Z"/></g><g id="Light-L" transform="matrix(1 0 0 1 1082.77 1556)"><path d="M77.42 19.148 Q64.128 19.148 51.963 14.275 Q39.798 9.403 30.179 0.307 L35.32 -4.754 Q43.872 3.461 54.745 7.769 Q65.617 12.078 77.495 12.078 Q89.283 12.078 100.18 7.857 Q111.076 3.636 119.722 -4.53 L124.764 0.369 Q115.033 9.386 102.873 14.267 Q90.713 19.148 77.42 19.148 Z M77.381 -5.907 Q69.164 -5.907 61.576 -8.897 Q53.988 -11.886 48.059 -17.61 L52.989 -22.442 Q57.988 -17.765 64.302 -15.371 Q70.615 -12.977 77.462 -12.977 Q84.309 -12.977 90.591 -15.371 Q96.874 -17.765 101.873 -22.442 L106.915 -17.511 Q100.901 -11.841 93.28 -8.874 Q85.66 -5.907 77.381 -5.907 Z M30.042 -82.588 V-71.052 H124.758 V-82.588 H30.042 Z M47.767 -63.982  51.668 -52.447 H103.243 L107.033 -63.982 H47.767 Z M46.366 -45.376  40.23 -63.982 H22.972 V-89.658 H131.828 V-63.982 H114.637 L107.795 -45.376 H46.366 Z"/></g><g id="Thin-L" transform="matrix(1 0 0 1 787.282 1556)"><path d="M77.424 16.203 Q64.965 16.203 53.542 11.779 Q42.118 7.355 32.783 -0.84 L36.374 -4.351 Q44.865 3.368 55.473 7.351 Q66.082 11.334 77.573 11.334 Q88.911 11.334 99.498 7.446 Q110.084 3.558 118.668 -4.065 L122.221 -0.716 Q112.838 7.401 101.36 11.802 Q89.882 16.203 77.424 16.203 Z M77.365 -8.109 Q69.877 -8.109 62.925 -10.742 Q55.972 -13.374 50.322 -18.292 L53.733 -21.666 Q58.732 -17.393 64.829 -15.185 Q70.925 -12.977 77.524 -12.977 Q84.123 -12.977 90.157 -15.185 Q96.192 -17.393 101.191 -21.666 L104.744 -18.255 Q99.006 -13.284 91.992 -10.696 Q84.977 -8.109 77.365 -8.109 Z M30.817 -81.813 V-68.82 H123.983 V-81.813 H30.817 Z M46.837 -63.951  51.575 -50.958 H103.367 L107.963 -63.951 H46.837 Z M47.823 -46.09  41.618 -63.951 H25.949 V-86.681 H128.851 V-63.951 H113.242 L106.586 -46.09 H47.823 Z"/></g><g id="Ultralight-L" transform="matrix(1 0 0 1 491.205 1556)"><path d="M77.426 14.435 Q65.468 14.435 54.489 10.281 Q43.511 6.127 34.346 -1.529 L37.007 -4.109 Q45.46 3.312 55.911 7.1 Q66.361 10.888 77.619 10.888 Q88.688 10.888 99.088 7.2 Q109.489 3.511 118.035 -3.786 L120.696 -1.367 Q111.521 6.209 100.452 10.322 Q89.384 14.435 77.426 14.435 Z M77.356 -9.43 Q70.305 -9.43 63.734 -11.849 Q57.163 -14.267 51.681 -18.702 L54.18 -21.201 Q59.179 -17.17 65.145 -15.074 Q71.111 -12.977 77.561 -12.977 Q84.011 -12.977 89.897 -15.074 Q95.782 -17.17 100.781 -21.201 L103.442 -18.702 Q97.869 -14.149 91.218 -11.79 Q84.568 -9.43 77.356 -9.43 Z M31.283 -81.347 V-67.48 H123.517 V-81.347 H31.283 Z M46.279 -63.932  51.519 -50.065 H103.442 L108.521 -63.932 H46.279 Z M48.697 -46.517  42.451 -63.932 H27.735 V-84.895 H127.065 V-63.932 H112.405 L105.861 -46.517 H48.697 Z"/></g><g id="Bold-M" transform="matrix(1 0 0 1 2281.8 1126)"><path d="M60.01 17.895 Q48.375 17.895 37.938 13.176 Q27.5 8.458 19.375 0.395 L28.312 -8.48 Q34.678 -2.165 42.853 1.552 Q51.028 5.27 60.014 5.27 Q69 5.27 77.25 1.615 Q85.5 -2.041 91.875 -8.355 L100.688 0.395 Q92.562 8.458 82.104 13.176 Q71.646 17.895 60.01 17.895 Z M60.011 -5.355 Q53 -5.355 46.594 -8.011 Q40.188 -10.667 35.062 -15.292 L44 -24.23 Q47.375 -21.48 51.5 -19.73 Q55.625 -17.98 60 -17.98 Q64.375 -17.98 68.438 -19.667 Q72.5 -21.355 76 -24.105 L84.938 -15.292 Q79.812 -10.667 73.417 -8.011 Q67.021 -5.355 60.011 -5.355 Z M21.875 -73.355 V-67.73 H98.125 V-73.355 H21.875 Z M40.125 -52.605  41.688 -46.98 H78.312 L79.875 -52.605 H40.125 Z M29.5 -31.855  24.812 -52.605 H6.75 V-88.48 H113.25 V-52.605 H95.26 L90.312 -31.855 H29.5 Z"/></g><g id="Semibold-M" transform="matrix(1 0 0 1 1985.97 1126)"><path d="M60.01 13.874 Q48.701 13.874 38.481 9.427 Q28.261 4.98 20.353 -2.92 L28.312 -10.817 Q34.678 -4.502 42.88 -0.92 Q51.082 2.662 60.068 2.662 Q69.054 2.662 77.277 -0.858 Q85.5 -4.377 91.875 -10.692 L99.709 -2.92 Q91.747 4.98 81.534 9.427 Q71.32 13.874 60.01 13.874 Z M60.011 -7.963 Q53.054 -7.963 46.703 -10.565 Q40.35 -13.167 35.334 -17.901 L43.239 -25.806 Q46.723 -22.73 51.038 -20.953 Q55.353 -19.176 60 -19.176 Q64.647 -19.176 68.927 -20.917 Q73.207 -22.659 76.761 -25.735 L84.666 -17.901 Q79.65 -13.167 73.308 -10.565 Q66.967 -7.963 60.011 -7.963 Z M23.397 -71.833 V-66.208 H96.603 V-71.833 H23.397 Z M40.397 -53.583  42.014 -47.958 H77.986 L79.603 -53.583 H40.397 Z M32.163 -35.333  27.475 -53.583 H10.771 V-84.458 H109.228 V-53.583 H92.598 L87.324 -35.333 H32.163 Z"/></g><g id="Medium-M" transform="matrix(1 0 0 1 1689.91 1126)"><path d="M60.01 10.857 Q48.946 10.857 38.889 6.614 Q28.831 2.371 21.087 -5.407 L28.312 -12.57 Q34.678 -6.255 42.9 -2.775 Q51.123 0.705 60.109 0.705 Q69.095 0.705 77.297 -2.713 Q85.5 -6.13 91.875 -12.445 L98.975 -5.407 Q91.136 2.371 81.106 6.614 Q71.075 10.857 60.01 10.857 Z M60.011 -9.92 Q53.095 -9.92 46.784 -12.481 Q40.473 -15.042 35.538 -19.858 L42.669 -26.988 Q46.234 -23.667 50.692 -21.87 Q55.15 -20.072 60 -20.072 Q64.85 -20.072 69.293 -21.855 Q73.736 -23.638 77.332 -26.958 L84.462 -19.858 Q79.527 -15.042 73.227 -12.481 Q66.926 -9.92 60.011 -9.92 Z M24.538 -70.692 V-65.067 H95.462 V-70.692 H24.538 Z M40.6 -54.317  42.258 -48.692 H77.742 L79.4 -54.317 H40.6 Z M34.16 -37.942  29.473 -54.317 H13.788 V-81.442 H106.212 V-54.317 H90.6 L85.082 -37.942 H34.16 Z"/></g><g id="Regular-M" transform="matrix(1 0 0 1 1394.06 1126)"><path d="M60.01 8.645 Q49.125 8.645 39.188 4.551 Q29.25 0.458 21.625 -7.23 L28.312 -13.855 Q34.678 -7.54 42.915 -4.135 Q51.153 -0.73 60.139 -0.73 Q69.125 -0.73 77.312 -4.073 Q85.5 -7.416 91.875 -13.73 L98.438 -7.23 Q90.688 0.458 80.792 4.551 Q70.896 8.645 60.01 8.645 Z M60.011 -11.355 Q53.125 -11.355 46.844 -13.886 Q40.562 -16.417 35.688 -21.292 L42.25 -27.855 Q45.875 -24.355 50.438 -22.542 Q55 -20.73 60 -20.73 Q65 -20.73 69.562 -22.542 Q74.125 -24.355 77.75 -27.855 L84.312 -21.292 Q79.438 -16.417 73.167 -13.886 Q66.896 -11.355 60.011 -11.355 Z M25.375 -69.855 V-64.23 H94.625 V-69.855 H25.375 Z M40.75 -54.855  42.438 -49.23 H77.562 L79.25 -54.855 H40.75 Z M35.625 -39.855  30.938 -54.855 H16 V-79.23 H104 V-54.855 H89.135 L83.438 -39.855 H35.625 Z"/></g><g id="Light-M" transform="matrix(1 0 0 1 1098.18 1126)"><path d="M60.013 6.361 Q49.774 6.361 40.411 2.616 Q31.049 -1.13 23.644 -8.119 L28.649 -13.062 Q35.062 -7.035 43.192 -3.835 Q51.321 -0.634 60.151 -0.634 Q68.933 -0.634 77.024 -3.766 Q85.115 -6.899 91.538 -12.889 L96.466 -8.071 Q88.986 -1.082 79.619 2.64 Q70.252 6.361 60.013 6.361 Z M59.998 -13.062 Q53.678 -13.062 47.865 -15.317 Q42.053 -17.571 37.442 -21.869 L42.346 -26.773 Q46.019 -23.489 50.582 -21.773 Q55.144 -20.057 60.048 -20.057 Q64.952 -20.057 69.49 -21.773 Q74.029 -23.489 77.702 -26.773 L82.63 -21.869 Q77.968 -17.536 72.168 -15.299 Q66.367 -13.062 59.998 -13.062 Z M25.303 -69.927 V-62.499 H94.697 V-69.927 H25.303 Z M39.26 -55.504  41.788 -48.076 H78.236 L80.74 -55.504 H39.26 Z M36.659 -41.081  31.917 -55.504 H18.308 V-76.922 H101.692 V-55.504 H88.15 L82.644 -41.081 H36.659 Z"/></g><g id="Thin-M" transform="matrix(1 0 0 1 802.565 1126)"><path d="M60.015 4.078 Q50.423 4.078 41.635 0.681 Q32.848 -2.717 25.663 -9.009 L28.986 -12.268 Q35.447 -6.53 43.468 -3.534 Q51.489 -0.538 60.163 -0.538 Q68.74 -0.538 76.736 -3.46 Q84.731 -6.383 91.202 -12.047 L94.495 -8.913 Q87.284 -2.62 78.446 0.729 Q69.608 4.078 60.015 4.078 Z M59.986 -14.768 Q54.231 -14.768 48.887 -16.747 Q43.543 -18.725 39.197 -22.446 L42.442 -25.691 Q46.163 -22.624 50.726 -21.004 Q55.288 -19.384 60.096 -19.384 Q64.904 -19.384 69.418 -21.004 Q73.933 -22.624 77.654 -25.691 L80.947 -22.446 Q76.499 -18.655 71.168 -16.712 Q65.838 -14.768 59.986 -14.768 Z M25.231 -69.999 V-60.768 H94.769 V-69.999 H25.231 Z M37.769 -56.153  41.139 -46.922 H78.909 L82.231 -56.153 H37.769 Z M37.692 -42.307  32.897 -56.153 H20.615 V-74.615 H99.385 V-56.153 H87.164 L81.851 -42.307 H37.692 Z"/></g><g id="Ultralight-M" transform="matrix(1 0 0 1 506.415 1126)"><path d="M60.017 2.708 Q50.812 2.708 42.37 -0.481 Q33.927 -3.669 26.875 -9.542 L29.188 -11.792 Q35.678 -6.228 43.634 -3.354 Q51.59 -0.48 60.17 -0.48 Q68.625 -0.48 76.562 -3.276 Q84.5 -6.073 91 -11.542 L93.312 -9.417 Q86.263 -3.544 77.742 -0.418 Q69.221 2.708 60.017 2.708 Z M59.979 -15.792 Q54.562 -15.792 49.5 -17.605 Q44.438 -19.417 40.25 -22.792 L42.5 -25.042 Q46.25 -22.105 50.812 -20.542 Q55.375 -18.98 60.125 -18.98 Q64.875 -18.98 69.375 -20.542 Q73.875 -22.105 77.625 -25.042 L79.938 -22.792 Q75.617 -19.326 70.569 -17.559 Q65.521 -15.792 59.979 -15.792 Z M25.188 -70.042 V-59.73 H94.812 V-70.042 H25.188 Z M36.875 -56.542  40.75 -46.23 H79.312 L83.125 -56.542 H36.875 Z M38.312 -43.042  33.485 -56.542 H22 V-73.23 H98 V-56.542 H86.573 L81.375 -43.042 H38.312 Z"/></g><g id="Bold-S" transform="matrix(1 0 0 1 2294.23 696)"><path d="M47.348 4.319 Q38.858 4.319 31.313 0.842 Q23.769 -2.634 17.851 -8.404 L24.311 -14.815 Q29.037 -10.227 34.896 -7.54 Q40.754 -4.853 47.252 -4.853 Q53.751 -4.853 59.717 -7.54 Q65.684 -10.227 70.418 -14.815 L76.878 -8.404 Q71.059 -2.634 63.449 0.842 Q55.838 4.319 47.348 4.319 Z M47.348 -12.448 Q42.31 -12.448 37.65 -14.395 Q32.99 -16.343 29.341 -19.598 L35.801 -26.156 Q38.168 -24.283 41.225 -23.247 Q44.283 -22.211 47.34 -22.211 Q50.397 -22.211 53.356 -23.247 Q56.315 -24.283 58.781 -26.058 L65.339 -19.598 Q61.69 -16.442 57.038 -14.445 Q52.386 -12.448 47.348 -12.448 Z M18.837 -63.733 V-58.505 H75.843 V-63.733 H18.837 Z M30.968 -47.361  32.99 -42.134 H61.69 L63.613 -47.361 H30.968 Z M24.065 -30.989  19.577 -47.361 H7.693 V-74.877 H86.987 V-47.361 H75.161 L71.059 -30.989 H24.065 Z"/></g><g id="Semibold-S" transform="matrix(1 0 0 1 1998.1 696)"><path d="M47.348 1.146 Q39.116 1.146 31.742 -2.116 Q24.369 -5.379 18.623 -11.02 L24.311 -16.658 Q29.037 -12.07 34.917 -9.491 Q40.797 -6.912 47.295 -6.912 Q53.794 -6.912 59.739 -9.491 Q65.684 -12.071 70.418 -16.658 L76.106 -11.02 Q70.416 -5.379 62.998 -2.116 Q55.581 1.146 47.348 1.146 Z M47.348 -14.506 Q42.353 -14.506 37.736 -16.411 Q33.119 -18.316 29.555 -21.656 L35.201 -27.4 Q37.653 -25.269 40.861 -24.212 Q44.068 -23.155 47.34 -23.155 Q50.612 -23.155 53.742 -24.233 Q56.872 -25.312 59.381 -27.344 L65.125 -21.656 Q61.561 -18.414 56.952 -16.46 Q52.344 -14.506 47.348 -14.506 Z M20.038 -62.532 V-57.305 H74.642 V-62.532 H20.038 Z M31.183 -48.133  33.247 -42.906 H61.433 L63.399 -48.133 H31.183 Z M26.166 -33.733  21.678 -48.133 H10.866 V-71.704 H83.814 V-48.133 H73.06 L68.701 -33.733 H26.166 Z"/></g><g id="Medium-S" transform="matrix(1 0 0 1 1701.85 696)"><path d="M47.348 -1.234 Q39.308 -1.234 32.064 -4.336 Q24.819 -7.437 19.202 -12.981 L24.311 -18.041 Q29.037 -13.453 34.933 -10.954 Q40.829 -8.455 47.327 -8.455 Q53.826 -8.455 59.755 -10.955 Q65.684 -13.454 70.418 -18.041 L75.527 -12.981 Q69.934 -7.437 62.661 -4.336 Q55.388 -1.234 47.348 -1.234 Z M47.348 -16.05 Q42.385 -16.05 37.8 -17.922 Q33.215 -19.795 29.716 -23.2 L34.75 -28.333 Q37.267 -26.009 40.587 -24.935 Q43.907 -23.862 47.34 -23.862 Q50.773 -23.862 54.032 -24.973 Q57.29 -26.084 59.831 -28.309 L64.964 -23.2 Q61.465 -19.894 56.888 -17.972 Q52.311 -16.05 47.348 -16.05 Z M20.938 -61.632 V-56.404 H73.742 V-61.632 H20.938 Z M31.343 -48.712  33.44 -43.485 H61.24 L63.238 -48.712 H31.343 Z M27.741 -35.792  23.254 -48.712 H13.246 V-69.324 H81.434 V-48.712 H71.484 L66.932 -35.792 H27.741 Z"/></g><g id="Regular-S" transform="matrix(1 0 0 1 1405.73 696)"><path d="M47.348 -2.98 Q39.45 -2.98 32.3 -5.963 Q25.149 -8.946 19.626 -14.42 L24.311 -19.055 Q29.037 -14.468 34.945 -12.028 Q40.852 -9.587 47.351 -9.587 Q53.849 -9.587 59.767 -12.028 Q65.684 -14.468 70.418 -19.055 L75.103 -14.42 Q69.58 -8.946 62.413 -5.963 Q55.246 -2.98 47.348 -2.98 Z M47.348 -17.182 Q42.409 -17.182 37.847 -19.031 Q33.286 -20.88 29.834 -24.332 L34.42 -29.017 Q36.984 -26.551 40.387 -25.466 Q43.79 -24.381 47.34 -24.381 Q50.891 -24.381 54.244 -25.515 Q57.597 -26.65 60.161 -29.017 L64.846 -24.332 Q61.394 -20.979 56.841 -19.08 Q52.288 -17.182 47.348 -17.182 Z M21.599 -60.971 V-55.744 H73.081 V-60.971 H21.599 Z M31.461 -49.136  33.582 -43.909 H61.098 L63.12 -49.136 H31.461 Z M28.897 -37.301  24.41 -49.136 H14.991 V-67.579 H79.689 V-49.136 H70.328 L65.635 -37.301 H28.897 Z"/></g><g id="Light-S" transform="matrix(1 0 0 1 1109.75 696)"><path d="M47.35 -4.782 Q39.962 -4.782 33.265 -7.49 Q26.569 -10.199 21.22 -15.122 L24.577 -18.43 Q29.341 -14.069 35.163 -11.79 Q40.985 -9.512 47.36 -9.512 Q53.697 -9.512 59.539 -11.786 Q65.381 -14.061 70.153 -18.392 L73.548 -15.084 Q68.237 -10.161 61.488 -7.471 Q54.738 -4.782 47.35 -4.782 Z M47.339 -18.528 Q42.845 -18.528 38.654 -20.159 Q34.462 -21.79 31.219 -24.787 L34.496 -28.163 Q37.098 -25.868 40.501 -24.859 Q43.903 -23.85 47.378 -23.85 Q50.853 -23.85 54.187 -24.908 Q57.521 -25.967 60.123 -28.163 L63.518 -24.787 Q60.235 -21.861 56.053 -20.195 Q51.871 -18.528 47.339 -18.528 Z M21.542 -61.028 V-54.378 H73.138 V-61.028 H21.542 Z M30.285 -49.648  33.07 -42.999 H61.629 L64.296 -49.648 H30.285 Z M29.713 -38.268  25.183 -49.648 H16.812 V-65.758 H77.868 V-49.648 H69.55 L65.009 -38.268 H29.713 Z"/></g><g id="Thin-S" transform="matrix(1 0 0 1 814.015 696)"><path d="M47.352 -6.583 Q40.474 -6.583 34.231 -9.017 Q27.988 -11.451 22.813 -15.824 L24.842 -17.804 Q29.644 -13.671 35.381 -11.553 Q41.118 -9.436 47.37 -9.436 Q53.546 -9.436 59.312 -11.544 Q65.077 -13.653 69.887 -17.728 L71.993 -15.748 Q66.895 -11.375 60.562 -8.979 Q54.23 -6.583 47.352 -6.583 Z M47.329 -19.875 Q43.281 -19.875 39.459 -21.288 Q35.638 -22.701 32.603 -25.242 L34.572 -27.31 Q37.212 -25.185 40.615 -24.252 Q44.017 -23.319 47.416 -23.319 Q50.815 -23.319 54.13 -24.302 Q57.445 -25.284 60.085 -27.31 L62.191 -25.242 Q59.075 -22.744 55.264 -21.309 Q51.453 -19.875 47.329 -19.875 Z M21.485 -61.085 V-53.013 H73.195 V-61.085 H21.485 Z M29.11 -50.16  32.558 -42.088 H62.16 L65.472 -50.16 H29.11 Z M30.528 -39.236  25.956 -50.16 H18.633 V-63.937 H76.047 V-50.16 H68.773 L64.383 -39.236 H30.528 Z"/></g><g id="Ultralight-S" transform="matrix(1 0 0 1 517.792 696)"><path d="M47.353 -7.664 Q40.781 -7.664 34.811 -9.933 Q28.84 -12.202 23.769 -16.245 L25.001 -17.428 Q29.826 -13.432 35.512 -11.411 Q41.198 -9.39 47.376 -9.39 Q53.455 -9.39 59.175 -11.399 Q64.895 -13.409 69.728 -17.33 L71.059 -16.146 Q66.089 -12.104 60.007 -9.884 Q53.925 -7.664 47.353 -7.664 Z M47.324 -20.683 Q43.543 -20.683 39.943 -21.965 Q36.343 -23.247 33.434 -25.515 L34.617 -26.798 Q37.28 -24.776 40.683 -23.888 Q44.085 -23 47.439 -23 Q50.792 -23 54.096 -23.937 Q57.4 -24.874 60.063 -26.798 L61.394 -25.515 Q58.38 -23.273 54.791 -21.978 Q51.203 -20.683 47.324 -20.683 Z M21.451 -61.119 V-52.193 H73.229 V-61.119 H21.451 Z M28.404 -50.468  32.25 -41.542 H62.479 L66.177 -50.468 H28.404 Z M31.018 -39.816  26.42 -50.468 H19.725 V-62.845 H74.955 V-50.468 H68.306 L64.008 -39.816 H31.018 Z"/></g></g></svg>