<svg xmlns="http://www.w3.org/2000/svg" version="1.1" width="3300" height="2000"><g id="Notes"><style>
    text {
      font-family: monospace;
      text-anchor: middle;
    }
    text.emphasis {
      font-weight:bold;
    }
    text.lanchor {
      text-anchor: start;
    }
  </style><rect height="2200" id="artboard" fill="white" width="3300" x="0" y="0"/><line id="" style="fill:none;stroke:black;stroke-width:0.5;" x1="263" x2="3036" y1="292" y2="292"/><text class="lanchor emphasis" transform="matrix(1 0 0 1 263 322)">Weight/Scale Variations</text><text transform="matrix(1 0 0 1 559.711 322)">Ultralight</text><text transform="matrix(1 0 0 1 856.422 322)">Thin</text><text transform="matrix(1 0 0 1 1153.13 322)">Light</text><text transform="matrix(1 0 0 1 1449.84 322)">Regular</text><text transform="matrix(1 0 0 1 1746.56 322)">Medium</text><text transform="matrix(1 0 0 1 2043.27 322)">Semibold</text><text transform="matrix(1 0 0 1 2339.98 322)">Bold</text><text transform="matrix(1 0 0 1 2636.69 322)">Heavy</text><text transform="matrix(1 0 0 1 2933.4 322)">Black</text><text id="template-version" style="text-anchor: end;" transform="matrix(1 0 0 1 3036 1933)">Template v.1.0</text><text class="lanchor" transform="matrix(1 0 0 1 263 726)">Small</text><text class="lanchor" transform="matrix(1 0 0 1 263 1156)">Medium</text><text class="lanchor" transform="matrix(1 0 0 1 263 1586)">Large</text></g><g id="Guides"><g id="H-reference" style="fill:#27AAE1;stroke:none;" transform="matrix(1 0 0 1 339 696)"><path d="M 54.9316 0 L 57.666 0 L 30.5664 -70.459 L 28.0762 -70.459 L 0.976562 0 L 3.66211 0 L 12.9395 -24.4629 L 45.7031 -24.4629 Z M 29.1992 -67.0898 L 29.4434 -67.0898 L 44.8242 -26.709 L 13.8184 -26.709 Z"/></g><line id="Baseline-S" style="fill:none;stroke:#27AAE1;opacity:1;stroke-width:0.577;" x1="263" x2="3036" y1="696" y2="696"/><line id="Capline-S" style="fill:none;stroke:#27AAE1;opacity:1;stroke-width:0.577;" x1="263" x2="3036" y1="625.541" y2="625.541"/><g id="H-reference" style="fill:#27AAE1;stroke:none;" transform="matrix(1 0 0 1 339 1126)"><path d="M 54.9316 0 L 57.666 0 L 30.5664 -70.459 L 28.0762 -70.459 L 0.976562 0 L 3.66211 0 L 12.9395 -24.4629 L 45.7031 -24.4629 Z M 29.1992 -67.0898 L 29.4434 -67.0898 L 44.8242 -26.709 L 13.8184 -26.709 Z"/></g><line id="Baseline-M" style="fill:none;stroke:#27AAE1;opacity:1;stroke-width:0.577;" x1="263" x2="3036" y1="1126" y2="1126"/><line id="Capline-M" style="fill:none;stroke:#27AAE1;opacity:1;stroke-width:0.577;" x1="263" x2="3036" y1="1055.54" y2="1055.54"/><g id="H-reference" style="fill:#27AAE1;stroke:none;" transform="matrix(1 0 0 1 339 1556)"><path d="M 54.9316 0 L 57.666 0 L 30.5664 -70.459 L 28.0762 -70.459 L 0.976562 0 L 3.66211 0 L 12.9395 -24.4629 L 45.7031 -24.4629 Z M 29.1992 -67.0898 L 29.4434 -67.0898 L 44.8242 -26.709 L 13.8184 -26.709 Z"/></g><line id="Baseline-L" style="fill:none;stroke:#27AAE1;opacity:1;stroke-width:0.577;" x1="263" x2="3036" y1="1556" y2="1556"/><line id="Capline-L" style="fill:none;stroke:#27AAE1;opacity:1;stroke-width:0.577;" x1="263" x2="3036" y1="1485.54" y2="1485.54"/><rect height="119.336" id="left-margin" style="fill:darkred;stroke:none;opacity:0.4;" width="12.4512" x="1394.06" y="1030.79"/><rect height="119.336" id="right-margin" style="fill:darkgreen;stroke:none;opacity:0.4;" width="12.4512" x="1502.5112" y="1030.79"/><rect x="1406.5112" y="1045" width="96" height="96" fill="none" stroke="blue" stroke-dasharray="5"/><rect x="1394.06" y="1030.79" width="120.9024" height="119.336" fill="none" stroke="blue"/></g><g id="Symbols"><g id="Bold-L" transform="matrix(1 0 0 1 2266 1556)"><path d="M22.575 26.045 V11.291 H132.386 V26.045 H22.575 Z M116.906 -55.306 H130.371 Q130.371 -55.306 130.371 -55.306 Q130.371 -55.306 130.371 -55.306 V-81.912 Q130.371 -81.912 130.371 -81.912 Q130.371 -81.912 130.371 -81.912 H116.906 V-55.306 Z M49.665 1.213 Q38.279 1.213 30.427 -6.648 Q22.575 -14.509 22.575 -25.693 V-96.666 H59.179 V-73.372 L47.726 -64.169 Q47.246 -63.852 46.279 -61.272 V-37.674 Q46.279 -36.101 47.42 -34.94 Q48.56 -33.779 50.35 -33.779 H74.254 Q76.005 -33.779 77.146 -34.94 Q78.287 -36.101 78.287 -37.674 V-61.279 Q78.287 -61.756 76.82 -64.208 L65.548 -73.396 V-96.666 H130.532 Q136.618 -96.666 140.952 -92.287 Q145.286 -87.907 145.286 -81.912 V-55.306 Q145.286 -49.223 140.952 -44.887 Q136.618 -40.551 130.532 -40.551 H116.906 V-25.695 Q116.906 -14.509 108.921 -6.648 Q100.935 1.213 89.671 1.213 H49.665 Z"/></g><g id="Semibold-L" transform="matrix(1 0 0 1 1970.27 1556)"><path d="M24.328 24.292 V11.922 H130.563 V24.292 H24.328 Z M116.486 -55.866 H131.002 Q131.002 -55.866 131.002 -55.866 Q131.002 -55.866 131.002 -55.866 V-82.473 Q131.002 -82.473 131.002 -82.473 Q131.002 -82.473 131.002 -82.473 H116.486 V-55.866 Z M50.016 0.792 Q39.268 0.792 31.798 -6.648 Q24.328 -14.089 24.328 -24.711 V-94.843 H58.548 V-75.265 L47.095 -66.062 Q46.615 -65.745 45.648 -63.165 V-39.567 Q45.648 -37.994 46.789 -36.833 Q47.929 -35.672 49.719 -35.672 H73.623 Q75.374 -35.672 76.515 -36.833 Q77.656 -37.994 77.656 -39.567 V-63.172 Q77.656 -63.648 76.189 -66.101 L64.917 -75.289 V-94.843 H131.093 Q136.196 -94.843 139.83 -91.184 Q143.463 -87.524 143.463 -82.473 V-55.866 Q143.463 -50.766 139.83 -47.131 Q136.196 -43.496 131.093 -43.496 H116.486 V-24.714 Q116.486 -14.089 108.932 -6.648 Q101.379 0.792 90.723 0.792 H50.016 Z"/></g><g id="Medium-L" transform="matrix(1 0 0 1 1674.31 1556)"><path d="M25.642 22.978 V12.395 H129.196 V22.978 H25.642 Z M116.17 -56.287 H131.475 Q131.475 -56.287 131.475 -56.287 Q131.475 -56.287 131.475 -56.287 V-82.893 Q131.475 -82.893 131.475 -82.893 Q131.475 -82.893 131.475 -82.893 H116.17 V-56.287 Z M50.278 0.476 Q40.01 0.476 32.826 -6.648 Q25.642 -13.773 25.642 -23.975 V-93.476 H58.075 V-76.684 L46.621 -67.482 Q46.142 -67.164 45.175 -64.584 V-40.987 Q45.175 -39.413 46.315 -38.252 Q47.456 -37.091 49.246 -37.091 H73.149 Q74.901 -37.091 76.042 -38.252 Q77.183 -39.413 77.183 -40.986 V-64.591 Q77.183 -65.068 75.715 -67.521 L64.444 -76.709 V-93.476 H131.513 Q135.879 -93.476 138.988 -90.357 Q142.096 -87.237 142.096 -82.893 V-56.287 Q142.096 -51.923 138.988 -48.813 Q135.879 -45.704 131.513 -45.704 H116.17 V-23.978 Q116.17 -13.773 108.941 -6.648 Q101.712 0.476 91.511 0.476 H50.278 Z"/></g><g id="Regular-L" transform="matrix(1 0 0 1 1378.56 1556)"><path d="M26.606 22.014 V12.742 H128.194 V22.014 H26.606 Z M115.939 -56.596 H131.822 Q131.822 -56.596 131.822 -56.596 Q131.822 -56.596 131.822 -56.596 V-83.202 Q131.822 -83.202 131.822 -83.202 Q131.822 -83.202 131.822 -83.202 H115.939 V-56.596 Z M50.471 0.245 Q40.554 0.245 33.58 -6.648 Q26.606 -13.542 26.606 -23.435 V-92.474 H57.727 V-77.726 L46.274 -68.523 Q45.795 -68.206 44.828 -65.626 V-42.028 Q44.828 -40.454 45.968 -39.293 Q47.109 -38.132 48.899 -38.132 H72.802 Q74.554 -38.132 75.695 -39.293 Q76.836 -40.454 76.836 -42.028 V-65.633 Q76.836 -66.109 75.368 -68.562 L64.097 -77.75 V-92.474 H131.822 Q135.647 -92.474 138.37 -89.75 Q141.094 -87.027 141.094 -83.202 V-56.596 Q141.094 -52.771 138.37 -50.047 Q135.647 -47.324 131.822 -47.324 H115.939 V-23.438 Q115.939 -13.542 108.948 -6.648 Q101.957 0.245 92.09 0.245 H50.471 Z"/></g><g id="Light-L" transform="matrix(1 0 0 1 1082.77 1556)"><path d="M29.521 19.099 V12.029 H125.279 V19.099 H29.521 Z M113.83 -56.317 H128.876 Q129.806 -56.317 130.457 -56.906 Q131.109 -57.495 131.109 -58.363 V-80.442 Q131.109 -81.31 130.457 -81.899 Q129.806 -82.489 128.876 -82.489 H113.83 V-56.317 Z M51.162 -3.104 Q42.138 -3.104 35.829 -9.277 Q29.521 -15.45 29.521 -24.304 V-89.559 H58.162 V-75.335 L47.517 -66.695 Q47.098 -66.376 46.13 -63.858 V-43.154 Q46.13 -41.695 47.201 -40.565 Q48.272 -39.435 49.969 -39.435 H71.95 Q73.608 -39.435 74.679 -40.565 Q75.75 -41.695 75.75 -43.154 V-63.852 Q75.75 -64.342 74.339 -66.745 L63.818 -75.366 V-89.559 H128.876 Q132.717 -89.559 135.448 -86.883 Q138.179 -84.206 138.179 -80.442 V-58.363 Q138.179 -54.599 135.448 -51.923 Q132.717 -49.246 128.876 -49.246 H113.83 V-24.31 Q113.83 -15.465 107.517 -9.284 Q101.204 -3.104 92.23 -3.104 H51.162 Z"/></g><g id="Thin-L" transform="matrix(1 0 0 1 787.282 1556)"><path d="M32.436 16.184 V11.315 H122.364 V16.184 H32.436 Z M111.721 -56.037 H125.93 Q127.791 -56.037 129.093 -57.216 Q130.395 -58.394 130.395 -60.131 V-77.682 Q130.395 -79.419 129.093 -80.597 Q127.791 -81.775 125.93 -81.775 H111.721 V-56.037 Z M51.852 -6.453 Q43.72 -6.453 38.078 -11.905 Q32.436 -17.358 32.436 -25.172 V-86.644 H58.596 V-72.945 L48.758 -64.868 Q48.4 -64.547 47.432 -62.091 V-44.28 Q47.432 -42.935 48.434 -41.836 Q49.435 -40.737 51.039 -40.737 H71.097 Q72.662 -40.737 73.664 -41.836 Q74.665 -42.935 74.665 -44.28 V-62.072 Q74.665 -62.574 73.309 -64.928 L63.539 -72.983 V-86.644 H125.93 Q129.789 -86.644 132.526 -84.015 Q135.264 -81.387 135.264 -77.682 V-60.131 Q135.264 -56.426 132.526 -53.798 Q129.789 -51.169 125.93 -51.169 H111.721 V-25.183 Q111.721 -17.387 106.086 -11.92 Q100.451 -6.453 92.369 -6.453 H51.852 Z"/></g><g id="Ultralight-L" transform="matrix(1 0 0 1 491.205 1556)"><path d="M34.185 14.435 V10.888 H120.615 V14.435 H34.185 Z M110.456 -55.87 H124.163 Q126.581 -55.87 128.274 -57.402 Q129.968 -58.934 129.968 -61.191 V-76.026 Q129.968 -78.284 128.274 -79.816 Q126.581 -81.347 124.163 -81.347 H110.456 V-55.87 Z M52.266 -8.462 Q44.67 -8.462 39.428 -13.482 Q34.185 -18.502 34.185 -25.693 V-84.895 H58.856 V-71.511 L49.504 -63.771 Q49.181 -63.449 48.214 -61.03 V-44.956 Q48.214 -43.679 49.173 -42.599 Q50.133 -41.519 51.681 -41.519 H70.585 Q72.095 -41.519 73.054 -42.599 Q74.014 -43.679 74.014 -44.955 V-61.004 Q74.014 -61.514 72.692 -63.838 L63.371 -71.553 V-84.895 H124.163 Q128.032 -84.895 130.773 -82.295 Q133.515 -79.695 133.515 -76.026 V-61.191 Q133.515 -57.523 130.773 -54.923 Q128.032 -52.322 124.163 -52.322 H110.456 V-25.706 Q110.456 -18.541 105.228 -13.502 Q99.999 -8.462 92.453 -8.462 H52.266 Z"/></g><g id="Bold-M" transform="matrix(1 0 0 1 2281.8 1126)"><path d="M17 12.77 V-2.355 H103 V12.77 H17 Z M89.75 -51.98 H97.875 Q97.875 -51.98 97.875 -51.98 Q97.875 -51.98 97.875 -51.98 V-68.23 Q97.875 -68.23 97.875 -68.23 Q97.875 -68.23 97.875 -68.23 H89.75 V-51.98 Z M39.625 -9.23 Q30.125 -9.23 23.562 -15.792 Q17 -22.355 17 -31.855 V-83.23 H46.75 V-62.865 L37.993 -55.847 Q37.75 -55.605 37 -53.855 V-33.48 Q37 -32.48 37.75 -31.73 Q38.5 -30.98 39.5 -30.98 H58.905 Q59.875 -30.98 60.625 -31.73 Q61.375 -32.48 61.375 -33.48 V-53.865 Q61.375 -54.105 60.375 -55.855 L51.625 -62.87 V-83.23 H98 Q104.188 -83.23 108.594 -78.789 Q113 -74.347 113 -68.23 V-51.98 Q113 -45.863 108.594 -41.421 Q104.188 -36.98 98 -36.98 H89.75 V-31.839 Q89.75 -22.355 83.052 -15.792 Q76.355 -9.23 66.95 -9.23 H39.625 Z"/></g><g id="Semibold-M" transform="matrix(1 0 0 1 1985.97 1126)"><path d="M18.848 10.922 V-1.703 H101.152 V10.922 H18.848 Z M89.315 -52.578 H98.527 Q98.527 -52.578 98.527 -52.578 Q98.527 -52.578 98.527 -52.578 V-68.828 Q98.527 -68.828 98.527 -68.828 Q98.527 -68.828 98.527 -68.828 H89.315 V-52.578 Z M40.005 -9.665 Q31.157 -9.665 25.003 -15.82 Q18.848 -21.975 18.848 -30.822 V-81.382 H46.098 V-64.821 L37.341 -57.803 Q37.098 -57.561 36.348 -55.811 V-35.436 Q36.348 -34.436 37.098 -33.686 Q37.848 -32.936 38.848 -32.936 H58.253 Q59.223 -32.936 59.973 -33.686 Q60.723 -34.436 60.723 -35.436 V-55.822 Q60.723 -56.061 59.723 -57.811 L50.973 -64.826 V-81.382 H98.598 Q103.776 -81.382 107.464 -77.674 Q111.152 -73.967 111.152 -68.828 V-52.578 Q111.152 -47.439 107.464 -43.731 Q103.776 -40.023 98.598 -40.023 H89.315 V-30.806 Q89.315 -21.975 83.065 -15.82 Q76.814 -9.665 68.037 -9.665 H40.005 Z"/></g><g id="Medium-M" transform="matrix(1 0 0 1 1689.91 1126)"><path d="M20.234 9.536 V-1.214 H99.766 V9.536 H20.234 Z M88.989 -53.026 H99.016 Q99.016 -53.026 99.016 -53.026 Q99.016 -53.026 99.016 -53.026 V-69.276 Q99.016 -69.276 99.016 -69.276 Q99.016 -69.276 99.016 -69.276 H88.989 V-53.026 Z M40.291 -9.991 Q31.932 -9.991 26.083 -15.84 Q20.234 -21.689 20.234 -30.048 V-79.996 H45.609 V-66.288 L36.852 -59.271 Q36.609 -59.029 35.859 -57.279 V-36.904 Q35.859 -35.904 36.609 -35.154 Q37.359 -34.404 38.359 -34.404 H57.764 Q58.734 -34.404 59.484 -35.154 Q60.234 -35.904 60.234 -36.904 V-57.289 Q60.234 -57.529 59.234 -59.279 L50.484 -66.293 V-79.996 H99.046 Q103.468 -79.996 106.617 -76.839 Q109.766 -73.681 109.766 -69.276 V-53.026 Q109.766 -48.621 106.617 -45.463 Q103.468 -42.306 99.046 -42.306 H88.989 V-30.032 Q88.989 -21.689 83.074 -15.84 Q77.159 -9.991 68.852 -9.991 H40.291 Z"/></g><g id="Regular-M" transform="matrix(1 0 0 1 1394.06 1126)"><path d="M21.25 8.52 V-0.855 H98.75 V8.52 H21.25 Z M88.75 -53.355 H99.375 Q99.375 -53.355 99.375 -53.355 Q99.375 -53.355 99.375 -53.355 V-69.605 Q99.375 -69.605 99.375 -69.605 Q99.375 -69.605 99.375 -69.605 H88.75 V-53.355 Z M40.5 -10.23 Q32.5 -10.23 26.875 -15.855 Q21.25 -21.48 21.25 -29.48 V-78.98 H45.25 V-67.365 L36.493 -60.347 Q36.25 -60.105 35.5 -58.355 V-37.98 Q35.5 -36.98 36.25 -36.23 Q37 -35.48 38 -35.48 H57.405 Q58.375 -35.48 59.125 -36.23 Q59.875 -36.98 59.875 -37.98 V-58.365 Q59.875 -58.605 58.875 -60.355 L50.125 -67.37 V-78.98 H99.375 Q103.242 -78.98 105.996 -76.226 Q108.75 -73.472 108.75 -69.605 V-53.355 Q108.75 -49.488 105.996 -46.734 Q103.242 -43.98 99.375 -43.98 H88.75 V-29.464 Q88.75 -21.48 83.081 -15.855 Q77.411 -10.23 69.45 -10.23 H40.5 Z"/></g><g id="Light-M" transform="matrix(1 0 0 1 1098.18 1126)"><path d="M23.51 6.26 V-0.735 H96.49 V6.26 H23.51 Z M87.26 -52.465 H97.764 Q98.486 -52.465 98.99 -52.922 Q99.495 -53.379 99.495 -54.052 V-68.138 Q99.495 -68.812 98.99 -69.268 Q98.486 -69.725 97.764 -69.725 H87.26 V-52.465 Z M40.747 -12.153 Q33.558 -12.153 28.534 -17.099 Q23.51 -22.045 23.51 -29.143 V-76.72 H45.49 V-65.608 L37.36 -59.026 Q37.115 -58.783 36.365 -57.033 V-39.574 Q36.365 -38.567 37.119 -37.817 Q37.873 -37.067 38.877 -37.067 H56.455 Q57.43 -37.067 58.184 -37.817 Q58.937 -38.567 58.937 -39.574 V-57.041 Q58.937 -57.283 57.933 -59.043 L49.812 -65.618 V-76.72 H97.764 Q101.367 -76.72 103.929 -74.219 Q106.49 -71.719 106.49 -68.138 V-54.052 Q106.49 -50.472 103.929 -47.971 Q101.367 -45.47 97.764 -45.47 H87.26 V-29.13 Q87.26 -22.057 82.2 -17.105 Q77.141 -12.153 69.991 -12.153 H40.747 Z"/></g><g id="Thin-M" transform="matrix(1 0 0 1 802.565 1126)"><path d="M25.769 4.001 V-0.615 H94.231 V4.001 H25.769 Z M85.769 -51.576 H96.154 Q97.596 -51.576 98.606 -52.49 Q99.615 -53.403 99.615 -54.749 V-66.672 Q99.615 -68.018 98.606 -68.932 Q97.596 -69.845 96.154 -69.845 H85.769 V-51.576 Z M40.993 -14.076 Q34.615 -14.076 30.192 -18.344 Q25.769 -22.611 25.769 -28.807 V-74.461 H45.731 V-63.851 L38.227 -57.706 Q37.981 -57.461 37.231 -55.711 V-41.168 Q37.231 -40.153 37.988 -39.403 Q38.745 -38.653 39.755 -38.653 H55.506 Q56.486 -38.653 57.243 -39.403 Q58 -40.153 58 -41.168 V-55.717 Q58 -55.961 56.99 -57.731 L49.5 -63.867 V-74.461 H96.154 Q99.492 -74.461 101.862 -72.213 Q104.231 -69.966 104.231 -66.672 V-54.749 Q104.231 -51.456 101.862 -49.208 Q99.492 -46.961 96.154 -46.961 H85.769 V-28.797 Q85.769 -22.634 81.32 -18.355 Q76.871 -14.076 70.532 -14.076 H40.993 Z"/></g><g id="Ultralight-M" transform="matrix(1 0 0 1 506.415 1126)"><path d="M27.125 2.645 V-0.542 H92.875 V2.645 H27.125 Z M84.875 -51.042 H95.188 Q97.062 -51.042 98.375 -52.23 Q99.688 -53.417 99.688 -55.167 V-65.792 Q99.688 -67.542 98.375 -68.73 Q97.062 -69.917 95.188 -69.917 H84.875 V-51.042 Z M41.142 -15.23 Q35.25 -15.23 31.188 -19.09 Q27.125 -22.95 27.125 -28.605 V-73.105 H45.875 V-62.797 L38.747 -56.913 Q38.5 -56.667 37.75 -54.917 V-42.125 Q37.75 -41.105 38.509 -40.355 Q39.269 -39.605 40.281 -39.605 H54.936 Q55.919 -39.605 56.678 -40.355 Q57.438 -41.105 57.438 -42.124 V-54.923 Q57.438 -55.167 56.425 -56.943 L49.312 -62.816 V-73.105 H95.188 Q98.367 -73.105 100.621 -71.009 Q102.875 -68.914 102.875 -65.792 V-55.167 Q102.875 -52.046 100.621 -49.951 Q98.367 -47.855 95.188 -47.855 H84.875 V-28.597 Q84.875 -22.98 80.792 -19.105 Q76.71 -15.23 70.857 -15.23 H41.142 Z"/></g><g id="Bold-S" transform="matrix(1 0 0 1 2294.23 696)"><path d="M16.569 0.275 V-10.87 H78.111 V0.275 H16.569 Z M70.813 -44.501 H76.434 Q76.434 -44.501 76.434 -44.501 Q76.434 -44.501 76.434 -44.501 V-59.689 Q76.434 -59.689 76.434 -59.689 Q76.434 -59.689 76.434 -59.689 H70.813 V-44.501 Z M32.842 -15.505 Q25.938 -15.505 21.254 -20.19 Q16.569 -24.874 16.569 -31.778 V-70.735 H39.253 V-54.667 L33.034 -48.439 Q32.744 -48.15 32.349 -46.769 V-34.244 Q32.349 -33.297 33.059 -32.587 Q33.769 -31.877 34.716 -31.877 H48.448 Q49.372 -31.877 50.082 -32.587 Q50.792 -33.297 50.792 -34.244 V-46.818 Q50.792 -46.966 50.102 -48.446 L43.888 -54.671 V-70.735 H76.56 Q81.119 -70.735 84.349 -67.463 Q87.579 -64.19 87.579 -59.689 V-44.501 Q87.579 -40 84.334 -36.727 Q81.089 -33.455 76.533 -33.455 H70.813 V-31.765 Q70.813 -24.874 66.022 -20.19 Q61.23 -15.505 54.402 -15.505 H32.842 Z"/></g><g id="Semibold-S" transform="matrix(1 0 0 1 1998.1 696)"><path d="M18.027 -1.183 V-10.355 H76.653 V-1.183 H18.027 Z M70.47 -44.972 H76.949 Q76.949 -44.972 76.949 -44.972 Q76.949 -44.972 76.949 -44.972 V-60.161 Q76.949 -60.161 76.949 -60.161 Q76.949 -60.161 76.949 -60.161 H70.47 V-44.972 Z M33.142 -15.848 Q26.753 -15.848 22.39 -20.211 Q18.027 -24.574 18.027 -30.963 V-69.277 H38.738 V-56.21 L32.52 -49.983 Q32.229 -49.693 31.834 -48.313 V-35.787 Q31.834 -34.841 32.545 -34.13 Q33.255 -33.42 34.201 -33.42 H47.934 Q48.857 -33.42 49.567 -34.13 Q50.277 -34.841 50.277 -35.787 V-48.362 Q50.277 -48.51 49.587 -49.989 L43.374 -56.214 V-69.277 H77.032 Q80.795 -69.277 83.458 -66.583 Q86.121 -63.89 86.121 -60.161 V-44.972 Q86.121 -41.243 83.443 -38.55 Q80.765 -35.856 77.005 -35.856 H70.47 V-30.951 Q70.47 -24.574 66.031 -20.211 Q61.593 -15.848 55.259 -15.848 H33.142 Z"/></g><g id="Medium-S" transform="matrix(1 0 0 1 1701.85 696)"><path d="M19.12 -2.276 V-9.969 H75.56 V-2.276 H19.12 Z M70.212 -45.326 H77.335 Q77.335 -45.326 77.335 -45.326 Q77.335 -45.326 77.335 -45.326 V-60.514 Q77.335 -60.514 77.335 -60.514 Q77.335 -60.514 77.335 -60.514 H70.212 V-45.326 Z M33.367 -16.105 Q27.364 -16.105 23.242 -20.227 Q19.12 -24.349 19.12 -30.352 V-68.184 H38.352 V-57.368 L32.134 -51.141 Q31.843 -50.851 31.449 -49.471 V-36.945 Q31.449 -35.998 32.159 -35.288 Q32.869 -34.578 33.816 -34.578 H47.548 Q48.471 -34.578 49.181 -35.288 Q49.891 -35.998 49.891 -36.945 V-49.52 Q49.891 -49.668 49.201 -51.147 L42.988 -57.372 V-68.184 H77.386 Q80.552 -68.184 82.79 -65.924 Q85.028 -63.665 85.028 -60.514 V-45.326 Q85.028 -42.176 82.775 -39.916 Q80.522 -37.657 77.358 -37.657 H70.212 V-30.34 Q70.212 -24.349 66.038 -20.227 Q61.864 -16.105 55.902 -16.105 H33.367 Z"/></g><g id="Regular-S" transform="matrix(1 0 0 1 1405.73 696)"><path d="M19.922 -3.078 V-9.686 H74.758 V-3.078 H19.922 Z M70.024 -45.586 H77.618 Q77.618 -45.586 77.618 -45.586 Q77.618 -45.586 77.618 -45.586 V-60.774 Q77.618 -60.774 77.618 -60.774 Q77.618 -60.774 77.618 -60.774 H70.024 V-45.586 Z M33.532 -16.294 Q27.812 -16.294 23.867 -20.239 Q19.922 -24.184 19.922 -29.904 V-67.382 H38.069 V-58.217 L31.851 -51.99 Q31.56 -51.7 31.166 -50.32 V-37.794 Q31.166 -36.847 31.876 -36.137 Q32.586 -35.427 33.532 -35.427 H47.265 Q48.188 -35.427 48.898 -36.137 Q49.608 -36.847 49.608 -37.794 V-50.369 Q49.608 -50.517 48.918 -51.996 L42.705 -58.221 V-67.382 H77.645 Q80.373 -67.382 82.3 -65.441 Q84.226 -63.5 84.226 -60.774 V-45.586 Q84.226 -42.86 82.285 -40.919 Q80.344 -38.978 77.618 -38.978 H70.024 V-29.892 Q70.024 -24.184 66.044 -20.239 Q62.064 -16.294 56.374 -16.294 H33.532 Z"/></g><g id="Light-S" transform="matrix(1 0 0 1 1109.75 696)"><path d="M21.705 -4.861 V-9.591 H72.975 V-4.861 H21.705 Z M68.848 -44.884 H76.347 Q76.916 -44.884 77.314 -45.244 Q77.713 -45.605 77.713 -46.136 V-59.617 Q77.713 -60.148 77.314 -60.508 Q76.916 -60.869 76.347 -60.869 H68.848 V-44.884 Z M33.727 -17.811 Q28.647 -17.811 25.176 -21.221 Q21.705 -24.63 21.705 -29.639 V-65.599 H38.259 V-56.831 L32.534 -50.948 Q32.243 -50.657 31.848 -49.276 V-39.052 Q31.848 -38.099 32.561 -37.389 Q33.274 -36.679 34.225 -36.679 H46.516 Q47.443 -36.679 48.156 -37.389 Q48.869 -38.099 48.869 -39.052 V-49.324 Q48.869 -49.474 48.174 -50.961 L42.458 -56.839 V-65.599 H76.374 Q78.894 -65.599 80.668 -63.857 Q82.443 -62.116 82.443 -59.617 V-46.136 Q82.443 -43.636 80.653 -41.895 Q78.864 -40.154 76.347 -40.154 H68.848 V-29.628 Q68.848 -24.639 65.349 -21.225 Q61.851 -17.811 56.801 -17.811 H33.727 Z"/></g><g id="Thin-S" transform="matrix(1 0 0 1 814.015 696)"><path d="M23.488 -6.644 V-9.496 H71.192 V-6.644 H23.488 Z M67.672 -44.182 H75.076 Q76.214 -44.182 77.011 -44.903 Q77.808 -45.624 77.808 -46.686 V-58.46 Q77.808 -59.522 77.011 -60.243 Q76.214 -60.964 75.076 -60.964 H67.672 V-44.182 Z M33.922 -19.329 Q29.481 -19.329 26.485 -22.203 Q23.488 -25.076 23.488 -29.373 V-63.816 H38.449 V-55.445 L33.218 -49.906 Q32.926 -49.614 32.531 -48.233 V-40.31 Q32.531 -39.351 33.247 -38.641 Q33.963 -37.931 34.917 -37.931 H45.767 Q46.697 -37.931 47.413 -38.641 Q48.129 -39.351 48.129 -40.31 V-48.28 Q48.129 -48.431 47.431 -49.926 L42.212 -55.457 V-63.816 H75.104 Q77.415 -63.816 79.037 -62.275 Q80.66 -60.733 80.66 -58.46 V-46.686 Q80.66 -44.413 79.022 -42.871 Q77.385 -41.33 75.076 -41.33 H67.672 V-29.365 Q67.672 -25.094 64.655 -22.211 Q61.638 -19.329 57.228 -19.329 H33.922 Z"/></g><g id="Ultralight-S" transform="matrix(1 0 0 1 517.792 696)"><path d="M24.558 -7.714 V-9.44 H70.122 V-7.714 H24.558 Z M66.966 -43.761 H74.314 Q75.793 -43.761 76.829 -44.698 Q77.864 -45.635 77.864 -47.016 V-57.766 Q77.864 -59.147 76.829 -60.083 Q75.793 -61.02 74.314 -61.02 H66.966 V-43.761 Z M34.039 -20.239 Q29.982 -20.239 27.27 -22.792 Q24.558 -25.344 24.558 -29.214 V-62.746 H38.562 V-54.614 L33.628 -49.281 Q33.335 -48.988 32.941 -47.607 V-41.064 Q32.941 -40.102 33.658 -39.392 Q34.376 -38.682 35.332 -38.682 H45.317 Q46.25 -38.682 46.968 -39.392 Q47.685 -40.102 47.685 -41.064 V-47.653 Q47.685 -47.805 46.985 -49.305 L42.064 -54.628 V-62.746 H74.341 Q76.527 -62.746 78.059 -61.325 Q79.59 -59.903 79.59 -57.766 V-47.016 Q79.59 -44.879 78.044 -43.457 Q76.497 -42.035 74.314 -42.035 H66.966 V-29.207 Q66.966 -25.367 64.238 -22.803 Q61.51 -20.239 57.484 -20.239 H34.039 Z"/></g></g></svg>