<svg xmlns="http://www.w3.org/2000/svg" version="1.1" width="3300" height="2000"><g id="Notes"><style>
    text {
      font-family: monospace;
      text-anchor: middle;
    }
    text.emphasis {
      font-weight:bold;
    }
    text.lanchor {
      text-anchor: start;
    }
  </style><rect height="2200" id="artboard" fill="white" width="3300" x="0" y="0"/><line id="" style="fill:none;stroke:black;stroke-width:0.5;" x1="263" x2="3036" y1="292" y2="292"/><text class="lanchor emphasis" transform="matrix(1 0 0 1 263 322)">Weight/Scale Variations</text><text transform="matrix(1 0 0 1 559.711 322)">Ultralight</text><text transform="matrix(1 0 0 1 856.422 322)">Thin</text><text transform="matrix(1 0 0 1 1153.13 322)">Light</text><text transform="matrix(1 0 0 1 1449.84 322)">Regular</text><text transform="matrix(1 0 0 1 1746.56 322)">Medium</text><text transform="matrix(1 0 0 1 2043.27 322)">Semibold</text><text transform="matrix(1 0 0 1 2339.98 322)">Bold</text><text transform="matrix(1 0 0 1 2636.69 322)">Heavy</text><text transform="matrix(1 0 0 1 2933.4 322)">Black</text><text id="template-version" style="text-anchor: end;" transform="matrix(1 0 0 1 3036 1933)">Template v.1.0</text><text class="lanchor" transform="matrix(1 0 0 1 263 726)">Small</text><text class="lanchor" transform="matrix(1 0 0 1 263 1156)">Medium</text><text class="lanchor" transform="matrix(1 0 0 1 263 1586)">Large</text></g><g id="Guides"><g id="H-reference" style="fill:#27AAE1;stroke:none;" transform="matrix(1 0 0 1 339 696)"><path d="M 54.9316 0 L 57.666 0 L 30.5664 -70.459 L 28.0762 -70.459 L 0.976562 0 L 3.66211 0 L 12.9395 -24.4629 L 45.7031 -24.4629 Z M 29.1992 -67.0898 L 29.4434 -67.0898 L 44.8242 -26.709 L 13.8184 -26.709 Z"/></g><line id="Baseline-S" style="fill:none;stroke:#27AAE1;opacity:1;stroke-width:0.577;" x1="263" x2="3036" y1="696" y2="696"/><line id="Capline-S" style="fill:none;stroke:#27AAE1;opacity:1;stroke-width:0.577;" x1="263" x2="3036" y1="625.541" y2="625.541"/><g id="H-reference" style="fill:#27AAE1;stroke:none;" transform="matrix(1 0 0 1 339 1126)"><path d="M 54.9316 0 L 57.666 0 L 30.5664 -70.459 L 28.0762 -70.459 L 0.976562 0 L 3.66211 0 L 12.9395 -24.4629 L 45.7031 -24.4629 Z M 29.1992 -67.0898 L 29.4434 -67.0898 L 44.8242 -26.709 L 13.8184 -26.709 Z"/></g><line id="Baseline-M" style="fill:none;stroke:#27AAE1;opacity:1;stroke-width:0.577;" x1="263" x2="3036" y1="1126" y2="1126"/><line id="Capline-M" style="fill:none;stroke:#27AAE1;opacity:1;stroke-width:0.577;" x1="263" x2="3036" y1="1055.54" y2="1055.54"/><g id="H-reference" style="fill:#27AAE1;stroke:none;" transform="matrix(1 0 0 1 339 1556)"><path d="M 54.9316 0 L 57.666 0 L 30.5664 -70.459 L 28.0762 -70.459 L 0.976562 0 L 3.66211 0 L 12.9395 -24.4629 L 45.7031 -24.4629 Z M 29.1992 -67.0898 L 29.4434 -67.0898 L 44.8242 -26.709 L 13.8184 -26.709 Z"/></g><line id="Baseline-L" style="fill:none;stroke:#27AAE1;opacity:1;stroke-width:0.577;" x1="263" x2="3036" y1="1556" y2="1556"/><line id="Capline-L" style="fill:none;stroke:#27AAE1;opacity:1;stroke-width:0.577;" x1="263" x2="3036" y1="1485.54" y2="1485.54"/><rect height="119.336" id="left-margin" style="fill:darkred;stroke:none;opacity:0.4;" width="12.4512" x="1394.06" y="1030.79"/><rect height="119.336" id="right-margin" style="fill:darkgreen;stroke:none;opacity:0.4;" width="12.4512" x="1502.5112" y="1030.79"/><rect x="1406.5112" y="1045" width="96" height="96" fill="none" stroke="blue" stroke-dasharray="5"/><rect x="1394.06" y="1030.79" width="120.9024" height="119.336" fill="none" stroke="blue"/></g><g id="Symbols"><g id="Bold-L" transform="matrix(1 0 0 1 2266 1556)"><path d="M113.198 -58.289 H122.389 V-67.48 H113.198 V-58.289 Z M118.163 35.881 Q105.619 35.881 96.669 26.902 Q87.72 17.922 87.72 5.624 Q87.72 -7.243 96.654 -16.237 Q105.588 -25.232 118.263 -25.232 Q130.774 -25.232 139.723 -16.262 Q148.673 -7.292 148.673 5.541 Q148.673 17.983 139.69 26.932 Q130.707 35.881 118.163 35.881 Z M114.004 27.98 H122.873 V9.92 H140.933 V1.213 H122.873 V-16.847 H114.004 V1.213 H95.944 V9.92 H114.004 V27.98 Z M150.608 -18.782 Q144.641 -26.361 136.161 -30.634 Q127.68 -34.907 118.196 -34.907 Q114.633 -34.907 111.09 -34.209 Q107.548 -33.51 104.168 -32.166 V-46.195 L64.661 -74.091 V-94.409 H150.608 V-18.782 Z M4.192 23.949 V-40.874 L49.343 -72.962 L94.009 -40.874 V-26.522 Q86.253 -20.524 82.149 -12.317 Q78.045 -4.109 78.045 5.514 Q78.045 10.315 79.174 15.116 Q80.303 19.918 82.721 23.949 H62.081 V-14.429 H36.443 V23.949 H4.192 Z"/></g><g id="Semibold-L" transform="matrix(1 0 0 1 1970.27 1556)"><path d="M113.057 -58.219 H123.37 V-68.532 H113.057 V-58.219 Z M118.168 35.531 Q105.829 35.531 97.02 26.695 Q88.211 17.859 88.211 5.765 Q88.211 -6.822 97 -15.677 Q105.789 -24.531 118.258 -24.531 Q130.563 -24.531 139.373 -15.701 Q148.182 -6.872 148.182 5.717 Q148.182 17.912 139.344 26.722 Q130.506 35.531 118.168 35.531 Z M114.635 26.788 H122.171 V9.499 H139.46 V2.054 H122.171 V-15.235 H114.635 V2.054 H97.346 V9.499 H114.635 V26.788 Z M150.818 -17.24 Q145.062 -25.169 136.476 -29.688 Q127.89 -34.206 118.196 -34.206 Q114.601 -34.206 111.022 -33.508 Q107.443 -32.809 104.027 -31.465 V-46.616 L64.591 -74.302 V-95.11 H150.818 V-17.24 Z M4.052 24.58 V-40.944 L49.623 -73.453 L94.85 -40.944 V-26.102 Q87.031 -20.398 82.783 -12.183 Q78.536 -3.968 78.536 5.677 Q78.536 10.678 79.77 15.508 Q81.004 20.338 83.562 24.58 H62.572 V-14.078 H36.513 V24.58 H4.052 Z"/></g><g id="Medium-L" transform="matrix(1 0 0 1 1674.31 1556)"><path d="M112.952 -58.166 H124.106 V-69.32 H112.952 V-58.166 Z M118.171 35.268 Q105.987 35.268 97.283 26.54 Q88.579 17.811 88.579 5.87 Q88.579 -6.507 97.259 -15.256 Q105.939 -24.006 118.255 -24.006 Q130.406 -24.006 139.11 -15.281 Q147.814 -6.556 147.814 5.848 Q147.814 17.86 139.085 26.564 Q130.355 35.268 118.171 35.268 Z M115.108 25.894 H121.646 V9.184 H138.356 V2.685 H121.646 V-14.026 H115.108 V2.685 H98.397 V9.184 H115.108 V25.894 Z M150.976 -16.083 Q145.377 -24.275 136.713 -28.978 Q128.048 -33.681 118.196 -33.681 Q114.577 -33.681 110.971 -32.982 Q107.364 -32.283 103.922 -30.939 V-46.931 L64.539 -74.459 V-95.636 H150.976 V-16.083 Z M3.947 25.053 V-40.996 L49.833 -73.821 L95.481 -40.996 V-25.786 Q87.615 -20.303 83.259 -12.083 Q78.904 -3.863 78.904 5.799 Q78.904 10.951 80.217 15.802 Q81.529 20.654 84.193 25.053 H62.94 V-13.815 H36.565 V25.053 H3.947 Z"/></g><g id="Regular-L" transform="matrix(1 0 0 1 1378.56 1556)"><path d="M112.875 -58.127 H124.646 V-69.899 H112.875 V-58.127 Z M118.174 35.075 Q106.103 35.075 97.476 26.426 Q88.849 17.776 88.849 5.947 Q88.849 -6.275 97.449 -14.947 Q106.05 -23.62 118.252 -23.62 Q130.29 -23.62 138.917 -14.972 Q147.544 -6.325 147.544 5.945 Q147.544 17.821 138.894 26.448 Q130.245 35.075 118.174 35.075 Z M115.455 25.239 H121.26 V8.953 H137.546 V3.148 H121.26 V-13.139 H115.455 V3.148 H99.169 V8.953 H115.455 V25.239 Z M151.091 -15.235 Q145.609 -23.62 136.886 -28.457 Q128.164 -33.295 118.196 -33.295 Q114.56 -33.295 110.933 -32.596 Q107.306 -31.897 103.845 -30.554 V-47.162 L64.5 -74.575 V-96.021 H151.091 V-15.235 Z M3.87 25.4 V-41.035 L49.988 -74.091 L95.944 -41.035 V-25.555 Q88.043 -20.234 83.608 -12.01 Q79.174 -3.786 79.174 5.889 Q79.174 11.15 80.544 16.018 Q81.915 20.885 84.656 25.4 H63.21 V-13.622 H36.604 V25.4 H3.87 Z"/></g><g id="Light-L" transform="matrix(1 0 0 1 1082.77 1556)"><path d="M112.875 -57.879 H124.026 V-69.03 H112.875 V-57.879 Z M117.645 31.85 Q106.658 31.85 98.839 24.038 Q91.02 16.226 91.02 5.389 Q91.02 -5.737 98.813 -13.593 Q106.605 -21.449 117.724 -21.449 Q128.677 -21.449 136.467 -13.618 Q144.257 -5.786 144.257 5.386 Q144.257 16.271 136.444 24.06 Q128.632 31.85 117.645 31.85 Z M115.021 23.998 H120.392 V8.146 H136.244 V2.775 H120.392 V-13.077 H115.021 V2.775 H99.169 V8.146 H115.021 V23.998 Z M147.866 -19.018 Q142.632 -26.163 134.626 -30.318 Q126.621 -34.473 117.638 -34.473 Q113.754 -34.473 109.879 -33.713 Q106.004 -32.952 102.294 -31.546 V-46.232 L65.554 -71.908 V-92.796 H147.866 V-19.018 Z M7.095 22.175 V-39.857 L50.36 -70.804 L93.525 -39.857 V-25.679 Q86.058 -20.234 82.027 -12.102 Q77.995 -3.971 77.995 5.331 Q77.995 10.054 79.102 14.071 Q80.208 18.088 82.423 22.175 H63.086 V-14.677 H37.472 V22.175 H7.095 Z"/></g><g id="Thin-L" transform="matrix(1 0 0 1 787.282 1556)"><path d="M112.875 -57.631 H123.406 V-68.162 H112.875 V-57.631 Z M117.117 28.625 Q107.214 28.625 100.202 21.65 Q93.19 14.675 93.19 4.83 Q93.19 -5.198 100.176 -12.239 Q107.161 -19.279 117.195 -19.279 Q127.065 -19.279 134.017 -12.263 Q140.97 -5.248 140.97 4.828 Q140.97 14.72 133.995 21.673 Q127.02 28.625 117.117 28.625 Z M114.587 22.758 H119.523 V7.34 H134.941 V2.403 H119.523 V-13.015 H114.587 V2.403 H99.169 V7.34 H114.587 V22.758 Z M144.641 -22.801 Q139.655 -28.706 132.367 -32.179 Q125.078 -35.652 117.08 -35.652 Q112.948 -35.652 108.825 -34.829 Q104.702 -34.006 100.744 -32.538 V-45.302 L66.609 -69.241 V-89.571 H144.641 V-22.801 Z M10.32 18.95 V-38.678 L50.732 -67.517 L91.106 -38.678 V-25.803 Q84.073 -20.234 80.445 -12.195 Q76.817 -4.156 76.817 4.772 Q76.817 8.958 77.659 12.124 Q78.502 15.291 80.191 18.95 H62.962 V-15.731 H38.34 V18.95 H10.32 Z"/></g><g id="Ultralight-L" transform="matrix(1 0 0 1 491.205 1556)"><path d="M112.875 -57.482 H123.034 V-67.641 H112.875 V-57.482 Z M116.8 26.69 Q107.547 26.69 101.02 20.217 Q94.493 13.745 94.493 4.496 Q94.493 -4.875 100.994 -11.426 Q107.495 -17.976 116.878 -17.976 Q126.097 -17.976 132.548 -11.451 Q138.998 -4.925 138.998 4.493 Q138.998 13.79 132.525 20.24 Q126.053 26.69 116.8 26.69 Z M114.326 22.014 H119.002 V6.856 H134.16 V2.18 H119.002 V-12.977 H114.326 V2.18 H99.169 V6.856 H114.326 V22.014 Z M142.706 -25.071 Q137.869 -30.231 131.011 -33.295 Q124.153 -36.359 116.745 -36.359 Q112.464 -36.359 108.192 -35.499 Q103.92 -34.639 99.814 -33.134 V-44.744 L67.241 -67.641 V-87.636 H142.706 V-25.071 Z M12.255 17.015 V-37.971 L50.955 -65.545 L89.655 -37.971 V-25.877 Q82.883 -20.234 79.496 -12.25 Q76.11 -4.266 76.11 4.438 Q76.11 8.3 76.794 10.957 Q77.478 13.613 78.851 17.015 H62.888 V-16.364 H38.861 V17.015 H12.255 Z"/></g><g id="Bold-M" transform="matrix(1 0 0 1 2281.8 1126)"><path d="M86.125 -50.105 H97.375 V-61.355 H86.125 V-50.105 Z M89.993 19.395 Q79.875 19.395 72.75 12.266 Q65.625 5.137 65.625 -4.978 Q65.625 -15.23 72.757 -22.355 Q79.888 -29.48 90.007 -29.48 Q100.125 -29.48 107.25 -22.357 Q114.375 -15.233 114.375 -5.044 Q114.375 5.145 107.243 12.27 Q100.112 19.395 89.993 19.395 Z M85.375 11.145 H94.5 V-0.48 H106.125 V-9.48 H94.5 V-21.105 H85.375 V-9.48 H73.75 V-0.48 H85.375 V11.145 Z M119.375 -23.23 Q114.375 -30.73 106.625 -35.105 Q98.875 -39.48 90 -39.48 Q89 -39.48 88.06 -39.438 Q87.121 -39.397 86.125 -39.23 V-46.73 L48.5 -73.98 V-83.73 H119.375 V-23.23 Z M0.375 13.145 V-41.855 L38.875 -69.105 L77.125 -41.855 V-36.98 Q67.375 -32.855 61.5 -24.355 Q55.625 -15.855 55.625 -4.98 Q55.625 -0.1 56.938 4.46 Q58.25 9.02 60.875 13.145 H49.125 V-22.605 H28.625 V13.145 H0.375 Z"/></g><g id="Semibold-M" transform="matrix(1 0 0 1 1985.97 1126)"><path d="M85.908 -50.051 H98.027 V-62.17 H85.908 V-50.051 Z M89.997 19.123 Q80.038 19.123 73.022 12.105 Q66.005 5.088 66.005 -4.869 Q66.005 -14.904 73.025 -21.92 Q80.044 -28.936 90.003 -28.936 Q99.962 -28.936 106.978 -21.922 Q113.995 -14.907 113.995 -4.908 Q113.995 5.091 106.975 12.107 Q99.956 19.123 89.997 19.123 Z M86.082 10.004 H93.739 V-1.023 H104.766 V-8.61 H93.739 V-19.638 H86.082 V-8.61 H75.054 V-1.023 H86.082 V10.004 Z M119.266 -22.36 Q114.484 -30.023 106.707 -34.48 Q98.929 -38.936 90 -38.936 Q88.946 -38.936 87.952 -38.895 Q86.958 -38.853 85.908 -38.686 V-47.002 L48.554 -73.926 V-84.056 H119.266 V-22.36 Z M0.592 13.417 V-41.801 L39.201 -69.268 L77.668 -41.801 V-36.6 Q67.918 -32.692 61.962 -24.165 Q56.005 -15.638 56.005 -4.871 Q56.005 0.116 57.345 4.649 Q58.685 9.183 61.419 13.417 H49.614 V-22.116 H28.788 V13.417 H0.592 Z"/></g><g id="Medium-M" transform="matrix(1 0 0 1 1689.91 1126)"><path d="M85.745 -50.01 H98.516 V-62.782 H85.745 V-50.01 Z M90 18.92 Q80.16 18.92 73.225 11.985 Q66.291 5.051 66.291 -4.788 Q66.291 -14.659 73.226 -21.594 Q80.161 -28.529 90 -28.529 Q99.84 -28.529 106.775 -21.596 Q113.709 -14.663 113.709 -4.806 Q113.709 5.05 106.774 11.985 Q99.839 18.92 90 18.92 Z M86.611 9.148 H93.168 V-1.431 H103.747 V-7.958 H93.168 V-18.537 H86.611 V-7.958 H76.033 V-1.431 H86.611 V9.148 Z M119.185 -21.708 Q114.565 -29.494 106.768 -34.011 Q98.97 -38.529 90 -38.529 Q88.905 -38.529 87.87 -38.487 Q86.835 -38.446 85.745 -38.279 V-47.205 L48.595 -73.885 V-84.301 H119.185 V-21.708 Z M0.755 13.621 V-41.76 L39.446 -69.39 L78.076 -41.76 V-36.314 Q68.326 -32.57 62.308 -24.022 Q56.291 -15.475 56.291 -4.79 Q56.291 0.277 57.651 4.791 Q59.011 9.305 61.826 13.621 H49.981 V-21.749 H28.91 V13.621 H0.755 Z"/></g><g id="Regular-M" transform="matrix(1 0 0 1 1394.06 1126)"><path d="M85.625 -49.98 H98.875 V-63.23 H85.625 V-49.98 Z M90.002 18.77 Q80.25 18.77 73.375 11.897 Q66.5 5.024 66.5 -4.728 Q66.5 -14.48 73.373 -21.355 Q80.246 -28.23 89.998 -28.23 Q99.75 -28.23 106.625 -21.357 Q113.5 -14.483 113.5 -4.732 Q113.5 5.02 106.627 11.895 Q99.754 18.77 90.002 18.77 Z M87 8.52 H92.75 V-1.73 H103 V-7.48 H92.75 V-17.73 H87 V-7.48 H76.75 V-1.73 H87 V8.52 Z M119.125 -21.23 Q114.625 -29.105 106.812 -33.667 Q99 -38.23 90 -38.23 Q88.875 -38.23 87.81 -38.188 Q86.746 -38.147 85.625 -37.98 V-47.355 L48.625 -73.855 V-84.48 H119.125 V-21.23 Z M0.875 13.77 V-41.73 L39.625 -69.48 L78.375 -41.73 V-36.105 Q68.625 -32.48 62.562 -23.917 Q56.5 -15.355 56.5 -4.73 Q56.5 0.395 57.875 4.895 Q59.25 9.395 62.125 13.77 H50.25 V-21.48 H29 V13.77 H0.875 Z"/></g><g id="Light-M" transform="matrix(1 0 0 1 1098.18 1126)"><path d="M86.202 -50.557 H98.298 V-62.653 H86.202 V-50.557 Z M90.002 16.27 Q81.26 16.27 75.13 10.142 Q69 4.014 69 -4.728 Q69 -13.47 75.128 -19.6 Q81.256 -25.73 89.998 -25.73 Q98.74 -25.73 104.87 -19.602 Q111 -13.474 111 -4.732 Q111 4.01 104.872 10.14 Q98.744 16.27 90.002 16.27 Z M87.288 8.232 H92.462 V-2.018 H102.712 V-7.191 H92.462 V-17.441 H87.288 V-7.191 H77.038 V-2.018 H87.288 V8.232 Z M116.625 -22.624 Q112.461 -29.538 105.298 -33.595 Q98.135 -37.653 90 -37.653 Q88.25 -37.653 86.536 -37.443 Q84.823 -37.233 83.125 -36.778 V-46.105 L49.587 -70.057 V-81.98 H116.625 V-22.624 Z M3.375 11.27 V-40.48 L39.625 -66.403 L75.875 -40.48 V-33.845 Q67.375 -30.076 62.226 -22.211 Q57.077 -14.345 57.077 -4.73 Q57.077 -0.134 58.236 3.597 Q59.394 7.328 61.837 11.27 H49.865 V-21.672 H29.385 V11.27 H3.375 Z"/></g><g id="Thin-M" transform="matrix(1 0 0 1 802.565 1126)"><path d="M86.779 -51.134 H97.721 V-62.076 H86.779 V-51.134 Z M90.002 13.77 Q82.269 13.77 76.885 8.387 Q71.5 3.004 71.5 -4.728 Q71.5 -12.461 76.883 -17.845 Q82.266 -23.23 89.998 -23.23 Q97.731 -23.23 103.115 -17.847 Q108.5 -12.464 108.5 -4.732 Q108.5 3.001 103.117 8.385 Q97.734 13.77 90.002 13.77 Z M87.577 7.943 H92.173 V-2.307 H102.423 V-6.903 H92.173 V-17.153 H87.577 V-6.903 H77.327 V-2.307 H87.577 V7.943 Z M114.125 -24.018 Q110.298 -29.97 103.784 -33.523 Q97.269 -37.076 90 -37.076 Q87.625 -37.076 85.262 -36.698 Q82.9 -36.32 80.625 -35.576 V-44.855 L50.548 -66.259 V-79.48 H114.125 V-24.018 Z M5.875 8.77 V-39.23 L39.625 -63.326 L73.375 -39.23 V-31.586 Q66.125 -27.672 61.889 -20.504 Q57.654 -13.336 57.654 -4.73 Q57.654 -0.663 58.596 2.299 Q59.538 5.26 61.548 8.77 H49.481 V-21.865 H29.769 V8.77 H5.875 Z"/></g><g id="Ultralight-M" transform="matrix(1 0 0 1 506.415 1126)"><path d="M87.125 -51.48 H97.375 V-61.73 H87.125 V-51.48 Z M90.002 12.27 Q82.875 12.27 77.938 7.334 Q73 2.399 73 -4.728 Q73 -11.855 77.936 -16.792 Q82.871 -21.73 89.998 -21.73 Q97.125 -21.73 102.062 -16.794 Q107 -11.858 107 -4.732 Q107 2.395 102.064 7.333 Q97.129 12.27 90.002 12.27 Z M87.75 7.77 H92 V-2.48 H102.25 V-6.73 H92 V-16.98 H87.75 V-6.73 H77.5 V-2.48 H87.75 V7.77 Z M112.625 -24.855 Q109 -30.23 102.875 -33.48 Q96.75 -36.73 90 -36.73 Q87.25 -36.73 84.498 -36.251 Q81.746 -35.772 79.125 -34.855 V-44.105 L51.125 -63.98 V-77.98 H112.625 V-24.855 Z M7.375 7.27 V-38.48 L39.625 -61.48 L71.875 -38.48 V-30.23 Q65.375 -26.23 61.688 -19.48 Q58 -12.73 58 -4.73 Q58 -0.98 58.812 1.52 Q59.625 4.02 61.375 7.27 H49.25 V-21.98 H30 V7.27 H7.375 Z"/></g><g id="Bold-S" transform="matrix(1 0 0 1 2294.23 696)"><path d="M69.531 -46.966 H77.618 V-55.054 H69.531 V-46.966 Z M70.982 7.08 Q63.317 7.08 57.942 1.679 Q52.567 -3.721 52.567 -11.384 Q52.567 -19.154 57.97 -24.529 Q63.372 -29.904 71.038 -29.904 Q78.703 -29.904 84.078 -24.508 Q89.453 -19.112 89.453 -11.391 Q89.453 -3.67 84.05 1.705 Q78.648 7.08 70.982 7.08 Z M66.966 -1.007 H74.955 V-7.418 H81.366 V-15.308 H74.955 V-21.718 H66.966 V-15.308 H60.556 V-7.418 H66.966 V-1.007 Z M93.398 -24.283 Q89.847 -30.101 83.782 -33.553 Q77.716 -37.005 71.01 -37.005 Q69.317 -37.005 67.795 -36.775 Q66.273 -36.545 64.797 -36.118 V-44.698 L39.056 -63.535 V-71.129 H93.398 V-24.283 Z M1.085 0.571 V-41.246 L29.883 -61.957 L58.485 -41.246 V-33.455 Q52.271 -30.299 48.869 -24.332 Q45.466 -18.365 45.466 -11.363 Q45.466 -8.4 46.354 -5.147 Q47.241 -1.895 48.721 0.571 H37.182 V-22.902 H22.585 V0.571 H1.085 Z"/></g><g id="Semibold-S" transform="matrix(1 0 0 1 1998.1 696)"><path d="M69.359 -46.923 H78.132 V-55.697 H69.359 V-46.923 Z M70.985 6.866 Q63.446 6.866 58.157 1.553 Q52.867 -3.76 52.867 -11.298 Q52.867 -18.897 58.181 -24.186 Q63.495 -29.475 71.035 -29.475 Q78.574 -29.475 83.863 -24.165 Q89.153 -18.855 89.153 -11.284 Q89.153 -3.713 83.839 1.576 Q78.525 6.866 70.985 6.866 Z M67.524 -1.908 H74.355 V-7.847 H80.294 V-14.622 H74.355 V-20.561 H67.524 V-14.622 H61.585 V-7.847 H67.524 V-1.908 Z M93.312 -23.597 Q89.933 -29.544 83.846 -33.06 Q77.759 -36.576 71.01 -36.576 Q69.274 -36.576 67.709 -36.346 Q66.144 -36.116 64.625 -35.689 V-44.912 L39.098 -63.492 V-71.387 H93.312 V-23.597 Z M1.256 0.785 V-41.203 L30.141 -62.086 L58.913 -41.203 V-33.155 Q52.7 -30.17 49.233 -24.182 Q45.766 -18.194 45.766 -11.277 Q45.766 -8.23 46.675 -4.998 Q47.584 -1.766 49.15 0.785 H37.568 V-22.516 H22.714 V0.785 H1.256 Z"/></g><g id="Medium-S" transform="matrix(1 0 0 1 1701.85 696)"><path d="M69.231 -46.891 H78.518 V-56.179 H69.231 V-46.891 Z M70.988 6.705 Q63.542 6.705 58.317 1.458 Q53.092 -3.789 53.092 -11.234 Q53.092 -18.704 58.34 -23.929 Q63.587 -29.154 71.032 -29.154 Q78.478 -29.154 83.703 -23.908 Q88.928 -18.662 88.928 -11.204 Q88.928 -3.745 83.68 1.48 Q78.433 6.705 70.988 6.705 Z M67.942 -2.583 H73.904 V-8.168 H79.49 V-14.107 H73.904 V-19.692 H67.942 V-14.107 H62.357 V-8.168 H67.942 V-2.583 Z M93.248 -23.082 Q89.997 -29.126 83.894 -32.69 Q77.792 -36.255 71.01 -36.255 Q69.242 -36.255 67.645 -36.025 Q66.047 -35.795 64.497 -35.367 V-45.073 L39.131 -63.46 V-71.58 H93.248 V-23.082 Z M1.385 0.946 V-41.171 L30.334 -62.183 L59.235 -41.171 V-32.929 Q53.022 -30.074 49.506 -24.069 Q45.991 -18.065 45.991 -11.213 Q45.991 -8.103 46.917 -4.886 Q47.842 -1.67 49.471 0.946 H37.857 V-22.226 H22.81 V0.946 H1.385 Z"/></g><g id="Regular-S" transform="matrix(1 0 0 1 1405.73 696)"><path d="M69.136 -46.868 H78.801 V-56.533 H69.136 V-46.868 Z M70.989 6.587 Q63.613 6.587 58.435 1.388 Q53.258 -3.81 53.258 -11.186 Q53.258 -18.562 58.456 -23.74 Q63.655 -28.918 71.031 -28.918 Q78.407 -28.918 83.585 -23.719 Q88.763 -18.521 88.763 -11.145 Q88.763 -3.769 83.564 1.409 Q78.365 6.587 70.989 6.587 Z M68.249 -3.078 H73.574 V-8.404 H78.9 V-13.73 H73.574 V-19.055 H68.249 V-13.73 H62.923 V-8.404 H68.249 V-3.078 Z M93.201 -22.705 Q90.045 -28.819 83.93 -32.419 Q77.815 -36.019 71.01 -36.019 Q69.218 -36.019 67.597 -35.789 Q65.977 -35.559 64.402 -35.131 V-45.191 L39.154 -63.437 V-71.721 H93.201 V-22.705 Z M1.479 1.064 V-41.147 L30.475 -62.253 L59.471 -41.147 V-32.764 Q53.258 -30.003 49.707 -23.987 Q46.157 -17.971 46.157 -11.165 Q46.157 -8.009 47.093 -4.804 Q48.03 -1.599 49.707 1.064 H38.069 V-22.014 H22.881 V1.064 H1.479 Z"/></g><g id="Light-S" transform="matrix(1 0 0 1 1109.75 696)"><path d="M69.591 -47.323 H78.346 V-56.078 H69.591 V-47.323 Z M70.989 4.614 Q64.41 4.614 59.82 0.004 Q55.23 -4.607 55.23 -11.186 Q55.23 -17.766 59.841 -22.356 Q64.452 -26.945 71.031 -26.945 Q77.61 -26.945 82.2 -22.335 Q86.79 -17.724 86.79 -11.145 Q86.79 -4.565 82.179 0.025 Q77.568 4.614 70.989 4.614 Z M68.476 -3.306 H73.347 V-8.632 H78.672 V-13.502 H73.347 V-18.828 H68.476 V-13.502 H63.15 V-8.632 H68.476 V-3.306 Z M91.228 -23.805 Q88.338 -29.161 82.735 -32.362 Q77.132 -35.564 71.01 -35.564 Q68.725 -35.564 66.592 -35.201 Q64.459 -34.838 62.43 -34.183 V-44.205 L39.913 -60.44 V-69.749 H91.228 V-23.805 Z M3.452 -0.909 V-40.161 L30.475 -59.825 L57.498 -40.161 V-30.981 Q52.271 -28.106 49.441 -22.64 Q46.612 -17.174 46.612 -11.165 Q46.612 -8.427 47.378 -5.828 Q48.144 -3.23 49.479 -0.909 H37.766 V-22.166 H23.184 V-0.909 H3.452 Z"/></g><g id="Thin-S" transform="matrix(1 0 0 1 814.015 696)"><path d="M70.047 -47.778 H77.891 V-55.623 H70.047 V-47.778 Z M70.989 2.642 Q65.206 2.642 61.204 -1.381 Q57.203 -5.404 57.203 -11.186 Q57.203 -16.969 61.225 -20.971 Q65.248 -24.973 71.031 -24.973 Q76.814 -24.973 80.816 -20.95 Q84.818 -16.927 84.818 -11.145 Q84.818 -5.362 80.795 -1.36 Q76.772 2.642 70.989 2.642 Z M68.704 -3.533 H73.119 V-8.859 H78.445 V-13.275 H73.119 V-18.6 H68.704 V-13.275 H63.378 V-8.859 H68.704 V-3.533 Z M89.256 -24.905 Q86.631 -29.502 81.54 -32.305 Q76.45 -35.109 71.01 -35.109 Q68.232 -35.109 65.587 -34.613 Q62.942 -34.117 60.457 -33.235 V-43.219 L40.671 -57.443 V-67.776 H89.256 V-24.905 Z M5.424 -2.881 V-39.175 L30.475 -57.398 L55.526 -39.175 V-29.199 Q51.285 -26.21 49.176 -21.293 Q47.067 -16.377 47.067 -11.165 Q47.067 -8.844 47.662 -6.853 Q48.258 -4.861 49.252 -2.881 H37.462 V-22.318 H23.488 V-2.881 H5.424 Z"/></g><g id="Ultralight-S" transform="matrix(1 0 0 1 517.792 696)"><path d="M70.32 -48.051 H77.618 V-55.349 H70.32 V-48.051 Z M70.989 1.459 Q65.684 1.459 62.035 -2.212 Q58.386 -5.882 58.386 -11.186 Q58.386 -16.491 62.056 -20.14 Q65.726 -23.789 71.031 -23.789 Q76.336 -23.789 79.985 -20.119 Q83.634 -16.449 83.634 -11.145 Q83.634 -5.84 79.964 -2.191 Q76.294 1.459 70.989 1.459 Z M68.84 -3.67 H72.983 V-8.996 H78.308 V-13.138 H72.983 V-18.464 H68.84 V-13.138 H63.515 V-8.996 H68.84 V-3.67 Z M88.072 -25.565 Q85.606 -29.707 80.823 -32.271 Q76.04 -34.835 71.01 -34.835 Q67.936 -34.835 64.984 -34.26 Q62.032 -33.685 59.274 -32.666 V-42.627 L41.127 -55.645 V-66.593 H88.072 V-25.565 Z M6.608 -4.064 V-38.583 L30.475 -55.941 L54.342 -38.583 V-28.129 Q50.693 -25.072 49.017 -20.486 Q47.34 -15.899 47.34 -11.165 Q47.34 -9.094 47.833 -7.467 Q48.326 -5.84 49.115 -4.064 H37.28 V-22.409 H23.67 V-4.064 H6.608 Z"/></g></g></svg>