<svg xmlns="http://www.w3.org/2000/svg" version="1.1" width="3300" height="2000"><g id="Notes"><style>
    text {
      font-family: monospace;
      text-anchor: middle;
    }
    text.emphasis {
      font-weight:bold;
    }
    text.lanchor {
      text-anchor: start;
    }
  </style><rect height="2200" id="artboard" fill="white" width="3300" x="0" y="0"/><line id="" style="fill:none;stroke:black;stroke-width:0.5;" x1="263" x2="3036" y1="292" y2="292"/><text class="lanchor emphasis" transform="matrix(1 0 0 1 263 322)">Weight/Scale Variations</text><text transform="matrix(1 0 0 1 559.711 322)">Ultralight</text><text transform="matrix(1 0 0 1 856.422 322)">Thin</text><text transform="matrix(1 0 0 1 1153.13 322)">Light</text><text transform="matrix(1 0 0 1 1449.84 322)">Regular</text><text transform="matrix(1 0 0 1 1746.56 322)">Medium</text><text transform="matrix(1 0 0 1 2043.27 322)">Semibold</text><text transform="matrix(1 0 0 1 2339.98 322)">Bold</text><text transform="matrix(1 0 0 1 2636.69 322)">Heavy</text><text transform="matrix(1 0 0 1 2933.4 322)">Black</text><text id="template-version" style="text-anchor: end;" transform="matrix(1 0 0 1 3036 1933)">Template v.1.0</text><text class="lanchor" transform="matrix(1 0 0 1 263 726)">Small</text><text class="lanchor" transform="matrix(1 0 0 1 263 1156)">Medium</text><text class="lanchor" transform="matrix(1 0 0 1 263 1586)">Large</text></g><g id="Guides"><g id="H-reference" style="fill:#27AAE1;stroke:none;" transform="matrix(1 0 0 1 339 696)"><path d="M 54.9316 0 L 57.666 0 L 30.5664 -70.459 L 28.0762 -70.459 L 0.976562 0 L 3.66211 0 L 12.9395 -24.4629 L 45.7031 -24.4629 Z M 29.1992 -67.0898 L 29.4434 -67.0898 L 44.8242 -26.709 L 13.8184 -26.709 Z"/></g><line id="Baseline-S" style="fill:none;stroke:#27AAE1;opacity:1;stroke-width:0.577;" x1="263" x2="3036" y1="696" y2="696"/><line id="Capline-S" style="fill:none;stroke:#27AAE1;opacity:1;stroke-width:0.577;" x1="263" x2="3036" y1="625.541" y2="625.541"/><g id="H-reference" style="fill:#27AAE1;stroke:none;" transform="matrix(1 0 0 1 339 1126)"><path d="M 54.9316 0 L 57.666 0 L 30.5664 -70.459 L 28.0762 -70.459 L 0.976562 0 L 3.66211 0 L 12.9395 -24.4629 L 45.7031 -24.4629 Z M 29.1992 -67.0898 L 29.4434 -67.0898 L 44.8242 -26.709 L 13.8184 -26.709 Z"/></g><line id="Baseline-M" style="fill:none;stroke:#27AAE1;opacity:1;stroke-width:0.577;" x1="263" x2="3036" y1="1126" y2="1126"/><line id="Capline-M" style="fill:none;stroke:#27AAE1;opacity:1;stroke-width:0.577;" x1="263" x2="3036" y1="1055.54" y2="1055.54"/><g id="H-reference" style="fill:#27AAE1;stroke:none;" transform="matrix(1 0 0 1 339 1556)"><path d="M 54.9316 0 L 57.666 0 L 30.5664 -70.459 L 28.0762 -70.459 L 0.976562 0 L 3.66211 0 L 12.9395 -24.4629 L 45.7031 -24.4629 Z M 29.1992 -67.0898 L 29.4434 -67.0898 L 44.8242 -26.709 L 13.8184 -26.709 Z"/></g><line id="Baseline-L" style="fill:none;stroke:#27AAE1;opacity:1;stroke-width:0.577;" x1="263" x2="3036" y1="1556" y2="1556"/><line id="Capline-L" style="fill:none;stroke:#27AAE1;opacity:1;stroke-width:0.577;" x1="263" x2="3036" y1="1485.54" y2="1485.54"/><rect height="119.336" id="left-margin" style="fill:darkred;stroke:none;opacity:0.4;" width="12.4512" x="1394.06" y="1030.79"/><rect height="119.336" id="right-margin" style="fill:darkgreen;stroke:none;opacity:0.4;" width="12.4512" x="1502.5112" y="1030.79"/><rect x="1406.5112" y="1045" width="96" height="96" fill="none" stroke="blue" stroke-dasharray="5"/><rect x="1394.06" y="1030.79" width="120.9024" height="119.336" fill="none" stroke="blue"/></g><g id="Symbols"><g id="Bold-L" transform="matrix(1 0 0 1 2266 1556)"><path d="M30.879 22.981 V-19.266 H30.154 Q27.231 -19.266 25.145 -21.353 Q23.059 -23.439 23.059 -26.361 V-55.789 Q23.059 -60.324 26.478 -63.74 Q29.897 -67.157 34.393 -67.157 H54.522 Q59.017 -67.157 62.444 -63.74 Q65.871 -60.324 65.871 -55.789 V-26.361 Q65.871 -23.439 63.778 -21.353 Q61.686 -19.266 58.856 -19.266 H58.05 V22.981 Q58.05 26.085 55.887 28.242 Q53.724 30.399 50.713 30.399 H38.297 Q35.193 30.399 33.036 28.242 Q30.879 26.085 30.879 22.981 Z M44.524 -74.011 Q38.861 -74.011 34.951 -77.868 Q31.041 -81.726 31.041 -87.342 Q31.041 -92.957 34.938 -96.868 Q38.836 -100.778 44.499 -100.778 Q50.162 -100.778 54.066 -96.921 Q57.969 -93.063 57.969 -87.447 Q57.969 -81.831 54.078 -77.921 Q50.187 -74.011 44.524 -74.011 Z M101.588 22.981 V-5.963 H94.469 Q90.615 -5.963 88.442 -8.825 Q86.269 -11.687 87.156 -15.316 L98.685 -58.127 Q100.036 -62.335 103.677 -64.746 Q107.317 -67.157 111.84 -67.157 Q116.363 -67.157 120.124 -64.746 Q123.886 -62.335 125.13 -58.127 L136.659 -15.316 Q137.708 -11.687 135.439 -8.825 Q133.171 -5.963 129.526 -5.963 H122.308 V22.981 Q122.308 26.085 120.151 28.242 Q117.995 30.399 114.891 30.399 H108.924 Q105.82 30.399 103.704 28.242 Q101.588 26.085 101.588 22.981 Z M111.914 -74.011 Q106.251 -74.011 102.347 -77.868 Q98.443 -81.726 98.443 -87.342 Q98.443 -92.957 102.334 -96.868 Q106.225 -100.778 111.888 -100.778 Q117.551 -100.778 121.462 -96.921 Q125.372 -93.063 125.372 -87.447 Q125.372 -81.831 121.474 -77.921 Q117.577 -74.011 111.914 -74.011 Z"/></g><g id="Semibold-L" transform="matrix(1 0 0 1 1970.27 1556)"><path d="M32.492 23.402 V-19.266 H30.715 Q28.204 -19.266 26.437 -21.033 Q24.671 -22.799 24.671 -25.31 V-55.789 Q24.671 -60.324 28.09 -63.74 Q31.509 -67.157 36.005 -67.157 H54.522 Q59.017 -67.157 62.444 -63.74 Q65.871 -60.324 65.871 -55.789 V-25.31 Q65.871 -22.799 64.098 -21.033 Q62.326 -19.266 59.908 -19.266 H58.05 V23.402 Q58.05 26.015 56.238 27.821 Q54.426 29.628 51.905 29.628 H38.718 Q36.104 29.628 34.298 27.821 Q32.492 26.015 32.492 23.402 Z M45.328 -74.782 Q40.053 -74.782 36.353 -78.446 Q32.653 -82.111 32.653 -87.359 Q32.653 -92.607 36.34 -96.307 Q40.027 -100.007 45.302 -100.007 Q50.577 -100.007 54.273 -96.342 Q57.969 -92.678 57.969 -87.43 Q57.969 -82.182 54.286 -78.482 Q50.602 -74.782 45.328 -74.782 Z M101.588 23.402 V-7.575 H93.067 Q89.914 -7.575 88.091 -9.982 Q86.269 -12.389 87.015 -15.386 L98.685 -58.688 Q99.966 -62.685 103.361 -64.921 Q106.757 -67.157 111.069 -67.157 Q115.381 -67.157 118.862 -64.921 Q122.344 -62.685 123.518 -58.688 L135.187 -15.386 Q136.025 -12.389 134.148 -9.982 Q132.272 -7.575 129.246 -7.575 H120.696 V23.402 Q120.696 26.015 118.889 27.821 Q117.083 29.628 114.47 29.628 H107.733 Q105.119 29.628 103.353 27.821 Q101.588 26.015 101.588 23.402 Z M111.11 -74.782 Q105.836 -74.782 102.139 -78.446 Q98.443 -82.111 98.443 -87.359 Q98.443 -92.607 102.127 -96.307 Q105.81 -100.007 111.085 -100.007 Q116.359 -100.007 120.059 -96.342 Q123.76 -92.678 123.76 -87.43 Q123.76 -82.182 120.072 -78.482 Q116.385 -74.782 111.11 -74.782 Z"/></g><g id="Medium-L" transform="matrix(1 0 0 1 1674.31 1556)"><path d="M33.701 23.717 V-19.266 H31.135 Q28.933 -19.266 27.407 -20.793 Q25.881 -22.319 25.881 -24.521 V-55.789 Q25.881 -60.324 29.3 -63.74 Q32.719 -67.157 37.214 -67.157 H54.522 Q59.017 -67.157 62.444 -63.74 Q65.871 -60.324 65.871 -55.789 V-24.521 Q65.871 -22.319 64.338 -20.793 Q62.806 -19.266 60.697 -19.266 H58.05 V23.717 Q58.05 25.963 56.501 27.506 Q54.951 29.049 52.799 29.049 H39.033 Q36.788 29.049 35.245 27.506 Q33.701 25.963 33.701 23.717 Z M45.93 -75.36 Q40.947 -75.36 37.405 -78.88 Q33.863 -82.4 33.863 -87.372 Q33.863 -92.344 37.392 -95.886 Q40.921 -99.428 45.905 -99.428 Q50.888 -99.428 54.429 -95.909 Q57.969 -92.389 57.969 -87.417 Q57.969 -82.445 54.442 -78.902 Q50.914 -75.36 45.93 -75.36 Z M101.588 23.717 V-8.785 H92.015 Q89.388 -8.785 87.829 -10.85 Q86.269 -12.914 86.91 -15.438 L98.685 -59.109 Q99.913 -62.948 103.125 -65.053 Q106.336 -67.157 110.49 -67.157 Q114.645 -67.157 117.916 -65.053 Q121.187 -62.948 122.308 -59.109 L134.083 -15.438 Q134.763 -12.914 133.18 -10.85 Q131.598 -8.785 129.036 -8.785 H119.486 V23.717 Q119.486 25.963 117.943 27.506 Q116.4 29.049 114.155 29.049 H106.839 Q104.593 29.049 103.091 27.506 Q101.588 25.963 101.588 23.717 Z M110.508 -75.36 Q105.525 -75.36 101.984 -78.88 Q98.443 -82.4 98.443 -87.372 Q98.443 -92.344 101.971 -95.886 Q105.499 -99.428 110.482 -99.428 Q115.465 -99.428 119.008 -95.909 Q122.55 -92.389 122.55 -87.417 Q122.55 -82.445 119.021 -78.902 Q115.491 -75.36 110.508 -75.36 Z"/></g><g id="Regular-L" transform="matrix(1 0 0 1 1378.56 1556)"><path d="M34.588 23.949 V-19.266 H31.444 Q29.468 -19.266 28.118 -20.617 Q26.768 -21.967 26.768 -23.942 V-55.789 Q26.768 -60.324 30.187 -63.74 Q33.606 -67.157 38.101 -67.157 H54.522 Q59.017 -67.157 62.444 -63.74 Q65.871 -60.324 65.871 -55.789 V-23.942 Q65.871 -21.967 64.514 -20.617 Q63.158 -19.266 61.275 -19.266 H58.05 V23.949 Q58.05 25.924 56.693 27.275 Q55.337 28.625 53.454 28.625 H39.264 Q37.289 28.625 35.939 27.275 Q34.588 25.924 34.588 23.949 Z M46.372 -75.784 Q41.602 -75.784 38.176 -79.198 Q34.749 -82.612 34.749 -87.381 Q34.749 -92.151 38.163 -95.578 Q41.577 -99.004 46.346 -99.004 Q51.116 -99.004 54.543 -95.591 Q57.969 -92.177 57.969 -87.407 Q57.969 -82.637 54.556 -79.211 Q51.142 -75.784 46.372 -75.784 Z M101.588 23.949 V-9.672 H91.244 Q89.003 -9.672 87.636 -11.486 Q86.269 -13.3 86.833 -15.477 L98.685 -59.417 Q99.875 -63.141 102.951 -65.149 Q106.027 -67.157 110.066 -67.157 Q114.105 -67.157 117.222 -65.149 Q120.338 -63.141 121.421 -59.417 L133.273 -15.477 Q133.838 -13.3 132.471 -11.486 Q131.104 -9.672 128.881 -9.672 H118.599 V23.949 Q118.599 25.924 117.249 27.275 Q115.898 28.625 113.923 28.625 H106.183 Q104.208 28.625 102.898 27.275 Q101.588 25.924 101.588 23.949 Z M110.066 -75.784 Q105.296 -75.784 101.87 -79.198 Q98.443 -82.612 98.443 -87.381 Q98.443 -92.151 101.857 -95.578 Q105.271 -99.004 110.04 -99.004 Q114.81 -99.004 118.237 -95.591 Q121.663 -92.177 121.663 -87.407 Q121.663 -82.637 118.249 -79.211 Q114.836 -75.784 110.066 -75.784 Z"/></g><g id="Light-L" transform="matrix(1 0 0 1 1082.77 1556)"><path d="M36.914 22.677 V-19.204 H33.149 Q31.191 -19.204 29.879 -20.517 Q28.566 -21.829 28.566 -23.787 V-55.448 Q28.566 -59.579 31.611 -62.624 Q34.656 -65.669 38.69 -65.669 H54.955 Q59.048 -65.669 62.103 -62.624 Q65.157 -59.579 65.157 -55.448 V-23.787 Q65.157 -21.829 63.839 -20.517 Q62.52 -19.204 60.686 -19.204 H56.81 V22.677 Q56.81 24.636 55.491 25.948 Q54.172 27.261 52.338 27.261 H41.497 Q39.539 27.261 38.227 25.948 Q36.914 24.636 36.914 22.677 Z M46.902 -73.831 Q42.378 -73.831 39.137 -77.056 Q35.897 -80.281 35.897 -84.805 Q35.897 -89.329 39.122 -92.57 Q42.347 -95.81 46.871 -95.81 Q51.395 -95.81 54.636 -92.585 Q57.876 -89.36 57.876 -84.836 Q57.876 -80.312 54.651 -77.071 Q51.426 -73.831 46.902 -73.831 Z M101.929 22.677 V-9.579 H92.329 Q90.173 -9.579 88.81 -11.3 Q87.447 -13.021 87.981 -15.198 L99.119 -58.797 Q100.124 -62.077 102.843 -63.873 Q105.562 -65.669 109.136 -65.669 Q112.71 -65.669 115.438 -63.873 Q118.166 -62.077 119.064 -58.797 L130.265 -15.198 Q130.798 -13.021 129.419 -11.3 Q128.039 -9.579 125.904 -9.579 H116.367 V22.677 Q116.367 24.636 115.054 25.948 Q113.742 27.261 111.783 27.261 H106.4 Q104.442 27.261 103.185 25.948 Q101.929 24.636 101.929 22.677 Z M109.107 -73.831 Q104.583 -73.831 101.343 -77.056 Q98.102 -80.281 98.102 -84.805 Q98.102 -89.329 101.327 -92.57 Q104.552 -95.81 109.076 -95.81 Q113.6 -95.81 116.841 -92.585 Q120.082 -89.36 120.082 -84.836 Q120.082 -80.312 116.857 -77.071 Q113.632 -73.831 109.107 -73.831 Z"/></g><g id="Thin-L" transform="matrix(1 0 0 1 787.282 1556)"><path d="M39.24 21.406 V-19.142 H34.855 Q32.914 -19.142 31.639 -20.417 Q30.365 -21.691 30.365 -23.632 V-55.107 Q30.365 -58.835 33.036 -61.508 Q35.707 -64.181 39.28 -64.181 H55.388 Q59.08 -64.181 61.762 -61.508 Q64.444 -58.835 64.444 -55.107 V-23.632 Q64.444 -21.691 63.164 -20.417 Q61.883 -19.142 60.097 -19.142 H55.569 V21.406 Q55.569 23.347 54.289 24.622 Q53.008 25.896 51.222 25.896 H43.73 Q41.789 25.896 40.514 24.622 Q39.24 23.347 39.24 21.406 Z M47.432 -71.877 Q43.153 -71.877 40.099 -74.913 Q37.044 -77.949 37.044 -82.228 Q37.044 -86.507 40.08 -89.562 Q43.116 -92.616 47.395 -92.616 Q51.674 -92.616 54.729 -89.58 Q57.783 -86.544 57.783 -82.265 Q57.783 -77.986 54.747 -74.932 Q51.711 -71.877 47.432 -71.877 Z M102.27 21.406 V-9.486 H93.414 Q91.342 -9.486 89.984 -11.114 Q88.625 -12.742 89.128 -14.919 L99.553 -58.177 Q100.373 -61.012 102.735 -62.596 Q105.097 -64.181 108.206 -64.181 Q111.314 -64.181 113.654 -62.596 Q115.995 -61.012 116.708 -58.177 L127.257 -14.919 Q127.76 -12.742 126.367 -11.114 Q124.975 -9.486 122.928 -9.486 H114.134 V21.406 Q114.134 23.347 112.86 24.622 Q111.585 25.896 109.644 25.896 H106.617 Q104.676 25.896 103.473 24.622 Q102.27 23.347 102.27 21.406 Z M108.149 -71.877 Q103.87 -71.877 100.815 -74.913 Q97.761 -77.949 97.761 -82.228 Q97.761 -86.507 100.797 -89.562 Q103.833 -92.616 108.112 -92.616 Q112.391 -92.616 115.446 -89.58 Q118.5 -86.544 118.5 -82.265 Q118.5 -77.986 115.464 -74.932 Q112.428 -71.877 108.149 -71.877 Z"/></g><g id="Ultralight-L" transform="matrix(1 0 0 1 491.205 1556)"><path d="M40.635 20.643 V-19.105 H35.878 Q33.947 -19.105 32.695 -20.357 Q31.444 -21.608 31.444 -23.539 V-54.902 Q31.444 -58.389 33.89 -60.838 Q36.337 -63.287 39.633 -63.287 H55.648 Q59.098 -63.287 61.557 -60.838 Q64.016 -58.389 64.016 -54.902 V-23.539 Q64.016 -21.608 62.758 -20.357 Q61.501 -19.105 59.743 -19.105 H54.825 V20.643 Q54.825 22.574 53.567 23.826 Q52.309 25.078 50.552 25.078 H45.069 Q43.138 25.078 41.887 23.826 Q40.635 22.574 40.635 20.643 Z M47.75 -70.705 Q43.618 -70.705 40.675 -73.628 Q37.733 -76.551 37.733 -80.683 Q37.733 -84.814 40.655 -87.757 Q43.578 -90.7 47.71 -90.7 Q51.842 -90.7 54.785 -87.777 Q57.727 -84.854 57.727 -80.722 Q57.727 -76.591 54.805 -73.648 Q51.882 -70.705 47.75 -70.705 Z M102.474 20.643 V-9.43 H94.066 Q92.044 -9.43 90.688 -11.002 Q89.332 -12.574 89.816 -14.751 L99.814 -57.805 Q100.523 -60.373 102.67 -61.83 Q104.818 -63.287 107.647 -63.287 Q110.477 -63.287 112.584 -61.83 Q114.691 -60.373 115.294 -57.805 L125.453 -14.751 Q125.936 -12.574 124.536 -11.002 Q123.136 -9.43 121.141 -9.43 H112.794 V20.643 Q112.794 22.574 111.543 23.826 Q110.291 25.078 108.36 25.078 H106.748 Q104.817 25.078 103.646 23.826 Q102.474 22.574 102.474 20.643 Z M107.574 -70.705 Q103.442 -70.705 100.499 -73.628 Q97.556 -76.551 97.556 -80.683 Q97.556 -84.814 100.479 -87.757 Q103.402 -90.7 107.534 -90.7 Q111.666 -90.7 114.608 -87.777 Q117.551 -84.854 117.551 -80.722 Q117.551 -76.591 114.628 -73.648 Q111.706 -70.705 107.574 -70.705 Z"/></g><g id="Bold-M" transform="matrix(1 0 0 1 2281.8 1126)"><path d="M24.25 8.083 V-22.98 H24.312 Q21.375 -22.98 19.25 -25.105 Q17.125 -27.23 17.125 -30.167 V-50.105 Q17.125 -54.042 19.969 -56.886 Q22.812 -59.73 26.75 -59.73 H45 Q48.938 -59.73 51.781 -56.886 Q54.625 -54.042 54.625 -50.105 V-30.167 Q54.625 -27.23 52.5 -25.105 Q50.375 -22.98 47.438 -22.98 H47.5 V8.083 Q47.5 11.145 45.25 13.395 Q43 15.645 39.938 15.645 H31.812 Q28.75 15.645 26.5 13.395 Q24.25 11.145 24.25 8.083 Z M36 -62.73 Q31.062 -62.73 27.656 -66.074 Q24.25 -69.417 24.25 -74.355 Q24.25 -79.292 27.656 -82.636 Q31.062 -85.98 36 -85.98 Q40.938 -85.98 44.281 -82.636 Q47.625 -79.292 47.625 -74.355 Q47.625 -69.417 44.281 -66.074 Q40.938 -62.73 36 -62.73 Z M74.938 8.083 V-11.73 H70.312 Q66.438 -11.73 64.094 -14.824 Q61.75 -17.917 63 -21.605 L72.75 -51.855 Q74 -55.417 77.094 -57.574 Q80.188 -59.73 84 -59.73 Q87.812 -59.73 91 -57.574 Q94.188 -55.417 95.375 -51.855 L105.125 -21.605 Q106.375 -17.917 104.031 -14.824 Q101.688 -11.73 97.812 -11.73 H93.188 V8.083 Q93.188 11.145 90.938 13.395 Q88.688 15.645 85.625 15.645 H82.5 Q79.438 15.645 77.188 13.395 Q74.938 11.145 74.938 8.083 Z M84 -62.73 Q79.062 -62.73 75.719 -66.074 Q72.375 -69.417 72.375 -74.355 Q72.375 -79.292 75.719 -82.636 Q79.062 -85.98 84 -85.98 Q88.938 -85.98 92.344 -82.636 Q95.75 -79.292 95.75 -74.355 Q95.75 -69.417 92.344 -66.074 Q88.938 -62.73 84 -62.73 Z"/></g><g id="Semibold-M" transform="matrix(1 0 0 1 1985.97 1126)"><path d="M25.935 8.517 V-22.98 H24.91 Q22.407 -22.98 20.609 -24.779 Q18.81 -26.578 18.81 -29.081 V-50.105 Q18.81 -54.042 21.653 -56.886 Q24.497 -59.73 28.435 -59.73 H45 Q48.938 -59.73 51.781 -56.886 Q54.625 -54.042 54.625 -50.105 V-29.081 Q54.625 -26.578 52.826 -24.779 Q51.027 -22.98 48.524 -22.98 H47.5 V8.517 Q47.5 11.091 45.63 12.96 Q43.761 14.83 41.187 14.83 H32.247 Q29.674 14.83 27.804 12.96 Q25.935 11.091 25.935 8.517 Z M36.815 -63.545 Q32.258 -63.545 29.096 -66.671 Q25.935 -69.798 25.935 -74.355 Q25.935 -78.912 29.096 -82.038 Q32.258 -85.165 36.815 -85.165 Q41.372 -85.165 44.499 -82.038 Q47.625 -78.912 47.625 -74.355 Q47.625 -69.798 44.499 -66.671 Q41.372 -63.545 36.815 -63.545 Z M74.938 8.517 V-13.415 H68.9 Q65.677 -13.415 63.74 -15.992 Q61.804 -18.57 62.837 -21.659 L72.75 -52.453 Q73.891 -55.798 76.768 -57.764 Q79.644 -59.73 83.185 -59.73 Q86.726 -59.73 89.669 -57.764 Q92.612 -55.798 93.69 -52.453 L103.603 -21.659 Q104.636 -18.57 102.7 -15.992 Q100.764 -13.415 97.541 -13.415 H91.503 V8.517 Q91.503 11.091 89.633 12.96 Q87.764 14.83 85.19 14.83 H81.25 Q78.677 14.83 76.807 12.96 Q74.938 11.091 74.938 8.517 Z M83.185 -63.545 Q78.628 -63.545 75.501 -66.671 Q72.375 -69.798 72.375 -74.355 Q72.375 -78.912 75.501 -82.038 Q78.628 -85.165 83.185 -85.165 Q87.742 -85.165 90.904 -82.038 Q94.065 -78.912 94.065 -74.355 Q94.065 -69.798 90.904 -66.671 Q87.742 -63.545 83.185 -63.545 Z"/></g><g id="Medium-M" transform="matrix(1 0 0 1 1689.91 1126)"><path d="M27.198 8.843 V-22.98 H25.359 Q23.182 -22.98 21.628 -24.534 Q20.073 -26.089 20.073 -28.265 V-50.105 Q20.073 -54.042 22.917 -56.886 Q25.761 -59.73 29.698 -59.73 H45 Q48.938 -59.73 51.781 -56.886 Q54.625 -54.042 54.625 -50.105 V-28.265 Q54.625 -26.089 53.071 -24.534 Q51.516 -22.98 49.34 -22.98 H47.5 V8.843 Q47.5 11.05 45.916 12.634 Q44.331 14.218 42.125 14.218 H32.573 Q30.367 14.218 28.783 12.634 Q27.198 11.05 27.198 8.843 Z M37.427 -64.157 Q33.155 -64.157 30.177 -67.12 Q27.198 -70.083 27.198 -74.355 Q27.198 -78.627 30.177 -81.59 Q33.155 -84.553 37.427 -84.553 Q41.698 -84.553 44.662 -81.59 Q47.625 -78.627 47.625 -74.355 Q47.625 -70.083 44.662 -67.12 Q41.698 -64.157 37.427 -64.157 Z M74.938 8.843 V-14.678 H67.84 Q65.106 -14.678 63.475 -16.869 Q61.845 -19.059 62.715 -21.7 L72.75 -52.901 Q73.81 -56.083 76.523 -57.907 Q79.236 -59.73 82.573 -59.73 Q85.91 -59.73 88.67 -57.907 Q91.429 -56.083 92.427 -52.901 L102.462 -21.7 Q103.332 -19.059 101.701 -16.869 Q100.071 -14.678 97.337 -14.678 H90.239 V8.843 Q90.239 11.05 88.655 12.634 Q87.071 14.218 84.864 14.218 H80.312 Q78.106 14.218 76.522 12.634 Q74.938 11.05 74.938 8.843 Z M82.573 -64.157 Q78.302 -64.157 75.338 -67.12 Q72.375 -70.083 72.375 -74.355 Q72.375 -78.627 75.338 -81.59 Q78.302 -84.553 82.573 -84.553 Q86.845 -84.553 89.823 -81.59 Q92.802 -78.627 92.802 -74.355 Q92.802 -70.083 89.823 -67.12 Q86.845 -64.157 82.573 -64.157 Z"/></g><g id="Regular-M" transform="matrix(1 0 0 1 1394.06 1126)"><path d="M28.125 9.083 V-22.98 H25.688 Q23.75 -22.98 22.375 -24.355 Q21 -25.73 21 -27.667 V-50.105 Q21 -54.042 23.844 -56.886 Q26.688 -59.73 30.625 -59.73 H45 Q48.938 -59.73 51.781 -56.886 Q54.625 -54.042 54.625 -50.105 V-27.667 Q54.625 -25.73 53.25 -24.355 Q51.875 -22.98 49.938 -22.98 H47.5 V9.083 Q47.5 11.02 46.125 12.395 Q44.75 13.77 42.812 13.77 H32.812 Q30.875 13.77 29.5 12.395 Q28.125 11.02 28.125 9.083 Z M37.875 -64.605 Q33.812 -64.605 30.969 -67.449 Q28.125 -70.292 28.125 -74.355 Q28.125 -78.417 30.969 -81.261 Q33.812 -84.105 37.875 -84.105 Q41.938 -84.105 44.781 -81.261 Q47.625 -78.417 47.625 -74.355 Q47.625 -70.292 44.781 -67.449 Q41.938 -64.605 37.875 -64.605 Z M74.938 9.083 V-15.605 H67.062 Q64.688 -15.605 63.281 -17.511 Q61.875 -19.417 62.625 -21.73 L72.75 -53.23 Q73.75 -56.292 76.344 -58.011 Q78.938 -59.73 82.125 -59.73 Q85.312 -59.73 87.938 -58.011 Q90.562 -56.292 91.5 -53.23 L101.625 -21.73 Q102.375 -19.417 100.969 -17.511 Q99.562 -15.605 97.188 -15.605 H89.312 V9.083 Q89.312 11.02 87.938 12.395 Q86.562 13.77 84.625 13.77 H79.625 Q77.688 13.77 76.312 12.395 Q74.938 11.02 74.938 9.083 Z M82.125 -64.605 Q78.062 -64.605 75.219 -67.449 Q72.375 -70.292 72.375 -74.355 Q72.375 -78.417 75.219 -81.261 Q78.062 -84.105 82.125 -84.105 Q86.188 -84.105 89.031 -81.261 Q91.875 -78.417 91.875 -74.355 Q91.875 -70.292 89.031 -67.449 Q86.188 -64.605 82.125 -64.605 Z"/></g><g id="Light-M" transform="matrix(1 0 0 1 1098.18 1126)"><path d="M29.64 8.433 V-22.932 H26.721 Q24.94 -22.932 23.691 -24.181 Q22.442 -25.429 22.442 -27.211 V-50.129 Q22.442 -53.61 24.925 -56.093 Q27.409 -58.576 30.89 -58.576 H44.615 Q48.096 -58.576 50.579 -56.093 Q53.062 -53.61 53.062 -50.129 V-27.211 Q53.062 -25.429 51.814 -24.181 Q50.565 -22.932 48.808 -22.932 H45.865 V8.433 Q45.865 10.215 44.617 11.464 Q43.368 12.712 41.611 12.712 H33.918 Q32.137 12.712 30.888 11.464 Q29.64 10.215 29.64 8.433 Z M37.803 -63.571 Q34.029 -63.571 31.401 -66.199 Q28.774 -68.826 28.774 -72.6 Q28.774 -76.374 31.401 -79.001 Q34.029 -81.629 37.803 -81.629 Q41.577 -81.629 44.204 -79.001 Q46.832 -76.374 46.832 -72.6 Q46.832 -68.826 44.204 -66.199 Q41.577 -63.571 37.803 -63.571 Z M76.212 8.433 V-15.533 H68.914 Q66.779 -15.533 65.481 -17.223 Q64.183 -18.913 64.813 -20.985 L74.096 -52.893 Q74.953 -55.563 77.174 -57.07 Q79.394 -58.576 82.197 -58.576 Q85 -58.576 87.252 -57.07 Q89.504 -55.563 90.298 -52.893 L99.582 -20.985 Q100.211 -18.913 98.913 -17.223 Q97.615 -15.533 95.505 -15.533 H88.207 V8.433 Q88.207 10.215 86.958 11.464 Q85.709 12.712 83.928 12.712 H80.466 Q78.685 12.712 77.448 11.464 Q76.212 10.215 76.212 8.433 Z M82.197 -63.571 Q78.423 -63.571 75.796 -66.199 Q73.168 -68.826 73.168 -72.6 Q73.168 -76.374 75.796 -79.001 Q78.423 -81.629 82.197 -81.629 Q85.971 -81.629 88.599 -79.001 Q91.226 -76.374 91.226 -72.6 Q91.226 -68.826 88.599 -66.199 Q85.971 -63.571 82.197 -63.571 Z"/></g><g id="Thin-M" transform="matrix(1 0 0 1 802.565 1126)"><path d="M31.154 7.784 V-22.884 H27.755 Q26.13 -22.884 25.007 -24.006 Q23.885 -25.129 23.885 -26.754 V-50.153 Q23.885 -53.177 26.007 -55.3 Q28.13 -57.422 31.154 -57.422 H44.231 Q47.255 -57.422 49.377 -55.3 Q51.5 -53.177 51.5 -50.153 V-26.754 Q51.5 -25.129 50.377 -24.006 Q49.255 -22.884 47.678 -22.884 H44.231 V7.784 Q44.231 9.409 43.108 10.532 Q41.986 11.655 40.409 11.655 H35.024 Q33.399 11.655 32.276 10.532 Q31.154 9.409 31.154 7.784 Z M37.731 -62.538 Q34.245 -62.538 31.834 -64.949 Q29.423 -67.36 29.423 -70.845 Q29.423 -74.331 31.834 -76.742 Q34.245 -79.153 37.731 -79.153 Q41.216 -79.153 43.627 -76.742 Q46.038 -74.331 46.038 -70.845 Q46.038 -67.36 43.627 -64.949 Q41.216 -62.538 37.731 -62.538 Z M77.486 7.784 V-15.461 H70.764 Q68.87 -15.461 67.68 -16.934 Q66.49 -18.408 67 -20.24 L75.442 -52.557 Q76.156 -54.834 78.003 -56.128 Q79.851 -57.422 82.269 -57.422 Q84.688 -57.422 86.566 -56.128 Q88.445 -54.834 89.096 -52.557 L97.538 -20.24 Q98.048 -18.408 96.858 -16.934 Q95.668 -15.461 93.822 -15.461 H87.101 V7.784 Q87.101 9.409 85.978 10.532 Q84.856 11.655 83.231 11.655 H81.308 Q79.683 11.655 78.584 10.532 Q77.486 9.409 77.486 7.784 Z M82.269 -62.538 Q78.784 -62.538 76.373 -64.949 Q73.962 -67.36 73.962 -70.845 Q73.962 -74.331 76.373 -76.742 Q78.784 -79.153 82.269 -79.153 Q85.755 -79.153 88.166 -76.742 Q90.577 -74.331 90.577 -70.845 Q90.577 -67.36 88.166 -64.949 Q85.755 -62.538 82.269 -62.538 Z"/></g><g id="Ultralight-M" transform="matrix(1 0 0 1 506.415 1126)"><path d="M32.062 7.395 V-22.855 H28.375 Q26.844 -22.855 25.797 -23.902 Q24.75 -24.949 24.75 -26.48 V-50.167 Q24.75 -52.917 26.656 -54.824 Q28.562 -56.73 31.312 -56.73 H44 Q46.75 -56.73 48.656 -54.824 Q50.562 -52.917 50.562 -50.167 V-26.48 Q50.562 -24.949 49.516 -23.902 Q48.469 -22.855 47 -22.855 H43.25 V7.395 Q43.25 8.926 42.203 9.973 Q41.156 11.02 39.688 11.02 H35.688 Q34.156 11.02 33.109 9.973 Q32.062 8.926 32.062 7.395 Z M37.688 -61.917 Q34.375 -61.917 32.094 -64.199 Q29.812 -66.48 29.812 -69.792 Q29.812 -73.105 32.094 -75.386 Q34.375 -77.667 37.688 -77.667 Q41 -77.667 43.281 -75.386 Q45.562 -73.105 45.562 -69.792 Q45.562 -66.48 43.281 -64.199 Q41 -61.917 37.688 -61.917 Z M78.25 7.395 V-15.417 H71.875 Q70.125 -15.417 69 -16.761 Q67.875 -18.105 68.312 -19.792 L76.25 -52.355 Q76.877 -54.397 78.501 -55.563 Q80.125 -56.73 82.312 -56.73 Q84.5 -56.73 86.155 -55.563 Q87.81 -54.397 88.375 -52.355 L96.312 -19.792 Q96.75 -18.105 95.625 -16.761 Q94.5 -15.417 92.812 -15.417 H86.438 V7.395 Q86.438 8.926 85.391 9.973 Q84.344 11.02 82.812 11.02 H81.812 Q80.281 11.02 79.266 9.973 Q78.25 8.926 78.25 7.395 Z M82.312 -61.917 Q79 -61.917 76.719 -64.199 Q74.438 -66.48 74.438 -69.792 Q74.438 -73.105 76.719 -75.386 Q79 -77.667 82.312 -77.667 Q85.625 -77.667 87.906 -75.386 Q90.188 -73.105 90.188 -69.792 Q90.188 -66.48 87.906 -64.199 Q85.625 -61.917 82.312 -61.917 Z"/></g><g id="Bold-S" transform="matrix(1 0 0 1 2294.23 696)"><path d="M18.739 -2.24 V-25.959 H17.21 Q15.06 -25.959 13.497 -27.522 Q11.934 -29.086 11.934 -31.236 V-44.599 Q11.934 -47.381 13.946 -49.393 Q15.958 -51.404 18.739 -51.404 H35.505 Q38.286 -51.404 40.298 -49.393 Q42.31 -47.381 42.31 -44.599 V-31.212 Q42.31 -29.115 40.747 -27.537 Q39.184 -25.959 37.034 -25.959 H35.505 V-2.24 Q35.505 0.009 33.846 1.671 Q32.186 3.332 29.941 3.332 H24.337 Q22.092 3.332 20.415 1.671 Q18.739 0.009 18.739 -2.24 Z M27.196 -54.56 Q23.128 -54.56 20.341 -57.322 Q17.555 -60.083 17.555 -64.152 Q17.555 -68.22 20.366 -70.957 Q23.176 -73.694 27.245 -73.694 Q31.313 -73.694 34.05 -70.932 Q36.787 -68.171 36.787 -64.103 Q36.787 -60.034 34.026 -57.297 Q31.265 -54.56 27.196 -54.56 Z M59.126 -2.24 V-13.532 H54.983 Q52.025 -13.532 50.323 -15.826 Q48.622 -18.119 49.51 -20.732 L57.696 -45.98 Q58.583 -48.199 60.6 -49.802 Q62.617 -51.404 65.093 -51.404 Q67.568 -51.404 69.659 -49.802 Q71.75 -48.199 72.588 -45.98 L80.774 -20.732 Q81.662 -18.119 79.96 -15.826 Q78.259 -13.532 75.3 -13.532 H71.158 V-2.24 Q71.158 0.009 69.496 1.671 Q67.834 3.332 65.586 3.332 H64.698 Q62.449 3.332 60.788 1.671 Q59.126 0.009 59.126 -2.24 Z M65.068 -54.56 Q61 -54.56 58.263 -57.322 Q55.526 -60.083 55.526 -64.152 Q55.526 -68.22 58.287 -70.957 Q61.048 -73.694 65.117 -73.694 Q69.185 -73.694 71.972 -70.932 Q74.758 -68.171 74.758 -64.103 Q74.758 -60.034 71.947 -57.297 Q69.137 -54.56 65.068 -54.56 Z"/></g><g id="Semibold-S" transform="matrix(1 0 0 1 1998.1 696)"><path d="M20.068 -1.897 V-25.959 H17.682 Q15.875 -25.959 14.569 -27.265 Q13.263 -28.571 13.263 -30.378 V-44.599 Q13.263 -47.381 15.275 -49.393 Q17.287 -51.404 20.068 -51.404 H35.505 Q38.286 -51.404 40.298 -49.393 Q42.31 -47.381 42.31 -44.599 V-30.354 Q42.31 -28.601 41.004 -27.28 Q39.698 -25.959 37.891 -25.959 H35.505 V-1.897 Q35.505 -0.034 34.146 1.328 Q32.787 2.689 30.928 2.689 H24.68 Q22.821 2.689 21.444 1.328 Q20.068 -0.034 20.068 -1.897 Z M27.839 -55.204 Q24.071 -55.204 21.478 -57.793 Q18.884 -60.383 18.884 -64.152 Q18.884 -67.92 21.502 -70.485 Q24.12 -73.051 27.888 -73.051 Q31.656 -73.051 34.222 -70.461 Q36.787 -67.871 36.787 -64.103 Q36.787 -60.334 34.197 -57.769 Q31.608 -55.204 27.839 -55.204 Z M59.126 -1.897 V-14.862 H53.869 Q51.424 -14.862 50.045 -16.747 Q48.665 -18.633 49.381 -20.775 L57.696 -46.452 Q58.497 -48.499 60.343 -49.952 Q62.188 -51.404 64.449 -51.404 Q66.71 -51.404 68.608 -49.952 Q70.506 -48.499 71.259 -46.452 L79.573 -20.775 Q80.289 -18.633 78.91 -16.747 Q77.53 -14.862 75.086 -14.862 H69.829 V-1.897 Q69.829 -0.034 68.467 1.328 Q67.105 2.689 65.243 2.689 H63.712 Q61.849 2.689 60.487 1.328 Q59.126 -0.034 59.126 -1.897 Z M64.425 -55.204 Q60.657 -55.204 58.091 -57.793 Q55.526 -60.383 55.526 -64.152 Q55.526 -67.92 58.116 -70.485 Q60.705 -73.051 64.474 -73.051 Q68.242 -73.051 70.835 -70.461 Q73.429 -67.871 73.429 -64.103 Q73.429 -60.334 70.811 -57.769 Q68.193 -55.204 64.425 -55.204 Z"/></g><g id="Medium-S" transform="matrix(1 0 0 1 1701.85 696)"><path d="M21.065 -1.64 V-25.959 H18.036 Q16.486 -25.959 15.373 -27.072 Q14.26 -28.185 14.26 -29.735 V-44.599 Q14.26 -47.381 16.272 -49.393 Q18.284 -51.404 21.065 -51.404 H35.505 Q38.286 -51.404 40.298 -49.393 Q42.31 -47.381 42.31 -44.599 V-29.711 Q42.31 -28.215 41.197 -27.087 Q40.084 -25.959 38.534 -25.959 H35.505 V-1.64 Q35.505 -0.066 34.371 1.07 Q33.237 2.207 31.667 2.207 H24.937 Q23.368 2.207 22.216 1.07 Q21.065 -0.066 21.065 -1.64 Z M28.322 -55.686 Q24.778 -55.686 22.33 -58.147 Q19.882 -60.608 19.882 -64.152 Q19.882 -67.695 22.354 -70.131 Q24.827 -72.568 28.371 -72.568 Q31.914 -72.568 34.35 -70.107 Q36.787 -67.646 36.787 -64.103 Q36.787 -60.559 34.326 -58.123 Q31.865 -55.686 28.322 -55.686 Z M59.126 -1.64 V-15.859 H53.032 Q50.974 -15.859 49.836 -17.439 Q48.697 -19.019 49.285 -20.807 L57.696 -46.806 Q58.433 -48.724 60.15 -50.064 Q61.867 -51.404 63.967 -51.404 Q66.067 -51.404 67.82 -50.064 Q69.574 -48.724 70.262 -46.806 L78.673 -20.807 Q79.26 -19.019 78.122 -17.439 Q76.983 -15.859 74.925 -15.859 H68.832 V-1.64 Q68.832 -0.066 67.695 1.07 Q66.559 2.207 64.985 2.207 H62.972 Q61.399 2.207 60.262 1.07 Q59.126 -0.066 59.126 -1.64 Z M63.942 -55.686 Q60.399 -55.686 57.963 -58.147 Q55.526 -60.608 55.526 -64.152 Q55.526 -67.695 57.987 -70.131 Q60.448 -72.568 63.991 -72.568 Q67.535 -72.568 69.983 -70.107 Q72.431 -67.646 72.431 -64.103 Q72.431 -60.559 69.959 -58.123 Q67.486 -55.686 63.942 -55.686 Z"/></g><g id="Regular-S" transform="matrix(1 0 0 1 1405.73 696)"><path d="M21.796 -1.451 V-25.959 H18.295 Q16.934 -25.959 15.962 -26.931 Q14.991 -27.902 14.991 -29.263 V-44.599 Q14.991 -47.381 17.003 -49.393 Q19.015 -51.404 21.796 -51.404 H35.505 Q38.286 -51.404 40.298 -49.393 Q42.31 -47.381 42.31 -44.599 V-29.239 Q42.31 -27.932 41.339 -26.945 Q40.367 -25.959 39.006 -25.959 H35.505 V-1.451 Q35.505 -0.09 34.536 0.882 Q33.567 1.853 32.21 1.853 H25.126 Q23.769 1.853 22.782 0.882 Q21.796 -0.09 21.796 -1.451 Z M28.675 -56.04 Q25.297 -56.04 22.955 -58.407 Q20.613 -60.773 20.613 -64.152 Q20.613 -67.53 22.979 -69.872 Q25.346 -72.214 28.724 -72.214 Q32.102 -72.214 34.445 -69.848 Q36.787 -67.481 36.787 -64.103 Q36.787 -60.725 34.42 -58.382 Q32.054 -56.04 28.675 -56.04 Z M59.126 -1.451 V-16.59 H52.419 Q50.644 -16.59 49.682 -17.946 Q48.721 -19.302 49.214 -20.831 L57.696 -47.065 Q58.386 -48.89 60.008 -50.147 Q61.631 -51.404 63.613 -51.404 Q65.595 -51.404 67.243 -50.147 Q68.89 -48.89 69.531 -47.065 L78.012 -20.831 Q78.505 -19.302 77.544 -17.946 Q76.582 -16.59 74.807 -16.59 H68.101 V-1.451 Q68.101 -0.09 67.129 0.882 Q66.158 1.853 64.797 1.853 H62.43 Q61.069 1.853 60.097 0.882 Q59.126 -0.09 59.126 -1.451 Z M63.589 -56.04 Q60.211 -56.04 57.868 -58.407 Q55.526 -60.773 55.526 -64.152 Q55.526 -67.53 57.893 -69.872 Q60.259 -72.214 63.638 -72.214 Q67.016 -72.214 69.358 -69.848 Q71.7 -67.481 71.7 -64.103 Q71.7 -60.725 69.334 -58.382 Q66.967 -56.04 63.589 -56.04 Z"/></g><g id="Light-S" transform="matrix(1 0 0 1 1109.75 696)"><path d="M22.991 -1.963 V-25.921 H19.111 Q17.873 -25.921 17.001 -26.793 Q16.129 -27.665 16.129 -28.903 V-44.618 Q16.129 -47.039 17.856 -48.767 Q19.584 -50.494 22.005 -50.494 H35.202 Q37.622 -50.494 39.35 -48.767 Q41.077 -47.039 41.077 -44.618 V-28.879 Q41.077 -27.695 40.205 -26.808 Q39.333 -25.921 38.115 -25.921 H34.215 V-1.963 Q34.215 -0.725 33.346 0.147 Q32.476 1.018 31.261 1.018 H25.999 Q24.764 1.018 23.878 0.147 Q22.991 -0.725 22.991 -1.963 Z M28.619 -55.224 Q25.468 -55.224 23.296 -57.42 Q21.125 -59.616 21.125 -62.767 Q21.125 -65.917 23.321 -68.089 Q25.517 -70.261 28.667 -70.261 Q31.818 -70.261 33.99 -68.065 Q36.161 -65.869 36.161 -62.718 Q36.161 -59.567 33.965 -57.396 Q31.769 -55.224 28.619 -55.224 Z M60.131 -1.963 V-16.533 H53.88 Q52.294 -16.533 51.418 -17.718 Q50.542 -18.904 50.94 -20.243 L58.758 -46.799 Q59.335 -48.314 60.663 -49.404 Q61.991 -50.494 63.67 -50.494 Q65.349 -50.494 66.702 -49.404 Q68.054 -48.314 68.582 -46.799 L76.4 -20.243 Q76.798 -18.904 75.922 -17.718 Q75.046 -16.533 73.479 -16.533 H67.228 V-1.963 Q67.228 -0.725 66.356 0.147 Q65.484 1.018 64.247 1.018 H63.093 Q61.856 1.018 60.993 0.147 Q60.131 -0.725 60.131 -1.963 Z M63.646 -55.224 Q60.495 -55.224 58.323 -57.42 Q56.152 -59.616 56.152 -62.767 Q56.152 -65.917 58.348 -68.089 Q60.544 -70.261 63.694 -70.261 Q66.845 -70.261 69.017 -68.065 Q71.188 -65.869 71.188 -62.718 Q71.188 -59.567 68.992 -57.396 Q66.796 -55.224 63.646 -55.224 Z"/></g><g id="Thin-S" transform="matrix(1 0 0 1 814.015 696)"><path d="M24.186 -2.475 V-25.883 H19.926 Q18.812 -25.883 18.039 -26.656 Q17.267 -27.428 17.267 -28.542 V-44.637 Q17.267 -46.698 18.71 -48.141 Q20.153 -49.584 22.213 -49.584 H34.898 Q36.959 -49.584 38.402 -48.141 Q39.845 -46.698 39.845 -44.637 V-28.518 Q39.845 -27.458 39.072 -26.671 Q38.3 -25.883 37.223 -25.883 H32.926 V-2.475 Q32.926 -1.361 32.156 -0.588 Q31.386 0.184 30.313 0.184 H26.871 Q25.76 0.184 24.973 -0.588 Q24.186 -1.361 24.186 -2.475 Z M28.562 -54.409 Q25.639 -54.409 23.638 -56.434 Q21.637 -58.46 21.637 -61.382 Q21.637 -64.305 23.662 -66.306 Q25.688 -68.307 28.611 -68.307 Q31.533 -68.307 33.534 -66.282 Q35.535 -64.257 35.535 -61.334 Q35.535 -58.411 33.51 -56.41 Q31.485 -54.409 28.562 -54.409 Z M61.136 -2.475 V-16.476 H55.34 Q53.944 -16.476 53.153 -17.491 Q52.362 -18.505 52.666 -19.655 L59.82 -46.534 Q60.284 -47.739 61.318 -48.661 Q62.352 -49.584 63.727 -49.584 Q65.102 -49.584 66.161 -48.661 Q67.219 -47.739 67.634 -46.534 L74.788 -19.655 Q75.092 -18.505 74.301 -17.491 Q73.51 -16.476 72.152 -16.476 H66.356 V-2.475 Q66.356 -1.361 65.583 -0.588 Q64.811 0.184 63.697 0.184 H63.757 Q62.643 0.184 61.889 -0.588 Q61.136 -1.361 61.136 -2.475 Z M63.702 -54.409 Q60.78 -54.409 58.779 -56.434 Q56.778 -58.46 56.778 -61.382 Q56.778 -64.305 58.803 -66.306 Q60.828 -68.307 63.751 -68.307 Q66.674 -68.307 68.675 -66.282 Q70.676 -64.257 70.676 -61.334 Q70.676 -58.411 68.651 -56.41 Q66.625 -54.409 63.702 -54.409 Z"/></g><g id="Ultralight-S" transform="matrix(1 0 0 1 517.792 696)"><path d="M24.903 -2.782 V-25.861 H20.415 Q19.375 -25.861 18.662 -26.573 Q17.95 -27.286 17.95 -28.326 V-44.649 Q17.95 -46.493 19.222 -47.765 Q20.494 -49.037 22.339 -49.037 H34.716 Q36.56 -49.037 37.833 -47.765 Q39.105 -46.493 39.105 -44.649 V-28.302 Q39.105 -27.315 38.392 -26.588 Q37.68 -25.861 36.689 -25.861 H32.152 V-2.782 Q32.152 -1.742 31.442 -1.029 Q30.732 -0.317 29.744 -0.317 H27.394 Q26.358 -0.317 25.63 -1.029 Q24.903 -1.742 24.903 -2.782 Z M28.527 -53.919 Q25.741 -53.919 23.843 -55.842 Q21.944 -57.765 21.944 -60.552 Q21.944 -63.338 23.867 -65.237 Q25.79 -67.135 28.576 -67.135 Q31.363 -67.135 33.261 -65.212 Q35.16 -63.289 35.16 -60.503 Q35.16 -57.716 33.237 -55.818 Q31.314 -53.919 28.527 -53.919 Z M61.739 -2.782 V-16.442 H56.216 Q54.934 -16.442 54.194 -17.354 Q53.455 -18.266 53.701 -19.302 L60.457 -46.375 Q60.854 -47.394 61.711 -48.216 Q62.568 -49.037 63.761 -49.037 Q64.954 -49.037 65.836 -48.216 Q66.718 -47.394 67.065 -46.375 L73.821 -19.302 Q74.067 -18.266 73.328 -17.354 Q72.588 -16.442 71.355 -16.442 H65.832 V-2.782 Q65.832 -1.742 65.12 -1.029 Q64.407 -0.317 63.367 -0.317 H64.156 Q63.115 -0.317 62.427 -1.029 Q61.739 -1.742 61.739 -2.782 Z M63.737 -53.919 Q60.95 -53.919 59.052 -55.842 Q57.153 -57.765 57.153 -60.552 Q57.153 -63.338 59.076 -65.237 Q60.999 -67.135 63.786 -67.135 Q66.572 -67.135 68.47 -65.212 Q70.369 -63.289 70.369 -60.503 Q70.369 -57.716 68.446 -55.818 Q66.523 -53.919 63.737 -53.919 Z"/></g></g></svg>