<svg xmlns="http://www.w3.org/2000/svg" version="1.1" width="3300" height="2000"><g id="Notes"><style>
    text {
      font-family: monospace;
      text-anchor: middle;
    }
    text.emphasis {
      font-weight:bold;
    }
    text.lanchor {
      text-anchor: start;
    }
  </style><rect height="2200" id="artboard" fill="white" width="3300" x="0" y="0"/><line id="" style="fill:none;stroke:black;stroke-width:0.5;" x1="263" x2="3036" y1="292" y2="292"/><text class="lanchor emphasis" transform="matrix(1 0 0 1 263 322)">Weight/Scale Variations</text><text transform="matrix(1 0 0 1 559.711 322)">Ultralight</text><text transform="matrix(1 0 0 1 856.422 322)">Thin</text><text transform="matrix(1 0 0 1 1153.13 322)">Light</text><text transform="matrix(1 0 0 1 1449.84 322)">Regular</text><text transform="matrix(1 0 0 1 1746.56 322)">Medium</text><text transform="matrix(1 0 0 1 2043.27 322)">Semibold</text><text transform="matrix(1 0 0 1 2339.98 322)">Bold</text><text transform="matrix(1 0 0 1 2636.69 322)">Heavy</text><text transform="matrix(1 0 0 1 2933.4 322)">Black</text><text id="template-version" style="text-anchor: end;" transform="matrix(1 0 0 1 3036 1933)">Template v.1.0</text><text class="lanchor" transform="matrix(1 0 0 1 263 726)">Small</text><text class="lanchor" transform="matrix(1 0 0 1 263 1156)">Medium</text><text class="lanchor" transform="matrix(1 0 0 1 263 1586)">Large</text></g><g id="Guides"><g id="H-reference" style="fill:#27AAE1;stroke:none;" transform="matrix(1 0 0 1 339 696)"><path d="M 54.9316 0 L 57.666 0 L 30.5664 -70.459 L 28.0762 -70.459 L 0.976562 0 L 3.66211 0 L 12.9395 -24.4629 L 45.7031 -24.4629 Z M 29.1992 -67.0898 L 29.4434 -67.0898 L 44.8242 -26.709 L 13.8184 -26.709 Z"/></g><line id="Baseline-S" style="fill:none;stroke:#27AAE1;opacity:1;stroke-width:0.577;" x1="263" x2="3036" y1="696" y2="696"/><line id="Capline-S" style="fill:none;stroke:#27AAE1;opacity:1;stroke-width:0.577;" x1="263" x2="3036" y1="625.541" y2="625.541"/><g id="H-reference" style="fill:#27AAE1;stroke:none;" transform="matrix(1 0 0 1 339 1126)"><path d="M 54.9316 0 L 57.666 0 L 30.5664 -70.459 L 28.0762 -70.459 L 0.976562 0 L 3.66211 0 L 12.9395 -24.4629 L 45.7031 -24.4629 Z M 29.1992 -67.0898 L 29.4434 -67.0898 L 44.8242 -26.709 L 13.8184 -26.709 Z"/></g><line id="Baseline-M" style="fill:none;stroke:#27AAE1;opacity:1;stroke-width:0.577;" x1="263" x2="3036" y1="1126" y2="1126"/><line id="Capline-M" style="fill:none;stroke:#27AAE1;opacity:1;stroke-width:0.577;" x1="263" x2="3036" y1="1055.54" y2="1055.54"/><g id="H-reference" style="fill:#27AAE1;stroke:none;" transform="matrix(1 0 0 1 339 1556)"><path d="M 54.9316 0 L 57.666 0 L 30.5664 -70.459 L 28.0762 -70.459 L 0.976562 0 L 3.66211 0 L 12.9395 -24.4629 L 45.7031 -24.4629 Z M 29.1992 -67.0898 L 29.4434 -67.0898 L 44.8242 -26.709 L 13.8184 -26.709 Z"/></g><line id="Baseline-L" style="fill:none;stroke:#27AAE1;opacity:1;stroke-width:0.577;" x1="263" x2="3036" y1="1556" y2="1556"/><line id="Capline-L" style="fill:none;stroke:#27AAE1;opacity:1;stroke-width:0.577;" x1="263" x2="3036" y1="1485.54" y2="1485.54"/><rect height="119.336" id="left-margin" style="fill:darkred;stroke:none;opacity:0.4;" width="12.4512" x="1394.06" y="1030.79"/><rect height="119.336" id="right-margin" style="fill:darkgreen;stroke:none;opacity:0.4;" width="12.4512" x="1502.5112" y="1030.79"/><rect x="1406.5112" y="1045" width="96" height="96" fill="none" stroke="blue" stroke-dasharray="5"/><rect x="1394.06" y="1030.79" width="120.9024" height="119.336" fill="none" stroke="blue"/></g><g id="Symbols"><g id="Bold-L" transform="matrix(1 0 0 1 2266 1556)"><path d="M71.504 -10.478 Q64.409 -10.478 56.888 -8.342 Q49.366 -6.205 42.167 -2.012 L44.545 17.741 Q44.545 17.741 44.545 17.741 Q44.545 17.741 44.545 17.741 H110.633 Q110.633 17.741 110.633 17.741 Q110.633 17.741 110.633 17.741 L113.359 -4.109 H110.376 Q105.033 -4.27 99.932 -5.197 Q94.831 -6.124 87.209 -8.301 Q83.175 -9.349 79.307 -9.914 Q75.438 -10.478 71.504 -10.478 Z M40.312 -17.815 Q47.649 -21.362 55.647 -23.297 Q63.644 -25.232 71.506 -25.232 Q76.664 -25.232 81.587 -24.507 Q86.511 -23.781 91.106 -22.572 Q98.787 -20.476 102.885 -19.669 Q106.983 -18.863 111.263 -18.702 H114.729 L122.228 -88.201 H32.572 L40.312 -17.815 Z M44.505 32.495 Q38.859 32.495 34.534 28.724 Q30.209 24.954 29.751 19.434 L18.06 -84.734 Q17.254 -92.207 22.213 -97.661 Q27.173 -103.116 34.508 -103.116 H120.373 Q127.708 -103.116 132.667 -97.661 Q137.627 -92.207 136.821 -84.734 L125.291 19.434 Q124.611 24.959 120.397 28.727 Q116.184 32.495 110.537 32.495 H44.505 Z"/></g><g id="Semibold-L" transform="matrix(1 0 0 1 1970.27 1556)"><path d="M71.569 -10.899 Q63.966 -10.899 56.211 -8.692 Q48.455 -6.485 41.255 -2.293 L43.686 18.372 Q43.686 18.372 43.686 18.372 Q43.686 18.372 43.686 18.372 H111.404 Q111.404 18.372 111.404 18.372 Q111.404 18.372 111.404 18.372 L114.13 -4.529 H111.147 Q105.524 -4.621 100.489 -5.513 Q95.455 -6.405 87.396 -8.722 Q83.363 -9.77 79.471 -10.334 Q75.578 -10.899 71.569 -10.899 Z M39.752 -15.572 Q47.159 -19.259 55.306 -21.264 Q63.454 -23.27 71.576 -23.27 Q76.569 -23.27 81.399 -22.579 Q86.23 -21.888 90.686 -20.679 Q98.611 -18.513 102.794 -17.706 Q106.977 -16.9 111.543 -16.809 H115.29 L123.139 -88.832 H31.661 L39.752 -15.572 Z M43.664 30.742 Q38.895 30.742 35.288 27.603 Q31.681 24.463 31.293 19.784 L19.532 -85.926 Q18.866 -92.183 23.009 -96.738 Q27.152 -101.293 33.316 -101.293 H121.565 Q127.728 -101.293 131.871 -96.738 Q136.015 -92.183 135.348 -85.926 L123.679 19.784 Q123.139 24.469 119.591 27.606 Q116.043 30.742 111.308 30.742 H43.664 Z"/></g><g id="Medium-L" transform="matrix(1 0 0 1 1674.31 1556)"><path d="M71.618 -11.214 Q63.634 -11.214 55.703 -8.955 Q47.771 -6.696 40.572 -2.503 L43.042 18.845 Q43.042 18.845 43.042 18.845 Q43.042 18.845 43.042 18.845 H111.982 Q111.982 18.845 111.982 18.845 Q111.982 18.845 111.982 18.845 L114.708 -4.845 H111.725 Q105.892 -4.883 100.908 -5.749 Q95.923 -6.615 87.536 -9.037 Q83.505 -10.085 79.594 -10.65 Q75.683 -11.214 71.618 -11.214 Z M39.331 -13.889 Q46.791 -17.682 55.051 -19.74 Q63.311 -21.797 71.629 -21.797 Q76.497 -21.797 81.259 -21.133 Q86.02 -20.469 90.37 -19.259 Q98.48 -17.04 102.726 -16.234 Q106.971 -15.428 111.753 -15.389 H115.711 L123.822 -89.305 H30.978 L39.331 -13.889 Z M43.033 29.428 Q38.922 29.428 35.854 26.761 Q32.786 24.095 32.45 20.047 L20.636 -86.82 Q20.076 -92.164 23.606 -96.045 Q27.137 -99.926 32.422 -99.926 H122.459 Q127.743 -99.926 131.274 -96.045 Q134.805 -92.164 134.244 -86.82 L122.469 20.047 Q122.035 24.101 118.987 26.764 Q115.938 29.428 111.887 29.428 H43.033 Z"/></g><g id="Regular-L" transform="matrix(1 0 0 1 1378.56 1556)"><path d="M71.654 -11.446 Q63.39 -11.446 55.33 -9.148 Q47.27 -6.85 40.071 -2.657 L42.57 19.192 Q42.57 19.192 42.57 19.192 Q42.57 19.192 42.57 19.192 H112.406 Q112.406 19.192 112.406 19.192 Q112.406 19.192 112.406 19.192 L115.133 -5.076 H112.149 Q106.162 -5.076 101.214 -5.923 Q96.266 -6.769 87.639 -9.269 Q83.608 -10.317 79.684 -10.881 Q75.761 -11.446 71.654 -11.446 Z M39.023 -12.655 Q46.521 -16.525 54.863 -18.621 Q63.206 -20.717 71.668 -20.717 Q76.445 -20.717 81.155 -20.072 Q85.866 -19.427 90.139 -18.218 Q98.383 -15.961 102.675 -15.154 Q106.968 -14.348 111.907 -14.348 H116.019 L124.324 -89.652 H30.476 L39.023 -12.655 Z M42.57 28.464 Q38.942 28.464 36.269 26.144 Q33.595 23.825 33.298 20.24 L21.446 -87.475 Q20.963 -92.151 24.044 -95.537 Q27.126 -98.924 31.766 -98.924 H123.114 Q127.755 -98.924 130.836 -95.537 Q133.918 -92.151 133.434 -87.475 L121.583 20.24 Q121.225 23.831 118.543 26.147 Q115.861 28.464 112.311 28.464 H42.57 Z"/></g><g id="Light-L" transform="matrix(1 0 0 1 1082.77 1556)"><path d="M71.504 -12.469 Q63.266 -12.469 55.361 -10.357 Q47.456 -8.245 40.35 -4.301 L42.849 16.742 Q42.88 17.486 43.454 17.982 Q44.028 18.479 44.834 18.479 H110.205 Q110.98 18.479 111.507 17.982 Q112.034 17.486 112.189 16.742 L114.791 -6.069 H112.553 Q106.658 -6.069 101.71 -6.915 Q96.762 -7.762 88.167 -10.292 Q84.011 -11.309 79.882 -11.889 Q75.753 -12.469 71.504 -12.469 Z M39.581 -11.787 Q46.985 -15.533 55.11 -17.536 Q63.236 -19.539 71.605 -19.539 Q76.331 -19.539 81.021 -18.879 Q85.711 -18.218 90.015 -17.102 Q98.476 -14.782 102.881 -13.96 Q107.286 -13.139 112.373 -13.139 H115.43 L123.828 -88.939 H30.91 L39.581 -11.787 Z M44.803 25.549 Q41.188 25.549 38.635 23.279 Q36.081 21.009 35.779 17.48 L24.082 -87.165 Q23.691 -90.787 26.091 -93.398 Q28.491 -96.009 32.169 -96.009 H122.773 Q126.381 -96.009 128.769 -93.404 Q131.158 -90.8 130.798 -87.165 L119.164 17.48 Q118.801 21.014 116.239 23.281 Q113.677 25.549 110.14 25.549 H44.803 Z"/></g><g id="Thin-L" transform="matrix(1 0 0 1 787.282 1556)"><path d="M71.354 -13.492 Q63.142 -13.492 55.392 -11.567 Q47.642 -9.641 40.629 -5.944 L43.128 14.292 Q43.19 15.781 44.337 16.773 Q45.485 17.765 47.097 17.765 H108.003 Q109.554 17.765 110.608 16.773 Q111.662 15.781 111.972 14.292 L114.45 -7.061 H112.956 Q107.154 -7.061 102.206 -7.907 Q97.259 -8.754 88.694 -11.315 Q84.414 -12.302 80.08 -12.897 Q75.746 -13.492 71.354 -13.492 Z M40.139 -10.918 Q47.449 -14.54 55.358 -16.451 Q63.266 -18.361 71.543 -18.361 Q76.218 -18.361 80.887 -17.685 Q85.556 -17.009 89.891 -15.985 Q98.569 -13.604 103.087 -12.767 Q107.605 -11.929 112.838 -11.929 H114.841 L123.331 -88.225 H31.345 L40.139 -10.918 Z M47.035 22.634 Q43.434 22.634 41 20.413 Q38.566 18.193 38.26 14.72 L26.718 -86.855 Q26.42 -89.422 28.138 -91.258 Q29.856 -93.094 32.572 -93.094 H122.432 Q125.007 -93.094 126.703 -91.271 Q128.398 -89.449 128.163 -86.855 L116.745 14.72 Q116.378 18.198 113.936 20.416 Q111.493 22.634 107.969 22.634 H47.035 Z"/></g><g id="Ultralight-L" transform="matrix(1 0 0 1 491.205 1556)"><path d="M71.264 -14.106 Q63.068 -14.106 55.411 -12.292 Q47.754 -10.478 40.796 -6.931 L43.296 12.823 Q43.376 14.758 44.868 16.048 Q46.359 17.338 48.456 17.338 H106.682 Q108.698 17.338 110.068 16.048 Q111.439 14.758 111.842 12.823 L114.246 -7.656 H113.198 Q107.452 -7.656 102.504 -8.503 Q97.556 -9.349 89.01 -11.929 Q84.656 -12.897 80.199 -13.502 Q75.742 -14.106 71.264 -14.106 Z M40.474 -10.397 Q47.727 -13.945 55.506 -15.799 Q63.285 -17.654 71.506 -17.654 Q76.15 -17.654 80.806 -16.968 Q85.463 -16.283 89.816 -15.316 Q98.625 -12.897 103.211 -12.05 Q107.796 -11.204 113.117 -11.204 H114.487 L123.034 -87.797 H31.605 L40.474 -10.397 Z M48.375 20.885 Q44.782 20.885 42.42 18.694 Q40.058 16.503 39.748 13.064 L28.299 -86.669 Q28.058 -88.604 29.366 -89.974 Q30.675 -91.345 32.814 -91.345 H122.228 Q124.183 -91.345 125.462 -89.991 Q126.743 -88.638 126.581 -86.669 L115.294 13.064 Q114.924 16.509 112.553 18.697 Q110.183 20.885 106.667 20.885 H48.375 Z"/></g><g id="Bold-M" transform="matrix(1 0 0 1 2281.8 1126)"><path d="M55.5 -14.855 Q50.875 -14.855 45.969 -13.511 Q41.062 -12.167 35.875 -9.667 L37.437 2.645 Q37.437 2.645 37.437 2.645 Q37.437 2.645 37.437 2.645 H82.836 Q82.836 2.645 82.836 2.645 Q82.836 2.645 82.836 2.645 L84.438 -9.98 H84.375 Q80.546 -10.105 76.648 -10.886 Q72.75 -11.667 67.125 -13.292 Q64.289 -14.167 61.291 -14.511 Q58.292 -14.855 55.5 -14.855 Z M34.125 -25.605 Q39.438 -27.73 44.795 -28.792 Q50.152 -29.855 55.578 -29.855 Q59.554 -29.855 63.465 -29.324 Q67.375 -28.792 71.125 -27.792 Q76.625 -26.167 79.628 -25.574 Q82.63 -24.98 85.688 -24.855 H86 L91.125 -73.105 H28.875 L34.125 -25.605 Z M37.375 17.77 Q31.625 17.77 27.25 13.926 Q22.875 10.083 22.312 4.333 L14.062 -69.48 Q13.25 -77.042 18.278 -82.636 Q23.306 -88.23 30.812 -88.23 H89.25 Q96.757 -88.23 101.785 -82.636 Q106.812 -77.042 106 -69.48 L97.875 4.333 Q97.271 10.087 92.932 13.929 Q88.592 17.77 82.812 17.77 H37.375 Z"/></g><g id="Semibold-M" transform="matrix(1 0 0 1 1985.97 1126)"><path d="M55.554 -15.29 Q50.44 -15.29 45.262 -13.919 Q40.084 -12.548 34.951 -9.939 L36.568 3.297 Q36.568 3.297 36.568 3.297 Q36.568 3.297 36.568 3.297 H83.651 Q83.651 3.297 83.651 3.297 Q83.651 3.297 83.651 3.297 L85.253 -10.415 H85.19 Q81.089 -10.485 77.219 -11.239 Q73.348 -11.994 67.342 -13.727 Q64.49 -14.602 61.472 -14.946 Q58.455 -15.29 55.554 -15.29 Z M33.527 -23.268 Q38.894 -25.556 44.449 -26.7 Q50.005 -27.844 55.632 -27.844 Q59.481 -27.844 63.265 -27.34 Q67.049 -26.836 70.69 -25.836 Q76.462 -24.157 79.573 -23.563 Q82.685 -22.969 86.014 -22.899 H86.598 L92.049 -73.757 H27.951 L33.527 -23.268 Z M36.505 15.922 Q31.679 15.922 28.038 12.731 Q24.397 9.539 23.943 4.713 L15.584 -70.73 Q14.88 -77.042 19.081 -81.712 Q23.282 -86.382 29.563 -86.382 H90.5 Q96.781 -86.382 100.981 -81.712 Q105.182 -77.042 104.478 -70.73 L96.19 4.713 Q95.695 9.544 92.089 12.733 Q88.483 15.922 83.628 15.922 H36.505 Z"/></g><g id="Medium-M" transform="matrix(1 0 0 1 1689.91 1126)"><path d="M55.595 -15.616 Q50.114 -15.616 44.732 -14.224 Q39.35 -12.833 34.258 -10.143 L35.916 3.786 Q35.916 3.786 35.916 3.786 Q35.916 3.786 35.916 3.786 H84.263 Q84.263 3.786 84.263 3.786 Q84.263 3.786 84.263 3.786 L85.864 -10.741 H85.802 Q81.497 -10.771 77.647 -11.504 Q73.796 -12.238 67.505 -14.053 Q64.64 -14.928 61.608 -15.272 Q58.577 -15.616 55.595 -15.616 Z M33.079 -21.515 Q38.486 -23.926 44.19 -25.131 Q49.894 -26.336 55.673 -26.336 Q59.425 -26.336 63.115 -25.852 Q66.804 -25.369 70.364 -24.369 Q76.34 -22.648 79.532 -22.055 Q82.725 -21.461 86.258 -21.431 H87.046 L92.742 -74.246 H27.258 L33.079 -21.515 Z M35.853 14.536 Q31.72 14.536 28.629 11.834 Q25.538 9.131 25.166 4.998 L16.726 -71.667 Q16.103 -77.042 19.683 -81.019 Q23.263 -84.996 28.625 -84.996 H91.438 Q96.799 -84.996 100.379 -81.019 Q103.959 -77.042 103.337 -71.667 L94.927 4.998 Q94.513 9.136 91.457 11.836 Q88.401 14.536 84.239 14.536 H35.853 Z"/></g><g id="Regular-M" transform="matrix(1 0 0 1 1394.06 1126)"><path d="M55.625 -15.855 Q49.875 -15.855 44.344 -14.449 Q38.812 -13.042 33.75 -10.292 L35.438 4.145 Q35.438 4.145 35.438 4.145 Q35.438 4.145 35.438 4.145 H84.711 Q84.711 4.145 84.711 4.145 Q84.711 4.145 84.711 4.145 L86.312 -10.98 H86.25 Q81.796 -10.98 77.96 -11.699 Q74.125 -12.417 67.625 -14.292 Q64.75 -15.167 61.708 -15.511 Q58.667 -15.855 55.625 -15.855 Z M32.75 -20.23 Q38.188 -22.73 44 -23.98 Q49.812 -25.23 55.703 -25.23 Q59.385 -25.23 63.005 -24.761 Q66.625 -24.292 70.125 -23.292 Q76.25 -21.542 79.503 -20.949 Q82.755 -20.355 86.438 -20.355 H87.375 L93.25 -74.605 H26.75 L32.75 -20.23 Z M35.375 13.52 Q31.75 13.52 29.062 11.176 Q26.375 8.833 26.062 5.208 L17.562 -72.355 Q17 -77.042 20.125 -80.511 Q23.25 -83.98 27.938 -83.98 H92.125 Q96.812 -83.98 99.938 -80.511 Q103.062 -77.042 102.5 -72.355 L94 5.208 Q93.646 8.837 90.994 11.179 Q88.342 13.52 84.688 13.52 H35.375 Z"/></g><g id="Light-M" transform="matrix(1 0 0 1 1098.18 1126)"><path d="M55.508 -16.985 Q49.635 -16.985 44.031 -15.627 Q38.428 -14.268 33.293 -11.567 L35.029 2.919 Q35.101 3.496 35.522 3.881 Q35.942 4.265 36.567 4.265 H83.629 Q84.23 4.265 84.639 3.881 Q85.048 3.496 85.168 2.919 L86.769 -12.086 H86.707 Q82.277 -12.086 78.441 -12.78 Q74.606 -13.475 68.082 -15.374 Q65.062 -16.273 61.886 -16.629 Q58.709 -16.985 55.508 -16.985 Z M32.558 -18.884 Q38.018 -21.432 43.831 -22.706 Q49.644 -23.98 55.607 -23.98 Q59.248 -23.98 62.853 -23.523 Q66.457 -23.066 69.933 -22.09 Q76.274 -20.292 79.614 -19.687 Q82.954 -19.081 86.798 -19.081 H87.543 L93.635 -74.725 H26.317 L32.558 -18.884 Z M36.529 11.26 Q33.203 11.26 30.752 9.123 Q28.302 6.986 28.034 3.693 L19.51 -72.932 Q19.067 -76.465 21.448 -79.093 Q23.828 -81.72 27.385 -81.72 H92.678 Q96.228 -81.72 98.6 -79.098 Q100.971 -76.476 100.553 -72.932 L92.077 3.693 Q91.768 6.99 89.352 9.125 Q86.937 11.26 83.582 11.26 H36.529 Z"/></g><g id="Thin-M" transform="matrix(1 0 0 1 802.565 1126)"><path d="M55.392 -18.115 Q49.394 -18.115 43.719 -16.804 Q38.043 -15.494 32.837 -12.84 L34.62 1.693 Q34.764 2.847 35.606 3.616 Q36.447 4.385 37.697 4.385 H82.548 Q83.75 4.385 84.567 3.616 Q85.384 2.847 85.624 1.693 L87.226 -13.191 H87.163 Q82.757 -13.191 78.922 -13.862 Q75.087 -14.533 68.538 -16.456 Q65.375 -17.379 62.063 -17.747 Q58.752 -18.115 55.392 -18.115 Z M32.365 -17.538 Q37.849 -20.134 43.662 -21.432 Q49.475 -22.73 55.511 -22.73 Q59.112 -22.73 62.7 -22.285 Q66.288 -21.841 69.74 -20.889 Q76.298 -19.042 79.726 -18.425 Q83.153 -17.807 87.159 -17.807 H87.712 L94.019 -74.845 H25.885 L32.365 -17.538 Z M37.683 9.001 Q34.655 9.001 32.442 7.07 Q30.228 5.139 30.005 2.179 L21.457 -73.509 Q21.135 -75.889 22.77 -77.675 Q24.405 -79.461 26.832 -79.461 H93.231 Q95.644 -79.461 97.262 -77.685 Q98.88 -75.909 98.606 -73.509 L90.154 2.179 Q89.889 5.144 87.711 7.072 Q85.533 9.001 82.476 9.001 H37.683 Z"/></g><g id="Ultralight-M" transform="matrix(1 0 0 1 506.415 1126)"><path d="M55.322 -18.792 Q49.25 -18.792 43.531 -17.511 Q37.812 -16.23 32.562 -13.605 L34.375 0.958 Q34.562 2.458 35.656 3.458 Q36.75 4.458 38.375 4.458 H81.899 Q83.461 4.458 84.524 3.458 Q85.586 2.458 85.899 0.958 L87.5 -13.855 H87.438 Q83.046 -13.855 79.21 -14.511 Q75.375 -15.167 68.812 -17.105 Q65.562 -18.042 62.17 -18.417 Q58.777 -18.792 55.322 -18.792 Z M32.25 -16.73 Q37.748 -19.355 43.56 -20.667 Q49.373 -21.98 55.453 -21.98 Q59.031 -21.98 62.609 -21.542 Q66.188 -21.105 69.625 -20.167 Q76.312 -18.292 79.793 -17.667 Q83.273 -17.042 87.375 -17.042 H87.812 L94.25 -74.917 H25.625 L32.25 -16.73 Z M38.375 7.645 Q35.527 7.645 33.456 5.838 Q31.384 4.032 31.188 1.27 L22.625 -73.855 Q22.375 -75.542 23.563 -76.824 Q24.751 -78.105 26.5 -78.105 H93.562 Q95.293 -78.105 96.459 -76.837 Q97.625 -75.569 97.438 -73.855 L89 1.27 Q88.762 4.036 86.726 5.84 Q84.69 7.645 81.812 7.645 H38.375 Z"/></g><g id="Bold-S" transform="matrix(1 0 0 1 2294.23 696)"><path d="M44.973 -19.549 Q41.562 -19.549 37.917 -18.488 Q34.272 -17.428 30.475 -15.357 L31.806 -6.136 Q31.806 -6.136 31.806 -6.136 Q31.806 -6.136 31.806 -6.136 H63.089 Q63.089 -6.136 63.089 -6.136 Q63.089 -6.136 63.089 -6.136 L64.55 -16.195 H64.501 Q61.973 -16.294 59.242 -16.812 Q56.512 -17.33 53.356 -18.316 Q51.217 -19.006 49.082 -19.277 Q46.946 -19.549 44.973 -19.549 Z M29.094 -27.044 Q32.891 -28.721 36.823 -29.658 Q40.754 -30.595 44.827 -30.595 Q47.835 -30.595 50.793 -30.126 Q53.751 -29.658 56.512 -28.869 Q58.978 -28.08 61.445 -27.611 Q63.913 -27.143 65.668 -27.044 H65.783 L70.32 -64.324 H24.36 L29.094 -27.044 Z M31.884 5.009 Q27.714 5.009 24.508 2.174 Q21.303 -0.662 20.761 -4.804 L13.462 -61.366 Q12.821 -67.054 16.542 -71.261 Q20.262 -75.469 25.935 -75.469 H68.794 Q74.467 -75.469 78.188 -71.261 Q81.908 -67.054 81.267 -61.366 L74.067 -4.804 Q73.492 -0.658 70.334 2.175 Q67.176 5.009 62.983 5.009 H31.884 Z"/></g><g id="Semibold-S" transform="matrix(1 0 0 1 1998.1 696)"><path d="M45.016 -19.892 Q41.219 -19.892 37.36 -18.81 Q33.5 -17.728 29.746 -15.571 L31.12 -5.621 Q31.12 -5.621 31.12 -5.621 Q31.12 -5.621 31.12 -5.621 H63.732 Q63.732 -5.621 63.732 -5.621 Q63.732 -5.621 63.732 -5.621 L65.193 -16.538 H65.144 Q62.402 -16.594 59.693 -17.09 Q56.984 -17.587 53.528 -18.659 Q51.375 -19.349 49.225 -19.62 Q47.074 -19.892 45.016 -19.892 Z M28.623 -25.2 Q32.463 -27.006 36.55 -28.007 Q40.637 -29.008 44.87 -29.008 Q47.777 -29.008 50.635 -28.561 Q53.493 -28.114 56.169 -27.325 Q58.849 -26.493 61.403 -26.025 Q63.956 -25.556 65.925 -25.501 H66.254 L71.049 -64.839 H23.631 L28.623 -25.2 Z M31.198 3.551 Q27.757 3.551 25.13 1.23 Q22.504 -1.091 22.047 -4.504 L14.663 -62.352 Q14.108 -67.054 17.175 -70.532 Q20.243 -74.011 24.949 -74.011 H69.78 Q74.486 -74.011 77.554 -70.532 Q80.622 -67.054 80.066 -62.352 L72.738 -4.504 Q72.249 -1.087 69.67 1.232 Q67.09 3.551 63.626 3.551 H31.198 Z"/></g><g id="Medium-S" transform="matrix(1 0 0 1 1701.85 696)"><path d="M45.048 -20.149 Q40.962 -20.149 36.942 -19.051 Q32.921 -17.953 29.199 -15.732 L30.606 -5.235 Q30.606 -5.235 30.606 -5.235 Q30.606 -5.235 30.606 -5.235 H64.215 Q64.215 -5.235 64.215 -5.235 Q64.215 -5.235 64.215 -5.235 L65.676 -16.796 H65.626 Q62.723 -16.819 60.03 -17.3 Q57.338 -17.78 53.656 -18.916 Q51.494 -19.607 49.332 -19.878 Q47.171 -20.149 45.048 -20.149 Z M28.269 -23.817 Q32.141 -25.719 36.345 -26.769 Q40.55 -27.818 44.902 -27.818 Q47.733 -27.818 50.517 -27.387 Q53.3 -26.956 55.912 -26.167 Q58.753 -25.303 61.37 -24.835 Q63.988 -24.366 66.118 -24.343 H66.608 L71.595 -65.225 H23.085 L28.269 -23.817 Z M30.683 2.458 Q27.789 2.458 25.596 0.523 Q23.404 -1.412 23.012 -4.279 L15.563 -63.092 Q15.072 -67.054 17.651 -69.986 Q20.229 -72.918 24.209 -72.918 H70.52 Q74.501 -72.918 77.079 -69.986 Q79.657 -67.054 79.166 -63.092 L71.741 -4.279 Q71.316 -1.409 69.171 0.524 Q67.026 2.458 64.108 2.458 H30.683 Z"/></g><g id="Regular-S" transform="matrix(1 0 0 1 1405.73 696)"><path d="M45.072 -20.338 Q40.773 -20.338 36.635 -19.228 Q32.497 -18.119 28.799 -15.85 L30.229 -4.952 Q30.229 -4.952 30.229 -4.952 Q30.229 -4.952 30.229 -4.952 H64.569 Q64.569 -4.952 64.569 -4.952 Q64.569 -4.952 64.569 -4.952 L66.029 -16.984 H65.98 Q62.959 -16.984 60.278 -17.453 Q57.597 -17.921 53.751 -19.105 Q51.581 -19.795 49.411 -20.066 Q47.241 -20.338 45.072 -20.338 Z M28.01 -22.803 Q31.905 -24.776 36.195 -25.861 Q40.486 -26.945 44.926 -26.945 Q47.701 -26.945 50.43 -26.526 Q53.159 -26.107 55.723 -25.318 Q58.682 -24.431 61.347 -23.962 Q64.012 -23.494 66.26 -23.494 H66.868 L71.996 -65.508 H22.684 L28.01 -22.803 Z M30.306 1.656 Q27.812 1.656 25.938 0.004 Q24.065 -1.648 23.719 -4.114 L16.224 -63.634 Q15.78 -67.054 17.999 -69.585 Q20.218 -72.116 23.667 -72.116 H71.063 Q74.511 -72.116 76.73 -69.585 Q78.949 -67.054 78.505 -63.634 L71.01 -4.114 Q70.632 -1.645 68.806 0.006 Q66.979 1.656 64.462 1.656 H30.306 Z"/></g><g id="Light-S" transform="matrix(1 0 0 1 1109.75 696)"><path d="M44.98 -21.229 Q40.584 -21.229 36.389 -20.158 Q32.193 -19.086 28.438 -16.855 L29.906 -5.919 Q29.963 -5.464 30.295 -5.161 Q30.627 -4.857 31.12 -4.857 H63.715 Q64.189 -4.857 64.512 -5.161 Q64.834 -5.464 64.929 -5.919 L66.39 -17.857 H66.341 Q63.338 -17.857 60.657 -18.306 Q57.976 -18.756 54.111 -19.958 Q51.827 -20.668 49.551 -20.948 Q47.275 -21.229 44.98 -21.229 Z M27.858 -21.741 Q31.772 -23.752 36.062 -24.855 Q40.352 -25.959 44.85 -25.959 Q47.594 -25.959 50.31 -25.549 Q53.026 -25.14 55.571 -24.37 Q58.701 -23.444 61.435 -22.966 Q64.169 -22.488 66.544 -22.488 H67 L72.3 -65.603 H22.342 L27.858 -21.741 Z M31.216 -0.127 Q28.958 -0.127 27.272 -1.616 Q25.585 -3.105 25.275 -5.309 L17.76 -64.089 Q17.411 -66.598 19.043 -68.466 Q20.674 -70.333 23.23 -70.333 H71.499 Q74.05 -70.333 75.675 -68.47 Q77.299 -66.606 76.969 -64.089 L69.493 -5.309 Q69.15 -3.102 67.51 -1.614 Q65.871 -0.127 63.59 -0.127 H31.216 Z"/></g><g id="Thin-S" transform="matrix(1 0 0 1 814.015 696)"><path d="M44.888 -22.12 Q40.394 -22.12 36.142 -21.087 Q31.89 -20.053 28.078 -17.861 L29.584 -6.887 Q29.697 -5.976 30.361 -5.369 Q31.025 -4.762 32.011 -4.762 H62.862 Q63.81 -4.762 64.455 -5.369 Q65.1 -5.976 65.289 -6.887 L66.75 -18.729 H66.701 Q63.718 -18.729 61.037 -19.16 Q58.356 -19.59 54.471 -20.812 Q52.074 -21.54 49.691 -21.83 Q47.309 -22.12 44.888 -22.12 Z M27.706 -20.679 Q31.638 -22.727 35.929 -23.85 Q40.219 -24.973 44.774 -24.973 Q47.486 -24.973 50.19 -24.573 Q52.893 -24.173 55.42 -23.422 Q58.72 -22.458 61.523 -21.971 Q64.326 -21.483 66.829 -21.483 H67.133 L72.603 -65.698 H22.001 L27.706 -20.679 Z M32.127 -1.91 Q30.104 -1.91 28.605 -3.236 Q27.105 -4.562 26.83 -6.504 L19.296 -64.544 Q19.042 -66.143 20.086 -67.347 Q21.129 -68.55 22.794 -68.55 H71.935 Q73.589 -68.55 74.619 -67.355 Q75.649 -66.159 75.433 -64.544 L67.975 -6.504 Q67.668 -4.559 66.215 -3.234 Q64.763 -1.91 62.717 -1.91 H32.127 Z"/></g><g id="Ultralight-S" transform="matrix(1 0 0 1 517.792 696)"><path d="M44.833 -22.655 Q40.28 -22.655 35.994 -21.644 Q31.708 -20.633 27.862 -18.464 L29.39 -7.467 Q29.538 -6.284 30.401 -5.495 Q31.264 -4.706 32.546 -4.706 H62.35 Q63.582 -4.706 64.421 -5.495 Q65.259 -6.284 65.506 -7.467 L66.966 -19.253 H66.917 Q63.945 -19.253 61.264 -19.672 Q58.583 -20.091 54.688 -21.324 Q52.222 -22.064 49.775 -22.359 Q47.329 -22.655 44.833 -22.655 Z M27.615 -20.042 Q31.558 -22.113 35.849 -23.247 Q40.139 -24.381 44.729 -24.381 Q47.422 -24.381 50.118 -23.987 Q52.814 -23.592 55.329 -22.853 Q58.731 -21.866 61.576 -21.373 Q64.42 -20.88 66.999 -20.88 H67.213 L72.785 -65.754 H21.796 L27.615 -20.042 Z M32.673 -2.98 Q30.792 -2.98 29.405 -4.208 Q28.017 -5.436 27.763 -7.22 L20.218 -64.817 Q20.021 -65.87 20.712 -66.675 Q21.403 -67.48 22.533 -67.48 H72.197 Q73.313 -67.48 73.986 -66.686 Q74.659 -65.891 74.511 -64.817 L67.065 -7.22 Q66.778 -5.433 65.438 -4.206 Q64.098 -2.98 62.194 -2.98 H32.673 Z"/></g></g></svg>