<svg xmlns="http://www.w3.org/2000/svg" version="1.1" width="3300" height="2000"><g id="Notes"><style>
    text {
      font-family: monospace;
      text-anchor: middle;
    }
    text.emphasis {
      font-weight:bold;
    }
    text.lanchor {
      text-anchor: start;
    }
  </style><rect height="2200" id="artboard" fill="white" width="3300" x="0" y="0"/><line id="" style="fill:none;stroke:black;stroke-width:0.5;" x1="263" x2="3036" y1="292" y2="292"/><text class="lanchor emphasis" transform="matrix(1 0 0 1 263 322)">Weight/Scale Variations</text><text transform="matrix(1 0 0 1 559.711 322)">Ultralight</text><text transform="matrix(1 0 0 1 856.422 322)">Thin</text><text transform="matrix(1 0 0 1 1153.13 322)">Light</text><text transform="matrix(1 0 0 1 1449.84 322)">Regular</text><text transform="matrix(1 0 0 1 1746.56 322)">Medium</text><text transform="matrix(1 0 0 1 2043.27 322)">Semibold</text><text transform="matrix(1 0 0 1 2339.98 322)">Bold</text><text transform="matrix(1 0 0 1 2636.69 322)">Heavy</text><text transform="matrix(1 0 0 1 2933.4 322)">Black</text><text id="template-version" style="text-anchor: end;" transform="matrix(1 0 0 1 3036 1933)">Template v.1.0</text><text class="lanchor" transform="matrix(1 0 0 1 263 726)">Small</text><text class="lanchor" transform="matrix(1 0 0 1 263 1156)">Medium</text><text class="lanchor" transform="matrix(1 0 0 1 263 1586)">Large</text></g><g id="Guides"><g id="H-reference" style="fill:#27AAE1;stroke:none;" transform="matrix(1 0 0 1 339 696)"><path d="M 54.9316 0 L 57.666 0 L 30.5664 -70.459 L 28.0762 -70.459 L 0.976562 0 L 3.66211 0 L 12.9395 -24.4629 L 45.7031 -24.4629 Z M 29.1992 -67.0898 L 29.4434 -67.0898 L 44.8242 -26.709 L 13.8184 -26.709 Z"/></g><line id="Baseline-S" style="fill:none;stroke:#27AAE1;opacity:1;stroke-width:0.577;" x1="263" x2="3036" y1="696" y2="696"/><line id="Capline-S" style="fill:none;stroke:#27AAE1;opacity:1;stroke-width:0.577;" x1="263" x2="3036" y1="625.541" y2="625.541"/><g id="H-reference" style="fill:#27AAE1;stroke:none;" transform="matrix(1 0 0 1 339 1126)"><path d="M 54.9316 0 L 57.666 0 L 30.5664 -70.459 L 28.0762 -70.459 L 0.976562 0 L 3.66211 0 L 12.9395 -24.4629 L 45.7031 -24.4629 Z M 29.1992 -67.0898 L 29.4434 -67.0898 L 44.8242 -26.709 L 13.8184 -26.709 Z"/></g><line id="Baseline-M" style="fill:none;stroke:#27AAE1;opacity:1;stroke-width:0.577;" x1="263" x2="3036" y1="1126" y2="1126"/><line id="Capline-M" style="fill:none;stroke:#27AAE1;opacity:1;stroke-width:0.577;" x1="263" x2="3036" y1="1055.54" y2="1055.54"/><g id="H-reference" style="fill:#27AAE1;stroke:none;" transform="matrix(1 0 0 1 339 1556)"><path d="M 54.9316 0 L 57.666 0 L 30.5664 -70.459 L 28.0762 -70.459 L 0.976562 0 L 3.66211 0 L 12.9395 -24.4629 L 45.7031 -24.4629 Z M 29.1992 -67.0898 L 29.4434 -67.0898 L 44.8242 -26.709 L 13.8184 -26.709 Z"/></g><line id="Baseline-L" style="fill:none;stroke:#27AAE1;opacity:1;stroke-width:0.577;" x1="263" x2="3036" y1="1556" y2="1556"/><line id="Capline-L" style="fill:none;stroke:#27AAE1;opacity:1;stroke-width:0.577;" x1="263" x2="3036" y1="1485.54" y2="1485.54"/><rect height="119.336" id="left-margin" style="fill:darkred;stroke:none;opacity:0.4;" width="12.4512" x="1394.06" y="1030.79"/><rect height="119.336" id="right-margin" style="fill:darkgreen;stroke:none;opacity:0.4;" width="12.4512" x="1502.5112" y="1030.79"/><rect x="1406.5112" y="1045" width="96" height="96" fill="none" stroke="blue" stroke-dasharray="5"/><rect x="1394.06" y="1030.79" width="120.9024" height="119.336" fill="none" stroke="blue"/></g><g id="Symbols"><g id="Bold-L" transform="matrix(1 0 0 1 2266 1556)"><path d="M94.493 17.66 H51.116 Q45.17 17.66 40.806 13.296 Q36.443 8.932 36.443 2.986 V-63.126 Q36.443 -65.827 38.274 -67.621 Q40.106 -69.415 42.951 -69.415 Q45.795 -69.415 47.569 -67.621 Q49.343 -65.827 49.343 -63.126 V4.76 Q49.343 4.76 49.343 4.76 Q49.343 4.76 49.343 4.76 H94.493 Q97.419 4.76 99.1 6.451 Q100.781 8.142 100.781 11.047 Q100.781 13.892 99.1 15.776 Q97.419 17.66 94.493 17.66 Z M73.529 -73.446 Q67.479 -73.446 63.087 -77.671 Q58.695 -81.897 58.695 -88.006 Q58.695 -94.183 63.098 -98.488 Q67.501 -102.794 73.537 -102.794 Q79.637 -102.794 83.921 -98.541 Q88.204 -94.289 88.204 -88.141 Q88.204 -81.992 83.892 -77.719 Q79.579 -73.446 73.529 -73.446 Z M107.392 23.143 V-1.617 H67.564 Q62.593 -1.617 59.193 -5.064 Q55.793 -8.511 55.793 -13.3 V-48.13 Q55.793 -55.209 60.971 -60.377 Q66.149 -65.545 73.494 -65.545 Q80.625 -65.545 85.866 -60.377 Q91.106 -55.209 91.106 -48.13 V-19.105 H106.586 Q111.442 -19.105 114.9 -15.695 Q118.358 -12.284 118.358 -7.495 V23.304 Q118.358 25.638 116.799 27.212 Q115.24 28.786 113.039 28.786 Q110.838 28.786 109.115 27.166 Q107.392 25.545 107.392 23.143 Z"/></g><g id="Semibold-L" transform="matrix(1 0 0 1 1970.27 1556)"><path d="M94.633 17.59 H49.995 Q44.567 17.59 40.575 13.598 Q36.583 9.605 36.583 4.178 V-63.337 Q36.583 -65.899 38.379 -67.657 Q40.176 -69.415 42.845 -69.415 Q45.515 -69.415 47.253 -67.657 Q48.992 -65.899 48.992 -63.337 V5.181 Q48.992 5.181 48.992 5.181 Q48.992 5.181 48.992 5.181 H94.633 Q97.323 5.181 99.017 6.885 Q100.711 8.589 100.711 11.293 Q100.711 13.962 99.017 15.776 Q97.323 17.59 94.633 17.59 Z M72.895 -73.937 Q67.025 -73.937 62.755 -78.116 Q58.485 -82.295 58.485 -88.199 Q58.485 -94.141 62.764 -98.362 Q67.044 -102.583 72.906 -102.583 Q78.805 -102.583 83.014 -98.389 Q87.222 -94.195 87.222 -88.269 Q87.222 -82.343 82.994 -78.14 Q78.766 -73.937 72.895 -73.937 Z M106.902 24.054 V-1.298 H67.914 Q62.734 -1.298 59.123 -4.915 Q55.512 -8.531 55.512 -13.58 V-49.182 Q55.512 -56.245 60.572 -61.281 Q65.633 -66.316 72.874 -66.316 Q79.994 -66.316 85.095 -61.281 Q90.195 -56.245 90.195 -49.182 V-19.105 H105.815 Q110.931 -19.105 114.574 -15.509 Q118.217 -11.913 118.217 -6.864 V24.145 Q118.217 26.568 116.588 28.203 Q114.958 29.838 112.653 29.838 Q110.347 29.838 108.625 28.177 Q106.902 26.516 106.902 24.054 Z"/></g><g id="Medium-L" transform="matrix(1 0 0 1 1674.31 1556)"><path d="M94.738 17.537 H49.153 Q44.115 17.537 40.402 13.824 Q36.688 10.11 36.688 5.072 V-63.494 Q36.688 -65.953 38.458 -67.684 Q40.229 -69.415 42.766 -69.415 Q45.304 -69.415 47.017 -67.684 Q48.729 -65.953 48.729 -63.494 V5.496 Q48.729 5.496 48.729 5.496 Q48.729 5.496 48.729 5.496 H94.738 Q97.251 5.496 98.955 7.21 Q100.659 8.924 100.659 11.477 Q100.659 14.014 98.955 15.776 Q97.251 17.537 94.738 17.537 Z M72.42 -74.305 Q66.685 -74.305 62.506 -78.45 Q58.327 -82.594 58.327 -88.344 Q58.327 -94.109 62.514 -98.267 Q66.701 -102.426 72.433 -102.426 Q78.18 -102.426 82.333 -98.275 Q86.486 -94.124 86.486 -88.365 Q86.486 -82.606 82.321 -78.455 Q78.156 -74.305 72.42 -74.305 Z M106.534 24.737 V-1.059 H68.177 Q62.839 -1.059 59.07 -4.803 Q55.302 -8.546 55.302 -13.791 V-49.97 Q55.302 -57.022 60.273 -61.958 Q65.245 -66.895 72.409 -66.895 Q79.521 -66.895 84.516 -61.958 Q89.511 -57.022 89.511 -49.97 V-19.105 H105.237 Q110.548 -19.105 114.33 -15.37 Q118.112 -11.635 118.112 -6.391 V24.776 Q118.112 27.267 116.43 28.947 Q114.747 30.627 112.363 30.627 Q109.979 30.627 108.256 28.935 Q106.534 27.244 106.534 24.737 Z"/></g><g id="Regular-L" transform="matrix(1 0 0 1 1378.56 1556)"><path d="M94.815 17.499 H48.536 Q43.783 17.499 40.274 13.99 Q36.765 10.48 36.765 5.728 V-63.61 Q36.765 -65.992 38.516 -67.704 Q40.267 -69.415 42.709 -69.415 Q45.15 -69.415 46.843 -67.704 Q48.536 -65.992 48.536 -63.61 V5.728 Q48.536 5.728 48.536 5.728 Q48.536 5.728 48.536 5.728 H94.815 Q97.197 5.728 98.909 7.449 Q100.62 9.17 100.62 11.612 Q100.62 14.053 98.909 15.776 Q97.197 17.499 94.815 17.499 Z M72.072 -74.575 Q66.435 -74.575 62.323 -78.694 Q58.211 -82.813 58.211 -88.45 Q58.211 -94.086 62.33 -98.198 Q66.449 -102.31 72.086 -102.31 Q77.722 -102.31 81.834 -98.191 Q85.946 -94.072 85.946 -88.435 Q85.946 -82.799 81.827 -78.687 Q77.708 -74.575 72.072 -74.575 Z M106.264 25.239 V-0.884 H68.37 Q62.916 -0.884 59.032 -4.721 Q55.148 -8.557 55.148 -13.945 V-50.549 Q55.148 -57.592 60.054 -62.455 Q64.961 -67.319 72.067 -67.319 Q79.174 -67.319 84.092 -62.455 Q89.01 -57.592 89.01 -50.549 V-19.105 H104.812 Q110.267 -19.105 114.151 -15.268 Q118.035 -11.431 118.035 -6.044 V25.239 Q118.035 27.778 116.314 29.492 Q114.592 31.205 112.151 31.205 Q109.709 31.205 107.987 29.492 Q106.264 27.778 106.264 25.239 Z"/></g><g id="Light-L" transform="matrix(1 0 0 1 1082.77 1556)"><path d="M94.319 14.77 H50.583 Q45.954 14.77 42.569 11.384 Q39.184 7.999 39.184 3.371 V-64.292 Q39.184 -66.177 40.595 -67.548 Q42.006 -68.919 43.95 -68.919 Q45.894 -68.919 47.246 -67.548 Q48.598 -66.177 48.598 -64.292 V3.371 Q48.598 4.115 49.218 4.735 Q49.839 5.355 50.583 5.355 H94.319 Q96.204 5.355 97.574 6.737 Q98.945 8.118 98.945 10.062 Q98.945 12.006 97.574 13.388 Q96.204 14.77 94.319 14.77 Z M70.583 -73.024 Q65.381 -73.024 61.579 -76.824 Q57.777 -80.624 57.777 -85.876 Q57.777 -91.127 61.586 -94.92 Q65.395 -98.713 70.597 -98.713 Q75.862 -98.713 79.663 -94.913 Q83.465 -91.113 83.465 -85.861 Q83.465 -80.61 79.656 -76.817 Q75.847 -73.024 70.583 -73.024 Z M106.202 24.805 V-1.256 H67.067 Q62.171 -1.256 58.69 -4.721 Q55.21 -8.185 55.21 -13.015 V-50.115 Q55.21 -56.538 59.645 -60.967 Q64.081 -65.396 70.604 -65.396 Q77.127 -65.396 81.58 -60.967 Q86.033 -56.538 86.033 -50.115 V-17.12 H103.82 Q108.654 -17.12 112.135 -13.687 Q115.616 -10.253 115.616 -5.398 V24.805 Q115.616 26.847 114.235 28.219 Q112.853 29.592 110.909 29.592 Q108.965 29.592 107.583 28.219 Q106.202 26.847 106.202 24.805 Z"/></g><g id="Thin-L" transform="matrix(1 0 0 1 787.282 1556)"><path d="M93.823 12.041 H52.629 Q48.125 12.041 44.864 8.78 Q41.602 5.519 41.602 1.014 V-64.974 Q41.602 -66.361 42.674 -67.392 Q43.745 -68.423 45.192 -68.423 Q46.638 -68.423 47.649 -67.392 Q48.66 -66.361 48.66 -64.974 V1.014 Q48.66 2.503 49.901 3.743 Q51.141 4.983 52.629 4.983 H93.823 Q95.21 4.983 96.24 6.025 Q97.271 7.066 97.271 8.513 Q97.271 9.96 96.24 11.001 Q95.21 12.041 93.823 12.041 Z M69.095 -71.474 Q64.326 -71.474 60.835 -74.955 Q57.343 -78.435 57.343 -83.302 Q57.343 -88.169 60.842 -91.642 Q64.341 -95.116 69.109 -95.116 Q74.001 -95.116 77.493 -91.635 Q80.985 -88.155 80.985 -83.288 Q80.985 -78.421 77.486 -74.947 Q73.987 -71.474 69.095 -71.474 Z M106.14 24.37 V-1.628 H65.765 Q61.427 -1.628 58.349 -4.721 Q55.272 -7.813 55.272 -12.084 V-49.68 Q55.272 -55.483 59.237 -59.479 Q63.202 -63.474 69.141 -63.474 Q75.081 -63.474 79.068 -59.479 Q83.056 -55.483 83.056 -49.68 V-15.136 H102.828 Q107.042 -15.136 110.12 -12.105 Q113.198 -9.075 113.198 -4.752 V24.37 Q113.198 25.915 112.156 26.947 Q111.115 27.98 109.668 27.98 Q108.221 27.98 107.18 26.947 Q106.14 25.915 106.14 24.37 Z"/></g><g id="Ultralight-L" transform="matrix(1 0 0 1 491.205 1556)"><path d="M93.525 10.404 H53.858 Q49.427 10.404 46.241 7.217 Q43.054 4.03 43.054 -0.4 V-65.384 Q43.054 -66.472 43.921 -67.299 Q44.788 -68.125 45.936 -68.125 Q47.085 -68.125 47.891 -67.299 Q48.697 -66.472 48.697 -65.384 V-0.4 Q48.697 1.535 50.31 3.148 Q51.922 4.76 53.858 4.76 H93.525 Q94.613 4.76 95.44 5.597 Q96.266 6.435 96.266 7.583 Q96.266 8.732 95.44 9.568 Q94.613 10.404 93.525 10.404 Z M68.202 -70.544 Q63.694 -70.544 60.388 -73.833 Q57.083 -77.122 57.083 -81.758 Q57.083 -86.394 60.395 -89.676 Q63.708 -92.957 68.216 -92.957 Q72.885 -92.957 76.191 -89.668 Q79.496 -86.379 79.496 -81.744 Q79.496 -77.108 76.184 -73.826 Q72.871 -70.544 68.202 -70.544 Z M106.103 24.11 V-1.851 H64.984 Q60.981 -1.851 58.145 -4.721 Q55.309 -7.59 55.309 -11.526 V-49.42 Q55.309 -54.851 58.991 -58.585 Q62.674 -62.32 68.263 -62.32 Q73.853 -62.32 77.561 -58.585 Q81.27 -54.851 81.27 -49.42 V-13.945 H102.233 Q106.074 -13.945 108.91 -11.156 Q111.746 -8.368 111.746 -4.364 V24.11 Q111.746 25.356 110.909 26.184 Q110.072 27.013 108.923 27.013 Q107.774 27.013 106.938 26.184 Q106.103 25.356 106.103 24.11 Z"/></g><g id="Bold-M" transform="matrix(1 0 0 1 2281.8 1126)"><path d="M68.875 10.395 H43 Q35.859 10.395 30.93 5.465 Q26 0.536 26 -6.605 V-52.73 Q26 -55.852 28.188 -58.041 Q30.375 -60.23 33.562 -60.23 Q36.75 -60.23 38.938 -58.041 Q41.125 -55.852 41.125 -52.73 V-4.73 Q41.125 -4.73 41.125 -4.73 Q41.125 -4.73 41.125 -4.73 H68.875 Q72.172 -4.73 74.273 -2.628 Q76.375 -0.527 76.375 2.708 Q76.375 5.895 74.273 8.145 Q72.172 10.395 68.875 10.395 Z M61.688 -65.855 Q56.684 -65.855 52.967 -69.468 Q49.25 -73.081 49.25 -78.167 Q49.25 -83.305 52.956 -86.955 Q56.661 -90.605 61.625 -90.605 Q66.691 -90.605 70.345 -86.971 Q74 -83.336 74 -78.221 Q74 -73.105 70.345 -69.48 Q66.691 -65.855 61.688 -65.855 Z M80.875 9.27 V-9.855 H56.875 Q52.403 -9.855 49.327 -12.976 Q46.25 -16.097 46.25 -20.48 V-45.73 Q46.25 -52.117 50.741 -56.611 Q55.232 -61.105 61.616 -61.105 Q68 -61.105 72.5 -56.611 Q77 -52.117 77 -45.73 V-27.98 H83.375 Q87.758 -27.98 90.879 -24.859 Q94 -21.738 94 -17.355 V9.395 Q94 12.092 92.113 13.993 Q90.226 15.895 87.55 15.895 Q84.875 15.895 82.875 13.958 Q80.875 12.02 80.875 9.27 Z"/></g><g id="Semibold-M" transform="matrix(1 0 0 1 1985.97 1126)"><path d="M69.092 9.906 H41.804 Q35.392 9.906 30.913 5.427 Q26.435 0.949 26.435 -5.464 V-53.11 Q26.435 -56.071 28.514 -58.15 Q30.592 -60.23 33.59 -60.23 Q36.587 -60.23 38.666 -58.15 Q40.745 -56.071 40.745 -53.11 V-4.404 Q40.745 -4.404 40.745 -4.404 Q40.745 -4.404 40.745 -4.404 H69.092 Q72.151 -4.404 74.182 -2.374 Q76.212 -0.343 76.212 2.68 Q76.212 5.678 74.182 7.792 Q72.151 9.906 69.092 9.906 Z M60.845 -66.235 Q56.061 -66.235 52.492 -69.745 Q48.924 -73.255 48.924 -78.086 Q48.924 -82.946 52.486 -86.477 Q56.047 -90.007 60.81 -90.007 Q65.629 -90.007 69.163 -86.486 Q72.696 -82.964 72.696 -78.116 Q72.696 -73.268 69.163 -69.752 Q65.629 -66.235 60.845 -66.235 Z M80.386 10.085 V-9.583 H57.038 Q52.403 -9.583 49.163 -12.848 Q45.924 -16.113 45.924 -20.697 V-46.817 Q45.924 -53.029 50.261 -57.366 Q54.597 -61.703 60.809 -61.703 Q67.022 -61.703 71.359 -57.366 Q75.696 -53.029 75.696 -46.817 V-27.763 H82.451 Q87.036 -27.763 90.3 -24.498 Q93.565 -21.233 93.565 -16.648 V10.156 Q93.565 12.876 91.656 14.793 Q89.747 16.71 87.039 16.71 Q84.332 16.71 82.359 14.773 Q80.386 12.835 80.386 10.085 Z"/></g><g id="Medium-M" transform="matrix(1 0 0 1 1689.91 1126)"><path d="M69.255 9.539 H40.908 Q35.041 9.539 30.901 5.399 Q26.761 1.259 26.761 -4.608 V-53.396 Q26.761 -56.235 28.758 -58.232 Q30.755 -60.23 33.61 -60.23 Q36.465 -60.23 38.462 -58.232 Q40.459 -56.235 40.459 -53.396 V-4.159 Q40.459 -4.159 40.459 -4.159 Q40.459 -4.159 40.459 -4.159 H69.255 Q72.136 -4.159 74.113 -2.183 Q76.09 -0.206 76.09 2.66 Q76.09 5.515 74.113 7.527 Q72.136 9.539 69.255 9.539 Z M60.213 -66.521 Q55.593 -66.521 52.136 -69.953 Q48.679 -73.385 48.679 -78.025 Q48.679 -82.677 52.133 -86.118 Q55.587 -89.559 60.198 -89.559 Q64.834 -89.559 68.275 -86.122 Q71.717 -82.685 71.717 -78.037 Q71.717 -73.39 68.275 -69.955 Q64.834 -66.521 60.213 -66.521 Z M80.019 10.697 V-9.379 H57.16 Q52.403 -9.379 49.041 -12.752 Q45.679 -16.124 45.679 -20.86 V-47.632 Q45.679 -53.713 49.9 -57.932 Q54.121 -62.151 60.204 -62.151 Q66.288 -62.151 70.503 -57.932 Q74.717 -53.713 74.717 -47.632 V-27.6 H81.758 Q86.494 -27.6 89.867 -24.227 Q93.239 -20.854 93.239 -16.119 V10.727 Q93.239 13.464 91.314 15.393 Q89.388 17.322 86.656 17.322 Q83.924 17.322 81.972 15.384 Q80.019 13.447 80.019 10.697 Z"/></g><g id="Regular-M" transform="matrix(1 0 0 1 1394.06 1126)"><path d="M69.375 9.27 H40.25 Q34.784 9.27 30.892 5.378 Q27 1.486 27 -3.98 V-53.605 Q27 -56.355 28.938 -58.292 Q30.875 -60.23 33.625 -60.23 Q36.375 -60.23 38.312 -58.292 Q40.25 -56.355 40.25 -53.605 V-3.98 Q40.25 -3.98 40.25 -3.98 Q40.25 -3.98 40.25 -3.98 H69.375 Q72.125 -3.98 74.062 -2.042 Q76 -0.105 76 2.645 Q76 5.395 74.062 7.333 Q72.125 9.27 69.375 9.27 Z M59.75 -66.73 Q55.25 -66.73 51.875 -70.105 Q48.5 -73.48 48.5 -77.98 Q48.5 -82.48 51.875 -85.855 Q55.25 -89.23 59.75 -89.23 Q64.25 -89.23 67.625 -85.855 Q71 -82.48 71 -77.98 Q71 -73.48 67.625 -70.105 Q64.25 -66.73 59.75 -66.73 Z M79.75 11.145 V-9.23 H57.25 Q52.403 -9.23 48.952 -12.681 Q45.5 -16.133 45.5 -20.98 V-48.23 Q45.5 -54.215 49.636 -58.347 Q53.771 -62.48 59.761 -62.48 Q65.75 -62.48 69.875 -58.347 Q74 -54.215 74 -48.23 V-27.48 H81.25 Q86.097 -27.48 89.549 -24.028 Q93 -20.577 93 -15.73 V11.145 Q93 13.895 91.062 15.833 Q89.125 17.77 86.375 17.77 Q83.625 17.77 81.688 15.833 Q79.75 13.895 79.75 11.145 Z"/></g><g id="Light-M" transform="matrix(1 0 0 1 1098.18 1126)"><path d="M70 6.77 H41.163 Q36.035 6.77 32.455 3.19 Q28.875 -0.389 28.875 -5.519 V-54.855 Q28.875 -57.076 30.452 -58.653 Q32.029 -60.23 34.25 -60.23 Q36.471 -60.23 38.048 -58.653 Q39.625 -57.076 39.625 -54.855 V-5.519 Q39.625 -4.942 40.106 -4.461 Q40.587 -3.98 41.163 -3.98 H70 Q72.221 -3.98 73.798 -2.403 Q75.375 -0.826 75.375 1.395 Q75.375 3.616 73.798 5.193 Q72.221 6.77 70 6.77 Z M57.875 -65.48 Q53.663 -65.48 50.529 -68.614 Q47.394 -71.749 47.394 -75.961 Q47.394 -80.172 50.529 -83.307 Q53.663 -86.441 57.875 -86.441 Q62.086 -86.441 65.221 -83.307 Q68.356 -80.172 68.356 -75.961 Q68.356 -71.749 65.221 -68.614 Q62.086 -65.48 57.875 -65.48 Z M80.375 11.145 V-9.23 H55.375 Q51.009 -9.23 47.942 -12.297 Q44.875 -15.364 44.875 -19.73 V-47.653 Q44.875 -53.157 48.626 -56.905 Q52.377 -60.653 57.885 -60.653 Q63.394 -60.653 67.134 -56.905 Q70.875 -53.157 70.875 -47.653 V-24.98 H80.625 Q84.991 -24.98 88.058 -21.913 Q91.125 -18.846 91.125 -14.48 V11.145 Q91.125 13.366 89.548 14.943 Q87.971 16.52 85.75 16.52 Q83.529 16.52 81.952 14.943 Q80.375 13.366 80.375 11.145 Z"/></g><g id="Thin-M" transform="matrix(1 0 0 1 802.565 1126)"><path d="M70.625 4.27 H42.077 Q37.284 4.27 34.017 1.003 Q30.75 -2.264 30.75 -7.057 V-56.105 Q30.75 -57.797 31.966 -59.014 Q33.183 -60.23 34.875 -60.23 Q36.567 -60.23 37.784 -59.014 Q39 -57.797 39 -56.105 V-7.057 Q39 -5.903 39.962 -4.941 Q40.923 -3.98 42.077 -3.98 H70.625 Q72.317 -3.98 73.534 -2.764 Q74.75 -1.547 74.75 0.145 Q74.75 1.837 73.534 3.054 Q72.317 4.27 70.625 4.27 Z M56 -64.23 Q52.077 -64.23 49.183 -67.124 Q46.288 -70.018 46.288 -73.942 Q46.288 -77.865 49.183 -80.759 Q52.077 -83.653 56 -83.653 Q59.923 -83.653 62.817 -80.759 Q65.712 -77.865 65.712 -73.942 Q65.712 -70.018 62.817 -67.124 Q59.923 -64.23 56 -64.23 Z M81 11.145 V-9.23 H53.5 Q49.615 -9.23 46.932 -11.912 Q44.25 -14.595 44.25 -18.48 V-47.076 Q44.25 -52.1 47.616 -55.463 Q50.983 -58.826 56.011 -58.826 Q61.038 -58.826 64.394 -55.463 Q67.75 -52.1 67.75 -47.076 V-22.48 H80 Q83.885 -22.48 86.568 -19.798 Q89.25 -17.115 89.25 -13.23 V11.145 Q89.25 12.837 88.034 14.054 Q86.817 15.27 85.125 15.27 Q83.433 15.27 82.216 14.054 Q81 12.837 81 11.145 Z"/></g><g id="Ultralight-M" transform="matrix(1 0 0 1 506.415 1126)"><path d="M71 2.77 H42.625 Q38.034 2.77 34.955 -0.31 Q31.875 -3.389 31.875 -7.98 V-56.855 Q31.875 -58.23 32.875 -59.23 Q33.875 -60.23 35.25 -60.23 Q36.625 -60.23 37.625 -59.23 Q38.625 -58.23 38.625 -56.855 V-7.98 Q38.625 -6.48 39.875 -5.23 Q41.125 -3.98 42.625 -3.98 H71 Q72.375 -3.98 73.375 -2.98 Q74.375 -1.98 74.375 -0.605 Q74.375 0.77 73.375 1.77 Q72.375 2.77 71 2.77 Z M54.875 -63.48 Q51.125 -63.48 48.375 -66.23 Q45.625 -68.98 45.625 -72.73 Q45.625 -76.48 48.375 -79.23 Q51.125 -81.98 54.875 -81.98 Q58.625 -81.98 61.375 -79.23 Q64.125 -76.48 64.125 -72.73 Q64.125 -68.98 61.375 -66.23 Q58.625 -63.48 54.875 -63.48 Z M81.375 11.145 V-9.23 H52.375 Q48.778 -9.23 46.327 -11.681 Q43.875 -14.133 43.875 -17.73 V-46.73 Q43.875 -51.465 47.011 -54.597 Q50.146 -57.73 54.886 -57.73 Q59.625 -57.73 62.75 -54.597 Q65.875 -51.465 65.875 -46.73 V-20.98 H79.625 Q83.222 -20.98 85.674 -18.528 Q88.125 -16.077 88.125 -12.48 V11.145 Q88.125 12.52 87.125 13.52 Q86.125 14.52 84.75 14.52 Q83.375 14.52 82.375 13.52 Q81.375 12.52 81.375 11.145 Z"/></g><g id="Bold-S" transform="matrix(1 0 0 1 2294.23 696)"><path d="M52.37 -2.388 H33.138 Q27.899 -2.388 24.206 -6.08 Q20.514 -9.772 20.514 -15.012 V-48.643 Q20.514 -50.938 22.121 -52.552 Q23.727 -54.166 26.066 -54.166 Q28.404 -54.166 30.031 -52.552 Q31.659 -50.938 31.659 -48.643 V-13.532 Q31.659 -13.532 31.659 -13.532 Q31.659 -13.532 31.659 -13.532 H52.37 Q54.803 -13.532 56.348 -11.994 Q57.893 -10.455 57.893 -8.08 Q57.893 -5.741 56.348 -4.064 Q54.803 -2.388 52.37 -2.388 Z M47.069 -57.026 Q42.949 -57.026 39.917 -60 Q36.886 -62.974 36.886 -67.16 Q36.886 -71.386 39.932 -74.364 Q42.979 -77.343 47.069 -77.343 Q51.238 -77.343 54.22 -74.352 Q57.203 -71.362 57.203 -67.153 Q57.203 -62.944 54.196 -59.985 Q51.189 -57.026 47.069 -57.026 Z M62.232 -6.037 V-18.365 H46.452 Q42.273 -18.365 39.382 -21.291 Q36.491 -24.217 36.491 -28.326 V-44.303 Q36.491 -48.68 39.572 -51.768 Q42.652 -54.856 47.018 -54.856 Q51.384 -54.856 54.49 -51.557 Q57.597 -48.258 57.597 -43.81 V-30.299 H64.205 Q67.367 -30.299 69.682 -28.083 Q71.996 -25.867 71.799 -22.705 V-5.938 Q71.799 -3.978 70.429 -2.591 Q69.06 -1.204 67.126 -1.204 Q65.191 -1.204 63.712 -2.62 Q62.232 -4.035 62.232 -6.037 Z"/></g><g id="Semibold-S" transform="matrix(1 0 0 1 1998.1 696)"><path d="M52.541 -2.774 H32.195 Q27.53 -2.774 24.193 -6.11 Q20.857 -9.447 20.857 -14.111 V-48.943 Q20.857 -51.111 22.378 -52.638 Q23.899 -54.166 26.087 -54.166 Q28.275 -54.166 29.817 -52.638 Q31.359 -51.111 31.359 -48.943 V-13.275 Q31.359 -13.275 31.359 -13.275 Q31.359 -13.275 31.359 -13.275 H52.541 Q54.787 -13.275 56.276 -11.793 Q57.764 -10.31 57.764 -8.101 Q57.764 -5.913 56.276 -4.343 Q54.787 -2.774 52.541 -2.774 Z M46.404 -57.326 Q42.457 -57.326 39.543 -60.219 Q36.628 -63.111 36.628 -67.095 Q36.628 -71.103 39.562 -73.987 Q42.495 -76.871 46.425 -76.871 Q50.401 -76.871 53.287 -73.97 Q56.173 -71.068 56.173 -67.07 Q56.173 -63.072 53.263 -60.199 Q50.352 -57.326 46.404 -57.326 Z M61.846 -5.394 V-18.151 H46.581 Q42.273 -18.151 39.254 -21.19 Q36.234 -24.23 36.234 -28.498 V-45.161 Q36.234 -49.4 39.192 -52.364 Q42.151 -55.328 46.381 -55.328 Q50.612 -55.328 53.59 -52.153 Q56.568 -48.978 56.568 -44.668 V-30.127 H63.476 Q66.797 -30.127 69.225 -27.798 Q71.653 -25.469 71.456 -22.147 V-5.338 Q71.456 -3.36 70.069 -1.96 Q68.682 -0.561 66.722 -0.561 Q64.762 -0.561 63.304 -1.977 Q61.846 -3.392 61.846 -5.394 Z"/></g><g id="Medium-S" transform="matrix(1 0 0 1 1701.85 696)"><path d="M52.67 -3.063 H31.487 Q27.253 -3.063 24.184 -6.133 Q21.114 -9.202 21.114 -13.436 V-49.168 Q21.114 -51.24 22.571 -52.703 Q24.027 -54.166 26.103 -54.166 Q28.179 -54.166 29.656 -52.703 Q31.133 -51.24 31.133 -49.168 V-13.082 Q31.133 -13.082 31.133 -13.082 Q31.133 -13.082 31.133 -13.082 H52.67 Q54.775 -13.082 56.222 -11.642 Q57.668 -10.202 57.668 -8.117 Q57.668 -6.041 56.222 -4.552 Q54.775 -3.063 52.67 -3.063 Z M45.906 -57.551 Q42.088 -57.551 39.262 -60.382 Q36.436 -63.213 36.436 -67.047 Q36.436 -70.891 39.284 -73.704 Q42.132 -76.517 45.943 -76.517 Q49.773 -76.517 52.587 -73.683 Q55.402 -70.848 55.402 -67.008 Q55.402 -63.169 52.563 -60.36 Q49.724 -57.551 45.906 -57.551 Z M61.557 -4.911 V-17.99 H46.678 Q42.273 -17.99 39.157 -21.114 Q36.041 -24.239 36.041 -28.626 V-45.804 Q36.041 -49.94 38.908 -52.811 Q41.775 -55.682 45.904 -55.682 Q50.033 -55.682 52.914 -52.6 Q55.796 -49.518 55.796 -45.311 V-29.999 H62.929 Q66.37 -29.999 68.883 -27.584 Q71.396 -25.17 71.199 -21.729 V-4.888 Q71.199 -2.896 69.799 -1.487 Q68.399 -0.079 66.42 -0.079 Q64.441 -0.079 62.999 -1.494 Q61.557 -2.909 61.557 -4.911 Z"/></g><g id="Regular-S" transform="matrix(1 0 0 1 1405.73 696)"><path d="M52.764 -3.275 H30.968 Q27.05 -3.275 24.177 -6.149 Q21.303 -9.023 21.303 -12.941 V-49.333 Q21.303 -51.335 22.712 -52.751 Q24.122 -54.166 26.115 -54.166 Q28.108 -54.166 29.538 -52.751 Q30.968 -51.335 30.968 -49.333 V-12.941 Q30.968 -12.941 30.968 -12.941 Q30.968 -12.941 30.968 -12.941 H52.764 Q54.766 -12.941 56.182 -11.531 Q57.597 -10.122 57.597 -8.129 Q57.597 -6.136 56.182 -4.706 Q54.766 -3.275 52.764 -3.275 Z M45.54 -57.716 Q41.817 -57.716 39.056 -60.502 Q36.294 -63.288 36.294 -67.012 Q36.294 -70.735 39.08 -73.496 Q41.866 -76.258 45.589 -76.258 Q49.312 -76.258 52.074 -73.472 Q54.836 -70.686 54.836 -66.963 Q54.836 -63.239 52.05 -60.478 Q49.264 -57.716 45.54 -57.716 Z M61.345 -4.558 V-17.872 H46.748 Q42.273 -17.872 39.086 -21.059 Q35.9 -24.246 35.9 -28.721 V-46.276 Q35.9 -50.335 38.699 -53.138 Q41.499 -55.941 45.554 -55.941 Q49.608 -55.941 52.419 -52.927 Q55.23 -49.913 55.23 -45.783 V-29.904 H62.528 Q66.057 -29.904 68.632 -27.428 Q71.207 -24.951 71.01 -21.422 V-4.558 Q71.01 -2.556 69.601 -1.14 Q68.191 0.275 66.198 0.275 Q64.205 0.275 62.775 -1.14 Q61.345 -2.556 61.345 -4.558 Z"/></g><g id="Light-S" transform="matrix(1 0 0 1 1109.75 696)"><path d="M53.258 -5.248 H31.689 Q28.037 -5.248 25.41 -7.875 Q22.782 -10.502 22.782 -14.155 V-50.32 Q22.782 -51.905 23.907 -53.035 Q25.032 -54.166 26.608 -54.166 Q28.184 -54.166 29.329 -53.035 Q30.475 -51.905 30.475 -50.32 V-14.155 Q30.475 -13.699 30.854 -13.32 Q31.234 -12.941 31.689 -12.941 H53.258 Q54.842 -12.941 55.973 -11.816 Q57.104 -10.691 57.104 -9.115 Q57.104 -7.539 55.973 -6.394 Q54.842 -5.248 53.258 -5.248 Z M44.061 -56.73 Q40.565 -56.73 37.993 -59.326 Q35.421 -61.923 35.421 -65.418 Q35.421 -68.914 38.018 -71.486 Q40.614 -74.058 44.11 -74.058 Q47.605 -74.058 50.177 -71.461 Q52.749 -68.865 52.749 -65.37 Q52.749 -61.874 50.153 -59.302 Q47.556 -56.73 44.061 -56.73 Z M61.838 -4.558 V-17.872 H45.269 Q41.173 -17.872 38.29 -20.755 Q35.406 -23.639 35.406 -27.734 V-45.821 Q35.406 -49.501 37.903 -52 Q40.399 -54.5 44.074 -54.5 Q47.749 -54.5 50.257 -51.789 Q52.764 -49.079 52.764 -45.328 V-27.932 H62.035 Q65.184 -27.932 67.456 -25.758 Q69.728 -23.585 69.531 -20.436 V-4.558 Q69.531 -2.973 68.406 -1.842 Q67.281 -0.711 65.705 -0.711 Q64.129 -0.711 62.984 -1.842 Q61.838 -2.973 61.838 -4.558 Z"/></g><g id="Thin-S" transform="matrix(1 0 0 1 814.015 696)"><path d="M53.751 -7.22 H32.41 Q29.023 -7.22 26.642 -9.601 Q24.262 -11.982 24.262 -15.368 V-51.306 Q24.262 -52.473 25.102 -53.32 Q25.942 -54.166 27.101 -54.166 Q28.26 -54.166 29.121 -53.32 Q29.982 -52.473 29.982 -51.306 V-15.368 Q29.982 -14.458 30.741 -13.699 Q31.499 -12.941 32.41 -12.941 H53.751 Q54.918 -12.941 55.764 -12.1 Q56.611 -11.26 56.611 -10.101 Q56.611 -8.943 55.764 -8.082 Q54.918 -7.22 53.751 -7.22 Z M42.582 -55.744 Q39.314 -55.744 36.931 -58.151 Q34.549 -60.557 34.549 -63.825 Q34.549 -67.093 36.956 -69.476 Q39.362 -71.858 42.63 -71.858 Q45.899 -71.858 48.281 -69.451 Q50.663 -67.045 50.663 -63.777 Q50.663 -60.508 48.256 -58.126 Q45.85 -55.744 42.582 -55.744 Z M62.331 -4.558 V-17.872 H43.79 Q40.073 -17.872 37.493 -20.452 Q34.913 -23.032 34.913 -26.748 V-45.366 Q34.913 -48.666 37.106 -50.862 Q39.299 -53.058 42.595 -53.058 Q45.891 -53.058 48.095 -50.651 Q50.299 -48.244 50.299 -44.872 V-25.959 H61.542 Q64.312 -25.959 66.28 -24.09 Q68.249 -22.22 68.051 -19.45 V-4.558 Q68.051 -3.39 67.211 -2.544 Q66.371 -1.697 65.212 -1.697 Q64.053 -1.697 63.192 -2.544 Q62.331 -3.39 62.331 -4.558 Z"/></g><g id="Ultralight-S" transform="matrix(1 0 0 1 517.792 696)"><path d="M54.047 -8.404 H32.842 Q29.615 -8.404 27.382 -10.637 Q25.149 -12.869 25.149 -16.097 V-51.898 Q25.149 -52.815 25.819 -53.49 Q26.489 -54.166 27.397 -54.166 Q28.305 -54.166 28.996 -53.49 Q29.686 -52.815 29.686 -51.898 V-16.097 Q29.686 -14.913 30.672 -13.927 Q31.659 -12.941 32.842 -12.941 H54.047 Q54.964 -12.941 55.639 -12.271 Q56.315 -11.602 56.315 -10.693 Q56.315 -9.785 55.639 -9.094 Q54.964 -8.404 54.047 -8.404 Z M41.694 -55.152 Q38.562 -55.152 36.294 -57.445 Q34.026 -59.738 34.026 -62.869 Q34.026 -66.001 36.318 -68.269 Q38.611 -70.538 41.743 -70.538 Q44.874 -70.538 47.143 -68.245 Q49.411 -65.952 49.411 -62.821 Q49.411 -59.689 47.118 -57.421 Q44.825 -55.152 41.694 -55.152 Z M62.627 -4.558 V-17.872 H42.902 Q39.413 -17.872 37.015 -20.27 Q34.617 -22.668 34.617 -26.156 V-45.092 Q34.617 -48.166 36.628 -50.18 Q38.639 -52.193 41.707 -52.193 Q44.776 -52.193 46.798 -49.969 Q48.819 -47.744 48.819 -44.599 V-24.776 H61.246 Q63.788 -24.776 65.575 -23.088 Q67.361 -21.4 67.164 -18.858 V-4.558 Q67.164 -3.64 66.494 -2.965 Q65.824 -2.289 64.916 -2.289 Q64.008 -2.289 63.317 -2.965 Q62.627 -3.64 62.627 -4.558 Z"/></g></g></svg>