<svg xmlns="http://www.w3.org/2000/svg" version="1.1" width="3300" height="2000"><g id="Notes"><style>
    text {
      font-family: monospace;
      text-anchor: middle;
    }
    text.emphasis {
      font-weight:bold;
    }
    text.lanchor {
      text-anchor: start;
    }
  </style><rect height="2200" id="artboard" fill="white" width="3300" x="0" y="0"/><line id="" style="fill:none;stroke:black;stroke-width:0.5;" x1="263" x2="3036" y1="292" y2="292"/><text class="lanchor emphasis" transform="matrix(1 0 0 1 263 322)">Weight/Scale Variations</text><text transform="matrix(1 0 0 1 559.711 322)">Ultralight</text><text transform="matrix(1 0 0 1 856.422 322)">Thin</text><text transform="matrix(1 0 0 1 1153.13 322)">Light</text><text transform="matrix(1 0 0 1 1449.84 322)">Regular</text><text transform="matrix(1 0 0 1 1746.56 322)">Medium</text><text transform="matrix(1 0 0 1 2043.27 322)">Semibold</text><text transform="matrix(1 0 0 1 2339.98 322)">Bold</text><text transform="matrix(1 0 0 1 2636.69 322)">Heavy</text><text transform="matrix(1 0 0 1 2933.4 322)">Black</text><text id="template-version" style="text-anchor: end;" transform="matrix(1 0 0 1 3036 1933)">Template v.1.0</text><text class="lanchor" transform="matrix(1 0 0 1 263 726)">Small</text><text class="lanchor" transform="matrix(1 0 0 1 263 1156)">Medium</text><text class="lanchor" transform="matrix(1 0 0 1 263 1586)">Large</text></g><g id="Guides"><g id="H-reference" style="fill:#27AAE1;stroke:none;" transform="matrix(1 0 0 1 339 696)"><path d="M 54.9316 0 L 57.666 0 L 30.5664 -70.459 L 28.0762 -70.459 L 0.976562 0 L 3.66211 0 L 12.9395 -24.4629 L 45.7031 -24.4629 Z M 29.1992 -67.0898 L 29.4434 -67.0898 L 44.8242 -26.709 L 13.8184 -26.709 Z"/></g><line id="Baseline-S" style="fill:none;stroke:#27AAE1;opacity:1;stroke-width:0.577;" x1="263" x2="3036" y1="696" y2="696"/><line id="Capline-S" style="fill:none;stroke:#27AAE1;opacity:1;stroke-width:0.577;" x1="263" x2="3036" y1="625.541" y2="625.541"/><g id="H-reference" style="fill:#27AAE1;stroke:none;" transform="matrix(1 0 0 1 339 1126)"><path d="M 54.9316 0 L 57.666 0 L 30.5664 -70.459 L 28.0762 -70.459 L 0.976562 0 L 3.66211 0 L 12.9395 -24.4629 L 45.7031 -24.4629 Z M 29.1992 -67.0898 L 29.4434 -67.0898 L 44.8242 -26.709 L 13.8184 -26.709 Z"/></g><line id="Baseline-M" style="fill:none;stroke:#27AAE1;opacity:1;stroke-width:0.577;" x1="263" x2="3036" y1="1126" y2="1126"/><line id="Capline-M" style="fill:none;stroke:#27AAE1;opacity:1;stroke-width:0.577;" x1="263" x2="3036" y1="1055.54" y2="1055.54"/><g id="H-reference" style="fill:#27AAE1;stroke:none;" transform="matrix(1 0 0 1 339 1556)"><path d="M 54.9316 0 L 57.666 0 L 30.5664 -70.459 L 28.0762 -70.459 L 0.976562 0 L 3.66211 0 L 12.9395 -24.4629 L 45.7031 -24.4629 Z M 29.1992 -67.0898 L 29.4434 -67.0898 L 44.8242 -26.709 L 13.8184 -26.709 Z"/></g><line id="Baseline-L" style="fill:none;stroke:#27AAE1;opacity:1;stroke-width:0.577;" x1="263" x2="3036" y1="1556" y2="1556"/><line id="Capline-L" style="fill:none;stroke:#27AAE1;opacity:1;stroke-width:0.577;" x1="263" x2="3036" y1="1485.54" y2="1485.54"/><rect height="119.336" id="left-margin" style="fill:darkred;stroke:none;opacity:0.4;" width="12.4512" x="1394.06" y="1030.79"/><rect height="119.336" id="right-margin" style="fill:darkgreen;stroke:none;opacity:0.4;" width="12.4512" x="1502.5112" y="1030.79"/><rect x="1406.5112" y="1045" width="96" height="96" fill="none" stroke="blue" stroke-dasharray="5"/><rect x="1394.06" y="1030.79" width="120.9024" height="119.336" fill="none" stroke="blue"/></g><g id="Symbols"><g id="Bold-L" transform="matrix(1 0 0 1 2266 1556)"><path d="M47.327 -22.572 V-2.496 Q47.327 0.608 49.484 2.724 Q51.64 4.841 54.906 4.841 H59.743 Q62.251 4.841 64.262 2.885 Q66.274 0.93 66.274 -1.851 V-22.572 H68.128 Q71.111 -20.798 71.918 -22.975 Q72.724 -25.152 72.724 -27.167 V-40.309 Q72.724 -45.531 69.005 -49.249 Q65.287 -52.967 60.066 -52.967 H53.616 Q48.299 -52.967 44.588 -49.249 Q40.877 -45.531 40.877 -40.309 V-27.167 Q40.877 -25.152 41.764 -22.975 Q42.651 -20.798 45.553 -22.572 H47.327 Z M56.841 -58.45 Q60.711 -58.45 63.291 -61.111 Q65.871 -63.771 65.871 -67.48 Q65.871 -71.189 63.291 -73.849 Q60.711 -76.51 56.841 -76.51 Q53.051 -76.51 50.431 -73.849 Q47.811 -71.189 47.811 -67.48 Q47.811 -63.771 50.431 -61.111 Q53.051 -58.45 56.841 -58.45 Z M85.305 -43.534 H110.337 Q111.473 -43.534 111.972 -44.436 Q112.472 -45.337 111.935 -46.232 L99.33 -66.432 Q99.025 -67.157 97.847 -67.157 Q96.669 -67.157 96.266 -66.432 L83.742 -46.232 Q83.124 -45.308 83.622 -44.421 Q84.12 -43.534 85.305 -43.534 Z M99.33 -4.189  111.914 -24.294 Q112.472 -25.152 111.972 -26.079 Q111.473 -27.006 110.337 -27.006 H85.305 Q84.12 -27.006 83.622 -26.079 Q83.124 -25.152 83.742 -24.323 L96.266 -4.189 Q96.571 -3.302 97.749 -3.302 Q98.927 -3.302 99.33 -4.189 Z M30.799 26.126 Q24.668 26.126 20.356 21.814 Q16.044 17.502 16.044 11.371 V-81.831 Q16.044 -87.867 20.356 -92.307 Q24.668 -96.747 30.799 -96.747 H124.001 Q130.037 -96.747 134.477 -92.307 Q138.917 -87.867 138.917 -81.831 V11.371 Q138.917 17.502 134.477 21.814 Q130.037 26.126 124.001 26.126 H30.799 Z M30.799 11.371 H124.001 Q124.001 11.371 124.001 11.371 Q124.001 11.371 124.001 11.371 V-81.831 Q124.001 -81.831 124.001 -81.831 Q124.001 -81.831 124.001 -81.831 H30.799 Q30.799 -81.831 30.799 -81.831 Q30.799 -81.831 30.799 -81.831 V11.371 Q30.799 11.371 30.799 11.371 Q30.799 11.371 30.799 11.371 Z"/></g><g id="Semibold-L" transform="matrix(1 0 0 1 1970.27 1556)"><path d="M46.556 -22.572 V-1.304 Q46.556 1.309 48.362 3.075 Q50.168 4.841 52.873 4.841 H59.813 Q62.049 4.841 63.776 3.166 Q65.503 1.491 65.503 -0.94 V-22.572 H67.357 Q69.99 -21.359 70.971 -23.255 Q71.953 -25.152 71.953 -27.167 V-40.309 Q71.953 -45.531 68.234 -49.249 Q64.516 -52.967 59.295 -52.967 H52.845 Q47.528 -52.967 43.817 -49.249 Q40.106 -45.531 40.106 -40.309 V-27.167 Q40.106 -25.152 41.133 -23.255 Q42.16 -21.359 44.782 -22.572 H46.556 Z M56.07 -58.45 Q59.869 -58.45 62.484 -61.111 Q65.1 -63.771 65.1 -67.48 Q65.1 -71.189 62.484 -73.849 Q59.869 -76.51 56.07 -76.51 Q52.28 -76.51 49.66 -73.849 Q47.04 -71.189 47.04 -67.48 Q47.04 -63.771 49.66 -61.111 Q52.28 -58.45 56.07 -58.45 Z M86.147 -43.534 H110.337 Q111.619 -43.534 112.186 -44.541 Q112.752 -45.547 112.133 -46.602 L99.961 -66.081 Q99.48 -66.947 98.25 -66.947 Q97.02 -66.947 96.477 -66.081 L84.385 -46.602 Q83.685 -45.518 84.25 -44.526 Q84.815 -43.534 86.147 -43.534 Z M99.961 -4.47  112.113 -23.918 Q112.752 -24.942 112.186 -25.974 Q111.619 -27.006 110.337 -27.006 H86.147 Q84.815 -27.006 84.25 -25.974 Q83.685 -24.942 84.385 -23.947 L96.477 -4.47 Q96.957 -3.513 98.187 -3.513 Q99.418 -3.513 99.961 -4.47 Z M30.168 24.373 Q25.092 24.373 21.445 20.725 Q17.797 17.078 17.797 12.002 V-82.462 Q17.797 -87.414 21.445 -91.169 Q25.092 -94.924 30.168 -94.924 H124.632 Q129.584 -94.924 133.339 -91.169 Q137.094 -87.414 137.094 -82.462 V12.002 Q137.094 17.078 133.339 20.725 Q129.584 24.373 124.632 24.373 H30.168 Z M30.168 12.002 H124.632 Q124.632 12.002 124.632 12.002 Q124.632 12.002 124.632 12.002 V-82.462 Q124.632 -82.462 124.632 -82.462 Q124.632 -82.462 124.632 -82.462 H30.168 Q30.168 -82.462 30.168 -82.462 Q30.168 -82.462 30.168 -82.462 V12.002 Q30.168 12.002 30.168 12.002 Q30.168 12.002 30.168 12.002 Z"/></g><g id="Medium-L" transform="matrix(1 0 0 1 1674.31 1556)"><path d="M45.977 -22.572 V-0.41 Q45.977 1.835 47.521 3.338 Q49.064 4.841 51.348 4.841 H59.866 Q61.898 4.841 63.411 3.376 Q64.924 1.912 64.924 -0.256 V-22.572 H66.778 Q69.148 -21.78 70.261 -23.466 Q71.374 -25.152 71.374 -27.167 V-40.309 Q71.374 -45.531 67.656 -49.249 Q63.938 -52.967 58.716 -52.967 H52.266 Q46.95 -52.967 43.239 -49.249 Q39.527 -45.531 39.527 -40.309 V-27.167 Q39.527 -25.152 40.66 -23.466 Q41.792 -21.78 44.203 -22.572 H45.977 Z M55.491 -58.45 Q59.238 -58.45 61.88 -61.111 Q64.521 -63.771 64.521 -67.48 Q64.521 -71.189 61.88 -73.849 Q59.238 -76.51 55.491 -76.51 Q51.702 -76.51 49.081 -73.849 Q46.461 -71.189 46.461 -67.48 Q46.461 -63.771 49.081 -61.111 Q51.702 -58.45 55.491 -58.45 Z M86.778 -43.534 H110.337 Q111.729 -43.534 112.346 -44.62 Q112.963 -45.705 112.282 -46.879 L100.434 -65.818 Q99.822 -66.789 98.553 -66.789 Q97.283 -66.789 96.634 -65.818 L84.867 -46.879 Q84.106 -45.676 84.721 -44.605 Q85.336 -43.534 86.778 -43.534 Z M100.434 -4.68  112.261 -23.637 Q112.963 -24.784 112.346 -25.895 Q111.729 -27.006 110.337 -27.006 H86.778 Q85.336 -27.006 84.721 -25.895 Q84.106 -24.784 84.867 -23.665 L96.634 -4.68 Q97.246 -3.671 98.516 -3.671 Q99.786 -3.671 100.434 -4.68 Z M29.695 23.058 Q25.41 23.058 22.261 19.909 Q19.112 16.76 19.112 12.475 V-82.935 Q19.112 -87.074 22.261 -90.316 Q25.41 -93.557 29.695 -93.557 H125.105 Q129.244 -93.557 132.486 -90.316 Q135.727 -87.074 135.727 -82.935 V12.475 Q135.727 16.76 132.486 19.909 Q129.244 23.058 125.105 23.058 H29.695 Z M29.695 12.475 H125.105 Q125.105 12.475 125.105 12.475 Q125.105 12.475 125.105 12.475 V-82.935 Q125.105 -82.935 125.105 -82.935 Q125.105 -82.935 125.105 -82.935 H29.695 Q29.695 -82.935 29.695 -82.935 Q29.695 -82.935 29.695 -82.935 V12.475 Q29.695 12.475 29.695 12.475 Q29.695 12.475 29.695 12.475 Z"/></g><g id="Regular-L" transform="matrix(1 0 0 1 1378.56 1556)"><path d="M45.553 -22.572 V0.245 Q45.553 2.22 46.904 3.53 Q48.254 4.841 50.229 4.841 H59.904 Q61.787 4.841 63.143 3.53 Q64.5 2.22 64.5 0.245 V-22.572 H66.354 Q68.531 -22.088 69.741 -23.62 Q70.95 -25.152 70.95 -27.167 V-40.309 Q70.95 -45.531 67.232 -49.249 Q63.513 -52.967 58.292 -52.967 H51.842 Q46.526 -52.967 42.814 -49.249 Q39.103 -45.531 39.103 -40.309 V-27.167 Q39.103 -25.152 40.312 -23.62 Q41.522 -22.088 43.779 -22.572 H45.553 Z M55.067 -58.45 Q58.776 -58.45 61.436 -61.111 Q64.097 -63.771 64.097 -67.48 Q64.097 -71.189 61.436 -73.849 Q58.776 -76.51 55.067 -76.51 Q51.278 -76.51 48.657 -73.849 Q46.037 -71.189 46.037 -67.48 Q46.037 -63.771 48.657 -61.111 Q51.278 -58.45 55.067 -58.45 Z M87.24 -43.534 H110.337 Q111.809 -43.534 112.463 -44.677 Q113.117 -45.82 112.391 -47.082 L100.781 -65.626 Q100.073 -66.674 98.774 -66.674 Q97.476 -66.674 96.75 -65.626 L85.221 -47.082 Q84.414 -45.792 85.066 -44.663 Q85.718 -43.534 87.24 -43.534 Z M100.781 -4.834  112.37 -23.43 Q113.117 -24.668 112.463 -25.837 Q111.809 -27.006 110.337 -27.006 H87.24 Q85.718 -27.006 85.066 -25.837 Q84.414 -24.668 85.221 -23.459 L96.75 -4.834 Q97.458 -3.786 98.757 -3.786 Q100.056 -3.786 100.781 -4.834 Z M29.348 22.094 Q25.644 22.094 22.86 19.31 Q20.076 16.526 20.076 12.823 V-83.282 Q20.076 -86.825 22.86 -89.69 Q25.644 -92.554 29.348 -92.554 H125.453 Q128.995 -92.554 131.86 -89.69 Q134.724 -86.825 134.724 -83.282 V12.823 Q134.724 16.526 131.86 19.31 Q128.995 22.094 125.453 22.094 H29.348 Z M29.348 12.823 H125.453 Q125.453 12.823 125.453 12.823 Q125.453 12.823 125.453 12.823 V-83.282 Q125.453 -83.282 125.453 -83.282 Q125.453 -83.282 125.453 -83.282 H29.348 Q29.348 -83.282 29.348 -83.282 Q29.348 -83.282 29.348 -83.282 V12.823 Q29.348 12.823 29.348 12.823 Q29.348 12.823 29.348 12.823 Z"/></g><g id="Light-L" transform="matrix(1 0 0 1 1082.77 1556)"><path d="M48.251 -23.502 V-1.616 Q48.251 0.358 49.556 1.607 Q50.861 2.856 52.834 2.856 H59.656 Q61.502 2.856 62.815 1.607 Q64.128 0.358 64.128 -1.616 V-23.502 H66.106 Q68.283 -22.987 69.431 -24.488 Q70.578 -25.989 70.578 -27.974 V-41.054 Q70.578 -45.655 67.325 -48.908 Q64.072 -52.161 59.47 -52.161 H53.02 Q48.286 -52.161 45.044 -48.908 Q41.801 -45.655 41.801 -41.054 V-27.974 Q41.801 -25.989 42.948 -24.488 Q44.096 -22.987 46.384 -23.502 H48.251 Z M56.231 -57.644 Q59.551 -57.644 61.979 -60.042 Q64.407 -62.441 64.407 -65.791 Q64.407 -69.142 61.993 -71.554 Q59.579 -73.967 56.259 -73.967 Q52.828 -73.967 50.456 -71.568 Q48.084 -69.17 48.084 -65.819 Q48.084 -62.469 50.442 -60.056 Q52.8 -57.644 56.231 -57.644 Z M88.897 -44.651 H108.228 Q109.365 -44.651 109.892 -45.536 Q110.419 -46.421 109.879 -47.392 L100.037 -62.99 Q99.493 -63.821 98.531 -63.821 Q97.569 -63.821 96.998 -62.99 L87.267 -47.392 Q86.616 -46.381 87.141 -45.516 Q87.667 -44.651 88.897 -44.651 Z M100.037 -7.47  109.851 -23.14 Q110.419 -24.079 109.892 -25 Q109.365 -25.921 108.228 -25.921 H88.897 Q87.667 -25.921 87.141 -25 Q86.616 -24.079 87.267 -23.18 L96.998 -7.47 Q97.543 -6.639 98.504 -6.639 Q99.466 -6.639 100.037 -7.47 Z M32.062 19.148 Q28.418 19.148 25.72 16.45 Q23.022 13.752 23.022 10.108 V-80.568 Q23.022 -84.127 25.72 -86.868 Q28.418 -89.608 32.062 -89.608 H122.738 Q126.297 -89.608 129.038 -86.868 Q131.778 -84.127 131.778 -80.568 V10.108 Q131.778 13.752 129.038 16.45 Q126.297 19.148 122.738 19.148 H32.062 Z M32.076 12.078 H122.724 Q123.592 12.078 124.15 11.52 Q124.708 10.962 124.708 10.094 V-80.554 Q124.708 -81.422 124.15 -81.98 Q123.592 -82.538 122.724 -82.538 H32.076 Q31.208 -82.538 30.65 -81.98 Q30.092 -81.422 30.092 -80.554 V10.094 Q30.092 10.962 30.65 11.52 Q31.208 12.078 32.076 12.078 Z"/></g><g id="Thin-L" transform="matrix(1 0 0 1 787.282 1556)"><path d="M50.949 -24.432 V-3.476 Q50.949 -1.504 52.208 -0.316 Q53.467 0.871 55.439 0.871 H59.408 Q61.216 0.871 62.486 -0.316 Q63.756 -1.504 63.756 -3.476 V-24.432 H65.858 Q68.035 -23.887 69.12 -25.357 Q70.206 -26.826 70.206 -28.78 V-41.798 Q70.206 -45.779 67.418 -48.567 Q64.63 -51.355 60.649 -51.355 H54.199 Q50.046 -51.355 47.272 -48.567 Q44.499 -45.779 44.499 -41.798 V-28.78 Q44.499 -26.826 45.584 -25.357 Q46.669 -23.887 48.989 -24.432 H50.949 Z M57.396 -56.837 Q60.326 -56.837 62.522 -58.974 Q64.717 -61.111 64.717 -64.103 Q64.717 -67.096 62.55 -69.26 Q60.382 -71.424 57.452 -71.424 Q54.378 -71.424 52.254 -69.288 Q50.13 -67.151 50.13 -64.159 Q50.13 -61.166 52.226 -59.002 Q54.323 -56.837 57.396 -56.837 Z M90.554 -45.767 H106.12 Q106.921 -45.767 107.321 -46.394 Q107.721 -47.021 107.368 -47.702 L99.293 -60.354 Q98.912 -60.968 98.287 -60.968 Q97.662 -60.968 97.246 -60.354 L89.314 -47.702 Q88.818 -46.97 89.216 -46.369 Q89.615 -45.767 90.554 -45.767 Z M99.293 -10.106  107.331 -22.85 Q107.721 -23.49 107.321 -24.163 Q106.921 -24.836 106.12 -24.836 H90.554 Q89.615 -24.836 89.216 -24.163 Q88.818 -23.49 89.314 -22.901 L97.246 -10.106 Q97.627 -9.492 98.252 -9.492 Q98.877 -9.492 99.293 -10.106 Z M34.776 16.203 Q31.191 16.203 28.579 13.591 Q25.967 10.979 25.967 7.394 V-77.854 Q25.967 -81.429 28.579 -84.046 Q31.191 -86.663 34.776 -86.663 H120.024 Q123.599 -86.663 126.216 -84.046 Q128.833 -81.429 128.833 -77.854 V7.394 Q128.833 10.979 126.216 13.591 Q123.599 16.203 120.024 16.203 H34.776 Z M34.805 11.334 H119.995 Q121.731 11.334 122.848 10.218 Q123.964 9.101 123.964 7.365 V-77.825 Q123.964 -79.561 122.848 -80.678 Q121.731 -81.794 119.995 -81.794 H34.805 Q33.069 -81.794 31.952 -80.678 Q30.836 -79.561 30.836 -77.825 V7.365 Q30.836 9.101 31.952 10.218 Q33.069 11.334 34.805 11.334 Z"/></g><g id="Ultralight-L" transform="matrix(1 0 0 1 491.205 1556)"><path d="M52.568 -24.991 V-4.592 Q52.568 -2.621 53.799 -1.47 Q55.031 -0.319 57.002 -0.319 H59.259 Q61.045 -0.319 62.289 -1.47 Q63.532 -2.621 63.532 -4.592 V-24.991 H65.709 Q67.886 -24.426 68.934 -25.877 Q69.983 -27.329 69.983 -29.264 V-42.244 Q69.983 -45.853 67.474 -48.362 Q64.965 -50.871 61.356 -50.871 H54.906 Q51.102 -50.871 48.61 -48.362 Q46.117 -45.853 46.117 -42.244 V-29.264 Q46.117 -27.329 47.166 -25.877 Q48.214 -24.426 50.552 -24.991 H52.568 Z M58.094 -56.354 Q60.791 -56.354 62.847 -58.333 Q64.903 -60.312 64.903 -63.09 Q64.903 -65.867 62.883 -67.883 Q60.864 -69.899 58.167 -69.899 Q55.309 -69.899 53.333 -67.919 Q51.358 -65.94 51.358 -63.163 Q51.358 -60.385 53.297 -58.369 Q55.236 -56.354 58.094 -56.354 Z M91.548 -46.437 H104.854 Q105.454 -46.437 105.778 -46.909 Q106.103 -47.381 105.861 -47.888 L98.846 -58.772 Q98.564 -59.256 98.141 -59.256 Q97.718 -59.256 97.395 -58.772 L90.542 -47.888 Q90.139 -47.324 90.461 -46.88 Q90.784 -46.437 91.548 -46.437 Z M98.846 -11.687  105.819 -22.676 Q106.103 -23.136 105.778 -23.66 Q105.454 -24.184 104.854 -24.184 H91.548 Q90.784 -24.184 90.461 -23.66 Q90.139 -23.136 90.542 -22.733 L97.395 -11.687 Q97.677 -11.204 98.1 -11.204 Q98.524 -11.204 98.846 -11.687 Z M36.404 14.435 Q32.856 14.435 30.295 11.875 Q27.735 9.314 27.735 5.766 V-76.226 Q27.735 -79.811 30.295 -82.353 Q32.856 -84.895 36.404 -84.895 H118.396 Q121.981 -84.895 124.523 -82.353 Q127.065 -79.811 127.065 -76.226 V5.766 Q127.065 9.314 124.523 11.875 Q121.981 14.435 118.396 14.435 H36.404 Z M36.443 10.888 H118.358 Q120.615 10.888 122.066 9.436 Q123.517 7.985 123.517 5.728 V-76.187 Q123.517 -78.445 122.066 -79.896 Q120.615 -81.347 118.358 -81.347 H36.443 Q34.185 -81.347 32.734 -79.896 Q31.283 -78.445 31.283 -76.187 V5.728 Q31.283 7.985 32.734 9.436 Q34.185 10.888 36.443 10.888 Z"/></g><g id="Bold-M" transform="matrix(1 0 0 1 2281.8 1126)"><path d="M37.5 -25.542 V-13.105 Q37.5 -10.042 39.75 -7.792 Q42 -5.542 45.062 -5.542 Q47.75 -5.542 49.812 -7.605 Q51.875 -9.667 51.875 -12.355 V-25.542 H52.188 Q54.5 -24.855 55.688 -26.542 Q56.875 -28.23 56.875 -30.23 V-38.042 Q56.875 -42.039 54.029 -44.884 Q51.184 -47.73 47.188 -47.73 H42.188 Q38.191 -47.73 35.346 -44.884 Q32.5 -42.039 32.5 -38.042 V-30.23 Q32.5 -28.23 33.688 -26.542 Q34.875 -24.855 37.188 -25.542 H37.5 Z M44.688 -52.73 Q47.312 -52.73 49.125 -54.542 Q50.938 -56.355 50.938 -58.98 Q50.938 -61.605 49.125 -63.417 Q47.312 -65.23 44.688 -65.23 Q42.062 -65.23 40.25 -63.417 Q38.438 -61.605 38.438 -58.98 Q38.438 -56.355 40.25 -54.542 Q42.062 -52.73 44.688 -52.73 Z M67.191 -40.542 H84.559 Q85.674 -40.542 86.15 -41.449 Q86.625 -42.355 86.062 -43.292 L77.375 -57.23 Q76.853 -58.105 75.895 -58.105 Q74.938 -58.105 74.375 -57.23 L65.688 -43.292 Q65.125 -42.355 65.6 -41.449 Q66.076 -40.542 67.191 -40.542 Z M77.375 -13.23  86.062 -27.167 Q86.625 -28.105 86.15 -29.011 Q85.674 -29.917 84.559 -29.917 H67.191 Q66.076 -29.917 65.6 -29.011 Q65.125 -28.105 65.688 -27.167 L74.375 -13.23 Q74.897 -12.355 75.855 -12.355 Q76.812 -12.355 77.375 -13.23 Z M27 12.895 Q20.633 12.895 16.254 8.516 Q11.875 4.137 11.875 -2.23 V-68.23 Q11.875 -74.597 16.254 -78.976 Q20.633 -83.355 27 -83.355 H93 Q99.367 -83.355 103.746 -78.976 Q108.125 -74.597 108.125 -68.23 V-2.23 Q108.125 4.137 103.746 8.516 Q99.367 12.895 93 12.895 H27 Z M27 -2.23 H93 Q93 -2.23 93 -2.23 Q93 -2.23 93 -2.23 V-68.23 Q93 -68.23 93 -68.23 Q93 -68.23 93 -68.23 H27 Q27 -68.23 27 -68.23 Q27 -68.23 27 -68.23 V-2.23 Q27 -2.23 27 -2.23 Q27 -2.23 27 -2.23 Z"/></g><g id="Semibold-M" transform="matrix(1 0 0 1 1985.97 1126)"><path d="M36.685 -25.542 V-11.855 Q36.685 -9.282 38.554 -7.412 Q40.424 -5.542 42.997 -5.542 H45.171 Q47.533 -5.542 49.296 -7.306 Q51.06 -9.07 51.06 -11.431 V-25.542 H51.372 Q53.359 -25.453 54.709 -26.869 Q56.06 -28.284 56.06 -30.23 V-38.042 Q56.06 -42.039 53.214 -44.884 Q50.368 -47.73 46.372 -47.73 H41.372 Q37.376 -47.73 34.531 -44.884 Q31.685 -42.039 31.685 -38.042 V-30.23 Q31.685 -28.284 33.035 -26.869 Q34.386 -25.453 36.372 -25.542 H36.685 Z M43.872 -52.73 Q46.497 -52.73 48.31 -54.542 Q50.122 -56.355 50.122 -58.98 Q50.122 -61.605 48.31 -63.417 Q46.497 -65.23 43.872 -65.23 Q41.247 -65.23 39.435 -63.417 Q37.622 -61.605 37.622 -58.98 Q37.622 -56.355 39.435 -54.542 Q41.247 -52.73 43.872 -52.73 Z M68.06 -40.542 H84.559 Q85.816 -40.542 86.356 -41.585 Q86.897 -42.627 86.28 -43.673 L78.027 -56.904 Q77.423 -57.888 76.316 -57.888 Q75.209 -57.888 74.592 -56.904 L66.34 -43.673 Q65.723 -42.627 66.263 -41.585 Q66.804 -40.542 68.06 -40.542 Z M78.027 -13.556  86.28 -26.787 Q86.897 -27.833 86.356 -28.875 Q85.816 -29.917 84.559 -29.917 H68.06 Q66.804 -29.917 66.263 -28.875 Q65.723 -27.833 66.34 -26.787 L74.592 -13.556 Q75.196 -12.572 76.303 -12.572 Q77.41 -12.572 78.027 -13.556 Z M26.348 11.047 Q21.068 11.047 17.395 7.375 Q13.723 3.702 13.723 -1.578 V-68.882 Q13.723 -74.162 17.395 -77.835 Q21.068 -81.507 26.348 -81.507 H93.652 Q98.932 -81.507 102.605 -77.835 Q106.277 -74.162 106.277 -68.882 V-1.578 Q106.277 3.702 102.605 7.375 Q98.932 11.047 93.652 11.047 H26.348 Z M26.348 -1.578 H93.652 Q93.652 -1.578 93.652 -1.578 Q93.652 -1.578 93.652 -1.578 V-68.882 Q93.652 -68.882 93.652 -68.882 Q93.652 -68.882 93.652 -68.882 H26.348 Q26.348 -68.882 26.348 -68.882 Q26.348 -68.882 26.348 -68.882 V-1.578 Q26.348 -1.578 26.348 -1.578 Q26.348 -1.578 26.348 -1.578 Z"/></g><g id="Medium-M" transform="matrix(1 0 0 1 1689.91 1126)"><path d="M36.073 -25.542 V-10.917 Q36.073 -8.711 37.658 -7.127 Q39.242 -5.542 41.448 -5.542 H45.253 Q47.37 -5.542 48.909 -7.082 Q50.448 -8.621 50.448 -10.738 V-25.542 H50.761 Q52.503 -25.901 53.975 -27.113 Q55.448 -28.325 55.448 -30.23 V-38.042 Q55.448 -42.039 52.603 -44.884 Q49.757 -47.73 45.761 -47.73 H40.761 Q36.765 -47.73 33.919 -44.884 Q31.073 -42.039 31.073 -38.042 V-30.23 Q31.073 -28.325 32.546 -27.113 Q34.019 -25.901 35.761 -25.542 H36.073 Z M43.261 -52.73 Q45.886 -52.73 47.698 -54.542 Q49.511 -56.355 49.511 -58.98 Q49.511 -61.605 47.698 -63.417 Q45.886 -65.23 43.261 -65.23 Q40.636 -65.23 38.823 -63.417 Q37.011 -61.605 37.011 -58.98 Q37.011 -56.355 38.823 -54.542 Q40.636 -52.73 43.261 -52.73 Z M68.713 -40.542 H84.559 Q85.922 -40.542 86.511 -41.686 Q87.1 -42.83 86.443 -43.958 L78.516 -56.659 Q77.851 -57.725 76.632 -57.725 Q75.413 -57.725 74.755 -56.659 L66.829 -43.958 Q66.171 -42.83 66.76 -41.686 Q67.35 -40.542 68.713 -40.542 Z M78.516 -13.801  86.443 -26.502 Q87.1 -27.629 86.511 -28.773 Q85.922 -29.917 84.559 -29.917 H68.713 Q67.35 -29.917 66.76 -28.773 Q66.171 -27.629 66.829 -26.502 L74.755 -13.801 Q75.42 -12.735 76.639 -12.735 Q77.859 -12.735 78.516 -13.801 Z M25.859 9.661 Q21.394 9.661 18.251 6.519 Q15.109 3.376 15.109 -1.089 V-69.371 Q15.109 -73.836 18.251 -76.979 Q21.394 -80.121 25.859 -80.121 H94.141 Q98.606 -80.121 101.749 -76.979 Q104.891 -73.836 104.891 -69.371 V-1.089 Q104.891 3.376 101.749 6.519 Q98.606 9.661 94.141 9.661 H25.859 Z M25.859 -1.089 H94.141 Q94.141 -1.089 94.141 -1.089 Q94.141 -1.089 94.141 -1.089 V-69.371 Q94.141 -69.371 94.141 -69.371 Q94.141 -69.371 94.141 -69.371 H25.859 Q25.859 -69.371 25.859 -69.371 Q25.859 -69.371 25.859 -69.371 V-1.089 Q25.859 -1.089 25.859 -1.089 Q25.859 -1.089 25.859 -1.089 Z"/></g><g id="Regular-M" transform="matrix(1 0 0 1 1394.06 1126)"><path d="M35.625 -25.542 V-10.23 Q35.625 -8.292 37 -6.917 Q38.375 -5.542 40.312 -5.542 H45.312 Q47.25 -5.542 48.625 -6.917 Q50 -8.292 50 -10.23 V-25.542 H50.312 Q51.875 -26.23 53.438 -27.292 Q55 -28.355 55 -30.23 V-38.042 Q55 -42.039 52.154 -44.884 Q49.309 -47.73 45.312 -47.73 H40.312 Q36.316 -47.73 33.471 -44.884 Q30.625 -42.039 30.625 -38.042 V-30.23 Q30.625 -28.355 32.188 -27.292 Q33.75 -26.23 35.312 -25.542 H35.625 Z M42.812 -52.73 Q45.438 -52.73 47.25 -54.542 Q49.062 -56.355 49.062 -58.98 Q49.062 -61.605 47.25 -63.417 Q45.438 -65.23 42.812 -65.23 Q40.188 -65.23 38.375 -63.417 Q36.562 -61.605 36.562 -58.98 Q36.562 -56.355 38.375 -54.542 Q40.188 -52.73 42.812 -52.73 Z M69.191 -40.542 H84.559 Q86 -40.542 86.625 -41.761 Q87.25 -42.98 86.562 -44.167 L78.875 -56.48 Q78.165 -57.605 76.864 -57.605 Q75.562 -57.605 74.875 -56.48 L67.188 -44.167 Q66.5 -42.98 67.125 -41.761 Q67.75 -40.542 69.191 -40.542 Z M78.875 -13.98  86.562 -26.292 Q87.25 -27.48 86.625 -28.699 Q86 -29.917 84.559 -29.917 H69.191 Q67.75 -29.917 67.125 -28.699 Q66.5 -27.48 67.188 -26.292 L74.875 -13.98 Q75.585 -12.855 76.886 -12.855 Q78.188 -12.855 78.875 -13.98 Z M25.5 8.645 Q21.633 8.645 18.879 5.891 Q16.125 3.137 16.125 -0.73 V-69.73 Q16.125 -73.597 18.879 -76.351 Q21.633 -79.105 25.5 -79.105 H94.5 Q98.367 -79.105 101.121 -76.351 Q103.875 -73.597 103.875 -69.73 V-0.73 Q103.875 3.137 101.121 5.891 Q98.367 8.645 94.5 8.645 H25.5 Z M25.5 -0.73 H94.5 Q94.5 -0.73 94.5 -0.73 Q94.5 -0.73 94.5 -0.73 V-69.73 Q94.5 -69.73 94.5 -69.73 Q94.5 -69.73 94.5 -69.73 H25.5 Q25.5 -69.73 25.5 -69.73 Q25.5 -69.73 25.5 -69.73 V-0.73 Q25.5 -0.73 25.5 -0.73 Q25.5 -0.73 25.5 -0.73 Z"/></g><g id="Light-M" transform="matrix(1 0 0 1 1098.18 1126)"><path d="M37.717 -26.264 V-10.999 Q37.717 -9.206 38.959 -7.975 Q40.202 -6.744 41.995 -6.744 H45.457 Q47.222 -6.744 48.467 -7.975 Q49.712 -9.206 49.712 -10.999 V-26.264 H50.457 Q52.067 -26.542 53.389 -27.653 Q54.712 -28.764 54.712 -30.518 V-38.956 Q54.712 -42.471 52.226 -44.956 Q49.741 -47.441 46.226 -47.441 H41.226 Q37.681 -47.441 35.199 -44.956 Q32.717 -42.471 32.717 -38.956 V-30.518 Q32.717 -28.764 34.039 -27.653 Q35.361 -26.542 36.995 -26.264 H37.717 Z M43.726 -52.249 Q46.135 -52.249 47.815 -53.917 Q49.495 -55.586 49.495 -58.018 Q49.495 -60.451 47.815 -62.119 Q46.135 -63.788 43.726 -63.788 Q41.293 -63.788 39.625 -62.119 Q37.957 -60.451 37.957 -58.018 Q37.957 -55.586 39.625 -53.917 Q41.293 -52.249 43.726 -52.249 Z M69.994 -41.744 H83.069 Q84.149 -41.744 84.63 -42.643 Q85.11 -43.541 84.615 -44.456 L78.01 -55.013 Q77.468 -55.874 76.503 -55.874 Q75.538 -55.874 75.019 -55.013 L68.438 -44.456 Q67.918 -43.533 68.399 -42.639 Q68.88 -41.744 69.994 -41.744 Z M78.01 -15.446  84.609 -26.019 Q85.11 -26.927 84.63 -27.833 Q84.149 -28.739 83.069 -28.739 H69.994 Q68.88 -28.739 68.399 -27.833 Q67.918 -26.927 68.438 -26.028 L75.019 -15.446 Q75.561 -14.586 76.525 -14.586 Q77.49 -14.586 78.01 -15.446 Z M26.931 6.361 Q23.388 6.361 20.898 3.872 Q18.409 1.382 18.409 -2.161 V-68.299 Q18.409 -71.842 20.898 -74.332 Q23.388 -76.821 26.931 -76.821 H93.069 Q96.612 -76.821 99.102 -74.332 Q101.591 -71.842 101.591 -68.299 V-2.161 Q101.591 1.382 99.102 3.872 Q96.612 6.361 93.069 6.361 H26.931 Z M26.942 -0.634 H93.058 Q93.731 -0.634 94.163 -1.067 Q94.596 -1.499 94.596 -2.172 V-68.288 Q94.596 -68.961 94.163 -69.393 Q93.731 -69.826 93.058 -69.826 H26.942 Q26.269 -69.826 25.837 -69.393 Q25.404 -68.961 25.404 -68.288 V-2.172 Q25.404 -1.499 25.837 -1.067 Q26.269 -0.634 26.942 -0.634 Z"/></g><g id="Thin-M" transform="matrix(1 0 0 1 802.565 1126)"><path d="M39.808 -26.985 V-11.768 Q39.808 -10.119 40.918 -9.033 Q42.029 -7.946 43.678 -7.946 H45.601 Q47.195 -7.946 48.309 -9.033 Q49.423 -10.119 49.423 -11.768 V-26.985 H50.601 Q52.26 -26.855 53.341 -28.014 Q54.423 -29.172 54.423 -30.807 V-39.869 Q54.423 -42.904 52.298 -45.028 Q50.174 -47.153 47.139 -47.153 H42.139 Q39.045 -47.153 36.926 -45.028 Q34.808 -42.904 34.808 -39.869 V-30.807 Q34.808 -29.172 35.889 -28.014 Q36.971 -26.855 38.678 -26.985 H39.808 Z M44.639 -51.768 Q46.832 -51.768 48.38 -53.292 Q49.928 -54.816 49.928 -57.057 Q49.928 -59.297 48.38 -60.821 Q46.832 -62.345 44.639 -62.345 Q42.399 -62.345 40.875 -60.821 Q39.351 -59.297 39.351 -57.057 Q39.351 -54.816 40.875 -53.292 Q42.399 -51.768 44.639 -51.768 Z M70.798 -42.946 H81.579 Q82.298 -42.946 82.635 -43.525 Q82.971 -44.103 82.668 -44.744 L77.144 -53.547 Q76.771 -54.143 76.143 -54.143 Q75.514 -54.143 75.163 -53.547 L69.688 -44.744 Q69.337 -44.086 69.673 -43.516 Q70.01 -42.946 70.798 -42.946 Z M77.144 -16.913  82.656 -25.746 Q82.971 -26.374 82.635 -26.968 Q82.298 -27.562 81.579 -27.562 H70.798 Q70.01 -27.562 69.673 -26.968 Q69.337 -26.374 69.688 -25.764 L75.163 -16.913 Q75.537 -16.316 76.165 -16.316 Q76.793 -16.316 77.144 -16.913 Z M28.362 4.078 Q25.142 4.078 22.917 1.853 Q20.692 -0.372 20.692 -3.592 V-66.868 Q20.692 -70.088 22.917 -72.313 Q25.142 -74.538 28.362 -74.538 H91.638 Q94.858 -74.538 97.083 -72.313 Q99.308 -70.088 99.308 -66.868 V-3.592 Q99.308 -0.372 97.083 1.853 Q94.858 4.078 91.638 4.078 H28.362 Z M28.385 -0.538 H91.615 Q92.962 -0.538 93.827 -1.403 Q94.692 -2.268 94.692 -3.615 V-66.845 Q94.692 -68.191 93.827 -69.057 Q92.962 -69.922 91.615 -69.922 H28.385 Q27.038 -69.922 26.173 -69.057 Q25.308 -68.191 25.308 -66.845 V-3.615 Q25.308 -2.268 26.173 -1.403 Q27.038 -0.538 28.385 -0.538 Z"/></g><g id="Ultralight-M" transform="matrix(1 0 0 1 506.415 1126)"><path d="M41.062 -27.417 V-12.23 Q41.062 -10.667 42.094 -9.667 Q43.125 -8.667 44.688 -8.667 H45.688 Q47.178 -8.667 48.214 -9.667 Q49.25 -10.667 49.25 -12.23 V-27.417 H50.688 Q52.375 -27.042 53.312 -28.23 Q54.25 -29.417 54.25 -30.98 V-40.417 Q54.25 -43.164 52.342 -45.072 Q50.434 -46.98 47.688 -46.98 H42.688 Q39.864 -46.98 37.963 -45.072 Q36.062 -43.164 36.062 -40.417 V-30.98 Q36.062 -29.417 37 -28.23 Q37.938 -27.042 39.688 -27.417 H41.062 Z M45.188 -51.48 Q47.25 -51.48 48.719 -52.917 Q50.188 -54.355 50.188 -56.48 Q50.188 -58.605 48.719 -60.042 Q47.25 -61.48 45.188 -61.48 Q43.062 -61.48 41.625 -60.042 Q40.188 -58.605 40.188 -56.48 Q40.188 -54.355 41.625 -52.917 Q43.062 -51.48 45.188 -51.48 Z M71.28 -43.667 H80.684 Q81.188 -43.667 81.438 -44.054 Q81.688 -44.44 81.5 -44.917 L76.625 -52.667 Q76.353 -53.105 75.926 -53.105 Q75.5 -53.105 75.25 -52.667 L70.438 -44.917 Q70.188 -44.417 70.438 -44.042 Q70.688 -43.667 71.28 -43.667 Z M76.625 -17.792  81.484 -25.583 Q81.688 -26.042 81.438 -26.449 Q81.188 -26.855 80.684 -26.855 H71.28 Q70.688 -26.855 70.438 -26.449 Q70.188 -26.042 70.438 -25.605 L75.25 -17.792 Q75.522 -17.355 75.949 -17.355 Q76.375 -17.355 76.625 -17.792 Z M29.221 2.708 Q26.195 2.708 24.129 0.641 Q22.062 -1.425 22.062 -4.45 V-66.009 Q22.062 -69.035 24.129 -71.101 Q26.195 -73.167 29.221 -73.167 H90.779 Q93.805 -73.167 95.871 -71.101 Q97.938 -69.035 97.938 -66.009 V-4.45 Q97.938 -1.425 95.871 0.641 Q93.805 2.708 90.779 2.708 H29.221 Z M29.25 -0.48 H90.75 Q92.5 -0.48 93.625 -1.605 Q94.75 -2.73 94.75 -4.48 V-65.98 Q94.75 -67.73 93.625 -68.855 Q92.5 -69.98 90.75 -69.98 H29.25 Q27.5 -69.98 26.375 -68.855 Q25.25 -67.73 25.25 -65.98 V-4.48 Q25.25 -2.73 26.375 -1.605 Q27.5 -0.48 29.25 -0.48 Z"/></g><g id="Bold-S" transform="matrix(1 0 0 1 2294.23 696)"><path d="M32.744 -27.192 V-19.746 Q32.744 -17.497 34.405 -15.835 Q36.067 -14.174 38.316 -14.174 H36.738 Q38.691 -14.174 40.204 -15.687 Q41.718 -17.201 41.718 -19.154 V-27.192 H43.148 Q45.367 -25.565 45.91 -27.291 Q46.452 -29.017 46.452 -30.496 V-39.027 Q46.452 -40.919 45.144 -42.266 Q43.836 -43.613 41.965 -43.514 H32.497 Q30.626 -43.416 29.318 -42.157 Q28.01 -40.898 28.01 -39.027 V-30.496 Q28.01 -29.017 28.552 -27.291 Q29.094 -25.565 31.313 -27.192 H32.744 Z M37.22 -47.065 Q39.203 -47.065 40.584 -48.435 Q41.965 -49.804 41.965 -51.788 Q41.965 -53.771 40.595 -55.152 Q39.226 -56.533 37.242 -56.533 Q35.258 -56.533 33.878 -55.163 Q32.497 -53.794 32.497 -51.81 Q32.497 -49.826 33.867 -48.446 Q35.236 -47.065 37.22 -47.065 Z M53.309 -40.211 H64.843 Q65.624 -40.211 65.901 -40.778 Q66.177 -41.345 65.843 -41.971 L60.151 -51.814 Q59.848 -52.391 59.092 -52.391 Q58.337 -52.391 58.002 -51.814 L52.31 -41.971 Q51.975 -41.345 52.252 -40.778 Q52.529 -40.211 53.309 -40.211 Z M60.151 -18.646  65.843 -28.489 Q66.177 -29.115 65.901 -29.682 Q65.624 -30.249 64.843 -30.249 H53.309 Q52.529 -30.249 52.252 -29.682 Q51.975 -29.115 52.31 -28.489 L58.002 -18.646 Q58.305 -18.069 59.06 -18.069 Q59.816 -18.069 60.151 -18.646 Z M22.881 0.374 Q18.252 0.374 14.994 -2.884 Q11.736 -6.142 11.736 -10.771 V-59.689 Q11.736 -64.387 14.994 -67.61 Q18.252 -70.834 22.881 -70.834 H71.799 Q76.497 -70.834 79.72 -67.61 Q82.944 -64.387 82.944 -59.689 V-10.771 Q82.944 -6.142 79.72 -2.884 Q76.497 0.374 71.799 0.374 H22.881 Z M22.881 -10.771 H71.799 Q71.799 -10.771 71.799 -10.771 Q71.799 -10.771 71.799 -10.771 V-59.689 Q71.799 -59.689 71.799 -59.689 Q71.799 -59.689 71.799 -59.689 H22.881 Q22.881 -59.689 22.881 -59.689 Q22.881 -59.689 22.881 -59.689 V-10.771 Q22.881 -10.771 22.881 -10.771 Q22.881 -10.771 22.881 -10.771 Z"/></g><g id="Semibold-S" transform="matrix(1 0 0 1 1998.1 696)"><path d="M32.1 -27.192 V-18.76 Q32.1 -16.897 33.462 -15.535 Q34.824 -14.174 36.686 -14.174 H36.824 Q38.519 -14.174 39.797 -15.452 Q41.075 -16.73 41.075 -18.425 V-27.192 H42.505 Q44.467 -26.036 45.138 -27.548 Q45.809 -29.06 45.809 -30.496 V-39.027 Q45.809 -40.919 44.501 -42.266 Q43.193 -43.613 41.322 -43.514 H31.854 Q29.983 -43.416 28.675 -42.157 Q27.366 -40.898 27.366 -39.027 V-30.496 Q27.366 -29.06 28.037 -27.548 Q28.708 -26.036 30.67 -27.192 H32.1 Z M36.577 -47.065 Q38.56 -47.065 39.941 -48.435 Q41.322 -49.804 41.322 -51.788 Q41.322 -53.771 39.952 -55.152 Q38.582 -56.533 36.599 -56.533 Q34.615 -56.533 33.235 -55.163 Q31.854 -53.794 31.854 -51.81 Q31.854 -49.826 33.223 -48.446 Q34.593 -47.065 36.577 -47.065 Z M53.995 -40.211 H64.843 Q65.736 -40.211 66.064 -40.885 Q66.392 -41.559 66.014 -42.271 L60.665 -51.556 Q60.298 -52.219 59.425 -52.219 Q58.551 -52.219 58.173 -51.556 L52.825 -42.271 Q52.447 -41.559 52.775 -40.885 Q53.103 -40.211 53.995 -40.211 Z M60.665 -18.904  66.014 -28.189 Q66.392 -28.901 66.064 -29.575 Q65.736 -30.249 64.843 -30.249 H53.995 Q53.103 -30.249 52.775 -29.575 Q52.447 -28.901 52.825 -28.189 L58.173 -18.904 Q58.541 -18.241 59.414 -18.241 Q60.288 -18.241 60.665 -18.904 Z M22.366 -1.084 Q18.595 -1.084 15.895 -3.785 Q13.194 -6.485 13.194 -10.256 V-60.204 Q13.194 -64.044 15.895 -66.71 Q18.595 -69.376 22.366 -69.376 H72.314 Q76.154 -69.376 78.82 -66.71 Q81.486 -64.044 81.486 -60.204 V-10.256 Q81.486 -6.485 78.82 -3.785 Q76.154 -1.084 72.314 -1.084 H22.366 Z M22.366 -10.256 H72.314 Q72.314 -10.256 72.314 -10.256 Q72.314 -10.256 72.314 -10.256 V-60.204 Q72.314 -60.204 72.314 -60.204 Q72.314 -60.204 72.314 -60.204 H22.366 Q22.366 -60.204 22.366 -60.204 Q22.366 -60.204 22.366 -60.204 V-10.256 Q22.366 -10.256 22.366 -10.256 Q22.366 -10.256 22.366 -10.256 Z"/></g><g id="Medium-S" transform="matrix(1 0 0 1 1701.85 696)"><path d="M31.618 -27.192 V-18.02 Q31.618 -16.447 32.754 -15.31 Q33.891 -14.174 35.464 -14.174 H36.888 Q38.39 -14.174 39.492 -15.275 Q40.593 -16.376 40.593 -17.878 V-27.192 H42.023 Q43.792 -26.39 44.559 -27.741 Q45.327 -29.092 45.327 -30.496 V-39.027 Q45.327 -40.919 44.018 -42.266 Q42.71 -43.613 40.839 -43.514 H31.371 Q29.501 -43.416 28.192 -42.157 Q26.884 -40.898 26.884 -39.027 V-30.496 Q26.884 -29.092 27.651 -27.741 Q28.419 -26.39 30.188 -27.192 H31.618 Z M36.094 -47.065 Q38.078 -47.065 39.459 -48.435 Q40.839 -49.804 40.839 -51.788 Q40.839 -53.771 39.47 -55.152 Q38.1 -56.533 36.116 -56.533 Q34.133 -56.533 32.752 -55.163 Q31.371 -53.794 31.371 -51.81 Q31.371 -49.826 32.741 -48.446 Q34.111 -47.065 36.094 -47.065 Z M54.51 -40.211 H64.843 Q65.82 -40.211 66.186 -40.965 Q66.553 -41.72 66.143 -42.497 L61.051 -51.363 Q60.636 -52.091 59.674 -52.091 Q58.712 -52.091 58.302 -51.363 L53.211 -42.497 Q52.801 -41.72 53.167 -40.965 Q53.533 -40.211 54.51 -40.211 Z M61.051 -19.097  66.143 -27.964 Q66.553 -28.74 66.186 -29.495 Q65.82 -30.249 64.843 -30.249 H54.51 Q53.533 -30.249 53.167 -29.495 Q52.801 -28.74 53.211 -27.964 L58.302 -19.097 Q58.718 -18.369 59.68 -18.369 Q60.642 -18.369 61.051 -19.097 Z M21.981 -2.178 Q18.852 -2.178 16.57 -4.46 Q14.288 -6.742 14.288 -9.871 V-60.589 Q14.288 -63.787 16.57 -66.035 Q18.852 -68.282 21.981 -68.282 H72.699 Q75.897 -68.282 78.145 -66.035 Q80.392 -63.787 80.392 -60.589 V-9.871 Q80.392 -6.742 78.145 -4.46 Q75.897 -2.178 72.699 -2.178 H21.981 Z M21.981 -9.871 H72.699 Q72.699 -9.871 72.699 -9.871 Q72.699 -9.871 72.699 -9.871 V-60.589 Q72.699 -60.589 72.699 -60.589 Q72.699 -60.589 72.699 -60.589 H21.981 Q21.981 -60.589 21.981 -60.589 Q21.981 -60.589 21.981 -60.589 V-9.871 Q21.981 -9.871 21.981 -9.871 Q21.981 -9.871 21.981 -9.871 Z"/></g><g id="Regular-S" transform="matrix(1 0 0 1 1405.73 696)"><path d="M31.264 -27.192 V-17.477 Q31.264 -16.116 32.236 -15.145 Q33.207 -14.174 34.568 -14.174 H36.935 Q38.296 -14.174 39.268 -15.145 Q40.239 -16.116 40.239 -17.477 V-27.192 H41.669 Q43.296 -26.65 44.135 -27.882 Q44.973 -29.115 44.973 -30.496 V-39.027 Q44.973 -40.919 43.665 -42.266 Q42.356 -43.613 40.486 -43.514 H31.018 Q29.147 -43.416 27.838 -42.157 Q26.53 -40.898 26.53 -39.027 V-30.496 Q26.53 -29.115 27.368 -27.882 Q28.207 -26.65 29.834 -27.192 H31.264 Z M35.74 -47.065 Q37.724 -47.065 39.105 -48.435 Q40.486 -49.804 40.486 -51.788 Q40.486 -53.771 39.116 -55.152 Q37.746 -56.533 35.763 -56.533 Q33.779 -56.533 32.398 -55.163 Q31.018 -53.794 31.018 -51.81 Q31.018 -49.826 32.387 -48.446 Q33.757 -47.065 35.74 -47.065 Z M54.887 -40.211 H64.843 Q65.882 -40.211 66.276 -41.024 Q66.671 -41.838 66.237 -42.662 L61.334 -51.222 Q60.883 -51.996 59.857 -51.996 Q58.83 -51.996 58.396 -51.222 L53.494 -42.662 Q53.06 -41.838 53.455 -41.024 Q53.849 -40.211 54.887 -40.211 Z M61.334 -19.238  66.237 -27.798 Q66.671 -28.622 66.276 -29.436 Q65.882 -30.249 64.843 -30.249 H54.887 Q53.849 -30.249 53.455 -29.436 Q53.06 -28.622 53.494 -27.798 L58.396 -19.238 Q58.847 -18.464 59.874 -18.464 Q60.901 -18.464 61.334 -19.238 Z M21.698 -2.98 Q19.041 -2.98 17.065 -4.955 Q15.09 -6.931 15.09 -9.587 V-60.872 Q15.09 -63.598 17.065 -65.539 Q19.041 -67.48 21.698 -67.48 H72.983 Q75.708 -67.48 77.649 -65.539 Q79.59 -63.598 79.59 -60.872 V-9.587 Q79.59 -6.931 77.649 -4.955 Q75.708 -2.98 72.983 -2.98 H21.698 Z M21.698 -9.587 H72.983 Q72.983 -9.587 72.983 -9.587 Q72.983 -9.587 72.983 -9.587 V-60.872 Q72.983 -60.872 72.983 -60.872 Q72.983 -60.872 72.983 -60.872 H21.698 Q21.698 -60.872 21.698 -60.872 Q21.698 -60.872 21.698 -60.872 V-9.587 Q21.698 -9.587 21.698 -9.587 Q21.698 -9.587 21.698 -9.587 Z"/></g><g id="Light-S" transform="matrix(1 0 0 1 1109.75 696)"><path d="M32.914 -27.761 V-18.084 Q32.914 -16.837 33.781 -15.98 Q34.649 -15.122 35.896 -15.122 H37.049 Q38.274 -15.122 39.143 -15.98 Q40.011 -16.837 40.011 -18.084 V-27.761 H41.783 Q43.448 -26.896 44.097 -28.167 Q44.745 -29.438 44.745 -30.724 V-39.748 Q44.745 -41.26 43.722 -42.323 Q42.698 -43.385 41.206 -43.287 H31.738 Q30.223 -43.188 29.202 -42.214 Q28.18 -41.239 28.18 -39.748 V-30.724 Q28.18 -29.438 28.829 -28.167 Q29.478 -26.896 31.162 -27.761 H32.914 Z M36.461 -46.686 Q38.274 -46.686 39.551 -47.941 Q40.827 -49.197 40.827 -51.029 Q40.827 -52.861 39.562 -54.128 Q38.296 -55.395 36.483 -55.395 Q34.652 -55.395 33.385 -54.139 Q32.118 -52.883 32.118 -51.051 Q32.118 -49.22 33.374 -47.953 Q34.629 -46.686 36.461 -46.686 Z M55.521 -41.159 H63.667 Q64.421 -41.159 64.702 -41.72 Q64.982 -42.281 64.701 -42.889 L60.652 -50.065 Q60.333 -50.631 59.572 -50.631 Q58.811 -50.631 58.51 -50.065 L54.48 -42.889 Q54.179 -42.274 54.46 -41.717 Q54.741 -41.159 55.521 -41.159 Z M60.652 -20.395  64.696 -27.583 Q64.982 -28.186 64.702 -28.753 Q64.421 -29.32 63.667 -29.32 H55.521 Q54.741 -29.32 54.46 -28.753 Q54.179 -28.186 54.48 -27.59 L58.51 -20.395 Q58.828 -19.829 59.59 -19.829 Q60.351 -19.829 60.652 -20.395 Z M22.827 -4.782 Q20.425 -4.782 18.658 -6.548 Q16.892 -8.315 16.892 -10.717 V-59.743 Q16.892 -62.214 18.658 -63.946 Q20.425 -65.678 22.827 -65.678 H71.853 Q74.324 -65.678 76.056 -63.946 Q77.788 -62.214 77.788 -59.743 V-10.717 Q77.788 -8.315 76.056 -6.548 Q74.324 -4.782 71.853 -4.782 H22.827 Z M22.836 -9.512 H71.844 Q72.376 -9.512 72.717 -9.853 Q73.058 -10.194 73.058 -10.726 V-59.734 Q73.058 -60.266 72.717 -60.607 Q72.376 -60.948 71.844 -60.948 H22.836 Q22.304 -60.948 21.963 -60.607 Q21.622 -60.266 21.622 -59.734 V-10.726 Q21.622 -10.194 21.963 -9.853 Q22.304 -9.512 22.836 -9.512 Z"/></g><g id="Thin-S" transform="matrix(1 0 0 1 814.015 696)"><path d="M34.564 -28.33 V-18.691 Q34.564 -17.558 35.327 -16.814 Q36.09 -16.07 37.223 -16.07 H37.163 Q38.252 -16.07 39.018 -16.814 Q39.784 -17.558 39.784 -18.691 V-28.33 H41.897 Q43.6 -27.143 44.059 -28.451 Q44.518 -29.76 44.518 -30.951 V-40.468 Q44.518 -41.602 43.778 -42.38 Q43.039 -43.158 41.927 -43.059 H32.459 Q31.3 -42.961 30.565 -42.271 Q29.83 -41.581 29.83 -40.468 V-30.951 Q29.83 -29.76 30.289 -28.451 Q30.748 -27.143 32.489 -28.33 H34.564 Z M37.182 -46.306 Q38.824 -46.306 39.996 -47.448 Q41.168 -48.59 41.168 -50.271 Q41.168 -51.951 40.007 -53.104 Q38.846 -54.257 37.204 -54.257 Q35.524 -54.257 34.371 -53.115 Q33.218 -51.973 33.218 -50.293 Q33.218 -48.613 34.36 -47.459 Q35.502 -46.306 37.182 -46.306 Z M56.155 -42.107 H62.492 Q62.961 -42.107 63.128 -42.416 Q63.294 -42.724 63.165 -43.117 L59.969 -48.908 Q59.783 -49.265 59.288 -49.265 Q58.792 -49.265 58.624 -48.908 L55.466 -43.117 Q55.298 -42.71 55.465 -42.409 Q55.632 -42.107 56.155 -42.107 Z M59.969 -21.552  63.155 -27.368 Q63.294 -27.75 63.128 -28.07 Q62.961 -28.391 62.492 -28.391 H56.155 Q55.632 -28.391 55.465 -28.07 Q55.298 -27.75 55.466 -27.381 L58.624 -21.552 Q58.809 -21.195 59.305 -21.195 Q59.801 -21.195 59.969 -21.552 Z M23.956 -6.583 Q21.81 -6.583 20.252 -8.142 Q18.693 -9.7 18.693 -11.846 V-58.614 Q18.693 -60.829 20.252 -62.353 Q21.81 -63.877 23.956 -63.877 H70.724 Q72.939 -63.877 74.463 -62.353 Q75.987 -60.829 75.987 -58.614 V-11.846 Q75.987 -9.7 74.463 -8.142 Q72.939 -6.583 70.724 -6.583 H23.956 Z M23.973 -9.436 H70.707 Q71.769 -9.436 72.451 -10.119 Q73.134 -10.801 73.134 -11.863 V-58.597 Q73.134 -59.659 72.451 -60.341 Q71.769 -61.024 70.707 -61.024 H23.973 Q22.911 -61.024 22.229 -60.341 Q21.546 -59.659 21.546 -58.597 V-11.863 Q21.546 -10.801 22.229 -10.119 Q22.911 -9.436 23.973 -9.436 Z"/></g><g id="Ultralight-S" transform="matrix(1 0 0 1 517.792 696)"><path d="M35.554 -28.671 V-19.055 Q35.554 -17.99 36.255 -17.315 Q36.955 -16.639 38.02 -16.639 H37.231 Q38.239 -16.639 38.943 -17.315 Q39.647 -17.99 39.647 -19.055 V-28.671 H41.965 Q43.691 -27.291 44.036 -28.622 Q44.381 -29.954 44.381 -31.088 V-40.901 Q44.381 -41.806 43.813 -42.414 Q43.244 -43.021 42.359 -42.923 H32.891 Q31.946 -42.824 31.383 -42.305 Q30.82 -41.786 30.82 -40.901 V-31.088 Q30.82 -29.954 31.166 -28.622 Q31.511 -27.291 33.286 -28.671 H35.554 Z M37.614 -46.079 Q39.154 -46.079 40.264 -47.152 Q41.373 -48.226 41.373 -49.815 Q41.373 -51.404 40.275 -52.489 Q39.176 -53.574 37.637 -53.574 Q36.047 -53.574 34.963 -52.501 Q33.878 -51.427 33.878 -49.838 Q33.878 -48.248 34.951 -47.164 Q36.025 -46.079 37.614 -46.079 Z M56.536 -42.676 H61.786 Q62.084 -42.676 62.183 -42.833 Q62.282 -42.99 62.243 -43.253 L59.559 -48.214 Q59.453 -48.446 59.117 -48.446 Q58.781 -48.446 58.692 -48.214 L56.058 -43.253 Q55.97 -42.972 56.068 -42.824 Q56.167 -42.676 56.536 -42.676 Z M59.559 -22.246  62.23 -27.238 Q62.282 -27.488 62.183 -27.661 Q62.084 -27.833 61.786 -27.833 H56.536 Q56.167 -27.833 56.068 -27.661 Q55.97 -27.488 56.058 -27.256 L58.692 -22.246 Q58.798 -22.014 59.134 -22.014 Q59.471 -22.014 59.559 -22.246 Z M24.633 -7.664 Q22.641 -7.664 21.207 -9.097 Q19.774 -10.531 19.774 -12.523 V-57.937 Q19.774 -59.998 21.207 -61.397 Q22.641 -62.796 24.633 -62.796 H70.047 Q72.108 -62.796 73.507 -61.397 Q74.906 -59.998 74.906 -57.937 V-12.523 Q74.906 -10.531 73.507 -9.097 Q72.108 -7.664 70.047 -7.664 H24.633 Z M24.656 -9.39 H70.024 Q71.404 -9.39 72.292 -10.278 Q73.18 -11.165 73.18 -12.546 V-57.914 Q73.18 -59.294 72.292 -60.182 Q71.404 -61.07 70.024 -61.07 H24.656 Q23.276 -61.07 22.388 -60.182 Q21.5 -59.294 21.5 -57.914 V-12.546 Q21.5 -11.165 22.388 -10.278 Q23.276 -9.39 24.656 -9.39 Z"/></g></g></svg>