<svg xmlns="http://www.w3.org/2000/svg" height="48" viewBox="0 -960 960 960" width="48"><path d="M154.694-205.001q-28.341 0-49.517-20.984-21.176-20.984-21.176-49.709v-406.612q0-28.341 21.176-49.517 21.176-21.176 49.517-21.176h52.922l367.153 368.384H306.001v62.153h268.613q-2.385 9.276-4.385 19.523-2 10.246-2 20.246v77.692H154.694ZM837.922-37.232 39.617-836.385l41.615-42.615 797.92 800.152-41.23 41.614ZM199.846-510.077v62.154H262v-62.154h-62.154Zm124.847 0v62.154h62.153v-62.154h-62.153ZM199.846-635.923v62.154H262v-62.154h-62.154Zm373.923 62.154h62.154v-62.154h-62.154v62.154Zm124.231 0h62.154v-62.154H698v62.154Zm-400.537-179.23h507.843q28.341 0 49.517 21.176 21.176 21.176 21.176 49.517v266.305q-23.308-21.769-53.577-32.846-30.269-11.077-62.268-11.231v-49.999H698v60.384q-16.919 5.157-31.189 12.876-14.269 7.719-26.888 17.739l-26.538-26.538h22.538v-64.461h-62.154v33.384l-97.076-97.076h34.384v-62.154h-62.154v34.384l-151.46-151.46Zm578.536 578.536-79.615-79.615v-72.688q0-19.429-11.693-32.178-11.692-12.749-30.277-12.749-15.88 0-26.787 10.077-10.908 10.077-12.166 26.615l-31.769-30.384q9.401-19.846 28.277-32.269 18.876-12.423 42.799-12.423 33.992 0 56.996 23.769 23.004 23.769 23.004 59.077v40h1.769q14.615 0 27.039 12.73 12.423 12.731 12.423 28.255v71.783ZM674.244-84.001q-15.86 0-28.783-14.116-12.923-14.115-12.923-28.401v-119.637q0-14.846 11.269-26.884 11.269-12.039 26.115-13.808h2.231l162.615 163.615v39.23H674.244Z"/></svg>