<svg xmlns="http://www.w3.org/2000/svg" height="24" viewBox="0 -960 960 960" width="24"><path d="M187.59-205.538q-25.835 0-43.636-17.801-17.8-17.8-17.8-43.576v-426.008q0-25.577 18.858-43.558 18.858-17.981 44.68-17.981h8.654l153.231 153.231h-188.5v334.154q0 10.769 6.923 17.692t17.692 6.923h522.654l36.924 36.924H187.59Zm622.526-29.385-13.193-13.193v-353.115H460.616L307.384-754.462h59.193l43.385 86.539q6.403 14 19.253 21.885 12.85 7.884 28.032 7.884 29.803 0 45.586-25.134 15.782-25.135 2.282-52.02l-19.654-39.154h103.5l43.2 86.375q7.075 14.202 19.715 22.068 12.64 7.865 27.606 7.865 29.934 0 45.726-25.251Q741-688.657 727.5-715.423l-19.654-39.039h64.462q25.937 0 43.738 17.801 17.8 17.8 17.8 43.564v410.62q0 15.285-6.48 27.42-6.481 12.134-17.25 20.134ZM780.299-119.47l-661.06-661.329q-5.432-5.432-5.816-12.797-.385-7.366 5.731-13.481 6.115-6.115 13.288-6.115t13.374 6.2l661.06 661.061q5.432 5.249 5.624 12.84.192 7.591-5.731 13.707-5.923 6.115-13.096 6.115t-13.374-6.201ZM478.192-421.846Zm151.154-3.077Z"/></svg>