<svg xmlns="http://www.w3.org/2000/svg" height="40" viewBox="0 -960 960 960" width="40"><path d="M188.701-213.5q-22.843 0-38.939-16.096-16.095-16.096-16.095-38.86v-422.877q0-22.49 17.067-38.829 17.068-16.338 39.432-16.338H204l128.833 128.833h-176v349q0 14 9 23t23 9h525L737-213.5H188.701ZM797.333-237l5.834 5.834v-386.501H438.333L310.166-746.5h56.167l37.167 74.333q5.954 14 19.544 22.667 13.59 8.667 28.968 8.667 30.681 0 46.751-25.917 16.07-25.917 2.57-53.917L487.667-746.5h108.166l36.678 74.743q6.982 14.724 20.201 22.824 13.218 8.1 28.852 8.1 30.852 0 46.811-25.763 15.958-25.763 2.458-53.737L717.167-746.5h54q22.975 0 39.071 16.096 16.095 16.096 16.095 38.845v402.554q0 17.136-8.083 30.571Q810.167-245 797.333-237Zm-4.017 113.149L123.851-793.815q-3.018-3.152-3.518-7.919-.5-4.766 3.369-8.599 3.201-3.167 7.939-3.167 4.737 0 9.303 3.277l669.537 669.537q2.352 3.141 2.602 8.497t-2.868 8.522q-4.052 3.834-8.8 3.834-4.748 0-8.099-4.018ZM489.833-427.167ZM622-425Z"/></svg>