<svg xmlns="http://www.w3.org/2000/svg" height="20" viewBox="0 -960 960 960" width="20"><path d="M185-167q-47 0-80-32t-33-78v-403q0-35.7 19.9-63.85T145-786h26.5l618 619H185Zm671.5-30L260-793h78.5l55 112q6 11 16.78 18.5 10.781 7.5 24.22 7.5 25.598 0 38.549-21.75T475.5-721L439-793h131.5L628-679.5q5 11 15.781 17.75Q654.561-655 668-655q25.21 0 37.605-20.5Q718-696 707.5-718.5L670-793h105q47.7 0 80.35 33Q888-727 888-680v400q0 24-8.75 45t-22.75 38ZM772.92-69.095 88.08-754.405Q75.5-767 75.5-782.75 75.5-798.5 88-811t28.917-12.5q16.416 0 28.583 12.5l684.919 684.919Q843-113.5 843-97.318 843-81.136 830.5-69q-12.167 12.5-28.583 12.5-16.417 0-28.997-12.595Z"/></svg>