<svg xmlns="http://www.w3.org/2000/svg" height="20" viewBox="0 -960 960 960" width="20"><path d="M179.783-181.782q-38.305 0-65.653-26.783-27.348-26.783-27.348-64.522v-412.13q0-32.222 20.117-56.677 20.117-24.454 51.144-32.368h26.5l591.48 592.48h-596.24Zm667.587-25.652L276.521-778.218h73.717l55.87 112.869q5.565 11 16.128 18.065 10.563 7.066 23.568 7.066 24.728 0 37.462-20.881 12.733-20.88 2.233-42.946l-37.369-74.173h118.892l57.5 113.934q5 11 15.563 17.533 10.563 6.533 23.567 6.533 24.341 0 36.736-20.066 12.395-20.065 1.895-42.13l-37.935-75.804h115.869q39.005 0 66.003 27.348 26.998 27.348 26.998 65.653v410.434q0 19.653-7.228 36.522-7.228 16.87-18.62 30.827ZM758.574-93.442 104.165-748.317q-11.71-11.726-11.71-26.172 0-14.445 11.631-26.076 11.63-11.63 26.743-11.63 15.112 0 26.409 11.63L811.725-146.08q11.711 11.712 11.711 26.589 0 14.878-11.63 26.145-11.298 11.63-26.41 11.63t-26.822-11.726Z"/></svg>