<svg xmlns="http://www.w3.org/2000/svg" height="20" viewBox="0 -960 960 960" width="20"><path d="M313.538-260q-62.259 0-103.899-42.884Q168-345.769 168-408.461v-145.847q0-40.966 24.231-75.637 24.23-34.671 65.23-46.132 53.352-13.731 109.6-19.212 56.247-5.48 113.972-5.48 57.369 0 113.245 5.23 55.876 5.231 110.261 19.462 41 9.692 64.73 45.137Q793-595.496 793-554.308v145.847Q793-345 751.135-302.5 709.269-260 646.692-260H612q-13.103 0-25.205-4.384-12.103-4.385-25.564-7.847l-48.385-19.923q-16.15-5-32.767-5-16.617 0-32.925 5L398-272.231q-13.462 3.462-25.064 7.847Q361.333-260 348.231-260h-34.693Zm-2-57h35.693q7.857 0 15.582-1.885 7.725-1.884 16.264-4.884 24.154-11.231 49.711-21.693 25.556-10.461 52.346-10.461 26.789 0 52.456 10.74 25.666 10.74 50.333 21.414 8.539 3 15.514 4.884Q606.412-317 613-317h35.692q37.266 0 62.287-27.161Q736-371.321 736-408.461v-146.106q0-21.815-12.577-41.778-12.577-19.963-35.192-23.963-51.452-13.059-102.852-18.26-51.4-5.201-104.351-5.201-52.272 0-104.618 5.158t-102.641 18.303q-23.615 5.678-36.192 24.975Q225-576.037 225-554.567v146.106q0 37.14 24.564 64.3Q274.129-317 311.538-317ZM72.032-396.461q-8.586 0-16.31-7.724Q48-411.908 48-420.154v-126.538q0-8.246 7.723-15.585 7.723-7.338 15.97-7.338 8.245 0 15.584 7.338 7.338 7.339 7.338 15.585v127.307q0 8.247-6.998 15.585-6.999 7.339-15.585 7.339Zm818.385 0q-8.586 0-16.309-7.724-7.723-7.723-7.723-15.969v-126.538q0-8.246 7.723-15.585 7.723-7.338 15.969-7.338 8.246 0 15.585 7.338Q913-554.938 913-546.692v127.307q0 8.247-6.998 15.585-6.999 7.339-15.585 7.339ZM481-480.769Z"/></svg>