<svg xmlns="http://www.w3.org/2000/svg" version="1.1" width="3300" height="2000"><g id="Notes"><style>
    text {
      font-family: monospace;
      text-anchor: middle;
    }
    text.emphasis {
      font-weight:bold;
    }
    text.lanchor {
      text-anchor: start;
    }
  </style><rect height="2200" id="artboard" fill="white" width="3300" x="0" y="0"/><line id="" style="fill:none;stroke:black;stroke-width:0.5;" x1="263" x2="3036" y1="292" y2="292"/><text class="lanchor emphasis" transform="matrix(1 0 0 1 263 322)">Weight/Scale Variations</text><text transform="matrix(1 0 0 1 559.711 322)">Ultralight</text><text transform="matrix(1 0 0 1 856.422 322)">Thin</text><text transform="matrix(1 0 0 1 1153.13 322)">Light</text><text transform="matrix(1 0 0 1 1449.84 322)">Regular</text><text transform="matrix(1 0 0 1 1746.56 322)">Medium</text><text transform="matrix(1 0 0 1 2043.27 322)">Semibold</text><text transform="matrix(1 0 0 1 2339.98 322)">Bold</text><text transform="matrix(1 0 0 1 2636.69 322)">Heavy</text><text transform="matrix(1 0 0 1 2933.4 322)">Black</text><text id="template-version" style="text-anchor: end;" transform="matrix(1 0 0 1 3036 1933)">Template v.1.0</text><text class="lanchor" transform="matrix(1 0 0 1 263 726)">Small</text><text class="lanchor" transform="matrix(1 0 0 1 263 1156)">Medium</text><text class="lanchor" transform="matrix(1 0 0 1 263 1586)">Large</text></g><g id="Guides"><g id="H-reference" style="fill:#27AAE1;stroke:none;" transform="matrix(1 0 0 1 339 696)"><path d="M 54.9316 0 L 57.666 0 L 30.5664 -70.459 L 28.0762 -70.459 L 0.976562 0 L 3.66211 0 L 12.9395 -24.4629 L 45.7031 -24.4629 Z M 29.1992 -67.0898 L 29.4434 -67.0898 L 44.8242 -26.709 L 13.8184 -26.709 Z"/></g><line id="Baseline-S" style="fill:none;stroke:#27AAE1;opacity:1;stroke-width:0.577;" x1="263" x2="3036" y1="696" y2="696"/><line id="Capline-S" style="fill:none;stroke:#27AAE1;opacity:1;stroke-width:0.577;" x1="263" x2="3036" y1="625.541" y2="625.541"/><g id="H-reference" style="fill:#27AAE1;stroke:none;" transform="matrix(1 0 0 1 339 1126)"><path d="M 54.9316 0 L 57.666 0 L 30.5664 -70.459 L 28.0762 -70.459 L 0.976562 0 L 3.66211 0 L 12.9395 -24.4629 L 45.7031 -24.4629 Z M 29.1992 -67.0898 L 29.4434 -67.0898 L 44.8242 -26.709 L 13.8184 -26.709 Z"/></g><line id="Baseline-M" style="fill:none;stroke:#27AAE1;opacity:1;stroke-width:0.577;" x1="263" x2="3036" y1="1126" y2="1126"/><line id="Capline-M" style="fill:none;stroke:#27AAE1;opacity:1;stroke-width:0.577;" x1="263" x2="3036" y1="1055.54" y2="1055.54"/><g id="H-reference" style="fill:#27AAE1;stroke:none;" transform="matrix(1 0 0 1 339 1556)"><path d="M 54.9316 0 L 57.666 0 L 30.5664 -70.459 L 28.0762 -70.459 L 0.976562 0 L 3.66211 0 L 12.9395 -24.4629 L 45.7031 -24.4629 Z M 29.1992 -67.0898 L 29.4434 -67.0898 L 44.8242 -26.709 L 13.8184 -26.709 Z"/></g><line id="Baseline-L" style="fill:none;stroke:#27AAE1;opacity:1;stroke-width:0.577;" x1="263" x2="3036" y1="1556" y2="1556"/><line id="Capline-L" style="fill:none;stroke:#27AAE1;opacity:1;stroke-width:0.577;" x1="263" x2="3036" y1="1485.54" y2="1485.54"/><rect height="119.336" id="left-margin" style="fill:darkred;stroke:none;opacity:0.4;" width="12.4512" x="1394.06" y="1030.79"/><rect height="119.336" id="right-margin" style="fill:darkgreen;stroke:none;opacity:0.4;" width="12.4512" x="1502.5112" y="1030.79"/><rect x="1406.5112" y="1045" width="96" height="96" fill="none" stroke="blue" stroke-dasharray="5"/><rect x="1394.06" y="1030.79" width="120.9024" height="119.336" fill="none" stroke="blue"/></g><g id="Symbols"><g id="Bold-L" transform="matrix(1 0 0 1 2266 1556)"><path d="M57.566 37.252 Q54.751 37.252 51.241 35.035 Q47.73 32.818 43.789 28.007 L24.752 4.276 L32.169 -1.932 L42.006 10.001 L58.05 -1.771 L69.015 -56.837 L55.228 -50.226 V-28.861 H42.086 V-59.359 L72.643 -71.753 Q75.546 -72.801 77.585 -73.406 Q79.624 -74.011 82.721 -74.011 Q86.041 -74.011 89.439 -72.418 Q92.837 -70.826 94.654 -67.964 L101.749 -57.241 Q106.586 -49.662 113.69 -45.752 Q120.794 -41.841 130.209 -41.68 V-28.861 Q118.761 -29.022 110.859 -33.053 Q102.958 -37.084 94.815 -46.759 L89.01 -25.394 L103.603 -12.252 V27.335 Q107.634 27.093 110.357 25.919 Q113.08 24.744 114.568 24.11 Q115.133 23.868 115.737 23.747 Q116.342 23.626 116.932 23.626 Q119.318 23.626 120.733 25.078 Q122.147 26.529 122.147 28.392 Q122.147 29.593 121.542 30.802 Q120.938 32.011 119.648 32.818 Q116.422 34.753 112.604 36.002 Q108.786 37.252 103.523 37.252 H78.529 V27.658 H90.623 V-2.416 L75.788 -15.638 L71.918 4.679 L50.31 20.321 L53.253 23.667 Q54.477 25.078 55.941 26.045 Q57.405 27.013 59.582 27.819 Q60.872 28.625 61.759 29.794 Q62.646 30.963 62.646 32.806 Q62.646 34.73 61.076 35.991 Q59.506 37.252 57.566 37.252 Z M95.835 -80.944 Q90.325 -80.944 86.362 -85.009 Q82.399 -89.075 82.399 -94.585 Q82.399 -100.095 86.362 -104.065 Q90.325 -108.034 95.835 -108.034 Q101.346 -108.034 105.337 -104.046 Q109.328 -100.057 109.328 -94.511 Q109.328 -89.031 105.337 -84.988 Q101.346 -80.944 95.835 -80.944 Z"/></g><g id="Semibold-L" transform="matrix(1 0 0 1 1970.27 1556)"><path d="M57.426 36.481 Q54.818 36.481 51.45 34.334 Q48.081 32.187 44.311 27.505 L25.663 4.417 L31.889 -0.81 L41.655 11.122 L58.611 -1.28 L69.926 -57.959 L54.807 -50.927 V-29.632 H43.278 V-58.789 L72.783 -70.982 Q75.686 -72.1 77.697 -72.67 Q79.708 -73.24 82.651 -73.24 Q85.755 -73.24 88.972 -71.743 Q92.19 -70.248 93.883 -67.543 L100.837 -56.89 Q105.815 -49.101 112.933 -45.086 Q120.05 -41.07 129.228 -40.909 V-29.632 Q117.99 -29.863 110.123 -34.105 Q102.257 -38.346 94.184 -48.372 L87.958 -25.183 L102.622 -11.971 V28.317 Q107.003 28.075 110.015 26.903 Q113.026 25.73 114.778 24.881 Q115.273 24.639 115.825 24.518 Q116.377 24.397 116.85 24.397 Q118.83 24.397 119.998 25.621 Q121.165 26.844 121.165 28.423 Q121.165 29.417 120.666 30.434 Q120.166 31.45 119.087 32.117 Q116.002 33.981 112.249 35.231 Q108.496 36.481 103.382 36.481 H79.16 V28.429 H91.253 V-2.766 L75.227 -17.18 L70.796 4.399 L48.908 20.18 L51.973 23.684 Q53.402 25.358 55.123 26.536 Q56.844 27.713 59.091 28.59 Q60.171 29.256 60.918 30.267 Q61.664 31.279 61.664 32.776 Q61.664 34.389 60.339 35.435 Q59.013 36.481 57.426 36.481 Z M95.041 -80.173 Q89.858 -80.173 86.129 -83.961 Q82.399 -87.748 82.399 -92.931 Q82.399 -98.114 86.129 -101.847 Q89.858 -105.581 95.041 -105.581 Q100.224 -105.581 103.969 -101.836 Q107.715 -98.092 107.715 -92.889 Q107.715 -87.724 103.969 -83.948 Q100.224 -80.173 95.041 -80.173 Z"/></g><g id="Medium-L" transform="matrix(1 0 0 1 1674.31 1556)"><path d="M57.321 35.902 Q54.869 35.902 51.606 33.808 Q48.343 31.713 44.702 27.128 L26.347 4.522 L31.679 0.031 L41.392 11.964 L59.032 -0.912 L70.61 -58.801 L54.492 -51.453 V-30.21 H44.172 V-58.361 L72.889 -70.403 Q75.791 -71.574 77.782 -72.118 Q79.772 -72.661 82.599 -72.661 Q85.54 -72.661 88.622 -71.237 Q91.704 -69.814 93.304 -67.228 L100.154 -56.627 Q105.237 -48.68 112.364 -44.586 Q119.492 -40.492 128.492 -40.33 V-30.21 Q117.411 -30.494 109.571 -34.893 Q101.731 -39.293 93.711 -49.581 L87.17 -25.026 L101.885 -11.761 V29.053 Q106.53 28.811 109.758 27.64 Q112.985 26.47 114.936 25.46 Q115.378 25.218 115.891 25.097 Q116.403 24.976 116.79 24.976 Q118.465 24.976 119.447 26.028 Q120.429 27.081 120.429 28.446 Q120.429 29.286 120.009 30.158 Q119.588 31.03 118.666 31.591 Q115.686 33.403 111.982 34.653 Q108.278 35.902 103.277 35.902 H79.633 V29.007 H91.727 V-3.029 L74.806 -18.337 L69.954 4.189 L47.856 20.075 L51.014 23.697 Q52.595 25.568 54.509 26.904 Q56.423 28.239 58.723 29.168 Q59.645 29.729 60.287 30.622 Q60.928 31.515 60.928 32.753 Q60.928 34.134 59.786 35.018 Q58.644 35.902 57.321 35.902 Z M94.446 -79.595 Q89.508 -79.595 85.954 -83.174 Q82.399 -86.753 82.399 -91.69 Q82.399 -96.627 85.954 -100.184 Q89.508 -103.74 94.446 -103.74 Q99.383 -103.74 102.944 -100.179 Q106.506 -96.618 106.506 -91.673 Q106.506 -86.743 102.944 -83.169 Q99.383 -79.595 94.446 -79.595 Z"/></g><g id="Regular-L" transform="matrix(1 0 0 1 1378.56 1556)"><path d="M57.244 35.478 Q54.906 35.478 51.721 33.422 Q48.536 31.366 44.989 26.851 L26.848 4.599 L31.524 0.648 L41.199 12.581 L59.34 -0.642 L71.111 -59.417 L54.261 -51.839 V-30.634 H44.828 V-58.047 L72.966 -69.979 Q75.868 -71.189 77.843 -71.713 Q79.819 -72.237 82.56 -72.237 Q85.382 -72.237 88.365 -70.866 Q91.348 -69.496 92.88 -66.996 L99.653 -56.434 Q104.812 -48.372 111.948 -44.22 Q119.083 -40.067 127.952 -39.906 V-30.634 Q116.987 -30.957 109.166 -35.472 Q101.346 -39.987 93.364 -50.468 L86.591 -24.91 L101.346 -11.607 V29.593 Q106.183 29.351 109.569 28.182 Q112.956 27.013 115.052 25.884 Q115.455 25.642 115.939 25.521 Q116.422 25.4 116.745 25.4 Q118.196 25.4 119.043 26.327 Q119.889 27.254 119.889 28.464 Q119.889 29.189 119.527 29.955 Q119.164 30.721 118.358 31.205 Q115.455 32.979 111.787 34.228 Q108.118 35.478 103.2 35.478 H79.98 V29.431 H92.074 V-3.222 L74.498 -19.186 L69.338 4.034 L47.085 19.998 L50.31 23.707 Q52.003 25.723 54.059 27.174 Q56.115 28.625 58.453 29.593 Q59.259 30.076 59.824 30.883 Q60.388 31.689 60.388 32.737 Q60.388 33.946 59.38 34.712 Q58.373 35.478 57.244 35.478 Z M94.009 -79.171 Q89.252 -79.171 85.825 -82.597 Q82.399 -86.024 82.399 -90.781 Q82.399 -95.537 85.825 -98.964 Q89.252 -102.391 94.009 -102.391 Q98.766 -102.391 102.192 -98.964 Q105.619 -95.537 105.619 -90.781 Q105.619 -86.024 102.192 -82.597 Q98.766 -79.171 94.009 -79.171 Z"/></g><g id="Light-L" transform="matrix(1 0 0 1 1082.77 1556)"><path d="M56.968 34.61 Q54.596 34.61 51.566 32.724 Q48.536 30.839 44.958 26.138 L28.12 5.312 L32.052 2.075 L41.478 13.759 L60.828 -0.363 L72.879 -60.968 L53.733 -52.614 V-31.751 H46.502 V-57.36 L73.245 -68.615 Q76.533 -69.948 78.514 -70.534 Q80.496 -71.12 82.932 -71.12 Q85.537 -71.12 88.117 -69.843 Q90.697 -68.565 92.074 -66.314 L98.722 -55.876 Q103.648 -48.098 110.776 -43.772 Q117.905 -39.447 126.742 -38.945 V-31.875 Q116.088 -32.383 108.112 -37.379 Q100.136 -42.375 92.619 -53.29 L85.723 -24.631 L100.322 -11.173 V29.562 Q105.656 29.475 108.794 28.538 Q111.932 27.602 114.61 26.287 Q115.207 25.983 115.76 25.738 Q116.314 25.493 116.707 25.493 Q117.755 25.493 118.497 26.263 Q119.238 27.034 119.238 28.033 Q119.238 28.848 118.767 29.568 Q118.295 30.287 117.418 30.709 Q114.308 32.421 110.856 33.484 Q107.405 34.548 102.611 34.548 H80.352 V29.462 H93.252 V-3.687 L74.187 -21.357 L68.81 2.98 L45.969 19.378 L49.473 23.645 Q51.29 25.909 53.284 27.344 Q55.278 28.78 57.709 29.623 Q58.484 30.014 58.986 30.743 Q59.489 31.472 59.489 32.334 Q59.489 33.334 58.65 33.972 Q57.811 34.61 56.968 34.61 Z M93.943 -79.636 Q89.407 -79.636 86.182 -82.896 Q82.957 -86.155 82.957 -90.629 Q82.957 -95.165 86.186 -98.39 Q89.415 -101.615 93.951 -101.615 Q98.424 -101.615 101.681 -98.386 Q104.937 -95.158 104.937 -90.622 Q104.937 -86.148 101.677 -82.892 Q98.417 -79.636 93.943 -79.636 Z"/></g><g id="Thin-L" transform="matrix(1 0 0 1 787.282 1556)"><path d="M56.692 33.742 Q54.285 33.742 51.411 32.027 Q48.536 30.312 44.927 25.425 L29.391 6.025 L32.579 3.501 L41.758 14.937 L62.317 -0.084 L74.646 -62.518 L53.206 -53.389 V-32.867 H48.177 V-56.674 L73.524 -67.251 Q77.197 -68.708 79.185 -69.356 Q81.172 -70.004 83.304 -70.004 Q85.692 -70.004 87.869 -68.82 Q90.046 -67.635 91.267 -65.632 L97.792 -55.318 Q102.484 -47.823 109.605 -43.325 Q116.726 -38.827 125.533 -37.984 V-33.115 Q115.188 -33.81 107.058 -39.286 Q98.927 -44.762 91.875 -56.112 L84.855 -24.352 L99.299 -10.739 V29.53 Q105.129 29.599 108.019 28.895 Q110.909 28.191 114.168 26.69 Q114.959 26.324 115.582 25.955 Q116.205 25.586 116.67 25.586 Q117.315 25.586 117.951 26.2 Q118.587 26.813 118.587 27.602 Q118.587 28.507 118.007 29.18 Q117.427 29.853 116.479 30.213 Q113.16 31.862 109.926 32.74 Q106.692 33.618 102.022 33.618 H80.724 V29.493 H94.43 V-4.152 L73.877 -23.527 L68.283 1.926 L44.852 18.758 L48.635 23.583 Q50.577 26.095 52.509 27.515 Q54.44 28.935 56.965 29.655 Q57.709 29.952 58.149 30.603 Q58.59 31.255 58.59 31.931 Q58.59 32.722 57.92 33.232 Q57.25 33.742 56.692 33.742 Z M93.877 -80.101 Q89.562 -80.101 86.539 -83.194 Q83.515 -86.287 83.515 -90.478 Q83.515 -94.793 86.546 -97.817 Q89.577 -100.84 93.892 -100.84 Q98.083 -100.84 101.169 -97.809 Q104.254 -94.778 104.254 -90.463 Q104.254 -86.272 101.161 -83.186 Q98.068 -80.101 93.877 -80.101 Z"/></g><g id="Ultralight-L" transform="matrix(1 0 0 1 491.205 1556)"><path d="M56.526 33.221 Q54.099 33.221 51.318 31.608 Q48.536 29.996 44.908 24.997 L30.154 6.453 L32.895 4.357 L41.925 15.644 L63.21 0.084 L75.707 -63.449 L52.89 -53.854 V-33.537 H49.181 V-56.262 L73.691 -66.432 Q77.596 -67.964 79.587 -68.649 Q81.578 -69.334 83.528 -69.334 Q85.785 -69.334 87.72 -68.206 Q89.655 -67.077 90.784 -65.222 L97.234 -54.983 Q101.785 -47.659 108.902 -43.057 Q116.019 -38.455 124.808 -37.407 V-33.859 Q114.649 -34.666 106.425 -40.43 Q98.201 -46.195 91.429 -57.805 L84.334 -24.184 L98.685 -10.478 V29.512 Q104.812 29.673 107.554 29.109 Q110.295 28.544 113.903 26.932 Q114.81 26.529 115.475 26.085 Q116.14 25.642 116.647 25.642 Q117.05 25.642 117.623 26.161 Q118.196 26.681 118.196 27.344 Q118.196 28.303 117.551 28.948 Q116.906 29.593 115.916 29.915 Q112.472 31.528 109.368 32.293 Q106.264 33.059 101.668 33.059 H80.948 V29.512 H95.138 V-4.431 L73.691 -24.829 L67.967 1.293 L44.183 18.386 L48.133 23.546 Q50.149 26.206 52.043 27.617 Q53.938 29.028 56.518 29.673 Q57.244 29.915 57.647 30.52 Q58.05 31.124 58.05 31.689 Q58.05 32.355 57.481 32.788 Q56.913 33.221 56.526 33.221 Z M93.838 -80.38 Q89.655 -80.38 86.752 -83.373 Q83.85 -86.366 83.85 -90.387 Q83.85 -94.57 86.762 -97.472 Q89.675 -100.375 93.857 -100.375 Q97.879 -100.375 100.862 -97.463 Q103.845 -94.55 103.845 -90.368 Q103.845 -86.346 100.852 -83.363 Q97.859 -80.38 93.838 -80.38 Z"/></g><g id="Bold-M" transform="matrix(1 0 0 1 2281.8 1126)"><path d="M42.812 21.333 Q40.188 21.333 36.75 18.926 Q33.312 16.52 30.882 13.479 L18.125 -2.917 L26.375 -9.667 L32.25 -2.292 L45.375 -11.23 L52.812 -48.355 L46.375 -45.667 V-28.667 H33.125 V-54.667 L55.625 -63.667 Q59.562 -65.23 61.612 -65.824 Q63.661 -66.417 65.375 -66.417 Q68.478 -66.417 71.053 -64.864 Q73.629 -63.311 75.375 -60.73 L80.625 -52.792 Q83.75 -48.042 89.156 -44.949 Q94.562 -41.855 101.875 -41.792 V-28.667 Q93.5 -28.792 86.5 -31.667 Q79.5 -34.542 74.25 -39.605 L72 -28.292 L82.125 -18.542 V10.333 Q83.438 10.083 84.438 9.645 Q85.438 9.208 86.312 8.833 Q86.875 8.458 87.531 8.333 Q88.188 8.208 88.875 8.208 Q91.375 8.208 92.875 9.833 Q94.375 11.458 94.375 13.458 Q94.375 14.833 93.781 15.989 Q93.188 17.145 91.75 18.145 Q89.062 19.833 86.04 20.583 Q83.018 21.333 79.688 21.333 H58.75 V10.708 H69 V-9.855 L61.125 -17.167 L58.312 -4.167 L40.625 8.208 L40.938 8.583 Q41.605 9.333 42.522 9.833 Q43.438 10.333 44.938 11.083 Q46.562 11.708 47.406 12.864 Q48.25 14.02 48.25 16.02 Q48.25 18.306 46.643 19.819 Q45.036 21.333 42.812 21.333 Z M74.608 -69.23 Q69.779 -69.23 66.39 -72.699 Q63 -76.167 63 -80.997 Q63 -85.826 66.39 -89.215 Q69.779 -92.605 74.608 -92.605 Q79.438 -92.605 82.906 -89.215 Q86.375 -85.826 86.375 -80.997 Q86.375 -76.167 82.906 -72.699 Q79.438 -69.23 74.608 -69.23 Z"/></g><g id="Semibold-M" transform="matrix(1 0 0 1 1985.97 1126)"><path d="M42.65 20.517 Q40.242 20.517 36.995 18.22 Q33.747 15.922 31.395 12.98 L19.103 -2.809 L26.103 -8.526 L31.924 -1.151 L45.973 -10.741 L53.736 -49.551 L45.94 -46.374 V-29.483 H34.375 V-54.124 L55.788 -62.852 Q59.725 -64.469 61.699 -65.036 Q63.673 -65.602 65.321 -65.602 Q68.189 -65.602 70.568 -64.154 Q72.948 -62.705 74.56 -60.295 L79.701 -52.412 Q82.88 -47.499 88.314 -44.269 Q93.747 -41.04 100.897 -40.977 V-29.483 Q92.685 -29.608 85.712 -32.727 Q78.739 -35.847 73.598 -41.29 L70.913 -28.075 L81.147 -18.271 V11.311 Q82.785 11.115 84.084 10.65 Q85.383 10.186 86.53 9.593 Q87.038 9.273 87.599 9.148 Q88.16 9.023 88.739 9.023 Q90.859 9.023 92.128 10.403 Q93.397 11.784 93.397 13.485 Q93.397 14.642 92.885 15.622 Q92.372 16.602 91.152 17.439 Q88.573 19.017 85.656 19.767 Q82.738 20.517 79.525 20.517 H59.402 V11.523 H69.652 V-10.235 L60.527 -18.798 L57.171 -4.439 L39.212 8.045 L39.633 8.583 Q40.5 9.659 41.67 10.376 Q42.84 11.093 44.448 11.843 Q45.802 12.414 46.537 13.394 Q47.272 14.373 47.272 16.02 Q47.272 17.965 45.902 19.241 Q44.531 20.517 42.65 20.517 Z M73.8 -68.415 Q69.305 -68.415 66.152 -71.612 Q63 -74.809 63 -79.305 Q63 -83.8 66.152 -86.953 Q69.305 -90.105 73.8 -90.105 Q78.296 -90.105 81.493 -86.953 Q84.69 -83.8 84.69 -79.305 Q84.69 -74.809 81.493 -71.612 Q78.296 -68.415 73.8 -68.415 Z"/></g><g id="Medium-M" transform="matrix(1 0 0 1 1689.91 1126)"><path d="M42.527 19.906 Q40.283 19.906 37.178 17.69 Q34.073 15.474 31.78 12.607 L19.837 -2.727 L25.899 -7.67 L31.679 -0.295 L46.421 -10.374 L54.429 -50.447 L45.614 -46.904 V-30.094 H35.312 V-53.716 L55.91 -62.241 Q59.848 -63.898 61.764 -64.445 Q63.681 -64.991 65.28 -64.991 Q67.972 -64.991 70.204 -63.621 Q72.437 -62.251 73.948 -59.969 L79.008 -52.127 Q82.228 -47.091 87.682 -43.76 Q93.136 -40.428 100.163 -40.366 V-30.094 Q92.073 -30.219 85.121 -33.522 Q78.168 -36.825 73.109 -42.553 L70.098 -27.912 L80.413 -18.067 V12.045 Q82.296 11.89 83.819 11.405 Q85.342 10.92 86.693 10.164 Q87.16 9.884 87.65 9.759 Q88.14 9.634 88.637 9.634 Q90.472 9.634 91.567 10.831 Q92.663 12.028 92.663 13.505 Q92.663 14.5 92.212 15.347 Q91.761 16.194 90.704 16.909 Q88.207 18.406 85.368 19.156 Q82.529 19.906 79.402 19.906 H59.891 V12.134 H70.141 V-10.521 L60.079 -20.021 L56.315 -4.643 L38.152 7.922 L38.655 8.583 Q39.671 9.903 41.031 10.784 Q42.391 11.664 44.081 12.414 Q45.231 12.944 45.885 13.791 Q46.538 14.638 46.538 16.02 Q46.538 17.708 45.345 18.807 Q44.153 19.906 42.527 19.906 Z M73.194 -67.803 Q68.949 -67.803 65.974 -70.797 Q63 -73.79 63 -78.036 Q63 -82.281 65.974 -85.256 Q68.949 -88.23 73.194 -88.23 Q77.44 -88.23 80.433 -85.256 Q83.427 -82.281 83.427 -78.036 Q83.427 -73.79 80.433 -70.797 Q77.44 -67.803 73.194 -67.803 Z"/></g><g id="Regular-M" transform="matrix(1 0 0 1 1394.06 1126)"><path d="M42.438 19.458 Q40.312 19.458 37.312 17.301 Q34.312 15.145 32.062 12.333 L20.375 -2.667 L25.75 -7.042 L31.5 0.333 L46.75 -10.105 L54.938 -51.105 L45.375 -47.292 V-30.542 H36 V-53.417 L56 -61.792 Q59.938 -63.48 61.812 -64.011 Q63.688 -64.542 65.25 -64.542 Q67.812 -64.542 69.938 -63.23 Q72.062 -61.917 73.5 -59.73 L78.5 -51.917 Q81.75 -46.792 87.219 -43.386 Q92.688 -39.98 99.625 -39.917 V-30.542 Q91.625 -30.667 84.688 -34.105 Q77.75 -37.542 72.75 -43.48 L69.5 -27.792 L79.875 -17.917 V12.583 Q81.938 12.458 83.625 11.958 Q85.312 11.458 86.812 10.583 Q87.25 10.333 87.688 10.208 Q88.125 10.083 88.562 10.083 Q90.188 10.083 91.156 11.145 Q92.125 12.208 92.125 13.52 Q92.125 14.395 91.719 15.145 Q91.312 15.895 90.375 16.52 Q87.938 17.958 85.156 18.708 Q82.375 19.458 79.312 19.458 H60.25 V12.583 H70.5 V-10.73 L59.75 -20.917 L55.688 -4.792 L37.375 7.833 L37.938 8.583 Q39.062 10.083 40.562 11.083 Q42.062 12.083 43.812 12.833 Q44.812 13.333 45.406 14.083 Q46 14.833 46 16.02 Q46 17.52 44.938 18.489 Q43.875 19.458 42.438 19.458 Z M72.75 -67.355 Q68.688 -67.355 65.844 -70.199 Q63 -73.042 63 -77.105 Q63 -81.167 65.844 -84.011 Q68.688 -86.855 72.75 -86.855 Q76.812 -86.855 79.656 -84.011 Q82.5 -81.167 82.5 -77.105 Q82.5 -73.042 79.656 -70.199 Q76.812 -67.355 72.75 -67.355 Z"/></g><g id="Light-M" transform="matrix(1 0 0 1 1098.18 1126)"><path d="M42.704 18.784 Q40.649 18.784 37.962 16.929 Q35.274 15.073 32.808 11.924 L21.505 -2.547 L25.774 -5.985 L31.812 1.727 L47.808 -9.408 L56.452 -53.124 L44.101 -48.086 V-31.744 H37.106 V-52.693 L56.409 -60.735 Q60.212 -62.326 61.996 -62.857 Q63.779 -63.389 65.25 -63.389 Q67.5 -63.389 69.361 -62.244 Q71.221 -61.1 72.49 -59.153 L77.442 -51.34 Q80.703 -46.147 86.166 -42.679 Q91.63 -39.211 98.495 -38.836 V-31.841 Q90.639 -32.206 83.846 -36.016 Q77.053 -39.826 72.125 -46.725 L68.202 -27.384 L78.697 -17.292 V13.28 Q81.625 13.227 83.385 12.811 Q85.144 12.395 87.095 11.376 Q87.635 11.078 88.126 10.881 Q88.618 10.684 89.014 10.684 Q90.23 10.684 90.997 11.504 Q91.764 12.325 91.764 13.378 Q91.764 14.179 91.322 14.845 Q90.88 15.51 89.984 16.039 Q87.481 17.429 84.844 18.083 Q82.207 18.736 79 18.736 H61.019 V13.28 H71.702 V-11.042 L58.981 -23.177 L54.846 -5.658 L36.221 7.304 L37.529 9.063 Q38.798 10.804 40.298 11.792 Q41.798 12.78 43.62 13.482 Q44.452 13.861 44.95 14.527 Q45.447 15.193 45.447 16.092 Q45.447 17.238 44.612 18.011 Q43.776 18.784 42.704 18.784 Z M72.747 -68.196 Q69 -68.196 66.361 -70.839 Q63.721 -73.481 63.721 -77.228 Q63.721 -80.975 66.364 -83.615 Q69.006 -86.254 72.753 -86.254 Q76.5 -86.254 79.139 -83.612 Q81.779 -80.969 81.779 -77.222 Q81.779 -73.475 79.136 -70.836 Q76.494 -68.196 72.747 -68.196 Z"/></g><g id="Thin-M" transform="matrix(1 0 0 1 802.565 1126)"><path d="M42.971 18.111 Q40.986 18.111 38.611 16.556 Q36.236 15.001 33.553 11.515 L22.635 -2.427 L25.798 -4.927 L32.125 3.121 L48.865 -8.711 L57.966 -55.143 L42.827 -48.879 V-32.946 H38.212 V-51.968 L56.817 -59.677 Q60.487 -61.172 62.179 -61.704 Q63.871 -62.235 65.25 -62.235 Q67.188 -62.235 68.784 -61.259 Q70.38 -60.283 71.481 -58.576 L76.385 -50.764 Q79.656 -45.502 85.114 -41.972 Q90.572 -38.441 97.365 -37.754 V-33.139 Q89.654 -33.744 83.005 -37.927 Q76.356 -42.11 71.5 -49.97 L66.904 -26.975 L77.519 -16.667 V13.977 Q81.312 13.996 83.144 13.664 Q84.976 13.333 87.377 12.169 Q88.019 11.823 88.565 11.554 Q89.111 11.284 89.466 11.284 Q90.273 11.284 90.839 11.864 Q91.404 12.443 91.404 13.237 Q91.404 13.962 90.925 14.544 Q90.447 15.126 89.592 15.559 Q87.024 16.9 84.531 17.458 Q82.038 18.015 78.688 18.015 H61.788 V13.977 H72.904 V-11.355 L58.212 -25.437 L54.005 -6.523 L35.067 6.775 L37.12 9.544 Q38.534 11.525 40.034 12.501 Q41.534 13.477 43.428 14.131 Q44.091 14.39 44.493 14.972 Q44.894 15.554 44.894 16.164 Q44.894 16.956 44.286 17.533 Q43.678 18.111 42.971 18.111 Z M72.744 -69.038 Q69.312 -69.038 66.877 -71.479 Q64.442 -73.92 64.442 -77.351 Q64.442 -80.783 66.883 -83.218 Q69.324 -85.653 72.756 -85.653 Q76.188 -85.653 78.623 -83.212 Q81.058 -80.771 81.058 -77.339 Q81.058 -73.908 78.617 -71.473 Q76.176 -69.038 72.744 -69.038 Z"/></g><g id="Ultralight-M" transform="matrix(1 0 0 1 506.415 1126)"><path d="M43.131 17.708 Q41.188 17.708 39 16.333 Q36.812 14.958 34 11.27 L23.312 -2.355 L25.812 -4.292 L32.312 3.958 L49.5 -8.292 L58.875 -56.355 L42.062 -49.355 V-33.667 H38.875 V-51.534 L57.062 -59.042 Q60.652 -60.48 62.289 -61.011 Q63.927 -61.542 65.25 -61.542 Q67 -61.542 68.438 -60.667 Q69.875 -59.792 70.875 -58.23 L75.75 -50.417 Q79.028 -45.115 84.483 -41.547 Q89.938 -37.98 96.688 -37.105 V-33.917 Q89.062 -34.667 82.5 -39.074 Q75.938 -43.48 71.125 -51.917 L66.125 -26.73 L76.812 -16.292 V14.395 Q81.125 14.458 83 14.176 Q84.875 13.895 87.547 12.645 Q88.25 12.27 88.828 11.958 Q89.406 11.645 89.737 11.645 Q90.299 11.645 90.743 12.079 Q91.188 12.513 91.188 13.152 Q91.188 13.833 90.688 14.364 Q90.188 14.895 89.357 15.27 Q86.75 16.583 84.344 17.083 Q81.938 17.583 78.5 17.583 H62.25 V14.395 H73.625 V-11.542 L57.75 -26.792 L53.5 -7.042 L34.375 6.458 L36.875 9.833 Q38.375 11.958 39.875 12.926 Q41.375 13.895 43.312 14.52 Q43.875 14.708 44.219 15.239 Q44.562 15.77 44.562 16.208 Q44.562 16.786 44.09 17.247 Q43.619 17.708 43.131 17.708 Z M72.742 -69.542 Q69.5 -69.542 67.188 -71.863 Q64.875 -74.183 64.875 -77.425 Q64.875 -80.667 67.195 -82.98 Q69.516 -85.292 72.758 -85.292 Q76 -85.292 78.312 -82.972 Q80.625 -80.652 80.625 -77.41 Q80.625 -74.167 78.305 -71.855 Q75.984 -69.542 72.742 -69.542 Z"/></g><g id="Bold-S" transform="matrix(1 0 0 1 2294.23 696)"><path d="M38.217 3.875 Q37.132 3.875 34.371 2.716 Q31.609 1.557 29.1 -1.632 L19.824 -13.582 L25.445 -18.02 L29.785 -12.596 L37.477 -18.069 L42.359 -42.331 L36.59 -39.619 V-29.263 H26.925 V-46.325 L46.65 -54.314 Q47.488 -54.56 48.562 -54.832 Q49.637 -55.103 50.693 -55.103 Q54.226 -55.103 56.653 -53.335 Q59.079 -51.567 60.753 -48.742 L62.134 -46.818 Q63.909 -43.86 66.794 -41.369 Q69.679 -38.879 77.223 -38.83 V-29.263 Q71.306 -29.362 66.572 -31.433 Q61.838 -33.504 58.287 -37.4 L56.611 -28.474 L63.219 -21.768 V-3.621 Q64.451 -3.719 65.339 -4.163 Q66.227 -4.607 66.917 -5.1 Q67.262 -5.396 67.78 -5.544 Q68.298 -5.692 68.84 -5.692 Q70.517 -5.692 71.503 -4.607 Q72.489 -3.522 72.489 -2.141 Q72.489 -1.352 72.12 -0.588 Q71.75 0.176 70.911 0.867 Q68.988 2.395 66.653 3.135 Q64.318 3.875 61.789 3.875 H46.354 V-3.325 H53.652 V-17.971 L48.228 -23.346 L47.093 -13.089 L35.801 -5.1 L35.752 -5.199 Q36.377 -4.508 37.297 -4.064 Q38.217 -3.621 39.401 -3.128 Q40.584 -2.93 41.201 -1.969 Q41.817 -1.007 41.817 0.275 Q41.817 1.783 40.796 2.829 Q39.774 3.875 38.217 3.875 Z M58.472 -57.716 Q54.464 -57.716 51.691 -60.552 Q48.918 -63.387 48.918 -67.395 Q48.918 -71.402 51.691 -74.175 Q54.464 -76.948 58.472 -76.948 Q62.479 -76.948 65.314 -74.175 Q68.15 -71.402 68.15 -67.395 Q68.15 -63.387 65.314 -60.552 Q62.479 -57.716 58.472 -57.716 Z"/></g><g id="Semibold-S" transform="matrix(1 0 0 1 1998.1 696)"><path d="M38.089 3.232 Q37.175 3.232 34.564 2.159 Q31.952 1.086 29.505 -2.025 L20.595 -13.496 L25.231 -17.119 L29.527 -11.695 L37.949 -17.683 L43.088 -43.274 L36.247 -40.176 V-29.906 H27.911 V-45.896 L46.778 -53.671 Q47.617 -53.96 48.631 -54.21 Q49.646 -54.46 50.65 -54.46 Q53.998 -54.46 56.27 -52.774 Q58.542 -51.089 60.11 -48.399 L61.405 -46.518 Q63.223 -43.431 66.129 -40.833 Q69.035 -38.236 76.452 -38.187 V-29.906 Q70.663 -30.005 65.95 -32.269 Q61.238 -34.533 57.773 -38.729 L55.753 -28.303 L62.447 -21.553 V-2.849 Q63.937 -2.905 65.06 -3.37 Q66.184 -3.835 67.089 -4.5 Q67.391 -4.753 67.834 -4.901 Q68.276 -5.049 68.733 -5.049 Q70.11 -5.049 70.914 -4.157 Q71.718 -3.265 71.718 -2.12 Q71.718 -1.502 71.412 -0.877 Q71.107 -0.252 70.44 0.309 Q68.602 1.752 66.35 2.492 Q64.097 3.232 61.66 3.232 H46.868 V-2.682 H54.167 V-18.271 L47.756 -24.632 L46.193 -13.303 L34.686 -5.229 L34.723 -5.199 Q35.505 -4.251 36.625 -3.636 Q37.746 -3.02 39.015 -2.527 Q39.984 -2.373 40.515 -1.551 Q41.045 -0.728 41.045 0.275 Q41.045 1.513 40.211 2.372 Q39.376 3.232 38.089 3.232 Z M57.834 -57.073 Q54.09 -57.073 51.504 -59.694 Q48.918 -62.315 48.918 -66.06 Q48.918 -69.804 51.504 -72.39 Q54.09 -74.976 57.834 -74.976 Q61.578 -74.976 64.2 -72.39 Q66.821 -69.804 66.821 -66.06 Q66.821 -62.315 64.2 -59.694 Q61.578 -57.073 57.834 -57.073 Z"/></g><g id="Medium-S" transform="matrix(1 0 0 1 1701.85 696)"><path d="M37.992 2.749 Q37.207 2.749 34.709 1.74 Q32.21 0.732 29.809 -2.32 L21.174 -13.432 L25.07 -16.444 L29.335 -11.02 L38.303 -17.394 L43.635 -43.982 L35.99 -40.594 V-30.389 H28.651 V-45.575 L46.875 -53.188 Q47.713 -53.51 48.683 -53.744 Q49.653 -53.977 50.618 -53.977 Q53.827 -53.977 55.983 -52.354 Q58.139 -50.73 59.627 -48.141 L60.858 -46.293 Q62.708 -43.109 65.631 -40.431 Q68.553 -37.754 75.873 -37.704 V-30.389 Q70.18 -30.487 65.484 -32.896 Q60.787 -35.305 57.387 -39.726 L55.11 -28.174 L61.868 -21.393 V-2.27 Q63.551 -2.294 64.851 -2.775 Q66.152 -3.256 67.217 -4.05 Q67.487 -4.27 67.874 -4.418 Q68.26 -4.566 68.653 -4.566 Q69.804 -4.566 70.471 -3.819 Q71.139 -3.072 71.139 -2.104 Q71.139 -1.615 70.881 -1.095 Q70.624 -0.574 70.086 -0.109 Q68.313 1.27 66.122 2.01 Q63.932 2.749 61.563 2.749 H47.254 V-2.199 H54.552 V-18.496 L47.402 -25.597 L45.518 -13.464 L33.85 -5.325 L33.951 -5.199 Q34.851 -4.058 36.121 -3.314 Q37.392 -2.57 38.725 -2.077 Q39.534 -1.955 40 -1.237 Q40.466 -0.519 40.466 0.275 Q40.466 1.311 39.772 2.03 Q39.077 2.749 37.992 2.749 Z M57.356 -56.591 Q53.809 -56.591 51.363 -59.051 Q48.918 -61.511 48.918 -65.059 Q48.918 -68.606 51.363 -71.051 Q53.809 -73.496 57.356 -73.496 Q60.903 -73.496 63.363 -71.051 Q65.824 -68.606 65.824 -65.059 Q65.824 -61.511 63.363 -59.051 Q60.903 -56.591 57.356 -56.591 Z"/></g><g id="Regular-S" transform="matrix(1 0 0 1 1405.73 696)"><path d="M37.921 2.395 Q37.231 2.395 34.815 1.434 Q32.398 0.472 30.031 -2.536 L21.599 -13.385 L24.952 -15.949 L29.193 -10.524 L38.562 -17.182 L44.036 -44.501 L35.801 -40.901 V-30.743 H29.193 V-45.339 L46.946 -52.835 Q47.784 -53.18 48.721 -53.402 Q49.658 -53.624 50.595 -53.624 Q53.701 -53.624 55.772 -52.046 Q57.844 -50.468 59.274 -47.953 L60.457 -46.128 Q62.331 -42.873 65.265 -40.137 Q68.199 -37.4 75.448 -37.35 V-30.743 Q69.827 -30.841 65.142 -33.356 Q60.457 -35.871 57.104 -40.457 L54.638 -28.08 L61.443 -21.275 V-1.845 Q63.268 -1.845 64.698 -2.339 Q66.128 -2.832 67.312 -3.719 Q67.558 -3.917 67.903 -4.064 Q68.249 -4.212 68.594 -4.212 Q69.58 -4.212 70.147 -3.571 Q70.714 -2.93 70.714 -2.092 Q70.714 -1.697 70.492 -1.254 Q70.27 -0.81 69.827 -0.415 Q68.101 0.916 65.955 1.656 Q63.81 2.395 61.493 2.395 H47.537 V-1.845 H54.836 V-18.661 L47.143 -26.304 L45.022 -13.582 L33.237 -5.396 L33.385 -5.199 Q34.371 -3.917 35.752 -3.078 Q37.132 -2.24 38.513 -1.747 Q39.203 -1.648 39.623 -1.007 Q40.042 -0.366 40.042 0.275 Q40.042 1.163 39.45 1.779 Q38.858 2.395 37.921 2.395 Z M57.005 -56.237 Q53.603 -56.237 51.26 -58.579 Q48.918 -60.922 48.918 -64.324 Q48.918 -67.727 51.26 -70.069 Q53.603 -72.412 57.005 -72.412 Q60.408 -72.412 62.75 -70.069 Q65.093 -67.727 65.093 -64.324 Q65.093 -60.922 62.75 -58.579 Q60.408 -56.237 57.005 -56.237 Z"/></g><g id="Light-S" transform="matrix(1 0 0 1 1109.75 696)"><path d="M38.132 1.864 Q37.497 1.864 35.327 1.14 Q33.157 0.415 30.619 -2.858 L22.49 -13.29 L24.971 -15.114 L29.44 -9.424 L39.397 -16.632 L45.231 -46.094 L34.796 -41.527 V-31.691 H30.066 V-44.767 L47.268 -52 Q48.001 -52.269 48.865 -52.491 Q49.73 -52.713 50.595 -52.713 Q53.455 -52.713 55.317 -51.268 Q57.18 -49.823 58.477 -47.497 L59.623 -45.673 Q61.505 -42.364 64.435 -39.578 Q67.365 -36.793 74.557 -36.497 V-31.767 Q69.049 -32.055 64.478 -34.864 Q59.907 -37.673 56.611 -43.018 L53.614 -27.757 L60.514 -20.781 V-1.295 Q63.021 -1.238 64.508 -1.665 Q65.995 -2.092 67.534 -3.093 Q67.862 -3.329 68.249 -3.533 Q68.637 -3.738 68.95 -3.738 Q69.614 -3.738 70.022 -3.288 Q70.43 -2.838 70.43 -2.204 Q70.43 -1.868 70.179 -1.491 Q69.929 -1.113 69.518 -0.795 Q67.74 0.499 65.709 1.163 Q63.678 1.826 61.246 1.826 H48.144 V-1.295 H55.784 V-18.908 L46.536 -28.087 L44.358 -14.265 L32.326 -5.813 L33.062 -4.819 Q34.162 -3.347 35.543 -2.519 Q36.924 -1.69 38.361 -1.235 Q38.919 -1.231 39.262 -0.656 Q39.606 -0.082 39.606 0.332 Q39.606 0.94 39.193 1.402 Q38.78 1.864 38.132 1.864 Z M57.003 -56.901 Q53.849 -56.901 51.668 -59.084 Q49.487 -61.268 49.487 -64.422 Q49.487 -67.575 51.671 -69.756 Q53.854 -71.937 57.008 -71.937 Q60.161 -71.937 62.342 -69.754 Q64.523 -67.571 64.523 -64.417 Q64.523 -61.263 62.34 -59.082 Q60.157 -56.901 57.003 -56.901 Z"/></g><g id="Thin-S" transform="matrix(1 0 0 1 814.015 696)"><path d="M38.342 1.333 Q37.762 1.333 35.839 0.846 Q33.916 0.358 31.207 -3.181 L23.382 -13.195 L24.99 -14.28 L29.686 -8.324 L40.231 -16.082 L46.426 -47.687 L33.791 -42.153 V-32.639 H30.938 V-44.196 L47.59 -51.166 Q48.217 -51.359 49.01 -51.581 Q49.803 -51.803 50.595 -51.803 Q53.208 -51.803 54.862 -50.49 Q56.516 -49.178 57.68 -47.042 L58.788 -45.218 Q60.679 -41.855 63.605 -39.021 Q66.53 -36.186 73.665 -35.643 V-32.791 Q68.271 -33.269 63.814 -36.372 Q59.357 -39.475 56.118 -45.578 L52.59 -27.435 L59.585 -20.288 V-0.745 Q62.775 -0.632 64.319 -0.992 Q65.863 -1.352 67.757 -2.468 Q68.165 -2.741 68.596 -3.002 Q69.026 -3.264 69.306 -3.264 Q69.648 -3.264 69.896 -3.004 Q70.145 -2.745 70.145 -2.315 Q70.145 -2.039 69.866 -1.728 Q69.588 -1.417 69.209 -1.174 Q67.38 0.082 65.462 0.67 Q63.545 1.258 61 1.258 H48.751 V-0.745 H56.732 V-19.154 L45.929 -29.87 L43.695 -14.947 L31.416 -6.23 L32.74 -4.44 Q33.954 -2.779 35.334 -1.959 Q36.715 -1.14 38.21 -0.723 Q38.634 -0.814 38.902 -0.305 Q39.169 0.203 39.169 0.389 Q39.169 0.717 38.936 1.025 Q38.703 1.333 38.342 1.333 Z M57.001 -57.565 Q54.096 -57.565 52.076 -59.589 Q50.056 -61.614 50.056 -64.519 Q50.056 -67.423 52.081 -69.443 Q54.105 -71.463 57.01 -71.463 Q59.915 -71.463 61.935 -69.439 Q63.955 -67.414 63.955 -64.509 Q63.955 -61.605 61.93 -59.585 Q59.905 -57.565 57.001 -57.565 Z"/></g><g id="Ultralight-S" transform="matrix(1 0 0 1 517.792 696)"><path d="M38.469 1.015 Q37.921 1.015 36.146 0.67 Q34.371 0.324 31.56 -3.374 L23.917 -13.138 L25.001 -13.779 L29.834 -7.664 L40.732 -15.752 L47.143 -48.643 L33.187 -42.528 V-33.208 H31.461 V-43.853 L47.784 -50.665 Q48.347 -50.813 49.097 -51.035 Q49.846 -51.257 50.595 -51.257 Q53.06 -51.257 54.589 -50.024 Q56.118 -48.791 57.203 -46.769 L58.287 -44.945 Q60.184 -41.55 63.106 -38.686 Q66.029 -35.822 73.13 -35.131 V-33.405 Q67.805 -33.997 63.416 -37.276 Q59.027 -40.556 55.822 -47.114 L51.975 -27.241 L59.027 -19.992 V-0.415 Q62.627 -0.267 64.205 -0.588 Q65.783 -0.908 67.891 -2.092 Q68.347 -2.388 68.803 -2.684 Q69.259 -2.98 69.52 -2.98 Q69.668 -2.98 69.821 -2.834 Q69.974 -2.689 69.974 -2.382 Q69.974 -2.141 69.679 -1.87 Q69.383 -1.599 69.023 -1.402 Q67.164 -0.169 65.314 0.374 Q63.465 0.916 60.852 0.916 H49.115 V-0.415 H57.301 V-19.302 L45.565 -30.94 L43.296 -15.357 L30.87 -6.481 L32.546 -4.212 Q33.828 -2.437 35.209 -1.624 Q36.59 -0.81 38.119 -0.415 Q38.464 -0.563 38.686 -0.095 Q38.908 0.374 38.908 0.423 Q38.908 0.584 38.782 0.799 Q38.656 1.015 38.469 1.015 Z M56.999 -57.963 Q54.244 -57.963 52.321 -59.892 Q50.397 -61.822 50.397 -64.577 Q50.397 -67.332 52.327 -69.256 Q54.256 -71.179 57.011 -71.179 Q59.767 -71.179 61.69 -69.25 Q63.613 -67.32 63.613 -64.565 Q63.613 -61.809 61.684 -59.886 Q59.755 -57.963 56.999 -57.963 Z"/></g></g></svg>