<svg xmlns="http://www.w3.org/2000/svg" version="1.1" width="3300" height="2000"><g id="Notes"><style>
    text {
      font-family: monospace;
      text-anchor: middle;
    }
    text.emphasis {
      font-weight:bold;
    }
    text.lanchor {
      text-anchor: start;
    }
  </style><rect height="2200" id="artboard" fill="white" width="3300" x="0" y="0"/><line id="" style="fill:none;stroke:black;stroke-width:0.5;" x1="263" x2="3036" y1="292" y2="292"/><text class="lanchor emphasis" transform="matrix(1 0 0 1 263 322)">Weight/Scale Variations</text><text transform="matrix(1 0 0 1 559.711 322)">Ultralight</text><text transform="matrix(1 0 0 1 856.422 322)">Thin</text><text transform="matrix(1 0 0 1 1153.13 322)">Light</text><text transform="matrix(1 0 0 1 1449.84 322)">Regular</text><text transform="matrix(1 0 0 1 1746.56 322)">Medium</text><text transform="matrix(1 0 0 1 2043.27 322)">Semibold</text><text transform="matrix(1 0 0 1 2339.98 322)">Bold</text><text transform="matrix(1 0 0 1 2636.69 322)">Heavy</text><text transform="matrix(1 0 0 1 2933.4 322)">Black</text><text id="template-version" style="text-anchor: end;" transform="matrix(1 0 0 1 3036 1933)">Template v.1.0</text><text class="lanchor" transform="matrix(1 0 0 1 263 726)">Small</text><text class="lanchor" transform="matrix(1 0 0 1 263 1156)">Medium</text><text class="lanchor" transform="matrix(1 0 0 1 263 1586)">Large</text></g><g id="Guides"><g id="H-reference" style="fill:#27AAE1;stroke:none;" transform="matrix(1 0 0 1 339 696)"><path d="M 54.9316 0 L 57.666 0 L 30.5664 -70.459 L 28.0762 -70.459 L 0.976562 0 L 3.66211 0 L 12.9395 -24.4629 L 45.7031 -24.4629 Z M 29.1992 -67.0898 L 29.4434 -67.0898 L 44.8242 -26.709 L 13.8184 -26.709 Z"/></g><line id="Baseline-S" style="fill:none;stroke:#27AAE1;opacity:1;stroke-width:0.577;" x1="263" x2="3036" y1="696" y2="696"/><line id="Capline-S" style="fill:none;stroke:#27AAE1;opacity:1;stroke-width:0.577;" x1="263" x2="3036" y1="625.541" y2="625.541"/><g id="H-reference" style="fill:#27AAE1;stroke:none;" transform="matrix(1 0 0 1 339 1126)"><path d="M 54.9316 0 L 57.666 0 L 30.5664 -70.459 L 28.0762 -70.459 L 0.976562 0 L 3.66211 0 L 12.9395 -24.4629 L 45.7031 -24.4629 Z M 29.1992 -67.0898 L 29.4434 -67.0898 L 44.8242 -26.709 L 13.8184 -26.709 Z"/></g><line id="Baseline-M" style="fill:none;stroke:#27AAE1;opacity:1;stroke-width:0.577;" x1="263" x2="3036" y1="1126" y2="1126"/><line id="Capline-M" style="fill:none;stroke:#27AAE1;opacity:1;stroke-width:0.577;" x1="263" x2="3036" y1="1055.54" y2="1055.54"/><g id="H-reference" style="fill:#27AAE1;stroke:none;" transform="matrix(1 0 0 1 339 1556)"><path d="M 54.9316 0 L 57.666 0 L 30.5664 -70.459 L 28.0762 -70.459 L 0.976562 0 L 3.66211 0 L 12.9395 -24.4629 L 45.7031 -24.4629 Z M 29.1992 -67.0898 L 29.4434 -67.0898 L 44.8242 -26.709 L 13.8184 -26.709 Z"/></g><line id="Baseline-L" style="fill:none;stroke:#27AAE1;opacity:1;stroke-width:0.577;" x1="263" x2="3036" y1="1556" y2="1556"/><line id="Capline-L" style="fill:none;stroke:#27AAE1;opacity:1;stroke-width:0.577;" x1="263" x2="3036" y1="1485.54" y2="1485.54"/><rect height="119.336" id="left-margin" style="fill:darkred;stroke:none;opacity:0.4;" width="12.4512" x="1394.06" y="1030.79"/><rect height="119.336" id="right-margin" style="fill:darkgreen;stroke:none;opacity:0.4;" width="12.4512" x="1502.5112" y="1030.79"/><rect x="1406.5112" y="1045" width="96" height="96" fill="none" stroke="blue" stroke-dasharray="5"/><rect x="1394.06" y="1030.79" width="120.9024" height="119.336" fill="none" stroke="blue"/></g><g id="Symbols"><g id="Bold-L" transform="matrix(1 0 0 1 2266 1556)"><path d="M39.99 -19.328  44.22 18.144 Q44.22 18.144 44.22 18.144 Q44.22 18.144 44.22 18.144 H110.7 Q110.7 18.144 110.7 18.144 Q110.7 18.144 110.7 18.144 L115.455 -22.33 H111.424 Q105.901 -22.33 100.681 -23.297 Q95.46 -24.265 87.236 -26.45 Q83.205 -27.457 79.335 -28.118 Q75.465 -28.78 71.383 -28.78 Q63.694 -28.78 55.551 -26.361 Q47.407 -23.942 39.99 -19.328 Z M38.055 -35.552 Q45.795 -39.422 54.394 -41.68 Q62.993 -43.937 71.354 -43.937 Q76.594 -43.937 81.593 -43.212 Q86.591 -42.486 91.267 -41.196 Q99.512 -38.777 103.852 -38.052 Q108.193 -37.326 113.036 -37.326 H117.068 L122.55 -88.604 H32.25 L38.055 -35.552 Z M44.183 33.301 Q38.456 33.301 34.008 29.443 Q29.559 25.584 29.025 19.918 L15.319 -103.922 H139.643 L125.936 19.918 Q125.241 25.584 120.912 29.443 Q116.584 33.301 110.779 33.301 H44.183 Z M44.183 18.144 Q48.64 18.144 56.167 18.224 Q63.694 18.305 71.383 18.305 Q75.465 18.305 79.335 18.305 Q83.205 18.305 87.236 18.305 Q95.46 18.305 100.62 18.224 Q105.78 18.144 110.779 18.144 Q110.779 18.144 110.779 18.144 Q110.779 18.144 110.779 18.144 H44.183 Q44.183 18.144 44.183 18.144 Q44.183 18.144 44.183 18.144 Z"/></g><g id="Semibold-L" transform="matrix(1 0 0 1 1970.27 1556)"><path d="M39.079 -19.792  43.379 18.775 Q43.379 18.775 43.379 18.775 Q43.379 18.775 43.379 18.775 H111.505 Q111.505 18.775 111.505 18.775 Q111.505 18.775 111.505 18.775 L116.296 -23.031 H111.844 Q106.112 -23.031 100.996 -23.963 Q95.881 -24.896 87.447 -27.183 Q83.415 -28.242 79.51 -28.862 Q75.605 -29.481 71.475 -29.481 Q63.203 -29.481 54.85 -26.992 Q46.496 -24.503 39.079 -19.792 Z M37.424 -33.519 Q45.164 -37.6 53.986 -39.927 Q62.807 -42.255 71.459 -42.255 Q76.524 -42.255 81.417 -41.564 Q86.311 -40.874 90.847 -39.584 Q99.091 -37.235 103.444 -36.475 Q107.797 -35.714 112.686 -35.714 H117.628 L123.461 -89.235 H31.339 L37.424 -33.519 Z M43.341 31.549 Q38.492 31.549 34.762 28.321 Q31.031 25.093 30.567 20.268 L17.071 -102.1 H137.82 L124.324 20.268 Q123.769 25.093 120.106 28.321 Q116.443 31.549 111.55 31.549 H43.341 Z M43.341 18.775 Q47.659 18.775 55.431 18.82 Q63.203 18.866 71.475 18.866 Q75.605 18.866 79.51 18.866 Q83.415 18.866 87.447 18.866 Q95.881 18.866 101.006 18.82 Q106.131 18.775 111.55 18.775 Q111.55 18.775 111.55 18.775 Q111.55 18.775 111.55 18.775 H43.341 Q43.341 18.775 43.341 18.775 Q43.341 18.775 43.341 18.775 Z"/></g><g id="Medium-L" transform="matrix(1 0 0 1 1674.31 1556)"><path d="M38.395 -20.14  42.748 19.248 Q42.748 19.248 42.748 19.248 Q42.748 19.248 42.748 19.248 H112.11 Q112.11 19.248 112.11 19.248 Q112.11 19.248 112.11 19.248 L116.927 -23.557 H112.16 Q106.269 -23.557 101.233 -24.463 Q96.196 -25.369 87.604 -27.732 Q83.573 -28.832 79.642 -29.419 Q75.71 -30.007 71.544 -30.007 Q62.835 -30.007 54.324 -27.465 Q45.813 -24.924 38.395 -20.14 Z M36.951 -31.995 Q44.691 -36.233 53.679 -38.613 Q62.667 -40.993 71.537 -40.993 Q76.471 -40.993 81.286 -40.329 Q86.101 -39.664 90.531 -38.374 Q98.776 -36.078 103.138 -35.291 Q107.501 -34.504 112.423 -34.504 H118.049 L124.145 -89.708 H30.655 L36.951 -31.995 Z M42.71 30.234 Q38.519 30.234 35.327 27.48 Q32.136 24.725 31.724 20.531 L18.386 -100.733 H136.453 L123.114 20.531 Q122.664 24.725 119.501 27.48 Q116.338 30.234 112.128 30.234 H42.71 Z M42.71 19.248 Q46.923 19.248 54.879 19.267 Q62.835 19.287 71.544 19.287 Q75.71 19.287 79.642 19.287 Q83.573 19.287 87.604 19.287 Q96.196 19.287 101.295 19.267 Q106.393 19.248 112.128 19.248 Q112.128 19.248 112.128 19.248 Q112.128 19.248 112.128 19.248 H42.71 Q42.71 19.248 42.71 19.248 Q42.71 19.248 42.71 19.248 Z"/></g><g id="Regular-L" transform="matrix(1 0 0 1 1378.56 1556)"><path d="M37.894 -20.395  42.285 19.595 Q42.285 19.595 42.285 19.595 Q42.285 19.595 42.285 19.595 H112.553 Q112.553 19.595 112.553 19.595 Q112.553 19.595 112.553 19.595 L117.39 -23.942 H112.391 Q106.385 -23.942 101.406 -24.829 Q96.428 -25.716 87.72 -28.135 Q83.689 -29.264 79.738 -29.828 Q75.788 -30.392 71.595 -30.392 Q62.565 -30.392 53.938 -27.812 Q45.311 -25.232 37.894 -20.395 Z M36.604 -30.876 Q44.344 -35.23 53.454 -37.649 Q62.565 -40.067 71.595 -40.067 Q76.433 -40.067 81.189 -39.422 Q85.946 -38.777 90.3 -37.487 Q98.544 -35.23 102.914 -34.424 Q107.283 -33.617 112.23 -33.617 H118.358 L124.646 -90.055 H30.154 L36.604 -30.876 Z M42.248 29.27 Q38.539 29.27 35.742 26.863 Q32.945 24.455 32.572 20.724 L19.35 -99.73 H135.45 L122.228 20.724 Q121.855 24.455 119.058 26.863 Q116.261 29.27 112.553 29.27 H42.248 Z"/></g><g id="Light-L" transform="matrix(1 0 0 1 1082.77 1556)"><path d="M38.266 -22.194  42.658 16.99 Q42.72 17.734 43.278 18.231 Q43.836 18.727 44.642 18.727 H110.258 Q111.064 18.727 111.591 18.231 Q112.118 17.734 112.242 16.99 L116.956 -25.121 H112.701 Q106.757 -25.121 101.778 -26.008 Q96.8 -26.895 88.216 -29.313 Q84.061 -30.442 79.924 -31.007 Q75.788 -31.571 71.471 -31.571 Q62.565 -31.571 54.093 -29.177 Q45.621 -26.783 38.266 -22.194 Z M37.286 -30.07 Q44.964 -34.3 53.796 -36.594 Q62.627 -38.889 71.533 -38.889 Q76.308 -38.889 81.034 -38.244 Q85.76 -37.599 90.114 -36.371 Q98.544 -34.052 103.007 -33.245 Q107.469 -32.439 112.54 -32.439 H117.675 L124.026 -89.187 H30.712 L37.286 -30.07 Z M44.604 26.045 Q40.958 26.045 38.316 23.73 Q35.674 21.416 35.301 17.809 L22.575 -96.505 H132.225 L119.56 17.809 Q119.188 21.416 116.546 23.73 Q113.904 26.045 110.258 26.045 H44.604 Z"/></g><g id="Thin-L" transform="matrix(1 0 0 1 787.282 1556)"><path d="M38.638 -23.992  43.03 14.385 Q43.154 15.874 44.27 16.866 Q45.386 17.858 46.999 17.858 H107.963 Q109.576 17.858 110.63 16.866 Q111.684 15.874 111.932 14.385 L116.522 -26.299 H113.011 Q107.129 -26.299 102.151 -27.186 Q97.172 -28.073 88.712 -30.492 Q84.433 -31.62 80.11 -32.185 Q75.788 -32.749 71.347 -32.749 Q62.565 -32.749 54.248 -30.541 Q45.931 -28.333 38.638 -23.992 Z M37.968 -29.264 Q45.584 -33.369 54.137 -35.54 Q62.689 -37.711 71.471 -37.711 Q76.184 -37.711 80.879 -37.066 Q85.574 -36.421 89.928 -35.255 Q98.544 -32.873 103.1 -32.067 Q107.655 -31.261 112.85 -31.261 H116.993 L123.406 -88.318 H31.27 L37.968 -29.264 Z M46.961 22.82 Q43.376 22.82 40.89 20.599 Q38.403 18.377 38.03 14.894 L25.8 -93.28 H129 L116.894 14.894 Q116.521 18.377 114.034 20.599 Q111.548 22.82 107.963 22.82 H46.961 Z"/></g><g id="Ultralight-L" transform="matrix(1 0 0 1 491.205 1556)"><path d="M38.861 -25.071  43.253 12.823 Q43.414 14.758 44.865 16.048 Q46.317 17.338 48.413 17.338 H106.586 Q108.683 17.338 110.053 16.048 Q111.424 14.758 111.746 12.823 L116.261 -27.006 H113.198 Q107.353 -27.006 102.374 -27.893 Q97.395 -28.78 89.01 -31.199 Q84.656 -32.327 80.222 -32.892 Q75.788 -33.456 71.273 -33.456 Q62.565 -33.456 54.341 -31.36 Q46.117 -29.264 38.861 -25.071 Z M38.377 -28.78 Q45.956 -32.811 54.341 -34.907 Q62.726 -37.004 71.434 -37.004 Q76.11 -37.004 80.786 -36.359 Q85.463 -35.714 89.816 -34.585 Q98.544 -32.166 103.156 -31.36 Q107.767 -30.554 113.036 -30.554 H116.584 L123.034 -87.797 H31.605 L38.377 -28.78 Z M48.375 20.885 Q44.828 20.885 42.434 18.719 Q40.04 16.554 39.668 13.145 L27.735 -91.345 H127.065 L115.294 13.145 Q114.921 16.554 112.527 18.719 Q110.134 20.885 106.586 20.885 H48.375 Z"/></g><g id="Bold-M" transform="matrix(1 0 0 1 2281.8 1126)"><path d="M34 -22.605  37 3.27 Q37 3.27 37 3.27 Q37 3.27 37 3.27 H83.125 Q83.125 3.27 83.125 3.27 Q83.125 3.27 83.125 3.27 L86.25 -23.48 H86.125 Q81.875 -23.605 77.75 -24.417 Q73.625 -25.23 67.25 -26.98 Q64.375 -27.73 61.312 -28.167 Q58.25 -28.605 55.375 -28.605 Q50.375 -28.605 44.938 -27.105 Q39.5 -25.605 34 -22.605 Z M32.125 -39.23 Q38 -41.73 43.812 -42.98 Q49.625 -44.23 55.5 -44.23 Q59.5 -44.23 63.5 -43.667 Q67.5 -43.105 71.375 -41.98 Q77.625 -40.23 80.875 -39.605 Q84.125 -38.98 87.75 -38.98 H88 L91.625 -73.73 H28.375 L32.125 -39.23 Z M36.875 19.02 Q30.875 19.02 26.375 15.02 Q21.875 11.02 21.25 5.02 L10.75 -89.48 H109.25 L98.875 5.02 Q98.25 11.02 93.75 15.02 Q89.25 19.02 83.25 19.02 H36.875 Z M37 3.27 Q40.25 3.27 45.312 3.333 Q50.375 3.395 55.375 3.395 Q58.25 3.395 61.312 3.395 Q64.375 3.395 67.25 3.395 Q73.625 3.395 77.312 3.333 Q81 3.27 83.125 3.27 Q83.125 3.27 83.125 3.27 Q83.125 3.27 83.125 3.27 H37 Q37 3.27 37 3.27 Q37 3.27 37 3.27 Z"/></g><g id="Semibold-M" transform="matrix(1 0 0 1 1985.97 1126)"><path d="M33.076 -23.094  36.13 3.922 Q36.13 3.922 36.13 3.922 Q36.13 3.922 36.13 3.922 H83.94 Q83.94 3.922 83.94 3.922 Q83.94 3.922 83.94 3.922 L87.12 -24.241 H86.56 Q82.092 -24.311 78.049 -25.07 Q74.005 -25.828 67.467 -27.686 Q64.592 -28.491 61.503 -28.901 Q58.413 -29.311 55.429 -29.311 Q49.831 -29.311 44.177 -27.757 Q38.522 -26.203 33.076 -23.094 Z M31.473 -37.165 Q37.348 -39.828 43.378 -41.159 Q49.408 -42.491 55.554 -42.491 Q59.446 -42.491 63.31 -41.956 Q67.174 -41.42 70.94 -40.35 Q77.19 -38.6 80.467 -37.975 Q83.745 -37.35 87.424 -37.35 H88.598 L92.549 -74.382 H27.451 L31.473 -37.165 Z M36.005 17.172 Q30.929 17.172 27.163 13.824 Q23.397 10.477 22.88 5.4 L12.598 -87.632 H107.402 L97.19 5.4 Q96.674 10.477 92.908 13.824 Q89.141 17.172 84.065 17.172 H36.005 Z M36.13 3.922 Q39.218 3.922 44.525 3.958 Q49.831 3.993 55.429 3.993 Q58.413 3.993 61.503 3.993 Q64.592 3.993 67.467 3.993 Q74.005 3.993 77.693 3.958 Q81.38 3.922 83.94 3.922 Q83.94 3.922 83.94 3.922 Q83.94 3.922 83.94 3.922 H36.13 Q36.13 3.922 36.13 3.922 Q36.13 3.922 36.13 3.922 Z"/></g><g id="Medium-M" transform="matrix(1 0 0 1 1689.91 1126)"><path d="M32.383 -23.461  35.478 4.411 Q35.478 4.411 35.478 4.411 Q35.478 4.411 35.478 4.411 H84.552 Q84.552 4.411 84.552 4.411 Q84.552 4.411 84.552 4.411 L87.772 -24.811 H86.886 Q82.255 -24.841 78.273 -25.559 Q74.291 -26.276 67.63 -28.216 Q64.755 -29.061 61.645 -29.451 Q58.535 -29.841 55.47 -29.841 Q49.424 -29.841 43.606 -28.246 Q37.788 -26.651 32.383 -23.461 Z M30.984 -35.616 Q36.859 -38.401 43.052 -39.794 Q49.245 -41.186 55.595 -41.186 Q59.405 -41.186 63.167 -40.672 Q66.929 -40.157 70.614 -39.127 Q76.864 -37.377 80.162 -36.752 Q83.459 -36.127 87.179 -36.127 H89.046 L93.242 -74.871 H26.758 L30.984 -35.616 Z M35.353 15.786 Q30.97 15.786 27.754 12.928 Q24.538 10.069 24.103 5.686 L13.984 -86.246 H106.016 L95.927 5.686 Q95.492 10.069 92.276 12.928 Q89.06 15.786 84.677 15.786 H35.353 Z M35.478 4.411 Q38.443 4.411 43.933 4.426 Q49.424 4.441 55.47 4.441 Q58.535 4.441 61.645 4.441 Q64.755 4.441 67.63 4.441 Q74.291 4.441 77.978 4.426 Q81.666 4.411 84.552 4.411 Q84.552 4.411 84.552 4.411 Q84.552 4.411 84.552 4.411 H35.478 Q35.478 4.411 35.478 4.411 Q35.478 4.411 35.478 4.411 Z"/></g><g id="Regular-M" transform="matrix(1 0 0 1 1394.06 1126)"><path d="M31.875 -23.73  35 4.77 Q35 4.77 35 4.77 Q35 4.77 35 4.77 H85 Q85 4.77 85 4.77 Q85 4.77 85 4.77 L88.25 -25.23 H87.125 Q82.375 -25.23 78.438 -25.917 Q74.5 -26.605 67.75 -28.605 Q64.875 -29.48 61.75 -29.855 Q58.625 -30.23 55.5 -30.23 Q49.125 -30.23 43.188 -28.605 Q37.25 -26.98 31.875 -23.73 Z M30.625 -34.48 Q36.5 -37.355 42.812 -38.792 Q49.125 -40.23 55.625 -40.23 Q59.375 -40.23 63.062 -39.73 Q66.75 -39.23 70.375 -38.23 Q76.625 -36.48 79.938 -35.855 Q83.25 -35.23 87 -35.23 H89.375 L93.75 -75.23 H26.25 L30.625 -34.48 Z M34.875 14.77 Q31 14.77 28.188 12.27 Q25.375 9.77 25 5.895 L15 -85.23 H105 L95 5.895 Q94.625 9.77 91.812 12.27 Q89 14.77 85.125 14.77 H34.875 Z"/></g><g id="Light-M" transform="matrix(1 0 0 1 1098.18 1126)"><path d="M31.49 -25.124  34.663 3.424 Q34.76 4.001 35.168 4.385 Q35.577 4.77 36.202 4.77 H83.846 Q84.471 4.77 84.88 4.385 Q85.288 4.001 85.385 3.424 L88.635 -26.48 H87.365 Q82.712 -26.48 78.798 -27.168 Q74.885 -27.855 68.183 -29.807 Q65.163 -30.73 61.918 -31.105 Q58.673 -31.48 55.404 -31.48 Q48.981 -31.48 42.971 -29.903 Q36.962 -28.326 31.49 -25.124 Z M30.529 -33.134 Q36.404 -36.057 42.692 -37.518 Q48.981 -38.98 55.529 -38.98 Q59.231 -38.98 62.894 -38.504 Q66.558 -38.028 70.135 -37.028 Q76.577 -35.23 79.962 -34.605 Q83.346 -33.98 87.24 -33.98 H89.471 L94.038 -75.23 H25.913 L30.529 -33.134 Z M36.125 12.27 Q32.587 12.27 30.039 10.01 Q27.491 7.751 27.164 4.26 L17.5 -82.73 H102.5 L92.885 4.26 Q92.558 7.751 90.01 10.01 Q87.461 12.27 83.923 12.27 H36.125 Z"/></g><g id="Thin-M" transform="matrix(1 0 0 1 802.565 1126)"><path d="M31.106 -26.518  34.327 2.078 Q34.519 3.232 35.337 4.001 Q36.154 4.77 37.404 4.77 H82.692 Q83.942 4.77 84.76 4.001 Q85.577 3.232 85.769 2.078 L89.019 -27.73 H87.606 Q83.048 -27.73 79.159 -28.417 Q75.269 -29.105 68.615 -31.009 Q65.452 -31.98 62.087 -32.355 Q58.721 -32.73 55.308 -32.73 Q48.837 -32.73 42.755 -31.201 Q36.673 -29.672 31.106 -26.518 Z M30.433 -31.788 Q36.308 -34.759 42.572 -36.244 Q48.837 -37.73 55.433 -37.73 Q59.087 -37.73 62.726 -37.278 Q66.365 -36.826 69.894 -35.826 Q76.529 -33.98 79.986 -33.355 Q83.442 -32.73 87.481 -32.73 H89.567 L94.327 -75.23 H25.577 L30.433 -31.788 Z M37.375 9.77 Q34.173 9.77 31.889 7.751 Q29.606 5.732 29.327 2.626 L20 -80.23 H100 L90.769 2.626 Q90.49 5.732 88.207 7.751 Q85.923 9.77 82.721 9.77 H37.375 Z"/></g><g id="Ultralight-M" transform="matrix(1 0 0 1 506.415 1126)"><path d="M30.875 -27.355  34.125 1.27 Q34.375 2.77 35.438 3.77 Q36.5 4.77 38.125 4.77 H82 Q83.625 4.77 84.688 3.77 Q85.75 2.77 86 1.27 L89.25 -28.48 H87.75 Q83.25 -28.48 79.375 -29.167 Q75.5 -29.855 68.875 -31.73 Q65.625 -32.73 62.188 -33.105 Q58.75 -33.48 55.25 -33.48 Q48.75 -33.48 42.625 -31.98 Q36.5 -30.48 30.875 -27.355 Z M30.375 -30.98 Q36.25 -33.98 42.5 -35.48 Q48.75 -36.98 55.375 -36.98 Q59 -36.98 62.625 -36.542 Q66.25 -36.105 69.75 -35.105 Q76.5 -33.23 80 -32.605 Q83.5 -31.98 87.625 -31.98 H89.625 L94.5 -75.23 H25.375 L30.375 -30.98 Z M38.125 8.27 Q35.125 8.27 33 6.395 Q30.875 4.52 30.625 1.645 L21.5 -78.73 H98.5 L89.5 1.645 Q89.25 4.52 87.125 6.395 Q85 8.27 82 8.27 H38.125 Z"/></g><g id="Bold-S" transform="matrix(1 0 0 1 2294.23 696)"><path d="M29.094 -23.198  31.461 -5.642 Q31.461 -5.642 31.461 -5.642 Q31.461 -5.642 31.461 -5.642 H63.317 Q63.317 -5.642 63.317 -5.642 Q63.317 -5.642 63.317 -5.642 L65.882 -24.381 H65.915 Q63.12 -24.48 60.211 -25.121 Q57.301 -25.762 53.455 -26.748 Q51.285 -27.34 49.099 -27.685 Q46.913 -28.03 44.874 -28.03 Q41.205 -28.03 37.171 -26.798 Q33.138 -25.565 29.094 -23.198 Z M27.714 -35.526 Q31.955 -37.498 36.215 -38.534 Q40.476 -39.569 44.776 -39.569 Q47.799 -39.569 50.824 -39.076 Q53.849 -38.583 56.709 -37.696 Q59.767 -36.808 62.43 -36.315 Q65.093 -35.822 67.262 -35.822 L70.714 -64.817 H23.966 L27.714 -35.526 Z M31.489 5.995 Q27.122 5.995 23.818 3.037 Q20.514 0.078 19.922 -4.262 L10.849 -76.455 H83.831 L74.856 -4.262 Q74.265 0.078 70.98 3.037 Q67.696 5.995 63.328 5.995 H31.489 Z M31.461 -5.642 Q33.87 -5.642 37.559 -5.593 Q41.248 -5.544 44.847 -5.544 Q46.946 -5.544 49.115 -5.544 Q51.285 -5.544 53.455 -5.544 Q57.301 -5.544 59.865 -5.593 Q62.43 -5.642 63.317 -5.642 Q63.317 -5.642 63.317 -5.642 Q63.317 -5.642 63.317 -5.642 H31.461 Q31.461 -5.642 31.461 -5.642 Q31.461 -5.642 31.461 -5.642 Z"/></g><g id="Semibold-S" transform="matrix(1 0 0 1 1998.1 696)"><path d="M28.365 -23.584  30.775 -5.128 Q30.775 -5.128 30.775 -5.128 Q30.775 -5.128 30.775 -5.128 H63.96 Q63.96 -5.128 63.96 -5.128 Q63.96 -5.128 63.96 -5.128 L66.568 -24.982 H66.258 Q63.292 -25.037 60.446 -25.635 Q57.601 -26.234 53.626 -27.306 Q51.457 -27.94 49.249 -28.264 Q47.041 -28.588 44.917 -28.588 Q40.776 -28.588 36.571 -27.312 Q32.366 -26.036 28.365 -23.584 Z M27.199 -33.896 Q31.44 -35.998 35.872 -37.098 Q40.304 -38.197 44.819 -38.197 Q47.756 -38.197 50.674 -37.726 Q53.592 -37.254 56.366 -36.409 Q59.424 -35.522 62.108 -35.029 Q64.792 -34.535 67.005 -34.535 H67.734 L71.443 -65.332 H23.237 L27.199 -33.896 Z M30.803 4.537 Q27.165 4.537 24.44 2.093 Q21.715 -0.351 21.209 -3.962 L12.307 -74.997 H82.373 L73.527 -3.962 Q73.021 -0.351 70.315 2.093 Q67.61 4.537 63.971 4.537 H30.803 Z M30.775 -5.128 Q33.055 -5.128 36.937 -5.1 Q40.819 -5.072 44.89 -5.072 Q47.074 -5.072 49.265 -5.072 Q51.457 -5.072 53.626 -5.072 Q57.601 -5.072 60.165 -5.1 Q62.73 -5.128 63.96 -5.128 Q63.96 -5.128 63.96 -5.128 Q63.96 -5.128 63.96 -5.128 H30.775 Q30.775 -5.128 30.775 -5.128 Q30.775 -5.128 30.775 -5.128 Z"/></g><g id="Medium-S" transform="matrix(1 0 0 1 1701.85 696)"><path d="M27.819 -23.873  30.261 -4.742 Q30.261 -4.742 30.261 -4.742 Q30.261 -4.742 30.261 -4.742 H64.443 Q64.443 -4.742 64.443 -4.742 Q64.443 -4.742 64.443 -4.742 L67.082 -25.432 H66.515 Q63.42 -25.455 60.623 -26.021 Q57.826 -26.587 53.755 -27.724 Q51.585 -28.391 49.361 -28.698 Q47.138 -29.006 44.949 -29.006 Q40.455 -29.006 36.121 -27.698 Q31.787 -26.39 27.819 -23.873 Z M26.813 -32.674 Q31.054 -34.872 35.615 -36.02 Q40.175 -37.168 44.851 -37.168 Q47.724 -37.168 50.561 -36.713 Q53.399 -36.257 56.109 -35.444 Q59.166 -34.557 61.867 -34.064 Q64.567 -33.571 66.812 -33.571 H68.088 L71.99 -65.718 H22.69 L26.813 -32.674 Z M30.289 3.444 Q27.197 3.444 24.906 1.386 Q22.615 -0.673 22.173 -3.736 L13.4 -73.904 H81.28 L72.53 -3.736 Q72.088 -0.673 69.817 1.386 Q67.545 3.444 64.454 3.444 H30.289 Z M30.261 -4.742 Q32.444 -4.742 36.471 -4.73 Q40.497 -4.718 44.922 -4.718 Q47.171 -4.718 49.378 -4.718 Q51.585 -4.718 53.755 -4.718 Q57.826 -4.718 60.391 -4.73 Q62.955 -4.742 64.443 -4.742 Q64.443 -4.742 64.443 -4.742 Q64.443 -4.742 64.443 -4.742 H30.261 Q30.261 -4.742 30.261 -4.742 Q30.261 -4.742 30.261 -4.742 Z"/></g><g id="Regular-S" transform="matrix(1 0 0 1 1405.73 696)"><path d="M27.418 -24.085  29.883 -4.459 Q29.883 -4.459 29.883 -4.459 Q29.883 -4.459 29.883 -4.459 H64.797 Q64.797 -4.459 64.797 -4.459 Q64.797 -4.459 64.797 -4.459 L67.46 -25.762 H66.704 Q63.515 -25.762 60.753 -26.304 Q57.992 -26.847 53.849 -28.03 Q51.68 -28.721 49.444 -29.017 Q47.209 -29.312 44.973 -29.312 Q40.219 -29.312 35.791 -27.981 Q31.363 -26.65 27.418 -24.085 Z M26.53 -31.778 Q30.771 -34.046 35.426 -35.23 Q40.081 -36.413 44.874 -36.413 Q47.7 -36.413 50.479 -35.97 Q53.258 -35.526 55.92 -34.737 Q58.978 -33.849 61.69 -33.356 Q64.402 -32.863 66.671 -32.863 H68.347 L72.391 -66.001 H22.289 L26.53 -31.778 Z M29.911 2.642 Q27.221 2.642 25.248 0.867 Q23.276 -0.908 22.881 -3.571 L14.202 -73.102 H80.478 L71.799 -3.571 Q71.404 -0.908 69.451 0.867 Q67.498 2.642 64.807 2.642 H29.911 Z"/></g><g id="Light-S" transform="matrix(1 0 0 1 1109.75 696)"><path d="M27.114 -25.186  29.618 -5.521 Q29.694 -5.066 30.016 -4.762 Q30.339 -4.459 30.832 -4.459 H63.886 Q64.379 -4.459 64.702 -4.762 Q65.024 -5.066 65.1 -5.521 L67.763 -26.748 H66.894 Q63.78 -26.748 61.038 -27.291 Q58.295 -27.833 54.191 -28.979 Q51.907 -29.707 49.577 -30.003 Q47.246 -30.299 44.897 -30.299 Q40.105 -30.299 35.62 -29.005 Q31.135 -27.712 27.114 -25.186 Z M26.454 -30.716 Q30.695 -33.022 35.331 -34.225 Q39.967 -35.427 44.799 -35.427 Q47.586 -35.427 50.346 -35.002 Q53.106 -34.577 55.731 -33.788 Q58.94 -32.863 61.709 -32.37 Q64.478 -31.877 66.86 -31.877 H68.423 L72.618 -66.001 H22.024 L26.454 -30.716 Z M30.898 0.669 Q28.472 0.669 26.709 -0.916 Q24.945 -2.502 24.588 -4.861 L16.175 -71.129 H78.505 L70.13 -4.861 Q69.773 -2.502 68.029 -0.916 Q66.284 0.669 63.859 0.669 H30.898 Z"/></g><g id="Thin-S" transform="matrix(1 0 0 1 814.015 696)"><path d="M26.811 -26.286  29.352 -6.583 Q29.504 -5.673 30.149 -5.066 Q30.794 -4.459 31.78 -4.459 H62.976 Q63.962 -4.459 64.607 -5.066 Q65.252 -5.673 65.404 -6.583 L68.066 -27.734 H67.083 Q64.046 -27.734 61.322 -28.277 Q58.598 -28.819 54.532 -29.927 Q52.135 -30.693 49.71 -30.989 Q47.284 -31.285 44.821 -31.285 Q39.991 -31.285 35.449 -30.029 Q30.908 -28.774 26.811 -26.286 Z M26.378 -29.654 Q30.619 -31.998 35.236 -33.22 Q39.853 -34.441 44.723 -34.441 Q47.473 -34.441 50.213 -34.035 Q52.954 -33.629 55.541 -32.84 Q58.902 -31.877 61.728 -31.384 Q64.554 -30.89 67.05 -30.89 H68.499 L72.846 -66.001 H21.758 L26.378 -29.654 Z M31.884 -1.303 Q29.724 -1.303 28.169 -2.699 Q26.614 -4.095 26.295 -6.151 L18.147 -69.157 H76.533 L68.461 -6.151 Q68.142 -4.095 66.606 -2.699 Q65.071 -1.303 62.911 -1.303 H31.884 Z"/></g><g id="Ultralight-S" transform="matrix(1 0 0 1 517.792 696)"><path d="M26.629 -26.945  29.193 -7.22 Q29.39 -6.037 30.229 -5.248 Q31.067 -4.459 32.349 -4.459 H62.43 Q63.712 -4.459 64.55 -5.248 Q65.388 -6.037 65.586 -7.22 L68.249 -28.326 H67.197 Q64.205 -28.326 61.493 -28.869 Q58.781 -29.411 54.737 -30.496 Q52.271 -31.285 49.789 -31.581 Q47.307 -31.877 44.776 -31.877 Q39.923 -31.877 35.347 -30.644 Q30.771 -29.411 26.629 -26.945 Z M26.333 -29.017 Q30.574 -31.384 35.179 -32.616 Q39.785 -33.849 44.677 -33.849 Q47.404 -33.849 50.134 -33.455 Q52.863 -33.06 55.427 -32.271 Q58.879 -31.285 61.739 -30.792 Q64.599 -30.299 67.164 -30.299 H68.544 L72.983 -66.001 H21.599 L26.333 -29.017 Z M32.476 -2.486 Q30.475 -2.486 29.045 -3.769 Q27.615 -5.051 27.319 -6.925 L19.331 -67.973 H75.35 L67.46 -6.925 Q67.164 -5.051 65.753 -3.769 Q64.342 -2.486 62.342 -2.486 H32.476 Z"/></g></g></svg>