<svg xmlns="http://www.w3.org/2000/svg" height="24" viewBox="0 -960 960 960" width="24"><path d="M405.5-380.5q-24.5 0-41-16.25T348-438v-287.5q0-24.5 16.5-41t41-16.5h149q24.5 0 41 16.5t16.5 41V-438q0 25-16.5 41.25t-41 16.25h-149Zm-64 243.5q-101.5 0-173-68.25T97-373q0-4.805 3.785-8.652 3.785-3.848 9.25-3.848 4.965 0 8.715 3.775t3.75 9.225q0 89.5 64.1 149.75t154.9 60.25q4.95 0 8.725 3.785 3.775 3.785 3.775 8.75 0 5.465-3.598 9.215-3.597 3.75-8.902 3.75Zm277.5 0q-5.305 0-8.902-3.785-3.598-3.785-3.598-9.25 0-4.965 3.525-8.715T619-162.5q90.3 0 154.4-60.5 64.1-60.5 64.1-149.5 0-5.45 3.785-9.225 3.785-3.775 9.25-3.775 4.965 0 8.715 3.775T863-372.5q0 99.5-71.5 167.5T619-137ZM341.5-262.5q-48.5 0-83.75-31.5t-35.25-79q0-4.805 3.785-8.652 3.785-3.848 9.25-3.848 4.965 0 8.715 3.775T248-372.5q0 18 7.5 33.75T276-312q13 11 29.824 17.5 16.823 6.5 35.676 6.5 4.95 0 8.725 3.785 3.775 3.785 3.775 8.75 0 5.465-3.598 9.215-3.597 3.75-8.902 3.75Zm277.5 0q-5.305 0-8.902-3.785-3.598-3.785-3.598-9.25 0-4.965 3.525-8.715T619-288q18.853 0 35.677-6.5Q671.5-301 684.25-312t20.25-26.75q7.5-15.75 7.5-33.75 0-5.45 3.785-9.225 3.785-3.775 9.25-3.775 4.965 0 8.715 3.775t3.75 9.225q0 47-35.25 78.5T619-262.5Z"/></svg>