<svg xmlns="http://www.w3.org/2000/svg" height="48" viewBox="0 -960 960 960" width="48"><path d="M391.348-377.239q-30.844 0-54.194-23.35-23.35-23.349-23.35-54.194v-324.152q0-30.844 23.35-54.194 23.35-23.349 54.194-23.349h178.304q30.844 0 54.194 23.349 23.35 23.35 23.35 54.194v324.152q0 30.845-23.35 54.194-23.35 23.35-54.194 23.35H391.348Zm-90.5 314.435q-115.083.242-196.205-80.162-81.121-80.404-81.121-195.925 0-15.314 11.266-25.874 11.266-10.561 27.019-10.561 15.752 0 26.549 10.771 10.796 10.772 10.796 26.425 0 84.36 58.491 142.147 58.491 57.787 142.444 57.787 15.754 0 26.595 10.81 10.84 10.81 10.84 26.789 0 15.98-10.631 26.886-10.631 10.907-26.043 10.907Zm359.304 0q-15.728 0-26.581-11.287-10.854-11.288-10.854-26.898 0-15.609 11.047-26.408 11.046-10.799 27.149-10.799 83.65 0 142.412-57.787t58.762-142.147q0-15.653 10.809-26.425 10.809-10.771 26.407-10.771t26.506 10.771q10.908 10.772 10.908 26.425.008 115.726-81.086 195.651-81.095 79.925-195.479 79.675ZM300.848-207.717q-55.087 1.239-94.25-37.424t-37.924-93.75q0-15.314 10.918-25.874 10.918-10.561 26.445-10.561 15.527 0 26.278 10.771 10.75 10.772 10.75 26.425 0 13.699 3.483 23.738 3.483 10.04 11.098 17.395 7.616 7.356 18.437 11.122 10.821 3.766 24.004 3.766 15.754 0 26.595 10.63 10.84 10.629 10.84 26.514 0 15.794-10.631 26.521t-26.043 10.727Zm359.304 0q-15.728 0-26.581-10.912-10.854-10.912-10.854-26.43 0-15.787 11.047-26.419 11.046-10.631 27.149-10.631 12.234 0 23.157-3.835 10.923-3.836 18.23-11.284 7.307-7.447 11.091-17.337 3.783-9.889 3.783-23.565 0-15.653 11.109-26.425 11.109-10.771 26.859-10.771 15.751 0 26.587 10.771 10.836 10.772 10.836 26.425.233 55.386-38.92 93.548-39.154 38.161-93.493 36.865Z"/></svg>