<svg xmlns="http://www.w3.org/2000/svg" height="20" viewBox="0 -960 960 960" width="20"><path d="M320-148q-92 1-156.5-60.5T100-359.662q0-4.143 2.825-7.24 2.824-3.098 7-3.098 4.175 0 7.038 2.888 2.863 2.888 2.863 7.158 0 81.794 58.567 137.011t141.661 55.217q4.27 0 7.158 2.898Q330-161.93 330-157.754q0 4.175-2.927 6.965Q324.146-148 320-148Zm320.338 0q-4.143 0-7.24-2.825-3.098-2.824-3.098-7 0-4.175 2.888-7.038 2.888-2.863 7.158-2.863 83.094 0 141.661-55.217 58.567-55.217 58.567-137.011 0-4.27 2.898-7.158Q846.07-370 850.246-370q4.175 0 6.965 2.875Q860-364.25 860-360q1 90-63.5 151.5T640.338-148ZM321-256q-47 1-80.5-29T208-361q0-3.732 2.825-6.366 2.824-2.634 7-2.634 4.175 0 7.175 2.875t3 7.125q0 18 7.5 33.5t20 26.5q12.5 11 29.324 17.5Q301.647-276 320-276q4.25 0 7.125 2.825 2.875 2.824 2.875 7 0 4.175-2.634 7.175T321-256Zm318 0q-3.732 0-6.366-2.825-2.634-2.824-2.634-7 0-4.175 2.875-7.175t7.125-3q18.353 0 35.177-6.5Q692-289 704.5-300t20-26.5Q732-342 732-360q0-4.25 2.825-7.125 2.824-2.875 7-2.875 4.175 0 7.175 2.875t3 7.125q1 45-33 75t-80 29Zm-249-96q-21.45 0-36.725-15.275Q338-382.55 338-404v-308q0-21.45 15.275-36.725Q368.55-764 390-764h180q21.45 0 36.725 15.275Q622-733.45 622-712v308q0 21.45-15.275 36.725Q591.45-352 570-352H390Zm0-20h180q14 0 23-9t9-23v-308q0-14-9-23t-23-9H390q-14 0-23 9t-9 23v308q0 14 9 23t23 9Zm0 0h-32 244-212Z"/></svg>