<svg xmlns="http://www.w3.org/2000/svg" version="1.1" width="3300" height="2000"><g id="Notes"><style>
    text {
      font-family: monospace;
      text-anchor: middle;
    }
    text.emphasis {
      font-weight:bold;
    }
    text.lanchor {
      text-anchor: start;
    }
  </style><rect height="2200" id="artboard" fill="white" width="3300" x="0" y="0"/><line id="" style="fill:none;stroke:black;stroke-width:0.5;" x1="263" x2="3036" y1="292" y2="292"/><text class="lanchor emphasis" transform="matrix(1 0 0 1 263 322)">Weight/Scale Variations</text><text transform="matrix(1 0 0 1 559.711 322)">Ultralight</text><text transform="matrix(1 0 0 1 856.422 322)">Thin</text><text transform="matrix(1 0 0 1 1153.13 322)">Light</text><text transform="matrix(1 0 0 1 1449.84 322)">Regular</text><text transform="matrix(1 0 0 1 1746.56 322)">Medium</text><text transform="matrix(1 0 0 1 2043.27 322)">Semibold</text><text transform="matrix(1 0 0 1 2339.98 322)">Bold</text><text transform="matrix(1 0 0 1 2636.69 322)">Heavy</text><text transform="matrix(1 0 0 1 2933.4 322)">Black</text><text id="template-version" style="text-anchor: end;" transform="matrix(1 0 0 1 3036 1933)">Template v.1.0</text><text class="lanchor" transform="matrix(1 0 0 1 263 726)">Small</text><text class="lanchor" transform="matrix(1 0 0 1 263 1156)">Medium</text><text class="lanchor" transform="matrix(1 0 0 1 263 1586)">Large</text></g><g id="Guides"><g id="H-reference" style="fill:#27AAE1;stroke:none;" transform="matrix(1 0 0 1 339 696)"><path d="M 54.9316 0 L 57.666 0 L 30.5664 -70.459 L 28.0762 -70.459 L 0.976562 0 L 3.66211 0 L 12.9395 -24.4629 L 45.7031 -24.4629 Z M 29.1992 -67.0898 L 29.4434 -67.0898 L 44.8242 -26.709 L 13.8184 -26.709 Z"/></g><line id="Baseline-S" style="fill:none;stroke:#27AAE1;opacity:1;stroke-width:0.577;" x1="263" x2="3036" y1="696" y2="696"/><line id="Capline-S" style="fill:none;stroke:#27AAE1;opacity:1;stroke-width:0.577;" x1="263" x2="3036" y1="625.541" y2="625.541"/><g id="H-reference" style="fill:#27AAE1;stroke:none;" transform="matrix(1 0 0 1 339 1126)"><path d="M 54.9316 0 L 57.666 0 L 30.5664 -70.459 L 28.0762 -70.459 L 0.976562 0 L 3.66211 0 L 12.9395 -24.4629 L 45.7031 -24.4629 Z M 29.1992 -67.0898 L 29.4434 -67.0898 L 44.8242 -26.709 L 13.8184 -26.709 Z"/></g><line id="Baseline-M" style="fill:none;stroke:#27AAE1;opacity:1;stroke-width:0.577;" x1="263" x2="3036" y1="1126" y2="1126"/><line id="Capline-M" style="fill:none;stroke:#27AAE1;opacity:1;stroke-width:0.577;" x1="263" x2="3036" y1="1055.54" y2="1055.54"/><g id="H-reference" style="fill:#27AAE1;stroke:none;" transform="matrix(1 0 0 1 339 1556)"><path d="M 54.9316 0 L 57.666 0 L 30.5664 -70.459 L 28.0762 -70.459 L 0.976562 0 L 3.66211 0 L 12.9395 -24.4629 L 45.7031 -24.4629 Z M 29.1992 -67.0898 L 29.4434 -67.0898 L 44.8242 -26.709 L 13.8184 -26.709 Z"/></g><line id="Baseline-L" style="fill:none;stroke:#27AAE1;opacity:1;stroke-width:0.577;" x1="263" x2="3036" y1="1556" y2="1556"/><line id="Capline-L" style="fill:none;stroke:#27AAE1;opacity:1;stroke-width:0.577;" x1="263" x2="3036" y1="1485.54" y2="1485.54"/><rect height="119.336" id="left-margin" style="fill:darkred;stroke:none;opacity:0.4;" width="12.4512" x="1394.06" y="1030.79"/><rect height="119.336" id="right-margin" style="fill:darkgreen;stroke:none;opacity:0.4;" width="12.4512" x="1502.5112" y="1030.79"/><rect x="1406.5112" y="1045" width="96" height="96" fill="none" stroke="blue" stroke-dasharray="5"/><rect x="1394.06" y="1030.79" width="120.9024" height="119.336" fill="none" stroke="blue"/></g><g id="Symbols"><g id="Bold-L" transform="matrix(1 0 0 1 2266 1556)"><path d="M54.825 -52.067  42.086 -64.739 Q38.884 -67.633 37.18 -71.708 Q35.475 -75.784 35.475 -80.382 Q35.475 -89.894 41.943 -96.586 Q48.412 -103.277 57.727 -103.277 H97.073 Q106.464 -103.277 112.814 -96.572 Q119.164 -89.866 119.164 -80.553 Q119.164 -75.891 117.377 -71.679 Q115.59 -67.467 112.391 -64.416 L100.297 -52.102 V-19.105 L112.714 -6.527 Q115.903 -2.96 117.614 0.96 Q119.325 4.88 119.325 9.492 Q119.325 19.188 112.68 25.761 Q106.036 32.334 96.529 32.334 Q91.913 32.334 87.811 30.827 Q83.71 29.321 80.625 25.723 Q79.79 25.25 79.087 24.922 Q78.383 24.594 77.422 24.594 Q76.459 24.594 75.722 24.868 Q74.985 25.142 74.336 25.723 Q71.099 29.086 66.943 30.71 Q62.787 32.334 58.233 32.334 Q48.697 32.334 41.925 25.72 Q35.153 19.106 35.153 9.485 Q35.153 4.88 36.972 0.731 Q38.792 -3.417 42.086 -6.527 L54.825 -19.149 V-52.067 Z"/></g><g id="Semibold-L" transform="matrix(1 0 0 1 1970.27 1556)"><path d="M55.807 -52.458  42.787 -65.44 Q39.72 -68.252 38.088 -72.145 Q36.457 -76.038 36.457 -80.405 Q36.457 -89.473 42.633 -95.85 Q48.81 -102.226 57.727 -102.226 H97.073 Q106.028 -102.226 112.07 -95.81 Q118.112 -89.394 118.112 -80.581 Q118.112 -76.101 116.439 -72.099 Q114.766 -68.097 111.69 -65.117 L99.246 -52.541 V-18.684 L112.013 -5.826 Q115.077 -2.478 116.675 1.348 Q118.273 5.174 118.273 9.538 Q118.273 18.768 111.946 25.06 Q105.618 31.352 96.566 31.352 Q92.193 31.352 88.261 29.868 Q84.328 28.383 81.326 25.021 Q80.353 24.38 79.453 23.996 Q78.552 23.612 77.418 23.612 Q76.283 23.612 75.353 23.956 Q74.424 24.301 73.635 25.021 Q70.477 28.25 66.499 29.801 Q62.521 31.352 58.207 31.352 Q49.118 31.352 42.626 25.032 Q36.134 18.712 36.134 9.511 Q36.134 5.145 37.863 1.175 Q39.591 -2.795 42.787 -5.826 L55.807 -18.646 V-52.458 Z"/></g><g id="Medium-L" transform="matrix(1 0 0 1 1674.31 1556)"><path d="M56.543 -52.752  43.313 -65.966 Q40.346 -68.716 38.769 -72.472 Q37.193 -76.228 37.193 -80.422 Q37.193 -89.158 43.151 -95.297 Q49.109 -101.437 57.727 -101.437 H97.073 Q105.701 -101.437 111.512 -95.238 Q117.323 -89.04 117.323 -80.602 Q117.323 -76.259 115.736 -72.414 Q114.148 -68.569 111.164 -65.643 L98.457 -52.869 V-18.369 L111.487 -5.301 Q114.458 -2.116 115.971 1.639 Q117.485 5.395 117.485 9.572 Q117.485 18.452 111.394 24.534 Q105.304 30.616 96.594 30.616 Q92.403 30.616 88.598 29.148 Q84.792 27.68 81.852 24.496 Q80.775 23.728 79.727 23.302 Q78.68 22.876 77.415 22.876 Q76.15 22.876 75.077 23.273 Q74.003 23.67 73.109 24.496 Q70.01 27.624 66.166 29.12 Q62.322 30.616 58.187 30.616 Q49.434 30.616 43.152 24.516 Q36.87 18.416 36.87 9.531 Q36.87 5.344 38.531 1.508 Q40.191 -2.328 43.313 -5.301 L56.543 -18.268 V-52.752 Z"/></g><g id="Regular-L" transform="matrix(1 0 0 1 1378.56 1556)"><path d="M57.083 -52.967  43.699 -66.351 Q40.805 -69.056 39.269 -72.712 Q37.733 -76.368 37.733 -80.435 Q37.733 -88.926 43.53 -94.892 Q49.328 -100.859 57.727 -100.859 H97.073 Q105.462 -100.859 111.103 -94.819 Q116.745 -88.78 116.745 -80.617 Q116.745 -76.375 115.22 -72.645 Q113.694 -68.916 110.779 -66.029 L97.879 -53.111 V-18.137 L111.101 -4.915 Q114.004 -1.851 115.455 1.853 Q116.906 5.557 116.906 9.598 Q116.906 18.221 110.99 24.149 Q105.074 30.076 96.614 30.076 Q92.558 30.076 88.845 28.62 Q85.132 27.165 82.237 24.11 Q81.085 23.25 79.929 22.793 Q78.773 22.336 77.413 22.336 Q76.053 22.336 74.874 22.772 Q73.695 23.207 72.724 24.11 Q69.668 27.165 65.922 28.62 Q62.176 30.076 58.173 30.076 Q49.665 30.076 43.538 24.138 Q37.41 18.199 37.41 9.545 Q37.41 5.49 39.02 1.752 Q40.63 -1.986 43.699 -4.915 L57.083 -17.992 V-52.967 Z"/></g><g id="Light-L" transform="matrix(1 0 0 1 1082.77 1556)"><path d="M60.308 -54.332  45.994 -68.646 Q43.534 -70.917 42.246 -73.952 Q40.958 -76.988 40.958 -80.435 Q40.958 -87.562 45.794 -92.598 Q50.63 -97.634 57.727 -97.634 H97.073 Q104.097 -97.634 108.839 -92.556 Q113.582 -87.478 113.582 -80.679 Q113.582 -77.057 112.304 -73.948 Q111.027 -70.838 108.546 -68.324 L94.654 -54.475 V-16.835 L108.868 -2.682 Q111.275 -0.053 112.509 3.062 Q113.743 6.177 113.743 9.598 Q113.743 16.856 108.726 21.854 Q103.709 26.851 96.614 26.851 Q93.178 26.851 90.085 25.612 Q86.993 24.373 84.532 21.815 Q82.946 20.521 81.17 19.785 Q79.393 19.049 77.413 19.049 Q75.433 19.049 73.664 19.764 Q71.896 20.478 70.491 21.815 Q67.869 24.373 64.713 25.612 Q61.556 26.851 58.173 26.851 Q51.029 26.851 45.863 21.843 Q40.697 16.834 40.697 9.545 Q40.697 6.111 42.028 2.962 Q43.359 -0.187 45.994 -2.62 L60.308 -16.689 V-54.332 Z"/></g><g id="Thin-L" transform="matrix(1 0 0 1 787.282 1556)"><path d="M63.532 -55.696  48.288 -70.941 Q46.263 -72.778 45.223 -75.193 Q44.183 -77.608 44.183 -80.435 Q44.183 -86.197 48.057 -90.303 Q51.932 -94.409 57.727 -94.409 H97.073 Q102.733 -94.409 106.576 -90.292 Q110.419 -86.175 110.419 -80.741 Q110.419 -77.739 109.39 -75.25 Q108.361 -72.761 106.313 -70.618 L91.429 -55.84 V-15.533 L106.636 -0.45 Q108.546 1.746 109.563 4.271 Q110.58 6.797 110.58 9.598 Q110.58 15.492 106.463 19.559 Q102.345 23.626 96.614 23.626 Q93.798 23.626 91.326 22.605 Q88.853 21.583 86.827 19.521 Q84.806 17.792 82.41 16.777 Q80.013 15.762 77.413 15.762 Q74.813 15.762 72.455 16.756 Q70.098 17.749 68.258 19.521 Q66.071 21.583 63.503 22.605 Q60.936 23.626 58.173 23.626 Q52.394 23.626 48.189 19.548 Q43.984 15.47 43.984 9.545 Q43.984 6.731 45.036 4.171 Q46.088 1.611 48.288 -0.326 L63.532 -15.387 V-55.696 Z"/></g><g id="Ultralight-L" transform="matrix(1 0 0 1 491.205 1556)"><path d="M65.468 -56.515  49.665 -72.317 Q47.9 -73.894 47.009 -75.937 Q46.117 -77.98 46.117 -80.435 Q46.117 -85.379 49.416 -88.926 Q52.714 -92.474 57.727 -92.474 H97.073 Q101.914 -92.474 105.218 -88.934 Q108.521 -85.394 108.521 -80.778 Q108.521 -78.148 107.641 -76.031 Q106.761 -73.914 104.974 -71.995 L89.494 -56.658 V-14.751 L105.296 0.89 Q106.909 2.825 107.796 4.997 Q108.683 7.169 108.683 9.598 Q108.683 14.673 105.104 18.182 Q101.526 21.691 96.614 21.691 Q94.17 21.691 92.07 20.8 Q89.97 19.908 88.204 18.144 Q85.923 16.155 83.154 14.972 Q80.386 13.79 77.413 13.79 Q74.441 13.79 71.73 14.951 Q69.019 16.112 66.919 18.144 Q64.992 19.908 62.778 20.8 Q60.564 21.691 58.173 21.691 Q53.212 21.691 49.584 18.171 Q45.956 14.651 45.956 9.545 Q45.956 7.103 46.841 4.897 Q47.725 2.69 49.665 1.051 L65.468 -14.605 V-56.515 Z"/></g><g id="Bold-M" transform="matrix(1 0 0 1 2281.8 1126)"><path d="M40.625 -47.532  31.375 -56.855 Q28.586 -59.475 27.105 -63.002 Q25.625 -66.529 25.625 -70.288 Q25.625 -78.355 31.188 -83.98 Q36.75 -89.605 44.75 -89.605 H75.25 Q83.146 -89.605 88.636 -83.972 Q94.125 -78.339 94.125 -70.414 Q94.125 -66.5 92.542 -62.872 Q90.96 -59.244 88.25 -56.605 L79.375 -47.565 V-23.355 L88.5 -14.105 Q91.222 -11.339 92.736 -7.889 Q94.25 -4.439 94.25 -0.527 Q94.25 7.705 88.647 13.363 Q83.043 19.02 74.889 19.02 Q71 19.02 67.446 17.54 Q63.891 16.059 61.25 13.27 Q60.982 13.103 60.707 12.999 Q60.433 12.895 60.007 12.895 Q59.581 12.895 59.3 13.041 Q59.018 13.187 58.75 13.27 Q56.115 16.059 52.57 17.54 Q49.025 19.02 45.142 19.02 Q37 19.02 31.25 13.363 Q25.5 7.705 25.5 -0.527 Q25.5 -4.439 27.009 -7.951 Q28.518 -11.464 31.375 -14.105 L40.625 -23.379 V-47.532 Z"/></g><g id="Semibold-M" transform="matrix(1 0 0 1 1985.97 1126)"><path d="M41.821 -47.998  32.19 -57.67 Q29.584 -60.172 28.202 -63.486 Q26.821 -66.8 26.821 -70.305 Q26.821 -77.866 32.03 -83.138 Q37.239 -88.409 44.75 -88.409 H75.25 Q82.649 -88.409 87.789 -83.106 Q92.929 -77.803 92.929 -70.414 Q92.929 -66.717 91.464 -63.331 Q89.999 -59.944 87.435 -57.42 L78.179 -48.059 V-22.866 L87.685 -13.29 Q90.256 -10.694 91.655 -7.425 Q93.054 -4.156 93.054 -0.506 Q93.054 7.216 87.801 12.52 Q82.548 17.824 74.9 17.824 Q71.272 17.824 67.93 16.443 Q64.588 15.061 62.065 12.455 Q61.634 12.071 61.139 11.885 Q60.644 11.699 60.004 11.699 Q59.364 11.699 58.865 11.927 Q58.366 12.154 57.935 12.455 Q55.416 15.061 52.079 16.443 Q48.742 17.824 45.121 17.824 Q37.489 17.824 32.092 12.52 Q26.696 7.216 26.696 -0.506 Q26.696 -4.156 28.092 -7.46 Q29.488 -10.765 32.19 -13.29 L41.821 -22.835 V-47.998 Z"/></g><g id="Medium-M" transform="matrix(1 0 0 1 1689.91 1126)"><path d="M42.717 -48.348  32.802 -58.282 Q30.333 -60.694 29.025 -63.848 Q27.717 -67.003 27.717 -70.318 Q27.717 -77.499 32.662 -82.506 Q37.606 -87.513 44.75 -87.513 H75.25 Q82.277 -87.513 87.155 -82.456 Q92.033 -77.4 92.033 -70.414 Q92.033 -66.88 90.656 -63.675 Q89.278 -60.47 86.823 -58.032 L77.283 -48.43 V-22.499 L87.073 -12.678 Q89.531 -10.21 90.844 -7.077 Q92.158 -3.944 92.158 -0.491 Q92.158 6.849 87.168 11.888 Q82.177 16.928 74.909 16.928 Q71.475 16.928 68.293 15.62 Q65.111 14.312 62.677 11.843 Q62.123 11.296 61.463 11.05 Q60.803 10.803 60.002 10.803 Q59.2 10.803 58.539 11.091 Q57.877 11.38 57.323 11.843 Q54.891 14.312 51.711 15.62 Q48.53 16.928 45.106 16.928 Q37.856 16.928 32.724 11.888 Q27.592 6.849 27.592 -0.491 Q27.592 -3.944 28.904 -7.092 Q30.216 -10.24 32.802 -12.678 L42.717 -22.428 V-48.348 Z"/></g><g id="Regular-M" transform="matrix(1 0 0 1 1394.06 1126)"><path d="M43.375 -48.605  33.25 -58.73 Q30.882 -61.077 29.629 -64.114 Q28.375 -67.152 28.375 -70.327 Q28.375 -77.23 33.125 -82.042 Q37.875 -86.855 44.75 -86.855 H75.25 Q82.003 -86.855 86.689 -81.98 Q91.375 -77.105 91.375 -70.414 Q91.375 -67 90.062 -63.927 Q88.75 -60.855 86.375 -58.48 L76.625 -48.702 V-22.23 L86.625 -12.23 Q89 -9.855 90.25 -6.822 Q91.5 -3.789 91.5 -0.48 Q91.5 6.58 86.703 11.425 Q81.905 16.27 74.915 16.27 Q71.625 16.27 68.559 15.016 Q65.494 13.763 63.125 11.395 Q62.482 10.728 61.7 10.437 Q60.919 10.145 60 10.145 Q59.081 10.145 58.3 10.478 Q57.518 10.812 56.875 11.395 Q54.506 13.763 51.441 15.016 Q48.375 16.27 45.095 16.27 Q38.125 16.27 33.188 11.425 Q28.25 6.58 28.25 -0.48 Q28.25 -3.789 29.5 -6.822 Q30.75 -9.855 33.25 -12.23 L43.375 -22.129 V-48.605 Z"/></g><g id="Light-M" transform="matrix(1 0 0 1 1098.18 1126)"><path d="M45.875 -49.663  35.029 -60.509 Q32.998 -62.519 31.936 -65.052 Q30.875 -67.584 30.875 -70.327 Q30.875 -76.172 34.88 -80.263 Q38.885 -84.355 44.75 -84.355 H75.25 Q80.945 -84.355 84.91 -80.201 Q88.875 -76.047 88.875 -70.414 Q88.875 -67.529 87.779 -64.937 Q86.683 -62.345 84.644 -60.259 L74.125 -49.76 V-21.22 L84.894 -10.499 Q86.885 -8.461 87.942 -5.884 Q89 -3.308 89 -0.48 Q89 5.522 84.924 9.646 Q80.847 13.77 74.915 13.77 Q72.106 13.77 69.521 12.685 Q66.936 11.599 64.904 9.616 Q63.924 8.661 62.662 8.153 Q61.4 7.645 60 7.645 Q58.6 7.645 57.362 8.171 Q56.124 8.696 55.144 9.616 Q53.112 11.599 50.503 12.685 Q47.894 13.77 45.095 13.77 Q39.183 13.77 34.99 9.646 Q30.798 5.522 30.75 -0.48 Q30.75 -3.308 31.808 -5.884 Q32.865 -8.461 35.029 -10.451 L45.875 -21.119 V-49.663 Z"/></g><g id="Thin-M" transform="matrix(1 0 0 1 802.565 1126)"><path d="M48.375 -50.72  36.808 -62.288 Q35.113 -63.962 34.244 -65.989 Q33.375 -68.017 33.375 -70.327 Q33.375 -75.115 36.635 -78.485 Q39.894 -81.855 44.75 -81.855 H75.25 Q79.888 -81.855 83.131 -78.422 Q86.375 -74.99 86.375 -70.414 Q86.375 -68.058 85.495 -65.947 Q84.615 -63.836 82.913 -62.038 L71.625 -50.817 V-20.211 L83.163 -8.768 Q84.769 -7.066 85.635 -4.947 Q86.5 -2.827 86.5 -0.48 Q86.5 4.465 83.145 7.867 Q79.79 11.27 74.915 11.27 Q72.587 11.27 70.483 10.353 Q68.379 9.436 66.683 7.837 Q65.366 6.594 63.623 5.869 Q61.881 5.145 60 5.145 Q58.119 5.145 56.425 5.863 Q54.73 6.581 53.413 7.837 Q51.718 9.436 49.566 10.353 Q47.413 11.27 45.095 11.27 Q40.24 11.27 36.793 7.867 Q33.346 4.465 33.25 -0.48 Q33.25 -2.827 34.115 -4.947 Q34.981 -7.066 36.808 -8.672 L48.375 -20.109 V-50.72 Z"/></g><g id="Ultralight-M" transform="matrix(1 0 0 1 506.415 1126)"><path d="M49.875 -51.355  37.875 -63.355 Q36.382 -64.827 35.629 -66.552 Q34.875 -68.277 34.875 -70.327 Q34.875 -74.48 37.688 -77.417 Q40.5 -80.355 44.75 -80.355 H75.25 Q79.253 -80.355 82.064 -77.355 Q84.875 -74.355 84.875 -70.414 Q84.875 -68.375 84.125 -66.552 Q83.375 -64.73 81.875 -63.105 L70.125 -51.452 V-19.605 L82.125 -7.73 Q83.5 -6.23 84.25 -4.384 Q85 -2.539 85 -0.48 Q85 3.83 82.078 6.8 Q79.155 9.77 74.915 9.77 Q72.875 9.77 71.059 8.954 Q69.244 8.138 67.75 6.77 Q66.232 5.353 64.2 4.499 Q62.169 3.645 60 3.645 Q57.831 3.645 55.862 4.478 Q53.893 5.312 52.375 6.77 Q50.881 8.138 49.003 8.954 Q47.125 9.77 45.095 9.77 Q40.875 9.77 37.875 6.8 Q34.875 3.83 34.75 -0.48 Q34.75 -2.539 35.5 -4.384 Q36.25 -6.23 37.875 -7.605 L49.875 -19.504 V-51.355 Z"/></g><g id="Bold-S" transform="matrix(1 0 0 1 2294.23 696)"><path d="M32.053 -45.528  25.741 -51.898 Q23.738 -53.866 22.57 -56.452 Q21.402 -59.038 21.402 -62.003 Q21.402 -68.078 25.589 -72.316 Q29.776 -76.554 35.801 -76.554 H58.879 Q64.82 -76.554 68.951 -72.324 Q73.081 -68.093 73.081 -62.144 Q73.081 -59.212 71.931 -56.497 Q70.781 -53.783 68.643 -51.7 L62.627 -45.455 V-25.072 L68.939 -18.76 Q71.087 -16.775 72.183 -14.18 Q73.278 -11.585 73.278 -8.638 Q73.278 -2.439 69.048 1.827 Q64.817 6.094 58.661 6.094 Q55.723 6.094 53.014 4.967 Q50.306 3.84 48.296 1.718 Q48.115 1.623 47.898 1.541 Q47.681 1.459 47.345 1.459 Q47.009 1.459 46.787 1.574 Q46.565 1.689 46.354 1.754 Q44.374 3.859 41.704 4.977 Q39.034 6.094 36.11 6.094 Q29.982 6.094 25.692 1.821 Q21.402 -2.453 21.402 -8.67 Q21.402 -11.626 22.494 -14.2 Q23.585 -16.775 25.741 -18.76 L32.053 -25.189 V-45.528 Z"/></g><g id="Semibold-S" transform="matrix(1 0 0 1 1998.1 696)"><path d="M32.996 -45.896  26.384 -52.541 Q24.525 -54.416 23.435 -56.833 Q22.345 -59.251 22.345 -62.016 Q22.345 -67.692 26.253 -71.651 Q30.161 -75.611 35.801 -75.611 H58.879 Q64.428 -75.611 68.283 -71.64 Q72.138 -67.67 72.138 -62.144 Q72.138 -59.383 71.08 -56.859 Q70.023 -54.335 68 -52.344 L61.684 -45.845 V-24.686 L68.296 -18.116 Q70.324 -16.266 71.33 -13.814 Q72.335 -11.362 72.335 -8.622 Q72.335 -2.825 68.381 1.163 Q64.427 5.151 58.67 5.151 Q55.938 5.151 53.397 4.102 Q50.856 3.053 48.939 1.075 Q48.629 0.808 48.239 0.662 Q47.848 0.515 47.343 0.515 Q46.838 0.515 46.444 0.695 Q46.051 0.874 45.711 1.111 Q43.822 3.072 41.317 4.111 Q38.812 5.151 36.094 5.151 Q30.368 5.151 26.356 1.156 Q22.345 -2.839 22.345 -8.654 Q22.345 -11.403 23.348 -13.813 Q24.351 -16.223 26.384 -18.116 L32.996 -24.76 V-45.896 Z"/></g><g id="Medium-S" transform="matrix(1 0 0 1 1701.85 696)"><path d="M33.704 -46.172  26.867 -53.023 Q25.116 -54.828 24.084 -57.12 Q23.053 -59.411 23.053 -62.027 Q23.053 -67.403 26.752 -71.153 Q30.451 -74.903 35.801 -74.903 H58.879 Q64.134 -74.903 67.782 -71.128 Q71.43 -67.353 71.43 -62.144 Q71.43 -59.512 70.442 -57.131 Q69.454 -54.75 67.517 -52.826 L60.976 -46.138 V-24.396 L67.813 -17.634 Q69.753 -15.884 70.69 -13.54 Q71.627 -11.195 71.627 -8.61 Q71.627 -3.115 67.881 0.664 Q64.134 4.443 58.676 4.443 Q56.098 4.443 53.683 3.452 Q51.268 2.462 49.421 0.592 Q49.015 0.197 48.494 0.002 Q47.973 -0.192 47.341 -0.192 Q46.709 -0.192 46.187 0.035 Q45.665 0.263 45.228 0.629 Q43.408 2.481 41.026 3.462 Q38.644 4.443 36.082 4.443 Q30.657 4.443 26.855 0.657 Q23.053 -3.128 23.053 -8.642 Q23.053 -11.236 23.989 -13.522 Q24.925 -15.809 26.867 -17.634 L33.704 -24.439 V-46.172 Z"/></g><g id="Regular-S" transform="matrix(1 0 0 1 1405.73 696)"><path d="M34.223 -46.375  27.221 -53.377 Q25.549 -55.13 24.56 -57.329 Q23.571 -59.529 23.571 -62.034 Q23.571 -67.19 27.117 -70.787 Q30.663 -74.384 35.801 -74.384 H58.879 Q63.918 -74.384 67.415 -70.752 Q70.911 -67.12 70.911 -62.144 Q70.911 -59.606 69.974 -57.33 Q69.038 -55.054 67.164 -53.18 L60.457 -46.353 V-24.184 L67.46 -17.28 Q69.333 -15.604 70.221 -13.338 Q71.109 -11.073 71.109 -8.601 Q71.109 -3.327 67.514 0.299 Q63.919 3.924 58.681 3.924 Q56.216 3.924 53.893 2.976 Q51.57 2.029 49.775 0.238 Q49.298 -0.251 48.682 -0.481 Q48.065 -0.711 47.34 -0.711 Q46.615 -0.711 45.998 -0.448 Q45.382 -0.185 44.874 0.275 Q43.104 2.047 40.813 2.986 Q38.522 3.924 36.073 3.924 Q30.87 3.924 27.221 0.292 Q23.571 -3.34 23.571 -8.633 Q23.571 -11.113 24.459 -13.309 Q25.347 -15.505 27.221 -17.28 L34.223 -24.203 V-46.375 Z"/></g><g id="Light-S" transform="matrix(1 0 0 1 1109.75 696)"><path d="M36.195 -47.209  28.624 -54.781 Q27.219 -56.268 26.381 -58.069 Q25.544 -59.87 25.544 -62.034 Q25.544 -66.356 28.502 -69.384 Q31.46 -72.412 35.801 -72.412 H58.879 Q63.084 -72.412 66.011 -69.348 Q68.939 -66.285 68.939 -62.144 Q68.939 -60.023 68.172 -58.126 Q67.406 -56.23 65.798 -54.583 L58.485 -47.187 V-23.387 L66.094 -15.915 Q67.664 -14.503 68.4 -12.598 Q69.136 -10.693 69.136 -8.601 Q69.136 -4.161 66.11 -1.105 Q63.085 1.952 58.681 1.952 Q56.596 1.952 54.652 1.136 Q52.708 0.321 51.179 -1.165 Q50.436 -1.882 49.44 -2.283 Q48.445 -2.684 47.34 -2.684 Q46.235 -2.684 45.259 -2.269 Q44.282 -1.854 43.509 -1.129 Q42.004 0.34 40.073 1.146 Q38.142 1.952 36.073 1.952 Q31.704 1.952 28.643 -1.112 Q25.582 -4.175 25.544 -8.633 Q25.544 -10.734 26.28 -12.569 Q27.016 -14.405 28.624 -15.877 L36.195 -23.406 V-47.209 Z"/></g><g id="Thin-S" transform="matrix(1 0 0 1 814.015 696)"><path d="M38.168 -48.044  30.027 -56.184 Q28.888 -57.406 28.202 -58.809 Q27.516 -60.211 27.516 -62.034 Q27.516 -65.521 29.886 -67.98 Q32.256 -70.439 35.801 -70.439 H58.879 Q62.249 -70.439 64.608 -67.945 Q66.966 -65.451 66.966 -62.144 Q66.966 -60.441 66.371 -58.923 Q65.775 -57.405 64.433 -55.987 L56.512 -48.022 V-22.591 L64.728 -14.549 Q65.995 -13.403 66.579 -11.859 Q67.164 -10.314 67.164 -8.601 Q67.164 -4.996 64.707 -2.508 Q62.25 -0.021 58.681 -0.021 Q56.975 -0.021 55.411 -0.703 Q53.846 -1.385 52.582 -2.569 Q51.574 -3.513 50.199 -4.085 Q48.824 -4.656 47.34 -4.656 Q45.856 -4.656 44.519 -4.09 Q43.182 -3.523 42.143 -2.532 Q40.904 -1.367 39.334 -0.694 Q37.763 -0.021 36.073 -0.021 Q32.539 -0.021 30.065 -2.515 Q27.592 -5.01 27.516 -8.633 Q27.516 -10.355 28.101 -11.83 Q28.685 -13.305 30.027 -14.473 L38.168 -22.61 V-48.044 Z"/></g><g id="Ultralight-S" transform="matrix(1 0 0 1 517.792 696)"><path d="M39.351 -48.544  30.87 -57.026 Q29.889 -58.089 29.294 -59.253 Q28.7 -60.416 28.7 -62.034 Q28.7 -65.021 30.717 -67.138 Q32.734 -69.256 35.801 -69.256 H58.879 Q61.749 -69.256 63.766 -67.103 Q65.783 -64.95 65.783 -62.144 Q65.783 -60.691 65.29 -59.401 Q64.797 -58.111 63.613 -56.829 L55.329 -48.522 V-22.113 L63.909 -13.73 Q64.994 -12.743 65.487 -11.415 Q65.98 -10.086 65.98 -8.601 Q65.98 -5.497 63.865 -3.35 Q61.749 -1.204 58.681 -1.204 Q57.203 -1.204 55.866 -1.807 Q54.529 -2.41 53.424 -3.411 Q52.257 -4.492 50.654 -5.166 Q49.051 -5.84 47.34 -5.84 Q45.629 -5.84 44.075 -5.182 Q42.522 -4.525 41.324 -3.374 Q40.244 -2.391 38.89 -1.798 Q37.535 -1.204 36.073 -1.204 Q33.039 -1.204 30.919 -3.357 Q28.799 -5.51 28.7 -8.633 Q28.7 -10.127 29.193 -11.386 Q29.686 -12.645 30.87 -13.631 L39.351 -22.132 V-48.544 Z"/></g></g></svg>