<svg xmlns="http://www.w3.org/2000/svg" version="1.1" width="3300" height="2000"><g id="Notes"><style>
    text {
      font-family: monospace;
      text-anchor: middle;
    }
    text.emphasis {
      font-weight:bold;
    }
    text.lanchor {
      text-anchor: start;
    }
  </style><rect height="2200" id="artboard" fill="white" width="3300" x="0" y="0"/><line id="" style="fill:none;stroke:black;stroke-width:0.5;" x1="263" x2="3036" y1="292" y2="292"/><text class="lanchor emphasis" transform="matrix(1 0 0 1 263 322)">Weight/Scale Variations</text><text transform="matrix(1 0 0 1 559.711 322)">Ultralight</text><text transform="matrix(1 0 0 1 856.422 322)">Thin</text><text transform="matrix(1 0 0 1 1153.13 322)">Light</text><text transform="matrix(1 0 0 1 1449.84 322)">Regular</text><text transform="matrix(1 0 0 1 1746.56 322)">Medium</text><text transform="matrix(1 0 0 1 2043.27 322)">Semibold</text><text transform="matrix(1 0 0 1 2339.98 322)">Bold</text><text transform="matrix(1 0 0 1 2636.69 322)">Heavy</text><text transform="matrix(1 0 0 1 2933.4 322)">Black</text><text id="template-version" style="text-anchor: end;" transform="matrix(1 0 0 1 3036 1933)">Template v.1.0</text><text class="lanchor" transform="matrix(1 0 0 1 263 726)">Small</text><text class="lanchor" transform="matrix(1 0 0 1 263 1156)">Medium</text><text class="lanchor" transform="matrix(1 0 0 1 263 1586)">Large</text></g><g id="Guides"><g id="H-reference" style="fill:#27AAE1;stroke:none;" transform="matrix(1 0 0 1 339 696)"><path d="M 54.9316 0 L 57.666 0 L 30.5664 -70.459 L 28.0762 -70.459 L 0.976562 0 L 3.66211 0 L 12.9395 -24.4629 L 45.7031 -24.4629 Z M 29.1992 -67.0898 L 29.4434 -67.0898 L 44.8242 -26.709 L 13.8184 -26.709 Z"/></g><line id="Baseline-S" style="fill:none;stroke:#27AAE1;opacity:1;stroke-width:0.577;" x1="263" x2="3036" y1="696" y2="696"/><line id="Capline-S" style="fill:none;stroke:#27AAE1;opacity:1;stroke-width:0.577;" x1="263" x2="3036" y1="625.541" y2="625.541"/><g id="H-reference" style="fill:#27AAE1;stroke:none;" transform="matrix(1 0 0 1 339 1126)"><path d="M 54.9316 0 L 57.666 0 L 30.5664 -70.459 L 28.0762 -70.459 L 0.976562 0 L 3.66211 0 L 12.9395 -24.4629 L 45.7031 -24.4629 Z M 29.1992 -67.0898 L 29.4434 -67.0898 L 44.8242 -26.709 L 13.8184 -26.709 Z"/></g><line id="Baseline-M" style="fill:none;stroke:#27AAE1;opacity:1;stroke-width:0.577;" x1="263" x2="3036" y1="1126" y2="1126"/><line id="Capline-M" style="fill:none;stroke:#27AAE1;opacity:1;stroke-width:0.577;" x1="263" x2="3036" y1="1055.54" y2="1055.54"/><g id="H-reference" style="fill:#27AAE1;stroke:none;" transform="matrix(1 0 0 1 339 1556)"><path d="M 54.9316 0 L 57.666 0 L 30.5664 -70.459 L 28.0762 -70.459 L 0.976562 0 L 3.66211 0 L 12.9395 -24.4629 L 45.7031 -24.4629 Z M 29.1992 -67.0898 L 29.4434 -67.0898 L 44.8242 -26.709 L 13.8184 -26.709 Z"/></g><line id="Baseline-L" style="fill:none;stroke:#27AAE1;opacity:1;stroke-width:0.577;" x1="263" x2="3036" y1="1556" y2="1556"/><line id="Capline-L" style="fill:none;stroke:#27AAE1;opacity:1;stroke-width:0.577;" x1="263" x2="3036" y1="1485.54" y2="1485.54"/><rect height="119.336" id="left-margin" style="fill:darkred;stroke:none;opacity:0.4;" width="12.4512" x="1394.06" y="1030.79"/><rect height="119.336" id="right-margin" style="fill:darkgreen;stroke:none;opacity:0.4;" width="12.4512" x="1502.5112" y="1030.79"/><rect x="1406.5112" y="1045" width="96" height="96" fill="none" stroke="blue" stroke-dasharray="5"/><rect x="1394.06" y="1030.79" width="120.9024" height="119.336" fill="none" stroke="blue"/></g><g id="Symbols"><g id="Bold-L" transform="matrix(1 0 0 1 2266 1556)"><path d="M22.253 24.916  27.574 -36.681 Q28.349 -49.86 35.46 -60.282 Q42.57 -70.705 53.535 -76.832 V-48.13 Q53.535 -38.076 60.444 -31.171 Q67.352 -24.265 77.411 -24.265 Q87.465 -24.265 94.446 -31.171 Q101.426 -38.076 101.426 -48.13 V-76.832 Q112.23 -70.705 119.34 -60.282 Q126.451 -49.86 127.388 -36.681 L132.548 24.916 H22.253 Z M77.434 -33.94 Q71.426 -33.94 67.318 -38.024 Q63.21 -42.107 63.21 -48.13 V-73.93 Q63.21 -79.886 67.284 -84.084 Q71.357 -88.281 77.366 -88.281 Q83.374 -88.281 87.563 -84.117 Q91.751 -79.953 91.751 -73.93 V-48.13 Q91.751 -42.174 87.597 -38.057 Q83.443 -33.94 77.434 -33.94 Z"/></g><g id="Semibold-L" transform="matrix(1 0 0 1 1970.27 1556)"><path d="M22.743 24.426  28.064 -36.681 Q28.853 -49.739 35.887 -60.082 Q42.921 -70.425 53.886 -76.412 V-48.13 Q53.886 -38.266 60.704 -31.441 Q67.524 -24.616 77.379 -24.616 Q87.295 -24.616 94.186 -31.441 Q101.076 -38.266 101.076 -48.13 V-76.412 Q111.879 -70.425 118.913 -60.082 Q125.947 -49.739 126.897 -36.681 L131.987 24.426 H22.743 Z M77.419 -34.291 Q71.595 -34.291 67.578 -38.294 Q63.561 -42.297 63.561 -48.13 V-73.93 Q63.561 -79.725 67.558 -83.828 Q71.556 -87.931 77.381 -87.931 Q83.205 -87.931 87.303 -83.847 Q91.401 -79.763 91.401 -73.93 V-48.13 Q91.401 -42.335 87.322 -38.313 Q83.244 -34.291 77.419 -34.291 Z"/></g><g id="Medium-L" transform="matrix(1 0 0 1 1674.31 1556)"><path d="M23.111 24.057  28.433 -36.681 Q29.232 -49.648 36.207 -59.931 Q43.183 -70.214 54.148 -76.096 V-48.13 Q54.148 -38.409 60.9 -31.644 Q67.652 -24.878 77.354 -24.878 Q87.168 -24.878 93.991 -31.644 Q100.813 -38.409 100.813 -48.13 V-76.096 Q111.617 -70.214 118.593 -59.931 Q125.568 -49.648 126.529 -36.681 L131.566 24.057 H23.111 Z M77.408 -34.553 Q71.722 -34.553 67.773 -38.497 Q63.823 -42.44 63.823 -48.13 V-73.93 Q63.823 -79.604 67.764 -83.636 Q71.705 -87.668 77.392 -87.668 Q83.078 -87.668 87.108 -83.644 Q91.138 -79.62 91.138 -73.93 V-48.13 Q91.138 -42.456 87.116 -38.505 Q83.095 -34.553 77.408 -34.553 Z"/></g><g id="Regular-L" transform="matrix(1 0 0 1 1378.56 1556)"><path d="M23.381 23.788  28.703 -36.681 Q29.509 -49.581 36.443 -59.821 Q43.376 -70.06 54.341 -75.865 V-48.13 Q54.341 -38.513 61.044 -31.792 Q67.746 -25.071 77.337 -25.071 Q87.075 -25.071 93.847 -31.792 Q100.62 -38.513 100.62 -48.13 V-75.865 Q111.424 -70.06 118.358 -59.821 Q125.291 -49.581 126.259 -36.681 L131.257 23.788 H23.381 Z M77.4 -34.746 Q71.815 -34.746 67.915 -38.645 Q64.016 -42.545 64.016 -48.13 V-73.93 Q64.016 -79.515 67.915 -83.495 Q71.815 -87.475 77.4 -87.475 Q82.985 -87.475 86.965 -83.495 Q90.945 -79.515 90.945 -73.93 V-48.13 Q90.945 -42.545 86.965 -38.645 Q82.985 -34.746 77.4 -34.746 Z"/></g><g id="Light-L" transform="matrix(1 0 0 1 1082.77 1556)"><path d="M26.917 20.562  31.928 -36.433 Q32.796 -49.333 40.102 -59.324 Q47.408 -69.316 58.745 -74.377 V-48.13 Q58.745 -40.374 64.176 -34.925 Q69.607 -29.475 77.337 -29.475 Q85.214 -29.475 90.715 -34.925 Q96.216 -40.374 96.216 -48.13 V-74.377 Q107.454 -69.316 114.729 -59.324 Q122.004 -49.333 123.096 -36.433 L127.784 20.562 H26.917 Z M77.4 -36.793 Q72.683 -36.793 69.373 -40.103 Q66.063 -43.413 66.063 -48.13 V-73.93 Q66.063 -78.647 69.373 -82.038 Q72.683 -85.428 77.4 -85.428 Q82.117 -85.428 85.508 -82.038 Q88.898 -78.647 88.898 -73.93 V-48.13 Q88.898 -43.413 85.508 -40.103 Q82.117 -36.793 77.4 -36.793 Z"/></g><g id="Thin-L" transform="matrix(1 0 0 1 787.282 1556)"><path d="M30.451 17.338  35.153 -36.185 Q36.083 -49.085 43.761 -58.828 Q51.439 -68.572 63.148 -72.888 V-48.13 Q63.148 -42.235 67.308 -38.056 Q71.467 -33.878 77.337 -33.878 Q83.354 -33.878 87.584 -38.056 Q91.813 -42.235 91.813 -48.13 V-72.888 Q103.485 -68.572 111.101 -58.828 Q118.717 -49.085 119.933 -36.185 L124.311 17.338 H30.451 Z M77.4 -38.839 Q73.551 -38.839 70.83 -41.56 Q68.109 -44.281 68.109 -48.13 V-73.93 Q68.109 -77.779 70.83 -80.58 Q73.551 -83.382 77.4 -83.382 Q81.249 -83.382 84.05 -80.58 Q86.852 -77.779 86.852 -73.93 V-48.13 Q86.852 -44.281 84.05 -41.56 Q81.249 -38.839 77.4 -38.839 Z"/></g><g id="Ultralight-L" transform="matrix(1 0 0 1 491.205 1556)"><path d="M32.572 15.403  37.087 -36.036 Q38.055 -48.936 45.956 -58.531 Q53.858 -68.125 65.79 -71.995 V-48.13 Q65.79 -43.351 69.187 -39.935 Q72.584 -36.52 77.337 -36.52 Q82.237 -36.52 85.704 -39.935 Q89.171 -43.351 89.171 -48.13 V-71.995 Q101.104 -68.125 108.924 -58.531 Q116.745 -48.936 118.035 -36.036 L122.228 15.403 H32.572 Z M77.4 -40.067 Q74.072 -40.067 71.705 -42.435 Q69.338 -44.802 69.338 -48.13 V-73.93 Q69.338 -77.258 71.705 -79.706 Q74.072 -82.154 77.4 -82.154 Q80.728 -82.154 83.176 -79.706 Q85.624 -77.258 85.624 -73.93 V-48.13 Q85.624 -44.802 83.176 -42.435 Q80.728 -40.067 77.4 -40.067 Z"/></g><g id="Bold-M" transform="matrix(1 0 0 1 2281.8 1126)"><path d="M15.75 12.895  19.875 -36.355 Q20.625 -47.105 26.438 -55.605 Q32.25 -64.105 41.125 -68.855 V-45.23 Q41.125 -37.363 46.631 -31.859 Q52.138 -26.355 60.008 -26.355 Q67.875 -26.355 73.375 -31.859 Q78.875 -37.363 78.875 -45.23 V-68.855 Q87.75 -64.105 93.562 -55.605 Q99.375 -47.105 100.125 -36.355 L104.25 12.895 H15.75 Z M60.026 -36.355 Q56.295 -36.355 53.71 -38.921 Q51.125 -41.488 51.125 -45.23 V-65.23 Q51.125 -68.972 53.684 -71.539 Q56.242 -74.105 59.974 -74.105 Q63.705 -74.105 66.29 -71.539 Q68.875 -68.972 68.875 -65.23 V-45.23 Q68.875 -41.488 66.316 -38.921 Q63.758 -36.355 60.026 -36.355 Z"/></g><g id="Semibold-M" transform="matrix(1 0 0 1 1985.97 1126)"><path d="M16.402 12.243  20.527 -36.355 Q21.277 -46.888 26.954 -55.225 Q32.63 -63.561 41.342 -68.203 V-45.23 Q41.342 -37.488 46.795 -32.03 Q52.248 -26.572 59.983 -26.572 Q67.766 -26.572 73.212 -32.03 Q78.658 -37.488 78.658 -45.23 V-68.203 Q87.37 -63.561 93.046 -55.225 Q98.723 -46.888 99.473 -36.355 L103.543 12.243 H16.402 Z M60.015 -36.572 Q56.404 -36.572 53.873 -39.093 Q51.342 -41.613 51.342 -45.23 V-65.23 Q51.342 -68.847 53.858 -71.367 Q56.374 -73.888 59.985 -73.888 Q63.596 -73.888 66.127 -71.367 Q68.658 -68.847 68.658 -65.23 V-45.23 Q68.658 -41.613 66.142 -39.093 Q63.626 -36.572 60.015 -36.572 Z"/></g><g id="Medium-M" transform="matrix(1 0 0 1 1689.91 1126)"><path d="M16.891 11.754  21.016 -36.355 Q21.766 -46.725 27.341 -54.939 Q32.916 -63.154 41.505 -67.714 V-45.23 Q41.505 -37.581 46.918 -32.158 Q52.331 -26.735 59.965 -26.735 Q67.685 -26.735 73.09 -32.158 Q78.495 -37.581 78.495 -45.23 V-67.714 Q87.084 -63.154 92.659 -54.939 Q98.234 -46.725 98.984 -36.355 L103.014 11.754 H16.891 Z M60.006 -36.735 Q56.486 -36.735 53.995 -39.221 Q51.505 -41.706 51.505 -45.23 V-65.23 Q51.505 -68.753 53.989 -71.239 Q56.473 -73.725 59.994 -73.725 Q63.514 -73.725 66.004 -71.239 Q68.495 -68.753 68.495 -65.23 V-45.23 Q68.495 -41.706 66.011 -39.221 Q63.527 -36.735 60.006 -36.735 Z"/></g><g id="Regular-M" transform="matrix(1 0 0 1 1394.06 1126)"><path d="M17.25 11.395  21.375 -36.355 Q22.125 -46.605 27.625 -54.73 Q33.125 -62.855 41.625 -67.355 V-45.23 Q41.625 -37.65 47.008 -32.253 Q52.392 -26.855 59.951 -26.855 Q67.625 -26.855 73 -32.253 Q78.375 -37.65 78.375 -45.23 V-67.355 Q86.875 -62.855 92.375 -54.73 Q97.875 -46.605 98.625 -36.355 L102.625 11.395 H17.25 Z M60 -36.855 Q56.545 -36.855 54.085 -39.315 Q51.625 -41.775 51.625 -45.23 V-65.23 Q51.625 -68.685 54.085 -71.145 Q56.545 -73.605 60 -73.605 Q63.455 -73.605 65.915 -71.145 Q68.375 -68.685 68.375 -65.23 V-45.23 Q68.375 -41.775 65.915 -39.315 Q63.455 -36.855 60 -36.855 Z"/></g><g id="Light-M" transform="matrix(1 0 0 1 1098.18 1126)"><path d="M19.991 8.895  23.875 -36.163 Q24.673 -46.509 30.558 -54.514 Q36.443 -62.518 45.375 -66.393 V-45.23 Q45.375 -39.189 49.653 -34.897 Q53.93 -30.605 59.951 -30.605 Q66.038 -30.605 70.332 -34.897 Q74.625 -39.189 74.625 -45.23 V-66.393 Q83.606 -62.518 89.466 -54.514 Q95.327 -46.509 96.173 -36.163 L99.933 8.895 H19.991 Z M60 -38.105 Q57.026 -38.105 54.951 -40.181 Q52.875 -42.256 52.875 -45.23 V-65.23 Q52.875 -68.204 54.951 -70.279 Q57.026 -72.355 60 -72.355 Q62.974 -72.355 65.049 -70.279 Q67.125 -68.204 67.125 -65.23 V-45.23 Q67.125 -42.256 65.049 -40.181 Q62.974 -38.105 60 -38.105 Z"/></g><g id="Thin-M" transform="matrix(1 0 0 1 802.565 1126)"><path d="M22.731 6.395  26.375 -35.97 Q27.221 -46.413 33.49 -54.297 Q39.76 -62.182 49.125 -65.432 V-45.23 Q49.125 -40.727 52.297 -37.541 Q55.468 -34.355 59.951 -34.355 Q64.452 -34.355 67.663 -37.541 Q70.875 -40.727 70.875 -45.23 V-65.432 Q80.337 -62.182 86.558 -54.297 Q92.779 -46.413 93.721 -35.97 L97.24 6.395 H22.731 Z M60 -39.355 Q57.507 -39.355 55.816 -41.046 Q54.125 -42.737 54.125 -45.23 V-65.23 Q54.125 -67.723 55.816 -69.414 Q57.507 -71.105 60 -71.105 Q62.493 -71.105 64.184 -69.414 Q65.875 -67.723 65.875 -65.23 V-45.23 Q65.875 -42.737 64.184 -41.046 Q62.493 -39.355 60 -39.355 Z"/></g><g id="Ultralight-M" transform="matrix(1 0 0 1 506.415 1126)"><path d="M24.375 4.895  27.875 -35.855 Q28.75 -46.355 35.25 -54.167 Q41.75 -61.98 51.375 -64.855 V-45.23 Q51.375 -41.65 53.883 -39.128 Q56.392 -36.605 59.951 -36.605 Q63.5 -36.605 66.062 -39.128 Q68.625 -41.65 68.625 -45.23 V-64.855 Q78.375 -61.98 84.812 -54.167 Q91.25 -46.355 92.25 -35.855 L95.625 4.895 H24.375 Z M60 -40.105 Q57.795 -40.105 56.335 -41.565 Q54.875 -43.025 54.875 -45.23 V-65.23 Q54.875 -67.435 56.335 -68.895 Q57.795 -70.355 60 -70.355 Q62.205 -70.355 63.665 -68.895 Q65.125 -67.435 65.125 -65.23 V-45.23 Q65.125 -43.025 63.665 -41.565 Q62.205 -40.105 60 -40.105 Z"/></g><g id="Bold-S" transform="matrix(1 0 0 1 2294.23 696)"><path d="M10.75 0.374  14.892 -37.005 Q15.484 -45.586 20.514 -52.341 Q25.544 -59.097 32.842 -63.042 V-42.331 Q32.842 -36.222 37.039 -32.028 Q41.235 -27.833 47.347 -27.833 Q53.356 -27.833 57.597 -32.028 Q61.838 -36.222 61.838 -42.331 V-63.042 Q69.136 -59.097 74.166 -52.341 Q79.196 -45.586 79.788 -37.005 L84.029 0.374 H10.75 Z M47.361 -34.934 Q44.22 -34.934 42.081 -37.058 Q39.943 -39.181 39.943 -42.331 V-56.533 Q39.943 -59.683 42.061 -61.806 Q44.178 -63.93 47.319 -63.93 Q50.46 -63.93 52.599 -61.806 Q54.737 -59.683 54.737 -56.533 V-42.331 Q54.737 -39.181 52.619 -37.058 Q50.502 -34.934 47.361 -34.934 Z"/></g><g id="Semibold-S" transform="matrix(1 0 0 1 1998.1 696)"><path d="M11.265 -0.141  15.407 -37.005 Q15.999 -45.414 20.921 -52.041 Q25.844 -58.668 33.014 -62.528 V-42.331 Q33.014 -36.321 37.168 -32.163 Q41.322 -28.005 47.327 -28.005 Q53.27 -28.005 57.468 -32.163 Q61.666 -36.321 61.666 -42.331 V-62.528 Q68.836 -58.668 73.759 -52.041 Q78.681 -45.414 79.273 -37.005 L83.471 -0.141 H11.265 Z M47.352 -35.106 Q44.306 -35.106 42.21 -37.193 Q40.115 -39.28 40.115 -42.331 V-56.533 Q40.115 -59.584 42.198 -61.671 Q44.282 -63.758 47.328 -63.758 Q50.374 -63.758 52.47 -61.671 Q54.565 -59.584 54.565 -56.533 V-42.331 Q54.565 -39.28 52.482 -37.193 Q50.398 -35.106 47.352 -35.106 Z"/></g><g id="Medium-S" transform="matrix(1 0 0 1 1701.85 696)"><path d="M11.651 -0.527  15.793 -37.005 Q16.385 -45.286 21.227 -51.816 Q26.069 -58.347 33.142 -62.142 V-42.331 Q33.142 -36.395 37.265 -32.264 Q41.388 -28.133 47.312 -28.133 Q53.206 -28.133 57.372 -32.264 Q61.538 -36.395 61.538 -42.331 V-62.142 Q68.611 -58.347 73.453 -51.816 Q78.295 -45.286 78.887 -37.005 L83.053 -0.527 H11.651 Z M47.345 -35.234 Q44.37 -35.234 42.307 -37.294 Q40.243 -39.354 40.243 -42.331 V-56.533 Q40.243 -59.51 42.302 -61.57 Q44.36 -63.63 47.335 -63.63 Q50.31 -63.63 52.373 -61.57 Q54.437 -59.51 54.437 -56.533 V-42.331 Q54.437 -39.354 52.378 -37.294 Q50.32 -35.234 47.345 -35.234 Z"/></g><g id="Regular-S" transform="matrix(1 0 0 1 1405.73 696)"><path d="M11.934 -0.81  16.076 -37.005 Q16.668 -45.191 21.451 -51.651 Q26.234 -58.111 33.237 -61.859 V-42.331 Q33.237 -36.449 37.336 -32.338 Q41.436 -28.228 47.301 -28.228 Q53.159 -28.228 57.301 -32.338 Q61.443 -36.449 61.443 -42.331 V-61.859 Q68.446 -58.111 73.229 -51.651 Q78.012 -45.191 78.604 -37.005 L82.746 -0.81 H11.934 Z M47.34 -35.329 Q44.417 -35.329 42.377 -37.368 Q40.338 -39.408 40.338 -42.331 V-56.533 Q40.338 -59.456 42.377 -61.496 Q44.417 -63.535 47.34 -63.535 Q50.263 -63.535 52.303 -61.496 Q54.342 -59.456 54.342 -56.533 V-42.331 Q54.342 -39.408 52.303 -37.368 Q50.263 -35.329 47.34 -35.329 Z"/></g><g id="Light-S" transform="matrix(1 0 0 1 1109.75 696)"><path d="M14.096 -2.782  18.048 -36.853 Q18.678 -45.115 23.765 -51.48 Q28.852 -57.845 36.196 -61.1 V-42.331 Q36.196 -37.663 39.422 -34.425 Q42.649 -31.187 47.301 -31.187 Q51.907 -31.187 55.196 -34.425 Q58.484 -37.663 58.484 -42.331 V-61.1 Q65.866 -57.845 70.934 -51.48 Q76.002 -45.115 76.669 -36.853 L80.622 -2.782 H14.096 Z M47.34 -36.315 Q44.796 -36.315 43.06 -38.051 Q41.324 -39.787 41.324 -42.331 V-56.533 Q41.324 -59.077 43.06 -60.813 Q44.796 -62.549 47.34 -62.549 Q49.884 -62.549 51.62 -60.813 Q53.356 -59.077 53.356 -56.533 V-42.331 Q53.356 -39.787 51.62 -38.051 Q49.884 -36.315 47.34 -36.315 Z"/></g><g id="Thin-S" transform="matrix(1 0 0 1 814.015 696)"><path d="M16.258 -4.755  20.021 -36.702 Q20.688 -45.039 26.079 -51.31 Q31.469 -57.58 39.154 -60.341 V-42.331 Q39.154 -38.877 41.509 -36.511 Q43.863 -34.145 47.301 -34.145 Q50.655 -34.145 53.091 -36.511 Q55.526 -38.877 55.526 -42.331 V-60.341 Q63.287 -57.58 68.639 -51.31 Q73.992 -45.039 74.735 -36.702 L78.498 -4.755 H16.258 Z M47.34 -37.301 Q45.176 -37.301 43.743 -38.734 Q42.31 -40.167 42.31 -42.331 V-56.533 Q42.31 -58.697 43.743 -60.13 Q45.176 -61.563 47.34 -61.563 Q49.504 -61.563 50.937 -60.13 Q52.37 -58.697 52.37 -56.533 V-42.331 Q52.37 -40.167 50.937 -38.734 Q49.504 -37.301 47.34 -37.301 Z"/></g><g id="Ultralight-S" transform="matrix(1 0 0 1 517.792 696)"><path d="M17.555 -5.938  21.204 -36.611 Q21.895 -44.994 27.467 -51.207 Q33.039 -57.421 40.929 -59.886 V-42.331 Q40.929 -39.605 42.76 -37.763 Q44.592 -35.92 47.301 -35.92 Q49.904 -35.92 51.827 -37.763 Q53.751 -39.605 53.751 -42.331 V-59.886 Q61.739 -57.421 67.262 -51.207 Q72.785 -44.994 73.574 -36.611 L77.223 -5.938 H17.555 Z M47.34 -37.893 Q45.403 -37.893 44.153 -39.144 Q42.902 -40.394 42.902 -42.331 V-56.533 Q42.902 -58.47 44.153 -59.72 Q45.403 -60.971 47.34 -60.971 Q49.277 -60.971 50.527 -59.72 Q51.778 -58.47 51.778 -56.533 V-42.331 Q51.778 -40.394 50.527 -39.144 Q49.277 -37.893 47.34 -37.893 Z"/></g></g></svg>