<svg xmlns="http://www.w3.org/2000/svg" height="24" viewBox="0 -960 960 960" width="24"><path d="M77.935-587.848H49.174q-21.898 0-37.33-15.519-15.431-15.519-15.431-37.548 0-21.927 15.5-37.31 15.5-15.384 37.5-15.384h81.522q21.898 0 37.329 15.432 15.432 15.431 15.432 37.329v321.696q0 21.898-15.404 37.329-15.403 15.432-37.261 15.432-21.857 0-37.477-15.5-15.62-15.5-15.62-37.5v-268.457Zm707.304 214.326-38.043 77.131q-7.239 14-19.889 22-12.649 8-27.829 8-30.635 0-46.557-25.979-15.921-25.978-1.682-52.456L721.043-484l-64.804-130.935q-13.478-26.478 2.124-52.576t45.447-26.098q16.934 0 30.379 8.409 13.445 8.408 20.768 23.352l32.282 70.891 33.804-72.652q6.479-14 19.553-22 13.075-8 28.165-8 30.752 0 46.854 25.979 16.102 25.978 1.624 52.456l-65.804 130.935 69.804 138.174q14.239 27.478-1.88 53.576-16.12 26.098-46.691 26.098-15.814 0-28.939-7.909-13.124-7.908-20.446-22.091l-38.044-77.131ZM481.565-266.391h-92.348q-21.898 0-37.329-15.471-15.432-15.471-15.432-37.429 0-21.855 15.5-37.358 15.5-15.503 37.5-15.503h92.109v-54.087h-92.109q-22 0-37.5-15.5t-15.5-37.5v-161.609q0-21.898 15.432-37.329 15.431-15.432 37.329-15.432h145.348q21.899 0 37.33 15.404 15.431 15.403 15.431 37.261 0 21.857-15.431 37.477-15.431 15.619-37.33 15.619h-92.348v55.609h39.348q45.052 0 75.407 30.641 30.354 30.641 30.354 75.359v54.087q0 45.052-30.354 75.406-30.355 30.355-75.407 30.355Zm-220.773 0q-21.857 0-37.477-15.471-15.619-15.471-15.619-37.429 0-21.855 15.519-37.358 15.519-15.503 37.548-15.503 21.927 0 37.31 15.452 15.383 15.451 15.383 37.38 0 21.929-15.403 37.429-15.404 15.5-37.261 15.5Z"/></svg>