<svg xmlns="http://www.w3.org/2000/svg" height="40" viewBox="0 -960 960 960" width="40"><path d="M159.334-624h-51q-8.767 0-14.884-6.287-6.116-6.286-6.116-14.666t6.116-14.38q6.117-6 14.884-6h72q8.116 0 14.224 6.108 6.109 6.108 6.109 14.225v329.333q0 8.767-6.164 14.884-6.164 6.116-14.544 6.116t-14.503-6.116q-6.122-6.117-6.122-14.884V-624Zm584.333 182.666-71.001 130.667q-3.564 6.667-9.911 11-6.347 4.334-13.163 4.334-14.015 0-21.303-11.667Q621-318.667 626-331.333L712.667-494 644-628.333q-6.333-13 1.667-24.667 8-11.667 21.137-11.667 8.028 0 15.163 4.5t10.699 11.5L746-545l53.334-105q2.564-6 9.104-10.333 6.54-4.334 13.789-4.334 14.521 0 21.647 11.667 7.126 11.667 1.459 23.667l-69 133.333 86 163.333q6 14-1.809 25.667-7.809 11.667-22.181 11.667-7.179 0-14.074-3.844-6.894-3.843-10.269-11.49l-70.333-130.667ZM485.334-294.667H369.333q-8.116 0-14.224-6.286Q349-307.24 349-315.62q0-8.38 6.109-14.38 6.108-6 14.224-6h116.001q14 0 23-9.333t9-22.667v-59.334q0-13.333-9-22.666-9-9.334-23-9.334H369.333q-8.116 0-14.224-6.116Q349-471.567 349-480.333V-645q0-8.117 6.109-14.225 6.108-6.108 14.224-6.108h168.334q8.4 0 14.7 6.164 6.3 6.163 6.3 14.543 0 8.38-6.3 14.503-6.3 6.123-14.7 6.123H390.333v123.333h95.001q30.849 0 52.091 21.242t21.242 52.091V-368q0 30.85-21.242 52.092-21.242 21.241-52.091 21.241Zm-210.363 0q-8.058 0-14.181-6.286-6.123-6.287-6.123-14.667 0-8.38 6.283-14.38t14.658-6q7.725 0 14.059 6.164Q296-323.672 296-315.292t-6.485 14.502q-6.486 6.123-14.544 6.123Z"/></svg>