<svg xmlns="http://www.w3.org/2000/svg" version="1.1" width="3300" height="2000"><g id="Notes"><style>
    text {
      font-family: monospace;
      text-anchor: middle;
    }
    text.emphasis {
      font-weight:bold;
    }
    text.lanchor {
      text-anchor: start;
    }
  </style><rect height="2200" id="artboard" fill="white" width="3300" x="0" y="0"/><line id="" style="fill:none;stroke:black;stroke-width:0.5;" x1="263" x2="3036" y1="292" y2="292"/><text class="lanchor emphasis" transform="matrix(1 0 0 1 263 322)">Weight/Scale Variations</text><text transform="matrix(1 0 0 1 559.711 322)">Ultralight</text><text transform="matrix(1 0 0 1 856.422 322)">Thin</text><text transform="matrix(1 0 0 1 1153.13 322)">Light</text><text transform="matrix(1 0 0 1 1449.84 322)">Regular</text><text transform="matrix(1 0 0 1 1746.56 322)">Medium</text><text transform="matrix(1 0 0 1 2043.27 322)">Semibold</text><text transform="matrix(1 0 0 1 2339.98 322)">Bold</text><text transform="matrix(1 0 0 1 2636.69 322)">Heavy</text><text transform="matrix(1 0 0 1 2933.4 322)">Black</text><text id="template-version" style="text-anchor: end;" transform="matrix(1 0 0 1 3036 1933)">Template v.1.0</text><text class="lanchor" transform="matrix(1 0 0 1 263 726)">Small</text><text class="lanchor" transform="matrix(1 0 0 1 263 1156)">Medium</text><text class="lanchor" transform="matrix(1 0 0 1 263 1586)">Large</text></g><g id="Guides"><g id="H-reference" style="fill:#27AAE1;stroke:none;" transform="matrix(1 0 0 1 339 696)"><path d="M 54.9316 0 L 57.666 0 L 30.5664 -70.459 L 28.0762 -70.459 L 0.976562 0 L 3.66211 0 L 12.9395 -24.4629 L 45.7031 -24.4629 Z M 29.1992 -67.0898 L 29.4434 -67.0898 L 44.8242 -26.709 L 13.8184 -26.709 Z"/></g><line id="Baseline-S" style="fill:none;stroke:#27AAE1;opacity:1;stroke-width:0.577;" x1="263" x2="3036" y1="696" y2="696"/><line id="Capline-S" style="fill:none;stroke:#27AAE1;opacity:1;stroke-width:0.577;" x1="263" x2="3036" y1="625.541" y2="625.541"/><g id="H-reference" style="fill:#27AAE1;stroke:none;" transform="matrix(1 0 0 1 339 1126)"><path d="M 54.9316 0 L 57.666 0 L 30.5664 -70.459 L 28.0762 -70.459 L 0.976562 0 L 3.66211 0 L 12.9395 -24.4629 L 45.7031 -24.4629 Z M 29.1992 -67.0898 L 29.4434 -67.0898 L 44.8242 -26.709 L 13.8184 -26.709 Z"/></g><line id="Baseline-M" style="fill:none;stroke:#27AAE1;opacity:1;stroke-width:0.577;" x1="263" x2="3036" y1="1126" y2="1126"/><line id="Capline-M" style="fill:none;stroke:#27AAE1;opacity:1;stroke-width:0.577;" x1="263" x2="3036" y1="1055.54" y2="1055.54"/><g id="H-reference" style="fill:#27AAE1;stroke:none;" transform="matrix(1 0 0 1 339 1556)"><path d="M 54.9316 0 L 57.666 0 L 30.5664 -70.459 L 28.0762 -70.459 L 0.976562 0 L 3.66211 0 L 12.9395 -24.4629 L 45.7031 -24.4629 Z M 29.1992 -67.0898 L 29.4434 -67.0898 L 44.8242 -26.709 L 13.8184 -26.709 Z"/></g><line id="Baseline-L" style="fill:none;stroke:#27AAE1;opacity:1;stroke-width:0.577;" x1="263" x2="3036" y1="1556" y2="1556"/><line id="Capline-L" style="fill:none;stroke:#27AAE1;opacity:1;stroke-width:0.577;" x1="263" x2="3036" y1="1485.54" y2="1485.54"/><rect height="119.336" id="left-margin" style="fill:darkred;stroke:none;opacity:0.4;" width="12.4512" x="1394.06" y="1030.79"/><rect height="119.336" id="right-margin" style="fill:darkgreen;stroke:none;opacity:0.4;" width="12.4512" x="1502.5112" y="1030.79"/><rect x="1406.5112" y="1045" width="96" height="96" fill="none" stroke="blue" stroke-dasharray="5"/><rect x="1394.06" y="1030.79" width="120.9024" height="119.336" fill="none" stroke="blue"/></g><g id="Symbols"><g id="Bold-L" transform="matrix(1 0 0 1 2266 1556)"><path d="M108.844 40.316 Q107.07 40.316 105.901 39.147 Q104.732 37.978 104.732 36.043 Q104.732 34.269 105.901 33.059 Q107.07 31.85 108.844 31.85 H128.113 V21.772 H108.844 Q107.07 21.772 105.901 20.603 Q104.732 19.434 104.732 17.499 Q104.732 15.725 105.901 14.516 Q107.07 13.306 108.844 13.306 H128.113 V3.228 H108.844 Q107.07 3.228 105.901 2.059 Q104.732 0.89 104.732 -1.045 Q104.732 -2.819 105.901 -4.028 Q107.07 -5.237 108.844 -5.237 H128.113 V-15.316 H108.844 Q107.07 -15.316 105.901 -16.485 Q104.732 -17.654 104.732 -19.589 Q104.732 -21.362 105.901 -22.572 Q107.07 -23.781 108.844 -23.781 H128.113 V-33.859 H108.844 Q107.07 -33.859 105.901 -35.028 Q104.732 -36.197 104.732 -38.132 Q104.732 -39.906 105.901 -41.116 Q107.07 -42.325 108.844 -42.325 H128.113 V-52.403 H108.844 Q107.07 -52.403 105.901 -53.572 Q104.732 -54.741 104.732 -56.676 Q104.732 -58.45 105.901 -59.659 Q107.07 -60.869 108.844 -60.869 H133.515 Q137.909 -60.869 141.033 -57.745 Q144.157 -54.62 144.157 -50.226 V29.593 Q144.157 33.987 141.033 37.151 Q137.909 40.316 133.515 40.316 H108.844 Z M51.571 -16.847 Q62.323 -16.847 70.063 -27.348 Q77.803 -37.849 77.803 -52.624 Q77.803 -67.238 70.092 -77.8 Q62.38 -88.362 51.629 -88.362 Q40.877 -88.362 33.258 -77.821 Q25.639 -67.28 25.639 -52.666 Q25.639 -37.891 33.229 -27.369 Q40.82 -16.847 51.571 -16.847 Z M51.6 40.316 Q44.021 40.316 39.587 34.833 Q35.153 29.351 35.878 22.094 L38.861 -4.673 Q26.526 -9.511 18.624 -22.572 Q10.723 -35.633 10.723 -52.645 Q10.723 -73.688 22.656 -88.483 Q34.588 -103.277 51.6 -103.277 Q68.612 -103.277 80.585 -88.483 Q92.558 -73.688 92.558 -52.645 Q92.558 -35.633 84.535 -22.572 Q76.513 -9.511 64.258 -4.673 L67.322 22.256 Q68.047 29.512 63.532 34.914 Q59.017 40.316 51.6 40.316 Z"/></g><g id="Semibold-L" transform="matrix(1 0 0 1 1970.27 1556)"><path d="M107.792 38.212 Q106.229 38.212 105.2 37.184 Q104.171 36.155 104.171 34.5 Q104.171 32.937 105.2 31.868 Q106.229 30.798 107.792 30.798 H128.604 V20.72 H107.792 Q106.229 20.72 105.2 19.691 Q104.171 18.663 104.171 17.008 Q104.171 15.445 105.2 14.375 Q106.229 13.306 107.792 13.306 H128.604 V3.228 H107.792 Q106.229 3.228 105.2 2.199 Q104.171 1.17 104.171 -0.484 Q104.171 -2.048 105.2 -3.117 Q106.229 -4.186 107.792 -4.186 H128.604 V-14.264 H107.792 Q106.229 -14.264 105.2 -15.293 Q104.171 -16.322 104.171 -17.976 Q104.171 -19.54 105.2 -20.609 Q106.229 -21.678 107.792 -21.678 H128.604 V-31.756 H107.792 Q106.229 -31.756 105.2 -32.785 Q104.171 -33.814 104.171 -35.468 Q104.171 -37.032 105.2 -38.101 Q106.229 -39.17 107.792 -39.17 H128.604 V-49.248 H107.792 Q106.229 -49.248 105.2 -50.277 Q104.171 -51.306 104.171 -52.961 Q104.171 -54.524 105.2 -55.593 Q106.229 -56.663 107.792 -56.663 H132.954 Q137.138 -56.663 140.122 -53.678 Q143.106 -50.695 143.106 -46.511 V28.05 Q143.106 32.234 140.122 35.223 Q137.138 38.212 132.954 38.212 H107.792 Z M51.571 -14.955 Q62.884 -14.955 71.01 -25.876 Q79.135 -36.798 79.135 -52.063 Q79.135 -67.238 71.038 -78.221 Q62.941 -89.203 51.629 -89.203 Q40.316 -89.203 32.276 -78.242 Q24.237 -67.28 24.237 -52.105 Q24.237 -36.839 32.248 -25.897 Q40.259 -14.955 51.571 -14.955 Z M51.6 38.212 Q44.652 38.212 40.498 33.151 Q36.344 28.089 37.07 21.393 L39.983 -4.743 Q27.647 -9.3 19.711 -22.256 Q11.775 -35.212 11.775 -52.084 Q11.775 -72.707 23.392 -87.186 Q35.009 -101.665 51.6 -101.665 Q68.191 -101.665 79.849 -87.186 Q91.506 -72.707 91.506 -52.084 Q91.506 -35.212 83.449 -22.256 Q75.391 -9.3 63.136 -4.743 L66.13 21.485 Q66.856 28.18 62.656 33.196 Q58.457 38.212 51.6 38.212 Z"/></g><g id="Medium-L" transform="matrix(1 0 0 1 1674.31 1556)"><path d="M107.003 36.635 Q105.598 36.635 104.674 35.711 Q103.75 34.788 103.75 33.343 Q103.75 31.938 104.674 30.974 Q105.598 30.01 107.003 30.01 H128.972 V19.932 H107.003 Q105.598 19.932 104.674 19.008 Q103.75 18.084 103.75 16.64 Q103.75 15.234 104.674 14.27 Q105.598 13.306 107.003 13.306 H128.972 V3.228 H107.003 Q105.598 3.228 104.674 2.304 Q103.75 1.381 103.75 -0.063 Q103.75 -1.469 104.674 -2.433 Q105.598 -3.397 107.003 -3.397 H128.972 V-13.475 H107.003 Q105.598 -13.475 104.674 -14.399 Q103.75 -15.323 103.75 -16.767 Q103.75 -18.173 104.674 -19.137 Q105.598 -20.101 107.003 -20.101 H128.972 V-30.179 H107.003 Q105.598 -30.179 104.674 -31.102 Q103.75 -32.026 103.75 -33.47 Q103.75 -34.876 104.674 -35.84 Q105.598 -36.804 107.003 -36.804 H128.972 V-46.882 H107.003 Q105.598 -46.882 104.674 -47.806 Q103.75 -48.73 103.75 -50.174 Q103.75 -51.579 104.674 -52.543 Q105.598 -53.507 107.003 -53.507 H132.533 Q136.559 -53.507 139.438 -50.629 Q142.317 -47.75 142.317 -43.724 V26.893 Q142.317 30.919 139.438 33.777 Q136.559 36.635 132.533 36.635 H107.003 Z M51.571 -13.535 Q63.305 -13.535 71.719 -24.772 Q80.134 -36.009 80.134 -51.643 Q80.134 -67.238 71.748 -78.536 Q63.362 -89.834 51.629 -89.834 Q39.895 -89.834 31.54 -78.557 Q23.185 -67.28 23.185 -51.684 Q23.185 -36.05 31.512 -24.793 Q39.838 -13.535 51.571 -13.535 Z M51.6 36.635 Q45.125 36.635 41.182 31.889 Q37.238 27.142 37.964 20.867 L40.824 -4.796 Q28.489 -9.142 20.526 -22.02 Q12.563 -34.897 12.563 -51.663 Q12.563 -71.97 23.944 -86.213 Q35.324 -100.456 51.6 -100.456 Q67.876 -100.456 79.296 -86.213 Q90.717 -71.97 90.717 -51.663 Q90.717 -34.897 82.634 -22.02 Q74.55 -9.142 62.295 -4.796 L65.236 20.906 Q65.962 27.181 61.999 31.908 Q58.036 36.635 51.6 36.635 Z"/></g><g id="Regular-L" transform="matrix(1 0 0 1 1378.56 1556)"><path d="M106.425 35.478 Q105.135 35.478 104.288 34.632 Q103.442 33.785 103.442 32.495 Q103.442 31.205 104.288 30.318 Q105.135 29.431 106.425 29.431 H129.242 V19.353 H106.425 Q105.135 19.353 104.288 18.507 Q103.442 17.66 103.442 16.37 Q103.442 15.08 104.288 14.193 Q105.135 13.306 106.425 13.306 H129.242 V3.228 H106.425 Q105.135 3.228 104.288 2.382 Q103.442 1.535 103.442 0.245 Q103.442 -1.045 104.288 -1.932 Q105.135 -2.819 106.425 -2.819 H129.242 V-12.897 H106.425 Q105.135 -12.897 104.288 -13.743 Q103.442 -14.59 103.442 -15.88 Q103.442 -17.17 104.288 -18.057 Q105.135 -18.944 106.425 -18.944 H129.242 V-29.022 H106.425 Q105.135 -29.022 104.288 -29.868 Q103.442 -30.715 103.442 -32.005 Q103.442 -33.295 104.288 -34.182 Q105.135 -35.069 106.425 -35.069 H129.242 V-45.147 H106.425 Q105.135 -45.147 104.288 -45.993 Q103.442 -46.84 103.442 -48.13 Q103.442 -49.42 104.288 -50.307 Q105.135 -51.194 106.425 -51.194 H132.225 Q136.135 -51.194 138.937 -48.392 Q141.739 -45.59 141.739 -41.68 V26.045 Q141.739 29.955 138.937 32.717 Q136.135 35.478 132.225 35.478 H106.425 Z M51.571 -12.494 Q63.613 -12.494 72.24 -23.962 Q80.867 -35.43 80.867 -51.334 Q80.867 -67.238 72.269 -78.767 Q63.67 -90.297 51.629 -90.297 Q39.587 -90.297 31 -78.788 Q22.414 -67.28 22.414 -51.376 Q22.414 -35.472 30.972 -23.983 Q39.53 -12.494 51.571 -12.494 Z M51.6 35.478 Q45.473 35.478 41.683 30.963 Q37.894 26.448 38.619 20.482 L41.441 -4.834 Q29.106 -9.027 21.124 -21.846 Q13.142 -34.666 13.142 -51.355 Q13.142 -71.431 24.349 -85.5 Q35.556 -99.569 51.6 -99.569 Q67.644 -99.569 78.892 -85.5 Q90.139 -71.431 90.139 -51.355 Q90.139 -34.666 82.036 -21.846 Q73.933 -9.027 61.678 -4.834 L64.581 20.482 Q65.306 26.448 61.517 30.963 Q57.727 35.478 51.6 35.478 Z"/></g><g id="Light-L" transform="matrix(1 0 0 1 1082.77 1556)"><path d="M104.564 28.594 Q103.463 28.594 102.863 27.993 Q102.263 27.392 102.263 26.29 Q102.263 25.189 102.863 24.534 Q103.463 23.88 104.564 23.88 H125.582 V14.081 H104.564 Q103.463 14.081 102.863 13.48 Q102.263 12.88 102.263 11.778 Q102.263 10.676 102.863 10.022 Q103.463 9.368 104.564 9.368 H125.582 V-0.431 H104.564 Q103.463 -0.431 102.863 -1.032 Q102.263 -1.633 102.263 -2.734 Q102.263 -3.836 102.863 -4.49 Q103.463 -5.145 104.564 -5.145 H125.582 V-14.944 H104.564 Q103.463 -14.944 102.863 -15.544 Q102.263 -16.145 102.263 -17.247 Q102.263 -18.348 102.863 -19.003 Q103.463 -19.657 104.564 -19.657 H125.582 V-29.456 H104.564 Q103.463 -29.456 102.863 -30.057 Q102.263 -30.657 102.263 -31.759 Q102.263 -32.861 102.863 -33.515 Q103.463 -34.169 104.564 -34.169 H125.582 V-43.968 H104.564 Q103.463 -43.968 102.863 -44.569 Q102.263 -45.17 102.263 -46.271 Q102.263 -47.373 102.863 -48.027 Q103.463 -48.682 104.564 -48.682 H127.883 Q131.515 -48.682 134.13 -45.756 Q136.746 -42.83 136.746 -39.199 V19.843 Q136.746 23.474 134.13 26.034 Q131.515 28.594 127.883 28.594 H104.564 Z M54.176 -13.455 Q65.815 -13.455 74.178 -24.644 Q82.541 -35.833 82.541 -51.334 Q82.541 -66.835 74.207 -78.101 Q65.872 -89.366 54.234 -89.366 Q42.595 -89.366 34.288 -78.122 Q25.98 -66.877 25.98 -51.376 Q25.98 -35.875 34.259 -24.665 Q42.538 -13.455 54.176 -13.455 Z M54.205 28.594 Q49.07 28.594 45.947 24.823 Q42.825 21.052 43.426 16.047 L46.062 -7.501 Q34.285 -11.043 26.597 -23.18 Q18.91 -35.317 18.91 -51.355 Q18.91 -70.118 29.188 -83.277 Q39.465 -96.437 54.19 -96.437 Q68.916 -96.437 79.264 -83.277 Q89.612 -70.118 89.612 -51.355 Q89.612 -35.317 81.819 -23.18 Q74.026 -11.043 62.298 -7.501 L64.984 16.047 Q65.554 21.052 62.434 24.823 Q59.313 28.594 54.205 28.594 Z"/></g><g id="Thin-L" transform="matrix(1 0 0 1 787.282 1556)"><path d="M102.704 21.71 Q101.792 21.71 101.439 21.355 Q101.085 21 101.085 20.087 Q101.085 19.173 101.439 18.752 Q101.792 18.33 102.704 18.33 H121.924 V8.81 H102.704 Q101.792 8.81 101.439 8.455 Q101.085 8.1 101.085 7.187 Q101.085 6.273 101.439 5.852 Q101.792 5.43 102.704 5.43 H121.924 V-4.09 H102.704 Q101.792 -4.09 101.439 -4.445 Q101.085 -4.8 101.085 -5.713 Q101.085 -6.627 101.439 -7.048 Q101.792 -7.47 102.704 -7.47 H121.924 V-16.99 H102.704 Q101.792 -16.99 101.439 -17.345 Q101.085 -17.7 101.085 -18.613 Q101.085 -19.527 101.439 -19.948 Q101.792 -20.37 102.704 -20.37 H121.924 V-29.89 H102.704 Q101.792 -29.89 101.439 -30.245 Q101.085 -30.6 101.085 -31.513 Q101.085 -32.427 101.439 -32.848 Q101.792 -33.27 102.704 -33.27 H121.924 V-42.79 H102.704 Q101.792 -42.79 101.439 -43.145 Q101.085 -43.5 101.085 -44.413 Q101.085 -45.327 101.439 -45.748 Q101.792 -46.17 102.704 -46.17 H123.542 Q126.895 -46.17 129.324 -43.12 Q131.754 -40.071 131.754 -36.718 V13.641 Q131.754 16.993 129.324 19.352 Q126.895 21.71 123.542 21.71 H102.704 Z M56.781 -14.416 Q68.017 -14.416 76.116 -25.326 Q84.216 -36.237 84.216 -51.334 Q84.216 -66.432 76.145 -77.434 Q68.073 -88.436 56.838 -88.436 Q45.603 -88.436 37.574 -77.455 Q29.546 -66.473 29.546 -51.376 Q29.546 -36.278 37.546 -25.347 Q45.546 -14.416 56.781 -14.416 Z M56.81 21.71 Q52.667 21.71 50.211 18.683 Q47.755 15.657 48.232 11.613 L50.682 -10.168 Q39.463 -13.058 32.07 -24.513 Q24.677 -35.968 24.677 -51.355 Q24.677 -68.805 34.026 -81.055 Q43.374 -93.305 56.78 -93.305 Q70.187 -93.305 79.636 -81.055 Q89.084 -68.805 89.084 -51.355 Q89.084 -35.968 81.602 -24.513 Q74.119 -13.058 62.918 -10.168 L65.387 11.613 Q65.802 15.657 63.35 18.683 Q60.898 21.71 56.81 21.71 Z"/></g><g id="Ultralight-L" transform="matrix(1 0 0 1 491.205 1556)"><path d="M101.588 17.579 Q100.789 17.579 100.584 17.372 Q100.378 17.165 100.378 16.364 Q100.378 15.564 100.584 15.282 Q100.789 14.999 101.588 14.999 H119.728 V5.647 H101.588 Q100.789 5.647 100.584 5.44 Q100.378 5.232 100.378 4.432 Q100.378 3.631 100.584 3.349 Q100.789 3.067 101.588 3.067 H119.728 V-6.286 H101.588 Q100.789 -6.286 100.584 -6.493 Q100.378 -6.7 100.378 -7.501 Q100.378 -8.301 100.584 -8.583 Q100.789 -8.866 101.588 -8.866 H119.728 V-18.218 H101.588 Q100.789 -18.218 100.584 -18.425 Q100.378 -18.633 100.378 -19.433 Q100.378 -20.234 100.584 -20.516 Q100.789 -20.798 101.588 -20.798 H119.728 V-30.151 H101.588 Q100.789 -30.151 100.584 -30.358 Q100.378 -30.565 100.378 -31.366 Q100.378 -32.166 100.584 -32.448 Q100.789 -32.731 101.588 -32.731 H119.728 V-42.083 H101.588 Q100.789 -42.083 100.584 -42.29 Q100.378 -42.498 100.378 -43.298 Q100.378 -44.099 100.584 -44.381 Q100.789 -44.663 101.588 -44.663 H120.938 Q124.122 -44.663 126.44 -41.539 Q128.758 -38.415 128.758 -35.23 V9.92 Q128.758 13.105 126.44 15.342 Q124.122 17.579 120.938 17.579 H101.588 Z M58.344 -14.993 Q69.338 -14.993 77.279 -25.736 Q85.221 -36.478 85.221 -51.334 Q85.221 -66.19 77.308 -77.034 Q69.395 -87.878 58.401 -87.878 Q47.407 -87.878 39.547 -77.055 Q31.686 -66.232 31.686 -51.376 Q31.686 -36.52 39.518 -25.757 Q47.35 -14.993 58.344 -14.993 Z M58.373 17.579 Q54.825 17.579 52.769 14.999 Q50.713 12.419 51.116 8.953 L53.454 -11.768 Q42.57 -14.267 35.354 -25.313 Q28.138 -36.359 28.138 -51.355 Q28.138 -68.017 36.929 -79.722 Q45.719 -91.426 58.335 -91.426 Q70.95 -91.426 79.859 -79.722 Q88.768 -68.017 88.768 -51.355 Q88.768 -36.359 81.472 -25.313 Q74.175 -14.267 63.291 -11.768 L65.629 8.953 Q65.951 12.419 63.9 14.999 Q61.85 17.579 58.373 17.579 Z"/></g><g id="Bold-M" transform="matrix(1 0 0 1 2281.8 1126)"><path d="M82.5 24.458 Q80.188 24.458 78.375 22.645 Q76.562 20.833 76.562 18.52 Q76.562 16.083 78.375 14.333 Q80.188 12.583 82.5 12.583 H94.062 V6.958 H82.5 Q80.188 6.958 78.375 5.145 Q76.562 3.333 76.562 1.02 Q76.562 -1.417 78.375 -3.167 Q80.188 -4.917 82.5 -4.917 H94.062 V-10.542 H82.5 Q80.188 -10.542 78.375 -12.355 Q76.562 -14.167 76.562 -16.48 Q76.562 -18.917 78.375 -20.667 Q80.188 -22.417 82.5 -22.417 H94.062 V-28.042 H82.5 Q80.188 -28.042 78.375 -29.855 Q76.562 -31.667 76.562 -33.98 Q76.562 -36.417 78.375 -38.167 Q80.188 -39.917 82.5 -39.917 H94.062 V-45.542 H82.5 Q80.188 -45.542 78.375 -47.355 Q76.562 -49.167 76.562 -51.48 Q76.562 -53.917 78.375 -55.667 Q80.188 -57.417 82.5 -57.417 H94.062 V-63.042 H82.5 Q80.188 -63.042 78.375 -64.855 Q76.562 -66.667 76.562 -68.98 Q76.562 -71.417 78.375 -73.167 Q80.188 -74.917 82.5 -74.917 H101.25 Q105.875 -74.917 109.031 -71.761 Q112.188 -68.605 112.188 -63.98 V13.52 Q112.188 18.02 109.031 21.239 Q105.875 24.458 101.25 24.458 H82.5 Z M40 -24.417 Q47 -24.417 52.031 -31.699 Q57.062 -38.98 57.062 -48.98 Q57.062 -58.98 52.031 -66.261 Q47 -73.542 40 -73.542 Q33 -73.542 27.969 -66.261 Q22.938 -58.98 22.938 -48.98 Q22.938 -38.98 27.969 -31.699 Q33 -24.417 40 -24.417 Z M40 24.458 Q32.75 24.458 28.438 19.145 Q24.125 13.833 24.875 7.02 L27.188 -12.667 Q18.625 -17.23 13.219 -27.011 Q7.812 -36.792 7.812 -48.98 Q7.812 -65.605 17.219 -77.136 Q26.625 -88.667 40 -88.667 Q53.375 -88.667 62.781 -77.136 Q72.188 -65.605 72.188 -48.98 Q72.188 -36.792 66.781 -27.011 Q61.375 -17.23 52.812 -12.667 L55.125 7.145 Q55.875 13.958 51.438 19.208 Q47 24.458 40 24.458 Z"/></g><g id="Semibold-M" transform="matrix(1 0 0 1 1985.97 1126)"><path d="M81.413 22.284 Q79.264 22.284 77.641 20.662 Q76.019 19.039 76.019 16.89 Q76.019 14.67 77.641 13.083 Q79.264 11.496 81.413 11.496 H94.606 V5.871 H81.413 Q79.264 5.871 77.641 4.248 Q76.019 2.626 76.019 0.477 Q76.019 -1.744 77.641 -3.33 Q79.264 -4.917 81.413 -4.917 H94.606 V-10.542 H81.413 Q79.264 -10.542 77.641 -12.165 Q76.019 -13.787 76.019 -15.936 Q76.019 -18.157 77.641 -19.744 Q79.264 -21.331 81.413 -21.331 H94.606 V-26.956 H81.413 Q79.264 -26.956 77.641 -28.578 Q76.019 -30.2 76.019 -32.35 Q76.019 -34.57 77.641 -36.157 Q79.264 -37.744 81.413 -37.744 H94.606 V-43.369 H81.413 Q79.264 -43.369 77.641 -44.991 Q76.019 -46.613 76.019 -48.763 Q76.019 -50.983 77.641 -52.57 Q79.264 -54.157 81.413 -54.157 H94.606 V-59.782 H81.413 Q79.264 -59.782 77.641 -61.404 Q76.019 -63.026 76.019 -65.176 Q76.019 -67.396 77.641 -68.983 Q79.264 -70.57 81.413 -70.57 H100.707 Q105.06 -70.57 108.08 -67.55 Q111.101 -64.529 111.101 -60.176 V11.89 Q111.101 16.172 108.08 19.228 Q105.06 22.284 100.707 22.284 H81.413 Z M40 -22.461 Q47.598 -22.461 53.037 -30.15 Q58.475 -37.839 58.475 -48.436 Q58.475 -59.034 53.037 -66.723 Q47.598 -74.412 40 -74.412 Q32.402 -74.412 26.963 -66.723 Q21.524 -59.034 21.524 -48.436 Q21.524 -37.839 26.963 -30.15 Q32.402 -22.461 40 -22.461 Z M40 22.284 Q33.402 22.284 29.389 17.433 Q25.375 12.583 26.125 6.259 L28.329 -12.722 Q19.766 -17.013 14.333 -26.658 Q8.899 -36.303 8.899 -48.436 Q8.899 -64.572 17.98 -75.805 Q27.06 -87.037 40 -87.037 Q52.94 -87.037 62.02 -75.805 Q71.101 -64.572 71.101 -48.436 Q71.101 -36.303 65.667 -26.658 Q60.234 -17.013 51.671 -12.722 L53.875 6.33 Q54.625 12.653 50.541 17.469 Q46.456 22.284 40 22.284 Z"/></g><g id="Medium-M" transform="matrix(1 0 0 1 1689.91 1126)"><path d="M80.598 20.653 Q78.571 20.653 77.091 19.174 Q75.611 17.694 75.611 15.667 Q75.611 13.61 77.091 12.145 Q78.571 10.68 80.598 10.68 H95.014 V5.055 H80.598 Q78.571 5.055 77.091 3.576 Q75.611 2.096 75.611 0.069 Q75.611 -1.988 77.091 -3.453 Q78.571 -4.917 80.598 -4.917 H95.014 V-10.542 H80.598 Q78.571 -10.542 77.091 -12.022 Q75.611 -13.502 75.611 -15.529 Q75.611 -17.586 77.091 -19.051 Q78.571 -20.515 80.598 -20.515 H95.014 V-26.14 H80.598 Q78.571 -26.14 77.091 -27.62 Q75.611 -29.1 75.611 -31.127 Q75.611 -33.184 77.091 -34.648 Q78.571 -36.113 80.598 -36.113 H95.014 V-41.738 H80.598 Q78.571 -41.738 77.091 -43.218 Q75.611 -44.697 75.611 -46.725 Q75.611 -48.782 77.091 -50.246 Q78.571 -51.711 80.598 -51.711 H95.014 V-57.336 H80.598 Q78.571 -57.336 77.091 -58.816 Q75.611 -60.295 75.611 -62.322 Q75.611 -64.379 77.091 -65.844 Q78.571 -67.309 80.598 -67.309 H100.299 Q104.448 -67.309 107.367 -64.39 Q110.285 -61.472 110.285 -57.322 V10.667 Q110.285 14.786 107.367 17.72 Q104.448 20.653 100.299 20.653 H80.598 Z M40 -20.994 Q48.046 -20.994 53.791 -28.988 Q59.535 -36.983 59.535 -48.029 Q59.535 -59.075 53.791 -67.07 Q48.046 -75.064 40 -75.064 Q31.954 -75.064 26.209 -67.07 Q20.465 -59.075 20.465 -48.029 Q20.465 -36.983 26.209 -28.988 Q31.954 -20.994 40 -20.994 Z M40 20.653 Q33.891 20.653 30.102 16.149 Q26.312 11.645 27.062 5.689 L29.185 -12.763 Q20.622 -16.85 15.168 -26.393 Q9.715 -35.936 9.715 -48.029 Q9.715 -63.798 18.55 -74.806 Q27.386 -85.814 40 -85.814 Q52.614 -85.814 61.45 -74.806 Q70.285 -63.798 70.285 -48.029 Q70.285 -35.936 64.832 -26.393 Q59.378 -16.85 50.815 -12.763 L52.938 5.718 Q53.688 11.675 49.868 16.164 Q46.049 20.653 40 20.653 Z"/></g><g id="Regular-M" transform="matrix(1 0 0 1 1394.06 1126)"><path d="M80 19.458 Q78.062 19.458 76.688 18.083 Q75.312 16.708 75.312 14.77 Q75.312 12.833 76.688 11.458 Q78.062 10.083 80 10.083 H95.312 V4.458 H80 Q78.062 4.458 76.688 3.083 Q75.312 1.708 75.312 -0.23 Q75.312 -2.167 76.688 -3.542 Q78.062 -4.917 80 -4.917 H95.312 V-10.542 H80 Q78.062 -10.542 76.688 -11.917 Q75.312 -13.292 75.312 -15.23 Q75.312 -17.167 76.688 -18.542 Q78.062 -19.917 80 -19.917 H95.312 V-25.542 H80 Q78.062 -25.542 76.688 -26.917 Q75.312 -28.292 75.312 -30.23 Q75.312 -32.167 76.688 -33.542 Q78.062 -34.917 80 -34.917 H95.312 V-40.542 H80 Q78.062 -40.542 76.688 -41.917 Q75.312 -43.292 75.312 -45.23 Q75.312 -47.167 76.688 -48.542 Q78.062 -49.917 80 -49.917 H95.312 V-55.542 H80 Q78.062 -55.542 76.688 -56.917 Q75.312 -58.292 75.312 -60.23 Q75.312 -62.167 76.688 -63.542 Q78.062 -64.917 80 -64.917 H100 Q104 -64.917 106.844 -62.074 Q109.688 -59.23 109.688 -55.23 V9.77 Q109.688 13.77 106.844 16.614 Q104 19.458 100 19.458 H80 Z M40 -19.917 Q48.375 -19.917 54.344 -28.136 Q60.312 -36.355 60.312 -47.73 Q60.312 -59.105 54.344 -67.324 Q48.375 -75.542 40 -75.542 Q31.625 -75.542 25.656 -67.324 Q19.688 -59.105 19.688 -47.73 Q19.688 -36.355 25.656 -28.136 Q31.625 -19.917 40 -19.917 Z M40 19.458 Q34.25 19.458 30.625 15.208 Q27 10.958 27.75 5.27 L29.812 -12.792 Q21.25 -16.73 15.781 -26.199 Q10.312 -35.667 10.312 -47.73 Q10.312 -63.23 18.969 -74.074 Q27.625 -84.917 40 -84.917 Q52.375 -84.917 61.031 -74.074 Q69.688 -63.23 69.688 -47.73 Q69.688 -35.667 64.219 -26.199 Q58.75 -16.73 50.188 -12.792 L52.25 5.27 Q53 10.958 49.375 15.208 Q45.75 19.458 40 19.458 Z"/></g><g id="Light-M" transform="matrix(1 0 0 1 1098.18 1126)"><path d="M79.231 14.121 Q77.776 14.121 76.761 13.105 Q75.745 12.088 75.745 10.633 Q75.745 9.178 76.761 8.152 Q77.776 7.126 79.231 7.126 H93.822 V1.044 H79.231 Q77.776 1.044 76.761 0.028 Q75.745 -0.988 75.745 -2.443 Q75.745 -3.898 76.761 -4.925 Q77.776 -5.951 79.231 -5.951 H93.822 V-12.033 H79.231 Q77.776 -12.033 76.761 -13.049 Q75.745 -14.065 75.745 -15.52 Q75.745 -16.975 76.761 -18.002 Q77.776 -19.028 79.231 -19.028 H93.822 V-25.11 H79.231 Q77.776 -25.11 76.761 -26.126 Q75.745 -27.142 75.745 -28.597 Q75.745 -30.052 76.761 -31.078 Q77.776 -32.105 79.231 -32.105 H93.822 V-38.186 H79.231 Q77.776 -38.186 76.761 -39.203 Q75.745 -40.219 75.745 -41.674 Q75.745 -43.129 76.761 -44.155 Q77.776 -45.182 79.231 -45.182 H93.822 V-51.263 H79.231 Q77.776 -51.263 76.761 -52.279 Q75.745 -53.295 75.745 -54.75 Q75.745 -56.205 76.761 -57.232 Q77.776 -58.258 79.231 -58.258 H97.308 Q100.851 -58.258 103.334 -55.535 Q105.817 -52.811 105.817 -49.268 V5.635 Q105.817 9.178 103.334 11.65 Q100.851 14.121 97.308 14.121 H79.231 Z M42.019 -19.99 Q50.37 -19.99 56.327 -28.184 Q62.284 -36.379 62.284 -47.73 Q62.284 -59.081 56.327 -67.288 Q50.37 -75.494 42.019 -75.494 Q33.668 -75.494 27.724 -67.288 Q21.779 -59.081 21.779 -47.73 Q21.779 -36.379 27.724 -28.184 Q33.668 -19.99 42.019 -19.99 Z M42.019 14.121 Q37.327 14.121 34.459 10.64 Q31.592 7.159 32.149 2.602 L34.116 -14.571 Q25.698 -17.764 20.241 -26.848 Q14.784 -35.932 14.784 -47.73 Q14.784 -62.212 22.72 -72.351 Q30.655 -82.489 42.008 -82.489 Q53.361 -82.489 61.32 -72.351 Q69.279 -62.212 69.279 -47.73 Q69.279 -35.932 63.81 -26.848 Q58.341 -17.764 49.947 -14.571 L51.889 2.602 Q52.471 7.159 49.557 10.64 Q46.642 14.121 42.019 14.121 Z"/></g><g id="Thin-M" transform="matrix(1 0 0 1 802.565 1126)"><path d="M78.462 8.785 Q77.49 8.785 76.834 8.127 Q76.178 7.47 76.178 6.498 Q76.178 5.525 76.834 4.847 Q77.49 4.169 78.462 4.169 H92.332 V-2.369 H78.462 Q77.49 -2.369 76.834 -3.027 Q76.178 -3.684 76.178 -4.656 Q76.178 -5.629 76.834 -6.307 Q77.49 -6.985 78.462 -6.985 H92.332 V-13.523 H78.462 Q77.49 -13.523 76.834 -14.18 Q76.178 -14.838 76.178 -15.81 Q76.178 -16.783 76.834 -17.461 Q77.49 -18.139 78.462 -18.139 H92.332 V-24.677 H78.462 Q77.49 -24.677 76.834 -25.334 Q76.178 -25.992 76.178 -26.964 Q76.178 -27.937 76.834 -28.615 Q77.49 -29.292 78.462 -29.292 H92.332 V-35.831 H78.462 Q77.49 -35.831 76.834 -36.488 Q76.178 -37.145 76.178 -38.118 Q76.178 -39.091 76.834 -39.768 Q77.49 -40.446 78.462 -40.446 H92.332 V-46.985 H78.462 Q77.49 -46.985 76.834 -47.642 Q76.178 -48.299 76.178 -49.272 Q76.178 -50.244 76.834 -50.922 Q77.49 -51.6 78.462 -51.6 H94.615 Q97.702 -51.6 99.825 -48.997 Q101.947 -46.393 101.947 -43.307 V1.501 Q101.947 4.587 99.825 6.686 Q97.702 8.785 94.615 8.785 H78.462 Z M44.038 -20.062 Q52.365 -20.062 58.31 -28.232 Q64.255 -36.403 64.255 -47.73 Q64.255 -59.057 58.31 -67.252 Q52.365 -75.446 44.038 -75.446 Q35.712 -75.446 29.791 -67.252 Q23.87 -59.057 23.87 -47.73 Q23.87 -36.403 29.791 -28.232 Q35.712 -20.062 44.038 -20.062 Z M44.038 8.785 Q40.404 8.785 38.293 6.073 Q36.183 3.361 36.548 -0.066 L38.418 -16.35 Q30.144 -18.797 24.7 -27.497 Q19.255 -36.196 19.255 -47.73 Q19.255 -61.195 26.47 -70.628 Q33.685 -80.062 44.016 -80.062 Q54.346 -80.062 61.608 -70.628 Q68.87 -61.195 68.87 -47.73 Q68.87 -36.196 63.401 -27.497 Q57.933 -18.797 49.707 -16.35 L51.529 -0.066 Q51.942 3.361 49.739 6.073 Q47.535 8.785 44.038 8.785 Z"/></g><g id="Ultralight-M" transform="matrix(1 0 0 1 506.415 1126)"><path d="M78 5.583 Q77.319 5.583 76.878 5.141 Q76.438 4.699 76.438 4.016 Q76.438 3.333 76.878 2.864 Q77.319 2.395 78 2.395 H91.438 V-4.417 H78 Q77.319 -4.417 76.878 -4.859 Q76.438 -5.301 76.438 -5.984 Q76.438 -6.667 76.878 -7.136 Q77.319 -7.605 78 -7.605 H91.438 V-14.417 H78 Q77.319 -14.417 76.878 -14.859 Q76.438 -15.301 76.438 -15.984 Q76.438 -16.667 76.878 -17.136 Q77.319 -17.605 78 -17.605 H91.438 V-24.417 H78 Q77.319 -24.417 76.878 -24.859 Q76.438 -25.301 76.438 -25.984 Q76.438 -26.667 76.878 -27.136 Q77.319 -27.605 78 -27.605 H91.438 V-34.417 H78 Q77.319 -34.417 76.878 -34.859 Q76.438 -35.301 76.438 -35.984 Q76.438 -36.667 76.878 -37.136 Q77.319 -37.605 78 -37.605 H91.438 V-44.417 H78 Q77.319 -44.417 76.878 -44.859 Q76.438 -45.301 76.438 -45.984 Q76.438 -46.667 76.878 -47.136 Q77.319 -47.605 78 -47.605 H93 Q95.812 -47.605 97.719 -45.074 Q99.625 -42.542 99.625 -39.73 V-0.98 Q99.625 1.833 97.719 3.708 Q95.812 5.583 93 5.583 H78 Z M45.25 -20.105 Q53.562 -20.105 59.5 -28.261 Q65.438 -36.417 65.438 -47.73 Q65.438 -59.042 59.5 -67.23 Q53.562 -75.417 45.25 -75.417 Q36.938 -75.417 31.031 -67.23 Q25.125 -59.042 25.125 -47.73 Q25.125 -36.417 31.031 -28.261 Q36.938 -20.105 45.25 -20.105 Z M45.25 5.583 Q42.25 5.583 40.594 3.333 Q38.938 1.083 39.188 -1.667 L41 -17.417 Q32.812 -19.417 27.375 -27.886 Q21.938 -36.355 21.938 -47.73 Q21.938 -60.584 28.721 -69.595 Q35.504 -78.605 45.221 -78.605 Q54.938 -78.605 61.781 -69.595 Q68.625 -60.584 68.625 -47.73 Q68.625 -36.355 63.156 -27.886 Q57.688 -19.417 49.562 -17.417 L51.312 -1.667 Q51.625 1.083 49.848 3.333 Q48.071 5.583 45.25 5.583 Z"/></g><g id="Bold-S" transform="matrix(1 0 0 1 2294.23 696)"><path d="M64.698 11.074 Q63.041 11.074 61.724 9.764 Q60.408 8.453 60.408 6.805 Q60.408 5.058 61.724 3.776 Q63.041 2.494 64.698 2.494 H72.637 V-2.733 H64.724 Q63.071 -2.733 61.739 -4.044 Q60.408 -5.354 60.408 -7.002 Q60.408 -8.749 61.724 -10.031 Q63.041 -11.313 64.698 -11.313 H72.637 V-16.541 H64.724 Q63.071 -16.541 61.739 -17.851 Q60.408 -19.162 60.408 -20.81 Q60.408 -22.557 61.724 -23.839 Q63.041 -25.121 64.698 -25.121 H72.637 V-30.348 H64.724 Q63.071 -30.348 61.739 -31.659 Q60.408 -32.969 60.408 -34.617 Q60.408 -36.364 61.724 -37.646 Q63.041 -38.928 64.698 -38.928 H72.637 V-44.156 H64.724 Q63.071 -44.156 61.739 -45.466 Q60.408 -46.777 60.408 -48.425 Q60.408 -50.172 61.724 -51.454 Q63.041 -52.736 64.698 -52.736 H72.637 V-57.963 H64.724 Q63.071 -57.963 61.739 -59.274 Q60.408 -60.584 60.408 -62.232 Q60.408 -63.979 61.724 -65.261 Q63.041 -66.543 64.698 -66.543 H79.097 Q82.421 -66.543 84.679 -64.285 Q86.938 -62.026 86.938 -58.703 V3.234 Q86.938 6.459 84.679 8.767 Q82.421 11.074 79.097 11.074 H64.698 Z M33.138 -26.699 Q39.056 -26.699 43.222 -32.247 Q47.389 -37.794 47.389 -45.684 Q47.389 -53.574 43.222 -59.122 Q39.056 -64.67 33.138 -64.67 Q27.221 -64.67 23.054 -59.122 Q18.887 -53.574 18.887 -45.684 Q18.887 -37.794 23.054 -32.247 Q27.221 -26.699 33.138 -26.699 Z M33.138 11.074 Q28.207 11.074 24.854 7.573 Q21.5 4.072 21.895 -0.415 L24.114 -17.724 Q16.963 -20.929 12.353 -28.499 Q7.742 -36.068 7.742 -45.684 Q7.742 -58.308 15.164 -67.061 Q22.585 -75.814 33.138 -75.814 Q43.691 -75.814 51.112 -67.061 Q58.534 -58.308 58.534 -45.684 Q58.534 -36.068 53.923 -28.499 Q49.312 -20.929 42.162 -17.724 L44.381 -0.317 Q44.776 4.171 41.324 7.623 Q37.872 11.074 33.138 11.074 Z"/></g><g id="Semibold-S" transform="matrix(1 0 0 1 1998.1 696)"><path d="M63.84 9.359 Q62.312 9.359 61.146 8.199 Q59.979 7.038 59.979 5.519 Q59.979 3.943 61.146 2.79 Q62.312 1.637 63.84 1.637 H73.066 V-3.591 H63.866 Q62.342 -3.591 61.16 -4.751 Q59.979 -5.912 59.979 -7.431 Q59.979 -9.007 61.146 -10.16 Q62.312 -11.313 63.84 -11.313 H73.066 V-16.541 H63.866 Q62.342 -16.541 61.16 -17.701 Q59.979 -18.862 59.979 -20.381 Q59.979 -21.956 61.146 -23.11 Q62.312 -24.263 63.84 -24.263 H73.066 V-29.491 H63.866 Q62.342 -29.491 61.16 -30.651 Q59.979 -31.812 59.979 -33.331 Q59.979 -34.906 61.146 -36.06 Q62.312 -37.213 63.84 -37.213 H73.066 V-42.44 H63.866 Q62.342 -42.44 61.16 -43.601 Q59.979 -44.762 59.979 -46.281 Q59.979 -47.856 61.146 -49.01 Q62.312 -50.163 63.84 -50.163 H73.066 V-55.39 H63.866 Q62.342 -55.39 61.16 -56.551 Q59.979 -57.712 59.979 -59.231 Q59.979 -60.806 61.146 -61.96 Q62.312 -63.113 63.84 -63.113 H78.668 Q81.778 -63.113 83.929 -60.962 Q86.08 -58.811 86.08 -55.701 V1.947 Q86.08 5.001 83.929 7.18 Q81.778 9.359 78.668 9.359 H63.84 Z M33.138 -25.155 Q39.527 -25.155 44.016 -31.025 Q48.504 -36.894 48.504 -45.255 Q48.504 -53.617 44.016 -59.486 Q39.527 -65.356 33.138 -65.356 Q26.749 -65.356 22.26 -59.486 Q17.772 -53.617 17.772 -45.255 Q17.772 -36.894 22.26 -31.025 Q26.749 -25.155 33.138 -25.155 Z M33.138 9.359 Q28.721 9.359 25.604 6.223 Q22.486 3.086 22.881 -1.016 L25.014 -17.767 Q17.864 -20.758 13.232 -28.22 Q8.6 -35.682 8.6 -45.255 Q8.6 -57.494 15.764 -66.011 Q22.928 -74.528 33.138 -74.528 Q43.348 -74.528 50.512 -66.011 Q57.676 -57.494 57.676 -45.255 Q57.676 -35.682 53.044 -28.22 Q48.412 -20.758 41.262 -17.767 L43.395 -0.96 Q43.79 3.142 40.616 6.25 Q37.443 9.359 33.138 9.359 Z"/></g><g id="Medium-S" transform="matrix(1 0 0 1 1701.85 696)"><path d="M63.197 8.073 Q61.765 8.073 60.711 7.025 Q59.657 5.977 59.657 4.554 Q59.657 3.107 60.711 2.05 Q61.765 0.993 63.197 0.993 H73.388 V-4.234 H63.223 Q61.795 -4.234 60.726 -5.282 Q59.657 -6.33 59.657 -7.753 Q59.657 -9.199 60.711 -10.256 Q61.765 -11.313 63.197 -11.313 H73.388 V-16.541 H63.223 Q61.795 -16.541 60.726 -17.589 Q59.657 -18.637 59.657 -20.06 Q59.657 -21.506 60.711 -22.563 Q61.765 -23.62 63.197 -23.62 H73.388 V-28.847 H63.223 Q61.795 -28.847 60.726 -29.895 Q59.657 -30.943 59.657 -32.366 Q59.657 -33.813 60.711 -34.87 Q61.765 -35.927 63.197 -35.927 H73.388 V-41.154 H63.223 Q61.795 -41.154 60.726 -42.202 Q59.657 -43.25 59.657 -44.673 Q59.657 -46.119 60.711 -47.177 Q61.765 -48.234 63.197 -48.234 H73.388 V-53.461 H63.223 Q61.795 -53.461 60.726 -54.509 Q59.657 -55.557 59.657 -56.98 Q59.657 -58.426 60.711 -59.483 Q61.765 -60.54 63.197 -60.54 H78.347 Q81.295 -60.54 83.366 -58.469 Q85.437 -56.398 85.437 -53.45 V0.983 Q85.437 3.907 83.366 5.99 Q81.295 8.073 78.347 8.073 H63.197 Z M33.138 -23.998 Q39.881 -23.998 44.611 -30.108 Q49.34 -36.218 49.34 -44.934 Q49.34 -53.649 44.611 -59.76 Q39.881 -65.87 33.138 -65.87 Q26.395 -65.87 21.665 -59.76 Q16.936 -53.649 16.936 -44.934 Q16.936 -36.218 21.665 -30.108 Q26.395 -23.998 33.138 -23.998 Z M33.138 8.073 Q29.107 8.073 26.167 5.21 Q23.226 2.346 23.621 -1.466 L25.69 -17.799 Q18.539 -20.629 13.891 -28.011 Q9.243 -35.393 9.243 -44.934 Q9.243 -56.883 16.214 -65.223 Q23.185 -73.563 33.138 -73.563 Q43.091 -73.563 50.062 -65.223 Q57.033 -56.883 57.033 -44.934 Q57.033 -35.393 52.385 -28.011 Q47.737 -20.629 40.586 -17.799 L42.655 -1.442 Q43.05 2.37 40.086 5.221 Q37.122 8.073 33.138 8.073 Z"/></g><g id="Regular-S" transform="matrix(1 0 0 1 1405.73 696)"><path d="M62.726 7.129 Q61.364 7.129 60.393 6.164 Q59.422 5.198 59.422 3.846 Q59.422 2.494 60.393 1.508 Q61.364 0.522 62.726 0.522 H73.624 V-4.706 H62.751 Q61.394 -4.706 60.408 -5.671 Q59.422 -6.637 59.422 -7.989 Q59.422 -9.341 60.393 -10.327 Q61.364 -11.313 62.726 -11.313 H73.624 V-16.541 H62.751 Q61.394 -16.541 60.408 -17.506 Q59.422 -18.472 59.422 -19.824 Q59.422 -21.176 60.393 -22.162 Q61.364 -23.148 62.726 -23.148 H73.624 V-28.376 H62.751 Q61.394 -28.376 60.408 -29.341 Q59.422 -30.307 59.422 -31.659 Q59.422 -33.011 60.393 -33.997 Q61.364 -34.983 62.726 -34.983 H73.624 V-40.211 H62.751 Q61.394 -40.211 60.408 -41.176 Q59.422 -42.142 59.422 -43.494 Q59.422 -44.846 60.393 -45.832 Q61.364 -46.818 62.726 -46.818 H73.624 V-52.046 H62.751 Q61.394 -52.046 60.408 -53.011 Q59.422 -53.977 59.422 -55.329 Q59.422 -56.681 60.393 -57.667 Q61.364 -58.653 62.726 -58.653 H78.111 Q80.942 -58.653 82.953 -56.641 Q84.965 -54.63 84.965 -51.799 V0.275 Q84.965 3.106 82.953 5.117 Q80.942 7.129 78.111 7.129 H62.726 Z M33.138 -23.148 Q40.14 -23.148 45.047 -29.436 Q49.954 -35.723 49.954 -44.698 Q49.954 -53.673 45.047 -59.96 Q40.14 -66.248 33.138 -66.248 Q26.136 -66.248 21.229 -59.96 Q16.322 -53.673 16.322 -44.698 Q16.322 -35.723 21.229 -29.436 Q26.136 -23.148 33.138 -23.148 Z M33.138 7.129 Q29.39 7.129 26.579 4.467 Q23.769 1.804 24.163 -1.796 L26.185 -17.823 Q19.035 -20.535 14.375 -27.858 Q9.715 -35.181 9.715 -44.698 Q9.715 -56.434 16.544 -64.645 Q23.374 -72.855 33.138 -72.855 Q42.902 -72.855 49.732 -64.645 Q56.561 -56.434 56.561 -44.698 Q56.561 -35.181 51.901 -27.858 Q47.241 -20.535 40.091 -17.823 L42.113 -1.796 Q42.507 1.804 39.697 4.467 Q36.886 7.129 33.138 7.129 Z"/></g><g id="Light-S" transform="matrix(1 0 0 1 1109.75 696)"><path d="M62.119 2.919 Q61.139 2.919 60.451 2.236 Q59.763 1.554 59.763 0.583 Q59.763 -0.389 60.451 -1.1 Q61.139 -1.812 62.119 -1.812 H72.448 V-7.399 H62.144 Q61.168 -7.399 60.466 -8.081 Q59.763 -8.764 59.763 -9.735 Q59.763 -10.707 60.451 -11.418 Q61.139 -12.129 62.119 -12.129 H72.448 V-17.717 H62.144 Q61.168 -17.717 60.466 -18.399 Q59.763 -19.081 59.763 -20.053 Q59.763 -21.024 60.451 -21.735 Q61.139 -22.447 62.119 -22.447 H72.448 V-28.034 H62.144 Q61.168 -28.034 60.466 -28.716 Q59.763 -29.399 59.763 -30.37 Q59.763 -31.342 60.451 -32.053 Q61.139 -32.764 62.119 -32.764 H72.448 V-38.352 H62.144 Q61.168 -38.352 60.466 -39.034 Q59.763 -39.716 59.763 -40.688 Q59.763 -41.659 60.451 -42.371 Q61.139 -43.082 62.119 -43.082 H72.448 V-48.669 H62.144 Q61.168 -48.669 60.466 -49.352 Q59.763 -50.034 59.763 -51.005 Q59.763 -51.977 60.451 -52.688 Q61.139 -53.399 62.119 -53.399 H75.987 Q78.457 -53.399 80.184 -51.482 Q81.912 -49.565 81.912 -47.095 V-2.987 Q81.912 -0.517 80.184 1.201 Q78.457 2.919 75.987 2.919 H62.119 Z M34.731 -23.205 Q41.715 -23.205 46.612 -29.474 Q51.509 -35.742 51.509 -44.698 Q51.509 -53.654 46.612 -59.932 Q41.715 -66.21 34.731 -66.21 Q27.748 -66.21 22.86 -59.932 Q17.973 -53.654 17.973 -44.698 Q17.973 -35.742 22.86 -29.474 Q27.748 -23.205 34.731 -23.205 Z M34.731 2.919 Q31.818 2.919 29.605 0.863 Q27.391 -1.193 27.634 -3.902 L29.58 -19.226 Q22.544 -21.351 17.893 -28.37 Q13.243 -35.389 13.243 -44.698 Q13.243 -55.631 19.504 -63.286 Q25.765 -70.94 34.722 -70.94 Q43.68 -70.94 49.959 -63.286 Q56.239 -55.631 56.239 -44.698 Q56.239 -35.389 51.579 -28.37 Q46.919 -21.351 39.901 -19.226 L41.828 -3.902 Q42.09 -1.193 39.84 0.863 Q37.59 2.919 34.731 2.919 Z"/></g><g id="Thin-S" transform="matrix(1 0 0 1 814.015 696)"><path d="M61.512 -1.292 Q60.913 -1.292 60.509 -1.691 Q60.104 -2.09 60.104 -2.681 Q60.104 -3.272 60.509 -3.708 Q60.913 -4.144 61.512 -4.144 H71.272 V-10.092 H61.538 Q60.943 -10.092 60.523 -10.491 Q60.104 -10.89 60.104 -11.481 Q60.104 -12.072 60.509 -12.508 Q60.913 -12.944 61.512 -12.944 H71.272 V-18.892 H61.538 Q60.943 -18.892 60.523 -19.292 Q60.104 -19.691 60.104 -20.282 Q60.104 -20.872 60.509 -21.309 Q60.913 -21.745 61.512 -21.745 H71.272 V-27.693 H61.538 Q60.943 -27.693 60.523 -28.092 Q60.104 -28.491 60.104 -29.082 Q60.104 -29.673 60.509 -30.109 Q60.913 -30.545 61.512 -30.545 H71.272 V-36.493 H61.538 Q60.943 -36.493 60.523 -36.892 Q60.104 -37.291 60.104 -37.882 Q60.104 -38.473 60.509 -38.91 Q60.913 -39.346 61.512 -39.346 H71.272 V-45.294 H61.538 Q60.943 -45.294 60.523 -45.693 Q60.104 -46.092 60.104 -46.683 Q60.104 -47.274 60.509 -47.71 Q60.913 -48.146 61.512 -48.146 H73.863 Q75.972 -48.146 77.415 -46.324 Q78.858 -44.502 78.858 -42.392 V-6.249 Q78.858 -4.14 77.415 -2.716 Q75.972 -1.292 73.863 -1.292 H61.512 Z M36.324 -23.262 Q43.289 -23.262 48.176 -29.512 Q53.064 -35.761 53.064 -44.698 Q53.064 -53.635 48.176 -59.903 Q43.289 -66.172 36.324 -66.172 Q29.36 -66.172 24.491 -59.903 Q19.623 -53.635 19.623 -44.698 Q19.623 -35.761 24.491 -29.512 Q29.36 -23.262 36.324 -23.262 Z M36.324 -1.292 Q34.246 -1.292 32.63 -2.741 Q31.014 -4.19 31.105 -6.007 L32.975 -20.63 Q26.052 -22.166 21.411 -28.882 Q16.77 -35.598 16.77 -44.698 Q16.77 -54.829 22.463 -61.926 Q28.156 -69.024 36.306 -69.024 Q44.457 -69.024 50.187 -61.926 Q55.917 -54.829 55.917 -44.698 Q55.917 -35.598 51.257 -28.882 Q46.597 -22.166 39.712 -20.63 L41.544 -6.007 Q41.673 -4.19 39.983 -2.741 Q38.294 -1.292 36.324 -1.292 Z"/></g><g id="Ultralight-S" transform="matrix(1 0 0 1 517.792 696)"><path d="M61.148 -3.818 Q60.778 -3.818 60.543 -4.047 Q60.309 -4.276 60.309 -4.639 Q60.309 -5.001 60.543 -5.273 Q60.778 -5.544 61.148 -5.544 H70.566 V-11.708 H61.173 Q60.807 -11.708 60.558 -11.937 Q60.309 -12.166 60.309 -12.529 Q60.309 -12.891 60.543 -13.163 Q60.778 -13.434 61.148 -13.434 H70.566 V-19.598 H61.173 Q60.807 -19.598 60.558 -19.827 Q60.309 -20.056 60.309 -20.419 Q60.309 -20.781 60.543 -21.053 Q60.778 -21.324 61.148 -21.324 H70.566 V-27.488 H61.173 Q60.807 -27.488 60.558 -27.717 Q60.309 -27.946 60.309 -28.309 Q60.309 -28.671 60.543 -28.943 Q60.778 -29.214 61.148 -29.214 H70.566 V-35.378 H61.173 Q60.807 -35.378 60.558 -35.607 Q60.309 -35.836 60.309 -36.199 Q60.309 -36.561 60.543 -36.833 Q60.778 -37.104 61.148 -37.104 H70.566 V-43.268 H61.173 Q60.807 -43.268 60.558 -43.497 Q60.309 -43.726 60.309 -44.089 Q60.309 -44.451 60.543 -44.723 Q60.778 -44.994 61.148 -44.994 H72.588 Q74.482 -44.994 75.754 -43.228 Q77.026 -41.463 77.026 -39.569 V-8.207 Q77.026 -6.313 75.754 -5.066 Q74.482 -3.818 72.588 -3.818 H61.148 Z M37.28 -23.296 Q44.233 -23.296 49.115 -29.534 Q53.997 -35.772 53.997 -44.698 Q53.997 -53.624 49.115 -59.886 Q44.233 -66.149 37.28 -66.149 Q30.327 -66.149 25.47 -59.886 Q20.613 -53.624 20.613 -44.698 Q20.613 -35.772 25.47 -29.534 Q30.327 -23.296 37.28 -23.296 Z M37.28 -3.818 Q35.702 -3.818 34.445 -4.903 Q33.187 -5.988 33.187 -7.27 L35.012 -21.472 Q28.157 -22.655 23.522 -29.189 Q18.887 -35.723 18.887 -44.698 Q18.887 -54.347 24.239 -61.111 Q29.59 -67.875 37.257 -67.875 Q44.924 -67.875 50.323 -61.111 Q55.723 -54.347 55.723 -44.698 Q55.723 -35.723 51.063 -29.189 Q46.403 -22.655 39.598 -21.472 L41.373 -7.27 Q41.422 -5.988 40.07 -4.903 Q38.717 -3.818 37.28 -3.818 Z"/></g></g></svg>