<svg xmlns="http://www.w3.org/2000/svg" height="40" viewBox="0 -960 960 960" width="40"><path d="M298.667-218.667q-70.334 0-118.834-50.717Q131.334-320.1 131.334-392v-179q0-54.937 32.666-96.969Q196.667-710 249.333-721q57-11.333 115.063-15.833t116.835-4.5q58.106 0 115.943 4.725 57.837 4.725 115.493 15.608 52.666 10.334 85.166 52.833 32.5 42.5 32.5 97.167v179q0 71.9-48.5 122.616-48.5 50.717-118.833 50.717h-41.333q-13.556 0-26.111-2.5-12.556-2.5-24.223-6.833L507-251q-13.159-4-26.693-4t-26.64 4L390-228q-13 4.333-25.167 6.833-12.166 2.5-25.663 2.5h-40.503Zm-1.334-83.666H339q6.659 0 13.176-1 6.516-1 13.157-3.667 29-9.54 57.124-20.936 28.123-11.397 58.994-11.397 30.204 0 58.71 11.144 28.506 11.143 57.506 21.189 5.719 2 11.959 3.334 6.241 1.333 12.374 1.333h42.333q35.667 0 59.001-26.833Q746.667-356 746.667-392v-179q0-24-13.667-43.5-13.666-19.5-36.667-24.167Q643-649.667 589.326-654q-53.673-4.334-107.833-4.334-54.826 0-108.66 4.334-53.833 4.333-107.166 15.333Q241.666-634 228.333-614.5 215-595 215-571v179q0 36 23.333 62.834 23.333 26.833 59 26.833ZM13.333-392v-180.333H76V-392H13.334ZM885-392v-180.333h62.666V-392H885Zm-403.333-88Z"/></svg>