<svg xmlns="http://www.w3.org/2000/svg" height="24" viewBox="0 -960 960 960" width="24"><path d="M617.5-50q-105 0-184-64.5t-101-163q33.5 1.5 66.844-5.31Q432.688-289.619 463-302h202.764q1.236-11 1.736-21.884t.5-22.287q0-9.329-.5-18.829t-1.5-19h-75.5q16-17 29.25-35.5T644-459h157q-21.5-33.5-53.25-57.5T676.5-551q4-18.5 5.75-38t.75-38.5q98 22 162.5 100.75T910-343q0 122.083-85.5 207.542Q739-50 617.5-50ZM527-145.5q-7.5-20.5-12.75-40.5t-9.504-41H433.5q17 26.5 40.906 47.255Q498.312-158.991 527-145.5Zm90.5 14.5q13-23 21.685-46.986Q647.87-201.971 654-227h-73q6 25 15.25 49t21.25 47Zm90.5-14.5q29-13.5 52.75-34.25T801.5-227h-71q-5 21.034-10 41.017Q715.5-166 708-145.5ZM741-302h89.955Q833-312 834-321.658q1-9.659 1-20.842 0-11-1.022-20.991-1.021-9.992-3.065-20.509H741q1 9.5 1.5 19.122t.5 18.737q0 11.141-.5 22.118Q742-313.045 741-302Zm-398.25-23Q221-325 135.5-410.338T50-617.588Q50-739.5 135.458-824.75 220.917-910 343-910q121.5 0 207 85.338t85.5 207.25q0 121.912-85.5 207.162T342.75-325Zm-98-314q15.75 0 26.5-10.781T282-676.5q0-15.5-10.781-26.5T244.5-714q-15.5 0-26.5 11t-11 26.75q0 15.75 11 26.5T244.75-639Zm98 173q46.75 0 83.027-26.156T478.5-559H207q16.446 40.688 52.723 66.844Q296-466 342.75-466ZM441-639q15.5 0 26.5-10.781t11-26.719q0-15.5-11-26.5T441-714q-15.5 0-26.5 11t-11 26.75q0 15.75 11 26.5T441-639Z"/></svg>