<svg xmlns="http://www.w3.org/2000/svg" version="1.1" width="3300" height="2000"><g id="Notes"><style>
    text {
      font-family: monospace;
      text-anchor: middle;
    }
    text.emphasis {
      font-weight:bold;
    }
    text.lanchor {
      text-anchor: start;
    }
  </style><rect height="2200" id="artboard" fill="white" width="3300" x="0" y="0"/><line id="" style="fill:none;stroke:black;stroke-width:0.5;" x1="263" x2="3036" y1="292" y2="292"/><text class="lanchor emphasis" transform="matrix(1 0 0 1 263 322)">Weight/Scale Variations</text><text transform="matrix(1 0 0 1 559.711 322)">Ultralight</text><text transform="matrix(1 0 0 1 856.422 322)">Thin</text><text transform="matrix(1 0 0 1 1153.13 322)">Light</text><text transform="matrix(1 0 0 1 1449.84 322)">Regular</text><text transform="matrix(1 0 0 1 1746.56 322)">Medium</text><text transform="matrix(1 0 0 1 2043.27 322)">Semibold</text><text transform="matrix(1 0 0 1 2339.98 322)">Bold</text><text transform="matrix(1 0 0 1 2636.69 322)">Heavy</text><text transform="matrix(1 0 0 1 2933.4 322)">Black</text><text id="template-version" style="text-anchor: end;" transform="matrix(1 0 0 1 3036 1933)">Template v.1.0</text><text class="lanchor" transform="matrix(1 0 0 1 263 726)">Small</text><text class="lanchor" transform="matrix(1 0 0 1 263 1156)">Medium</text><text class="lanchor" transform="matrix(1 0 0 1 263 1586)">Large</text></g><g id="Guides"><g id="H-reference" style="fill:#27AAE1;stroke:none;" transform="matrix(1 0 0 1 339 696)"><path d="M 54.9316 0 L 57.666 0 L 30.5664 -70.459 L 28.0762 -70.459 L 0.976562 0 L 3.66211 0 L 12.9395 -24.4629 L 45.7031 -24.4629 Z M 29.1992 -67.0898 L 29.4434 -67.0898 L 44.8242 -26.709 L 13.8184 -26.709 Z"/></g><line id="Baseline-S" style="fill:none;stroke:#27AAE1;opacity:1;stroke-width:0.577;" x1="263" x2="3036" y1="696" y2="696"/><line id="Capline-S" style="fill:none;stroke:#27AAE1;opacity:1;stroke-width:0.577;" x1="263" x2="3036" y1="625.541" y2="625.541"/><g id="H-reference" style="fill:#27AAE1;stroke:none;" transform="matrix(1 0 0 1 339 1126)"><path d="M 54.9316 0 L 57.666 0 L 30.5664 -70.459 L 28.0762 -70.459 L 0.976562 0 L 3.66211 0 L 12.9395 -24.4629 L 45.7031 -24.4629 Z M 29.1992 -67.0898 L 29.4434 -67.0898 L 44.8242 -26.709 L 13.8184 -26.709 Z"/></g><line id="Baseline-M" style="fill:none;stroke:#27AAE1;opacity:1;stroke-width:0.577;" x1="263" x2="3036" y1="1126" y2="1126"/><line id="Capline-M" style="fill:none;stroke:#27AAE1;opacity:1;stroke-width:0.577;" x1="263" x2="3036" y1="1055.54" y2="1055.54"/><g id="H-reference" style="fill:#27AAE1;stroke:none;" transform="matrix(1 0 0 1 339 1556)"><path d="M 54.9316 0 L 57.666 0 L 30.5664 -70.459 L 28.0762 -70.459 L 0.976562 0 L 3.66211 0 L 12.9395 -24.4629 L 45.7031 -24.4629 Z M 29.1992 -67.0898 L 29.4434 -67.0898 L 44.8242 -26.709 L 13.8184 -26.709 Z"/></g><line id="Baseline-L" style="fill:none;stroke:#27AAE1;opacity:1;stroke-width:0.577;" x1="263" x2="3036" y1="1556" y2="1556"/><line id="Capline-L" style="fill:none;stroke:#27AAE1;opacity:1;stroke-width:0.577;" x1="263" x2="3036" y1="1485.54" y2="1485.54"/><rect height="119.336" id="left-margin" style="fill:darkred;stroke:none;opacity:0.4;" width="12.4512" x="1394.06" y="1030.79"/><rect height="119.336" id="right-margin" style="fill:darkgreen;stroke:none;opacity:0.4;" width="12.4512" x="1502.5112" y="1030.79"/><rect x="1406.5112" y="1045" width="96" height="96" fill="none" stroke="blue" stroke-dasharray="5"/><rect x="1394.06" y="1030.79" width="120.9024" height="119.336" fill="none" stroke="blue"/></g><g id="Symbols"><g id="Bold-L" transform="matrix(1 0 0 1 2266 1556)"><path d="M21.608 -96.021  35.636 -82.154 H24.188 Q24.188 -82.154 24.188 -82.154 Q24.188 -82.154 24.188 -82.154 V-9.591 Q24.188 -9.591 24.188 -9.591 Q24.188 -9.591 24.188 -9.591 H92.558 L6.45 -95.699 Q4.999 -96.989 5.079 -99.407 Q5.16 -101.826 6.611 -103.277 Q8.224 -104.89 10.481 -104.809 Q12.739 -104.729 14.513 -103.277 L137.708 19.595 Q139.159 21.208 139.159 23.546 Q139.159 25.884 137.466 27.335 Q135.934 28.948 133.515 28.948 Q131.096 28.948 129.806 27.335 L107.392 5.083 H88.365 V21.208 H94.976 Q97.939 21.208 100.086 23.296 Q102.233 25.384 102.233 28.653 Q102.233 31.854 100.086 33.948 Q97.939 36.043 94.976 36.043 H59.985 Q56.865 36.043 54.716 33.889 Q52.568 31.735 52.568 28.68 Q52.568 25.4 54.716 23.304 Q56.865 21.208 59.985 21.208 H66.435 V5.083 H24.188 Q18.193 5.083 13.853 0.794 Q9.514 -3.494 9.514 -9.591 V-82.154 Q9.514 -88.12 13.626 -92.071 Q17.738 -96.021 21.608 -96.021 Z M145.609 -82.154 V-11.526 Q145.609 -7.817 143.3 -5.963 Q140.991 -4.109 138.221 -4.109 Q135.45 -4.109 133.112 -5.91 Q130.774 -7.711 130.774 -11.365 V-82.154 Q130.774 -82.154 130.774 -82.154 Q130.774 -82.154 130.774 -82.154 H56.921 Q52.971 -82.154 51.157 -84.389 Q49.343 -86.625 49.343 -89.439 Q49.343 -92.254 51.157 -94.621 Q52.971 -96.989 56.921 -96.989 H130.774 Q136.776 -96.989 141.193 -92.521 Q145.609 -88.054 145.609 -82.154 Z"/></g><g id="Semibold-L" transform="matrix(1 0 0 1 1970.27 1556)"><path d="M21.257 -95.601  33.954 -82.995 H23.276 Q23.276 -82.995 23.276 -82.995 Q23.276 -82.995 23.276 -82.995 V-7.979 Q23.276 -7.979 23.276 -7.979 Q23.276 -7.979 23.276 -7.979 H92.838 L6.099 -94.647 Q4.508 -96.148 4.589 -98.566 Q4.669 -100.985 6.261 -102.576 Q7.943 -104.259 10.236 -104.214 Q12.528 -104.168 14.372 -102.576 L137.497 20.296 Q139.089 21.979 139.089 24.317 Q139.089 26.655 137.325 28.246 Q135.653 29.929 133.235 29.929 Q130.816 29.929 129.316 28.246 L106.341 5.433 H88.716 V21.628 H96.028 Q98.738 21.628 100.696 23.576 Q102.653 25.524 102.653 28.443 Q102.653 31.293 100.696 33.212 Q98.738 35.131 96.028 35.131 H58.933 Q56.066 35.131 54.106 33.166 Q52.147 31.202 52.147 28.435 Q52.147 25.54 54.106 23.584 Q56.066 21.628 58.933 21.628 H66.084 V5.433 H23.276 Q17.874 5.433 13.869 1.48 Q9.864 -2.474 9.864 -7.979 V-82.995 Q9.864 -88.26 13.626 -91.93 Q17.387 -95.601 21.257 -95.601 Z M145.188 -82.995 V-9.633 Q145.188 -6.17 143.086 -4.508 Q140.985 -2.847 138.463 -2.847 Q135.941 -2.847 133.813 -4.511 Q131.685 -6.176 131.685 -9.472 V-82.995 Q131.685 -82.995 131.685 -82.995 Q131.685 -82.995 131.685 -82.995 H55.028 Q51.428 -82.995 49.789 -85.023 Q48.151 -87.052 48.151 -89.618 Q48.151 -92.184 49.789 -94.341 Q51.428 -96.498 55.028 -96.498 H131.685 Q137.066 -96.498 141.127 -92.386 Q145.188 -88.273 145.188 -82.995 Z"/></g><g id="Medium-L" transform="matrix(1 0 0 1 1674.31 1556)"><path d="M20.994 -95.285  32.692 -83.626 H22.593 Q22.593 -83.626 22.593 -83.626 Q22.593 -83.626 22.593 -83.626 V-6.769 Q22.593 -6.769 22.593 -6.769 Q22.593 -6.769 22.593 -6.769 H93.048 L5.837 -93.858 Q4.14 -95.517 4.221 -97.935 Q4.301 -100.354 5.998 -102.051 Q7.733 -103.786 10.052 -103.767 Q12.371 -103.747 14.267 -102.051 L137.339 20.822 Q139.036 22.557 139.036 24.895 Q139.036 27.233 137.22 28.93 Q135.443 30.665 133.024 30.665 Q130.606 30.665 128.947 28.93 L105.552 5.696 H88.978 V21.944 H96.817 Q99.338 21.944 101.153 23.787 Q102.969 25.629 102.969 28.285 Q102.969 30.873 101.153 32.66 Q99.338 34.448 96.817 34.448 H58.145 Q55.466 34.448 53.649 32.625 Q51.831 30.802 51.831 28.251 Q51.831 25.645 53.649 23.794 Q55.466 21.944 58.145 21.944 H65.822 V5.696 H22.593 Q17.635 5.696 13.881 1.994 Q10.127 -1.709 10.127 -6.769 V-83.626 Q10.127 -88.365 13.626 -91.825 Q17.124 -95.285 20.994 -95.285 Z M144.873 -83.626 V-8.214 Q144.873 -4.934 142.926 -3.417 Q140.98 -1.9 138.644 -1.9 Q136.309 -1.9 134.339 -3.462 Q132.369 -5.024 132.369 -8.052 V-83.626 Q132.369 -83.626 132.369 -83.626 Q132.369 -83.626 132.369 -83.626 H53.609 Q50.271 -83.626 48.764 -85.499 Q47.257 -87.372 47.257 -89.752 Q47.257 -92.131 48.764 -94.131 Q50.271 -96.13 53.609 -96.13 H132.369 Q137.284 -96.13 141.078 -92.284 Q144.873 -88.438 144.873 -83.626 Z"/></g><g id="Regular-L" transform="matrix(1 0 0 1 1378.56 1556)"><path d="M20.801 -95.054  31.766 -84.089 H22.091 Q22.091 -84.089 22.091 -84.089 Q22.091 -84.089 22.091 -84.089 V-5.882 Q22.091 -5.882 22.091 -5.882 Q22.091 -5.882 22.091 -5.882 H93.203 L5.644 -93.28 Q3.87 -95.054 3.951 -97.472 Q4.031 -99.891 5.805 -101.665 Q7.579 -103.439 9.917 -103.439 Q12.255 -103.439 14.19 -101.665 L137.224 21.208 Q138.998 22.981 138.998 25.319 Q138.998 27.658 137.143 29.431 Q135.289 31.205 132.87 31.205 Q130.451 31.205 128.678 29.431 L104.974 5.889 H89.171 V22.175 H97.395 Q99.777 22.175 101.489 23.941 Q103.2 25.707 103.2 28.169 Q103.2 30.564 101.489 32.255 Q99.777 33.946 97.395 33.946 H57.566 Q55.027 33.946 53.313 32.228 Q51.6 30.509 51.6 28.116 Q51.6 25.723 53.313 23.949 Q55.027 22.175 57.566 22.175 H65.629 V5.889 H22.091 Q17.459 5.889 13.89 2.37 Q10.32 -1.148 10.32 -5.882 V-84.089 Q10.32 -88.442 13.626 -91.748 Q16.931 -95.054 20.801 -95.054 Z M144.641 -84.089 V-7.172 Q144.641 -4.028 142.809 -2.617 Q140.977 -1.206 138.778 -1.206 Q136.579 -1.206 134.724 -2.693 Q132.87 -4.18 132.87 -7.011 V-84.089 Q132.87 -84.089 132.87 -84.089 Q132.87 -84.089 132.87 -84.089 H52.568 Q49.423 -84.089 48.012 -85.848 Q46.601 -87.607 46.601 -89.85 Q46.601 -92.093 48.012 -93.976 Q49.423 -95.86 52.568 -95.86 H132.87 Q137.443 -95.86 141.042 -92.21 Q144.641 -88.559 144.641 -84.089 Z"/></g><g id="Light-L" transform="matrix(1 0 0 1 1082.77 1556)"><path d="M24.275 -91.953  33.007 -83.22 H24.944 Q24.2 -83.22 23.58 -82.6 Q22.96 -81.98 22.96 -81.236 V-8.736 Q22.96 -7.867 23.518 -7.309 Q24.076 -6.751 24.944 -6.751 H95.994 L8.311 -94.334 Q6.909 -95.736 6.928 -97.659 Q6.946 -99.581 8.41 -101.045 Q9.874 -102.508 11.716 -102.508 Q13.558 -102.508 15.182 -101.045 L136.355 19.967 Q137.757 21.369 137.757 23.242 Q137.757 25.115 136.244 26.578 Q134.731 28.042 132.808 28.042 Q130.885 28.042 129.484 26.578 L105.408 2.664 H86.814 V18.082 H95.968 Q97.85 18.082 99.223 19.509 Q100.595 20.937 100.595 22.901 Q100.595 24.796 99.223 26.146 Q97.85 27.496 95.968 27.496 H58.993 Q56.954 27.496 55.579 26.115 Q54.205 24.734 54.205 22.84 Q54.205 20.947 55.579 19.514 Q56.954 18.082 58.993 18.082 H67.986 V2.664 H24.944 Q20.388 2.664 16.967 -0.707 Q13.545 -4.077 13.545 -8.736 V-81.236 Q13.545 -85.465 16.665 -88.709 Q19.784 -91.953 24.275 -91.953 Z M141.354 -81.236 V-9.219 Q141.354 -6.664 139.893 -5.548 Q138.433 -4.431 136.68 -4.431 Q134.927 -4.431 133.434 -5.616 Q131.94 -6.801 131.94 -9.058 V-81.236 Q131.94 -82.104 131.382 -82.662 Q130.823 -83.22 129.955 -83.22 H54.552 Q51.997 -83.22 50.881 -84.608 Q49.764 -85.995 49.764 -87.792 Q49.764 -89.588 50.881 -91.112 Q51.997 -92.635 54.552 -92.635 H129.955 Q134.528 -92.635 137.941 -89.171 Q141.354 -85.706 141.354 -81.236 Z"/></g><g id="Thin-L" transform="matrix(1 0 0 1 787.282 1556)"><path d="M27.747 -88.852  34.247 -82.352 H27.797 Q26.309 -82.352 25.068 -81.112 Q23.828 -79.871 23.828 -78.383 V-11.588 Q23.828 -9.852 24.944 -8.735 Q26.06 -7.619 27.797 -7.619 H98.784 L10.977 -95.389 Q9.948 -96.418 9.904 -97.845 Q9.861 -99.271 11.015 -100.425 Q12.168 -101.578 13.514 -101.578 Q14.86 -101.578 16.175 -100.425 L135.487 18.727 Q136.517 19.756 136.517 21.164 Q136.517 22.572 135.345 23.726 Q134.172 24.879 132.746 24.879 Q131.32 24.879 130.29 23.726 L105.842 -0.561 H84.458 V13.988 H94.542 Q95.923 13.988 96.957 15.079 Q97.99 16.169 97.99 17.633 Q97.99 19.029 96.957 20.037 Q95.923 21.046 94.542 21.046 H60.419 Q58.881 21.046 57.845 20.003 Q56.81 18.96 56.81 17.566 Q56.81 16.172 57.845 15.08 Q58.881 13.988 60.419 13.988 H70.342 V-0.561 H27.797 Q23.317 -0.561 20.044 -3.783 Q16.77 -7.005 16.77 -11.588 V-78.383 Q16.77 -82.489 19.703 -85.67 Q22.637 -88.852 27.747 -88.852 Z M138.067 -78.383 V-11.266 Q138.067 -9.3 136.978 -8.478 Q135.89 -7.656 134.583 -7.656 Q133.276 -7.656 132.143 -8.539 Q131.009 -9.422 131.009 -11.104 V-78.383 Q131.009 -80.12 129.893 -81.236 Q128.777 -82.352 127.04 -82.352 H56.537 Q54.571 -82.352 53.749 -83.368 Q52.927 -84.383 52.927 -85.734 Q52.927 -87.085 53.749 -88.247 Q54.571 -89.41 56.537 -89.41 H127.04 Q131.614 -89.41 134.84 -86.132 Q138.067 -82.854 138.067 -78.383 Z"/></g><g id="Ultralight-L" transform="matrix(1 0 0 1 491.205 1556)"><path d="M29.831 -86.991  34.991 -81.831 H29.509 Q27.574 -81.831 25.961 -80.219 Q24.349 -78.606 24.349 -76.671 V-13.3 Q24.349 -11.042 25.8 -9.591 Q27.251 -8.14 29.509 -8.14 H100.459 L12.578 -96.021 Q11.771 -96.827 11.691 -97.956 Q11.61 -99.085 12.578 -100.052 Q13.545 -101.02 14.593 -101.02 Q15.641 -101.02 16.77 -100.052 L134.966 17.983 Q135.773 18.789 135.773 19.918 Q135.773 21.046 134.805 22.014 Q133.838 22.981 132.709 22.981 Q131.58 22.981 130.774 22.014 L106.103 -2.496 H83.044 V11.533 H93.686 Q94.767 11.533 95.597 12.42 Q96.428 13.307 96.428 14.472 Q96.428 15.568 95.597 16.372 Q94.767 17.176 93.686 17.176 H61.275 Q60.037 17.176 59.205 16.336 Q58.373 15.496 58.373 14.401 Q58.373 13.306 59.205 12.419 Q60.037 11.533 61.275 11.533 H71.756 V-2.496 H29.509 Q25.074 -2.496 21.89 -5.629 Q18.705 -8.763 18.705 -13.3 V-76.671 Q18.705 -80.702 21.527 -83.847 Q24.349 -86.991 29.831 -86.991 Z M136.095 -76.671 V-12.494 Q136.095 -10.881 135.229 -10.236 Q134.363 -9.591 133.324 -9.591 Q132.285 -9.591 131.368 -10.293 Q130.451 -10.995 130.451 -12.332 V-76.671 Q130.451 -78.929 129 -80.38 Q127.549 -81.831 125.291 -81.831 H57.727 Q56.115 -81.831 55.47 -82.624 Q54.825 -83.416 54.825 -84.499 Q54.825 -85.582 55.47 -86.529 Q56.115 -87.475 57.727 -87.475 H125.291 Q129.865 -87.475 132.98 -84.308 Q136.095 -81.142 136.095 -76.671 Z"/></g><g id="Bold-M" transform="matrix(1 0 0 1 2281.8 1126)"><path d="M13.25 -83.73  28.125 -68.98 H21.25 Q21.25 -68.98 21.25 -68.98 Q21.25 -68.98 21.25 -68.98 V-18.355 Q21.25 -18.355 21.25 -18.355 Q21.25 -18.355 21.25 -18.355 H60.25 L3.625 -74.98 Q1.75 -76.855 1.75 -79.542 Q1.75 -82.23 3.625 -84.105 Q5.625 -86.105 8.312 -86.042 Q11 -85.98 13 -84.105 L109.625 12.52 Q111.5 14.52 111.5 17.145 Q111.5 19.77 109.5 21.645 Q107.625 23.645 104.938 23.645 Q102.25 23.645 100.375 21.645 L77.25 -1.355 H73.125 V8.77 H74.75 Q78.2 8.77 80.725 11.208 Q83.25 13.645 83.25 17.208 Q83.25 20.77 80.725 23.27 Q78.2 25.77 74.75 25.77 H45.25 Q41.8 25.77 39.275 23.245 Q36.75 20.72 36.75 17.27 Q36.75 13.645 39.275 11.208 Q41.8 8.77 45.25 8.77 H46.875 V-1.355 H21.25 Q14.109 -1.355 9.18 -6.285 Q4.25 -11.214 4.25 -18.355 V-68.98 Q4.25 -76.23 8.75 -79.98 Q13.25 -83.73 13.25 -83.73 Z M115.75 -68.98 V-22.105 Q115.75 -17.855 113.108 -15.73 Q110.466 -13.605 107.296 -13.605 Q104.125 -13.605 101.438 -15.67 Q98.75 -17.736 98.75 -21.98 V-68.98 Q98.75 -68.98 98.75 -68.98 Q98.75 -68.98 98.75 -68.98 H49.25 Q45 -68.98 42.875 -71.65 Q40.75 -74.321 40.75 -77.525 Q40.75 -80.73 42.875 -83.355 Q45 -85.98 49.25 -85.98 H98.75 Q105.891 -85.98 110.82 -81.05 Q115.75 -76.121 115.75 -68.98 Z"/></g><g id="Semibold-M" transform="matrix(1 0 0 1 1985.97 1126)"><path d="M13.141 -83.023  26.44 -69.795 H20.381 Q20.381 -69.795 20.381 -69.795 Q20.381 -69.795 20.381 -69.795 V-16.725 Q20.381 -16.725 20.381 -16.725 Q20.381 -16.725 20.381 -16.725 H60.902 L3.571 -74.056 Q1.641 -75.985 1.641 -78.673 Q1.641 -81.36 3.571 -83.29 Q5.571 -85.29 8.258 -85.254 Q10.946 -85.219 12.946 -83.29 L109.19 12.955 Q111.12 14.955 111.12 17.58 Q111.12 20.205 109.12 22.134 Q107.19 24.134 104.503 24.134 Q101.815 24.134 99.886 22.134 L76.272 -1.355 H73.179 V8.824 H75.674 Q78.82 8.824 81.089 11.045 Q83.359 13.265 83.359 16.474 Q83.359 19.683 81.089 21.939 Q78.82 24.194 75.674 24.194 H44.326 Q41.181 24.194 38.911 21.924 Q36.641 19.655 36.641 16.509 Q36.641 13.265 38.911 11.045 Q41.181 8.824 44.326 8.824 H46.821 V-1.355 H20.381 Q13.968 -1.355 9.489 -5.834 Q5.011 -10.312 5.011 -16.725 V-69.795 Q5.011 -76.284 9.076 -79.654 Q13.141 -83.023 13.141 -83.023 Z M114.989 -69.795 V-20.149 Q114.989 -16.306 112.594 -14.385 Q110.199 -12.464 107.325 -12.464 Q104.451 -12.464 102.035 -14.369 Q99.62 -16.274 99.62 -20.078 V-69.795 Q99.62 -69.795 99.62 -69.795 Q99.62 -69.795 99.62 -69.795 H47.348 Q43.505 -69.795 41.584 -72.206 Q39.663 -74.617 39.663 -77.511 Q39.663 -80.404 41.584 -82.784 Q43.505 -85.165 47.348 -85.165 H99.62 Q106.032 -85.165 110.51 -80.686 Q114.989 -76.208 114.989 -69.795 Z"/></g><g id="Medium-M" transform="matrix(1 0 0 1 1689.91 1126)"><path d="M13.06 -82.494  25.177 -70.407 H19.728 Q19.728 -70.407 19.728 -70.407 Q19.728 -70.407 19.728 -70.407 V-15.502 Q19.728 -15.502 19.728 -15.502 Q19.728 -15.502 19.728 -15.502 H61.391 L3.53 -73.363 Q1.56 -75.333 1.56 -78.021 Q1.56 -80.708 3.53 -82.678 Q5.53 -84.678 8.217 -84.663 Q10.905 -84.648 12.905 -82.678 L108.864 13.281 Q110.834 15.281 110.834 17.906 Q110.834 20.531 108.834 22.501 Q106.864 24.501 104.177 24.501 Q101.489 24.501 99.519 22.501 L75.538 -1.355 H73.22 V8.865 H76.367 Q79.284 8.865 81.362 10.922 Q83.44 12.979 83.44 15.924 Q83.44 18.868 81.362 20.94 Q79.284 23.012 76.367 23.012 H43.633 Q40.716 23.012 38.638 20.934 Q36.56 18.856 36.56 15.939 Q36.56 12.979 38.638 10.922 Q40.716 8.865 43.633 8.865 H46.78 V-1.355 H19.728 Q13.862 -1.355 9.722 -5.495 Q5.582 -9.636 5.582 -15.502 V-70.407 Q5.582 -76.325 9.321 -79.409 Q13.06 -82.494 13.06 -82.494 Z M114.418 -70.407 V-18.681 Q114.418 -15.144 112.209 -13.376 Q109.999 -11.608 107.347 -11.608 Q104.696 -11.608 102.484 -13.393 Q100.272 -15.177 100.272 -18.651 V-70.407 Q100.272 -70.407 100.272 -70.407 Q100.272 -70.407 100.272 -70.407 H45.921 Q42.385 -70.407 40.616 -72.623 Q38.848 -74.84 38.848 -77.499 Q38.848 -80.159 40.616 -82.356 Q42.385 -84.553 45.921 -84.553 H100.272 Q106.138 -84.553 110.278 -80.413 Q114.418 -76.273 114.418 -70.407 Z"/></g><g id="Regular-M" transform="matrix(1 0 0 1 1394.06 1126)"><path d="M13 -82.105  24.25 -70.855 H19.25 Q19.25 -70.855 19.25 -70.855 Q19.25 -70.855 19.25 -70.855 V-14.605 Q19.25 -14.605 19.25 -14.605 Q19.25 -14.605 19.25 -14.605 H61.75 L3.5 -72.855 Q1.5 -74.855 1.5 -77.542 Q1.5 -80.23 3.5 -82.23 Q5.5 -84.23 8.188 -84.23 Q10.875 -84.23 12.875 -82.23 L108.625 13.52 Q110.625 15.52 110.625 18.145 Q110.625 20.77 108.625 22.77 Q106.625 24.77 103.938 24.77 Q101.25 24.77 99.25 22.77 L75 -1.355 H73.25 V8.895 H76.875 Q79.625 8.895 81.562 10.833 Q83.5 12.77 83.5 15.52 Q83.5 18.27 81.562 20.208 Q79.625 22.145 76.875 22.145 H43.125 Q40.375 22.145 38.438 20.208 Q36.5 18.27 36.5 15.52 Q36.5 12.77 38.438 10.833 Q40.375 8.895 43.125 8.895 H46.75 V-1.355 H19.25 Q13.784 -1.355 9.892 -5.247 Q6 -9.139 6 -14.605 V-70.855 Q6 -76.355 9.5 -79.23 Q13 -82.105 13 -82.105 Z M114 -70.855 V-17.605 Q114 -14.292 111.926 -12.636 Q109.852 -10.98 107.364 -10.98 Q104.875 -10.98 102.812 -12.677 Q100.75 -14.373 100.75 -17.605 V-70.855 Q100.75 -70.855 100.75 -70.855 Q100.75 -70.855 100.75 -70.855 H44.875 Q41.562 -70.855 39.906 -72.929 Q38.25 -75.003 38.25 -77.491 Q38.25 -79.98 39.906 -82.042 Q41.562 -84.105 44.875 -84.105 H100.75 Q106.216 -84.105 110.108 -80.213 Q114 -76.321 114 -70.855 Z"/></g><g id="Light-M" transform="matrix(1 0 0 1 1098.18 1126)"><path d="M16.125 -79.941  25.212 -70.855 H20.789 Q20.212 -70.855 19.731 -70.374 Q19.25 -69.893 19.25 -69.316 V-16.144 Q19.25 -15.47 19.683 -15.038 Q20.116 -14.605 20.789 -14.605 H66.173 L5.327 -75.451 Q3.664 -77.115 3.64 -79.249 Q3.615 -81.384 5.327 -83.095 Q7.039 -84.807 9.149 -84.807 Q11.26 -84.807 12.971 -83.095 L107.663 11.597 Q109.327 13.26 109.351 15.332 Q109.375 17.404 107.663 19.116 Q105.952 20.827 103.841 20.827 Q101.731 20.827 100.019 19.116 L76.923 -3.855 H70.75 V6.395 H75.625 Q77.844 6.395 79.422 7.973 Q81 9.552 81 11.771 Q81 13.991 79.422 15.568 Q77.844 17.145 75.625 17.145 H44.375 Q42.156 17.145 40.578 15.566 Q39 13.988 39 11.768 Q39 9.549 40.578 7.972 Q42.156 6.395 44.375 6.395 H49.25 V-3.855 H20.789 Q15.659 -3.855 12.08 -7.435 Q8.5 -11.014 8.5 -16.144 V-69.316 Q8.5 -74.287 11.688 -77.114 Q14.875 -79.941 16.125 -79.941 Z M111.5 -69.316 V-18.038 Q111.5 -15.35 109.819 -14.006 Q108.139 -12.663 106.122 -12.663 Q104.106 -12.663 102.428 -14.027 Q100.75 -15.391 100.75 -17.99 V-69.316 Q100.75 -69.989 100.317 -70.422 Q99.885 -70.855 99.211 -70.855 H45.26 Q42.572 -70.855 41.228 -72.535 Q39.885 -74.216 39.885 -76.232 Q39.885 -78.249 41.228 -79.927 Q42.572 -81.605 45.26 -81.605 H99.211 Q104.341 -81.605 107.92 -78.025 Q111.5 -74.445 111.5 -69.316 Z"/></g><g id="Thin-M" transform="matrix(1 0 0 1 802.565 1126)"><path d="M19.25 -77.778  26.173 -70.855 H22.327 Q21.173 -70.855 20.212 -69.893 Q19.25 -68.932 19.25 -67.778 V-17.682 Q19.25 -16.336 20.115 -15.47 Q20.981 -14.605 22.327 -14.605 H70.596 L7.154 -78.047 Q5.827 -79.374 5.779 -80.956 Q5.731 -82.538 7.154 -83.961 Q8.577 -85.384 10.111 -85.384 Q11.644 -85.384 13.067 -83.961 L106.702 9.674 Q108.029 11.001 108.077 12.52 Q108.125 14.039 106.702 15.462 Q105.279 16.885 103.745 16.885 Q102.212 16.885 100.788 15.462 L78.846 -6.355 H68.25 V3.895 H74.375 Q76.062 3.895 77.281 5.115 Q78.5 6.335 78.5 8.023 Q78.5 9.712 77.281 10.929 Q76.062 12.145 74.375 12.145 H45.625 Q43.938 12.145 42.719 10.925 Q41.5 9.706 41.5 8.017 Q41.5 6.328 42.719 5.111 Q43.938 3.895 45.625 3.895 H51.75 V-6.355 H22.327 Q17.534 -6.355 14.267 -9.622 Q11 -12.889 11 -17.682 V-67.778 Q11 -72.22 13.875 -74.999 Q16.75 -77.778 19.25 -77.778 Z M109 -67.778 V-18.47 Q109 -16.408 107.713 -15.377 Q106.426 -14.345 104.881 -14.345 Q103.337 -14.345 102.043 -15.377 Q100.75 -16.409 100.75 -18.374 V-67.778 Q100.75 -69.124 99.885 -69.99 Q99.019 -70.855 97.673 -70.855 H45.644 Q43.582 -70.855 42.55 -72.142 Q41.519 -73.429 41.519 -74.974 Q41.519 -76.518 42.55 -77.812 Q43.582 -79.105 45.644 -79.105 H97.673 Q102.466 -79.105 105.733 -75.838 Q109 -72.571 109 -67.778 Z"/></g><g id="Ultralight-M" transform="matrix(1 0 0 1 506.415 1126)"><path d="M21.125 -76.48  26.75 -70.855 H23.25 Q21.75 -70.855 20.5 -69.605 Q19.25 -68.355 19.25 -66.855 V-18.605 Q19.25 -16.855 20.375 -15.73 Q21.5 -14.605 23.25 -14.605 H73.25 L8.25 -79.605 Q7.125 -80.73 7.062 -81.98 Q7 -83.23 8.25 -84.48 Q9.5 -85.73 10.688 -85.73 Q11.875 -85.73 13.125 -84.48 L106.125 8.52 Q107.25 9.645 107.312 10.833 Q107.375 12.02 106.125 13.27 Q104.875 14.52 103.688 14.52 Q102.5 14.52 101.25 13.27 L80 -7.855 H66.75 V2.395 H73.625 Q74.994 2.395 75.997 3.399 Q77 4.404 77 5.774 Q77 7.145 75.997 8.145 Q74.994 9.145 73.625 9.145 H46.375 Q45.006 9.145 44.003 8.141 Q43 7.136 43 5.766 Q43 4.395 44.003 3.395 Q45.006 2.395 46.375 2.395 H53.25 V-7.855 H23.25 Q18.659 -7.855 15.58 -10.935 Q12.5 -14.014 12.5 -18.605 V-66.855 Q12.5 -70.98 15.188 -73.73 Q17.875 -76.48 21.125 -76.48 Z M107.5 -66.855 V-18.73 Q107.5 -17.042 106.449 -16.199 Q105.398 -15.355 104.136 -15.355 Q102.875 -15.355 101.812 -16.187 Q100.75 -17.02 100.75 -18.605 V-66.855 Q100.75 -68.605 99.625 -69.73 Q98.5 -70.855 96.75 -70.855 H45.875 Q44.188 -70.855 43.344 -71.906 Q42.5 -72.957 42.5 -74.219 Q42.5 -75.48 43.344 -76.542 Q44.188 -77.605 45.875 -77.605 H96.75 Q101.341 -77.605 104.42 -74.525 Q107.5 -71.446 107.5 -66.855 Z"/></g><g id="Bold-S" transform="matrix(1 0 0 1 2294.23 696)"><path d="M12.525 -71.425  23.769 -60.281 H17.555 Q17.555 -60.281 17.555 -60.281 Q17.555 -60.281 17.555 -60.281 V-21.127 Q17.555 -21.127 17.555 -21.127 Q17.555 -21.127 17.555 -21.127 H49.312 L5.31 -65.129 Q3.846 -66.593 3.846 -68.417 Q3.846 -70.242 5.326 -71.721 Q6.904 -73.299 8.778 -73.25 Q10.652 -73.201 12.229 -71.721 L84.522 0.571 Q86.001 2.149 86.001 3.924 Q86.001 5.699 84.423 7.179 Q82.944 8.757 81.119 8.757 Q79.294 8.757 77.815 7.179 L61.937 -8.503 H56.907 V-1.303 H57.794 Q60.349 -1.303 62.227 0.501 Q64.106 2.305 64.106 4.939 Q64.106 7.573 62.229 9.447 Q60.351 11.321 57.798 11.321 H36.914 Q34.361 11.321 32.467 9.448 Q30.574 7.575 30.574 5.03 Q30.574 2.346 32.453 0.533 Q34.331 -1.28 36.886 -1.28 H37.773 V-8.503 H17.555 Q12.247 -8.503 8.589 -12.16 Q4.931 -15.818 4.931 -21.127 V-60.281 Q4.931 -66.494 8.728 -68.96 Q12.525 -71.425 12.525 -71.425 Z M89.749 -60.281 V-23.296 Q89.749 -20.14 87.787 -18.562 Q85.826 -16.984 83.473 -16.984 Q81.119 -16.984 79.122 -18.488 Q77.125 -19.991 77.125 -23.099 V-60.281 Q77.125 -60.281 77.125 -60.281 Q77.125 -60.281 77.125 -60.281 H37.675 Q34.519 -60.281 32.941 -62.264 Q31.363 -64.248 31.363 -66.629 Q31.363 -69.009 32.941 -70.957 Q34.519 -72.905 37.675 -72.905 H77.125 Q82.433 -72.905 86.091 -69.247 Q89.749 -65.589 89.749 -60.281 Z"/></g><g id="Semibold-S" transform="matrix(1 0 0 1 1998.1 696)"><path d="M12.44 -70.868  22.439 -60.924 H16.869 Q16.869 -60.924 16.869 -60.924 Q16.869 -60.924 16.869 -60.924 V-19.84 Q16.869 -19.84 16.869 -19.84 Q16.869 -19.84 16.869 -19.84 H49.827 L5.267 -64.4 Q3.761 -65.907 3.761 -67.731 Q3.761 -69.556 5.283 -71.078 Q6.861 -72.656 8.735 -72.628 Q10.609 -72.6 12.187 -71.078 L84.179 0.914 Q85.701 2.492 85.701 4.267 Q85.701 6.042 84.123 7.565 Q82.601 9.143 80.776 9.143 Q78.951 9.143 77.429 7.565 L61.165 -8.503 H56.95 V-1.26 H58.523 Q60.837 -1.26 62.515 0.372 Q64.192 2.004 64.192 4.36 Q64.192 6.716 62.516 8.397 Q60.84 10.078 58.527 10.078 H36.185 Q33.872 10.078 32.18 8.406 Q30.488 6.735 30.488 4.429 Q30.488 2.046 32.165 0.404 Q33.843 -1.237 36.157 -1.237 H37.73 V-8.503 H16.869 Q12.135 -8.503 8.833 -11.804 Q5.532 -15.106 5.532 -19.84 V-60.924 Q5.532 -66.537 8.986 -68.702 Q12.44 -70.868 12.44 -70.868 Z M89.148 -60.924 V-21.753 Q89.148 -18.918 87.382 -17.501 Q85.616 -16.084 83.496 -16.084 Q81.376 -16.084 79.594 -17.461 Q77.811 -18.838 77.811 -21.598 V-60.924 Q77.811 -60.924 77.811 -60.924 Q77.811 -60.924 77.811 -60.924 H36.174 Q33.34 -60.924 31.922 -62.703 Q30.505 -64.482 30.505 -66.617 Q30.505 -68.752 31.922 -70.507 Q33.34 -72.262 36.174 -72.262 H77.811 Q82.545 -72.262 85.847 -68.96 Q89.148 -65.658 89.148 -60.924 Z"/></g><g id="Medium-S" transform="matrix(1 0 0 1 1701.85 696)"><path d="M12.375 -70.45  21.442 -61.406 H16.355 Q16.355 -61.406 16.355 -61.406 Q16.355 -61.406 16.355 -61.406 V-18.875 Q16.355 -18.875 16.355 -18.875 Q16.355 -18.875 16.355 -18.875 H50.213 L5.235 -63.853 Q3.696 -65.392 3.696 -67.217 Q3.696 -69.041 5.251 -70.596 Q6.829 -72.174 8.703 -72.162 Q10.576 -72.15 12.154 -70.596 L83.921 1.171 Q85.476 2.749 85.476 4.524 Q85.476 6.3 83.898 7.854 Q82.343 9.432 80.519 9.432 Q78.694 9.432 77.14 7.854 L60.586 -8.503 H56.982 V-1.228 H59.07 Q61.204 -1.228 62.73 0.276 Q64.256 1.779 64.256 3.926 Q64.256 6.072 62.731 7.609 Q61.206 9.145 59.074 9.145 H35.638 Q33.505 9.145 31.965 7.625 Q30.424 6.105 30.424 3.979 Q30.424 1.821 31.95 0.308 Q33.476 -1.205 35.61 -1.205 H37.698 V-8.503 H16.355 Q12.052 -8.503 9.017 -11.538 Q5.982 -14.573 5.982 -18.875 V-61.406 Q5.982 -66.569 9.179 -68.51 Q12.375 -70.45 12.375 -70.45 Z M88.698 -61.406 V-20.595 Q88.698 -18.002 87.078 -16.705 Q85.458 -15.409 83.514 -15.409 Q81.569 -15.409 79.947 -16.69 Q78.325 -17.972 78.325 -20.473 V-61.406 Q78.325 -61.406 78.325 -61.406 Q78.325 -61.406 78.325 -61.406 H35.048 Q32.455 -61.406 31.158 -63.032 Q29.862 -64.657 29.862 -66.608 Q29.862 -68.559 31.158 -70.169 Q32.455 -71.779 35.048 -71.779 H78.325 Q82.628 -71.779 85.663 -68.744 Q88.698 -65.709 88.698 -61.406 Z"/></g><g id="Regular-S" transform="matrix(1 0 0 1 1405.73 696)"><path d="M12.328 -70.143  20.711 -61.76 H15.977 Q15.977 -61.76 15.977 -61.76 Q15.977 -61.76 15.977 -61.76 V-18.168 Q15.977 -18.168 15.977 -18.168 Q15.977 -18.168 15.977 -18.168 H50.496 L5.211 -63.452 Q3.649 -65.015 3.649 -66.839 Q3.649 -68.664 5.227 -70.242 Q6.805 -71.82 8.679 -71.82 Q10.553 -71.82 12.131 -70.242 L83.733 1.36 Q85.311 2.938 85.311 4.713 Q85.311 6.488 83.733 8.066 Q82.155 9.644 80.33 9.644 Q78.505 9.644 76.928 8.066 L60.161 -8.503 H57.005 V-1.204 H59.471 Q61.473 -1.204 62.888 0.205 Q64.303 1.614 64.303 3.608 Q64.303 5.601 62.889 7.031 Q61.475 8.461 59.475 8.461 H35.237 Q33.237 8.461 31.807 7.052 Q30.377 5.642 30.377 3.649 Q30.377 1.656 31.792 0.237 Q33.207 -1.181 35.209 -1.181 H37.675 V-8.503 H15.977 Q11.99 -8.503 9.151 -11.342 Q6.312 -14.181 6.312 -18.168 V-61.76 Q6.312 -66.593 9.32 -68.368 Q12.328 -70.143 12.328 -70.143 Z M88.368 -61.76 V-19.746 Q88.368 -17.33 86.855 -16.121 Q85.342 -14.913 83.526 -14.913 Q81.711 -14.913 80.207 -16.126 Q78.703 -17.338 78.703 -19.647 V-61.76 Q78.703 -61.76 78.703 -61.76 Q78.703 -61.76 78.703 -61.76 H34.223 Q31.807 -61.76 30.598 -63.273 Q29.39 -64.786 29.39 -66.602 Q29.39 -68.417 30.598 -69.921 Q31.807 -71.425 34.223 -71.425 H78.703 Q82.69 -71.425 85.529 -68.586 Q88.368 -65.747 88.368 -61.76 Z"/></g><g id="Light-S" transform="matrix(1 0 0 1 1109.75 696)"><path d="M14.794 -68.436  21.47 -61.76 H17.191 Q16.736 -61.76 16.357 -61.381 Q15.977 -61.001 15.977 -60.546 V-19.382 Q15.977 -18.851 16.319 -18.509 Q16.66 -18.168 17.191 -18.168 H53.986 L6.653 -65.501 Q5.356 -66.798 5.337 -68.186 Q5.318 -69.574 6.669 -70.925 Q8.019 -72.275 9.438 -72.275 Q10.856 -72.275 12.207 -70.925 L82.974 -0.158 Q84.286 1.155 84.305 2.494 Q84.324 3.833 82.974 5.183 Q81.624 6.534 80.254 6.534 Q78.885 6.534 77.534 5.183 L61.679 -10.475 H55.033 V-3.177 H58.485 Q60.067 -3.177 61.199 -2.051 Q62.331 -0.925 62.331 0.65 Q62.331 2.225 61.2 3.37 Q60.07 4.516 58.489 4.516 H36.223 Q34.642 4.516 33.496 3.389 Q32.349 2.263 32.349 0.689 Q32.349 -0.886 33.481 -2.02 Q34.613 -3.154 36.195 -3.154 H39.647 V-10.475 H17.191 Q13.47 -10.475 10.877 -13.068 Q8.285 -15.66 8.285 -19.382 V-60.546 Q8.285 -64.961 11.046 -66.699 Q13.808 -68.436 14.794 -68.436 Z M86.395 -60.546 V-20.087 Q86.395 -18.164 85.193 -17.203 Q83.99 -16.241 82.547 -16.241 Q81.104 -16.241 79.903 -17.191 Q78.703 -18.141 78.703 -19.951 V-60.546 Q78.703 -61.077 78.361 -61.419 Q78.02 -61.76 77.489 -61.76 H34.526 Q32.603 -61.76 31.642 -62.963 Q30.68 -64.165 30.68 -65.608 Q30.68 -67.052 31.642 -68.252 Q32.603 -69.453 34.526 -69.453 H77.489 Q81.21 -69.453 83.803 -66.86 Q86.395 -64.268 86.395 -60.546 Z"/></g><g id="Thin-S" transform="matrix(1 0 0 1 814.015 696)"><path d="M17.259 -66.729  22.229 -61.76 H18.405 Q17.495 -61.76 16.736 -61.002 Q15.977 -60.243 15.977 -59.332 V-20.596 Q15.977 -19.533 16.66 -18.851 Q17.343 -18.168 18.405 -18.168 H57.476 L8.094 -67.549 Q7.063 -68.58 7.025 -69.532 Q6.987 -70.485 8.11 -71.607 Q9.233 -72.73 10.196 -72.73 Q11.16 -72.73 12.283 -71.607 L82.215 -1.675 Q83.262 -0.628 83.3 0.275 Q83.338 1.178 82.215 2.301 Q81.093 3.424 80.178 3.424 Q79.264 3.424 78.141 2.301 L63.196 -12.448 H53.06 V-5.149 H57.498 Q58.662 -5.149 59.51 -4.306 Q60.358 -3.463 60.358 -2.307 Q60.358 -1.151 59.512 -0.29 Q58.664 0.571 57.502 0.571 H37.21 Q36.047 0.571 35.184 -0.272 Q34.322 -1.115 34.322 -2.271 Q34.322 -3.427 35.17 -4.277 Q36.018 -5.126 37.182 -5.126 H41.62 V-12.448 H18.405 Q14.949 -12.448 12.603 -14.794 Q10.257 -17.14 10.257 -20.596 V-59.332 Q10.257 -63.331 12.772 -65.03 Q15.287 -66.729 17.259 -66.729 Z M84.423 -59.332 V-20.429 Q84.423 -18.999 83.531 -18.284 Q82.638 -17.569 81.568 -17.569 Q80.497 -17.569 79.6 -18.256 Q78.703 -18.944 78.703 -20.254 V-59.332 Q78.703 -60.395 78.02 -61.077 Q77.337 -61.76 76.275 -61.76 H34.83 Q33.4 -61.76 32.685 -62.652 Q31.97 -63.545 31.97 -64.615 Q31.97 -65.686 32.685 -66.583 Q33.4 -67.48 34.83 -67.48 H76.275 Q79.731 -67.48 82.077 -65.134 Q84.423 -62.788 84.423 -59.332 Z"/></g><g id="Ultralight-S" transform="matrix(1 0 0 1 517.792 696)"><path d="M18.739 -65.705  22.684 -61.76 H19.133 Q17.95 -61.76 16.963 -60.774 Q15.977 -59.788 15.977 -58.604 V-21.324 Q15.977 -19.943 16.865 -19.055 Q17.753 -18.168 19.133 -18.168 H59.57 L8.959 -68.778 Q8.087 -69.65 8.038 -70.34 Q7.989 -71.031 8.975 -72.017 Q9.961 -73.003 10.652 -73.003 Q11.342 -73.003 12.328 -72.017 L81.76 -2.585 Q82.648 -1.697 82.697 -1.056 Q82.746 -0.415 81.76 0.571 Q80.774 1.557 80.133 1.557 Q79.492 1.557 78.505 0.571 L64.106 -13.631 H51.877 V-6.333 H56.907 Q57.819 -6.333 58.497 -5.66 Q59.175 -4.987 59.175 -4.082 Q59.175 -3.177 58.498 -2.486 Q57.821 -1.796 56.911 -1.796 H37.801 Q36.891 -1.796 36.198 -2.469 Q35.505 -3.142 35.505 -4.047 Q35.505 -4.952 36.183 -5.631 Q36.861 -6.31 37.773 -6.31 H42.803 V-13.631 H19.133 Q15.837 -13.631 13.639 -15.829 Q11.441 -18.027 11.441 -21.324 V-58.604 Q11.441 -62.352 13.808 -64.028 Q16.175 -65.705 18.739 -65.705 Z M83.24 -58.604 V-20.633 Q83.24 -19.499 82.533 -18.932 Q81.827 -18.365 80.98 -18.365 Q80.133 -18.365 79.418 -18.896 Q78.703 -19.426 78.703 -20.436 V-58.604 Q78.703 -59.985 77.815 -60.872 Q76.928 -61.76 75.547 -61.76 H35.012 Q33.878 -61.76 33.311 -62.466 Q32.744 -63.172 32.744 -64.02 Q32.744 -64.867 33.311 -65.582 Q33.878 -66.297 35.012 -66.297 H75.547 Q78.843 -66.297 81.041 -64.099 Q83.24 -61.901 83.24 -58.604 Z"/></g></g></svg>