<svg xmlns="http://www.w3.org/2000/svg" version="1.1" width="3300" height="2000"><g id="Notes"><style>
    text {
      font-family: monospace;
      text-anchor: middle;
    }
    text.emphasis {
      font-weight:bold;
    }
    text.lanchor {
      text-anchor: start;
    }
  </style><rect height="2200" id="artboard" fill="white" width="3300" x="0" y="0"/><line id="" style="fill:none;stroke:black;stroke-width:0.5;" x1="263" x2="3036" y1="292" y2="292"/><text class="lanchor emphasis" transform="matrix(1 0 0 1 263 322)">Weight/Scale Variations</text><text transform="matrix(1 0 0 1 559.711 322)">Ultralight</text><text transform="matrix(1 0 0 1 856.422 322)">Thin</text><text transform="matrix(1 0 0 1 1153.13 322)">Light</text><text transform="matrix(1 0 0 1 1449.84 322)">Regular</text><text transform="matrix(1 0 0 1 1746.56 322)">Medium</text><text transform="matrix(1 0 0 1 2043.27 322)">Semibold</text><text transform="matrix(1 0 0 1 2339.98 322)">Bold</text><text transform="matrix(1 0 0 1 2636.69 322)">Heavy</text><text transform="matrix(1 0 0 1 2933.4 322)">Black</text><text id="template-version" style="text-anchor: end;" transform="matrix(1 0 0 1 3036 1933)">Template v.1.0</text><text class="lanchor" transform="matrix(1 0 0 1 263 726)">Small</text><text class="lanchor" transform="matrix(1 0 0 1 263 1156)">Medium</text><text class="lanchor" transform="matrix(1 0 0 1 263 1586)">Large</text></g><g id="Guides"><g id="H-reference" style="fill:#27AAE1;stroke:none;" transform="matrix(1 0 0 1 339 696)"><path d="M 54.9316 0 L 57.666 0 L 30.5664 -70.459 L 28.0762 -70.459 L 0.976562 0 L 3.66211 0 L 12.9395 -24.4629 L 45.7031 -24.4629 Z M 29.1992 -67.0898 L 29.4434 -67.0898 L 44.8242 -26.709 L 13.8184 -26.709 Z"/></g><line id="Baseline-S" style="fill:none;stroke:#27AAE1;opacity:1;stroke-width:0.577;" x1="263" x2="3036" y1="696" y2="696"/><line id="Capline-S" style="fill:none;stroke:#27AAE1;opacity:1;stroke-width:0.577;" x1="263" x2="3036" y1="625.541" y2="625.541"/><g id="H-reference" style="fill:#27AAE1;stroke:none;" transform="matrix(1 0 0 1 339 1126)"><path d="M 54.9316 0 L 57.666 0 L 30.5664 -70.459 L 28.0762 -70.459 L 0.976562 0 L 3.66211 0 L 12.9395 -24.4629 L 45.7031 -24.4629 Z M 29.1992 -67.0898 L 29.4434 -67.0898 L 44.8242 -26.709 L 13.8184 -26.709 Z"/></g><line id="Baseline-M" style="fill:none;stroke:#27AAE1;opacity:1;stroke-width:0.577;" x1="263" x2="3036" y1="1126" y2="1126"/><line id="Capline-M" style="fill:none;stroke:#27AAE1;opacity:1;stroke-width:0.577;" x1="263" x2="3036" y1="1055.54" y2="1055.54"/><g id="H-reference" style="fill:#27AAE1;stroke:none;" transform="matrix(1 0 0 1 339 1556)"><path d="M 54.9316 0 L 57.666 0 L 30.5664 -70.459 L 28.0762 -70.459 L 0.976562 0 L 3.66211 0 L 12.9395 -24.4629 L 45.7031 -24.4629 Z M 29.1992 -67.0898 L 29.4434 -67.0898 L 44.8242 -26.709 L 13.8184 -26.709 Z"/></g><line id="Baseline-L" style="fill:none;stroke:#27AAE1;opacity:1;stroke-width:0.577;" x1="263" x2="3036" y1="1556" y2="1556"/><line id="Capline-L" style="fill:none;stroke:#27AAE1;opacity:1;stroke-width:0.577;" x1="263" x2="3036" y1="1485.54" y2="1485.54"/><rect height="119.336" id="left-margin" style="fill:darkred;stroke:none;opacity:0.4;" width="12.4512" x="1394.06" y="1030.79"/><rect height="119.336" id="right-margin" style="fill:darkgreen;stroke:none;opacity:0.4;" width="12.4512" x="1502.5112" y="1030.79"/><rect x="1406.5112" y="1045" width="96" height="96" fill="none" stroke="blue" stroke-dasharray="5"/><rect x="1394.06" y="1030.79" width="120.9024" height="119.336" fill="none" stroke="blue"/></g><g id="Symbols"><g id="Bold-L" transform="matrix(1 0 0 1 2266 1556)"><path d="M44.183 21.611  34.83 12.178  48.375 -1.045 Q29.589 -0.239 15.722 -12.688 Q1.854 -25.138 1.854 -43.857 Q1.854 -63.344 16.125 -76.78 Q30.396 -90.216 50.395 -90.216 H70.627 V-77.397 H50.391 Q35.568 -77.397 25.201 -67.862 Q14.835 -58.328 14.835 -43.857 Q14.835 -30.136 25.316 -21.275 Q35.797 -12.413 49.988 -12.977 L34.83 -28.135 L44.021 -37.326 L73.611 -7.817 L44.183 21.611 Z M83.124 19.595 V-29.022 H145.286 V19.595 H83.124 Z M83.124 -41.519 V-90.216 H145.286 V-41.519 H83.124 Z M98.04 -56.434 H130.532 V-75.301 H98.04 V-56.434 Z"/></g><g id="Semibold-L" transform="matrix(1 0 0 1 1970.27 1556)"><path d="M44.954 21.751  36.793 13.509  50.548 -0.063 Q31.693 0.883 17.825 -11.622 Q3.958 -24.127 3.958 -43.016 Q3.958 -62.093 17.807 -75.243 Q31.658 -88.393 51.164 -88.393 H71.048 V-77.116 H51.162 Q36.264 -77.116 25.795 -67.363 Q15.326 -57.61 15.326 -43.016 Q15.326 -28.74 26.192 -19.455 Q37.059 -10.17 51.74 -10.734 L36.793 -25.681 L44.862 -33.751 L72.699 -5.995 L44.954 21.751 Z M83.545 17.842 V-29.022 H143.463 V17.842 H83.545 Z M83.545 -41.519 V-88.393 H143.463 V-41.519 H83.545 Z M96.007 -53.981 H131.093 V-75.932 H96.007 V-53.981 Z"/></g><g id="Medium-L" transform="matrix(1 0 0 1 1674.31 1556)"><path d="M45.532 21.856  38.265 14.509  52.178 0.673 Q33.27 1.724 19.403 -10.823 Q5.535 -23.37 5.535 -42.385 Q5.535 -61.154 19.07 -74.09 Q32.604 -87.026 51.741 -87.026 H71.364 V-76.906 H51.74 Q36.785 -76.906 26.24 -66.989 Q15.694 -57.071 15.694 -42.385 Q15.694 -27.693 26.85 -18.09 Q38.006 -8.487 53.055 -9.051 L38.265 -23.841 L45.493 -31.069 L72.016 -4.628 L45.532 21.856 Z M83.86 16.528 V-29.022 H142.096 V16.528 H83.86 Z M83.86 -41.519 V-87.026 H142.096 V-41.519 H83.86 Z M94.482 -52.14 H131.513 V-76.405 H94.482 V-52.14 Z"/></g><g id="Regular-L" transform="matrix(1 0 0 1 1378.56 1556)"><path d="M45.956 21.933  39.345 15.241  53.374 1.213 Q34.427 2.341 20.559 -10.236 Q6.692 -22.814 6.692 -41.922 Q6.692 -60.466 19.995 -73.245 Q33.298 -86.024 52.164 -86.024 H71.595 V-76.752 H52.164 Q37.168 -76.752 26.566 -66.714 Q15.964 -56.676 15.964 -41.922 Q15.964 -26.926 27.332 -17.089 Q38.7 -7.253 54.019 -7.817 L39.345 -22.491 L45.956 -29.102 L71.514 -3.625 L45.956 21.933 Z M84.092 15.564 V-29.022 H141.094 V15.564 H84.092 Z M84.092 -41.519 V-86.024 H141.094 V-41.519 H84.092 Z M93.364 -50.791 H131.822 V-76.752 H93.364 V-50.791 Z"/></g><g id="Light-L" transform="matrix(1 0 0 1 1082.77 1556)"><path d="M46.825 18.367  41.795 13.225  56.32 -1.237 Q37.962 -0.419 24.281 -12.02 Q10.599 -23.62 10.599 -41.86 Q10.599 -59.225 23.127 -71.167 Q35.655 -83.109 53.374 -83.109 H69.765 V-76.039 H53.467 Q38.719 -76.039 28.194 -66.202 Q17.669 -56.366 17.669 -41.86 Q17.669 -26.771 29.487 -17.198 Q41.305 -7.625 56.965 -8.097 L41.795 -23.267 L46.825 -28.296 L70.212 -5.02 L46.825 18.367 Z M85.642 12.649 V-28.34 H138.179 V12.649 H85.642 Z M85.642 -42.232 V-83.109 H138.179 V-42.232 H85.642 Z M92.712 -49.302 H131.109 V-76.039 H92.712 V-49.302 Z"/></g><g id="Thin-L" transform="matrix(1 0 0 1 787.282 1556)"><path d="M47.693 14.801  44.244 11.21  59.266 -3.687 Q41.497 -3.178 28.002 -13.802 Q14.506 -24.426 14.506 -41.798 Q14.506 -57.985 26.259 -69.089 Q38.012 -80.194 54.583 -80.194 H67.936 V-75.325 H54.769 Q40.269 -75.325 29.822 -65.691 Q19.375 -56.056 19.375 -41.798 Q19.375 -26.616 31.642 -17.306 Q43.91 -7.997 59.911 -8.376 L44.244 -24.042 L47.693 -27.49 L68.91 -6.416 L47.693 14.801 Z M87.193 9.734 V-27.658 H135.264 V9.734 H87.193 Z M87.193 -42.945 V-80.194 H135.264 V-42.945 H87.193 Z M92.061 -47.814 H130.395 V-75.325 H92.061 V-47.814 Z"/></g><g id="Ultralight-L" transform="matrix(1 0 0 1 491.205 1556)"><path d="M48.214 12.661  45.714 10.001  61.033 -5.157 Q43.618 -4.834 30.234 -14.872 Q16.851 -24.91 16.851 -41.761 Q16.851 -57.241 28.138 -67.843 Q39.426 -78.445 55.309 -78.445 H66.838 V-74.897 H55.551 Q41.199 -74.897 30.799 -65.384 Q20.398 -55.87 20.398 -41.761 Q20.398 -26.522 32.935 -17.372 Q45.473 -8.221 61.678 -8.543 L45.714 -24.507 L48.214 -27.006 L68.128 -7.253 L48.214 12.661 Z M88.123 7.985 V-27.248 H133.515 V7.985 H88.123 Z M88.123 -43.373 V-78.445 H133.515 V-43.373 H88.123 Z M91.671 -46.921 H129.968 V-74.897 H91.671 V-46.921 Z"/></g><g id="Bold-M" transform="matrix(1 0 0 1 2281.8 1126)"><path d="M34.375 8.145  24.938 -1.292  32.688 -9.042 Q19.188 -10.667 9.75 -20.006 Q0.312 -29.344 0.312 -42.542 Q0.312 -57.785 11.812 -68.07 Q23.312 -78.355 39 -78.355 H54.938 V-65.23 H38.938 Q28.572 -65.23 21.005 -58.855 Q13.438 -52.48 13.438 -42.542 Q13.438 -34.391 19.281 -28.623 Q25.125 -22.855 33.312 -21.417 L24.938 -29.792 L34.25 -39.23 L57.938 -15.542 L34.375 8.145 Z M64.312 7.77 V-30.542 H113.125 V7.77 H64.312 Z M64.312 -39.917 V-78.23 H113.125 V-39.917 H64.312 Z M79.438 -55.042 H98 V-63.105 H79.438 V-55.042 Z"/></g><g id="Semibold-M" transform="matrix(1 0 0 1 1985.97 1126)"><path d="M35.19 8.254  27.003 0.066  34.916 -8.01 Q21.361 -9.472 11.924 -18.908 Q2.486 -28.343 2.486 -41.673 Q2.486 -56.484 13.552 -66.468 Q24.617 -76.453 39.815 -76.453 H55.372 V-64.958 H39.753 Q29.274 -64.958 21.628 -58.366 Q13.981 -51.773 13.981 -41.673 Q13.981 -32.962 20.178 -26.767 Q26.375 -20.572 35.16 -19.135 L27.003 -27.293 L35.12 -35.535 L57.014 -13.64 L35.19 8.254 Z M64.747 5.922 V-30.542 H111.223 V5.922 H64.747 Z M64.747 -39.917 V-76.382 H111.223 V-39.917 H64.747 Z M77.372 -52.543 H98.598 V-63.757 H77.372 V-52.543 Z"/></g><g id="Medium-M" transform="matrix(1 0 0 1 1689.91 1126)"><path d="M35.802 8.335  28.552 1.085  36.587 -7.235 Q22.992 -8.575 13.554 -18.084 Q4.117 -27.593 4.117 -41.021 Q4.117 -55.508 14.856 -65.267 Q25.595 -75.026 40.427 -75.026 H55.698 V-64.754 H40.364 Q29.801 -64.754 22.095 -57.999 Q14.389 -51.244 14.389 -41.021 Q14.389 -31.891 20.851 -25.376 Q27.312 -18.86 36.546 -17.423 L28.552 -25.417 L35.772 -32.763 L56.321 -12.214 L35.802 8.335 Z M65.073 4.536 V-30.542 H109.796 V4.536 H65.073 Z M65.073 -39.917 V-74.996 H109.796 V-39.917 H65.073 Z M75.823 -50.667 H99.046 V-64.246 H75.823 V-50.667 Z"/></g><g id="Regular-M" transform="matrix(1 0 0 1 1394.06 1126)"><path d="M36.25 8.395  29.688 1.833  37.812 -6.667 Q24.188 -7.917 14.75 -17.48 Q5.312 -27.042 5.312 -40.542 Q5.312 -54.792 15.812 -64.386 Q26.312 -73.98 40.875 -73.98 H55.938 V-64.605 H40.812 Q30.188 -64.605 22.438 -57.73 Q14.688 -50.855 14.688 -40.542 Q14.688 -31.105 21.344 -24.355 Q28 -17.605 37.562 -16.167 L29.688 -24.042 L36.25 -30.73 L55.812 -11.167 L36.25 8.395 Z M65.312 3.52 V-30.542 H108.75 V3.52 H65.312 Z M65.312 -39.917 V-73.98 H108.75 V-39.917 H65.312 Z M74.688 -49.292 H99.375 V-64.605 H74.688 V-49.292 Z"/></g><g id="Light-M" transform="matrix(1 0 0 1 1098.18 1126)"><path d="M36.923 5.63  32.019 0.703  41.298 -8.807 Q27.794 -9.672 18.067 -18.502 Q8.342 -27.331 8.342 -40.494 Q8.342 -53.831 18.241 -62.775 Q28.14 -71.72 41.813 -71.72 H54.519 V-64.725 H41.822 Q31.053 -64.725 23.195 -57.814 Q15.337 -50.903 15.337 -40.494 Q15.337 -30.36 23.039 -23.574 Q30.741 -16.788 41.289 -15.855 L32.019 -25.124 L36.923 -30.105 L54.803 -12.249 L36.923 5.63 Z M66.514 1.26 V-30.014 H106.49 V1.26 H66.514 Z M66.514 -40.47 V-71.72 H106.49 V-40.47 H66.514 Z M73.51 -47.465 H99.495 V-64.725 H73.51 V-47.465 Z"/></g><g id="Thin-M" transform="matrix(1 0 0 1 802.565 1126)"><path d="M37.596 2.866  34.351 -0.427  44.784 -10.946 Q31.399 -11.427 21.385 -19.523 Q11.37 -27.619 11.37 -40.446 Q11.37 -52.869 20.668 -61.165 Q29.966 -69.461 42.75 -69.461 H53.101 V-64.845 H42.832 Q31.918 -64.845 23.952 -57.898 Q15.986 -50.951 15.986 -40.446 Q15.986 -29.615 24.733 -22.792 Q33.481 -15.97 45.014 -15.542 L34.351 -26.206 L37.596 -29.48 L53.793 -13.331 L37.596 2.866 Z M67.716 -0.999 V-29.485 H104.231 V-0.999 H67.716 Z M67.716 -41.023 V-69.461 H104.231 V-41.023 H67.716 Z M72.332 -45.639 H99.615 V-64.845 H72.332 V-45.639 Z"/></g><g id="Ultralight-M" transform="matrix(1 0 0 1 506.415 1126)"><path d="M38 1.208  35.75 -1.105  46.875 -12.23 Q33.562 -12.48 23.375 -20.136 Q13.188 -27.792 13.188 -40.417 Q13.188 -52.292 22.125 -60.199 Q31.062 -68.105 43.312 -68.105 H52.25 V-64.917 H43.438 Q32.438 -64.917 24.406 -57.949 Q16.375 -50.98 16.375 -40.417 Q16.375 -29.167 25.75 -22.324 Q35.125 -15.48 47.25 -15.355 L35.75 -26.855 L38 -29.105 L53.188 -13.98 L38 1.208 Z M68.438 -2.355 V-29.167 H102.875 V-2.355 H68.438 Z M68.438 -41.355 V-68.105 H102.875 V-41.355 H68.438 Z M71.625 -44.542 H99.688 V-64.917 H71.625 V-44.542 Z"/></g><g id="Bold-S" transform="matrix(1 0 0 1 2294.23 696)"><path d="M30.87 -8.108  23.917 -15.061  28.848 -19.697 H27.073 Q16.52 -19.795 8.778 -26.571 Q1.036 -33.348 1.036 -43.564 Q1.036 -54.407 9.32 -61.733 Q17.605 -69.058 28.799 -69.058 H44.924 V-59.492 H28.749 Q21.36 -59.492 15.981 -55.054 Q10.602 -50.615 10.602 -43.564 Q10.602 -36.836 15.854 -32.532 Q21.106 -28.228 27.96 -28.474 H29.834 L23.917 -34.293 L30.771 -41.147 L47.291 -24.628 L30.87 -8.108 Z M51.532 -7.418 V-33.701 H87.678 V-7.418 H51.532 Z M51.532 -42.676 V-68.96 H87.678 V-42.676 H51.532 Z M62.676 -53.821 H76.533 V-57.815 H62.676 V-53.821 Z"/></g><g id="Semibold-S" transform="matrix(1 0 0 1 1998.1 696)"><path d="M31.513 -8.022  25.546 -13.989  30.606 -18.882 H28.831 Q18.235 -18.852 10.493 -25.705 Q2.751 -32.558 2.751 -42.878 Q2.751 -53.38 10.692 -60.469 Q18.634 -67.558 29.442 -67.558 H45.267 V-59.277 H29.392 Q21.914 -59.277 16.472 -54.668 Q11.031 -50.058 11.031 -42.878 Q11.031 -35.709 16.561 -31.068 Q22.092 -26.427 29.418 -26.673 H31.292 L25.546 -32.321 L31.457 -38.232 L46.562 -23.127 L31.513 -8.022 Z M51.875 -8.876 V-33.701 H86.177 V-8.876 H51.875 Z M51.875 -42.676 V-67.502 H86.177 V-42.676 H51.875 Z M61.047 -51.848 H77.005 V-58.33 H61.047 V-51.848 Z"/></g><g id="Medium-S" transform="matrix(1 0 0 1 1701.85 696)"><path d="M31.995 -7.958  26.768 -13.185  31.924 -18.271 H30.149 Q19.521 -18.144 11.779 -25.055 Q4.037 -31.966 4.037 -42.363 Q4.037 -52.61 11.721 -59.521 Q19.406 -66.432 29.924 -66.432 H45.524 V-59.117 H29.875 Q22.33 -59.117 16.841 -54.378 Q11.353 -49.64 11.353 -42.363 Q11.353 -34.864 17.092 -29.97 Q22.832 -25.076 30.512 -25.323 H32.385 L26.768 -30.841 L31.972 -36.045 L46.015 -22.001 L31.995 -7.958 Z M52.132 -9.969 V-33.701 H85.051 V-9.969 H52.132 Z M52.132 -42.676 V-66.408 H85.051 V-42.676 H52.132 Z M59.825 -50.369 H77.358 V-58.716 H59.825 V-50.369 Z"/></g><g id="Regular-S" transform="matrix(1 0 0 1 1405.73 696)"><path d="M32.349 -7.911  27.664 -12.596  32.891 -17.823 H31.116 Q20.465 -17.625 12.723 -24.578 Q4.981 -31.532 4.981 -41.986 Q4.981 -52.046 12.476 -58.826 Q19.972 -65.606 30.278 -65.606 H45.713 V-58.999 H30.229 Q22.634 -58.999 17.111 -54.166 Q11.588 -49.333 11.588 -41.986 Q11.588 -34.244 17.481 -29.165 Q23.374 -24.085 31.313 -24.332 H33.187 L27.664 -29.756 L32.349 -34.441 L45.614 -21.176 L32.349 -7.911 Z M52.321 -10.771 V-33.701 H84.226 V-10.771 H52.321 Z M52.321 -42.676 V-65.606 H84.226 V-42.676 H52.321 Z M58.928 -49.284 H77.618 V-58.999 H58.928 V-49.284 Z"/></g><g id="Light-S" transform="matrix(1 0 0 1 1109.75 696)"><path d="M32.88 -10.092  29.504 -13.487  35.642 -19.511 H33.867 Q23.31 -19.01 15.34 -25.385 Q7.371 -31.759 7.371 -41.948 Q7.371 -51.287 14.392 -57.555 Q21.413 -63.824 31.018 -63.824 H44.594 V-59.094 H31.025 Q23.317 -59.094 17.709 -54.232 Q12.101 -49.371 12.101 -41.948 Q12.101 -33.656 18.819 -28.548 Q25.536 -23.44 34.253 -24.085 H36.127 L29.504 -30.61 L32.88 -33.948 L44.817 -22.029 L32.88 -10.092 Z M53.269 -12.554 V-33.284 H82.443 V-12.554 H53.269 Z M53.269 -43.112 V-63.824 H82.443 V-43.112 H53.269 Z M57.999 -47.843 H77.713 V-59.094 H57.999 V-47.843 Z"/></g><g id="Thin-S" transform="matrix(1 0 0 1 814.015 696)"><path d="M33.411 -12.273  31.344 -14.378  38.392 -21.199 H36.616 Q26.155 -20.395 17.957 -26.191 Q9.76 -31.987 9.76 -41.91 Q9.76 -50.528 16.307 -56.285 Q22.854 -62.041 31.757 -62.041 H43.475 V-59.188 H31.822 Q24 -59.188 18.306 -54.299 Q12.613 -49.409 12.613 -41.91 Q12.613 -33.068 20.155 -27.932 Q27.698 -22.796 37.193 -23.839 H39.067 L31.344 -31.463 L33.411 -33.455 L44.021 -22.883 L33.411 -12.273 Z M54.217 -14.337 V-32.867 H80.66 V-14.337 H54.217 Z M54.217 -43.549 V-62.041 H80.66 V-43.549 H54.217 Z M57.07 -46.401 H77.808 V-59.188 H57.07 V-46.401 Z"/></g><g id="Ultralight-S" transform="matrix(1 0 0 1 517.792 696)"><path d="M33.73 -13.582  32.448 -14.913  40.042 -22.211 H38.267 Q27.862 -21.225 19.528 -26.674 Q11.194 -32.123 11.194 -41.887 Q11.194 -50.073 17.457 -55.522 Q23.719 -60.971 32.201 -60.971 H42.803 V-59.245 H32.3 Q24.41 -59.245 18.665 -54.339 Q12.92 -49.432 12.92 -41.887 Q12.92 -32.715 20.958 -27.562 Q28.996 -22.409 38.957 -23.691 H40.831 L32.448 -31.975 L33.73 -33.159 L43.543 -23.395 L33.73 -13.582 Z M54.786 -15.406 V-32.616 H79.59 V-15.406 H54.786 Z M54.786 -43.81 V-60.971 H79.59 V-43.81 H54.786 Z M56.512 -45.536 H77.864 V-59.245 H56.512 V-45.536 Z"/></g></g></svg>