<svg xmlns="http://www.w3.org/2000/svg" version="1.1" width="3300" height="2000"><g id="Notes"><style>
    text {
      font-family: monospace;
      text-anchor: middle;
    }
    text.emphasis {
      font-weight:bold;
    }
    text.lanchor {
      text-anchor: start;
    }
  </style><rect height="2200" id="artboard" fill="white" width="3300" x="0" y="0"/><line id="" style="fill:none;stroke:black;stroke-width:0.5;" x1="263" x2="3036" y1="292" y2="292"/><text class="lanchor emphasis" transform="matrix(1 0 0 1 263 322)">Weight/Scale Variations</text><text transform="matrix(1 0 0 1 559.711 322)">Ultralight</text><text transform="matrix(1 0 0 1 856.422 322)">Thin</text><text transform="matrix(1 0 0 1 1153.13 322)">Light</text><text transform="matrix(1 0 0 1 1449.84 322)">Regular</text><text transform="matrix(1 0 0 1 1746.56 322)">Medium</text><text transform="matrix(1 0 0 1 2043.27 322)">Semibold</text><text transform="matrix(1 0 0 1 2339.98 322)">Bold</text><text transform="matrix(1 0 0 1 2636.69 322)">Heavy</text><text transform="matrix(1 0 0 1 2933.4 322)">Black</text><text id="template-version" style="text-anchor: end;" transform="matrix(1 0 0 1 3036 1933)">Template v.1.0</text><text class="lanchor" transform="matrix(1 0 0 1 263 726)">Small</text><text class="lanchor" transform="matrix(1 0 0 1 263 1156)">Medium</text><text class="lanchor" transform="matrix(1 0 0 1 263 1586)">Large</text></g><g id="Guides"><g id="H-reference" style="fill:#27AAE1;stroke:none;" transform="matrix(1 0 0 1 339 696)"><path d="M 54.9316 0 L 57.666 0 L 30.5664 -70.459 L 28.0762 -70.459 L 0.976562 0 L 3.66211 0 L 12.9395 -24.4629 L 45.7031 -24.4629 Z M 29.1992 -67.0898 L 29.4434 -67.0898 L 44.8242 -26.709 L 13.8184 -26.709 Z"/></g><line id="Baseline-S" style="fill:none;stroke:#27AAE1;opacity:1;stroke-width:0.577;" x1="263" x2="3036" y1="696" y2="696"/><line id="Capline-S" style="fill:none;stroke:#27AAE1;opacity:1;stroke-width:0.577;" x1="263" x2="3036" y1="625.541" y2="625.541"/><g id="H-reference" style="fill:#27AAE1;stroke:none;" transform="matrix(1 0 0 1 339 1126)"><path d="M 54.9316 0 L 57.666 0 L 30.5664 -70.459 L 28.0762 -70.459 L 0.976562 0 L 3.66211 0 L 12.9395 -24.4629 L 45.7031 -24.4629 Z M 29.1992 -67.0898 L 29.4434 -67.0898 L 44.8242 -26.709 L 13.8184 -26.709 Z"/></g><line id="Baseline-M" style="fill:none;stroke:#27AAE1;opacity:1;stroke-width:0.577;" x1="263" x2="3036" y1="1126" y2="1126"/><line id="Capline-M" style="fill:none;stroke:#27AAE1;opacity:1;stroke-width:0.577;" x1="263" x2="3036" y1="1055.54" y2="1055.54"/><g id="H-reference" style="fill:#27AAE1;stroke:none;" transform="matrix(1 0 0 1 339 1556)"><path d="M 54.9316 0 L 57.666 0 L 30.5664 -70.459 L 28.0762 -70.459 L 0.976562 0 L 3.66211 0 L 12.9395 -24.4629 L 45.7031 -24.4629 Z M 29.1992 -67.0898 L 29.4434 -67.0898 L 44.8242 -26.709 L 13.8184 -26.709 Z"/></g><line id="Baseline-L" style="fill:none;stroke:#27AAE1;opacity:1;stroke-width:0.577;" x1="263" x2="3036" y1="1556" y2="1556"/><line id="Capline-L" style="fill:none;stroke:#27AAE1;opacity:1;stroke-width:0.577;" x1="263" x2="3036" y1="1485.54" y2="1485.54"/><rect height="119.336" id="left-margin" style="fill:darkred;stroke:none;opacity:0.4;" width="12.4512" x="1394.06" y="1030.79"/><rect height="119.336" id="right-margin" style="fill:darkgreen;stroke:none;opacity:0.4;" width="12.4512" x="1502.5112" y="1030.79"/><rect x="1406.5112" y="1045" width="96" height="96" fill="none" stroke="blue" stroke-dasharray="5"/><rect x="1394.06" y="1030.79" width="120.9024" height="119.336" fill="none" stroke="blue"/></g><g id="Symbols"><g id="Bold-L" transform="matrix(1 0 0 1 2266 1556)"><path d="M58.05 26.045  47.246 15.403  56.599 6.05 H52.084 Q33.863 4.76 22.011 -9.188 Q10.159 -23.136 10.159 -41.68 Q10.159 -61.514 23.946 -75.542 Q37.733 -89.571 57.566 -89.571 H97.234 Q117.068 -89.571 130.854 -75.542 Q144.641 -61.514 144.641 -41.68 Q144.641 -21.846 131.177 -7.817 Q117.713 6.211 98.201 6.211 V-8.946 Q111.424 -8.946 120.454 -18.541 Q129.484 -28.135 129.484 -41.68 Q129.484 -55.386 120.212 -64.9 Q110.94 -74.414 97.395 -74.414 H57.405 Q43.86 -74.414 34.588 -64.9 Q25.316 -55.386 25.316 -41.68 Q25.316 -29.747 32.492 -20.717 Q39.668 -11.687 51.278 -10.559 H54.825 L47.246 -18.137 L58.05 -28.941 L85.624 -1.529 L58.05 26.045 Z"/></g><g id="Semibold-L" transform="matrix(1 0 0 1 1970.27 1556)"><path d="M58.05 24.363  48.929 15.403  59.403 4.928 H54.537 Q36.106 4.199 23.728 -9.434 Q11.351 -23.066 11.351 -41.68 Q11.351 -61.023 24.787 -74.701 Q38.223 -88.379 57.566 -88.379 H97.234 Q116.577 -88.379 130.013 -74.701 Q143.449 -61.023 143.449 -41.68 Q143.449 -22.267 130.125 -8.624 Q116.801 5.019 97.57 5.019 V-7.754 Q111.494 -7.754 121.085 -17.664 Q130.676 -27.574 130.676 -41.68 Q130.676 -55.807 121.053 -65.706 Q111.431 -75.606 97.395 -75.606 H57.405 Q43.369 -75.606 33.747 -65.706 Q24.124 -55.807 24.124 -41.68 Q24.124 -28.556 32.632 -18.93 Q41.14 -9.304 54.082 -8.666 H58.47 L48.999 -18.137 L58.05 -27.189 L83.871 -1.459 L58.05 24.363 Z"/></g><g id="Medium-L" transform="matrix(1 0 0 1 1674.31 1556)"><path d="M58.05 23.1  50.191 15.403  61.506 4.087 H56.378 Q37.789 3.778 25.016 -9.618 Q12.245 -23.014 12.245 -41.68 Q12.245 -60.655 25.418 -74.07 Q38.591 -87.485 57.566 -87.485 H97.234 Q116.209 -87.485 129.382 -74.07 Q142.555 -60.655 142.555 -41.68 Q142.555 -22.582 129.337 -9.228 Q116.118 4.125 97.097 4.125 V-6.86 Q111.546 -6.86 121.558 -17.007 Q131.57 -27.153 131.57 -41.68 Q131.57 -56.122 121.684 -66.311 Q111.799 -76.5 97.395 -76.5 H57.405 Q43.001 -76.5 33.116 -66.311 Q23.23 -56.122 23.23 -41.68 Q23.23 -27.662 32.737 -17.589 Q42.244 -7.516 56.185 -7.246 H61.205 L50.314 -18.137 L58.05 -25.874 L82.556 -1.406 L58.05 23.1 Z"/></g><g id="Regular-L" transform="matrix(1 0 0 1 1378.56 1556)"><path d="M58.05 22.175  51.116 15.403  63.049 3.47 H57.727 Q39.023 3.47 25.961 -9.752 Q12.9 -22.975 12.9 -41.68 Q12.9 -60.385 25.881 -73.607 Q38.861 -86.83 57.566 -86.83 H97.234 Q115.939 -86.83 128.919 -73.607 Q141.9 -60.385 141.9 -41.68 Q141.9 -22.814 128.758 -9.672 Q115.616 3.47 96.75 3.47 V-6.205 Q111.585 -6.205 121.905 -16.525 Q132.225 -26.845 132.225 -41.68 Q132.225 -56.354 122.147 -66.754 Q112.069 -77.155 97.395 -77.155 H57.405 Q42.731 -77.155 32.653 -66.754 Q22.575 -56.354 22.575 -41.68 Q22.575 -27.006 32.814 -16.606 Q43.054 -6.205 57.727 -6.205 H63.21 L51.278 -18.137 L58.05 -24.91 L81.593 -1.367 L58.05 22.175 Z"/></g><g id="Light-L" transform="matrix(1 0 0 1 1082.77 1556)"><path d="M58.05 18.516  52.791 13.418  65.902 0.307 H57.79 Q40.449 0.307 28.287 -11.985 Q16.125 -24.278 16.125 -41.68 Q16.125 -59.082 28.206 -71.344 Q40.288 -83.605 57.69 -83.605 H97.11 Q114.512 -83.605 126.594 -71.344 Q138.675 -59.082 138.675 -41.68 Q138.675 -24.178 126.463 -11.936 Q114.252 0.307 96.75 0.307 V-7.011 Q111.213 -7.011 121.285 -17.114 Q131.357 -27.217 131.357 -41.68 Q131.357 -56.044 121.465 -66.165 Q111.573 -76.287 97.209 -76.287 H57.591 Q43.227 -76.287 33.335 -66.165 Q23.443 -56.044 23.443 -41.68 Q23.443 -27.316 33.435 -17.195 Q43.426 -7.073 57.79 -7.135 H65.877 L52.952 -20.122 L58.05 -25.22 L79.918 -3.352 L58.05 18.516 Z"/></g><g id="Thin-L" transform="matrix(1 0 0 1 787.282 1556)"><path d="M58.05 14.857  54.465 11.433  68.754 -2.856 H57.852 Q41.875 -2.856 30.613 -14.218 Q19.35 -25.58 19.35 -41.68 Q19.35 -57.78 30.532 -69.08 Q41.714 -80.38 57.814 -80.38 H96.986 Q113.086 -80.38 124.268 -69.08 Q135.45 -57.78 135.45 -41.68 Q135.45 -25.543 124.169 -14.199 Q112.887 -2.856 96.75 -2.856 V-7.817 Q110.841 -7.817 120.665 -17.703 Q130.488 -27.589 130.488 -41.68 Q130.488 -55.734 120.783 -65.576 Q111.076 -75.418 97.023 -75.418 H57.777 Q43.724 -75.418 34.017 -65.576 Q24.312 -55.734 24.312 -41.68 Q24.312 -27.626 34.055 -17.784 Q43.798 -7.942 57.852 -8.066 H68.544 L54.627 -22.107 L58.05 -25.53 L78.243 -5.337 L58.05 14.857 Z"/></g><g id="Ultralight-L" transform="matrix(1 0 0 1 491.205 1556)"><path d="M58.05 12.661  55.47 10.243  70.466 -4.754 H57.889 Q42.731 -4.754 32.008 -15.557 Q21.285 -26.361 21.285 -41.68 Q21.285 -56.999 31.928 -67.722 Q42.57 -78.445 57.889 -78.445 H96.911 Q112.23 -78.445 122.873 -67.722 Q133.515 -56.999 133.515 -41.68 Q133.515 -26.361 122.792 -15.557 Q112.069 -4.754 96.75 -4.754 V-8.301 Q110.618 -8.301 120.293 -18.057 Q129.968 -27.812 129.968 -41.68 Q129.968 -55.547 120.373 -65.222 Q110.779 -74.897 96.911 -74.897 H57.889 Q44.021 -74.897 34.427 -65.222 Q24.832 -55.547 24.832 -41.68 Q24.832 -27.812 34.427 -18.137 Q44.021 -8.462 57.889 -8.624 H70.144 L55.631 -23.297 L58.05 -25.716 L77.239 -6.527 L58.05 12.661 Z"/></g><g id="Bold-M" transform="matrix(1 0 0 1 2281.8 1126)"><path d="M45 13.77  33.875 2.77  39.125 -2.48 Q25.125 -3.855 16.125 -14.855 Q7.125 -25.855 7.125 -40.23 Q7.125 -55.98 18.188 -67.042 Q29.25 -78.105 45 -78.105 H75 Q90.75 -78.105 101.812 -67.042 Q112.875 -55.98 112.875 -40.23 Q112.875 -24.605 102.375 -13.48 Q91.875 -2.355 76.5 -2.355 V-18.105 Q85.25 -18.105 91.188 -24.667 Q97.125 -31.23 97.125 -40.23 Q97.125 -49.48 90.688 -55.917 Q84.25 -62.355 75 -62.355 H45 Q35.75 -62.355 29.312 -55.917 Q22.875 -49.48 22.875 -40.23 Q22.875 -32.73 27.062 -26.667 Q31.25 -20.605 38.375 -18.73 L33.875 -23.23 L45 -34.355 L69.125 -10.355 L45 13.77 Z"/></g><g id="Semibold-M" transform="matrix(1 0 0 1 1985.97 1126)"><path d="M45 12.031  35.614 2.77  42.06 -3.676 H41.679 Q27.407 -4.453 17.891 -15.099 Q8.375 -25.746 8.375 -40.23 Q8.375 -55.491 19.057 -66.173 Q29.739 -76.855 45 -76.855 H75 Q90.261 -76.855 100.943 -66.173 Q111.625 -55.491 111.625 -40.23 Q111.625 -25.04 101.261 -14.322 Q90.897 -3.605 75.848 -3.605 V-16.855 Q85.304 -16.855 91.84 -23.744 Q98.375 -30.632 98.375 -40.23 Q98.375 -49.969 91.557 -56.787 Q84.739 -63.605 75 -63.605 H45 Q35.261 -63.605 28.443 -56.787 Q21.625 -49.969 21.625 -40.23 Q21.625 -31.48 27.171 -24.82 Q32.717 -18.159 41.255 -16.774 H42.125 L35.668 -23.23 L45 -32.562 L67.332 -10.301 L45 12.031 Z"/></g><g id="Medium-M" transform="matrix(1 0 0 1 1689.91 1126)"><path d="M45 10.727  36.919 2.77  44.261 -4.572 H43.595 Q29.119 -4.901 19.216 -15.283 Q9.312 -25.665 9.312 -40.23 Q9.312 -55.124 19.709 -65.521 Q30.106 -75.917 45 -75.917 H75 Q89.894 -75.917 100.291 -65.521 Q110.688 -55.124 110.688 -40.23 Q110.688 -25.366 100.425 -14.954 Q90.163 -4.542 75.359 -4.542 V-15.917 Q85.345 -15.917 92.329 -23.051 Q99.312 -30.184 99.312 -40.23 Q99.312 -50.336 92.209 -57.439 Q85.106 -64.542 75 -64.542 H45 Q34.894 -64.542 27.791 -57.439 Q20.688 -50.336 20.688 -40.23 Q20.688 -30.542 27.253 -23.434 Q33.818 -16.325 43.416 -15.306 H44.938 L37.014 -23.23 L45 -31.216 L65.986 -10.26 L45 10.727 Z"/></g><g id="Regular-M" transform="matrix(1 0 0 1 1394.06 1126)"><path d="M45 9.77  37.875 2.77  45.875 -5.23 H45 Q30.375 -5.23 20.188 -15.417 Q10 -25.605 10 -40.23 Q10 -54.855 20.188 -65.042 Q30.375 -75.23 45 -75.23 H75 Q89.625 -75.23 99.812 -65.042 Q110 -54.855 110 -40.23 Q110 -25.605 99.812 -15.417 Q89.625 -5.23 75 -5.23 V-15.23 Q85.375 -15.23 92.688 -22.542 Q100 -29.855 100 -40.23 Q100 -50.605 92.688 -57.917 Q85.375 -65.23 75 -65.23 H45 Q34.625 -65.23 27.312 -57.917 Q20 -50.605 20 -40.23 Q20 -29.855 27.312 -22.417 Q34.625 -14.98 45 -14.23 H47 L38 -23.23 L45 -30.23 L65 -10.23 L45 9.77 Z"/></g><g id="Light-M" transform="matrix(1 0 0 1 1098.18 1126)"><path d="M45 6.789  39.654 1.568  48.904 -7.682 H45 Q31.433 -7.682 21.966 -17.172 Q12.5 -26.663 12.5 -40.23 Q12.5 -53.797 21.966 -63.263 Q31.433 -72.73 45 -72.73 H75 Q88.567 -72.73 98.034 -63.263 Q107.5 -53.797 107.5 -40.23 Q107.5 -26.663 98.034 -17.172 Q88.567 -7.682 75 -7.682 V-15.182 Q85.423 -15.182 92.712 -22.494 Q100 -29.807 100 -40.23 Q100 -50.653 92.712 -57.941 Q85.423 -65.23 75 -65.23 H45 Q34.577 -65.23 27.288 -57.941 Q20 -50.653 20 -40.23 Q20 -29.807 27.288 -22.417 Q34.577 -15.028 45 -14.567 H49.596 L39.779 -24.432 L45 -29.653 L63.221 -11.432 L45 6.789 Z"/></g><g id="Thin-M" transform="matrix(1 0 0 1 802.565 1126)"><path d="M45 3.809  41.433 0.366  51.933 -10.134 H45 Q32.49 -10.134 23.745 -18.927 Q15 -27.72 15 -40.23 Q15 -52.74 23.745 -61.485 Q32.49 -70.23 45 -70.23 H75 Q87.51 -70.23 96.255 -61.485 Q105 -52.74 105 -40.23 Q105 -27.72 96.255 -18.927 Q87.51 -10.134 75 -10.134 V-15.134 Q85.471 -15.134 92.736 -22.446 Q100 -29.759 100 -40.23 Q100 -50.701 92.736 -57.966 Q85.471 -65.23 75 -65.23 H45 Q34.529 -65.23 27.264 -57.966 Q20 -50.701 20 -40.23 Q20 -29.759 27.264 -22.417 Q34.529 -15.076 45 -14.903 H52.192 L41.558 -25.634 L45 -29.076 L61.442 -12.634 L45 3.809 Z"/></g><g id="Ultralight-M" transform="matrix(1 0 0 1 506.415 1126)"><path d="M45 2.02  42.5 -0.355  53.75 -11.605 H45 Q33.125 -11.605 24.812 -19.98 Q16.5 -28.355 16.5 -40.23 Q16.5 -52.105 24.812 -60.417 Q33.125 -68.73 45 -68.73 H75 Q86.875 -68.73 95.188 -60.417 Q103.5 -52.105 103.5 -40.23 Q103.5 -28.355 95.188 -19.98 Q86.875 -11.605 75 -11.605 V-15.105 Q85.5 -15.105 92.75 -22.417 Q100 -29.73 100 -40.23 Q100 -50.73 92.75 -57.98 Q85.5 -65.23 75 -65.23 H45 Q34.5 -65.23 27.25 -57.98 Q20 -50.73 20 -40.23 Q20 -29.73 27.25 -22.417 Q34.5 -15.105 45 -15.105 H53.75 L42.625 -26.355 L45 -28.73 L60.375 -13.355 L45 2.02 Z"/></g><g id="Bold-S" transform="matrix(1 0 0 1 2294.23 696)"><path d="M37.872 2.248  29.686 -5.938  33.138 -9.39 H30.87 Q20.483 -10.475 13.841 -18.688 Q7.2 -26.902 7.2 -37.575 Q7.2 -49.333 15.469 -57.618 Q23.738 -65.902 35.505 -65.902 H59.175 Q70.942 -65.902 79.211 -57.64 Q87.48 -49.377 87.48 -37.619 Q87.48 -25.959 79.655 -17.625 Q71.83 -9.292 60.358 -9.292 V-20.929 Q66.966 -20.929 71.404 -25.883 Q75.843 -30.836 75.843 -37.619 Q75.843 -44.599 70.994 -49.432 Q66.146 -54.265 59.175 -54.265 H35.505 Q28.534 -54.265 23.686 -49.41 Q18.837 -44.555 18.837 -37.575 Q18.837 -31.975 21.895 -27.537 Q24.952 -23.099 30.278 -22.211 H31.659 L29.588 -24.283 L37.872 -32.567 L55.329 -15.209 L37.872 2.248 Z"/></g><g id="Semibold-S" transform="matrix(1 0 0 1 1998.1 696)"><path d="M37.872 0.875  31.058 -5.938  35.453 -10.334 H32.885 Q22.284 -10.947 15.235 -18.881 Q8.186 -26.816 8.186 -37.575 Q8.186 -48.947 16.155 -56.932 Q24.123 -64.916 35.505 -64.916 H59.175 Q70.556 -64.916 78.525 -56.954 Q86.494 -48.991 86.494 -37.619 Q86.494 -26.302 78.776 -18.29 Q71.058 -10.278 59.844 -10.278 V-19.943 Q67.009 -19.943 71.919 -25.154 Q76.829 -30.365 76.829 -37.619 Q76.829 -44.985 71.68 -50.118 Q66.532 -55.251 59.175 -55.251 H35.505 Q28.148 -55.251 23 -50.096 Q17.851 -44.941 17.851 -37.575 Q17.851 -30.989 21.981 -26.079 Q26.11 -21.17 32.55 -20.668 H34.617 L31.002 -24.283 L37.872 -31.152 L53.914 -15.166 L37.872 0.875 Z"/></g><g id="Medium-S" transform="matrix(1 0 0 1 1701.85 696)"><path d="M37.872 -0.154  32.087 -5.938  37.19 -11.041 H34.397 Q23.635 -11.301 16.28 -19.026 Q8.926 -26.752 8.926 -37.575 Q8.926 -48.658 16.669 -56.417 Q24.413 -64.176 35.505 -64.176 H59.175 Q70.267 -64.176 78.011 -56.439 Q85.754 -48.702 85.754 -37.619 Q85.754 -26.56 78.117 -18.789 Q70.479 -11.018 59.458 -11.018 V-19.203 Q67.041 -19.203 72.305 -24.607 Q77.569 -30.011 77.569 -37.619 Q77.569 -45.275 72.195 -50.633 Q66.821 -55.991 59.175 -55.991 H35.505 Q27.859 -55.991 22.485 -50.61 Q17.111 -45.23 17.111 -37.575 Q17.111 -30.249 22.045 -24.986 Q26.978 -19.722 34.255 -19.51 H36.836 L32.064 -24.283 L37.872 -30.091 L52.852 -15.134 L37.872 -0.154 Z"/></g><g id="Regular-S" transform="matrix(1 0 0 1 1405.73 696)"><path d="M37.872 -0.908  32.842 -5.938  38.464 -11.56 H35.505 Q24.625 -11.56 17.047 -19.132 Q9.468 -26.705 9.468 -37.575 Q9.468 -48.446 17.047 -56.04 Q24.625 -63.634 35.505 -63.634 H59.175 Q70.055 -63.634 77.633 -56.062 Q85.212 -48.489 85.212 -37.619 Q85.212 -26.748 77.633 -19.154 Q70.055 -11.56 59.175 -11.56 V-18.661 Q67.065 -18.661 72.588 -24.206 Q78.111 -29.752 78.111 -37.619 Q78.111 -45.487 72.572 -51.01 Q67.033 -56.533 59.175 -56.533 H35.505 Q27.647 -56.533 22.108 -50.988 Q16.569 -45.442 16.569 -37.575 Q16.569 -29.707 22.092 -24.184 Q27.615 -18.661 35.505 -18.661 H38.464 L32.842 -24.283 L37.872 -29.312 L52.074 -15.11 L37.872 -0.908 Z"/></g><g id="Light-S" transform="matrix(1 0 0 1 1109.75 696)"><path d="M37.872 -3.261  34.246 -6.887  40.854 -13.495 H35.505 Q25.46 -13.495 18.45 -20.517 Q11.441 -27.539 11.441 -37.575 Q11.441 -47.611 18.45 -54.636 Q25.46 -61.661 35.505 -61.661 H59.175 Q69.22 -61.661 76.23 -54.658 Q83.239 -47.655 83.239 -37.619 Q83.239 -27.583 76.23 -20.539 Q69.22 -13.495 59.175 -13.495 V-18.623 Q67.103 -18.623 72.607 -24.168 Q78.111 -29.714 78.111 -37.619 Q78.111 -45.525 72.591 -51.029 Q67.071 -56.533 59.175 -56.533 H35.505 Q27.609 -56.533 22.089 -51.007 Q16.569 -45.48 16.569 -37.575 Q16.569 -29.669 22.073 -24.184 Q27.577 -18.699 35.505 -18.927 H40.512 L34.246 -25.231 L37.872 -28.857 L50.67 -16.059 L37.872 -3.261 Z"/></g><g id="Thin-S" transform="matrix(1 0 0 1 814.015 696)"><path d="M37.872 -5.612  35.649 -7.835  43.243 -15.429 H35.505 Q26.294 -15.429 19.854 -21.901 Q13.413 -28.374 13.413 -37.575 Q13.413 -46.777 19.854 -53.233 Q26.294 -59.689 35.505 -59.689 H59.175 Q68.386 -59.689 74.826 -53.255 Q81.267 -46.82 81.267 -37.619 Q81.267 -28.417 74.826 -21.923 Q68.386 -15.429 59.175 -15.429 V-18.585 Q67.141 -18.585 72.626 -24.13 Q78.111 -29.676 78.111 -37.619 Q78.111 -45.563 72.61 -51.048 Q67.109 -56.533 59.175 -56.533 H35.505 Q27.571 -56.533 22.07 -51.026 Q16.569 -45.518 16.569 -37.575 Q16.569 -29.631 22.054 -24.184 Q27.539 -18.737 35.505 -19.192 H42.56 L35.649 -26.179 L37.872 -28.402 L49.267 -17.007 L37.872 -5.612 Z"/></g><g id="Ultralight-S" transform="matrix(1 0 0 1 517.792 696)"><path d="M37.872 -7.023  36.491 -8.404  44.677 -16.59 H35.505 Q26.795 -16.59 20.696 -22.732 Q14.597 -28.874 14.597 -37.575 Q14.597 -46.276 20.696 -52.391 Q26.795 -58.505 35.505 -58.505 H59.175 Q67.885 -58.505 73.984 -52.413 Q80.084 -46.32 80.084 -37.619 Q80.084 -28.918 73.984 -22.754 Q67.885 -16.59 59.175 -16.59 V-18.562 Q67.164 -18.562 72.637 -24.108 Q78.111 -29.653 78.111 -37.619 Q78.111 -45.586 72.622 -51.059 Q67.132 -56.533 59.175 -56.533 H35.505 Q27.548 -56.533 22.058 -51.037 Q16.569 -45.541 16.569 -37.575 Q16.569 -29.608 22.043 -24.184 Q27.516 -18.76 35.505 -19.351 H43.79 L36.491 -26.748 L37.872 -28.129 L48.425 -17.576 L37.872 -7.023 Z"/></g></g></svg>