<svg xmlns="http://www.w3.org/2000/svg" version="1.1" width="3300" height="2000"><g id="Notes"><style>
    text {
      font-family: monospace;
      text-anchor: middle;
    }
    text.emphasis {
      font-weight:bold;
    }
    text.lanchor {
      text-anchor: start;
    }
  </style><rect height="2200" id="artboard" fill="white" width="3300" x="0" y="0"/><line id="" style="fill:none;stroke:black;stroke-width:0.5;" x1="263" x2="3036" y1="292" y2="292"/><text class="lanchor emphasis" transform="matrix(1 0 0 1 263 322)">Weight/Scale Variations</text><text transform="matrix(1 0 0 1 559.711 322)">Ultralight</text><text transform="matrix(1 0 0 1 856.422 322)">Thin</text><text transform="matrix(1 0 0 1 1153.13 322)">Light</text><text transform="matrix(1 0 0 1 1449.84 322)">Regular</text><text transform="matrix(1 0 0 1 1746.56 322)">Medium</text><text transform="matrix(1 0 0 1 2043.27 322)">Semibold</text><text transform="matrix(1 0 0 1 2339.98 322)">Bold</text><text transform="matrix(1 0 0 1 2636.69 322)">Heavy</text><text transform="matrix(1 0 0 1 2933.4 322)">Black</text><text id="template-version" style="text-anchor: end;" transform="matrix(1 0 0 1 3036 1933)">Template v.1.0</text><text class="lanchor" transform="matrix(1 0 0 1 263 726)">Small</text><text class="lanchor" transform="matrix(1 0 0 1 263 1156)">Medium</text><text class="lanchor" transform="matrix(1 0 0 1 263 1586)">Large</text></g><g id="Guides"><g id="H-reference" style="fill:#27AAE1;stroke:none;" transform="matrix(1 0 0 1 339 696)"><path d="M 54.9316 0 L 57.666 0 L 30.5664 -70.459 L 28.0762 -70.459 L 0.976562 0 L 3.66211 0 L 12.9395 -24.4629 L 45.7031 -24.4629 Z M 29.1992 -67.0898 L 29.4434 -67.0898 L 44.8242 -26.709 L 13.8184 -26.709 Z"/></g><line id="Baseline-S" style="fill:none;stroke:#27AAE1;opacity:1;stroke-width:0.577;" x1="263" x2="3036" y1="696" y2="696"/><line id="Capline-S" style="fill:none;stroke:#27AAE1;opacity:1;stroke-width:0.577;" x1="263" x2="3036" y1="625.541" y2="625.541"/><g id="H-reference" style="fill:#27AAE1;stroke:none;" transform="matrix(1 0 0 1 339 1126)"><path d="M 54.9316 0 L 57.666 0 L 30.5664 -70.459 L 28.0762 -70.459 L 0.976562 0 L 3.66211 0 L 12.9395 -24.4629 L 45.7031 -24.4629 Z M 29.1992 -67.0898 L 29.4434 -67.0898 L 44.8242 -26.709 L 13.8184 -26.709 Z"/></g><line id="Baseline-M" style="fill:none;stroke:#27AAE1;opacity:1;stroke-width:0.577;" x1="263" x2="3036" y1="1126" y2="1126"/><line id="Capline-M" style="fill:none;stroke:#27AAE1;opacity:1;stroke-width:0.577;" x1="263" x2="3036" y1="1055.54" y2="1055.54"/><g id="H-reference" style="fill:#27AAE1;stroke:none;" transform="matrix(1 0 0 1 339 1556)"><path d="M 54.9316 0 L 57.666 0 L 30.5664 -70.459 L 28.0762 -70.459 L 0.976562 0 L 3.66211 0 L 12.9395 -24.4629 L 45.7031 -24.4629 Z M 29.1992 -67.0898 L 29.4434 -67.0898 L 44.8242 -26.709 L 13.8184 -26.709 Z"/></g><line id="Baseline-L" style="fill:none;stroke:#27AAE1;opacity:1;stroke-width:0.577;" x1="263" x2="3036" y1="1556" y2="1556"/><line id="Capline-L" style="fill:none;stroke:#27AAE1;opacity:1;stroke-width:0.577;" x1="263" x2="3036" y1="1485.54" y2="1485.54"/><rect height="119.336" id="left-margin" style="fill:darkred;stroke:none;opacity:0.4;" width="12.4512" x="1394.06" y="1030.79"/><rect height="119.336" id="right-margin" style="fill:darkgreen;stroke:none;opacity:0.4;" width="12.4512" x="1502.5112" y="1030.79"/><rect x="1406.5112" y="1045" width="96" height="96" fill="none" stroke="blue" stroke-dasharray="5"/><rect x="1394.06" y="1030.79" width="120.9024" height="119.336" fill="none" stroke="blue"/></g><g id="Symbols"><g id="Bold-L" transform="matrix(1 0 0 1 2266 1556)"><path d="M37.249 32.495 Q31.158 32.495 26.827 28.163 Q22.494 23.831 22.494 17.741 V1.696 Q22.494 -1.408 24.659 -3.565 Q26.824 -5.721 29.9 -5.721 Q32.976 -5.721 35.112 -3.565 Q37.249 -1.408 37.249 1.696 V17.741 Q37.249 17.741 37.249 17.741 Q37.249 17.741 37.249 17.741 H117.551 Q117.551 17.741 117.551 17.741 Q117.551 17.741 117.551 17.741 V1.696 Q117.551 -1.408 119.716 -3.565 Q121.881 -5.721 124.943 -5.721 Q128.004 -5.721 130.235 -3.565 Q132.467 -1.408 132.467 1.696 V17.741 Q132.467 23.831 128.087 28.163 Q123.708 32.495 117.551 32.495 H37.249 Z M22.494 -88.201 Q22.494 -94.519 26.746 -98.817 Q30.997 -103.116 37.249 -103.116 H89.252 Q92.285 -103.116 95.089 -101.868 Q97.893 -100.62 99.975 -98.521 L127.864 -70.631 Q129.968 -68.528 131.217 -65.729 Q132.467 -62.929 132.467 -59.901 V-46.034 Q132.467 -42.93 130.19 -40.975 Q127.912 -39.019 124.886 -39.019 Q122.343 -39.019 120.109 -40.41 Q117.874 -41.801 117.551 -44.26 V-58.772 H95.057 Q91.953 -58.772 89.796 -60.929 Q87.639 -63.086 87.639 -66.19 V-88.201 H37.249 Q37.249 -88.201 37.249 -88.201 Q37.249 -88.201 37.249 -88.201 V-46.517 Q37.249 -43.252 35.066 -41.136 Q32.884 -39.019 29.843 -39.019 Q26.803 -39.019 24.649 -41.136 Q22.494 -43.252 22.494 -46.517 V-88.201 Z M62.646 -14.993 Q59.542 -14.993 57.425 -17.118 Q55.309 -19.242 55.309 -22.358 Q55.309 -25.474 57.425 -27.611 Q59.542 -29.747 62.646 -29.747 H92.154 Q95.258 -29.747 97.415 -27.583 Q99.572 -25.418 99.572 -22.302 Q99.572 -19.186 97.415 -17.089 Q95.258 -14.993 92.154 -14.993 H62.646 Z M116.181 -14.993 Q113.077 -14.993 110.96 -17.118 Q108.844 -19.242 108.844 -22.358 Q108.844 -25.474 110.96 -27.611 Q113.077 -29.747 116.181 -29.747 H143.513 Q146.617 -29.747 148.773 -27.583 Q150.93 -25.418 150.93 -22.302 Q150.93 -19.186 148.773 -17.089 Q146.617 -14.993 143.513 -14.993 H116.181 Z M11.287 -14.993 Q8.183 -14.993 6.067 -17.118 Q3.951 -19.242 3.951 -22.358 Q3.951 -25.474 6.067 -27.611 Q8.183 -29.747 11.287 -29.747 H38.619 Q41.723 -29.747 43.88 -27.583 Q46.037 -25.418 46.037 -22.302 Q46.037 -19.186 43.88 -17.089 Q41.723 -14.993 38.619 -14.993 H11.287 Z"/></g><g id="Semibold-L" transform="matrix(1 0 0 1 1970.27 1556)"><path d="M36.618 30.742 Q31.513 30.742 27.88 27.11 Q24.247 23.477 24.247 18.372 V-0.687 Q24.247 -3.301 26.061 -5.107 Q27.876 -6.913 30.461 -6.913 Q33.046 -6.913 34.832 -5.107 Q36.618 -3.301 36.618 -0.687 V18.372 Q36.618 18.372 36.618 18.372 Q36.618 18.372 36.618 18.372 H118.182 Q118.182 18.372 118.182 18.372 Q118.182 18.372 118.182 18.372 V-0.687 Q118.182 -3.301 119.996 -5.107 Q121.811 -6.913 124.388 -6.913 Q126.965 -6.913 128.805 -5.107 Q130.644 -3.301 130.644 -0.687 V18.372 Q130.644 23.477 126.985 27.11 Q123.325 30.742 118.182 30.742 H36.618 Z M24.247 -88.832 Q24.247 -94.066 27.834 -97.68 Q31.421 -101.293 36.618 -101.293 H89.532 Q92.084 -101.293 94.428 -100.256 Q96.771 -99.218 98.503 -97.469 L126.813 -69.159 Q128.565 -67.406 129.605 -65.067 Q130.644 -62.728 130.644 -60.182 V-43.79 Q130.644 -41.177 128.759 -39.502 Q126.873 -37.828 124.331 -37.828 Q122.063 -37.828 120.214 -39.183 Q118.364 -40.539 118.182 -42.788 V-59.403 H94.496 Q91.883 -59.403 90.077 -61.21 Q88.27 -63.016 88.27 -65.629 V-88.832 H36.618 Q36.618 -88.832 36.618 -88.832 Q36.618 -88.832 36.618 -88.832 V-44.064 Q36.618 -41.359 34.786 -39.593 Q32.954 -37.828 30.404 -37.828 Q27.854 -37.828 26.051 -39.593 Q24.247 -41.359 24.247 -44.064 V-88.832 Z M61.875 -16.185 Q59.261 -16.185 57.495 -17.959 Q55.729 -19.733 55.729 -22.358 Q55.729 -24.984 57.495 -26.77 Q59.261 -28.556 61.875 -28.556 H92.925 Q95.539 -28.556 97.345 -26.741 Q99.151 -24.927 99.151 -22.302 Q99.151 -19.676 97.345 -17.931 Q95.539 -16.185 92.925 -16.185 H61.875 Z M114.568 -16.185 Q111.955 -16.185 110.189 -17.959 Q108.423 -19.733 108.423 -22.358 Q108.423 -24.984 110.189 -26.77 Q111.955 -28.556 114.568 -28.556 H143.513 Q146.126 -28.556 147.932 -26.741 Q149.738 -24.927 149.738 -22.302 Q149.738 -19.676 147.932 -17.931 Q146.126 -16.185 143.513 -16.185 H114.568 Z M11.287 -16.185 Q8.674 -16.185 6.908 -17.959 Q5.142 -19.733 5.142 -22.358 Q5.142 -24.984 6.908 -26.77 Q8.674 -28.556 11.287 -28.556 H40.232 Q42.845 -28.556 44.651 -26.741 Q46.458 -24.927 46.458 -22.302 Q46.458 -19.676 44.651 -17.931 Q42.845 -16.185 40.232 -16.185 H11.287 Z"/></g><g id="Medium-L" transform="matrix(1 0 0 1 1674.31 1556)"><path d="M36.145 29.428 Q31.778 29.428 28.67 26.319 Q25.562 23.211 25.562 18.845 V-2.475 Q25.562 -4.72 27.113 -6.264 Q28.664 -7.807 30.881 -7.807 Q33.098 -7.807 34.622 -6.264 Q36.145 -4.72 36.145 -2.475 V18.845 Q36.145 18.845 36.145 18.845 Q36.145 18.845 36.145 18.845 H118.655 Q118.655 18.845 118.655 18.845 Q118.655 18.845 118.655 18.845 V-2.475 Q118.655 -4.72 120.207 -6.264 Q121.758 -7.807 123.972 -7.807 Q126.185 -7.807 127.731 -6.264 Q129.277 -4.72 129.277 -2.475 V18.845 Q129.277 23.211 126.157 26.319 Q123.038 29.428 118.655 29.428 H36.145 Z M25.562 -89.305 Q25.562 -93.726 28.651 -96.826 Q31.739 -99.926 36.145 -99.926 H89.743 Q91.933 -99.926 93.932 -99.046 Q95.93 -98.167 97.399 -96.68 L126.024 -68.055 Q127.514 -66.565 128.395 -64.571 Q129.277 -62.578 129.277 -60.392 V-42.108 Q129.277 -39.862 127.685 -38.398 Q126.093 -36.934 123.915 -36.934 Q121.853 -36.934 120.293 -38.263 Q118.733 -39.592 118.655 -41.684 V-59.877 H94.075 Q91.83 -59.877 90.287 -61.42 Q88.744 -62.963 88.744 -65.208 V-89.305 H36.145 Q36.145 -89.305 36.145 -89.305 Q36.145 -89.305 36.145 -89.305 V-42.223 Q36.145 -39.94 34.576 -38.437 Q33.006 -36.934 30.825 -36.934 Q28.643 -36.934 27.102 -38.437 Q25.562 -39.94 25.562 -42.223 V-89.305 Z M61.296 -17.079 Q59.051 -17.079 57.548 -18.59 Q56.045 -20.101 56.045 -22.358 Q56.045 -24.616 57.548 -26.139 Q59.051 -27.662 61.296 -27.662 H93.504 Q95.749 -27.662 97.292 -26.11 Q98.836 -24.559 98.836 -22.302 Q98.836 -20.044 97.292 -18.562 Q95.749 -17.079 93.504 -17.079 H61.296 Z M113.359 -17.079 Q111.114 -17.079 109.61 -18.59 Q108.108 -20.101 108.108 -22.358 Q108.108 -24.616 109.61 -26.139 Q111.114 -27.662 113.359 -27.662 H143.513 Q145.758 -27.662 147.301 -26.11 Q148.844 -24.559 148.844 -22.302 Q148.844 -20.044 147.301 -18.562 Q145.758 -17.079 143.513 -17.079 H113.359 Z M11.287 -17.079 Q9.042 -17.079 7.539 -18.59 Q6.036 -20.101 6.036 -22.358 Q6.036 -24.616 7.539 -26.139 Q9.042 -27.662 11.287 -27.662 H41.441 Q43.686 -27.662 45.23 -26.11 Q46.773 -24.559 46.773 -22.302 Q46.773 -20.044 45.23 -18.562 Q43.686 -17.079 41.441 -17.079 H11.287 Z"/></g><g id="Regular-L" transform="matrix(1 0 0 1 1378.56 1556)"><path d="M35.797 28.464 Q31.973 28.464 29.249 25.74 Q26.526 23.017 26.526 19.192 V-3.786 Q26.526 -5.762 27.884 -7.112 Q29.243 -8.462 31.19 -8.462 Q33.137 -8.462 34.467 -7.112 Q35.797 -5.762 35.797 -3.786 V19.192 Q35.797 19.192 35.797 19.192 Q35.797 19.192 35.797 19.192 H119.002 Q119.002 19.192 119.002 19.192 Q119.002 19.192 119.002 19.192 V-3.786 Q119.002 -5.762 120.361 -7.112 Q121.72 -8.462 123.667 -8.462 Q125.614 -8.462 126.944 -7.112 Q128.274 -5.762 128.274 -3.786 V19.192 Q128.274 23.017 125.551 25.74 Q122.827 28.464 119.002 28.464 H35.797 Z M26.526 -89.652 Q26.526 -93.477 29.249 -96.2 Q31.973 -98.924 35.797 -98.924 H89.897 Q91.823 -98.924 93.568 -98.16 Q95.313 -97.395 96.589 -96.102 L125.445 -67.245 Q126.743 -65.948 127.508 -64.208 Q128.274 -62.467 128.274 -60.546 V-40.874 Q128.274 -38.898 126.898 -37.588 Q125.522 -36.278 123.61 -36.278 Q121.698 -36.278 120.35 -37.588 Q119.002 -38.898 119.002 -40.874 V-60.224 H93.767 Q91.792 -60.224 90.441 -61.574 Q89.091 -62.925 89.091 -64.9 V-89.652 H35.797 Q35.797 -89.652 35.797 -89.652 Q35.797 -89.652 35.797 -89.652 V-40.874 Q35.797 -38.898 34.421 -37.588 Q33.045 -36.278 31.133 -36.278 Q29.222 -36.278 27.874 -37.588 Q26.526 -38.898 26.526 -40.874 V-89.652 Z M60.872 -17.734 Q58.897 -17.734 57.586 -19.053 Q56.276 -20.371 56.276 -22.358 Q56.276 -24.346 57.586 -25.676 Q58.897 -27.006 60.872 -27.006 H93.928 Q95.903 -27.006 97.254 -25.648 Q98.604 -24.289 98.604 -22.302 Q98.604 -20.314 97.254 -19.024 Q95.903 -17.734 93.928 -17.734 H60.872 Z M112.472 -17.734 Q110.497 -17.734 109.186 -19.053 Q107.876 -20.371 107.876 -22.358 Q107.876 -24.346 109.186 -25.676 Q110.497 -27.006 112.472 -27.006 H143.513 Q145.488 -27.006 146.838 -25.648 Q148.189 -24.289 148.189 -22.302 Q148.189 -20.314 146.838 -19.024 Q145.488 -17.734 143.513 -17.734 H112.472 Z M11.287 -17.734 Q9.312 -17.734 8.002 -19.053 Q6.692 -20.371 6.692 -22.358 Q6.692 -24.346 8.002 -25.676 Q9.312 -27.006 11.287 -27.006 H42.328 Q44.303 -27.006 45.654 -25.648 Q47.004 -24.289 47.004 -22.302 Q47.004 -20.314 45.654 -19.024 Q44.303 -17.734 42.328 -17.734 H11.287 Z"/></g><g id="Light-L" transform="matrix(1 0 0 1 1082.77 1556)"><path d="M38.526 25.549 Q34.84 25.549 32.156 22.865 Q29.472 20.181 29.472 16.494 V-4.965 Q29.472 -6.501 30.508 -7.528 Q31.544 -8.556 33.038 -8.556 Q34.532 -8.556 35.537 -7.528 Q36.542 -6.501 36.542 -4.965 V16.494 Q36.542 17.362 37.1 17.92 Q37.658 18.479 38.526 18.479 H116.274 Q117.142 18.479 117.7 17.92 Q118.258 17.362 118.258 16.494 V-4.965 Q118.258 -6.501 119.295 -7.528 Q120.331 -8.556 121.825 -8.556 Q123.319 -8.556 124.324 -7.528 Q125.328 -6.501 125.328 -4.965 V16.494 Q125.328 20.181 122.644 22.865 Q119.96 25.549 116.274 25.549 H38.526 Z M29.472 -86.954 Q29.472 -90.641 32.156 -93.325 Q34.84 -96.009 38.526 -96.009 H90.672 Q92.586 -96.009 94.244 -95.275 Q95.902 -94.542 97.209 -93.28 L122.592 -67.897 Q123.858 -66.568 124.593 -64.915 Q125.328 -63.261 125.328 -61.352 V-39.695 Q125.328 -38.159 124.268 -37.187 Q123.207 -36.216 121.762 -36.216 Q120.316 -36.216 119.287 -37.187 Q118.258 -38.159 118.258 -39.695 V-61.898 H95.416 Q93.528 -61.898 92.193 -63.234 Q90.858 -64.57 90.858 -66.457 V-88.939 H38.526 Q37.658 -88.939 37.1 -88.38 Q36.542 -87.822 36.542 -86.954 V-39.695 Q36.542 -38.159 35.481 -37.187 Q34.42 -36.216 32.975 -36.216 Q31.53 -36.216 30.501 -37.187 Q29.472 -38.159 29.472 -39.695 V-86.954 Z M60.903 -18.851 Q59.366 -18.851 58.395 -19.831 Q57.424 -20.812 57.424 -22.362 Q57.424 -23.911 58.395 -24.916 Q59.366 -25.921 60.903 -25.921 H93.897 Q95.434 -25.921 96.461 -24.885 Q97.488 -23.848 97.488 -22.298 Q97.488 -20.749 96.461 -19.8 Q95.434 -18.851 93.897 -18.851 H60.903 Z M111.262 -18.851 Q109.726 -18.851 108.755 -19.831 Q107.783 -20.812 107.783 -22.362 Q107.783 -23.911 108.755 -24.916 Q109.726 -25.921 111.262 -25.921 H142.83 Q144.367 -25.921 145.394 -24.885 Q146.421 -23.848 146.421 -22.298 Q146.421 -20.749 145.394 -19.8 Q144.367 -18.851 142.83 -18.851 H111.262 Z M11.97 -18.851 Q10.433 -18.851 9.462 -19.831 Q8.491 -20.812 8.491 -22.362 Q8.491 -23.911 9.462 -24.916 Q10.433 -25.921 11.97 -25.921 H43.538 Q45.074 -25.921 46.101 -24.885 Q47.128 -23.848 47.128 -22.298 Q47.128 -20.749 46.101 -19.8 Q45.074 -18.851 43.538 -18.851 H11.97 Z"/></g><g id="Thin-L" transform="matrix(1 0 0 1 787.282 1556)"><path d="M41.255 22.634 Q37.706 22.634 35.062 19.99 Q32.417 17.346 32.417 13.796 V-6.143 Q32.417 -7.241 33.131 -7.945 Q33.845 -8.649 34.886 -8.649 Q35.928 -8.649 36.607 -7.945 Q37.286 -7.241 37.286 -6.143 V13.796 Q37.286 15.533 38.402 16.649 Q39.519 17.765 41.255 17.765 H113.545 Q115.281 17.765 116.398 16.649 Q117.514 15.533 117.514 13.796 V-6.143 Q117.514 -7.241 118.228 -7.945 Q118.942 -8.649 119.983 -8.649 Q121.024 -8.649 121.703 -7.945 Q122.383 -7.241 122.383 -6.143 V13.796 Q122.383 17.346 119.738 19.99 Q117.094 22.634 113.545 22.634 H41.255 Z M32.417 -84.256 Q32.417 -87.806 35.062 -90.45 Q37.706 -93.094 41.255 -93.094 H91.447 Q93.348 -93.094 94.92 -92.392 Q96.492 -91.69 97.829 -90.458 L119.74 -68.548 Q120.975 -67.188 121.679 -65.622 Q122.383 -64.055 122.383 -62.159 V-38.517 Q122.383 -37.419 121.637 -36.787 Q120.892 -36.154 119.914 -36.154 Q118.935 -36.154 118.224 -36.787 Q117.514 -37.419 117.514 -38.517 V-63.573 H97.064 Q95.265 -63.573 93.945 -64.893 Q92.626 -66.214 92.626 -68.013 V-88.225 H41.255 Q39.519 -88.225 38.402 -87.109 Q37.286 -85.993 37.286 -84.256 V-38.517 Q37.286 -37.419 36.541 -36.787 Q35.796 -36.154 34.817 -36.154 Q33.838 -36.154 33.128 -36.787 Q32.417 -37.419 32.417 -38.517 V-84.256 Z M60.934 -19.967 Q59.836 -19.967 59.204 -20.61 Q58.571 -21.252 58.571 -22.365 Q58.571 -23.477 59.204 -24.156 Q59.836 -24.836 60.934 -24.836 H93.866 Q94.964 -24.836 95.668 -24.122 Q96.372 -23.408 96.372 -22.295 Q96.372 -21.183 95.668 -20.575 Q94.964 -19.967 93.866 -19.967 H60.934 Z M110.053 -19.967 Q108.955 -19.967 108.323 -20.61 Q107.69 -21.252 107.69 -22.365 Q107.69 -23.477 108.323 -24.156 Q108.955 -24.836 110.053 -24.836 H142.148 Q143.246 -24.836 143.95 -24.122 Q144.654 -23.408 144.654 -22.295 Q144.654 -21.183 143.95 -20.575 Q143.246 -19.967 142.148 -19.967 H110.053 Z M12.652 -19.967 Q11.554 -19.967 10.922 -20.61 Q10.289 -21.252 10.289 -22.365 Q10.289 -23.477 10.922 -24.156 Q11.554 -24.836 12.652 -24.836 H44.747 Q45.845 -24.836 46.549 -24.122 Q47.252 -23.408 47.252 -22.295 Q47.252 -21.183 46.549 -20.575 Q45.845 -19.967 44.747 -19.967 H12.652 Z"/></g><g id="Ultralight-L" transform="matrix(1 0 0 1 491.205 1556)"><path d="M42.892 20.885 Q39.426 20.885 36.805 18.265 Q34.185 15.644 34.185 12.178 V-6.85 Q34.185 -7.684 34.706 -8.195 Q35.226 -8.704 35.996 -8.704 Q36.765 -8.704 37.249 -8.195 Q37.733 -7.684 37.733 -6.85 V12.178 Q37.733 14.435 39.184 15.886 Q40.635 17.338 42.892 17.338 H111.907 Q114.165 17.338 115.616 15.886 Q117.068 14.435 117.068 12.178 V-6.85 Q117.068 -7.684 117.588 -8.195 Q118.109 -8.704 118.878 -8.704 Q119.648 -8.704 120.131 -8.195 Q120.615 -7.684 120.615 -6.85 V12.178 Q120.615 15.644 117.995 18.265 Q115.374 20.885 111.907 20.885 H42.892 Z M34.185 -82.637 Q34.185 -86.104 36.805 -88.725 Q39.426 -91.345 42.892 -91.345 H91.913 Q93.806 -91.345 95.326 -90.661 Q96.845 -89.978 98.201 -88.765 L118.028 -68.938 Q119.244 -67.561 119.93 -66.046 Q120.615 -64.531 120.615 -62.642 V-37.81 Q120.615 -36.976 120.059 -36.546 Q119.503 -36.117 118.804 -36.117 Q118.106 -36.117 117.587 -36.546 Q117.068 -36.976 117.068 -37.81 V-64.577 H98.053 Q96.307 -64.577 94.996 -65.889 Q93.686 -67.201 93.686 -68.947 V-87.797 H42.892 Q40.635 -87.797 39.184 -86.346 Q37.733 -84.895 37.733 -82.637 V-37.81 Q37.733 -36.976 37.177 -36.546 Q36.621 -36.117 35.922 -36.117 Q35.223 -36.117 34.704 -36.546 Q34.185 -36.976 34.185 -37.81 V-82.637 Z M60.953 -20.637 Q60.118 -20.637 59.689 -21.077 Q59.259 -21.517 59.259 -22.367 Q59.259 -23.217 59.689 -23.701 Q60.118 -24.184 60.953 -24.184 H93.847 Q94.682 -24.184 95.192 -23.664 Q95.702 -23.143 95.702 -22.293 Q95.702 -21.443 95.192 -21.04 Q94.682 -20.637 93.847 -20.637 H60.953 Z M109.328 -20.637 Q108.493 -20.637 108.064 -21.077 Q107.634 -21.517 107.634 -22.367 Q107.634 -23.217 108.064 -23.701 Q108.493 -24.184 109.328 -24.184 H141.739 Q142.573 -24.184 143.083 -23.664 Q143.593 -23.143 143.593 -22.293 Q143.593 -21.443 143.083 -21.04 Q142.573 -20.637 141.739 -20.637 H109.328 Z M13.061 -20.637 Q12.227 -20.637 11.797 -21.077 Q11.368 -21.517 11.368 -22.367 Q11.368 -23.217 11.797 -23.701 Q12.227 -24.184 13.061 -24.184 H45.473 Q46.307 -24.184 46.817 -23.664 Q47.327 -23.143 47.327 -22.293 Q47.327 -21.443 46.817 -21.04 Q46.307 -20.637 45.473 -20.637 H13.061 Z"/></g><g id="Bold-M" transform="matrix(1 0 0 1 2281.8 1126)"><path d="M32 17.77 Q25.758 17.77 21.316 13.329 Q16.875 8.887 16.875 2.645 V-0.73 Q16.875 -3.792 19.125 -6.042 Q21.375 -8.292 24.438 -8.292 Q27.5 -8.292 29.75 -6.042 Q32 -3.792 32 -0.73 V2.645 Q32 2.645 32 2.645 Q32 2.645 32 2.645 H88 Q88 2.645 88 2.645 Q88 2.645 88 2.645 V-0.73 Q88 -3.792 90.25 -6.042 Q92.5 -8.292 95.562 -8.292 Q98.625 -8.292 100.875 -6.042 Q103.125 -3.792 103.125 -0.73 V2.645 Q103.125 8.887 98.684 13.329 Q94.242 17.77 88 17.77 H32 Z M16.875 -73.105 Q16.875 -79.472 21.254 -83.851 Q25.633 -88.23 32 -88.23 H65.625 Q68.643 -88.23 71.421 -87.075 Q74.199 -85.92 76.375 -83.73 L98.62 -61.485 Q100.812 -59.292 101.969 -56.518 Q103.125 -53.744 103.125 -50.73 V-49.23 Q103.125 -46.292 100.875 -44.23 Q98.625 -42.167 95.562 -42.167 Q92.875 -42.167 90.625 -43.605 Q88.375 -45.042 88 -47.48 V-48.98 H71.438 Q68.375 -48.98 66.125 -51.23 Q63.875 -53.48 63.875 -56.542 V-73.105 H32 Q32 -73.105 32 -73.105 Q32 -73.105 32 -73.105 V-49.73 Q32 -46.667 29.75 -44.417 Q27.5 -42.167 24.438 -42.167 Q21.375 -42.167 19.125 -44.417 Q16.875 -46.667 16.875 -49.73 V-73.105 Z M51.25 -17.667 Q48.188 -17.667 45.938 -19.917 Q43.688 -22.167 43.688 -25.23 Q43.688 -28.292 45.938 -30.542 Q48.188 -32.792 51.25 -32.792 H68.75 Q71.812 -32.792 74.062 -30.542 Q76.312 -28.292 76.312 -25.23 Q76.312 -22.167 74.062 -19.917 Q71.812 -17.667 68.75 -17.667 H51.25 Z M93.25 -17.667 Q90.188 -17.667 87.938 -19.917 Q85.688 -22.167 85.688 -25.23 Q85.688 -28.292 87.938 -30.542 Q90.188 -32.792 93.25 -32.792 H110 Q113.062 -32.792 115.312 -30.542 Q117.562 -28.292 117.562 -25.23 Q117.562 -22.167 115.312 -19.917 Q113.062 -17.667 110 -17.667 H93.25 Z M10 -17.667 Q6.938 -17.667 4.688 -19.917 Q2.438 -22.167 2.438 -25.23 Q2.438 -28.292 4.688 -30.542 Q6.938 -32.792 10 -32.792 H26.75 Q29.812 -32.792 32.062 -30.542 Q34.312 -28.292 34.312 -25.23 Q34.312 -22.167 32.062 -19.917 Q29.812 -17.667 26.75 -17.667 H10 Z"/></g><g id="Semibold-M" transform="matrix(1 0 0 1 1985.97 1126)"><path d="M31.348 15.922 Q26.138 15.922 22.43 12.215 Q18.723 8.507 18.723 3.297 V-3.23 Q18.723 -5.803 20.592 -7.673 Q22.462 -9.542 25.035 -9.542 Q27.609 -9.542 29.478 -7.673 Q31.348 -5.803 31.348 -3.23 V3.297 Q31.348 3.297 31.348 3.297 Q31.348 3.297 31.348 3.297 H88.652 Q88.652 3.297 88.652 3.297 Q88.652 3.297 88.652 3.297 V-3.23 Q88.652 -5.803 90.522 -7.673 Q92.391 -9.542 94.965 -9.542 Q97.538 -9.542 99.408 -7.673 Q101.277 -5.803 101.277 -3.23 V3.297 Q101.277 8.507 97.57 12.215 Q93.862 15.922 88.652 15.922 H31.348 Z M18.723 -73.757 Q18.723 -79.037 22.395 -82.71 Q26.068 -86.382 31.348 -86.382 H65.897 Q68.425 -86.382 70.742 -85.418 Q73.057 -84.453 74.853 -82.643 L97.533 -59.964 Q99.345 -58.151 100.311 -55.839 Q101.277 -53.526 101.277 -51.002 V-46.947 Q101.277 -44.445 99.408 -42.681 Q97.538 -40.918 94.965 -40.918 Q92.603 -40.918 90.734 -42.328 Q88.864 -43.738 88.652 -45.958 V-49.632 H70.84 Q68.266 -49.632 66.397 -51.502 Q64.527 -53.371 64.527 -55.945 V-73.757 H31.348 Q31.348 -73.757 31.348 -73.757 Q31.348 -73.757 31.348 -73.757 V-47.23 Q31.348 -44.657 29.478 -42.787 Q27.609 -40.918 25.035 -40.918 Q22.462 -40.918 20.592 -42.787 Q18.723 -44.657 18.723 -47.23 V-73.757 Z M50.435 -18.917 Q47.861 -18.917 45.992 -20.787 Q44.122 -22.657 44.122 -25.23 Q44.122 -27.803 45.992 -29.673 Q47.861 -31.543 50.435 -31.543 H69.565 Q72.139 -31.543 74.008 -29.673 Q75.878 -27.803 75.878 -25.23 Q75.878 -22.657 74.008 -20.787 Q72.139 -18.917 69.565 -18.917 H50.435 Z M91.565 -18.917 Q88.992 -18.917 87.122 -20.787 Q85.253 -22.657 85.253 -25.23 Q85.253 -27.803 87.122 -29.673 Q88.992 -31.543 91.565 -31.543 H110 Q112.573 -31.543 114.443 -29.673 Q116.313 -27.803 116.313 -25.23 Q116.313 -22.657 114.443 -20.787 Q112.573 -18.917 110 -18.917 H91.565 Z M10 -18.917 Q7.427 -18.917 5.557 -20.787 Q3.687 -22.657 3.687 -25.23 Q3.687 -27.803 5.557 -29.673 Q7.427 -31.543 10 -31.543 H28.435 Q31.008 -31.543 32.878 -29.673 Q34.747 -27.803 34.747 -25.23 Q34.747 -22.657 32.878 -20.787 Q31.008 -18.917 28.435 -18.917 H10 Z"/></g><g id="Medium-M" transform="matrix(1 0 0 1 1689.91 1126)"><path d="M30.859 14.536 Q26.424 14.536 23.266 11.379 Q20.109 8.221 20.109 3.786 V-5.105 Q20.109 -7.311 21.693 -8.896 Q23.277 -10.48 25.484 -10.48 Q27.69 -10.48 29.274 -8.896 Q30.859 -7.311 30.859 -5.105 V3.786 Q30.859 3.786 30.859 3.786 Q30.859 3.786 30.859 3.786 H89.141 Q89.141 3.786 89.141 3.786 Q89.141 3.786 89.141 3.786 V-5.105 Q89.141 -7.311 90.725 -8.896 Q92.31 -10.48 94.516 -10.48 Q96.723 -10.48 98.307 -8.896 Q99.891 -7.311 99.891 -5.105 V3.786 Q99.891 8.221 96.734 11.379 Q93.576 14.536 89.141 14.536 H30.859 Z M20.109 -74.246 Q20.109 -78.711 23.251 -81.854 Q26.394 -84.996 30.859 -84.996 H66.1 Q68.262 -84.996 70.232 -84.174 Q72.201 -83.352 73.712 -81.828 L96.717 -58.822 Q98.245 -57.295 99.068 -55.329 Q99.891 -53.363 99.891 -51.205 V-45.235 Q99.891 -43.059 98.307 -41.519 Q96.723 -39.98 94.516 -39.98 Q92.4 -39.98 90.815 -41.37 Q89.231 -42.76 89.141 -44.817 V-50.121 H70.391 Q68.185 -50.121 66.6 -51.705 Q65.016 -53.29 65.016 -55.496 V-74.246 H30.859 Q30.859 -74.246 30.859 -74.246 Q30.859 -74.246 30.859 -74.246 V-45.355 Q30.859 -43.148 29.274 -41.564 Q27.69 -39.98 25.484 -39.98 Q23.277 -39.98 21.693 -41.564 Q20.109 -43.148 20.109 -45.355 V-74.246 Z M49.823 -19.855 Q47.617 -19.855 46.033 -21.439 Q44.448 -23.023 44.448 -25.23 Q44.448 -27.436 46.033 -29.021 Q47.617 -30.605 49.823 -30.605 H70.177 Q72.383 -30.605 73.967 -29.021 Q75.552 -27.436 75.552 -25.23 Q75.552 -23.023 73.967 -21.439 Q72.383 -19.855 70.177 -19.855 H49.823 Z M90.302 -19.855 Q88.095 -19.855 86.511 -21.439 Q84.927 -23.023 84.927 -25.23 Q84.927 -27.436 86.511 -29.021 Q88.095 -30.605 90.302 -30.605 H110 Q112.207 -30.605 113.791 -29.021 Q115.375 -27.436 115.375 -25.23 Q115.375 -23.023 113.791 -21.439 Q112.207 -19.855 110 -19.855 H90.302 Z M10 -19.855 Q7.793 -19.855 6.209 -21.439 Q4.625 -23.023 4.625 -25.23 Q4.625 -27.436 6.209 -29.021 Q7.793 -30.605 10 -30.605 H29.698 Q31.905 -30.605 33.489 -29.021 Q35.073 -27.436 35.073 -25.23 Q35.073 -23.023 33.489 -21.439 Q31.905 -19.855 29.698 -19.855 H10 Z"/></g><g id="Regular-M" transform="matrix(1 0 0 1 1394.06 1126)"><path d="M30.5 13.52 Q26.633 13.52 23.879 10.766 Q21.125 8.012 21.125 4.145 V-6.48 Q21.125 -8.417 22.5 -9.792 Q23.875 -11.167 25.812 -11.167 Q27.75 -11.167 29.125 -9.792 Q30.5 -8.417 30.5 -6.48 V4.145 Q30.5 4.145 30.5 4.145 Q30.5 4.145 30.5 4.145 H89.5 Q89.5 4.145 89.5 4.145 Q89.5 4.145 89.5 4.145 V-6.48 Q89.5 -8.417 90.875 -9.792 Q92.25 -11.167 94.188 -11.167 Q96.125 -11.167 97.5 -9.792 Q98.875 -8.417 98.875 -6.48 V4.145 Q98.875 8.012 96.121 10.766 Q93.367 13.52 89.5 13.52 H30.5 Z M21.125 -74.605 Q21.125 -78.472 23.879 -81.226 Q26.633 -83.98 30.5 -83.98 H66.25 Q68.143 -83.98 69.858 -83.263 Q71.574 -82.545 72.875 -81.23 L96.12 -57.985 Q97.438 -56.667 98.156 -54.956 Q98.875 -53.244 98.875 -51.355 V-43.98 Q98.875 -42.042 97.5 -40.667 Q96.125 -39.292 94.188 -39.292 Q92.25 -39.292 90.875 -40.667 Q89.5 -42.042 89.5 -43.98 V-50.48 H70.062 Q68.125 -50.48 66.75 -51.855 Q65.375 -53.23 65.375 -55.167 V-74.605 H30.5 Q30.5 -74.605 30.5 -74.605 Q30.5 -74.605 30.5 -74.605 V-43.98 Q30.5 -42.042 29.125 -40.667 Q27.75 -39.292 25.812 -39.292 Q23.875 -39.292 22.5 -40.667 Q21.125 -42.042 21.125 -43.98 V-74.605 Z M49.375 -20.542 Q47.438 -20.542 46.062 -21.917 Q44.688 -23.292 44.688 -25.23 Q44.688 -27.167 46.062 -28.542 Q47.438 -29.917 49.375 -29.917 H70.625 Q72.562 -29.917 73.938 -28.542 Q75.312 -27.167 75.312 -25.23 Q75.312 -23.292 73.938 -21.917 Q72.562 -20.542 70.625 -20.542 H49.375 Z M89.375 -20.542 Q87.438 -20.542 86.062 -21.917 Q84.688 -23.292 84.688 -25.23 Q84.688 -27.167 86.062 -28.542 Q87.438 -29.917 89.375 -29.917 H110 Q111.938 -29.917 113.312 -28.542 Q114.688 -27.167 114.688 -25.23 Q114.688 -23.292 113.312 -21.917 Q111.938 -20.542 110 -20.542 H89.375 Z M10 -20.542 Q8.062 -20.542 6.688 -21.917 Q5.312 -23.292 5.312 -25.23 Q5.312 -27.167 6.688 -28.542 Q8.062 -29.917 10 -29.917 H30.625 Q32.562 -29.917 33.938 -28.542 Q35.312 -27.167 35.312 -25.23 Q35.312 -23.292 33.938 -21.917 Q32.562 -20.542 30.625 -20.542 H10 Z"/></g><g id="Light-M" transform="matrix(1 0 0 1 1098.18 1126)"><path d="M31.942 11.26 Q28.422 11.26 25.916 8.754 Q23.409 6.247 23.409 2.727 V-8.74 Q23.409 -10.194 24.437 -11.222 Q25.465 -12.249 26.908 -12.249 Q28.351 -12.249 29.377 -11.222 Q30.404 -10.194 30.404 -8.74 V2.727 Q30.404 3.4 30.837 3.833 Q31.269 4.265 31.942 4.265 H88.058 Q88.731 4.265 89.163 3.833 Q89.596 3.4 89.596 2.727 V-8.74 Q89.596 -10.194 90.624 -11.222 Q91.652 -12.249 93.095 -12.249 Q94.538 -12.249 95.565 -11.222 Q96.591 -10.194 96.591 -8.74 V2.727 Q96.591 6.247 94.084 8.754 Q91.578 11.26 88.058 11.26 H31.942 Z M23.409 -73.187 Q23.409 -76.707 25.916 -79.213 Q28.422 -81.72 31.942 -81.72 H67.813 Q69.552 -81.72 71.128 -81.051 Q72.704 -80.382 73.885 -79.187 L94.052 -59.019 Q95.25 -57.821 95.921 -56.249 Q96.591 -54.677 96.591 -52.942 V-41.72 Q96.591 -40.266 95.558 -39.25 Q94.525 -38.235 93.092 -38.235 Q91.659 -38.235 90.628 -39.25 Q89.596 -40.266 89.596 -41.72 V-52.932 H72.062 Q70.289 -52.932 69.046 -54.175 Q67.803 -55.419 67.803 -57.192 V-74.725 H31.942 Q31.269 -74.725 30.837 -74.292 Q30.404 -73.86 30.404 -73.187 V-41.72 Q30.404 -40.266 29.37 -39.25 Q28.337 -38.235 26.905 -38.235 Q25.472 -38.235 24.441 -39.25 Q23.409 -40.266 23.409 -41.72 V-73.187 Z M48.726 -21.744 Q47.272 -21.744 46.256 -22.761 Q45.24 -23.777 45.24 -25.232 Q45.24 -26.687 46.256 -27.713 Q47.272 -28.739 48.726 -28.739 H71.274 Q72.728 -28.739 73.756 -27.711 Q74.784 -26.683 74.784 -25.228 Q74.784 -23.773 73.756 -22.759 Q72.728 -21.744 71.274 -21.744 H48.726 Z M87.764 -21.744 Q86.31 -21.744 85.294 -22.761 Q84.279 -23.777 84.279 -25.232 Q84.279 -26.687 85.294 -27.713 Q86.31 -28.739 87.764 -28.739 H109.808 Q111.262 -28.739 112.29 -27.711 Q113.317 -26.683 113.317 -25.228 Q113.317 -23.773 112.29 -22.759 Q111.262 -21.744 109.808 -21.744 H87.764 Z M10.192 -21.744 Q8.738 -21.744 7.722 -22.761 Q6.707 -23.777 6.707 -25.232 Q6.707 -26.687 7.722 -27.713 Q8.738 -28.739 10.192 -28.739 H32.236 Q33.69 -28.739 34.718 -27.711 Q35.745 -26.683 35.745 -25.228 Q35.745 -23.773 34.718 -22.759 Q33.69 -21.744 32.236 -21.744 H10.192 Z"/></g><g id="Thin-M" transform="matrix(1 0 0 1 802.565 1126)"><path d="M33.385 9.001 Q30.212 9.001 27.952 6.741 Q25.692 4.482 25.692 1.309 V-10.999 Q25.692 -11.97 26.373 -12.651 Q27.055 -13.331 28.003 -13.331 Q28.952 -13.331 29.63 -12.651 Q30.308 -11.97 30.308 -10.999 V1.309 Q30.308 2.655 31.173 3.52 Q32.038 4.385 33.385 4.385 H86.615 Q87.962 4.385 88.827 3.52 Q89.692 2.655 89.692 1.309 V-10.999 Q89.692 -11.97 90.374 -12.651 Q91.055 -13.331 92.003 -13.331 Q92.952 -13.331 93.63 -12.651 Q94.308 -11.97 94.308 -10.999 V1.309 Q94.308 4.482 92.048 6.741 Q89.788 9.001 86.615 9.001 H33.385 Z M25.692 -71.768 Q25.692 -74.941 27.952 -77.201 Q30.212 -79.461 33.385 -79.461 H69.375 Q70.96 -79.461 72.397 -78.839 Q73.833 -78.218 74.894 -77.143 L91.985 -60.053 Q93.062 -58.975 93.685 -57.542 Q94.308 -56.109 94.308 -54.528 V-39.461 Q94.308 -38.49 93.616 -37.833 Q92.924 -37.177 91.997 -37.177 Q91.069 -37.177 90.381 -37.833 Q89.692 -38.49 89.692 -39.461 V-55.384 H74.061 Q72.452 -55.384 71.341 -56.495 Q70.231 -57.607 70.231 -59.215 V-74.845 H33.385 Q32.038 -74.845 31.173 -73.98 Q30.308 -73.115 30.308 -71.768 V-39.461 Q30.308 -38.49 29.616 -37.833 Q28.924 -37.177 27.997 -37.177 Q27.069 -37.177 26.381 -37.833 Q25.692 -38.49 25.692 -39.461 V-71.768 Z M48.077 -22.946 Q47.106 -22.946 46.45 -23.603 Q45.793 -24.261 45.793 -25.233 Q45.793 -26.206 46.45 -26.884 Q47.106 -27.562 48.077 -27.562 H71.923 Q72.894 -27.562 73.575 -26.88 Q74.255 -26.199 74.255 -25.227 Q74.255 -24.254 73.575 -23.6 Q72.894 -22.946 71.923 -22.946 H48.077 Z M86.154 -22.946 Q85.183 -22.946 84.526 -23.603 Q83.87 -24.261 83.87 -25.233 Q83.87 -26.206 84.526 -26.884 Q85.183 -27.562 86.154 -27.562 H109.615 Q110.587 -27.562 111.267 -26.88 Q111.947 -26.199 111.947 -25.227 Q111.947 -24.254 111.267 -23.6 Q110.587 -22.946 109.615 -22.946 H86.154 Z M10.385 -22.946 Q9.414 -22.946 8.757 -23.603 Q8.101 -24.261 8.101 -25.233 Q8.101 -26.206 8.757 -26.884 Q9.414 -27.562 10.385 -27.562 H33.846 Q34.817 -27.562 35.498 -26.88 Q36.178 -26.199 36.178 -25.227 Q36.178 -24.254 35.498 -23.6 Q34.817 -22.946 33.846 -22.946 H10.385 Z"/></g><g id="Ultralight-M" transform="matrix(1 0 0 1 506.415 1126)"><path d="M34.25 7.645 Q31.285 7.645 29.174 5.534 Q27.062 3.422 27.062 0.458 V-12.355 Q27.062 -13.036 27.536 -13.508 Q28.009 -13.98 28.661 -13.98 Q29.312 -13.98 29.781 -13.508 Q30.25 -13.036 30.25 -12.355 V0.458 Q30.25 2.208 31.375 3.333 Q32.5 4.458 34.25 4.458 H85.75 Q87.5 4.458 88.625 3.333 Q89.75 2.208 89.75 0.458 V-12.355 Q89.75 -13.036 90.223 -13.508 Q90.696 -13.98 91.348 -13.98 Q92 -13.98 92.469 -13.508 Q92.938 -13.036 92.938 -12.355 V0.458 Q92.938 3.422 90.826 5.534 Q88.715 7.645 85.75 7.645 H34.25 Z M27.062 -70.917 Q27.062 -73.882 29.174 -75.994 Q31.285 -78.105 34.25 -78.105 H70.312 Q71.805 -78.105 73.158 -77.513 Q74.511 -76.92 75.5 -75.917 L90.745 -60.673 Q91.75 -59.667 92.344 -58.318 Q92.938 -56.969 92.938 -55.48 V-38.105 Q92.938 -37.424 92.451 -36.983 Q91.964 -36.542 91.339 -36.542 Q90.715 -36.542 90.232 -36.983 Q89.75 -37.424 89.75 -38.105 V-56.855 H75.26 Q73.75 -56.855 72.719 -57.887 Q71.688 -58.92 71.688 -60.43 V-74.917 H34.25 Q32.5 -74.917 31.375 -73.792 Q30.25 -72.667 30.25 -70.917 V-38.105 Q30.25 -37.424 29.763 -36.983 Q29.276 -36.542 28.652 -36.542 Q28.027 -36.542 27.545 -36.983 Q27.062 -37.424 27.062 -38.105 V-70.917 Z M47.688 -23.667 Q47.006 -23.667 46.566 -24.109 Q46.125 -24.551 46.125 -25.234 Q46.125 -25.917 46.566 -26.386 Q47.006 -26.855 47.688 -26.855 H72.312 Q72.994 -26.855 73.466 -26.382 Q73.938 -25.909 73.938 -25.226 Q73.938 -24.542 73.466 -24.105 Q72.994 -23.667 72.312 -23.667 H47.688 Z M85.188 -23.667 Q84.506 -23.667 84.066 -24.109 Q83.625 -24.551 83.625 -25.234 Q83.625 -25.917 84.066 -26.386 Q84.506 -26.855 85.188 -26.855 H109.5 Q110.181 -26.855 110.653 -26.382 Q111.125 -25.909 111.125 -25.226 Q111.125 -24.542 110.653 -24.105 Q110.181 -23.667 109.5 -23.667 H85.188 Z M10.5 -23.667 Q9.819 -23.667 9.378 -24.109 Q8.938 -24.551 8.938 -25.234 Q8.938 -25.917 9.378 -26.386 Q9.819 -26.855 10.5 -26.855 H34.812 Q35.494 -26.855 35.966 -26.382 Q36.438 -25.909 36.438 -25.226 Q36.438 -24.542 35.966 -24.105 Q35.494 -23.667 34.812 -23.667 H10.5 Z"/></g><g id="Bold-S" transform="matrix(1 0 0 1 2294.23 696)"><path d="M27.615 5.009 Q23.084 5.009 19.777 1.737 Q16.47 -1.536 16.47 -6.136 V-9.193 Q16.47 -11.442 18.126 -13.103 Q19.782 -14.765 22.022 -14.765 Q24.262 -14.765 25.938 -13.103 Q27.615 -11.442 27.615 -9.193 V-6.136 Q27.615 -6.136 27.615 -6.136 Q27.615 -6.136 27.615 -6.136 H67.065 Q67.065 -6.136 67.065 -6.136 Q67.065 -6.136 67.065 -6.136 V-9.193 Q67.065 -11.442 68.721 -13.103 Q70.377 -14.765 72.617 -14.765 Q74.856 -14.765 76.533 -13.103 Q78.21 -11.442 78.21 -9.193 V-6.136 Q78.21 -1.536 74.903 1.737 Q71.596 5.009 67.065 5.009 H27.615 Z M16.47 -64.324 Q16.47 -69.023 19.694 -72.246 Q22.917 -75.469 27.615 -75.469 H53.652 Q55.858 -75.469 57.891 -74.656 Q59.923 -73.844 61.641 -72.116 L74.852 -58.904 Q76.582 -57.174 77.396 -55.144 Q78.21 -53.114 78.21 -50.911 V-44.303 Q78.21 -42.153 76.554 -40.64 Q74.898 -39.126 72.658 -39.126 Q70.714 -39.126 69.038 -40.146 Q67.361 -41.167 67.065 -42.923 V-48.446 H56.759 Q54.51 -48.446 52.848 -50.108 Q51.186 -51.769 51.186 -54.018 V-64.324 H27.615 Q27.615 -64.324 27.615 -64.324 Q27.615 -64.324 27.615 -64.324 V-44.698 Q27.615 -42.449 25.959 -40.788 Q24.303 -39.126 22.063 -39.126 Q19.824 -39.126 18.147 -40.788 Q16.47 -42.449 16.47 -44.698 V-64.324 Z M42.409 -21.373 Q40.16 -21.373 38.498 -23.029 Q36.836 -24.685 36.836 -26.925 Q36.836 -29.165 38.498 -30.841 Q40.16 -32.518 42.409 -32.518 H52.271 Q54.52 -32.518 56.182 -30.862 Q57.844 -29.206 57.844 -26.966 Q57.844 -24.726 56.182 -23.05 Q54.52 -21.373 52.271 -21.373 H42.409 Z M72.391 -21.373 Q70.142 -21.373 68.48 -23.029 Q66.818 -24.685 66.818 -26.925 Q66.818 -29.165 68.48 -30.841 Q70.142 -32.518 72.391 -32.518 H81.662 Q83.91 -32.518 85.572 -30.862 Q87.234 -29.206 87.234 -26.966 Q87.234 -24.726 85.572 -23.05 Q83.91 -21.373 81.662 -21.373 H72.391 Z M13.019 -21.373 Q10.77 -21.373 9.108 -23.029 Q7.446 -24.685 7.446 -26.925 Q7.446 -29.165 9.108 -30.841 Q10.77 -32.518 13.019 -32.518 H22.289 Q24.538 -32.518 26.2 -30.862 Q27.862 -29.206 27.862 -26.966 Q27.862 -24.726 26.2 -23.05 Q24.538 -21.373 22.289 -21.373 H13.019 Z"/></g><g id="Semibold-S" transform="matrix(1 0 0 1 1998.1 696)"><path d="M27.1 3.551 Q23.385 3.551 20.656 0.857 Q17.928 -1.836 17.928 -5.621 V-11.165 Q17.928 -13.028 19.284 -14.39 Q20.64 -15.751 22.494 -15.751 Q24.348 -15.751 25.724 -14.39 Q27.1 -13.028 27.1 -11.165 V-5.621 Q27.1 -5.621 27.1 -5.621 Q27.1 -5.621 27.1 -5.621 H67.58 Q67.58 -5.621 67.58 -5.621 Q67.58 -5.621 67.58 -5.621 V-11.165 Q67.58 -13.028 68.935 -14.39 Q70.291 -15.751 72.145 -15.751 Q73.999 -15.751 75.375 -14.39 Q76.752 -13.028 76.752 -11.165 V-5.621 Q76.752 -1.836 74.024 0.857 Q71.295 3.551 67.58 3.551 H27.1 Z M17.928 -64.839 Q17.928 -68.68 20.594 -71.345 Q23.26 -74.011 27.1 -74.011 H53.866 Q55.686 -74.011 57.355 -73.349 Q59.023 -72.686 60.44 -71.258 L73.994 -57.704 Q75.425 -56.274 76.088 -54.608 Q76.752 -52.942 76.752 -51.126 V-42.503 Q76.752 -40.696 75.396 -39.418 Q74.04 -38.14 72.186 -38.14 Q70.5 -38.14 69.123 -39.139 Q67.747 -40.138 67.58 -41.722 V-48.96 H56.287 Q54.424 -48.96 53.063 -50.322 Q51.701 -51.684 51.701 -53.546 V-64.839 H27.1 Q27.1 -64.839 27.1 -64.839 Q27.1 -64.839 27.1 -64.839 V-42.726 Q27.1 -40.863 25.745 -39.501 Q24.389 -38.14 22.535 -38.14 Q20.681 -38.14 19.305 -39.501 Q17.928 -40.863 17.928 -42.726 V-64.839 Z M41.766 -22.359 Q39.903 -22.359 38.541 -23.715 Q37.179 -25.071 37.179 -26.925 Q37.179 -28.779 38.541 -30.155 Q39.903 -31.532 41.766 -31.532 H52.914 Q54.777 -31.532 56.139 -30.176 Q57.501 -28.82 57.501 -26.966 Q57.501 -25.112 56.139 -23.736 Q54.777 -22.359 52.914 -22.359 H41.766 Z M71.062 -22.359 Q69.199 -22.359 67.837 -23.715 Q66.475 -25.071 66.475 -26.925 Q66.475 -28.779 67.837 -30.155 Q69.199 -31.532 71.062 -31.532 H81.662 Q83.524 -31.532 84.886 -30.176 Q86.248 -28.82 86.248 -26.966 Q86.248 -25.112 84.886 -23.736 Q83.524 -22.359 81.662 -22.359 H71.062 Z M13.019 -22.359 Q11.156 -22.359 9.794 -23.715 Q8.432 -25.071 8.432 -26.925 Q8.432 -28.779 9.794 -30.155 Q11.156 -31.532 13.019 -31.532 H23.618 Q25.481 -31.532 26.843 -30.176 Q28.205 -28.82 28.205 -26.966 Q28.205 -25.112 26.843 -23.736 Q25.481 -22.359 23.618 -22.359 H13.019 Z"/></g><g id="Medium-S" transform="matrix(1 0 0 1 1701.85 696)"><path d="M26.715 2.458 Q23.61 2.458 21.316 0.198 Q19.022 -2.061 19.022 -5.235 V-12.645 Q19.022 -14.218 20.152 -15.355 Q21.283 -16.491 22.847 -16.491 Q24.412 -16.491 25.563 -15.355 Q26.715 -14.218 26.715 -12.645 V-5.235 Q26.715 -5.235 26.715 -5.235 Q26.715 -5.235 26.715 -5.235 H67.965 Q67.965 -5.235 67.965 -5.235 Q67.965 -5.235 67.965 -5.235 V-12.645 Q67.965 -14.218 69.096 -15.355 Q70.227 -16.491 71.791 -16.491 Q73.356 -16.491 74.507 -15.355 Q75.658 -14.218 75.658 -12.645 V-5.235 Q75.658 -2.061 73.364 0.198 Q71.07 2.458 67.965 2.458 H26.715 Z M19.022 -65.225 Q19.022 -68.422 21.269 -70.67 Q23.517 -72.918 26.715 -72.918 H54.027 Q55.558 -72.918 56.953 -72.368 Q58.348 -71.818 59.54 -70.615 L73.351 -56.803 Q74.556 -55.598 75.107 -54.206 Q75.658 -52.814 75.658 -51.287 V-41.152 Q75.658 -39.602 74.528 -38.501 Q73.397 -37.4 71.833 -37.4 Q70.339 -37.4 69.188 -38.383 Q68.036 -39.366 67.965 -40.822 V-49.346 H55.933 Q54.36 -49.346 53.223 -50.483 Q52.087 -51.619 52.087 -53.193 V-65.225 H26.715 Q26.715 -65.225 26.715 -65.225 Q26.715 -65.225 26.715 -65.225 V-41.246 Q26.715 -39.673 25.584 -38.536 Q24.453 -37.4 22.889 -37.4 Q21.324 -37.4 20.173 -38.536 Q19.022 -39.673 19.022 -41.246 V-65.225 Z M41.283 -23.099 Q39.71 -23.099 38.573 -24.23 Q37.437 -25.36 37.437 -26.925 Q37.437 -28.489 38.573 -29.641 Q39.71 -30.792 41.283 -30.792 H53.397 Q54.97 -30.792 56.107 -29.661 Q57.243 -28.531 57.243 -26.966 Q57.243 -25.402 56.107 -24.25 Q54.97 -23.099 53.397 -23.099 H41.283 Z M70.064 -23.099 Q68.491 -23.099 67.355 -24.23 Q66.218 -25.36 66.218 -26.925 Q66.218 -28.489 67.355 -29.641 Q68.491 -30.792 70.064 -30.792 H81.662 Q83.235 -30.792 84.371 -29.661 Q85.508 -28.531 85.508 -26.966 Q85.508 -25.402 84.371 -24.25 Q83.235 -23.099 81.662 -23.099 H70.064 Z M13.019 -23.099 Q11.445 -23.099 10.309 -24.23 Q9.172 -25.36 9.172 -26.925 Q9.172 -28.489 10.309 -29.641 Q11.445 -30.792 13.019 -30.792 H24.616 Q26.189 -30.792 27.325 -29.661 Q28.462 -28.531 28.462 -26.966 Q28.462 -25.402 27.325 -24.25 Q26.189 -23.099 24.616 -23.099 H13.019 Z"/></g><g id="Regular-S" transform="matrix(1 0 0 1 1405.73 696)"><path d="M26.431 1.656 Q23.775 1.656 21.799 -0.285 Q19.824 -2.226 19.824 -4.952 V-13.73 Q19.824 -15.091 20.789 -16.062 Q21.755 -17.034 23.107 -17.034 Q24.459 -17.034 25.445 -16.062 Q26.431 -15.091 26.431 -13.73 V-4.952 Q26.431 -4.952 26.431 -4.952 Q26.431 -4.952 26.431 -4.952 H68.249 Q68.249 -4.952 68.249 -4.952 Q68.249 -4.952 68.249 -4.952 V-13.73 Q68.249 -15.091 69.214 -16.062 Q70.179 -17.034 71.532 -17.034 Q72.884 -17.034 73.87 -16.062 Q74.856 -15.091 74.856 -13.73 V-4.952 Q74.856 -2.226 72.881 -0.285 Q70.905 1.656 68.249 1.656 H26.431 Z M19.824 -65.508 Q19.824 -68.234 21.765 -70.175 Q23.706 -72.116 26.431 -72.116 H54.145 Q55.463 -72.116 56.658 -71.648 Q57.852 -71.181 58.879 -70.143 L72.88 -56.143 Q73.919 -55.103 74.388 -53.911 Q74.856 -52.719 74.856 -51.404 V-40.161 Q74.856 -38.8 73.891 -37.829 Q72.925 -36.857 71.573 -36.857 Q70.221 -36.857 69.235 -37.829 Q68.249 -38.8 68.249 -40.161 V-49.629 H55.674 Q54.313 -49.629 53.341 -50.601 Q52.37 -51.572 52.37 -52.933 V-65.508 H26.431 Q26.431 -65.508 26.431 -65.508 Q26.431 -65.508 26.431 -65.508 V-40.161 Q26.431 -38.8 25.466 -37.829 Q24.501 -36.857 23.148 -36.857 Q21.796 -36.857 20.81 -37.829 Q19.824 -38.8 19.824 -40.161 V-65.508 Z M40.929 -23.642 Q39.568 -23.642 38.597 -24.607 Q37.625 -25.573 37.625 -26.925 Q37.625 -28.277 38.597 -29.263 Q39.568 -30.249 40.929 -30.249 H53.751 Q55.112 -30.249 56.083 -29.284 Q57.055 -28.318 57.055 -26.966 Q57.055 -25.614 56.083 -24.628 Q55.112 -23.642 53.751 -23.642 H40.929 Z M69.333 -23.642 Q67.972 -23.642 67.001 -24.607 Q66.029 -25.573 66.029 -26.925 Q66.029 -28.277 67.001 -29.263 Q67.972 -30.249 69.333 -30.249 H81.662 Q83.023 -30.249 83.994 -29.284 Q84.965 -28.318 84.965 -26.966 Q84.965 -25.614 83.994 -24.628 Q83.023 -23.642 81.662 -23.642 H69.333 Z M13.019 -23.642 Q11.657 -23.642 10.686 -24.607 Q9.715 -25.573 9.715 -26.925 Q9.715 -28.277 10.686 -29.263 Q11.657 -30.249 13.019 -30.249 H25.347 Q26.708 -30.249 27.679 -29.284 Q28.651 -28.318 28.651 -26.966 Q28.651 -25.614 27.679 -24.628 Q26.708 -23.642 25.347 -23.642 H13.019 Z"/></g><g id="Light-S" transform="matrix(1 0 0 1 1109.75 696)"><path d="M27.57 -0.127 Q25.187 -0.127 23.406 -1.873 Q21.626 -3.619 21.626 -6.071 V-15.513 Q21.626 -16.493 22.317 -17.19 Q23.009 -17.887 23.971 -17.887 Q24.933 -17.887 25.644 -17.19 Q26.356 -16.493 26.356 -15.513 V-6.071 Q26.356 -5.54 26.697 -5.199 Q27.038 -4.857 27.57 -4.857 H67.11 Q67.642 -4.857 67.983 -5.199 Q68.324 -5.54 68.324 -6.071 V-15.513 Q68.324 -16.493 69.016 -17.19 Q69.708 -17.887 70.67 -17.887 Q71.632 -17.887 72.343 -17.19 Q73.054 -16.493 73.054 -15.513 V-6.071 Q73.054 -3.619 71.274 -1.873 Q69.493 -0.127 67.11 -0.127 H27.57 Z M21.626 -64.389 Q21.626 -66.841 23.372 -68.587 Q25.118 -70.333 27.57 -70.333 H55.378 Q56.575 -70.333 57.659 -69.903 Q58.744 -69.474 59.676 -68.531 L71.248 -56.958 Q72.193 -56.013 72.624 -54.932 Q73.054 -53.85 73.054 -52.656 V-38.378 Q73.054 -37.398 72.358 -36.711 Q71.663 -36.023 70.709 -36.023 Q69.755 -36.023 69.04 -36.711 Q68.324 -37.398 68.324 -38.378 V-51.564 H57.251 Q56.02 -51.564 55.153 -52.431 Q54.286 -53.299 54.286 -54.53 V-65.603 H27.57 Q27.038 -65.603 26.697 -65.261 Q26.356 -64.92 26.356 -64.389 V-38.378 Q26.356 -37.398 25.66 -36.711 Q24.964 -36.023 24.01 -36.023 Q23.056 -36.023 22.341 -36.711 Q21.626 -37.398 21.626 -38.378 V-64.389 Z M40.417 -24.59 Q39.437 -24.59 38.75 -25.272 Q38.062 -25.955 38.062 -26.926 Q38.062 -27.898 38.75 -28.609 Q39.437 -29.32 40.417 -29.32 H54.263 Q55.243 -29.32 55.94 -28.628 Q56.637 -27.936 56.637 -26.965 Q56.637 -25.993 55.94 -25.292 Q55.243 -24.59 54.263 -24.59 H40.417 Z M68.062 -24.59 Q67.083 -24.59 66.395 -25.272 Q65.707 -25.955 65.707 -26.926 Q65.707 -27.898 66.395 -28.609 Q67.083 -29.32 68.062 -29.32 H81.51 Q82.49 -29.32 83.187 -28.628 Q83.884 -27.936 83.884 -26.965 Q83.884 -25.993 83.187 -25.292 Q82.49 -24.59 81.51 -24.59 H68.062 Z M13.17 -24.59 Q12.19 -24.59 11.503 -25.272 Q10.815 -25.955 10.815 -26.926 Q10.815 -27.898 11.503 -28.609 Q12.19 -29.32 13.17 -29.32 H26.618 Q27.597 -29.32 28.295 -28.628 Q28.992 -27.936 28.992 -26.965 Q28.992 -25.993 28.295 -25.292 Q27.597 -24.59 26.618 -24.59 H13.17 Z"/></g><g id="Thin-S" transform="matrix(1 0 0 1 814.015 696)"><path d="M28.707 -1.91 Q26.598 -1.91 25.013 -3.461 Q23.427 -5.012 23.427 -7.19 V-17.295 Q23.427 -17.894 23.845 -18.317 Q24.263 -18.741 24.835 -18.741 Q25.407 -18.741 25.843 -18.317 Q26.28 -17.894 26.28 -17.295 V-7.19 Q26.28 -6.128 26.963 -5.445 Q27.645 -4.762 28.707 -4.762 H65.973 Q67.035 -4.762 67.717 -5.445 Q68.4 -6.128 68.4 -7.19 V-17.295 Q68.4 -17.894 68.818 -18.317 Q69.237 -18.741 69.808 -18.741 Q70.38 -18.741 70.817 -18.317 Q71.253 -17.894 71.253 -17.295 V-7.19 Q71.253 -5.012 69.667 -3.461 Q68.082 -1.91 65.973 -1.91 H28.707 Z M23.427 -63.27 Q23.427 -65.448 24.978 -66.999 Q26.529 -68.55 28.707 -68.55 H56.611 Q57.686 -68.55 58.661 -68.159 Q59.635 -67.767 60.472 -66.919 L69.617 -57.774 Q70.468 -56.924 70.86 -55.952 Q71.253 -54.98 71.253 -53.908 V-36.596 Q71.253 -35.997 70.826 -35.593 Q70.4 -35.188 69.845 -35.188 Q69.289 -35.188 68.845 -35.593 Q68.4 -35.997 68.4 -36.596 V-53.498 H58.828 Q57.727 -53.498 56.964 -54.262 Q56.201 -55.026 56.201 -56.127 V-65.698 H28.707 Q27.645 -65.698 26.963 -65.015 Q26.28 -64.332 26.28 -63.27 V-36.596 Q26.28 -35.997 25.853 -35.593 Q25.427 -35.188 24.872 -35.188 Q24.316 -35.188 23.872 -35.593 Q23.427 -35.997 23.427 -36.596 V-63.27 Z M39.905 -25.538 Q39.307 -25.538 38.902 -25.937 Q38.498 -26.336 38.498 -26.927 Q38.498 -27.518 38.902 -27.955 Q39.307 -28.391 39.905 -28.391 H54.775 Q55.373 -28.391 55.797 -27.973 Q56.22 -27.555 56.22 -26.964 Q56.22 -26.373 55.797 -25.955 Q55.373 -25.538 54.775 -25.538 H39.905 Z M66.792 -25.538 Q66.193 -25.538 65.789 -25.937 Q65.385 -26.336 65.385 -26.927 Q65.385 -27.518 65.789 -27.955 Q66.193 -28.391 66.792 -28.391 H81.358 Q81.957 -28.391 82.38 -27.973 Q82.803 -27.555 82.803 -26.964 Q82.803 -26.373 82.38 -25.955 Q81.957 -25.538 81.358 -25.538 H66.792 Z M13.322 -25.538 Q12.723 -25.538 12.319 -25.937 Q11.915 -26.336 11.915 -26.927 Q11.915 -27.518 12.319 -27.955 Q12.723 -28.391 13.322 -28.391 H27.888 Q28.487 -28.391 28.91 -27.973 Q29.333 -27.555 29.333 -26.964 Q29.333 -26.373 28.91 -25.955 Q28.487 -25.538 27.888 -25.538 H13.322 Z"/></g><g id="Ultralight-S" transform="matrix(1 0 0 1 517.792 696)"><path d="M29.39 -2.98 Q27.445 -2.98 25.977 -4.414 Q24.508 -5.848 24.508 -7.862 V-18.365 Q24.508 -18.735 24.762 -18.994 Q25.016 -19.253 25.354 -19.253 Q25.692 -19.253 25.963 -18.994 Q26.234 -18.735 26.234 -18.365 V-7.862 Q26.234 -6.481 27.122 -5.593 Q28.01 -4.706 29.39 -4.706 H65.29 Q66.671 -4.706 67.558 -5.593 Q68.446 -6.481 68.446 -7.862 V-18.365 Q68.446 -18.735 68.7 -18.994 Q68.954 -19.253 69.291 -19.253 Q69.629 -19.253 69.9 -18.994 Q70.172 -18.735 70.172 -18.365 V-7.862 Q70.172 -5.848 68.703 -4.414 Q67.235 -2.98 65.29 -2.98 H29.39 Z M24.508 -62.598 Q24.508 -64.612 25.942 -66.046 Q27.376 -67.48 29.39 -67.48 H57.35 Q58.353 -67.48 59.261 -67.112 Q60.17 -66.743 60.95 -65.952 L68.639 -58.263 Q69.432 -57.47 69.802 -56.564 Q70.172 -55.658 70.172 -54.659 V-35.526 Q70.172 -35.156 69.907 -34.922 Q69.642 -34.688 69.326 -34.688 Q69.01 -34.688 68.728 -34.922 Q68.446 -35.156 68.446 -35.526 V-54.659 H59.775 Q58.751 -54.659 58.051 -55.36 Q57.35 -56.062 57.35 -57.085 V-65.754 H29.39 Q28.01 -65.754 27.122 -64.867 Q26.234 -63.979 26.234 -62.598 V-35.526 Q26.234 -35.156 25.97 -34.922 Q25.705 -34.688 25.389 -34.688 Q25.072 -34.688 24.79 -34.922 Q24.508 -35.156 24.508 -35.526 V-62.598 Z M39.598 -26.107 Q39.228 -26.107 38.994 -26.336 Q38.76 -26.566 38.76 -26.928 Q38.76 -27.291 38.994 -27.562 Q39.228 -27.833 39.598 -27.833 H55.082 Q55.452 -27.833 55.711 -27.579 Q55.97 -27.325 55.97 -26.963 Q55.97 -26.6 55.711 -26.354 Q55.452 -26.107 55.082 -26.107 H39.598 Z M66.029 -26.107 Q65.66 -26.107 65.425 -26.336 Q65.191 -26.566 65.191 -26.928 Q65.191 -27.291 65.425 -27.562 Q65.66 -27.833 66.029 -27.833 H81.267 Q81.637 -27.833 81.896 -27.579 Q82.155 -27.325 82.155 -26.963 Q82.155 -26.6 81.896 -26.354 Q81.637 -26.107 81.267 -26.107 H66.029 Z M13.413 -26.107 Q13.043 -26.107 12.809 -26.336 Q12.575 -26.566 12.575 -26.928 Q12.575 -27.291 12.809 -27.562 Q13.043 -27.833 13.413 -27.833 H28.651 Q29.02 -27.833 29.279 -27.579 Q29.538 -27.325 29.538 -26.963 Q29.538 -26.6 29.279 -26.354 Q29.02 -26.107 28.651 -26.107 H13.413 Z"/></g></g></svg>