<svg xmlns="http://www.w3.org/2000/svg" height="48" viewBox="0 -960 960 960" width="48"><path d="M670.231-887.962q21.88 0 38.344 16.199 16.464 16.198 16.464 38.609v434.846h-15.77l-14.423-14.423v-420.423q0-10.769-7.115-17.692-7.116-6.923-17.5-6.923H253.923l-6.346-6.534q5.5-9.774 16.997-16.716 11.497-6.943 25.571-6.943h380.086Zm-114.27 334.539-56.192-56.726q1.039-20.39 16.026-34.351 14.987-13.962 37.114-13.962 21.723 0 37.388 15.281 15.665 15.282 15.665 37.428 0 21.445-14.808 36.468-14.807 15.024-35.193 15.862ZM330.5-477.038v-202.847l91.615 91.616q-4.487 54.242-21.634 82.736-17.148 28.495-47.596 28.495H330.5ZM151.346-200.461H765l-63.885-64.77H175.961q-10.769 0-17.692 7.116-6.923 7.115-6.923 17.5v40.154Zm699.5 84.961-55.654-54.769H121.154v-70.257q0-22.705 16.397-38.801 16.398-16.096 38.41-16.096h494.962L266.038-699.807v320.345h-30.192V-730L76.231-889.615 98.885-911.5 872.23-136.885 850.846-115.5Zm-392.231-84.961Zm16.346-436.001Zm-47.615 95.693Z"/></svg>