<svg xmlns="http://www.w3.org/2000/svg" height="40" viewBox="0 -960 960 960" width="40"><path d="m854.667-121.833-61.834-61H133.667v-55.216q0-23.284 16.281-39.201 16.281-15.917 38.885-15.917h494.5l-83.166-83.166H245.333v-354.334L91.667-884.334l17.5-16.833 761.833 763-16.333 16.334ZM300.5-875.5h359.833q22.771 0 38.969 16.031t16.198 39.136V-401h-2.334L560-555.667q18-3 29.75-16.095 11.75-13.096 11.75-32.071 0-19.623-14.619-33.895Q572.262-652 552.333-652q-17.975 0-31.404 11.417Q507.5-629.167 505-612.167l-243.5-246q6.166-7.5 16.151-12.416 9.985-4.917 22.849-4.917Zm32 394h22q24.148 0 40.157-19.667 16.01-19.666 23.343-57.5L332.5-643.5v162Z"/></svg>