<svg xmlns="http://www.w3.org/2000/svg" height="48" viewBox="0 -960 960 960" width="48"><path d="M396.127-260.435q14.294 0 24.518-10.137 10.225-10.138 10.225-25.167v-261.304q0-14.295-10.22-24.582-10.219-10.288-24.685-10.288t-24.868 10.288q-10.401 10.287-10.401 24.582v261.304q0 15.029 10.449 25.167 10.449 10.137 24.982 10.137Zm168.832 0q14.462 0 24.403-10.137 9.942-10.138 9.942-25.167v-261.304q0-14.295-10.105-24.582-10.105-10.288-24.403-10.288-14.297 0-24.981 10.288-10.685 10.287-10.685 24.582v261.304q0 15.029 10.564 25.167 10.563 10.137 25.265 10.137ZM383.722-859.13q-16.937 0-27.851-11.538-10.915-11.538-10.915-27.583 0-16.836 10.915-27.336 10.914-10.5 27.851-10.5h193.556q15.962 0 26.864 10.569 10.902 10.57 10.902 27.335 0 16.554-10.902 27.803-10.902 11.25-26.864 11.25H383.722Zm96.146 811.609q-78.59 0-147.281-29.783t-120.212-81.049q-51.521-51.267-80.991-119.951-29.471-68.684-29.471-147.223 0-78.54 29.522-147.279 29.522-68.74 81-120.039 51.478-51.299 120.211-81.358Q401.378-804.261 480-804.261q69.13 0 128.696 21.783 59.565 21.782 107.13 62.348l31-30.435q11-11.565 27.413-11.565t27.413 11.565q11 11.565 11 27.978 0 16.413-11 27.413l-30.434 30.435q38 43 62.717 100.5t24.717 138.63q0 78.66-29.818 147.408-29.818 68.748-81.257 120.098-51.439 51.35-120.279 80.966-68.84 29.616-147.43 29.616Z"/></svg>