<svg xmlns="http://www.w3.org/2000/svg" height="40" viewBox="0 -960 960 960" width="40"><path d="M394.38-251.667q16.595 0 27.774-11.212 11.179-11.213 11.179-27.788V-545q0-17-11.231-28.5T394.269-585q-16.602 0-28.269 11.5-11.666 11.5-11.666 28.5v254.333q0 16.575 11.513 27.788 11.513 11.212 28.533 11.212Zm172.333 0q16.595 0 27.774-11.212 11.179-11.213 11.179-27.788V-545q0-17-11.231-28.5-11.23-11.5-27.833-11.5-16.602 0-28.269 11.5-11.666 11.5-11.666 28.5v254.333q0 16.575 11.513 27.788 11.514 11.212 28.533 11.212ZM380.082-853.334q-19.957 0-32.853-13.617t-12.896-33.166q0-19.55 12.896-32.55 12.896-13 32.853-13h199.836q19.957 0 32.853 12.93 12.896 12.929 12.896 32.854 0 19.549-12.896 33.049t-32.853 13.5H380.082Zm99.762 823.667q-80.822 0-151.286-30.523-70.464-30.522-123.178-83-52.713-52.477-83.047-122.881Q92-336.476 92-417.238t30.424-151.217q30.425-70.454 83.124-123.276 52.7-52.823 123.146-83.546Q399.14-806 480-806q67.333 0 128.667 21.667 61.333 21.666 109.666 62l30.334-30.334Q763-767 781.5-767t32.833 14.667q14.333 14.666 14.333 33.166 0 18.5-14.333 32.833l-29.667 29.667q37.667 45 60.834 104.5t23.167 134.834q0 80.903-30.602 151.433-30.601 70.529-83.409 122.913-52.808 52.384-123.399 82.852-70.59 30.468-151.413 30.468ZM479.886-135Q598.667-135 681-216.719q82.334-81.719 82.334-200.5t-82.219-201.115q-82.219-82.333-201.001-82.333-118.781 0-201.114 82.219-82.334 82.219-82.334 201t82.219 200.615Q361.104-135 479.886-135ZM480-416.667Z"/></svg>