<svg xmlns="http://www.w3.org/2000/svg" height="20" viewBox="0 -960 960 960" width="20"><path d="M398.789-248Q419-248 433.5-262.338 448-276.677 448-296.96v-221.757Q448-539 433.711-553.5q-14.29-14.5-34.5-14.5Q379-568 364.5-553.662 350-539.323 350-519.04v221.757Q350-277 364.289-262.5q14.29 14.5 34.5 14.5Zm162 0Q581-248 595.5-262.338 610-276.677 610-296.96v-221.757Q610-539 595.711-553.5q-14.29-14.5-34.5-14.5Q541-568 526.5-553.662 512-539.323 512-519.04v221.757Q512-277 526.289-262.5q14.29 14.5 34.5 14.5ZM397-812q-20.3 0-34.65-14.289-14.35-14.29-14.35-34.5Q348-881 362.35-895.5T397-910h166q20.3 0 34.65 14.289 14.35 14.29 14.35 34.5Q612-841 597.65-826.5T563-812H397Zm83 766q-76 0-141.42-28.507-65.419-28.507-114.493-77.58-49.073-49.074-77.58-114.493Q118-332 118-408q0-76 28.507-141.42 28.507-65.419 77.58-114.493 49.074-49.073 114.493-77.58Q404-770 479.56-770q59.28 0 114.36 18.5T696-698l29.282-29.282Q741-743 759.5-742.5 778-742 794-726t16 34.5q0 18.5-16 34.5l-28 29q38 49 57 104.808 19 55.808 19 115.336Q842-332 813.493-266.58q-28.507 65.419-77.58 114.493-49.074 49.073-114.493 77.58Q556-46 480-46Zm0-98q110 0 187-77t77-187q0-110-77-187t-187-77q-110 0-187 77t-77 187q0 110 77 187t187 77Zm0-264Z"/></svg>