<svg xmlns="http://www.w3.org/2000/svg" version="1.1" width="3300" height="2000"><g id="Notes"><style>
    text {
      font-family: monospace;
      text-anchor: middle;
    }
    text.emphasis {
      font-weight:bold;
    }
    text.lanchor {
      text-anchor: start;
    }
  </style><rect height="2200" id="artboard" fill="white" width="3300" x="0" y="0"/><line id="" style="fill:none;stroke:black;stroke-width:0.5;" x1="263" x2="3036" y1="292" y2="292"/><text class="lanchor emphasis" transform="matrix(1 0 0 1 263 322)">Weight/Scale Variations</text><text transform="matrix(1 0 0 1 559.711 322)">Ultralight</text><text transform="matrix(1 0 0 1 856.422 322)">Thin</text><text transform="matrix(1 0 0 1 1153.13 322)">Light</text><text transform="matrix(1 0 0 1 1449.84 322)">Regular</text><text transform="matrix(1 0 0 1 1746.56 322)">Medium</text><text transform="matrix(1 0 0 1 2043.27 322)">Semibold</text><text transform="matrix(1 0 0 1 2339.98 322)">Bold</text><text transform="matrix(1 0 0 1 2636.69 322)">Heavy</text><text transform="matrix(1 0 0 1 2933.4 322)">Black</text><text id="template-version" style="text-anchor: end;" transform="matrix(1 0 0 1 3036 1933)">Template v.1.0</text><text class="lanchor" transform="matrix(1 0 0 1 263 726)">Small</text><text class="lanchor" transform="matrix(1 0 0 1 263 1156)">Medium</text><text class="lanchor" transform="matrix(1 0 0 1 263 1586)">Large</text></g><g id="Guides"><g id="H-reference" style="fill:#27AAE1;stroke:none;" transform="matrix(1 0 0 1 339 696)"><path d="M 54.9316 0 L 57.666 0 L 30.5664 -70.459 L 28.0762 -70.459 L 0.976562 0 L 3.66211 0 L 12.9395 -24.4629 L 45.7031 -24.4629 Z M 29.1992 -67.0898 L 29.4434 -67.0898 L 44.8242 -26.709 L 13.8184 -26.709 Z"/></g><line id="Baseline-S" style="fill:none;stroke:#27AAE1;opacity:1;stroke-width:0.577;" x1="263" x2="3036" y1="696" y2="696"/><line id="Capline-S" style="fill:none;stroke:#27AAE1;opacity:1;stroke-width:0.577;" x1="263" x2="3036" y1="625.541" y2="625.541"/><g id="H-reference" style="fill:#27AAE1;stroke:none;" transform="matrix(1 0 0 1 339 1126)"><path d="M 54.9316 0 L 57.666 0 L 30.5664 -70.459 L 28.0762 -70.459 L 0.976562 0 L 3.66211 0 L 12.9395 -24.4629 L 45.7031 -24.4629 Z M 29.1992 -67.0898 L 29.4434 -67.0898 L 44.8242 -26.709 L 13.8184 -26.709 Z"/></g><line id="Baseline-M" style="fill:none;stroke:#27AAE1;opacity:1;stroke-width:0.577;" x1="263" x2="3036" y1="1126" y2="1126"/><line id="Capline-M" style="fill:none;stroke:#27AAE1;opacity:1;stroke-width:0.577;" x1="263" x2="3036" y1="1055.54" y2="1055.54"/><g id="H-reference" style="fill:#27AAE1;stroke:none;" transform="matrix(1 0 0 1 339 1556)"><path d="M 54.9316 0 L 57.666 0 L 30.5664 -70.459 L 28.0762 -70.459 L 0.976562 0 L 3.66211 0 L 12.9395 -24.4629 L 45.7031 -24.4629 Z M 29.1992 -67.0898 L 29.4434 -67.0898 L 44.8242 -26.709 L 13.8184 -26.709 Z"/></g><line id="Baseline-L" style="fill:none;stroke:#27AAE1;opacity:1;stroke-width:0.577;" x1="263" x2="3036" y1="1556" y2="1556"/><line id="Capline-L" style="fill:none;stroke:#27AAE1;opacity:1;stroke-width:0.577;" x1="263" x2="3036" y1="1485.54" y2="1485.54"/><rect height="119.336" id="left-margin" style="fill:darkred;stroke:none;opacity:0.4;" width="12.4512" x="1394.06" y="1030.79"/><rect height="119.336" id="right-margin" style="fill:darkgreen;stroke:none;opacity:0.4;" width="12.4512" x="1502.5112" y="1030.79"/><rect x="1406.5112" y="1045" width="96" height="96" fill="none" stroke="blue" stroke-dasharray="5"/><rect x="1394.06" y="1030.79" width="120.9024" height="119.336" fill="none" stroke="blue"/></g><g id="Symbols"><g id="Bold-L" transform="matrix(1 0 0 1 2266 1556)"><path d="M111.101 32.495 V20.804 H127.226 V17.015 H117.551 V7.743 H127.226 V3.873 H111.101 V-7.817 H131.419 Q134.535 -7.817 136.726 -5.626 Q138.917 -3.436 138.917 -0.319 V4.841 Q138.917 8.05 136.726 10.234 Q134.535 12.419 131.419 12.419 Q134.535 12.419 136.726 14.623 Q138.917 16.826 138.917 19.756 V25.078 Q138.917 28.218 136.726 30.356 Q134.535 32.495 131.419 32.495 H111.101 Z M111.101 -15.154 V-32.505 Q111.101 -35.432 113.24 -37.669 Q115.378 -39.906 118.519 -39.906 H127.226 V-43.776 H111.101 V-55.467 H131.419 Q134.535 -55.467 136.726 -53.278 Q138.917 -51.09 138.917 -47.978 V-38.117 Q138.917 -35.004 136.726 -32.819 Q134.535 -30.634 131.419 -30.634 H122.792 V-26.845 H138.917 V-15.154 H111.101 Z M120.776 -62.884 V-92.635 H111.101 V-103.197 H132.467 V-62.884 H120.776 Z M18.463 10.646 V-4.109 H96.105 V10.646 H18.463 Z M18.463 -28.216 V-42.97 H96.105 V-28.216 H18.463 Z M18.463 -67.077 V-81.831 H96.105 V-67.077 H18.463 Z"/></g><g id="Semibold-L" transform="matrix(1 0 0 1 1970.27 1556)"><path d="M110.33 30.742 V20.103 H126.455 V15.753 H116.78 V6.481 H126.455 V2.12 H110.33 V-8.519 H130.157 Q133.035 -8.519 135.064 -6.489 Q137.094 -4.459 137.094 -1.581 V4.14 Q137.094 7.11 135.064 9.134 Q133.035 11.157 130.157 11.157 Q133.035 11.157 135.064 13.194 Q137.094 15.231 137.094 18.004 V23.816 Q137.094 26.747 135.064 28.745 Q133.035 30.742 130.157 30.742 H110.33 Z M110.33 -15.645 V-32.995 Q110.33 -35.765 112.328 -37.835 Q114.325 -39.906 117.257 -39.906 H126.455 V-44.267 H110.33 V-54.906 H130.157 Q133.035 -54.906 135.064 -52.879 Q137.094 -50.852 137.094 -47.978 V-37.556 Q137.094 -34.682 135.064 -32.658 Q133.035 -30.634 130.157 -30.634 H120.969 V-26.284 H137.094 V-15.645 H110.33 Z M120.005 -62.113 V-91.373 H110.33 V-101.374 H130.644 V-62.113 H120.005 Z M18.954 9.454 V-2.917 H95.334 V9.454 H18.954 Z M18.954 -29.407 V-41.778 H95.334 V-29.407 H18.954 Z M18.954 -68.269 V-80.639 H95.334 V-68.269 H18.954 Z"/></g><g id="Medium-L" transform="matrix(1 0 0 1 1674.31 1556)"><path d="M109.752 29.428 V19.577 H125.877 V14.807 H116.202 V5.535 H125.877 V0.806 H109.752 V-9.044 H129.21 Q131.909 -9.044 133.818 -7.136 Q135.727 -5.227 135.727 -2.528 V3.614 Q135.727 6.405 133.818 8.308 Q131.909 10.211 129.21 10.211 Q131.909 10.211 133.818 12.123 Q135.727 14.034 135.727 16.689 V22.869 Q135.727 25.644 133.818 27.536 Q131.909 29.428 129.21 29.428 H109.752 Z M109.752 -16.013 V-33.363 Q109.752 -36.014 111.643 -37.96 Q113.535 -39.906 116.31 -39.906 H125.877 V-44.635 H109.752 V-54.485 H129.21 Q131.909 -54.485 133.818 -52.579 Q135.727 -50.673 135.727 -47.978 V-37.135 Q135.727 -34.44 133.818 -32.537 Q131.909 -30.634 129.21 -30.634 H119.602 V-25.863 H135.727 V-16.013 H109.752 Z M119.427 -61.535 V-90.427 H109.752 V-100.007 H129.277 V-61.535 H119.427 Z M19.322 8.56 V-2.023 H94.755 V8.56 H19.322 Z M19.322 -30.301 V-40.884 H94.755 V-30.301 H19.322 Z M19.322 -69.163 V-79.745 H94.755 V-69.163 H19.322 Z"/></g><g id="Regular-L" transform="matrix(1 0 0 1 1378.56 1556)"><path d="M109.328 28.464 V19.192 H125.453 V14.113 H115.778 V4.841 H125.453 V-0.158 H109.328 V-9.43 H128.516 Q131.084 -9.43 132.904 -7.61 Q134.724 -5.79 134.724 -3.222 V3.228 Q134.724 5.889 132.904 7.703 Q131.084 9.517 128.516 9.517 Q131.084 9.517 132.904 11.337 Q134.724 13.157 134.724 15.725 V22.175 Q134.724 24.836 132.904 26.65 Q131.084 28.464 128.516 28.464 H109.328 Z M109.328 -16.283 V-33.633 Q109.328 -36.197 111.142 -38.052 Q112.956 -39.906 115.616 -39.906 H125.453 V-44.905 H109.328 V-54.177 H128.516 Q131.084 -54.177 132.904 -52.359 Q134.724 -50.542 134.724 -47.978 V-36.827 Q134.724 -34.262 132.904 -32.448 Q131.084 -30.634 128.516 -30.634 H118.599 V-25.555 H134.724 V-16.283 H109.328 Z M119.002 -61.111 V-89.732 H109.328 V-99.004 H128.274 V-61.111 H119.002 Z M19.592 7.904 V-1.367 H94.331 V7.904 H19.592 Z M19.592 -30.957 V-40.229 H94.331 V-30.957 H19.592 Z M19.592 -69.818 V-79.09 H94.331 V-69.818 H19.592 Z"/></g><g id="Light-L" transform="matrix(1 0 0 1 1082.77 1556)"><path d="M108.211 25.549 V18.107 H124.336 V11.104 H114.661 V3.662 H124.336 V-3.228 H108.211 V-10.67 H126.5 Q128.673 -10.67 130.226 -9.118 Q131.778 -7.565 131.778 -5.393 V2.298 Q131.778 4.599 130.226 6.143 Q128.673 7.687 126.5 7.687 Q128.673 7.687 130.226 9.24 Q131.778 10.792 131.778 12.965 V20.159 Q131.778 22.46 130.226 24.004 Q128.673 25.549 126.5 25.549 H108.211 Z M108.211 -17.12 V-33.633 Q108.211 -35.838 109.755 -37.422 Q111.3 -39.007 113.6 -39.007 H124.336 V-45.897 H108.211 V-53.34 H126.5 Q128.673 -53.34 130.226 -51.791 Q131.778 -50.243 131.778 -48.076 V-36.827 Q131.778 -34.622 130.226 -33.093 Q128.673 -31.565 126.5 -31.565 H115.653 V-24.563 H131.778 V-17.12 H108.211 Z M117.886 -59.87 V-88.647 H108.211 V-96.089 H125.328 V-59.87 H117.886 Z M22.755 6.881 V-0.189 H93.091 V6.881 H22.755 Z M22.755 -31.98 V-39.05 H93.091 V-31.98 H22.755 Z M22.755 -70.842 V-77.912 H93.091 V-70.842 H22.755 Z"/></g><g id="Thin-L" transform="matrix(1 0 0 1 787.282 1556)"><path d="M107.095 22.634 V17.021 H123.22 V8.097 H113.545 V2.484 H123.22 V-6.298 H107.095 V-11.911 H124.485 Q126.262 -11.911 127.547 -10.626 Q128.833 -9.34 128.833 -7.563 V1.368 Q128.833 3.309 127.547 4.583 Q126.262 5.858 124.485 5.858 Q126.262 5.858 127.547 7.143 Q128.833 8.428 128.833 10.205 V18.144 Q128.833 20.085 127.547 21.36 Q126.262 22.634 124.485 22.634 H107.095 Z M107.095 -17.958 V-33.633 Q107.095 -35.478 108.369 -36.793 Q109.644 -38.108 111.585 -38.108 H123.22 V-46.89 H107.095 V-52.502 H124.485 Q126.262 -52.502 127.547 -51.223 Q128.833 -49.944 128.833 -48.175 V-36.827 Q128.833 -34.982 127.547 -33.738 Q126.262 -32.495 124.485 -32.495 H112.708 V-23.57 H128.833 V-17.958 H107.095 Z M116.77 -58.63 V-87.562 H107.095 V-93.175 H122.383 V-58.63 H116.77 Z M25.918 5.858 V0.989 H91.85 V5.858 H25.918 Z M25.918 -33.003 V-37.872 H91.85 V-33.003 H25.918 Z M25.918 -71.865 V-76.733 H91.85 V-71.865 H25.918 Z"/></g><g id="Ultralight-L" transform="matrix(1 0 0 1 491.205 1556)"><path d="M106.425 20.885 V16.37 H122.55 V6.292 H112.875 V1.777 H122.55 V-8.14 H106.425 V-12.655 H123.276 Q124.816 -12.655 125.94 -11.53 Q127.065 -10.406 127.065 -8.866 V0.809 Q127.065 2.535 125.94 3.647 Q124.816 4.76 123.276 4.76 Q124.816 4.76 125.94 5.885 Q127.065 7.009 127.065 8.549 V16.934 Q127.065 18.66 125.94 19.772 Q124.816 20.885 123.276 20.885 H106.425 Z M106.425 -18.46 V-33.633 Q106.425 -35.262 107.538 -36.415 Q108.65 -37.568 110.376 -37.568 H122.55 V-47.485 H106.425 V-52 H123.276 Q124.816 -52 125.94 -50.882 Q127.065 -49.764 127.065 -48.234 V-36.827 Q127.065 -35.198 125.94 -34.125 Q124.816 -33.053 123.276 -33.053 H110.94 V-22.975 H127.065 V-18.46 H106.425 Z M116.1 -57.886 V-86.911 H106.425 V-91.426 H120.615 V-57.886 H116.1 Z M27.816 5.244 V1.696 H91.106 V5.244 H27.816 Z M27.816 -33.617 V-37.165 H91.106 V-33.617 H27.816 Z M27.816 -72.479 V-76.026 H91.106 V-72.479 H27.816 Z"/></g><g id="Bold-M" transform="matrix(1 0 0 1 2281.8 1126)"><path d="M86.25 17.77 V8.395 H98.75 V5.583 H91.25 V-1.292 H98.75 V-4.105 H86.25 V-13.48 H102.188 Q104.656 -13.48 106.391 -11.746 Q108.125 -10.011 108.125 -7.542 V-3.792 Q108.125 -1.324 106.391 0.411 Q104.656 2.145 102.188 2.145 Q104.656 2.145 106.391 3.879 Q108.125 5.614 108.125 8.083 V11.833 Q108.125 14.301 106.391 16.036 Q104.656 17.77 102.188 17.77 H86.25 Z M86.25 -19.605 V-32.73 Q86.25 -35.199 87.984 -36.933 Q89.719 -38.667 92.188 -38.667 H98.75 V-41.48 H86.25 V-50.855 H102.188 Q104.656 -50.855 106.391 -49.121 Q108.125 -47.386 108.125 -44.917 V-37.73 Q108.125 -35.261 106.391 -33.527 Q104.656 -31.792 102.188 -31.792 H95.625 V-28.98 H108.125 V-19.605 H86.25 Z M93.75 -57.042 V-80.167 H86.25 V-88.292 H103.125 V-57.042 H93.75 Z M14.062 1.77 V-13.355 H75.25 V1.77 H14.062 Z M14.062 -27.73 V-42.855 H75.25 V-27.73 H14.062 Z M14.062 -57.23 V-72.355 H75.25 V-57.23 H14.062 Z"/></g><g id="Semibold-M" transform="matrix(1 0 0 1 1985.97 1126)"><path d="M85.489 15.922 V7.634 H97.989 V4.278 H90.489 V-2.597 H97.989 V-5.953 H85.489 V-14.241 H100.883 Q103.121 -14.241 104.699 -12.663 Q106.277 -11.084 106.277 -8.847 V-4.553 Q106.277 -2.315 104.699 -0.737 Q103.121 0.841 100.883 0.841 Q103.121 0.841 104.699 2.419 Q106.277 3.997 106.277 6.235 V10.528 Q106.277 12.766 104.699 14.344 Q103.121 15.922 100.883 15.922 H85.489 Z M85.489 -20.148 V-33.273 Q85.489 -35.511 87.067 -37.089 Q88.645 -38.667 90.883 -38.667 H97.989 V-42.023 H85.489 V-50.311 H100.883 Q103.121 -50.311 104.699 -48.733 Q106.277 -47.155 106.277 -44.917 V-37.186 Q106.277 -34.949 104.699 -33.371 Q103.121 -31.792 100.883 -31.792 H93.777 V-28.436 H106.277 V-20.148 H85.489 Z M92.989 -56.282 V-78.863 H85.489 V-86.445 H101.277 V-56.282 H92.989 Z M14.606 0.52 V-12.105 H74.489 V0.52 H14.606 Z M14.606 -28.98 V-41.605 H74.489 V-28.98 H14.606 Z M14.606 -58.48 V-71.105 H74.489 V-58.48 H14.606 Z"/></g><g id="Medium-M" transform="matrix(1 0 0 1 1689.91 1126)"><path d="M84.918 14.536 V7.064 H97.418 V3.3 H89.918 V-3.575 H97.418 V-7.339 H84.918 V-14.811 H99.905 Q101.969 -14.811 103.43 -13.351 Q104.891 -11.89 104.891 -9.825 V-5.124 Q104.891 -3.059 103.43 -1.598 Q101.969 -0.138 99.905 -0.138 Q101.969 -0.138 103.43 1.323 Q104.891 2.784 104.891 4.849 V9.55 Q104.891 11.615 103.43 13.075 Q101.969 14.536 99.905 14.536 H84.918 Z M84.918 -20.556 V-33.681 Q84.918 -35.746 86.379 -37.206 Q87.84 -38.667 89.905 -38.667 H97.418 V-42.431 H84.918 V-49.904 H99.905 Q101.969 -49.904 103.43 -48.443 Q104.891 -46.982 104.891 -44.917 V-36.779 Q104.891 -34.714 103.43 -33.253 Q101.969 -31.792 99.905 -31.792 H92.391 V-28.029 H104.891 V-20.556 H84.918 Z M92.418 -55.711 V-77.885 H84.918 V-85.059 H99.891 V-55.711 H92.418 Z M15.014 -0.417 V-11.167 H73.918 V-0.417 H15.014 Z M15.014 -29.917 V-40.667 H73.918 V-29.917 H15.014 Z M15.014 -59.417 V-70.167 H73.918 V-59.417 H15.014 Z"/></g><g id="Regular-M" transform="matrix(1 0 0 1 1394.06 1126)"><path d="M84.5 13.52 V6.645 H97 V2.583 H89.5 V-4.292 H97 V-8.355 H84.5 V-15.23 H99.188 Q101.125 -15.23 102.5 -13.855 Q103.875 -12.48 103.875 -10.542 V-5.542 Q103.875 -3.605 102.5 -2.23 Q101.125 -0.855 99.188 -0.855 Q101.125 -0.855 102.5 0.52 Q103.875 1.895 103.875 3.833 V8.833 Q103.875 10.77 102.5 12.145 Q101.125 13.52 99.188 13.52 H84.5 Z M84.5 -20.855 V-33.98 Q84.5 -35.917 85.875 -37.292 Q87.25 -38.667 89.188 -38.667 H97 V-42.73 H84.5 V-49.605 H99.188 Q101.125 -49.605 102.5 -48.23 Q103.875 -46.855 103.875 -44.917 V-36.48 Q103.875 -34.542 102.5 -33.167 Q101.125 -31.792 99.188 -31.792 H91.375 V-27.73 H103.875 V-20.855 H84.5 Z M92 -55.292 V-77.167 H84.5 V-84.042 H98.875 V-55.292 H92 Z M15.312 -1.105 V-10.48 H73.5 V-1.105 H15.312 Z M15.312 -30.605 V-39.98 H73.5 V-30.605 H15.312 Z M15.312 -60.105 V-69.48 H73.5 V-60.105 H15.312 Z"/></g><g id="Light-M" transform="matrix(1 0 0 1 1098.18 1126)"><path d="M83.635 11.26 V5.804 H96.135 V0.251 H88.635 V-5.206 H96.135 V-10.735 H83.635 V-16.192 H97.625 Q99.256 -16.192 100.424 -15.024 Q101.591 -13.856 101.591 -12.225 V-6.264 Q101.591 -4.605 100.424 -3.439 Q99.256 -2.273 97.625 -2.273 Q99.256 -2.273 100.424 -1.106 Q101.591 0.062 101.591 1.693 V7.27 Q101.591 8.929 100.424 10.094 Q99.256 11.26 97.625 11.26 H83.635 Z M83.635 -21.504 V-33.98 Q83.635 -35.639 84.8 -36.804 Q85.966 -37.97 87.625 -37.97 H96.135 V-43.499 H83.635 V-48.956 H97.625 Q99.256 -48.956 100.424 -47.789 Q101.591 -46.623 101.591 -44.994 V-36.48 Q101.591 -34.821 100.424 -33.667 Q99.256 -32.514 97.625 -32.514 H89.091 V-26.961 H101.591 V-21.504 H83.635 Z M91.135 -54.331 V-76.326 H83.635 V-81.783 H96.591 V-54.331 H91.135 Z M17.765 -2.187 V-9.182 H72.25 V-2.187 H17.765 Z M17.765 -31.783 V-38.778 H72.25 V-31.783 H17.765 Z M17.765 -61.379 V-68.374 H72.25 V-61.379 H17.765 Z"/></g><g id="Thin-M" transform="matrix(1 0 0 1 802.565 1126)"><path d="M82.769 9.001 V4.962 H95.269 V-2.081 H87.769 V-6.119 H95.269 V-13.115 H82.769 V-17.153 H96.062 Q97.387 -17.153 98.347 -16.193 Q99.308 -15.232 99.308 -13.908 V-6.985 Q99.308 -5.605 98.347 -4.648 Q97.387 -3.691 96.062 -3.691 Q97.387 -3.691 98.347 -2.731 Q99.308 -1.771 99.308 -0.446 V5.708 Q99.308 7.087 98.347 8.044 Q97.387 9.001 96.062 9.001 H82.769 Z M82.769 -22.153 V-33.98 Q82.769 -35.36 83.726 -36.316 Q84.683 -37.273 86.062 -37.273 H95.269 V-44.268 H82.769 V-48.307 H96.062 Q97.387 -48.307 98.347 -47.349 Q99.308 -46.391 99.308 -45.07 V-36.48 Q99.308 -35.1 98.347 -34.167 Q97.387 -33.235 96.062 -33.235 H86.808 V-26.191 H99.308 V-22.153 H82.769 Z M90.269 -53.369 V-75.485 H82.769 V-79.523 H94.308 V-53.369 H90.269 Z M20.216 -3.268 V-7.884 H71 V-3.268 H20.216 Z M20.216 -32.961 V-37.576 H71 V-32.961 H20.216 Z M20.216 -62.653 V-67.268 H71 V-62.653 H20.216 Z"/></g><g id="Ultralight-M" transform="matrix(1 0 0 1 506.415 1126)"><path d="M82.25 7.645 V4.458 H94.75 V-3.48 H87.25 V-6.667 H94.75 V-14.542 H82.25 V-17.73 H95.125 Q96.266 -17.73 97.102 -16.894 Q97.938 -16.058 97.938 -14.917 V-7.417 Q97.938 -6.205 97.102 -5.374 Q96.266 -4.542 95.125 -4.542 Q96.266 -4.542 97.102 -3.706 Q97.938 -2.871 97.938 -1.73 V4.77 Q97.938 5.983 97.102 6.814 Q96.266 7.645 95.125 7.645 H82.25 Z M82.25 -22.542 V-33.98 Q82.25 -35.192 83.081 -36.024 Q83.912 -36.855 85.125 -36.855 H94.75 V-44.73 H82.25 V-47.917 H95.125 Q96.266 -47.917 97.102 -47.085 Q97.938 -46.252 97.938 -45.116 V-36.48 Q97.938 -35.267 97.102 -34.467 Q96.266 -33.667 95.125 -33.667 H85.438 V-25.73 H97.938 V-22.542 H82.25 Z M89.75 -52.792 V-74.98 H82.25 V-78.167 H92.938 V-52.792 H89.75 Z M21.688 -3.917 V-7.105 H70.25 V-3.917 H21.688 Z M21.688 -33.667 V-36.855 H70.25 V-33.667 H21.688 Z M21.688 -63.417 V-66.605 H70.25 V-63.417 H21.688 Z"/></g><g id="Bold-S" transform="matrix(1 0 0 1 2294.23 696)"><path d="M67.262 0.275 V-5.938 H76.73 V-7.566 H71.996 V-11.807 H76.73 V-13.434 H67.262 V-19.647 H79.837 Q81.114 -19.647 82.029 -18.733 Q82.944 -17.818 82.944 -16.541 V-12.793 Q82.944 -11.516 82.029 -10.601 Q81.114 -9.686 79.837 -9.686 Q81.114 -9.686 82.029 -8.771 Q82.944 -7.857 82.944 -6.579 V-2.832 Q82.944 -1.554 82.029 -0.64 Q81.114 0.275 79.837 0.275 H67.262 Z M67.262 -25.269 V-34.244 Q67.262 -35.521 68.177 -36.436 Q69.092 -37.35 70.369 -37.35 H76.73 V-38.978 H67.262 V-45.191 H79.837 Q81.114 -45.191 82.029 -44.276 Q82.944 -43.362 82.944 -42.084 V-36.216 Q82.944 -34.939 82.029 -34.024 Q81.114 -33.11 79.837 -33.11 H73.476 V-31.482 H82.944 V-25.269 H67.262 Z M71.996 -50.862 V-65.557 H67.262 V-70.784 H78.21 V-50.862 H71.996 Z M13.462 -9.982 V-21.127 H59.372 V-9.982 H13.462 Z M13.462 -29.707 V-40.852 H59.372 V-29.707 H13.462 Z M13.462 -49.432 V-60.577 H59.372 V-49.432 H13.462 Z"/></g><g id="Semibold-S" transform="matrix(1 0 0 1 1998.1 696)"><path d="M66.662 -1.183 V-6.539 H76.13 V-8.595 H71.396 V-12.836 H76.13 V-14.892 H66.662 V-20.248 H78.808 Q79.903 -20.248 80.694 -19.456 Q81.486 -18.665 81.486 -17.57 V-13.393 Q81.486 -12.298 80.694 -11.507 Q79.903 -10.715 78.808 -10.715 Q79.903 -10.715 80.694 -9.924 Q81.486 -9.132 81.486 -8.037 V-3.861 Q81.486 -2.766 80.694 -1.974 Q79.903 -1.183 78.808 -1.183 H66.662 Z M66.662 -25.698 V-34.673 Q66.662 -35.768 67.453 -36.559 Q68.245 -37.35 69.34 -37.35 H76.13 V-39.407 H66.662 V-44.762 H78.808 Q79.903 -44.762 80.694 -43.971 Q81.486 -43.179 81.486 -42.084 V-35.787 Q81.486 -34.692 80.694 -33.901 Q79.903 -33.11 78.808 -33.11 H72.018 V-31.053 H81.486 V-25.698 H66.662 Z M71.396 -50.262 V-64.528 H66.662 V-69.326 H76.752 V-50.262 H71.396 Z M13.891 -10.968 V-20.14 H58.772 V-10.968 H13.891 Z M13.891 -30.693 V-39.865 H58.772 V-30.693 H13.891 Z M13.891 -50.418 V-59.59 H58.772 V-50.418 H13.891 Z"/></g><g id="Medium-S" transform="matrix(1 0 0 1 1701.85 696)"><path d="M66.212 -2.276 V-6.989 H75.68 V-9.367 H70.946 V-13.608 H75.68 V-15.985 H66.212 V-20.698 H78.036 Q78.994 -20.698 79.693 -19.999 Q80.392 -19.3 80.392 -18.342 V-13.843 Q80.392 -12.885 79.693 -12.186 Q78.994 -11.487 78.036 -11.487 Q78.994 -11.487 79.693 -10.788 Q80.392 -10.089 80.392 -9.131 V-4.633 Q80.392 -3.674 79.693 -2.975 Q78.994 -2.276 78.036 -2.276 H66.212 Z M66.212 -26.019 V-34.994 Q66.212 -35.952 66.911 -36.651 Q67.61 -37.35 68.568 -37.35 H75.68 V-39.728 H66.212 V-44.441 H78.036 Q78.994 -44.441 79.693 -43.742 Q80.392 -43.043 80.392 -42.084 V-35.466 Q80.392 -34.508 79.693 -33.809 Q78.994 -33.11 78.036 -33.11 H70.924 V-30.732 H80.392 V-26.019 H66.212 Z M70.946 -49.812 V-63.756 H66.212 V-68.233 H75.658 V-49.812 H70.946 Z M14.213 -11.708 V-19.401 H58.322 V-11.708 H14.213 Z M14.213 -31.433 V-39.126 H58.322 V-31.433 H14.213 Z M14.213 -51.158 V-58.851 H58.322 V-51.158 H14.213 Z"/></g><g id="Regular-S" transform="matrix(1 0 0 1 1405.73 696)"><path d="M65.882 -3.078 V-7.319 H75.35 V-9.933 H70.615 V-14.174 H75.35 V-16.787 H65.882 V-21.028 H77.47 Q78.328 -21.028 78.959 -20.397 Q79.59 -19.766 79.59 -18.908 V-14.174 Q79.59 -13.316 78.959 -12.684 Q78.328 -12.053 77.47 -12.053 Q78.328 -12.053 78.959 -11.422 Q79.59 -10.791 79.59 -9.933 V-5.199 Q79.59 -4.341 78.959 -3.709 Q78.328 -3.078 77.47 -3.078 H65.882 Z M65.882 -26.255 V-35.23 Q65.882 -36.088 66.513 -36.719 Q67.144 -37.35 68.002 -37.35 H75.35 V-39.964 H65.882 V-44.205 H77.47 Q78.328 -44.205 78.959 -43.574 Q79.59 -42.942 79.59 -42.084 V-35.23 Q79.59 -34.372 78.959 -33.741 Q78.328 -33.11 77.47 -33.11 H70.122 V-30.496 H79.59 V-26.255 H65.882 Z M70.615 -49.481 V-63.19 H65.882 V-67.431 H74.856 V-49.481 H70.615 Z M14.449 -12.25 V-18.858 H57.992 V-12.25 H14.449 Z M14.449 -31.975 V-38.583 H57.992 V-31.975 H14.449 Z M14.449 -51.7 V-58.308 H57.992 V-51.7 H14.449 Z"/></g><g id="Light-S" transform="matrix(1 0 0 1 1109.75 696)"><path d="M65.199 -4.861 V-7.983 H74.667 V-11.773 H69.933 V-14.894 H74.667 V-18.665 H65.199 V-21.787 H76.237 Q76.853 -21.787 77.321 -21.319 Q77.788 -20.851 77.788 -20.235 V-14.743 Q77.788 -14.105 77.321 -13.638 Q76.853 -13.172 76.237 -13.172 Q76.853 -13.172 77.321 -12.705 Q77.788 -12.237 77.788 -11.621 V-6.432 Q77.788 -5.794 77.321 -5.327 Q76.853 -4.861 76.237 -4.861 H65.199 Z M65.199 -26.767 V-35.23 Q65.199 -35.868 65.665 -36.334 Q66.131 -36.8 66.769 -36.8 H74.667 V-40.571 H65.199 V-43.693 H76.237 Q76.853 -43.693 77.321 -43.226 Q77.788 -42.76 77.788 -42.145 V-35.23 Q77.788 -34.592 77.321 -34.135 Q76.853 -33.679 76.237 -33.679 H68.32 V-29.889 H77.788 V-26.767 H65.199 Z M69.933 -48.723 V-62.526 H65.199 V-65.648 H73.054 V-48.723 H69.933 Z M16.383 -13.104 V-17.834 H57.005 V-13.104 H16.383 Z M16.383 -32.905 V-37.635 H57.005 V-32.905 H16.383 Z M16.383 -52.706 V-57.436 H57.005 V-52.706 H16.383 Z"/></g><g id="Thin-S" transform="matrix(1 0 0 1 814.015 696)"><path d="M64.516 -6.644 V-8.647 H73.984 V-13.612 H69.25 V-15.615 H73.984 V-20.542 H64.516 V-22.545 H75.004 Q75.379 -22.545 75.683 -22.241 Q75.987 -21.937 75.987 -21.563 V-15.311 Q75.987 -14.894 75.683 -14.592 Q75.379 -14.291 75.004 -14.291 Q75.379 -14.291 75.683 -13.987 Q75.987 -13.683 75.987 -13.309 V-7.664 Q75.987 -7.246 75.683 -6.945 Q75.379 -6.644 75.004 -6.644 H64.516 Z M64.516 -27.279 V-35.23 Q64.516 -35.648 64.817 -35.949 Q65.118 -36.25 65.536 -36.25 H73.984 V-41.178 H64.516 V-43.181 H75.004 Q75.379 -43.181 75.683 -42.879 Q75.987 -42.577 75.987 -42.205 V-35.23 Q75.987 -34.812 75.683 -34.53 Q75.379 -34.247 75.004 -34.247 H66.519 V-29.282 H75.987 V-27.279 H64.516 Z M69.25 -47.964 V-61.863 H64.516 V-63.865 H71.253 V-47.964 H69.25 Z M18.318 -13.957 V-16.81 H56.019 V-13.957 H18.318 Z M18.318 -33.834 V-36.687 H56.019 V-33.834 H18.318 Z M18.318 -53.711 V-56.563 H56.019 V-53.711 H18.318 Z"/></g><g id="Ultralight-S" transform="matrix(1 0 0 1 517.792 696)"><path d="M64.106 -7.714 V-9.045 H73.574 V-14.716 H68.84 V-16.047 H73.574 V-21.669 H64.106 V-23 H74.265 Q74.494 -23 74.7 -22.795 Q74.906 -22.589 74.906 -22.359 V-15.653 Q74.906 -15.367 74.7 -15.165 Q74.494 -14.963 74.265 -14.963 Q74.494 -14.963 74.7 -14.757 Q74.906 -14.551 74.906 -14.321 V-8.404 Q74.906 -8.118 74.7 -7.916 Q74.494 -7.714 74.265 -7.714 H64.106 Z M64.106 -27.587 V-35.23 Q64.106 -35.516 64.308 -35.718 Q64.511 -35.92 64.797 -35.92 H73.574 V-41.542 H64.106 V-42.873 H74.265 Q74.494 -42.873 74.7 -42.67 Q74.906 -42.467 74.906 -42.241 V-35.23 Q74.906 -34.944 74.7 -34.766 Q74.494 -34.589 74.265 -34.589 H65.438 V-28.918 H74.906 V-27.587 H64.106 Z M68.84 -47.509 V-61.464 H64.106 V-62.796 H70.172 V-47.509 H68.84 Z M19.478 -14.469 V-16.195 H55.427 V-14.469 H19.478 Z M19.478 -34.392 V-36.118 H55.427 V-34.392 H19.478 Z M19.478 -54.314 V-56.04 H55.427 V-54.314 H19.478 Z"/></g></g></svg>